<?xml version="1.0" encoding="UTF-8" ?>
<!DOCTYPE svg PUBLIC "-//W3C//DTD SVG 1.1//EN" "http://www.w3.org/Graphics/SVG/1.1/DTD/svg11.dtd">
<svg width="1318pt" height="269pt" viewBox="0 0 1318 269" version="1.1" xmlns="http://www.w3.org/2000/svg">
<g id="#de1429ff">
<path fill="#de1429" opacity="1.00" d=" M 131.22 147.98 C 131.33 98.69 131.11 49.39 131.33 0.10 C 159.81 7.78 188.25 15.68 216.05 25.58 C 230.35 30.37 244.84 36.53 255.40 47.67 C 267.13 60.07 272.07 77.29 272.92 94.00 C 273.56 107.95 272.86 122.38 267.60 135.48 C 263.99 144.53 256.92 152.54 247.52 155.70 C 234.93 160.02 220.78 157.20 209.40 150.85 C 209.12 122.90 209.36 94.94 209.28 66.98 C 209.15 62.36 209.99 57.44 207.90 53.12 C 205.56 47.97 199.32 45.14 193.88 46.57 C 190.11 48.56 187.51 52.67 187.78 57.00 C 187.92 98.24 187.56 139.49 187.96 180.72 L 187.98 181.05 C 188.21 192.52 188.30 204.01 187.91 215.48 C 187.74 221.94 187.66 228.41 187.95 234.87 C 187.97 235.19 188.02 235.83 188.05 236.15 C 188.26 247.02 188.08 257.89 188.12 268.76 C 169.20 262.85 150.37 256.63 131.48 250.63 C 130.91 244.69 131.42 238.69 131.23 232.73 C 131.21 227.71 131.22 222.69 131.21 217.67 C 131.22 212.09 131.21 206.51 131.22 200.93 C 131.27 194.35 131.24 187.76 131.23 181.17 C 131.31 170.11 131.17 159.05 131.22 147.98 Z" />
</g>
<g id="#000000ff">
<path fill="#000000" opacity="1.00" d=" M 378.06 59.21 C 394.71 59.32 411.35 59.19 427.99 59.27 C 437.21 59.88 446.97 60.71 454.95 65.84 C 459.72 68.86 463.37 73.67 464.80 79.15 C 466.62 85.94 468.30 92.90 467.97 99.98 C 467.82 105.05 468.38 110.18 467.30 115.18 C 465.97 122.74 463.77 130.60 458.23 136.21 C 452.29 142.47 443.36 144.59 435.03 144.96 C 427.19 145.07 419.35 144.96 411.51 145.00 C 411.49 140.33 411.49 135.67 411.51 131.00 C 419.91 130.47 428.86 132.54 436.75 128.79 C 443.36 125.08 444.20 116.79 444.96 110.01 C 445.06 100.89 446.01 90.98 441.20 82.77 C 438.05 77.48 432.17 73.92 425.98 73.97 C 417.24 74.02 408.49 73.99 399.75 74.00 C 399.74 115.59 399.76 157.17 399.74 198.75 C 392.52 198.75 385.31 198.75 378.09 198.75 C 378.00 152.24 378.06 105.73 378.06 59.21 Z" />
<path fill="#000000" opacity="1.00" d=" M 484.06 59.21 C 491.36 59.29 498.66 59.26 505.97 59.23 C 506.01 105.74 506.04 152.26 505.95 198.78 C 498.65 198.72 491.34 198.74 484.04 198.77 C 483.99 152.25 483.94 105.73 484.06 59.21 Z" />
<path fill="#000000" opacity="1.00" d=" M 748.04 65.21 C 754.68 60.51 763.06 59.51 770.97 59.26 C 782.56 59.23 794.15 59.27 805.74 59.25 C 805.75 63.81 805.72 68.37 805.79 72.94 C 794.51 73.27 783.14 72.11 771.97 74.04 C 767.13 74.91 762.20 77.57 760.27 82.33 C 757.57 89.17 756.69 96.86 758.18 104.08 C 759.17 108.64 762.77 112.64 767.46 113.47 C 778.86 115.81 791.27 113.62 801.94 119.11 C 806.95 121.38 809.75 126.48 811.52 131.43 C 816.91 146.68 817.90 163.83 812.40 179.19 C 809.54 187.58 802.44 194.53 793.77 196.68 C 788.69 198.47 783.27 197.90 778.00 197.95 C 765.33 197.97 752.67 197.91 740.00 197.98 C 740.00 193.49 740.00 189.00 740.00 184.51 C 749.67 184.47 759.33 184.54 769.00 184.49 C 775.97 184.43 783.51 182.68 788.36 177.33 C 791.79 173.01 792.53 167.31 792.98 161.99 C 793.08 155.11 793.59 147.43 789.38 141.54 C 785.53 136.58 778.65 137.06 773.06 136.19 C 766.01 135.97 758.85 135.29 752.25 132.66 C 746.68 130.39 741.69 126.29 739.24 120.70 C 734.19 107.82 733.41 93.17 738.07 80.05 C 739.67 74.21 742.91 68.62 748.04 65.21 Z" />
<path fill="#000000" opacity="1.00" d=" M 1071.04 59.22 C 1078.34 59.27 1085.64 59.28 1092.95 59.21 C 1093.04 65.73 1093.01 72.25 1092.97 78.77 C 1085.65 78.74 1078.35 78.73 1071.04 78.78 C 1070.97 72.26 1070.97 65.74 1071.04 59.22 Z" />
<path fill="#000000" opacity="1.00" d=" M 838.02 72.00 C 845.27 72.02 852.52 71.96 859.78 72.04 C 859.71 78.71 859.77 85.38 859.73 92.06 C 868.07 92.08 876.42 91.99 884.76 92.11 C 884.74 96.65 884.75 101.20 884.75 105.75 C 876.42 105.75 868.09 105.74 859.76 105.75 C 859.76 127.48 859.70 149.21 859.79 170.93 C 859.88 175.78 861.18 181.90 866.27 183.83 C 870.60 184.41 875.02 183.80 879.39 184.00 C 879.56 188.75 879.52 193.52 879.45 198.28 C 872.66 198.73 865.85 198.40 859.05 198.51 C 853.02 198.57 846.46 197.38 841.99 193.04 C 837.98 188.73 837.74 182.59 838.04 177.05 C 838.04 142.03 838.08 107.02 838.02 72.00 Z" />
<path fill="#000000" opacity="1.00" d=" M 1007.00 72.00 C 1014.33 72.00 1021.66 72.00 1029.00 72.00 C 1028.99 78.68 1029.01 85.37 1028.99 92.05 C 1037.24 92.08 1045.49 92.01 1053.75 92.09 C 1053.75 96.64 1053.74 101.19 1053.75 105.74 C 1045.50 105.76 1037.25 105.74 1029.00 105.75 C 1028.98 126.51 1029.03 147.27 1028.98 168.03 C 1028.79 172.10 1029.09 176.33 1031.10 179.97 C 1032.23 182.60 1035.17 184.11 1037.96 184.06 C 1041.54 184.05 1045.14 183.90 1048.73 184.15 C 1048.76 188.89 1048.70 193.64 1048.81 198.39 C 1041.87 198.62 1034.93 198.44 1028.00 198.51 C 1022.40 198.51 1016.45 197.57 1012.02 193.88 C 1008.25 190.41 1007.02 185.01 1006.99 180.06 C 1007.01 144.04 1007.00 108.02 1007.00 72.00 Z" />
<path fill="#000000" opacity="1.00" d=" M 1145.57 91.67 C 1157.67 89.98 1170.12 89.86 1182.12 92.28 C 1190.68 93.96 1198.83 99.12 1202.83 107.03 C 1209.27 118.94 1209.49 132.89 1209.66 146.09 C 1209.44 159.94 1208.74 174.95 1200.33 186.60 C 1193.55 195.63 1181.70 198.05 1171.08 198.90 C 1159.31 199.03 1147.04 199.74 1135.91 195.17 C 1128.83 192.51 1123.20 186.63 1120.34 179.69 C 1115.22 167.85 1115.01 154.68 1115.01 142.00 C 1115.36 129.41 1116.15 116.04 1122.94 105.03 C 1127.76 97.16 1136.73 93.04 1145.57 91.67 M 1155.28 106.30 C 1149.20 107.38 1143.85 111.63 1141.53 117.36 C 1137.03 128.28 1137.72 140.36 1137.81 151.92 C 1138.19 160.84 1139.44 170.49 1145.23 177.68 C 1151.40 184.28 1161.57 185.14 1169.92 183.16 C 1176.65 181.84 1181.81 176.24 1183.86 169.88 C 1187.80 158.66 1187.07 146.59 1186.89 134.91 C 1185.93 126.45 1185.08 116.83 1178.49 110.65 C 1172.24 105.11 1163.08 105.06 1155.28 106.30 Z" />
<path fill="#000000" opacity="1.00" d=" M 541.01 92.00 C 552.70 92.05 564.40 91.91 576.10 92.07 C 585.01 92.65 594.54 93.53 602.03 98.87 C 605.96 101.90 609.02 106.11 610.41 110.90 C 612.60 121.12 611.89 131.61 612.00 141.98 C 612.00 160.82 612.00 179.65 612.00 198.49 C 599.33 198.32 586.68 198.89 574.01 198.75 C 563.48 198.84 552.66 198.91 542.56 195.49 C 536.54 193.50 530.91 189.29 528.80 183.11 C 524.85 171.27 524.59 158.13 528.31 146.21 C 530.73 138.99 538.12 135.11 545.09 133.44 C 555.52 131.01 566.32 130.91 576.98 131.00 C 576.93 135.66 576.94 140.32 576.96 144.99 C 569.35 145.09 561.17 144.03 554.34 148.17 C 552.05 149.92 549.67 152.11 549.20 155.11 C 548.25 161.03 547.95 167.07 548.94 173.01 C 549.08 176.63 551.09 180.07 554.29 181.82 C 559.35 184.65 565.40 184.22 571.00 184.26 C 577.33 183.96 583.66 183.97 590.00 184.00 C 590.01 163.65 589.98 143.31 590.02 122.96 C 589.84 118.59 588.36 113.99 584.98 111.04 C 581.07 107.12 575.33 105.74 569.95 105.76 C 560.32 105.74 550.68 105.72 541.05 105.79 C 540.96 101.19 541.00 96.60 541.01 92.00 Z" />
<path fill="#000000" opacity="1.00" d=" M 624.82 92.04 C 632.75 92.08 640.69 92.01 648.62 92.08 C 657.11 115.71 666.12 139.15 674.47 162.83 C 681.31 147.64 687.11 131.99 693.48 116.59 C 696.73 108.40 700.26 100.32 703.40 92.08 C 710.34 92.03 717.28 92.04 724.23 92.07 C 702.90 145.44 681.08 198.62 659.61 251.94 C 652.66 251.95 645.71 251.95 638.77 251.94 C 646.32 232.56 654.51 213.42 662.04 194.03 C 662.10 192.19 660.98 190.58 660.47 188.87 C 648.56 156.60 636.66 124.33 624.82 92.04 Z" />
<path fill="#000000" opacity="1.00" d=" M 911.01 92.00 C 926.59 92.43 942.31 90.89 957.77 93.36 C 965.28 94.61 973.11 97.93 977.28 104.65 C 981.76 110.81 981.10 118.81 981.95 126.00 C 982.05 150.17 982.09 174.35 981.72 198.52 C 973.16 198.46 964.60 198.45 956.04 198.76 C 942.56 198.45 928.81 199.86 915.60 196.45 C 908.68 194.79 901.60 190.89 898.90 183.92 C 894.80 172.17 894.32 159.09 897.83 147.12 C 899.56 140.71 905.30 136.40 911.42 134.52 C 922.86 130.79 935.10 131.00 947.00 131.00 C 947.00 135.67 947.00 140.33 947.00 145.00 C 940.82 145.27 934.42 144.13 928.49 146.33 C 923.98 147.61 919.49 151.09 918.97 156.03 C 918.31 160.59 917.44 165.24 918.29 169.83 C 918.95 173.35 918.96 177.46 921.85 180.04 C 925.84 183.96 931.81 184.23 937.08 184.27 C 944.73 184.22 952.38 183.81 960.05 184.03 C 960.07 164.36 960.02 144.68 960.07 125.00 C 960.00 119.80 958.51 114.18 954.47 110.62 C 950.57 107.09 945.17 105.76 940.02 105.76 C 930.36 105.74 920.70 105.73 911.04 105.78 C 910.97 101.19 910.99 96.59 911.01 92.00 Z" />
<path fill="#000000" opacity="1.00" d=" M 1071.01 92.05 C 1078.33 92.05 1085.66 92.06 1092.99 92.04 C 1092.99 127.62 1093.05 163.20 1092.95 198.78 C 1085.64 198.72 1078.34 198.74 1071.03 198.77 C 1070.96 163.20 1071.01 127.62 1071.01 92.05 Z" />
<path fill="#000000" opacity="1.00" d=" M 1232.51 92.00 C 1249.34 92.07 1266.18 91.85 1283.00 92.10 C 1292.92 92.83 1304.15 93.91 1311.33 101.64 C 1315.96 106.37 1317.45 113.03 1318.00 119.42 L 1318.00 198.70 C 1310.83 198.78 1303.66 198.76 1296.49 198.73 C 1296.39 175.48 1296.10 152.23 1296.27 128.98 C 1296.26 124.20 1296.55 119.09 1294.14 114.77 C 1290.93 109.06 1284.28 105.89 1277.88 105.82 C 1270.12 105.61 1262.36 105.86 1254.61 105.70 C 1254.39 136.68 1254.48 167.66 1254.57 198.64 C 1247.18 198.80 1239.79 198.86 1232.41 198.60 C 1232.63 163.07 1232.42 127.53 1232.51 92.00 Z" />
</g>
<g id="#4078b3ff">
<path fill="#4078b3" opacity="1.00" d=" M 107.07 156.49 C 114.99 153.33 123.14 150.71 131.22 147.98 C 131.17 159.05 131.31 170.11 131.23 181.17 L 130.46 181.49 C 130.29 176.01 130.88 170.49 130.19 165.04 C 130.00 164.73 129.62 164.10 129.43 163.78 C 122.13 160.92 114.25 159.72 107.07 156.49 Z" />
<path fill="#4078b3" opacity="1.00" d=" M 218.36 171.08 C 247.97 164.98 279.09 164.22 308.51 171.80 C 319.96 174.99 331.49 178.91 341.30 185.79 C 345.71 188.94 349.90 194.04 348.77 199.82 C 347.10 206.34 341.39 210.65 336.00 214.11 C 331.50 216.83 326.80 219.31 321.81 221.00 C 311.89 217.24 301.54 214.77 291.41 211.61 C 285.25 209.65 278.86 208.34 272.99 205.53 C 279.77 202.99 286.75 200.98 293.47 198.28 C 295.97 197.36 297.50 195.14 298.75 192.92 C 295.73 188.07 289.59 187.60 284.49 186.85 C 275.16 186.12 265.54 186.83 256.76 190.26 C 251.02 192.38 245.29 194.52 239.53 196.58 C 236.79 195.50 234.01 194.52 231.18 193.73 C 216.75 189.60 202.43 185.09 187.98 181.05 L 187.96 180.72 C 198.10 177.55 207.84 172.98 218.36 171.08 Z" />
</g>
<g id="#1ba1a4ff">
<path fill="#1ba1a4" opacity="1.00" d=" M 103.66 157.42 C 104.78 157.11 105.91 156.50 107.07 156.49 C 114.25 159.72 122.13 160.92 129.43 163.78 C 129.62 164.10 130.00 164.73 130.19 165.04 C 130.88 170.49 130.29 176.01 130.46 181.49 C 112.66 187.67 94.88 193.86 77.10 200.08 C 60.34 194.95 43.80 189.12 27.03 184.05 C 52.53 175.05 78.14 166.38 103.66 157.42 Z" />
<path fill="#1ba1a4" opacity="1.00" d=" M 187.98 181.05 C 202.43 185.09 216.75 189.60 231.18 193.73 C 234.01 194.52 236.79 195.50 239.53 196.58 C 222.33 202.90 205.15 209.27 187.91 215.48 C 188.30 204.01 188.21 192.52 187.98 181.05 Z" />
<path fill="#1ba1a4" opacity="1.00" d=" M 106.76 209.49 C 114.92 206.66 123.01 203.61 131.22 200.93 C 131.21 206.51 131.22 212.09 131.21 217.67 C 123.06 214.96 114.74 212.69 106.76 209.49 Z" />
<path fill="#1ba1a4" opacity="1.00" d=" M 187.95 234.87 C 216.35 225.25 244.62 215.24 272.99 205.53 C 278.86 208.34 285.25 209.65 291.41 211.61 C 301.54 214.77 311.89 217.24 321.81 221.00 C 293.18 231.27 264.52 241.48 235.86 251.65 C 219.92 246.52 203.99 241.31 188.05 236.15 C 188.02 235.83 187.97 235.19 187.95 234.87 Z" />
</g>
<g id="#f5cb0fff">
<path fill="#f5cb0f" opacity="1.00" d=" M 6.57 195.60 C 12.62 190.58 19.63 186.67 27.03 184.05 C 43.80 189.12 60.34 194.95 77.10 200.08 C 70.73 202.52 64.15 204.38 57.84 206.96 C 55.31 207.86 53.36 209.75 52.16 212.13 C 55.93 216.43 61.88 217.44 67.28 218.06 C 81.01 219.06 94.07 214.00 106.76 209.49 C 114.74 212.69 123.06 214.96 131.21 217.67 C 131.22 222.69 131.21 227.71 131.23 232.73 C 103.90 238.33 75.43 239.30 47.94 234.20 C 35.75 231.81 23.70 228.09 12.79 222.08 C 7.83 219.20 2.62 215.64 0.55 210.03 C -1.19 204.46 2.56 199.10 6.57 195.60 Z" />
<path fill="#f5cb0f" opacity="1.00" d=" M 188.05 236.15 C 203.99 241.31 219.92 246.52 235.86 251.65 C 220.01 257.51 204.03 263.05 188.12 268.76 C 188.08 257.89 188.26 247.02 188.05 236.15 Z" />
</g>
</svg>
