<?xml version="1.0" encoding="UTF-8" standalone="no"?>
<!-- Generator: Adobe Illustrator 16.0.3, SVG Export Plug-In . SVG Version: 6.00 Build 0)  -->

<svg
   xmlns:dc="http://purl.org/dc/elements/1.1/"
   xmlns:cc="http://creativecommons.org/ns#"
   xmlns:rdf="http://www.w3.org/1999/02/22-rdf-syntax-ns#"
   xmlns:svg="http://www.w3.org/2000/svg"
   xmlns="http://www.w3.org/2000/svg"
   xmlns:sodipodi="http://sodipodi.sourceforge.net/DTD/sodipodi-0.dtd"
   xmlns:inkscape="http://www.inkscape.org/namespaces/inkscape"
   version="1.1"
   id="Ebene_1"
   x="0px"
   y="0px"
   width="953.03699"
   height="454.95456"
   viewBox="0 0 953.03696 454.95457"
   enable-background="new 0 0 566.929 458.929"
   xml:space="preserve"
   inkscape:version="0.48.4 r9939"
   sodipodi:docname="logo.svg"><metadata
     id="metadata33"><rdf:RDF><cc:Work
         rdf:about=""><dc:format>image/svg+xml</dc:format><dc:type
           rdf:resource="http://purl.org/dc/dcmitype/StillImage" /><dc:title /></cc:Work></rdf:RDF></metadata><defs
     id="defs31" /><sodipodi:namedview
     pagecolor="#ffffff"
     bordercolor="#666666"
     borderopacity="1"
     objecttolerance="10"
     gridtolerance="10"
     guidetolerance="10"
     inkscape:pageopacity="0"
     inkscape:pageshadow="2"
     inkscape:window-width="1629"
     inkscape:window-height="1026"
     id="namedview29"
     showgrid="false"
     fit-margin-top="0"
     fit-margin-left="0"
     fit-margin-right="0"
     fit-margin-bottom="0"
     inkscape:zoom="1.4368413"
     inkscape:cx="711.30653"
     inkscape:cy="53.467322"
     inkscape:window-x="51"
     inkscape:window-y="24"
     inkscape:window-maximized="1"
     inkscape:current-layer="g3854" /><g
     id="g3"
     transform="translate(-1.9870152,-1.9894444)"><g
       id="g5"
       style="fill:#fa8c4e;fill-opacity:1" /><g
       id="g3854"><g
         id="g3891"><path
           d="m 564.898,182.695 c 0.103,-1.35 0,-2.745 0,-3.875 0.015,-25.821 0.018,-51.642 -0.007,-77.463 -10e-4,-1.341 -0.074,-2.729 -0.417,-4.015 C 557.024,69.363 543.532,44.982 521.178,26.124 502.825,10.643 481.743,2.007 457.451,2.011 393.43,2.022 329.409,2.015 265.387,2.015 179.219,2.015 93.052,2.014 6.885,2.025 c -1.591,0 -3.182,-0.08 -4.898,0 0,19.744 0,39.258 0,58.69 1.204,0.469 2.251,0.942 3.338,1.29 7.92,2.53 15.849,5.035 23.776,7.545 79.821,25.273 159.644,50.542 239.464,75.823 37.698,11.939 75.383,23.919 113.091,35.826 2.366,0.747 4.884,1.441 7.333,1.444 57.348,0.081 114.696,0.064 172.045,0.052 1.128,0 2.515,0.104 3.864,0 z m -222.241,-3.722 c -51.406,-16.294 -102.396,-32.456 -154.027,-48.82 0,76.025 0,151.292 0,226.685 -22.218,11.208 -44.116,22.253 -65.864,33.224 0,22.504 0,44.586 0,66.882 89.945,0 179.608,0 269.52,0 0,-43.316 0,-86.366 0,-129.985 -16.6,0 -32.95,0 -49.629,0 0,-49.564 0,-98.559 0,-147.986 z m 17.448,17.717 c 0,38.089 0,75.92 0,114.012 68.267,0 136.274,0 204.543,0 0,-38.089 0,-75.92 0,-114.012 -68.267,0 -136.273,0 -204.543,0 z"
           id="path7"
           inkscape:connector-curvature="0"
           style="fill:#fb7b27;fill-opacity:1;fill-rule:evenodd" /><g
           style="fill:#fa8c4e;fill-opacity:1"
           id="g56"
           transform="matrix(1.9909581,0,0,-1.9909581,472.15478,434.87223)"><path
             inkscape:connector-curvature="0"
             d="m 0,0 0,42 3.3,0 c 1.2,0 1,0.1 1,-1 l 0,-6.8 0,-0.7 4.4,0 c 0.5,0 1,-0.1 1.4,-0.2 1.7,-0.5 2.8,-2.3 2.8,-3.9 L 12.9,4 C 12.9,1.8 11,-0.1 8.8,-0.1 5.9,0 3,0 0,0 m 8.6,29.3 -4.3,0 0,-25 4.3,0"
             style="fill:#c0392b;fill-opacity:1;fill-rule:nonzero;stroke:none"
             id="path58" /></g><g
           style="fill:#fa8c4e;fill-opacity:1"
           id="g60"
           transform="matrix(1.9909581,0,0,-1.9909581,447.75976,434.87045)"><path
             inkscape:connector-curvature="0"
             d="m 0,0 -12.9,0 0,42 2.7,0 c 1.5,0 1.5,0 1.5,-1.5 l 0,-35.4 0,-0.8 1.1,0 c 1.4,0 2.9,0 4.3,-0.1 C -1.4,4 -0.1,2.1 0.1,0.4 0,0.3 0,0.2 0,0"
             style="fill:#c0392b;fill-opacity:1;fill-rule:nonzero;stroke:none"
             id="path62" /></g><g
           style="fill:#fa8c4e;fill-opacity:1"
           id="g64"
           transform="matrix(1.9909581,0,0,-1.9909581,462.97745,368.03677)"><path
             inkscape:connector-curvature="0"
             d="m 0,0 0,-33.9 c -1.1,-0.1 -2,0.4 -2.8,1.1 -1,0.9 -1.5,2 -1.5,3.3 l 0,28.8 0,0.7 4.3,0 z"
             style="fill:#c0392b;fill-opacity:1;fill-rule:nonzero;stroke:none"
             id="path66" /></g><path
           inkscape:connector-curvature="0"
           d="m 454.69408,351.34298 8.36202,0 0,8.56112 -8.36202,0 0,-8.56112 z"
           style="fill:#c0392b;fill-opacity:1;fill-rule:nonzero;stroke:none"
           id="path68" /><g
           style="fill:#6b6b6b;fill-opacity:1;stroke:#6b6b6b;stroke-opacity:1"
           id="g52"
           transform="matrix(1.9909581,0,0,-1.9909581,911.84474,351.47378)"><path
             inkscape:connector-curvature="0"
             d="m 0,0 12.4,0 c 2.3,0 4.3,-0.6 6,-2.1 1.5,-1.4 2.5,-3.1 2.7,-5.1 0.1,-1.1 0.1,-2.2 0.1,-3.3 l 0,-23.4 c 0,-1.9 -0.5,-3.6 -1.6,-5.1 -1.4,-1.9 -3.3,-3 -5.6,-3.3 -0.6,-0.1 -1.1,-0.1 -1.7,-0.1 l -24.9,0 c -2.5,0 -4.7,0.9 -6.4,2.7 -1.2,1.4 -2,3 -2.1,4.8 -0.1,2.2 -0.1,4.4 -0.1,6.6 l 0,19.6 c 0,1.8 0.4,3.5 1.5,5 1.4,2 3.3,3.2 5.8,3.5 0.5,0.1 1,0.1 1.5,0.1 C -8.4,0 -4.2,0 0,0 z m -12.7,-21.2 c 0.1,-7 5.5,-12.5 12.3,-12.7 7.3,-0.2 12.8,5.6 13,12.4 0.1,7 -5.4,12.6 -12.2,12.9 -7.3,0.3 -13.1,-5.5 -13.1,-12.6 z"
             style="fill:#6b6b6b;fill-opacity:1;stroke:#6b6b6b;stroke-width:1;stroke-linecap:butt;stroke-linejoin:miter;stroke-miterlimit:10;stroke-opacity:1;stroke-dasharray:none"
             id="path54" /></g><g
           style="fill:#6b6b6b;fill-opacity:1;stroke:#6b6b6b;stroke-opacity:1"
           id="g70"
           transform="matrix(1.9909581,0,0,-1.9909581,627.00335,384.87629)"><path
             inkscape:connector-curvature="0"
             d="m 0,0 26.6,0 0,-8.9 -26.5,0 0,-7.8 31,0 0,-8.8 -44.3,0 0,0.6 0,27 c 0,0.9 0.3,1.8 0.7,2.6 2,3.6 4,7.3 6,10.9 0.4,0.8 1.2,0.9 1.9,1 l 0.5,0 34.6,0 0.6,0 0,-8.9 -0.7,0 -25.6,0 C 3.8,7.7 3.1,7.3 2.7,6.3 1.9,4.3 1,2.2 0.2,0.2 0.1,0.3 0.1,0.2 0,0"
             style="fill:#6b6b6b;fill-opacity:1;fill-rule:nonzero;stroke:#6b6b6b;stroke-opacity:1"
             id="path72" /></g><g
           style="fill:#6b6b6b;fill-opacity:1;stroke:#6b6b6b;stroke-opacity:1"
           id="g74"
           transform="matrix(1.9909581,0,0,-1.9909581,777.49348,351.55184)"><path
             inkscape:connector-curvature="0"
             d="m 0,0 0.7,0 34.1,0 c 1.5,0 2.5,-0.7 3.2,-1.9 1.1,-2.2 2.2,-4.5 3.3,-6.8 0.9,-1.8 1.7,-3.6 2.6,-5.4 0.3,-0.7 0.6,-1.5 0.2,-2.3 -0.3,-0.6 -0.7,-1.1 -1.1,-1.5 -2.1,-2.5 -4.3,-5 -6.5,-7.5 -0.3,-0.3 -0.5,-0.6 -0.8,-0.9 -0.3,-0.2 -0.2,-0.4 -0.1,-0.7 2.3,-4 4.6,-8 6.9,-12 0.6,-1 1.2,-2 1.8,-3.1 l -0.5,0 -12.3,0 c -0.4,0 -0.6,0.1 -0.8,0.4 -3.4,5.6 -6.8,11.3 -10.2,16.9 -0.4,0.6 -0.7,1.2 -1.1,1.7 -0.3,0.5 -0.4,0.9 -0.1,1.4 0.3,0.5 0.7,0.6 1.2,0.6 l 4.1,0 c 0.9,0 1.7,0.3 2.3,1.1 1.2,1.5 2.5,2.8 3.8,4.2 0.2,0.2 0.3,0.4 0.1,0.6 -0.7,1.7 -1.4,3.4 -2,5.1 -0.4,0.9 -1,1.3 -2,1.3 l -12.9,0 -0.7,0 0,-33.4 L 0,-42.2 0,0 z"
             style="fill:#6b6b6b;fill-opacity:1;fill-rule:nonzero;stroke:#6b6b6b;stroke-opacity:1"
             id="path76" /></g><g
           style="fill:#6b6b6b;fill-opacity:1;stroke:#6b6b6b;stroke-opacity:1"
           id="g78"
           transform="matrix(1.9909581,0,0,-1.9909581,911.84474,351.47378)"><path
             inkscape:connector-curvature="0"
             d="m 0,0 12.4,0 c 2.3,0 4.3,-0.6 6,-2.1 1.5,-1.4 2.5,-3.1 2.7,-5.1 0.1,-1.1 0.1,-2.2 0.1,-3.3 l 0,-23.4 c 0,-1.9 -0.5,-3.6 -1.6,-5.1 -1.4,-1.9 -3.3,-3 -5.6,-3.3 -0.6,-0.1 -1.1,-0.1 -1.7,-0.1 l -24.9,0 c -2.5,0 -4.7,0.9 -6.4,2.7 -1.2,1.4 -2,3 -2.1,4.8 -0.1,2.2 -0.1,4.4 -0.1,6.6 l 0,19.6 c 0,1.8 0.4,3.5 1.5,5 1.4,2 3.3,3.2 5.8,3.5 0.5,0.1 1,0.1 1.5,0.1 C -8.4,0 -4.2,0 0,0 m -12.7,-21.2 c 0.1,-7 5.5,-12.5 12.3,-12.7 7.3,-0.2 12.8,5.6 13,12.4 0.1,7 -5.4,12.6 -12.2,12.9 -7.3,0.3 -13.1,-5.5 -13.1,-12.6"
             style="fill:#6b6b6b;fill-opacity:1;fill-rule:nonzero;stroke:#6b6b6b;stroke-opacity:1"
             id="path80" /></g><g
           style="fill:#6b6b6b;fill-opacity:1;stroke:#6b6b6b;stroke-opacity:1"
           id="g82"
           transform="matrix(1.9909581,0,0,-1.9909581,689.29106,409.34018)"><path
             inkscape:connector-curvature="0"
             d="m 0,0 0,15.7 0.6,0 12.1,0 c 0.5,0 0.6,0.1 0.6,0.6 l 0,12 0,0.7 15.7,0 0,-13.3 13.2,0 0,-15.7 -13.3,0 0,-13.3 -15.7,0 0,0.6 0,12 C 13.2,-0.2 13.1,0 12.5,0 L 0.5,0 C 0.6,0 0,0 0,0 m 21.1,12.5 c -2.6,0 -4.7,-2 -4.7,-4.6 0,-2.6 2.1,-4.6 4.6,-4.7 2.6,0 4.6,2 4.7,4.6 0,2.6 -2,4.7 -4.6,4.7 m 12,-9.1 4.4,4.4 -4.4,4.4 0,-8.8 z M 16.7,20 l 8.9,0 -4.4,4.4 c -1.6,-1.5 -3,-3 -4.5,-4.4 M 4.6,7.9 C 6,6.5 7.5,5 8.9,3.5 l 0,8.7 C 7.5,10.8 6,9.3 4.6,7.9 M 21,-8.6 c 1.5,1.5 3,2.9 4.4,4.4 l -8.8,0 c 1.5,-1.5 3,-3 4.4,-4.4"
             style="fill:#6b6b6b;fill-opacity:1;fill-rule:nonzero;stroke:#6b6b6b;stroke-opacity:1"
             id="path84" /></g><g
           style="fill:#6b6b6b;fill-opacity:1;stroke:#6b6b6b;stroke-opacity:1"
           id="g86"
           transform="matrix(1.9909581,0,0,-1.9909581,533.89141,369.10133)"><path
             inkscape:connector-curvature="0"
             d="m 0,0 0,-33.4 -13.3,0 0,42.2 0.7,0 34.4,0 c 1.2,0 2.1,-0.4 2.6,-1.4 0.8,-1.5 1.5,-3 2.3,-4.5 1.3,-2.8 2.7,-5.5 4,-8.3 0.5,-1.1 0.4,-2.1 -0.5,-3 -1.7,-1.9 -3.3,-3.8 -4.9,-5.7 -0.9,-1.1 -1.9,-2.2 -2.8,-3.3 -0.3,-0.3 -0.3,-0.5 -0.1,-0.8 2.8,-5 5.7,-9.9 8.5,-14.9 0,-0.1 0.1,-0.1 0.1,-0.2 l -0.4,0 -12.3,0 c -0.3,0 -0.5,0.1 -0.7,0.4 -3.7,6.2 -7.5,12.4 -11.2,18.7 -0.3,0.5 -0.4,1 -0.1,1.5 0.3,0.5 0.7,0.6 1.3,0.6 l 3.9,0 c 1,0 1.8,0.3 2.4,1.1 1.2,1.4 2.4,2.8 3.7,4.2 0.2,0.3 0.3,0.5 0.1,0.7 -0.6,1.6 -1.3,3.2 -1.9,4.8 -0.5,1.1 -1,1.5 -2.2,1.5 L 0.8,0.2 0,0.2 C 0,0.2 0,0 0,0"
             style="fill:#6b6b6b;fill-opacity:1;fill-rule:nonzero;stroke:#6b6b6b;stroke-opacity:1"
             id="path88" /></g><g
           id="g11"><path
             d="m 3.972,59.45 c -2.648,266.31932 -1.324,133.15966 0,0 z"
             id="path15"
             inkscape:connector-curvature="0"
             sodipodi:nodetypes="cc" /></g></g></g><g
       id="g17" /></g></svg>