<svg xmlns="http://www.w3.org/2000/svg" width="401.30734" height="69.776146">
  <g fill="#2e3192">
    <path d="M345.8716544.64865778h17.01068338l8.4016396 19.32327557 12.599274-19.32327557h17.42407605l-24.56784105 38.22183264-3.98881448 29.8209009h-15.7485616l4.6181057-34.02561395M220.7106547 68.69139133l2.10023294-15.12705688H198.8744614l1.469526-11.7540842h20.7871386l2.10164868-15.11997826H202.6537481l1.4709417-10.9223439h23.93571838L230.37087676.6486578h-39.6878193l-9.4499864 68.04273355m-101.8496175-33.6065584l5.24952055-14.06809212 1.6811774 14.06809212h-6.9306979zM73.7141696 48.52504957h14.27903563l2.52211996 20.159971h25.8285471L128.313855 31.7253097l5.88164323 36.9597108h13.6497444L162.964513 29.62578457l2.52070424 39.05923594h15.1192704L176.4040218.6458264h-18.0604459l-14.06879997 35.9078247L138.813604.6458263h-16.1690329l-18.47879364 55.8589758L97.23507956.6458263H77.0751086L54.604669 57.1333855l2.94046768-22.0492604h-27.2994888l-1.89141302 13.4402166h11.9713985l-.8409426 4.61952144c-2.10023294 1.25858246-6.92928217 1.46952598-8.81927945 1.46952598-1.8899972 0-15.9587972-1.25929032-15.329506-16.37997643.6292913-15.1185626 20.7892622-29.1880704 44.7285199-21.4185535l2.3118843-14.4899791C46.4153887-3.1341683 4.4970894-.0790266.2152192 37.3945936-2.3040693 59.443854 17.85590168 69.9443108 31.29470257 69.7354909c7.77022477.4204713 16.59091995-2.52070425 19.74020755-4.20117374l-1.0490547 3.15070333h15.960213l7.76810115-20.159971z"/>
    <path d="M328.85955527.01936655c-10.9209281-.4204713-26.67090544 5.87951963-31.92042598 31.2904269-5.2495206 25.4080758 8.8192794 35.69829694 21.8390247 37.37805856 13.0218689 1.6797617 31.2911347-6.5095187 34.650658-30.8692477C356.789751 13.4581675 344.8176446.6500735 328.8595552.0193666zm-1.67976162 14.48997915c4.4092858 0 13.85856433 2.94046768 11.54809574 20.5783187-2.3090529 17.63997462-13.2285653 19.74020756-17.2195034 19.31973625-3.9902302-.4204713-12.1802185-3.14857974-9.8697499-19.31973624 2.3097607-16.168325 10.9188045-20.7885543 15.5411574-20.5783187z"/>
    <path d="M262.49870694 26.690272h8.82069517c6.5102266 0 7.7702248-4.20046587 7.9783369-5.87881177.2102357-1.68117736-1.6783459-5.04140848-5.0378691-5.04140848h-10.2902212L262.498707 26.690272zm-3.77999456 26.87830963h11.9713985c6.50881086 0 7.97833684-5.03928488 8.18715676-6.71975437.21165138-1.67976163-1.6783459-5.03857702-5.03786915-5.03857702h-13.4395088l-1.6811774 11.7583314zm-17.6385589 15.1206861L250.5301399.65078138h28.97854258c6.93211363 0 17.0106834 7.98046043 15.75139307 18.68973716-1.25929032 10.70998458-4.6202293 11.33998368-6.9306979 13.0197453 3.57117464 3.14787188 7.14093355 8.1885725 5.67140758 17.6385589-1.4709417 9.45140213-9.24116647 18.68973715-22.89091088 18.68973715l-30.02972083.0007078zM381.26769336 58.396923c-2.5907828 0-4.68252135 2.0889071-4.68252135 4.66694834 0 2.60564794 2.0903229 4.6952629 4.6825214 4.6952629 2.5773334 0 4.6662405-2.08961496 4.6662405-4.6952629-.0007078-2.5787491-2.0910307-4.66694834-4.6662404-4.66694834v-.64203278c2.9376362 0 5.3075654 2.38267073 5.3075654 5.30898112 0 2.95320924-2.3699292 5.33587997-5.3075654 5.33587997-2.95462496-.0007078-5.33658783-2.3826707-5.33658783-5.3358799 0-2.9270182 2.38196287-5.3082732 5.33658783-5.3082732v.6413249z"/>
    <path d="M380.0091109 60.61961643h1.70028968c.73971803 0 1.54455957.11113467 1.54455957 1.03135807 0 1.21115556-1.29397566 1.07312205-2.1306711 1.07312205l-1.11417816-.00070786v.5719542h1.3385711l1.7002897 2.7450971h.8628863l-1.797267-2.7450971c1.0589647-.0268989 1.8800872-.4594039 1.8800872-1.6295033 0-.5025836-.2215615-1.0313581-.6689317-1.2833577-.4438308-.2647412-.94712224-.2923479-1.4489979-.2923479h-2.58936708v5.9488903h.7227293v-5.4194079z"/>
  </g>
</svg>
