<?xml version="1.0" encoding="utf-8"?>
<!-- Generator: Adobe Illustrator 19.0.0, SVG Export Plug-In . SVG Version: 6.00 Build 0)  -->
<svg version="1.1" baseProfile="tiny"
	 id="svg2" xmlns:svg="http://www.w3.org/2000/svg" inkscape:version="0.91 r13725" sodipodi:docname="icon_filled.svg" xmlns:dc="http://purl.org/dc/elements/1.1/" xmlns:sodipodi="http://sodipodi.sourceforge.net/DTD/sodipodi-0.dtd" xmlns:cc="http://creativecommons.org/ns#" xmlns:inkscape="http://www.inkscape.org/namespaces/inkscape" xmlns:rdf="http://www.w3.org/1999/02/22-rdf-syntax-ns#"
	 xmlns="http://www.w3.org/2000/svg" xmlns:xlink="http://www.w3.org/1999/xlink" x="0px" y="0px" viewBox="-290 382 30 30"
	 xml:space="preserve">
<sodipodi:namedview  inkscape:current-layer="svg2" inkscape:pageshadow="2" inkscape:window-x="-8" inkscape:pageopacity="0" inkscape:window-height="1027" inkscape:window-maximized="1" inkscape:window-y="-8" inkscape:window-width="1920" inkscape:zoom="21.036212" id="namedview4" objecttolerance="10" borderopacity="1" gridtolerance="10" showgrid="false" guidetolerance="10" inkscape:cy="13.376988" inkscape:cx="14.394621" pagecolor="#ffffff" bordercolor="#666666">
	</sodipodi:namedview>
<g id="Group_115">
	<g id="Group_116">
		<g id="path781">
			<path fill="#767676" d="M-264.1,388.6c-0.2-0.2-1.9,0.1-2.9,0.6c-1,0.5-2.3,1.4-2.3,1.4s-0.8-2-2.7-4.3c-1.9-2.3-4.1-3.5-4.2-3.5
				l0,0c-0.2,0-2.4,1.2-4.2,3.5c-1.9,2.3-2.7,4.3-2.7,4.3s-1.3-0.9-2.3-1.4c-1-0.5-2.7-0.8-2.9-0.6c-0.2,0.2-0.5,1.8-0.1,4.2
				c0.4,2.4,1.1,3.8,1.4,4.8c0.3,1-0.2,1.4,0.3,4.6c0.6,3.7,2.7,4.4,2.7,4.4s5.2,0.4,7.6,0.4c0,0,0.1,0,0.1,0v0c0,0,0.1,0,0.1,0
				c2.4,0,7.6-0.4,7.6-0.4s2.1-0.7,2.7-4.4c0.5-3.2,0-3.5,0.3-4.6s1.1-2.4,1.4-4.8S-263.9,388.8-264.1,388.6z"/>
			<path d="M-275.9,407c-0.1,0-0.2,0-0.3,0c-0.1,0-0.2,0-0.3,0c-2.4,0-7.4-0.4-7.4-0.4c0,0,0,0,0,0c0,0-2.1-0.8-2.7-4.5
				c-0.3-1.8-0.3-2.7-0.2-3.3c0-0.5,0-0.8-0.1-1.2c-0.1-0.2-0.2-0.5-0.3-0.8c-0.4-0.9-0.9-2.2-1.1-4c-0.4-2.3-0.2-3.9,0.1-4.2
				c0.3-0.3,2,0.1,3,0.6c0.9,0.5,2,1.2,2.2,1.3c0.1-0.3,1-2.2,2.6-4.2c1.9-2.3,4.1-3.6,4.3-3.6s2.4,1.2,4.3,3.6
				c1.7,2.1,2.5,3.9,2.6,4.2c0.2-0.2,1.3-0.9,2.2-1.3c1-0.5,2.7-0.8,3-0.6l0,0l0,0l0,0c0.3,0.3,0.5,1.9,0.1,4.2
				c-0.3,1.8-0.8,3.1-1.1,4c-0.1,0.3-0.2,0.6-0.3,0.8c-0.1,0.4-0.1,0.7-0.1,1.2c0,0.6,0.1,1.5-0.2,3.3c-0.6,3.7-2.7,4.5-2.7,4.5
				c0,0,0,0,0,0C-268.6,406.6-273.5,407-275.9,407z M-276.2,406.9C-276.2,406.9-276.2,406.9-276.2,406.9c0.2,0,0.2,0,0.3,0
				c2.4,0,7.2-0.4,7.4-0.4c0.1,0,2.1-0.9,2.6-4.4c0.3-1.8,0.3-2.7,0.2-3.3c0-0.5,0-0.8,0.1-1.2c0.1-0.2,0.2-0.5,0.3-0.8
				c0.4-0.9,0.8-2.2,1.1-4c0.4-2.4,0.1-3.9-0.1-4.1l0,0c-0.2-0.2-1.8,0-2.8,0.6c-1,0.5-2.3,1.4-2.3,1.4c0,0,0,0,0,0c0,0,0,0,0,0
				c0,0-0.8-2-2.7-4.3c-1.9-2.4-4-3.5-4.2-3.5c-0.2,0-2.3,1.2-4.2,3.5c-1.9,2.3-2.6,4.3-2.7,4.3c0,0,0,0,0,0c0,0,0,0,0,0
				c0,0-1.3-0.9-2.3-1.4c-1-0.5-2.6-0.8-2.8-0.6c-0.2,0.2-0.5,1.7-0.1,4.1c0.3,1.8,0.8,3.1,1.1,4c0.1,0.3,0.2,0.6,0.3,0.8
				c0.1,0.4,0.1,0.8,0.1,1.2c0,0.6-0.1,1.5,0.2,3.3c0.6,3.5,2.5,4.3,2.6,4.4C-283.7,406.5-278.6,406.9-276.2,406.9
				C-276.3,406.9-276.3,406.9-276.2,406.9C-276.3,406.9-276.2,406.9-276.2,406.9z"/>
		</g>
		<g id="path783">
			<path fill="#767676" d="M-281.4,392.1c0,0-0.5-0.6-0.9-0.9c-0.4-0.3-0.8-0.7-0.8-0.7"/>
			<path d="M-281.4,392.2C-281.4,392.2-281.4,392.2-281.4,392.2c0,0-0.6-0.6-1-0.9c-0.4-0.3-0.8-0.7-0.8-0.7l0.1-0.1
				c0,0,0.4,0.3,0.8,0.7C-281.9,391.5-281.3,392.1-281.4,392.2C-281.3,392.1-281.3,392.2-281.4,392.2
				C-281.4,392.2-281.4,392.2-281.4,392.2z"/>
		</g>
		<g id="path785">
			<path fill="#767676" d="M-271.1,392.1c0,0,0.5-0.6,0.9-0.9c0.4-0.3,0.8-0.7,0.8-0.7"/>
			<path d="M-271.1,392.2C-271.1,392.2-271.1,392.2-271.1,392.2C-271.1,392.2-271.1,392.1-271.1,392.2c0-0.1,0.5-0.7,0.9-1l0.8-0.7
				c0,0,0.1,0,0.1,0c0,0,0,0.1,0,0.1l-0.8,0.7C-270.5,391.6-271,392.2-271.1,392.2C-271,392.2-271.1,392.2-271.1,392.2z"/>
		</g>
	</g>
	<g id="path787">
		<path fill="#767676" d="M-286.8,401c-0.1,0.7-0.7,2-1.2,2.7c-0.9,1.3-2,2-2,2.1c0,0.1,2.9,1.1,4.8,2.2c1.8,1.1,4.8,2.7,6.4,2.9
			c1.7,0.3,2.5,0.2,2.5,0.2s0.9,0.1,2.5-0.2c1.7-0.3,4.6-1.8,6.4-2.9c1.8-1.1,4.8-2.1,4.8-2.2c0-0.1-1-1-2-2.1
			c-0.6-0.8-1-1.8-1.2-2.6"/>
		<path d="M-276,411.2c-0.1,0-0.2,0-0.2,0c0,0-0.9,0-2.5-0.2c-1.8-0.3-4.8-1.9-6.5-2.9c-1.2-0.7-2.8-1.4-3.8-1.8
			c-0.9-0.4-1-0.4-1-0.5c0-0.1,0.1-0.1,0.4-0.4c0.4-0.4,1.1-1,1.6-1.8c0.5-0.7,1.1-2,1.2-2.6c0,0,0,0,0.1,0c0,0,0,0,0,0.1
			c-0.1,0.7-0.7,2-1.2,2.7c-0.6,0.8-1.3,1.4-1.7,1.8c-0.1,0.1-0.3,0.3-0.3,0.3c0.1,0.1,0.5,0.2,0.9,0.4c1,0.4,2.6,1.1,3.8,1.8
			c1.6,1,4.7,2.6,6.4,2.9c1.6,0.3,2.5,0.2,2.5,0.2c0,0,0.9,0,2.5-0.2c1.7-0.3,4.8-1.9,6.4-2.9c1.2-0.7,2.8-1.4,3.8-1.8
			c0.4-0.2,0.8-0.3,0.9-0.4c0-0.1-0.2-0.3-0.4-0.5c-0.4-0.4-1-1-1.5-1.7c-0.6-0.8-1-1.8-1.2-2.6c0,0,0-0.1,0-0.1c0,0,0.1,0,0.1,0
			c0.2,0.8,0.6,1.9,1.2,2.6c0.6,0.7,1.1,1.3,1.5,1.6c0.4,0.3,0.5,0.5,0.5,0.5c0,0.1-0.1,0.1-1,0.5c-1,0.4-2.6,1.1-3.8,1.8
			c-1.6,1-4.7,2.7-6.5,2.9C-274.9,411.2-275.7,411.2-276,411.2z"/>
	</g>
	<g id="Group_117">
		<g id="Group_118">
			<g id="path791">
				<path fill="#5F5F5F" d="M-279.7,405.8c0.9,0,1.7-0.6,2-1.4c-0.3-0.1-0.5-0.2-0.8-0.3c-0.3,0.5-0.7,0.7-1.2,0.7
					c-0.8,0-1.5-0.8-1.5-1.8c0-0.2,0-0.4,0.1-0.5c-0.2-0.2-0.4-0.3-0.6-0.5c0,0,0,0-0.1-0.1c-0.1,0.3-0.2,0.7-0.2,1.1
					C-282,404.6-281,405.8-279.7,405.8z"/>
				<path d="M-279.7,405.8c-1.3,0-2.4-1.3-2.4-2.8c0-0.4,0.1-0.8,0.2-1.1c0,0,0,0,0,0s0,0,0,0c0,0,0,0,0,0l0,0
					c0.2,0.2,0.4,0.3,0.6,0.5c0,0,0,0,0,0.1c0,0.2-0.1,0.3-0.1,0.5c0,1,0.7,1.7,1.5,1.7c0.5,0,0.9-0.3,1.2-0.7c0,0,0,0,0.1,0
					c0.3,0.1,0.6,0.2,0.8,0.3c0,0,0,0,0,0c0,0,0,0,0,0C-278,405.3-278.8,405.8-279.7,405.8z M-281.8,402c-0.1,0.3-0.2,0.7-0.2,1
					c0,1.5,1,2.7,2.3,2.7c0.8,0,1.6-0.5,2-1.4c-0.2-0.1-0.5-0.1-0.7-0.2c-0.3,0.5-0.8,0.7-1.2,0.7c-0.9,0-1.6-0.8-1.6-1.8
					c0-0.2,0-0.3,0.1-0.5C-281.4,402.4-281.6,402.2-281.8,402L-281.8,402z"/>
			</g>
			<g id="path793">
				<path d="M-281.2,403c0,1,0.7,1.8,1.5,1.8c0.5,0,1-0.3,1.2-0.7c-0.8-0.3-1.7-0.8-2.7-1.6C-281.2,402.7-281.2,402.9-281.2,403z"/>
				<path d="M-279.7,404.9c-0.9,0-1.6-0.8-1.6-1.8c0-0.2,0-0.4,0.1-0.5c0,0,0,0,0,0c0,0,0,0,0,0c0.8,0.7,1.7,1.2,2.6,1.5
					c0,0,0,0,0,0c0,0,0,0,0,0C-278.7,404.6-279.2,404.9-279.7,404.9z M-281.1,402.6c0,0.1,0,0.3,0,0.4c0,1,0.7,1.7,1.5,1.7
					c0.4,0,0.9-0.2,1.1-0.7C-279.5,403.7-280.3,403.2-281.1,402.6z"/>
			</g>
		</g>
		<g id="Group_119">
			<g id="path796">
				<path d="M-267.5,398.1c0,0-1.1,2-3.2,3.9c-2.2,2-4.5,2.6-5.5,2.6c0,0,0,0,0,0c0,0,0,0,0,0c-0.3,0-0.8-0.1-1.4-0.2
					c-0.4,0.9-1.2,1.4-2,1.4c-1.3,0-2.3-1.2-2.3-2.7c0-0.4,0.1-0.8,0.2-1.1c-1.1-1-1.9-2.1-2.5-2.8l0,0c0,0-0.4,1.2-0.2,2.9
					c0.2,1.4,0.6,2.6,0.7,2.7c0.4,0.4,0.8,0.8,1.4,1.2c1.4,1,2.6,0.8,3.3,0.6c0.6-0.2,1.7-1.1,2.9-1.1c0,0,0,0,0,0c0,0,0,0,0,0
					c1.2,0,2.2,0.9,2.9,1.1c0.6,0.2,1.9,0.4,3.3-0.6c1.4-1,2.2-1.8,2.7-3.8C-266.8,400.1-267.5,398.1-267.5,398.1z"/>
				<path d="M-272.3,406.8c-0.3,0-0.7-0.1-1.1-0.2c-0.2-0.1-0.5-0.2-0.8-0.4c-0.6-0.3-1.3-0.7-2.1-0.7c0,0,0,0,0,0
					c-0.8,0-1.5,0.4-2.1,0.7c-0.3,0.2-0.6,0.3-0.8,0.4c-1.2,0.3-2.3,0.1-3.3-0.6c-0.5-0.3-1-0.7-1.4-1.2c0,0,0,0,0,0
					c-0.1-0.2-0.5-1.3-0.7-2.7c-0.2-1.7,0.2-2.9,0.2-3c0,0,0,0,0,0l0,0c0,0,0,0,0,0c0,0,0,0,0,0c0.5,0.7,1.3,1.7,2.4,2.8
					c0,0,0,0,0,0.1c-0.1,0.3-0.2,0.7-0.2,1.1c0,1.5,1,2.7,2.3,2.7c0.8,0,1.6-0.5,2-1.4c0,0,0,0,0.1,0c0.7,0.2,1.2,0.2,1.4,0.2l0,0
					l0,0l0,0c0,0,0,0,0,0c-0.4,0-0.9-0.1-1.4-0.2c-0.4,0.9-1.2,1.4-2.1,1.4c-1.3,0-2.4-1.3-2.4-2.8c0-0.4,0.1-0.8,0.2-1.1
					c-1.1-1-1.9-2-2.4-2.7c-0.1,0.3-0.3,1.4-0.2,2.8c0.2,1.4,0.6,2.5,0.7,2.7c0.4,0.4,0.9,0.8,1.4,1.1c1,0.7,2.1,0.9,3.2,0.6
					c0.2-0.1,0.5-0.2,0.8-0.4c0.6-0.3,1.3-0.7,2.1-0.7l0,0c0,0,0,0,0,0c0,0,0,0,0,0c0.8,0,1.5,0.4,2.1,0.7c0.3,0.2,0.6,0.3,0.8,0.4
					c1.1,0.3,2.2,0.1,3.2-0.6c1.3-0.9,2.2-1.7,2.7-3.8c0.4-1.8,0-3.5-0.1-3.9c-0.3,0.4-1.4,2.1-3.2,3.8c-2.2,2.1-4.5,2.6-5.6,2.6
					l0-0.1l0,0c1,0,3.3-0.5,5.5-2.6c2-1.9,3.2-3.9,3.2-3.9c0,0,0,0,0,0c0,0,0,0,0,0s0.6,2,0.1,4.1c-0.5,2.2-1.4,2.9-2.7,3.9
					C-270.7,406.5-271.5,406.8-272.3,406.8z"/>
			</g>
			<g id="path798">
				<path fill="#1D1D1D" d="M-284.3,399.1L-284.3,399.1c-0.4-0.6-0.7-1.1-0.7-1.1s-0.6,2-0.1,4.1c0.3,1.3,0.7,2,1.3,2.7
					c-0.1-0.2-0.5-1.3-0.7-2.7C-284.7,400.3-284.3,399.1-284.3,399.1z"/>
				<path d="M-283.8,404.9C-283.8,404.9-283.8,404.9-283.8,404.9c-0.7-0.7-1.1-1.5-1.4-2.7c-0.5-2.1,0.1-4.1,0.1-4.1c0,0,0,0,0,0
					c0,0,0,0,0,0c0,0,0.2,0.4,0.7,1c0,0,0,0,0,0.1l0,0c0,0.1-0.4,1.3-0.2,2.9C-284.3,403.5-283.8,404.6-283.8,404.9
					C-283.7,404.8-283.7,404.8-283.8,404.9C-283.8,404.9-283.8,404.9-283.8,404.9z M-285,398.2c-0.1,0.4-0.5,2.2-0.1,3.9
					c0.3,1.1,0.6,1.8,1.1,2.4c-0.2-0.4-0.5-1.4-0.6-2.5c-0.2-1.7,0.2-2.9,0.2-3C-284.6,398.7-284.9,398.4-285,398.2z"/>
			</g>
		</g>
		<g id="path800">
			<path fill="#1D1D1D" d="M-268.2,399.1L-268.2,399.1c0.4-0.6,0.7-1.1,0.7-1.1s0.6,2,0.1,4.1c-0.3,1.3-0.7,2-1.3,2.7
				c0.1-0.2,0.5-1.3,0.7-2.7C-267.8,400.3-268.2,399.1-268.2,399.1z"/>
			<path d="M-268.7,404.9C-268.7,404.9-268.7,404.9-268.7,404.9C-268.7,404.8-268.7,404.8-268.7,404.9c0-0.3,0.5-1.4,0.6-2.8
				c0.2-1.6-0.1-2.8-0.2-2.9l0,0c0,0,0,0,0-0.1c0.5-0.6,0.7-1,0.7-1c0,0,0,0,0,0c0,0,0,0,0,0s0.6,2,0.1,4.1
				C-267.6,403.3-268,404.1-268.7,404.9C-268.6,404.9-268.6,404.9-268.7,404.9z M-268.1,399.1c0,0.1,0.4,1.3,0.2,3
				c-0.1,1.1-0.4,2-0.6,2.5c0.5-0.6,0.9-1.4,1.1-2.4c0.4-1.8,0-3.5-0.1-3.9C-267.6,398.4-267.8,398.7-268.1,399.1z"/>
		</g>
		<g id="path802">
			<path fill="#5F5F5F" d="M-272.8,405.8c-0.9,0-1.7-0.6-2-1.4c0.3-0.1,0.5-0.2,0.8-0.3c0.3,0.5,0.7,0.7,1.2,0.7
				c0.8,0,1.5-0.8,1.5-1.8c0-0.2,0-0.4-0.1-0.5c0.2-0.2,0.4-0.3,0.6-0.5c0,0,0,0,0.1-0.1c0.1,0.3,0.2,0.7,0.2,1.1
				C-270.5,404.6-271.5,405.8-272.8,405.8z"/>
			<path d="M-272.8,405.9c-0.9,0-1.7-0.6-2.1-1.5c0,0,0,0,0,0c0,0,0,0,0,0c0.3-0.1,0.5-0.2,0.8-0.3c0,0,0,0,0.1,0
				c0.3,0.5,0.7,0.7,1.2,0.7c0.8,0,1.5-0.8,1.5-1.7c0-0.2,0-0.3-0.1-0.5c0,0,0,0,0-0.1c0.2-0.2,0.4-0.4,0.6-0.5c0,0,0,0,0,0l0,0
				c0,0,0,0,0,0c0,0,0,0,0,0c0.1,0.4,0.2,0.7,0.2,1.1C-270.4,404.6-271.5,405.9-272.8,405.9z M-274.8,404.4c0.4,0.8,1.2,1.4,2,1.4
				c1.3,0,2.3-1.2,2.3-2.7c0-0.4-0.1-0.7-0.2-1c0,0,0,0,0,0c-0.2,0.2-0.4,0.3-0.6,0.5c0,0.2,0.1,0.3,0.1,0.5c0,1-0.7,1.8-1.6,1.8
				c-0.5,0-1-0.3-1.2-0.7C-274.3,404.3-274.5,404.3-274.8,404.4z"/>
		</g>
		<g id="path804">
			<path d="M-271.3,403.1c0,1-0.7,1.8-1.5,1.8c-0.5,0-1-0.3-1.2-0.7c0.8-0.3,1.7-0.8,2.7-1.6C-271.3,402.7-271.3,402.9-271.3,403.1z
				"/>
			<path d="M-272.8,404.9c-0.5,0-1-0.3-1.3-0.8c0,0,0,0,0,0c0,0,0,0,0,0c0.9-0.4,1.8-0.9,2.6-1.5c0,0,0,0,0,0c0,0,0,0,0,0
				c0,0.2,0.1,0.4,0.1,0.5C-271.2,404.1-271.9,404.9-272.8,404.9z M-273.9,404.1c0.3,0.4,0.7,0.7,1.2,0.7c0.8,0,1.5-0.8,1.5-1.7
				c0-0.1,0-0.3,0-0.4C-272.2,403.3-273,403.8-273.9,404.1z"/>
		</g>
	</g>
	<g id="path806">
		<path fill="#E5E5E5" d="M-268,405.3c-0.2-0.6-0.7-0.6-1.2-0.2c-0.4,0.4-1.4,1.4-3,1.6c-1.6,0.1-2.9-1.3-4.1-1.3
			c-1.1,0-2.4,1.4-4.1,1.3c-1.6-0.1-2.6-1.2-3-1.6c-0.4-0.4-1-0.4-1.2,0.2c-0.2,0.6,0,2,0.8,2.9s2.3,2,4.7,2.7
			c1,0.3,1.9,0.4,2.8,0.4c0.9,0,1.8-0.1,2.8-0.4c2.4-0.7,3.9-1.7,4.7-2.7S-267.8,405.9-268,405.3z"/>
		<path d="M-276.2,411.3c-0.9,0-1.9-0.2-2.8-0.4c-2.7-0.8-4.1-2-4.7-2.7c-0.8-0.9-1-2.4-0.8-3c0.1-0.3,0.3-0.4,0.5-0.5
			c0.2-0.1,0.5,0,0.8,0.3c0.1,0,0.1,0.1,0.2,0.2c0.5,0.5,1.4,1.3,2.8,1.4c0.1,0,0.1,0,0.2,0c0.8,0,1.6-0.4,2.3-0.7
			c0.6-0.3,1.1-0.6,1.6-0.6s1.1,0.3,1.6,0.6c0.7,0.3,1.4,0.7,2.3,0.7c0.1,0,0.1,0,0.2,0c1.4-0.1,2.3-0.9,2.8-1.4
			c0.1-0.1,0.1-0.1,0.2-0.2c0.3-0.2,0.5-0.3,0.8-0.3c0.2,0.1,0.4,0.2,0.5,0.5l0,0c0.2,0.6,0,2-0.8,3c-0.6,0.7-2,1.9-4.7,2.7
			C-274.4,411.2-275.3,411.3-276.2,411.3z M-283.9,404.9c0,0-0.1,0-0.1,0c-0.2,0-0.3,0.2-0.4,0.4c-0.2,0.6,0,2,0.8,2.9
			c0.6,0.7,1.9,1.9,4.6,2.6c0.9,0.3,1.8,0.4,2.8,0.4c0.9,0,1.8-0.2,2.8-0.4c2.7-0.7,4.1-2,4.6-2.6c0.8-0.9,1-2.3,0.8-2.9l0,0
			c-0.1-0.2-0.2-0.4-0.4-0.4c-0.2-0.1-0.5,0-0.7,0.2c-0.1,0-0.1,0.1-0.2,0.2c-0.5,0.5-1.4,1.3-2.9,1.4c-0.1,0-0.1,0-0.2,0
			c-0.9,0-1.6-0.4-2.3-0.7c-0.6-0.3-1.1-0.6-1.6-0.6s-1,0.3-1.6,0.6c-0.7,0.4-1.6,0.8-2.5,0.7c-1.5-0.1-2.4-0.9-2.9-1.4
			c-0.1-0.1-0.1-0.1-0.2-0.2C-283.5,405-283.7,404.9-283.9,404.9z"/>
	</g>
	<g id="path808">
		<path fill="#E5E5E5" d="M-275.2,406.8c0,0.5-0.4,1-1,1c-0.5,0-1-0.4-1-1c0-0.5,0.4-1,1-1C-275.7,405.8-275.2,406.3-275.2,406.8z"
			/>
		<path d="M-276.2,407.9c-0.6,0-1-0.5-1-1c0-0.6,0.5-1,1-1c0.6,0,1,0.5,1,1C-275.2,407.4-275.6,407.9-276.2,407.9z M-276.2,405.9
			c-0.5,0-0.9,0.4-0.9,0.9s0.4,0.9,0.9,0.9c0.5,0,0.9-0.4,0.9-0.9S-275.7,405.9-276.2,405.9z"/>
	</g>
	<g id="Group_120">
		<g id="path811">
			<path fill="#E5E5E5" d="M-284.1,407.3c0,0.1-0.1,0.2-0.2,0.1l-0.6-0.2c-0.1,0-0.2-0.1-0.2-0.2v-1.9c0-0.1,0.1-0.2,0.2-0.2
				l0.6-0.2c0.1,0,0.2,0,0.2,0.2V407.3z"/>
			<path d="M-284.3,407.5C-284.3,407.5-284.3,407.5-284.3,407.5l-0.7-0.2c-0.1,0-0.2-0.1-0.2-0.3v-1.9c0-0.1,0.1-0.2,0.2-0.2
				l0.6-0.2c0.1,0,0.2,0,0.2,0c0,0,0.1,0.1,0.1,0.2v2.4c0,0.1,0,0.1-0.1,0.2C-284.2,407.5-284.2,407.5-284.3,407.5z M-284.3,404.8
				C-284.3,404.8-284.3,404.8-284.3,404.8l-0.6,0.2c-0.1,0-0.1,0.1-0.1,0.1v1.9c0,0.1,0.1,0.1,0.1,0.2l0.6,0.2c0.1,0,0.1,0,0.1,0
				c0,0,0,0,0-0.1v-2.4C-284.2,404.9-284.2,404.9-284.3,404.8C-284.2,404.8-284.3,404.8-284.3,404.8z"/>
		</g>
		<g id="path813">
			<path fill="#E5E5E5" d="M-268.3,407.3c0,0.1,0.1,0.2,0.2,0.1l0.6-0.2c0.1,0,0.2-0.1,0.2-0.2v-1.9c0-0.1-0.1-0.2-0.2-0.2l-0.6-0.2
				c-0.1,0-0.2,0-0.2,0.2V407.3z"/>
			<path d="M-268.2,407.5c-0.1,0-0.1,0-0.1,0c0,0-0.1-0.1-0.1-0.2v-2.4c0-0.1,0-0.1,0.1-0.2c0.1,0,0.1-0.1,0.2,0l0.6,0.2
				c0.1,0,0.2,0.1,0.2,0.2v1.9c0,0.1-0.1,0.2-0.2,0.3L-268.2,407.5C-268.1,407.5-268.1,407.5-268.2,407.5z M-268.2,404.8
				C-268.2,404.8-268.2,404.8-268.2,404.8c-0.1,0-0.1,0.1-0.1,0.1v2.4c0,0,0,0.1,0,0.1c0,0,0.1,0,0.1,0l0.6-0.2
				c0.1,0,0.1-0.1,0.1-0.2v-1.9c0-0.1-0.1-0.1-0.1-0.1L-268.2,404.8C-268.1,404.8-268.1,404.8-268.2,404.8z"/>
		</g>
	</g>
	<g id="Group_121">
		<g id="path816">
			<path fill="#E3E3E3" d="M-284.3,394.5c-0.9,1-1.4,2.2-1.4,2.2s-1.1-1.6-1.5-3.4c-0.4-1.8-0.4-3.3-0.2-3.5
				c0.2-0.2,1.7,0.5,2.7,1.1c1.5,1.1,2.5,2.2,2.5,2.2S-283.4,393.5-284.3,394.5z"/>
			<path d="M-285.7,396.8C-285.7,396.8-285.7,396.7-285.7,396.8c-0.1,0-1.1-1.7-1.5-3.4c-0.4-1.7-0.5-3.3-0.2-3.5
				c0.3-0.3,1.9,0.5,2.7,1.1c1.5,1.1,2.5,2.2,2.5,2.2c0,0,0,0,0,0s0,0,0,0c0,0-1.1,0.4-2,1.3l0,0
				C-285.1,395.4-285.6,396.7-285.7,396.8C-285.7,396.7-285.7,396.8-285.7,396.8C-285.7,396.8-285.7,396.8-285.7,396.8z
				 M-287.3,389.8C-287.3,389.8-287.3,389.8-287.3,389.8c-0.3,0.2-0.3,1.7,0.2,3.5c0.4,1.5,1.2,2.9,1.4,3.3c0.1-0.3,0.6-1.4,1.4-2.2
				l0,0c0.8-0.8,1.7-1.2,2-1.3c-0.2-0.2-1.1-1.2-2.4-2.1C-285.6,390.4-286.9,389.8-287.3,389.8z"/>
		</g>
		<g id="path818">
			<path fill="#E3E3E3" d="M-268.2,394.5c0.9,1,1.4,2.2,1.4,2.2s1.1-1.6,1.5-3.4c0.4-1.8,0.4-3.3,0.2-3.5c-0.2-0.2-1.7,0.5-2.7,1.1
				c-1.5,1.1-2.5,2.2-2.5,2.2S-269.1,393.5-268.2,394.5z"/>
			<path d="M-266.8,396.8C-266.8,396.8-266.8,396.8-266.8,396.8C-266.8,396.8-266.8,396.7-266.8,396.8c-0.1,0-0.6-1.3-1.5-2.3
				c-0.9-0.9-2-1.3-2-1.3c0,0,0,0,0,0c0,0,0,0,0,0c0,0,1-1.1,2.5-2.2c0.9-0.6,2.5-1.4,2.7-1.1c0.2,0.2,0.2,1.8-0.2,3.5
				C-265.6,395.1-266.7,396.7-266.8,396.8C-266.7,396.7-266.7,396.8-266.8,396.8z M-268.1,394.4c0.8,0.8,1.3,1.9,1.4,2.2
				c0.2-0.3,1.1-1.8,1.4-3.3c0.4-1.8,0.4-3.3,0.2-3.4c-0.2-0.2-1.6,0.4-2.6,1.1c-1.3,0.9-2.2,1.9-2.4,2.1
				C-269.8,393.2-268.9,393.6-268.1,394.4L-268.1,394.4z"/>
		</g>
	</g>
	<g id="Group_122">
		<g id="path821">
			<path fill="#767676" d="M-286.3,403.3c0,0-0.2-0.5-0.3-1.2c-0.1-0.6-0.1-1.1-0.1-1.1"/>
			<path d="M-286.3,403.4C-286.3,403.4-286.4,403.4-286.3,403.4c0,0-0.2-0.6-0.3-1.3c-0.1-0.5-0.1-1.1-0.1-1.1c0,0,0-0.1,0-0.1
				c0,0,0.1,0,0.1,0c0,0,0.1,0.5,0.1,1.1C-286.4,402.8-286.3,403.3-286.3,403.4C-286.3,403.3-286.3,403.4-286.3,403.4
				C-286.3,403.4-286.3,403.4-286.3,403.4z"/>
		</g>
		<g id="path823">
			<path fill="#767676" d="M-266.1,403.3c0,0,0.2-0.5,0.3-1.2c0.1-0.6,0.1-1.1,0.1-1.1"/>
			<path d="M-266.1,403.4C-266.1,403.4-266.1,403.4-266.1,403.4C-266.2,403.4-266.2,403.4-266.1,403.4c0-0.1,0.1-0.6,0.2-1.3
				c0.1-0.5,0.1-1.1,0.1-1.1c0,0,0,0,0.1,0c0,0,0,0,0,0.1c0,0-0.1,0.5-0.1,1.1C-265.9,402.8-266.1,403.4-266.1,403.4
				C-266.1,403.4-266.1,403.4-266.1,403.4z"/>
		</g>
	</g>
</g>
</svg>
