<?xml version="1.0" encoding="UTF-8" standalone="no"?>
<!-- Generator: Adobe Illustrator 13.0.0, SVG Export Plug-In . SVG Version: 6.00 Build 14948)  -->

<svg
   xmlns:ns="&amp;ns_sfw;"
   xmlns:dc="http://purl.org/dc/elements/1.1/"
   xmlns:cc="http://creativecommons.org/ns#"
   xmlns:rdf="http://www.w3.org/1999/02/22-rdf-syntax-ns#"
   xmlns:svg="http://www.w3.org/2000/svg"
   xmlns="http://www.w3.org/2000/svg"
   xmlns:sodipodi="http://sodipodi.sourceforge.net/DTD/sodipodi-0.dtd"
   xmlns:inkscape="http://www.inkscape.org/namespaces/inkscape"
   version="1.2"
   id="Layer_3"
   x="0px"
   y="0px"
   width="493.79199"
   height="328.65701"
   viewBox="0 0 493.79197 328.657"
   xml:space="preserve"
   inkscape:version="0.91 r13725"
   sodipodi:docname="controller.svg"><defs
     id="defs17" /><sodipodi:namedview
     pagecolor="#ffffff"
     bordercolor="#666666"
     borderopacity="1"
     objecttolerance="10"
     gridtolerance="10"
     guidetolerance="10"
     inkscape:pageopacity="0"
     inkscape:pageshadow="2"
     inkscape:window-width="690"
     inkscape:window-height="480"
     id="namedview15"
     showgrid="false"
     fit-margin-top="0"
     fit-margin-left="0"
     fit-margin-right="0"
     fit-margin-bottom="0"
     inkscape:zoom="0.48145317"
     inkscape:cx="247.80951"
     inkscape:cy="166.335"
     inkscape:window-x="0"
     inkscape:window-y="0"
     inkscape:window-maximized="0"
     inkscape:current-layer="Layer_3" /><metadata
     id="metadata55"><rdf:RDF><cc:Work
         rdf:about=""><dc:format>image/svg+xml</dc:format><dc:type
           rdf:resource="http://purl.org/dc/dcmitype/StillImage" /><dc:title></dc:title></cc:Work></rdf:RDF><ns:sfw><ns:slices /><ns:sliceSourceBounds
         x="712.69"
         y="-7652"
         width="493.792"
         height="16383"
         bottomLeftOrigin="true" /></ns:sfw></metadata><path
     id="path3"
     d="m 382.847,29.019 c -4.058,0.231 -8.121,1.247 -11.996,3.153 -28.748,14.133 -53.001,31.475 -72.775,51.781 -19.791,20.285 -34.998,43.455 -46.091,68.495 -7.005,15.79 0.128,34.29 15.919,41.296 4.123,1.83 8.449,2.717 12.689,2.718 12,0.001 23.431,-6.944 28.607,-18.61 8.402,-18.895 19.287,-35.399 33.684,-50.192 14.408,-14.772 32.453,-27.921 55.601,-39.323 15.499,-7.627 21.88,-26.385 14.252,-41.886 -5.72,-11.626 -17.713,-18.126 -29.89,-17.432 z m 0.103,1.614 c 11.537,-0.663 22.898,5.506 28.325,16.534 7.236,14.706 1.17,32.472 -13.535,39.708 -23.292,11.473 -41.463,24.716 -56.011,39.63 -14.532,14.934 -25.544,31.628 -34.017,50.679 -4.911,11.068 -15.753,17.638 -27.12,17.637 -4.017,-0.001 -8.112,-0.828 -12.023,-2.563 -14.979,-6.648 -21.718,-24.164 -15.072,-39.144 11.021,-24.875 26.109,-47.87 45.757,-68.008 19.634,-20.16 43.715,-37.387 72.314,-51.448 3.676,-1.809 7.536,-2.804 11.382,-3.025 z"
     inkscape:connector-curvature="0"
     style="fill:#f4f4f4" /><path
     id="circle5"
     d="m 281.156,143.604 c -11.892,0 -21.559,9.641 -21.559,21.533 0,11.892 9.667,21.559 21.559,21.559 11.892,0 21.532,-9.667 21.532,-21.559 0.001,-11.893 -9.64,-21.533 -21.532,-21.533 z m 0,1.64 c 11.005,0 19.892,8.886 19.892,19.892 0,11.006 -8.887,19.918 -19.892,19.918 -11.005,0 -19.918,-8.912 -19.918,-19.918 0,-11.006 8.914,-19.892 19.918,-19.892 z"
     inkscape:connector-curvature="0"
     style="fill:#f4f4f4" /><path
     id="circle7"
     d="m 308.893,99.667 c -11.892,0 -21.559,9.667 -21.559,21.558 0,11.892 9.667,21.533 21.559,21.533 11.892,0 21.532,-9.641 21.532,-21.533 0,-11.892 -9.641,-21.558 -21.532,-21.558 z m 0,1.64 c 11.005,0 19.892,8.912 19.892,19.917 0,11.005 -8.887,19.892 -19.892,19.892 -11.005,0 -19.918,-8.887 -19.918,-19.892 0,-11.005 8.913,-19.917 19.918,-19.917 z"
     inkscape:connector-curvature="0"
     style="fill:#f4f4f4" /><path
     id="circle9"
     d="m 344.037,63.138 c -11.892,0 -21.559,9.667 -21.559,21.558 0,11.892 9.667,21.559 21.559,21.559 11.892,0 21.532,-9.667 21.532,-21.559 0,-11.892 -9.64,-21.558 -21.532,-21.558 z m 0,1.64 c 11.005,0 19.892,8.912 19.892,19.917 0,11.006 -8.887,19.918 -19.892,19.918 -11.005,0 -19.918,-8.912 -19.918,-19.918 0,-11.004 8.913,-19.917 19.918,-19.917 z"
     inkscape:connector-curvature="0"
     style="fill:#f4f4f4" /><path
     id="circle11"
     d="m 386.026,37.888 c -11.892,0 -21.532,9.667 -21.532,21.559 0,11.892 9.641,21.533 21.532,21.533 11.893,0 21.559,-9.641 21.559,-21.533 -10e-4,-11.893 -9.667,-21.559 -21.559,-21.559 z m 0,1.64 c 11.006,0 19.918,8.913 19.918,19.918 0,11.005 -8.912,19.892 -19.918,19.892 -11.005,0 -19.892,-8.887 -19.892,-19.892 0,-11.005 8.887,-19.918 19.892,-19.918 z"
     inkscape:connector-curvature="0"
     style="fill:#f4f4f4" /><path
     id="circle13"
     d="m 137.425,51.756 c -36.002,0 -65.213,29.211 -65.213,65.213 0,36.002 29.211,65.188 65.213,65.188 36.002,0 65.188,-29.187 65.188,-65.188 0,-36.001 -29.186,-65.213 -65.188,-65.213 z m 0,1.641 c 35.116,0 63.547,28.457 63.547,63.573 0,35.116 -28.432,63.548 -63.547,63.548 -35.115,0 -63.573,-28.432 -63.573,-63.548 0,-35.116 28.458,-63.573 63.573,-63.573 z"
     inkscape:connector-curvature="0"
     style="fill:#f4f4f4" /><path
     id="circle15"
     d="m 137.425,85.106 c -17.579,0 -31.863,14.285 -31.863,31.863 0,17.578 14.285,31.838 31.863,31.838 17.578,0 31.837,-14.259 31.837,-31.838 0,-17.579 -14.258,-31.863 -31.837,-31.863 z m 0,1.641 c 16.692,0 30.197,13.531 30.197,30.223 0,16.692 -13.505,30.197 -30.197,30.197 -16.692,0 -30.223,-13.505 -30.223,-30.197 0,-16.692 13.532,-30.223 30.223,-30.223 z"
     inkscape:connector-curvature="0"
     style="fill:#f4f4f4" /><path
     id="path17"
     d="m 208.227,25.712 c -4.084,-0.549 -7.859,2.325 -8.407,6.409 -0.549,4.084 2.35,7.859 6.434,8.408 l 18.738,2.538 c 4.084,0.549 7.859,-2.351 8.408,-6.434 0.549,-4.084 -2.35,-7.859 -6.434,-8.408 l -18.739,-2.513 z m -0.205,1.64 18.739,2.512 c 3.205,0.431 5.429,3.357 4.998,6.563 -0.431,3.204 -3.357,5.429 -6.563,4.999 l -18.738,-2.512 c -3.205,-0.43 -5.429,-3.357 -4.999,-6.562 0.431,-3.206 3.358,-5.431 6.563,-5 z"
     inkscape:connector-curvature="0"
     style="fill:#f4f4f4" /><path
     id="path19"
     d="m 289.36,25.712 -18.739,2.512 c -4.083,0.549 -6.957,4.324 -6.408,8.408 0.548,4.083 4.325,6.983 8.408,6.434 l 18.738,-2.538 c 4.084,-0.549 6.957,-4.324 6.409,-8.408 -0.549,-4.084 -4.325,-6.957 -8.408,-6.408 z m 0.23,1.64 c 3.204,-0.431 6.132,1.794 6.563,4.999 0.431,3.205 -1.794,6.132 -4.999,6.562 l -18.764,2.512 c -3.205,0.431 -6.133,-1.794 -6.563,-4.999 -0.432,-3.205 1.819,-6.132 5.024,-6.563 l 18.739,-2.511 z"
     inkscape:connector-curvature="0"
     style="fill:#f4f4f4" /><path
     id="path21"
     d="M 6.588,0.001 C 2.961,0.001 0,2.961 0,6.589 l 0,315.48 c 0,3.629 2.96,6.588 6.588,6.588 l 480.616,0 c 3.628,0 6.588,-2.96 6.588,-6.588 l 0,-315.481 C 493.792,2.961 490.833,0 487.204,0 L 6.588,0 Z m 0,1.64 480.616,0 c 2.742,0 4.947,2.206 4.947,4.947 l 0,315.48 c 0,2.742 -2.205,4.947 -4.947,4.947 l -480.616,0 c -2.741,0 -4.947,-2.205 -4.947,-4.947 l 0,-315.48 c 0,-2.741 2.206,-4.947 4.947,-4.947 z"
     inkscape:connector-curvature="0"
     style="fill:#f4f4f4" /><path
     id="path23"
     d="m 21.661,0.001 -0.103,1.641 c 0,0 43.037,2.578 89.925,5.152 46.888,2.574 97.59,5.152 113.175,5.152 l 44.476,0 c 16.201,0 66.928,-2.578 113.662,-5.152 46.734,-2.574 89.438,-5.152 89.438,-5.152 l -0.103,-1.641 c 0,0 -42.709,2.579 -89.438,5.152 -46.729,2.574 -97.533,5.152 -113.56,5.152 l -44.476,0 C 209.253,10.305 158.442,7.727 111.559,5.153 64.677,2.579 21.661,0.001 21.661,0.001 Z"
     inkscape:connector-curvature="0"
     style="fill:#f4f4f4" /></svg>