<?xml version="1.0" encoding="utf-8"?>
<!-- Generator: Adobe Illustrator 19.0.0, SVG Export Plug-In . SVG Version: 6.00 Build 0)  -->
<svg version="1.1" baseProfile="tiny"
	 id="svg3004" xmlns:rdf="http://www.w3.org/1999/02/22-rdf-syntax-ns#" xmlns:dc="http://purl.org/dc/elements/1.1/" xmlns:inkscape="http://www.inkscape.org/namespaces/inkscape" xmlns:sodipodi="http://sodipodi.sourceforge.net/DTD/sodipodi-0.dtd" xmlns:cc="http://creativecommons.org/ns#" xmlns:svg="http://www.w3.org/2000/svg" sodipodi:docname="icon_filled.svg" inkscape:version="0.91 r13725"
	 xmlns="http://www.w3.org/2000/svg" xmlns:xlink="http://www.w3.org/1999/xlink" x="0px" y="0px" viewBox="-290 382 30 30"
	 xml:space="preserve">
<sodipodi:namedview  inkscape:cy="14.770215" inkscape:cx="27.076271" inkscape:zoom="11.8" bordercolor="#666666" objecttolerance="10" borderopacity="1" pagecolor="#ffffff" guidetolerance="10" gridtolerance="10" showgrid="false" id="namedview150" inkscape:current-layer="svg3004" inkscape:window-maximized="1" inkscape:window-y="-8" inkscape:pageopacity="0" inkscape:window-x="-8" inkscape:window-height="1027" inkscape:window-width="1920" inkscape:pageshadow="2">
	</sodipodi:namedview>
<g>
	<path fill="#C14848" d="M-273.3,406.2c0,1.4,1.1,2.5,2.5,2.5s2.5-1.1,2.5-2.5v-1.8c0-1.4-1.1-2.5-2.5-2.5s-2.5,1.1-2.5,2.5V406.2"
		/>
	<g>
		<path fill="#78ECFF" d="M-288.9,406.9c0,0,0.6-1,1-0.5s-0.2,1.2-0.3,1.5c-0.1,0.3,0.6,0.3,0.6,0.3s-0.1-1.5,0.6-1.8
			c0.6-0.3,1,1.2,1.1,1.8l0.6-0.5c0,0-1.1-0.9-0.9-1.8c0.3-0.9,1.2-1.1,1.2-1.1l0.2,3.5c0,0-1.8,1-1.9,1.1s-1.8-0.6-1.8-0.6
			L-288.9,406.9"/>
		<path fill="#78ECFF" d="M-275.7,385.8c0,0-2-3.1-3.8-2.9s-1.8,2.3-1.5,3.5c0,0-2.5-2.3-4.2-1.5c-1.8,0.9-0.9,3.3-0.2,4.2
			c0,0-1.8-1.1-3-0.4c-1.3,0.7-0.2,2.8,1.2,3.7c0,0-2,0.6-2,1.8c0,1.2,1.4,2.7,2.5,2.7L-275.7,385.8"/>
	</g>
	<path fill="#00C2EF" d="M-278.4,385.5c0,0,9.6-0.4,9.6,7.3v2.5c0,0,2.5,0,2.5,2.5v0.3h-1.8v2c0,0,0,1.6-2.7,1.6h-13.6
		c0,0-3.1,0-3.1-1.9v-9.2C-287.6,390.7-287.1,385.5-278.4,385.5"/>
	<path fill="#FFFFFF" d="M-280.4,395.1c0,1,0.8,1.7,1.7,1.7c1,0,1.7-0.8,1.7-1.7v-2.7c0-1-0.8-1.7-1.7-1.7c-1,0-1.7,0.8-1.7,1.7
		V395.1"/>
	<path fill="#45458C" d="M-278.7,395.4c0,0.4,0.3,0.7,0.7,0.7c0.4,0,0.7-0.3,0.7-0.7v-2c0-0.4-0.3-0.7-0.7-0.7
		c-0.4,0-0.7,0.3-0.7,0.7V395.4"/>
	<path fill="#FFFFFF" d="M-274,395.1c0,1,0.8,1.7,1.7,1.7c1,0,1.7-0.8,1.7-1.7v-2.7c0-1-0.8-1.7-1.7-1.7c-1,0-1.7,0.8-1.7,1.7V395.1
		"/>
	<path fill="#45458C" d="M-273.7,395.4c0,0.4,0.3,0.7,0.7,0.7c0.4,0,0.7-0.3,0.7-0.7v-2c0-0.4-0.3-0.7-0.7-0.7
		c-0.4,0-0.7,0.3-0.7,0.7V395.4"/>
	<path fill="#1E1108" d="M-283.7,396.6c0.5-0.3,1.1-0.1,1.4,0.3c0.8,1.3,3,1.2,3,1.2h0.1h11.1v2h-11c-0.1,0-0.2,0-0.3,0
		c-0.9,0-3.3-0.2-4.5-2.2C-284.3,397.5-284.1,396.9-283.7,396.6"/>
	<path fill="#FFFFFF" d="M-273,398.1l-0.5,1.5h-3.2l-0.5-1.5H-273z"/>
	<path fill="#008EDD" d="M-271.3,401.4l0.8,2.5c0,0,2.9,1.9,2.9,5c0,0,0.1,2.3-1.8,2.3H-285c0,0-5-0.5-5-4.1c0,0-0.1-1.2,0.7-1.2
		c0,0,0.6,0,0.6,1.1c0,0,0.9,2,3.5,0.5v-5.9L-271.3,401.4"/>
	<g>
		<path fill="#F4DDDC" d="M-280.8,405.7c0,0,0.9,0.7,0.7,1.2c-0.2,0.5-1.5,0.2-1.6,0.2c-0.2,0,0.2,0,0.2,0S-281.9,405.6-280.8,405.7
			"/>
		<path fill="#F4DDDC" d="M-281.4,408c0,0-0.2,1.1-0.7,1.3c-0.6,0.1-0.9-1.1-1-1.3c0-0.2,0,0.2,0,0.2S-281.9,407-281.4,408"/>
		<path fill="#F4DDDC" d="M-283.3,408c0,0-0.2,1.1-0.7,1.3c-0.6,0.1-0.9-1.1-1-1.3c0-0.2,0,0.2,0,0.2S-283.8,407-283.3,408"/>
	</g>
	<path fill="#F46A60" d="M-285.7,406.2c0,1.4,1.1,2.5,2.5,2.5s2.5-1.1,2.5-2.5v-1.8c0-1.4-1.1-2.5-2.5-2.5s-2.5,1.1-2.5,2.5V406.2"
		/>
	<path fill="#F4DDDC" d="M-272.3,401.6c0.2,0,0,3.4,0,3.4c2.7,1.9,1.8,6.2,1.8,6.2h-6v-3.7c0-2.2-2.2-3-2.2-3v-3.1L-272.3,401.6"/>
	<path fill="#F46A60" d="M-270.2,409.2c0,1.1,0.9,2,2,2s2-0.9,2-2v-1.3c0-1.1-0.9-2-2-2s-2,0.9-2,2V409.2"/>
	<g>
		<path fill="#FFFFFF" d="M-274.8,405.7c0,0-0.2,1.1-0.7,1.3c-0.6,0.1-0.9-1.1-1-1.3c0-0.2,0,0.2,0,0.2S-275.3,404.7-274.8,405.7"/>
		<path fill="#FFFFFF" d="M-276.7,404.4c0,0,0.7,0.9,0.4,1.4c-0.3,0.5-1.5-0.2-1.6-0.2c-0.2-0.1,0.2,0.1,0.2,0.1
			S-277.8,404-276.7,404.4"/>
		<path fill="#FFFFFF" d="M-278.6,404.4c0,0,1,0.6,1,1.2c-0.1,0.6-1.4,0.5-1.6,0.5s0.2,0,0.2,0S-279.7,404.6-278.6,404.4"/>
	</g>
	<path fill="#D85855" d="M-280.1,411.2v-3.5c0-1.3,1.1-2.4,2.4-2.4s2.4,1.1,2.4,2.4v3.5H-280.1"/>
	<path fill="#C14848" d="M-279.1,411.2v-2.4c0-1,0.8-1.7,1.7-1.7s1.7,0.8,1.7,1.7v2.4H-279.1"/>
	<g>
		<path fill="#FFFFFF" d="M-265.7,405.7c0,0-0.2,1.1-0.7,1.3c-0.6,0.1-0.9-1.1-1-1.3c0-0.2,0,0.2,0,0.2S-266.2,404.7-265.7,405.7"/>
		<path fill="#FFFFFF" d="M-267.6,404.4c0,0,0.7,0.9,0.4,1.4c-0.3,0.5-1.5-0.2-1.6-0.2c-0.2-0.1,0.2,0.1,0.2,0.1
			S-268.7,404-267.6,404.4"/>
		<path fill="#FFFFFF" d="M-269.6,404.4c0,0,1,0.6,0.9,1.2s-1.4,0.5-1.6,0.5s0.2,0,0.2,0S-270.7,404.6-269.6,404.4"/>
	</g>
	<path fill="#D85855" d="M-271,411.2v-3.5c0-1.3,1.1-2.4,2.4-2.4s2.4,1.1,2.4,2.4v3.5H-271"/>
	<g>
		<path fill="#C14848" d="M-270.1,411.2v-2.4c0-1,0.8-1.7,1.7-1.7s1.7,0.8,1.7,1.7v2.4H-270.1"/>
		<ellipse fill="#C14848" cx="-283.6" cy="395" rx="1.8" ry="1.4"/>
	</g>
</g>
</svg>
