<?xml version="1.0" encoding="utf-8"?>
<!-- Generator: Adobe Illustrator 16.0.3, SVG Export Plug-In . SVG Version: 6.00 Build 0)  -->
<!DOCTYPE svg PUBLIC "-//W3C//DTD SVG 1.1//EN" "http://www.w3.org/Graphics/SVG/1.1/DTD/svg11.dtd">
<svg version="1.1" id="Ebene_1" xmlns="http://www.w3.org/2000/svg" xmlns:xlink="http://www.w3.org/1999/xlink" x="0px" y="0px"
	 width="673px" height="253px" viewBox="11.5 39.5 673 253" enable-background="new 11.5 39.5 673 253" xml:space="preserve">
<g transform="translate(0.000000,350.000000) scale(0.100000,-0.100000)">
	<path fill="#4C4C4C" d="M2845.002,2996.001c-39.004-17.002-70-52.002-90-98.003c-12.002-30.996-15-85-15-297.998v-260H2663
		c-104.004,0-152.998-23.999-192.998-93.999C2430.998,2180,2430.998,2130,2468,2058.999C2505.998,1985,2555.998,1960,2660.998,1960
		h77.998l3.008-432.002c3.994-413.994,5-435.996,25.996-498.994c42.002-125,144.004-249.004,248.994-302.002
		C3128.996,670,3313,649.004,3443,677.998c105.996,25,162.002,99.004,155,207.002c-5,75.996-35,122.002-102.998,155
		c-49.004,24.004-81.006,24.004-188.008,0.996c-61.992-13.994-140,11.006-170.996,52.002c-20,27.998-20.996,41.006-24.004,447.998
		L3108.996,1960h137.998c188.008,1.001,227.002,17.998,274.004,123.999c15,33.999,20,61.001,15.996,87.002
		c-6.992,56.001-53.994,120-106.992,146.997c-39.004,20-59.004,22.002-182.002,22.002h-137.002L3108,2617.998l-2.998,279.004
		l-29.004,36.997C3025.002,3001.001,2920.002,3028.999,2845.002,2996.001z"/>
	<path fill="#4C4C4C" d="M305.002,2961.001c-47.998-22.002-69.004-43.999-90-93.999c-12.998-32.002-15-160-15-1044.004
		c0-940,0.996-1010,17.998-1042.002c62.002-123.994,242.998-135,319.004-20l27.998,43.008v1009.995
		c0,556.001-2.998,1023.003-7.002,1038.003c-19.004,65-105,127.998-175,127.998C362.004,2980,327.004,2971.001,305.002,2961.001z"/>
	<path fill="#4C4C4C" d="M4335.002,2336.001c-235-55-404.004-187.002-482.002-378.003
		c-57.002-140.996-62.998-200.996-62.998-687.002c0-433.994,0-445.996,20.996-488.994c44.004-90,157.998-127.998,249.004-82.002
		c46.992,24.004,75.996,62.998,88.994,120.996c6.006,26.006,11.006,220,11.006,475c0,407.002,0.996,433.008,20.996,491.006
		c25,75,75,135,130.996,157.998c57.002,22.998,179.004,30,251.006,15c67.998-13.999,117.998-52.002,148.994-113.999
		c42.002-85,99.004-126.001,173.008-126.001c60,0,102.998,19.004,141.992,62.998c71.006,81.001,67.002,161.001-12.998,279.004
		c-122.998,181.997-292.002,275-512.998,283.999C4431.994,2347.998,4373.996,2345,4335.002,2336.001z"/>
	<path fill="#4C4C4C" d="M1005.002,2322.998c-46.006-23.999-66.006-45-86.006-87.998c-16.992-37.002-18.994-75-18.994-492.998
		c0-376.006,2.998-466.006,15.996-530c29.004-141.006,79.004-235,182.998-346.006c73.008-76.992,156.006-130,255-162.998
		c71.006-22.998,97.002-25.996,216.006-27.002c120,0,143.994,3.008,215,27.002c222.998,74.004,372.002,235,437.002,472.002
		c20.996,75.996,21.992,102.998,25.996,535c4.004,485,2.002,505-45,560c-92.998,111.001-260.996,82.998-317.998-52.002
		c-12.998-31.997-15-102.998-15-482.002c0-418.994-1.006-447.998-21.006-510c-40.996-135-137.998-193.994-303.994-183.994
		c-125,7.998-189.004,50.996-239.004,157.998c-20,42.998-20.996,65-25.996,530.996l-5,486.006l-27.002,40
		C1198.996,2331.001,1080.002,2362.998,1005.002,2322.998z"/>
	<path fill="#4C4C4C" d="M5916.994,2323.999c-225.996-50-415.996-216.001-493.994-431.001
		c-46.006-127.998-57.002-197.002-57.002-382.998c-0.996-255.996,35.996-405,137.998-559.004
		c85-126.992,207.998-213.994,366.006-256.992c90-25,290.996-25,380-1.006c188.994,52.002,340,175,423.994,347.002
		c56.006,117.002,84.004,234.004,92.002,395.996c25,448.003-172.998,788.003-510.996,878.003
		C6166.994,2337.998,6000.002,2342.998,5916.994,2323.999z M6208,1940c57.002-23.999,110-77.002,142.002-138.999
		c75.996-148.999,65.996-483.999-18.008-621.001c-53.994-87.998-155.996-140-271.992-140c-168.008,0-277.002,92.002-316.006,267.998
		c-22.002,97.998-15.996,352.998,10,427.002c39.004,111.001,97.998,173.999,202.002,216.001
		C6020.998,1977.002,6133.996,1972.002,6208,1940z"/>
</g>
</svg>
