<?xml version="1.0" encoding="UTF-8" standalone="no"?>
<!-- Generator: Adobe Illustrator 19.0.0, SVG Export Plug-In . SVG Version: 6.00 Build 0)  -->

<svg
   xmlns:dc="http://purl.org/dc/elements/1.1/"
   xmlns:cc="http://creativecommons.org/ns#"
   xmlns:rdf="http://www.w3.org/1999/02/22-rdf-syntax-ns#"
   xmlns:svg="http://www.w3.org/2000/svg"
   xmlns="http://www.w3.org/2000/svg"
   xmlns:sodipodi="http://sodipodi.sourceforge.net/DTD/sodipodi-0.dtd"
   xmlns:inkscape="http://www.inkscape.org/namespaces/inkscape"
   version="1.1"
   id="Calque_1"
   x="0px"
   y="0px"
   viewBox="0 0 653.63246 443.91969"
   xml:space="preserve"
   inkscape:version="0.91 r13725"
   sodipodi:docname="consolegame.svg"
   width="653.63245"
   height="443.91971"><metadata
     id="metadata82"><rdf:RDF><cc:Work
         rdf:about=""><dc:format>image/svg+xml</dc:format><dc:type
           rdf:resource="http://purl.org/dc/dcmitype/StillImage" /><dc:title></dc:title></cc:Work></rdf:RDF></metadata><defs
     id="defs80" /><sodipodi:namedview
     pagecolor="#ffffff"
     bordercolor="#666666"
     borderopacity="1"
     objecttolerance="10"
     gridtolerance="10"
     guidetolerance="10"
     inkscape:pageopacity="0"
     inkscape:pageshadow="2"
     inkscape:window-width="1920"
     inkscape:window-height="1027"
     id="namedview78"
     showgrid="false"
     fit-margin-top="0"
     fit-margin-left="0"
     fit-margin-right="0"
     fit-margin-bottom="0"
     inkscape:zoom="0.66441439"
     inkscape:cx="144.50746"
     inkscape:cy="177.60001"
     inkscape:window-x="-8"
     inkscape:window-y="-8"
     inkscape:window-maximized="1"
     inkscape:current-layer="Calque_1" /><g
     id="g3"
     transform="matrix(1.2498443,0,0,1.2498443,0.0718247,0)"><g
       id="g5"><path
         d="M 287.1,24.2 C 287.1,5.5 275.8,0 266.6,0 264.2,0 255.8,0 244.4,0.1 l 0,4.3 -4.4,0 0,-4.3 c -1.6,0 -3.2,0 -4.9,0 l 0,4.3 -4.4,0 0,-4.3 c -1.6,0 -3.2,0 -4.9,0 l 0,4.3 -4.4,0 0,-4.3 c -1.6,0 -3.2,0 -4.9,0 l 0,4.2 -4.5,0 0,-4.2 c -1.6,0 -3.2,0 -4.9,0 l 0,4.2 -4.4,0 0,-4.1 c -1.6,0 -3.3,0 -4.9,0 l 0,4.2 -4.4,0 0,-4.2 c -1.6,0 -3.3,0 -4.9,0 l 0,4.2 -4.4,0 0,-4.2 c -1.6,0 -3.3,0 -4.9,0 l 0,4.1 -4.4,0 0,-4.1 c -1.7,0 -3.3,0 -4.9,0 l 0,4.1 -4.4,0 0,-4 c -1.7,0 -3.3,0 -4.9,0 l 0,4.1 -4.4,0 0,-4.1 c -1.8,0 -3.4,0 -4.9,0 l 0,4.1 -4.4,0 0,-4.1 c -0.9,0 -1.7,0 -2.4,0 -0.7,0 -1.5,0 -2.4,0 l 0,4.1 -4.4,0 0,-4.1 c -1.5,0 -3.1,0 -4.9,0 l 0,4.1 -4.4,0 0,-4.1 c -1.6,0 -3.2,0 -4.9,0 l 0,4.1 -4.5,0 0,-4.1 c -1.6,0 -3.2,0 -4.9,0 l 0,4.1 -4.4,0 0,-4.2 c -1.6,0 -3.2,0 -4.9,0 l 0,4.1 -4.4,0 0,-4.1 c -1.6,0 -3.2,0 -4.9,0 l 0,4.2 -4.4,0 0,-4.2 c -1.6,0 -3.2,0 -4.9,0 l 0,4.2 -4.4,0 0,-4.2 c -1.6,0 -3.3,0 -4.9,0 l 0,4.2 -4.4,0 0,-4.3 c -1.6,0 -3.3,0 -4.9,0 l 0,4.2 -4.4,0 0,-4.2 c -1.6,0 -3.3,0 -4.9,0 l 0,4.3 -4.4,0 0,-4.3 c -1.7,0 -3.3,0 -4.9,0 l 0,4.3 -4.4,0 0,-4.3 C 33.2,0 24.8,0 22.4,0 13.2,0 1.8,5.5 1.8,24.2 c 0,18.7 -3.4,288.7 -1,304.9 2.5,19 11.6,26 27.9,26 16.3,0 115.7,-0.7 115.7,-0.7 0,0 99.5,0.7 115.7,0.7 16.2,0 25.4,-7 27.9,-26 2.5,-16.2 -0.9,-286.2 -0.9,-304.9 z"
         id="path7"
         inkscape:connector-curvature="0"
         style="fill:#d9d9d9" /></g><path
       d="m 267.9,348.2 -245.8,0 C 13.8,348.2 7,341.4 7,333.1 L 7,21.2 C 7,12.9 13.8,6.1 22.1,6.1 l 245.9,0 c 8.3,0 15.1,6.8 15.1,15.1 l 0,311.9 c -0.1,8.3 -6.9,15.1 -15.2,15.1 z"
       id="path9"
       inkscape:connector-curvature="0"
       style="fill:#4c4c4c" /><path
       d="m 266.9,347.2 -244,0 c -8.3,0.4 -15.5,-6.9 -15,-15 l 0,-310.3 c -0.5,-8.3 7.2,-15.5 15,-15 l 244.1,0 c 8.2,-0.5 15.6,6.6 15,15 l 0,310.3 c 0.5,8 -6.9,15.4 -15.1,15 z"
       id="path11"
       inkscape:connector-curvature="0"
       style="fill:#d9d9d9" /><path
       d="m 254.9,289.5 -220.9,0 c -7.2,0 -13.1,-5.9 -13.1,-13.1 l 0,-222.9 c 0,-7.2 5.9,-13.1 13.1,-13.1 l 220.9,0 c 7.2,0 13.1,5.9 13.1,13.1 l 0,222.9 c 0,7.2 -5.9,13.1 -13.1,13.1 z"
       id="path13"
       inkscape:connector-curvature="0"
       style="fill:#b2b2b2" /><path
       d="m 216.3,332.9 c -1.7,0 -3.1,-1.4 -3.1,-3.1 0,-1.7 1.4,-3.1 3.1,-3.1 l 8.9,0 c 1.7,0 3.1,1.4 3.1,3.1 0,1.7 -1.4,3.1 -3.1,3.1 l -8.9,0 z"
       id="path15"
       inkscape:connector-curvature="0"
       style="fill:#878686" /><path
       d="m 225.3,332.1 -9.1,0 c -1.2,0 -2.2,-1 -2.2,-2.2 l 0,-0.2 c 0,-1.2 1,-2.2 2.2,-2.2 l 9.1,0 c 1.2,0 2.2,1 2.2,2.2 l 0,0.2 c 0,1.2 -1,2.2 -2.2,2.2 z"
       id="path17"
       inkscape:connector-curvature="0"
       style="fill:#808080" /><path
       d="m 179.5,270.1 -70.9,0 c -3.3,0 -5.9,-2.7 -5.9,-5.9 l 0,-31.9 c 0,-3.3 2.7,-5.9 5.9,-5.9 l 70.9,0 c 3.3,0 5.9,2.7 5.9,5.9 l 0,31.9 c 0.1,3.3 -2.6,5.9 -5.9,5.9 z"
       id="path19"
       inkscape:connector-curvature="0"
       style="fill:#808080" /><path
       d="m 144.5,164.9 c 13.3,0 71.4,-2.5 81.4,-3.3 10,-0.8 14,-3.9 16.2,-7.2 2.4,-3.5 2.6,-10.3 2.1,-14.9 -0.5,-4.6 -5.9,-5.3 -7.9,-5.3 -2,0 -81.9,0 -91.8,0 l 0,0 c -9.9,0 -89.8,0 -91.8,0 -2,0 -7.4,0.7 -7.9,5.3 -0.5,4.6 -0.2,11.3 2.1,14.9 2.2,3.3 6.1,6.4 16.2,7.2 10,0.8 68,3.3 81.4,3.3"
       id="path21"
       inkscape:connector-curvature="0"
       style="fill:#4c4c4c" /><path
       d="m 201,265.6 0,-31.9 c 0,-4.6 3.7,-8.3 8.3,-8.3 l 25.1,0 c 4.6,0 8.3,3.7 8.3,8.3 l 0,31.9 c 0,4.6 -3.7,8.3 -8.3,8.3 l -25.1,0 c -4.6,0 -8.3,-3.7 -8.3,-8.3 z"
       id="path23"
       inkscape:connector-curvature="0"
       style="fill:#ffffff" /><path
       d="m 234.3,271.5 -25,0 c -3.3,0 -5.9,-2.7 -5.9,-5.9 l 0,-31.7 c 0,-3.3 2.7,-5.9 5.9,-5.9 l 25,0 c 3.3,0 5.9,2.7 5.9,5.9 l 0,31.7 c 0.1,3.2 -2.6,5.9 -5.9,5.9 z"
       id="path25"
       inkscape:connector-curvature="0"
       style="fill:#4c4c4c" /><path
       d="m 45.8,265.5 0,-31.9 c 0,-4.6 3.7,-8.3 8.3,-8.3 l 25.1,0 c 4.6,0 8.3,3.7 8.3,8.3 l 0,31.9 c 0,4.6 -3.7,8.3 -8.3,8.3 l -25.1,0 c -4.6,0.1 -8.3,-3.7 -8.3,-8.3 z"
       id="path27"
       inkscape:connector-curvature="0"
       style="fill:#ffffff" /><path
       d="m 79.2,271.4 -25,0 c -3.3,0 -5.9,-2.7 -5.9,-5.9 l 0,-31.7 c 0,-3.3 2.7,-5.9 5.9,-5.9 l 25,0 c 3.3,0 5.9,2.7 5.9,5.9 l 0,31.7 c 0,3.2 -2.7,5.9 -5.9,5.9 z"
       id="path29"
       inkscape:connector-curvature="0"
       style="fill:#4c4c4c" /><path
       d="m 85.1,251.8 -36.6,0 c -0.7,0 -1.2,-0.5 -1.2,-1.2 l 0,-2.1 c 0,-0.7 0.5,-1.2 1.2,-1.2 l 36.6,0 c 0.7,0 1.2,0.5 1.2,1.2 l 0,2.1 c -0.1,0.7 -0.6,1.2 -1.2,1.2 z"
       id="path31"
       inkscape:connector-curvature="0"
       style="fill:#4c4c4c" /><path
       d="m 48.5,247.4 c -0.6,0 -1.1,0.5 -1.2,1.1 0.1,0.6 0.6,1.1 1.2,1.1 l 36.5,0 c 0.6,0 1.1,-0.5 1.2,-1.1 -0.1,-0.6 -0.6,-1.1 -1.2,-1.1 l -36.5,0 z"
       id="path33"
       inkscape:connector-curvature="0"
       style="fill:#666666" /><path
       d="m 63.2,158.5 -0.7,0 c -0.7,0 -1.2,-0.5 -1.2,-1.2 l 0,-19.3 c 0,-0.7 0.5,-1.2 1.2,-1.2 l 0.7,0 c 0.7,0 1.2,0.5 1.2,1.2 l 0,19.3 c 0,0.7 -0.6,1.2 -1.2,1.2 z"
       id="path35"
       inkscape:connector-curvature="0"
       style="fill:#808080" /><path
       d="m 225.8,158.5 0.7,0 c 0.7,0 1.2,-0.5 1.2,-1.2 l 0,-19.3 c 0,-0.7 -0.5,-1.2 -1.2,-1.2 l -0.7,0 c -0.7,0 -1.2,0.5 -1.2,1.2 l 0,19.3 c 0,0.7 0.5,1.2 1.2,1.2 z"
       id="path37"
       inkscape:connector-curvature="0"
       style="fill:#808080" /><path
       d="m 147.4,158.6 c -1.6,1.7 -4.3,1.7 -5.9,0 -1.6,-1.7 -4.3,-4.4 -5.9,-6 -1.6,-1.7 -0.3,-3 3,-3 3.2,0 8.6,0 11.8,0 3.2,0 4.6,1.4 3,3 -1.7,1.6 -4.3,4.3 -6,6 z"
       id="path39"
       inkscape:connector-curvature="0"
       style="fill:#808080" /><circle
       cx="232.3"
       cy="75.900002"
       r="18.9"
       id="circle41"
       style="fill:#4c4c4c" /><circle
       cx="232.3"
       cy="75.900002"
       r="18.200001"
       id="circle43"
       style="fill:#b2b2b2" /><ellipse
       cx="223.10001"
       cy="78.199997"
       rx="7.1999998"
       ry="3.2"
       id="ellipse45"
       style="fill:#01954b" /><ellipse
       cx="236"
       cy="83.5"
       rx="7.1999998"
       ry="3.2"
       id="ellipse47"
       style="fill:#f9ec2b" /><path
       d="m 244,81.4 c -0.9,-3.6 -4,-7.6 -8.1,-5.9 3.3,-7.6 9.5,-6.4 11.7,-3.8 1.7,2 1.7,9 -3.6,9.7 z"
       id="path49"
       inkscape:connector-curvature="0"
       style="fill:#eb2d2f" /><path
       d="m 231.3,75.6 c -0.9,-3.6 -4,-7.6 -8.1,-5.8 3.3,-7.6 9.5,-6.4 11.7,-3.8 1.8,1.9 1.7,8.8 -3.6,9.6 z"
       id="path51"
       inkscape:connector-curvature="0"
       style="fill:#323b98" /><rect
       x="40.400002"
       y="6.5999999"
       width="0.60000002"
       height="33.799999"
       id="rect53"
       style="fill:#4c4c4c" /><rect
       x="247.89999"
       y="6.5999999"
       width="0.60000002"
       height="33.799999"
       id="rect55"
       style="fill:#4c4c4c" /><rect
       x="252.2"
       y="289.5"
       width="0.60000002"
       height="57.700001"
       id="rect57"
       style="fill:#4c4c4c" /><rect
       x="36.200001"
       y="289.5"
       width="0.60000002"
       height="57.700001"
       id="rect59"
       style="fill:#4c4c4c" /><g
       id="g61"><g
         id="g63"><path
           d="m 54.7,327.3 c 0,0 -0.2,-0.1 -0.5,-0.1 l -3.1,0 c 0,0 -0.4,-0.2 -0.4,-0.8 0,0 0.2,-0.6 0.8,-0.6 l 4.3,0 0,-1.2 -5.5,0 c 0,0 -1.3,0 -1.6,1.5 0,0 -0.3,2.1 1.8,2.2 l 2.8,0 c 0,0 0.9,0.1 0.8,0.8 0,0 -0.1,0.6 -0.7,0.6 l -4.4,0 0,1.3 5,0 c 0,0 1.9,0.2 2.2,-1.7 -0.1,0.2 0.1,-1.7 -1.5,-2 z m 7.3,2.5 -2.3,0 c 0,0 -0.9,-0.1 -0.9,-0.9 l 0,-4.3 -1.9,0 0,4.8 c 0,0 0.5,1.7 2,1.7 l 5.1,0 0,-6.5 -2,0 0,5.2 z m 8.3,-5.2 -5.3,0 0,6.5 1.8,0 0,-2.2 3.2,0 c 2.2,-0.3 2.1,-2.2 2.1,-2.2 -0.2,-1.9 -1.8,-2.1 -1.8,-2.1 z m -1.1,3 -2.4,0 0,-1.8 2.5,0 c 0.7,0 0.8,0.8 0.8,0.8 -0.2,1.2 -0.9,1 -0.9,1 z m 3.5,0.3 c 0,0 -0.3,2.7 2.7,3.2 l 3.9,0 0,-1.3 -3.3,0 c 0,0 -1,0 -1.2,-1.4 l 4.6,0 0,-1.2 -4.6,0 c 0,0 0.1,-1.1 1.3,-1.3 l 3.3,0 0,-1.3 -4,0 c 0,0 -2.7,0.2 -2.7,3.3 z m 15.2,-1.2 c 0,-1.9 -2,-2.1 -2,-2.1 l -5.5,0 0,6.5 1.9,0 0,-2.4 1.9,0 1.6,2.4 2.2,0 -1.9,-2.5 c 1.8,-0.3 1.8,-1.9 1.8,-1.9 z m -3.4,0.8 -2.1,0 0,-1.7 2.2,0 c 0,0 1.2,-0.1 1.2,0.9 0,0 0.1,0.8 -1.3,0.8 z m 7.8,-0.5 0,4.2 1.9,0 0,-2.6 4.7,0 0,-1.4 -4.6,0 0,-0.3 c 0.1,-0.7 1.3,-1 1.3,-1 l 3.4,0 0,-1.2 -4,0 c -2.4,0 -2.7,2.3 -2.7,2.3 z m 12,-2.3 -4.3,0 0,1.2 3.4,0 c 1.3,0 1.4,1.3 1.4,1.3 l -3.2,0 c -2.2,0.1 -2.1,2 -2.1,2 0,2.1 2.3,2 2.3,2 l 5.1,0 0,-3.7 c -0.1,-2.6 -2.6,-2.8 -2.6,-2.8 z m 0.6,5.2 -2.6,0 c 0,0 -0.7,0 -0.7,-0.8 0,0 0.1,-0.7 0.8,-0.7 l 2.5,0 0,1.5 z m 10.4,-5.2 -7.5,0 0,6.5 2,0 0,-5.2 1.7,0 0,5.3 1.9,0 0,-5.2 0.8,0 c 1,0 1.2,0.8 1.2,0.8 l 0,4.4 1.8,0 0,-4.3 c 0.1,-2.1 -1.9,-2.3 -1.9,-2.3 z m 3.2,6.5 2.1,0 0,-6.5 -2.1,0 0,6.5 z m 2.9,-3.3 c 0,3.2 2.7,3.4 2.7,3.4 l 3.8,0 0,-1.3 -3.3,0 c -1.5,-0.3 -1.3,-2 -1.3,-2 0,-2.1 1.4,-2 1.4,-2 l 3.2,0 0,-1.3 -4,0 c -2.5,0.4 -2.5,3.2 -2.5,3.2 z m 11.1,-3.3 c 0,0 -3.5,-0.2 -4,2.7 0,0 -0.4,2.4 1.3,3.4 0,0 2.4,1.6 5.3,0 0,0 1.9,-0.9 1.4,-3.8 0,0.2 -0.5,-2.4 -4,-2.3 z m 0.1,5.6 c 0,0 -2.4,0.3 -2.2,-2.2 0,0 -0.2,-2.2 2.1,-2.2 0,0 2.3,-0.3 2.3,2.2 -0.1,0 0.1,2.2 -2.2,2.2 z m 12.4,-5.4 -7.5,0 0,6.5 2,0 0,-5.2 1.7,0 0,5.3 1.9,0 0,-5.2 0.8,0 c 1,0 1.2,0.8 1.2,0.8 l 0,4.4 1.8,0 0,-4.2 C 147,325 145,324.8 145,324.8 Z"
           id="path65"
           inkscape:connector-curvature="0"
           style="fill:#4c4c4c" /></g><g
         id="g67"><path
           id="path456_1_"
           d="m 48.7,311.1 2.9,0 4,6.6 0,-6.6 2.9,0 0,9.5 -2.8,0 -4,-6.6 0,6.6 -2.9,0 -0.1,-9.5 0,0 z"
           inkscape:connector-curvature="0"
           style="fill:#4c4c4c" /><path
           id="path458_1_"
           d="m 73.9,312.1 2.8,0 0,1.3 1.5,0 0,0.9 -1.5,0 0,6.3 -2.8,0 0,-6.3 -1.5,0 0,-0.9 1.5,0 0,-1.3 0,0 z"
           inkscape:connector-curvature="0"
           style="fill:#4c4c4c" /><path
           id="path460_1_"
           d="m 60,314.3 2.8,0 0,6.3 -2.8,0 0,-6.3 z"
           inkscape:connector-curvature="0"
           style="fill:#4c4c4c" /><path
           id="path462_1_"
           d="m 60,311.1 2.8,0 0,1.9 -2.8,0 0,-1.9 z"
           inkscape:connector-curvature="0"
           style="fill:#4c4c4c" /><path
           id="path464_1_"
           d="m 108.6,313.8 c -2.2,0 -4.1,1.6 -4.1,3.5 0,2 1.8,3.5 4.1,3.5 2.2,0 4.1,-1.6 4.1,-3.5 0,-1.9 -1.8,-3.5 -4.1,-3.5 m 1.1,3.6 c 0,0 0,1 0,1.3 0,1 -0.6,1.4 -1.1,1.4 -0.6,0 -1.1,-0.4 -1.1,-1.4 0,-0.4 0,-1.4 0,-1.4 0,0 0,-0.9 0,-1.3 0,-1 0.6,-1.4 1.1,-1.4 0.6,0 1.1,0.4 1.1,1.4 0,0.4 0,1.1 0,1.4 l 0,0 0,0 z"
           inkscape:connector-curvature="0"
           style="fill:#4c4c4c" /><path
           id="path466_1_"
           d="m 100.9,317.4 0,-1.1 c 0,-1 -0.7,-1.2 -1.1,-1.2 -0.4,0 -1.1,0.2 -1.1,1.2 l 0,1.1 0,1.1 c 0,1 0.6,1.2 1.1,1.2 0.4,0 1.1,-0.3 1.1,-1.2 l 0,-1.1 0,0 z m 0,-6.3 2.7,0 0,9.5 -2.7,0 c 0,0 0,-0.3 0,-0.4 -1.1,0.7 -2.3,0.7 -3.2,0.2 -0.3,-0.1 -1.9,-0.9 -1.9,-3.1 0,-1.7 1.5,-3.5 3.5,-3.3 0.7,0.1 1.1,0.3 1.6,0.6 l 0,-3.5 0,0 z"
           inkscape:connector-curvature="0"
           style="fill:#4c4c4c" /><path
           id="path468_1_"
           d="m 69.3,314 c 1,0 3.1,0.7 3.1,3.2 0,0.4 0,3.4 0,3.4 l -2.8,0 0,-4.1 c 0,-0.6 -0.5,-1.2 -1.3,-1.2 -0.8,0 -1.3,0.6 -1.3,1.2 0,0.3 0,4.1 0,4.1 l -2.8,0 0,-6.3 2.8,0 c 0,0 0,0.5 0,0.7 0.6,-0.6 1.4,-1 2.3,-1"
           inkscape:connector-curvature="0"
           style="fill:#4c4c4c" /><path
           id="path470_1_"
           d="m 91.8,314 c 1,0 3.1,0.7 3.1,3.2 0,0.4 0,3.4 0,3.4 l -2.8,0 0,-4.1 c 0,-0.6 -0.5,-1.2 -1.3,-1.2 -0.8,0 -1.3,0.6 -1.3,1.2 0,0.3 0,4.1 0,4.1 l -2.8,0 0,-6.3 2.8,0 c 0,0 0,0.5 0,0.7 0.6,-0.6 1.4,-1 2.3,-1"
           inkscape:connector-curvature="0"
           style="fill:#4c4c4c" /><path
           id="path472_1_"
           d="m 83.1,318.4 c 0,0 0,0 0,0.4 0,1.2 -0.7,1.4 -1.1,1.4 -0.4,0 -1.2,-0.3 -1.2,-1.4 0,-0.3 0,-1.3 0,-1.3 0,0 5.2,0 5.2,0 0,-2 -1.8,-3.6 -4.1,-3.6 -2.3,0 -4.1,1.6 -4.1,3.5 0,2 1.8,3.5 4.1,3.5 1.9,0 3.5,-1.1 3.9,-2.6 l -2.7,0.1 0,0 z m -2.3,-1.9 c 0,-0.6 0,-0.9 0.2,-1.2 0.2,-0.4 0.6,-0.6 1,-0.6 0.4,0 0.8,0.2 1,0.6 0.2,0.3 0.2,0.7 0.2,1.2 l -2.4,0 z"
           inkscape:connector-curvature="0"
           style="fill:#4c4c4c" /></g></g></g><g
     id="g3411"
     transform="matrix(1.185372,0,0,1.185372,408.26047,272.15931)"><path
       id="path3413"
       d="m 103.5,144.9 c 13.1,0 92.2,-1 94,-1 8.6,0 9.5,-6.1 9.5,-8.7 C 207,132.6 206.3,16.1 206.1,9.3 205.9,2.4 200.9,1.7 196.8,1.5 192.7,1.3 115.9,0 103.5,0 91.1,0 14.2,1.2 10.2,1.4 6.2,1.6 1.2,2.3 0.9,9.2 0.7,16.1 0,132.6 0,135.2 c 0,2.6 0.9,8.7 9.5,8.7 1.8,0 80.9,1 94,1 z"
       inkscape:connector-curvature="0"
       style="fill:#cccccc" /><rect
       id="rect3415"
       height="143.10001"
       width="0.5"
       y="1"
       x="176.2"
       style="fill:#666666" /><rect
       id="rect3417"
       height="143.10001"
       width="0.5"
       y="1"
       x="30.299999"
       style="fill:#666666" /><path
       id="path3419"
       d="m 178.5,69.5 -153.7,0 c -5.3,0 -9.6,-4.3 -9.6,-9.6 l 0,-41.7 c 0,-5.3 4.3,-9.6 9.6,-9.6 l 153.7,0 c 5.3,0 9.6,4.3 9.6,9.6 l 0,41.8 c -0.1,5.2 -4.4,9.5 -9.6,9.5 z"
       inkscape:connector-curvature="0"
       style="fill:#fee145" /><circle
       id="circle3421"
       r="3.8"
       cy="134.39999"
       cx="8.8000002"
       style="fill:#666666" /><circle
       id="circle3423"
       r="3.8"
       cy="134.39999"
       cx="198.3"
       style="fill:#666666" /><path
       id="path3425"
       d="m 159.7,100.8 -112.4,0 c -2.5,0 -4.6,-2.1 -4.6,-4.6 l 0,-1.8 c 0,-2.5 2.1,-4.6 4.6,-4.6 l 112.4,0 c 2.5,0 4.6,2.1 4.6,4.6 l 0,1.8 c 0,2.5 -2.1,4.6 -4.6,4.6 z"
       inkscape:connector-curvature="0"
       style="fill:#b2b2b2" /><rect
       id="rect3427"
       height="7.5999999"
       width="39"
       y="91.5"
       x="83.900002"
       style="fill:#999999" /><path
       id="path3429"
       d="m 42.8,96.7 121.4,0 c 0,-0.1 0,-0.2 0,-0.2 l -121.4,0 c 0,0 0,0.1 0,0.2 z m 0.4,1.2 120.7,0 c 0,-0.1 0.1,-0.2 0.1,-0.2 l -120.9,0 c 0,0.1 0.1,0.1 0.1,0.2 z m 0.8,1.3 119,0 c 0.1,-0.1 0.1,-0.2 0.2,-0.2 L 43.8,99 c 0.1,0 0.1,0.1 0.2,0.2 z m -1.2,-4 0,0.2 121.5,0 0,-0.2 -121.5,0 z M 163,91.4 44,91.4 c -0.1,0.1 -0.1,0.2 -0.2,0.2 l 119.4,0 c 0,0 -0.1,-0.1 -0.2,-0.2 z m 1.2,2.5 -121.4,0 c 0,0.1 0,0.2 0,0.2 l 121.5,0 c -0.1,0 -0.1,-0.1 -0.1,-0.2 z m -0.3,-1.2 -120.7,0 c 0,0.1 -0.1,0.2 -0.1,0.2 l 120.9,0 c -0.1,0 -0.1,-0.1 -0.1,-0.2 z"
       inkscape:connector-curvature="0"
       style="fill:#666666" /><g
       id="g3431"><path
         id="path3433"
         d="m 22.7,63.6 c -1.8,0 -3,-1.3 -3,-2.8 0,-1.6 1.2,-2.9 3,-2.8 l 17,0 c 1.8,0 3,1.3 3,2.8 0,1.6 -1.2,2.8 -3,2.8 l -17,0 0,0 z"
         inkscape:connector-curvature="0"
         style="fill:#b2b2b2;fill-rule:evenodd" /><path
         id="path3435"
         d="m 22.7,58.6 c -1.4,0 -2.3,1 -2.3,2.1 0,1.2 0.9,2.1 2.3,2.1 l 17,0 c 1.4,0 2.3,-1 2.3,-2.1 0,-1.2 -0.9,-2.1 -2.3,-2.1 l -17,0 0,0 z"
         inkscape:connector-curvature="0"
         style="fill:#ffffff;fill-rule:evenodd" /><g
         id="g3437"><polygon
           id="polygon3439"
           points="22.8,62.1 22,62.1 22,59.4 22,59.4 22.8,59.4 24,61.3 24,59.4 24.8,59.4 24.8,62.1 24,62.1 22.8,60.2 "
           style="fill:#b2b2b2;fill-rule:evenodd" /><polygon
           id="polygon3441"
           points="29.3,60.3 28.9,60.3 28.9,60 29.3,60 29.3,59.7 29.3,59.7 30.1,59.7 30.1,60 30.5,60 30.5,60.3 30.1,60.3 30.1,62.1 29.3,62.1 "
           style="fill:#b2b2b2;fill-rule:evenodd" /><polygon
           id="polygon3443"
           points="25.3,62.1 25.3,60.3 25.3,60.3 26.1,60.3 26.1,62.1 "
           style="fill:#b2b2b2;fill-rule:evenodd" /><polygon
           id="polygon3445"
           points="25.3,59.9 25.3,59.4 25.3,59.4 26.1,59.4 26.1,59.9 "
           style="fill:#b2b2b2;fill-rule:evenodd" /><path
           id="path3447"
           d="m 39.7,61.2 c 0,0 0,0.3 0,0.4 0,0.3 -0.2,0.4 -0.3,0.4 -0.2,0 -0.3,-0.1 -0.3,-0.4 0,-0.1 0,-0.4 0,-0.4 0,0 0,-0.3 0,-0.4 0,-0.3 0.2,-0.4 0.3,-0.4 0.1,0 0.3,0.1 0.3,0.4 0,0.1 0,0.3 0,0.4 l 0,0 0,0 0,0 z m -0.3,-1 c -0.6,0 -1.2,0.4 -1.2,1 0,0.6 0.5,1 1.2,1 0.6,0 1.2,-0.4 1.2,-1 -0.1,-0.6 -0.6,-1 -1.2,-1 l 0,0 z"
           inkscape:connector-curvature="0"
           style="fill:#b2b2b2;fill-rule:evenodd" /><path
           id="path3449"
           d="m 37.1,59.4 0.8,0 0,2.7 -0.8,0 c 0,0 0,-0.1 0,-0.1 -0.3,0.2 -0.7,0.2 -0.9,0.1 -0.1,0 -0.6,-0.3 -0.6,-0.9 0,-0.5 0.4,-1 1,-0.9 0.2,0 0.3,0.1 0.5,0.2 0,-0.5 0,-1.1 0,-1.1 l 0,0 0,0 z m 0,1.8 c 0,0 0,-0.2 0,-0.3 0,-0.3 -0.2,-0.3 -0.3,-0.3 -0.1,0 -0.3,0.1 -0.3,0.3 0,0.1 0,0.3 0,0.3 0,0 0,0.2 0,0.3 0,0.3 0.2,0.3 0.3,0.3 0.1,0 0.3,-0.1 0.3,-0.3 0,-0.1 0,-0.3 0,-0.3 l 0,0 z"
           inkscape:connector-curvature="0"
           style="fill:#b2b2b2;fill-rule:evenodd" /><path
           id="path3451"
           d="m 28,60.2 c 0.3,0 0.9,0.2 0.9,0.9 0,0.1 0,1 0,1 l -0.8,0 c 0,0 0,-1.1 0,-1.2 0,-0.2 -0.1,-0.3 -0.4,-0.3 -0.2,0 -0.4,0.2 -0.4,0.3 0,0.1 0,1.2 0,1.2 l -0.8,0 0,-1.8 0.8,0 c 0,0 0,0.1 0,0.2 0.2,-0.2 0.4,-0.3 0.7,-0.3 l 0,0 z"
           inkscape:connector-curvature="0"
           style="fill:#b2b2b2;fill-rule:evenodd" /><path
           id="path3453"
           d="m 34.5,60.2 c 0.3,0 0.9,0.2 0.9,0.9 0,0.1 0,1 0,1 l -0.8,0 c 0,0 0,-1.1 0,-1.2 0,-0.2 -0.1,-0.3 -0.4,-0.3 -0.2,0 -0.4,0.2 -0.4,0.3 0,0.1 0,1.2 0,1.2 l -0.8,0 0,-1.8 0.8,0 c 0,0 0,0.1 0,0.2 0.2,-0.2 0.4,-0.3 0.7,-0.3 l 0,0 z"
           inkscape:connector-curvature="0"
           style="fill:#b2b2b2;fill-rule:evenodd" /><path
           id="path3455"
           d="m 31.3,60.9 c 0,-0.2 0,-0.3 0.1,-0.3 0.1,-0.1 0.2,-0.2 0.3,-0.2 l 0,0 c 0.1,0 0.2,0.1 0.3,0.2 0.1,0.1 0.1,0.2 0.1,0.3 l -0.8,0 0,0 0,0 z m 0.7,0.5 c 0,0 0,0 0,0.1 0,0.3 -0.2,0.4 -0.3,0.4 -0.1,0 -0.3,-0.1 -0.3,-0.4 0,-0.1 0,-0.4 0,-0.4 l 1.5,0 c 0,-0.6 -0.5,-1 -1.2,-1 -0.7,0 -1.2,0.4 -1.2,1 0,0.6 0.5,1 1.2,1 0.5,0 1,-0.3 1.1,-0.7 l -0.8,0 0,0 z"
           inkscape:connector-curvature="0"
           style="fill:#b2b2b2;fill-rule:evenodd" /><path
           id="path3457"
           d="m 40.6,60 0,0 -0.1,-0.6 0.2,0 c 0.1,0 0.2,0.1 0.2,0.2 0,0.1 -0.1,0.2 -0.2,0.2 l 0.3,0.2 -0.1,0 -0.2,-0.3 -0.1,0 0,0.3 0,0 0,0 z m 0.1,-0.3 c 0.1,0 0.1,0 0.1,-0.1 0,-0.1 -0.1,-0.1 -0.1,-0.1 l -0.1,0 0,0.2 0.1,0 0,0 z"
           inkscape:connector-curvature="0"
           style="fill:#b2b2b2;fill-rule:evenodd" /><path
           id="path3459"
           d="m 40.2,59.7 c 0,-0.3 0.2,-0.5 0.5,-0.5 0.3,0 0.5,0.2 0.5,0.5 0,0.3 -0.2,0.5 -0.5,0.5 -0.3,0.1 -0.5,-0.2 -0.5,-0.5 l 0,0 0,0 z m 0.5,0.5 c 0.2,0 0.4,-0.2 0.4,-0.4 0,-0.2 -0.2,-0.4 -0.4,-0.4 -0.2,0 -0.4,0.2 -0.4,0.4 0,0.2 0.2,0.4 0.4,0.4 l 0,0 z"
           inkscape:connector-curvature="0"
           style="fill:#b2b2b2;fill-rule:evenodd" /></g></g><g
       id="g3461"><g
         id="g3463"><path
           id="path3465"
           d="m 34.2,36.5 -0.5,0 0,-1.6 c 0,0 1.2,0 1.8,0 0.3,0 0.5,0.2 0.6,0.5 l 0,1.1 -0.5,0 c 0,0 0,-0.7 0,-1 0,-0.2 -0.1,-0.3 -0.2,-0.3 -0.1,0 -0.2,0 -0.3,0 0,0.4 0,1.3 0,1.3 l -0.5,0 c 0,0 0,-0.9 0,-1.3 -0.1,0 -0.3,0 -0.4,0 0,0.4 0,1.3 0,1.3 z"
           inkscape:connector-curvature="0"
           style="fill:#ffffff" /><path
           id="path3467"
           d="m 41.5,36.5 -0.5,0 0,-1.6 c 0,0 1.2,0 1.8,0 0.3,0 0.5,0.2 0.6,0.5 l 0,1.1 -0.5,0 c 0,0 0,-0.7 0,-1 0,-0.2 -0.1,-0.3 -0.2,-0.3 -0.1,0 -0.2,0 -0.3,0 0,0.4 0,1.3 0,1.3 l -0.5,0 c 0,0 0,-0.9 0,-1.3 -0.1,0 -0.3,0 -0.4,0 0,0.4 0,1.3 0,1.3 z"
           inkscape:connector-curvature="0"
           style="fill:#ffffff" /><path
           id="path3469"
           d="m 28.4,35.8 c 0.2,0.2 0.3,0.4 0.5,0.6 -0.2,0 -0.5,0 -0.5,0 l -0.4,-0.6 -0.5,0 c 0,0 0,0.4 0,0.6 -0.2,0 -0.3,0 -0.5,0 0,-0.5 0,-1.1 0,-1.6 0,0 0,0 0.1,0 0.4,0 0.8,0 1.2,0 0.3,0 0.6,0.3 0.5,0.6 0,0.3 -0.2,0.4 -0.4,0.4 0,0 0,0 0,0 z m -1,-0.2 c 0.2,0 0.6,0 0.6,0 0,0 0.1,0 0.1,0 0.1,0 0.1,-0.1 0.1,-0.2 0,-0.1 0,-0.2 -0.1,-0.2 0,0 -0.1,0 -0.1,0 l -0.6,0 c 0,0 0,0.2 0,0.4 z"
           inkscape:connector-curvature="0"
           style="fill:#ffffff" /><path
           id="path3471"
           d="m 33.5,36.5 -1.2,0 c -0.1,0 -0.2,0 -0.3,0 -0.2,-0.1 -0.3,-0.2 -0.3,-0.5 0,-0.2 0.2,-0.4 0.4,-0.5 0.1,0 0.1,0 0.2,0 l 0.7,0 c 0,0 0,0 0,0 0,-0.2 -0.1,-0.3 -0.3,-0.3 l -0.8,0 0,-0.3 1,0 c 0.4,0 0.7,0.3 0.7,0.7 l 0,0.9 -0.1,0 0,0 z M 33,35.8 c -0.2,0 -0.4,0 -0.6,0 -0.1,0 -0.2,0.1 -0.2,0.2 0,0.1 0.1,0.2 0.2,0.2 l 0.6,0 c 0,-0.1 0,-0.3 0,-0.4 z"
           inkscape:connector-curvature="0"
           style="fill:#ffffff" /><path
           id="path3473"
           d="m 19.2,36.5 0,-0.3 1.1,0 c 0.1,0 0.2,0 0.2,-0.1 0,-0.1 0,-0.1 -0.1,-0.2 0,0 -0.1,0 -0.1,0 l -0.7,0 c -0.3,0 -0.4,-0.2 -0.4,-0.4 0,-0.2 0.1,-0.5 0.4,-0.5 0,0 0.9,0 1.4,0 0,0.1 0,0.2 0,0.3 0,0 0,0 -0.1,0 -0.3,0 -0.6,0 -0.9,0 0,0 -0.1,0 -0.1,0 -0.1,0 -0.1,0.1 -0.1,0.1 0,0.1 0,0.1 0.1,0.2 0,0 0,0 0.1,0 l 0.7,0 c 0.2,0 0.3,0.1 0.4,0.2 0.2,0.3 0,0.7 -0.4,0.7 l -1.5,0 0,0 z"
           inkscape:connector-curvature="0"
           style="fill:#ffffff" /><path
           id="path3475"
           d="m 39.8,34.8 c 0.2,0 0.4,0 0.5,0.1 0.2,0.1 0.4,0.3 0.5,0.5 0.1,0.3 0,0.6 -0.2,0.8 -0.1,0.1 -0.3,0.2 -0.5,0.2 -0.3,0.1 -0.6,0 -0.8,-0.1 -0.2,-0.1 -0.4,-0.3 -0.4,-0.6 0,-0.1 0,-0.3 0,-0.4 0.1,-0.3 0.3,-0.5 0.6,-0.5 0.1,0 0.1,0 0.3,0 z m 0.5,0.9 c 0,-0.1 0,-0.1 0,0 0,-0.3 -0.1,-0.5 -0.4,-0.5 -0.1,0 -0.2,0 -0.4,0 -0.2,0 -0.3,0.1 -0.3,0.3 0,0.1 0,0.3 0,0.4 0,0.2 0.1,0.3 0.3,0.3 0.1,0 0.2,0 0.3,0 0.4,0 0.5,-0.2 0.5,-0.5 z"
           inkscape:connector-curvature="0"
           style="fill:#ffffff" /><path
           id="path3477"
           d="m 26.7,35.5 c 0,0.1 0,0.2 0,0.3 -0.4,0 -0.8,0 -1.1,0 0,0.2 0.1,0.3 0.3,0.3 0.2,0 0.8,0 0.8,0 l 0,0.3 -0.9,0 c -0.5,0 -0.7,-0.3 -0.7,-0.8 0,-0.1 0,-0.3 0.1,-0.4 0.1,-0.3 0.4,-0.5 0.7,-0.5 0.3,0 0.9,0 0.9,0 l 0,0.3 c 0,0 -0.6,0 -0.8,0 -0.2,0 -0.3,0.1 -0.4,0.3 0.4,0.2 0.7,0.2 1.1,0.2 z"
           inkscape:connector-curvature="0"
           style="fill:#ffffff" /><path
           id="path3479"
           d="m 22.4,36.1 c 0,0 0,-0.9 0,-1.3 0.2,0 0.3,0 0.5,0 0,0.5 0,1.6 0,1.6 l -1.2,0 c -0.2,0 -0.3,-0.1 -0.4,-0.2 -0.1,-0.1 -0.1,-0.2 -0.1,-0.4 0,-0.3 0,-1.1 0,-1.1 l 0.5,0 0,1 c 0,0.2 0.1,0.2 0.2,0.3 l 0.5,0 z"
           inkscape:connector-curvature="0"
           style="fill:#ffffff" /><path
           id="path3481"
           d="m 23.6,35.9 c 0,0.2 0,0.4 0,0.5 -0.2,0 -0.3,0 -0.5,0 0,-0.5 0,-1.6 0,-1.6 l 1.2,0 c 0.2,0 0.4,0.2 0.5,0.4 0.1,0.4 -0.2,0.7 -0.5,0.7 -0.2,0 -0.4,0 -0.7,0 0.1,0 0,0 0,0 z m 0,-0.3 0.6,0 c 0,0 0.1,0 0.1,0 0.1,0 0.1,-0.2 0.1,-0.2 0,-0.1 -0.1,-0.2 -0.2,-0.2 l -0.6,0 0,0.4 0,0 z"
           inkscape:connector-curvature="0"
           style="fill:#ffffff" /><path
           id="path3483"
           d="m 31.5,34.8 0,0.3 -0.8,0 c -0.1,0 -0.2,0.1 -0.3,0.2 0,0 0,0.1 0,0.2 0.4,0 0.8,0 1.1,0 0,0.1 0,0.2 0,0.3 -0.4,0 -0.8,0 -1.2,0 0,0.2 0,0.4 0,0.6 -0.2,0 -0.5,0 -0.5,0 0,0 0,-0.7 0,-1 0,-0.3 0.3,-0.7 0.6,-0.7 l 1.1,0.1 0,0 z"
           inkscape:connector-curvature="0"
           style="fill:#ffffff" /><path
           id="path3485"
           d="m 38.7,36.1 0,0.3 -0.9,0 c -0.4,0 -0.6,-0.2 -0.7,-0.6 -0.1,-0.3 0,-0.5 0.1,-0.8 0.1,-0.2 0.3,-0.3 0.5,-0.3 l 0.9,0 0,0.3 -0.8,0 c -0.2,0 -0.3,0.1 -0.3,0.2 -0.1,0.2 -0.1,0.4 0,0.5 0.1,0.2 0.2,0.2 0.3,0.2 l 0.9,0.2 0,0 z"
           inkscape:connector-curvature="0"
           style="fill:#ffffff" /><rect
           id="rect3487"
           height="1.6"
           width="0.5"
           y="34.799999"
           x="36.299999"
           style="fill:#ffffff" /></g><g
         id="g3489"><path
           id="path3491"
           d="m 43.3,33 -24.1,0 0,-18.5 24.2,0 0,18.5 z m -23.6,-0.5 23.2,0 0,-17.5 -23.2,0 0,17.5 z"
           inkscape:connector-curvature="0"
           style="fill:#ffffff" /></g><rect
         id="rect3493"
         height="17.5"
         width="23.200001"
         y="15"
         x="19.700001" /><g
         id="g3495"><ellipse
           id="ellipse3497"
           ry="2"
           rx="4.5"
           cy="25.5"
           cx="25.5"
           style="fill:#01954b" /><ellipse
           id="ellipse3499"
           ry="2"
           rx="4.5"
           cy="28.799999"
           cx="33.5"
           style="fill:#f9ec2b" /><path
           id="path3501"
           d="m 38.6,27.5 c -0.5,-2.2 -2.5,-4.7 -5,-3.6 2.1,-4.7 5.9,-4 7.3,-2.4 1,1.2 0.9,5.5 -2.3,6 z"
           inkscape:connector-curvature="0"
           style="fill:#eb2d2f" /><path
           id="path3503"
           d="m 30.7,23.9 c -0.5,-2.2 -2.5,-4.7 -5,-3.6 2.1,-4.7 5.9,-4 7.3,-2.4 1,1.2 0.9,5.5 -2.3,6 z"
           inkscape:connector-curvature="0"
           style="fill:#323b98" /></g></g></g></svg>