<?xml version="1.0" encoding="utf-8"?>
<!-- Generator: Adobe Illustrator 19.0.0, SVG Export Plug-In . SVG Version: 6.00 Build 0)  -->
<svg version="1.1" baseProfile="tiny" id="Calque_1"
	 xmlns="http://www.w3.org/2000/svg" xmlns:xlink="http://www.w3.org/1999/xlink" x="0px" y="0px" viewBox="0 0 207 144.9"
	 xml:space="preserve">
<g>
	<path fill="#CCCCCC" d="M103.5,144.9c13.1,0,92.2-1,94-1c8.6,0,9.5-6.1,9.5-8.7c0-2.6-0.7-119.1-0.9-125.9
		c-0.2-6.9-5.2-7.6-9.3-7.8S115.9,0,103.5,0S14.2,1.2,10.2,1.4c-4,0.2-9,0.9-9.3,7.8C0.7,16.1,0,132.6,0,135.2
		c0,2.6,0.9,8.7,9.5,8.7C11.3,143.9,90.4,144.9,103.5,144.9z"/>
	<rect x="176.2" y="1" fill="#666666" width="0.5" height="143.1"/>
	<rect x="30.3" y="1" fill="#666666" width="0.5" height="143.1"/>
	<path fill="#FEE145" d="M178.5,69.5H24.8c-5.3,0-9.6-4.3-9.6-9.6V18.2c0-5.3,4.3-9.6,9.6-9.6h153.7c5.3,0,9.6,4.3,9.6,9.6V60
		C188,65.2,183.7,69.5,178.5,69.5z"/>
	<circle fill="#666666" cx="8.8" cy="134.4" r="3.8"/>
	<circle fill="#666666" cx="198.3" cy="134.4" r="3.8"/>
	<path fill="#B2B2B2" d="M159.7,100.8H47.3c-2.5,0-4.6-2.1-4.6-4.6v-1.8c0-2.5,2.1-4.6,4.6-4.6h112.4c2.5,0,4.6,2.1,4.6,4.6v1.8
		C164.3,98.7,162.2,100.8,159.7,100.8z"/>
	<rect x="83.9" y="91.5" fill="#999999" width="39" height="7.6"/>
	<path fill="#666666" d="M42.8,96.7h121.4c0-0.1,0-0.2,0-0.2H42.8C42.8,96.5,42.8,96.6,42.8,96.7z M43.2,97.9h120.7
		c0-0.1,0.1-0.2,0.1-0.2H43.1C43.1,97.8,43.2,97.8,43.2,97.9z M44,99.2h119c0.1-0.1,0.1-0.2,0.2-0.2H43.8C43.9,99,43.9,99.1,44,99.2
		z M42.8,95.2v0.2h121.5v-0.2H42.8z M163,91.4H44c-0.1,0.1-0.1,0.2-0.2,0.2h119.4C163.2,91.6,163.1,91.5,163,91.4z M164.2,93.9H42.8
		c0,0.1,0,0.2,0,0.2h121.5C164.2,94.1,164.2,94,164.2,93.9z M163.9,92.7H43.2c0,0.1-0.1,0.2-0.1,0.2H164
		C163.9,92.9,163.9,92.8,163.9,92.7z"/>
	<g>
		<path fill-rule="evenodd" fill="#B2B2B2" d="M22.7,63.6c-1.8,0-3-1.3-3-2.8c0-1.6,1.2-2.9,3-2.8h17c1.8,0,3,1.3,3,2.8
			c0,1.6-1.2,2.8-3,2.8H22.7L22.7,63.6z"/>
		<path fill-rule="evenodd" fill="#FFFFFF" d="M22.7,58.6c-1.4,0-2.3,1-2.3,2.1c0,1.2,0.9,2.1,2.3,2.1h17c1.4,0,2.3-1,2.3-2.1
			c0-1.2-0.9-2.1-2.3-2.1H22.7L22.7,58.6z"/>
		<g>
			<polygon fill-rule="evenodd" fill="#B2B2B2" points="22,59.4 22.8,59.4 24,61.3 24,59.4 24.8,59.4 24.8,62.1 24,62.1 22.8,60.2 
				22.8,62.1 22,62.1 22,59.4 			"/>
			<polygon fill-rule="evenodd" fill="#B2B2B2" points="29.3,59.7 30.1,59.7 30.1,60 30.5,60 30.5,60.3 30.1,60.3 30.1,62.1 
				29.3,62.1 29.3,60.3 28.9,60.3 28.9,60 29.3,60 29.3,59.7 			"/>
			<polygon fill-rule="evenodd" fill="#B2B2B2" points="25.3,60.3 26.1,60.3 26.1,62.1 25.3,62.1 25.3,60.3 			"/>
			<polygon fill-rule="evenodd" fill="#B2B2B2" points="25.3,59.4 26.1,59.4 26.1,59.9 25.3,59.9 25.3,59.4 			"/>
			<path fill-rule="evenodd" fill="#B2B2B2" d="M39.7,61.2c0,0,0,0.3,0,0.4c0,0.3-0.2,0.4-0.3,0.4c-0.2,0-0.3-0.1-0.3-0.4
				c0-0.1,0-0.4,0-0.4s0-0.3,0-0.4c0-0.3,0.2-0.4,0.3-0.4s0.3,0.1,0.3,0.4C39.7,60.9,39.7,61.1,39.7,61.2L39.7,61.2L39.7,61.2
				L39.7,61.2z M39.4,60.2c-0.6,0-1.2,0.4-1.2,1c0,0.6,0.5,1,1.2,1c0.6,0,1.2-0.4,1.2-1C40.5,60.6,40,60.2,39.4,60.2L39.4,60.2z"/>
			<path fill-rule="evenodd" fill="#B2B2B2" d="M37.1,59.4h0.8v2.7h-0.8c0,0,0-0.1,0-0.1c-0.3,0.2-0.7,0.2-0.9,0.1
				c-0.1,0-0.6-0.3-0.6-0.9c0-0.5,0.4-1,1-0.9c0.2,0,0.3,0.1,0.5,0.2C37.1,60,37.1,59.4,37.1,59.4L37.1,59.4L37.1,59.4z M37.1,61.2
				c0,0,0-0.2,0-0.3c0-0.3-0.2-0.3-0.3-0.3c-0.1,0-0.3,0.1-0.3,0.3c0,0.1,0,0.3,0,0.3s0,0.2,0,0.3c0,0.3,0.2,0.3,0.3,0.3
				c0.1,0,0.3-0.1,0.3-0.3C37.1,61.4,37.1,61.2,37.1,61.2L37.1,61.2z"/>
			<path fill-rule="evenodd" fill="#B2B2B2" d="M28,60.2c0.3,0,0.9,0.2,0.9,0.9c0,0.1,0,1,0,1h-0.8c0,0,0-1.1,0-1.2
				c0-0.2-0.1-0.3-0.4-0.3c-0.2,0-0.4,0.2-0.4,0.3c0,0.1,0,1.2,0,1.2h-0.8l0-1.8l0.8,0c0,0,0,0.1,0,0.2C27.5,60.3,27.7,60.2,28,60.2
				L28,60.2z"/>
			<path fill-rule="evenodd" fill="#B2B2B2" d="M34.5,60.2c0.3,0,0.9,0.2,0.9,0.9c0,0.1,0,1,0,1h-0.8c0,0,0-1.1,0-1.2
				c0-0.2-0.1-0.3-0.4-0.3c-0.2,0-0.4,0.2-0.4,0.3c0,0.1,0,1.2,0,1.2h-0.8l0-1.8l0.8,0c0,0,0,0.1,0,0.2C34,60.3,34.2,60.2,34.5,60.2
				L34.5,60.2z"/>
			<path fill-rule="evenodd" fill="#B2B2B2" d="M31.3,60.9c0-0.2,0-0.3,0.1-0.3c0.1-0.1,0.2-0.2,0.3-0.2h0c0.1,0,0.2,0.1,0.3,0.2
				c0.1,0.1,0.1,0.2,0.1,0.3H31.3L31.3,60.9L31.3,60.9z M32,61.4c0,0,0,0,0,0.1c0,0.3-0.2,0.4-0.3,0.4c-0.1,0-0.3-0.1-0.3-0.4
				c0-0.1,0-0.4,0-0.4h1.5c0-0.6-0.5-1-1.2-1c-0.7,0-1.2,0.4-1.2,1c0,0.6,0.5,1,1.2,1c0.5,0,1-0.3,1.1-0.7L32,61.4L32,61.4z"/>
			<path fill-rule="evenodd" fill="#B2B2B2" d="M40.6,60L40.6,60l-0.1-0.6h0.2c0.1,0,0.2,0.1,0.2,0.2c0,0.1-0.1,0.2-0.2,0.2L41,60
				h-0.1l-0.2-0.3h-0.1V60L40.6,60L40.6,60z M40.7,59.7c0.1,0,0.1,0,0.1-0.1c0-0.1-0.1-0.1-0.1-0.1h-0.1v0.2H40.7L40.7,59.7z"/>
			<path fill-rule="evenodd" fill="#B2B2B2" d="M40.2,59.7c0-0.3,0.2-0.5,0.5-0.5c0.3,0,0.5,0.2,0.5,0.5c0,0.3-0.2,0.5-0.5,0.5
				C40.4,60.3,40.2,60,40.2,59.7L40.2,59.7L40.2,59.7z M40.7,60.2c0.2,0,0.4-0.2,0.4-0.4c0-0.2-0.2-0.4-0.4-0.4
				c-0.2,0-0.4,0.2-0.4,0.4C40.3,60,40.5,60.2,40.7,60.2L40.7,60.2z"/>
		</g>
	</g>
	<g>
		<g>
			<path fill="#FFFFFF" d="M34.2,36.5h-0.5v-1.6c0,0,1.2,0,1.8,0c0.3,0,0.5,0.2,0.6,0.5v1.1h-0.5c0,0,0-0.7,0-1
				c0-0.2-0.1-0.3-0.2-0.3c-0.1,0-0.2,0-0.3,0c0,0.4,0,1.3,0,1.3h-0.5c0,0,0-0.9,0-1.3c-0.1,0-0.3,0-0.4,0
				C34.2,35.6,34.2,36.5,34.2,36.5z"/>
			<path fill="#FFFFFF" d="M41.5,36.5H41v-1.6c0,0,1.2,0,1.8,0c0.3,0,0.5,0.2,0.6,0.5v1.1h-0.5c0,0,0-0.7,0-1c0-0.2-0.1-0.3-0.2-0.3
				c-0.1,0-0.2,0-0.3,0c0,0.4,0,1.3,0,1.3h-0.5c0,0,0-0.9,0-1.3c-0.1,0-0.3,0-0.4,0C41.5,35.6,41.5,36.5,41.5,36.5z"/>
			<path fill="#FFFFFF" d="M28.4,35.8c0.2,0.2,0.3,0.4,0.5,0.6c-0.2,0-0.5,0-0.5,0l-0.4-0.6h-0.5c0,0,0,0.4,0,0.6
				c-0.2,0-0.3,0-0.5,0c0-0.5,0-1.1,0-1.6c0,0,0,0,0.1,0c0.4,0,0.8,0,1.2,0c0.3,0,0.6,0.3,0.5,0.6C28.8,35.7,28.6,35.8,28.4,35.8
				C28.4,35.8,28.4,35.8,28.4,35.8z M27.4,35.6c0.2,0,0.6,0,0.6,0c0,0,0.1,0,0.1,0c0.1,0,0.1-0.1,0.1-0.2c0-0.1,0-0.2-0.1-0.2
				c0,0-0.1,0-0.1,0h-0.6C27.4,35.2,27.4,35.4,27.4,35.6z"/>
			<path fill="#FFFFFF" d="M33.5,36.5h-1.2c-0.1,0-0.2,0-0.3,0c-0.2-0.1-0.3-0.2-0.3-0.5c0-0.2,0.2-0.4,0.4-0.5c0.1,0,0.1,0,0.2,0
				H33c0,0,0,0,0,0c0-0.2-0.1-0.3-0.3-0.3h-0.8v-0.3h1c0.4,0,0.7,0.3,0.7,0.7V36.5L33.5,36.5L33.5,36.5z M33,35.8
				c-0.2,0-0.4,0-0.6,0c-0.1,0-0.2,0.1-0.2,0.2c0,0.1,0.1,0.2,0.2,0.2H33C33,36.1,33,35.9,33,35.8z"/>
			<path fill="#FFFFFF" d="M19.2,36.5v-0.3l1.1,0c0.1,0,0.2,0,0.2-0.1c0-0.1,0-0.1-0.1-0.2c0,0-0.1,0-0.1,0h-0.7
				c-0.3,0-0.4-0.2-0.4-0.4c0-0.2,0.1-0.5,0.4-0.5c0,0,0.9,0,1.4,0c0,0.1,0,0.2,0,0.3c0,0,0,0-0.1,0c-0.3,0-0.6,0-0.9,0
				c0,0-0.1,0-0.1,0c-0.1,0-0.1,0.1-0.1,0.1c0,0.1,0,0.1,0.1,0.2c0,0,0,0,0.1,0h0.7c0.2,0,0.3,0.1,0.4,0.2c0.2,0.3,0,0.7-0.4,0.7
				L19.2,36.5L19.2,36.5z"/>
			<path fill="#FFFFFF" d="M39.8,34.8c0.2,0,0.4,0,0.5,0.1c0.2,0.1,0.4,0.3,0.5,0.5c0.1,0.3,0,0.6-0.2,0.8c-0.1,0.1-0.3,0.2-0.5,0.2
				c-0.3,0.1-0.6,0-0.8-0.1c-0.2-0.1-0.4-0.3-0.4-0.6c0-0.1,0-0.3,0-0.4c0.1-0.3,0.3-0.5,0.6-0.5C39.6,34.8,39.6,34.8,39.8,34.8z
				 M40.3,35.7C40.3,35.6,40.3,35.6,40.3,35.7c0-0.3-0.1-0.5-0.4-0.5c-0.1,0-0.2,0-0.4,0c-0.2,0-0.3,0.1-0.3,0.3c0,0.1,0,0.3,0,0.4
				c0,0.2,0.1,0.3,0.3,0.3c0.1,0,0.2,0,0.3,0C40.2,36.2,40.3,36,40.3,35.7z"/>
			<path fill="#FFFFFF" d="M26.7,35.5c0,0.1,0,0.2,0,0.3c-0.4,0-0.8,0-1.1,0c0,0.2,0.1,0.3,0.3,0.3c0.2,0,0.8,0,0.8,0v0.3h-0.9
				c-0.5,0-0.7-0.3-0.7-0.8c0-0.1,0-0.3,0.1-0.4c0.1-0.3,0.4-0.5,0.7-0.5c0.3,0,0.9,0,0.9,0v0.3c0,0-0.6,0-0.8,0
				c-0.2,0-0.3,0.1-0.4,0.3C26,35.5,26.3,35.5,26.7,35.5z"/>
			<path fill="#FFFFFF" d="M22.4,36.1c0,0,0-0.9,0-1.3c0.2,0,0.3,0,0.5,0c0,0.5,0,1.6,0,1.6l-1.2,0c-0.2,0-0.3-0.1-0.4-0.2
				c-0.1-0.1-0.1-0.2-0.1-0.4c0-0.3,0-1.1,0-1.1h0.5l0,1c0,0.2,0.1,0.2,0.2,0.3H22.4z"/>
			<path fill="#FFFFFF" d="M23.6,35.9c0,0.2,0,0.4,0,0.5c-0.2,0-0.3,0-0.5,0c0-0.5,0-1.6,0-1.6h1.2c0.2,0,0.4,0.2,0.5,0.4
				c0.1,0.4-0.2,0.7-0.5,0.7C24.1,35.9,23.9,35.9,23.6,35.9C23.7,35.9,23.6,35.9,23.6,35.9z M23.6,35.6h0.6c0,0,0.1,0,0.1,0
				c0.1,0,0.1-0.2,0.1-0.2c0-0.1-0.1-0.2-0.2-0.2h-0.6V35.6L23.6,35.6z"/>
			<path fill="#FFFFFF" d="M31.5,34.8v0.3h-0.8c-0.1,0-0.2,0.1-0.3,0.2c0,0,0,0.1,0,0.2c0.4,0,0.8,0,1.1,0c0,0.1,0,0.2,0,0.3
				c-0.4,0-0.8,0-1.2,0c0,0.2,0,0.4,0,0.6c-0.2,0-0.5,0-0.5,0s0-0.7,0-1c0-0.3,0.3-0.7,0.6-0.7L31.5,34.8L31.5,34.8z"/>
			<path fill="#FFFFFF" d="M38.7,36.1v0.3h-0.9c-0.4,0-0.6-0.2-0.7-0.6c-0.1-0.3,0-0.5,0.1-0.8c0.1-0.2,0.3-0.3,0.5-0.3h0.9v0.3
				h-0.8c-0.2,0-0.3,0.1-0.3,0.2c-0.1,0.2-0.1,0.4,0,0.5c0.1,0.2,0.2,0.2,0.3,0.2L38.7,36.1L38.7,36.1z"/>
			<rect x="36.3" y="34.8" fill="#FFFFFF" width="0.5" height="1.6"/>
		</g>
		<g>
			<path fill="#FFFFFF" d="M43.3,33H19.2V14.5h24.2V33z M19.7,32.5h23.2V15H19.7V32.5z"/>
		</g>
		<rect x="19.7" y="15" width="23.2" height="17.5"/>
		<g>
			<ellipse fill="#01954B" cx="25.5" cy="25.5" rx="4.5" ry="2"/>
			<ellipse fill="#F9EC2B" cx="33.5" cy="28.8" rx="4.5" ry="2"/>
			<path fill="#EB2D2F" d="M38.6,27.5c-0.5-2.2-2.5-4.7-5-3.6c2.1-4.7,5.9-4,7.3-2.4C41.9,22.7,41.8,27,38.6,27.5z"/>
			<path fill="#323B98" d="M30.7,23.9c-0.5-2.2-2.5-4.7-5-3.6c2.1-4.7,5.9-4,7.3-2.4C34,19.1,33.9,23.4,30.7,23.9z"/>
		</g>
	</g>
</g>
</svg>
