<?xml version="1.0" encoding="utf-8"?>
<!-- Generator: Adobe Illustrator 19.0.0, SVG Export Plug-In . SVG Version: 6.00 Build 0)  -->
<svg version="1.1" baseProfile="tiny" id="Ebene_1" xmlns="http://www.w3.org/2000/svg" xmlns:xlink="http://www.w3.org/1999/xlink"
	 x="0px" y="0px" viewBox="-22.8 345 566.9 105" xml:space="preserve">
<g>
	<path fill="#030303" d="M385,406.5h-7.9v-26.6c0,0,19.7,0,29,0c5,0,8.9,3.6,9.1,8.6v18.1h-7.4c0,0,0-11.5,0-16.6
		c0-2.5-1.4-4.2-3.9-4.4c-1.3-0.1-2.7,0-4.1,0c0,7,0,21,0,21h-7.8c0,0,0-14,0-21.1c-2.3,0-4.6,0-6.9,0
		C385,392.4,385,406.5,385,406.5z"/>
	<path fill="#030303" d="M504.7,406.5h-7.9v-26.6c0,0,19.7,0,29,0c5,0,8.9,3.6,9.1,8.6v18.1h-7.4c0,0,0-11.5,0-16.6
		c0-2.5-1.4-4.2-3.9-4.4c-1.3-0.1-2.7,0-4.1,0c0,7,0,21,0,21h-7.8c0,0,0-14,0-21.1c-2.3,0-4.6,0-6.9,0
		C504.7,392.4,504.7,406.5,504.7,406.5z"/>
	<path fill="#030303" d="M289.7,396.4c2.5,3.3,5.1,6.8,7.7,10.2c-3,0-8.8,0-8.8,0l-6.8-9.9h-7.5c0,0,0,6.6,0,9.9c-2.6,0-5.2,0-7.8,0
		c0-8.8,0-17.8,0-26.6c0.4,0,0.8,0,1.1,0c6.8,0,13.6,0,20.3,0c5.5,0,9.5,5,8.4,10.4c-0.6,3-2.5,4.8-5.3,5.7
		C290.6,396.1,290.2,396.2,289.7,396.4z M274.3,391.9c3.4,0,10.2,0,10.2,0c0.5,0,1.1-0.2,1.6-0.5c1.1-0.5,1.9-1.2,1.9-2.6
		c0-1.4-0.5-2.5-1.9-3.1c-0.8-0.3-1.6-0.5-2.4-0.5h-9.4C274.3,385.3,274.3,389.7,274.3,391.9z"/>
	<path fill="#030303" d="M372.7,406.5h-19.8c-1.5,0-3-0.3-4.4-0.7c-3.6-1.1-5.6-4-5.3-7.7c0.2-3.8,2.6-6.7,6.2-7.5
		c0.8-0.2,1.7-0.3,2.6-0.3h12.6c0.3,0-0.3,0,0,0c0-2.9-2.4-5.3-5.5-5.3h-13.8v-5.1h16.1c6.2,0,11,4.6,11.2,10.8V406.5L372.7,406.5
		L372.7,406.5z M364.9,395.3c-3.3,0-6.5,0-9.7,0c-2,0-3.4,1.2-3.5,3.1c0,1.8,1.3,3,3.4,3h9.8C364.9,401.3,364.9,397.4,364.9,395.3z"
		/>
	<path fill="#030303" d="M139.6,406.5v-5.2l17.4,0c1.6,0,2.6-0.8,2.9-2.4c0.3-1.2-0.5-2.4-1.9-2.9c-0.6-0.2-1.3-0.4-2-0.4h-10.7
		c-4.4-0.1-6.9-2.7-7.3-7.3c-0.3-3.6,2.4-7.7,6-8.4c0,0,15.5,0,22.9,0c0,1.6,0,3.7,0,5.4c-0.4,0-0.7,0-1.1,0c-5.1,0-10.2,0-15.3,0
		c-0.5,0-1,0-1.4,0.1c-1.2,0.2-2.1,1-2.3,2.1c-0.2,1.1,0.3,2.2,1.2,2.9c0.3,0.2,0.8,0.3,1.2,0.3h11.6c2.9,0.1,5.6,0.8,7,3.6
		c2.5,4.9,0.6,12-6.9,12.1L139.6,406.5L139.6,406.5z"/>
	<path fill="#030303" d="M476.7,379.3c3,0.1,5.9,0.4,8.6,1.7c3.8,1.7,6.6,4.5,7.4,8.6c1,5.2,0.1,10.1-4.1,13.8
		c-2.4,2.1-5.4,3-8.4,3.6c-4.8,0.8-9.3,0-13.6-2.1c-4-2-5.7-5.6-6.2-9.8c-0.2-2.1-0.2-4.3,0.5-6.4c1.6-4.9,5.3-7.4,10-8.5
		C472.8,379.6,473.9,379.3,476.7,379.3z M485.4,393.2c0-0.5,0-1-0.1-1.5c-0.2-3.6-2.4-6.4-5.7-7.3c-2-0.5-3.9-0.5-5.9,0
		c-2.8,0.6-4.7,2.3-5.5,5.1c-0.6,2.2-0.6,4.5-0.3,6.7c0.4,2.6,2,4.4,4.5,5.1c1.5,0.4,3.1,0.6,4.7,0.5
		C482.6,401.7,485.5,398.5,485.4,393.2z"/>
	<path fill="#030303" d="M262.3,390.6c0,1.7,0,3.4,0,5.1c-6.2,0-12.3,0-18.5,0c0,3.2,2.3,5.5,5.4,5.5c4,0,13,0,13,0v5.4h-14.9
		c-7.4-0.3-11.9-5.6-11.7-12.5c0.1-2.3,0.2-4.5,1.1-6.6c1.8-4.6,6-7.5,11-7.5c4.5,0,14.7,0,14.7,0v5.4c0,0-10.1,0-12.5,0
		c-3,0-5.4,2.2-5.8,5.3C250.1,390.6,256.1,390.6,262.3,390.6z"/>
	<path fill="#030303" d="M192,401.1c0,0,0-14.2,0-21.2c2.6,0,5,0,7.6,0c0,8.7,0,26.6,0,26.6l-20,0c-2.5,0-4.5-0.9-6-2.8
		c-1.5-1.8-2.4-3.7-2.3-6.2c0.1-5.3,0-17.6,0-17.6h7.6l0,17c-0.1,2.5,1.3,4,3.6,4.2C182.6,401.1,192,401.1,192,401.1z"/>
	<path fill="#030303" d="M211.6,397.5c0,3.1,0,6,0,9c-2.5,0-4.9,0-7.4,0c0-8.7,0-26.6,0-26.6h20.2c3.6-0.1,7.2,2.6,8.2,6.5
		c1.6,5.8-2.5,11.1-8.5,11.1c-3.8,0-7.6,0-11.5,0C212.3,397.5,212,397.5,211.6,397.5z M211.8,392.3h10.2c0.4,0,0.9-0.3,1.2-0.5
		c1.1-0.8,1.9-2.8,1.5-3.9c-0.6-1.8-1.7-2.6-3.5-2.6h-9.5V392.3L211.8,392.3z"/>
	<path fill="#030303" d="M341.1,379.9v5.1h-13c-2.2,0.1-4.1,1.1-5.4,2.9c-0.4,0.6-0.7,1.4-0.8,2.5c6.4,0,12.6,0,18.8,0
		c0,1.9,0,3.7,0,5.6c-6.3,0-12.5,0-18.9,0c0,3.4,0,7,0,10.5c-2.6,0-7.7,0-7.7,0s0-10.9,0-15.7c0-5.7,4.3-10.7,10-10.9L341.1,379.9
		L341.1,379.9z"/>
	<path fill="#030303" d="M458,401.3v5.2h-14c-5.8,0-10.2-3.4-11.7-9.1c-1.1-4.4-0.6-8.9,1.9-12.7c2.1-3.2,5.1-4.8,9-4.8h15v5.3
		h-12.7c-2.5,0-4.1,1.2-4.9,3.5c-1,2.7-1.1,5.8-0.2,8.6c0.8,2.6,2.8,4,5.6,4L458,401.3L458,401.3z"/>
	<path fill="#030303" d="M289.4,430.8c0-1.6,0-3.2,0-4.8c6.2,0,12.3,0,18.5,0c0-2.7,0-5.3,0-7.9c-6.1,0-12.1,0-18.2,0
		c0-1.6,0-3.1,0-4.6c7.4,0,14.7,0,22.2,0c0,5.8,0,11.5,0,17.4C304.4,430.8,296.9,430.8,289.4,430.8z"/>
	<path fill="#030303" d="M138.6,417.9c0-1.7,0-3.1,0-4.7c6.2,0,12.3,0,18.5,0c0.5,3.4,0.2,6.6-0.9,9.8c-0.1,0.3-0.3,0.8-0.3,0.8
		s3.4,4.8,5,7c-1.8,0-5.2,0-5.2,0s-1.8-2.4-2.5-3.4c-0.4,0.3-0.7,0.5-1,0.8c-2.2,1.7-4.5,2.7-7.4,2.6c0,0-4.6,0-6.9,0v-4.8
		c0,0,3.2,0,4.9,0c2.1,0,4.1-0.2,6-0.9c3-1.2,4.8-3.9,4.6-7.2C148.6,417.9,143.6,417.9,138.6,417.9z"/>
	<rect x="419.9" y="379.9" fill="#030303" width="8.2" height="26.6"/>
	<path fill="#030303" d="M223.2,430.8V426h9.6c3.9,0.2,6.9-2.3,6.8-7.1c0-0.3,0-0.6-0.1-1c-5.8,0-11.6,0-17.5,0c0-1.5,0-3,0-4.5
		c7,0,21.1,0,21.1,0v8.6c0,0.8-0.3,1.7-0.6,2.4c-1.4,3.8-4.3,6.1-8.3,6.4L223.2,430.8L223.2,430.8z"/>
	<path fill="#030303" d="M244.9,421.5c0-1.4,0-2.8,0-4.1c6.2,0,18.6,0,18.6,0v6.1c0,2.4-1.7,3.5-8.6,3.5c0,0-0.1,1.1-0.3,1.4
		c-0.7,1.8-2.1,2.5-4.2,2.5H246c0-1.4,0-2.8,0-4.2c1.5,0,3,0,4.4,0s1.9-0.3,2.1-1.8c0.1-0.4,0.1-0.9,0.2-1.4c1.9,0,3.8,0,5.7,0
		c1.3,0,1.7-0.4,1.7-1.9C255.1,421.5,250,421.5,244.9,421.5z"/>
	<path fill="#030303" d="M336.4,413.6v9.8c-0.8,5.5-5.7,7.5-9.3,7.4h-12.8V426h13.1c2.7,0.1,5.4-2.4,5.4-5.5c0-2,0-4,0-5.9
		c0-0.3,0-0.6,0-0.9C334.1,413.6,335.3,413.6,336.4,413.6z"/>
	<path fill="#030303" d="M188.3,413.2c1.4,0,2.6,0,4,0c0,1.9,0,3.8,0,5.7c0,0.4,0,0.8,0,1.1c-0.3,4.5,2.9,5.8,5.8,5.8
		c0.4,0,0.8,0,1.2,0c0,1.6,0,3.2,0,4.8c-6.5,0.4-10.8-2.5-11-8.9c-0.1-2.5,0-5,0-7.5C188.3,413.9,188.3,413.6,188.3,413.2z"/>
	<polygon fill="#030303" points="287.3,425.3 265.5,422.5 265.5,418.3 287.3,420.9 	"/>
	<polygon fill="#030303" points="287.3,419.5 265.5,416.8 265.5,412.6 287.3,415.2 	"/>
	<path fill="#030303" d="M287.3,426.8c0,1.5,0,2.9,0,4.4c-7.3-0.9-14.6-1.8-21.9-2.8c0-1.3,0-2.8,0-4.3
		C272.7,424.9,280,426,287.3,426.8z"/>
	<path fill="#030303" d="M175.5,430.6c0-1.7,0-3.2,0-4.8c1-0.1,1.9-0.1,2.8-0.2c2.7-0.4,4.2-2.3,4.2-5c0-2.4,0-4.8,0-7.3
		c1.3,0,2.6,0,4.1,0c0,2,0,3.9,0,5.9c0,1.3,0,2.7-0.2,3.9c-0.9,4.5-3.7,6.8-8.4,7.2C177.2,430.6,176.4,430.6,175.5,430.6z"/>
	<path fill="#030303" d="M175.9,419.8c0,1.5,0,3,0,4.4c-5.6,0-11.1,0-16.7,0c0-1.5,0-2.9,0-4.4C164.7,419.8,170.2,419.8,175.9,419.8
		z"/>
	<path fill="#030303" d="M199.5,419.6c5.6,0,11.2,0,16.7,0c0,1.5,0,2.9,0,4.4c-5.6,0-11.1,0-16.7,0
		C199.5,422.5,199.5,421.1,199.5,419.6z"/>
	<path fill="#030303" d="M327.5,413.4c0,1.5,0,3.1,0,4.6c-4.4,0-8.8,0-13.2,0c0-1.4,0-3.1,0-4.6C318.7,413.4,323,413.4,327.5,413.4z
		"/>
	<path fill="#030303" d="M199.7,416.2c0,1.8-1.5,3.2-3.2,3.2c-1.7,0-3.2-1.4-3.2-3.2c0-1.8,1.4-3.3,3.2-3.3
		C198.3,413,199.7,414.4,199.7,416.2z M197.7,416.2c0-0.7-0.7-1.4-1.4-1.4c-0.7,0-1.4,0.7-1.3,1.5c0.1,0.8,0.6,1.3,1.4,1.3
		C197.3,417.5,197.7,416.9,197.7,416.2z"/>
	<g>
		<path d="M339.8,416.5v-4.2h1.9c0.4,0,0.7,0,0.9,0.1c0.2,0.1,0.4,0.2,0.5,0.4c0.1,0.2,0.2,0.4,0.2,0.6c0,0.3-0.1,0.6-0.3,0.8
			c-0.2,0.2-0.5,0.3-0.9,0.4c0.1,0.1,0.3,0.1,0.3,0.2c0.2,0.1,0.3,0.3,0.5,0.6l0.7,1.2h-0.7l-0.6-0.9c-0.2-0.3-0.3-0.4-0.4-0.6
			c-0.1-0.1-0.2-0.2-0.3-0.3c-0.1-0.1-0.2-0.1-0.3-0.1c-0.1,0-0.2,0-0.3,0h-0.6v1.9H339.8L339.8,416.5z M340.4,414.1h1.2
			c0.3,0,0.5,0,0.6-0.1c0.1-0.1,0.3-0.1,0.3-0.3c0.1-0.1,0.1-0.2,0.1-0.4c0-0.2-0.1-0.4-0.2-0.5c-0.1-0.1-0.4-0.2-0.7-0.2h-1.3
			L340.4,414.1L340.4,414.1z"/>
	</g>
	<g>
		<path d="M341.5,418.3c-2.2,0-3.9-1.8-3.9-3.9c0-2.2,1.8-3.9,3.9-3.9c2.2,0,3.9,1.8,3.9,3.9C345.4,416.6,343.7,418.3,341.5,418.3z
			 M341.5,411.2c-1.8,0-3.2,1.4-3.2,3.2s1.4,3.2,3.2,3.2c1.8,0,3.2-1.4,3.2-3.2S343.3,411.2,341.5,411.2z"/>
	</g>
	<g>
		<g>
			<path d="M538.6,382v-4.2h1.9c0.4,0,0.7,0,0.9,0.1c0.2,0.1,0.4,0.2,0.5,0.4c0.1,0.2,0.2,0.4,0.2,0.6c0,0.3-0.1,0.6-0.3,0.8
				c-0.2,0.2-0.5,0.3-0.9,0.4c0.1,0.1,0.3,0.1,0.3,0.2c0.2,0.1,0.3,0.3,0.5,0.6l0.7,1.2h-0.7l-0.6-0.9c-0.2-0.3-0.3-0.4-0.4-0.6
				c-0.1-0.1-0.2-0.2-0.3-0.3c-0.1-0.1-0.2-0.1-0.3-0.1c-0.1,0-0.2,0-0.3,0h-0.6v1.9L538.6,382L538.6,382L538.6,382z M539.1,379.6
				h1.2c0.3,0,0.5,0,0.6-0.1c0.1-0.1,0.3-0.1,0.3-0.3c0.1-0.1,0.1-0.2,0.1-0.4c0-0.2-0.1-0.4-0.2-0.5c-0.1-0.1-0.4-0.2-0.7-0.2h-1.3
				L539.1,379.6L539.1,379.6z"/>
		</g>
		<g>
			<path d="M540.2,383.8c-2.2,0-3.9-1.8-3.9-3.9s1.8-3.9,3.9-3.9c2.2,0,3.9,1.8,3.9,3.9S542.4,383.8,540.2,383.8z M540.2,376.7
				c-1.8,0-3.2,1.4-3.2,3.2s1.4,3.2,3.2,3.2s3.2-1.4,3.2-3.2S542,376.7,540.2,376.7z"/>
		</g>
	</g>
	<g>
		<path id="path2842" fill="#01954B" d="M40.8,409c0,8.8-14.2,15.9-31.8,15.9c-17.6,0-31.8-7.1-31.8-15.9c0,0,0,0,0,0
			c0-8.8,14.2-15.9,31.8-15.9C26.6,393.1,40.8,400.2,40.8,409C40.8,409,40.8,409,40.8,409z"/>
		<path id="path3624" fill="#F9EC2B" d="M95.6,434.1c0,8.8-14.2,15.9-31.8,15.9c-17.6,0-31.8-7.1-31.8-15.9c0,0,0,0,0,0
			c0-8.8,14.2-15.9,31.8-15.9S95.6,425.3,95.6,434.1C95.6,434.1,95.6,434.1,95.6,434.1z"/>
		<path id="path3644" fill="#323B98" d="M42,345c-16,0-29.1,12.8-29.4,28.8c0.7,0,1.3-0.1,2-0.1c16.3,0,29.5,13.2,29.5,29.5
			c0,0.2,0,0.5,0,0.7c15.3-1,27.4-13.8,27.4-29.4C71.5,358.2,58.3,345,42,345L42,345z"/>
		<path id="path3897" fill="#EB2D2F" d="M97.8,370.8c-16.3,0-29.4,13.2-29.4,29.5c0,0.4,0,0.7,0,1.1c0.4,0,0.8,0,1.2,0
			c15.9,0,28.9,12.6,29.4,28.4c15.7-0.6,28.3-13.5,28.3-29.4C127.2,384,114,370.8,97.8,370.8L97.8,370.8z"/>
	</g>
</g>
</svg>
