<?xml version="1.0" encoding="UTF-8" standalone="no"?>
<svg
   xmlns:dc="http://purl.org/dc/elements/1.1/"
   xmlns:cc="http://creativecommons.org/ns#"
   xmlns:rdf="http://www.w3.org/1999/02/22-rdf-syntax-ns#"
   xmlns:svg="http://www.w3.org/2000/svg"
   xmlns="http://www.w3.org/2000/svg"
   viewBox="0 0 605.53497 391.14624"
   height="391.14624"
   width="605.53497"
   xml:space="preserve"
   version="1.1"
   id="svg2"><metadata
     id="metadata8"><rdf:RDF><cc:Work
         rdf:about=""><dc:format>image/svg+xml</dc:format><dc:type
           rdf:resource="http://purl.org/dc/dcmitype/StillImage" /><dc:title></dc:title></cc:Work></rdf:RDF></metadata><defs
     id="defs6"><clipPath
       id="clipPath22"
       clipPathUnits="userSpaceOnUse"><path
         id="path24"
         d="m 0,312.917 484.428,0 L 484.428,0 0,0 0,312.917 Z" /></clipPath></defs><g
     transform="matrix(1.25,0,0,-1.25,0,391.14625)"
     id="g10"><path
       id="path12"
       style="fill:#282828;fill-opacity:1;fill-rule:nonzero;stroke:none"
       d="m 462.346,195.417 -440.262,0 0,24.917 440.262,0 0,-24.917 z" /><g
       transform="translate(239.6534,310)"
       id="g14"><path
         id="path16"
         style="fill:#212324;fill-opacity:1;fill-rule:nonzero;stroke:none"
         d="m 0,0 210.643,0 6.892,-57.667 -217.535,0 -0.035,0 -217.535,0 L -210.677,0 -0.035,0" /></g><g
       id="g18"><g
         clip-path="url(#clipPath22)"
         id="g20"><g
           transform="translate(457.1667,0)"
           id="g26"><path
             id="path28"
             style="fill:#212324;fill-opacity:1;fill-rule:nonzero;stroke:none"
             d="m 0,0 -429.833,0 c -6.6,0 -12,5.4 -12,12 l 0,163.333 c 0,6.6 5.4,12 12,12 l 429.833,0 c 6.6,0 12,-5.4 12,-12 L 12,12 C 12,5.4 6.6,0 0,0" /></g><g
           transform="translate(260.0425,156.8333)"
           id="g30"><path
             id="path32"
             style="fill:#231f20;fill-opacity:1;fill-rule:nonzero;stroke:none"
             d="m 0,0 -58.08,0 c -0.963,0 -1.751,0.788 -1.751,1.752 l 0,9.496 c 0,0.964 0.788,1.752 1.751,1.752 L 0,13 c 0.963,0 1.752,-0.788 1.752,-1.752 l 0,-9.496 C 1.752,0.788 0.963,0 0,0" /></g><g
           transform="translate(355.7483,156.8333)"
           id="g34"><path
             id="path36"
             style="fill:#231f20;fill-opacity:1;fill-rule:nonzero;stroke:none"
             d="m 0,0 -88.888,0 c -0.964,0 -1.752,0.788 -1.752,1.752 l 0,9.496 c 0,0.964 0.788,1.752 1.752,1.752 L 0,13 c 0.963,0 1.752,-0.788 1.752,-1.752 l 0,-9.496 C 1.752,0.788 0.963,0 0,0" /></g><g
           transform="translate(195.631,156.8333)"
           id="g38"><path
             id="path40"
             style="fill:#231f20;fill-opacity:1;fill-rule:nonzero;stroke:none"
             d="m 0,0 -148.958,0 c -0.964,0 -1.752,0.788 -1.752,1.752 l 0,9.496 c 0,0.964 0.788,1.752 1.752,1.752 L 0,13 c 0.963,0 1.752,-0.788 1.752,-1.752 l 0,-9.496 C 1.752,0.788 0.963,0 0,0" /></g><g
           transform="translate(365.8605,145.3067)"
           id="g42"><path
             id="path44"
             style="fill:#231f20;fill-opacity:1;fill-rule:nonzero;stroke:none"
             d="m 0,0 c 0,0.891 -0.694,1.61 -1.56,1.61 l -322.855,0 c -0.866,0 -1.561,-0.717 -1.56,-1.61 l 0,-21.45 -3.725,0 c -0.865,0 -1.56,-0.717 -1.559,-1.609 l 0,-21.45 -0.608,0 c -0.866,0 -1.561,-0.717 -1.56,-1.61 l 0,-39.393 c 0,-0.89 0.695,-1.609 1.56,-1.609 l 47.245,0 0,-22.327 c 0,-0.893 0.695,-1.61 1.56,-1.609 l 281.491,0 0.011,0 c 0.865,0 1.56,0.718 1.56,1.609 L 0,-109.463 0,0 Z" /></g><g
           transform="translate(452.011,89.3479)"
           id="g46"><path
             id="path48"
             style="fill:#231f20;fill-opacity:1;fill-rule:nonzero;stroke:none"
             d="m 0,0 -81.932,0 c -1.294,0 -2.353,1.059 -2.353,2.353 l 0,81.932 c 0,1.294 1.059,2.353 2.353,2.353 l 81.932,0 c 1.294,0 2.353,-1.059 2.353,-2.353 l 0,-81.932 C 2.353,1.059 1.294,0 0,0" /></g><g
           transform="translate(360.294,148.3333)"
           id="g50"><path
             id="path52"
             style="fill:none;stroke:#5d5d5d;stroke-width:1;stroke-linecap:butt;stroke-linejoin:miter;stroke-miterlimit:10;stroke-dasharray:none;stroke-opacity:1"
             d="m 0,0 -322.294,0 c -1.833,0 -3.333,1.5 -3.333,3.333 l 0,23.334 c 0,1.833 1.5,3.333 3.333,3.333 L 0,30 c 1.833,0 3.333,-1.5 3.333,-3.333 l 0,-23.334 C 3.333,1.5 1.833,0 0,0 Z" /></g><g
           transform="translate(72.7401,122.5007)"
           id="g54"><path
             id="path56"
             style="fill:#5d5d5d;fill-opacity:1;fill-rule:nonzero;stroke:none"
             d="m 0,0 15.525,0 c 0.849,0 1.529,-0.683 1.529,-1.53 l 0,-15.525 c 0,-0.847 -0.681,-1.529 -1.529,-1.529 l -15.525,0 c -0.847,0 -1.529,0.683 -1.529,1.529 l 0,15.525 C -1.53,-0.681 -0.848,0 0,0" /></g><g
           transform="translate(94.2401,122.5007)"
           id="g58"><path
             id="path60"
             style="fill:#5d5d5d;fill-opacity:1;fill-rule:nonzero;stroke:none"
             d="m 0,0 15.525,0 c 0.849,0 1.529,-0.683 1.529,-1.53 l 0,-15.525 c 0,-0.847 -0.681,-1.529 -1.529,-1.529 l -15.525,0 c -0.847,0 -1.529,0.683 -1.529,1.529 l 0,15.525 C -1.53,-0.681 -0.848,0 0,0" /></g><g
           transform="translate(115.7401,122.5007)"
           id="g62"><path
             id="path64"
             style="fill:#5d5d5d;fill-opacity:1;fill-rule:nonzero;stroke:none"
             d="m 0,0 15.525,0 c 0.849,0 1.529,-0.683 1.529,-1.53 l 0,-15.525 c 0,-0.847 -0.681,-1.529 -1.529,-1.529 l -15.525,0 c -0.847,0 -1.529,0.683 -1.529,1.529 l 0,15.525 C -1.53,-0.681 -0.848,0 0,0" /></g><g
           transform="translate(137.2401,122.5007)"
           id="g66"><path
             id="path68"
             style="fill:#5d5d5d;fill-opacity:1;fill-rule:nonzero;stroke:none"
             d="m 0,0 15.525,0 c 0.849,0 1.529,-0.683 1.529,-1.53 l 0,-15.525 c 0,-0.847 -0.681,-1.529 -1.529,-1.529 l -15.525,0 c -0.847,0 -1.529,0.683 -1.529,1.529 l 0,15.525 C -1.53,-0.681 -0.848,0 0,0" /></g><g
           transform="translate(158.7401,122.5007)"
           id="g70"><path
             id="path72"
             style="fill:#5d5d5d;fill-opacity:1;fill-rule:nonzero;stroke:none"
             d="m 0,0 15.525,0 c 0.849,0 1.529,-0.683 1.529,-1.53 l 0,-15.525 c 0,-0.847 -0.681,-1.529 -1.529,-1.529 l -15.525,0 c -0.847,0 -1.529,0.683 -1.529,1.529 l 0,15.525 C -1.53,-0.681 -0.848,0 0,0" /></g><g
           transform="translate(180.2401,122.5007)"
           id="g74"><path
             id="path76"
             style="fill:#5d5d5d;fill-opacity:1;fill-rule:nonzero;stroke:none"
             d="m 0,0 15.525,0 c 0.849,0 1.529,-0.683 1.529,-1.53 l 0,-15.525 c 0,-0.847 -0.681,-1.529 -1.529,-1.529 l -15.525,0 c -0.847,0 -1.529,0.683 -1.529,1.529 l 0,15.525 C -1.53,-0.681 -0.848,0 0,0" /></g><g
           transform="translate(201.7401,122.5007)"
           id="g78"><path
             id="path80"
             style="fill:#5d5d5d;fill-opacity:1;fill-rule:nonzero;stroke:none"
             d="m 0,0 15.525,0 c 0.849,0 1.529,-0.683 1.529,-1.53 l 0,-15.525 c 0,-0.847 -0.681,-1.529 -1.529,-1.529 l -15.525,0 c -0.847,0 -1.529,0.683 -1.529,1.529 l 0,15.525 C -1.53,-0.681 -0.848,0 0,0" /></g><g
           transform="translate(223.2401,122.5007)"
           id="g82"><path
             id="path84"
             style="fill:#5d5d5d;fill-opacity:1;fill-rule:nonzero;stroke:none"
             d="m 0,0 15.525,0 c 0.849,0 1.529,-0.683 1.529,-1.53 l 0,-15.525 c 0,-0.847 -0.681,-1.529 -1.529,-1.529 l -15.525,0 c -0.847,0 -1.529,0.683 -1.529,1.529 l 0,15.525 C -1.53,-0.681 -0.848,0 0,0" /></g><g
           transform="translate(244.7401,122.5007)"
           id="g86"><path
             id="path88"
             style="fill:#5d5d5d;fill-opacity:1;fill-rule:nonzero;stroke:none"
             d="m 0,0 15.525,0 c 0.849,0 1.529,-0.683 1.529,-1.53 l 0,-15.525 c 0,-0.847 -0.681,-1.529 -1.529,-1.529 l -15.525,0 c -0.847,0 -1.529,0.683 -1.529,1.529 l 0,15.525 C -1.53,-0.681 -0.848,0 0,0" /></g><g
           transform="translate(266.2401,122.5007)"
           id="g90"><path
             id="path92"
             style="fill:#5d5d5d;fill-opacity:1;fill-rule:nonzero;stroke:none"
             d="m 0,0 15.525,0 c 0.849,0 1.529,-0.683 1.529,-1.53 l 0,-15.525 c 0,-0.847 -0.681,-1.529 -1.529,-1.529 l -15.525,0 c -0.847,0 -1.529,0.683 -1.529,1.529 l 0,15.525 C -1.53,-0.681 -0.848,0 0,0" /></g><g
           transform="translate(287.7401,122.5007)"
           id="g94"><path
             id="path96"
             style="fill:#5d5d5d;fill-opacity:1;fill-rule:nonzero;stroke:none"
             d="m 0,0 15.525,0 c 0.849,0 1.529,-0.683 1.529,-1.53 l 0,-15.525 c 0,-0.847 -0.681,-1.529 -1.529,-1.529 l -15.525,0 c -0.847,0 -1.529,0.683 -1.529,1.529 l 0,15.525 C -1.53,-0.681 -0.848,0 0,0" /></g><g
           transform="translate(309.2401,122.5007)"
           id="g98"><path
             id="path100"
             style="fill:#5d5d5d;fill-opacity:1;fill-rule:nonzero;stroke:none"
             d="m 0,0 15.525,0 c 0.849,0 1.529,-0.683 1.529,-1.53 l 0,-15.525 c 0,-0.847 -0.681,-1.529 -1.529,-1.529 l -15.525,0 c -0.847,0 -1.529,0.683 -1.529,1.529 l 0,15.525 C -1.53,-0.681 -0.848,0 0,0" /></g><g
           transform="translate(80.0734,100.584)"
           id="g102"><path
             id="path104"
             style="fill:#5d5d5d;fill-opacity:1;fill-rule:nonzero;stroke:none"
             d="m 0,0 15.525,0 c 0.849,0 1.529,-0.683 1.529,-1.53 l 0,-15.525 c 0,-0.847 -0.681,-1.529 -1.529,-1.529 l -15.525,0 c -0.847,0 -1.529,0.683 -1.529,1.529 l 0,15.525 C -1.53,-0.681 -0.848,0 0,0" /></g><g
           transform="translate(101.5734,100.584)"
           id="g106"><path
             id="path108"
             style="fill:#5d5d5d;fill-opacity:1;fill-rule:nonzero;stroke:none"
             d="m 0,0 15.525,0 c 0.849,0 1.529,-0.683 1.529,-1.53 l 0,-15.525 c 0,-0.847 -0.681,-1.529 -1.529,-1.529 l -15.525,0 c -0.847,0 -1.529,0.683 -1.529,1.529 l 0,15.525 C -1.53,-0.681 -0.848,0 0,0" /></g><g
           transform="translate(123.0734,100.584)"
           id="g110"><path
             id="path112"
             style="fill:#5d5d5d;fill-opacity:1;fill-rule:nonzero;stroke:none"
             d="m 0,0 15.525,0 c 0.849,0 1.529,-0.683 1.529,-1.53 l 0,-15.525 c 0,-0.847 -0.681,-1.529 -1.529,-1.529 l -15.525,0 c -0.847,0 -1.529,0.683 -1.529,1.529 l 0,15.525 C -1.53,-0.681 -0.848,0 0,0" /></g><g
           transform="translate(144.5734,100.584)"
           id="g114"><path
             id="path116"
             style="fill:#5d5d5d;fill-opacity:1;fill-rule:nonzero;stroke:none"
             d="m 0,0 15.525,0 c 0.849,0 1.529,-0.683 1.529,-1.53 l 0,-15.525 c 0,-0.847 -0.681,-1.529 -1.529,-1.529 l -15.525,0 c -0.847,0 -1.529,0.683 -1.529,1.529 l 0,15.525 C -1.53,-0.681 -0.848,0 0,0" /></g><g
           transform="translate(166.0734,100.584)"
           id="g118"><path
             id="path120"
             style="fill:#5d5d5d;fill-opacity:1;fill-rule:nonzero;stroke:none"
             d="m 0,0 15.525,0 c 0.849,0 1.529,-0.683 1.529,-1.53 l 0,-15.525 c 0,-0.847 -0.681,-1.529 -1.529,-1.529 l -15.525,0 c -0.847,0 -1.529,0.683 -1.529,1.529 l 0,15.525 C -1.53,-0.681 -0.848,0 0,0" /></g><g
           transform="translate(187.5734,100.584)"
           id="g122"><path
             id="path124"
             style="fill:#5d5d5d;fill-opacity:1;fill-rule:nonzero;stroke:none"
             d="m 0,0 15.525,0 c 0.849,0 1.529,-0.683 1.529,-1.53 l 0,-15.525 c 0,-0.847 -0.681,-1.529 -1.529,-1.529 l -15.525,0 c -0.847,0 -1.529,0.683 -1.529,1.529 l 0,15.525 C -1.53,-0.681 -0.848,0 0,0" /></g><g
           transform="translate(209.0734,100.584)"
           id="g126"><path
             id="path128"
             style="fill:#5d5d5d;fill-opacity:1;fill-rule:nonzero;stroke:none"
             d="m 0,0 15.525,0 c 0.849,0 1.529,-0.683 1.529,-1.53 l 0,-15.525 c 0,-0.847 -0.681,-1.529 -1.529,-1.529 l -15.525,0 c -0.847,0 -1.529,0.683 -1.529,1.529 l 0,15.525 C -1.53,-0.681 -0.848,0 0,0" /></g><g
           transform="translate(230.5734,100.584)"
           id="g130"><path
             id="path132"
             style="fill:#5d5d5d;fill-opacity:1;fill-rule:nonzero;stroke:none"
             d="m 0,0 15.525,0 c 0.849,0 1.529,-0.683 1.529,-1.53 l 0,-15.525 c 0,-0.847 -0.681,-1.529 -1.529,-1.529 l -15.525,0 c -0.847,0 -1.529,0.683 -1.529,1.529 l 0,15.525 C -1.53,-0.681 -0.848,0 0,0" /></g><g
           transform="translate(252.0734,100.584)"
           id="g134"><path
             id="path136"
             style="fill:#5d5d5d;fill-opacity:1;fill-rule:nonzero;stroke:none"
             d="m 0,0 15.525,0 c 0.849,0 1.529,-0.683 1.529,-1.53 l 0,-15.525 c 0,-0.847 -0.681,-1.529 -1.529,-1.529 l -15.525,0 c -0.847,0 -1.529,0.683 -1.529,1.529 l 0,15.525 C -1.53,-0.681 -0.848,0 0,0" /></g><g
           transform="translate(273.5734,100.584)"
           id="g138"><path
             id="path140"
             style="fill:#5d5d5d;fill-opacity:1;fill-rule:nonzero;stroke:none"
             d="m 0,0 15.525,0 c 0.849,0 1.529,-0.683 1.529,-1.53 l 0,-15.525 c 0,-0.847 -0.681,-1.529 -1.529,-1.529 l -15.525,0 c -0.847,0 -1.529,0.683 -1.529,1.529 l 0,15.525 C -1.53,-0.681 -0.848,0 0,0" /></g><g
           transform="translate(295.0734,100.584)"
           id="g142"><path
             id="path144"
             style="fill:#5d5d5d;fill-opacity:1;fill-rule:nonzero;stroke:none"
             d="m 0,0 15.525,0 c 0.849,0 1.529,-0.683 1.529,-1.53 l 0,-15.525 c 0,-0.847 -0.681,-1.529 -1.529,-1.529 l -15.525,0 c -0.847,0 -1.529,0.683 -1.529,1.529 l 0,15.525 C -1.53,-0.681 -0.848,0 0,0" /></g><g
           transform="translate(316.5734,100.584)"
           id="g146"><path
             id="path148"
             style="fill:#5d5d5d;fill-opacity:1;fill-rule:nonzero;stroke:none"
             d="m 0,0 15.525,0 c 0.849,0 1.529,-0.683 1.529,-1.53 l 0,-15.525 c 0,-0.847 -0.681,-1.529 -1.529,-1.529 l -15.525,0 c -0.847,0 -1.529,0.683 -1.529,1.529 l 0,15.525 C -1.53,-0.681 -0.848,0 0,0" /></g><g
           transform="translate(87.1983,78.6673)"
           id="g150"><path
             id="path152"
             style="fill:#5d5d5d;fill-opacity:1;fill-rule:nonzero;stroke:none"
             d="m 0,0 15.525,0 c 0.849,0 1.529,-0.683 1.529,-1.53 l 0,-15.525 c 0,-0.847 -0.681,-1.529 -1.529,-1.529 l -15.525,0 c -0.847,0 -1.529,0.683 -1.529,1.529 l 0,15.525 C -1.53,-0.681 -0.848,0 0,0" /></g><g
           transform="translate(108.6983,78.6673)"
           id="g154"><path
             id="path156"
             style="fill:#5d5d5d;fill-opacity:1;fill-rule:nonzero;stroke:none"
             d="m 0,0 15.525,0 c 0.849,0 1.529,-0.683 1.529,-1.53 l 0,-15.525 c 0,-0.847 -0.681,-1.529 -1.529,-1.529 l -15.525,0 c -0.847,0 -1.529,0.683 -1.529,1.529 l 0,15.525 C -1.53,-0.681 -0.848,0 0,0" /></g><g
           transform="translate(130.1983,78.6673)"
           id="g158"><path
             id="path160"
             style="fill:#5d5d5d;fill-opacity:1;fill-rule:nonzero;stroke:none"
             d="m 0,0 15.525,0 c 0.849,0 1.529,-0.683 1.529,-1.53 l 0,-15.525 c 0,-0.847 -0.681,-1.529 -1.529,-1.529 l -15.525,0 c -0.847,0 -1.529,0.683 -1.529,1.529 l 0,15.525 C -1.53,-0.681 -0.848,0 0,0" /></g><g
           transform="translate(151.6983,78.6673)"
           id="g162"><path
             id="path164"
             style="fill:#5d5d5d;fill-opacity:1;fill-rule:nonzero;stroke:none"
             d="m 0,0 15.525,0 c 0.849,0 1.529,-0.683 1.529,-1.53 l 0,-15.525 c 0,-0.847 -0.681,-1.529 -1.529,-1.529 l -15.525,0 c -0.847,0 -1.529,0.683 -1.529,1.529 l 0,15.525 C -1.53,-0.681 -0.848,0 0,0" /></g><g
           transform="translate(173.1983,78.6673)"
           id="g166"><path
             id="path168"
             style="fill:#5d5d5d;fill-opacity:1;fill-rule:nonzero;stroke:none"
             d="m 0,0 15.525,0 c 0.849,0 1.529,-0.683 1.529,-1.53 l 0,-15.525 c 0,-0.847 -0.681,-1.529 -1.529,-1.529 l -15.525,0 c -0.847,0 -1.529,0.683 -1.529,1.529 l 0,15.525 C -1.53,-0.681 -0.848,0 0,0" /></g><g
           transform="translate(194.6983,78.6673)"
           id="g170"><path
             id="path172"
             style="fill:#5d5d5d;fill-opacity:1;fill-rule:nonzero;stroke:none"
             d="m 0,0 15.525,0 c 0.849,0 1.529,-0.683 1.529,-1.53 l 0,-15.525 c 0,-0.847 -0.681,-1.529 -1.529,-1.529 l -15.525,0 c -0.847,0 -1.529,0.683 -1.529,1.529 l 0,15.525 C -1.53,-0.681 -0.848,0 0,0" /></g><g
           transform="translate(216.1983,78.6673)"
           id="g174"><path
             id="path176"
             style="fill:#5d5d5d;fill-opacity:1;fill-rule:nonzero;stroke:none"
             d="m 0,0 15.525,0 c 0.849,0 1.529,-0.683 1.529,-1.53 l 0,-15.525 c 0,-0.847 -0.681,-1.529 -1.529,-1.529 l -15.525,0 c -0.847,0 -1.529,0.683 -1.529,1.529 l 0,15.525 C -1.53,-0.681 -0.848,0 0,0" /></g><g
           transform="translate(237.6983,78.6673)"
           id="g178"><path
             id="path180"
             style="fill:#5d5d5d;fill-opacity:1;fill-rule:nonzero;stroke:none"
             d="m 0,0 15.525,0 c 0.849,0 1.529,-0.683 1.529,-1.53 l 0,-15.525 c 0,-0.847 -0.681,-1.529 -1.529,-1.529 l -15.525,0 c -0.847,0 -1.529,0.683 -1.529,1.529 l 0,15.525 C -1.53,-0.681 -0.848,0 0,0" /></g><g
           transform="translate(259.1982,78.6673)"
           id="g182"><path
             id="path184"
             style="fill:#5d5d5d;fill-opacity:1;fill-rule:nonzero;stroke:none"
             d="m 0,0 15.525,0 c 0.849,0 1.529,-0.683 1.529,-1.53 l 0,-15.525 c 0,-0.847 -0.681,-1.529 -1.529,-1.529 l -15.525,0 c -0.847,0 -1.529,0.683 -1.529,1.529 l 0,15.525 C -1.53,-0.681 -0.848,0 0,0" /></g><g
           transform="translate(280.6982,78.6673)"
           id="g186"><path
             id="path188"
             style="fill:#5d5d5d;fill-opacity:1;fill-rule:nonzero;stroke:none"
             d="m 0,0 15.525,0 c 0.849,0 1.529,-0.683 1.529,-1.53 l 0,-15.525 c 0,-0.847 -0.681,-1.529 -1.529,-1.529 l -15.525,0 c -0.847,0 -1.529,0.683 -1.529,1.529 l 0,15.525 C -1.53,-0.681 -0.848,0 0,0" /></g><g
           transform="translate(302.1982,78.6673)"
           id="g190"><path
             id="path192"
             style="fill:#5d5d5d;fill-opacity:1;fill-rule:nonzero;stroke:none"
             d="m 0,0 15.525,0 c 0.849,0 1.529,-0.683 1.529,-1.53 l 0,-15.525 c 0,-0.847 -0.681,-1.529 -1.529,-1.529 l -15.525,0 c -0.847,0 -1.529,0.683 -1.529,1.529 l 0,15.525 C -1.53,-0.681 -0.848,0 0,0" /></g><g
           transform="translate(360.9787,78.6673)"
           id="g194"><path
             id="path196"
             style="fill:#5d5d5d;fill-opacity:1;fill-rule:nonzero;stroke:none"
             d="m 0,0 c 0.822,0 1.482,-0.683 1.482,-1.53 l 0,-15.525 c 0,-0.847 -0.66,-1.529 -1.482,-1.529 l -33.967,0 c -0.821,0 -1.482,0.683 -1.482,1.529 l 0,15.525 C -35.45,-0.681 -34.789,0 -33.967,0 L 0,0 Z" /></g><g
           transform="translate(65.9068,144.4173)"
           id="g198"><path
             id="path200"
             style="fill:#5d5d5d;fill-opacity:1;fill-rule:nonzero;stroke:none"
             d="m 0,0 15.525,0 c 0.849,0 1.529,-0.683 1.529,-1.53 l 0,-15.525 c 0,-0.847 -0.681,-1.529 -1.529,-1.529 l -15.525,0 c -0.847,0 -1.529,0.683 -1.529,1.529 l 0,15.525 C -1.53,-0.681 -0.848,0 0,0" /></g><g
           transform="translate(87.4068,144.4173)"
           id="g202"><path
             id="path204"
             style="fill:#5d5d5d;fill-opacity:1;fill-rule:nonzero;stroke:none"
             d="m 0,0 15.525,0 c 0.849,0 1.529,-0.683 1.529,-1.53 l 0,-15.525 c 0,-0.847 -0.681,-1.529 -1.529,-1.529 l -15.525,0 c -0.847,0 -1.529,0.683 -1.529,1.529 l 0,15.525 C -1.53,-0.681 -0.848,0 0,0" /></g><g
           transform="translate(108.9068,144.4173)"
           id="g206"><path
             id="path208"
             style="fill:#5d5d5d;fill-opacity:1;fill-rule:nonzero;stroke:none"
             d="m 0,0 15.525,0 c 0.849,0 1.529,-0.683 1.529,-1.53 l 0,-15.525 c 0,-0.847 -0.681,-1.529 -1.529,-1.529 l -15.525,0 c -0.847,0 -1.529,0.683 -1.529,1.529 l 0,15.525 C -1.53,-0.681 -0.848,0 0,0" /></g><g
           transform="translate(130.4067,144.4173)"
           id="g210"><path
             id="path212"
             style="fill:#5d5d5d;fill-opacity:1;fill-rule:nonzero;stroke:none"
             d="m 0,0 15.525,0 c 0.849,0 1.529,-0.683 1.529,-1.53 l 0,-15.525 c 0,-0.847 -0.681,-1.529 -1.529,-1.529 l -15.525,0 c -0.847,0 -1.529,0.683 -1.529,1.529 l 0,15.525 C -1.53,-0.681 -0.848,0 0,0" /></g><g
           transform="translate(151.9067,144.4173)"
           id="g214"><path
             id="path216"
             style="fill:#5d5d5d;fill-opacity:1;fill-rule:nonzero;stroke:none"
             d="m 0,0 15.525,0 c 0.849,0 1.529,-0.683 1.529,-1.53 l 0,-15.525 c 0,-0.847 -0.681,-1.529 -1.529,-1.529 l -15.525,0 c -0.847,0 -1.529,0.683 -1.529,1.529 l 0,15.525 C -1.53,-0.681 -0.848,0 0,0" /></g><g
           transform="translate(173.4067,144.4173)"
           id="g218"><path
             id="path220"
             style="fill:#5d5d5d;fill-opacity:1;fill-rule:nonzero;stroke:none"
             d="m 0,0 15.525,0 c 0.849,0 1.529,-0.683 1.529,-1.53 l 0,-15.525 c 0,-0.847 -0.681,-1.529 -1.529,-1.529 l -15.525,0 c -0.847,0 -1.529,0.683 -1.529,1.529 l 0,15.525 C -1.53,-0.681 -0.848,0 0,0" /></g><g
           transform="translate(194.9067,144.4173)"
           id="g222"><path
             id="path224"
             style="fill:#5d5d5d;fill-opacity:1;fill-rule:nonzero;stroke:none"
             d="m 0,0 15.525,0 c 0.849,0 1.529,-0.683 1.529,-1.53 l 0,-15.525 c 0,-0.847 -0.681,-1.529 -1.529,-1.529 l -15.525,0 c -0.847,0 -1.529,0.683 -1.529,1.529 l 0,15.525 C -1.53,-0.681 -0.848,0 0,0" /></g><g
           transform="translate(216.4067,144.4173)"
           id="g226"><path
             id="path228"
             style="fill:#5d5d5d;fill-opacity:1;fill-rule:nonzero;stroke:none"
             d="m 0,0 15.525,0 c 0.849,0 1.529,-0.683 1.529,-1.53 l 0,-15.525 c 0,-0.847 -0.681,-1.529 -1.529,-1.529 l -15.525,0 c -0.847,0 -1.529,0.683 -1.529,1.529 l 0,15.525 C -1.53,-0.681 -0.848,0 0,0" /></g><g
           transform="translate(237.9067,144.4173)"
           id="g230"><path
             id="path232"
             style="fill:#5d5d5d;fill-opacity:1;fill-rule:nonzero;stroke:none"
             d="m 0,0 15.525,0 c 0.849,0 1.529,-0.683 1.529,-1.53 l 0,-15.525 c 0,-0.847 -0.681,-1.529 -1.529,-1.529 l -15.525,0 c -0.847,0 -1.529,0.683 -1.529,1.529 l 0,15.525 C -1.53,-0.681 -0.848,0 0,0" /></g><g
           transform="translate(259.4067,144.4173)"
           id="g234"><path
             id="path236"
             style="fill:#5d5d5d;fill-opacity:1;fill-rule:nonzero;stroke:none"
             d="m 0,0 15.525,0 c 0.849,0 1.529,-0.683 1.529,-1.53 l 0,-15.525 c 0,-0.847 -0.681,-1.529 -1.529,-1.529 l -15.525,0 c -0.847,0 -1.529,0.683 -1.529,1.529 l 0,15.525 C -1.53,-0.681 -0.848,0 0,0" /></g><g
           transform="translate(280.9067,144.4173)"
           id="g238"><path
             id="path240"
             style="fill:#5d5d5d;fill-opacity:1;fill-rule:nonzero;stroke:none"
             d="m 0,0 15.525,0 c 0.849,0 1.529,-0.683 1.529,-1.53 l 0,-15.525 c 0,-0.847 -0.681,-1.529 -1.529,-1.529 l -15.525,0 c -0.847,0 -1.529,0.683 -1.529,1.529 l 0,15.525 C -1.53,-0.681 -0.848,0 0,0" /></g><g
           transform="translate(302.4067,144.4173)"
           id="g242"><path
             id="path244"
             style="fill:#5d5d5d;fill-opacity:1;fill-rule:nonzero;stroke:none"
             d="m 0,0 15.525,0 c 0.849,0 1.529,-0.683 1.529,-1.53 l 0,-15.525 c 0,-0.847 -0.681,-1.529 -1.529,-1.529 l -15.525,0 c -0.847,0 -1.529,0.683 -1.529,1.529 l 0,15.525 C -1.53,-0.681 -0.848,0 0,0" /></g><g
           transform="translate(44.4068,144.4173)"
           id="g246"><path
             id="path248"
             style="fill:#5d5d5d;fill-opacity:1;fill-rule:nonzero;stroke:none"
             d="m 0,0 15.525,0 c 0.849,0 1.529,-0.683 1.529,-1.53 l 0,-15.525 c 0,-0.847 -0.681,-1.529 -1.529,-1.529 l -15.525,0 c -0.847,0 -1.529,0.683 -1.529,1.529 l 0,15.525 C -1.53,-0.681 -0.848,0 0,0" /></g><g
           transform="translate(323.9067,144.4173)"
           id="g250"><path
             id="path252"
             style="fill:#5d5d5d;fill-opacity:1;fill-rule:nonzero;stroke:none"
             d="m 0,0 15.525,0 c 0.849,0 1.529,-0.683 1.529,-1.53 l 0,-15.525 c 0,-0.847 -0.681,-1.529 -1.529,-1.529 l -15.525,0 c -0.847,0 -1.529,0.683 -1.529,1.529 l 0,15.525 C -1.53,-0.681 -0.848,0 0,0" /></g><g
           transform="translate(345.4067,144.4173)"
           id="g254"><path
             id="path256"
             style="fill:#5d5d5d;fill-opacity:1;fill-rule:nonzero;stroke:none"
             d="m 0,0 15.525,0 c 0.849,0 1.529,-0.683 1.529,-1.53 l 0,-15.525 c 0,-0.847 -0.681,-1.529 -1.529,-1.529 l -15.525,0 c -0.847,0 -1.529,0.683 -1.529,1.529 l 0,15.525 C -1.53,-0.681 -0.848,0 0,0" /></g><g
           transform="translate(74.02,100.584)"
           id="g258"><path
             id="path260"
             style="fill:#5d5d5d;fill-opacity:1;fill-rule:nonzero;stroke:none"
             d="m 0,0 c 0.892,0 1.608,-0.683 1.608,-1.53 l 0,-15.525 c 0,-0.847 -0.717,-1.529 -1.608,-1.529 l -36.841,0 c -0.891,0 -1.607,0.683 -1.607,1.529 l 0,15.525 C -38.449,-0.681 -37.733,0 -36.841,0 L 0,0 Z" /></g><g
           transform="translate(84.9486,55.9173)"
           id="g262"><path
             id="path264"
             style="fill:#5d5d5d;fill-opacity:1;fill-rule:nonzero;stroke:none"
             d="m 0,0 15.525,0 c 0.849,0 1.529,-0.683 1.529,-1.53 l 0,-15.525 c 0,-0.847 -0.681,-1.529 -1.529,-1.529 l -15.525,0 c -0.847,0 -1.529,0.683 -1.529,1.529 l 0,15.525 C -1.53,-0.681 -0.848,0 0,0" /></g><g
           transform="translate(106.4486,55.9173)"
           id="g266"><path
             id="path268"
             style="fill:#5d5d5d;fill-opacity:1;fill-rule:nonzero;stroke:none"
             d="m 0,0 15.525,0 c 0.849,0 1.529,-0.683 1.529,-1.53 l 0,-15.525 c 0,-0.847 -0.681,-1.529 -1.529,-1.529 l -15.525,0 c -0.847,0 -1.529,0.683 -1.529,1.529 l 0,15.525 C -1.53,-0.681 -0.848,0 0,0" /></g><g
           transform="translate(127.9486,55.9173)"
           id="g270"><path
             id="path272"
             style="fill:#5d5d5d;fill-opacity:1;fill-rule:nonzero;stroke:none"
             d="m 0,0 15.525,0 c 0.849,0 1.529,-0.683 1.529,-1.53 l 0,-15.525 c 0,-0.847 -0.681,-1.529 -1.529,-1.529 l -15.525,0 c -0.847,0 -1.529,0.683 -1.529,1.529 l 0,15.525 C -1.53,-0.681 -0.848,0 0,0" /></g><g
           transform="translate(303.2172,55.9173)"
           id="g274"><path
             id="path276"
             style="fill:#5d5d5d;fill-opacity:1;fill-rule:nonzero;stroke:none"
             d="m 0,0 c 0.875,0 1.577,-0.683 1.577,-1.53 l 0,-15.525 c 0,-0.847 -0.703,-1.529 -1.577,-1.529 l -36.14,0 c -0.874,0 -1.577,0.683 -1.577,1.529 l 0,15.525 C -37.718,-0.681 -37.015,0 -36.14,0 L 0,0 Z" /></g><g
           transform="translate(309.2401,55.9173)"
           id="g278"><path
             id="path280"
             style="fill:#5d5d5d;fill-opacity:1;fill-rule:nonzero;stroke:none"
             d="m 0,0 15.525,0 c 0.849,0 1.529,-0.683 1.529,-1.53 l 0,-15.525 c 0,-0.847 -0.681,-1.529 -1.529,-1.529 l -15.525,0 c -0.847,0 -1.529,0.683 -1.529,1.529 l 0,15.525 C -1.53,-0.681 -0.848,0 0,0" /></g><g
           transform="translate(80.5027,78.6673)"
           id="g282"><path
             id="path284"
             style="fill:#5d5d5d;fill-opacity:1;fill-rule:nonzero;stroke:none"
             d="m 0,0 c 0.848,0 1.529,-0.683 1.529,-1.53 l 0,-15.525 c 0,-0.847 -0.682,-1.529 -1.529,-1.529 l -43.402,0 c -0.848,0 -1.529,0.683 -1.529,1.529 l 0,15.525 C -44.932,-0.681 -44.25,0 -43.402,0 L 0,0 Z" /></g><g
           transform="translate(66.7083,103.9167)"
           id="g286"><path
             id="path288"
             style="fill:#5d5d5d;fill-opacity:1;fill-rule:nonzero;stroke:none"
             d="m 0,0 c 0.847,0 1.529,0.682 1.529,1.529 l 0,15.525 c 0,0.847 -0.681,1.53 -1.529,1.53 l -27.483,0 c -0.848,0 -1.53,-0.681 -1.529,-1.53 l 0,-15.525 C -29.012,0.683 -28.33,0 -27.483,0 L 0,0 Z" /></g><g
           transform="translate(361.1265,55.9173)"
           id="g290"><path
             id="path292"
             style="fill:#5d5d5d;fill-opacity:1;fill-rule:nonzero;stroke:none"
             d="m 0,0 c 0.74,0 1.334,-0.683 1.334,-1.53 l 0,-15.525 c 0,-0.847 -0.594,-1.529 -1.334,-1.529 l -30.581,0 c -0.74,0 -1.334,0.683 -1.334,1.529 l 0,15.525 C -31.916,-0.681 -31.321,0 -30.581,0 L 0,0 Z" /></g><g
           transform="translate(148.7813,56.084)"
           id="g294"><path
             id="path296"
             style="fill:#5d5d5d;fill-opacity:1;fill-rule:nonzero;stroke:none"
             d="m 0,0 112.248,0 c 0.849,0 1.529,-0.683 1.529,-1.53 l 0,-15.525 c 0,-0.847 -0.681,-1.529 -1.529,-1.529 l 0,-0.167 -112.248,0 c -0.847,0 -1.529,0.684 -1.529,1.529 l 0,15.525 c -0.001,0.849 0.681,1.53 1.529,1.53" /></g><g
           transform="translate(335.78,103.9167)"
           id="g298"><path
             id="path300"
             style="fill:#5d5d5d;fill-opacity:1;fill-rule:nonzero;stroke:none"
             d="m 0,0 -5.04,0 c -0.847,0 -1.529,0.683 -1.529,1.529 l 0,15.525 c -0.001,0.849 0.681,1.53 1.529,1.53 l 30.192,0 c 0.848,0 1.529,-0.683 1.529,-1.53 l 0,-37.442 c 0,-0.846 -0.682,-1.529 -1.529,-1.529 l -22.094,0 c -0.847,0 -1.529,0.682 -1.529,1.529 l 0,18.767 c 0,0.847 -0.683,1.529 -1.529,1.529" /></g><g
           transform="translate(370.9067,153.0003)"
           id="g302"><path
             id="path304"
             style="fill:#5d5d5d;fill-opacity:1;fill-rule:nonzero;stroke:none"
             d="m 0,0 15.525,0 c 0.849,0 1.529,-0.683 1.529,-1.53 l 0,-15.525 c 0,-0.847 -0.681,-1.529 -1.529,-1.529 l -15.525,0 c -0.847,0 -1.529,0.683 -1.529,1.529 l 0,15.525 C -1.53,-0.681 -0.848,0 0,0" /></g><g
           transform="translate(392.4067,153.0003)"
           id="g306"><path
             id="path308"
             style="fill:#5d5d5d;fill-opacity:1;fill-rule:nonzero;stroke:none"
             d="m 0,0 15.525,0 c 0.849,0 1.529,-0.683 1.529,-1.53 l 0,-15.525 c 0,-0.847 -0.681,-1.529 -1.529,-1.529 l -15.525,0 c -0.847,0 -1.529,0.683 -1.529,1.529 l 0,15.525 C -1.53,-0.681 -0.848,0 0,0" /></g><g
           transform="translate(413.9067,153.0003)"
           id="g310"><path
             id="path312"
             style="fill:#5d5d5d;fill-opacity:1;fill-rule:nonzero;stroke:none"
             d="m 0,0 15.525,0 c 0.849,0 1.529,-0.683 1.529,-1.53 l 0,-15.525 c 0,-0.847 -0.681,-1.529 -1.529,-1.529 l -15.525,0 c -0.847,0 -1.529,0.683 -1.529,1.529 l 0,15.525 C -1.53,-0.681 -0.848,0 0,0" /></g><g
           transform="translate(435.4067,153.0003)"
           id="g314"><path
             id="path316"
             style="fill:#5d5d5d;fill-opacity:1;fill-rule:nonzero;stroke:none"
             d="m 0,0 15.525,0 c 0.849,0 1.529,-0.683 1.529,-1.53 l 0,-15.525 c 0,-0.847 -0.681,-1.529 -1.529,-1.529 l -15.525,0 c -0.847,0 -1.529,0.683 -1.529,1.529 l 0,15.525 C -1.53,-0.681 -0.848,0 0,0" /></g><g
           transform="translate(370.9067,174.917)"
           id="g318"><path
             id="path320"
             style="fill:#5d5d5d;fill-opacity:1;fill-rule:nonzero;stroke:none"
             d="m 0,0 15.525,0 c 0.849,0 1.529,-0.683 1.529,-1.53 l 0,-15.525 c 0,-0.847 -0.681,-1.529 -1.529,-1.529 l -15.525,0 c -0.847,0 -1.529,0.683 -1.529,1.529 l 0,15.525 C -1.53,-0.681 -0.848,0 0,0" /></g><g
           transform="translate(392.4067,174.917)"
           id="g322"><path
             id="path324"
             style="fill:#5d5d5d;fill-opacity:1;fill-rule:nonzero;stroke:none"
             d="m 0,0 15.525,0 c 0.849,0 1.529,-0.683 1.529,-1.53 l 0,-15.525 c 0,-0.847 -0.681,-1.529 -1.529,-1.529 l -15.525,0 c -0.847,0 -1.529,0.683 -1.529,1.529 l 0,15.525 C -1.53,-0.681 -0.848,0 0,0" /></g><g
           transform="translate(413.9067,174.917)"
           id="g326"><path
             id="path328"
             style="fill:#5d5d5d;fill-opacity:1;fill-rule:nonzero;stroke:none"
             d="m 0,0 15.525,0 c 0.849,0 1.529,-0.683 1.529,-1.53 l 0,-15.525 c 0,-0.847 -0.681,-1.529 -1.529,-1.529 l -15.525,0 c -0.847,0 -1.529,0.683 -1.529,1.529 l 0,15.525 C -1.53,-0.681 -0.848,0 0,0" /></g><g
           transform="translate(435.4067,174.917)"
           id="g330"><path
             id="path332"
             style="fill:#5d5d5d;fill-opacity:1;fill-rule:nonzero;stroke:none"
             d="m 0,0 15.525,0 c 0.849,0 1.529,-0.683 1.529,-1.53 l 0,-15.525 c 0,-0.847 -0.681,-1.529 -1.529,-1.529 l -15.525,0 c -0.847,0 -1.529,0.683 -1.529,1.529 l 0,15.525 C -1.53,-0.681 -0.848,0 0,0" /></g><g
           transform="translate(370.9067,109.167)"
           id="g334"><path
             id="path336"
             style="fill:#5d5d5d;fill-opacity:1;fill-rule:nonzero;stroke:none"
             d="m 0,0 15.525,0 c 0.849,0 1.529,-0.683 1.529,-1.53 l 0,-15.525 c 0,-0.847 -0.681,-1.529 -1.529,-1.529 l -15.525,0 c -0.847,0 -1.529,0.683 -1.529,1.529 l 0,15.525 C -1.53,-0.681 -0.848,0 0,0" /></g><g
           transform="translate(392.4067,109.167)"
           id="g338"><path
             id="path340"
             style="fill:#5d5d5d;fill-opacity:1;fill-rule:nonzero;stroke:none"
             d="m 0,0 15.525,0 c 0.849,0 1.529,-0.683 1.529,-1.53 l 0,-15.525 c 0,-0.847 -0.681,-1.529 -1.529,-1.529 l -15.525,0 c -0.847,0 -1.529,0.683 -1.529,1.529 l 0,15.525 C -1.53,-0.681 -0.848,0 0,0" /></g><g
           transform="translate(413.9067,109.167)"
           id="g342"><path
             id="path344"
             style="fill:#5d5d5d;fill-opacity:1;fill-rule:nonzero;stroke:none"
             d="m 0,0 15.525,0 c 0.849,0 1.529,-0.683 1.529,-1.53 l 0,-15.525 c 0,-0.847 -0.681,-1.529 -1.529,-1.529 l -15.525,0 c -0.847,0 -1.529,0.683 -1.529,1.529 l 0,15.525 C -1.53,-0.681 -0.848,0 0,0" /></g><g
           transform="translate(435.4067,109.167)"
           id="g346"><path
             id="path348"
             style="fill:#5d5d5d;fill-opacity:1;fill-rule:nonzero;stroke:none"
             d="m 0,0 15.525,0 c 0.849,0 1.529,-0.683 1.529,-1.53 l 0,-15.525 c 0,-0.847 -0.681,-1.529 -1.529,-1.529 l -15.525,0 c -0.847,0 -1.529,0.683 -1.529,1.529 l 0,15.525 C -1.53,-0.681 -0.848,0 0,0" /></g><g
           transform="translate(370.9067,131.0836)"
           id="g350"><path
             id="path352"
             style="fill:#5d5d5d;fill-opacity:1;fill-rule:nonzero;stroke:none"
             d="m 0,0 15.525,0 c 0.849,0 1.529,-0.683 1.529,-1.53 l 0,-15.525 c 0,-0.847 -0.681,-1.529 -1.529,-1.529 l -15.525,0 c -0.847,0 -1.529,0.683 -1.529,1.529 l 0,15.525 C -1.53,-0.681 -0.848,0 0,0" /></g><g
           transform="translate(392.4067,131.0836)"
           id="g354"><path
             id="path356"
             style="fill:#5d5d5d;fill-opacity:1;fill-rule:nonzero;stroke:none"
             d="m 0,0 15.525,0 c 0.849,0 1.529,-0.683 1.529,-1.53 l 0,-15.525 c 0,-0.847 -0.681,-1.529 -1.529,-1.529 l -15.525,0 c -0.847,0 -1.529,0.683 -1.529,1.529 l 0,15.525 C -1.53,-0.681 -0.848,0 0,0" /></g><g
           transform="translate(413.9067,131.0836)"
           id="g358"><path
             id="path360"
             style="fill:#5d5d5d;fill-opacity:1;fill-rule:nonzero;stroke:none"
             d="m 0,0 15.525,0 c 0.849,0 1.529,-0.683 1.529,-1.53 l 0,-15.525 c 0,-0.847 -0.681,-1.529 -1.529,-1.529 l -15.525,0 c -0.847,0 -1.529,0.683 -1.529,1.529 l 0,15.525 C -1.53,-0.681 -0.848,0 0,0" /></g><g
           transform="translate(435.4067,131.0836)"
           id="g362"><path
             id="path364"
             style="fill:#5d5d5d;fill-opacity:1;fill-rule:nonzero;stroke:none"
             d="m 0,0 15.525,0 c 0.849,0 1.529,-0.683 1.529,-1.53 l 0,-15.525 c 0,-0.847 -0.681,-1.529 -1.529,-1.529 l -15.525,0 c -0.847,0 -1.529,0.683 -1.529,1.529 l 0,15.525 C -1.53,-0.681 -0.848,0 0,0" /></g><g
           transform="translate(48.6703,158.3049)"
           id="g366"><path
             id="path368"
             style="fill:#5d5d5d;fill-opacity:1;fill-rule:nonzero;stroke:none"
             d="m 0,0 c -0.847,0 -1.529,0.683 -1.529,1.529 l 0,6.998 c -0.001,0.848 0.681,1.53 1.529,1.53 l 24.303,0 c 0.849,0 1.529,-0.683 1.529,-1.53 l 0,-6.998 C 25.832,0.682 25.151,0 24.303,0 L 0,0 Z" /></g><g
           transform="translate(78.6285,158.3049)"
           id="g370"><path
             id="path372"
             style="fill:#5d5d5d;fill-opacity:1;fill-rule:nonzero;stroke:none"
             d="m 0,0 c -0.847,0 -1.529,0.683 -1.529,1.529 l 0,6.998 c -0.001,0.848 0.681,1.53 1.529,1.53 l 24.303,0 c 0.849,0 1.529,-0.683 1.529,-1.53 l 0,-6.998 C 25.832,0.682 25.151,0 24.303,0 L 0,0 Z" /></g><g
           transform="translate(108.5804,158.3049)"
           id="g374"><path
             id="path376"
             style="fill:#5d5d5d;fill-opacity:1;fill-rule:nonzero;stroke:none"
             d="m 0,0 c -0.847,0 -1.529,0.683 -1.529,1.529 l 0,6.998 c -0.001,0.848 0.681,1.53 1.529,1.53 l 24.303,0 c 0.849,0 1.529,-0.683 1.529,-1.53 l 0,-6.998 C 25.832,0.682 25.151,0 24.303,0 L 0,0 Z" /></g><g
           transform="translate(138.5385,158.3049)"
           id="g378"><path
             id="path380"
             style="fill:#5d5d5d;fill-opacity:1;fill-rule:nonzero;stroke:none"
             d="m 0,0 c -0.847,0 -1.529,0.683 -1.529,1.529 l 0,6.998 c -0.001,0.848 0.681,1.53 1.529,1.53 l 24.303,0 c 0.849,0 1.529,-0.683 1.529,-1.53 l 0,-6.998 C 25.832,0.682 25.151,0 24.303,0 L 0,0 Z" /></g><g
           transform="translate(169.33,158.3049)"
           id="g382"><path
             id="path384"
             style="fill:#5d5d5d;fill-opacity:1;fill-rule:nonzero;stroke:none"
             d="m 0,0 c -0.847,0 -1.529,0.683 -1.529,1.529 l 0,6.998 c -0.001,0.848 0.681,1.53 1.529,1.53 l 24.303,0 c 0.849,0 1.529,-0.683 1.529,-1.53 l 0,-6.998 C 25.832,0.682 25.151,0 24.303,0 L 0,0 Z" /></g><g
           transform="translate(203.4552,158.3049)"
           id="g386"><path
             id="path388"
             style="fill:#5d5d5d;fill-opacity:1;fill-rule:nonzero;stroke:none"
             d="m 0,0 c -0.847,0 -1.529,0.683 -1.529,1.529 l 0,6.998 c -0.001,0.848 0.681,1.53 1.529,1.53 l 24.303,0 c 0.849,0 1.529,-0.683 1.529,-1.53 l 0,-6.998 C 25.832,0.682 25.151,0 24.303,0 L 0,0 Z" /></g><g
           transform="translate(234.2467,158.3049)"
           id="g390"><path
             id="path392"
             style="fill:#5d5d5d;fill-opacity:1;fill-rule:nonzero;stroke:none"
             d="m 0,0 c -0.847,0 -1.529,0.683 -1.529,1.529 l 0,6.998 c -0.001,0.848 0.681,1.53 1.529,1.53 l 24.303,0 c 0.849,0 1.529,-0.683 1.529,-1.53 l 0,-6.998 C 25.832,0.682 25.151,0 24.303,0 L 0,0 Z" /></g><g
           transform="translate(268.3719,158.3049)"
           id="g394"><path
             id="path396"
             style="fill:#5d5d5d;fill-opacity:1;fill-rule:nonzero;stroke:none"
             d="m 0,0 c -0.847,0 -1.529,0.683 -1.529,1.529 l 0,6.998 c -0.001,0.848 0.681,1.53 1.529,1.53 l 24.303,0 c 0.849,0 1.529,-0.683 1.529,-1.53 l 0,-6.998 C 25.832,0.682 25.151,0 24.303,0 L 0,0 Z" /></g><g
           transform="translate(298.33,158.3049)"
           id="g398"><path
             id="path400"
             style="fill:#5d5d5d;fill-opacity:1;fill-rule:nonzero;stroke:none"
             d="m 0,0 c -0.847,0 -1.529,0.683 -1.529,1.529 l 0,6.998 c -0.001,0.848 0.681,1.53 1.529,1.53 l 24.303,0 c 0.849,0 1.529,-0.683 1.529,-1.53 l 0,-6.998 C 25.832,0.682 25.151,0 24.303,0 L 0,0 Z" /></g><g
           transform="translate(329.1216,158.3049)"
           id="g402"><path
             id="path404"
             style="fill:#5d5d5d;fill-opacity:1;fill-rule:nonzero;stroke:none"
             d="m 0,0 c -0.847,0 -1.529,0.683 -1.529,1.529 l 0,6.998 c -0.001,0.848 0.681,1.53 1.529,1.53 l 24.303,0 c 0.849,0 1.529,-0.683 1.529,-1.53 l 0,-6.998 C 25.832,0.682 25.151,0 24.303,0 L 0,0 Z" /></g><g
           transform="translate(234.2467,158.3049)"
           id="g406"><path
             id="path408"
             style="fill:#5d5d5d;fill-opacity:1;fill-rule:nonzero;stroke:none"
             d="m 0,0 c -0.847,0 -1.529,0.683 -1.529,1.529 l 0,6.998 c -0.001,0.848 0.681,1.53 1.529,1.53 l 24.303,0 c 0.849,0 1.529,-0.683 1.529,-1.53 l 0,-6.998 C 25.832,0.682 25.151,0 24.303,0 L 0,0 Z" /></g><g
           transform="translate(410.4235,45.5625)"
           id="g410"><path
             id="path412"
             style="fill:none;stroke:#ffffff;stroke-width:1;stroke-linecap:butt;stroke-linejoin:miter;stroke-miterlimit:10;stroke-dasharray:none;stroke-opacity:1"
             d="M 0,0 9.831,0" /></g><g
           transform="translate(452.011,36)"
           id="g414"><path
             id="path416"
             style="fill:#231f20;fill-opacity:1;fill-rule:nonzero;stroke:none"
             d="m 0,0 -80.28,0 c -1.294,0 -2.353,1.059 -2.353,2.353 l 0,25.586 c 0,1.294 1.059,2.353 2.353,2.353 l 80.28,0 c 1.294,0 2.353,-1.059 2.353,-2.353 l 0,-25.586 C 2.353,1.059 1.294,0 0,0" /></g><g
           transform="translate(424.7304,26.25)"
           id="g418"><path
             id="path420"
             style="fill:#231f20;fill-opacity:1;fill-rule:nonzero;stroke:none"
             d="m 0,0 -26.093,0 c -1.295,0 -2.353,1.059 -2.353,2.353 l 0,45.544 c 0,1.294 1.058,2.353 2.353,2.353 L 0,50.25 c 1.294,0 2.353,-1.059 2.353,-2.353 l 0,-45.544 C 2.353,1.059 1.294,0 0,0" /></g><g
           transform="translate(393.2596,37.1434)"
           id="g422"><path
             id="path424"
             style="fill:#5d5d5d;fill-opacity:1;fill-rule:nonzero;stroke:none"
             d="m 0,0 -21.343,0 c -0.752,0 -1.367,0.615 -1.367,1.367 l 0,25.25 c 0,0.753 0.615,1.368 1.367,1.368 l 21.343,0 c 0.752,0 1.367,-0.615 1.367,-1.368 l 0,-25.25 C 1.367,0.615 0.752,0 0,0" /></g><g
           transform="translate(382.3308,57.7926)"
           id="g426"><path
             id="path428"
             style="fill:none;stroke:#ffffff;stroke-width:1;stroke-linecap:butt;stroke-linejoin:miter;stroke-miterlimit:10;stroke-dasharray:none;stroke-opacity:1"
             d="M 0,0 -6.657,-6.657 0,-13.314" /></g><g
           transform="translate(406.8997,51.1358)"
           id="g430"><path
             id="path432"
             style="fill:#191919;fill-opacity:1;fill-rule:nonzero;stroke:none"
             d="m 0,0 -24.546,0 c 0,6.517 5.495,11.8 12.273,11.8 L 0,0 Z" /></g><g
           transform="translate(406.8997,51.1358)"
           id="g434"><path
             id="path436"
             style="fill:#282828;fill-opacity:1;fill-rule:nonzero;stroke:none"
             d="m 0,0 -24.546,0 c 0,-6.517 5.495,-11.8 12.273,-11.8 L 0,0 Z" /></g><g
           transform="translate(387.6793,51.1358)"
           id="g438"><path
             id="path440"
             style="fill:none;stroke:#ffffff;stroke-width:1;stroke-linecap:butt;stroke-linejoin:miter;stroke-miterlimit:10;stroke-dasharray:none;stroke-opacity:1"
             d="M 0,0 9.667,0" /></g><g
           transform="translate(430.224,37.1434)"
           id="g442"><path
             id="path444"
             style="fill:#5d5d5d;fill-opacity:1;fill-rule:nonzero;stroke:none"
             d="m 0,0 21.343,0 c 0.752,0 1.367,0.615 1.367,1.367 l 0,25.25 c 0,0.753 -0.615,1.368 -1.367,1.368 L 0,27.985 c -0.752,0 -1.367,-0.615 -1.367,-1.368 l 0,-25.25 C -1.367,0.615 -0.752,0 0,0" /></g><g
           transform="translate(441.1528,57.7926)"
           id="g446"><path
             id="path448"
             style="fill:none;stroke:#ffffff;stroke-width:1;stroke-linecap:butt;stroke-linejoin:miter;stroke-miterlimit:10;stroke-dasharray:none;stroke-opacity:1"
             d="M 0,0 6.657,-6.657 0,-13.314" /></g><g
           transform="translate(416.5838,51.1358)"
           id="g450"><path
             id="path452"
             style="fill:#191919;fill-opacity:1;fill-rule:nonzero;stroke:none"
             d="m 0,0 24.546,0 c 0,6.517 -5.495,11.8 -12.273,11.8 L 0,0 Z" /></g><g
           transform="translate(416.5838,51.1358)"
           id="g454"><path
             id="path456"
             style="fill:#282828;fill-opacity:1;fill-rule:nonzero;stroke:none"
             d="m 0,0 24.546,0 c 0,-6.517 -5.495,-11.8 -12.273,-11.8 L 0,0 Z" /></g><g
           transform="translate(435.8043,51.1358)"
           id="g458"><path
             id="path460"
             style="fill:none;stroke:#ffffff;stroke-width:1;stroke-linecap:butt;stroke-linejoin:miter;stroke-miterlimit:10;stroke-dasharray:none;stroke-opacity:1"
             d="M 0,0 -9.667,0" /></g><g
           transform="translate(426.0607,61.9323)"
           id="g462"><path
             id="path464"
             style="fill:#5d5d5d;fill-opacity:1;fill-rule:nonzero;stroke:none"
             d="m 0,0 -28.714,0 0,11.533 c 0,0.936 0.765,1.701 1.701,1.701 l 25.388,0 c 0.936,0 1.702,-0.765 1.702,-1.701 l 0,-11.456 C 0.077,0.034 0.042,0 0,0" /></g><g
           transform="translate(418.3987,65.221)"
           id="g466"><path
             id="path468"
             style="fill:none;stroke:#ffffff;stroke-width:1;stroke-linecap:butt;stroke-linejoin:miter;stroke-miterlimit:10;stroke-dasharray:none;stroke-opacity:1"
             d="M 0,0 -6.657,6.657 -13.314,0" /></g><g
           transform="translate(426.062,61.9323)"
           id="g470"><path
             id="path472"
             style="fill:#191919;fill-opacity:1;fill-rule:nonzero;stroke:none"
             d="m 0,0 -10.906,-9.813 -7.064,0 L -28.716,0 0,0 Z" /></g><g
           transform="translate(406.8997,57.0359)"
           id="g474"><path
             id="path476"
             style="fill:none;stroke:#ffffff;stroke-width:1;stroke-linecap:butt;stroke-linejoin:miter;stroke-miterlimit:10;stroke-dasharray:none;stroke-opacity:1"
             d="M 0,0 9.667,0" /></g><g
           transform="translate(397.4229,40.3802)"
           id="g478"><path
             id="path480"
             style="fill:#5d5d5d;fill-opacity:1;fill-rule:nonzero;stroke:none"
             d="m 0,0 28.714,0 0,-11.533 c 0,-0.936 -0.765,-1.701 -1.701,-1.701 l -25.388,0 c -0.936,0 -1.702,0.765 -1.702,1.701 l 0,11.456 C -0.077,-0.034 -0.042,0 0,0" /></g><g
           transform="translate(405.0849,37.0915)"
           id="g482"><path
             id="path484"
             style="fill:none;stroke:#ffffff;stroke-width:1;stroke-linecap:butt;stroke-linejoin:miter;stroke-miterlimit:10;stroke-dasharray:none;stroke-opacity:1"
             d="M 0,0 6.657,-6.657 13.314,0" /></g><g
           transform="translate(397.4216,40.3802)"
           id="g486"><path
             id="path488"
             style="fill:#282828;fill-opacity:1;fill-rule:nonzero;stroke:none"
             d="m 0,0 10.906,9.813 7.064,0 L 28.716,0 0,0 Z" /></g><g
           transform="translate(416.5838,45.2766)"
           id="g490"><path
             id="path492"
             style="fill:none;stroke:#ffffff;stroke-width:1;stroke-linecap:butt;stroke-linejoin:miter;stroke-miterlimit:10;stroke-dasharray:none;stroke-opacity:1"
             d="M 0,0 -9.667,0" /></g><g
           transform="translate(385.1916,272.2664)"
           id="g494"><path
             id="path496"
             style="fill:#f3e4b1;fill-opacity:1;fill-rule:nonzero;stroke:none"
             d="m 0,0 2.207,0 0,1.122 -2.207,0 0,2.483 -1.047,0 0,-2.483 -2.207,0 0,-1.122 2.207,0 0,-2.483 1.047,0 L 0,0 Z" /></g><path
           id="path498"
           style="fill:#ead598;fill-opacity:1;fill-rule:nonzero;stroke:none"
           d="m 376.839,269.784 -21.244,0 0,8.842 21.244,0 0,-8.842 z" /><g
           transform="translate(375.1578,277.3808)"
           id="g500"><path
             id="path502"
             style="fill:#212324;fill-opacity:1;fill-rule:nonzero;stroke:none"
             d="m 0,0 -2.02,-3.031 2.197,-3.312 -2.028,0 -1.208,1.773 -1.216,-1.778 -2.016,0 c 0.055,0.117 2.206,3.317 2.206,3.317 l -0.917,1.311 -3.889,-0.005 c -0.182,-0.015 -0.404,0.042 -0.495,-0.168 -0.032,-0.07 -0.046,-0.173 -0.009,-0.243 0.031,-0.079 0.104,-0.154 0.186,-0.177 l 0.122,-0.009 1.557,0 c 0.722,-0.019 1.389,-0.48 1.702,-1.148 0.277,-0.559 0.236,-1.324 -0.073,-1.856 -0.39,-0.676 -1.084,-1.054 -1.838,-1.026 l -4.33,0 c 0,0 -0.662,2.458 -0.667,2.462 l -0.667,-2.462 -1.579,-10e-4 -0.636,2.473 -0.695,-2.468 -1.747,0 c 0,0 1.607,5.943 1.711,6.335 l 1.476,0 0.694,-2.65 0.708,2.65 1.448,0 1.239,-4.614 2.887,0 c 0.199,0.01 0.476,-0.046 0.558,0.206 0.032,0.112 0.005,0.228 -0.073,0.308 -0.073,0.065 -0.163,0.083 -0.258,0.083 l -1.553,0.001 c -0.735,0.023 -1.466,0.517 -1.738,1.245 -0.295,0.727 -0.122,1.6 0.418,2.163 0.381,0.393 0.835,0.589 1.366,0.612 l 5.092,0.005 1.026,-1.521 L -1.997,0 0,0 Z" /></g><g
           transform="translate(379.3526,271.0259)"
           id="g504"><path
             id="path506"
             style="fill:#f3e4b1;fill-opacity:1;fill-rule:nonzero;stroke:none"
             d="m 0,0 c 0.104,0.751 1.984,1.211 1.984,2.852 0,1.564 -1.059,1.962 -1.984,1.962 -0.925,0 -1.91,-0.72 -1.91,-1.901 l 0,-0.445 1.388,0 0,0.322 c 0,0.407 0.193,0.66 0.537,0.66 0.343,0 0.506,-0.207 0.506,-0.629 0,-0.95 -1.566,-1.334 -2.222,-2.53 C -1.982,-0.22 -2,-1.242 -2,-1.242 l 3.895,0 L 1.895,0 0,0 Z" /></g><g
           transform="translate(198.3803,260.0584)"
           id="g508"><path
             id="path510"
             style="fill:none;stroke:#131414;stroke-width:1;stroke-linecap:butt;stroke-linejoin:miter;stroke-miterlimit:10;stroke-dasharray:none;stroke-opacity:1"
             d="m 0,0 -12.187,0 c -2.001,0 -3.637,1.637 -3.637,3.637 0,2.001 1.636,3.638 3.637,3.638 L 0,7.275 C 2.001,7.275 3.637,5.638 3.637,3.637 3.637,1.637 2.001,0 0,0 Z" /></g><path
           id="path512"
           style="fill:#131414;fill-opacity:1;fill-rule:nonzero;stroke:none"
           d="m 255.369,289.167 -126.164,0 0,5 126.164,0 0,-5 z" /><g
           transform="translate(254.9318,267.3333)"
           id="g514"><path
             id="path516"
             style="fill:none;stroke:#131414;stroke-width:1;stroke-linecap:butt;stroke-linejoin:miter;stroke-miterlimit:10;stroke-dasharray:none;stroke-opacity:1"
             d="m 0,0 -125.29,0 c -2.001,0 -3.637,1.637 -3.637,3.637 l 0,21.434 c 0,2 1.636,3.637 3.637,3.637 l 125.29,0 c 2.001,0 3.637,-1.637 3.637,-3.637 l 0,-21.434 C 3.637,1.637 2.001,0 0,0 Z" /></g><path
           id="path518"
           style="fill:#131414;fill-opacity:1;fill-rule:nonzero;stroke:none"
           d="m 239.653,296.042 -202.893,0 0,13.958 202.893,0 0,-13.958 z" /><g
           transform="translate(53.5012,296.0417)"
           id="g520"><path
             id="path522"
             style="fill:#212324;fill-opacity:1;fill-rule:nonzero;stroke:none"
             d="m 0,0 -12.235,0 c -0.515,0 -0.937,0.422 -0.937,0.937 l 0,15.001 c 0,0.515 0.422,0.937 0.937,0.937 l 12.235,0 c 0.516,0 0.937,-0.422 0.937,-0.937 l 0,-15.001 C 0.937,0.422 0.516,0 0,0" /></g><g
           transform="translate(71.0464,296.0417)"
           id="g524"><path
             id="path526"
             style="fill:#212324;fill-opacity:1;fill-rule:nonzero;stroke:none"
             d="m 0,0 -8.859,0 c -0.515,0 -0.937,0.422 -0.937,0.937 l 0,15.001 c 0,0.515 0.422,0.937 0.937,0.937 l 8.859,0 c 0.516,0 0.937,-0.422 0.937,-0.937 l 0,-15.001 C 0.937,0.422 0.516,0 0,0" /></g><g
           transform="translate(88.3483,296.0417)"
           id="g528"><path
             id="path530"
             style="fill:#212324;fill-opacity:1;fill-rule:nonzero;stroke:none"
             d="m 0,0 -8.859,0 c -0.515,0 -0.937,0.422 -0.937,0.937 l 0,15.001 c 0,0.515 0.422,0.937 0.937,0.937 l 8.859,0 c 0.516,0 0.937,-0.422 0.937,-0.937 l 0,-15.001 C 0.937,0.422 0.516,0 0,0" /></g><g
           transform="translate(105.6502,296.0417)"
           id="g532"><path
             id="path534"
             style="fill:#212324;fill-opacity:1;fill-rule:nonzero;stroke:none"
             d="m 0,0 -8.859,0 c -0.515,0 -0.937,0.422 -0.937,0.937 l 0,15.001 c 0,0.515 0.422,0.937 0.937,0.937 l 8.859,0 c 0.516,0 0.937,-0.422 0.937,-0.937 l 0,-15.001 C 0.937,0.422 0.516,0 0,0" /></g><g
           transform="translate(122.9521,296.0417)"
           id="g536"><path
             id="path538"
             style="fill:#212324;fill-opacity:1;fill-rule:nonzero;stroke:none"
             d="m 0,0 -8.859,0 c -0.515,0 -0.937,0.422 -0.937,0.937 l 0,15.001 c 0,0.515 0.422,0.937 0.937,0.937 l 8.859,0 c 0.516,0 0.937,-0.422 0.937,-0.937 l 0,-15.001 C 0.937,0.422 0.516,0 0,0" /></g><g
           transform="translate(140.254,296.0417)"
           id="g540"><path
             id="path542"
             style="fill:#212324;fill-opacity:1;fill-rule:nonzero;stroke:none"
             d="m 0,0 -8.859,0 c -0.515,0 -0.937,0.422 -0.937,0.937 l 0,15.001 c 0,0.515 0.422,0.937 0.937,0.937 l 8.859,0 c 0.516,0 0.937,-0.422 0.937,-0.937 l 0,-15.001 C 0.937,0.422 0.516,0 0,0" /></g><g
           transform="translate(157.5559,296.0417)"
           id="g544"><path
             id="path546"
             style="fill:#212324;fill-opacity:1;fill-rule:nonzero;stroke:none"
             d="m 0,0 -8.859,0 c -0.515,0 -0.937,0.422 -0.937,0.937 l 0,15.001 c 0,0.515 0.422,0.937 0.937,0.937 l 8.859,0 c 0.516,0 0.937,-0.422 0.937,-0.937 l 0,-15.001 C 0.937,0.422 0.516,0 0,0" /></g><g
           transform="translate(174.8578,296.0417)"
           id="g548"><path
             id="path550"
             style="fill:#212324;fill-opacity:1;fill-rule:nonzero;stroke:none"
             d="m 0,0 -8.859,0 c -0.515,0 -0.937,0.422 -0.937,0.937 l 0,15.001 c 0,0.515 0.422,0.937 0.937,0.937 l 8.859,0 c 0.516,0 0.937,-0.422 0.937,-0.937 l 0,-15.001 C 0.937,0.422 0.516,0 0,0" /></g><g
           transform="translate(192.1597,296.0417)"
           id="g552"><path
             id="path554"
             style="fill:#212324;fill-opacity:1;fill-rule:nonzero;stroke:none"
             d="m 0,0 -8.859,0 c -0.515,0 -0.937,0.422 -0.937,0.937 l 0,15.001 c 0,0.515 0.422,0.937 0.937,0.937 l 8.859,0 c 0.516,0 0.937,-0.422 0.937,-0.937 l 0,-15.001 C 0.937,0.422 0.516,0 0,0" /></g><g
           transform="translate(209.4615,296.0417)"
           id="g556"><path
             id="path558"
             style="fill:#212324;fill-opacity:1;fill-rule:nonzero;stroke:none"
             d="m 0,0 -8.859,0 c -0.515,0 -0.937,0.422 -0.937,0.937 l 0,15.001 c 0,0.515 0.422,0.937 0.937,0.937 l 8.859,0 c 0.516,0 0.937,-0.422 0.937,-0.937 l 0,-15.001 C 0.937,0.422 0.516,0 0,0" /></g><g
           transform="translate(226.7634,296.0417)"
           id="g560"><path
             id="path562"
             style="fill:#212324;fill-opacity:1;fill-rule:nonzero;stroke:none"
             d="m 0,0 -8.859,0 c -0.515,0 -0.937,0.422 -0.937,0.937 l 0,15.001 c 0,0.515 0.422,0.937 0.937,0.937 l 8.859,0 c 0.516,0 0.937,-0.422 0.937,-0.937 l 0,-15.001 C 0.937,0.422 0.516,0 0,0" /></g><path
           id="path564"
           style="fill:#131414;fill-opacity:1;fill-rule:nonzero;stroke:none"
           d="m 239.619,296.042 202.893,0 0,13.958 -202.893,0 0,-13.958 z" /><g
           transform="translate(425.7709,296.0417)"
           id="g566"><path
             id="path568"
             style="fill:#212324;fill-opacity:1;fill-rule:nonzero;stroke:none"
             d="m 0,0 12.235,0 c 0.515,0 0.937,0.422 0.937,0.937 l 0,15.001 c 0,0.515 -0.422,0.937 -0.937,0.937 L 0,16.875 c -0.516,0 -0.937,-0.422 -0.937,-0.937 l 0,-15.001 C -0.937,0.422 -0.516,0 0,0" /></g><g
           transform="translate(408.2256,296.0417)"
           id="g570"><path
             id="path572"
             style="fill:#212324;fill-opacity:1;fill-rule:nonzero;stroke:none"
             d="m 0,0 8.859,0 c 0.515,0 0.937,0.422 0.937,0.937 l 0,15.001 c 0,0.515 -0.422,0.937 -0.937,0.937 l -8.859,0 c -0.516,0 -0.937,-0.422 -0.937,-0.937 l 0,-15.001 C -0.937,0.422 -0.516,0 0,0" /></g><g
           transform="translate(390.9238,296.0417)"
           id="g574"><path
             id="path576"
             style="fill:#212324;fill-opacity:1;fill-rule:nonzero;stroke:none"
             d="m 0,0 8.859,0 c 0.515,0 0.937,0.422 0.937,0.937 l 0,15.001 c 0,0.515 -0.422,0.937 -0.937,0.937 l -8.859,0 c -0.516,0 -0.937,-0.422 -0.937,-0.937 l 0,-15.001 C -0.937,0.422 -0.516,0 0,0" /></g><g
           transform="translate(373.6219,296.0417)"
           id="g578"><path
             id="path580"
             style="fill:#212324;fill-opacity:1;fill-rule:nonzero;stroke:none"
             d="m 0,0 8.859,0 c 0.515,0 0.937,0.422 0.937,0.937 l 0,15.001 c 0,0.515 -0.422,0.937 -0.937,0.937 l -8.859,0 c -0.516,0 -0.937,-0.422 -0.937,-0.937 l 0,-15.001 C -0.937,0.422 -0.516,0 0,0" /></g><g
           transform="translate(356.32,296.0417)"
           id="g582"><path
             id="path584"
             style="fill:#212324;fill-opacity:1;fill-rule:nonzero;stroke:none"
             d="m 0,0 8.859,0 c 0.515,0 0.937,0.422 0.937,0.937 l 0,15.001 c 0,0.515 -0.422,0.937 -0.937,0.937 l -8.859,0 c -0.516,0 -0.937,-0.422 -0.937,-0.937 l 0,-15.001 C -0.937,0.422 -0.516,0 0,0" /></g><g
           transform="translate(339.0181,296.0417)"
           id="g586"><path
             id="path588"
             style="fill:#212324;fill-opacity:1;fill-rule:nonzero;stroke:none"
             d="m 0,0 8.859,0 c 0.515,0 0.937,0.422 0.937,0.937 l 0,15.001 c 0,0.515 -0.422,0.937 -0.937,0.937 l -8.859,0 c -0.516,0 -0.937,-0.422 -0.937,-0.937 l 0,-15.001 C -0.937,0.422 -0.516,0 0,0" /></g><g
           transform="translate(321.7162,296.0417)"
           id="g590"><path
             id="path592"
             style="fill:#212324;fill-opacity:1;fill-rule:nonzero;stroke:none"
             d="m 0,0 8.859,0 c 0.515,0 0.937,0.422 0.937,0.937 l 0,15.001 c 0,0.515 -0.422,0.937 -0.937,0.937 l -8.859,0 c -0.516,0 -0.937,-0.422 -0.937,-0.937 l 0,-15.001 C -0.937,0.422 -0.516,0 0,0" /></g><g
           transform="translate(304.4143,296.0417)"
           id="g594"><path
             id="path596"
             style="fill:#212324;fill-opacity:1;fill-rule:nonzero;stroke:none"
             d="m 0,0 8.859,0 c 0.515,0 0.937,0.422 0.937,0.937 l 0,15.001 c 0,0.515 -0.422,0.937 -0.937,0.937 l -8.859,0 c -0.516,0 -0.937,-0.422 -0.937,-0.937 l 0,-15.001 C -0.937,0.422 -0.516,0 0,0" /></g><g
           transform="translate(287.1124,296.0417)"
           id="g598"><path
             id="path600"
             style="fill:#212324;fill-opacity:1;fill-rule:nonzero;stroke:none"
             d="m 0,0 8.859,0 c 0.515,0 0.937,0.422 0.937,0.937 l 0,15.001 c 0,0.515 -0.422,0.937 -0.937,0.937 l -8.859,0 c -0.516,0 -0.937,-0.422 -0.937,-0.937 l 0,-15.001 C -0.937,0.422 -0.516,0 0,0" /></g><g
           transform="translate(269.8105,296.0417)"
           id="g602"><path
             id="path604"
             style="fill:#212324;fill-opacity:1;fill-rule:nonzero;stroke:none"
             d="m 0,0 8.859,0 c 0.515,0 0.937,0.422 0.937,0.937 l 0,15.001 c 0,0.515 -0.422,0.937 -0.937,0.937 l -8.859,0 c -0.516,0 -0.937,-0.422 -0.937,-0.937 l 0,-15.001 C -0.937,0.422 -0.516,0 0,0" /></g><g
           transform="translate(252.5087,296.0417)"
           id="g606"><path
             id="path608"
             style="fill:#212324;fill-opacity:1;fill-rule:nonzero;stroke:none"
             d="m 0,0 8.859,0 c 0.515,0 0.937,0.422 0.937,0.937 l 0,15.001 c 0,0.515 -0.422,0.937 -0.937,0.937 l -8.859,0 c -0.516,0 -0.937,-0.422 -0.937,-0.937 l 0,-15.001 C -0.937,0.422 -0.516,0 0,0" /></g><g
           transform="translate(244.0653,296.0417)"
           id="g610"><path
             id="path612"
             style="fill:#212324;fill-opacity:1;fill-rule:nonzero;stroke:none"
             d="m 0,0 -8.859,0 c -0.515,0 -0.937,0.422 -0.937,0.937 l 0,15.001 c 0,0.515 0.422,0.937 0.937,0.937 l 8.859,0 c 0.516,0 0.937,-0.422 0.937,-0.937 l 0,-15.001 C 0.937,0.422 0.516,0 0,0" /></g><g
           transform="translate(34.3281,291.6667)"
           id="g614"><path
             id="path616"
             style="fill:none;stroke:#ead598;stroke-width:1;stroke-linecap:butt;stroke-linejoin:miter;stroke-miterlimit:10;stroke-dasharray:none;stroke-opacity:1"
             d="M 0,0 89.562,0" /></g><g
           transform="translate(438.9433,291.6667)"
           id="g618"><path
             id="path620"
             style="fill:none;stroke:#ead598;stroke-width:1;stroke-linecap:butt;stroke-linejoin:miter;stroke-miterlimit:10;stroke-dasharray:none;stroke-opacity:1"
             d="M 0,0 -176.639,0" /></g><g
           transform="translate(36.7608,312.9167)"
           id="g622"><path
             id="path624"
             style="fill:#212324;fill-opacity:1;fill-rule:nonzero;stroke:none"
             d="m 0,0 -7.436,0 -0.005,0 -0.175,-1.458 -0.174,-1.459 0.005,0 7.785,0 L 0,0 Z" /></g><g
           transform="translate(442.5113,312.9167)"
           id="g626"><path
             id="path628"
             style="fill:#212324;fill-opacity:1;fill-rule:nonzero;stroke:none"
             d="m 0,0 7.436,0 0.005,0 0.175,-1.458 0.174,-1.459 -0.005,0 L 0,-2.917 0,0 Z" /></g><path
           id="path630"
           style="fill:#656266;fill-opacity:1;fill-rule:nonzero;stroke:none"
           d="m 462.345,252.333 -440.262,0 0,-32 440.262,0 0,32 z" /><path
           id="path632"
           style="fill:#212324;fill-opacity:1;fill-rule:nonzero;stroke:none"
           d="m 462.345,228 -440.262,0 0,16.667 440.262,0 0,-16.667 z" /><g
           transform="translate(9.1667,195.4167)"
           id="g634"><path
             id="path636"
             style="fill:#282828;fill-opacity:1;fill-rule:nonzero;stroke:none"
             d="m 0,0 -9.167,16.337 c 0.591,3.04 4.769,5.656 9.491,6.63 L 12.917,24.917 12.917,0 0,0 Z" /></g><g
           transform="translate(22.0833,228)"
           id="g638"><path
             id="path640"
             style="fill:#212324;fill-opacity:1;fill-rule:nonzero;stroke:none"
             d="m 0,0 0,12.799 0,3.868 -11.342,-2.082 c -4.253,-1.04 -8.016,-3.834 -8.547,-7.079 l 0,-0.058 -0.813,-7.594 c 0,0 -1.006,-9.015 -1.006,-9.015 0.61,3.245 3.817,6.039 8.696,7.08 L 0,0 Z" /></g><g
           transform="translate(2.194,235.5056)"
           id="g642"><path
             id="path644"
             style="fill:#656266;fill-opacity:1;fill-rule:nonzero;stroke:none"
             d="m 0,0 1.325,8.248 c 0.496,3.04 4.008,5.656 7.978,6.63 l 10.586,1.95 0,-7.667 L 8.548,7.08 C 4.295,6.039 0.532,3.245 0,0" /></g><g
           transform="translate(0,211.7539)"
           id="g646"><path
             id="path648"
             style="fill:#656266;fill-opacity:1;fill-rule:nonzero;stroke:none"
             d="m 0,0 0.375,7.085 c 0.61,3.245 3.817,6.039 8.697,7.08 l 13.011,2.081 0,-7.667 L 9.491,6.63 C 4.769,5.656 0.59,3.039 0,0 l 0.187,-0.334" /></g><g
           transform="translate(430.9608,236.8333)"
           id="g650"><path
             id="path652"
             style="fill:#5e5e5e;fill-opacity:1;fill-rule:nonzero;stroke:none"
             d="m 0,0 c 0,-3.406 -2.897,-6.167 -6.47,-6.167 -3.573,0 -6.469,2.761 -6.469,6.167 0,3.406 2.896,6.167 6.469,6.167 C -2.897,6.167 0,3.406 0,0" /></g><g
           transform="translate(273.1667,226.5)"
           id="g654"><path
             id="path656"
             style="fill:none;stroke:#131414;stroke-width:1;stroke-linecap:butt;stroke-linejoin:miter;stroke-miterlimit:10;stroke-dasharray:none;stroke-opacity:1"
             d="M 0,0 0,-6.166 -1.117,-9.333" /></g><g
           transform="translate(307.8837,201.9167)"
           id="g658"><path
             id="path660"
             style="fill:#dee0e0;fill-opacity:1;fill-rule:nonzero;stroke:none"
             d="m 0,0 -36.724,0 4.181,10.75 36.724,0 L 0,0 Z" /></g><g
           transform="translate(307.8837,201.9167)"
           id="g662"><path
             id="path664"
             style="fill:none;stroke:#231f20;stroke-width:1;stroke-linecap:butt;stroke-linejoin:miter;stroke-miterlimit:10;stroke-dasharray:none;stroke-opacity:1"
             d="m 0,0 -36.724,0 4.181,10.75 36.724,0 L 0,0 Z" /></g><g
           transform="translate(288.7135,205.6667)"
           id="g666"><path
             id="path668"
             style="fill:#000000;fill-opacity:1;fill-rule:nonzero;stroke:none"
             d="m 0,0 -6.833,0 0.734,4.167 6.834,0 L 0,0 Z" /></g><g
           transform="translate(296.4531,205.6667)"
           id="g670"><path
             id="path672"
             style="fill:#000000;fill-opacity:1;fill-rule:nonzero;stroke:none"
             d="m 0,0 -4.885,0 0.734,4.167 4.886,0 L 0,0 Z" /></g><g
           transform="translate(305.4843,205.6667)"
           id="g674"><path
             id="path676"
             style="fill:#000000;fill-opacity:1;fill-rule:nonzero;stroke:none"
             d="m 0,0 -5.917,0 0.735,4.167 5.917,0 L 0,0 Z" /></g><g
           transform="translate(279.0298,208.7604)"
           id="g678"><path
             id="path680"
             style="fill:#000000;fill-opacity:1;fill-rule:nonzero;stroke:none"
             d="m 0,0 -2.938,0 0.337,1.906 2.937,0 L 0,0 Z" /></g><g
           transform="translate(344.4383,201.9167)"
           id="g682"><path
             id="path684"
             style="fill:#dee0e0;fill-opacity:1;fill-rule:nonzero;stroke:none"
             d="m 0,0 -36.724,0 4.181,10.75 36.724,0 L 0,0 Z" /></g><g
           transform="translate(344.4383,201.9167)"
           id="g686"><path
             id="path688"
             style="fill:none;stroke:#231f20;stroke-width:1;stroke-linecap:butt;stroke-linejoin:miter;stroke-miterlimit:10;stroke-dasharray:none;stroke-opacity:1"
             d="m 0,0 -36.724,0 4.181,10.75 36.724,0 L 0,0 Z" /></g><g
           transform="translate(325.268,205.6667)"
           id="g690"><path
             id="path692"
             style="fill:#000000;fill-opacity:1;fill-rule:nonzero;stroke:none"
             d="m 0,0 -6.833,0 0.734,4.167 6.834,0 L 0,0 Z" /></g><g
           transform="translate(333.0076,205.6667)"
           id="g694"><path
             id="path696"
             style="fill:#000000;fill-opacity:1;fill-rule:nonzero;stroke:none"
             d="m 0,0 -4.885,0 0.734,4.167 4.886,0 L 0,0 Z" /></g><g
           transform="translate(342.0388,205.6667)"
           id="g698"><path
             id="path700"
             style="fill:#000000;fill-opacity:1;fill-rule:nonzero;stroke:none"
             d="m 0,0 -5.917,0 0.735,4.167 5.917,0 L 0,0 Z" /></g><g
           transform="translate(315.5844,208.7604)"
           id="g702"><path
             id="path704"
             style="fill:#000000;fill-opacity:1;fill-rule:nonzero;stroke:none"
             d="m 0,0 -2.938,0 0.337,1.906 2.937,0 L 0,0 Z" /></g><g
           transform="translate(381.1337,201.9167)"
           id="g706"><path
             id="path708"
             style="fill:#dee0e0;fill-opacity:1;fill-rule:nonzero;stroke:none"
             d="m 0,0 -36.724,0 4.181,10.75 36.724,0 L 0,0 Z" /></g><g
           transform="translate(381.1337,201.9167)"
           id="g710"><path
             id="path712"
             style="fill:none;stroke:#231f20;stroke-width:1;stroke-linecap:butt;stroke-linejoin:miter;stroke-miterlimit:10;stroke-dasharray:none;stroke-opacity:1"
             d="m 0,0 -36.724,0 4.181,10.75 36.724,0 L 0,0 Z" /></g><g
           transform="translate(361.9635,205.6667)"
           id="g714"><path
             id="path716"
             style="fill:#000000;fill-opacity:1;fill-rule:nonzero;stroke:none"
             d="m 0,0 -6.833,0 0.734,4.167 6.834,0 L 0,0 Z" /></g><g
           transform="translate(369.7031,205.6667)"
           id="g718"><path
             id="path720"
             style="fill:#000000;fill-opacity:1;fill-rule:nonzero;stroke:none"
             d="m 0,0 -4.885,0 0.734,4.167 4.886,0 L 0,0 Z" /></g><g
           transform="translate(378.7343,205.6667)"
           id="g722"><path
             id="path724"
             style="fill:#000000;fill-opacity:1;fill-rule:nonzero;stroke:none"
             d="m 0,0 -5.917,0 0.735,4.167 5.917,0 L 0,0 Z" /></g><g
           transform="translate(352.2798,208.7604)"
           id="g726"><path
             id="path728"
             style="fill:#000000;fill-opacity:1;fill-rule:nonzero;stroke:none"
             d="m 0,0 -2.938,0 0.337,1.906 2.937,0 L 0,0 Z" /></g><g
           transform="translate(417.9151,201.9167)"
           id="g730"><path
             id="path732"
             style="fill:#dee0e0;fill-opacity:1;fill-rule:nonzero;stroke:none"
             d="m 0,0 -36.724,0 4.181,10.75 36.724,0 L 0,0 Z" /></g><g
           transform="translate(417.9151,201.9167)"
           id="g734"><path
             id="path736"
             style="fill:none;stroke:#231f20;stroke-width:1;stroke-linecap:butt;stroke-linejoin:miter;stroke-miterlimit:10;stroke-dasharray:none;stroke-opacity:1"
             d="m 0,0 -36.724,0 4.181,10.75 36.724,0 L 0,0 Z" /></g><g
           transform="translate(398.7449,205.6667)"
           id="g738"><path
             id="path740"
             style="fill:#000000;fill-opacity:1;fill-rule:nonzero;stroke:none"
             d="m 0,0 -6.833,0 0.734,4.167 6.834,0 L 0,0 Z" /></g><g
           transform="translate(406.4845,205.6667)"
           id="g742"><path
             id="path744"
             style="fill:#000000;fill-opacity:1;fill-rule:nonzero;stroke:none"
             d="m 0,0 -4.885,0 0.734,4.167 4.886,0 L 0,0 Z" /></g><g
           transform="translate(415.5157,205.6667)"
           id="g746"><path
             id="path748"
             style="fill:#000000;fill-opacity:1;fill-rule:nonzero;stroke:none"
             d="m 0,0 -5.917,0 0.735,4.167 5.917,0 L 0,0 Z" /></g><g
           transform="translate(389.0612,208.7604)"
           id="g750"><path
             id="path752"
             style="fill:#000000;fill-opacity:1;fill-rule:nonzero;stroke:none"
             d="m 0,0 -2.938,0 0.337,1.906 2.937,0 L 0,0 Z" /></g><g
           transform="translate(454.7505,201.9167)"
           id="g754"><path
             id="path756"
             style="fill:#813137;fill-opacity:1;fill-rule:nonzero;stroke:none"
             d="m 0,0 -36.724,0 4.181,10.75 36.724,0 L 0,0 Z" /></g><g
           transform="translate(454.7505,201.9167)"
           id="g758"><path
             id="path760"
             style="fill:none;stroke:#231f20;stroke-width:1;stroke-linecap:butt;stroke-linejoin:miter;stroke-miterlimit:10;stroke-dasharray:none;stroke-opacity:1"
             d="m 0,0 -36.724,0 4.181,10.75 36.724,0 L 0,0 Z" /></g><g
           transform="translate(435.5802,205.6667)"
           id="g762"><path
             id="path764"
             style="fill:#8f9193;fill-opacity:1;fill-rule:nonzero;stroke:none"
             d="m 0,0 -6.833,0 0.734,4.167 6.834,0 L 0,0 Z" /></g><g
           transform="translate(443.3198,205.6667)"
           id="g766"><path
             id="path768"
             style="fill:#8f9193;fill-opacity:1;fill-rule:nonzero;stroke:none"
             d="m 0,0 -4.885,0 0.734,4.167 4.886,0 L 0,0 Z" /></g><g
           transform="translate(452.351,205.6667)"
           id="g770"><path
             id="path772"
             style="fill:#8f9193;fill-opacity:1;fill-rule:nonzero;stroke:none"
             d="m 0,0 -5.917,0 0.735,4.167 5.917,0 L 0,0 Z" /></g><g
           transform="translate(425.8965,208.7604)"
           id="g774"><path
             id="path776"
             style="fill:#8f9193;fill-opacity:1;fill-rule:nonzero;stroke:none"
             d="m 0,0 -2.938,0 0.337,1.906 2.937,0 L 0,0 Z" /></g><path
           id="path778"
           style="fill:#dee0e0;fill-opacity:1;fill-rule:nonzero;stroke:#231f20;stroke-width:1;stroke-linecap:butt;stroke-linejoin:miter;stroke-miterlimit:10;stroke-dasharray:none;stroke-opacity:1"
           d="m 248.583,201.917 -6.333,0 0,10.75 6.333,0 0,-10.75 z" /><g
           transform="translate(9.1667,195.4167)"
           id="g780"><path
             id="path782"
             style="fill:#656266;fill-opacity:1;fill-rule:nonzero;stroke:none"
             d="m 0,0 18.065,0 0,-8.083 c -4.359,0 -8.195,-2.356 -10.297,-5.858 L 7.829,-13.917 0.021,0" /></g><path
           id="path784"
           style="fill:#656266;fill-opacity:1;fill-rule:nonzero;stroke:none"
           d="m 457.189,187.333 -429.957,0 0,8.083 429.957,0 0,-8.083 z" /><g
           transform="translate(239.4655,195.4167)"
           id="g786"><path
             id="path788"
             style="fill:none;stroke:#131414;stroke-width:1;stroke-linecap:butt;stroke-linejoin:miter;stroke-miterlimit:10;stroke-dasharray:none;stroke-opacity:1"
             d="M 0,0 -136.466,0 -141.382,21.75 0,21.75 0,0 Z" /></g><path
           id="path790"
           style="fill:#5e5e5e;fill-opacity:1;fill-rule:nonzero;stroke:none"
           d="m 162,200 -2.667,0 0,7.292 2.667,0 0,-7.292 z" /><path
           id="path792"
           style="fill:#5e5e5e;fill-opacity:1;fill-rule:nonzero;stroke:none"
           d="m 165.562,200 -2.667,0 0,7.292 2.667,0 0,-7.292 z" /><path
           id="path794"
           style="fill:#5e5e5e;fill-opacity:1;fill-rule:nonzero;stroke:none"
           d="m 169.125,200 -2.667,0 0,7.292 2.667,0 0,-7.292 z" /><path
           id="path796"
           style="fill:#5e5e5e;fill-opacity:1;fill-rule:nonzero;stroke:none"
           d="m 172.687,200 -2.667,0 0,7.292 2.667,0 0,-7.292 z" /><path
           id="path798"
           style="fill:#5e5e5e;fill-opacity:1;fill-rule:nonzero;stroke:none"
           d="m 176.25,200 -2.667,0 0,7.292 2.667,0 0,-7.292 z" /><g
           transform="translate(159.3333,203.6458)"
           id="g800"><path
             id="path802"
             style="fill:none;stroke:#131414;stroke-width:1;stroke-linecap:butt;stroke-linejoin:miter;stroke-miterlimit:10;stroke-dasharray:none;stroke-opacity:1"
             d="M 0,0 16.917,0" /></g><path
           id="path804"
           style="fill:#5e5e5e;fill-opacity:1;fill-rule:nonzero;stroke:none"
           d="m 220.042,200 -2.667,0 0,7.292 2.667,0 0,-7.292 z" /><path
           id="path806"
           style="fill:#5e5e5e;fill-opacity:1;fill-rule:nonzero;stroke:none"
           d="m 223.604,200 -2.667,0 0,7.292 2.667,0 0,-7.292 z" /><path
           id="path808"
           style="fill:#5e5e5e;fill-opacity:1;fill-rule:nonzero;stroke:none"
           d="m 227.167,200 -2.667,0 0,7.292 2.667,0 0,-7.292 z" /><g
           transform="translate(217.375,203.6458)"
           id="g810"><path
             id="path812"
             style="fill:none;stroke:#131414;stroke-width:1;stroke-linecap:butt;stroke-linejoin:miter;stroke-miterlimit:10;stroke-dasharray:none;stroke-opacity:1"
             d="M 0,0 9.792,0" /></g><path
           id="path814"
           style="fill:none;stroke:#131414;stroke-width:1;stroke-linecap:butt;stroke-linejoin:miter;stroke-miterlimit:10;stroke-dasharray:none;stroke-opacity:1"
           d="m 204,200 -86.167,0 0,7.292 86.167,0 0,-7.292 z" /><g
           transform="translate(154.5226,210.8576)"
           id="g816"><path
             id="path818"
             style="fill:#f3e4b1;fill-opacity:1;fill-rule:nonzero;stroke:none"
             d="m 0,0 -0.253,0 c -0.756,0 -1.374,0.618 -1.374,1.373 0,0.756 0.618,1.374 1.374,1.374 L 0,2.747 C 0.755,2.747 1.373,2.129 1.373,1.373 1.373,0.618 0.755,0 0,0" /></g><g
           transform="translate(158.3976,210.8576)"
           id="g820"><path
             id="path822"
             style="fill:#f3e4b1;fill-opacity:1;fill-rule:nonzero;stroke:none"
             d="m 0,0 -0.253,0 c -0.756,0 -1.374,0.618 -1.374,1.373 0,0.756 0.618,1.374 1.374,1.374 L 0,2.747 C 0.755,2.747 1.373,2.129 1.373,1.373 1.373,0.618 0.755,0 0,0" /></g><g
           transform="translate(162.2726,210.8576)"
           id="g824"><path
             id="path826"
             style="fill:#f3e4b1;fill-opacity:1;fill-rule:nonzero;stroke:none"
             d="m 0,0 -0.253,0 c -0.756,0 -1.374,0.618 -1.374,1.373 0,0.756 0.618,1.374 1.374,1.374 L 0,2.747 C 0.755,2.747 1.373,2.129 1.373,1.373 1.373,0.618 0.755,0 0,0" /></g><g
           transform="translate(166.1476,210.8576)"
           id="g828"><path
             id="path830"
             style="fill:#f3e4b1;fill-opacity:1;fill-rule:nonzero;stroke:none"
             d="m 0,0 -0.253,0 c -0.756,0 -1.374,0.618 -1.374,1.373 0,0.756 0.618,1.374 1.374,1.374 L 0,2.747 C 0.755,2.747 1.373,2.129 1.373,1.373 1.373,0.618 0.755,0 0,0" /></g><g
           transform="translate(475.2617,195.427)"
           id="g832"><path
             id="path834"
             style="fill:#282828;fill-opacity:1;fill-rule:nonzero;stroke:none"
             d="m 0,0 9.167,16.337 c -0.591,3.04 -4.769,5.656 -9.491,6.63 L -12.917,24.917 -12.917,0 0,0 Z" /></g><g
           transform="translate(462.345,228.0103)"
           id="g836"><path
             id="path838"
             style="fill:#212324;fill-opacity:1;fill-rule:nonzero;stroke:none"
             d="m 0,0 0,12.799 0,3.868 11.342,-2.082 c 4.253,-1.04 8.016,-3.834 8.547,-7.079 l 0,-0.058 0.813,-7.594 1.006,-9.015 c -0.61,3.245 -3.817,6.039 -8.696,7.08 L 0,0 Z" /></g><g
           transform="translate(482.2344,235.5159)"
           id="g840"><path
             id="path842"
             style="fill:#656266;fill-opacity:1;fill-rule:nonzero;stroke:none"
             d="m 0,0 -1.325,8.248 c -0.496,3.04 -4.008,5.656 -7.978,6.63 l -10.586,1.95 0,-7.667 L -8.548,7.08 C -4.295,6.039 -0.532,3.245 0,0" /></g><g
           transform="translate(484.4283,211.7642)"
           id="g844"><path
             id="path846"
             style="fill:#656266;fill-opacity:1;fill-rule:nonzero;stroke:none"
             d="m 0,0 -0.375,7.085 c -0.61,3.245 -3.817,6.039 -8.697,7.08 l -13.011,2.081 0,-7.667 L -9.491,6.63 C -4.769,5.656 -0.59,3.039 0,0 l -0.187,-0.334" /></g><g
           transform="translate(475.2617,195.427)"
           id="g848"><path
             id="path850"
             style="fill:#656266;fill-opacity:1;fill-rule:nonzero;stroke:none"
             d="m 0,0 -18.065,0 0,-8.083 c 4.359,0 8.195,-2.356 10.297,-5.858 L -7.829,-13.917 -0.021,0" /></g><path
           id="path852"
           style="fill:#191919;fill-opacity:1;fill-rule:nonzero;stroke:none"
           d="m 204,200 -27.75,0 0,7.292 27.75,0 0,-7.292 z" /><g
           transform="translate(292.1261,226.5)"
           id="g854"><path
             id="path856"
             style="fill:none;stroke:#131414;stroke-width:1;stroke-linecap:butt;stroke-linejoin:miter;stroke-miterlimit:10;stroke-dasharray:none;stroke-opacity:1"
             d="M 0,0 0,-6.166 -1.117,-9.333" /></g><g
           transform="translate(311.3041,226.5)"
           id="g858"><path
             id="path860"
             style="fill:none;stroke:#131414;stroke-width:1;stroke-linecap:butt;stroke-linejoin:miter;stroke-miterlimit:10;stroke-dasharray:none;stroke-opacity:1"
             d="M 0,0 0,-6.166 -1.117,-9.333" /></g><g
           transform="translate(330.6845,226.5)"
           id="g862"><path
             id="path864"
             style="fill:none;stroke:#131414;stroke-width:1;stroke-linecap:butt;stroke-linejoin:miter;stroke-miterlimit:10;stroke-dasharray:none;stroke-opacity:1"
             d="M 0,0 0,-6.166 -1.117,-9.333" /></g><g
           transform="translate(349.644,226.5)"
           id="g866"><path
             id="path868"
             style="fill:none;stroke:#131414;stroke-width:1;stroke-linecap:butt;stroke-linejoin:miter;stroke-miterlimit:10;stroke-dasharray:none;stroke-opacity:1"
             d="M 0,0 0,-6.166 -1.117,-9.333" /></g><g
           transform="translate(368.822,226.5)"
           id="g870"><path
             id="path872"
             style="fill:none;stroke:#131414;stroke-width:1;stroke-linecap:butt;stroke-linejoin:miter;stroke-miterlimit:10;stroke-dasharray:none;stroke-opacity:1"
             d="M 0,0 0,-6.166 -1.117,-9.333" /></g><g
           transform="translate(385.1696,226.25)"
           id="g874"><path
             id="path876"
             style="fill:none;stroke:#131414;stroke-width:1;stroke-linecap:butt;stroke-linejoin:miter;stroke-miterlimit:10;stroke-dasharray:none;stroke-opacity:1"
             d="M 0,0 0,-6.166 -1.117,-9.333" /></g><g
           transform="translate(403.9778,226.25)"
           id="g878"><path
             id="path880"
             style="fill:none;stroke:#131414;stroke-width:1;stroke-linecap:butt;stroke-linejoin:miter;stroke-miterlimit:10;stroke-dasharray:none;stroke-opacity:1"
             d="M 0,0 0,-6.166 -1.117,-9.333" /></g><g
           transform="translate(422.1444,226.25)"
           id="g882"><path
             id="path884"
             style="fill:none;stroke:#131414;stroke-width:1;stroke-linecap:butt;stroke-linejoin:miter;stroke-miterlimit:10;stroke-dasharray:none;stroke-opacity:1"
             d="M 0,0 0,-6.166 -1.117,-9.333" /></g><g
           transform="translate(439.7527,226.25)"
           id="g886"><path
             id="path888"
             style="fill:none;stroke:#131414;stroke-width:1;stroke-linecap:butt;stroke-linejoin:miter;stroke-miterlimit:10;stroke-dasharray:none;stroke-opacity:1"
             d="M 0,0 0,-6.166 -1.117,-9.333" /></g><g
           transform="translate(457.1888,226.25)"
           id="g890"><path
             id="path892"
             style="fill:none;stroke:#131414;stroke-width:1;stroke-linecap:butt;stroke-linejoin:miter;stroke-miterlimit:10;stroke-dasharray:none;stroke-opacity:1"
             d="M 0,0 0,-6.166 -1.117,-9.333" /></g></g></g></g></svg>