<svg xmlns="http://www.w3.org/2000/svg" viewBox="0 -.001 399.99999 111.32217">
  <linearGradient id="a" x1="558.12842" x2="11.77" y1="955.59772" y2="955.59772" gradientUnits="userSpaceOnUse" gradientTransform="matrix(0.7055556,0,0,0.7055556,-0.12678834,-617.65058)">
    <stop offset="0" stop-color="#013A67"/>
    <stop offset="1" stop-color="#6CD1FF"/>
  </linearGradient>
  <path fill="url(#a)" d="M346.56256 19.517071l32.16346.200378L393.66404 4.18182l-55.03193-.201083-51.70946 51.911257-7.24041.40005.20179-49.941346-29.07242 29.671435-6.95396.824795V6.613871l-59.52137 58.891313-7.40058.7874.62936-60.593819-52.02061 52.820009-6.83119.0332-.80081-50.728036-28.065589 28.265263-7.806267.40005.295627-30.182257-74.1581261 74.75785 24.4249241-.40005 32.024462-31.081137h6.141862l-.296333 31.230717 25.507245-26.10344h6.098825v26.59027L74.007138 109.17065l26.900722-.39864 52.92866-53.527676h7.12893v26.29676l32.98967.20038 31.90381-32.103489 6.15809-.40005-.0952 30.348059 25.49243-25.49313h6.02262l.39935 25.70692-.5207 1.33773h77.02903l14.74681-14.94578-47.89381-.81421-.43533-6.95114 7.46195-7.859182 18.06999-.0021 15.6972-15.89899-9.48761-.400755v-6.690784"/>
  <linearGradient id="b" x1="64.709503" x2="60.764999" y1="938.78912" y2="934.84479" gradientUnits="userSpaceOnUse" gradientTransform="matrix(0.7055556,0,0,0.7055556,-0.12678834,-617.65058)">
    <stop offset="0" stop-color="#08406F"/>
    <stop offset="1" stop-color="#60C5F5"/>
  </linearGradient>
  <path fill="url(#b)" d="M80.921582 9.322498L9.5793283 80.664754l-8.0934282 3.04306s-.4261556.0275-.1912056-.31397c0 0 82.7334495-82.75602896 82.8830265-82.88232396.149578-.127705.329495-.01976.329495-.01976L80.921582 9.322493z"/>
  <linearGradient id="c" x1="123.2954" x2="119.6701" y1="1013.9102" y2="1010.2849" gradientUnits="userSpaceOnUse" gradientTransform="matrix(0.7055556,0,0,0.7055556,-0.12678834,-617.65058)">
    <stop offset="0" stop-color="#08406F"/>
    <stop offset="1" stop-color="#60C5F5"/>
  </linearGradient>
  <path fill="url(#c)" d="M102.87988 81.701214L76.408849 108.17436l-7.806973 3.14466s-.4064.0459-.166511-.28716l30.994352-30.867346 3.450163 1.5367z"/>
  <linearGradient id="d" x1="25.7236" x2="25.7236" y1="994.05078" y2="989.73828" gradientUnits="userSpaceOnUse" gradientTransform="matrix(0.7055556,0,0,0.7055556,-0.12678834,-617.65058)">
    <stop offset="0" stop-color="#08406F"/>
    <stop offset="1" stop-color="#60C5F5"/>
  </linearGradient>
  <path fill="url(#d)" d="M34.559524 83.707814H1.4859001l8.1117727-3.04306H32.603019"/>
  <linearGradient id="e" x1="121.1855" x2="121.1855" y1="1033.1816" y2="1028.7246" gradientUnits="userSpaceOnUse" gradientTransform="matrix(0.7055556,0,0,0.7055556,-0.12678834,-617.65058)">
    <stop offset="0" stop-color="#08406F"/>
    <stop offset="1" stop-color="#60C5F5"/>
  </linearGradient>
  <path fill="url(#e)" d="M102.15104 111.3162H68.601171l7.807678-3.14466h23.898581"/>
  <linearGradient id="f" x1="427.69379" x2="427.69379" y1="994.02338" y2="989.55658" gradientUnits="userSpaceOnUse" gradientTransform="matrix(0.7055556,0,0,0.7055556,-0.12678834,-617.65058)">
    <stop offset="0" stop-color="#08406F"/>
    <stop offset="1" stop-color="#60C5F5"/>
  </linearGradient>
  <path fill="url(#f)" d="M342.04418 83.688054l-80.81787-.0205 2.68817-3.12984 75.831-.001"/>
  <linearGradient id="g" x1="251.0645" x2="251.0645" y1="994.89447" y2="990.41602" gradientUnits="userSpaceOnUse" gradientTransform="matrix(0.7055556,0,0,0.7055556,-0.12678834,-617.65058)">
    <stop offset="0" stop-color="#08406F"/>
    <stop offset="1" stop-color="#60C5F5"/>
  </linearGradient>
  <path fill="url(#g)" d="M195.47629 84.302594l-36.35516-.0205c-.23495.004-.5715-.23636-.5715-.23636l3.21804-2.90336h31.7881l1.92052 3.16018z"/>
  <linearGradient id="h" x1="522.28082" x2="522.28082" y1="882.1875" y2="877.32422" gradientUnits="userSpaceOnUse" gradientTransform="matrix(0.7055556,0,0,0.7055556,-0.12678834,-617.65058)">
    <stop offset="0" stop-color="#08406F"/>
    <stop offset="1" stop-color="#60C5F5"/>
  </linearGradient>
  <path fill="url(#h)" d="M336.81954 1.34972h62.54892c.55386 0 .55386.220839.55386.220839l-7.45914 3.210278H339.4308l-2.61126-3.431117z"/>
  <linearGradient id="i" x1="515.01318" x2="515.01318" y1="906.71478" y2="902.50488" gradientUnits="userSpaceOnUse" gradientTransform="matrix(0.7055556,0,0,0.7055556,-0.12678834,-617.65058)">
    <stop offset="0" stop-color="#08406F"/>
    <stop offset="1" stop-color="#60C5F5"/>
  </linearGradient>
  <path fill="url(#i)" d="M380.3241 22.086705h-32.69897l-1.46192-2.970389h31.96308"/>
  <linearGradient id="j" x1="459.3696" x2="459.3696" y1="950.23053" y2="946.51172" gradientUnits="userSpaceOnUse" gradientTransform="matrix(0.7055556,0,0,0.7055556,-0.12678834,-617.65058)">
    <stop offset="0" stop-color="#08406F"/>
    <stop offset="1" stop-color="#60C5F5"/>
  </linearGradient>
  <path fill="url(#j)" d="M334.14337 52.789662h-17.41241l-2.90618-2.623256 18.06998-.0014"/>
  <linearGradient id="k" x1="490.16061" x2="490.16061" y1="925.11133" y2="919.55658" gradientUnits="userSpaceOnUse" gradientTransform="matrix(0.7055556,0,0,0.7055556,-0.12678834,-617.65058)">
    <stop offset="0" stop-color="#08406F"/>
    <stop offset="1" stop-color="#60C5F5"/>
  </linearGradient>
  <path fill="url(#k)" d="M346.99224 35.066105h-9.58144l-.84173-3.914422h17.96838c.24413-.03034.31115.103011.31115.103011l-7.85636 3.811411z"/>
  <linearGradient id="l" x1="74.389198" x2="70.846001" y1="968.8252" y2="965.28198" gradientUnits="userSpaceOnUse" gradientTransform="matrix(0.7055556,0,0,0.7055556,-0.12678834,-617.65058)">
    <stop offset="0" stop-color="#08406F"/>
    <stop offset="1" stop-color="#60C5F5"/>
  </linearGradient>
  <path fill="url(#l)" d="M68.348582 49.836206L34.559524 83.709224l-1.956505-3.04306 32.879596-32.713086c1.411111-1.63195 3.298472-1.221316 3.298472-1.221316l-.432505 3.104444z"/>
  <linearGradient id="m" x1="120.2554" x2="114.8892" y1="904.36908" y2="904.36908" gradientUnits="userSpaceOnUse" gradientTransform="matrix(0.7055556,0,0,0.7055556,-0.12678834,-617.65058)">
    <stop offset="0" stop-color="#08406F"/>
    <stop offset="1" stop-color="#60C5F5"/>
  </linearGradient>
  <path fill="url(#m)" d="M80.934282 36.455344V9.308387L84.50651.48964804s.213784.05292.213784.402872V38.743461l-.22225 1.630539c0 .000706-3.172178.01764-3.563762-3.918656z"/>
  <linearGradient id="n" x1="173.0811" x2="166.4209" y1="919.96088" y2="919.96088" gradientUnits="userSpaceOnUse" gradientTransform="matrix(0.7055556,0,0,0.7055556,-0.12678834,-617.65058)">
    <stop offset="0" stop-color="#08406F"/>
    <stop offset="1" stop-color="#60C5F5"/>
  </linearGradient>
  <path fill="url(#n)" d="M121.99197 62.683664s-4.61362 1.37584-4.67148-3.96875c-.0564-5.15972-.009-48.888649-.009-48.888649l3.67876-9.80439996s.12842-.01905.12842.511527l-.012 57.70951196.88547 4.44076z"/>
  <linearGradient id="o" x1="255.9883" x2="249.9951" y1="925.21582" y2="925.21582" gradientUnits="userSpaceOnUse" gradientTransform="matrix(0.7055556,0,0,0.7055556,-0.12678834,-617.65058)">
    <stop offset="0" stop-color="#08406F"/>
    <stop offset="1" stop-color="#60C5F5"/>
  </linearGradient>
  <path fill="url(#o)" d="M180.48747 69.786494s-4.15502.40711-4.20511-4.29542l-.0233-56.488898L179.5406.48541504s.41133.10795.41133.63993896l-.0113 64.30434.5468 4.3568z"/>
  <linearGradient id="p" x1="349.27689" x2="343.57571" y1="904.625" y2="904.625" gradientUnits="userSpaceOnUse" gradientTransform="matrix(0.7055556,0,0,0.7055556,-0.12678834,-617.65058)">
    <stop offset="0" stop-color="#08406F"/>
    <stop offset="1" stop-color="#60C5F5"/>
  </linearGradient>
  <path fill="url(#p)" d="M246.30734 40.516522s-3.43464.318912-4.02237-3.21945V9.270287l3.09951-8.57038296s.39722.09454.39722.62512196v35.04283l.52564 4.148666z"/>
  <linearGradient id="q" x1="400.96039" x2="395.1636" y1="918.44629" y2="918.44629" gradientUnits="userSpaceOnUse" gradientTransform="matrix(0.7055556,0,0,0.7055556,-0.12678834,-617.65058)">
    <stop offset="0" stop-color="#08406F"/>
    <stop offset="1" stop-color="#60C5F5"/>
  </linearGradient>
  <path fill="url(#q)" d="M282.77328 60.207164s-3.48404.45368-4.09011-3.08539V9.351426l3.42195-8.85048896s.18909.155928.18909 1.20508896v54.487238l.47907 4.0139z"/>
  <linearGradient id="r" x1="101.7651" x2="96.654297" y1="968.93848" y2="968.93848" gradientUnits="userSpaceOnUse" gradientTransform="matrix(0.7055556,0,0,0.7055556,-0.12678834,-617.65058)">
    <stop offset="0" stop-color="#08406F"/>
    <stop offset="1" stop-color="#60C5F5"/>
  </linearGradient>
  <path fill="url(#r)" d="M68.97441 85.245224s-.587728-.0487-.570795-.81069c-.000706-.64699-.05503-34.597622-.05503-34.597622s-.859367-1.112661.432505-3.104445c.385939.09243 2.465917.512939 2.893484 3.002845v28.483282l-2.700161 7.02663z"/>
  <linearGradient id="s" x1="121.2485" x2="117.6964" y1="973.83789" y2="970.28583" gradientUnits="userSpaceOnUse" gradientTransform="matrix(0.7055556,0,0,0.7055556,-0.12678834,-617.65058)">
    <stop offset="0" stop-color="#08406F"/>
    <stop offset="1" stop-color="#60C5F5"/>
  </linearGradient>
  <path fill="url(#s)" d="M99.372567 55.455254s-29.272796 29.31442-29.550785 29.58959c-.244122.2674-.848078.19896-.848078.19896l2.700161-7.02945 25.441629-25.462086s.945445-1.218495 2.702984-1.154995l-.445911 3.857981z"/>
  <linearGradient id="t" x1="553.43597" x2="549.76727" y1="892.5" y2="888.83112" gradientUnits="userSpaceOnUse" gradientTransform="matrix(0.7055556,0,0,0.7055556,-0.12678834,-617.65058)">
    <stop offset="0" stop-color="#08406F"/>
    <stop offset="1" stop-color="#60C5F5"/>
  </linearGradient>
  <path fill="url(#t)" d="M399.77415 2.567509l-19.44934 19.519196-2.19781-2.971095 14.33124-14.339712 7.46619-3.204633c0 .000705.24624.597605-.15028.996244z"/>
  <linearGradient id="u" x1="145.99409" x2="140.5957" y1="969.87891" y2="969.87891" gradientUnits="userSpaceOnUse" gradientTransform="matrix(0.7055556,0,0,0.7055556,-0.12678834,-617.65058)">
    <stop offset="0" stop-color="#08406F"/>
    <stop offset="1" stop-color="#60C5F5"/>
  </linearGradient>
  <path fill="url(#u)" d="M99.429717 80.162394l-.05574-24.71208s-.917928-1.85773.445205-3.849513c.418398-.0049 2.610558.297039 3.061408 2.925233l-.00071 27.178-3.450164-1.54164z"/>
  <linearGradient id="v" x1="148.7769" x2="144.28909" y1="907.00983" y2="902.52197" gradientUnits="userSpaceOnUse" gradientTransform="matrix(0.7055556,0,0,0.7055556,-0.12678834,-617.65058)">
    <stop offset="0" stop-color="#08406F"/>
    <stop offset="1" stop-color="#60C5F5"/>
  </linearGradient>
  <path fill="url(#v)" d="M117.31202 9.82556L88.058277 39.080011c-1.401939 1.401234-3.559528 1.2954-3.559528 1.2954-1.266472-2.491316.22225-4.279194.22225-4.279194S120.35367.47271504 120.6105.20460304c.23353-.294216.3817-.186266.3817-.186266L117.31202 9.82556z"/>
  <linearGradient id="w" x1="215.8457" x2="211.688" y1="922.32129" y2="918.16357" gradientUnits="userSpaceOnUse" gradientTransform="matrix(0.7055556,0,0,0.7055556,-0.12678834,-617.65058)">
    <stop offset="0" stop-color="#08406F"/>
    <stop offset="1" stop-color="#60C5F5"/>
  </linearGradient>
  <path fill="url(#w)" d="M176.25837 9.004293l-52.4764 52.475701c-1.09361 1.09431-1.79 1.20156-1.79 1.20156-2.6677-1.32504-.85584-4.41325-.85584-4.41325s56.90447-56.892478 57.1613-57.160589c.66534-.77117296 1.24248-.62300596 1.24248-.62300596L176.25837 9.004293z"/>
  <linearGradient id="x" x1="304.31589" x2="299.9317" y1="927.81049" y2="923.42627" gradientUnits="userSpaceOnUse" gradientTransform="matrix(0.7055556,0,0,0.7055556,-0.12678834,-617.65058)">
    <stop offset="0" stop-color="#08406F"/>
    <stop offset="1" stop-color="#60C5F5"/>
  </linearGradient>
  <path fill="url(#x)" d="M242.28497 9.270287l-59.38168 59.380267c-1.00824 1.01035-2.41582 1.13453-2.41582 1.13453-2.1978-1.09784-.54751-4.3568-.54751-4.3568s63.93039-63.852786 64.18722-64.121603c.66392-.77469996 1.25659-.60818896 1.25659-.60818896l-3.0988 8.57179496z"/>
  <linearGradient id="y" x1="376.97119" x2="372.76331" y1="906.86133" y2="902.65302" gradientUnits="userSpaceOnUse" gradientTransform="matrix(0.7055556,0,0,0.7055556,-0.12678834,-617.65058)">
    <stop offset="0" stop-color="#08406F"/>
    <stop offset="1" stop-color="#60C5F5"/>
  </linearGradient>
  <path fill="url(#y)" d="M278.68317 9.351426l-29.99528 29.995991c-1.00824 1.010355-2.38055 1.169105-2.38055 1.169105-2.06869-1.3462-.41486-4.221339-.41486-4.221339S280.87674 1.236126 281.13286.96801504c.73872-.728839.97155-.465667.97155-.465667L278.68317 9.351426z"/>
  <linearGradient id="z" x1="488.73779" x2="485.28159" y1="935.26459" y2="931.80859" gradientUnits="userSpaceOnUse" gradientTransform="matrix(0.7055556,0,0,0.7055556,-0.12678834,-617.65058)">
    <stop offset="0" stop-color="#08406F"/>
    <stop offset="1" stop-color="#60C5F5"/>
  </linearGradient>
  <path fill="url(#z)" d="M354.86483 32.069611l-20.72146 20.720051-2.24931-2.626078 15.09818-15.097479 7.85636-3.810705s.2921.207433.0162.814211z"/>
  <linearGradient id="A" x1="499.80811" x2="495.84851" y1="979.37701" y2="975.41748" gradientUnits="userSpaceOnUse" gradientTransform="matrix(0.7055556,0,0,0.7055556,-0.12678834,-617.65058)">
    <stop offset="0" stop-color="#08406F"/>
    <stop offset="1" stop-color="#60C5F5"/>
  </linearGradient>
  <path fill="url(#A)" d="M362.39734 63.471774l-20.35386 20.21487-2.2987-3.1503 14.14568-14.14569 8.67057-3.79589c.00071.002.28011.30692-.16369.87701z"/>
  <linearGradient id="B" x1="441.8374" x2="437.55469" y1="921.61328" y2="917.33063" gradientUnits="userSpaceOnUse" gradientTransform="matrix(0.7055556,0,0,0.7055556,-0.12678834,-617.65058)">
    <stop offset="0" stop-color="#08406F"/>
    <stop offset="1" stop-color="#60C5F5"/>
  </linearGradient>
  <path fill="url(#B)" d="M339.4308 4.781543l-54.26569 54.266401c-1.00894 1.01035-2.39536 1.15993-2.39536 1.15993-1.72791-2.18158-.48401-4.21852-.48401-4.21852l54.53168-54.638223 2.61338 3.430412z"/>
  <linearGradient id="C" x1="486.85889" x2="481.74481" y1="916.64941" y2="911.53528" gradientUnits="userSpaceOnUse" gradientTransform="matrix(0.7055556,0,0,0.7055556,-0.12678834,-617.65058)">
    <stop offset="0" stop-color="#08406F"/>
    <stop offset="1" stop-color="#60C5F5"/>
  </linearGradient>
  <path fill="url(#C)" d="M347.62513 22.086705l-8.94363 9.021234c-1.95509 1.610077-1.2707 3.956755-1.2707 3.956755-1.5875-.148166-2.20486-1.456972-2.40736-2.607028-.20108-1.150055.21378-2.414411.95109-3.151716l10.20868-10.188223 1.46192 2.968978z"/>
  <linearGradient id="D" x1="185.9771" x2="182.33521" y1="992.33008" y2="988.68817" gradientUnits="userSpaceOnUse" gradientTransform="matrix(0.7055556,0,0,0.7055556,-0.12678834,-617.65058)">
    <stop offset="0" stop-color="#08406F"/>
    <stop offset="1" stop-color="#60C5F5"/>
  </linearGradient>
  <path fill="url(#D)" d="M100.30884 108.17295l54.97195-54.993116s1.01389-1.321505 3.01061-1.249539l-.32174 3.685119s-55.50323 55.390346-55.81862 55.702196l-1.8422-3.14466z"/>
  <linearGradient id="E" x1="303.0278" x2="299.3873" y1="969.13959" y2="965.49908" gradientUnits="userSpaceOnUse" gradientTransform="matrix(0.7055556,0,0,0.7055556,-0.12678834,-617.65058)">
    <stop offset="0" stop-color="#08406F"/>
    <stop offset="1" stop-color="#60C5F5"/>
  </linearGradient>
  <path fill="url(#E)" d="M193.55507 81.141704l33.61478-33.62607s1.01389-1.320095 3.01061-1.249539l-.60466 3.965928-34.09598 34.071281-1.92475-3.1616z"/>
  <linearGradient id="F" x1="349.88919" x2="346.37991" y1="973.08502" y2="969.57562" gradientUnits="userSpaceOnUse" gradientTransform="matrix(0.7055556,0,0,0.7055556,-0.12678834,-617.65058)">
    <stop offset="0" stop-color="#08406F"/>
    <stop offset="1" stop-color="#60C5F5"/>
  </linearGradient>
  <path fill="url(#F)" d="M232.92154 77.787494l25.94963-25.956682c.59408-.594783 1.25518-1.249539 2.39607-1.249539l-.0755 3.881261-30.39604 30.36923c-.40146.39723-.71896.28152-.71896.28152l2.8448-7.32579z"/>
  <linearGradient id="G" x1="370.8042" x2="366.38129" y1="993.63959" y2="989.21692" gradientUnits="userSpaceOnUse" gradientTransform="matrix(0.7055556,0,0,0.7055556,-0.12678834,-617.65058)">
    <stop offset="0" stop-color="#08406F"/>
    <stop offset="1" stop-color="#60C5F5"/>
  </linearGradient>
  <path fill="url(#G)" d="M255.39984 83.295774l5.11527-5.13715 3.92078 1.64112-.51788.73871-2.69028 3.13055-.19192.21167h-5.44688c-.23989.01-.3676-.1912-.3676-.1912s-.10936-.10372.17851-.3937z"/>
  <linearGradient id="H" x1="229.457" x2="223.4189" y1="971.76862" y2="971.76862" gradientUnits="userSpaceOnUse" gradientTransform="matrix(0.7055556,0,0,0.7055556,-0.12678834,-617.65058)">
    <stop offset="0" stop-color="#08406F"/>
    <stop offset="1" stop-color="#60C5F5"/>
  </linearGradient>
  <path fill="url(#H)" d="M158.03246 82.788474l-.0635-27.17447s-1.22626-1.4224.32244-3.68512c.47484-.0071 2.96474.337256 3.47698 3.32105l-.00071 25.88966-3.21804 2.90336c0 .002-.51505-.33514-.51717-1.25448z"/>
  <linearGradient id="I" x1="330.3042" x2="325.09229" y1="968.51862" y2="968.51862" gradientUnits="userSpaceOnUse" gradientTransform="matrix(0.7055556,0,0,0.7055556,-0.12678834,-617.65058)">
    <stop offset="0" stop-color="#08406F"/>
    <stop offset="1" stop-color="#60C5F5"/>
  </linearGradient>
  <path fill="url(#I)" d="M229.62236 84.627854l-.0564-34.395831s-1.03858-1.891595.61454-3.965928c.42051-.0063 2.28811.333022 2.74108 3.317522v28.204587l-2.84198 7.33072c-.003-.001-.42686-.10089-.4572-.49107z"/>
  <linearGradient id="J" x1="374.97021" x2="368.7251" y1="967.80658" y2="967.80658" gradientUnits="userSpaceOnUse" gradientTransform="matrix(0.7055556,0,0,0.7055556,-0.12678834,-617.65058)">
    <stop offset="0" stop-color="#08406F"/>
    <stop offset="1" stop-color="#60C5F5"/>
  </linearGradient>
  <path fill="url(#J)" d="M260.51511 78.157914v-23.02157s-1.49083-2.384076.75072-4.555071c.48895-.0056 2.91535.169333 3.16935 3.050121v26.16764l-3.92007-1.64112z"/>
  <linearGradient id="K" x1="440.63721" x2="436.21909" y1="959.6748" y2="955.25677" gradientUnits="userSpaceOnUse" gradientTransform="matrix(0.7055556,0,0,0.7055556,-0.12678834,-617.65058)">
    <stop offset="0" stop-color="#08406F"/>
    <stop offset="1" stop-color="#60C5F5"/>
  </linearGradient>
  <path fill="url(#K)" d="M316.73096 52.789662l-9.49043 9.510182-2.71215 3.39302c-2.74885-1.73426-1.37795-4.84999-.64347-5.59153l9.93987-9.933517 2.90618 2.621845z"/>
  <linearGradient id="L" x1="472.92041" x2="472.92041" y1="969.50983" y2="963.70801" gradientUnits="userSpaceOnUse" gradientTransform="matrix(0.7055556,0,0,0.7055556,-0.12678834,-617.65058)">
    <stop offset="0" stop-color="#08406F"/>
    <stop offset="1" stop-color="#60C5F5"/>
  </linearGradient>
  <path fill="url(#L)" d="M353.89258 66.391364h-46.84255c-1.7653-.13829-2.52165-.69991-2.52165-.69991-.008-2.51954 2.71215-3.39302 2.71215-3.39302l54.85413.00071c.38312-.00071.46708.29774.46708.29774l-8.66916 3.79448z"/>
  <path d="M0 100.22769v-6.717596h2.0291779l1.2192001 4.58188 1.2050889-4.58188h2.0341168v6.717596H5.228167v-5.288846l-1.3335001 5.288846H2.5886835l-1.3285612-5.288846v5.288846H0zm12.15249-6.719006h1.356077v3.63714c0 .57574.01693.9525.0501 1.12325.05856.27587.196144.49459.414867.66181.218722.16721.516466.24976.896055.24976.384528 0 .675217-.0776.870656-.23565.195439-.15734.312561-.34996.352778-.57926.03951-.2286.05927-.6089.05927-1.14018v-3.71687h1.356078v3.52849c0 .80715-.03669 1.37583-.109361 1.70956-.07338.33302-.208844.61383-.405694.84173-.19685.2286-.460023.41063-.790223.545386-.3302.13547-.760589.20391-1.292578.20391-.64135 0-1.128183-.0734-1.459089-.22084-.331611-.148876-.593372-.340076-.785988-.577146-.192617-.23636-.318912-.48542-.380295-.74577-.08819-.38453-.132644-.95462-.132644-1.70462v-3.5807zm11.148484 6.719006v-6.662556h1.356077v5.53155h3.372556v1.131706h-4.728633v-.0007zm10.837334 0v-5.580946h-1.993195v-1.13594h5.338234v1.13594h-1.988962v5.580946h-1.356077zm8.504061 0v-6.717596h1.356078v6.717596h-1.356078zm6.975123 0v-6.717596h2.176639c.824794 0 1.362428.0339 1.6129.1016.384528.10301.706967.31962.966611.6597.259644.33796.389467.7747.389467 1.3081 0 .41204-.07479.75847-.224367 1.0421-.149578.2794-.340078.50165-.570794.66182-.230717.16157-.464962.2667-.703439.31891-.32385.0635-.793045.0959-1.406878.0959h-.884061v2.535766l-1.356078-.006zm1.356078-5.580946v1.90571h.742244c.534106 0 .891822-.0374 1.072445-.10583.180622-.0692.321733-.17922.424038-.3295.102306-.15028.153106-.32385.153106-.52211 0-.24412-.07197-.44662-.215194-.60396-.143934-.15875-.325262-.25541-.545395-.29774-.161572-.0303-.487539-.0445-.975783-.0445l-.655461-.002zm9.265356 5.580946v-6.662556h1.356078v5.53155h3.372555v1.131706h-4.728633v-.0007zm10.021711 0v-6.717596h4.980517v1.13524h-3.624439v1.48731h3.372556v1.13172h-3.372556v1.8288h3.75285v1.131706l-5.108928.003zm63.770933 0h-1.47531l-.58632-1.526816h-2.68534l-.55457 1.526816h-1.43863l2.6162-6.717596h1.43369l2.69028 6.717596zm-2.49696-2.659236l-.92639-2.49202-.90735 2.49202h1.83374zm7.54733 2.659236v-6.717596h2.85468c.71825 0 1.23966.0607 1.56492.18204.32526.12065.58561.33655.78105.64346.19544.30904.29351.66181.29351 1.05834 0 .50376-.14816.92004-.4445 1.24954-.29563.32808-.73871.53481-1.32856.62018.29351.17074.53481.35983.72602.56374.1912.20532.44803.57009.77188 1.0922l.81985 1.309506h-1.62207l-.98072-1.461906c-.34784-.52141-.58703-.85161-.71473-.98637-.12771-.13335-.26458-.22719-.40781-.2794-.14323-.0487-.37112-.0734-.68298-.0734h-.27446v2.806696h-1.35608v-.007zm1.35608-3.877736h1.0033c.65052 0 1.05692-.0261 1.21849-.0811.16228-.0543.28858-.15029.3803-.28364.0917-.13264.13758-.30339.13758-.50376 0-.22578-.06-.40852-.18062-.54752-.12065-.13617-.29069-.22436-.51082-.26176-.11007-.0148-.43956-.0219-.9899-.0219h-1.05833v1.69968zm14.03985 1.40618l1.31516.41839c-.20179.73449-.53693 1.27917-1.00542 1.63195-.46849.355596-1.06398.534106-1.78506.534106-.89182 0-1.62489-.30551-2.19921-.914396-.57433-.60678-.86149-1.44216-.86149-2.49908 0-1.11831.28858-1.98473.86643-2.6028.57714-.61877 1.33632-.92639 2.27753-.92639.82197 0 1.48872.24271 2.00237.72672.3055.28646.5341.69991.68721 1.23825l-1.34268.31891c-.0797-.34642-.24482-.62159-.49741-.82409-.25259-.20037-.5581-.30197-.91864-.30197-.49812 0-.9017.1778-1.21214.53622-.31044.35772-.46567.93557-.46567 1.73637 0 .84879.15311 1.45486.45861 1.81469.30551.35983.70274.54116 1.19098.54116.36054 0 .67028-.1143.92992-.3429.26035-.23283.44662-.59266.55951-1.08514zm12.86228 2.471556h-1.47532l-.58702-1.526816h-2.68535l-.55456 1.526816h-1.43863l2.6162-6.717596h1.43439l2.69029 6.717596zm-2.49696-2.659236l-.9264-2.49202-.90734 2.49202h1.83374zm7.53815-4.05977h2.47933c.5588 0 .98495.0437 1.27846.12912.39441.11642.73166.32244 1.01247.61877.28082.29563.4953.6604.64206 1.08797.14676.42898.22013.95814.22013 1.5882 0 .55175-.0691 1.0287-.20602 1.42875-.16792.48754-.40781.88477-.71967 1.18675-.23495.2293-.55315.40781-.9532.537626-.29916.096-.69921.14323-1.20015.14323h-2.552v-6.717596l-.001-.003zm1.35608 1.13806v4.44994h1.01247c.37889 0 .65194-.0212.82056-.0649.22014-.0543.40217-.14887.54752-.2794.14534-.13264.26387-.34572.35489-.64911.0917-.30057.13758-.71049.13758-1.22978 0-.51718-.0459-.91793-.13758-1.1938-.0917-.2794-.22013-.4946-.38453-.65194-.1651-.15734-.37394-.26035-.62794-.31538-.1898-.0445-.56092-.0635-1.11337-.0635l-.6096-.002zm9.75148 5.580946v-6.717596h4.98052v1.13524h-3.62444v1.48731h3.37256v1.13172h-3.37256v1.8288h3.75285v1.131706l-5.10893.003zm16.31033 0v-6.717596h2.02989l1.2199 4.58188 1.20439-4.58188h2.03411v6.717596h-1.25941v-5.288846l-1.33421 5.288846h-1.3081l-1.33138-5.288846v5.288846h-1.25519zm18.21815 0h-1.47461l-.58702-1.526816h-2.68746l-.55174 1.526816h-1.43934l2.61691-6.717596h1.43157l2.69169 6.717596zm-2.49696-2.659236l-.92639-2.49202-.90735 2.49202h1.83374zm11.84205.18768l1.31445.41839c-.20108.73449-.53693 1.27917-1.00542 1.63195-.46919.356306-1.06468.534106-1.78505.534106-.89183 0-1.6249-.30551-2.19781-.914396-.57362-.60678-.86289-1.44216-.86289-2.49908 0-1.11831.28857-1.98473.86712-2.6028.57715-.61877 1.33774-.92639 2.27824-.92639.82198 0 1.48731.24271 2.00308.72672.30621.28646.53622.69991.68932 1.23825l-1.34196.31891c-.0783-.34642-.24695-.62159-.49671-.82409-.25118-.20037-.5581-.30197-.91934-.30197-.49742 0-.901.1778-1.21215.53622-.30974.35772-.46566.93557-.46566 1.73637 0 .84879.15381 1.45486.4572 1.81469.30621.35983.70132.54116 1.19097.54116.35984 0 .66746-.1143.9264-.3429.26035-.23283.44661-.59266.56021-1.08514zm6.80932 2.471556v-6.717596h1.35678v2.64443h2.65712v-2.64443h1.35749v6.717596h-1.35749v-2.937926h-2.65712v2.937926h-1.35678zm11.05746 0v-6.717596h1.35679v6.717596h-1.35679zm6.98712 0v-6.717596h1.32009l2.74885 4.48522v-4.48522h1.26012v6.717596h-1.36102l-2.70862-4.380796v4.380796h-1.25942zm11.08992 0v-6.717596h4.98123v1.13524h-3.62515v1.48731h3.37256v1.13172h-3.37256v1.8288h3.75285v1.131706l-5.10893.003zm16.86349 0v-6.717596h4.98122v1.13524h-3.62444v1.48731h3.37256v1.13172h-3.37256v1.8288h3.75285v1.131706l-5.10963.003zm10.56781 0v-6.717596h2.02988l1.2192 4.58188 1.2058-4.58188h2.03411v6.717596h-1.258v-5.288846l-1.33562 5.288846h-1.30669l-1.32926-5.288846v5.288846h-1.25942zm12.15178-6.719006h1.35608v3.63714c0 .57574.0162.9525.0494 1.12325.0579.27587.19262.49459.41487.66181.21942.16651.51435.24976.89605.24976.38594 0 .67522-.0776.87066-.23565.19544-.15734.31256-.34996.35278-.57926.0402-.2286.0593-.6089.0593-1.14018v-3.71687h1.35749v3.52849c0 .80715-.0374 1.37583-.11007 1.70956-.0734.33302-.20955.61383-.40498.84173-.19685.2286-.46003.41063-.79093.545386-.3295.13547-.76059.20391-1.29117.20391-.64205 0-1.12889-.0734-1.45909-.22084-.33231-.148876-.59408-.340076-.78246-.577146-.1912-.23636-.3182-.48542-.37888-.74577-.0896-.38453-.13335-.95462-.13335-1.70462v-3.58211l-.006.001zm11.14849 6.719006v-6.662556h1.35607v5.53155h3.37327v1.131706h-4.72934v-.0007zm16.0789 0h-1.47602l-.58561-1.526816h-2.68605l-.55386 1.526816h-1.43863l2.6155-6.717596h1.43439l2.69028 6.717596zm-2.49696-2.659236l-.92639-2.49202-.90664 2.49202h1.83303zm8.35942 2.659236v-5.580946h-1.9939v-1.13594h5.33683v1.13594h-1.98685v5.580946h-1.35608zm8.09978-3.318226c0-.6858.10301-1.25801.30904-1.72156.15169-.34148.35983-.64911.62441-.92286.26459-.27305.55386-.47272.86784-.60255.4191-.17709.90099-.26529 1.4485-.26529.98919 0 1.78153.30904 2.37561.92075.59408.61384.89182 1.46827.89182 2.56329 0 1.08303-.29492 1.9311-.88477 2.54353-.58984.611706-1.37795.918626-2.36502.918626-.99907 0-1.79282-.30551-2.38266-.914396-.58984-.60889-.88477-1.45133-.88477-2.51954zm1.39912-.0466c0 .76059.17498 1.33774.52634 1.72862.35137.3937.79799.58843 1.33774.58843.54186 0 .98495-.19262 1.33138-.58208.34713-.39088.51929-.97438.51929-1.75331 0-.76906-.16792-1.34197-.50588-1.72085-.33867-.37747-.78529-.56797-1.34479-.56797-.55951 0-1.00895.1912-1.35185.57361-.3429.38241-.51223.96097-.51223 1.73355zm10.50572 3.364796v-6.717596h2.85539c.71825 0 1.23895.0607 1.56421.18204.32526.12065.58561.33655.78105.64346.19544.30904.29351.66181.29351 1.05834 0 .50376-.14887.92004-.4452 1.24954-.29633.32808-.73872.53481-1.32856.62018.29351.17074.53622.35983.72037.56374.19121.20532.45508.57009.77752 1.0922l.81562 1.309506h-1.61995l-.98143-1.461906c-.34713-.52141-.58561-.85161-.71402-.98637-.13124-.13335-.26459-.22719-.40781-.2794-.14323-.0487-.37042-.0734-.6851-.0734h-.27587v2.806696h-1.35467v-.004h.003v-.001h.002zm1.35608-3.877736h1.00471c.65052 0 1.05692-.0261 1.2185-.0811.16227-.0543.28927-.15029.3817-.28364.091-.13264.13617-.30339.13617-.50376 0-.22578-.0607-.40852-.18203-.54752-.11994-.13617-.28928-.22436-.51012-.26176-.11006-.0148-.43956-.0219-.98919-.0219h-1.05974v1.69968z"/>
</svg>
