<svg xmlns="http://www.w3.org/2000/svg" viewBox="144 324 542.49677 105.88511">
  <path d="M179.96664 325.24884c-3.86309 1.26549-8.59203 3.66327-13.25437 6.59388-1.86494 1.19889-4.19611 2.13136-5.19519 2.13136-4.26271 0-11.32283 6.72709-15.25251 14.58647L144 352.95647v10.98981c0 9.19147.19981 11.38943 1.19889 13.25437.59944 1.26549 1.13228 2.59759 1.13228 3.06382 0 1.53191 4.39592 9.05827 7.19333 12.32191 3.59666 4.1961 7.65956 6.19425 11.38943 5.59481 1.99815-.33303 3.06383-.19982 3.92969.53283 5.4616 4.79556 20.4477 6.66049 31.43751 3.86309 8.39221-2.06475 13.45418-4.26271 14.12023-6.06105l.59945-1.59851 1.4653 1.99814c4.12951 5.72802 7.25993 7.32654 10.59018 5.395 1.66512-.99907 2.39777-1.06568 5.12857-.39963 1.73173.39963 9.5245.79926 17.45048.86586 14.32005.13321 14.38666.13321 16.78443-1.53191 3.26364-2.19796 3.39685-4.99537.33303-8.85845-1.19889-1.53191-2.7308-3.92969-3.39685-5.39499-1.66512-3.66327-3.13043-13.5874-3.13043-20.91394 0-5.5282.13321-6.19425 1.13228-5.99444 1.06568.19982 8.72524 9.5245 8.79185 10.65678.0666.26642 1.3321 2.26457 2.93061 4.32932 1.53192 2.13136 3.13043 4.46253 3.59667 5.19518.46623.73266 3.39685 5.52821 6.46067 10.72339 6.39407 10.59017 8.39222 12.92135 11.05641 12.92135 2.53099 0 7.06012-4.72895 9.99073-10.45697 1.2655-2.46438 3.46346-6.46067 4.86216-8.79185 1.3987-2.33117 3.99629-7.45974 5.86123-11.32283 3.79648-7.99258 7.19333-13.38758 8.45882-13.38758 1.06568 0 .99907 1.79833-.13321 2.19796-.46623.19982-1.06568 1.3321-1.26549 2.59759-.19982 1.19889-.66605 3.53006-1.13229 5.19519-.39963 1.66512-.66605 5.39499-.53284 8.32561.33303 6.79369 2.5976 11.72246 7.72617 16.3848 3.13043 2.86401 3.92969 3.26364 6.46067 3.26364 1.59852 0 3.13043.33302 3.33025.66605.73265 1.13228 5.79462 3.46345 9.65771 4.39592 10.45696 2.53098 20.84733-.59945 26.44214-7.92598 1.13228-1.53192 3.06382-5.32839 4.26271-8.39222l2.19796-5.59481-2.53099-2.19796-2.46438-2.13136 2.53099-2.33117c2.53098-2.33117 2.53098-2.39777 2.46438-7.32653-.0666-4.46253-.33303-5.26179-2.46438-8.52543-1.3321-1.99815-2.79741-4.0629-3.26364-4.66234-1.3987-1.73173-7.32654-5.26179-8.79185-5.26179-.79925 0-3.46345-1.06568-5.99443-2.33117-7.85938-3.92969-12.78814-3.13043-23.31171 3.79648-3.26364 2.19796-6.26086 3.79648-6.7271 3.59666-.46623-.13321-.99907-1.59851-1.19889-3.13043-.59944-4.72894-.19981-4.66234-19.58183-4.86215-6.99351-.0666-7.52635 0-9.12487 1.53191-2.59759 2.46438-2.46438 7.19333.26642 10.25715 1.99815 2.33117 2.59759 4.66234 1.26549 5.4616-.33302.26642-.93247 1.19889-1.26549 2.06475-1.06568 2.79741-2.93061 1.93155-5.19518-2.39777l-2.13136-3.99629 1.39871-2.7308c1.33209-2.39778 1.33209-2.93062.59944-5.3284-1.59852-4.79555-1.53191-4.72894-18.44955-4.99536l-15.05271-.19982-2.33117 2.33117c-2.33117 2.33118-3.72987 2.79741-4.46252 1.59852-.93247-1.53191-5.99444-3.39685-11.12302-4.0629-10.39036-1.3987-20.71412 1.39871-24.64381 6.7271-2.59759 3.59666-2.86401 2.7308-2.99722-8.92506 0-6.72709-.33302-11.38943-.79925-12.3219-.86587-1.59852-4.59574-3.66327-9.99074-5.4616-4.99536-1.66512-20.04807-1.66512-25.04343 0zm24.04436 4.52913c6.32746 2.26457 6.12765 1.66512 6.39407 14.51987l.19981 11.32283-1.79833.19981c-2.33117.26642-4.52913-1.93154-4.52913-4.46253 0-4.59573-6.46067-12.18869-11.58925-13.7206-6.19425-1.86494-11.38944-.99908-16.45141 2.7308-3.86308 2.7974-6.32746 6.32746-8.32561 11.92227-1.33209 3.72988-1.59851 5.59481-1.59851 12.65493 0 7.32654.19981 8.72524 1.59851 11.78906.86587 1.93155 2.59759 4.52914 3.86309 5.79463 3.39685 3.39685 10.19054 7.25993 14.32005 8.05919 6.06104 1.26549 8.99166.26642 16.98424-5.79463 2.19796-1.66512 4.46253-2.86401 5.4616-2.86401h1.73173v13.12117l-2.46438 1.06567c-9.5245 4.12951-26.37554 4.32932-33.50226.33303-2.46438-1.3321-5.5282-3.39685-6.52728-4.32932-1.19888-1.13228-3.53006-1.06568-5.19518.13321-1.26549.86586-1.53191.73265-3.39685-1.19889-3.59666-3.86308-7.65956-11.45604-8.99166-16.78443-1.13228-4.39592-1.3987-13.654-.53283-18.64936.86586-4.86216 2.93061-8.99166 7.12672-14.18684 2.53098-3.06383 3.99629-3.46346 5.66141-1.53192 1.53191 1.79834 3.79648 1.06568 4.32932-1.33209.26642-1.39871 1.3321-2.53099 3.79648-4.0629 3.66327-2.33117 10.59017-5.52821 13.18777-6.12765 3.26363-.66605 16.85103.19981 20.24788 1.3987zm-13.12116 11.85567c1.06568.53284 3.06382 2.26457 4.46252 3.86308 2.39778 2.7308 3.26364 4.66235 4.79556 11.05641.66604 2.93062 2.26456 4.0629 4.1295 2.86401 3.26364-1.99814 9.99073.0666 9.99073 3.13043 0 2.53099 2.46438 3.72988 7.59296 3.66327 3.86308 0 5.26178-.33302 7.79277-1.79833 1.66512-.99907 3.66327-1.79833 4.39592-1.79833 1.46531 0 3.33025 1.73173 2.6642 2.46438-1.19889 1.13228-7.85938 2.86401-10.98981 2.7308-1.99815-.0666-3.79648.19981-3.99629.53284-.26642.33302-1.73173 1.46531-3.26364 2.53098-1.73173 1.13229-3.33025 2.93062-3.99629 4.46253l-1.13229 2.59759h-4.26271c-4.1295 0-4.32932.0666-7.99259 3.26364-4.79555 4.1295-8.259 6.06105-10.85659 6.06105-4.79555 0-14.45326-6.46068-16.85104-11.32284-.46623-.93246-1.19888-3.79647-1.66512-6.39406-1.93154-11.18962 2.33117-23.97776 9.12487-27.57443 2.93062-1.53191 7.45975-1.73172 10.05734-.33302zm58.7455 9.72431c1.59852.93247 3.66327 2.7308 4.46253 4.0629 1.53191 2.26457 1.59852 2.99722 1.73173 14.91949.13321 14.45326.86586 17.7169 5.26178 23.1119 1.39871 1.73173 2.46438 3.53006 2.26457 3.99629-.19981.59945-3.92969.79926-14.91949.73266-12.1887-.0666-15.05271-.26642-16.85104-1.19889-2.7308-1.3321-3.59666-1.3321-4.66234-.0666-1.79833 2.19796-3.79648 1.19889-6.32746-3.06382-1.2655-2.19796-2.33118-4.52913-2.33118-5.19518 0-.66605-.33302-2.13136-.73265-3.33025-.93247-2.66419.13321-7.25993 2.59759-10.9232 1.79833-2.66419 3.99629-3.26364 5.4616-1.4653 1.3321 1.59851 3.39685 1.19888 5.26179-1.06568 1.33209-1.53192 2.7974-2.26457 6.39407-3.19704l4.66234-1.13228.19981-2.6642c.13321-2.19796-.13321-2.99722-1.93154-4.79555-1.13228-1.13228-2.46438-2.13135-2.86401-2.13135-1.26549 0-7.25993 2.13135-8.39221 2.93061-4.59574 3.39685-7.72617 3.66327-9.25808.79926-2.53099-4.72895 3.46345-10.32376 12.58832-11.65585 6.72709-.99908 14.18684-.39963 17.38387 1.33209zm39.09707-1.3987c1.06568 0 2.19796 2.99722 1.66512 4.32932-.19981.59944-1.19889 1.26549-2.26456 1.46531-1.06568.19981-1.93155.79925-1.93155 1.33209s1.59852 3.39685 3.59667 6.46068c1.93154 2.99722 4.32932 7.12672 5.32839 9.19147 1.99815 4.26271 3.19703 4.99537 5.5282 3.53006 1.2655-.86586 1.39871-1.26549.86587-2.33117-.46624-.86586-.46624-1.73173-.0666-2.46438.33303-.66605.79926-1.66512.99908-2.19796.53284-1.3321 1.66512-3.13043 3.92968-6.06105 2.33118-3.13043 2.33118-4.86215-.13321-6.32746-2.19796-1.3321-4.32931-4.59574-3.79647-5.99444.26642-.73265 2.26456-.93247 10.72338-.93247h10.32376l.73265 1.79833c1.06568 2.7308.53284 3.72988-2.86401 5.395-2.19796.99907-3.19703 1.93154-3.19703 2.7974 0 .66605-.39963 1.53192-.86587 1.79833-.93246.53284-5.72801 8.32562-8.32561 13.5208-.86586 1.66512-1.79833 3.46345-2.13135 3.99629-3.13043 5.26178-6.72709 11.78906-8.59203 15.51894-2.46438 4.99536-3.53006 5.39499-5.32839 2.13135-.59945-1.13228-2.26457-3.79648-3.66327-5.92783-1.3321-2.13136-2.79741-4.52913-3.13043-5.32839-1.19889-2.79741-12.65493-19.58184-15.78536-23.24511-.99907-1.13228-3.39685-3.59666-5.26178-5.4616-2.46438-2.39777-3.53006-3.99629-3.53006-5.19518 0-.93247.26642-1.79833.66605-1.93154.46623-.13321 16.78443-.0666 26.50874.13321zm68.27001 1.13228c1.19888.66605 2.66419 1.59852 3.26363 2.13136.79926.59944 1.99815.79926 3.59667.53284 2.13135-.33303 2.66419-.0666 5.32839 2.33117 5.26178 4.86216 7.65956 12.38851 5.19518 16.25159l-1.13228 1.66512-14.38666-.46623c-16.91764-.46623-17.05085-.39963-16.98424 4.86216.0666 4.1961 2.26456 7.79277 6.39407 10.39036 5.92783 3.72987 13.25437.86586 18.24973-7.06012 1.66513-2.59759 2.86401-2.93062 5.86123-1.79833 2.33117.86586 2.33117 4.0629 0 8.65863-2.39777 4.79555-5.39499 7.92598-9.19147 9.72432-2.7308 1.26549-4.0629 1.4653-7.99259 1.19888-6.39407-.46623-9.5245-1.3987-13.05455-4.06289-2.6642-1.99815-3.33025-2.26457-5.72802-1.86494-2.6642.39963-2.86401.26642-5.06197-2.46438-5.12858-6.39407-5.52821-7.45975-5.46161-15.51894.13321-7.99259.93247-10.65678 4.92877-16.25159 2.06475-2.79741 2.19796-2.86401 4.99536-2.46438 2.59759.39963 2.99722.26642 4.59574-1.59852.93247-1.13228 1.73173-2.33117 1.73173-2.53098 0-.26642.79925-.99908 1.86493-1.59852 2.53099-1.59852 10.19055-1.59852 12.98796-.0666zm5.59481 27.10819c.66604.26642.59944.86586-.19982 2.53099-1.3987 2.86401-4.32932 5.19518-7.12672 5.66141-1.86494.26642-2.6642 0-4.59574-1.73173-2.7308-2.39777-4.52913-5.92783-3.33024-6.66048.79926-.46624 13.92042-.26642 15.25252.19981z"/>
  <path d="M235.3819 377.53367c-2.13136 1.93154-2.7308 4.19611-2.26457 7.85938.73266 5.5282 4.39593 7.99258 7.39315 4.99536 2.19796-2.19796 3.13042-10.25715 1.4653-12.78813-1.3987-2.19796-4.26271-2.19796-6.59388-.0666zm109.56503-17.7835c-1.93154 1.26549-2.7974 2.26456-2.7974 3.33024 0 1.46531.26642 1.53191 4.59573 1.53191 2.53099 0 5.395.19982 6.46068.39963 4.39592.86587 5.66141-3.53005 1.66512-5.92783-2.86401-1.66512-6.66049-1.46531-9.92413.66605zm85.12104-35.10077c-.53284.26641-2.99722 1.4653-5.4616 2.59759-4.1295 1.93154-8.52542 5.92783-8.52542 7.72616 0 .33303-.99908 1.3321-2.26457 2.13136-1.19889.79926-3.06382 2.86401-4.1295 4.66234-1.73173 2.86401-1.93154 3.79648-1.93154 8.85845 0 6.32746 1.59851 11.05641 5.06197 15.31912 1.06567 1.2655 1.93154 2.53099 1.93154 2.79741 0 .33302-.99907 1.3987-2.13136 2.46438l-2.19796 1.93154-.19981 8.59203c-.33303 11.98888.86586 16.51801 5.06197 18.78258.86586.46623 6.06104.93247 12.65493 1.19888 9.32468.33303 11.72245.19982 15.0527-.73265 3.79648-1.13228 8.52542-3.66327 9.39129-5.06197.19981-.33302 1.26549-.66605 2.39777-.66605 5.26179 0 8.79185-4.99537 9.92413-14.05363 1.26549-10.59018-.93247-17.65029-6.99351-22.31264-2.79741-2.13135-2.93062-2.7974-.46624-3.33024 2.7308-.73265 4.59574-2.13136 5.32839-4.1295.39963-.99908.79926-6.06105.99908-11.25623.26642-11.38943.53284-11.05641-8.79185-14.12023-5.79462-1.93154-6.99351-2.06475-14.9861-1.99815-4.79555 0-9.19147.26642-9.72431.59945zm19.31542 4.92876c2.7308.46623 5.79462 1.26549 6.8603 1.73172l1.79833.86587v9.12487c0 9.25807-.33302 10.65678-2.7308 10.65678-.73265 0-1.19889-.73266-1.46531-2.33117-.86586-5.395-7.45974-11.18962-13.58739-11.98888-5.86123-.73266-8.65864.0666-10.9232 3.13043-1.19889 1.73172-1.93154 3.53006-1.93154 4.92876 0 1.99814.33302 2.39777 2.99722 3.66327 1.66512.79926 3.19703 1.66512 3.39684 1.99814.19982.33303.93247.59945 1.59852.59945.73266 0 2.79741.86586 4.66234 1.99814 1.86494 1.06568 3.59667 1.99815 3.86309 1.99815.73265 0 4.66234 2.13136 8.32561 4.46253 3.33024 2.19796 4.92876 3.92969 6.72709 7.32653 1.53191 2.99722 1.46531 14.51987-.0666 18.91579-1.19889 3.39685-2.13136 3.99629-3.53006 2.26457-1.39871-1.66512-3.53006-.93247-4.92876 1.66512-1.53192 2.86401-4.52914 4.92876-8.79185 5.99444-4.26271 1.06568-24.04436.0666-24.84362-1.26549-.66605-1.06568-1.66512-21.7798-1.06568-22.71227.73266-1.19889 2.93062-.73265 3.92969.79926.46623.86586 1.26549 3.53006 1.73173 6.06104.73265 4.0629 1.06567 4.72895 3.99629 7.32654 5.72802 5.19518 10.9232 5.395 16.45141.73265 2.39777-2.06475 2.53098-2.33117 2.53098-6.26085 0-3.9963-.0666-4.26272-2.59759-6.39407-1.3987-1.19889-3.99629-2.86401-5.66141-3.59667-1.66513-.79926-3.92969-1.86493-4.92877-2.33117-1.06567-.53284-2.33117-.99907-2.7974-.99907-.53284 0-2.06475-.46624-3.46345-1.06568-7.99259-3.46345-9.5245-4.92876-11.12302-10.52357-1.3321-4.52913-1.3321-8.85845-.0666-11.98888.93246-2.19796 1.26549-2.39778 3.66326-2.39778 2.46438 0 2.6642-.13321 2.6642-1.86493 0-2.7308 3.19703-6.99351 6.66049-8.85845 4.59573-2.46438 14.32005-3.19704 22.64566-1.66512zm-5.99444 13.98702c3.06382 2.06475 5.99444 7.32654 4.79555 8.52543-.73265.73265-1.3987.53284-3.66327-.66605-1.53191-.86587-4.52913-2.53099-6.59388-3.66327-3.46346-1.93154-4.99537-3.86308-4.12951-5.26179.19982-.26642 1.93155-.53284 3.79648-.53284 2.59759 0 4.0629.39963 5.79463 1.59852zm-12.72153 30.17201c5.4616 2.7308 9.39128 6.19426 9.39128 8.1258 0 1.79833-3.72987 4.72895-5.99444 4.72895-2.86401 0-7.99258-5.395-7.99258-8.45882 0-.66605-.46624-2.06476-.99907-3.13043-.99908-1.93154-.93247-3.72988.1332-3.72988.26642 0 2.79741 1.13229 5.46161 2.46438z"/>
  <path d="M482.88564 334.64013c-3.66327 2.06475-5.79462 4.59573-6.59388 7.59295-.26642 1.13229-1.79833 2.86401-3.86308 4.39593-4.26272 3.19703-7.72617 7.92598-7.72617 10.39036 0 .99907.79926 2.86401 1.79833 4.19611l1.86494 2.39777.13321 14.51987c.19981 15.65214.33302 16.51801 3.99629 19.84825 3.06383 2.93062 5.92784 3.99629 10.05734 3.92969 2.06475-.0666 5.59481.13321 7.79277.33302 7.19333.86587 14.25345-2.66419 18.38295-9.12487l2.13135-3.33024 1.73173 2.26457c3.72987 4.79555 6.72709 6.59388 11.38944 6.8603.53284 0 2.19796.66605 3.72987 1.46531 3.33024 1.79833 10.59018 2.7974 14.91949 2.13135 1.79834-.26642 4.52914-1.26549 6.12765-2.13135 1.59852-.93247 4.26271-1.86494 5.92784-2.06475 2.53098-.39963 3.66327-1.06568 6.12765-3.53006 11.38943-11.52265 11.45604-29.9056.13321-42.69373-2.7308-3.06383-3.86309-3.59667-6.06105-2.79741-1.59852.59945-2.06475.46624-3.86308-1.26549-3.33025-3.13043-5.86123-4.0629-10.9232-4.0629-4.59574 0-10.25715 1.3987-12.12209 3.06383-.53284.46623-2.33117 1.13228-3.86308 1.53191-7.45975 1.66512-14.25345 9.79092-16.38481 19.71504-.59944 2.53099-.99907 5.12858-.93246 5.66142.26642 2.86401-.26642 3.86308-2.26457 4.72895-1.19889.46623-3.46345 2.06475-4.99537 3.46345-1.93154 1.73173-3.26364 2.46438-4.32931 2.33117-1.53192-.19981-1.53192-.26642-1.39871-9.12487.0666-10.05734.19982-10.25715 4.92877-11.05641 3.26363-.53284 8.59203-5.26179 10.52357-9.19147.79926-1.59852 1.3987-4.12951 1.3987-5.59481 0-2.26457-.39963-3.06383-2.06475-4.46253-2.59759-2.19796-5.19518-2.19796-9.19148.0666-4.46252 2.46438-5.39499 1.93155-5.39499-3.33024 0-3.86308-.19982-4.39592-2.26457-6.66049-2.7308-2.99722-4.26271-3.06382-8.85845-.46623zm6.39407 6.12765c.39963 1.13228.53284 3.59666.33303 5.5282-.39963 3.13043-.26642 3.59667 1.13228 4.59574 2.7974 1.93154 7.12672 1.06568 11.98888-2.39778 1.3987-.99907 3.26364-.26642 3.26364 1.3321 0 .73265-.59945 2.6642-1.3321 4.32932-1.86494 4.19611-4.92876 5.99444-10.32376 6.06104-6.52728.13321-6.39407-.26642-6.19425 14.9861l.19981 13.05456 2.6642.86586c3.72987 1.19889 8.45882-.33302 11.65585-3.86308 1.93155-2.13136 2.59759-2.46438 3.86309-1.99815 3.13043 1.26549.93247 6.26086-5.12858 11.65586-3.26364 2.93061-3.79648 3.13043-7.92598 3.19703-2.6642.0666-4.46253-.26642-5.99444-1.19889-2.13136-1.26549-2.26457-1.26549-4.19611-.13321-2.86401 1.59852-3.46345 1.46531-6.52728-1.59851l-2.7308-2.7308-.13321-9.4579c-.0666-5.12857-.19981-12.12209-.19981-15.51894-.0666-5.86122-.19982-6.19425-1.86494-7.52635-2.7308-2.19796-2.39777-4.72894.99908-8.05919 2.46438-2.39777 3.06382-2.66419 5.06197-2.26456 2.93061.53284 4.1295-.53284 4.1295-3.79648 0-2.13136.46623-3.13043 2.39778-5.19518 2.7308-2.86401 3.86308-2.86401 4.86215.13321zm55.21545 8.45882c2.6642 1.33209 4.59574 3.19703 5.72802 5.5282 1.06568 2.13136 2.86401 2.26457 4.79555.46624 1.59852-1.53192 1.66512-1.53192 2.93062-.19982.66605.66605 2.39777 3.53006 3.79647 6.26086 2.46439 4.92876 2.46439 5.12858 2.53099 12.65493 0 6.72709-.19981 7.99258-1.53191 10.32376-3.06383 5.39499-5.19518 7.99258-6.52728 7.79277-3.33024-.46624-4.39592-.13321-7.32654 2.46438-3.66327 3.19703-6.92691 4.26271-11.72246 3.72987-4.72894-.53284-8.05919-2.06475-9.79091-4.39592-1.53192-2.13136-4.32932-2.59759-4.99537-.93247-.66605 1.86494-2.33117.99907-4.99537-2.46438-3.66327-4.92876-5.26178-9.25808-5.32839-14.85289-.13321-10.65678 5.99444-21.64659 12.12209-21.64659.86586 0 2.79741-.86586 4.19611-1.86493 5.66141-4.0629 11.72246-5.12858 16.11838-2.86401z"/>
  <path d="M536.03634 357.75202c-2.26457.46624-5.395 3.46346-6.7937 6.52728-1.73173 3.72987-1.66512 11.12302.0666 16.85104 1.66512 5.26178 2.26456 6.19425 5.12857 7.65956 2.59759 1.3987 4.0629 1.3987 6.92691.19981 5.19518-2.19796 6.72709-5.72802 6.66049-15.71875 0-8.32561-.39963-9.85752-3.59666-13.52079-1.66513-1.93154-4.92877-2.7308-8.39222-1.99815zm5.4616 6.32747c.53284 1.19888 1.19889 4.66234 1.46531 7.65956.53284 6.32746-.39963 11.45604-2.39778 13.25437-1.19889 1.13228-1.3321 1.06568-2.93061-.39963-3.72988-3.46345-5.12858-15.85196-2.26457-20.38109 1.93154-3.13043 4.66234-3.19704 6.12765-.13321zm70.06834-18.51616c-2.13136 1.13228-3.59667 1.46531-4.26272 1.13228-.59944-.33302-8.72524-.79926-18.11652-1.06568-15.51894-.46623-17.25067-.39963-19.51523.66605-5.59481 2.6642-5.72802 6.7937-.39963 11.72246l3.33024 3.06383v11.25622c0 6.19426-.26642 12.38851-.59944 13.78721-.33303 1.46531-1.73173 3.79648-3.33025 5.4616-3.53006 3.79648-3.72987 6.7271-.66605 9.25808l2.06475 1.73173h15.51894c8.59203 0 16.3182-.26642 17.25067-.66605.93247-.33303 2.46438-1.86494 3.46345-3.33024 1.66512-2.46439 1.73173-2.86401.86586-4.46253-.53283-.99908-2.33117-2.86401-4.06289-4.1295-3.79648-2.93062-4.39593-4.59574-4.66234-12.72154-.19982-5.99444-.13321-6.32746 1.13228-6.12765 7.06012.99908 6.72709 1.06568 10.65678-1.53191 3.19703-2.19796 6.66049-6.26086 7.92598-9.32468.53284-1.46531 2.86401 1.06568 6.8603 7.39314 2.33117 3.59666 4.52914 7.19333 4.86216 7.92598.39963.73265 1.06568 1.93154 1.53191 2.6642 3.39685 5.59481 4.19611 6.8603 4.99537 7.99258.39963.73266.99907 1.79833 1.26549 2.33117.19982.53284 1.26549 2.06475 2.33117 3.39685.99908 1.3321 1.86494 3.06383 1.86494 3.79648 0 1.46531-4.52913 12.52172-8.52543 20.78072-1.19888 2.39778-1.79833 4.72895-1.79833 6.86031 0 2.66419.26642 3.39685 1.99815 4.79555 1.13228.86586 2.86401 1.59852 3.99629 1.66512 3.26364 0 15.0527-1.93154 18.64937-3.06382 4.39592-1.46531 5.66141-2.6642 5.66141-5.395 0-2.33117-2.26456-7.52635-3.26364-7.52635-.33302 0-1.33209-.59945-2.33117-1.3987-1.33209-.99908-1.59851-1.59852-1.06567-2.26457.86586-.99907 8.65863-16.78443 8.65863-17.45048 0-.79926 3.13043-7.39314 9.19147-19.51523 5.06197-10.12394 7.99259-14.65307 9.4579-14.65307 1.13228 0 3.99629-4.99537 3.99629-6.86031 0-1.19889-.73265-2.59759-1.99815-3.86308l-1.93154-1.99815h-9.5245c-5.26178 0-10.65678-.0666-11.98888-.13321-2.7974-.0666-5.26178 1.73173-6.52727 4.86216-.66605 1.53191-.59945 2.33117.33302 4.32932.66605 1.26549 1.79833 2.66419 2.46438 3.06382 1.19889.66605 1.26549 1.13228.93247 3.99629-.59944 4.19611-1.73173 6.7271-2.86401 6.46068-.53284-.13321-1.99815-2.19796-3.33024-4.66234-2.33118-4.46253-2.33118-4.52914-1.2655-6.7937.59945-1.26549 1.06568-3.39685 1.06568-4.72895 0-2.7974-1.79833-6.26086-3.33024-6.46067-.53284 0-6.99352 0-14.32005.13321-11.05641.13321-13.78721 0-15.91857-.93247-3.19703-1.3321-2.93061-1.3987-6.72709.53284zm34.83435 5.19518c.39963.39963.79926 1.53191.79926 2.59759 0 1.46531-.46623 2.13136-1.66512 2.7308-2.06475.93247-2.06475 2.19796 0 5.92783.86586 1.59852 1.93154 3.53006 2.33117 4.26272.39963.73265 1.26549 2.19796 1.99814 3.33024.73266 1.06568 2.06476 3.53006 2.99722 5.4616.93247 1.86494 2.26457 3.53006 2.86401 3.66327 1.79834.39963 4.19611-1.46531 3.79648-2.86401-.46623-1.3321.0666-3.19703 2.59759-10.25715 2.39778-6.66049 2.33117-8.52543-.66605-10.25715-1.93154-1.13229-2.33117-1.73173-2.13135-3.26364l.19981-1.79833 10.19055-.0666c9.05826 0 10.25715.13321 10.8566 1.13228.86586 1.73173.93246 1.66513-2.93062 5.52821-2.93061 2.86401-4.66234 5.72802-9.5911 15.78536-3.33025 6.72709-6.7271 13.7206-7.52635 15.58554-3.39685 7.65956-4.92877 10.9898-8.0592 17.38387-1.79833 3.66327-3.26363 7.32654-3.26363 8.05919 0 1.39871 1.19888 2.19796 3.26363 2.19796 1.73173 0 3.53006 2.26457 3.26364 4.0629-.19981 1.3321-.79925 1.66512-4.86215 2.39778-12.85474 2.33117-12.98795 2.33117-14.05363 1.46531-1.19889-.99908-.93247-1.99815 2.39777-8.92506 1.39871-2.93061 3.53006-7.72617 4.72895-10.65678 1.19889-2.93061 2.53099-5.79462 3.06382-6.39407 1.3321-1.59852 1.06568-2.86401-1.66512-7.06012-1.4653-2.13135-2.99722-4.66234-3.53006-5.72802-4.1961-8.1924-18.38294-29.63917-19.91486-30.1054-.73265-.19982-2.33117-.19982-3.66326.0666-1.99815.33303-3.06383 1.26549-6.32747 5.59481-5.06197 6.66049-7.45975 7.32654-14.05363 3.86309-1.59852-.79926-3.06382-1.13229-4.19611-.79926-1.93154.46623-2.06475 1.19888-.79926 3.53006.59945 1.13228.79926 3.72987.53284 9.6577-.33302 9.92413.26642 11.85567 5.19518 15.51894 2.6642 1.99815 3.33025 2.86401 3.19704 4.19611l-.19982 1.66512h-14.51986c-12.98795 0-14.65307-.13321-15.18591-1.13228-.86587-1.53191.33302-4.19611 2.39777-5.59481.93247-.59945 1.99815-1.73173 2.39778-2.39778.39963-.79926.73265-7.19333.73265-16.05177v-14.78629l-2.93061-1.3987c-3.06383-1.53191-4.99537-4.1295-4.32932-5.86123.59944-1.53191 21.44677-1.59852 22.04622-.0666.46623 1.3321 3.13043 1.2655 5.59481-.13321 1.93154-1.13228 2.13135-1.13228 4.46252 0 3.19704 1.53192 9.12487 1.53192 10.52357-.0666.93247-.99907 2.46439-1.13228 16.91765-.93247 9.52449.13321 16.18498.53284 16.71782.93247z"/>
</svg>
