<?xml version="1.0" encoding="UTF-8" standalone="no"?>
<!-- Generator: Adobe Illustrator 13.0.0, SVG Export Plug-In . SVG Version: 6.00 Build 14948)  -->

<svg
   xmlns:ns="&amp;ns_sfw;"
   xmlns:dc="http://purl.org/dc/elements/1.1/"
   xmlns:cc="http://creativecommons.org/ns#"
   xmlns:rdf="http://www.w3.org/1999/02/22-rdf-syntax-ns#"
   xmlns:svg="http://www.w3.org/2000/svg"
   xmlns="http://www.w3.org/2000/svg"
   xmlns:sodipodi="http://sodipodi.sourceforge.net/DTD/sodipodi-0.dtd"
   xmlns:inkscape="http://www.inkscape.org/namespaces/inkscape"
   version="1.2"
   id="Layer_3"
   x="0px"
   y="0px"
   width="140.85001"
   height="336.33966"
   viewBox="0 0 140.85 336.33965"
   xml:space="preserve"
   inkscape:version="0.91 r13725"
   sodipodi:docname="controller.svg"><defs
     id="defs42" /><sodipodi:namedview
     pagecolor="#ffffff"
     bordercolor="#666666"
     borderopacity="1"
     objecttolerance="10"
     gridtolerance="10"
     guidetolerance="10"
     inkscape:pageopacity="0"
     inkscape:pageshadow="2"
     inkscape:window-width="690"
     inkscape:window-height="480"
     id="namedview40"
     showgrid="false"
     fit-margin-top="0"
     fit-margin-left="0"
     fit-margin-right="0"
     fit-margin-bottom="0"
     inkscape:zoom="0.48145317"
     inkscape:cx="66.603513"
     inkscape:cy="167.83765"
     inkscape:window-x="0"
     inkscape:window-y="0"
     inkscape:window-maximized="0"
     inkscape:current-layer="Layer_3" /><metadata
     id="metadata55"><rdf:RDF><cc:Work
         rdf:about=""><dc:format>image/svg+xml</dc:format><dc:type
           rdf:resource="http://purl.org/dc/dcmitype/StillImage" /><dc:title></dc:title></cc:Work></rdf:RDF><ns:sfw><ns:slices /><ns:sliceSourceBounds
         x="893.896"
         y="371.662"
         width="140.85"
         height="336.339"
         bottomLeftOrigin="true" /></ns:sfw></metadata><path
     d="m 50.607,190.064 0,-39.636 39.637,-0.002 0,38.638 0,1 -39.637,0 0,0 z m 38.636,-1 0,-1.002 0,1.002 0,0 z m -36.636,-36.633 0,35.632 35.637,0 0,-35.634 -35.637,0.002 0,0 z"
     id="path4"
     inkscape:connector-curvature="0"
     style="fill:#f4f4f4" /><path
     d="m 57.086,183.588 0,-26.682 26.678,0 0,25.68 0,1.002 -26.678,0 0,0 z m 25.679,-1.002 0,-1 0,1 0,0 z m -23.679,-1 22.678,0 0,-22.68 -22.678,0 0,22.68 0,0 z"
     id="path6"
     inkscape:connector-curvature="0"
     style="fill:#f4f4f4" /><path
     d="m 108.412,336.338 c -0.051,0 -0.107,0 -0.17,-0.004 l 0,0 0,0 -75.713,-0.002 c 0,0 -0.004,0 -0.057,0.002 l 0,0 c -1.528,0.025 -2.554,-1.356 -2.589,-2.783 l 0,0 -8.566,-190.533 c -0.153,-1.471 -0.894,-2.08 -2.778,-2.167 l 0,0 0,-0.997 0.707,0.705 -1.414,-1.415 c 0.031,0.031 0.017,-0.208 0.707,-0.294 l 0,0 c 2.499,-0.088 4.677,1.494 4.776,4.061 l 0,0 8.564,190.524 c 0.12,0.813 0.302,0.873 0.594,0.899 l 0,0 c 0.004,0 0.048,-0.002 0.088,-0.002 l 0,0 75.703,0 0.046,0.004 c 0.025,0 0.061,0.004 0.104,0.004 l 0,0 c 0.335,-0.027 0.271,-0.047 0.359,-0.133 l 0,0 c 0.076,-0.1 0.172,-0.41 0.197,-0.754 l 0,0 8.563,-190.56 c 0.095,-2.55 2.278,-4.13 4.775,-4.042 l 0,0 0,1.998 c -1.884,0.088 -2.627,0.699 -2.778,2.151 l 0,0 -8.566,190.585 c -0.053,0.533 -0.145,1.144 -0.529,1.734 l 0,0 c -0.363,0.586 -1.129,1.02 -1.947,1.02 l 0,0 c -0.026,10e-4 -0.051,10e-4 -0.076,-10e-4 l 0,0 z"
     id="path8"
     inkscape:connector-curvature="0"
     style="fill:#f4f4f4" /><path
     d="M 0,140.851 0,0 l 140.848,0 0.002,139.849 0,1.002 -140.85,0 0,0 z m 139.849,-1.001 0,-1 0,1 0,0 z m -137.85,-1 136.85,0 -0.002,-136.849 -136.846,0 -0.002,136.849 0,0 z"
     id="path10"
     inkscape:connector-curvature="0"
     style="fill:#f4f4f4" /><path
     d="m 24.388,120.753 c -2.371,-0.002 -4.289,-1.922 -4.291,-4.289 l 0,0 0,-92.077 c 0.002,-2.369 1.92,-4.289 4.291,-4.289 l 0,0 92.076,0 c 2.368,0.002 4.288,1.92 4.29,4.289 l 0,0 0,92.078 c -0.002,2.369 -1.922,4.287 -4.29,4.289 l 0,0 -92.076,0 0,-0.001 z m -2.29,-96.366 0,92.078 c 0.002,1.262 1.024,2.286 2.291,2.289 l 0,0 92.076,0 c 1.262,-0.002 2.286,-1.026 2.288,-2.289 l 0,0 0,-92.078 c 0,-1.262 -1.026,-2.286 -2.288,-2.288 l 0,0 -92.077,0 c -1.266,0.002 -2.288,1.025 -2.29,2.288 l 0,0 z"
     id="path12"
     inkscape:connector-curvature="0"
     style="fill:#f4f4f4" /><path
     d="m 92.117,96.909 c 0.012,0 0.021,0 0.033,0 l 0,0 c -0.008,0 -0.014,0 -0.021,0 l 0,0 c -0.003,0 -0.008,0 -0.012,0 l 0,0 z m -0.004,0 -43.531,0 c -2.54,-0.002 -4.596,-2.057 -4.596,-4.594 l 0,0 0,-43.538 0,0 c 0,-10e-4 0,-10e-4 0,-0.002 l 0,0 c 0,-2.539 2.059,-4.592 4.596,-4.594 l 0,0 43.534,0.002 c 2.536,0 4.594,2.057 4.594,4.592 l 0,0 0.002,43.539 -0.002,0 c 0,2.525 -2.036,4.574 -4.56,4.594 l 0,0 c 0.056,-0.002 0.144,-0.015 0.3,-0.06 l 0,0 c 0.149,-0.016 0.659,-0.361 0.661,-0.918 l 0,0 c -0.025,-0.522 -0.225,-0.629 -0.275,-0.713 l 0,0 c -0.078,-0.081 -0.117,-0.104 -0.148,-0.128 l 0,0 -0.216,0.308 -0.359,1.512 c 0.002,0 0.003,0 0.004,0 l 0,0 c -0.001,0 -0.002,0 -0.004,0 l 0,0 0,0 0,0 z m 0,-2.001 c 1.437,-0.002 2.596,-1.162 2.598,-2.593 l 0,0 0,-43.538 C 94.707,47.343 93.55,46.184 92.116,46.182 l 0,0 -43.534,0 c -1.402,0.002 -2.543,1.11 -2.595,2.498 l 0,0 -0.002,43.634 c 0.004,1.432 1.164,2.591 2.597,2.593 l 0,0 43.529,0 0.002,0 0,0.001 z"
     id="path14"
     inkscape:connector-curvature="0"
     style="fill:#f4f4f4" /><polygon
     points="286.45,51.068 285.036,52.482 276.192,43.637 282.302,37.905 263.176,37.903 263.176,57.028 268.82,51.009 278.037,60.227 278.039,60.227 276.623,61.641 268.867,53.882 261.175,62.085 261.175,35.904 287.357,35.904 279.065,43.685 "
     id="polygon16"
     style="fill:#f4f4f4"
     transform="translate(-232.491,-6.628)" /><polygon
     points="337.011,51.007 342.653,57.027 342.653,37.904 323.527,37.904 329.641,43.64 320.795,52.483 319.382,51.067 326.766,43.686 318.478,35.905 344.655,35.901 344.655,62.089 336.965,53.884 329.209,61.641 327.793,60.228 "
     id="polygon18"
     style="fill:#f4f4f4"
     transform="translate(-232.491,-6.628)" /><polygon
     points="320.794,101.625 329.64,110.466 323.528,116.204 342.654,116.204 342.652,97.079 337.012,103.099 327.794,93.88 329.208,92.464 336.966,100.219 344.652,92.017 344.656,118.205 318.474,118.205 326.767,110.42 319.383,103.041 "
     id="polygon20"
     style="fill:#f4f4f4"
     transform="translate(-232.491,-6.628)" /><polygon
     points="276.624,92.465 276.626,92.465 278.038,93.879 268.821,103.095 263.179,97.078 263.179,116.204 282.303,116.204 276.191,110.467 285.037,101.625 286.449,103.04 279.064,110.419 287.358,118.203 261.178,118.203 261.178,92.022 268.866,100.221 "
     id="polygon22"
     style="fill:#f4f4f4"
     transform="translate(-232.491,-6.628)" /><path
     d="m 55.627,89.514 c -2.37,-0.002 -4.289,-1.921 -4.289,-4.287 l 0,0 0,-29.6 c 0,-2.368 1.919,-4.287 4.289,-4.287 l 0,0 29.596,-0.002 c 2.368,0.002 4.289,1.919 4.291,4.289 l 0,0 -0.002,29.597 c 0,2.368 -1.921,4.287 -4.291,4.289 l 0,0 -29.594,0 0,10e-4 z m -2.29,-33.887 0,29.599 c 0.002,1.261 1.026,2.284 2.29,2.286 l 0,0 29.596,0 c 1.264,-0.002 2.286,-1.024 2.288,-2.288 l 0,0 0.002,-29.597 c -0.002,-1.263 -1.026,-2.286 -2.29,-2.288 l 0,0 -29.596,0 c -1.265,0.002 -2.288,1.026 -2.29,2.288 l 0,0 z"
     id="path24"
     inkscape:connector-curvature="0"
     style="fill:#f4f4f4" /><path
     d="m 58.601,70.497 c -0.003,-0.033 -0.004,-0.076 0,-0.13 l 0,0 c 0.034,-6.503 5.313,-11.763 11.823,-11.766 l 0,0 c 6.532,0.002 11.824,5.294 11.824,11.824 l 0,0 0.002,0 c -0.002,6.532 -5.294,11.824 -11.826,11.826 l 0,0 C 63.917,82.249 58.639,76.996 58.601,70.497 l 0,0 z m 11.823,9.752 c 5.426,-0.008 9.816,-4.398 9.825,-9.825 l 0,0 C 80.238,65 75.85,60.61 70.424,60.602 l 0,0 C 64.998,60.61 60.61,65 60.6,70.424 l 0,0 c 0.01,5.429 4.398,9.818 9.824,9.825 l 0,0 z m -9.825,-9.874 c -0.003,-0.078 -0.01,-0.1 -0.013,-0.106 l 0,0 c 0.003,0.02 0.01,0.055 0.013,0.106 l 0,0 z"
     id="path26"
     inkscape:connector-curvature="0"
     style="fill:#f4f4f4" /><polygon
     points="344.234,291.442 261.107,291.442 261.107,289.442 344.234,289.442 "
     id="polygon28"
     style="fill:#f4f4f4"
     transform="translate(-232.491,-6.628)" /><path
     d="m 36.704,333.096 c -1.175,-0.049 -1.921,-0.068 -2.651,-0.633 l 0,0 c -0.726,-0.664 -0.68,-1.441 -0.715,-2.022 l 0,0 -2.175,-44.071 78.523,0 -2.173,44.055 c -0.036,0.599 0.01,1.379 -0.718,2.041 l 0,0 c -0.73,0.563 -1.478,0.584 -2.649,0.629 l 0,0 -0.021,-0.997 0,1 -67.421,-0.002 0,0 z m -1.11,-2.09 c 0.23,0.045 0.614,0.078 1.128,0.089 l 0,0 67.383,0 c 0.771,-0.005 1.227,-0.095 1.361,-0.144 l 0,0 c 0.021,-0.088 0.038,-0.3 0.047,-0.609 l 0,0 2.072,-41.973 -74.324,0 2.072,41.984 c 0.006,0.296 0.03,0.505 0.047,0.596 l 0,0 c 0.042,0.016 0.112,0.039 0.214,0.057 l 0,0 z"
     id="path30"
     inkscape:connector-curvature="0"
     style="fill:#f4f4f4" /><path
     d="m 40.175,70.425 c 0,-5.197 1.314,-10.095 3.625,-14.367 l 0,0 1.759,0.951 c -2.159,3.992 -3.383,8.557 -3.383,13.416 l 0,0 c 0,5.306 1.46,10.265 4.002,14.505 l 0,0 -1.716,1.029 C 41.741,81.418 40.175,76.101 40.175,70.425 l 0,0 z"
     id="path32"
     inkscape:connector-curvature="0"
     style="fill:#f4f4f4" /><path
     d="m 55.517,96.752 0.987,-1.739 c 4.11,2.333 8.855,3.663 13.922,3.663 l 0,0 c 5.303,0 10.258,-1.46 14.495,-3.999 l 0,0 0.002,0 1.026,1.714 c -4.537,2.719 -9.853,4.285 -15.523,4.285 l 0,0 c -5.418,0.002 -10.511,-1.427 -14.909,-3.924 l 0,0 z"
     id="path34"
     inkscape:connector-curvature="0"
     style="fill:#f4f4f4" /><path
     d="m 94.525,85.174 c 2.634,-4.295 4.15,-9.341 4.15,-14.748 l 0,0 c 0,-5.238 -1.423,-10.136 -3.905,-14.34 l 0,0 0.002,0 1.721,-1.018 c 2.657,4.501 4.185,9.754 4.185,15.357 l 0,0 c 0,5.785 -1.628,11.196 -4.447,15.792 l 0,0 -1.706,-1.043 0,0 z"
     id="path36"
     inkscape:connector-curvature="0"
     style="fill:#f4f4f4" /><path
     d="m 55.966,46.151 c 0,0 10e-4,0 0,0 l 0,0 0,0 0,0 0,0 z m -1.024,-1.717 c 4.528,-2.703 9.83,-4.258 15.483,-4.258 l 0,0 c 5.536,0 10.731,1.489 15.197,4.089 l 0,0 -1.011,1.728 C 80.442,43.566 75.598,42.176 70.423,42.176 l 0,0 c -5.287,0 -10.227,1.45 -14.458,3.975 l 0,0 -1.023,-1.717 0,0 z"
     id="path38"
     inkscape:connector-curvature="0"
     style="fill:#f4f4f4" /></svg>