<?xml version="1.0" encoding="utf-8"?>
<!-- Generator: Adobe Illustrator 16.0.3, SVG Export Plug-In . SVG Version: 6.00 Build 0)  -->
<!DOCTYPE svg PUBLIC "-//W3C//DTD SVG 1.1//EN" "http://www.w3.org/Graphics/SVG/1.1/DTD/svg11.dtd">
<svg version="1.1" id="Ebene_2" xmlns="http://www.w3.org/2000/svg" xmlns:xlink="http://www.w3.org/1999/xlink" x="0px" y="0px"
	 width="572.5px" height="80.5px" viewBox="-3.035 -1.9 572.5 80.5" enable-background="new -3.035 -1.9 572.5 80.5"
	 xml:space="preserve">
<g>
	<g>
		<path fill="#4C504E" d="M76.534,26.614l-1.554-0.719c0.098-0.32,0.193-0.719,0.193-1.119c0-1.039-9.127-6.633-24.952-6.633
			c-15.146,0-21.651,3.836-21.651,8.79c0,13.104,57.187-6.072,57.187,22.854c0,10.548-12.428,18.699-37.282,18.699
			c-23.688,0-30.486-6.233-32.72-6.233c-0.583,0-0.874,0.397-1.358,0.64l-1.263-0.24l8.059-13.586l1.555,0.641
			c0,0.32-0.195,0.643-0.195,1.279c0,4.717,12.525,8.068,24.953,8.068c17.671,0,23.689-4.152,23.689-8.55
			c0-15.66-56.409,3.755-56.409-22.771c0-13.425,17.186-19.019,36.021-19.019c16.895,0,28.738,6.073,29.903,6.073
			c1.263,0,1.456-0.319,1.748-0.559l1.553,0.399L76.534,26.614z"/>
		<path fill="#4C504E" d="M93.229,66.566c2.137,0,2.523-0.64,2.523-2.397V13.03c0-1.758-0.39-2.397-2.523-2.397V9.514h63.013
			c2.329,0,3.301-0.64,3.301-1.758h1.358v13.265h-1.358c0-1.438-0.972-2.077-3.301-2.077H109.54v14.224h30.486
			c2.33,0,3.302-0.64,3.302-2.078h1.358v13.422h-1.358c0-0.639-0.194-1.117-0.777-1.438c-0.484-0.319-1.358-0.48-2.523-0.48H109.54
			v15.664h47.575c2.329,0,3.301-0.641,3.301-1.918h1.358v13.104h-1.358c0-1.117-0.972-1.758-3.301-1.758H93.229V66.566z"/>
		<path fill="#4C504E" d="M247.888,37.002v1.119c-0.972,0.16-1.846,0.799-1.846,2.557v15.741c0,1.279,0.485,1.757,1.748,1.997v1.119
			c-6.117,2.876-21.068,8.951-37.866,8.951c-22.33,0-41.942-9.112-41.942-29.886c0-20.776,22.913-29.886,43.107-29.886
			c7.963,0,15.535,1.518,21.069,2.957c5.146,1.838,8.932,3.277,9.611,3.277c0.874,0,1.748-0.4,2.136-0.879l1.359,0.479
			l-9.417,13.104l-1.36-0.719c0.098-0.319,0.194-0.799,0.194-1.358c0-2.478-10.485-7.432-23.397-7.432
			c-16.312,0-29.516,6.633-29.516,20.138c0,14.143,13.204,20.773,28.155,20.773c12.234,0,19.419-3.438,22.331-5.193V47.23h-16.698
			c-1.942,0-3.106,0.799-3.106,1.916h-1.36V35.085h1.36c0,1.118,1.164,1.917,3.106,1.917H247.888z"/>
		<path fill="#4C504E" d="M252.736,67.688v-1.119c1.748-0.078,2.33-0.479,3.688-3.036l26.507-49.063
			c0.484-0.799,1.066-1.678,1.066-2.396c0-0.879-0.774-1.279-2.039-1.438v-1.12h21.166v1.119c-1.454,0.16-2.038,0.639-2.038,1.199
			c0,0.639,0.389,1.278,0.872,2.078l28.156,49.621c1.359,2.478,1.748,3.036,3.786,3.036v1.119h-19.32v-1.119
			c1.265,0,1.748-0.399,1.748-0.799c0-0.879-0.874-1.998-7.38-13.426h-33.302c-5.631,10.387-7.087,11.986-7.087,13.025
			c0,0.719,0.582,1.119,1.456,1.197v1.119h-17.281L252.736,67.688L252.736,67.688z M303.321,43.234l-11.65-20.936l-11.457,20.936
			H303.321L303.321,43.234z"/>
	</g>
	<g>
		<path fill="#4C504E" d="M546.462,77.199H0V0h546.462V77.199z M4.917,72.282h536.628V4.917H4.917V72.282z"/>
	</g>
	<g>
		<polygon fill="#4C504E" stroke="#FFFFFF" stroke-width="0.25" stroke-miterlimit="10" points="548.183,1.424 551.505,1.424 
			551.505,10.271 553.137,10.271 553.137,1.424 556.46,1.424 556.46,0 548.183,0 		"/>
		<polygon fill="#4C504E" stroke="#FFFFFF" stroke-width="0.25" stroke-miterlimit="10" points="564.854,0 561.807,8.09 558.774,0 
			556.699,0 556.699,10.271 558.262,10.271 558.262,2.599 561.142,10.271 562.487,10.271 565.365,2.602 565.365,10.271 
			566.929,10.271 566.929,0 		"/>
	</g>
	<path fill="#4C504E" d="M350.736,9.514v58.171h186.856V9.514H350.736z M358.656,50.35c-1.553-10.356,32.853-24.163,77.67-31.438
		c-1.011,0.261-2.969,0.762-2.969,0.762s-4.404,1.076-5.622,1.374c-22.864,5.587-38.882,15.652-37.545,24.577
		c1.37,9.137,20.469,14.083,44.768,12.393c1.35-0.096,6.139-0.326,7.181-0.373C397.149,63.824,360.21,60.709,358.656,50.35z
		 M470.697,52.587c-9.931,2.257-22.345,4.173-22.345,4.173V30.801l6.4,21.124c0,0,15.24-2.474,26.844-7.304
		c10.084-4.199,16.339-9.466,15.917-15.077c-0.686-9.115-20.068-13.978-43.999-12.439c-1.596,0.103-6.896,0.375-7.938,0.421
		c44.981-6.181,81.917-3.064,83.473,7.293C530.368,33.629,505.677,44.928,470.697,52.587z"/>
</g>
</svg>
