<svg xmlns="http://www.w3.org/2000/svg" width="854.46533" height="264.34375">
  <defs>
    <clipPath id="a">
      <path d="M0 131.554h201.374V0H0v131.554z"/>
    </clipPath>
  </defs>
  <path fill="#333" d="M0 257.57125h545.17875V0H0v257.57125z"/>
  <path fill="#fff" d="M411.90825 125.145625H485.307v19.35h-82.85375l9.455-19.35zm-16.44 19.349875h-77.63v-19.35h87.63l-10 19.35z"/>
  <path fill="#b12a12" d="M486.53625 207.39h-170.68v-59.60875h170.68V207.39z"/>
  <path fill="#666" d="M508.0575 103.53625H37.12V39.3075h470.9375v64.22875zM363.37 257.57125h75v-27.6025h-75v27.6025z"/>
  <path fill="#191919" d="M39.99 264.34375h60.4v-6.7725h-60.4v6.7725z"/>
  <path fill="#b12a12" d="M540.87 223.09375H5.245v-5.3125H540.87v5.3125z"/>
  <path fill="#fff" d="M69.5655 252.881l3.08625-2.6725 3.085-2.6725h-12.3425l3.085 2.6725 3.08625 2.6725zm180.3125 0l3.085-2.6725 3.08625-2.6725h-12.3425l3.085 2.6725 3.08625 2.6725zm272.0745-5.34475h-59.15V236.4025h59.15v11.13375zm-138.683625-72.758125l-43.2525-14.3925-.13625 29.20625 43.38875-14.81375zM315.8155 252.881l3.085-2.6725 3.08625-2.6725h-12.3425l3.085 2.6725 3.08625 2.6725z"/>
  <path fill="#333" d="M381.339 174.927125l-40.58625-13.15875v26.3175l40.58625-13.15875z"/>
  <path fill="#fff" d="M446.26825 241.969375l2.6725 3.085 2.6725 3.08625v-12.3425l-2.6725 3.085-2.6725 3.08625z"/>
  <path fill="#b12a12" d="M486.53625 120.00125h-170.68V105.9275h170.68v14.07375z"/>
  <path d="M484.3075 98.19875H319.035v-36.0425h165.2725v36.0425z"/>
  <path fill="#333" d="M394.417125 143.403h-75.21625v-17.27375h84.27l-9.05375 17.27375z"/>
  <path d="M354.465 139.505h-32.4775v-9.36875h32.4775v9.36875z"/>
  <path fill="#333" d="M413.411625 126.129375h70.41v17.27375h-78.86375l8.45375-17.27375z"/>
  <path d="M481.41875 139.505h-32.4775v-9.36875h32.4775v9.36875z"/>
  <path fill="#fff" d="M452.58475 181.666625h-24.5475l8.125-14.90125h23.745l-7.3225 14.90125z"/>
  <path fill="#4c4c4c" d="M0 .00025V212.469l37.12-108.9325V39.30775L0 .00025zm545.178375 0l-37.12 39.3075v64.22875l37.12 108.9325V.00025z"/>
  <path fill="#333" d="M451.5795 180.876875h-21.945l7.26375-13.32125h21.2275l-6.54625 13.32125zm69.38925 65.755625h-57.18v-9.30125h57.18v9.30125z"/>
  <path fill="#fff" d="M345.43125 247.53625h-59.15V236.4025h59.15v11.13375z"/>
  <path fill="#333" d="M344.44625 246.6325h-57.18v-9.30125h57.18v9.30125z"/>
  <path fill="#fff" d="M279.95375 247.53625h-59.15V236.4025h59.15v11.13375z"/>
  <path fill="#333" d="M278.96875 246.6325h-57.18v-9.30125h57.18v9.30125z"/>
  <path fill="#fff" d="M99.62125 247.53625h-59.15V236.4025h59.15v11.13375z"/>
  <path fill="#b12a12" d="M98.63625 246.6325h-57.18v-9.30125h57.18v9.30125z"/>
  <path d="M490.255 31.19625H312.0625V29.005H490.255v2.19125zm.00375 179.7575h-178.1925v-2.19125h178.1925v2.19125zm-178.1975-179.7575h2.19125v177.5325h-2.19125V31.19625zm176 0h2.19125v177.5325h-2.19125V31.19625zm0 8.81H314.2525V38.695h173.80875v1.31125zm0 9.7025H314.2525V48.3975h173.80875v1.31125zm0 7.355H314.2525V55.7525h173.80875v1.31125z"/>
  <g clip-path="url(#a)" transform="matrix(1.0372506,0,0,1.0372506,593.37123,93.775659) matrix(1.25,0,0,-1.25,0,164.4425)">
    <path fill="#333" d="M197.1702 0H4.2042C1.8822 0 .0002 1.882.0002 4.204v83.261h1.753v2.213H.0002v2.557l1.753-.001v2.214H.0002v2.494h1.753v2.213H.0002v28.195c0 2.322 1.882 4.204 4.204 4.204h192.966c2.322 0 4.204-1.882 4.204-4.204V99.155h-1.753v-2.213h1.753v-2.494h-1.753v-2.214h1.753v-2.556h-1.753v-2.213h1.753V4.204c0-2.322-1.882-4.204-4.204-4.204"/>
    <path d="M199.621 96.942H1.753v2.213h197.868v-2.213zm0-4.708H1.753v2.213h197.868v-2.213zm0-4.769H1.753v2.213h197.868v-2.213z"/>
    <path fill="#b12a12" d="M2.962 130.899h195.463v-29.332H2.962v29.332z"/>
    <path d="M3.289 101.895h194.808v28.677H3.289v-28.677zm195.462-.655H2.634v29.987h196.117V101.24z"/>
    <path fill="#b12a12" d="M2.9615 106.4557h195.463"/>
    <path d="M198.424 106.128H2.962v.655h195.462v-.655z"/>
    <path fill="#b12a12" d="M2.9615 111.3444h195.463"/>
    <path d="M198.424 111.017H2.962v.655h195.462v-.655z"/>
    <path fill="#b12a12" d="M2.9615 116.2332h195.463"/>
    <path d="M198.424 115.906H2.962v.655h195.462v-.655z"/>
    <path fill="#b12a12" d="M2.9615 121.1219h195.463"/>
    <path d="M198.424 120.795H2.962v.655h195.462v-.655z"/>
    <path fill="#b12a12" d="M2.9615 126.0106h195.463"/>
    <path d="M198.424 125.683H2.962v.655h195.462v-.655z"/>
    <path fill="#b12a12" d="M192.5011 130.8993v-29.332"/>
    <path d="M192.829 101.567h-.655v29.332h.655v-29.332z"/>
    <path fill="#b12a12" d="M186.5779 130.8993v-29.332"/>
    <path d="M186.905 101.567h-.655v29.332h.655v-29.332z"/>
    <path fill="#b12a12" d="M180.6548 130.8993v-29.332"/>
    <path d="M180.982 101.567h-.655v29.332h.655v-29.332z"/>
    <path fill="#b12a12" d="M174.7317 130.8993v-29.332"/>
    <path d="M175.059 101.567h-.655v29.332h.655v-29.332z"/>
    <path fill="#b12a12" d="M168.8086 130.8993v-29.332"/>
    <path d="M169.136 101.567h-.655v29.332h.655v-29.332z"/>
    <path fill="#b12a12" d="M162.8855 130.8993v-29.332"/>
    <path d="M163.213 101.567h-.655v29.332h.655v-29.332z"/>
    <path fill="#b12a12" d="M156.9624 130.8993v-29.332"/>
    <path d="M157.29 101.567h-.655v29.332h.655v-29.332z"/>
    <path fill="#b12a12" d="M151.0393 130.8993v-29.332"/>
    <path d="M151.367 101.567h-.655v29.332h.655v-29.332z"/>
    <path fill="#b12a12" d="M145.1162 130.8993v-29.332"/>
    <path d="M145.444 101.567h-.655v29.332h.655v-29.332z"/>
    <path fill="#b12a12" d="M139.1931 130.8993v-29.332"/>
    <path d="M139.52 101.567h-.655v29.332h.655v-29.332z"/>
    <path fill="#b12a12" d="M133.27 130.8993v-29.332"/>
    <path d="M133.597 101.567h-.655v29.332h.655v-29.332z"/>
    <path fill="#b12a12" d="M127.3469 130.8993v-29.332"/>
    <path d="M127.674 101.567h-.655v29.332h.655v-29.332z"/>
    <path fill="#b12a12" d="M121.4238 130.8993v-29.332"/>
    <path d="M121.751 101.567h-.655v29.332h.655v-29.332z"/>
    <path fill="#b12a12" d="M115.5006 130.8993v-29.332"/>
    <path d="M115.828 101.567h-.655v29.332h.655v-29.332z"/>
    <path fill="#b12a12" d="M109.5775 130.8993v-29.332"/>
    <path d="M109.905 101.567h-.655v29.332h.655v-29.332z"/>
    <path fill="#b12a12" d="M103.6544 130.8993v-29.332"/>
    <path d="M103.982 101.567h-.655v29.332h.655v-29.332z"/>
    <path fill="#b12a12" d="M97.7313 130.8993v-29.332"/>
    <path d="M98.059 101.567h-.655v29.332h.655v-29.332z"/>
    <path fill="#b12a12" d="M91.8082 130.8993v-29.332"/>
    <path d="M92.135 101.567h-.655v29.332h.655v-29.332z"/>
    <path fill="#b12a12" d="M85.8851 130.8993v-29.332"/>
    <path d="M86.213 101.567h-.655v29.332h.655v-29.332z"/>
    <path fill="#b12a12" d="M79.962 130.8993v-29.332"/>
    <path d="M80.289 101.567h-.655v29.332h.655v-29.332z"/>
    <path fill="#b12a12" d="M74.0389 130.8993v-29.332"/>
    <path d="M74.366 101.567h-.655v29.332h.655v-29.332z"/>
    <path fill="#b12a12" d="M68.1158 130.8993v-29.332"/>
    <path d="M68.443 101.567h-.655v29.332h.655v-29.332z"/>
    <path fill="#b12a12" d="M62.1926 130.8993v-29.332"/>
    <path d="M62.52 101.567h-.655v29.332h.655v-29.332z"/>
    <path fill="#b12a12" d="M56.2695 130.8993v-29.332"/>
    <path d="M56.597 101.567h-.655v29.332h.655v-29.332z"/>
    <path fill="#b12a12" d="M50.3464 130.8993v-29.332"/>
    <path d="M50.674 101.567h-.655v29.332h.655v-29.332z"/>
    <path fill="#b12a12" d="M44.4233 130.8993v-29.332"/>
    <path d="M44.751 101.567h-.655v29.332h.655v-29.332z"/>
    <path fill="#b12a12" d="M38.5002 130.8993v-29.332"/>
    <path d="M38.828 101.567h-.655v29.332h.655v-29.332z"/>
    <path fill="#b12a12" d="M32.5771 130.8993v-29.332"/>
    <path d="M32.905 101.567h-.655v29.332h.655v-29.332z"/>
    <path fill="#b12a12" d="M26.654 130.8993v-29.332"/>
    <path d="M26.981 101.567h-.655v29.332h.655v-29.332z"/>
    <path fill="#b12a12" d="M20.7309 130.8993v-29.332"/>
    <path d="M21.059 101.567h-.655v29.332h.655v-29.332z"/>
    <path fill="#b12a12" d="M14.8078 130.8993v-29.332"/>
    <path d="M15.135 101.567h-.655v29.332h.655v-29.332z"/>
    <path fill="#b12a12" d="M8.8847 130.8993v-29.332"/>
    <path d="M9.212 101.567h-.655v29.332h.655v-29.332z"/>
    <path fill="#fff" d="M150.221 107.5113l4.748.004c1.942 0 3.516 1.574 3.516 3.516 0 1.941-1.574 3.515-3.516 3.515l-1.233-.006c-.098 0-.178.08-.178.178 0 .099.08.178.178.178h4.736l.003 1.488h-4.74c-.919 0-1.663-.744-1.663-1.663 0-.918.744-1.663 1.663-1.663l1.239-.014c1.112 0 2.013-.901 2.013-2.012 0-1.113-.901-2.014-2.013-2.014h-4.751l-.002-1.507"/>
    <path fill="#fff" d="M150.2228 109.369h4.751c.919 0 1.663.744 1.663 1.663 0 .918-.744 1.663-1.663 1.663l-1.239.013c-1.112 0-2.013.901-2.013 2.014 0 1.111.901 2.012 2.013 2.012l4.74.002-.002 1.497-4.737.001c-1.942 0-3.515-1.574-3.515-3.516 0-1.941 1.573-3.515 3.515-3.515l1.226-.001c.095 0 .171-.077.171-.172 0-.095-.076-.172-.171-.172l-4.741-.002.002-1.487m11.9413-.3598c-.823 0-1.497.659-1.497 1.497v4.759c0 .807.674 1.474 1.497 1.474l5.068-.001-.001 1.494-5.067.001c-1.648 0-2.984-1.336-2.984-2.983v-4.744c0-1.648 1.336-2.983 2.984-2.983l5.047-.003-.002 1.491-5.045-.002"/>
    <path fill="#fff" d="M161.0302 115.2501c0 .628.505 1.138 1.134 1.138h5.068l-.001-1.493h-4.366c-.35 0-.354-.351-.354-.351h3.641l.001-1.488h-5.125l.002 2.194m1.1339-5.879c-.627 0-1.135.508-1.135 1.135l-.001 2.195h5.125l-.001-1.492h-3.641c.004-.351.354-.352.354-.352h4.346l-.002-1.484-5.045-.002m8.6185-.3578c-.823 0-1.493.671-1.493 1.493v4.744c0 .822.666 1.489 1.489 1.489l4.906.001.001 1.493h-4.919c-1.648 0-2.983-1.336-2.983-2.983v-4.744c0-1.648 1.347-2.983 2.995-2.983l4.907-.003-.001 7.025h-4.217v-1.489h2.727v-4.044l-3.412.001"/>
    <path fill="#fff" d="M169.6406 110.5061c0-.628.51-1.145 1.138-1.145l3.064-.001v3.344h-2.371v-1.494h.88l.004-.351-.876.001c-.193 0-.35.157-.35.35l-.006 3.337s0 .348.352.355h4.213l-.004 1.489-4.906-.003c-.628 0-1.138-.51-1.138-1.138v-4.744m10.6551 5.9063c.066.19.246.326.459.326.212 0 .393-.137.459-.327l2.38-7.059h-3.486l.004 1.66h1.166l-.526 1.563-1.708-5.054h-1.76l3.012 8.891"/>
    <path fill="#fff" d="M184.0749 109.0127h-3.961v-1.491h6.03l-3.136 9.31c-.275.908-1.18 1.574-2.254 1.574s-1.978-.666-2.254-1.572l-3.166-9.312h1.579l3.072 9.052c.125.3.421.51.766.51.345 0 .64-.209.765-.507l2.559-7.564"/>
  </g>
  <path fill="#fff" d="M620.26799483 119.48469202h-3.78077844l-5.554477-7.18814666-1.3069358.04667628v4.52759887q0 1.3302739.3500721 1.7036842.3734102.3734102 1.7270222.4667628v.4434247h-6.4413263v-.4434246q1.3302739-.1166907 1.6570078-.513439t.3267339-1.9370655v-9.9653851q0-1.3069357-.326734-1.6803459-.326734-.3734102-1.6570079-.4667628v-.4434242h6.3479737q3.1973249 0 4.8776709 1.3769498 1.1435688.9335256 1.1435688 2.80057668 0 3.1739868-4.2242031 3.8274547l4.6676277 5.90454904q.4901009.6067916.9335255.8168348.4434246.2100432 1.2602594.2800576v.4434246zm-10.64219116-13.60613474v5.60115324q1.68034597-.02333814 2.49718082-.1867051.8168348-.16336698 1.6336697-.6067916 1.3302738-.74682044 1.3302738-2.6605478 0-3.12731056-4.2708794-3.12731056-.6301298 0-.9101874.21004325-.2800577.1867051-.2800577.7701586zm20.03105063 9.77868002l.37341022.16336698q-1.4002883 3.89746913-4.87767095 3.89746913-2.0537562 0-3.24400125-1.4236264-1.19024506-1.4469646-1.19024506-3.874131 0-2.4971808 1.3302739-4.0841742 1.33027388-1.5869934 3.50072076-1.5869934 2.10043247 0 3.24400126 1.6103316.676806.9335256.7934967 2.6605478h-7.18814665q.09335255 1.4703027.28005766 2.2404613.2100432.7701586.7934967 1.5636553.9802018 1.2835976 2.5905333 1.2835976 1.1435688 0 1.9137273-.5601153.7934967-.5601153 1.6803459-1.8903892zm-7.2114848-3.38403007h4.76098026q-.21004325-1.47030273-.70014416-2.07709433-.46676277-.6067916-1.5869934-.6067916-.98020183 0-1.6336697.70014415-.6534679.67680602-.840173 1.98374178zm17.370869 3.5707352l.32673393.21004323q-1.00353995 1.96040364-1.91372735 2.68388593-1.19024507.9802018-2.68388593.9802018-1.9370655 0-3.19732498-1.4469646-1.23692134-1.4703028-1.23692134-3.7341022 0-2.9639436 1.96040364-4.5976133 1.44696458-1.1902451 3.1506487-1.1902451 1.47030272 0 2.52051895.7234823 1.07355437.7001441 1.07355437 1.6803459 0 .3967483-.326734.7001441-.326734.2800576-.7701586.2800576-.8168349 0-1.1202307-1.0735544l-.1400289-.513439q-.1867051-.6534679-.4667628-.8868493-.2800577-.2333814-.9101874-.2333814-1.4236265 0-2.3104757 1.1202306-.8635111 1.1202306-.8635111 2.9406054 0 2.0070799 1.0035399 3.2906775 1.0035399 1.26025942 2.6138715 1.26025942 1.0035399 0 1.7270222-.4667627.7234823-.4901009 1.5636553-1.72702224zm11.41964263 2.10043245v.65346788q-.88684926 1.12023065-2.10043247 1.12023065-1.3302739 0-1.49364086-1.7036841h-.02333814q-1.49364086 1.7036841-3.38403008 1.7036841-1.0968925 0-1.77369853-.6301297-.676806-.6534679-.676806-1.7970366 0-1.6336697 1.63366968-2.7305622 1.12023065-.7468204 4.20086493-1.8903892v-1.2602595q0-1.0502162-.51343904-1.5636552-.4901009-.5367772-1.30693576-.5367772-.70014416 0-1.16690693.3500721-.46676277.326734-.46676277.7934968 0 .2100433.07001442.4667628t.07001442.5134391q0 .3500721-.32673394.6534679-.3033958.3033958-.74682044.3033958-.39674835 0-.70014415-.3033958-.3033958-.3033958-.3033958-.7701585 0-1.1202306 1.19024506-1.8670511 1.0968925-.7001441 2.68388593-.7001441 1.89038922 0 2.75390034 1.0502163.4200865.4901009.5367772 1.00353995.11669068.4901009.11669068 1.5869934v4.45758444q0 1.54031712.7234823 1.54031712.46676276 0 1.00353995-.4434246zm-3.61741147-1.42362645v-3.29067753q-2.14710874.74682044-2.98728173 1.54031714-.7934967.7234823-.7934967 1.79703667 0 .8868493.44342463 1.3536121.44342463.4434247 1.16690692.4434247.77015857 0 1.35361203-.3734102.490101-.3500721.6534679-.6534679t.163367-.8168348zm9.6926204 2.9639436h-5.5078007v-.3500721q1.0968925-.09335254 1.4469646-.44342462.35007207-.3734102.35007207-1.353612v-10.9455869q0-.8401729-.21004325-1.1669069t-.77015857-.3267339q-.4901009 0-.8635111.0466763v-.3734102q2.2171232-.5367768 3.6874259-1.0268777l.1166907.0933526v13.8161775q0 .9802019.326734 1.3069358.326734.3033958 1.4236265.3734102v.3500721zm4.09110306-15.8932719v7.11813182q.37341022-.88684927 1.2135832-1.42362645.86351113-.5367772 1.9370655-.5367772 1.84371294 0 3.01061986 1.47030274 1.19024507 1.47030272 1.19024507 3.66408774 0 2.56719524-1.56365528 4.20086493-1.56365528 1.6336697-3.89746913 1.6336697-1.42362645 0-2.63720965-.4667627-1.2135832-.4901009-1.2135832-1.0735543v-11.9024507q0-.8635111-.2100433-1.0968925-.2100433-.2567195-.9335256-.2567195-.163367 0-.3967484.0466763v-.3967483l.7001441-.2100432q2.3804901-.7234818 2.6838859-.8168344l.1166907.0466763zm0 8.47174385v5.6945058q0 .53677718.65346788.88684926.676806.32673393 1.61033155.32673393 1.37695018 0 2.1704469-1.00353995.8635111-1.07355437.8635111-3.08063428 0-2.28713758-.9101874-3.5707352-.77015856-1.0968925-2.07709432-1.0968925-.93352554 0-1.6336697.56011532-.676806.5367772-.676806 1.28359762zm19.06725915 2.03041805q0 2.45050454-1.47030272 4.03749796-1.4469646 1.5869934-3.78077844 1.5869934-2.1471087 0-3.5940733-1.5636553-1.4469646-1.5869934-1.4469646-3.9908217 0-2.4271664 1.4469646-3.9208073t3.8041166-1.4936409q2.1704469 0 3.5940734 1.4936408 1.4469646 1.4703027 1.4469646 3.8507928zm-2.10043246.63012974q0-2.6605478-1.1669069-4.15418866-.9335255-1.1669069-2.2171231-1.1669069-1.2135832 0-1.9604036 1.00354-.7468204.9802018-.7468204 2.7072241 0 2.9872818 1.2369214 4.7843184.7934967 1.166907 2.1004325 1.166907 1.2835976 0 2.0070799-1.1435688.7468205-1.1669069.7468205-3.1973249zm13.4781391 4.76098025h-4.6909658v-.35007208q.5834535-.04667627.7468205-.14002883.1867051-.1166906.1867051-.4200864 0-.2100432-.1400288-.4200865l-2.1237706-3.2673394-1.8437129 2.8705911q-.4667628.7234823-.4667628.9568637 0 .4200865.9335256.4200865v.3500721h-3.3840301v-.3500721q.5834535-.0466762.8868493-.2567195.326734-.2333813.8168349-.9335255l2.6605478-3.8507928-2.193785-3.3606919q-.5367772-.8168349-.9101874-1.0968925-.3734102-.3033958-.8868493-.3033958h-.2100432v-.3500721h4.8309947v.3500721q-1.0035399.0233381-1.0035399.513439 0 .4901009 1.0735544 2.0770944.3033958.4200865.32673395.4667628.1166907-.16336692.7001442-1.0268781.1166907-.2100432.2800577-.4434246.163367-.2333814.2333814-.3734102l.1867051-.2800577q.09335257-.1400288.1166907-.2333813.0466763-.1166907.0466763-.1867051 0-.44342462-.93352555-.51343904v-.3500721h3.6874259v.3500721q-1.1902451.0466763-1.8903892 1.0268781l-1.9370655 2.8005766 2.9872817 4.57427516q.9101874 1.4002883 1.9137274 1.4002883v.3500721z" style="-inkscape-font-specification:STIXGeneral" font-size="22.5" font-family="STIXGeneral" letter-spacing="0" word-spacing="0"/>
</svg>
