<svg xmlns="http://www.w3.org/2000/svg" width="251.7175" height="164.4425">
  <defs>
    <clipPath id="a">
      <path d="M0 131.554h201.374V0H0v131.554z"/>
    </clipPath>
  </defs>
  <g clip-path="url(#a)" transform="matrix(1.25,0,0,-1.25,0,164.4425)">
    <path fill="#333" d="M197.1702 0H4.2042C1.8822 0 .0002 1.882.0002 4.204v83.261h1.753v2.213H.0002v2.557l1.753-.001v2.214H.0002v2.494h1.753v2.213H.0002v28.195c0 2.322 1.882 4.204 4.204 4.204h192.966c2.322 0 4.204-1.882 4.204-4.204V99.155h-1.753v-2.213h1.753v-2.494h-1.753v-2.214h1.753v-2.556h-1.753v-2.213h1.753V4.204c0-2.322-1.882-4.204-4.204-4.204"/>
    <path d="M199.621 96.942H1.753v2.213h197.868v-2.213zm0-4.708H1.753v2.213h197.868v-2.213zm0-4.769H1.753v2.213h197.868v-2.213z"/>
    <path fill="#b12a12" d="M2.962 130.899h195.463v-29.332H2.962v29.332z"/>
    <path d="M3.289 101.895h194.808v28.677H3.289v-28.677zm195.462-.655H2.634v29.987h196.117V101.24z"/>
    <path fill="#b12a12" d="M2.9615 106.4557h195.463"/>
    <path d="M198.424 106.128H2.962v.655h195.462v-.655z"/>
    <path fill="#b12a12" d="M2.9615 111.3444h195.463"/>
    <path d="M198.424 111.017H2.962v.655h195.462v-.655z"/>
    <path fill="#b12a12" d="M2.9615 116.2332h195.463"/>
    <path d="M198.424 115.906H2.962v.655h195.462v-.655z"/>
    <path fill="#b12a12" d="M2.9615 121.1219h195.463"/>
    <path d="M198.424 120.795H2.962v.655h195.462v-.655z"/>
    <path fill="#b12a12" d="M2.9615 126.0106h195.463"/>
    <path d="M198.424 125.683H2.962v.655h195.462v-.655z"/>
    <path fill="#b12a12" d="M192.5011 130.8993v-29.332"/>
    <path d="M192.829 101.567h-.655v29.332h.655v-29.332z"/>
    <path fill="#b12a12" d="M186.5779 130.8993v-29.332"/>
    <path d="M186.905 101.567h-.655v29.332h.655v-29.332z"/>
    <path fill="#b12a12" d="M180.6548 130.8993v-29.332"/>
    <path d="M180.982 101.567h-.655v29.332h.655v-29.332z"/>
    <path fill="#b12a12" d="M174.7317 130.8993v-29.332"/>
    <path d="M175.059 101.567h-.655v29.332h.655v-29.332z"/>
    <path fill="#b12a12" d="M168.8086 130.8993v-29.332"/>
    <path d="M169.136 101.567h-.655v29.332h.655v-29.332z"/>
    <path fill="#b12a12" d="M162.8855 130.8993v-29.332"/>
    <path d="M163.213 101.567h-.655v29.332h.655v-29.332z"/>
    <path fill="#b12a12" d="M156.9624 130.8993v-29.332"/>
    <path d="M157.29 101.567h-.655v29.332h.655v-29.332z"/>
    <path fill="#b12a12" d="M151.0393 130.8993v-29.332"/>
    <path d="M151.367 101.567h-.655v29.332h.655v-29.332z"/>
    <path fill="#b12a12" d="M145.1162 130.8993v-29.332"/>
    <path d="M145.444 101.567h-.655v29.332h.655v-29.332z"/>
    <path fill="#b12a12" d="M139.1931 130.8993v-29.332"/>
    <path d="M139.52 101.567h-.655v29.332h.655v-29.332z"/>
    <path fill="#b12a12" d="M133.27 130.8993v-29.332"/>
    <path d="M133.597 101.567h-.655v29.332h.655v-29.332z"/>
    <path fill="#b12a12" d="M127.3469 130.8993v-29.332"/>
    <path d="M127.674 101.567h-.655v29.332h.655v-29.332z"/>
    <path fill="#b12a12" d="M121.4238 130.8993v-29.332"/>
    <path d="M121.751 101.567h-.655v29.332h.655v-29.332z"/>
    <path fill="#b12a12" d="M115.5006 130.8993v-29.332"/>
    <path d="M115.828 101.567h-.655v29.332h.655v-29.332z"/>
    <path fill="#b12a12" d="M109.5775 130.8993v-29.332"/>
    <path d="M109.905 101.567h-.655v29.332h.655v-29.332z"/>
    <path fill="#b12a12" d="M103.6544 130.8993v-29.332"/>
    <path d="M103.982 101.567h-.655v29.332h.655v-29.332z"/>
    <path fill="#b12a12" d="M97.7313 130.8993v-29.332"/>
    <path d="M98.059 101.567h-.655v29.332h.655v-29.332z"/>
    <path fill="#b12a12" d="M91.8082 130.8993v-29.332"/>
    <path d="M92.135 101.567h-.655v29.332h.655v-29.332z"/>
    <path fill="#b12a12" d="M85.8851 130.8993v-29.332"/>
    <path d="M86.213 101.567h-.655v29.332h.655v-29.332z"/>
    <path fill="#b12a12" d="M79.962 130.8993v-29.332"/>
    <path d="M80.289 101.567h-.655v29.332h.655v-29.332z"/>
    <path fill="#b12a12" d="M74.0389 130.8993v-29.332"/>
    <path d="M74.366 101.567h-.655v29.332h.655v-29.332z"/>
    <path fill="#b12a12" d="M68.1158 130.8993v-29.332"/>
    <path d="M68.443 101.567h-.655v29.332h.655v-29.332z"/>
    <path fill="#b12a12" d="M62.1926 130.8993v-29.332"/>
    <path d="M62.52 101.567h-.655v29.332h.655v-29.332z"/>
    <path fill="#b12a12" d="M56.2695 130.8993v-29.332"/>
    <path d="M56.597 101.567h-.655v29.332h.655v-29.332z"/>
    <path fill="#b12a12" d="M50.3464 130.8993v-29.332"/>
    <path d="M50.674 101.567h-.655v29.332h.655v-29.332z"/>
    <path fill="#b12a12" d="M44.4233 130.8993v-29.332"/>
    <path d="M44.751 101.567h-.655v29.332h.655v-29.332z"/>
    <path fill="#b12a12" d="M38.5002 130.8993v-29.332"/>
    <path d="M38.828 101.567h-.655v29.332h.655v-29.332z"/>
    <path fill="#b12a12" d="M32.5771 130.8993v-29.332"/>
    <path d="M32.905 101.567h-.655v29.332h.655v-29.332z"/>
    <path fill="#b12a12" d="M26.654 130.8993v-29.332"/>
    <path d="M26.981 101.567h-.655v29.332h.655v-29.332z"/>
    <path fill="#b12a12" d="M20.7309 130.8993v-29.332"/>
    <path d="M21.059 101.567h-.655v29.332h.655v-29.332z"/>
    <path fill="#b12a12" d="M14.8078 130.8993v-29.332"/>
    <path d="M15.135 101.567h-.655v29.332h.655v-29.332z"/>
    <path fill="#b12a12" d="M8.8847 130.8993v-29.332"/>
    <path d="M9.212 101.567h-.655v29.332h.655v-29.332z"/>
    <path fill="#fff" d="M150.221 107.5113l4.748.004c1.942 0 3.516 1.574 3.516 3.516 0 1.941-1.574 3.515-3.516 3.515l-1.233-.006c-.098 0-.178.08-.178.178 0 .099.08.178.178.178h4.736l.003 1.488h-4.74c-.919 0-1.663-.744-1.663-1.663 0-.918.744-1.663 1.663-1.663l1.239-.014c1.112 0 2.013-.901 2.013-2.012 0-1.113-.901-2.014-2.013-2.014h-4.751l-.002-1.507"/>
    <path fill="#fff" d="M150.2228 109.369h4.751c.919 0 1.663.744 1.663 1.663 0 .918-.744 1.663-1.663 1.663l-1.239.013c-1.112 0-2.013.901-2.013 2.014 0 1.111.901 2.012 2.013 2.012l4.74.002-.002 1.497-4.737.001c-1.942 0-3.515-1.574-3.515-3.516 0-1.941 1.573-3.515 3.515-3.515l1.226-.001c.095 0 .171-.077.171-.172 0-.095-.076-.172-.171-.172l-4.741-.002.002-1.487m11.9413-.3598c-.823 0-1.497.659-1.497 1.497v4.759c0 .807.674 1.474 1.497 1.474l5.068-.001-.001 1.494-5.067.001c-1.648 0-2.984-1.336-2.984-2.983v-4.744c0-1.648 1.336-2.983 2.984-2.983l5.047-.003-.002 1.491-5.045-.002"/>
    <path fill="#fff" d="M161.0302 115.2501c0 .628.505 1.138 1.134 1.138h5.068l-.001-1.493h-4.366c-.35 0-.354-.351-.354-.351h3.641l.001-1.488h-5.125l.002 2.194m1.1339-5.879c-.627 0-1.135.508-1.135 1.135l-.001 2.195h5.125l-.001-1.492h-3.641c.004-.351.354-.352.354-.352h4.346l-.002-1.484-5.045-.002m8.6185-.3578c-.823 0-1.493.671-1.493 1.493v4.744c0 .822.666 1.489 1.489 1.489l4.906.001.001 1.493h-4.919c-1.648 0-2.983-1.336-2.983-2.983v-4.744c0-1.648 1.347-2.983 2.995-2.983l4.907-.003-.001 7.025h-4.217v-1.489h2.727v-4.044l-3.412.001"/>
    <path fill="#fff" d="M169.6406 110.5061c0-.628.51-1.145 1.138-1.145l3.064-.001v3.344h-2.371v-1.494h.88l.004-.351-.876.001c-.193 0-.35.157-.35.35l-.006 3.337s0 .348.352.355h4.213l-.004 1.489-4.906-.003c-.628 0-1.138-.51-1.138-1.138v-4.744m10.6551 5.9063c.066.19.246.326.459.326.212 0 .393-.137.459-.327l2.38-7.059h-3.486l.004 1.66h1.166l-.526 1.563-1.708-5.054h-1.76l3.012 8.891"/>
    <path fill="#fff" d="M184.0749 109.0127h-3.961v-1.491h6.03l-3.136 9.31c-.275.908-1.18 1.574-2.254 1.574s-1.978-.666-2.254-1.572l-3.166-9.312h1.579l3.072 9.052c.125.3.421.51.766.51.345 0 .64-.209.765-.507l2.559-7.564"/>
  </g>
  <path fill="#fff" d="M25.930826 24.785749h-3.645l-5.355-6.93-1.26.045v4.365q0 1.2825.3375 1.6425.36.36 1.665.45v.4275h-6.21v-.4275q1.2825-.1125 1.5975-.495.315-.3825.315-1.8675v-9.6075q0-1.26-.315-1.62-.315-.36-1.5975-.45v-.4274996h6.12q3.0825 0 4.7025 1.3274996 1.1025.9 1.1025 2.7 0 3.06-4.0725 3.69l4.5 5.6925q.4725.585.9.7875.4275.2025 1.215.27v.4275zm-10.26-13.1175v5.4q1.62-.0225 2.4075-.18.7875-.1575 1.575-.585 1.2825-.72 1.2825-2.565 0-3.015-4.1175-3.015-.6075 0-.8775.2025-.27.18-.27.7425zm19.311679 9.4275l.36.1575q-1.35 3.7575-4.7025 3.7575-1.98 0-3.1275-1.3725-1.1475-1.395-1.1475-3.735 0-2.4075 1.2825-3.9375 1.2825-1.53 3.375-1.53 2.025 0 3.1275 1.5525.6525.9.765 2.565h-6.93q.09 1.4175.27 2.16.2025.7425.765 1.5075.945 1.2375 2.4975 1.2375 1.1025 0 1.845-.54.765-.54 1.62-1.8225zm-6.9525-3.2625h4.59q-.2025-1.4175-.675-2.0025-.45-.585-1.53-.585-.945 0-1.575.675-.63.6525-.81 1.9125zm16.747032 3.4425l.315.2025q-.9675 1.89-1.845 2.5875-1.1475.945-2.5875.945-1.8675 0-3.0825-1.395-1.1925-1.4175-1.1925-3.6 0-2.8575 1.89-4.4325 1.395-1.1475 3.0375-1.1475 1.4175 0 2.43.6975 1.035.675 1.035 1.62 0 .3825-.315.675-.315.27-.7425.27-.7875 0-1.08-1.035l-.135-.495q-.18-.63-.45-.855-.27-.225-.8775-.225-1.3725 0-2.2275 1.08-.8325 1.08-.8325 2.835 0 1.935.9675 3.1725.9675 1.215 2.52 1.215.9675 0 1.665-.45.6975-.4725 1.5075-1.665zm11.009531 2.025v.63q-.855 1.08-2.025 1.08-1.2825 0-1.44-1.6425h-.0225q-1.44 1.6425-3.2625 1.6425-1.0575 0-1.71-.6075-.6525-.63-.6525-1.7325 0-1.575 1.575-2.6325 1.08-.72 4.05-1.8225v-1.215q0-1.0125-.495-1.5075-.4725-.5175-1.26-.5175-.675 0-1.125.3375-.45.315-.45.765 0 .2025.0675.45t.0675.495q0 .3375-.315.63-.2925.2925-.72.2925-.3825 0-.675-.2925-.2925-.2925-.2925-.7425 0-1.08 1.1475-1.8 1.0575-.675 2.5875-.675 1.8225 0 2.655 1.0125.405.4725.5175.9675.1125.4725.1125 1.53v4.2975q0 1.485.6975 1.485.45 0 .9675-.4275zm-3.4875-1.3725v-3.1725q-2.07.72-2.88 1.485-.765.6975-.765 1.7325 0 .855.4275 1.305.4275.4275 1.125.4275.7425 0 1.305-.36.4725-.3375.63-.63.1575-.2925.1575-.7875zm9.344531 2.8575h-5.31v-.3375q1.0575-.09 1.395-.4275.3375-.36.3375-1.305v-10.5525q0-.81-.2025-1.125-.2025-.315-.7425-.315-.4725 0-.8325.045v-.36q2.1375-.5174996 3.555-.9899996l.1125.09V22.828249q0 .945.315 1.26.315.2925 1.3725.36v.3375zm3.94418-15.3224996v6.8624996q.36-.855 1.17-1.3725.8325-.5175 1.8675-.5175 1.7775 0 2.9025 1.4175 1.1475 1.4175 1.1475 3.5325 0 2.475-1.5075 4.05-1.5075 1.575-3.7575 1.575-1.3725 0-2.5425-.45-1.17-.4725-1.17-1.035v-11.475q0-.8325-.2025-1.0575-.2025-.2475-.9-.2475-.1575 0-.3825.045v-.3825l.675-.2025q2.295-.6974996 2.5875-.7874996l.1125.045zm0 8.1674996v5.49q0 .5175.63.855.6525.315 1.5525.315 1.3275 0 2.0925-.9675.8325-1.035.8325-2.97 0-2.205-.8775-3.4425-.7425-1.0575-2.0025-1.0575-.9 0-1.575.54-.6525.5175-.6525 1.2375zm18.3825 1.9575q0 2.3625-1.4175 3.8925-1.395 1.53-3.645 1.53-2.07 0-3.465-1.5075-1.395-1.53-1.395-3.8475 0-2.34 1.395-3.78t3.6675-1.44q2.0925 0 3.465 1.44 1.395 1.4175 1.395 3.7125zm-2.025.6075q0-2.565-1.125-4.005-.9-1.125-2.1375-1.125-1.17 0-1.89.9675-.72.945-.72 2.61 0 2.88 1.1925 4.6125.765 1.125 2.025 1.125 1.2375 0 1.935-1.1025.72-1.125.72-3.0825zm12.994101 4.59h-4.5225v-.3375q.5625-.045.72-.135.18-.1125.18-.405 0-.2025-.135-.405l-2.0475-3.15-1.7775 2.7675q-.45.6975-.45.9225 0 .405.9.405v.3375h-3.2625v-.3375q.5625-.045.855-.2475.315-.225.7875-.9l2.565-3.7125-2.115-3.24q-.5175-.7875-.8775-1.0575-.36-.2925-.855-.2925h-.2025v-.3375h4.6575v.3375q-.9675.0225-.9675.495t1.035 2.0025q.2925.405.315.45.1125-.1575.675-.99.1125-.2025.27-.4275.1575-.225.225-.36l.18-.27q.09-.135.1125-.225.045-.1125.045-.18 0-.4275-.9-.495v-.3375h3.555v.3375q-1.1475.045-1.8225.99l-1.8675 2.7 2.88 4.41q.8775 1.35 1.845 1.35v.3375z" style="-inkscape-font-specification:STIXGeneral" font-size="22.5" font-family="STIXGeneral" letter-spacing="0" word-spacing="0"/>
</svg>
