<svg xmlns="http://www.w3.org/2000/svg" width="306.14621" height="200">
  <defs>
    <clipPath id="a">
      <path d="M0 131.554h201.374V0H0v131.554z"/>
    </clipPath>
  </defs>
  <g clip-path="url(#a)" transform="matrix(1.5202882,0,0,-1.5202882,-3.0405764e-4,199.99999)">
    <path fill="#333" d="M197.1702 0H4.2042C1.8822 0 .0002 1.882.0002 4.204v83.261h1.753v2.213H.0002v2.557l1.753-.001v2.214H.0002v2.494h1.753v2.213H.0002v28.195c0 2.322 1.882 4.204 4.204 4.204h192.966c2.322 0 4.204-1.882 4.204-4.204V99.155h-1.753v-2.213h1.753v-2.494h-1.753v-2.214h1.753v-2.556h-1.753v-2.213h1.753V4.204c0-2.322-1.882-4.204-4.204-4.204"/>
    <path d="M199.621 96.942H1.753v2.213h197.868v-2.213zm0-4.708H1.753v2.213h197.868v-2.213zm0-4.769H1.753v2.213h197.868v-2.213z"/>
    <path fill="#b12a12" d="M2.962 130.899h195.463v-29.332H2.962v29.332z"/>
    <path d="M3.289 101.895h194.808v28.677H3.289v-28.677zm195.462-.655H2.634v29.987h196.117V101.24z"/>
    <path fill="#b12a12" d="M2.9615 106.4557h195.463"/>
    <path d="M198.424 106.128H2.962v.655h195.462v-.655z"/>
    <path fill="#b12a12" d="M2.9615 111.3444h195.463"/>
    <path d="M198.424 111.017H2.962v.655h195.462v-.655z"/>
    <path fill="#b12a12" d="M2.9615 116.2332h195.463"/>
    <path d="M198.424 115.906H2.962v.655h195.462v-.655z"/>
    <path fill="#b12a12" d="M2.9615 121.1219h195.463"/>
    <path d="M198.424 120.795H2.962v.655h195.462v-.655z"/>
    <path fill="#b12a12" d="M2.9615 126.0106h195.463"/>
    <path d="M198.424 125.683H2.962v.655h195.462v-.655z"/>
    <path fill="#b12a12" d="M192.5011 130.8993v-29.332"/>
    <path d="M192.829 101.567h-.655v29.332h.655v-29.332z"/>
    <path fill="#b12a12" d="M186.5779 130.8993v-29.332"/>
    <path d="M186.905 101.567h-.655v29.332h.655v-29.332z"/>
    <path fill="#b12a12" d="M180.6548 130.8993v-29.332"/>
    <path d="M180.982 101.567h-.655v29.332h.655v-29.332z"/>
    <path fill="#b12a12" d="M174.7317 130.8993v-29.332"/>
    <path d="M175.059 101.567h-.655v29.332h.655v-29.332z"/>
    <path fill="#b12a12" d="M168.8086 130.8993v-29.332"/>
    <path d="M169.136 101.567h-.655v29.332h.655v-29.332z"/>
    <path fill="#b12a12" d="M162.8855 130.8993v-29.332"/>
    <path d="M163.213 101.567h-.655v29.332h.655v-29.332z"/>
    <path fill="#b12a12" d="M156.9624 130.8993v-29.332"/>
    <path d="M157.29 101.567h-.655v29.332h.655v-29.332z"/>
    <path fill="#b12a12" d="M151.0393 130.8993v-29.332"/>
    <path d="M151.367 101.567h-.655v29.332h.655v-29.332z"/>
    <path fill="#b12a12" d="M145.1162 130.8993v-29.332"/>
    <path d="M145.444 101.567h-.655v29.332h.655v-29.332z"/>
    <path fill="#b12a12" d="M139.1931 130.8993v-29.332"/>
    <path d="M139.52 101.567h-.655v29.332h.655v-29.332z"/>
    <path fill="#b12a12" d="M133.27 130.8993v-29.332"/>
    <path d="M133.597 101.567h-.655v29.332h.655v-29.332z"/>
    <path fill="#b12a12" d="M127.3469 130.8993v-29.332"/>
    <path d="M127.674 101.567h-.655v29.332h.655v-29.332z"/>
    <path fill="#b12a12" d="M121.4238 130.8993v-29.332"/>
    <path d="M121.751 101.567h-.655v29.332h.655v-29.332z"/>
    <path fill="#b12a12" d="M115.5006 130.8993v-29.332"/>
    <path d="M115.828 101.567h-.655v29.332h.655v-29.332z"/>
    <path fill="#b12a12" d="M109.5775 130.8993v-29.332"/>
    <path d="M109.905 101.567h-.655v29.332h.655v-29.332z"/>
    <path fill="#b12a12" d="M103.6544 130.8993v-29.332"/>
    <path d="M103.982 101.567h-.655v29.332h.655v-29.332z"/>
    <path fill="#b12a12" d="M97.7313 130.8993v-29.332"/>
    <path d="M98.059 101.567h-.655v29.332h.655v-29.332z"/>
    <path fill="#b12a12" d="M91.8082 130.8993v-29.332"/>
    <path d="M92.135 101.567h-.655v29.332h.655v-29.332z"/>
    <path fill="#b12a12" d="M85.8851 130.8993v-29.332"/>
    <path d="M86.213 101.567h-.655v29.332h.655v-29.332z"/>
    <path fill="#b12a12" d="M79.962 130.8993v-29.332"/>
    <path d="M80.289 101.567h-.655v29.332h.655v-29.332z"/>
    <path fill="#b12a12" d="M74.0389 130.8993v-29.332"/>
    <path d="M74.366 101.567h-.655v29.332h.655v-29.332z"/>
    <path fill="#b12a12" d="M68.1158 130.8993v-29.332"/>
    <path d="M68.443 101.567h-.655v29.332h.655v-29.332z"/>
    <path fill="#b12a12" d="M62.1926 130.8993v-29.332"/>
    <path d="M62.52 101.567h-.655v29.332h.655v-29.332z"/>
    <path fill="#b12a12" d="M56.2695 130.8993v-29.332"/>
    <path d="M56.597 101.567h-.655v29.332h.655v-29.332z"/>
    <path fill="#b12a12" d="M50.3464 130.8993v-29.332"/>
    <path d="M50.674 101.567h-.655v29.332h.655v-29.332z"/>
    <path fill="#b12a12" d="M44.4233 130.8993v-29.332"/>
    <path d="M44.751 101.567h-.655v29.332h.655v-29.332z"/>
    <path fill="#b12a12" d="M38.5002 130.8993v-29.332"/>
    <path d="M38.828 101.567h-.655v29.332h.655v-29.332z"/>
    <path fill="#b12a12" d="M32.5771 130.8993v-29.332"/>
    <path d="M32.905 101.567h-.655v29.332h.655v-29.332z"/>
    <path fill="#b12a12" d="M26.654 130.8993v-29.332"/>
    <path d="M26.981 101.567h-.655v29.332h.655v-29.332z"/>
    <path fill="#b12a12" d="M20.7309 130.8993v-29.332"/>
    <path d="M21.059 101.567h-.655v29.332h.655v-29.332z"/>
    <path fill="#b12a12" d="M14.8078 130.8993v-29.332"/>
    <path d="M15.135 101.567h-.655v29.332h.655v-29.332z"/>
    <path fill="#b12a12" d="M8.8847 130.8993v-29.332"/>
    <path d="M9.212 101.567h-.655v29.332h.655v-29.332z"/>
    <path fill="#fff" d="M150.221 107.5113l4.748.004c1.942 0 3.516 1.574 3.516 3.516 0 1.941-1.574 3.515-3.516 3.515l-1.233-.006c-.098 0-.178.08-.178.178 0 .099.08.178.178.178h4.736l.003 1.488h-4.74c-.919 0-1.663-.744-1.663-1.663 0-.918.744-1.663 1.663-1.663l1.239-.014c1.112 0 2.013-.901 2.013-2.012 0-1.113-.901-2.014-2.013-2.014h-4.751l-.002-1.507"/>
    <path fill="#fff" d="M150.2228 109.369h4.751c.919 0 1.663.744 1.663 1.663 0 .918-.744 1.663-1.663 1.663l-1.239.013c-1.112 0-2.013.901-2.013 2.014 0 1.111.901 2.012 2.013 2.012l4.74.002-.002 1.497-4.737.001c-1.942 0-3.515-1.574-3.515-3.516 0-1.941 1.573-3.515 3.515-3.515l1.226-.001c.095 0 .171-.077.171-.172 0-.095-.076-.172-.171-.172l-4.741-.002.002-1.487m11.9413-.3598c-.823 0-1.497.659-1.497 1.497v4.759c0 .807.674 1.474 1.497 1.474l5.068-.001-.001 1.494-5.067.001c-1.648 0-2.984-1.336-2.984-2.983v-4.744c0-1.648 1.336-2.983 2.984-2.983l5.047-.003-.002 1.491-5.045-.002"/>
    <path fill="#fff" d="M161.0302 115.2501c0 .628.505 1.138 1.134 1.138h5.068l-.001-1.493h-4.366c-.35 0-.354-.351-.354-.351h3.641l.001-1.488h-5.125l.002 2.194m1.1339-5.879c-.627 0-1.135.508-1.135 1.135l-.001 2.195h5.125l-.001-1.492h-3.641c.004-.351.354-.352.354-.352h4.346l-.002-1.484-5.045-.002m8.6185-.3578c-.823 0-1.493.671-1.493 1.493v4.744c0 .822.666 1.489 1.489 1.489l4.906.001.001 1.493h-4.919c-1.648 0-2.983-1.336-2.983-2.983v-4.744c0-1.648 1.347-2.983 2.995-2.983l4.907-.003-.001 7.025h-4.217v-1.489h2.727v-4.044l-3.412.001"/>
    <path fill="#fff" d="M169.6406 110.5061c0-.628.51-1.145 1.138-1.145l3.064-.001v3.344h-2.371v-1.494h.88l.004-.351-.876.001c-.193 0-.35.157-.35.35l-.006 3.337s0 .348.352.355h4.213l-.004 1.489-4.906-.003c-.628 0-1.138-.51-1.138-1.138v-4.744m10.6551 5.9063c.066.19.246.326.459.326.212 0 .393-.137.459-.327l2.38-7.059h-3.486l.004 1.66h1.166l-.526 1.563-1.708-5.054h-1.76l3.012 8.891"/>
    <path fill="#fff" d="M184.0749 109.0127h-3.961v-1.491h6.03l-3.136 9.31c-.275.908-1.18 1.574-2.254 1.574s-1.978-.666-2.254-1.572l-3.166-9.312h1.579l3.072 9.052c.125.3.421.51.766.51.345 0 .64-.209.765-.507l2.559-7.564"/>
  </g>
  <path fill="#fff" d="M31.53756 30.14518h-4.433161l-6.512914-8.428478-1.532451.05473v5.308846q0 1.559816.410478 1.997659.437843.437843 2.025024.547304v.519938h-7.552792v-.519938q1.559816-.136826 1.942928-.602035.383113-.465208.383113-2.27131V15.06696q0-1.53245-.383113-1.970293-.383112-.437843-1.942928-.547304v-.519938h7.443331q3.749031 0 5.719324 1.614546 1.340895 1.094607 1.340895 3.283822 0 3.721666-4.953099 4.487891l5.473037 6.923393q.574669.711495 1.094608.957781.519938.246287 1.47772.328383v.519938zM19.059034 14.191275v6.567646q1.970294-.02737 2.928075-.218922.957782-.191556 1.915563-.711495 1.559816-.875686 1.559816-3.119631 0-3.666935-5.007829-3.666935-.73886 0-1.067243.246286-.328382.218922-.328382.903051zm23.487455 11.466014l.437843.191557q-1.641911 4.569986-5.719324 4.569986-2.408137 0-3.803762-1.669276-1.395624-1.696642-1.395624-4.542622 0-2.928075 1.559815-4.788908 1.559816-1.860832 4.104779-1.860832 2.462867 0 3.803761 1.888198.79359 1.094607.930416 3.119631h-8.428478q.109461 1.724007.328383 2.627058.246286.903051.930416 1.833468 1.149338 1.505085 3.037536 1.505085 1.340894 0 2.243945-.656764.930417-.656765 1.970294-2.216581zm-8.455843-3.967952h5.582498q-.246287-1.724007-.820956-2.435502-.547303-.711495-1.860832-.711495-1.149338 0-1.915564.820956-.766225.793591-.985146 2.326041zm20.368252 4.186874l.383113.246286q-1.176703 2.298676-2.243945 3.146997-1.395625 1.149338-3.146997 1.149338-2.271311 0-3.749031-1.696642-1.450355-1.724007-1.450355-4.37843 0-3.475379 2.298676-5.390942 1.696642-1.395624 3.6943-1.395624 1.724007 0 2.955441.84832 1.258798.820956 1.258798 1.970294 0 .465208-.383112.820956-.383113.328382-.903051.328382-.957782 0-1.31353-1.258799l-.164191-.602034q-.218921-.766225-.547303-1.039877-.328383-.273652-1.067243-.273652-1.669276 0-2.709153 1.313529-1.012512 1.313529-1.012512 3.448014 0 2.353406 1.176703 3.858491 1.176703 1.47772 3.064901 1.47772 1.176703 0 2.025024-.547303.848321-.574669 1.833467-2.025024zm13.390129 2.462867v.766225q-1.039877 1.313529-2.462867 1.313529-1.559816 0-1.751372-1.997659h-.02737q-1.751372 1.997659-3.967953 1.997659-1.286164 0-2.079754-.73886-.79359-.766225-.79359-2.10712 0-1.915563 1.915563-3.201726 1.313529-.875686 4.925734-2.216581v-1.47772q0-1.231433-.602034-1.833468-.574669-.629399-1.532451-.629399-.820956 0-1.368259.410478-.547304.383113-.547304.930416 0 .246287.08209.547304.0821.301017.0821.602034 0 .410478-.383113.766226-.355747.355747-.875686.355747-.465208 0-.820955-.355747-.355748-.355748-.355748-.903052 0-1.313529 1.395625-2.189215 1.286164-.820955 3.146996-.820955 2.216581 0 3.229093 1.231433.492573.574669.629399 1.176703.136826.574669.136826 1.860833v5.226751q0 1.806102.848321 1.806102.547304 0 1.176703-.519938zm-4.241604-1.669277V22.81131q-2.517598.875686-3.502744 1.806102-.930417.848321-.930417 2.10712 0 1.039877.519939 1.587181.519938.519938 1.368259.519938.903051 0 1.587181-.437843.574669-.410478.766225-.766225.191557-.355748.191557-.957782zm11.365104 3.475379h-6.458184v-.410478q1.286164-.10946 1.696641-.519938.410478-.437843.410478-1.587181V14.79331q0-.985147-.246286-1.36826-.246287-.383112-.903052-.383112-.574669 0-1.012512.05473v-.437843q2.599693-.629399 4.3237-1.204068l.136826.109461v16.200191q0 1.149338.383113 1.53245.383112.355748 1.669276.437843v.410478zm4.797033-18.635693v8.346382q.437843-1.039877 1.422989-1.669276 1.012512-.629399 2.271311-.629399 2.16185 0 3.530109 1.724007 1.395625 1.724006 1.395625 4.296334 0 3.010171-1.833468 4.925734-1.833467 1.915563-4.569986 1.915563-1.669277 0-3.092266-.547304-1.42299-.574669-1.42299-1.258798V14.656484q0-1.012512-.246287-1.286164-.246287-.301017-1.094607-.301017-.191557 0-.465209.05473v-.465208l.820956-.246287q2.791249-.84832 3.146997-.957781l.136826.05473zm0 9.933563v6.677106q0 .6294.766225 1.039877.79359.383113 1.888198.383113 1.614546 0 2.544962-1.176703 1.012512-1.258799 1.012512-3.612205 0-2.681788-1.067242-4.186874-.903051-1.286163-2.435502-1.286163-1.094607 0-1.915563.656764-.79359.629399-.79359 1.505085zm22.35736 2.380772q0 2.873344-1.72401 4.734177-1.69664 1.860833-4.433159 1.860833-2.517597 0-4.214239-1.833468-1.696642-1.860832-1.696642-4.679447 0-2.845979 1.696642-4.597351t4.460526-1.751372q2.544962 0 4.214242 1.751372 1.69664 1.724007 1.69664 4.515256zm-2.462868.73886q0-3.119632-1.36826-4.871004-1.094607-1.368259-2.599693-1.368259-1.42299 0-2.298676 1.176703-.875686 1.149338-.875686 3.174362 0 3.502744 1.450355 5.609863.930417 1.36826 2.462867 1.36826 1.505086 0 2.353407-1.340894.875686-1.36826.875686-3.749031zm15.803818 5.582498h-5.5004v-.410478q.68413-.05473.87569-.164191.21892-.136826.21892-.492573 0-.246287-.16419-.492574l-2.49023-3.831126-2.16185 3.365918q-.54731.848321-.54731 1.121973 0 .492573 1.09461.492573v.410478h-3.96795v-.410478q.68413-.05473 1.03987-.301017.38312-.273652.95779-1.094607l3.11963-4.515256-2.57233-3.940587q-.6294-.957782-1.06724-1.286164-.43785-.355748-1.03988-.355748h-.24629v-.410477h5.6646v.410477q-1.17671.02737-1.17671.602034 0 .574669 1.2588 2.435502.35575.492574.38312.547304.13682-.191556.82095-1.204068.13683-.246287.32838-.519939.19156-.273652.27366-.437843l.21892-.328382q.10946-.164191.13682-.273652.0547-.136826.0547-.218922 0-.519938-1.0946-.602034v-.410477h4.3237v.410477q-1.39563.05473-2.21658 1.204069l-2.27131 3.283822 3.50274 5.363577q1.06724 1.641911 2.24394 1.641911v.410478z" style="-inkscape-font-specification:STIXGeneral" font-size="22.5" letter-spacing="0" word-spacing="0" font-family="STIXGeneral"/>
</svg>
