<svg xmlns="http://www.w3.org/2000/svg" width="566.927" height="124.853">
  <path fill="#1d1d1b" d="M33.98 108.928999l-.068-41.587h5.384v49.797h-5.384l-28.663-41.924.135 41.924H0v-49.797h5.652l28.328 41.587zm11.33-41.587h26.419v4.912H50.827v17.294h20.767v4.912H50.827v17.767h20.902v4.912H45.31v-49.797zm28.932 25.033c0-15.341 11.911-25.908 25.976-25.908 14.602 0 25.975 11.171 25.975 25.773 0 14.604-11.305 25.773-25.975 25.773-14.738 0-25.976-11.373-25.976-25.572v-.066zm5.585-.135c0 11.709 8.815 20.861 20.458 20.861 11.776 0 20.39-9.486 20.39-20.861 0-11.373-8.613-20.861-20.457-20.861-11.709 0-20.391 9.286-20.391 20.792v.069zm92.333-11.978c-1.548-2.153-3.433-3.97-5.586-5.383-3.23-2.221-7.133-3.5-11.574-3.5-10.902 0-20.39 8.344-20.39 20.792 0 12.652 9.556 20.996 20.457 20.996 5.249 0 9.892-1.815 13.324-4.508 3.5-2.76 5.922-6.527 6.73-10.432h-27.104v-4.576h33.564c-.067 2.895-.74 6.527-2.221 9.624-4.307 9.354-14.267 14.804-24.293 14.804-14.535 0-26.042-11.17-26.042-25.908 0-14.938 11.709-25.706 26.109-25.706 10.094 0 19.448 5.653 23.351 13.795h-6.325v.002zm12.09-12.92h27.59v4.912h-22.071v17.294h21.937v4.912h-21.937v17.767h22.071v4.912h-27.59v-49.797zm29.811 25.033c0-15.341 11.911-25.908 25.975-25.908 14.603 0 25.975 11.171 25.975 25.773 0 14.604-11.305 25.773-25.975 25.773-14.737 0-25.975-11.373-25.975-25.572v-.066zm5.585-.135c0 11.709 8.815 20.861 20.457 20.861 11.777 0 20.39-9.486 20.39-20.861 0-11.373-8.613-20.861-20.457-20.861-11.709 0-20.39 9.286-20.39 20.792v.069zm107.82.135c0-15.341 11.91-25.908 25.976-25.908 14.603 0 25.976 11.171 25.976 25.773 0 14.604-11.305 25.773-25.976 25.773-14.737 0-25.976-11.373-25.976-25.572v-.066zm5.584-.135c0 11.709 8.816 20.861 20.459 20.861 11.777 0 20.391-9.486 20.391-20.861 0-11.373-8.613-20.861-20.458-20.861-11.708 0-20.392 9.286-20.392 20.792v.069zm101.951 11.508c-3.229 7.672-11.91 14.268-22.879 14.268-14.736 0-25.976-11.373-25.976-25.772 0-14.2 10.97-25.774 25.906-25.774 12.313 0 20.054 8.21 22.946 14.535h-5.99c-1.684-2.96-7.334-9.623-16.956-9.623-11.642 0-20.39 9.219-20.39 20.793 0 11.777 8.813 20.929 20.39 20.929 10.433 0 15.745-7.47 16.956-9.354l5.993-.002zm54.643-36.406h27.592v4.912h-22.072v17.294H517.1v4.912h-21.936v17.767h22.072v4.912h-27.592v-49.797zm55.584 4.912h-16.047v-4.912h37.746v4.912h-16.113v44.885h-5.586v-44.885zm-69.654 44.885002h6.932l-25.871-24.968 23.783-24.830003h-6.055l-26.105 26.998003V67.341998h-5.518v49.797003h5.518v-16.228l5.08-5.306 22.236 21.534z"/>
  <path fill="none" d="M302.794 120.945001c-10.838-21.554-21.646-43.050003-32.461-64.562003.06-.042.108-.083.163-.11 2.697-1.38 5.395-2.76 8.091-4.138 3.812-1.946 7.625-3.883 11.433-5.839 4.003-2.056 8.21-3.293 12.751-3.146 3.091.1 5.925.999 8.411 2.895 2.194 1.674 3.747 3.848 4.937 6.306 1.129 2.332 1.934 4.759 1.979 7.377.063 3.636-1.036 6.924-2.985 9.977-1.306 2.042-2.796 3.921-4.544 5.584-1.204 1.146-2.491 2.204-3.739 3.299-4.569-3.241-9.041-6.41-13.531-9.593.853-3.113 1.693-6.198 2.539-9.291h12.94v-9.823c-6.682.064-13.29.127-19.897.193-2.407 6.801-4.803 13.565-7.2 20.342 7.735 6.398 15.444 12.774003 23.159 19.157003 3.066-1.169 5.975-2.609 8.713-4.387 4.363-2.835 8-6.396003 10.671-10.881003 2.481-4.169 3.728-8.71 3.796-13.559.042-3.005-.414-5.943-1.298-8.823-1.173-3.816-2.987-7.27-5.755-10.165-5.189-5.433-11.553-8.353-19.081-8.621-4.45-.158-8.66.847-12.632 2.842-1.789.9-3.541 1.872-5.341 2.744-4.01 1.939-8.04 3.837-12.062 5.748-3.547 1.686-7.095 3.366-10.642 5.047-1.199.569-2.399 1.14-3.6 1.71 12.046 24.561 24.078 49.093003 36.104 73.625003 3.049-1.312 6.035-2.598 9.081-3.908z"/>
  <path fill="#f10000" d="M302.794 120.945001c-3.047 1.311-6.032 2.596-9.086 3.908-12.025-24.529-24.059-49.063003-36.104-73.624003 1.201-.57 2.4-1.141 3.6-1.71 3.547-1.682 7.095-3.362 10.642-5.047 4.022-1.911 8.052-3.809 12.062-5.748 1.8-.872 3.552-1.844 5.341-2.744 3.972-1.996 8.182-3 12.631-2.842 7.529.268 13.893 3.188 19.082 8.621 2.768 2.895 4.582 6.348 5.754 10.165.885 2.879 1.341 5.818 1.299 8.823-.068 4.849-1.313 9.39-3.796 13.559-2.673 4.484-6.308 8.045003-10.673 10.881003-2.736 1.776-5.645 3.217-8.711 4.386-7.715-6.382-15.424-12.758003-23.159-19.156003 2.397-6.777 4.793-13.541 7.2-20.342 6.607-.065 13.218-.129 19.897-.193v9.823h-12.94c-.846 3.093-1.688 6.178-2.539 9.291 4.49 3.183 8.961 6.352 13.531 9.593 1.248-1.095 2.535-2.153 3.739-3.299 1.748-1.663 3.238-3.542 4.543-5.584 1.95-3.053 3.05-6.341 2.986-9.977-.048-2.618-.851-5.045-1.979-7.377-1.188-2.458-2.742-4.632-4.937-6.306-2.486-1.896-5.32-2.794-8.411-2.895-4.541-.147-8.748 1.089-12.751 3.146-3.806 1.956-7.621 3.893-11.433 5.839-2.697 1.378-5.395 2.758-8.091 4.138-.055.028-.104.069-.163.11 10.821 21.511 21.629 43.007003 32.466 64.561003zm7.645-94.419003c-2.162-.445-4.264-.879-6.423-1.324 1.257-8.395 2.514-16.787999 3.774-25.201999 3.935.574 7.832 1.145 11.791 1.724-3.055 8.287999-6.093 16.528999-9.142 24.801999zm35.1-6.847c2.088 3.381 4.147 6.72 6.241 10.112-6.819 4.222-13.635 8.44-20.472 12.671-1.434-2.14-2.84-4.241-4.278-6.391 6.165-5.459 12.317-10.908 18.509-16.392zm-16.47-13.196999c3.017 2.085 5.979 4.133999 8.954 6.189999-5.377 6.412-10.738 12.805-16.136 19.239-1.888-1.165-3.759-2.319-5.683-3.507 4.271-7.275 8.549-14.567 12.865-21.921999z"/>
</svg>
