<?xml version="1.0" encoding="UTF-8" standalone="no"?>
<!-- Generator: Adobe Illustrator 13.0.0, SVG Export Plug-In . SVG Version: 6.00 Build 14948)  -->

<svg
   xmlns:ns="&amp;ns_sfw;"
   xmlns:dc="http://purl.org/dc/elements/1.1/"
   xmlns:cc="http://creativecommons.org/ns#"
   xmlns:rdf="http://www.w3.org/1999/02/22-rdf-syntax-ns#"
   xmlns:svg="http://www.w3.org/2000/svg"
   xmlns="http://www.w3.org/2000/svg"
   xmlns:sodipodi="http://sodipodi.sourceforge.net/DTD/sodipodi-0.dtd"
   xmlns:inkscape="http://www.inkscape.org/namespaces/inkscape"
   version="1.2"
   id="Layer_3"
   x="0px"
   y="0px"
   width="524.71246"
   height="275.16568"
   viewBox="0 0 524.71244 275.16567"
   xml:space="preserve"
   inkscape:version="0.91 r13725"
   sodipodi:docname="controller.svg"><defs
     id="defs31" /><sodipodi:namedview
     pagecolor="#ffffff"
     bordercolor="#666666"
     borderopacity="1"
     objecttolerance="10"
     gridtolerance="10"
     guidetolerance="10"
     inkscape:pageopacity="0"
     inkscape:pageshadow="2"
     inkscape:window-width="690"
     inkscape:window-height="480"
     id="namedview29"
     showgrid="false"
     fit-margin-top="0"
     fit-margin-left="0"
     fit-margin-right="0"
     fit-margin-bottom="0"
     inkscape:zoom="0.48145317"
     inkscape:cx="260.35896"
     inkscape:cy="131.807"
     inkscape:window-x="0"
     inkscape:window-y="0"
     inkscape:window-maximized="0"
     inkscape:current-layer="Layer_3" /><metadata
     id="metadata55"><rdf:RDF><cc:Work
         rdf:about=""><dc:format>image/svg+xml</dc:format><dc:type
           rdf:resource="http://purl.org/dc/dcmitype/StillImage" /><dc:title></dc:title></cc:Work></rdf:RDF><ns:sfw><ns:slices /><ns:sliceSourceBounds
         x="700.139"
         y="407.693"
         width="524.713"
         height="275.166"
         bottomLeftOrigin="true" /></ns:sfw></metadata><path
     id="line3"
     d="m 73.724443,8.6346664 -3.78,0.184 c -0.464,0.021 -0.823,0.414 -0.802,0.878 0.021,0.4639996 0.414,0.8229996 0.877,0.8029996 0.001,0 0.002,0 0.003,0 l 3.78,-0.184 c 0.464,-0.021 0.822,-0.4139996 0.802,-0.8779996 -0.021,-0.463 -0.414,-0.823 -0.877,-0.802 -10e-4,-10e-4 -0.002,-10e-4 -0.003,-10e-4 z"
     inkscape:connector-curvature="0"
     style="fill:#f4f4f4" /><path
     id="path5"
     d="m 240.39044,0.73566636 c -48.083,0 -121.473,3.71400004 -165.960997,6.77100004 -0.14,0.01 -0.275,0.055 -0.394,0.131 0.162,-0.104 -0.02,0.007 -0.131,0.079 -0.112,0.071 -0.277,0.176 -0.42,0.341 -0.285,0.329 -0.464,1.002 -0.236,1.601 0,0.009 0,0.018 0,0.026 3.549,9.0679996 14.875,41.9469996 26.536,75.3279996 11.659997,33.379004 23.635997,67.252004 28.634997,78.608004 5.396,12.256 11.903,22.935 21.128,30.577 9.225,7.644 21.17,12.179 37.166,12.179 l 53.148,0 44.986,0 53.148,0 c 15.995,0 27.915,-4.535 37.139,-12.179 9.227,-7.643 15.733,-18.321 21.128,-30.577 5.001,-11.356 16.976,-45.229 28.636,-78.608004 11.66,-33.379 23.013,-66.259 26.562,-75.3279996 0,-0.009 0,-0.018 0,-0.026 0.228,-0.599 0.022,-1.272 -0.263,-1.601 -0.135,-0.166 -0.277,-0.271 -0.386,-0.342 -0.109,-0.072 -0.32,-0.183 -0.16,-0.079 -0.119,-0.076 -0.254,-0.121 -0.395,-0.131 -44.489,-3.057 -117.845,-6.77100004 -165.928,-6.77100004 l -43.938,0.001 0,0 z m 0,1.68000004 43.937,0 c 47.896,0 121.026,3.695 165.508,6.745 -3.632,9.2919996 -14.872,41.9899996 -26.509,75.3009996 -11.657,33.377004 -23.676,67.343004 -28.581,78.479004 -5.339,12.129 -11.752,22.574 -20.682,29.975 -8.933,7.398 -20.386,11.784 -36.063,11.784 l -53.148,0 -44.988,0 -53.148,0 c -15.679,0 -27.158,-4.386 -36.089,-11.784 -8.937,-7.4 -15.319,-17.848 -20.661,-29.976 -4.905,-11.137 -16.949,-45.102 -28.606,-78.479004 -11.640997,-33.309 -22.879997,-66.005 -26.510997,-75.2989996 44.482997,-3.052 117.632997,-6.746 165.540997,-6.746 l 0,0 z"
     inkscape:connector-curvature="0"
     style="fill:#f4f4f4" /><path
     id="line7"
     d="m 450.80744,8.6346664 c -0.465,0.021 -0.823,0.414 -0.804,0.877 0.021,0.464 0.414,0.8229996 0.878,0.8029996 10e-4,0 0.003,0 0.004,0 l 3.779,0.184 c 0.464,0.023 0.858,-0.334 0.881,-0.7979996 0.023,-0.463 -0.334,-0.858 -0.798,-0.881 -10e-4,0 -0.002,0 -0.004,0 l -3.753,-0.184 c -0.061,-0.007 -0.123,-0.007 -0.183,-10e-4 l 0,0 z"
     inkscape:connector-curvature="0"
     style="fill:#f4f4f4" /><path
     id="path9"
     d="m 235.74544,13.727666 c -32.078,0 -64.393,0.336 -76.377,1.076 -10.753,0.664 -23.318,1.775 -34.41,4.515 -11.091,2.739 -20.775,7.078 -25.615997,14.409 -4.913,7.439 -3.216,18.877 -0.21,29.134 3.005997,10.256 7.476997,19.496 8.477997,22.126 1.046,2.745 7.33,19.888004 14.304,37.979004 6.975,18.091 14.59,37.081 18.478,43.911 4.92,8.645 9.941,16.231 18.373,21.627 8.432,5.396 20.191,8.53 38.477,8.53 l 42.755,0 44.724,0 42.729,0 c 18.286,0 30.046,-3.135 38.477,-8.53 8.432,-5.396 13.451,-12.982 18.373,-21.627 3.888,-6.831 11.502,-25.82 18.477,-43.911 6.976,-18.091 13.284,-35.233004 14.331,-37.979004 1.002,-2.629 5.444,-11.87 8.451,-22.126 3.006,-10.256 4.729,-21.694 -0.185,-29.134 -4.821,-7.333 -14.504,-11.671 -25.592,-14.411 -11.095,-2.74 -23.659,-3.851 -34.41,-4.514 -11.984,-0.74 -44.319,-1.076 -76.403,-1.076 l -53.202,0 -0.022,10e-4 z m 0,1.68 53.202,0 c 32.066,0 64.471,0.346 76.299,1.076 10.716,0.661 23.186,1.768 34.094,4.461 10.909,2.694 20.184,6.983 24.618,13.7 4.364,6.608 2.957,17.655 0,27.742 -2.957,10.087 -7.307,19.058 -8.424,21.996 -1.076,2.821 -7.362,19.903004 -14.331,37.979004 -6.968,18.075 -14.658,37.196 -18.346,43.675 -4.887,8.583 -9.736,15.876 -17.821,21.048 -8.086,5.174 -19.493,8.269 -37.586,8.269 l -42.729,0 -44.724,0 -42.755,0 c -18.093,0 -29.474,-3.095 -37.559,-8.269 -8.085,-5.173 -12.935,-12.465 -17.822,-21.048 -3.687,-6.479 -11.403,-25.6 -18.372,-43.675 -6.963,-18.074 -13.22,-35.158004 -14.295,-37.979004 -1.119,-2.938 -5.495,-11.908 -8.451,-21.996 -2.956997,-10.086 -4.363997,-21.133 0,-27.742 4.435,-6.717 13.711,-11.007 24.619,-13.7 10.908,-2.694 23.403,-3.8 34.121,-4.462 11.827,-0.73 44.205,-1.076 76.271,-1.076 l -0.009,0.001 z"
     inkscape:connector-curvature="0"
     style="fill:#f4f4f4" /><path
     id="path11"
     d="m 170.41944,24.068666 c -2.43,0 -4.435,1.979 -4.435,4.409 l 0,145.537004 c 0,2.431 2.005,4.409 4.435,4.409 l 183.885,0 c 2.431,0 4.409,-1.979 4.409,-4.409 l 0,-145.537004 c 0,-2.43 -1.979,-4.409 -4.409,-4.409 l -183.885,0 z m 0,1.679 183.885,0 c 1.523,0 2.729,1.208 2.729,2.73 l 0,145.537004 c 0,1.522 -1.206,2.729 -2.729,2.729 l -183.885,0 c -1.523,0 -2.756,-1.207 -2.756,-2.729 l 0,-145.537004 c 0,-1.522 1.232,-2.73 2.756,-2.73 z"
     inkscape:connector-curvature="0"
     style="fill:#f4f4f4" /><path
     id="path13"
     d="m 180.33844,37.584666 c -0.893,0 -1.627,0.734 -1.627,1.627 l 0,123.808004 c 0,0.892 0.734,1.627 1.627,1.627 l 164.013,0 c 0.894,0 1.627,-0.735 1.627,-1.627 l 0,-123.807004 c 0,-0.894 -0.733,-1.627 -1.627,-1.627 l -164.013,0 z m 0.053,1.68 163.912,0 0,123.699004 -163.912,0 0,-123.699004 z"
     inkscape:connector-curvature="0"
     style="fill:#f4f4f4" /><path
     id="circle15"
     d="m 143.82844,78.135666 c -2.173,0 -3.937,1.789 -3.937,3.963 0,2.174 1.763,3.963 3.937,3.963 2.174,0 3.963,-1.788 3.963,-3.963 0,-2.174 -1.789,-3.963 -3.963,-3.963 z"
     inkscape:connector-curvature="0"
     style="fill:#f4f4f4" /><path
     id="circle17"
     d="m 59.315443,73.910666 c -18.936,0 -34.304,15.369 -34.304,34.304004 0,18.936 15.369,34.305 34.304,34.305 18.935,0 34.304,-15.369 34.304,-34.305 0,-18.931004 -15.37,-34.300004 -34.305,-34.300004 l 0.001,-0.004 z m 0,1.679 c 18.027,0 32.625,14.597 32.625,32.624004 0,18.028 -14.597,32.625 -32.625,32.625 -18.028,0 -32.625,-14.597 -32.625,-32.625 -10e-4,-18.023004 14.596,-32.621004 32.624,-32.621004 l 0.001,-0.003 z"
     inkscape:connector-curvature="0"
     style="fill:#f4f4f4" /><path
     id="circle19"
     d="m 59.315443,77.610666 c -16.886,0 -30.577,13.718 -30.577,30.603004 0,16.887 13.692,30.577 30.577,30.577 16.886,0 30.604,-13.691 30.604,-30.577 -0.001,-16.885004 -13.718,-30.603004 -30.604,-30.603004 z m 0,1.68 c 15.978,0 28.924,12.946 28.924,28.924004 0,15.979 -12.946,28.897 -28.924,28.897 -15.978,0 -28.897,-12.92 -28.897,-28.897 0,-15.977004 12.92,-28.924004 28.897,-28.924004 z"
     inkscape:connector-curvature="0"
     style="fill:#f4f4f4" /><path
     id="path21"
     d="m 59.341443,78.949666 c -3.387,-0.008 -6.771,0.396 -9.16,1.365 -0.32,0.129 -0.528,0.442 -0.525,0.787 l 0,14.672 -1.076,0 c -0.463,0.004 -0.837,0.383 -0.833,0.847 0.001,0.212 0.083,0.417 0.229,0.571 l 10.734,10.734004 c 0.323,0.333 0.854,0.342 1.188,0.02 0.006,-0.007 0.013,-0.013 0.02,-0.02 l 10.734,-10.734004 c 0.319,-0.337 0.305,-0.868 -0.033,-1.187 -0.154,-0.146 -0.358,-0.229 -0.571,-0.23 l -1.076,0 0,-14.672 c 0.003,-0.345 -0.205,-0.657 -0.525,-0.786 -2.349,-0.932 -5.72,-1.356 -9.108,-1.365 l 0.002,-0.002 z m 0,1.679 c 3.014,0.008 5.943,0.437 7.953,1.129 l 0,14.777 0,0.079 c 0.009,0.417 0.322,0.763 0.735,0.815 l -8.713,8.718004 -8.714,-8.718004 c 0.17,-0.031 0.326,-0.114 0.446,-0.236 l 0.052,-0.053 c 0.157,-0.162 0.243,-0.38 0.237,-0.605 l 0,-14.777 c 2.033,-0.716 4.99,-1.138 8.004,-1.13 l 0,10e-4 z"
     inkscape:connector-curvature="0"
     style="fill:#f4f4f4" /><path
     id="path23"
     d="m 47.531443,96.637666 c -0.392,0.087 -0.666,0.439 -0.656,0.84 l 0,1.076 -14.673,0 c -0.336,0.007 -0.635,0.214 -0.761,0.525 -0.933,2.349004 -1.383,5.720004 -1.391,9.108004 -0.009,3.387 0.421,6.771 1.391,9.16 0.133,0.301 0.431,0.496 0.761,0.499 l 14.672,0 0,1.103 c 0.003,0.464 0.382,0.837 0.847,0.833 0.225,-0.002 0.44,-0.094 0.597,-0.256 l 10.733,-10.726 c 0.323,-0.327 0.323,-0.854 0,-1.181 l -10.734,-10.734004 c -0.204,-0.211 -0.502,-0.3 -0.788,-0.236 l 0.002,-0.011 z m 1.023,2.835 8.714,8.714004 -8.714,8.74 c -0.03,-0.172 -0.113,-0.331 -0.237,-0.454 l -0.078,-0.059 c -0.151,-0.159 -0.359,-0.252 -0.578,-0.26 l -14.803,0 c -0.713,-2.033 -1.136,-4.965 -1.128,-7.979 0.008,-3.012 0.437,-5.943 1.128,-7.953 l 14.803,0 0.053,0 c 0.435,0.002 0.798,-0.328004 0.839,-0.761004 l 10e-4,0.012 z"
     inkscape:connector-curvature="0"
     style="fill:#f4f4f4" /><path
     id="path25"
     d="m 59.131443,108.24467 c -0.16,0.036 -0.306,0.118 -0.42,0.236 l -10.734,10.734 c -0.333,0.323 -0.342,0.854 -0.02,1.188 0.163,0.169 0.389,0.261 0.624,0.256 l 1.076,0 0,14.646 c 0,0.353 0.22,0.667 0.551,0.787 2.349,0.934 5.694,1.357 9.081,1.366 3.387,0.008 6.771,-0.396 9.16,-1.366 0.32,-0.129 0.528,-0.442 0.524,-0.787 l 0,-14.646 1.076,0 c 0.464,0.012 0.85,-0.354 0.862,-0.817 0.006,-0.236 -0.087,-0.463 -0.257,-0.627 l -10.734,-10.734 c -0.204,-0.211 -0.503,-0.3 -0.789,-0.236 l 0,0 z m 0.184,2.021 8.713,8.714 c -0.16,0.036 -0.306,0.118 -0.42,0.236 l -0.079,0.05 c -0.156,0.161 -0.241,0.379 -0.236,0.604 l 0,14.802 c -2.033,0.715 -4.989,1.11 -8.004,1.103 -3.014,-0.008 -5.943,-0.41 -7.953,-1.103 l 0,-14.802 0,-0.053 c 0.003,-0.426 -0.313,-0.787 -0.735,-0.84 l 8.714,-8.714 0,0.003 z"
     inkscape:connector-curvature="0"
     style="fill:#f4f4f4" /><path
     id="path27"
     d="m 70.810443,96.637666 c -0.188,0.02 -0.364,0.104 -0.499,0.236 l -10.734,10.733004 c -0.324,0.327 -0.324,0.854 0,1.181 l 10.734,10.734 c 0.323,0.333 0.854,0.342 1.188,0.02 0.162,-0.156 0.254,-0.371 0.256,-0.597 l 0,-1.103 14.672,0 c 0.335,-0.007 0.635,-0.213 0.761,-0.525 0.933,-2.349 1.382,-5.694 1.391,-9.081 0.008,-3.388 -0.421,-6.772 -1.391,-9.160004 -0.126,-0.312 -0.426,-0.518 -0.761,-0.525 l -14.672,0 0,-1.076 c 0.003,-0.464 -0.37,-0.843 -0.833,-0.847 -0.036,0.002 -0.074,0.004 -0.112,0.01 l 0,0 z m -0.708,2.861 c 0.029,0.157 0.101,0.303 0.21,0.42 l 0.079,0.079 c 0.155,0.150004 0.362,0.234004 0.577,0.236004 l 14.803,0 c 0.714,2.033 1.136,4.99 1.129,8.005 -0.008,3.003 -0.441,5.917 -1.129,7.926 l -14.803,0 -0.052,0 c -0.417,-0.005 -0.775,0.297 -0.84,0.708 l -8.709,-8.684 8.74,-8.685004 -0.005,-0.005 z"
     inkscape:connector-curvature="0"
     style="fill:#f4f4f4" /><path
     id="path29"
     d="m 40.732443,88.238666 c -0.361,0 -0.727,0.123 -0.997,0.394 -0.54,0.541 -0.54,1.455 0,1.995 l 3.019,2.992 c 0.542,0.54 1.427,0.54 1.968,0 0.541,-0.541 0.541,-1.455 0,-1.994 l -2.992,-2.993 c -0.271,-0.26 -0.637,-0.386 -0.998,-0.386 l 0,-0.008 z"
     inkscape:connector-curvature="0"
     style="fill:#f4f4f4" /><path
     id="path31"
     d="m 43.751443,122.38867 c -0.361,0 -0.727,0.123 -0.997,0.394 l -2.992,3.018 0,0.026 c -0.524,0.542 -0.561,1.408 -0.026,1.942 0.541,0.543 1.453,0.54 1.995,0 l 2.992,-2.992 c 0.541,-0.541 0.542,-1.453 0,-1.995 -0.271,-0.27 -0.611,-0.393 -0.972,-0.393 l 0,0 z"
     inkscape:connector-curvature="0"
     style="fill:#f4f4f4" /><path
     id="path33"
     d="m 74.906443,122.38867 c -0.361,0 -0.728,0.124 -0.998,0.394 -0.543,0.541 -0.541,1.454 0,1.995 l 2.992,2.992 c 0.541,0.542 1.454,0.543 1.995,0 0.545,-0.541 0.54,-1.429 0,-1.969 l -2.991,-3.015 c -0.271,-0.271 -0.637,-0.394 -0.998,-0.394 l 0,-0.003 z"
     inkscape:connector-curvature="0"
     style="fill:#f4f4f4" /><path
     id="path35"
     d="m 77.897443,88.238666 c -0.361,0 -0.727,0.122 -0.998,0.394 l -2.992,2.99 c -0.541,0.541 -0.542,1.453 0,1.995 0.541,0.539 1.428,0.539 1.969,0 l 3.018,-2.992 c 0.545,-0.54 0.544,-1.454 0,-1.995 -0.27,-0.271 -0.636,-0.394 -0.997,-0.394 l 0,0.002 z"
     inkscape:connector-curvature="0"
     style="fill:#f4f4f4" /><path
     id="path37"
     d="m 68.711443,7.9266664 c -12.747,0.911 -22.584,1.73 -28.004,2.3619996 -11.929,1.392 -18.883,2.148 -23.491,5.119 -2.303,1.485 -3.965,3.538 -5.223,6.352 -1.257,2.813 -2.1559998,6.395 -3.0439998,11.076 -8.77800003,46.281 -9.93800003,126.563004 -8.34600003,165.978004 0.79500003,19.674 1.13900003,35.518 8.11000003,47.323 6.9709998,11.805 20.5239998,19.261 47.0849998,22.257 52.990997,5.979 156.344997,6.772 179.029997,6.772 l 55.065,0 c 22.682,0 126.008,-0.794 178.996,-6.772 26.562,-2.996 40.115,-10.451 47.086,-22.257 6.971,-11.806 7.341,-27.648 8.137,-47.323 1.593,-39.422 0.405,-119.700004 -8.373,-165.978004 -0.888,-4.681 -1.787,-8.263 -3.044,-11.076 -1.258,-2.813 -2.92,-4.867 -5.224,-6.352 -4.606,-2.97 -11.535,-3.726 -23.465,-5.119 -5.421,-0.6319996 -15.259,-1.4509996 -28.005,-2.3619996 -0.062,-0.007 -0.123,-0.007 -0.184,0 -0.388,0.052 -0.777,0.168 -1.103,0.42 -0.314,0.244 -0.496,0.599 -0.63,0.945 -10e-4,0.005 -0.025,-0.004 -0.026,0 -0.001,0.004 10e-4,0.022 0,0.026 -1.605,4.1039996 -4.82,13.0779996 -8.949,24.8289996 -0.004,0.011 0.004,0.016 0,0.026 -0.338,0.952 -0.396,1.915 0,2.729 0.398,0.822 1.197,1.407 2.179,1.785 6.35,2.45 10.813,8.646 10.813,15.879 0,9.427 -7.604,17.06 -17.033,17.06 -1.767,0 -3.465,-0.289 -5.065,-0.788 l 0,0.026 c -1.051,-0.348 -2.015,-0.288 -2.757,0.105 -0.741,0.393 -1.214,1.038 -1.548,1.653 -0.03,0.042 -0.057,0.085 -0.079,0.131 -13.499,38.692004 -28.876,82.539004 -34.409,95.251004 -9.726,22.344 -27.233,40.841 -59.921,40.841 l -50.761,0 -48.372,0 -50.761,0 c -32.687,0 -50.194,-18.497 -59.92,-40.841 -4.855,-11.155 -17.304,-46.313 -29.395997,-80.891004 -12.088,-34.566 -23.841,-68.557 -27.455,-77.7949996 -0.002,-0.007 0.002,-0.02 0,-0.026 l -0.026,0 c -0.151,-0.355 -0.332,-0.71 -0.646,-0.954 -0.323,-0.251 -0.716,-0.368 -1.102,-0.42 -0.052,-0.005 -0.105,-0.005 -0.158,0 l 0.019,0.009 z m 0.026,1.68 c 0.1,0.023 0.192,0.064 0.21,0.079 0.025,0.019 0.067,0.037 0.131,0.21 0,0.009 0,0.018 0,0.026 3.548,9.0659996 15.334,43.1579996 27.428,77.7419996 12.092997,34.583004 24.470997,69.648004 29.421997,81.022004 9.888,22.716 28.144,41.837 61.469,41.837 l 50.761,0 48.373,0 50.762,0 c 33.323,0 51.58,-19.121 61.469,-41.837 5.635,-12.946 20.919,-56.608 34.409,-95.276004 0.007,-0.013 0.02,-0.014 0.026,-0.026 0.234,-0.422 0.519,-0.748 0.84,-0.918 0.331,-0.176 0.724,-0.265 1.443,-0.026 0.009,0 0.018,0 0.026,0 1.761,0.548 3.627,0.866 5.564,0.866 10.335,0 18.714,-8.404 18.714,-18.739 0,-7.928 -4.9,-14.757 -11.891,-17.454 -0.734,-0.283 -1.1,-0.617 -1.259,-0.945 -0.159,-0.328 -0.195,-0.757 0.052,-1.444 4.141,-11.778 7.374,-20.773 8.953,-24.8069996 0,-0.009 0,-0.018 0,-0.026 0.064,-0.172 0.107,-0.191 0.131,-0.21 0.017,-0.012 0.107,-0.058 0.185,-0.079 12.683,0.9069996 22.505,1.7389996 27.847,2.3619996 11.928,1.392 18.73,2.243 22.783,4.855 2.025,1.306 3.431,3.045 4.592,5.643 1.161,2.597 2.035,6.052 2.914,10.682 8.717,45.959 9.934,126.318004 8.347,165.617004 -0.796,19.687 -1.254,35.254 -7.901,46.509 -6.646,11.255 -19.508,18.501 -45.825,21.469 -52.766,5.953 -156.177,6.745 -178.82,6.745 l -55.064,0 c -22.643,0 -126.05,-0.792 -178.819997,-6.745 -26.319,-2.973 -39.208,-10.221 -45.854,-21.475 -6.6459998,-11.256 -7.0789998,-26.818 -7.8739998,-46.505 -1.58700003,-39.298 -0.397,-119.659004 8.3199998,-165.617004 0.878,-4.631 1.779,-8.085 2.939,-10.683 1.161,-2.598 2.567,-4.337 4.593,-5.643 4.052,-2.612 10.829,-3.464 22.756,-4.856 5.341,-0.623 15.164,-1.455 27.847,-2.3619996 l 0.002,0.009 z"
     inkscape:connector-curvature="0"
     style="fill:#f4f4f4" /><path
     id="path39"
     d="m 446.23944,39.710666 c -0.519,-0.129 -1.114,-0.201 -1.707,0.052 -0.591,0.253 -1.016,0.785 -1.313,1.496 -0.01,0.018 -0.018,0.035 -0.026,0.053 l -8.24,24.382 0,0.026 c -0.185,0.505 -0.293,0.944 -0.315,1.365 -0.023,0.429 0.057,0.863 0.289,1.208 0.463,0.69 1.135,0.87 1.811,1.128 0.025,0.01 0.052,0.019 0.079,0.026 1.427,0.432 2.921,0.657 4.487,0.657 8.605,0 15.618,-6.984 15.618,-15.59 0,-6.86 -4.438,-12.692 -10.604,-14.777 -0.028,-0.009 -0.053,-0.018 -0.079,-0.026 l 0,0 z m -1.051,1.601 c 0.08,-0.034 0.29,-0.054 0.631,0.026 0.013,0.004 0.011,-0.003 0.026,0 5.456,1.881 9.396,7.069 9.396,13.176 0,7.698 -6.239,13.91 -13.938,13.91 -1.401,0 -2.743,-0.193 -4.015,-0.577 -0.606,-0.24 -0.949,-0.439 -0.972,-0.473 -0.011,-0.018 -0.036,-0.018 -0.026,-0.184 0.009,-0.166 0.079,-0.465 0.236,-0.892 0,-0.009 0,-0.018 0,-0.026 l 8.241,-24.357 c 0.011,-0.024 0.017,-0.004 0.026,-0.026 l 0,-0.026 c 0.179,-0.389 0.318,-0.518 0.395,-0.551 l 0,0 z"
     inkscape:connector-curvature="0"
     style="fill:#f4f4f4" /><path
     id="circle41"
     d="m 446.34744,52.624666 c -1.62,0 -2.939,1.346 -2.939,2.966 0,1.621 1.319,2.939 2.939,2.939 1.62,0 2.966,-1.319 2.966,-2.939 0,-1.621 -1.346,-2.966 -2.966,-2.966 z"
     inkscape:connector-curvature="0"
     style="fill:#f4f4f4" /><path
     id="circle43"
     d="m 443.11344,113.06567 c -8.304,0 -15.038,6.735 -15.038,15.039 0,8.304 6.735,15.066 15.038,15.066 8.304,0 15.066,-6.762 15.066,-15.066 0,-8.303 -6.762,-15.039 -15.066,-15.039 z m 0,1.68 c 7.396,0 13.388,5.963 13.388,13.359 0,7.396 -5.99,13.386 -13.388,13.386 -7.396,0 -13.358,-5.99 -13.358,-13.386 -0.001,-7.396 5.963,-13.359 13.358,-13.359 z"
     inkscape:connector-curvature="0"
     style="fill:#f4f4f4" /><path
     id="circle47"
     d="m 482.27844,83.043666 c -8.304,0 -15.04,6.761 -15.04,15.065 0,8.304004 6.736,15.039004 15.04,15.039004 8.303,0 15.065,-6.735 15.065,-15.039004 0,-8.302 -6.762,-15.065 -15.065,-15.065 l 0,0 z m 0,1.68 c 7.396,0 13.386,5.99 13.386,13.386 0,7.396004 -5.99,13.359004 -13.386,13.359004 -7.396,0 -13.359,-5.963 -13.359,-13.359004 -0.001,-7.396 5.962,-13.386 13.359,-13.386 z"
     inkscape:connector-curvature="0"
     style="fill:#f4f4f4" /><path
     id="path51"
     d="m 482.27844,79.709666 c -10.152,0 -18.399,8.247 -18.399,18.399 0,0.189 -0.006,0.363 0,0.551 0.001,0.009 0,0.018 0,0.026 0.001,0.479 0.048,0.933 0,1.26 -0.049,0.333004 -0.128,0.489004 -0.341,0.656004 -3.986,3.023 -8.026,6.496 -12.048,10.367 -0.492,0.335 -0.886,0.276 -1.521,0.053 -0.008,-0.004 -0.019,0.003 -0.026,0 -2.112,-0.845 -4.415,-1.313 -6.824,-1.313 -10.15,0 -18.399,8.247 -18.399,18.398 0,3.652 1.076,7.058 2.914,9.921 0,0.009 0,0.017 0,0.026 0.215,0.331 0.326,0.586 0.368,0.814 0.037,0.206 0.03,0.424 -0.105,0.734 -0.015,0.034 -0.008,0.042 -0.026,0.079 -6.972,10.869 -11.634,21.352 -13.49,30.131 -1.861,8.8 -0.944,16.026 3.675,19.947 2.9,2.462 6.903,3.271 11.496,2.729 4.592,-0.541 9.824,-2.428 15.433,-5.433 11.217,-6.011 23.922,-16.55 35.537,-30.236 11.616,-13.686 19.961,-27.928 24.068,-39.973 2.054,-6.022 3.047,-11.496 2.835,-16.116 -0.212,-4.620004 -1.667,-8.431004 -4.567,-10.893004 -1.274,-1.081 -2.753,-1.84 -4.409,-2.31 -0.061,-0.012 -0.123,-0.018 -0.185,-0.017 -0.248,-0.011 -0.925,-0.172 -1.496,-0.761 -3.369,-4.286 -8.618,-7.034 -14.488,-7.034 l -0.002,-0.005 z m 0,1.681 c 5.375,0 10.141,2.522 13.202,6.457 0.023,0.028 0.05,0.054 0.078,0.079 0.832,0.856 1.736,1.135 2.414,1.207 0.008,10e-4 0.021,-0.001 0.026,0 1.44,0.411 2.703,1.082 3.78,1.995 2.461,2.089 3.765,5.371 3.963,9.685004 0.198,4.314 -0.748,9.627 -2.756,15.512 -4.015,11.768 -12.252,25.873 -23.753,39.423 -11.501,13.55 -24.078,23.969 -35.039,29.842 -5.48,2.937 -10.54,4.717 -14.829,5.223 -4.29,0.507 -7.748,-0.246 -10.209,-2.336 -3.919,-3.326 -4.949,-9.815 -3.149,-18.319 1.798,-8.504 6.392,-18.865 13.307,-29.632 0.019,-0.025 0.036,-0.051 0.053,-0.079 0.315,-0.639 0.394,-1.318 0.289,-1.89 -0.106,-0.571 -0.368,-1.013 -0.63,-1.417 -1.67,-2.602 -2.625,-5.704 -2.625,-9.029 0,-9.245 7.476,-16.719 16.718,-16.719 2.201,0 4.298,0.435 6.222,1.207 0.008,0 0.017,0 0.025,0 0.854,0.302 2.035,0.469 3.071,-0.236 0.036,-0.023 0.071,-0.05 0.104,-0.079 4.012,-3.87 8.056,-7.333 12.021,-10.34 0.606,-0.475 0.885,-1.172 0.971,-1.758 0.087,-0.586004 0.026,-1.119004 0.026,-1.522004 0,-0.009 0,-0.018 0,-0.026 -0.006,-0.177 0,-0.347 0,-0.525 0,-9.245 7.475,-16.719 16.719,-16.719 l 10e-4,-0.004 z"
     inkscape:connector-curvature="0"
     style="fill:#f4f4f4" /><path
     id="path53"
     d="m 59.315443,69.474666 c -8.17,0 -15.708,2.588 -21.995,6.824 -2.41,1.624 -4.535,2.004 -6.483,1.732 -1.948,-0.272 -3.746,-1.219 -5.249,-2.415 -3.007,-2.392 -4.83,-5.669 -4.83,-5.669 -0.229,-0.407 -0.746,-0.551 -1.153,-0.322 -0.407,0.229 -0.551,0.746 -0.322,1.153 0.001,0.003 0.003,0.006 0.005,0.009 0,0 1.95,3.496 5.276,6.142 1.662,1.322 3.693,2.456 6.036,2.782 2.343,0.326 4.963,-0.202 7.664,-2.021 6.036,-4.067 13.237,-6.535 21.049,-6.535 20.48,0 37.06,16.581 37.06,37.060004 0,10.772 -0.557,29.182 -7.48,46.036 -6.923,16.854 -20.093,32.134 -45.668,36.954 -0.457,0.086 -0.758,0.526 -0.672,0.981 0.085,0.459 0.525,0.759 0.982,0.673 10e-4,0 0.003,-10e-4 0.005,-10e-4 26.111,-4.921 39.854,-20.757 46.929,-37.978 7.075,-17.223 7.585,-35.838 7.585,-46.667 0,-21.384004 -17.353,-38.738004 -38.739,-38.738004 l 0,0 z"
     inkscape:connector-curvature="0"
     style="fill:#f4f4f4" /><path
     id="polyline55"
     d="M 156.50244,6.6636386e-4 110.65244,2.2836664 c -0.463,0.014 -0.829,0.401 -0.814,0.865 0,0.009 0,0.019 10e-4,0.027 l 0.134,2.914 c 0.021,0.464 0.414,0.823 0.877,0.802 0.464,-0.021 0.824,-0.414 0.803,-0.878 0,-0.001 0,-0.002 0,-0.003 l -0.105,-2.1 44.199,-2.178 0.105,2.073 c 0.021,0.464 0.414,0.823 0.877,0.802 0.464,-0.021 0.823,-0.414 0.802,-0.877 0,-10e-4 0,-0.002 0,-0.003 l -0.131,-2.93900004 c -0.028,-0.463 -0.426,-0.816 -0.889,-0.787 0,0 0,0 0,0 l -0.009,0 z"
     inkscape:connector-curvature="0"
     style="fill:#f4f4f4" /></svg>