<?xml version="1.0" encoding="UTF-8" standalone="no"?>
<!-- Created with Inkscape (http://www.inkscape.org/) -->

<svg
   xmlns:dc="http://purl.org/dc/elements/1.1/"
   xmlns:cc="http://creativecommons.org/ns#"
   xmlns:rdf="http://www.w3.org/1999/02/22-rdf-syntax-ns#"
   xmlns:svg="http://www.w3.org/2000/svg"
   xmlns="http://www.w3.org/2000/svg"
   xmlns:sodipodi="http://sodipodi.sourceforge.net/DTD/sodipodi-0.dtd"
   xmlns:inkscape="http://www.inkscape.org/namespaces/inkscape"
   id="svg2"
   version="1.1"
   inkscape:version="0.91 r13725"
   xml:space="preserve"
   width="414.72339"
   height="700"
   viewBox="0 0 414.72339 700"
   sodipodi:docname="controller4.svg"><metadata
     id="metadata8"><rdf:RDF><cc:Work
         rdf:about=""><dc:format>image/svg+xml</dc:format><dc:type
           rdf:resource="http://purl.org/dc/dcmitype/StillImage" /><dc:title></dc:title></cc:Work></rdf:RDF></metadata><defs
     id="defs6"><clipPath
       clipPathUnits="userSpaceOnUse"
       id="clipPath16"><path
         d="m 0,613.469 409.48,0 L 409.48,0 0,0 0,613.469 Z"
         id="path18"
         inkscape:connector-curvature="0" /></clipPath></defs><sodipodi:namedview
     pagecolor="#ffffff"
     bordercolor="#666666"
     borderopacity="1"
     objecttolerance="10"
     gridtolerance="10"
     guidetolerance="10"
     inkscape:pageopacity="0"
     inkscape:pageshadow="2"
     inkscape:window-width="1631"
     inkscape:window-height="998"
     id="namedview4"
     showgrid="false"
     fit-margin-top="0"
     fit-margin-left="0"
     fit-margin-right="0"
     fit-margin-bottom="0"
     inkscape:zoom="0.30775802"
     inkscape:cx="207.362"
     inkscape:cy="349.99975"
     inkscape:window-x="49"
     inkscape:window-y="24"
     inkscape:window-maximized="0"
     inkscape:current-layer="g10" /><g
     id="g10"
     inkscape:groupmode="layer"
     inkscape:label="controller2"
     transform="matrix(1.25,0,0,-1.25,-48.563,733.41837)"><g
       id="g12"><g
         id="g14"
         clip-path="url(#clipPath16)"><g
           id="g20"
           transform="translate(87.1958,47.2527)"><path
             d="m 0,0 0,515.334 c 33.409,15.227 73.95,24.148 117.655,24.148 43.704,0 84.245,-8.921 117.654,-24.148 C 235.31,515.334 235.31,0 235.31,0 l 0.08,-0.214 c -33.424,-12.803 -73.996,-20.304 -117.735,-20.304 -43.74,0 -84.311,7.501 -117.736,20.304"
             style="fill:#dedfde;fill-opacity:1;fill-rule:nonzero;stroke:none"
             id="path22"
             inkscape:connector-curvature="0" /></g><g
           id="g24"
           transform="translate(242.2398,529.3932)"><path
             d="M 0,0 C 0,-19.123 -16.789,-34.625 -37.5,-34.625 -58.211,-34.625 -75,-19.123 -75,0 -75,19.123 -58.211,34.625 -37.5,34.625 -16.789,34.625 0,19.123 0,0"
             style="fill:#c1c3c2;fill-opacity:1;fill-rule:nonzero;stroke:none"
             id="path26"
             inkscape:connector-curvature="0" /></g><g
           id="g28"
           transform="translate(298.5731,248.068)"><path
             d="m 0,0 -187.667,0 c -4.766,0 -8.666,3.9 -8.666,8.667 l 0,154 c 0,4.766 3.9,8.666 8.666,8.666 l 187.667,0 c 4.767,0 8.667,-3.9 8.667,-8.666 l 0,-154 C 8.667,3.9 4.767,0 0,0"
             style="fill:#56727d;fill-opacity:1;fill-rule:nonzero;stroke:none"
             id="path30"
             inkscape:connector-curvature="0" /></g><path
           d="m 148.463,279.746 -19.969,0 0,-29.973 19.969,0 0,29.973 z"
           style="fill:#353360;fill-opacity:1;fill-rule:nonzero;stroke:none"
           id="path32"
           inkscape:connector-curvature="0" /><path
           d="m 146.494,279.711 -19,0 0,-28.937 19,0 0,28.937 z"
           style="fill:#353360;fill-opacity:1;fill-rule:nonzero;stroke:none"
           id="path34"
           inkscape:connector-curvature="0" /><path
           d="m 128.494,278.711 18,0 0,-25.937 -18,0 0,25.937 z"
           style="fill:#56727d;fill-opacity:1;fill-rule:nonzero;stroke:none"
           id="path36"
           inkscape:connector-curvature="0" /><path
           d="m 135.411,254.753 -5.917,0 0,0.958 5.917,0 0,-0.958 z"
           style="fill:#353360;fill-opacity:1;fill-rule:nonzero;stroke:none"
           id="path38"
           inkscape:connector-curvature="0" /><path
           d="m 144.452,254.753 -4.958,0 0,0.958 4.958,0 0,-0.958 z"
           style="fill:#353360;fill-opacity:1;fill-rule:nonzero;stroke:none"
           id="path40"
           inkscape:connector-curvature="0" /><path
           d="m 135.411,257.753 -5.917,0 0,0.958 5.917,0 0,-0.958 z"
           style="fill:#353360;fill-opacity:1;fill-rule:nonzero;stroke:none"
           id="path42"
           inkscape:connector-curvature="0" /><path
           d="m 144.452,257.753 -4.958,0 0,0.958 4.958,0 0,-0.958 z"
           style="fill:#353360;fill-opacity:1;fill-rule:nonzero;stroke:none"
           id="path44"
           inkscape:connector-curvature="0" /><path
           d="m 144.452,260.753 -14.958,0 0,0.958 14.958,0 0,-0.958 z"
           style="fill:#353360;fill-opacity:1;fill-rule:nonzero;stroke:none"
           id="path46"
           inkscape:connector-curvature="0" /><path
           d="m 144.452,264.784 -4.958,0 0,0.958 4.958,0 0,-0.958 z"
           style="fill:#353360;fill-opacity:1;fill-rule:nonzero;stroke:none"
           id="path48"
           inkscape:connector-curvature="0" /><path
           d="m 144.452,267.794 -3.958,0 0,0.958 3.958,0 0,-0.958 z"
           style="fill:#353360;fill-opacity:1;fill-rule:nonzero;stroke:none"
           id="path50"
           inkscape:connector-curvature="0" /><path
           d="m 144.452,270.753 -1.979,0 0,0.958 1.979,0 0,-0.958 z"
           style="fill:#353360;fill-opacity:1;fill-rule:nonzero;stroke:none"
           id="path52"
           inkscape:connector-curvature="0" /><g
           id="g54"
           transform="translate(145.7416,279.2437)"><path
             d="m 0,0 -19.711,0 -6.62,-14.949 19.711,0 L 0,0 Z"
             style="fill:#56727d;fill-opacity:1;fill-rule:nonzero;stroke:none"
             id="path56"
             inkscape:connector-curvature="0" /></g><g
           id="g58"
           transform="translate(145.7416,279.2437)"><path
             d="m 0,0 -19.711,0 -6.62,-14.949 19.711,0 L 0,0 Z"
             style="fill:none;stroke:#353360;stroke-width:1;stroke-linecap:butt;stroke-linejoin:miter;stroke-miterlimit:10;stroke-dasharray:none;stroke-opacity:1"
             id="path60"
             inkscape:connector-curvature="0" /></g><path
           d="m 131.494,276.753 -2,0 0,4.982 2,0 0,-4.982 z"
           style="fill:#353360;fill-opacity:1;fill-rule:nonzero;stroke:none"
           id="path62"
           inkscape:connector-curvature="0" /><path
           d="m 135.494,276.753 -2,0 0,4.982 2,0 0,-4.982 z"
           style="fill:#353360;fill-opacity:1;fill-rule:nonzero;stroke:none"
           id="path64"
           inkscape:connector-curvature="0" /><path
           d="m 139.494,276.753 -2,0 0,4.982 2,0 0,-4.982 z"
           style="fill:#353360;fill-opacity:1;fill-rule:nonzero;stroke:none"
           id="path66"
           inkscape:connector-curvature="0" /><path
           d="m 143.494,276.753 -2,0 0,4.982 2,0 0,-4.982 z"
           style="fill:#353360;fill-opacity:1;fill-rule:nonzero;stroke:none"
           id="path68"
           inkscape:connector-curvature="0" /><path
           d="m 300.494,284.735 -191.667,0 0,127.333 191.667,0 0,-127.333 z"
           style="fill:#4a6787;fill-opacity:1;fill-rule:nonzero;stroke:none"
           id="path70"
           inkscape:connector-curvature="0" /><path
           d="m 180.74,299.901 -16,0 0,16 16,0 0,-16 z"
           style="fill:#363264;fill-opacity:1;fill-rule:nonzero;stroke:none"
           id="path72"
           inkscape:connector-curvature="0" /><path
           d="m 196.74,315.901 -16,0 0,16 16,0 0,-16 z"
           style="fill:#363264;fill-opacity:1;fill-rule:nonzero;stroke:none"
           id="path74"
           inkscape:connector-curvature="0" /><path
           d="m 196.74,331.901 -16,0 0,16 16,0 0,-16 z"
           style="fill:#363264;fill-opacity:1;fill-rule:nonzero;stroke:none"
           id="path76"
           inkscape:connector-curvature="0" /><path
           d="m 180.74,331.901 -16,0 0,16 16,0 0,-16 z"
           style="fill:#363264;fill-opacity:1;fill-rule:nonzero;stroke:none"
           id="path78"
           inkscape:connector-curvature="0" /><path
           d="m 212.74,331.901 -16,0 0,16 16,0 0,-16 z"
           style="fill:#363264;fill-opacity:1;fill-rule:nonzero;stroke:none"
           id="path80"
           inkscape:connector-curvature="0" /><path
           d="m 212.74,347.901 -16,0 0,16 16,0 0,-16 z"
           style="fill:#363264;fill-opacity:1;fill-rule:nonzero;stroke:none"
           id="path82"
           inkscape:connector-curvature="0" /><path
           d="m 212.74,363.901 -16,0 0,16 16,0 0,-16 z"
           style="fill:#363264;fill-opacity:1;fill-rule:nonzero;stroke:none"
           id="path84"
           inkscape:connector-curvature="0" /><path
           d="m 196.74,363.901 -16,0 0,16 16,0 0,-16 z"
           style="fill:#363264;fill-opacity:1;fill-rule:nonzero;stroke:none"
           id="path86"
           inkscape:connector-curvature="0" /><path
           d="m 180.74,363.901 -16,0 0,16 16,0 0,-16 z"
           style="fill:#363264;fill-opacity:1;fill-rule:nonzero;stroke:none"
           id="path88"
           inkscape:connector-curvature="0" /><path
           d="m 180.74,379.901 -16,0 0,16 16,0 0,-16 z"
           style="fill:#363264;fill-opacity:1;fill-rule:nonzero;stroke:none"
           id="path90"
           inkscape:connector-curvature="0" /><path
           d="m 180.74,347.901 -16,0 0,16 16,0 0,-16 z"
           style="fill:#363264;fill-opacity:1;fill-rule:nonzero;stroke:none"
           id="path92"
           inkscape:connector-curvature="0" /><path
           d="m 164.74,347.901 -16,0 0,16 16,0 0,-16 z"
           style="fill:#363264;fill-opacity:1;fill-rule:nonzero;stroke:none"
           id="path94"
           inkscape:connector-curvature="0" /><path
           d="m 148.74,331.901 -16,0 0,16 16,0 0,-16 z"
           style="fill:#363264;fill-opacity:1;fill-rule:nonzero;stroke:none"
           id="path96"
           inkscape:connector-curvature="0" /><path
           d="m 228.74,299.901 16,0 0,16 -16,0 0,-16 z"
           style="fill:#363264;fill-opacity:1;fill-rule:nonzero;stroke:none"
           id="path98"
           inkscape:connector-curvature="0" /><path
           d="m 212.74,315.901 16,0 0,16 -16,0 0,-16 z"
           style="fill:#363264;fill-opacity:1;fill-rule:nonzero;stroke:none"
           id="path100"
           inkscape:connector-curvature="0" /><path
           d="m 212.74,331.901 16,0 0,16 -16,0 0,-16 z"
           style="fill:#363264;fill-opacity:1;fill-rule:nonzero;stroke:none"
           id="path102"
           inkscape:connector-curvature="0" /><path
           d="m 228.74,331.901 16,0 0,16 -16,0 0,-16 z"
           style="fill:#363264;fill-opacity:1;fill-rule:nonzero;stroke:none"
           id="path104"
           inkscape:connector-curvature="0" /><path
           d="m 212.74,363.901 16,0 0,16 -16,0 0,-16 z"
           style="fill:#363264;fill-opacity:1;fill-rule:nonzero;stroke:none"
           id="path106"
           inkscape:connector-curvature="0" /><path
           d="m 228.74,363.901 16,0 0,16 -16,0 0,-16 z"
           style="fill:#363264;fill-opacity:1;fill-rule:nonzero;stroke:none"
           id="path108"
           inkscape:connector-curvature="0" /><path
           d="m 228.74,379.901 16,0 0,16 -16,0 0,-16 z"
           style="fill:#363264;fill-opacity:1;fill-rule:nonzero;stroke:none"
           id="path110"
           inkscape:connector-curvature="0" /><path
           d="m 228.74,347.901 16,0 0,16 -16,0 0,-16 z"
           style="fill:#363264;fill-opacity:1;fill-rule:nonzero;stroke:none"
           id="path112"
           inkscape:connector-curvature="0" /><path
           d="m 244.74,347.901 16,0 0,16 -16,0 0,-16 z"
           style="fill:#363264;fill-opacity:1;fill-rule:nonzero;stroke:none"
           id="path114"
           inkscape:connector-curvature="0" /><path
           d="m 260.74,331.901 16,0 0,16 -16,0 0,-16 z"
           style="fill:#363264;fill-opacity:1;fill-rule:nonzero;stroke:none"
           id="path116"
           inkscape:connector-curvature="0" /><g
           id="g118"
           transform="translate(202.2328,222.0237)"><path
             d="m 0,0 c -0.603,0 -1.114,0.087 -1.536,0.262 -0.422,0.175 -0.819,0.389 -1.191,0.644 l 0,1.938 0.079,0 c 0.364,-0.48 0.776,-0.851 1.237,-1.114 0.461,-0.262 0.905,-0.394 1.333,-0.394 0.609,0 1.07,0.179 1.382,0.535 0.313,0.357 0.468,0.827 0.468,1.41 0,0.464 -0.081,0.841 -0.245,1.133 C 1.364,4.706 1.104,4.922 0.747,5.062 0.49,5.167 0.256,5.253 0.044,5.32 -0.167,5.388 -0.433,5.479 -0.753,5.594 -1.039,5.698 -1.295,5.831 -1.522,5.992 -1.749,6.153 -1.95,6.364 -2.125,6.625 c -0.17,0.255 -0.303,0.556 -0.398,0.902 -0.095,0.347 -0.142,0.746 -0.142,1.2 0,0.942 0.262,1.733 0.786,2.371 0.524,0.637 1.193,0.957 2.007,0.957 0.465,0 0.904,-0.066 1.318,-0.196 0.415,-0.13 0.799,-0.315 1.152,-0.554 l 0,-1.852 -0.084,0 C 2.25,9.792 1.912,10.087 1.5,10.34 c -0.413,0.253 -0.846,0.379 -1.299,0.379 -0.513,0 -0.928,-0.168 -1.244,-0.504 -0.316,-0.336 -0.474,-0.777 -0.474,-1.324 0,-0.495 0.093,-0.888 0.279,-1.18 C -1.052,7.419 -0.783,7.206 -0.43,7.07 -0.195,6.981 0.091,6.882 0.429,6.77 0.767,6.657 1.048,6.555 1.271,6.461 1.843,6.216 2.261,5.847 2.525,5.352 2.789,4.856 2.921,4.247 2.921,3.523 2.921,3.07 2.855,2.622 2.723,2.18 2.591,1.737 2.406,1.362 2.168,1.055 1.901,0.716 1.599,0.456 1.263,0.273 0.926,0.091 0.505,0 0,0"
             style="fill:#2f3338;fill-opacity:1;fill-rule:nonzero;stroke:none"
             id="path120"
             inkscape:connector-curvature="0" /></g><g
           id="g122"
           transform="translate(211.0917,222.2346)"><path
             d="m 0,0 -4.812,0 0,11.633 1.105,0 0,-10.258 L 0,1.375 0,0 Z"
             style="fill:#2f3338;fill-opacity:1;fill-rule:nonzero;stroke:none"
             id="path124"
             inkscape:connector-curvature="0" /></g><g
           id="g126"
           transform="translate(211.9618,222.2346)"><path
             d="m 0,0 0,11.633 5.19,0 0,-1.375 -4.086,0 0,-3.188 3.807,0 0,-1.375 -3.807,0 0,-4.32 4.086,0 L 5.19,0 0,0 Z"
             style="fill:#2f3338;fill-opacity:1;fill-rule:nonzero;stroke:none"
             id="path128"
             inkscape:connector-curvature="0" /></g><g
           id="g130"
           transform="translate(218.3671,222.2346)"><path
             d="m 0,0 0,11.633 5.19,0 0,-1.375 -4.086,0 0,-3.188 3.808,0 0,-1.375 -3.808,0 0,-4.32 4.086,0 L 5.19,0 0,0 Z"
             style="fill:#2f3338;fill-opacity:1;fill-rule:nonzero;stroke:none"
             id="path132"
             inkscape:connector-curvature="0" /></g><g
           id="g134"
           transform="translate(228.8651,230.3206)"><path
             d="m 0,0 c 0,0.401 -0.049,0.75 -0.147,1.047 -0.099,0.297 -0.249,0.539 -0.45,0.726 -0.174,0.162 -0.378,0.277 -0.61,0.344 -0.232,0.068 -0.522,0.102 -0.867,0.102 l -0.914,0 0,-4.649 0.753,0 c 0.446,0 0.806,0.051 1.081,0.153 0.275,0.101 0.504,0.282 0.686,0.543 0.163,0.234 0.282,0.489 0.357,0.765 C -0.037,-0.692 0,-0.37 0,0 M 1.148,0.039 C 1.148,-0.466 1.085,-0.944 0.956,-1.395 0.828,-1.845 0.65,-2.229 0.424,-2.547 0.138,-2.942 -0.198,-3.242 -0.585,-3.445 -0.972,-3.648 -1.461,-3.75 -2.052,-3.75 l -0.936,0 0,-4.336 -1.104,0 0,11.633 2.085,0 c 0.49,0 0.909,-0.058 1.254,-0.172 0.346,-0.114 0.65,-0.3 0.915,-0.555 C 0.471,2.523 0.712,2.147 0.887,1.691 1.062,1.235 1.148,0.685 1.148,0.039"
             style="fill:#2f3338;fill-opacity:1;fill-rule:nonzero;stroke:none"
             id="path136"
             inkscape:connector-curvature="0" /></g><g
           id="g138"
           transform="translate(260.0331,222.2346)"><path
             d="m 0,0 -1.104,0 0,10.023 -2.164,-6.82 -0.669,0 -2.146,6.82 0,-10.023 -1.031,0 0,11.633 1.506,0 2.073,-6.477 2.002,6.477 1.533,0 L 0,0 Z"
             style="fill:#2f3338;fill-opacity:1;fill-rule:nonzero;stroke:none"
             id="path140"
             inkscape:connector-curvature="0" /></g><g
           id="g142"
           transform="translate(267.4364,228.0471)"><path
             d="m 0,0 c 0,0.771 -0.06,1.453 -0.178,2.047 -0.119,0.594 -0.287,1.086 -0.502,1.476 -0.219,0.402 -0.484,0.703 -0.795,0.903 -0.31,0.2 -0.658,0.301 -1.045,0.301 -0.401,0 -0.751,-0.098 -1.05,-0.293 C -3.87,4.238 -4.135,3.935 -4.365,3.523 -4.585,3.128 -4.753,2.63 -4.87,2.031 -4.986,1.433 -5.045,0.755 -5.045,0 c 0,-1.526 0.229,-2.694 0.686,-3.504 0.457,-0.809 1.07,-1.215 1.839,-1.215 0.77,0 1.382,0.406 1.837,1.215 C -0.228,-2.694 0,-1.526 0,0 M 0.15,4.484 C 0.467,3.974 0.712,3.341 0.887,2.586 1.062,1.831 1.148,0.969 1.148,0 1.148,-0.942 1.063,-1.794 0.893,-2.555 0.722,-3.315 0.474,-3.953 0.15,-4.469 -0.187,-5.011 -0.582,-5.41 -1.034,-5.668 c -0.451,-0.258 -0.948,-0.387 -1.491,-0.387 -0.562,0 -1.067,0.133 -1.517,0.399 -0.449,0.265 -0.836,0.661 -1.159,1.187 -0.32,0.516 -0.566,1.152 -0.736,1.906 -0.171,0.755 -0.256,1.61 -0.256,2.563 0,0.979 0.086,1.839 0.258,2.578 0.173,0.739 0.419,1.375 0.739,1.906 0.32,0.516 0.706,0.908 1.157,1.176 0.451,0.269 0.956,0.402 1.514,0.402 0.565,0 1.074,-0.137 1.527,-0.414 0.454,-0.276 0.837,-0.664 1.148,-1.164"
             style="fill:#2f3338;fill-opacity:1;fill-rule:nonzero;stroke:none"
             id="path144"
             inkscape:connector-curvature="0" /></g><g
           id="g146"
           transform="translate(275.1923,228.0627)"><path
             d="m 0,0 c 0,0.896 -0.106,1.66 -0.318,2.293 -0.212,0.633 -0.526,1.126 -0.943,1.48 -0.293,0.25 -0.607,0.43 -0.941,0.539 -0.335,0.11 -0.751,0.165 -1.249,0.165 l -0.842,0 0,-8.977 0.842,0 c 0.49,0 0.92,0.055 1.287,0.164 0.368,0.109 0.705,0.313 1.01,0.609 0.383,0.365 0.671,0.851 0.864,1.457 C -0.097,-1.663 0,-0.906 0,0 m 1.148,-0.023 c 0,-1.063 -0.153,-2.021 -0.46,-2.875 -0.306,-0.855 -0.718,-1.521 -1.235,-2 -0.42,-0.371 -0.847,-0.618 -1.279,-0.743 -0.434,-0.125 -0.987,-0.187 -1.659,-0.187 l -1.912,0 0,11.633 1.89,0 c 0.78,0 1.393,-0.082 1.837,-0.246 0.443,-0.164 0.822,-0.39 1.135,-0.676 C 0,4.388 0.414,3.73 0.708,2.91 1.001,2.09 1.148,1.112 1.148,-0.023"
             style="fill:#2f3338;fill-opacity:1;fill-rule:nonzero;stroke:none"
             id="path148"
             inkscape:connector-curvature="0" /></g><g
           id="g150"
           transform="translate(277.5389,222.2346)"><path
             d="m 0,0 0,11.633 5.19,0 0,-1.375 -4.086,0 0,-3.188 3.807,0 0,-1.375 -3.807,0 0,-4.32 4.086,0 L 5.19,0 0,0 Z"
             style="fill:#2f3338;fill-opacity:1;fill-rule:nonzero;stroke:none"
             id="path152"
             inkscape:connector-curvature="0" /></g><g
           id="g154"
           transform="translate(240.1522,95.9124)"><path
             d="M 0,0 -2.133,6.512 -4.258,0 0,0 Z m -7.876,-5.428 4.657,13.815 2.264,0 4.657,-13.815 -1.938,0 -1.253,3.86 -5.279,0 -1.253,-3.86 -1.855,0 z"
             style="fill:#2f3338;fill-opacity:1;fill-rule:nonzero;stroke:none"
             id="path156"
             inkscape:connector-curvature="0" /></g><g
           id="g158"
           transform="translate(307.0623,105.9837)"><path
             d="m 0,0 c 0,0.52 -0.074,0.947 -0.223,1.284 -0.148,0.337 -0.449,0.623 -0.9,0.859 -0.291,0.154 -0.607,0.253 -0.951,0.296 -0.343,0.043 -0.83,0.065 -1.461,0.065 l -2.087,0 0,-5.102 1.493,0 c 0.804,0 1.439,0.037 1.902,0.112 0.464,0.074 0.873,0.231 1.225,0.472 0.346,0.242 0.6,0.515 0.761,0.822 C -0.081,-0.887 0,-0.489 0,0 m -0.649,6.271 c 0,0.334 -0.056,0.623 -0.167,0.868 -0.112,0.244 -0.291,0.437 -0.538,0.58 -0.297,0.166 -0.628,0.268 -0.994,0.305 -0.365,0.038 -0.869,0.056 -1.511,0.056 l -1.763,0 0,-4.045 2.087,0 c 0.575,0 0.999,0.029 1.271,0.088 0.272,0.059 0.553,0.182 0.844,0.367 0.278,0.179 0.477,0.414 0.594,0.705 0.117,0.29 0.177,0.649 0.177,1.076 m 2.56,-6.197 c 0,-0.687 -0.13,-1.293 -0.39,-1.818 -0.259,-0.527 -0.609,-0.959 -1.048,-1.299 -0.52,-0.408 -1.077,-0.698 -1.67,-0.868 -0.594,-0.17 -1.361,-0.255 -2.301,-0.255 l -3.961,0 0,13.814 3.664,0 c 0.983,0 1.721,-0.033 2.213,-0.097 C -1.091,9.485 -0.619,9.332 -0.167,9.092 0.327,8.825 0.689,8.478 0.918,8.048 1.146,7.617 1.262,7.112 1.262,6.531 1.262,5.881 1.09,5.3 0.746,4.787 0.403,4.273 -0.071,3.871 -0.678,3.58 l 0,-0.074 C 0.145,3.283 0.782,2.877 1.233,2.286 1.685,1.695 1.911,0.958 1.911,0.074"
             style="fill:#2f3338;fill-opacity:1;fill-rule:nonzero;stroke:none"
             id="path160"
             inkscape:connector-curvature="0" /></g><g
           id="g162"
           transform="translate(316.678,419.4013)"><path
             d="m 0,0 -223.876,0 c 28.651,3.704 68.226,5.995 111.938,5.995 C -68.226,5.995 -28.651,3.704 0,0"
             style="fill:#a7a8a8;fill-opacity:1;fill-rule:nonzero;stroke:none"
             id="path164"
             inkscape:connector-curvature="0" /></g><g
           id="g166"
           transform="translate(316.678,248.068)"><path
             d="m 0,0 -223.876,0 c 28.651,-3.704 68.226,-5.995 111.938,-5.995 43.712,0 83.287,2.291 111.938,5.995"
             style="fill:#a7a8a8;fill-opacity:1;fill-rule:nonzero;stroke:none"
             id="path168"
             inkscape:connector-curvature="0" /></g><g
           id="g170"
           transform="translate(263.0749,137.0956)"><path
             d="M 0,0 C 0,-12.979 -10.521,-23.5 -23.5,-23.5 -36.479,-23.5 -47,-12.979 -47,0 -47,12.979 -36.479,23.5 -23.5,23.5 -10.521,23.5 0,12.979 0,0"
             style="fill:#c1c3c2;fill-opacity:1;fill-rule:nonzero;stroke:none"
             id="path172"
             inkscape:connector-curvature="0" /></g><g
           id="g174"
           transform="translate(259.5749,137.0956)"><path
             d="m 0,0 c 0,-11.046 -8.954,-20 -20,-20 -11.046,0 -20,8.954 -20,20 0,11.046 8.954,20 20,20 C -8.954,20 0,11.046 0,0"
             style="fill:#646fa4;fill-opacity:1;fill-rule:nonzero;stroke:none"
             id="path176"
             inkscape:connector-curvature="0" /></g><g
           id="g178"
           transform="translate(230.994,190.9847)"><path
             d="m 0,0 c 0,-8.284 -6.716,-15 -15,-15 -8.284,0 -15,6.716 -15,15 0,8.284 6.716,15 15,15 C -6.716,15 0,8.284 0,0"
             style="fill:#c1c3c2;fill-opacity:1;fill-rule:nonzero;stroke:none"
             id="path180"
             inkscape:connector-curvature="0" /></g><g
           id="g182"
           transform="translate(227.494,190.9847)"><path
             d="m 0,0 c 0,-6.351 -5.149,-11.5 -11.5,-11.5 -6.351,0 -11.5,5.149 -11.5,11.5 0,6.351 5.149,11.5 11.5,11.5 C -5.149,11.5 0,6.351 0,0"
             style="fill:#646fa4;fill-opacity:1;fill-rule:nonzero;stroke:none"
             id="path184"
             inkscape:connector-curvature="0" /></g><g
           id="g186"
           transform="translate(284.244,175.9847)"><path
             d="m 0,0 -19.645,0 c -8.284,0 -15,6.716 -15,15 0,8.284 6.716,15 15,15 L 0,30"
             style="fill:#c1c3c2;fill-opacity:1;fill-rule:nonzero;stroke:none"
             id="path188"
             inkscape:connector-curvature="0" /></g><g
           id="g190"
           transform="translate(276.0993,190.9847)"><path
             d="m 0,0 c 0,-6.351 -5.149,-11.5 -11.5,-11.5 -6.351,0 -11.5,5.149 -11.5,11.5 0,6.351 5.149,11.5 11.5,11.5 C -5.149,11.5 0,6.351 0,0"
             style="fill:#646fa4;fill-opacity:1;fill-rule:nonzero;stroke:none"
             id="path192"
             inkscape:connector-curvature="0" /></g><path
           d="m 87.196,52.36 -4.074,0 0,507.125 4.074,0 0,-507.125 z"
           style="fill:#a7a8a8;fill-opacity:1;fill-rule:nonzero;stroke:none"
           id="path194"
           inkscape:connector-curvature="0" /><g
           id="g196"
           transform="translate(322.2662,504.358)"><path
             d="m 0,0 0,-3.017 0.239,-0.106 c -33.409,17.245 -73.95,27.875 -117.655,27.875 -43.704,0 -84.246,-10.63 -117.655,-27.875 l 0,3 c 33.409,17.245 73.951,27.875 117.655,27.875 43.705,0 84.246,-10.63 117.655,-27.875"
             style="fill:#a7a8a8;fill-opacity:1;fill-rule:nonzero;stroke:none"
             id="path198"
             inkscape:connector-curvature="0" /></g><path
           d="m 45.35,501.235 37.771,0 0,3 -37.771,0 0,-3 z"
           style="fill:#a7a8a8;fill-opacity:1;fill-rule:nonzero;stroke:none"
           id="path200"
           inkscape:connector-curvature="0" /><g
           id="g202"
           transform="translate(44.3504,504.2346)"><path
             d="m 0,0 38.771,0 0,53.531 c 0,2.641 -2.161,4.802 -4.802,4.802 l -15.99,0 C 8.091,58.333 0,50.243 0,40.354 L 0,0 Z"
             style="fill:#dedfde;fill-opacity:1;fill-rule:nonzero;stroke:none"
             id="path204"
             inkscape:connector-curvature="0" /></g><g
           id="g206"
           transform="translate(54.4338,61.068)"><path
             d="m 0,0 28.688,-10.167 0,450.334 -38.771,0 0,-430.084 C -10.083,4.538 -5.615,1.722 0,0"
             style="fill:#dedfde;fill-opacity:1;fill-rule:nonzero;stroke:none"
             id="path208"
             inkscape:connector-curvature="0" /></g><g
           id="g210"
           transform="translate(44.3504,136.9847)"><path
             d="m 0,0 0,-47.5 c -3.038,0 -5.5,10.633 -5.5,23.75 C -5.5,-10.633 -3.038,0 0,0"
             style="fill:#dedfde;fill-opacity:1;fill-rule:nonzero;stroke:none"
             id="path212"
             inkscape:connector-curvature="0" /></g><path
           d="m 322.284,52.526 4.074,0 0,507.125 -4.074,0 0,-507.125 z"
           style="fill:#a7a8a8;fill-opacity:1;fill-rule:nonzero;stroke:none"
           id="path214"
           inkscape:connector-curvature="0" /><path
           d="m 364.129,501.401 -37.771,0 0,3 37.771,0 0,-3 z"
           style="fill:#a7a8a8;fill-opacity:1;fill-rule:nonzero;stroke:none"
           id="path216"
           inkscape:connector-curvature="0" /><g
           id="g218"
           transform="translate(365.1291,504.4013)"><path
             d="m 0,0 -38.771,0 0,53.531 c 0,2.641 2.161,4.802 4.802,4.802 l 15.99,0 C -8.091,58.333 0,50.243 0,40.354 L 0,0 Z"
             style="fill:#dedfde;fill-opacity:1;fill-rule:nonzero;stroke:none"
             id="path220"
             inkscape:connector-curvature="0" /></g><g
           id="g222"
           transform="translate(355.0458,61.2347)"><path
             d="m 0,0 -28.688,-10.167 0,450.334 38.771,0 0,-430.084 C 10.083,4.537 5.615,1.722 0,0"
             style="fill:#dedfde;fill-opacity:1;fill-rule:nonzero;stroke:none"
             id="path224"
             inkscape:connector-curvature="0" /></g><g
           id="g226"
           transform="translate(365.1291,137.1513)"><path
             d="m 0,0 0,-47.5 c 3.038,0 5.5,10.633 5.5,23.75 C 5.5,-10.633 3.038,0 0,0"
             style="fill:#dedfde;fill-opacity:1;fill-rule:nonzero;stroke:none"
             id="path228"
             inkscape:connector-curvature="0" /></g><g
           id="g230"
           transform="translate(329.9129,151.4847)"><path
             d="M 0,0 C 0,-12.979 -10.521,-23.5 -23.5,-23.5 -36.479,-23.5 -47,-12.979 -47,0 -47,12.979 -36.479,23.5 -23.5,23.5 -10.521,23.5 0,12.979 0,0"
             style="fill:#c1c3c2;fill-opacity:1;fill-rule:nonzero;stroke:none"
             id="path232"
             inkscape:connector-curvature="0" /></g><g
           id="g234"
           transform="translate(326.4129,151.4847)"><path
             d="m 0,0 c 0,-11.046 -8.954,-20 -20,-20 -11.046,0 -20,8.954 -20,20 0,11.046 8.954,20 20,20 C -8.954,20 0,11.046 0,0"
             style="fill:#646fa4;fill-opacity:1;fill-rule:nonzero;stroke:none"
             id="path236"
             inkscape:connector-curvature="0" /></g><g
           id="g238"
           transform="translate(84.8023,166.1433)"><path
             d="m 0,0 c 0,-28.788 20.257,-52.091 48.476,-52.091 28.219,0 53.716,30.645 53.716,59.432 0,28.788 -16.031,44.75 -44.25,44.75 C 29.722,52.091 0,28.788 0,0"
             style="fill:#c1c3c2;fill-opacity:1;fill-rule:nonzero;stroke:none"
             id="path240"
             inkscape:connector-curvature="0" /></g><g
           id="g242"
           transform="translate(176.8023,159.9847)"><path
             d="m 0,0 c 0,-25.405 -20.595,-46 -46,-46 -25.405,0 -46,20.595 -46,46 0,25.405 20.595,46 46,46 C -20.595,46 0,25.405 0,0"
             style="fill:#a7a8a8;fill-opacity:1;fill-rule:nonzero;stroke:none"
             id="path244"
             inkscape:connector-curvature="0" /></g><g
           id="g246"
           transform="translate(172.8394,159.9847)"><path
             d="m 0,0 c 0,-23.748 -19.252,-43 -43,-43 -23.748,0 -43,19.252 -43,43 0,23.748 19.252,43 43,43 C -19.252,43 0,23.748 0,0"
             style="fill:#646fa4;fill-opacity:1;fill-rule:nonzero;stroke:none"
             id="path248"
             inkscape:connector-curvature="0" /></g><g
           id="g250"
           transform="translate(133.3394,159.9847)"><path
             d="M 0,0 C 0,-1.933 -1.567,-3.5 -3.5,-3.5 -5.433,-3.5 -7,-1.933 -7,0 -7,1.933 -5.433,3.5 -3.5,3.5 -1.567,3.5 0,1.933 0,0 Z"
             style="fill:none;stroke:#a7a8a8;stroke-width:1;stroke-linecap:butt;stroke-linejoin:miter;stroke-miterlimit:10;stroke-dasharray:none;stroke-opacity:1"
             id="path252"
             inkscape:connector-curvature="0" /></g><g
           id="g254"
           transform="translate(113.9977,199.9725)"><path
             d="m 0,0 0,-13.694 c 0,-5.386 -4.395,-9.793 -9.766,-9.793 l -14.112,0"
             style="fill:none;stroke:#a7a8a8;stroke-width:1;stroke-linecap:butt;stroke-linejoin:miter;stroke-miterlimit:10;stroke-dasharray:none;stroke-opacity:1"
             id="path256"
             inkscape:connector-curvature="0" /></g><g
           id="g258"
           transform="translate(89.9855,144.143)"><path
             d="m 0,0 13.694,0 c 5.386,0 9.793,-4.395 9.793,-9.766 l 0,-14.112"
             style="fill:none;stroke:#a7a8a8;stroke-width:1;stroke-linecap:butt;stroke-linejoin:miter;stroke-miterlimit:10;stroke-dasharray:none;stroke-opacity:1"
             id="path260"
             inkscape:connector-curvature="0" /></g><g
           id="g262"
           transform="translate(145.815,120.1307)"><path
             d="m 0,0 0,13.694 c 0,5.386 4.395,9.793 9.766,9.793 l 14.112,0"
             style="fill:none;stroke:#a7a8a8;stroke-width:1;stroke-linecap:butt;stroke-linejoin:miter;stroke-miterlimit:10;stroke-dasharray:none;stroke-opacity:1"
             id="path264"
             inkscape:connector-curvature="0" /></g><g
           id="g266"
           transform="translate(169.9612,176.0942)"><path
             d="m 0,0 -13.694,0 c -5.386,0 -9.793,4.395 -9.793,9.766 l 0,14.112"
             style="fill:none;stroke:#a7a8a8;stroke-width:1;stroke-linecap:butt;stroke-linejoin:miter;stroke-miterlimit:10;stroke-dasharray:none;stroke-opacity:1"
             id="path268"
             inkscape:connector-curvature="0" /></g><g
           id="g270"
           transform="translate(215.5342,451.1259)"><path
             d="m 0,0 c -0.14,-0.068 -0.563,-0.419 -0.71,-0.495 -0.562,-0.143 -0.917,-0.354 -1.268,-0.422 -0.42,-0.076 -0.921,-0.14 -1.348,-0.14 -0.706,0 -1.268,0.211 -1.699,0.494 -0.498,0.28 -0.498,0.144 -0.853,0.642 -0.279,0.416 -0.774,1.129 -0.774,1.695 -0.075,0.427 -0.075,0.781 0.068,1.208 0.072,0.283 0.219,0.562 0.427,0.849 0.279,0.283 0.57,0.638 0.989,0.921 0.427,0.219 0.781,0.283 1.487,0.563 0.355,0.143 0.853,0.218 1.635,0.287 0.419,0.068 1.268,0.068 1.555,0.207 0.283,0.076 0.57,0.076 0.781,0.223 0.212,0.139 0.495,0.211 0.638,0.283 0.14,0.136 0.355,0.211 0.706,0.562 L 1.563,3.48 c 0,0 -0.068,-1.419 -0.567,-2.197 C 0.498,0.426 0,0 0,0 m -7.716,11.339 c 0.778,0.352 1.347,0.567 1.838,0.778 0.502,0.143 1.065,0.28 1.771,0.427 0.71,0.143 1.208,0.211 1.917,0.211 0.706,0 1.563,-0.276 2.126,-0.419 0.498,-0.147 0.917,-0.71 1.207,-1.136 0.355,-0.355 0.42,-0.57 0.42,-1.133 l 0,-0.57 C 1.494,9.286 1.351,9.218 1.208,9.006 1.064,8.791 0.925,8.58 0.713,8.44 0.57,8.297 0.351,8.153 0.143,8.014 -0.14,7.87 -0.419,7.802 -0.71,7.659 -0.989,7.515 -1.416,7.583 -1.835,7.444 -3.254,7.229 -4.387,7.164 -5.025,6.949 -5.662,6.738 -6.089,6.594 -6.515,6.379 -7.006,6.168 -7.221,5.953 -7.648,5.602 -8.074,5.247 -8.211,4.967 -8.422,4.609 -8.641,4.258 -8.852,3.899 -8.992,3.48 -9.067,3.053 -9.203,2.491 -9.203,1.993 c 0,-0.853 0.136,-1.563 0.562,-2.337 0.355,-0.706 1.065,-1.344 1.846,-1.706 0.774,-0.355 1.77,-0.774 3.19,-0.774 l 1.344,0 c 0.426,0.068 0.845,0.211 1.634,0.351 0.355,0.287 0.846,0.566 1.412,0.993 0.498,0.494 0.781,0.778 0.781,0.778 l 0,-1.771 1.419,0 1.627,0 c -0.283,1.276 -0.422,1.419 -0.351,2.337 0,1.562 -0.143,4.963 -0.075,6.802 0,1.846 -0.072,1.344 -0.072,2.125 0,0.638 -0.283,1.703 -0.494,2.265 -0.219,0.57 -0.57,0.925 -0.925,1.563 -0.426,0.498 -1.419,1.208 -2.197,1.419 -0.846,0.219 -1.419,0.355 -2.333,0.355 -0.853,0 -2.125,-0.072 -3.046,-0.136 -0.853,-0.144 -1.563,-0.362 -2.767,-0.714 -0.004,-0.931 -0.004,-1.713 -0.068,-2.204"
             style="fill:#2f3338;fill-opacity:1;fill-rule:nonzero;stroke:none"
             id="path272"
             inkscape:connector-curvature="0" /></g><g
           id="g274"
           transform="translate(273.4207,451.3409)"><path
             d="m 0,0 c -0.211,-0.075 -0.566,-0.426 -0.778,-0.502 -0.498,-0.136 -0.849,-0.355 -1.204,-0.423 -0.502,-0.068 -0.921,-0.139 -1.347,-0.139 -0.706,0 -1.344,0.211 -1.771,0.498 -0.426,0.283 -0.426,0.14 -0.781,0.638 -0.355,0.426 -0.85,1.132 -0.85,1.702 0,0.419 0,0.781 0.072,1.208 0.14,0.279 0.219,0.562 0.495,0.838 0.286,0.287 0.57,0.642 0.996,0.932 0.355,0.212 0.774,0.28 1.48,0.563 0.29,0.136 0.853,0.211 1.634,0.276 0.355,0.075 1.276,0.075 1.563,0.222 0.211,0.068 0.495,0.14 0.706,0.211 0.283,0.14 0.495,0.212 0.702,0.284 0.144,0.143 0.287,0.218 0.645,0.562 l 0,-3.397 c 0,0 -0.075,-1.344 -0.566,-2.197 C 0.495,0.419 0,0 0,0 m -7.723,11.336 c 0.706,0.355 1.276,0.562 1.77,0.781 0.491,0.143 1.133,0.28 1.771,0.419 0.706,0.137 1.276,0.215 1.913,0.215 0.706,0 1.627,-0.279 2.122,-0.423 0.566,-0.146 0.925,-0.709 1.276,-1.136 0.355,-0.354 0.355,-0.698 0.426,-1.268 0,-0.219 0,-0.359 -0.075,-0.567 C 1.408,9.135 1.337,9.214 1.197,8.999 1.054,8.788 0.91,8.576 0.699,8.433 0.556,8.297 0.344,8.153 0.061,8.006 -0.154,7.87 -0.437,7.795 -0.72,7.652 -1.075,7.508 -1.426,7.583 -1.846,7.44 -3.337,7.225 -4.469,7.161 -5.035,6.946 -5.68,6.731 -6.1,6.587 -6.598,6.379 -7.024,6.161 -7.307,5.953 -7.73,5.591 -8.157,5.24 -8.3,5.032 -8.512,4.677 -8.723,4.322 -8.87,3.896 -9.013,3.469 -9.15,3.046 -9.293,2.48 -9.293,1.982 c 0.072,-0.846 0.143,-1.563 0.57,-2.337 0.419,-0.706 1.061,-1.344 1.842,-1.698 0.846,-0.355 1.846,-0.782 3.261,-0.782 l 1.269,0 c 0.502,0.076 0.921,0.212 1.627,0.355 0.359,0.283 0.925,0.57 1.419,0.986 0.57,0.505 0.853,0.784 0.853,0.784 l 0,-1.77 1.419,0 1.624,0 c -0.28,1.272 -0.419,1.419 -0.419,2.34 0.068,1.559 -0.076,4.957 -0.076,6.795 0.076,1.846 0,1.344 0,2.129 -0.068,0.634 -0.276,1.706 -0.494,2.262 -0.215,0.569 -0.563,0.996 -0.989,1.562 -0.355,0.502 -1.344,1.208 -2.197,1.423 -0.778,0.211 -1.344,0.412 -2.262,0.412 -0.853,0 -2.197,-0.136 -3.053,-0.204 -0.918,-0.144 -1.556,-0.355 -2.763,-0.638 -0.061,-0.993 0.01,-1.767 -0.061,-2.265"
             style="fill:#2f3338;fill-opacity:1;fill-rule:nonzero;stroke:none"
             id="path276"
             inkscape:connector-curvature="0" /></g><g
           id="g278"
           transform="translate(222.6195,448.6459)"><path
             d="M 0,0 0.355,1.201 0.43,4.537 0.215,14.102 c 0,0.853 -0.495,1.839 -0.495,2.265 0.495,0 1.556,0.144 2.047,0.362 0.355,0.137 0.853,0.137 1.208,0.137 l 0,-2.197 c 0.354,0.638 0.917,0.702 1.207,1.064 0.212,0.355 0.499,0.355 0.99,0.706 0.426,0.29 0.706,0.29 1.275,0.427 0.71,0.075 1.201,0.139 1.839,0.139 0.426,0 0.853,-0.068 1.276,-0.211 0.426,-0.068 0.846,-0.283 1.204,-0.495 0.355,-0.143 0.706,-0.426 0.917,-0.641 0.287,-0.29 0.57,-0.427 0.853,-0.921 0.072,-0.144 0.706,0.774 1.627,1.272 0.925,0.498 1.986,0.925 3.122,0.925 0.706,0 2.333,-0.076 3.043,-0.355 0.709,-0.283 1.702,-0.645 2.128,-1.136 0.423,-0.491 0.563,-0.706 0.918,-1.133 0.498,-0.494 0.645,-1.77 0.645,-2.265 0,-0.566 0.068,-1.419 0.068,-2.483 l 0,-7.856 c 0,-0.781 0.215,-0.853 0.359,-1.706 l -1.563,0 -1.699,0 c 0.42,1.344 0.355,0.925 0.355,1.706 l 0.068,7.15 c 0,0.996 0,1.562 -0.068,2.34 0,0.631 -0.211,1.419 -0.355,1.77 -0.143,0.352 -0.781,1.065 -1.064,1.344 -0.287,0.284 -0.706,0.355 -1.133,0.502 -0.354,0.212 -1.064,0.212 -1.555,0.212 -0.358,0 -0.925,-0.069 -1.28,-0.147 -0.279,-0.137 -0.637,-0.212 -0.924,-0.42 -0.28,-0.215 -0.563,-0.286 -0.846,-0.638 -0.215,-0.286 -0.423,-0.634 -0.638,-1.06 -0.143,-0.362 -0.143,-0.997 -0.211,-1.635 0,-0.706 0.068,-1.627 0,-2.616 l 0,-6.945 L 14.027,0 12.257,0 10.623,0 c 0,1.419 0.218,0.143 0.218,1.631 l 0,6.447 0,3.254 c -0.072,0.57 -0.136,0.781 -0.218,1.208 -0.137,0.355 -0.348,0.921 -0.631,1.201 -0.287,0.361 -0.925,0.924 -1.351,1.071 -0.355,0.212 -0.918,0.355 -1.416,0.355 -0.566,0 -0.853,-0.075 -1.347,-0.29 C 5.451,14.665 5.032,14.597 4.677,14.171 4.315,13.819 4.035,13.744 3.752,13.189 3.534,12.619 3.326,12.762 3.258,11.83 3.114,10.916 3.043,7.583 3.043,5.318 3.114,3.971 3.114,2.77 3.114,1.638 3.114,0.932 3.469,0.649 3.469,0.007 l -1.627,0 C 1.559,0 0.642,0 0,0"
             style="fill:#2f3338;fill-opacity:1;fill-rule:nonzero;stroke:none"
             id="path280"
             inkscape:connector-curvature="0" /></g><g
           id="g282"
           transform="translate(262.8627,451.6957)"><path
             d="m 0,0 c 0,-0.219 -0.075,-0.57 -0.14,-1.064 -0.075,-0.499 -0.215,-0.925 -0.287,-1.42 -0.706,-0.211 -1.483,-0.423 -2.189,-0.498 -0.645,-0.071 -2.48,-0.136 -3.054,-0.136 -1.06,0 -2.34,0.211 -3.257,0.491 -0.921,0.362 -2.126,0.996 -2.835,1.77 -0.706,0.71 -1.563,1.491 -1.914,2.624 -0.351,1.132 -0.631,2.197 -0.631,3.397 -0.075,1.703 0.212,2.269 0.631,3.753 0.498,1.491 1.706,2.623 2.767,3.476 1.125,0.853 3.684,1.559 5.598,1.559 1.419,0 3.114,-0.211 4.533,-0.638 0.072,-0.996 0.144,-1.555 0.219,-2.197 -0.993,0.362 -1.917,0.789 -2.484,0.925 -0.634,0.075 -1.419,0.211 -1.91,0.211 -0.921,0 -2.763,-0.426 -3.473,-0.774 -0.706,-0.362 -1.268,-0.853 -1.77,-1.562 -0.427,-0.638 -0.781,-1.559 -0.989,-2.48 -0.215,-0.925 -0.28,-0.99 -0.215,-1.982 0.071,-1.276 0.279,-2.409 0.641,-3.401 0.42,-0.922 1.065,-1.911 1.982,-2.409 0.853,-0.566 1.914,-1.064 3.046,-1.064 1.058,0 3.323,0.14 5.731,1.419"
             style="fill:#2f3338;fill-opacity:1;fill-rule:nonzero;stroke:none"
             id="path284"
             inkscape:connector-curvature="0" /></g><g
           id="g286"
           transform="translate(280.0759,449.2874)"><path
             d="m 0,0 -0.28,1.129 c 0,0.143 -0.283,0.849 -0.422,1.631 1.91,-1.065 3.899,-1.843 5.383,-1.843 0.706,0 1.487,0.28 1.981,0.423 0.499,0.212 0.993,0.57 1.276,0.986 0.219,0.362 0.495,0.785 0.57,1.14 C 8.576,3.681 8.644,4.028 8.576,4.24 8.508,4.458 8.433,5.093 8.221,5.308 8.078,5.519 7.512,6.01 7.232,6.297 6.949,6.508 6.168,6.935 5.103,7.361 4.114,7.781 2.763,8.207 2.272,8.634 1.77,8.992 0.925,9.483 0.57,9.909 0.215,10.336 0,10.759 -0.211,11.178 c -0.137,0.43 0,1.068 -0.072,1.57 0,0.706 0.423,1.419 0.849,2.05 0.42,0.709 1.133,1.064 1.982,1.419 0.853,0.276 1.846,0.502 2.978,0.502 1.272,0 2.48,-0.291 4.043,-0.57 0.068,-0.853 -0.147,-1.491 -0.075,-2.197 -1.068,0.706 -2.341,1.133 -3.541,1.133 -0.645,0 -1.276,-0.14 -1.846,-0.284 C 3.537,14.586 2.975,14.095 2.688,13.741 2.476,13.386 2.333,13.095 2.333,12.676 2.333,12.393 2.408,11.97 2.544,11.687 2.62,11.468 3.254,10.766 3.609,10.623 4.107,10.408 3.896,10.479 4.315,10.343 4.817,10.268 5.949,9.633 7.078,9.135 8.286,8.573 9.35,7.863 9.701,7.501 10.056,7.146 10.483,6.659 10.766,5.802 10.981,5.376 11.045,4.881 11.045,4.53 11.045,3.892 10.902,3.824 10.902,3.398 10.977,2.616 10.766,2.33 10.339,1.695 9.92,0.989 9.132,0.351 8.214,-0.004 7.293,-0.358 6.376,-0.645 5.24,-0.645 c -0.499,0 -1.563,-0.068 -2.194,0 C 2.408,-0.573 1.838,-0.358 1.34,-0.287 0.925,-0.219 0.645,-0.219 0,0"
             style="fill:#2f3338;fill-opacity:1;fill-rule:nonzero;stroke:none"
             id="path288"
             inkscape:connector-curvature="0" /></g><g
           id="g290"
           transform="translate(300.7656,450.7066)"><path
             d="m 0,0 c -0.14,-0.57 -0.283,-0.857 -0.358,-1.77 -0.706,-0.219 -0.99,-0.287 -1.416,-0.287 -0.358,-0.068 -0.781,0.072 -1.136,0.072 -0.918,0 -1.627,0.075 -2.19,0.354 -0.57,0.283 -0.993,0.638 -1.276,1.208 -0.355,0.563 -0.57,1.982 -0.57,2.971 l 0,0.645 c 0,0.355 -0.068,0.638 0,2.545 l -0.068,7.375 -2.057,0 0,1.484 2.057,0.075 c 0.068,0.412 0,1.839 0,2.9 0,0.501 -0.286,0.989 -0.498,1.279 0.989,0.212 2.412,0.638 3.043,0.774 0,-1.627 0.147,-4.035 0.147,-4.953 l 4.25,-0.075 c -0.068,-0.71 0,-0.989 0.076,-1.627 l -1.208,0.143 -3.118,0 -0.068,-9.282 0,-0.781 c 0.068,-0.853 0.136,-1.91 0.355,-2.337 0.136,-0.426 0.419,-0.57 0.774,-0.781 0.354,-0.143 0.709,-0.215 1.064,-0.215 l 0.925,0 C -0.989,-0.29 -0.778,-0.219 0,0"
             style="fill:#2f3338;fill-opacity:1;fill-rule:nonzero;stroke:none"
             id="path292"
             inkscape:connector-curvature="0" /></g><g
           id="g294"
           transform="translate(204.1984,451.6169)"><path
             d="m 0,0 c -0.068,-0.634 -0.283,-1.412 -0.351,-2.405 -0.989,-0.279 -2.552,-0.849 -3.258,-0.992 -0.706,-0.069 -1.419,-0.069 -2.125,-0.069 -1.272,0 -2.552,0.28 -3.616,0.638 -0.989,0.355 -1.989,1.058 -2.763,1.914 -0.782,0.846 -1.491,1.771 -1.846,2.828 -0.355,1.132 -0.427,2.197 -0.498,3.397 -0.068,1.706 0.218,2.341 0.713,3.828 0.563,1.419 1.627,2.48 2.763,3.333 1.133,0.853 2.552,1.204 4.39,1.204 0.925,0 1.982,-0.068 2.835,-0.351 0.849,-0.287 1.563,-0.642 2.125,-1.208 0.563,-0.638 1.065,-1.272 1.42,-2.125 C 0.143,9.071 0.215,9.071 0.358,8.01 0.495,7.508 0.495,6.73 0.495,6.304 l -12.11,-0.068 0,-1.208 c 0.068,-1.208 0.211,-2.408 0.702,-3.404 0.498,-0.99 1.133,-1.699 2.054,-2.19 0.924,-0.498 2.057,-0.989 3.193,-0.989 C -4.315,-1.548 -1.982,-0.986 0,0 m -11.117,8.017 8.856,0 c 0,0.703 0,0.495 -0.072,0.918 -0.068,0.354 -0.212,0.709 -0.423,1.132 -0.211,0.423 -0.566,0.703 -0.925,0.993 -0.354,0.355 -0.706,0.562 -1.2,0.781 -0.43,0.143 -1.14,0.212 -1.706,0.212 -0.566,0 -1.065,-0.147 -1.563,-0.359 -0.562,-0.211 -0.989,-0.423 -1.34,-0.781 -0.43,-0.287 -0.706,-0.634 -0.993,-1.061 -0.283,-0.426 -0.494,-0.853 -0.566,-1.272 l -0.072,-0.14 c 0,0 0.072,0 0.004,-0.423"
             style="fill:#2f3338;fill-opacity:1;fill-rule:nonzero;stroke:none"
             id="path296"
             inkscape:connector-curvature="0" /></g><g
           id="g298"
           transform="translate(179.4017,448.2194)"><path
             d="m 0,0 c 0,0.362 0.287,0.785 0.287,1.068 0.075,5.379 0,9.49 -0.144,12.891 l -0.068,1.491 -0.498,1.204 c 0.498,0.075 1.208,0.14 1.563,0.212 0.351,0.075 1.272,0.215 1.695,0.215 l 0,-3.054 c 0.362,0.713 0.426,0.645 0.706,0.997 0.218,0.361 0.709,0.774 1.064,1.064 0.362,0.215 0.706,0.498 1.208,0.641 0.423,0.137 0.849,0.352 1.348,0.352 0.422,0 0.777,0.075 1.774,0 0.982,-0.14 1.555,-0.352 1.77,-0.423 0.068,-0.423 -0.71,-2.269 -0.71,-2.269 0,0 -0.781,0.075 -1.419,0.355 -0.638,0.143 -1.057,0.143 -1.559,0.143 -0.562,0 -1.268,-0.143 -1.77,-0.354 C 4.824,14.314 4.329,14.027 3.978,13.615 3.62,13.189 3.408,12.687 3.197,12.053 2.978,11.551 3.053,11.977 2.978,11.2 2.91,10.35 2.978,2.767 3.053,0.996 l 0.28,-0.917 -1.699,0 C 1.351,0.079 0.57,0 0,0"
             style="fill:#2f3338;fill-opacity:1;fill-rule:nonzero;stroke:none"
             id="path300"
             inkscape:connector-curvature="0" /></g><g
           id="g302"
           transform="translate(154.3971,448.1549)"><path
             d="m 0,0 0.57,1.627 0,20.116 c -0.075,0.645 -0.283,1.204 -0.642,2.272 1.42,-0.075 3.756,0.072 4.745,0.072 0.567,0 1.491,-0.072 2.764,-0.072 1.275,0 2.411,0 2.974,-0.075 1.771,-0.136 2.272,-0.211 3.545,-0.562 0.917,-0.212 2.687,-1.208 3.54,-1.771 0.782,-0.57 1.627,-1.208 2.269,-2.125 0.631,-0.921 0.921,-1.208 1.412,-2.265 0.57,-1.495 0.925,-3.054 0.925,-4.469 C 22.249,10.691 22.03,9.207 21.46,7.365 20.829,5.519 19.55,4.175 18.349,2.967 17.142,1.692 15.798,0.986 14.239,0.559 12.683,0.204 10.913,-0.147 8.927,-0.147 l -4.605,0 L 0,0 Z M 4.186,1.914 C 5.523,1.839 6.662,1.839 7.795,1.839 c 0.925,0 2.057,0.075 3.046,0.143 1.061,0.143 1.771,0.498 2.555,0.781 0.778,0.287 1.559,0.703 2.265,1.419 0.782,0.706 1.344,1.563 1.846,2.412 0.419,0.921 0.781,1.91 0.918,3.047 0.211,1.132 0.286,2.268 0.286,3.397 -0.075,1.276 -0.423,2.272 -0.785,3.333 -0.351,1.129 -0.985,2.48 -1.91,3.261 -0.989,0.775 -1.698,1.412 -2.763,1.696 -0.989,0.286 -2.476,0.713 -4.107,0.713 -1.064,0 -2.416,-0.076 -3.053,-0.147 C 5.387,21.822 4.817,21.75 3.896,21.75 L 4.186,1.914 Z"
             style="fill:#2f3338;fill-opacity:1;fill-rule:nonzero;stroke:none"
             id="path304"
             inkscape:connector-curvature="0" /></g><g
           id="g306"
           transform="translate(130.3877,455.9671)"><path
             d="m 0,0 c 0,1.347 -0.641,1.214 -1.077,1.279 -0.469,0.068 -1.581,-0.168 -2.587,0.068 -1.21,0.235 -1.852,1.915 -1.649,2.723 0.605,2.322 2.119,2.624 3.16,2.555 C -1.344,6.591 0.168,6.524 2.017,4.91 2.857,4.17 3.362,2.22 3.396,1.112 3.432,-0.265 3.362,-1.815 2.556,-2.686 1.245,-4.099 -2.22,-5.307 -4.167,-5.242 c -7.633,0.808 -7.363,8.001 -7.363,8.001 0,0 -0.607,3.093 1.983,6.39 0.203,0.268 0.538,0.908 0.807,1.175 0.268,0.303 0.469,0.371 0.807,0.641 0.303,0.235 0.638,0.401 0.975,0.604 0.84,0.503 1.748,0.971 2.621,1.241 1.313,0.403 2.624,0.504 3.667,0.472 C 2.488,13.181 5.919,11.465 7.635,8.808 7.902,8.441 8.104,8.171 8.339,7.834 8.575,7.463 8.876,6.825 9.179,6.053 9.584,4.909 9.446,5.38 9.885,3.631 10.188,2.388 10.326,1.611 10.39,0.808 10.426,0.437 10.456,0.036 10.494,-0.403 10.526,-1.782 10.693,-2.119 10.39,-3.194 9.921,-5.007 8.774,-6.795 7.834,-7.732 6.153,-9.382 4.609,-9.887 3.699,-10.354 c -0.908,-0.472 -1.277,-0.538 -2.452,-0.943 -1.176,-0.437 -1.817,-0.505 -3.904,-0.505 -2.049,0.032 -3.73,0.135 -4.233,0.267 -3.667,1.01 -4.977,1.682 -6.557,2.961 -4.102,3.225 -4.942,9.547 -4.942,9.547 0,0 -0.437,3.225 0.267,6.589 0.405,1.782 2.189,5.043 3.231,6.356 0.873,1.107 2.888,2.724 4.099,3.464 1.211,0.772 2.927,1.781 4.911,2.385 0.974,0.331 1.716,0.469 3.932,0.571 2.556,0.1 6.323,-0.571 8.54,-1.243 2.321,-0.708 4.437,-2.221 5.515,-3.395 1.107,-1.213 3.565,-4.808 3.967,-5.55 0.438,-0.74 1.614,-4.673 1.714,-5.211 0.104,-0.503 0.303,-2.286 2.053,-2.185 1.612,0.137 1.141,1.983 1.107,2.321 -0.068,0.337 -0.638,3.395 -0.908,4.235 -0.235,0.84 -1.476,3.06 -1.781,3.497 -0.134,0.27 -1.277,2.119 -2.384,3.565 -0.842,1.076 -1.652,2.155 -2.56,2.692 -1.713,1.106 -3.898,2.084 -3.898,2.084 0,0 -3.732,1.279 -5.684,1.513 -1.681,0.203 -3.494,0.57 -6.487,0.371 -2.992,-0.202 -4.64,-1.01 -5.747,-1.445 -1.079,-0.473 -3.565,-1.55 -5.417,-3.06 -1.851,-1.517 -1.278,-0.776 -2.286,-1.883 -0.975,-1.111 -1.278,-1.413 -1.949,-2.357 -0.674,-0.975 -2.116,-3.798 -2.659,-5.713 -0.199,-0.774 -0.569,-1.951 -0.738,-3.094 -0.134,-0.973 -0.17,-1.917 -0.066,-2.689 0.168,-1.648 0.1,-1.68 0.1,-1.68 0,0 0.772,-3.195 1.177,-4.474 0.436,-1.241 1.009,-3.092 3.597,-5.985 2.621,-2.859 5.009,-3.629 5.917,-4 0.909,-0.337 3.967,-1.412 8.003,-1.48 4.673,-0.102 5.884,0.941 6.725,1.278 0.872,0.37 3.731,1.581 6.017,3.731 2.286,2.15 3.026,4.472 3.094,4.64 0.636,1.815 0.84,4.71 0.267,7.533 -0.403,1.915 -0.706,3.566 -1.077,4.742 -0.673,2.015 -1.48,3.16 -2.083,4.066 -0.538,0.841 -2.222,2.119 -3.262,2.759 -0.506,0.299 -0.975,0.672 -1.648,0.942 -0.674,0.303 -1.548,0.502 -2.589,0.74 -0.975,0.235 -2.254,0.47 -3.329,0.538 -0.94,0.066 -1.746,0.032 -2.086,0.032 -0.47,0 -2.084,-0.271 -4.234,-1.41 -1.211,-0.64 -2.49,-1.383 -3.934,-2.823 -0.438,-0.473 -0.84,-1.043 -1.177,-1.514 -3.194,-4.371 -2.017,-9.247 -2.017,-9.247 0,0 0.57,-6.591 6.353,-8.474 2.053,-0.638 3.835,-0.673 5.349,-0.503 2.522,0.335 4.371,1.379 5.614,2.017 1.279,0.67 2.22,1.748 2.725,2.927 0.503,1.075 0.604,2.218 0.569,3.158 C 6.422,0.878 6.422,1.582 6.288,2.323 5.953,4.203 5.279,6.087 3.629,7.497 L 3.124,7.836 C 2.822,8.038 2.555,8.172 2.318,8.305 0.908,9.046 -0.475,9.315 -2.39,9.416 -3.097,9.382 -4.136,9.245 -4.71,8.944 -6.997,7.836 -8.239,5.815 -8.14,3.163 -8.04,0.675 -5.718,-0.636 -5.317,-1.005 -5.279,-1.041 -0.136,-2.351 0,0"
             style="fill:#2f3338;fill-opacity:1;fill-rule:nonzero;stroke:none"
             id="path308"
             inkscape:connector-curvature="0" /></g></g></g></g></svg>