<svg xmlns="http://www.w3.org/2000/svg" width="566.929" height="98.437">
  <path fill="#4c504e" d="M93.340927 4.4388046H51.488602v3.4876938h6.975387v3.4876936h-3.487694v3.487694h-3.487693V7.9264984h-3.487694V49.778824h3.487694v3.487694h17.438469v-3.487694h3.487693V32.340355h20.926163v-3.487694h3.487694v-3.487694h-3.487694v-3.487693H72.414764v-6.975388h20.926163v-3.487694h3.487694V7.9264984h-3.487694V4.4388046zm55.816723 6.9753874h-3.48769V7.9264984h-3.4877V4.4388046h-31.38924v3.4876938h3.48769v3.4876936h-3.48769v3.487694h-3.4877v-3.487694h-3.48769v38.364632h3.48769v3.487694h17.43847v-3.487694h3.4877V28.852661h10.46308v20.926163h3.48769v3.487694h6.97539v-3.487694h3.48769V14.901886h-3.48769v-3.487694zm-20.92616 3.487694h10.46308v6.975388h-10.46308v-6.975388zm76.74288-6.9753876V4.4388046h-10.46308v3.4876938h-3.48769V28.852661h-3.4877v3.487694h-3.48769V7.9264984h-3.48769V4.4388046h-17.43847v3.4876938h6.97538v3.4876936h-3.48769v3.487694h-3.48769V7.9264984h-3.4877V46.29113h3.4877v3.487694h3.48769v3.487694h20.92616v-3.487694h3.4877V46.29113h3.48769v-3.487694h3.4877v-3.487694h3.48769v-3.487693h3.48769v-3.487694h3.4877V7.9264984h-3.4877zm55.81672 0h-3.48769V4.4388046h-34.87694v3.4876938h3.48769v3.4876936h-3.48769v3.487694h-3.48769v-3.487694h-3.4877V46.29113h3.4877v3.487694h3.48769v3.487694h34.87694v-3.487694h3.48769V46.29113h3.4877V11.414192h-3.4877V7.9264984zM239.86493 39.315742V14.901886h10.46308v24.413856h-10.46308zm76.74289-31.3892436h-3.4877V4.4388046h-38.36463v3.4876938h6.97539v3.4876936h-3.48769v3.487694h-3.4877V7.9264984h-3.48769V49.778824h3.48769v3.487694h17.43847v-3.487694h3.4877V39.315742h3.48769v3.487694h3.48769v3.487694h3.4877v3.487694h3.48769v3.487694h6.97539v-3.487694h3.48769V35.828049h-3.48769v-3.487694h-3.4877v-3.487694h3.4877v-3.487694h3.48769V11.414192h-3.48769V7.9264984zM306.14474 21.877274h-10.46308v-6.975388h10.46308v6.975388zm41.86595-17.4384694h-17.43847v3.4876938h6.97539v3.4876936h-3.4877v3.487694h-3.48769V7.9264984h-3.48769V49.778824h3.48769v3.487694h17.43847v-3.487694h3.48769V7.9264984h-3.48769V4.4388046zm55.79627 0h-41.85232v3.4876938h6.97538v3.4876936h-3.48769v3.487694h-3.48769v3.487694h10.46308v31.389244h3.48769v3.487694h13.95078v-3.487694h3.48769V18.38958h10.46308v-3.487694h3.48769V7.9264984h-3.48769V4.4388046zm-41.85232 3.4876938h-3.4877v6.9753876h3.4877V7.9264984zm97.66906-3.4876938h-41.85232v3.4876938h6.97539v3.4876936h-3.4877v3.487694h-3.48769V7.9264984h-3.4877V49.778824h3.4877v3.487694h41.85232v-3.487694h3.4877v-6.975388h-3.4877v-3.487694h-20.92616v-6.975387h20.92616v-3.487694h3.4877v-3.487694h-3.4877v-3.487693h-20.92616v-6.975388h20.92616v-3.487694h3.4877V7.9264984h-3.4877V4.4388046zm55.81671 0h-38.36463v3.4876938h3.4877v3.4876936h-3.4877v3.487694h-3.48769v-3.487694h-3.48769v17.438469h3.48769v3.487694h27.90155v3.487694h-27.90155v3.487693h-3.48769v10.463082h3.48769v3.487694h38.36463v-3.487694h3.48769V46.29113h3.4877V25.364967h-3.4877v-3.487693h-20.92616V18.38958h20.92616v-3.487694h3.4877V7.9264984h-3.4877V4.4388046z" style="line-height:125%;-inkscape-font-specification:'04b'" font-size="59.29079437" font-family="04b" letter-spacing="0" word-spacing="0"/>
  <g fill-rule="evenodd">
    <path d="M172.79476738 60.80198748h10.35525008v5.40671633h5.13180372v-5.223431h15.67032378v5.1317885h4.7652485v15.8536243h-4.7652485v5.49835896h-5.0401611v5.1318037h-5.13180373v5.0401611h-10.4468927v-5.0401611h-4.94851847V87.257967l-5.4067316.0323912v-5.0447754h-5.13180373V66.02541856h5.0401611z"/>
    <path fill="red" d="M172.89785388 66.0368777h10.25787787v5.34945115h5.24063508V66.1858008h15.55577813v15.73906337h-5.22344635v5.45253764h-5.4525376v5.0859825h-10.0345162v-5.1318038h-4.8568758v-5.3150737h-5.4067316z"/>
    <path fill="maroon" d="M183.23020094 87.3428563h10.0276254v5.119107h-10.0195276zm15.65886462.08036682h-5.62436374v-5.5098181l5.622515.0122231zm5.0675561-5.49744222l-5.06323218-.00305577.00763943-15.7578411 5.0674798.00305577z"/>
    <path fill="#f9f9f9" d="M172.8846071 66.03599153h5.48975695v10.8547467h-5.42824424z"/>
    <path d="M220.38610788 60.99540748h10.35525008v5.40671633h5.13180372v-5.223431h15.67032378v5.1317885h4.7652485v15.8536243h-4.7652485v5.49835896h-5.0401611v5.1318037h-5.13180373v5.0401611h-10.4468927v-5.0401611h-4.94851847V87.451387l-5.4067316.0323912v-5.0447754h-5.13180373V66.21883856h5.0401611z"/>
    <path fill="red" d="M220.48919438 66.2302977h10.25787787v5.34945115h5.24063508V66.3792208h15.55577813v15.73906337h-5.22344635v5.45253764h-5.4525376v5.0859825h-10.0345162v-5.1318038h-4.8568758v-5.3150737h-5.4067316z"/>
    <path fill="maroon" d="M230.82154144 87.5362763h10.0276254v5.119107h-10.0195276zm15.65886462.08036682h-5.62436374v-5.5098181l5.622515.0122231zm5.0675561-5.49744222l-5.06323218-.00305577.00763943-15.7578411 5.0674798.00305577z"/>
    <path fill="#f9f9f9" d="M220.4759476 66.22941153h5.48975695v10.8547467h-5.42824424z"/>
    <path d="M267.97746438 61.76748548h10.35525008v5.40671633h5.13180372v-5.223431h15.67032378v5.1317885h4.7652485v15.8536243h-4.7652485v5.49835896h-5.0401611v5.1318037h-5.13180373v5.0401611h-10.4468927v-5.0401611h-4.94851847V88.223465l-5.4067316.0323912v-5.0447754h-5.13180373V66.99091656h5.0401611z"/>
    <path fill="red" d="M268.08055088 67.0023757h10.25787787v5.34945115h5.24063508V67.1512988h15.55577813v15.73906337h-5.22344635v5.45253764h-5.4525376v5.0859825h-10.0345162v-5.1318038h-4.8568758v-5.3150737h-5.4067316z"/>
    <path fill="maroon" d="M278.41289794 88.3083543h10.0276254v5.119107h-10.0195276zm15.65886462.08036682h-5.62436374v-5.5098181l5.622515.0122231zm5.0675561-5.49744222l-5.06323218-.00305577.00763943-15.7578411 5.0674798.00305577z"/>
    <path fill="#f9f9f9" d="M268.0673041 67.00148953h5.48975695v10.8547467h-5.42824424z"/>
    <path d="M315.56881838 61.26748548h10.35525008v5.40671633h5.13180372v-5.223431h15.67032378v5.1317885h4.7652485v15.8536243h-4.7652485v5.49835896h-5.0401611v5.1318037h-5.13180373v5.0401611h-10.4468927v-5.0401611h-4.94851847V87.723465l-5.4067316.0323912v-5.0447754h-5.13180373V66.49091656h5.0401611z"/>
    <path fill="red" d="M315.67190488 66.5023757h10.25787787v5.34945115h5.24063508V66.6512988h15.55577813v15.73906337h-5.22344635v5.45253764h-5.4525376v5.0859825h-10.0345162v-5.1318038H321.15882v-5.3150737h-5.4067316z"/>
    <path fill="maroon" d="M326.00425194 87.8083543h10.0276254v5.119107h-10.0195276zm15.65886462.08036682h-5.62436374v-5.5098181l5.622515.0122231zm5.0675561-5.49744222l-5.06323218-.00305577.00763943-15.7578411 5.0674798.00305577z"/>
    <path fill="#f9f9f9" d="M315.6586581 66.50148953h5.48975695v10.8547467h-5.42824424z"/>
    <path d="M363.16015738 61.51748548h10.35525008v5.40671633h5.13180372v-5.223431h15.67032378v5.1317885h4.7652485v15.8536243h-4.7652485v5.49835896h-5.0401611v5.1318037h-5.13180373v5.0401611h-10.4468927v-5.0401611h-4.94851847V87.973465l-5.4067316.0323912v-5.0447754h-5.13180373V66.74091656h5.0401611z"/>
    <path fill="red" d="M363.26324388 66.7523757h10.25787787v5.34945115h5.24063508V66.9012988h15.55577813v15.73906337h-5.22344635v5.45253764h-5.4525376v5.0859825h-10.0345162v-5.1318038h-4.8568758v-5.3150737h-5.4067316z"/>
    <path fill="maroon" d="M373.59559094 88.0583543l5.0627738.01954167.00003057 5.1034813-5.0546913-.0039725z"/>
    <path fill="#f9f9f9" d="M363.2499971 66.75148953h5.48975695v10.8547467h-5.42824424z"/>
    <path fill="#f9f9f9" stroke-width=".65449893" d="M378.65567567 66.90183966h15.64900976v15.7136424h-5.22656324v5.4621389h-5.4531183v5.09375017h-4.9693283z"/>
  </g>
</svg>
