<svg xmlns="http://www.w3.org/2000/svg" viewBox="0 0 499.99999 202.80857">
  <path fill="#171819" d="M337.97363 102.93877c0 10.42175-.25575 19.88444-.63937 28.32414-.63937 14.06617-1.59843 25.12729-2.42961 32.67188-1.53449 14.57766-.31969 25.12729-14.96129 30.88163-8.12001 3.19685-34.2703 3.83622-38.36227 2.42961-4.09198-1.40662-7.2249-2.17386-9.07907-7.54458-1.91812-5.37072-8.56758-32.09644-11.76444-38.61803-3.26079-6.52158-9.46269-21.73862-10.86931-26.08634l-1.40661-4.34773s-2.68536-7.28883-2.68536-17.77452c0-10.48569 2.68536-17.77452 2.68536-17.77452l1.40661-4.34772c1.40662-4.34773 7.60852-19.6287 10.86931-26.08635 3.2608-6.52159 9.84632-33.24731 11.76444-38.61802 1.91811-5.37072 5.05103-6.13797 9.07907-7.54459 4.09197-1.40661 30.24226-.76724 38.36227 2.42962 14.6416 5.75434 13.4268 16.30396 14.96129 30.88163.76724 7.54458 1.79024 18.6057 2.42961 32.67187.38362 8.50364.63937 18.03027.63937 28.45202"/>
  <path fill="#171819" d="M330.30118 103.00271c.31968 28.38808-1.66237 68.98815-5.75434 74.42281-5.81828 10.42175-14.32192 10.166-20.84351 10.74144-3.32473-.19182-9.39875-1.15087-15.08916-5.37072-1.79024-1.27875-3.83623-3.58048-4.98709-4.85922-11.189-15.85641-30.49801-39.00165-32.48006-74.93431v-.0639c1.98205-35.93267 21.29106-59.01397 32.48006-74.93431 1.15086-1.27874 3.19685-3.58048 4.98709-4.85922 5.75434-4.21985 11.82837-5.11497 15.08916-5.37072 6.52159.57543 15.08916.31968 20.84351 10.74143 4.09197 5.4986 6.07402 46.03473 5.75434 74.42282"/>
  <path fill="#282827" d="M285.737 103.13058v-.19181l1.21481 57.22373c.38362 5.94615.76724 10.42175 6.39371 14.57766 2.36567 1.79024 5.30678 2.62142 8.24789 2.62142h2.10992c11.82837 0 16.30397-6.01009 18.22208-16.04822 0 0 2.62143-23.91248 2.62143-58.37459 0-34.46211-2.62143-58.3746-2.62143-58.3746-1.91811-10.03813-6.39371-16.04822-18.22208-16.04822h-2.10992c-2.94111 0-5.88222.89512-8.24789 2.62143-5.62647 4.15591-5.94615 8.56757-6.39371 14.57766l-1.21481 57.22373v-.19181"/>
  <path fill="#1d1d1d" d="M321.2221 102.81089c0 30.62589-2.55748 51.40545-2.55748 51.40545-1.47055 8.88726-4.28379 14.70554-13.23499 14.70554h-4.34772c-5.11497 0-9.27088-4.15591-9.27088-9.27088v-56.84011.19182-56.77617c0-5.11497 4.15591-9.27088 9.27088-9.27088h4.34772c8.9512 0 11.76444 5.81827 13.23499 14.70553 0 0 2.55748 20.77957 2.55748 51.40545"/>
  <path fill="#1b1c1c" d="M294.04883 44.24449h19.30901v117.38856h-19.30901z"/>
  <path fill="#414446" d="M294.17671 44.4363h19.05326v117.06888h-19.05326z"/>
  <path fill="#1b1d1e" d="M294.1767 102.81089v40.34433c0 8.4397 5.56253 15.72853 7.67246 18.28602h11.3808v-58.63035.25575V44.4363h-11.31687c-2.10992 2.55748-7.67245 9.84632-7.67245 18.28602v40.34432"/>
  <path fill="#46494b" d="M309.07405 44.4363v7.9282c0 .25575.25575.5115.5115.5115h3.64441v-8.4397h-4.15591zm0 117.00494v-7.92821c0-.25574.25575-.51149.5115-.51149h3.64441v8.4397h-4.15591z"/>
  <path fill="#45494a" d="M311.82335 102.81089v47.76104c0 .25574-.25575.51149-.5115.51149h-2.87717c-.25575 0-.5115.19181-.5115.5115v7.35277h-6.01009c-3.83622-4.66741-6.77733-9.97419-6.77733-18.54177V65.34374c0-8.56758 2.94111-13.87436 6.77733-18.54177h6.01009v7.35277c0 .25575.25575.5115.5115.5115h2.87717c.25575 0 .5115.25575.5115.5115v47.63315z"/>
  <path d="M303.31971 44.4363h.38362v117.06888h-.38362z"/>
  <path fill="#1c1e1f" d="M302.55246 70.13902h.76724v65.34374h-.76724z"/>
  <path fill="#202223" d="M301.78523 70.13902h.76724v65.34374h-.76724z"/>
  <path fill="#242627" d="M301.01797 70.13902h.76724v65.34374h-.76724z"/>
  <path fill="#292c2d" d="M300.25073 70.13902h.76725v65.34374h-.76725z"/>
  <path fill="#2f3133" d="M299.48348 70.13902h.76725v65.34374h-.76725z"/>
  <path fill="#333637" d="M298.71623 70.13902h.76725v65.34374h-.76725z"/>
  <path fill="#373a3c" d="M297.949 70.13902h.76724v65.34374h-.76724z"/>
  <path fill="#3b3e3f" d="M297.18174 70.13902h.76724v65.34374h-.76724z"/>
  <path fill="#3f4244" d="M296.41451 70.13902h.76724v65.34374h-.76724z"/>
  <path fill="#1b1d1e" d="M303.31971 72.12107v-1.98205h-6.90521s5.81828.5115 6.90521 1.98205zm0 61.31571v1.98205h-6.90521c0 .0639 5.81828-.44756 6.90521-1.98205z"/>
  <path fill="#1c1e1f" d="M303.70334 70.13902h.76724v65.34374h-.76724z"/>
  <path fill="#202223" d="M304.47057 70.13902h.76725v65.34374h-.76725z"/>
  <path fill="#242627" d="M305.23782 70.13902h.76725v65.34374h-.76725z"/>
  <path fill="#292c2d" d="M306.00508 70.13902h.76724v65.34374h-.76724z"/>
  <path fill="#2f3133" d="M306.77231 70.13902h.76724v65.34374h-.76724z"/>
  <path fill="#333637" d="M307.53957 70.13902h.76724v65.34374h-.76724z"/>
  <path fill="#373a3c" d="M308.3068 70.13902h.76724v65.34374h-.76724z"/>
  <path fill="#3b3e3f" d="M309.07405 70.13902h.76725v65.34374h-.76725z"/>
  <path fill="#3f4244" d="M309.8413 70.13902h.76725v65.34374h-.76725z"/>
  <path fill="#1b1d1e" d="M303.70333 72.12107v-1.98205h7.16096s-6.01009.5115-7.16096 1.98205zm0 61.31571v1.98205h7.16096c0 .0639-6.01009-.44756-7.16096-1.98205z"/>
  <path fill="#0e1214" d="M304.72633 56.52042v.38362c-.12788 0-.31969-.0639-.31969-.19181 0-.12788.12788-.19181.31969-.19181z"/>
  <path fill="#5e5e60" d="M310.60854 56.52042v.38362c.12788 0 .31969-.0639.31969-.19181-.0639-.12788-.19181-.19181-.31969-.19181z"/>
  <path fill="#393d3f" d="M304.72633 56.52042h5.88222v.38362h-5.88222z"/>
  <path fill="#0e1214" d="M304.72633 60.03696v.38362c-.12788 0-.31969-.0639-.31969-.19181 0-.12788.12788-.19181.31969-.19181z"/>
  <path fill="#5e5e60" d="M310.60854 60.03696v.38362c.12788 0 .31969-.0639.31969-.19181-.0639-.12788-.19181-.19181-.31969-.19181z"/>
  <path fill="#393d3f" d="M304.72633 60.03696h5.88222v.38362h-5.88222z"/>
  <path fill="#0e1214" d="M296.4145 60.03696v.38362c-.12787 0-.31969-.0639-.31969-.19181.0639-.12788.19182-.19181.31969-.19181z"/>
  <path fill="#5e5e60" d="M302.29672 60.03696v.38362c.12787 0 .31968-.0639.31968-.19181-.0639-.12788-.19181-.19181-.31968-.19181z"/>
  <path fill="#393d3f" d="M296.41451 60.03696h5.88221v.38362h-5.88221z"/>
  <path fill="#0e1214" d="M297.50143 56.52042v.38362c-.12787 0-.31968-.0639-.31968-.19181.0639-.12788.19181-.19181.31968-.19181z"/>
  <path fill="#5e5e60" d="M302.29672 56.52042v.38362c.12787 0 .31968-.0639.31968-.19181-.0639-.12788-.19181-.19181-.31968-.19181z"/>
  <path fill="#393d3f" d="M297.50142 56.52042h4.79529v.38362h-4.79529z"/>
  <path fill="#0e1214" d="M304.72633 149.10137v-.38362c-.12788 0-.31969.0639-.31969.19181 0 .12788.12788.19181.31969.19181z"/>
  <path fill="#5e5e60" d="M310.60854 149.10137v-.38362c.12788 0 .31969.0639.31969.19181-.0639.12788-.19181.19181-.31969.19181z"/>
  <path fill="#393d3f" d="M304.72633 148.71776h5.88222v.38362h-5.88222z"/>
  <path fill="#0e1214" d="M304.72633 145.58483v-.38362c-.12788 0-.31969.0639-.31969.19181 0 .0639.12788.19181.31969.19181z"/>
  <path fill="#5e5e60" d="M310.60854 145.58483v-.38362c.12788 0 .31969.0639.31969.19181-.0639.0639-.19181.19181-.31969.19181z"/>
  <path fill="#393d3f" d="M304.72633 145.20121h5.88222v.38363h-5.88222z"/>
  <path fill="#0e1214" d="M296.4145 145.58483v-.38362c-.12787 0-.31969.0639-.31969.19181.0639.0639.19182.19181.31969.19181z"/>
  <path fill="#5e5e60" d="M302.29672 145.58483v-.38362c.12787 0 .31968.0639.31968.19181-.0639.0639-.19181.19181-.31968.19181z"/>
  <path fill="#393d3f" d="M296.41451 145.20121h5.88221v.38363h-5.88221z"/>
  <path fill="#0e1214" d="M297.50143 149.10137v-.38362c-.12787 0-.31968.0639-.31968.19181.0639.12788.19181.19181.31968.19181z"/>
  <path fill="#5e5e60" d="M302.29672 149.10137v-.38362c.12787 0 .31968.0639.31968.19181-.0639.12788-.19181.19181-.31968.19181z"/>
  <path fill="#393d3f" d="M297.50142 148.71776h4.79529v.38362h-4.79529z"/>
  <path d="M311.95122 55.24167h1.40662v4.53954h-1.40662zm-16.43184.12788h1.21481c-.5115 1.34268-.89512 2.81323-1.21481 4.41166h-1.15087c.25575-1.53449.63937-3.06898 1.15087-4.41166m16.43184 90.66283h1.40662v4.53954h-1.40662zm-16.43184 4.47561h1.21481c-.5115-1.34268-.89512-2.81323-1.21481-4.41166h-1.15087c.25575 1.53449.63937 3.00504 1.15087 4.41166"/>
  <path fill="#2a2c2e" d="M292.00284 159.651V46.22654c0-5.17891 4.21985-9.39876 9.33482-9.39876h4.34772c9.07908 0 11.89231 5.88222 13.29893 14.76948 0 .19181 2.55748 21.03531 2.55748 51.21363v.19182c0 30.17832-2.55748 51.02182-2.55748 51.21363-1.40662 8.88726-4.21985 14.76948-13.29893 14.76948h-4.34772c-5.17891.0639-9.33482-4.15591-9.33482-9.33482zm.19181-56.58436v56.6483c0 5.05103 4.09198 9.143 9.20695 9.143h4.34772c8.9512 0 11.70049-5.81827 13.10711-14.6416 0-.19181 2.55749-21.09925 2.55749-51.27757 0-30.17832-2.55749-51.08576-2.55749-51.27758-1.40662-8.75938-4.21985-14.6416-13.10711-14.6416h-4.34772c-5.05104 0-9.20695 4.09198-9.20695 9.14301v56.90404z"/>
  <path fill="#3f3f3f" d="M285.60913 103.19452v-.44756l1.2148-57.03192c.38362-5.81828.70331-10.42175 6.45765-14.6416 2.30174-1.7263 5.24285-2.68536 8.31183-2.68536h2.10992c5.69041 0 9.91026 1.40662 12.9153 4.28379 2.68536 2.55748 4.34773 6.32977 5.43466 11.82837 0 .25574 2.62142 24.2961 2.62142 58.37459s-2.62142 58.11885-2.62142 58.3746c-1.023 5.49859-2.7493 9.27088-5.43466 11.82836-2.94111 2.87717-7.16096 4.28379-12.9153 4.28379h-2.10992c-3.00505 0-6.01009-.95906-8.31183-2.68536-5.6904-4.21985-6.01009-8.82332-6.45765-14.6416l-1.2148-56.8401zm38.87377-.25575c0-34.07849-2.62142-58.11885-2.62142-58.3746-2.10993-11.18899-7.54458-15.98428-18.09421-15.98428h-2.10993c-3.00504 0-5.88221.95906-8.18395 2.62142-5.62646 4.15592-5.94615 8.69545-6.32977 14.44979l-1.21481 57.22373 1.21481 57.22373c.38362 5.75434.70331 10.29388 6.32977 14.44979 2.30174 1.66236 5.17891 2.62142 8.18395 2.62142h2.10993c10.54963 0 15.98428-4.79528 18.09421-15.98428 0-.12788 2.62142-24.16823 2.62142-58.24672z"/>
  <path fill="#2a2c2e" d="M251.14702 102.93877c1.79024-32.48006 17.51877-54.21868 28.96351-70.13903 1.21481-1.7263 2.36568-3.32473 3.45261-4.85922 1.34268-1.53449 3.32473-3.64442 4.98709-4.92316 5.37072-3.9641 11.189-5.11497 15.1531-5.37072.5115.0639 1.08693.0639 1.59843.12788 6.2019.44756 14.00223 1.02299 19.30901 10.61356 4.15592 5.62647 6.07403 47.63316 5.75434 74.48675h-.19181c.31969-26.85359-1.59843-68.79635-5.75434-74.35888-5.30678-9.52663-12.97924-10.10206-19.18114-10.54962-.57543-.0639-1.08693-.0639-1.59842-.12788-3.90017.25575-9.71845 1.40662-15.02523 5.30679-1.66236 1.2148-3.58048 3.32473-4.92316 4.85922-1.08693 1.53449-2.2378 3.13292-3.4526 4.85922-11.44475 15.85641-27.17328 37.59503-28.96352 70.01115v.0639c1.79024 32.41612 17.45484 54.15474 28.96352 70.01115 1.2148 1.7263 2.36567 3.32473 3.4526 4.85922 1.34268 1.53449 3.2608 3.64442 4.92316 4.85922 5.37072 3.9641 11.12506 5.05104 15.02523 5.30678.51149-.0639 1.02299-.0639 1.59842-.12787 6.2019-.44756 13.87436-1.02299 19.18114-10.54963 4.15591-5.56253 6.01009-47.50528 5.75434-74.35887h.19181c.31969 26.91753-1.59842 68.86028-5.75434 74.48675-5.37072 9.59057-13.10711 10.166-19.30901 10.61356-.57543.0639-1.08693.0639-1.59843.12788-3.9641-.25575-9.78238-1.40662-15.1531-5.37072-1.66236-1.21481-3.64441-3.32473-4.98709-4.85922-1.08693-1.5345-2.2378-3.13292-3.45261-4.85923-11.50868-15.92034-27.23721-37.65896-28.96351-70.13902z"/>
  <path fill="#1b1d1e" d="M299.1638 195.77547c-.89512 0-1.66237-.63937-1.66237-1.40661v-3.83623c0-.76725.76725-1.47055 1.66237-1.47055.89512 0 1.66236.63937 1.66236 1.47055v3.77229c0 .83118-.76724 1.47055-1.66236 1.47055z"/>
  <path fill="#2e3233" d="M299.1638 194.75248c-.57544 0-1.08693-.44756-1.08693-1.02299v-2.62143c0-.57543.51149-1.02299 1.08693-1.02299.57543 0 1.08693.44756 1.08693 1.02299v2.62143c0 .57543-.5115 1.02299-1.08693 1.02299z"/>
  <path d="M300.25073 191.10806h.57544v2.62142h-.57544zm-2.74931 0h.57544v2.62142h-.57544z"/>
  <path fill="#1b1d1e" d="M304.3427 195.77547c-.89512 0-1.66236-.63937-1.66236-1.40661v-3.83623c0-.76725.76724-1.47055 1.66236-1.47055s1.66237.63937 1.66237 1.47055v3.77229c0 .83118-.76725 1.47055-1.66237 1.47055z"/>
  <path fill="#2e3233" d="M304.3427 194.75248c-.57543 0-1.08693-.44756-1.08693-1.02299v-2.62143c0-.57543.5115-1.02299 1.08693-1.02299.57544 0 1.08693.44756 1.08693 1.02299v2.62143c0 .57543-.44756 1.02299-1.08693 1.02299z"/>
  <path d="M305.42963 191.10806h.57543v2.62142h-.57543zm-2.74929 0h.57543v2.62142h-.57543z"/>
  <path fill="#1b1d1e" d="M309.52161 195.77547c-.89512 0-1.66236-.63937-1.66236-1.40661v-3.83623c0-.76725.76724-1.47055 1.66236-1.47055s1.66237.63937 1.66237 1.47055v3.77229c0 .83118-.70331 1.47055-1.66237 1.47055z"/>
  <path fill="#2e3233" d="M309.52161 194.75248c-.57543 0-1.08693-.44756-1.08693-1.02299v-2.62143c0-.57543.5115-1.02299 1.08693-1.02299s1.08693.44756 1.08693 1.02299v2.62143c.0639.57543-.44756 1.02299-1.08693 1.02299z"/>
  <path d="M310.67248 191.10806h.57543v2.62142h-.57543zm-2.74929 0h.57543v2.62142h-.57543z"/>
  <path fill="#1b1d1e" d="M299.1638 10.10206c-.89512 0-1.66237.63937-1.66237 1.40662v3.83623c0 .76724.76725 1.47055 1.66237 1.47055.89512 0 1.66236-.63937 1.66236-1.47055v-3.77229c0-.83119-.70331-1.47056-1.66236-1.47056z"/>
  <path fill="#2e3233" d="M299.1638 11.12506c-.57544 0-1.08693.44756-1.08693 1.02299v2.62142c0 .57544.51149 1.023 1.08693 1.023.57543 0 1.08693-.44756 1.08693-1.023v-2.62142c.0639-.57543-.44756-1.02299-1.08693-1.02299z"/>
  <path d="M300.31466 12.14805h.57543v2.62142h-.57543zm-2.74929 0h.57543v2.62142h-.57543z"/>
  <path fill="#1b1d1e" d="M304.40664 10.10206c-.89512 0-1.66236.63937-1.66236 1.40662v3.83623c0 .76724.76724 1.47055 1.66236 1.47055s1.66237-.63937 1.66237-1.47055v-3.77229c-.0639-.83119-.76725-1.47056-1.66237-1.47056z"/>
  <path fill="#2e3233" d="M304.40664 11.12506c-.57543 0-1.08693.44756-1.08693 1.02299v2.62142c0 .57544.5115 1.023 1.08693 1.023s1.08693-.44756 1.08693-1.023v-2.62142c0-.57543-.5115-1.02299-1.08693-1.02299z"/>
  <path d="M305.49357 12.14805h.57543v2.62142h-.57543zm-2.74929 0h.57544v2.62142h-.57544z"/>
  <path fill="#1b1d1e" d="M309.58555 10.10206c-.89512 0-1.66237.63937-1.66237 1.40662v3.83623c0 .76724.76725 1.47055 1.66237 1.47055.89512 0 1.66236-.63937 1.66236-1.47055v-3.77229c0-.83119-.76724-1.47056-1.66236-1.47056z"/>
  <path fill="#2e3233" d="M309.58555 11.12506c-.57544 0-1.08693.44756-1.08693 1.02299v2.62142c0 .57544.51149 1.023 1.08693 1.023.57543 0 1.08693-.44756 1.08693-1.023v-2.62142c0-.57543-.5115-1.02299-1.08693-1.02299z"/>
  <path d="M310.67248 12.14805h.57543v2.62142h-.57543zm-2.74929 0h.57543v2.62142h-.57543z"/>
  <path fill="#171819" d="M285.48125 198.84446c-.31968 0-13.74648-.12788-19.30901-.89512-5.6904-.76725-12.53168.7033-17.32696-10.35782-4.73135-11.06112-8.88726-27.68477-11.63656-51.53332-2.74929-23.84855-2.42961-53.32356 1.47056-76.66061 3.9641-23.27312 6.96914-36.25235 10.42175-43.41331 3.64441-7.67246 10.10206-8.50364 16.24003-8.63151 3.19685-.0639 19.24507-.25575 23.91248-.31969-4.15591.0639-7.4167.31969-8.63151.70331l-.70331.25575c-3.90016 1.27874-7.28883 2.42961-9.27088 7.9282-.70331 1.91811-1.98205 6.52159-3.51654 11.82837-2.68536 9.52663-6.39372 22.50587-8.50364 26.66178-3.32473 6.58552-9.78238 21.99437-11.189 26.21422l-1.40661 4.28379c-.12788.31968-2.81324 7.54458-2.81324 18.09421 0 10.54962 2.68536 17.71058 2.81324 17.96633l1.40661 4.34772c1.40662 4.28379 7.80033 19.6287 11.189 26.21422 2.10992 4.15592 5.81828 17.13515 8.50364 26.66178 1.53449 5.30679 2.81323 9.91026 3.51654 11.82837 2.04599 5.56253 5.37072 6.64946 9.27088 7.92821l.70331.25574c.83118.31969 2.55749.5115 4.85922.63938z"/>
  <path fill="#0b0c0d" d="M337.27032 74.48675c-.63937-14.06617-1.59843-24.99942-2.42961-32.544-1.53449-14.57766-.31968-25.12729-14.89735-30.88163-8.12001-3.19686-34.20636-3.83623-38.29834-2.42961-4.09197 1.40662-7.16095 2.17386-9.07907 7.54458-1.91811 5.37072-8.56757 32.09644-11.76443 38.61802-3.26079 6.52159-9.46269 21.73863-10.86931 26.08635l-1.40662 4.34772s-2.68536 7.28884-2.68536 17.77453c0 10.48568 2.68536 17.77452 2.68536 17.77452l1.40662 4.34772c1.40662 4.34773 7.60852 19.6287 10.86931 26.08635 3.2608 6.52158 9.84632 33.2473 11.76443 38.61802 1.91812 5.37072 5.05104 6.13796 9.07907 7.54458 4.09198 1.40662 30.17833.76725 38.29834-2.42961 14.6416-5.75434 13.4268-16.30397 14.89735-30.88163.76725-7.54458 1.79024-18.6057 2.42961-32.67187.38363-8.4397.63937-18.03027.63937-28.45202v-.0639c0-10.54962-.25574-20.01232-.63937-28.38808m1.023-.0639c.38362 8.4397.63937 18.03027.63937 28.45202v.0639c0 10.42175-.25575 19.88444-.63937 28.32414-.5115 11.25294-1.34268 22.18619-2.49355 32.79975-.19181 1.85418-.38362 3.70835-.5115 5.43466-1.02299 11.76443-1.79024 21.03531-15.40884 26.27815-6.01009 2.30174-20.84351 3.2608-30.8177 3.13292h-.5115c-4.15591-.0639-7.4167-.31968-8.63151-.70331l-.70331-.25574c-3.90016-1.27875-7.22489-2.42961-9.27088-7.92821-.70331-1.91811-1.98205-6.52158-3.51654-11.82837-2.68536-9.52663-6.39371-22.50586-8.50364-26.66178-3.32473-6.58552-9.78238-21.99437-11.189-26.21422l-1.40661-4.28379c-.12788-.31968-2.81324-7.54458-2.81324-18.0942 0-10.54963 2.68536-17.77452 2.81324-18.09421l1.40661-4.28379c1.40662-4.28378 7.80033-19.62869 11.189-26.21422 2.10993-4.15591 5.81828-17.13515 8.50364-26.66178 1.53449-5.30678 2.81323-9.91025 3.51654-11.82837 2.04599-5.56253 5.37072-6.64946 9.27088-7.9282l.76725-.25575c1.2148-.38362 4.4756-.63937 8.63151-.70331h.5115c9.97419-.12787 24.8076.83119 30.81769 3.13292 13.61861 5.24285 14.44979 14.51373 15.40885 26.27816.12787 1.7263.31968 3.58048.5115 5.43466 1.08693 10.61356 1.91811 21.41893 2.42961 32.60793"/>
  <path fill="#c5baba" d="M262.27208 143.66672s0-.0639-.0639-.12788c-.5115-1.2148-1.023-2.42961-1.53449-3.70835-7.48065-19.37295-9.65451-28.0684-9.65451-36.69991 0-5.94615 1.023-11.89231 4.09198-21.355 0 0 6.7134-18.15814 7.28883-19.56476.89512.31969 3.19686 1.27874 5.75434 2.87717 3.13292 1.91811 6.64946 4.79528 8.69545 8.75939.12787.25574.25575.44756.31969.7033 3.4526 7.7364 3.19685 20.26807 3.19685 28.70777 0 8.4397.25575 20.84351-3.19685 28.5799-.12788.25575-.25575.44756-.31969.70331-2.7493 5.30678-8.24789 8.37576-11.76443 9.97419-1.27874.57543-2.30174.95906-2.81323 1.15087z"/>
  <path fill="#2f3134" d="M252.17001 102.61908c0-18.6057 9.01513-32.86368 16.49578-32.86368 7.48064 0 10.54962 14.25798 10.54962 32.86368 0 18.60571-3.06898 32.86368-10.54962 32.86368-7.41671 0-16.49578-14.25797-16.49578-32.86368z"/>
  <path fill="#c5baba" d="M255.68655 121.73628c2.81324-.0639 5.17891-3.32473 5.17891-7.35277V90.85465c0-4.02804-2.36567-7.28883-5.17891-7.35277l.25575-.63937c3.13292.0639 5.56253 3.64442 5.56253 7.99214v23.52886c0 4.34773-2.49355 7.92821-5.62647 7.99214l-.19181-.63937z"/>
  <path fill="#c5baba" d="M257.79648 93.54001c.51149 0 .95905.19181 1.27874.5115.31968.31968.5115.76724.5115 1.2148v2.49355h-.70331v-2.30174c0-.38362-.12788-.63937-.31969-.83118-.19181-.19181-.44756-.31968-.76724-.31968-.31969 0-.57544.12787-.76725.31968-.19181.19181-.31968.5115-.31968.83118v.38363c0 .31968-.0639.57543-.25575.70331-.19181.19181-.38363.25574-.63937.25574-.25575 0-.44756-.0639-.63938-.25574-.19181-.19182-.25574-.38363-.25574-.70331v-2.30174h.76724v2.30174c0 .12787.0639.19181.12788.19181.0639 0 .12787-.0639.12787-.19181v-.57544c0-.44756.19181-.83118.5115-1.2148.38362-.38362.83118-.5115 1.34268-.5115zm0 .95906c.25575 0 .44756.0639.63937.25575.19181.19181.25575.38362.25575.7033v2.30174h-.76725v-2.30174c0-.12787-.0639-.19181-.12787-.19181-.0639 0-.12788.0639-.12788.19181v.57544c0 .44756-.19181.83118-.51149 1.2148-.38363.38363-.76725.5115-1.27875.5115-.51149 0-.95905-.19181-1.27874-.5115-.38362-.38362-.5115-.76724-.5115-1.2148v-2.49355h.76725v2.30174c0 .38362.12787.63937.31968.83118.19182.19181.44756.31969.76725.31969s.57543-.12788.76725-.31969c.19181-.19181.31968-.5115.31968-.83118v-.38363c0-.31968.0639-.57543.25575-.7033.0639-.19182.25575-.25575.5115-.25575zm.0639 3.64441c1.15087 0 1.72631.57544 1.72631 1.72631v2.30173h-.70331v-2.30173c0-.63938-.31969-.95906-.95906-.95906h-2.10992c-.63938 0-.95906.31968-.95906.95906v2.30173h-.76725v-2.30173c0-1.15087.57544-1.72631 1.72631-1.72631h2.04598zm-.95905 1.023h.95905c.5115 0 .76725.25575.76725.76724v2.30174h-.76725v-2.10993c0-.12787-.0639-.19181-.19181-.19181v1.72631h-.76724v-2.49355zm-.19181 0v2.49355h-.76725v-1.72631c-.12787 0-.19181.0639-.19181.19181v2.10993h-.76725v-2.30174c0-.51149.25575-.76724.76725-.76724h.95906zm1.15086 3.4526c1.15087 0 1.72631.57544 1.72631 1.7263v2.30174h-.70331v-2.30174c0-.63937-.31969-.95905-.95906-.95905h-2.10992c-.63938 0-.95906.31968-.95906.95905v1.5345h2.10992v-1.34268h.76725v2.10992h-3.70835v-2.30174c0-1.15086.57543-1.7263 1.7263-1.7263h2.10992zm0 .95906c.5115 0 .76725.25575.76725.76724v2.30174h-.76725v-2.10992c0-.12788-.0639-.19182-.19181-.19182h-1.7263c-.12787 0-.19181.0639-.19181.19182v.38362h.19181v-.38362h.76725v1.15086h-1.72631v-1.34268c0-.51149.25575-.76724.76725-.76724h2.10992zm-3.06898 5.81828v2.30173l3.9641-1.53449c.0639-.0639.12788-.12787.12788-.25575 0-.12787-.0639-.19181-.12788-.25574l-4.73134-1.72631v-.76724l4.98709 1.79024c.44756.19181.63937.51149.63937.95905 0 .5115-.19181.83119-.63937.95906l-4.98709 1.85418v-3.32473h.76724zm.19181 0h.44756l-1.40661-.57544v-.76724l4.53953 1.66236c.0639 0 .12788.0639.12788.12788 0 .0639-.0639.12787-.12788.12787l-3.58048 1.34268v-1.91811zm1.66237.44756l-.89512-.38363v.70331l.89512-.31968z"/>
  <path fill="#f2ba5c" d="M264.31806 88.68079v34.84573h2.94111l1.66237-1.98205V83.88551m6.2019 6.39371h-1.21481c-.25575 0-.38362-.12788-.51149-.44756-.12788-.31969-.12788-.70331-.12788-1.21481 0-.51149.0639-.95905.12788-1.27874.12787-.31969.25574-.5115.51149-.5115h1.27874v1.34268h-1.2148c-.0639 0-.12787.0639-.19181.12788-.0639.0639-.0639.19181-.0639.38362 0 .12787 0 .25575.0639.38362 0 .12788.0639.12788.12787.19181h1.27874v1.023zm-1.21481 1.7263h-.70331v-1.15087h1.85418v1.59843c0 .38362 0 .70331-.0639.89512-.0639.19181-.12787.38362-.19181.5115-.0639.12787-.19181.19181-.31968.19181-.19181 0-.31969-.12788-.44756-.38362-.12788-.25575-.19181-.57544-.19181-1.023v-.63937zm.38363 0v.38362c0 .31969.0639.5115.19181.5115.12787 0 .19181-.12787.19181-.44756v-.44756h-.38362zm-.63938 5.17891h-.44756v-2.81324h1.85418v2.81324h-.44756v-1.72631h-.25575v1.34268h-.44756v-1.34268h-.31968v1.72631zm-.44756 3.4526v-1.27874l.70331-.5115v-.38362h-.70331V97.3123h1.85418v1.91811c0 .44756-.0639.76725-.12787.95906-.12788.25575-.25575.38362-.38363.38362-.12787 0-.19181-.0639-.25574-.12787-.0639-.0639-.12788-.25575-.19182-.5115l-.89512.70331zm1.15087-2.10992v.51149c0 .12788 0 .25575.0639.31969 0 .0639.0639.12787.12787.12787.12788 0 .19181-.12787.19181-.44756v-.51149h-.38362zm-1.15087-13.74649c0-.31968 0-.57543.0639-.76724.0639-.19181.0639-.38362.12788-.57543.0639-.12788.12787-.25575.19181-.31969.0639-.0639.19181-.12787.25575-.12787v.76724c-.0639 0-.12788.0639-.19182.12788-.0639.0639-.0639.12787-.12787.25574 0 .0639-.0639.19181-.0639.31969v.70331c0 .12787 0 .19181.0639.25575 0 .0639.0639.12787.0639.19181 0 .0639.0639.0639.12787.0639.0639 0 .0639 0 .12788-.0639 0-.0639.0639-.12788.0639-.19181 0-.0639.0639-.19182.0639-.31969 0-.12787.0639-.31969.0639-.5115 0-.25575.0639-.44756.0639-.63937 0-.19181.0639-.31968.12788-.44756.0639-.12787.0639-.19181.12787-.25575.0639-.0639.12788-.0639.19181-.0639.0639 0 .12788.0639.19181.12787.0639.0639.12788.19181.19182.31969.0639.12787.0639.31968.12787.44756 0 .19181.0639.38362.0639.63937s0 .44756-.0639.63937c-.0639.19181-.0639.38362-.12787.5115-.0639.12787-.12788.25574-.19182.31968-.0639.0639-.19181.12788-.25574.12788v-.76725c.19181-.0639.31968-.31969.31968-.83118 0-.25575 0-.44756-.0639-.57544-.0639-.12787-.0639-.19181-.12787-.19181 0 0-.0639 0-.0639.0639 0 0-.0639.0639-.0639.12787 0 .0639-.0639.12788-.0639.25575 0 .12788 0 .19181-.0639.38362 0 .12788 0 .25575-.0639.38363 0 .12787 0 .25575-.0639.38362 0 .12787-.0639.25575-.0639.31969 0 .12787-.0639.19181-.12787.31968-.0639.0639-.0639.12788-.12788.19181-.0639.0639-.12787.0639-.19181.0639-.0639 0-.19181-.0639-.25575-.12787-.0639-.0639-.12787-.19182-.19181-.31969-.0639-.12787-.0639-.31969-.12787-.5115.0639-.25575.0639-.51149.0639-.70331z"/>
  <path fill="#f2ba5c" d="M265.08531 93.54001h1.40662l.0639.19181c.76725 2.17386 2.7493 5.62647 3.32473 5.75434.0639 0 .19181 0 .25575-.0639.19181-.12788.31969-.44756.31969-.70331 0-.38362-.25575-.70331-.57544-.76725h-.19181v-4.4756l.38362.12788c1.66237.44756 2.7493 2.49355 2.7493 5.30678 0 3.13292-1.15087 5.30678-2.7493 5.30678-1.15086 0-2.10992-1.15087-2.81323-3.51654v3.32473h-2.2378V93.54004z"/>
  <path fill="#2f3134" d="M269.88059 99.80585c.5115.12787.95906-.44756.95906-1.08693 0-.5115-.31969-.95906-.76725-1.023V93.8597c1.40662.38362 2.49355 2.2378 2.49355 5.05103s-.95905 5.05103-2.42961 5.05103c-1.27874 0-2.17386-1.85417-2.74929-4.09197h-.38363v3.90016h-1.59843v-9.84632h.89512c.70331 1.66237 2.68536 5.62647 3.58048 5.88222z"/>
  <path fill="#f2ba5c" d="M264.76562 87.84961c0-1.34268.19181-3.83623 1.27875-4.92316.38362-.38362.83118-.57544 1.34268-.57544h.31968v4.41167l-.25575.0639c-.25575.0639-.51149.44756-.51149.95906 0 .63937.25574 1.15087.51149 1.15087s.5115-.44756.5115-1.15087v-.25575l-.0639-.31968h1.98205l-.0639.44756v.12787c0 .5115.25574.89512.44756.89512.19181 0 .44756-.38362.44756-.89512 0-.44756-.19182-.83118-.44756-.89512l-.25575-.0639v-4.02804h.31968c.63937 0 1.34268.57544 1.72631 1.53449.38362.89512.63937 2.10993.63937 3.64442 0 2.55749-.70331 5.11497-2.04599 5.11497-.57544 0-1.15087-.5115-1.53449-1.27874-.38362 1.15087-1.21481 1.59843-1.85418 1.59843-1.34268-.0639-2.49355-2.42961-2.49355-5.56253z"/>
  <path fill="#2f3134" d="M267.38705 82.6707v3.83623c-.44756.0639-.76725.63937-.76725 1.27874 0 .76725.38362 1.40662.83118 1.40662s.83119-.63937.83119-1.40662v-.25575h1.34267v.25575c0 .63937.31969 1.2148.76725 1.2148s.76725-.51149.76725-1.2148c0-.57543-.31969-1.08693-.70331-1.15087v-3.51654c.44756 0 1.08693.5115 1.47055 1.34268.44756.89512.57544 2.17386.57544 3.51654 0 2.68536-.76725 4.79529-1.79024 4.79529-.57544 0-1.15087-.76725-1.47056-2.04599h-.31968c-.19181 1.59843-.83119 2.30173-1.59843 2.30173-1.27874 0-2.30174-2.30173-2.30174-5.1789.0639-2.81324.76725-5.17891 2.36568-5.17891"/>
  <path fill="#f2ba5c" d="M264.57381 122.88715v-11.63656l.0639-.0639 10.61356-10.93325v11.95624l-10.42175 10.74144-.12787-.12788h-.12788zm.31969-11.50868v11.06112l10.10206-10.35781v-11.06113l-10.10206 10.35782z"/>
  <path fill="#f2ba5c" d="M264.70169 122.88715v-11.57262l10.42175-10.6775v11.50868h-.0639l-10.35781 10.74144"/>
  <path fill="#2f3134" d="M264.70169 122.88715v-11.57262l10.42175-10.6775v11.50868l-10.42175 10.74144"/>
  <path fill="#f2ba5c" d="M272.69383 112.40146l1.40661 1.53449v6.45765l-4.41166-4.73134-4.60347 5.05103v-6.52159l1.59843-1.7263-1.59843-1.66237v-6.52158l4.60347 4.85922 4.41166-4.85922v6.52158"/>
  <path fill="#2f3134" d="M269.68878 109.58823l4.15592-4.53954v5.62647l-1.5345 1.7263 1.5345 1.66237v5.56253l-4.15592-4.41166-4.28379 4.66741v-5.62647l1.66237-1.85418-1.66237-1.79024v-5.56253l4.28379 4.53954z"/>
  <g transform="matrix(0.63937125,0,0,0.63937125,-0.061948,0)">
    <path fill="#312f2f" d="M22.9 0h9.4v1.8H298V0h9.3c20.7.8 22.8 18.8 22.8 18.8V284s.6 5.3-1.9 7.9c-4.8 5-21.5 21.5-25.2 25.3H24.2s-19.7-19-21.7-19.9c-1.4-1.9-2.4-5-2.4-12.7V18.8C0 18.8 2.2.9 22.9 0z"/>
    <path fill="#3f3f3f" d="M303.2 316.5c-.1.3-.1.5-.2.6H26s-7.6-127.7 38.7-134c8.5-1 19.2 1.2 43.4 7s88.7 5.8 112.9 0c24.2-5.8 34.8-7 43.4-7 16 0 25.9 15.6 31.9 36.2 10.7 37.1 8.7 90.3 6.9 97.2z"/>
    <path fill="#181515" d="M165.1 198.9c-32.7 0-39.2-1.6-44.8-2.4-5.6-.7-3.9 4.3-3.9 4.3s2.8 18.8 3.2 26c.4 7.2 8.1 6.2 8.1 6.2h74.9s7.7 1 8.1-6.2c.4-7.2 3.2-26 3.2-26s1.7-5.1-3.9-4.3c-5.6.8-12.2 2.4-44.9 2.4z"/>
    <ellipse cx="165.10001" cy="98" fill="#30302f" rx="140.7" ry="80.800003"/>
    <ellipse cx="165.10001" cy="97.900002" fill="#181515" rx="139.2" ry="79.300003"/>
    <ellipse cx="165.10001" cy="96" fill="#2c2929" rx="114.4" ry="64.300003"/>
    <path fill="#241c1e" d="M157.9 129.8h14.4l-7.3-7.4"/>
    <g fill="#929397">
      <path d="M187.1 221h-7v-1.6h4.8c-.3-1.1-.6-1.9-.9-2.8-.7-2.1-1.3-4.3-2.1-6.4-.2-.5-.7-1.2-1.1-1.3-.8-.2-1 .6-1.2 1.3-1.1 3.3-2.2 6.6-3.2 9.9-.2.8-.6 1-1.4 1-2.1-.1-4.3 0-6.5 0s-3.6-1.4-3.7-3.7v-6.1c.1-2.3 1.4-3.7 3.6-3.7h5.9v1.7h-5c-2.3 0-2.9.6-2.9 3v4.6c0 1.6.8 2.4 2.3 2.5h3.8v-5.3h-3.2v-1.7h5v7h.3c1.1-3.2 2.1-6.5 3.2-9.7.6-1.9 1.7-2.6 3.5-2.3 1 .2 1.7.7 2 1.7 1.3 3.9 2.5 7.8 3.8 11.7v.2zm-43.9 0v-1.7h5.5c1.5 0 2.7-1.1 2.7-2.6.1-1.4-1.1-2.6-2.6-2.7H147c-.9-.1-1.6-1-1.6-2s.7-2 1.6-2c2-.1 4 0 6.1 0v1.7h-5.8v.6c.6 0 1.1.1 1.7.1 2.1 0 3.6 1.3 4.2 3.4.6 2.6-1.2 5.3-3.7 5.4-2.2-.1-4.2-.2-6.3-.2z"/>
      <path d="M143.2 218.7v-1.8h5.9v-.5c-.6 0-1.2-.1-1.8-.1-1.7 0-3-.8-3.7-2.4-.8-1.6-.6-3.2.4-4.6.7-1 1.6-1.7 2.8-1.7 2.1-.1 4.2 0 6.3 0v1.7h-5.6c-1.9 0-3.1 1.8-2.5 3.5.3 1 1.3 1.8 2.5 1.8h1.7c.9.1 1.6 1 1.7 2 0 1-.7 2-1.6 2-2 .1-4 .1-6.1.1zm20.7-11.1v1.7h-5.5c-1.9 0-2.6.7-2.6 2.7v4.8c0 1.9.7 2.6 2.5 2.6h5.6v1.7h-6.7c-1.6-.1-3-1.6-3-3.2-.1-2.3-.1-4.7 0-7.1 0-1.5 1.3-3.1 2.7-3.1 2.4-.2 4.7-.1 7-.1zm12.6 13.4c1.2-3.7 2.3-7.3 3.5-10.8.1-.3.3-.5.6-.6.1 0 .5.2.6.4 1 2.9 1.9 5.8 2.9 8.7h-4c0-.4-.1-.8-.1-1.2-.1 0-.1 0-.2-.1-.2.7-.5 1.3-.7 2-.6 1.8-.6 1.8-2.6 1.6zm3.5-4.3h1.4c-.2-.7-.4-1.3-.6-1.8h-.2c-.2.6-.4 1.1-.6 1.8zm-9.4-.2c-.5-.2-.8-.2-1.2-.3v-1.5h2.6v4c-1.3 0-2.7.1-4-.1-.3 0-.9-.7-.9-1.1-.1-2.1-.1-4.3 0-6.4 0-.7.4-1.2 1.2-1.2h6v1.7h-4.4c-.9 0-1.2.3-1.2 1.2.1 1 0 2 0 3 .1 1.2.6 1.5 1.9.7z"/>
      <path d="M158.2 216.8c1.8.3 3.7 0 5.6.2v1.6c-2.2 0-4.3.1-6.4-.1-.3 0-.8-.7-.9-1.2-.1-.9 0-1.8 0-2.7h6.1v1.6h-4.2c-.1.3-.1.4-.2.6zm5.7-6.9v1.6c-1.9.3-3.8-.2-5.7.2v.4h4.3v1.7h-6c0-1-.1-2 0-3 0-.4.6-.9.9-.9h6.5z"/>
    </g>
    <path fill="#241c1e" d="M141.1 134l-1.2.1c0-.8-.3-1.3-.8-1.3-.6 0-.9.6-.9 1.9 0 .7.1 1.3.3 1.5.2.3.4.4.7.4.5 0 .8-.4.9-1.1l1.1.1c-.1.7-.3 1.3-.7 1.6-.4.3-.8.6-1.4.6-.7 0-1.2-.3-1.6-.8-.4-.5-.6-1.3-.6-2.3 0-.9.2-1.6.6-2.2.4-.6 1-.9 1.6-.9 1.2.1 1.9.9 2 2.4zm2.7-2.2l1.6 5.9h-1.3l-.3-1.2h-1.6l-.3 1.2h-1l1.6-5.9h1.3zm-1.3 3.6h1.1l-.5-2.1-.6 2.1zm4.4 0v2.4h-1.2v-5.9h2.2c.4 0 .7.1 1 .2.2.1.5.3.6.6.2.3.2.6.2 1 0 .7-.3 1.2-.9 1.5l.9 2.6h-1.3l-.8-2.4h-.7zm0-2.6v1.5h.7c.2 0 .4 0 .5-.1.1-.1.2-.1.3-.3.1-.1.1-.3.1-.5s0-.3-.1-.4c-.1-.1-.2-.2-.3-.2h-1.2zm6.7-1v1.2h-1.2v4.8h-1.2V133h-1.3v-1.2h3.7zm1.6 3.6v2.4H154v-5.9h2.2c.4 0 .7.1 1 .2.2.1.5.3.6.6.2.3.2.6.2 1 0 .7-.3 1.2-.9 1.5l.9 2.6h-1.3l-.8-2.4h-.7zm0-2.6v1.5h.7c.2 0 .4 0 .5-.1.1 0 .2-.1.3-.3.1-.1.1-.3.1-.5s0-.3-.1-.4c-.1-.1-.2-.2-.3-.2h-1.2zm4.3-1v5.9h-1.2v-5.9h1.2zm.4 0h1.5c.6 0 1.1.1 1.4.3.3.2.6.5.8 1 .2.4.4 1 .4 1.7 0 .9-.2 1.6-.6 2.1-.4.6-1 .9-1.8.9h-1.7v-6zm1.2 1.1v3.7h.5c.4 0 .7-.2 1-.6.2-.4.3-.8.3-1.3 0-.4-.1-.7-.2-1-.1-.3-.3-.5-.4-.6-.2-.1-.4-.2-.6-.2h-.6zm7.3 1.6s0 1.9-.7 2.6c-.7.7-.8.7-1.4.7-.7 0-1.2-.3-1.5-.8-.4-.6-.5-1.3-.5-2.2 0-.9.2-1.7.6-2.3.4-.6.9-.9 1.6-.9.6 0 1 .2 1.4.6.3.4.6.9.6 1.5l-1.1.2c-.1-.7-.4-1.1-.9-1.1-.3 0-.6.2-.7.5-.1.3-.2.8-.2 1.5 0 .6.1 1.1.3 1.4.2.3.4.5.8.5.2 0 .4-.1.6-.2.2-.1.2-.4.2-.8h-.9v-1.1h1.8zm3.8-1.6h-2.4v1.2h1.9v1.1h-1.9v1.3h2.4v1.2h-3.6v-5.9h3.6v1.1zm4.7-1.1v5.9h-1.2v-5.9h1.2zm4.1 0v5.9h-1l-2-4v4.1h-.9v-5.9h1.3l1.7 3.5v-3.5h.9zm1.5 3.7v2.2h-1.2v-5.9h2c.4 0 .8.1 1 .2.2.1.4.3.6.6.2.3.3.6.3 1.1 0 .3 0 .6-.1.9-.1.3-.2.5-.4.7-.2.2-.4.3-.5.3-.2.1-.4.1-.8.1h-.9zm-.1-1.1h.8c.3 0 .5-.1.6-.2.1-.2.2-.3.2-.5s-.1-.4-.2-.6c-.1-.2-.3-.2-.6-.2h-.8v1.5zm7-2.6v3.7c0 .6-.1 1-.2 1.3-.1.3-.3.5-.6.7-.3.2-.7.3-1.2.3s-.9-.1-1.2-.3c-.3-.2-.5-.4-.6-.7-.1-.3-.2-.8-.2-1.4v-3.7h1.3v3.7c0 .3 0 .6.1.7.1.1.1.3.3.4.1.1.3.1.5.1s.4 0 .5-.1l.3-.3c.1-.1.1-.4.1-.7v-3.7h.9zm4 0v1.2h-1.2v4.8H191V133h-1.3v-1.2h3.7z"/>
    <path fill="#181515" d="M250.6 113.1h-171c-10.2 0-18.6-8.3-18.6-18.6 0-10.2 8.3-18.6 18.6-18.6h171c10.2 0 18.6 8.3 18.6 18.6 0 10.2-8.4 18.6-18.6 18.6z"/>
    <path d="M73.400002 82H256.9v26.1H73.400002z"/>
    <path fill="#732a46" d="M74.300003 82.900002H256V107.1H74.300003z"/>
    <path fill="#010102" d="M73.400002 94.599998H256.9v.9H73.400002z"/>
    <path fill="#181515" d="M40.3 203.7c5.7-11.3 14.8-17 25.5-18.5 8.5-1 21 3.6 45.2 9.4 12.2 2.9 31.4 4.3 53.7 4.3 22.3 0 41.5-1.4 53.7-4.3 24.2-5.8 36.7-10.4 45.2-9.4 10.7 1.4 20.8 6.8 26.5 18.1-6-12.2-14.4-20.3-25.9-20.3-8.6 0-19.2 1.2-43.4 7-12 2.9-34 4.3-56.1 4.3-22.3 0-44.7-1.4-56.8-4.3-24.2-5.8-34.9-8-43.4-7-10.8 1.5-18.5 9.4-24.2 20.7z"/>
    <path fill="#3f4040" d="M264.7 256.3c0 12.2-14.1 14.3-14.1 14.3H79.4c-2.5 0-14.1-2.1-14.1-14.3 0-12.2 14.1-14.3 14.1-14.3h171.2c.1 0 14.1 2.1 14.1 14.3z"/>
    <path fill="#333" d="M252.8 267.3h-175c-4.8 0-8.8-3.9-8.8-8.8v-4.3c0-4.8 3.9-8.8 8.8-8.8h174.9c4.8 0 8.8 3.9 8.8 8.8v4.3c0 4.9-3.9 8.8-8.7 8.8z"/>
    <path fill="#212020" d="M249.4 263.9h-29.1c-4.2 0-7.6-3.4-7.6-7.6 0-4.2 3.4-7.6 7.6-7.6h29.1c4.2 0 7.6 3.4 7.6 7.6 0 4.2-3.4 7.6-7.6 7.6z"/>
    <path fill="#6177b3" d="M249.4 261h-29.1c-2.5 0-4.6-2.1-4.6-4.6v-.2c0-2.5 2.1-4.6 4.6-4.6h29.1c2.5 0 4.6 2.1 4.6 4.6v.2c-.1 2.5-2.1 4.6-4.6 4.6z"/>
    <circle cx="222.10001" cy="256.39999" r=".89999998" fill="#45537c"/>
    <circle cx="228.39999" cy="256.39999" r=".89999998" fill="#45537c"/>
    <circle cx="234.8" cy="256.39999" r=".89999998" fill="#45537c"/>
    <circle cx="241.2" cy="256.39999" r=".89999998" fill="#45537c"/>
    <circle cx="247.60001" cy="256.39999" r=".89999998" fill="#45537c"/>
    <path fill="#212020" d="M110 263.9H81c-4.2 0-7.6-3.4-7.6-7.6 0-4.2 3.4-7.6 7.6-7.6h29c4.2 0 7.6 3.4 7.6 7.6.1 4.2-3.4 7.6-7.6 7.6z"/>
    <path fill="#cbcfd8" d="M110.1 261H80.9c-2.5 0-4.6-2.1-4.6-4.6v-.2c0-2.5 2.1-4.6 4.6-4.6H110c2.5 0 4.6 2.1 4.6 4.6v.2c0 2.5-2 4.6-4.5 4.6z"/>
    <path fill="#7d8189" d="M98.1 251.7c-1.8 0-3.3 2.1-3.3 4.6 0 2.6 1.5 4.6 3.3 4.6H87.5c1.8 0 3.3-2.1 3.3-4.6 0-2.6-1.5-4.6-3.3-4.6h10.6z"/>
    <path fill="#6b6d72" d="M92.199997 251.7h1v9.3h-1z"/>
    <path fill="#929397" d="M87.5 251.7h-7.4c-1.8 0-3.3 2.1-3.3 4.6 0 2.6 1.5 4.6 3.3 4.6h7.4c1.8 0 3.3-2.1 3.3-4.6 0-2.5-1.5-4.6-3.3-4.6zm18 0h-7.4c-1.8 0-3.3 2.1-3.3 4.6 0 2.6 1.5 4.6 3.3 4.6h7.4c1.8 0 3.3-2.1 3.3-4.6 0-2.5-1.5-4.6-3.3-4.6z"/>
    <path fill="#444546" d="M298 1.8v11.1s-.1 1.4-2 1.4H34.2c-1.9 0-2-1.4-2-1.4V1.8l132.9.1L298 1.8z"/>
    <path fill="#282424" d="M33.400002 0h2.4v12.6h-2.4zm3.699996 0h2.4v12.6h-2.4zm3.700001 0h2.4v12.6h-2.4zM44.5 0h2.4v12.6h-2.4zm3.700001 0h2.4v12.6h-2.4zm3.700001 0h2.4v12.6h-2.4zm3.699996 0h2.4v12.6h-2.4zm3.700001 0h2.4v12.6h-2.4zm3.799999 0h2.4v12.6h-2.4zm3.700005 0h2.4v12.6h-2.4zm3.799995 0h2.4v12.6h-2.4zm3.700005 0h2.4v12.6h-2.4zM78 0h2.4v12.6H78zm3.699997 0h2.4v12.6h-2.4zm3.700005 0h2.4v12.6h-2.4zm3.699996 0h2.4v12.6h-2.4zm3.800004 0h2.4v12.6h-2.4zm3.699996 0h2.4v12.6h-2.4zM100.4 0h2.4v12.6h-2.4zm3.7 0h2.4v12.6h-2.4zm3.6 0h2.4v12.6h-2.4zm3.7 0h2.4v12.6h-2.4zm3.8 0h2.4v12.6h-2.4zm3.7 0h2.4v12.6h-2.4zm3.7 0h2.4v12.6h-2.4zm3.7 0h2.4v12.6h-2.4zm3.80001 0h2.4v12.6h-2.4zM133.8 0h2.4v12.6h-2.4zm3.7 0h2.4v12.6h-2.4zm3.7 0h2.4v12.6h-2.4zm3.69999 0h2.4v12.6h-2.4zm3.70002 0h2.4v12.6h-2.4zm4 0h2.4v12.6h-2.4zm3.79998 0h2.4v12.6h-2.4zm3.70002 0h2.4v12.6h-2.4zM163.7 0h2.4v12.6h-2.4zm3.69999 0h2.4v12.6h-2.4zM171.2 0h2.4v12.6h-2.4zm3.69999 0h2.4v12.6h-2.4zm3.70002 0h2.4v12.6h-2.4zm3.79998 0h2.4v12.6h-2.4zm3.70002 0h2.4v12.6h-2.4zM189.8 0h2.4v12.6h-2.4zm3.7 0h2.4v12.6h-2.4zm3.7 0h2.4v12.6h-2.4zm3.69999 0h2.4v12.6h-2.4zm3.70002 0h2.4v12.6h-2.4zM208.7 0h2.4v12.6h-2.4zm3.8 0h2.4v12.6h-2.4zm3.7 0h2.4v12.6h-2.4zm3.6 0h2.4v12.6h-2.4zm3.7 0h2.4v12.6h-2.4zm3.8 0h2.4v12.6h-2.4zm3.7 0h2.4v12.6H231zm3.8 0h2.4v12.6h-2.4zm3.7 0h2.4v12.6h-2.4zm3.7 0h2.4v12.6h-2.4zm3.69999 0h2.4v12.6h-2.4zm3.70002 0h2.4v12.6h-2.4zM253.3 0h2.4v12.6h-2.4zm3.7 0h2.4v12.6H257zm3.79999 0h2.4v12.6h-2.4zm3.90002 0h2.4v12.6h-2.4zm3.69998 0h2.4v12.6h-2.4zm3.70002 0h2.4v12.6h-2.4zm3.69998 0h2.4v12.6h-2.4zM279.5 0h2.4v12.6h-2.4zm3.79999 0h2.4v12.6h-2.4zM287 0h2.4v12.6H287zm3.70001 0h2.4v12.6h-2.4zm3.69998 0h2.4v12.6h-2.4z"/>
    <path fill="#82888b" d="M229.7 276.7h-.7l-.3-.9c0-.1-.1-.1-.1-.2s-.1-.1-.1-.1c-.1 0-.1-.1-.2-.1h-.9v1.4h-.6v-3.4h2c.1 0 .1 0 .2.1.1 0 .1.1.2.1s.1.1.1.2.1.1.1.2 0 .1.1.2v.2c0 .2-.1.4-.2.5-.1.1-.2.3-.4.3.1.1.3.3.4.5l.4 1zm-2.3-2h1.2c.1 0 .1 0 .2-.1.1 0 .1-.1.1-.1v-.2c0-.2 0-.3-.1-.3-.1-.1-.2-.1-.4-.1h-.9v.8zm5.5 2h-2.6v-3.4h2.5v.6h-1.9v.8h1.8v.6h-1.8v.9h2v.5zm2 .1c-.2 0-.5 0-.6-.1-.2-.1-.3-.2-.5-.3-.1-.1-.2-.3-.3-.4-.1-.2-.1-.3-.1-.5h.6c0 .1 0 .2.1.3 0 .1.1.2.2.2.1.1.2.1.3.1h.6c.1 0 .2-.1.2-.1.1 0 .1-.1.1-.1v-.4s-.1-.1-.2-.1-.2-.1-.3-.1c-.1 0-.3-.1-.4-.1-.2 0-.4-.1-.5-.2-.1-.1-.3-.1-.3-.2-.1-.1-.2-.2-.2-.3 0-.1-.1-.2-.1-.4 0-.1 0-.3.1-.4.1-.1.1-.2.3-.3.1-.1.2-.2.4-.2.2-.1.3-.1.5-.1s.4 0 .5.1c.2.1.3.1.4.2.1.1.2.2.3.4.1.1.1.3.1.5h-.6c0-.4-.3-.6-.7-.6-.2 0-.4 0-.5.1-.1.1-.2.2-.2.3v.1l.1.1c.1 0 .1.1.2.1s.2.1.3.1c.1 0 .2 0 .3.1.1 0 .2.1.3.1.1 0 .2.1.3.1.1.1.2.1.2.2.1.1.1.2.2.3 0 .1.1.2.1.4s0 .3-.1.4l-.3.3c-.1.1-.3.2-.4.2 0 .1-.2.2-.4.2zm4.6-.1h-2.6v-3.4h2.5v.6h-1.9v.8h1.8v.6h-1.8v.9h2v.5zm3.2-2.8h-1.1v2.8h-.6v-2.8h-1.1v-.6h2.8v.6zM85 273.1h1.8c.1 0 .2 0 .3.1.1 0 .2.1.3.1.1.1.2.1.2.2.1.1.1.2.2.3 0 .1.1.2.1.4 0 .4-.1.7-.4.9-.2.2-.6.3-1.1.3h-.8v1.4H85v-3.7zm.7 1.6h1.1c.1 0 .2-.1.2-.1.1 0 .1-.1.1-.2v-.2c0-.1 0-.2-.1-.3 0-.1-.1-.1-.2-.2-.1 0-.1-.1-.2-.1h-1v1.1zm4.4-1.7c.3 0 .5 0 .7.1.2.1.4.2.6.4.2.2.3.4.4.6.1.2.1.5.1.8 0 .3 0 .5-.1.8-.1.2-.2.4-.4.6-.2.2-.3.3-.6.4-.3.1-.5.1-.7.1-.3 0-.5 0-.7-.1-.2-.1-.4-.2-.6-.4-.2-.2-.3-.4-.4-.6-.1-.2-.1-.5-.1-.8 0-.3 0-.5.1-.8.1-.2.2-.4.4-.6.2-.2.3-.3.6-.4.2 0 .4-.1.7-.1zm0 3.2c.2 0 .3 0 .4-.1.1-.1.2-.1.3-.3.1-.1.2-.2.2-.4.1-.2.1-.3.1-.5s0-.4-.1-.5c-.1-.2-.1-.3-.2-.4-.1-.1-.2-.2-.3-.2-.1-.1-.3-.1-.4-.1-.2 0-.3 0-.4.1-.1.1-.2.1-.3.3-.1.1-.2.2-.2.4-.1.2-.1.3-.1.5s0 .4.1.5c.1.1.1.3.2.4l.3.3h.4zm6.9-3.1l-1 3.7h-.6l-.7-2.7-.7 2.7h-.6l-1-3.7h.6l.6 2.5.7-2.5h.7l.7 2.5.6-2.5h.7zm3.3 3.6h-2.8V273h2.7v.6h-2v.8h1.9v.6h-1.9v.9h2.1v.8zm3.9 0h-.7l-.3-1c0-.1-.1-.1-.1-.2s-.1-.1-.1-.1c-.1 0-.1-.1-.2-.1h-.9v1.5h-.9v-3.7h2.2c.1 0 .2 0 .2.1.1 0 .1.1.2.1l.2.2c0 .1.1.1.1.2s.1.1.1.2v.2c0 .2-.1.4-.2.6-.1.2-.3.3-.4.4.2.1.3.3.4.6l.4 1zm-2.5-2.1h1.2c.1 0 .2 0 .2-.1.1 0 .1-.1.1-.2v-.2c0-.2-.1-.3-.2-.4-.1-.1-.3-.1-.5-.1h-1v1z"/>
    <path fill="#929397" d="M71.4 295v-1.8c1.8-.4 3-1 3.5-1.8h1.8v8.8h-2.3v-6.6c-1.4.7-2.3 1.1-3 1.4zm25.699998-3.39999h2.4v8.7h-2.4zM100.1 291.6h7.6v1.7h-2.5v6.9h-2.5v-6.9h-2.6m-12.1-.8c0-.5.4-.9.9-.9h3.9c.9 0 1.5.1 1.9.3.4.2.8.4 1.1.8.3.3.4.7.4 1.2 0 1-.6 1.6-1.9 1.9.7.1 1.3.4 1.6.8.4.4.5.8.5 1.3 0 .6-.3 1.2-.9 1.7-.6.5-1.5.7-2.9.7h-3.9c-.5 0-.9-.4-.9-.9v-6.9zm2.4 1.3c0 .2.4.3.9.3h.9c.7 0 1.1 0 1.3-.1.2-.1.3-.2.3-.2 0-.1-.1-.1-.2-.2s-.3-.1-.5-.1h-1.7c-.6 0-1 .1-1 .3zm.6 3.4h1.3c.6 0 1.1 0 1.3-.1.3-.1.4-.2.4-.3 0-.1-.1-.2-.4-.2-.3-.1-.7-.1-1.3-.1h-1c-.5 0-.9.1-.9.3v3.3h.6v-2.9zm-10.5-3.4h6.1v-2.4h-7c-1 0-1.8.8-1.8 1.8v5.3c0 1 .8 1.8 1.8 1.8h5.2c1 0 1.8-.8 1.8-1.8v-2.2c0-.9-.7-1.6-1.6-1.9h-3.9v2.1H84v.7h-3.5v-3.4zm128.6 4.9l4-6c.2-.3.4-.5.6-.5h2.8v.8l.2-.3c.2-.3.4-.5.6-.5h3.4v6.5h-2.3v-5.1l-3.4 5.1h-2.3l3.4-5.1H215c-.1 0-.3.1-.4.2l-3.2 5h-2.3v-.1zm14.5-2.6v1.2h5.3v1.4h-7.6v-4.3c0-.1 0-.2.1-.3l1-1.7c.1-.1.2-.2.4-.2h6v1.4h-4.5c-.1 0-.2.1-.3.2l-.5 1h5.3l-.8 1.4h-4.4zm8.3 1.2h3.8v-1.2h-1.5l.8-1.4h3v3.6c0 .2-.1.3-.4.3H230c-.3 0-.4-.1-.4-.3v-3.9c0-.1 0-.2.1-.3l1-1.7c.1-.1.2-.2.4-.2h6.4v1.4h-4.9c-.1 0-.2.1-.3.2l-.5 1v2.5zm16.3 1.4h-2.6l-1-1.4h-2.7l-.8-1.2v2.6h-2.3v-6.5h4.3c.2 0 .4.2.6.5l4.5 6zm-4.7-2.8l-1.7-2.2c-.1-.1-.3-.2-.4-.2h-.4v2.4h2.5zm36.6-5.5h-9.4c2.1-1.2 5-2.7 6.3-4.3 2.5-3.1-1.6-5.4-4.9-4.3-4.6 1.5-6.6 3.8-9.2 6.1h-5.5c3.9-7.5 8.8-11.5 16.2-13.5 8-2.2 11.7 3 10.2 9.1-.9 3.4-1.2 3.9-3.7 6.9zm-12.5 12.2c0-.2.2-.6.3-.9.2-.4.5-.7.7-.9h-9.5c-.7 1.3-1.4 2-1.9 4.4-.5 2.6 1 3.8 1.9 3.8h22.7l3.3-6.4h-17.5z"/>
    <path fill="#8c8e92" d="M251.9 297.5h2.4c.1 0 .2-.1.3-.2l.7-1.6v-.4l-.7-1.6c-.1-.1-.1-.2-.3-.2h-2.4v4zm-2.1-5.3h5.8c.2 0 .3.1.4.4l1.4 2.8v.4l-1.4 2.8c-.1.2-.3.4-.4.4h-5.8v-6.8zm8.4 0h5.6c.2 0 .3.1.4.4l.9 1.9v.4l-1.4 1.6 1.4 2.5H263l-2-3.3h1c.1 0 .2 0 .3-.1l.7-.8-.3-.9c-.1-.1-.1-.2-.3-.2h-2.2v5.3h-2.1v-6.8h.1zm9.8 6.7h-2.1v-6.7h2.1v6.7zm2.8-4.5l2.1 3.1 2.1-3.1v-2.2h2.1v2.5c0 .2 0 .4-.1.5l-2.4 3.7h-3.5l-2.4-3.7c-.1-.1-.1-.3-.1-.5v-2.5h2.1v2.2h.1zm9 1.8v1.2h4.9v1.4h-7v-4.4c0-.1 0-.2.1-.4l1-1.8c.1-.1.2-.2.3-.2h5.6v1.4h-4.2c-.1 0-.2.1-.3.2l-.4 1.1h4.9l-.7 1.4h-4.2v.1z"/>
    <path fill="#929397" d="M72.5 274.9c0-.4.1-.7.2-1 .1-.2.2-.4.4-.5.2-.1.3-.3.5-.4.2-.1.5-.2.9-.2.6 0 1.1.2 1.4.5.4.4.5.9.5 1.5s-.2 1.1-.5 1.5c-.3.4-.8.5-1.4.5-.6 0-1.1-.2-1.4-.5-.4-.2-.6-.7-.6-1.4zm.8 0c0 .4.1.8.3 1 .2.2.5.3.8.3.3 0 .6-.1.8-.3.2-.2.3-.6.3-1 0-.5-.1-.8-.3-1-.2-.2-.5-.3-.8-.3-.3 0-.6.1-.8.3-.2.2-.3.5-.3 1zm3.7 2v-4h.8l1.6 2.7v-2.7h.7v4h-.8l-1.6-2.6v2.6H77zm32.2-2c0-.4.1-.7.2-1 .1-.2.2-.4.4-.5.2-.1.3-.3.5-.4.2-.1.5-.2.9-.2.6 0 1.1.2 1.4.5.4.4.5.9.5 1.5s-.2 1.1-.5 1.5c-.3.4-.8.5-1.4.5-.6 0-1.1-.2-1.4-.5-.4-.3-.6-.8-.6-1.4zm.9 0c0 .4.1.8.3 1 .2.2.5.3.8.3.3 0 .6-.1.8-.3.2-.2.3-.6.3-1 0-.5-.1-.8-.3-1-.2-.2-.5-.3-.8-.3-.3 0-.6.1-.8.3-.2.2-.3.5-.3 1zm3.6 2v-4h2.7v.7h-1.9v.9h1.7v.7h-1.7v1.7h-.8zm3.4 0v-4h2.7v.7h-1.9v.9h1.7v.7h-1.7v1.7h-.8z"/>
    <path fill="#929397" d="M78.9 279.1H74c-2.1 0-3.8-1.7-3.8-3.8v-.9c0-2.1 1.7-3.8 3.8-3.8h4.9c2.1 0 3.8 1.7 3.8 3.8v.9c0 2.1-1.7 3.8-3.8 3.8zm-4.9-7.5c-1.6 0-2.8 1.3-2.8 2.8v.9c0 1.6 1.3 2.8 2.8 2.8h4.9c1.6 0 2.8-1.3 2.8-2.8v-.9c0-1.6-1.3-2.8-2.8-2.8H74zm44 7.5h-7c-2.1 0-3.8-1.7-3.8-3.8v-.9c0-2.1 1.7-3.8 3.8-3.8h7c2.1 0 3.8 1.7 3.8 3.8v.9c0 2.1-1.7 3.8-3.8 3.8zm-6.9-7.5c-1.6 0-2.8 1.3-2.8 2.8v.9c0 1.6 1.3 2.8 2.8 2.8h7c1.6 0 2.8-1.3 2.8-2.8v-.9c0-1.6-1.3-2.8-2.8-2.8h-7z"/>
  </g>
  <path fill="#171819" d="M105.49825 28.70777c10.42175 0 19.88444.25574 28.32414.63937 14.06617.63937 25.12729 1.59843 32.67187 2.42961 14.57767 1.53449 25.12729.31968 30.88163 14.96129 3.19686 8.12001 3.83623 34.27029 2.42961 38.36227-1.40661 4.09198-2.17386 7.2249-7.54458 9.07907-5.37071 1.91812-32.09643 8.56758-38.61802 11.76443-6.52159 3.2608-21.73862 9.4627-26.08635 10.86931l-4.34772 1.40662s-7.28883 2.68536-17.77452 2.68536c-10.48569 0-17.774523-2.68536-17.774523-2.68536l-4.347724-1.40662c-4.347725-1.40661-19.628697-7.60851-26.086347-10.86931-6.521587-3.26079-33.247305-9.84631-38.618024-11.76443-5.370718-1.91811-6.137964-5.05103-7.54458-9.07907-1.406617-4.02804-.767246-30.24226 2.42961-38.36227 5.754342-14.64161 16.303967-13.4268 30.881632-14.96129 7.544581-.76725 18.605703-1.79024 32.671871-2.42961 8.503637-.38363 18.030269-.63937 28.452025-.63937"/>
  <path fill="#171819" d="M105.56218 36.38022c28.38809-.31968 68.98816 1.66237 74.42282 5.75434 10.42175 5.81828 10.166 14.32192 10.74143 20.84351-.19181 3.32473-1.15087 9.39875-5.37072 15.08916-1.27874 1.79024-3.58047 3.83622-4.85922 4.92316-15.8564 11.18899-39.00164 30.498-74.93431 32.48005h-.0639c-35.932669-1.98205-59.013971-21.29106-74.934315-32.48005-1.278743-1.15087-3.580479-3.19686-4.859222-4.9871-4.21985-5.75434-5.11497-11.82837-5.370718-15.08916.575434-6.52159.319685-15.08916 10.6775-20.8435 5.498592-4.09198 46.03473-6.07403 74.422815-5.75435"/>
  <path fill="#282827" d="M105.69006 81.00833h-.19181l57.22372-1.2148c5.94615-.38362 10.42175-.76725 14.57767-6.39371 1.79024-2.36568 2.62142-5.30678 2.62142-8.24789V63.042c0-11.82837-6.01009-16.30396-16.04822-18.22208 0 0-23.91248-2.62142-58.37459-2.62142-34.462115 0-58.3746 2.55748-58.3746 2.55748-10.038128 1.91812-16.048218 6.39372-16.048218 18.22209v2.10992c0 2.94111.89512 5.88222 2.621422 8.24789 4.155913 5.62647 8.567575 5.94615 14.577664 6.39371l57.223732 1.21481h-.19182"/>
  <path fill="#1d1d1d" d="M105.37037 45.52323c30.62588 0 51.40545 2.55749 51.40545 2.55749 8.88726 1.47055 14.70554 4.28378 14.70554 13.23498v4.34772c0 5.11497-4.15591 9.27089-9.27088 9.27089h-56.84011.19181-56.776165c-5.11497 0-9.270883-4.15592-9.270883-9.27089V61.3157c0-8.9512 5.818279-11.76443 14.705539-13.23498 0 0 20.779566-2.55749 51.405449-2.55749"/>
  <path fill="#1b1c1c" d="M46.803966 53.32356H164.19253v19.30901H46.803966z"/>
  <path fill="#414446" d="M46.931839 53.51537H164.00072v19.05326H46.931839z"/>
  <path fill="#1b1d1e" d="M105.37037 72.5047h40.34433c8.4397 0 15.72853-5.56253 18.28601-7.67246V53.51537h-58.63034.25575-58.694281v11.38081c2.557485 2.10992 9.846317 7.67245 18.286018 7.67245h40.344323"/>
  <path fill="#46494b" d="M46.931839 57.67128h7.928203c.255749 0 .511497-.25574.511497-.51149v-3.64442h-8.4397v4.15591zm117.068871 0h-7.9282c-.25575 0-.5115-.25574-.5115-.51149v-3.64442h8.4397v4.15591z"/>
  <path fill="#45494a" d="M105.37037 54.92199h47.76103c.25575 0 .5115.25575.5115.51149v2.87718c0 .25574.19181.51149.5115.51149h7.35277v6.01009c-4.66741 3.83623-9.97419 6.77734-18.54177 6.77734H67.903216c-8.567575 0-13.874356-2.94111-18.541766-6.77734v-6.01009h7.352769c.255748 0 .511497-.25575.511497-.51149v-2.87718c0-.25574.255748-.51149.511497-.51149h47.633157z"/>
  <path d="M46.931839 62.97807H164.00072v.38362H46.931839z"/>
  <path fill="#1c1e1f" d="M72.6985 63.36169h65.34374v.76724H72.6985z"/>
  <path fill="#202223" d="M72.6985 64.12893h65.34374v.76725H72.6985z"/>
  <path fill="#242627" d="M72.6985 64.89618h65.34374v.76724H72.6985z"/>
  <path fill="#292c2d" d="M72.6985 65.66342h65.34374v.76725H72.6985z"/>
  <path fill="#2f3133" d="M72.6985 66.43067h65.34374v.76725H72.6985z"/>
  <path fill="#333637" d="M72.6985 67.19792h65.34374v.76724H72.6985z"/>
  <path fill="#373a3c" d="M72.6985 67.96516h65.34374v.76725H72.6985z"/>
  <path fill="#3b3e3f" d="M72.6985 68.73241h65.34374v.76724H72.6985z"/>
  <path fill="#3f4244" d="M72.6985 69.49965h65.34374v.76725H72.6985z"/>
  <path fill="#1b1d1e" d="M74.680551 63.36169H72.6985v6.90521s.511497-5.81828 1.982051-6.90521zm61.315699 0h1.98205v6.90521c.0639 0-.44756-5.81828-1.98205-6.90521z"/>
  <path fill="#1c1e1f" d="M72.6985 62.21082h65.34374v.76725H72.6985z"/>
  <path fill="#202223" d="M72.6985 61.44357h65.34374v.76725H72.6985z"/>
  <path fill="#242627" d="M72.6985 60.67633h65.34374v.76725H72.6985z"/>
  <path fill="#292c2d" d="M72.6985 59.90908h65.34374v.76725H72.6985z"/>
  <path fill="#2f3133" d="M72.6985 59.14184h65.34374v.76724H72.6985z"/>
  <path fill="#333637" d="M72.6985 58.37459h65.34374v.76725H72.6985z"/>
  <path fill="#373a3c" d="M72.6985 57.60735h65.34374v.76724H72.6985z"/>
  <path fill="#3b3e3f" d="M72.6985 56.8401h65.34374v.76725H72.6985z"/>
  <path fill="#3f4244" d="M72.6985 56.07285h65.34374v.76725H72.6985z"/>
  <path fill="#1b1d1e" d="M74.680551 62.97807H72.6985v-7.16096s.511497 6.07402 1.982051 7.16096zm61.315699 0h1.98205v-7.16096c.0639 0-.44756 6.07402-1.98205 7.16096z"/>
  <path fill="#0e1214" d="M59.079893 62.01901h.383622c0 .12787-.06394.31968-.191811.31968-.127874-.0639-.191811-.19181-.191811-.31968z"/>
  <path fill="#5e5e60" d="M59.079893 56.13679h.383622c0-.12787-.06394-.31968-.191811-.31968-.127874 0-.191811.12787-.191811.31968z"/>
  <path fill="#393d3f" d="M59.079893 56.13679h.383622v5.88222h-.383622z"/>
  <path fill="#0e1214" d="M62.596434 62.01901h.383623c0 .12787-.06394.31968-.191811.31968-.127874-.0639-.191812-.19181-.191812-.31968z"/>
  <path fill="#5e5e60" d="M62.596434 56.13679h.383623c0-.12787-.06394-.31968-.191811-.31968-.127874 0-.191812.12787-.191812.31968z"/>
  <path fill="#393d3f" d="M62.596434 56.13679h.383623v5.88222h-.383623z"/>
  <path fill="#0e1214" d="M62.596434 70.2669h.383623c0 .12787-.06394.31968-.191811.31968-.127874 0-.191812-.12787-.191812-.31968z"/>
  <path fill="#5e5e60" d="M62.596434 64.38468h.383623c0-.12787-.06394-.31968-.191811-.31968-.127874.0639-.191812.19181-.191812.31968z"/>
  <path fill="#393d3f" d="M62.596434 64.38468h.383623v5.88222h-.383623z"/>
  <path fill="#0e1214" d="M59.079893 69.17997h.383622c0 .12787-.06394.31968-.191811.31968-.127874-.0639-.191811-.19181-.191811-.31968z"/>
  <path fill="#5e5e60" d="M59.079893 64.38468h.383622c0-.12787-.06394-.31968-.191811-.31968-.127874.0639-.191811.19181-.191811.31968z"/>
  <path fill="#393d3f" d="M59.079893 64.38468h.383622v4.79529h-.383622z"/>
  <path fill="#0e1214" d="M151.66085 62.01901h-.38362c0 .12787.0639.31968.19181.31968.0639-.0639.19181-.19181.19181-.31968z"/>
  <path fill="#5e5e60" d="M151.66085 56.13679h-.38362c0-.12787.0639-.31968.19181-.31968.0639 0 .19181.12787.19181.31968z"/>
  <path fill="#393d3f" d="M151.27723 56.13679h.38362v5.88222h-.38362z"/>
  <path fill="#0e1214" d="M148.14431 62.01901h-.38363c0 .12787.0639.31968.19182.31968.0639-.0639.19181-.19181.19181-.31968z"/>
  <path fill="#5e5e60" d="M148.14431 56.13679h-.38363c0-.12787.0639-.31968.19182-.31968.0639 0 .19181.12787.19181.31968z"/>
  <path fill="#393d3f" d="M147.76068 56.13679h.38363v5.88222h-.38363z"/>
  <path fill="#0e1214" d="M148.14431 70.2669h-.38363c0 .12787.0639.31968.19182.31968.0639 0 .19181-.12787.19181-.31968z"/>
  <path fill="#5e5e60" d="M148.14431 64.38468h-.38363c0-.12787.0639-.31968.19182-.31968.0639.0639.19181.19181.19181.31968z"/>
  <path fill="#393d3f" d="M147.76068 64.38468h.38363v5.88222h-.38363z"/>
  <path fill="#0e1214" d="M151.66085 69.17997h-.38362c0 .12787.0639.31968.19181.31968.0639-.0639.19181-.19181.19181-.31968z"/>
  <path fill="#5e5e60" d="M151.66085 64.38468h-.38362c0-.12787.0639-.31968.19181-.31968.0639.0639.19181.19181.19181.31968z"/>
  <path fill="#393d3f" d="M151.27723 64.38468h.38362v4.79529h-.38362z"/>
  <path d="M57.80115 53.32356h4.539536v1.40662H57.80115zm.06394 17.83846v-1.21481c1.34268.5115 2.813234.89512 4.411662 1.21481v1.15087c-1.534491-.25575-3.005045-.63938-4.411662-1.15087m90.72678-17.83846h4.53953v1.40662h-4.53953zm4.4756 17.83846v-1.21481c-1.34268.5115-2.81324.89512-4.41167 1.21481v1.15087c1.5345-.25575 3.00505-.63938 4.41167-1.15087"/>
  <path fill="#2a2c2e" d="M162.21048 74.7425H48.786015c-5.178907 0-9.398757-4.21985-9.398757-9.33482v-4.34773c0-9.07907 5.882216-11.8923 14.769476-13.29892.191811 0 21.035314-2.55749 51.213636-2.55749h.19181c30.17833 0 51.02183 2.55749 51.21364 2.55749 8.88726 1.40662 14.76948 4.21985 14.76948 13.29892v4.34773c.0639 5.11497-4.15592 9.33482-9.33482 9.33482zm-56.6483-.19182h56.6483c5.05103 0 9.143-4.09197 9.143-9.20694v-4.34773c0-8.95119-5.81827-11.70049-14.6416-13.10711-.19181 0-21.09925-2.55748-51.27757-2.55748-30.178325 0-51.085765 2.55748-51.277576 2.55748-8.695449 1.40662-14.577665 4.15592-14.577665 13.10711v4.34773c0 5.05103 4.091976 9.20694 9.143009 9.20694h56.840102z"/>
  <path fill="#3f3f3f" d="M105.69006 81.07227h-.44756l-57.031919-1.2148c-5.818278-.38363-10.421751-.70331-14.641601-6.45765-1.726303-2.30174-2.68536-5.24285-2.68536-8.31183v-2.10992c0-5.69041 1.406617-9.91026 4.283788-12.9153 2.557485-2.68536 6.329775-4.34773 11.828368-5.43466.255748 0 24.296107-2.62142 58.374594-2.62142 34.07849 0 58.11885 2.62142 58.3746 2.62142 5.49859 1.02299 9.27088 2.7493 11.82836 5.43466 2.87717 2.9411 4.28379 7.16095 4.28379 12.9153v2.10992c0 3.00505-.95906 6.01009-2.68536 8.31183-4.21985 5.6904-8.82332 6.01009-14.6416 6.45765l-56.8401 1.2148zm-.19181-38.80983c-34.078492 0-58.118851 2.62142-58.3746 2.62142-11.188997 2.10992-15.984281 7.54458-15.984281 18.09421v2.10992c0 3.00505.959057 5.88222 2.621422 8.18395 4.155913 5.62647 8.695449 5.94615 14.44979 6.32978l57.223729 1.2148 57.22372-1.2148c5.75435-.38363 10.29388-.70331 14.4498-6.32978 1.66236-2.30173 2.62142-5.1789 2.62142-8.18395v-2.10992c0-10.54963-4.79529-15.98429-15.98428-18.09421-.12788-.0639-24.16824-2.62142-58.24672-2.62142z"/>
  <path fill="#2a2c2e" d="M105.43431 115.59832c-32.480061-1.79024-54.218684-17.51877-70.139028-28.96352-1.726302-1.2148-3.32473-2.36567-4.859221-3.4526-1.534491-1.34268-3.644417-3.32473-4.923159-4.9871-3.964102-5.37072-5.11497-11.189-5.370719-15.1531.06394-.51149.06394-1.08693.127875-1.59843.44756-6.2019 1.022994-14.00223 10.613562-19.30901 5.626467-4.15591 47.633159-6.07402 74.48675-5.75434v.19181c-26.853591-.31968-68.796345 1.59843-74.358875 5.75434-9.526632 5.30679-10.102066 12.97924-10.549626 19.18114-.06394.57544-.06394 1.08693-.127874 1.59843.255748 3.90016 1.406617 9.71844 5.306781 15.02522 1.214806 1.66237 3.324731 3.58048 4.859222 4.92316 1.534491 1.08693 3.132919 2.2378 4.859221 3.45261 15.856407 11.44474 37.59503 27.17328 70.011151 28.96351h.0639c32.41612-1.79023 54.15474-17.45483 70.01115-28.96351 1.7263-1.21481 3.32473-2.36568 4.85922-3.45261 1.53449-1.34268 3.64442-3.26079 4.85922-4.92316 3.9641-5.37071 5.05104-11.12506 5.30678-15.02522-.0639-.5115-.0639-1.02299-.12787-1.59843-.44756-6.2019-1.02299-13.87435-10.54963-19.18114-5.56253-4.15591-47.50528-6.01009-74.35887-5.75434v-.19181c26.91753-.31968 68.86028 1.59843 74.48675 5.75434 9.59057 5.37072 10.166 13.10711 10.61356 19.30901.0639.57544.0639 1.08694.12788 1.59843-.25575 3.9641-1.40662 9.78238-5.37072 15.1531-1.21481 1.66237-3.32473 3.64442-4.85922 4.9871-1.5345 1.08693-3.13292 2.2378-4.85923 3.4526-15.92034 11.50868-37.65896 27.23722-70.13902 28.96352z"/>
  <path fill="#1b1d1e" d="M198.33495 67.5176c0 .89512-.63937 1.66237-1.40662 1.66237h-3.77229c-.76724 0-1.47055-.76725-1.47055-1.66237 0-.89512.63937-1.66236 1.47055-1.66236h3.77229c.76725.0639 1.40662.76724 1.40662 1.66236z"/>
  <path fill="#2e3233" d="M197.31196 67.5176c0 .57544-.44756 1.08693-1.023 1.08693h-2.62142c-.57543 0-1.02299-.51149-1.02299-1.08693 0-.57543.44756-1.08693 1.02299-1.08693h2.62142c.57544 0 1.023.5115 1.023 1.08693z"/>
  <path d="M193.66754 65.91917h2.62142v.57544h-2.62142zm0 2.7493h2.62142v.57543h-2.62142z"/>
  <path fill="#1b1d1e" d="M198.33495 62.33869c0 .89512-.63937 1.66237-1.40662 1.66237h-3.77229c-.76724 0-1.47055-.76725-1.47055-1.66237 0-.89512.63937-1.66236 1.47055-1.66236h3.77229c.76725 0 1.40662.76724 1.40662 1.66236z"/>
  <path fill="#2e3233" d="M197.31196 62.33869c0 .57544-.44756 1.08694-1.023 1.08694h-2.62142c-.57543 0-1.02299-.5115-1.02299-1.08694 0-.57543.44756-1.08693 1.02299-1.08693h2.62142c.57544 0 1.023.5115 1.023 1.08693z"/>
  <path d="M193.66754 60.67633h2.62142v.57543h-2.62142zm0 2.74929h2.62142v.57544h-2.62142z"/>
  <path fill="#1b1d1e" d="M198.33495 57.15979c0 .89512-.63937 1.66236-1.40662 1.66236h-3.77229c-.76724 0-1.47055-.76724-1.47055-1.66236s.63937-1.66237 1.47055-1.66237h3.77229c.76725 0 1.40662.76725 1.40662 1.66237z"/>
  <path fill="#2e3233" d="M197.31196 57.15979c0 .57543-.44756 1.08693-1.023 1.08693h-2.62142c-.57543 0-1.02299-.5115-1.02299-1.08693 0-.57544.44756-1.08693 1.02299-1.08693h2.62142c.57544 0 1.023.51149 1.023 1.08693z"/>
  <path d="M193.66754 55.49742h2.62142v.57544h-2.62142zm0 2.7493h2.62142v.57543h-2.62142z"/>
  <path fill="#1b1d1e" d="M12.66154 67.5176c0 .89512.639371 1.66237 1.406617 1.66237h3.77229c.767245 0 1.470554-.76725 1.470554-1.66237 0-.89512-.639371-1.66236-1.470554-1.66236h-3.77229c-.767246 0-1.406617.76724-1.406617 1.66236z"/>
  <path fill="#2e3233" d="M13.684534 67.5176c0 .57544.44756 1.08693 1.022994 1.08693h2.621422c.575434 0 1.022994-.51149 1.022994-1.08693 0-.57543-.44756-1.08693-1.022994-1.08693h-2.685359c-.511497 0-.959057.5115-.959057 1.08693z"/>
  <path d="M14.707528 65.85524h2.621422v.57543h-2.621422zm0 2.74929h2.621422v.57544h-2.621422z"/>
  <path fill="#1b1d1e" d="M12.66154 62.33869c0 .89512.639371 1.66237 1.406617 1.66237h3.77229c.767245 0 1.470554-.76725 1.470554-1.66237 0-.89512-.639371-1.66236-1.470554-1.66236h-3.77229c-.767246 0-1.406617.76724-1.406617 1.66236z"/>
  <path fill="#2e3233" d="M13.684534 62.33869c0 .57544.44756 1.08694 1.022994 1.08694h2.621422c.575434 0 1.022994-.5115 1.022994-1.08694 0-.57543-.44756-1.08693-1.022994-1.08693h-2.685359c-.511497 0-.959057.44756-.959057 1.08693z"/>
  <path d="M14.707528 60.67633h2.621422v.57543h-2.621422zm0 2.74929h2.621422v.57544h-2.621422z"/>
  <path fill="#1b1d1e" d="M12.66154 57.09585c0 .89512.639371 1.66236 1.406617 1.66236h3.77229c.767245 0 1.470554-.76724 1.470554-1.66236s-.639371-1.66237-1.470554-1.66237h-3.77229c-.767246.0639-1.406617.76725-1.406617 1.66237z"/>
  <path fill="#2e3233" d="M13.684534 57.09585c0 .57543.44756 1.08693 1.022994 1.08693h2.621422c.575434 0 1.022994-.5115 1.022994-1.08693s-.44756-1.08693-1.022994-1.08693h-2.685359c-.511497 0-.959057.5115-.959057 1.08693z"/>
  <path d="M14.707528 55.49742h2.621422v.57544h-2.621422zm0 2.7493h2.621422v.57543h-2.621422z"/>
  <path fill="#171819" d="M201.40393 81.20015c0 .31968-.12787 13.74648-.89512 19.30901-.76724 5.6904.70331 12.53167-10.35781 17.32696-11.06112 4.73135-27.68478 8.88726-51.53332 11.63656-23.84855 2.74929-53.323566 2.42961-76.660617-1.47056-23.273113-3.9641-36.25235-6.96915-43.413308-10.42175-7.672455-3.64442-8.503637-10.10207-8.6315115-16.24003-.0639371-3.19686-.2557485-19.24507-.3196856-23.91248.063937 4.15591.3196856 7.4167.7033081 8.63151l.255749.70331c1.278742 3.90016 2.42961 7.28883 7.928203 9.27088 1.918114.70331 6.521587 1.98205 11.828368 3.51654 9.526632 2.68536 22.505868 6.39371 26.661781 8.50364 6.585524 3.32473 21.994371 9.78238 26.214222 11.189l4.283787 1.40661c.319686.12788 7.544581 2.81324 18.094204 2.81324 10.54963 0 17.71059-2.68536 17.96633-2.81324l4.34773-1.40661c4.28379-1.40662 19.6287-7.80033 26.21422-11.189 4.15591-2.10993 17.13515-5.81828 26.66178-8.50364 5.30678-1.53449 9.91026-2.81323 11.82837-3.51654 5.56253-2.04599 6.64946-5.37072 7.9282-9.27088l.25575-.70331c.31969-.83119.5115-2.55749.63937-4.85922z"/>
  <path fill="#0b0c0d" d="M76.982288 29.41107c-14.066168.63938-24.999416 1.59843-32.543997 2.42962-14.577665 1.53449-25.12729.31968-30.881631 14.89735-3.196857 8.12001-3.8362279 34.20636-2.429611 38.29833 1.406617 4.09198 2.173862 7.16096 7.544581 9.07907 5.370718 1.91812 32.096436 8.56758 38.618023 11.76444 6.521587 3.26079 21.738623 9.46269 26.086347 10.86931l4.347725 1.40661s7.288832 2.68536 17.774525 2.68536c10.48568 0 17.77452-2.68536 17.77452-2.68536l4.34772-1.40661c4.34772-1.40662 19.6287-7.60852 26.08635-10.86931 6.52158-3.2608 33.2473-9.84632 38.61802-11.76444 5.37072-1.91811 6.13796-5.05103 7.54458-9.07907 1.40662-4.09197.76725-30.17832-2.42961-38.29833-5.75434-14.64161-16.30397-13.4268-30.88163-14.89735-7.54458-.76725-18.6057-1.79024-32.67187-2.42962-8.4397-.38362-18.03027-.63937-28.45202-.63937h-.0639c-10.485688 0-19.948382.25575-28.388082.63937m0-1.02299c8.4397-.38362 18.030269-.63937 28.452022-.63937h.0639c10.42175 0 19.88444.25575 28.32414.63937 11.25294.5115 22.18618 1.34268 32.79975 2.49355 1.85417.19181 3.70835.38362 5.43465.5115 11.76443 1.02299 21.03532 1.79023 26.27816 15.40884 2.30174 6.01009 3.26079 20.84351 3.13292 30.8177v.51149c-.0639 4.15592-.31969 7.41671-.70331 8.63152l-.25575.7033c-1.27874 3.90017-2.42961 7.2249-7.9282 9.27089-1.91811.70331-6.52159 1.98205-11.82837 3.51654-9.52663 2.68536-22.50587 6.39371-26.66178 8.50364-6.58552 3.32473-21.99437 9.78238-26.21422 11.18899l-4.28379 1.40662c-.31968.12787-7.54458 2.81323-18.0942 2.81323-10.54963 0-17.774525-2.68536-18.094211-2.81323l-4.283787-1.40662c-4.283788-1.40661-19.628698-7.80033-26.214222-11.18899-4.155913-2.10993-17.135149-5.81828-26.661781-8.50364-5.306781-1.53449-9.910254-2.81323-11.828368-3.51654-5.56253-2.04599-6.649461-5.37072-7.928203-9.27089l-.255749-.7033c-.3836226-1.21481-.6393711-4.4756-.7033083-8.63152v-.51149c-.1278742-9.97419.8311823-24.80761 3.1329193-30.8177 5.242844-13.61861 14.513727-14.44979 26.278158-15.40884 1.726303-.12788 3.580479-.31969 5.434656-.5115 10.549625-1.15087 21.418937-1.98205 32.607934-2.49355"/>
  <path fill="#c5baba" d="M146.22619 104.47326s-.0639 0-.12787.0639c-1.21481.51149-2.42961 1.02299-3.70835 1.53449-19.37295 7.48064-28.0684 9.6545-36.69991 9.6545-5.946156 0-11.892309-1.02299-21.355003-4.09197 0 0-18.158144-6.7134-19.56476-7.28884.319685-.89511 1.278742-3.19685 2.87717-5.75434 1.918114-3.13292 4.795285-6.64946 8.759386-8.69545.255749-.12787.44756-.25574.703309-.31968 7.736392-3.45261 20.268068-3.19686 28.707768-3.19686 8.4397 0 20.8435-.25575 28.5799 3.19686.25574.12787.44756.25575.7033.31968 5.30679 2.7493 8.37577 8.24789 9.9742 11.76444.57543 1.2148.95905 2.2378 1.15086 2.81323z"/>
  <path fill="#2f3134" d="M105.17856 114.51139c-18.605704 0-32.863683-9.01514-32.863683-16.49578 0-7.48064 14.257979-10.54963 32.863683-10.54963 18.6057 0 32.86368 3.06899 32.86368 10.54963 0 7.48064-14.25798 16.49578-32.86368 16.49578z"/>
  <path fill="#c5baba" d="M124.29576 111.05878c-.0639-2.81323-3.32473-5.1789-7.35277-5.1789H93.414129c-4.028039 0-7.288833 2.36567-7.35277 5.1789l-.639371-.25575c.06394-3.13291 3.644416-5.56253 7.992141-5.56253h23.528861c4.34773 0 7.9282 2.49355 7.99214 5.62647l-.63937.19181z"/>
  <path fill="#c5baba" d="M96.099488 108.88492c0-.5115.191811-.95906.511497-1.27874.383623-.38362.767245-.5115 1.214805-.5115h2.49355v.76725h-2.301738c-.383623 0-.639372.12787-.831183.31968-.191811.19181-.319686.44756-.319686.76725 0 .31968.127875.57543.319686.76724.191811.19181.511497.31969.831183.31969h.383622c.319686 0 .575434.0639.703309.25575.191811.19181.255748.38362.255748.63937s-.06394.44756-.255748.63937c-.191812.19181-.383623.25575-.703309.25575h-2.301736v-.76725h2.301736c.127875 0 .191812-.0639.191812-.12787 0-.0639-.06394-.12788-.191812-.12788h-.575434c-.44756 0-.831182-.19181-1.214805-.51149-.383623-.44756-.511497-.89512-.511497-1.40662zm.959057 0c0-.25575.06394-.44756.255748-.63937.191812-.19181.383623-.25575.703309-.25575h2.301738v.76725h-2.301738c-.127875 0-.191812.0639-.191812.12787 0 .0639.06394.12788.191812.12788h.575434c.44756 0 .831182.19181 1.214805.51149.383619.38362.511499.76725.511499 1.27874 0 .5115-.19181.95906-.511499 1.27875-.319686.31968-.767245.51149-1.214805.51149h-2.493548v-.7033h2.301736c.383623 0 .639372-.12788.831183-.31969.191811-.19181.319686-.44756.319686-.76725 0-.31968-.127875-.57543-.319686-.76724-.191811-.19181-.511497-.31969-.831183-.31969h-.383622c-.319686 0-.575435-.0639-.703309-.25575-.191811-.12787-.255748-.31968-.255748-.57543zm3.644415-.0639c0-1.15086.57543-1.7263 1.7263-1.7263h2.30174v.76725h-2.30174c-.63937 0-.95905.31968-.95905.95905v2.10993c0 .63937.31968.95906.95905.95906h2.30174v.76724h-2.30174c-1.15087 0-1.7263-.57543-1.7263-1.7263v-2.10993zm.95906.95906v-.95906c0-.51149.25575-.76724.76724-.76724h2.30174v.76724h-2.10993c-.12787 0-.19181.0639-.19181.19182h1.72631v.76724h-2.49355zm0 .19181h2.49355v.76725h-1.72631c0 .12787.0639.19181.19181.19181h2.10993v.76724h-2.30174c-.51149 0-.76724-.25574-.76724-.76724v-.95906zm3.51654-1.15087c0-1.15086.57543-1.7263 1.7263-1.7263h2.30174v.76725h-2.30174c-.63937 0-.95905.31968-.95905.95905v2.10993c0 .63937.31968.95906.95905.95906h1.53449v-2.10993h-1.34268v-.76724h2.10993v3.70835h-2.30174c-1.15087 0-1.7263-.57544-1.7263-1.7263v-2.17387zm.95906 0c0-.51149.25574-.76724.76724-.76724h2.30174v.76724h-2.10993c-.12787 0-.19181.0639-.19181.19182v1.7263c0 .12787.0639.19181.19181.19181h.38363v-.19181h-.38363v-.76725h1.15087v1.7263h-1.34268c-.5115 0-.76724-.25574-.76724-.76724v-2.10993zm5.81827 3.06899h2.30174l-1.53449-3.96411c-.0639-.0639-.12787-.12787-.25575-.12787-.12787 0-.19181.0639-.25575.12787l-1.7263 4.73135h-.76724l1.79023-4.98709c.19182-.44756.5115-.63938.95906-.63938.5115 0 .83118.19182.95906.63938l1.85418 4.98709h-3.32474v-.76724zm0-.19182v-.44756l-.57543 1.40662h-.76724l1.66236-4.53953c0-.0639.0639-.12788.12787-.12788.0639 0 .12788.0639.12788.12788l1.34268 3.58047h-1.91812zm.44756-1.66236l-.38362.89512h.70331l-.31969-.89512z"/>
  <path fill="#f2ba5c" d="M91.240266 102.36333h34.781794v-2.9411l-1.91811-1.66237H86.444982m6.393712-6.13796v1.2148c0 .25575-.127874.38363-.447559.5115-.319686.12787-.703309.12787-1.214806.12787-.511497 0-.959057-.0639-1.278742-.12787-.319686-.12787-.511497-.25575-.511497-.5115v-1.27874h1.342679v1.21481c0 .0639.06394.12787.127875.19181.06394.0639.191811.0639.383622.0639.127875 0 .255749 0 .383623-.0639.127874 0 .127874-.0639.191811-.12788v-1.27874h1.022994zm1.726303 1.15087v.7033h-1.150868V91.6219h1.598428c.383622 0 .703308 0 .895119.0639.191812.0639.383623.12788.511497.19182.127875.0639.191812.19181.191812.31968 0 .19181-.127874.31969-.383623.44756-.255748.12788-.575434.19181-1.022994.19181h-.639371zm0-.38363h.383623c.319685 0 .511497-.0639.511497-.19181 0-.12787-.127875-.19181-.44756-.19181h-.44756v.38362zm5.178907.63937v.44756H96.93067V91.6219h2.813234v.44756h-1.726302v.25575h1.342679v.44756h-1.342679v.31968h1.726302zm3.452606.44756h-1.27874l-.5115-.7033h-.38362v.7033h-1.150872V91.6219h1.918112c.44756 0 .76725.0639.95906.12787.25575.12788.38362.25575.38362.38362 0 .12788-.0639.19182-.12787.25575-.0639.0639-.25575.12788-.5115.19181l.70331.89512zm-2.10993-1.08693h.5115c.12787 0 .25575 0 .31969-.0639.0639 0 .12787-.0639.12787-.12788 0-.12787-.12787-.19181-.44756-.19181h-.5115v.38362zm-13.746478 1.15087c-.319686 0-.575434 0-.767246-.0639-.191811-.0639-.383622-.0639-.575434-.12787-.127874-.0639-.255748-.12787-.319685-.19181-.06394-.0639-.127875-.19181-.127875-.25575h.767246c0 .0639.06394.12787.127874.19181.06394.0639.127874.0639.255749.12788.06394 0 .191811.0639.319685.0639h.703309c.127874 0 .191811 0 .255748-.0639.06394 0 .127874-.0639.191811-.0639.06394 0 .06394-.0639.06394-.12788 0-.0639 0-.0639-.06394-.12787-.06394 0-.127874-.0639-.191811-.0639-.06394 0-.191811-.0639-.319686-.0639-.127874 0-.319685-.0639-.511497-.0639-.255748 0-.447559-.0639-.639371-.0639-.191811 0-.319685-.0639-.44756-.12787-.127874-.0639-.191811-.0639-.255748-.12788-.06394-.0639-.06394-.12787-.06394-.19181 0-.0639.06394-.12787.127874-.19181.06394-.0639.191811-.12787.319686-.19181.127874-.0639.319685-.0639.447559-.12788.191812 0 .383623-.0639.639372-.0639.255748 0 .44756 0 .639371.0639s.383623.0639.511497.12788c.127874.0639.255748.12787.319686.19181.06394.0639.127874.19181.127874.25575h-.767246c-.06394-.19181-.319685-.31969-.831182-.31969-.255749 0-.44756 0-.575434.0639-.127875.0639-.191812.0639-.191812.12787 0 0 0 .0639.06394.0639s.06394.0639.127875.0639c.06394 0 .127874.0639.255748.0639s.191811 0 .383623.0639c.127874 0 .255748 0 .383623.0639.127874 0 .255748 0 .383622.0639.127875 0 .255749.0639.319686.0639.127874 0 .191811.0639.319686.12788.06394.0639.127874.0639.191811.12787.06394.0639.06394.12788.06394.19181 0 .0639-.06394.19182-.127874.25575-.06394.0639-.191812.12788-.319686.19181-.127874.0639-.319685.0639-.511497.12788-.319685-.12788-.511497-.0639-.703308-.0639z"/>
  <path fill="#f2ba5c" d="M96.099488 101.59609v-1.40662l.191811-.0639c2.173862-.76724 5.626471-2.74929 5.754341-3.32473 0-.0639 0-.19181-.0639-.25574-.12787-.19182-.44756-.31969-.70331-.31969-.38362 0-.7033.25575-.76724.57543v.19182h-4.475599l.127874-.38363c.44756-1.66236 2.493548-2.74929 5.306785-2.74929 3.13292 0 5.30678 1.15086 5.30678 2.74929 0 1.15087-1.15087 2.10993-3.51654 2.81324h3.32473v2.2378H96.099528z"/>
  <path fill="#2f3134" d="M102.36533 96.86474c.12787-.5115-.44756-.95906-1.08694-.95906-.51149 0-.95905.31969-1.02299.76725h-3.836227c.383623-1.40662 2.2378-2.49355 5.051037-2.49355 2.74929 0 5.05103.95906 5.05103 2.42961 0 1.27875-1.85418 2.17387-4.09198 2.7493v.38362h3.90017v1.59843h-9.846319v-.95906c1.662365-.63937 5.626469-2.68536 5.882219-3.51654z"/>
  <path fill="#f2ba5c" d="M90.409084 101.91577c-1.34268 0-3.836228-.19181-4.923159-1.27874-.383623-.38362-.575434-.83118-.575434-1.34268v-.31968h4.411662l.06394.25574c.06394.25575.44756.5115.959057.5115.639371 0 1.150868-.25575 1.150868-.5115 0-.25574-.44756-.51149-1.150868-.51149h-.255749l-.319685.0639v-1.98206l.447559.0639h.127875c.511497 0 .895119-.25575.895119-.44756 0-.19181-.383622-.44756-.895119-.44756-.44756 0-.831183.19181-.89512.44756v.12788h-4.028039v-.31969c0-.63937.575434-1.34268 1.534491-1.7263.89512-.38363 2.109925-.63937 3.644416-.63937 2.557485 0 5.11497.7033 5.11497 2.04598 0 .57544-.511497 1.15087-1.278742 1.5345 1.150868.38362 1.598428 1.2148 1.598428 1.85417-.127875 1.47056-2.557485 2.62142-5.626467 2.62142z"/>
  <path fill="#2f3134" d="M85.230177 99.35829h3.836227c.06394.44756.639371.76724 1.278743.76724.767245 0 1.406616-.38362 1.406616-.83118s-.639371-.83118-1.406616-.83118h-.255749v-1.34268h.255749c.639371 0 1.214805-.31969 1.214805-.76725s-.511497-.76724-1.214805-.76724c-.575434 0-1.086931.31968-1.150869.70331h-3.516541c0-.44756.511497-1.08693 1.342679-1.47056.89512-.44756 2.173862-.57543 3.516542-.57543 2.685359 0 4.795284.76724 4.795284 1.79024 0 .57543-.767245 1.15087-2.045988 1.47055v.31969c1.598428.19181 2.301737.83118 2.301737 1.59843 0 1.27874-2.301737 2.30173-5.178907 2.30173-2.877171 0-5.178907-.76724-5.178907-2.36567"/>
  <path fill="#f2ba5c" d="M125.38269 102.10759h-11.57262l-.0639-.0639-10.93324-10.61356h11.95624l10.74144 10.42175-.12788.12787v.12788zm-11.44474-.25575h11.06112l-10.35782-10.10207h-11.06112l10.35782 10.10207z"/>
  <path fill="#f2ba5c" d="M125.38269 101.97971h-11.50868l-10.6775-10.35781h11.50868l10.6775 10.35781"/>
  <path fill="#2f3134" d="M125.38269 101.97971h-11.50868l-10.6775-10.35781h11.50868l10.6775 10.35781"/>
  <path fill="#f2ba5c" d="M114.96094 93.98757l1.53449-1.40662h6.45765l-4.73135 4.41167 4.9871 4.60347h-6.52159l-1.66236-1.53449-1.66237 1.53449h-6.52159l4.85923-4.53954-4.85923-4.4756h6.52159"/>
  <path fill="#2f3134" d="M112.14771 97.05655l-4.53954-4.15591h5.62647l1.7263 1.53449 1.66236-1.53449h5.56253l-4.41166 4.15591 4.66741 4.28379h-5.62646l-1.85418-1.66237-1.79024 1.66237h-5.56253l4.53954-4.28379z"/>
  <path fill="#2c2c2d" d="M431.4598 110.3546h58.18385c5.71168 0 10.35635 4.64467 10.35635 10.35635v74.75402c0 4.01701-3.32658 7.34359-7.34359 7.34359H370.26319c-4.01701 0-7.3436-3.32658-7.3436-7.34359v-74.75402c0-5.71168 4.64467-10.35635 10.35635-10.35635h58.18386"/>
  <path fill="#121115" d="M362.91959 120.27159v76.82529c0 .37659.31383.62765.69043.62765 4.2053-.50212 7.65742-1.6319 10.16805-2.76169 1.12978-.50212 2.13403-1.25531 2.82446-2.32233.94148-1.38085 1.38084-3.07552 1.12978-4.70743L369.51 127.23859c-.25107-1.75744-1.75744-3.70318-3.20106-4.77019l-3.38935-2.19681m137.01764 0v76.82529c0 .37659-.31382.62765-.69042.62765-4.2053-.50212-7.65742-1.6319-10.16805-2.76169-1.12978-.50212-2.13404-1.25531-2.82446-2.32233-.94149-1.38085-1.38085-3.07552-1.12978-4.70743l8.22231-60.69449c.25106-1.75744 1.75744-3.70318 3.20105-4.77019l3.38935-2.19681m-68.47743 68.60297c10.67017.12554 33.57967-3.01275 33.57967-3.01275 16.1308-2.1968 17.19782-8.15955 17.95101-21.77972l2.69893-46.19559c0-4.14254-3.38935-7.5319-7.53189-7.5319h-93.45821c-4.14254 0-7.53189 3.38936-7.53189 7.5319l2.69893 46.19559c.81595 13.62017 1.8202 19.58292 17.951 21.77972 0 0 22.97227 3.13829 33.64245 3.01275z"/>
  <path fill="#232122" d="M431.39703 121.52691h42.61795c1.8202 0 3.32658 1.50638 3.32658 3.32658v45.00305c0 4.26807-3.45211 7.72019-7.72019 7.72019H431.4598h.0628-38.22434c-4.26807 0-7.72019-3.45212-7.72019-7.72019v-45.06581c0-1.82021 1.50638-3.32659 3.32658-3.32659h42.49242"/>
  <path fill="#fbe627" d="M397.81735 121.96627v55.86152-.1883h-4.51913c-4.26807 0-7.72019-3.45211-7.72019-7.72018v-44.94028c0-1.82021 1.50638-3.32659 3.32658-3.32659h8.91274"/>
  <path fill="#121115" d="M398.00565 202.80856c-.56489 0-1.00425-.43936-1.00425-1.00425v-6.52764c0-.56489.43936-1.00425 1.00425-1.00425.56489 0 1.00425.43936 1.00425 1.00425v6.52764c0 .56489-.43936 1.00425-1.00425 1.00425zm13.3691 0c-.56489 0-1.00425-.43936-1.00425-1.00425v-6.52764c0-.56489.43936-1.00425 1.00425-1.00425.5649 0 1.00426.43936 1.00426 1.00425v6.52764c-.0628.56489-.50213 1.00425-1.00426 1.00425zm13.49464 0c-.56489 0-1.00425-.43936-1.00425-1.00425v-6.52764c0-.56489.43936-1.00425 1.00425-1.00425.56489 0 1.00425.43936 1.00425 1.00425v6.52764c-.0628.56489-.50212 1.00425-1.00425 1.00425zm13.30634 0c-.56489 0-1.00425-.43936-1.00425-1.00425v-6.52764c0-.56489.43936-1.00425 1.00425-1.00425.56489 0 1.00425.43936 1.00425 1.00425v6.52764c0 .56489-.43936 1.00425-1.00425 1.00425zm13.36911 0c-.56489 0-1.00425-.43936-1.00425-1.00425v-6.52764c0-.56489.43936-1.00425 1.00425-1.00425.56489 0 1.00425.43936 1.00425 1.00425v6.52764c-.0628.56489-.50213 1.00425-1.00425 1.00425zm13.30634 0c-.56489 0-1.00425-.43936-1.00425-1.00425v-6.52764c0-.56489.43936-1.00425 1.00425-1.00425.56489 0 1.00425.43936 1.00425 1.00425v6.52764c0 .56489-.43936 1.00425-1.00425 1.00425z"/>
  <path d="M392.4195 133.20134v33.45415l4.07977-4.26807v-30.88076h-2.63616m-6.967 29.49991h1.12978c.1883 0 .3766.12553.43936.43936.0628.25106.12554.62766.12554 1.06702 0 .50212-.0628.87872-.12554 1.12978-.0628.31383-.25106.43936-.43936.43936h-1.12978v-1.19255h1.12978c.0628 0 .12554-.0628.1883-.12553.0628-.0628.0628-.1883.0628-.37659 0-.12554 0-.25107-.0628-.31383 0-.0628-.0628-.12554-.0628-.1883h-1.19255v-.87872zm1.06702-1.56915h.62766v1.06702h-1.69468v-1.44361c0-.37659 0-.62766.0628-.81595.0628-.1883.12553-.31383.18829-.43936.0628-.12554.1883-.1883.31383-.1883.1883 0 .31383.12553.3766.31383.12553.25106.12553.50212.12553.87872v.62765zm-.31383 0v-.31382c0-.31383-.0628-.43936-.1883-.43936-.12553 0-.12553.12553-.12553.43936v.37659h.31383zm.56489-4.5819h.3766v2.51063h-1.69468v-2.51063h.3766v1.50638h.25106v-1.19255h.37659v1.19255h.25107v-1.50638zm.3766-3.07552v1.12979l-.62766.50212v.25107h.62766v1.00425h-1.69468v-1.69468c0-.37659.0628-.69042.12553-.87872.0628-.1883.1883-.31383.3766-.31383.12553 0 .18829.0628.25106.12553.0628.0628.12553.25107.1883.43936l.75319-.56489zm-1.00426 1.88298v-.43936c0-.12554 0-.25107-.0628-.31383 0-.0628-.0628-.12554-.12553-.12554-.12553 0-.1883.12554-.1883.3766v.50213h.37659zm1.06702 12.23932c0 .25106 0 .50212-.0628.69042-.0628.1883-.0628.3766-.12554.50213-.0628.12553-.12553.25106-.18829.31383-.12553 0-.1883.0628-.25107.0628v-.62766c.0628 0 .12554-.0628.12554-.12553.0628-.0628.0628-.12553.12553-.18829 0-.0628.0628-.1883.0628-.25107v-.62766c0-.0628 0-.18829-.0628-.25106 0-.0628-.0628-.12553-.0628-.12553 0-.0628-.0628-.0628-.0628-.0628-.0628 0-.0628 0-.0628.0628s-.0628.0628-.0628.1883c0 .0628-.0628.18829-.0628.31383 0 .12553-.0628.25106-.0628.43936 0 .18829-.0628.37659-.0628.56489 0 .12553-.0628.25106-.12553.37659-.0628.12553-.0628.1883-.12554.1883-.0628.0628-.12553.0628-.18829.0628-.0628 0-.12553-.0628-.1883-.12554-.0628-.0628-.12553-.12553-.12553-.25106-.0628-.12553-.0628-.25106-.12553-.43936 0-.1883-.0628-.37659-.0628-.56489 0-.1883 0-.3766.0628-.56489 0-.1883.0628-.31383.12553-.43936.0628-.12553.12553-.25107.1883-.31383.0628-.0628.12553-.12553.25106-.12553v.62765c-.1883.0628-.25106.31383-.25106.75319 0 .25107 0 .3766.0628.50213.0628.12553.0628.1883.12553.1883 0 0 .0628 0 .0628-.0628 0 0 .0628-.0628.0628-.12553 0-.0628 0-.12553.0628-.1883 0-.0628 0-.1883.0628-.31383 0-.12553 0-.25106.0628-.31383 0-.12553 0-.25106.0628-.31382 0-.12554.0628-.1883.0628-.31383s.0628-.1883.0628-.25107c.0628-.0628.0628-.12553.12553-.18829.0628-.0628.12553-.0628.1883-.0628.0628 0 .12553.0628.18829.12553.0628.0628.12554.1883.1883.31383.0628.12553.0628.25106.12553.43936-.18829.12553-.12553.31383-.12553.50213zm2.69893-31.63394v.31383h.75319v.18829h-.75319v.31383h-.1883v-.75319h.1883zm.75319-1.06702v.1883h-.56489l.56489.18829v.12554l-.56489.18829h.56489v.1883h-.94149v-.25106l.62766-.25107-.62766-.25106v-.25106h.94149z"/>
  <path d="M395.80885 158.05658h-1.25532l-.0628-.1883c-.69043-1.88297-2.44787-5.02126-2.94999-5.14679-.0628 0-.1883 0-.25107.0628-.18829.12554-.25106.3766-.25106.62766 0 .31383.1883.62766.50213.69043h.18829v4.017l-.43936-.0628c-1.50637-.3766-2.44786-2.25957-2.44786-4.70743 0-2.7617 1.00425-4.70743 2.44786-4.70743 1.00426 0 1.82021 1.00425 2.51063 3.13828v-2.94999h1.94574v9.22657z"/>
  <path fill="#fff" d="M391.60354 152.53319c-.43936-.12553-.87872.43936-.87872.94149 0 .43936.31383.81595.69042.94148v3.45212c-1.25531-.31383-2.25956-2.0085-2.25956-4.45637 0-2.44786.87872-4.45637 2.13403-4.45637 1.12979 0 1.94574 1.63191 2.44787 3.64042h.31383v-3.51488h1.50637v8.7872h-.81595c-.62766-1.56914-2.3851-5.14679-3.13829-5.33509z"/>
  <path d="M396.12268 163.1406c0 1.19255-.12553 3.38936-1.12979 4.39361-.31383.31383-.75319.50212-1.19255.50212h-.25106v-3.95424l.1883-.0628c.1883-.0628.43936-.37659.43936-.87872 0-.56489-.25106-1.00425-.50213-1.00425-.25106 0-.50212.43936-.50212 1.00425v.1883l.0628.31383h-1.75744l.0628-.37659v-.12554c0-.43936-.25107-.75318-.43936-.75318-.1883 0-.43936.31382-.43936.75318s.18829.75319.37659.75319l.1883.0628v3.64041h-.25107c-.56489 0-1.19254-.56489-1.56914-1.31808-.37659-.75319-.56489-1.88297-.56489-3.26382 0-2.25956.62766-4.51913 1.82021-4.51913.50212 0 1.00425.43936 1.38084 1.12978.3766-1.00425 1.06702-1.38084 1.63191-1.38084 1.44361 0 2.44787 2.13403 2.44787 4.89572z"/>
  <path fill="#fff" d="M393.80034 167.7225v-3.38935c.3766-.0628.62766-.56489.62766-1.12978 0-.69042-.31383-1.25532-.75319-1.25532-.43936 0-.75319.5649-.75319 1.25532v.1883h-1.12978v-.1883c0-.56489-.31383-1.06702-.69042-1.06702-.3766 0-.69043.43936-.69043 1.06702 0 .56489.25107 1.00425.62766 1.06702v3.13829c-.43936 0-.94149-.43936-1.31808-1.19255-.37659-.81596-.50213-1.88298-.50213-3.13829 0-2.3851.69043-4.26807 1.56915-4.26807.56489 0 1.00425.69042 1.31808 1.8202h.25106c.1883-1.38084.69042-2.07127 1.44361-2.07127 1.12979 0 2.07127 2.07127 2.07127 4.5819s-.62765 4.5819-2.07127 4.5819"/>
  <path fill="#1d46a5" d="M396.12268 132.07156v10.23081l-9.22657 9.47763v-10.23082h.0628l9.1638-9.47762"/>
  <path d="M395.80885 133.95453v5.83721l-1.38085 1.50638 1.38085 1.50638v5.71168l-4.07978-4.33083-3.95424 4.33083v-5.77445l1.31808-1.38084-1.31808-1.38085v-5.71168l3.95424 4.14254"/>
  <path fill="#fff" d="M391.72907 143.80875l-3.70318 4.01701v-5.02126l1.38085-1.50638-1.31808-1.44361v-4.9585l3.70318 3.89148 3.82871-4.14254v5.02126l-1.50638 1.63191 1.50638 1.56915v4.95849l-3.89148-4.01701z"/>
</svg>
