<svg xmlns="http://www.w3.org/2000/svg" viewBox="0 0 1002.9661 406.82023">
  <path fill="#171819" d="M677.95220248 206.48818414c0 20.90532702-.51301416 39.88685094-1.2825354 56.81631822-1.2825354 28.2157788-3.2063385 50.40364122-4.87363452 65.53755894-3.07808496 29.24180712-.6412677 50.40364122-30.01132836 61.94645982-16.28819958 6.412677-68.74389744 7.6952124-76.952124 4.87363452-8.20822656-2.82157788-14.49265002-4.36062036-18.21200268-15.13391772-3.8476062-10.77329736-17.18597436-64.38327708-23.59865136-77.46513816-6.54093054-13.08186108-18.98152392-43.6062036-21.8031018-52.32744432l-2.82157788-8.72124072s-5.38664868-14.62090356-5.38664868-35.65448412c0-21.03358056 5.38664868-35.65448412 5.38664868-35.65448412l2.82157788-8.72124072c2.82157788-8.72124072 15.26217126-39.37383678 21.8031018-52.32744432 6.54093054-13.08186108 19.75104516-66.6918408 23.59865136-77.46513816 3.8476062-10.77329736 10.13202966-12.31233984 18.21200268-15.13391772 8.20822656-2.82157788 60.66392442-1.53904248 76.952124 4.87363452 29.37006066 11.5428186 26.9332434 32.7046527 30.01132836 61.94645982 1.53904248 15.13391772 3.59109912 37.32178014 4.87363452 65.53755894.76952124 17.05772082 1.2825354 36.16749828 1.2825354 57.0728253"/>
  <path fill="#171819" d="M662.56177768 206.61643768c.6412677 56.94457176-3.33459204 138.38556966-11.5428186 149.28712056-11.67107214 20.90532702-28.72879296 20.39231286-41.81065404 21.54659472-6.66918408-.38476062-18.85327038-2.30856372-30.26783544-10.77329736-3.59109912-2.5650708-7.6952124-7.18219824-10.00377612-9.74726904-22.4443695-31.80687792-61.17693858-78.2346594-65.15279832-150.31314888v-.12825354c3.97585974-72.07848948 42.70842882-118.37801742 65.15279832-150.31314888 2.30856372-2.5650708 6.412677-7.18219824 10.00377612-9.74726904 11.5428186-8.46473364 23.7269049-10.2602832 30.26783544-10.77329736 13.08186108 1.15428186 30.26783544.6412677 41.81065404 21.54659472 8.20822656 11.02980444 12.1840863 92.3425488 11.5428186 149.28712056"/>
  <path fill="#282827" d="M573.1690603 206.87294476v-.38476062l2.43681726 114.7869183c.76952124 11.92757922 1.53904248 20.90532702 12.825354 29.24180712 4.74538098 3.59109912 10.64504382 5.25839514 16.54470666 5.25839514h4.23236682c23.7269049 0 32.7046527-12.05583276 36.5522589-32.19163854 0 0 5.25839514-47.96682396 5.25839514-117.09548202s-5.25839514-117.09548202-5.25839514-117.09548202c-3.8476062-20.13580578-12.825354-32.19163854-36.5522589-32.19163854h-4.23236682c-5.89966284 0-11.79932568 1.79554956-16.54470666 5.25839514-11.28631152 8.3364801-11.92757922 17.18597436-12.825354 29.24180712l-2.43681726 114.7869183v-.38476062"/>
  <path fill="#1d1d1d" d="M644.349775 206.23167706c0 61.43344566-5.1301416 103.11584616-5.1301416 103.11584616-2.94983142 17.82724206-8.59298718 29.4983142-26.54848278 29.4983142h-8.72124072c-10.2602832 0-18.5967633-8.3364801-18.5967633-18.5967633V206.23167706v.38476062V92.72729416c0-10.2602832 8.3364801-18.5967633 18.5967633-18.5967633h8.72124072c17.9554956 0 23.59865136 11.67107214 26.54848278 29.4983142 0 0 5.1301416 41.6824005 5.1301416 103.11584616"/>
  <path fill="#1b1c1c" d="M589.8420205 88.75143057h38.73257036v235.47351227H589.8420205z"/>
  <path fill="#414446" d="M590.0985404 89.13619504h38.21955364V323.9684396H590.0985404z"/>
  <path fill="#1b1d1e" d="M590.09852758 206.23167706v80.92798374c0 16.92946728 11.15805798 31.55037084 15.3904248 36.68051244h22.82913012V206.23167706v.51301416V89.13619504h-22.70087658c-4.23236682 5.1301416-15.3904248 19.75104516-15.3904248 36.68051244v80.92798374"/>
  <path fill="#46494b" d="M619.9816024 89.13619504V105.039634c0 .51301416.51301416 1.02602832 1.02602832 1.02602832h7.31045178V89.13619504h-8.3364801zm0 234.7039782v-15.90343896c0-.51301416.51301416-1.02602832 1.02602832-1.02602832h7.31045178v16.92946728h-8.3364801z"/>
  <path fill="#45494a" d="M625.49650462 206.23167706v95.80539438c0 .51301416-.51301416 1.02602832-1.02602832 1.02602832h-5.7714093c-.51301416 0-1.02602832.38476062-1.02602832 1.02602832v14.7491571h-12.05583276c-7.6952124-9.36250842-13.59487524-20.00755224-13.59487524-37.1935266V131.07510262c0-17.18597436 5.89966284-27.83101818 13.59487524-37.1935266h12.05583276v14.7491571c0 .51301416.51301416 1.02602832 1.02602832 1.02602832h5.7714093c.51301416 0 1.02602832.51301416 1.02602832 1.02602832v95.5488873z"/>
  <path d="M608.4387838 89.13619504h.76952127V323.9684396h-.76952127z"/>
  <path fill="#1c1e1f" d="M606.8997285 140.69411812h1.53904247V271.769236h-1.53904248z"/>
  <path fill="#202223" d="M605.36071167 140.69411812h1.53904248V271.769236h-1.53904248z"/>
  <path fill="#242627" d="M603.82164353 140.69411812h1.53904248V271.769236h-1.5390424z"/>
  <path fill="#292c2d" d="M602.2826267 140.69411812h1.5390425V271.769236h-1.5390425z"/>
  <path fill="#2f3133" d="M600.7435714 140.69411812h1.53904248V271.769236h-1.53904248z"/>
  <path fill="#333637" d="M599.2045161 140.69411812h1.53904247V271.769236h-1.53904248z"/>
  <path fill="#373a3c" d="M597.66549927 140.69411812h1.53904248V271.769236h-1.53904248z"/>
  <path fill="#3b3e3f" d="M596.12643113 140.69411812h1.53904248V271.769236h-1.5390424z"/>
  <path fill="#3f4244" d="M594.5874143 140.69411812h1.5390425V271.769236h-1.5390425z"/>
  <path fill="#1b1d1e" d="M608.4387838 144.66997786v-3.97585974h-13.85138232s11.67107214 1.02602832 13.85138232 3.97585974zm0 122.99514486v3.97585974h-13.85138232c0 .12825354 11.67107214-.89777478 13.85138232-3.97585974z"/>
  <path fill="#1c1e1f" d="M609.20831787 140.69411812h1.53904248V271.769236h-1.53904248z"/>
  <path fill="#202223" d="M610.7473347 140.69411812h1.53904247V271.769236h-1.53904248z"/>
  <path fill="#242627" d="M612.28639 140.69411812h1.53904248V271.769236H612.28639z"/>
  <path fill="#292c2d" d="M613.8254453 140.69411812h1.5390425V271.769236h-1.5390425z"/>
  <path fill="#2f3133" d="M615.36446213 140.69411812h1.53904248V271.769236h-1.5390424z"/>
  <path fill="#333637" d="M616.90353027 140.69411812h1.53904248V271.769236h-1.53904248z"/>
  <path fill="#373a3c" d="M618.4425471 140.69411812h1.53904247V271.769236h-1.53904248z"/>
  <path fill="#3b3e3f" d="M619.9816024 140.69411812h1.53904248V271.769236h-1.53904248z"/>
  <path fill="#3f4244" d="M621.5206577 140.69411812h1.5390425V271.769236h-1.5390425z"/>
  <path fill="#1b1d1e" d="M609.20830504 144.66997786v-3.97585974h14.36439648s-12.05583276 1.02602832-14.36439648 3.97585974zm0 122.99514486v3.97585974h14.36439648c0 .12825354-12.05583276-.89777478-14.36439648-3.97585974z"/>
  <path fill="#0e1214" d="M611.26036168 113.3761141v.76952124c-.25650708 0-.6412677-.12825354-.6412677-.38476062s.25650708-.38476062.6412677-.38476062z"/>
  <path fill="#5e5e60" d="M623.05968736 113.3761141v.76952124c.25650708 0 .6412677-.12825354.6412677-.38476062-.12825354-.25650708-.38476062-.38476062-.6412677-.38476062z"/>
  <path fill="#393d3f" d="M611.2603745 113.37611667h11.79932543v.76952126H611.2603745z"/>
  <path fill="#0e1214" d="M611.26036168 120.4300588v.76952124c-.25650708 0-.6412677-.12825354-.6412677-.38476062s.25650708-.38476062.6412677-.38476062z"/>
  <path fill="#5e5e60" d="M623.05968736 120.4300588v.76952124c.25650708 0 .6412677-.12825354.6412677-.38476062-.12825354-.25650708-.38476062-.38476062-.6412677-.38476062z"/>
  <path fill="#393d3f" d="M611.2603745 120.43006137h11.79932543v.76952126H611.2603745z"/>
  <path fill="#0e1214" d="M594.58740148 120.4300588v.76952124c-.25650708 0-.6412677-.12825354-.6412677-.38476062.12825354-.25650708.38476062-.38476062.6412677-.38476062z"/>
  <path fill="#5e5e60" d="M606.38672716 120.4300588v.76952124c.25650708 0 .6412677-.12825354.6412677-.38476062-.12825354-.25650708-.38476062-.38476062-.6412677-.38476062z"/>
  <path fill="#393d3f" d="M594.5874143 120.43006137h11.79932543v.76952126H594.5874143z"/>
  <path fill="#0e1214" d="M596.76771166 113.3761141v.76952124c-.25650708 0-.6412677-.12825354-.6412677-.38476062.12825354-.25650708.38476062-.38476062.6412677-.38476062z"/>
  <path fill="#5e5e60" d="M606.38672716 113.3761141v.76952124c.25650708 0 .6412677-.12825354.6412677-.38476062-.12825354-.25650708-.38476062-.38476062-.6412677-.38476062z"/>
  <path fill="#393d3f" d="M596.76769883 113.37611667h9.6190155v.76952126h-9.6190155z"/>
  <path fill="#0e1214" d="M611.26036168 299.08724002v-.76952124c-.25650708 0-.6412677.12825354-.6412677.38476062s.25650708.38476062.6412677.38476062z"/>
  <path fill="#5e5e60" d="M623.05968736 299.08724002v-.76952124c.25650708 0 .6412677.12825354.6412677.38476062-.12825354.25650708-.38476062.38476062-.6412677.38476062z"/>
  <path fill="#393d3f" d="M611.2603745 298.3177316h11.79932543v.76952127H611.2603745z"/>
  <path fill="#0e1214" d="M611.26036168 292.03329532v-.76952124c-.25650708 0-.6412677.12825354-.6412677.38476062 0 .12825354.25650708.38476062.6412677.38476062z"/>
  <path fill="#5e5e60" d="M623.05968736 292.03329532v-.76952124c.25650708 0 .6412677.12825354.6412677.38476062-.12825354.12825354-.38476062.38476062-.6412677.38476062z"/>
  <path fill="#393d3f" d="M611.2603745 291.2637869h11.79932543v.76952127H611.2603745z"/>
  <path fill="#0e1214" d="M594.58740148 292.03329532v-.76952124c-.25650708 0-.6412677.12825354-.6412677.38476062.12825354.12825354.38476062.38476062.6412677.38476062z"/>
  <path fill="#5e5e60" d="M606.38672716 292.03329532v-.76952124c.25650708 0 .6412677.12825354.6412677.38476062-.12825354.12825354-.38476062.38476062-.6412677.38476062z"/>
  <path fill="#393d3f" d="M594.5874143 291.2637869h11.79932543v.76952127H594.5874143z"/>
  <path fill="#0e1214" d="M596.76771166 299.08724002v-.76952124c-.25650708 0-.6412677.12825354-.6412677.38476062.12825354.25650708.38476062.38476062.6412677.38476062z"/>
  <path fill="#5e5e60" d="M606.38672716 299.08724002v-.76952124c.25650708 0 .6412677.12825354.6412677.38476062-.12825354.25650708-.38476062.38476062-.6412677.38476062z"/>
  <path fill="#393d3f" d="M596.76769883 298.3177316h9.6190155v.76952127h-9.6190155z"/>
  <path d="M625.7530117 110.81104587h2.82157788v9.1060012h-2.82157788zm-32.96115978.2565045h2.43681726c-1.02602832 2.69332435-1.79554956 5.64315577-2.43681726 8.84949427h-2.30856372c.51301416-3.07808496 1.2825354-6.15616992 2.30856372-8.84949426m32.96115978 181.8635069h2.82157788v9.1060012h-2.82157788zm-32.96115978 8.97776062h2.43681726c-1.02602832-2.69332434-1.79554956-5.64315576-2.43681726-8.84949426h-2.30856372c.51301416 3.07808496 1.2825354 6.02791638 2.30856372 8.84949426"/>
  <path fill="#2a2c2e" d="M585.73790722 320.24907412V92.72729416c0-10.38853674 8.46473364-18.85327038 18.72501684-18.85327038h8.72124072c18.21200268 0 23.85515844 11.79932568 26.67673632 29.62656774 0 .38476062 5.1301416 42.19541466 5.1301416 102.73108554v.38476062c0 60.53567088-5.1301416 102.34632492-5.1301416 102.73108554-2.82157788 17.82724206-8.46473364 29.62656774-26.67673632 29.62656774h-8.72124072c-10.38853674.12825354-18.72501684-8.3364801-18.72501684-18.72501684zm.38476062-113.5043829v113.63263644c0 10.13202966 8.20822656 18.34025622 18.46850976 18.34025622h8.72124072c17.9554956 0 23.47039782-11.67107214 26.2919757-29.37006066 0-.38476062 5.1301416-42.3236682 5.1301416-102.85933908s-5.1301416-102.47457846-5.1301416-102.85933908c-2.82157788-17.57073498-8.46473364-29.37006066-26.2919757-29.37006066h-8.72124072c-10.13202966 0-18.46850976 8.20822656-18.46850976 18.34025622v114.1456506z"/>
  <path fill="#3f3f3f" d="M572.91255322 207.0011983v-.89777478l2.43681726-114.40215768c.76952124-11.67107214 1.41078894-20.90532702 12.95360754-29.37006066 4.61712744-3.46284558 10.51679028-5.38664868 16.6729602-5.38664868h4.23236682c11.41456506 0 19.8792987 2.82157788 25.90721508 8.59298718 5.38664868 5.1301416 8.72124072 12.69710046 10.9015509 23.7269049 0 .51301416 5.25839514 48.7363452 5.25839514 117.09548202s-5.25839514 116.58246786-5.25839514 117.09548202c-2.05205664 11.02980444-5.51490222 18.5967633-10.9015509 23.7269049-5.89966284 5.7714093-14.36439648 8.59298718-25.90721508 8.59298718h-4.23236682c-6.02791638 0-12.05583276-1.9238031-16.6729602-5.38664868-11.41456506-8.46473364-12.05583276-17.69898852-12.95360754-29.37006066l-2.43681726-114.01739706zm77.97815232-.51301416c0-68.35913682-5.25839514-116.58246786-5.25839514-117.09548202-4.23236682-22.4443695-15.13391772-32.063385-36.29575182-32.063385h-4.23236682c-6.02791638 0-11.79932568 1.9238031-16.41645312 5.25839514-11.28631152 8.3364801-11.92757922 17.44248144-12.69710046 28.98530004l-2.43681726 114.7869183 2.43681726 114.7869183c.76952124 11.5428186 1.41078894 20.64881994 12.69710046 28.98530004 4.61712744 3.33459204 10.38853674 5.25839514 16.41645312 5.25839514h4.23236682c21.1618341 0 32.063385-9.6190155 36.29575182-32.063385 0-.25650708 5.25839514-48.47983812 5.25839514-116.83897494z"/>
  <path fill="#2a2c2e" d="M503.78389516 206.48818414c3.59109912-65.15279832 35.14146996-108.75900192 58.09885362-140.69413338 2.43681726-3.46284558 4.74538098-6.66918408 6.92569116-9.74726904 2.69332434-3.07808496 6.66918408-7.31045178 10.00377612-9.87552258 10.77329736-7.95171948 22.4443695-10.2602832 30.39608898-10.77329736 1.02602832.12825354 2.18031018.12825354 3.2063385.25650708 12.44059338.89777478 28.08752526 2.05205664 38.73256908 21.29008764 8.3364801 11.28631152 12.1840863 95.5488873 11.5428186 149.4153741h-.38476062c.6412677-53.8664868-3.2063385-138.00080904-11.5428186-149.15886702-10.64504382-19.10977746-26.03546862-20.26405932-38.476062-21.1618341-1.15428186-.12825354-2.18031018-.12825354-3.2063385-.25650708-7.82346594.51301416-19.49453808 2.82157788-30.1395819 10.64504382-3.33459204 2.43681726-7.18219824 6.66918408-9.87552258 9.74726904-2.18031018 3.07808496-4.4888739 6.28442346-6.92569116 9.74726904-22.95738366 31.80687792-54.5077545 75.41308152-58.09885362 140.4376263v.12825354c3.59109912 65.02454478 35.01321642 108.63074838 58.09885362 140.4376263 2.43681726 3.46284558 4.74538098 6.66918408 6.92569116 9.74726904 2.69332434 3.07808496 6.54093054 7.31045178 9.87552258 9.74726904 10.77329736 7.95171948 22.31611596 10.13202966 30.1395819 10.64504382 1.02602832-.12825354 2.05205664-.12825354 3.2063385-.25650708 12.44059338-.89777478 27.83101818-2.05205664 38.476062-21.1618341 8.3364801-11.15805798 12.05583276-95.29238022 11.5428186-149.15886702h.38476062c.6412677 53.99474034-3.2063385 138.12906258-11.5428186 149.4153741-10.77329736 19.238031-26.2919757 20.39231286-38.73256908 21.29008764-1.15428186.12825354-2.18031018.12825354-3.2063385.25650708-7.95171948-.51301416-19.62279162-2.82157788-30.39608898-10.77329736-3.33459204-2.43681726-7.31045178-6.66918408-10.00377612-9.74726904-2.18031018-3.07808496-4.4888739-6.28442346-6.92569116-9.74726904-23.0856372-31.93513146-54.63600804-75.54133506-58.09885362-140.69413338z"/>
  <path fill="#1b1d1e" d="M600.1023037 392.71232422c-1.79554956 0-3.33459204-1.2825354-3.33459204-2.82157788v-7.6952124c0-1.53904248 1.53904248-2.94983142 3.33459204-2.94983142s3.33459204 1.2825354 3.33459204 2.94983142v7.56695886c0 1.66729602-1.53904248 2.94983142-3.33459204 2.94983142z"/>
  <path fill="#2e3233" d="M600.1023037 390.66026758c-1.15428186 0-2.18031018-.89777478-2.18031018-2.05205664v-5.25839514c0-1.15428186 1.02602832-2.05205664 2.18031018-2.05205664 1.15428186 0 2.18031018.89777478 2.18031018 2.05205664v5.25839514c0 1.15428186-1.02602832 2.05205664-2.18031018 2.05205664z"/>
  <path d="M602.2826267 383.34980298h1.15428184v5.258395h-1.15428183zm-5.51492787 0h1.15428184v5.258395h-1.15428184z"/>
  <path fill="#1b1d1e" d="M610.49084044 392.71232422c-1.79554956 0-3.33459204-1.2825354-3.33459204-2.82157788v-7.6952124c0-1.53904248 1.53904248-2.94983142 3.33459204-2.94983142s3.33459204 1.2825354 3.33459204 2.94983142v7.56695886c0 1.66729602-1.53904248 2.94983142-3.33459204 2.94983142z"/>
  <path fill="#2e3233" d="M610.49084044 390.66026758c-1.15428186 0-2.18031018-.89777478-2.18031018-2.05205664v-5.25839514c0-1.15428186 1.02602832-2.05205664 2.18031018-2.05205664 1.15428186 0 2.18031018.89777478 2.18031018 2.05205664v5.25839514c0 1.15428186-.89777478 2.05205664-2.18031018 2.05205664z"/>
  <path d="M612.6711378 383.34980298h1.15428183v5.258395h-1.15428184zm-5.5148894 0h1.15428183v5.258395h-1.15428183z"/>
  <path fill="#1b1d1e" d="M620.87937718 392.71232422c-1.79554956 0-3.33459204-1.2825354-3.33459204-2.82157788v-7.6952124c0-1.53904248 1.53904248-2.94983142 3.33459204-2.94983142s3.33459204 1.2825354 3.33459204 2.94983142v7.56695886c0 1.66729602-1.41078894 2.94983142-3.33459204 2.94983142z"/>
  <path fill="#2e3233" d="M620.87937718 390.66026758c-1.15428186 0-2.18031018-.89777478-2.18031018-2.05205664v-5.25839514c0-1.15428186 1.02602832-2.05205664 2.18031018-2.05205664 1.15428186 0 2.18031018.89777478 2.18031018 2.05205664v5.25839514c.12825354 1.15428186-.89777478 2.05205664-2.18031018 2.05205664z"/>
  <path d="M623.1879409 383.34980298h1.15428183v5.258395h-1.15428183zm-5.5148894 0h1.15428184v5.258395h-1.15428183z"/>
  <path fill="#1b1d1e" d="M600.1023037 20.26404406c-1.79554956 0-3.33459204 1.2825354-3.33459204 2.82157788v7.6952124c0 1.53904248 1.53904248 2.94983142 3.33459204 2.94983142s3.33459204-1.2825354 3.33459204-2.94983142v-7.56695886c0-1.66729602-1.41078894-2.94983142-3.33459204-2.94983142z"/>
  <path fill="#2e3233" d="M600.1023037 22.3161007c-1.15428186 0-2.18031018.89777478-2.18031018 2.05205664v5.25839514c0 1.15428186 1.02602832 2.05205664 2.18031018 2.05205664 1.15428186 0 2.18031018-.89777478 2.18031018-2.05205664v-5.25839514c.12825354-1.15428186-.89777478-2.05205664-2.18031018-2.05205664z"/>
  <path d="M602.4108546 24.36815734h1.15428183v5.258395h-1.15428184zm-5.5148894 0h1.15428183v5.258395h-1.15428183z"/>
  <path fill="#1b1d1e" d="M610.61909398 20.26404406c-1.79554956 0-3.33459204 1.2825354-3.33459204 2.82157788v7.6952124c0 1.53904248 1.53904248 2.94983142 3.33459204 2.94983142s3.33459204-1.2825354 3.33459204-2.94983142v-7.56695886c-.12825354-1.66729602-1.53904248-2.94983142-3.33459204-2.94983142z"/>
  <path fill="#2e3233" d="M610.61909398 22.3161007c-1.15428186 0-2.18031018.89777478-2.18031018 2.05205664v5.25839514c0 1.15428186 1.02602832 2.05205664 2.18031018 2.05205664 1.15428186 0 2.18031018-.89777478 2.18031018-2.05205664v-5.25839514c0-1.15428186-1.02602832-2.05205664-2.18031018-2.05205664z"/>
  <path d="M612.79939133 24.36815734h1.15428184v5.258395h-1.15428184zm-5.51487656 0h1.15428183v5.258395h-1.15428183z"/>
  <path fill="#1b1d1e" d="M621.00763072 20.26404406c-1.79554956 0-3.33459204 1.2825354-3.33459204 2.82157788v7.6952124c0 1.53904248 1.53904248 2.94983142 3.33459204 2.94983142s3.33459204-1.2825354 3.33459204-2.94983142v-7.56695886c0-1.66729602-1.53904248-2.94983142-3.33459204-2.94983142z"/>
  <path fill="#2e3233" d="M621.00763072 22.3161007c-1.15428186 0-2.18031018.89777478-2.18031018 2.05205664v5.25839514c0 1.15428186 1.02602832 2.05205664 2.18031018 2.05205664 1.15428186 0 2.18031018-.89777478 2.18031018-2.05205664v-5.25839514c0-1.15428186-1.02602832-2.05205664-2.18031018-2.05205664z"/>
  <path d="M623.1879409 24.36815734h1.15428183v5.258395h-1.15428183zm-5.5148894 0h1.15428184v5.258395h-1.15428183z"/>
  <path fill="#171819" d="M572.65604614 398.86849414c-.6412677 0-27.5745111-.25650708-38.73256908-1.79554956-11.41456506-1.53904248-25.13769384 1.41078894-34.75670934-20.77707348-9.49076196-22.18786242-17.82724206-55.53378282-23.34214428-103.37235324-5.51490222-47.83857042-4.87363452-106.96345236 2.94983142-153.77599446 7.95171948-46.68428856 13.97963586-72.71975718 20.90532702-87.08415366 7.31045178-15.3904248 20.26405932-17.05772082 32.57639916-17.3142279 6.412677-.12825354 38.60431554-.51301416 47.96682396-.6412677-8.3364801.12825354-14.87741064.6412677-17.3142279 1.41078894l-1.41078894.51301416c-7.82346594 2.5650708-14.62090356 4.87363452-18.5967633 15.90343896-1.41078894 3.8476062-3.97585974 13.08186108-7.0539447 23.7269049-5.38664868 19.10977746-12.825354 45.14524608-17.05772082 53.48172618-6.66918408 13.21011462-19.62279162 44.11921776-22.4443695 52.5839514l-2.82157788 8.59298718c-.25650708.6412677-5.64315576 15.13391772-5.64315576 36.29575182s5.38664868 35.52623058 5.64315576 36.03924474l2.82157788 8.72124072c2.82157788 8.59298718 15.64693188 39.37383678 22.4443695 52.5839514 4.23236682 8.3364801 11.67107214 34.37194872 17.05772082 53.48172618 3.07808496 10.64504382 5.64315576 19.8792987 7.0539447 23.7269049 4.10411328 11.15805798 10.77329736 13.33836816 18.5967633 15.90343896l1.41078894.51301416c1.66729602.6412677 5.1301416 1.02602832 9.74726904 1.2825354z"/>
  <path fill="#0b0c0d" d="M676.54141354 149.41535884c-1.2825354-28.2157788-3.2063385-50.14713414-4.87363452-65.28105186-3.07808496-29.24180712-.6412677-50.40364122-29.88307482-61.94645982-16.28819958-6.412677-68.6156439-7.6952124-76.82387046-4.87363452-8.20822656 2.82157788-14.36439648 4.36062036-18.21200268 15.13391772-3.8476062 10.77329736-17.18597436 64.38327708-23.59865136 77.46513816-6.54093054 13.08186108-18.98152392 43.6062036-21.8031018 52.32744432l-2.82157788 8.72124072s-5.38664868 14.62090356-5.38664868 35.65448412c0 21.03358056 5.38664868 35.65448412 5.38664868 35.65448412l2.82157788 8.72124072c2.82157788 8.72124072 15.26217126 39.37383678 21.8031018 52.32744432 6.54093054 13.08186108 19.75104516 66.6918408 23.59865136 77.46513816 3.8476062 10.77329736 10.13202966 12.31233984 18.21200268 15.13391772 8.20822656 2.82157788 60.53567088 1.53904248 76.82387046-4.87363452 29.37006066-11.5428186 26.9332434-32.7046527 29.88307482-61.94645982 1.53904248-15.13391772 3.59109912-37.32178014 4.87363452-65.53755894.76952124-16.92946728 1.2825354-36.16749828 1.2825354-57.0728253v-.12825354c0-21.1618341-.51301416-40.14335802-1.2825354-56.94457176m2.05205664-.12825354c.76952124 16.92946728 1.2825354 36.16749828 1.2825354 57.0728253v.12825354c0 20.90532702-.51301416 39.88685094-1.2825354 56.81631822-1.02602832 22.57262304-2.69332434 44.50397838-5.00188806 65.79406602-.38476062 3.71935266-.76952124 7.43870532-1.02602832 10.9015509-2.05205664 23.59865136-3.59109912 42.19541466-30.90910314 52.71220494-12.05583276 4.61712744-41.81065404 6.54093054-61.81820628 6.28442346h-1.02602832c-8.3364801-.12825354-14.87741064-.6412677-17.3142279-1.41078894l-1.41078894-.51301416c-7.82346594-2.5650708-14.49265002-4.87363452-18.5967633-15.90343896-1.41078894-3.8476062-3.97585974-13.08186108-7.0539447-23.7269049-5.38664868-19.10977746-12.825354-45.14524608-17.05772082-53.48172618-6.66918408-13.21011462-19.62279162-44.11921776-22.4443695-52.5839514l-2.82157788-8.59298718c-.25650708-.6412677-5.64315576-15.13391772-5.64315576-36.29575182s5.38664868-35.65448412 5.64315576-36.29575182l2.82157788-8.59298718c2.82157788-8.59298718 15.64693188-39.37383678 22.4443695-52.5839514 4.23236682-8.3364801 11.67107214-34.37194872 17.05772082-53.48172618 3.07808496-10.64504382 5.64315576-19.8792987 7.0539447-23.7269049 4.10411328-11.15805798 10.77329736-13.33836816 18.5967633-15.90343896l1.53904248-.51301416c2.43681726-.76952124 8.9777478-1.2825354 17.3142279-1.41078894h1.02602832c20.00755224-.25650708 49.76237352 1.66729602 61.81820628 6.28442346 27.31800402 10.51679028 28.98530004 29.11355358 30.90910314 52.71220494.25650708 3.46284558.6412677 7.18219824 1.02602832 10.9015509 2.18031018 21.29008764 3.8476062 42.9649359 4.87363452 65.4093054"/>
  <path fill="#c5baba" d="M526.10001112 288.18568912s0-.12825354-.12825354-.25650708c-1.02602832-2.43681726-2.05205664-4.87363452-3.07808496-7.43870532-15.00566418-38.86082262-19.36628454-56.30330406-19.36628454-73.61753196 0-11.92757922 2.05205664-23.85515844 8.20822656-42.83668236 0 0 13.4666217-36.42400536 14.62090356-39.24558324 1.79554956.6412677 6.412677 2.5650708 11.5428186 5.7714093 6.28442346 3.8476062 13.33836816 9.6190155 17.44248144 17.57073498.25650708.51301416.51301416.89777478.6412677 1.41078894 6.92569116 15.51867834 6.412677 40.65637218 6.412677 57.58583946 0 16.92946728.51301416 41.81065404-6.412677 57.32933238-.25650708.51301416-.51301416.89777478-.6412677 1.41078894-5.51490222 10.64504382-16.54470666 16.80121374-23.59865136 20.00755224-2.5650708 1.15428186-4.61712744 1.9238031-5.64315576 2.30856372z"/>
  <path fill="#2f3134" d="M505.8359518 205.84691644c0-37.32178014 18.08374914-65.92231956 33.08941332-65.92231956s21.1618341 28.60053942 21.1618341 65.92231956-6.15616992 65.92231956-21.1618341 65.92231956c-14.87741064 0-33.08941332-28.60053942-33.08941332-65.92231956z"/>
  <path fill="#c5baba" d="M512.8898965 244.1947249c5.64315576-.12825354 10.38853674-6.66918408 10.38853674-14.7491571v-47.19730272c0-8.07997302-4.74538098-14.62090356-10.38853674-14.7491571l.51301416-1.2825354c6.28442346.12825354 11.15805798 7.31045178 11.15805798 16.0316925v47.19730272c0 8.72124072-5.00188806 15.90343896-11.28631152 16.0316925l-.38476062-1.2825354z"/>
  <path fill="#c5baba" d="M517.12226332 187.63491376c1.02602832 0 1.9238031.38476062 2.5650708 1.02602832s1.02602832 1.53904248 1.02602832 2.43681726v5.00188806h-1.41078894v-4.61712744c0-.76952124-.25650708-1.2825354-.6412677-1.66729602s-.89777478-.6412677-1.53904248-.6412677-1.15428186.25650708-1.53904248.6412677-.6412677 1.02602832-.6412677 1.66729602v.76952124c0 .6412677-.12825354 1.15428186-.51301416 1.41078894-.38476062.38476062-.76952124.51301416-1.2825354.51301416s-.89777478-.12825354-1.2825354-.51301416-.51301416-.76952124-.51301416-1.41078894v-4.61712744h1.53904248v4.61712744c0 .25650708.12825354.38476062.25650708.38476062s.25650708-.12825354.25650708-.38476062v-1.15428186c0-.89777478.38476062-1.66729602 1.02602832-2.43681726.76952124-.76952124 1.66729602-1.02602832 2.69332434-1.02602832zm0 1.9238031c.51301416 0 .89777478.12825354 1.2825354.51301416s.51301416.76952124.51301416 1.41078894v4.61712744h-1.53904248v-4.61712744c0-.25650708-.12825354-.38476062-.25650708-.38476062s-.25650708.12825354-.25650708.38476062v1.15428186c0 .89777478-.38476062 1.66729602-1.02602832 2.43681726-.76952124.76952124-1.53904248 1.02602832-2.5650708 1.02602832s-1.9238031-.38476062-2.5650708-1.02602832c-.76952124-.76952124-1.02602832-1.53904248-1.02602832-2.43681726v-5.00188806h1.53904248v4.61712744c0 .76952124.25650708 1.2825354.6412677 1.66729602s.89777478.6412677 1.53904248.6412677 1.15428186-.25650708 1.53904248-.6412677.6412677-1.02602832.6412677-1.66729602v-.76952124c0-.6412677.12825354-1.15428186.51301416-1.41078894.12825354-.38476062.51301416-.51301416 1.02602832-.51301416zm.12825354 7.31045178c2.30856372 0 3.46284558 1.15428186 3.46284558 3.46284558v4.61712744h-1.41078894v-4.61712744c0-1.2825354-.6412677-1.9238031-1.9238031-1.9238031h-4.23236682c-1.2825354 0-1.9238031.6412677-1.9238031 1.9238031v4.61712744H509.683558v-4.61712744c0-2.30856372 1.15428186-3.46284558 3.46284558-3.46284558h4.10411328zm-1.9238031 2.05205664h1.9238031c1.02602832 0 1.53904248.51301416 1.53904248 1.53904248v4.61712744h-1.53904248v-4.23236682c0-.25650708-.12825354-.38476062-.38476062-.38476062v3.46284558h-1.53904248v-5.00188806zm-.38476062 0v5.00188806h-1.53904248v-3.46284558c-.25650708 0-.38476062.12825354-.38476062.38476062v4.23236682h-1.53904248v-4.61712744c0-1.02602832.51301416-1.53904248 1.53904248-1.53904248h1.9238031zm2.30856372 6.92569116c2.30856372 0 3.46284558 1.15428186 3.46284558 3.46284558v4.61712744h-1.41078894v-4.61712744c0-1.2825354-.6412677-1.9238031-1.9238031-1.9238031h-4.23236682c-1.2825354 0-1.9238031.6412677-1.9238031 1.9238031v3.07808496h4.23236682v-2.69332434h1.53904248v4.23236682h-7.43870532v-4.61712744c0-2.30856372 1.15428186-3.46284558 3.46284558-3.46284558h4.23236682zm0 1.9238031c1.02602832 0 1.53904248.51301416 1.53904248 1.53904248v4.61712744h-1.53904248v-4.23236682c0-.25650708-.12825354-.38476062-.38476062-.38476062h-3.46284558c-.25650708 0-.38476062.12825354-.38476062.38476062v.76952124h.38476062v-.76952124h1.53904248v2.30856372h-3.46284558v-2.69332434c0-1.02602832.51301416-1.53904248 1.53904248-1.53904248h4.23236682zm-6.15616992 11.67107214v4.61712744l7.95171948-3.07808496c.12825354-.12825354.25650708-.25650708.25650708-.51301416s-.12825354-.38476062-.25650708-.51301416l-9.49076196-3.46284558v-1.53904248l10.00377612 3.59109912c.89777478.38476062 1.2825354 1.02602832 1.2825354 1.9238031 0 1.02602832-.38476062 1.66729602-1.2825354 1.9238031l-10.00377612 3.71935266v-6.66918408h1.53904248zm.38476062 0h.89777478l-2.82157788-1.15428186v-1.53904248l9.10600134 3.33459204c.12825354 0 .25650708.12825354.25650708.25650708s-.12825354.25650708-.25650708.25650708l-7.18219824 2.69332434v-3.8476062zm3.33459204.89777478l-1.79554956-.76952124v1.41078894l1.79554956-.6412677z"/>
  <path fill="#f2ba5c" d="M530.2041244 177.88764472v69.8981793h5.89966284l3.33459204-3.97585974v-75.54133506m12.44059338 12.825354h-2.43681726c-.51301416 0-.76952124-.25650708-1.02602832-.89777478s-.25650708-1.41078894-.25650708-2.43681726c0-1.02602832.12825354-1.9238031.25650708-2.5650708.25650708-.6412677.51301416-1.02602832 1.02602832-1.02602832h2.5650708v2.69332434h-2.43681726c-.12825354 0-.25650708.12825354-.38476062.25650708s-.12825354.38476062-.12825354.76952124c0 .25650708 0 .51301416.12825354.76952124 0 .25650708.12825354.25650708.25650708.38476062h2.5650708v2.05205664zm-2.43681726 3.46284558h-1.41078894v-2.30856372h3.71935266v3.2063385c0 .76952124 0 1.41078894-.12825354 1.79554956s-.25650708.76952124-.38476062 1.02602832-.38476062.38476062-.6412677.38476062c-.38476062 0-.6412677-.25650708-.89777478-.76952124s-.38476062-1.15428186-.38476062-2.05205664v-1.2825354zm.76952124 0v.76952124c0 .6412677.12825354 1.02602832.38476062 1.02602832s.38476062-.25650708.38476062-.89777478v-.89777478h-.76952124zm-1.2825354 10.38853674h-.89777478v-5.64315576h3.71935266v5.64315576h-.89777478v-3.46284558h-.51301416v2.69332434h-.89777478v-2.69332434h-.6412677v3.46284558zm-.89777478 6.92569116v-2.5650708l1.41078894-1.02602832v-.76952124h-1.41078894v-2.30856372h3.71935266v3.8476062c0 .89777478-.12825354 1.53904248-.25650708 1.9238031-.25650708.51301416-.51301416.76952124-.76952124.76952124s-.38476062-.12825354-.51301416-.25650708-.25650708-.51301416-.38476062-1.02602832l-1.79554956 1.41078894zm2.30856372-4.23236682v1.02602832c0 .25650708 0 .51301416.12825354.6412677 0 .12825354.12825354.25650708.25650708.25650708.25650708 0 .38476062-.25650708.38476062-.89777478v-1.02602832h-.76952124zm-2.30856372-27.5745111c0-.6412677 0-1.15428186.12825354-1.53904248s.12825354-.76952124.25650708-1.15428186c.12825354-.25650708.25650708-.51301416.38476062-.6412677s.38476062-.25650708.51301416-.25650708v1.53904248c-.12825354 0-.25650708.12825354-.38476062.25650708s-.12825354.25650708-.25650708.51301416c0 .12825354-.12825354.38476062-.12825354.6412677v1.41078894c0 .25650708 0 .38476062.12825354.51301416 0 .12825354.12825354.25650708.12825354.38476062s.12825354.12825354.25650708.12825354.12825354 0 .25650708-.12825354c0-.12825354.12825354-.25650708.12825354-.38476062s.12825354-.38476062.12825354-.6412677.12825354-.6412677.12825354-1.02602832c0-.51301416.12825354-.89777478.12825354-1.2825354s.12825354-.6412677.25650708-.89777478.12825354-.38476062.25650708-.51301416.25650708-.12825354.38476062-.12825354.25650708.12825354.38476062.25650708.25650708.38476062.38476062.6412677.12825354.6412677.25650708.89777478c0 .38476062.12825354.76952124.12825354 1.2825354s0 .89777478-.12825354 1.2825354-.12825354.76952124-.25650708 1.02602832-.25650708.51301416-.38476062.6412677-.38476062.25650708-.51301416.25650708v-1.53904248c.38476062-.12825354.6412677-.6412677.6412677-1.66729602 0-.51301416 0-.89777478-.12825354-1.15428186s-.12825354-.38476062-.25650708-.38476062c0 0-.12825354 0-.12825354.12825354 0 0-.12825354.12825354-.12825354.25650708s-.12825354.25650708-.12825354.51301416 0 .38476062-.12825354.76952124c0 .25650708 0 .51301416-.12825354.76952124 0 .25650708 0 .51301416-.12825354.76952124 0 .25650708-.12825354.51301416-.12825354.6412677 0 .25650708-.12825354.38476062-.25650708.6412677-.12825354.12825354-.12825354.25650708-.25650708.38476062s-.25650708.12825354-.38476062.12825354-.38476062-.12825354-.51301416-.25650708-.25650708-.38476062-.38476062-.6412677-.12825354-.6412677-.25650708-1.02602832c.12825354-.51301416.12825354-1.02602832.12825354-1.41078894z"/>
  <path fill="#f2ba5c" d="M531.74316688 187.63491376h2.82157788l.12825354.38476062c1.53904248 4.36062036 5.51490222 11.28631152 6.66918408 11.5428186.12825354 0 .38476062 0 .51301416-.12825354.38476062-.25650708.6412677-.89777478.6412677-1.41078894 0-.76952124-.51301416-1.41078894-1.15428186-1.53904248h-.38476062v-8.9777478l.76952124.25650708c3.33459204.89777478 5.51490222 5.00188806 5.51490222 10.64504382 0 6.28442346-2.30856372 10.64504382-5.51490222 10.64504382-2.30856372 0-4.23236682-2.30856372-5.64315576-7.0539447v6.66918408h-4.4888739v-21.03358056z"/>
  <path fill="#2f3134" d="M541.36218238 200.20376068c1.02602832.25650708 1.9238031-.89777478 1.9238031-2.18031018 0-1.02602832-.6412677-1.9238031-1.53904248-2.05205664v-7.6952124c2.82157788.76952124 5.00188806 4.4888739 5.00188806 10.13202966 0 5.64315576-1.9238031 10.13202966-4.87363452 10.13202966-2.5650708 0-4.36062036-3.71935266-5.51490222-8.20822656h-.76952124v7.82346594h-3.2063385V188.404435h1.79554956c1.41078894 3.33459204 5.38664868 11.28631152 7.18219824 11.79932568z"/>
  <path fill="#f2ba5c" d="M531.10189918 176.2203487c0-2.69332434.38476062-7.6952124 2.5650708-9.87552258.76952124-.76952124 1.66729602-1.15428186 2.69332434-1.15428186h.6412677v8.84949426l-.51301416.12825354c-.51301416.12825354-1.02602832.89777478-1.02602832 1.9238031 0 1.2825354.51301416 2.30856372 1.02602832 2.30856372s1.02602832-.89777478 1.02602832-2.30856372v-.51301416l-.12825354-.6412677h3.97585974l-.12825354.89777478v.25650708c0 1.02602832.51301416 1.79554956.89777478 1.79554956s.89777478-.76952124.89777478-1.79554956c0-.89777478-.38476062-1.66729602-.89777478-1.79554956l-.51301416-.12825354v-8.07997302h.6412677c1.2825354 0 2.69332434 1.15428186 3.46284558 3.07808496.76952124 1.79554956 1.2825354 4.23236682 1.2825354 7.31045178 0 5.1301416-1.41078894 10.2602832-4.10411328 10.2602832-1.15428186 0-2.30856372-1.02602832-3.07808496-2.5650708-.76952124 2.30856372-2.43681726 3.2063385-3.71935266 3.2063385-2.69332434-.12825354-5.00188806-4.87363452-5.00188806-11.15805798z"/>
  <path fill="#2f3134" d="M536.36029432 165.83181196v7.6952124c-.89777478.12825354-1.53904248 1.2825354-1.53904248 2.5650708 0 1.53904248.76952124 2.82157788 1.66729602 2.82157788s1.66729602-1.2825354 1.66729602-2.82157788v-.51301416h2.69332434v.51301416c0 1.2825354.6412677 2.43681726 1.53904248 2.43681726s1.53904248-1.02602832 1.53904248-2.43681726c0-1.15428186-.6412677-2.18031018-1.41078894-2.30856372v-7.0539447c.89777478 0 2.18031018 1.02602832 2.94983142 2.69332434.89777478 1.79554956 1.15428186 4.36062036 1.15428186 7.0539447 0 5.38664868-1.53904248 9.6190155-3.59109912 9.6190155-1.15428186 0-2.30856372-1.53904248-2.94983142-4.10411328h-.6412677c-.38476062 3.2063385-1.66729602 4.61712744-3.2063385 4.61712744-2.5650708 0-4.61712744-4.61712744-4.61712744-10.38853674.12825354-5.64315576 1.53904248-10.38853674 4.74538098-10.38853674"/>
  <path fill="#f2ba5c" d="M530.71713856 246.50328862v-23.34214428l.12825354-.12825354 21.29008764-21.93135534v23.98341198l-20.90532702 21.54659472-.25650708-.25650708h-.25650708zm.6412677-23.0856372v22.18786242l20.26405932-20.77707348v-22.18786242l-20.26405932 20.77707348z"/>
  <path fill="#f2ba5c" d="M530.97364564 246.50328862v-23.21389074l20.90532702-21.41834118v23.0856372h-.12825354l-20.77707348 21.54659472"/>
  <path fill="#2f3134" d="M530.97364564 246.50328862v-23.21389074l20.90532702-21.41834118v23.0856372l-20.90532702 21.54659472"/>
  <path fill="#f2ba5c" d="M547.00533814 225.46970806l2.82157788 3.07808496v12.95360754l-8.84949426-9.49076196-9.23425488 10.13202966v-13.08186108l3.2063385-3.46284558-3.2063385-3.33459204v-13.08186108l9.23425488 9.74726904 8.84949426-9.74726904v13.08186108"/>
  <path fill="#2f3134" d="M540.97742176 219.8265523l8.3364801-9.10600134v11.28631152l-3.07808496 3.46284558 3.07808496 3.33459204v11.15805798l-8.3364801-8.84949426-8.59298718 9.36250842v-11.28631152l3.33459204-3.71935266-3.33459204-3.59109912v-11.15805798l8.59298718 9.10600134z"/>
  <g transform="matrix(1.2825354,0,0,1.2825354,-0.1242635,-1.5258789e-5)">
    <path fill="#312f2f" d="M22.9 0h9.4v1.8H298V0h9.3c20.7.8 22.8 18.8 22.8 18.8V284s.6 5.3-1.9 7.9c-4.8 5-21.5 21.5-25.2 25.3H24.2s-19.7-19-21.7-19.9c-1.4-1.9-2.4-5-2.4-12.7V18.8C0 18.8 2.2.9 22.9 0z"/>
    <path fill="#3f3f3f" d="M303.2 316.5c-.1.3-.1.5-.2.6H26s-7.6-127.7 38.7-134c8.5-1 19.2 1.2 43.4 7s88.7 5.8 112.9 0c24.2-5.8 34.8-7 43.4-7 16 0 25.9 15.6 31.9 36.2 10.7 37.1 8.7 90.3 6.9 97.2z"/>
    <path fill="#181515" d="M165.1 198.9c-32.7 0-39.2-1.6-44.8-2.4-5.6-.7-3.9 4.3-3.9 4.3s2.8 18.8 3.2 26c.4 7.2 8.1 6.2 8.1 6.2h74.9s7.7 1 8.1-6.2c.4-7.2 3.2-26 3.2-26s1.7-5.1-3.9-4.3c-5.6.8-12.2 2.4-44.9 2.4z"/>
    <ellipse cx="165.10001" cy="98" fill="#30302f" rx="140.7" ry="80.800003"/>
    <ellipse cx="165.10001" cy="97.900002" fill="#181515" rx="139.2" ry="79.300003"/>
    <ellipse cx="165.10001" cy="96" fill="#2c2929" rx="114.4" ry="64.300003"/>
    <path fill="#241c1e" d="M157.9 129.8h14.4l-7.3-7.4"/>
    <g fill="#929397">
      <path d="M187.1 221h-7v-1.6h4.8c-.3-1.1-.6-1.9-.9-2.8-.7-2.1-1.3-4.3-2.1-6.4-.2-.5-.7-1.2-1.1-1.3-.8-.2-1 .6-1.2 1.3-1.1 3.3-2.2 6.6-3.2 9.9-.2.8-.6 1-1.4 1-2.1-.1-4.3 0-6.5 0s-3.6-1.4-3.7-3.7v-6.1c.1-2.3 1.4-3.7 3.6-3.7h5.9v1.7h-5c-2.3 0-2.9.6-2.9 3v4.6c0 1.6.8 2.4 2.3 2.5h3.8v-5.3h-3.2v-1.7h5v7h.3c1.1-3.2 2.1-6.5 3.2-9.7.6-1.9 1.7-2.6 3.5-2.3 1 .2 1.7.7 2 1.7 1.3 3.9 2.5 7.8 3.8 11.7v.2zm-43.9 0v-1.7h5.5c1.5 0 2.7-1.1 2.7-2.6.1-1.4-1.1-2.6-2.6-2.7H147c-.9-.1-1.6-1-1.6-2s.7-2 1.6-2c2-.1 4 0 6.1 0v1.7h-5.8v.6c.6 0 1.1.1 1.7.1 2.1 0 3.6 1.3 4.2 3.4.6 2.6-1.2 5.3-3.7 5.4-2.2-.1-4.2-.2-6.3-.2z"/>
      <path d="M143.2 218.7v-1.8h5.9v-.5c-.6 0-1.2-.1-1.8-.1-1.7 0-3-.8-3.7-2.4-.8-1.6-.6-3.2.4-4.6.7-1 1.6-1.7 2.8-1.7 2.1-.1 4.2 0 6.3 0v1.7h-5.6c-1.9 0-3.1 1.8-2.5 3.5.3 1 1.3 1.8 2.5 1.8h1.7c.9.1 1.6 1 1.7 2 0 1-.7 2-1.6 2-2 .1-4 .1-6.1.1zm20.7-11.1v1.7h-5.5c-1.9 0-2.6.7-2.6 2.7v4.8c0 1.9.7 2.6 2.5 2.6h5.6v1.7h-6.7c-1.6-.1-3-1.6-3-3.2-.1-2.3-.1-4.7 0-7.1 0-1.5 1.3-3.1 2.7-3.1 2.4-.2 4.7-.1 7-.1zm12.6 13.4c1.2-3.7 2.3-7.3 3.5-10.8.1-.3.3-.5.6-.6.1 0 .5.2.6.4 1 2.9 1.9 5.8 2.9 8.7h-4c0-.4-.1-.8-.1-1.2-.1 0-.1 0-.2-.1-.2.7-.5 1.3-.7 2-.6 1.8-.6 1.8-2.6 1.6zm3.5-4.3h1.4c-.2-.7-.4-1.3-.6-1.8h-.2c-.2.6-.4 1.1-.6 1.8zm-9.4-.2c-.5-.2-.8-.2-1.2-.3v-1.5h2.6v4c-1.3 0-2.7.1-4-.1-.3 0-.9-.7-.9-1.1-.1-2.1-.1-4.3 0-6.4 0-.7.4-1.2 1.2-1.2h6v1.7h-4.4c-.9 0-1.2.3-1.2 1.2.1 1 0 2 0 3 .1 1.2.6 1.5 1.9.7z"/>
      <path d="M158.2 216.8c1.8.3 3.7 0 5.6.2v1.6c-2.2 0-4.3.1-6.4-.1-.3 0-.8-.7-.9-1.2-.1-.9 0-1.8 0-2.7h6.1v1.6h-4.2c-.1.3-.1.4-.2.6zm5.7-6.9v1.6c-1.9.3-3.8-.2-5.7.2v.4h4.3v1.7h-6c0-1-.1-2 0-3 0-.4.6-.9.9-.9h6.5z"/>
    </g>
    <path fill="#241c1e" d="M141.1 134l-1.2.1c0-.8-.3-1.3-.8-1.3-.6 0-.9.6-.9 1.9 0 .7.1 1.3.3 1.5.2.3.4.4.7.4.5 0 .8-.4.9-1.1l1.1.1c-.1.7-.3 1.3-.7 1.6-.4.3-.8.6-1.4.6-.7 0-1.2-.3-1.6-.8-.4-.5-.6-1.3-.6-2.3 0-.9.2-1.6.6-2.2.4-.6 1-.9 1.6-.9 1.2.1 1.9.9 2 2.4zm2.7-2.2l1.6 5.9h-1.3l-.3-1.2h-1.6l-.3 1.2h-1l1.6-5.9h1.3zm-1.3 3.6h1.1l-.5-2.1-.6 2.1zm4.4 0v2.4h-1.2v-5.9h2.2c.4 0 .7.1 1 .2.2.1.5.3.6.6.2.3.2.6.2 1 0 .7-.3 1.2-.9 1.5l.9 2.6h-1.3l-.8-2.4h-.7zm0-2.6v1.5h.7c.2 0 .4 0 .5-.1.1-.1.2-.1.3-.3.1-.1.1-.3.1-.5s0-.3-.1-.4c-.1-.1-.2-.2-.3-.2h-1.2zm6.7-1v1.2h-1.2v4.8h-1.2V133h-1.3v-1.2h3.7zm1.6 3.6v2.4H154v-5.9h2.2c.4 0 .7.1 1 .2.2.1.5.3.6.6.2.3.2.6.2 1 0 .7-.3 1.2-.9 1.5l.9 2.6h-1.3l-.8-2.4h-.7zm0-2.6v1.5h.7c.2 0 .4 0 .5-.1.1 0 .2-.1.3-.3.1-.1.1-.3.1-.5s0-.3-.1-.4c-.1-.1-.2-.2-.3-.2h-1.2zm4.3-1v5.9h-1.2v-5.9h1.2zm.4 0h1.5c.6 0 1.1.1 1.4.3.3.2.6.5.8 1 .2.4.4 1 .4 1.7 0 .9-.2 1.6-.6 2.1-.4.6-1 .9-1.8.9h-1.7v-6zm1.2 1.1v3.7h.5c.4 0 .7-.2 1-.6.2-.4.3-.8.3-1.3 0-.4-.1-.7-.2-1-.1-.3-.3-.5-.4-.6-.2-.1-.4-.2-.6-.2h-.6zm7.3 1.6s0 1.9-.7 2.6c-.7.7-.8.7-1.4.7-.7 0-1.2-.3-1.5-.8-.4-.6-.5-1.3-.5-2.2 0-.9.2-1.7.6-2.3.4-.6.9-.9 1.6-.9.6 0 1 .2 1.4.6.3.4.6.9.6 1.5l-1.1.2c-.1-.7-.4-1.1-.9-1.1-.3 0-.6.2-.7.5-.1.3-.2.8-.2 1.5 0 .6.1 1.1.3 1.4.2.3.4.5.8.5.2 0 .4-.1.6-.2.2-.1.2-.4.2-.8h-.9v-1.1h1.8zm3.8-1.6h-2.4v1.2h1.9v1.1h-1.9v1.3h2.4v1.2h-3.6v-5.9h3.6v1.1zm4.7-1.1v5.9h-1.2v-5.9h1.2zm4.1 0v5.9h-1l-2-4v4.1h-.9v-5.9h1.3l1.7 3.5v-3.5h.9zm1.5 3.7v2.2h-1.2v-5.9h2c.4 0 .8.1 1 .2.2.1.4.3.6.6.2.3.3.6.3 1.1 0 .3 0 .6-.1.9-.1.3-.2.5-.4.7-.2.2-.4.3-.5.3-.2.1-.4.1-.8.1h-.9zm-.1-1.1h.8c.3 0 .5-.1.6-.2.1-.2.2-.3.2-.5s-.1-.4-.2-.6c-.1-.2-.3-.2-.6-.2h-.8v1.5zm7-2.6v3.7c0 .6-.1 1-.2 1.3-.1.3-.3.5-.6.7-.3.2-.7.3-1.2.3s-.9-.1-1.2-.3c-.3-.2-.5-.4-.6-.7-.1-.3-.2-.8-.2-1.4v-3.7h1.3v3.7c0 .3 0 .6.1.7.1.1.1.3.3.4.1.1.3.1.5.1s.4 0 .5-.1l.3-.3c.1-.1.1-.4.1-.7v-3.7h.9zm4 0v1.2h-1.2v4.8H191V133h-1.3v-1.2h3.7z"/>
    <path fill="#181515" d="M250.6 113.1h-171c-10.2 0-18.6-8.3-18.6-18.6 0-10.2 8.3-18.6 18.6-18.6h171c10.2 0 18.6 8.3 18.6 18.6 0 10.2-8.4 18.6-18.6 18.6z"/>
    <path d="M73.400002 82h183.5v26.1h-183.5z"/>
    <path fill="#732a46" d="M74.300003 82.900002h181.7v24.200001h-181.7z"/>
    <path fill="#010102" d="M73.400002 94.599998h183.5v.89999998h-183.5z"/>
    <path fill="#181515" d="M40.3 203.7c5.7-11.3 14.8-17 25.5-18.5 8.5-1 21 3.6 45.2 9.4 12.2 2.9 31.4 4.3 53.7 4.3 22.3 0 41.5-1.4 53.7-4.3 24.2-5.8 36.7-10.4 45.2-9.4 10.7 1.4 20.8 6.8 26.5 18.1-6-12.2-14.4-20.3-25.9-20.3-8.6 0-19.2 1.2-43.4 7-12 2.9-34 4.3-56.1 4.3-22.3 0-44.7-1.4-56.8-4.3-24.2-5.8-34.9-8-43.4-7-10.8 1.5-18.5 9.4-24.2 20.7z"/>
    <path fill="#3f4040" d="M264.7 256.3c0 12.2-14.1 14.3-14.1 14.3H79.4c-2.5 0-14.1-2.1-14.1-14.3 0-12.2 14.1-14.3 14.1-14.3h171.2c.1 0 14.1 2.1 14.1 14.3z"/>
    <path fill="#333" d="M252.8 267.3h-175c-4.8 0-8.8-3.9-8.8-8.8v-4.3c0-4.8 3.9-8.8 8.8-8.8h174.9c4.8 0 8.8 3.9 8.8 8.8v4.3c0 4.9-3.9 8.8-8.7 8.8z"/>
    <path fill="#212020" d="M249.4 263.9h-29.1c-4.2 0-7.6-3.4-7.6-7.6 0-4.2 3.4-7.6 7.6-7.6h29.1c4.2 0 7.6 3.4 7.6 7.6 0 4.2-3.4 7.6-7.6 7.6z"/>
    <path fill="#6177b3" d="M249.4 261h-29.1c-2.5 0-4.6-2.1-4.6-4.6v-.2c0-2.5 2.1-4.6 4.6-4.6h29.1c2.5 0 4.6 2.1 4.6 4.6v.2c-.1 2.5-2.1 4.6-4.6 4.6z"/>
    <circle cx="222.10001" cy="256.39999" r=".89999998" fill="#45537c"/>
    <circle cx="228.39999" cy="256.39999" r=".89999998" fill="#45537c"/>
    <circle cx="234.8" cy="256.39999" r=".89999998" fill="#45537c"/>
    <circle cx="241.2" cy="256.39999" r=".89999998" fill="#45537c"/>
    <circle cx="247.60001" cy="256.39999" r=".89999998" fill="#45537c"/>
    <path fill="#212020" d="M110 263.9H81c-4.2 0-7.6-3.4-7.6-7.6 0-4.2 3.4-7.6 7.6-7.6h29c4.2 0 7.6 3.4 7.6 7.6.1 4.2-3.4 7.6-7.6 7.6z"/>
    <path fill="#cbcfd8" d="M110.1 261H80.9c-2.5 0-4.6-2.1-4.6-4.6v-.2c0-2.5 2.1-4.6 4.6-4.6H110c2.5 0 4.6 2.1 4.6 4.6v.2c0 2.5-2 4.6-4.5 4.6z"/>
    <path fill="#7d8189" d="M98.1 251.7c-1.8 0-3.3 2.1-3.3 4.6 0 2.6 1.5 4.6 3.3 4.6H87.5c1.8 0 3.3-2.1 3.3-4.6 0-2.6-1.5-4.6-3.3-4.6h10.6z"/>
    <path fill="#6b6d72" d="M92.199997 251.7h1v9.3000002h-1z"/>
    <path fill="#929397" d="M87.5 251.7h-7.4c-1.8 0-3.3 2.1-3.3 4.6 0 2.6 1.5 4.6 3.3 4.6h7.4c1.8 0 3.3-2.1 3.3-4.6 0-2.5-1.5-4.6-3.3-4.6zm18 0h-7.4c-1.8 0-3.3 2.1-3.3 4.6 0 2.6 1.5 4.6 3.3 4.6h7.4c1.8 0 3.3-2.1 3.3-4.6 0-2.5-1.5-4.6-3.3-4.6z"/>
    <path fill="#444546" d="M298 1.8v11.1s-.1 1.4-2 1.4H34.2c-1.9 0-2-1.4-2-1.4V1.8l132.9.1L298 1.8z"/>
    <path fill="#282424" d="M33.400002 0h2.4000001v12.6H33.400002zm3.699996 0h2.4000001v12.6H37.099998zm3.700001 0h2.4000001v12.6H40.799999zM44.5 0h2.4000001v12.6H44.5zm3.700001 0h2.4000001v12.6H48.200001zm3.700001 0h2.4000001v12.6H51.900002zm3.699996 0h2.4000001v12.6H55.599998zm3.700001 0h2.4000001v12.6H59.299999zm3.799999 0h2.4000001v12.6H63.099998zm3.700005 0h2.4000001v12.6H66.800003zm3.799995 0h2.4000001v12.6H70.599998zm3.700005 0h2.4000001v12.6H74.300003zM78 0h2.4000001v12.6H78zm3.699997 0h2.4000001v12.6H81.699997zm3.700005 0h2.4000001v12.6H85.400002zm3.699996 0h2.4000001v12.6H89.099998zm3.800004 0h2.4000001v12.6H92.900002zm3.699996 0h2.4000001v12.6H96.599998zM100.4 0h2.4000001v12.6H100.4zm3.7 0h2.4000001v12.6H104.1zm3.6 0h2.4000001v12.6H107.7zm3.7 0h2.4000001v12.6H111.4zm3.8 0h2.4000001v12.6H115.2zm3.7 0h2.4000001v12.6H118.9zm3.7 0h2.4000001v12.6H122.6zm3.7 0h2.4000001v12.6H126.3zm3.80001 0h2.4000001v12.6H130.10001zM133.8 0h2.4000001v12.6H133.8zm3.7 0h2.4000001v12.6H137.5zm3.7 0h2.4000001v12.6H141.2zm3.69999 0h2.4000001v12.6H144.89999zm3.70002 0h2.4000001v12.6H148.60001zm4 0h2.4000001v12.6H152.60001zm3.79998 0h2.4000001v12.6H156.39999zm3.70002 0h2.4000001v12.6H160.10001zM163.7 0h2.4000001v12.6H163.7zm3.69999 0h2.4000001v12.6H167.39999zM171.2 0h2.4000001v12.6H171.2zm3.69999 0h2.4000001v12.6H174.89999zm3.70002 0h2.4000001v12.6H178.60001zm3.79998 0h2.4000001v12.6H182.39999zm3.70002 0h2.4000001v12.6H186.10001zM189.8 0h2.4000001v12.6H189.8zm3.7 0h2.4000001v12.6H193.5zm3.7 0h2.4000001v12.6H197.2zm3.69999 0h2.4000001v12.6H200.89999zm3.70002 0h2.4000001v12.6H204.60001zM208.7 0h2.4000001v12.6H208.7zm3.8 0h2.4000001v12.6H212.5zm3.7 0h2.4000001v12.6H216.2zm3.6 0h2.4000001v12.6H219.8zm3.7 0h2.4000001v12.6H223.5zm3.8 0h2.4000001v12.6H227.3zm3.7 0h2.4000001v12.6H231zm3.8 0h2.4000001v12.6H234.8zm3.7 0h2.4000001v12.6H238.5zm3.7 0h2.4000001v12.6H242.2zm3.69999 0h2.4000001v12.6H245.89999zm3.70002 0h2.4000001v12.6H249.60001zM253.3 0h2.4000001v12.6H253.3zm3.7 0h2.4000001v12.6H257zm3.79999 0h2.4000001v12.6H260.79999zm3.90002 0h2.4000001v12.6H264.70001zm3.69998 0h2.4000001v12.6H268.39999zm3.70002 0h2.4000001v12.6H272.10001zm3.69998 0h2.4000001v12.6H275.79999zM279.5 0h2.4000001v12.6H279.5zm3.79999 0h2.4000001v12.6H283.29999zM287 0h2.4000001v12.6H287zm3.70001 0h2.4000001v12.6H290.70001zm3.69998 0h2.4000001v12.6H294.39999z"/>
    <path fill="#82888b" d="M229.7 276.7h-.7l-.3-.9c0-.1-.1-.1-.1-.2s-.1-.1-.1-.1c-.1 0-.1-.1-.2-.1h-.9v1.4h-.6v-3.4h2c.1 0 .1 0 .2.1.1 0 .1.1.2.1s.1.1.1.2.1.1.1.2 0 .1.1.2v.2c0 .2-.1.4-.2.5-.1.1-.2.3-.4.3.1.1.3.3.4.5l.4 1zm-2.3-2h1.2c.1 0 .1 0 .2-.1.1 0 .1-.1.1-.1v-.2c0-.2 0-.3-.1-.3-.1-.1-.2-.1-.4-.1h-.9v.8zm5.5 2h-2.6v-3.4h2.5v.6h-1.9v.8h1.8v.6h-1.8v.9h2v.5zm2 .1c-.2 0-.5 0-.6-.1-.2-.1-.3-.2-.5-.3-.1-.1-.2-.3-.3-.4-.1-.2-.1-.3-.1-.5h.6c0 .1 0 .2.1.3 0 .1.1.2.2.2.1.1.2.1.3.1h.6c.1 0 .2-.1.2-.1.1 0 .1-.1.1-.1v-.4s-.1-.1-.2-.1-.2-.1-.3-.1c-.1 0-.3-.1-.4-.1-.2 0-.4-.1-.5-.2-.1-.1-.3-.1-.3-.2-.1-.1-.2-.2-.2-.3 0-.1-.1-.2-.1-.4 0-.1 0-.3.1-.4.1-.1.1-.2.3-.3.1-.1.2-.2.4-.2.2-.1.3-.1.5-.1s.4 0 .5.1c.2.1.3.1.4.2.1.1.2.2.3.4.1.1.1.3.1.5h-.6c0-.4-.3-.6-.7-.6-.2 0-.4 0-.5.1-.1.1-.2.2-.2.3v.1l.1.1c.1 0 .1.1.2.1s.2.1.3.1c.1 0 .2 0 .3.1.1 0 .2.1.3.1.1 0 .2.1.3.1.1.1.2.1.2.2.1.1.1.2.2.3 0 .1.1.2.1.4s0 .3-.1.4l-.3.3c-.1.1-.3.2-.4.2 0 .1-.2.2-.4.2zm4.6-.1h-2.6v-3.4h2.5v.6h-1.9v.8h1.8v.6h-1.8v.9h2v.5zm3.2-2.8h-1.1v2.8h-.6v-2.8h-1.1v-.6h2.8v.6zM85 273.1h1.8c.1 0 .2 0 .3.1.1 0 .2.1.3.1.1.1.2.1.2.2.1.1.1.2.2.3 0 .1.1.2.1.4 0 .4-.1.7-.4.9-.2.2-.6.3-1.1.3h-.8v1.4H85v-3.7zm.7 1.6h1.1c.1 0 .2-.1.2-.1.1 0 .1-.1.1-.2v-.2c0-.1 0-.2-.1-.3 0-.1-.1-.1-.2-.2-.1 0-.1-.1-.2-.1h-1v1.1zm4.4-1.7c.3 0 .5 0 .7.1.2.1.4.2.6.4.2.2.3.4.4.6.1.2.1.5.1.8 0 .3 0 .5-.1.8-.1.2-.2.4-.4.6-.2.2-.3.3-.6.4-.3.1-.5.1-.7.1-.3 0-.5 0-.7-.1-.2-.1-.4-.2-.6-.4-.2-.2-.3-.4-.4-.6-.1-.2-.1-.5-.1-.8 0-.3 0-.5.1-.8.1-.2.2-.4.4-.6.2-.2.3-.3.6-.4.2 0 .4-.1.7-.1zm0 3.2c.2 0 .3 0 .4-.1.1-.1.2-.1.3-.3.1-.1.2-.2.2-.4.1-.2.1-.3.1-.5s0-.4-.1-.5c-.1-.2-.1-.3-.2-.4-.1-.1-.2-.2-.3-.2-.1-.1-.3-.1-.4-.1-.2 0-.3 0-.4.1-.1.1-.2.1-.3.3-.1.1-.2.2-.2.4-.1.2-.1.3-.1.5s0 .4.1.5c.1.1.1.3.2.4l.3.3h.4zm6.9-3.1l-1 3.7h-.6l-.7-2.7-.7 2.7h-.6l-1-3.7h.6l.6 2.5.7-2.5h.7l.7 2.5.6-2.5h.7zm3.3 3.6h-2.8V273h2.7v.6h-2v.8h1.9v.6h-1.9v.9h2.1v.8zm3.9 0h-.7l-.3-1c0-.1-.1-.1-.1-.2s-.1-.1-.1-.1c-.1 0-.1-.1-.2-.1h-.9v1.5h-.9v-3.7h2.2c.1 0 .2 0 .2.1.1 0 .1.1.2.1l.2.2c0 .1.1.1.1.2s.1.1.1.2v.2c0 .2-.1.4-.2.6-.1.2-.3.3-.4.4.2.1.3.3.4.6l.4 1zm-2.5-2.1h1.2c.1 0 .2 0 .2-.1.1 0 .1-.1.1-.2v-.2c0-.2-.1-.3-.2-.4-.1-.1-.3-.1-.5-.1h-1v1z"/>
    <path fill="#929397" d="M71.4 295v-1.8c1.8-.4 3-1 3.5-1.8h1.8v8.8h-2.3v-6.6c-1.4.7-2.3 1.1-3 1.4zm25.699998-3.39999h2.4000001v8.6999998H97.099998zM100.1 291.6h7.6v1.7h-2.5v6.9h-2.5v-6.9h-2.6m-12.1-.8c0-.5.4-.9.9-.9h3.9c.9 0 1.5.1 1.9.3.4.2.8.4 1.1.8.3.3.4.7.4 1.2 0 1-.6 1.6-1.9 1.9.7.1 1.3.4 1.6.8.4.4.5.8.5 1.3 0 .6-.3 1.2-.9 1.7-.6.5-1.5.7-2.9.7h-3.9c-.5 0-.9-.4-.9-.9v-6.9zm2.4 1.3c0 .2.4.3.9.3h.9c.7 0 1.1 0 1.3-.1.2-.1.3-.2.3-.2 0-.1-.1-.1-.2-.2s-.3-.1-.5-.1h-1.7c-.6 0-1 .1-1 .3zm.6 3.4h1.3c.6 0 1.1 0 1.3-.1.3-.1.4-.2.4-.3 0-.1-.1-.2-.4-.2-.3-.1-.7-.1-1.3-.1h-1c-.5 0-.9.1-.9.3v3.3h.6v-2.9zm-10.5-3.4h6.1v-2.4h-7c-1 0-1.8.8-1.8 1.8v5.3c0 1 .8 1.8 1.8 1.8h5.2c1 0 1.8-.8 1.8-1.8v-2.2c0-.9-.7-1.6-1.6-1.9h-3.9v2.1H84v.7h-3.5v-3.4zm128.6 4.9l4-6c.2-.3.4-.5.6-.5h2.8v.8l.2-.3c.2-.3.4-.5.6-.5h3.4v6.5h-2.3v-5.1l-3.4 5.1h-2.3l3.4-5.1H215c-.1 0-.3.1-.4.2l-3.2 5h-2.3v-.1zm14.5-2.6v1.2h5.3v1.4h-7.6v-4.3c0-.1 0-.2.1-.3l1-1.7c.1-.1.2-.2.4-.2h6v1.4h-4.5c-.1 0-.2.1-.3.2l-.5 1h5.3l-.8 1.4h-4.4zm8.3 1.2h3.8v-1.2h-1.5l.8-1.4h3v3.6c0 .2-.1.3-.4.3H230c-.3 0-.4-.1-.4-.3v-3.9c0-.1 0-.2.1-.3l1-1.7c.1-.1.2-.2.4-.2h6.4v1.4h-4.9c-.1 0-.2.1-.3.2l-.5 1v2.5zm16.3 1.4h-2.6l-1-1.4h-2.7l-.8-1.2v2.6h-2.3v-6.5h4.3c.2 0 .4.2.6.5l4.5 6zm-4.7-2.8l-1.7-2.2c-.1-.1-.3-.2-.4-.2h-.4v2.4h2.5zm36.6-5.5h-9.4c2.1-1.2 5-2.7 6.3-4.3 2.5-3.1-1.6-5.4-4.9-4.3-4.6 1.5-6.6 3.8-9.2 6.1h-5.5c3.9-7.5 8.8-11.5 16.2-13.5 8-2.2 11.7 3 10.2 9.1-.9 3.4-1.2 3.9-3.7 6.9zm-12.5 12.2c0-.2.2-.6.3-.9.2-.4.5-.7.7-.9h-9.5c-.7 1.3-1.4 2-1.9 4.4-.5 2.6 1 3.8 1.9 3.8h22.7l3.3-6.4h-17.5z"/>
    <path fill="#8c8e92" d="M251.9 297.5h2.4c.1 0 .2-.1.3-.2l.7-1.6v-.4l-.7-1.6c-.1-.1-.1-.2-.3-.2h-2.4v4zm-2.1-5.3h5.8c.2 0 .3.1.4.4l1.4 2.8v.4l-1.4 2.8c-.1.2-.3.4-.4.4h-5.8v-6.8zm8.4 0h5.6c.2 0 .3.1.4.4l.9 1.9v.4l-1.4 1.6 1.4 2.5H263l-2-3.3h1c.1 0 .2 0 .3-.1l.7-.8-.3-.9c-.1-.1-.1-.2-.3-.2h-2.2v5.3h-2.1v-6.8h.1zm9.8 6.7h-2.1v-6.7h2.1v6.7zm2.8-4.5l2.1 3.1 2.1-3.1v-2.2h2.1v2.5c0 .2 0 .4-.1.5l-2.4 3.7h-3.5l-2.4-3.7c-.1-.1-.1-.3-.1-.5v-2.5h2.1v2.2h.1zm9 1.8v1.2h4.9v1.4h-7v-4.4c0-.1 0-.2.1-.4l1-1.8c.1-.1.2-.2.3-.2h5.6v1.4h-4.2c-.1 0-.2.1-.3.2l-.4 1.1h4.9l-.7 1.4h-4.2v.1z"/>
    <path fill="#929397" d="M72.5 274.9c0-.4.1-.7.2-1 .1-.2.2-.4.4-.5.2-.1.3-.3.5-.4.2-.1.5-.2.9-.2.6 0 1.1.2 1.4.5.4.4.5.9.5 1.5s-.2 1.1-.5 1.5c-.3.4-.8.5-1.4.5-.6 0-1.1-.2-1.4-.5-.4-.2-.6-.7-.6-1.4zm.8 0c0 .4.1.8.3 1 .2.2.5.3.8.3.3 0 .6-.1.8-.3.2-.2.3-.6.3-1 0-.5-.1-.8-.3-1-.2-.2-.5-.3-.8-.3-.3 0-.6.1-.8.3-.2.2-.3.5-.3 1zm3.7 2v-4h.8l1.6 2.7v-2.7h.7v4h-.8l-1.6-2.6v2.6H77zm32.2-2c0-.4.1-.7.2-1 .1-.2.2-.4.4-.5.2-.1.3-.3.5-.4.2-.1.5-.2.9-.2.6 0 1.1.2 1.4.5.4.4.5.9.5 1.5s-.2 1.1-.5 1.5c-.3.4-.8.5-1.4.5-.6 0-1.1-.2-1.4-.5-.4-.3-.6-.8-.6-1.4zm.9 0c0 .4.1.8.3 1 .2.2.5.3.8.3.3 0 .6-.1.8-.3.2-.2.3-.6.3-1 0-.5-.1-.8-.3-1-.2-.2-.5-.3-.8-.3-.3 0-.6.1-.8.3-.2.2-.3.5-.3 1zm3.6 2v-4h2.7v.7h-1.9v.9h1.7v.7h-1.7v1.7h-.8zm3.4 0v-4h2.7v.7h-1.9v.9h1.7v.7h-1.7v1.7h-.8z"/>
    <path fill="#929397" d="M78.9 279.1H74c-2.1 0-3.8-1.7-3.8-3.8v-.9c0-2.1 1.7-3.8 3.8-3.8h4.9c2.1 0 3.8 1.7 3.8 3.8v.9c0 2.1-1.7 3.8-3.8 3.8zm-4.9-7.5c-1.6 0-2.8 1.3-2.8 2.8v.9c0 1.6 1.3 2.8 2.8 2.8h4.9c1.6 0 2.8-1.3 2.8-2.8v-.9c0-1.6-1.3-2.8-2.8-2.8H74zm44 7.5h-7c-2.1 0-3.8-1.7-3.8-3.8v-.9c0-2.1 1.7-3.8 3.8-3.8h7c2.1 0 3.8 1.7 3.8 3.8v.9c0 2.1-1.7 3.8-3.8 3.8zm-6.9-7.5c-1.6 0-2.8 1.3-2.8 2.8v.9c0 1.6 1.3 2.8 2.8 2.8h7c1.6 0 2.8-1.3 2.8-2.8v-.9c0-1.6-1.3-2.8-2.8-2.8h-7z"/>
  </g>
  <path fill="#171819" d="M211.62233104 57.5858242c20.90532702 0 39.88685094.51301416 56.81631822 1.2825354 28.2157788 1.2825354 50.40364122 3.2063385 65.53755894 4.87363452 29.24180712 3.07808496 50.40364122.6412677 61.94645982 30.01132836 6.412677 16.28819958 7.6952124 68.74389744 4.87363452 76.952124-2.82157788 8.20822656-4.36062036 14.49265002-15.13391772 18.21200268-10.77329736 3.8476062-64.38327708 17.18597436-77.46513816 23.59865136-13.08186108 6.54093054-43.6062036 18.98152392-52.32744432 21.8031018l-8.72124072 2.82157788s-14.62090356 5.38664868-35.65448412 5.38664868c-21.03358056 0-35.65448412-5.38664868-35.65448412-5.38664868l-8.72124072-2.82157788c-8.72124072-2.82157788-39.37383678-15.26217126-52.32744432-21.8031018-13.08186108-6.54093054-66.6918408-19.75104516-77.46513816-23.59865136-10.77329736-3.8476062-12.31233984-10.13202966-15.13391772-18.21200268-2.82157788-8.07997302-1.53904248-60.66392442 4.87363452-76.952124 11.5428186-29.37006066 32.7046527-26.9332434 61.94645982-30.01132836 15.13391772-1.53904248 37.32178014-3.59109912 65.53755894-4.87363452 17.05772082-.76952124 36.16749828-1.2825354 57.0728253-1.2825354"/>
  <path fill="#171819" d="M211.75058458 72.976249c56.94457176-.6412677 138.38556966 3.33459204 149.28712056 11.5428186 20.90532702 11.67107214 20.39231286 28.72879296 21.54659472 41.81065404-.38476062 6.66918408-2.30856372 18.85327038-10.77329736 30.26783544-2.5650708 3.59109912-7.18219824 7.6952124-9.74726904 9.87552258-31.80687792 22.4443695-78.2346594 61.17693858-150.31314888 65.15279832h-.12825354c-72.07848948-3.97585974-118.37801742-42.70842882-150.31314888-65.15279832-2.5650708-2.30856372-7.18219824-6.412677-9.74726904-10.00377612-8.46473364-11.5428186-10.2602832-23.7269049-10.77329736-30.26783544 1.15428186-13.08186108.6412677-30.26783544 21.41834118-41.81065404 11.02980444-8.20822656 92.3425488-12.1840863 149.28712056-11.5428186"/>
  <path fill="#282827" d="M212.00709166 162.49721992h-.38476062l114.7869183-2.43681726c11.92757922-.76952124 20.90532702-1.53904248 29.24180712-12.825354 3.59109912-4.74538098 5.25839514-10.64504382 5.25839514-16.54470666v-4.23236682c0-23.7269049-12.05583276-32.7046527-32.19163854-36.5522589 0 0-47.96682396-5.25839514-117.09548202-5.25839514s-117.09548202 5.1301416-117.09548202 5.1301416c-20.13580578 3.8476062-32.19163854 12.825354-32.19163854 36.5522589v4.23236682c0 5.89966284 1.79554956 11.79932568 5.25839514 16.54470666 8.3364801 11.28631152 17.18597436 11.92757922 29.24180712 12.825354l114.7869183 2.43681726h-.38476062"/>
  <path fill="#1d1d1d" d="M211.36582396 91.31650522c61.43344566 0 103.11584616 5.1301416 103.11584616 5.1301416 17.82724206 2.94983142 29.4983142 8.59298718 29.4983142 26.54848278v8.72124072c0 10.2602832-8.3364801 18.5967633-18.5967633 18.5967633H211.36582396h.38476062H97.86144106c-10.2602832 0-18.5967633-8.3364801-18.5967633-18.5967633v-8.72124072c0-17.9554956 11.67107214-23.59865136 29.4983142-26.54848278 0 0 41.6824005-5.1301416 103.11584616-5.1301416"/>
  <path fill="#1b1c1c" d="M93.88558517 106.96343967h235.47351226v38.73257036H93.88558517z"/>
  <path fill="#414446" d="M94.1420884 107.34819387h234.83224457v38.21955364H94.1420884z"/>
  <path fill="#1b1d1e" d="M211.36582396 145.4394991h80.92798374c16.92946728 0 31.55037084-11.15805798 36.68051244-15.3904248v-22.70087658H211.36582396h.51301416H94.1420884v22.82913012c5.1301416 4.23236682 19.75104516 15.3904248 36.68051244 15.3904248h80.92798374"/>
  <path fill="#46494b" d="M94.1420884 115.68467782h15.90343896c.51301416 0 1.02602832-.51301416 1.02602832-1.02602832v-7.31045178H94.1420884v8.3364801zm234.83223174 0h-15.90343896c-.51301416 0-1.02602832-.51301416-1.02602832-1.02602832v-7.31045178h16.92946728v8.3364801z"/>
  <path fill="#45494a" d="M211.36582396 110.1697756h95.80539438c.51301416 0 1.02602832.51301416 1.02602832 1.02602832v5.7714093c0 .51301416.38476062 1.02602832 1.02602832 1.02602832h14.7491571v12.05583276c-9.36250842 7.6952124-20.00755224 13.59487524-37.1935266 13.59487524H136.20924952c-17.18597436 0-27.83101818-5.89966284-37.1935266-13.59487524v-12.05583276h14.7491571c.51301416 0 1.02602832-.51301416 1.02602832-1.02602832v-5.7714093c0-.51301416.51301416-1.02602832 1.02602832-1.02602832h95.5488873z"/>
  <path d="M94.1420884 126.32972164h234.83224457v.76952127H94.1420884z"/>
  <path fill="#1c1e1f" d="M145.82826502 127.09924032H276.9033829v1.53904248H145.82826502z"/>
  <path fill="#202223" d="M145.82826502 128.63828536H276.9033829v1.53904248H145.82826502z"/>
  <path fill="#242627" d="M145.82826502 130.17732784H276.9033829v1.53904248H145.82826502z"/>
  <path fill="#292c2d" d="M145.82826502 131.71637032H276.9033829v1.53904248H145.82826502z"/>
  <path fill="#2f3133" d="M145.82826502 133.2554128H276.9033829v1.53904248H145.82826502z"/>
  <path fill="#333637" d="M145.82826502 134.79445528H276.9033829v1.53904248H145.82826502z"/>
  <path fill="#373a3c" d="M145.82826502 136.33349776H276.9033829v1.53904248H145.82826502z"/>
  <path fill="#3b3e3f" d="M145.82826502 137.87254024H276.9033829v1.53904248H145.82826502z"/>
  <path fill="#3f4244" d="M145.82826502 139.41158272H276.9033829v1.53904248H145.82826502z"/>
  <path fill="#1b1d1e" d="M149.80412476 127.09924288h-3.97585974v13.85138232s1.02602832-11.67107214 3.97585974-13.85138232zm122.99514486 0h3.97585974v13.85138232c.12825354 0-.89777478-11.67107214-3.97585974-13.85138232z"/>
  <path fill="#1c1e1f" d="M145.82826502 124.790683H276.9033829v1.5390425H145.82826502z"/>
  <path fill="#202223" d="M145.82826502 123.25163412H276.9033829v1.53904248H145.82826502z"/>
  <path fill="#242627" d="M145.82826502 121.71259677H276.9033829v1.53904248H145.82826502z"/>
  <path fill="#292c2d" d="M145.82826502 120.17354787H276.9033829v1.53904248H145.82826502z"/>
  <path fill="#2f3133" d="M145.82826502 118.63450924H276.9033829v1.53904248H145.82826502z"/>
  <path fill="#333637" d="M145.82826502 117.0954706H276.9033829v1.5390425H145.82826502z"/>
  <path fill="#373a3c" d="M145.82826502 115.55642172H276.9033829v1.53904248H145.82826502z"/>
  <path fill="#3b3e3f" d="M145.82826502 114.01738437H276.9033829v1.53904248H145.82826502z"/>
  <path fill="#3f4244" d="M145.82826502 112.47833547H276.9033829v1.53904248H145.82826502z"/>
  <path fill="#1b1d1e" d="M149.80412476 126.32972164h-3.97585974v-14.36439648s1.02602832 12.1840863 3.97585974 14.36439648zm122.99514486 0h3.97585974v-14.36439648c.12825354 0-.89777478 12.1840863-3.97585974 14.36439648z"/>
  <path fill="#0e1214" d="M118.510261 124.40591854h.76952124c0 .25650708-.12825354.6412677-.38476062.6412677-.25650708-.12825354-.38476062-.38476062-.38476062-.6412677z"/>
  <path fill="#5e5e60" d="M118.510261 112.60659286h.76952124c0-.25650708-.12825354-.6412677-.38476062-.6412677s-.38476062.25650708-.38476062.6412677z"/>
  <path fill="#393d3f" d="M118.510261 112.6065967h.76952127v11.79932543h-.76952127z"/>
  <path fill="#0e1214" d="M125.5642057 124.40591854h.76952124c0 .25650708-.12825354.6412677-.38476062.6412677-.25650708-.12825354-.38476062-.38476062-.38476062-.6412677z"/>
  <path fill="#5e5e60" d="M125.5642057 112.60659286h.76952124c0-.25650708-.12825354-.6412677-.38476062-.6412677s-.38476062.25650708-.38476062.6412677z"/>
  <path fill="#393d3f" d="M125.5642057 112.6065967h.76952127v11.79932543h-.76952127z"/>
  <path fill="#0e1214" d="M125.5642057 140.9506252h.76952124c0 .25650708-.12825354.6412677-.38476062.6412677s-.38476062-.25650708-.38476062-.6412677z"/>
  <path fill="#5e5e60" d="M125.5642057 129.15129952h.76952124c0-.25650708-.12825354-.6412677-.38476062-.6412677-.25650708.12825354-.38476062.38476062-.38476062.6412677z"/>
  <path fill="#393d3f" d="M125.5642057 129.15129952h.76952127v11.79932542h-.76952127z"/>
  <path fill="#0e1214" d="M118.510261 138.77031502h.76952124c0 .25650708-.12825354.6412677-.38476062.6412677-.25650708-.12825354-.38476062-.38476062-.38476062-.6412677z"/>
  <path fill="#5e5e60" d="M118.510261 129.15129952h.76952124c0-.25650708-.12825354-.6412677-.38476062-.6412677-.25650708.12825354-.38476062.38476062-.38476062.6412677z"/>
  <path fill="#393d3f" d="M118.510261 129.15129952h.76952127v9.6190155h-.76952127z"/>
  <path fill="#0e1214" d="M304.22138692 124.40591854h-.76952124c0 .25650708.12825354.6412677.38476062.6412677.12825354-.12825354.38476062-.38476062.38476062-.6412677z"/>
  <path fill="#5e5e60" d="M304.22138692 112.60659286h-.76952124c0-.25650708.12825354-.6412677.38476062-.6412677.12825354 0 .38476062.25650708.38476062.6412677z"/>
  <path fill="#393d3f" d="M303.45186568 112.6065967h.76952127v11.79932543h-.76952127z"/>
  <path fill="#0e1214" d="M297.16744222 124.40591854h-.76952124c0 .25650708.12825354.6412677.38476062.6412677.12825354-.12825354.38476062-.38476062.38476062-.6412677z"/>
  <path fill="#5e5e60" d="M297.16744222 112.60659286h-.76952124c0-.25650708.12825354-.6412677.38476062-.6412677.12825354 0 .38476062.25650708.38476062.6412677z"/>
  <path fill="#393d3f" d="M296.39792098 112.6065967h.76952127v11.79932543h-.76952127z"/>
  <path fill="#0e1214" d="M297.16744222 140.9506252h-.76952124c0 .25650708.12825354.6412677.38476062.6412677.12825354 0 .38476062-.25650708.38476062-.6412677z"/>
  <path fill="#5e5e60" d="M297.16744222 129.15129952h-.76952124c0-.25650708.12825354-.6412677.38476062-.6412677.12825354.12825354.38476062.38476062.38476062.6412677z"/>
  <path fill="#393d3f" d="M296.39792098 129.15129952h.76952127v11.79932542h-.76952127z"/>
  <path fill="#0e1214" d="M304.22138692 138.77031502h-.76952124c0 .25650708.12825354.6412677.38476062.6412677.12825354-.12825354.38476062-.38476062.38476062-.6412677z"/>
  <path fill="#5e5e60" d="M304.22138692 129.15129952h-.76952124c0-.25650708.12825354-.6412677.38476062-.6412677.12825354.12825354.38476062.38476062.38476062.6412677z"/>
  <path fill="#393d3f" d="M303.45186568 129.15129952h.76952127v9.6190155h-.76952127z"/>
  <path d="M115.9451902 106.96343967h9.1060012v2.82157788h-9.1060012zm.12825354 35.7827351v-2.43681727c2.69332434 1.02602832 5.64315576 1.79554956 8.84949426 2.43681726v2.30856372c-3.07808496-.51301416-6.02791638-1.2825354-8.84949426-2.30856372m181.99177326-35.7827351h9.1060012v2.8215779h-9.1060012zm8.9777478 35.7827351v-2.43681726c-2.69332434 1.02602832-5.64315576 1.79554956-8.84949426 2.43681726v2.30856372c3.07808496-.51301416 6.02791638-1.2825354 8.84949426-2.30856372"/>
  <path fill="#2a2c2e" d="M325.38322102 149.928373H97.86144106c-10.38853674 0-18.85327038-8.46473364-18.85327038-18.72501684v-8.72124072c0-18.21200268 11.79932568-23.85515844 29.62656774-26.67673632.38476062 0 42.19541466-5.1301416 102.73108554-5.1301416h.38476062c60.53567088 0 102.34632492 5.1301416 102.73108554 5.1301416 17.82724206 2.82157788 29.62656774 8.46473364 29.62656774 26.67673632v8.72124072c.12825354 10.2602832-8.3364801 18.72501684-18.72501684 18.72501684zm-113.63263644-.38476062h113.63263644c10.13202966 0 18.34025622-8.20822656 18.34025622-18.46850976v-8.72124072c0-17.9554956-11.67107214-23.47039782-29.37006066-26.2919757-.38476062 0-42.3236682-5.1301416-102.85933908-5.1301416s-102.47457846 5.1301416-102.85933908 5.1301416c-17.44248144 2.82157788-29.24180712 8.3364801-29.24180712 26.2919757v8.72124072c0 10.13202966 8.20822656 18.46850976 18.34025622 18.46850976h114.01739706z"/>
  <path fill="#3f3f3f" d="M212.00709166 162.62547346h-.89777478L96.7071592 160.1886562c-11.67107214-.76952124-20.90532702-1.41078894-29.37006066-12.95360754-3.46284558-4.61712744-5.38664868-10.51679028-5.38664868-16.6729602v-4.23236682c0-11.41456506 2.82157788-19.8792987 8.59298718-25.90721508 5.1301416-5.38664868 12.69710046-8.72124072 23.7269049-10.9015509.51301416 0 48.7363452-5.25839514 117.09548202-5.25839514s116.58246786 5.25839514 117.09548202 5.25839514c11.02980444 2.05205664 18.5967633 5.51490222 23.7269049 10.9015509 5.7714093 5.89966284 8.59298718 14.36439648 8.59298718 25.90721508v4.23236682c0 6.02791638-1.9238031 12.05583276-5.38664868 16.6729602-8.46473364 11.41456506-17.69898852 12.05583276-29.37006066 12.95360754l-114.01739706 2.43681726zm-.38476062-77.84989878c-68.35913682 0-116.58246786 5.25839514-117.09548202 5.25839514-22.4443695 4.23236682-32.063385 15.13391772-32.063385 36.29575182v4.23236682c0 6.02791638 1.9238031 11.79932568 5.25839514 16.41645312 8.3364801 11.28631152 17.44248144 11.92757922 28.98530004 12.69710046l114.7869183 2.43681726 114.7869183-2.43681726c11.5428186-.76952124 20.64881994-1.41078894 28.98530004-12.69710046 3.33459204-4.61712744 5.25839514-10.38853674 5.25839514-16.41645312v-4.23236682c0-21.1618341-9.6190155-32.063385-32.063385-36.29575182-.25650708-.12825354-48.47983812-5.25839514-116.83897494-5.25839514z"/>
  <path fill="#2a2c2e" d="M211.4940775 231.88238506c-65.15279832-3.59109912-108.75900192-35.14146996-140.69413338-58.09885362-3.46284558-2.43681726-6.66918408-4.74538098-9.74726904-6.92569116-3.07808496-2.69332434-7.31045178-6.66918408-9.87552258-10.00377612-7.95171948-10.77329736-10.2602832-22.4443695-10.77329736-30.39608898.12825354-1.02602832.12825354-2.18031018.25650708-3.2063385.89777478-12.44059338 2.05205664-28.08752526 21.29008764-38.73256908 11.28631152-8.3364801 95.5488873-12.1840863 149.4153741-11.5428186v.38476062c-53.8664868-.6412677-138.00080904 3.2063385-149.15886702 11.5428186-19.10977746 10.64504382-20.26405932 26.03546862-21.1618341 38.476062-.12825354 1.15428186-.12825354 2.18031018-.25650708 3.2063385.51301416 7.82346594 2.82157788 19.49453808 10.64504382 30.1395819 2.43681726 3.33459204 6.66918408 7.18219824 9.74726904 9.87552258 3.07808496 2.18031018 6.28442346 4.4888739 9.74726904 6.92569116 31.80687792 22.95738366 75.41308152 54.5077545 140.4376263 58.09885362h.12825354c65.02454478-3.59109912 108.63074838-35.01321642 140.4376263-58.09885362 3.46284558-2.43681726 6.66918408-4.74538098 9.74726904-6.92569116 3.07808496-2.69332434 7.31045178-6.54093054 9.74726904-9.87552258 7.95171948-10.77329736 10.13202966-22.31611596 10.64504382-30.1395819-.12825354-1.02602832-.12825354-2.05205664-.25650708-3.2063385-.89777478-12.44059338-2.05205664-27.83101818-21.1618341-38.476062-11.15805798-8.3364801-95.29238022-12.05583276-149.15886702-11.5428186V72.976249c53.99474034-.6412677 138.12906258 3.2063385 149.4153741 11.5428186 19.238031 10.77329736 20.39231286 26.2919757 21.29008764 38.73256908.12825354 1.15428186.12825354 2.18031018.25650708 3.2063385-.51301416 7.95171948-2.82157788 19.62279162-10.77329736 30.39608898-2.43681726 3.33459204-6.66918408 7.31045178-9.74726904 10.00377612-3.07808496 2.18031018-6.28442346 4.4888739-9.74726904 6.92569116-31.93513146 23.0856372-75.54133506 54.63600804-140.69413338 58.09885362z"/>
  <path fill="#1b1d1e" d="M397.84647112 135.43572298c0 1.79554956-1.2825354 3.33459204-2.82157788 3.33459204h-7.56695886c-1.53904248 0-2.94983142-1.53904248-2.94983142-3.33459204s1.2825354-3.33459204 2.94983142-3.33459204h7.56695886c1.53904248.12825354 2.82157788 1.53904248 2.82157788 3.33459204z"/>
  <path fill="#2e3233" d="M395.79441448 135.43572298c0 1.15428186-.89777478 2.18031018-2.05205664 2.18031018h-5.25839514c-1.15428186 0-2.05205664-1.02602832-2.05205664-2.18031018 0-1.15428186.89777478-2.18031018 2.05205664-2.18031018h5.25839514c1.15428186 0 2.05205664 1.02602832 2.05205664 2.18031018z"/>
  <path d="M388.4839627 132.22938448h5.258395v1.15428184h-5.258395zm0 5.51490222h5.258395v1.15428184h-5.258395z"/>
  <path fill="#1b1d1e" d="M397.84647112 125.04718624c0 1.79554956-1.2825354 3.33459204-2.82157788 3.33459204h-7.56695886c-1.53904248 0-2.94983142-1.53904248-2.94983142-3.33459204s1.2825354-3.33459204 2.94983142-3.33459204h7.56695886c1.53904248 0 2.82157788 1.53904248 2.82157788 3.33459204z"/>
  <path fill="#2e3233" d="M395.79441448 125.04718624c0 1.15428186-.89777478 2.18031018-2.05205664 2.18031018h-5.25839514c-1.15428186 0-2.05205664-1.02602832-2.05205664-2.18031018 0-1.15428186.89777478-2.18031018 2.05205664-2.18031018h5.25839514c1.15428186 0 2.05205664 1.02602832 2.05205664 2.18031018z"/>
  <path d="M388.4839627 121.71259677h5.258395v1.15428183h-5.258395zm0 5.5148958h5.258395v1.15428184h-5.258395z"/>
  <path fill="#1b1d1e" d="M397.84647112 114.6586495c0 1.79554956-1.2825354 3.33459204-2.82157788 3.33459204h-7.56695886c-1.53904248 0-2.94983142-1.53904248-2.94983142-3.33459204s1.2825354-3.33459204 2.94983142-3.33459204h7.56695886c1.53904248 0 2.82157788 1.53904248 2.82157788 3.33459204z"/>
  <path fill="#2e3233" d="M395.79441448 114.6586495c0 1.15428186-.89777478 2.18031018-2.05205664 2.18031018h-5.25839514c-1.15428186 0-2.05205664-1.02602832-2.05205664-2.18031018 0-1.15428186.89777478-2.18031018 2.05205664-2.18031018h5.25839514c1.15428186 0 2.05205664 1.02602832 2.05205664 2.18031018z"/>
  <path d="M388.4839627 111.3240613h5.258395v1.15428184h-5.258395zm0 5.51489582h5.258395v1.15428183h-5.258395z"/>
  <path fill="#1b1d1e" d="M25.39819096 135.43572298c0 1.79554956 1.2825354 3.33459204 2.82157788 3.33459204h7.56695886c1.53904248 0 2.94983142-1.53904248 2.94983142-3.33459204s-1.2825354-3.33459204-2.94983142-3.33459204h-7.56695886c-1.53904248 0-2.82157788 1.53904248-2.82157788 3.33459204z"/>
  <path fill="#2e3233" d="M27.4502476 135.43572298c0 1.15428186.89777478 2.18031018 2.05205664 2.18031018h5.25839514c1.15428186 0 2.05205664-1.02602832 2.05205664-2.18031018 0-1.15428186-.89777478-2.18031018-2.05205664-2.18031018H29.3740507c-1.02602832 0-1.9238031 1.02602832-1.9238031 2.18031018z"/>
  <path d="M29.50230424 132.10113094h5.258395v1.15428184h-5.258395zm0 5.51490222h5.258395v1.15428184h-5.258395z"/>
  <path fill="#1b1d1e" d="M25.39819096 125.04718624c0 1.79554956 1.2825354 3.33459204 2.82157788 3.33459204h7.56695886c1.53904248 0 2.94983142-1.53904248 2.94983142-3.33459204s-1.2825354-3.33459204-2.94983142-3.33459204h-7.56695886c-1.53904248 0-2.82157788 1.53904248-2.82157788 3.33459204z"/>
  <path fill="#2e3233" d="M27.4502476 125.04718624c0 1.15428186.89777478 2.18031018 2.05205664 2.18031018h5.25839514c1.15428186 0 2.05205664-1.02602832 2.05205664-2.18031018 0-1.15428186-.89777478-2.18031018-2.05205664-2.18031018H29.3740507c-1.02602832 0-1.9238031.89777478-1.9238031 2.18031018z"/>
  <path d="M29.50230424 121.71259677h5.258395v1.15428183h-5.258395zm0 5.5148958h5.258395v1.15428184h-5.258395z"/>
  <path fill="#1b1d1e" d="M25.39819096 114.53039596c0 1.79554956 1.2825354 3.33459204 2.82157788 3.33459204h7.56695886c1.53904248 0 2.94983142-1.53904248 2.94983142-3.33459204s-1.2825354-3.33459204-2.94983142-3.33459204h-7.56695886c-1.53904248.12825354-2.82157788 1.53904248-2.82157788 3.33459204z"/>
  <path fill="#2e3233" d="M27.4502476 114.53039596c0 1.15428186.89777478 2.18031018 2.05205664 2.18031018h5.25839514c1.15428186 0 2.05205664-1.02602832 2.05205664-2.18031018 0-1.15428186-.89777478-2.18031018-2.05205664-2.18031018H29.3740507c-1.02602832 0-1.9238031 1.02602832-1.9238031 2.18031018z"/>
  <path d="M29.50230424 111.3240613h5.258395v1.15428184h-5.258395zm0 5.51489582h5.258395v1.15428183h-5.258395z"/>
  <path fill="#171819" d="M404.00264104 162.88198054c0 .6412677-.25650708 27.5745111-1.79554956 38.73256908-1.53904248 11.41456506 1.41078894 25.13769384-20.77707348 34.75670934-22.18786242 9.49076196-55.53378282 17.82724206-103.37235324 23.34214428-47.83857042 5.51490222-106.96345236 4.87363452-153.77599446-2.94983142-46.68428856-7.95171948-72.71975718-13.97963586-87.08415366-20.90532702-15.3904248-7.31045178-17.05772082-20.26405932-17.3142279-32.57639916-.12825354-6.412677-.51301416-38.60431554-.6412677-47.96682396.12825354 8.3364801.6412677 14.87741064 1.41078894 17.3142279l.51301416 1.41078894c2.5650708 7.82346594 4.87363452 14.62090356 15.90343896 18.5967633 3.8476062 1.41078894 13.08186108 3.97585974 23.7269049 7.0539447 19.10977746 5.38664868 45.14524608 12.825354 53.48172618 17.05772082 13.21011462 6.66918408 44.11921776 19.62279162 52.5839514 22.4443695l8.59298718 2.82157788c.6412677.25650708 15.13391772 5.64315576 36.29575182 5.64315576s35.52623058-5.38664868 36.03924474-5.64315576l8.72124072-2.82157788c8.59298718-2.82157788 39.37383678-15.64693188 52.5839514-22.4443695 8.3364801-4.23236682 34.37194872-11.67107214 53.48172618-17.05772082 10.64504382-3.07808496 19.8792987-5.64315576 23.7269049-7.0539447 11.15805798-4.10411328 13.33836816-10.77329736 15.90343896-18.5967633l.51301416-1.41078894c.6412677-1.66729602 1.02602832-5.1301416 1.2825354-9.74726904z"/>
  <path fill="#0b0c0d" d="M154.4212522 58.99661314c-28.2157788 1.2825354-50.14713414 3.2063385-65.28105186 4.87363452-29.24180712 3.07808496-50.40364122.6412677-61.94645982 29.88307482-6.412677 16.28819958-7.6952124 68.6156439-4.87363452 76.82387046 2.82157788 8.20822656 4.36062036 14.36439648 15.13391772 18.21200268 10.77329736 3.8476062 64.38327708 17.18597436 77.46513816 23.59865136 13.08186108 6.54093054 43.6062036 18.98152392 52.32744432 21.8031018l8.72124072 2.82157788s14.62090356 5.38664868 35.65448412 5.38664868c21.03358056 0 35.65448412-5.38664868 35.65448412-5.38664868l8.72124072-2.82157788c8.72124072-2.82157788 39.37383678-15.26217126 52.32744432-21.8031018 13.08186108-6.54093054 66.6918408-19.75104516 77.46513816-23.59865136 10.77329736-3.8476062 12.31233984-10.13202966 15.13391772-18.21200268 2.82157788-8.20822656 1.53904248-60.53567088-4.87363452-76.82387046-11.5428186-29.37006066-32.7046527-26.9332434-61.94645982-29.88307482-15.13391772-1.53904248-37.32178014-3.59109912-65.53755894-4.87363452-16.92946728-.76952124-36.16749828-1.2825354-57.0728253-1.2825354h-.12825354c-21.03358056 0-40.01510448.51301416-56.94457176 1.2825354m0-2.05205664c16.92946728-.76952124 36.16749828-1.2825354 57.0728253-1.2825354h.12825354c20.90532702 0 39.88685094.51301416 56.81631822 1.2825354 22.57262304 1.02602832 44.50397838 2.69332434 65.79406602 5.00188806 3.71935266.38476062 7.43870532.76952124 10.9015509 1.02602832 23.59865136 2.05205664 42.19541466 3.59109912 52.71220494 30.90910314 4.61712744 12.05583276 6.54093054 41.81065404 6.28442346 61.81820628v1.02602832c-.12825354 8.3364801-.6412677 14.87741064-1.41078894 17.3142279l-.51301416 1.41078894c-2.5650708 7.82346594-4.87363452 14.49265002-15.90343896 18.5967633-3.8476062 1.41078894-13.08186108 3.97585974-23.7269049 7.0539447-19.10977746 5.38664868-45.14524608 12.825354-53.48172618 17.05772082-13.21011462 6.66918408-44.11921776 19.62279162-52.5839514 22.4443695l-8.59298718 2.82157788c-.6412677.25650708-15.13391772 5.64315576-36.29575182 5.64315576s-35.65448412-5.38664868-36.29575182-5.64315576l-8.59298718-2.82157788c-8.59298718-2.82157788-39.37383678-15.64693188-52.5839514-22.4443695-8.3364801-4.23236682-34.37194872-11.67107214-53.48172618-17.05772082-10.64504382-3.07808496-19.8792987-5.64315576-23.7269049-7.0539447-11.15805798-4.10411328-13.33836816-10.77329736-15.90343896-18.5967633l-.51301416-1.41078894c-.76952124-2.43681726-1.2825354-8.9777478-1.41078894-17.3142279v-1.02602832c-.25650708-20.00755224 1.66729602-49.76237352 6.28442346-61.81820628C35.91498124 66.563572 54.51174454 64.89627598 78.1103959 62.97247288c3.46284558-.25650708 7.18219824-.6412677 10.9015509-1.02602832 21.1618341-2.30856372 42.9649359-3.97585974 65.4093054-5.00188806"/>
  <path fill="#c5baba" d="M293.31983602 209.5662691s-.12825354 0-.25650708.12825354c-2.43681726 1.02602832-4.87363452 2.05205664-7.43870532 3.07808496-38.86082262 15.00566418-56.30330406 19.36628454-73.61753196 19.36628454-11.92757922 0-23.85515844-2.05205664-42.83668236-8.20822656 0 0-36.42400536-13.4666217-39.24558324-14.62090356.6412677-1.79554956 2.5650708-6.412677 5.7714093-11.5428186 3.8476062-6.28442346 9.6190155-13.33836816 17.57073498-17.44248144.51301416-.25650708.89777478-.51301416 1.41078894-.6412677 15.51867834-6.92569116 40.65637218-6.412677 57.58583946-6.412677 16.92946728 0 41.81065404-.51301416 57.32933238 6.412677.51301416.25650708.89777478.51301416 1.41078894.6412677 10.64504382 5.51490222 16.80121374 16.54470666 20.00755224 23.59865136 1.15428186 2.43681726 1.9238031 4.4888739 2.30856372 5.64315576z"/>
  <path fill="#2f3134" d="M210.98106334 229.70207488c-37.32178014 0-65.92231956-18.08374914-65.92231956-33.08941332s28.60053942-21.1618341 65.92231956-21.1618341 65.92231956 6.15616992 65.92231956 21.1618341-28.60053942 33.08941332-65.92231956 33.08941332z"/>
  <path fill="#c5baba" d="M249.3288718 222.77638372c-.12825354-5.64315576-6.66918408-10.38853674-14.7491571-10.38853674h-47.19730272c-8.07997302 0-14.62090356 4.74538098-14.7491571 10.38853674l-1.2825354-.51301416c.12825354-6.28442346 7.31045178-11.15805798 16.0316925-11.15805798h47.19730272c8.72124072 0 15.90343896 5.00188806 16.0316925 11.28631152l-1.2825354.38476062z"/>
  <path fill="#c5baba" d="M192.76906066 218.41576336c0-1.02602832.38476062-1.9238031 1.02602832-2.5650708.76952124-.76952124 1.53904248-1.02602832 2.43681726-1.02602832h5.00188806v1.53904248h-4.61712744c-.76952124 0-1.2825354.25650708-1.66729602.6412677s-.6412677.89777478-.6412677 1.53904248.25650708 1.15428186.6412677 1.53904248 1.02602832.6412677 1.66729602.6412677h.76952124c.6412677 0 1.15428186.12825354 1.41078894.51301416.38476062.38476062.51301416.76952124.51301416 1.2825354s-.12825354.89777478-.51301416 1.2825354-.76952124.51301416-1.41078894.51301416h-4.61712744v-1.53904248h4.61712744c.25650708 0 .38476062-.12825354.38476062-.25650708s-.12825354-.25650708-.38476062-.25650708h-1.15428186c-.89777478 0-1.66729602-.38476062-2.43681726-1.02602832-.76952124-.89777478-1.02602832-1.79554956-1.02602832-2.82157788zm1.9238031 0c0-.51301416.12825354-.89777478.51301416-1.2825354s.76952124-.51301416 1.41078894-.51301416h4.61712744v1.53904248h-4.61712744c-.25650708 0-.38476062.12825354-.38476062.25650708s.12825354.25650708.38476062.25650708h1.15428186c.89777478 0 1.66729602.38476062 2.43681726 1.02602832.76952124.76952124 1.02602832 1.53904248 1.02602832 2.5650708s-.38476062 1.9238031-1.02602832 2.5650708-1.53904248 1.02602832-2.43681726 1.02602832h-5.00188806v-1.41078894h4.61712744c.76952124 0 1.2825354-.25650708 1.66729602-.6412677s.6412677-.89777478.6412677-1.53904248-.25650708-1.15428186-.6412677-1.53904248-1.02602832-.6412677-1.66729602-.6412677h-.76952124c-.6412677 0-1.15428186-.12825354-1.41078894-.51301416-.38476062-.25650708-.51301416-.6412677-.51301416-1.15428186zm7.31045178-.12825354c0-2.30856372 1.15428186-3.46284558 3.46284558-3.46284558h4.61712744v1.53904248h-4.61712744c-1.2825354 0-1.9238031.6412677-1.9238031 1.9238031v4.23236682c0 1.2825354.6412677 1.9238031 1.9238031 1.9238031h4.61712744v1.53904248h-4.61712744c-2.30856372 0-3.46284558-1.15428186-3.46284558-3.46284558v-4.23236682zm1.9238031 1.9238031v-1.9238031c0-1.02602832.51301416-1.53904248 1.53904248-1.53904248h4.61712744v1.53904248h-4.23236682c-.25650708 0-.38476062.12825354-.38476062.38476062h3.46284558v1.53904248h-5.00188806zm0 .38476062h5.00188806v1.53904248h-3.46284558c0 .25650708.12825354.38476062.38476062.38476062h4.23236682v1.53904248h-4.61712744c-1.02602832 0-1.53904248-.51301416-1.53904248-1.53904248v-1.9238031zm7.0539447-2.30856372c0-2.30856372 1.15428186-3.46284558 3.46284558-3.46284558h4.61712744v1.53904248h-4.61712744c-1.2825354 0-1.9238031.6412677-1.9238031 1.9238031v4.23236682c0 1.2825354.6412677 1.9238031 1.9238031 1.9238031h3.07808496v-4.23236682h-2.69332434v-1.53904248h4.23236682v7.43870532h-4.61712744c-2.30856372 0-3.46284558-1.15428186-3.46284558-3.46284558v-4.36062036zm1.9238031 0c0-1.02602832.51301416-1.53904248 1.53904248-1.53904248h4.61712744v1.53904248h-4.23236682c-.25650708 0-.38476062.12825354-.38476062.38476062v3.46284558c0 .25650708.12825354.38476062.38476062.38476062h.76952124v-.38476062h-.76952124v-1.53904248h2.30856372v3.46284558h-2.69332434c-1.02602832 0-1.53904248-.51301416-1.53904248-1.53904248v-4.23236682zm11.67107214 6.15616992h4.61712744l-3.07808496-7.95171948c-.12825354-.12825354-.25650708-.25650708-.51301416-.25650708s-.38476062.12825354-.51301416.25650708l-3.46284558 9.49076196h-1.53904248l3.59109912-10.00377612c.38476062-.89777478 1.02602832-1.2825354 1.9238031-1.2825354 1.02602832 0 1.66729602.38476062 1.9238031 1.2825354l3.71935266 10.00377612h-6.66918408v-1.53904248zm0-.38476062v-.89777478l-1.15428186 2.82157788h-1.53904248l3.33459204-9.10600134c0-.12825354.12825354-.25650708.25650708-.25650708s.25650708.12825354.25650708.25650708l2.69332434 7.18219824h-3.8476062zm.89777478-3.33459204l-.76952124 1.79554956h1.41078894l-.6412677-1.79554956z"/>
  <path fill="#f2ba5c" d="M183.02179162 205.33390228h69.76992576v-5.89966284l-3.8476062-3.33459204h-75.54133506m12.825354-12.31233984v2.43681726c0 .51301416-.25650708.76952124-.89777478 1.02602832s-1.41078894.25650708-2.43681726.25650708c-1.02602832 0-1.9238031-.12825354-2.5650708-.25650708-.6412677-.25650708-1.02602832-.51301416-1.02602832-1.02602832v-2.5650708h2.69332434v2.43681726c0 .12825354.12825354.25650708.25650708.38476062s.38476062.12825354.76952124.12825354c.25650708 0 .51301416 0 .76952124-.12825354.25650708 0 .25650708-.12825354.38476062-.25650708v-2.5650708h2.05205664zm3.46284558 2.30856372v1.41078894h-2.30856372v-3.71935266h3.2063385c.76952124 0 1.41078894 0 1.79554956.12825354s.76952124.25650708 1.02602832.38476062.38476062.38476062.38476062.6412677c0 .38476062-.25650708.6412677-.76952124.89777478s-1.15428186.38476062-2.05205664.38476062h-1.2825354zm0-.76952124h.76952124c.6412677 0 1.02602832-.12825354 1.02602832-.38476062s-.25650708-.38476062-.89777478-.38476062h-.89777478v.76952124zm10.38853674 1.2825354v.89777478h-5.64315576v-3.71935266h5.64315576v.89777478h-3.46284558v.51301416h2.69332434v.89777478h-2.69332434v.6412677h3.46284558zm6.92569116.89777478h-2.5650708l-1.02602832-1.41078894h-.76952124v1.41078894h-2.30856372v-3.71935266h3.8476062c.89777478 0 1.53904248.12825354 1.9238031.25650708.51301416.25650708.76952124.51301416.76952124.76952124s-.12825354.38476062-.25650708.51301416-.51301416.25650708-1.02602832.38476062l1.41078894 1.79554956zm-4.23236682-2.18031018h1.02602832c.25650708 0 .51301416 0 .6412677-.12825354.12825354 0 .25650708-.12825354.25650708-.25650708 0-.25650708-.25650708-.38476062-.89777478-.38476062h-1.02602832v.76952124zm-27.5745111 2.30856372c-.6412677 0-1.15428186 0-1.53904248-.12825354s-.76952124-.12825354-1.15428186-.25650708c-.25650708-.12825354-.51301416-.25650708-.6412677-.38476062s-.25650708-.38476062-.25650708-.51301416h1.53904248c0 .12825354.12825354.25650708.25650708.38476062s.25650708.12825354.51301416.25650708c.12825354 0 .38476062.12825354.6412677.12825354h1.41078894c.25650708 0 .38476062 0 .51301416-.12825354.12825354 0 .25650708-.12825354.38476062-.12825354s.12825354-.12825354.12825354-.25650708 0-.12825354-.12825354-.25650708c-.12825354 0-.25650708-.12825354-.38476062-.12825354s-.38476062-.12825354-.6412677-.12825354-.6412677-.12825354-1.02602832-.12825354c-.51301416 0-.89777478-.12825354-1.2825354-.12825354s-.6412677-.12825354-.89777478-.25650708-.38476062-.12825354-.51301416-.25650708-.12825354-.25650708-.12825354-.38476062.12825354-.25650708.25650708-.38476062.38476062-.25650708.6412677-.38476062.6412677-.12825354.89777478-.25650708c.38476062 0 .76952124-.12825354 1.2825354-.12825354s.89777478 0 1.2825354.12825354.76952124.12825354 1.02602832.25650708.51301416.25650708.6412677.38476062.25650708.38476062.25650708.51301416h-1.53904248c-.12825354-.38476062-.6412677-.6412677-1.66729602-.6412677-.51301416 0-.89777478 0-1.15428186.12825354s-.38476062.12825354-.38476062.25650708c0 0 0 .12825354.12825354.12825354s.12825354.12825354.25650708.12825354.25650708.12825354.51301416.12825354.38476062 0 .76952124.12825354c.25650708 0 .51301416 0 .76952124.12825354.25650708 0 .51301416 0 .76952124.12825354.25650708 0 .51301416.12825354.6412677.12825354.25650708 0 .38476062.12825354.6412677.25650708.12825354.12825354.25650708.12825354.38476062.25650708s.12825354.25650708.12825354.38476062-.12825354.38476062-.25650708.51301416-.38476062.25650708-.6412677.38476062-.6412677.12825354-1.02602832.25650708c-.6412677-.25650708-1.02602832-.12825354-1.41078894-.12825354z"/>
  <path fill="#f2ba5c" d="M192.76906066 203.7948598v-2.82157788l.38476062-.12825354c4.36062036-1.53904248 11.28631152-5.51490222 11.5428186-6.66918408 0-.12825354 0-.38476062-.12825354-.51301416-.25650708-.38476062-.89777478-.6412677-1.41078894-.6412677-.76952124 0-1.41078894.51301416-1.53904248 1.15428186v.38476062h-8.9777478l.25650708-.76952124c.89777478-3.33459204 5.00188806-5.51490222 10.64504382-5.51490222 6.28442346 0 10.64504382 2.30856372 10.64504382 5.51490222 0 2.30856372-2.30856372 4.23236682-7.0539447 5.64315576h6.66918408v4.4888739h-21.03358056z"/>
  <path fill="#2f3134" d="M205.33790758 194.30409784c.25650708-1.02602832-.89777478-1.9238031-2.18031018-1.9238031-1.02602832 0-1.9238031.6412677-2.05205664 1.53904248h-7.6952124c.76952124-2.82157788 4.4888739-5.00188806 10.13202966-5.00188806 5.51490222 0 10.13202966 1.9238031 10.13202966 4.87363452 0 2.5650708-3.71935266 4.36062036-8.20822656 5.51490222v.76952124h7.82346594v3.2063385H193.5385819v-1.9238031c3.33459204-1.2825354 11.28631152-5.38664868 11.79932568-7.0539447z"/>
  <path fill="#f2ba5c" d="M181.3544956 204.4361275c-2.69332434 0-7.6952124-.38476062-9.87552258-2.5650708-.76952124-.76952124-1.15428186-1.66729602-1.15428186-2.69332434v-.6412677h8.84949426l.12825354.51301416c.12825354.51301416.89777478 1.02602832 1.9238031 1.02602832 1.2825354 0 2.30856372-.51301416 2.30856372-1.02602832s-.89777478-1.02602832-2.30856372-1.02602832h-.51301416l-.6412677.12825354v-3.97585974l.89777478.12825354h.25650708c1.02602832 0 1.79554956-.51301416 1.79554956-.89777478s-.76952124-.89777478-1.79554956-.89777478c-.89777478 0-1.66729602.38476062-1.79554956.89777478v.25650708h-8.07997302v-.6412677c0-1.2825354 1.15428186-2.69332434 3.07808496-3.46284558 1.79554956-.76952124 4.23236682-1.2825354 7.31045178-1.2825354 5.1301416 0 10.2602832 1.41078894 10.2602832 4.10411328 0 1.15428186-1.02602832 2.30856372-2.5650708 3.07808496 2.30856372.76952124 3.2063385 2.43681726 3.2063385 3.71935266-.25650708 2.94983142-5.1301416 5.25839514-11.28631152 5.25839514z"/>
  <path fill="#2f3134" d="M170.96595886 199.3059859h7.6952124c.12825354.89777478 1.2825354 1.53904248 2.5650708 1.53904248 1.53904248 0 2.82157788-.76952124 2.82157788-1.66729602s-1.2825354-1.66729602-2.82157788-1.66729602h-.51301416V194.817112h.51301416c1.2825354 0 2.43681726-.6412677 2.43681726-1.53904248s-1.02602832-1.53904248-2.43681726-1.53904248c-1.15428186 0-2.18031018.6412677-2.30856372 1.41078894h-7.0539447c0-.89777478 1.02602832-2.18031018 2.69332434-2.94983142 1.79554956-.89777478 4.36062036-1.15428186 7.0539447-1.15428186 5.38664868 0 9.6190155 1.53904248 9.6190155 3.59109912 0 1.15428186-1.53904248 2.30856372-4.10411328 2.94983142v.6412677c3.2063385.38476062 4.61712744 1.66729602 4.61712744 3.2063385 0 2.5650708-4.61712744 4.61712744-10.38853674 4.61712744-5.7714093 0-10.38853674-1.53904248-10.38853674-4.74538098"/>
  <path fill="#f2ba5c" d="M251.50918198 204.82088812h-23.21389074l-.12825354-.12825354-21.93135534-21.29008764h23.98341198l21.54659472 20.90532702-.25650708.25650708v.25650708zm-22.95738366-.51301416h22.18786242l-20.77707348-20.26405932h-22.18786242l20.77707348 20.26405932z"/>
  <path fill="#f2ba5c" d="M251.50918198 204.56438104h-23.0856372l-21.41834118-20.77707348h23.0856372l21.41834118 20.77707348"/>
  <path fill="#2f3134" d="M251.50918198 204.56438104h-23.0856372l-21.41834118-20.77707348h23.0856372l21.41834118 20.77707348"/>
  <path fill="#f2ba5c" d="M230.60385496 188.53268854l3.07808496-2.82157788h12.95360754l-9.49076196 8.84949426 10.00377612 9.23425488h-13.08186108l-3.33459204-3.07808496-3.33459204 3.07808496h-13.08186108l9.74726904-9.10600134-9.74726904-8.9777478h13.08186108"/>
  <path fill="#2f3134" d="M224.9606992 194.68885846l-9.10600134-8.3364801h11.28631152l3.46284558 3.07808496 3.33459204-3.07808496h11.15805798l-8.84949426 8.3364801 9.36250842 8.59298718h-11.28631152l-3.71935266-3.33459204-3.59109912 3.33459204h-11.15805798l9.10600134-8.59298718z"/>
  <path fill="#2c2c2d" d="M865.4791142 221.36385h116.71286895c11.45725035 0 20.77413525 9.3168849 20.77413525 20.77413525V392.0894706c0 8.0578464-6.67290405 14.73075045-14.73075045 14.73075045h-245.5125075c-8.0578464 0-14.73075045-6.67290405-14.73075045-14.73075045V242.13798525c0-11.45725035 9.3168849-20.77413525 20.77413525-20.77413525H865.4791142"/>
  <path fill="#121115" d="M727.99211 241.2566583v154.1063124c0 .7554231.62951925 1.2590385 1.38494235 1.2590385 8.43555795-1.0072308 15.3602697-3.2735001 20.3964237-5.5397694 2.2662693-1.0072308 4.2807309-2.518077 5.66567325-4.65844245 1.88855775-2.7698847 2.7698847-6.16928865 2.2662693-9.44278875l-16.49340435-121.74902295c-.5036154-3.5253078-3.5253078-7.42832715-6.42109635-9.5686926l-6.7988079-4.40663475m274.84810455 0v154.1063124c0 .7554231-.62951925 1.2590385-1.38494235 1.2590385-8.43555795-1.0072308-15.3602697-3.2735001-20.3964237-5.5397694-2.2662693-1.0072308-4.2807309-2.518077-5.66567325-4.65844245-1.88855775-2.7698847-2.7698847-6.16928865-2.2662693-9.44278875l16.49340435-121.74902295c.5036154-3.5253078 3.5253078-7.42832715 6.42109635-9.5686926l6.7988079-4.40663475M865.4791142 378.86956635c21.4036545.2518077 67.35855975-6.0433848 67.35855975-6.0433848 32.35728945-4.40663475 34.4976549-16.3675005 36.0085011-43.68863595l5.41386555-92.6652336c0-8.3096541-6.7988079-15.108462-15.108462-15.108462H771.68074595c-8.3096541 0-15.108462 6.7988079-15.108462 15.108462l5.41386555 92.6652336c1.63675005 27.32113545 3.65121165 39.2820012 36.0085011 43.68863595 0 0 46.0808091 6.2951925 67.4844636 6.0433848z"/>
  <path fill="#232122" d="M865.35321035 243.7747353h85.48871415c3.65121165 0 6.67290405 3.0216924 6.67290405 6.67290405v90.27306045c0 8.5614618-6.92471175 15.48617355-15.48617355 15.48617355h-76.5495408.12590385-76.67544465c-8.5614618 0-15.48617355-6.92471175-15.48617355-15.48617355v-90.3989643c0-3.65121165 3.0216924-6.67290405 6.67290405-6.67290405h85.23690645"/>
  <path fill="#fbe627" d="M797.9946506 244.65606225v112.0544265-.37771155h-9.0650772c-8.5614618 0-15.48617355-6.92471175-15.48617355-15.48617355v-90.1471566c0-3.65121165 3.0216924-6.67290405 6.67290405-6.67290405h17.8783467"/>
  <path fill="#121115" d="M798.37236215 406.82022105c-1.13313465 0-2.0144616-.88132695-2.0144616-2.0144616v-13.0940004c0-1.13313465.88132695-2.0144616 2.0144616-2.0144616 1.13313465 0 2.0144616.88132695 2.0144616 2.0144616v13.0940004c0 1.13313465-.88132695 2.0144616-2.0144616 2.0144616zm26.81752005 0c-1.13313465 0-2.0144616-.88132695-2.0144616-2.0144616v-13.0940004c0-1.13313465.88132695-2.0144616 2.0144616-2.0144616 1.13313465 0 2.0144616.88132695 2.0144616 2.0144616v13.0940004c-.12590385 1.13313465-1.0072308 2.0144616-2.0144616 2.0144616zm27.06932775 0c-1.13313465 0-2.0144616-.88132695-2.0144616-2.0144616v-13.0940004c0-1.13313465.88132695-2.0144616 2.0144616-2.0144616 1.13313465 0 2.0144616.88132695 2.0144616 2.0144616v13.0940004c-.12590385 1.13313465-1.0072308 2.0144616-2.0144616 2.0144616zm26.6916162 0c-1.13313465 0-2.0144616-.88132695-2.0144616-2.0144616v-13.0940004c0-1.13313465.88132695-2.0144616 2.0144616-2.0144616 1.13313465 0 2.0144616.88132695 2.0144616 2.0144616v13.0940004c0 1.13313465-.88132695 2.0144616-2.0144616 2.0144616zm26.81752005 0c-1.13313465 0-2.0144616-.88132695-2.0144616-2.0144616v-13.0940004c0-1.13313465.88132695-2.0144616 2.0144616-2.0144616 1.13313465 0 2.0144616.88132695 2.0144616 2.0144616v13.0940004c-.12590385 1.13313465-1.0072308 2.0144616-2.0144616 2.0144616zm26.6916162 0c-1.13313465 0-2.0144616-.88132695-2.0144616-2.0144616v-13.0940004c0-1.13313465.88132695-2.0144616 2.0144616-2.0144616 1.13313465 0 2.0144616.88132695 2.0144616 2.0144616v13.0940004c0 1.13313465-.88132695 2.0144616-2.0144616 2.0144616z"/>
  <path d="M787.1669195 267.1928514v67.10675205l8.18375025-8.5614618v-61.9446942h-5.2879617m-13.97532735 59.1748095h2.2662693c.37771155 0 .7554231.2518077.88132695.88132695.12590385.5036154.2518077 1.2590385.2518077 2.14036545 0 1.0072308-.12590385 1.7626539-.2518077 2.2662693-.12590385.62951925-.5036154.88132695-.88132695.88132695h-2.2662693v-2.39217315h2.2662693c.12590385 0 .2518077-.12590385.37771155-.2518077.12590385-.12590385.12590385-.37771155.12590385-.7554231 0-.2518077 0-.5036154-.12590385-.62951925 0-.12590385-.12590385-.2518077-.12590385-.37771155h-2.39217315v-1.7626539zm2.14036545-3.14759625h1.2590385v2.14036545h-3.39940395v-2.89578855c0-.7554231 0-1.2590385.12590385-1.63675005.12590385-.37771155.2518077-.62951925.37771155-.88132695.12590385-.2518077.37771155-.37771155.62951925-.37771155.37771155 0 .62951925.2518077.7554231.62951925.2518077.5036154.2518077 1.0072308.2518077 1.7626539v1.2590385zm-.62951925 0v-.62951925c0-.62951925-.12590385-.88132695-.37771155-.88132695-.2518077 0-.2518077.2518077-.2518077.88132695v.7554231h.62951925zm1.13313465-9.19098105h.7554231v5.036154h-3.39940395v-5.036154h.7554231v3.0216924h.5036154v-2.39217315h.7554231v2.39217315h.5036154v-3.0216924zm.7554231-6.16928865v2.2662693l-1.2590385 1.0072308v.5036154h1.2590385v2.0144616h-3.39940395v-3.39940395c0-.7554231.12590385-1.38494235.2518077-1.7626539.12590385-.37771155.37771155-.62951925.7554231-.62951925.2518077 0 .37771155.12590385.5036154.2518077.12590385.12590385.2518077.5036154.37771155.88132695l1.5108462-1.13313465zm-2.0144616 3.7771155v-.88132695c0-.2518077 0-.5036154-.12590385-.62951925 0-.12590385-.12590385-.2518077-.2518077-.2518077-.2518077 0-.37771155.2518077-.37771155.7554231v1.0072308h.7554231zm2.14036545 24.55125075c0 .5036154 0 1.0072308-.12590385 1.38494235-.12590385.37771155-.12590385.7554231-.2518077 1.0072308-.12590385.2518077-.2518077.5036154-.37771155.62951925-.2518077 0-.37771155.12590385-.5036154.12590385v-1.2590385c.12590385 0 .2518077-.12590385.2518077-.2518077.12590385-.12590385.12590385-.2518077.2518077-.37771155 0-.12590385.12590385-.37771155.12590385-.5036154v-1.2590385c0-.12590385 0-.37771155-.12590385-.5036154 0-.12590385-.12590385-.2518077-.12590385-.2518077 0-.12590385-.12590385-.12590385-.12590385-.12590385-.12590385 0-.12590385 0-.12590385.12590385s-.12590385.12590385-.12590385.37771155c0 .12590385-.12590385.37771155-.12590385.62951925 0 .2518077-.12590385.5036154-.12590385.88132695s-.12590385.7554231-.12590385 1.13313465c0 .2518077-.12590385.5036154-.2518077.7554231-.12590385.2518077-.12590385.37771155-.2518077.37771155-.12590385.12590385-.2518077.12590385-.37771155.12590385-.12590385 0-.2518077-.12590385-.37771155-.2518077-.12590385-.12590385-.2518077-.2518077-.2518077-.5036154-.12590385-.2518077-.12590385-.5036154-.2518077-.88132695 0-.37771155-.12590385-.7554231-.12590385-1.13313465 0-.37771155 0-.7554231.12590385-1.13313465 0-.37771155.12590385-.62951925.2518077-.88132695.12590385-.2518077.2518077-.5036154.37771155-.62951925.12590385-.12590385.2518077-.2518077.5036154-.2518077v1.2590385c-.37771155.12590385-.5036154.62951925-.5036154 1.5108462 0 .5036154 0 .7554231.12590385 1.0072308.12590385.2518077.12590385.37771155.2518077.37771155 0 0 .12590385 0 .12590385-.12590385 0 0 .12590385-.12590385.12590385-.2518077s0-.2518077.12590385-.37771155c0-.12590385 0-.37771155.12590385-.62951925 0-.2518077 0-.5036154.12590385-.62951925 0-.2518077 0-.5036154.12590385-.62951925 0-.2518077.12590385-.37771155.12590385-.62951925 0-.2518077.12590385-.37771155.12590385-.5036154.12590385-.12590385.12590385-.2518077.2518077-.37771155.12590385-.12590385.2518077-.12590385.37771155-.12590385.12590385 0 .2518077.12590385.37771155.2518077.12590385.12590385.2518077.37771155.37771155.62951925.12590385.2518077.12590385.5036154.2518077.88132695-.37771155.2518077-.2518077.62951925-.2518077 1.0072308zm5.41386555-63.4555404v.62951925h1.5108462v.37771155h-1.5108462v.62951925h-.37771155v-1.5108462h.37771155zm1.5108462-2.14036545v.37771155h-1.13313465l1.13313465.37771155v.2518077l-1.13313465.37771155h1.13313465v.37771155h-1.88855775v-.5036154l1.2590385-.5036154-1.2590385-.5036154v-.5036154h1.88855775z"/>
  <path d="M793.9657274 317.050776h-2.518077l-.12590385-.37771155c-1.38494235-3.7771155-4.91025015-10.072308-5.91748095-10.3241157-.12590385 0-.37771155 0-.5036154.12590385-.37771155.2518077-.5036154.7554231-.5036154 1.2590385 0 .62951925.37771155 1.2590385 1.0072308 1.38494235h.37771155v8.0578464l-.88132695-.12590385c-3.0216924-.7554231-4.91025015-4.5325386-4.91025015-9.44278875 0-5.5397694 2.0144616-9.44278875 4.91025015-9.44278875 2.0144616 0 3.65121165 2.0144616 5.036154 6.2951925v-5.91748095h3.90301935V317.050776z"/>
  <path fill="#fff" d="M785.53016945 305.9712372c-.88132695-.2518077-1.7626539.88132695-1.7626539 1.88855775 0 .88132695.62951925 1.63675005 1.38494235 1.88855775v6.92471175c-2.518077-.62951925-4.5325386-4.0289232-4.5325386-8.93917335s1.7626539-8.93917335 4.2807309-8.93917335c2.2662693 0 3.90301935 3.2735001 4.91025015 7.3024233h.62951925v-7.0506156h3.0216924v17.626539h-1.63675005c-1.2590385-3.14759625-4.7843463-10.3241157-6.2951925-10.70182725z"/>
  <path d="M794.59524665 327.24898785c0 2.39217315-.2518077 6.7988079-2.2662693 8.8132695-.62951925.62951925-1.5108462 1.0072308-2.39217315 1.0072308h-.5036154v-7.93194255l.37771155-.12590385c.37771155-.12590385.88132695-.7554231.88132695-1.7626539 0-1.13313465-.5036154-2.0144616-1.0072308-2.0144616s-1.0072308.88132695-1.0072308 2.0144616v.37771155l.12590385.62951925h-3.5253078l.12590385-.7554231v-.2518077c0-.88132695-.5036154-1.5108462-.88132695-1.5108462s-.88132695.62951925-.88132695 1.5108462.37771155 1.5108462.7554231 1.5108462l.37771155.12590385v7.3024233h-.5036154c-1.13313465 0-2.39217315-1.13313465-3.14759625-2.64398085-.7554231-1.5108462-1.13313465-3.7771155-1.13313465-6.5470002 0-4.5325386 1.2590385-9.0650772 3.65121165-9.0650772 1.0072308 0 2.0144616.88132695 2.7698847 2.2662693.7554231-2.0144616 2.14036545-2.7698847 3.2735001-2.7698847 2.89578855 0 4.91025015 4.2807309 4.91025015 9.8205003z"/>
  <path fill="#fff" d="M789.9368042 336.4399689v-6.7988079c.7554231-.12590385 1.2590385-1.13313465 1.2590385-2.2662693 0-1.38494235-.62951925-2.518077-1.5108462-2.518077s-1.5108462 1.13313465-1.5108462 2.518077v.37771155h-2.2662693v-.37771155c0-1.13313465-.62951925-2.14036545-1.38494235-2.14036545s-1.38494235.88132695-1.38494235 2.14036545c0 1.13313465.5036154 2.0144616 1.2590385 2.14036545v6.2951925c-.88132695 0-1.88855775-.88132695-2.64398085-2.39217315-.7554231-1.63675005-1.0072308-3.7771155-1.0072308-6.2951925 0-4.7843463 1.38494235-8.5614618 3.14759625-8.5614618 1.13313465 0 2.0144616 1.38494235 2.64398085 3.65121165h.5036154c.37771155-2.7698847 1.38494235-4.15482705 2.89578855-4.15482705 2.2662693 0 4.15482705 4.15482705 4.15482705 9.19098105s-1.2590385 9.19098105-4.15482705 9.19098105"/>
  <path fill="#1d46a5" d="M794.59524665 264.9265821v20.52232755L776.0873807 304.460391v-20.52232755h.12590385l18.3819621-19.01148135"/>
  <path d="M793.9657274 268.7036976v11.70905805l-2.7698847 3.0216924 2.7698847 3.0216924v11.45725035l-8.18375025-8.68736565-7.93194255 8.68736565v-11.5831542l2.64398085-2.7698847-2.64398085-2.7698847v-11.45725035l7.93194255 8.3096541"/>
  <path fill="#fff" d="M785.78197715 288.47060205l-7.42832715 8.0578464v-10.072308l2.7698847-3.0216924-2.64398085-2.89578855v-9.94640415l7.42832715 7.8060387 7.68013485-8.3096541v10.072308l-3.0216924 3.2735001 3.0216924 3.14759625v9.94640415l-7.8060387-8.0578464z"/>
</svg>
