<svg xmlns="http://www.w3.org/2000/svg" viewBox="0 0 530.2 317.2">
  <path fill="#171819" d="M528.7 161c0 16.3-.4 31.1-1 44.3-1 22-2.5 39.3-3.8 51.1-2.4 22.8-.5 39.3-23.4 48.3-12.7 5-53.6 6-60 3.8-6.4-2.2-11.3-3.4-14.2-11.8-3-8.4-13.4-50.2-18.4-60.4-5.1-10.2-14.8-34-17-40.8l-2.2-6.8s-4.2-11.4-4.2-27.8 4.2-27.8 4.2-27.8l2.2-6.8c2.2-6.8 11.9-30.7 17-40.8 5.1-10.2 15.4-52 18.4-60.4 3-8.4 7.9-9.6 14.2-11.8 6.4-2.2 47.3-1.2 60 3.8 22.9 9 21 25.5 23.4 48.3 1.2 11.8 2.8 29.1 3.8 51.1.6 13.3 1 28.2 1 44.5"/>
  <path fill="#171819" d="M516.7 161.1c.5 44.4-2.6 107.9-9 116.4-9.1 16.3-22.4 15.9-32.6 16.8-5.2-.3-14.7-1.8-23.6-8.4-2.8-2-6-5.6-7.8-7.6-17.5-24.8-47.7-61-50.8-117.2v-.1c3.1-56.2 33.3-92.3 50.8-117.2 1.8-2 5-5.6 7.8-7.6 9-6.6 18.5-8 23.6-8.4 10.2.9 23.6.5 32.6 16.8 6.4 8.6 9.5 72 9 116.4"/>
  <path fill="#282827" d="M447 161.3v-.3l1.9 89.5c.6 9.3 1.2 16.3 10 22.8 3.7 2.8 8.3 4.1 12.9 4.1h3.3c18.5 0 25.5-9.4 28.5-25.1 0 0 4.1-37.4 4.1-91.3s-4.1-91.3-4.1-91.3c-3-15.7-10-25.1-28.5-25.1h-3.3c-4.6 0-9.2 1.4-12.9 4.1-8.8 6.5-9.3 13.4-10 22.8L447 161v-.3"/>
  <path fill="#1D1D1D" d="M502.5 160.8c0 47.9-4 80.4-4 80.4-2.3 13.9-6.7 23-20.7 23H471c-8 0-14.5-6.5-14.5-14.5v-88.9.3-88.8c0-8 6.5-14.5 14.5-14.5h6.8c14 0 18.4 9.1 20.7 23 0 0 4 32.5 4 80.4"/>
  <path fill="#1B1C1C" d="M460 69.2h30.2v183.6H460z"/>
  <path fill="#414446" d="M460.2 69.5H490v183.1h-29.8z"/>
  <path fill="#1B1D1E" d="M460.2 160.8v63.1c0 13.2 8.7 24.6 12 28.6H490v-91.7.4-91.7h-17.7c-3.3 4-12 15.4-12 28.6v63.1"/>
  <path fill="#46494B" d="M483.5 69.5v12.4c0 .4.4.8.8.8h5.7V69.5h-6.5zm0 183v-12.4c0-.4.4-.8.8-.8h5.7v13.2h-6.5z"/>
  <path fill="#45494A" d="M487.8 160.8v74.7c0 .4-.4.8-.8.8h-4.5c-.4 0-.8.3-.8.8v11.5h-9.4c-6-7.3-10.6-15.6-10.6-29V102.2c0-13.4 4.6-21.7 10.6-29h9.4v11.5c0 .4.4.8.8.8h4.5c.4 0 .8.4.8.8v74.5z"/>
  <path d="M474.5 69.5h.6v183.1h-.6z"/>
  <path fill="#1C1E1F" d="M473.3 109.7h1.2v102.2h-1.2z"/>
  <path fill="#202223" d="M472.1 109.7h1.2v102.2h-1.2z"/>
  <path fill="#242627" d="M470.9 109.7h1.2v102.2h-1.2z"/>
  <path fill="#292C2D" d="M469.7 109.7h1.2v102.2h-1.2z"/>
  <path fill="#2F3133" d="M468.5 109.7h1.2v102.2h-1.2z"/>
  <path fill="#333637" d="M467.3 109.7h1.2v102.2h-1.2z"/>
  <path fill="#373A3C" d="M466.1 109.7h1.2v102.2h-1.2z"/>
  <path fill="#3B3E3F" d="M464.9 109.7h1.2v102.2h-1.2z"/>
  <path fill="#3F4244" d="M463.7 109.7h1.2v102.2h-1.2z"/>
  <path fill="#1B1D1E" d="M474.5 112.8v-3.1h-10.8s9.1.8 10.8 3.1zm0 95.9v3.1h-10.8c0 .1 9.1-.7 10.8-3.1z"/>
  <path fill="#1C1E1F" d="M475.1 109.7h1.2v102.2h-1.2z"/>
  <path fill="#202223" d="M476.3 109.7h1.2v102.2h-1.2z"/>
  <path fill="#242627" d="M477.5 109.7h1.2v102.2h-1.2z"/>
  <path fill="#292C2D" d="M478.7 109.7h1.2v102.2h-1.2z"/>
  <path fill="#2F3133" d="M479.9 109.7h1.2v102.2h-1.2z"/>
  <path fill="#333637" d="M481.1 109.7h1.2v102.2h-1.2z"/>
  <path fill="#373A3C" d="M482.3 109.7h1.2v102.2h-1.2z"/>
  <path fill="#3B3E3F" d="M483.5 109.7h1.2v102.2h-1.2z"/>
  <path fill="#3F4244" d="M484.7 109.7h1.2v102.2h-1.2z"/>
  <path fill="#1B1D1E" d="M475.1 112.8v-3.1h11.2s-9.4.8-11.2 3.1zm0 95.9v3.1h11.2c0 .1-9.4-.7-11.2-3.1z"/>
  <path fill="#0E1214" d="M476.7 88.4v.6c-.2 0-.5-.1-.5-.3 0-.2.2-.3.5-.3z"/>
  <path fill="#5E5E60" d="M485.9 88.4v.6c.2 0 .5-.1.5-.3-.1-.2-.3-.3-.5-.3z"/>
  <path fill="#393D3F" d="M476.7 88.4h9.2v.6h-9.2z"/>
  <path fill="#0E1214" d="M476.7 93.9v.6c-.2 0-.5-.1-.5-.3 0-.2.2-.3.5-.3z"/>
  <path fill="#5E5E60" d="M485.9 93.9v.6c.2 0 .5-.1.5-.3-.1-.2-.3-.3-.5-.3z"/>
  <path fill="#393D3F" d="M476.7 93.9h9.2v.6h-9.2z"/>
  <path fill="#0E1214" d="M463.7 93.9v.6c-.2 0-.5-.1-.5-.3.1-.2.3-.3.5-.3z"/>
  <path fill="#5E5E60" d="M472.9 93.9v.6c.2 0 .5-.1.5-.3-.1-.2-.3-.3-.5-.3z"/>
  <path fill="#393D3F" d="M463.7 93.9h9.2v.6h-9.2z"/>
  <path fill="#0E1214" d="M465.4 88.4v.6c-.2 0-.5-.1-.5-.3.1-.2.3-.3.5-.3z"/>
  <path fill="#5E5E60" d="M472.9 88.4v.6c.2 0 .5-.1.5-.3-.1-.2-.3-.3-.5-.3z"/>
  <path fill="#393D3F" d="M465.4 88.4h7.5v.6h-7.5z"/>
  <path fill="#0E1214" d="M476.7 233.2v-.6c-.2 0-.5.1-.5.3 0 .2.2.3.5.3z"/>
  <path fill="#5E5E60" d="M485.9 233.2v-.6c.2 0 .5.1.5.3-.1.2-.3.3-.5.3z"/>
  <path fill="#393D3F" d="M476.7 232.6h9.2v.6h-9.2z"/>
  <path fill="#0E1214" d="M476.7 227.7v-.6c-.2 0-.5.1-.5.3 0 .1.2.3.5.3z"/>
  <path fill="#5E5E60" d="M485.9 227.7v-.6c.2 0 .5.1.5.3-.1.1-.3.3-.5.3z"/>
  <path fill="#393D3F" d="M476.7 227.1h9.2v.6h-9.2z"/>
  <path fill="#0E1214" d="M463.7 227.7v-.6c-.2 0-.5.1-.5.3.1.1.3.3.5.3z"/>
  <path fill="#5E5E60" d="M472.9 227.7v-.6c.2 0 .5.1.5.3-.1.1-.3.3-.5.3z"/>
  <path fill="#393D3F" d="M463.7 227.1h9.2v.6h-9.2z"/>
  <path fill="#0E1214" d="M465.4 233.2v-.6c-.2 0-.5.1-.5.3.1.2.3.3.5.3z"/>
  <path fill="#5E5E60" d="M472.9 233.2v-.6c.2 0 .5.1.5.3-.1.2-.3.3-.5.3z"/>
  <path fill="#393D3F" d="M465.4 232.6h7.5v.6h-7.5z"/>
  <path d="M488 86.4h2.2v7.1H488zm-25.7.2h1.9c-.8 2.1-1.4 4.4-1.9 6.9h-1.8c.4-2.4 1-4.8 1.8-6.9M488 228.4h2.2v7.1H488zm-25.7 7h1.9c-.8-2.1-1.4-4.4-1.9-6.9h-1.8c.4 2.4 1 4.7 1.8 6.9"/>
  <path fill="#2A2C2E" d="M456.8 249.7V72.3c0-8.1 6.6-14.7 14.6-14.7h6.8c14.2 0 18.6 9.2 20.8 23.1 0 .3 4 32.9 4 80.1v.3c0 47.2-4 79.8-4 80.1-2.2 13.9-6.6 23.1-20.8 23.1h-6.8c-8.1.1-14.6-6.5-14.6-14.6zm.3-88.5v88.6c0 7.9 6.4 14.3 14.4 14.3h6.8c14 0 18.3-9.1 20.5-22.9 0-.3 4-33 4-80.2s-4-79.9-4-80.2c-2.2-13.7-6.6-22.9-20.5-22.9h-6.8c-7.9 0-14.4 6.4-14.4 14.3v89z"/>
  <path fill="#3F3F3F" d="M446.8 161.4v-.7l1.9-89.2c.6-9.1 1.1-16.3 10.1-22.9 3.6-2.7 8.2-4.2 13-4.2h3.3c8.9 0 15.5 2.2 20.2 6.7 4.2 4 6.8 9.9 8.5 18.5 0 .4 4.1 38 4.1 91.3s-4.1 90.9-4.1 91.3c-1.6 8.6-4.3 14.5-8.5 18.5-4.6 4.5-11.2 6.7-20.2 6.7h-3.3c-4.7 0-9.4-1.5-13-4.2-8.9-6.6-9.4-13.8-10.1-22.9l-1.9-88.9zm60.8-.4c0-53.3-4.1-90.9-4.1-91.3-3.3-17.5-11.8-25-28.3-25h-3.3c-4.7 0-9.2 1.5-12.8 4.1-8.8 6.5-9.3 13.6-9.9 22.6l-1.9 89.5 1.9 89.5c.6 9 1.1 16.1 9.9 22.6 3.6 2.6 8.1 4.1 12.8 4.1h3.3c16.5 0 25-7.5 28.3-25 0-.2 4.1-37.8 4.1-91.1z"/>
  <path fill="#2A2C2E" d="M392.9 161c2.8-50.8 27.4-84.8 45.3-109.7 1.9-2.7 3.7-5.2 5.4-7.6 2.1-2.4 5.2-5.7 7.8-7.7 8.4-6.2 17.5-8 23.7-8.4.8.1 1.7.1 2.5.2 9.7.7 21.9 1.6 30.2 16.6 6.5 8.8 9.5 74.5 9 116.5h-.3c.5-42-2.5-107.6-9-116.3-8.3-14.9-20.3-15.8-30-16.5-.9-.1-1.7-.1-2.5-.2-6.1.4-15.2 2.2-23.5 8.3-2.6 1.9-5.6 5.2-7.7 7.6-1.7 2.4-3.5 4.9-5.4 7.6-17.9 24.8-42.5 58.8-45.3 109.5v.1c2.8 50.7 27.3 84.7 45.3 109.5 1.9 2.7 3.7 5.2 5.4 7.6 2.1 2.4 5.1 5.7 7.7 7.6 8.4 6.2 17.4 7.9 23.5 8.3.8-.1 1.6-.1 2.5-.2 9.7-.7 21.7-1.6 30-16.5 6.5-8.7 9.4-74.3 9-116.3h.3c.5 42.1-2.5 107.7-9 116.5-8.4 15-20.5 15.9-30.2 16.6-.9.1-1.7.1-2.5.2-6.2-.4-15.3-2.2-23.7-8.4-2.6-1.9-5.7-5.2-7.8-7.6-1.7-2.4-3.5-4.9-5.4-7.6-18-24.9-42.6-58.9-45.3-109.7z"/>
  <path fill="#1B1D1E" d="M468 306.2c-1.4 0-2.6-1-2.6-2.2v-6c0-1.2 1.2-2.3 2.6-2.3s2.6 1 2.6 2.3v5.9c0 1.3-1.2 2.3-2.6 2.3z"/>
  <path fill="#2E3233" d="M468 304.6c-.9 0-1.7-.7-1.7-1.6v-4.1c0-.9.8-1.6 1.7-1.6.9 0 1.7.7 1.7 1.6v4.1c0 .9-.8 1.6-1.7 1.6z"/>
  <path d="M469.7 298.9h.9v4.1h-.9zm-4.3 0h.9v4.1h-.9z"/>
  <path fill="#1B1D1E" d="M476.1 306.2c-1.4 0-2.6-1-2.6-2.2v-6c0-1.2 1.2-2.3 2.6-2.3s2.6 1 2.6 2.3v5.9c0 1.3-1.2 2.3-2.6 2.3z"/>
  <path fill="#2E3233" d="M476.1 304.6c-.9 0-1.7-.7-1.7-1.6v-4.1c0-.9.8-1.6 1.7-1.6.9 0 1.7.7 1.7 1.6v4.1c0 .9-.7 1.6-1.7 1.6z"/>
  <path d="M477.8 298.9h.9v4.1h-.9zm-4.3 0h.9v4.1h-.9z"/>
  <path fill="#1B1D1E" d="M484.2 306.2c-1.4 0-2.6-1-2.6-2.2v-6c0-1.2 1.2-2.3 2.6-2.3s2.6 1 2.6 2.3v5.9c0 1.3-1.1 2.3-2.6 2.3z"/>
  <path fill="#2E3233" d="M484.2 304.6c-.9 0-1.7-.7-1.7-1.6v-4.1c0-.9.8-1.6 1.7-1.6.9 0 1.7.7 1.7 1.6v4.1c.1.9-.7 1.6-1.7 1.6z"/>
  <path d="M486 298.9h.9v4.1h-.9zm-4.3 0h.9v4.1h-.9z"/>
  <path fill="#1B1D1E" d="M468 15.8c-1.4 0-2.6 1-2.6 2.2v6c0 1.2 1.2 2.3 2.6 2.3 1.4 0 2.6-1 2.6-2.3v-5.9c0-1.3-1.1-2.3-2.6-2.3z"/>
  <path fill="#2E3233" d="M468 17.4c-.9 0-1.7.7-1.7 1.6v4.1c0 .9.8 1.6 1.7 1.6s1.7-.7 1.7-1.6V19c.1-.9-.7-1.6-1.7-1.6z"/>
  <path d="M469.8 19h.9v4.1h-.9zm-4.3 0h.9v4.1h-.9z"/>
  <path fill="#1B1D1E" d="M476.2 15.8c-1.4 0-2.6 1-2.6 2.2v6c0 1.2 1.2 2.3 2.6 2.3 1.4 0 2.6-1 2.6-2.3v-5.9c-.1-1.3-1.2-2.3-2.6-2.3z"/>
  <path fill="#2E3233" d="M476.2 17.4c-.9 0-1.7.7-1.7 1.6v4.1c0 .9.8 1.6 1.7 1.6s1.7-.7 1.7-1.6V19c0-.9-.8-1.6-1.7-1.6z"/>
  <path d="M477.9 19h.9v4.1h-.9zm-4.3 0h.9v4.1h-.9z"/>
  <path fill="#1B1D1E" d="M484.3 15.8c-1.4 0-2.6 1-2.6 2.2v6c0 1.2 1.2 2.3 2.6 2.3 1.4 0 2.6-1 2.6-2.3v-5.9c0-1.3-1.2-2.3-2.6-2.3z"/>
  <path fill="#2E3233" d="M484.3 17.4c-.9 0-1.7.7-1.7 1.6v4.1c0 .9.8 1.6 1.7 1.6s1.7-.7 1.7-1.6V19c0-.9-.8-1.6-1.7-1.6z"/>
  <path d="M486 19h.9v4.1h-.9zm-4.3 0h.9v4.1h-.9z"/>
  <path fill="#171819" d="M446.6 311c-.5 0-21.5-.2-30.2-1.4-8.9-1.2-19.6 1.1-27.1-16.2-7.4-17.3-13.9-43.3-18.2-80.6-4.3-37.3-3.8-83.4 2.3-119.9 6.2-36.4 10.9-56.7 16.3-67.9 5.7-12 15.8-13.3 25.4-13.5 5-.1 30.1-.4 37.4-.5-6.5.1-11.6.5-13.5 1.1l-1.1.4c-6.1 2-11.4 3.8-14.5 12.4-1.1 3-3.1 10.2-5.5 18.5-4.2 14.9-10 35.2-13.3 41.7-5.2 10.3-15.3 34.4-17.5 41l-2.2 6.7c-.2.5-4.4 11.8-4.4 28.3s4.2 27.7 4.4 28.1l2.2 6.8c2.2 6.7 12.2 30.7 17.5 41 3.3 6.5 9.1 26.8 13.3 41.7 2.4 8.3 4.4 15.5 5.5 18.5 3.2 8.7 8.4 10.4 14.5 12.4l1.1.4c1.3.5 4 .8 7.6 1z"/>
  <path fill="#0B0C0D" d="M527.6 116.5c-1-22-2.5-39.1-3.8-50.9-2.4-22.8-.5-39.3-23.3-48.3-12.7-5-53.5-6-59.9-3.8-6.4 2.2-11.2 3.4-14.2 11.8S413 75.5 408 85.7c-5.1 10.2-14.8 34-17 40.8l-2.2 6.8s-4.2 11.4-4.2 27.8 4.2 27.8 4.2 27.8l2.2 6.8c2.2 6.8 11.9 30.7 17 40.8 5.1 10.2 15.4 52 18.4 60.4 3 8.4 7.9 9.6 14.2 11.8 6.4 2.2 47.2 1.2 59.9-3.8 22.9-9 21-25.5 23.3-48.3 1.2-11.8 2.8-29.1 3.8-51.1.6-13.2 1-28.2 1-44.5v-.1c0-16.5-.4-31.3-1-44.4m1.6-.1c.6 13.2 1 28.2 1 44.5v.1c0 16.3-.4 31.1-1 44.3-.8 17.6-2.1 34.7-3.9 51.3-.3 2.9-.6 5.8-.8 8.5-1.6 18.4-2.8 32.9-24.1 41.1-9.4 3.6-32.6 5.1-48.2 4.9h-.8c-6.5-.1-11.6-.5-13.5-1.1l-1.1-.4c-6.1-2-11.3-3.8-14.5-12.4-1.1-3-3.1-10.2-5.5-18.5-4.2-14.9-10-35.2-13.3-41.7-5.2-10.3-15.3-34.4-17.5-41l-2.2-6.7c-.2-.5-4.4-11.8-4.4-28.3s4.2-27.8 4.4-28.3l2.2-6.7c2.2-6.7 12.2-30.7 17.5-41 3.3-6.5 9.1-26.8 13.3-41.7 2.4-8.3 4.4-15.5 5.5-18.5 3.2-8.7 8.4-10.4 14.5-12.4l1.2-.4c1.9-.6 7-1 13.5-1.1h.8c15.6-.2 38.8 1.3 48.2 4.9 21.3 8.2 22.6 22.7 24.1 41.1.2 2.7.5 5.6.8 8.5 1.7 16.6 3 33.5 3.8 51"/>
  <path fill="#C5BABA" d="M410.3 224.7s0-.1-.1-.2c-.8-1.9-1.6-3.8-2.4-5.8-11.7-30.3-15.1-43.9-15.1-57.4 0-9.3 1.6-18.6 6.4-33.4 0 0 10.5-28.4 11.4-30.6 1.4.5 5 2 9 4.5 4.9 3 10.4 7.5 13.6 13.7.2.4.4.7.5 1.1 5.4 12.1 5 31.7 5 44.9s.4 32.6-5 44.7c-.2.4-.4.7-.5 1.1-4.3 8.3-12.9 13.1-18.4 15.6-2 .9-3.6 1.5-4.4 1.8z"/>
  <path fill="#2F3134" d="M394.5 160.5c0-29.1 14.1-51.4 25.8-51.4s16.5 22.3 16.5 51.4-4.8 51.4-16.5 51.4c-11.6 0-25.8-22.3-25.8-51.4z"/>
  <path fill="#C5BABA" d="M400 190.4c4.4-.1 8.1-5.2 8.1-11.5v-36.8c0-6.3-3.7-11.4-8.1-11.5l.4-1c4.9.1 8.7 5.7 8.7 12.5v36.8c0 6.8-3.9 12.4-8.8 12.5l-.3-1z"/>
  <path fill="#C5BABA" d="M403.3 146.3c.8 0 1.5.3 2 .8s.8 1.2.8 1.9v3.9H405v-3.6c0-.6-.2-1-.5-1.3-.3-.3-.7-.5-1.2-.5s-.9.2-1.2.5c-.3.3-.5.8-.5 1.3v.6c0 .5-.1.9-.4 1.1-.3.3-.6.4-1 .4s-.7-.1-1-.4-.4-.6-.4-1.1v-3.6h1.2v3.6c0 .2.1.3.2.3s.2-.1.2-.3v-.9c0-.7.3-1.3.8-1.9.6-.6 1.3-.8 2.1-.8zm0 1.5c.4 0 .7.1 1 .4.3.3.4.6.4 1.1v3.6h-1.2v-3.6c0-.2-.1-.3-.2-.3s-.2.1-.2.3v.9c0 .7-.3 1.3-.8 1.9-.6.6-1.2.8-2 .8s-1.5-.3-2-.8c-.6-.6-.8-1.2-.8-1.9v-3.9h1.2v3.6c0 .6.2 1 .5 1.3.3.3.7.5 1.2.5s.9-.2 1.2-.5c.3-.3.5-.8.5-1.3v-.6c0-.5.1-.9.4-1.1.1-.3.4-.4.8-.4zm.1 5.7c1.8 0 2.7.9 2.7 2.7v3.6H405v-3.6c0-1-.5-1.5-1.5-1.5h-3.3c-1 0-1.5.5-1.5 1.5v3.6h-1.2v-3.6c0-1.8.9-2.7 2.7-2.7h3.2zm-1.5 1.6h1.5c.8 0 1.2.4 1.2 1.2v3.6h-1.2v-3.3c0-.2-.1-.3-.3-.3v2.7h-1.2v-3.9zm-.3 0v3.9h-1.2v-2.7c-.2 0-.3.1-.3.3v3.3h-1.2v-3.6c0-.8.4-1.2 1.2-1.2h1.5zm1.8 5.4c1.8 0 2.7.9 2.7 2.7v3.6H405v-3.6c0-1-.5-1.5-1.5-1.5h-3.3c-1 0-1.5.5-1.5 1.5v2.4h3.3v-2.1h1.2v3.3h-5.8v-3.6c0-1.8.9-2.7 2.7-2.7h3.3zm0 1.5c.8 0 1.2.4 1.2 1.2v3.6h-1.2v-3.3c0-.2-.1-.3-.3-.3h-2.7c-.2 0-.3.1-.3.3v.6h.3v-.6h1.2v1.8h-2.7v-2.1c0-.8.4-1.2 1.2-1.2h3.3zm-4.8 9.1v3.6l6.2-2.4c.1-.1.2-.2.2-.4s-.1-.3-.2-.4l-7.4-2.7v-1.2l7.8 2.8c.7.3 1 .8 1 1.5 0 .8-.3 1.3-1 1.5l-7.8 2.9v-5.2h1.2zm.3 0h.7l-2.2-.9V169l7.1 2.6c.1 0 .2.1.2.2s-.1.2-.2.2l-5.6 2.1v-3zm2.6.7l-1.4-.6v1.1l1.4-.5z"/>
  <path fill="#F2BA5C" d="M420.7 131.2l-7.2 7.5v54.5h4.6l2.6-3.1m9.7-48.9h-1.9c-.4 0-.6-.2-.8-.7-.2-.5-.2-1.1-.2-1.9 0-.8.1-1.5.2-2 .2-.5.4-.8.8-.8h2v2.1h-1.9c-.1 0-.2.1-.3.2-.1.1-.1.3-.1.6 0 .2 0 .4.1.6 0 .2.1.2.2.3h2v1.6zm-1.9 2.7h-1.1v-1.8h2.9v2.5c0 .6 0 1.1-.1 1.4-.1.3-.2.6-.3.8s-.3.3-.5.3c-.3 0-.5-.2-.7-.6-.2-.4-.3-.9-.3-1.6v-1zm.6 0v.6c0 .5.1.8.3.8.2 0 .3-.2.3-.7v-.7h-.6zm-1 8.1h-.7v-4.4h2.9v4.4h-.7v-2.7h-.4v2.1h-.7v-2.1h-.5v2.7zm-.7 5.4v-2l1.1-.8v-.6h-1.1v-1.8h2.9v3c0 .7-.1 1.2-.2 1.5-.2.4-.4.6-.6.6-.2 0-.3-.1-.4-.2-.1-.1-.2-.4-.3-.8l-1.4 1.1zm1.8-3.3v.8c0 .2 0 .4.1.5 0 .1.1.2.2.2.2 0 .3-.2.3-.7v-.8h-.6zm-1.8-21.5c0-.5 0-.9.1-1.2s.1-.6.2-.9c.1-.2.2-.4.3-.5.1-.1.3-.2.4-.2v1.2c-.1 0-.2.1-.3.2-.1.1-.1.2-.2.4 0 .1-.1.3-.1.5v1.1c0 .2 0 .3.1.4 0 .1.1.2.1.3 0 .1.1.1.2.1s.1 0 .2-.1c0-.1.1-.2.1-.3 0-.1.1-.3.1-.5s.1-.5.1-.8c0-.4.1-.7.1-1 0-.3.1-.5.2-.7.1-.2.1-.3.2-.4.1-.1.2-.1.3-.1.1 0 .2.1.3.2.1.1.2.3.3.5.1.2.1.5.2.7 0 .3.1.6.1 1s0 .7-.1 1-.1.6-.2.8c-.1.2-.2.4-.3.5-.1.1-.3.2-.4.2v-1.2c.3-.1.5-.5.5-1.3 0-.4 0-.7-.1-.9-.1-.2-.1-.3-.2-.3 0 0-.1 0-.1.1 0 0-.1.1-.1.2s-.1.2-.1.4 0 .3-.1.6c0 .2 0 .4-.1.6 0 .2 0 .4-.1.6 0 .2-.1.4-.1.5 0 .2-.1.3-.2.5-.1.1-.1.2-.2.3-.1.1-.2.1-.3.1-.1 0-.3-.1-.4-.2-.1-.1-.2-.3-.3-.5-.1-.2-.1-.5-.2-.8.1-.4.1-.8.1-1.1z"/>
  <path fill="#F2BA5C" d="M414.7 146.3h2.2l.1.3c1.2 3.4 4.3 8.8 5.2 9 .1 0 .3 0 .4-.1.3-.2.5-.7.5-1.1 0-.6-.4-1.1-.9-1.2h-.3v-7l.6.2c2.6.7 4.3 3.9 4.3 8.3 0 4.9-1.8 8.3-4.3 8.3-1.8 0-3.3-1.8-4.4-5.5v5.2h-3.5v-16.4z"/>
  <path fill="#2F3134" d="M422.2 156.1c.8.2 1.5-.7 1.5-1.7 0-.8-.5-1.5-1.2-1.6v-6c2.2.6 3.9 3.5 3.9 7.9s-1.5 7.9-3.8 7.9c-2 0-3.4-2.9-4.3-6.4h-.6v6.1h-2.5v-15.4h1.4c1.1 2.6 4.2 8.8 5.6 9.2z"/>
  <path fill="#F2BA5C" d="M414.2 137.4c0-2.1.3-6 2-7.7.6-.6 1.3-.9 2.1-.9h.5v6.9l-.4.1c-.4.1-.8.7-.8 1.5 0 1 .4 1.8.8 1.8s.8-.7.8-1.8v-.4l-.1-.5h3.1l-.1.7v.2c0 .8.4 1.4.7 1.4s.7-.6.7-1.4c0-.7-.3-1.3-.7-1.4l-.4-.1v-6.3h.5c1 0 2.1.9 2.7 2.4.6 1.4 1 3.3 1 5.7 0 4-1.1 8-3.2 8-.9 0-1.8-.8-2.4-2-.6 1.8-1.9 2.5-2.9 2.5-2.1-.1-3.9-3.8-3.9-8.7z"/>
  <path fill="#2F3134" d="M418.3 129.3v6c-.7.1-1.2 1-1.2 2 0 1.2.6 2.2 1.3 2.2.7 0 1.3-1 1.3-2.2v-.4h2.1v.4c0 1 .5 1.9 1.2 1.9s1.2-.8 1.2-1.9c0-.9-.5-1.7-1.1-1.8V130c.7 0 1.7.8 2.3 2.1.7 1.4.9 3.4.9 5.5 0 4.2-1.2 7.5-2.8 7.5-.9 0-1.8-1.2-2.3-3.2h-.5c-.3 2.5-1.3 3.6-2.5 3.6-2 0-3.6-3.6-3.6-8.1.1-4.4 1.2-8.1 3.7-8.1"/>
  <path fill="#F2BA5C" d="M413.9 192.2V174l.1-.1 16.6-17.1v18.7l-16.3 16.8-.2-.2h-.2zm.5-18v17.3l15.8-16.2V158l-15.8 16.2z"/>
  <path fill="#F2BA5C" d="M414.1 192.2v-18.1l16.3-16.7v18h-.1l-16.2 16.8"/>
  <path fill="#2F3134" d="M414.1 192.2v-18.1l16.3-16.7v18l-16.3 16.8"/>
  <path fill="#F2BA5C" d="M414.7 178.6l2.5-2.7-2.5-2.6v-10.2l7.2 7.6 6.9-7.6v10.2l-2.2 2.5 2.2 2.4v10.1l-6.9-7.4-7.2 7.9"/>
  <path fill="#2F3134" d="M421.9 171.4l6.5-7.1v8.8l-2.4 2.7 2.4 2.6v8.7l-6.5-6.9-6.7 7.3v-8.8l2.6-2.9-2.6-2.8v-8.7l6.7 7.1z"/>
  <path fill="#312F2F" d="M22.9 0h9.4v1.8H298V0h9.3c20.7.8 22.8 18.8 22.8 18.8V284s.6 5.3-1.9 7.9c-4.8 5-21.5 21.5-25.2 25.3H24.2s-19.7-19-21.7-19.9c-1.4-1.9-2.4-5-2.4-12.7V18.8C0 18.8 2.2.9 22.9 0z"/>
  <path fill="#3F3F3F" d="M303.2 316.5c-.1.3-.1.5-.2.6H26s-7.6-127.7 38.7-134c8.5-1 19.2 1.2 43.4 7s88.7 5.8 112.9 0 34.8-7 43.4-7c16 0 25.9 15.6 31.9 36.2 10.7 37.1 8.7 90.3 6.9 97.2z"/>
  <path fill="#181515" d="M165.1 198.9c-32.7 0-39.2-1.6-44.8-2.4-5.6-.7-3.9 4.3-3.9 4.3s2.8 18.8 3.2 26c.4 7.2 8.1 6.2 8.1 6.2h74.9s7.7 1 8.1-6.2c.4-7.2 3.2-26 3.2-26s1.7-5.1-3.9-4.3c-5.6.8-12.2 2.4-44.9 2.4z"/>
  <ellipse cx="165.1" cy="98" fill="#30302F" ry="80.8" rx="140.7"/>
  <ellipse cx="165.1" cy="97.9" fill="#181515" ry="79.3" rx="139.2"/>
  <ellipse cx="165.1" cy="96" fill="#2C2929" ry="64.3" rx="114.4"/>
  <path fill="#241C1E" d="M165 122.4l-7.1 7.4h14.4"/>
  <g fill="#929397">
    <path d="M187.1 221h-7v-1.6h4.8c-.3-1.1-.6-1.9-.9-2.8-.7-2.1-1.3-4.3-2.1-6.4-.2-.5-.7-1.2-1.1-1.3-.8-.2-1 .6-1.2 1.3-1.1 3.3-2.2 6.6-3.2 9.9-.2.8-.6 1-1.4 1-2.1-.1-4.3 0-6.5 0s-3.6-1.4-3.7-3.7v-6.1c.1-2.3 1.4-3.7 3.6-3.7h5.9v1.7h-5c-2.3 0-2.9.6-2.9 3v4.6c0 1.6.8 2.4 2.3 2.5h3.8v-5.3h-3.2v-1.7h5v7h.3c1.1-3.2 2.1-6.5 3.2-9.7.6-1.9 1.7-2.6 3.5-2.3 1 .2 1.7.7 2 1.7 1.3 3.9 2.5 7.8 3.8 11.7v.2zm-43.9 0v-1.7h5.5c1.5 0 2.7-1.1 2.7-2.6.1-1.4-1.1-2.6-2.6-2.7H147c-.9-.1-1.6-1-1.6-2s.7-2 1.6-2c2-.1 4 0 6.1 0v1.7h-5.8v.6c.6 0 1.1.1 1.7.1 2.1 0 3.6 1.3 4.2 3.4.6 2.6-1.2 5.3-3.7 5.4-2.2-.1-4.2-.2-6.3-.2z"/>
    <path d="M143.2 218.7v-1.8h5.9v-.5c-.6 0-1.2-.1-1.8-.1-1.7 0-3-.8-3.7-2.4-.8-1.6-.6-3.2.4-4.6.7-1 1.6-1.7 2.8-1.7 2.1-.1 4.2 0 6.3 0v1.7h-5.6c-1.9 0-3.1 1.8-2.5 3.5.3 1 1.3 1.8 2.5 1.8h1.7c.9.1 1.6 1 1.7 2 0 1-.7 2-1.6 2-2 .1-4 .1-6.1.1zm20.7-11.1v1.7h-5.5c-1.9 0-2.6.7-2.6 2.7v4.8c0 1.9.7 2.6 2.5 2.6h5.6v1.7h-6.7c-1.6-.1-3-1.6-3-3.2-.1-2.3-.1-4.7 0-7.1 0-1.5 1.3-3.1 2.7-3.1 2.4-.2 4.7-.1 7-.1zm12.6 13.4c1.2-3.7 2.3-7.3 3.5-10.8.1-.3.3-.5.6-.6.1 0 .5.2.6.4 1 2.9 1.9 5.8 2.9 8.7h-4c0-.4-.1-.8-.1-1.2-.1 0-.1 0-.2-.1-.2.7-.5 1.3-.7 2-.6 1.8-.6 1.8-2.6 1.6zm3.5-4.3h1.4c-.2-.7-.4-1.3-.6-1.8h-.2c-.2.6-.4 1.1-.6 1.8zm-9.4-.2c-.5-.2-.8-.2-1.2-.3v-1.5h2.6v4c-1.3 0-2.7.1-4-.1-.3 0-.9-.7-.9-1.1-.1-2.1-.1-4.3 0-6.4 0-.7.4-1.2 1.2-1.2h6v1.7h-4.4c-.9 0-1.2.3-1.2 1.2.1 1 0 2 0 3 .1 1.2.6 1.5 1.9.7z"/>
    <path d="M158.2 216.8c1.8.3 3.7 0 5.6.2v1.6c-2.2 0-4.3.1-6.4-.1-.3 0-.8-.7-.9-1.2-.1-.9 0-1.8 0-2.7h6.1v1.6h-4.2c-.1.3-.1.4-.2.6zm5.7-6.9v1.6c-1.9.3-3.8-.2-5.7.2v.4h4.3v1.7h-6c0-1-.1-2 0-3 0-.4.6-.9.9-.9h6.5z"/>
  </g>
  <path fill="#241C1E" d="M141.1 134l-1.2.1c0-.8-.3-1.3-.8-1.3-.6 0-.9.6-.9 1.9 0 .7.1 1.3.3 1.5.2.3.4.4.7.4.5 0 .8-.4.9-1.1l1.1.1c-.1.7-.3 1.3-.7 1.6s-.8.6-1.4.6c-.7 0-1.2-.3-1.6-.8-.4-.5-.6-1.3-.6-2.3 0-.9.2-1.6.6-2.2s1-.9 1.6-.9c1.2.1 1.9.9 2 2.4zm2.7-2.2l1.6 5.9h-1.3l-.3-1.2h-1.6l-.3 1.2h-1l1.6-5.9h1.3zm-1.3 3.6h1.1l-.5-2.1-.6 2.1zm4.4 0v2.4h-1.2v-5.9h2.2c.4 0 .7.1 1 .2.2.1.5.3.6.6.2.3.2.6.2 1 0 .7-.3 1.2-.9 1.5l.9 2.6h-1.3l-.8-2.4h-.7zm0-2.6v1.5h.7c.2 0 .4 0 .5-.1s.2-.1.3-.3c.1-.1.1-.3.1-.5s0-.3-.1-.4c-.1-.1-.2-.2-.3-.2h-1.2zm6.7-1v1.2h-1.2v4.8h-1.2V133h-1.3v-1.2h3.7zm1.6 3.6v2.4H154v-5.9h2.2c.4 0 .7.1 1 .2.2.1.5.3.6.6.2.3.2.6.2 1 0 .7-.3 1.2-.9 1.5l.9 2.6h-1.3l-.8-2.4h-.7zm0-2.6v1.5h.7c.2 0 .4 0 .5-.1.1 0 .2-.1.3-.3.1-.1.1-.3.1-.5s0-.3-.1-.4c-.1-.1-.2-.2-.3-.2h-1.2zm4.3-1v5.9h-1.2v-5.9h1.2zm.4 0h1.5c.6 0 1.1.1 1.4.3s.6.5.8 1c.2.4.4 1 .4 1.7 0 .9-.2 1.6-.6 2.1-.4.6-1 .9-1.8.9h-1.7v-6zm1.2 1.1v3.7h.5c.4 0 .7-.2 1-.6.2-.4.3-.8.3-1.3 0-.4-.1-.7-.2-1s-.3-.5-.4-.6c-.2-.1-.4-.2-.6-.2h-.6zm7.3 1.6s0 1.9-.7 2.6c-.7.7-.8.7-1.4.7-.7 0-1.2-.3-1.5-.8-.4-.6-.5-1.3-.5-2.2 0-.9.2-1.7.6-2.3.4-.6.9-.9 1.6-.9.6 0 1 .2 1.4.6.3.4.6.9.6 1.5l-1.1.2c-.1-.7-.4-1.1-.9-1.1-.3 0-.6.2-.7.5s-.2.8-.2 1.5c0 .6.1 1.1.3 1.4s.4.5.8.5c.2 0 .4-.1.6-.2s.2-.4.2-.8h-.9v-1.1h1.8zm3.8-1.6h-2.4v1.2h1.9v1.1h-1.9v1.3h2.4v1.2h-3.6v-5.9h3.6v1.1zm4.7-1.1v5.9h-1.2v-5.9h1.2zm4.1 0v5.9h-1l-2-4v4.1h-.9v-5.9h1.3l1.7 3.5v-3.5h.9zm1.5 3.7v2.2h-1.2v-5.9h2c.4 0 .8.1 1 .2s.4.3.6.6c.2.3.3.6.3 1.1 0 .3 0 .6-.1.9-.1.3-.2.5-.4.7-.2.2-.4.3-.5.3-.2.1-.4.1-.8.1h-.9zm-.1-1.1h.8c.3 0 .5-.1.6-.2.1-.2.2-.3.2-.5s-.1-.4-.2-.6-.3-.2-.6-.2h-.8v1.5zm7-2.6v3.7c0 .6-.1 1-.2 1.3-.1.3-.3.5-.6.7-.3.2-.7.3-1.2.3s-.9-.1-1.2-.3c-.3-.2-.5-.4-.6-.7-.1-.3-.2-.8-.2-1.4v-3.7h1.3v3.7c0 .3 0 .6.1.7s.1.3.3.4c.1.1.3.1.5.1s.4 0 .5-.1l.3-.3s.1-.4.1-.7v-3.7h.9zm4 0v1.2h-1.2v4.8H191V133h-1.3v-1.2h3.7z"/>
  <path fill="#181515" d="M250.6 113.1h-171c-10.2 0-18.6-8.3-18.6-18.6 0-10.2 8.3-18.6 18.6-18.6h171c10.2 0 18.6 8.3 18.6 18.6 0 10.2-8.4 18.6-18.6 18.6z"/>
  <path d="M73.4 82h183.5v26.1H73.4z"/>
  <path fill="#732A46" d="M74.3 82.9H256v24.2H74.3z"/>
  <path fill="#010102" d="M73.4 94.6h183.5v.9H73.4z"/>
  <path fill="#181515" d="M40.3 203.7c5.7-11.3 14.8-17 25.5-18.5 8.5-1 21 3.6 45.2 9.4 12.2 2.9 31.4 4.3 53.7 4.3 22.3 0 41.5-1.4 53.7-4.3 24.2-5.8 36.7-10.4 45.2-9.4 10.7 1.4 20.8 6.8 26.5 18.1-6-12.2-14.4-20.3-25.9-20.3-8.6 0-19.2 1.2-43.4 7-12 2.9-34 4.3-56.1 4.3-22.3 0-44.7-1.4-56.8-4.3-24.2-5.8-34.9-8-43.4-7-10.8 1.5-18.5 9.4-24.2 20.7z"/>
  <path fill="#3F4040" d="M264.7 256.3c0 12.2-14.1 14.3-14.1 14.3H79.4s-14.1-2.1-14.1-14.3c0-12.2 14.1-14.3 14.1-14.3h171.2c.1 0 14.1 2.1 14.1 14.3z"/>
  <path fill="#333" d="M252.8 267.3h-175c-4.8 0-8.8-3.9-8.8-8.8v-4.3c0-4.8 3.9-8.8 8.8-8.8h174.9c4.8 0 8.8 3.9 8.8 8.8v4.3c0 4.9-3.9 8.8-8.7 8.8z"/>
  <path fill="#212020" d="M249.4 263.9h-29.1c-4.2 0-7.6-3.4-7.6-7.6 0-4.2 3.4-7.6 7.6-7.6h29.1c4.2 0 7.6 3.4 7.6 7.6 0 4.2-3.4 7.6-7.6 7.6z"/>
  <path fill="#6177B3" d="M249.4 261h-29.1c-2.5 0-4.6-2.1-4.6-4.6v-.2c0-2.5 2.1-4.6 4.6-4.6h29.1c2.5 0 4.6 2.1 4.6 4.6v.2c-.1 2.5-2.1 4.6-4.6 4.6z"/>
  <circle cx="222.1" cy="256.4" r=".9" fill="#45537C"/>
  <circle cx="228.4" cy="256.4" r=".9" fill="#45537C"/>
  <circle cx="234.8" cy="256.4" r=".9" fill="#45537C"/>
  <circle cx="241.2" cy="256.4" r=".9" fill="#45537C"/>
  <circle cx="247.6" cy="256.4" r=".9" fill="#45537C"/>
  <path fill="#212020" d="M110 263.9H81c-4.2 0-7.6-3.4-7.6-7.6 0-4.2 3.4-7.6 7.6-7.6h29c4.2 0 7.6 3.4 7.6 7.6.1 4.2-3.4 7.6-7.6 7.6z"/>
  <path fill="#CBCFD8" d="M110.1 261H80.9c-2.5 0-4.6-2.1-4.6-4.6v-.2c0-2.5 2.1-4.6 4.6-4.6H110c2.5 0 4.6 2.1 4.6 4.6v.2c0 2.5-2 4.6-4.5 4.6z"/>
  <path fill="#7D8189" d="M98.1 251.7c-1.8 0-3.3 2.1-3.3 4.6 0 2.6 1.5 4.6 3.3 4.6H87.5c1.8 0 3.3-2.1 3.3-4.6 0-2.6-1.5-4.6-3.3-4.6h10.6z"/>
  <path fill="#6B6D72" d="M92.2 251.7h1v9.3h-1z"/>
  <path fill="#929397" d="M87.5 251.7h-7.4c-1.8 0-3.3 2.1-3.3 4.6 0 2.6 1.5 4.6 3.3 4.6h7.4c1.8 0 3.3-2.1 3.3-4.6 0-2.5-1.5-4.6-3.3-4.6zm18 0h-7.4c-1.8 0-3.3 2.1-3.3 4.6 0 2.6 1.5 4.6 3.3 4.6h7.4c1.8 0 3.3-2.1 3.3-4.6 0-2.5-1.5-4.6-3.3-4.6z"/>
  <path fill="#444546" d="M298 1.8v11.1s-.1 1.4-2 1.4H34.2l-2-1.4V1.8l132.9.1L298 1.8z"/>
  <path fill="#282424" d="M33.4 0h2.4v12.6h-2.4zm3.7 0h2.4v12.6h-2.4zm3.7 0h2.4v12.6h-2.4zm3.7 0h2.4v12.6h-2.4zm3.7 0h2.4v12.6h-2.4zm3.7 0h2.4v12.6h-2.4zm3.7 0H58v12.6h-2.4zm3.7 0h2.4v12.6h-2.4zm3.8 0h2.4v12.6h-2.4zm3.7 0h2.4v12.6h-2.4zm3.8 0H73v12.6h-2.4zm3.7 0h2.4v12.6h-2.4zM78 0h2.4v12.6H78zm3.7 0h2.4v12.6h-2.4zm3.7 0h2.4v12.6h-2.4zm3.7 0h2.4v12.6h-2.4zm3.8 0h2.4v12.6h-2.4zm3.7 0H99v12.6h-2.4zm3.8 0h2.4v12.6h-2.4zm3.7 0h2.4v12.6h-2.4zm3.6 0h2.4v12.6h-2.4zm3.7 0h2.4v12.6h-2.4zm3.8 0h2.4v12.6h-2.4zm3.7 0h2.4v12.6h-2.4zm3.7 0h2.4v12.6h-2.4zm3.7 0h2.4v12.6h-2.4zm3.8 0h2.4v12.6h-2.4zm3.7 0h2.4v12.6h-2.4zm3.7 0h2.4v12.6h-2.4zm3.7 0h2.4v12.6h-2.4zm3.7 0h2.4v12.6h-2.4zm3.7 0h2.4v12.6h-2.4zm4 0h2.4v12.6h-2.4zm3.8 0h2.4v12.6h-2.4zm3.7 0h2.4v12.6h-2.4zm3.6 0h2.4v12.6h-2.4zm3.7 0h2.4v12.6h-2.4zm3.8 0h2.4v12.6h-2.4zm3.7 0h2.4v12.6h-2.4zm3.7 0h2.4v12.6h-2.4zm3.8 0h2.4v12.6h-2.4zm3.7 0h2.4v12.6h-2.4zm3.7 0h2.4v12.6h-2.4zm3.7 0h2.4v12.6h-2.4zm3.7 0h2.4v12.6h-2.4zm3.7 0h2.4v12.6h-2.4zm3.7 0h2.4v12.6h-2.4zm4.1 0h2.4v12.6h-2.4zm3.8 0h2.4v12.6h-2.4zm3.7 0h2.4v12.6h-2.4zm3.6 0h2.4v12.6h-2.4zm3.7 0h2.4v12.6h-2.4zm3.8 0h2.4v12.6h-2.4zm3.7 0h2.4v12.6H231zm3.8 0h2.4v12.6h-2.4zm3.7 0h2.4v12.6h-2.4zm3.7 0h2.4v12.6h-2.4zm3.7 0h2.4v12.6h-2.4zm3.7 0h2.4v12.6h-2.4zm3.7 0h2.4v12.6h-2.4zm3.7 0h2.4v12.6H257zm3.8 0h2.4v12.6h-2.4zm3.9 0h2.4v12.6h-2.4zm3.7 0h2.4v12.6h-2.4zm3.7 0h2.4v12.6h-2.4zm3.7 0h2.4v12.6h-2.4zm3.7 0h2.4v12.6h-2.4zm3.8 0h2.4v12.6h-2.4zm3.7 0h2.4v12.6H287zm3.7 0h2.4v12.6h-2.4zm3.7 0h2.4v12.6h-2.4z"/>
  <path fill="#82888B" d="M229.7 276.7h-.7l-.3-.9c0-.1-.1-.1-.1-.2s-.1-.1-.1-.1c-.1 0-.1-.1-.2-.1h-.9v1.4h-.6v-3.4h2c.1 0 .1 0 .2.1.1 0 .1.1.2.1s.1.1.1.2.1.1.1.2 0 .1.1.2v.2c0 .2-.1.4-.2.5s-.2.3-.4.3c.1.1.3.3.4.5l.4 1zm-2.3-2h1.2c.1 0 .1 0 .2-.1.1 0 .1-.1.1-.1v-.2c0-.2 0-.3-.1-.3-.1-.1-.2-.1-.4-.1h-.9v.8zm5.5 2h-2.6v-3.4h2.5v.6h-1.9v.8h1.8v.6h-1.8v.9h2v.5zm2 .1c-.2 0-.5 0-.6-.1-.2-.1-.3-.2-.5-.3-.1-.1-.2-.3-.3-.4-.1-.2-.1-.3-.1-.5h.6c0 .1 0 .2.1.3 0 .1.1.2.2.2.1.1.2.1.3.1h.6c.1 0 .2-.1.2-.1.1 0 .1-.1.1-.1v-.4s-.1-.1-.2-.1-.2-.1-.3-.1c-.1 0-.3-.1-.4-.1-.2 0-.4-.1-.5-.2s-.3-.1-.3-.2c-.1-.1-.2-.2-.2-.3 0-.1-.1-.2-.1-.4 0-.1 0-.3.1-.4.1-.1.1-.2.3-.3.1-.1.2-.2.4-.2.2-.1.3-.1.5-.1s.4 0 .5.1c.2.1.3.1.4.2.1.1.2.2.3.4.1.1.1.3.1.5h-.6c0-.4-.3-.6-.7-.6-.2 0-.4 0-.5.1-.1.1-.2.2-.2.3v.1l.1.1c.1 0 .1.1.2.1s.2.1.3.1c.1 0 .2 0 .3.1.1 0 .2.1.3.1.1 0 .2.1.3.1.1.1.2.1.2.2.1.1.1.2.2.3 0 .1.1.2.1.4s0 .3-.1.4l-.3.3c-.1.1-.3.2-.4.2 0 .1-.2.2-.4.2zm4.6-.1h-2.6v-3.4h2.5v.6h-1.9v.8h1.8v.6h-1.8v.9h2v.5zm3.2-2.8h-1.1v2.8h-.6v-2.8h-1.1v-.6h2.8v.6zM85 273.1h1.8c.1 0 .2 0 .3.1.1 0 .2.1.3.1.1.1.2.1.2.2.1.1.1.2.2.3 0 .1.1.2.1.4 0 .4-.1.7-.4.9-.2.2-.6.3-1.1.3h-.8v1.4H85v-3.7zm.7 1.6h1.1c.1 0 .2-.1.2-.1.1 0 .1-.1.1-.2v-.2c0-.1 0-.2-.1-.3 0-.1-.1-.1-.2-.2-.1 0-.1-.1-.2-.1h-1v1.1zm4.4-1.7c.3 0 .5 0 .7.1s.4.2.6.4c.2.2.3.4.4.6.1.2.1.5.1.8 0 .3 0 .5-.1.8-.1.2-.2.4-.4.6-.2.2-.3.3-.6.4s-.5.1-.7.1c-.3 0-.5 0-.7-.1-.2-.1-.4-.2-.6-.4-.2-.2-.3-.4-.4-.6-.1-.2-.1-.5-.1-.8 0-.3 0-.5.1-.8.1-.2.2-.4.4-.6.2-.2.3-.3.6-.4.2 0 .4-.1.7-.1zm0 3.2c.2 0 .3 0 .4-.1.1-.1.2-.1.3-.3.1-.1.2-.2.2-.4.1-.2.1-.3.1-.5s0-.4-.1-.5c-.1-.2-.1-.3-.2-.4-.1-.1-.2-.2-.3-.2-.1-.1-.3-.1-.4-.1-.2 0-.3 0-.4.1-.1.1-.2.1-.3.3-.1.1-.2.2-.2.4-.1.2-.1.3-.1.5s0 .4.1.5.1.3.2.4l.3.3h.4zm6.9-3.1l-1 3.7h-.6l-.7-2.7-.7 2.7h-.6l-1-3.7h.6l.6 2.5.7-2.5h.7l.7 2.5.6-2.5h.7zm3.3 3.6h-2.8V273h2.7v.6h-2v.8h1.9v.6h-1.9v.9h2.1v.8zm3.9 0h-.7l-.3-1c0-.1-.1-.1-.1-.2s-.1-.1-.1-.1c-.1 0-.1-.1-.2-.1h-.9v1.5h-.9v-3.7h2.2c.1 0 .2 0 .2.1.1 0 .1.1.2.1l.2.2c0 .1.1.1.1.2s.1.1.1.2v.2c0 .2-.1.4-.2.6-.1.2-.3.3-.4.4.2.1.3.3.4.6l.4 1zm-2.5-2.1h1.2c.1 0 .2 0 .2-.1.1 0 .1-.1.1-.2v-.2c0-.2-.1-.3-.2-.4s-.3-.1-.5-.1h-1v1z"/>
  <path fill="#929397" d="M71.4 295v-1.8c1.8-.4 3-1 3.5-1.8h1.8v8.8h-2.3v-6.6c-1.4.7-2.3 1.1-3 1.4zm25.7-3.4h2.4v8.7h-2.4zm10.6 0v1.7h-2.5v6.9h-2.5v-6.9h-2.6v-1.7m-12.1.9c0-.5.4-.9.9-.9h3.9c.9 0 1.5.1 1.9.3.4.2.8.4 1.1.8.3.3.4.7.4 1.2 0 1-.6 1.6-1.9 1.9.7.1 1.3.4 1.6.8.4.4.5.8.5 1.3 0 .6-.3 1.2-.9 1.7-.6.5-1.5.7-2.9.7h-3.9c-.5 0-.9-.4-.9-.9v-6.9zm2.4 1.3c0 .2.4.3.9.3h.9c.7 0 1.1 0 1.3-.1s.3-.2.3-.2c0-.1-.1-.1-.2-.2s-.3-.1-.5-.1h-1.7c-.6 0-1 .1-1 .3zm.6 3.4h1.3c.6 0 1.1 0 1.3-.1.3-.1.4-.2.4-.3 0-.1-.1-.2-.4-.2-.3-.1-.7-.1-1.3-.1h-1c-.5 0-.9.1-.9.3v3.3h.6v-2.9zm-10.5-3.4h6.1v-2.4h-7c-1 0-1.8.8-1.8 1.8v5.3c0 1 .8 1.8 1.8 1.8h5.2c1 0 1.8-.8 1.8-1.8v-2.2c0-.9-.7-1.6-1.6-1.9h-3.9v2.1H84v.7h-3.5v-3.4zm128.6 4.9l4-6c.2-.3.4-.5.6-.5h2.8v.8l.2-.3c.2-.3.4-.5.6-.5h3.4v6.5h-2.3v-5.1l-3.4 5.1h-2.3l3.4-5.1H215c-.1 0-.3.1-.4.2l-3.2 5h-2.3v-.1zm14.5-2.6v1.2h5.3v1.4h-7.6v-4.3c0-.1 0-.2.1-.3l1-1.7c.1-.1.2-.2.4-.2h6v1.4h-4.5c-.1 0-.2.1-.3.2l-.5 1h5.3l-.8 1.4h-4.4zm8.3 1.2h3.8v-1.2h-1.5l.8-1.4h3v3.6c0 .2-.1.3-.4.3H230c-.3 0-.4-.1-.4-.3v-3.9c0-.1 0-.2.1-.3l1-1.7c.1-.1.2-.2.4-.2h6.4v1.4h-4.9c-.1 0-.2.1-.3.2l-.5 1v2.5zm16.3 1.4h-2.6l-1-1.4h-2.7l-.8-1.2v2.6h-2.3v-6.5h4.3c.2 0 .4.2.6.5l4.5 6zm-4.7-2.8l-1.7-2.2c-.1-.1-.3-.2-.4-.2h-.4v2.4h2.5zm36.6-5.5h-9.4c2.1-1.2 5-2.7 6.3-4.3 2.5-3.1-1.6-5.4-4.9-4.3-4.6 1.5-6.6 3.8-9.2 6.1h-5.5c3.9-7.5 8.8-11.5 16.2-13.5 8-2.2 11.7 3 10.2 9.1-.9 3.4-1.2 3.9-3.7 6.9zm-12.5 12.2c0-.2.2-.6.3-.9.2-.4.5-.7.7-.9h-9.5c-.7 1.3-1.4 2-1.9 4.4-.5 2.6 1 3.8 1.9 3.8h22.7l3.3-6.4h-17.5z"/>
  <path fill="#8C8E92" d="M251.9 297.5h2.4c.1 0 .2-.1.3-.2l.7-1.6v-.4l-.7-1.6c-.1-.1-.1-.2-.3-.2h-2.4v4zm-2.1-5.3h5.8c.2 0 .3.1.4.4l1.4 2.8v.4l-1.4 2.8c-.1.2-.3.4-.4.4h-5.8v-6.8zm8.4 0h5.6c.2 0 .3.1.4.4l.9 1.9v.4l-1.4 1.6 1.4 2.5H263l-2-3.3h1c.1 0 .2 0 .3-.1l.7-.8-.3-.9c-.1-.1-.1-.2-.3-.2h-2.2v5.3h-2.1v-6.8h.1zm9.8 6.7h-2.1v-6.7h2.1v6.7zm2.8-4.5l2.1 3.1 2.1-3.1v-2.2h2.1v2.5c0 .2 0 .4-.1.5l-2.4 3.7h-3.5l-2.4-3.7c-.1-.1-.1-.3-.1-.5v-2.5h2.1v2.2h.1zm9 1.8v1.2h4.9v1.4h-7v-4.4c0-.1 0-.2.1-.4l1-1.8c.1-.1.2-.2.3-.2h5.6v1.4h-4.2c-.1 0-.2.1-.3.2l-.4 1.1h4.9l-.7 1.4h-4.2v.1z"/>
  <path fill="#929397" d="M72.5 274.9c0-.4.1-.7.2-1 .1-.2.2-.4.4-.5s.3-.3.5-.4c.2-.1.5-.2.9-.2.6 0 1.1.2 1.4.5.4.4.5.9.5 1.5s-.2 1.1-.5 1.5c-.3.4-.8.5-1.4.5-.6 0-1.1-.2-1.4-.5-.4-.2-.6-.7-.6-1.4zm.8 0c0 .4.1.8.3 1 .2.2.5.3.8.3.3 0 .6-.1.8-.3.2-.2.3-.6.3-1 0-.5-.1-.8-.3-1-.2-.2-.5-.3-.8-.3-.3 0-.6.1-.8.3-.2.2-.3.5-.3 1zm3.7 2v-4h.8l1.6 2.7v-2.7h.7v4h-.8l-1.6-2.6v2.6H77zm32.2-2c0-.4.1-.7.2-1 .1-.2.2-.4.4-.5s.3-.3.5-.4c.2-.1.5-.2.9-.2.6 0 1.1.2 1.4.5.4.4.5.9.5 1.5s-.2 1.1-.5 1.5-.8.5-1.4.5c-.6 0-1.1-.2-1.4-.5-.4-.3-.6-.8-.6-1.4zm.9 0c0 .4.1.8.3 1 .2.2.5.3.8.3.3 0 .6-.1.8-.3.2-.2.3-.6.3-1 0-.5-.1-.8-.3-1-.2-.2-.5-.3-.8-.3-.3 0-.6.1-.8.3-.2.2-.3.5-.3 1zm3.6 2v-4h2.7v.7h-1.9v.9h1.7v.7h-1.7v1.7h-.8zm3.4 0v-4h2.7v.7h-1.9v.9h1.7v.7h-1.7v1.7h-.8z"/>
  <path fill="#929397" d="M78.9 279.1H74c-2.1 0-3.8-1.7-3.8-3.8v-.9c0-2.1 1.7-3.8 3.8-3.8h4.9c2.1 0 3.8 1.7 3.8 3.8v.9c0 2.1-1.7 3.8-3.8 3.8zm-4.9-7.5c-1.6 0-2.8 1.3-2.8 2.8v.9c0 1.6 1.3 2.8 2.8 2.8h4.9c1.6 0 2.8-1.3 2.8-2.8v-.9c0-1.6-1.3-2.8-2.8-2.8H74zm44 7.5h-7c-2.1 0-3.8-1.7-3.8-3.8v-.9c0-2.1 1.7-3.8 3.8-3.8h7c2.1 0 3.8 1.7 3.8 3.8v.9c0 2.1-1.7 3.8-3.8 3.8zm-6.9-7.5c-1.6 0-2.8 1.3-2.8 2.8v.9c0 1.6 1.3 2.8 2.8 2.8h7c1.6 0 2.8-1.3 2.8-2.8v-.9c0-1.6-1.3-2.8-2.8-2.8h-7z"/>
  <path fill="#171819" d="M165.1 44.9c16.3 0 31.1.4 44.3 1 22 1 39.3 2.5 51.1 3.8 22.8 2.4 39.3.5 48.3 23.4 5 12.7 6 53.6 3.8 60-2.2 6.4-3.4 11.3-11.8 14.2-8.4 3-50.2 13.4-60.4 18.4-10.2 5.1-34 14.8-40.8 17l-6.8 2.2s-11.4 4.2-27.8 4.2-27.8-4.2-27.8-4.2l-6.8-2.2c-6.8-2.2-30.7-11.9-40.8-17-10.2-5.1-52-15.4-60.4-18.4-8.4-3-9.6-7.9-11.8-14.2s-1.2-47.3 3.8-60c9-22.9 25.5-21 48.3-23.4 11.8-1.2 29.1-2.8 51.1-3.8 13.3-.6 28.2-1 44.5-1"/>
  <path fill="#171819" d="M165.2 56.9c44.4-.5 107.9 2.6 116.4 9 16.3 9.1 15.9 22.4 16.8 32.6-.3 5.2-1.8 14.7-8.4 23.6-2 2.8-5.6 6-7.6 7.7-24.8 17.5-61 47.7-117.2 50.8h-.1c-56.2-3.1-92.3-33.3-117.2-50.8-2-1.8-5.6-5-7.6-7.8-6.6-9-8-18.5-8.4-23.6.9-10.2.5-23.6 16.7-32.6 8.6-6.4 72-9.5 116.4-9"/>
  <path fill="#282827" d="M165.4 126.7h-.3l89.5-1.9c9.3-.6 16.3-1.2 22.8-10 2.8-3.7 4.1-8.3 4.1-12.9v-3.3c0-18.5-9.4-25.5-25.1-28.5 0 0-37.4-4.1-91.3-4.1s-91.3 4-91.3 4c-15.7 3-25.1 10-25.1 28.5v3.3c0 4.6 1.4 9.2 4.1 12.9 6.5 8.8 13.4 9.3 22.8 10l89.5 1.9h-.3"/>
  <path fill="#1D1D1D" d="M164.9 71.2c47.9 0 80.4 4 80.4 4 13.9 2.3 23 6.7 23 20.7v6.8c0 8-6.5 14.5-14.5 14.5h-88.9.3-88.8c-8 0-14.5-6.5-14.5-14.5v-6.8c0-14 9.1-18.4 23-20.7 0 0 32.5-4 80.4-4"/>
  <path fill="#1B1C1C" d="M73.3 83.4h183.6v30.2H73.3z"/>
  <path fill="#414446" d="M73.5 83.7h183.1v29.8H73.5z"/>
  <path fill="#1B1D1E" d="M164.9 113.4H228c13.2 0 24.6-8.7 28.6-12V83.7h-91.7.4-91.8v17.8c4 3.3 15.4 12 28.6 12h63.1"/>
  <path fill="#46494B" d="M73.5 90.2h12.4c.4 0 .8-.4.8-.8v-5.7H73.5v6.5zm183.1 0h-12.4c-.4 0-.8-.4-.8-.8v-5.7h13.2v6.5z"/>
  <path fill="#45494A" d="M164.9 85.9h74.7c.4 0 .8.4.8.8v4.5c0 .4.3.8.8.8h11.5v9.4c-7.3 6-15.6 10.6-29 10.6H106.3c-13.4 0-21.7-4.6-29-10.6V92h11.5c.4 0 .8-.4.8-.8v-4.5c0-.4.4-.8.8-.8h74.5z"/>
  <path d="M73.5 98.5h183.1v.6H73.5z"/>
  <path fill="#1C1E1F" d="M113.8 99.1H216v1.2H113.8z"/>
  <path fill="#202223" d="M113.8 100.3H216v1.2H113.8z"/>
  <path fill="#242627" d="M113.8 101.5H216v1.2H113.8z"/>
  <path fill="#292C2D" d="M113.8 102.7H216v1.2H113.8z"/>
  <path fill="#2F3133" d="M113.8 103.9H216v1.2H113.8z"/>
  <path fill="#333637" d="M113.8 105.1H216v1.2H113.8z"/>
  <path fill="#373A3C" d="M113.8 106.3H216v1.2H113.8z"/>
  <path fill="#3B3E3F" d="M113.8 107.5H216v1.2H113.8z"/>
  <path fill="#3F4244" d="M113.8 108.7H216v1.2H113.8z"/>
  <path fill="#1B1D1E" d="M116.9 99.1h-3.1v10.8s.8-9.1 3.1-10.8zm95.9 0h3.1v10.8c.1 0-.7-9.1-3.1-10.8z"/>
  <path fill="#1C1E1F" d="M113.8 97.3H216v1.2H113.8z"/>
  <path fill="#202223" d="M113.8 96.1H216v1.2H113.8z"/>
  <path fill="#242627" d="M113.8 94.9H216v1.2H113.8z"/>
  <path fill="#292C2D" d="M113.8 93.7H216v1.2H113.8z"/>
  <path fill="#2F3133" d="M113.8 92.5H216v1.2H113.8z"/>
  <path fill="#333637" d="M113.8 91.3H216v1.2H113.8z"/>
  <path fill="#373A3C" d="M113.8 90.1H216v1.2H113.8z"/>
  <path fill="#3B3E3F" d="M113.8 88.9H216v1.2H113.8z"/>
  <path fill="#3F4244" d="M113.8 87.7H216v1.2H113.8z"/>
  <path fill="#1B1D1E" d="M116.9 98.5h-3.1V87.3s.8 9.5 3.1 11.2zm95.9 0h3.1V87.3c.1 0-.7 9.5-3.1 11.2z"/>
  <path fill="#0E1214" d="M92.5 97h.6c0 .2-.1.5-.3.5-.2-.1-.3-.3-.3-.5z"/>
  <path fill="#5E5E60" d="M92.5 87.8h.6c0-.2-.1-.5-.3-.5-.2 0-.3.2-.3.5z"/>
  <path fill="#393D3F" d="M92.5 87.8h.6V97h-.6z"/>
  <path fill="#0E1214" d="M98 97h.6c0 .2-.1.5-.3.5-.2-.1-.3-.3-.3-.5z"/>
  <path fill="#5E5E60" d="M98 87.8h.6c0-.2-.1-.5-.3-.5-.2 0-.3.2-.3.5z"/>
  <path fill="#393D3F" d="M98 87.8h.6V97H98z"/>
  <path fill="#0E1214" d="M98 109.9h.6c0 .2-.1.5-.3.5-.2 0-.3-.2-.3-.5z"/>
  <path fill="#5E5E60" d="M98 100.7h.6c0-.2-.1-.5-.3-.5-.2.1-.3.3-.3.5z"/>
  <path fill="#393D3F" d="M98 100.7h.6v9.2H98z"/>
  <path fill="#0E1214" d="M92.5 108.2h.6c0 .2-.1.5-.3.5-.2-.1-.3-.3-.3-.5z"/>
  <path fill="#5E5E60" d="M92.5 100.7h.6c0-.2-.1-.5-.3-.5-.2.1-.3.3-.3.5z"/>
  <path fill="#393D3F" d="M92.5 100.7h.6v7.5h-.6z"/>
  <path fill="#0E1214" d="M237.3 97h-.6c0 .2.1.5.3.5.1-.1.3-.3.3-.5z"/>
  <path fill="#5E5E60" d="M237.3 87.8h-.6c0-.2.1-.5.3-.5.1 0 .3.2.3.5z"/>
  <path fill="#393D3F" d="M236.7 87.8h.6V97h-.6z"/>
  <path fill="#0E1214" d="M231.8 97h-.6c0 .2.1.5.3.5.1-.1.3-.3.3-.5z"/>
  <path fill="#5E5E60" d="M231.8 87.8h-.6c0-.2.1-.5.3-.5.1 0 .3.2.3.5z"/>
  <path fill="#393D3F" d="M231.2 87.8h.6V97h-.6z"/>
  <path fill="#0E1214" d="M231.8 109.9h-.6c0 .2.1.5.3.5.1 0 .3-.2.3-.5z"/>
  <path fill="#5E5E60" d="M231.8 100.7h-.6c0-.2.1-.5.3-.5.1.1.3.3.3.5z"/>
  <path fill="#393D3F" d="M231.2 100.7h.6v9.2h-.6z"/>
  <path fill="#0E1214" d="M237.3 108.2h-.6c0 .2.1.5.3.5.1-.1.3-.3.3-.5z"/>
  <path fill="#5E5E60" d="M237.3 100.7h-.6c0-.2.1-.5.3-.5.1.1.3.3.3.5z"/>
  <path fill="#393D3F" d="M236.7 100.7h.6v7.5h-.6z"/>
  <path d="M90.5 83.4h7.1v2.2h-7.1zm.1 27.9v-1.9c2.1.8 4.4 1.4 6.9 1.9v1.8c-2.4-.4-4.7-1-6.9-1.8m141.9-27.9h7.1v2.2h-7.1zm7 27.9v-1.9c-2.1.8-4.4 1.4-6.9 1.9v1.8c2.4-.4 4.7-1 6.9-1.8"/>
  <path fill="#2A2C2E" d="M253.8 116.9H76.4c-8.1 0-14.7-6.6-14.7-14.6v-6.8c0-14.2 9.2-18.6 23.1-20.8.3 0 32.9-4 80.1-4h.3c47.2 0 79.8 4 80.1 4 13.9 2.2 23.1 6.6 23.1 20.8v6.8c.1 8-6.5 14.6-14.6 14.6zm-88.6-.3h88.6c7.9 0 14.3-6.4 14.3-14.4v-6.8c0-14-9.1-18.3-22.9-20.5-.3 0-33-4-80.2-4s-79.9 4-80.2 4C71.2 77.1 62 81.4 62 95.4v6.8c0 7.9 6.4 14.4 14.3 14.4h88.9z"/>
  <path fill="#3F3F3F" d="M165.4 126.8h-.7l-89.2-1.9c-9.1-.6-16.3-1.1-22.9-10.1-2.7-3.6-4.2-8.2-4.2-13v-3.3c0-8.9 2.2-15.5 6.7-20.2 4-4.2 9.9-6.8 18.5-8.5.4 0 38-4.1 91.3-4.1s90.9 4.1 91.3 4.1c8.6 1.6 14.5 4.3 18.5 8.5 4.5 4.6 6.7 11.2 6.7 20.2v3.3c0 4.7-1.5 9.4-4.2 13-6.6 8.9-13.8 9.4-22.9 10.1l-88.9 1.9zm-.3-60.7c-53.3 0-90.9 4.1-91.3 4.1-17.5 3.3-25 11.8-25 28.3v3.3c0 4.7 1.5 9.2 4.1 12.8 6.5 8.8 13.6 9.3 22.6 9.9l89.5 1.9 89.5-1.9c9-.6 16.1-1.1 22.6-9.9 2.6-3.6 4.1-8.1 4.1-12.8v-3.3c0-16.5-7.5-25-25-28.3-.2-.1-37.8-4.1-91.1-4.1z"/>
  <path fill="#2A2C2E" d="M165 180.8c-50.8-2.8-84.8-27.4-109.7-45.3-2.7-1.9-5.2-3.7-7.6-5.4-2.4-2.1-5.7-5.2-7.7-7.8-6.2-8.4-8-17.5-8.4-23.7.1-.8.1-1.7.2-2.5.7-9.7 1.6-21.9 16.6-30.2 8.8-6.5 74.5-9.5 116.5-9v.3c-42-.5-107.6 2.5-116.3 9-14.9 8.3-15.8 20.3-16.5 30-.1.9-.1 1.7-.2 2.5.4 6.1 2.2 15.2 8.3 23.5 1.9 2.6 5.2 5.6 7.6 7.7 2.4 1.7 4.9 3.5 7.6 5.4 24.8 17.9 58.8 42.5 109.5 45.3h.1c50.7-2.8 84.7-27.3 109.5-45.3 2.7-1.9 5.2-3.7 7.6-5.4 2.4-2.1 5.7-5.1 7.6-7.7 6.2-8.4 7.9-17.4 8.3-23.5-.1-.8-.1-1.6-.2-2.5-.7-9.7-1.6-21.7-16.5-30-8.7-6.5-74.3-9.4-116.3-9v-.3c42.1-.5 107.7 2.5 116.5 9 15 8.4 15.9 20.5 16.6 30.2.1.9.1 1.7.2 2.5-.4 6.2-2.2 15.3-8.4 23.7-1.9 2.6-5.2 5.7-7.6 7.8-2.4 1.7-4.9 3.5-7.6 5.4-24.9 18-58.9 42.6-109.7 45.3z"/>
  <path fill="#1B1D1E" d="M310.3 105.6c0 1.4-1 2.6-2.2 2.6h-5.9c-1.2 0-2.3-1.2-2.3-2.6 0-1.4 1-2.6 2.3-2.6h5.9c1.2.1 2.2 1.2 2.2 2.6z"/>
  <path fill="#2E3233" d="M308.7 105.6c0 .9-.7 1.7-1.6 1.7H303c-.9 0-1.6-.8-1.6-1.7s.7-1.7 1.6-1.7h4.1c.9 0 1.6.8 1.6 1.7z"/>
  <path d="M303 103.1h4.1v.9H303zm0 4.3h4.1v.9H303z"/>
  <path fill="#1B1D1E" d="M310.3 97.5c0 1.4-1 2.6-2.2 2.6h-5.9c-1.2 0-2.3-1.2-2.3-2.6 0-1.4 1-2.6 2.3-2.6h5.9c1.2 0 2.2 1.2 2.2 2.6z"/>
  <path fill="#2E3233" d="M308.7 97.5c0 .9-.7 1.7-1.6 1.7H303c-.9 0-1.6-.8-1.6-1.7s.7-1.7 1.6-1.7h4.1c.9 0 1.6.8 1.6 1.7z"/>
  <path d="M303 94.9h4.1v.9H303zm0 4.3h4.1v.9H303z"/>
  <path fill="#1B1D1E" d="M310.3 89.4c0 1.4-1 2.6-2.2 2.6h-5.9c-1.2 0-2.3-1.2-2.3-2.6 0-1.4 1-2.6 2.3-2.6h5.9c1.2 0 2.2 1.2 2.2 2.6z"/>
  <path fill="#2E3233" d="M308.7 89.4c0 .9-.7 1.7-1.6 1.7H303c-.9 0-1.6-.8-1.6-1.7s.7-1.7 1.6-1.7h4.1c.9 0 1.6.8 1.6 1.7z"/>
  <path d="M303 86.8h4.1v.9H303zm0 4.3h4.1v.9H303z"/>
  <path fill="#1B1D1E" d="M19.9 105.6c0 1.4 1 2.6 2.2 2.6H28c1.2 0 2.3-1.2 2.3-2.6 0-1.4-1-2.6-2.3-2.6h-5.9c-1.2 0-2.2 1.2-2.2 2.6z"/>
  <path fill="#2E3233" d="M21.5 105.6c0 .9.7 1.7 1.6 1.7h4.1c.9 0 1.6-.8 1.6-1.7s-.7-1.7-1.6-1.7H23c-.8 0-1.5.8-1.5 1.7z"/>
  <path d="M23.1 103h4.1v.9h-4.1zm0 4.3h4.1v.9h-4.1z"/>
  <path fill="#1B1D1E" d="M19.9 97.5c0 1.4 1 2.6 2.2 2.6H28c1.2 0 2.3-1.2 2.3-2.6 0-1.4-1-2.6-2.3-2.6h-5.9c-1.2 0-2.2 1.2-2.2 2.6z"/>
  <path fill="#2E3233" d="M21.5 97.5c0 .9.7 1.7 1.6 1.7h4.1c.9 0 1.6-.8 1.6-1.7s-.7-1.7-1.6-1.7H23c-.8 0-1.5.7-1.5 1.7z"/>
  <path d="M23.1 94.9h4.1v.9h-4.1zm0 4.3h4.1v.9h-4.1z"/>
  <path fill="#1B1D1E" d="M19.9 89.3c0 1.4 1 2.6 2.2 2.6H28c1.2 0 2.3-1.2 2.3-2.6 0-1.4-1-2.6-2.3-2.6h-5.9c-1.2.1-2.2 1.2-2.2 2.6z"/>
  <path fill="#2E3233" d="M21.5 89.3c0 .9.7 1.7 1.6 1.7h4.1c.9 0 1.6-.8 1.6-1.7s-.7-1.7-1.6-1.7H23c-.8 0-1.5.8-1.5 1.7z"/>
  <path d="M23.1 86.8h4.1v.9h-4.1zm0 4.3h4.1v.9h-4.1z"/>
  <path fill="#171819" d="M315.1 127c0 .5-.2 21.5-1.4 30.2-1.2 8.9 1.1 19.6-16.2 27.1-17.3 7.4-43.3 13.9-80.6 18.2-37.3 4.3-83.4 3.8-119.9-2.3-36.4-6.2-56.7-10.9-67.9-16.3-12-5.7-13.3-15.8-13.5-25.4-.1-5-.4-30.1-.5-37.4.1 6.5.5 11.6 1.1 13.5l.4 1.1c2 6.1 3.8 11.4 12.4 14.5 3 1.1 10.2 3.1 18.5 5.5 14.9 4.2 35.2 10 41.7 13.3 10.3 5.2 34.4 15.3 41 17.5l6.7 2.2c.5.2 11.8 4.4 28.3 4.4s27.7-4.2 28.1-4.4l6.8-2.2c6.7-2.2 30.7-12.2 41-17.5 6.5-3.3 26.8-9.1 41.7-13.3 8.3-2.4 15.5-4.4 18.5-5.5 8.7-3.2 10.4-8.4 12.4-14.5l.4-1.1c.5-1.3.8-4 1-7.6z"/>
  <path fill="#0B0C0D" d="M120.5 46c-22 1-39.1 2.5-50.9 3.8-22.8 2.4-39.3.5-48.3 23.3-5 12.7-6 53.5-3.8 59.9 2.2 6.4 3.4 11.2 11.8 14.2s50.2 13.4 60.4 18.4c10.2 5.1 34 14.8 40.8 17l6.8 2.2s11.4 4.2 27.8 4.2 27.8-4.2 27.8-4.2l6.8-2.2c6.8-2.2 30.7-11.9 40.8-17 10.2-5.1 52-15.4 60.4-18.4 8.4-3 9.6-7.9 11.8-14.2 2.2-6.4 1.2-47.2-3.8-59.9-9-22.9-25.5-21-48.3-23.3-11.8-1.2-29.1-2.8-51.1-3.8-13.2-.6-28.2-1-44.5-1h-.1c-16.4 0-31.2.4-44.4 1m0-1.6c13.2-.6 28.2-1 44.5-1h.1c16.3 0 31.1.4 44.3 1 17.6.8 34.7 2.1 51.3 3.9 2.9.3 5.8.6 8.5.8 18.4 1.6 32.9 2.8 41.1 24.1 3.6 9.4 5.1 32.6 4.9 48.2v.8c-.1 6.5-.5 11.6-1.1 13.5l-.4 1.1c-2 6.1-3.8 11.3-12.4 14.5-3 1.1-10.2 3.1-18.5 5.5-14.9 4.2-35.2 10-41.7 13.3-10.3 5.2-34.4 15.3-41 17.5l-6.7 2.2c-.5.2-11.8 4.4-28.3 4.4s-27.8-4.2-28.3-4.4l-6.7-2.2c-6.7-2.2-30.7-12.2-41-17.5-6.5-3.3-26.8-9.1-41.7-13.3-8.3-2.4-15.5-4.4-18.5-5.5-8.7-3.2-10.4-8.4-12.4-14.5l-.4-1.1c-.6-1.9-1-7-1.1-13.5v-.8c-.2-15.6 1.3-38.8 4.9-48.2C28.1 51.9 42.6 50.6 61 49.1c2.7-.2 5.6-.5 8.5-.8 16.5-1.8 33.5-3.1 51-3.9"/>
  <path fill="#C5BABA" d="M228.8 163.4s-.1 0-.2.1c-1.9.8-3.8 1.6-5.8 2.4-30.3 11.7-43.9 15.1-57.4 15.1-9.3 0-18.6-1.6-33.4-6.4 0 0-28.4-10.5-30.6-11.4.5-1.4 2-5 4.5-9 3-4.9 7.5-10.4 13.7-13.6.4-.2.7-.4 1.1-.5 12.1-5.4 31.7-5 44.9-5s32.6-.4 44.7 5c.4.2.7.4 1.1.5 8.3 4.3 13.1 12.9 15.6 18.4.9 1.9 1.5 3.5 1.8 4.4z"/>
  <path fill="#2F3134" d="M164.6 179.1c-29.1 0-51.4-14.1-51.4-25.8 0-11.7 22.3-16.5 51.4-16.5s51.4 4.8 51.4 16.5-22.3 25.8-51.4 25.8z"/>
  <path fill="#C5BABA" d="M194.5 173.7c-.1-4.4-5.2-8.1-11.5-8.1h-36.8c-6.3 0-11.4 3.7-11.5 8.1l-1-.4c.1-4.9 5.7-8.7 12.5-8.7H183c6.8 0 12.4 3.9 12.5 8.8l-1 .3z"/>
  <path fill="#C5BABA" d="M150.4 170.3c0-.8.3-1.5.8-2 .6-.6 1.2-.8 1.9-.8h3.9v1.2h-3.6c-.6 0-1 .2-1.3.5-.3.3-.5.7-.5 1.2s.2.9.5 1.2c.3.3.8.5 1.3.5h.6c.5 0 .9.1 1.1.4.3.3.4.6.4 1s-.1.7-.4 1c-.3.3-.6.4-1.1.4h-3.6v-1.2h3.6c.2 0 .3-.1.3-.2s-.1-.2-.3-.2h-.9c-.7 0-1.3-.3-1.9-.8-.6-.7-.8-1.4-.8-2.2zm1.5 0c0-.4.1-.7.4-1 .3-.3.6-.4 1.1-.4h3.6v1.2h-3.6c-.2 0-.3.1-.3.2s.1.2.3.2h.9c.7 0 1.3.3 1.9.8.6.6.8 1.2.8 2s-.3 1.5-.8 2-1.2.8-1.9.8h-3.9V175h3.6c.6 0 1-.2 1.3-.5.3-.3.5-.7.5-1.2s-.2-.9-.5-1.2c-.3-.3-.8-.5-1.3-.5h-.6c-.5 0-.9-.1-1.1-.4-.3-.2-.4-.5-.4-.9zm5.7-.1c0-1.8.9-2.7 2.7-2.7h3.6v1.2h-3.6c-1 0-1.5.5-1.5 1.5v3.3c0 1 .5 1.5 1.5 1.5h3.6v1.2h-3.6c-1.8 0-2.7-.9-2.7-2.7v-3.3zm1.5 1.5v-1.5c0-.8.4-1.2 1.2-1.2h3.6v1.2h-3.3c-.2 0-.3.1-.3.3h2.7v1.2h-3.9zm0 .3h3.9v1.2h-2.7c0 .2.1.3.3.3h3.3v1.2h-3.6c-.8 0-1.2-.4-1.2-1.2V172zm5.5-1.8c0-1.8.9-2.7 2.7-2.7h3.6v1.2h-3.6c-1 0-1.5.5-1.5 1.5v3.3c0 1 .5 1.5 1.5 1.5h2.4v-3.3h-2.1v-1.2h3.3v5.8h-3.6c-1.8 0-2.7-.9-2.7-2.7v-3.4zm1.5 0c0-.8.4-1.2 1.2-1.2h3.6v1.2h-3.3c-.2 0-.3.1-.3.3v2.7c0 .2.1.3.3.3h.6v-.3h-.6V172h1.8v2.7h-2.1c-.8 0-1.2-.4-1.2-1.2v-3.3zm9.1 4.8h3.6l-2.4-6.2c-.1-.1-.2-.2-.4-.2s-.3.1-.4.2l-2.7 7.4h-1.2l2.8-7.8c.3-.7.8-1 1.5-1 .8 0 1.3.3 1.5 1l2.9 7.8h-5.2V175zm0-.3v-.7l-.9 2.2h-1.2l2.6-7.1c0-.1.1-.2.2-.2s.2.1.2.2l2.1 5.6h-3zm.7-2.6l-.6 1.4h1.1l-.5-1.4z"/>
  <path fill="#F2BA5C" d="M135.3 152.9l7.5 7.2h54.4v-4.6l-3-2.6m-48.9-9.6v1.9c0 .4-.2.6-.7.8-.5.2-1.1.2-1.9.2-.8 0-1.5-.1-2-.2-.5-.2-.8-.4-.8-.8v-2h2.1v1.9c0 .1.1.2.2.3.1.1.3.1.6.1.2 0 .4 0 .6-.1.2 0 .2-.1.3-.2v-2h1.6zm2.7 1.8v1.1h-1.8v-2.9h2.5c.6 0 1.1 0 1.4.1.3.1.6.2.8.3.2.1.3.3.3.5 0 .3-.2.5-.6.7-.4.2-.9.3-1.6.3h-1zm0-.6h.6c.5 0 .8-.1.8-.3 0-.2-.2-.3-.7-.3h-.7v.6zm8.1 1v.7h-4.4v-2.9h4.4v.7h-2.7v.4h2.1v.7h-2.1v.5h2.7zm5.4.7h-2l-.8-1.1h-.6v1.1h-1.8v-2.9h3c.7 0 1.2.1 1.5.2.4.2.6.4.6.6 0 .2-.1.3-.2.4-.1.1-.4.2-.8.3l1.1 1.4zm-3.3-1.7h.8c.2 0 .4 0 .5-.1.1 0 .2-.1.2-.2 0-.2-.2-.3-.7-.3h-.8v.6zm-21.5 1.8c-.5 0-.9 0-1.2-.1-.3-.1-.6-.1-.9-.2-.2-.1-.4-.2-.5-.3-.1-.1-.2-.3-.2-.4h1.2c0 .1.1.2.2.3.1.1.2.1.4.2.1 0 .3.1.5.1h1.1c.2 0 .3 0 .4-.1.1 0 .2-.1.3-.1.1 0 .1-.1.1-.2s0-.1-.1-.2c-.1 0-.2-.1-.3-.1-.1 0-.3-.1-.5-.1s-.5-.1-.8-.1c-.4 0-.7-.1-1-.1-.3 0-.5-.1-.7-.2-.2-.1-.3-.1-.4-.2-.1-.1-.1-.2-.1-.3 0-.1.1-.2.2-.3.1-.1.3-.2.5-.3.2-.1.5-.1.7-.2.3 0 .6-.1 1-.1s.7 0 1 .1.6.1.8.2c.2.1.4.2.5.3.1.1.2.3.2.4h-1.2c-.1-.3-.5-.5-1.3-.5-.4 0-.7 0-.9.1-.2.1-.3.1-.3.2 0 0 0 .1.1.1s.1.1.2.1.2.1.4.1.3 0 .6.1c.2 0 .4 0 .6.1.2 0 .4 0 .6.1.2 0 .4.1.5.1.2 0 .3.1.5.2.1.1.2.1.3.2.1.1.1.2.1.3 0 .1-.1.3-.2.4-.1.1-.3.2-.5.3-.2.1-.5.1-.8.2-.5-.2-.8-.1-1.1-.1z"/>
  <path fill="#F2BA5C" d="M150.4 158.9v-2.2l.3-.1c3.4-1.2 8.8-4.3 9-5.2 0-.1 0-.3-.1-.4-.2-.3-.7-.5-1.1-.5-.6 0-1.1.4-1.2.9v.3h-7l.2-.6c.7-2.6 3.9-4.3 8.3-4.3 4.9 0 8.3 1.8 8.3 4.3 0 1.8-1.8 3.3-5.5 4.4h5.2v3.5h-16.4z"/>
  <path fill="#2F3134" d="M160.2 151.5c.2-.8-.7-1.5-1.7-1.5-.8 0-1.5.5-1.6 1.2h-6c.6-2.2 3.5-3.9 7.9-3.9 4.3 0 7.9 1.5 7.9 3.8 0 2-2.9 3.4-6.4 4.3v.6h6.1v2.5H151V157c2.6-1 8.8-4.2 9.2-5.5z"/>
  <path fill="#F2BA5C" d="M141.5 159.4c-2.1 0-6-.3-7.7-2-.6-.6-.9-1.3-.9-2.1v-.5h6.9l.1.4c.1.4.7.8 1.5.8 1 0 1.8-.4 1.8-.8s-.7-.8-1.8-.8h-.4l-.5.1v-3.1l.7.1h.2c.8 0 1.4-.4 1.4-.7 0-.3-.6-.7-1.4-.7-.7 0-1.3.3-1.4.7v.2h-6.3v-.5c0-1 .9-2.1 2.4-2.7 1.4-.6 3.3-1 5.7-1 4 0 8 1.1 8 3.2 0 .9-.8 1.8-2 2.4 1.8.6 2.5 1.9 2.5 2.9-.2 2.3-4 4.1-8.8 4.1z"/>
  <path fill="#2F3134" d="M133.4 155.4h6c.1.7 1 1.2 2 1.2 1.2 0 2.2-.6 2.2-1.3s-1-1.3-2.2-1.3h-.4v-2.1h.4c1 0 1.9-.5 1.9-1.2s-.8-1.2-1.9-1.2c-.9 0-1.7.5-1.8 1.1h-5.5c0-.7.8-1.7 2.1-2.3 1.4-.7 3.4-.9 5.5-.9 4.2 0 7.5 1.2 7.5 2.8 0 .9-1.2 1.8-3.2 2.3v.5c2.5.3 3.6 1.3 3.6 2.5 0 2-3.6 3.6-8.1 3.6s-8.1-1.2-8.1-3.7"/>
  <path fill="#F2BA5C" d="M196.2 159.7h-18.1l-.1-.1-17.1-16.6h18.7l16.8 16.3-.2.2v.2zm-17.9-.4h17.3l-16.2-15.8h-17.3l16.2 15.8z"/>
  <path fill="#F2BA5C" d="M196.2 159.5h-18l-16.7-16.2h18l16.7 16.2"/>
  <path fill="#2F3134" d="M196.2 159.5h-18l-16.7-16.2h18l16.7 16.2"/>
  <path fill="#F2BA5C" d="M182.6 158.9l-2.6-2.4-2.6 2.4h-10.2l7.6-7.1-7.6-7h10.2l2.5 2.2 2.4-2.2h10.1l-7.4 6.9 7.8 7.2"/>
  <path fill="#2F3134" d="M175.5 151.8l-7.1-6.5h8.8l2.7 2.4 2.6-2.4h8.7l-6.9 6.5 7.3 6.7h-8.8l-2.9-2.6-2.8 2.6h-8.7l7.1-6.7z"/>
</svg>
