<svg xmlns="http://www.w3.org/2000/svg" viewBox="0 0 399.99999 239.34965">
  <path fill="#171819" d="M398.86814 121.4858c0 12.29949-.30182 23.46713-.75457 33.42746-.75457 16.60054-1.88642 29.6546-2.86736 38.55853-1.81097 17.2042-.37729 29.65461-17.65695 36.44574-9.58304 3.77285-40.44496 4.52742-45.27421 2.86737-4.82925-1.66005-8.52664-2.56554-10.71489-8.90393-2.26371-6.33839-10.11124-37.87942-13.88409-45.57604-3.84831-7.69661-11.16764-25.65538-12.8277-30.78646l-1.66005-5.13108s-3.1692-8.6021-3.1692-20.97705c0-12.37495 3.1692-20.97705 3.1692-20.97705l1.66005-5.131079c1.66006-5.13107 8.97939-23.1653 12.8277-30.78646 3.8483-7.69662 11.62038-39.23765 13.88409-45.57604 2.26371-6.338389 5.9611-7.243873 10.71489-8.903928 4.82925-1.660054 35.69117-.905484 45.27421 2.867367 17.27966 6.791132 15.84598 19.241541 17.65695 36.445741.90548 8.90393 2.11279 21.95799 2.86736 38.55853.45275 10.03579.75457 21.278879.75457 33.578379"/>
  <path fill="#171819" d="M389.8133 121.56125c.37729 33.50292-1.96188 81.41813-6.79113 87.83197-6.86659 12.2995-16.90237 11.99767-24.59899 12.67678-3.92376-.22637-11.09218-1.35822-17.80785-6.33839-2.1128-1.50914-4.52743-4.22559-5.88565-5.73473-13.20498-18.71334-35.993-46.02878-38.33217-88.43563v-.0754c2.33917-42.406849 25.12719-69.646829 38.33217-88.435629 1.35822-1.50914 3.77285-4.22559 5.88565-5.73473 6.79113-4.98016 13.95954-6.036562 17.80785-6.33839 7.69662.679113 17.80786.377285 24.59899 12.67678 4.82925 6.4893 7.16842 54.32905 6.79113 87.831969"/>
  <path fill="#282827" d="M337.21976 121.71217v-.22637l1.43368 67.53403c.45275 7.0175.90549 12.29949 7.54571 17.2042 2.7919 2.1128 6.26293 3.09374 9.73395 3.09374h2.49008c13.95955 0 19.24154-7.09296 21.50525-18.93971 0 0 3.09374-28.22093 3.09374-68.89226 0-40.671329-3.09374-68.892259-3.09374-68.892259-2.26371-11.84675-7.5457-18.93971-21.50525-18.93971h-2.49008c-3.47102 0-6.94205 1.0564-9.73395 3.09374-6.64022 4.9047-7.01751 10.11124-7.54571 17.2042l-1.43368 67.534029v-.22637"/>
  <path fill="#1d1d1d" d="M379.0984 121.33488c0 36.14392-3.01828 60.66745-3.01828 60.66745-1.73551 10.48852-5.05562 17.35511-15.6196 17.35511h-5.13108c-6.03656 0-10.94126-4.90471-10.94126-10.94127v-67.08129.22637-67.005829c0-6.03656 4.9047-10.94126 10.94126-10.94126h5.13108c10.56398 0 13.88409 6.86658 15.6196 17.35511 0 0 3.01828 24.52353 3.01828 60.667439"/>
  <path fill="#1b1c1c" d="M347.02917 52.216261h22.78802V190.75534h-22.78802z"/>
  <path fill="#414446" d="M347.18009 52.442631h22.48619V190.60443h-22.48619z"/>
  <path fill="#1b1d1e" d="M347.18009 121.33488v47.61338c0 9.96033 6.56476 18.56243 9.05484 21.58071h13.43135v-69.19409.30183-69.194079h-13.35589c-2.49009 3.01828-9.05485 11.62038-9.05485 21.5807v47.613379"/>
  <path fill="#46494b" d="M364.76157 52.442631v9.35667c0 .30182.30183.60365.60366.60365h4.30105v-9.96032h-4.90471zm0 138.086339v-9.35667c0-.30183.30183-.60366.60366-.60366h4.30105v9.96033h-4.90471z"/>
  <path fill="#45494a" d="M368.00622 121.33488v56.3664c0 .30182-.30182.60365-.60365.60365H364.007c-.30183 0-.60365.22637-.60365.60366v8.67756h-7.09296c-4.52743-5.50837-7.99845-11.7713-7.99845-21.88254V77.117071c0-10.11124 3.47102-16.37417 7.99845-21.88253h7.09296v8.67755c0 .30183.30182.60366.60365.60366h3.39557c.30183 0 .60365.30183.60365.60366v56.215469z"/>
  <path d="M357.97044 52.442631h.45274V190.60443h-.45274z"/>
  <path fill="#1c1e1f" d="M357.06496 82.776351h.90548v77.117069h-.90548z"/>
  <path fill="#202223" d="M356.15947 82.776351h.90549v77.117069h-.90549z"/>
  <path fill="#242627" d="M355.25399 82.776351h.90548v77.117069h-.90548z"/>
  <path fill="#292c2d" d="M354.3485 82.776351h.90549v77.117069h-.90549z"/>
  <path fill="#2f3133" d="M353.44302 82.776351h.90548v77.117069h-.90548z"/>
  <path fill="#333637" d="M352.53753 82.776351h.90549v77.117069h-.90549z"/>
  <path fill="#373a3c" d="M351.63205 82.776351h.90548v77.117069h-.90548z"/>
  <path fill="#3b3e3f" d="M350.72657 82.776351h.90548v77.117069h-.90548z"/>
  <path fill="#3f4244" d="M349.82108 82.776351h.90549v77.117069h-.90549z"/>
  <path fill="#1b1d1e" d="M357.97044 85.115521v-2.33917h-8.14936s6.86659.60365 8.14936 2.33917zm0 72.363279v2.33916h-8.14936c0 .0755 6.86659-.5282 8.14936-2.33916z"/>
  <path fill="#1c1e1f" d="M358.42318 82.776351h.90549v77.117069h-.90549z"/>
  <path fill="#202223" d="M359.32867 82.776351h.90548v77.117069h-.90548z"/>
  <path fill="#242627" d="M360.23415 82.776351h.90548v77.117069h-.90548z"/>
  <path fill="#292c2d" d="M361.13963 82.776351h.90549v77.117069h-.90549z"/>
  <path fill="#2f3133" d="M362.04512 82.776351h.90548v77.117069h-.90548z"/>
  <path fill="#333637" d="M362.9506 82.776351h.90549v77.117069h-.90549z"/>
  <path fill="#373a3c" d="M363.85609 82.776351h.90548v77.117069h-.90548z"/>
  <path fill="#3b3e3f" d="M364.76157 82.776351h.90549v77.117069h-.90549z"/>
  <path fill="#3f4244" d="M365.66706 82.776351h.90548v77.117069h-.90548z"/>
  <path fill="#1b1d1e" d="M358.42318 85.115521v-2.33917h8.45119s-7.09296.60365-8.45119 2.33917zm0 72.363279v2.33916h8.45119c0 .0755-7.09296-.5282-8.45119-2.33916z"/>
  <path fill="#0e1214" d="M359.63049 66.704001v.45274c-.15091 0-.37728-.0754-.37728-.22637 0-.15091.15091-.22637.37728-.22637z"/>
  <path fill="#5e5e60" d="M366.57254 66.704001v.45274c.15091 0 .37729-.0754.37729-.22637-.0755-.15091-.22638-.22637-.37729-.22637z"/>
  <path fill="#393d3f" d="M359.63049 66.704001h6.94205v.45274h-6.94205z"/>
  <path fill="#0e1214" d="M359.63049 70.854141v.45274c-.15091 0-.37728-.0755-.37728-.22637 0-.15091.15091-.22637.37728-.22637z"/>
  <path fill="#5e5e60" d="M366.57254 70.854141v.45274c.15091 0 .37729-.0755.37729-.22637-.0755-.15091-.22638-.22637-.37729-.22637z"/>
  <path fill="#393d3f" d="M359.63049 70.854141h6.94205v.45274h-6.94205z"/>
  <path fill="#0e1214" d="M349.82108 70.854141v.45274c-.15091 0-.37728-.0755-.37728-.22637.0754-.15091.22637-.22637.37728-.22637z"/>
  <path fill="#5e5e60" d="M356.76313 70.854141v.45274c.15091 0 .37728-.0755.37728-.22637-.0754-.15091-.22637-.22637-.37728-.22637z"/>
  <path fill="#393d3f" d="M349.82108 70.854141h6.94205v.45274h-6.94205z"/>
  <path fill="#0e1214" d="M351.10385 66.704001v.45274c-.15091 0-.37728-.0754-.37728-.22637.0754-.15091.22637-.22637.37728-.22637z"/>
  <path fill="#5e5e60" d="M356.76313 66.704001v.45274c.15091 0 .37728-.0754.37728-.22637-.0754-.15091-.22637-.22637-.37728-.22637z"/>
  <path fill="#393d3f" d="M351.10385 66.704001h5.65928v.45274h-5.65928z"/>
  <path fill="#0e1214" d="M359.63049 175.96576v-.45274c-.15091 0-.37728.0755-.37728.22637 0 .15092.15091.22637.37728.22637z"/>
  <path fill="#5e5e60" d="M366.57254 175.96576v-.45274c.15091 0 .37729.0755.37729.22637-.0755.15092-.22638.22637-.37729.22637z"/>
  <path fill="#393d3f" d="M359.63049 175.51302h6.94205v.45274h-6.94205z"/>
  <path fill="#0e1214" d="M359.63049 171.81563v-.45274c-.15091 0-.37728.0754-.37728.22637 0 .0754.15091.22637.37728.22637z"/>
  <path fill="#5e5e60" d="M366.57254 171.81563v-.45274c.15091 0 .37729.0754.37729.22637-.0755.0754-.22638.22637-.37729.22637z"/>
  <path fill="#393d3f" d="M359.63049 171.36289h6.94205v.45274h-6.94205z"/>
  <path fill="#0e1214" d="M349.82108 171.81563v-.45274c-.15091 0-.37728.0754-.37728.22637.0754.0754.22637.22637.37728.22637z"/>
  <path fill="#5e5e60" d="M356.76313 171.81563v-.45274c.15091 0 .37728.0754.37728.22637-.0754.0754-.22637.22637-.37728.22637z"/>
  <path fill="#393d3f" d="M349.82108 171.36289h6.94205v.45274h-6.94205z"/>
  <path fill="#0e1214" d="M351.10385 175.96576v-.45274c-.15091 0-.37728.0755-.37728.22637.0754.15092.22637.22637.37728.22637z"/>
  <path fill="#5e5e60" d="M356.76313 175.96576v-.45274c.15091 0 .37728.0755.37728.22637-.0754.15092-.22637.22637-.37728.22637z"/>
  <path fill="#393d3f" d="M351.10385 175.51302h5.65928v.45274h-5.65928z"/>
  <path d="M368.15714 65.194861h1.66005v5.35745h-1.66005zm-19.39246.15092h1.43369c-.60366 1.58459-1.0564 3.32011-1.43369 5.20653h-1.35822c.30183-1.81097.75457-3.62194 1.35822-5.20653m19.39246 106.998049h1.66005v5.35745h-1.66005zm-19.39246 5.28199h1.43369c-.60366-1.5846-1.0564-3.32011-1.43369-5.20653h-1.35822c.30183 1.81096.75457 3.54647 1.35822 5.20653"/>
  <path fill="#2a2c2e" d="M344.61455 188.41617V54.555421c0-6.11202 4.98016-11.09218 11.01672-11.09218h5.13108c10.7149 0 14.035 6.94205 15.69506 17.43057 0 .22637 3.01828 24.82536 3.01828 60.441069v.22637c0 35.61572-3.01828 60.21471-3.01828 60.44108-1.66006 10.48852-4.98016 17.43057-15.69506 17.43057h-5.13108c-6.11202.0755-11.01672-4.90471-11.01672-11.01673zm.22637-66.77946v66.85492c0 5.9611 4.82925 10.79035 10.86581 10.79035h5.13108c10.56398 0 13.80863-6.86659 15.46869-17.27965 0-.22637 3.01828-24.90082 3.01828-60.51653 0-35.615709-3.01828-60.290159-3.01828-60.516529-1.66006-10.33761-4.98017-17.27966-15.46869-17.27966h-5.13108c-5.96111 0-10.86581 4.82925-10.86581 10.79036v67.156739z"/>
  <path fill="#3f3f3f" d="M337.06885 121.78763v-.5282l1.43368-67.307659c.45274-6.86659.83003-12.2995 7.62116-17.27966 2.71645-2.03734 6.18747-3.1692 9.80941-3.1692h2.49008c6.71568 0 11.69584 1.66006 15.24232 5.05563 3.16919 3.01828 5.13108 7.47024 6.41385 13.95954 0 .30183 3.09373 28.67367 3.09373 68.892259 0 40.21859-3.09373 68.59043-3.09373 68.89226-1.20732 6.4893-3.24466 10.94127-6.41385 13.95955-3.47102 3.39556-8.45119 5.05562-15.24232 5.05562h-2.49008c-3.54648 0-7.09296-1.13186-9.80941-3.1692-6.71568-4.98016-7.09296-10.41307-7.62116-17.27966l-1.43368-67.08128zm45.87786-.30183c0-40.218589-3.09373-68.590429-3.09373-68.892259-2.49009-13.20498-8.90393-18.86425-21.35434-18.86425h-2.49008c-3.54648 0-6.94205 1.13185-9.6585 3.09373-6.64022 4.90471-7.0175 10.26216-7.47025 17.05329l-1.43368 67.534029 1.43368 67.53403c.45275 6.79113.83003 12.14858 7.47025 17.05329 2.71645 1.96188 6.11202 3.09374 9.6585 3.09374h2.49008c12.45041 0 18.86425-5.65928 21.35434-18.86426 0-.15091 3.09373-28.52275 3.09373-68.74134z"/>
  <path fill="#2a2c2e" d="M296.39751 121.4858c2.1128-38.332169 20.67523-63.987549 34.18203-82.776349 1.43369-2.03734 2.79191-3.92377 4.07468-5.73473 1.5846-1.81097 3.92377-4.30105 5.88565-5.81019 6.33839-4.67834 13.20498-6.036566 17.88331-6.338394.60366.07546 1.28277.07546 1.88643.150914 7.31933.528199 16.52508 1.20731 22.78802 12.52586 4.9047 6.64022 7.16841 56.21548 6.79113 87.907429h-.22637c.37728-31.691949-1.88643-81.191749-6.79113-87.756509-6.26294-11.2431-15.31778-11.92221-22.63711-12.450409-.67911-.07546-1.28277-.07546-1.88643-.150914-4.60287.301828-11.46946 1.660053-17.73239 6.262933-1.96189 1.43368-4.2256 3.92376-5.81019 5.73473-1.28277 1.81097-2.641 3.6974-4.07468 5.73474-13.50681 18.71334-32.06924 44.36872-34.18203 82.625429v.0755c2.11279 38.25671 20.59976 63.91209 34.18203 82.62543 1.43368 2.03734 2.79191 3.92377 4.07468 5.73474 1.58459 1.81096 3.8483 4.30105 5.81019 5.73473 6.33839 4.67833 13.12952 5.9611 17.73239 6.26293.60366-.0755 1.20732-.0755 1.88643-.15091 7.31933-.5282 16.37417-1.20731 22.63711-12.45041 4.9047-6.56476 7.09296-56.06456 6.79113-87.75651h.22637c.37728 31.7674-1.88643 81.26721-6.79113 87.90742-6.33839 11.31856-15.46869 11.99767-22.78802 12.52587-.67912.0755-1.28277.0755-1.88643.15091-4.67833-.30183-11.54492-1.66005-17.88331-6.33839-1.96188-1.43368-4.30105-3.92376-5.88565-5.73473-1.28277-1.81097-2.64099-3.69739-4.07468-5.73473-13.58226-18.7888-32.14469-44.44419-34.18203-82.77635z"/>
  <path fill="#1b1d1e" d="M353.06573 231.04939c-1.05639 0-1.96188-.75457-1.96188-1.66006v-4.52742c0-.90548.90549-1.73551 1.96188-1.73551 1.0564 0 1.96189.75457 1.96189 1.73551v4.45197c0 .98094-.90549 1.73551-1.96189 1.73551z"/>
  <path fill="#2e3233" d="M353.06573 229.84208c-.67911 0-1.28277-.5282-1.28277-1.20732v-3.09373c0-.67912.60366-1.20732 1.28277-1.20732.67912 0 1.28277.5282 1.28277 1.20732v3.09373c0 .67912-.60365 1.20732-1.28277 1.20732z"/>
  <path d="M354.3485 225.54103h.67912v3.09373h-.67912zm-3.24465 0h.67911v3.09373h-.67911z"/>
  <path fill="#1b1d1e" d="M359.17775 231.04939c-1.0564 0-1.96188-.75457-1.96188-1.66006v-4.52742c0-.90548.90548-1.73551 1.96188-1.73551s1.96188.75457 1.96188 1.73551v4.45197c0 .98094-.90548 1.73551-1.96188 1.73551z"/>
  <path fill="#2e3233" d="M359.17775 229.84208c-.67911 0-1.28277-.5282-1.28277-1.20732v-3.09373c0-.67912.60366-1.20732 1.28277-1.20732.67912 0 1.28277.5282 1.28277 1.20732v3.09373c0 .67912-.5282 1.20732-1.28277 1.20732z"/>
  <path d="M360.46052 225.54103h.67911v3.09373h-.67911zm-3.24465 0h.67911v3.09373h-.67911z"/>
  <path fill="#1b1d1e" d="M365.28977 231.04939c-1.0564 0-1.96188-.75457-1.96188-1.66006v-4.52742c0-.90548.90548-1.73551 1.96188-1.73551s1.96188.75457 1.96188 1.73551v4.45197c0 .98094-.83002 1.73551-1.96188 1.73551z"/>
  <path fill="#2e3233" d="M365.28977 229.84208c-.67911 0-1.28277-.5282-1.28277-1.20732v-3.09373c0-.67912.60366-1.20732 1.28277-1.20732s1.28277.5282 1.28277 1.20732v3.09373c.0755.67912-.5282 1.20732-1.28277 1.20732z"/>
  <path d="M366.648 225.54103h.67911v3.09373h-.67911zm-3.24465 0h.67911v3.09373h-.67911z"/>
  <path fill="#1b1d1e" d="M353.06573 11.922209c-1.05639 0-1.96188.75457-1.96188 1.660054v4.527421c0 .905484.90549 1.735512 1.96188 1.735512 1.0564 0 1.96189-.754571 1.96189-1.735512V13.65772c0-.980941-.83003-1.735511-1.96189-1.735511z"/>
  <path fill="#2e3233" d="M353.06573 13.129521c-.67911 0-1.28277.528199-1.28277 1.207312v3.093738c0 .679113.60366 1.207312 1.28277 1.207312.67912 0 1.28277-.528199 1.28277-1.207312v-3.093738c.0755-.679113-.5282-1.207312-1.28277-1.207312z"/>
  <path d="M354.42396 14.336833h.67911v3.093738h-.67911zm-3.24465 0h.67911v3.093738h-.67911z"/>
  <path fill="#1b1d1e" d="M359.25321 11.922209c-1.0564 0-1.96188.75457-1.96188 1.660054v4.527421c0 .905484.90548 1.735512 1.96188 1.735512s1.96188-.754571 1.96188-1.735512V13.65772c-.0755-.980941-.90548-1.735511-1.96188-1.735511z"/>
  <path fill="#2e3233" d="M359.25321 13.129521c-.67911 0-1.28277.528199-1.28277 1.207312v3.093738c0 .679113.60366 1.207312 1.28277 1.207312s1.28277-.528199 1.28277-1.207312v-3.093738c0-.679113-.60366-1.207312-1.28277-1.207312z"/>
  <path d="M360.53598 14.336833h.67911v3.093738h-.67911zm-3.24465 0h.67911v3.093738h-.67911z"/>
  <path fill="#1b1d1e" d="M365.36523 11.922209c-1.0564 0-1.96188.75457-1.96188 1.660054v4.527421c0 .905484.90548 1.735512 1.96188 1.735512s1.96188-.754571 1.96188-1.735512V13.65772c0-.980941-.90548-1.735511-1.96188-1.735511z"/>
  <path fill="#2e3233" d="M365.36523 13.129521c-.67912 0-1.28277.528199-1.28277 1.207312v3.093738c0 .679113.60365 1.207312 1.28277 1.207312.67911 0 1.28277-.528199 1.28277-1.207312v-3.093738c0-.679113-.60366-1.207312-1.28277-1.207312z"/>
  <path d="M366.648 14.336833h.67911v3.093738h-.67911zm-3.24465 0h.67911v3.093738h-.67911z"/>
  <path fill="#171819" d="M336.91793 234.67132c-.37728 0-16.22326-.15091-22.78802-1.05639-6.71567-.90549-14.78957.83002-20.44885-12.22404-5.58382-13.05406-10.48852-32.67289-13.73318-60.81836-3.24465-28.14546-2.86736-62.931149 1.73551-90.472959 4.67834-27.46636 8.22482-42.78413 12.2995-51.235317 4.30105-9.054842 11.92221-10.035783 19.16608-10.186697 3.77285-.07546 22.71256-.301828 28.22093-.377285-4.90471.07546-8.75302.377285-10.1867.830027l-.83003.301828c-4.60288 1.50914-8.6021 2.867367-10.94127 9.35667-.83002 2.263711-2.33916 7.696614-4.15013 13.959544-3.1692 11.2431-7.5457 26.56088-10.03579 31.46558-3.92376 7.77207-11.54492 25.95722-13.20497 30.93738l-1.66006 5.055619c-.15091.37728-3.32011 8.90393-3.32011 21.35433 0 12.45041 3.1692 20.9016 3.32011 21.20343l1.66006 5.13107c1.66005 5.05562 9.20575 23.16531 13.20497 30.93738 2.49009 4.90471 6.86659 20.22248 10.03579 31.46558 1.81097 6.26293 3.32011 11.69584 4.15013 13.95955 2.41463 6.56476 6.33839 7.84753 10.94127 9.35667l.83003.30182c.98094.37729 3.01828.60366 5.73473.75457z"/>
  <path fill="#0b0c0d" d="M398.03812 87.907421c-.75457-16.60054-1.88643-29.50369-2.86737-38.40762-1.81097-17.2042-.37729-29.654605-17.58149-36.445737-9.58304-3.772851-40.3695-4.527421-45.19875-2.867367-4.82925 1.660055-8.45119 2.565539-10.7149 8.903928-2.26371 6.338386-10.11124 37.879426-13.88409 45.576036-3.8483 7.69662-11.16764 25.65539-12.82769 30.78647l-1.66005 5.131069s-3.1692 8.6021-3.1692 20.97705c0 12.37496 3.1692 20.97706 3.1692 20.97706l1.66005 5.13107c1.66005 5.13108 8.97939 23.16531 12.82769 30.78647 3.84831 7.69661 11.62038 39.23765 13.88409 45.57604 2.26371 6.33838 5.96111 7.24387 10.7149 8.90392 4.82925 1.66006 35.61571.90549 45.19875-2.86736 17.27966-6.79113 15.84598-19.24154 17.58149-36.44574.90548-8.90393 2.1128-21.958 2.86737-38.55854.45274-9.96033.75457-21.27888.75457-33.57837v-.0755c0-12.45041-.30183-23.618049-.75457-33.502919m1.20731-.0754c.45274 9.96032.75457 21.278879.75457 33.578369v.0755c0 12.29949-.30183 23.46713-.75457 33.42746-.60366 13.28043-1.5846 26.18358-2.94282 38.70945-.22638 2.18825-.45275 4.3765-.60366 6.41384-1.20731 13.88409-2.1128 24.82536-18.18514 31.01284-7.09296 2.71645-24.59899 3.84831-36.37029 3.69739h-.60365c-4.90471-.0755-8.75302-.37728-10.1867-.83003l-.83003-.30182c-4.60287-1.50914-8.52664-2.86737-10.94126-9.35667-.83003-2.26371-2.33917-7.69662-4.15014-13.95955-3.16919-11.2431-7.5457-26.56087-10.03578-31.46558-3.92377-7.77207-11.54493-25.95721-13.20498-30.93738l-1.66006-5.05562c-.15091-.37728-3.3201-8.90392-3.3201-21.35433 0-12.45041 3.16919-20.97705 3.3201-21.35434l1.66006-5.055619c1.66005-5.05562 9.20576-23.1653 13.20498-30.93738 2.49008-4.9047 6.86659-20.22248 10.03578-31.46557 1.81097-6.26293 3.32011-11.69584 4.15014-13.959551 2.41462-6.56476 6.33839-7.84753 10.94126-9.35667l.90549-.301828c1.43368-.452742 5.28199-.75457 10.1867-.830027h.60365c11.7713-.150914 29.27732.980941 36.37028 3.697394 16.07235 6.187475 17.05329 17.128742 18.18515 31.012832.15091 2.03734.37728 4.2256.60365 6.41385 1.28277 12.52586 2.26371 25.2781 2.86737 38.48308"/>
  <path fill="#c5baba" d="M309.52703 169.55192s0-.0755-.0754-.15092c-.60366-1.43368-1.20731-2.86736-1.81097-4.3765-8.82847-22.86348-11.39401-33.12563-11.39401-43.31233 0-7.0175 1.20731-14.03501 4.82925-25.202649 0 0 7.92299-21.42979 8.6021-23.08984 1.0564.37728 3.77285 1.50914 6.79113 3.39556 3.69739 2.26371 7.84753 5.65928 10.26215 10.33761.15092.30183.30183.5282.37729.83003 4.07468 9.1303 3.77285 23.919879 3.77285 33.880199 0 9.96033.30183 24.59899-3.77285 33.72929-.15091.30183-.30183.5282-.37729.83003-3.24465 6.26293-9.73395 9.88487-13.88409 11.77129-1.50914.67912-2.71645 1.13186-3.32011 1.35823z"/>
  <path fill="#2f3134" d="M297.60483 121.10851c0-21.957989 10.63944-38.784899 19.46791-38.784899s12.4504 16.82691 12.4504 38.784899c0 21.958-3.62193 38.78491-12.4504 38.78491-8.75302 0-19.46791-16.82691-19.46791-38.78491z"/>
  <path fill="#c5baba" d="M301.75496 143.67016c3.32011-.0755 6.11202-3.92376 6.11202-8.67756v-27.76818c0-4.75379-2.79191-8.602099-6.11202-8.677559l.30183-.75457c3.69739.0755 6.56476 4.301049 6.56476 9.432129v27.76818c0 5.13108-2.94282 9.35667-6.64022 9.43213l-.22637-.75457z"/>
  <path fill="#c5baba" d="M304.24504 110.39362c.60366 0 1.13186.22637 1.50914.60365.37729.37729.60366.90549.60366 1.43369v2.94282h-.83003v-2.71645c0-.45275-.15091-.75457-.37728-.98094-.22637-.22638-.5282-.37729-.90549-.37729-.37728 0-.67911.15091-.90548.37729-.22637.22637-.37729.60365-.37729.98094v.45274c0 .37728-.0755.67911-.30182.83003-.22638.22637-.45275.30182-.75457.30182-.30183 0-.5282-.0755-.75457-.30182-.22638-.22637-.30183-.45275-.30183-.83003v-2.71645h.90548v2.71645c0 .15091.0755.22637.15092.22637.0754 0 .15091-.0755.15091-.22637v-.67911c0-.5282.22637-.98095.60366-1.43369.45274-.45274.98094-.60365 1.58459-.60365zm0 1.13185c.30183 0 .5282.0755.75457.30183.22637.22637.30183.45274.30183.83003v2.71645h-.90548v-2.71645c0-.15092-.0755-.22637-.15092-.22637-.0754 0-.15091.0755-.15091.22637v.67911c0 .5282-.22637.98094-.60366 1.43368-.45274.45275-.90548.60366-1.50914.60366-.60365 0-1.13185-.22637-1.50914-.60366-.45274-.45274-.60365-.90548-.60365-1.43368v-2.94282h.90548v2.71645c0 .45274.15091.75457.37729.98094.22637.22637.52819.37729.90548.37729.37728 0 .67911-.15092.90548-.37729.22637-.22637.37729-.60366.37729-.98094v-.45274c0-.37729.0755-.67912.30183-.83003.0755-.22637.30183-.30183.60365-.30183zm.0755 4.30105c1.35823 0 2.03734.67911 2.03734 2.03734v2.71645h-.83003v-2.71645c0-.75457-.37728-1.13185-1.13185-1.13185h-2.49008c-.75457 0-1.13186.37728-1.13186 1.13185v2.71645h-.90548v-2.71645c0-1.35823.67911-2.03734 2.03734-2.03734h2.41462zm-1.13186 1.20731h1.13186c.60366 0 .90548.30183.90548.90549v2.71645h-.90548v-2.49008c0-.15091-.0755-.22637-.22637-.22637v2.03734h-.90549v-2.94283zm-.22637 0v2.94283h-.90548v-2.03734c-.15091 0-.22637.0755-.22637.22637v2.49008h-.90549v-2.71645c0-.60366.30183-.90549.90549-.90549h1.13185zm1.35823 4.07468c1.35823 0 2.03734.67912 2.03734 2.03734v2.71645h-.83003v-2.71645c0-.75457-.37728-1.13185-1.13185-1.13185h-2.49008c-.75457 0-1.13186.37728-1.13186 1.13185v1.81097h2.49008v-1.5846h.90549v2.49008h-4.37651v-2.71645c0-1.35822.67911-2.03734 2.03734-2.03734h2.49008zm0 1.13186c.60366 0 .90548.30183.90548.90548v2.71645h-.90548v-2.49008c0-.15091-.0755-.22637-.22637-.22637h-2.03734c-.15091 0-.22637.0755-.22637.22637v.45275h.22637v-.45275h.90548v1.35823h-2.03734v-1.5846c0-.60365.30183-.90548.90549-.90548h2.49008zm-3.62194 6.86659v2.71645l4.67834-1.81097c.0755-.0755.15091-.15091.15091-.30183 0-.15091-.0755-.22637-.15091-.30183l-5.58382-2.03733v-.90549l5.88565 2.1128c.5282.22637.75457.60365.75457 1.13185 0 .60366-.22637.98094-.75457 1.13186l-5.88565 2.18825v-3.92376h.90548zm.22637 0h.5282l-1.66005-.67912v-.90548l5.35745 1.96188c.0755 0 .15091.0755.15091.15092 0 .0754-.0755.15091-.15091.15091l-4.2256 1.5846v-2.26371zm1.96189.5282l-1.0564-.45275v.83003l1.0564-.37728z"/>
  <path fill="#f2ba5c" d="M317.37456 98.999611l-5.4329 5.659269v41.12408h3.47102l1.96188-2.33917m7.31933-36.89848h-1.43368c-.30183 0-.45274-.15092-.60365-.5282-.15092-.37729-.15092-.83003-.15092-1.43368 0-.60366.0755-1.13186.15092-1.50914.15091-.37729.30182-.60366.60365-.60366h1.50914v1.5846h-1.43368c-.0755 0-.15092.0754-.22637.15091-.0755.0755-.0755.22637-.0755.45274 0 .15092 0 .30183.0755.45274 0 .15092.0754.15092.15091.22638h1.50914v1.20731zm-1.43368 2.03734h-.83003v-1.35823h2.18826v1.88643c0 .45274 0 .83002-.0755 1.0564-.0755.22637-.15091.45274-.22637.60365-.0755.15092-.22637.22637-.37729.22637-.22637 0-.37728-.15091-.52819-.45274-.15092-.30183-.22638-.67911-.22638-1.20731v-.75457zm.45274 0v.45274c0 .37728.0755.60366.22637.60366.15092 0 .22638-.15092.22638-.5282v-.5282h-.45275zm-.75457 6.11202h-.5282v-3.32011h2.18826v3.32011h-.5282v-2.03734h-.30183v1.58459h-.5282v-1.58459h-.37728v2.03734zm-.5282 4.07468v-1.50915l.83003-.60365v-.45274h-.83003v-1.35823h2.18826v2.26371c0 .5282-.0755.90549-.15092 1.13186-.15091.30182-.30182.45274-.45274.45274-.15091 0-.22637-.0755-.30183-.15092-.0754-.0755-.15091-.30182-.22637-.60365l-1.0564.83003zm1.35823-2.49009v.60366c0 .15091 0 .30183.0755.37728 0 .0755.0754.15092.15091.15092.15092 0 .22637-.15092.22637-.5282v-.60366h-.45274zm-1.35823-16.22326c0-.377279 0-.679109.0755-.905479.0755-.22637.0755-.45274.15092-.67911.0754-.15092.15091-.30183.22637-.37729.0754-.0754.22637-.15091.30182-.15091v.90548c-.0754 0-.15091.0755-.22637.15092-.0754.0754-.0754.15091-.15091.30182 0 .0755-.0755.22638-.0755.37729v.830029c0 .15091 0 .22637.0755.30182 0 .0755.0755.15092.0755.22638 0 .0754.0754.0754.15091.0754.0755 0 .0755 0 .15091-.0754 0-.0755.0755-.15092.0755-.22638 0-.0754.0755-.22637.0755-.37728 0-.15091.0755-.37729.0755-.603659 0-.30182.0754-.5282.0754-.75457 0-.22637.0755-.37728.15092-.5282.0754-.15091.0754-.22637.15091-.30182.0755-.0755.15091-.0755.22637-.0755.0755 0 .15092.0755.22637.15091.0755.0755.15092.22637.22637.37729.0755.15091.0755.37728.15092.5282 0 .22637.0754.45274.0754.75457 0 .301829 0 .528199-.0754.754569-.0755.22637-.0755.45274-.15092.60365-.0754.15092-.15091.30183-.22637.37729-.0754.0755-.22637.15091-.30183.15091v-.90548c.22638-.0755.37729-.37729.37729-.980939 0-.30183 0-.5282-.0755-.67912-.0754-.15091-.0754-.22637-.15091-.22637 0 0-.0755 0-.0755.0755 0 0-.0755.0755-.0755.15091 0 .0755-.0754.15092-.0754.30183 0 .15092 0 .22637-.0755.452739 0 .15092 0 .30183-.0755.45275 0 .15091 0 .30182-.0754.45274 0 .15091-.0755.30183-.0755.37728 0 .15092-.0755.22638-.15091.37729-.0755.0755-.0755.15091-.15092.22637-.0755.0755-.15091.0755-.22637.0755-.0755 0-.22637-.0755-.30183-.15092-.0754-.0754-.15091-.22637-.22637-.37728-.0755-.15092-.0755-.37729-.15091-.60366.0754-.30183.0754-.60365.0754-.83003z"/>
  <path fill="#f2ba5c" d="M312.84714 110.39362h1.66006l.0754.22637c.90549 2.56554 3.24466 6.64021 3.92377 6.79113.0755 0 .22637 0 .30183-.0755.22637-.15091.37728-.5282.37728-.83003 0-.45274-.30183-.83002-.67911-.90548H318.28v-5.28199l.45274.15091c1.96188.5282 3.24465 2.94283 3.24465 6.26294 0 3.69739-1.35822 6.26293-3.24465 6.26293-1.35823 0-2.49008-1.35823-3.32011-4.15014v3.92377h-2.64099v-12.37495z"/>
  <path fill="#2f3134" d="M318.50642 117.7884c.60366.15092 1.13185-.5282 1.13185-1.28277 0-.60365-.37728-1.13185-.90548-1.20731v-4.52742c1.66005.45274 2.94282 2.641 2.94282 5.96111 0 3.3201-1.13185 5.9611-2.86736 5.9611-1.50914 0-2.56554-2.18825-3.24465-4.82925h-.45275v4.60288h-1.88642v-11.62038h1.0564c.83002 1.96188 3.16919 6.64022 4.22559 6.94204z"/>
  <path fill="#f2ba5c" d="M312.46986 103.67794c0-1.5846.22637-4.527419 1.50914-5.810189.45274-.45274.98094-.67911 1.5846-.67911h.37728v5.206529l-.30183.0755c-.30183.0755-.60365.5282-.60365 1.13185 0 .75457.30182 1.35823.60365 1.35823.30183 0 .60366-.5282.60366-1.35823v-.30182l-.0755-.37729h2.33917l-.0755.5282v.15091c0 .60366.30183 1.0564.5282 1.0564.22637 0 .5282-.45274.5282-1.0564 0-.52819-.22637-.98094-.5282-1.05639l-.30183-.0755v-4.753789h.37729c.75457 0 1.5846.67911 2.03734 1.81097.45274 1.056389.75457 2.490079.75457 4.301049 0 3.01828-.83003 6.03656-2.41463 6.03656-.67911 0-1.35822-.60366-1.81096-1.50914-.45275 1.35822-1.43369 1.88642-2.18826 1.88642-1.5846-.0754-2.94282-2.86736-2.94282-6.56476z"/>
  <path fill="#2f3134" d="M315.5636 97.565921v4.527419c-.5282.0755-.90549.75457-.90549 1.50914 0 .90549.45274 1.66006.98094 1.66006s.98094-.75457.98094-1.66006v-.30182h1.5846v.30182c0 .75457.37729 1.43369.90549 1.43369.52819 0 .90548-.60366.90548-1.43369 0-.67911-.37729-1.28276-.83003-1.35822v-4.150139c.5282 0 1.28277.60366 1.73551 1.5846.5282 1.056399.67912 2.565539.67912 4.150139 0 3.16919-.90549 5.65927-2.1128 5.65927-.67911 0-1.35823-.90548-1.73551-2.41462h-.37729c-.22637 1.88642-.98094 2.71645-1.88642 2.71645-1.50914 0-2.71645-2.71645-2.71645-6.11202.0754-3.32011.90548-6.112019 2.79191-6.112019"/>
  <path fill="#f2ba5c" d="M312.24349 145.02839v-13.73318l.0755-.0755 12.52587-12.90315v14.11047l-12.29949 12.67677-.15092-.15091h-.15091zm.37728-13.58227v13.05407l11.92221-12.22404v-13.05406l-11.92221 12.22403z"/>
  <path fill="#f2ba5c" d="M312.3944 145.02839v-13.65772l12.29949-12.60132v13.58226h-.0754l-12.22404 12.67678"/>
  <path fill="#2f3134" d="M312.3944 145.02839v-13.65772l12.29949-12.60132v13.58226l-12.29949 12.67678"/>
  <path fill="#f2ba5c" d="M312.84714 134.76623l1.88643-2.03734-1.88643-1.96188v-7.69661l5.43291 5.73473 5.20653-5.73473v7.69661l-1.66005 1.88643 1.66005 1.81096v7.62116l-5.20653-5.58382-5.43291 5.96111"/>
  <path fill="#2f3134" d="M318.28005 129.33333l4.9047-5.35745v6.64022l-1.81096 2.03734 1.81096 1.96188v6.56476l-4.9047-5.20653-5.05562 5.50836v-6.64022l1.96188-2.18825-1.96188-2.1128v-6.56476l5.05562 5.35745z"/>
  <path fill="#312f2f" d="M17.206548 0h7.092959v1.358226H224.7888V0h7.01751c15.6196.603656 17.2042 14.185919 17.2042 14.185919V214.29793s.45274 3.99922-1.43369 5.9611c-3.62193 3.77286-16.22326 16.22326-19.01517 19.09063H18.187489S3.3224563 225.01283 1.813316 224.33371c-1.0563983-1.43368-1.8109685-3.77285-1.8109685-9.58304V14.185919C-.0731095 14.185919 1.5869449.679113 17.206548 0z"/>
  <path fill="#3f3f3f" d="M228.71257 238.82146c-.0755.22637-.0755.37729-.15092.45274H19.545715s-5.734733-96.35861 29.201866-101.1124c6.413847-.75457 14.487748.90548 32.748346 5.28199 18.260598 4.37651 66.930373 4.37651 85.190973 0 18.2606-4.37651 26.25904-5.28199 32.74835-5.28199 12.07312 0 19.54336 11.77129 24.07078 27.31544 8.0739 27.99455 6.56476 68.13769 5.20654 73.34422z"/>
  <path fill="#181515" d="M124.50643 150.08401c-24.674448 0-29.579154-1.20731-33.804747-1.81097-4.225593-.5282-2.942824 3.24465-2.942824 3.24465s2.112797 14.18592 2.414625 19.61883c.301828 5.4329 6.112018 4.67833 6.112018 4.67833h56.517308s5.81019.75457 6.11202-4.67833c.30182-5.43291 2.41462-19.61883 2.41462-19.61883s1.28277-3.84831-2.94282-3.24465c-4.2256.60366-9.20576 1.81097-33.8802 1.81097z"/>
  <ellipse cx="124.50643" cy="73.947876" fill="#30302f" ry="60.969273" rx="106.16802"/>
  <ellipse cx="124.50643" cy="73.872421" fill="#181515" ry="59.837418" rx="105.03616"/>
  <ellipse cx="124.50643" cy="72.438736" fill="#2c2929" ry="48.518864" rx="86.32283"/>
  <path fill="#241c1e" d="M124.43097 92.359391l-5.35745 5.58382h10.86581"/>
  <g fill="#929397">
    <path d="M141.10697118 166.76000978h-5.28199126v-1.2073123h3.62193686c-.22637105-.8300272-.4527421-1.43368333-.67911316-2.1127965-.52819913-1.58459737-.98094123-3.24465177-1.58459738-4.82924914-.15091403-.3772851-.52819912-.90548422-.8300272-.98094124-.60365614-.15091403-.75457018.4527421-.9054842.98094124-.8300272 2.4900816-1.6600544 4.98016318-2.4146246 7.47024478-.15091402.60365614-.4527421.75457018-1.05639824.75457018-1.58459738-.07545702-3.24465177 0-4.90470617 0s-2.71645265-1.05639825-2.79190967-2.79190967v-4.6028781c.07545702-1.7355114 1.05639826-2.79190966 2.71645265-2.79190966h4.4519641v1.2827693h-3.7728509c-1.7355114 0-2.1882535.4527421-2.1882535 2.26371054v3.4710229c0 1.2073123.6036562 1.8109685 1.7355114 1.8864255h2.8673667v-3.9992219h-2.4146246v-1.2827693h3.7728509v5.28199125h.2263711c.8300272-2.4146246 1.5845974-4.9047062 2.4146246-7.31933076.4527421-1.43368336 1.2827693-1.96188248 2.64099567-1.73551143.75457018.15091406 1.2827693.52819915 1.50914036 1.2827693.98094123 2.9428237 1.88642544 5.8856474 2.86736668 8.8284711v.15091407zm-33.1256309 0v-1.2827693h4.150136c1.13185526 0 2.03733947-.8300272 2.03733947-1.96188247.07545702-1.0563982-.8300272-1.9618824-1.96188247-2.0373394h-1.35822632c-.67911316-.075457-1.2073123-.7545702-1.2073123-1.5091403s.52819914-1.50914034 1.2073123-1.50914034c1.50914036-.075457 3.01828072 0 4.6028781 0v1.2827693H111.075078v.4527421c.45274212 0 .8300272.07545704 1.28276932.07545704 1.58459738 0 2.71645265.98094124 3.16919476 2.5655386.4527421 1.9618825-.90548422 3.99922197-2.79190967 4.074679-1.6600544-.07545703-3.1691947-.15091405-4.7537921-.15091405z"/>
    <path d="M107.98134028 165.02449837v-1.35822633h4.45196406v-.3772851c-.4527421 0-.90548422-.075457-1.35822633-.075457-1.2827693 0-2.2637105-.60365615-2.7919096-1.81096844-.6036561-1.2073123-.4527421-2.41462457.3018281-3.47102283.5281992-.75457018 1.2073123-1.2827693 2.1127965-1.2827693 1.5845974-.07545702 3.1691948 0 4.7537922 0v1.2827693h-4.225593c-1.43368333 0-2.33916755 1.35822633-1.88642544 2.64099563.22637106.75457018.98094124 1.35822633 1.88642546 1.35822633h1.2827693c.67911315.07545702 1.2073123.75457018 1.2827693 1.50914036 0 .7545701-.5281991 1.5091403-1.2073123 1.5091403-1.50914036.075457-3.0182807.075457-4.6028781.075457zm15.61960272-8.375729v1.2827693h-4.150136c-1.43368333 0-1.96188246.52819913-1.96188246 2.0373395v3.62193685c0 1.43368335.52819913 1.96188247 1.88642545 1.96188247h4.225593v1.2827693h-5.0556202c-1.2073123-.0754571-2.2637106-1.2073123-2.2637106-2.4146246-.075457-1.7355114-.075457-3.5464799 0-5.3574483 0-1.1318553.9809412-2.3391676 2.0373395-2.3391676 1.8109684-.1509141 3.5464798-.0754571 5.2819912-.0754571zm9.50758427 10.1112404c.90548422-2.79190966 1.7355114-5.5083623 2.64099563-8.14935793.07545702-.22637106.22637105-.3772851.4527421-.4527421.07545703 0 .3772851.15091402.45274212.30182806.75457018 2.18825352 1.43368334 4.37650704 2.18825352 6.56476057h-3.01828072c0-.30182808-.07545702-.60365615-.07545702-.90548422-.07545702 0-.07545702 0-.15091404-.07545702-.15091403.52819913-.3772851.98094124-.52819912 1.50914036-.4527421 1.3582263-.4527421 1.3582263-1.96188247 1.2073122zm2.64099563-3.24465176h1.05639825c-.15091403-.5281991-.30182807-.9809412-.4527421-1.3582263h-.15091404c-.150914.4527421-.301828.8300272-.4527421 1.3582264zm-7.0929597-.150914c-.37728508-.150914-.60365614-.150914-.9054842-.226371v-1.1318552h1.96188246v3.0182807c-.98094123 0-2.0373395.075457-3.01828072-.075457-.22637105 0-.67911316-.52819913-.67911316-.8300272-.07545702-1.5845974-.07545702-3.2446518 0-4.82924915 0-.52819912.30182807-.9054842.9054842-.9054842h4.5274211v1.2827693h-3.3201088c-.67911316 0-.9054842.22637105-.9054842.9054842.075457.7545702 0 1.50914037 0 2.26371055.075457.9054842.4527421 1.13185526 1.43368333.52819912z"/>
    <path d="M119.29989298 163.59081502c1.35822632.22637106 2.79190966 0 4.225593.15091404v1.2073123c-1.6600544 0-3.24465177.075457-4.82924915-.07545703-.22637105 0-.60365614-.52819913-.67911316-.90548422-.07545702-.6791131 0-1.3582263 0-2.0373394h4.6028781v1.2073123H119.450807c-.075457.2263711-.075457.3018281-.15091402.4527421zm4.30105002-5.20653424v1.2073123c-1.43368334.22637104-2.86736668-.15091405-4.30105002.15091403v.3018281h3.24465177v1.2827693h-4.52742108c0-.7545702-.07545702-1.5091403 0-2.2637105 0-.301828.4527421-.6791131.67911316-.6791131h4.90470617z"/>
  </g>
  <path fill="#241c1e" d="M106.39674 101.1124l-.90548.0755c0-.60366-.22637-.98094-.60366-.98094-.45274 0-.67911.45274-.67911 1.43368 0 .5282.0755.98094.22637 1.13186.15091.22637.30183.30183.5282.30183.37728 0 .60365-.30183.67911-.83003l.83003.0755c-.0755.52819-.22637.98094-.5282 1.20731-.30183.22637-.60366.45274-1.0564.45274-.5282 0-.90548-.22637-1.20731-.60366-.30183-.37728-.45274-.98094-.45274-1.73551 0-.67911.15091-1.20731.45274-1.660049.30183-.45274.75457-.67912 1.20731-.67912.90549.0755 1.43368.67912 1.50914 1.810969zm2.03734-1.660049l1.20731 4.451959h-.98094l-.22637-.90548h-1.20731l-.22637.90548h-.75457l1.20731-4.451959h.98094zm-.98094 2.716449h.83003l-.37729-1.5846-.45274 1.5846zm3.32011 0v1.81097h-.90549v-4.451959h1.66006c.30183 0 .5282.0754.75457.15091.15091.0755.37728.22637.45274.452739.15092.22637.15092.45274.15092.75457 0 .5282-.22638.90549-.67912 1.13186l.67912 1.96188h-.98095l-.60365-1.81097h-.5282zm0-1.96188v1.13185h.5282c.15091 0 .30183 0 .37728-.0754.0755-.0755.15092-.0755.22637-.22637.0755-.0755.0755-.22638.0755-.37729 0-.15091 0-.22637-.0755-.30183-.0755-.0754-.15091-.15091-.22637-.15091h-.90548zm5.05562-.754569v.905479h-.90549v3.62194h-.90548v-3.62194h-.98094v-.905479h2.79191zm1.20731 2.716449v1.81097h-.90548v-4.451959h1.66005c.30183 0 .5282.0754.75457.15091.15092.0755.37729.22637.45274.452739.15092.22637.15092.45274.15092.75457 0 .5282-.22637.90549-.67912 1.13186l.67912 1.96188h-.98094l-.60366-1.81097h-.5282zm0-1.96188v1.13185h.5282c.15091 0 .30183 0 .37729-.0754.0754 0 .15091-.0755.22637-.22637.0754-.0755.0754-.22638.0754-.37729 0-.15091 0-.22637-.0754-.30183-.0755-.0754-.15092-.15091-.22637-.15091h-.90549zm3.24465-.754569v4.451959h-.90548v-4.451959h.90548zm.30183 0h1.13186c.45274 0 .83002.0755 1.05639.22637.22638.15091.45275.377279.60366.754569.15091.30183.30183.75457.30183 1.28277 0 .67911-.15092 1.20731-.45274 1.5846-.30183.45274-.75457.67911-1.35823.67911h-1.28277v-4.527419zm.90549.830029v2.79191h.37728c.30183 0 .5282-.15092.75457-.45275.15091-.30182.22637-.60365.22637-.98094 0-.30183-.0755-.5282-.15091-.75457-.0755-.22637-.22637-.37728-.30183-.45274-.15091-.0755-.30183-.15091-.45274-.15091h-.45274zm5.50836 1.20731s0 1.43368-.5282 1.96188-.60366.5282-1.0564.5282c-.5282 0-.90548-.22637-1.13185-.60366-.30183-.45274-.37729-.98094-.37729-1.66005s.15091-1.28277.45274-1.735509c.30183-.45274.67912-.67912 1.20731-.67912.45275 0 .75457.15092 1.0564.45275.22637.301819.45274.679109.45274 1.131849l-.83002.15092c-.0755-.5282-.30183-.83003-.67912-.83003-.22637 0-.45274.15091-.52819.37728-.0755.22637-.15092.60366-.15092 1.13186 0 .45274.0755.83003.22637 1.0564.15092.22637.30183.37728.60366.37728.15091 0 .30183-.0754.45274-.15091.15091-.0755.15091-.30183.15091-.60366h-.67911v-.83002h1.35823zm2.86736-1.20731h-1.81096v.90548h1.43368v.83003h-1.43368v.98094h1.81096v.90548h-2.71645v-4.451959h2.71645v.830029zm3.54648-.830029v4.451959h-.90548v-4.451959h.90548zm3.09374 0v4.451959h-.75457l-1.50914-3.01828v3.09374h-.67911v-4.451959h.98094l1.28277 2.640989v-2.640989h.67911zm1.13186 2.791909v1.66005h-.90549v-4.451959h1.50914c.30183 0 .60366.0755.75457.15091.15092.0755.30183.22637.45275.452739.15091.22638.22637.45275.22637.83003 0 .22637 0 .45274-.0755.67912-.0755.22637-.15091.37728-.30183.52819-.15091.15092-.30183.22638-.37728.22638-.15092.0754-.30183.0754-.60366.0754h-.67911zm-.0755-.83003h.60366c.22637 0 .37728-.0755.45274-.15091.0755-.15092.15091-.22637.15091-.37729 0-.15091-.0754-.30183-.15091-.45274-.0755-.15091-.22637-.15091-.45274-.15091h-.60366v1.13185zm5.28199-1.961879v2.791909c0 .45274-.0755.75457-.15091.98094-.0755.22637-.22637.37728-.45274.5282-.22638.15091-.5282.22637-.90549.22637-.37728 0-.67911-.0755-.90548-.22637-.22637-.15092-.37729-.30183-.45275-.5282-.0754-.22637-.15091-.60366-.15091-1.0564v-2.791909h.98094v2.791909c0 .22637 0 .45274.0755.5282.0755.0755.0755.22637.22637.30183.0755.0755.22637.0755.37729.0755.15091 0 .30182 0 .37728-.0755l.22637-.22637s.0755-.30183.0755-.5282v-2.791909h.67911zm3.01828 0v.905479h-.90548v3.62194h-.90549v-3.62194h-.98094v-.905479h2.79191z"/>
  <path fill="#181515" d="M189.02218 85.341891H59.990677c-7.696616 0-14.035006-6.26294-14.035006-14.03501 0-7.69661 6.262933-14.035 14.035006-14.035H189.02218c7.69661 0 14.035 6.26293 14.035 14.035 0 7.69662-6.33839 14.03501-14.035 14.03501z"/>
  <path d="M55.312342 61.874751H193.77597v19.69429H55.312342z"/>
  <path fill="#732a46" d="M55.991455 62.553871H193.09686v18.2606H55.991455z"/>
  <path fill="#010102" d="M55.312342 71.382341H193.77597v.67911H55.312342z"/>
  <path fill="#181515" d="M30.336069 153.70594c4.30105-8.52664 11.167638-12.82769 19.241539-13.95954 6.413847-.75457 15.845974 2.71645 34.106572 7.09296 9.205757 2.18825 23.6935 3.24465 40.52042 3.24465 16.82691 0 31.31466-1.0564 40.52042-3.24465 18.2606-4.37651 27.69272-7.84753 34.10657-7.09296 8.0739 1.05639 15.69506 5.13107 19.99611 13.65772-4.52742-9.20576-10.86581-15.31778-19.54337-15.31778-6.4893 0-14.48775.90549-32.74834 5.28199-9.05485 2.18826-25.65539 3.24465-42.33139 3.24465-16.82692 0-33.729288-1.05639-42.859587-3.24465-18.260598-4.3765-26.334499-6.03656-32.748346-5.28199-8.149358 1.13186-13.959548 7.09296-18.260598 15.6196z"/>
  <path fill="#3f4040" d="M199.66162 193.39634c0 9.20575-10.63944 10.79035-10.63944 10.79035H59.839763s-10.63944-1.5846-10.63944-10.79035c0-9.20576 10.63944-10.79036 10.63944-10.79036H189.02218c.0755 0 10.63944 1.5846 10.63944 10.79036z"/>
  <path fill="#333" d="M190.68223 201.69661H58.63245c-3.621936 0-6.640217-2.94283-6.640217-6.64022v-3.24465c0-3.62194 2.942824-6.64022 6.640217-6.64022h131.97432c3.62194 0 6.64022 2.94282 6.64022 6.64022v3.24465c0 3.69739-2.94282 6.64022-6.56476 6.64022z"/>
  <path fill="#212020" d="M188.11669 199.13107H166.1587c-3.16919 0-5.73473-2.56554-5.73473-5.73473 0-3.1692 2.56554-5.73474 5.73473-5.73474h21.95799c3.1692 0 5.73474 2.56554 5.73474 5.73474 0 3.16919-2.56554 5.73473-5.73474 5.73473z"/>
  <path fill="#6177b3" d="M188.11669 196.94282H166.1587c-1.88643 0-3.47102-1.5846-3.47102-3.47103v-.15091c0-1.88643 1.58459-3.47102 3.47102-3.47102h21.95799c1.88643 0 3.47103 1.58459 3.47103 3.47102v.15091c-.0755 1.88643-1.5846 3.47103-3.47103 3.47103z"/>
  <circle cx="167.51692" cy="193.4718" r=".67911315" fill="#45537c"/>
  <circle cx="172.27071" cy="193.4718" r=".67911315" fill="#45537c"/>
  <circle cx="177.09996" cy="193.4718" r=".67911315" fill="#45537c"/>
  <circle cx="181.92921" cy="193.4718" r=".67911315" fill="#45537c"/>
  <circle cx="186.75847" cy="193.4718" r=".67911315" fill="#45537c"/>
  <path fill="#212020" d="M82.92961 199.13107H61.047075c-3.169195 0-5.734733-2.56554-5.734733-5.73473 0-3.1692 2.565538-5.73474 5.734733-5.73474H82.92961c3.169195 0 5.734734 2.56554 5.734734 5.73474.07546 3.16919-2.565539 5.73473-5.734734 5.73473z"/>
  <path fill="#cbcfd8" d="M83.005067 196.94282H60.971618c-1.886425 0-3.471023-1.5846-3.471023-3.47103v-.15091c0-1.88643 1.584598-3.47102 3.471023-3.47102H82.92961c1.886426 0 3.471023 1.58459 3.471023 3.47102v.15091c0 1.88643-1.50914 3.47103-3.395566 3.47103z"/>
  <path fill="#7d8189" d="M73.950225 189.92531c-1.358226 0-2.490081 1.5846-2.490081 3.47103 0 1.96188 1.131855 3.47102 2.490081 3.47102h-7.998444c1.358227 0 2.490082-1.5846 2.490082-3.47102 0-1.96189-1.131855-3.47103-2.490082-3.47103h7.998444z"/>
  <path fill="#6b6d72" d="M69.498261 189.92531h.75457v7.01751h-.75457z"/>
  <path fill="#929397" d="M65.951781 189.92531h-5.583819c-1.358226 0-2.490082 1.5846-2.490082 3.47103 0 1.96188 1.131856 3.47102 2.490082 3.47102h5.583819c1.358227 0 2.490082-1.5846 2.490082-3.47102 0-1.88643-1.131855-3.47103-2.490082-3.47103zm13.582263 0h-5.583819c-1.358226 0-2.490081 1.5846-2.490081 3.47103 0 1.96188 1.131855 3.47102 2.490081 3.47102h5.583819c1.358227 0 2.490082-1.5846 2.490082-3.47102 0-1.88643-1.131855-3.47103-2.490082-3.47103z"/>
  <path fill="#444546" d="M224.7888 1.358226v8.375729s-.0755 1.056398-1.50914 1.056398H25.733191L24.22405 9.733955V1.358226l100.28238.07546 100.28237-.07546z"/>
  <path fill="#282424" d="M25.129534 0h1.810969v9.507584h-1.810969zm2.79191 0h1.810969v9.507584h-1.810969zm2.79191 0h1.810968v9.507584h-1.810968zm2.791909 0h1.810969v9.507584h-1.810969zm2.79191 0h1.810969v9.507584h-1.810969zm2.79191 0h1.810968v9.507584h-1.810968zm2.791909 0h1.810969v9.507584h-1.810969zm2.79191 0h1.810969v9.507584h-1.810969zm2.867367 0h1.810968v9.507584h-1.810968zm2.791909 0h1.810969v9.507584h-1.810969zm2.867367 0h1.810969v9.507584h-1.810969zm2.79191 0h1.810968v9.507584h-1.810968zm2.791909 0h1.810969v9.507584h-1.810969zm2.79191 0h1.810969v9.507584h-1.810969zm2.79191 0h1.810968v9.507584h-1.810968zm2.791909 0h1.810969v9.507584h-1.810969zm2.867367 0h1.810969v9.507584H70.02646zm2.79191 0h1.810968v9.507584H72.81837zm2.867367 0h1.810968v9.507584h-1.810968zm2.791909 0h1.810969v9.507584h-1.810969zm2.716453 0h1.810968v9.507584h-1.810968zm2.79191 0h1.810968v9.507584h-1.810968zm2.867366 0h1.810969v9.507584h-1.810969zm2.79191 0h1.810968v9.507584h-1.810968zm2.79191 0h1.810968v9.507584h-1.810968zm2.791909 0h1.810969v9.507584h-1.810969zm2.867367 0h1.81097v9.507584h-1.81097zm2.791909 0h1.81097v9.507584h-1.81097zm2.79191 0h1.81097v9.507584h-1.81097zm2.79191 0h1.81097v9.507584h-1.81097zm2.79191 0h1.81097v9.507584h-1.81097zm2.79191 0h1.81097v9.507584h-1.81097zm3.01828 0h1.81097v9.507584h-1.81097zm2.86737 0h1.81096v9.507584h-1.81096zm2.79191 0h1.81096v9.507584h-1.81096zm2.71645 0h1.81097v9.507584h-1.81097zm2.79191 0h1.81097v9.507584h-1.81097zm2.86736 0h1.81097v9.507584h-1.81097zm2.79191 0h1.81097v9.507584h-1.81097zm2.79191 0h1.81097v9.507584h-1.81097zm2.86737 0h1.81097v9.507584h-1.81097zm2.79191 0h1.81097v9.507584h-1.81097zm2.79191 0h1.81097v9.507584h-1.81097zm2.79191 0h1.81097v9.507584h-1.81097zm2.79191 0h1.81097v9.507584h-1.81097zm2.79191 0h1.81097v9.507584h-1.81097zm2.79191 0h1.81097v9.507584h-1.81097zm3.09374 0h1.81096v9.507584h-1.81096zm2.86736 0h1.81097v9.507584h-1.81097zm2.79191 0h1.81097v9.507584h-1.81097zm2.71646 0h1.81096v9.507584h-1.81096zm2.7919 0h1.81097v9.507584h-1.81097zm2.86737 0h1.81097v9.507584h-1.81097zm2.79191 0h1.81097v9.507584h-1.81097zm2.86737 0h1.81097v9.507584h-1.81097zm2.79191 0h1.81097v9.507584h-1.81097zm2.79191 0h1.81097v9.507584h-1.81097zm2.79191 0h1.81097v9.507584h-1.81097zm2.79191 0h1.81096v9.507584h-1.81096zm2.79191 0h1.81096v9.507584h-1.81096zm2.79191 0h1.81096v9.507584h-1.81096zm2.86736 0h1.81097v9.507584h-1.81097zm2.94283 0h1.81096v9.507584h-1.81096zm2.79191 0h1.81096v9.507584h-1.81096zm2.79191 0h1.81096v9.507584h-1.81096zm2.79191 0h1.81096v9.507584h-1.81096zm2.7919 0h1.81097v9.507584h-1.81097zm2.86737 0h1.81097v9.507584h-1.81097zm2.79191 0h1.81097v9.507584h-1.81097zm2.79191 0h1.81097v9.507584h-1.81097zm2.79191 0h1.81097v9.507584h-1.81097z"/>
  <path fill="#82888b" d="M173.25166 208.78957h-.5282l-.22637-.67912c0-.0754-.0755-.0754-.0755-.15091 0-.0755-.0754-.0755-.0754-.0755-.0755 0-.0755-.0754-.15092-.0754h-.67911v1.05639h-.45274v-2.56553h1.50914c.0754 0 .0754 0 .15091.0754.0755 0 .0755.0755.15091.0755.0755 0 .0755.0755.0755.15091 0 .0755.0755.0755.0755.15092 0 .0755 0 .0755.0755.15091v.15092c0 .15091-.0755.30182-.15092.37728-.0755.0755-.15091.22637-.30183.22637.0755.0755.22637.22637.30183.37729l.30183.75457zm-1.73551-1.50914h.90548c.0755 0 .0755 0 .15092-.0755.0754 0 .0754-.0755.0754-.0755v-.15091c0-.15091 0-.22637-.0754-.22637-.0755-.0755-.15092-.0755-.30183-.0755h-.67911v.60366zm4.15013 1.50914h-1.96188v-2.56554h1.88643v.45274h-1.43369v.60366h1.35823v.45274h-1.35823v.67911h1.50914v.37729zm1.50914.0754c-.15091 0-.37728 0-.45274-.0754-.15091-.0755-.22637-.15092-.37728-.22637-.0755-.0755-.15092-.22637-.22637-.30183-.0755-.15092-.0755-.22637-.0755-.37729h.45274c0 .0755 0 .15092.0755.22637 0 .0755.0755.15092.15091.15092.0755.0755.15092.0755.22637.0755h.45275c.0754 0 .15091-.0755.15091-.0755.0755 0 .0755-.0755.0755-.0755v-.30183s-.0755-.0754-.15092-.0754c-.0754 0-.15091-.0755-.22637-.0755-.0755 0-.22637-.0755-.30183-.0755-.15091 0-.30182-.0755-.37728-.15091-.0755-.0755-.22637-.0755-.22637-.15092-.0755-.0754-.15092-.15091-.15092-.22637 0-.0754-.0754-.15091-.0754-.30182 0-.0755 0-.22638.0754-.30183.0755-.0755.0755-.15092.22637-.22637.0755-.0755.15092-.15092.30183-.15092.15092-.0755.22637-.0755.37729-.0755.15091 0 .30183 0 .37728.0755.15092.0755.22637.0755.30183.15092.0755.0754.15091.15091.22637.30182.0755.0755.0755.22638.0755.37729h-.45274c0-.30183-.22637-.45274-.5282-.45274-.15092 0-.30183 0-.37729.0754-.0754.0755-.15091.15092-.15091.22638v.0755l.0755.0755c.0754 0 .0754.0755.15091.0755.0755 0 .15091.0754.22637.0754.0755 0 .15091 0 .22637.0755.0755 0 .15092.0755.22637.0755.0755 0 .15092.0754.22637.0754.0755.0755.15092.0755.15092.15092.0755.0755.0755.15091.15091.22637 0 .0755.0755.15091.0755.30183 0 .15091 0 .22637-.0755.30183l-.22637.22637c-.0755.0754-.22637.15091-.30183.15091 0 .0755-.15091.15091-.30183.15091zm3.47103-.0754h-1.96188v-2.56554h1.88642v.45274h-1.43368v.60366h1.35822v.45274h-1.35822v.67911h1.50914v.37729zm2.41462-2.1128h-.83003v2.1128h-.45274v-2.1128h-.83002v-.45274h2.11279v.45274zm-118.995714-.60365h1.358226c.07546 0 .150914 0 .226371.0755.07546 0 .150914.0755.226371.0755.07546.0755.150914.0755.150914.15091.07546.0755.07546.15092.150914.22637 0 .0755.07546.15092.07546.30183 0 .30183-.07546.5282-.301828.67912-.150914.15091-.452742.22637-.830027.22637h-.603656v1.05639h-.452742v-2.7919zm.528199 1.20731h.830027c.07546 0 .150914-.0755.150914-.0755.07546 0 .07546-.0755.07546-.15091v-.15092c0-.0755 0-.15091-.07546-.22637 0-.0755-.07546-.0755-.150914-.15091-.07546 0-.07546-.0755-.150914-.0755h-.75457v.83003zm3.320109-1.28277c.226371 0 .377285 0 .528199.0755s.301828.15091.452742.30182c.150914.15092.226371.30183.301828.45275.07546.15091.07546.37728.07546.60365 0 .22637 0 .37729-.07546.60366-.07546.15091-.150914.30183-.301828.45274s-.226371.22637-.452742.30183c-.226371.0754-.377285.0754-.528199.0754-.226371 0-.377285 0-.528199-.0754-.150914-.0755-.301829-.15092-.452743-.30183s-.226371-.30183-.301828-.45274c-.07546-.15092-.07546-.37729-.07546-.60366 0-.22637 0-.37728.07546-.60365.07546-.15092.150914-.30183.301828-.45275.150914-.15091.226371-.22637.452743-.30182.150914 0 .301828-.0755.528199-.0755zm0 2.41462c.150914 0 .226371 0 .301828-.0755.07546-.0755.150914-.0755.226371-.22638.07546-.0754.150914-.15091.150914-.30182.07546-.15092.07546-.22637.07546-.37729 0-.15091 0-.30183-.07546-.37728-.07546-.15092-.07546-.22637-.150914-.30183-.07546-.0755-.150914-.15092-.226371-.15092-.07546-.0754-.226371-.0754-.301828-.0754-.150914 0-.226371 0-.301828.0754-.07546.0755-.150914.0755-.226371.22638-.07546.0755-.150914.15091-.150914.30182-.07546.15092-.07546.22637-.07546.37729 0 .15091 0 .30183.07546.37728.07546.0755.07546.22637.150914.30183l.226371.22637h.301828zm5.206534-2.33916l-.75457 2.7919h-.452742l-.5282-2.03733-.528199 2.03733h-.452742l-.75457-2.7919h.452742l.452742 1.88642.528199-1.88642h.5282l.528199 1.88642.452742-1.88642h.528199zm2.490082 2.71645h-2.112797v-2.79191h2.037339v.45274h-1.50914v.60366h1.433683v.45274h-1.433683v.67911h1.584598v.60366zm2.942823 0h-.528199l-.226371-.75457c0-.0755-.07546-.0755-.07546-.15092 0-.0754-.07546-.0754-.07546-.0754-.07546 0-.07546-.0755-.150914-.0755h-.679113v1.13185h-.679113v-2.7919h1.660054c.07546 0 .150914 0 .150914.0755.07546 0 .07546.0755.150914.0755l.150914.15091c0 .0755.07546.0755.07546.15092 0 .0754.07546.0754.07546.15091v.15092c0 .15091-.07546.30182-.150914.45274-.07546.15091-.226371.22637-.301828.30183.150914.0755.226371.22637.301828.45274l.301828.75457zm-1.886425-1.5846h.905484c.07546 0 .150914 0 .150914-.0755.07546 0 .07546-.0754.07546-.15091v-.15091c0-.15092-.07546-.22638-.150914-.30183-.07546-.0755-.226371-.0755-.377285-.0755h-.75457v.75457z"/>
  <path fill="#929397" d="M53.803201 222.5982v-1.35822c1.358227-.30183 2.263711-.75457 2.640996-1.35823h1.358226v6.64022h-1.735511v-4.98017c-1.056398.5282-1.735512.83003-2.263711 1.0564zm19.392454-2.56554h1.810968v6.56476h-1.810968zm7.998444 0v1.28277h-1.886426v5.20654h-1.886425v-5.20654h-1.961883v-1.28277m-9.130299.67912c0-.37729.301828-.67912.679113-.67912h2.942824c.679113 0 1.131855.0755 1.433683.22637.301829.15092.603657.30183.830028.60366.226371.22637.301828.5282.301828.90548 0 .75457-.452742 1.20732-1.433684 1.43369.5282.0755.980942.30183 1.207313.60365.301828.30183.377285.60366.377285.98095 0 .45274-.226371.90548-.679113 1.28276-.452742.37729-1.131856.5282-2.188254.5282h-2.942824c-.377285 0-.679113-.30182-.679113-.67911v-5.20653zm1.810969.98094c0 .15091.301828.22637.679113.22637h.679113c.528199 0 .830027 0 .980941-.0755s.226371-.15091.226371-.15091c0-.0755-.07546-.0755-.150914-.15092-.07546-.0754-.226371-.0754-.377285-.0754h-1.282769c-.452742 0-.75457.0754-.75457.22637zm.452742 2.56554h.980941c.452742 0 .830027 0 .980941-.0755.226371-.0755.301828-.15091.301828-.22637 0-.0755-.07546-.15092-.301828-.15092-.226371-.0754-.528199-.0754-.980941-.0754h-.75457c-.377285 0-.679113.0754-.679113.22637v2.49008h.452742v-2.18825zm-7.922987-2.56554h4.602878v-1.81097h-5.281991c-.75457 0-1.358227.60366-1.358227 1.35823v3.99922c0 .75457.603657 1.35822 1.358227 1.35822h3.923765c.75457 0 1.358226-.60365 1.358226-1.35822v-1.66006c0-.67911-.528199-1.20731-1.207312-1.43368h-2.942824v1.5846h2.188254v.5282H60.66979v-2.56554zm97.03772 3.69739l3.01828-4.52742c.15092-.22637.30183-.37728.45275-.37728h2.11279v.60365l.15092-.22637c.15091-.22637.30183-.37728.45274-.37728h2.56554v4.9047h-1.73551v-3.84831l-2.56554 3.84831h-1.73551l2.56554-3.84831h-.83003c-.0755 0-.22637.0755-.30183.15092l-2.41462 3.77285h-1.73552v-.0755zm10.94127-1.96188v.90548h3.99922v1.0564h-5.73473v-3.24465c0-.0755 0-.15091.0755-.22637l.75457-1.28277c.0754-.0755.15091-.15091.30183-.15091h4.52742v1.05639h-3.39557c-.0755 0-.15091.0755-.22637.15092l-.37729.75457h3.99923l-.60366 1.0564h-3.32011zm6.26293.90548h2.86737v-.90548h-1.13185l.60365-1.0564h2.26371v2.71645c0 .15092-.0754.22637-.30183.22637h-5.73473c-.22637 0-.30183-.0754-.30183-.22637v-2.94282c0-.0755 0-.15091.0755-.22637l.75457-1.28277c.0755-.0755.15091-.15091.30183-.15091h4.82925v1.05639h-3.6974c-.0754 0-.15091.0755-.22637.15092l-.37728.75457v1.88642zm12.2995 1.0564h-1.96188l-.75457-1.0564h-2.03734l-.60366-.90548v1.96188h-1.73551v-4.9047h3.24465c.15091 0 .30183.15091.45274.37728l3.39557 4.52742zm-3.54648-2.11279l-1.28277-1.66006c-.0755-.0755-.22637-.15091-.30183-.15091h-.30183v1.81097h1.88643zm27.61727-4.15014h-7.09296c1.58459-.90549 3.77285-2.03734 4.75379-3.24465 1.88642-2.33917-1.20731-4.07468-3.69739-3.24465-3.47103 1.13185-4.98017 2.86736-6.94205 4.60287h-4.15014c2.94283-5.65927 6.64022-8.67755 12.22404-10.18669 6.03656-1.66006 8.82847 2.26371 7.69662 6.86658-.67912 2.56554-.90549 2.94283-2.79191 5.20654zm-9.43213 9.20576c0-.15092.15091-.45275.22637-.67912.15091-.30183.37729-.5282.5282-.67911h-7.16842c-.5282.98094-1.0564 1.50914-1.43368 3.32011-.37729 1.96188.75457 2.86736 1.43368 2.86736h17.12875l2.49008-4.82924h-13.20498z"/>
  <path fill="#8c8e92" d="M190.00312 224.48463h1.81097c.0755 0 .15091-.0755.22637-.15092l.5282-1.20731v-.30183l-.5282-1.20731c-.0755-.0755-.0755-.15091-.22637-.15091h-1.81097v3.01828zm-1.5846-3.99922h4.37651c.15091 0 .22637.0754.30183.30182l1.05639 2.1128v.30183l-1.05639 2.11279c-.0755.15092-.22638.30183-.30183.30183h-4.37651v-5.13107zm6.33839 0h4.22559c.15092 0 .22637.0754.30183.30182l.67911 1.43369v.30182l-1.05639 1.20732 1.05639 1.88642h-1.58459l-1.50914-2.49008h.75457c.0754 0 .15091 0 .22637-.0755l.5282-.60365-.22637-.67912c-.0755-.0754-.0755-.15091-.22638-.15091h-1.66005v3.99922h-1.5846v-5.13107h.0755zm7.39479 5.05562h-1.5846v-5.05562h1.5846v5.05562zm2.11279-3.39557l1.5846 2.33917 1.5846-2.33917v-1.66005h1.5846v1.88642c0 .15091 0 .30183-.0755.37729l-1.81097 2.79191h-2.64099l-1.81097-2.79191c-.0755-.0755-.0755-.22638-.0755-.37729v-1.88642h1.5846v1.66005h.0754zm6.79114 1.35823v.90548h3.69739v1.0564h-5.28199v-3.32011c0-.0755 0-.15091.0755-.30183l.75457-1.35822c.0754-.0755.15091-.15092.22637-.15092h4.22559v1.0564h-3.1692c-.0755 0-.15091.0755-.22637.15091l-.30182.83003h3.69739l-.5282 1.0564h-3.16919v.0755z"/>
  <path fill="#929397" d="M54.633228 207.43134c0-.30183.07546-.5282.150915-.75457.07546-.15091.150914-.30183.301828-.37728.150914-.0755.226371-.22637.377285-.30183.150914-.0755.377285-.15092.679113-.15092.452742 0 .830027.15092 1.056398.37729.301828.30183.377285.67911.377285 1.13185 0 .45275-.150914.83003-.377285 1.13186-.226371.30183-.603656.37728-1.056398.37728s-.830027-.15091-1.056398-.37728c-.301828-.15091-.452743-.5282-.452743-1.0564zm.603657 0c0 .30183.07546.60366.226371.75457.150914.15092.377285.22637.603656.22637s.452742-.0755.603656-.22637c.150914-.15091.226371-.45274.226371-.75457 0-.37728-.07546-.60365-.226371-.75457-.150914-.15091-.377285-.22637-.603656-.22637s-.452742.0755-.603656.22637c-.150914.15092-.226371.37729-.226371.75457zm2.791909 1.50914v-3.01828h.603656l1.207313 2.03734v-2.03734h.528199v3.01828h-.603656l-1.207313-1.96188v1.96188h-.528199zm24.29716-1.50914c0-.30183.07546-.5282.150914-.75457.07546-.15091.150914-.30183.301828-.37728.150914-.0755.226371-.22637.377285-.30183.150914-.0755.377285-.15092.679113-.15092.452743 0 .830028.15092 1.056399.37729.301828.30183.377285.67911.377285 1.13185 0 .45275-.150914.83003-.377285 1.13186-.226371.30183-.603656.37728-1.056399.37728-.452742 0-.830027-.15091-1.056398-.37728-.301828-.22637-.452742-.60366-.452742-1.0564zm.679113 0c0 .30183.07546.60366.226371.75457.150914.15092.377285.22637.603656.22637.226372 0 .452743-.0755.603657-.22637.150914-.15091.226371-.45274.226371-.75457 0-.37728-.07546-.60365-.226371-.75457-.150914-.15091-.377285-.22637-.603657-.22637-.226371 0-.452742.0755-.603656.22637-.150914.15092-.226371.37729-.226371.75457zm2.716453 1.50914v-3.01828h2.037339v.5282h-1.433683v.67911h1.282769v.5282h-1.282769v1.28277h-.603656zm2.565539 0v-3.01828h2.037339v.5282h-1.433683v.67911h1.282769v.5282h-1.282769v1.28277h-.603656z"/>
  <path fill="#929397" d="M59.462478 210.60054h-3.697394c-1.584598 0-2.867367-1.28277-2.867367-2.86737v-.67911c0-1.5846 1.282769-2.86737 2.867367-2.86737h3.697394c1.584597 0 2.867366 1.28277 2.867366 2.86737v.67911c0 1.5846-1.282769 2.86737-2.867366 2.86737zm-3.697394-5.65928c-1.207313 0-2.112797.98094-2.112797 2.1128v.67911c0 1.20731.980941 2.1128 2.112797 2.1128h3.697394c1.207312 0 2.112796-.98095 2.112796-2.1128v-.67911c0-1.20732-.980941-2.1128-2.112796-2.1128h-3.697394zm33.201088 5.65928H83.68418c-1.584597 0-2.867366-1.28277-2.867366-2.86737v-.67911c0-1.5846 1.282769-2.86737 2.867366-2.86737h5.281992c1.584597 0 2.867366 1.28277 2.867366 2.86737v.67911c0 1.5846-1.282769 2.86737-2.867366 2.86737zm-5.206535-5.65928c-1.207312 0-2.112796.98094-2.112796 2.1128v.67911c0 1.20731.980941 2.1128 2.112796 2.1128h5.281992c1.207312 0 2.112796-.98095 2.112796-2.1128v-.67911c0-1.20732-.980941-2.1128-2.112796-2.1128h-5.281992z"/>
  <path fill="#171819" d="M124.50643 33.880201c12.29949 0 23.46713.30183 33.42746.75457 16.60054.75457 29.6546 1.88643 38.55853 2.86737 17.2042 1.81097 29.65461.37728 36.44574 17.65694 3.77285 9.58304 4.52742 40.44496 2.86737 45.274209-1.66006 4.82925-2.56554 8.52664-8.90393 10.7149-6.33839 2.26371-37.87942 10.11124-45.57604 13.88409-7.69662 3.84831-25.65539 11.16764-30.78646 12.82769l-5.13108 1.66006s-8.6021 3.16919-20.97705 3.16919c-12.37495 0-20.97705-3.16919-20.97705-3.16919l-5.131078-1.66006c-5.131077-1.66005-23.165305-8.97938-30.786463-12.82769-7.696616-3.84831-39.23765-11.62038-45.576039-13.88409-6.33839-2.26371-7.243874-5.96111-8.903928-10.7149-1.660055-4.753789-.905485-35.691169 2.867366-45.274209 6.791132-17.27966 19.24154-15.84597 36.44574-17.65694 8.903928-.90549 21.957992-2.1128 38.558536-2.86737 10.035786-.45274 21.278876-.75457 33.578376-.75457"/>
  <path fill="#171819" d="M124.58188 42.935041c33.50292-.37728 81.41813 1.96188 87.83197 6.79113 12.2995 6.86659 11.99767 16.90238 12.67678 24.59899-.22637 3.92377-1.35823 11.09218-6.33839 17.80786-1.50914 2.11279-4.22559 4.52742-5.73473 5.81019-18.71334 13.204979-46.02878 35.992999-88.43563 38.332159h-.0755c-42.406847-2.33916-69.64683-25.12718-88.435628-38.332159-1.50914-1.35823-4.225593-3.77285-5.734733-5.88565-4.980163-6.79113-6.036562-13.95955-6.33839-17.80786.679113-7.69661.377285-17.80785 12.601322-24.59898 6.489304-4.82925 54.329053-7.16842 87.831969-6.79113"/>
  <path fill="#282827" d="M124.7328 95.604041h-.22637l67.53403-1.43368c7.0175-.45274 12.29949-.90549 17.2042-7.5457 2.11279-2.79191 3.09374-6.26294 3.09374-9.73396v-2.49008c0-13.95955-7.09296-19.24154-18.93972-21.50525 0 0-28.22092-3.09374-68.89225-3.09374-40.671336 0-68.89226 3.01828-68.89226 3.01828-11.846752 2.26371-18.939712 7.5457-18.939712 21.50525v2.49008c0 3.47103 1.056398 6.94205 3.093738 9.73396 4.904706 6.64022 10.11124 7.0175 17.2042 7.5457l67.534034 1.43368h-.22637"/>
  <path fill="#1d1d1d" d="M124.35551 53.725401c36.14391 0 60.66744 3.01828 60.66744 3.01828 10.48853 1.73551 17.35512 5.05562 17.35512 15.6196v5.13108c0 6.03656-4.90471 10.94126-10.94127 10.94126h-67.08129.22637-67.005828c-6.036561 0-10.941267-4.9047-10.941267-10.94126v-5.13108c0-10.56398 6.866588-13.88409 17.355114-15.6196 0 0 24.523531-3.01828 60.667441-3.01828"/>
  <path fill="#1b1c1c" d="M55.236885 62.931151H193.77597v22.78802H55.236885z"/>
  <path fill="#414446" d="M55.387799 63.157521H193.5496v22.48619H55.387799z"/>
  <path fill="#1b1d1e" d="M124.35551 85.568261h47.61338c9.96033 0 18.56243-6.56476 21.58071-9.05484v-13.3559h-69.19409.30183-69.269541v13.43135c3.01828 2.49008 11.62038 9.05484 21.580707 9.05484h47.613374"/>
  <path fill="#46494b" d="M55.387799 68.062231h9.35667c.301828 0 .603656-.30183.603656-.60366v-4.30105h-9.960326v4.90471zm138.161801 0h-9.35667c-.30183 0-.60366-.30183-.60366-.60366v-4.30105h9.96033v4.90471z"/>
  <path fill="#45494a" d="M124.35551 64.817581h56.36639c.30183 0 .60366.30183.60366.60365v3.39557c0 .30183.22637.60366.60366.60366h8.67755v7.09296c-5.50836 4.52742-11.77129 7.99844-21.88253 7.99844H80.137701c-10.111241 0-16.374173-3.47102-21.882536-7.99844v-7.09296h8.677557c.301829 0 .603657-.30183.603657-.60366v-3.39557c0-.30182.301828-.60365.603656-.60365h56.215475z"/>
  <path d="M55.387799 74.325161H193.5496v.45274H55.387799z"/>
  <path fill="#1c1e1f" d="M85.796977 74.777901h77.117073v.90549H85.796977z"/>
  <path fill="#202223" d="M85.796977 75.683391h77.117073v.90548H85.796977z"/>
  <path fill="#242627" d="M85.796977 76.588871h77.117073v.90549H85.796977z"/>
  <path fill="#292c2d" d="M85.796977 77.494361h77.117073v.90548H85.796977z"/>
  <path fill="#2f3133" d="M85.796977 78.399841h77.117073v.90548H85.796977z"/>
  <path fill="#333637" d="M85.796977 79.305321h77.117073v.90549H85.796977z"/>
  <path fill="#373a3c" d="M85.796977 80.210811h77.117073v.90548H85.796977z"/>
  <path fill="#3b3e3f" d="M85.796977 81.116291h77.117073v.90549H85.796977z"/>
  <path fill="#3f4244" d="M85.796977 82.021781h77.117073v.90548H85.796977z"/>
  <path fill="#1b1d1e" d="M88.136144 74.777901h-2.339167v8.14936s.603656-6.86659 2.339167-8.14936zm72.363276 0h2.33917v8.14936c.0755 0-.5282-6.86659-2.33917-8.14936z"/>
  <path fill="#1c1e1f" d="M85.796977 73.419681h77.117073v.90548H85.796977z"/>
  <path fill="#202223" d="M85.796977 72.514191h77.117073v.90549H85.796977z"/>
  <path fill="#242627" d="M85.796977 71.608711h77.117073v.90548H85.796977z"/>
  <path fill="#292c2d" d="M85.796977 70.703221h77.117073v.90549H85.796977z"/>
  <path fill="#2f3133" d="M85.796977 69.797741h77.117073v.90548H85.796977z"/>
  <path fill="#333637" d="M85.796977 68.892261h77.117073v.90548H85.796977z"/>
  <path fill="#373a3c" d="M85.796977 67.986771h77.117073v.90549H85.796977z"/>
  <path fill="#3b3e3f" d="M85.796977 67.081291h77.117073v.90548H85.796977z"/>
  <path fill="#3f4244" d="M85.796977 66.175801h77.117073v.90549H85.796977z"/>
  <path fill="#1b1d1e" d="M88.136144 74.325161h-2.339167v-8.45118s.603656 7.16841 2.339167 8.45118zm72.363276 0h2.33917v-8.45118c.0755 0-.5282 7.16841-2.33917 8.45118z"/>
  <path fill="#0e1214" d="M69.724632 73.193311h.452742c0 .15091-.07546.37728-.226371.37728-.150914-.0755-.226371-.22637-.226371-.37728z"/>
  <path fill="#5e5e60" d="M69.724632 66.251261h.452742c0-.15091-.07546-.37728-.226371-.37728-.150914 0-.226371.15091-.226371.37728z"/>
  <path fill="#393d3f" d="M69.724632 66.251261h.452742v6.94205h-.452742z"/>
  <path fill="#0e1214" d="M73.874768 73.193311h.452742c0 .15091-.07546.37728-.226371.37728-.150914-.0755-.226371-.22637-.226371-.37728z"/>
  <path fill="#5e5e60" d="M73.874768 66.251261h.452742c0-.15091-.07546-.37728-.226371-.37728-.150914 0-.226371.15091-.226371.37728z"/>
  <path fill="#393d3f" d="M73.874768 66.251261h.452742v6.94205h-.452742z"/>
  <path fill="#0e1214" d="M73.874768 82.927261h.452742c0 .15092-.07546.37729-.226371.37729-.150914 0-.226371-.15092-.226371-.37729z"/>
  <path fill="#5e5e60" d="M73.874768 75.985221h.452742c0-.15092-.07546-.37729-.226371-.37729-.150914.0755-.226371.22637-.226371.37729z"/>
  <path fill="#393d3f" d="M73.874768 75.985221h.452742v6.94204h-.452742z"/>
  <path fill="#0e1214" d="M69.724632 81.644491h.452742c0 .15092-.07546.37729-.226371.37729-.150914-.0755-.226371-.22637-.226371-.37729z"/>
  <path fill="#5e5e60" d="M69.724632 75.985221h.452742c0-.15092-.07546-.37729-.226371-.37729-.150914.0755-.226371.22637-.226371.37729z"/>
  <path fill="#393d3f" d="M69.724632 75.985221h.452742v5.65927h-.452742z"/>
  <path fill="#0e1214" d="M178.98639 73.193311h-.45274c0 .15091.0755.37728.22637.37728.0755-.0755.22637-.22637.22637-.37728z"/>
  <path fill="#5e5e60" d="M178.98639 66.251261h-.45274c0-.15091.0755-.37728.22637-.37728.0755 0 .22637.15091.22637.37728z"/>
  <path fill="#393d3f" d="M178.53365 66.251261h.45274v6.94205h-.45274z"/>
  <path fill="#0e1214" d="M174.83626 73.193311h-.45274c0 .15091.0754.37728.22637.37728.0754-.0755.22637-.22637.22637-.37728z"/>
  <path fill="#5e5e60" d="M174.83626 66.251261h-.45274c0-.15091.0754-.37728.22637-.37728.0754 0 .22637.15091.22637.37728z"/>
  <path fill="#393d3f" d="M174.38352 66.251261h.45274v6.94205h-.45274z"/>
  <path fill="#0e1214" d="M174.83626 82.927261h-.45274c0 .15092.0754.37729.22637.37729.0754 0 .22637-.15092.22637-.37729z"/>
  <path fill="#5e5e60" d="M174.83626 75.985221h-.45274c0-.15092.0754-.37729.22637-.37729.0754.0755.22637.22637.22637.37729z"/>
  <path fill="#393d3f" d="M174.38352 75.985221h.45274v6.94204h-.45274z"/>
  <path fill="#0e1214" d="M178.98639 81.644491h-.45274c0 .15092.0755.37729.22637.37729.0755-.0755.22637-.22637.22637-.37729z"/>
  <path fill="#5e5e60" d="M178.98639 75.985221h-.45274c0-.15092.0755-.37729.22637-.37729.0755.0755.22637.22637.22637.37729z"/>
  <path fill="#393d3f" d="M178.53365 75.985221h.45274v5.65927h-.45274z"/>
  <path d="M68.215492 62.931151h5.357448v1.66006h-5.357448zm.07546 21.05251v-1.43368c1.584597.60365 3.320109 1.05639 5.206534 1.43368v1.35823c-1.810968-.30183-3.54648-.75457-5.206534-1.35823m107.073508-21.05251h5.35744v1.66006h-5.35744zm5.28199 21.05251v-1.43368c-1.5846.60365-3.32011 1.05639-5.20654 1.43368v1.35823c1.81097-.30183 3.54648-.75457 5.20654-1.35823"/>
  <path fill="#2a2c2e" d="M191.4368 88.209251H57.576052c-6.112018 0-11.092181-4.98016-11.092181-11.01672v-5.13108c0-10.7149 6.942045-14.035 17.430571-15.69506.226371 0 24.825359-3.01828 60.441068-3.01828h.22637c35.61572 0 60.2147 3.01828 60.44107 3.01828 10.48853 1.66006 17.43058 4.98016 17.43058 15.69506v5.13108c.0754 6.03656-4.90471 11.01672-11.01673 11.01672zm-66.85492-.22637h66.85492c5.96111 0 10.79035-4.82925 10.79035-10.86581v-5.13108c0-10.56398-6.86658-13.80863-17.27965-15.46868-.22637 0-24.90082-3.01829-60.51653-3.01829-35.615712 0-60.290157 3.01829-60.516528 3.01829-10.262155 1.66005-17.2042 4.9047-17.2042 15.46868v5.13108c0 5.96111 4.829249 10.86581 10.790353 10.86581h67.081285z"/>
  <path fill="#3f3f3f" d="M124.7328 95.679501h-.5282l-67.307661-1.43369c-6.866589-.45274-12.299494-.83002-17.279657-7.62115-2.03734-2.71646-3.169195-6.18748-3.169195-9.80942v-2.49008c0-6.71567 1.660055-11.69584 5.05562-15.24232 3.018281-3.16919 7.470245-5.13107 13.959549-6.41384.301828 0 28.673667-3.09374 68.892254-3.09374 40.21859 0 68.59043 3.09374 68.89226 3.09374 6.4893 1.20731 10.94127 3.24465 13.95955 6.41384 3.39556 3.47103 5.05562 8.45119 5.05562 15.24232v2.49008c0 3.54648-1.13186 7.09296-3.1692 9.80942-4.98016 6.71567-10.41307 7.09296-17.27965 7.62115l-67.08129 1.43369zm-.22637-45.80241c-40.218593 0-68.590432 3.09374-68.89226 3.09374-13.204978 2.49008-18.864255 8.90392-18.864255 21.35433v2.49008c0 3.54648 1.131855 6.94205 3.093738 9.6585 4.904706 6.64022 10.262154 7.0175 17.053286 7.47025l67.534031 1.43368 67.53403-1.43368c6.79113-.45275 12.14858-.83003 17.05329-7.47025 1.96188-2.71645 3.09373-6.11202 3.09373-9.6585v-2.49008c0-12.45041-5.65927-18.86425-18.86425-21.35433-.15091-.0755-28.52275-3.09374-68.74134-3.09374z"/>
  <path fill="#2a2c2e" d="M124.43097 136.42629c-38.332165-2.1128-63.987551-20.67523-82.776349-34.18203-2.037339-1.43369-3.923765-2.791909-5.734733-4.074679-1.810968-1.5846-4.30105-3.92377-5.81019-5.88565-4.678335-6.33839-6.036562-13.20498-6.33839-17.88331.07546-.60366.07546-1.28277.150914-1.88643.528199-7.31933 1.207312-16.52508 12.525865-22.78802 6.640218-4.9047 56.215479-7.16841 87.907423-6.79113v.22637c-31.691944-.37728-81.191748 1.88643-87.756509 6.79113-11.243095 6.26294-11.922209 15.31778-12.450408 22.63711-.07546.67911-.07546 1.28277-.150914 1.88643.301828 4.60287 1.660055 11.46946 6.262933 17.73239 1.433683 1.96189 3.923765 4.2256 5.734733 5.8102 1.810968 1.28276 3.697394 2.640989 5.734733 4.074669 18.713341 13.50681 44.368727 32.06924 82.625432 34.18203h.0755c38.25671-2.11279 63.91209-20.59976 82.62543-34.18203 2.03734-1.43368 3.92377-2.791909 5.73474-4.074669 1.81097-1.5846 4.30105-3.84831 5.73473-5.8102 4.67834-6.33838 5.96111-13.12952 6.26293-17.73239-.0755-.60366-.0755-1.20732-.15091-1.88643-.5282-7.31933-1.20731-16.37417-12.45041-22.63711-6.56476-4.9047-56.06456-7.09295-87.75651-6.79113v-.22637c31.7674-.37728 81.26721 1.88643 87.90743 6.79113 11.31855 6.33839 11.99766 15.46869 12.52586 22.78802.0755.67912.0755 1.28277.15091 1.88643-.30182 4.67833-1.66005 11.54492-6.33839 17.88331-1.43368 1.96188-3.92376 4.30105-5.73473 5.88565-1.81097 1.28277-3.69739 2.640989-5.73473 4.074679-18.7888 13.58226-44.44419 32.14469-82.77635 34.18203z"/>
  <path fill="#1b1d1e" d="M234.07002 79.682611c0 1.0564-.75457 1.96188-1.66006 1.96188H227.958c-.90549 0-1.73551-.90548-1.73551-1.96188s.75457-1.96188 1.73551-1.96188h4.45196c.90549.0755 1.66006.90548 1.66006 1.96188z"/>
  <path fill="#2e3233" d="M232.8627 79.682611c0 .67911-.5282 1.28277-1.20731 1.28277h-3.09374c-.67911 0-1.20731-.60366-1.20731-1.28277s.5282-1.28277 1.20731-1.28277h3.09374c.67911 0 1.20731.60366 1.20731 1.28277z"/>
  <path d="M228.56165 77.796181h3.09374v.67912h-3.09374zm0 3.24466h3.09374v.67911h-3.09374z"/>
  <path fill="#1b1d1e" d="M234.07002 73.570591c0 1.0564-.75457 1.96188-1.66006 1.96188H227.958c-.90549 0-1.73551-.90548-1.73551-1.96188s.75457-1.96188 1.73551-1.96188h4.45196c.90549 0 1.66006.90548 1.66006 1.96188z"/>
  <path fill="#2e3233" d="M232.8627 73.570591c0 .67911-.5282 1.28277-1.20731 1.28277h-3.09374c-.67911 0-1.20731-.60366-1.20731-1.28277s.5282-1.28277 1.20731-1.28277h3.09374c.67911 0 1.20731.60366 1.20731 1.28277z"/>
  <path d="M228.56165 71.608711h3.09374v.67911h-3.09374zm0 3.24465h3.09374v.67911h-3.09374z"/>
  <path fill="#1b1d1e" d="M234.07002 67.458571c0 1.0564-.75457 1.96189-1.66006 1.96189H227.958c-.90549 0-1.73551-.90549-1.73551-1.96189s.75457-1.96188 1.73551-1.96188h4.45196c.90549 0 1.66006.90548 1.66006 1.96188z"/>
  <path fill="#2e3233" d="M232.8627 67.458571c0 .67912-.5282 1.28277-1.20731 1.28277h-3.09374c-.67911 0-1.20731-.60365-1.20731-1.28277 0-.67911.5282-1.28277 1.20731-1.28277h3.09374c.67911 0 1.20731.60366 1.20731 1.28277z"/>
  <path d="M228.56165 65.496691h3.09374v.67911h-3.09374zm0 3.24465h3.09374v.67912h-3.09374z"/>
  <path fill="#1b1d1e" d="M14.942837 79.682611c0 1.0564.75457 1.96188 1.660054 1.96188h4.451964c.905485 0 1.735512-.90548 1.735512-1.96188s-.75457-1.96188-1.735512-1.96188h-4.451964c-.905484 0-1.660054.90548-1.660054 1.96188z"/>
  <path fill="#2e3233" d="M16.150149 79.682611c0 .67911.528199 1.28277 1.207313 1.28277h3.093737c.679113 0 1.207313-.60366 1.207313-1.28277s-.5282-1.28277-1.207313-1.28277h-3.169194c-.603657 0-1.131856.60366-1.131856 1.28277z"/>
  <path d="M17.357462 77.720731h3.093737v.67911h-3.093737zm0 3.24465h3.093737v.67911h-3.093737z"/>
  <path fill="#1b1d1e" d="M14.942837 73.570591c0 1.0564.75457 1.96188 1.660054 1.96188h4.451964c.905485 0 1.735512-.90548 1.735512-1.96188s-.75457-1.96188-1.735512-1.96188h-4.451964c-.905484 0-1.660054.90548-1.660054 1.96188z"/>
  <path fill="#2e3233" d="M16.150149 73.570591c0 .67911.528199 1.28277 1.207313 1.28277h3.093737c.679113 0 1.207313-.60366 1.207313-1.28277s-.5282-1.28277-1.207313-1.28277h-3.169194c-.603657 0-1.131856.5282-1.131856 1.28277z"/>
  <path d="M17.357462 71.608711h3.093737v.67911h-3.093737zm0 3.24465h3.093737v.67911h-3.093737z"/>
  <path fill="#1b1d1e" d="M14.942837 67.383121c0 1.05639.75457 1.96188 1.660054 1.96188h4.451964c.905485 0 1.735512-.90549 1.735512-1.96188 0-1.0564-.75457-1.96189-1.735512-1.96189h-4.451964c-.905484.0755-1.660054.90549-1.660054 1.96189z"/>
  <path fill="#2e3233" d="M16.150149 67.383121c0 .67911.528199 1.28277 1.207313 1.28277h3.093737c.679113 0 1.207313-.60366 1.207313-1.28277 0-.67912-.5282-1.28277-1.207313-1.28277h-3.169194c-.603657 0-1.131856.60365-1.131856 1.28277z"/>
  <path d="M17.357462 65.496691h3.093737v.67911h-3.093737zm0 3.24465h3.093737v.67912h-3.093737z"/>
  <path fill="#171819" d="M237.69195 95.830411c0 .37729-.15091 16.223259-1.0564 22.788019-.90548 6.71568.83003 14.78958-12.22403 20.44885-13.05407 5.58382-32.67289 10.48853-60.81836 13.73318-28.14547 3.24465-62.93115 2.86737-90.472962-1.73551-27.466355-4.67834-42.784129-8.22482-51.235315-12.2995-9.054842-4.30105-10.035784-11.9222-10.186698-19.16608-.07546-3.77285-.301828-22.712559-.377285-28.220919.07546 4.9047.377285 8.753009.830027 10.186699l.301828.83002c1.509141 4.60288 2.867367 8.6021 9.356671 10.94127 2.26371.83003 7.696615 2.33917 13.959548 4.15014 11.243096 3.16919 26.56087 7.5457 31.465577 10.03578 7.772072 3.92376 25.957214 11.54492 30.937377 13.20498l5.055622 1.66005c.37728.15092 8.90393 3.32011 21.35433 3.32011 12.45041 0 20.9016-3.16919 21.20343-3.32011l5.13107-1.66005c5.05562-1.66006 23.16531-9.20576 30.93738-13.20498 4.90471-2.49008 20.22248-6.86659 31.46558-10.03578 6.26293-1.81097 11.69583-3.32011 13.95954-4.15014 6.56477-2.41462 7.84753-6.33839 9.35667-10.94127l.30183-.83002c.37729-.98095.60366-3.018289.75457-5.734739z"/>
  <path fill="#0b0c0d" d="M90.852597 34.710231c-16.600544.75457-29.503694 1.88642-38.407622 2.86736-17.2042 1.81097-29.654608.37729-36.44574 17.58149-3.772851 9.58304-4.527421 40.3695-2.867366 45.198749 1.660054 4.82925 2.565538 8.45119 8.903928 10.7149 6.338389 2.26371 37.879423 10.11124 45.576039 13.88409 7.696615 3.84831 25.655386 11.16764 30.786463 12.82769l5.131081 1.66006s8.6021 3.16919 20.97705 3.16919c12.37495 0 20.97705-3.16919 20.97705-3.16919l5.13107-1.66006c5.13108-1.66005 23.16531-8.97938 30.78647-12.82769 7.69661-3.84831 39.23765-11.62038 45.57604-13.88409 6.33839-2.26371 7.24387-5.96111 8.90392-10.7149 1.66006-4.829249.90549-35.615709-2.86736-45.198749-6.79113-17.27966-19.24154-15.84597-36.44574-17.58149-8.90393-.90548-21.95799-2.11279-38.55854-2.86736-9.96032-.45274-21.27888-.75457-33.57837-.75457h-.0755c-12.37495 0-23.54259.30183-33.502913.75457m0-1.20732c9.960323-.45274 21.278883-.75457 33.578373-.75457h.0755c12.29949 0 23.46713.30183 33.42746.75457 13.28043.60366 26.18358 1.5846 38.70945 2.94283 2.18825.22637 4.3765.45274 6.41384.60365 13.88409 1.20732 24.82536 2.1128 31.01284 18.18515 2.71645 7.09296 3.8483 24.59898 3.69739 36.37028v.60365c-.0755 4.90471-.37728 8.753019-.83003 10.186699l-.30183.83003c-1.50914 4.60288-2.86736 8.52664-9.35667 10.94127-2.26371.83002-7.69661 2.33916-13.95954 4.15013-11.2431 3.1692-26.56087 7.5457-31.46558 10.03579-7.77207 3.92376-25.95721 11.54492-30.93738 13.20497l-5.05562 1.66006c-.37728.15091-8.90393 3.32011-21.35433 3.32011-12.45041 0-20.97705-3.1692-21.35434-3.32011l-5.055619-1.66006c-5.05562-1.66005-23.165305-9.20575-30.937378-13.20497-4.904706-2.49009-20.22248-6.86659-31.465576-10.03579-6.262933-1.81097-11.695838-3.32011-13.959548-4.15013-6.564761-2.41463-7.84753-6.33839-9.356671-10.94127l-.301828-.83003c-.452742-1.43368-.75457-5.281989-.830027-10.186699v-.60365c-.150914-11.7713.980941-29.27732 3.697394-36.37028 6.187475-16.07235 17.128743-17.05329 31.012834-18.18515 2.03734-.15091 4.225593-.37728 6.413847-.60365 12.450408-1.35823 25.278101-2.33917 38.483079-2.94283"/>
  <path fill="#c5baba" d="M172.57255 123.29677s-.0755 0-.15092.0754c-1.43368.60366-2.86736 1.20732-4.3765 1.81097-22.86348 8.82847-33.12564 11.39401-43.31233 11.39401-7.01751 0-14.03501-1.20731-25.202646-4.82925 0 0-21.429793-7.92298-23.089847-8.6021.377285-1.0564 1.50914-3.77285 3.395566-6.79113 2.26371-3.69739 5.659276-7.84753 10.337611-10.26215.301828-.15092.528199-.30183.830027-.37729 9.130299-4.07468 23.919869-3.77285 33.880199-3.77285 9.96033 0 24.59899-.30183 33.72929 3.77285.30183.15092.5282.30183.83003.37729 6.26293 3.24465 9.88486 9.73395 11.77129 13.88409.67911 1.43368 1.13186 2.64099 1.35823 3.32011z"/>
  <path fill="#2f3134" d="M124.12914 135.14352c-21.95799 0-38.784905-10.63944-38.784905-19.46791s16.826915-12.45041 38.784905-12.45041c21.95799 0 38.78491 3.62194 38.78491 12.45041s-16.82692 19.46791-38.78491 19.46791z"/>
  <path fill="#c5baba" d="M146.69079 131.06884c-.0755-3.32011-3.92377-6.11202-8.67756-6.11202h-27.76818c-4.75379 0-8.6021 2.79191-8.67756 6.11202l-.75457-.30183c.0755-3.69739 4.30105-6.56476 9.43213-6.56476h27.76818c5.13108 0 9.35667 2.94282 9.43213 6.64022l-.75457.22637z"/>
  <path fill="#c5baba" d="M113.41424 128.5033c0-.60366.22638-1.13185.60366-1.50914.45274-.45274.90548-.60366 1.43368-.60366h2.94283v.90549h-2.71645c-.45275 0-.75458.15091-.98095.37728-.22637.22637-.37728.5282-.37728.90549 0 .37728.15091.67911.37728.90548.22637.22637.60366.37729.98095.37729h.45274c.37728 0 .67911.0754.83002.30182.22638.22638.30183.45275.30183.75458 0 .30182-.0755.52819-.30183.75457-.22637.22637-.45274.30182-.83002.30182h-2.71646v-.90548h2.71646c.15091 0 .22637-.0755.22637-.15091 0-.0755-.0755-.15092-.22637-.15092h-.67912c-.5282 0-.98094-.22637-1.43368-.60366-.45274-.52819-.60366-1.05639-.60366-1.66005zm1.13186 0c0-.30183.0755-.5282.30183-.75457.22637-.22637.45274-.30183.83003-.30183h2.71645v.90549h-2.71645c-.15092 0-.22638.0754-.22638.15091 0 .0755.0755.15091.22638.15091h.67911c.5282 0 .98094.22638 1.43368.60366.45274.45274.60366.90548.60366 1.50914s-.22637 1.13186-.60366 1.50914c-.37728.37729-.90548.60366-1.43368.60366h-2.94283v-.83003h2.71646c.45274 0 .75457-.15091.98094-.37728.22637-.22638.37728-.5282.37728-.90549 0-.37728-.15091-.67911-.37728-.90548-.22637-.22637-.60366-.37729-.98094-.37729h-.45274c-.37729 0-.67912-.0755-.83003-.30183-.22637-.15091-.30183-.37728-.30183-.67911zm4.30105-.0755c0-1.35822.67911-2.03734 2.03734-2.03734h2.71645v.90549h-2.71645c-.75457 0-1.13186.37728-1.13186 1.13185v2.49009c0 .75457.37729 1.13185 1.13186 1.13185h2.71645v.90548h-2.71645c-1.35823 0-2.03734-.67911-2.03734-2.03733v-2.49009zm1.13186 1.13186v-1.13186c0-.60365.30182-.90548.90548-.90548h2.71645v.90548h-2.49008c-.15091 0-.22637.0755-.22637.22637h2.03734v.90549h-2.94282zm0 .22637h2.94282v.90548h-2.03734c0 .15092.0755.22638.22637.22638h2.49008v.90548h-2.71645c-.60366 0-.90548-.30183-.90548-.90548v-1.13186zm4.15013-1.35823c0-1.35822.67911-2.03734 2.03734-2.03734h2.71645v.90549h-2.71645c-.75457 0-1.13185.37728-1.13185 1.13185v2.49009c0 .75457.37728 1.13185 1.13185 1.13185h1.81097v-2.49008h-1.5846v-.90549h2.49008v4.37651h-2.71645c-1.35823 0-2.03734-.67911-2.03734-2.03734v-2.56554zm1.13186 0c0-.60365.30182-.90548.90548-.90548h2.71645v.90548h-2.49008c-.15091 0-.22637.0755-.22637.22637v2.03734c0 .15092.0755.22638.22637.22638h.45274v-.22638h-.45274v-.90548h1.35823v2.03734h-1.5846c-.60366 0-.90548-.30183-.90548-.90548v-2.49009zm6.86658 3.62194h2.71646l-1.81097-4.67833c-.0755-.0755-.15091-.15092-.30183-.15092-.15091 0-.22637.0755-.30183.15092l-2.03734 5.58381h-.90548l2.1128-5.88564c.22637-.5282.60365-.75457 1.13185-.75457.60366 0 .98094.22637 1.13186.75457l2.18825 5.88564h-3.92377v-.90548zm0-.22637v-.5282l-.67911 1.66005h-.90548l1.96188-5.35744c0-.0755.0755-.15092.15091-.15092.0755 0 .15092.0755.15092.15092l1.5846 4.22559h-2.26372zm.5282-1.96188l-.45274 1.0564h.83003l-.37729-1.0564z"/>
  <path fill="#f2ba5c" d="M102.02023 115.37378l5.65928 5.4329h41.04862v-3.47102l-2.26371-1.96188m-36.89848-7.24387v1.43368c0 .30183-.15092.45274-.5282.60366-.37729.15091-.83003.15091-1.43369.15091-.60365 0-1.13185-.0755-1.50914-.15091-.37728-.15092-.60365-.30183-.60365-.60366v-1.50914h1.5846v1.43368c0 .0755.0755.15092.15091.22637.0755.0755.22637.0755.45274.0755.15092 0 .30183 0 .45274-.0755.15092 0 .15092-.0755.22637-.15091v-1.50914h1.20732zm2.03734 1.35822v.83003h-1.35823v-2.18825h1.88643c.45274 0 .83002 0 1.05639.0754.22637.0755.45275.15092.60366.22637.15091.0755.22637.22637.22637.37729 0 .22637-.15091.37728-.45274.5282-.30183.15091-.67911.22637-1.20731.22637h-.75457zm0-.45274h.45274c.37728 0 .60365-.0755.60365-.22637 0-.15092-.15091-.22637-.52819-.22637h-.5282v.45274zm6.11201.75457v.5282h-3.3201v-2.18825h3.3201v.52819h-2.03733v.30183h1.58459v.5282h-1.58459v.37729h2.03733zm4.07468.5282h-1.50914l-.60365-.83003h-.45275v.83003h-1.35822v-2.18825h2.26371c.5282 0 .90548.0754 1.13185.15091.30183.15091.45275.30183.45275.45274 0 .15092-.0755.22637-.15092.30183-.0754.0755-.30183.15091-.60365.22637l.83002 1.0564zm-2.49008-1.28277h.60366c.15091 0 .30183 0 .37728-.0755.0755 0 .15092-.0754.15092-.15091 0-.15092-.15092-.22637-.5282-.22637h-.60366v.45274zm-16.22326 1.35823c-.37728 0-.67911 0-.90548-.0755-.22637-.0755-.45274-.0755-.67911-.15091-.15092-.0755-.30183-.15092-.37729-.22638-.0755-.0755-.15091-.22637-.15091-.30182h.90548c0 .0755.0755.15091.15091.22637.0755.0755.15092.0755.30183.15091.0755 0 .22637.0755.37729.0755h.83003c.15091 0 .22637 0 .30182-.0755.0755 0 .15092-.0755.22637-.0755.0755 0 .0755-.0755.0755-.15091 0-.0755 0-.0755-.0755-.15091-.0755 0-.15091-.0755-.22637-.0755-.0755 0-.22637-.0755-.37728-.0755-.15092 0-.37729-.0755-.60366-.0755-.30183 0-.5282-.0755-.75457-.0755-.22637 0-.37728-.0755-.5282-.15092-.15091-.0755-.22637-.0755-.30183-.15091-.0755-.0755-.0755-.15091-.0755-.22637 0-.0755.0755-.15092.15091-.22637.0755-.0755.22637-.15092.37729-.22637.15091-.0755.37728-.0755.5282-.15092.22637 0 .45274-.0754.75457-.0754.30182 0 .5282 0 .75457.0754.22637.0755.45274.0755.60365.15092.15092.0755.30183.15091.37729.22637.0755.0755.15091.22637.15091.30183h-.90548c-.0755-.22638-.37729-.37729-.98094-.37729-.30183 0-.5282 0-.67912.0755-.15091.0755-.22637.0755-.22637.15091 0 0 0 .0755.0755.0755s.0755.0755.15091.0755c.0755 0 .15092.0754.30183.0754s.22637 0 .45274.0755c.15092 0 .30183 0 .45275.0755.15091 0 .30182 0 .45274.0755.15091 0 .30183.0755.37728.0755.15092 0 .22637.0755.37729.15091.0755.0755.15091.0755.22637.15092.0755.0755.0755.15091.0755.22637 0 .0755-.0755.22637-.15092.30183-.0755.0755-.22637.15091-.37728.22637-.15092.0755-.37729.0755-.60366.15091-.37728-.15091-.60366-.0755-.83003-.0755z"/>
  <path fill="#f2ba5c" d="M113.41424 119.9012v-1.66005l.22638-.0755c2.56553-.90549 6.64021-3.24465 6.79113-3.92377 0-.0755 0-.22637-.0755-.30182-.15091-.22637-.5282-.37729-.83003-.37729-.45274 0-.83002.30183-.90548.67911v.22638h-5.28199l.15091-.45275c.5282-1.96188 2.94283-3.24465 6.26293-3.24465 3.6974 0 6.26294 1.35823 6.26294 3.24465 0 1.35823-1.35823 2.49008-4.15014 3.32011h3.92377v2.641H113.4142z"/>
  <path fill="#2f3134" d="M120.80903 114.31738c.15092-.60365-.5282-1.13185-1.28277-1.13185-.60365 0-1.13185.37728-1.20731.90548h-4.52742c.45274-1.66005 2.641-2.94282 5.9611-2.94282 3.24466 0 5.96111 1.13185 5.96111 2.86736 0 1.50914-2.18826 2.56554-4.82925 3.24465v.45275h4.60288v1.88642h-11.62038v-1.13185c1.96188-.75457 6.64021-3.1692 6.94204-4.15014z"/>
  <path fill="#f2ba5c" d="M106.69857 120.27849c-1.5846 0-4.52742-.22638-5.81019-1.50914-.45274-.45275-.67911-.98095-.67911-1.5846v-.37729h5.20653l.0755.30183c.0755.30183.5282.60366 1.13185.60366.75457 0 1.35823-.30183 1.35823-.60366s-.5282-.60366-1.35823-.60366h-.30183l-.37728.0755v-2.33917l.5282.0755h.15091c.60366 0 1.0564-.30183 1.0564-.5282 0-.22637-.45274-.5282-1.0564-.5282-.5282 0-.98094.22637-1.0564.5282v.15092h-4.75379v-.37729c0-.75457.67912-1.5846 1.81097-2.03734 1.0564-.45274 2.49008-.75457 4.30105-.75457 3.01828 0 6.03656.83003 6.03656 2.41463 0 .67911-.60365 1.35822-1.50914 1.81096 1.35823.45275 1.88643 1.43369 1.88643 2.18826-.15092 1.73551-3.01828 3.09374-6.64022 3.09374z"/>
  <path fill="#2f3134" d="M100.58655 117.2602h4.52742c.0755.5282.75457.90549 1.50914.90549.90549 0 1.66006-.45274 1.66006-.98094s-.75457-.98094-1.66006-.98094h-.30183v-1.5846h.30183c.75457 0 1.43369-.37729 1.43369-.90548 0-.5282-.60366-.90549-1.43369-.90549-.67911 0-1.28277.37729-1.35822.83003h-4.15014c0-.5282.60366-1.28277 1.5846-1.73551 1.0564-.5282 2.56554-.67912 4.15013-.67912 3.1692 0 5.65928.90549 5.65928 2.1128 0 .67911-.90548 1.35823-2.41462 1.73551v.37729c1.88642.22637 2.71645.98094 2.71645 1.88642 0 1.50914-2.71645 2.71645-6.11202 2.71645s-6.11202-.90548-6.11202-2.79191"/>
  <path fill="#f2ba5c" d="M147.97356 120.50486h-13.65772l-.0755-.0755-12.90315-12.52587h14.11046l12.67678 12.2995-.15091.15091v.15092zm-13.50681-.30183h13.05407l-12.22404-11.92221h-13.05406l12.22403 11.92221z"/>
  <path fill="#f2ba5c" d="M147.97356 120.35394H134.3913l-12.60133-12.22403h13.58227l12.60132 12.22403"/>
  <path fill="#2f3134" d="M147.97356 120.35394H134.3913l-12.60133-12.22403h13.58227l12.60132 12.22403"/>
  <path fill="#f2ba5c" d="M137.7114 119.9012l-1.96188-1.81097-1.96188 1.81097h-7.69662l5.73474-5.35745-5.73474-5.28199h7.69662l1.88642 1.66006 1.81097-1.66006h7.62116l-5.58382 5.20654 5.88565 5.4329"/>
  <path fill="#2f3134" d="M132.35396 114.54375l-5.35745-4.9047h6.64022l2.03733 1.81096 1.96189-1.81096h6.56476l-5.20654 4.9047 5.50837 5.05562h-6.64022l-2.18826-1.96188-2.11279 1.96188h-6.56476l5.35745-5.05562z"/>
</svg>
