<svg xmlns="http://www.w3.org/2000/svg" baseProfile="tiny" viewBox="0 0 247.7 470.3">
  <path fill="#1B1D1F" d="M50.7 235.1c.5 45.7-4.4 75.8-21.2 99.1C15.9 353.2-.7 373.6 0 402c.1 5.1.7 17.5 8 30.7 3.8 6.9 9.7 13.8 18.8 20.2 62.7 44.2 123.6-8.8 129.5-13 89.8-64.2 91.3-158.6 91.3-204.7 0-46.1-1.5-140.5-91.3-204.7-5.8-4.2-66.8-57.2-129.5-13C17.7 23.9 11.9 30.8 8 37.7.7 50.8.1 63.2 0 68.3c-.7 28.4 15.9 48.8 29.5 67.8 16.8 23.2 21.6 53.3 21.2 99z"/>
  <path fill="#111" d="M239.3 317.8c8.1-32.5 8.4-62.3 8.4-82.6 0-20.4-.3-50.2-8.4-82.6-9.6 4.1-14 6.2-18.4 10.3-1 .9-.9 3.5-.2 6.5 6.9 20.6 7 51 7 65.8 0 14.8-.1 45.2-7 65.8-.7 3-.8 5.6.2 6.5 4.4 4.1 8.8 6.2 18.4 10.3"/>
  <ellipse cx="123.8" cy="347" fill="#111" transform="matrix(0.8269 0.5623 -0.5623 0.8269 216.5035 -9.548)" rx="73.3" ry="94.7"/>
  <ellipse cx="125.6" cy="341.6" fill="#090909" transform="matrix(0.8269 0.5623 -0.5623 0.8269 213.8251 -11.4745)" rx="59.9" ry="74.9"/>
  <circle cx="139.3" cy="294.1" r="14.5" fill="#6A6A6D"/>
  <circle cx="155.7" cy="332.3" r="14.5" fill="#6A6A6D"/>
  <circle cx="168.3" cy="371.9" r="14.5" fill="#6A6A6D"/>
  <circle cx="93.7" cy="309.2" r="19" fill="#262626"/>
  <circle cx="113.1" cy="355.1" r="19" fill="#262626"/>
  <circle cx="129.5" cy="401" r="19" fill="#262626"/>
  <ellipse cx="130" cy="116.6" fill="#191818" transform="matrix(0.8269 -0.5623 0.5623 0.8269 -43.0634 93.2653)" rx="69.3" ry="85"/>
  <ellipse cx="134.3" cy="118.5" fill="#0F0F0F" transform="matrix(0.8269 -0.5623 0.5623 0.8269 -43.3702 96.0176)" rx="54.8" ry="63.7"/>
  <circle cx="136.5" cy="119.2" r="47.5"/>
  <circle cx="136.5" cy="119.2" r="41.8" fill="#373737"/>
  <path fill="#1F1F1F" d="M161.3 95.8l-6.9 3.3 3.6 3.6m-44.9-6.9l3.3 6.9 3.6-3.6m-7.2 44.9l6.9-3.3-3.6-3.6m44.9 7.4l-3.3-6.9-3.6 3.6"/>
  <path fill="#181818" d="M136.5 161c-2 0-4 0-6.1-.1-3.1-.1-4.4-1.7-4.7-4.8-.3-4-.7-8.1-1.6-12-1.5-6.8-6-11.1-12.7-12.6-3.7-.8-7.5-1.2-11.2-1.5-4.1-.4-5.3-1.2-5.4-5.2-.1-1.8-.1-3.7-.1-5.5 0-1.8 0-3.7.1-5.5.1-4 1.3-4.9 5.4-5.2 3.8-.3 7.6-.7 11.2-1.5 6.8-1.5 11.2-5.8 12.7-12.6.9-3.9 1.3-8 1.6-12 .2-3.1 1.6-4.7 4.7-4.8 2-.1 4-.1 6.1-.1 2 0 4 0 6.1.1 3.1.1 4.4 1.7 4.7 4.8.3 4 .7 8.1 1.6 12 1.5 6.8 6 11.1 12.7 12.6 3.7.8 7.5 1.2 11.2 1.5 4.1.4 5.3 1.2 5.4 5.2.1 1.8.1 3.7.1 5.5 0 1.8 0 3.7-.1 5.5-.1 4-1.3 4.9-5.4 5.2-3.8.3-7.6.7-11.2 1.5-6.8 1.5-11.2 5.8-12.7 12.6-.9 3.9-1.3 8-1.6 12-.2 3.1-1.6 4.7-4.7 4.8-2 .1-4.1.1-6.1.1z"/>
  <path fill="#2C2C2C" d="M128 104V79.6h17.8V104l5.9 6.3H176v17.8h-24.3l-6.4 6.5v24.3h-17.8v-24.3l-5.9-6.3H97.3v-17.9h24.3"/>
  <path fill="#242424" d="M136.5 128c-4.8 0-8.8-3.9-8.8-8.8 0-4.8 3.9-8.8 8.8-8.8 4.8 0 8.7 3.9 8.7 8.8.1 4.9-3.8 8.8-8.7 8.8z"/>
  <path fill="#404040" d="M127.8 119.2c0-3.3 1.9-6.2 4.6-7.7 2.7 1.5 4.5 4.4 4.5 7.7s-1.8 6.2-4.5 7.7c-2.8-1.5-4.6-4.4-4.6-7.7"/>
  <path fill="#141415" d="M115.9 362.1c.4.9.9 1.2 1.5 1.2l.5-.1c.9-.3.9-1.9-.1-4.7l-4.6-12.5-.9.3-3.7 1.4-.9.4 4.6 12.5c1 2.8 2 4 2.9 3.6l.5-.2c.3-.4.4-1 .2-1.9zm-2.7-1.8l-.6-1.6-3.2-8.7 1.4-.5 3.2 8.8.5 1.5c.4 1 .3 1.7-.1 1.8-.4.2-.8-.2-1.2-1.3zm2.3-.8l-3.8-10.3 1.4-.5 3.8 10.3c.4 1 .3 1.7-.1 1.8-.5.2-.9-.3-1.3-1.3z"/>
  <circle cx="103.6" cy="358.9" r="1.1" fill="#191818"/>
  <path fill="#141415" d="M95.3 317.5l-.8-2.2.8-2.6-3.1-8.3-2.3-1.3-.8-2.3 8 4.5 1.2 3.2-3 9zm.6-6l1.2-3.5-.5-1.4-3.1-1.6 2.4 6.5zm36.2 92.3l-2.1-6c-1.4-4-1.9-3.5-3.1-3-1.2.4-2 .3-.5 4.3l3.7 10.6-.9.3-3.7-10.6c-2-5.6-1.2-6.4.6-7 1.8-.6 2.9-.5 4.9 5l3.7 10.7-.9.3-1.7-4.6z"/>
  <path fill="#484849" d="M137.8 300.3l.5-3.3c.2-1.3.3-2.1.4-2.9v-.1c-.6-.5-1.2-.9-2.2-1.8l-2.4-2-1.1-3.2 5.8 5.2 1.1-7.5 1.2 3.2-.6 3.4c-.2.9-.3 1.7-.4 2.4v.1c.6.5 1.1.9 1.8 1.5l2.6 2.3 1.1 3.2-5.6-5.3-1.1 7.9-1.1-3.1zm14 31.6l2.9-1 1.5-8.1 1.1 3.1-.8 3.7c-.2 1-.4 1.8-.6 2.6v.1c.7.4 1.4 1 2.2 1.6l3 2.4 1.1 3.1-6.5-5.7-2.9 1-1-2.8zm10.8 33.3l9.8 9.8-3.9-10.8.7-.3 5.2 14.3-.5.2-9.7-9.7 4.3 11.9-.7.3-5.6-15.5.4-.2z"/>
  <path fill="#D5D5D5" d="M122.6 215.6c0-.4.1-.8.2-1.1.1-.3.3-.6.6-.8.3-.2.6-.4.9-.5.4-.1.7-.2 1.2-.2v1.1c-.3 0-.5.1-.7.2-.2.1-.4.2-.5.3-.1.1-.2.3-.3.4-.1.2-.1.4-.1.5 0 .2 0 .3.1.5 0 .1.1.3.2.4.1.1.2.2.3.2.1.1.3.1.4.1.2 0 .3 0 .4-.1.1-.1.2-.1.3-.3.1-.1.2-.3.2-.5.1-.2.1-.5.2-.8l.3-.9c.1-.2.3-.4.5-.6.2-.2.4-.3.6-.4.2-.1.5-.1.8-.1.3 0 .6.1.9.2.3.1.5.3.7.4.2.2.4.4.5.7.1.3.2.6.2.9 0 .3-.1.7-.2.9-.1.3-.3.5-.5.7-.2.2-.5.4-.8.5-.3.1-.7.2-1.1.2v-1.1c.9-.1 1.3-.5 1.3-1.2 0-.4-.1-.6-.2-.8-.2-.2-.4-.3-.6-.3-.1 0-.2 0-.3.1-.1 0-.2.1-.2.2s-.1.2-.2.4c-.1.1-.1.3-.2.5 0 .2-.1.4-.1.5-.1.2-.1.4-.2.6-.1.2-.2.3-.3.5s-.3.3-.4.4l-.6.3c-.2.1-.5.1-.8.1-.4 0-.7-.1-1-.2-.3-.1-.5-.3-.8-.5s-.4-.4-.5-.7c-.2-.1-.2-.4-.2-.7zm6.5 7.8v-1.9h-6.4v-1.1h6.4v-1.8h1.3v4.8h-1.3zm-6.4 6v-1.2l2.2-.7v-2.1l-2.2-.6v-1.2l7.7 2.3v1.1l-7.7 2.4zm3.4-2.3l2.4-.7-2.4-.7v1.4zm-3.4 8.1V234l2.1-.6c.1 0 .3-.1.4-.2.1-.1.2-.1.3-.2.1-.1.2-.2.2-.3 0-.1.1-.2.1-.4v-1.2h-3.1V230h7.7v3.2c0 .1 0 .3-.1.4 0 .1-.1.3-.2.4l-.3.3c-.1.1-.2.2-.4.3-.1.1-.3.1-.4.2-.1 0-.3.1-.5.1h-.5c-.5 0-.9-.1-1.2-.3-.3-.2-.6-.4-.8-.7-.3.3-.6.5-1.2.6l-2.1.7zm4.4-4v1.5c0 .2 0 .4.1.5 0 .1.1.3.2.4.1.1.2.2.3.2s.3.1.5.1c.3 0 .6-.1.8-.2.2-.2.2-.4.2-.8v-1.6h-2.1zm2 9.4v-1.9h-6.4v-1.1h6.4v-1.8h1.3v4.8h-1.3z"/>
  <circle cx="146.4" cy="329.7" r="1.1" fill="#484849"/>
  <circle cx="149.6" cy="339.7" r="1.1" fill="#484849"/>
  <g fill="#D5D5D5">
    <path d="M181.7 252.9v-7.7h2v5.3c1.3-.4 2.3-.7 3.4-1 2.6-.8 5.3-1.5 7.8-2.3.6-.2 1.4-.8 1.5-1.3.2-.8-.8-1.1-1.6-1.4-4-1.2-8-2.4-12-3.5-.9-.3-1.3-.7-1.2-1.5.1-2.4 0-4.7 0-7.1 0-2.4 1.8-4 4.5-4 2.5 0 4.9-.1 7.4 0 2.8.1 4.5 1.6 4.5 4v6.5h-2.1v-5.5c0-2.6-.7-3.2-3.7-3.2h-5.6c-2 0-3 .8-3 2.5v4.2h6.5v-3.5h2v5.5h-8.6v.3c3.9 1.2 7.9 2.3 11.8 3.5 2.3.7 3.2 1.9 2.8 3.8-.2 1.1-.9 1.9-2.1 2.3-4.7 1.4-9.5 2.8-14.2 4.2.1 0 0-.1-.1-.1zm0-48.3h2.1v6.1c0 1.7 1.4 2.9 3.2 3 1.7.1 3.2-1.2 3.3-2.8.1-.7 0-1.4.1-2 .1-1 1.2-1.8 2.4-1.8 1.3 0 2.4.7 2.4 1.8.1 2.2 0 4.4 0 6.7h-2.1v-6.5h-.7c0 .6-.1 1.2-.1 1.9-.1 2.3-1.6 4-4.1 4.6-3.1.7-6.4-1.3-6.6-4.1 0-2.3.1-4.6.1-6.9z"/>
    <path d="M184.6 204.6h2.1v6.5h.6c0-.7.1-1.3.1-2 0-1.9 1-3.2 2.9-4.1 1.9-.8 3.9-.7 5.6.4 1.2.8 2 1.8 2.1 3.1.1 2.3 0 4.6 0 7h-2.1v-6.2c0-2-2.2-3.4-4.3-2.7-1.3.4-2.1 1.4-2.2 2.8 0 .6 0 1.3-.1 1.9-.1 1-1.2 1.8-2.4 1.8s-2.4-.8-2.4-1.8c0-2.2.1-4.4.1-6.7zm13.4 22.8h-2v-6.1c0-2.1-.8-2.9-3.3-2.9h-5.9c-2.3 0-3.2.8-3.2 2.7v6.1h-2.1v-7.3c.1-1.7 1.9-3.3 3.9-3.3 2.9-.1 5.7-.1 8.6 0 1.8 0 3.7 1.4 3.8 3 .4 2.7.2 5.3.2 7.8zm-16.2 13.9c4.5 1.3 8.8 2.6 13.2 3.9.3.1.6.4.7.6.1.1-.3.5-.5.6-3.5 1.1-7 2.1-10.6 3.2v-4.4c.5 0 1-.1 1.4-.1 0-.1.1-.1.1-.2-.8-.3-1.6-.5-2.4-.8-2.2-.6-2.2-.6-1.9-2.8zm5.1 3.8v1.5c.8-.2 1.5-.4 2.2-.7v-.3c-.6-.1-1.3-.3-2.2-.5zm.2-10.3c.2-.6.3-.9.4-1.3h1.8v2.9h-4.8c0-1.5-.1-2.9.1-4.4 0-.4.8-1 1.3-1 2.6-.1 5.2-.1 7.8 0 .9 0 1.4.5 1.5 1.3v6.6h-2.1c0-1.6-.1-3.2 0-4.8 0-1-.4-1.4-1.5-1.3-1.2.1-2.4 0-3.6 0-1.4-.1-1.8.5-.9 2z"/>
    <path d="M186.8 221.2c-.4 2 0 4.1-.2 6.2h-2c0-2.4-.1-4.7.1-7.1 0-.4.9-.9 1.4-1 1-.2 2.1 0 3.3 0v6.7h-1.9v-4.7c-.3-.1-.5-.1-.7-.1zm8.4 6.2h-2c-.3-2.1.2-4.2-.3-6.3h-.5v4.7h-2v-6.7c1.2 0 2.4-.1 3.7 0 .4.1 1.1.7 1.1 1v7.3z"/>
  </g>
  <path fill="#191818" d="M132.6 243.7v-35.3c0-3.7 3-6.8 6.8-6.8h4.8c3.7 0 6.8 3 6.8 6.8v35.3c0 3.7-3 6.8-6.8 6.8h-4.8c-3.8-.1-6.8-3.1-6.8-6.8z"/>
  <path fill="#B7B7B7" d="M137.5 241.3v-31.5c0-1.7 1.4-3.1 3.1-3.1h2.2c1.7 0 3.1 1.4 3.1 3.1v31.5c0 1.7-1.4 3.1-3.1 3.1h-2.2c-1.7 0-3.1-1.4-3.1-3.1z"/>
</svg>
