<svg xmlns="http://www.w3.org/2000/svg" baseProfile="tiny" viewBox="0 0 218.3 147.3">
  <path fill="#2C2C2D" d="M109.2 0h92.7c9.1 0 16.5 7.4 16.5 16.5v119.1c0 6.4-5.3 11.7-11.7 11.7h-195C5.3 147.3 0 142 0 135.6V16.5C0 7.4 7.4 0 16.5 0h92.7"/>
  <path fill="#121115" d="M0 15.8v122.4c0 .6.5 1 1.1 1 6.7-.8 12.2-2.6 16.2-4.4 1.8-.8 3.4-2 4.5-3.7 1.5-2.2 2.2-4.9 1.8-7.5L10.5 26.9c-.4-2.8-2.8-5.9-5.1-7.6L0 15.8m218.3 0v122.4c0 .6-.5 1-1.1 1-6.7-.8-12.2-2.6-16.2-4.4-1.8-.8-3.4-2-4.5-3.7-1.5-2.2-2.2-4.9-1.8-7.5l13.1-96.7c.4-2.8 2.8-5.9 5.1-7.6l5.4-3.5M109.2 125.1c17 .2 53.5-4.8 53.5-4.8 25.7-3.5 27.4-13 28.6-34.7l4.3-73.6c0-6.6-5.4-12-12-12H34.7c-6.6 0-12 5.4-12 12L27 85.6c1.3 21.7 2.9 31.2 28.6 34.7 0 0 36.6 5 53.6 4.8z"/>
  <path fill="#232122" d="M109.1 17.8H177c2.9 0 5.3 2.4 5.3 5.3v71.7c0 6.8-5.5 12.3-12.3 12.3h-60.8.1-60.9c-6.8 0-12.3-5.5-12.3-12.3V23c0-2.9 2.4-5.3 5.3-5.3h67.7"/>
  <path fill="#FBE627" d="M55.6 18.5v89-.3h-7.2c-6.8 0-12.3-5.5-12.3-12.3V23.3c0-2.9 2.4-5.3 5.3-5.3h14.2"/>
  <path fill="#121115" d="M55.9 147.3c-.9 0-1.6-.7-1.6-1.6v-10.4c0-.9.7-1.6 1.6-1.6.9 0 1.6.7 1.6 1.6v10.4c0 .9-.7 1.6-1.6 1.6zm21.3 0c-.9 0-1.6-.7-1.6-1.6v-10.4c0-.9.7-1.6 1.6-1.6.9 0 1.6.7 1.6 1.6v10.4c-.1.9-.8 1.6-1.6 1.6zm21.5 0c-.9 0-1.6-.7-1.6-1.6v-10.4c0-.9.7-1.6 1.6-1.6.9 0 1.6.7 1.6 1.6v10.4c-.1.9-.8 1.6-1.6 1.6zm21.2 0c-.9 0-1.6-.7-1.6-1.6v-10.4c0-.9.7-1.6 1.6-1.6.9 0 1.6.7 1.6 1.6v10.4c0 .9-.7 1.6-1.6 1.6zm21.3 0c-.9 0-1.6-.7-1.6-1.6v-10.4c0-.9.7-1.6 1.6-1.6.9 0 1.6.7 1.6 1.6v10.4c-.1.9-.8 1.6-1.6 1.6zm21.2 0c-.9 0-1.6-.7-1.6-1.6v-10.4c0-.9.7-1.6 1.6-1.6.9 0 1.6.7 1.6 1.6v10.4c0 .9-.7 1.6-1.6 1.6z"/>
  <path d="M47 89.7l6.5-6.8V33.7h-4.2L47 36.4m-8.8 44.3H40c.3 0 .6.2.7.7.1.4.2 1 .2 1.7 0 .8-.1 1.4-.2 1.8-.1.5-.4.7-.7.7h-1.8v-1.9H40c.1 0 .2-.1.3-.2.1-.1.1-.3.1-.6 0-.2 0-.4-.1-.5 0-.1-.1-.2-.1-.3h-1.9v-1.4zm1.7-2.5h1v1.7h-2.7v-2.3c0-.6 0-1 .1-1.3.1-.3.2-.5.3-.7s.3-.3.5-.3c.3 0 .5.2.6.5.2.4.2.8.2 1.4v1zm-.5 0v-.5c0-.5-.1-.7-.3-.7-.2 0-.2.2-.2.7v.6h.5zm.9-7.3h.6v4h-2.7v-4h.6v2.4h.4v-1.9h.6v1.9h.4v-2.4zm.6-4.9v1.8l-1 .8v.4h1v1.6h-2.7v-2.7c0-.6.1-1.1.2-1.4.1-.3.3-.5.6-.5.2 0 .3.1.4.2.1.1.2.4.3.7l1.2-.9zm-1.6 3v-.7c0-.2 0-.4-.1-.5 0-.1-.1-.2-.2-.2-.2 0-.3.2-.3.6v.8h.6zM41 88.5c0 .4 0 .8-.1 1.1s-.1.6-.2.8c-.1.2-.2.4-.3.5-.2 0-.3.1-.4.1v-1c.1 0 .2-.1.2-.2.1-.1.1-.2.2-.3 0-.1.1-.3.1-.4v-1c0-.1 0-.3-.1-.4 0-.1-.1-.2-.1-.2 0-.1-.1-.1-.1-.1-.1 0-.1 0-.1.1s-.1.1-.1.3c0 .1-.1.3-.1.5s-.1.4-.1.7c0 .3-.1.6-.1.9 0 .2-.1.4-.2.6-.1.2-.1.3-.2.3-.1.1-.2.1-.3.1-.1 0-.2-.1-.3-.2-.1-.1-.2-.2-.2-.4-.1-.2-.1-.4-.2-.7 0-.3-.1-.6-.1-.9 0-.3 0-.6.1-.9 0-.3.1-.5.2-.7s.2-.4.3-.5c.1-.1.2-.2.4-.2v1c-.3.1-.4.5-.4 1.2 0 .4 0 .6.1.8.1.2.1.3.2.3 0 0 .1 0 .1-.1 0 0 .1-.1.1-.2s0-.2.1-.3c0-.1 0-.3.1-.5 0-.2 0-.4.1-.5 0-.2 0-.4.1-.5 0-.2.1-.3.1-.5s.1-.3.1-.4c.1-.1.1-.2.2-.3.1-.1.2-.1.3-.1.1 0 .2.1.3.2.1.1.2.3.3.5.1.2.1.4.2.7-.3.2-.2.5-.2.8zm4.3-50.4v.5h1.2v.3h-1.2v.5H45v-1.2h.3zm1.2-1.7v.3h-.9l.9.3v.2l-.9.3h.9v.3H45v-.4l1-.4-1-.4v-.4h1.5z"/>
  <path d="M52.4 76h-2l-.1-.3c-1.1-3-3.9-8-4.7-8.2-.1 0-.3 0-.4.1-.3.2-.4.6-.4 1 0 .5.3 1 .8 1.1h.3v6.4l-.7-.1c-2.4-.6-3.9-3.6-3.9-7.5 0-4.4 1.6-7.5 3.9-7.5 1.6 0 2.9 1.6 4 5v-4.7h3.1V76z"/>
  <path fill="#FFF" d="M45.7 67.2c-.7-.2-1.4.7-1.4 1.5 0 .7.5 1.3 1.1 1.5v5.5c-2-.5-3.6-3.2-3.6-7.1s1.4-7.1 3.4-7.1c1.8 0 3.1 2.6 3.9 5.8h.5v-5.6H52v14h-1.3c-1-2.5-3.8-8.2-5-8.5z"/>
  <path d="M52.9 84.1c0 1.9-.2 5.4-1.8 7-.5.5-1.2.8-1.9.8h-.4v-6.3l.3-.1c.3-.1.7-.6.7-1.4 0-.9-.4-1.6-.8-1.6s-.8.7-.8 1.6v.3l.1.5h-2.8l.1-.6v-.2c0-.7-.4-1.2-.7-1.2s-.7.5-.7 1.2.3 1.2.6 1.2l.3.1v5.8h-.4c-.9 0-1.9-.9-2.5-2.1-.6-1.2-.9-3-.9-5.2 0-3.6 1-7.2 2.9-7.2.8 0 1.6.7 2.2 1.8.6-1.6 1.7-2.2 2.6-2.2 2.3 0 3.9 3.4 3.9 7.8z"/>
  <path fill="#FFF" d="M49.2 91.4V86c.6-.1 1-.9 1-1.8 0-1.1-.5-2-1.2-2s-1.2.9-1.2 2v.3H46v-.3c0-.9-.5-1.7-1.1-1.7-.6 0-1.1.7-1.1 1.7 0 .9.4 1.6 1 1.7v5c-.7 0-1.5-.7-2.1-1.9-.6-1.3-.8-3-.8-5 0-3.8 1.1-6.8 2.5-6.8.9 0 1.6 1.1 2.1 2.9h.4c.3-2.2 1.1-3.3 2.3-3.3 1.8 0 3.3 3.3 3.3 7.3s-1 7.3-3.3 7.3"/>
  <path fill="#1D46A5" d="M52.9 34.6v16.3L38.2 66V49.7h.1l14.6-15.1"/>
  <path d="M52.4 46.9l-2.2 2.4 2.2 2.4v9.1l-6.5-6.9-6.3 6.9v-9.2l2.1-2.2-2.1-2.2v-9.1l6.3 6.6 6.5-7.1"/>
  <path fill="#FFF" d="M45.9 53.3L40 59.7v-8l2.2-2.4-2.1-2.3v-7.9l5.9 6.2 6.1-6.6v8l-2.4 2.6 2.4 2.5v7.9l-6.2-6.4z"/>
</svg>
