<?xml version="1.0" encoding="utf-8"?>
<!-- Generator: Adobe Illustrator 19.0.0, SVG Export Plug-In . SVG Version: 6.00 Build 0)  -->
<svg version="1.1" baseProfile="tiny" id="Layer_1" xmlns="http://www.w3.org/2000/svg" xmlns:xlink="http://www.w3.org/1999/xlink"
	 x="0px" y="0px" viewBox="0 0 647.3 342.9" xml:space="preserve">
<path fill="#181515" d="M427.6,444.1"/>
<g>
	<g>
		<rect x="327.7" y="0" fill="#282424" width="65.8" height="343"/>
		<rect x="393.5" y="335.2" fill="#282424" width="30.4" height="7.8"/>
	</g>
	<g>
		<path fill="#312F2F" d="M24.7,0h10.1v1.9h287.4V0l8.7,0c0.5,0,0.9,0,1.4,0C354.7,0.9,357,20.4,357,20.4v286.8c0,0,0.6,5.7-2.1,8.5
			c-5.2,5.4-23.2,23.3-27.2,27.3H26.1c0,0-21.3-20.6-23.5-21.6c-1.5-2-2.6-5.4-2.6-13.7V20.3C0,20.3,2.4,1,24.7,0z"/>
		<path id="XMLID_748_" fill="#3F3F3F" d="M327.9,342.3c-0.1,0.3-0.1,0.5-0.2,0.6H28.1c0,0-8.2-138.1,41.8-144.9
			c9.2-1.1,20.8,1.3,46.9,7.6c26.2,6.2,95.9,6.2,122.1,0c26.2-6.2,37.6-7.6,46.9-7.6c17.3,0,28,16.9,34.5,39.2
			C332,277.3,329.9,334.8,327.9,342.3z"/>
		<path id="XMLID_746_" fill="#181515" d="M178.6,215.1c-35.4,0-42.4-1.7-48.5-2.5c-6-0.8-4.2,4.7-4.2,4.7s3.1,20.4,3.5,28.1
			s8.7,6.7,8.7,6.7h81c0,0,8.3,1.1,8.7-6.7c0.4-7.8,3.5-28.1,3.5-28.1s1.8-5.5-4.2-4.7C221,213.4,213.9,215.1,178.6,215.1z"/>
		<ellipse id="XMLID_745_" fill="#30302F" cx="178.6" cy="106" rx="152.1" ry="87.4"/>
		<ellipse id="XMLID_744_" fill="#181515" cx="178.6" cy="105.8" rx="150.5" ry="85.7"/>
		<ellipse id="XMLID_743_" fill="#2C2929" cx="178.6" cy="103.8" rx="123.7" ry="69.5"/>
		<polygon id="XMLID_742_" fill="#241C1E" points="178.4,132.3 170.8,140.3 186.3,140.3 		"/>
		<g id="SEGA_1_">
			<path id="XMLID_724_" fill="#EFF8FB" d="M202.3,239c-2.5,0-5,0-7.6,0c0-0.6,0-1.1,0-1.8c1.6,0,3.3,0,5.2,0c-0.4-1.1-0.7-2.1-1-3
				c-0.8-2.3-1.5-4.7-2.3-7c-0.2-0.6-0.7-1.2-1.2-1.4c-0.8-0.2-1.1,0.7-1.3,1.4c-1.2,3.6-2.3,7.1-3.5,10.7c-0.3,0.8-0.6,1.1-1.5,1.1
				c-2.3-0.1-4.7,0-7,0c-2.4,0-3.9-1.6-3.9-4c0-2.2-0.1-4.4,0-6.6c0.1-2.5,1.5-4,3.9-4c2.1,0,4.2,0,6.4,0c0,0.6,0,1.2,0,1.9
				c-1.8,0-3.6,0-5.4,0c-2.5,0-3.1,0.6-3.1,3.3c0,1.7,0,3.3,0,5c0,1.8,0.8,2.6,2.5,2.7c1.4,0,2.7,0,4.1,0c0-2,0-3.8,0-5.8
				c-1.2,0-2.3,0-3.4,0c0-0.7,0-1.2,0-1.8c1.8,0,3.5,0,5.4,0c0,2.5,0,5.1,0,7.6c0.1,0,0.2,0,0.3,0c1.1-3.5,2.3-7,3.4-10.5
				c0.6-2,1.8-2.8,3.8-2.5c1.1,0.2,1.9,0.8,2.2,1.8c1.4,4.2,2.7,8.4,4.1,12.6C202.4,238.8,202.3,238.9,202.3,239z"/>
			<path id="XMLID_723_" fill="#EFF8FB" d="M154.8,239c0-0.6,0-1.2,0-1.8c2,0,4,0,6,0c1.7,0,2.9-1.2,3-2.8c0.1-1.5-1.2-2.9-2.8-3
				c-0.7,0-1.3,0-2-0.1c-1-0.1-1.8-1.1-1.8-2.2c0-1.1,0.7-2.1,1.8-2.1c2.2-0.1,4.3,0,6.6,0c0,0.6,0,1.1,0,1.8c-1.1,0-2.2,0-3.3,0
				c-1,0-2,0-3.1,0c0,0.2,0,0.4,0,0.6c0.6,0,1.2,0.1,1.8,0.1c2.3,0.1,3.9,1.4,4.5,3.7c0.7,2.8-1.3,5.7-4,5.8
				C159.3,239.1,157.2,239,154.8,239z"/>
			<path id="XMLID_722_" fill="#EFF8FB" d="M154.8,236.5c0-0.7,0-1.2,0-1.9c2.2,0,4.3,0,6.4,0c0-0.2,0-0.4,0-0.5
				c-0.7,0-1.3-0.1-2-0.1c-1.8,0-3.2-0.9-4-2.6c-0.8-1.7-0.7-3.4,0.4-5c0.7-1.1,1.8-1.8,3-1.9c2.2-0.1,4.5,0,6.8,0
				c0,0.6,0,1.1,0,1.8c-2,0-4,0-6.1,0c-2,0-3.3,1.9-2.7,3.8c0.4,1.1,1.4,1.9,2.7,2c0.6,0,1.3,0,1.9,0.1c1,0.1,1.8,1.1,1.8,2.1
				c0,1.1-0.8,2.1-1.7,2.2C159.3,236.5,157.1,236.5,154.8,236.5z"/>
			<path id="XMLID_721_" fill="#EFF8FB" d="M177.3,224.5c0,0.6,0,1.1,0,1.8c-2,0-4,0-6,0c-2.1,0-2.8,0.7-2.8,2.9c0,1.7,0,3.5,0,5.2
				c0,2,0.8,2.8,2.7,2.8c2,0,4,0,6,0c0,0.6,0,1.1,0,1.9c-1.5,0-2.9,0-4.4,0c-0.9,0-1.8,0-2.8,0c-1.7-0.1-3.2-1.7-3.3-3.5
				c-0.1-2.5-0.1-5.1,0-7.6c0-1.6,1.4-3.3,3-3.4C172.2,224.4,174.7,224.5,177.3,224.5z"/>
			<path id="XMLID_718_" fill="#EFF8FB" d="M190.9,238.9c1.3-4,2.5-7.9,3.8-11.7c0.1-0.3,0.4-0.6,0.6-0.7c0.1-0.1,0.5,0.3,0.6,0.5
				c1,3.1,2.1,6.2,3.1,9.4c-1.5,0-2.9,0-4.3,0c0-0.5-0.1-0.9-0.1-1.3c-0.1,0-0.1,0-0.2-0.1c-0.2,0.7-0.5,1.4-0.7,2.2
				C193,239.2,193,239.2,190.9,238.9z M194.6,234.4c0.6,0,0.9,0,1.5,0c-0.2-0.7-0.4-1.4-0.6-2c-0.1,0-0.2,0-0.3,0
				C195.1,233,194.9,233.6,194.6,234.4z"/>
			<path id="XMLID_717_" fill="#EFF8FB" d="M184.5,234.2c-0.6-0.2-0.9-0.3-1.3-0.4c0-0.5,0-1,0-1.6c0.9,0,1.8,0,2.8,0
				c0,1.4,0,2.8,0,4.3c-1.4,0-2.9,0.1-4.3-0.1c-0.4,0-0.9-0.7-1-1.2c-0.1-2.3-0.1-4.6,0-6.9c0-0.8,0.5-1.3,1.3-1.3
				c2.1,0,4.3,0,6.5,0c0,0.6,0,1.2,0,1.8c-1.6,0-3.2,0-4.8,0c-1,0-1.3,0.3-1.3,1.3c0.1,1.1,0,2.2,0,3.2
				C182.5,234.7,183.1,235,184.5,234.2z"/>
			<path id="XMLID_359_" fill="#EFF8FB" d="M171.1,234.5c2,0.4,4,0,6.1,0.2c0,0.6,0,1.1,0,1.7c-2.4,0-4.7,0.1-7-0.1
				c-0.4,0-0.9-0.8-1-1.3c-0.2-0.9,0-1.9,0-3c2.2,0,4.3,0,6.6,0c0,0.5,0,1.1,0,1.7c-1.5,0-3.1,0-4.6,0
				C171.2,234.1,171.1,234.3,171.1,234.5z"/>
			<path id="XMLID_358_" fill="#EFF8FB" d="M177.3,227c0,0.6,0,1.2,0,1.7c-2,0.3-4.1-0.2-6.1,0.3c0,0.2,0,0.3,0,0.5c1.5,0,3,0,4.6,0
				c0,0.7,0,1.2,0,1.8c-2.1,0-4.3,0-6.5,0c0-1.1-0.1-2.2,0-3.3c0.1-0.4,0.7-1,1-1C172.6,227,174.9,227,177.3,227z"/>
		</g>
		<g id="XMLID_212_">
			<path id="XMLID_90_" fill="#241C1E" d="M152.6,144.9l-1.3,0.1c0-0.9-0.3-1.4-0.9-1.4c-0.7,0-1,0.7-1,2.1c0,0.8,0.1,1.4,0.3,1.6
				c0.2,0.3,0.4,0.4,0.8,0.4c0.5,0,0.8-0.4,1-1.2l1.2,0.1c-0.1,0.8-0.3,1.4-0.7,1.8c-0.4,0.4-0.9,0.6-1.5,0.6
				c-0.7,0-1.3-0.3-1.8-0.9c-0.4-0.6-0.7-1.4-0.7-2.4c0-1,0.2-1.8,0.7-2.4c0.4-0.6,1-0.9,1.8-0.9
				C151.7,142.4,152.4,143.2,152.6,144.9z"/>
			<path id="XMLID_87_" fill="#241C1E" d="M155.5,142.5l1.7,6.4h-1.4l-0.3-1.3h-1.8l-0.3,1.3h-1.1l1.7-6.4H155.5z M154.1,146.4h1.2
				l-0.6-2.3L154.1,146.4z"/>
			<path id="XMLID_84_" fill="#241C1E" d="M158.8,146.4v2.5h-1.3v-6.4h2.4c0.4,0,0.8,0.1,1.1,0.2c0.3,0.1,0.5,0.3,0.7,0.7
				c0.2,0.3,0.3,0.7,0.3,1.1c0,0.8-0.3,1.3-0.9,1.7l1,2.8h-1.4l-0.8-2.5H158.8z M158.8,143.7v1.6h0.8c0.3,0,0.4,0,0.6-0.1
				c0.1,0,0.2-0.1,0.3-0.3c0.1-0.1,0.1-0.3,0.1-0.5c0-0.2,0-0.3-0.1-0.5s-0.2-0.2-0.3-0.3c-0.1,0-0.3,0-0.6,0H158.8z"/>
			<path id="XMLID_82_" fill="#241C1E" d="M166.1,142.5v1.3h-1.3v5.2h-1.3v-5.2h-1.4v-1.3H166.1z"/>
			<path id="XMLID_79_" fill="#241C1E" d="M167.8,146.4v2.5h-1.3v-6.4h2.4c0.4,0,0.8,0.1,1.1,0.2c0.3,0.1,0.5,0.3,0.7,0.7
				c0.2,0.3,0.3,0.7,0.3,1.1c0,0.8-0.3,1.3-0.9,1.7l1,2.8h-1.4l-0.8-2.5H167.8z M167.8,143.7v1.6h0.8c0.3,0,0.4,0,0.6-0.1
				c0.1,0,0.2-0.1,0.3-0.3c0.1-0.1,0.1-0.3,0.1-0.5c0-0.2,0-0.3-0.1-0.5c-0.1-0.1-0.2-0.2-0.3-0.3c-0.1,0-0.3,0-0.6,0H167.8z"/>
			<path id="XMLID_77_" fill="#241C1E" d="M172.5,142.5v6.4h-1.3v-6.4H172.5z"/>
			<path id="XMLID_18_" fill="#241C1E" d="M172.9,142.5h1.7c0.7,0,1.2,0.1,1.5,0.3c0.3,0.2,0.6,0.6,0.9,1.1c0.3,0.5,0.4,1.1,0.4,1.8
				c0,0.9-0.2,1.7-0.7,2.3c-0.5,0.6-1.1,0.9-1.9,0.9h-1.9V142.5z M174.2,143.7v4h0.5c0.5,0,0.8-0.2,1-0.6c0.2-0.4,0.3-0.9,0.3-1.4
				c0-0.4-0.1-0.7-0.2-1.1c-0.1-0.3-0.3-0.6-0.5-0.7c-0.2-0.1-0.4-0.2-0.7-0.2H174.2z"/>
			<path id="XMLID_16_" fill="#241C1E" d="M182.1,145.5c0,0,0,2-0.7,2.8c-0.7,0.7-0.9,0.8-1.5,0.8c-0.7,0-1.3-0.3-1.7-0.9
				c-0.4-0.6-0.6-1.4-0.6-2.3c0-1,0.2-1.8,0.6-2.5c0.4-0.6,1-0.9,1.7-0.9c0.6,0,1.1,0.2,1.5,0.6c0.4,0.4,0.6,0.9,0.7,1.6l-1.2,0.2
				c-0.1-0.8-0.4-1.2-0.9-1.2c-0.3,0-0.6,0.2-0.8,0.6c-0.2,0.4-0.3,0.9-0.3,1.6c0,0.7,0.1,1.2,0.3,1.5c0.2,0.3,0.5,0.5,0.8,0.5
				c0.2,0,0.4-0.1,0.6-0.3c0.2-0.2,0.3-0.5,0.3-0.8h-1v-1.2H182.1z"/>
			<path id="XMLID_14_" fill="#241C1E" d="M186.3,143.7h-2.6v1.3h2v1.2h-2v1.4h2.6v1.3h-3.9v-6.4h3.9V143.7z"/>
			<path id="XMLID_12_" fill="#241C1E" d="M191.3,142.5v6.4H190v-6.4H191.3z"/>
			<path id="XMLID_10_" fill="#241C1E" d="M195.8,142.5v6.4h-1.1l-2.1-4.3c0,0.1,0,0.2,0,0.2c0,0.1,0,0.2,0,0.3v3.8h-1v-6.4h1.4
				l1.8,3.8c0-0.2,0-0.3,0-0.4v-3.4H195.8z"/>
			<path id="XMLID_7_" fill="#241C1E" d="M197.3,146.6v2.4H196v-6.4h2.1c0.5,0,0.8,0.1,1.1,0.2c0.3,0.1,0.5,0.3,0.7,0.6
				c0.2,0.3,0.3,0.7,0.3,1.1c0,0.3-0.1,0.6-0.2,0.9c-0.1,0.3-0.3,0.5-0.4,0.7c-0.2,0.2-0.4,0.3-0.6,0.3c-0.2,0.1-0.5,0.1-0.9,0.1
				H197.3z M197.3,145.4h0.8c0.3,0,0.5-0.1,0.7-0.3s0.2-0.4,0.2-0.6c0-0.3-0.1-0.5-0.2-0.6c-0.1-0.2-0.4-0.2-0.6-0.2h-0.8V145.4z"/>
			<path id="XMLID_5_" fill="#241C1E" d="M204.8,142.5v4c0,0.6-0.1,1.1-0.2,1.4c-0.1,0.3-0.4,0.6-0.7,0.8c-0.3,0.2-0.8,0.3-1.3,0.3
				c-0.5,0-0.9-0.1-1.2-0.3s-0.5-0.4-0.7-0.8s-0.2-0.8-0.2-1.5v-4h1.4v4c0,0.3,0,0.6,0.1,0.8c0,0.2,0.1,0.3,0.3,0.4s0.3,0.1,0.5,0.1
				c0.2,0,0.4,0,0.6-0.1s0.2-0.2,0.3-0.4c0-0.2,0.1-0.4,0.1-0.8v-4H204.8z"/>
			<path id="XMLID_3_" fill="#241C1E" d="M209.1,142.5v1.3h-1.3v5.2h-1.3v-5.2h-1.4v-1.3H209.1z"/>
		</g>
		<g>
			<path fill="#181515" d="M272.3,122.3H84.8c-10.3,0-18.8-8.5-18.8-18.8V101c0-10.3,8.5-18.8,18.8-18.8h187.4
				c10.3,0,18.8,8.5,18.8,18.8v2.5C291.1,113.8,282.6,122.3,272.3,122.3z"/>
			<path d="M178.2,117.8H267c5.9,0,10.8-4.6,10.8-20.3H267v-8.1h0.4h-88.8h0H89.8h0.4v8.1H79.4c0,15.6,4.8,20.3,10.8,20.3h88.8"/>
			<path fill="#282424" d="M178.2,116.7h87.9c5.9,0,10.7-4.3,10.7-18.8h-10.7v-7.5h0.4h-87.9h0H90.6H91V98H80.3
				c0,14.5,4.8,18.8,10.7,18.8h87.9"/>
			<rect x="80.9" y="104.9" fill="#010102" width="195.4" height="1"/>
			<g>
				<g>
					<path fill="#363636" d="M103.7,93.3h-1.9c0-0.4,0.4-0.8,0.9-0.8l0,0C103.2,92.5,103.7,92.9,103.7,93.3z"/>
					<path fill="#464646" d="M103.7,101.8h-1.9c0,0.4,0.4,0.8,0.9,0.8l0,0C103.2,102.6,103.7,102.3,103.7,101.8z"/>
					<rect x="101.8" y="93.3" fill="#424141" width="1.9" height="8.6"/>
				</g>
				<g>
					<path fill="#363636" d="M103.7,108.2h-1.9c0-0.3,0.4-0.6,0.9-0.6l0,0C103.2,107.6,103.7,107.8,103.7,108.2z"/>
					<path fill="#464646" d="M103.7,115.1h-1.9c0,0.3,0.4,0.6,0.9,0.6l0,0C103.2,115.7,103.7,115.4,103.7,115.1z"/>
					<rect x="101.8" y="108.2" fill="#424141" width="1.9" height="6.9"/>
				</g>
				<g>
					<path fill="#363636" d="M253.4,93.3h1.9c0-0.4-0.4-0.8-0.9-0.8l0,0C253.9,92.5,253.4,92.9,253.4,93.3z"/>
					<path fill="#464646" d="M253.4,101.8h1.9c0,0.4-0.4,0.8-0.9,0.8l0,0C253.9,102.6,253.4,102.3,253.4,101.8z"/>
					<rect x="253.4" y="93.3" fill="#424141" width="1.9" height="8.6"/>
				</g>
				<g>
					<path fill="#363636" d="M253.4,108.2h1.9c0-0.3-0.4-0.6-0.9-0.6l0,0C253.9,107.6,253.4,107.8,253.4,108.2z"/>
					<path fill="#464646" d="M253.4,115.1h1.9c0,0.3-0.4,0.6-0.9,0.6l0,0C253.9,115.7,253.4,115.4,253.4,115.1z"/>
					<rect x="253.4" y="108.2" fill="#424141" width="1.9" height="6.9"/>
				</g>
			</g>
		</g>
		<path id="XMLID_250_" fill="#181515" d="M43.5,220.3c6.2-12.2,16-18.4,27.5-20c9.2-1.1,22.7,3.9,48.9,10.1
			c13.1,3.1,33.9,4.7,58,4.6c24.1,0,44.9-1.5,58-4.6c26.2-6.2,39.6-11.2,48.9-10.1c11.5,1.6,22.5,7.4,28.6,19.6
			c-6.5-13.2-15.5-21.9-28-21.9c-9.3,0-20.8,1.3-46.9,7.6c-13,3.1-36.8,4.7-60.6,4.7c-24.1,0-48.3-1.5-61.4-4.7
			c-26.2-6.2-37.7-8.7-46.9-7.6C58.1,199.6,49.7,208.1,43.5,220.3z"/>
		<g>
			<path id="XMLID_350_" fill="#3F4040" d="M286.3,277.2c0,13.2-15.2,15.5-15.2,15.5h-92.5c0,0-89.8,0-92.5,0
				c-2.7,0-15.2-2.2-15.2-15.5c0-13.2,15.2-15.5,15.2-15.5h92.5h92.5C271.1,261.7,286.3,264,286.3,277.2z"/>
			<path id="XMLID_349_" fill="#333333" d="M274,289.1H83.4c-4.8,0-8.8-3.9-8.8-8.8v-6.1c0-4.8,3.9-8.8,8.8-8.8H274
				c4.8,0,8.8,3.9,8.8,8.8v6.1C282.8,285.2,278.9,289.1,274,289.1z"/>
			<path id="voyant_6_" fill="#631418" d="M174.3,284h-2.6c-0.3,0-0.6-0.3-0.6-0.6v-11.5c0-0.3,0.3-0.6,0.6-0.6h2.6
				c0.3,0,0.6,0.3,0.6,0.6v11.5C174.9,283.7,174.6,284,174.3,284z"/>
			<path id="voyant_5_" fill="#631418" d="M179.8,284h-2.6c-0.3,0-0.6-0.3-0.6-0.6v-11.5c0-0.3,0.3-0.6,0.6-0.6h2.6
				c0.3,0,0.6,0.3,0.6,0.6v11.5C180.5,283.7,180.2,284,179.8,284z"/>
			<path id="voyant_4_" fill="#631418" d="M185.4,284h-2.6c-0.3,0-0.6-0.3-0.6-0.6v-11.5c0-0.3,0.3-0.6,0.6-0.6h2.6
				c0.3,0,0.6,0.3,0.6,0.6v11.5C186,283.7,185.7,284,185.4,284z"/>
			<path id="bouton_8_" fill="#212020" d="M271.8,285.4h-35.7c-3.4,0-6.1-2.7-6.1-6.1v-4.3c0-3.4,2.7-6.1,6.1-6.1h35.7
				c3.4,0,6.1,2.7,6.1,6.1v4.3C277.9,282.7,275.1,285.4,271.8,285.4z"/>
			<path id="bouton_6_" fill="#212020" d="M121.7,285.4H86c-3.4,0-6.1-2.7-6.1-6.1v-4.3c0-3.4,2.7-6.1,6.1-6.1h35.7
				c3.4,0,6.1,2.7,6.1,6.1v4.3C127.8,282.7,125.1,285.4,121.7,285.4z"/>
			<path id="bouton_5_" fill="#5C5C5C" d="M116.3,280.6H92c-1,0-1.8-0.8-1.8-1.8v-3.2c0-1,0.8-1.8,1.8-1.8h24.3c1,0,1.8,0.8,1.8,1.8
				v3.2C118.1,279.8,117.3,280.6,116.3,280.6z"/>
			<g>
				<path fill="#241C1E" d="M93.9,275.3h1.5c0.1,0,0.3,0,0.4,0c0.1,0,0.3,0,0.4,0.1c0.1,0,0.2,0.1,0.3,0.1c0.1,0.1,0.2,0.1,0.2,0.2
					c0.1,0.1,0.1,0.2,0.2,0.3c0,0.1,0.1,0.3,0.1,0.4c0,0.4-0.1,0.7-0.4,0.9c-0.3,0.2-0.6,0.3-1.1,0.3h-0.8v1.5h-0.7V275.3z
					 M94.6,277.1h0.8c0.1,0,0.3,0,0.3,0s0.2-0.1,0.2-0.1c0.1,0,0.1-0.1,0.1-0.2c0-0.1,0-0.2,0-0.2c0-0.1,0-0.2-0.1-0.3
					c0-0.1-0.1-0.1-0.2-0.2c-0.1,0-0.2-0.1-0.2-0.1c-0.1,0-0.2,0-0.3,0h-0.8V277.1z"/>
				<path fill="#241C1E" d="M99.4,275.2c0.3,0,0.5,0,0.8,0.1s0.4,0.2,0.6,0.4c0.2,0.2,0.3,0.4,0.4,0.6c0.1,0.3,0.1,0.5,0.1,0.8
					c0,0.3,0,0.6-0.1,0.8c-0.1,0.3-0.2,0.5-0.4,0.6c-0.2,0.2-0.4,0.3-0.6,0.4s-0.5,0.1-0.8,0.1c-0.3,0-0.5,0-0.8-0.1
					c-0.2-0.1-0.4-0.2-0.6-0.4c-0.2-0.2-0.3-0.4-0.4-0.6c-0.1-0.3-0.1-0.5-0.1-0.8c0-0.3,0-0.6,0.1-0.8c0.1-0.3,0.2-0.5,0.4-0.6
					c0.2-0.2,0.4-0.3,0.6-0.4C98.9,275.3,99.2,275.2,99.4,275.2z M99.4,278.7c0.2,0,0.3,0,0.5-0.1c0.1-0.1,0.3-0.2,0.4-0.3
					c0.1-0.1,0.2-0.3,0.2-0.4c0.1-0.2,0.1-0.4,0.1-0.6c0-0.2,0-0.4-0.1-0.6c-0.1-0.2-0.1-0.3-0.2-0.4c-0.1-0.1-0.2-0.2-0.4-0.3
					c-0.1-0.1-0.3-0.1-0.5-0.1c-0.2,0-0.3,0-0.5,0.1c-0.1,0.1-0.3,0.2-0.4,0.3c-0.1,0.1-0.2,0.3-0.2,0.4c-0.1,0.2-0.1,0.4-0.1,0.6
					c0,0.2,0,0.4,0.1,0.6c0.1,0.2,0.1,0.3,0.2,0.4c0.1,0.1,0.2,0.2,0.4,0.3C99.1,278.6,99.3,278.7,99.4,278.7z"/>
				<path fill="#241C1E" d="M106.9,275.3l-1.1,4h-0.7l-0.8-2.9l-0.8,2.9h-0.7l-1.1-4h0.8l0.7,2.7l0.7-2.7h0.8l0.7,2.7l0.7-2.7H106.9
					z"/>
				<path fill="#241C1E" d="M110.5,279.3h-3v-4h2.9v0.7h-2.2v0.9h2.1v0.7h-2.1v1h2.3V279.3z"/>
				<path fill="#241C1E" d="M114.7,279.3h-0.8l-0.4-1.1c0-0.1-0.1-0.1-0.1-0.2s-0.1-0.1-0.2-0.2c-0.1,0-0.1-0.1-0.2-0.1
					c-0.1,0-0.1,0-0.2,0H112v1.6h-0.7v-4h1.8c0.1,0,0.2,0,0.3,0c0.1,0,0.2,0,0.3,0c0.1,0,0.2,0,0.3,0.1c0.1,0,0.2,0.1,0.2,0.1
					c0.1,0.1,0.1,0.1,0.2,0.2c0,0.1,0.1,0.1,0.1,0.2c0,0.1,0.1,0.2,0.1,0.2c0,0.1,0,0.2,0,0.2c0,0.2-0.1,0.4-0.2,0.6
					s-0.3,0.3-0.5,0.4c0.2,0.1,0.3,0.3,0.4,0.6L114.7,279.3z M112,277h1c0.1,0,0.2,0,0.3,0c0.1,0,0.2,0,0.2-0.1
					c0.1,0,0.1-0.1,0.1-0.2c0-0.1,0-0.1,0-0.2c0-0.2-0.1-0.3-0.2-0.4c-0.1-0.1-0.3-0.1-0.5-0.1H112V277z"/>
			</g>
			<path id="bouton_7_" fill="#5C5C5C" d="M266.1,280.6h-24.3c-1,0-1.8-0.8-1.8-1.8v-3.2c0-1,0.8-1.8,1.8-1.8h24.3
				c1,0,1.8,0.8,1.8,1.8v3.2C267.9,279.8,267.1,280.6,266.1,280.6z"/>
			<g>
				<path fill="#241C1E" d="M248.3,279.3h-0.8l-0.4-1.1c0-0.1-0.1-0.1-0.1-0.2c0-0.1-0.1-0.1-0.2-0.2c-0.1,0-0.1-0.1-0.2-0.1
					c-0.1,0-0.1,0-0.2,0h-0.8v1.6h-0.7v-4h1.8c0.1,0,0.2,0,0.3,0c0.1,0,0.2,0,0.3,0c0.1,0,0.2,0,0.3,0.1c0.1,0,0.2,0.1,0.2,0.1
					c0.1,0.1,0.1,0.1,0.2,0.2c0,0.1,0.1,0.1,0.1,0.2c0,0.1,0.1,0.2,0.1,0.2c0,0.1,0,0.2,0,0.2c0,0.2-0.1,0.4-0.2,0.6
					c-0.1,0.2-0.3,0.3-0.5,0.4c0.2,0.1,0.3,0.3,0.4,0.6L248.3,279.3z M245.6,277h1c0.1,0,0.2,0,0.3,0c0.1,0,0.2,0,0.2-0.1
					c0.1,0,0.1-0.1,0.1-0.2c0-0.1,0-0.1,0-0.2c0-0.2-0.1-0.3-0.2-0.4c-0.1-0.1-0.3-0.1-0.5-0.1h-1.1V277z"/>
				<path fill="#241C1E" d="M252,279.3h-3v-4h2.9v0.7h-2.2v0.9h2.1v0.7h-2.1v1h2.3V279.3z"/>
				<path fill="#241C1E" d="M254.3,279.3c-0.3,0-0.5,0-0.7-0.1c-0.2-0.1-0.4-0.2-0.5-0.3c-0.1-0.1-0.3-0.3-0.3-0.5
					c-0.1-0.2-0.1-0.4-0.1-0.6h0.7c0,0.1,0,0.3,0.1,0.4c0.1,0.1,0.1,0.2,0.2,0.3c0.1,0.1,0.2,0.1,0.3,0.1c0.1,0,0.2,0,0.4,0
					c0.1,0,0.2,0,0.3,0c0.1,0,0.2-0.1,0.3-0.1c0.1,0,0.1-0.1,0.2-0.2c0-0.1,0.1-0.1,0.1-0.2c0-0.1,0-0.2-0.1-0.2
					c0-0.1-0.1-0.1-0.2-0.2c-0.1,0-0.2-0.1-0.3-0.1c-0.1,0-0.3-0.1-0.5-0.1c-0.2-0.1-0.4-0.1-0.6-0.2c-0.2-0.1-0.3-0.1-0.4-0.2
					c-0.1-0.1-0.2-0.2-0.2-0.3c-0.1-0.1-0.1-0.3-0.1-0.4c0-0.2,0-0.3,0.1-0.5c0.1-0.1,0.2-0.3,0.3-0.4c0.1-0.1,0.3-0.2,0.5-0.2
					c0.2-0.1,0.4-0.1,0.6-0.1c0.2,0,0.4,0,0.6,0.1c0.2,0.1,0.3,0.1,0.5,0.3s0.2,0.3,0.3,0.4c0.1,0.2,0.1,0.4,0.1,0.6H255
					c-0.1-0.4-0.3-0.7-0.8-0.7c-0.2,0-0.4,0-0.5,0.1c-0.1,0.1-0.2,0.2-0.2,0.3c0,0.1,0,0.1,0,0.1c0,0,0.1,0.1,0.1,0.1
					c0.1,0,0.1,0.1,0.2,0.1c0.1,0,0.2,0.1,0.3,0.1c0.1,0,0.2,0.1,0.4,0.1c0.1,0,0.2,0.1,0.4,0.1c0.1,0,0.2,0.1,0.3,0.2
					c0.1,0.1,0.2,0.1,0.3,0.2c0.1,0.1,0.1,0.2,0.2,0.3c0,0.1,0.1,0.3,0.1,0.4c0,0.2,0,0.3-0.1,0.5s-0.2,0.3-0.3,0.4
					c-0.1,0.1-0.3,0.2-0.5,0.3C254.7,279.3,254.5,279.3,254.3,279.3z"/>
				<path fill="#241C1E" d="M259.6,279.3h-3v-4h2.9v0.7h-2.2v0.9h2.1v0.7h-2.1v1h2.3V279.3z"/>
				<path fill="#241C1E" d="M263.3,276h-1.2v3.3h-0.7V276h-1.2v-0.7h3.2V276z"/>
			</g>
			<path id="voyant_7_" fill="#F95D5D" d="M184.7,282.8h-1.2c-0.3,0-0.6-0.3-0.6-0.6v-9.1c0-0.3,0.3-0.6,0.6-0.6h1.2
				c0.3,0,0.6,0.3,0.6,0.6v9.1C185.3,282.5,185,282.8,184.7,282.8z"/>
			<path id="voyant_8_" fill="#F95D5D" d="M179.2,282.8h-1.2c-0.3,0-0.6-0.3-0.6-0.6v-9.1c0-0.3,0.3-0.6,0.6-0.6h1.2
				c0.3,0,0.6,0.3,0.6,0.6v9.1C179.8,282.5,179.5,282.8,179.2,282.8z"/>
			<path id="voyant_9_" fill="#F95D5D" d="M173.6,282.8h-1.2c-0.3,0-0.6-0.3-0.6-0.6v-9.1c0-0.3,0.3-0.6,0.6-0.6h1.2
				c0.3,0,0.6,0.3,0.6,0.6v9.1C174.2,282.5,173.9,282.8,173.6,282.8z"/>
		</g>
		<g>
			<g id="polygon9_1_">
				<path fill="#EFF8FB" d="M235.9,73.1H121.2l-8.4-4.9v-11l7.9-4.6h115.7l8,4.7v11L235.9,73.1z M121.5,72.1h114.2l7.6-4.5v-9.8
					l-7.2-4.2H121l-7.2,4.2v9.8L121.5,72.1z"/>
			</g>
			<g>
				<polygon id="polygon15_1_" fill="#EFF8FB" points="198.1,61.4 209.8,61.4 209.8,66.1 205.6,68.9 192.7,68.9 197,66 204.6,66 
					204.6,64.3 192.9,64.3 192.9,59.7 197.2,56.7 197.2,56.7 210.1,56.7 205.8,59.6 198.1,59.6 				"/>
				<polygon id="polygon17_1_" fill="#EFF8FB" points="211.4,56.7 211.4,56.7 216.7,56.7 216.7,68.9 211.4,68.9 				"/>
				<polygon id="polygon19_1_" fill="#EFF8FB" points="223.9,61.4 235.6,61.4 235.6,66.1 231.4,68.9 218.6,68.9 222.8,66 230.4,66 
					230.4,64.3 218.7,64.3 218.7,59.7 223,56.7 223,56.7 235.9,56.7 231.6,59.6 223.9,59.6 				"/>
				<polygon id="polygon21_1_" fill="#EFF8FB" points="181.5,66 181.5,64.3 186.5,64.3 190.8,61.4 181.5,61.4 181.5,59.6 
					189.1,59.6 193.3,56.7 180.8,56.7 176.3,59.6 176.3,59.6 176.3,68.9 189,68.9 193.3,66 				"/>
				<polygon id="polygon23_1_" fill="#EFF8FB" points="144.8,66 144.8,64.3 149.8,64.3 154.1,61.4 144.8,61.4 144.8,59.6 
					152.4,59.6 156.6,56.7 144.2,56.7 139.6,59.6 139.6,59.6 139.6,68.9 152.3,68.9 156.6,66 				"/>
				<polygon id="polygon25_1_" fill="#EFF8FB" points="169.6,64.9 163.1,60.8 163.1,68.9 157.8,68.9 157.8,56.7 163.1,56.7 
					169.6,60.3 169.6,56.7 169.6,56.7 174.8,56.7 174.8,68.9 169.6,68.9 				"/>
				<polygon id="polygon27_1_" fill="#EFF8FB" points="126.5,59.6 126.5,66 133,66 133,64.3 127.7,64.3 131.9,61.4 138.2,61.4 
					138.2,66.2 134.2,68.9 121.2,68.9 121.2,59.7 121.2,59.7 125.6,56.7 139.8,56.7 135.6,59.6 				"/>
			</g>
		</g>
		<g>
			<path id="XMLID_747_" fill="#444546" d="M322.2,1.9v12c0,0-0.1,1.5-2.1,1.5c-2,0-141.6,0-141.6,0S39,15.4,37,15.4
				c-2,0-2.1-1.5-2.1-1.5v-12L178.6,2L322.2,1.9z"/>
			<g id="XMLID_139_">
				<rect id="XMLID_211_" x="36.1" fill="#282424" width="2.6" height="13.7"/>
				<rect id="XMLID_210_" x="40.1" fill="#282424" width="2.6" height="13.7"/>
				<rect id="XMLID_209_" x="44.1" fill="#282424" width="2.6" height="13.7"/>
				<rect id="XMLID_208_" x="48.1" fill="#282424" width="2.6" height="13.7"/>
				<rect id="XMLID_207_" x="52.1" fill="#282424" width="2.6" height="13.7"/>
				<rect id="XMLID_206_" x="56.1" fill="#282424" width="2.6" height="13.7"/>
				<rect id="XMLID_205_" x="60.2" fill="#282424" width="2.6" height="13.7"/>
				<rect id="XMLID_204_" x="64.2" fill="#282424" width="2.6" height="13.7"/>
				<rect id="XMLID_203_" x="68.3" fill="#282424" width="2.6" height="13.7"/>
				<rect id="XMLID_202_" x="72.3" fill="#282424" width="2.6" height="13.7"/>
				<rect id="XMLID_201_" x="76.4" fill="#282424" width="2.6" height="13.7"/>
				<rect id="XMLID_200_" x="80.4" fill="#282424" width="2.6" height="13.7"/>
				<rect id="XMLID_199_" x="84.3" fill="#282424" width="2.6" height="13.7"/>
				<rect id="XMLID_198_" x="88.3" fill="#282424" width="2.6" height="13.7"/>
				<rect id="XMLID_197_" x="92.4" fill="#282424" width="2.6" height="13.7"/>
				<rect id="XMLID_196_" x="96.4" fill="#282424" width="2.6" height="13.7"/>
				<rect id="XMLID_195_" x="100.5" fill="#282424" width="2.6" height="13.7"/>
				<rect id="XMLID_194_" x="104.5" fill="#282424" width="2.6" height="13.7"/>
				<rect id="XMLID_193_" x="108.5" fill="#282424" width="2.6" height="13.7"/>
				<rect id="XMLID_192_" x="112.5" fill="#282424" width="2.6" height="13.7"/>
				<rect id="XMLID_191_" x="116.5" fill="#282424" width="2.6" height="13.7"/>
				<rect id="XMLID_190_" x="120.5" fill="#282424" width="2.6" height="13.7"/>
				<rect id="XMLID_189_" x="124.6" fill="#282424" width="2.6" height="13.7"/>
				<rect id="XMLID_188_" x="128.6" fill="#282424" width="2.6" height="13.7"/>
				<rect id="XMLID_187_" x="132.6" fill="#282424" width="2.6" height="13.7"/>
				<rect id="XMLID_186_" x="136.6" fill="#282424" width="2.6" height="13.7"/>
				<rect id="XMLID_185_" x="140.7" fill="#282424" width="2.6" height="13.7"/>
				<rect id="XMLID_184_" x="144.7" fill="#282424" width="2.6" height="13.7"/>
				<rect id="XMLID_183_" x="148.6" fill="#282424" width="2.6" height="13.7"/>
				<rect id="XMLID_182_" x="152.7" fill="#282424" width="2.6" height="13.7"/>
				<rect id="XMLID_181_" x="156.7" fill="#282424" width="2.6" height="13.7"/>
				<rect id="XMLID_180_" x="160.7" fill="#282424" width="2.6" height="13.7"/>
				<rect id="XMLID_179_" x="165" fill="#282424" width="2.6" height="13.7"/>
				<rect id="XMLID_178_" x="169.1" fill="#282424" width="2.6" height="13.7"/>
				<rect id="XMLID_177_" x="173.1" fill="#282424" width="2.6" height="13.7"/>
				<rect id="XMLID_176_" x="177" fill="#282424" width="2.6" height="13.7"/>
				<rect id="XMLID_175_" x="181" fill="#282424" width="2.6" height="13.7"/>
				<rect id="XMLID_174_" x="185.1" fill="#282424" width="2.6" height="13.7"/>
				<rect id="XMLID_173_" x="189.1" fill="#282424" width="2.6" height="13.7"/>
				<rect id="XMLID_172_" x="193.2" fill="#282424" width="2.6" height="13.7"/>
				<rect id="XMLID_171_" x="197.2" fill="#282424" width="2.6" height="13.7"/>
				<rect id="XMLID_170_" x="201.3" fill="#282424" width="2.6" height="13.7"/>
				<rect id="XMLID_169_" x="205.3" fill="#282424" width="2.6" height="13.7"/>
				<rect id="XMLID_168_" x="209.2" fill="#282424" width="2.6" height="13.7"/>
				<rect id="XMLID_167_" x="213.2" fill="#282424" width="2.6" height="13.7"/>
				<rect id="XMLID_166_" x="217.3" fill="#282424" width="2.6" height="13.7"/>
				<rect id="XMLID_165_" x="221.3" fill="#282424" width="2.6" height="13.7"/>
				<rect id="XMLID_164_" x="225.7" fill="#282424" width="2.6" height="13.7"/>
				<rect id="XMLID_163_" x="229.8" fill="#282424" width="2.6" height="13.7"/>
				<rect id="XMLID_162_" x="233.8" fill="#282424" width="2.6" height="13.7"/>
				<rect id="XMLID_161_" x="237.7" fill="#282424" width="2.6" height="13.7"/>
				<rect id="XMLID_160_" x="241.7" fill="#282424" width="2.6" height="13.7"/>
				<rect id="XMLID_159_" x="245.8" fill="#282424" width="2.6" height="13.7"/>
				<rect id="XMLID_158_" x="249.8" fill="#282424" width="2.6" height="13.7"/>
				<rect id="XMLID_157_" x="253.9" fill="#282424" width="2.6" height="13.7"/>
				<rect id="XMLID_156_" x="257.9" fill="#282424" width="2.6" height="13.7"/>
				<rect id="XMLID_155_" x="262" fill="#282424" width="2.6" height="13.7"/>
				<rect id="XMLID_154_" x="266" fill="#282424" width="2.6" height="13.7"/>
				<rect id="XMLID_153_" x="269.9" fill="#282424" width="2.6" height="13.7"/>
				<rect id="XMLID_152_" x="273.9" fill="#282424" width="2.6" height="13.7"/>
				<rect id="XMLID_151_" x="278" fill="#282424" width="2.6" height="13.7"/>
				<rect id="XMLID_150_" x="282" fill="#282424" width="2.6" height="13.7"/>
				<rect id="XMLID_149_" x="286.2" fill="#282424" width="2.6" height="13.7"/>
				<rect id="XMLID_148_" x="290.3" fill="#282424" width="2.6" height="13.7"/>
				<rect id="XMLID_146_" x="294.3" fill="#282424" width="2.6" height="13.7"/>
				<rect id="XMLID_145_" x="298.2" fill="#282424" width="2.6" height="13.7"/>
				<rect id="XMLID_144_" x="302.2" fill="#282424" width="2.6" height="13.7"/>
				<rect id="XMLID_143_" x="306.3" fill="#282424" width="2.6" height="13.7"/>
				<rect id="XMLID_142_" x="310.3" fill="#282424" width="2.6" height="13.7"/>
				<rect id="XMLID_141_" x="314.4" fill="#282424" width="2.6" height="13.7"/>
				<rect id="XMLID_140_" x="318.4" fill="#282424" width="2.6" height="13.7"/>
			</g>
		</g>
	</g>
	<g>
		<path fill="#3F3F3F" d="M364.5,309.1V14.2C364.5,6.4,370,0,376.6,0l17,0l0,1.9h223.8V0l17.9,0c6.6,0,12.1,6.4,12.1,14.2V217
			c0,69.3-48.2,126-107,126l-118.2,0c-18,0-35.4-9.5-46.7-22.1"/>
		<path fill="#312F2F" d="M540.3,291H421.6c-9.5,0-19,1.5-28.1,4.4l-29,13.7V12c0-6.6,5.4-12,12.1-12h17l0,1.9l223.8,0.4V0l17.9,0
			c6.6,0,12.1,5.4,12.1,12v172.1C647.3,242.9,599.2,291,540.3,291z"/>
		<g>
			<path fill="#181515" d="M526.4,277.4h-85.2c-31.6,0-57.4-25.7-57.4-57.3V66.6c0-14.5,11.8-26.3,26.3-26.3h196.8
				c14.5,0,26.3,11.8,26.3,26.3v104.1C633.2,229.6,585.3,277.4,526.4,277.4z M410.1,41.3c-14,0-25.3,11.3-25.3,25.3v153.5
				c0,31.1,25.3,56.3,56.4,56.3h85.2c58.3,0,105.8-47.4,105.8-105.7V66.6c0-13.9-11.4-25.3-25.3-25.3H410.1z"/>
		</g>
		<rect x="384.3" y="94.8" fill="#181515" width="248.4" height="1.8"/>
		<g>
			<g>
				<path fill="#EFF8FB" d="M470.4,70.7l-0.3-0.2c0-0.1,0-0.2,0-0.3c0-0.3-1.9-1.7-5.1-1.7c-3.1,0-4.4,1-4.4,2.3
					c0,3.4,11.7-1.6,11.7,5.9c0,2.7-2.5,4.8-7.6,4.8c-4.9,0-6.3-1.6-6.7-1.6c-0.1,0-0.2,0.1-0.3,0.2l-0.3-0.1l1.7-3.5l0.3,0.2
					c0,0.1,0,0.2,0,0.3c0,1.2,2.6,2.1,5.1,2.1c3.6,0,4.9-1.1,4.9-2.2c0-4.1-11.6,1-11.6-5.9c0-3.5,3.5-4.9,7.4-4.9
					c3.5,0,5.9,1.6,6.1,1.6c0.3,0,0.3-0.1,0.4-0.1l0.3,0.1L470.4,70.7z"/>
				<path fill="#EFF8FB" d="M473.9,81c0.4,0,0.5-0.2,0.5-0.6V67.2c0-0.5-0.1-0.6-0.5-0.6v-0.3h12.9c0.5,0,0.7-0.2,0.7-0.5h0.3v3.4
					h-0.3c0-0.4-0.2-0.5-0.7-0.5h-9.6v3.7h6.3c0.5,0,0.7-0.2,0.7-0.5h0.3v3.5h-0.3c0-0.2,0-0.3-0.2-0.4c-0.1-0.1-0.3-0.1-0.5-0.1
					h-6.3v4.1h9.8c0.5,0,0.7-0.2,0.7-0.5h0.3v3.4h-0.3c0-0.3-0.2-0.5-0.7-0.5h-13.1V81z"/>
				<path fill="#EFF8FB" d="M505.6,73.4v0.3c-0.2,0-0.4,0.2-0.4,0.7v4.1c0,0.3,0.1,0.5,0.4,0.5v0.3c-1.3,0.7-4.3,2.3-7.8,2.3
					c-4.6,0-8.6-2.4-8.6-7.7c0-5.4,4.7-7.7,8.8-7.7c1.6,0,3.2,0.4,4.3,0.8c1.1,0.5,1.8,0.8,2,0.8c0.2,0,0.4-0.1,0.4-0.2l0.3,0.1
					l-1.9,3.4l-0.3-0.2c0-0.1,0-0.2,0-0.4c0-0.6-2.2-1.9-4.8-1.9c-3.3,0-6.1,1.7-6.1,5.2c0,3.7,2.7,5.4,5.8,5.4c2.5,0,4-0.9,4.6-1.3
					V76H499c-0.4,0-0.6,0.2-0.6,0.5H498v-3.6h0.3c0,0.3,0.2,0.5,0.6,0.5H505.6z"/>
				<path fill="#EFF8FB" d="M506.6,81.3V81c0.4,0,0.5-0.1,0.8-0.8l5.4-12.7c0.1-0.2,0.2-0.4,0.2-0.6c0-0.2-0.2-0.3-0.4-0.4v-0.3h4.3
					v0.3c-0.3,0-0.4,0.2-0.4,0.3c0,0.2,0.1,0.3,0.2,0.5l5.8,12.9c0.3,0.6,0.4,0.8,0.8,0.8v0.3h-4V81c0.3,0,0.4-0.1,0.4-0.2
					c0-0.2-0.2-0.5-1.5-3.5h-6.8c-1.2,2.7-1.5,3.1-1.5,3.4c0,0.2,0.1,0.3,0.3,0.3v0.3L506.6,81.3L506.6,81.3z M517,75l-2.4-5.4
					l-2.4,5.4H517z"/>
			</g>
			<g>
				<path fill="#EFF8FB" d="M566.8,83.8H454.7v-20h112.1V83.8z M455.8,82.5h110.1V65.1H455.8V82.5z"/>
			</g>
			<g>
				<polygon fill="#EFF8FB" points="567.2,64.2 567.9,64.2 567.9,66.5 568.2,66.5 568.2,64.2 568.9,64.2 568.9,63.8 567.2,63.8 				
					"/>
				<polygon fill="#EFF8FB" points="570.6,63.8 570,65.9 569.4,63.8 568.9,63.8 568.9,66.5 569.3,66.5 569.3,64.5 569.9,66.5 
					570.1,66.5 570.7,64.5 570.7,66.5 571,66.5 571,63.8 				"/>
			</g>
			<path fill="#EFF8FB" d="M526.7,66.3v15.1H565V66.3H526.7z M528.3,76.8c-0.3-2.7,6.7-6.3,15.9-8.1c-0.2,0.1-0.6,0.2-0.6,0.2
				s-0.9,0.3-1.2,0.4c-4.7,1.4-8,4.1-7.7,6.4c0.3,2.4,4.2,3.6,9.2,3.2c0.3,0,1.3-0.1,1.5-0.1C536.2,80.3,528.6,79.5,528.3,76.8z
				 M551.3,77.4c-2,0.6-4.6,1.1-4.6,1.1v-6.7l1.3,5.5c0,0,3.1-0.6,5.5-1.9c2.1-1.1,3.4-2.5,3.3-3.9c-0.1-2.4-4.1-3.6-9-3.2
				c-0.3,0-1.4,0.1-1.6,0.1c9.2-1.6,16.8-0.8,17.1,1.9C563.5,72.5,558.5,75.4,551.3,77.4z"/>
		</g>
		<g>
			<path fill="#EFF8FB" d="M463.4,223.6c0,0.1,0,0.2,0,0.2c0,0.2,0,0.3-0.7,0.3c-0.7,0-0.6-0.1-0.7-0.3c0-0.1,0-0.5,0-0.7
				c0-0.2,0-0.6,0-0.7c0-0.2,0-0.3,0.7-0.3c0.7,0,0.6,0.1,0.7,0.3c0,0,0,0.1,0,0.2l0.9,0c0-0.2,0-0.4,0-0.5
				c-0.1-0.5,0.1-0.9-1.5-0.9c-1.7,0-1.5,0.4-1.5,0.9c0,0.1,0,0.5,0,0.9c0,0.4,0,0.7,0,0.9c0.1,0.5-0.1,0.9,1.5,0.9
				c1.7,0,1.5-0.4,1.5-0.9c0-0.1,0-0.2,0-0.4H463.4L463.4,223.6z"/>
			<polygon fill="#EFF8FB" points="452.9,221.4 452,224 451.1,221.4 449.8,221.4 449.8,224.8 450.7,224.8 450.7,222.3 451.6,224.8 
				452.4,224.8 453.3,222.3 453.3,224.8 454.2,224.8 454.2,221.4 			"/>
			<polygon fill="#EFF8FB" points="464.5,221.4 467,221.4 467,222.3 466.2,222.3 466.2,224.8 465.3,224.8 465.3,222.3 464.5,222.3 
							"/>
			<polygon fill="#EFF8FB" points="457.8,224.8 458.8,221.4 460.1,221.4 461.1,224.8 460.2,224.8 460,224.1 458.9,224.1 
				459.1,223.6 459.9,223.6 459.5,222.2 458.7,224.8 			"/>
			<path fill="#EFF8FB" d="M447.7,222.1c0.7,0,0.6,0.1,0.7,0.3c0,0.1,0,0.5,0,0.7c0,0.2,0,0.6,0,0.7c0,0.2,0,0.3-0.7,0.3
				c-0.7,0-0.6-0.1-0.7-0.3c0-0.1,0-0.5,0-0.7s0-0.6,0-0.7C447.1,222.2,447.1,222.1,447.7,222.1l0-0.8c-1.7,0-1.5,0.4-1.5,0.9
				c0,0.1,0,0.5,0,0.9c0,0.4,0,0.7,0,0.9c0.1,0.5-0.1,0.9,1.5,0.9s1.5-0.4,1.5-0.9c0-0.1,0-0.5,0-0.9c0-0.4,0-0.7,0-0.9
				c-0.1-0.5,0.1-0.9-1.5-0.9L447.7,222.1z"/>
			<path fill="#EFF8FB" d="M444.8,223.6c0,0.1,0,0.2,0,0.2c0,0.2,0,0.3-0.7,0.3c-0.7,0-0.6-0.1-0.7-0.3c0-0.1,0-0.5,0-0.7
				s0-0.6,0-0.7c0-0.2,0-0.3,0.7-0.3c0.7,0,0.6,0.1,0.7,0.3c0,0,0,0.1,0,0.2l0.9,0c0-0.2,0-0.4,0-0.5c-0.1-0.5,0.1-0.9-1.5-0.9
				c-1.7,0-1.5,0.4-1.5,0.9c0,0.1,0,0.5,0,0.9c0,0.4,0,0.7,0,0.9c0.1,0.5-0.1,0.9,1.5,0.9c1.7,0,1.5-0.4,1.5-0.9c0-0.1,0-0.2,0-0.4
				H444.8z"/>
			<path fill="#EFF8FB" d="M456.3,224.1l-0.5,0v-0.8l0.5,0c0.7,0,0.6-0.1,0.7-0.3c0-0.1,0,0,0-0.2c0-0.2,0-0.1,0-0.2
				c0-0.2,0-0.3-0.7-0.3l-0.5,0l0,2.6h-0.9v-3.4h1.4c1.7,0,1.5,0.4,1.5,0.9c0,0.1,0,0.3,0,0.4c0,0.1,0,0.4,0,0.4
				C457.8,223.6,457.9,224.1,456.3,224.1L456.3,224.1z"/>
			<path fill="#EFF8FB" d="M439.4,237.7l-5.4,0c-0.8,0-1.4-0.6-1.4-1.4V228c0-0.8,0.6-1.4,1.4-1.4l3.4,0c0.4,0,0.7-0.3,0.7-0.7
				l0-3.3c0-0.2,0.1-0.3,0.3-0.3h2c0.2,0,0.3,0.1,0.3,0.3l0,14.9c0,0.2-0.1,0.3-0.3,0.3L439.4,237.7l0,0.7h1.4
				c0.4,0,0.7-0.3,0.7-0.7v-15.5c0-0.4-0.3-0.7-0.7-0.7h-2.6c-0.4,0-0.7,0.3-0.7,0.7l0,3.3c0,0.2-0.1,0.3-0.3,0.3l-3.1,0
				c-1.2,0-2.2,1-2.2,2.2l0,8.3c0,1.2,1,2.2,2.2,2.2l5.4,0L439.4,237.7L439.4,237.7z"/>
			<path fill="#EFF8FB" d="M437.3,234.6v-5.4c0-0.4-0.4-0.8-0.8-0.8c-0.4,0-0.8,0.4-0.8,0.8v5.8c0,0.4,0.4,0.8,0.8,0.8
				c0.4,0,0.8-0.4,0.8-0.8V234.6l0.7,0v0.4c0,0.9-0.7,1.6-1.6,1.6c-0.9,0-1.6-0.7-1.6-1.6v-5.8c0-0.9,0.7-1.6,1.6-1.6
				c0.9,0,1.6,0.7,1.6,1.6v5.4L437.3,234.6z"/>
			<path fill="#EFF8FB" d="M444.5,237.7h-1c-0.2,0-0.3-0.1-0.3-0.3l0-10.5c0-0.2,0.1-0.3,0.3-0.3h2c0.2,0,0.3,0.1,0.3,0.3l0,10.5
				c0,0.2-0.1,0.3-0.3,0.3L444.5,237.7v0.7l1.3,0c0.4,0,0.7-0.3,0.7-0.7v-11.1c0-0.4-0.3-0.7-0.7-0.7l-2.6,0c-0.4,0-0.7,0.3-0.7,0.7
				l0,11.1c0,0.4,0.3,0.7,0.7,0.7l1.3,0V237.7L444.5,237.7z"/>
			<path fill="#EFF8FB" d="M454,228.6l-2.2,0c-0.7,0-1.2,0.5-1.2,1.2c0,0.7,0.5,1.2,1.2,1.2l3,0c0.8,0,1.4,0.6,1.4,1.4l0,3.7
				c0,0.8-0.6,1.4-1.4,1.4l-6,0c-0.2,0-0.3-0.1-0.3-0.3v-1.4c0-0.2,0.1-0.3,0.3-0.3l4.1,0c0.7,0,1.2-0.5,1.2-1.2
				c0-0.7-0.5-1.2-1.2-1.2l-2.9,0c-0.8,0-1.4-0.6-1.4-1.4V228c0-0.8,0.6-1.4,1.4-1.4l5.5,0c0.2,0,0.3,0.1,0.3,0.3v1.5
				c0,0.2-0.1,0.3-0.3,0.3L454,228.6l0,0.7l1.8,0c0.4,0,0.7-0.3,0.7-0.7l0-2.1c0-0.4-0.3-0.7-0.7-0.7l-5.8,0c-1.2,0-2.2,1-2.2,2.2
				v3.7c0,1.2,1,2.2,2.2,2.2l2.9,0c0.3,0,0.5,0.2,0.5,0.5c0,0.3-0.2,0.5-0.5,0.5l-4.4,0c-0.4,0-0.7,0.3-0.7,0.7v2.1
				c0,0.4,0.3,0.7,0.7,0.7l6.3,0c1.2,0,2.2-1,2.2-2.2l0-3.7c0-1.2-1-2.2-2.2-2.2l-3,0c-0.3,0-0.5-0.2-0.5-0.5c0-0.3,0.2-0.5,0.5-0.5
				h2.2L454,228.6z"/>
			<path fill="#EFF8FB" d="M465,230.7h0.9c0.2,0,0.3-0.1,0.3-0.3l0-2.4c0-0.8-0.6-1.4-1.4-1.4h-4.7c-0.8,0-1.4,0.6-1.4,1.4v8.3
				c0,0.8,0.6,1.4,1.4,1.4h4.7c0.8,0,1.4-0.6,1.4-1.4l0-2.3c0-0.2-0.1-0.3-0.3-0.3h-1.8c-0.2,0-0.3,0.1-0.3,0.3l0,1.1
				c0,0.9-0.5,1.6-1.4,1.6c-0.9,0-1.4-0.7-1.4-1.6v-5.8c0-0.9,0.5-1.6,1.4-1.6c0.9,0,1.4,0.7,1.4,1.6l0,1.1c0,0.2,0.1,0.3,0.3,0.3
				L465,230.7l0,0.7h-1.1c-0.4,0-0.7-0.3-0.7-0.7l0-1.4c0-0.4-0.2-0.8-0.7-0.8c-0.4,0-0.7,0.4-0.7,0.8v5.8c0,0.4,0.2,0.8,0.7,0.8
				c0.4,0,0.7-0.4,0.7-0.8l0-1.4c0-0.4,0.3-0.7,0.7-0.7h2.4c0.4,0,0.7,0.3,0.7,0.7l0,2.6c0,1.2-1,2.2-2.2,2.2h-4.7
				c-1.2,0-2.2-1-2.2-2.2V228c0-1.2,1-2.2,2.2-2.2h4.7c1.2,0,2.2,1,2.2,2.2l0,2.7c0,0.4-0.3,0.7-0.7,0.7H465L465,230.7L465,230.7z"
				/>
		</g>
		<path fill="#181515" d="M543.1,186c-34.3,32.7-52.8,60.1-39.9,73.7c13,13.6,54,9.2,88.3-23.5s42.3-73.6,29.3-87.1
			S577.4,153.3,543.1,186z"/>
		<path fill="#2C2929" d="M549.5,194.4c-20.3,19.4-29.9,42.4-21.2,51.5s32.1,0.6,52.5-18.7c20.3-19.4,29.9-42.4,21.2-51.5
			S569.9,175,549.5,194.4z"/>
		<circle fill="#181515" cx="549.6" cy="225.3" r="2.9"/>
		<circle fill="#181515" cx="558.5" cy="216.2" r="2.9"/>
		<circle fill="#181515" cx="567.4" cy="207.1" r="2.9"/>
		<circle fill="#181515" cx="576.3" cy="198.4" r="2.9"/>
		<g>
			<path fill="#241C1E" d="M446.3,325h-1l-0.5-1.9H443l-0.5,1.9h-1l1.9-6.7h0.9L446.3,325z M444.4,322l-0.6-2.1l-0.6,2.1H444.4z"/>
			<path fill="#241C1E" d="M450,320.6c0-0.2,0-0.4-0.1-0.5c-0.1-0.2-0.1-0.3-0.2-0.4c-0.1-0.1-0.2-0.2-0.3-0.3
				c-0.1-0.1-0.3-0.1-0.4-0.1c-0.2,0-0.4,0.1-0.6,0.2c-0.2,0.1-0.3,0.3-0.4,0.4c-0.1,0.2-0.2,0.4-0.3,0.7c-0.1,0.3-0.1,0.6-0.1,1
				s0,0.7,0.1,1c0.1,0.3,0.2,0.5,0.3,0.7c0.1,0.2,0.3,0.3,0.4,0.5c0.2,0.1,0.4,0.2,0.6,0.2c0.2,0,0.3,0,0.4-0.1
				c0.1-0.1,0.2-0.1,0.3-0.3c0.1-0.1,0.2-0.3,0.2-0.4c0.1-0.2,0.1-0.4,0.1-0.6h0.9c0,0.4-0.1,0.8-0.2,1.1c-0.1,0.3-0.3,0.6-0.4,0.8
				c-0.2,0.2-0.4,0.4-0.6,0.5s-0.5,0.2-0.8,0.2c-0.4,0-0.7-0.1-1-0.2c-0.3-0.2-0.5-0.4-0.7-0.7c-0.2-0.3-0.4-0.7-0.5-1.1
				c-0.1-0.4-0.2-0.9-0.2-1.4s0.1-1,0.2-1.4c0.1-0.4,0.3-0.8,0.5-1.1c0.2-0.3,0.4-0.5,0.7-0.7c0.3-0.2,0.6-0.2,0.9-0.2
				c0.3,0,0.5,0.1,0.7,0.2c0.2,0.1,0.4,0.3,0.6,0.5c0.2,0.2,0.3,0.5,0.4,0.8c0.1,0.3,0.2,0.6,0.2,1H450z"/>
			<path fill="#241C1E" d="M455.1,320.6c0-0.2,0-0.4-0.1-0.5c-0.1-0.2-0.1-0.3-0.2-0.4c-0.1-0.1-0.2-0.2-0.3-0.3
				c-0.1-0.1-0.3-0.1-0.4-0.1c-0.2,0-0.4,0.1-0.6,0.2c-0.2,0.1-0.3,0.3-0.4,0.4c-0.1,0.2-0.2,0.4-0.3,0.7c-0.1,0.3-0.1,0.6-0.1,1
				s0,0.7,0.1,1c0.1,0.3,0.2,0.5,0.3,0.7c0.1,0.2,0.3,0.3,0.4,0.5c0.2,0.1,0.4,0.2,0.6,0.2c0.2,0,0.3,0,0.4-0.1
				c0.1-0.1,0.2-0.1,0.3-0.3c0.1-0.1,0.2-0.3,0.2-0.4c0.1-0.2,0.1-0.4,0.1-0.6h0.9c0,0.4-0.1,0.8-0.2,1.1c-0.1,0.3-0.3,0.6-0.4,0.8
				c-0.2,0.2-0.4,0.4-0.6,0.5s-0.5,0.2-0.8,0.2c-0.4,0-0.7-0.1-1-0.2c-0.3-0.2-0.5-0.4-0.7-0.7c-0.2-0.3-0.4-0.7-0.5-1.1
				c-0.1-0.4-0.2-0.9-0.2-1.4s0.1-1,0.2-1.4c0.1-0.4,0.3-0.8,0.5-1.1c0.2-0.3,0.4-0.5,0.7-0.7c0.3-0.2,0.6-0.2,0.9-0.2
				c0.3,0,0.5,0.1,0.7,0.2c0.2,0.1,0.4,0.3,0.6,0.5c0.2,0.2,0.3,0.5,0.4,0.8c0.1,0.3,0.2,0.6,0.2,1H455.1z"/>
			<path fill="#241C1E" d="M460.7,325H457v-6.7h3.6v1.2h-2.7v1.5h2.5v1.1h-2.5v1.7h2.8V325z"/>
			<path fill="#241C1E" d="M463.6,325.1c-0.4,0-0.7-0.1-0.9-0.2c-0.3-0.1-0.5-0.3-0.7-0.5c-0.2-0.2-0.3-0.5-0.4-0.8
				c-0.1-0.3-0.1-0.7-0.2-1h0.9c0,0.2,0.1,0.4,0.1,0.6c0.1,0.2,0.2,0.3,0.3,0.4c0.1,0.1,0.2,0.2,0.4,0.3c0.1,0.1,0.3,0.1,0.4,0.1
				c0.1,0,0.3,0,0.4-0.1c0.1,0,0.2-0.1,0.3-0.2c0.1-0.1,0.2-0.2,0.2-0.3c0-0.1,0.1-0.2,0.1-0.4c0-0.1,0-0.3-0.1-0.4
				c0-0.1-0.1-0.2-0.2-0.3c-0.1-0.1-0.2-0.1-0.4-0.2c-0.2-0.1-0.4-0.1-0.6-0.2c-0.3-0.1-0.5-0.2-0.7-0.3c-0.2-0.1-0.4-0.2-0.5-0.4
				c-0.1-0.2-0.2-0.3-0.3-0.5c-0.1-0.2-0.1-0.4-0.1-0.7c0-0.3,0-0.5,0.1-0.8c0.1-0.2,0.2-0.4,0.4-0.6c0.2-0.2,0.3-0.3,0.6-0.4
				c0.2-0.1,0.5-0.1,0.7-0.1c0.3,0,0.5,0.1,0.8,0.2c0.2,0.1,0.4,0.3,0.6,0.4c0.2,0.2,0.3,0.4,0.4,0.7c0.1,0.3,0.1,0.6,0.2,1h-0.9
				c-0.1-0.8-0.4-1.1-1-1.1c-0.3,0-0.5,0.1-0.7,0.2c-0.2,0.1-0.2,0.3-0.2,0.6c0,0.1,0,0.2,0.1,0.3c0,0.1,0.1,0.1,0.2,0.2
				c0.1,0.1,0.2,0.1,0.3,0.2c0.1,0,0.3,0.1,0.4,0.1c0.1,0,0.3,0.1,0.5,0.1c0.2,0,0.3,0.1,0.5,0.2c0.1,0.1,0.3,0.2,0.4,0.3
				c0.1,0.1,0.2,0.2,0.3,0.4s0.2,0.3,0.2,0.5c0.1,0.2,0.1,0.4,0.1,0.7c0,0.3,0,0.6-0.1,0.8c-0.1,0.3-0.2,0.5-0.4,0.7
				c-0.2,0.2-0.4,0.3-0.6,0.4C464.1,325,463.8,325.1,463.6,325.1z"/>
			<path fill="#241C1E" d="M468.3,325.1c-0.4,0-0.7-0.1-0.9-0.2c-0.3-0.1-0.5-0.3-0.7-0.5c-0.2-0.2-0.3-0.5-0.4-0.8
				c-0.1-0.3-0.1-0.7-0.2-1h0.9c0,0.2,0.1,0.4,0.1,0.6c0.1,0.2,0.2,0.3,0.3,0.4c0.1,0.1,0.2,0.2,0.4,0.3c0.1,0.1,0.3,0.1,0.4,0.1
				c0.1,0,0.3,0,0.4-0.1c0.1,0,0.2-0.1,0.3-0.2c0.1-0.1,0.2-0.2,0.2-0.3c0-0.1,0.1-0.2,0.1-0.4c0-0.1,0-0.3-0.1-0.4
				c0-0.1-0.1-0.2-0.2-0.3c-0.1-0.1-0.2-0.1-0.4-0.2c-0.2-0.1-0.4-0.1-0.6-0.2c-0.3-0.1-0.5-0.2-0.7-0.3c-0.2-0.1-0.4-0.2-0.5-0.4
				c-0.1-0.2-0.2-0.3-0.3-0.5c-0.1-0.2-0.1-0.4-0.1-0.7c0-0.3,0-0.5,0.1-0.8c0.1-0.2,0.2-0.4,0.4-0.6c0.2-0.2,0.3-0.3,0.6-0.4
				c0.2-0.1,0.5-0.1,0.7-0.1c0.3,0,0.5,0.1,0.8,0.2c0.2,0.1,0.4,0.3,0.6,0.4c0.2,0.2,0.3,0.4,0.4,0.7c0.1,0.3,0.1,0.6,0.2,1h-0.9
				c-0.1-0.8-0.4-1.1-1-1.1c-0.3,0-0.5,0.1-0.7,0.2c-0.2,0.1-0.2,0.3-0.2,0.6c0,0.1,0,0.2,0.1,0.3c0,0.1,0.1,0.1,0.2,0.2
				c0.1,0.1,0.2,0.1,0.3,0.2c0.1,0,0.3,0.1,0.4,0.1c0.1,0,0.3,0.1,0.5,0.1c0.2,0,0.3,0.1,0.5,0.2c0.1,0.1,0.3,0.2,0.4,0.3
				c0.1,0.1,0.2,0.2,0.3,0.4c0.1,0.1,0.2,0.3,0.2,0.5c0.1,0.2,0.1,0.4,0.1,0.7c0,0.3,0,0.6-0.1,0.8s-0.2,0.5-0.4,0.7
				c-0.2,0.2-0.4,0.3-0.6,0.4C468.8,325,468.6,325.1,468.3,325.1z"/>
		</g>
		<path id="voyant_2_" fill="#631418" d="M422.7,323v-3.2c0-0.3,0.3-0.6,0.6-0.6h12.2c0.3,0,0.6,0.3,0.6,0.6v3.2
			c0,0.3-0.3,0.6-0.6,0.6h-12.2C423,323.6,422.7,323.4,422.7,323z"/>
		<path id="voyant_1_" fill="#F95D5D" d="M424,322.2v-1.6c0-0.3,0.3-0.6,0.6-0.6h9.7c0.3,0,0.6,0.3,0.6,0.6v1.6
			c0,0.3-0.3,0.6-0.6,0.6h-9.7C424.3,322.8,424,322.6,424,322.2z"/>
		<path fill="#181515" d="M620.1,270.6L620.1,270.6c-2.9-2.9-2.9-7.7,0-10.6l9.2-8.9c2.9-2.9,5.2-0.7,8.1,2.2l0,0
			c2.9,2.9,2,7,0,10.6l-6.5,12C627.9,278.8,623,273.5,620.1,270.6z"/>
		<path fill="#241C1E" d="M614.4,286.7c0.5-0.5,0.7-1.1,0.4-1.4l-7.3-7.2l1.6-1.6l8,8l0,0c0.7,0.7,0.1,2.4-1.2,3.8l2.3,2.3l-5.9-0.1
			l-0.1-5.9L614.4,286.7"/>
		<g>
			<path fill="#241C1E" d="M617.5,274.1c0.2,0.2,0.4,0.5,0.4,0.7c0.1,0.3,0.1,0.6,0,0.9c-0.1,0.3-0.2,0.6-0.4,1
				c-0.2,0.3-0.5,0.7-0.8,1c-0.3,0.3-0.6,0.6-1,0.8c-0.3,0.2-0.7,0.3-1,0.4c-0.3,0.1-0.6,0.1-0.9,0c-0.3-0.1-0.5-0.2-0.8-0.4
				c-0.2-0.2-0.4-0.5-0.4-0.8s-0.1-0.6,0-0.9c0.1-0.3,0.2-0.6,0.4-1c0.2-0.3,0.5-0.7,0.8-1c0.3-0.3,0.7-0.6,1-0.8
				c0.3-0.2,0.7-0.3,1-0.4c0.3-0.1,0.6,0,0.9,0C617,273.8,617.3,273.9,617.5,274.1z M613.8,277.8c0.1,0.1,0.3,0.2,0.5,0.3
				s0.4,0,0.6,0c0.2,0,0.4-0.1,0.6-0.3s0.5-0.3,0.7-0.6c0.2-0.2,0.4-0.5,0.6-0.7c0.1-0.2,0.2-0.4,0.3-0.6c0-0.2,0-0.4,0-0.6
				s-0.1-0.3-0.3-0.5c-0.1-0.1-0.3-0.2-0.5-0.3c-0.2,0-0.4,0-0.6,0s-0.4,0.1-0.6,0.3c-0.2,0.1-0.5,0.3-0.7,0.5
				c-0.2,0.2-0.4,0.5-0.6,0.7s-0.2,0.4-0.3,0.6c0,0.2-0.1,0.4,0,0.6C613.6,277.5,613.7,277.6,613.8,277.8z"/>
			<path fill="#241C1E" d="M619.5,276.3l1.2,1.2c0.1,0.1,0.2,0.2,0.3,0.3c0.1,0.1,0.2,0.2,0.2,0.4c0,0.1,0.1,0.3,0.1,0.4
				c0,0.1,0,0.3,0,0.4c0,0.2-0.1,0.3-0.2,0.5c-0.1,0.2-0.2,0.3-0.4,0.5c-0.4,0.4-0.9,0.7-1.3,0.7c-0.4,0-0.8-0.2-1.2-0.5l-0.6-0.6
				l-1.6,1.6l-0.6-0.6L619.5,276.3z M618.2,278.8l0.6,0.6c0.1,0.1,0.2,0.2,0.3,0.2c0.1,0,0.2,0.1,0.3,0.1s0.2,0,0.3-0.1
				c0.1-0.1,0.2-0.1,0.3-0.2c0.1-0.1,0.2-0.2,0.2-0.3c0-0.1,0.1-0.2,0-0.3s0-0.2-0.1-0.3c-0.1-0.1-0.1-0.2-0.2-0.2l-0.6-0.6
				L618.2,278.8z"/>
			<path fill="#241C1E" d="M620.6,285.8l-2.3-2.3l4.2-4.2l2.3,2.3l-0.7,0.7l-1.7-1.7l-0.9,0.9l1.6,1.6l-0.7,0.7l-1.6-1.6l-1.1,1.1
				l1.8,1.8L620.6,285.8z"/>
			<path fill="#241C1E" d="M623.6,288.8l-0.5-0.5l1.4-4.2l-2.8,2.8l-0.6-0.6l4.2-4.2l0.5,0.5l-1.5,4.2l2.8-2.8l0.6,0.6L623.6,288.8z
				"/>
		</g>
		<path fill="#2C2929" d="M638.2,254.1l-1.3-1.4c-0.6-0.5-1.2-0.9-2-0.9c-1,0-1.9,0.4-2.4,1.1l-11.9,15.3c-0.8,1-0.6,2.4,0.4,3.2
			l2.3,2.2c1,0.8,2.5,0.2,3.3-0.7l11.9-15.3C639.3,256.6,638.9,255.1,638.2,254.1z"/>
		<g>
			<path id="XMLID_74_" fill="#444546" d="M617.3,1.9v12c0,0-0.1,1.5-1.6,1.5c-1.6,0-110.3,0-110.3,0s-108.7,0-110.3,0
				c-1.6,0-1.6-1.5-1.6-1.5v-12L505.4,2L617.3,1.9z"/>
			<g id="XMLID_1_">
				<rect id="XMLID_73_" x="394.7" y="0" fill="#282424" width="2.7" height="13.7"/>
				<rect id="XMLID_72_" x="398.8" y="0" fill="#282424" width="2.7" height="13.7"/>
				<rect id="XMLID_71_" x="402.9" y="0" fill="#282424" width="2.7" height="13.7"/>
				<rect id="XMLID_70_" x="406.9" y="0" fill="#282424" width="2.7" height="13.7"/>
				<rect id="XMLID_69_" x="410.8" y="0" fill="#282424" width="2.7" height="13.7"/>
				<rect id="XMLID_68_" x="414.9" y="0" fill="#282424" width="2.7" height="13.7"/>
				<rect id="XMLID_67_" x="418.9" y="0" fill="#282424" width="2.7" height="13.7"/>
				<rect id="XMLID_66_" x="423" y="0" fill="#282424" width="2.7" height="13.7"/>
				<rect id="XMLID_65_" x="427.1" y="0" fill="#282424" width="2.7" height="13.7"/>
				<rect id="XMLID_64_" x="431.1" y="0" fill="#282424" width="2.7" height="13.7"/>
				<rect id="XMLID_63_" x="435.2" y="0" fill="#282424" width="2.7" height="13.7"/>
				<rect id="XMLID_62_" x="439.2" y="0" fill="#282424" width="2.7" height="13.7"/>
				<rect id="XMLID_61_" x="443.2" y="0" fill="#282424" width="2.7" height="13.7"/>
				<rect id="XMLID_60_" x="447.2" y="0" fill="#282424" width="2.7" height="13.7"/>
				<rect id="XMLID_59_" x="451.3" y="0" fill="#282424" width="2.7" height="13.7"/>
				<rect id="XMLID_58_" x="455.3" y="0" fill="#282424" width="2.7" height="13.7"/>
				<rect id="XMLID_57_" x="459.4" y="0" fill="#282424" width="2.7" height="13.7"/>
				<rect id="XMLID_56_" x="463.4" y="0" fill="#282424" width="2.7" height="13.7"/>
				<rect id="XMLID_55_" x="467.5" y="0" fill="#282424" width="2.7" height="13.7"/>
				<rect id="XMLID_54_" x="471.5" y="0" fill="#282424" width="2.7" height="13.7"/>
				<rect id="XMLID_53_" x="475.5" y="0" fill="#282424" width="2.7" height="13.7"/>
				<rect id="XMLID_52_" x="479.5" y="0" fill="#282424" width="2.7" height="13.7"/>
				<rect id="XMLID_51_" x="483.6" y="0" fill="#282424" width="2.7" height="13.7"/>
				<rect id="XMLID_50_" x="487.6" y="0" fill="#282424" width="2.7" height="13.7"/>
				<rect id="XMLID_49_" x="491.7" y="0" fill="#282424" width="2.7" height="13.7"/>
				<rect id="XMLID_48_" x="495.7" y="0" fill="#282424" width="2.7" height="13.7"/>
				<rect id="XMLID_47_" x="499.8" y="0" fill="#282424" width="2.7" height="13.7"/>
				<rect id="XMLID_46_" x="503.9" y="0" fill="#282424" width="2.7" height="13.7"/>
				<rect id="XMLID_45_" x="507.8" y="0" fill="#282424" width="2.7" height="13.7"/>
				<rect id="XMLID_44_" x="511.8" y="0" fill="#282424" width="2.7" height="13.7"/>
				<rect id="XMLID_43_" x="515.9" y="0" fill="#282424" width="2.7" height="13.7"/>
				<rect id="XMLID_42_" x="519.9" y="0" fill="#282424" width="2.7" height="13.7"/>
				<rect id="XMLID_41_" x="524.2" y="0" fill="#282424" width="2.7" height="13.7"/>
				<rect id="XMLID_40_" x="528.3" y="0" fill="#282424" width="2.7" height="13.7"/>
				<rect id="XMLID_39_" x="532.4" y="0" fill="#282424" width="2.7" height="13.7"/>
				<rect id="XMLID_38_" x="536.3" y="0" fill="#282424" width="2.7" height="13.7"/>
				<rect id="XMLID_37_" x="540.3" y="0" fill="#282424" width="2.7" height="13.7"/>
				<rect id="XMLID_36_" x="544.4" y="0" fill="#282424" width="2.7" height="13.7"/>
				<rect id="XMLID_35_" x="548.4" y="0" fill="#282424" width="2.7" height="13.7"/>
				<rect id="XMLID_34_" x="552.5" y="0" fill="#282424" width="2.7" height="13.7"/>
				<rect id="XMLID_33_" x="556.6" y="0" fill="#282424" width="2.7" height="13.7"/>
				<rect id="XMLID_32_" x="560.6" y="0" fill="#282424" width="2.7" height="13.7"/>
				<rect id="XMLID_31_" x="564.7" y="0" fill="#282424" width="2.7" height="13.7"/>
				<rect id="XMLID_30_" x="568.6" y="0" fill="#282424" width="2.7" height="13.7"/>
				<rect id="XMLID_29_" x="572.6" y="0" fill="#282424" width="2.7" height="13.7"/>
				<rect id="XMLID_28_" x="576.7" y="0" fill="#282424" width="2.7" height="13.7"/>
				<rect id="XMLID_27_" x="580.8" y="0" fill="#282424" width="2.7" height="13.7"/>
				<rect id="XMLID_26_" x="585.2" y="0" fill="#282424" width="2.7" height="13.7"/>
				<rect id="XMLID_25_" x="589.3" y="0" fill="#282424" width="2.7" height="13.7"/>
				<rect id="XMLID_24_" x="593.3" y="0" fill="#282424" width="2.7" height="13.7"/>
				<rect id="XMLID_23_" x="597.3" y="0" fill="#282424" width="2.7" height="13.7"/>
				<rect id="XMLID_22_" x="601.3" y="0" fill="#282424" width="2.7" height="13.7"/>
				<rect id="XMLID_21_" x="605.4" y="0" fill="#282424" width="2.7" height="13.7"/>
				<rect id="XMLID_20_" x="609.4" y="0" fill="#282424" width="2.7" height="13.7"/>
				<rect id="XMLID_19_" x="613.5" y="0" fill="#282424" width="2.7" height="13.7"/>
			</g>
		</g>
	</g>
</g>
</svg>
