<?xml version="1.0" encoding="utf-8"?>
<!-- Generator: Adobe Illustrator 19.0.0, SVG Export Plug-In . SVG Version: 6.00 Build 0)  -->
<svg version="1.1" baseProfile="tiny" id="Calque_1"
	 xmlns="http://www.w3.org/2000/svg" xmlns:xlink="http://www.w3.org/1999/xlink" x="0px" y="0px" viewBox="0 0 169.4 169.4"
	 xml:space="preserve">
<g>
	<path fill="#2B84C6" d="M166.9,84.7c0,45.4-36.8,82.2-82.2,82.2S2.5,130.1,2.5,84.7S39.3,2.5,84.7,2.5S166.9,39.3,166.9,84.7z
		 M98.8,54.7c-4.3-2-9.1-3.2-14.1-3.2c-18.3,0-33.1,14.8-33.1,33.1s14.8,33.1,33.1,33.1c18.3,0,33.1-14.8,33.1-33.1
		C117.8,71.5,110,60.1,98.8,54.7"/>
	<g>
		<path fill="#0F1317" d="M84.7,169.4C38,169.4,0,131.4,0,84.7S38,0,84.7,0c46.7,0,84.7,38,84.7,84.7S131.4,169.4,84.7,169.4z
			 M84.7,0.1C38.1,0.1,0.1,38.1,0.1,84.7c0,46.6,37.9,84.5,84.5,84.5c46.6,0,84.5-37.9,84.5-84.5C169.2,38.1,131.3,0.1,84.7,0.1z"/>
	</g>
	<path fill="#0F1317" d="M156.1,125.5c-14.2,24.7-40.8,41.4-71.4,41.4c-30.6,0-57.2-16.7-71.4-41.4l0,0L156.1,125.5"/>
	<g>
		<g>
			<path fill="#9B877A" d="M110.8,135l1.7,2.1l-0.2,0.1c-0.2-0.1-0.3-0.2-0.4-0.2s-0.4,0.1-0.9,0.4c-1,0.5-1.9,0.8-2.6,1
				c-0.7,0.2-1.5,0.3-2.5,0.3c-1.9,0-3.5-0.4-4.7-1.1c-0.7-0.4-1.3-1-1.7-1.6c-0.5-0.7-0.7-1.6-0.7-2.4c0-1.2,0.4-2.3,1.3-3.2
				c1.3-1.3,3.2-2,5.9-2c1,0,1.8,0.1,2.5,0.3c0.7,0.2,1.5,0.5,2.6,1c0.5,0.2,0.8,0.3,0.9,0.3s0.2-0.1,0.4-0.2l0.2,0.1l-1.7,2.1
				l-0.2-0.1c0-0.1,0-0.1,0-0.2c0-0.1-0.1-0.3-0.2-0.4c-0.1-0.1-0.4-0.3-0.8-0.5c-1-0.5-2.2-0.7-3.3-0.7c-1.4,0-2.5,0.3-3.3,0.9
				c-1,0.7-1.5,1.5-1.5,2.6c0,1.1,0.5,2,1.5,2.6c0.8,0.6,1.9,0.9,3.3,0.9c1.2,0,2.3-0.2,3.3-0.7c0.4-0.2,0.6-0.3,0.8-0.5
				c0.1-0.1,0.2-0.3,0.2-0.4c0-0.1,0-0.1,0-0.2L110.8,135z"/>
			<path fill="#9B877A" d="M114.8,137.7v-8.5c0-0.2,0-0.3-0.1-0.3c-0.1-0.1-0.2-0.1-0.4-0.2v-0.2h6.8c1.5,0,2.6,0.1,3.4,0.4
				c1.1,0.4,2,1.1,2.5,2c0.4,0.7,0.6,1.6,0.6,2.6c0,1.7-0.6,3-1.9,4c-0.5,0.4-1.2,0.7-1.9,0.8s-1.6,0.2-2.8,0.2h-6.8v-0.2
				c0.2,0,0.4-0.1,0.4-0.2C114.8,137.9,114.8,137.8,114.8,137.7z M117.5,136.8h3.3c1.1,0,1.9-0.1,2.4-0.4c1.1-0.5,1.7-1.5,1.7-3
				c0-1.1-0.3-1.9-0.9-2.5c-0.3-0.3-0.8-0.5-1.2-0.7c-0.5-0.1-1.1-0.2-1.9-0.2h-3.3V136.8z"/>
		</g>
		<g>
			<path fill="#9B877A" d="M49.9,131.8l-0.3-0.1c0-0.1,0-0.1,0-0.2c0-0.2-1.6-1.2-4.3-1.2c-2.6,0-3.7,0.7-3.7,1.5
				c0,2.3,9.9-1.1,9.9,4c0,1.9-2.1,3.3-6.4,3.3c-4.1,0-5.3-1.1-5.6-1.1c-0.1,0-0.2,0.1-0.2,0.1l-0.2,0l1.4-2.4l0.3,0.1
				c0,0.1,0,0.1,0,0.2c0,0.8,2.2,1.4,4.3,1.4c3,0,4.1-0.7,4.1-1.5c0-2.8-9.7,0.7-9.7-4c0-2.4,3-3.4,6.2-3.4c2.9,0,5,1.1,5.2,1.1
				c0.2,0,0.3-0.1,0.3-0.1l0.3,0.1L49.9,131.8z"/>
			<path fill="#9B877A" d="M52.8,138.9c0.4,0,0.4-0.1,0.4-0.4v-9c0-0.3-0.1-0.4-0.4-0.4v-0.2h10.9c0.4,0,0.6-0.1,0.6-0.3h0.2v2.3
				h-0.2c0-0.3-0.2-0.4-0.6-0.4h-8v2.5h5.3c0.4,0,0.6-0.1,0.6-0.4h0.2v2.4h-0.2c0-0.1,0-0.2-0.1-0.3c-0.1-0.1-0.2-0.1-0.4-0.1h-5.3
				v2.8h8.2c0.4,0,0.6-0.1,0.6-0.3h0.2v2.3h-0.2c0-0.2-0.2-0.3-0.6-0.3h-11V138.9z"/>
			<path fill="#9B877A" d="M79.4,133.7v0.2c-0.2,0-0.3,0.1-0.3,0.5v2.8c0,0.2,0.1,0.3,0.3,0.4v0.2c-1.1,0.5-3.6,1.6-6.5,1.6
				c-3.8,0-7.2-1.6-7.2-5.3c0-3.7,3.9-5.3,7.4-5.3c1.4,0,2.7,0.3,3.6,0.5c0.9,0.3,1.5,0.6,1.7,0.6c0.2,0,0.3-0.1,0.4-0.2l0.2,0.1
				l-1.6,2.3l-0.2-0.1c0-0.1,0-0.1,0-0.2c0-0.4-1.8-1.3-4-1.3c-2.8,0-5.1,1.2-5.1,3.6c0,2.5,2.3,3.7,4.9,3.7c2.1,0,3.3-0.6,3.8-0.9
				v-1.2h-2.9c-0.3,0-0.5,0.1-0.5,0.3h-0.2v-2.5h0.2c0,0.2,0.2,0.3,0.5,0.3H79.4z"/>
			<path fill="#9B877A" d="M80.2,139.1v-0.2c0.3,0,0.4-0.1,0.6-0.5l4.6-8.6c0.1-0.1,0.2-0.3,0.2-0.4c0-0.2-0.1-0.2-0.4-0.3v-0.2h3.6
				v0.2c-0.3,0-0.4,0.1-0.4,0.2c0,0.1,0.1,0.2,0.2,0.4l4.9,8.7c0.2,0.4,0.3,0.5,0.7,0.5v0.2h-3.3v-0.2c0.2,0,0.3-0.1,0.3-0.1
				c0-0.2-0.2-0.4-1.3-2.4h-5.7c-1,1.8-1.2,2.1-1.2,2.3c0,0.1,0.1,0.2,0.3,0.2v0.2L80.2,139.1L80.2,139.1z M89,134.8l-2-3.7l-2,3.7
				H89z"/>
		</g>
		<g>
			<polygon fill="#9B877A" points="127.5,128.9 128,128.9 128,130 128.3,130 128.3,128.9 128.8,128.9 128.8,128.7 127.5,128.7 			
				"/>
			<polygon fill="#9B877A" points="130.1,128.7 129.6,129.8 129.1,128.7 128.8,128.7 128.8,130 129.1,130 129.1,129 129.5,130 
				129.7,130 130.2,129.1 130.2,130 130.4,130 130.4,128.7 			"/>
		</g>
	</g>
	<g id="SEGA_1_">
		<path id="XMLID_10_" fill="#9B877A" d="M100,155.9c-1.6,0-3.2,0-4.9,0c0-0.4,0-0.7,0-1.1c1.1,0,2.1,0,3.3,0
			c-0.2-0.7-0.4-1.3-0.6-1.9c-0.5-1.5-0.9-3-1.5-4.5c-0.1-0.4-0.5-0.8-0.8-0.9c-0.5-0.1-0.7,0.4-0.9,0.9c-0.7,2.3-1.5,4.6-2.2,6.9
			c-0.2,0.5-0.4,0.7-1,0.7c-1.5,0-3,0-4.5,0c-1.5,0-2.5-1-2.5-2.6c0-1.4,0-2.8,0-4.2c0-1.6,1-2.6,2.5-2.6c1.3,0,2.7,0,4.1,0
			c0,0.4,0,0.7,0,1.2c-1.2,0-2.3,0-3.5,0c-1.6,0-2,0.4-2,2.1c0,1.1,0,2.1,0,3.2c0,1.1,0.5,1.7,1.6,1.7c0.9,0,1.7,0,2.7,0
			c0-1.3,0-2.4,0-3.7c-0.7,0-1.5,0-2.2,0c0-0.4,0-0.8,0-1.2c1.1,0,2.2,0,3.5,0c0,1.6,0,3.3,0,4.9c0.1,0,0.1,0,0.2,0
			c0.7-2.3,1.5-4.5,2.2-6.8c0.4-1.3,1.2-1.8,2.4-1.6c0.7,0.1,1.2,0.5,1.4,1.2c0.9,2.7,1.8,5.4,2.6,8.1
			C100,155.8,100,155.9,100,155.9z"/>
		<path id="XMLID_9_" fill="#9B877A" d="M69.4,156c0-0.4,0-0.8,0-1.2c1.3,0,2.6,0,3.9,0c1.1,0,1.9-0.8,1.9-1.8c0-1-0.8-1.8-1.8-1.9
			c-0.4,0-0.9,0-1.3,0c-0.7-0.1-1.1-0.7-1.1-1.4c0-0.7,0.5-1.4,1.1-1.4c1.4,0,2.8,0,4.2,0c0,0.4,0,0.7,0,1.2c-0.7,0-1.4,0-2.1,0
			c-0.7,0-1.3,0-2,0c0,0.1,0,0.3,0,0.4c0.4,0,0.8,0,1.2,0.1c1.5,0,2.5,0.9,2.9,2.4c0.4,1.8-0.8,3.7-2.6,3.8
			C72.3,156,70.9,156,69.4,156z"/>
		<path id="XMLID_8_" fill="#9B877A" d="M69.4,154.3c0-0.4,0-0.7,0-1.2c1.4,0,2.7,0,4.1,0c0-0.1,0-0.2,0-0.3c-0.4,0-0.8,0-1.3,0
			c-1.2,0-2.1-0.6-2.6-1.7c-0.5-1.1-0.4-2.2,0.2-3.2c0.5-0.7,1.1-1.2,2-1.2c1.4,0,2.9,0,4.4,0c0,0.4,0,0.7,0,1.2c-1.3,0-2.6,0-3.9,0
			c-1.3,0-2.1,1.2-1.7,2.4c0.2,0.7,0.9,1.2,1.8,1.3c0.4,0,0.8,0,1.2,0c0.6,0.1,1.1,0.7,1.2,1.4c0,0.7-0.5,1.4-1.1,1.4
			C72.3,154.3,70.9,154.3,69.4,154.3z"/>
		<path id="XMLID_7_" fill="#9B877A" d="M83.9,146.6c0,0.4,0,0.7,0,1.2c-1.3,0-2.6,0-3.8,0c-1.3,0-1.8,0.5-1.8,1.9
			c0,1.1,0,2.2,0,3.3c0,1.3,0.5,1.8,1.7,1.8c1.3,0,2.6,0,3.9,0c0,0.4,0,0.7,0,1.2c-1,0-1.9,0-2.8,0c-0.6,0-1.2,0-1.8,0
			c-1.1-0.1-2.1-1.1-2.1-2.2c0-1.6,0-3.3,0-4.9c0-1,0.9-2.1,1.9-2.2C80.6,146.5,82.2,146.6,83.9,146.6z"/>
		<path id="XMLID_4_" fill="#9B877A" d="M92.6,155.9c0.8-2.6,1.6-5.1,2.5-7.5c0.1-0.2,0.2-0.4,0.4-0.4c0.1,0,0.3,0.2,0.4,0.3
			c0.7,2,1.3,4,2,6.1c-1,0-1.9,0-2.8,0c0-0.3-0.1-0.6-0.1-0.8c0,0-0.1,0-0.1,0c-0.2,0.5-0.3,0.9-0.5,1.4
			C94,156.1,94,156.1,92.6,155.9z M95,153c0.4,0,0.6,0,1,0c-0.2-0.5-0.3-0.9-0.4-1.3c-0.1,0-0.1,0-0.2,0
			C95.3,152.1,95.2,152.5,95,153z"/>
		<path id="XMLID_3_" fill="#9B877A" d="M88.5,152.8c-0.4-0.1-0.6-0.2-0.8-0.2c0-0.3,0-0.7,0-1.1c0.6,0,1.2,0,1.8,0
			c0,0.9,0,1.8,0,2.8c-0.9,0-1.8,0.1-2.8,0c-0.2,0-0.6-0.5-0.6-0.7c-0.1-1.5,0-3,0-4.5c0-0.5,0.3-0.8,0.8-0.8c1.4,0,2.8,0,4.2,0
			c0,0.4,0,0.7,0,1.2c-1,0-2.1,0-3.1,0c-0.6,0-0.9,0.2-0.8,0.9c0,0.7,0,1.4,0,2.1C87.2,153.2,87.6,153.4,88.5,152.8z"/>
		<path id="XMLID_2_" fill="#9B877A" d="M79.9,153c1.3,0.2,2.6,0,3.9,0.1c0,0.4,0,0.7,0,1.1c-1.5,0-3,0-4.5,0
			c-0.2,0-0.6-0.5-0.6-0.8c-0.1-0.6,0-1.2,0-1.9c1.4,0,2.8,0,4.2,0c0,0.4,0,0.7,0,1.1c-1,0-2,0-2.9,0
			C79.9,152.8,79.9,152.9,79.9,153z"/>
		<path id="XMLID_1_" fill="#9B877A" d="M83.9,148.2c0,0.4,0,0.7,0,1.1c-1.3,0.2-2.7-0.1-4,0.2c0,0.1,0,0.2,0,0.3c1,0,1.9,0,3,0
			c0,0.4,0,0.8,0,1.2c-1.4,0-2.7,0-4.2,0c0-0.7-0.1-1.4,0-2.1c0-0.2,0.4-0.6,0.7-0.6C80.9,148.2,82.3,148.2,83.9,148.2z"/>
	</g>
	<path fill="#4B96D2" d="M119.2,10C108.7,5.2,97,2.5,84.7,2.5L6.6,59l0,0c-2.6,8.1-4.1,16.7-4.1,25.7c0,3.7,0.2,7.3,0.7,10.8l0,0
		L119.2,10"/>
	<g>
		<path d="M84.7,117.8c-18.3,0-33.1-14.8-33.1-33.1s14.8-33.1,33.1-33.1c18.3,0,33.1,14.8,33.1,33.1S102.9,117.8,84.7,117.8z
			 M84.7,52.6C67,52.6,52.6,67,52.6,84.7c0,17.7,14.4,32.1,32.1,32.1s32.1-14.4,32.1-32.1C116.8,67,102.4,52.6,84.7,52.6z"/>
	</g>
	<g>
		<path fill="#A299A1" d="M84.7,99.4c-8.1,0-14.7-6.6-14.7-14.7S76.6,70,84.7,70s14.7,6.6,14.7,14.7S92.8,99.4,84.7,99.4z M84.7,71
			C77.1,71,71,77.1,71,84.7c0,7.5,6.1,13.7,13.7,13.7c7.5,0,13.7-6.1,13.7-13.7C98.4,77.1,92.2,71,84.7,71z"/>
	</g>
	<g>
		<path fill="#A299A1" d="M84.7,96.5c-6.5,0-11.8-5.3-11.8-11.8c0-6.5,5.3-11.8,11.8-11.8c6.5,0,11.8,5.3,11.8,11.8
			C96.5,91.2,91.2,96.5,84.7,96.5z M84.7,73.8c-6,0-10.8,4.9-10.8,10.8c0,6,4.9,10.8,10.8,10.8c6,0,10.8-4.9,10.8-10.8
			C95.5,78.7,90.7,73.8,84.7,73.8z"/>
	</g>
	<g>
		<path fill="#AB9986" d="M117.3,84.7c0,18-14.6,32.6-32.6,32.6s-32.6-14.6-32.6-32.6s14.6-32.6,32.6-32.6S117.3,66.7,117.3,84.7z
			 M84.7,56.3C69,56.3,56.3,69,56.3,84.7S69,113,84.7,113S113,100.3,113,84.7S100.3,56.3,84.7,56.3z"/>
	</g>
	<path fill="#4B96D2" d="M135.5,125.5H91.1L165.8,71l0,0c0.8,4.5,1.1,9.2,1.1,13.9c0,6.7-0.8,13.1-2.2,19.3l0,0L135.5,125.5z"/>
	<path fill="#4B96D2" d="M66.6,112.4c-7.8-5.1-13.4-13.5-14.7-23.2l-41.6,30.5l0,0c0.9,2,1.9,3.9,3,5.8l35.2,0L66.6,112.4"/>
	<path fill="none" stroke="#7AC143" stroke-miterlimit="10" d="M66.6,112.4"/>
	<path fill="none" stroke="#7AC143" stroke-miterlimit="10" d="M84.7,117.8"/>
	<path fill="#4B96D2" d="M98.8,54.7c8.7,4.1,15.4,12,17.9,21.4l0,0l40.9-29.6l0,0c-4.4-8.4-10.2-16-17.2-22.4l0,0
		C140.4,24.2,98.8,54.8,98.8,54.7"/>
	<path fill="none" stroke="#7AC143" stroke-miterlimit="10" d="M98.8,54.7"/>
	<path fill="none" stroke="#7AC143" stroke-miterlimit="10" d="M84.7,51.6"/>
	<path fill="none" stroke="#7AC143" stroke-miterlimit="10" d="M51.6,84.7"/>
	<path fill="none" stroke="#7AC143" stroke-miterlimit="10" d="M51.9,89.2"/>
	<g>
		<path fill="#0F1317" d="M137.4,115.4h-0.6v-1.3l-0.4,1.3h-0.6l0,0l-0.4-1.2v1.3h-0.6v-2.1l0.8,0l0,0l0.5,1.4l0.5-1.4l0.8,0V115.4z
			 M136.9,115.3h0.4v-1.9l-0.7,0l-0.5,1.6l-0.5-1.6l-0.7,0v1.9h0.4v-1.8l0.6,1.8h0.4l0.6-1.8V115.3z"/>
	</g>
	<g>
		<path fill="#0F1317" d="M144.3,115.4h-0.6v-1.5h-0.5v-0.6h1.5v0.6h-0.5V115.4z M143.8,115.3h0.4v-1.5h0.5v-0.4h-1.3v0.4h0.5V115.3
			z"/>
	</g>
	<g>
		<path fill="#0F1317" d="M133.7,114.9c-0.3,0-0.4-0.1-0.4-0.2l0,0c0,0,0-0.3,0-0.4c0-0.1,0-0.4,0-0.4l0,0c0-0.2,0.1-0.2,0.4-0.2
			c0.3,0,0.4,0.1,0.4,0.2l0,0c0,0.1,0,0.3,0,0.4c0,0.1,0,0.4,0,0.4l0,0C134.1,114.9,134,114.9,133.7,114.9z M133.7,113.8
			c-0.3,0-0.3,0-0.3,0.1l0,0c0,0,0,0.3,0,0.4c0,0.1,0,0.3,0,0.4l0,0c0,0.1,0,0.1,0.3,0.1s0.3,0,0.3-0.1l0,0c0,0,0-0.3,0-0.4
			c0-0.2,0-0.4,0-0.4l0,0C134,113.8,134,113.8,133.7,113.8z"/>
	</g>
	<g>
		<path fill="#0F1317" d="M133.7,115.4c-0.8,0-0.9-0.2-0.9-0.5c0,0,0-0.1,0-0.1c0-0.1,0-0.3,0-0.5s0-0.5,0-0.5c0,0,0-0.1,0-0.1
			c0-0.3,0.1-0.5,0.9-0.5s0.9,0.2,0.9,0.5c0,0,0,0.1,0,0.1c0,0.1,0,0.3,0,0.5c0,0.2,0,0.4,0,0.5c0,0,0,0.1,0,0.1
			C134.6,115.2,134.5,115.4,133.7,115.4z M133.7,113.3c-0.8,0-0.8,0.2-0.8,0.4c0,0,0,0.1,0,0.1c0,0.1,0,0.3,0,0.5c0,0.2,0,0.4,0,0.5
			c0,0,0,0.1,0,0.1c0,0.2,0,0.4,0.8,0.4s0.8-0.2,0.8-0.4c0,0,0-0.1,0-0.1c0-0.1,0-0.3,0-0.5c0-0.2,0-0.5,0-0.5c0,0,0-0.1,0-0.1
			C134.5,113.5,134.5,113.3,133.7,113.3z"/>
	</g>
	<g>
		<path fill="#0F1317" d="M131.6,115.4c-0.8,0-0.9-0.2-0.9-0.5c0,0,0-0.1,0-0.1c0-0.1,0-0.3,0-0.5c0-0.2,0-0.5,0-0.5
			c0,0,0-0.1,0-0.1c0-0.3,0.1-0.5,0.9-0.5c0,0,0,0,0,0c0.8,0,0.9,0.2,0.9,0.5c0,0,0,0.1,0,0.1c0,0.1,0,0.2,0,0.3l0,0.1h-0.6l0,0
			c0-0.1,0-0.1,0-0.1l0,0c0-0.1,0-0.1-0.3-0.1s-0.3,0-0.3,0.1l0,0c0,0,0,0.3,0,0.4c0,0.1,0,0.4,0,0.4l0,0c0,0.1,0,0.1,0.3,0.1
			s0.3,0,0.3-0.1l0,0c0,0,0-0.1,0-0.1l0,0h0.6l0,0.1c0,0.1,0,0.2,0,0.3c0,0,0,0.1,0,0.1C132.5,115.2,132.4,115.4,131.6,115.4z
			 M131.6,113.3c-0.8,0-0.8,0.2-0.8,0.4c0,0,0,0.1,0,0.1c0,0.1,0,0.3,0,0.5c0,0.2,0,0.4,0,0.5c0,0,0,0.1,0,0.1c0,0.2,0,0.4,0.8,0.4
			c0.8,0,0.8-0.2,0.8-0.4c0,0,0-0.1,0-0.1c0,0,0-0.1,0-0.2H132c0,0,0,0.1,0,0.1l0,0c0,0.2-0.1,0.2-0.4,0.2s-0.4-0.1-0.4-0.2l0,0
			c0,0,0-0.3,0-0.4c0-0.1,0-0.4,0-0.4l0,0c0-0.2,0.1-0.2,0.4-0.2s0.4,0.1,0.4,0.2l0,0c0,0,0,0,0,0.1h0.4c0-0.1,0-0.2,0-0.2
			c0,0,0-0.1,0-0.1C132.4,113.5,132.4,113.3,131.6,113.3C131.6,113.3,131.6,113.3,131.6,113.3z"/>
	</g>
	<g>
		<path fill="#0F1317" d="M132.5,123.6l-1.5,0c-0.3,0-0.6-0.3-0.6-0.6l0-6.6c0-0.3,0.3-0.6,0.6-0.6h1.5c0.3,0,0.6,0.3,0.6,0.6v6.6
			C133.1,123.4,132.8,123.6,132.5,123.6z M131,116.1c-0.2,0-0.3,0.1-0.3,0.3l0,6.6c0,0.2,0.1,0.3,0.3,0.3h0.8v0.1v-0.1l0.8,0
			c0.2,0,0.3-0.1,0.3-0.3v-6.6c0-0.2-0.1-0.3-0.3-0.3H131z"/>
	</g>
	<g>
		<path fill="#0F1317" d="M134,123.6c-0.3,0-0.6-0.3-0.6-0.6v-1.2c0-0.3,0.3-0.6,0.6-0.6l2.5,0c0.1,0,0.1-0.1,0.1-0.1
			s-0.1-0.1-0.1-0.1l-1.7,0c-0.8,0-1.4-0.6-1.4-1.4v-2.2c0-0.8,0.6-1.4,1.4-1.4l3.4,0c0.3,0,0.6,0.3,0.6,0.6l0,1.2
			c0,0.3-0.3,0.6-0.6,0.6l-2.3,0c-0.1,0-0.1,0.1-0.1,0.1c0,0.1,0.1,0.1,0.1,0.1l1.7,0c0.8,0,1.4,0.6,1.4,1.4l0,2.2
			c0,0.8-0.6,1.4-1.4,1.4L134,123.6z M134,121.5c-0.2,0-0.3,0.1-0.3,0.3v1.2c0,0.2,0.1,0.3,0.3,0.3l3.6,0c0.6,0,1.1-0.5,1.1-1.1
			l0-2.2c0-0.6-0.5-1.1-1.1-1.1l-1.7,0c-0.2,0-0.4-0.2-0.4-0.4s0.2-0.4,0.4-0.4l2.3,0c0.2,0,0.3-0.1,0.3-0.3l0-1.2
			c0-0.2-0.1-0.3-0.3-0.3l-3.4,0c-0.6,0-1.1,0.5-1.1,1.1v2.2c0,0.6,0.5,1.1,1.1,1.1l1.7,0c0.2,0,0.4,0.2,0.4,0.4s-0.2,0.4-0.4,0.4
			L134,121.5z"/>
	</g>
	<g>
		<path fill="#0F1317" d="M143.4,123.6h-2.7c-0.8,0-1.4-0.6-1.4-1.4v-4.9c0-0.8,0.6-1.4,1.4-1.4h2.7c0.8,0,1.4,0.6,1.4,1.4v1.6
			c0,0.3-0.3,0.6-0.6,0.6h-1.4c-0.3,0-0.6-0.3-0.6-0.6l0-0.8c0-0.1,0-0.3-0.2-0.3s-0.2,0.2-0.2,0.3v3.4c0,0.1,0,0.3,0.2,0.3
			s0.2-0.2,0.2-0.3l0-0.8c0-0.3,0.3-0.6,0.6-0.6h1.4c0.3,0,0.6,0.3,0.6,0.6v1.5C144.8,123,144.2,123.6,143.4,123.6z M140.7,116.1
			c-0.6,0-1.1,0.5-1.1,1.1v4.9c0,0.6,0.5,1.1,1.1,1.1h2.7c0.6,0,1.1-0.5,1.1-1.1v-1.5c0-0.2-0.1-0.3-0.3-0.3h-1.4
			c-0.2,0-0.3,0.1-0.3,0.3l0,0.8c0,0.4-0.2,0.6-0.5,0.6s-0.5-0.2-0.5-0.6V118c0-0.4,0.2-0.6,0.5-0.6s0.5,0.2,0.5,0.6l0,0.8
			c0,0.2,0.1,0.3,0.3,0.3h1.4c0.2,0,0.3-0.1,0.3-0.3v-1.6c0-0.6-0.5-1.1-1.1-1.1H140.7z"/>
	</g>
	<g>
		<path fill="#0F1317" d="M125.7,123.6c-0.8,0-1.4-0.6-1.4-1.4v-4.9c0-0.8,0.6-1.4,1.4-1.4l1.8,0c0,0,0,0,0,0l0-2
			c0-0.3,0.3-0.6,0.6-0.6h1.5c0.3,0,0.6,0.3,0.6,0.6v9.2c0,0.3-0.3,0.6-0.6,0.6L125.7,123.6z M125.7,116.1c-0.6,0-1.1,0.5-1.1,1.1
			v4.9c0,0.6,0.5,1.1,1.1,1.1l3.9,0c0.2,0,0.3-0.1,0.3-0.3v-9.2c0-0.2-0.1-0.3-0.3-0.3h-1.5c-0.2,0-0.3,0.1-0.3,0.3l0,2
			c0,0.2-0.1,0.3-0.3,0.3L125.7,116.1z"/>
	</g>
	<g>
		<path fill="#0F1317" d="M127.2,122.5c-0.6,0-1-0.5-1-1.1V118c0-0.6,0.5-1.1,1-1.1c0.6,0,1,0.5,1,1.1v3.4
			C128.3,122,127.8,122.5,127.2,122.5z M127.2,117.2c-0.4,0-0.7,0.3-0.7,0.8v3.4c0,0.4,0.3,0.8,0.7,0.8s0.7-0.3,0.7-0.8V118
			C128,117.5,127.6,117.2,127.2,117.2z"/>
	</g>
	<polygon fill="none" stroke="#0F1317" stroke-width="0.1" stroke-miterlimit="10" points="140.7,114.9 140.8,115.3 141.3,115.3 
		140.8,113.3 140,113.3 139.5,115.3 140,115.3 140.1,114.9 	"/>
	<path fill="none" stroke="#0F1317" stroke-width="0.1" stroke-miterlimit="10" d="M138.3,114.8l0,0.5h-0.5v-2l0.8,0
		c0.9,0,0.8,0.3,0.9,0.5c0,0,0,0.2,0,0.3c0,0.1,0,0.2,0,0.3c0,0.3,0.1,0.5-0.9,0.5l0,0L138.3,114.8z"/>
	<path fill="none" stroke="#0F1317" stroke-width="0.1" stroke-miterlimit="10" d="M138.3,113.8l0,0.6l0.3,0c0.4,0,0.4-0.1,0.4-0.2
		c0,0,0,0,0-0.1c0-0.1,0-0.1,0-0.1c0-0.1,0-0.2-0.4-0.2L138.3,113.8z"/>
	<g>
		<path fill="#0F1317" d="M142.3,115.4c-0.8,0-0.9-0.2-0.9-0.5c0,0,0-0.1,0-0.1c0-0.1,0-0.3,0-0.5s0-0.5,0-0.5c0,0,0-0.1,0-0.1
			c0-0.3,0.1-0.5,0.9-0.5c0,0,0,0,0,0c0.8,0,0.9,0.2,0.9,0.5c0,0,0,0.1,0,0.1c0,0.1,0,0.2,0,0.3l0,0.1h-0.6l0,0c0-0.1,0-0.1,0-0.1
			l0,0c0-0.1,0-0.1-0.3-0.1s-0.3,0-0.3,0.1l0,0c0,0,0,0.3,0,0.4c0,0.1,0,0.4,0,0.4l0,0c0,0.1,0,0.1,0.3,0.1s0.3,0,0.3-0.1l0,0
			c0,0,0-0.1,0-0.1l0,0h0.6l0,0.1c0,0.1,0,0.2,0,0.3c0,0,0,0.1,0,0.1C143.2,115.2,143.1,115.4,142.3,115.4z M142.3,113.3
			c-0.8,0-0.8,0.2-0.8,0.4c0,0,0,0.1,0,0.1c0,0.1,0,0.3,0,0.5c0,0.2,0,0.4,0,0.5c0,0,0,0.1,0,0.1c0,0.2,0,0.4,0.8,0.4
			c0.8,0,0.8-0.2,0.8-0.4c0,0,0-0.1,0-0.1c0,0,0-0.1,0-0.2h-0.4c0,0,0,0.1,0,0.1l0,0c0,0.2-0.1,0.2-0.4,0.2s-0.4-0.1-0.4-0.2l0,0
			c0,0,0-0.3,0-0.4c0-0.1,0-0.4,0-0.4l0,0c0-0.2,0.1-0.2,0.4-0.2s0.4,0.1,0.4,0.2l0,0c0,0,0,0,0,0.1h0.4c0-0.1,0-0.2,0-0.2
			c0,0,0-0.1,0-0.1C143.1,113.5,143.1,113.3,142.3,113.3C142.3,113.3,142.3,113.3,142.3,113.3z"/>
	</g>
	<path fill="#0F1317" d="M140.6,114.5h-0.4l0.2-0.7L140.6,114.5z M140.7,114.9l0.1,0.4h0.5l-0.6-2H140l-0.6,2h0.5l0.1-0.4H140.7z"/>
	<g>
		<path fill="#9B877A" d="M142.7,114.6c0,0.1,0,0.1,0,0.1c0,0.1,0,0.2-0.4,0.2s-0.4-0.1-0.4-0.2c0,0,0-0.3,0-0.4c0-0.1,0-0.4,0-0.4
			c0-0.1,0-0.2,0.4-0.2s0.4,0.1,0.4,0.2c0,0,0,0.1,0,0.1l0.5,0c0-0.1,0-0.2,0-0.3c0-0.3,0.1-0.5-0.9-0.5c-0.9,0-0.8,0.3-0.9,0.5
			c0,0.1,0,0.3,0,0.5c0,0.2,0,0.4,0,0.5c0,0.3-0.1,0.5,0.9,0.5c0.9,0,0.8-0.3,0.9-0.5c0-0.1,0-0.1,0-0.3H142.7L142.7,114.6z"/>
		<polygon fill="#9B877A" points="136.6,113.3 136.1,114.8 135.6,113.3 134.9,113.3 134.9,115.3 135.4,115.3 135.4,113.8 
			135.9,115.3 136.4,115.3 136.9,113.8 136.9,115.3 137.4,115.3 137.4,113.3 		"/>
		<polygon fill="#9B877A" points="143.3,113.3 144.7,113.3 144.7,113.8 144.3,113.8 144.3,115.3 143.8,115.3 143.8,113.8 
			143.3,113.8 		"/>
		<polygon fill="#9B877A" points="139.5,115.3 140,113.3 140.8,113.3 141.3,115.3 140.8,115.3 140.7,114.9 140.1,114.9 140.2,114.6 
			140.6,114.6 140.4,113.7 140,115.3 		"/>
		<path fill="#9B877A" d="M133.7,113.7c0.4,0,0.4,0.1,0.4,0.2c0,0,0,0.3,0,0.4c0,0.1,0,0.4,0,0.4c0,0.1,0,0.2-0.4,0.2
			c-0.4,0-0.4-0.1-0.4-0.2c0,0,0-0.3,0-0.4c0-0.1,0-0.4,0-0.4C133.3,113.8,133.3,113.7,133.7,113.7l0-0.5c-0.9,0-0.8,0.3-0.9,0.5
			c0,0.1,0,0.3,0,0.5c0,0.2,0,0.4,0,0.5c0,0.3-0.1,0.5,0.9,0.5s0.8-0.3,0.9-0.5c0-0.1,0-0.3,0-0.5c0-0.2,0-0.4,0-0.5
			c0-0.3,0.1-0.5-0.9-0.5L133.7,113.7z"/>
		<path fill="#9B877A" d="M132,114.6c0,0.1,0,0.1,0,0.1c0,0.1,0,0.2-0.4,0.2s-0.4-0.1-0.4-0.2c0,0,0-0.3,0-0.4s0-0.4,0-0.4
			c0-0.1,0-0.2,0.4-0.2s0.4,0.1,0.4,0.2c0,0,0,0.1,0,0.1l0.5,0c0-0.1,0-0.2,0-0.3c0-0.3,0.1-0.5-0.9-0.5c-0.9,0-0.8,0.3-0.9,0.5
			c0,0.1,0,0.3,0,0.5c0,0.2,0,0.4,0,0.5c0,0.3-0.1,0.5,0.9,0.5c0.9,0,0.8-0.3,0.9-0.5c0-0.1,0-0.1,0-0.3H132z"/>
		<path fill="#9B877A" d="M138.6,114.9l-0.3,0v-0.5l0.3,0c0.4,0,0.4-0.1,0.4-0.2c0,0,0,0,0-0.1c0-0.1,0-0.1,0-0.1
			c0-0.1,0-0.2-0.4-0.2l-0.3,0l0,1.6h-0.5v-2l0.8,0c0.9,0,0.8,0.3,0.9,0.5c0,0,0,0.2,0,0.3c0,0.1,0,0.2,0,0.3
			C139.4,114.6,139.5,114.9,138.6,114.9L138.6,114.9z"/>
		<path fill="#9B877A" d="M131.8,123.4l0.7,0c0.2,0,0.4-0.2,0.4-0.4v-6.6c0-0.2-0.2-0.4-0.4-0.4l-1.5,0c-0.2,0-0.4,0.2-0.4,0.4
			l0,6.6c0,0.2,0.2,0.4,0.4,0.4L131.8,123.4"/>
		<path fill="#9B877A" d="M137.2,118l1,0c0.2,0,0.4-0.2,0.4-0.4l0-1.2c0-0.2-0.2-0.4-0.4-0.4l-3.4,0c-0.7,0-1.2,0.6-1.2,1.3v2.2
			c0,0.7,0.6,1.3,1.2,1.3l1.7,0c0.2,0,0.3,0.1,0.3,0.3c0,0.2-0.1,0.3-0.3,0.3l-2.5,0c-0.2,0-0.4,0.2-0.4,0.4v1.2
			c0,0.2,0.2,0.4,0.4,0.4l3.6,0c0.7,0,1.2-0.6,1.2-1.3l0-2.2c0-0.7-0.6-1.3-1.2-1.3l-1.7,0c-0.2,0-0.3-0.1-0.3-0.3
			c0-0.2,0.1-0.3,0.3-0.3H137.2"/>
		<path fill="#9B877A" d="M143.6,119.2h-0.6c-0.2,0-0.4-0.2-0.4-0.4l0-0.8c0-0.3-0.1-0.5-0.4-0.5c-0.3,0-0.4,0.2-0.4,0.5v3.4
			c0,0.3,0.1,0.5,0.4,0.5c0.3,0,0.4-0.2,0.4-0.5l0-0.8c0-0.2,0.2-0.4,0.4-0.4h1.4c0.2,0,0.4,0.2,0.4,0.4l0,1.5
			c0,0.7-0.6,1.3-1.2,1.3h-2.7c-0.7,0-1.2-0.6-1.2-1.3v-4.9c0-0.7,0.6-1.3,1.2-1.3h2.7c0.7,0,1.2,0.6,1.2,1.3l0,1.6
			c0,0.2-0.2,0.4-0.4,0.4H143.6"/>
		<path fill="#9B877A" d="M128.8,123.4h0.8c0.2,0,0.4-0.2,0.4-0.4v-9.2c0-0.2-0.2-0.4-0.4-0.4h-1.5c-0.2,0-0.4,0.2-0.4,0.4l0,2
			c0,0.1-0.1,0.2-0.2,0.2l-1.8,0c-0.7,0-1.2,0.6-1.2,1.3l0,4.9c0,0.7,0.6,1.3,1.2,1.3L128.8,123.4 M128.1,121.2v0.2
			c0,0.5-0.4,0.9-0.9,0.9c-0.5,0-0.9-0.4-0.9-0.9V118c0-0.5,0.4-0.9,0.9-0.9c0.5,0,0.9,0.4,0.9,0.9V121.2"/>
	</g>
</g>
</svg>
