<?xml version="1.0" encoding="UTF-8" standalone="no"?>
<svg
   xmlns:dc="http://purl.org/dc/elements/1.1/"
   xmlns:cc="http://creativecommons.org/ns#"
   xmlns:rdf="http://www.w3.org/1999/02/22-rdf-syntax-ns#"
   xmlns:svg="http://www.w3.org/2000/svg"
   xmlns="http://www.w3.org/2000/svg"
   xmlns:sodipodi="http://sodipodi.sourceforge.net/DTD/sodipodi-0.dtd"
   xmlns:inkscape="http://www.inkscape.org/namespaces/inkscape"
   viewBox="0 0 30 30"
   height="30"
   width="30"
   version="1.1"
   id="svg2"
   inkscape:version="0.91 r13725"
   sodipodi:docname="icon_empty.svg">
  <sodipodi:namedview
     pagecolor="#ffffff"
     bordercolor="#666666"
     borderopacity="1"
     objecttolerance="10"
     gridtolerance="10"
     guidetolerance="10"
     inkscape:pageopacity="0"
     inkscape:pageshadow="2"
     inkscape:window-width="1920"
     inkscape:window-height="1027"
     id="namedview24"
     showgrid="false"
     inkscape:zoom="18.192203"
     inkscape:cx="16.621274"
     inkscape:cy="13.190244"
     inkscape:window-x="-8"
     inkscape:window-y="-8"
     inkscape:window-maximized="1"
     inkscape:current-layer="svg2" />
  <metadata
     id="metadata8">
    <rdf:RDF>
      <cc:Work
         rdf:about="">
        <dc:format>image/svg+xml</dc:format>
        <dc:type
           rdf:resource="http://purl.org/dc/dcmitype/StillImage" />
        <dc:title></dc:title>
      </cc:Work>
    </rdf:RDF>
  </metadata>
  <defs
     id="defs6" />
  <g
     id="g3356"
     transform="matrix(0.10969546,0,0,0.10969546,0,3.2574054)">
    <path
       id="path3390"
       d="m 38.805625,193.63186 0.112145,-13.92958 17.863894,-3.61531 17.863894,-3.61531 0.110059,-22.64887 0.110063,-22.64887 -0.960725,8.5e-4 c -0.528397,4.3e-4 -11.296169,1.05323 -23.928388,2.33932 -22.61941,2.30301 -23.17243,2.33847 -36.472116,2.33847 L 0,131.85256 0,73.582235 0,15.31191 l 12.787839,0 12.787838,0 19.005641,2.351764 c 10.4531,1.29347 19.436287,2.445509 19.962633,2.560088 l 0.956995,0.208325 0,26.362408 0,26.36241 4.891304,0 4.891305,0 0,-12.392984 0,-12.392984 15.099244,0.202496 15.099241,0.202495 0,-9.501385 c 0,-5.225761 -0.0478,-9.512496 -0.10633,-9.526076 -0.0585,-0.01358 -6.900993,-0.833724 -15.205577,-1.822541 L 75.070889,26.128077 74.95841,13.064038 74.845932,0 86.229677,0.02095106 97.613422,0.04190211 112.07467,2.6792688 126.53592,5.3166355 126.6492,16.694235 c 0.0864,8.673888 0.23797,11.378705 0.63799,11.382246 0.2886,0.0026 5.68398,0.672452 11.98975,1.488658 6.30576,0.816207 11.61708,1.484012 11.80293,1.484012 0.18584,0 0.3379,4.784972 0.3379,10.633271 0,5.848299 0.14355,10.635079 0.319,10.637286 0.17545,0.0021 5.48677,0.381437 11.80293,0.842725 6.31616,0.461293 12.20168,0.842283 13.07892,0.846647 l 1.59499,0.0079 0,-8.719283 0,-8.719282 9.13523,0 9.13523,0 0.11571,-7.974953 0.11572,-7.974953 6.67526,-0.117013 c 6.09959,-0.106921 7.40175,0.01436 15.09925,1.406376 4.63319,0.837864 8.76262,1.622336 9.17652,1.74327 0.69456,0.202944 0.74371,0.930119 0.63799,9.439561 l -0.11454,9.219679 -7.97526,0 -7.97526,0 3.1e-4,7.124291 3.1e-4,7.124292 1.16966,0.0399 c 0.64331,0.02195 4.13634,0.261191 7.76228,0.531663 l 6.59263,0.491764 0.11496,8.825615 c 0.0703,5.400115 0.2767,8.825614 0.53167,8.825614 0.26483,5e-6 0.4167,-5.968033 0.4167,-16.375233 l 0,-16.375237 7.54962,0.03581 c 4.33968,0.02059 9.90057,0.338049 13.07892,0.746647 l 5.5293,0.710826 0.10897,32.344777 0.10897,32.344779 -11.80556,1.18018 c -6.49307,0.6491 -12.52332,1.28573 -13.40056,1.41474 l -1.59499,0.23454 -4.2e-4,14.93856 -4.2e-4,14.93855 7.23105,-0.14219 7.23104,-0.14218 0,8.95592 0,8.95591 -2.23299,0.62585 c -13.12936,3.67984 -12.97242,3.65123 -20.03221,3.65123 l -6.6573,0 1.9e-4,-7.12429 1.9e-4,-7.12429 -8.61314,0 -8.61314,0 -0.21266,-7.6854 -0.21267,-7.68539 -32.96314,5.20398 c -18.12972,2.86219 -33.77658,5.3275 -34.77079,5.47847 l -1.80766,0.27449 0,11.21654 c 0,10.31579 -0.0598,11.23406 -0.74433,11.43463 -0.40938,0.11994 -6.67769,1.47912 -13.92958,3.02039 -7.25189,1.54128 -13.517332,2.90351 -13.923204,3.0272 -0.674907,0.20568 -0.747574,1.2835 -0.850662,12.61745 l -0.112712,12.39256 -16.800568,4.56879 -16.800567,4.56878 -12.446736,0.0253 -12.446741,0.0252 0.112145,-13.92959 z m 93.897585,-107.71503 0,-9.78261 -2.76465,0 -2.76465,0 0,9.78261 0,9.782609 2.76465,0 2.76465,0 0,-9.782609 z m 63.79963,-1.063327 0,-8.293952 -1.06333,0 -1.06333,0 0,8.293952 0,8.293951 1.06333,0 1.06333,0 0,-8.293951 z"
       style="fill-opacity:1"
       inkscape:connector-curvature="0" />
    <path
       id="path3388"
       d="m 38.805625,193.63186 0.112145,-13.92958 17.970227,-3.6118 17.970227,-3.6118 0,-22.65238 0,-22.65238 -1.034771,0 c -0.569126,0 -11.36153,1.0527 -23.98312,2.33932 -22.584831,2.30227 -23.161335,2.33932 -36.394338,2.33932 L 0,131.85256 0,73.582235 0,15.31191 l 12.866257,1.95e-4 12.866257,1.94e-4 18.501891,2.332767 c 10.17604,1.283022 19.123937,2.440001 19.884216,2.571064 l 1.382325,0.238296 0,26.351238 0,26.351241 4.891304,0 4.891305,0 0,-12.392984 0,-12.392984 15.099244,0.202496 15.099241,0.202495 0,-9.501385 c 0,-5.225761 -0.0478,-9.516933 -0.10633,-9.535937 -0.0585,-0.019 -6.900993,-0.840916 -15.205577,-1.826472 L 75.070889,26.120213 74.95841,13.060107 74.845932,0 86.229677,0.02456393 97.613422,0.04912785 112.07467,2.6864109 l 14.46125,2.637283 0.11328,11.3740711 c 0.0623,6.255739 0.2537,11.37551 0.42533,11.377269 0.17163,0.0017 5.57552,0.670217 12.00865,1.485459 6.43313,0.815243 11.84014,1.4837 12.01559,1.485459 0.17545,0.0018 0.319,4.788171 0.319,10.63647 0,5.848299 0.14355,10.636844 0.319,10.641208 0.17545,0.0044 5.48677,0.385354 11.80293,0.846647 6.31616,0.461288 12.20168,0.840513 13.07892,0.842725 l 1.59499,0.004 0,-8.719283 0,-8.719282 9.13523,0 9.13523,0 0.11571,-7.974953 0.11572,-7.974953 6.54642,-0.117735 c 5.93816,-0.106796 7.32135,0.02197 14.88658,1.385832 4.58709,0.826962 8.77453,1.602268 9.30542,1.722904 l 0.96526,0.219336 -0.1146,9.240768 -0.1146,9.240768 -7.97526,0 -7.97526,0 3.1e-4,7.069351 3.1e-4,7.069356 2.44565,0.251239 c 1.34511,0.138177 4.45534,0.36447 6.91163,0.502868 7.1838,0.404766 6.37996,-0.774442 6.37996,9.359146 0,5.523899 0.15562,8.71118 0.42533,8.71118 0.27619,0 0.42533,-5.741967 0.42533,-16.375238 l 0,-16.375237 7.10036,0 c 5.95844,0 14.38067,0.698134 18.31316,1.51801 l 0.95699,0.199518 0,32.239751 0,32.239742 -12.0156,1.16633 c -6.60857,0.64148 -12.63764,1.27176 -13.39792,1.40062 l -1.38232,0.23429 -4.2e-4,14.94558 -4.2e-4,14.94557 7.23105,-0.14218 7.23104,-0.14218 0,8.93913 c 0,8.14306 -0.0663,8.95944 -0.74433,9.16713 -0.40938,0.1254 -3.95222,1.09529 -7.87298,2.15531 -7.01446,1.89646 -7.23418,1.92734 -13.71692,1.92734 l -6.58827,0 1.9e-4,-7.12429 1.9e-4,-7.12429 -8.61314,0 -8.61314,0 -0.11595,-7.76798 -0.11595,-7.76797 -0.94737,0.22167 c -0.84684,0.19816 -68.21444,10.84831 -68.62104,10.84831 -0.0916,0 -0.16661,5.06842 -0.16661,11.26316 l 0,11.26317 -0.95699,0.23487 c -0.52635,0.12917 -7.08176,1.54038 -14.56758,3.13597 l -13.610588,2.90111 -0.212665,12.47961 -0.212665,12.47961 -17.013233,4.59163 -17.013233,4.59163 -12.234071,0.004 -12.234075,0.004 0.112145,-13.92958 z m 93.897585,-107.71503 0,-9.78261 -2.76465,0 -2.76465,0 0,9.78261 0,9.782609 2.76465,0 2.76465,0 0,-9.782609 z m 63.79963,-1.091578 0,-8.322202 -1.16966,0.134583 -1.16966,0.134584 -0.11552,8.187618 -0.11552,8.187619 1.28518,0 1.28518,0 0,-8.322202 z"
       style="fill-opacity:1"
       inkscape:connector-curvature="0" />
    <path
       id="path3386"
       d="m 38.805625,193.63186 0.112145,-13.92958 17.970227,-3.6118 17.970227,-3.6118 0,-22.65238 0,-22.65238 -1.16966,8.5e-4 c -0.643313,4.3e-4 -11.505109,1.05323 -24.137328,2.33932 -22.535906,2.29451 -23.217531,2.33847 -36.25945,2.33847 L 0,131.85256 0,73.582235 0,15.31191 l 12.648884,0 12.648883,0 18.719264,2.336574 c 10.295596,1.285116 19.341311,2.442182 20.10159,2.571258 l 1.382325,0.234684 0,26.351238 0,26.351241 4.891304,0 4.891305,0 0,-12.395098 0,-12.395098 15.099244,0.212551 15.099241,0.212546 0,-9.50122 0,-9.50122 -0.95699,-0.212361 C 103.9987,29.460206 97.53899,28.685618 90.170133,27.855696 82.801277,27.025775 76.341565,26.252749 75.815218,26.137862 l -0.956994,-0.208888 0,-12.964487 L 74.858224,0 86.023158,0.01052702 97.188092,0.02105405 111.862,2.6862222 126.53592,5.3513901 126.6492,16.711613 c 0.0623,6.248122 0.2537,11.360312 0.42533,11.360422 0.17163,1.09e-4 5.5497,0.670005 11.95127,1.488657 6.40157,0.818653 11.80859,1.488459 12.0156,1.488459 0.20821,0 0.37637,4.735866 0.37637,10.599418 l 0,10.599416 2.65832,0.254071 c 4.26606,0.407727 20.71101,1.514961 22.50064,1.514961 l 1.63688,0 0,-8.719283 0,-8.719282 9.35728,0 9.35728,0 0,-7.86862 0,-7.868621 7.54962,-0.01004 c 6.63579,-0.0088 8.47633,0.154356 15.20558,1.348105 4.21077,0.746978 7.89893,1.543622 8.1959,1.770319 0.41293,0.31521 0.51299,2.524605 0.42533,9.391499 l -0.11462,8.979323 -7.97507,0 -7.97508,0 1.2e-4,7.075285 1.3e-4,7.07528 2.23298,0.246343 c 1.22815,0.135485 4.14698,0.356232 6.4863,0.490543 2.33932,0.134311 4.87535,0.341285 5.63563,0.459936 l 1.38233,0.215736 0,8.700006 c 0,5.516452 0.15564,8.700011 0.42533,8.700011 0.27619,0 0.42533,-5.741967 0.42533,-16.375238 l 0,-16.375237 6.89351,0 c 5.81676,0 14.9276,0.74421 18.52001,1.512787 l 0.95699,0.204741 0,32.218114 0,32.218116 -12.0156,1.18751 c -6.60857,0.65313 -12.63764,1.29314 -13.39792,1.42225 l -1.38232,0.23475 -4.2e-4,14.94558 -4.2e-4,14.94557 7.23105,-0.14218 7.23104,-0.14218 0,8.9514 0,8.95141 -1.80766,0.48391 c -0.99421,0.26616 -4.57649,1.23053 -7.96061,2.14305 -5.88866,1.58786 -6.4322,1.65913 -12.6536,1.65913 l -6.50063,0 6e-5,-7.12429 7e-5,-7.12429 -8.50668,0.15071 -8.50668,0.15071 0,-7.94679 0,-7.9468 -1.16966,0.23993 c -0.64331,0.13196 -15.23748,2.45053 -32.43148,5.15238 -17.19399,2.70186 -32.45805,5.11693 -33.92013,5.36684 l -2.65832,0.45437 0,11.2276 c 0,6.17519 -0.0479,11.23318 -0.10633,11.24 -0.0585,0.007 -6.61389,1.40978 -14.56758,3.1177 l -14.461248,3.10533 -0.212665,12.47594 -0.212665,12.47594 -17.013233,4.60193 -17.013233,4.60193 -12.234071,0.008 -12.234075,0.008 0.112145,-13.92959 z m 93.897585,-107.71503 0,-9.78261 -2.76465,0 -2.76465,0 0,9.78261 0,9.782609 2.76465,0 2.76465,0 0,-9.782609 z m 63.79963,-1.063327 0,-8.293952 -1.276,0 -1.27599,0 0,8.293952 0,8.293951 1.27599,0 1.276,0 0,-8.293951 z"
       style="fill-opacity:1"
       inkscape:connector-curvature="0" />
    <path
       id="path3384"
       d="m 39.130435,193.57656 0,-13.98488 17.863894,-3.50471 17.863895,-3.50472 0,-22.70416 0,-22.70417 -1.247436,0 c -0.686093,0 -11.574196,1.0527 -24.195786,2.33932 -22.500761,2.2937 -23.206445,2.33932 -36.181673,2.33932 L 0,131.85256 0,73.582235 0,15.31191 l 12.579888,0 12.579888,0 18.788258,2.334554 c 10.333544,1.284005 19.410308,2.441071 20.170587,2.571259 l 1.382325,0.236703 0,26.351238 0,26.351241 4.891304,0 4.891305,0 0,-12.393848 0,-12.393847 14.56758,0.219981 c 8.012169,0.120994 14.854675,0.291203 15.205575,0.378251 0.55056,0.136578 0.65366,-1.166423 0.75229,-9.507905 l 0.11429,-9.666176 -0.96495,-0.204971 C 104.42761,29.475656 97.868621,28.698278 90.382799,27.860882 82.896976,27.023487 76.341565,26.246237 75.815218,26.13366 l -0.956994,-0.204686 0,-12.964487 L 74.858224,0 86.023158,0.01840191 97.188092,0.03680382 111.862,2.69651 126.53592,5.3562164 126.6492,16.714026 c 0.0623,6.246795 0.158,11.359249 0.21266,11.361008 0.0547,0.0017 5.36286,0.670217 11.79599,1.485459 6.43312,0.815243 11.93584,1.4837 12.22826,1.485459 0.41107,0.0025 0.53166,2.415114 0.53166,10.63647 0,5.848299 0.0479,10.638762 0.10633,10.645478 1.93979,0.22267 23.25672,1.675153 24.66919,1.680899 l 2.02032,0.0082 0,-8.719283 0,-8.719282 9.35728,0 9.35728,0 0,-7.86862 0,-7.868621 7.56583,0 c 6.54638,0 8.50929,0.170846 14.56758,1.267921 3.85096,0.697356 7.4324,1.370899 7.95874,1.496761 0.95665,0.228759 0.957,0.232206 0.957,9.62465 l 0,9.395812 -7.86862,-0.155792 -7.86862,-0.155789 0,7.087203 0,7.087199 2.02032,0.240877 c 1.11118,0.132478 4.12571,0.35288 6.69896,0.489777 2.57325,0.136897 5.20499,0.348767 5.8483,0.470829 l 1.16966,0.221925 0,8.685489 c 0,5.506771 0.15566,8.685486 0.42533,8.685486 0.27619,0 0.42533,-5.741967 0.42533,-16.375238 l 0,-16.375237 6.92929,0 c 5.9261,0 14.08616,0.684374 18.27423,1.532637 l 1.17232,0.237445 -0.109,32.184432 -0.109,32.18443 -12.97259,1.35061 c -7.13492,0.74284 -13.21183,1.36488 -13.50425,1.38233 -0.41468,0.0247 -0.53166,3.33231 -0.53166,15.03237 l 0,15.00066 7.44329,-0.16232 7.44329,-0.16233 0,8.9638 0,8.9638 -1.59499,0.42441 c -0.87725,0.23343 -4.46598,1.19649 -7.97496,2.14014 -6.13176,1.64898 -6.6323,1.71584 -12.86625,1.71863 l -6.4863,0.003 0,-7.41359 0,-7.41361 -1.37952,0.39565 c -0.75873,0.2176 -4.58671,0.39563 -8.50661,0.39563 l -7.1271,0 0,-7.88789 0,-7.88789 -1.38233,0.24364 c -0.76028,0.13401 -15.92864,2.5299 -33.70746,5.3242 -17.77883,2.79431 -32.94719,5.1902 -33.70747,5.32421 l -1.38233,0.24364 0,11.22298 0,11.22299 -3.08365,0.67813 c -1.696,0.37298 -8.25141,1.78471 -14.56758,3.13718 l -11.483928,2.45904 -0.212665,12.477 -0.212665,12.477 -17.013233,4.60685 -17.013233,4.60684 -12.015595,0.0112 -12.015596,0.0112 0,-13.98489 z m 93.572775,-107.65973 0,-9.78261 -2.76465,0 -2.76465,0 0,9.78261 0,9.782609 2.76465,0 2.76465,0 0,-9.782609 z m 63.79963,-1.063327 0,-8.293952 -1.276,0 -1.27599,0 0,8.293952 0,8.293951 1.27599,0 1.276,0 0,-8.293951 z"
       style="fill-opacity:1"
       inkscape:connector-curvature="0" />
    <path
       id="path3382"
       d="m 39.130435,193.62544 0,-13.93601 17.863894,-3.56206 17.863895,-3.56205 0,-22.6957 0,-22.6957 -1.382325,0.003 c -0.760279,0.001 -11.7139,1.05407 -24.341385,2.33932 -22.44165,2.28411 -23.254003,2.33677 -36.046785,2.33677 L 0,131.85256 0,73.582235 0,15.31191 l 12.619985,0 12.619984,0 18.5355,2.338502 c 10.19452,1.286175 19.157542,2.443241 19.917821,2.571258 l 1.382325,0.232756 0,26.351238 0,26.351241 5.097445,0 5.09745,0 0.112853,-12.228262 0.112857,-12.228262 11.696597,0 c 6.433129,0 13.227793,0.09297 15.099243,0.2066 l 3.40265,0.206596 0.11429,-9.660107 0.11429,-9.660109 -0.96495,-0.204872 C 104.42761,29.47581 97.96432,28.698851 90.595464,27.861916 83.226608,27.024979 76.671196,26.236124 76.027883,26.108903 l -1.169659,-0.231311 0,-12.938796 0,-12.938796 10.739603,-0.01448994 10.739603,-0.01448993 14.99054,2.67280767 14.99055,2.6728077 0.003,11.3775995 c 10e-4,6.25768 0.14592,11.37904 0.32137,11.380799 0.17545,0.0017 5.58246,0.670217 12.01559,1.485459 6.43313,0.815243 11.93585,1.4837 12.22826,1.485459 0.41107,0.0025 0.53167,2.415114 0.53167,10.63647 0,5.848299 0.0479,10.642446 0.10633,10.653662 0.0585,0.01123 6.08755,0.446899 13.39792,0.968189 l 13.29159,0.947803 0,-8.851692 0,-8.851688 9.25094,0.04714 9.25095,0.04714 0.11572,-7.900883 0.11553,-7.900883 7.55645,0 c 6.53596,0 8.50202,0.171231 14.55819,1.267921 3.85096,0.697356 7.4324,1.370899 7.95874,1.496761 0.95665,0.228759 0.957,0.232206 0.957,9.62465 l 0,9.395812 -7.86862,-0.155792 -7.86862,-0.155789 0,7.087203 0,7.087199 2.02032,0.241149 c 1.11118,0.132631 3.93431,0.350996 6.27363,0.485248 2.33932,0.134255 4.97105,0.347623 5.8483,0.474146 l 1.59499,0.230048 0,8.681896 c 0,5.504377 0.15566,8.681896 0.42533,8.681896 0.27619,0 0.42533,-5.741967 0.42533,-16.375238 l 0,-16.375237 6.71663,0 c 5.71214,0 12.68677,0.576128 18.27422,1.509508 l 1.385,0.231363 -0.10901,32.1919 -0.109,32.191906 -13.18525,1.36546 c -7.25189,0.75101 -13.32881,1.37627 -13.50425,1.38947 -0.17545,0.0132 -0.31902,6.7708 -0.31903,15.0169 l -2e-5,14.99291 7.33698,0 7.33698,0 0.1149,8.80692 0.11491,8.80691 -1.81623,0.47498 c -0.99892,0.26124 -4.59641,1.22665 -7.99442,2.14536 -5.91762,1.59993 -6.45128,1.67037 -12.65359,1.67037 l -6.4754,0 0,-7.3985 0,-7.39849 -1.59499,0.37039 c -0.87724,0.20371 -4.70522,0.37496 -8.50662,0.38054 l -6.91162,0.0101 0,-7.91595 0,-7.91596 -1.38233,0.25356 c -1.64279,0.30135 -68.77345,10.89972 -69.03937,10.89972 -0.10077,0 -0.18322,5.06842 -0.18322,11.26316 l 0,11.26317 -1.16966,0.29425 c -0.64331,0.16184 -7.10302,1.55776 -14.35491,3.10204 l -13.185258,2.80778 -0.112708,12.39976 -0.112708,12.39976 -1.37595,0.43656 c -0.756774,0.24011 -8.511401,2.35939 -17.232503,4.70952 l -15.856559,4.27296 -11.896277,0 -11.896282,0 0,-13.93601 z m 93.572775,-107.70861 0,-9.78261 -2.76465,0 -2.76465,0 0,9.78261 0,9.782609 2.76465,0 2.76465,0 0,-9.782609 z m 63.79963,-1.063327 0,-8.293952 -1.276,0 -1.27599,0 0,8.293952 0,8.293951 1.27599,0 1.276,0 0,-8.293951 z"
       style="fill-opacity:1"
       inkscape:connector-curvature="0" />
    <path
       id="path3380"
       d="m 39.130435,193.62544 0,-13.93601 17.863894,-3.56206 17.863895,-3.56205 0,-22.89773 0,-22.89773 -1.16966,0.20305 c -0.643313,0.11167 -11.628447,1.25528 -24.411407,2.54135 -22.632368,2.27699 -23.58306,2.3383 -36.259452,2.3383 L 0,131.85256 0,73.582235 0,15.31191 l 12.367223,0 12.367222,0 18.788258,2.334554 c 10.333544,1.284005 19.410308,2.441071 20.170587,2.571259 l 1.382325,0.236703 0,26.351238 0,26.351241 5.097445,0 5.09745,0 0.112853,-12.228262 0.112857,-12.228262 13.185255,0.01608 c 7.251891,0.0088 14.094405,0.148738 15.205575,0.310861 l 2.02032,0.294767 0,-9.766369 0,-9.766369 -0.95699,-0.209199 c -0.52635,-0.115059 -6.89036,-0.885203 -14.142251,-1.71143 -7.25189,-0.826228 -13.807301,-1.605703 -14.56758,-1.732167 l -1.382325,-0.229918 0,-12.953317 0,-12.953318 11.164934,0.02822545 11.164934,0.02822545 14.461248,2.6324082 14.46125,2.6324083 0.11318,11.3220186 0.11317,11.322018 1.58815,0.236951 c 0.87348,0.130324 6.51666,0.861018 12.54041,1.623766 l 10.95227,1.386815 0,10.525367 0,10.525366 1.80766,0.233047 c 0.99421,0.128174 6.49692,0.527504 12.22826,0.887398 5.73133,0.359894 10.94695,0.740463 11.59026,0.845711 l 1.16966,0.191356 0,-8.944338 0,-8.944335 9.35772,0.129355 9.35772,0.129355 -4.4e-4,-7.974954 -4.4e-4,-7.974953 7.5032,0 c 6.49865,0 8.449,0.171639 14.56758,1.282002 3.88541,0.705101 7.49503,1.378644 8.02137,1.496762 l 0.957,0.214759 0,9.40495 0,9.404952 -8.08129,-0.193562 -8.08128,-0.193559 0,7.115829 0,7.115832 2.02032,0.238193 c 1.11117,0.131002 3.83861,0.346836 6.06096,0.479629 2.22236,0.132793 4.94979,0.348627 6.06097,0.479629 l 2.02032,0.238193 0,8.67937 c 0,5.502692 0.15567,8.679369 0.42533,8.679369 0.27619,0 0.42533,-5.741967 0.42533,-16.375238 l 0,-16.375237 6.71663,0 c 5.71214,0 12.68677,0.576128 18.27422,1.509508 l 1.385,0.231363 -0.10901,32.188931 -0.109,32.188932 -13.39792,1.37119 c -7.36885,0.75416 -13.44577,1.38075 -13.50425,1.39243 -0.0585,0.0117 -0.10635,6.76805 -0.10636,15.01415 l -2e-5,14.99291 7.33698,0 7.33698,0 0.11496,8.82562 c 0.0632,4.85409 0.03,8.82561 -0.074,8.82561 -0.10392,0 -3.72152,0.957 -8.03913,2.12666 -7.79635,2.11207 -7.89427,2.12665 -14.28093,2.12665 l -6.43075,0 0,-7.3985 0,-7.39849 -1.59499,0.37039 c -0.87724,0.20371 -4.70522,0.37496 -8.50662,0.38054 l -6.91162,0.0101 0,-7.86862 c 0,-4.32774 -0.0824,-7.86862 -0.18322,-7.86862 -0.26592,0 -67.39658,10.59837 -69.03937,10.89971 l -1.38233,0.25357 0,11.22393 c 0,6.17316 -0.0478,11.23184 -0.10633,11.2415 -0.0585,0.01 -6.51819,1.40056 -14.35492,3.09089 l -14.248578,3.07332 -0.112742,12.42367 -0.112738,12.42366 -2.226582,0.62912 c -1.224616,0.34601 -8.989945,2.45591 -17.256283,4.68866 l -15.029707,4.05954 -11.872467,0 -11.872468,0 0,-13.93601 z m 93.572775,-107.70861 0,-9.78261 -2.76465,0 -2.76465,0 0,9.78261 0,9.782609 2.76465,0 2.76465,0 0,-9.782609 z m 63.79963,-1.063327 0,-8.293952 -1.276,0 -1.27599,0 0,8.293952 0,8.293951 1.27599,0 1.276,0 0,-8.293951 z"
       style="fill-opacity:1"
       inkscape:connector-curvature="0" />
    <path
       id="path3378"
       d="m 39.130435,193.62544 0,-13.93601 17.863894,-3.56206 17.863895,-3.56205 0,-22.88163 0,-22.88162 -1.382325,0.1967 c -0.760279,0.10818 -11.810025,1.24454 -24.554986,2.52524 -22.485624,2.25951 -23.554366,2.32855 -36.046789,2.32855 L 0,131.85256 0,73.582235 0,15.31191 l 12.440926,9.36e-4 12.440927,9.36e-4 18.50189,2.332672 c 10.17604,1.282969 19.219637,2.447758 20.096881,2.588419 l 1.594991,0.255747 0,26.333128 0,26.333125 5.097445,0 5.09745,0 0.112853,-12.228262 0.112857,-12.228261 12.547259,0.0081 c 6.900993,0.0045 13.747021,0.145458 15.213401,0.313298 l 2.66614,0.305154 -0.11415,-9.868396 -0.11416,-9.868441 -15.099246,-1.797762 C 82.29088,26.803558 75.352671,25.983454 75.177222,25.969873 75.001773,25.956293 74.858224,20.107515 74.858224,12.972591 l 0,-12.972591 10.952268,0.00834084 10.952269,0.00834085 14.673909,2.67786741 14.67392,2.6778673 0.11319,11.3036616 0.11319,11.303661 1.37547,0.238495 c 0.7565,0.131172 6.39968,0.855446 12.5404,1.609496 l 11.16493,1.371001 0,10.539208 0,10.539207 1.38233,0.212002 c 0.76027,0.1166 6.16729,0.514097 12.01559,0.883331 5.8483,0.36923 11.25532,0.769674 12.0156,0.889873 l 1.38232,0.218543 0,-8.974242 0,-8.974245 9.35772,0.129355 9.35772,0.129355 -4.4e-4,-7.974954 -4.4e-4,-7.974953 7.5032,0 c 6.49865,0 8.449,0.171639 14.56758,1.282002 3.88541,0.705101 7.49503,1.378644 8.02137,1.496762 0.95607,0.214552 0.957,0.223556 0.957,9.351269 l 0,9.136509 -8.08129,0 -8.08128,0 0,7.193238 0,7.193238 1.59499,0.230282 c 0.87724,0.126651 3.70038,0.343553 6.27363,0.482002 2.57325,0.13845 5.49208,0.360477 6.48629,0.493397 l 1.80766,0.241673 0,8.670986 c 0,5.497107 0.15568,8.67099 0.42533,8.67099 0.27619,0 0.42533,-5.741967 0.42533,-16.375238 l 0,-16.375237 6.748,0 c 4.3705,0 8.96129,0.299714 13.02988,0.850662 3.45503,0.467864 6.35179,0.850661 6.43725,0.850661 0.0855,0 0.15538,14.446971 0.15538,32.104376 l 0,32.104377 -0.95699,0.1995 c -0.52635,0.10974 -6.02907,0.69145 -12.22827,1.29271 -6.19919,0.60126 -11.89331,1.1937 -12.65359,1.31653 l -1.38232,0.22333 0,14.98886 0,14.98886 7.33695,-0.0152 7.33696,-0.0152 0.11477,8.76328 0.11477,8.76329 -8.19605,2.2053 -8.19606,2.2053 -6.1673,-0.12264 -6.16729,-0.12265 -0.11618,-7.28995 -0.11617,-7.28994 -1.58515,0.36817 c -0.87183,0.20249 -4.69538,0.37274 -8.49678,0.37832 l -6.91162,0.0101 0,-7.86862 c 0,-4.32774 -0.11397,-7.86862 -0.25327,-7.86862 -0.33189,0 -64.23513,10.08772 -67.69333,10.68602 l -2.65832,0.45991 0,11.1821 c 0,8.56406 -0.12447,11.22515 -0.53166,11.36597 -0.29242,0.10113 -6.79944,1.50925 -14.46005,3.12916 l -13.928397,2.94528 -0.0013,12.41226 c -0.0013,11.4484 -0.059,12.43034 -0.745524,12.64496 -0.409381,0.12798 -8.208885,2.24593 -17.332231,4.70656 l -16.587902,4.47386 -11.80293,8.5e-4 -11.802845,6.4e-4 0,-13.93601 z m 93.572775,-107.70861 0,-9.78261 -1.80765,-0.0058 c -0.99421,-0.0034 -2.2383,-0.121219 -2.76465,-0.262276 l -0.957,-0.256461 0,10.044881 0,10.044881 2.76465,0 2.76465,0 0,-9.78261 z m 63.79963,-1.063327 0,-8.293952 -1.276,0 -1.27599,0 0,8.293952 0,8.293951 1.27599,0 1.276,0 0,-8.293951 z"
       style="fill-opacity:1"
       inkscape:connector-curvature="0" />
    <path
       id="path3376"
       d="m 39.130435,193.62042 0,-13.94104 16.9069,-3.32963 c 9.298795,-1.8313 17.337548,-3.42595 17.863894,-3.54364 l 0.956995,-0.21401 0,-22.94103 0,-22.94103 -1.382325,0.23441 c -0.760279,0.12892 -11.855259,1.28599 -24.655509,2.57126 -22.545115,2.26374 -23.672794,2.33685 -36.046789,2.33685 L 0,131.85256 0,73.582235 0,15.31191 l 12.277924,0 12.277923,0 20.15355,2.550659 c 11.084453,1.402862 20.201402,2.551256 20.259885,2.551985 0.05848,7.3e-4 0.106333,11.868057 0.106333,26.371838 l 0,26.370513 4.431186,0 c 2.437154,0 4.731018,0.115056 5.097479,0.255679 0.593962,0.227926 0.678534,-1.099442 0.779112,-12.228262 l 0.112828,-12.483941 11.696597,0 c 6.433129,0 13.279153,0.137829 15.213383,0.306285 l 3.51679,0.306289 -0.11414,-9.876231 -0.11414,-9.876231 L 90.595464,27.77657 C 82.29088,26.795411 75.352671,25.981966 75.177222,25.968913 75.001773,25.955861 74.858224,20.107515 74.858224,12.972591 l 0,-12.972591 10.952268,0.02127943 10.952269,0.02127944 14.673909,2.65711763 14.67392,2.6571175 0.11319,11.311472 0.11319,11.311473 1.37547,0.238495 c 0.7565,0.131172 6.39968,0.855446 12.5404,1.609496 l 11.16493,1.371001 0,10.539208 0,10.539207 1.38233,0.217339 c 0.76027,0.119535 6.07159,0.515267 11.80293,0.879406 5.73133,0.364143 11.13835,0.75577 12.01559,0.870291 l 1.59499,0.20822 0,-8.966714 0,-8.966714 9.3577,0.136072 9.3577,0.136072 -4.3e-4,-7.974954 -4.1e-4,-7.974953 7.37406,0 c 7.28034,0 10.17712,0.350317 21.4421,2.593061 l 2.23299,0.444565 0,9.114458 0,9.114458 -8.08129,0 -8.08128,0 0,7.193238 0,7.193238 1.59499,0.230048 c 0.87724,0.126523 3.50898,0.341647 5.8483,0.478051 2.33932,0.136399 5.25815,0.358856 6.48629,0.494341 l 2.23299,0.246343 0,8.670271 c 0,5.496631 0.15569,8.670276 0.42533,8.670276 0.27619,0 0.42533,-5.741967 0.42533,-16.375238 l 0,-16.375237 6.48629,4.25e-4 c 3.99747,2.94e-4 9.01593,0.326514 13.07893,0.850181 3.62594,0.467337 6.64047,0.849922 6.69896,0.850181 0.0585,2.64e-4 0.10633,14.447451 0.10633,32.104857 l 0,32.104372 -0.95699,0.20124 c -0.52635,0.11069 -6.12477,0.69464 -12.44093,1.29767 -6.31616,0.60303 -12.01028,1.20122 -12.65359,1.32931 l -1.16966,0.23289 0,15.06546 0,15.06544 7.44329,0 7.44329,0 0,8.65973 0,8.65972 -7.54963,2.07868 -7.54962,2.07869 -6.80529,0.001 -6.80529,0.001 -0.11618,-7.28995 -0.11617,-7.28994 -1.58515,0.36817 c -0.87183,0.2025 -4.69538,0.37274 -8.49678,0.37832 l -6.91162,0.01 0,-7.86862 c 0,-4.32774 -0.15112,-7.86862 -0.33583,-7.86862 -0.44818,0 -67.60232,10.58026 -69.09943,10.88675 l -1.16966,0.23944 0,11.19197 c 0,8.57105 -0.1245,11.23542 -0.53166,11.37753 -0.29242,0.10206 -6.79998,1.50565 -14.46125,3.11908 l -13.929583,2.93351 0,12.42083 0,12.42082 -2.232987,0.63441 c -1.228143,0.34892 -9.037927,2.46789 -17.355075,4.70882 l -15.122093,4.07441 -11.780081,0 -11.780086,0 0,-13.94103 z M 133.0302,85.810497 c 0.10648,-9.012994 0.0627,-9.676532 -0.638,-9.679973 -0.41377,-0.0021 -1.75716,-0.124392 -2.9853,-0.271909 l -2.23299,-0.268214 0,10.073952 0,10.073953 2.87099,-0.125766 2.87098,-0.125766 0.11432,-9.676277 z m 63.47264,-0.956994 0,-8.293952 -1.276,0 -1.27599,0 0,8.293952 0,8.293951 1.27599,0 1.276,0 0,-8.293951 z"
       style="fill:#666666;fill-opacity:1"
       inkscape:connector-curvature="0" />
    <path
       id="path3374"
       d="m 39.230956,193.65212 0.112145,-13.90933 17.438563,-3.50858 c 9.59121,-1.92972 17.582113,-3.51788 17.757562,-3.52923 0.175449,-0.0114 0.318998,-10.35846 0.318998,-22.99355 l 0,-22.97289 -1.594991,0.22796 c -0.877245,0.12537 -12.02269,1.27603 -24.767651,2.55701 -22.393474,2.25073 -23.598411,2.32905 -35.834123,2.32905 L 0,131.85256 0,73.582235 0,15.31191 l 12.154557,0 12.154557,0 18.788258,2.33844 c 10.333544,1.286142 19.506008,2.451359 20.383252,2.589371 l 1.594991,0.250931 0,26.279603 0,26.279606 4.997637,0.205699 c 2.7487,0.113134 5.141186,0.125919 5.316635,0.02841 0.175449,-0.0975 0.318998,-5.7432 0.318998,-12.545996 l 0,-12.368715 13.504254,0.274572 c 7.427339,0.151014 14.225581,0.39042 15.107201,0.532017 l 1.60294,0.257444 -0.11429,-9.936396 -0.11428,-9.936405 -14.886581,-1.773992 C 82.620511,26.810804 75.682302,25.997359 75.389887,25.978844 74.976912,25.952696 74.858224,23.049155 74.858224,12.972591 l 0,-12.972591 10.952268,0.02135312 10.952269,0.02135313 14.673909,2.67521455 14.67392,2.6752147 0.11318,11.2875535 0.11318,11.287554 1.16281,0.223712 c 0.63955,0.123042 6.28273,0.861195 12.54041,1.640341 l 11.3776,1.416629 0,10.525281 0,10.525282 0.957,0.19706 c 0.52634,0.108387 5.83766,0.501355 11.80293,0.873264 5.96526,0.371909 11.56368,0.782196 12.44092,0.911752 l 1.59499,0.235557 0,-8.999074 0,-8.999073 9.3577,0.136072 9.3577,0.136072 -4.3e-4,-7.974954 -4.1e-4,-7.974953 7.37406,0 c 7.28034,0 10.17712,0.350317 21.4421,2.593061 l 2.23299,0.444565 0,9.114458 0,9.114458 -8.08129,0 -8.08128,0 0,7.211353 0,7.211348 1.38232,0.213401 c 0.76028,0.117366 3.20062,0.321478 5.42297,0.453577 2.22235,0.1321 5.23689,0.354139 6.69896,0.493422 l 2.65832,0.253238 0,8.669736 c 0,5.496265 0.15569,8.669731 0.42533,8.669731 0.27619,0 0.42533,-5.741967 0.42533,-16.375238 l 0,-16.375237 6.48629,4.25e-4 c 3.99747,2.94e-4 9.01593,0.326514 13.07893,0.850181 3.62594,0.467337 6.64047,0.849922 6.69896,0.850181 0.0585,2.64e-4 0.10633,14.435891 0.10633,32.079163 l 0,32.078686 -1.16966,0.22632 c -0.64331,0.12448 -6.33743,0.72382 -12.65359,1.33187 -6.31616,0.60805 -11.91458,1.19496 -12.44093,1.30424 l -0.95699,0.19868 0,15.09114 0,15.09114 7.44329,0 7.44329,0 0,8.64659 0,8.64659 -7.37388,1.98668 -7.37388,1.98674 -7.08737,0 -7.08737,0 0,-7.27613 c 0,-6.77415 -0.0513,-7.25294 -0.74433,-6.93997 -0.40938,0.18488 -4.23736,0.41501 -8.50661,0.5114 l -7.76229,0.17525 0,-7.90919 c 0,-4.78601 -0.16172,-7.90919 -0.40955,-7.90919 -0.51041,0 -67.41966,10.54947 -69.02571,10.88317 l -1.16966,0.24302 0,11.20276 0,11.20275 -2.65832,0.59957 c -1.46207,0.32977 -7.96963,1.72999 -14.46124,3.11161 l -11.802933,2.51204 0,12.41902 c 0,11.46007 -0.05747,12.43606 -0.744329,12.63958 -0.409381,0.1213 -8.23557,2.23959 -17.39153,4.7073 l -16.647206,4.48675 -11.749441,0 -11.74944,0 0.112145,-13.90933 z m 40.578084,7.96666 c 8.688212,-2.3459 15.913519,-4.26527 16.056239,-4.26527 0.142715,0 0.259486,-5.35917 0.259486,-11.90926 0,-9.87192 -0.100936,-11.90927 -0.590007,-11.90927 -0.324501,0 -7.35841,1.4373 -15.630907,3.19401 -8.272497,1.7567 -15.567248,3.3031 -16.210561,3.43644 l -1.16966,0.24244 0,12.96745 c 0,12.15379 0.04671,12.95307 0.744329,12.7381 0.409381,-0.12615 7.852866,-2.14874 16.541081,-4.49464 z m 31.5213,-32.56557 13.71692,-2.91513 0,-11.30829 0,-11.30829 35.83412,-5.63317 c 19.70877,-3.09823 36.59972,-5.63202 37.53545,-5.63062 0.93572,0.001 3.99811,-0.37624 6.80529,-0.8392 2.80718,-0.46296 5.34322,-0.84178 5.63563,-0.84184 0.40757,-8e-5 0.53167,1.98041 0.53167,8.48498 l 0,8.48508 2.44565,-0.16919 c 1.34511,-0.0931 4.98169,-0.69923 8.08128,-1.34705 4.68207,-0.97856 5.63564,-1.30612 5.63564,-1.93592 0,-0.41694 -0.1914,-0.75808 -0.42533,-0.75808 -0.27626,0 -0.42533,-5.79459 -0.42533,-16.5331 l 0,-16.53311 2.02032,-0.24846 c 1.11117,-0.13665 7.23717,-0.77264 13.61332,-1.4133 l 11.59301,-1.16485 -0.10908,-31.069597 -0.10907,-31.069597 -4.04064,-0.495791 c -2.22235,-0.272688 -4.94979,-0.615743 -6.06096,-0.76235 l -2.02033,-0.26656 0,16.177225 0,16.17722 -4.82891,0 c -2.6559,0 -6.00538,0.122968 -7.44329,0.273258 l -2.61437,0.273254 0,-8.771768 c 0,-10.188621 0.77331,-9.008635 -6.1673,-9.410602 -2.33932,-0.135485 -5.54525,-0.362646 -7.12429,-0.504808 l -2.87099,-0.258474 0.0135,-8.345327 c 0.0103,-6.356871 0.15118,-8.526817 0.59125,-9.10702 0.55449,-0.73106 0.84901,-0.726816 7.32343,0.105516 3.71014,0.476964 7.08066,0.867576 7.49004,0.868025 0.68321,7.66e-4 0.74433,-0.673472 0.74433,-8.211162 l 0,-8.211979 -6.69897,-1.181634 c -3.68442,-0.649898 -7.1296,-1.281731 -7.65595,-1.404073 l -0.95699,-0.222441 0,8.784665 0,8.784664 -1.38233,-0.227964 c -3.74656,-0.617859 -8.9343,-1.162818 -12.51009,-1.314153 l -3.97148,-0.168081 0,9.184717 0,9.184714 -2.57933,-0.291816 c -1.41863,-0.160502 -5.91502,-0.377706 -9.99198,-0.482678 -4.07695,-0.104971 -12.59809,-0.572572 -18.93586,-1.039113 -6.33776,-0.466541 -11.60271,-0.848254 -11.69989,-0.848254 -0.0972,0 -0.17668,-4.784972 -0.17668,-10.633271 0,-5.848299 -0.0479,-10.634711 -0.10633,-10.63647 -0.0585,-0.0018 -5.36981,-0.670216 -11.80293,-1.485459 -6.43313,-0.815243 -11.93585,-1.4837 -12.22827,-1.485459 -0.41179,-0.0025 -0.53166,2.493299 -0.53166,11.070052 l 0,11.073254 -2.02032,-0.213257 c -4.64236,-0.490028 -9.25792,-0.743921 -16.48157,-0.906614 -4.21077,-0.09484 -8.182301,-0.28626 -8.825614,-0.425386 l -1.16966,-0.252957 0,12.322898 0,12.322898 -16.584699,-0.0034 -16.584699,-0.0034 L 63.696493,47.919984 63.586957,21.505123 44.766068,19.120111 25.94518,16.7351 l 0,56.960648 0,56.960642 2.020321,-0.26472 c 6.57925,-0.86206 47.922283,-4.85871 48.238563,-4.66324 0.3338,0.2063 16.044567,-1.22032 19.176372,-1.74131 l 1.169659,-0.19458 0,24.27873 c 0,19.24121 0.110314,24.23914 0.531664,24.0879 0.292415,-0.10495 6.704281,-1.50263 14.248581,-3.10596 z m 14.88658,-71.890965 c -0.17545,-0.180727 -0.31929,-5.32091 -0.31965,-11.422638 l -8.5e-4,-11.094045 6.69961,0.276606 c 3.68479,0.152136 9.33135,0.295686 12.54792,0.318998 l 5.84849,0.04239 0,10.570339 0,10.570335 -8.82561,0.284282 c -4.85409,0.156352 -10.35681,0.396336 -12.22827,0.533301 -1.87145,0.136961 -3.54619,0.101152 -3.72164,-0.07957 z m 6.81314,-11.297012 0.11418,-9.621541 -1.33701,-0.267401 c -0.73535,-0.147071 -2.07867,-0.267401 -2.98516,-0.267401 l -1.64816,0 0,10.014708 0,10.014708 2.87099,-0.125766 2.87098,-0.125766 0.11418,-9.621541 z m 59.6448,-1.034473 0,-9.674584 3.89332,0.276359 c 2.14132,0.151996 6.2564,0.276355 9.14461,0.276355 l 5.2513,0 0,8.906844 c 0,4.898765 -0.14355,8.990482 -0.319,9.092706 -0.17545,0.102224 -4.29053,0.323345 -9.14462,0.49138 l -8.82561,0.30552 0,-9.67458 z m 3.82798,0.02276 0,-8.293951 -1.276,0 -1.27599,0 0,8.293951 0,8.293952 1.27599,0 1.276,0 0,-8.293952 z m 38.81143,74.82134 6.27363,-1.65997 0,-7.76452 c 0,-5.93486 -0.12528,-7.76152 -0.53166,-7.75178 -0.29241,0.007 -3.40265,0.63051 -6.91163,1.38557 l -6.37996,1.37284 -0.1157,8.23642 c -0.10824,7.70542 -0.0671,8.22369 0.638,8.03892 0.41453,-0.10862 3.57683,-0.94449 7.02732,-1.85748 z M 125.04726,17.65123 c 0,-6.199197 -0.096,-11.2712674 -0.21326,-11.2712674 -0.31091,0 -26.195067,-4.6426039 -27.32691,-4.9013785 l -0.956995,-0.2187984 0,12.0455083 0,12.045508 13.929585,1.735049 c 7.66127,0.954278 14.07313,1.757909 14.24858,1.785848 0.17545,0.02794 0.319,-5.021272 0.319,-11.220469 z"
       style="fill-opacity:1"
       inkscape:connector-curvature="0" />
    <path
       id="path3372"
       d="m 39.230956,193.65212 0.112145,-13.90933 17.438563,-3.50858 c 9.59121,-1.92972 17.582113,-3.51788 17.757562,-3.52923 0.175449,-0.0114 0.318998,-10.37302 0.318998,-23.02591 l 0,-23.00525 -1.594991,0.24856 c -0.877245,0.1367 -12.050073,1.30192 -24.828512,2.58937 -22.451523,2.26202 -23.657633,2.34081 -35.834121,2.34081 L 0,131.85256 0,73.863264 0,15.873966 12.228261,15.593083 24.456522,15.3122 44.44707,17.861328 c 10.994802,1.402019 20.134098,2.550348 20.309547,2.55184 0.175449,0.0015 0.318998,11.840273 0.318998,26.308404 l 0,26.305687 4.925705,0.281327 c 2.70914,0.154731 5.101626,0.172608 5.316635,0.03973 0.223188,-0.137939 0.39093,-5.549827 0.39093,-12.612527 l 0,-12.370918 13.504254,0.281085 c 7.427339,0.154599 14.222001,0.394579 15.099241,0.533288 l 1.59499,0.252204 0,-9.842491 c 0,-7.494778 -0.12681,-9.885276 -0.53166,-10.021858 -0.29242,-0.09865 -6.560728,-0.868828 -13.929584,-1.711503 C 84.077269,27.01292 77.330459,26.213885 76.453214,26.079962 l -1.59499,-0.243498 0,-12.91823 0,-12.91823 10.624066,0 10.624066,0 14.364124,2.5731912 c 7.90026,1.4152551 14.69906,2.6722456 15.10844,2.7933126 0.68446,0.2024158 0.74433,1.1206975 0.74433,11.4166172 l 0,11.196496 0.957,0.219482 c 0.52634,0.120715 6.16941,0.852797 12.54014,1.62685 l 11.58316,1.407368 0.11344,10.643974 0.11345,10.643973 10.4206,0.709626 c 5.73133,0.390293 11.71255,0.823871 13.29159,0.963511 l 2.87098,0.253884 0,-8.97087 0,-8.97087 9.3576,0.142286 9.35761,0.142287 -3.3e-4,-7.974954 -3.2e-4,-7.974953 7.33695,0.0057 c 6.5419,0.005 8.20956,0.166359 15.38948,1.488658 4.42889,0.81565 8.11332,1.483001 8.18762,1.483001 0.0743,0 0.1351,4.115076 0.1351,9.144613 l 0,9.144613 -8.08129,0 -8.08128,0 0,7.201961 c 0,6.496725 0.0729,7.222203 0.74433,7.408647 0.40938,0.113674 2.94541,0.323766 5.63563,0.466873 2.69022,0.143102 5.89615,0.372147 7.12429,0.508985 l 2.23299,0.248793 0,8.670271 c 0,7.423359 0.0918,8.670276 0.63799,8.670276 0.55606,0 0.638,-2.103023 0.638,-16.375238 l 0,-16.375237 6.27363,4.25e-4 c 3.78483,2.85e-4 8.88898,0.33756 12.86626,0.850181 3.62594,0.467337 6.73617,0.849922 6.91162,0.850181 0.17545,2.64e-4 0.319,14.442424 0.319,32.093688 l 0,32.093204 -1.38233,0.22353 c -0.76027,0.12293 -6.45439,0.71341 -12.65359,1.31217 -6.19919,0.59876 -11.70191,1.1804 -12.22826,1.29252 l -0.95699,0.20385 0,15.09114 0,15.09114 7.44329,0 7.44329,0 0,8.51574 c 0,8.42785 -0.01,8.5199 -0.957,8.91983 -0.52634,0.22226 -3.85627,1.17515 -7.39984,2.11754 -6.29271,1.67357 -6.60739,1.71349 -13.50425,1.71349 l -7.06141,0 4.3e-4,-7.12429 4.2e-4,-7.12429 -8.5071,0.13112 -8.50698,0.13112 0,-7.68074 c 0,-5.44833 -0.14039,-7.68075 -0.483,-7.68075 -0.57829,0 -67.27037,10.52164 -68.95226,10.87822 l -1.16966,0.24797 0,11.19133 0,11.19132 -2.87098,0.6408 c -1.57904,0.35244 -8.0866,1.75031 -14.46125,3.10637 l -11.590263,2.46559 0,12.44795 0,12.44795 -1.807656,0.47465 c -0.994211,0.26105 -8.828205,2.37381 -17.40888,4.69503 l -15.601223,4.22039 -11.732092,0 -11.732095,0 0.112145,-13.90933 z m 40.105436,8.18317 c 9.060265,-2.44759 16.54715,-4.52411 16.637525,-4.61448 0.09037,-0.0904 0.113435,-5.51959 0.05125,-12.06493 l -0.113066,-11.9006 -16.587902,3.53202 c -9.123346,1.94262 -16.635751,3.53674 -16.694234,3.5425 -0.180506,0.0178 -0.117107,25.95566 0.06344,25.95566 0.09338,0 7.582721,-2.00258 16.642987,-4.45017 z m 31.781288,-32.63533 14.35491,-3.0648 0,-11.30622 0,-11.30622 35.83412,-5.59844 c 19.70877,-3.07914 36.50855,-5.60177 37.33286,-5.60584 0.8243,-0.004 3.93137,-0.39766 6.90459,-0.87464 2.97322,-0.47698 5.50472,-0.86723 5.62556,-0.86723 0.12083,0 0.2197,3.90825 0.2197,8.68499 l 0,8.685 1.52732,-0.42171 c 0.84003,-0.23195 1.76986,-0.32865 2.0663,-0.21489 0.29644,0.11375 3.09199,-0.35094 6.21232,-1.03266 3.12034,-0.68172 5.82709,-1.23948 6.01499,-1.23948 0.1879,0 0.34164,3.73227 0.34164,8.29395 0,4.56167 0.14355,8.29681 0.319,8.3003 0.17544,0.003 3.33353,-0.79257 7.01795,-1.76903 l 6.69896,-1.77538 0,-7.80092 c 0,-6.56788 -0.0985,-7.80091 -0.62313,-7.80091 -0.34272,0 -3.31609,0.5742 -6.60749,1.27599 -3.2914,0.7018 -6.16907,1.276 -6.39483,1.276 -0.22575,0 -0.41046,-0.3715 -0.41046,-0.82556 0,-0.45406 -0.1914,-0.94385 -0.42533,-1.08843 -0.52133,-0.3222 -0.59392,-32.38342 -0.074,-32.70471 0.31627,-0.19547 24.73414,-2.81042 26.24309,-2.81042 0.54647,0 0.6268,-3.99632 0.6268,-31.185242 l 0,-31.185244 -4.35964,-0.51742 c -2.39781,-0.28458 -5.17309,-0.631335 -6.1673,-0.770571 l -1.80766,-0.253153 0,16.218575 0,16.218575 -4.82891,0 c -2.6559,0 -6.00142,0.122551 -7.43448,0.272335 l -2.60556,0.272336 -0.11514,-8.885285 -0.11515,-8.885285 -6.59263,-0.491763 c -3.62594,-0.270472 -7.12972,-0.509721 -7.78616,-0.531663 l -1.19353,-0.0399 0.1302,-8.897436 c 0.0716,-4.893589 0.22766,-8.994462 0.34676,-9.113052 0.1191,-0.118591 2.99009,0.146044 6.37996,0.588078 3.38988,0.442033 6.78546,0.810629 7.54574,0.819102 l 1.38233,0.01541 0,-8.293951 c 0,-4.561673 -0.15085,-8.293951 -0.33522,-8.293951 -0.18436,0 -3.4787,-0.574197 -7.32074,-1.275993 -3.84204,-0.701796 -7.13638,-1.275992 -7.32074,-1.275992 -0.18437,0 -0.33521,3.827977 -0.33521,8.506616 l 0,8.506617 -1.19671,0 c -0.65818,0 -3.28992,-0.263729 -5.8483,-0.586066 -2.55837,-0.322336 -6.03923,-0.599651 -7.73524,-0.616256 l -3.08365,-0.03019 0,9.177234 0,9.177236 -1.80765,-0.292108 c -0.99422,-0.160661 -5.25284,-0.380212 -9.46362,-0.487889 -4.21077,-0.107681 -13.01123,-0.57489 -19.55658,-1.038245 -6.54535,-0.463357 -12.04807,-0.842467 -12.22826,-0.842467 -0.1802,0 -0.32763,-4.7763 -0.32763,-10.613999 l 0,-10.613997 -1.38233,-0.235016 c -2.09148,-0.355584 -21.79365,-2.780846 -22.59083,-2.780846 -0.62662,0 -0.69603,1.101737 -0.69603,11.047969 l 0,11.047968 -1.16966,-0.19054 c -1.87731,-0.305812 -15.24522,-0.992118 -19.88421,-1.020849 -2.33932,-0.0145 -4.971058,-0.14269 -5.848303,-0.284891 l -1.594991,-0.25855 0,12.268894 0,12.268889 -16.372034,0.05214 -16.372037,0.05214 L 64.121823,47.915999 64.012288,21.501002 46.573724,19.293471 C 36.982515,18.079329 28.417415,16.992094 27.54017,16.877394 l -1.59499,-0.208545 0,56.953861 c 0,31.32462 0.104788,56.95386 0.232861,56.95386 0.128074,0 10.607162,-1.06589 23.286861,-2.36864 12.679703,-1.30275 24.202395,-2.37101 25.605987,-2.37391 1.403592,-0.003 6.278427,-0.3725 10.832963,-0.82134 4.554541,-0.44884 8.717466,-0.81607 9.250946,-0.81607 l 0.969967,0 0,24.03119 c 0,13.21715 0.143549,24.03249 0.318998,24.03407 0.175449,0.002 6.778707,-1.37627 14.673917,-3.06191 z m 15.09924,-72.045502 c -0.17545,-0.17644 -0.319,-5.295046 -0.319,-11.374678 l 0,-11.053873 6.06097,0.277269 c 3.33353,0.152498 8.97979,0.277971 12.54725,0.278826 l 6.4863,0.0016 0,10.394545 0,10.394542 -1.80766,0.225131 c -0.99421,0.123819 -5.34853,0.332533 -9.67627,0.463807 -4.32774,0.131274 -9.01702,0.345556 -10.42061,0.476179 -1.40359,0.130623 -2.69553,0.09314 -2.87098,-0.0833 z m 6.81313,-11.343961 -0.11417,-9.888942 -2.97732,0 -2.97731,0 -0.11417,9.888942 -0.11417,9.888942 3.20565,0 3.20566,0 -0.11417,-9.888942 z m 59.7429,-0.808958 0.11458,-9.505315 5.10397,0.105138 c 2.80718,0.05783 6.8744,0.219241 9.03828,0.358694 l 3.93431,0.253552 0,8.648984 0,8.648983 -2.23299,0.231202 c -1.22814,0.127157 -5.34693,0.351098 -9.15286,0.497637 l -6.91988,0.26644 0.11459,-9.505315 z m 3.72989,-0.148036 0,-8.293952 -1.276,0 -1.27599,0 0,8.293952 0,8.293951 1.27599,0 1.276,0 0,-8.293951 z M 125.47259,17.65123 c 0,-6.199197 -0.10142,-11.2712674 -0.22539,-11.2712674 -0.12396,0 -6.59447,-1.1483933 -14.37892,-2.551985 -7.78444,-1.4035918 -14.289254,-2.5519851 -14.455141,-2.5519851 -0.165892,0 -0.250792,5.4070183 -0.188664,12.0155965 l 0.112955,12.015596 13.61059,1.759618 c 7.48582,0.96779 14.04123,1.781235 14.56758,1.807656 l 0.95699,0.04804 0,-11.271267 z"
       style="fill-opacity:1"
       inkscape:connector-curvature="0" />
    <path
       id="path3370"
       d="m 39.230956,193.65212 0.112145,-13.90933 17.438563,-3.50858 c 9.59121,-1.92972 17.582113,-3.51788 17.757562,-3.52923 0.175449,-0.0114 0.318998,-10.36792 0.318998,-23.01458 l 0,-22.99393 -1.807656,0.24688 c -0.994211,0.13579 -12.203894,1.29591 -24.91041,2.57805 -22.284252,2.24857 -23.546272,2.33116 -35.621454,2.33116 l -12.518704,0 0,-58.057659 0,-58.05766 13.643215,0 13.643215,0 18.649298,2.33932 c 10.257112,1.286625 18.759679,2.339319 18.894594,2.339319 0.134911,0 0.245293,11.843782 0.245293,26.319515 l 0,26.319515 4.866533,0.304073 c 2.676594,0.167241 5.06908,0.178895 5.316635,0.0259 0.299565,-0.185146 0.450102,-4.336482 0.450102,-12.412221 l 0,-12.134039 15.099432,0.143541 15.099433,0.143545 -1.9e-4,-9.798738 -1.9e-4,-9.798738 -13.929581,-1.608609 C 84.316518,27.034891 77.330459,26.204242 76.453214,26.073738 l -1.59499,-0.237278 0,-12.91823 0,-12.91823 10.599818,0 10.599814,0 14.175704,2.5523449 c 7.79664,1.4037896 14.60635,2.651529 15.1327,2.7727538 l 0.95699,0.220409 0,11.2631643 c 0,6.19474 0.14355,11.276717 0.319,11.293282 0.17545,0.01657 5.77387,0.738075 12.44093,1.603356 l 12.12193,1.573238 0.21266,10.624905 0.21267,10.624906 9.99527,0.697695 c 5.4974,0.383734 11.47862,0.808389 13.29159,0.943682 l 3.29631,0.245986 0,-8.954588 0,-8.954589 9.3576,0.142286 9.35761,0.142287 -3.3e-4,-7.974954 -3.2e-4,-7.974953 7.17259,0 c 6.83305,0 12.47796,0.697068 22.7069,2.803984 l 1.16966,0.240922 0,9.110818 0,9.110818 -8.08129,0 -8.08128,0 0,7.222522 c 0,8.407817 -0.76176,7.468095 6.37996,7.870488 2.45628,0.138398 5.56652,0.364691 6.91162,0.502868 l 2.44566,0.251239 0,8.664346 c 0,8.380787 0.0279,8.664343 0.85066,8.664343 0.83593,0 0.85066,-0.283556 0.85066,-16.375238 l 0,-16.375237 6.06096,4.25e-4 c 3.5722,2.81e-4 8.76805,0.349384 12.6536,0.850181 3.62594,0.467337 6.73617,0.849922 6.91162,0.850181 0.41715,4.26e-4 0.41715,64.216609 0,64.254129 -0.17545,0.0158 -6.25236,0.64287 -13.50425,1.39354 l -13.18526,1.36485 -0.11205,15.3007 -0.11205,15.30069 7.44901,-0.1253 7.44901,-0.1253 0,8.50048 c 0,4.67527 -0.16851,8.60462 -0.37446,8.73191 -0.20595,0.12728 -3.55739,1.09557 -7.44765,2.15176 -7.04724,1.91334 -7.09891,1.92038 -14.08679,1.92038 l -7.0136,0 4.3e-4,-7.12429 4.2e-4,-7.12429 -8.5071,0.13112 -8.50698,0.13112 0,-7.68074 c 0,-5.70482 -0.13175,-7.68075 -0.51213,-7.68075 -0.60553,0 -67.73817,10.54473 -69.13579,10.85937 l -0.957,0.21544 0,11.21702 0,11.21701 -2.87098,0.6418 c -1.57904,0.35298 -8.0866,1.74647 -14.46125,3.09663 l -11.590263,2.45483 0,12.47409 c 0,6.86076 -0.07953,12.4741 -0.176742,12.4741 -0.09721,0 -7.96073,2.10539 -17.474487,4.67864 l -17.297741,4.67864 -11.666488,0 -11.666488,0 0.112145,-13.90933 z m 39.590645,8.36473 c 8.697981,-2.34773 16.149454,-4.37032 16.558835,-4.49464 0.686186,-0.20837 0.744329,-1.17292 0.744329,-12.34796 0,-11.3441 -0.04776,-12.10795 -0.744329,-11.90412 -0.409381,0.11979 -7.634689,1.67104 -16.056239,3.44723 -8.42155,1.77619 -15.646857,3.33087 -16.056238,3.45484 -0.687641,0.20824 -0.744329,1.2112 -0.744329,13.16933 0,7.11916 0.108783,12.94393 0.241733,12.94393 0.132954,0 7.358261,-1.92088 16.056238,-4.26861 z m 32.296079,-32.79861 14.35491,-3.05911 0,-11.212 c 0,-8.58801 0.12443,-11.25502 0.53166,-11.39582 1.30799,-0.45222 71.16221,-11.27299 71.62561,-11.09517 0.4582,0.17583 9.84386,-1.09531 12.37723,-1.67631 l 0.957,-0.21947 0,8.75605 c 0,8.56034 0.019,8.75002 0.85003,8.48626 0.46752,-0.14839 1.95086,-0.34944 3.29632,-0.44679 1.34545,-0.0974 4.54665,-0.64355 7.11379,-1.21379 2.56713,-0.57024 4.81607,-0.94498 4.99764,-0.83276 0.18156,0.11221 0.33012,3.82931 0.33012,8.26021 0,5.45759 0.14735,8.05618 0.45683,8.05618 0.25126,0 3.40934,-0.79369 7.01796,-1.76376 l 6.56112,-1.76376 0,-7.80618 c 0,-7.45981 -0.0368,-7.80619 -0.8306,-7.80619 -0.45684,0 -3.53609,0.58923 -6.84279,1.30939 -3.3067,0.72016 -6.13885,1.18291 -6.29368,1.02833 -0.15483,-0.15458 -0.33752,-8.01697 -0.40597,-17.47196 -0.10527,-14.54096 -0.0323,-17.1909 0.47323,-17.1909 0.32872,0 6.1267,-0.57367 12.88438,-1.27482 6.75768,-0.70114 12.52595,-1.27534 12.81836,-1.27599 0.42049,-8.5e-4 0.53167,-6.5237 0.53167,-31.192866 l 0,-31.191688 -5.8483,-0.714203 c -3.21657,-0.39281 -5.99185,-0.711463 -6.1673,-0.708124 -0.17545,0.0033 -0.319,7.279235 -0.319,16.168649 l 0,16.162572 -4.82891,0 c -2.6559,0 -6.00538,0.122968 -7.44329,0.273258 l -2.61437,0.273254 0,-8.932003 0,-8.932003 -4.78498,-0.283976 c -2.63173,-0.15619 -6.18312,-0.40218 -7.89198,-0.546652 l -3.10701,-0.262672 0.12969,-8.836648 c 0.0713,-4.860162 0.2254,-8.923457 0.34237,-9.029552 0.11696,-0.106094 2.89225,0.157906 6.16729,0.586666 3.27505,0.42876 6.76808,0.787132 7.76229,0.796382 l 1.80766,0.01682 0,-8.219166 0,-8.219167 -7.54963,-1.360816 c -4.15229,-0.748449 -7.78887,-1.356298 -8.08128,-1.350777 -0.40728,0.0077 -0.53166,2.00027 -0.53166,8.516655 0,7.931595 -0.0522,8.506617 -0.77138,8.506617 -0.42425,0 -2.86459,-0.266968 -5.42296,-0.593263 -2.55838,-0.326295 -6.13494,-0.599672 -7.94791,-0.607506 l -3.29632,-0.01424 0,9.08339 0,9.083391 -2.23299,-0.20199 c -6.53459,-0.591108 -11.63876,-0.844711 -12.01559,-0.597007 -0.43111,0.283389 -27.62118,-1.509189 -28.6023,-1.885679 -0.40687,-0.156129 -0.53286,-2.66954 -0.53286,-10.630326 l 0,-10.425852 -0.957,-0.207131 c -1.38371,-0.299489 -21.74437,-2.786392 -22.81262,-2.786392 -0.8925,0 -0.89957,0.08581 -0.89957,10.910573 l 0,10.910571 -4.57231,-0.313754 c -2.51476,-0.172561 -7.63468,-0.38378 -11.37759,-0.469374 -3.74292,-0.08559 -8.09429,-0.271884 -9.669718,-0.413987 L 96.988552,49.713494 96.875656,61.862359 96.762761,74.011224 80.497073,74.207021 64.23138,74.402818 64.121836,47.941013 64.012288,21.479207 46.78639,19.288193 C 37.312146,18.083135 28.747047,16.986254 27.752836,16.850678 l -1.807656,-0.246502 0,56.986196 c 0,39.429398 0.137262,56.986198 0.445527,56.986198 0.24504,0 10.819827,-1.06696 23.499526,-2.37102 12.679703,-1.30407 24.393794,-2.36481 26.031318,-2.35721 1.637523,0.008 6.518195,-0.36047 10.845936,-0.81793 4.327741,-0.45746 8.203568,-0.83221 8.612949,-0.83277 0.700115,-8.5e-4 0.744329,1.42647 0.744329,24.03016 0,13.21715 0.143549,24.03532 0.318998,24.04037 0.175449,0.005 6.778707,-1.36742 14.673917,-3.04993 z m 15.31191,-72.109744 c -0.40653,-0.155947 -0.53167,-2.814146 -0.53167,-11.293274 l 0,-11.089315 6.06097,0.277269 c 3.33353,0.152498 8.97979,0.277971 12.54725,0.278826 l 6.4863,0.0016 0,10.365648 0,10.365649 -2.87098,0.254896 c -1.57904,0.140198 -6.60326,0.366585 -11.16494,0.503086 -4.56167,0.136506 -8.67675,0.313758 -9.14461,0.393899 -0.46786,0.08014 -1.08991,0.05393 -1.38232,-0.05824 z m 6.60046,-11.297999 -0.11417,-9.888942 -2.97732,0 -2.97731,0 -0.11417,9.888942 -0.11417,9.888942 3.20565,0 3.20566,0 -0.11417,-9.888942 z m 59.85124,8.112084 c -0.12335,-0.321444 -0.1724,-4.598873 -0.10902,-9.5054 l 0.11526,-8.920957 2.33931,0.05217 c 1.28663,0.02871 5.35386,0.201075 9.03828,0.383074 l 6.69897,0.330899 0,8.615515 0,8.615514 -3.93431,0.244799 c -12.16077,0.756668 -13.92008,0.779593 -14.14849,0.184385 z m 3.62155,-9.069078 0,-8.293952 -1.276,0 -1.27599,0 0,8.293952 0,8.293951 1.27599,0 1.276,0 0,-8.293951 z m -71.03025,-67.168478 0,-11.2374726 -1.16966,-0.2365886 c -2.80598,-0.56757 -27.36552,-4.9349713 -27.751193,-4.9349713 -0.275729,0 -0.426972,4.2819251 -0.426972,12.0880755 l 0,12.088075 2.658317,0.285429 c 1.462078,0.156986 7.538988,0.916072 13.504258,1.686857 5.96526,0.770785 11.37228,1.423172 12.01559,1.449748 l 1.16966,0.04832 0,-11.237472 z"
       style="fill-opacity:1"
       inkscape:connector-curvature="0" />
    <path
       id="path3368"
       d="m 39.230956,193.65212 0.112145,-13.90933 17.438563,-3.50858 c 9.59121,-1.92972 17.582113,-3.51788 17.757562,-3.52923 0.175449,-0.0114 0.318998,-10.37793 0.318998,-23.03682 l 0,-23.01616 -1.807656,0.25491 c -0.994211,0.14019 -12.262739,1.31032 -25.041178,2.60027 -22.369209,2.25813 -23.694364,2.34538 -35.621455,2.34538 l -12.387935,0 0,-58.057659 0,-58.05766 13.716919,0.0024 13.716919,0.0024 18.501095,2.336945 c 10.175602,1.285305 18.645001,2.33693 18.820888,2.33693 0.175888,0 0.319794,11.849549 0.319794,26.33233 l 0,26.332331 3.508979,0.28757 c 1.929939,0.158164 4.274575,0.223197 5.210303,0.144515 l 1.701323,-0.143056 0.112921,-12.269111 0.112925,-12.26911 15.092779,0.147182 15.092785,0.147181 -1.3e-4,-9.806156 -1.3e-4,-9.806156 -12.015592,-1.398324 C 87.2832,27.345998 80.297142,26.517635 78.367203,26.27427 l -3.508979,-0.442483 0,-12.915893 0,-12.915894 10.502936,0 10.502936,0 14.272584,2.5533051 c 7.84992,1.4043179 14.70323,2.652057 15.22958,2.772754 l 0.95699,0.2194486 0,11.2631643 c 0,6.19474 0.0478,11.278672 0.10634,11.297628 0.0585,0.01896 5.6569,0.740163 12.44092,1.602685 l 12.3346,1.568221 0.11347,10.651939 0.11346,10.651938 11.37047,0.739731 c 6.25375,0.40685 12.2796,0.850292 13.39078,0.985428 l 2.02032,0.245696 0,-9.022696 0,-9.022697 9.3576,0.142286 9.35761,0.142287 -3.3e-4,-7.974954 -3.2e-4,-7.974953 7.15305,0 c 6.34651,0 8.06103,0.167217 15.20558,1.483002 4.42889,0.815651 8.19607,1.485548 8.37152,1.488658 0.17545,0.0031 0.319,4.120732 0.319,9.150269 l 0,9.144613 -8.09133,0 -8.09133,0 0.11638,7.336957 0.11637,7.336957 6.59263,0.491763 c 3.62594,0.270473 7.11897,0.509721 7.76229,0.531664 l 1.16966,0.0399 0,8.719282 c 0,8.435727 0.0276,8.719283 0.85066,8.719283 0.83597,0 0.85066,-0.283556 0.85066,-16.421871 l 0,-16.421873 7.76229,0.203732 c 4.26926,0.112053 10.10692,0.542501 12.97259,0.956552 l 5.2103,0.752818 0,32.053222 c 0,17.629274 -0.14355,32.064051 -0.319,32.077281 -0.17545,0.0132 -6.25236,0.63536 -13.50425,1.3825 l -13.18526,1.35845 -0.11208,15.31173 -0.11208,15.31174 7.23637,-0.13435 7.23638,-0.13434 0,8.74729 c 0,4.81101 -0.0937,8.74729 -0.20831,8.74729 -0.11457,0 -3.38074,0.8613 -7.25815,1.91399 -7.0161,1.90483 -7.08328,1.91399 -14.04027,1.91399 l -6.99044,0 4.3e-4,-7.12429 4.2e-4,-7.12429 -8.5071,0.13112 -8.50698,0.13112 0,-7.68074 c 0,-6.19263 -0.11208,-7.68075 -0.57849,-7.68075 -0.67195,0 -67.64016,10.52354 -69.06943,10.85373 l -0.957,0.22108 0,11.21706 0,11.21705 -0.95699,0.2223 c -0.52635,0.12226 -7.03391,1.51651 -14.46125,3.09832 l -13.504253,2.87603 0,12.47236 c 0,6.8598 -0.08742,12.47236 -0.194261,12.47236 -0.106843,0 -7.997121,2.10539 -17.533957,4.67864 l -17.339691,4.67864 -11.607019,0 -11.607018,0 0.112145,-13.90933 z m 38.994578,8.57189 c 8.324022,-2.2338 15.756627,-4.25833 16.516905,-4.49897 l 1.382326,-0.4375 0,-12.08894 c 0,-6.64892 -0.14355,-12.08002 -0.318999,-12.0691 -0.175449,0.0109 -7.687854,1.59971 -16.694234,3.53066 l -16.375237,3.51081 -0.112478,13.05724 c -0.06187,7.18149 0.01793,13.05725 0.177329,13.05725 0.159397,0 7.10037,-1.82766 15.424388,-4.06145 z M 110.81488,169.3232 c 7.72866,-1.66036 14.18524,-3.01884 14.34796,-3.01884 0.16272,0 0.34683,-5.1158 0.40914,-11.36845 l 0.11328,-11.36845 35.51512,-5.62785 c 19.53332,-3.09531 35.99362,-5.54248 36.57845,-5.43814 0.58483,0.10434 3.79076,-0.25537 7.12429,-0.79936 l 6.06097,-0.98907 0,8.67971 c 0,8.45985 0.0214,8.67293 0.84299,8.41215 0.46365,-0.14716 2.04269,-0.35199 3.50898,-0.45519 1.46629,-0.10319 4.72352,-0.64115 7.23829,-1.19546 l 4.57231,-1.00783 0,8.48097 c 0,7.99132 0.0445,8.46687 0.77001,8.23659 1.13584,-0.3605 13.31531,-3.64091 13.51793,-3.64091 0.0953,0 0.1733,-3.54088 0.1733,-7.86862 l 0,-7.86862 -0.98046,0 c -0.53926,0 -3.62887,0.57886 -6.86582,1.28636 -3.23694,0.70749 -6.00167,1.17024 -6.14382,1.02833 -0.14217,-0.14192 -0.31449,-7.99394 -0.38294,-17.44893 -0.12065,-16.66583 -0.0997,-17.1909 0.68589,-17.1909 0.4457,0 6.33937,-0.57367 13.09705,-1.27482 6.75769,-0.70114 12.43025,-1.27534 12.6057,-1.27599 0.17545,-8.5e-4 0.319,-14.043956 0.319,-31.207348 l 0,-31.206171 -3.72165,-0.476834 c -2.0469,-0.262255 -4.91788,-0.60166 -6.37996,-0.754231 l -2.65832,-0.2774 0,16.28428 0,16.284284 -5.5293,-0.224259 c -3.08606,-0.125167 -5.5293,-0.0582 -5.5293,0.151545 0,0.206694 -0.76559,0.375805 -1.70132,0.375805 l -1.70132,0 0,-8.863614 0,-8.863609 -7.1243,-0.499428 c -3.91836,-0.274687 -7.45924,-0.496838 -7.86862,-0.493669 -0.68417,0.0053 -0.7438,-0.67315 -0.73781,-8.394521 0.003,-4.620156 0.1829,-8.679128 0.39848,-9.019938 0.34215,-0.540905 1.16564,-0.526952 6.47978,0.109794 3.3483,0.401197 6.80556,0.727891 7.68281,0.725987 l 1.59499,-0.0035 0,-8.293951 c 0,-4.561673 -0.15085,-8.293951 -0.33522,-8.293951 -0.18436,0 -3.4787,-0.574197 -7.32074,-1.275993 -3.84204,-0.701796 -7.32778,-1.275992 -7.74607,-1.275992 -0.70515,0 -0.76054,0.619548 -0.76054,8.506616 0,6.741334 -0.11595,8.506617 -0.55871,8.506617 -0.30729,0 -2.65193,-0.27136 -5.2103,-0.603022 -2.55838,-0.331662 -6.23064,-0.608737 -8.16058,-0.615722 l -3.50898,-0.0127 0,8.964192 0,8.964197 -6.06096,-0.357061 c -3.33353,-0.196384 -7.30506,-0.310228 -8.82562,-0.252983 -1.52055,0.05724 -8.12382,-0.285099 -14.67391,-0.760764 -6.55009,-0.47566 -12.24421,-0.86485 -12.65359,-0.864863 -0.68904,-2.5e-5 -0.74433,-0.789933 -0.74433,-10.633296 0,-5.848299 -0.0479,-10.640563 -0.10633,-10.649475 -0.0585,-0.0089 -5.6569,-0.733558 -12.44093,-1.610324 L 125.68526,29.104497 125.57203,17.770954 125.45881,6.4374108 123.23271,5.9929532 C 119.12629,5.173074 97.151977,1.2759925 96.635374,1.2759925 c -0.38526,0 -0.510609,2.9624276 -0.510609,12.0675685 l 0,12.067568 1.59499,0.245237 c 0.877245,0.13488 7.480505,0.956628 14.673915,1.826105 l 13.07892,1.580867 0,10.988182 0,10.988181 -1.59499,-0.01297 c -0.87724,-0.0071 -5.04017,-0.276414 -9.25094,-0.598415 -4.47877,-0.342493 -7.71469,-0.425675 -7.79749,-0.200437 -0.0778,0.21176 -0.55634,0.301368 -1.06333,0.199127 -0.50699,-0.102241 -2.69223,-0.30019 -4.8561,-0.439881 l -3.934314,-0.253991 0,12.137211 0,12.137211 -7.124291,8.51e-4 c -3.91836,4.25e-4 -11.287217,0.126757 -16.375236,0.280399 l -9.250946,0.279358 0,-26.574169 0,-26.574168 -17.970227,-2.239221 C 36.371101,17.949236 27.758152,16.838083 27.11484,16.711578 l -1.16966,-0.230008 0,57.102456 0,57.102454 2.870983,-0.28679 c 1.57904,-0.15774 12.775752,-1.2927 24.88158,-2.52215 12.10583,-1.22944 22.15427,-2.11102 22.329868,-1.95906 0.175598,0.15197 4.434346,-0.16279 9.463883,-0.69946 5.029537,-0.53667 9.479561,-0.98626 9.888942,-0.99909 0.70046,-0.022 0.744329,1.40701 0.744329,24.24564 0,13.34792 0.143549,24.18065 0.318998,24.07271 0.175449,-0.10793 6.642447,-1.55472 14.371117,-3.21508 z m 15.08304,-83.40714 0,-11.190153 6.06097,0.277269 c 3.33353,0.152498 8.97979,0.277971 12.54725,0.278826 l 6.4863,0.0016 0,10.359804 0,10.359801 -4.14698,0.269098 c -2.28083,0.148002 -7.9271,0.396191 -12.54725,0.551526 l -8.40029,0.282429 0,-11.190157 z m 7.13205,-0.140768 -0.11409,-9.853737 -2.97732,0 -2.97731,0 -0.11473,9.560319 c -0.0631,5.258173 -0.0401,9.756047 0.0512,9.995274 0.0989,0.259244 1.39409,0.377779 3.20613,0.293419 l 3.04022,-0.141541 -0.11408,-9.853734 z m 60.07022,-0.919484 0,-9.668799 1.38233,0.28441 c 0.76027,0.156424 4.77965,0.390887 8.93194,0.521034 l 7.54963,0.236625 0,8.620856 0,8.620857 -4.99764,0.272139 c -2.7487,0.149674 -6.76808,0.386783 -8.93195,0.526904 l -3.93431,0.254773 0,-9.668799 z m 3.40265,-0.0021 0,-8.293951 -1.276,0 -1.27599,0 0,8.293951 0,8.293952 1.27599,0 1.276,0 0,-8.293952 z"
       style="fill-opacity:1"
       inkscape:connector-curvature="0" />
    <path
       id="path3366"
       d="m 39.130435,193.76686 c 0,-12.77183 0.05519,-13.81061 0.744329,-14.01069 0.409381,-0.11886 8.113185,-1.6743 17.119565,-3.45654 9.00638,-1.78223 16.710185,-3.33767 17.119566,-3.45653 0.697032,-0.20237 0.744329,-1.67623 0.744329,-23.19522 l 0,-22.97912 -2.020322,0.25727 c -1.111176,0.1415 -12.416559,1.30785 -25.123075,2.5919 -22.197617,2.24316 -23.584884,2.33463 -35.408789,2.33463 l -12.306038,0 0,-58.057659 0,-58.05766 13.716919,0.0037 13.716919,0.0037 18.289225,2.335551 c 10.059074,1.284554 18.528473,2.335572 18.820888,2.335597 0.419606,3.6e-5 0.531664,5.551604 0.531664,26.33995 l 0,26.33991 2.232987,0.272007 c 1.228142,0.149606 3.572779,0.211228 5.210302,0.13694 l 2.977316,-0.135073 0.112921,-12.26911 0.112925,-12.26911 15.092779,0.147181 15.092785,0.147182 -1.3e-4,-9.888942 c -1.1e-4,-8.545514 -0.0876,-9.888982 -0.64382,-9.888982 -0.35403,0 -7.169804,-0.765596 -15.146156,-1.701323 -7.976352,-0.935728 -14.672748,-1.701324 -14.880879,-1.701324 -0.212738,0 -0.378421,-5.679841 -0.378421,-12.97259 L 74.858224,0 85.402545,0 95.946861,0 108.90207,2.3474186 c 7.12537,1.2910802 13.96005,2.5487425 15.1882,2.7948053 l 2.23298,0.4473872 0,11.2411119 c 0,6.182612 0.0478,11.256621 0.10634,11.275577 0.0585,0.01896 5.6569,0.740163 12.44092,1.602685 l 12.3346,1.568221 0.11345,10.647074 0.11346,10.647071 11.15781,0.749267 c 6.1368,0.412099 12.16265,0.859424 13.3908,0.994058 l 2.23298,0.244791 0,-9.03216 0,-9.032158 9.35745,0.147984 9.35744,0.147985 -1.7e-4,-7.974954 -1.6e-4,-7.974953 7.06385,0 c 6.22146,0 8.04549,0.177526 15.29556,1.488658 4.52745,0.818762 8.33477,1.488658 8.46073,1.488658 0.12595,0 0.22901,4.115076 0.22901,9.144613 l 0,9.144613 -8.09133,0 -8.09133,0 0.11638,7.336957 0.11637,7.336957 6.59263,0.491763 c 3.62594,0.270473 7.11897,0.509721 7.76229,0.531664 l 1.16966,0.0399 0,8.719282 c 0,8.435727 0.0276,8.719283 0.85066,8.719283 0.83593,0 0.85066,-0.283556 0.85066,-16.375238 l 0,-16.375237 5.8483,4.25e-4 c 3.35955,2.73e-4 8.65379,0.362067 12.44093,0.850181 3.62594,0.467337 6.83187,0.849922 7.12429,0.850181 0.78039,8.51e-4 0.78039,64.212839 0,64.252359 -0.29242,0.0148 -6.36933,0.63685 -13.50426,1.38232 l -12.97259,1.35541 -0.11208,15.31191 -0.11208,15.31191 7.23637,-0.13434 7.23638,-0.13429 0,8.68978 0,8.68977 -7.34075,1.97151 c -7.30858,1.96287 -7.371,1.9715 -14.24858,1.9715 l -6.90784,0 4.3e-4,-7.12429 4.2e-4,-7.12429 -8.50704,0.13826 -8.50704,0.13825 0,-7.68788 c 0,-6.38679 -0.10305,-7.68788 -0.60889,-7.68788 -0.70995,0 -67.61674,10.51428 -69.03903,10.84936 l -0.957,0.22545 0,11.26317 c 0,6.19474 -0.14355,11.2636 -0.319,11.26413 -0.17544,4.3e-4 -6.53946,1.33989 -14.14225,2.97635 -7.60278,1.63645 -13.966796,2.97581 -14.142245,2.97634 -0.175449,4.3e-4 -0.318998,5.64724 -0.318998,12.54823 0,6.90099 -0.104648,12.54726 -0.232554,12.54726 -0.127905,0 -8.027719,2.10539 -17.555147,4.67864 l -17.322592,4.67864 -11.580015,0 -11.580014,0 0,-13.79459 z m 40.619093,8.09372 16.162571,-4.38491 0.112938,-12.23385 0.112938,-12.23386 -0.963599,0.19503 c -0.52998,0.10727 -8.092931,1.70919 -16.806561,3.55982 l -15.842956,3.3648 -4.25e-4,13.07892 c -4.25e-4,10.19056 0.1168,13.07451 0.531051,13.05894 0.292415,-0.011 7.80482,-1.99319 16.694235,-4.40489 z m 43.490072,-35.14491 2.23299,-0.47162 0,-11.23301 0,-11.23301 0.957,-0.22814 c 2.99207,-0.71329 71.01657,-11.20974 71.48419,-11.0303 0.30981,0.11888 3.07299,-0.17396 6.1404,-0.65077 3.06741,-0.47681 5.87698,-0.86692 6.24351,-0.86692 0.58281,0 0.6664,1.06937 0.6664,8.52589 l 0,8.52589 1.59499,-0.31816 c 0.87724,-0.17498 2.07348,-0.29289 2.65831,-0.26201 0.58483,0.0309 3.23188,-0.40883 5.88233,-0.97711 2.65045,-0.56829 5.09078,-1.03325 5.42297,-1.03325 0.50116,0 0.60397,1.41669 0.60397,8.32261 0,7.72852 0.0531,8.30654 0.74433,8.09746 0.66422,-0.20093 7.04335,-1.9221 11.90926,-3.21327 l 1.80765,-0.47967 0,-7.85222 0,-7.85223 -1.16966,0.0112 c -0.64331,0.006 -3.75354,0.5635 -6.91162,1.23854 -3.15808,0.67503 -5.83767,1.13275 -5.95463,1.01716 -0.11697,-0.11559 -0.27038,-7.90724 -0.34091,-17.31477 l -0.12823,-17.1046 11.82483,-1.18741 c 6.50366,-0.65309 12.63828,-1.29215 13.63249,-1.42015 l 1.80766,-0.23272 0,-30.966239 c 0,-17.03143 -0.15424,-31.061563 -0.34276,-31.178074 -0.43291,-0.267546 -10.06276,-1.53968 -11.65517,-1.53968 l -1.18733,0 0,16.164243 0,16.164243 -5.5293,-0.279846 c -4.05628,-0.205294 -5.5293,-0.149087 -5.5293,0.210994 0,0.289093 -0.69928,0.49084 -1.70132,0.49084 l -1.70132,0 0,-8.931947 c 0,-8.225257 -0.0589,-8.931493 -0.74433,-8.926185 -0.40938,0.003 -3.95026,-0.218981 -7.86862,-0.493669 l -7.12429,-0.499427 0.006,-8.331946 c 0.003,-4.582575 0.17536,-8.598593 0.38172,-8.924488 0.31956,-0.504639 1.19322,-0.488866 5.88955,0.106332 3.03289,0.384379 6.4977,0.69887 7.69957,0.69887 l 2.18523,0 0,-8.293951 c 0,-4.561673 -0.14355,-8.295452 -0.319,-8.297286 -0.17545,-0.0018 -3.38138,-0.57453 -7.12429,-1.272658 -3.74291,-0.698128 -7.23594,-1.270823 -7.76229,-1.272658 l -0.95699,-0.0033 0,8.506616 c 0,6.530709 -0.1235,8.502711 -0.53167,8.4898 -0.29241,-0.0093 -3.17286,-0.358462 -6.40098,-0.776027 -3.22813,-0.417565 -5.94638,-0.634532 -6.04056,-0.482149 -0.0942,0.152384 -1.13741,0.153112 -2.3183,0.0016 l -2.14706,-0.275441 0,9.106912 0,9.106912 -5.63563,-0.35755 c -3.0996,-0.196652 -6.93554,-0.306689 -8.5243,-0.244527 -1.58876,0.06216 -8.28384,-0.272786 -14.87795,-0.744329 -6.59411,-0.471543 -12.42382,-0.857352 -12.95491,-0.857352 l -0.96562,0 0,-10.633271 c 0,-5.848299 -0.0479,-10.64878 -0.10633,-10.667735 -0.0585,-0.01896 -5.6569,-0.740172 -12.44093,-1.602705 L 125.68526,29.119735 125.57199,17.756212 125.45872,6.3926881 124.50866,6.1756303 C 122.46294,5.7082482 97.364285,1.2759925 96.763352,1.2759925 c -0.55296,0 -0.638587,1.6254395 -0.638587,12.1219285 0,6.667061 0.143549,12.13081 0.318998,12.141663 0.175449,0.01085 6.730857,0.828672 14.567577,1.817374 l 14.24859,1.797638 0.11351,10.942552 0.11351,10.942553 -1.00874,0 c -0.55481,0 -3.47512,-0.200276 -6.48959,-0.445058 -3.01446,-0.244782 -8.97562,-0.503111 -13.24701,-0.574065 l -7.766184,-0.129007 0,12.057998 0,12.057997 -7.124291,8.51e-4 c -3.91836,4.25e-4 -11.287217,0.126757 -16.375236,0.280399 l -9.250946,0.279358 0,-26.650912 c 0,-21.058249 -0.111734,-26.65072 -0.532459,-26.65072 -0.292853,0 -8.857952,-1.051625 -19.033554,-2.336945 -10.175603,-1.28532 -18.644644,-2.338013 -18.820093,-2.33932 -0.175449,-0.0013 -0.318998,25.645075 -0.318998,56.991958 l 0,56.994335 1.034772,0 c 0.569124,0 11.431009,-1.06357 24.137522,-2.36348 12.706516,-1.29991 23.67695,-2.27957 24.378746,-2.17702 1.08265,0.1582 12.259833,-0.79424 19.033554,-1.6219 l 2.020322,-0.24687 0,24.17574 0,24.17573 12.440925,-2.66574 c 6.84251,-1.46615 13.44577,-2.87796 14.67391,-3.13736 z m 2.65832,-80.737146 0,-11.121912 12.0156,0.249146 c 6.60857,0.137033 12.25484,0.322787 12.54726,0.412792 0.40592,0.124941 0.53166,2.566301 0.53166,10.322779 l 0,10.159138 -5.2103,0.267133 c -2.86567,0.146927 -8.51194,0.394418 -12.54726,0.549987 l -7.33696,0.282854 0,-11.121917 z m 4.93393,9.720915 2.31237,0 -0.11417,-9.888942 -0.11417,-9.888942 -2.97732,0 -2.97731,0 -0.11473,9.560319 c -0.0631,5.258173 -0.0136,9.823755 0.10992,10.145735 0.12627,0.329057 0.51769,0.472968 0.89384,0.328624 0.36806,-0.141236 1.70977,-0.256794 2.98157,-0.256794 z m 62.26834,-10.637648 0,-9.478982 3.50898,0.273156 c 1.92994,0.150235 5.85362,0.274304 8.71928,0.275708 l 5.2103,0.0025 0,8.659311 0,8.659311 -5.63563,0.285503 c -3.0996,0.157024 -7.02327,0.40181 -8.71928,0.543968 l -3.08365,0.258465 0,-9.478987 z m 3.40265,-0.208288 0,-8.293952 -1.276,0 -1.27599,0 0,8.293952 0,8.293951 1.27599,0 1.276,0 0,-8.293951 z"
       style="fill-opacity:1"
       inkscape:connector-curvature="0" />
    <path
       id="path3364"
       d="m 39.130435,193.76686 c 0,-12.77183 0.05519,-13.81061 0.744329,-14.01069 0.409381,-0.11886 8.113185,-1.6743 17.119565,-3.45654 9.00638,-1.78223 16.710185,-3.33767 17.119566,-3.45653 0.697011,-0.20237 0.744329,-1.67433 0.744329,-23.15531 0,-12.61656 -0.04842,-22.9392 -0.1076,-22.9392 -0.05918,0 -11.399564,1.14762 -25.200851,2.55026 -24.347364,2.47445 -25.456731,2.5503 -37.321512,2.55198 L 0,131.85256 0,73.794901 l 0,-58.05766 13.43055,0 13.430549,0 18.649298,2.33932 c 10.257112,1.286625 18.855379,2.339319 19.10726,2.339319 0.322124,0 0.457958,7.808152 0.457958,26.325006 0,23.612599 0.06932,26.351606 0.672784,26.583178 0.370029,0.141996 2.762515,0.258171 5.316635,0.258171 l 4.643851,0 0,-12.378977 0,-12.378974 15.099295,0.150712 15.09929,0.150716 -5e-5,-9.888942 c -4e-5,-7.845095 -0.11466,-9.888942 -0.55458,-9.888942 -0.305,0 -7.089806,-0.765596 -15.077357,-1.701323 -7.987551,-0.935728 -14.724068,-1.701324 -14.970037,-1.701324 -0.302967,0 -0.447222,-4.184445 -0.447222,-12.97259 L 74.858224,0 85.280471,0 95.702717,0 108.78,2.3503157 c 7.1925,1.2926737 14.08212,2.550336 15.31027,2.7948056 l 2.23298,0.4444898 0,11.2330089 0,11.233009 0.957,0.20738 c 0.52634,0.11406 5.74196,0.7956 11.59026,1.514534 5.8483,0.718933 11.06392,1.398501 11.59027,1.510149 l 0.95699,0.202997 0,10.548118 0,10.54812 10.95227,0.734223 c 6.02375,0.403826 12.05281,0.846017 13.39792,0.98265 l 2.44565,0.248423 0,-9.028536 0,-9.028538 9.35745,0.147984 9.35744,0.147985 -1.7e-4,-7.974954 -1.6e-4,-7.974953 7.12429,0.0057 c 6.29878,0.005 8.05736,0.177496 15.17681,1.488658 4.42889,0.81565 8.20902,1.483001 8.40028,1.483001 0.19128,0 0.34777,4.126677 0.34777,9.170393 l 0,9.170392 -8.09118,-0.132112 -8.09118,-0.132112 0.11623,7.443289 0.11622,7.44329 6.37996,0.494281 c 3.50898,0.271855 7.00201,0.511103 7.76229,0.531664 l 1.38233,0.03738 0,8.719282 c 0,8.435727 0.0276,8.719283 0.85066,8.719283 0.83593,0 0.85066,-0.283556 0.85066,-16.375238 l 0,-16.375237 5.8483,4.25e-4 c 3.35955,2.73e-4 8.65379,0.362067 12.44093,0.850181 3.62594,0.467337 6.83187,0.849922 7.12429,0.850181 0.42062,3.79e-4 0.53166,6.695916 0.53166,32.058598 l 0,32.05812 -1.59499,0.23394 c -0.87725,0.12867 -7.00201,0.76715 -13.61059,1.41884 l -12.01559,1.1849 -4.3e-4,15.32976 -4.2e-4,15.32975 7.23118,-0.13434 7.23092,-0.13429 0,8.68773 0,8.68773 -7.37739,1.97355 c -7.33407,1.96196 -7.41774,1.97355 -14.24859,1.97355 l -6.87119,0 4.3e-4,-7.12429 4.2e-4,-7.12429 -8.50704,0.13826 -8.50704,0.13825 0,-7.68788 0,-7.68788 -0.957,0.0225 c -0.52634,0.0123 -16.3646,2.46459 -35.19612,5.44943 l -34.23913,5.42699 -0.11328,11.35113 c -0.0623,6.24312 -0.23208,11.35113 -0.37727,11.35113 -0.14519,0 -6.55462,1.33979 -14.24318,2.97732 -7.68855,1.63752 -14.074192,2.97731 -14.190312,2.97731 -0.116115,0 -0.211121,5.61215 -0.211121,12.47143 l 0,12.47144 -17.578208,4.75446 -17.578208,4.75447 -11.556953,0 -11.556953,0 0,-13.79459 z m 38.618762,8.66086 c 7.884209,-2.12175 15.339769,-4.14502 16.567912,-4.49615 l 2.232986,-0.63842 0,-12.09175 c 0,-9.38525 -0.119003,-12.09367 -0.531663,-12.10036 -0.292415,-0.005 -7.94837,1.56163 -17.013233,3.48083 l -16.481569,3.48943 0,13.10708 c 0,8.84679 0.144749,13.10708 0.445321,13.10708 0.244931,0 6.896042,-1.73598 14.780246,-3.85774 z m 32.624153,-32.93539 c 7.25189,-1.5425 13.6159,-2.91157 14.14225,-3.04237 l 0.95699,-0.23782 0,-11.21706 0,-11.21705 0.957,-0.21757 c 3.7581,-0.85441 69.45323,-10.96194 71.13657,-10.94472 1.16966,0.012 4.42344,-0.34622 7.23063,-0.79596 2.80718,-0.44974 5.34322,-0.81775 5.63563,-0.8178 0.40768,-6e-5 0.53167,1.99151 0.53167,8.54033 l 0,8.54041 1.38232,-0.30758 c 0.76028,-0.16917 2.01429,-0.28553 2.7867,-0.25858 0.7724,0.027 3.59228,-0.42405 6.2664,-1.00221 2.67412,-0.57816 5.05668,-1.0512 5.29459,-1.0512 0.27845,0 0.43256,2.96509 0.43256,8.32261 0,7.72348 0.0536,8.30736 0.74433,8.11068 0.40938,-0.11656 2.65831,-0.71748 4.99763,-1.33537 2.33932,-0.61789 5.25815,-1.41029 6.4863,-1.7609 l 2.23298,-0.63746 0,-7.83844 0,-7.83844 -1.38232,0.0129 c -0.76028,0.007 -3.89762,0.5548 -6.97187,1.21709 l -5.58954,1.20417 -0.25407,-1.53609 c -0.13974,-0.84485 -0.25619,-8.62118 -0.25876,-17.28073 l -0.005,-15.74465 12.01559,-1.19301 c 6.60858,-0.65615 12.73334,-1.29933 13.61059,-1.42928 l 1.59499,-0.23628 0,-31.148658 0,-31.148657 -5.8483,-0.732637 c -3.21656,-0.402954 -6.1354,-0.764362 -6.4863,-0.803127 -0.55534,-0.06136 -0.65243,2.009595 -0.74944,15.985749 l -0.11145,16.05624 -5.43912,0 c -3.32189,0 -5.61762,0.178507 -5.8977,0.458583 -0.25222,0.252221 -1.00825,0.39577 -1.68006,0.318998 l -1.22147,-0.139585 -0.11478,-8.767715 -0.11479,-8.767714 -3.07519,-0.259788 c -1.69136,-0.142886 -5.22844,-0.387579 -7.86017,-0.543769 l -4.78497,-0.283976 0.006,-8.339751 c 0.003,-4.586862 0.17046,-8.598454 0.37083,-8.914652 0.30484,-0.481054 1.22673,-0.463696 5.64723,0.106333 2.90561,0.37468 6.37531,0.681237 7.71046,0.681237 l 2.42755,0 0,-8.260156 0,-8.260157 -1.16966,-0.237431 c -0.64332,-0.130586 -3.94495,-0.731088 -7.33696,-1.334446 -3.39201,-0.603359 -6.50225,-1.194516 -6.91163,-1.313684 -0.69184,-0.201391 -0.74432,0.402523 -0.74432,8.565071 l 0,8.781739 -1.16966,-0.226264 C 206.7686,38.386434 200.20119,37.724195 197.03462,37.6851 l -3.50886,-0.04332 -1.2e-4,9.069007 -1.2e-4,9.069006 -4.99764,-0.349724 c -2.7487,-0.192348 -6.14603,-0.326816 -7.54962,-0.298816 -1.40359,0.02799 -8.81708,-0.342132 -16.47443,-0.822505 l -13.92244,-0.873413 -0.11348,-10.653733 -0.11347,-10.653733 -12.33459,-1.568221 c -6.78403,-0.862522 -12.38244,-1.58373 -12.44093,-1.602686 -0.0585,-0.01895 -0.10633,-5.093636 -0.10633,-11.277069 0,-10.3392929 -0.0598,-11.2604055 -0.74433,-11.4641458 -1.17581,-0.3499661 -27.085171,-4.9397537 -27.884916,-4.9397537 -0.657698,0 -0.718579,1.0242066 -0.718579,12.0881345 l 0,12.088134 1.169659,0.229482 c 0.643313,0.126215 6.815926,0.912768 13.716916,1.747896 6.901,0.835128 12.97791,1.61201 13.50426,1.726405 l 0.95699,0.207991 0,10.837833 c 0,8.390305 -0.12007,10.836314 -0.53166,10.8311 -0.29242,-0.0038 -2.82845,-0.200076 -5.63564,-0.43639 -2.80718,-0.236309 -9.07549,-0.505182 -13.92958,-0.597492 l -8.825615,-0.167839 0,12.088162 0,12.088157 -6.911625,8.51e-4 c -3.801395,4.25e-4 -11.074552,0.126757 -16.162571,0.280399 l -9.250946,0.279358 0,-26.650912 c 0,-17.729829 -0.144374,-26.65072 -0.431311,-26.65072 -0.237219,0 -8.706619,-1.052606 -18.820888,-2.339125 -10.114268,-1.286519 -18.628827,-2.339213 -18.921241,-2.33932 -0.422687,-1.54e-4 -0.531664,11.682123 -0.531664,56.994138 l 0,56.994334 1.177527,0 c 0.647639,0 11.605225,-1.06352 24.350191,-2.36337 12.744961,-1.29985 23.708326,-2.25977 24.363034,-2.13314 0.997894,0.19299 13.679341,-0.91592 19.119173,-1.67186 l 1.594991,-0.22165 0,24.23554 c 0,19.20107 0.110441,24.19807 0.531663,24.05516 0.292415,-0.0992 6.465032,-1.44242 13.716922,-2.98492 z m 15.52457,-83.63221 0,-11.115311 7.54962,0.275504 c 4.1523,0.151524 9.79856,0.393035 12.54726,0.536687 l 4.99764,0.261191 0,10.079176 0,10.079171 -10.95227,0.50568 c -6.02375,0.278124 -11.67001,0.502877 -12.54726,0.499449 l -1.59499,-0.0062 0,-11.115312 z m 5.59031,9.839319 1.65599,0 -0.11417,-9.888942 -0.11417,-9.888942 -3.08365,-0.124966 -3.08365,-0.124967 0,9.943019 c 0,5.468661 0.14223,10.08524 0.31605,10.259065 0.17382,0.173824 0.86764,0.205724 1.54182,0.07089 0.67418,-0.134838 1.97098,-0.245156 2.88178,-0.245156 z m 61.61196,-10.637754 0,-9.478876 3.50898,0.273156 c 1.92994,0.150235 5.85362,0.274304 8.71928,0.275708 l 5.2103,0.0025 0,8.653884 0,8.653883 -6.48629,0.289791 c -3.56746,0.15938 -7.49114,0.406561 -8.71928,0.549285 l -2.23299,0.259503 0,-9.478881 z m 3.40265,-0.208182 0,-8.293952 -1.276,0 -1.27599,0 0,8.293952 0,8.293951 1.27599,0 1.276,0 0,-8.293951 z"
       style="fill-opacity:1"
       inkscape:connector-curvature="0" />
    <path
       id="path3362"
       d="m 39.130435,193.76686 c 0,-12.77183 0.05519,-13.81061 0.744329,-14.01069 0.409381,-0.11886 8.113185,-1.6743 17.119565,-3.45654 9.00638,-1.78223 16.710185,-3.33767 17.119566,-3.45653 0.697011,-0.20237 0.744329,-1.67433 0.744329,-23.15531 0,-12.61656 -0.109502,-22.9392 -0.243341,-22.9392 -0.133838,0 -11.539931,1.14839 -25.346879,2.55199 -24.297599,2.47005 -25.491433,2.55198 -37.185771,2.55198 l -12.082233,0 0,-58.057659 0,-58.05766 13.504253,1.94e-4 13.504254,1.95e-4 18.389578,2.339125 c 10.114269,1.286519 18.677917,2.339125 19.030334,2.339125 0.562751,0 0.654095,3.223233 0.750309,26.476845 l 0.109552,26.476845 5.210303,0.119424 5.210302,0.119425 0,-12.395323 0,-12.395319 15.099244,0.157806 15.099241,0.157811 0,-9.892784 c 0,-6.634443 -0.1473,-9.892782 -0.44722,-9.892782 -0.24597,0 -6.982485,-0.765596 -14.970036,-1.701323 -7.987551,-0.935728 -14.77236,-1.701324 -15.077357,-1.701324 -0.443705,0 -0.554533,-2.592721 -0.554533,-12.97259 L 74.858224,0 85.245376,0 95.632525,0 109.80823,2.5566661 c 7.79664,1.4061664 14.69895,2.6647863 15.33848,2.7969328 l 1.16277,0.2402668 0.11322,11.3376043 0.11322,11.337604 12.33459,1.56824 c 6.78403,0.862532 12.38245,1.583749 12.44093,1.602704 0.0585,0.01896 0.10633,4.819436 0.10633,10.667735 l 0,10.633271 1.38233,0.0075 c 0.76027,0.0043 6.55009,0.383551 12.86625,0.843163 6.31617,0.459613 11.72318,0.839037 12.0156,0.843163 0.40878,0.0057 0.53166,-2.067809 0.53166,-8.971269 l 0,-8.978768 9.35728,0.1559 9.35728,0.155899 0,-7.9777 0,-7.977687 6.90155,0 c 6.10119,0 7.90156,0.1812 15.52458,1.562493 l 8.62302,1.562492 0,9.096558 0,9.096558 -8.0818,-0.132112 -8.08179,-0.132112 4.2e-4,7.486979 4.3e-4,7.48698 4.5723,0.284929 c 2.51477,0.156713 6.05565,0.403818 7.86862,0.549128 l 3.29632,0.264194 0,8.658133 c 1.7e-4,8.374572 0.028,8.658128 0.85083,8.658128 0.83593,0 0.85066,-0.283556 0.85066,-16.375238 l 0,-16.375237 5.63563,-0.0089 c 3.3677,-0.0053 8.58824,0.369087 12.97259,0.930323 l 7.33696,0.939191 0,31.975007 0,31.975001 -1.80766,0.24325 c -0.99421,0.13379 -7.11897,0.76938 -13.61058,1.41243 l -11.80293,1.16918 -4.3e-4,15.33962 -4.2e-4,15.33962 7.23118,-0.13434 7.23092,-0.13435 0,8.67656 0,8.67656 -7.42514,1.98472 c -7.37645,1.97171 -7.46989,1.98472 -14.24859,1.98472 l -6.82344,0 4.3e-4,-7.12429 4.2e-4,-7.12429 -8.50704,0.13826 -8.50704,0.13825 0,-7.68788 0,-7.68788 -0.957,0.016 c -0.52634,0.009 -16.3646,2.45624 -35.19612,5.43872 l -34.23913,5.42269 -0.11314,11.28841 -0.11315,11.2884 -13.49744,2.87457 c -7.42359,1.58102 -13.928092,2.97461 -14.454439,3.09687 l -0.956994,0.2223 0,12.42202 0,12.42202 -17.757562,4.77237 -17.757561,4.77237 -11.3776,-0.0146 -11.377599,-0.0146 0,-13.79459 z m 56.52123,3.81448 c 0.887278,-0.28161 0.898443,-0.43923 0.899626,-12.69742 l 0.0013,-12.41226 13.928389,-2.94528 c 7.66061,-1.61991 14.16764,-3.02803 14.46005,-3.12916 0.40721,-0.14083 0.53167,-2.80389 0.53167,-11.37584 l 0,-11.19197 1.16966,-0.24548 c 5.33205,-1.11906 69.32636,-10.97304 71.13657,-10.95376 1.28663,0.0137 4.63611,-0.34702 7.44329,-0.80159 2.80719,-0.45458 5.24752,-0.82655 5.42297,-0.8266 0.17537,-4e-5 0.31892,3.8279 0.31892,8.50654 0,9.21707 -0.11195,8.84529 2.44272,8.11262 0.75558,-0.2167 1.46705,-0.24309 1.58104,-0.0587 0.11399,0.18445 2.74831,-0.20742 5.85403,-0.8708 3.10573,-0.66338 5.79033,-1.21119 5.96578,-1.21735 0.17545,-0.006 0.319,3.72109 0.319,8.28276 0,4.56167 0.0903,8.29395 0.20077,8.29395 0.2885,0 11.23202,-2.9383 12.87815,-3.45775 l 1.38232,-0.4362 0,-7.83563 0,-7.83564 -1.45463,0 c -0.80004,0 -3.66777,0.4785 -6.37273,1.06333 -2.70496,0.58483 -5.06604,1.06333 -5.24684,1.06333 -0.1808,0 -0.56921,-0.54329 -0.86313,-1.20731 -0.4048,-0.9145 -0.50734,-5.06389 -0.42283,-17.10882 l 0.11158,-15.90151 13.18526,-1.36754 c 7.25189,-0.75214 13.3288,-1.37902 13.50425,-1.39307 0.4287,-0.0343 0.41104,-62.549171 -0.0177,-62.549171 -0.50356,0 -10.32966,-1.242621 -11.67893,-1.476936 l -1.16966,-0.203121 0,16.151939 0,16.151939 -5.44423,0 c -2.99433,0 -5.62606,0.170868 -5.8483,0.379709 -0.22224,0.208842 -1.02611,0.28282 -1.78639,0.164391 l -1.38232,-0.21532 0,-8.671007 0,-8.671007 -1.16966,-0.0399 c -0.64332,-0.02195 -4.13635,-0.261192 -7.76229,-0.531664 l -6.59263,-0.491767 -0.11559,-8.208741 c -0.0941,-6.683083 -0.002,-8.322333 0.49559,-8.819917 0.53134,-0.531345 1.23734,-0.528586 5.40518,0.02112 2.6367,0.347765 6.00242,0.632298 7.47937,0.632298 l 2.68536,0 0,-8.263796 0,-8.263796 -2.23299,-0.441338 c -1.22814,-0.242737 -4.43407,-0.834445 -7.12429,-1.314908 -2.69022,-0.480463 -5.32195,-0.968974 -5.8483,-1.085579 l -0.95699,-0.212008 0,8.735489 0,8.735489 -0.957,-0.204753 c -2.52565,-0.540374 -9.42436,-1.220617 -12.75997,-1.25819 l -3.7217,-0.04192 5e-5,9.093238 5e-5,9.093237 -3.08365,-0.319147 c -1.696,-0.17553 -6.33743,-0.365397 -10.31427,-0.421924 -3.97684,-0.05653 -12.25164,-0.454313 -18.38843,-0.883973 l -11.1578,-0.781143 -0.11346,-10.654767 -0.11346,-10.654768 -12.12192,-1.562341 c -6.66707,-0.859287 -12.26236,-1.577033 -12.43399,-1.59499 -0.17162,-0.01796 -0.36302,-5.14283 -0.42533,-11.388606 L 125.25993,6.2105848 110.79868,3.6180718 96.33743,1.0255585 96.224445,13.138454 c -0.06214,6.662092 0.03356,12.241283 0.212666,12.398201 0.179106,0.156919 6.354719,0.996862 13.723569,1.866541 7.36886,0.869679 13.73287,1.675897 14.14225,1.791595 0.68389,0.193281 0.74433,1.089858 0.74433,11.042285 l 0,10.831926 -2.02032,-0.214737 c -5.34678,-0.568301 -9.10775,-0.759883 -17.43856,-0.88832 l -9.038285,-0.139343 0,12.156938 0,12.156938 -9.995274,-0.252136 c -6.108035,-0.154081 -9.995274,-0.09722 -9.995274,0.146207 0,0.229262 -2.617843,0.398348 -6.167297,0.398348 l -6.167297,0 0,-26.583177 c 0,-14.620748 -0.143549,-26.583198 -0.318998,-26.583223 -0.175449,-2.5e-5 -8.549149,-1.051043 -18.608223,-2.335597 -10.059074,-1.284553 -18.624173,-2.337226 -19.033554,-2.339274 -0.705196,-0.0035 -0.744329,2.989053 -0.744329,56.919719 0,31.307895 0.08585,57.009295 0.190782,57.114225 0.10493,0.10493 10.966816,-0.91676 24.137524,-2.27043 13.170709,-1.35367 24.712337,-2.36858 25.648065,-2.25535 0.935728,0.11322 5.959948,-0.23043 11.164934,-0.76368 l 9.463611,-0.96954 -0.0026,24.26521 -0.0021,24.26521 -14.990576,3.16089 c -8.244813,1.73849 -15.804017,3.33303 -16.798228,3.54343 l -1.807656,0.38253 0,13.29396 0,13.29397 16.114802,-4.35264 c 8.863141,-2.39395 16.519096,-4.48096 17.013233,-4.63779 z m 30.246255,-111.657258 0,-11.182624 5.2103,0.27575 c 2.86567,0.151665 8.41624,0.3958 12.3346,0.542531 l 7.12429,0.266784 0,10.082328 0,10.082331 -6.91163,0.277745 c -3.80139,0.152762 -9.35196,0.403758 -12.33459,0.557766 l -5.42297,0.280013 0,-11.182624 z m 5.8483,9.78004 1.38233,-0.0047 0,-9.995274 0,-9.995275 -3.18999,0 -3.18998,0 0,9.924385 c 0,5.458415 0.14355,10.068814 0.319,10.245335 0.17545,0.176525 0.9889,0.21053 1.80766,0.07557 0.81876,-0.134962 2.1107,-0.247488 2.87098,-0.250061 z m 61.67002,-1.53174 c -0.17383,-0.173824 -0.31605,-4.427587 -0.31605,-9.452808 l 0,-9.136765 3.50898,0.273156 c 1.92994,0.150235 5.85362,0.274304 8.71928,0.275708 l 5.2103,0.0025 0,8.652791 0,8.652786 -7.19617,0.282904 c -3.9579,0.155595 -7.73936,0.391539 -8.40324,0.524314 -0.66388,0.132776 -1.34928,0.09919 -1.5231,-0.07463 z m 3.0866,-9.318879 0,-8.293952 -1.276,0 -1.27599,0 0,8.293952 0,8.293951 1.27599,0 1.276,0 0,-8.293951 z"
       style="fill-opacity:1;fill:#4d4d4d"
       inkscape:connector-curvature="0" />
    <path
       id="path3360"
       d="m 39.130435,193.76686 c 0,-12.77183 0.05519,-13.81061 0.744329,-14.01069 0.409381,-0.11886 8.113185,-1.6743 17.119565,-3.45654 9.00638,-1.78223 16.710185,-3.33767 17.119566,-3.45653 0.697011,-0.20237 0.744329,-1.67433 0.744329,-23.15531 0,-12.61656 -0.144119,-22.9392 -0.320266,-22.9392 -0.176146,0 -11.612229,1.14762 -25.413516,2.55026 -26.071726,2.64969 -31.638028,2.93789 -43.9536944,2.27568 L 0,131.2965 0,73.516871 l 0,-57.77963 13.078923,-0.01059 13.078922,-0.0106 19.458885,2.430644 19.458885,2.430644 0,26.502449 0,26.502449 5.316635,0 5.316635,0 0,-12.382227 0,-12.382231 15.099244,0.157806 15.099241,0.157811 0,-9.892784 c 0,-7.628291 -0.1217,-9.893807 -0.53166,-9.897251 -0.29242,-0.0025 -6.943526,-0.766043 -14.780246,-1.696856 -7.83672,-0.930814 -14.58353,-1.694399 -14.992911,-1.696857 -0.69252,-0.0042 -0.744329,-0.907465 -0.744329,-12.977057 L 74.858224,0 85.172496,0.00245005 95.486768,0.00490009 110.77718,2.7671005 c 8.40972,1.5192102 15.3448,2.7622004 15.41129,2.7622004 0.0665,0 0.17186,5.1121061 0.23417,11.3602351 l 0.11328,11.360236 12.33459,1.58993 c 6.78403,0.874461 12.38245,1.600021 12.44093,1.612355 0.0585,0.01233 0.10633,4.807397 0.10633,10.655696 l 0,10.633271 1.16966,0.0038 c 0.64331,0.0021 6.33743,0.381437 12.65359,0.842725 6.31616,0.461293 11.81888,0.842283 12.22826,0.846647 0.68563,0.0073 0.74433,-0.700154 0.74433,-8.970832 l 0,-8.978767 9.35728,0.1559 9.35728,0.155899 0,-7.9777 0,-7.977513 6.90155,0 c 6.10119,0 7.90156,0.1812 15.52458,1.562493 l 8.62302,1.562492 0,9.103918 0,9.103918 -8.08172,-0.139472 -8.08172,-0.139472 4.2e-4,7.488821 4.3e-4,7.488817 4.35964,0.280106 c 2.3978,0.154059 5.93488,0.398829 7.86017,0.543939 l 3.50052,0.263832 0.11479,8.767813 c 0.0977,7.459035 0.21004,8.767808 0.7528,8.767808 0.55421,0 0.65261,-2.164317 0.74932,-16.48157 l 0.11133,-16.48157 5.41797,-0.0063 c 3.02506,-0.0035 8.75236,0.4042 12.9676,0.923078 l 7.54962,0.929331 0,31.985266 0,31.985259 -2.02032,0.24846 c -1.11118,0.13666 -7.23594,0.77252 -13.61059,1.41303 l -11.59026,1.16456 -4.2e-4,15.33601 -4.2e-4,15.33601 7.23104,-0.14219 7.23105,-0.14218 0,8.67775 0,8.67776 -7.54963,2.00369 c -7.445,1.97593 -7.6395,2.00353 -14.03591,1.99137 l -6.4863,-0.0123 3e-4,-7.12429 3e-4,-7.12429 -8.71958,0.14413 -8.71958,0.14415 0,-7.69377 0,-7.69376 -1.16966,0.028 c -0.64331,0.0154 -16.48157,2.45774 -35.19613,5.42743 l -34.02646,5.39944 -0.11313,11.29168 -0.11312,11.29167 -11.58347,2.46413 c -6.37092,1.35528 -12.87542,2.75249 -14.45446,3.10493 l -2.870983,0.64079 0,12.41473 0,12.41472 -17.757562,4.77342 -17.757561,4.77342 -11.3776,-0.008 -11.377599,-0.008 0,-13.79459 z m 44.234405,7.21697 12.97259,-3.49117 0.212665,-12.50756 0.212666,-12.50755 13.185259,-2.80023 c 7.25189,-1.54012 13.7116,-2.93273 14.35491,-3.09469 l 1.16966,-0.29448 0,-11.22473 0,-11.22474 3.08365,-0.52289 c 1.69601,-0.28759 17.91706,-2.86477 36.04679,-5.72707 23.53036,-3.71495 33.05256,-5.06731 33.27562,-4.72585 0.17187,0.26309 0.31542,3.80233 0.319,7.86497 l 0.007,7.38662 8.50661,-0.16743 8.50662,-0.16742 0,7.13572 0,7.13572 6.27363,-0.01 c 6.04796,-0.009 6.51842,-0.0759 13.07892,-1.84723 l 6.80529,-1.83741 0.11594,-7.99447 0.11593,-7.99447 -7.24022,0.20902 -7.24023,0.20902 0,-16.09173 0,-16.09173 0.957,-0.19951 c 0.52634,-0.10973 6.02906,-0.69144 12.22826,-1.2927 6.19919,-0.60126 11.89331,-1.1937 12.65359,-1.31653 l 1.38232,-0.22333 0,-31.24254 c 0,-17.1834 -0.14355,-31.249478 -0.31899,-31.257951 -0.17545,-0.0085 -2.99859,-0.34342 -6.27363,-0.744329 -3.77891,-0.462585 -8.09151,-0.68166 -11.80293,-0.599572 l -5.8483,0.129348 0,16.139557 0,16.139553 -1.70133,0 -1.70132,0 0,-8.664342 0,-8.664347 -2.44565,-0.251238 c -1.34511,-0.138177 -4.45534,-0.364471 -6.91163,-0.502869 -7.17166,-0.404081 -6.37996,0.697041 -6.37996,-8.873409 l 0,-8.225442 8.08129,0.211885 8.08128,0.211887 0,-8.345475 c 0,-8.30747 -0.004,-8.346451 -0.95699,-8.559931 -0.52635,-0.11795 -4.01938,-0.743643 -7.76229,-1.390428 -5.85943,-1.012524 -7.73506,-1.158316 -13.49474,-1.048936 l -6.68944,0.127041 -0.11585,7.741583 -0.11584,7.741584 -2.12666,0.04458 c -1.16966,0.02452 -5.33258,0.07237 -9.25094,0.106333 l -7.1243,0.06175 0,8.519963 c 0,6.423823 -0.1308,8.570064 -0.53166,8.723587 -0.29241,0.11199 -6.75213,-0.228968 -14.35491,-0.75768 L 150.77977,53.37902 150.56711,42.745749 150.35444,32.112478 138.44518,30.546649 c -6.55009,-0.861206 -12.14538,-1.578952 -12.43398,-1.59499 -0.39927,-0.02219 -0.5518,-2.748314 -0.638,-11.40271 L 125.25993,6.175401 111.01134,3.6193641 96.762761,1.0633271 86.448488,1.1843872 76.134216,1.3054474 l 0,11.8945366 c 0,10.464729 0.07932,11.894536 0.659888,11.894536 0.362935,0 7.195151,0.765595 15.182703,1.701323 7.987551,0.935728 14.580963,1.701323 14.652023,1.701323 0.0711,0 0.1292,4.838512 0.1292,10.752249 l 0,10.752249 -15.099239,-0.169643 -15.099244,-0.169639 0,12.385255 0,12.38526 -4.193945,0 c -2.306667,0 -5.08195,-0.121717 -6.167297,-0.270476 l -1.973352,-0.270481 0,-26.312697 c 0,-14.471986 -0.04785,-26.313769 -0.106332,-26.315076 -0.05848,-0.0013 -8.431827,-1.054 -18.607428,-2.339319 L 27.0101,16.587903 l -12.867054,0 -12.8670536,0 0,56.981768 0,56.981769 12.4409266,0.1189 12.440926,0.11889 24.432512,-2.45957 c 13.437881,-1.35276 24.682564,-2.36361 24.988186,-2.24633 0.448111,0.17196 0.555673,4.78515 0.555673,23.83244 0,12.99057 -0.05463,23.61921 -0.121402,23.61921 -0.201377,0 -34.04277,6.77121 -35.074723,7.01799 l -0.956994,0.22884 0,12.74488 0,12.74487 11.377599,0.11328 c 10.819893,0.10773 11.565238,0.0637 15.205577,-0.89827 2.105387,-0.55636 9.665643,-2.58259 16.800567,-4.50274 z m 42.53308,-115.067 0,-11.058602 4.04064,0 4.04065,0 0,10.79277 0,10.79277 -1.32916,0.265832 c -0.73104,0.146207 -2.54933,0.265832 -4.04064,0.265832 l -2.71149,0 0,-11.058602 z m 6.27363,9.786305 0.957,-0.0038 0,-9.995275 0,-9.995274 -3.18999,0 -3.18998,0 0,10.267184 0,10.267185 2.23299,-0.268214 c 1.22814,-0.147517 2.66363,-0.269877 3.18998,-0.27191 z m 61.22542,-1.550016 c -0.16323,-0.163229 -0.29678,-4.389959 -0.29678,-9.392734 l 0,-9.095951 2.23299,0.12856 2.23298,0.128561 0.1148,9.03828 0.11479,9.038281 -1.46233,0 c -0.80428,0 -1.72723,0.101649 -2.051,0.225893 -0.32377,0.124239 -0.72222,0.09234 -0.88545,-0.07089 z m 3.10587,-9.299616 0,-8.293952 -1.276,0 -1.27599,0 0,8.293952 0,8.293951 1.27599,0 1.276,0 0,-8.293951 z"
       style="fill-opacity:1"
       inkscape:connector-curvature="0" />
    <path
       id="path3358"
       d="m 39.130435,193.7382 c 0,-7.60279 0.143549,-13.83255 0.318998,-13.84391 0.175449,-0.0114 8.166352,-1.59954 17.757562,-3.52931 l 17.438563,-3.50866 0.109995,-23.05386 c 0.08024,-16.81783 -0.01905,-23.05387 -0.367069,-23.05387 -0.262391,0 -10.803824,1.05269 -23.425414,2.33932 -22.794489,2.32363 -23.04226,2.33932 -36.955708,2.33932 L 0,131.42723 0,73.582235 0,15.737241 l 13.078923,-0.0065 13.078922,-0.0065 19.458885,2.422848 19.458885,2.422848 0,26.506167 0,26.506163 5.316635,0 5.316635,0 0,-12.38526 0,-12.385255 15.099244,0.169639 15.099241,0.169643 0,-9.84489 0,-9.84489 -3.50898,-0.442483 c -1.92993,-0.243365 -8.915993,-1.071728 -15.524571,-1.840806 l -12.015595,-1.398324 0,-12.889805 0,-12.889804 10.271709,0 10.27171,0 15.248817,2.7646505 c 8.38685,1.5205577 15.34109,2.7646504 15.45386,2.7646504 0.11277,0 0.25601,5.1199201 0.31832,11.3776001 l 0.11328,11.3776 12.12193,1.562341 c 6.66706,0.859287 12.26547,1.577033 12.44092,1.594991 0.17545,0.01796 0.319,4.817621 0.319,10.66592 l 0,10.633271 1.16966,0.008 c 0.64331,0.0044 6.33743,0.385354 12.65359,0.846646 6.31616,0.461289 11.81888,0.840514 12.22826,0.842725 0.68551,0.0038 0.74433,-0.705568 0.74433,-8.974753 l 0,-8.978767 9.35728,0.1559 9.35728,0.155899 0,-7.9777 0,-7.977717 6.69896,-0.0081 c 5.88867,-0.0071 7.76649,0.183339 15.52457,1.574451 l 8.82562,1.582533 0,9.091959 0,9.091959 -8.08172,-0.139472 -8.08172,-0.139472 4.2e-4,7.481289 4.3e-4,7.481284 7.12429,0.499428 c 3.91836,0.274687 7.45536,0.496837 7.85999,0.493668 0.67027,-0.0052 0.74592,0.779202 0.85066,8.819852 0.0978,7.510343 0.21004,8.825615 0.75296,8.825615 0.55422,0 0.65262,-2.164317 0.74932,-16.48157 l 0.11133,-16.48157 5.41797,-0.0063 c 3.02506,-0.0035 8.75236,0.4042 12.9676,0.923078 l 7.54962,0.929331 0,32.040062 c 2e-5,20.705139 -0.14788,32.040056 -0.41804,32.040056 -0.22994,0 -6.00678,0.5742 -12.83743,1.276 -6.83065,0.70179 -12.76728,1.27599 -13.19252,1.27599 -0.7331,0 -0.77318,0.79887 -0.77358,15.41824 l -4.2e-4,15.41825 7.23104,-0.14219 7.23105,-0.14218 0,8.66302 0,8.66302 -7.54963,2.01417 c -7.44976,1.98754 -7.63541,2.01408 -14.03591,2.0061 l -6.4863,-0.008 1e-4,-7.12429 9e-5,-7.12429 -8.70983,0.14984 -8.70983,0.14985 -0.11588,-7.82196 -0.11588,-7.82195 -35.08979,5.54546 -35.08979,5.54545 -0.11314,11.30055 -0.11313,11.30055 -11.58346,2.44523 c -6.37091,1.34487 -12.87541,2.73467 -14.45445,3.08845 l -2.870983,0.64324 0,12.2754 c 0,6.77411 -0.170775,12.38094 -0.381062,12.51091 -0.209586,0.12953 -8.168802,2.34191 -17.687153,4.9164 l -17.306085,4.6809 -11.448013,0 -11.448009,0 0,-13.82325 z m 40.193762,8.37506 17.013233,-4.59497 0.212665,-12.49043 0.212666,-12.49043 14.248579,-3.04319 14.24859,-3.04319 0.11327,-11.34461 c 0.0623,-6.23954 0.25371,-11.35083 0.42533,-11.35843 0.17163,-0.008 16.38956,-2.55688 36.03985,-5.66508 l 35.72778,-5.65126 0.11585,7.82664 0.11584,7.82664 8.60344,-0.11642 8.60344,-0.11642 0.11662,7.09947 0.11661,7.09947 6.27769,0 c 5.99382,0 6.56551,-0.0775 12.6433,-1.71299 3.5011,-0.94215 6.70057,-1.81635 7.10996,-1.94266 0.67387,-0.20791 0.74432,-0.97632 0.74432,-8.11785 l 0,-7.8882 -7.44328,0.16232 -7.44329,0.16233 0,-16.04472 0,-16.04471 1.38232,-0.22549 c 0.76028,-0.12401 6.4544,-0.71734 12.65359,-1.31849 6.1992,-0.60115 11.70192,-1.1819 12.22826,-1.29055 l 0.957,-0.19754 0,-31.234445 0,-31.234438 -1.38233,-0.230866 c -5.3199,-0.888473 -12.39623,-1.509005 -17.20823,-1.509005 l -5.6533,0 0,16.375237 0,16.375237 -1.70132,0 -1.70132,0 0,-8.679369 0,-8.679369 -2.02033,-0.240878 c -1.11117,-0.132477 -4.12571,-0.35288 -6.69896,-0.489777 -2.57325,-0.136897 -5.20498,-0.348767 -5.8483,-0.470828 l -1.16965,-0.221925 0,-8.170133 0,-8.170129 8.08128,0.17382 8.08129,0.17382 0,-8.337028 c 0,-8.294449 -0.005,-8.338197 -0.957,-8.565869 -0.52635,-0.125862 -4.10778,-0.799405 -7.95874,-1.496762 -5.84148,-1.057813 -8.11451,-1.26792 -13.71692,-1.26792 l -6.71517,0 7e-5,7.974953 7e-5,7.974953 -9.25102,0 -9.25101,0 -0.11514,8.883448 -0.11513,8.883451 -2.64952,-0.251626 c -1.45723,-0.13839 -7.43448,-0.560841 -13.28278,-0.938773 -5.8483,-0.377932 -11.06392,-0.772873 -11.59027,-0.87764 l -0.95699,-0.190489 0,-10.55134 0,-10.551334 -9.46361,-1.166007 c -5.20499,-0.641303 -10.85125,-1.36769 -12.54726,-1.614193 l -3.08365,-0.448187 0,-11.330775 0,-11.3307752 L 110.47968,3.4857787 95.486768,0.81401841 85.70416,0.93867275 75.921551,1.0633271 75.808596,13.078923 c -0.07804,8.300683 0.02735,12.015597 0.340885,12.015597 0.249614,0 6.989113,0.765595 14.976664,1.701323 7.987551,0.935728 14.772365,1.701323 15.077355,1.701323 0.44118,0 0.55454,2.195268 0.55459,10.739604 l 4e-5,10.739604 -15.099288,-0.150716 -15.099295,-0.150712 0,12.378973 0,12.378978 -2.020321,-0.0021 c -1.111177,-0.0013 -3.886461,-0.125778 -6.167297,-0.276818 l -4.146976,-0.274615 0,-26.287087 0,-26.28709 -1.382325,-0.236499 C 62.082349,20.938587 53.772593,19.87722 44.376504,18.710068 l -17.083799,-2.122165 -13.221022,0 -13.22102137,0 0,56.981951 0,56.981956 12.65359137,0.11871 12.653592,0.11871 24.243857,-2.43261 c 13.334121,-1.33794 24.483105,-2.43848 24.77552,-2.44565 0.419155,-0.0103 0.531663,5.02727 0.531663,23.80549 0,13.10019 -0.143549,23.82782 -0.318998,23.83918 -0.175449,0.0113 -8.166351,1.5995 -17.757561,3.52921 l -17.438564,3.50856 -0.112548,12.83204 -0.112549,12.83203 4.791189,0.13574 c 2.63515,0.0746 7.662169,0.17607 11.171148,0.22537 l 6.379963,0.0896 17.013232,-4.59496 z M 126.18148,96.691876 c -0.15596,-0.155952 -0.28356,-5.139506 -0.28356,-11.07456 l 0,-10.791009 3.93431,0.122291 3.93431,0.122295 0.11351,10.679509 0.11351,10.679509 -2.24016,0.269064 c -2.92034,0.350758 -5.21699,0.347831 -5.57192,-0.0071 z m 4.71408,-0.842712 2.23299,-0.268214 0,-9.93603 0,-9.93603 -3.18999,0 -3.18998,0 0,10.20794 0,10.20794 0.957,-0.0038 c 0.52634,-0.0021 1.96184,-0.124392 3.18998,-0.27191 z m 62.20463,-11.017889 0,-9.166841 2.23299,0.12856 2.23298,0.128561 0.1148,9.03828 0.11479,9.038281 -2.34778,0 -2.34778,0 0,-9.166841 z m 3.40265,0.02224 0,-8.293952 -1.276,0 -1.27599,0 0,8.293952 0,8.293951 1.27599,0 1.276,0 0,-8.293951 z"
       style="fill-opacity:1"
       inkscape:connector-curvature="0" />
  </g>
</svg>
