<svg xmlns="http://www.w3.org/2000/svg" width="371.54276" height="353.97552">
  <path fill="#dedfde" d="M120.13413985 105.9971575l-.015-.0075c-.06625-.03875-.3625-.2-.87125-.4775h-.00375c-.53125-.285-1.29375-.6975-2.27125-1.21375 0 0-.00375 0-.00375-.00375-.00375 0-.00375-.00375-.0075-.00375-.655-.34625-1.40625-.7425-2.245-1.1775-.28125-.14625-.57-.2975-.87125-.455-1.105-.57375-2.3375-1.20875-3.69625-1.895-.25-.13-.5-.2575-.75875-.38875-.1225-.06125-.25-.12625-.3775-.1925-.51625-.26125-1.05125-.5275-1.5975-.805-.4125-.20375-.83625-.415-1.26375-.6275-.63875-.31875-1.29375-.64625-1.97125-.98125-.2275-.1125-.45875-.2275-.6925-.33875-1.14375-.56625-2.3375-1.1475-3.57375-1.745-.01625-.0075-.03125-.015-.04625-.0225-.48125-.235-.97125-.47-1.46375-.705-.01875-.0075-.03875-.01875-.0575-.0275-.7475-.36125-1.51-.72375-2.2875-1.09375-.55875-.265-1.12875-.535-1.71-.8075-2.145-1.01375-4.3975-2.0575-6.735-3.12-.35-.16125-.70375-.32375-1.0625-.48125-.84375-.385-1.6975-.77-2.565-1.155-.36875-.17-.74625-.335-1.1275-.505-.55125-.24625-1.10875-.4925-1.67125-.7425-.70875-.3125-1.42875-.6275-2.1525-.94375-.55875-.2425-1.12125-.485-1.6875-.73125-5.26-2.2725-10.8125-4.57125-16.55-6.80875-.6275-.24625-1.25875-.48875-1.895-.735-.52375-.2-1.05125-.405-1.5825-.605-.8275-.315-1.66-.63125-2.495-.93875-.98625-.37-1.97875-.73625-2.97625-1.1025-.89375-.32625-1.79125-.65-2.68875-.96625-.2075-.07625-.41875-.15-.635-.22625-2.09875-.7475-4.20875-1.475-6.33-2.18375h-.005c-.36875-.1275-.7425-.25-1.11625-.37375-13.75875-4.55125-27.81375-8.24-40.795-9.97-.11125-.5075-.10375-1.0775.0425-1.72125.95125-4.20875 3.57375-7.33125 6.78125-9.96125 11.16-9.14625 24.25625-14.6375 37.5675-19.68875 17.84125-6.77 36.1625-11.91875 54.71625-16.305 10.235-2.42125 20.5475-4.49 30.89375-6.37625 7.2625-1.325 14.56-2.5375 21.88875-3.42375 6.13-.7425 12.25625-1.56375 18.42125-2.09125 8.27125-.7075 16.53875-1.26625 24.84125-1.59 4.54375-.1775 9.1-.4075 13.62-.2 7.39.3425 14.78375.685 22.1575 1.37125 4.825.44625 9.66875.75375 14.4825 1.29375 5.75375.6425 11.48 1.52875 17.19 2.53375 7.3325 1.28625 14.47875 3.1575 21.38 5.915 5.125 2.0475 9.915 4.75875 14.44 7.92375 1.105.775 1.55875 1.9875 1.9825 3.21625 2.3725 6.8275 3.95875 13.87375 5.6575 20.8825 1.59 6.56875 3.0575 13.17 4.55875 19.7625.1275.55375.27 1.5325.3125 2.10625-.02375-.01625-.0425-.0275-.06625-.03875-1.24375-.77375-2.51375-1.61-3.7925-2.4575-5.14875-3.2075-10.5325-6.08375-16.11125-8.59375-17.0125-7.65625-35.88125-11.91125-55.74375-11.91125-14.8675 0-29.1775 2.38375-42.56625 6.7925-.35875.12-.72.23875-1.07875.35875-19.8 6.70375-37.55625 17.84-52.085 32.235-7.44375 7.37-14.04375 15.59875-19.635 24.525m71.74736875 247.80375c-6.55-.1-13.1075-.6975-19.65-1.355-5.19875-.52375-10.40125-1.02125-15.585-1.66375-5.56-.69375-11.1125-1.47875-16.6425-2.38375-8.92625-1.45625-17.82875-3.03875-26.68125-4.90625-11.17875-2.35625-22.28125-5.0175-33.30625-8.00875-7.58875-2.05625-15.12125-4.3175-22.5725-6.80125-8.5525-2.85375-17.0475-5.89125-25.26125-9.6575-6.935-3.18125-13.84-6.4075-20.10125-10.82375-4.30875-3.035-8.37125-6.3425-10.92375-11.10625-.54375-1.0125-1.00125-2.0875-.855-3.29625-.08125-.165-.1425-.3275-.19625-.4775.735-.0925 1.475-.1925 2.2175-.29625.79375-.1125 1.59-.2275 2.3875-.35125 1.075-.16875 2.1525-.34625 3.235-.535.08875-.015.1775-.03.265-.04625.73625-.13 1.475-.265 2.21875-.40375.6925-.13125 1.39-.26625 2.0875-.405 46.24375-9.16875 98.725-36.04625 106.71875-40.22875-.00375-.0075-.00375-.015-.0075-.0225.405-.2125.755-.3925 1.04375-.54375 12.90375 20.51 31.1375 37.33375 52.75125 48.5275 8.245 4.27125 16.97875 7.72125 26.10125 10.24375.04625.015.09625.02625.14625.0375 11.5325 3.18125 23.68125 4.88 36.2275 4.88 2.56875 0 5.1175-.07 7.6475-.21625h.01125c.14625-.00375.2925-.01125.44-.0225h.0075c4.74-.2775 9.415-.7975 14.0125-1.5525h.00375c.015 0 .03125-.00375.04625-.0075h.00375c19.5925-3.21125 37.77625-10.60875 53.6025-21.245-.23875.54375-.5625 1.055-1.02 1.52125-.52375 4.64-1.77875 9.13-2.8075 13.66625-1.71 7.5325-3.8975 14.9525-5.61875 22.47375-1.17 5.1175-4.73625 7.505-8.7875 9.86875-8.69 5.07125-18.1675 7.8175-27.91375 9.8125-7.74375 1.58625-15.58375 2.58375-23.43125 3.42625-5.57625.60125-11.21.67375-16.79375 1.25125-10.99375 1.14375-22.015.8125-33.02.6475"/>
  <path fill="#a7a8a8" d="M236.8737586 242.9454075c-14.31-.25375-27.08625-5.02125-38.23-13.97875-11.25625-9.04875-18.8725-20.59375-22.1725-34.66-4.55625-19.4125-1.08625-37.48375 10.785-53.5525 10.00125-13.54 23.5475-21.79875 40.17125-24.85625 4.225-.77875 8.4875-1.10125 12.78125-1.10125 36.775.00375 73.54875.00375 110.32375-.005h.11625c.6775 0 1.99.01625 2.99125.02.04625.07625.085.15375.1275.23125.435.8125.85875 1.62875 1.27 2.44875-12.12125-.01125-28.24125-.0075-40.205-.0075-25.0225 0-50.04125-.02-75.0625.01125-10.605.01125-20.71 2.245-30.075 7.3275-10.56625 5.72625-18.78 13.855-24.69875 24.3525-6.1375 10.89375-8.49125 22.63125-7.505 34.9575 1.07875 13.48125 6.23375 25.365 15.24875 35.53125 9.3925 10.58875 21.09875 17.07 34.94625 19.7225 3.0725.59 6.18375.9675 9.3375.9325 5.8375-.0575 11.6875.185 17.51-.11125 8.7175-.4475 17.44.02625 26.1425-.385 8.525-.405 17.055.0225 25.56125-.38125 8.845-.42375 17.6975.01875 26.5275-.40125 5.94625-.285 16.15375-.135 22.2925-.29625-.455.905-.925 1.80625-1.40625 2.7h-3.31875c-4.68625-.00875-9.38-.17375-14.055.07625-8.9725.48125-17.95625-.01125-26.92125.405-8.39875.38875-16.8-.0275-25.1875.36875-8.84875.42-17.7025-.015-26.535.405-6.92375.3275-13.8475.37-20.76.24625m-236.75611875 50.337c0-.01125-.00375-.01875-.00375-.02625-.32375-1.01375.03125-1.7025 1.2125-2.4 6.52375-3.82375 13.6325-6.19125 20.76-8.4825 8.88375-2.85375 17.8825-5.38375 27.04375-7.12375 3.22625-.61625 4.34375-2.19875 5.06375-5.04875 2.695-10.7125 5.06375-21.49875 6.8275-32.39625 1.20125-7.425 2.1675-14.89125 2.84875-22.38875.59375-6.485 1.19875-12.96125 1.56375-19.46875.35875-6.38875.59375-12.785.62-19.17375.0275-7.0925-.26875-14.20125-.7625-21.2825-.5575-8.07875-1.28625-16.1575-2.30625-24.19125-1.69-13.35375-3.83125-26.63875-7.0625-39.7275-.80875-3.285-1.77125-6.53875-2.42625-9.85-.04625-.22-.1-.42-.165-.60125l-8.59125-3.19625c-10.1125-2.31375-20.15125-4.92125-29.98625-8.2825-4.2425-1.4525-8.375-3.185-12.22125-5.54125-1.17875-.72-2.0025-1.56375-2.24125-2.7 12.98 1.72875 27.03625 5.41875 40.795 9.97.3725.12375.7425.24625 1.11625.37375h.00375c2.12125.70875 4.2325 1.43625 6.33125 2.1825.215.0775.42625.15125.635.2275.90125.32 1.79375.64375 2.6875.96625.9975.36625 1.99125.7325 2.97625 1.10125.83625.3125 1.6675.625 2.49625.94.53125.2 1.05875.405 1.5825.605.635.24625 1.2625.48875 1.89375.735 5.73875 2.2375 11.29125 4.53625 16.55125 6.80875.56625.24625 1.1275.48875 1.68625.73125.72375.31625 1.44375.63125 2.1525.94375.5625.25 1.12125.49625 1.67125.7425.38125.17.75875.335 1.12875.505.86625.385 1.72125.77 2.565 1.155.3575.1575.71125.32 1.0625.48125 1.16625.53125 2.31375 1.05875 3.43875 1.57875.28125.13125.56125.2625.83875.38875.555.2625 1.105.51625 1.64875.77.26875.1275.53875.255.80875.38125.58125.27375 1.15125.54375 1.71.80875.7775.37 1.54.73625 2.28625 1.09375.02.0075.03875.02.05875.0275.4925.23875.98125.47375 1.4625.705.01625.0075.03125.015.04625.0225 1.23625.60125 2.43 1.1825 3.57375 1.745.235.11125.46625.22625.69375.33875.67375.335 1.33125.6625 1.97125.98125.4275.2125.85125.42375 1.2625.6275.5475.2775 1.0825.5475 1.59875.805.12625.06625.25375.13125.3775.1925.2575.13125.51125.2625.7575.38875 1.36.68625 2.5925 1.32125 3.6975 1.895.3.1575.58875.30875.87.455.84.435 1.59.83125 2.245 1.1775.00375 0 .00375.00375.0075.00375 0 .00375.00375.00375.00375.00375.97875.51625 1.74125.92875 2.2725 1.21375h.00375c.50875.2775.805.43875.87.4775l.015.0075c-.45.71625-.8925 1.44-1.3275 2.1675-2.015-1.05875-31.165-16.3225-60.33-26.59625 0 0 11.87125 50.5675 11.9375 94.91625l-.1125-.16125c0 44.4375-11.9375 97.6625-11.9375 97.6625 29.0925-10.24625 58.29-24.795 60.44625-25.87625.48125.8.96625 1.59 1.4625 2.37875-.28875.15125-.63875.33125-1.0425.54375-10.80625 5.595-61.99375 31.33375-106.7125 40.25125-.6975.13875-1.39375.27375-2.0875.405-.7425.13875-1.4825.27375-2.2175.40375-.08875.01625-.1775.03125-.26625.04625-1.0825.18875-2.16.36625-3.235.535-.79625.12375-1.59375.24-2.3875.35125-.7425.10375-1.4825.20375-2.2175.29625"/>
  <path fill="#e4e5e4" d="M70.31313985 176.2849075l.11125.16125c-.065-44.34875-11.9375-94.91625-11.9375-94.91625 29.16625 10.27375 58.31625 25.5375 60.33 26.59625-.26875.45125-.53875.90125-.8 1.35625-8.27625 14.13625-14.07125 29.89625-16.79 46.69l1.42125.62375.48875.21125c-.0725.47375-.14625.95125-.215 1.42875-.0425.285-.085.57375-.12375.85875-.0075.055-.015.105-.02375.155-.06875.5-.13375 1.00125-.2 1.505-.08375.65125-.16125 1.305-.235 1.96-.06875.61625-.13375 1.2325-.19625 1.84875-.0075.09625-.01875.19625-.02625.2925-.05875.6-.1125 1.20125-.1625 1.80625-.6425-.36625-1.28625-.7275-1.93625-1.07875-3.72375-2.04125-7.54375-3.9125-11.4025-5.73375-2.27625-1.07-3.02625-.72375-3.17625 1.7875-.31625 5.425-.92125 10.83875-.7975 16.28375-.13875 5.51125.5125 10.98625.7975 16.4775.12625 2.39125.88875 2.77625 3.07625 1.89125 3.9775-1.61375 7.825-3.45375 11.55625-5.495.64625-.35375 1.29375-.71625 1.9325-1.0825.09625 1.10875.20875 2.21875.33125 3.32.0425.39625.08875.78875.13875 1.18625.12.99625.255 1.99.3975 2.98.045.32.09125.635.14125.955.01625.11875.035.2425.055.3625l-.57375.25-1.34.585c2.6525 16.755 8.3675 32.49625 16.55 46.625.36625.635.73875 1.2675 1.11625 1.895-2.15625 1.08125-31.3525 15.63-60.445 25.87625 0 0 11.9375-53.225 11.9375-97.6625"/>
  <path fill="#a7a8a8" d="M235.4990086 314.1766575c-12.54625 0-24.695-1.69875-36.2275-4.87875-.05-.01125-.1-.02375-.14625-.03875-9.1225-2.5225-17.85625-5.9725-26.10125-10.2425-21.61375-11.195-39.8475-28.01875-52.75125-48.5275-9.565-15.2025-16.2075-32.435-19.13-50.9l1.34-.585.57375-.25c.27625 1.79875.5925 3.585.93875 5.36.105.535.2125 1.07125.3275 1.60625.135.65875.2775 1.31625.4275 1.97125.06625.3.135.60125.20375.90125.0275.115.055.23125.08125.3425.1275.54625.2625 1.09.39625 1.63625.11625.4625.23125.925.35125 1.38625.065.25125.135.505.2.755.06125.23875.1275.47375.1925.7125.16125.60125.3275 1.1975.5 1.79.10125.3475.20125.69375.305 1.04.13875.47.2775.94.42375 1.40625.12625.41125.25375.82375.38875 1.23125.1725.55125.35 1.0975.535 1.645.13125.3925.2625.78875.4 1.1825.3275.95875.66625 1.91375 1.02125 2.865.1575.435.32375.87375.48875 1.30875.0075.01875.015.03875.0225.0575.17375.45125.3475.905.52875 1.35625.1875.48125.38125.9625.5775 1.44.06125.15375.1225.30375.18375.45375.1125.26625.22.53125.335.7975.185.44625.3775.89375.57 1.33625.18125.42375.36625.84375.55125 1.2625.45 1.005.90875 1.99875 1.37875 2.98875.28125.5925.56625 1.18625.85875 1.77125.28875.58875.58125 1.175.88125 1.76.2.38875.40125.7775.605 1.1625.11125.21625.22375.43125.33875.64375.01125.0225.0225.04625.03875.06875.13125.25.265.50125.4.75125 1.43625 2.66 2.96125 5.2675 4.57125 7.81625.13875.22.2775.43625.41625.65125.28.44625.57.89375.8625 1.3325.3925.60125.78875 1.1975 1.19375 1.79.0375.05875.07625.1125.115.17.1425.21125.28875.4275.43875.63875.14625.21625.2925.4275.4425.64.2475.3575.4975.7125.75125 1.0625.50125.70875 1.0125 1.40875 1.5325 2.10625.185.25375.37375.505.5625.755.035.05.07375.09625.11125.14625.13125.1775.26625.35.40125.5275.16125.215.3275.43125.49625.6475.5275.68125 1.05875 1.35875 1.59875 2.02875l.01125.01125c.5425.6775 1.09375 1.3475 1.6475 2.01.2775.335.55875.66625.84.99375.29625.34625.5925.69375.89 1.03625.2725.31125.5425.62.81625.92375.4575.52.92 1.0325 1.38625 1.54.29625.3275.59625.65125.90125.975.18.19625.365.3925.55.58875.78625.83125 1.5825 1.6525 2.3875 2.465l.11125.11125c9.5775 9.61125 20.60625 17.7825 32.7275 24.1475 8.50625 4.4675 17.55625 8.0525 27.025 10.62125 11.2175 3.05 23.02 4.675 35.20375 4.675 1.71 0 3.415-.03125 5.10625-.09625 6.665-.25125 13.20375-.98625 19.58875-2.17625 18.98-3.535 36.55125-11.0675 51.81125-21.7025 15.23375-10.605 28.16125-24.29875 37.87625-40.1675 1.3175-2.14875 2.57625-4.34 3.77-6.56875.48125-.89375.95125-1.795 1.40625-2.7 9.2525-18.19875 14.4625-38.79625 14.4625-60.61125 0-21.8225-5.2175-42.43125-14.4825-60.64125-.41125-.82-.835-1.63625-1.27-2.44875-.0425-.0775-.08125-.155-.1275-.23125-.00375-.0075-.0075-.01125-.01125-.02-.2775-.515-.555-1.0275-.84-1.53625-.18125-.335-.37-.66625-.55875-.9975-.1875-.33875-.38125-.6775-.5775-1.0125-.10375-.18125-.2075-.36125-.315-.5425-.22-.385-.4475-.77-.6825-1.155-.12625-.22-.26125-.44375-.39625-.6625-.33125-.555-.67-1.10875-1.0125-1.65625-.3575-.57375-.72-1.14375-1.09-1.71-.065-.1075-.135-.215-.20375-.31875-.35-.54375-.70875-1.08625-1.07125-1.62125-.4-.605-.8125-1.20125-1.2275-1.79875-.40875-.59625-.82875-1.19-1.25625-1.77875-.06875-.1-.14125-.20375-.2225-.30875-.23875-.335-.485-.67375-.73125-1.005-.305-.415-.61625-.83125-.92875-1.24375-.235-.315-.47375-.6275-.71625-.93875-.26125-.3475-.5275-.69-.80125-1.0325-.535-.685-1.0775-1.36375-1.62875-2.0375-.2725-.33875-.55-.67375-.83125-1.005-.27375-.335-.555-.67-.84-1.00125-.855-1.00875-1.725-2.00625-2.615-2.9875-.2725-.3125-.55375-.62-.83875-.92375-1.1125-1.2175-2.2525-2.415-3.41625-3.59-.365-.36875-.73125-.73875-1.105-1.105-.51125-.5075-1.0275-1.0125-1.55125-1.50875-.00375-.00375-.0075-.00875-.0075-.00875-.52-.5-1.04375-.9925-1.575-1.4825-.53125-.4925-1.0675-.98125-1.60625-1.4625-.53875-.485-1.0825-.96625-1.62875-1.44-.43875-.38125-.8775-.75875-1.32125-1.1325-.885-.75125-1.77875-1.48625-2.68375-2.21-.45-.36625-.905-.72375-1.3625-1.0825-8.43-6.5925-17.6675-12.19875-27.54125-16.63875-16.76625-7.5475-35.365-11.74875-54.94625-11.74875-8.915 0-17.625.87-26.05375 2.53375-25.68875 5.06-48.74 17.45875-66.88 34.92625-8.39125 8.075-15.73125 17.2325-21.79125 27.2475-.98625 1.62875-1.94125 3.28125-2.8575 4.95625-.15.26625-.2925.535-.43875.805-.1475.27-.28875.53875-.43125.80875-.2975.55875-.59 1.11625-.87875 1.67875-.285.55875-.57 1.12-.8475 1.68625-.23875.48125-.47375.9625-.70375 1.445-.12.24625-.23875.49625-.355.74625-.165.3425-.3275.69-.485 1.03625-.0725.15375-.14625.31125-.215.47-.17.365-.335.73125-.4975 1.0975-.5625 1.255-1.105 2.5175-1.625 3.79625-.135.3275-.26875.655-.39625.98625-.14625.35375-.28875.70875-.42375 1.06625-.30375.76625-.5975 1.54-.88125 2.31875-.085.21875-.16625.4425-.24375.66625-.485 1.32375-.94625 2.66-1.38625 4.0075-.2.60125-.3925 1.2025-.5775 1.80625-.10375.3275-.20375.65125-.3.97875-.0925.29625-.18125.58875-.265.885-.16625.55875-.33125 1.12125-.48625 1.68375-.04625.15-.08875.3-.12625.45-.0925.33125-.185.66625-.27375.9975-.52 1.92125-.99375 3.855-1.425 5.80625-.085.37375-.165.74375-.2425 1.1175-.015.06875-.03125.13875-.0425.2075-.04625.20375-.08875.40875-.12625.6125-.06625.3075-.13125.61625-.18875.92-.08125.39625-.15875.7975-.23125 1.19375-.02.09625-.03875.18875-.05375.285-.04625.25-.0925.50125-.13875.75125-.08125.4425-.1625.88875-.235 1.33625-.0925.5425-.185 1.085-.27 1.62875l-.48875-.2125v-.00375l-1.42125-.62c2.94625-18.2025 9.5075-35.19125 18.91875-50.21375 5.59125-8.92625 12.19125-17.155 19.635-24.525 14.52875-14.39375 32.285-25.53 52.085-32.235.35875-.11875.72125-.23875 1.07875-.3575 13.38875-4.41 27.69875-6.7925 42.56625-6.7925 19.8625 0 38.73125 4.255 55.74375 11.91 5.58 2.51 10.9625 5.3875 16.11125 8.595 1.27875.84625 2.54875 1.6825 3.7925 2.45625.02375.01125.0425.02375.06625.03875 36.385 24.4175 60.33 65.93625 60.33 113.04625 0 47.08375-23.9175 88.57875-60.265 112.9975l-.00375.00375c-15.82625 10.635-34.01 18.0325-53.6025 21.24375h-.00375c-.015.00375-.03125.0075-.04625.0075h-.00375c-4.5975.755-9.2725 1.275-14.0125 1.5525h-.0075c-.1475.01125-.29375.01875-.44.0225h-.01125c-2.53.1475-5.07875.21625-7.6475.21625"/>
  <path fill="#c1c3c2" d="M237.0238836 240.3191575c-3.15375.035-6.265-.3425-9.3375-.9325-13.8475-2.6525-25.55375-9.13375-34.94625-19.7225-9.015-10.16625-14.17125-22.05-15.24875-35.53125-.98625-12.32625 1.36625-24.06375 7.505-34.9575 5.91875-10.4975 14.1325-18.62625 24.69875-24.3525 9.365-5.0825 19.46875-7.31625 30.07375-7.3275 25.0225-.03125 50.04125-.01125 75.06375-.01125 11.96375 0 28.08375-.00375 40.205.0075 9.265 18.21 14.4825 38.81875 14.4825 60.64125 0 21.815-5.21 42.4125-14.4625 60.61125-6.13875.16125-16.34625.01125-22.2925.29625-8.83.42-17.6825-.0225-26.5275.40125-8.50625.40375-17.03625-.02375-25.56125.38125-8.7025.41125-17.425-.0625-26.14375.385-5.82125.29625-11.67125.05375-17.50875.11125"/>
  <path fill="#dedfde" d="M235.4990086 312.1550325c-37.10625 0-70.68875-15.08-94.95625-39.44375-19.55375-19.63125-33.0625-45.29625-37.48625-73.9575-.45125-2.90375-.805-5.84125-1.06375-8.8025 4.81-2.75 9.42375-5.8375 13.87125-9.21125 2.51375-1.91 2.43-2.34125.02625-4.34-4.37-3.63875-9.0675-6.7275-13.9475-9.5.27375-3.31875.67-6.6075 1.1825-9.85375 2.75375-17.42 8.865-33.725 17.64875-48.23 6.06-10.01625 13.4-19.17375 21.79125-27.24875 18.14-17.46625 41.19125-29.86625 66.88-34.92625 8.42875-1.66375 17.13875-2.53375 26.05375-2.53375 19.58125 0 38.18 4.20125 54.94625 11.74875 9.87375 4.44 19.11125 10.04625 27.54125 16.63875 14.62125 11.43 26.805 25.83125 35.6425 42.2975.00375.0075.0075.01125.01125.01875-1.00125-.00375-2.31375-.01875-2.9925-.01875h-.115c-36.775.0075-73.55.0075-110.32375.00375-4.29375 0-8.5575.32375-12.78125 1.10125-16.62375 3.0575-30.17 11.3175-40.17125 24.85625-11.87125 16.07-15.34125 34.14125-10.78625 53.5525 3.3 14.0675 10.9175 25.61125 22.17375 34.66125 11.14375 8.95625 23.92 13.72375 38.23 13.9775 6.91125.12375 13.835.08125 20.75875-.24625 8.83375-.42 17.6875.015 26.53625-.40375 8.38625-.3975 16.78875.01875 25.1875-.37 8.965-.41625 17.94875.07625 26.92125-.405 4.67375-.25 9.36875-.08375 14.055-.07625h3.31875c-1.19375 2.22875-2.4525 4.42-3.77 6.56875-23.55125 38.47375-65.97125 64.1425-114.3825 64.1425"/>
  <path fill="#a7a8a8" d="M85.42826485 178.1242825c.2425 4.655.51 9.31.71625 13.96625.13125 2.925.655 3.29125 3.365 2.22875 9.06625-3.555 17.2625-8.6325 25.10125-14.33375 1.4825-1.08 1.43125-1.5425.045-2.71-7.71375-6.49875-16.5575-11.0875-25.65-15.2675-2.02-.92875-2.65375-.67625-2.805 1.5775-.32375 4.8425-.5225 9.69375-.7725 14.53875m-.79625.03625c-.12625-5.44625.4775-10.86.79625-16.285.1475-2.51.90125-2.85875 3.17625-1.785 9.6325 4.54 19.03875 9.44125 27.2875 16.30875 2.40375 2 2.48625 2.43125-.03 4.34125-8.45375 6.41625-17.50625 11.7925-27.36 15.7875-2.185.885-2.94875.5-3.07375-1.89-.2875-5.49125-.935-10.96625-.79625-16.4775"/>
  <path fill="#c1c3c2" d="M85.42851485 178.1259075c.25-4.84625.44875-9.6975.7725-14.54.15125-2.25375.785-2.50625 2.805-1.5775 9.0925 4.18 17.93625 8.76875 25.65 15.2675 1.385 1.1675 1.4375 1.63-.045 2.70875-7.83875 5.7025-16.03625 10.77875-25.10125 14.335-2.71125 1.0625-3.235.695-3.365-2.22875-.2075-4.6575-.475-9.31125-.71625-13.965"/>
  <path fill="#a7a8a8" d="M297.5981336 178.5264075c0-10.52125-.17125-21.0475.08125-31.5625.10625-4.43125-3.675-8.115-8.02625-8.0725-18.73125.185-37.4675.18125-56.19875.00875-4.81875-.04375-8.0375 3.96875-8.0075 8.07625.155 21.0425.15875 42.08625 0 63.12875-.0325 4.36875 3.22 8.29125 8.315 8.27 18.605-.07625 37.21-.0875 55.815.015 4.18875.0225 8.19375-3.5025 8.09375-8.1075-.23-10.58125-.0725-21.17-.0725-31.75625m-34.8275 46.3625c-10.4575 0-20.915.00125-31.37375 0-4.94875-.00125-7.7075-2.24125-8.96125-6.9825-.9825-3.72-3.24-21.39375-3.11-39.0375.135-18.35125 2.6925-36.67125 3.4375-39.36875 1.19625-4.3275 3.955-6.61625 8.43375-6.625 21.23625-.04125 45.24375-.03375 66.48-.005 4.05625.005 8.9325 18.2775 8.9325 45.77 0 27.1875-5.105 46.24125-8.92375 46.245-10.71375.01125-24.2.00375-34.915.00375"/>
  <path fill="#c1c3c2" d="M227.3858961 178.6005325c0 10.01-.0025 20.02.00125 30.03125.00125 4.66125 2.83875 7.52875 7.54625 7.5325 17.77375.0175 35.54875.0175 53.32375 0 4.75375-.005 7.50125-2.79625 7.50375-7.58375.01-20.02.01125-40.04125-.00125-60.06125-.0025-4.6775-2.84875-7.58875-7.54875-7.5975-17.775-.03375-35.55-.03375-53.32375-.00125-4.6375.00875-7.4975 2.99875-7.5 7.64875-.005 10.01125-.00125 20.02125-.00125 30.03125m70.2125-.07375c0 10.585-.1575 21.175.0725 31.755.1 4.60625-3.905 8.13-8.09375 8.1075-18.605-.10125-37.21125-.09-55.81625-.01375-5.09375.02125-8.3475-3.90125-8.31375-8.27.15875-21.0425.155-42.0875 0-63.12875-.03-4.10875 3.18875-8.12125 8.00625-8.07625 18.7325.1725 37.4675.175 56.2-.00875 4.35125-.0425 8.1325 3.64125 8.02625 8.07125-.2525 10.51625-.08125 21.04125-.08125 31.56375"/>
  <path fill="#4a4a4c" d="M227.3858961 178.6005325c0-10.01-.00375-20.02.00125-30.03125.0025-4.65 2.8625-7.64 7.5-7.64875 17.77375-.0325 35.54875-.0325 53.32375.00125 4.7.00875 7.54625 2.92 7.54875 7.5975.0125 20.02.01125 40.04125.00125 60.06125-.0025 4.7875-2.75 7.57875-7.50375 7.58375-17.775.0175-35.55.0175-53.32375 0-4.7075-.00375-7.545-2.87125-7.54625-7.5325-.00375-10.01125-.00125-20.02125-.00125-30.03125"/>
  <path fill="#6d6d6d" d="M249.1700211 284.6055325c8.31875 0 15.06125 6.74375 15.06125 15.06125 0 8.31875-6.7425 15.0625-15.06125 15.0625s-15.06125-6.74375-15.06125-15.0625c0-8.3175 6.7425-15.06125 15.06125-15.06125"/>
  <path fill="#02aa46" d="M249.1700211 285.6941575c7.7175 0 13.97375 6.25625 13.97375 13.97375 0 7.71625-6.25625 13.9725-13.97375 13.9725-7.7175 0-13.97375-6.25625-13.97375-13.9725 0-7.7175 6.25625-13.97375 13.97375-13.97375"/>
  <path fill="#6d6d6d" d="M187.9456461 284.6055325c8.31875 0 15.06125 6.74375 15.06125 15.06125 0 8.31875-6.7425 15.0625-15.06125 15.0625s-15.06125-6.74375-15.06125-15.0625c0-8.3175 6.7425-15.06125 15.06125-15.06125"/>
  <path fill="#e23434" d="M187.9456461 285.6941575c7.7175 0 13.97375 6.25625 13.97375 13.97375 0 7.71625-6.25625 13.9725-13.97375 13.9725-7.7175 0-13.97375-6.25625-13.97375-13.9725 0-7.7175 6.25625-13.97375 13.97375-13.97375"/>
  <path fill="#6d6d6d" d="M218.4777586 252.7580325c8.31875 0 15.06125 6.74375 15.06125 15.06125 0 8.31875-6.7425 15.0625-15.06125 15.0625s-15.06125-6.74375-15.06125-15.0625c0-8.3175 6.7425-15.06125 15.06125-15.06125"/>
  <path fill="#f2e825" d="M218.4777586 253.7547825c7.7675 0 14.065 6.2975 14.065 14.065 0 7.7675-6.2975 14.065-14.065 14.065-7.7675 0-14.065-6.2975-14.065-14.065 0-7.7675 6.2975-14.065 14.065-14.065"/>
  <path fill="#6d6d6d" d="M218.4777586 315.4859075c8.31875 0 15.06125 6.74375 15.06125 15.06125 0 8.31875-6.7425 15.0625-15.06125 15.0625s-15.06125-6.74375-15.06125-15.0625c0-8.3175 6.7425-15.06125 15.06125-15.06125"/>
  <path fill="#3f6c9e" d="M218.4777586 316.8426575c7.56875 0 13.705 6.13625 13.705 13.705s-6.13625 13.705-13.705 13.705-13.705-6.13625-13.705-13.705 6.13625-13.705 13.705-13.705"/>
  <path fill="#e4e5e4" d="M250.6348836 6.7019075c22.6625 0 41.03375 18.37125 41.03375 41.03375 0 22.6625-18.37125 41.03375-41.03375 41.03375-22.6625 0-41.03375-18.37125-41.03375-41.03375 0-22.6625 18.37125-41.03375 41.03375-41.03375"/>
  <path fill="#a7a8a8" d="M250.6348836 19.3016575c15.70375 0 28.435 12.73 28.435 28.435 0 15.70375-12.73125 28.43375-28.435 28.43375s-28.435-12.73-28.435-28.43375c0-15.705 12.73125-28.435 28.435-28.435"/>
  <path fill="#c1c3c2" d="M250.6348836 23.4610325c13.40625 0 24.275 10.86875 24.275 24.275 0 13.40625-10.86875 24.275-24.275 24.275-13.40625 0-24.275-10.86875-24.275-24.275 0-13.40625 10.86875-24.275 24.275-24.275"/>
  <path fill="#dedfde" d="M330.6221336 207.4725325h-7.81125c-1.74625 0-3.175-1.42875-3.175-3.17375v-51.3175c0-1.74625 1.42875-3.175 3.175-3.175h7.81125c1.74625 0 3.17375 1.42875 3.17375 3.175v6.2675c0 1.565 1.26875 2.83375 2.835 2.83375h7.43375c9.26875 0 17.23625 7.1325 17.65625 16.39125.4475 9.87625-7.42125 18.00625-17.18625 18.00625h-7.90375c-1.56625 0-2.835 1.27-2.835 2.835v4.98375c0 1.745-1.4275 3.17375-3.17375 3.17375"/>
  <path d="M324.1237586 174.4070325c-.0225-.04625-.1375-.185-.1625-.23375-.0475-.185-.1175-.3025-.14-.4175-.02375-.13875-.045-.30375-.045-.44375 0-.2325.06875-.4175.1625-.56.09125-.16375.0475-.16375.21125-.28.13625-.0925.37125-.255.5575-.255.14125-.025.2575-.025.3975.0225.09375.02375.18625.07125.28.14.09375.0925.21.1875.30375.32625.07125.14.0925.2575.185.49.0475.11625.0725.28.095.5375.02125.1375.02125.4175.0675.5125.025.0925.025.1875.07375.25625.04625.07.07.16375.0925.21125.045.045.07.11625.18625.23125l-1.11875-.0225s-.4675-.0225-.72375-.1875c-.2825-.16375-.4225-.3275-.4225-.3275m3.73375-2.54c.115.255.18625.4425.25625.605.04625.165.09125.35.14.5825.0475.23375.07.3975.07.63125 0 .2325-.09125.515-.13875.7-.0475.16375-.23375.3025-.37375.3975-.11625.1175-.1875.13875-.3725.13875h-.1875c-.07-.0225-.0925-.07-.1625-.1175-.07-.0475-.14-.0925-.18625-.1625-.0475-.0475-.09375-.11875-.14-.1875-.0475-.09375-.07-.185-.1175-.28125-.04625-.0925-.02375-.2325-.07-.37-.07125-.4675-.0925-.84-.16375-1.05125-.06875-.21-.11625-.35-.1875-.49-.06875-.1625-.14-.2325-.255-.37375-.1175-.14-.21-.185-.3275-.25375-.115-.0725-.23375-.1425-.37125-.18875-.14125-.02375-.32625-.06875-.49-.06875-.28125 0-.515.045-.77.185-.2325.11625-.4425.35-.56125.6075-.11625.255-.255.5825-.255 1.05v.4425c.0225.14125.07.27875.11625.53875.09375.11625.18625.27875.32625.465.1625.16375.25625.2575.25625.2575h-.5825v1.0025c.42-.09375.46625-.13875.76875-.11625.515 0 1.635-.04625 2.24-.02375.6075 0 .4425-.02375.7-.02375.21 0 .56-.09375.745-.16375.1875-.07125.305-.1875.515-.30375.16375-.14.3975-.4675.4675-.72375.07125-.27875.11625-.4675.11625-.7675 0-.28125-.02375-.7-.045-1.00375-.04625-.28-.11875-.51375-.235-.91125-.30625 0-.56375 0-.725-.02125m-3.6628625 21.599875c-.025-.07-.14-.18625-.165-.25625-.045-.16375-.1175-.28-.14-.39625-.02125-.165-.045-.30375-.045-.44375 0-.2325.06875-.4425.16375-.5825.0925-.14125.04625-.14125.21-.2575.14-.1175.3725-.28.56-.28.13875 0 .2575 0 .3975.02375.0925.04625.18625.0725.27625.1625.095.095.21125.1875.3075.32875.06875.11625.09125.255.185.4875.045.095.07.28.09125.5375.025.1175.025.42.0725.515.0225.06875.04625.1625.07.2325.04625.0925.07.1625.0925.23125.0475.04625.0725.09375.18625.2125h-1.11875s-.4425-.025-.72375-.1875c-.2825-.165-.42-.3275-.42-.3275m3.7325-2.5425c.11625.2325.185.42.2575.5825.04625.16125.09125.3725.1375.5825.045.2325.07125.42.07125.63 0 .2325-.0925.53625-.14.69875-.0475.18625-.2325.305-.37375.42-.11625.1175-.23.1175-.4175.14125-.0725 0-.1175 0-.18625-.025-.07375-.02375-.0475-.0475-.11875-.09375-.06875-.04625-.13875-.09375-.18625-.16375-.045-.0475-.09125-.11625-.14-.21-.045-.07125-.07-.16375-.11625-.2575-.0475-.11625-.0225-.2325-.07-.37-.07125-.49125-.0925-.86375-.1625-1.05-.07125-.2125-.11875-.35125-.1875-.515-.07125-.14-.14-.23375-.25875-.3725-.11625-.14125-.185-.1875-.30125-.2575-.11625-.07-.2575-.1175-.3975-.165-.14-.045-.32625-.0925-.49-.0925-.27875.02375-.515.0475-.76875.1875-.2325.13875-.4425.35-.56.6075-.11625.2775-.2575.6075-.2575 1.07375v.4175c.025.165.07.3025.1175.535.0925.11875.1875.305.32375.4675.16625.1875.25875.28125.25875.28125h-.5825v1.00125c.41875-.09125.4675-.1375.77-.1375.51375.0225 1.6325-.025 2.2375-.025.6075.025.4425 0 .70125 0 .20875-.0225.56125-.09125.74375-.1625.18875-.07125.32875-.185.515-.32625.165-.11625.3975-.4425.46875-.7225.07-.25625.135-.4425.135-.745 0-.28125-.04375-.72375-.06625-1.005-.0475-.3025-.1175-.5125-.21-.91-.3275-.02-.5825.00375-.74625-.02m-4.6198875-14.184375l.395.11625 1.09875.025 3.15-.07c.28 0 .605-.16375.745-.16375 0 .16375.0475.5125.12.67375.045.1175.045.28125.045.39875h-.72375c.21.11625.23125.30125.35.3975.1175.06875.1175.16375.2325.325.09625.14125.09625.2325.14125.42.02375.23375.045.39625.045.60625 0 .14-.0225.28-.06875.42-.0225.14-.09375.2775-.16375.39625-.04625.11625-.14.2325-.21125.30125-.095.095-.14.18875-.3025.28125-.0475.02375.255.2325.41875.53625.16375.30375.305.65375.305 1.0275 0 .2325-.025.76875-.1175 1.00125-.09375.23375-.2125.56125-.37375.70125-.1625.14-.2325.185-.37375.3025-.1625.16375-.5825.2125-.745.2125-.18625 0-.4675.0225-.8175.0225h-2.5875c-.25625 0-.28.07-.56125.1175v-1.07375c.4425.13875.305.1175.56125.1175l2.355.02125c.3275 0 .51375 0 .77-.02125.2075 0 .4675-.07.5825-.1175.11625-.0475.35125-.2575.4425-.35.09375-.095.1175-.2325.16625-.37375.06875-.11625.06875-.35.06875-.51125 0-.11875-.0225-.305-.0475-.42125-.045-.0925-.07-.21-.13875-.305-.07-.09125-.09375-.185-.21-.27875-.09375-.07-.20875-.13875-.34875-.21-.12-.04625-.32875-.04625-.53875-.06875-.2325 0-.535.0225-.86125 0h-2.28625l-.515.1625v-1.12125c.4675 0 .0475.0725.5375.0725h3.19375c.1875-.02375.2575-.045.3975-.0725.1175-.045.30375-.115.395-.2075.12-.095.305-.305.35375-.445.06875-.11625.11625-.3025.11625-.46625 0-.18625-.025-.28125-.095-.44375-.07-.14-.0925-.27875-.2325-.395-.11625-.11875-.14125-.21125-.32375-.305-.1875-.07125-.14-.14-.4475-.1625-.30125-.0475-1.3975-.07125-2.14375-.07125-.44375.02375-.83875.02375-1.2125.02375-.2325 0-.325.1175-.53625.1175v-.53625c-.0025-.0925-.0025-.395-.0025-.60625m1.004125 13.2505c-.0725 0-.1875-.025-.35-.04625-.165-.025-.305-.07-.4675-.09375-.07-.2325-.14-.48875-.16375-.72125-.02375-.2125-.045-.81625-.045-1.005 0-.35.06875-.77125.16125-1.07375.11875-.3025.3275-.69875.5825-.9325.23375-.2325.49125-.515.86375-.63.37375-.11625.72375-.20875 1.11875-.20875.56125-.02375.7475.07 1.23625.20875.49.16375.86375.56125 1.14375.91.28125.37125.51375 1.21375.51375 1.84375 0 .4675-.07 1.025-.21 1.4925-.3275.02375-.5125.0475-.72375.0725.12-.3275.26-.63125.305-.8175.025-.21.07-.4675.07-.63 0-.3025-.14125-.90875-.255-1.1425-.12-.2325-.28125-.41875-.515-.58375-.21-.14-.51375-.2575-.81625-.325-.305-.07125-.32625-.0925-.6525-.07125-.42.02375-.79375.0925-1.12.21125-.30375.13875-.62875.35-.7925.6525-.1875.28125-.35125.63-.35125 1.00375 0 .3475.04625 1.09375.4675 1.88625m-.7929875 5.667625l.37125-.0925c.0475 0 .28-.0925.5375-.13875-.35.62875-.60625 1.28375-.60625 1.7725 0 .2325.09125.49.13875.6525.07.16375.1875.32625.325.42.11875.0725.2575.1625.375.1875.07125.0225.185.045.255.0225.07125-.0225.28-.0475.35125-.11625.07-.0475.23125-.23375.32625-.32625.06875-.09375.21-.35.35-.70125.1375-.325.27875-.77.41875-.93125.11875-.16625.28-.44375.42-.56125.14125-.11625.28-.1875.4175-.2575.1425-.045.3525 0 .5175-.02375.2325 0 .4675.14.675.28.23375.13875.35.3725.4675.6525.09.28125.165.6075.165.98125 0 .41875-.09625.81625-.1875 1.33125-.28125.02125-.49125-.04875-.72375-.025.2325-.3525.3725-.77125.3725-1.16625 0-.2125-.045-.42-.0925-.6075-.07125-.1875-.2325-.3725-.35-.4675-.11625-.07-.2125-.11625-.35-.11625-.09375 0-.2325.02375-.32625.06875-.07125.025-.3025.23375-.35.35125-.07125.16375-.0475.09375-.0925.2325-.02375.165-.2325.5375-.3975.90875-.185.39875-.41875.74875-.5375.86375-.1175.1175-.2775.2575-.56.35125-.14.07-.3025.09125-.41875.09125-.21 0-.2325-.04625-.3725-.04625-.2575.025-.35125-.045-.56-.18625-.2325-.1375-.4425-.3975-.56-.69875-.11625-.30375-.21125-.60625-.21125-.98 0-.16375-.0225-.51375 0-.7225.02375-.21.095-.3975.1175-.56125.0225-.13625.0225-.22875.095-.44125m.4673625 6.81225c-.1875-.04625-.2825-.09375-.5825-.1175-.0725-.2325-.095-.32625-.095-.46625-.0225-.11875.02375-.2575.02375-.375 0-.30125.025-.535.11625-.72.09375-.1875.21-.3275.39875-.42.185-.1175.6525-.18875.9775-.18875h.2125c.1175 0 .21-.02125.8375 0l2.42875-.02125v-.6775h.48875l.025.6775c.135.02125.605 0 .955 0 .165 0 .325-.095.42125-.165.06875.32625.21.795.25375 1.0025-.535 0-1.32875.0475-1.63.0475l-.025 1.4c-.23375-.0225-.32625 0-.53625.025l.0475-.3975v-1.0275l-3.05625-.02125h-.2575c-.28.02125-.62875.04375-.76875.11625-.14.045-.1875.1375-.2575.255-.0475.11625-.07125.23375-.07125.35v.305c-.00125.0925.02125.1625.09375.41875m.299625-31.79575c-.20875-.0225-.465-.09375-.79125-.11625-.0925-.325-.28-.84-.3275-1.0725-.0225-.2325-.0225-.46625-.0225-.69875 0-.42.0925-.84125.21-1.19125.1175-.325.34875-.655.63-.91.27875-.2575.58375-.49.93125-.6075.3725-.11625.72375-.14 1.11875-.16375.56125-.0225.77125.07125 1.26.235.4675.185.8175.535 1.0975.91.28125.3725.39625.84.39625 1.445 0 .305-.0225.6525-.115.93375-.095.27875-.21125.51375-.3975.69875-.21.18625-.41875.35125-.7.4675-.30375.1175-.30375.14125-.6525.1875-.165.045-.42125.045-.56125.045l-.0225-3.9875h-.39875c-.3975.0225-.7925.07-1.12.23125-.32625.165-.56.37375-.72125.67625-.16375.305-.32625.6775-.32625 1.0525.0025.44375.1875 1.2125.5125 1.865m2.64-3.66v2.915c.23125 0 .1625 0 .30125-.02375.1175-.02125.23375-.06875.37375-.13875.13875-.07.23125-.18625.32625-.30375.1175-.1175.185-.2325.2575-.39625.0475-.14125.07-.375.07-.56125 0-.18625-.04875-.35-.11875-.515-.06875-.185-.13875-.325-.25625-.44125-.095-.14125-.21-.2325-.35-.32625-.14-.09375-.28125-.16375-.41875-.18625l-.04625-.02375s0 .02375-.13875.00125m-3.758625-4.5045c.11875 0 .25875.095.35125.095 1.77125.02375 3.125 0 4.245-.0475l.49125-.0225.39625-.16375c.025.16375.04625.3975.07.51375.02375.11625.07.41875.07.55875h-1.005c.235.11875.2125.14.3275.2325.12.07125.255.23375.35125.35.07.11875.16375.2325.21125.3975.045.14.115.28.115.44375 0 .14.025.25625 0 .58375-.04625.32375-.115.5125-.13875.58375-.14.0225-.7475-.23375-.7475-.23375s.025-.2575.1175-.4675c.04625-.21.04625-.3475.04625-.51375 0-.185-.04625-.4175-.11625-.5825-.0725-.13875-.16625-.3025-.3025-.4175-.14-.11875-.305-.1875-.51375-.2575-.165-.0725-.025-.0475-.28125-.0725-.28-.02125-2.77625 0-3.36.025l-.30125.0925v-.56c0-.0925-.02625-.35-.02625-.5375m-.02125-8.233125l.53625.1875h6.6225c.2125-.025.3975-.0925.74875-.21125-.025.4675.02375 1.23625.02375 1.5625 0 .18625-.02375.49125-.02375.91 0 .42 0 .79375-.025.97875-.045.58375-.07.74875-.185 1.1675-.07.3025-.3975.885-.58375 1.16625-.1875.25625-.3975.535-.69875.74625-.30375.2075-.3975.30375-.74625.465-.4925.1875-1.005.305-1.47125.305-.6775.0475-1.16625-.02375-1.7725-.21125-.6075-.2075-1.05-.62875-1.4475-1.025-.42-.3975-.6525-.84-.79375-1.3525-.11625-.5125-.2325-1.095-.2325-1.74875v-1.5175l.04875-1.4225zm.63 1.37875c-.025.44-.025.815-.025 1.1875 0 .305.025.6775.0475 1.00375.0475.34875.16375.5825.2575.84125.09375.25625.23125.5125.4675.745.2325.2575.51375.4425.79375.60875.30375.1375.62875.25625 1.0025.30125.37375.07.7475.095 1.11875.095.42-.025.74875-.14 1.0975-.25875.3725-.11625.8175-.325 1.07375-.62875.255-.32625.465-.56.55875-.91.09375-.32625.235-.815.235-1.3525 0-.35-.025-.795-.04875-1.005-.02375-.2325-.0475-.42-.0475-.72375l-6.53125.09625z"/>
  <path fill="#3e649f" d="M342.4117586 179.5036575c.935 0 .8425-.445.8875-.7475.0475-.325-.1175-1.0975.0475-1.79375.1625-.84125 1.32875-1.285 1.88875-1.145 1.61125.42 1.82125 1.47 1.7725 2.1925-.02375.56125-.07 1.61-1.19 2.89375-.5125.5825-1.86625.9325-2.635.95625-.955.025-2.03-.02375-2.635-.5825-.98-.91-1.8175-3.31375-1.7725-4.665.56-5.29625 5.55-5.10875 5.55-5.10875s2.14625-.42125 4.43375 1.37625c.18625.14125.63.37375.815.56.21.18625.2575.325.445.56.1625.21.27875.4425.41875.67625.35.5825.67375 1.2125.86125 1.81875.28.91125.35 1.82.3275 2.54375-.07 2.19125-1.26 4.57125-3.10375 5.7625-.255.185-.4425.325-.67625.48875-.2575.16375-.7.3725-1.235.5825-.795.28125-.4675.185-1.68125.49-.8625.21-1.40125.305-1.95875.35-.25625.025-.535.04625-.84.0725-.95625.0225-1.19.1375-1.93625-.0725-1.2575-.32625-2.4975-1.12125-3.14875-1.77375-1.14375-1.16625-1.495-2.2375-1.81875-2.86875-.3275-.63-.37375-.88625-.65375-1.70125-.30375-.815-.35125-1.26-.35125-2.70875.0225-1.42125.09375-2.5875.18625-2.93625.7-2.545 1.16625-3.4525 2.05375-4.54875 2.2375-2.84625 6.62375-3.43 6.62375-3.43s2.2375-.3025 4.57125.185c1.23625.28125 3.49875 1.51875 4.41 2.2425.7675.605 1.89 2.00375 2.40375 2.84375.535.84 1.235 2.03125 1.65375 3.4075.23.675.32625 1.19.3975 2.7275.06875 1.77375-.3975 4.3875-.86375 5.925-.49 1.61125-1.54 3.07875-2.355 3.8275-.84125.7675-3.33625 2.4725-3.85 2.75125-.51375.305-3.2425 1.12-3.61625 1.19-.34875.07125-1.585.21-1.51625 1.42375.09625 1.11875 1.37625.79125 1.61125.76875.23375-.0475 2.355-.4425 2.93875-.63125.5825-.1625 2.1225-1.02375 2.425-1.235.18875-.09375 1.47125-.88625 2.47375-1.65375.7475-.585 1.495-1.14625 1.8675-1.77625.7675-1.18875 1.44625-2.705 1.44625-2.705s.8875-2.58875 1.05-3.94375c.14-1.16625.395-2.42375.2575-4.5-.14-2.07625-.70125-3.22-1.00375-3.9875-.3275-.74875-1.075-2.47375-2.1225-3.75875-1.0525-1.28375-.5375-.88625-1.30625-1.58625-.77-.67625-.98-.88625-1.635-1.35125-.67625-.4675-2.635-1.46875-3.96375-1.845-.5375-.1375-1.35375-.395-2.14625-.5125-.675-.0925-1.33-.1175-1.86625-.045-1.14375.11625-1.16625.06875-1.16625.06875s-2.215.53625-3.1025.81625c-.86125.3025-2.14625.7-4.1525 2.49625-1.98375 1.81875-2.51875 3.475-2.77625 4.105-.23375.63-.97875 2.7525-1.02625 5.5525-.07125 3.2425.6525 4.0825.88625 4.66625.2575.605 1.0975 2.58875 2.58875 4.175 1.49125 1.585 3.1025 2.09875 3.21875 2.14625 1.26.44125 3.2675.5825 5.22625.185 1.32875-.28 2.475-.49 3.29-.7475 1.39875-.4675 2.1925-1.02625 2.8225-1.445.5825-.3725 1.47-1.54125 1.91375-2.26375.2075-.35.46625-.67625.65375-1.1425.21-.4675.3475-1.075.5125-1.79625.16375-.67625.32625-1.56375.37375-2.31.04625-.6525.0225-1.21125.0225-1.4475 0-.32625-.1875-1.445-.97875-2.9375-.44375-.84-.95875-1.7275-1.95875-2.72875-.3275-.305-.72375-.58375-1.05-.81625-3.0325-2.21625-6.41625-1.4-6.41625-1.4s-4.5725.395-5.87875 4.4075c-.4425 1.42375-.4675 2.66125-.34875 3.71125.2325 1.75.95625 3.0325 1.39875 3.895.465.8875 1.21375 1.54 2.03125 1.89.74625.35 1.53875.41875 2.19125.39625.3975-.0225.88625-.0225 1.4-.11625 1.305-.2325 2.6125-.7 3.59-1.84375l.235-.35125c.14-.21.23375-.395.32625-.55875.51375-.97875.7-1.9375.77-3.26625-.02375-.49125-.1175-1.2125-.32625-1.61-.77-1.5875-2.17125-2.44875-4.01125-2.38-1.72625.07-2.63625 1.68-2.8925 1.95875-.025.02625-.93375 3.59375.6975 3.68875"/>
  <path fill="#a7a8a8" d="M175.7942586 95.9909075h-15.255c-.945 0-1.72-.775-1.72-1.72375v-17.97875h-17.9825c-.945 0-1.72375-.775-1.72375-1.72375v-15.25125c0-.94875.77875-1.72375 1.72375-1.72375h17.9825v-17.97875c0-.94875.775-1.72375 1.72-1.72375h15.255c.94875 0 1.72375.775 1.72375 1.72375v17.97875h17.97875c.94875 0 1.72375.775 1.72375 1.72375v15.25125c0 .94875-.775 1.72375-1.72375 1.72375h-17.97875v17.97875c0 .94875-.775 1.72375-1.72375 1.72375"/>
  <path fill="#c1c3c2" d="M174.9586461 94.3485325h-13.58375c-.84125 0-1.53125-.69-1.53125-1.535v-17.55h-17.54875c-.84125 0-1.53375-.69-1.53375-1.53375v-13.58125c0-.845.6925-1.535 1.53375-1.535h17.54875v-17.55c0-.84375.69-1.53375 1.53125-1.53375h13.58375c.845 0 1.535.69 1.535 1.53375v17.55h17.54375c.845 0 1.535.69 1.535 1.535v13.58c0 .845-.69 1.535-1.535 1.535h-17.54375v17.55c0 .845-.69 1.535-1.535 1.535"/>
  <path fill="#7f7f7f" d="M79.05376485 167.6810325c-.18375.3375-.33625.83-.33625 1.34875 0 .76875.35875 1.21875.87875 1.21875.48125 0 .7575-.31125 1.025-1.09875.2975-.95.73375-1.5375 1.46-1.5375.8025 0 1.39875.75125 1.39875 1.88375 0 .59625-.1225 1.02875-.2525 1.2875l-.5425-.2075c.09125-.19.24375-.57875.24375-1.10625 0-.795-.42-1.0975-.77125-1.0975-.4825 0-.71875.355-.99375 1.15875-.33625.985-.7575 1.48625-1.51375 1.48625-.795 0-1.4825-.665-1.4825-2.04 0-.56125.145-1.175.32875-1.48625l.5575.19zm3.77625 5.47225v-1.7725h.565v4.31375h-.565v-1.78125h-4.58625v-.76h4.58625zm-2.446125 5.3945l1.48375-.57c.335-.13.64125-.21625.94-.30375v-.01625c-.30625-.0875-.62-.18125-.9325-.29375l-1.49125-.57125v1.755zm-.52-1.91l-1.62-.605v-.7775l5.15125 1.97875v.9075l-5.15125 1.9875v-.80375l1.62-.6225v-2.065zm1.116 5.100375v.77c0 .80375.39 1.31375.97875 1.31375.665 0 .955-.545.96375-1.34 0-.36375-.03125-.6225-.06125-.74375h-1.88125zm2.3475-.75125c.06875.38.10625.92375.10625 1.4425 0 .80375-.13 1.3225-.42 1.68625-.23.29375-.58125.4575-.97875.4575-.68 0-1.13125-.48375-1.315-1.0975h-.0225c-.1375.45-.505.7175-1.04.85625-.71875.19-1.215.3275-1.41375.44875v-.7775c.145-.095.58875-.225 1.23-.38875.71125-.17375.97875-.485 1.0025-1.1675v-.70875h-2.2325v-.75125h5.08375zm-.497375 5.83475v-1.7725h.565v4.31375h-.565v-1.78125h-4.58625v-.76h4.58625z"/>
  <path fill="#b1b2b5" d="M269.8747586 38.5819075c-.37375.1625-.545.5975-.38375.97125.1625.37375.5975.545.97125.3825.37375-.1625.54625-.59625.38375-.97-.1625-.375-.5975-.54625-.97125-.38375m-4.0625 1.7625c-.37375.1625-.545.5975-.3825.97125.16125.37375.59625.545.97.38375.37375-.1625.54625-.5975.38375-.97125-.1625-.37375-.5975-.545-.97125-.38375m-4.37375 1.89875c-.37375.1625-.545.59625-.3825.97.16125.375.59625.54625.97.38375.375-.1625.54625-.5975.38375-.97125-.1625-.37375-.5975-.545-.97125-.3825m-3.415 2.28625c.1625.37375-.00875.80875-.38375.97125-.37375.1625-.8075-.01-.97-.38375-.1625-.37375.00875-.80875.3825-.97.37375-.1625.80875.00875.97125.3825m-26.62875 12.36125c.37375-.1625.54625-.5975.38375-.97125-.1625-.37375-.5975-.54625-.97125-.38375-.37375.1625-.545.5975-.38375.97125.1625.37375.5975.545.97125.38375m4.0625-1.76375c.37375-.1625.545-.59625.38375-.97-.1625-.375-.5975-.54625-.97125-.38375-.37375.1625-.54625.5975-.38375.97125.1625.37375.5975.545.97125.3825m4.37375-1.8975c.37375-.1625.545-.5975.3825-.97125-.16125-.37375-.59625-.545-.97-.3825-.37375.16125-.54625.59625-.38375.97.1625.37375.5975.54625.97125.38375m3.415-2.2875c-.1625-.37375.01-.8075.38375-.97.37375-.1625.80875.00875.97.3825.1625.375-.00875.80875-.3825.97125-.37375.1625-.80875-.00875-.97125-.38375m16.5425 16.03375c-.16125-.37375-.59625-.545-.97-.3825-.37375.16125-.54625.59625-.38375.97.1625.37375.5975.54625.97125.38375.37375-.1625.545-.5975.3825-.97125m-1.7625-4.0625c-.1625-.37375-.5975-.545-.97125-.3825-.37375.1625-.545.59625-.3825.97.1625.375.59625.54625.97.38375.375-.1625.54625-.59625.38375-.97125m-1.8975-4.37375c-.1625-.37375-.5975-.545-.97125-.3825-.37375.1625-.545.59625-.38375.97125.1625.37375.5975.545.97125.3825.37375-.1625.545-.59625.38375-.97125m-2.2875-3.415c-.37375.1625-.80875-.00875-.97-.3825-.1625-.37375.00875-.80875.3825-.97125.37375-.1625.80875.00875.97125.38375.1625.37375-.01.8075-.38375.97m-12.36-26.62875c.1625.375.59625.54625.97.38375.375-.1625.54625-.5975.38375-.97125-.1625-.37375-.59625-.545-.97125-.3825-.37375.16125-.545.59625-.3825.97m1.7625 4.0625c.1625.37375.5975.54625.97125.38375.37375-.1625.545-.5975.3825-.97125-.16125-.37375-.59625-.545-.97-.3825-.37375.16125-.54625.59625-.38375.97m1.89875 4.37375c.16125.37375.59625.54625.97.38375.37375-.1625.54625-.5975.38375-.97125-.1625-.37375-.5975-.545-.97125-.38375-.37375.1625-.545.5975-.3825.97125m2.28625 3.415c.37375-.16125.80875.01.97125.38375.16125.37375-.01.80875-.38375.97125-.37375.16125-.80875-.01-.97125-.38375-.1625-.37375.01-.80875.38375-.97125m17.7425-8.18875c-.2875.28875-.2875.755 0 1.04375.28875.28875.755.28875 1.04375 0 .28875-.2875.28875-.755 0-1.04375-.2875-.2875-.755-.28875-1.04375 0m-3.13125 3.13125c-.28875.2875-.28875.755 0 1.04375.2875.28875.755.28875 1.04375 0 .2875-.28875.2875-.755 0-1.04375-.28875-.28875-.75625-.28875-1.04375 0m-3.37125 3.37125c-.28875.2875-.28875.755 0 1.04375.2875.2875.755.2875 1.04375 0 .2875-.28875.2875-.75625 0-1.04375-.28875-.28875-.75625-.28875-1.04375 0m-22.57 24.65375c.28875-.28875.28875-.75625 0-1.04375-.2875-.28875-.755-.28875-1.04375-.00125-.28875.28875-.28875.75625 0 1.04375.28875.28875.755.28875 1.04375.00125m3.13125-3.13125c.28875-.28875.28875-.75625 0-1.04375-.2875-.28875-.755-.28875-1.04375 0-.2875.2875-.2875.755 0 1.04375.28875.2875.75625.2875 1.04375 0m3.37125-3.37125c.28875-.28875.28875-.75625.00125-1.04375-.28875-.28875-.75625-.28875-1.04375 0-.28875.2875-.28875.755-.00125 1.04375.28875.2875.75625.2875 1.04375 0m23.61125 5.46c-.2875-.2875-.755-.2875-1.04375 0-.2875.28875-.2875.75625 0 1.04375.28875.28875.75625.28875 1.04375 0 .28875-.2875.28875-.755 0-1.04375m-3.13125-3.13125c-.2875-.28875-.755-.28875-1.04375 0-.2875.28875-.2875.755 0 1.04375.28875.28875.75625.28875 1.04375 0 .28875-.2875.28875-.755 0-1.04375m-3.37-3.37125c-.28875-.28875-.75625-.28875-1.04375 0-.28875.2875-.28875.755 0 1.04375.2875.2875.755.2875 1.04375 0 .2875-.28875.2875-.75625 0-1.04375m-24.65375-22.57c.2875.28875.755.28875 1.04375 0 .2875-.2875.2875-.755 0-1.04375-.28875-.2875-.75625-.2875-1.04375 0-.28875.28875-.28875.75625 0 1.04375m3.13125 3.13125c.2875.28875.755.28875 1.04375.00125.2875-.28875.2875-.75625 0-1.04375-.28875-.28875-.75625-.28875-1.04375-.00125-.28875.28875-.28875.75625 0 1.04375m3.37125 3.3725c.2875.2875.755.2875 1.04375 0 .2875-.28875.2875-.75625 0-1.04375-.28875-.28875-.75625-.28875-1.04375 0-.28875.2875-.28875.755 0 1.04375m16.6475-11.8825c-.15875.375.01875.8075.39375.96625.37625.1575.80875-.01875.96625-.395.15875-.375-.01875-.8075-.39375-.96625-.37625-.1575-.80875.01875-.96625.395m-1.71625 4.0825c-.15875.375.01875.8075.39375.96625.37625.1575.80875-.01875.96625-.395.15875-.375-.01875-.80875-.39375-.96625-.37625-.1575-.80875.01875-.96625.395m-1.8475 4.395c-.15875.375.0175.8075.39375.96625.37625.1575.80875-.01875.96625-.395.15875-.375-.01875-.80875-.39375-.96625-.37625-.1575-.80875.01875-.96625.395m-.8875 4.0125c.37625.15875.5525.59125.395.96625-.15875.37625-.59125.5525-.96625.395-.37625-.1575-.5525-.59125-.395-.96625.15875-.37625.59125-.5525.96625-.395m-10.69375 27.34125c.15875-.37625-.0175-.80875-.39375-.96625-.37625-.15875-.80875.01875-.96625.39375-.15875.37625.01875.80875.39375.96625.37625.15875.80875-.0175.96625-.39375m1.71625-4.0825c.15875-.37625-.0175-.80875-.39375-.96625-.37625-.1575-.80875.01875-.96625.39375-.15875.37625.01875.80875.39375.9675.37625.1575.80875-.01875.96625-.395m1.84875-4.395c.1575-.37625-.01875-.80875-.395-.96625-.375-.15875-.80875.01875-.96625.39375-.1575.37625.01875.80875.39375.96625.37625.15875.80875-.0175.9675-.39375m.88625-4.01375c-.37625-.1575-.5525-.59-.395-.96625.15875-.375.59125-.5525.9675-.39375.375.1575.55125.59.39375.96625-.1575.375-.59125.5525-.96625.39375m23.0375.1475c-.37625-.1575-.80875.01875-.96625.39375-.15875.37625.0175.80875.39375.96625.37625.15875.80875-.0175.96625-.39375.15875-.37625-.01875-.80875-.39375-.96625m-4.0825-1.71625c-.37625-.1575-.80875.01875-.96625.39375-.15875.37625.01875.80875.39375.9675.37625.1575.80875-.01875.96625-.395.15875-.37625-.01875-.80875-.39375-.96625m-4.395-1.8475c-.37625-.15875-.80875.01875-.96625.39375-.15875.37625.01875.80875.39375.96625.37625.15875.80875-.0175.96625-.39375.15875-.37625-.01875-.80875-.39375-.96625m-4.01375-.8875c-.1575.37625-.59.5525-.96625.395-.37625-.1575-.5525-.59125-.395-.96625.15875-.37625.59125-.5525.9675-.395.375.15875.55125.59125.39375.96625m-27.34125-10.6925c.37625.1575.80875-.01875.9675-.395.1575-.375-.01875-.80875-.395-.96625-.375-.1575-.80875.01875-.96625.395-.1575.375.01875.8075.39375.96625m4.0825 1.71625c.37625.1575.80875-.01875.96625-.395.15875-.375-.0175-.80875-.39375-.96625-.37625-.1575-.80875.01875-.96625.395-.15875.375.01875.8075.39375.96625m4.395 1.8475c.37625.1575.80875-.01875.96625-.395.15875-.375-.0175-.8075-.39375-.96625-.37625-.1575-.80875.01875-.96625.395-.1575.375.01875.8075.39375.96625m4.01375.88625c.1575-.37625.59125-.5525.96625-.39375.37625.1575.5525.59.395.96625-.15875.375-.59125.5525-.96625.39375-.37625-.1575-.5525-.59-.395-.96625m-13.86875 3.86c.4075 0 .7375-.33125.7375-.73875 0-.4075-.33-.7375-.7375-.7375-.4075 0-.7375.33-.7375.7375 0 .4075.33.73875.7375.73875m4.42875 0c.4075 0 .7375-.33125.7375-.73875 0-.4075-.33-.7375-.7375-.7375-.4075 0-.73875.33-.73875.7375 0 .4075.33125.73875.73875.73875m4.7675 0c.4075 0 .7375-.33125.7375-.73875 0-.4075-.33-.7375-.7375-.7375-.4075 0-.73875.33-.73875.7375 0 .4075.33125.73875.73875.73875m33.39125-1.47625c-.4075 0-.7375.33-.7375.7375 0 .4075.33.73875.7375.73875.4075 0 .73875-.33125.73875-.73875 0-.4075-.33125-.7375-.73875-.7375m-4.42875 0c-.4075 0-.7375.33-.7375.7375 0 .4075.33.73875.7375.73875.40875 0 .73875-.33125.73875-.73875 0-.4075-.33-.7375-.73875-.7375m-4.7675 0c-.4075 0-.7375.33-.7375.7375 0 .4075.33.73875.7375.73875.4075 0 .73875-.33125.73875-.73875 0-.4075-.33125-.7375-.73875-.7375m-12.835-20.55625c0 .4075.33.73875.7375.73875.4075 0 .73875-.33125.73875-.73875 0-.4075-.33125-.7375-.73875-.7375-.4075 0-.7375.33-.7375.7375m0 4.42875c0 .4075.33.7375.7375.7375.4075 0 .73875-.33.73875-.7375 0-.4075-.33125-.73875-.73875-.73875-.4075 0-.7375.33125-.7375.73875m0 4.7675c0 .4075.33.73875.7375.73875.4075 0 .73875-.33125.73875-.73875 0-.4075-.33125-.7375-.73875-.7375-.4075 0-.7375.33-.7375.7375m1.47625 33.39125c0-.4075-.33125-.7375-.73875-.7375-.4075 0-.7375.33-.7375.7375 0 .4075.33.73875.7375.73875.4075 0 .73875-.33125.73875-.73875m0-4.4275c0-.4075-.33125-.73875-.73875-.73875-.4075 0-.7375.33125-.7375.73875 0 .4075.33.7375.7375.7375.4075 0 .73875-.33.73875-.7375m0-4.7675c0-.40875-.33125-.73875-.73875-.73875-.4075 0-.7375.33-.7375.73875 0 .4075.33.7375.7375.7375.4075 0 .73875-.33.73875-.7375"/>
  <path fill="#b5aa1d" d="M211.9020086 270.9306575l2.90625-1.67375c1.1125-.6875 1.8325-1.1125 2.595-1.5275v-.0375c-.7625-.37125-1.46125-.74125-2.61125-1.42375l-2.89-1.58125v-1.95125l6.6525 4.02375 6.49875-3.86625v1.96875l-3.08625 1.74c-.85625.485-1.52125.855-2.22375 1.21v.055c.785.37 1.385.7025 2.22375 1.19375l3.08625 1.79375v1.9525l-6.40125-4.0025-6.75 4.1v-1.97375z"/>
  <path fill="#036d2e" d="M242.7003836 298.6280325h5.5775l7.57375-4.155v1.93l-3.63125 1.85375c-.9925.5075-1.79375.895-2.71 1.30375v.04375c.85625.37 1.7175.8175 2.71 1.325l3.63125 1.89125v1.93125l-7.55125-4.40625h-5.6v-1.7175z"/>
  <path fill="#a02727" d="M186.8332586 301.6004075l3.78375-1.28625c.85625-.295 1.64125-.49125 2.4-.6875v-.03875c-.78-.19625-1.58125-.40875-2.3775-.65875l-3.80625-1.2925v3.96375zm-1.325-4.3125l-4.13875-1.36875v-1.75625l13.15125 4.47125v2.05l-13.15125 4.4875v-1.815l4.13875-1.4075v-4.66125z"/>
  <path fill="#264560" d="M213.1970086 328.0967825c-.06.3325-.07625.82375-.07625 1.4225 0 1.75625.64375 3.37625 2.5575 3.37625 1.79375 0 2.535-1.5375 2.535-3.3925v-1.40625h-5.01625zm6.30375 0v1.5425c0 1.795.9375 2.84625 2.2025 2.84625 1.5425 0 2.1475-1.16625 2.1475-2.88375 0-.78-.06-1.2325-.12-1.505h-4.23zm5.38125-1.69625c.1575.7425.2775 1.91375.2775 3.1025 0 1.69625-.29375 2.7925-.95875 3.61-.5075.68125-1.2875 1.09-2.32375 1.09-1.265 0-2.37625-.83875-2.88375-2.22375h-.03875c-.31625 1.24875-1.34625 2.715-3.29875 2.715-1.13375 0-1.99-.4525-2.63375-1.1125-.83875-.91625-1.22625-2.39875-1.22625-4.5475 0-1.1725.07625-2.06625.1525-2.63375h12.93375z"/>
  <path fill="#a7a8a8" d="M168.1666461 58.8970325c4.44125 0 8.04125 3.6 8.04125 8.04125 0 4.4425-3.6 8.0425-8.04125 8.0425s-8.04125-3.6-8.04125-8.0425c0-4.44125 3.6-8.04125 8.04125-8.04125"/>
</svg>
