<svg xmlns="http://www.w3.org/2000/svg" width="342.39249" height="342.39249">
  <defs>
    <clipPath id="a">
      <path d="M0 273.914h273.914V0H0v273.914z"/>
    </clipPath>
  </defs>
  <g clip-path="url(#a)" transform="matrix(1.25,0,0,-1.25,0,342.3925)">
    <path fill="#020202" d="M0 136.9569c0 75.639 61.318 136.957 136.957 136.957s136.957-61.318 136.957-136.957S212.596-.0001 136.957-.0001 0 61.3179 0 136.9569"/>
    <path fill="#cdcdcd" d="M1.2147 136.9569c0 74.968 60.774 135.742 135.742 135.742 74.969 0 135.742-60.774 135.742-135.742 0-74.968-60.773-135.742-135.742-135.742-74.968 0-135.742 60.774-135.742 135.742"/>
    <path fill="#020202" d="M3.9478 136.9569c0 73.459 59.55 133.009 133.009 133.009 73.459 0 133.009-59.55 133.009-133.009 0-73.459-59.55-133.009-133.009-133.009-73.459 0-133.009 59.55-133.009 133.009"/>
    <path fill="#030303" d="M189.1897 136.9569V23.0819c-15.897-7.306-33.589-11.378-52.232-11.378-18.642 0-36.335 4.072-52.232 11.378v113.875c0-28.846 23.383-52.232 52.232-52.232 28.846 0 52.232 23.386 52.232 52.232"/>
    <path fill="#32507c" d="M262.2111 136.9569c0-50.534-29.927-94.078-73.021-113.875v113.875c0-28.846-23.386-52.232-52.232-52.232-28.849 0-52.232 23.386-52.232 52.232V23.0819c-43.098 19.797-73.025 63.341-73.025 113.875 0 69.177 56.08 125.253 125.257 125.253 69.174 0 125.253-56.076 125.253-125.253"/>
    <path fill="#9f9f9f" d="M189.1897 136.9569c0-28.846-23.386-52.232-52.232-52.232-28.849 0-52.232 23.386-52.232 52.232s23.383 52.232 52.232 52.232c28.846 0 52.232-23.386 52.232-52.232"/>
    <path fill="#181818" d="M89.5838 136.9569c0 26.163 21.21 47.373 47.373 47.373 26.164 0 47.373-21.21 47.373-47.373 0-26.163-21.209-47.373-47.373-47.373-26.163 0-47.373 21.21-47.373 47.373"/>
    <path d="M116.3378 136.9569c0 11.388 9.232 20.619 20.619 20.619 11.388 0 20.619-9.231 20.619-20.619s-9.231-20.619-20.619-20.619c-11.387 0-20.619 9.231-20.619 20.619"/>
    <path fill="#fff" d="M129.0961 37.1626c-.091-.045-.368-.274-.464-.324-.369-.093-.601-.232-.831-.276-.274-.05-.602-.092-.881-.092-.463 0-.831.138-1.112.324-.326.183-.326.094-.558.42-.183.272-.507.738-.507 1.109-.049.279-.049.511.045.79.046.186.143.369.279.556.183.186.373.418.647.603.279.143.511.185.973.368.233.094.559.143 1.07.188.274.044.83.044 1.018.136.185.049.373.049.511.145.138.092.324.139.417.186.092.089.233.138.463.368l-.047-2.224s-.045-.928-.371-1.437c-.326-.561-.652-.84-.652-.84m-5.05 7.421c.509.23.882.37 1.204.509.328.094.696.183 1.158.279.465.094.791.138 1.255.138.462 0 1.023-.18 1.391-.274.326-.096.6-.465.79-.744.232-.232.275-.373.275-.741v-.373c-.045-.138-.139-.183-.233-.321-.093-.141-.185-.279-.323-.371-.094-.093-.237-.187-.373-.279-.185-.094-.368-.138-.558-.232-.183-.094-.462-.049-.737-.141-.929-.14-1.67-.183-2.087-.323-.418-.139-.697-.232-.976-.373-.321-.139-.462-.279-.741-.509-.279-.232-.368-.415-.507-.65-.143-.23-.281-.464-.373-.739-.049-.279-.138-.647-.138-.973 0-.558.089-1.023.368-1.529.232-.462.697-.88 1.208-1.117.507-.232 1.159-.506 2.088-.506h.879c.279.044.554.138 1.07.23.232.187.553.37.924.649.326.324.511.509.511.509v-1.158h1.994c-.186.835-.277.928-.23 1.529 0 1.022-.094 3.248-.05 4.451 0 1.208-.046.88-.046 1.391 0 .418-.186 1.114-.324 1.483-.143.372-.373.605-.605 1.022-.279.326-.929.791-1.438.929-.553.143-.929.232-1.527.232-.558 0-1.391-.047-1.993-.089-.559-.094-1.023-.237-1.811-.467-.002-.61-.002-1.121-.045-1.442m42.9326-7.2803c-.138-.049-.371-.279-.509-.328-.326-.089-.556-.233-.788-.277-.328-.045-.603-.092-.882-.092-.462 0-.879.139-1.158.326-.28.186-.28.092-.512.418-.232.279-.556.741-.556 1.114 0 .274 0 .511.047.79.092.183.143.369.324.549.188.188.373.42.652.61.232.138.507.183.969.368.19.089.558.139 1.069.181.232.049.835.049 1.023.145.138.045.323.092.462.139.185.091.323.138.459.185.094.094.188.143.423.368v-2.223s-.05-.88-.371-1.438c-.328-.561-.652-.835-.652-.835m-5.054 7.418c.462.233.835.369 1.158.512.322.094.741.183 1.159.274.462.089.835.141 1.252.141.462 0 1.065-.183 1.389-.277.37-.096.605-.464.835-.743.232-.233.232-.458.279-.831 0-.143 0-.234-.049-.37-.047-.146-.094-.094-.186-.235-.093-.138-.187-.276-.326-.37-.093-.089-.232-.183-.417-.279-.141-.09-.326-.139-.511-.233-.233-.093-.462-.044-.737-.138-.976-.141-1.717-.183-2.087-.324-.422-.14-.697-.234-1.023-.37-.279-.143-.464-.279-.741-.516-.279-.23-.373-.366-.511-.598-.139-.232-.235-.512-.329-.791-.089-.276-.183-.647-.183-.973.047-.553.094-1.023.373-1.529.275-.462.695-.88 1.206-1.112.553-.232 1.208-.511 2.134-.511h.83c.329.049.603.138 1.065.232.235.185.605.373.929.645.373.331.558.514.558.514v-1.159h1.991c-.182.833-.274.929-.274 1.532.045 1.02-.049 3.243-.049 4.446.049 1.208 0 .88 0 1.394-.045.415-.181 1.116-.324 1.48-.141.372-.368.652-.647 1.022-.232.328-.88.79-1.438.931-.509.139-.879.27-1.48.27-.558 0-1.438-.089-1.998-.134-.601-.094-1.018-.232-1.808-.417-.04-.65.007-1.157-.04-1.483m-28.1918-9.1817l.232.786.049 2.183-.14 6.26c0 .558-.324 1.203-.324 1.482.324 0 1.018.094 1.339.237.232.089.558.089.791.089v-1.437c.232.417.6.459.79.696.138.232.326.232.647.462.279.19.462.19.835.279.465.05.786.092 1.204.092.279 0 .558-.045.834-.139.28-.044.554-.185.789-.323.232-.094.462-.279.6-.42.188-.19.373-.279.558-.603.047-.094.462.507 1.065.833.605.326 1.299.605 2.043.605.462 0 1.527-.049 1.991-.232.464-.186 1.114-.422 1.393-.744.277-.321.368-.462.601-.741.326-.324.422-1.159.422-1.482 0-.371.044-.929.044-1.626v-5.141c0-.511.141-.558.235-1.116h-2.134c.274.88.232.605.232 1.116l.044 4.679c0 .652 0 1.023-.044 1.532 0 .413-.139.929-.232 1.159-.094.229-.512.696-.697.879-.188.185-.462.232-.741.328-.232.139-.697.139-1.018.139-.235 0-.605-.045-.837-.096-.183-.089-.418-.139-.605-.275-.183-.14-.369-.187-.554-.417-.141-.188-.277-.415-.417-.694-.094-.237-.094-.652-.139-1.07 0-.462.045-1.065 0-1.712v-4.545l.324-1.023h-2.228c0 .929.143.094.143 1.067v6.349c-.047.373-.089.511-.143.79-.089.233-.228.603-.413.786-.188.237-.605.605-.884.701-.232.139-.601.233-.927.233-.37 0-.558-.05-.882-.19-.279-.139-.553-.183-.785-.462-.237-.23-.42-.279-.605-.643-.143-.373-.28-.279-.324-.889-.094-.598-.141-2.779-.141-4.261.047-.882.047-1.668.047-2.409 0-.462.232-.647.232-1.067h-1.064c-.186-.005-.786-.005-1.206-.005m26.3363 1.9959c0-.143-.049-.373-.091-.697-.05-.326-.141-.605-.188-.928-.462-.139-.971-.277-1.433-.326-.422-.047-1.623-.089-1.998-.089-.695 0-1.532.138-2.132.321-.603.237-1.391.652-1.856 1.158-.462.465-1.022.976-1.252 1.717-.23.741-.413 1.438-.413 2.224-.049 1.114.139 1.484.413 2.455.326.976 1.116 1.717 1.811 2.275.736.559 2.411 1.021 3.663 1.021.929 0 2.038-.139 2.967-.418.047-.652.094-1.018.143-1.438-.65.237-1.255.516-1.625.605-.415.05-.929.139-1.25.139-.603 0-1.809-.279-2.273-.507-.462-.237-.83-.558-1.159-1.022-.279-.418-.511-1.021-.647-1.623-.141-.605-.183-.648-.141-1.297.047-.835.183-1.576.42-2.226.275-.603.697-1.25 1.297-1.576.558-.371 1.253-.697 1.994-.697.692 0 2.174.092 3.75.929m11.2649-1.5761l-.183.739c0 .094-.185.556-.277 1.067 1.25-.697 2.552-1.206 3.523-1.206.462 0 .973.183 1.297.277.326.139.65.373.835.645.143.237.324.514.373.746.044.141.089.368.044.507-.044.143-.093.558-.232.699-.094.138-.464.459-.647.647-.185.138-.697.417-1.393.696-.648.275-1.532.554-1.853.833-.328.235-.882.556-1.114.835-.232.279-.373.556-.511.83-.09.282 0 .699-.047 1.028 0 .462.276.928.556 1.341.274.464.741.697 1.297.929.558.18 1.207.328 1.949.328.832 0 1.623-.19 2.645-.373.045-.558-.096-.975-.049-1.437-.699.462-1.532.741-2.317.741-.423 0-.835-.092-1.208-.186-.373-.14-.741-.462-.929-.694-.138-.232-.232-.422-.232-.696 0-.186.049-.462.138-.648.049-.143.465-.602.697-.696.326-.141.187-.094.462-.183.328-.049 1.069-.465 1.808-.791.791-.368 1.487-.832 1.717-1.069.232-.232.511-.551.696-1.112.141-.279.183-.603.183-.832 0-.418-.093-.462-.093-.742.049-.511-.089-.698-.369-1.114-.274-.462-.79-.879-1.39-1.111-.603-.232-1.204-.42-1.947-.42-.326 0-1.023-.045-1.435 0-.418.047-.791.188-1.117.234-.272.045-.455.045-.877.188m13.5399.9288c-.091-.373-.185-.561-.235-1.159-.462-.143-.647-.187-.926-.187-.235-.045-.511.047-.743.047-.601 0-1.065.049-1.433.232-.373.185-.65.417-.835.79-.233.368-.373 1.297-.373 1.945v.422c0 .232-.045.417 0 1.665l-.045 4.827h-1.346v.971l1.346.049c.045.27 0 1.203 0 1.897 0 .329-.188.648-.326.838.647.138 1.579.417 1.991.506 0-1.064.096-2.641.096-3.241l2.782-.049c-.044-.465 0-.648.049-1.065l-.79.094h-2.041l-.044-6.075v-.511c.044-.558.089-1.25.232-1.529.089-.279.274-.373.507-.512.232-.093.464-.14.696-.14h.605c.186-.005.324.042.833.185m-63.1964.5957c-.045-.415-.185-.924-.23-1.574-.647-.183-1.67-.556-2.132-.649-.462-.045-.929-.045-1.391-.045-.832 0-1.67.183-2.366.418-.647.232-1.302.691-1.808 1.252-.512.553-.976 1.159-1.208 1.85-.232.742-.279 1.438-.326 2.224-.045 1.116.143 1.531.466 2.505.369.929 1.065 1.623 1.809 2.181.741.558 1.67.788 2.873.788.605 0 1.297-.045 1.855-.23.556-.187 1.023-.42 1.391-.79.368-.418.696-.833.929-1.391.232-.603.279-.603.373-1.297.089-.328.089-.837.089-1.116l-7.925-.045v-.79c.044-.791.138-1.576.459-2.229.326-.647.741-1.111 1.344-1.433.605-.326 1.346-.647 2.09-.647.884.005 2.411.373 3.708 1.018m-7.275 5.247h5.795c0 .459 0 .323-.047.6-.044.232-.138.464-.277.741-.138.277-.37.46-.605.65-.232.232-.462.368-.785.511-.282.094-.746.139-1.117.139-.37 0-.696-.097-1.022-.235-.369-.138-.648-.277-.878-.511-.281-.188-.462-.415-.649-.695-.186-.279-.324-.558-.371-.832l-.047-.092s.047 0 .003-.276m-8.9527-7.4704c0 .237.188.514.188.699.049 3.52 0 6.211-.094 8.436l-.045.976-.326.788c.326.049.791.091 1.023.138.23.05.832.141 1.109.141v-1.998c.237.467.279.422.462.652.143.237.465.506.697.696.237.141.462.326.79.42.277.089.556.23.882.23.277 0 .509.049 1.161 0 .643-.091 1.018-.23 1.159-.277.044-.276-.465-1.484-.465-1.484s-.511.049-.929.232c-.417.094-.691.094-1.02.094-.368 0-.83-.094-1.158-.232-.277-.144-.601-.331-.831-.601-.234-.279-.373-.607-.511-1.022-.143-.329-.094-.05-.143-.559-.045-.556 0-5.518.049-6.677l.183-.6h-1.111c-.186 0-.697-.052-1.07-.052m-16.3637-.0423l.373 1.065v13.164c-.049.423-.185.788-.42 1.487.929-.049 2.458.047 3.105.047.371 0 .976-.047 1.809-.047.835 0 1.578 0 1.946-.049 1.159-.089 1.487-.138 2.32-.368.6-.138 1.759-.79 2.317-1.159.511-.373 1.065-.79 1.485-1.391.413-.602.603-.79.924-1.482.373-.978.605-1.998.605-2.925.096-1.346-.047-2.317-.42-3.522-.413-1.208-1.25-2.088-2.036-2.878-.79-.835-1.67-1.297-2.69-1.576-1.018-.232-2.176-.462-3.476-.462h-3.013l-2.829.096zm2.739 1.252c.875-.049 1.621-.049 2.362-.049.605 0 1.346.049 1.994.094.694.094 1.158.326 1.672.511.509.188 1.02.46 1.482.929.512.462.88 1.023 1.208 1.579.275.602.512 1.25.601 1.993.138.741.187 1.485.187 2.224-.049.834-.276 1.486-.513 2.181-.23.739-.645 1.623-1.25 2.134-.648.507-1.112.924-1.809 1.109-.647.188-1.62.467-2.688.467-.696 0-1.58-.049-1.998-.096-.462-.047-.835-.094-1.438-.094l.19-12.982z"/>
    <path fill="#3e649f" d="M139.287 62.4802c0 1.085-.517.978-.867 1.03-.378.055-1.275-.135-2.084.055-.976.189-1.492 1.543-1.329 2.194.487 1.87 1.707 2.114 2.545 2.058.653-.028 1.871-.081 3.36-1.381.677-.596 1.084-2.168 1.111-3.06.029-1.11-.027-2.358-.677-3.059-1.056-1.139-3.847-2.112-5.416-2.06-6.149.651-5.931 6.445-5.931 6.445s-.489 2.493 1.597 5.148c.163.217.433.732.65.947.216.244.378.299.651.516.243.189.513.324.785.487.677.405 1.408.782 2.111 1 1.058.325 2.114.406 2.954.38 2.545-.081 5.308-1.464 6.691-3.604.215-.296.378-.514.567-.785.19-.299.433-.813.677-1.435.326-.922.215-.542.568-1.951.244-1.001.355-1.627.407-2.274.029-.299.054-.622.084-.976.026-1.111.16-1.382-.084-2.248-.378-1.461-1.301-2.901-2.059-3.656-1.354-1.329-2.598-1.736-3.331-2.112-.732-.38-1.029-.433-1.976-.76-.946-.352-1.463-.406-3.144-.406-1.651.026-3.005.108-3.411.215-2.954.813-4.009 1.355-5.281 2.385-3.305 2.598-3.982 7.691-3.982 7.691s-.352 2.598.215 5.308c.326 1.436 1.763 4.062 2.603 5.12.703.892 2.327 2.195 3.302 2.791.976.622 2.358 1.435 3.956 1.921.785.267 1.382.378 3.168.46 2.059.081 5.094-.46 6.879-1.001 1.871-.57 3.575-1.79 4.444-2.735.892-.977 2.872-3.874 3.195-4.471.353-.596 1.3-3.765 1.381-4.198.084-.406.244-1.842 1.654-1.761 1.299.111.919 1.598.892 1.871-.055.271-.514 2.734-.732 3.411-.189.677-1.189 2.465-1.434 2.817-.109.218-1.029 1.707-1.921 2.872-.679.867-1.331 1.736-2.062 2.169-1.38.891-3.141 1.678-3.141 1.678s-3.006 1.031-4.579 1.22c-1.354.163-2.814.459-5.226.299-2.41-.163-3.737-.814-4.629-1.165-.869-.381-2.872-1.248-4.364-2.465-1.491-1.222-1.029-.625-1.842-1.517-.785-.894-1.029-1.138-1.57-1.899-.543-.785-1.705-3.059-2.142-4.602-.16-.623-.459-1.572-.594-2.492-.108-.784-.137-1.545-.054-2.167.136-1.327.081-1.353.081-1.353s.622-2.573.948-3.604c.351-1 .813-2.491 2.898-4.821 2.112-2.304 4.035-2.924 4.767-3.223.732-.271 3.195-1.137 6.447-1.192 3.765-.082 4.74.758 5.417 1.029.703.299 3.006 1.274 4.848 3.006 1.841 1.732 2.437 3.602 2.492 3.738.512 1.462.677 3.794.215 6.068-.325 1.543-.568 2.873-.867 3.82-.543 1.624-1.192 2.546-1.679 3.276-.433.677-1.789 1.708-2.628 2.223-.406.241-.785.541-1.327.759-.543.244-1.247.404-2.086.596-.785.189-1.815.378-2.681.433-.758.053-1.407.026-1.681.026-.378 0-1.679-.218-3.41-1.136-.976-.515-2.006-1.114-3.17-2.275-.353-.38-.677-.839-.948-1.219-2.573-3.521-1.625-7.45-1.625-7.45s.459-5.309 5.118-6.826c1.653-.513 3.089-.542 4.309-.405 2.032.27 3.521 1.111 4.523 1.625 1.03.54 1.788 1.408 2.195 2.358.405.866.486 1.787.459 2.544-.026.462-.026 1.029-.135 1.627-.269 1.514-.812 3.032-2.141 4.168l-.407.272c-.244.163-.459.272-.65.378-1.135.598-2.249.814-3.792.895-.57-.027-1.407-.137-1.869-.379-1.843-.894-2.843-2.521-2.764-4.658.081-2.004 1.952-3.06 2.275-3.358.03-.029 4.173-1.084 4.283.81"/>
    <path fill="#fff" d="M151.4096 9.8451h-11.685c-1.051 0-1.85.31-2.363.902v-.902h-3.851c-1.406 0-2.356.556-2.781 1.591-.137-.234-.307-.452-.51-.656-.617-.622-1.327-.935-2.111-.935h-4.118v3.644h.914c-.607.617-.914 1.367-.914 2.229 0 .866.313 1.619.93 2.238.616.623 1.327.935 2.107.935h4.121v-.901c.513.592 1.312.901 2.362.901h3.851v-.901c.513.592 1.312.901 2.363.901h3.85v-4.245l1.084 2.979.016.03c.513 1.024 1.311 1.236 1.894 1.236.945 0 1.628-.461 1.923-1.305l2.918-7.741z"/>
    <path fill="#174b9a" d="M125.9485 15.7192c0 .33.119.615.356.855.237.241.568.361.995.361h3.241v-1.081h-3.241c-.18 0-.27-.045-.27-.135 0-.09.09-.135.27-.135h.81c.618 0 1.178-.251 1.679-.752.502-.501.752-1.106.752-1.814 0-.703-.25-1.306-.752-1.81-.501-.505-1.061-.757-1.679-.757h-3.512v1.081h3.242c.498 0 .893.147 1.184.441.291.294.437.642.437 1.045 0 .408-.146.758-.437 1.049-.291.291-.686.436-1.184.436h-.54c-.427 0-.758.119-.995.356s-.356.524-.356.86m-1.351 0c0 .702.251 1.306.752 1.81s1.061.756 1.68.756h3.511v-1.08h-3.241c-.499 0-.893-.147-1.184-.441-.292-.295-.437-.643-.437-1.045 0-.408.145-.758.437-1.049.291-.291.685-.437 1.184-.437h.54c.426 0 .758-.118.995-.355.237-.238.356-.524.356-.86 0-.331-.119-.616-.356-.856s-.569-.36-.995-.36h-3.242v1.081h3.242c.18 0 .27.045.27.135 0 .09-.09.135-.27.135h-.81c-.619 0-1.179.25-1.68.752-.501.501-.752 1.106-.752 1.814m7.8342-1.4858h3.512v-1.081h-2.431c0-.18.09-.27.27-.27h2.971v-1.08h-3.241c-.721 0-1.081.36-1.081 1.08v1.351zm0 .27v1.351c0 .72.36 1.08 1.081 1.08h3.241v-1.08h-2.971c-.18 0-.27-.09-.27-.27h2.431v-1.081h-3.512zm-1.351 1.351c0 1.621.811 2.431 2.432 2.431h3.241v-1.081h-3.241c-.901 0-1.351-.45-1.351-1.35v-2.972c0-.9.45-1.35 1.351-1.35h3.241v-1.081h-3.241c-1.621 0-2.432.811-2.432 2.431v2.972zm7.5641-.0001c0 .72.36 1.081 1.081 1.081h3.241v-1.081h-2.971c-.18 0-.27-.09-.27-.27v-2.431c0-.18.09-.27.27-.27h.54v.27h-.54v1.08h1.62v-2.431h-1.89c-.721 0-1.081.36-1.081 1.081v2.971zm-1.351 0c0 1.621.811 2.431 2.432 2.431h3.241v-1.08h-3.241c-.901 0-1.351-.451-1.351-1.351v-2.971c0-.901.45-1.351 1.351-1.351h2.161v2.971h-1.891v1.081h2.971v-5.133h-3.241c-1.621 0-2.432.811-2.432 2.432v2.971z"/>
    <path fill="#174b9a" d="M146.5688 14.1434l-.495-1.261h.99l-.495 1.261zm-.675-2.341v.585l-.766-1.936h-1.08l2.341 6.303c.03.12.09.18.18.18s.15-.06.18-.18l1.891-4.952h-2.746zm0-.27h3.196l-2.161 5.492c-.06.121-.18.181-.36.181-.15 0-.27-.06-.36-.181l-2.431-6.573h-1.081l2.521 6.934c.3.6.751.9 1.351.9.69 0 1.141-.3 1.351-.9l2.611-6.934h-4.637v1.081z"/>
  </g>
</svg>
