<?xml version="1.0" encoding="utf-8"?>
<!-- Generator: Adobe Illustrator 16.0.3, SVG Export Plug-In . SVG Version: 6.00 Build 0)  -->
<!DOCTYPE svg PUBLIC "-//W3C//DTD SVG 1.1//EN" "http://www.w3.org/Graphics/SVG/1.1/DTD/svg11.dtd">
<svg version="1.1" id="Ebene_1" xmlns="http://www.w3.org/2000/svg" xmlns:xlink="http://www.w3.org/1999/xlink" x="0px" y="0px"
	 width="566.924px" height="121.752px" viewBox="0 0 566.924 121.752" enable-background="new 0 0 566.924 121.752"
	 xml:space="preserve">
<g>
	<g id="_x23_ffffffff">
		<path fill="#4C4C4C" d="M207.014,5.277c4.724-6.043,14.501-7.076,20.297-2.006c2.37,1.996,4.031,4.75,4.88,7.715
			c10.73,36.92,21.511,73.822,32.226,110.746c-6.332,0.006-12.667-0.012-18.999,0.006c-2.987-10.18-5.903-20.377-8.854-30.563
			c-12.246-0.022-24.482-0.006-36.729-0.012c-2.998,10.185-5.958,20.379-8.901,30.582c-6.298-0.021-12.596-0.007-18.895-0.013
			c10.191-35.221,20.397-70.438,30.643-105.646C203.898,12.404,204.358,8.287,207.014,5.277 M218.193,27.902
			c-4.487,15.295-8.889,30.619-13.354,45.922c8.897,0.043,17.796,0.016,26.689,0.016C227.078,58.527,222.647,43.215,218.193,27.902z
			"/>
		<path fill="#4C4C4C" d="M340.408,6.072c3.304-4.787,9.684-7.109,15.296-5.631c5.145,1.184,9.075,5.615,10.437,10.604
			c10.719,36.893,21.476,73.772,32.194,110.666c-6.345,0.049-12.682,0-19.021,0.024c-2.949-10.188-5.865-20.387-8.835-30.575
			c-12.225,0.006-24.447-0.021-36.671,0.01c-2.922,10.195-5.938,20.367-8.856,30.563c-6.293,0.006-12.581-0.006-18.874,0.006
			c10.188-35.414,20.497-70.797,30.771-106.188C337.923,12.357,338.339,8.834,340.408,6.072 M338.865,73.84
			c8.863,0.013,17.725,0.007,26.584,0.007c-4.406-15.347-8.89-30.671-13.281-46.015C347.74,43.17,343.274,58.494,338.865,73.84z"/>
		<path fill="#4C4C4C" d="M250.237,0.256c22.91,0,45.814,0,68.719,0c0,6.182,0,12.355,0,18.533
			c-8.436,0.006-16.862-0.01-25.293,0.006c0,34.313,0.006,68.627-0.008,102.938c-6.036,0-12.083,0-18.119,0
			c0-34.313-0.008-68.625,0.005-102.938c-8.438-0.016-16.866,0-25.304-0.006C250.237,12.611,250.232,6.438,250.237,0.256z"/>
		<path fill="#4C4C4C" d="M418.475,1.01c1.74-0.602,3.598-0.807,5.436-0.764c7.226,0.025,14.446,0.006,21.667,0.01
			c12.164,0.225,23.773,7.771,29.037,18.719c3.646,7.109,4.021,15.377,3.104,23.176c-0.637,8.164-4.061,16.328-10.334,21.741
			c-3.314,2.952-7.443,4.743-10.992,7.375c-1.948,1.481-2.047,4.364-1.039,6.428c9.586,14.801,19.551,29.367,29.339,44.039
			c-7.158,0.014-14.315-0.017-21.475,0.014c-9.37-14.074-18.646-28.221-27.979-42.313c-2.743-4.014-3.489-9.324-1.845-13.901
			c1.281-3.513,4.35-6.08,7.768-7.406c6.525-2.49,12.958-6.4,16.572-12.559c2.749-4.627,2.606-10.336,1.37-15.4
			c-1.45-6.574-7.855-11.746-14.624-11.52c-4.682,0.031-9.36-0.021-14.034,0.021c-2.116-0.049-4.104,1.791-4.08,3.934
			c-0.021,33.047,0.014,66.096-0.01,99.141c-6.087-0.013-12.168,0-18.255-0.007c-0.012-35.575,0.011-71.153-0.012-106.729
			C408.128,8.77,412.562,2.902,418.475,1.01z"/>
		<path fill="#4C4C4C" d="M494.262,0.256c6.399,0,12.803,0,19.21,0c-0.006,40.496,0.012,80.986-0.013,121.481
			c-6.396-0.02-12.798,0-19.197-0.006C494.262,81.235,494.262,40.746,494.262,0.256z"/>
	</g>
	<g>
		<path fill="#4C4C4C" d="M54.173,0.008c3.076-0.01,6.153,0,9.229-0.008c0.016,7.234,0,14.469,0.008,21.701
			c0.029,6.039-0.142,12.076-0.392,18.107c-0.412,8.711-0.957,17.439-2.397,26.05c-0.991,5.937-3.044,11.662-5.595,17.099
			C50.871,91.717,44.34,99.129,37,105.362c-6.567,5.779-14.405,9.986-22.649,12.835c-4.664,1.604-9.463,2.844-14.35,3.532
			c0.005-6.065,0.005-12.139,0-18.203c5.883-0.883,11.538-2.971,16.791-5.729c6.23-3.295,11.844-7.729,16.563-12.953
			c4.877-5.395,8.767-11.641,11.714-18.271c3.477-7.625,5.333-15.861,6.6-24.109c1.584-10.482,2.244-21.088,2.489-31.684
			C54.192,7.188,54.162,3.596,54.173,0.008z"/>
		<path fill="#4C4C4C" d="M67.116,0.02c5.659-0.037,11.325-0.006,16.989-0.016c0.002,40.574,0.002,81.149,0,121.728
			c-5.647,0.014-11.303-0.025-16.953,0.021c-0.069-12.938-0.01-25.879-0.027-38.814C67.118,55.295,67.136,27.658,67.116,0.02z"/>
		<path fill="#4C4C4C" d="M87.888,0.004c3.06-0.002,6.118-0.008,9.176,0.002c-0.099,12.371,0.322,24.766,1.797,37.057
			c1.207,9.547,2.909,19.164,6.711,28.059c3.605,8.605,8.804,16.604,15.572,23.051c6.466,6.166,14.302,10.906,22.815,13.635
			c2.375,0.76,4.805,1.355,7.271,1.715c-0.003,6.064-0.006,12.129,0,18.191c-4.852-0.658-9.607-1.908-14.237-3.482
			c-5.517-1.918-10.85-4.399-15.745-7.588c-3.576-2.301-6.828-5.053-9.952-7.924c-5.149-4.748-9.758-10.146-13.219-16.256
			c-2.708-4.758-4.686-9.9-6.23-15.145c-1.418-5.271-2.021-10.717-2.573-16.135c-1.063-11.709-1.462-23.477-1.386-35.23
			C87.888,13.305,87.886,6.652,87.888,0.004z"/>
		<path fill="#4C4C4C" d="M54.173,0.008c-0.01,3.588,0.02,7.18-0.016,10.77c-0.245,10.596-0.904,21.201-2.489,31.684
			c-1.267,8.248-3.124,16.484-6.6,24.109c-2.947,6.635-6.837,12.879-11.714,18.271c-4.722,5.229-10.333,9.658-16.563,12.953
			C11.538,100.56,5.883,102.646,0,103.524c0.005,6.065,0.005,12.139,0,18.203c4.887-0.688,9.686-1.929,14.35-3.531
			c8.244-2.85,16.082-7.057,22.649-12.834c7.341-6.234,13.871-13.646,18.024-22.406c2.547-5.438,4.604-11.162,5.595-17.1
			c1.44-8.609,1.986-17.338,2.397-26.049c0.25-6.031,0.421-12.068,0.392-18.107C63.402,14.469,63.415,7.234,63.402,0
			C60.325,0.008,57.249-0.002,54.173,0.008"/>
		<path fill="#4C4C4C" d="M67.116,0.02c0.02,27.641,0.002,55.275,0.01,82.917c0.02,12.938-0.042,25.879,0.027,38.815
			c5.65-0.051,11.305-0.012,16.953-0.021c0.002-40.574,0.002-81.15,0-121.729C78.444,0.014,72.778-0.018,67.116,0.02"/>
		<path fill="#4C4C4C" d="M87.888,0.004c-0.002,6.648,0,13.301,0,19.949c-0.076,11.754,0.322,23.521,1.386,35.23
			c0.553,5.418,1.155,10.863,2.573,16.134c1.547,5.244,3.522,10.388,6.23,15.146c3.46,6.109,8.067,11.509,13.219,16.256
			c3.124,2.871,6.376,5.623,9.952,7.923c4.896,3.188,10.229,5.672,15.745,7.59c4.63,1.574,9.388,2.824,14.237,3.481
			c-0.006-6.063-0.003-12.127,0-18.19c-2.47-0.357-4.896-0.955-7.271-1.715c-8.516-2.729-16.353-7.47-22.815-13.636
			c-6.771-6.446-11.967-14.444-15.572-23.051c-3.802-8.895-5.504-18.512-6.711-28.061c-1.475-12.289-1.896-24.684-1.797-37.055
			C94.007-0.004,90.948,0.002,87.888,0.004"/>
	</g>
	<path fill="#4C4C4C" d="M562.213,99.303h3.963v22.449l-18.669-15.213c-1.751-1.431-3.919-3.09-6.228-3.09
		c-3.641,0-6.637,3.229-6.637,6.821c0,3.552,2.855,6.455,6.357,6.687v4.334c-6.179-0.69-10.323-4.703-10.323-11.021
		c0-5.897,4.379-10.973,10.418-10.973c2.582,0,5.164,0.971,7.146,2.58l13.972,11.436L562.213,99.303L562.213,99.303z"/>
	<path fill="#4C4C4C" d="M532.8,79.433l12.538,9.268l0.095-0.094c-0.509-1.017-0.83-2.166-0.83-3.412
		c0-5.715,5.302-10.049,10.88-10.049c6.36,0,11.433,5.164,11.433,11.479c0,5.992-4.979,11.572-11.105,11.572
		c-3.506,0-6.454-1.753-9.176-3.779l-15.949-11.851L532.8,79.433z M555.943,79.293c-4.334,0-7.469,3.688-7.469,7.375
		c0,3.781,3.458,7.377,7.236,7.377c4.013,0,7.331-3.41,7.331-7.377C563.044,82.795,559.815,79.293,555.943,79.293z"/>
	<path fill="#4C4C4C" d="M530.68,56.256c0,9.955,8.162,18.054,18.195,18.054c9.95,0,18.049-8.099,18.049-18.054
		c0-10.242-7.96-18.268-18.121-18.268C538.641,37.988,530.68,46.014,530.68,56.256z M548.875,42.256
		c7.854,0,14.004,6.248,14.004,14.223c0,7.479-6.281,13.563-14.004,13.563c-7.803,0-14.146-6.084-14.146-13.563
		C534.728,48.369,540.81,42.256,548.875,42.256z"/>
	<path fill="#4C4C4C" d="M530.68,18.299c0,9.953,8.162,18.051,18.195,18.051c9.95,0,18.049-8.098,18.049-18.051
		c0-10.244-7.96-18.27-18.121-18.27C538.641,0.029,530.68,8.055,530.68,18.299z M548.875,4.297c7.854,0,14.004,6.246,14.004,14.223
		c0,7.479-6.281,13.563-14.004,13.563c-7.803,0-14.146-6.084-14.146-13.563C534.728,10.412,540.81,4.297,548.875,4.297z"/>
</g>
</svg>
