<?xml version="1.0" encoding="utf-8"?>
<!-- Generator: Adobe Illustrator 16.0.3, SVG Export Plug-In . SVG Version: 6.00 Build 0)  -->
<!DOCTYPE svg PUBLIC "-//W3C//DTD SVG 1.1//EN" "http://www.w3.org/Graphics/SVG/1.1/DTD/svg11.dtd">
<svg version="1.1" id="Ebene_1" xmlns="http://www.w3.org/2000/svg" xmlns:xlink="http://www.w3.org/1999/xlink" x="0px" y="0px"
	 width="566.93px" height="458.929px" viewBox="0 0 566.93 458.929" enable-background="new 0 0 566.93 458.929"
	 xml:space="preserve">
<g>
	<g>
		<path fill="#CF8A61" d="M564.898,182.695c0.104-1.35,0-2.745,0-3.875c0.015-25.821,0.019-51.642-0.007-77.463
			c-0.001-1.341-0.074-2.729-0.417-4.015c-7.45-27.979-20.942-52.36-43.296-71.218c-18.354-15.481-39.436-24.117-63.728-24.113
			C393.43,2.022,329.409,2.015,265.387,2.015c-86.168,0-172.336-0.001-258.503,0.01c-1.591,0-3.182-0.08-4.897,0
			c0,19.744,0,39.258,0,58.69c1.204,0.469,2.251,0.942,3.338,1.29c7.92,2.53,15.849,5.035,23.776,7.545
			c79.82,25.273,159.644,50.542,239.464,75.823c37.698,11.939,75.383,23.919,113.091,35.826c2.366,0.747,4.884,1.441,7.333,1.444
			c57.349,0.081,114.696,0.064,172.045,0.052C562.162,182.695,563.55,182.799,564.898,182.695z M342.657,178.973
			c-51.406-16.294-102.396-32.456-154.027-48.82c0,76.025,0,151.292,0,226.685c-22.218,11.209-44.115,22.254-65.863,33.225
			c0,22.504,0,44.586,0,66.883c89.944,0,179.607,0,269.52,0c0-43.316,0-86.367,0-129.986c-16.6,0-32.949,0-49.629,0
			C342.657,277.395,342.657,228.4,342.657,178.973z M360.105,196.69c0,38.089,0,75.92,0,114.013c68.267,0,136.274,0,204.543,0
			c0-38.09,0-75.92,0-114.013C496.382,196.69,428.376,196.69,360.105,196.69z"/>
		<path d="M394.272,458.929H120.779v-70.092l65.865-33.224V127.439l157.999,50.079V324.97h49.629V458.929z M124.751,454.957H390.3
			V328.943h-49.628V180.427l-150.057-47.562V358.06l-65.864,33.225V454.957L124.751,454.957z M566.634,312.688H358.12V194.705
			h208.515L566.634,312.688L566.634,312.688z M362.092,308.716h200.569v-110.04H362.092V308.716z M563.551,184.728
			c-0.484,0-0.96-0.013-1.417-0.025c-0.383-0.01-0.75-0.021-1.092-0.021l-8.07,0.002c-19.899,0.004-39.796,0.008-59.696,0.008
			c-41.668,0-73.831-0.019-104.289-0.062c-2.703-0.004-5.407-0.741-7.929-1.537c-24.306-7.675-48.604-15.38-72.898-23.086
			c-13.397-4.249-26.795-8.498-40.194-12.741c-56.305-17.833-112.611-35.66-168.919-53.487L24.81,70.275
			c-6.698-2.121-13.396-4.241-20.09-6.378c-0.808-0.258-1.557-0.564-2.35-0.887c-0.356-0.146-0.723-0.295-1.105-0.444L0,62.073
			V0.128L1.894,0.04c1.189-0.055,2.321-0.038,3.433-0.019C5.845,0.03,6.358,0.038,6.871,0.038
			c72.687-0.009,145.355-0.009,218.027-0.009l151.407,0.002c27.049,0,54.099-0.001,81.146-0.006c23.807,0,45.671,8.27,65.007,24.581
			c21.438,18.085,35.811,41.71,43.936,72.226c0.428,1.604,0.482,3.261,0.484,4.524c0.022,25.822,0.021,51.644,0.007,77.466
			c0,0.342,0.011,0.711,0.021,1.097c0.023,0.894,0.051,1.906-0.025,2.927l-0.129,1.699l-1.699,0.131
			C564.552,184.714,564.047,184.728,563.551,184.728z M561.034,180.709c0.385,0,0.787,0.011,1.208,0.022
			c0.231,0.006,0.47,0.013,0.71,0.018c-0.005-0.243-0.012-0.484-0.018-0.724c-0.012-0.423-0.022-0.828-0.022-1.205
			c0.016-25.821,0.019-51.641-0.007-77.461c-0.001-1.023-0.041-2.346-0.35-3.506c-7.909-29.702-21.862-52.668-42.658-70.211
			c-18.6-15.69-39.604-23.646-62.429-23.646C430.404,4,403.354,4.002,376.305,4.002L224.898,4C152.226,4,79.556,4,6.884,4.01
			C6.335,4.01,5.8,4.001,5.26,3.992C4.835,3.985,4.407,3.979,3.972,3.976v55.396c0.682,0.278,1.328,0.54,1.958,0.741
			c6.688,2.136,13.384,4.256,20.078,6.375l74.236,23.504c56.308,17.827,112.614,35.654,168.919,53.487
			c13.399,4.244,26.797,8.493,40.194,12.742c24.295,7.705,48.59,15.41,72.896,23.084c2.219,0.701,4.569,1.35,6.737,1.353
			c30.456,0.043,62.617,0.062,104.283,0.062c19.9,0,39.797-0.004,59.695-0.008L561.034,180.709z"/>
	</g>
	<g>
		<path fill="#CF8A61" d="M564.898,182.695l-178.77-0.052L1.986,60.904c0,0,0-39.136,0-58.88c1.717-0.08,177.233-0.01,263.401-0.01
			c64.021,0,128.043,0.007,192.063-0.003c24.292-0.004,45.374,8.632,63.728,24.113c22.354,18.858,35.846,43.239,43.296,71.218
			c0.343,1.286,0.416,2.673,0.417,4.015C564.917,127.179,564.898,182.695,564.898,182.695z"/>
		<path fill="#4C504E" d="M566.884,184.682l-181.063-0.052l-0.293-0.093L0,62.358V0.128L1.894,0.04C2.297,0.022,9.253,0,59.878,0
			c30.27,0,68.809,0.007,106.596,0.015c36.342,0.007,71.987,0.014,98.914,0.014l110.918,0.002c27.053,0,54.095-0.001,81.146-0.006
			c23.807,0,45.671,8.27,65.007,24.581c21.438,18.085,35.811,41.711,43.936,72.226c0.427,1.604,0.482,3.26,0.484,4.524
			c0.022,25.822,0.007,81.34,0.007,81.34L566.884,184.682z M386.436,180.658l176.477,0.051c0.004-10.128,0.015-56.434-0.008-79.35
			c-0.001-1.023-0.041-2.346-0.35-3.506c-7.909-29.702-21.862-52.668-42.658-70.211c-18.6-15.69-39.604-23.646-62.429-23.646
			C430.4,4,403.358,4.002,376.305,4.002L265.387,4c-26.927,0-62.573-0.007-98.915-0.014C128.685,3.979,90.146,3.972,59.878,3.972
			c-12.41,0-47.302,0-55.905,0.025V59.45L386.436,180.658z"/>
	</g>
	<g>
		<path fill="#CF8A61" d="M342.657,178.973c0,49.428,0,98.422,0,147.983c16.68,0,33.029,0,49.629,0c0,43.619,0,86.67,0,129.986
			c-89.912,0-179.575,0-269.52,0c0-22.297,0-44.379,0-66.883c21.748-10.971,43.646-22.016,65.863-33.225
			c0-75.393,0-150.66,0-226.685C240.261,146.517,291.25,162.678,342.657,178.973z"/>
		<path fill="#4C504E" d="M394.272,458.929H120.779v-70.092l65.865-33.224V127.439l157.999,50.079V324.97h49.629V458.929z
			 M124.751,454.957H390.3V328.943h-49.628V180.427l-150.057-47.562V358.06l-65.864,33.225V454.957L124.751,454.957z"/>
	</g>
	<g>
		<path fill="#CF8A61" d="M360.105,196.69c68.271,0,136.276,0,204.543,0c0,38.093,0,75.923,0,114.013c-68.269,0-136.276,0-204.543,0
			C360.105,272.61,360.105,234.779,360.105,196.69z"/>
		<path fill="#4C504E" d="M566.634,312.688H358.12V194.705h208.515L566.634,312.688L566.634,312.688z M362.092,308.716h200.569
			v-110.04H362.092V308.716z"/>
	</g>
</g>
</svg>
