<svg xmlns="http://www.w3.org/2000/svg" width="839.51611" height="448.5">
  <path fill="#524c82" d="M413.8 444H4.2c-2.3 0-4.2-1.9-4.2-4.2V4.2C0 1.9 1.9 0 4.2 0h409.7c2.3 0 4.2 1.9 4.2 4.2v435.7c-.1 2.2-2 4.1-4.3 4.1z"/>
  <circle cx="44" cy="109.6" r="25.5"/>
  <circle cx="44" cy="109.6" r="25" fill="#cbc9e0"/>
  <circle cx="44" cy="386.60001" r="25.5"/>
  <circle cx="44" cy="386.60001" r="25" fill="#463371"/>
  <circle cx="374" cy="386.70001" r="25.5"/>
  <circle cx="374" cy="386.70001" r="25" fill="#453371"/>
  <circle cx="374" cy="386.70001" r="13" fill="#524c82"/>
  <path fill="#20203a" d="M213.2 404H209c-35 .2-78.1-1.3-132.1-13.5l-1-.1.1-1c.1-.9.1-1.8.1-2.7 0-17.6-14.4-32-32-32h-1V142h1c17.6 0 32-14.4 32-32S61.7 78 44 78h-1V0h2v76c18.3.5 33 15.6 33 34s-14.7 33.5-33 34v208.7c18.3.5 33 15.6 33 34 0 .7 0 1.3-.1 2 53.5 12 96.2 13.5 131 13.3 34.8.1 77.5-1.3 131.1-13.3 0-.7-.1-1.3-.1-2 0-18.4 14.7-33.5 33-34V0h2v354.6h-1c-17.6 0-32 14.4-32 32 0 .9 0 1.8.1 2.7l.1 1-1 .1c-51.9 11.7-93.6 13.6-127.9 13.6z"/>
  <g fill="#483573">
    <path d="M290.3 34.9c-6 0-10-4.4-10-9.7 0-5.3 4-9.8 10-9.7H347c6 0 10 4.4 10 9.7 0 5.3-4 9.7-10 9.7h-56.7zm0-17c-4.8 0-7.7 3.3-7.7 7.3 0 4.1 2.9 7.4 7.7 7.3h56.6c4.8 0 7.7-3.3 7.7-7.3 0-4.1-2.9-7.3-7.7-7.3h-56.6z"/>
    <path d="M287.9 20.6h2.8l3.8 6.4v-6.4h2.7v9.2h-2.7l-3.9-6.4v6.4h-2.8l.1-9.2zm24.3 1h2.7v1.2h1.4v.9h-1.4v6.1h-2.7v-6.1h-1.5v-.9h1.5v-1.2zm-13.4 2.1h2.7v6.1h-2.7v-6.1zm0-3.1h2.7v1.9h-2.7v-1.9zm46.8 2.7c-2.2 0-3.9 1.5-3.9 3.4s1.8 3.4 3.9 3.4c2.2 0 3.9-1.5 3.9-3.4.1-1.9-1.7-3.4-3.9-3.4m1.1 3.4V28c0 1-.6 1.4-1.1 1.4-.5 0-1.1-.4-1.1-1.4v-2.6c0-1 .6-1.4 1.1-1.4.5 0 1.1.4 1.1 1.4v1.3zm-8.5 0v-1.1c0-.9-.6-1.2-1-1.2s-1 .2-1 1.2v2.2c0 .9.6 1.2 1 1.2s1-.2 1-1.2v-1.1zm0-6.1h2.6v9.2h-2.6v-.4c-1 .7-2.2.7-3.1.2-.2-.1-1.8-.9-1.8-3 0-1.6 1.5-3.4 3.4-3.2.6.1 1.1.3 1.5.5v-3.3zm-30.5 2.8c1 0 3 .6 3 3.1v3.3H308v-4c0-.5-.5-1.1-1.2-1.1s-1.3.6-1.3 1.1v4h-2.7v-6.1h2.7v.6c.6-.5 1.3-.9 2.2-.9m21.7 0c1 0 3 .6 3 3.1v3.3h-2.7v-4c0-.5-.5-1.1-1.2-1.1s-1.3.6-1.3 1.1v4h-2.7v-6.1h2.7v.6c.6-.5 1.4-.9 2.2-.9m-8.4 4.3v.4c0 1.1-.7 1.4-1.1 1.4-.4 0-1.1-.2-1.1-1.4v-1.3h5c0-1.9-1.8-3.5-3.9-3.5-2.2 0-3.9 1.5-3.9 3.4s1.8 3.4 3.9 3.4c1.8 0 3.3-1.1 3.8-2.5l-2.7.1zm-2.2-1.9c0-.5 0-.9.2-1.2.2-.4.6-.6.9-.6.3 0 .7.2.9.6.2.3.2.7.2 1.2h-2.2zm31.3-4.2c.3 0 .5 0 .5-.3s-.2-.3-.4-.3h-.4v.6h.3zm-.4 1.2h-.3v-2.1h.8c.5 0 .7.2.7.6 0 .4-.2.5-.5.6l.6.9h-.3l-.5-.9h-.4v.9h-.1z"/>
    <path d="M350.1 23.3c.8 0 1.4-.6 1.4-1.5s-.6-1.5-1.4-1.5c-.8 0-1.4.6-1.4 1.5 0 .8.6 1.5 1.4 1.5m-1.8-1.5c0-1 .8-1.8 1.8-1.8s1.8.8 1.8 1.8-.8 1.8-1.8 1.8-1.8-.8-1.8-1.8"/>
  </g>
  <path fill="#f2a136" d="M264.2 401.1c-20.1 1.6-38.4 1.9-55.2 1.8-16.9.1-35.1-.3-55.2-1.8 8.1 8.9 29.7 15.3 55.2 15.3 25.4.1 47.1-6.3 55.2-15.3"/>
  <path fill="#e58b48" d="M247.6 403.4c-14.1 1.1-26.9 1.3-38.7 1.3-11.8 0-24.6-.2-38.7-1.3 5.7 6.3 20.8 10.7 38.6 10.7 17.9.1 33.1-4.4 38.8-10.7"/>
  <circle cx="209" cy="228" r="116.5"/>
  <path fill="#393939" d="M247.4 286l22.2 29.1-.1-.1c-17.2 12-38.1 19-60.6 19-22.4 0-43.2-7-60.4-18.9l22.2-29.1c10.9 7.3 24 11.5 38.1 11.5 14.3 0 27.5-4.3 38.5-11.8l.1.3z"/>
  <path fill="#cbc9e0" d="M174.4 296.3L156.3 320c15.5 8.9 33.5 14 52.7 14 22.5 0 43.4-7 60.6-19l-18.3-24c-11.6 9.2-27.3 14.5-42.3 14.5-12.6 0-24.4-3.3-34.6-9.2"/>
  <path fill="#b7b7b7" fill-rule="evenodd" d="M217.7 208.2v-1.3H214c-.5 0-.9.1-1.3.3-.4.2-.7.4-.9.8-.2.3-.3.7-.4 1v4c0 .4.1.7.3 1 .2.3.6.6.9.8.4.2.8.3 1.3.3h3.7v-1.3H214c-.3 0-.6-.1-.8-.2-.2-.2-.3-.3-.3-.6v-1.5h4.7v-1.3H213v-1.1c0-.3.1-.5.3-.6.2-.2.5-.2.8-.2h3.6v-.1zm14.4 6.9v-8.2h-1.6v5.2l-2.7-5.2h-2.2v8.2h1.6v-6.4l3.3 6.4m9.5-8.2v8.2h3.9c.5 0 .9-.1 1.3-.3.4-.2.7-.4 1-.8.2-.3.3-.7.4-1.1V209c0-.4-.1-.7-.4-1-.2-.3-.6-.6-1-.8-.4-.2-.8-.3-1.3-.3H240zm4.7 1.5c.2.2.3.4.4.6v3.9c0 .3-.1.5-.4.6-.2.2-.5.3-.8.3h-2.3v-5.6h2.3c.3 0 .5.1.8.2zm14.7-1.3c-.4-.2-.8-.3-1.3-.3h-1.4c-.5 0-.9.1-1.3.3-.4.2-.7.4-1 .8-.2.3-.4.7-.4 1.1v4.1c0 .4.1.7.4 1 .2.3.6.6 1 .8.4.2.8.3 1.3.3h1.4c.5 0 .9-.1 1.3-.3.4-.2.7-.4 1-.8.2-.3.4-.7.4-1V209c0-.4-.1-.8-.4-1.1-.3-.3-.6-.6-1-.8zm-.6 1.3c.2.2.4.4.4.6v4c0 .2-.1.4-.4.6-.2.2-.5.3-.8.3h-1.3c-.3 0-.6-.1-.8-.3-.2-.2-.3-.4-.3-.6v-4c0-.2.1-.4.3-.6.2-.2.5-.2.8-.3h1.3c.3 0 .6.1.8.3zm-7.4 20.2h11.4v-2.4h-8.4v-2h4.8V222h-4.8v-1.8h8.3V218h-11.3m-1.2 2.2c0-.7-.2-1.3-.6-1.7-.4-.4-1.1-.6-2-.6h-9.3v10.6h8.6c2.3 0 3.4-.8 3.4-2.3v-1.3c0-.9-.4-1.5-1.2-1.9.7-.3 1.1-.9 1.1-1.7v-1.1zm-2.9.1c.1.1.2.2.1.4v1c0 .1 0 .3-.1.3l-.7.1h-5.3v-1.9h5.3c.4-.1.7 0 .7.1zm-6 6v-2.1h5.3c.4 0 .6.1.8.1.1.1.2.3.2.5v.8c0 .2-.1.4-.2.5-.1.1-.4.2-.8.2h-5.3zM237 218h-3v8.2h-6.4V218h-3v8c0 .7.1 1.2.3 1.6.2.4.5.7.9.8.4.2 1 .3 1.7.2h6.6c.7 0 1.3-.1 1.7-.2.4-.2.7-.4.9-.8.2-.4.3-.9.3-1.6v-8zm-13.8 1.1c-.2-.4-.5-.7-.9-.8-.4-.2-1-.2-1.7-.2h-6.5c-.7 0-1.3.1-1.7.2-.4.2-.7.4-.9.8-.2.4-.3.9-.3 1.6v5.3c0 .7.1 1.2.3 1.6.2.4.5.7.9.8.4.2 1 .3 1.7.2h6.5c.7 0 1.3-.1 1.7-.2.4-.2.7-.4.9-.8.2-.4.3-.9.3-1.6v-2h-3v2.2h-6.3v-5.9h6.3v1.9h3v-1.6c0-.6-.1-1.2-.3-1.5zm-25.4 9.5h11.4v-2.4h-8.4v-2h4.8V222h-4.8v-1.8h8.3V218h-11.3m-38.1-11.1h-2.2v8.2h1.6v-6.4l3.3 6.4h1.6v-8.2h-1.6v5.2m10.6 3h1.8v-8.2H173m17.4 8.2v-8.2h-1.7v5.2l-2.7-5.2h-2.2v8.2h1.7v-6.4l3.3 6.4m11.5 0h1.7v-6.9h2.8v-1.3h-7.2v1.3h2.7m-18.2 9.8v8.7l-5.3-8.7h-2.6l-6.4 10.6h8v-2.4h-3.6l3.3-5.3 4.4 7.7h4.9v-5.7l3.4 5.7h2.2l3.4-5.7v5.7h2.7V218h-2.7l-4.5 7.5-4.5-7.5m-16.7 2.3V218h-10c-.7 0-1.3.1-1.7.2-.4.2-.7.4-.9.8-.2.4-.3.9-.3 1.6v5.3c0 .7.1 1.2.3 1.6.2.4.5.7.9.8.4.2 1 .3 1.7.2h7.3c1 0 1.8-.2 2.2-.6.4-.4.6-1.1.6-2.1V222h-6.9v2.2h4v1.8h-7.1v-5.9h9.9v.2z"/>
  <path fill="#b7b7b7" d="M61.6 79.2c.9-2.5 1.3-3.8 2.2-6.3.7.2 1 .4 1.7.7l1.2.6c.3.2.4.6.5.9 0 .4-.1.8-.3 1.3-.2.4-.5.8-.8 1-.3.2-.6.3-.9.4-.3 0-.7-.1-1.3-.3-.2-.1-.4-.1-.6-.2-.4.9-.5 1.4-.9 2.4-.2-.3-.4-.3-.8-.5zm2.9-4.8c-.3.7-.4 1.1-.7 1.8.2.1.3.1.5.2.4.1.6.2.8.2.2 0 .3 0 .4-.1.1-.1.3-.3.4-.5.1-.2.1-.4.1-.6 0-.2-.1-.3-.2-.4-.1-.1-.4-.3-.8-.4-.2-.1-.3-.1-.5-.2zm4 4.4c.4-.7.8-1.2 1.3-1.5.5-.3.9-.5 1.4-.5.5 0 .9.2 1.4.5.6.5 1 1.1 1 1.9 0 .8-.4 1.6-1.1 2.4-.7.9-1.5 1.4-2.2 1.6-.6.2-1.2.1-1.7-.3s-.8-.9-.8-1.6c-.1-.7.1-1.5.7-2.5zm.9.5c-.4.7-.6 1.2-.6 1.7s.1.8.4 1c.3.2.7.2 1.1.1.4-.2.9-.5 1.4-1.2.5-.6.7-1.1.8-1.6 0-.5-.2-.8-.5-1.1-.4-.3-.8-.3-1.2-.2-.5.3-1 .7-1.4 1.3zm3.1 7c1.7-2.1 2.4-3.3 3.9-5.5l.8.8c-1.1 1.5-1.7 2.2-2.8 3.7 1.6-1 2.4-1.4 4.1-2.3.3.4.5.6.8 1-1.2 1.5-1.9 2.2-3.2 3.6 1.7-.9 2.5-1.3 4.3-2.1.3.4.4.6.6.9-2.5 1-3.8 1.6-6.2 2.8-.2-.3-.3-.5-.6-.8 1.4-1.5 2-2.3 3.3-3.9-1.8 1-2.7 1.5-4.4 2.5-.2-.3-.3-.4-.6-.7zm4.1 5.6c2.3-1.3 3.5-1.9 5.9-3.2.8 1.4 1.1 2.2 1.8 3.7-.4.2-.6.3-1.1.4-.4-1.1-.7-1.6-1.2-2.6-.5.3-.8.4-1.3.7.5.9.7 1.4 1.1 2.3-.4.2-.6.3-1 .4-.4-.9-.6-1.4-1-2.3l-1.6.8c.5.9.7 1.4 1.1 2.4-.4.2-.6.3-1.1.4-.7-1.2-1-1.8-1.6-3zm2.2 5.4c2.6-.8 3.9-1.1 6.4-1.9.3.9.4 1.4.6 2.3.1.6.2 1 .1 1.3-.1.3-.2.5-.5.7-.3.2-.6.3-1 .4-.5.1-1 0-1.3-.2-.4-.2-.6-.5-.8-.9-.1.2-.3.5-.5.6-.2.2-.5.4-1 .7-.5.3-.7.5-1.2.8-.1-.4-.1-.7-.2-1.1.5-.4.8-.6 1.3-.9.5-.4.8-.6.9-.7.1-.1.2-.2.2-.4v-.5c0-.1 0-.1-.1-.2-1.1.3-1.6.4-2.7.7 0-.2-.1-.3-.2-.7zm4-.1c.1.3.1.5.2.8.1.5.2.8.3.9l.3.3c.1.1.3.1.5 0 .2 0 .4-.1.5-.2.1-.1.2-.2.2-.4 0-.1 0-.4-.1-.9-.1-.3-.1-.5-.2-.8-.7.1-1 .2-1.7.3zM58 354.1c.5-2.4.7-3.6 1.2-6.1 1.3.3 1.9.4 3.2.8.8.2 1.3.5 1.6.7.3.2.5.5.6.8.1.3.1.7-.1 1-.2.4-.5.7-.9.9-.4.2-.9.2-1.5.1.2.2.4.5.5.7.1.2.2.6.3 1.2.1.6.2.8.2 1.4-.5-.2-.8-.3-1.4-.6-.2-.6-.2-.9-.4-1.6-.2-.6-.3-.9-.4-1.1-.1-.2-.2-.3-.3-.4-.1-.1-.3-.2-.7-.2-.1 0-.2 0-.3-.1-.2 1-.4 1.5-.6 2.5-.2.2-.5.1-1 0zm2.1-3.2c.4.1.6.2 1 .3.6.2 1 .3 1.2.3.2 0 .3 0 .5-.1.1-.1.3-.2.3-.4.1-.2.1-.4 0-.5-.1-.2-.2-.3-.4-.4-.1-.1-.5-.2-1.2-.4-.5-.1-.7-.2-1.1-.3-.1.6-.1.9-.3 1.5zm3.8 5.1c1.1-2.2 1.6-3.4 2.6-5.6 2 1 3 1.5 4.8 2.8-.2.3-.4.5-.6.9-1.3-.9-2-1.3-3.4-2.1-.3.5-.4.7-.6 1.2 1.2.7 1.8 1 3 1.8-.2.3-.4.5-.6.9-1.1-.8-1.7-1.1-2.9-1.8-.3.6-.5.9-.8 1.5 1.3.7 1.9 1 3 1.9-.2.3-.4.5-.6.9-1.4-1.1-2.2-1.6-3.9-2.4zm5.8 1.2c.4.3.7.4 1.1.7-.4.7-.3 1.3.3 1.8.3.3.6.4.8.5.3 0 .5 0 .7-.2.1-.1.2-.2.2-.3 0-.1 0-.3-.1-.4-.1-.2-.3-.5-.7-1.1-.3-.5-.6-.9-.7-1.2-.1-.3-.2-.6-.1-.9 0-.3.1-.6.3-.8.2-.3.5-.4.8-.5.3-.1.7 0 1.1.1.4.2.8.4 1.2.8.7.6 1 1.2 1.1 1.8.1.6-.1 1.1-.5 1.5l-1-1c.2-.3.3-.5.2-.8-.1-.2-.2-.5-.5-.8-.3-.3-.6-.4-.8-.5-.2-.1-.4 0-.5.1-.1.1-.1.3-.1.5.1.2.3.6.7 1.1.4.6.6 1.1.7 1.4.1.3.1.7 0 .9-.1.3-.3.6-.5.8-.4.4-.9.5-1.4.5-.5 0-1.1-.4-1.7-.9-1.1-.8-1.3-1.9-.6-3.1zm3.1 5.7c1.9-1.6 2.9-2.3 4.8-3.9 1.4 1.7 2.1 2.7 3.1 4.7-.4.2-.5.3-.9.5-.8-1.4-1.2-2.1-2.1-3.3-.4.3-.7.5-1.1.8.8 1.1 1.2 1.7 1.9 3-.4.2-.5.3-.9.5-.7-1.2-1-1.8-1.8-2.8-.5.4-.8.6-1.4 1 .8 1.1 1.2 1.7 1.9 3-.4.2-.6.3-.9.5-.9-1.7-1.5-2.5-2.6-4zm3.6 6.1c1.9-.8 2.8-1.2 4.7-2-.3-.8-.5-1.2-.9-2 .4-.2.6-.3.9-.5 1.1 2.2 1.6 3.3 2.3 5.7-.4.1-.6.2-1 .3-.2-.9-.4-1.3-.7-2.1-1.9.7-2.9 1.1-4.8 1.8-.2-.5-.3-.8-.5-1.2zm263.8 2.7c-.6-.1-1.1-.3-1.4-.6-.3-.4-.6-.8-.7-1.3-.1-.5-.1-1.2.1-1.9.3-1 .8-1.8 1.4-2.2.6-.4 1.4-.5 2.1-.2.8.3 1.2.9 1.5 1.6.2.6.2 1.3 0 2.1s-.5 1.5-1 1.9c-.6.5-1.2.7-2 .6zm.1-1.3c.6.1 1 0 1.4-.3.3-.3.6-.6.7-1.1.1-.5.1-.9-.1-1.3s-.5-.7-1.1-.9c-.5-.2-1-.2-1.4.1-.4.3-.6.7-.8 1.2-.2.6-.1 1.1.1 1.5.3.4.7.6 1.2.8zm4.2-4.8c-1.8-.9-2.7-1.3-4.5-2.1.4-.9.6-1.3 1.1-2.1.5-.8.8-1.2 1-1.4.3-.3.7-.5 1-.6.4-.1.7 0 1 .3.3.2.5.5.5.8.1.3 0 .6-.1 1-.1.3-.4.8-.8 1.5-.2.3-.3.4-.4.7.7.4 1 .5 1.7.9l-.5 1zm-3.1-3c.5.3.7.4 1.2.7.1-.3.2-.4.4-.6.3-.4.4-.7.5-.9.1-.2.1-.3.1-.5s-.1-.3-.2-.4c-.1-.1-.3-.1-.5-.1s-.3.1-.4.3c-.1.1-.4.4-.7 1-.2.1-.3.2-.4.5zm6-1.5c-1.5-1.3-2.3-2-3.8-3.3 1.4-1.6 2.2-2.4 3.9-3.7.2.3.3.4.5.7-1.2.9-1.8 1.4-2.9 2.5l.8.8c.9-1 1.4-1.4 2.5-2.2.2.3.3.4.5.7-1 .8-1.5 1.2-2.4 2.2.4.4.6.6 1 .9.9-1 1.5-1.4 2.6-2.2.2.3.3.4.5.7-1.4.9-2 1.5-3.2 2.9zm4.1-3.6c-1.1-1.7-1.7-2.5-2.8-4.1.5-.3.7-.5 1.2-.8 1.7.5 2.5.9 4 1.7-.5-1.2-.8-1.8-1.3-3.1.5-.2.8-.3 1.3-.5.7 1.9 1 2.8 1.7 4.7-.5.2-.7.3-1.1.5-1.4-.8-2.2-1.1-3.8-1.7.7 1.1 1 1.7 1.7 2.8-.3.1-.5.2-.9.5z"/>
  <path fill="#d8d8d8" d="M369.5 448.5h-321c-2.5 0-4.5-2-4.5-4.5h330c0 2.5-2 4.5-4.5 4.5z"/>
  <path fill="#7b79aa" d="M835.05100344 300.48177412c0 79.2556102-64.29750912 143.55311932-143.55311932 143.55311932s-143.77637456-64.29750912-143.77637456-143.55311932 64.52076436-143.77637456 143.77637456-143.77637456c79.2556102 0 143.55311932 64.29750912 143.55311932 143.77637456zM711.14434524 258.509789c-6.02789148-2.90231812-12.72554868-4.4651048-19.64646112-4.4651048-25.45109736 0-46.21383468 20.76273732-46.21383468 46.21383468s20.76273732 46.43708992 46.21383468 46.43708992 46.21383468-20.76273732 46.21383468-46.21383468c0-18.53018492-10.93950676-34.38130696-26.56737356-41.97198512"/>
  <path fill="#0f1417" d="M691.49788412 448.49999824c-81.71141784 0-148.01822412-66.53006152-148.01822412-148.01822412 0-81.4881626 66.30680628-148.01822412 148.01822412-148.01822412 81.71141784 0 148.01822412 66.30680628 148.01822412 148.01822412 0 81.71141784-66.53006152 148.01822412-148.01822412 148.01822412zm0-295.813193c-81.4881626 0-147.79496888 66.30680628-147.79496888 147.79496888S610.00972152 448.276743 691.49788412 448.276743 839.292853 381.96993672 839.292853 300.48177412s-66.30680628-147.79496888-147.79496888-147.79496888z"/>
  <path fill="#a198a0" d="M691.49788412 326.15612672c-14.06508012 0-25.6743526-11.60927248-25.6743526-25.6743526s11.60927248-25.6743526 25.6743526-25.6743526 25.6743526 11.60927248 25.6743526 25.6743526-11.60927248 25.6743526-25.6743526 25.6743526zm0-49.56266328c-13.17205916 0-23.88831068 10.71625152-23.88831068 23.88831068s10.71625152 23.88831068 23.88831068 23.88831068 23.88831068-10.71625152 23.88831068-23.88831068-10.71625152-23.88831068-23.88831068-23.88831068z"/>
  <path fill="#a198a0" d="M691.49788412 321.24451144c-11.38601724 0-20.76273732-9.37672008-20.76273732-20.76273732s9.37672008-20.76273732 20.76273732-20.76273732 20.76273732 9.37672008 20.76273732 20.76273732-9.37672008 20.76273732-20.76273732 20.76273732zm0-39.73943272c-10.49299628 0-18.9766954 8.48369912-18.9766954 18.9766954s8.48369912 18.9766954 18.9766954 18.9766954 18.9766954-8.48369912 18.9766954-18.9766954-8.48369912-18.9766954-18.9766954-18.9766954z"/>
  <path fill="#cbc9e0" d="M737.04195308 300.48177412c0 25.22784212-20.31622684 45.54406896-45.54406896 45.54406896s-45.54406896-20.31622684-45.54406896-45.54406896 20.31622684-45.54406896 45.54406896-45.54406896 45.54406896 20.31622684 45.54406896 45.54406896zm-45.54406896-39.73943272c-21.87901352 0-39.73943272 17.63716396-39.73943272 39.73943272 0 22.10226876 17.8604192 39.51617748 39.73943272 39.51617748 21.87901352 0 39.51617748-17.63716396 39.51617748-39.51617748 0-21.87901352-17.63716396-39.73943272-39.51617748-39.73943272z"/>
  <path d="M691.49788412 346.6956088c-25.45109736 0-46.21383468-20.76273732-46.21383468-46.21383468s20.76273732-46.21383468 46.21383468-46.21383468 46.21383468 20.76273732 46.21383468 46.21383468-20.76273732 46.21383468-46.21383468 46.21383468zm0-91.08813792c-24.78133164 0-44.87430324 20.0929716-44.87430324 44.87430324 0 24.78133164 20.0929716 44.87430324 44.87430324 44.87430324 24.78133164 0 44.87430324-20.0929716 44.87430324-44.87430324 0-24.78133164-20.0929716-44.87430324-44.87430324-44.87430324z"/>
  <path d="M658.4561086 332.63052868c8.48369912 8.70695436 20.0929716 14.06508012 33.04177552 14.06508012 12.94880392 0 24.78133164-5.35812576 33.04177552-14.06508012H831.4789196c-14.73484584 63.85099864-71.88818728 111.40436476-139.98103548 111.40436476-68.31610344 0-125.46944488-47.55336612-139.98103548-111.40436476"/>
  <g fill="#fff" fill-rule="evenodd">
    <path d="M675.2002516 362.10022036l-4.91161528 8.9302096h6.25114672v-2.00929716h-2.90231812l2.67906288-4.4651048 3.57208384 6.47440196h2.67906288l-5.13487052-8.9302096h-2.2325524"/>
    <path d="M693.28392604 362.10022036h-2.2325524l-3.57208384 6.47440196-3.57208384-6.47440196h-2.2325524v8.9302096h2.2325524v-4.68836004l2.67906288 4.68836004h1.78604192l2.67906288-4.68836004v4.68836004h2.2325524m-22.77203448-5.35812576h-5.581381v1.78604192h3.12557336v1.56278668h-5.80463624v-4.91161528h8.03718864v-2.00929716h-8.03718864c-1.78604192 0-2.2325524.44651048-2.2325524 2.2325524v4.4651048c0 1.56278668.44651048 2.2325524 2.2325524 2.2325524h5.80463624c1.78604192 0 2.2325524-.44651048 2.2325524-2.2325524v-3.12557336h.22325524zm42.19524036-3.57208384h-5.13487052c-1.78604192 0-2.2325524.44651048-2.2325524 2.2325524v4.4651048c0 1.56278668.44651048 2.2325524 2.2325524 2.2325524h5.13487052c1.78604192 0 2.2325524-.44651048 2.2325524-2.2325524v-1.56278668h-2.45580764v1.78604192h-5.13487052v-4.91161528h5.13487052v1.56278668h2.45580764v-1.33953144c0-1.56278668-.66976572-2.2325524-2.2325524-2.2325524zm10.71625152 6.92091244h-5.13487052v-6.92091244h-2.45580764v6.6976572c0 1.56278668.44651048 2.2325524 2.2325524 2.2325524h5.35812576c1.78604192 0 2.2325524-.44651048 2.2325524-2.2325524v-6.6976572h-2.45580764v6.92091244h.22325524zm12.05578296-2.45580764c.66976572-.22325524.89302096-.66976572.89302096-1.33953144v-1.1162762c0-1.33953144-.66976572-1.78604192-2.00929716-1.78604192h-7.36742292v8.9302096h6.92091244c1.78604192 0 2.67906288-.66976572 2.67906288-1.78604192v-1.1162762c-.22325524-.89302096-.44651048-1.56278668-1.1162762-1.78604192zm-6.25114672-2.67906288h4.24184956c.66976572 0 .66976572.22325524.66976572.44651048v.89302096c0 .22325524 0 .44651048-.66976572.44651048h-4.24184956v-1.78604192zm4.91161528 4.68836004c0 .44651048 0 .44651048-.66976572.44651048h-4.24184956v-1.78604192h4.24184956c.66976572 0 .66976572.22325524.66976572.44651048v.89302096zm5.581381-1.1162762h3.79533908v-2.00929716h-3.79533908v-1.33953144h6.6976572v-2.00929716h-9.15346484v8.9302096h9.15346484v-2.00929716h-6.6976572v-1.56278668m-43.08826132 0h4.01859432v-2.00929716h-4.01859432v-1.33953144h6.6976572v-2.00929716H694.176947v8.9302096h9.15346484v-2.00929716h-6.6976572v-1.56278668m23.88831068-7.59067816h1.33953144v-6.92091244h-1.33953144v4.4651048l-2.2325524-4.4651048H716.502471v6.92091244h1.33953144v-5.35812576m-33.488286 5.35812576v-5.35812576l2.67906288 5.35812576h1.33953144v-6.92091244h-1.33953144v4.4651048l-2.2325524-4.4651048H683.014185v6.92091244m-19.86971636 0v-5.35812576l2.67906288 5.35812576h1.33953144v-6.92091244h-1.33953144v4.4651048l-2.2325524-4.4651048h-1.78604192v6.92091244m14.06508012-6.92091244h-1.56278668v6.92091244h1.56278668v-6.92091244m23.88831068 0h-5.581381v1.1162762h2.2325524v5.80463624h1.33953144v-5.80463624h2.00929716m31.47898884 5.80463624c1.1162762 0 2.2325524-.89302096 2.2325524-1.78604192v-3.3488286c0-.89302096-.89302096-1.78604192-2.2325524-1.78604192h-3.12557336v6.6976572h3.12557336v.22325524zm-1.78604192-5.80463624h1.78604192c.44651048 0 .89302096.44651048.89302096.66976572v3.12557336c0 .44651048-.44651048.66976572-.89302096.66976572h-1.78604192v-4.4651048zm15.40461156.66976572c0-.89302096-.89302096-1.78604192-2.2325524-1.78604192h-1.1162762c-1.1162762 0-2.2325524.89302096-2.2325524 1.78604192v3.3488286c0 .89302096.89302096 1.78604192 2.2325524 1.78604192h1.1162762c1.1162762 0 2.2325524-.89302096 2.2325524-1.78604192v-3.3488286zm-1.33953144 3.3488286c0 .44651048-.44651048.66976572-.89302096.66976572h-1.1162762c-.44651048 0-.89302096-.44651048-.89302096-.66976572v-3.3488286c0-.44651048.44651048-.66976572.89302096-.66976572h1.1162762c.44651048 0 .89302096.22325524.89302096.66976572v3.3488286zm-38.39990128 0c0 .89302096.89302096 1.78604192 2.00929716 1.78604192h2.90231812v-1.1162762h-2.90231812c-.44651048 0-.89302096-.22325524-.89302096-.66976572v-1.33953144h3.79533908v-1.1162762h-3.57208384v-.89302096c0-.44651048.44651048-.66976572.89302096-.66976572h2.90231812v-1.1162762h-2.90231812c-1.1162762 0-2.00929716.89302096-2.00929716 1.78604192l-.22325524 3.3488286zm42.4184956 10.93950676h1.78604192v.44651048h-.66976572v1.56278668h-.44651048v-1.56278668h-.66976572m2.45580764-.44651048l.44651048 1.56278668.44651048-1.56278668h.44651048v2.00929716h-.22325524v-1.56278668h-.22325524l-.22325524 1.56278668h-.44651048l-.44651048-1.56278668v1.56278668h-.22325524v-2.00929716m-112.29738572-3.12557336l5.13487052 2.90231812v-5.80463624l-5.13487052-2.90231812v5.80463624"/>
    <path d="M631.6654798 356.7420946l3.57208384 2.00929716v8.26044388l7.14416768 4.24184956v4.24184956l-10.71625152-6.25114672m11.162762-13.17205916l-4.91161528 2.90231812 4.91161528 3.12557336 5.13487052-3.12557336-5.13487052-2.90231812"/>
    <path d="M632.11199028 355.84907364l3.57208384 2.00929716 7.14416768-4.24184956 6.25114672 3.57208384 3.57208384-2.00929716-9.82323056-5.581381m7.8139334 17.41390872v-4.24184956l-2.2325524 1.33953144v1.78604192l-4.91161528 2.90231812v-5.80463624l10.71625152-6.25114672v12.50229344l-10.71625152 6.25114672v-4.24184956l7.14416768-4.24184956"/>
  </g>
  <path fill="#fff" d="M595.27487568 369.69089852h.66976572c0 .22325524 0 .22325524.22325524.44651048 0 0 .22325524.22325524.44651048.22325524h.44651048l.22325524-.22325524v-.22325524s-.22325524 0-.44651048-.22325524h-.44651048c-.22325524 0-.44651048-.22325524-.66976572-.22325524-.22325524-.22325524-.22325524-.44651048-.22325524-.66976572 0-.22325524 0-.66976572.22325524-.66976572.22325524-.22325524.44651048-.22325524.89302096-.22325524s.66976572 0 .89302096.22325524c.22325524.22325524.22325524.44651048.22325524.66976572h-.66976572c0-.22325524 0-.22325524-.22325524-.44651048 0 0-.22325524-.22325524-.44651048-.22325524h-.44651048l-.22325524.22325524v.22325524h.89302096c.22325524 0 .44651048.22325524.66976572.22325524.22325524.22325524.22325524.44651048.22325524.66976572 0 .44651048 0 .66976572-.22325524.89302096-.22325524.22325524-.44651048.22325524-.89302096.22325524s-.66976572 0-.89302096-.22325524c0 0-.22325524-.22325524-.22325524-.66976572zm4.68836004.44651048c0 .22325524-.22325524.44651048-.44651048.66976572-.22325524.22325524-.44651048.22325524-.66976572.22325524-.22325524 0-.44651048-.22325524-.66976572-.44651048-.22325524-.22325524-.22325524-.44651048-.22325524-.89302096s0-.66976572.22325524-.89302096c.22325524-.22325524.44651048-.44651048.66976572-.44651048.22325524 0 .66976572.22325524.66976572.44651048.22325524.22325524.22325524.66976572.22325524.89302096l.22325524.44651048-1.33953144-.22325524c0 .22325524 0 .22325524.22325524.44651048l.22325524.22325524h.22325524l.22325524-.22325524.44651048-.22325524zm-1.33953144-.66976572h.89302096c0-.22325524 0-.22325524-.22325524-.44651048l-.22325524-.22325524c-.22325524 0-.22325524 0-.22325524.22325524-.22325524 0-.22325524.22325524-.22325524.44651048zm3.57208384.89302096c0 .22325524 0 .22325524 0 0v.22325524h-.66976572v-.22325524c0 .22325524-.22325524.22325524-.22325524.22325524h-.44651048c-.22325524 0-.44651048 0-.44651048-.22325524-.22325524-.22325524-.22325524-.22325524-.22325524-.66976572 0-.22325524 0-.44651048.22325524-.44651048s.22325524-.22325524.66976572-.22325524h.22325524c.22325524 0 .44651048-.22325524.44651048-.22325524v-.22325524h-.44651048v.22325524h-.44651048c0-.22325524 0-.44651048.22325524-.66976572.22325524-.22325524.44651048-.22325524.66976572-.22325524h.44651048c.22325524 0 .22325524 0 .22325524.22325524 0 0 0 .22325524.22325524.22325524v.44651048l-.44651048 1.56278668zm-.66976572-.66976572s-.22325524 0-.44651048.22325524h-.44651048v.44651048h.22325524c.22325524 0 .22325524 0 .44651048-.22325524.22325524 0 .22325524-.22325524.22325524-.44651048zm1.1162762 1.1162762v-3.12557336h.44651048v3.12557336h-.44651048z"/>
  <path fill="#fff" d="M620.05620732 362.10022036l2.2325524 2.45580764-3.12557336 1.78604192.89302096 3.57208384h-3.3488286l-.22325524 4.01859432-3.79533908-1.1162762-.66976572 3.79533908-3.57208384-1.33953144-1.78604192 3.3488286-2.67906288-2.45580764-2.45580764 3.3488286-2.67906288-2.90231812-2.90231812 2.67906288-1.78604192-3.12557336-3.3488286 2.00929716-1.1162762-3.57208384-4.01859432 1.56278668-.66976572-3.57208384-3.57208384.66976572.44651048-3.57208384h-3.57208384l.89302096-3.79533908-2.67906288-1.56278668 2.2325524-2.45580764-2.00929716-3.57208384 3.12557336-1.1162762-.89302096-3.79533908h3.57208384l.44651048-3.79533908 3.12557336 1.1162762 1.1162762-3.57208384 3.3488286 1.78604192 1.33953144-3.12557336 2.90231812 2.00929716 2.00929716-3.12557336 2.67906288 2.67906288 2.2325524-2.45580764 2.00929716 3.12557336 3.12557336-2.00929716 1.33953144 3.3488286 3.12557336-1.56278668.89302096 3.57208384 3.79533908-.66976572-.22325524 3.3488286 3.79533908.44651048-1.1162762 3.3488286 3.3488286 1.33953144-1.78604192 2.90231812zm-2.2325524 0c0-7.14416768-8.26044388-12.94880392-18.53018492-12.94880392s-18.53018492 5.80463624-18.53018492 12.94880392 8.26044388 12.94880392 18.53018492 12.94880392 18.53018492-5.80463624 18.53018492-12.94880392z"/>
  <path fill="#fff" d="M593.26557852 355.6258184c0-.89302096.44651048-1.1162762.89302096-1.1162762s.89302096.22325524.89302096 1.1162762-.44651048 1.1162762-.89302096 1.1162762c-.44651048-.22325524-.89302096-.44651048-.89302096-1.1162762zm-.66976572 0c0 1.33953144 1.1162762 1.56278668 1.56278668 1.56278668.44651048 0 1.56278668-.22325524 1.56278668-1.56278668s-1.1162762-1.56278668-1.56278668-1.56278668c-.44651048 0-1.56278668 0-1.56278668 1.56278668zm4.01859432 1.33953144h-.66976572v-1.78604192h-.22325524v-.44651048h.22325524v-.22325524c0-.44651048.22325524-.66976572.66976572-.66976572h.22325524v.44651048h-.22325524c-.22325524 0-.22325524 0-.22325524.22325524h.44651048v.44651048h-.44651048l.22325524 2.00929716zm1.33953144 0h-.66976572v-1.78604192h-.22325524v-.44651048h.22325524v-.22325524c0-.44651048.22325524-.66976572.66976572-.66976572h.22325524v.44651048h-.22325524c-.22325524 0-.22325524 0-.22325524.22325524h.44651048v.44651048h-.44651048l.22325524 2.00929716zm1.1162762-2.2325524v2.2325524h-.66976572v-2.2325524h.66976572zm0-.22325524h-.66976572v-.44651048h.66976572v.44651048zm2.45580764 1.78604192c0 .22325524-.22325524.89302096-1.1162762.89302096s-1.1162762-.66976572-1.1162762-1.1162762c0-.66976572.22325524-1.33953144 1.1162762-1.33953144.44651048 0 .89302096.22325524.89302096.89302096h-.66976572c0-.22325524-.22325524-.44651048-.44651048-.44651048-.44651048 0-.44651048.44651048-.44651048.66976572 0 .22325524 0 .66976572.44651048.66976572.22325524 0 .44651048-.22325524.44651048-.44651048l.89302096.22325524zm.89302096-1.56278668v2.2325524h-.66976572v-2.2325524h.66976572zm0-.22325524h-.66976572v-.44651048h.66976572v.44651048zm1.78604192 1.78604192c0 .22325524-.22325524.44651048-.44651048.44651048s-.22325524 0-.22325524-.22325524.22325524-.22325524.44651048-.44651048c.22325524 0 .44651048 0 .44651048-.22325524v.44651048h-.22325524zm.66976572-.89302096c0-.44651048-.66976572-.66976572-.89302096-.66976572-.44651048 0-.89302096 0-1.1162762.89302096h.66976572c0-.22325524 0-.22325524.44651048-.22325524.22325524 0 .44651048 0 .44651048.22325524s-.22325524.22325524-.22325524.22325524h-.44651048c-.44651048 0-.66976572.22325524-.66976572.66976572 0 .44651048.44651048.66976572.66976572.66976572.44651048 0 .66976572-.22325524.66976572-.22325524v.22325524h.66976572s-.22325524 0-.22325524-.44651048v-1.33953144zm.44651048-1.33953144h.44651048v2.90231812h-.44651048"/>
  <path fill="#fff" d="M599.29347 373.93274808c9.59997532 0 17.41390872-5.35812576 17.41390872-11.83252772s-7.8139334-11.83252772-17.41390872-11.83252772c-9.59997532 0-17.41390872 5.35812576-17.41390872 11.83252772s7.8139334 11.83252772 17.41390872 11.83252772zm-16.96739824-11.83252772c0-6.25114672 7.59067816-11.38601724 16.96739824-11.38601724 9.37672008 0 16.96739824 5.13487052 16.96739824 11.38601724 0 6.25114672-7.59067816 11.38601724-16.96739824 11.38601724-9.37672008 0-16.96739824-5.13487052-16.96739824-11.38601724z"/>
  <g fill="#fff">
    <path d="M610.23297676 366.11881468c2.00929716 0 3.57208384-1.56278668 3.57208384-3.57208384s-1.56278668-3.57208384-3.57208384-3.57208384H588.130708c-2.00929716 0-3.57208384 1.56278668-3.57208384 3.57208384s1.56278668 3.57208384 3.57208384 3.57208384h22.10226876zm-22.10226876-.89302096c-1.56278668 0-2.67906288-1.1162762-2.67906288-2.67906288s1.1162762-2.67906288 2.67906288-2.67906288h21.87901352c1.56278668 0 2.67906288 1.1162762 2.67906288 2.67906288s-1.1162762 2.67906288-2.67906288 2.67906288H588.130708z"/>
    <path d="M587.23768704 364.10951752v-3.3488286h1.1162762l1.33953144 2.2325524v-2.2325524h1.1162762v3.3488286h-1.1162762c0-.22325524-1.33953144-2.2325524-1.33953144-2.2325524v2.2325524h-1.1162762zm6.92091244-2.2325524h.44651048c.89302096-.22325524 1.33953144.22325524 1.33953144.22325524.44651048.44651048.22325524 1.33953144.22325524 2.00929716h-1.1162762v-1.56278668c0-.22325524-.22325524-.44651048-.44651048-.44651048s-.44651048.22325524-.44651048.44651048v1.56278668h-1.1162762v-2.2325524h1.1162762zm2.00929716 0v-.22325524h.44651048v-.44651048h1.1162762v.44651048h.66976572v.22325524h-.66976572v2.2325524h-1.1162762v-2.2325524m1.56278668 1.1162762c0-.66976572.66976572-1.33953144 1.33953144-1.33953144h.89302096c.22325524 0 .44651048 0 .44651048.22325524.22325524.22325524.44651048.66976572.44651048.89302096h-1.78604192c0 .22325524-.22325524.89302096.44651048.89302096.22325524 0 .22325524 0 .44651048-.22325524v-.44651048h1.1162762c-.22325524.66976572-.89302096.89302096-1.56278668.89302096-.44651048.44651048-1.56278668.22325524-1.78604192-.89302096zm1.1162762-.22325524h.66976572v-.22325524c0-.22325524-.22325524-.44651048-.44651048-.44651048l-.22325524.22325524v.44651048zm9.37672008.66976572c-.22325524-.22325524-.22325524-.66976572 0-1.1162762.22325524-.22325524.66976572-.66976572.89302096-.66976572.22325524 0 .66976572-.22325524 1.1162762 0 .22325524 0 .66976572.22325524.89302096.66976572.22325524.22325524.22325524.89302096 0 1.1162762l-.66976572.66976572c-.22325524 0-.89302096.22325524-1.1162762 0-.66976572 0-.89302096-.22325524-1.1162762-.66976572zm1.33953144.44651048c.22325524 0 .44651048-.22325524.44651048-.44651048v-1.1162762c0-.22325524 0-.44651048-.44651048-.44651048s-.44651048.22325524-.44651048.44651048v1.1162762c0 .22325524 0 .44651048.44651048.44651048zm-2.00929716.22325524h-.89302096v-.22325524c-.22325524.22325524-1.33953144.22325524-1.78604192-.66976572 0 0-.22325524-.66976572 0-1.1162762.22325524-.66976572.89302096-.66976572 1.33953144-.66976572.22325524 0 .44651048.22325524.44651048.22325524v-1.33953144h1.1162762c-.22325524.44651048-.22325524 3.79533908-.22325524 3.79533908zm-.89302096-.44651048v-1.33953144l-.22325524-.22325524c-.22325524 0-.44651048.22325524-.44651048.22325524v1.1162762s0 .22325524.22325524.22325524c0 .22325524.22325524.22325524.44651048 0zm-15.6278668-1.78604192v2.2325524h1.1162762v-2.2325524m-1.1162762-1.1162762v.66976572h1.1162762v-.66976572"/>
    <path d="M602.6422986 361.87696512c.22325524 0 .22325524 0 0 0h.44651048c.89302096-.22325524 1.33953144.22325524 1.33953144.22325524.44651048.44651048.22325524 1.33953144.22325524 2.00929716h-1.1162762v-1.56278668c0-.22325524-.22325524-.44651048-.44651048-.44651048s-.44651048.22325524-.44651048.44651048v1.56278668h-1.1162762v-2.2325524h1.1162762zm8.26044388-.44651048v-.44651048h.44651048c-.22325524.22325524-.22325524.44651048-.44651048.44651048zm0-.22325524zm0 .44651048c-.22325524 0-.22325524-.22325524-.22325524-.22325524 0-.22325524.22325524-.22325524.22325524-.22325524.22325524 0 .22325524.22325524.22325524.22325524.22325524 0 0 .22325524-.22325524.22325524zm0-.66976572c-.22325524 0-.22325524 0-.22325524.22325524s0 .22325524.22325524.22325524.22325524 0 .22325524-.22325524c0 0 0-.22325524-.22325524-.22325524z"/>
  </g>
  <path fill="#fff" d="M794.641805 340.89097256h-32.3720098v46.21383468h32.59526504v-46.21383468"/>
  <path d="M763.16282063 341.78400022H794.195299v44.42779276h-31.03247837z"/>
  <path fill="#fff" d="M764.72559837 349.15141197h27.68364976v27.46039452h-27.68364976zm1.3395359 30.3627171c0 .66976573-.22325523.89302097-.6697657.89302097-.89302097 0-.89302097-.44651048-.89302097-1.1162762v-.44651048c0-.66976572 0-1.1162762.89302096-1.1162762.44651048 0 .66976572.22325524.66976572.66976572v.22325524h-.44651048c0-.22325524 0-.44651048-.22325524-.44651048-.44651048 0-.44651048.44651048-.44651048.66976572v.66976572c0 .22325524 0 .44651048.44651048.44651048.22325524 0 .22325524-.44651048.22325524-.66976572l.44651048.22325524zm.4465105-.6697657c0-.66976573 0-1.1162762.89302095-1.1162762s.89302096.44651047.89302096 1.1162762v.44651047c0 .66976572 0 1.1162762-.89302096 1.1162762-.66976572 0-.89302096-.44651048-.89302096-1.1162762v-.44651048zm.44651047.6697657c0 .22325525 0 .4465105.44651048.4465105s.44651048-.4465105.44651048-.66976573v-.66976572c0-.22325524 0-.66976572-.44651048-.66976572s-.44651048.44651048-.44651048.66976572v.89302096zm2.90231812-1.7860419h.44651048v2.45580763h-.44651048l-.44651048-.89302096c-.22325524-.22325524-.22325524-.66976572-.44651048-.89302096v1.78604192h-.44651048v-2.45580764h.44651048l.44651048.89302096c.22325524.22325524.22325524.66976572.44651048.89302096v-1.78604192zm2.2325524.44651047h-.44651048v2.00929716h-.44651048v-2.00929716h-.66976572v-.44651048h1.56278668m1.78604192 2.2325524v.22325524H772.316281v-2.45580764h1.56278668v.44651048h-.89302096v.66976572h.66976572v.22325524h-.66976572v.89302096"/>
  <path fill="#fff" d="M775.21859912 377.72808716h.44651048v2.45580764h-.44651048l-.44651048-.89302096c-.22325524-.22325524-.22325524-.66976572-.44651048-.89302096v1.78604192h-.44651048v-2.45580764h.44651048l.44651048.89302096c.22325524.22325524.22325524.66976572.44651048.89302096v-1.78604192zm2.45580764.44651048h-.66976572v2.00929716h-.44651048v-2.00929716h-.44651048v-.44651048h1.56278668m1.56278668 1.56278668v1.1162762h-.44651048v-2.45580764h.89302096c.44651048 0 .66976572.22325524.66976572.66976572 0 .22325524 0 .44651048-.44651048.66976572.22325524 0 .44651048.22325524.44651048.44651048v.66976572h-.44651048v-.66976572c0-.22325524 0-.44651048-.22325524-.44651048h-.44651048zm0-.44651048h.44651048c.22325524 0 .22325524 0 .22325524-.44651048 0-.22325524-.22325524-.22325524-.22325524-.22325524h-.44651048v.66976572zm1.33953144 1.33953144l.66976572-2.45580764h.66976572l.66976572 2.45580764h-.44651048l-.22325524-.66976572h-.66976572l-.22325524.66976572h-.44651048zm.89302096-.89302096h.44651048l-.22325524-.66976572v-.66976572.66976572l-.22325524.66976572zm2.67906288-1.1162762h-.44651048v2.00929716h-.44651048v-2.00929716h-.66976572v-.44651048h1.56278668m1.78604192 2.2325524v.22325524h-1.56278668v-2.45580764h1.56278668v.44651048h-.89302096v.66976572h.66976572v.22325524h-.66976572v.89302096m1.1162762.22325524v-2.45580764h.89302096c.22325524 0 .44651048 0 .44651048.22325524s.22325524.44651048.22325524.89302096 0 1.1162762-.44651048 1.33953144h-1.1162762zm.66976572-.22325524c.44651048 0 .44651048-.22325524.44651048-.89302096s0-.89302096-.44651048-.89302096h-.22325524l.22325524 1.78604192zm2.2325524.22325524v-2.45580764h.66976572c.22325524 0 .44651048 0 .44651048.22325524s.22325524.22325524.22325524.44651048 0 .44651048-.22325524.44651048c.22325524 0 .44651048.22325524.44651048.66976572v.22325524c0 .22325524-.22325524.44651048-.66976572.44651048h-.89302096zm.66976572-.22325524h.22325524c.22325524 0 .22325524-.22325524.22325524-.44651048s0-.44651048-.44651048-.44651048h-.22325524l.22325524.89302096zm0-1.1162762h.44651048v-.22325524c0-.22325524 0-.22325524-.22325524-.22325524h-.22325524v.44651048zm2.00929716-.44651048v.44651048c0-.22325524 0-.22325524.22325524-.44651048l.22325524-.66976572h.44651048l-.66976572 1.33953144v1.1162762h-.44651048v-1.1162762l-.66976572-1.33953144h.44651048l.44651048.66976572zm-21.65575828 5.35812576v.89302096h-5.35812576v-3.57208384h5.13487052v.89302096H766.7349v.44651048h2.67906288v.89302096H766.7349v.44651048m8.48369912-1.56278668c0-.22325524-.22325524-.22325524-.22325524-.22325524h-.44651048c-.44651048 0-.66976572 0-.66976572.22325524 0 .44651048 3.57208384.22325524 3.57208384 1.56278668 0 .89302096-1.33953144 1.33953144-2.90231812 1.33953144-1.56278668 0-2.67906288-.66976572-2.90231812-1.1162762h2.00929716c0 .22325524.22325524.22325524.44651048.22325524h.66976572c.44651048 0 .89302096 0 .89302096-.22325524 0-.44651048-3.57208384-.22325524-3.57208384-1.56278668 0-.66976572 1.1162762-1.1162762 2.67906288-1.1162762 1.78604192 0 2.45580764.44651048 2.67906288 1.1162762h-2.2325524v-.22325524zm5.80463624 1.1162762v1.33953144h-2.00929716v-3.57208384h2.90231812c2.00929716 0 2.90231812.22325524 2.90231812 1.1162762 0 .44651048-.22325524.66976572-1.1162762.89302096.66976572.22325524 1.1162762.22325524 1.1162762.89302096 0 .44651048 0 .66976572.22325524.66976572h-2.00929716v-.66976572c0-.44651048-.22325524-.66976572-1.1162762-.66976572h-.89302096zm0-.66976572h.89302096c.66976572 0 .89302096 0 .89302096-.44651048 0-.22325524-.44651048-.44651048-.89302096-.44651048h-.89302096v.89302096zm5.80463624 2.00929716v-3.57208384h3.12557336c1.33953144 0 2.45580764.22325524 2.45580764.89302096 0 .44651048-.44651048.66976572-.89302096.89302096.66976572 0 1.1162762.44651048 1.1162762.89302096 0 .89302096-1.1162762 1.1162762-2.67906288 1.1162762h-3.12557336zm2.00929716-1.56278668v.66976572h.89302096c.44651048 0 .89302096 0 .89302096-.22325524s-.44651048-.44651048-1.1162762-.44651048h-.66976572zm0-1.1162762v.66976572h.89302096c.44651048 0 .66976572 0 .66976572-.22325524s-.44651048-.22325524-.89302096-.22325524h-.66976572z"/>
  <path d="M765.6186238 351.60722408c0-.89302096.66976572-1.33953144 1.56278668-1.33953144.89302096 0 1.56278668.66976572 1.56278668 1.33953144 0 .89302096-.66976572 1.56278668-1.56278668 1.56278668-.89302096 0-1.56278668-.66976572-1.56278668-1.56278668m2.90231812 0c0-.66976572-.66976572-1.1162762-1.33953144-1.1162762s-1.33953144.44651048-1.33953144 1.1162762.66976572 1.1162762 1.33953144 1.1162762 1.33953144-.44651048 1.33953144-1.1162762m-1.78604192.22325524v.66976572h-.22325524v-1.78604192h.66976572c.44651048 0 .66976572 0 .66976572.44651048 0 .22325524-.22325524.44651048-.44651048.44651048.22325524 0 .22325524.22325524.22325524.44651048v.44651048h-.44651048v-.66976572H766.7349m.44651048-.44651048c.22325524 0 .44651048-.22325524.44651048-.22325524 0-.22325524 0-.22325524-.22325524-.22325524H766.7349v.44651048h.44651048z"/>
  <path fill="#fff" d="M791.2929764 346.47235356h-1.1162762v-.66976572h1.1162762v-1.33953144h.66976572v1.33953144h1.1162762v.66976572h-1.1162762v1.1162762h-.66976572m-3.12557336 0l1.1162762-3.57208384h-1.33953144v-.66976572h2.00929716v.89302096l-.89302096 3.3488286m-3.57208384-3.57208384c.22325524-.22325524.66976572-.44651048.66976572-.66976572h.66976572v4.24184956h-.89302096v-3.3488286c-.22325524.22325524-.44651048.44651048-.66976572.44651048v-.66976572h.22325524zm-1.78604192 3.57208384v-.66976572h-1.56278668v-1.33953144h1.33953144v-.66976572h-1.33953144v-1.1162762h1.56278668v-.66976572h-2.2325524v4.4651048m-1.33953144-2.2325524c.66976572 0 .66976572-.44651048.66976572-1.1162762s-.44651048-1.1162762-.89302096-1.1162762h-1.56278668v4.4651048h.89302096v-1.78604192h.22325524c.66976572 0 .66976572.44651048.66976572.89302096v.89302096h.89302096v-1.33953144c-.22325524-.66976572-.66976572-.89302096-.89302096-.89302096m-.66976572-.22325524h-.44651048v-1.33953144h.44651048c.22325524 0 .44651048.22325524.44651048.66976572 0 .22325524 0 .66976572-.44651048.66976572m-2.45580764 1.1162762c0 .44651048-.22325524.66976572-.44651048.66976572s-.44651048-.22325524-.44651048-.66976572v-3.12557336h-.89302096v3.12557336c0 .89302096.44651048 1.33953144 1.33953144 1.33953144 1.1162762 0 1.33953144-.66976572 1.33953144-1.33953144v-3.12557336h-.89302096v3.12557336zm-4.01859432 1.33953144h.89302096v-3.57208384h.89302096v-.89302096h-2.90231812v.89302096h1.1162762m-2.90231812-.89302096l-1.1162762 4.4651048h.89302096l.22325524-.89302096h1.1162762l.22325524.89302096h.89302096l-1.1162762-4.4651048h-1.1162762zm.22325524 2.90231812l.44651048-2.00929716.44651048 2.00929716h-.89302096zm-4.24184956-2.90231812h-1.33953144v4.4651048h.66976572v-3.3488286h.22325524l.66976572 3.3488286h.89302096l.66976572-3.3488286v3.3488286h.89302096v-4.4651048h-1.33953144l-.66976572 3.12557336"/>
  <path d="M779.23719344 364.556028l-1.33953144-12.50229344 8.70695436-2.2325524 5.35812576 20.0929716-5.35812576 1.33953144-3.79533908-14.28833536 1.56278668 14.95810108-5.80463624 1.56278668-6.02789148-13.84182488 3.79533908 14.5115906-5.13487052 1.33953144-5.581381-20.0929716 8.70695436-2.2325524"/>
</svg>
