<svg xmlns="http://www.w3.org/2000/svg" viewBox="0 0 132.6 132.6">
  <path fill="#7B79AA" d="M130.6 66.3c0 35.5-28.8 64.3-64.3 64.3S1.9 101.8 1.9 66.3 30.8 1.9 66.3 1.9s64.3 28.8 64.3 64.4zM75.1 47.5c-2.7-1.3-5.7-2-8.8-2-11.4 0-20.7 9.3-20.7 20.7S54.9 87 66.3 87C77.7 87 87 77.7 87 66.3c0-8.3-4.9-15.4-11.9-18.8"/>
  <path fill="#0F1417" d="M66.3 132.6C29.7 132.6 0 102.8 0 66.3S29.7 0 66.3 0c36.6 0 66.3 29.7 66.3 66.3s-29.8 66.3-66.3 66.3zM66.3.1C29.8.1.1 29.8.1 66.3s29.7 66.2 66.2 66.2 66.2-29.7 66.2-66.2S102.8.1 66.3.1z"/>
  <path fill="#A198A0" d="M66.3 77.8c-6.3 0-11.5-5.2-11.5-11.5S60 54.8 66.3 54.8 77.8 60 77.8 66.3s-5.2 11.5-11.5 11.5zm0-22.2c-5.9 0-10.7 4.8-10.7 10.7 0 5.9 4.8 10.7 10.7 10.7C72.2 77 77 72.2 77 66.3c0-5.9-4.8-10.7-10.7-10.7z"/>
  <path fill="#A198A0" d="M66.3 75.6c-5.1 0-9.3-4.2-9.3-9.3 0-5.1 4.2-9.3 9.3-9.3 5.1 0 9.3 4.2 9.3 9.3 0 5.1-4.2 9.3-9.3 9.3zm0-17.8c-4.7 0-8.5 3.8-8.5 8.5s3.8 8.5 8.5 8.5 8.5-3.8 8.5-8.5-3.8-8.5-8.5-8.5z"/>
  <path fill="#CBC9E0" d="M86.7 66.3c0 11.3-9.1 20.4-20.4 20.4s-20.4-9.1-20.4-20.4S55 45.9 66.3 45.9 86.7 55 86.7 66.3zM66.3 48.5c-9.8 0-17.8 7.9-17.8 17.8S56.5 84 66.3 84 84 76.1 84 66.3s-7.9-17.8-17.7-17.8z"/>
  <path d="M66.3 87c-11.4 0-20.7-9.3-20.7-20.7s9.3-20.7 20.7-20.7c11.4 0 20.7 9.3 20.7 20.7S77.7 87 66.3 87zm0-40.8c-11.1 0-20.1 9-20.1 20.1 0 11.1 9 20.1 20.1 20.1s20.1-9 20.1-20.1c0-11.1-9-20.1-20.1-20.1z"/>
  <path d="M51.5 80.7c3.8 3.9 9 6.3 14.8 6.3 5.8 0 11.1-2.4 14.8-6.3H129c-6.6 28.6-32.2 49.9-62.7 49.9-30.6 0-56.2-21.3-62.7-49.9"/>
  <g fill="#FFF" fill-rule="evenodd">
    <path d="M59 93.9l-2.2 4h2.8V97h-1.3l1.2-2 1.6 2.9h1.2l-2.3-4h-1"/>
    <path d="M64.9 97.9l1.2-2.1v2.1h1v-4h-1l-1.6 2.9-1.6-2.9h-1v4h1v-2.1l1.2 2.1h.8m-8-2.4h-2.5v.8h1.4v.7h-2.6v-2.2h3.6v-.9h-3.6c-.8 0-1 .2-1 1v2c0 .7.2 1 1 1h2.6c.8 0 1-.2 1-1v-1.4h.1zm18.9-1.6h-2.3c-.8 0-1 .2-1 1v2c0 .7.2 1 1 1h2.3c.8 0 1-.2 1-1v-.7h-1.1v.8h-2.3v-2.2h2.3v.7h1.1v-.6c0-.7-.3-1-1-1zm4.8 3.1h-2.3v-3.1h-1.1v3c0 .7.2 1 1 1h2.4c.8 0 1-.2 1-1v-3h-1.1V97h.1zm5.4-1.1c.3-.1.4-.3.4-.6v-.5c0-.6-.3-.8-.9-.8h-3.3v4h3.1c.8 0 1.2-.3 1.2-.8v-.5c-.1-.4-.2-.7-.5-.8zm-2.8-1.2h1.9c.3 0 .3.1.3.2v.4c0 .1 0 .2-.3.2h-1.9v-.8zm2.2 2.1c0 .2 0 .2-.3.2h-1.9v-.8h1.9c.3 0 .3.1.3.2v.4zm2.5-.5h1.7v-.9h-1.7v-.6h3v-.9h-4.1v4h4.1V97h-3v-.7m-19.3 0h1.8v-.9h-1.8v-.6h3v-.9h-4.1v4h4.1V97h-3v-.7m11.3-3.4v-3.1h-.6v2l-1-2h-.8v3.1h.6v-2.4l1.2 2.4h.6m-16.8-2.4l1.2 2.4h.6v-3.1h-.6v2l-1-2h-.8v3.1h.6v-2.4m-9.5 0l1.2 2.4h.6v-3.1h-.6v2l-1-2H53v3.1h.6v-2.4m5.7-.7h-.7v3.1h.7v-3.1m9.2 3.1h.6v-2.6h.9v-.5h-2.5v.5h1v2.6m15.6 0c.5 0 1-.4 1-.8v-1.5c0-.4-.4-.8-1-.8h-1.4v3h1.4v.1zm-.8-2.6h.8c.2 0 .4.2.4.3V92c0 .2-.2.3-.4.3h-.8v-2zm6.9.3c0-.4-.4-.8-1-.8h-.5c-.5 0-1 .4-1 .8v1.5c0 .4.4.8 1 .8h.5c.5 0 1-.4 1-.8v-1.5zm-.6 1.5c0 .2-.2.3-.4.3h-.5c-.2 0-.4-.2-.4-.3v-1.5c0-.2.2-.3.4-.3h.5c.2 0 .4.1.4.3v1.5zm-17.2 0c0 .4.4.8.9.8h1.3v-.5h-1.3c-.2 0-.4-.1-.4-.3v-.6h1.7V91H73v-.4c0-.2.2-.3.4-.3h1.3v-.5h-1.3c-.5 0-.9.4-.9.8l-.1 1.5zm19.5 5.8h-.2v-.7h-.3V97h.8v.2h-.3v.7m1.2 0H93v-.7h-.1l-.1.7h-.2l-.2-.7v.7h-.1V97h.2l.2.7.2-.7h.2v.9M42 95.6l2.3 1.3v-2.6L42 93v2.6"/>
    <path d="M41.1 96.1l3.2 1.9v1.9l-4.8-2.8v-5.6l1.6.9v3.7m3.4-4.9l-2.2 1.3 2.2 1.4 2.3-1.4-2.3-1.3"/>
    <path d="M44.5 90.1l2.8 1.6 1.6-.9-4.4-2.5-4.8 2.8 1.6.9 3.2-1.9m3.5 6v-1.9l-1 .6v.8l-2.2 1.3v-2.6l4.8-2.8v5.6l-4.8 2.8V98l3.2-1.9"/>
  </g>
  <g fill="#FFF">
    <path d="M23.2 97.3h.3c0 .1 0 .1.1.2 0 0 .1.1.2.1h.2l.1-.1v-.1s-.1 0-.2-.1h-.2c-.1 0-.2-.1-.3-.1-.1-.1-.1-.2-.1-.3 0-.1 0-.3.1-.3.1-.1.2-.1.4-.1s.3 0 .4.1c.1.1.1.2.1.3H24c0-.1 0-.1-.1-.2 0 0-.1-.1-.2-.1h-.2l-.1.1v.1h.4c.1 0 .2.1.3.1.1.1.1.2.1.3 0 .2 0 .3-.1.4-.1.1-.2.1-.4.1s-.3 0-.4-.1c0 0-.1-.1-.1-.3zm2.1.2c0 .1-.1.2-.2.3-.1.1-.2.1-.3.1-.1 0-.2-.1-.3-.2-.1-.1-.1-.2-.1-.4s0-.3.1-.4c.1-.1.2-.2.3-.2.1 0 .3.1.3.2.1.1.1.3.1.4l.1.2-.6-.1c0 .1 0 .1.1.2l.1.1h.1l.1-.1.2-.1zm-.6-.3h.4c0-.1 0-.1-.1-.2l-.1-.1c-.1 0-.1 0-.1.1-.1 0-.1.1-.1.2zm1.6.4c0 .1 0 .1 0 0v.1H26v-.1c0 .1-.1.1-.1.1h-.2c-.1 0-.2 0-.2-.1-.1-.1-.1-.1-.1-.3 0-.1 0-.2.1-.2s.1-.1.3-.1h.1c.1 0 .2-.1.2-.1v-.1h-.2v.1h-.2c0-.1 0-.2.1-.3.1-.1.2-.1.3-.1h.2c.1 0 .1 0 .1.1 0 0 0 .1.1.1v.2l-.2.7zm-.3-.3s-.1 0-.2.1h-.2v.2h.1c.1 0 .1 0 .2-.1.1 0 .1-.1.1-.2z"/>
    <path d="M26.5 97.8v-1.4h.2v1.4h-.2z"/>
  </g>
  <path fill="#FFF" d="M34.3 93.9l1 1.1-1.4.8.4 1.6h-1.5l-.1 1.8-1.7-.5-.3 1.7-1.6-.6-.8 1.5-1.2-1.1-1.1 1.5-1.2-1.3-1.3 1.2-.8-1.4-1.5.9-.5-1.6-1.8.7-.3-1.6-1.6.3.2-1.6h-1.6l.4-1.7-1.2-.7 1-1.1-.9-1.6 1.4-.5-.4-1.7h1.6l.2-1.7 1.4.5.5-1.6 1.5.8.6-1.4 1.3.9.9-1.4 1.2 1.2 1-1.1.9 1.4 1.4-.9.6 1.5 1.4-.7.4 1.6 1.7-.3-.1 1.5 1.7.2-.5 1.5 1.5.6-.8 1.3zm-1 0c0-3.2-3.7-5.8-8.3-5.8s-8.3 2.6-8.3 5.8c0 3.2 3.7 5.8 8.3 5.8s8.3-2.6 8.3-5.8z"/>
  <path fill="#FFF" d="M22.3 91c0-.4.2-.5.4-.5s.4.1.4.5-.2.5-.4.5c-.2-.1-.4-.2-.4-.5zm-.3 0c0 .6.5.7.7.7.2 0 .7-.1.7-.7s-.5-.7-.7-.7-.7 0-.7.7zm1.8.6h-.3v-.8h-.1v-.2h.1v-.1c0-.2.1-.3.3-.3h.1v.2h-.1c-.1 0-.1 0-.1.1h.2v.2h-.2l.1.9zm.6 0h-.3v-.8H24v-.2h.1v-.1c0-.2.1-.3.3-.3h.1v.2h-.1c-.1 0-.1 0-.1.1h.2v.2h-.2l.1.9zm.5-1v1h-.3v-1h.3zm0-.1h-.3v-.2h.3v.2zm1.1.8c0 .1-.1.4-.5.4s-.5-.3-.5-.5c0-.3.1-.6.5-.6.2 0 .4.1.4.4h-.3c0-.1-.1-.2-.2-.2-.2 0-.2.2-.2.3 0 .1 0 .3.2.3.1 0 .2-.1.2-.2l.4.1zm.4-.7v1h-.3v-1h.3zm0-.1h-.3v-.2h.3v.2zm.8.8c0 .1-.1.2-.2.2s-.1 0-.1-.1.1-.1.2-.2c.1 0 .2 0 .2-.1v.2h-.1zm.3-.4c0-.2-.3-.3-.4-.3-.2 0-.4 0-.5.4h.3c0-.1 0-.1.2-.1.1 0 .2 0 .2.1s-.1.1-.1.1H27c-.2 0-.3.1-.3.3 0 .2.2.3.3.3.2 0 .3-.1.3-.1v.1h.3s-.1 0-.1-.2v-.6zm.4.7h-.2v-1.3h.2"/>
  <path fill="#FFF" d="M25 99.2c4.3 0 7.8-2.4 7.8-5.3s-3.5-5.3-7.8-5.3-7.8 2.4-7.8 5.3 3.5 5.3 7.8 5.3zm-7.6-5.3c0-2.8 3.4-5.1 7.6-5.1 4.2 0 7.6 2.3 7.6 5.1S29.2 99 25 99c-4.2 0-7.6-2.3-7.6-5.1z"/>
  <g fill="#FFF">
    <path d="M29.9 95.7c.9 0 1.6-.7 1.6-1.6s-.7-1.6-1.6-1.6H20c-.9 0-1.6.7-1.6 1.6s.7 1.6 1.6 1.6h9.9zm-9.9-.4c-.7 0-1.2-.5-1.2-1.2s.5-1.2 1.2-1.2h9.8c.7 0 1.2.5 1.2 1.2s-.5 1.2-1.2 1.2H20z"/>
    <path d="M19.6 94.8v-1.5h.5l.6 1v-1h.5v1.5h-.5c0-.1-.6-1-.6-1v1h-.5zm3.1-1h.2c.4-.1.6.1.6.1.2.2.1.6.1.9h-.5v-.7c0-.1-.1-.2-.2-.2s-.2.1-.2.2v.7h-.5v-1h.5zm1.1-.1v-.2h.5v.2h.3v.1h-.3v1h-.5v-1h-.2v-.1m.9.6c0-.3.3-.6.6-.6h.4c.1 0 .2 0 .2.1.1.1.2.3.2.4h-.8c0 .1-.1.4.2.4.1 0 .1 0 .2-.1v-.2h.5c-.1.3-.4.4-.7.4-.2.2-.7.1-.8-.4zm.5-.1h.3v-.1c0-.1-.1-.2-.2-.2l-.1.1v.2zm4.2.3c-.1-.1-.1-.3 0-.5.1-.1.3-.3.4-.3.1 0 .3-.1.5 0 .1 0 .3.1.4.3.1.1.1.4 0 .5l-.3.3c-.1 0-.4.1-.5 0-.3 0-.4-.1-.5-.3zm.6.2c.1 0 .2-.1.2-.2V94c0-.1 0-.2-.2-.2s-.2.1-.2.2v.5c0 .1 0 .2.2.2zm-.9.1h-.4v-.1c-.1.1-.6.1-.8-.3 0 0-.1-.3 0-.5.1-.3.4-.3.6-.3.1 0 .2.1.2.1v-.6h.5c-.1.2-.1 1.7-.1 1.7zm-.4-.2V94l-.1-.1c-.1 0-.2.1-.2.1v.5s0 .1.1.1c0 .1.1.1.2 0zm-6.5.2v-1h-.5v1m.5-1.2v-.3h-.5v.3m5 .2c.1 0 .1 0 0 0h.2c.4-.1.6.1.6.1.2.2.1.6.1.9h-.5v-.7c0-.1-.1-.2-.2-.2s-.2.1-.2.2v.7H26v-1h.5z"/>
    <path d="M30.2 93.6v-.2h.2c-.1.1-.1.2-.2.2zm0-.1zm0 .2c-.1 0-.1-.1-.1-.1 0-.1.1-.1.1-.1.1 0 .1.1.1.1.1 0 0 .1-.1.1zm0-.3c-.1 0-.1 0-.1.1s0 .1.1.1.1 0 .1-.1c0 0 0-.1-.1-.1z"/>
  </g>
  <path fill="#FFF" d="M112.5 84.4H98v20.7h14.6V84.4"/>
  <path d="M98.4 84.8h13.9v19.9H98.4z"/>
  <path fill="#FFF" d="M99.1 88.1h12.4v12.3H99.1zm.6 13.6c0 .3-.1.4-.3.4-.4 0-.4-.2-.4-.5v-.2c0-.3 0-.5.4-.5.2 0 .3.1.3.3v.1h-.2c0-.1 0-.2-.1-.2-.2 0-.2.2-.2.3v.3c0 .1 0 .2.2.2.1 0 .1-.2.1-.3l.2.1zm.2-.3c0-.3 0-.5.4-.5s.4.2.4.5v.2c0 .3 0 .5-.4.5-.3 0-.4-.2-.4-.5v-.2zm.2.3c0 .1 0 .2.2.2s.2-.2.2-.3v-.3c0-.1 0-.3-.2-.3s-.2.2-.2.3v.4zm1.3-.8h.2v1.1h-.2l-.2-.4c-.1-.1-.1-.3-.2-.4v.8h-.2v-1.1h.2l.2.4c.1.1.1.3.2.4v-.8zm.3 0h.7v.2h-.2v.9h-.2v-.9h-.3m.8.9v-1.1h.7v.2h-.4v.3h.3v.1h-.3v.4h.4v.1m.6-1.1h.2v1.1h-.2l-.2-.4c-.1-.1-.1-.3-.2-.4v.8h-.2v-1.1h.2l.2.4c.1.1.1.3.2.4v-.8zm.4 0h.7v.2h-.3v.9h-.2v-.9h-.2m1.4.5v.5h-.2V101h.4c.2 0 .3.1.3.3 0 .1 0 .2-.2.3.1 0 .2.1.2.2v.3h-.2v-.3s0-.2-.1-.2h-.2zm0-.2h.2c.1 0 .1 0 .1-.2 0-.1-.1-.1-.1-.1h-.2v.3zm.6.6l.3-1.1h.3l.3 1.1h-.2l-.1-.3h-.3l-.1.3h-.2zm.4-.4h.2l-.1-.3v-.3.3l-.1.3zm.5-.7h.7v.2h-.2v.9h-.2v-.9h-.3m.8.9v-1.1h.7v.2h-.4v.3h.3v.1h-.3v.4h.4v.1m.1 0v-1.1h.4c.1 0 .2 0 .2.1s.1.2.1.4 0 .5-.2.6h-.5zm.3-.1c.2 0 .2-.1.2-.4 0-.3 0-.4-.2-.4h-.1l.1.8zm1 .1v-1.1h.3c.1 0 .2 0 .2.1s.1.1.1.2 0 .2-.1.2c.1 0 .2.1.2.3v.1c0 .1-.1.2-.3.2h-.4zm.3-.1h.1c.1 0 .1-.1.1-.2s0-.2-.2-.2h-.1l.1.4zm0-.5h.2v-.1c0-.1 0-.1-.1-.1h-.1v.2zm.9-.2v.2c0-.1 0-.1.1-.2l.1-.3h.2l-.3.6v.5h-.2v-.5l-.3-.6h.2l.2.3zM99.1 104v-1.6h2.3v.4H100v.2h1.2v.4H100v.2h1.5v.4m2.3-1.1c0-.1-.1-.1-.1-.1h-.2c-.2 0-.3 0-.3.1 0 .2 1.6.1 1.6.7 0 .4-.6.6-1.3.6-.7 0-1.2-.3-1.3-.5h.9c0 .1.1.1.2.1h.3c.2 0 .4 0 .4-.1 0-.2-1.6-.1-1.6-.7 0-.3.5-.5 1.2-.5.8 0 1.1.2 1.2.5h-1v-.1zm2.6.5v.6h-.9v-1.6h1.3c.9 0 1.3.1 1.3.5 0 .2-.1.3-.5.4.3.1.5.1.5.4 0 .2 0 .3.1.3h-.9v-.3c0-.2-.1-.3-.5-.3h-.4zm0-.3h.4c.3 0 .4 0 .4-.2 0-.1-.2-.2-.4-.2h-.4v.4zm2.6.9v-1.6h1.4c.6 0 1.1.1 1.1.4 0 .2-.2.3-.4.4.3 0 .5.2.5.4 0 .4-.5.5-1.2.5H109zm.9-.7v.3h.4c.2 0 .4 0 .4-.1s-.2-.2-.5-.2h-.3zm0-.5v.3h.4c.2 0 .3 0 .3-.1s-.2-.1-.4-.1h-.3z"/>
  <path d="M99.5 89.2c0-.4.3-.6.7-.6.4 0 .7.3.7.6 0 .4-.3.7-.7.7-.4 0-.7-.3-.7-.7m1.3 0c0-.3-.3-.5-.6-.5s-.6.2-.6.5.3.5.6.5.6-.2.6-.5m-.8.1v.3h-.1v-.8h.3c.2 0 .3 0 .3.2 0 .1-.1.2-.2.2.1 0 .1.1.1.2v.2h-.2v-.3h-.2m.2-.2c.1 0 .2-.1.2-.1 0-.1 0-.1-.1-.1h-.3v.2h.2z"/>
  <path fill="#FFF" d="M110.5 86.6h.5V86h.3v.6h.5v.3h-.5v.5h-.3v-.5h-.5m-1-1.4h.9v.4l-.4 1.5h-.4l.5-1.6h-.6m-1.1 0c.1-.1.3-.2.3-.3h.3v1.9h-.4v-1.5c-.1.1-.2.2-.3.2v-.3h.1zm-1.5 1.3v-.6h.6v-.3h-.6v-.5h.7v-.3h-1v2h1v-.3m-1.6-.7c.3 0 .3-.2.3-.5s-.2-.5-.4-.5h-.7v2h.4v-.8h.1c.3 0 .3.2.3.4v.4h.4v-.6c-.1-.3-.3-.4-.4-.4m-.3-.1h-.2v-.6h.2c.1 0 .2.1.2.3 0 .1 0 .3-.2.3m-1.1.5c0 .2-.1.3-.2.3s-.2-.1-.2-.3v-1.4h-.4v1.4c0 .4.2.6.6.6.5 0 .6-.3.6-.6v-1.4h-.4v1.4zm-2.3-1h.5v1.6h.4v-1.6h.4v-.4h-1.3m-.8 0l-.5 2h.4l.1-.4h.5l.1.4h.4l-.5-2h-.5zm.1 1.3l.2-.9.2.9h-.4zm-1.6.1l-.3-1.4h-.6v2h.3v-1.5h.1l.3 1.5h.4l.3-1.5v1.5h.4v-2h-.6"/>
  <path d="M99.5 90.9l3.9-1 2.2 5.1-.6-5.6 3.9-1 2.4 9-2.4.6-1.7-6.4.7 6.7-2.6.7-2.7-6.2 1.7 6.5-2.3.6"/>
</svg>
