<svg xmlns="http://www.w3.org/2000/svg" baseProfile="tiny" viewBox="-5 57 600.2 680">
  <path fill="#D9D9D9" d="M-5 488.9v-24c1-7.9.9-15.9 3.7-23.5 4.6-12.3 12.1-21.8 25.7-24.8 4.9-1.1 9.6-.5 14.3.8 7.9 1.1 13.5 6 18.8 11.4 3 5.6 3.3 11.9 4 17.9 1.5 13.4 2 26.8.7 40.3-1.3 13.8-.1 27.6 3.3 41.1.9 3.8 2.9 7.1 6 9.5 2.4 1.8 4.1 1.6 5.1-1.7 2.3-7.8 4.2-15.7 6.2-23.7 1.1-4.4 2.9-7.4 7.1-9.4 7.6-3.6 10.4-10.6 10.9-18.4.6-10-.2-19.8-2.3-29.7-3.4-16.4-5.5-33.1-4.6-50 .6-10.9-.9-22 1-32.9.3-1.7.6-3.3 1.4-4.7 1.5-2.7 4-4.4 6.5-6.1 13.7-9.4 27.3-18.8 41.8-26.8 2.9-1.6 5.7-4.4 9.6-2.5 1.1 1.9.1 3.6-.7 5.2-6.3 11.8-9.1 24.6-10.5 38.5 3.1-2.6 5.3-5.2 7.9-7.3 20.3-16.5 46.2-18.2 70.1-4.6 4.8 2.7 9.5 5.6 13.8 9 4.2 3.3 8.3 6.6 12.2 10.4-3.4-12.9-7.2-25.5-13.2-37.3-6.3-12.3-14.5-22.7-26.6-29.7-1.5-.9-3.5-1.8-2-4.2 7.1-4.4 15.4-5.2 23.3-6.7 24.2-4.7 48.7-6.9 73.5-6.2 26.2.7 52 4 77.5 10.1 2 .5 3.9 1 5.3 2.5 1.1 2.1-.5 3.2-1.9 3.9-16.7 9-25.8 24-32.6 40.9-3.5 8.6-6 17.6-8.5 27.2 9.4-9.4 19.7-16.6 31.2-22.2 24.2-11.8 48.4-8.4 68.4 9.9 1.3 1.2 2.7 2.5 4.8 4.1-1.4-13.7-4.1-26.2-10.4-37.8-1.2-2.2-3.3-4.4-2.2-7.4 2-1.5 3.9-.3 5.6.6 18.2 9.3 36.1 19.2 51.4 33.1 1.1 1 2.3 1.9 3 3.3 1.5 2.7 2.4 5.5 2.4 8.5.1 11.5.4 22.9.8 34.4.6 16-2.4 31.8-5.4 47.5-1.6 8.2-3.1 16.4-2.3 24.8.8 9.1 3.2 17.4 12.8 21.5 3 1.3 4.4 3.8 5.2 6.9 2 7.9 4.2 15.7 6.2 23.7.4 1.7.5 4 2.6 4.5s3.2-1.4 4.5-2.7c2.3-2.3 3.8-5.1 4.6-8.2 1.9-6.9 3.2-13.9 3.1-21.2-.2-12-.4-24-.5-35.9-.2-13.9.5-28 5-41.4 4.6-5.8 10.4-9.6 17.5-11.6 3.6-.3 7-1.7 10.8-1.8 9.6-.1 17.1 3.7 22.8 11.2 7.1 9.3 10.7 19.8 11 31.4 0 1.1-.4 2.3.5 3.4v22c-1.3 8-.8 16.2-3.2 24.1-7.9 26-17.8 51-35.9 71.8-10.4 11.9-23.6 18.4-39.8 16.7-3-.3-4.2 1-5.1 3.5-6.4 17.1-14.9 33.1-26.4 47.4-14.6 18.1-31.7 33.1-53.6 42.1-15 6.1-29.1 13.7-43.1 22-14.6 8.8-29.7 17.2-46.4 21.8-8.1 2.2-16.4 2.6-24.6 3.2-1.6.1-3.3-.5-4.9.5h-29c-5.7-1.1-11.5-.6-17.3-1.4-19.3-2.9-37.6-8.4-54.1-19.2-15.2-9.9-31.5-18-48.4-24.7-16.8-6.7-31.8-16.4-44.5-29.1-16.5-16.6-29.1-35.9-37.2-58-.6-1.6-1.1-3.1-1.7-4.7-1.1-2.8-3-4.1-6.1-4.1-20.6.5-35.5-10.5-47.2-25.7C13 552.3 3.8 532.1-2.2 510.5c-2-7.1-1.3-14.5-2.8-21.6z"/>
  <path fill="#4D4D4D" d="M550.1 419.1c-5.9 2.1-10.9 5.7-15.7 9.6-2.3-1.1-1.5-3.1-1.4-4.8 1.4-17.5-5.4-31-19.4-41.3-7.1-5.2-14.9-9.4-21.4-15.4-3.5-2.8-7.1-5.4-10.5-8.3-14.5-12.4-31.7-20.3-48.3-29.1-2.1.4-3.3-1.1-4.6-2.4-10.7-11.2-23.6-15.8-39-13.7-1.6.2-3.3.9-4.5-.9-19.5-5-39.3-8.6-59.3-10.3-40.9-3.5-81.3-.6-121 10.6-1.5 1.6-3.4.9-5.1.7-14.6-2.3-27.1 1.9-37.6 12.2-2.3 2.2-3.8 5.6-7.6 5.9-8.3 2.6-15.4 7.5-22.6 12.1-11.5 7.4-22.8 15.3-34.2 23-2.7 3.2-6.1 5.6-9.6 7.8-6.2 3.9-12 8.3-17.5 13.2-8.8 7.9-13.3 17.5-13.2 29.5 0 3.8 1.5 8-1.9 11.3-5.4-3.4-10.1-8-16.5-9.7-2.1-1.1-3.6-2.8-4.9-4.8-14.7-24.7-20.4-51.8-21.3-80.2-.2-5.7.8-11.3 1.7-16.9 3.9-25.8 11.8-50.5 21.7-74.6 2.7-6.6 7.1-12.4 10.4-18.8C60.5 198 78 175 97.2 153.2c30.9-35.1 66.6-64.1 110.2-82.5 18.5-7.9 37.6-11.6 57.3-12.9 3.4-.2 6.9 0 10.3-.9h37c8.5 1.2 17.2.9 25.7 1.8 32.5 3.3 61.2 16 87.7 34.8 17 12.1 33.4 24.9 48.5 39.3 8 7.7 15.2 16.3 22.2 25 18.8 23.4 37.4 46.9 52.2 73.1 9.5 17 15.1 35.5 20.5 54.1 5.1 17.5 8.9 35.3 8.1 53.6-.9 20.4-4.3 40.4-12.5 59.3-2.7 6.3-6.7 11.9-10.1 17.8-1 1.6-2.2 3.1-4.2 3.4z"/>
  <path fill="#0F0F0F" d="M461.6 501.8c7.1 17.4 12.1 34.4 9.8 52.7-2.3 17.9-12.6 29.2-29.7 34.4-3.1.9-5.1 2-4.9 5.6 0 .3-.2.6-.2 1-7.1 31.2-29 42.8-59.5 31-4.5-1.7-6.7-1.1-9.8 2.4-19.7 22-43.9 25.9-69.7 11.5-1.9-1-3-1-4.8 0-27.3 15.1-52.1 10.3-71.5-13.7-1.8-2.3-3.2-3.1-6.1-1.7-6.2 2.9-13 4.2-19.8 4.7-19 1.3-33.8-8.7-40.1-28.4-2.3-7.3-5.3-11.3-13-14.2-15.8-5.9-21.8-19.6-23-35.6-1.1-14.3 1.9-30.6 8.4-48.8 1.7-.1 2 1.6 2.8 2.5 17.5 19.9 39.8 30.8 65.8 34.4 3.7.5 4.4 1.5 4.4 5.1.1 23.2 10.4 41.6 27.9 56.2 37.6 31.2 99 30.3 135.7-2.1 16.6-14.6 25.7-32.8 25.6-55.3 0-2.2.1-3.4 2.9-3.9 26.8-4.7 50.5-15.8 68.8-37.8z"/>
  <path fill="#1E1E1E" d="M492.2 367.1c4.2.4 7.1 3.4 10.3 5.5 5.6 3.7 10.9 7.6 16.1 11.7 14.5 11.4 17.9 26.9 15.8 44.3-4.3 15.7-5.3 31.8-4.8 48 .4 13.6 1.4 27.3-.5 40.9-.8 5.7-1.5 11.6-4.6 16.7-.8 1.4-1.9 2.7-3.1 3.9-5.9 5.7-7.8 5.2-9.9-2.6-2.3-8.9-4.5-17.7-6.9-26.6-.3-1.3-.1-2.7-2.3-3.3-11.2-3.1-14.2-12.2-15.2-22.2-1.4-12.8 2-25.2 4.4-37.6 4.7-24.1 2.8-48.4 2.2-72.7 0-2-.2-4.2-1.5-6zM55.9 428.5c0-.2.1-.3 0-.5-3.4-23.9 7.6-40.3 27.2-52.3 5-3 9.4-6.9 14.9-9-.4 2.3-1.2 4.5-1.3 6.8-1.4 27.8-2.2 55.6 4.2 82.9 2.1 9 3.2 18.1 2.3 27.3-1 10.1-4.1 19-15.4 22-2.1.6-1.6 2.2-2 3.5-2.6 10-5.3 19.9-7.7 30-.8 3.3-2.1 3.4-4.7 2-5.9-3.2-8.8-8.3-10.3-14.6-3.3-13.8-3.2-27.7-2.5-41.7.9-17.5.4-34.9-3.4-52.2-.4-1.4-.9-2.8-1.3-4.2z"/>
  <path fill="#0F0F0F" d="M385.3 312.6c19.7-4.7 35.4 1.8 48 17.1 10 14.9 14.1 31.6 14.8 50.5-2.8-2.9-4.8-5-7-7-21.6-20.1-47.7-22.4-74.5-6.7-10 5.8-18.8 13.1-27.7 22.5 5.5-23.6 11.8-45.3 27.3-63 5.4-6 11.9-10.3 19.1-13.4zm-230.6 19c12.7-17.1 29.2-24.1 50.3-18.8 17.6 8.2 27.2 23.3 34.5 40.3 4.7 11 7.9 22.6 10.4 34.3-.4.4-.9.8-1.3 1.3-.9-1.4-1.7-3.1-2.9-4.2-9.9-9.9-21-18-33.9-23.3-22.9-9.3-43.7-5.7-62.2 10.6-2.7 2.4-5.1 5.1-8.6 8.5.9-18.1 4.4-34.2 13.7-48.7z"/>
  <path fill="#FEFEFE" d="M301.1 234.3c-25.4.2-48.2 2.1-70.8 6.5-4.4.9-7.2-.2-9.9-3.5-9.6-11.4-13.1-25.1-15.4-39.4-6.3-39.3 23.3-71.2 54-81.9 34.6-12 67.6-8.2 97.2 13.6 33.9 24.9 36.1 65.3 23.3 94-2.8 6.3-7.6 11.3-12.2 16.3-1.6 1.8-3.2 1.3-5 .8-9.2-2.3-18.6-3.7-28-4.7-11.9-1.2-23.7-1.5-33.2-1.7z"/>
  <path fill="#4D4D4D" d="M321.6 164.3c-7.6 8.9-15.4 17.5-22.7 26.5-2.9 3.6-4.5 3.2-7.3-.2-7.3-9-15-17.7-22.9-27-6.6 20.7-13.2 40.7-19.4 60.8-1.4 4.6-2.7 4.9-6.4 2.3-5-3.6-10.4-6.6-15.4-10.1-6.9-4.8-6.9-4.9-3.6-12.5 5.8-13.6 13.1-26.6 20.1-39.6 5.6-10.6 11.6-21 17.1-31.6 1.6-3.1 2.5-2.8 4.7-.6 8.5 8.5 17.3 16.6 25.8 25.1 2.6 2.6 4.1 3.1 6.9.1 8.1-8.6 16.7-16.8 25-25.2 2-2 3-2.9 4.8.4 13.6 24.8 27 49.7 38.5 75.5 1.4 3.2 1 4.9-1.9 6.9-5.9 4.1-11.6 8.4-17.7 12.2-3.6 2.3-5 1.8-6.3-2.4-5.4-18.3-11.2-36.6-16.8-54.8-.6-2.1-1-4.1-2.5-5.8z"/>
  <path fill="#FFF" d="M242.4 455c0 52.2-22 56.4-49.1 56.4s-49.1-4.2-49.1-56.4 22-82.2 49.1-82.2 49.1 30 49.1 82.2zm103.2 0c0 52.2 22 56.4 49.1 56.4s49.1-4.2 49.1-56.4-22-82.2-49.1-82.2-49.1 30-49.1 82.2z"/>
  <ellipse cx="210.9" cy="450.3" fill="#7A7A7A" rx="31.6" ry="44.6"/>
  <ellipse cx="377.1" cy="450.3" fill="#7A7A7A" rx="31.6" ry="44.6"/>
  <ellipse cx="219.7" cy="450.3" rx="22.8" ry="32.2"/>
  <ellipse cx="368.3" cy="450.3" rx="22.8" ry="32.2"/>
</svg>
