<?xml version="1.0" encoding="UTF-8" standalone="no"?>
<!-- Generator: Adobe Illustrator 13.0.0, SVG Export Plug-In . SVG Version: 6.00 Build 14948)  -->

<svg
   xmlns:ns="&amp;ns_sfw;"
   xmlns:dc="http://purl.org/dc/elements/1.1/"
   xmlns:cc="http://creativecommons.org/ns#"
   xmlns:rdf="http://www.w3.org/1999/02/22-rdf-syntax-ns#"
   xmlns:svg="http://www.w3.org/2000/svg"
   xmlns="http://www.w3.org/2000/svg"
   xmlns:sodipodi="http://sodipodi.sourceforge.net/DTD/sodipodi-0.dtd"
   xmlns:inkscape="http://www.inkscape.org/namespaces/inkscape"
   version="1.2"
   id="Layer_3"
   x="0px"
   y="0px"
   width="232.228"
   height="337.91101"
   viewBox="0 0 232.22799 337.911"
   xml:space="preserve"
   inkscape:version="0.91 r13725"
   sodipodi:docname="controller.svg"><defs
     id="defs36" /><sodipodi:namedview
     pagecolor="#ffffff"
     bordercolor="#666666"
     borderopacity="1"
     objecttolerance="10"
     gridtolerance="10"
     guidetolerance="10"
     inkscape:pageopacity="0"
     inkscape:pageshadow="2"
     inkscape:window-width="690"
     inkscape:window-height="480"
     id="namedview34"
     showgrid="false"
     fit-margin-top="0"
     fit-margin-left="0"
     fit-margin-right="0"
     fit-margin-bottom="0"
     inkscape:zoom="0.48145317"
     inkscape:cx="117.47951"
     inkscape:cy="167.943"
     inkscape:window-x="0"
     inkscape:window-y="0"
     inkscape:window-maximized="0"
     inkscape:current-layer="Layer_3" /><metadata
     id="metadata55"><rdf:RDF><cc:Work
         rdf:about=""><dc:format>image/svg+xml</dc:format><dc:type
           rdf:resource="http://purl.org/dc/dcmitype/StillImage" /><dc:title></dc:title></cc:Work></rdf:RDF><ns:sfw><ns:slices /><ns:sliceSourceBounds
         x="843.021"
         y="371.557"
         width="232.228"
         height="337.912"
         bottomLeftOrigin="true" /></ns:sfw></metadata><path
     id="line3"
     d="m 61.411,29.873 0,1.544 109.522,0 0,-1.544 -109.522,0 z"
     inkscape:connector-curvature="0"
     style="fill:#f4f4f4" /><path
     id="path5"
     d="m 3.379,86.697 0,206.096 c 0,22.536 18.268,40.828 40.804,40.828 l 143.837,0 c 22.533,0 40.827,-18.292 40.827,-40.828 l 0,-205.972 -1.545,0 0,205.972 c 0,21.703 -17.583,39.284 -39.282,39.284 l -143.837,0 c -21.703,0 -39.261,-17.581 -39.261,-39.28 l 0,-206.096 -1.544,0 10e-4,-0.004 z"
     inkscape:connector-curvature="0"
     style="fill:#f4f4f4" /><path
     id="path7"
     d="m 39.694,123.375 c -10.8,0 -19.569,8.769 -19.569,19.569 l 0,154.478 c 0,10.801 8.769,19.569 19.569,19.569 l 152.841,0 c 10.536,0 19.081,-8.361 19.497,-18.797 l 0.072,0 0,-0.772 0,-154.478 c 0,-10.8 -8.771,-19.569 -19.57,-19.569 l -152.84,0 0,0 z m 0,1.544 152.841,0 c 9.966,0 18.024,8.06 18.024,18.025 l 0,153.706 0,0.772 c 0,9.967 -8.058,18.025 -18.024,18.025 l -152.841,0 c -9.965,0 -18.025,-8.059 -18.025,-18.025 l 0,-154.478 c -0.001,-9.965 8.06,-18.025 18.025,-18.025 z"
     inkscape:connector-curvature="0"
     style="fill:#f4f4f4" /><path
     id="circle9"
     d="M 43.675,26.205 C 19.561,26.205 0,45.766 0,69.88 c 0,24.115 19.561,43.675 43.676,43.675 24.115,0 43.675,-19.56 43.675,-43.675 0,-24.115 -19.56,-43.675 -43.676,-43.675 l 0,0 z m 0,1.545 c 23.279,0 42.13,18.851 42.13,42.13 0,23.28 -18.851,42.131 -42.13,42.131 -23.28,0 -42.13,-18.851 -42.13,-42.131 0,-23.28 18.85,-42.13 42.13,-42.13 z"
     inkscape:connector-curvature="0"
     style="fill:#f4f4f4" /><path
     id="circle11"
     d="m 188.554,26.205 c -24.114,0 -43.675,19.561 -43.675,43.675 0,24.115 19.561,43.675 43.675,43.675 24.112,0 43.674,-19.56 43.674,-43.675 0,-24.115 -19.562,-43.675 -43.674,-43.675 z m 0,1.545 c 23.279,0 42.13,18.851 42.13,42.13 0,23.28 -18.851,42.131 -42.13,42.131 -23.28,0 -42.131,-18.851 -42.131,-42.131 0,-23.28 18.851,-42.13 42.131,-42.13 z"
     inkscape:connector-curvature="0"
     style="fill:#f4f4f4" /><path
     id="path13"
     d="m 0,70.459 0,223.778 c 0,24.114 19.561,43.674 43.675,43.674 l 144.874,0 c 24.111,0 43.673,-19.56 43.673,-43.674 l 0,-222.574 -1.543,0 0,222.574 c 0,23.28 -18.854,42.131 -42.13,42.131 l -144.874,0 c -23.277,0 -42.129,-18.849 -42.129,-42.128 l 0,-223.78 -1.544,0 L 0,70.459 Z"
     inkscape:connector-curvature="0"
     style="fill:#f4f4f4" /><path
     id="circle15"
     d="m 116.112,176.507 c -32.917,0 -59.627,26.709 -59.627,59.625 0,32.916 26.709,59.625 59.627,59.625 32.915,0 59.6,-26.709 59.6,-59.625 0,-32.916 -26.685,-59.625 -59.6,-59.625 z m 0,1.544 c 32.08,0 58.055,25.999 58.055,58.081 0,32.082 -25.975,58.08 -58.055,58.08 -32.084,0 -58.083,-25.998 -58.083,-58.08 0,-32.082 25.999,-58.081 58.083,-58.081 z"
     inkscape:connector-curvature="0"
     style="fill:#f4f4f4" /><path
     id="circle17"
     d="m 116.112,193.378 c -23.608,0 -42.76,19.151 -42.76,42.76 0,23.605 19.152,42.757 42.76,42.757 23.605,0 42.757,-19.151 42.757,-42.757 -0.001,-23.609 -19.152,-42.76 -42.757,-42.76 z m 0,1.544 c 22.771,0 41.213,18.443 41.213,41.216 0,22.771 -18.442,41.213 -41.213,41.213 -22.774,0 -41.215,-18.441 -41.215,-41.213 -0.001,-22.773 18.44,-41.216 41.215,-41.216 z"
     inkscape:connector-curvature="0"
     style="fill:#f4f4f4" /><g
     id="g19"
     transform="translate(-181.61501,-5.162)"><path
       d="m 220.186,198.782 c -3.588,0 -6.495,-2.908 -6.495,-6.494 l 0,0 -0.001,-42.093 c 0.001,-3.586 2.908,-6.492 6.496,-6.494 l 0,0 42.09,0 c 3.585,0.002 6.492,2.909 6.494,6.494 l 0,0 c -0.019,3.645 -2.441,5.818 -2.475,5.861 l 0,0 -39.495,39.495 0.28,0 -1.652,1.368 c -1.083,0.938 -2.217,1.866 -5.018,1.866 l 0,0 c -0.074,0 -0.15,-0.002 -0.224,-0.003 l 0,0 z m -4.952,-48.587 0,42.093 c 0.004,2.734 2.216,4.945 4.951,4.951 l 0,0 c 2.732,-0.052 3.012,-0.524 4.228,-1.487 l 0,0 40.817,-40.815 c -0.003,-0.002 0.1,-0.089 0.288,-0.305 l 0,0 c 0.188,-0.216 0.442,-0.541 0.696,-0.956 l 0,0 c 0.509,-0.834 1.013,-2.025 1.011,-3.481 l 0,0 c -0.005,-2.731 -2.217,-4.943 -4.949,-4.949 l 0,0 -42.09,0 c -2.735,0.006 -4.947,2.216 -4.952,4.949 l 0,0 z m 10.246,46.675 -0.545,-0.547 0.545,0.547 0,0 z"
       id="path14"
       inkscape:connector-curvature="0"
       style="fill:#f4f4f4" /><path
       d="m 370.031,196.919 0.493,-0.596 0.545,-0.547 -0.545,0.547 -0.493,0.596 L 370,196.892 329.189,156.08 c -0.06,-0.065 -2.482,-2.239 -2.501,-5.882 l 0,0 c 0,-3.587 2.906,-6.494 6.495,-6.496 l 0,0 42.093,0 c 3.584,0.002 6.49,2.907 6.49,6.496 l 0,0 0.002,42.093 c -0.002,3.585 -2.908,6.492 -6.492,6.492 l 0,0 c -0.078,0.001 -0.15,0.003 -0.222,0.003 l 0,0 c -2.803,-0.001 -3.942,-0.928 -5.023,-1.867 l 0,0 z m 5.245,0.318 c 2.73,-0.004 4.941,-2.215 4.948,-4.947 l 0,0 -0.003,-42.093 c -0.004,-2.735 -2.213,-4.946 -4.945,-4.951 l 0,0 -42.093,0 c -2.736,0.005 -4.945,2.216 -4.949,4.951 l 0,0 c -0.008,2.174 1.138,3.783 1.706,4.434 l 0,0 c 0.187,0.216 0.286,0.306 0.315,0.331 l 0,0 40.789,40.791 c 1.217,0.962 1.496,1.435 4.232,1.484 l 0,0 z"
       id="path16"
       inkscape:connector-curvature="0"
       style="fill:#f4f4f4" /></g><path
     id="circle25"
     d="m 43.675,37.836 c -17.683,0 -32.021,14.361 -32.021,32.044 0,17.684 14.337,32.044 32.021,32.044 17.684,0 32.044,-14.36 32.044,-32.044 0,-17.684 -14.36,-32.044 -32.044,-32.044 z m 0,1.544 c 16.848,0 30.5,13.652 30.5,30.5 0,16.848 -13.652,30.5 -30.5,30.5 -16.849,0 -30.475,-13.652 -30.475,-30.5 0,-16.848 13.625,-30.5 30.475,-30.5 z"
     inkscape:connector-curvature="0"
     style="fill:#f4f4f4" /><path
     id="circle27"
     d="m 188.554,37.836 c -17.684,0 -32.046,14.361 -32.046,32.044 0,17.684 14.362,32.044 32.046,32.044 17.684,0 32.021,-14.36 32.021,-32.044 0,-17.684 -14.336,-32.044 -32.021,-32.044 z m 0,1.544 c 16.849,0 30.475,13.652 30.475,30.5 0,16.848 -13.626,30.5 -30.475,30.5 -16.85,0 -30.5,-13.652 -30.5,-30.5 0,-16.848 13.65,-30.5 30.5,-30.5 z"
     inkscape:connector-curvature="0"
     style="fill:#f4f4f4" /><path
     id="line29"
     d="m 45.003,26.23 0,1.544 139.351,0 0,-1.544 -139.351,0 z"
     inkscape:connector-curvature="0"
     style="fill:#f4f4f4" /><path
     id="rect31"
     d="m 107.717,0 0,0.772 0,5.454 0,0.771 0.772,0 15.395,0 0.772,0 0,-0.771 0,-5.454 0,-0.772 -0.772,0 -15.395,0 -0.772,0 z m 1.543,1.544 13.851,0 0,3.909 -13.851,0 0,-3.909 z"
     inkscape:connector-curvature="0"
     style="fill:#f4f4f4" /><path
     id="rect33"
     d="m 107.307,10.183 0,0.772 0,5.454 0,0.771 0.772,0 16.215,0 0.772,0 0,-0.771 0,-5.454 0,-0.772 -0.772,0 -16.215,0 -0.772,0 z m 1.545,1.544 14.671,0 0,3.91 -14.671,0 0,-3.91 z"
     inkscape:connector-curvature="0"
     style="fill:#f4f4f4" /><path
     id="polyline35"
     d="m 106.898,20.365 0,0.773 0,5.453 1.545,0 0,-4.681 15.467,0 0,4.681 1.545,0 0,-5.453 0,-0.772 -0.772,0 -17.012,0 -0.773,0 z"
     inkscape:connector-curvature="0"
     style="fill:#f4f4f4" /><g
     id="g37"
     transform="translate(-181.61501,-5.162)"><polygon
       points="293.425,16.031 291.881,16.031 291.881,16.031 291.881,11.4 293.425,11.4 "
       id="polygon25"
       style="fill:#f4f4f4" /><polygon
       points="303.71,15.895 302.164,15.895 302.164,15.895 302.164,11.4 303.71,11.4 "
       id="polygon27"
       style="fill:#f4f4f4" /></g><g
     id="g43"
     transform="translate(-181.61501,-5.162)"><polygon
       points="293.425,26.35 291.881,26.35 291.881,26.35 291.881,21.719 293.425,21.719 "
       id="polygon30"
       style="fill:#f4f4f4" /><polygon
       points="303.71,26.215 302.164,26.215 302.164,26.215 302.164,21.718 303.71,21.718 "
       id="polygon32"
       style="fill:#f4f4f4" /></g></svg>