<?xml version="1.0" encoding="UTF-8" standalone="no"?>
<svg
   xmlns:dc="http://purl.org/dc/elements/1.1/"
   xmlns:cc="http://creativecommons.org/ns#"
   xmlns:rdf="http://www.w3.org/1999/02/22-rdf-syntax-ns#"
   xmlns:svg="http://www.w3.org/2000/svg"
   xmlns="http://www.w3.org/2000/svg"
   viewBox="0 0 573.375 228.125"
   height="228.125"
   width="573.375"
   xml:space="preserve"
   version="1.1"
   id="svg2"><metadata
     id="metadata8"><rdf:RDF><cc:Work
         rdf:about=""><dc:format>image/svg+xml</dc:format><dc:type
           rdf:resource="http://purl.org/dc/dcmitype/StillImage" /><dc:title></dc:title></cc:Work></rdf:RDF></metadata><defs
     id="defs6"><clipPath
       id="clipPath16"
       clipPathUnits="userSpaceOnUse"><path
         id="path18"
         d="m 0,182.5 458.7,0 L 458.7,0 0,0 0,182.5 Z" /></clipPath></defs><g
     transform="matrix(1.25,0,0,-1.25,0,228.125)"
     id="g10"><g
       id="g12"><g
         clip-path="url(#clipPath16)"
         id="g14"><g
           transform="translate(134.8949,116.4184)"
           id="g20"><path
             id="path22"
             style="fill:#000000;fill-opacity:1;fill-rule:nonzero;stroke:none"
             d="M 0,0 C -0.275,-0.977 0.446,-1.942 0.837,-1.888 1.831,-1.331 3.6,-0.4 4.8,-0.3 c 4.5,0.4 8.9,1.4 13.4,2.1 8.3,1.3 16.7,2.7 25,4.1 4.8,0.8 9.6,1.6 14.4,2.6 1.4,0.3 1.9,-0.2 2.2,-1.4 3.1,-11.6 6.1,-23.1 9.3,-34.6 0.4,-1.3 0.1,-2 -1.3,-2.5 -5.8,-2.1 -11.9,-3.2 -17.9,-4.6 -12.4,-2.8 -24.8,-5.5 -37.3,-8.3 -0.8,-0.2 -2.1,-0.1 -1.9,-1.6 0.2,-1.5 0.8,-1.9 2.2,-1.6 3,0.7 6,1.3 8.9,2.1 1.3,0.3 2.5,0 3.7,0.5 0.6,0.2 0.7,-0.4 0.8,-0.8 3.6,-14.3 7.1,-28.7 10.7,-43 0.4,-1.8 0.3,-2.2 -1.5,-2.7 -20.1,-5.8 -40.3,-11.7 -60.4,-17.5 -9.9,-2.9 -19.9,-5.8 -29.8,-8.7 -2,-0.6 -2.2,-0.5 -2.7,1.5 -1.7,7.3 -3.2,14.7 -5,22 -0.6,2.6 0,4.4 2,6.1 5.5,4.9 10.9,10 16.4,15 1,1 1.2,2 0.9,3.3 -3.6,16.4 -7.3,32.7 -11,49.2 -1.9,8.5 -3.9,17 -5.8,25.5 -0.4,1.9 0.7,3.2 2,4.7 -3.4,0.6 -6.6,1.3 -9.8,1.9 -12.1,2.3 -24.2,4.6 -36.4,6.9 -8.1,1.5 -16.2,3.1 -24.3,4.5 -1.8,0.3 -2.4,1.3 -2.7,2.9 -1.1,5.6 -2.2,11.3 -3.3,17 -0.1,0.6 -0.3,1.3 -0.4,1.9 -0.8,3.4 0.8,7 4.1,8.3 1.6,0.6 3.3,0.4 5,0.6 7.3,0.6 14.5,1.2 21.7,1.8 5.7,0.4 11.4,0.8 17.1,1.3 6.9,0.6 13.8,1.2 20.7,1.7 5.8,0.4 11.6,0.8 17.4,1.3 8.1,0.6 16.3,1.4 24.4,2 5.7,0.4 11.4,0.8 17.1,1.3 6.3,0.5 12.5,1 18.8,1.5 4.8,0.4 9.6,0.3 14.2,-1.8 12,-5.6 20.9,-14.3 25.3,-26.9 2.4,-6.7 3.9,-13.7 5.8,-20.5 l 0,-0.2 c 1.1,-4 1,-3.9 -2.5,-6.1 C 50.1,7.9 45.5,7.2 40.7,6.4 33,5.2 25.3,3.9 17.5,2.6 13.32,1.935 9.077,0.899 4.861,0.407 4.589,0.375 3.638,0.113 2.415,-0.005 1.834,-0.061 0.721,0.348 0.242,0.262" /></g><g
           transform="translate(5.1949,168.5184)"
           id="g24"><path
             id="path26"
             style="fill:#cd8258;fill-opacity:1;fill-rule:nonzero;stroke:none"
             d="m 0,0 c 0.8,0.5 1.7,0.6 2.6,0.6 6.3,0.4 12.7,0.9 19,1.4 5.8,0.4 11.5,0.9 17.3,1.3 5.3,0.4 10.6,0.9 16,1.3 5.9,0.5 11.7,0.9 17.6,1.4 5.7,0.4 11.5,1 17.1,1.4 5.5,0.4 11.1,0.9 16.6,1.3 5.8,0.4 11.5,0.9 17.3,1.4 4.5,0.4 9,0.6 13.4,1 1.9,0.2 3.9,0.4 5.8,0.6 7.1,0.6 13,-2.1 18.8,-5.8 10.8,-7.1 17.2,-17 20,-29.5 1,-4.6 2.3,-9 3.5,-13.6 0.1,-0.2 0,-0.5 0,-0.7 -0.6,-0.5 -1.3,-0.6 -2,-0.7 -11.8,-1.8 -23.6,-3.9 -35.4,-5.6 -2.2,-0.3 -4.4,-0.7 -6.6,-1 -1.7,-0.2 -3.4,-0.1 -5.1,0.3 -19.2,3.9 -38.4,7.7 -57.6,11.5 -13.6,2.9 -27.4,5.5 -41.2,8.3 -10.3,2.1 -20.6,4.2 -30.9,6.2 -2.3,0.4 -3.5,1.5 -3.8,3.8 -0.7,4.4 -1.7,8.8 -2.6,13.2 0,0.6 -0.2,1.3 0.2,1.9" /></g><g
           transform="translate(84.8949,127.2184)"
           id="g28"><path
             id="path30"
             style="fill:#cd8258;fill-opacity:1;fill-rule:nonzero;stroke:none"
             d="m 0,0 c 11.8,-2.3 23.6,-4.6 35.5,-6.9 2.9,-0.6 5.7,-1.1 8.6,-1.7 2.7,-0.5 3,-0.7 3.6,-3.4 3.7,-15.4 7.5,-30.9 11.2,-46.3 0.1,-0.3 0.2,-0.6 0.3,-0.8 1.5,-0.8 2.9,-0.8 4.5,-0.4 3,0.9 6,1.4 9.1,2.1 0.5,0.1 1.1,0.2 1.6,-0.2 1.6,-6 3.2,-12.1 4.8,-18.1 1.7,-6.7 3.3,-13.4 5,-20.1 0.1,-0.5 0.2,-1.1 0.2,-1.6 -0.4,-1.1 -1.4,-1.3 -2.3,-1.5 -9.4,-2.7 -18.8,-5.6 -28.1,-8.3 -16.8,-4.9 -33.7,-9.8 -50.5,-14.7 -0.3,-0.1 -0.6,-0.2 -0.9,-0.2 -1.8,-0.4 -2.5,0 -2.9,1.9 -0.9,4.6 -1.8,9.1 -2.9,13.6 -0.2,1.1 -0.5,2.2 -0.7,3.2 -0.4,1.6 0,3 1.2,4.1 3.8,3.4 7.4,7 11.1,10.4 2,1.8 3.8,3.8 5.9,5.4 1.7,1.3 2.1,3.1 1.7,5.1 -0.9,4.2 -1.9,8.5 -2.8,12.7 -4.5,19.4 -8.9,38.8 -13.2,58.2 -0.4,1.9 -0.9,3.7 -1.3,5.6 -0.2,1.3 0,1.7 1.3,1.9" /></g><g
           transform="translate(192.6949,121.9184)"
           id="g32"><path
             id="path34"
             style="fill:#cd8258;fill-opacity:1;fill-rule:nonzero;stroke:none"
             d="m 0,0 c 1.5,-5.5 3,-11.1 4.5,-16.6 1.3,-5 2.6,-9.9 4,-14.9 0.1,-0.3 0.1,-0.7 0.2,-1 -0.1,-1.2 -1.1,-1.2 -1.9,-1.4 -4.7,-1 -9.5,-2 -14.2,-3 -10.6,-2.3 -21.2,-4.5 -31.7,-6.9 -2.6,-0.6 -3.3,-0.2 -3.9,2.3 -2.6,10.2 -5,20.4 -7.5,30.5 -0.1,0.4 -0.2,0.8 -0.2,1.2 -0.2,1.5 0.2,2.1 1.7,2.3 5.3,0.8 10.5,1.7 15.8,2.6 7.3,1.3 14.5,2.4 21.8,3.7 3.2,0.6 6.4,1 9.6,1.7 C -1.3,0.6 -0.6,0.6 0,0" /></g><g
           transform="translate(5.1949,168.5184)"
           id="g36"><path
             id="path38"
             style="fill:#af5e3a;fill-opacity:1;fill-rule:nonzero;stroke:none"
             d="m 0,0 c 1,-5.2 2.1,-10.5 3.1,-15.8 0.3,-1.6 1.2,-2.4 2.9,-2.7 11.2,-2.2 22.4,-4.5 33.6,-6.7 9.6,-1.9 19.2,-3.8 28.7,-5.6 10.9,-2.2 21.9,-4.4 32.8,-6.5 10.8,-2.1 21.6,-4.1 32.3,-6.6 5.4,-1.3 10.4,-0.2 15.6,0.5 5,0.7 10,1.5 15,2.3 5.1,0.8 10.2,1.7 15.4,2.5 1.9,0.3 3.8,0.5 5.6,0.8 0.2,-1.3 -0.5,-1.7 -1.6,-1.9 -5.7,-0.9 -11.4,-1.8 -17.1,-2.7 -7.3,-1.1 -14.5,-2.1 -21.7,-3.5 -4.2,-0.8 -8.1,-0.2 -12.2,0.6 -14.6,3 -29.4,5.8 -44,8.7 -11.4,2.3 -22.8,4.5 -34.3,6.7 -12.2,2.4 -24.3,4.8 -36.5,7.1 -4.7,0.9 -9.4,1.9 -14.2,2.7 -1.1,0.2 -1.7,0.7 -1.9,1.8 -1.1,5.5 -2.2,11 -3.3,16.5 C -2,0 -1.8,0.2 0,0" /></g><g
           transform="translate(84.8949,127.2184)"
           id="g40"><path
             id="path42"
             style="fill:#af5e3a;fill-opacity:1;fill-rule:nonzero;stroke:none"
             d="m 0,0 c -1.3,-0.2 -1.1,-1.1 -0.9,-2 1.5,-6.5 2.9,-13 4.4,-19.5 3,-13.3 6,-26.7 9.1,-40 1.3,-5.7 2.5,-11.4 3.9,-17.1 0.5,-2.3 -0.4,-4 -2.1,-5.5 -2.1,-1.7 -4,-3.5 -5.9,-5.4 -3.6,-3.3 -7.1,-6.7 -10.7,-10 -1.3,-1.1 -1.6,-2.3 -1.3,-4 1.3,-5.5 2.3,-11.1 3.5,-16.6 0.4,-2 0.8,-2.2 2.8,-1.6 19,5.5 38,11.1 56.9,16.6 7.5,2.2 15,4.4 22.5,6.6 0.8,0.2 1.5,0.6 2.1,1 0.5,-1.7 -0.9,-1.8 -1.9,-2.1 -4.5,-1.4 -9,-2.6 -13.4,-4 -22.6,-6.7 -45.3,-13.3 -67.9,-20 -2.2,-0.6 -2.3,-0.6 -2.8,1.9 -1.3,6.3 -2.7,12.5 -4.1,18.7 -0.4,1.6 0,2.7 1.3,3.8 6.1,5.6 12.1,11.3 18.1,16.9 1.1,1 1.3,2.2 1,3.5 -3.2,14.4 -6.5,28.8 -9.8,43.2 -2.6,11.4 -5.2,22.7 -7.7,34 -0.4,2 -0.2,2.2 1.7,1.7 C -0.8,0.2 -0.3,0.4 0,0" /></g><g
           transform="translate(192.6949,121.9184)"
           id="g44"><path
             id="path46"
             style="fill:#af5e3a;fill-opacity:1;fill-rule:nonzero;stroke:none"
             d="m 0,0 c -2.3,0.8 -4.4,-0.4 -6.6,-0.8 -6.8,-1 -13.6,-2.3 -20.4,-3.4 -5.6,-0.9 -11.1,-1.9 -16.7,-2.8 -1.7,-0.3 -3.5,-0.5 -5.2,-0.8 -1.2,-0.2 -2.1,-0.4 -1.6,-2.1 1.5,-5.4 2.7,-10.9 4,-16.3 1.3,-5.2 2.6,-10.4 3.9,-15.6 0.5,-1.9 0.8,-2.1 2.7,-1.7 12.2,2.7 24.4,5.3 36.7,7.9 3.4,0.7 6.9,1.5 10.3,2.2 0.6,0.1 1.2,0.2 1.5,0.9 0.6,-1.4 -0.3,-1.9 -1.5,-2.2 -4.4,-1 -8.7,-2 -13.1,-2.9 -11.7,-2.6 -23.4,-5.1 -35.1,-7.7 -2,-0.4 -2.3,-0.3 -2.8,1.7 -2.8,11.3 -5.6,22.7 -8.4,34 -0.4,1.4 -0.1,2 1.4,2.3 7.1,1.1 14.3,2.3 21.4,3.5 8.8,1.5 17.5,3 26.3,4.4 1.1,0.1 2.4,1 3.2,-0.6" /></g><g
           transform="translate(159.1949,69.6184)"
           id="g48"><path
             id="path50"
             style="fill:#af5e3a;fill-opacity:1;fill-rule:nonzero;stroke:none"
             d="m 0,0 c -3.9,-0.7 -7.7,-1.6 -11.5,-2.6 -1.4,-0.4 -2.7,-0.4 -3.6,1 3.9,0.3 7.5,1.5 11.3,2.3 0.8,0.2 1.6,0.4 2.3,0.4 C -0.7,1.4 -0.1,1 0,0" /></g><g
           transform="translate(437.6084,64.0523)"
           id="g52"><path
             id="path54"
             style="fill:none;stroke:#000000;stroke-width:1;stroke-linecap:butt;stroke-linejoin:miter;stroke-miterlimit:10;stroke-dasharray:none;stroke-opacity:1"
             d="m 0,0 12.4,0 c 2.3,0 4.3,-0.6 6,-2.1 1.5,-1.4 2.5,-3.1 2.7,-5.1 0.1,-1.1 0.1,-2.2 0.1,-3.3 l 0,-23.4 c 0,-1.9 -0.5,-3.6 -1.6,-5.1 -1.4,-1.9 -3.3,-3 -5.6,-3.3 -0.6,-0.1 -1.1,-0.1 -1.7,-0.1 l -24.9,0 c -2.5,0 -4.7,0.9 -6.4,2.7 -1.2,1.4 -2,3 -2.1,4.8 -0.1,2.2 -0.1,4.4 -0.1,6.6 l 0,19.6 c 0,1.8 0.4,3.5 1.5,5 1.4,2 3.3,3.2 5.8,3.5 0.5,0.1 1,0.1 1.5,0.1 C -8.4,0 -4.2,0 0,0 Z m -12.7,-21.2 c 0.1,-7 5.5,-12.5 12.3,-12.7 7.3,-0.2 12.8,5.6 13,12.4 0.1,7 -5.4,12.6 -12.2,12.9 -7.3,0.3 -13.1,-5.5 -13.1,-12.6 z" /></g><g
           transform="translate(216.765,22.1637)"
           id="g56"><path
             id="path58"
             style="fill:#c0392b;fill-opacity:1;fill-rule:nonzero;stroke:none"
             d="m 0,0 0,42 3.3,0 c 1.2,0 1,0.1 1,-1 l 0,-6.8 0,-0.7 4.4,0 c 0.5,0 1,-0.1 1.4,-0.2 1.7,-0.5 2.8,-2.3 2.8,-3.9 L 12.9,4 C 12.9,1.8 11,-0.1 8.8,-0.1 5.9,0 3,0 0,0 m 8.6,29.3 -4.3,0 0,-25 4.3,0" /></g><g
           transform="translate(204.5121,22.1646)"
           id="g60"><path
             id="path62"
             style="fill:#c0392b;fill-opacity:1;fill-rule:nonzero;stroke:none"
             d="m 0,0 -12.9,0 0,42 2.7,0 c 1.5,0 1.5,0 1.5,-1.5 l 0,-35.4 0,-0.8 1.1,0 c 1.4,0 2.9,0 4.3,-0.1 C -1.4,4 -0.1,2.1 0.1,0.4 0,0.3 0,0.2 0,0" /></g><g
           transform="translate(212.1555,55.7332)"
           id="g64"><path
             id="path66"
             style="fill:#c0392b;fill-opacity:1;fill-rule:nonzero;stroke:none"
             d="m 0,0 0,-33.9 c -1.1,-0.1 -2,0.4 -2.8,1.1 -1,0.9 -1.5,2 -1.5,3.3 l 0,28.8 0,0.7 4.3,0 z" /></g><path
           id="path68"
           style="fill:#c0392b;fill-opacity:1;fill-rule:nonzero;stroke:none"
           d="m 207.995,64.118 4.2,0 0,-4.3 -4.2,0 0,4.3 z" /><g
           transform="translate(294.5409,47.2752)"
           id="g70"><path
             id="path72"
             style="fill:#000000;fill-opacity:1;fill-rule:nonzero;stroke:none"
             d="m 0,0 26.6,0 0,-8.9 -26.5,0 0,-7.8 31,0 0,-8.8 -44.3,0 0,0.6 0,27 c 0,0.9 0.3,1.8 0.7,2.6 2,3.6 4,7.3 6,10.9 0.4,0.8 1.2,0.9 1.9,1 l 0.5,0 34.6,0 0.6,0 0,-8.9 -0.7,0 -25.6,0 C 3.8,7.7 3.1,7.3 2.7,6.3 1.9,4.3 1,2.2 0.2,0.2 0.1,0.3 0.1,0.2 0,0" /></g><g
           transform="translate(370.1277,64.0131)"
           id="g74"><path
             id="path76"
             style="fill:#000000;fill-opacity:1;fill-rule:nonzero;stroke:none"
             d="m 0,0 0.7,0 34.1,0 c 1.5,0 2.5,-0.7 3.2,-1.9 1.1,-2.2 2.2,-4.5 3.3,-6.8 0.9,-1.8 1.7,-3.6 2.6,-5.4 0.3,-0.7 0.6,-1.5 0.2,-2.3 -0.3,-0.6 -0.7,-1.1 -1.1,-1.5 -2.1,-2.5 -4.3,-5 -6.5,-7.5 -0.3,-0.3 -0.5,-0.6 -0.8,-0.9 -0.3,-0.2 -0.2,-0.4 -0.1,-0.7 2.3,-4 4.6,-8 6.9,-12 0.6,-1 1.2,-2 1.8,-3.1 l -0.5,0 -12.3,0 c -0.4,0 -0.6,0.1 -0.8,0.4 -3.4,5.6 -6.8,11.3 -10.2,16.9 -0.4,0.6 -0.7,1.2 -1.1,1.7 -0.3,0.5 -0.4,0.9 -0.1,1.4 0.3,0.5 0.7,0.6 1.2,0.6 l 4.1,0 c 0.9,0 1.7,0.3 2.3,1.1 1.2,1.5 2.5,2.8 3.8,4.2 0.2,0.2 0.3,0.4 0.1,0.6 -0.7,1.7 -1.4,3.4 -2,5.1 -0.4,0.9 -1,1.3 -2,1.3 l -12.9,0 -0.7,0 0,-33.4 L 0,-42.2 0,0 Z" /></g><g
           transform="translate(437.6084,64.0523)"
           id="g78"><path
             id="path80"
             style="fill:#000000;fill-opacity:1;fill-rule:nonzero;stroke:none"
             d="m 0,0 12.4,0 c 2.3,0 4.3,-0.6 6,-2.1 1.5,-1.4 2.5,-3.1 2.7,-5.1 0.1,-1.1 0.1,-2.2 0.1,-3.3 l 0,-23.4 c 0,-1.9 -0.5,-3.6 -1.6,-5.1 -1.4,-1.9 -3.3,-3 -5.6,-3.3 -0.6,-0.1 -1.1,-0.1 -1.7,-0.1 l -24.9,0 c -2.5,0 -4.7,0.9 -6.4,2.7 -1.2,1.4 -2,3 -2.1,4.8 -0.1,2.2 -0.1,4.4 -0.1,6.6 l 0,19.6 c 0,1.8 0.4,3.5 1.5,5 1.4,2 3.3,3.2 5.8,3.5 0.5,0.1 1,0.1 1.5,0.1 C -8.4,0 -4.2,0 0,0 m -12.7,-21.2 c 0.1,-7 5.5,-12.5 12.3,-12.7 7.3,-0.2 12.8,5.6 13,12.4 0.1,7 -5.4,12.6 -12.2,12.9 -7.3,0.3 -13.1,-5.5 -13.1,-12.6" /></g><g
           transform="translate(325.8262,34.9877)"
           id="g82"><path
             id="path84"
             style="fill:#000000;fill-opacity:1;fill-rule:nonzero;stroke:none"
             d="m 0,0 0,15.7 0.6,0 12.1,0 c 0.5,0 0.6,0.1 0.6,0.6 l 0,12 0,0.7 15.7,0 0,-13.3 13.2,0 0,-15.7 -13.3,0 0,-13.3 -15.7,0 0,0.6 0,12 C 13.2,-0.2 13.1,0 12.5,0 L 0.5,0 C 0.6,0 0,0 0,0 m 21.1,12.5 c -2.6,0 -4.7,-2 -4.7,-4.6 0,-2.6 2.1,-4.6 4.6,-4.7 2.6,0 4.6,2 4.7,4.6 0,2.6 -2,4.7 -4.6,4.7 m 12,-9.1 4.4,4.4 -4.4,4.4 0,-8.8 z M 16.7,20 l 8.9,0 -4.4,4.4 c -1.6,-1.5 -3,-3 -4.5,-4.4 M 4.6,7.9 C 6,6.5 7.5,5 8.9,3.5 l 0,8.7 C 7.5,10.8 6,9.3 4.6,7.9 M 21,-8.6 c 1.5,1.5 3,2.9 4.4,4.4 l -8.8,0 c 1.5,-1.5 3,-3 4.4,-4.4" /></g><g
           transform="translate(247.7735,55.1985)"
           id="g86"><path
             id="path88"
             style="fill:#000000;fill-opacity:1;fill-rule:nonzero;stroke:none"
             d="m 0,0 0,-33.4 -13.3,0 0,42.2 0.7,0 34.4,0 c 1.2,0 2.1,-0.4 2.6,-1.4 0.8,-1.5 1.5,-3 2.3,-4.5 1.3,-2.8 2.7,-5.5 4,-8.3 0.5,-1.1 0.4,-2.1 -0.5,-3 -1.7,-1.9 -3.3,-3.8 -4.9,-5.7 -0.9,-1.1 -1.9,-2.2 -2.8,-3.3 -0.3,-0.3 -0.3,-0.5 -0.1,-0.8 2.8,-5 5.7,-9.9 8.5,-14.9 0,-0.1 0.1,-0.1 0.1,-0.2 l -0.4,0 -12.3,0 c -0.3,0 -0.5,0.1 -0.7,0.4 -3.7,6.2 -7.5,12.4 -11.2,18.7 -0.3,0.5 -0.4,1 -0.1,1.5 0.3,0.5 0.7,0.6 1.3,0.6 l 3.9,0 c 1,0 1.8,0.3 2.4,1.1 1.2,1.4 2.4,2.8 3.7,4.2 0.2,0.3 0.3,0.5 0.1,0.7 -0.6,1.6 -1.3,3.2 -1.9,4.8 -0.5,1.1 -1,1.5 -2.2,1.5 L 0.8,0.2 0,0.2 C 0,0.2 0,0 0,0" /></g></g></g></g></svg>