<?xml version="1.0" encoding="UTF-8" standalone="no"?>
<!-- Generator: Adobe Illustrator 13.0.0, SVG Export Plug-In . SVG Version: 6.00 Build 14948)  -->

<svg
   xmlns:ns="&amp;ns_sfw;"
   xmlns:dc="http://purl.org/dc/elements/1.1/"
   xmlns:cc="http://creativecommons.org/ns#"
   xmlns:rdf="http://www.w3.org/1999/02/22-rdf-syntax-ns#"
   xmlns:svg="http://www.w3.org/2000/svg"
   xmlns="http://www.w3.org/2000/svg"
   xmlns:sodipodi="http://sodipodi.sourceforge.net/DTD/sodipodi-0.dtd"
   xmlns:inkscape="http://www.inkscape.org/namespaces/inkscape"
   version="1.2"
   id="Layer_3"
   x="0px"
   y="0px"
   width="270.98901"
   height="336.634"
   viewBox="0 0 270.989 336.63399"
   xml:space="preserve"
   inkscape:version="0.91 r13725"
   sodipodi:docname="controller.svg"><defs
     id="defs82" /><sodipodi:namedview
     pagecolor="#ffffff"
     bordercolor="#666666"
     borderopacity="1"
     objecttolerance="10"
     gridtolerance="10"
     guidetolerance="10"
     inkscape:pageopacity="0"
     inkscape:pageshadow="2"
     inkscape:window-width="690"
     inkscape:window-height="480"
     id="namedview80"
     showgrid="false"
     fit-margin-top="0"
     fit-margin-left="0"
     fit-margin-right="0"
     fit-margin-bottom="0"
     inkscape:zoom="0.48145317"
     inkscape:cx="134.10051"
     inkscape:cy="167.276"
     inkscape:window-x="0"
     inkscape:window-y="0"
     inkscape:window-maximized="0"
     inkscape:current-layer="Layer_3" /><metadata
     id="metadata55"><rdf:RDF><cc:Work
         rdf:about=""><dc:format>image/svg+xml</dc:format><dc:type
           rdf:resource="http://purl.org/dc/dcmitype/StillImage" /><dc:title></dc:title></cc:Work></rdf:RDF><ns:sfw><ns:slices /><ns:sliceSourceBounds
         x="-7231"
         y="-7652"
         width="16383"
         height="16383"
         bottomLeftOrigin="true" /></ns:sfw></metadata><path
     id="path3"
     d="m 39.936,32.153 c -5.133,0.001 -9.848,1.824 -13.328,4.864 -3.481,3.032 -5.744,7.378 -5.74,12.234 l 0,176.188 c -0.014,11.386 3.213,20.748 8.853,28.091 8.464,11.023 21.882,17.366 37.115,21.038 15.253,3.667 32.482,4.691 49.08,4.694 18.184,0 18.143,10e-4 34.901,0 23.109,-0.039 48.132,-12.276 67.663,-29.308 19.476,-17.072 33.706,-39.03 33.781,-59.806 l 0,-140.892 c 0.004,-4.855 -2.282,-9.202 -5.764,-12.234 -3.481,-3.041 -8.195,-4.863 -13.328,-4.865 l -193.232,0 -10e-4,-0.004 z m 0,1.557 193.232,0 c 4.767,10e-4 9.119,1.69 12.307,4.475 3.177,2.768 5.231,6.697 5.229,11.066 l 0,140.892 c -0.074,20.066 -13.988,41.733 -33.247,58.614 -19.313,16.841 -44.082,28.905 -66.641,28.942 -16.758,0.002 -16.717,0 -34.901,0 -16.533,-0.004 -33.656,-1.049 -48.716,-4.669 -15.04,-3.627 -28.11,-9.829 -36.265,-20.453 -5.425,-7.066 -8.526,-16.048 -8.514,-27.139 l 0,-176.187 c -0.003,-4.369 2.027,-8.298 5.205,-11.066 3.188,-2.785 7.54,-4.474 12.306,-4.475 l 0.005,0 z m 0,3.672 c -3.899,-10e-4 -7.406,1.37 -9.899,3.551 -2.489,2.189 -3.961,5.118 -3.964,8.318 l 0,176.188 c 0.013,10.427 2.877,18.504 7.782,24.928 4.915,6.42 11.966,11.209 20.479,14.74 17.018,7.074 39.751,8.939 61.581,8.926 l 34.901,0 c 21.239,0.039 45.464,-11.581 64.233,-28.019 18.827,-16.396 32.058,-37.558 31.982,-55.865 l 0,-140.892 c -0.003,-3.201 -1.474,-6.13 -3.965,-8.318 -2.493,-2.182 -5.998,-3.553 -9.898,-3.551 l -193.232,0 0,-0.006 z m 0,1.557 193.232,0 c 3.529,-10e-4 6.682,1.241 8.877,3.162 2.206,1.938 3.426,4.422 3.43,7.15 l 0,140.892 c 0.072,17.547 -12.851,38.503 -31.448,54.699 -18.542,16.237 -42.547,27.667 -63.211,27.629 l -34.901,0 c -21.74,0.015 -44.346,-1.882 -60.998,-8.806 -8.335,-3.453 -15.119,-8.1 -19.823,-14.249 -4.702,-6.155 -7.455,-13.838 -7.467,-23.979 l 0,-176.187 c 0.003,-2.728 1.249,-5.211 3.454,-7.151 2.193,-1.912 5.333,-3.163 8.853,-3.161 l 0.002,10e-4 z"
     inkscape:connector-curvature="0"
     style="fill:#f4f4f4" /><path
     id="path5"
     d="m 224.855,152.178 c -11.068,0.926 -28.906,8.942 -56.55,28.531 l -0.024,0.024 -0.025,0 c -9.18,7.323 -20.646,18.48 -30.741,29.283 -10.095,10.804 -18.786,21.222 -22.449,27.216 -3.636,5.95 -5.389,11.222 -3.624,15.469 0.882,2.122 2.646,3.885 5.302,5.229 2.655,1.345 6.226,2.295 10.847,2.846 18.514,2.204 51.438,-3.24 74.911,-23.64 23.458,-20.391 35.665,-52.832 36.992,-70.289 0.334,-4.417 -0.444,-8.328 -2.822,-11.042 -2.377,-2.713 -6.288,-4.084 -11.82,-3.624 l 0.003,-0.003 z m 3.697,1.533 c 3.226,0.275 5.459,1.405 6.956,3.113 1.994,2.277 2.747,5.731 2.432,9.898 -1.282,16.876 -13.419,49.192 -36.459,69.22 -23.028,20.016 -55.726,25.44 -73.718,23.3 -4.505,-0.537 -7.896,-1.478 -10.312,-2.7 -2.417,-1.222 -3.852,-2.691 -4.572,-4.426 -1.44,-3.468 -0.008,-8.299 3.527,-14.083 3.507,-5.738 12.195,-16.183 22.254,-26.947 10.049,-10.754 21.479,-21.877 30.547,-29.112 0.009,-0.007 0.017,-0.018 0.025,-0.024 27.529,-19.506 45.3,-27.343 55.744,-28.213 1.305,-0.11 2.5,-0.118 3.576,-0.026 l 0,0 z"
     inkscape:connector-curvature="0"
     style="fill:#f4f4f4" /><path
     id="ellipse7"
     d="m 220.38,179.629 c -2.027,-2.479 -5.114,-3.846 -8.821,-4.256 -3.709,-0.408 -8.063,0.117 -12.837,1.479 -9.545,2.727 -20.733,8.789 -31.414,17.524 -10.682,8.734 -18.843,18.498 -23.408,27.315 -2.282,4.405 -3.682,8.586 -4.016,12.301 -0.336,3.715 0.412,6.997 2.438,9.474 2.026,2.479 5.11,3.88 8.817,4.288 3.709,0.41 8.065,-0.149 12.839,-1.514 9.547,-2.726 20.749,-8.77 31.431,-17.505 10.681,-8.735 18.827,-18.518 23.393,-27.333 2.283,-4.408 3.678,-8.552 4.013,-12.267 0.335,-3.713 -0.41,-7.028 -2.435,-9.506 l 0,0 z m -1.205,0.985 c 1.717,2.101 2.408,4.936 2.099,8.369 -0.31,3.433 -1.638,7.451 -3.854,11.729 -4.435,8.561 -12.456,18.2 -22.997,26.82 -10.541,8.62 -21.599,14.586 -30.868,17.232 -4.635,1.324 -8.817,1.814 -12.244,1.436 -3.426,-0.378 -6.067,-1.617 -7.785,-3.718 -1.718,-2.101 -2.395,-4.918 -2.084,-8.35 0.31,-3.433 1.619,-7.435 3.835,-11.716 4.434,-8.559 12.477,-18.213 23.016,-26.834 10.54,-8.621 21.58,-14.572 30.85,-17.219 4.635,-1.323 8.835,-1.827 12.262,-1.45 3.424,0.379 6.051,1.6 7.77,3.701 l 0,0 z"
     inkscape:connector-curvature="0"
     style="fill:#f4f4f4" /><path
     id="circle9"
     d="m 171.464,218.745 c -1.241,0 -2.263,1.021 -2.263,2.263 0,1.239 1.021,2.262 2.263,2.262 1.242,0 2.262,-1.022 2.262,-2.262 0,-1.243 -1.021,-2.263 -2.262,-2.263 z m 0,1.556 c 0.399,0 0.705,0.307 0.705,0.706 0,0.398 -0.306,0.705 -0.705,0.705 -0.399,0 -0.705,-0.307 -0.705,-0.705 0,-0.399 0.306,-0.706 0.705,-0.706 z"
     inkscape:connector-curvature="0"
     style="fill:#f4f4f4" /><path
     id="circle11"
     d="m 177.691,213.733 c -1.24,0 -2.263,1.021 -2.263,2.262 0,1.241 1.022,2.263 2.263,2.263 1.241,0 2.262,-1.021 2.262,-2.263 0,-1.242 -1.021,-2.262 -2.262,-2.262 z m 0,1.557 c 0.398,0 0.705,0.306 0.705,0.705 0,0.398 -0.307,0.705 -0.705,0.705 -0.399,0 -0.706,-0.307 -0.706,-0.705 0,-0.4 0.306,-0.705 0.706,-0.705 z"
     inkscape:connector-curvature="0"
     style="fill:#f4f4f4" /><path
     id="circle13"
     d="m 183.994,208.751 c -1.24,0 -2.261,1.022 -2.261,2.263 0,1.239 1.021,2.261 2.261,2.261 1.24,0 2.262,-1.021 2.262,-2.261 0,-1.24 -1.021,-2.263 -2.262,-2.263 z m 0,1.558 c 0.398,0 0.706,0.305 0.706,0.705 0,0.397 -0.308,0.705 -0.706,0.705 -0.399,0 -0.705,-0.308 -0.705,-0.705 0,-0.4 0.306,-0.705 0.705,-0.705 z"
     inkscape:connector-curvature="0"
     style="fill:#f4f4f4" /><path
     id="circle15"
     d="m 190.221,203.739 c -1.24,0 -2.261,1.022 -2.261,2.263 0,1.241 1.021,2.262 2.261,2.262 1.24,0 2.262,-1.021 2.262,-2.262 0,-1.241 -1.022,-2.263 -2.262,-2.263 z m 0,1.558 c 0.398,0 0.705,0.304 0.705,0.704 0,0.398 -0.307,0.705 -0.705,0.705 -0.4,0 -0.705,-0.307 -0.705,-0.705 0,-0.4 0.304,-0.704 0.705,-0.704 z"
     inkscape:connector-curvature="0"
     style="fill:#f4f4f4" /><path
     id="path17"
     d="m 262.764,180.709 c 0,38.657 -12.25,57.139 -36.846,82.017 -25.531,25.816 -65.012,29.599 -91.301,29.599 -13.054,0 -37.142,-3.248 -61.217,-3.502 -24.075,-0.255 -48.214,2.433 -61.558,14.738 l 1.044,1.136 c 12.731,-11.74 36.541,-14.577 60.487,-14.323 23.946,0.252 47.93,3.502 61.242,3.502 26.439,0 66.357,-3.729 92.397,-30.063 24.688,-24.965 37.31,-44.116 37.31,-83.105 l -1.557,0 -10e-4,0.001 z"
     inkscape:connector-curvature="0"
     style="fill:#f4f4f4" /><path
     id="rect19"
     d="m 25.757,80.506 0,0.779 0,2.286 0,0.778 0.778,0 219.67,0 0.778,0 0,-0.778 0,-2.286 0,-0.779 -0.778,0 -219.67,0 -0.778,0 z m 1.556,1.557 218.115,0 0,0.729 -218.115,0 0,-0.729 z"
     inkscape:connector-curvature="0"
     style="fill:#f4f4f4" /><path
     id="path21"
     d="M 19.895,0 C 8.914,0 0,8.914 0,19.895 l 0,263.791 c 0,25.718 14.775,39.118 32.177,45.871 17.402,6.752 37.473,7.077 48.569,7.077 l 74.302,0 c 66.424,0 115.941,-53.903 115.941,-120.291 l 0,-196.446 c 0,-10.979 -8.92,-19.894 -19.9,-19.894 l -13.131,0 c -0.555,0 -1.059,0.343 -1.289,0.706 -0.229,0.362 -0.292,0.701 -0.292,0.997 l 0,16.319 c 0,1.979 -1.57,3.551 -3.551,3.551 l -192.529,0 c -1.979,0 -3.575,-1.571 -3.575,-3.551 l 0,-16.367 c 0,-0.386 -0.04,-0.782 -0.316,-1.143 C 36.129,0.154 35.644,0.004 35.263,0.004 l -15.371,0 L 19.895,0 Z m 0,1.557 15.273,0 c 0.006,0.029 0,-0.016 0,0.097 l 0,16.369 c 0,2.82 2.311,5.107 5.132,5.107 l 192.53,0 c 2.822,0 5.108,-2.287 5.108,-5.107 l 0,-16.32 c 0,-0.038 0.036,-0.113 0.048,-0.146 l 13.106,0 c 10.141,0 18.339,8.199 18.339,18.338 l 0,196.447 c 0,65.616 -48.8,118.734 -114.385,118.734 l -74.3,0 c -11.066,0 -30.972,-0.346 -48.011,-6.957 C 15.705,321.512 1.564,308.818 1.564,283.687 l 0,-263.79 C 1.564,9.758 9.762,1.56 19.902,1.56 L 19.895,1.557 Z"
     inkscape:connector-curvature="0"
     style="fill:#f4f4f4" /><path
     id="path23"
     d="m 38.379,0 0,0.778 0,15.348 c 0,1.259 0.381,2.343 1.241,2.991 0.86,0.648 2.011,0.827 3.454,0.827 l 0.778,0 0,-0.778 0,-18.387 0,-0.778 -0.778,0 -3.916,0 L 38.379,0 l 0,0 z m 1.557,1.557 2.36,0 0,16.757 c -0.799,-0.073 -1.417,-0.203 -1.727,-0.438 -0.413,-0.311 -0.633,-0.764 -0.633,-1.751"
     inkscape:connector-curvature="0"
     style="fill:#f4f4f4" /><path
     id="rect25"
     d="m 44.776,0 0,0.778 0,18.387 0,0.779 0.778,0 3.916,0 0.778,0 0,-0.779 0,-18.386 0,-0.779 -0.778,0 -3.916,0 -0.778,0 z m 1.557,1.557 2.359,0 0,16.83 -2.359,0 0,-16.83 z"
     inkscape:connector-curvature="0"
     style="fill:#f4f4f4" /><path
     id="rect27"
     d="m 51.149,0 0,0.778 0,18.387 0,0.779 0.778,0 3.916,0 0.778,0 0,-0.779 0,-18.386 0,-0.779 -0.778,0 -3.916,0 -0.778,0 z m 1.556,1.557 2.359,0 0,16.83 -2.359,0 0,-16.83 z"
     inkscape:connector-curvature="0"
     style="fill:#f4f4f4" /><path
     id="rect29"
     d="m 57.545,0 0,0.778 0,18.387 0,0.779 0.778,0 3.916,0 0.779,0 0,-0.779 0,-18.386 0,-0.779 -0.779,0 -3.916,0 -0.778,0 z m 1.557,1.557 2.359,0 0,16.83 -2.359,0 0,-16.83 z"
     inkscape:connector-curvature="0"
     style="fill:#f4f4f4" /><path
     id="rect31"
     d="m 63.917,0 0,0.778 0,18.387 0,0.779 0.778,0 3.916,0 0.778,0 0,-0.779 0,-18.386 0,-0.779 -0.778,0 -3.916,0 -0.778,0 z m 1.556,1.557 2.36,0 0,16.83 -2.36,0 0,-16.83 z"
     inkscape:connector-curvature="0"
     style="fill:#f4f4f4" /><path
     id="rect33"
     d="m 70.313,0 0,0.778 0,18.387 0,0.779 0.778,0 3.892,0 0.778,0 0,-0.779 0,-18.386 0,-0.779 -0.778,0 -3.892,0 -0.778,0 z m 1.557,1.557 2.334,0 0,16.83 -2.334,0 0,-16.83 z"
     inkscape:connector-curvature="0"
     style="fill:#f4f4f4" /><path
     id="rect35"
     d="m 76.686,0 0,0.778 0,18.387 0,0.779 0.778,0 3.915,0 0.778,0 0,-0.779 0,-18.386 0,-0.779 -0.778,0 -3.915,0 -0.778,0 z m 1.556,1.557 2.359,0 0,16.83 -2.359,0 0,-16.83 z"
     inkscape:connector-curvature="0"
     style="fill:#f4f4f4" /><path
     id="rect37"
     d="m 83.082,0 0,0.778 0,18.387 0,0.779 0.778,0 3.892,0 0.778,0 0,-0.779 0,-18.386 0,-0.779 -0.778,0 -3.892,0 -0.778,0 z m 1.557,1.557 2.334,0 0,16.83 -2.334,0 0,-16.83 z"
     inkscape:connector-curvature="0"
     style="fill:#f4f4f4" /><path
     id="rect39"
     d="m 89.457,0 0,0.778 0,18.387 0,0.779 0.778,0 3.916,0 0.778,0 0,-0.779 0,-18.386 0,-0.779 -0.778,0 -3.916,0 -0.778,0 z m 1.556,1.557 2.359,0 0,16.83 -2.359,0 0,-16.83 z"
     inkscape:connector-curvature="0"
     style="fill:#f4f4f4" /><path
     id="rect41"
     d="m 95.854,0 0,0.778 0,18.387 0,0.779 0.778,0 3.892,0 0.778,0 0,-0.779 0,-18.386 0,-0.779 -0.778,0 -3.892,0 -0.778,0 z m 1.557,1.557 2.334,0 0,16.83 -2.334,0 0,-16.83 z"
     inkscape:connector-curvature="0"
     style="fill:#f4f4f4" /><path
     id="rect43"
     d="m 102.22,0 0,0.778 0,18.387 0,0.779 0.778,0 3.916,0 0.778,0 0,-0.779 0,-18.386 0,-0.779 -0.778,0 -3.916,0 -0.778,0 z m 1.557,1.557 2.359,0 0,16.83 -2.359,0 0,-16.83 z"
     inkscape:connector-curvature="0"
     style="fill:#f4f4f4" /><path
     id="rect45"
     d="m 108.618,0 0,0.778 0,18.387 0,0.779 0.778,0 3.892,0 0.778,0 0,-0.779 0,-18.386 0,-0.779 -0.778,0 -3.892,0 -0.778,0 z m 1.556,1.557 2.334,0 0,16.83 -2.334,0 0,-16.83 z"
     inkscape:connector-curvature="0"
     style="fill:#f4f4f4" /><path
     id="rect47"
     d="m 114.992,0 0,0.778 0,18.387 0,0.779 0.778,0 3.916,0 0.778,0 0,-0.779 0,-18.386 0,-0.779 -0.778,0 -3.916,0 -0.778,0 z m 1.556,1.557 2.36,0 0,16.83 -2.36,0 0,-16.83 z"
     inkscape:connector-curvature="0"
     style="fill:#f4f4f4" /><path
     id="rect49"
     d="m 121.366,0 0,0.778 0,18.387 0,0.779 0.777,0 3.917,0 0.778,0 0,-0.779 0,-18.386 0,-0.779 -0.778,0 -3.917,0 -0.777,0 z m 1.557,1.557 2.359,0 0,16.83 -2.359,0 0,-16.83 z"
     inkscape:connector-curvature="0"
     style="fill:#f4f4f4" /><path
     id="rect51"
     d="m 127.764,0 0,0.778 0,18.387 0,0.779 0.778,0 3.916,0 0.779,0 0,-0.779 0,-18.386 0,-0.779 -0.779,0 -3.916,0 -0.778,0 z m 1.556,1.557 2.36,0 0,16.83 -2.36,0 0,-16.83 z"
     inkscape:connector-curvature="0"
     style="fill:#f4f4f4" /><path
     id="rect53"
     d="m 134.131,0 0,0.778 0,18.387 0,0.779 0.777,0 3.917,0 0.778,0 0,-0.779 0,-18.386 0,-0.779 -0.778,0 -3.917,0 -0.777,0 z m 1.556,1.557 2.359,0 0,16.83 -2.359,0 0,-16.83 z"
     inkscape:connector-curvature="0"
     style="fill:#f4f4f4" /><path
     id="rect55"
     d="m 140.527,0 0,0.778 0,18.387 0,0.779 0.779,0 3.916,0 0.778,0 0,-0.779 0,-18.386 0,-0.779 -0.778,0 -3.916,0 -0.779,0 z m 1.557,1.557 2.358,0 0,16.83 -2.358,0 0,-16.83 z"
     inkscape:connector-curvature="0"
     style="fill:#f4f4f4" /><path
     id="rect57"
     d="m 146.902,0 0,0.778 0,18.387 0,0.779 0.777,0 3.916,0 0.778,0 0,-0.779 0,-18.386 0,-0.779 -0.778,0 -3.916,0 -0.777,0 z m 1.556,1.557 2.358,0 0,16.83 -2.358,0 0,-16.83 z"
     inkscape:connector-curvature="0"
     style="fill:#f4f4f4" /><path
     id="rect59"
     d="m 153.297,0 0,0.778 0,18.387 0,0.779 0.78,0 3.915,0 0.778,0 0,-0.779 0,-18.386 0,-0.779 -0.778,0 -3.915,0 -0.78,0 z m 1.558,1.557 2.359,0 0,16.83 -2.359,0 0,-16.83 z"
     inkscape:connector-curvature="0"
     style="fill:#f4f4f4" /><path
     id="rect61"
     d="m 159.674,0 0,0.778 0,18.387 0,0.779 0.777,0 3.917,0 0.777,0 0,-0.779 0,-18.386 0,-0.779 -0.777,0 -3.917,0 -0.777,0 z m 1.556,1.557 2.359,0 0,16.83 -2.359,0 0,-16.83 z"
     inkscape:connector-curvature="0"
     style="fill:#f4f4f4" /><path
     id="rect63"
     d="m 166.07,0 0,0.778 0,18.387 0,0.779 0.778,0 3.914,0 0.78,0 0,-0.779 0,-18.386 0,-0.779 -0.78,0 -3.914,0 -0.778,0 z m 1.556,1.557 2.359,0 0,16.83 -2.359,0 0,-16.83 z"
     inkscape:connector-curvature="0"
     style="fill:#f4f4f4" /><path
     id="rect65"
     d="m 172.438,0 0,0.778 0,18.387 0,0.779 0.777,0 3.916,0 0.777,0 0,-0.779 0,-18.386 0,-0.779 -0.777,0 -3.916,0 -0.777,0 z m 1.555,1.557 2.358,0 0,16.83 -2.358,0 0,-16.83 z"
     inkscape:connector-curvature="0"
     style="fill:#f4f4f4" /><path
     id="rect67"
     d="m 178.833,0 0,0.778 0,18.387 0,0.779 0.78,0 3.89,0 0.778,0 0,-0.779 0,-18.386 0,-0.779 -0.778,0 -3.89,0 -0.78,0 z m 1.558,1.557 2.335,0 0,16.83 -2.335,0 0,-16.83 z"
     inkscape:connector-curvature="0"
     style="fill:#f4f4f4" /><path
     id="rect69"
     d="m 185.207,0 0,0.778 0,18.387 0,0.779 0.778,0 3.917,0 0.777,0 0,-0.779 0,-18.386 0,-0.779 -0.777,0 -3.917,0 -0.778,0 z m 1.558,1.557 2.358,0 0,16.83 -2.358,0 0,-16.83 z"
     inkscape:connector-curvature="0"
     style="fill:#f4f4f4" /><path
     id="rect71"
     d="m 191.606,0 0,0.778 0,18.387 0,0.779 0.778,0 3.892,0 0.779,0 0,-0.779 0,-18.386 0,-0.779 -0.779,0 -3.892,0 -0.778,0 z m 1.556,1.557 2.335,0 0,16.83 -2.335,0 0,-16.83 z"
     inkscape:connector-curvature="0"
     style="fill:#f4f4f4" /><path
     id="rect73"
     d="m 197.98,0 0,0.778 0,18.387 0,0.779 0.778,0 3.916,0 0.777,0 0,-0.779 0,-18.386 0,-0.779 -0.777,0 -3.916,0 -0.778,0 z m 1.556,1.557 2.358,0 0,16.83 -2.358,0 0,-16.83 z"
     inkscape:connector-curvature="0"
     style="fill:#f4f4f4" /><path
     id="rect75"
     d="m 204.37,0 0,0.778 0,18.387 0,0.779 0.778,0 3.891,0 0.778,0 0,-0.779 0,-18.386 0,-0.779 -0.778,0 -3.891,0 -0.778,0 z m 1.557,1.557 2.335,0 0,16.83 -2.335,0 0,-16.83 z"
     inkscape:connector-curvature="0"
     style="fill:#f4f4f4" /><path
     id="rect77"
     d="m 210.743,0 0,0.778 0,18.387 0,0.779 0.778,0 3.917,0 0.777,0 0,-0.779 0,-18.386 0,-0.779 -0.777,0 -3.917,0 -0.778,0 z m 1.557,1.557 2.359,0 0,16.83 -2.359,0 0,-16.83 z"
     inkscape:connector-curvature="0"
     style="fill:#f4f4f4" /><path
     id="rect79"
     d="m 217.117,0 0,0.778 0,18.387 0,0.779 0.778,0 3.916,0 0.777,0 0,-0.779 0,-18.386 0,-0.779 -0.777,0 -3.916,0 -0.778,0 z m 1.557,1.557 2.358,0 0,16.83 -2.358,0 0,-16.83 z"
     inkscape:connector-curvature="0"
     style="fill:#f4f4f4" /><path
     id="rect81"
     d="m 223.516,0 0,0.778 0,18.387 0,0.779 0.778,0 3.915,0 0.778,0 0,-0.779 0,-18.386 0,-0.779 -0.778,0 -3.915,0 -0.778,0 z m 1.555,1.557 2.359,0 0,16.83 -2.359,0 0,-16.83 z"
     inkscape:connector-curvature="0"
     style="fill:#f4f4f4" /><path
     id="path83"
     d="m 229.889,0 0,0.778 0,18.387 0,0.779 0.779,0 c 1.476,0 2.614,-0.134 3.478,-0.779 0.863,-0.644 1.216,-1.743 1.216,-3.04 l 0,-15.346 0,-0.779 -0.778,0 -3.915,0 -0.78,0 0,0 z m 1.557,1.557 2.358,0 0,14.569 c 0.001,1.057 -0.196,1.511 -0.584,1.799 -0.267,0.2 -1.059,0.24 -1.774,0.316"
     inkscape:connector-curvature="0"
     style="fill:#f4f4f4" /><path
     id="line85"
     d="m 35.875,1.46 0,1.557 3.308,0 0,-1.557 -3.308,0 z"
     inkscape:connector-curvature="0"
     style="fill:#f4f4f4" /><path
     id="line87"
     d="m 43.049,1.46 0,1.557 2.432,0 0,-1.557 -2.432,0 z"
     inkscape:connector-curvature="0"
     style="fill:#f4f4f4" /><path
     id="line89"
     d="m 49.495,1.46 0,1.557 2.457,0 0,-1.557 -2.457,0 z"
     inkscape:connector-curvature="0"
     style="fill:#f4f4f4" /><path
     id="line91"
     d="m 55.867,1.46 0,1.557 2.432,0 0,-1.557 -2.432,0 z"
     inkscape:connector-curvature="0"
     style="fill:#f4f4f4" /><path
     id="line93"
     d="m 62.238,1.46 0,1.557 2.433,0 0,-1.557 -2.433,0 z"
     inkscape:connector-curvature="0"
     style="fill:#f4f4f4" /><path
     id="line95"
     d="m 68.636,1.46 0,1.557 2.456,0 0,-1.557 -2.456,0 z"
     inkscape:connector-curvature="0"
     style="fill:#f4f4f4" /><path
     id="line97"
     d="m 75.032,1.46 0,1.557 2.456,0 0,-1.557 -2.456,0 z"
     inkscape:connector-curvature="0"
     style="fill:#f4f4f4" /><path
     id="line99"
     d="m 81.456,1.46 0,1.557 2.432,0 0,-1.557 -2.432,0 z"
     inkscape:connector-curvature="0"
     style="fill:#f4f4f4" /><path
     id="line101"
     d="m 87.853,1.46 0,1.557 2.432,0 0,-1.557 -2.432,0 z"
     inkscape:connector-curvature="0"
     style="fill:#f4f4f4" /><path
     id="line103"
     d="m 94.079,1.46 0,1.557 2.432,0 0,-1.557 -2.432,0 z"
     inkscape:connector-curvature="0"
     style="fill:#f4f4f4" /><path
     id="line105"
     d="m 100.594,1.46 0,1.557 2.432,0 0,-1.557 -2.432,0 z"
     inkscape:connector-curvature="0"
     style="fill:#f4f4f4" /><path
     id="line107"
     d="m 106.89,1.46 0,1.557 2.433,0 0,-1.557 -2.433,0 z"
     inkscape:connector-curvature="0"
     style="fill:#f4f4f4" /><path
     id="line109"
     d="m 113.365,1.46 0,1.557 2.432,0 0,-1.557 -2.432,0 z"
     inkscape:connector-curvature="0"
     style="fill:#f4f4f4" /><path
     id="line111"
     d="m 119.661,1.46 0,1.557 2.457,0 0,-1.557 -2.457,0 z"
     inkscape:connector-curvature="0"
     style="fill:#f4f4f4" /><path
     id="line113"
     d="m 126.082,1.46 0,1.557 2.457,0 0,-1.557 -2.457,0 z"
     inkscape:connector-curvature="0"
     style="fill:#f4f4f4" /><path
     id="line115"
     d="m 132.481,1.46 0,1.557 2.431,0 0,-1.557 -2.431,0 z"
     inkscape:connector-curvature="0"
     style="fill:#f4f4f4" /><path
     id="line117"
     d="m 138.947,1.46 0,1.557 2.433,0 0,-1.557 -2.433,0 z"
     inkscape:connector-curvature="0"
     style="fill:#f4f4f4" /><path
     id="line119"
     d="m 145.276,1.46 0,1.557 2.456,0 0,-1.557 -2.456,0 z"
     inkscape:connector-curvature="0"
     style="fill:#f4f4f4" /><path
     id="line121"
     d="m 151.642,1.46 0,1.557 2.432,0 0,-1.557 -2.432,0 z"
     inkscape:connector-curvature="0"
     style="fill:#f4f4f4" /><path
     id="line123"
     d="m 158.016,1.46 0,1.557 2.432,0 0,-1.557 -2.432,0 z"
     inkscape:connector-curvature="0"
     style="fill:#f4f4f4" /><path
     id="line125"
     d="m 164.344,1.46 0,1.557 2.456,0 0,-1.557 -2.456,0 z"
     inkscape:connector-curvature="0"
     style="fill:#f4f4f4" /><path
     id="line127"
     d="m 170.709,1.46 0,1.557 2.433,0 0,-1.557 -2.433,0 z"
     inkscape:connector-curvature="0"
     style="fill:#f4f4f4" /><path
     id="line129"
     d="m 177.231,1.46 0,1.557 2.433,0 0,-1.557 -2.433,0 z"
     inkscape:connector-curvature="0"
     style="fill:#f4f4f4" /><path
     id="line131"
     d="m 183.551,1.46 0,1.557 2.457,0 0,-1.557 -2.457,0 z"
     inkscape:connector-curvature="0"
     style="fill:#f4f4f4" /><path
     id="line133"
     d="m 189.902,1.46 0,1.557 2.456,0 0,-1.557 -2.456,0 z"
     inkscape:connector-curvature="0"
     style="fill:#f4f4f4" /><path
     id="line135"
     d="m 196.298,1.46 0,1.557 2.432,0 0,-1.557 -2.432,0 z"
     inkscape:connector-curvature="0"
     style="fill:#f4f4f4" /><path
     id="line137"
     d="m 202.619,1.46 0,1.557 2.456,0 0,-1.557 -2.456,0 z"
     inkscape:connector-curvature="0"
     style="fill:#f4f4f4" /><path
     id="line139"
     d="m 208.971,1.46 0,1.557 2.455,0 0,-1.557 -2.455,0 z"
     inkscape:connector-curvature="0"
     style="fill:#f4f4f4" /><path
     id="line141"
     d="m 215.438,1.46 0,1.557 2.456,0 0,-1.557 -2.456,0 z"
     inkscape:connector-curvature="0"
     style="fill:#f4f4f4" /><path
     id="line143"
     d="m 221.787,1.46 0,1.557 2.433,0 0,-1.557 -2.433,0 z"
     inkscape:connector-curvature="0"
     style="fill:#f4f4f4" /><path
     id="line145"
     d="m 228.13,1.46 0,1.557 2.456,0 0,-1.557 -2.456,0 z"
     inkscape:connector-curvature="0"
     style="fill:#f4f4f4" /><path
     id="line147"
     d="m 234.559,1.46 0,1.557 2.456,0 0,-1.557 -2.456,0 z"
     inkscape:connector-curvature="0"
     style="fill:#f4f4f4" /><path
     id="path149"
     d="m 257.566,237.938 c -2.825,0 -5.399,1.4 -6.835,3.647 -6.897,10.807 -10.616,14.714 -12.306,16.854 -0.892,1.129 -1.759,2.722 -1.606,4.427 0.077,0.854 0.457,1.713 1.192,2.408 0.737,0.695 1.786,1.234 3.235,1.58 2.728,0.655 5.926,1.364 9.023,1.192 3.096,-0.171 6.134,-1.29 8.292,-4.208 2.073,-2.802 3.885,-6.436 5.182,-9.751 1.292,-3.305 2.102,-6.175 2.042,-7.93 0,-0.008 0,-0.016 0,-0.024 -0.013,-4.519 -3.697,-8.196 -8.219,-8.195 l 0,0 z m 0,1.557 c 3.691,0 6.664,2.975 6.664,6.664 l 0,0.024 c 0.043,1.125 -0.664,4.127 -1.921,7.345 -1.258,3.215 -3.039,6.757 -4.987,9.387 -1.86,2.516 -4.352,3.421 -7.15,3.575 -2.797,0.154 -5.856,-0.494 -8.561,-1.143 -1.268,-0.304 -2.053,-0.743 -2.529,-1.191 -0.476,-0.449 -0.684,-0.916 -0.729,-1.435 -0.094,-1.04 0.55,-2.373 1.289,-3.309 1.57,-1.987 5.46,-6.122 12.403,-17.001 1.138,-1.78 3.209,-2.919 5.521,-2.919 l 0,0.003 z"
     inkscape:connector-curvature="0"
     style="fill:#f4f4f4" /><path
     id="path151"
     d="m 258.15,242.14 c -0.394,0.016 -0.787,0.156 -1.119,0.341 -0.1,0.055 -0.525,0.217 -1.047,0.34 -0.52,0.123 -1.156,0.231 -1.823,0.316 -1.336,0.17 -2.813,0.192 -3.526,0.023 l -0.364,1.509 c 1.134,0.267 2.649,0.207 4.085,0.024 0.717,-0.092 1.407,-0.227 1.995,-0.365 0.586,-0.139 1.044,-0.27 1.435,-0.486 0.313,-0.173 0.497,-0.112 0.486,-0.122 -0.006,-0.004 0.029,0.014 0.049,0.195 0.021,0.182 -0.003,0.498 -0.146,0.972 -0.293,0.973 -1.328,3.541 -2.505,6.276 -1.179,2.734 -2.514,5.694 -3.43,7.637 -0.918,1.944 -1.521,3.032 -2.019,3.574 -0.499,0.542 -0.841,0.678 -1.802,0.779 l -0.022,0 c -2.008,0.21 -6.546,0.422 -10.24,0 l -0.193,1.532 c 3.899,0.445 8.474,0.225 10.604,0 1.105,-0.116 2.045,-0.424 2.795,-1.241 0.754,-0.816 1.358,-2.021 2.287,-3.988 0.93,-1.97 2.27,-4.934 3.453,-7.686 1.182,-2.743 2.19,-5.19 2.555,-6.396 l 0,-0.024 c 0.184,-0.611 0.271,-1.132 0.219,-1.605 -0.053,-0.474 -0.263,-0.926 -0.607,-1.216 -0.347,-0.289 -0.727,-0.405 -1.12,-0.389 l 0,0 z"
     inkscape:connector-curvature="0"
     style="fill:#f4f4f4" /><path
     id="path153"
     d="m 255.37,245.182 c -2.592,7.023 -5.82,13.817 -7.199,15.785 l 1.289,0.899 c 1.666,-2.378 4.747,-9.047 7.369,-16.149 l -1.459,-0.535 0,0 z"
     inkscape:connector-curvature="0"
     style="fill:#f4f4f4" /></svg>