<?xml version="1.0" encoding="UTF-8" standalone="no"?>
<!-- Generator: Adobe Illustrator 13.0.0, SVG Export Plug-In . SVG Version: 6.00 Build 14948)  -->

<svg
   xmlns:dc="http://purl.org/dc/elements/1.1/"
   xmlns:cc="http://creativecommons.org/ns#"
   xmlns:rdf="http://www.w3.org/1999/02/22-rdf-syntax-ns#"
   xmlns:svg="http://www.w3.org/2000/svg"
   xmlns="http://www.w3.org/2000/svg"
   xmlns:sodipodi="http://sodipodi.sourceforge.net/DTD/sodipodi-0.dtd"
   xmlns:inkscape="http://www.inkscape.org/namespaces/inkscape"
   version="1.1"
   id="Layer_1"
   x="0px"
   y="0px"
   width="30"
   height="30"
   viewBox="0 0 30 30"
   enable-background="new 0 0 220 162"
   xml:space="preserve"
   inkscape:version="0.91 r13725"
   sodipodi:docname="icon_filled.svg"><metadata
     id="metadata29"><rdf:RDF><cc:Work
         rdf:about=""><dc:format>image/svg+xml</dc:format><dc:type
           rdf:resource="http://purl.org/dc/dcmitype/StillImage" /><dc:title></dc:title></cc:Work></rdf:RDF></metadata><defs
     id="defs27" /><sodipodi:namedview
     pagecolor="#ffffff"
     bordercolor="#666666"
     borderopacity="1"
     objecttolerance="10"
     gridtolerance="10"
     guidetolerance="10"
     inkscape:pageopacity="0"
     inkscape:pageshadow="2"
     inkscape:window-width="1920"
     inkscape:window-height="1027"
     id="namedview25"
     showgrid="false"
     inkscape:zoom="23.308642"
     inkscape:cx="14.314991"
     inkscape:cy="12.355932"
     inkscape:window-x="-8"
     inkscape:window-y="-8"
     inkscape:window-maximized="1"
     inkscape:current-layer="Layer_1" /><path
     d="m 17.131756,2.7056674 c 1.040542,0.156239 2.103213,0.519614 2.657342,0.689131 1.116447,0.341245 2.928874,1.4019392 3.568867,1.9107092 0.302735,0.240555 0.939409,0.870598 1.185934,1.187722 0.240108,0.308935 0.698858,0.9781504 0.991635,1.3904324 0.465831,0.6805 1.014428,1.694057 1.479817,2.626845 0.519828,1.042113 0.555457,1.343967 0.712578,2.215225 l 0.343675,1.53583 c 0.03231,0.26556 0.05909,1.23973 -0.512746,1.37627 -0.571612,0.13654 -1.100071,-0.12725 -1.349252,-0.51276 -0.344782,-0.53355 -0.297202,-1.29084 -0.687129,-2.15768 -0.304063,-0.70064 -0.437062,-1.718838 -0.92259,-2.451131 L 24.219034,9.872271 C 23.545183,8.834812 22.842784,8.011353 22.423868,7.474256 22.054965,7.0230226 21.366065,6.4095776 20.713015,5.9731726 c -0.60392,-0.366252 -1.580286,-0.783847 -2.284455,-0.998951 -0.224396,-0.07303 -1.184828,-0.355409 -1.781667,-0.4348562 -0.809949,-0.09095 -1.342834,-0.219087 -2.112507,-0.273307 -0.950252,-0.06705 -1.406125,-0.151591 -2.638753,-0.0076 -0.466939,0.126585 -1.206737,0.176819 -1.872622,0.4315372 -0.537754,0.219309 -1.285739,0.573611 -2.018456,1.004041 -0.788483,0.432423 -1.985482,1.316739 -2.779277,2.0718184 -0.799991,0.854884 -1.200097,1.313641 -1.751792,2.397353 -0.244313,0.536216 -0.716783,1.365658 -0.90732,1.951214 -0.130123,0.59442 -0.378419,1.70314 -0.336594,2.24156 0.01881,0.96465 -0.0655,1.16338 0.0068,1.95187 0.0026,0.70993 0.235683,1.20211 0.332611,1.7828 0.08298,0.40122 0.467823,1.78944 0.705939,2.11165 1.082368,2.33207 2.535186,3.34208 4.1542,4.07061 0.456315,0.23236 1.884349,0.614549 2.297512,0.724089 0.704391,0.12703 1.631407,0.21179 2.523679,0.22904 0.938745,0.0184 2.232672,-0.10887 3.017836,-0.39788 0.849783,-0.312489 1.832344,-0.756629 1.821058,-0.744239 0.394352,-0.21731 0.996061,-0.57206 1.183499,-0.72808 0.362265,-0.23216 0.580465,-0.322 0.795124,-0.54551 0.309595,-0.27086 0.497034,-0.42689 0.731609,-0.7626 0.130566,-0.18921 0.337922,-0.4789 0.539967,-0.73494 0.217314,-0.35608 0.342125,-0.7314 0.55435,-1.19569 0.253828,-0.6867 0.214438,-0.65372 0.262681,-1.38313 0.04558,-0.21135 -0.0049,-0.92171 -0.04316,-1.04232 -0.114411,-0.6555 -0.07391,-1.23375 -0.223953,-1.87022 -0.202709,-0.86107 -0.371117,-1.5055 -0.629814,-2.33162 -0.243205,-0.93013 -0.957554,-1.791872 -1.493759,-2.40731 -0.332167,-0.381528 -1.36275,-1.282673 -2.792554,-1.845441 -0.402541,-0.135436 -1.061565,-0.289018 -1.480039,-0.365367 -0.893379,-0.09339 -1.038771,-0.03341 -1.894086,0.02921 -0.294327,0.05134 -0.977693,0.190982 -1.228866,0.279281 -0.734709,0.258037 -1.004913,0.422021 -1.755998,0.882106 -0.34965,0.202934 -0.613216,0.358289 -0.970612,0.693343 -0.285252,0.264015 -0.489067,0.712815 -0.720103,0.975942 -0.316455,0.430656 -0.668761,1.005146 -0.905107,1.624796 -0.256263,0.61632 -0.338806,1.48404 -0.299858,2.04237 0,0.42557 0.115739,1.20454 0.161769,1.37494 0.04581,0.17063 0.160883,0.69954 0.18589,0.80576 0.025,0.10602 0.300079,0.66567 0.337921,0.74667 0.15513,0.33019 0.452112,0.80466 0.952465,1.28908 0.369125,0.40321 1.08281,0.79889 1.617022,0.95226 0.47911,0.26291 1.287069,0.3076 1.73409,0.30849 0.219969,-0.0132 0.781844,-0.0478 1.075064,-0.11817 0.594626,-0.14274 0.70439,-0.1465 1.317163,-0.41274 0.549925,-0.25493 0.923033,-0.34677 1.306098,-0.62982 0,0 0.525804,-0.41206 0.764805,-0.71347 0.12614,-0.15911 0.342348,-0.91729 0.303841,-1.38689 -0.01792,-0.64287 0.07568,-1.00758 -0.05554,-1.53649 -0.131229,-0.5289 -0.355182,-1.14191 -0.597947,-1.51967 -0.245861,-0.38262 -0.774541,-0.75553 -1.37625,-1.05228 -0.336814,-0.16643 -1.135035,-0.32067 -1.473621,-0.36073 -0.643312,-0.0764 -1.181286,0.21555 -1.507921,0.5495 -0.283261,0.32375 -0.843144,0.99628 -0.620076,1.69162 0.201823,0.62916 0.445472,1.29948 1.389085,1.24968 0.647517,0.13478 1.396609,-0.0609 1.646012,0.054 0.37023,0.21024 0.512525,0.67453 0.377976,0.9983 -0.09383,0.62428 -0.691776,0.69909 -1.329999,0.74667 -0.570948,0.0956 -2.021111,-0.18391 -2.339779,-0.4227 -0.213774,-0.12701 -0.541073,-0.4322 -0.771666,-0.63823 -0.165753,-0.14827 -0.353413,-0.47889 -0.481544,-0.71634 -0.157342,-0.29168 -0.236789,-0.50634 -0.277286,-0.69643 -0.04802,-0.22573 -0.146942,-0.6566 -0.109542,-1.08748 0.02523,-0.29057 0.103125,-0.41428 0.180579,-0.83918 0.154244,-0.48176 0.345888,-0.84846 0.654155,-1.26627 0.401656,-0.40764 0.911747,-0.892952 1.409668,-1.118457 0.439054,-0.231924 1.208284,-0.317346 1.904265,-0.276626 0.564531,0.05399 1.232407,0.122821 1.673896,0.270872 0.755731,0.269987 0.971717,0.323763 1.592015,0.715021 0.524254,0.32443 1.051606,0.92128 1.345932,1.41566 0.626051,1.28111 0.985218,2.70629 0.724086,4.62475 -0.02147,0.3242 -0.122377,0.64087 -0.324422,1.06998 -0.186554,0.39614 -0.513853,0.8779 -1.004913,1.24062 -0.19784,0.18301 -0.509648,0.40829 -0.763476,0.54018 -0.360273,0.21865 -0.602594,0.33241 -0.9788,0.52139 -0.330176,0.15513 -0.715013,0.33262 -1.216916,0.47204 -0.543949,0.21511 -0.961317,0.22395 -1.645348,0.32597 -0.673408,0.16887 -2.515712,0.0483 -3.613127,-0.43573 -0.749093,-0.31492 -1.589581,-0.87016 -2.228467,-1.5469 -0.354961,-0.372 -0.702178,-1.04697 -0.804196,-1.18507 -0.5081,-0.97681 -0.607684,-1.89566 -0.689121,-2.08863 -0.110649,-0.26224 -0.165752,-0.85024 -0.239886,-1.25257 -0.08366,-0.451 -0.03186,-2.34246 0.423563,-3.55652 C 5.60275,12.021486 5.753012,11.590614 5.92673,11.364223 6.238981,10.920069 6.389906,10.642554 6.655463,10.32764 7.055791,9.842102 7.34724,9.445974 7.737166,9.166693 8.730792,8.358724 9.56088,7.932498 10.683524,7.399164 c 1.39506,-0.5680794 1.813977,-0.4505684 3.134238,-0.4295444 0.593963,0.0051 1.458352,0.191867 1.883243,0.2693224 0.789148,0.105118 1.241258,0.295215 1.775029,0.44415 0.570726,0.159338 0.900681,0.413611 1.368947,0.696656 0.3855,0.248963 0.83916,0.589986 1.138797,0.866834 0.766575,0.562104 1.136363,1.152982 1.606178,1.878635 0.0852,0.121717 0.643091,1.310765 0.732054,1.641835 0.04116,0.16575 0.167521,0.64177 0.248517,0.91994 0.104231,0.44128 0.154687,0.83209 0.270868,1.33002 0.104009,0.51298 0.281047,1.48161 0.357838,2.38695 0.129017,0.77654 -0.07767,2.36171 -0.199611,2.84836 -0.271532,0.90733 -0.746436,2.01472 -1.684296,3.08117 -0.398336,0.47225 -0.821899,0.83829 -1.311188,1.235519 -0.374215,0.31226 -0.695318,0.49395 -1.273347,0.83917 -0.785164,0.4685 -1.382667,0.7677 -2.48318,1.19791 -0.448128,0.14384 -1.012659,0.33305 -1.621227,0.45897 -1.178853,0.10889 -2.390236,0.21334 -3.71249,0.0562 -1.322475,-0.15735 -2.647163,-0.53002 -3.429671,-0.77034 -0.431752,-0.162 -1.268257,-0.51277 -1.619014,-0.70153 -0.228157,-0.11597 -0.993183,-0.63912 -1.123085,-0.76504 -0.524255,-0.32443 -1.697574,-1.427829 -2.455076,-2.456439 -0.165973,-0.31779 -0.762814,-1.27137 -0.892272,-1.68919 -0.344118,-0.70661 -0.58400492,-1.56127 -0.72497092,-1.92642 -0.148712,-0.85223 -0.399885,-1.40106 -0.49792,-2.2566 0.01128,-0.20138 -0.0405,-0.67519 -0.08608,-0.93743 0.06661,-0.58556 -0.02235,-1.13749 0.09383,-1.77483 0.102017,-0.538 0.23723,-0.76261 0.269318,-1.24881 0.03142,-0.20802 0.299195,-0.833635 0.370453,-1.112031 C 1.0353931,11.024064 1.089167,10.6463 1.371101,10.133982 1.777404,9.335527 2.202073,8.416908 2.85468,7.614472 3.041013,7.36573 3.569472,6.7688806 3.749607,6.5619646 4.175384,6.1364036 4.42523,6.0691276 4.908101,5.6420176 c 0.05023,-0.03165 0.369124,-0.395243 0.703062,-0.520278 0.553466,-0.427553 1.03169,-0.5844542 1.558379,-0.9732812 1.055589,-0.52581 1.440426,-0.703293 2.48827,-1.139255 0.605472,-0.21599 1.449943,-0.335493 1.754006,-0.453445 0.578472,-0.03585 1.165574,-0.220416 1.774143,-0.18368 0.683146,-0.0064 1.371603,0.04227 2.058069,0.104675 0.464503,0.02855 1.068424,0.05112 1.887668,0.228825 l 0,0 z"
     id="path23"
     inkscape:connector-curvature="0"
     style="fill:#cf3311" /><ellipse
     style="fill:#666666;fill-opacity:0"
     id="path3357"
     cx="47.364407"
     cy="5.2881355"
     rx="47.364407"
     ry="24.711864" /></svg>