<svg xmlns="http://www.w3.org/2000/svg" width="200" height="200">
  <path d="M0 0v200h78.09524v-.59524l.47619-.95238.83333-.83333 1.07143-.35715.47619-.11905.59524.11905 1.07143.35715.714285.83333.47619.95238V200h32.380945l.11905-.59524.35714-.95238.71429-.83333 1.07143-.35715.59524-.11905.59524.11905 1.07143.35715.71428.83333.47619.95238V200H200V56.90476h-4.76191v-9.642855H200V0H0"/>
  <path fill="#3c3c3c" d="M131.07143 112.14286v.59524l-.35715 1.07142-.83333.71429-1.07143.47619h-1.07143l-1.07143-.47619-.71428-.71429-.47619-1.07142-.11905-.59524.11905-.59524.47619-.95238.71428-.83333 1.07143-.35715.47619-.11904.59524.11904 1.07143.35715.83333.83333.35715.95238v.59524M100 133.33333h.95238l1.90476.47619 2.5 1.07143 2.61905 2.61905 1.19047 2.5.35715 1.90476v40l-.35715 1.90476-1.19047 2.5-2.61905 2.61905-2.5 1.19048-1.90476.35714h-1.90476l-1.785715-.35714-2.61905-1.19048-2.619045-2.61905-1.07143-2.5-.47619-1.90476v-40L90.95238 140l1.07143-2.5 2.619045-2.61905 2.61905-1.07143 1.785715-.47619H100"/>
  <path fill="none" stroke="#0ff" stroke-width=".78571433" stroke-miterlimit="10" d="M119.04762 100v2.02381l-.83334 3.69048-1.42857 3.45238-2.02381 2.97619-2.61905 2.61905-2.97619 2.0238-3.45238 1.42858-3.69047.83333h-3.92857l-3.69048-.83333-3.45238-1.42858-3.095235-2.0238-2.61905-2.61905-2.02381-2.97619-1.42857-3.45238-.714285-3.69048L80.95238 100l.11905-1.904762.714285-3.690476 1.42857-3.452381 2.02381-3.095238 2.61905-2.619048 3.095235-2.023809 3.45238-1.428571 3.69048-.714286L100 80.952381l2.02381.119048 3.69047.714286 3.45238 1.428571 2.97619 2.023809 2.61905 2.619048 2.02381 3.095238 1.42857 3.452381.83334 3.690476V100z" stroke-linecap="square"/>
  <path fill="#3c3c3c" fill-rule="evenodd" d="M119.04762 100l-.11905 2.02381-.83333 3.69048-1.42858 3.45238-2.02381 2.97619-2.61904 2.61905-2.97619 2.0238-3.45238 1.42858-3.69048.83333H100l-1.90476-.11905-3.69048-.83333-3.45238-1.42857-3.095235-2.02381-2.61905-2.61905-2.02381-2.97619-1.42857-3.45238-.714285-3.69048L80.95238 100l.11905-1.904762.714285-3.690476 1.42857-3.452381 2.02381-3.095238 2.61905-2.619048 3.095235-2.023809 3.45238-1.428571 3.69048-.714286L100 80.952381l2.02381.119048 3.69047.714286 3.45238 1.428571 2.97619 2.023809 2.61905 2.619048 2.02381 3.095238 1.42857 3.452381.83334 3.690476V100zm4.7619 0l-.11905 2.5-.95238 4.64286-1.78571 4.16666-2.61905 3.80953-3.21428 3.21428-3.80953 2.61905-4.16667 1.78572-4.64285.95238-2.5.11904-2.38095-.11904-4.64286-.95238-4.285715-1.78572-3.809525-2.61905-3.214285-3.21428-2.619045-3.80953-1.785715-4.16666-.95238-4.64286-.11905-2.5.11905-2.380952.95238-4.642857 1.90476-4.285715 2.61905-3.809523L85 81.666667l3.809525-2.619048 4.285715-1.904762 4.642855-.952381 2.380955-.119047 2.5.119047 4.64285.952381 4.16667 1.904762 3.80952 2.619048 3.21429 3.214286 2.61905 3.809523 1.78571 4.285715.95238 4.642857V100z"/>
  <path fill="#fff" fill-rule="evenodd" d="M119.04762 100v2.02381l-.83334 3.69048-1.42857 3.45238-2.02381 2.97619-2.61905 2.61905-2.97619 2.0238-3.45238 1.42858-3.69047.83333h-3.92857l-3.69048-.83333-3.45238-1.42858-3.095235-2.0238-2.61905-2.61905-2.02381-2.97619-1.42857-3.45238-.714285-3.69048L80.95238 100l.11905-1.904762.714285-3.690476 1.42857-3.452381 2.02381-2.97619 2.61905-2.738096 3.095235-1.904761 3.45238-1.547619 3.69048-.714286L100 80.952381l2.02381.119048 3.69047.714286 3.45238 1.547619 2.97619 1.904761 2.61905 2.738096 2.02381 2.97619 1.42857 3.452381.83334 3.690476V100"/>
  <path fill="#1a1a1a" d="M100 119.52381l-1.90476-.11905-3.809525-.83333-3.45238-1.42857L87.738095 115l-2.619045-2.61905-2.14286-3.09524-1.42857-3.57142-.714285-3.80953L80.59524 100l.119045-1.904762.714285-3.809523 1.428575-3.571429L85 87.619048l2.61905-2.738095 3.095235-2.02381 3.45238-1.547619 3.809525-.714286L100 80.476191l2.02381.119047 3.80952.714286 3.57143 1.547619 3.09524 2.02381 2.61905 2.738095 2.14285 3.095238 1.42857 3.571429.83334 3.809523.11904 2.023812-.11904 2.02381-.83334 3.80952-1.42857 3.45238-2.14285 3.09524-2.61905 2.61905-3.09524 2.14286-3.57143 1.42857-3.80952.83333H100zm0-38.095238l-1.90476.119047-3.69048.714286-3.33333 1.428571-2.97619 2.02381-2.5 2.619048-2.02381 2.97619-1.428575 3.333333-.714285 3.571429V100l.11905 2.02381.714285 3.69048 1.42857 3.33333 2.02381 2.85714 2.5 2.5 2.97619 2.02381 3.333335 1.42857 3.690475.71429 1.904765.11905 2.0238-.11905 3.69048-.83333 3.33333-1.42858 2.7381-2.02381 2.5-2.5 2.02381-2.97619 1.42857-3.33333.71429-3.69048.11904-1.904757-.11904-1.904762-.83334-3.690476-1.42857-3.333334-2.02381-2.738095-2.5-2.619048-2.97619-1.904762-3.33333-1.428571-3.57143-.714286L100 81.428572z"/>
  <path fill="#ed1a24" d="M45.238095 4.52381H147.14285v7.85714H45.238095z"/>
  <path fill="#fff" d="M45.238095 12.38095H147.14285v7.857145H45.238095z"/>
  <path fill="#fff" d="M45.238095 20.11905H147.14285v7.85714H45.238095zm0 7.85714H147.14285v7.857145H45.238095z"/>
  <path fill="#fff" d="M45.238095 35.714285H147.14285v9.166665H45.238095z"/>
  <path fill="#231f20" d="M45.238095 12.142855H147.14285V12.5H45.238095zm0 7.857145H147.14285v.357145H45.238095zm0 7.738095H147.14285v.357145H45.238095zm0 7.857145H147.14285v.35714H45.238095z"/>
</svg>
