<svg xmlns="http://www.w3.org/2000/svg" viewBox="-.003 -.001 400.00001 108.72075">
  <linearGradient id="a" x1="439.68311" x2="439.68311" y1="979.90143" y2="1115.3945" gradientUnits="userSpaceOnUse" gradientTransform="matrix(0.70555195,0,0,0.70555195,35.072246,-683.58979)">
    <stop offset="0" stop-color="#ECEFEB"/>
    <stop offset=".1746" stop-color="#EAECE9"/>
    <stop offset=".2796" stop-color="#E1E4E0"/>
    <stop offset=".3661" stop-color="#D3D6D3"/>
    <stop offset=".4427" stop-color="#C0C1BF"/>
    <stop offset=".5127" stop-color="#A6A7A6"/>
    <stop offset=".5769" stop-color="#878787"/>
    <stop offset=".6" stop-color="#7A7A7A"/>
    <stop offset="1" stop-color="#343732"/>
  </linearGradient>
  <path fill="url(#a)" d="M308.17235 9.9791339L295.95361 92.002372c-.0995.66463.0727 1.31726.48189 1.83655.40922.51929 1.004.83749 1.67216.89676l11.32199.98706c1.3476.11854 2.60066-.8777 2.78481-2.21966 0 0 6.2138-44.686841 6.61173-47.566199.81562 2.804569 14.61833 50.199319 14.61833 50.199319.3556 1.21496 1.61783 2.27328 2.87724 2.40593l7.55011.80433c1.25094.13264 2.72414-.61736 3.35278-1.70603 0 0 24.12494-41.84064 25.47396-44.177426-.23001 2.671216-3.93839 45.770566-3.93839 45.770566-.007.0734-.0113.14464-.0113.21872 0 1.273518.97719 2.377008 2.26411 2.511768l13.56777 1.40193c.66181.0699 1.30809-.127 1.82455-.54892.51435-.42404.82832-1.02094.88759-1.68486l7.35467-82.472671c.0579-.661808-.14464-1.308093-.57361-1.818913-.42827-.510819-1.02799-.824084-1.6905-.88194l-12.73592-1.107716c-1.25377-.109361-2.71073.67098-3.31539 1.775168l-31.56216 57.644304c-.003.004-.004.004-.006.007-.001-.003-.001-.003-.003-.007L327.87136 11.62942c-.3309-1.229777-1.58325-2.2930441-2.85113-2.4207491l-14.03696-1.413221c-1.35325-.137582-2.61124.842429-2.81092 2.183684z"/>
  <path d="M398.1655 13.405294c-1.34619-1.605131-3.23566-2.590081-5.32197-2.772114l-12.73451-1.1070111c-3.36548-.292804-6.84315 1.5712641-8.4638 4.5317601 0 0-17.06589 31.161408-25.18609 45.993523-4.37372-16.21923-13.433-49.814792-13.433-49.814792-.91228-3.3845331-3.98284-5.9943691-7.47462-6.3450291l-14.03766-1.41322c-4.21567-.424037-8.00378 2.52517-8.6282 6.714032L290.66761 91.217092c-.31185 2.10537.25682 4.26788 1.57197 5.93087 1.31092 1.66087 3.2787 2.7199 5.40312 2.907578l11.31917.98777c4.2072.36759 7.95651-2.622538 8.54-6.805748 0 0 1.59454-11.47369 3.17498-22.83308 3.81704 13.10916 7.63548 26.22396 7.63548 26.22396.96167 3.301978 4.02094 5.863138 7.44005 6.223668l7.55152.80574c3.34855.3556 6.86149-1.43086 8.54212-4.34902 0 0 6.73873-11.685348 13.46475-23.348118-.93274 10.84503-1.87677 21.81425-1.87677 21.81425-.019.22366-.0289.44944-.0289.66957 0 3.971548 3.04022 7.412528 7.05693 7.827388l13.56706 1.40546c2.09619.21661 4.14511-.40216 5.77141-1.74412 1.62771-1.33843 2.62536-3.23284 2.81092-5.33397l7.35326-82.471264c.18838-2.08279-.45085-4.11619-1.79916-5.722732zm-21.2103 3.558804c.4699-.859362 1.65382-1.492948 2.63101-1.408282l4.19309.36477-4.30104 12.895373h-9.01202l6.48896-11.851861zm-66.0446-8.4630961l14.03696 1.413221c.97578.09807 1.9833.9517891 2.23519 1.8979351l3.8763 14.374209h-16.67008l-.11853.371826-2.10184 6.613139h-6.73167l3.44098-23.087071c.14322-.9687231 1.05832-1.6806251 2.03269-1.5832591zm-6.74578 64.0634101l2.46661 1.34196.11994.0649h7.45628l-1.02941 7.39842-14.66348-1.74483 1.05692-7.09009 4.59314.0296zm5.3248 22.44996l-11.32199-.98848c-.97578-.0854-1.65664-.94756-1.512-1.91628l1.70179-11.42712 14.67336 1.74695-1.5254 10.97839c-.13194.9666-1.03998 1.6905-2.01576 1.60654zm9.58563-50.763053c-.27587-.9405-.60748-.9151-.74436.05362l-3.97578 28.598843h-7.33422l-2.4652-1.33984-.11712-.0656-.13476-.001-4.57127-.0289 5.54211-37.227741h7.67006l.11853-.372532 2.10254-6.612432h16.1769l7.79564 28.910695h-8.13783v20.03133h-2.62677l-9.29847-31.945985zm65.57752 58.404181l-6.5581-.67804.66181-9.388068 3.39582-.44662.28222-.0381.127-.254.8643-1.74906h4.13524l-.97719 10.964978c-.0889.97367-.95673 1.68768-1.9311 1.58891zm3.00283-13.623508h-4.89794l-.14746.29634-.88335 1.7928-3.54399.46708-.42968.0564-.0332.43533-.68791 9.785298-5.94639-.61454c-.97296-.1023-1.7018-.98283-1.61784-1.957898l2.40453-27.95327h7.88948l.001-.53339.0451-17.026384 3.04376-11.010843 8.92241.03598-4.11902 46.227057zm4.21709-47.29526l-9.42265-.0381-.40499-.0014-.10724.392993-3.17498 11.475097-.019.06914v.07197l-.0466 16.56636h-6.73167l1.56421-18.167963c.0826-.975778-.25047-1.0802-.7373-.232126l-26.18515 45.411439c-.48754.84878-1.68698 1.45626-2.65993 1.35325l-7.55012-.80363c-.97436-.10301-1.9953-.95672-2.26835-1.89652l-5.4391-18.67314h3.38595v-20.03132h7.35608l4.64253 17.21758c.25471.94403.84878 1.01529 1.31868.15805l24.489-44.722825h10.36668l.12418-.365476 4.50071-13.503558 7.44851.647696c.97578.08467 1.70179.952495 1.61501 1.928274l-2.06444 23.14422z"/>
  <linearGradient id="b" x1="324.53561" x2="324.53561" y1="976.8916" y2="1105.9766" gradientUnits="userSpaceOnUse" gradientTransform="matrix(0.70555195,0,0,0.70555195,35.072246,-683.58979)">
    <stop offset="0" stop-color="#ECEFEB"/>
    <stop offset=".1746" stop-color="#EAECE9"/>
    <stop offset=".2796" stop-color="#E1E4E0"/>
    <stop offset=".3661" stop-color="#D3D6D3"/>
    <stop offset=".4427" stop-color="#C0C1BF"/>
    <stop offset=".5127" stop-color="#A6A7A6"/>
    <stop offset=".5769" stop-color="#878787"/>
    <stop offset=".6" stop-color="#7A7A7A"/>
    <stop offset="1" stop-color="#343732"/>
  </linearGradient>
  <path fill="url(#b)" d="M297.65399 5.7063109l-13.03296 2.626064c-1.25729.253293-2.37771 1.446382-2.55269 2.7163751 0 0-7.27142 52.816912-7.36243 53.477312-.32667-.57997-26.57532-47.282566-26.57532-47.282566-.63218-1.124649-2.11666-1.801274-3.3803-1.54022l-15.0078 3.101607c-.68791.14111-1.22201.547508-1.47319 1.114066-.24976.565853-.1905 1.236127.16792 1.837963l43.55937 73.39081c.65475 1.10136 2.1484 1.77658 3.40217 1.53951l7.60303-1.43791c1.25306-.23707 2.4017-1.40828 2.61548-2.66769l14.32835-84.6556551c.11853-.694263-.0677-1.338432-.51012-1.766702-.44097-.426859-1.09148-.590547-1.78151-.452964z"/>
  <path d="M303.75278 1.7065369C302.32262.31801094 300.2991-.27535806 298.3426.11833994L281.82069 3.4478389c-2.52305.507998-4.45203 2.557626-4.80339 5.108902 0 0-3.10655 22.5748401-5.43628 39.5059701-8.40736-14.958407-19.66444-34.987616-19.66444-34.987616-1.29045-2.297277-3.92216-3.4953041-6.50307-2.961907l-18.49605 3.822681c-1.9191.395815-3.52352 1.693325-4.31445 3.484015-.78951 1.789986-.66463 3.851608.33302 5.53435l45.37899 76.450788c1.29821 2.190028 3.82832 3.330908 6.33021 2.858188l11.09763-2.0962c2.48777-.469888 4.4231-2.441198 4.84432-4.938858l14.92101-88.1657701c.33231-1.964257-.32385-3.96873-1.75541-5.355845zm-20.97889 9.4395791c.13265-.970133 1.02799-1.9219231 1.98613-2.1159501l4.94945-.996945v3.7803481l-1.24107 1.097838-.18062.159455v2.995774l-1.27422 1.361715-.14464.154516v8.571045l-1.66017 1.391348h-4.69403l2.25917-16.399144zm-41.80748 21.731706h.53552v-7.109847h5.04328l.16087-.219427.94191-1.289043h3.61172l16.14091 28.720198-13.10915 10.936059-18.4262-31.037234 5.10114-.000706zM229.88784 19.50479l15.00779-3.101606c.95603-.19826 2.1343.338665 2.61548 1.191677l3.14606 5.597849h-3.55245l-.16158.218722-.94402 1.289748h-5.57034v7.109847h-5.1985l-6.18205-10.413946c-.49671-.84384-.12135-1.695442.83961-1.892291zm55.02811 72.959712c-.16157.9659-1.08373 1.9057-2.04539 2.08632l-7.5995 1.4358c-.96097.18203-2.1604-.35842-2.66064-1.20014l-5.37348-9.05506 10.77518-3.97861.34855-.12841v-5.20344l2.67616-2.04751 3.78175.0303.18839.001.14746-.11571 3.27164-2.57033-3.51012 20.74534zm1.59596-45.392386l1.40546-1.375121.16086-.157338v-2.751652h5.24508l-2.5026 14.783427h-4.33702l.0282-10.499316zm12.73027-39.2632601l-5.73966 33.9109431h-6.49461v3.371833l-1.40405 1.373709-.15945.157339-.001.223659-.0346 11.259203-.001.53621h5.22956l-1.94944 11.51179-4.04776 3.17922-3.77964-.0303-.18344-.001-.14464.11077-3.03176 2.32197-.20954.15946v4.98613l-10.6108 3.91793-11.84128-19.94807 13.09081-10.921943 6.32104 11.244383c.47978.85301.98213.75776 1.11477-.21237l5.00237-36.343689h5.23096l.14958-.125589 1.99953-1.676391.19121-.159455v-8.64795l1.27634-1.362421.14464-.15381v-2.937213l1.23895-1.098544.17921-.158749V7.8198889l7.01671-1.413221c.95885-.194026 1.61219.438148 1.44779 1.402638z"/>
  <path d="M249.39988 46.826584c10.70816 4.277761 13.52543 18.301308 11.80318 34.197398-.74789 6.89324-.89676 15.54401-7.6376 16.49228-2.29305.32243-4.88313-.2286-7.29188-.5207-2.16111-.26317-4.63477-1.12747-6.77048-.86712-1.29822.15874-2.28458 1.21425-3.47273 1.56138-2.63594.7747-5.91676.34713-9.54682.34713-2.21967 0-4.4732.036-6.42264-.34713-1.17545-.23142-2.37983-1.12183-3.64629-1.21425-1.15852-.0868-2.33044.55244-3.64488.69285-3.53482.37606-8.27542.49036-11.97957.17356-1.32644-.11712-2.79257-.88617-3.99131-.86712-1.18391.0176-2.51106.89676-3.81986 1.0421-4.63971.51435-9.51789-1.78998-13.53883-1.38782-1.87395.18768-3.76906 1.85066-6.24908 2.08208-3.57997.33796-9.46004.12842-13.01955-.51928-1.33419-.24271-2.70508-1.12888-3.99201-1.21567-1.16698-.0797-2.49836.57221-3.81845.69427-3.37465.31397-7.59174.34289-11.11103.17356-1.01317-.0508-2.02846-.40499-2.95203-.34713-1.59878.1023-3.1778 1.20861-4.68698 1.38923-4.028.48542-8.51601.55668-12.32387.17357-1.35325-.13759-2.72696-.85301-4.16699-.86713-1.95015-.0226-3.75777.90099-5.38125 1.04281-9.38172.81703-16.444298-3.68933-21.179257-8.85397-2.094078 1.00612-3.435332 2.86666-5.381245 4.16628-8.701572 5.82716-23.550618 4.14794-31.246779-1.90993-1.092194-.86006-2.650758-3.49248-3.992013-3.47131-1.143699.0191-3.136178 2.6811-4.166989 3.47131-4.097846 3.14042-9.615968 5.4391-16.490866 5.90195-10.343392.69355-18.607522-3.17217-23.9556054-8.1583-2.7410693-2.55904-6.6942769-6.76201-4.86054734-11.97745.94402844-2.68533 3.70696994-5.42852 5.72837624-7.81117.7443573-.87911 1.8619516-1.73707 1.908518-2.60419.086783-1.56139-2.4666096-3.88759-3.124184-5.03411-2.9830736-5.20486-3.938391-13.793543-1.0413947-20.311432C7.3913262 34.375003 16.515524 28.754576 28.933944 29.644277c4.734253.340076 9.594801 1.797041 13.713813 4.166285 5.884303 3.38171 11.988739 6.510128 10.068932 15.449471 2.480721-.531281 3.90523-2.297277 6.075508-3.29775 7.543056-3.482605 19.615049-3.236367 26.559092 1.215666.870651.559503 2.206261 1.897935 2.952029 1.908518 1.380765.01764 3.076912-2.765764 4.339145-3.298455 2.827852-1.192383 11.920297-1.257294 15.971577-.867124 1.61219.156633 3.26459 1.284105 4.51201 1.215666 1.3603-.07549 3.1143-1.760352 4.16699-2.083495 3.23566-.990595 13.20017-1.395581 16.83799-.347131 1.19591.343604 2.47367 1.749769 3.81986 1.909929 1.27917.151694 2.94639-.458609 4.33915-.520697 2.58514-.118533 5.4899-.294921 7.98543-.173566 1.79987.08819 3.50307 1.114772 5.20627 1.21496 1.58326.09525 3.47555-.708374 5.20768-.693557 1.38782.01129 2.98378.342898 4.33914.693557 1.29116.334432 2.58232 1.222722 3.6463 1.216372 1.58467-.01199 3.28222-1.201555 4.68698-1.562798 4.86055-1.247416 10.2679-.97225 15.27661.867829 1.12041.412042 3.15311 2.264116 4.33773 2.257061 1.40687-.0085 3.06492-2.452499 4.34056-2.95203 3.55386-1.384998 8.79682-1.204377 13.01814-1.0421 1.90287.07338 3.60889 1.12465 5.38265 1.214961 1.57268.08043 3.25754-.668864 4.85914-.693558 1.51835-.02469 2.98237.342898 4.34055.693558 1.36807.354187 2.81233 1.200849 3.81986 1.216371 1.34478.01693 2.66769-1.056917 3.81845-1.389937 5.2486-1.512703 11.48286-1.277049 16.84435.864301z"/>
  <path fill="#8ed703" d="M45.973729 67.072402c1.094311 2.16181 1.643936 4.73495 1.643936 7.72226 0 2.88148-.602541 5.3756-1.804802 7.48238-1.202966 2.10607-2.766469 3.8382-4.691215 5.19992-1.92404 1.36101-4.10349 2.37277-6.535527 3.04234-2.433449.66533-4.879598.99906-7.337035.99906-4.919814 0-9.049409-.90805-12.390903-2.7192-3.341495-1.81115-6.348557-4.55998-9.0211878-8.24155l5.6973318-7.19169c.527048-.66463 1.423099-.69074 1.98754-.0607 0 0 .655458.73166 1.777991 1.61078 1.122533.88194 2.337494 1.65381 3.648409 2.32056 1.308093.66815 2.64582 1.21425 4.009652 1.64111s2.632414.64064 3.808569.64064c1.17545 0 2.072912-.21449 2.686037-.64064.614535-.42615.923567-1.22625.923567-2.40029 0-1.01317-.549625-1.97343-1.643936-2.88147-1.097133-.90522-2.46026-1.85208-4.090085-2.83914-1.631941-.98566-3.395821-2.05316-5.29305-3.20109-1.89723-1.14652-3.661109-2.49272-5.29164-4.0414-1.631942-1.54516-2.995068-3.32104-4.0900847-5.32057-1.0957222-2.00095-1.643936-4.307395-1.643936-6.922171 0-2.560448.4811864-4.801281 1.4428537-6.721088.961667-1.921218 2.258472-3.533404 3.889708-4.841497 1.629825-1.305977 3.514354-2.293044 5.653588-2.961202 2.137117-.666041 4.409699-.999767 6.815632-.999767 4.27635 0 8.112436.787396 11.508257 2.360072 3.395116 1.574086 6.615961 3.908052 9.663945 7.000486L42.68374 52.21557c-.461431.711902-1.365948.840312-2.008001.283632 0 0-1.159221-1.001884-2.441209-1.830908-1.281988-.825495-2.539282-1.531753-3.768353-2.119478-1.230483-.587019-2.380533-1.026578-3.449444-1.320793-1.070322-.292804-2.003767-.440264-2.806685-.440264-.962373 0-1.670747.240593-2.125123.720368-.455786.480481-.681563 1.093606-.681563 1.84008 0 .95955.546803 1.85419 1.643936 2.681097 1.094311.826907 2.472254 1.679919 4.129596 2.560448 1.657341.88123 3.434626 1.86689 5.333972 2.95979 1.896524 1.09502 3.67522 2.4151 5.333267 3.96026 1.655225 1.5501 3.031757 3.40359 4.129596 5.56258zm21.020509-3.09597c.611008-.66392 1.30386-1.16839 2.077145-1.51411.771168-.34361 1.529637-.51717 2.277522-.51717 2.236599 0 3.900291.55809 4.992485 1.67427 1.091489 1.11619 1.586081 2.25565 1.586081 2.25565.336548.77611 1.282694 1.24319 2.10325 1.03928l9.692168-2.41863c-1.012467-4.4097-3.063507-7.97274-6.151708-10.681351-3.089612-2.710731-7.243902-4.065391-12.462869-4.065391-3.195445 0-6.04517.490359-8.549173 1.474604-2.504004.984245-4.606549 2.391115-6.310457 4.225548-1.705319 1.83373-2.996479 4.03999-3.874891 6.61596-.879118 2.5795-1.318677 5.46098-1.318677 8.64936 0 2.76436.399342 5.39465 1.198027 7.89372.798685 2.49906 2.036929 4.6891 3.715437 6.57574 1.677097 1.88806 3.793753 3.38877 6.351378 4.50495 2.556215 1.11477 5.618311 1.67287 9.186992 1.67287 2.023523 0 3.99413-.30904 5.91182-.91652 1.91769-.61171 3.67522-1.54233 5.273295-2.79045 1.598781-1.24883 2.995774-2.82927 4.193801-4.74484 1.198027-1.91275 2.229544-5.30434 2.229544-5.30434.246238-.80856-.218721-1.66087-1.030811-1.89582l-9.386663-2.68603c-.160866.8516-.507292 1.62065-1.039278 2.31209-.533397.69073-1.131705 1.28834-1.797747 1.79281-.666041.50729-1.345487.90593-2.037634 1.19802-.692146.2921-1.331376.43674-1.916984.43674-2.077145 0-3.769059-.79657-5.072919-2.39111-1.305976-1.59526-1.957201-3.69216-1.957201-6.29988 0-1.37865.199671-2.57456.599719-3.58702.399343-1.00542.904518-1.84291 1.518348-2.50895zm66.586462 6.75496c-.13335-3.30622-.2674-6.67523-.40075-10.11338-.13335-3.43816-.31397-9.5306-.31397-9.5306-.0247-.847368-.74013-1.526814-1.58749-1.507764l-13.12186.285043c.16157 2.559037.30762 4.771651.44097 6.637131.13335 1.86618.2413 3.65193.32103 5.35655.0797 1.70461.13335 3.46426.16157 5.27541.0247 1.81327.0402 3.94615.0402 6.39653 0 1.86619-.61454 3.34432-1.8422 4.43722-1.22907 1.0929-2.69662 1.63829-4.40829 1.63829-1.81468 0-3.17781-.5468-4.08585-1.63829-.90946-1.0929-1.36172-2.41158-1.36172-3.95744 0-2.76577.127-5.36079.39935-8.07293.2674-2.66275.53339-5.11525.80221-7.35679.32102-2.55762.86712-5.833502.86712-5.833502.139-.836784-.43956-1.514114-1.28834-1.504942l-13.681353.143227c-.374648 2.666281-.694263 5.330447-.961667 7.996017-.267404 2.29164-.493181 4.71662-.680858 7.27566-.187676 2.55762-.279398 4.84925-.279398 6.87419 0 2.87724.347131 5.47155 1.0421 7.77871.692852 2.30786 1.76388 4.26929 3.205323 5.8843 1.441442 1.61501 3.297753 2.85819 5.568923 3.73308 2.26976.87135 4.98049 1.3095 8.13148 1.3095.90805 0 1.8422-.11994 2.80457-.35983.96026-.24059 1.88241-.57361 2.76435-1.00118.88053-.42615 1.69333-.91792 2.44333-1.47742.33655-.25118.92639-1.04775 1.40969-.88053.62724.22013.27305 1.627.27305 2.09549 0 .84807.69285 1.5261 1.54234 1.50776l12.55953-.28151c-.10724-3.91864-.22719-7.58892-.36124-11.01367-.13617-3.42546-.27023-6.78953-.40217-10.09433zm58.2038-13.45064c-1.22483-1.88524-2.90334-3.359843-5.0327-4.423815-2.13076-1.062562-4.90006-1.594548-8.30787-1.594548-2.55763 0-4.75401.558092-6.59268 1.674275-.48895.297743-.96872.613125-1.42874.955317-.41346.306915-.81421.633586-1.18815.987071-.27869.26317-.5207.66604-.92498.7373-.10301.0169-.21096.0437-.31961.0332-.36901-.0346-.47131-.28293-.66181-.55809-.53199-.771876-1.22202-1.42169-1.98825-1.955792-1.33279-.928507-3.00988-1.394877-5.0327-1.394877-1.01317 0-1.97202.159455-2.87724.478365-.90664.318203-1.71731.730246-2.43627 1.235421-.60748.426153-1.13171.941206-1.71167 1.399813-.28504.22366-.39793.5334-.79798.50871-.41345-.0268-.35419-.55316-.38311-.835378-.0346-.334432-.0706-.668158-.10443-1.00259-.0261-.244826-.0522-.489653-.0769-.733774-.0868-.840312-.85019-1.512703-1.69615-1.492242l-11.48568.281515c.16016 3.242009.2794 6.349969.35983 9.327399.0804 2.97672.13265 5.99084.16016 9.04588.0261 3.05645.0261 6.28506 0 9.68652-.0275 3.40076-.0374 9.70134-.0374 9.70134-.001.84596.68932 1.52682 1.53528 1.51412l11.1456-.1905c.84455-.0148 1.55151-.71967 1.56845-1.5628l.44943-21.89822c0-.74435.18627-1.50071.55809-2.27258.37183-.77117 1.24954-1.1571 2.63595-1.1571.63923 0 1.14511.23847 1.51834.71895.37042.47837.67804 1.11619.91934 1.91275.23989.79657.39793 1.71308.47836 2.74954.0797 1.03504.11995 2.11242.11995 3.22861v6.77612c0 1.75188-.0141 3.28011-.0402 4.58115-.0275 1.30597-.0677 2.52587-.11994 3.66816-.0536 1.14299-.1009 2.41017-.1009 2.41017-.0317.84384.63218 1.5508 1.47884 1.57197l13.08305.28292c-.10725-.79657-.19967-1.7794-.27869-2.94991-.0797-1.16769-.13476-2.36431-.16158-3.58703-.0261-1.22131-.0522-2.39111-.0797-3.5073-.0275-1.11618-.0402-2.01858-.0402-2.71143 0-5.10044.21378-8.89842.64064-11.39819.42616-2.49695 1.54375-3.74719 3.35561-3.74719 1.11759 0 1.9833.46566 2.59643 1.39629.6103.92991.91933 2.48425.91933 4.66299 0 2.07291-.25329 4.71732-.75917 7.93181-.50729 3.21591-2.0962 10.179-2.0962 10.179-.18767.82409.34572 1.58326 1.18533 1.69051l13.17407 1.64393c.5856-3.29493 1.07879-6.48261 1.47883-9.56728.39935-3.08044.59972-6.08539.59972-9.0092 0-3.13406-.22719-6.01694-.67944-8.64865-.45579-2.62748-1.2954-4.88665-2.52024-6.77259zm62.83576 6.77612c-.45438-2.63101-1.29116-4.89018-2.51389-6.77612-1.22554-1.88524-2.90405-3.359843-5.03552-4.423815-2.13147-1.062562-4.89794-1.594548-8.30717-1.594548-2.55621 0-4.7526.558092-6.59197 1.674275-.4699.285748-.9278.58843-1.373.91369-.4184.306209-.81986.632174-1.19733.984948-.31185.2921-.71543.99201-1.21002.84878-.35277-.10301-.66181-.49459-.86712-.77963-.50659-.694267-1.15993-1.279169-1.86266-1.768117-1.33279-.927801-3.01059-1.395582-5.0327-1.395582-1.01458 0-1.97202.160161-2.87724.47907-.90452.31891-1.71802.730952-2.43486 1.235422-.71966.505175-1.30668 1.036455-1.75753 1.593837-.0734.0896-.14464.1778-.22366.26035-.1143.11854-.29351.2794-.47343.23566-.2032-.0473-.32384-.35137-.36829-.53058-.0819-.31397-.0896-.646989-.12136-.969426-.0437-.417687-.0854-.836785-.13053-1.253766-.0882-.841723-.8516-1.513409-1.69544-1.492242l-11.48427.281515c.15875 3.242009.2794 6.350669.35842 9.327399.0811 2.97672.13335 5.99154.16157 9.04658.0261 3.05646.0261 6.28506 0 9.68653-.0275 3.40076-.0388 9.70134-.0388 9.70134-.001.84595.68932 1.52681 1.53669 1.51411l11.14702-.18979c.84454-.0148 1.55009-.71684 1.56844-1.5628l.44802-21.89822c0-.74435.18768-1.5007.55951-2.27258.37182-.77046 1.25094-1.1564 2.63594-1.1564.63923 0 1.14511.23848 1.51694.71825.37041.47837.67944 1.11619.91933 1.91276.23989.79656.39723 1.71308.47978 2.75024.0797 1.03645.11994 2.11242.11994 3.22719v6.77612c0 1.75189-.0141 3.28011-.0402 4.58256-.0275 1.30457-.0677 2.52447-.11994 3.66676-.0536 1.1437-.10301 2.41016-.10301 2.41016-.0318.84384.63217 1.5508 1.48166 1.57197h.0233c.42333.008.84455.0169 1.26929.0275.91228.0183 1.82456.0402 2.73825.0593 1.11618.0226 2.23236.0473 3.34996.0734 1.05409.0219 2.10819.0445 3.16087.0692.64628.0148 1.40405.15451 2.03975.008.53622-.12418.41769-.54821.40216-.97719-.0176-.64769-.13617-1.27987-.18344-1.92545-.0769-1.16769-.13264-2.36501-.16157-3.58703-.0261-1.22131-.0522-2.39252-.0783-3.50729-.0275-1.11619-.0416-2.01859-.0416-2.71144 0-5.10043.21237-8.89983.63923-11.39819.42685-2.49836 1.54445-3.7486 3.3556-3.7486 1.11901 0 1.98472.46708 2.59784 1.39629.61031.92921.92075 2.48425.92075 4.66229 0 2.07291-.25188 4.71802-.76059 7.93181-.50588 3.21873-2.09478 10.1797-2.09478 10.1797-.18909.82409.3429 1.58467 1.18533 1.69051.35983.0444.71825.0896 1.07314.13405 1.80269.22578 3.60114.44873 5.40171.6738 1.14229.14323 2.2874.26317 3.4311.39723.69426.0797 1.38076.23424 2.07291.31256.42827.0466.97154.26458 1.31726-.11712.32808-.36689.30903-1.03646.38453-1.48801.11712-.68227.18626-1.36807.24271-2.05739.0854-1.0548.22084-2.08773.369-3.13477.127-.88053.24271-1.76106.35701-2.643.39793-3.08114.59972-6.08468.59972-9.00848-.004-3.13477-.23142-6.01766-.68438-8.64795z"/>
</svg>
