<?xml version="1.0" encoding="UTF-8" standalone="no"?>
<svg
   xmlns:dc="http://purl.org/dc/elements/1.1/"
   xmlns:cc="http://creativecommons.org/ns#"
   xmlns:rdf="http://www.w3.org/1999/02/22-rdf-syntax-ns#"
   xmlns:svg="http://www.w3.org/2000/svg"
   xmlns="http://www.w3.org/2000/svg"
   version="1.1"
   id="svg3397"
   viewBox="0 0 30 30"
   height="30"
   width="30">
  <defs
     id="defs3399" />
  <metadata
     id="metadata3402">
    <rdf:RDF>
      <cc:Work
         rdf:about="">
        <dc:format>image/svg+xml</dc:format>
        <dc:type
           rdf:resource="http://purl.org/dc/dcmitype/StillImage" />
        <dc:title></dc:title>
      </cc:Work>
    </rdf:RDF>
  </metadata>
  <g
     transform="translate(0,-1022.3622)"
     id="layer1">
    <path
       id="path86121"
       d="m 3.4532717,1024.6637 7.0941713,0 0,3.704 3.515699,0 0,-3.5785 10.735417,0 0,3.5157 3.264576,0 0,10.861 -3.264576,0 0,3.7668 -3.452911,0 0,3.5156 -3.515692,0 0,3.453 -7.156958,0 0,-3.453 -3.3901311,0 0,-3.6602 -3.7040406,0.022 0,-3.4561 -3.51569177,0 0,-11.1121 3.45291107,0 z"
       style="fill:#000000;fill-opacity:1;fill-rule:evenodd;stroke:none;stroke-width:1px;stroke-linecap:butt;stroke-linejoin:miter;stroke-opacity:1" />
    <path
       id="path86123"
       d="m 3.5238966,1028.25 7.0274654,0 0,3.6648 3.590249,0 0,-3.5629 10.656948,0 0,10.7827 -3.578479,0 0,3.7353 -3.735418,0 0,3.4844 -6.874445,0 0,-3.5157 -3.3273501,0 0,-3.6413 -3.7040406,0 z"
       style="fill:#ff0000;fill-rule:evenodd;stroke:none;stroke-width:1px;stroke-linecap:butt;stroke-linejoin:miter;stroke-opacity:1" />
    <path
       id="path86125"
       d="m 10.60238,1042.8462 6.869719,0 0,3.507 -6.864177,0 z"
       style="fill:#800000;fill-rule:evenodd;stroke:none;stroke-width:1px;stroke-linecap:butt;stroke-linejoin:miter;stroke-opacity:1" />
    <path
       id="path86131"
       d="m 21.329946,1042.9013 -3.853134,0 0,-3.7747 3.851867,0.01 z"
       style="fill:#800000;fill-rule:evenodd;stroke:none;stroke-width:1px;stroke-linecap:butt;stroke-linejoin:miter;stroke-opacity:1" />
    <path
       id="path86131-2"
       d="m 24.801629,1039.1351 -3.468717,0 0.0055,-10.7954 3.471627,0 z"
       style="fill:#800000;fill-rule:evenodd;stroke:none;stroke-width:1px;stroke-linecap:butt;stroke-linejoin:miter;stroke-opacity:1" />
    <path
       id="path86152"
       d="m 3.5116556,1028.2776 3.7684852,0 0,7.4513 -3.7262594,0 z"
       style="fill:#f9f9f9;fill-rule:evenodd;stroke:none;stroke-width:1px;stroke-linecap:butt;stroke-linejoin:miter;stroke-opacity:1" />
  </g>
</svg>
