<svg xmlns="http://www.w3.org/2000/svg" width="400" height="46.610134">
  <path fill="#1f00cc" d="M208.87638 5.8141658l3.07135-4.91966104h-46.75477c-3.58795.05364-6.9303 1.06001004-9.97553 3.01630104l-3.58794 2.636616c-1.57661-1.902655-3.1264-3.235077-4.64937-4.131358-1.90195-1.06001-4.02197-1.52155904-6.44122-1.52155904H61.355016L58.772035 8.7768308 57.496071.89521076H40.17881l-.624574 1.46721804-1.630947-.570938c-9.134295-3.126394-17.913606-2.17436104-26.20455 2.962665-4.2139277 2.690958-7.3939579 6.0622412-9.3509538 10.1928932C.35644787 19.079112-.32387816 23.672724.1390823 28.892321c.32534263 3.126395 1.4128762 6.034718 3.3162365 8.671334 1.9019488 2.636616 4.3211995 4.756636 7.3382052 6.278901 4.376247 2.283044 9.132883 2.962665 14.107591 2.174362H40.31431l3.859651-8.562652 1.414287 8.562652 92.638672-.107977c2.01275 0 4.02338-.489779 6.06224-1.386059 2.01134-.896986 3.75027-2.175067 5.32758-3.751673 2.58298 2.746004 5.65433 4.594318 9.24227 5.328279 4.86602 1.168693 9.56902.326049 13.99891-2.473592l.57235-.435437-.43544 2.800346h18.86423l.46296-3.261895c1.11364-.162318 2.01133-.733256 2.79964-1.685994h51.29404c7.88303 0 13.67215-2.011338 17.20646-6.061536l3.80601 6.061536h54.8834V33.32432l9.86614 7.719301H400V5.8685068h-73.47662v7.6106182l-9.73134-7.6106182h-39.0884l-4.81169 9.1335892-5.32757-9.1886362h-58.688v.000706z"/>
  <path fill="#fff" d="M220.86325 11.686565h-5.87029l-13.83588 23.295521h16.47321v-5.16455h-6.71434l6.71434-12.041912 9.73134 17.233985h7.50264v-.05363h11.71516c10.13926 0 15.22265-3.914698 15.22265-11.660817 0-1.332422-.16232-2.58298-.5166-3.751673l9.35095 15.413195h4.48493l13.4555-23.241179h-7.12225l-8.40034 15.219825-8.86188-15.221236h-7.66496l2.12002 3.47926c-2.47288-2.338091-6.03472-3.47926-10.68267-3.47926h-15.41319V31.03987l-11.68834-19.3533zm18.32151 5.272527h8.83577c4.59291 0 6.9303 2.012043 6.9303 6.034718 0 2.419956-.73326 4.186404-2.12002 5.110208-1.33172.951327-3.85965 1.413582-7.39396 1.413582h-6.22456V16.959092h-.0275zm59.31328-5.272527h-5.89851L278.81728 34.98138h6.95923v-.05434h9.51398v-5.192074h-6.65929l6.60565-11.986864 9.73135 17.233279h7.5838v-.05434h3.85965V20.873792l17.58756 14.053249h4.56679V11.686567h-6.08976v13.889519l-17.75059-13.889519h-4.53927v19.325776m31.85888-18.022288c-.95133.84335-1.4404 2.365615-1.4404 4.540682v11.52461c0 2.229409.48907 3.751674 1.41288 4.594318.89698.84335 2.52793 1.278081 4.92107 1.278081h13.67215c2.36562 0 4.07702-.434731 4.97471-1.278081.89699-.841939 1.41429-2.364909 1.41429-4.594318v-3.234371l-6.71434-.108683v3.588649h-12.99394V17.0953h12.99394v3.180736h6.71434v-2.745299c0-2.28375-.5166-3.806015-1.41429-4.540682-.89699-.896986-2.47289-1.331717-4.97471-1.331717h-13.67215c-2.36562.02823-3.99656.436143-4.89355 1.331717zm33.89703 7.312799v-3.34376h18.12956v-5.272527h-24.84389v23.240474h25.14312v-5.381916h-18.42879v-4.131357h10.62904v-5.110914M35.830087 7.3089068c-7.28457-2.63591-14.325662-1.793266-21.066818 2.365615C8.1039781 13.751538 5.1956549 19.976804 5.983958 28.104018c.2166598 2.365615 1.1136457 4.539976 2.6366162 6.442631 1.5215588 1.902654 3.4792608 3.261189 5.8166458 4.321199 2.364204 1.060716 4.866025 1.467924 7.502642 1.332423 2.908323-.163024 5.544939-1.005668 8.127214-2.419956l.271707-.162319-1.004963 2.228703h7.067204l4.540682-9.866844h7.827984l1.73963 9.866844h11.581069l5.925329-18.483837 3.806015 18.483837h4.592906l8.861882-20.495174.896986 20.495174h6.769385L91.556128 6.7379698h-8.238014L75.598813 24.841417 72.282576 6.7379698h-6.769385L56.788927 33.512751 52.303292 6.7379698h-8.34458L31.182133 35.633477l1.848313-12.096959H20.416891l-.951327 6.225265h5.273938l-.516596 3.315531-5.54494.381096c-2.228702-.570938-3.806014-1.739631-4.866024-3.58865-.896986-1.73963-1.331717-3.533602-1.113646-5.544233.271707-2.800346 1.630947-5.32828 4.212517-7.611324 2.338091-2.066385 5.328985-3.235078 8.916928-3.696626 3.425625-.516597 6.442631-.163025 8.970565.951327l1.031781-6.6599972zM47.764021 23.510406h-4.185698l2.908323-6.387584 1.277375 6.387584zM117.65129 6.7118578H98.812468L93.513124 39.847405h18.972916l1.22303-7.040386h-11.96004l.95062-5.926035h10.35733l1.11364-7.121546h-10.4646l.89769-5.925329h11.93253m84.51145-7.1222512h-7.91055l-6.76798 10.8449892-4.21393-10.8449892h-7.82798l8.09969 17.4774622-2.55404 15.658085h6.87665l2.06639-13.80836"/>
  <path fill="#fff" d="M167.82957 7.0379058c-3.85965-.896986-7.39396 0-10.81887 2.636616-3.42422 2.5279342-5.65433 6.1702182-6.82303 10.7645362-1.00496 4.539271-.51518 8.834358 1.33313 12.612144 1.957 3.914698 4.75664 6.279607 8.61629 7.122251 3.80601.896986 7.33962 0 10.76524-2.582274 3.42563-2.636617 5.70797-6.278902 6.76798-10.87322 1.06001-4.53927.57234-8.77931-1.33172-12.612143-1.90336-3.860356-4.75664-6.2252662-8.50902-7.0679102zm-.57023 6.6049492c1.84831.733962 3.01701 2.419957 3.64299 4.920367.62458 2.527933.48907 5.164549-.43544 7.96419-.89698 2.746004-2.3642 4.811683-4.26756 6.116582-1.95699 1.413582-3.80601 1.685289-5.54494.896986-1.84831-.733961-3.07135-2.419956-3.69662-4.920366-.67962-2.582275-.43544-5.219597.46154-7.96419.89699-2.690958 2.36562-4.811684 4.26757-6.225266 1.87513-1.331717 3.7792-1.630947 5.57246-.788303zm-22.6166-5.4362562c-1.33172-.842645-2.63662-1.277376-3.91329-1.277376h-12.66719l-5.2196 32.9181822h15.22265c1.63095 0 3.31624-.51589 5.08339-1.5759 1.73963-1.060716 3.07135-2.365615 4.13136-3.969039 1.11505-1.847608 1.52156-3.642285 1.33313-5.544234-.21808-2.066385-1.33313-4.023381-3.26261-5.871694 3.85966-3.968333 4.75664-7.720006 2.74601-11.30795-.87087-1.333128-1.95841-2.4757092-3.45385-3.3719892zM132.87253 20.031145l1.06001-6.115877h4.43129c1.11506 0 1.957.325343 2.52794.951327.48907.570938.67962 1.278082.57094 2.120021-.10869.84335-.51519 1.522264-1.1687 2.120725-.73325.625279-1.63095.952033-2.69096.952033h-4.73052l7.66496 7.827984c.62598.625985.95274 1.441106.89699 2.338091-.0536.896986-.48908 1.631654-1.27809 2.283751-.78689.624573-1.90194 1.005668-3.42421 1.005668h-5.98108l1.06001-6.659996h5.70796c1.27808 0 2.28375.380389 3.01701 1.06001l-7.66355-7.883737zM195.0405 36.88474c0-.952033-.38039-1.685994-.95274-2.311273-.62457-.624573-1.41288-1.004963-2.33668-1.004963-.89699 0-1.686.38039-2.31128 1.004963-.62457.625984-.95132 1.386764-.95132 2.311273 0 .896986.32675 1.630948.95132 2.282339.62599.625985 1.41429 1.006374 2.31128 1.006374.89628 0 1.68458-.380389 2.33668-1.006374.57235-.652097.95274-1.385353.95274-2.282339zm-1.33313-1.957701c.48907.489072.7883 1.168693.7883 1.956996 0 .733961-.32534 1.386764-.7883 1.956996-.46155.461549-1.16869.733961-1.95559.733961-.7883 0-1.46792-.272412-1.95699-.733961-.57235-.570938-.84335-1.222329-.84335-1.956996 0-.788303.27312-1.467924.84335-1.956996.46155-.570938 1.16869-.842645 1.95699-.842645.81442 0 1.49404.244889 1.95559.842645z"/>
  <path fill="#fff" d="M192.92048 35.198746l-.89699-.217366h-1.57661v3.696626h.5166v-1.685289h.73326l1.00637 1.685289h.57094l-1.11506-1.685289c.73467 0 1.16869-.326048 1.16869-1.06001.0268-.326048-.0819-.625279-.4072-.733961zm-.10869.734667c0 .434731-.43543.624573-1.22374.624573h-.62457v-1.168693h1.00496c.59776 0 .84335.217366.84335.54412z"/>
</svg>
