<?xml version="1.0" encoding="UTF-8" standalone="no"?>
<!-- Generator: Adobe Illustrator 13.0.0, SVG Export Plug-In . SVG Version: 6.00 Build 14948)  -->

<svg
   xmlns:ns="&amp;ns_sfw;"
   xmlns:dc="http://purl.org/dc/elements/1.1/"
   xmlns:cc="http://creativecommons.org/ns#"
   xmlns:rdf="http://www.w3.org/1999/02/22-rdf-syntax-ns#"
   xmlns:svg="http://www.w3.org/2000/svg"
   xmlns="http://www.w3.org/2000/svg"
   xmlns:sodipodi="http://sodipodi.sourceforge.net/DTD/sodipodi-0.dtd"
   xmlns:inkscape="http://www.inkscape.org/namespaces/inkscape"
   version="1.2"
   id="Layer_3"
   x="0px"
   y="0px"
   width="285.36801"
   height="315.48901"
   viewBox="0 0 285.368 315.489"
   xml:space="preserve"
   inkscape:version="0.91 r13725"
   sodipodi:docname="controller.svg"><defs
     id="defs94" /><sodipodi:namedview
     pagecolor="#ffffff"
     bordercolor="#666666"
     borderopacity="1"
     objecttolerance="10"
     gridtolerance="10"
     guidetolerance="10"
     inkscape:pageopacity="0"
     inkscape:pageshadow="2"
     inkscape:window-width="690"
     inkscape:window-height="480"
     id="namedview92"
     showgrid="false"
     fit-margin-top="0"
     fit-margin-left="0"
     fit-margin-right="0"
     fit-margin-bottom="0"
     inkscape:zoom="0.48145317"
     inkscape:cx="142.02151"
     inkscape:cy="163.085"
     inkscape:window-x="0"
     inkscape:window-y="0"
     inkscape:window-maximized="0"
     inkscape:current-layer="Layer_3" /><metadata
     id="metadata55"><rdf:RDF><cc:Work
         rdf:about=""><dc:format>image/svg+xml</dc:format><dc:type
           rdf:resource="http://purl.org/dc/dcmitype/StillImage" /><dc:title></dc:title></cc:Work></rdf:RDF><ns:sfw><ns:slices /><ns:sliceSourceBounds
         x="818.479"
         y="376.415"
         width="285.368"
         height="315.489"
         bottomLeftOrigin="true" /></ns:sfw></metadata><path
     d="M 25.794,315.489 C 11.549,315.487 0.002,303.94 0,289.695 l 0,0 L 0,25.794 C 0.002,11.549 11.549,0.002 25.794,0 l 0,0 233.782,0 c 14.245,0.002 25.792,11.549 25.792,25.794 l 0,0 0,263.901 c 0,14.245 -11.547,25.792 -25.792,25.794 l 0,0 -233.782,0 0,0 z M 2.001,25.794 l 0,263.901 c 0.023,13.141 10.653,23.769 23.793,23.792 l 0,0 233.782,0 c 13.141,-0.023 23.769,-10.651 23.792,-23.792 l 0,0 0,-263.901 C 283.345,12.654 272.717,2.025 259.576,2.002 l 0,0 -233.782,0 C 12.654,2.025 2.024,12.653 2.001,25.794 l 0,0 z"
     id="path4"
     inkscape:connector-curvature="0"
     style="fill:#f4f4f4" /><path
     d="m 29.164,171.576 c -0.002,-18.663 4.614,-36.214 12.452,-51.807 l 0,0 c 1.128,-2.507 1.585,-4.7 1.585,-6.701 l 0,0 c 0.006,-4.4 -2.233,-8.056 -5.031,-11.888 l 0,0 C 35.352,97.29 29.974,92.447 21.383,82.151 l 0,0 C 15.636,75.263 11.898,66.511 11.898,56.79 l 0,0 C 11.9,35.445 29.203,18.142 50.548,18.14 l 0,0 c 14.664,0.002 27.068,8.356 33.937,20.142 l 0,0 c 5.403,9.333 10.979,18.705 17.652,21.122 l 0,0 c 3.67,1.366 6.47,1.841 9.08,1.841 l 0,0 c 2.415,0 4.694,-0.412 7.348,-0.967 l 0,0 c 7.914,-1.655 16.112,-2.651 24.546,-2.651 l 0,0 c 62.933,0.002 113.949,51.019 113.949,113.949 l 0,0 c 0,62.933 -51.017,113.949 -113.949,113.949 l 0,0 C 80.18,285.525 29.164,234.508 29.164,171.576 l 0,0 z M 43.421,120.63 c -7.722,15.35 -12.257,32.598 -12.257,50.945 l 0,0 c 0,30.918 12.529,58.898 32.788,79.16 l 0,0 c 20.263,20.261 48.244,32.788 79.16,32.788 l 0,0 c 30.918,0 58.898,-12.527 79.16,-32.788 l 0,0 c 20.261,-20.262 32.788,-48.244 32.788,-79.16 l 0,0 c 0,-30.916 -12.527,-58.896 -32.788,-79.16 l 0,0 C 202.01,72.156 174.028,59.627 143.112,59.627 l 0,0 c -8.277,0 -16.335,0.976 -24.136,2.607 l 0,0 c -2.677,0.56 -5.11,1.011 -7.757,1.011 l 0,0 c -2.862,0 -5.942,-0.537 -9.778,-1.968 l 0,0 C 93.67,58.308 88.225,48.581 82.759,39.288 l 0,0 C 76.193,28.042 64.428,20.138 50.55,20.141 l 0,0 c -10.125,0 -19.279,4.099 -25.915,10.734 l 0,0 C 18,37.51 13.901,46.665 13.901,56.789 l 0,0 c 0,9.201 3.529,17.495 9.019,24.081 l 0,0 c 8.535,10.235 13.81,14.944 16.868,19.133 l 0,0 c 2.825,3.879 5.409,7.941 5.413,13.064 l 0,0 c 0.002,2.311 -0.535,4.803 -1.761,7.523 l 0,0 -0.911,-0.41 0.892,0.45 0,0 z"
     id="path6"
     inkscape:connector-curvature="0"
     style="fill:#f4f4f4" /><path
     d="m 48.631,171.545 c 0.002,-52.179 42.301,-94.479 94.482,-94.479 l 0,0 c 52.181,0 94.479,42.301 94.481,94.479 l 0,0 c -0.002,52.181 -42.301,94.481 -94.481,94.483 l 0,0 C 90.931,266.026 48.633,223.725 48.631,171.545 l 0,0 z M 77.719,106.151 C 60.98,122.89 50.632,146.003 50.632,171.544 l 0,0 c 0,25.541 10.349,48.656 27.087,65.396 l 0,0 c 16.737,16.736 39.852,27.088 65.394,27.088 l 0,0 c 25.541,0 48.656,-10.352 65.393,-27.088 l 0,0 c 16.737,-16.739 27.088,-39.854 27.088,-65.396 l 0,0 c 0,-25.541 -10.351,-48.654 -27.088,-65.393 l 0,0 C 191.77,89.414 168.654,79.063 143.113,79.063 l 0,0 c -25.542,10e-4 -48.657,10.352 -65.394,27.088 l 0,0 z"
     id="path8"
     inkscape:connector-curvature="0"
     style="fill:#f4f4f4" /><path
     d="m 96.198,171.545 c 0,-25.909 21.004,-46.912 46.914,-46.914 l 0,0 c 25.911,0.002 46.915,21.005 46.915,46.914 l 0,0 c 0,25.911 -21.004,46.914 -46.915,46.916 l 0,0 C 117.201,218.459 96.198,197.456 96.198,171.545 l 0,0 z m 15.155,-31.759 c -8.13,8.132 -13.153,19.354 -13.155,31.759 l 0,0 c 0.002,12.407 5.025,23.629 13.155,31.761 l 0,0 c 8.13,8.128 19.354,13.153 31.759,13.153 l 0,0 c 12.405,0 23.627,-5.025 31.76,-13.153 l 0,0 c 8.13,-8.132 13.155,-19.355 13.155,-31.761 l 0,0 c 0,-12.405 -5.025,-23.627 -13.155,-31.759 l 0,0 c -8.133,-8.128 -19.354,-13.154 -31.76,-13.154 l 0,0 c -12.405,0 -23.629,5.026 -31.759,13.154 l 0,0 z"
     id="path10"
     inkscape:connector-curvature="0"
     style="fill:#f4f4f4" /><path
     d="m 61.916,171.545 c 0,-44.844 36.353,-81.195 81.196,-81.197 l 0,0 c 44.845,0.002 81.195,36.353 81.197,81.197 l 0,0 c -0.002,44.844 -36.353,81.196 -81.197,81.196 l 0,0 C 98.268,252.742 61.916,216.389 61.916,171.545 l 0,0 z m 25.197,-56 c -14.334,14.336 -23.197,34.128 -23.197,56 l 0,0 c 0,21.873 8.863,41.664 23.197,55.999 l 0,0 c 14.333,14.334 34.128,23.197 55.999,23.197 l 0,0 c 21.873,0 41.665,-8.863 56.001,-23.197 l 0,0 c 14.332,-14.335 23.194,-34.128 23.194,-55.999 l 0,0 c 0,-21.873 -8.862,-41.665 -23.194,-56 l 0,0 C 184.777,101.211 164.985,92.348 143.112,92.348 l 0,0 c -21.873,0 -41.666,8.863 -55.999,23.197 l 0,0 z"
     id="path12"
     inkscape:connector-curvature="0"
     style="fill:#f4f4f4" /><path
     d="m 74.281,171.545 c 0.002,-38.014 30.817,-68.829 68.831,-68.832 l 0,0 c 38.013,0.002 68.83,30.817 68.83,68.832 l 0,0 c 0,38.013 -30.817,68.83 -68.83,68.83 l 0,0 c -38.014,0.001 -68.829,-30.817 -68.831,-68.83 l 0,0 z m 21.575,-47.256 c -12.095,12.098 -19.574,28.799 -19.574,47.257 l 0,0 c 0,18.458 7.479,35.158 19.574,47.255 l 0,0 c 12.097,12.096 28.797,19.574 47.256,19.576 l 0,0 c 18.458,-0.002 35.158,-7.48 47.256,-19.576 l 0,0 c 12.095,-12.097 19.573,-28.799 19.575,-47.255 l 0,0 c -0.002,-18.458 -7.48,-35.159 -19.575,-47.257 l 0,0 c -12.098,-12.095 -28.8,-19.574 -47.256,-19.574 l 0,0 c -18.458,0 -35.159,7.478 -47.256,19.574 l 0,0 z"
     id="path14"
     inkscape:connector-curvature="0"
     style="fill:#f4f4f4" /><path
     d="m 84.321,171.545 c 0.002,-32.469 26.322,-58.791 58.791,-58.791 l 0,0 c 32.469,0 58.789,26.322 58.789,58.791 l 0,0 0.002,0 c -0.002,32.469 -26.322,58.79 -58.791,58.79 l 0,0 c -32.469,0.001 -58.789,-26.321 -58.791,-58.79 l 0,0 z m 18.635,-40.156 C 92.677,141.668 86.322,155.86 86.322,171.545 l 0,0 c 0,15.686 6.354,29.877 16.634,40.156 l 0,0 c 10.279,10.278 24.471,16.634 40.156,16.634 l 0,0 c 15.686,0 29.877,-6.355 40.156,-16.634 l 0,0 c 10.279,-10.279 16.634,-24.471 16.634,-40.156 l 0,0 c 0,-15.686 -6.354,-29.877 -16.634,-40.156 l 0,0 C 172.989,121.11 158.797,114.755 143.112,114.755 l 0,0 c -15.685,0 -29.877,6.355 -40.156,16.634 l 0,0 z"
     id="path16"
     inkscape:connector-curvature="0"
     style="fill:#f4f4f4" /><path
     d="M 22.552,55.566 C 22.554,40.069 35.114,27.509 50.611,27.507 l 0,0 C 66.109,27.509 78.67,40.069 78.67,55.566 l 0,0 c 0,15.497 -12.562,28.059 -28.059,28.059 l 0,0 c -15.498,0 -28.058,-12.561 -28.059,-28.059 l 0,0 z m 2,0 c 0.025,14.392 11.667,26.033 26.058,26.058 l 0,0 C 65.002,81.6 76.643,69.958 76.67,55.566 l 0,0 C 76.643,41.174 65.002,29.533 50.61,29.508 l 0,0 C 36.219,29.533 24.577,41.175 24.552,55.566 l 0,0 z"
     id="path18"
     inkscape:connector-curvature="0"
     style="fill:#f4f4f4" /><path
     d="m 129.391,205.671 0,-1.001 0.708,-0.708 -0.708,0.708 0,1.001 -0.414,0 -19.99,-19.992 0,-28.271 19.99,-19.988 28.269,0 19.992,19.988 0,28.272 -19.99,19.99 -27.857,0 0,0.001 z m 27.027,-2.001 18.819,-18.82 0,-26.61 -18.819,-18.818 -26.613,0 -18.817,18.816 0,26.612 18.819,18.82 26.611,0 0,0 z"
     id="path20"
     inkscape:connector-curvature="0"
     style="fill:#f4f4f4" /><path
     d="m 133.727,171.545 c 0,-5.185 4.2,-9.387 9.384,-9.387 l 0,0 c 5.186,0 9.389,4.202 9.389,9.387 l 0,0 c 0,5.186 -4.203,9.386 -9.389,9.386 l 0,0 c -5.184,-0.001 -9.384,-4.201 -9.384,-9.386 l 0,0 z m 1.999,0 c 0.008,4.08 3.307,7.379 7.385,7.387 l 0,0 c 4.08,-0.008 7.381,-3.307 7.39,-7.387 l 0,0 c -0.009,-4.079 -3.31,-7.38 -7.39,-7.388 l 0,0 c -4.078,0.008 -7.377,3.308 -7.385,7.388 l 0,0 z"
     id="path22"
     inkscape:connector-curvature="0"
     style="fill:#f4f4f4" /><rect
     x="87.830391"
     y="97.288223"
     transform="matrix(0.96592886,-0.25880773,0.25880773,0.96592886,0,0)"
     width="11.998641"
     height="6.1218171"
     id="rect24"
     style="fill:#f4f4f4" /><rect
     x="51.206947"
     y="110.507"
     transform="matrix(0.90627509,-0.42268838,0.42268838,0.90627509,0,0)"
     width="12.00033"
     height="6.1221685"
     id="rect26"
     style="fill:#f4f4f4" /><rect
     x="12.826785"
     y="117.15221"
     transform="matrix(0.81912385,-0.5736167,0.5736167,0.81912385,0,0)"
     width="11.998651"
     height="6.1218219"
     id="rect28"
     style="fill:#f4f4f4" /><rect
     x="-26.107758"
     y="117.04726"
     transform="matrix(0.70710678,-0.70710678,0.70710678,0.70710678,0,0)"
     width="11.998884"
     height="6.1219416"
     id="rect30"
     style="fill:#f4f4f4" /><rect
     x="-64.439911"
     y="110.18047"
     transform="matrix(0.5736167,-0.81912385,0.81912385,0.5736167,0,0)"
     width="11.998651"
     height="6.1218219"
     id="rect32"
     style="fill:#f4f4f4" /><rect
     x="-100.98863"
     y="96.740479"
     transform="matrix(0.42260624,-0.90631339,0.90631339,0.42260624,0,0)"
     width="11.998822"
     height="6.1219096"
     id="rect34"
     style="fill:#f4f4f4" /><rect
     x="-134.66516"
     y="77.178444"
     transform="matrix(0.25880773,-0.96592886,0.96592886,0.25880773,0,0)"
     width="11.998641"
     height="6.1218171"
     id="rect36"
     style="fill:#f4f4f4" /><polygon
     points="195.155,184.876 195.661,179.104 201.759,179.639 200.713,191.593 189.503,191.181 "
     id="polygon38"
     style="fill:#f4f4f4"
     transform="translate(-157.073,-22.726)" /><polygon
     points="195.081,202.818 189.503,197.303 200.713,196.952 201.759,208.906 195.661,209.44 "
     id="polygon40"
     style="fill:#f4f4f4"
     transform="translate(-157.073,-22.726)" /><rect
     x="-208.74504"
     y="-11.618373"
     transform="matrix(-0.25880773,-0.96592886,0.96592886,-0.25880773,0,0)"
     width="11.999641"
     height="6.1218171"
     id="rect42"
     style="fill:#f4f4f4" /><rect
     x="-221.96532"
     y="-48.23798"
     transform="matrix(-0.42260624,-0.90631339,0.90631339,-0.42260624,0,0)"
     width="11.998822"
     height="6.1219096"
     id="rect44"
     style="fill:#f4f4f4" /><rect
     x="-228.60515"
     y="-86.63636"
     transform="matrix(-0.5736167,-0.81912385,0.81912385,-0.5736167,0,0)"
     width="11.998651"
     height="6.1208215"
     id="rect46"
     style="fill:#f4f4f4" /><rect
     x="-228.50723"
     y="-125.55157"
     transform="matrix(-0.70710678,-0.70710678,0.70710678,-0.70710678,0,0)"
     width="11.998884"
     height="6.1219416"
     id="rect48"
     style="fill:#f4f4f4" /><rect
     x="-221.60503"
     y="-163.91292"
     transform="matrix(-0.81920373,-0.57350261,0.57350261,-0.81920373,0,0)"
     width="11.998945"
     height="6.1219726"
     id="rect50"
     style="fill:#f4f4f4" /><rect
     x="-208.19646"
     y="-200.45401"
     transform="matrix(-0.90631339,-0.42260624,0.42260624,-0.90631339,0,0)"
     width="11.998822"
     height="6.1199093"
     id="rect52"
     style="fill:#f4f4f4" /><rect
     x="-188.64476"
     y="-234.11862"
     transform="matrix(-0.96592886,-0.25880773,0.25880773,-0.96592886,0,0)"
     width="11.999641"
     height="6.1218171"
     id="rect54"
     style="fill:#f4f4f4" /><polygon
     points="291.31,299.348 285.019,298.798 285.553,292.699 297.506,293.745 297.37,303.272 "
     id="polygon56"
     style="fill:#f4f4f4"
     transform="translate(-157.073,-22.726)" /><polygon
     points="309.128,299.342 303.003,303.272 302.866,293.745 314.82,292.699 315.354,298.798 "
     id="polygon58"
     style="fill:#f4f4f4"
     transform="translate(-157.073,-22.726)" /><rect
     x="-99.846809"
     y="-308.20184"
     transform="matrix(-0.96592886,0.25880773,-0.25880773,-0.96592886,0,0)"
     width="11.999641"
     height="6.1208167"
     id="rect60"
     style="fill:#f4f4f4" /><rect
     x="-63.213924"
     y="-321.4111"
     transform="matrix(-0.90631339,0.42260624,-0.42260624,-0.90631339,0,0)"
     width="11.999823"
     height="6.1219096"
     id="rect62"
     style="fill:#f4f4f4" /><rect
     x="-24.816854"
     y="-328.04755"
     transform="matrix(-0.81915675,0.57356972,-0.57356972,-0.81915675,0,0)"
     width="12.000633"
     height="6.1213231"
     id="rect64"
     style="fill:#f4f4f4" /><rect
     x="14.101544"
     y="-327.94949"
     transform="matrix(-0.70710678,0.70710678,-0.70710678,-0.70710678,0,0)"
     width="11.999885"
     height="6.1219416"
     id="rect66"
     style="fill:#f4f4f4" /><rect
     x="52.455765"
     y="-321.05814"
     transform="matrix(-0.57356972,0.81915675,-0.81915675,-0.57356972,0,0)"
     width="12.000633"
     height="6.1223235"
     id="rect68"
     style="fill:#f4f4f4" /><rect
     x="89.003845"
     y="-307.66061"
     transform="matrix(-0.4225241,0.90635169,-0.90635169,-0.4225241,0,0)"
     width="11.999315"
     height="6.1216512"
     id="rect70"
     style="fill:#f4f4f4" /><rect
     x="122.65438"
     y="-288.09506"
     transform="matrix(-0.25880773,0.96592886,-0.96592886,-0.25880773,0,0)"
     width="11.998641"
     height="6.1218171"
     id="rect72"
     style="fill:#f4f4f4" /><polygon
     points="405.271,203.037 404.711,209.439 398.613,208.905 399.659,196.952 410.136,197.303 "
     id="polygon74"
     style="fill:#f4f4f4"
     transform="translate(-157.073,-22.726)" /><polygon
     points="405.197,184.657 410.38,191.304 399.659,191.592 398.612,179.639 404.712,179.104 "
     id="polygon76"
     style="fill:#f4f4f4"
     transform="translate(-157.073,-22.726)" /><rect
     x="196.7601"
     y="-199.2782"
     transform="matrix(0.25890103,0.96590385,-0.96590385,0.25890103,0,0)"
     width="11.998952"
     height="6.1229758"
     id="rect78"
     style="fill:#f4f4f4" /><rect
     x="209.94383"
     y="-162.64969"
     transform="matrix(0.42260624,0.90631339,-0.90631339,0.42260624,0,0)"
     width="11.998822"
     height="6.1219096"
     id="rect80"
     style="fill:#f4f4f4" /><rect
     x="216.62918"
     y="-124.28581"
     transform="matrix(0.57356972,0.81915675,-0.81915675,0.57356972,0,0)"
     width="12.000633"
     height="6.1233234"
     id="rect82"
     style="fill:#f4f4f4" /><rect
     x="216.49519"
     y="-85.346085"
     transform="matrix(0.70710678,0.70710678,-0.70710678,0.70710678,0,0)"
     width="11.998884"
     height="6.1229415"
     id="rect84"
     style="fill:#f4f4f4" /><rect
     x="209.62764"
     y="-46.991745"
     transform="matrix(0.81920373,0.57350261,-0.57350261,0.81920373,0,0)"
     width="12.000946"
     height="6.1229725"
     id="rect86"
     style="fill:#f4f4f4" /><rect
     x="196.20056"
     y="-10.466954"
     transform="matrix(0.90631339,0.42260624,-0.42260624,0.90631339,0,0)"
     width="11.998822"
     height="6.1219096"
     id="rect88"
     style="fill:#f4f4f4" /><rect
     x="176.62787"
     y="23.20661"
     transform="matrix(0.96592886,0.25880773,-0.25880773,0.96592886,0,0)"
     width="11.998641"
     height="6.122817"
     id="rect90"
     style="fill:#f4f4f4" /></svg>