<?xml version="1.0" encoding="UTF-8" standalone="no"?>
<svg
   xmlns:dc="http://purl.org/dc/elements/1.1/"
   xmlns:cc="http://creativecommons.org/ns#"
   xmlns:rdf="http://www.w3.org/1999/02/22-rdf-syntax-ns#"
   xmlns:svg="http://www.w3.org/2000/svg"
   xmlns="http://www.w3.org/2000/svg"
   viewBox="0 0 555.45001 125.9925"
   height="125.9925"
   width="555.45001"
   xml:space="preserve"
   version="1.1"
   id="svg2"><metadata
     id="metadata8"><rdf:RDF><cc:Work
         rdf:about=""><dc:format>image/svg+xml</dc:format><dc:type
           rdf:resource="http://purl.org/dc/dcmitype/StillImage" /><dc:title></dc:title></cc:Work></rdf:RDF></metadata><defs
     id="defs6"><clipPath
       id="clipPath24"
       clipPathUnits="userSpaceOnUse"><path
         id="path26"
         d="m 0,100.794 444.36,0 L 444.36,0 0,0 0,100.794 Z" /></clipPath></defs><g
     transform="matrix(1.25,0,0,-1.25,0,125.9925)"
     id="g10"><g
       transform="translate(269.9001,70.5375)"
       id="g12"><path
         id="path14"
         style="fill:#2779c7;fill-opacity:1;fill-rule:nonzero;stroke:none"
         d="m 0,0 -38.663,-31.26 0,31.26 -26.177,0 0,-70.534 26.177,0 0,33.443 39.39,-33.443 31.145,0 -42.461,36.3 L 31.145,0 0,0 Z" /></g><g
       transform="translate(175.9734,70.5375)"
       id="g16"><path
         id="path18"
         style="fill:#2779c7;fill-opacity:1;fill-rule:nonzero;stroke:none"
         d="M 0,0 0,-42.168 -47.39,0 l -26.054,0 0,-70.534 26.179,0 0,42.168 47.388,-42.168 26.054,0 L 26.177,0 0,0 Z" /></g><g
       id="g20"><g
         clip-path="url(#clipPath24)"
         id="g22"><g
           transform="translate(98.1666,50.9047)"
           id="g28"><path
             id="path30"
             style="fill:#2779c7;fill-opacity:1;fill-rule:nonzero;stroke:none"
             d="m 0,0 0,19.633 -76.352,0 c -13.292,0.233 -21.815,-10.092 -21.815,-22.542 0,-12.449 8.174,-22.789 21.815,-22.541 l 48.356,0 c 1.804,0 3.273,-1.302 3.273,-2.909 0,-1.608 -1.469,-2.909 -3.273,-2.909 l -69.443,0 0,-19.633 76.351,0 c 13.293,-0.233 21.815,10.093 21.815,22.542 0,12.449 -8.173,22.789 -21.815,22.542 l -48.356,0 c -1.803,0 -3.272,1.302 -3.272,2.908 0,1.608 1.469,2.909 3.272,2.909 L 0,0 Z" /></g><g
           transform="translate(390.806,69.3834)"
           id="g32"><path
             id="path34"
             style="fill:#231f20;fill-opacity:1;fill-rule:nonzero;stroke:none"
             d="m 0,0 c -0.385,-0.237 -22.615,-10.766 -22.615,-10.766 l 27.873,-56.869 7.015,3.057 -25.047,49.838 15.721,8.034 c 0,0 15.022,8.077 20.392,-6.834 3.725,-10.346 -8.01,-18.298 -8.01,-18.298 l -10.392,7.37 1.99,7.149 10.023,0 -0.074,7.591 L 1.53,-9.864 -4.054,-25.573 13.854,-40.387 C 30.75,-33.91 34.878,-19.611 29.571,-8.26 25.07,1.368 11.645,7.223 0,0" /></g><g
           transform="translate(402.8338,78.3715)"
           id="g36"><path
             id="path38"
             style="fill:#231f20;fill-opacity:1;fill-rule:nonzero;stroke:none"
             d="M 0,0 4.977,-1.02 12.04,18.143 2.935,19.474 0,0 Z" /></g><g
           transform="translate(415.0842,75.2241)"
           id="g40"><path
             id="path42"
             style="fill:#231f20;fill-opacity:1;fill-rule:nonzero;stroke:none"
             d="M 0,0 9.943,16.949 16.863,12.163 4.411,-2.732 0,0 Z" /></g><g
           transform="translate(423.7833,67.9962)"
           id="g44"><path
             id="path46"
             style="fill:#231f20;fill-opacity:1;fill-rule:nonzero;stroke:none"
             d="M 0,0 14.283,12.656 19.102,4.847 3.296,-4.953 0,0 Z" /></g><g
           transform="translate(392.2802,72.3318)"
           id="g48"><path
             id="path50"
             style="fill:#eb222c;fill-opacity:1;fill-rule:nonzero;stroke:none"
             d="m 0,0 c -0.385,-0.237 -22.615,-10.766 -22.615,-10.766 l 27.873,-56.869 7.015,3.057 -25.047,49.838 15.721,8.034 c 0,0 15.022,8.077 20.392,-6.834 3.725,-10.346 -8.011,-18.298 -8.011,-18.298 l -10.391,7.37 1.99,7.149 10.023,0 -0.074,7.591 L 1.53,-9.864 -4.054,-25.573 13.854,-40.387 C 30.75,-33.91 34.878,-19.611 29.571,-8.26 25.07,1.368 11.645,7.223 0,0" /></g><g
           transform="translate(404.308,81.3198)"
           id="g52"><path
             id="path54"
             style="fill:#eb222c;fill-opacity:1;fill-rule:nonzero;stroke:none"
             d="M 0,0 4.977,-1.02 12.04,18.143 2.935,19.474 0,0 Z" /></g><g
           transform="translate(416.5584,78.1725)"
           id="g56"><path
             id="path58"
             style="fill:#13ac4a;fill-opacity:1;fill-rule:nonzero;stroke:none"
             d="M 0,0 9.943,16.949 16.863,12.163 4.411,-2.732 0,0 Z" /></g><g
           transform="translate(425.2575,70.9446)"
           id="g60"><path
             id="path62"
             style="fill:#20a3e4;fill-opacity:1;fill-rule:nonzero;stroke:none"
             d="M 0,0 14.283,12.656 19.102,4.847 3.296,-4.953 0,0 Z" /></g></g></g></g></svg>