<?xml version="1.0" standalone="no"?>
<!DOCTYPE svg PUBLIC "-//W3C//DTD SVG 1.1//EN" "http://www.w3.org/Graphics/SVG/1.1/DTD/svg11.dtd" >
<svg xmlns="http://www.w3.org/2000/svg">
<metadata>
This is a custom SVG webfont generated by Font Squirrel.
Foundry     : Kroah
</metadata>
<defs>
<font id="AtariSTRegular" horiz-adv-x="2048" >
<font-face units-per-em="2048" ascent="1792" descent="-256" />
<missing-glyph horiz-adv-x="500" />
<glyph unicode=" " />
<glyph unicode="!" d="M768 0v256h512v-256h-512zM768 512v1280h512v-1280h-512z" />
<glyph unicode="&#x22;" d="M256 1024v768h512v-768h-512zM1280 1024v768h512v-768h-512z" />
<glyph unicode="#" d="M0 256v256h256v512h-256v256h256v256h512v-256h256v256h512v-256h256v-256h-256v-512h256v-256h-256v-256h-512v256h-256v-256h-512v256h-256zM768 512h256v512h-256v-512z" />
<glyph unicode="$" d="M256 256v256h1024v256h-768v256h-256v256h256v256h256v256h512v-256h512v-256h-1024v-256h768v-256h256v-256h-256v-256h-256v-256h-512v256h-512z" />
<glyph unicode="%" d="M256 0v512h256v256h256v256h-512v512h512v-512h256v256h256v256h512v-256h-256v-256h-256v-256h-256v-256h-256v-256h-256v-256h-256zM1280 0v512h512v-512h-512z" />
<glyph unicode="&#x26;" d="M0 256v512h256v256h256v256h-256v256h256v256h768v-256h256v-256h-256v-256h-256v-256h768v-256h-256v-256h256v-256h-512v256h-256v-256h-768v256h-256zM512 256h512v256h-256v256h-256v-512zM768 1280h256v256h-256v-256z" />
<glyph unicode="'" d="M768 1024v768h512v-768h-512z" />
<glyph unicode="(" d="M768 256v1280h256v256h768v-256h-256v-256h-256v-768h256v-256h256v-256h-768v256h-256z" />
<glyph unicode=")" d="M256 0v256h256v256h256v768h-256v256h-256v256h768v-256h256v-1280h-256v-256h-768z" />
<glyph unicode="*" d="M0 768v256h512v256h-256v256h512v-256h512v256h512v-256h-256v-256h512v-256h-512v-256h256v-256h-512v256h-512v-256h-512v256h256v256h-512z" />
<glyph unicode="+" d="M256 768v256h512v512h512v-512h512v-256h-512v-512h-512v512h-512z" />
<glyph unicode="," d="M256 0h256v512h512v-512h-256v-256h-512v256z" />
<glyph unicode="-" d="M256 768v256h1536v-256h-1536z" />
<glyph unicode="." d="M768 0v512h512v-512h-512z" />
<glyph unicode="/" d="M256 0v512h256v256h256v256h256v256h256v256h256v256h256v-512h-256v-256h-256v-256h-256v-256h-256v-256h-256v-256h-256z" />
<glyph unicode="0" d="M256 256v1280h256v256h1024v-256h256v-1280h-256v-256h-1024v256h-256zM768 256h512v768h-256v-256h-256v-512zM768 1024h256v256h256v256h-512v-512z" />
<glyph unicode="1" d="M256 0v256h512v1024h-256v256h256v256h512v-1536h512v-256h-1536z" />
<glyph unicode="2" d="M256 0v256h256v256h256v256h256v256h256v512h-512v-256h-512v256h256v256h1024v-256h256v-512h-256v-256h-256v-256h-256v-256h768v-256h-1536z" />
<glyph unicode="3" d="M256 256v256h512v-256h512v512h-256v256h-256v256h256v256h-768v256h1536v-256h-256v-256h-256v-256h256v-256h256v-512h-256v-256h-1024v256h-256z" />
<glyph unicode="4" d="M256 512v512h256v256h256v256h256v256h512v-1024h256v-256h-256v-512h-512v512h-768zM768 768h256v256h-256v-256z" />
<glyph unicode="5" d="M256 256v256h512v-256h512v768h-1024v768h1536v-256h-1024v-256h768v-256h256v-768h-256v-256h-1024v256h-256z" />
<glyph unicode="6" d="M256 256v1280h256v256h1024v-256h-768v-512h768v-256h256v-512h-256v-256h-1024v256h-256zM768 256h512v512h-512v-512z" />
<glyph unicode="7" d="M256 1536v256h1536v-512h-256v-256h-256v-256h-256v-768h-512v768h256v256h256v256h256v256h-1024z" />
<glyph unicode="8" d="M256 256v512h256v256h-256v512h256v256h1024v-256h256v-512h-256v-256h256v-512h-256v-256h-1024v256h-256zM768 256h512v512h-512v-512zM768 1024h512v512h-512v-512z" />
<glyph unicode="9" d="M256 1024v512h256v256h1024v-256h256v-1024h-256v-256h-256v-256h-768v256h512v256h256v256h-768v256h-256zM768 1024h512v512h-512v-512z" />
<glyph unicode=":" d="M768 256v512h512v-512h-512zM768 1024v512h512v-512h-512z" />
<glyph unicode=";" d="M512 0v256h256v512h512v-512h-256v-256h-512zM768 1024v512h512v-512h-512z" />
<glyph unicode="&#x3c;" d="M512 768v256h256v256h256v256h256v256h512v-256h-256v-256h-256v-256h-256v-256h256v-256h256v-256h256v-256h-512v256h-256v256h-256v256h-256z" />
<glyph unicode="=" d="M256 256v256h1536v-256h-1536zM256 1024v256h1536v-256h-1536z" />
<glyph unicode="&#x3e;" d="M256 0v256h256v256h256v256h256v256h-256v256h-256v256h-256v256h512v-256h256v-256h256v-256h256v-256h-256v-256h-256v-256h-256v-256h-512z" />
<glyph unicode="?" d="M256 1280v256h256v256h1024v-256h256v-512h-256v-256h-256v-256h-512v256h256v256h256v512h-512v-256h-512zM768 0v256h512v-256h-512z" />
<glyph unicode="@" d="M256 256v1280h256v256h1024v-256h256v-1024h-768v768h256v256h-512v-1280h1024v-256h-1280v256h-256zM1280 768h256v256h-256v-256z" />
<glyph unicode="A" d="M256 0v1280h256v256h256v256h512v-256h256v-256h256v-1280h-512v512h-512v-512h-512zM768 768h512v512h-512v-512z" />
<glyph unicode="B" d="M256 0v1792h1280v-256h256v-512h-256v-256h256v-512h-256v-256h-1280zM768 256h512v512h-512v-512zM768 1024h512v512h-512v-512z" />
<glyph unicode="C" d="M256 256v1280h256v256h1024v-256h256v-256h-512v256h-512v-1280h512v256h512v-256h-256v-256h-1024v256h-256z" />
<glyph unicode="D" d="M256 0v1792h1024v-256h256v-256h256v-768h-256v-256h-256v-256h-1024zM768 256h256v256h256v768h-256v256h-256v-1280z" />
<glyph unicode="E" d="M256 0v1792h1536v-256h-1024v-512h768v-256h-768v-512h1024v-256h-1536z" />
<glyph unicode="F" d="M256 0v1792h1536v-256h-1024v-512h768v-256h-768v-768h-512z" />
<glyph unicode="G" d="M256 256v1280h256v256h1280v-256h-1024v-1280h512v512h-256v256h768v-1024h-1280v256h-256z" />
<glyph unicode="H" d="M256 0v1792h512v-768h512v768h512v-1792h-512v768h-512v-768h-512z" />
<glyph unicode="I" d="M512 0v256h256v1280h-256v256h1024v-256h-256v-1280h256v-256h-1024z" />
<glyph unicode="J" d="M256 256v256h512v-256h512v1536h512v-1536h-256v-256h-1024v256h-256z" />
<glyph unicode="K" d="M256 0v1792h512v-512h256v256h256v256h512v-256h-256v-256h-256v-256h-256v-256h256v-256h256v-256h256v-256h-512v256h-256v256h-256v-512h-512z" />
<glyph unicode="L" d="M256 0v1792h512v-1536h1024v-256h-1536z" />
<glyph unicode="M" d="M0 0v1792h512v-256h256v-256h256v256h256v256h512v-1792h-512v1024h-256v-256h-256v256h-256v-1024h-512z" />
<glyph unicode="N" d="M256 0v1792h512v-256h256v-256h256v512h512v-1792h-512v512h-256v256h-256v-768h-512z" />
<glyph unicode="O" d="M256 256v1280h256v256h1024v-256h256v-1280h-256v-256h-1024v256h-256zM768 256h512v1280h-512v-1280z" />
<glyph unicode="P" d="M256 0v1792h1280v-256h256v-512h-256v-256h-768v-768h-512zM768 1024h512v512h-512v-512z" />
<glyph unicode="Q" d="M256 256v1280h256v256h1024v-256h256v-1024h-256v-256h256v-256h-512v256h-256v-256h-512v256h-256zM768 256h256v256h-256v-256zM768 768h256v-256h256v1024h-512v-768z" />
<glyph unicode="R" d="M256 0v1792h1280v-256h256v-512h-256v-512h256v-512h-512v512h-256v256h-256v-768h-512zM768 1024h512v512h-512v-512z" />
<glyph unicode="S" d="M256 256v256h512v-256h512v512h-768v256h-256v512h256v256h1024v-256h256v-256h-512v256h-512v-512h768v-256h256v-512h-256v-256h-1024v256h-256z" />
<glyph unicode="T" d="M256 1536v256h1536v-256h-512v-1536h-512v1536h-512z" />
<glyph unicode="U" d="M256 256v1536h512v-1536h512v1536h512v-1792h-1280v256h-256z" />
<glyph unicode="V" d="M256 512v1280h512v-1280h512v1280h512v-1280h-256v-256h-256v-256h-512v256h-256v256h-256z" />
<glyph unicode="W" d="M0 0v1792h512v-1024h256v256h256v-256h256v1024h512v-1792h-512v256h-256v256h-256v-256h-256v-256h-512z" />
<glyph unicode="X" d="M256 0v512h256v256h256v256h-256v256h-256v512h512v-512h512v512h512v-512h-256v-256h-256v-256h256v-256h256v-512h-512v512h-512v-512h-512z" />
<glyph unicode="Y" d="M256 1024v768h512v-768h512v768h512v-768h-256v-256h-256v-768h-512v768h-256v256h-256z" />
<glyph unicode="Z" d="M256 0v512h256v256h256v256h256v256h256v256h-1024v256h1536v-512h-256v-256h-256v-256h-256v-256h-256v-256h1024v-256h-1536z" />
<glyph unicode="[" d="M768 0v1792h1024v-256h-512v-1280h512v-256h-1024z" />
<glyph unicode="\" d="M256 1280v512h256v-256h256v-256h256v-256h256v-256h256v-256h256v-512h-256v256h-256v256h-256v256h-256v256h-256v256h-256z" />
<glyph unicode="]" d="M256 0v256h512v1280h-512v256h1024v-1792h-1024z" />
<glyph unicode="^" d="M0 768v256h256v256h256v256h256v256h256v-256h256v-256h256v-256h256v-256h-512v256h-256v256h-256v-256h-256v-256h-512z" />
<glyph unicode="_" d="M0 0v256h1792v-256h-1792z" />
<glyph unicode="`" d="M0 1280v256h512v-256h256v-256h256v-256h-512v256h-256v256h-256z" />
<glyph unicode="a" d="M256 256v256h256v256h768v256h-768v256h1024v-256h256v-1024h-1280v256h-256zM768 256h512v256h-512v-256z" />
<glyph unicode="b" d="M256 0v1792h512v-512h768v-256h256v-768h-256v-256h-1280zM768 256h512v768h-512v-768z" />
<glyph unicode="c" d="M256 256v768h256v256h1024v-256h-768v-768h768v-256h-1024v256h-256z" />
<glyph unicode="d" d="M256 256v768h256v256h768v512h512v-1792h-1280v256h-256zM768 256h512v768h-512v-768z" />
<glyph unicode="e" d="M256 256v768h256v256h1024v-256h256v-512h-1024v-256h768v-256h-1024v256h-256zM768 768h512v256h-512v-256z" />
<glyph unicode="f" d="M256 1024v256h256v256h256v256h768v-256h-512v-256h512v-256h-512v-1024h-512v1024h-256z" />
<glyph unicode="g" d="M256 0h1024v256h-768v256h-256v512h256v256h1280v-1280h-256v-256h-1280v256zM768 512h512v512h-512v-512z" />
<glyph unicode="h" d="M256 0v1792h512v-512h768v-256h256v-1024h-512v1024h-512v-1024h-512z" />
<glyph unicode="i" d="M512 0v256h256v768h-256v256h768v-1024h256v-256h-1024zM768 1536v256h512v-256h-512z" />
<glyph unicode="j" d="M256 0h512v1280h512v-1280h-256v-256h-768v256zM768 1536v256h512v-256h-512z" />
<glyph unicode="k" d="M256 0v1792h512v-1024h256v256h256v256h512v-256h-256v-256h-256v-256h256v-256h256v-256h-512v256h-256v256h-256v-512h-512z" />
<glyph unicode="l" d="M512 0v256h256v1280h-256v256h768v-1536h256v-256h-1024z" />
<glyph unicode="m" d="M0 0v1280h768v-256h256v256h512v-256h256v-1024h-512v768h-256v-256h-256v256h-256v-768h-512z" />
<glyph unicode="n" d="M256 0v1280h1280v-256h256v-1024h-512v1024h-512v-1024h-512z" />
<glyph unicode="o" d="M256 256v768h256v256h1024v-256h256v-768h-256v-256h-1024v256h-256zM768 256h512v768h-512v-768z" />
<glyph unicode="p" d="M256 -256v1536h1280v-256h256v-768h-256v-256h-768v-256h-512zM768 256h512v768h-512v-768z" />
<glyph unicode="q" d="M256 256v768h256v256h1280v-1536h-512v256h-768v256h-256zM768 256h512v768h-512v-768z" />
<glyph unicode="r" d="M256 0v1280h1280v-256h256v-256h-512v256h-512v-1024h-512z" />
<glyph unicode="s" d="M256 0v256h1024v256h-768v256h-256v256h256v256h1280v-256h-1024v-256h768v-256h256v-256h-256v-256h-1280z" />
<glyph unicode="t" d="M256 1024v256h512v256h512v-256h512v-256h-512v-768h512v-256h-768v256h-256v768h-512z" />
<glyph unicode="u" d="M256 256v1024h512v-1024h512v1024h512v-1280h-1280v256h-256z" />
<glyph unicode="v" d="M256 512v768h512v-768h512v768h512v-768h-256v-256h-256v-256h-512v256h-256v256h-256z" />
<glyph unicode="w" d="M0 512v768h512v-768h256v256h256v-256h256v768h512v-768h-256v-512h-512v256h-256v-256h-512v512h-256z" />
<glyph unicode="x" d="M256 0v256h256v256h256v256h-256v256h-256v256h512v-256h512v256h512v-256h-256v-256h-256v-256h256v-256h256v-256h-512v256h-512v-256h-512z" />
<glyph unicode="y" d="M256 0h1024v256h-768v256h-256v768h512v-768h512v768h512v-1280h-256v-256h-1280v256z" />
<glyph unicode="z" d="M256 0v256h256v256h256v256h256v256h-768v256h1536v-256h-256v-256h-256v-256h-256v-256h768v-256h-1536z" />
<glyph unicode="{" d="M512 768v256h256v512h256v256h768v-256h-512v-512h-256v-256h256v-512h512v-256h-768v256h-256v512h-256z" />
<glyph unicode="|" d="M768 -256v2048h512v-2048h-512z" />
<glyph unicode="}" d="M256 0v256h512v512h256v256h-256v512h-512v256h768v-256h256v-512h256v-256h-256v-512h-256v-256h-768z" />
<glyph unicode="~" d="M0 768v512h256v256h512v-256h256v-256h512v256h256v-512h-256v-256h-512v256h-256v256h-512v-256h-256z" />
<glyph unicode="&#xa0;" />
<glyph unicode="&#xa1;" d="M768 -256v1280h512v-1280h-512zM768 1280v256h512v-256h-512z" />
<glyph unicode="&#xa2;" d="M256 512v512h256v256h256v512h512v-512h256v-256h-768v-512h768v-256h-256v-512h-512v512h-256v256h-256z" />
<glyph unicode="&#xa3;" d="M256 0v256h256v512h-256v256h256v512h256v256h768v-256h256v-256h-256v256h-256v-256h-256v-256h512v-256h-512v-512h768v-256h-1536z" />
<glyph unicode="&#xa5;" d="M256 1280v512h512v-512h512v512h512v-512h-256v-256h-256v-256h256v-256h-256v-512h-512v512h-256v256h256v256h-256v256h-256z" />
<glyph unicode="&#xa7;" d="M0 0v256h512v256h-256v512h256v256h256v256h256v256h768v-256h256v-256h-512v-256h256v-512h-256v-256h-256v-256h-256v-256h-768v256h-256zM512 0h256v256h-256v-256zM768 512h512v512h-512v-512zM1280 1280h256v256h-256v-256z" />
<glyph unicode="&#xa8;" d="M256 1536v256h512v-256h-512zM1280 1536v256h512v-256h-512z" />
<glyph unicode="&#xa9;" d="M0 0v1536h256v256h1536v-256h256v-1536h-256v-256h-1536v256h-256zM256 256h256v1024h-256v-1024zM512 0h1024v256h-1024v-256zM512 1280h1024v256h-1024v-256zM1024 512h512v-256h256v1024h-256v-256h-512v-512z" />
<glyph unicode="&#xaa;" d="M256 512v256h256v256h768v256h-768v256h1024v-256h256v-1024h-1280v256h-256zM512 0h1024v-256h-1024v256zM768 512h512v256h-512v-256z" />
<glyph unicode="&#xab;" d="M0 768v256h256v256h256v256h256v256h512v-256h256v256h512v-256h-256v-256h-256v-256h-256v-256h256v-256h256v-256h256v-256h-512v256h-256v-256h-512v256h-256v256h-256v256h-256zM512 768h256v256h-256v-256zM768 512h256v256h-256v-256zM768 1024h256v256h-256v-256z M1024 256h256v256h-256v-256zM1024 1280h256v256h-256v-256z" />
<glyph unicode="&#xac;" d="M256 768v256h1280v-1024h-512v768h-768z" />
<glyph unicode="&#xad;" d="M256 768v256h1536v-256h-1536z" />
<glyph unicode="&#xae;" d="M0 0v1536h256v256h1536v-256h256v-1536h-256v-256h-1536v256h-256zM256 256h256v1024h-256v-1024zM512 0h1024v256h-512v256h-256v-256h-256v-256zM512 1280h1024v256h-1024v-256zM768 768h512v256h-512v-256zM1280 512h256v-256h256v1024h-256v-512h-256v-256z" />
<glyph unicode="&#xaf;" d="M0 1280v256h1792v-256h-1792z" />
<glyph unicode="&#xb0;" d="M256 1280v256h256v256h768v-256h256v-256h-256v-256h-768v256h-256zM768 1280h256v256h-256v-256z" />
<glyph unicode="&#xb1;" d="M256 0v256h1536v-256h-1536zM256 1024v256h512v512h512v-512h512v-256h-512v-512h-512v512h-512z" />
<glyph unicode="&#xb2;" d="M256 512v256h256v256h256v256h-512v256h256v256h768v-256h256v-256h-256v-256h-256v-256h512v-256h-1280zM768 1280h256v256h-256v-256z" />
<glyph unicode="&#xb3;" d="M256 512v256h768v256h-512v256h512v256h-768v256h1024v-256h256v-256h-256v-256h256v-256h-256v-256h-1024z" />
<glyph unicode="&#xb4;" d="M512 1024v256h256v256h256v256h512v-256h-256v-256h-256v-256h-512z" />
<glyph unicode="&#xb5;" d="M0 0h256v1280h512v-1024h256v1024h512v-1024h512v-256h-1536v-256h-512v256z" />
<glyph unicode="&#xb6;" d="M0 768v768h256v256h1024v-2048h-256v768h-768v256h-256zM512 768h512v768h-512v-768zM1536 -256v2048h256v-2048h-256z" />
<glyph unicode="&#xb7;" d="M768 256v512h512v-512h-512z" />
<glyph unicode="&#xb9;" d="M256 0v256h512v1024h-256v256h256v256h512v-1536h512v-256h-1536z" />
<glyph unicode="&#xba;" d="M256 512v768h256v256h1024v-256h256v-768h-256v-256h-1024v256h-256zM512 0h1024v-256h-1024v256zM768 512h512v768h-512v-768z" />
<glyph unicode="&#xbb;" d="M0 0v256h256v256h256v256h256v256h-256v256h-256v256h-256v256h512v-256h256v256h512v-256h256v-256h256v-256h256v-256h-256v-256h-256v-256h-256v-256h-512v256h-256v-256h-512zM768 256h256v256h-256v-256zM768 1280h256v256h-256v-256zM1024 512h256v256h-256v-256z M1024 1024h256v256h-256v-256zM1280 768h256v256h-256v-256z" />
<glyph unicode="&#xbc;" d="M0 0v512h256v256h256v256h-512v768h512v-768h256v256h256v256h256v256h512v-256h-256v-256h-256v-256h512v-768h256v-256h-256v-256h-512v256h-512v512h-256v-256h-256v-256h-256zM768 512h256v256h-256v-256zM1024 256h256v256h-256v-256zM1024 768h256v256h-256v-256z " />
<glyph unicode="&#xbd;" d="M0 0v512h256v256h256v256h-512v768h512v-768h256v256h256v256h256v256h512v-256h-256v-256h-256v-256h512v-256h256v-512h-256v-256h256v-256h-1024v256h256v256h256v512h-256v-256h-256v256h-256v-256h-256v-256h-256v-256h-256zM1024 768h256v256h-256v-256z" />
<glyph unicode="&#xbf;" d="M256 0v512h256v256h256v256h512v-256h-256v-256h-256v-512h512v256h512v-256h-256v-256h-1024v256h-256zM768 1280v256h512v-256h-512z" />
<glyph unicode="&#xc0;" d="M256 -256v768h256v256h256v256h512v-256h256v-256h256v-768h-512v256h-512v-256h-512zM512 1536v256h512v-256h256v-256h-512v256h-256zM768 256h512v256h-512v-256z" />
<glyph unicode="&#xc1;" d="M768 1915v256h256v256h256v256h512v-256h-256v-256h-256v-256h-512zM256 0v1280h256v256h256v256h512v-256h256v-256h256v-1280h-512v512h-512v-512h-512zM768 768h512v512h-512v-512z" />
<glyph unicode="&#xc2;" d="M128 1915v256h256v256h256v256h256v256h256v-256h256v-256h256v-256h256v-256h-512v256h-256v256h-256v-256h-256v-256h-512zM256 0v1280h256v256h256v256h512v-256h256v-256h256v-1280h-512v512h-512v-512h-512zM768 768h512v512h-512v-512z" />
<glyph unicode="&#xc3;" d="M256 -256v768h256v256h256v256h512v-256h256v-256h256v-768h-512v256h-512v-256h-512zM256 1280v256h256v256h512v-256h256v256h256v-256h-256v-256h-512v256h-256v-256h-256zM768 256h512v256h-512v-256z" />
<glyph unicode="&#xc4;" d="M256 0v768h256v256h256v256h512v-256h256v-256h256v-768h-512v256h-512v-256h-512zM256 1536v256h512v-256h-512zM768 512h512v256h-512v-256zM1280 1536v256h512v-256h-512z" />
<glyph unicode="&#xc5;" d="M256 0v768h256v256h256v256h512v-256h256v-256h256v-768h-512v256h-512v-256h-512zM768 512h512v256h-512v-256zM768 1536v256h512v-256h-512z" />
<glyph unicode="&#xc6;" d="M0 0v1280h256v256h256v256h1536v-256h-768v-512h512v-256h-512v-512h768v-256h-1280v512h-256v-512h-512zM512 768h256v512h-256v-512z" />
<glyph unicode="&#xc7;" d="M256 512v768h256v256h1024v-256h256v-256h-512v256h-512v-768h512v256h512v-256h-256v-256h-256v-512h-768v256h512v256h-512v256h-256z" />
<glyph unicode="&#xc8;" d="M256 2427v256h512v-256h256v-256h256v-256h-512v256h-256v256h-256zM256 0v1792h1536v-256h-1024v-512h768v-256h-768v-512h1024v-256h-1536z" />
<glyph unicode="&#xc9;" d="M256 0v1280h512v256h256v256h512v-256h-256v-256h512v-256h-1024v-256h768v-256h-768v-256h1024v-256h-1536z" />
<glyph unicode="&#xca;" d="M128 1915v256h256v256h256v256h256v256h256v-256h256v-256h256v-256h256v-256h-512v256h-256v256h-256v-256h-256v-256h-512zM256 0v1792h1536v-256h-1024v-512h768v-256h-768v-512h1024v-256h-1536z" />
<glyph unicode="&#xcb;" d="M256 1915v256h512v-256h-512zM1280 1915v256h512v-256h-512zM256 0v1792h1536v-256h-1024v-512h768v-256h-768v-512h1024v-256h-1536z" />
<glyph unicode="&#xcc;" d="M256 2427v256h512v-256h256v-256h256v-256h-512v256h-256v256h-256zM512 0v256h256v1280h-256v256h1024v-256h-256v-1280h256v-256h-1024z" />
<glyph unicode="&#xcd;" d="M768 1915v256h256v256h256v256h512v-256h-256v-256h-256v-256h-512zM512 0v256h256v1280h-256v256h1024v-256h-256v-1280h256v-256h-1024z" />
<glyph unicode="&#xce;" d="M128 1915v256h256v256h256v256h256v256h256v-256h256v-256h256v-256h256v-256h-512v256h-256v256h-256v-256h-256v-256h-512zM512 0v256h256v1280h-256v256h1024v-256h-256v-1280h256v-256h-1024z" />
<glyph unicode="&#xcf;" d="M256 1915v256h512v-256h-512zM1280 1915v256h512v-256h-512zM512 0v256h256v1280h-256v256h1024v-256h-256v-1280h256v-256h-1024z" />
<glyph unicode="&#xd1;" d="M256 0v1024h512v-256h256v-256h256v512h512v-1024h-512v256h-256v256h-256v-512h-512zM256 1280v256h256v256h512v-256h256v256h256v-256h-256v-256h-512v256h-256v-256h-256z" />
<glyph unicode="&#xd2;" d="M256 2427v256h512v-256h256v-256h256v-256h-512v256h-256v256h-256zM256 256v1280h256v256h1024v-256h256v-1280h-256v-256h-1024v256h-256zM768 256h512v1280h-512v-1280z" />
<glyph unicode="&#xd3;" d="M768 1915v256h256v256h256v256h512v-256h-256v-256h-256v-256h-512zM256 256v1280h256v256h1024v-256h256v-1280h-256v-256h-1024v256h-256zM768 256h512v1280h-512v-1280z" />
<glyph unicode="&#xd4;" d="M128 1915v256h256v256h256v256h256v256h256v-256h256v-256h256v-256h256v-256h-512v256h-256v256h-256v-256h-256v-256h-512zM256 256v1280h256v256h1024v-256h256v-1280h-256v-256h-1024v256h-256zM768 256h512v1280h-512v-1280z" />
<glyph unicode="&#xd5;" d="M256 0v1024h256v256h-256v256h256v256h512v-256h256v256h256v-256h-256v-256h256v-256h256v-1024h-256v-256h-1024v256h-256zM512 1280h256v256h-256v-256zM768 0h512v1024h-512v-1024z" />
<glyph unicode="&#xd6;" d="M256 256v768h256v256h1024v-256h256v-768h-256v-256h-1024v256h-256zM256 1536v256h512v-256h-512zM768 256h512v768h-512v-768zM1280 1536v256h512v-256h-512z" />
<glyph unicode="&#xd8;" d="M256 0h256v256h-256v1024h256v256h1024v256h256v-256h-256v-256h256v-1024h-256v-256h-1024v-256h-256v256zM768 256h512v512h-256v-256h-256v-256zM768 768h256v256h256v256h-512v-512z" />
<glyph unicode="&#xd9;" d="M256 2427v256h512v-256h256v-256h256v-256h-512v256h-256v256h-256zM256 256v1536h512v-1536h512v1536h512v-1792h-1280v256h-256z" />
<glyph unicode="&#xda;" d="M768 1915v256h256v256h256v256h512v-256h-256v-256h-256v-256h-512zM256 256v1536h512v-1536h512v1536h512v-1792h-1280v256h-256z" />
<glyph unicode="&#xdb;" d="M128 1915v256h256v256h256v256h256v256h256v-256h256v-256h256v-256h256v-256h-512v256h-256v256h-256v-256h-256v-256h-512zM256 256v1536h512v-1536h512v1536h512v-1792h-1280v256h-256z" />
<glyph unicode="&#xdc;" d="M256 256v1024h512v-1024h512v1024h512v-1280h-1280v256h-256zM256 1536v256h512v-256h-512zM1280 1536v256h512v-256h-512z" />
<glyph unicode="&#xdd;" d="M768 1915v256h256v256h256v256h512v-256h-256v-256h-256v-256h-512zM256 1024v768h512v-768h512v768h512v-768h-256v-256h-256v-768h-512v768h-256v256h-256z" />
<glyph unicode="&#xdf;" d="M256 -256v1536h256v256h256v256h768v-256h256v-512h-256v-256h256v-512h-256v-256h-768v-256h-512zM768 256h512v512h-512v-512zM768 1024h512v512h-256v-256h-256v-256z" />
<glyph unicode="&#xe0;" d="M256 256v256h1024v256h-768v256h1024v-256h256v-768h-1280v256h-256zM512 1536v256h512v-256h256v-256h-512v256h-256z" />
<glyph unicode="&#xe1;" d="M256 256v256h1024v256h-768v256h1024v-256h256v-768h-1280v256h-256zM768 1280v256h256v256h512v-256h-256v-256h-512z" />
<glyph unicode="&#xe2;" d="M256 256v256h1024v256h-768v256h1024v-256h256v-768h-1280v256h-256zM256 1280v256h512v256h512v-256h512v-256h-512v256h-512v-256h-512z" />
<glyph unicode="&#xe3;" d="M256 256v256h1024v256h-768v256h1024v-256h256v-768h-1280v256h-256zM256 1280v256h256v256h512v-256h256v256h256v-256h-256v-256h-512v256h-256v-256h-256z" />
<glyph unicode="&#xe4;" d="M256 256v256h256v256h768v256h-768v256h1024v-256h256v-1024h-1280v256h-256zM256 1536v256h512v-256h-512zM768 256h512v256h-512v-256zM1280 1536v256h512v-256h-512z" />
<glyph unicode="&#xe5;" d="M256 256v256h1024v256h-768v256h1024v-256h256v-768h-1280v256h-256zM768 1280v512h512v-512h-512z" />
<glyph unicode="&#xe6;" d="M0 256v256h256v256h512v256h-512v256h1536v-256h256v-512h-768v-256h512v-256h-1536v256h-256zM512 256h256v256h-256v-256zM1280 768h256v256h-256v-256z" />
<glyph unicode="&#xe7;" d="M256 512v512h256v256h1024v-256h-768v-512h768v-256h-256v-512h-512v256h256v256h-512v256h-256z" />
<glyph unicode="&#xe8;" d="M256 256v512h256v256h1024v-256h256v-256h-1024v-256h768v-256h-1024v256h-256zM512 1536v256h512v-256h256v-256h-512v256h-256z" />
<glyph unicode="&#xe9;" d="M256 256v512h256v256h1024v-256h256v-256h-1024v-256h768v-256h-1024v256h-256zM768 1280v256h256v256h512v-256h-256v-256h-512z" />
<glyph unicode="&#xea;" d="M256 256v512h256v256h1024v-256h256v-256h-1024v-256h768v-256h-1024v256h-256zM256 1280v256h512v256h512v-256h512v-256h-512v256h-512v-256h-512z" />
<glyph unicode="&#xeb;" d="M256 256v768h256v256h1024v-256h256v-512h-1024v-256h768v-256h-1024v256h-256zM256 1536v256h512v-256h-512zM768 768h512v256h-512v-256zM1280 1536v256h512v-256h-512z" />
<glyph unicode="&#xec;" d="M256 1536v256h512v-256h256v-256h-512v256h-256zM512 0v256h256v512h-256v256h768v-768h256v-256h-1024z" />
<glyph unicode="&#xed;" d="M512 0v256h256v512h-256v256h768v-768h256v-256h-1024zM768 1280v256h256v256h512v-256h-256v-256h-512z" />
<glyph unicode="&#xee;" d="M256 1280v256h512v256h512v-256h512v-256h-512v256h-512v-256h-512zM512 0v256h256v512h-256v256h768v-768h256v-256h-1024z" />
<glyph unicode="&#xef;" d="M256 1536v256h512v-256h-512zM512 0v256h256v512h-256v256h768v-768h256v-256h-1024zM1280 1536v256h512v-256h-512z" />
<glyph unicode="&#xf1;" d="M256 0v1024h1280v-256h256v-768h-512v768h-512v-768h-512zM256 1280v256h256v256h512v-256h256v256h256v-256h-256v-256h-512v256h-256v-256h-256z" />
<glyph unicode="&#xf2;" d="M256 256v512h256v256h1024v-256h256v-512h-256v-256h-1024v256h-256zM512 1536v256h512v-256h256v-256h-512v256h-256zM768 256h512v512h-512v-512z" />
<glyph unicode="&#xf3;" d="M256 256v512h256v256h1024v-256h256v-512h-256v-256h-1024v256h-256zM768 256h512v512h-512v-512zM768 1280v256h256v256h512v-256h-256v-256h-512z" />
<glyph unicode="&#xf4;" d="M256 256v512h256v256h1024v-256h256v-512h-256v-256h-1024v256h-256zM256 1280v256h512v256h512v-256h512v-256h-512v256h-512v-256h-512zM768 256h512v512h-512v-512z" />
<glyph unicode="&#xf5;" d="M256 256v512h256v256h1024v-256h256v-512h-256v-256h-1024v256h-256zM256 1280v256h256v256h512v-256h256v256h256v-256h-256v-256h-512v256h-256v-256h-256zM768 256h512v512h-512v-512z" />
<glyph unicode="&#xf6;" d="M256 256v512h256v256h1024v-256h256v-512h-256v-256h-1024v256h-256zM256 1536v256h512v-256h-512zM768 256h512v512h-512v-512zM1280 1536v256h512v-256h-512z" />
<glyph unicode="&#xf7;" d="M256 768v256h1536v-256h-1536zM768 0v512h512v-512h-512zM768 1280v512h512v-512h-512z" />
<glyph unicode="&#xf8;" d="M256 0h256v256h-256v768h256v256h1024v256h256v-256h-256v-256h256v-768h-256v-256h-1024v-256h-256v256zM768 256h512v512h-256v-256h-256v-256zM768 768h256v256h-256v-256z" />
<glyph unicode="&#xf9;" d="M256 256v768h512v-768h512v768h512v-1024h-1280v256h-256zM512 1536v256h512v-256h256v-256h-512v256h-256z" />
<glyph unicode="&#xfa;" d="M256 256v768h512v-768h512v768h512v-1024h-1280v256h-256zM768 1280v256h256v256h512v-256h-256v-256h-512z" />
<glyph unicode="&#xfb;" d="M256 256v768h512v-768h512v768h512v-1024h-1280v256h-256zM256 1280v256h512v256h512v-256h512v-256h-512v256h-512v-256h-512z" />
<glyph unicode="&#xfc;" d="M256 256v768h512v-768h512v768h512v-1024h-1280v256h-256zM256 1536v256h512v-256h-512zM1280 1536v256h512v-256h-512z" />
<glyph unicode="&#xfd;" d="M768 1403v256h256v256h256v256h512v-256h-256v-256h-256v-256h-512zM256 0h1024v256h-768v256h-256v768h512v-768h512v768h512v-1280h-256v-256h-1280v256z" />
<glyph unicode="&#xff;" d="M256 0h1024v256h-768v256h-256v768h512v-768h512v768h512v-1280h-256v-256h-1280v256zM256 1536v256h512v-256h-512zM1280 1536v256h512v-256h-512z" />
<glyph unicode="&#x152;" d="M0 256v1280h256v256h1792v-256h-768v-512h512v-256h-512v-512h768v-256h-1792v256h-256zM512 256h256v1280h-256v-1280z" />
<glyph unicode="&#x153;" d="M0 256v768h256v256h1536v-256h256v-512h-768v-256h512v-256h-1536v256h-256zM512 256h256v768h-256v-768zM1280 768h256v256h-256v-256z" />
<glyph unicode="&#x178;" d="M256 1915v256h512v-256h-512zM1280 1915v256h512v-256h-512zM256 1024v768h512v-768h512v768h512v-768h-256v-256h-256v-768h-512v768h-256v256h-256z" />
<glyph unicode="&#x2c6;" d="M0 768v256h256v256h256v256h256v256h256v-256h256v-256h256v-256h256v-256h-512v256h-256v256h-256v-256h-256v-256h-512z" />
<glyph unicode="&#x2dc;" d="M-896 379v512h256v256h512v-256h256v-256h512v256h256v-512h-256v-256h-512v256h-256v256h-512v-256h-256z" />
<glyph unicode="&#x2000;" horiz-adv-x="1469" />
<glyph unicode="&#x2001;" horiz-adv-x="2938" />
<glyph unicode="&#x2002;" horiz-adv-x="1469" />
<glyph unicode="&#x2003;" horiz-adv-x="2938" />
<glyph unicode="&#x2004;" horiz-adv-x="977" />
<glyph unicode="&#x2005;" horiz-adv-x="734" />
<glyph unicode="&#x2006;" horiz-adv-x="488" />
<glyph unicode="&#x2007;" horiz-adv-x="488" />
<glyph unicode="&#x2008;" horiz-adv-x="366" />
<glyph unicode="&#x2009;" horiz-adv-x="586" />
<glyph unicode="&#x200a;" horiz-adv-x="161" />
<glyph unicode="&#x2010;" d="M256 768v256h1536v-256h-1536z" />
<glyph unicode="&#x2011;" d="M256 768v256h1536v-256h-1536z" />
<glyph unicode="&#x2012;" d="M256 768v256h1536v-256h-1536z" />
<glyph unicode="&#x2013;" horiz-adv-x="1024" d="M256 768v256h512v-256h-512z" />
<glyph unicode="&#x2014;" d="M256 768v256h1536v-256h-1536z" />
<glyph unicode="&#x2018;" d="M0 1280v256h512v-256h256v-256h256v-256h-512v256h-256v256h-256z" />
<glyph unicode="&#x2019;" d="M768 1024v768h512v-768h-512z" />
<glyph unicode="&#x201c;" d="M256 1024v768h512v-768h-512zM1280 1024v768h512v-768h-512z" />
<glyph unicode="&#x201d;" d="M256 1024v768h512v-768h-512zM1280 1024v768h512v-768h-512z" />
<glyph unicode="&#x2026;" horiz-adv-x="6144" d="M4864 0v512h512v-512h-512zM2816 0v512h512v-512h-512zM768 0v512h512v-512h-512z" />
<glyph unicode="&#x202f;" horiz-adv-x="586" />
<glyph unicode="&#x2039;" d="M512 768v256h256v256h256v256h256v256h512v-256h-256v-256h-256v-256h-256v-256h256v-256h256v-256h256v-256h-512v256h-256v256h-256v256h-256z" />
<glyph unicode="&#x203a;" d="M256 0v256h256v256h256v256h256v256h-256v256h-256v256h-256v256h512v-256h256v-256h256v-256h256v-256h-256v-256h-256v-256h-256v-256h-512z" />
<glyph unicode="&#x205f;" horiz-adv-x="734" />
<glyph unicode="&#x2122;" d="M0 1536v256h1024v-256h256v-256h256v256h256v256h256v-1280h-256v512h-256v-256h-256v256h-256v-512h-256v1024h-256v-1024h-256v1024h-256z" />
<glyph unicode="&#xe000;" horiz-adv-x="1280" d="M0 1280h1280v-1280h-1280v1280z" />
<glyph unicode="&#xfb01;" horiz-adv-x="4096" d="M2560 0v256h256v768h-256v256h768v-1024h256v-256h-1024zM2816 1536v256h512v-256h-512zM256 1024v256h256v256h256v256h768v-256h-512v-256h512v-256h-512v-1024h-512v1024h-256z" />
<glyph unicode="&#xfb02;" horiz-adv-x="4096" d="M2560 0v256h256v1280h-256v256h768v-1536h256v-256h-1024zM256 1024v256h256v256h256v256h768v-256h-512v-256h512v-256h-512v-1024h-512v1024h-256z" />
<glyph unicode="&#xfb03;" horiz-adv-x="6144" d="M4608 0v256h256v768h-256v256h768v-1024h256v-256h-1024zM4864 1536v256h512v-256h-512zM2304 1024v256h256v256h256v256h768v-256h-512v-256h512v-256h-512v-1024h-512v1024h-256zM256 1024v256h256v256h256v256h768v-256h-512v-256h512v-256h-512v-1024h-512v1024h-256 z" />
<glyph unicode="&#xfb04;" horiz-adv-x="6144" d="M4608 0v256h256v1280h-256v256h768v-1536h256v-256h-1024zM2304 1024v256h256v256h256v256h768v-256h-512v-256h512v-256h-512v-1024h-512v1024h-256zM256 1024v256h256v256h256v256h768v-256h-512v-256h512v-256h-512v-1024h-512v1024h-256z" />
</font>
</defs>
</svg>
