<?xml version="1.0" encoding="utf-8"?>
<!-- Generator: Adobe Illustrator 19.0.0, SVG Export Plug-In . SVG Version: 6.00 Build 0)  -->
<svg version="1.1" baseProfile="tiny" id="Ebene_1" xmlns="http://www.w3.org/2000/svg" xmlns:xlink="http://www.w3.org/1999/xlink"
	 x="0px" y="0px" viewBox="-3 333.9 490 126.1" xml:space="preserve">
<g>
	<path fill="#FF0000" d="M349.6,404.3H134.4c-19.4,0-35.2-15.8-35.2-35.2c0-19.4,15.8-35.2,35.2-35.2h215.1
		c19.4,0,35.2,15.8,35.2,35.2C384.8,388.5,369,404.3,349.6,404.3z M134.4,342.2c-14.8,0-26.9,12.1-26.9,26.9s12.1,26.9,26.9,26.9
		h215.1c14.8,0,26.9-12.1,26.9-26.9s-12.1-26.9-26.9-26.9C349.6,342.2,134.4,342.2,134.4,342.2z"/>
	<path fill="#FF0000" d="M162.1,385.4v-32.5h-9.8v22.7l-14.4-22.7h-10.5v32.5h9.8V362l15.2,23.5h9.7V385.4z"/>
	<path fill="#FF0000" d="M178,385.4v-22h-9.8v22H178z"/>
	<path fill="#FF0000" d="M178,358.8v-5.9h-9.8v5.9H178z"/>
	<path id="_x33_162" fill="#FF0000" d="M212.2,385.4v-15.2c0-3.2-6.1-7.6-9.3-7.6H200c-2.2,0-4.6,2-6.8,2.9v-2.2h-9.8v22h9.8v-15.2
		c0-1.5,3.4-3.2,4.9-3.2s4.2,1.7,4.2,3.2v15.2L212.2,385.4L212.2,385.4z"/>
	<path id="_x33_162_1_" fill="#FF0000" d="M294,386.2V371c0-3.2-6.1-7.6-9.3-7.6h-2.9c-2.2,0-4.6,2-6.8,2.9v-2.2h-9.8v22h9.8V371
		c0-1.5,3.4-3.2,4.9-3.2s4.2,1.7,4.2,3.2v15.2H294z"/>
	<path fill="#FF0000" d="M228.1,385.4v-22h5.1v-2.9h-5.1v-4.6h-10v4.6H213v2.9h5.1v22H228.1z"/>
	<path fill="#FF0000" d="M246.9,362.7c-7.8,0-14.4,5.4-14.4,12c0,6.8,6.6,12.2,14.4,12.2c6.8,0,12.5-3.9,13.9-9h-10v2.9
		c0,2.4-1.7,3.2-3.9,3.2c-2.2,0-3.7-0.7-3.7-3.2v-6.1h18.1C261.3,368.1,255,362.7,246.9,362.7z M246.9,364.9c2.2,0,3.9,1.5,3.9,3.9
		v2.2h-7.6v-2.2C243.2,366.4,244.7,364.9,246.9,364.9z"/>
	<path fill="#FF0000" d="M343.2,362.7c-8.1,0-14.4,5.4-14.4,12c0,6.8,6.4,12.2,14.4,12.2c7.8,0,14.4-5.4,14.4-12.2
		C357.7,368.1,351.1,362.7,343.2,362.7z M343.2,364.9c2.2,0,3.7,1.5,3.7,3.9v12c0,2.4-1.5,3.2-3.7,3.2c-2.4,0-3.9-0.7-3.9-3.2v-12
		C339.3,366.4,340.8,364.9,343.2,364.9z"/>
	<path fill="#FF0000" d="M315.1,352.9v12c0,0-2.9-2.2-6.8-2.2c-6.1,0-11.2,5.4-11.2,11.2c0,6.1,5.1,12.2,11.2,12.2
		c3.9,0,6.8-1.5,6.8-1.5v0.7h9.8v-32.5L315.1,352.9L315.1,352.9z M311.5,366.4c2.2,0,3.7,1.7,3.7,3.9v9c0,2.2-1.5,2.9-3.7,2.9
		c-2.4,0-3.9-0.7-3.9-2.9v-9C307.5,368.1,309,366.4,311.5,366.4z"/>
	<g>
		<path fill="#FF0000" d="M358.9,363.1c-2.8,0-5-2.3-5-5c0-3,2.2-5.3,5-5.3c2.7,0,5,2.4,5,5.3C363.9,360.7,361.6,363.1,358.9,363.1z
			 M358.9,353.6c-2.4,0-4.3,1.9-4.3,4.5c0,2.3,1.9,4.3,4.3,4.3c2.2,0,4.3-2,4.3-4.3C363.1,355.7,361.1,353.6,358.9,353.6z
			 M359.8,360.2l-0.9-1.5h-1.1v1.3H357v-4.5h2.1c1,0,1.5,0.8,1.5,1.6c0,0.6-0.3,1.2-0.9,1.5l0.7,1.2L359.8,360.2z M357.8,357.9h1.3
			c0.2,0,0.4-0.1,0.5-0.2s0.2-0.4,0.2-0.6c0-0.3-0.2-0.8-0.7-0.8h-1.3V357.9L357.8,357.9z"/>
	</g>
	<path id="_x32_399" d="M123.7,433.1v-14.2c0-2.7-2.7-5.4-5.4-5.4H97.8v19.6h6.4v-13.2c0-1,0.7-2,1.7-2h9.8c1,0,2,1,2,2v13.2
		C117.6,433.1,123.7,433.1,123.7,433.1z"/>
	<path id="_x32_399_1_" d="M293.3,433.1v-14.2c0-2.7-2.7-5.4-5.4-5.4h-20.5v19.6h6.4v-13.2c0-1,0.7-2,1.7-2h9.8c1,0,2,1,2,2v13.2
		C287.2,433.1,293.3,433.1,293.3,433.1z"/>
	<path id="_x32_399_2_" d="M386.2,433.1v-14.2c0-2.7-2.7-5.4-5.4-5.4h-20.5v19.6h6.4v-13.2c0-1,0.7-2,1.7-2h9.8c1,0,2,1,2,2v13.2
		C380.1,433.1,386.2,433.1,386.2,433.1z"/>
	<path id="_x33_177" d="M330.8,433.1v-14.2c0-2.7-2.7-5.4-5.4-5.4h-27.6v19.6h6.4v-13.2c0-1,0.7-2,1.7-2h3.7c0.7,0,1.7,1,1.7,2v13.2
		h6.4v-13.2c0-1,0.7-2,1.7-2h3.7c0.7,0,1.7,1,1.7,2v13.2C324.7,433.1,330.8,433.1,330.8,433.1z"/>
	<path id="_x33_181" d="M93.4,433.1H77.3c-2.7,0-5.4-1.7-5.4-4.4v-15.4h21.5v4.6H79c-0.7,0-1.7,0.7-1.7,1.7s1,1.7,1.7,1.7h13.4v3.9
		H79c-0.7,0-1.7,1-1.7,1.7c0,1,1,2,1.7,2h14.4V433.1L93.4,433.1z"/>
	<path id="_x33_181_1_" d="M172.9,433.4h-16.1c-2.7,0-5.4-1.7-5.4-4.4v-15.4h21.5v4.6h-14.4c-0.7,0-1.7,0.7-1.7,1.7s1,1.7,1.7,1.7
		h13.4v3.9h-13.4c-0.7,0-1.7,1-1.7,1.7c0,1,1,2,1.7,2h14.4V433.4L172.9,433.4z"/>
	<path id="_x33_181_2_" d="M356.8,433.1h-16.1c-2.7,0-5.4-1.7-5.4-4.4v-15.4h21.5v4.6h-14.4c-0.7,0-1.7,0.7-1.7,1.7s1,1.7,1.7,1.7
		h13.4v3.9h-13.4c-0.7,0-1.7,1-1.7,1.7c0,1,1,2,1.7,2h14.4V433.1L356.8,433.1L356.8,433.1z"/>
	<path id="_x32_391" d="M126.4,413.6v4.4h6.4c1.7,0,1.7,0,1.7,2v13.2h6.1V420c0-2,0-2,2-2h6.1v-4.4
		C148.6,413.6,126.4,413.6,126.4,413.6z"/>
	<path id="_x32_391_1_" d="M204.1,413.6v4.4h6.4c1.7,0,1.7,0,1.7,2v13.2h6V420c0-2,0-2,2-2h6.1v-4.4H204.1z"/>
	<path id="_x32_391_2_" d="M389.8,413.6v4.4h6.4c1.7,0,1.7,0,1.7,2v13.2h6.1V420c0-2,0-2,2-2h6.1v-4.4
		C412,413.6,389.8,413.6,389.8,413.6z"/>
	<path d="M177.2,413.6v19.6h6.4v-3.4c0-1,0.7-2,1.7-2h8.1c1,0,1.7,1,1.7,2v3.4h5.4v-5.4c0-0.7-0.7-1.7-0.7-2.7
		c0-0.7,1.7-2.4,1.7-4.4V419c0-1.7-2.7-5.4-4.4-5.4H177.2L177.2,413.6z M185.3,418h8.1c1,0,1.7,1,1.7,2v1.7c0,1-0.7,1.7-1.7,1.7
		h-8.1c-1,0-1.7-0.7-1.7-1.7V420C183.6,418.9,184.3,418,185.3,418z"/>
	<path d="M233.5,413.6c-1.7,0-4.4,3.7-4.4,5.4v14.2h6.4v-5.4H247v5.4h6.4V419c0-1.7-2.7-5.4-4.6-5.4H233.5z M237.1,418h8.1
		c0.7,0,1.7,1,1.7,2v3.4h-11.5V420C235.4,418.9,236.2,418,237.1,418z"/>
	<path d="M263.8,433.1v-19.6h-6.1v19.6H263.8L263.8,433.1z"/>
	<path id="_x33_177_1_" d="M322.7,459.9v-14.2c0-2.7-2.7-5.4-5.4-5.4h-27.6v19.6h6.4v-13.2c0-1,0.7-2,1.7-2h3.7c0.7,0,1.7,1,1.7,2
		v13.2h6.4v-13.2c0-1,0.7-2,1.7-2h3.7c0.7,0,1.7,1,1.7,2v13.2H322.7L322.7,459.9L322.7,459.9z"/>
	<path id="_x33_181_3_" d="M285.4,459.9h-16.2c-2.7,0-5.4-1.7-5.4-4.4v-15.4h21.5v4.6h-14.4c-0.7,0-1.7,0.7-1.7,1.7s1,1.7,1.7,1.7
		h13.4v3.9h-13.4c-0.7,0-1.7,1-1.7,1.7c0,1,1,2,1.7,2h14.4L285.4,459.9L285.4,459.9z"/>
	<path id="_x32_391_3_" d="M238.9,440.3v4.4h6.3c1.7,0,1.7,0,1.7,2v13.2h6.1v-13.2c0-2,0-2,2-2h6.1v-4.4H238.9z"/>
	<path id="_x33_187" d="M166.5,440.4c-1.7,0-5.4,2.7-5.4,4.4v2.7c0,1.7,3.7,4.4,5.4,4.4h10.7c1,0,2,1,2,1.7c0,1-1,2-2,2h-16.1v4.4
		h18.1c1.7,0,5.1-2.7,5.1-4.4v-2.7c0-2-3.4-4.6-5.1-4.6h-10.8c-1,0-2-0.7-2-1.7s1-1.7,2-1.7h15.9v-4.4L166.5,440.4L166.5,440.4z"/>
	<path id="_x33_187_1_" d="M218.3,440.4c-1.7,0-5.4,2.7-5.4,4.4v2.7c0,1.7,3.7,4.4,5.4,4.4h10.8c1,0,2,1,2,1.7c0,1-1,2-2,2h-16.2
		v4.4H231c1.7,0,5.1-2.7,5.1-4.4v-2.7c0-2-3.4-4.6-5.1-4.6h-10.8c-1,0-2-0.7-2-1.7s1-1.7,2-1.7h15.9v-4.4L218.3,440.4L218.3,440.4
		L218.3,440.4z"/>
	<path d="M186.3,440.4v8.8c0,1.7,2.7,4.4,4.4,4.4h4.4v6.4h6.4v-6.4h4.4c1.7,0,4.4-2.7,4.4-4.4v-8.8h-6.2v7.1c0,0.7-1,1.7-2,1.7h-7.8
		c-1,0-2-1-2-1.7v-7.1H186.3z"/>
</g>
</svg>
