<svg xmlns="http://www.w3.org/2000/svg" viewBox="-62 141.1 1084.1905 510.94453">
  <path fill="#cdcdcd" d="M500.7341 480.8168158c0-94.5264386 76.6700572-171.1964958 171.1964958-171.1964958s171.1964958 76.6700572 171.1964958 171.1964958-76.6700572 171.1964958-171.1964958 171.1964958S500.7341 575.3432544 500.7341 480.8168158zm171.1964958-25.3485694c-14.2351572 0-25.7231788 11.3631518-25.7231788 25.4734392s11.4880216 25.4734392 25.7231788 25.4734392 25.7231788-11.3631518 25.7231788-25.4734392-11.4880216-25.4734392-25.7231788-25.4734392z"/>
  <path fill="#020202" d="M505.8537618 480.8168158c0-91.779303 74.4224008-166.076834 166.076834-166.076834 91.779303 0 166.076834 74.4224008 166.076834 166.076834 0 91.779303-74.4224008 166.076834-166.076834 166.076834-91.779303 0-166.076834-74.297531-166.076834-166.076834zm165.5773548-25.2236996c-14.2351572 0-25.7231788 11.4880216-25.7231788 25.7231788s11.4880216 25.7231788 25.7231788 25.7231788 25.7231788-11.4880216 25.7231788-25.7231788-11.4880216-25.7231788-25.7231788-25.7231788z"/>
  <path fill="#030303" d="M737.1126314 480.8168158V623.043518c-19.8542982 9.1154954-41.9562528 14.2351572-65.1820356 14.2351572-23.2257828 0-45.3277374-5.1196618-65.1820356-14.2351572V480.8168158c0 35.9625024 29.2195332 65.1820356 65.1820356 65.1820356 35.9625024 0 65.1820356-29.2195332 65.1820356-65.1820356z"/>
  <path fill="#fff" d="M655.8223916 596.196511c.624349-.2497396 1.1238282-.4994792 1.4984376-.624349.3746094-.1248698.8740886-.2497396 1.4984376-.3746094.624349-.1248698.9989584-.1248698 1.6233074-.1248698s1.248698.2497396 1.7481772.3746094c.3746094.1248698.7492188.624349.9989584.8740886.2497396.2497396.3746094.4994792.3746094.8740886v.4994792c0 .1248698-.1248698.2497396-.2497396.3746094-.1248698.1248698-.2497396.3746094-.3746094.4994792-.1248698.1248698-.2497396.2497396-.4994792.3746094-.2497396.1248698-.4994792.1248698-.7492188.2497396-.2497396.1248698-.624349 0-.8740886.1248698-1.1238282.1248698-2.1227866.2497396-2.6222658.3746094-.4994792.1248698-.8740886.2497396-1.248698.4994792-.3746094.1248698-.624349.3746094-.8740886.624349-.3746094.2497396-.4994792.4994792-.624349.7492188-.1248698.2497396-.3746094.624349-.4994792.8740886 0 .3746094-.1248698.7492188-.1248698 1.248698 0 .7492188.1248698 1.248698.4994792 1.873047.2497396.624349.8740886 1.1238282 1.4984376 1.3735678.624349.2497396 1.4984376.624349 2.6222658.624349h1.1238282c.3746094 0 .7492188-.1248698 1.3735678-.2497396.2497396-.2497396.7492188-.4994792 1.1238282-.7492188l.624349-.624349v1.4984376h2.497396c-.2497396-.9989584-.3746094-1.1238282-.2497396-1.873047 0-1.248698-.1248698-3.9958336 0-5.619141v-1.7481772c0-.4994792-.2497396-1.3735678-.3746094-1.873047-.1248698-.4994792-.4994792-.7492188-.7492188-1.248698-.3746094-.3746094-1.1238282-.9989584-1.7481772-1.1238282-.7492188-.1248698-1.1238282-.2497396-1.873047-.2497396s-1.7481772 0-2.497396.1248698c-.7492188.1248698-1.248698.2497396-2.2476564.624349-.624349.624349-.624349 1.3735678-.624349 1.7481772zm6.24349 9.2403652c-.1248698 0-.4994792.3746094-.624349.3746094-.4994792.1248698-.7492188.2497396-.9989584.3746094-.3746094 0-.7492188.1248698-1.1238282.1248698-.624349 0-.9989584-.1248698-1.3735678-.3746094-.3746094-.2497396-.3746094-.1248698-.7492188-.4994792-.2497396-.3746094-.624349-.8740886-.624349-1.3735678v-.9989584c0-.2497396.1248698-.4994792.3746094-.7492188l.7492188-.7492188c.3746094-.1248698.624349-.2497396 1.248698-.4994792.2497396-.1248698.7492188-.1248698 1.3735678-.2497396.3746094 0 .9989584 0 1.248698-.1248698.2497396 0 .4994792 0 .624349-.1248698.1248698-.1248698.3746094-.1248698.4994792-.2497396.1248698-.1248698.2497396-.1248698.624349-.4994792v2.7471356s0 1.1238282-.4994792 1.7481772c-.2497396.7492188-.7492188 1.1238282-.7492188 1.1238282zm41.0821642-9.4901048c.624349-.2497396.9989584-.4994792 1.4984376-.624349.3746094-.1248698.8740886-.2497396 1.4984376-.3746094.624349-.1248698.9989584-.1248698 1.6233074-.1248698s1.3735678.2497396 1.7481772.3746094c.4994792.1248698.7492188.624349.9989584.8740886.2497396.2497396.2497396.624349.3746094.9989584v.4994792c0 .1248698-.1248698.1248698-.2497396.2497396s-.2497396.3746094-.3746094.4994792c-.1248698.1248698-.2497396.2497396-.4994792.3746094-.1248698.1248698-.3746094.1248698-.624349.2497396-.2497396.1248698-.624349 0-.8740886.1248698-1.248698.1248698-2.1227866.2497396-2.6222658.3746094-.4994792.1248698-.8740886.2497396-1.248698.4994792-.3746094.1248698-.624349.3746094-.8740886.624349-.3746094.2497396-.4994792.4994792-.624349.7492188-.1248698.2497396-.2497396.624349-.3746094.9989584-.1248698.3746094-.2497396.7492188-.2497396 1.248698 0 .7492188.1248698 1.248698.4994792 1.873047.3746094.624349.8740886 1.1238282 1.4984376 1.3735678.7492188.2497396 1.4984376.624349 2.6222658.624349h.9989584c.3746094 0 .7492188-.1248698 1.3735678-.2497396.2497396-.2497396.7492188-.4994792 1.1238282-.7492188.4994792-.3746094.7492188-.624349.7492188-.624349v1.4984376h2.497396c-.2497396-.9989584-.3746094-1.1238282-.3746094-1.873047v-7.2424484c0-.4994792-.2497396-1.3735678-.3746094-1.873047-.1248698-.4994792-.4994792-.8740886-.7492188-1.248698-.2497396-.3746094-1.1238282-.9989584-1.7481772-1.1238282-.624349-.1248698-1.1238282-.3746094-1.873047-.3746094s-1.7481772.1248698-2.497396.1248698c-.7492188.1248698-1.248698.2497396-2.2476564.4994792-.624349.7492188-.624349 1.3735678-.624349 1.7481772zm6.24349 9.365235c-.1248698 0-.4994792.3746094-.624349.3746094-.3746094.1248698-.7492188.2497396-.9989584.3746094-.3746094 0-.7492188.1248698-1.1238282.1248698-.624349 0-1.1238282-.1248698-1.4984376-.3746094-.3746094-.2497396-.3746094-.1248698-.624349-.4994792-.2497396-.3746094-.7492188-.8740886-.7492188-1.3735678v-.9989584c.1248698-.2497396.1248698-.4994792.3746094-.624349.2497396-.2497396.4994792-.4994792.8740886-.7492188.2497396-.1248698.624349-.2497396 1.248698-.4994792.2497396-.1248698.7492188-.1248698 1.3735678-.2497396.2497396 0 .9989584 0 1.248698-.1248698.1248698 0 .3746094-.1248698.624349-.1248698.2497396-.1248698.3746094-.1248698.624349-.2497396.1248698-.1248698.2497396-.1248698.4994792-.4994792v2.7471356s0 1.1238282-.4994792 1.7481772c-.3746094.624349-.7492188.9989584-.7492188.9989584zm-41.4567736 2.1227866l.2497396-.9989584v-2.7471356l-.1248698-7.8667974c0-.7492188-.3746094-1.4984376-.3746094-1.873047.3746094 0 1.248698-.1248698 1.6233074-.2497396.2497396-.1248698.7492188-.1248698.9989584-.1248698v1.7481772c.2497396-.4994792.7492188-.624349.9989584-.8740886.1248698-.2497396.3746094-.2497396.7492188-.624349.3746094-.2497396.624349-.2497396.9989584-.3746094.624349 0 .9989584-.1248698 1.4984376-.1248698.3746094 0 .7492188 0 .9989584.1248698.3746094 0 .7492188.2497396.9989584.3746094.2497396.1248698.624349.3746094.7492188.4994792.2497396.2497396.4994792.3746094.7492188.7492188 0 .1248698.624349-.624349 1.3735678-.9989584s1.6233074-.7492188 2.497396-.7492188c.624349 0 1.873047 0 2.497396.2497396.624349.2497396 1.3735678.4994792 1.7481772.8740886s.4994792.624349.7492188.8740886c.3746094.3746094.4994792 1.4984376.4994792 1.873047v8.3662766c0 .624349.1248698.7492188.2497396 1.3735678h-2.6222658c.3746094-1.1238282.2497396-.7492188.2497396-1.3735678v-7.7419276c0-.4994792-.1248698-1.1238282-.2497396-1.4984376-.1248698-.2497396-.624349-.8740886-.8740886-1.1238282-.2497396-.2497396-.624349-.2497396-.8740886-.3746094-.2497396-.1248698-.8740886-.1248698-1.248698-.1248698-.2497396 0-.7492188 0-.9989584.1248698-.2497396.1248698-.4994792.1248698-.7492188.3746094-.2497396.1248698-.4994792.2497396-.7492188.4994792-.1248698.2497396-.3746094.4994792-.4994792.8740886-.1248698.2497396-.1248698.8740886-.1248698 1.3735678v7.7419276l.3746094 1.248698h-2.8720054c0-1.1238282.1248698-.1248698.1248698-1.3735678v-7.8667974c0-.4994792-.1248698-.624349-.1248698-.9989584-.1248698-.2497396-.2497396-.7492188-.4994792-.9989584-.2497396-.2497396-.7492188-.7492188-1.1238282-.8740886-.2497396-.1248698-.7492188-.2497396-1.1238282-.2497396-.4994792 0-.7492188 0-1.1238282.2497396-.3746094.1248698-.7492188.2497396-.9989584.624349-.2497396.2497396-.4994792.3746094-.7492188.7492188-.1248698.4994792-.3746094.3746094-.3746094 1.1238282-.1248698.7492188-.1248698 3.4963544-.1248698 5.3694014v2.9968752c0 .624349.2497396.7492188.2497396 1.3735678h-1.3735678c0 .3746094-.7492188.3746094-1.248698.3746094zm32.8407574-2.497396c0 .1248698 0 .4994792-.1248698.8740886 0 .3746094-.1248698.7492188-.2497396 1.1238282-.624349.1248698-1.248698.3746094-1.7481772.3746094-.4994792 0-1.9979168.1248698-2.497396.1248698-.8740886 0-1.873047-.1248698-2.6222658-.3746094-.7492188-.2497396-1.7481772-.8740886-2.3725262-1.4984376-.624349-.624349-1.248698-1.248698-1.6233074-2.1227866-.2497396-.8740886-.4994792-1.7481772-.4994792-2.7471356 0-1.3735678.1248698-1.873047.4994792-3.121745.3746094-1.248698 1.3735678-2.1227866 2.2476564-2.8720054.8740886-.7492188 2.9968752-1.248698 4.6201826-1.248698 1.1238282 0 2.497396.1248698 3.746094.4994792 0 .8740886.1248698 1.248698.1248698 1.7481772-.7492188-.2497396-1.6233074-.624349-1.9979168-.7492188-.4994792 0-1.1238282-.1248698-1.6233074-.1248698-.7492188 0-2.2476564.3746094-2.8720054.624349-.624349.2497396-.9989584.7492188-1.4984376 1.248698-.3746094.4994792-.624349 1.248698-.7492188 1.9979168-.1248698.7492188-.2497396.7492188-.1248698 1.6233074 0 .9989584.2497396 1.9979168.4994792 2.7471356.3746094.7492188.8740886 1.6233074 1.6233074 1.9979168.7492188.4994792 1.6233074.8740886 2.497396.8740886.9989584.1248698 2.7471356.1248698 4.7450524-.9989584zm14.1102874 1.9979168l-.2497396-.8740886c0-.1248698-.2497396-.7492188-.3746094-1.3735678 1.6233074.8740886 3.2466148 1.4984376 4.370443 1.4984376.624349 0 1.248698-.2497396 1.6233074-.3746094.3746094-.1248698.7492188-.4994792.9989584-.7492188.1248698-.2497396.3746094-.624349.4994792-.8740886 0-.1248698.1248698-.4994792 0-.624349 0-.1248698-.1248698-.7492188-.2497396-.8740886l-.7492188-.7492188c-.2497396-.1248698-.8740886-.4994792-1.7481772-.8740886-.7492188-.3746094-1.873047-.7492188-2.3725262-.9989584-.3746094-.2497396-1.1238282-.7492188-1.3735678-.9989584-.2497396-.2497396-.4994792-.7492188-.624349-.9989584-.1248698-.3746094 0-.8740886 0-1.248698 0-.624349.3746094-1.1238282.7492188-1.6233074.3746094-.624349.8740886-.8740886 1.6233074-1.1238282.7492188-.2497396 1.4984376-.3746094 2.3725262-.3746094.9989584 0 1.9979168.2497396 3.2466148.4994792 0 .7492188-.1248698 1.248698 0 1.7481772-.8740886-.624349-1.873047-.8740886-2.8720054-.8740886-.4994792 0-.9989584.1248698-1.4984376.2497396-.4994792.1248698-.8740886.624349-1.1238282.8740886-.1248698.2497396-.2497396.4994792-.2497396.8740886 0 .2497396 0 .624349.1248698.7492188 0 .1248698.624349.7492188.8740886.8740886.3746094.1248698.2497396.1248698.624349.2497396.3746094 0 1.3735678.624349 2.2476564.9989584.9989584.4994792 1.873047.9989584 2.1227866 1.3735678.2497396.2497396.624349.7492188.8740886 1.3735678.1248698.3746094.2497396.7492188.2497396.9989584 0 .4994792-.1248698.624349-.1248698.8740886 0 .624349-.1248698.8740886-.4994792 1.3735678-.3746094.624349-.9989584 1.1238282-1.7481772 1.3735678-.7492188.2497396-1.4984376.4994792-2.3725262.4994792h-1.7481772c-.4994792 0-.9989584-.2497396-1.3735678-.2497396-.4994792-.4994792-.7492188-.4994792-1.248698-.624349zm16.857423-1.1238282c-.1248698.4994792-.2497396.7492188-.2497396 1.4984376-.624349.1248698-.7492188.2497396-1.1238282.2497396h-.8740886c-.7492188 0-1.3735678 0-1.7481772-.2497396-.4994792-.2497396-.7492188-.4994792-.9989584-.9989584-.2497396-.4994792-.4994792-1.6233074-.4994792-2.3725262v-8.6160162h-1.6233074v-1.248698h1.6233074v-2.3725262c0-.3746094-.2497396-.7492188-.3746094-.9989584.7492188-.1248698 1.9979168-.4994792 2.497396-.624349 0 1.3735678.1248698 3.2466148.1248698 3.9958336h3.4963544v1.3735678l-.9989584-.1248698h-2.497396v8.2414068c0 .7492188.1248698 1.6233074.2497396 1.873047.1248698.3746094.3746094.4994792.624349.624349.2497396.1248698.624349.1248698.8740886.1248698h.7492188c0-.1248698.1248698-.2497396.7492188-.3746094zm-88.033209-7.3673182h7.2424484v-.7492188c0-.2497396-.1248698-.624349-.3746094-.8740886-.1248698-.3746094-.4994792-.624349-.7492188-.7492188-.2497396-.2497396-.624349-.4994792-.9989584-.624349-.3746094-.1248698-.8740886-.1248698-1.3735678-.1248698s-.8740886.1248698-1.248698.2497396c-.4994792.1248698-.7492188.3746094-1.1238282.624349-.3746094.2497396-.624349.4994792-.7492188.8740886-.2497396.3746094-.3746094.7492188-.4994792.9989584v.1248698s0-.1248698-.1248698.2497396zm9.1154954 6.6180994c0 .4994792-.2497396 1.1238282-.2497396 1.9979168-.7492188.2497396-2.1227866.7492188-2.6222658.7492188h-1.7481772c-.9989584 0-2.1227866-.2497396-2.9968752-.4994792-.7492188-.2497396-1.6233074-.8740886-2.2476564-1.6233074-.624349-.7492188-1.248698-1.4984376-1.4984376-2.3725262-.2497396-.8740886-.3746094-1.7481772-.3746094-2.7471356 0-1.3735678.1248698-1.873047.624349-3.121745.4994792-1.1238282 1.3735678-1.9979168 2.2476564-2.7471356.8740886-.7492188 2.1227866-.9989584 3.6212242-.9989584.7492188 0 1.6233074 0 2.3725262.2497396.7492188.2497396 1.248698.4994792 1.7481772.9989584.4994792.4994792.8740886.9989584 1.1238282 1.7481772.2497396.7492188.3746094.7492188.4994792 1.6233074.1248698.3746094.1248698.9989584.1248698 1.3735678h-9.8647142v.9989584c0 .9989584.1248698 1.9979168.624349 2.7471356.3746094.7492188.8740886 1.3735678 1.6233074 1.7481772.7492188.3746094 1.6233074.7492188 2.6222658.7492188.8740886.3746094 2.7471356-.1248698 4.370443-.8740886zm-20.2289076 2.7471356c0-.2497396.2497396-.624349.2497396-.8740886 0-4.370443 0-7.7419276-.1248698-10.4890632v-1.248698l-.3746094-.9989584c.3746094 0 .9989584-.1248698 1.248698-.1248698.2497396 0 .9989584-.1248698 1.3735678-.1248698v2.497396c.2497396-.624349.3746094-.4994792.624349-.8740886.1248698-.2497396.624349-.624349.8740886-.8740886.2497396-.1248698.624349-.3746094.9989584-.4994792.3746094-.1248698.7492188-.2497396 1.1238282-.2497396h1.4984376c.7492188.1248698 1.248698.2497396 1.4984376.3746094 0 .3746094-.624349 1.873047-.624349 1.873047s-.624349 0-1.1238282-.2497396c-.4994792-.1248698-.8740886-.1248698-1.248698-.1248698-.4994792 0-.9989584.1248698-1.4984376.2497396-.3746094.1248698-.7492188.3746094-.9989584.7492188-.2497396.3746094-.4994792.7492188-.624349 1.248698-.1248698.3746094-.1248698 0-.1248698.7492188v8.3662766l.2497396.7492188h-1.3735678c-.4994792-.2497396-1.1238282-.1248698-1.6233074-.1248698zm-16.9822928-1.4984376h2.9968752c.7492188 0 1.6233074 0 2.497396-.1248698.8740886-.1248698 1.4984376-.3746094 2.1227866-.624349.624349-.2497396 1.248698-.624349 1.873047-1.1238282.624349-.624349 1.1238282-1.248698 1.4984376-1.9979168s.624349-1.6233074.7492188-2.497396c.1248698-.8740886.2497396-1.873047.2497396-2.7471356 0-.9989584-.3746094-1.873047-.624349-2.7471356-.2497396-.8740886-.7492188-1.9979168-1.6233074-2.6222658-.7492188-.624349-1.3735678-1.1238282-2.2476564-1.3735678-.7492188-.2497396-1.9979168-.624349-3.3714846-.624349-.8740886 0-1.9979168 0-2.497396.1248698-.624349 0-.9989584.1248698-1.7481772.1248698l.1248698 16.233074zm-3.4963544 1.4984376l.4994792-1.3735678V589.953021c0-.4994792-.2497396-.9989584-.4994792-1.873047h8.4911464c1.4984376.1248698 1.873047.1248698 2.8720054.4994792.7492188.1248698 2.2476564.9989584 2.8720054 1.4984376.624349.4994792 1.3735678.9989584 1.873047 1.7481772.4994792.7492188.7492188.9989584 1.1238282 1.873047.4994792 1.248698.7492188 2.497396.7492188 3.6212242.1248698 1.6233074 0 2.8720054-.4994792 4.370443s-1.6233074 2.6222658-2.497396 3.6212242c-.9989584.9989584-2.1227866 1.6233074-3.3714846 1.9979168-1.248698.2497396-2.7471356.624349-4.370443.624349h-3.746094l-3.4963544-.1248698z"/>
  <path fill="#ee5507" d="M674.8026012 573.8448168c0-1.3735678-.624349-1.248698-1.1238282-1.248698-.4994792-.1248698-1.6233074.1248698-2.6222658-.1248698-1.248698-.2497396-1.873047-1.873047-1.6233074-2.7471356.624349-2.3725262 2.1227866-2.6222658 3.121745-2.6222658.8740886 0 2.3725262.1248698 4.2455732 1.7481772.8740886.7492188 1.3735678 2.7471356 1.3735678 3.8709638 0 1.3735678 0 2.9968752-.8740886 3.8709638-1.3735678 1.3735678-4.7450524 2.6222658-6.7429692 2.6222658-7.6170578-.8740886-7.3673182-7.9916672-7.3673182-7.9916672s-.624349-3.121745 1.9979168-6.3683598c.2497396-.2497396.4994792-.8740886.7492188-1.1238282.2497396-.2497396.4994792-.3746094.8740886-.624349.2497396-.2497396.624349-.3746094.9989584-.624349.8740886-.4994792 1.7481772-.9989584 2.6222658-1.248698 1.3735678-.3746094 2.6222658-.4994792 3.746094-.4994792 3.121745.1248698 6.6180994 1.873047 8.3662766 4.4953128.2497396.3746094.4994792.624349.7492188.9989584.2497396.3746094.4994792.9989584.8740886 1.7481772.3746094 1.1238282.2497396.624349.7492188 2.497396.2497396 1.248698.4994792 1.9979168.4994792 2.8720054 0 .3746094.1248698.7492188.1248698 1.248698 0 1.3735678.2497396 1.7481772-.1248698 2.7471356-.4994792 1.873047-1.6233074 3.6212242-2.6222658 4.6201826-1.7481772 1.6233074-3.2466148 2.1227866-4.1207034 2.6222658-.8740886.4994792-1.248698.4994792-2.497396.9989584-1.1238282.4994792-1.873047.4994792-3.8709638.4994792-2.1227866 0-3.746094-.1248698-4.2455732-.2497396-3.746094-.9989584-4.994792-1.7481772-6.6180994-2.9968752-4.1207034-3.2466148-4.994792-9.6149746-4.994792-9.6149746s-.4994792-3.2466148.2497396-6.6180994c.3746094-1.7481772 2.2476564-5.1196618 3.2466148-6.3683598.8740886-1.1238282 2.8720054-2.7471356 4.1207034-3.4963544s2.9968752-1.7481772 4.994792-2.3725262c.9989584-.3746094 1.7481772-.4994792 3.9958336-.624349 2.6222658-.1248698 6.3683598.624349 8.6160162 1.248698 2.3725262.7492188 4.4953128 2.2476564 5.4942712 3.3714846 1.1238282 1.248698 3.6212242 4.8699222 3.9958336 5.619141.4994792.7492188 1.6233074 4.7450524 1.7481772 5.2445316.1248698.4994792.2497396 2.2476564 2.1227866 2.2476564 1.6233074-.1248698 1.1238282-1.9979168 1.1238282-2.3725262-.1248698-.3746094-.624349-3.3714846-.8740886-4.2455732-.2497396-.8740886-1.4984376-3.121745-1.7481772-3.4963544-.1248698-.2497396-1.248698-2.1227866-2.3725262-3.6212242-.8740886-1.1238282-1.6233074-2.1227866-2.6222658-2.7471356-1.7481772-1.1238282-3.8709638-2.1227866-3.8709638-2.1227866s-3.746094-1.248698-5.7440108-1.4984376c-1.7481772-.2497396-3.4963544-.624349-6.4932296-.3746094-2.9968752.2497396-4.6201826.9989584-5.7440108 1.4984376-1.1238282.4994792-3.6212242 1.4984376-5.4942712 3.121745-1.873047 1.4984376-1.248698.7492188-2.2476564 1.873047-.9989584 1.1238282-1.248698 1.3735678-1.9979168 2.3725262-.624349.9989584-2.1227866 3.8709638-2.6222658 5.7440108-.2497396.7492188-.624349 1.9979168-.7492188 3.121745-.1248698.9989584-.1248698 1.873047-.1248698 2.7471356.1248698 1.6233074.1248698 1.7481772.1248698 1.7481772s.7492188 3.2466148 1.1238282 4.4953128c.4994792 1.248698.9989584 3.121745 3.6212242 5.9937504 2.6222658 2.8720054 4.994792 3.6212242 5.9937504 3.9958336.8740886.3746094 3.9958336 1.3735678 7.9916672 1.4984376 4.7450524.1248698 5.8688806-.9989584 6.7429692-1.248698.8740886-.3746094 3.746094-1.6233074 5.9937504-3.746094 2.2476564-2.1227866 2.9968752-4.4953128 3.121745-4.6201826.624349-1.873047.8740886-4.7450524.2497396-7.6170578-.3746094-1.873047-.7492188-3.6212242-1.1238282-4.7450524-.624349-1.9979168-1.4984376-3.121745-2.1227866-4.1207034-.4994792-.8740886-2.2476564-2.1227866-3.2466148-2.7471356-.4994792-.2497396-.9989584-.624349-1.6233074-.9989584-.624349-.2497396-1.4984376-.4994792-2.6222658-.7492188-.9989584-.2497396-2.2476564-.4994792-3.3714846-.4994792-.9989584-.1248698-1.7481772 0-2.1227866 0-.4994792 0-2.1227866.2497396-4.2455732 1.3735678-1.248698.624349-2.497396 1.3735678-3.9958336 2.8720054-.4994792.4994792-.8740886.9989584-1.1238282 1.4984376-3.2466148 4.370443-1.9979168 9.2403652-1.9979168 9.2403652s.624349 6.6180994 6.3683598 8.4911464c2.1227866.624349 3.8709638.624349 5.3694014.4994792 2.497396-.3746094 4.370443-1.3735678 5.619141-1.9979168s2.2476564-1.7481772 2.7471356-2.9968752c.4994792-1.1238282.624349-2.2476564.624349-3.121745 0-.624349 0-1.248698-.1248698-1.9979168-.3746094-1.873047-.9989584-3.746094-2.6222658-5.2445316l-.4994792-.3746094c-.2497396-.2497396-.624349-.3746094-.7492188-.4994792-1.3735678-.7492188-2.7471356-.9989584-4.7450524-1.1238282-.7492188 0-1.7481772.1248698-2.3725262.4994792-2.2476564 1.1238282-3.4963544 3.121745-3.4963544 5.8688806.1248698 2.497396 2.497396 3.8709638 2.8720054 4.2455732-.2497396-.4994792 4.8699222.8740886 4.994792-1.4984376z"/>
  <path fill="#fff" d="M690.0367168 639.5263316h-14.6097666c-1.3735678 0-2.2476564-.3746094-2.9968752-1.1238282v1.1238282h-4.8699222c-1.7481772 0-2.9968752-.7492188-3.4963544-1.9979168-.1248698.2497396-.3746094.624349-.624349.8740886-.7492188.7492188-1.6233074 1.1238282-2.6222658 1.1238282h-5.1196618v-4.4953128h1.1238282c-.7492188-.7492188-1.1238282-1.7481772-1.1238282-2.7471356 0-1.1238282.3746094-1.9979168 1.1238282-2.7471356s1.6233074-1.1238282 2.6222658-1.1238282h5.1196618v1.1238282c.624349-.7492188 1.6233074-1.1238282 2.9968752-1.1238282h4.8699222v1.1238282c.624349-.7492188 1.6233074-1.1238282 2.9968752-1.1238282h4.8699222v5.2445316l1.3735678-3.746094c.624349-1.248698 1.6233074-1.4984376 2.3725262-1.4984376 1.1238282 0 1.9979168.624349 2.3725262 1.6233074l3.6212242 9.4901048z"/>
  <path fill="#174b9a" d="M656.4467406 632.1590134c0-.8740886.3746094-1.6233074.9989584-2.2476564.624349-.624349 1.3735678-.9989584 2.1227866-.9989584h4.370443v1.3735678h-3.9958336c-.624349 0-1.1238282.1248698-1.4984376.4994792s-.4994792.7492188-.4994792 1.248698c0 .4994792.1248698.9989584.4994792 1.248698.3746094.3746094.8740886.4994792 1.4984376.4994792h.624349c.4994792 0 .9989584.1248698 1.248698.4994792.2497396.2497396.4994792.624349.4994792 1.1238282 0 .3746094-.1248698.7492188-.4994792 1.1238282-.2497396.2497396-.7492188.4994792-1.248698.4994792h-3.9958336v-1.3735678h3.9958336c.2497396 0 .3746094 0 .3746094-.1248698s-.1248698-.1248698-.3746094-.1248698h-.9989584c-.7492188 0-1.4984376-.3746094-2.1227866-.9989584-.624349-.4994792-.9989584-1.3735678-.9989584-2.2476564zm1.7481772 0c0-.3746094.1248698-.7492188.4994792-1.1238282.2497396-.2497396.7492188-.4994792 1.248698-.4994792h3.9958336v1.3735678h-3.9958336c-.2497396 0-.3746094 0-.3746094.1248698s.1248698.1248698.3746094.1248698h.9989584c.7492188 0 1.4984376.3746094 2.1227866.9989584s.9989584 1.3735678.9989584 2.2476564c0 .8740886-.3746094 1.6233074-.9989584 2.2476564-.624349.624349-1.3735678.9989584-2.1227866.9989584h-4.370443v-1.3735678h3.9958336c.624349 0 1.1238282-.1248698 1.4984376-.4994792s.4994792-.7492188.4994792-1.248698c0-.4994792-.1248698-.9989584-.4994792-1.248698-.3746094-.3746094-.8740886-.4994792-1.4984376-.4994792h-.624349c-.4994792 0-.9989584-.1248698-1.248698-.4994792-.3746094-.2497396-.4994792-.624349-.4994792-1.1238282zm6.3683598-.1248698c0-1.9979168.9989584-2.9968752 2.9968752-2.9968752h3.9958336v1.3735678h-3.9958336c-1.1238282 0-1.7481772.624349-1.7481772 1.7481772v3.746094c0 1.1238282.624349 1.7481772 1.7481772 1.7481772h3.9958336v1.3735678h-3.9958336c-1.9979168 0-2.9968752-.9989584-2.9968752-2.9968752v-3.9958336zm1.7481772 1.7481772v-1.7481772c0-.8740886.4994792-1.3735678 1.3735678-1.3735678h3.9958336v1.3735678h-3.746094c-.2497396 0-.3746094.1248698-.3746094.3746094h2.9968752v1.3735678h-4.2455732zm0 .2497396h4.370443v1.3735678h-2.9968752c0 .2497396.1248698.3746094.3746094.3746094h3.746094v1.3735678h-3.9958336c-.8740886 0-1.3735678-.4994792-1.3735678-1.3735678v-1.7481772zm5.9937504-1.9979168c0-1.9979168.9989584-2.9968752 2.9968752-2.9968752h3.9958336v1.3735678h-3.9958336c-1.1238282 0-1.7481772.624349-1.7481772 1.7481772v3.746094c0 1.1238282.624349 1.7481772 1.7481772 1.7481772h2.7471356v-3.746094h-2.3725262v-1.3735678h3.746094v6.3683598h-3.9958336c-1.9979168 0-2.9968752-.9989584-2.9968752-2.9968752v-3.8709638zm1.7481772 0c0-.8740886.4994792-1.3735678 1.3735678-1.3735678h3.9958336v1.3735678h-3.746094c-.2497396 0-.3746094.1248698-.3746094.3746094v2.9968752c0 .2497396.1248698.3746094.3746094.3746094h.624349v-.3746094h-.624349v-1.3735678h1.9979168v2.9968752h-2.3725262c-.8740886 0-1.3735678-.4994792-1.3735678-1.3735678v-3.6212242z"/>
  <path fill="#174b9a" d="M683.044008 637.403545h3.9958336l-2.7471356-6.867839c-.1248698-.1248698-.2497396-.2497396-.4994792-.2497396s-.3746094.1248698-.4994792.2497396l-2.9968752 8.2414068h-1.3735678l3.121745-8.6160162c.3746094-.7492188.9989584-1.1238282 1.7481772-1.1238282.8740886 0 1.3735678.3746094 1.7481772 1.1238282l3.2466148 8.6160162h-5.7440108v-1.3735678zm0-.2497396v-.7492188l-.9989584 2.3725262h-1.3735678l2.8720054-7.8667974c0-.1248698.1248698-.2497396.2497396-.2497396s.2497396.1248698.2497396.2497396l2.3725262 6.24349h-3.3714846zm.8740886-2.9968752l-.624349 1.6233074h1.248698l-.624349-1.6233074z"/>
  <path fill="#32507c" d="M828.3924552 480.8168158c0 63.059249-37.3360702 117.5024818-91.154954 142.2267022V480.8168158c0 35.9625024-29.2195332 65.1820356-65.1820356 65.1820356-35.9625024 0-65.1820356-29.2195332-65.1820356-65.1820356V623.043518c-53.8188838-24.7242204-91.154954-79.0425834-91.154954-142.2267022 0-86.4099016 70.0519578-156.4618594 156.4618594-156.4618594 86.160162 0 156.2121198 70.0519578 156.2121198 156.4618594zm-156.4618594-25.598309c-14.2351572 0-25.7231788 11.4880216-25.7231788 25.598309s11.4880216 25.598309 25.7231788 25.598309 25.7231788-11.4880216 25.7231788-25.598309-11.4880216-25.598309-25.7231788-25.598309z"/>
  <path fill="#9f9f9f" d="M737.1126314 480.8168158c0 35.9625024-29.2195332 65.1820356-65.1820356 65.1820356-35.9625024 0-65.1820356-29.2195332-65.1820356-65.1820356 0-35.9625024 29.2195332-65.1820356 65.1820356-65.1820356 35.9625024 0 65.1820356 29.2195332 65.1820356 65.1820356zm-65.1820356-25.7231788c-14.2351572 0-25.7231788 11.6128914-25.7231788 25.9729184s11.4880216 25.9729184 25.7231788 25.9729184 25.7231788-11.6128914 25.7231788-25.9729184-11.4880216-25.9729184-25.7231788-25.9729184z"/>
  <path fill="#181818" d="M612.7423106 480.8168158c0-32.7158876 26.4723976-59.1882852 59.1882852-59.1882852s59.1882852 26.4723976 59.1882852 59.1882852-26.4723976 59.1882852-59.1882852 59.1882852-59.1882852-26.4723976-59.1882852-59.1882852zm59.1882852 25.7231788c14.2351572 0 25.7231788-11.4880216 25.7231788-25.7231788s-11.4880216-25.7231788-25.7231788-25.7231788-25.7231788 11.4880216-25.7231788 25.7231788 11.4880216 25.7231788 25.7231788 25.7231788z"/>
  <g transform="matrix(1.248698,0,0,1.248698,500.7341,309.62032)">
    <path fill="#dedfde" d="M316.5 266.9V83.2c11.9-5.4 26.4-8.6 41.9-8.6 15.6 0 30 3.2 41.9 8.6V267c-11.9 4.6-26.4 7.2-42 7.2-15.4 0-29.9-2.7-41.8-7.3"/>
    <ellipse cx="358.39999" cy="95" fill="#c1c3c2" ry="12.3" rx="13.4"/>
    <path fill="#56727d" d="M386.3 195.3h-55.7c-4.8 0-8.7-3.9-8.7-8.7v-43.7c0-4.8 3.9-8.7 8.7-8.7h55.7c4.8 0 8.7 3.9 8.7 8.7v43.7c-.1 4.8-4 8.7-8.7 8.7z"/>
    <path fill="#353360" d="M331.20001 184h7.0999999v10.7H331.20001z"/>
    <path fill="#353360" d="M330.89999 184h6.8000002v10.3H330.89999z"/>
    <path fill="#56727d" d="M331.20001 184.39999h6.4000001v9.1999998H331.20001z"/>
    <path fill="#353360" d="M331.60001 192.60001h2.0999999v.3H331.60001zm3.6 0h1.8v.3h-1.8zm-3.6-1.10001h2.0999999v.3H331.60001zm3.6 0h1.8v.3h-1.8zm-3.6-1h5.3000002v.3H331.60001zm3.6-1.5h1.8v.3h-1.8zm.29999-1.10001h1.4v.3h-1.4zm.70001-1h.7v.3h-.7z"/>
    <path fill="#56727d" stroke="#353360" stroke-miterlimit="10" d="M337.4 184.2h-7l-2.4 5.3h7z"/>
    <path fill="#353360" d="M331.60001 183.3h.7v1.8h-.7zm1.39999 0h.7v1.8h-.7zm1.39999 0h.7v1.8h-.7zm1.5 0h.7v1.8h-.7z"/>
    <path fill="#4a6787" d="M324.20001 136.89999h68.300003v45.400002H324.20001z"/>
    <g fill="#363264">
      <path d="M344.20001 171.10001h5.6999998v5.6999998H344.20001zm5.69998-5.70002h5.6999998v5.6999998H349.89999z"/>
      <path d="M349.89999 159.7h5.6999998v5.6999998H349.89999z"/>
      <path d="M344.20001 159.7h5.6999998v5.6999998H344.20001zm11.4 0h5.6999998v5.6999998H355.60001zm0-5.7h5.6999998v5.6999998H355.60001zm0-5.7h5.6999998v5.6999998H355.60001zm-5.70002 0h5.6999998v5.6999998H349.89999z"/>
      <path d="M344.20001 148.3h5.6999998v5.6999998H344.20001z"/>
      <path d="M344.20001 142.60001h5.6999998v5.6999998H344.20001zm0 11.39999h5.6999998v5.6999998H344.20001zM338.5 154h5.6999998v5.6999998H338.5zm-5.70001 5.7h5.6999998v5.6999998H332.79999zM367 171.10001h5.6999998v5.6999998H367zm-5.70001-5.70002h5.6999998v5.6999998H361.29999z"/>
      <path d="M361.29999 159.7h5.6999998v5.6999998H361.29999zm5.70001 0h5.6999998v5.6999998H367zm-5.70001-11.4h5.6999998v5.6999998H361.29999zm5.70001 0h5.6999998v5.6999998H367z"/>
      <path d="M367 142.60001h5.6999998v5.6999998H367zM367 154h5.6999998v5.6999998H367zm5.70001 0h5.6999998v5.6999998H372.70001zm5.69998 5.7h5.6999998v5.6999998H378.39999z"/>
    </g>
    <path fill="#2f3338" d="M357.5 204.6c-.2 0-.4 0-.5-.1-.1-.1-.3-.1-.4-.2v-.7c.1.2.3.3.4.4.2.1.3.1.5.1s.4-.1.5-.2c.1-.1.2-.3.2-.5s0-.3-.1-.4c-.1-.1-.2-.2-.3-.2-.1 0-.2-.1-.3-.1-.1 0-.2-.1-.3-.1-.1 0-.2-.1-.3-.1-.1-.1-.2-.1-.2-.2-.1-.1-.1-.2-.1-.3 0-.1-.1-.3-.1-.4 0-.3.1-.6.3-.8.2-.2.4-.3.7-.3.2 0 .3 0 .5.1.1 0 .3.1.4.2v.7c-.1-.1-.2-.2-.4-.3-.2-.1-.3-.1-.5-.1s-.3.1-.4.2c-.1.1-.2.3-.2.5s0 .3.1.4c.1.1.2.2.3.2.1 0 .2.1.3.1.1 0 .2.1.3.1.2.1.4.2.4.4.1.2.1.4.1.7 0 .2 0 .3-.1.5 0 .2-.1.3-.2.4l-.3.3c.1-.3-.1-.3-.3-.3zm3.2-.1H359v-4.1h.4v3.7h1.3v.4zm.3 0v-4.1h1.8v.5h-1.5v1.1h1.4v.5h-1.4v1.5h1.5v.5H361zm2.3 0v-4.1h1.8v.5h-1.5v1.1h1.4v.5h-1.4v1.5h1.5v.5h-1.8zm4.1-2.9c0 .2 0 .4-.1.5 0 .2-.1.3-.2.4-.1.1-.2.2-.4.3-.1.1-.3.1-.5.1h-.2v1.5h-.4v-4.1h.7c.2 0 .3 0 .4.1.1 0 .2.1.3.2.1.1.2.2.3.4.1.2.1.4.1.6zm-.4 0c0-.1 0-.3-.1-.4-.1-.1-.1-.2-.2-.3-.1-.1-.1-.1-.2-.1h-.5v1.7h.3c.2 0 .3 0 .4-.1.1 0 .2-.1.2-.2.1-.1.1-.2.1-.3v-.3zm11.1 2.9h-.4v-3.6l-.8 2.4h-.2l-.8-2.4v3.6h-.4v-4.1h.5l.7 2.3.7-2.3h.5v4.1zm2.7-3.6c.1.2.2.4.3.7.1.3.1.6.1.9 0 .3 0 .6-.1.9-.1.3-.1.5-.3.7-.1.2-.3.3-.4.4-.2.1-.3.1-.5.1s-.4 0-.5-.1c-.2-.1-.3-.2-.4-.4-.1-.2-.2-.4-.3-.7-.1-.3-.1-.6-.1-.9 0-.3 0-.7.1-.9.1-.3.1-.5.3-.7.1-.2.3-.3.4-.4.2-.1.3-.1.5-.1s.4 0 .5.1c.2 0 .3.2.4.4zm0 1.5c0-.3 0-.5-.1-.7 0-.2-.1-.4-.2-.5-.1-.1-.2-.3-.3-.3-.1-.1-.2-.1-.4-.1-.1 0-.3 0-.4.1l-.3.3c-.1.1-.1.3-.2.5 0 .2-.1.5-.1.7 0 .5.1 1 .2 1.2.2.3.4.4.7.4.3 0 .5-.1.7-.4.3-.2.4-.6.4-1.2zm3.1.1c0 .4-.1.7-.2 1-.1.3-.3.5-.4.7-.1.1-.3.2-.5.3-.2 0-.4.1-.6.1h-.7v-4.1h.7c.3 0 .5 0 .7.1.2.1.3.1.4.2.2.2.3.4.4.7.2.2.2.5.2 1zm-.4-.1c0-.3 0-.6-.1-.8-.1-.2-.2-.4-.3-.5-.1-.1-.2-.2-.3-.2-.1 0-.3-.1-.4-.1h-.4v3.2h.3c.2 0 .3 0 .5-.1.1 0 .3-.1.4-.2.1-.1.2-.3.3-.5v-.8zm.9 2.1v-4.1h1.8v.5h-1.5v1.1h1.4v.5h-1.4v1.5h1.5v.5h-1.8zm-16.2 47l1.7-4.9h.8l1.7 4.9h-.7l-.4-1.4h-1.9l-.4 1.4h-.8zm2.8-2l-.8-2.3-.8 2.3h1.6zm24.6-3.6c0 .2 0 .5-.1.6-.1.2-.2.3-.4.5l-.6.3c-.2.1-.5.1-.8.1h-1.4v-4.9h2.1c.2 0 .3.1.5.2s.3.2.4.4c.1.2.1.3.1.5s-.1.4-.2.6c-.1.2-.3.3-.5.4.3.1.5.2.7.4.2.2.2.6.2.9zm-.9-2.2c0-.1 0-.2-.1-.3 0-.1-.1-.2-.2-.2-.1-.1-.2-.1-.4-.1h-1.1v1.4h1.2c.1 0 .2-.1.3-.1.1-.1.2-.1.2-.3 0-.1.1-.2.1-.4zm.2 2.3c0-.2 0-.3-.1-.5l-.3-.3c-.1-.1-.2-.1-.3-.1H393v1.8h1.2c.2 0 .3-.1.4-.2l.3-.3v-.4z"/>
    <path fill="#a7a8a8" d="M398.3 134.2h-79.8c10.2-1.3 24.3-2.1 39.9-2.1 15.6 0 29.7.8 39.9 2.1zm0 61.1h-79.8c10.2 1.3 24.3 2.1 39.9 2.1 15.6 0 29.7-.8 39.9-2.1z"/>
    <circle cx="370.79999" cy="234.89999" r="8.3999996" fill="#c1c3c2"/>
    <circle cx="370.79999" cy="234.89999" r="7.0999999" fill="#646fa4"/>
    <circle cx="362.39999" cy="215.7" r="5.3000002" fill="#c1c3c2"/>
    <circle cx="362.39999" cy="215.7" r="4.0999999" fill="#646fa4"/>
    <path fill="#c1c3c2" d="M386.8 221h-7c-3 0-5.3-2.4-5.3-5.3 0-3 2.4-5.3 5.3-5.3h7"/>
    <circle cx="379.79999" cy="215.7" r="4.0999999" fill="#646fa4"/>
    <path fill="#a7a8a8" d="M315.10001 84.300003h1.5v180.7h-1.5z"/>
    <path fill="#a7a8a8" d="M400.3 104v1.1h.1c-11.9-6.1-26.4-9.9-41.9-9.9-15.6 0-30 3.8-41.9 9.9V104c11.9-6.1 26.4-9.9 41.9-9.9s30 3.8 41.8 9.9m-98.69999 0h13.5v1.1h-13.5z"/>
    <path fill="#dedfde" d="M301.3 104h13.8V86.1c0-1.6-1.3-2.9-2.9-2.9-6 0-10.9 4.9-10.9 10.9v9.9zm3.5 158l10.2 3.6V105.1h-13.8v153.3c.1 1.9 1.6 2.9 3.6 3.6z"/>
    <path fill="#dedfde" d="M301.3 234.9v16.9c-1.1 0-2-3.8-2-8.5 0-4.6.9-8.4 2-8.4z"/>
    <path fill="#a7a8a8" d="M400.29999 84.300003h1.5v180.7h-1.5zm1.5 19.699997h13.5v1.1h-13.5z"/>
    <path fill="#dedfde" d="M415.6 104h-13.8V86.1c0-1.6 1.3-2.9 2.9-2.9 6 0 10.9 4.9 10.9 10.9v9.9zM412 261.9l-10.2 3.6V105h13.8v153.3c0 2-1.6 3-3.6 3.6zm3.6-27.1v16.9c1.1 0 2-3.8 2-8.5-.1-4.6-.9-8.4-2-8.4z"/>
    <circle cx="394.70001" cy="229.7" r="8.3999996" fill="#c1c3c2"/>
    <circle cx="394.70001" cy="229.7" r="7.0999999" fill="#646fa4"/>
    <path fill="#c1c3c2" d="M315.7 224.5c0 10.3 7.2 18.6 17.3 18.6 10.1 0 19.1-10.9 19.1-21.2 0-10.3-5.7-15.9-15.8-15.9-10.1 0-20.6 8.3-20.6 18.5z"/>
    <circle cx="332.10001" cy="226.7" r="16.4" fill="#a7a8a8"/>
    <circle cx="331.70001" cy="226.7" r="15.3" fill="#646fa4"/>
    <g fill="none" stroke="#a7a8a8" stroke-miterlimit="10">
      <circle cx="331.70001" cy="226.7" r="1.2"/>
      <path d="M326.1 212.5v4.9c0 1.9-1.6 3.5-3.5 3.5h-5m-.1 11.5h4.9c1.9 0 3.5 1.6 3.5 3.5v5m11.5 0V236c0-1.9 1.6-3.5 3.5-3.5h5m.1-11.5h-4.9c-1.9 0-3.5-1.6-3.5-3.5v-5"/>
    </g>
    <path fill="#2f3338" d="M359.5 118.9c.3-.1.5-.2.7-.3.2-.1.4-.1.6-.2.3-.1.4-.1.7-.1.3 0 .6.1.8.1.2.1.3.3.4.4.1.1.1.2.1.4v.2c0 .1-.1.1-.1.2-.1.1-.1.2-.2.2l-.2.2c-.1.1-.2.1-.3.1-.1.1-.3 0-.4.1-.5.1-.9.1-1.1.2-.2.1-.4.1-.5.2-.2.1-.3.2-.4.3-.2.1-.2.2-.3.4-.1.1-.2.3-.2.4 0 .2-.1.4-.1.5 0 .3 0 .6.2.8.1.3.4.5.7.6.3.1.6.3 1.1.3h.5c.2 0 .3-.1.6-.1.1-.1.3-.2.5-.4l.3-.3v.6h1.1c-.1-.5-.2-.5-.1-.8 0-.6-.1-1.8 0-2.4v-.8c0-.2-.1-.6-.2-.8-.1-.2-.2-.3-.3-.6-.2-.2-.5-.4-.8-.5-.3-.1-.5-.1-.8-.1h-1.1c-.3.1-.6.1-1 .3-.2.4-.2.7-.2.9zm2.8 4s-.2.1-.3.2c-.2.1-.3.1-.5.2h-.5c-.3 0-.5-.1-.6-.2-.2-.1-.2-.1-.3-.2-.1-.1-.3-.4-.3-.6v-.4c0-.1.1-.2.2-.3.1-.1.2-.2.4-.3.2-.1.3-.1.5-.2.1-.1.3-.1.6-.1.1 0 .5 0 .6-.1.1 0 .2 0 .3-.1.1 0 .2-.1.2-.1s.1-.1.3-.2v1.2s0 .5-.2.8l-.4.4zm17.8-4.1c.3-.1.5-.2.6-.3.2-.1.4-.1.6-.1.3 0 .5-.1.7-.1.3 0 .6.1.8.2.2.1.3.3.5.4.1.1.1.2.2.5v.2c0 .1-.1.1-.1.1-.1.1-.1.2-.2.2s-.1.1-.2.2c-.1 0-.2.1-.3.1-.1.1-.3 0-.4.1-.5.1-.9.1-1.1.2-.2.1-.4.1-.6.2-.2.1-.3.2-.4.3-.2.1-.2.2-.3.3-.1.1-.1.3-.2.4 0 .2-.1.4-.1.5 0 .3.1.6.2.8.1.3.4.5.7.6.3.1.7.3 1.2.3h.5c.2 0 .3-.1.6-.1.1-.1.3-.2.5-.4l.3-.3v.6h1.1c-.1-.5-.1-.5-.1-.8v-3.2c0-.2-.1-.6-.2-.8-.1-.2-.2-.4-.4-.6-.1-.2-.5-.4-.8-.5-.3-.1-.5-.1-.8-.1-.3 0-.8 0-1.1.1-.3.1-.6.1-1 .2-.2.4-.1.6-.2.8zm2.8 4.1c-.1 0-.2.2-.3.2-.2 0-.3.1-.4.2h-.5c-.3 0-.5-.1-.6-.2-.2-.1-.2 0-.3-.2-.1-.2-.3-.4-.3-.6v-.4c0-.1.1-.2.2-.3.1-.1.2-.2.4-.3.1-.1.3-.1.5-.2.1 0 .3-.1.6-.1.1 0 .5 0 .6-.1.1 0 .2 0 .3-.1.1 0 .2-.1.3-.1l.2-.2v1.2s0 .5-.2.8c-.3.2-.5.4-.5.4zm-18.1.9l.1-.4v-1.2l-.1-3.4c0-.3-.2-.7-.2-.8.2 0 .6-.1.7-.1h.4v.8c.1-.2.3-.3.4-.4.1-.1.2-.1.4-.3.2-.1.3-.1.5-.2h.7c.2 0 .3 0 .5.1.2 0 .3.1.4.2.1.1.3.2.3.2l.3.3c0 .1.3-.3.6-.5s.7-.3 1.1-.3c.3 0 .8 0 1.1.1.3.1.6.2.8.4.2.2.2.3.3.4.2.2.2.6.2.8v3.7c0 .3.1.3.1.6h-1.2c.1-.5.1-.3.1-.6v-3.3c0-.2-.1-.5-.1-.6-.1-.1-.3-.4-.4-.5-.1-.1-.3-.1-.4-.2-.1-.1-.4-.1-.6-.1-.1 0-.3 0-.5.1-.1 0-.2.1-.3.1-.1.1-.2.1-.3.2-.1.1-.2.2-.2.4-.1.1-.1.4-.1.6v3.4l.2.6h-1.2c0-.5.1-.1.1-.6v-3.5c0-.2 0-.3-.1-.4 0-.1-.1-.3-.2-.4-.1-.1-.3-.3-.5-.4-.1-.1-.3-.1-.5-.1s-.3 0-.5.1-.3.1-.4.3l-.3.3c-.1.2-.2.2-.2.5-.1.3-.1 1.5-.1 2.3v1.3c0 .3.1.4.1.6h-.6c.1-.1-.2-.1-.4-.1zm14.3-1.1v.4c0 .2-.1.3-.1.5-.3.1-.5.2-.8.2h-1.1c-.4 0-.8-.1-1.2-.2-.3-.1-.8-.4-1-.6-.3-.3-.6-.5-.7-.9-.1-.4-.2-.8-.2-1.2 0-.6.1-.8.2-1.3.2-.5.6-.9 1-1.2.4-.3 1.3-.6 2-.6.5 0 1.1.1 1.6.2 0 .4.1.6.1.8-.4-.1-.7-.3-.9-.3-.2 0-.5-.1-.7-.1-.3 0-1 .2-1.2.3-.3.1-.5.3-.6.6-.2.2-.3.6-.4.9-.1.3-.1.4-.1.7 0 .5.1.9.2 1.2.1.3.4.7.7.9.3.2.7.4 1.1.4.5-.2 1.3-.2 2.1-.7zm6.2.9l-.1-.4c0-.1-.1-.3-.2-.6.7.4 1.4.7 1.9.7.3 0 .5-.1.7-.2.2-.1.4-.2.5-.4.1-.1.2-.3.2-.4v-.3c0-.1-.1-.3-.1-.4l-.4-.4c-.1-.1-.4-.2-.8-.4-.4-.1-.8-.3-1-.5-.2-.1-.5-.3-.6-.5-.1-.2-.2-.3-.3-.5v-.6c0-.3.2-.5.3-.7.1-.3.4-.4.7-.5.3-.1.7-.2 1.1-.2.5 0 .9.1 1.4.2 0 .3-.1.5 0 .8-.4-.3-.8-.4-1.3-.4-.2 0-.5 0-.7.1-.2.1-.4.3-.5.4-.1.1-.1.2-.1.4 0 .1 0 .3.1.4 0 .1.3.3.4.4.2.1.1.1.3.1.2 0 .6.3 1 .4.4.2.8.5.9.6.1.1.3.3.4.6.1.2.1.3.1.5s-.1.3-.1.4c0 .3 0 .4-.2.6-.1.3-.4.5-.8.6-.3.1-.7.2-1.1.2h-.8c-.2 0-.4-.1-.6-.1 0 .2-.1.2-.3.1zm7.3-.5c0 .2-.1.3-.1.6-.3.1-.4.1-.5.1h-.4c-.3 0-.6 0-.8-.1-.2-.1-.4-.2-.5-.4-.1-.2-.2-.7-.2-1.1v-3.7h-.7v-.5h.7v-1c0-.2-.1-.4-.2-.5.4-.1.9-.2 1.1-.3 0 .6.1 1.4.1 1.8h1.5v.6l-.4-.1h-1.1v3.6c0 .3 0 .7.1.8 0 .2.1.2.3.3.1.1.3.1.4.1h.3c.1-.1.2-.1.4-.2zm-38.3-3.2h3.2v-.3c0-.1-.1-.3-.2-.4-.1-.2-.2-.3-.3-.4-.1-.1-.3-.2-.4-.3-.2-.1-.4-.1-.6-.1-.2 0-.4.1-.6.1-.2.1-.4.2-.5.3-.2.1-.3.2-.4.4-.1.2-.2.3-.2.5v.2zm3.9 2.9c0 .2-.1.5-.1.9-.4.1-.9.3-1.2.4h-.8c-.5 0-.9-.1-1.3-.2s-.7-.4-1-.7c-.3-.3-.5-.6-.7-1-.1-.4-.2-.8-.2-1.2 0-.6.1-.8.3-1.4.2-.5.6-.9 1-1.2.4-.3.9-.4 1.6-.4.3 0 .7 0 1 .1.3.1.6.2.8.4.2.2.4.5.5.8.1.3.2.3.2.7v.6H354v.4c0 .4.1.9.3 1.2.2.4.4.6.7.8.3.2.7.4 1.1.4.6-.1 1.4-.3 2.1-.6zm-8.8 1.2c0-.1.1-.3.1-.4 0-1.9 0-3.4-.1-4.6v-.5l-.2-.4c.2 0 .4 0 .6-.1.1 0 .5-.1.6-.1v1.1c.1-.3.2-.2.3-.4l.4-.4c.1-.1.3-.2.4-.2.2 0 .3-.1.5-.1h.6c.4 0 .6.1.6.2 0 .2-.3.8-.3.8s-.3 0-.5-.1-.4-.1-.6-.1c-.2 0-.5.1-.6.1-.2.1-.3.2-.5.3-.1.2-.2.3-.3.6-.1.2-.1 0-.1.3v3.6l.1.3h-.6c.1 0-.2.1-.4.1zm-7.4-.7h1.3c.3 0 .7 0 1.1-.1.4-.1.6-.2.9-.3.3-.1.6-.3.8-.5.3-.3.5-.6.7-.9.1-.3.3-.7.3-1.1.1-.4.1-.8.1-1.2 0-.5-.2-.8-.3-1.2-.1-.4-.4-.9-.7-1.2-.4-.3-.6-.5-1-.6-.4-.1-.9-.3-1.5-.3-.4 0-.9 0-1.1.1-.3 0-.5.1-.8.1l.2 7.2zm-1.5.7l.2-.6v-7.2c0-.2-.1-.4-.2-.8h3.8c.6 0 .8.1 1.3.2.3.1 1 .4 1.3.6.3.2.6.4.8.8.2.3.3.4.5.8.2.5.3 1.1.3 1.6.1.7 0 1.3-.2 1.9-.2.7-.7 1.1-1.1 1.6-.4.5-.9.7-1.5.9-.6.1-1.2.3-1.9.3H342l-1.5-.1zm-8.6-2.8c0-.5-.2-.4-.4-.5-.2 0-.6.1-.9 0-.4-.1-.7-.7-.6-1 .2-.8.8-.9 1.1-.9.3 0 .8 0 1.5.6.3.3.5 1 .5 1.4 0 .5 0 1-.3 1.4-.5.5-1.7.9-2.4.9-2.7-.3-2.6-2.9-2.6-2.9s-.2-1.1.7-2.3c.1-.1.2-.3.3-.4.1-.1.2-.1.3-.2.1-.1.2-.1.3-.2.3-.2.6-.3.9-.4.5-.1.9-.2 1.3-.2 1.1 0 2.3.6 3 1.6l.3.3c.1.1.2.4.3.6.1.4.1.2.3.9.1.4.2.7.2 1v.4c0 .5.1.6 0 1-.2.6-.6 1.3-.9 1.6-.6.6-1.1.8-1.5.9-.3.2-.5.2-.9.3-.4.2-.6.2-1.4.2-.7 0-1.3 0-1.5-.1-1.3-.4-1.8-.6-2.3-1.1-1.5-1.1-1.8-3.4-1.8-3.4s-.2-1.1.1-2.3c.1-.6.8-1.8 1.2-2.3.3-.4 1-1 1.5-1.2.4-.3 1-.6 1.8-.8.3-.1.6-.2 1.4-.2.9 0 2.3.2 3 .4.8.3 1.6.8 2 1.2.4.4 1.3 1.7 1.4 2 .2.3.6 1.7.6 1.9 0 .2.1.8.7.8s.4-.7.4-.8c0-.1-.2-1.2-.3-1.5-.1-.3-.5-1.1-.6-1.2 0-.1-.5-.8-.8-1.3-.3-.4-.6-.8-.9-1-.6-.4-1.4-.7-1.4-.7s-1.3-.5-2-.5c-.6-.1-1.2-.2-2.3-.1-1.1.1-1.7.4-2 .5-.4.2-1.3.6-1.9 1.1-.7.5-.5.3-.8.7-.3.4-.5.5-.7.8-.2.3-.8 1.4-.9 2-.1.3-.2.7-.3 1.1 0 .3-.1.7 0 1 .1.6 0 .6 0 .6s.3 1.1.4 1.6c.2.4.4 1.1 1.3 2.1s1.8 1.3 2.1 1.4c.3.1 1.4.5 2.9.5 1.7 0 2.1-.3 2.4-.5.3-.1 1.3-.6 2.1-1.3.8-.7 1.1-1.6 1.1-1.7.2-.6.3-1.7.1-2.7-.1-.7-.3-1.3-.4-1.7-.2-.7-.5-1.1-.7-1.4-.2-.3-.8-.8-1.2-1-.2-.1-.3-.2-.6-.3-.2-.1-.6-.2-.9-.3-.3-.1-.8-.2-1.2-.2h-.7c-.2 0-.7.1-1.5.5-.4.2-.9.5-1.4 1-.2.2-.3.4-.4.5-1.1 1.6-.7 3.3-.7 3.3s.2 2.3 2.3 3c.7.2 1.4.2 1.9.2.9-.1 1.6-.5 2-.7.5-.2.8-.6 1-1 .2-.4.2-.8.2-1.1 0-.2 0-.5-.1-.7-.1-.7-.4-1.3-.9-1.8l-.2-.1c-.1-.1-.2-.1-.3-.2-.5-.3-1-.4-1.7-.4-.3 0-.6.1-.8.2-.8.4-1.3 1.1-1.2 2.1 0 .9.9 1.4 1 1.5-.5-.1 1.4.4 1.4-.5z"/>
  </g>
  <path fill="#a7a8a8" d="M420.0468 141.44154533l-63.3 133.3-2.1-3 61.5-130.6c1.6 0 2.9.1 3.9.3m-413.1879 130.2825l-2.1 3-63.3-133.3c1-.2 2.2-.3 3.9-.3l61.5 130.6z"/>
  <path fill="#e4e5e4" d="M416.1111 141.20004533l-61.5 130.5c-38.4-54.7-102-90.4-173.9-90.4s-135.4 35.7-173.9 90.4l-61.6-130.6h467.6c1.3 0 2.3 0 3.3.1"/>
  <path fill="#dedfde" d="M423.4 151.64404533v380.7s-.3 98.9-6.7 106.3c-3.1 3.6-58.5 8.6-114.9 10.9-60 2.6-121.1 2.5-121.1 2.5s-61.1.1-121.1-2.5c-56.4-2.4-111.8-7.3-114.9-10.9-6.4-7.5-6.7-106.3-6.7-106.3v-380.7c0-7.1 0-9.4 3.3-10.1l63.3 133.3 2.1-3c38.5-54.7 102-90.4 173.9-90.4s135.4 35.7 173.9 90.4l2.1 3 63.3-133.3c3.5.7 3.5 2.9 3.5 10.1"/>
  <path fill="#e4e5e4" d="M346.424 394.08124533c0 91.6-74.2 165.8-165.7 165.8-91.5 0-165.7-74.3-165.7-165.8 0-25.7 5.9-50.1 16.3-71.8 26.7-55.6 83.6-94 149.4-94 66.1 0 123.3 38.8 149.8 94.9 10.2 21.5 15.9 45.5 15.9 70.9"/>
  <path fill="#a7a8a8" d="M393.1968 394.08124533c0 117.5-95.1 212.7-212.5 212.7s-212.5-95.2-212.5-212.7c0-44.2 13.5-85.3 36.5-119.3l2.1-3 1.8 3.7c-23.2 33.7-36.8 74.5-36.8 118.6 0 115.5 93.6 209.2 209 209.2s208.9-93.6 208.9-209.2c0-44-13.6-84.9-36.8-118.6l1.8-3.7 2.1 3c23 34 36.4 75.1 36.4 119.3"/>
  <path fill="#a7a8a8" d="M354.5882 271.72404533l-1.8 3.7c-37.7-54.7-100.7-90.6-172.1-90.6-71.4 0-134.4 35.8-172.1 90.5l-1.8-3.7c38.5-54.7 102-90.4 173.9-90.4s135.5 35.8 173.9 90.5"/>
  <path fill="#d65725" d="M163.6196 606.14564533l17.1 36.9 17.1-36.9"/>
  <path fill="#a7a8a8" d="M-30.1145 599.21754533c-9.5-25.1-7.8-35 3.7-42.1 17-10.5 44.4 18.1 47.6 33.3 3.4 16.6-5.3 31.6-18.7 33.9-13.4 2.4-27.1-10.6-32.6-25.1"/>
  <path fill="#bbb" d="M-26.825 600.88914533c-2.8-15.3 5.8-29.5 19.2-31.8 13.4-2.3 26.5 8.2 29.3 23.5 2.8 15.3-5.9 29.5-19.3 31.8-13.3 2.3-26.4-8.2-29.2-23.5"/>
  <path fill="#c1c3c2" d="M-19.7573 599.66844533c-2-10.8 4.1-20.9 13.6-22.5 9.5-1.6 18.7 5.8 20.7 16.6s-4.2 20.9-13.7 22.5c-9.3 1.7-18.6-5.8-20.6-16.6"/>
  <path fill="#e4e5e4" d="M330.509 323.19874533c-26.5-56.2-83.7-95-149.8-95-65.8 0-122.7 38.4-149.4 94l-22.7-46.8c37.7-54.7 100.7-90.5 172.1-90.5 71.4 0 134.4 35.9 172.1 90.6l-22.3 47.7z"/>
  <path fill="#a7a8a8" d="M391.5685 599.21754533c9.5-25.1 7.8-35-3.8-42.1-16.9-10.5-44.3 18.1-47.5 33.3-3.4 16.6 5.3 31.6 18.7 33.9 13.4 2.4 27.1-10.6 32.6-25.1"/>
  <path fill="#bbb" d="M388.179 600.88914533c2.8-15.3-5.8-29.5-19.2-31.8-13.4-2.3-26.5 8.2-29.3 23.5-2.8 15.3 5.9 29.5 19.3 31.8 13.4 2.3 26.5-8.2 29.2-23.5"/>
  <path fill="#c1c3c2" d="M360.4457 616.28294533c-9.5-1.6-15.6-11.7-13.7-22.5 2-10.8 11.3-18.2 20.7-16.6 9.5 1.7 15.6 11.7 13.6 22.5-1.9 10.8-11.2 18.2-20.6 16.6m-395.5779-123.4547c0-2.8 2.3-5 5-5 2.8 0 5 2.3 5 5 0 2.8-2.3 5-5 5-2.8.1-5-2.2-5-5m-20.178-95.4433c0-2.8 2.3-5 5-5 2.8 0 5 2.2 5 5s-2.3 5-5 5c-2.7.1-5-2.2-5-5m5.0177 48.642c0-2.8 2.3-5 5-5 2.8 0 5 2.2 5 5s-2.3 5-5 5-5-2.3-5-5m15.1603-144.0474c0 2.8 2.3 5 5 5 2.8 0 5-2.3 5-5 0-2.8-2.3-5-5-5-2.8-.1-5 2.2-5 5m-15.1603 46.8703c0 2.8 2.3 5 5 5 2.8 0 5-2.3 5-5 0-2.8-2.3-5-5-5s-5 2.2-5 5m446.8787 143.9784c0-2.8-2.3-5-5-5-2.8 0-5 2.3-5 5 0 2.8 2.3 5 5 5 2.8.1 5-2.2 5-5m20.0763-95.4433c0-2.8-2.3-5-5-5-2.8 0-5 2.2-5 5s2.3 5 5 5c2.8.1 5-2.2 5-5m-5.0212 48.642c0-2.8-2.3-5-5-5-2.8 0-5 2.2-5 5s2.3 5 5 5c2.8 0 5-2.3 5-5m-15.0551-144.0474c0 2.8-2.3 5-5 5-2.8 0-5-2.3-5-5 0-2.8 2.3-5 5-5 2.8-.1 5 2.2 5 5m15.0551 46.8703c0 2.8-2.3 5-5 5-2.8 0-5-2.3-5-5 0-2.8 2.3-5 5-5 2.8 0 5 2.2 5 5"/>
  <path fill="#dedfde" d="M236.0862 350.57204533v14.3c0 3.2-2.6 5.8-5.8 5.8h-93.7c-3.2 0-5.8-2.6-5.8-5.8v-14.3c0-3.2 2.6-5.8 5.8-5.8h11.4c2.9 0 5.2-2.3 5.2-5.2v-13.5c0-16.9 13-31.5 29.9-32.2 18-.8 32.9 13.5 32.9 31.4v14.4c0 2.9 2.3 5.2 5.2 5.2h9.1c3.2-.1 5.8 2.5 5.8 5.7"/>
  <path d="M175.7092 362.38414533c-.1 0-.3.3-.4.3-.3.1-.6.2-.8.3-.3 0-.6.1-.8.1-.4 0-.8-.1-1-.3-.3-.2-.3-.1-.5-.4-.2-.3-.5-.7-.5-1v-.7c0-.2.1-.3.3-.5.2-.2.3-.4.6-.6.3-.1.5-.2.9-.3.2-.1.5-.1 1-.2.3 0 .8 0 .9-.1.2 0 .3 0 .5-.1.1-.1.3-.1.4-.2.1-.1.2-.1.4-.3v2s0 .9-.3 1.3c-.4.5-.7.7-.7.7m-4.6-6.8c.5-.2.8-.3 1.1-.5.3-.1.6-.2 1.1-.3.4-.1.7-.1 1.2-.1.4 0 .9.2 1.3.3.3.1.6.4.7.7.2.2.3.3.3.7v.3c0 .1-.1.2-.2.3-.1.1-.2.3-.3.3l-.3.3c-.2.1-.3.1-.5.2s-.4 0-.7.1c-.9.1-1.5.2-1.9.3-.4.1-.6.2-.9.3-.3.1-.4.3-.7.5-.3.2-.3.4-.5.6-.1.2-.3.4-.3.7 0 .3-.1.6-.1.9 0 .5.1.9.3 1.4.2.4.6.8 1.1 1 .5.2 1.1.5 1.9.5h.8c.3 0 .5-.1 1-.2.2-.2.5-.3.8-.6l.5-.5v1.1h1.9c-.2-.8-.3-.9-.2-1.4 0-.9-.1-3 0-4.1v-1.3c0-.4-.2-1-.3-1.4-.1-.3-.3-.6-.6-.9-.3-.3-.9-.7-1.3-.9-.5-.1-.9-.2-1.4-.2-.5 0-1.3 0-1.8.1s-.9.2-1.7.4c-.3.7-.3 1.1-.3 1.4m39.4281 6.7034c-.1 0-.3.3-.5.3-.3.1-.5.2-.7.3-.3 0-.6.1-.8.1-.4 0-.8-.1-1.1-.3-.3-.2-.3-.1-.5-.4-.2-.3-.5-.7-.5-1v-.7c.1-.2.1-.3.3-.5.2-.2.3-.4.6-.6.2-.1.5-.2.9-.3.2-.1.5-.1 1-.2.2 0 .8 0 .9-.1.1 0 .3-.1.4-.1.2-.1.3-.1.4-.2.1-.1.2-.1.4-.3v2s0 .8-.3 1.3c-.2.5-.5.7-.5.7m-4.6-6.8c.4-.2.8-.3 1.1-.5.3-.1.7-.2 1.1-.3.4-.1.8-.1 1.2-.1.4 0 1 .2 1.3.3.3.1.6.4.8.7.2.2.2.4.3.8v.3c0 .1-.1.1-.2.2s-.2.3-.3.3c-.1.1-.2.2-.4.3-.1.1-.3.1-.5.2s-.4 0-.7.1c-.9.1-1.6.2-1.9.3-.4.1-.6.2-.9.3-.3.1-.4.3-.7.5-.3.2-.3.3-.5.6-.1.2-.2.5-.3.7-.1.3-.2.6-.2.9 0 .5.1.9.3 1.4.3.4.6.8 1.1 1 .5.2 1.1.5 2 .5h.8c.3 0 .6-.1 1-.2.2-.2.6-.3.9-.6l.5-.5v1.1h1.9c-.2-.8-.3-.9-.3-1.4v-5.4c0-.4-.2-1-.3-1.4-.1-.3-.3-.6-.6-.9-.2-.3-.8-.7-1.3-.9-.5-.1-.8-.2-1.4-.2-.5 0-1.3.1-1.8.1-.6.1-.9.2-1.7.4-.3.6-.3 1.1-.3 1.4m-25.922 8.4043l.2-.7v-2l-.1-5.7c0-.5-.3-1.1-.3-1.4.3 0 .9-.1 1.2-.2.2-.1.5-.1.7-.1v1.3c.2-.4.6-.4.7-.6.1-.2.3-.2.6-.4s.4-.2.8-.3c.4 0 .7-.1 1.1-.1.3 0 .5 0 .8.1.3 0 .5.2.7.3.2.1.4.3.6.4.2.2.3.3.5.6 0 .1.4-.5 1-.8.6-.3 1.2-.6 1.9-.6.4 0 1.4 0 1.8.2.4.2 1 .4 1.3.7.3.3.3.4.6.7.3.3.4 1.1.4 1.4v6.2c0 .5.1.5.2 1h-2c.3-.8.2-.6.2-1v-5.7c0-.4-.1-.9-.2-1.1-.1-.2-.5-.6-.6-.8-.2-.2-.4-.2-.7-.3-.2-.1-.6-.1-.9-.1-.2 0-.6 0-.8.1-.2.1-.4.1-.6.3-.2.1-.3.2-.5.4-.1.2-.3.4-.4.6-.1.2-.1.6-.1 1v5.8l.3.9h-2.1c0-.9.1-.1.1-1v-5.9c0-.3-.1-.5-.1-.7-.1-.2-.2-.6-.4-.7-.2-.2-.6-.6-.8-.6-.2-.1-.6-.2-.9-.2-.3 0-.5 0-.8.2-.3.1-.5.2-.7.4-.2.2-.4.3-.6.6-.1.3-.3.3-.3.8-.1.5-.1 2.6-.1 3.9v2.2c0 .4.2.6.2 1h-1c0-.1-.5-.1-.9-.1m24.1463-1.8338c0 .1 0 .3-.1.6 0 .3-.1.6-.2.9-.4.1-.9.3-1.3.3s-1.5.1-1.8.1c-.6 0-1.4-.1-2-.3-.6-.2-1.3-.6-1.7-1.1-.4-.4-.9-.9-1.2-1.6-.2-.7-.4-1.3-.4-2 0-1 .1-1.4.4-2.3.3-.9 1-1.6 1.7-2.1s2.2-.9 3.4-.9c.9 0 1.9.1 2.7.4 0 .6.1.9.1 1.3-.6-.2-1.2-.5-1.5-.6-.4 0-.9-.1-1.1-.1-.6 0-1.7.3-2.1.5-.4.2-.8.5-1.1.9-.3.4-.5.9-.6 1.5-.1.6-.2.6-.1 1.2 0 .8.2 1.4.4 2 .3.6.6 1.1 1.2 1.4.5.3 1.1.6 1.8.6.7.2 2.1.1 3.5-.7m10.3751 1.4422l-.2-.7c0-.1-.2-.5-.3-1 1.1.6 2.3 1.1 3.2 1.1.4 0 .9-.2 1.2-.3.3-.1.6-.3.8-.6.1-.2.3-.5.3-.7 0-.1.1-.3 0-.5 0-.1-.1-.5-.2-.6l-.6-.6c-.2-.1-.6-.4-1.3-.6-.6-.3-1.4-.5-1.7-.8-.3-.2-.8-.5-1-.8-.2-.3-.3-.5-.5-.8-.1-.3 0-.6 0-.9 0-.4.3-.9.5-1.2.3-.4.7-.6 1.2-.9.5-.2 1.1-.3 1.8-.3.8 0 1.5.2 2.4.3 0 .5-.1.9 0 1.3-.6-.4-1.4-.7-2.1-.7-.4 0-.8.1-1.1.2-.3.1-.7.4-.9.6-.1.2-.2.4-.2.6 0 .2 0 .4.1.6 0 .1.4.6.6.6.3.1.2.1.4.2.3 0 1 .4 1.7.7.7.3 1.4.8 1.6 1 .2.2.5.5.6 1 .1.3.2.6.2.8 0 .4-.1.4-.1.7 0 .5-.1.6-.3 1-.3.4-.7.8-1.3 1-.6.2-1.1.4-1.8.4h-1.3c-.4 0-.7-.2-1-.2-.1.3-.3.3-.7.1m12.4462-.8177c-.1.3-.2.5-.2 1.1-.4.1-.6.2-.9.2h-.7c-.6 0-1 0-1.3-.2-.3-.2-.6-.4-.8-.7-.2-.3-.3-1.2-.3-1.8v-6.3h-1.2v-.9h1.2v-1.7c0-.3-.2-.6-.3-.8.6-.1 1.4-.4 1.8-.5 0 1 .1 2.4.1 3h2.6v1l-.7-.1h-1.9v6.1c0 .5.1 1.1.2 1.4.1.3.3.3.5.5.2.1.4.1.6.1h.5c.2-.2.3-.3.8-.4m-58.0232-.5624c0 .4-.2.8-.2 1.4-.6.2-1.5.5-2 .6h-1.3c-.8 0-1.5-.2-2.2-.4-.6-.2-1.2-.6-1.7-1.1-.5-.5-.9-1.1-1.1-1.7-.2-.7-.3-1.3-.3-2 0-1 .1-1.4.4-2.3.3-.9 1-1.5 1.7-2s1.5-.7 2.6-.7c.6 0 1.2 0 1.7.2s.9.4 1.3.7c.3.4.6.8.9 1.3.2.6.3.6.3 1.2.1.3.1.8.1 1h-7.3v.7c0 .7.1 1.4.4 2 .3.6.7 1 1.2 1.3.6.3 1.2.6 1.9.6 1 .1 2.4-.2 3.6-.8m-6.7-4.8h5.3v-.6c0-.2-.1-.4-.3-.7-.1-.3-.3-.4-.6-.6-.2-.2-.4-.3-.7-.5-.3-.1-.7-.1-1-.1-.3 0-.6.1-.9.2-.3.1-.6.3-.8.5-.3.2-.4.4-.6.6-.2.3-.3.5-.3.8v.1c-.1 0-.1 0-.1.3m-8.2207 6.8667c0-.2.2-.5.2-.6 0-3.2 0-5.7-.1-7.7v-.9l-.3-.7c.3 0 .7-.1.9-.1.2 0 .8-.1 1-.1v1.8c.2-.4.3-.4.4-.6.1-.2.4-.5.6-.6.2-.1.4-.3.7-.4.3-.1.5-.2.8-.2h1.1c.6.1.9.2 1.1.3 0 .3-.4 1.4-.4 1.4s-.5 0-.9-.2c-.4-.1-.6-.1-.9-.1-.3 0-.8.1-1.1.2-.3.1-.6.3-.8.6-.2.3-.3.6-.5.9-.1.3-.1 0-.1.5v6.1l.2.6h-1c-.1-.3-.6-.2-.9-.2m-15.0206.069l.3-1v-12.1c0-.4-.2-.7-.4-1.4h6.4c1.1.1 1.4.1 2.1.3.6.1 1.6.7 2.1 1.1.5.3 1 .7 1.4 1.3.4.6.6.7.8 1.4.3.9.6 1.8.6 2.7.1 1.2 0 2.1-.4 3.2s-1.1 1.9-1.9 2.6c-.7.8-1.5 1.2-2.5 1.4-.9.2-2 .4-3.2.4h-2.8l-2.5.1zm2.5-1.2h2.2c.6 0 1.2 0 1.8-.1.6-.1 1.1-.3 1.5-.5.5-.2.9-.4 1.4-.9.5-.4.8-.9 1.1-1.4.3-.6.5-1.1.6-1.8.1-.7.2-1.4.2-2 0-.8-.3-1.4-.5-2-.2-.7-.6-1.5-1.1-2-.6-.5-1-.8-1.7-1-.6-.2-1.5-.4-2.5-.4-.6 0-1.5 0-1.8.1-.4 0-.8.1-1.3.1l.1 11.9z"/>
  <path fill="#ee5507" d="M185.0503 329.08544533c0-1.7-.8-1.5-1.4-1.6-.6-.1-2 .2-3.3-.1-1.5-.3-2.3-2.4-2.1-3.4.8-2.9 2.7-3.3 4-3.2 1 0 2.9.1 5.3 2.2 1.1.9 1.7 3.4 1.7 4.8 0 1.7 0 3.7-1.1 4.8-1.7 1.8-6 3.3-8.5 3.2-9.7-1-9.3-10.1-9.3-10.1s-.8-3.9 2.5-8.1c.3-.3.7-1.1 1-1.5.3-.4.6-.5 1-.8.4-.3.8-.5 1.2-.8 1.1-.6 2.2-1.2 3.3-1.6 1.7-.5 3.3-.6 4.6-.6 4 .1 8.3 2.3 10.5 5.7.3.5.6.8.9 1.2.6.4.9 1.2 1.3 2.2.5 1.4.3.9.9 3.1.4 1.6.6 2.6.6 3.6 0 .5.1 1 .1 1.5 0 1.7.3 2.2-.1 3.5-.6 2.3-2 4.6-3.2 5.7-2.1 2.1-4.1 2.7-5.2 3.3-1.1.6-1.6.7-3.1 1.2-1.5.6-2.3.6-4.9.6-2.6 0-4.7-.2-5.4-.3-4.6-1.3-6.3-2.1-8.3-3.8-5.2-4.1-6.3-12.1-6.3-12.1s-.6-4.1.3-8.3c.5-2.3 2.8-6.4 4.1-8 1.1-1.4 3.7-3.4 5.2-4.4 1.5-1 3.7-2.3 6.2-3 1.2-.4 2.2-.6 5-.7 3.2-.1 8 .7 10.8 1.6 2.9.9 5.6 2.8 7 4.3 1.4 1.5 4.5 6.1 5 7 .6.9 2 5.9 2.2 6.6.1.6.4 2.9 2.6 2.8 2-.2 1.4-2.5 1.4-2.9-.1-.4-.8-4.3-1.1-5.4-.3-1.1-1.9-3.9-2.3-4.4-.2-.3-1.6-2.7-3-4.5-1.1-1.4-2.1-2.7-3.2-3.4-2.2-1.4-4.9-2.6-4.9-2.6s-4.7-1.6-7.2-1.9c-2.1-.3-4.4-.7-8.2-.5-3.8.3-5.9 1.3-7.3 1.8-1.4.6-4.5 2-6.9 3.9-2.3 1.9-1.6 1-2.9 2.4-1.2 1.4-1.6 1.8-2.5 3-.9 1.2-2.7 4.8-3.4 7.2-.3 1-.7 2.5-.9 3.9-.2 1.2-.2 2.4-.1 3.4.2 2.1.1 2.1.1 2.1s1 4 1.5 5.7c.6 1.6 1.3 3.9 4.6 7.6 3.3 3.6 6.3 4.6 7.5 5.1 1.1.4 5 1.8 10.1 1.9 5.9.1 7.5-1.2 8.5-1.6 1.1-.5 4.7-2 7.6-4.7 2.9-2.7 3.8-5.7 3.9-5.9.8-2.3 1.1-6 .3-9.5-.5-2.4-.9-4.5-1.4-6-.9-2.6-1.9-4-2.6-5.1-.7-1.1-2.8-2.7-4.1-3.5-.6-.4-1.2-.8-2.1-1.2-.9-.4-2-.6-3.3-.9-1.2-.3-2.9-.6-4.2-.7-1.2-.1-2.2 0-2.6 0-.6 0-2.6.3-5.4 1.8-1.5.8-3.2 1.8-5 3.6-.6.6-1.1 1.3-1.5 1.9-4 5.5-2.6 11.7-2.6 11.7s.7 8.3 8 10.7c2.6.8 4.9.9 6.8.6 3.2-.4 5.5-1.7 7.1-2.6 1.6-.8 2.8-2.2 3.4-3.7.6-1.4.8-2.8.7-4 0-.7 0-1.6-.2-2.6-.2-2.6-1-4.9-3.1-6.7l-.6-.4c-.4-.3-.7-.4-1-.6-1.8-.9-3.5-1.3-6-1.4-.9 0-2.2.2-2.9.6-2.9 1.4-4.5 4-4.3 7.3.1 3.1 3.1 4.8 3.6 5.3-.1 0 6.4 1.6 6.6-1.3"/>
  <path fill="#c1c3c2" d="M160.5617 599.47074533h40.3l21-45.4c-13.2 3.4-26.9 5.1-41.1 5.1-14.2 0-28-1.8-41.1-5.1l20.9 45.4"/>
  <path fill="#8c8c8c" d="M-17.5422 596.52354533c.2.1.4.1.7.1 1.1 0 1.8-.5 1.8-1.5 0-.9-.7-1.4-1.7-1.4-.4 0-.7 0-.9.1v2.7zm-.9-3.4c.4-.1 1-.1 1.7-.1.9 0 1.5.2 2 .6.4.3.6.8.6 1.5 0 .6-.2 1.1-.5 1.5-.5.5-1.3.8-2.1.8-.3 0-.5 0-.7-.1v2.8h-1v-7zm6.0449 3.4329c0 1.5.8 2.8 2.2 2.8 1.4 0 2.2-1.3 2.2-2.9 0-1.4-.7-2.9-2.2-2.9-1.4.1-2.2 1.5-2.2 3m5.5-.1c0 2.4-1.5 3.7-3.3 3.7-1.9 0-3.2-1.4-3.2-3.6s1.4-3.7 3.3-3.7c1.9.1 3.2 1.5 3.2 3.6m2.3098 3.6299l-1.8-7h1l.8 3.5c.2.9.4 1.7.5 2.4.1-.7.3-1.5.6-2.4l.9-3.5h.9l.9 3.6c.2.8.4 1.7.5 2.4.1-.8.3-1.5.6-2.4l.9-3.5h.9l-2 7h-.9l-.9-3.7c-.2-.9-.4-1.6-.5-2.3-.1.7-.3 1.4-.5 2.3l-1 3.7h-.9zm11.2317-3.3701h-2.7v2.5h3v.8h-3.9v-7h3.8v.8h-2.9v2.2h2.7v.7zm2.4155-.3505h.9c1 0 1.6-.5 1.6-1.3 0-.9-.7-1.3-1.6-1.3-.4 0-.7 0-.9.1v2.5zm-.9-3.2c.5-.1 1.1-.1 1.7-.1 1 0 1.6.2 2 .6.4.3.6.8.6 1.3 0 .9-.6 1.5-1.3 1.8.5.2.9.7 1 1.4.2 1 .4 1.7.5 1.9h-.9c-.1-.2-.3-.8-.5-1.7-.2-1-.6-1.3-1.4-1.4h-.9v3h-.9l.1-6.8zm344.3736 3.3874c0 1.6.9 3.1 2.5 3.1s2.5-1.5 2.5-3.2c0-1.5-.8-3.1-2.5-3.1s-2.5 1.5-2.5 3.2m6-.1c0 2.7-1.6 4.1-3.6 4.1s-3.5-1.6-3.5-3.9c0-2.4 1.5-4 3.6-4 2.1-.1 3.5 1.5 3.5 3.8m2.2137.0737c.2.1.5.1.8.1 1.2 0 1.9-.6 1.9-1.6s-.7-1.5-1.8-1.5c-.4 0-.8 0-.9.1v2.9zm-.9-3.7c.5-.1 1.1-.2 1.9-.2 1 0 1.7.2 2.2.6.4.4.7.9.7 1.6 0 .7-.2 1.2-.6 1.6-.5.6-1.4.8-2.4.8-.3 0-.6 0-.8-.1v3.1h-1v-7.4zm10.059 3.9722h-3v2.8h3.3v.8h-4.3v-7.7h4.2v.8h-3.2v2.4h3v.9zm1.6107 3.6107v-7.7h1.1l2.5 3.9c.6.9 1 1.7 1.4 2.5-.1-1-.1-2-.1-3.2v-3.2h.9v7.7h-1l-2.4-3.9c-.5-.9-1.1-1.7-1.4-2.6.1 1 .1 1.9.1 3.2v3.3h-1.1z"/>
</svg>
