<svg xmlns="http://www.w3.org/2000/svg" baseProfile="tiny" viewBox="-119 220 371.5 353.8">
  <path fill="#DEDFDE" d="M1.180585 326.00957c-.1 0-.4-.2-.9-.5s-1.3-.7-2.3-1.2c-.7-.3-1.4-.7-2.2-1.2-.3-.1-.6-.3-.9-.5-1.1-.6-2.3-1.2-3.7-1.9-.3-.1-.5-.3-.8-.4-.1-.1-.3-.1-.4-.2-.5-.3-1.1-.5-1.6-.8-.4-.2-.8-.4-1.3-.6-.6-.3-1.3-.6-2-1-.2-.1-.5-.2-.7-.3-1.1-.6-2.3-1.1-3.6-1.7-.5-.2-1-.5-1.5-.7h-.1c-.7-.4-1.5-.7-2.3-1.1-.6-.3-1.1-.5-1.7-.8-2.1-1-4.4-2.1-6.7-3.1-.3-.2-.7-.3-1.1-.5-.8-.4-1.7-.8-2.6-1.2-.4-.2-.7-.3-1.1-.5-.6-.2-1.1-.5-1.7-.7-.7-.3-1.4-.6-2.2-.9-.6-.2-1.1-.5-1.7-.7-5.3-2.3-10.8-4.6-16.5-6.8-.6-.2-1.3-.5-1.9-.7-.5-.2-1.1-.4-1.6-.6-.8-.3-1.7-.6-2.5-.9-1-.4-2-.7-3-1.1-.9-.3-1.8-.7-2.7-1-.2-.1-.4-.2-.6-.2-2.1-.7-4.2-1.5-6.3-2.2-.4-.1-.7-.3-1.1-.4-13.8-4.6-27.8-8.2-40.8-10-.1-.5-.1-1.1 0-1.7 1-4.2 3.6-7.3 6.8-10 11.2-9.1 24.3-14.6 37.6-19.7 17.8-6.8 36.2-11.9 54.7-16.3 10.2-2.4 20.5-4.5 30.9-6.4 7.3-1.3 14.6-2.5 21.9-3.4 6.1-.7 12.3-1.6 18.4-2.1 8.3-.7 16.5-1.3 24.8-1.6 4.5-.2 9.1-.4 13.6-.2 7.4.3 14.8.7 22.2 1.4 4.8.4 9.7.8 14.5 1.3 5.8.6 11.5 1.5 17.2 2.5 7.3 1.3 14.5 3.2 21.4 5.9 5.1 2 9.9 4.8 14.4 7.9 1.1.8 1.6 2 2 3.2 2.4 6.8 4 13.9 5.7 20.9 1.6 6.6 3.1 13.2 4.6 19.8.1.6.3 1.5.3 2.1h-.1c-1.2-.8-2.5-1.6-3.8-2.5-5.1-3.2-10.5-6.1-16.1-8.6-17-7.7-35.9-11.9-55.7-11.9-14.9 0-29.2 2.4-42.6 6.8-.4.1-.7.2-1.1.4-19.6 6.6-37.4 17.7-51.9 32.1-7.5 7.4-14.1 15.6-19.6 24.5m71.697895 247.857c-6.6-.1-13.1-.7-19.7-1.4-5.2-.5-10.4-1-15.6-1.7-5.6-.7-11.1-1.5-16.6-2.4-8.9-1.5-17.8-3-26.7-4.9-11.2-2.4-22.3-5-33.3-8-7.6-2.1-15.1-4.3-22.6-6.8-8.6-2.9-17-5.9-25.3-9.7-6.9-3.2-13.8-6.4-20.1-10.8-4.3-3-8.4-6.3-10.9-11.1-.5-1-1-2.1-.9-3.3-.1-.2-.1-.3-.2-.5.7-.1 1.5-.2 2.2-.3.8-.1 1.6-.2 2.4-.4 1.1-.2 2.2-.3 3.2-.5h.3c.7-.1 1.5-.3 2.2-.4.7-.1 1.4-.3 2.1-.4 46.2-9.2 98.7-36 106.7-40.2l1-.5c12.9 20.5 31.1 37.3 52.8 48.5 8.2 4.3 17 7.7 26.1 10.2h.1c11.5 3.2 23.7 4.9 36.2 4.9 2.6 0 5.1-.1 7.6-.2h.4c4.7-.3 9.4-.8 14-1.6 20-3.2 38.2-10.6 54-21.2-.2.5-.6 1.1-1 1.5-.5 4.6-1.8 9.1-2.8 13.7-1.7 7.5-3.9 15-5.6 22.5-1.2 5.1-4.7 7.5-8.8 9.9-8.7 5.1-18.2 7.8-27.9 9.8-7.7 1.6-15.6 2.6-23.4 3.4-5.6.6-11.2.7-16.8 1.3-11.1 1.1-22.1.7-33.1.6"/>
  <path fill="#A7A8A8" d="M117.87228 462.95097c-14.3-.3-27.1-5-38.2-14-11.3-9-18.9-20.6-22.2-34.7-4.6-19.4-1.1-37.5 10.8-53.6 10-13.5 23.5-21.8 40.2-24.9 4.2-.8 8.5-1.1 12.8-1.1h113.4c0 .1.1.2.1.2.4.8.9 1.6 1.3 2.4h-115.3c-10.6 0-20.7 2.2-30.1 7.3-10.6 5.7-18.8 13.9-24.7 24.4-6.1 10.9-8.5 22.6-7.5 35 1.1 13.5 6.2 25.4 15.2 35.5 9.4 10.6 21.1 17.1 34.9 19.7 3.1.6 6.2 1 9.3.9 5.8-.1 11.7.2 17.5-.1 8.7-.4 17.4 0 26.1-.4 8.5-.4 17.1 0 25.6-.4 8.8-.4 17.7 0 26.5-.4 5.9-.3 16.2-.1 22.3-.3-.5.9-.9 1.8-1.4 2.7h-3.3c-4.7 0-9.4-.2-14.1.1-9 .5-18 0-26.9.4-8.4.4-16.8 0-25.2.4-8.8.4-17.7 0-26.5.4-6.8.6-13.7.6-20.6.5m-236.704895 50.3304s-.1 0 0 0c-.3-1 0-1.7 1.2-2.4 6.5-3.8 13.6-6.2 20.8-8.5 8.9-2.9 17.9-5.4 27-7.1 3.2-.6 4.3-2.2 5.1-5 2.7-10.7 5.1-21.5 6.8-32.4 1.2-7.4 2.2-14.9 2.8-22.4.6-6.5 1.2-13 1.6-19.5.4-6.4.6-12.8.6-19.2 0-7.1-.3-14.2-.8-21.3-.6-8.1-1.3-16.2-2.3-24.2-1.7-13.4-3.8-26.6-7.1-39.7-.8-3.3-1.8-6.5-2.4-9.8 0-.2-.1-.4-.2-.6l-8.6-3.2c-10.1-2.3-20.2-4.9-30-8.3-4.2-1.5-8.4-3.2-12.2-5.5-1.2-.7-2-1.6-2.2-2.7 13 1.7 27 5.4 40.8 10 .4.1.7.2 1.1.4 2.1.7 4.2 1.4 6.3 2.2.2.1.4.2.6.2.9.3 1.8.6 2.7 1 1 .4 2 .7 3 1.1.8.3 1.7.6 2.5.9.5.2 1.1.4 1.6.6.6.2 1.3.5 1.9.7 5.7 2.2 11.3 4.5 16.6 6.8.6.2 1.1.5 1.7.7.7.3 1.4.6 2.2.9.6.3 1.1.5 1.7.7.4.2.8.3 1.1.5.9.4 1.7.8 2.6 1.2.4.2.7.3 1.1.5 1.2.5 2.3 1.1 3.4 1.6.3.1.6.3.8.4.6.3 1.1.5 1.6.8.3.1.5.3.8.4.6.3 1.2.5 1.7.8.8.4 1.5.7 2.3 1.1h.1c.5.2 1 .5 1.5.7 1.2.6 2.4 1.2 3.6 1.7.2.1.5.2.7.3.7.3 1.3.7 2 1 .4.2.9.4 1.3.6.5.3 1.1.5 1.6.8.1.1.3.1.4.2.3.1.5.3.8.4 1.4.7 2.6 1.3 3.7 1.9.3.2.6.3.9.5.8.4 1.6.8 2.2 1.2 1 .5 1.7.9 2.3 1.2.5.3.8.4.9.5-.5.7-.9 1.4-1.3 2.2-2-1.1-31.2-16.3-60.3-26.6 0 0 11.9 50.6 11.9 94.9l-.1-.2c0 44.4-11.9 97.7-11.9 97.7 29.1-10.2 58.3-24.8 60.4-25.9l1.5 2.4c-.3.2-.6.3-1 .5-10.8 5.6-62 31.3-106.7 40.3-.7.1-1.4.3-2.1.4-.7.1-1.5.3-2.2.4h-.3c-1.1.2-2.2.4-3.2.5-.8.1-1.6.2-2.4.4-1.1.1-1.8.2-2.5.3"/>
  <path fill="#E4E5E4" d="M-48.676215 396.27937l.1.2c-.1-44.3-11.9-94.9-11.9-94.9 29.2 10.3 58.3 25.5 60.3 26.6-.3.5-.5.9-.8 1.4-8.3 14.1-14.1 29.9-16.8 46.7l1.4.6.5.2c-.1.5-.1 1-.2 1.4 0 .3-.1.6-.1.9v.2c-.1.5-.1 1-.2 1.5-.1.7-.2 1.3-.2 2-.1.6-.1 1.2-.2 1.8v.3c-.1.6-.1 1.2-.2 1.8-.6-.4-1.3-.7-1.9-1.1-3.7-2-7.5-3.9-11.4-5.7-2.3-1.1-3-.7-3.2 1.8-.3 5.4-.9 10.8-.8 16.3-.1 5.5.5 11 .8 16.5.1 2.4.9 2.8 3.1 1.9 4-1.6 7.8-3.5 11.6-5.5.6-.4 1.3-.7 1.9-1.1l.3 3.3c0 .4.1.8.1 1.2.1 1 .3 2 .4 3 0 .3.1.6.1 1 0 .1 0 .2.1.4l-.6.3-1.3.6c2.7 16.8 8.4 32.5 16.5 46.6.4.6.7 1.3 1.1 1.9-2.2 1.1-31.4 15.6-60.4 25.9 0-.3 11.9-53.5 11.9-98"/>
  <path fill="#A7A8A8" d="M116.47248 534.16597c-12.5 0-24.7-1.7-36.2-4.9h-.1c-9.1-2.5-17.9-6-26.1-10.2-21.6-11.2-39.8-28-52.8-48.5-9.6-15.2-16.2-32.4-19.1-50.9l1.3-.6.6-.3.9 5.4c.1.5.2 1.1.3 1.6.1.7.3 1.3.4 2 .1.3.1.6.2.9 0 .1.1.2.1.3.1.5.3 1.1.4 1.6.1.5.2.9.4 1.4.1.3.1.5.2.8.1.2.1.5.2.7.2.6.3 1.2.5 1.8.1.3.2.7.3 1 .1.5.3.9.4 1.4.1.4.3.8.4 1.2.2.6.3 1.1.5 1.6.1.4.3.8.4 1.2.3 1 .7 1.9 1 2.9.2.4.3.9.5 1.3v.1c.2.5.3.9.5 1.4.2.5.4 1 .6 1.4.1.2.1.3.2.5.1.3.2.5.3.8.2.4.4.9.6 1.3.2.4.4.8.6 1.3.4 1 .9 2 1.4 3l.9 1.8.9 1.8.6 1.2.3.6v.1c.1.3.3.5.4.8 1.4 2.7 3 5.3 4.6 7.8.1.2.3.4.4.7.3.4.6.9.9 1.3l1.2 1.8c0 .1.1.1.1.2.1.2.3.4.4.6.1.2.3.4.4.6.2.4.5.7.8 1.1l1.5 2.1c.2.3.4.5.6.8l.1.1c.1.2.3.4.4.5.2.2.3.4.5.6.5.7 1.1 1.4 1.6 2 .5.7 1.1 1.3 1.6 2 .3.3.6.7.8 1 .3.3.6.7.9 1 .3.3.5.6.8.9.5.5.9 1 1.4 1.5.3.3.6.7.9 1l.6.6c.8.8 1.6 1.7 2.4 2.5l.1.1c9.6 9.6 20.6 17.8 32.7 24.1 8.5 4.5 17.6 8.1 27 10.6 11.2 3 23 4.7 35.2 4.7 1.7 0 3.4 0 5.1-.1 6.7-.3 13.2-1 19.6-2.2 19-3.5 36.6-11.1 51.8-21.7 15.2-10.6 28.2-24.3 37.9-40.2 1.3-2.1 2.6-4.3 3.8-6.6.5-.9 1-1.8 1.4-2.7 9.3-18.2 14.5-38.8 14.5-60.6 0-21.8-5.2-42.4-14.5-60.6-.4-.8-.8-1.6-1.3-2.4 0-.1-.1-.2-.1-.2-.3-.5-.6-1-.8-1.5-.2-.3-.4-.7-.6-1-.2-.3-.4-.7-.6-1-.1-.2-.2-.4-.3-.5-.2-.4-.4-.8-.7-1.2-.1-.2-.3-.4-.4-.7-.3-.6-.7-1.1-1-1.7-.4-.6-.7-1.1-1.1-1.7-.1-.1-.1-.2-.2-.3-.3-.5-.7-1.1-1.1-1.6l-1.2-1.8c-.4-.6-.8-1.2-1.3-1.8-.1-.1-.1-.2-.2-.3-.2-.3-.5-.7-.7-1l-.9-1.2c-.2-.3-.5-.6-.7-.9-.3-.3-.5-.7-.8-1-.5-.7-1.1-1.4-1.6-2-.3-.3-.6-.7-.8-1-.3-.3-.6-.7-.8-1-.9-1-1.7-2-2.6-3-.3-.3-.6-.6-.8-.9-1.1-1.2-2.3-2.4-3.4-3.6l-1.1-1.1c-.5-.5-1-1-1.6-1.5-.5-.5-1-1-1.6-1.5-.5-.5-1.1-1-1.6-1.5s-1.1-1-1.6-1.4c-.4-.4-.9-.8-1.3-1.1-.9-.8-1.8-1.5-2.7-2.2-.5-.4-.9-.7-1.4-1.1-8.4-6.6-17.7-12.2-27.5-16.6-16.8-7.5-35.4-11.7-54.9-11.7-8.9 0-17.6.9-26.1 2.5-25.7 5.1-48.7 17.5-66.9 34.9-8.4 8.1-15.7 17.2-21.8 27.2-1 1.6-1.9 3.3-2.9 5-.1.3-.3.5-.4.8-.1.3-.3.5-.4.8-.3.6-.6 1.1-.9 1.7-.3.6-.6 1.1-.8 1.7-.2.5-.5 1-.7 1.4-.1.2-.2.5-.4.7-.2.3-.3.7-.5 1-.1.2-.1.3-.2.5-.2.4-.3.7-.5 1.1-.6 1.3-1.1 2.5-1.6 3.8-.1.3-.3.7-.4 1-.1.4-.3.7-.4 1.1-.3.8-.6 1.5-.9 2.3-.1.2-.2.4-.2.7-.5 1.3-.9 2.7-1.4 4l-.6 1.8c-.1.3-.2.7-.3 1l-.3.9c-.2.6-.3 1.1-.5 1.7 0 .1-.1.3-.1.5-.1.3-.2.7-.3 1-.5 1.9-1 3.9-1.4 5.8-.1.4-.2.7-.2 1.1v.2c0 .2-.1.4-.1.6-.1.3-.1.6-.2.9-.1.4-.2.8-.2 1.2 0 .1 0 .2-.1.3 0 .3-.1.5-.1.8-.1.4-.2.9-.2 1.3-.1.5-.2 1.1-.3 1.6l-.5-.2-1.4-.6c2.9-18.2 9.5-35.2 18.9-50.2 5.6-8.9 12.2-17.2 19.6-24.5 14.5-14.4 32.3-25.5 52.1-32.2.4-.1.7-.2 1.1-.4 13.4-4.4 27.7-6.8 42.6-6.8 19.9 0 38.7 4.3 55.7 11.9 5.6 2.5 11 5.4 16.1 8.6 1.3.8 2.5 1.7 3.8 2.5h.1c36.4 24.4 60.3 65.9 60.3 113 0 47.1-23.9 88.6-60.3 113-15.8 10.6-34 18-53.6 21.2-4.6.8-9.3 1.3-14 1.6h-.4c-2.9-.1-5.4-.1-8-.1"/>
  <path fill="#C1C3C2" d="M117.99238 460.35197c-3.2 0-6.3-.3-9.3-.9-13.8-2.7-25.6-9.1-34.9-19.7-9-10.2-14.2-22.1-15.2-35.5-1-12.3 1.4-24.1 7.5-35 5.9-10.5 14.1-18.6 24.7-24.4 9.4-5.1 19.5-7.3 30.1-7.3h115.3c9.3 18.2 14.5 38.8 14.5 60.6 0 21.8-5.2 42.4-14.5 60.6-6.1.2-16.3 0-22.3.3-8.8.4-17.7 0-26.5.4-8.5.4-17 0-25.6.4-8.7.4-17.4-.1-26.1.4-6 .3-11.8 0-17.7.1"/>
  <path fill="#DEDFDE" d="M116.47248 532.18327c-37.1 0-70.7-15.1-95-39.4-19.6-19.6-33.1-45.3-37.5-74-.5-2.9-.8-5.8-1.1-8.8 4.8-2.8 9.4-5.8 13.9-9.2 2.5-1.9 2.4-2.3 0-4.3-4.4-3.6-9.1-6.7-13.9-9.5.3-3.3.7-6.6 1.2-9.9 2.8-17.4 8.9-33.7 17.6-48.2 6.1-10 13.4-19.2 21.8-27.2 18.1-17.5 41.2-29.9 66.9-34.9 8.4-1.7 17.1-2.5 26.1-2.5 19.6 0 38.2 4.2 54.9 11.7 9.9 4.4 19.1 10 27.5 16.6 14.6 11.4 26.8 25.8 35.6 42.3h-113.4c-4.3 0-8.6.3-12.8 1.1-16.6 3.1-30.2 11.3-40.2 24.9-11.9 16.1-15.3 34.1-10.8 53.6 3.3 14.1 10.9 25.6 22.2 34.7 11.1 9 23.9 13.7 38.2 14 6.9.1 13.8.1 20.8-.2 8.8-.4 17.7 0 26.5-.4 8.4-.4 16.8 0 25.2-.4 9-.4 17.9.1 26.9-.4 4.7-.3 9.4-.1 14.1-.1h3.3c-1.2 2.2-2.5 4.4-3.8 6.6-23.3 38.2-65.8 63.9-114.2 63.9"/>
  <path fill="#A7A8A8" d="M-33.584115 398.10787c.2 4.7.5 9.3.7 14 .1 2.9.7 3.3 3.4 2.2 9.1-3.6 17.3-8.6 25.1-14.3 1.5-1.1 1.4-1.5 0-2.7-7.7-6.5-16.6-11.1-25.7-15.3-2-.9-2.7-.7-2.8 1.6-.2 4.8-.4 9.7-.7 14.5m-.8.1c-.1-5.4.5-10.9.8-16.3.1-2.5.9-2.9 3.2-1.8 9.6 4.5 19 9.4 27.3 16.3 2.4 2 2.5 2.4 0 4.3-8.5 6.4-17.5 11.8-27.4 15.8-2.2.9-2.9.5-3.1-1.9-.3-5.4-.9-10.9-.8-16.4"/>
  <path fill="#C1C3C2" d="M-33.583915 398.10657c.3-4.8.4-9.7.8-14.5.2-2.3.8-2.5 2.8-1.6 9.1 4.2 17.9 8.8 25.7 15.3 1.4 1.2 1.4 1.6 0 2.7-7.8 5.7-16 10.8-25.1 14.3-2.7 1.1-3.2.7-3.4-2.2-.3-4.6-.5-9.3-.8-14"/>
  <path fill="#A7A8A8" d="M178.55178 398.58617c0-10.5-.2-21 .1-31.6.1-4.4-3.7-8.1-8-8.1-18.7.2-37.5.2-56.2 0-4.8 0-8 4-8 8.1.2 21 .2 42.1 0 63.1 0 4.4 3.2 8.3 8.3 8.3 18.6-.1 37.2-.1 55.8 0 4.2 0 8.2-3.5 8.1-8.1-.2-10.6-.1-21.1-.1-31.7m-34.8 46.3h-31.4c-4.9 0-7.7-2.2-9-7-1-3.7-3.2-21.4-3.1-39 .1-18.4 2.7-36.7 3.4-39.4 1.2-4.3 4-6.6 8.4-6.6h66.5c4.1 0 8.9 18.3 8.9 45.8 0 27.2-5.1 46.2-8.9 46.2h-34.8"/>
  <path fill="#C1C3C2" d="M108.38199 398.62687v30c0 4.7 2.8 7.5 7.5 7.5h53.3c4.8 0 7.5-2.8 7.5-7.6v-60.1c0-4.7-2.8-7.6-7.5-7.6h-53.3c-4.6 0-7.5 3-7.5 7.6v30.2m70.2-.1c0 10.6-.2 21.2.1 31.8.1 4.6-3.9 8.1-8.1 8.1-18.6-.1-37.2-.1-55.8 0-5.1 0-8.3-3.9-8.3-8.3.2-21 .2-42.1 0-63.1 0-4.1 3.2-8.1 8-8.1 18.7.2 37.5.2 56.2 0 4.4 0 8.1 3.6 8 8.1-.3 10.5-.1 21-.1 31.5"/>
  <path fill="#4A4A4C" d="M108.38199 398.62687v-30c0-4.6 2.9-7.6 7.5-7.6h53.3c4.7 0 7.5 2.9 7.5 7.6v60.1c0 4.8-2.8 7.6-7.5 7.6h-53.3c-4.7 0-7.5-2.9-7.5-7.5v-30.2"/>
  <path fill="#6D6D6D" d="M130.20929 504.62287c8.3 0 15.1 6.7 15.1 15.1 0 8.3-6.7 15.1-15.1 15.1s-15.1-6.7-15.1-15.1c0-8.3 6.7-15.1 15.1-15.1"/>
  <path fill="#02AA46" d="M130.20929 505.75197c7.7 0 14 6.3 14 14s-6.3 14-14 14-14-6.3-14-14c0-7.8 6.2-14 14-14"/>
  <path fill="#6D6D6D" d="M68.92979 504.62287c8.3 0 15.1 6.7 15.1 15.1 0 8.3-6.7 15.1-15.1 15.1s-15.1-6.7-15.1-15.1c.1-8.3 6.8-15.1 15.1-15.1"/>
  <path fill="#E23434" d="M68.92979 505.75197c7.7 0 14 6.3 14 14s-6.3 14-14 14-14-6.3-14-14c0-7.8 6.3-14 14-14"/>
  <path fill="#6D6D6D" d="M99.45548 472.80087c8.3 0 15.1 6.7 15.1 15.1 0 8.3-6.7 15.1-15.1 15.1s-15.1-6.7-15.1-15.1c.1-8.4 6.8-15.1 15.1-15.1"/>
  <path fill="#F2E825" d="M99.45548 473.80347c7.8 0 14.1 6.3 14.1 14.1s-6.3 14.1-14.1 14.1-14.1-6.3-14.1-14.1c.1-7.8 6.4-14.1 14.1-14.1"/>
  <path fill="#6D6D6D" d="M99.45548 535.51857c8.3 0 15.1 6.7 15.1 15.1 0 8.3-6.7 15.1-15.1 15.1s-15.1-6.7-15.1-15.1c.1-8.4 6.8-15.1 15.1-15.1"/>
  <path fill="#3F6C9E" d="M99.45548 536.83317c7.6 0 13.7 6.1 13.7 13.7s-6.1 13.7-13.7 13.7-13.7-6.1-13.7-13.7c0-7.5 6.2-13.7 13.7-13.7"/>
  <path fill="#E4E5E4" d="M131.68118 226.74577c22.7 0 41 18.4 41 41s-18.4 41-41 41-41-18.4-41-41 18.3-41 41-41"/>
  <path fill="#A7A8A8" d="M131.68118 239.36597c15.7 0 28.4 12.7 28.4 28.4s-12.7 28.4-28.4 28.4-28.5-12.7-28.5-28.4 12.7-28.4 28.5-28.4"/>
  <path fill="#C1C3C2" d="M131.68118 243.43847c13.4 0 24.3 10.9 24.3 24.3s-10.9 24.3-24.3 24.3-24.3-10.9-24.3-24.3 10.8-24.3 24.3-24.3"/>
  <path fill="#DEDFDE" d="M211.67098 427.52927h-7.8c-1.7 0-3.2-1.4-3.2-3.2v-51.3c0-1.7 1.4-3.2 3.2-3.2h7.8c1.7 0 3.2 1.4 3.2 3.2v6.3c0 1.6 1.3 2.8 2.8 2.8h7.4c9.3 0 17.2 7.1 17.7 16.4.4 9.9-7.4 18-17.2 18h-7.9c-1.6 0-2.8 1.3-2.8 2.8v5c-.1 1.7-1.5 3.2-3.2 3.2"/>
  <path d="M205.17228 394.38167s-.1-.2-.2-.2c0-.2-.1-.3-.1-.4v-.4c0-.2.1-.4.2-.6.1-.2 0-.2.2-.3.1-.1.4-.3.6-.3h.4c.1 0 .2.1.3.1l.3.3c.1.1.1.3.2.5 0 .1.1.3.1.5 0 .1 0 .4.1.5 0 .1 0 .2.1.3 0 .1.1.2.1.2l.2.2h-1.1s-.5 0-.7-.2c-.6 0-.7-.2-.7-.2m3.7-2.5c.1.3.2.4.3.6 0 .2.1.3.1.6 0 .2.1.4.1.6 0 .2-.1.5-.1.7 0 .2-.2.3-.4.4-.1.1-.2.1-.4.1h-.2c-.1 0-.1-.1-.2-.1s-.1-.1-.2-.2c0 0-.1-.1-.1-.2s-.1-.2-.1-.3c0-.1 0-.2-.1-.4-.1-.5-.1-.8-.2-1.1-.1-.2-.1-.4-.2-.5-.1-.2-.1-.2-.3-.4l-.3-.3c-.1-.1-.2-.1-.4-.2-.1 0-.3-.1-.5-.1-.3 0-.5 0-.8.2-.2.1-.4.4-.6.6-.1.3-.3.6-.3 1.1v.4c0 .1.1.3.1.5.1.1.2.3.3.5l.3.3h-.4v1c.4-.1.5-.1.8-.1h2.9c.2 0 .6-.1.7-.2.2-.1.3-.2.5-.3.2-.1.4-.5.5-.7.1-.3.1-.5.1-.8v-1c0-.3-.1-.5-.2-.9-.3.2-.6.2-.7.2m-3.64329 21.6521c0-.1-.1-.2-.2-.3 0-.2-.1-.3-.1-.4v-.4c0-.2.1-.4.2-.6.1-.1 0-.1.2-.3.1-.1.4-.3.6-.3h.4c.1 0 .2.1.3.2l.3.3c.1.1.1.3.2.5 0 .1.1.3.1.5 0 .1 0 .4.1.5 0 .1 0 .2.1.2 0 .1.1.2.1.2l.2.2h-1.4s-.4 0-.7-.2c-.3 0-.4-.1-.4-.1m3.7-2.6l.3.6c0 .2.1.4.1.6 0 .2.1.4.1.6 0 .2-.1.5-.1.7 0 .2-.2.3-.4.4-.1.1-.2.1-.4.1h-.2c-.1 0 0 0-.1-.1-.1 0-.1-.1-.2-.2 0 0-.1-.1-.1-.2s-.1-.2-.1-.3c0-.1 0-.2-.1-.4-.1-.5-.1-.9-.2-1.1-.1-.2-.1-.4-.2-.5-.1-.1-.1-.2-.3-.4l-.3-.3c-.1-.1-.3-.1-.4-.2-.1 0-.3-.1-.5-.1-.3 0-.5 0-.8.2-.2.1-.4.4-.6.6-.1.3-.3.6-.3 1.1v.4c0 .2.1.3.1.5.1.1.2.3.3.5l.3.3h-.5v1c.4-.1.5-.1.8-.1h2.9c.2 0 .6-.1.7-.2.2-.1.3-.2.5-.3.2-.1.4-.4.5-.7.1-.3.1-.4.1-.7 0-.3 0-.7-.1-1 0-.3-.1-.5-.2-.9-.2.1-.4.1-.6.1m-4.60991-14.2185l.4.1h1.1l3.2-.1c.3 0 .6-.2.7-.2 0 .2 0 .5.1.7v.4h-.7c.2.1.2.3.4.4.1.1.1.2.2.3.1.1.1.2.1.4v.6c0 .1 0 .3-.1.4 0 .1-.1.3-.2.4 0 .1-.1.2-.2.3-.1.1-.1.2-.3.3 0 0 .3.2.4.5.2.3.3.7.3 1 0 .2 0 .8-.1 1-.1.2-.2.6-.4.7-.2.1-.2.2-.4.3-.2.2-.6.2-.7.2h-3.4c-.3 0-.3.1-.6.1v-1.1c.4.1.3.1.6.1h3.2c.2 0 .5-.1.6-.1.1 0 .4-.3.4-.4.1-.1.1-.2.2-.4.1-.1.1-.4.1-.5v-.4c0-.1-.1-.2-.1-.3-.1-.1-.1-.2-.2-.3-.1-.1-.2-.1-.3-.2-.1 0-.3 0-.5-.1h-3.2l-.5.2v-1.1c.5 0 0 .1.5.1h3.2c.2 0 .3 0 .4-.1.1 0 .3-.1.4-.2l.4-.4c.1-.1.1-.3.1-.5s0-.3-.1-.4c-.1-.1-.1-.3-.2-.4-.1-.1-.1-.2-.3-.3-.2-.1-.1-.1-.4-.2-.3 0-1.4-.1-2.1-.1h-1.2c-.2 0-.3.1-.5.1v-.5c-.3.3-.3 0-.3-.3m1.0033 13.2996h-.4c-.2 0-.3-.1-.5-.1-.1-.2-.1-.5-.2-.7v-1c0-.4.1-.8.2-1.1.1-.3.3-.7.6-.9.2-.2.5-.5.9-.6.4-.1.7-.2 1.1-.2.6 0 .7.1 1.2.2.5.2.9.6 1.1.9.3.4.5 1.2.5 1.8 0 .5-.1 1-.2 1.5-.3 0-.5 0-.7.1.1-.3.3-.6.3-.8 0-.2.1-.5.1-.6 0-.3-.1-.9-.3-1.1-.1-.2-.3-.4-.5-.6-.2-.1-.5-.3-.8-.3-.3-.1-.3-.1-.7-.1-.4 0-.8.1-1.1.2-.3.1-.6.4-.8.7-.2.3-.4.6-.4 1 .1.2.2.9.6 1.7m-.83439 5.6659l.4-.1s.3-.1.5-.1c-.3.6-.6 1.3-.6 1.8 0 .2.1.5.1.7.1.2.2.3.3.4.1.1.3.2.4.2h.3c.1 0 .3 0 .4-.1.1 0 .2-.2.3-.3.1-.1.2-.4.3-.7.1-.3.3-.8.4-.9.1-.2.3-.4.4-.6.1-.1.3-.2.4-.3h.5c.2 0 .5.1.7.3.2.1.3.4.5.7.1.3.2.6.2 1s-.1.8-.2 1.3h-.7c.2-.4.4-.8.4-1.2 0-.2 0-.4-.1-.6-.1-.2-.2-.4-.3-.5-.1-.1-.2-.1-.4-.1-.1 0-.2 0-.3.1-.1 0-.3.2-.3.4-.1.2 0 .1-.1.2 0 .2-.2.5-.4.9s-.4.7-.5.9c-.1.1-.3.3-.6.4-.1.1-.3.1-.4.1h-.4c-.3 0-.4 0-.6-.2-.2-.1-.4-.4-.6-.7-.1-.3-.2-.6-.2-1v-.7c0-.2.1-.4.1-.6.1-.4.1-.5.1-.7m.47389 6.8502c-.2 0-.3-.1-.6-.1-.1-.2-.1-.3-.1-.5v-.4c0-.3 0-.5.1-.7.1-.2.2-.3.4-.4.2-.1.7-.2 1-.2h3.4v-.7h.5v.7h1c.2 0 .3-.1.4-.2.1.3.2.8.3 1h-1.6v1.4h-.5v-1.4h-3.4c-.3 0-.6 0-.8.1-.1 0-.2.1-.3.3 0 .1-.1.2-.1.4v.3c.2 0 .3.1.3.4m.3397-31.8634c-.2 0-.5-.1-.8-.1-.1-.3-.3-.8-.3-1.1v-.7c0-.4.1-.8.2-1.2.1-.3.3-.7.6-.9.3-.3.6-.5.9-.6.4-.1.7-.1 1.1-.2.6 0 .8.1 1.3.2.5.2.8.5 1.1.9.3.4.4.8.4 1.4 0 .3 0 .7-.1.9-.1.3-.2.5-.4.7-.2.2-.4.4-.7.5-.3.1-.3.1-.7.2h-.6v-4h-.4c-.4 0-.8.1-1.1.2-.3.2-.6.4-.7.7-.2.3-.3.7-.3 1.1 0 .6.2 1.4.5 2m2.6-3.6v2.9h.3c.1 0 .2-.1.4-.1l.3-.3c.1-.1.2-.2.3-.4 0-.1.1-.4.1-.6s0-.4-.1-.5c-.1-.2-.1-.3-.3-.4-.1-.1-.2-.2-.4-.3-.1-.1-.3-.2-.4-.2 0-.1 0-.1-.2-.1m-3.6949-4.5684c.1 0 .3.1.4.1h4.7l.4-.2c0 .2 0 .4.1.5 0 .1.1.4.1.6h-1c.2.1.2.1.3.2.1.1.3.2.4.3.1.1.2.2.2.4 0 .1.1.3.1.4v.6c0 .3-.1.5-.1.6-.1 0-.7-.2-.7-.2s0-.3.1-.5v-.5c0-.2 0-.4-.1-.6-.1-.1-.2-.3-.3-.4-.1-.1-.3-.2-.5-.3-.2-.1 0 0-.3-.1h-3.4l-.3.1v-.6c-.1.1-.1-.2-.1-.4m-.017-8.2135l.5.2h6.6c.2 0 .4-.1.7-.2v3.5c0 .6-.1.7-.2 1.2-.1.3-.4.9-.6 1.2-.2.3-.4.5-.7.7-.3.2-.4.3-.7.5-.5.2-1 .3-1.5.3-.7 0-1.2 0-1.8-.2-.6-.2-1-.6-1.4-1-.4-.4-.7-.8-.8-1.4-.1-.5-.2-1.1-.2-1.7v-1.5l.1-1.6zm.6 1.4v2.2c0 .3.2.6.3.8.1.3.2.5.5.7.2.3.5.4.8.6.3.1.6.3 1 .3.4.1.7.1 1.1.1.4 0 .7-.1 1.1-.3.4-.1.8-.3 1.1-.6.3-.3.5-.6.6-.9.1-.3.2-.8.2-1.4v-1.7l-6.7.2z"/>
  <path fill="#EE5507" d="M223.40268 399.50437c.9 0 .8-.4.9-.7 0-.3-.1-1.1 0-1.8.2-.8 1.3-1.3 1.9-1.1 1.6.4 1.8 1.5 1.8 2.2 0 .6-.1 1.6-1.2 2.9-.5.6-1.9.9-2.6 1-1 0-2 0-2.6-.6-1-.9-1.8-3.3-1.8-4.7.6-5.3 5.5-5.1 5.5-5.1s2.1-.4 4.4 1.4c.2.1.6.4.8.6.2.2.3.3.4.6.2.2.3.4.4.7.4.6.7 1.2.9 1.8.3.9.3 1.8.3 2.5-.1 2.2-1.3 4.6-3.1 5.8-.3.2-.4.3-.7.5-.3.2-.7.4-1.2.6-.8.3-.5.2-1.7.5-.9.2-1.4.3-2 .4-.3 0-.5 0-.8.1-1 0-1.2.1-1.9-.1-1.3-.3-2.5-1.1-3.1-1.8-1.1-1.2-1.5-2.2-1.8-2.9-.3-.6-.4-.9-.7-1.7-.3-.8-.4-1.3-.4-2.7 0-1.4.1-2.6.2-2.9.7-2.5 1.2-3.5 2.1-4.5 2.2-2.8 6.6-3.4 6.6-3.4s2.2-.3 4.6.2c1.2.3 3.5 1.5 4.4 2.2.8.6 1.9 2 2.4 2.8.5.8 1.2 2 1.7 3.4.2.7.3 1.2.4 2.7.1 1.8-.4 4.4-.9 5.9-.5 1.6-1.5 3.1-2.4 3.8-.8.8-3.3 2.5-3.8 2.8-.5.3-3.2 1.1-3.6 1.2-.3.1-1.6.2-1.5 1.4.1 1.1 1.4.8 1.6.8.2 0 2.4-.4 2.9-.6.6-.2 2.1-1 2.4-1.2.2-.1 1.5-.9 2.5-1.7.7-.6 1.5-1.1 1.9-1.8.8-1.2 1.4-2.7 1.4-2.7s.9-2.6 1-3.9c.1-1.2.4-2.4.3-4.5-.1-2.1-.7-3.2-1-4-.3-.7-1.1-2.5-2.1-3.8-1.1-1.3-.5-.9-1.3-1.6-.8-.7-1-.9-1.6-1.4-.7-.5-2.6-1.5-4-1.8-.5-.1-1.4-.4-2.1-.5-.7-.1-1.3-.1-1.9 0-1.1.1-1.2.1-1.2.1s-2.2.5-3.1.8c-.9.3-2.1.7-4.2 2.5-2 1.8-2.5 3.5-2.8 4.1-.2.6-1 2.8-1 5.6-.1 3.2.7 4.1.9 4.7.3.6 1.1 2.6 2.6 4.2s3.1 2.1 3.2 2.1c1.3.4 3.3.6 5.2.2 1.3-.3 2.5-.5 3.3-.7 1.4-.5 2.2-1 2.8-1.4.6-.4 1.5-1.5 1.9-2.3.2-.4.5-.7.7-1.1.2-.5.3-1.1.5-1.8s.3-1.6.4-2.3v-1.4c0-.3-.2-1.4-1-2.9-.4-.8-1-1.7-2-2.7-.3-.3-.7-.6-1-.8-3-2.2-6.4-1.4-6.4-1.4s-4.6.4-5.9 4.4c-.4 1.4-.5 2.7-.3 3.7.2 1.8 1 3 1.4 3.9.5.9 1.2 1.5 2 1.9.7.4 1.5.4 2.2.4.4 0 .9 0 1.4-.1 1.3-.2 2.6-.7 3.6-1.8l.2-.4.3-.6c.5-1 .7-1.9.8-3.3 0-.5-.1-1.2-.3-1.6-.8-1.6-2.2-2.4-4-2.4-1.7.1-2.6 1.7-2.9 2 .1-.5-.8 3 .8 3.1"/>
  <path fill="#A7A8A8" d="M56.80868 316.01457h-15.3c-.9 0-1.7-.8-1.7-1.7v-18h-18c-.9 0-1.7-.8-1.7-1.7v-15.3c0-.9.8-1.7 1.7-1.7h18v-18c0-.9.8-1.7 1.7-1.7h15.3c.9 0 1.7.8 1.7 1.7v18h18c.9 0 1.7.8 1.7 1.7v15.3c0 .9-.8 1.7-1.7 1.7h-18v18c0 .9-.8 1.7-1.7 1.7"/>
  <path fill="#C1C3C2" d="M55.94019 314.32847h-13.6c-.8 0-1.5-.7-1.5-1.5v-17.6h-17.5c-.8 0-1.5-.7-1.5-1.5v-13.6c0-.8.7-1.5 1.5-1.5h17.5v-17.5c0-.8.7-1.5 1.5-1.5h13.6c.8 0 1.5.7 1.5 1.5v17.6h17.5c.8 0 1.5.7 1.5 1.5v13.5c0 .8-.7 1.5-1.5 1.5h-17.5v17.5c.1 1-.6 1.6-1.5 1.6"/>
  <path fill="#7F7F7F" d="M-39.983715 387.66247c-.2.3-.3.8-.3 1.3 0 .8.4 1.2.9 1.2s.8-.3 1-1.1c.3-.9.7-1.5 1.5-1.5s1.4.8 1.4 1.9c0 .6-.1 1-.3 1.3l-.5-.2c.1-.2.2-.6.2-1.1 0-.8-.4-1.1-.8-1.1-.5 0-.7.4-1 1.2-.3 1-.8 1.5-1.5 1.5-.8 0-1.5-.7-1.5-2 0-.6.1-1.2.3-1.5l.6.1zm3.821 5.5222v-1.8h.6v4.3h-.6v-1.8h-4.6v-.8h4.6zm-2.4569 5.3844l1.5-.6.9-.3-.9-.3-1.5-.6v1.8zm-.5-1.9l-1.6-.6v-.8l5.2 2v.9l-5.2 2v-.8l1.6-.6v-2.1zm1.0768 5.0477v.8c0 .8.4 1.3 1 1.3.7 0 1-.5 1-1.3 0-.4 0-.6-.1-.7h-1.9zm2.4-.7c.1.4.1.9.1 1.4 0 .8-.1 1.3-.4 1.7-.2.3-.6.5-1 .5-.7 0-1.1-.5-1.3-1.1-.1.5-.5.7-1 .9-.7.2-1.2.3-1.4.4v-.8c.1-.1.6-.2 1.2-.4.7-.2 1-.5 1-1.2v-.7h-2.2v-.8h5zm-.5199 5.8332v-1.8h.6v4.3h-.6v-1.8h-4.6v-.8h4.6z"/>
  <path fill="#B1B2B5" d="M150.87308 258.64177c-.4.2-.5.6-.4 1 .2.4.6.5 1 .4.4-.2.5-.6.4-1-.2-.4-.6-.6-1-.4m-4.1 1.7c-.4.2-.5.6-.4 1 .2.4.6.5 1 .4.4-.2.5-.6.4-1-.2-.4-.6-.5-1-.4m-4.3 1.9c-.4.2-.5.6-.4 1 .2.4.6.5 1 .4.4-.2.5-.6.4-1-.2-.4-.7-.5-1-.4m-3.4 2.3c.2.4 0 .8-.4 1-.4.2-.8 0-1-.4-.2-.4 0-.8.4-1 .4-.1.8 0 1 .4m-26.7 12.4c.4-.2.5-.6.4-1s-.6-.5-1-.4-.5.6-.4 1c.2.4.6.5 1 .4m4.1-1.8c.4-.2.5-.6.4-1-.2-.4-.6-.5-1-.4s-.5.6-.4 1c.2.4.6.6 1 .4m4.4-1.9c.4-.2.5-.6.4-1-.2-.4-.6-.5-1-.4-.4.2-.5.6-.4 1 .1.4.6.6 1 .4m3.4-2.3c-.2-.4 0-.8.4-1 .4-.2.8 0 1 .4.2.4 0 .8-.4 1-.4.2-.9 0-1-.4m16.5 16.1c-.2-.4-.6-.5-1-.4-.4.2-.5.6-.4 1 .2.4.6.5 1 .4s.6-.7.4-1m-1.7-4.1c-.2-.4-.6-.5-1-.4-.4.2-.5.6-.4 1 .2.4.6.5 1 .4.3-.2.5-.6.4-1m-1.9-4.4c-.2-.4-.6-.5-1-.4-.4.2-.5.6-.4 1 .2.4.6.5 1 .4.3-.2.5-.6.4-1m-2.3-3.4c-.4.2-.8 0-1-.4-.2-.4 0-.8.4-1s.8 0 1 .4c.1.4-.1.8-.4 1m-12.4-26.6c.2.4.6.5 1 .4.4-.2.5-.6.4-1-.2-.4-.6-.5-1-.4-.4.2-.6.6-.4 1m1.8 4c.2.4.6.5 1 .4.4-.2.5-.6.4-1-.2-.4-.6-.5-1-.4-.4.2-.6.7-.4 1m1.9 4.4c.2.4.6.5 1 .4.4-.2.5-.6.4-1s-.6-.5-1-.4c-.4.2-.6.6-.4 1m2.3 3.4c.4-.2.8 0 1 .4.2.4 0 .8-.4 1-.4.2-.8 0-1-.4-.2-.4 0-.8.4-1m17.7-8.2c-.3.3-.3.8 0 1 .3.3.8.3 1 0 .3-.3.3-.8 0-1-.2-.2-.7-.2-1 0m-3.1 3.2c-.3.3-.3.8 0 1 .3.3.8.3 1 0 .3-.3.3-.8 0-1-.3-.3-.7-.3-1 0m-3.4 3.3c-.3.3-.3.8 0 1 .3.3.8.3 1 0 .3-.3.3-.8 0-1-.2-.2-.7-.2-1 0m-22.6 24.7c.3-.3.3-.8 0-1-.3-.3-.8-.3-1 0-.3.3-.3.8 0 1 .3.3.7.3 1 0m3.2-3.1c.3-.3.3-.8 0-1-.3-.3-.8-.3-1 0-.3.3-.3.8 0 1 .2.3.7.3 1 0m3.3-3.4c.3-.3.3-.8 0-1-.3-.3-.8-.3-1 0-.3.3-.3.8 0 1 .3.3.7.3 1 0m23.6 5.5c-.3-.3-.8-.3-1 0-.3.3-.3.8 0 1 .3.3.8.3 1 0 .3-.3.3-.8 0-1m-3.1-3.2c-.3-.3-.8-.3-1 0-.3.3-.3.8 0 1 .3.3.8.3 1 0 .3-.2.3-.7 0-1m-3.4-3.3c-.3-.3-.8-.3-1 0-.3.3-.3.8 0 1 .3.3.8.3 1 0 .3-.3.3-.8 0-1m-24.6-22.6c.3.3.8.3 1 0 .3-.3.3-.8 0-1-.3-.3-.8-.3-1 0-.3.2-.3.7 0 1m3.1 3.1c.3.3.8.3 1 0 .3-.3.3-.8 0-1-.3-.3-.8-.3-1 0-.3.3-.3.7 0 1m3.4 3.4c.3.3.8.3 1 0 .3-.3.3-.8 0-1-.3-.3-.8-.3-1 0-.3.2-.3.7 0 1m16.6-11.9c-.2.4 0 .8.4 1 .4.2.8 0 1-.4.2-.4 0-.8-.4-1-.4-.1-.8 0-1 .4m-1.7 4.1c-.2.4 0 .8.4 1 .4.2.8 0 1-.4.2-.4 0-.8-.4-1-.4-.2-.8 0-1 .4m-1.8 4.4c-.2.4 0 .8.4 1 .4.2.8 0 1-.4.2-.4 0-.8-.4-1-.4-.2-.9 0-1 .4m-.9 4c.4.2.6.6.4 1-.2.4-.6.6-1 .4-.4-.2-.6-.6-.4-1 .2-.4.6-.6 1-.4m-10.7 27.3c.2-.4 0-.8-.4-1-.4-.2-.8 0-1 .4-.2.4 0 .8.4 1 .4.2.8 0 1-.4m1.7-4c.2-.4 0-.8-.4-1-.4-.2-.8 0-1 .4-.2.4 0 .8.4 1 .4.1.8-.1 1-.4m1.9-4.4c.2-.4 0-.8-.4-1-.4-.2-.8 0-1 .4-.2.4 0 .8.4 1 .4.1.8-.1 1-.4m.8-4.1c-.4-.2-.6-.6-.4-1 .2-.4.6-.6 1-.4.4.2.6.6.4 1-.2.4-.6.6-1 .4m23.1.2c-.4-.2-.8 0-1 .4-.2.4 0 .8.4 1 .4.2.8 0 1-.4.1-.4 0-.9-.4-1m-4.1-1.7c-.4-.2-.8 0-1 .4-.2.4 0 .8.4 1 .4.2.8 0 1-.4.1-.4 0-.9-.4-1m-4.4-1.9c-.4-.2-.8 0-1 .4-.2.4 0 .8.4 1 .4.2.8 0 1-.4.2-.4 0-.8-.4-1m-4-.9c-.2.4-.6.6-1 .4s-.6-.6-.4-1c.2-.4.6-.6 1-.4.4.2.5.7.4 1m-27.4-10.7c.4.2.8 0 1-.4.2-.4 0-.8-.4-1-.4-.2-.8 0-1 .4-.1.5.1.9.4 1m4.1 1.8c.4.2.8 0 1-.4.2-.4 0-.8-.4-1s-.8 0-1 .4c-.1.4.1.8.4 1m4.4 1.8c.4.2.8 0 1-.4.2-.4 0-.8-.4-1-.4-.2-.8 0-1 .4-.1.4 0 .9.4 1m4 .9c.2-.4.6-.6 1-.4.4.2.6.6.4 1-.2.4-.6.6-1 .4-.3-.2-.5-.6-.4-1m-13.8 3.9c.4 0 .7-.3.7-.7s-.3-.7-.7-.7c-.4 0-.7.3-.7.7s.3.7.7.7m4.4 0c.4 0 .7-.3.7-.7s-.3-.7-.7-.7c-.4 0-.7.3-.7.7s.3.7.7.7m4.8 0c.4 0 .7-.3.7-.7s-.3-.7-.7-.7-.7.3-.7.7.3.7.7.7m33.4-1.5c-.4 0-.7.3-.7.7s.3.7.7.7.7-.3.7-.7-.3-.7-.7-.7m-4.5 0c-.4 0-.7.3-.7.7s.3.7.7.7c.4 0 .7-.3.7-.7s-.3-.7-.7-.7m-4.7 0c-.4 0-.7.3-.7.7s.3.7.7.7.7-.3.7-.7-.3-.7-.7-.7m-12.9-20.6c0 .4.3.7.7.7s.7-.3.7-.7c0-.4-.3-.7-.7-.7-.3 0-.7.3-.7.7m0 4.5c0 .4.3.7.7.7s.7-.3.7-.7-.3-.7-.7-.7c-.3-.1-.7.2-.7.7m0 4.7c0 .4.3.7.7.7s.7-.3.7-.7-.3-.7-.7-.7c-.3 0-.7.3-.7.7m1.5 33.4c0-.4-.3-.7-.7-.7-.4 0-.7.3-.7.7 0 .4.3.7.7.7s.7-.3.7-.7m0-4.4c0-.4-.3-.7-.7-.7-.4 0-.7.3-.7.7 0 .4.3.7.7.7s.7-.3.7-.7m0-4.8c0-.4-.3-.7-.7-.7-.4 0-.7.3-.7.7 0 .4.3.7.7.7s.7-.3.7-.7"/>
  <path fill="#B5AA1D" d="M92.89488 490.96277l2.9-1.7c1.1-.7 1.8-1.1 2.6-1.5-.8-.4-1.5-.7-2.6-1.4l-2.9-1.6v-2l6.7 4 6.5-3.9v2l-3.1 1.7c-.9.5-1.5.9-2.2 1.2v.1c.8.4 1.4.7 2.2 1.2l3.1 1.8v2l-6.4-4-6.8 4.1v-2z"/>
  <path fill="#036D2E" d="M123.73358 518.60487h5.6l7.6-4.2v1.9l-3.6 1.9c-1 .5-1.8.9-2.7 1.3.9.4 1.7.8 2.7 1.3l3.6 1.9v1.9l-7.6-4.4h-5.6v-1.6z"/>
  <path fill="#A02727" d="M67.83988 521.62697l3.8-1.3c.9-.3 1.6-.5 2.4-.7-.8-.2-1.6-.4-2.4-.7l-3.8-1.3v4zm-1.3-4.3l-4.1-1.4v-1.8l13.2 4.5v2l-13.2 4.5v-1.8l4.1-1.4v-4.6z"/>
  <path fill="#264560" d="M94.23088 548.12987c-.1.3-.1.8-.1 1.4 0 1.8.6 3.4 2.6 3.4 1.8 0 2.5-1.5 2.5-3.4v-1.4h-5zm6.3 0v1.5c0 1.8.9 2.8 2.2 2.8 1.5 0 2.1-1.2 2.1-2.9 0-.8-.1-1.2-.1-1.5h-4.2zm5.4-1.7c.2.7.3 1.9.3 3.1 0 1.7-.3 2.8-1 3.6-.5.7-1.3 1.1-2.3 1.1-1.3 0-2.4-.8-2.9-2.2-.3 1.2-1.3 2.7-3.3 2.7-1.1 0-2-.5-2.6-1.1-.8-.9-1.2-2.4-1.2-4.5 0-1.2.1-2.1.2-2.6h12.8z"/>
  <path fill="#A7A8A8" d="M49.20659 278.88967c4.4 0 8 3.6 8 8s-3.6 8-8 8-8-3.6-8-8c-.1-4.4 3.5-8 8-8"/>
</svg>
