<?xml version="1.0" encoding="UTF-8" standalone="no"?>
<svg
   xmlns:dc="http://purl.org/dc/elements/1.1/"
   xmlns:cc="http://creativecommons.org/ns#"
   xmlns:rdf="http://www.w3.org/1999/02/22-rdf-syntax-ns#"
   xmlns:svg="http://www.w3.org/2000/svg"
   xmlns="http://www.w3.org/2000/svg"
   viewBox="0 0 533.75751 56.864376"
   height="56.864376"
   width="533.75751"
   xml:space="preserve"
   version="1.1"
   id="svg2"><metadata
     id="metadata8"><rdf:RDF><cc:Work
         rdf:about=""><dc:format>image/svg+xml</dc:format><dc:type
           rdf:resource="http://purl.org/dc/dcmitype/StillImage" /><dc:title></dc:title></cc:Work></rdf:RDF></metadata><defs
     id="defs6" /><g
     transform="matrix(1.25,0,0,-1.25,0,56.864375)"
     id="g10"><g
       transform="translate(401.5314,45.4914)"
       id="g12"><path
         id="path14"
         style="fill:#6cc1ec;fill-opacity:1;fill-rule:nonzero;stroke:none"
         d="m 0,0 -45.246,-45.491 25.475,0 L 25.475,0 0,0 Z" /></g><g
       transform="translate(376.0632,45.4914)"
       id="g16"><path
         id="path18"
         style="fill:#79c043;fill-opacity:1;fill-rule:nonzero;stroke:none"
         d="m 0,0 -45.252,-45.491 25.475,0 L 25.474,0 0,0 Z" /></g><g
       transform="translate(350.5878,45.4914)"
       id="g20"><path
         id="path22"
         style="fill:#fded0f;fill-opacity:1;fill-rule:nonzero;stroke:none"
         d="m 0,0 -45.251,-45.491 25.474,0 L 25.475,0 0,0 Z" /></g><g
       transform="translate(325.1133,45.4914)"
       id="g24"><path
         id="path26"
         style="fill:#f05953;fill-opacity:1;fill-rule:nonzero;stroke:none"
         d="m 0,0 -45.252,-45.491 25.475,0 L 25.475,0 0,0 Z" /></g><path
       id="path28"
       style="fill:#ffffff;fill-opacity:1;fill-rule:nonzero;stroke:none"
       d="m 174.68,9.101 9.706,0 0,36.391 -9.706,0 0,-36.391 z" /><path
       id="path30"
       style="fill:#ffffff;fill-opacity:1;fill-rule:nonzero;stroke:none"
       d="m 198.939,18.807 24.264,0 0,-2.426 -24.264,0 0,2.426 z m -9.7,16.979 0,-7.274 33.964,0 0,-2.426 -33.964,0 0,-16.985 43.67,0 0,26.685 -43.67,0 z" /><path
       id="path32"
       style="fill:#ffffff;fill-opacity:1;fill-rule:nonzero;stroke:none"
       d="m 237.762,35.786 9.699,0 0,-26.685 -9.699,0 0,26.685 z" /><path
       id="path34"
       style="fill:#ffffff;fill-opacity:1;fill-rule:nonzero;stroke:none"
       d="m 237.762,38.212 9.699,0 0,7.279 -9.699,0 0,-7.279 z" /><g
       transform="translate(252.3143,35.7856)"
       id="g36"><path
         id="path38"
         style="fill:#ffffff;fill-opacity:1;fill-rule:nonzero;stroke:none"
         d="m 0,0 0,-26.685 9.706,0 0,19.412 38.816,0 0,7.273 L 0,0 Z" /></g><g
       transform="translate(121.3043,35.7856)"
       id="g40"><path
         id="path42"
         style="fill:#ffffff;fill-opacity:1;fill-rule:nonzero;stroke:none"
         d="m 0,0 0,-26.685 48.523,0 0,7.28 -38.817,0 0,12.132 38.817,0 0,7.273 L 0,0 Z" /></g><g
       transform="translate(67.9284,35.7856)"
       id="g44"><path
         id="path46"
         style="fill:#ffffff;fill-opacity:1;fill-rule:nonzero;stroke:none"
         d="m 0,0 0,-26.685 9.706,0 0,19.412 29.111,0 0,-19.412 9.706,0 L 48.523,0 0,0 Z" /></g><path
       id="path48"
       style="fill:#ffffff;fill-opacity:1;fill-rule:nonzero;stroke:none"
       d="m 53.37,35.786 9.706,0 0,-26.685 -9.706,0 0,26.685 z" /><path
       id="path50"
       style="fill:#ffffff;fill-opacity:1;fill-rule:nonzero;stroke:none"
       d="m 53.37,38.212 9.706,0 0,7.279 -9.706,0 0,-7.279 z" /><g
       transform="translate(0,35.7858)"
       id="g52"><path
         id="path54"
         style="fill:#ffffff;fill-opacity:1;fill-rule:nonzero;stroke:none"
         d="m 0,0 0,-16.979 38.817,0 0,-2.426 -38.817,0 0,-7.28 48.523,0 0,16.985 -38.823,0 0,2.426 38.823,0 0,7.274 L 0,0 Z" /></g></g></svg>