<?xml version="1.0" encoding="UTF-8" ?>
<!DOCTYPE svg PUBLIC "-//W3C//DTD SVG 1.1//EN" "http://www.w3.org/Graphics/SVG/1.1/DTD/svg11.dtd">
<svg width="1318pt" height="269pt" viewBox="0 0 1318 269" version="1.1" xmlns="http://www.w3.org/2000/svg">
<g id="#000000ff">
<path fill="#000000" opacity="1.00" d=" M 131.17 0.00 L 132.52 0.00 C 134.59 0.78 136.65 1.58 138.79 2.17 C 163.14 8.58 187.32 15.66 211.13 23.86 C 224.66 28.32 238.44 33.26 249.64 42.35 C 261.07 51.46 268.38 65.10 270.96 79.37 C 273.08 88.43 273.23 97.77 273.01 107.02 C 272.45 119.82 270.49 133.26 262.97 143.98 C 256.97 152.64 246.54 157.78 236.06 157.75 C 226.83 157.94 217.21 155.64 209.43 150.66 C 209.01 120.11 209.45 89.52 209.23 58.96 C 209.54 51.35 201.92 44.65 194.42 46.48 C 189.81 48.09 187.50 53.31 187.78 57.96 C 187.94 98.78 187.52 139.62 187.99 180.45 C 187.99 192.06 188.07 203.67 187.93 215.29 C 187.70 221.84 187.73 228.39 187.91 234.94 C 188.12 246.15 187.93 257.36 188.01 268.57 C 168.98 263.04 150.26 256.47 131.33 250.60 C 131.15 244.71 131.32 238.82 131.09 232.93 C 130.94 222.27 130.93 211.60 131.10 200.94 C 131.33 194.51 131.31 188.08 131.04 181.65 C 130.98 170.43 130.91 159.20 131.10 147.98 C 131.38 98.66 131.23 49.33 131.17 0.00 Z" />
<path fill="#000000" opacity="1.00" d=" M 378.11 59.22 C 393.74 59.32 409.37 59.27 424.99 59.25 C 433.88 59.38 443.06 60.17 451.27 63.81 C 456.52 66.20 461.10 70.28 463.51 75.58 C 468.18 87.39 468.64 100.32 467.68 112.83 C 466.27 123.16 462.81 134.61 453.23 140.19 C 440.59 147.40 425.51 144.35 411.67 144.98 C 411.46 140.33 411.46 135.67 411.68 131.01 C 419.03 130.62 426.59 131.94 433.79 129.93 C 437.92 128.93 441.34 125.64 442.66 121.62 C 445.50 113.73 445.17 105.20 444.98 96.95 C 444.54 90.70 443.18 84.00 438.58 79.41 C 435.18 75.67 430.03 73.83 425.04 73.97 C 416.63 74.04 408.22 73.95 399.82 74.03 C 399.61 115.59 399.78 157.17 399.73 198.74 C 392.53 198.74 385.33 198.70 378.13 198.76 C 377.95 152.25 377.99 105.73 378.11 59.22 Z" />
<path fill="#000000" opacity="1.00" d=" M 484.10 59.22 C 491.36 59.30 498.63 59.30 505.90 59.22 C 506.07 105.74 506.06 152.26 505.90 198.78 C 498.63 198.70 491.36 198.70 484.10 198.78 C 483.94 152.26 483.93 105.74 484.10 59.22 Z" />
<path fill="#000000" opacity="1.00" d=" M 740.96 72.97 C 746.01 63.66 757.04 59.88 767.07 59.44 C 779.95 59.06 792.84 59.38 805.73 59.26 C 805.73 63.80 805.71 68.35 805.78 72.89 C 794.55 73.38 783.21 72.10 772.08 74.03 C 767.46 74.84 762.71 77.21 760.63 81.63 C 757.72 87.94 757.06 95.14 757.79 102.00 C 758.27 107.06 761.62 112.12 766.79 113.29 C 778.37 115.88 791.05 113.54 801.94 119.11 C 806.96 121.36 809.71 126.49 811.53 131.42 C 816.93 146.74 817.92 163.96 812.35 179.38 C 809.53 187.47 802.74 194.21 794.42 196.49 C 788.83 198.53 782.82 197.92 777.00 197.97 C 764.68 197.96 752.35 197.98 740.03 197.97 C 739.97 193.42 739.89 188.88 740.17 184.34 C 749.77 184.57 759.37 184.42 768.97 184.45 C 775.73 184.44 782.99 182.82 787.88 177.85 C 791.55 173.84 792.32 168.19 792.90 163.00 C 793.16 156.91 793.42 150.58 791.20 144.79 C 789.98 141.61 787.41 138.84 784.06 137.92 C 775.41 135.51 766.25 136.71 757.59 134.36 C 750.21 132.66 742.94 128.40 739.57 121.36 C 733.00 106.04 733.49 87.88 740.96 72.97 Z" />
<path fill="#000000" opacity="1.00" d=" M 1071.10 59.22 C 1078.36 59.30 1085.63 59.30 1092.90 59.22 C 1093.06 65.74 1093.06 72.26 1092.90 78.78 C 1085.63 78.70 1078.36 78.70 1071.10 78.78 C 1070.93 72.26 1070.93 65.74 1071.10 59.22 Z" />
<path fill="#000000" opacity="1.00" d=" M 838.03 72.02 C 845.28 72.01 852.53 71.90 859.78 72.10 C 859.73 78.73 859.63 85.36 859.81 91.99 C 868.12 92.15 876.44 91.88 884.76 92.13 C 884.72 96.67 884.74 101.20 884.73 105.74 C 876.43 105.79 868.12 105.59 859.83 105.83 C 859.61 127.21 859.76 148.60 859.75 169.99 C 859.79 175.12 860.86 181.70 866.27 183.83 C 870.58 184.37 874.95 183.83 879.29 184.01 C 879.55 188.75 879.57 193.50 879.28 198.24 C 872.53 198.68 865.76 198.36 859.00 198.47 C 853.39 198.54 847.50 197.56 843.00 193.98 C 839.65 191.02 838.04 186.47 838.02 182.07 C 838.04 145.39 838.02 108.70 838.03 72.02 Z" />
<path fill="#000000" opacity="1.00" d=" M 1007.01 72.02 C 1014.33 71.98 1021.66 71.98 1028.98 72.02 C 1029.05 78.68 1028.94 85.34 1029.02 92.00 C 1037.26 92.13 1045.51 91.88 1053.76 92.13 C 1053.72 96.67 1053.73 101.20 1053.73 105.74 C 1045.50 105.78 1037.26 105.61 1029.03 105.81 C 1028.94 127.22 1029.05 148.63 1028.97 170.04 C 1028.93 174.31 1029.73 179.05 1032.78 182.24 C 1037.38 185.62 1043.47 183.30 1048.73 184.14 C 1048.75 188.83 1048.69 193.51 1048.79 198.19 C 1043.20 198.74 1037.59 198.33 1031.99 198.47 C 1025.82 198.50 1019.16 198.64 1013.78 195.16 C 1008.66 192.08 1007.01 185.66 1007.00 180.05 C 1007.01 144.04 1006.98 108.03 1007.01 72.02 Z" />
<path fill="#000000" opacity="1.00" d=" M 1145.43 91.66 C 1156.65 90.12 1168.15 90.02 1179.36 91.72 C 1188.20 93.03 1197.00 97.38 1201.80 105.19 C 1208.79 116.80 1209.52 130.79 1209.67 143.99 C 1209.62 157.10 1209.15 170.89 1202.83 182.72 C 1199.56 189.02 1193.62 193.70 1186.93 195.92 C 1179.23 198.44 1171.07 199.25 1163.00 198.99 C 1152.62 199.22 1141.74 198.48 1132.41 193.52 C 1125.74 189.87 1121.24 183.23 1118.93 176.12 C 1115.22 165.17 1114.97 153.45 1115.02 141.99 C 1115.33 129.39 1116.17 116.02 1122.96 105.00 C 1127.78 97.21 1136.64 93.06 1145.43 91.66 M 1155.30 106.31 C 1149.10 107.36 1143.76 111.74 1141.46 117.57 C 1137.68 126.87 1137.65 137.13 1137.72 147.01 C 1137.79 156.88 1138.41 167.50 1143.96 176.01 C 1149.63 184.14 1160.99 185.32 1169.95 183.14 C 1176.40 181.86 1181.45 176.66 1183.60 170.60 C 1187.76 159.26 1187.13 146.96 1186.86 135.09 C 1185.95 126.54 1185.12 116.80 1178.42 110.59 C 1172.16 105.15 1163.06 105.03 1155.30 106.31 Z" />
<path fill="#000000" opacity="1.00" d=" M 541.02 92.02 C 551.35 91.97 561.67 92.02 572.00 91.99 C 580.68 92.13 589.68 92.68 597.70 96.34 C 603.90 99.11 608.79 104.77 610.51 111.35 C 611.58 116.83 612.03 122.43 612.01 128.01 C 611.97 151.45 612.03 174.89 611.99 198.33 C 595.99 198.51 579.99 198.85 563.98 198.74 C 555.05 198.39 545.71 197.66 537.71 193.30 C 533.14 190.90 529.72 186.61 528.30 181.66 C 524.91 170.23 524.73 157.73 528.28 146.32 C 530.60 139.24 537.74 135.28 544.56 133.57 C 555.15 131.02 566.13 130.88 576.96 131.02 C 576.99 135.67 576.99 140.32 576.95 144.98 C 570.77 145.24 564.36 144.18 558.42 146.38 C 553.93 147.64 549.57 151.20 549.03 156.08 C 548.00 162.56 548.10 169.22 549.41 175.65 C 550.48 180.19 555.00 182.88 559.33 183.64 C 569.48 185.14 579.77 183.55 589.98 183.99 C 590.04 163.98 589.96 143.97 590.03 123.96 C 590.05 119.24 588.61 114.22 584.96 111.03 C 580.82 106.84 574.66 105.68 568.98 105.72 C 559.69 105.73 550.39 105.69 541.10 105.78 C 540.94 101.19 540.96 96.60 541.02 92.02 Z" />
<path fill="#000000" opacity="1.00" d=" M 624.90 92.09 C 632.83 92.04 640.77 91.88 648.70 92.18 C 656.00 112.50 663.57 132.73 670.99 153.00 C 672.18 156.18 673.18 159.43 674.76 162.45 C 684.56 139.14 693.86 115.62 703.33 92.17 C 710.26 91.90 717.21 92.02 724.15 92.10 C 702.99 145.47 681.03 198.55 659.68 251.85 C 652.73 252.07 645.79 251.99 638.85 251.90 C 646.12 233.01 654.06 214.39 661.49 195.56 C 662.02 194.51 662.10 193.44 661.73 192.34 C 649.48 158.92 637.01 125.57 624.90 92.09 Z" />
<path fill="#000000" opacity="1.00" d=" M 911.02 92.01 C 921.35 91.97 931.67 92.02 942.00 91.99 C 950.64 92.25 959.69 92.65 967.64 96.40 C 974.65 99.52 979.93 106.40 980.83 114.05 C 981.36 118.35 981.84 122.66 981.97 126.99 C 982.08 150.72 982.00 174.47 981.79 198.20 C 965.52 198.69 949.23 198.78 932.95 198.72 C 924.33 198.31 915.39 197.45 907.62 193.40 C 903.12 191.00 899.56 186.84 898.19 181.89 C 894.82 170.57 894.50 158.20 897.91 146.86 C 899.81 140.31 905.89 136.12 912.15 134.26 C 923.40 130.83 935.33 130.96 946.98 131.02 C 947.02 135.68 947.02 140.33 946.98 144.99 C 938.94 145.12 929.91 143.83 923.09 149.08 C 917.85 152.98 918.40 160.25 917.98 166.06 C 918.57 171.20 918.32 177.62 922.98 181.02 C 928.17 184.74 934.92 184.26 940.99 184.27 C 947.32 183.97 953.66 183.99 960.00 183.99 C 960.08 164.65 959.98 145.31 960.06 125.97 C 960.14 120.43 958.74 114.38 954.43 110.58 C 950.25 106.83 944.44 105.67 938.98 105.72 C 929.69 105.74 920.39 105.69 911.10 105.78 C 910.93 101.19 910.96 96.60 911.02 92.01 Z" />
<path fill="#000000" opacity="1.00" d=" M 1071.03 92.04 C 1078.34 92.01 1085.65 92.02 1092.97 92.04 C 1092.98 127.62 1093.11 163.20 1092.90 198.78 C 1085.63 198.70 1078.36 198.70 1071.10 198.78 C 1070.89 163.20 1071.02 127.62 1071.03 92.04 Z" />
<path fill="#000000" opacity="1.00" d=" M 1232.68 92.02 C 1248.79 91.99 1264.91 91.96 1281.02 92.04 C 1290.75 92.53 1301.43 93.33 1309.30 99.71 C 1314.52 103.83 1316.74 110.34 1318.00 116.63 L 1318.00 198.74 C 1310.92 198.72 1303.85 198.71 1296.78 198.77 C 1296.09 174.86 1296.27 150.93 1296.30 127.01 C 1296.30 122.64 1296.19 117.98 1293.80 114.17 C 1290.27 108.56 1283.48 105.71 1277.01 105.77 C 1269.46 105.74 1261.90 105.48 1254.38 106.01 C 1254.39 136.93 1254.72 167.86 1254.22 198.77 C 1247.07 198.72 1239.92 198.72 1232.78 198.77 C 1232.26 190.52 1232.67 182.26 1232.55 174.00 C 1232.64 146.68 1232.37 119.34 1232.68 92.02 Z" />
</g>
<g id="#23b6a4ff">
<path fill="#23b6a4" opacity="1.00" d=" M 34.57 181.39 C 66.73 170.20 98.90 159.04 131.10 147.98 C 130.91 159.20 130.98 170.43 131.04 181.65 C 107.68 188.94 84.77 197.68 61.59 205.52 C 58.26 206.92 53.61 207.94 52.63 211.97 C 54.08 215.20 57.99 216.05 61.07 217.01 C 74.38 220.05 88.09 216.28 100.56 211.61 C 110.77 208.14 120.87 204.34 131.10 200.94 C 130.93 211.60 130.94 222.27 131.09 232.93 C 101.54 238.56 70.73 239.61 41.28 232.79 C 30.50 230.19 19.86 226.44 10.36 220.65 C 5.74 217.90 1.69 213.91 0.00 208.69 L 0.00 205.34 C 1.28 201.57 3.51 198.14 6.57 195.58 C 14.64 188.72 24.55 184.51 34.57 181.39 Z" />
<path fill="#23b6a4" opacity="1.00" d=" M 213.26 172.19 C 246.68 164.58 282.30 163.58 315.30 173.75 C 324.60 176.78 333.92 180.33 341.85 186.18 C 345.95 189.31 349.85 194.20 348.80 199.70 C 347.60 205.06 343.32 208.98 339.04 212.07 C 332.73 216.47 325.70 219.79 318.44 222.29 C 295.07 230.58 271.70 238.91 248.34 247.26 C 228.21 254.30 208.28 261.94 188.01 268.57 C 187.93 257.36 188.12 246.15 187.91 234.94 C 221.62 223.32 255.28 211.56 289.01 199.99 C 292.28 198.70 296.90 197.71 297.88 193.81 C 298.58 190.31 294.47 189.01 291.87 188.21 C 281.20 185.57 269.77 186.22 259.29 189.38 C 241.25 195.99 223.21 202.60 205.16 209.20 C 199.42 211.25 193.80 213.62 187.93 215.29 C 188.07 203.67 187.99 192.06 187.99 180.45 C 196.60 178.28 204.64 174.33 213.26 172.19 Z" />
</g>
</svg>
