<?xml version="1.0" encoding="UTF-8" standalone="no"?>
<!-- Generator: Adobe Illustrator 19.0.0, SVG Export Plug-In . SVG Version: 6.00 Build 0)  -->

<svg
   xmlns:dc="http://purl.org/dc/elements/1.1/"
   xmlns:cc="http://creativecommons.org/ns#"
   xmlns:rdf="http://www.w3.org/1999/02/22-rdf-syntax-ns#"
   xmlns:svg="http://www.w3.org/2000/svg"
   xmlns="http://www.w3.org/2000/svg"
   xmlns:sodipodi="http://sodipodi.sourceforge.net/DTD/sodipodi-0.dtd"
   xmlns:inkscape="http://www.inkscape.org/namespaces/inkscape"
   version="1.1"
   id="Calque_1"
   x="0px"
   y="0px"
   viewBox="0 0 132.6 132.6"
   xml:space="preserve"
   inkscape:version="0.91 r13725"
   sodipodi:docname="game.svg"><metadata
     id="metadata221"><rdf:RDF><cc:Work
         rdf:about=""><dc:format>image/svg+xml</dc:format><dc:type
           rdf:resource="http://purl.org/dc/dcmitype/StillImage" /></cc:Work></rdf:RDF></metadata><defs
     id="defs219" /><sodipodi:namedview
     pagecolor="#ffffff"
     bordercolor="#666666"
     borderopacity="1"
     objecttolerance="10"
     gridtolerance="10"
     guidetolerance="10"
     inkscape:pageopacity="0"
     inkscape:pageshadow="2"
     inkscape:window-width="1920"
     inkscape:window-height="1057"
     id="namedview217"
     showgrid="false"
     inkscape:zoom="5.0340028"
     inkscape:cx="66.300003"
     inkscape:cy="66.300003"
     inkscape:window-x="1912"
     inkscape:window-y="-8"
     inkscape:window-maximized="1"
     inkscape:current-layer="Calque_1" /><g
     id="g3"><path
       fill="#7B79AA"
       d="M130.6,66.3c0,35.5-28.8,64.3-64.3,64.3S1.9,101.8,1.9,66.3S30.8,1.9,66.3,1.9S130.6,30.7,130.6,66.3z    M75.1,47.5c-2.7-1.3-5.7-2-8.8-2c-11.4,0-20.7,9.3-20.7,20.7S54.9,87,66.3,87C77.7,87,87,77.7,87,66.3C87,58,82.1,50.9,75.1,47.5"
       id="path5" /><g
       id="g7"><path
         fill="#0F1417"
         d="M66.3,132.6C29.7,132.6,0,102.8,0,66.3S29.7,0,66.3,0c36.6,0,66.3,29.7,66.3,66.3S102.8,132.6,66.3,132.6z     M66.3,0.1C29.8,0.1,0.1,29.8,0.1,66.3c0,36.5,29.7,66.2,66.2,66.2c36.5,0,66.2-29.7,66.2-66.2C132.5,29.8,102.8,0.1,66.3,0.1z"
         id="path9" /></g><g
       id="g11"><path
         fill="#A198A0"
         d="M66.3,77.8c-6.3,0-11.5-5.2-11.5-11.5S60,54.8,66.3,54.8S77.8,60,77.8,66.3S72.6,77.8,66.3,77.8z     M66.3,55.6c-5.9,0-10.7,4.8-10.7,10.7c0,5.9,4.8,10.7,10.7,10.7C72.2,77,77,72.2,77,66.3C77,60.4,72.2,55.6,66.3,55.6z"
         id="path13" /></g><g
       id="g15"><path
         fill="#A198A0"
         d="M66.3,75.6c-5.1,0-9.3-4.2-9.3-9.3c0-5.1,4.2-9.3,9.3-9.3c5.1,0,9.3,4.2,9.3,9.3    C75.6,71.4,71.4,75.6,66.3,75.6z M66.3,57.8c-4.7,0-8.5,3.8-8.5,8.5c0,4.7,3.8,8.5,8.5,8.5c4.7,0,8.5-3.8,8.5-8.5    C74.8,61.6,71,57.8,66.3,57.8z"
         id="path17" /></g><path
       fill="none"
       stroke="#7BC043"
       stroke-miterlimit="10"
       d="M66.3,88"
       id="path19" /><path
       fill="none"
       stroke="#7BC043"
       stroke-miterlimit="10"
       d="M66.3,92.2"
       id="path21" /><path
       fill="none"
       stroke="#7BC043"
       stroke-miterlimit="10"
       d="M66.3,42.9"
       id="path23" /><path
       fill="none"
       stroke="#7BC043"
       stroke-miterlimit="10"
       d="M66.3,40.4"
       id="path25" /><path
       fill="none"
       stroke="#7BC043"
       stroke-miterlimit="10"
       d="M66.3,66.3"
       id="path27" /><path
       fill="none"
       stroke="#7BC043"
       stroke-miterlimit="10"
       d="M66.3,69.8"
       id="path29" /><path
       fill="#CBC9E0"
       d="M86.7,66.3c0,11.3-9.1,20.4-20.4,20.4s-20.4-9.1-20.4-20.4S55,45.9,66.3,45.9S86.7,55,86.7,66.3z    M66.3,48.5c-9.8,0-17.8,7.9-17.8,17.8S56.5,84,66.3,84S84,76.1,84,66.3S76.1,48.5,66.3,48.5z"
       id="path31" /><g
       id="g33"><path
         d="M66.3,87c-11.4,0-20.7-9.3-20.7-20.7s9.3-20.7,20.7-20.7c11.4,0,20.7,9.3,20.7,20.7S77.7,87,66.3,87z M66.3,46.2    c-11.1,0-20.1,9-20.1,20.1c0,11.1,9,20.1,20.1,20.1s20.1-9,20.1-20.1C86.4,55.2,77.4,46.2,66.3,46.2z"
         id="path35" /></g><path
       d="M51.5,80.7c3.8,3.9,9,6.3,14.8,6.3c5.8,0,11.1-2.4,14.8-6.3l47.9,0c-6.6,28.6-32.2,49.9-62.7,49.9   c-30.6,0-56.2-21.3-62.7-49.9"
       id="path37" /><g
       id="g39"><polygon
         fill-rule="evenodd"
         fill="#FFFFFF"
         points="59,93.9 56.8,97.9 59.6,97.9 59.6,97 58.3,97 59.5,95 61.1,97.9 62.3,97.9     60,93.9 59,93.9   "
         id="polygon41" /><polygon
         fill-rule="evenodd"
         fill="#FFFFFF"
         points="64.9,97.9 66.1,95.8 66.1,97.9 67.1,97.9 67.1,93.9 66.1,93.9 64.5,96.8     62.9,93.9 61.9,93.9 61.9,97.9 62.9,97.9 62.9,95.8 64.1,97.9 64.9,97.9   "
         id="polygon43" /><path
         fill-rule="evenodd"
         fill="#FFFFFF"
         d="M56.9,95.5h-2.5v0.8h1.4V97h-2.6v-2.2h3.6v-0.9h-3.6c-0.8,0-1,0.2-1,1v2    c0,0.7,0.2,1,1,1h2.6c0.8,0,1-0.2,1-1V95.5L56.9,95.5z"
         id="path45" /><path
         fill-rule="evenodd"
         fill="#FFFFFF"
         d="M75.8,93.9h-2.3c-0.8,0-1,0.2-1,1v2c0,0.7,0.2,1,1,1h2.3c0.8,0,1-0.2,1-1v-0.7h-1.1    V97h-2.3v-2.2h2.3v0.7h1.1v-0.6C76.8,94.2,76.5,93.9,75.8,93.9L75.8,93.9z"
         id="path47" /><path
         fill-rule="evenodd"
         fill="#FFFFFF"
         d="M80.6,97h-2.3v-3.1h-1.1v3c0,0.7,0.2,1,1,1h2.4c0.8,0,1-0.2,1-1v-3h-1.1V97L80.6,97z"
         id="path49" /><path
         fill-rule="evenodd"
         fill="#FFFFFF"
         d="M86,95.9c0.3-0.1,0.4-0.3,0.4-0.6v-0.5c0-0.6-0.3-0.8-0.9-0.8h-3.3v4h3.1    c0.8,0,1.2-0.3,1.2-0.8v-0.5C86.4,96.3,86.3,96,86,95.9L86,95.9z M83.2,94.7h1.9c0.3,0,0.3,0.1,0.3,0.2v0.4c0,0.1,0,0.2-0.3,0.2    h-1.9V94.7L83.2,94.7z M85.4,96.8c0,0.2,0,0.2-0.3,0.2h-1.9v-0.8h1.9c0.3,0,0.3,0.1,0.3,0.2V96.8L85.4,96.8z"
         id="path51" /><polygon
         fill-rule="evenodd"
         fill="#FFFFFF"
         points="87.9,96.3 89.6,96.3 89.6,95.4 87.9,95.4 87.9,94.8 90.9,94.8 90.9,93.9     86.8,93.9 86.8,97.9 90.9,97.9 90.9,97 87.9,97 87.9,96.3   "
         id="polygon53" /><polygon
         fill-rule="evenodd"
         fill="#FFFFFF"
         points="68.6,96.3 70.4,96.3 70.4,95.4 68.6,95.4 68.6,94.8 71.6,94.8 71.6,93.9     67.5,93.9 67.5,97.9 71.6,97.9 71.6,97 68.6,97 68.6,96.3   "
         id="polygon55" /><polygon
         fill-rule="evenodd"
         fill="#FFFFFF"
         points="79.9,92.9 79.9,89.8 79.3,89.8 79.3,91.8 78.3,89.8 77.5,89.8 77.5,92.9     78.1,92.9 78.1,90.5 79.3,92.9 79.9,92.9   "
         id="polygon57" /><polygon
         fill-rule="evenodd"
         fill="#FFFFFF"
         points="63.1,90.5 64.3,92.9 64.9,92.9 64.9,89.8 64.3,89.8 64.3,91.8 63.3,89.8     62.5,89.8 62.5,92.9 63.1,92.9 63.1,90.5   "
         id="polygon59" /><polygon
         fill-rule="evenodd"
         fill="#FFFFFF"
         points="53.6,90.5 54.8,92.9 55.4,92.9 55.4,89.8 54.8,89.8 54.8,91.8 53.8,89.8     53,89.8 53,92.9 53.6,92.9 53.6,90.5   "
         id="polygon61" /><polygon
         fill-rule="evenodd"
         fill="#FFFFFF"
         points="59.3,89.8 58.6,89.8 58.6,92.9 59.3,92.9 59.3,89.8   "
         id="polygon63" /><polygon
         fill-rule="evenodd"
         fill="#FFFFFF"
         points="68.5,92.9 69.1,92.9 69.1,90.3 70,90.3 70,89.8 67.5,89.8 67.5,90.3     68.5,90.3 68.5,92.9   "
         id="polygon65" /><path
         fill-rule="evenodd"
         fill="#FFFFFF"
         d="M84.1,92.9c0.5,0,1-0.4,1-0.8v-1.5c0-0.4-0.4-0.8-1-0.8h-1.4v3H84.1L84.1,92.9z     M83.3,90.3h0.8c0.2,0,0.4,0.2,0.4,0.3v1.4c0,0.2-0.2,0.3-0.4,0.3h-0.8V90.3L83.3,90.3z"
         id="path67" /><path
         fill-rule="evenodd"
         fill="#FFFFFF"
         d="M90.2,90.6c0-0.4-0.4-0.8-1-0.8h-0.5c-0.5,0-1,0.4-1,0.8v1.5c0,0.4,0.4,0.8,1,0.8h0.5    c0.5,0,1-0.4,1-0.8V90.6L90.2,90.6z M89.6,92.1c0,0.2-0.2,0.3-0.4,0.3h-0.5c-0.2,0-0.4-0.2-0.4-0.3v-1.5c0-0.2,0.2-0.3,0.4-0.3    h0.5c0.2,0,0.4,0.1,0.4,0.3V92.1L89.6,92.1z"
         id="path69" /><path
         fill-rule="evenodd"
         fill="#FFFFFF"
         d="M72.4,92.1c0,0.4,0.4,0.8,0.9,0.8h1.3v-0.5h-1.3c-0.2,0-0.4-0.1-0.4-0.3v-0.6h1.7V91    H73v-0.4c0-0.2,0.2-0.3,0.4-0.3h1.3v-0.5h-1.3c-0.5,0-0.9,0.4-0.9,0.8L72.4,92.1L72.4,92.1z"
         id="path71" /><polygon
         fill-rule="evenodd"
         fill="#FFFFFF"
         points="91.9,97.9 91.7,97.9 91.7,97.2 91.4,97.2 91.4,97 92.2,97 92.2,97.2     91.9,97.2 91.9,97.9   "
         id="polygon73" /><polygon
         fill-rule="evenodd"
         fill="#FFFFFF"
         points="93.1,97.9 93,97.9 93,97.2 92.9,97.2 92.8,97.9 92.6,97.9 92.4,97.2     92.4,97.2 92.4,97.9 92.3,97.9 92.3,97 92.5,97 92.7,97.7 92.7,97.7 92.9,97 93.1,97 93.1,97.9   "
         id="polygon75" /><polygon
         fill-rule="evenodd"
         fill="#FFFFFF"
         points="42,95.6 44.3,96.9 44.3,94.3 42,93 42,95.6   "
         id="polygon77" /><polygon
         fill-rule="evenodd"
         fill="#FFFFFF"
         points="41.1,96.1 44.3,98 44.3,99.9 39.5,97.1 39.5,91.5 41.1,92.4 41.1,96.1   "
         id="polygon79" /><polygon
         fill-rule="evenodd"
         fill="#FFFFFF"
         points="44.5,91.2 42.3,92.5 44.5,93.9 46.8,92.5 44.5,91.2   "
         id="polygon81" /><polygon
         fill-rule="evenodd"
         fill="#FFFFFF"
         points="44.5,90.1 47.3,91.7 48.9,90.8 44.5,88.3 39.7,91.1 41.3,92 44.5,90.1   "
         id="polygon83" /><polygon
         fill-rule="evenodd"
         fill="#FFFFFF"
         points="48,96.1 48,94.2 47,94.8 47,95.6 44.8,96.9 44.8,96.9 44.8,94.3 44.8,94.3     49.6,91.5 49.6,97.1 44.8,99.9 44.8,98 48,96.1   "
         id="polygon85" /></g><g
       id="g87"><g
         id="g89"><g
           id="g91"><path
             fill="#FFFFFF"
             d="M23.2,97.3h0.3v0c0,0.1,0,0.1,0.1,0.2c0,0,0.1,0.1,0.2,0.1c0.1,0,0.1,0,0.2,0c0,0,0.1-0.1,0.1-0.1      c0,0,0-0.1,0-0.1c0,0-0.1,0-0.2-0.1l-0.2,0c-0.1,0-0.2-0.1-0.3-0.1c-0.1-0.1-0.1-0.2-0.1-0.3c0-0.1,0-0.3,0.1-0.3      c0.1-0.1,0.2-0.1,0.4-0.1c0.2,0,0.3,0,0.4,0.1c0.1,0.1,0.1,0.2,0.1,0.3v0H24c0-0.1,0-0.1-0.1-0.2c0,0-0.1-0.1-0.2-0.1      c-0.1,0-0.1,0-0.2,0c0,0-0.1,0.1-0.1,0.1c0,0,0,0.1,0,0.1c0,0,0.1,0,0.2,0l0.2,0c0.1,0,0.2,0.1,0.3,0.1c0.1,0.1,0.1,0.2,0.1,0.3      c0,0.2,0,0.3-0.1,0.4c-0.1,0.1-0.2,0.1-0.4,0.1c-0.2,0-0.3,0-0.4-0.1C23.3,97.6,23.2,97.5,23.2,97.3L23.2,97.3L23.2,97.3      L23.2,97.3z"
             id="path93" /><path
             fill="#FFFFFF"
             d="M25.3,97.5c0,0.1-0.1,0.2-0.2,0.3c-0.1,0.1-0.2,0.1-0.3,0.1c-0.1,0-0.2-0.1-0.3-0.2      c-0.1-0.1-0.1-0.2-0.1-0.4c0-0.2,0-0.3,0.1-0.4c0.1-0.1,0.2-0.2,0.3-0.2c0.1,0,0.3,0.1,0.3,0.2c0.1,0.1,0.1,0.3,0.1,0.4      L25.3,97.5l-0.6-0.1c0,0.1,0,0.1,0.1,0.2c0,0,0.1,0.1,0.1,0.1c0,0,0.1,0,0.1,0c0,0,0.1-0.1,0.1-0.1L25.3,97.5L25.3,97.5z       M24.7,97.2l0.4,0c0-0.1,0-0.1-0.1-0.2c0,0-0.1-0.1-0.1-0.1c-0.1,0-0.1,0-0.1,0.1C24.7,97,24.7,97.1,24.7,97.2z"
             id="path95" /><path
             fill="#FFFFFF"
             d="M26.3,97.6C26.3,97.7,26.3,97.7,26.3,97.6c0,0.1,0,0.1,0,0.1v0H26l0-0.1c0,0.1-0.1,0.1-0.1,0.1      c-0.1,0-0.1,0-0.2,0c-0.1,0-0.2,0-0.2-0.1c-0.1-0.1-0.1-0.1-0.1-0.3c0-0.1,0-0.2,0.1-0.2c0.1,0,0.1-0.1,0.3-0.1c0,0,0,0,0.1,0      c0.1,0,0.2-0.1,0.2-0.1c0,0,0-0.1,0-0.1c0,0-0.1,0-0.1,0c-0.1,0-0.1,0-0.1,0c0,0,0,0.1,0,0.1l-0.2,0v0c0-0.1,0-0.2,0.1-0.3      c0.1-0.1,0.2-0.1,0.3-0.1c0.1,0,0.1,0,0.2,0c0.1,0,0.1,0,0.1,0.1c0,0,0,0.1,0.1,0.1c0,0,0,0.1,0,0.2L26.3,97.6L26.3,97.6z       M26,97.3c0,0-0.1,0-0.2,0.1c0,0,0,0,0,0c-0.1,0-0.1,0-0.2,0c0,0,0,0,0,0.1c0,0,0,0.1,0,0.1c0,0,0.1,0,0.1,0      c0.1,0,0.1,0,0.2-0.1C26,97.5,26,97.4,26,97.3C26,97.3,26,97.3,26,97.3C26,97.3,26,97.3,26,97.3z"
             id="path97" /><path
             fill="#FFFFFF"
             d="M26.5,97.8v-1.4h0.2v1.4H26.5z"
             id="path99" /></g></g><path
         fill="#FFFFFF"
         d="M34.3,93.9l1,1.1l-1.4,0.8l0.4,1.6l-1.5,0l-0.1,1.8l-1.7-0.5l-0.3,1.7l-1.6-0.6l-0.8,1.5l-1.2-1.1    l-1.1,1.5l-1.2-1.3l-1.3,1.2l-0.8-1.4l-1.5,0.9l-0.5-1.6l-1.8,0.7l-0.3-1.6L17,98.9l0.2-1.6l-1.6,0l0.4-1.7l-1.2-0.7l1-1.1    l-0.9-1.6l1.4-0.5l-0.4-1.7l1.6,0l0.2-1.7l1.4,0.5l0.5-1.6l1.5,0.8l0.6-1.4l1.3,0.9l0.9-1.4l1.2,1.2l1-1.1l0.9,1.4l1.4-0.9    l0.6,1.5l1.4-0.7l0.4,1.6l1.7-0.3l-0.1,1.5l1.7,0.2l-0.5,1.5l1.5,0.6L34.3,93.9z M33.3,93.9c0-3.2-3.7-5.8-8.3-5.8    s-8.3,2.6-8.3,5.8c0,3.2,3.7,5.8,8.3,5.8S33.3,97.1,33.3,93.9z"
         id="path101" /><g
         id="g103"><g
           id="g105"><path
             fill="#FFFFFF"
             d="M22.3,91c0-0.4,0.2-0.5,0.4-0.5c0.2,0,0.4,0.1,0.4,0.5c0,0.4-0.2,0.5-0.4,0.5      C22.5,91.4,22.3,91.3,22.3,91L22.3,91z M22,91c0,0.6,0.5,0.7,0.7,0.7c0.2,0,0.7-0.1,0.7-0.7c0-0.6-0.5-0.7-0.7-0.7      S22,90.3,22,91L22,91z"
             id="path107" /><path
             fill="#FFFFFF"
             d="M23.8,91.6h-0.3v-0.8h-0.1v-0.2h0.1v-0.1c0-0.2,0.1-0.3,0.3-0.3c0.1,0,0.1,0,0.1,0v0.2h-0.1      c-0.1,0-0.1,0-0.1,0.1v0h0.2v0.2h-0.2L23.8,91.6L23.8,91.6z"
             id="path109" /><path
             fill="#FFFFFF"
             d="M24.4,91.6h-0.3v-0.8h-0.1v-0.2h0.1v-0.1c0-0.2,0.1-0.3,0.3-0.3c0.1,0,0.1,0,0.1,0v0.2h-0.1      c-0.1,0-0.1,0-0.1,0.1v0h0.2v0.2h-0.2L24.4,91.6L24.4,91.6z"
             id="path111" /><path
             fill="#FFFFFF"
             d="M24.9,90.6v1h-0.3v-1H24.9L24.9,90.6z M24.9,90.5h-0.3v-0.2h0.3V90.5L24.9,90.5z"
             id="path113" /><path
             fill="#FFFFFF"
             d="M26,91.3c0,0.1-0.1,0.4-0.5,0.4c-0.4,0-0.5-0.3-0.5-0.5c0-0.3,0.1-0.6,0.5-0.6c0.2,0,0.4,0.1,0.4,0.4      h-0.3c0-0.1-0.1-0.2-0.2-0.2c-0.2,0-0.2,0.2-0.2,0.3c0,0.1,0,0.3,0.2,0.3c0.1,0,0.2-0.1,0.2-0.2L26,91.3L26,91.3z"
             id="path115" /><path
             fill="#FFFFFF"
             d="M26.4,90.6v1h-0.3v-1H26.4L26.4,90.6z M26.4,90.5h-0.3v-0.2h0.3V90.5L26.4,90.5z"
             id="path117" /><path
             fill="#FFFFFF"
             d="M27.2,91.3c0,0.1-0.1,0.2-0.2,0.2c-0.1,0-0.1,0-0.1-0.1c0-0.1,0.1-0.1,0.2-0.2c0.1,0,0.2,0,0.2-0.1V91.3      L27.2,91.3z M27.5,90.9c0-0.2-0.3-0.3-0.4-0.3c-0.2,0-0.4,0-0.5,0.4h0.3c0-0.1,0-0.1,0.2-0.1c0.1,0,0.2,0,0.2,0.1      c0,0.1-0.1,0.1-0.1,0.1l-0.2,0c-0.2,0-0.3,0.1-0.3,0.3c0,0.2,0.2,0.3,0.3,0.3c0.2,0,0.3-0.1,0.3-0.1c0,0.1,0,0.1,0,0.1h0.3v0      c0,0-0.1,0-0.1-0.2L27.5,90.9L27.5,90.9z"
             id="path119" /><polygon
             fill="#FFFFFF"
             points="27.9,91.6 27.7,91.6 27.7,90.3 27.9,90.3     "
             id="polygon121" /></g></g><path
         fill="#FFFFFF"
         d="M25,99.2c4.3,0,7.8-2.4,7.8-5.3c0-2.9-3.5-5.3-7.8-5.3c-4.3,0-7.8,2.4-7.8,5.3    C17.2,96.8,20.7,99.2,25,99.2L25,99.2z M17.4,93.9c0-2.8,3.4-5.1,7.6-5.1c4.2,0,7.6,2.3,7.6,5.1S29.2,99,25,99    C20.8,99,17.4,96.7,17.4,93.9L17.4,93.9z"
         id="path123" /><g
         id="g125"><g
           id="g127"><path
             fill="#FFFFFF"
             d="M29.9,95.7c0.9,0,1.6-0.7,1.6-1.6s-0.7-1.6-1.6-1.6H20c-0.9,0-1.6,0.7-1.6,1.6s0.7,1.6,1.6,1.6H29.9      L29.9,95.7z M20,95.3c-0.7,0-1.2-0.5-1.2-1.2c0-0.7,0.5-1.2,1.2-1.2h9.8c0.7,0,1.2,0.5,1.2,1.2c0,0.7-0.5,1.2-1.2,1.2H20      L20,95.3z"
             id="path129" /><path
             fill="#FFFFFF"
             d="M19.6,94.8v-1.5l0.5,0l0.6,1l0-1h0.5l0,1.5c0,0-0.3,0-0.5,0c0-0.1-0.6-1-0.6-1v1L19.6,94.8L19.6,94.8z"
             id="path131" /><path
             fill="#FFFFFF"
             d="M22.7,93.8C22.7,93.8,22.7,93.8,22.7,93.8c0.1,0,0.1,0,0.2,0c0.4-0.1,0.6,0.1,0.6,0.1      c0.2,0.2,0.1,0.6,0.1,0.9c0,0-0.5,0-0.5,0s0-0.6,0-0.7c0-0.1-0.1-0.2-0.2-0.2c-0.1,0-0.2,0.1-0.2,0.2c0,0.2,0,0.7,0,0.7h-0.5v-1      L22.7,93.8L22.7,93.8z"
             id="path133" /><polygon
             fill="#FFFFFF"
             points="23.8,93.7 23.8,93.5 24.3,93.5 24.3,93.7 24.6,93.7 24.6,93.8 24.3,93.8 24.3,94.8 23.8,94.8       23.8,93.8 23.6,93.8 23.6,93.7     "
             id="polygon135" /><path
             fill="#FFFFFF"
             d="M24.5,94.3c0-0.3,0.3-0.6,0.6-0.6c0.1,0,0.3,0,0.4,0c0.1,0,0.2,0,0.2,0.1c0.1,0.1,0.2,0.3,0.2,0.4      l-0.8,0c0,0.1-0.1,0.4,0.2,0.4c0.1,0,0.1,0,0.2-0.1c0-0.1,0-0.1,0-0.2c0.1,0,0.4,0,0.5,0c-0.1,0.3-0.4,0.4-0.7,0.4      C25.1,94.9,24.6,94.8,24.5,94.3L24.5,94.3z M25,94.2l0.3,0c0-0.1,0-0.1,0-0.1c0-0.1-0.1-0.2-0.2-0.2C25.1,93.9,25,94,25,94      C25,94.1,25,94.1,25,94.2L25,94.2z"
             id="path137" /><path
             fill="#FFFFFF"
             d="M29.2,94.5c-0.1-0.1-0.1-0.3,0-0.5c0.1-0.1,0.3-0.3,0.4-0.3c0.1,0,0.3-0.1,0.5,0c0.1,0,0.3,0.1,0.4,0.3      c0.1,0.1,0.1,0.4,0,0.5c-0.1,0.1-0.2,0.2-0.3,0.3c-0.1,0-0.4,0.1-0.5,0C29.4,94.8,29.3,94.7,29.2,94.5L29.2,94.5z M29.8,94.7      c0.1,0,0.2-0.1,0.2-0.2c0-0.2,0-0.4,0-0.5c0-0.1,0-0.2-0.2-0.2c-0.2,0-0.2,0.1-0.2,0.2c0,0.1,0,0.4,0,0.5      C29.6,94.6,29.6,94.7,29.8,94.7L29.8,94.7z"
             id="path139" /><path
             fill="#FFFFFF"
             d="M28.9,94.8c0,0-0.4,0-0.4,0c0,0,0-0.1,0-0.1c-0.1,0.1-0.6,0.1-0.8-0.3c0,0-0.1-0.3,0-0.5      c0.1-0.3,0.4-0.3,0.6-0.3c0.1,0,0.2,0.1,0.2,0.1l0-0.6l0.5,0C28.9,93.3,28.9,94.8,28.9,94.8L28.9,94.8z M28.5,94.6      c0,0,0-0.3,0-0.5c0,0,0-0.1,0-0.1c0,0-0.1-0.1-0.1-0.1c-0.1,0-0.2,0.1-0.2,0.1c0,0.1,0,0.3,0,0.5c0,0,0,0.1,0.1,0.1      C28.3,94.7,28.4,94.7,28.5,94.6L28.5,94.6z"
             id="path141" /><polygon
             fill="#FFFFFF"
             points="22,94.8 22,93.8 21.5,93.8 21.5,94.8     "
             id="polygon143" /><polygon
             fill="#FFFFFF"
             points="22,93.6 22,93.3 21.5,93.3 21.5,93.6     "
             id="polygon145" /><path
             fill="#FFFFFF"
             d="M26.5,93.8C26.6,93.8,26.6,93.8,26.5,93.8c0.1,0,0.1,0,0.2,0c0.4-0.1,0.6,0.1,0.6,0.1      c0.2,0.2,0.1,0.6,0.1,0.9c0,0-0.5,0-0.5,0s0-0.6,0-0.7c0-0.1-0.1-0.2-0.2-0.2c-0.1,0-0.2,0.1-0.2,0.2c0,0.2,0,0.7,0,0.7h-0.5v-1      L26.5,93.8L26.5,93.8z"
             id="path147" /><path
             fill="#FFFFFF"
             d="M30.2,93.6L30.2,93.6l0-0.2h0.1c0,0,0.1,0,0.1,0C30.3,93.5,30.3,93.6,30.2,93.6L30.2,93.6L30.2,93.6      L30.2,93.6L30.2,93.6L30.2,93.6L30.2,93.6z M30.2,93.5C30.2,93.5,30.2,93.5,30.2,93.5C30.2,93.5,30.2,93.5,30.2,93.5L30.2,93.5      L30.2,93.5L30.2,93.5L30.2,93.5z M30.2,93.7c-0.1,0-0.1-0.1-0.1-0.1c0-0.1,0.1-0.1,0.1-0.1c0.1,0,0.1,0.1,0.1,0.1      C30.4,93.6,30.3,93.7,30.2,93.7L30.2,93.7z M30.2,93.4c-0.1,0-0.1,0-0.1,0.1c0,0.1,0,0.1,0.1,0.1v0c0.1,0,0.1,0,0.1-0.1      C30.3,93.5,30.3,93.4,30.2,93.4L30.2,93.4z"
             id="path149" /></g></g></g><g
       id="g151"><polygon
         fill="#FFFFFF"
         points="112.5,84.4 98,84.4 98,105.1 112.6,105.1 112.6,84.4   "
         id="polygon153" /><rect
         x="98.4"
         y="84.8"
         width="13.9"
         height="19.9"
         id="rect155" /><rect
         x="99.1"
         y="88.1"
         fill="#FFFFFF"
         width="12.4"
         height="12.3"
         id="rect157" /><path
         fill="#FFFFFF"
         d="M99.7,101.7C99.7,101.7,99.7,101.7,99.7,101.7c0,0.3-0.1,0.4-0.3,0.4c-0.4,0-0.4-0.2-0.4-0.5v-0.2    c0-0.3,0-0.5,0.4-0.5c0.2,0,0.3,0.1,0.3,0.3c0,0,0,0.1,0,0.1h-0.2c0-0.1,0-0.2-0.1-0.2c-0.2,0-0.2,0.2-0.2,0.3v0.3    c0,0.1,0,0.2,0.2,0.2c0.1,0,0.1-0.2,0.1-0.3L99.7,101.7L99.7,101.7z"
         id="path159" /><path
         fill="#FFFFFF"
         d="M99.9,101.4c0-0.3,0-0.5,0.4-0.5s0.4,0.2,0.4,0.5v0.2c0,0.3,0,0.5-0.4,0.5c-0.3,0-0.4-0.2-0.4-0.5V101.4z     M100.1,101.7c0,0.1,0,0.2,0.2,0.2c0.2,0,0.2-0.2,0.2-0.3v-0.3c0-0.1,0-0.3-0.2-0.3c-0.2,0-0.2,0.2-0.2,0.3V101.7z"
         id="path161" /><path
         fill="#FFFFFF"
         d="M101.4,100.9h0.2v1.1h-0.2l-0.2-0.4c-0.1-0.1-0.1-0.3-0.2-0.4l0,0c0,0.1,0,0.2,0,0.3c0,0.1,0,0.2,0,0.3    v0.2h-0.2v-1.1h0.2l0.2,0.4c0.1,0.1,0.1,0.3,0.2,0.4l0,0c0-0.1,0-0.2,0-0.3c0-0.1,0-0.2,0-0.3L101.4,100.9L101.4,100.9z"
         id="path163" /><polygon
         fill="#FFFFFF"
         points="101.7,100.9 102.4,100.9 102.4,101.1 102.2,101.1 102.2,102 102,102 102,101.1 101.7,101.1   "
         id="polygon165" /><polygon
         fill="#FFFFFF"
         points="102.5,102 102.5,100.9 103.2,100.9 103.2,101.1 102.8,101.1 102.8,101.4 103.1,101.4 103.1,101.5     102.8,101.5 102.8,101.9 103.2,101.9 103.2,102   "
         id="polygon167" /><path
         fill="#FFFFFF"
         d="M103.8,100.9h0.2v1.1h-0.2l-0.2-0.4c-0.1-0.1-0.1-0.3-0.2-0.4l0,0c0,0.1,0,0.2,0,0.3c0,0.1,0,0.2,0,0.3    v0.2h-0.2v-1.1h0.2l0.2,0.4c0.1,0.1,0.1,0.3,0.2,0.4l0,0c0-0.1,0-0.2,0-0.3c0-0.1,0-0.2,0-0.3V100.9z"
         id="path169" /><polygon
         fill="#FFFFFF"
         points="104.2,100.9 104.9,100.9 104.9,101.1 104.6,101.1 104.6,102 104.4,102 104.4,101.1 104.2,101.1       "
         id="polygon171" /><path
         fill="#FFFFFF"
         d="M105.6,101.6v0.5h-0.2v-1.1h0.4c0.2,0,0.3,0.1,0.3,0.3c0,0.1,0,0.2-0.2,0.3v0c0.1,0,0.2,0.1,0.2,0.2    c0,0,0,0.3,0,0.3v0h-0.2c0-0.1,0-0.2,0-0.3s0-0.2-0.1-0.2C105.8,101.6,105.7,101.6,105.6,101.6L105.6,101.6L105.6,101.6z     M105.6,101.4h0.2c0.1,0,0.1,0,0.1-0.2c0-0.1-0.1-0.1-0.1-0.1h-0.2V101.4z"
         id="path173" /><path
         fill="#FFFFFF"
         d="M106.2,102l0.3-1.1h0.3l0.3,1.1h-0.2l-0.1-0.3h-0.3l-0.1,0.3H106.2z M106.6,101.6h0.2l-0.1-0.3    c0,0,0-0.1,0-0.2c0,0,0,0,0-0.1l0,0c0,0,0,0,0,0.1c0,0,0,0.1,0,0.2L106.6,101.6z"
         id="path175" /><polygon
         fill="#FFFFFF"
         points="107.1,100.9 107.8,100.9 107.8,101.1 107.6,101.1 107.6,102 107.4,102 107.4,101.1 107.1,101.1       "
         id="polygon177" /><polygon
         fill="#FFFFFF"
         points="107.9,102 107.9,100.9 108.6,100.9 108.6,101.1 108.2,101.1 108.2,101.4 108.5,101.4 108.5,101.5     108.2,101.5 108.2,101.9 108.6,101.9 108.6,102   "
         id="polygon179" /><path
         fill="#FFFFFF"
         d="M108.7,102v-1.1h0.4c0.1,0,0.2,0,0.2,0.1c0,0.1,0.1,0.2,0.1,0.4c0,0.2,0,0.5-0.2,0.6c0,0-0.1,0-0.2,0    L108.7,102L108.7,102z M109,101.9c0.2,0,0.2-0.1,0.2-0.4c0-0.3,0-0.4-0.2-0.4h-0.1L109,101.9L109,101.9z"
         id="path181" /><path
         fill="#FFFFFF"
         d="M110,102v-1.1h0.3c0.1,0,0.2,0,0.2,0.1c0,0.1,0.1,0.1,0.1,0.2c0,0.1,0,0.2-0.1,0.2l0,0    c0.1,0,0.2,0.1,0.2,0.3c0,0,0,0.1,0,0.1c0,0.1-0.1,0.2-0.3,0.2L110,102L110,102z M110.3,101.9c0,0,0.1,0,0.1,0    c0.1,0,0.1-0.1,0.1-0.2c0-0.1,0-0.2-0.2-0.2h-0.1L110.3,101.9L110.3,101.9L110.3,101.9z M110.3,101.4c0,0,0.1,0,0.2,0    c0,0,0-0.1,0-0.1c0-0.1,0-0.1-0.1-0.1h-0.1L110.3,101.4L110.3,101.4z"
         id="path183" /><path
         fill="#FFFFFF"
         d="M111.2,101.2c0,0.1,0,0.1,0,0.2h0c0-0.1,0-0.1,0.1-0.2l0.1-0.3h0.2l-0.3,0.6v0.5h-0.2v-0.5l-0.3-0.6h0.2    L111.2,101.2z"
         id="path185" /><polygon
         fill="#FFFFFF"
         points="99.1,104 99.1,102.4 101.4,102.4 101.4,102.8 100,102.8 100,103 101.2,103 101.2,103.4 100,103.4     100,103.6 101.5,103.6 101.5,104   "
         id="polygon187" /><path
         fill="#FFFFFF"
         d="M103.8,102.9c0-0.1-0.1-0.1-0.1-0.1c-0.1,0-0.1,0-0.2,0c-0.2,0-0.3,0-0.3,0.1c0,0.2,1.6,0.1,1.6,0.7    c0,0.4-0.6,0.6-1.3,0.6c-0.7,0-1.2-0.3-1.3-0.5h0.9c0,0.1,0.1,0.1,0.2,0.1c0.1,0,0.2,0,0.3,0c0.2,0,0.4,0,0.4-0.1    c0-0.2-1.6-0.1-1.6-0.7c0-0.3,0.5-0.5,1.2-0.5c0.8,0,1.1,0.2,1.2,0.5H103.8L103.8,102.9z"
         id="path189" /><path
         fill="#FFFFFF"
         d="M106.4,103.4v0.6h-0.9v-1.6h1.3c0.9,0,1.3,0.1,1.3,0.5c0,0.2-0.1,0.3-0.5,0.4c0.3,0.1,0.5,0.1,0.5,0.4    c0,0.2,0,0.3,0.1,0.3v0h-0.9c0,0,0-0.1,0-0.3c0-0.2-0.1-0.3-0.5-0.3H106.4L106.4,103.4z M106.4,103.1h0.4c0.3,0,0.4,0,0.4-0.2    c0-0.1-0.2-0.2-0.4-0.2h-0.4L106.4,103.1L106.4,103.1z"
         id="path191" /><path
         fill="#FFFFFF"
         d="M109,104v-1.6h1.4c0.6,0,1.1,0.1,1.1,0.4c0,0.2-0.2,0.3-0.4,0.4c0.3,0,0.5,0.2,0.5,0.4    c0,0.4-0.5,0.5-1.2,0.5H109z M109.9,103.3v0.3h0.4c0.2,0,0.4,0,0.4-0.1c0-0.1-0.2-0.2-0.5-0.2H109.9L109.9,103.3z M109.9,102.8    v0.3h0.4c0.2,0,0.3,0,0.3-0.1c0-0.1-0.2-0.1-0.4-0.1H109.9z"
         id="path193" /><path
         d="M99.5,89.2c0-0.4,0.3-0.6,0.7-0.6c0.4,0,0.7,0.3,0.7,0.6c0,0.4-0.3,0.7-0.7,0.7C99.8,89.9,99.5,89.6,99.5,89.2     M100.8,89.2c0-0.3-0.3-0.5-0.6-0.5c-0.3,0-0.6,0.2-0.6,0.5c0,0.3,0.3,0.5,0.6,0.5C100.5,89.7,100.8,89.5,100.8,89.2 M100,89.3    v0.3h-0.1v-0.8h0.3c0.2,0,0.3,0,0.3,0.2c0,0.1-0.1,0.2-0.2,0.2l0,0c0.1,0,0.1,0.1,0.1,0.2c0,0.1,0,0.2,0,0.2h-0.2c0,0,0-0.1,0-0.1    c0-0.1,0-0.1,0-0.2c0,0-0.1,0-0.1,0L100,89.3 M100.2,89.1c0.1,0,0.2-0.1,0.2-0.1c0-0.1,0-0.1-0.1-0.1H100v0.2L100.2,89.1    L100.2,89.1z"
         id="path195" /><polygon
         fill="#FFFFFF"
         points="110.5,86.6 111,86.6 111,86 111.3,86 111.3,86.6 111.8,86.6 111.8,86.9 111.3,86.9 111.3,87.4     111,87.4 111,86.9 110.5,86.9   "
         id="polygon197" /><polygon
         fill="#FFFFFF"
         points="109.5,85.5 110.4,85.5 110.4,85.9 110,87.4 109.6,87.4 110.1,85.8 109.5,85.8   "
         id="polygon199" /><path
         fill="#FFFFFF"
         d="M108.4,85.8c0.1-0.1,0.3-0.2,0.3-0.3h0.3v1.9h-0.4v-1.5c-0.1,0.1-0.2,0.2-0.3,0.2V85.8L108.4,85.8z"
         id="path201" /><polygon
         fill="#FFFFFF"
         points="106.9,87.1 106.9,86.5 107.5,86.5 107.5,86.2 106.9,86.2 106.9,85.7 107.6,85.7 107.6,85.4     106.6,85.4 106.6,87.4 107.6,87.4 107.6,87.1   "
         id="polygon203" /><path
         fill="#FFFFFF"
         d="M106,86.4L106,86.4c0.3,0,0.3-0.2,0.3-0.5c0-0.3-0.2-0.5-0.4-0.5h-0.7v2h0.4v-0.8h0.1    c0.3,0,0.3,0.2,0.3,0.4c0,0.1,0,0.3,0,0.4h0.4c0-0.1,0-0.5,0-0.6C106.3,86.5,106.1,86.4,106,86.4 M105.7,86.3h-0.2v-0.6h0.2    c0.1,0,0.2,0.1,0.2,0.3C105.9,86.1,105.9,86.3,105.7,86.3"
         id="path205" /><path
         fill="#FFFFFF"
         d="M104.6,86.8c0,0.2-0.1,0.3-0.2,0.3c-0.1,0-0.2-0.1-0.2-0.3v-1.4h-0.4v1.4c0,0.4,0.2,0.6,0.6,0.6    c0.5,0,0.6-0.3,0.6-0.6v-1.4h-0.4L104.6,86.8L104.6,86.8z"
         id="path207" /><polygon
         fill="#FFFFFF"
         points="102.3,85.8 102.8,85.8 102.8,87.4 103.2,87.4 103.2,85.8 103.6,85.8 103.6,85.4 102.3,85.4   "
         id="polygon209" /><path
         fill="#FFFFFF"
         d="M101.5,85.4l-0.5,2h0.4l0.1-0.4h0.5l0.1,0.4h0.4l-0.5-2H101.5z M101.6,86.7l0.2-0.9h0l0.2,0.9H101.6z"
         id="path211" /><polygon
         fill="#FFFFFF"
         points="100,86.8 100,86.8 99.7,85.4 99.1,85.4 99.1,87.4 99.4,87.4 99.4,85.9 99.5,85.9 99.8,87.4     100.2,87.4 100.5,85.9 100.5,85.9 100.5,87.4 100.9,87.4 100.9,85.4 100.3,85.4   "
         id="polygon213" /><polygon
         points="99.5,90.9 103.4,89.9 105.6,95 105.6,95 105,89.4 108.9,88.4 111.3,97.4 108.9,98 107.2,91.6 107.2,91.6     107.9,98.3 105.3,99 102.6,92.8 102.6,92.8 104.3,99.3 102,99.9   "
         id="polygon215" /></g></g><g
     id="g4379"
     transform="matrix(0.05559952,0,0,0.05559952,43.432726,12.880456)"><path
       style="fill:#ff0000"
       inkscape:connector-curvature="0"
       id="path9-5"
       d="m 338.83098,17.757019 c -20.41063,0 -37.15028,-16.5928117 -37.15028,-37.150278 0,-20.557466 16.59281,-37.150278 37.15028,-37.150278 20.41063,0 37.15028,16.592812 37.15028,37.150278 0,20.5574663 -16.59281,37.150278 -37.15028,37.150278 z m 0,-59.029296 c -12.0408,0 -21.87902,9.838216 -21.87902,21.879018 0,12.0408017 9.83822,21.8790177 21.87902,21.8790177 12.0408,0 21.87902,-9.838216 21.87902,-21.8790177 0,-12.040802 -9.83822,-21.879018 -21.87902,-21.879018 z"
       class="st0" /><path
       style="fill:#ff5ddc"
       inkscape:connector-curvature="0"
       id="path11"
       d="m 463.05681,20.106444 c -0.29368,0 -0.73419,0 -1.02787,0 l -56.3862,-7.341952 C 403.587,12.470814 401.82493,11.442941 400.65022,9.827711 399.4755,8.2124815 398.88815,6.1567349 399.18183,4.2478273 l 7.34195,-56.3861933 c 0.58736,-4.111493 4.40517,-7.048274 8.51666,-6.607757 l 56.3862,7.341952 c 2.05574,0.293678 3.81781,1.321552 4.99252,2.936781 1.17472,1.61523 1.76207,3.670976 1.4684,5.579884 l -7.34196,56.386193 c -0.44051,3.817815 -3.67097,6.607757 -7.48879,6.607757 z m -47.72269,-21.5853395 41.11493,5.4330447 5.43305,-41.1149322 -41.11493,-5.433045 -5.43305,41.1149325 z"
       class="st1" /><path
       style="fill:#027fe1"
       inkscape:connector-curvature="0"
       id="path13-7"
       d="m 339.85885,-75.045257 c -0.58735,0 -1.02787,0 -1.61523,-0.146839 -4.11149,-0.881035 -6.75459,-4.845689 -5.87356,-8.957182 l 12.0408,-57.707742 c 0.88104,-4.1115 4.84569,-6.7546 8.95718,-5.87356 4.1115,0.88103 6.7546,4.84568 5.87357,8.95718 l -12.04081,57.707742 c -0.58735,3.524137 -3.81781,6.020401 -7.34195,6.020401 z"
       class="st2" /><path
       style="fill:#027fe1"
       inkscape:connector-curvature="0"
       id="path15"
       d="m 339.85885,-75.045257 c -0.58735,0 -1.02787,0 -1.61523,-0.146839 -4.11149,-0.881035 -6.75459,-4.845689 -5.87356,-8.957182 l 12.0408,-57.707742 c 0.88104,-4.1115 4.84569,-6.7546 8.95718,-5.87356 4.1115,0.88103 6.7546,4.84568 5.87357,8.95718 l -12.04081,57.707742 c -0.58735,3.524137 -3.81781,6.020401 -7.34195,6.020401 z"
       class="st2" /><path
       style="fill:#027fe1"
       inkscape:connector-curvature="0"
       id="path17-6"
       d="m 374.80655,-97.952148 c -0.58736,0 -1.02788,0 -1.61523,-0.146839 l -57.70775,-12.040803 c -4.11149,-0.88103 -6.7546,-4.84569 -5.87356,-8.95718 0.88103,-4.11149 4.84569,-6.7546 8.95718,-5.87356 l 57.70775,12.0408 c 4.11149,0.88103 6.75459,4.84569 5.87356,8.95718 -0.7342,3.52414 -3.81782,6.020402 -7.34195,6.020402 z"
       class="st2" /><path
       style="fill:#8aee49"
       inkscape:connector-curvature="0"
       id="path19-4"
       d="m 414.45309,-79.15675 c -1.90891,0 -3.67098,-0.734196 -4.99253,-1.908908 -2.05575,-1.762069 -2.93678,-4.55201 -2.34942,-7.195113 l 10.42557,-49.631599 c 0.58735,-2.6431 2.49626,-4.84569 4.99253,-5.57988 2.49626,-0.88104 5.43304,-0.29368 7.48879,1.46839 l 38.03131,33.4793 c 2.05575,1.76207 2.93678,4.55201 2.34942,7.19511 -0.58735,2.643107 -2.49626,4.845692 -4.99252,5.726726 l -48.45689,16.005456 c -1.02787,0.293678 -1.76207,0.440518 -2.49626,0.440518 z m 15.12442,-42.877 -4.99253,23.934763 23.34741,-7.782473 -18.35488,-16.15229 z"
       class="st3" /><path
       style="fill:#808080"
       inkscape:connector-curvature="0"
       id="path21-5"
       d="M 667.75044,304.09316 620.02775,139.48659 c -2.20258,-7.78247 -10.71925,-14.09655 -18.7954,-14.09655 l -423.19013,0 c -8.07614,0 -16.44597,6.31408 -18.79539,14.09655 L 112.11149,303.21212 C 109.90891,310.99459 108,323.91643 108,331.99258 l 0,184.72352 c 0,8.07614 6.60776,14.6839 14.6839,14.6839 l 534.49413,0 c 8.07615,0 14.6839,-6.60776 14.6839,-14.6839 l 0,-183.84249 c 0,-8.07615 -1.9089,-20.99798 -4.11149,-28.78045 z M 617.972,288.67506 161.74309,288.0877 c -8.07615,0 -12.92184,-6.31408 -10.57241,-14.09655 L 181.41952,168.8544 c 2.20259,-7.78247 10.71925,-14.09655 18.7954,-14.09655 l 378.99158,0 c 8.07614,0 16.59281,6.31408 18.79539,14.09655 l 30.68936,105.72411 c 2.20259,7.78247 -2.6431,14.09655 -10.71925,14.09655 z"
       class="st4" /><path
       style="fill:#ffffff"
       d="m 160.42154,435.80778 -22.90689,0 0,-38.32499 61.23188,0 0,7.63563 -38.32499,0 0,30.68936 0,0 z"
       class="st5"
       inkscape:connector-curvature="0"
       id="path3079_4_" /><path
       style="fill:#ffffff"
       d="m 229.28905,428.02531 38.32499,0 0,7.63563 -61.23188,0 0,-38.32499 61.23188,0 0,22.90689 -38.32499,0 0,7.78247 z m 0,-15.27126 15.27126,0 0,-7.63563 -15.27126,0 0,7.63563 z"
       class="st5"
       inkscape:connector-curvature="0"
       id="path3081_4_" /><path
       style="fill:#ffffff"
       d="m 298.15656,428.02531 38.32499,0 0,7.63563 -61.23188,0 0,-38.32499 61.23188,0 0,7.63563 -38.32499,0 0,23.05373 z"
       class="st5"
       inkscape:connector-curvature="0"
       id="path3083_4_" /><path
       style="fill:#ffffff"
       d="m 343.97035,397.48279 61.23188,0 0,38.32499 -61.23188,0 0,-22.90689 38.32499,0 0,-7.63563 -38.32499,0 0,-7.78247 z m 23.05373,30.54252 15.27126,0 0,-7.63563 -15.27126,0 0,7.63563 z"
       class="st5"
       inkscape:connector-curvature="0"
       id="path3085_4_" /><path
       style="fill:#ffffff"
       d="m 412.83786,366.94027 22.90689,0 0,68.86751 -22.90689,0 0,-68.86751 z"
       class="st5"
       inkscape:connector-curvature="0"
       id="path3087_4_" /><path
       style="fill:#ffffff"
       d="m 443.52722,366.94027 22.90689,0 0,30.54252 38.32499,0 0,38.32499 -61.23188,0 0,-68.86751 z m 22.90689,61.08504 15.27126,0 0,-22.90689 -15.27126,0 0,22.90689 z"
       class="st5"
       inkscape:connector-curvature="0"
       id="path3089_4_" /><path
       style="fill:#ffffff"
       d="m 512.39473,397.48279 61.23188,0 0,38.32499 -61.23188,0 0,-38.32499 z m 22.90689,30.54252 15.27126,0 0,-22.90689 -15.27126,0 0,22.90689 z"
       class="st5"
       inkscape:connector-curvature="0"
       id="path3091_4_" /><path
       style="fill:#ffffff"
       d="m 588.89787,420.38968 7.63563,0 0,-7.63563 -7.63563,0 0,-7.63563 -7.63563,0 0,-7.63563 22.90689,0 0,7.63563 15.27126,0 0,-7.63563 22.9069,0 0,7.63563 -7.63563,0 0,7.63563 -7.63563,0 0,7.63563 7.63563,0 0,7.63563 7.63563,0 0,7.63563 -22.9069,0 0,-7.63563 -15.27126,0 0,7.63563 -22.90689,0 0,-7.63563 7.63563,0 0,-7.63563 z"
       class="st5"
       inkscape:connector-curvature="0"
       id="path3093_4_" /><path
       style="fill:#ffffff"
       inkscape:connector-curvature="0"
       id="path31-3"
       d="M 580.08753,185.15353 C 579.50017,157.25411 578.76598,148.29693 576.12288,137.284 567.31253,100.28056 552.04127,71.353271 529.42806,48.886897 498.44502,18.050698 460.56055,15.113917 416.80251,40.076554 l -10.13189,5.873562 C 391.10568,45.803277 373.19132,44.922243 369.3735,43.89437 366.43672,41.985462 359.9758,38.461325 355.13011,35.965061 325.17495,21.134318 297.86289,19.519088 273.92812,31.266212 242.06405,46.83115 214.31147,89.267635 203.1517,139.48659 c -3.23046,14.53706 -3.52414,19.08907 -3.3773,55.21148 0.14684,40.96809 1.02788,48.45688 7.34196,61.08504 6.0204,12.0408 14.97758,20.11695 28.33993,25.25632 3.3773,1.32155 6.90144,1.90891 10.71925,1.90891 21.4385,0 49.77844,-20.11695 74.15372,-53.7431 l 7.19511,-9.83821 124.96003,0 7.19511,9.83821 c 18.94224,26.28419 50.80631,54.18361 72.24481,54.18361 16.29914,0 32.89195,-11.45344 41.26178,-28.48677 6.31407,-13.94971 7.9293,-28.33994 6.90143,-69.74855 z"
       class="st5" /><path
       style="fill:#808080"
       inkscape:connector-curvature="0"
       id="path33"
       d="m 574.36081,185.30037 c -0.58736,-27.4589 -1.32155,-36.1224 -3.81782,-46.69482 -8.6635,-36.1224 -23.20057,-63.874981 -45.07958,-85.60716 C 496.24244,23.924259 461.44158,21.281157 419.73929,45.069082 l -11.60028,6.607757 c 0,0 -38.32499,-0.440517 -41.55545,-2.789942 -2.20259,-1.46839 -8.51667,-4.992527 -14.09655,-7.782469 -28.33994,-14.096549 -53.74309,-15.711778 -76.20946,-4.69885 -30.24885,14.830744 -56.82671,55.798837 -67.83964,104.402562 -3.08362,13.94971 -3.3773,18.35488 -3.23046,54.03677 0.14684,40.08706 0.88103,46.84165 6.75459,58.44194 5.28621,10.71925 13.36236,17.76752 25.25632,22.46637 l 0,0 c 19.23591,7.48879 51.5405,-13.06867 78.11837,-49.92527 l 8.95718,-12.33448 130.83359,0 8.95718,12.33448 c 20.99799,29.07413 50.65948,51.83418 67.54597,51.83418 13.94971,0 28.78045,-10.27873 35.97556,-25.25632 6.31408,-12.92183 7.78247,-26.87154 6.7546,-67.10544 z m -233.03357,-52.56838 -19.82327,0 0,19.82327 c 0,6.16724 -5.13936,11.30661 -11.3066,11.30661 -6.16724,0 -11.30661,-5.13937 -11.30661,-11.30661 l 0,-19.82327 -19.82327,0 c -6.16724,0 -11.30661,-5.13936 -11.30661,-11.3066 0,-6.16724 5.13937,-11.30661 11.30661,-11.30661 l 19.82327,0 0,-19.823272 c 0,-6.16724 5.13937,-11.306607 11.30661,-11.306607 6.16724,0 11.3066,5.139367 11.3066,11.306607 l 0,19.823272 19.82327,0 c 6.16724,0 11.30661,5.13937 11.30661,11.30661 -0.14684,6.31407 -5.13937,11.3066 -11.30661,11.3066 z M 487.28525,70.765915 c 9.54454,0 17.32701,7.782469 17.32701,17.327007 0,9.544538 -7.78247,17.327008 -17.32701,17.327008 -9.54453,0 -17.327,-7.78247 -17.327,-17.327008 0.14684,-9.544538 7.78247,-17.327007 17.327,-17.327007 z M 431.0459,104.24522 c 0,-9.544541 7.78247,-17.32701 17.32701,-17.32701 9.54454,0 17.327,7.782469 17.327,17.32701 0,9.54454 -7.78246,17.327 -17.327,17.327 -9.54454,0 -17.32701,-7.78246 -17.32701,-17.327 z m 35.97557,58.58878 c -9.54454,0 -17.32701,-7.78247 -17.32701,-17.32701 0,-9.54454 7.78247,-17.32701 17.32701,-17.32701 9.54453,0 17.327,7.78247 17.327,17.32701 0,9.54454 -7.78247,17.32701 -17.327,17.32701 z m 36.41608,-17.32701 c -9.54454,0 -17.32701,-7.78247 -17.32701,-17.32701 0,-9.54454 7.78247,-17.32701 17.32701,-17.32701 9.54454,0 17.32701,7.78247 17.32701,17.32701 0,9.69138 -7.78247,17.32701 -17.32701,17.32701 z"
       class="st4" /><g
       transform="matrix(2.0751218,0,0,2.0751218,-336.96336,-563.55356)"
       id="g35"><path
         style="fill:#d40000"
         d="m 403.4,511.6 0,0 0,0 z"
         class="st6"
         inkscape:connector-curvature="0"
         id="path3_1_" /><path
         style="fill:#d40000"
         d="m 403.4,504.7 0,0 0,0 z"
         class="st6"
         inkscape:connector-curvature="0"
         id="path5_1_" /><path
         style="fill:#d40000"
         d="m 403.4,497.9 0,0 0,0 z"
         class="st6"
         inkscape:connector-curvature="0"
         id="path7_1_" /><path
         style="fill:#d40000"
         d="m 403.4,501.3 0,0 0,0 z"
         class="st6"
         inkscape:connector-curvature="0"
         id="path9_1_" /><path
         style="fill:#d40000"
         d="m 403.4,515 0,0 0,0 z"
         class="st6"
         inkscape:connector-curvature="0"
         id="path11_1_" /><path
         style="fill:#d40000"
         d="m 403.4,508.1 0,0 0,0 z"
         class="st6"
         inkscape:connector-curvature="0"
         id="path13_1_" /><path
         style="fill:#d40000"
         d="m 403.4,494.5 0,0 0,0 z"
         class="st6"
         inkscape:connector-curvature="0"
         id="path15_1_" /></g></g></svg>