<?xml version="1.0" encoding="UTF-8" standalone="no"?>
<svg
   xmlns:dc="http://purl.org/dc/elements/1.1/"
   xmlns:cc="http://creativecommons.org/ns#"
   xmlns:rdf="http://www.w3.org/1999/02/22-rdf-syntax-ns#"
   xmlns:svg="http://www.w3.org/2000/svg"
   xmlns="http://www.w3.org/2000/svg"
   viewBox="0 0 191.9175 686.14252"
   height="686.14252"
   width="191.9175"
   xml:space="preserve"
   version="1.1"
   id="svg2"><metadata
     id="metadata8"><rdf:RDF><cc:Work
         rdf:about=""><dc:format>image/svg+xml</dc:format><dc:type
           rdf:resource="http://purl.org/dc/dcmitype/StillImage" /><dc:title></dc:title></cc:Work></rdf:RDF></metadata><defs
     id="defs6"><clipPath
       id="clipPath16"
       clipPathUnits="userSpaceOnUse"><path
         id="path18"
         d="m 0,548.914 153.534,0 L 153.534,0 0,0 0,548.914 Z" /></clipPath><clipPath
       id="clipPath24"
       clipPathUnits="userSpaceOnUse"><path
         id="path26"
         d="m 0,353.162 153.534,0 0,-157.516 -153.534,0 0,157.516 z" /></clipPath><linearGradient
       id="linearGradient48"
       spreadMethod="pad"
       gradientTransform="matrix(146.584,0,0,146.584,-679.09601,326.46927)"
       gradientUnits="userSpaceOnUse"
       y2="0"
       x2="1"
       y1="0"
       x1="0"><stop
         id="stop50"
         offset="0"
         style="stop-opacity:1;stop-color:#999999" /><stop
         id="stop52"
         offset="0.32746"
         style="stop-opacity:1;stop-color:#ececec" /><stop
         id="stop54"
         offset="1"
         style="stop-opacity:1;stop-color:#999999" /></linearGradient><clipPath
       id="clipPath62"
       clipPathUnits="userSpaceOnUse"><path
         id="path64"
         d="m 0,548.914 153.534,0 L 153.534,0 0,0 0,548.914 Z" /></clipPath><clipPath
       id="clipPath70"
       clipPathUnits="userSpaceOnUse"><path
         id="path72"
         d="m 0,157.52 153.534,0 0,-157.51598694 -153.534,0 L 0,157.52 Z" /></clipPath><linearGradient
       id="linearGradient94"
       spreadMethod="pad"
       gradientTransform="matrix(146.584,0,0,146.584,-679.09589,130.82687)"
       gradientUnits="userSpaceOnUse"
       y2="0"
       x2="1"
       y1="0"
       x1="0"><stop
         id="stop96"
         offset="0"
         style="stop-opacity:1;stop-color:#999999" /><stop
         id="stop98"
         offset="0.32746"
         style="stop-opacity:1;stop-color:#ececec" /><stop
         id="stop100"
         offset="1"
         style="stop-opacity:1;stop-color:#999999" /></linearGradient><clipPath
       id="clipPath108"
       clipPathUnits="userSpaceOnUse"><path
         id="path110"
         d="m 0,548.914 153.534,0 L 153.534,0 0,0 0,548.914 Z" /></clipPath><clipPath
       id="clipPath144"
       clipPathUnits="userSpaceOnUse"><path
         id="path146"
         d="m 3.05176e-5,548.804 153.5339694824,0 0,-157.515 -153.5339694824,0 0,157.515 z" /></clipPath><linearGradient
       id="linearGradient168"
       spreadMethod="pad"
       gradientTransform="matrix(146.584,0,0,146.584,-679.09607,522.11163)"
       gradientUnits="userSpaceOnUse"
       y2="0"
       x2="1"
       y1="0"
       x1="0"><stop
         id="stop170"
         offset="0"
         style="stop-opacity:1;stop-color:#999999" /><stop
         id="stop172"
         offset="0.32746"
         style="stop-opacity:1;stop-color:#ececec" /><stop
         id="stop174"
         offset="1"
         style="stop-opacity:1;stop-color:#999999" /></linearGradient><clipPath
       id="clipPath182"
       clipPathUnits="userSpaceOnUse"><path
         id="path184"
         d="m 0,548.914 153.534,0 L 153.534,0 0,0 0,548.914 Z" /></clipPath></defs><g
     transform="matrix(1.25,0,0,-1.25,0,686.1425)"
     id="g10"><g
       id="g12"><g
         clip-path="url(#clipPath16)"
         id="g14"><g
           id="g20"><g
             id="g22" /><g
             id="g28"><g
               style="opacity:0.99607801"
               id="g30"
               clip-path="url(#clipPath24)"><path
                 id="path32"
                 style="fill:#3a61a6;fill-opacity:1;fill-rule:nonzero;stroke:none"
                 d="m 139.085,212.715 8.997,0 0,-6.412 -8.997,0 0,6.412 z M 1.788,353.159 C 0.798,353.159 0,352.361 0,351.371 L 0,197.435 c 0,-0.99 0.798,-1.789 1.788,-1.789 l 149.957,0 c 0.991,0 1.789,0.799 1.789,1.789 l 0,137.44 -1.467,0 0,5.909 1.467,0 0,2.445 -11.875,9.933 -3.185,0 0,-0.503 -12.825,0 -0.601,-0.447 -1.033,-0.741 0,-0.013 -0.014,0 -104.01,0 0,1.704 -18.203,0 0,-0.003 z" /></g></g></g></g></g><path
       id="path34"
       style="fill:#ffffff;fill-opacity:1;fill-rule:nonzero;stroke:none"
       d="m 18.395,284.676 116.742,0 0,-89.034 -116.742,0 0,89.034 z" /><g
       id="g36"><g
         id="g38"><g
           id="g44"><g
             id="g46"><path
               id="path56"
               style="fill:url(#linearGradient48);stroke:none"
               d="m 39.076,353.272 0,-50.923 c 0,-1.486 1.196,-2.682 2.682,-2.682 l 0,0 77.76,0 c 1.486,0 2.682,1.196 2.682,2.682 l 0,0 0,50.923 -83.124,0 z m 48.143,-7.725 22.715,0 0,-42.233 -22.715,0 0,42.233 z" /></g></g></g></g><g
       id="g58"><g
         clip-path="url(#clipPath62)"
         id="g60"><g
           id="g66"><g
             id="g68" /><g
             id="g74"><g
               style="opacity:0.99607801"
               id="g76"
               clip-path="url(#clipPath70)"><path
                 id="path78"
                 style="fill:#3a61a6;fill-opacity:1;fill-rule:nonzero;stroke:none"
                 d="m 139.085,17.072 8.997,0 0,-6.412 -8.997,0 0,6.412 z M 1.788,157.516 C 0.798,157.516 0,156.718 0,155.728 L 0,1.792 C 0,0.802 0.798,0.004 1.788,0.004 l 149.957,0 c 0.991,0 1.789,0.798 1.789,1.788 l 0,137.44 -1.467,0 0,5.91 1.467,0 0,2.445 -11.875,9.932 -3.185,0 0,-0.502 -12.825,0 -0.601,-0.448 -1.033,-0.74 0,-0.014 -0.014,0 -104.01,0 0,1.705 -18.203,0 0,-0.004 z" /></g></g></g><path
           id="path80"
           style="fill:#ffffff;fill-opacity:1;fill-rule:nonzero;stroke:none"
           d="m 18.395,89.034 116.742,0 0,-89.034 -116.742,0 0,89.034 z" /></g></g><g
       id="g82"><g
         id="g84"><g
           id="g90"><g
             id="g92"><path
               id="path102"
               style="fill:url(#linearGradient94);stroke:none"
               d="m 39.076,157.63 0,-50.923 c 0,-1.486 1.196,-2.683 2.682,-2.683 l 0,0 77.76,0 c 1.486,0 2.682,1.197 2.682,2.683 l 0,0 0,50.923 -83.124,0 z m 48.143,-7.726 22.715,0 0,-42.232 -22.715,0 0,42.232 z" /></g></g></g></g><g
       id="g104"><g
         clip-path="url(#clipPath108)"
         id="g106"><path
           id="path112"
           style="fill:#000000;fill-opacity:1;fill-rule:nonzero;stroke:none"
           d="m 99.226,32.758 2.603,0 0,-16.36 -2.603,0 0,16.36 z" /><g
           transform="translate(58.1057,29.6062)"
           id="g114"><path
             id="path116"
             style="fill:#000000;fill-opacity:1;fill-rule:nonzero;stroke:none"
             d="m 0,0 1.79,-6.807 -3.539,0 L 0,0 Z m 0.027,3.566 c -0.82,0 -1.519,-0.508 -1.79,-1.234 l 0,-0.013 -4.637,-15.527 2.779,0 1.072,4.218 5.166,0 1.126,-4.218 2.847,0 -4.759,15.54 -0.014,0 C 1.543,3.055 0.848,3.566 0.027,3.566" /></g><g
           transform="translate(63.1907,32.82)"
           id="g118"><path
             id="path120"
             style="fill:#000000;fill-opacity:1;fill-rule:nonzero;stroke:none"
             d="m 0,0 0,-2.197 4.041,0 0,-14.224 2.603,0 0,14.224 4.055,0 0,2.197 L 0,0 Z" /></g><g
           transform="translate(66.4438,53.3865)"
           id="g122"><path
             id="path124"
             style="fill:#000000;fill-opacity:1;fill-rule:nonzero;stroke:none"
             d="m 0,0 c 4.098,6.204 4.005,19.41 4.005,22.663 l 3.017,0 C 7.011,21.411 7.681,8.822 5.555,0.894 3.43,-7.034 -4.504,-15.927 -14.097,-15.927 l 0,5.625 c 2.821,0 9.999,4.098 14.097,10.302" /></g><g
           transform="translate(93.8076,22.3387)"
           id="g126"><path
             id="path128"
             style="fill:#000000;fill-opacity:1;fill-rule:nonzero;stroke:none"
             d="m 0,0 c -0.076,0.13 -0.122,0.286 -0.122,0.459 0,0.157 0.04,0.298 0.102,0.42 0.096,0.152 0.269,0.239 0.384,0.312 1.355,0.824 2.317,2.556 2.317,4.561 0,2.69 -1.693,4.894 -3.792,5.064 -0.262,0.034 -0.852,0.031 -0.852,0.031 l -2.962,0 10e-4,0 c -1.027,0 -1.863,-1.113 -1.863,-2.484 l 0.004,-0.004 0,-14.297 2.53,0 0,13.277 -0.002,0 c 0,0.416 0.254,0.755 0.565,0.755 l 1.707,0 c 0.155,0 0.618,-0.012 0.71,-0.029 l 0,-10e-4 C -0.518,7.981 0.095,7.265 0.273,6.316 0.283,6.277 0.289,6.239 0.295,6.2 l 0,-0.009 C 0.305,6.133 0.309,6.078 0.315,6.021 0.324,5.933 0.325,5.844 0.325,5.752 0.325,4.879 -0.035,4.115 -0.57,3.719 -0.678,3.633 -0.79,3.558 -0.908,3.494 -0.992,3.443 -1.09,3.396 -1.191,3.351 -1.874,3.029 -2.167,2.839 -2.452,2.474 -2.771,2.028 -2.973,1.426 -2.978,0.76 -2.983,0.135 -2.82,-0.437 -2.542,-0.88 l 3.213,-5.06 3.01,0 L 0,0" /></g><g
           transform="translate(79.14,29.6062)"
           id="g130"><path
             id="path132"
             style="fill:#000000;fill-opacity:1;fill-rule:nonzero;stroke:none"
             d="m 0,0 1.79,-6.807 -3.539,0 L 0,0 Z m 0.027,3.566 c -0.82,0 -1.519,-0.508 -1.79,-1.234 l 0,-0.013 -4.637,-15.527 2.779,0 1.072,4.218 5.166,0 1.126,-4.218 2.847,0 -4.759,15.54 -0.014,0 C 1.543,3.055 0.848,3.566 0.027,3.566 Z" /></g><path
           id="path134"
           style="fill:#000000;fill-opacity:1;fill-rule:nonzero;stroke:none"
           d="m 74.304,76.05 5.408,0 0,-38.67 -5.408,0 0,38.67 z" /><g
           transform="translate(87.5732,53.3865)"
           id="g136"><path
             id="path138"
             style="fill:#000000;fill-opacity:1;fill-rule:nonzero;stroke:none"
             d="m 0,0 c -4.098,6.204 -4.005,19.41 -4.005,22.663 l -3.017,0 C -7.011,21.411 -7.681,8.822 -5.555,0.894 -3.43,-7.034 4.504,-15.927 14.097,-15.927 l 0,5.625 C 11.276,-10.302 4.098,-6.204 0,0" /></g><g
           id="g140"><g
             id="g142" /><g
             id="g148"><g
               style="opacity:0.99607801"
               id="g150"
               clip-path="url(#clipPath144)"><path
                 id="path152"
                 style="fill:#3a61a6;fill-opacity:1;fill-rule:nonzero;stroke:none"
                 d="m 139.085,408.357 8.997,0 0,-6.412 -8.997,0 0,6.412 z M 1.788,548.801 C 0.798,548.801 0,548.003 0,547.013 L 0,393.077 c 0,-0.99 0.798,-1.788 1.788,-1.788 l 149.958,0 c 0.99,0 1.788,0.798 1.788,1.788 l 0,137.44 -1.467,0 0,5.909 1.467,0 0,2.445 -11.875,9.933 -3.185,0 0,-0.503 -12.825,0 -0.601,-0.447 -1.033,-0.74 0,-0.014 -0.014,0 -104.01,0 0,1.704 -18.203,0 0,-0.003 z" /></g></g></g><path
           id="path154"
           style="fill:#ffffff;fill-opacity:1;fill-rule:nonzero;stroke:none"
           d="m 18.395,480.319 116.742,0 0,-89.034 -116.742,0 0,89.034 z" /></g></g><g
       id="g156"><g
         id="g158"><g
           id="g164"><g
             id="g166"><path
               id="path176"
               style="fill:url(#linearGradient168);stroke:none"
               d="m 39.076,548.914 0,-50.922 c 0,-1.487 1.196,-2.683 2.683,-2.683 l 0,0 77.759,0 c 1.486,0 2.682,1.196 2.682,2.683 l 0,0 0,50.922 -83.124,0 z m 48.143,-7.725 22.715,0 0,-42.233 -22.715,0 0,42.233 z" /></g></g></g></g><g
       id="g178"><g
         clip-path="url(#clipPath182)"
         id="g180"><path
           id="path186"
           style="fill:#000000;fill-opacity:1;fill-rule:nonzero;stroke:none"
           d="m 31.342,467.925 90.849,0 0,-64.248 -90.849,0 0,64.248 z" /><path
           id="path188"
           style="fill:#ffffff;fill-opacity:1;fill-rule:nonzero;stroke:none"
           d="m 31.885,467.381 89.762,0 0,-40.135 -89.762,0 0,40.135 z" /><path
           id="path190"
           style="fill:#b7d1e2;fill-opacity:1;fill-rule:nonzero;stroke:none"
           d="m 31.885,425.068 89.762,0 0,-20.768 -89.762,0 0,20.768 z" /><g
           transform="translate(73.5388,431.7957)"
           id="g192"><path
             id="path194"
             style="fill:#ed1c24;fill-opacity:1;fill-rule:nonzero;stroke:none"
             d="m 0,0 c 3.265,0 5.911,-2.647 5.911,-5.911 0,-3.265 -2.646,-5.911 -5.911,-5.911 -3.265,0 -5.911,2.646 -5.911,5.911 C -5.911,-2.647 -3.265,0 0,0" /></g><g
           transform="translate(97.4866,437.2741)"
           id="g196"><path
             id="path198"
             style="fill:#000000;fill-opacity:1;fill-rule:nonzero;stroke:none"
             d="m 0,0 c 0.005,-0.539 -0.042,-1.106 0.215,-1.603 0.576,-1.335 1.26,-2.625 2.053,-3.845 0.315,-0.416 0.658,-0.85 1.139,-1.083 0.455,-0.003 0.796,0.331 1.164,0.55 C 4.149,-5.05 3.409,-4.322 2.945,-3.419 2.306,-2.317 1.9,-1.109 1.377,0.044 0.917,0.042 0.458,0.025 0,0 m -23.155,11.872 c -1.204,-0.641 -2.158,-1.661 -3.369,-2.298 -1.041,-0.651 -2.222,-0.999 -3.393,-1.335 -0.07,-0.721 0.616,-1.127 1.16,-1.437 1.073,-0.315 1.948,0.527 2.861,0.936 1.696,0.966 3.516,1.859 4.82,3.357 -0.413,0.731 -1.309,0.913 -2.079,0.777 m 36.309,0.11 c 0.83,-0.205 1.677,-0.408 2.543,-0.315 -0.105,0.408 -0.222,0.812 -0.336,1.218 -0.784,-0.109 -1.712,-0.201 -2.207,-0.903 m -2.336,4.564 C 9.759,15.79 9.01,14.472 9.117,13.156 c 0.971,0.41 1.927,0.856 2.84,1.388 0.007,0.782 0.009,1.564 -0.014,2.345 -0.39,-0.065 -0.833,-0.028 -1.125,-0.343 m -71.159,8.216 c 0.782,0.164 1.513,-0.247 2.143,-0.66 1.969,-1.36 3.973,-2.704 6.172,-3.678 2.424,-0.926 5.002,-1.603 7.616,-1.505 1.86,0.175 3.729,0.278 5.558,0.696 3.54,0.555 6.641,2.809 10.3,2.788 3.638,-0.004 7.656,0.073 10.736,-2.17 3.615,-2.296 7.859,-3.551 12.134,-3.649 2.117,0.004 4.191,0.602 6.312,0.508 0.897,-0.002 1.669,-0.52 2.523,-0.704 1.335,0.256 2.611,0.77 3.967,0.949 1.624,0.346 3.285,0.385 4.921,0.656 1.608,0.208 2.721,1.538 4.144,2.189 0.026,-1.571 -0.854,-2.947 -1.019,-4.487 0.849,-0.329 1.932,-0.292 2.536,-1.071 0.73,-0.983 0.936,-2.227 1.19,-3.396 0.124,-0.753 0.329,-1.514 0.229,-2.284 C 18.659,7.763 17.448,7.094 16.274,6.811 15.019,6.564 13.922,7.353 12.874,7.91 12.597,8.032 12.288,8.279 11.985,8.081 11.096,7.637 10.272,7.021 9.633,6.263 9.318,5.465 9.962,4.713 10.541,4.24 c 2.518,-1.988 6.118,-1.51 8.64,-3.505 1.335,-1.048 2.565,-2.607 2.567,-4.373 -1.281,-0.406 -2.728,-0.87 -4.03,-0.301 -0.714,0.326 -0.581,1.426 -1.332,1.687 -1.815,0.791 -3.834,0.887 -5.687,1.58 C 8.907,-0.014 7.057,0.679 5.563,1.902 6.352,2.571 7.209,3.206 7.78,4.083 7.743,4.471 7.411,5.08 6.954,4.856 5.794,4.408 4.511,4.102 3.552,3.276 3.521,0.095 4.275,-3.281 6.452,-5.708 7.22,-6.494 8.065,-7.405 9.229,-7.512 c 0.497,-0.119 1.076,-0.109 1.477,-0.471 0.492,-0.623 0.63,-1.428 0.873,-2.165 l -8.627,0 c -0.553,1.337 -1.465,2.468 -2.182,3.714 -1.491,2.628 -3.005,5.244 -4.459,7.892 -0.231,0.415 -0.528,0.854 -1.022,0.969 -1.913,0.548 -3.93,0.223 -5.876,0.55 -2.739,0.24 -5.481,0.579 -8.148,1.269 -1.185,0.313 -2.394,0.598 -3.475,1.197 1.001,1.036 2.329,1.643 3.405,2.581 -0.644,0.593 -1.557,0.887 -2.38,0.483 -2.446,-1.057 -4.576,-2.751 -7.085,-3.682 -1.533,-0.56 -3.087,-1.146 -4.722,-1.302 -1.767,-0.175 -3.158,1.123 -4.779,1.552 -0.598,0.182 -1.258,-0.15 -1.599,-0.642 -0.179,-1.02 0.271,-2.105 -0.109,-3.096 -0.897,-1.109 -2.143,-1.86 -3.277,-2.7 -0.658,-0.46 -1.486,-1.046 -2.31,-0.663 -0.954,0.681 -1.003,1.974 -0.849,3.029 0.534,1.129 2.065,1.173 2.772,2.142 0.182,2.387 -0.159,4.788 0.082,7.175 0.077,0.353 0.256,0.698 0.646,0.756 1.022,0.217 2.088,-0.002 3.118,0.175 0.081,0.077 0.242,0.229 0.324,0.306 0.133,1.298 0.033,2.607 0.002,3.906 -2.534,0.136 -5.019,-0.574 -7.549,-0.459 -1.824,0.17 -3.871,0.415 -5.215,1.801 -0.452,0.401 -0.191,1.078 -0.252,1.601 -0.376,0.142 -0.756,0.278 -1.136,0.404 -0.287,-0.533 -0.553,-1.076 -0.824,-1.618 -0.628,0.311 -1.332,0.605 -1.715,1.228 -0.189,0.765 -0.238,1.556 -0.294,2.34 -0.46,0.147 -0.926,0.276 -1.395,0.381 -0.115,-0.525 -0.224,-1.05 -0.318,-1.578 -1.799,0.637 -3.253,2.117 -3.855,3.923 -0.198,0.728 0.591,1.153 1.183,1.276" /></g><g
           transform="translate(37.0471,420.8989)"
           id="g200"><path
             id="path202"
             style="fill:#000000;fill-opacity:1;fill-rule:nonzero;stroke:none"
             d="m 0,0 1.169,0 0,-11.391 4.287,0 0,-1.298 -5.456,0 L 0,0 Z" /></g><g
           transform="translate(53.2172,414.7017)"
           id="g204"><path
             id="path206"
             style="fill:#000000;fill-opacity:1;fill-rule:nonzero;stroke:none"
             d="m 0,0 c 0,1.939 -0.219,3.259 -0.656,3.959 -0.438,0.699 -0.986,1.049 -1.643,1.049 -0.719,0 -1.282,-0.392 -1.689,-1.176 -0.407,-0.784 -0.611,-2.149 -0.611,-4.093 0,-3.362 0.782,-5.042 2.345,-5.042 0.658,0 1.198,0.372 1.62,1.117 C -0.211,-3.441 0,-2.046 0,0 m -5.828,-0.135 c 0,2.119 0.301,3.728 0.903,4.827 0.602,1.099 1.462,1.648 2.58,1.648 2.383,0 3.575,-2.169 3.575,-6.509 0,-2.254 -0.322,-3.894 -0.964,-4.92 -0.643,-1.025 -1.472,-1.538 -2.489,-1.538 -1.103,0 -1.98,0.504 -2.63,1.513 -0.65,1.009 -0.975,2.669 -0.975,4.979" /></g><g
           transform="translate(62.7398,419.6426)"
           id="g208"><path
             id="path210"
             style="fill:#000000;fill-opacity:1;fill-rule:nonzero;stroke:none"
             d="m 0,0 -0.744,0 0,-4.68 0.463,0 c 1.007,0 1.795,0.206 2.364,0.616 0.569,0.41 0.854,0.992 0.854,1.745 0,0.714 -0.279,1.279 -0.835,1.695 C 1.545,-0.208 0.845,0 0,0 m -1.912,1.256 1.669,0 c 1.437,0 2.528,-0.337 3.274,-1.011 0.747,-0.675 1.12,-1.546 1.12,-2.614 0,-1.484 -0.704,-2.544 -2.11,-3.179 l 2.003,-5.885 -1.214,0 -1.927,5.598 C 0.877,-5.835 0.8,-5.842 0.671,-5.856 0.542,-5.87 0.465,-5.877 0.44,-5.877 l -0.471,-0.034 -0.713,0 0,-5.522 -1.169,0 0,12.689 0.001,0 z" /></g><path
           id="path212"
           style="fill:#000000;fill-opacity:1;fill-rule:nonzero;stroke:none"
           d="m 73.204,418.565 1.169,0 0,-10.356 -1.169,0 0,10.356 z" /><g
           transform="translate(87.1578,416.9614)"
           id="g214"><path
             id="path216"
             style="fill:#000000;fill-opacity:1;fill-rule:nonzero;stroke:none"
             d="m 0,0 -1.131,-0.135 c -0.248,1.945 -0.86,2.917 -1.836,2.917 -0.562,0 -1.036,-0.372 -1.423,-1.117 -0.387,-0.744 -0.58,-2.109 -0.58,-4.093 0,-1.996 0.19,-3.35 0.573,-4.064 0.381,-0.714 0.884,-1.071 1.506,-1.071 1.072,0 1.694,1.048 1.866,3.145 l 1.139,-0.169 c -0.076,-1.326 -0.378,-2.375 -0.907,-3.145 -0.529,-0.77 -1.233,-1.155 -2.114,-1.155 -1.047,0 -1.857,0.561 -2.432,1.682 -0.574,1.122 -0.861,2.683 -0.861,4.684 0,2.108 0.297,3.735 0.892,4.882 0.594,1.146 1.374,1.72 2.341,1.72 0.774,0 1.429,-0.353 1.965,-1.058 C -0.466,2.317 -0.132,1.31 0,0" /></g><path
           id="path218"
           style="fill:#000000;fill-opacity:1;fill-rule:nonzero;stroke:none"
           d="m 93.721,420.899 1.169,0 0,-12.689 -1.169,0 0,12.689 z" /><g
           transform="translate(101.8625,420.8989)"
           id="g220"><path
             id="path222"
             style="fill:#000000;fill-opacity:1;fill-rule:nonzero;stroke:none"
             d="m 0,0 5.16,0 -0.015,-1.222 -3.991,0 0.015,-4.402 3.043,0 0,-1.231 -3.043,0 0,-4.612 4.37,0 0,-1.222 -5.539,0 C 0,-12.689 0,0 0,0" /></g><g
           transform="translate(113.4873,420.8989)"
           id="g224"><path
             id="path226"
             style="fill:#000000;fill-opacity:1;fill-rule:nonzero;stroke:none"
             d="m 0,0 1.169,0 0,-11.391 4.287,0 0,-1.298 -5.456,0 L 0,0 Z" /></g><g
           transform="translate(79.57,260.5153)"
           id="g228"><path
             id="path230"
             style="fill:#2c2c2b;fill-opacity:1;fill-rule:nonzero;stroke:none"
             d="m 0,0 c 2.013,-0.53 3.932,-1.289 5.73,-2.244 0.319,0.681 0.71,1.327 1.159,1.946 0.168,0.233 0.355,0.447 0.561,0.639 l 0.053,0.71 C 7.606,2.426 7.532,3.866 7.422,5.24 7.285,6.935 7.074,8.627 6.846,10.309 c -0.386,2.747 -0.199,5.45 0.856,8.034 0.336,0.819 0.969,1.448 1.787,1.781 0.888,0.362 1.902,0.338 2.773,-0.062 1.02,-0.468 1.691,-1.363 2.004,-2.427 0.858,-2.92 0.75,-6.203 0.347,-9.189 L 14.611,8.439 13.784,3.463 c -0.094,-0.559 0.031,-1.219 0.563,-1.519 0.622,-0.348 1.329,0.06 1.766,0.516 0.787,0.828 1.319,2.139 1.686,3.204 0.526,1.517 0.91,3.107 1.298,4.664 0.727,2.908 1.814,6.274 4.212,8.245 0.71,0.586 1.66,0.891 2.574,0.682 0.794,-0.18 1.398,-0.71 1.763,-1.43 0.482,-0.953 0.504,-2.124 0.365,-3.16 C 27.636,11.827 25.998,9.041 24.558,6.613 23.908,5.518 23.172,4.441 22.597,3.307 22.225,2.577 21.791,1.567 21.981,0.73 22.038,0.485 22.144,0.262 22.297,0.061 l 0.017,-0.022 0.014,-0.026 c 0.08,-0.137 0.144,-0.291 0.159,-0.444 0.117,0.048 0.232,0.1 0.338,0.141 0.477,0.195 0.923,0.317 1.444,0.322 0.674,0.007 1.307,-0.226 1.813,-0.672 0.639,-0.566 0.986,-1.399 0.991,-2.248 0.005,-0.984 -0.439,-1.871 -1.154,-2.533 C 25.152,-6.132 24.3,-6.712 23.423,-7.277 22.626,-7.79 21.811,-8.292 21.078,-8.891 20.924,-9.017 20.773,-9.147 20.627,-9.282 l 0.067,-0.362 c 0.218,-1.168 -0.012,-2.381 -0.739,-3.333 -0.614,-0.808 -1.583,-1.377 -2.618,-1.332 l -0.019,10e-4 c 1.665,-3.473 2.599,-7.359 2.599,-11.462 0,-10.097 -5.644,-18.882 -13.962,-23.403 0.192,-0.293 0.348,-0.649 0.461,-1.072 l 0.036,-0.139 c 0.386,-0.146 0.76,-0.362 1.166,-0.658 0.237,-0.174 0.401,-0.426 0.427,-0.722 0.041,-0.413 -0.19,-0.779 -0.521,-1.009 -0.376,-0.263 -0.858,-0.346 -1.312,-0.326 -0.547,0.023 -1.235,0.022 -1.725,0.287 -1.063,0.573 -2.111,0.137 -3.132,-0.296 -1.281,-0.542 -2.752,-0.75 -4.099,-0.34 -1.082,0.33 -1.909,0.508 -2.978,0.023 l -0.077,-0.036 -0.086,-0.006 c -0.684,-0.049 -1.499,-0.078 -2.171,0.08 -0.415,0.097 -0.753,0.262 -1.055,0.567 -0.163,0.164 -0.314,0.339 -0.451,0.524 -13.541,1.339 -24.123,12.709 -24.123,26.532 0,3.333 0.617,6.522 1.739,9.463 -0.024,0.002 -0.05,0.003 -0.076,0.006 -0.686,0.067 -1.435,0.451 -1.468,1.227 -0.029,0.656 0.499,1.119 1.082,1.294 0.321,0.097 0.642,0.196 0.959,0.307 -0.456,0.007 -0.912,0.013 -1.365,0.019 l -0.12,0.002 -0.105,0.059 c -0.732,0.407 -0.871,1.271 -0.303,1.886 0.164,0.178 0.344,0.332 0.533,0.466 -0.47,0.462 -0.264,1.352 0.458,1.475 0.655,0.111 1.32,0.133 1.969,0.257 0.207,0.039 0.398,0.107 0.595,0.179 0.617,0.23 1.065,0.383 1.744,0.366 0.166,-0.004 0.329,-0.014 0.492,-0.03 0.439,0.527 0.897,1.037 1.374,1.529 -0.163,0.872 -0.276,1.744 -0.316,2.59 -0.068,1.449 0.084,3.227 1.223,4.273 0.23,0.214 0.492,0.387 0.777,0.521 2.637,1.221 4.8,0.17 6.496,-1.62 1.303,0.593 2.664,1.083 4.069,1.464 0.158,0.146 0.319,0.29 0.489,0.434 0.3,0.255 0.509,0.531 0.602,0.917 0.091,0.377 0.072,0.818 0.075,1.205 0.002,0.604 0.043,1.164 0.194,1.754 l 0.007,0.034 0.014,0.033 c 0.893,2.131 2.491,3.281 4.595,3.727 0.079,1.209 0.621,2.325 1.729,2.903 0.892,0.465 2.005,0.47 2.879,-0.051 0.458,-0.271 0.815,-0.669 1.034,-1.157 0.18,-0.403 0.861,-2.146 1.264,-2.3 C -0.343,7.202 0.168,7.217 0.837,7.6 1.295,7.864 1.77,7.492 1.772,7.005 1.772,6.268 1.516,5.537 0.954,5.039 0.556,4.689 0.005,4.475 -0.521,4.595 -0.199,3.47 -0.379,2.257 -0.885,1.025 L -0.917,0.948 c 0.3,-0.31 0.612,-0.603 0.902,-0.922 L 0.002,0.007 0,0 Z" /></g><g
           transform="translate(79.57,260.5153)"
           id="g232"><path
             id="path234"
             style="fill:none;stroke:#2c2c2b;stroke-width:1.09000003;stroke-linecap:butt;stroke-linejoin:miter;stroke-miterlimit:4;stroke-dasharray:none;stroke-opacity:1"
             d="m 0,0 c 2.013,-0.53 3.932,-1.289 5.73,-2.244 0.319,0.681 0.71,1.327 1.159,1.946 0.168,0.233 0.355,0.447 0.561,0.639 l 0.053,0.71 C 7.606,2.426 7.532,3.866 7.422,5.24 7.285,6.935 7.074,8.627 6.846,10.309 c -0.386,2.747 -0.199,5.45 0.856,8.034 0.336,0.819 0.969,1.448 1.787,1.781 0.888,0.362 1.902,0.338 2.773,-0.062 1.02,-0.468 1.691,-1.363 2.004,-2.427 0.858,-2.92 0.75,-6.203 0.347,-9.189 L 14.611,8.439 13.784,3.463 c -0.094,-0.559 0.031,-1.219 0.563,-1.519 0.622,-0.348 1.329,0.06 1.766,0.516 0.787,0.828 1.319,2.139 1.686,3.204 0.526,1.517 0.91,3.107 1.298,4.664 0.727,2.908 1.814,6.274 4.212,8.245 0.71,0.586 1.66,0.891 2.574,0.682 0.794,-0.18 1.398,-0.71 1.763,-1.43 0.482,-0.953 0.504,-2.124 0.365,-3.16 C 27.636,11.827 25.998,9.041 24.558,6.613 23.908,5.518 23.172,4.441 22.597,3.307 22.225,2.577 21.791,1.567 21.981,0.73 22.038,0.485 22.144,0.262 22.297,0.061 l 0.017,-0.022 0.014,-0.026 c 0.08,-0.137 0.144,-0.291 0.159,-0.444 0.117,0.048 0.232,0.1 0.338,0.141 0.477,0.195 0.923,0.317 1.444,0.322 0.674,0.007 1.307,-0.226 1.813,-0.672 0.639,-0.566 0.986,-1.399 0.991,-2.248 0.005,-0.984 -0.439,-1.871 -1.154,-2.533 C 25.152,-6.132 24.3,-6.712 23.423,-7.277 22.626,-7.79 21.811,-8.292 21.078,-8.891 20.924,-9.017 20.773,-9.147 20.627,-9.282 l 0.067,-0.362 c 0.218,-1.168 -0.012,-2.381 -0.739,-3.333 -0.614,-0.808 -1.583,-1.377 -2.618,-1.332 l -0.019,10e-4 c 1.665,-3.473 2.599,-7.359 2.599,-11.462 0,-10.097 -5.644,-18.882 -13.962,-23.403 0.192,-0.293 0.348,-0.649 0.461,-1.072 l 0.036,-0.139 c 0.386,-0.146 0.76,-0.362 1.166,-0.658 0.237,-0.174 0.401,-0.426 0.427,-0.722 0.041,-0.413 -0.19,-0.779 -0.521,-1.009 -0.376,-0.263 -0.858,-0.346 -1.312,-0.326 -0.547,0.023 -1.235,0.022 -1.725,0.287 -1.063,0.573 -2.111,0.137 -3.132,-0.296 -1.281,-0.542 -2.752,-0.75 -4.099,-0.34 -1.082,0.33 -1.909,0.508 -2.978,0.023 l -0.077,-0.036 -0.086,-0.006 c -0.684,-0.049 -1.499,-0.078 -2.171,0.08 -0.415,0.097 -0.753,0.262 -1.055,0.567 -0.163,0.164 -0.314,0.339 -0.451,0.524 -13.541,1.339 -24.123,12.709 -24.123,26.532 0,3.333 0.617,6.522 1.739,9.463 -0.024,0.002 -0.05,0.003 -0.076,0.006 -0.686,0.067 -1.435,0.451 -1.468,1.227 -0.029,0.656 0.499,1.119 1.082,1.294 0.321,0.097 0.642,0.196 0.959,0.307 -0.456,0.007 -0.912,0.013 -1.365,0.019 l -0.12,0.002 -0.105,0.059 c -0.732,0.407 -0.871,1.271 -0.303,1.886 0.164,0.178 0.344,0.332 0.533,0.466 -0.47,0.462 -0.264,1.352 0.458,1.475 0.655,0.111 1.32,0.133 1.969,0.257 0.207,0.039 0.398,0.107 0.595,0.179 0.617,0.23 1.065,0.383 1.744,0.366 0.166,-0.004 0.329,-0.014 0.492,-0.03 0.439,0.527 0.897,1.037 1.374,1.529 -0.163,0.872 -0.276,1.744 -0.316,2.59 -0.068,1.449 0.084,3.227 1.223,4.273 0.23,0.214 0.492,0.387 0.777,0.521 2.637,1.221 4.8,0.17 6.496,-1.62 1.303,0.593 2.664,1.083 4.069,1.464 0.158,0.146 0.319,0.29 0.489,0.434 0.3,0.255 0.509,0.531 0.602,0.917 0.091,0.377 0.072,0.818 0.075,1.205 0.002,0.604 0.043,1.164 0.194,1.754 l 0.007,0.034 0.014,0.033 c 0.893,2.131 2.491,3.281 4.595,3.727 0.079,1.209 0.621,2.325 1.729,2.903 0.892,0.465 2.005,0.47 2.879,-0.051 0.458,-0.271 0.815,-0.669 1.034,-1.157 0.18,-0.403 0.861,-2.146 1.264,-2.3 C -0.343,7.202 0.168,7.217 0.837,7.6 1.295,7.864 1.77,7.492 1.772,7.005 1.772,6.268 1.516,5.537 0.954,5.039 0.556,4.689 0.005,4.475 -0.521,4.595 -0.199,3.47 -0.379,2.257 -0.885,1.025 L -0.917,0.948 c 0.3,-0.31 0.612,-0.603 0.902,-0.922 L 0.002,0.007 0,0 Z" /></g><g
           transform="translate(61.9108,258.6242)"
           id="g236"><path
             id="path238"
             style="fill:#e21c2a;fill-opacity:1;fill-rule:nonzero;stroke:none"
             d="M 0,0 C 0.974,0.437 1.979,0.816 3.011,1.133 2.193,0.24 1.591,-0.686 1.214,-1.624 0.842,-1.058 0.439,-0.506 0.001,0 L 0,0 Z m -9.304,-6.998 c 0.291,0.342 0.588,0.677 0.895,1.004 0.096,-0.459 0.204,-0.917 0.319,-1.369 -0.396,0.161 -0.799,0.284 -1.214,0.365 z m 7.965,-27.454 29.399,13.886 -0.009,0.02 0.165,0.079 c 0.219,-1.109 0.334,-2.254 0.334,-3.427 0,-4.141 -1.425,-7.952 -3.815,-10.97 -0.048,-0.113 -0.096,-0.227 -0.147,-0.339 l -0.016,-0.035 -3.683,-5.482 -2.13,-4.615 c 0.528,-0.1 1.043,-0.311 1.528,-0.657 l 0.074,-0.053 0.048,-0.075 c 0.039,-0.058 0.07,-0.119 0.091,-0.18 1.082,0.258 2.09,0.108 2.787,-0.611 8.185,4.435 13.74,13.08 13.74,23.02 0,4.089 -0.942,7.961 -2.621,11.409 -0.367,-0.076 -0.729,-0.224 -1.044,-0.392 -0.995,-0.529 -1.904,-1.117 -3.022,-1.356 -0.682,-0.146 -1.389,-0.157 -2.069,-0.039 0.005,-0.151 -0.046,-0.308 -0.158,-0.446 -1.051,-1.326 -2.468,-2.264 -4.123,-2.638 -1.499,-0.339 -3.097,-0.181 -4.498,0.45 -0.71,0.321 -1.113,0.602 -1.554,1.217 L -6.684,-27.354 c -0.22,1.119 -0.338,2.276 -0.338,3.461 0,1.96 0.319,3.847 0.909,5.612 -1.093,0.826 -1.041,2.165 -1.108,3.419 -0.007,0.131 -0.153,0.268 -0.249,0.339 -0.969,0.71 -2.113,1.266 -3.339,1.014 -0.953,-0.196 -1.927,-0.764 -2.914,-0.898 -1.149,-2.941 -1.78,-6.14 -1.78,-9.486 0,-13.439 10.164,-24.517 23.24,-26.014 -0.307,0.566 -0.472,1.198 -0.403,1.867 0.214,2.008 0.749,3.723 1.61,5.537 0.149,0.311 0.302,0.618 0.458,0.926 -4.966,0.374 -9.363,2.78 -12.355,6.385 l 1.595,0.755 0.01,-0.021 0.009,0.006 z m 19.478,35.69 c 1.765,-0.513 3.454,-1.207 5.045,-2.058 -0.048,-0.115 -0.093,-0.232 -0.137,-0.35 l -0.455,-0.312 c -0.994,-0.686 -2.395,-1.349 -3.683,-1.586 0.146,1.48 0.017,3.043 -0.77,4.308 l 0,-0.002 z" /></g><g
           transform="translate(54.6159,249.4473)"
           id="g240"><path
             id="path242"
             style="fill:#ffffff;fill-opacity:1;fill-rule:nonzero;stroke:none"
             d="M 0,0 -0.386,1.11 C -1.293,1.588 -2.2,1.81 -3.107,1.832 -4.113,1.856 -4.592,1.439 -5.345,1.295 -6.029,1.164 -6.64,1.152 -7.323,1.036 -7.686,0.974 -7.777,0.432 -7.379,0.277 -6.196,0.68 -4.953,0.736 -3.773,0.444 -3.61,0.405 -3.61,0.199 -3.79,0.222 c -1.724,0.215 -3.298,0.053 -4.256,-0.981 -0.355,-0.386 -0.281,-0.888 0.187,-1.147 0.868,-0.012 1.737,-0.025 2.608,-0.037 0.334,0.222 0.669,0.386 0.998,0.518 0.3,0.12 0.396,0.012 0.149,-0.204 -0.95,-0.824 -2.094,-1.198 -3.22,-1.535 -1.061,-0.319 -1.008,-1.465 0.297,-1.592 1.044,-0.101 2.266,0.67 3.42,0.907 1.058,0.218 2.262,-0.03 3.715,-1.096 0.261,-0.19 0.432,-0.436 0.446,-0.697 0.077,-1.454 0.053,-2.459 0.979,-3.11 0.463,-0.282 0.832,-0.226 1,0.574 -0.46,1.688 -0.695,3.336 0.574,4.772 0.53,0.601 1.489,1.24 3.181,1.98 -0.076,0.161 -0.201,0.272 -0.352,0.36 -0.163,0.108 -0.108,0.298 0.168,0.185 1.482,-0.993 2.951,-2.365 3.644,-4.746 0.197,0.293 0.295,0.603 0.24,0.944 0.093,0.116 0.184,0.149 0.278,0 0.12,-0.646 0.046,-1.277 -0.36,-1.939 -1.909,-3.116 -2.399,-5.629 -2.397,-8.286 l 17.753,8.386 c -0.271,0.204 -0.362,0.466 -0.475,0.67 -0.045,0.113 0.005,0.133 0.118,0.089 2.526,-2.796 7.362,-2.972 10.14,0.538 0.125,0.148 -0.002,0.275 -0.088,0.318 -1.231,0.613 -2.215,1.334 -2.658,2.291 -0.063,0.221 0,0.295 0.184,0.221 0.823,-1.577 2.844,-2.653 5.057,-2.179 1.053,0.226 1.898,0.778 2.9,1.312 0.463,0.246 1.161,0.528 1.864,0.498 1.657,-0.071 3.308,1.758 2.869,4.103 -2.113,-0.408 -3.05,1.283 -3.054,2.289 -0.42,0.051 -0.693,0.058 -1.084,0 C 40.814,3.632 40.762,3.513 40.814,3.353 41.28,3.011 41.788,2.516 41.647,1.572 l -0.219,0.024 c -0.064,0.937 -0.729,1.738 -1.993,2.402 -0.802,0.052 -2.023,0.732 -3.263,1.845 -1.003,0.901 -1.881,1.275 -2.84,0.98 -0.178,-0.014 -0.204,0.041 -0.074,0.168 1.211,0.41 2.389,-0.043 3.675,-1.132 1.827,-1.55 5.012,-1.963 7.657,-0.701 1.47,0.701 1.427,1.912 0.374,2.294 -2.301,0.835 -3.746,2.074 -6.151,3.406 -2.976,1.651 -5.277,1.449 -6.59,-0.358 C 31.571,9.6 31.026,8.621 30.654,7.488 30.28,6.21 30.606,5 31.52,3.961 31.623,3.766 31.554,3.691 31.316,3.738 30.23,4.752 30.064,6.084 30.155,7.32 28.246,6.003 26.371,5.611 25.523,5.567 23.851,5.478 21.589,4.24 21.128,1.116 21.03,0.961 20.956,0.973 20.905,1.153 c 0.197,2.391 1.188,4.272 4.819,4.986 0.201,1.976 -0.156,3.548 -1.144,4.633 -0.744,0.816 -1.49,1.351 -1.761,2.154 l 0.038,0.153 c 0.183,-0.324 0.389,-0.628 0.763,-0.808 0.83,2.031 0.583,3.609 -0.59,4.874 -0.199,0.214 -0.06,0.365 0.147,0.185 0.381,-0.331 0.635,-0.679 0.976,-1.006 0.655,-0.621 2.092,0.113 2.088,1.745 0,0.135 -0.094,0.257 -0.221,0.185 -0.875,-0.504 -1.554,-0.442 -2.287,-0.163 -0.578,0.218 -0.981,1.317 -1.531,2.549 -0.909,2.032 -4.546,1.711 -4.736,-1.572 0.156,0.027 0.302,0.029 0.432,0 0.165,-0.026 0.189,-0.228 0.036,-0.259 -2.303,-0.268 -4.128,-1.272 -5.095,-3.582 -0.478,-1.87 0.316,-2.984 -1.025,-4.12 -4.402,-3.744 -4.492,-8.267 0.25,-11.8 0.005,-0.076 -0.034,-0.075 -0.063,-0.07 -0.165,0.029 -0.319,0.091 -0.393,0.001 -0.062,-0.073 0.005,-0.272 -0.098,-0.337 -0.154,0.021 -0.228,0.156 -0.221,0.406 l -0.223,0.259 C 8.331,1.835 7.243,4.262 8.333,6.953 5.817,10.995 3.24,11.96 0.655,10.759 -1.773,9.631 -1.406,5.471 0.211,-0.029 0.132,-0.127 0.06,-0.118 -0.002,-0.001 L 0,0 Z m 32.931,12.091 c 0.185,2.446 -0.182,5.808 -0.662,9.362 -0.365,2.593 -0.218,5.225 0.827,7.787 0.981,2.397 4.752,2.445 5.665,-0.663 0.641,-2.179 0.866,-5.053 0.331,-8.989 l -0.827,-4.97 c -0.324,-1.947 1.588,-3.045 3.143,-1.409 1.476,1.55 2.274,4.759 3.102,8.079 0.87,3.482 1.995,6.299 4.053,7.994 1.693,1.394 4.471,0.617 3.93,-3.479 -0.355,-2.666 -1.888,-5.335 -3.393,-7.869 -1.607,-2.709 -3.606,-5.261 -2.234,-7.084 0.166,-0.286 0.125,-0.437 -0.125,-0.456 -0.146,0.007 -0.307,-0.034 -0.453,-0.053 -0.259,-0.034 -0.348,-0.127 -0.084,-0.243 1.037,-0.451 1.648,0.521 3.021,0.533 2.145,0.019 3.26,-2.837 1.322,-4.629 C 48.735,4.325 46.557,3.487 44.964,1.859 44.307,1.683 43.822,1.751 43.518,2.067 43.232,2.36 42.999,2.769 42.771,3.268 c -0.146,0.325 -0.072,0.582 0.276,0.719 0.907,0.36 1.942,0.56 2.66,1.352 1.149,1.269 0.574,2.127 -0.412,2.486 l -0.166,0.29 c 0.156,0.552 0.413,0.809 0.703,0.953 0.156,0.074 -0.01,0.281 -0.247,0.206 -0.492,-0.156 -0.83,-0.564 -1.034,-1.159 -1.516,1.066 -2.927,1.793 -4.174,2.577 -3.092,1.946 -5.52,2.415 -7.448,1.399 l 0.002,0 z M 15.047,0.131 c -0.228,0.082 -0.343,-0.103 -0.103,-0.224 1.034,-0.52 1.907,-0.043 2.109,0.926 0.036,0.178 -0.074,0.176 -0.18,0.02 C 16.35,0.096 15.731,-0.114 15.048,0.13 L 15.047,0.131 Z M 14.356,6.493 C 14.253,6.62 14.222,6.431 14.253,6.309 14.527,5.205 16.088,5.594 16.247,6.563 16.276,6.74 16.187,6.738 16.103,6.582 15.688,5.825 14.806,5.94 14.357,6.493 l -10e-4,0 z m 1.111,6.817 c 0.24,0.046 0.324,0.226 0.055,0.24 -1.048,0.063 -1.808,-0.616 -1.93,-1.188 -0.048,-0.232 0.47,-0.211 0.554,0.034 0.139,0.405 0.653,0.792 1.322,0.914 l -10e-4,0 z m -1.168,-2.146 c -0.132,0.024 -0.05,0.17 0.127,0.185 0.458,0.033 0.933,-0.471 0.883,-1.315 -0.055,-0.891 -0.854,-0.766 -0.955,-0.166 -0.074,0.439 0.065,0.77 0.293,0.919 0.153,0.262 0.031,0.308 -0.348,0.377 z m 3.894,-0.23 c -0.113,0.074 -0.089,0.235 0.1,0.201 0.482,-0.089 0.933,-0.593 0.701,-1.224 -0.245,-0.667 -1.159,-0.472 -1.027,0.111 0.079,0.343 0.039,0.609 0.307,0.667 0.067,0.161 0.151,0.096 -0.081,0.245 m -0.396,1.939 c -0.211,0.007 -0.235,-0.106 -0.146,-0.257 0.268,-0.475 0.635,-0.492 1.221,0.026 0.4,0.358 0.846,0.178 0.825,-0.715 -0.005,-0.18 0.264,-0.264 0.321,-0.01 0.137,0.6 -0.295,1.256 -1.065,1.469 -0.621,0.173 -0.554,-0.54 -1.156,-0.513 z m -1.598,-50.051 c -0.002,0.164 -0.139,0.033 -0.189,-0.081 -0.449,-1.039 0.964,-1.698 1.662,-1.035 0.127,0.122 0.058,0.175 -0.098,0.106 -0.766,-0.339 -1.368,0.297 -1.375,1.01 M 12.864,3.6 C 12.71,3.773 12.569,3.634 12.713,3.379 12.814,3.201 13.003,3.056 13.272,2.987 13.48,2.933 13.619,2.773 13.68,2.433 c 0.163,-0.895 0.748,-1.366 1.542,-1.372 1.151,-0.008 1.545,1.114 1.602,2.538 0.567,0.516 1.15,1.053 1.807,1.547 0.496,0.373 0.947,0.667 1.345,1.056 0.039,0.035 0.137,0.076 0.223,0.02 0.245,-0.16 0.569,-0.681 0.384,-1.311 -0.043,-0.148 0.199,-0.319 0.29,-0.145 0.499,0.948 0.034,1.538 -0.844,1.868 C 19.784,6.577 19.801,6.464 19.854,6.341 18.779,5.618 17.745,4.83 16.737,4.007 16.284,3.393 13.555,2.812 12.863,3.598 L 12.864,3.6 Z m -1.766,-26.437 19.805,9.34 c 1.432,-4.114 2.326,-8.451 0.554,-12.319 l -3.682,-5.482 -2.276,-4.936 c -0.871,0.303 -2.157,-0.16 -3.754,-1.373 -0.192,-0.176 0.089,-0.315 0.309,-0.12 1.783,1.255 3.754,1.61 5.26,0.534 0.084,-0.128 0.07,-0.22 -0.045,-0.276 -0.19,-0.065 -0.362,-0.141 -0.461,-0.276 -0.105,-0.147 -0.012,-0.236 0.137,-0.168 1.931,0.874 3.456,0.502 3.961,-1.398 l -1.334,-0.092 c -0.204,-0.014 -0.228,-0.202 -0.005,-0.183 0.672,0.058 1.514,0.099 2.722,-0.784 0.556,-0.408 0.11,-1.25 -1.106,-1.198 -0.629,0.027 -1.161,0.037 -1.518,0.23 -1.198,0.646 -2.315,0.245 -3.547,-0.276 -1.079,-0.457 -2.458,-0.723 -3.773,-0.322 -1.209,0.368 -2.134,0.537 -3.316,0 -1.953,-0.14 -2.504,0.152 -2.855,0.506 -0.559,0.568 -1.171,1.463 -1.058,2.532 0.621,5.887 3.913,7.601 3.145,11.157 0.456,-0.246 0.952,-0.444 1.408,-0.635 l 0.128,0.143 c -0.799,0.352 -1.349,0.839 -1.874,1.356 0.84,-0.077 1.722,-0.005 2.67,0.082 l 0.048,0.194 c -3.919,-0.362 -6.982,1.475 -9.542,3.763 l -10e-4,0.001 z" /></g></g></g></g></svg>