<?xml version="1.0" encoding="utf-8"?>
<!-- Generator: Adobe Illustrator 16.0.3, SVG Export Plug-In . SVG Version: 6.00 Build 0)  -->
<!DOCTYPE svg PUBLIC "-//W3C//DTD SVG 1.1//EN" "http://www.w3.org/Graphics/SVG/1.1/DTD/svg11.dtd">
<svg version="1.1" id="Layer_1" xmlns="http://www.w3.org/2000/svg" xmlns:xlink="http://www.w3.org/1999/xlink" x="0px" y="0px"
	 width="566.93px" height="92.175px" viewBox="0 0 566.93 92.175" enable-background="new 0 0 566.93 92.175" xml:space="preserve">
<g>
	<g>
		<path fill="#414141" d="M18.421,92.138l1.372-18.127h7.505l1.512,18.127h18.521L35.72,0.45H11.787L0,92.138H18.421 M26.213,58.882
			h-5.337l2.706-35.629L26.213,58.882 M77.555,0.45H51.749v91.688h17.651V39.921l7.302,52.216h11.463l7.015-51.932v51.932h17.65
			V0.45H86.987l-4.799,40.498L77.555,0.45 M116.043,11.608c-0.013,6.318-0.084,12.634-0.033,18.955
			c0.033,1.033,0.097,2.065,0.156,2.808c0.134,1.565,0.257,2.042,0.519,3.058c0.269,1.004,0.72,2.259,1.433,3.368
			c0.334,0.531,0.71,1.036,1.269,1.646c0.56,0.61,1.302,1.325,2.083,1.993c1.611,1.394,3.367,2.47,5.13,3.399
			c3.852,2.129,7.678,4.231,11.555,6.391c0.521,0.329,1.071,0.605,1.619,1.137c1.332,1.28,1.328,2.768,1.31,4.191l0.073,1.98
			l0.028,12.414c0.012,0.906-0.075,1.803-0.513,2.766c-0.148,0.279-0.354,0.539-0.601,0.75c-0.781,0.65-1.768,0.822-2.741,0.433
			c-0.301-0.125-0.576-0.306-0.811-0.53c-0.981-0.945-0.869-2.287-1.011-3.439L135.5,54.244h-19.515l0.021,20.92
			c0.017,2.568,0.033,5.002,0.59,7.52c0.299,1.297,0.775,2.646,1.5,3.854c0.724,1.207,1.69,2.271,2.825,3.104
			c1.135,0.832,2.435,1.43,3.461,1.784c1.028,0.355,1.784,0.468,2.54,0.559c0.757,0.092,1.512,0.189,2.27,0.189h19.826
			c0.897,0,1.798,0.039,2.904-0.266c1.108-0.304,2.423-0.844,3.558-1.564c1.138-0.723,2.097-1.625,2.756-2.594
			c0.66-0.967,1.022-2.002,1.336-2.934s0.574-1.764,0.766-2.872c0.19-1.108,0.313-2.493,0.382-3.881
			c0.066-1.388,0.033-2.774,0.033-4.163V59.203c0-0.275,0-0.553-0.008-1.174c-0.007-0.621-0.019-1.586-0.062-2.689
			c-0.043-1.103-0.118-2.344-0.187-3.146c-0.066-0.801-0.127-1.163-0.201-1.522c-0.073-0.358-0.164-0.715-0.266-1.068
			c-0.101-0.354-0.212-0.704-0.494-1.313c-0.281-0.606-0.732-1.474-1.278-2.276c-0.544-0.804-1.18-1.546-1.89-2.208
			c-0.712-0.661-1.496-1.24-2.37-1.838c-1.808-1.227-3.822-2.482-5.767-3.56l-8.284-4.52c-0.498-0.272-0.99-0.557-1.466-0.869
			c-0.477-0.313-0.936-0.647-1.211-0.857c-0.497-0.379-0.498-0.429-0.707-0.651c-0.082-0.093-0.161-0.188-0.298-0.413
			c-0.313-0.497-0.688-1.371-0.76-2.11c-0.049-0.397-0.007-0.797-0.007-1.198c0.005-2.886-0.016-5.865,0.015-8.657
			c-0.018-0.65-0.001-1.393,0.239-2.087c0.11-0.341,0.258-0.671,0.438-0.949c0.939-1.257,2.064-1.441,3.306-0.92
			c0.281,0.147,0.542,0.359,0.762,0.606c0.221,0.247,0.399,0.527,0.529,0.83c0.128,0.302,0.206,0.625,0.257,1.072
			c0.104,0.921,0.114,2.188,0.106,3.302V31.89h19.599c-0.021-5.63,0.067-11.255-0.063-16.891c-0.056-1.304-0.148-2.607-0.229-3.466
			c-0.079-0.859-0.146-1.273-0.228-1.684c-0.085-0.411-0.186-0.817-0.301-1.221c-0.116-0.403-0.245-0.803-0.554-1.489
			c-0.308-0.686-0.79-1.657-1.424-2.523c-0.635-0.866-1.42-1.625-2.303-2.24c-0.884-0.615-1.864-1.084-2.707-1.387
			c-1.656-0.569-2.919-0.665-4.358-0.849c-0.706-0.075-1.414-0.145-2.124-0.139l-16.964,0.136c-1.947,0.063-3.875,0.305-5.903,0.873
			c-0.617,0.189-1.197,0.427-1.75,0.719c-1.109,0.606-2.033,1.269-2.992,2.447c-0.482,0.599-0.994,1.363-1.413,2.174
			C116.59,8.011,116.083,9.822,116.043,11.608 M163.976,0.45v14.789h9.774v76.898h19.599V15.239h9.7V0.45H163.976 M229.18,0.45
			h-20.866v91.688h19.568V55.591c1.282,0.049,2.563-0.108,3.863,0.293c0.273,0.098,0.53,0.246,0.752,0.435
			c0.903,0.776,0.834,1.767,0.974,2.703c0.17,1.881,0.036,3.771,0.084,5.653v27.462h19.567l-0.019-28.663
			c-0.031-2.825-0.224-5.624-0.839-8.45c-0.173-0.638-0.402-1.276-0.688-1.905c-0.434-1.004-1.02-1.943-1.731-2.771
			c-0.714-0.829-1.555-1.55-2.482-2.126c-0.927-0.577-1.946-1.012-3.006-1.285c0.512-0.127,1.018-0.287,1.52-0.48
			c1.007-0.383,1.952-0.93,2.786-1.612c0.833-0.683,1.556-1.502,2.127-2.415c0.569-0.913,0.992-1.919,1.248-2.966
			c0.209-0.75,0.384-1.504,0.524-2.262c0.459-3.09,0.623-6.187,0.562-9.291v-9.6c0.062-1.895-0.028-3.802-0.271-5.699
			c-0.118-0.945-0.273-1.886-0.441-2.666c-0.167-0.781-0.347-1.402-0.578-2.004s-0.517-1.184-0.847-1.737
			c-0.331-0.554-0.709-1.079-1.129-1.569c-0.655-0.7-1.396-1.321-2.201-1.844c-1.67-1.083-3.544-1.688-5.393-1.846
			C237.91,0.438,233.543,0.581,229.18,0.45 M227.883,15.358c0.925,0.007,1.842,0.018,2.769,0.022c0.441,0.04,0.896,0.152,1.333,0.35
			c1.272,0.838,1.338,1.902,1.454,2.93c0.082,1.154,0.078,2.315,0.117,3.474c-0.017,4.017,0.051,8.032-0.048,12.048
			c-0.01,0.717-0.069,1.432-0.177,2.146c-0.033,0.334-0.131,0.663-0.288,0.96c-0.155,0.297-0.371,0.563-0.629,0.779
			c-0.593,0.533-1.38,0.56-2.092,0.644c-0.81,0.077-1.627,0.086-2.439,0.029V15.358 M275.575,92.138l1.37-18.127h7.507l1.51,18.127
			h18.521L292.874,0.45H268.94l-11.785,91.688H275.575 M283.368,58.882h-5.339l2.706-35.629L283.368,58.882 M351.088,6.108
			c-0.671-1.077-1.538-2.035-2.546-2.802c-1.012-0.768-2.158-1.345-3.015-1.688c-0.854-0.343-1.415-0.451-1.974-0.55
			c-0.563-0.099-1.12-0.187-1.684-0.252c-0.563-0.064-1.127-0.105-2.467-0.165c-1.34-0.059-3.455-0.191-5.569-0.192L308.461,0.45
			v91.688l31.104-0.053c0.774-0.002,1.532-0.221,2.292-0.355c1.605-0.289,3.016-0.594,4.523-1.275
			c0.793-0.355,1.646-0.832,2.421-1.416c0.772-0.586,1.472-1.283,2.13-2.355c0.658-1.075,1.275-2.525,1.73-4.303
			c0.453-1.772,0.803-3.871,0.796-5.971l-0.136-62.58c-0.004-1.429-0.36-2.84-0.727-4.146
			C352.233,8.379,351.759,7.185,351.088,6.108 M329.263,15.438c0.417,0,0.835-0.033,1.238,0.017s0.792,0.144,1.11,0.244
			c0.32,0.1,0.57,0.209,0.795,0.359c0.226,0.15,0.421,0.342,0.578,0.562c0.678,1.017,0.594,2.464,0.654,3.747v52.802
			c0,0.391-0.002,0.781-0.059,1.16s-0.147,0.746-0.271,1.064s-0.272,0.592-0.472,0.822c-0.198,0.232-0.445,0.425-0.716,0.576
			c-0.271,0.154-0.555,0.34-0.864,0.34h-3.205V15.438H329.263"/>
	</g>
	<g>
		<path fill="#414141" d="M429.746,82.679H408.35c-2.563-0.081-4.542-0.188-5.889-0.313c-1.109-0.104-1.936-0.479-2.565-1.18
			c-0.588-0.59-0.938-1.54-1.046-2.82c-0.127-1.506-0.23-3.797-0.313-6.783V20.113c0-2.498,0.082-4.492,0.245-5.927
			c0.144-1.25,0.579-2.192,1.366-2.913c0.689-0.691,1.471-1.078,2.391-1.18c1.1-0.122,3.085-0.185,5.906-0.185h21.303v14.871h9.968
			V0.45h-33.771c-2.479,0-4.978,0.152-7.428,0.452c-2.611,0.322-4.953,1.41-6.992,3.267c-2.102,2.102-3.329,4.65-3.649,7.576
			c-0.299,2.721-0.448,6.049-0.448,9.893V73.11c0,3.429,0.15,6.335,0.453,8.642c0.321,2.5,1.422,4.701,3.265,6.541
			c1.84,1.842,4.101,2.961,6.722,3.328c2.444,0.344,5.593,0.52,9.353,0.52h32.626V67.81H429.75L429.746,82.679L429.746,82.679z"/>
		<path fill="#414141" d="M506.18,16.3c0-1.792-0.064-3.528-0.193-5.16c-0.135-1.718-0.531-3.268-1.176-4.608
			c-0.66-1.364-1.656-2.554-2.963-3.535c-1.298-0.971-3.102-1.693-5.408-2.155c-0.612-0.086-1.18-0.152-1.71-0.198
			c-0.517-0.042-1.182-0.084-1.997-0.129c-0.836-0.042-1.92-0.064-3.229-0.064h-41.331v9.458h8.641V82.68h-8.641v9.458h28.521V82.68
			h-8.769V50.451h20.678c1.799,0,3.563-0.043,5.24-0.127c1.762-0.088,3.396-0.357,4.859-0.804c1.535-0.468,2.904-1.272,4.068-2.394
			c1.165-1.125,2.082-2.667,2.729-4.612c0.357-1.171,0.584-2.487,0.676-3.914c0.084-1.38,0.084-3.208,0.002-5.397V16.3H506.18z
			 M495.449,19.9v11.482c0,2.177-0.063,3.971-0.188,5.334c-0.107,1.208-0.422,2.15-0.934,2.8c-0.482,0.618-1.314,1.057-2.473,1.304
			c-1.317,0.282-3.27,0.426-5.803,0.426h-18.129V9.909h17.623c2.479,0,4.438,0.083,5.83,0.25c1.213,0.144,2.109,0.485,2.667,1.012
			c0.548,0.521,0.917,1.423,1.096,2.68C495.346,15.289,495.449,17.325,495.449,19.9z"/>
		<path fill="#414141" d="M556.835,67.809V82.68h-21.398c-2.561-0.081-4.541-0.188-5.889-0.313
			c-1.107-0.104-1.937-0.477-2.563-1.178c-0.588-0.59-0.938-1.54-1.047-2.822c-0.125-1.5-0.23-3.789-0.313-6.781V20.113
			c0-2.498,0.082-4.492,0.244-5.926c0.146-1.252,0.579-2.194,1.368-2.914c0.689-0.692,1.474-1.078,2.39-1.18
			c1.099-0.122,3.086-0.185,5.905-0.185h21.304v14.871h9.97V0.45h-33.771c-2.478,0-4.976,0.152-7.426,0.452
			c-2.613,0.322-4.955,1.41-6.994,3.267c-2.101,2.102-3.328,4.65-3.646,7.575c-0.3,2.718-0.451,6.047-0.451,9.894V73.11
			c0,3.431,0.151,6.339,0.453,8.642c0.323,2.5,1.422,4.699,3.266,6.541c1.84,1.842,4.104,2.961,6.721,3.328
			c2.445,0.344,5.593,0.52,9.354,0.52h32.626V67.81L556.835,67.809L556.835,67.809z"/>
	</g>
</g>
</svg>
