<?xml version="1.0" encoding="UTF-8" standalone="no"?>
<svg
   xmlns:dc="http://purl.org/dc/elements/1.1/"
   xmlns:cc="http://creativecommons.org/ns#"
   xmlns:rdf="http://www.w3.org/1999/02/22-rdf-syntax-ns#"
   xmlns:svg="http://www.w3.org/2000/svg"
   xmlns="http://www.w3.org/2000/svg"
   viewBox="0 0 1072.8138 298.61874"
   height="298.61874"
   width="1072.8138"
   xml:space="preserve"
   version="1.1"
   id="svg2"><metadata
     id="metadata8"><rdf:RDF><cc:Work
         rdf:about=""><dc:format>image/svg+xml</dc:format><dc:type
           rdf:resource="http://purl.org/dc/dcmitype/StillImage" /><dc:title></dc:title></cc:Work></rdf:RDF></metadata><defs
     id="defs6"><clipPath
       id="clipPath16"
       clipPathUnits="userSpaceOnUse"><path
         id="path18"
         d="m 0,238.895 858.251,0 L 858.251,0 0,0 0,238.895 Z" /></clipPath></defs><g
     transform="matrix(1.25,0,0,-1.25,0,298.61875)"
     id="g10"><g
       id="g12"><g
         clip-path="url(#clipPath16)"
         id="g14"><g
           transform="translate(840.8428,198.9512)"
           id="g20"><path
             id="path22"
             style="fill:#2b2b2a;fill-opacity:1;fill-rule:nonzero;stroke:none"
             d="m 0,0 c -0.74,-8.98 -1.57,-17.95 -2.36,-26.93 -0.58,-6.54 -1.23,-13.07 -1.7,-19.62 -0.12,-1.77 -0.58,-2.38 -2.47,-2.33 -5.75,0.15 -11.5,0.02 -17.25,0.08 -1.11,0.01 -1.58,-0.28 -1.89,-1.41 -2.11,-7.76 -4.44,-15.47 -6.42,-23.26 -0.55,-2.15 -0.19,-4.54 -0.25,-6.82 0,-9.45 -0.01,-18.9 0,-28.35 0,-1.01 -0.61,-1.03 -1.34,-1.03 -3.83,0.01 -7.67,0.02 -11.5,-0.01 -0.92,0 -1.35,0.25 -1.26,1.28 0.84,9.59 1.65,19.18 2.47,28.77 0.25,2.96 0.52,5.91 0.73,8.87 0.03,0.5 0.16,1.26 -0.48,1.43 -0.63,0.18 -0.91,-0.52 -1.18,-0.97 -2.62,-4.44 -5.22,-8.9 -7.83,-13.35 -1.46,-2.67 -2.88,-5.36 -4.4,-8 -3.74,-6.5 -7.52,-12.97 -11.28,-19.46 -5.54,-9.56 -11.07,-19.12 -16.62,-28.68 -4.11,-7.08 -8.27,-14.15 -12.35,-21.24 -0.01,-0.02 -0.03,-0.05 -0.05,-0.07 -0.31,-0.45 -1.58,-2 -1.77,-2.16 -3.36,-4.58 -11.04,-2.96 -16.27,-2.37 -2.65,0.3 -5.81,0.17 -8.32,1.1 -2.3,0.85 -3.52,2.59 -4.31,4.65 -0.01,0 -0.01,0.01 -0.02,0.02 -0.01,0.01 -0.02,0.03 -0.03,0.05 -0.08,0.08 -0.13,0.19 -0.15,0.32 0,0.01 0,0.02 -0.01,0.03 -0.31,0.81 -0.89,2.54 -1.2,3.5 -0.1,0.3 -0.17,0.53 -0.2,0.62 -2.82,9.58 -5.59,19.17 -8.46,28.74 -0.46,1.55 0.04,1.76 1.42,1.76 5.26,0 5.3,0.03 5.29,5.29 -0.02,11.81 -0.05,23.62 -0.16,35.43 -0.02,1.72 0.49,2.21 2.18,2.16 3.89,-0.12 7.78,-0.09 11.68,-0.01 1.35,0.03 1.96,-0.41 2.26,-1.74 1.74,-7.56 4.01,-14.99 5.81,-22.55 0.97,-4.1 2.18,-8.2 3.43,-12.26 0.24,-0.78 0.45,-1.68 1.37,-1.79 1.02,-0.13 1.43,0.78 1.85,1.54 6.24,11.47 12.48,22.94 18.74,34.39 0.35,0.64 0.79,1.22 1.19,1.83 10.4,19.1 20.81,38.19 31.19,57.31 0.6,1.09 1.28,1.53 2.59,1.52 6.29,-0.08 12.59,-0.02 18.89,-0.06 1.07,0 1.55,0.22 1.92,1.38 2.89,8.9 5.93,17.75 8.85,26.64 0.41,1.24 0.89,1.54 2.21,1.39 C -12.87,5.1 -8.24,4.78 -3.64,4.33 -1,4.07 0.22,2.69 0,0 M -4.71,-52.69 C -5.64,-63 -6.56,-73.32 -7.48,-83.63 c -0.48,-5.57 -0.94,-11.14 -1.45,-16.71 -0.44,-4.83 -0.96,-9.65 -1.4,-14.48 -0.74,-8.1 -1.42,-16.21 -2.15,-24.31 -0.27,-3.07 -0.66,-6.13 -0.89,-9.19 0,0 -0.88,-20.18 -1.64,-24.24 -0.74,-4.07 -4.31,-3.69 -4.31,-3.69 0,0 -26.37,2.37 -29.69,3.31 -3.31,0.94 -2.74,3.94 -2.74,3.94 l 1.71,18.43 c 0.75,7.98 1.4,15.97 2.06,23.96 0.32,3.91 0.65,7.82 0.88,11.74 0.11,1.83 0.48,2.88 2.77,2.74 4.06,-0.23 8.15,-0.01 12.23,-0.11 1.58,-0.05 2.11,0.34 2.1,2.03 -0.1,9.03 -0.06,18.05 -0.06,27.07 0,0.61 0.14,1.21 0.21,1.82 -0.88,7.1 2.14,13.49 3.72,20.15 0.67,2.85 1.63,5.64 2.32,8.49 0.25,1.04 0.62,1.44 1.7,1.43 5.49,-0.07 10.98,-0.13 16.47,-0.09 1.24,0.01 1,-0.62 0.93,-1.35 m -135.78,-66.26 c -3.34,11.93 -6.93,23.78 -10.42,35.66 -0.17,0.59 -0.26,1.19 -0.39,1.79 -2.64,9.02 -5.28,18.03 -7.93,27.05 -0.18,0.62 -0.27,1.59 -1.07,1.49 -0.73,-0.08 -0.67,-1.04 -0.76,-1.68 -1.33,-9.24 -2.64,-18.49 -3.96,-27.74 -0.84,-6.35 -1.66,-12.69 -2.51,-19.04 -0.55,-4.09 -1.19,-8.17 -1.69,-12.27 -0.14,-1.16 -0.55,-1.59 -1.73,-1.58 -4.38,0.05 -8.77,0.01 -13.16,0.04 -0.47,0 -1.04,0.06 -1.39,0.33 -3.77,2.86 -8.12,2.93 -12.53,2.62 -1.88,-0.14 -2.48,0.22 -2.13,2.38 1.56,9.36 2.87,18.75 4.28,28.13 1.95,13.24 3.91,26.47 5.85,39.7 0.39,2.61 0.8,5.22 1.09,7.85 0.12,1.06 0.68,1.1 1.5,1.1 4.56,0.01 9.12,0.1 13.68,0.05 1.17,-0.02 1.6,0.4 1.91,1.44 1.2,4 2.54,7.97 3.72,11.98 0.34,1.17 0.89,1.49 2.07,1.49 10.44,-0.05 20.88,-0.05 31.33,0 1.14,0 1.59,-0.36 1.88,-1.45 5.18,-19.44 10.36,-38.88 15.63,-58.3 0.43,-1.58 -0.02,-1.7 -1.36,-1.68 -4.7,0.06 -9.4,0.02 -14.1,0.02 -0.77,0.01 -1.55,0.09 -1.38,-1.08 0.03,-9.89 0.05,-19.77 0.07,-29.66 0.01,-3.27 -0.08,-6.55 0.02,-9.83 0.05,-1.62 -0.36,-2.06 -2.1,-2.21 -2.78,-0.24 -3.7,0.85 -4.42,3.4 m -29.54,-0.46 c -0.64,-4.02 -1.28,-8.03 -1.77,-12.07 -0.16,-1.26 -0.48,-1.85 -1.44,-1.59 -8.25,0.97 -16.13,1.9 -24.02,2.83 -0.18,0.02 -0.36,0.1 -0.54,0.13 -1.69,0.19 -4.03,-0.28 -4.85,0.91 -0.71,1.01 0.19,3.15 0.41,4.79 0.38,2.78 0.8,5.55 1.17,8.33 0.15,1.11 0.61,1.63 1.82,1.5 1.4,-0.15 2.83,-0.27 4.24,-0.19 2.66,0.14 5.12,-0.23 7.34,-1.86 1.32,-0.98 2.87,-1.23 4.55,-1.18 3.89,0.11 7.79,0.01 11.68,0.07 1.27,0.01 1.6,-0.47 1.41,-1.67 m -2.49,-17.32 c -1.1,-7.65 -2.09,-14.98 -3.24,-22.27 -0.34,-2.15 -1.94,-3.39 -4.12,-3.21 -7.98,0.65 -15.95,1.41 -23.92,2.19 -2.25,0.22 -3.44,1.94 -3.11,4.17 1.08,7.24 2.16,14.48 3.21,21.73 0.19,1.39 0.53,2.05 2.25,1.82 9.28,-1.22 18.58,-2.3 27.89,-3.37 1.03,-0.12 1.34,-0.45 1.04,-1.06 m -39.4,99.62 c -0.04,-0.23 -0.08,-0.46 -0.11,-0.68 -0.08,-0.48 -0.16,-0.95 -0.24,-1.42 -0.11,-0.66 -0.22,-1.31 -0.33,-1.96 -0.15,-0.89 -0.3,-1.79 -0.45,-2.68 -0.09,-0.52 -0.18,-1.05 -0.26,-1.57 -0.12,-0.68 -0.23,-1.35 -0.34,-2.03 -0.21,-1.27 -0.71,-1.41 -1.77,-1.39 -3.65,0.05 -7.3,-0.01 -10.94,0.03 -1.61,0.02 -1.93,-0.56 -1.65,-2.15 0.45,-2.63 1,-5.43 -1.97,-7.22 -0.98,-0.6 -1.23,-1.55 -1.2,-2.71 0.06,-2.9 -0.01,-5.81 -0.03,-8.71 0.51,-4.5 -0.07,-9 0.01,-13.51 0.02,-1.51 0.38,-2.05 1.96,-1.97 2.59,0.14 5.2,-0.01 7.79,0.06 1.23,0.03 1.43,-0.39 1.23,-1.53 -1.25,-7.09 -2.45,-14.19 -3.64,-21.29 -0.18,-1.02 -0.55,-1.86 -1.45,-2.45 -0.66,-0.44 -1.35,-0.9 -1.89,-1.48 -3.27,-3.52 -7.17,-4.86 -12.03,-4.34 -3.93,0.43 -9.17,-4.93 -9.19,-8.81 -0.01,-2.04 -0.05,-4.07 -0.01,-6.1 0.01,-0.9 -0.39,-1.31 -1.2,-1.6 -6.66,-2.44 -13.31,-4.9 -19.96,-7.38 -0.9,-0.34 -1.46,-0.22 -1.97,0.64 -3,5.12 -6.01,10.22 -9.06,15.3 -0.5,0.83 -0.7,1.66 -0.68,2.62 0.18,10.7 0.04,21.37 -2.9,31.78 -0.28,1.01 0.24,1.55 0.95,2.14 4.51,3.74 9.02,7.48 13.43,11.33 1.25,1.09 1.74,0.95 2.51,-0.45 3.95,-7.24 7.97,-14.44 12.01,-21.63 0.4,-0.71 0.58,-1.86 1.7,-1.77 1.42,0.11 1.13,1.38 1.26,2.3 1.22,8.92 2.42,17.85 3.64,26.78 0,0.02 0.01,0.03 0.01,0.05 0.21,1.52 5.45,38.63 6.56,47.31 0.05,0.36 0.09,0.72 0.13,1.08 0.14,1.18 0.56,1.56 1.74,1.52 2.47,-0.08 4.95,0.08 7.42,-0.05 1.67,-0.1 2.8,0.59 4.15,1.48 2.51,1.66 3.31,3.71 3.09,6.64 -0.26,3.38 0.06,6.8 -0.11,10.2 -0.13,2.7 0.14,5.03 2.5,6.86 1.28,0.99 0.35,2.69 0.57,4.05 0.16,1.01 -0.54,2.45 0.37,3 3.32,1.98 2.59,5.09 2.6,8.03 0,4.02 0,4 3.89,4.76 3.39,0.66 6.76,1.36 10.14,2.06 3.26,0.68 4.34,-0.29 3.81,-3.5 -0.06,-0.37 -0.12,-0.74 -0.19,-1.11 -0.07,-0.42 -0.14,-0.84 -0.21,-1.26 -0.04,-0.24 -0.08,-0.47 -0.12,-0.71 -0.08,-0.52 -0.17,-1.04 -0.26,-1.56 -1.49,-8.91 -2.97,-17.83 -4.49,-26.74 -1.6,-9.43 -3.23,-18.84 -4.82,-28.26 m -2.6,-15.4 c -1,-5.57 -1.97,-11.15 -2.95,-16.72 -0.64,-4.19 -1.28,-8.37 -1.92,-12.56 -0.13,-0.83 -0.74,-0.85 -1.39,-0.85 -2.22,0.01 -4.44,0.01 -6.66,-0.01 -0.77,-0.01 -1.29,0.12 -1.27,1.09 0.07,3.14 0.09,6.28 0.12,9.42 l 0,1.85 c 0,1.91 0.08,3.83 -0.03,5.74 -0.16,2.59 0,4.83 2.51,6.53 1.68,1.14 0.72,3.32 0.77,5.03 0.03,1.27 0.3,1.7 1.63,1.64 2.71,-0.11 5.43,-0.07 8.15,-0.03 0.89,0.02 1.21,-0.19 1.04,-1.13 m -14.75,-86.36 c -0.65,-3.77 -1.28,-7.53 -1.96,-11.28 0,0 0,-0.04 -0.01,-0.11 -0.05,-0.5 -0.27,-2.8 -0.77,-7.12 -0.56,-4.94 -3.43,-4.85 -3.43,-4.85 0,0 -15.63,-3.21 -18.44,-3.83 -2.81,-0.63 -4.13,2.5 -4.13,2.5 l -4.85,9.61 -0.01,0.01 c -0.16,0.21 -0.27,0.49 -0.38,0.75 l -0.24,0.49 c -1.78,2.89 -3.44,5.86 -5.23,8.74 -0.61,0.97 -0.44,1.27 0.6,1.65 6.83,2.49 13.62,5.09 20.47,7.55 1.27,0.46 1.79,1.06 1.69,2.39 -0.09,1.29 0.12,2.62 -0.06,3.89 -0.57,3.85 0.45,6.78 4.12,8.7 1.24,0.65 2.3,1.34 3.74,1.15 4.24,-0.53 8.05,0.24 11.03,3.63 0.51,0.58 1.24,0.97 2.29,1.79 -1.54,-8.92 -2.98,-17.29 -4.43,-25.66 m -56.48,54.65 c -1.11,4.15 -3.51,7.67 -5.65,11.32 -6.8,9.62 -16.42,14.44 -27.77,16.29 -1.27,0.2 -2.06,0.75 -2.71,1.87 -4.53,7.7 -9.11,15.37 -13.72,23.02 -0.69,1.16 -0.83,1.6 0.81,1.55 2.9,-0.11 5.81,0.03 8.71,-0.07 1.27,-0.04 1.59,0.41 1.57,1.58 -0.05,4.07 0,8.15 -0.06,12.23 -0.02,1.08 0.21,1.52 1.4,1.44 1.91,-0.11 3.84,0.08 5.75,-0.06 2.34,-0.17 4.32,0.06 5.45,2.53 0.61,1.31 1.98,0.57 3.01,0.78 3.85,0.8 5.8,-1 7.61,-4.36 7.26,-13.44 14.87,-26.71 22.34,-40.04 2.29,-4.1 4.57,-8.2 6.86,-12.31 l 1.97,-3.05 c 0.68,-1.01 0.31,-1.9 -1.02,-2.95 -4.25,-3.35 -8.39,-6.84 -12.51,-10.36 -1.19,-1.02 -1.65,-0.86 -2.04,0.59 m -13.42,-67.94 c -0.26,-1.54 -1.14,-2.3 -2.72,-2.1 -8.7,1.06 -17.42,2.04 -26.1,3.27 -3.05,0.43 -1.81,2.72 -1.34,4.5 1.97,9.54 4.15,19.03 5.11,28.74 0.42,4.3 0.83,8.6 0.28,12.92 -0.34,2.69 -1.05,5.19 -2.8,7.31 -5.16,3.29 -9.62,1.71 -11.54,-4.18 -1.83,-5.61 -1.79,-11.47 -1.94,-17.26 -0.31,-11.25 -0.09,-22.51 0.76,-33.74 0.14,-1.94 -0.63,-2.73 -2.54,-2.69 -8.29,0.18 -16.57,0.33 -24.85,0.47 -2.26,0.04 -3.15,1.14 -2.74,3.34 0.41,13.95 0.46,27.91 0.28,41.87 -0.03,2.53 -0.38,5.03 -1.02,7.48 -1.9,7.25 -6.47,8.64 -11.93,3.65 -1.45,-6.39 -0.95,-12.9 -1.14,-19.35 -0.31,-10.75 -0.52,-21.5 -0.69,-32.25 -0.03,-2.19 -0.88,-3.17 -3.06,-3.2 -7.91,-0.1 -15.82,-0.28 -23.73,-0.38 -2.67,-0.04 -3.23,0.77 -2.94,4 -0.05,2.82 -0.1,5.64 -0.14,8.46 0.23,2.03 0.23,4.06 0,6.1 l 0,2.44 c -0.06,2.21 -0.17,4.42 -0.17,6.64 -0.03,10.18 -0.02,20.36 -0.03,30.54 -0.26,7.35 -0.46,14.7 -0.8,22.05 -0.12,2.53 0.77,3.59 3.36,3.61 6.92,0.05 13.84,0.22 20.76,0.45 2.22,0.08 3.38,-0.68 3.48,-2.98 0.06,-1.35 0.29,-2.7 0.54,-4.03 0.45,-2.31 1.61,-2.01 2.89,-0.67 2.97,3.13 6.45,5.43 10.72,6.23 7.47,1.4 14.01,-0.18 18.86,-6.46 1.31,-1.69 2.42,-1.66 3.93,-0.22 7.14,6.8 15.59,9.12 25.35,7.78 4.14,-0.57 8.23,-1.03 12.08,-2.73 6.61,-2.92 10.85,-8.03 13.49,-14.62 0.56,-1.4 1.42,-2.71 1.41,-4.3 1.85,-4.25 2.2,-8.82 2.57,-13.34 1.28,-15.97 -0.94,-31.68 -3.65,-47.35 m -41.56,128.94 c -3.1,5.81 -6.66,11.37 -10.01,17.05 -1.48,2.5 -0.88,3.96 1.9,4.54 10.49,2.21 20.98,4.41 31.48,6.54 2.28,0.46 4.23,-0.46 5.41,-2.41 2.13,-3.53 4.06,-7.18 6.11,-10.76 0.51,-0.9 0.51,-1.29 -0.68,-1.21 -1.11,0.07 -2.24,-0.12 -3.33,0.04 -2.07,0.3 -3.59,-0.3 -4.5,-2.23 -0.41,-0.89 -1.16,-0.96 -2,-0.95 -2.6,0.02 -5.2,0.01 -7.79,0.01 -2.79,-0.01 -3.18,-0.77 -2.96,-3.6 0.27,-3.57 0.1,-7.16 0.16,-10.75 0.01,-0.81 -0.42,-0.87 -1.04,-0.86 -1.49,0.03 -2.97,0.01 -5.22,0.01 -3.55,-1.28 -5.64,1.03 -7.53,4.58 m 99.97,9.63 c 1.38,9.52 2.67,19.06 3.95,28.59 0.46,3.43 1.81,5.02 5.23,5.76 2.83,0.61 5.69,1.13 8.52,1.75 0.89,0.2 1.18,0.02 1.14,-0.93 -0.07,-1.73 -0.11,-3.47 0.01,-5.2 0.08,-1.18 -0.26,-2.06 -1.24,-2.64 -1.56,-0.94 -2.08,-2.28 -1.83,-4.04 0.38,-2.59 -0.09,-4.9 -2.39,-6.52 -0.67,-0.47 -0.56,-1.16 -0.56,-1.84 0,-5.07 -0.01,-10.14 -0.01,-15.21 -0.01,-2.26 -2.62,-4.85 -4.93,-4.87 -1.18,-0.01 -2.35,0 -3.53,0 -5.21,-0.02 -5.12,-0.03 -4.36,5.15 m 52.61,-15.57 c 2.38,15.8 4.69,31.61 7.1,47.41 0.38,2.49 2.1,3.72 4.66,3.47 7.93,-0.78 15.85,-1.6 23.78,-2.4 1.72,-0.18 3.43,-0.39 5.15,-0.54 2.77,-0.24 4.61,-1.63 5.34,-4.32 2.63,-9.63 5.2,-19.27 7.86,-28.88 0.33,-1.2 0.16,-1.44 -1.07,-1.42 -5.51,0.06 -11.01,0.02 -16.51,0.02 -5.2,0 -10.4,-0.08 -15.59,0.05 -1.65,0.05 -2.19,-0.56 -2.61,-2.01 -1.12,-3.86 -2.47,-7.66 -3.62,-11.52 -0.33,-1.11 -0.83,-1.4 -1.94,-1.38 -3.71,0.07 -7.42,0.06 -11.13,0 -1.17,-0.02 -1.62,0.23 -1.42,1.52 m 152.31,33.1 c 1.16,2.06 3.26,2.94 5.68,2.76 2.34,-0.18 4.67,-0.43 7.01,-0.56 1.11,-0.06 1.56,-0.31 1.14,-1.54 -2.8,-8.25 -5.58,-16.52 -8.3,-24.8 -0.28,-0.85 -0.6,-1.2 -1.52,-1.2 -5.86,0.03 -11.73,0.02 -17.91,0.02 4.72,8.63 9.23,17.02 13.9,25.32 m -388.22,-126.52 c -0.51,-9.51 -2.03,-18.91 -3.48,-28.32 -0.42,-2.72 -1.55,-3.7 -4.3,-3.32 -8.08,1.1 -16.18,2.02 -24.26,3.07 -2.58,0.33 -1.8,5.39 -1.64,6.16 2.57,11.87 5.23,23.73 5.36,35.96 0.02,2.48 -0.17,4.92 -0.85,7.3 -0.66,2.32 -1.78,4.32 -4.02,5.48 -5.4,1.12 -8.27,-0.6 -9.86,-5.94 -1.16,-3.88 -1.5,-7.91 -1.59,-11.91 -0.28,-12.73 -0.52,-25.47 0.6,-38.18 0.2,-2.2 -0.51,-3.19 -2.86,-3.13 -8.15,0.23 -16.31,0.33 -24.47,0.51 -1.44,0.03 -2.97,0.13 -2.72,2.27 0.1,7.34 0.28,14.67 0.29,22.01 0.02,8.56 0.55,17.15 -0.59,25.68 -0.19,1.44 -0.6,2.87 -1.06,4.25 -1.61,4.8 -4.82,6.15 -9.35,4.01 -2.33,-1.96 -2.89,-4.58 -2.95,-7.46 -0.26,-15.13 -0.57,-30.25 -0.88,-45.38 -0.06,-3.28 -0.62,-3.81 -3.96,-3.87 -7.04,-0.12 -14.08,-0.24 -21.11,-0.35 -4.96,-0.08 -4.89,7.29 -4.89,8.23 -0.04,20.46 0.23,40.92 -0.45,61.37 -0.11,3.58 -0.23,7.17 -0.49,10.74 -0.17,2.35 0.65,3.44 3.09,3.47 6.98,0.09 13.97,0.22 20.95,0.47 2.49,0.09 3.45,-1.05 3.62,-3.32 0.09,-1.17 0.23,-2.33 0.39,-3.49 0.11,-0.74 0.22,-1.57 1.02,-1.84 0.84,-0.29 1.38,0.4 1.88,0.92 2.91,3.09 6.33,5.43 10.54,6.18 7.5,1.33 14.26,0.1 19.17,-6.43 1.05,-1.4 2.15,-1.83 3.52,-0.47 9.47,9.39 20.91,9.89 32.95,7.03 12.97,-3.08 19.52,-14.15 21.12,-26.5 0.24,-1.88 0.55,-3.75 0.82,-5.62 1.07,-6.51 0.81,-13.05 0.46,-19.58 m -133.61,-33.39 c -7.29,-0.15 -14.58,-0.25 -21.86,-0.5 -2.55,-0.09 -3.98,0.63 -3.63,3.43 0.03,0.3 0.03,0.62 -0.03,0.92 -0.2,1.05 0.16,2.46 -1.08,2.96 -1.14,0.45 -1.9,-0.66 -2.7,-1.29 -8.72,-6.87 -18.59,-7.24 -28.88,-5.05 -7.63,1.61 -14.09,5.22 -18.91,11.48 -0.4,0.53 -0.69,1.14 -1.03,1.71 -3.68,5.22 -5.24,11.22 -5.92,17.42 -1.29,11.87 0.15,23.68 1.26,35.48 0.54,5.76 1.35,11.51 2.01,17.26 0.2,1.73 1.2,2.52 2.84,2.54 8.84,0.11 17.68,0.25 26.52,0.26 3.35,0.01 2.32,-2.38 2.06,-4.27 -1.6,-10.92 -3.15,-21.85 -3.7,-32.89 -0.21,-4 -0.18,-8.02 -0.28,-12.02 l 0,-0.01 c 0,-0.74 0.96,-5.34 2.19,-6.97 l 0.15,-0.18 c 3.72,-4.11 8.96,-5.39 14.34,-3.43 5.03,1.82 8.47,6.33 8.58,11.65 0.26,13.23 -0.39,26.43 -1.25,39.63 -0.2,2.95 -0.36,5.91 -0.56,8.87 -0.12,1.71 0.74,2.59 2.37,2.63 8.71,0.19 17.42,0.34 26.12,0.49 1.37,0.02 2.05,-0.77 2.16,-2.05 0.09,-1.17 0.06,-2.34 0.08,-3.52 0.27,-7.28 0.54,-14.56 0.82,-21.84 0.73,-19.57 1.48,-39.13 2.2,-58.7 0.13,-3.49 -0.38,-3.94 -3.87,-4.01 m -143.94,41.55 c 0.01,-0.07 0.03,-0.15 0.05,-0.22 0.37,-1.34 2.24,-6.47 3.76,-8.38 0.05,-0.06 0.1,-0.13 0.16,-0.19 7.35,-8.27 17.48,-5.64 23.56,2.95 2.63,3.73 2.51,3.8 7.1,2.56 4.46,-1.2 8.94,-2.34 13.38,-3.59 4.28,-1.21 4.46,-1.65 2.92,-5.82 -3.33,-14.18 -17.08,-26.03 -32.06,-27.38 -12.51,-1.13 -24.24,1.01 -34.28,9.22 -1.16,0.95 -2.39,1.88 -3.18,3.18 -0.92,1.01 -1.66,1.89 -1.69,2.09 -5.2,6.22 -7.81,13.57 -8.8,21.46 -1.41,11.25 -0.45,22.27 4.98,32.46 6.5,12.21 17.19,18.11 30.62,19.62 5.97,0.67 11.91,0.57 17.77,-0.85 10.77,-2.61 19,-8.53 23.96,-18.63 1.93,-2.63 2.8,-5.72 3.73,-8.76 0.5,-1.64 -0.08,-2.76 -1.83,-3.2 -6.17,-1.53 -12.34,-3.07 -18.5,-4.62 -2.04,-0.51 -2.85,0.72 -3.64,2.28 -3.1,6.05 -8.25,8.74 -14.87,8.37 -6.09,-0.34 -9.93,-4.01 -12.14,-9.44 -1.73,-4.23 -1.86,-8.66 -1,-13.11 m -54.04,-33.89 c -16.99,-10.23 -43.67,-9 -59.51,2.88 -3.31,2.48 -6.37,5.26 -8.91,8.55 -0.39,0.4 -0.82,0.76 -1.17,1.18 -2.73,3.27 -2.74,3.78 -0.09,7.12 3.1,3.92 6.25,7.81 9.31,11.75 1.24,1.59 2.28,1.56 3.72,0.19 6.17,-5.89 13.46,-10.02 21.55,-12.48 2.95,-0.9 6.25,-1.32 9.5,-0.69 4.7,0.91 6.84,5.36 4.51,9.56 -1.04,1.87 -2.65,3.23 -4.18,4.66 -9.7,6.75 -20.62,11.7 -29.36,19.87 -1.07,0.99 -2.29,1.87 -2.97,3.23 -6.85,6.99 -9.91,15.41 -9.43,25.15 0.83,16.97 13.01,27.4 28.64,30 15.47,2.57 29.83,-0.56 42.79,-9.53 0.14,-0.09 0.29,-0.2 0.46,-0.33 1.65,-1.14 3.31,-2.31 4.69,-3.78 0.01,0 0.01,0 0.01,-0.01 0.56,-0.47 1.12,-0.95 1.64,-1.4 0.01,-0.01 0.03,-0.03 0.05,-0.04 0,-0.01 0.01,-0.01 0.02,-0.01 1.11,-0.65 1.98,-1.63 2.84,-2.58 0.05,-0.05 0.09,-0.09 0.12,-0.13 0.9,-0.97 0.67,-2.07 0.02,-3.08 -2.88,-4.47 -5.79,-8.92 -8.67,-13.38 -1.21,-1.86 -2.49,-1.31 -3.87,-0.2 -5.95,4.84 -12.47,8.69 -19.84,10.95 -1.64,0.5 -3.36,0.82 -5.07,1.05 -4.6,0.6 -6.83,-0.96 -7.91,-5.4 0.24,-2.58 1.64,-4.47 3.62,-6.01 3.98,-3.09 8.52,-5.24 12.9,-7.63 5.16,-2.82 10.3,-5.67 14.88,-9.38 6.63,-5.35 11.92,-11.72 14.32,-20.08 0.57,-1.99 0.82,-4.07 1.22,-6.11 1.94,-13.47 -3.12,-26.22 -15.83,-33.89 M 12.7,4.7 c -2.49,7.64 -7.55,12.03 -15.72,12.67 -8.48,0.68 -16.97,1.38 -25.44,2.24 -7.82,0.79 -15.28,-2.91 -19.05,-9.79 -12.49,-22.78 -24.95,-45.57 -37.45,-68.35 -4.79,-8.73 -9.65,-17.43 -14.48,-26.14 -0.3,-0.92 -0.59,-2.31 -1.47,-2.29 -0.79,0.03 -0.71,1.52 -0.94,2.37 -9.1,33.68 -18.2,67.36 -27.28,101.04 -0.14,0.53 -0.21,1.08 -0.31,1.62 -2.92,8.36 -8.68,13 -17.6,13.77 -8,0.69 -15.98,1.55 -23.95,2.47 -6.01,0.69 -11.85,0.9 -16.88,-3.3 -1.09,-0.92 -0.88,0.47 -1,0.76 -2.67,6.15 -8.56,9.19 -15.06,7.87 -10.75,-2.2 -21.51,-4.35 -32.28,-6.45 -8.72,-1.71 -12.25,-5.58 -13.21,-14.13 -0.76,-6.8 -1.84,-13.57 -2.77,-20.35 -2.04,-14.79 -4.06,-29.58 -6.09,-44.37 -0.73,-5.29 -1.47,-10.58 -2.27,-16.34 -0.61,1.05 -0.98,1.67 -1.34,2.31 -13.4,23.78 -26.8,47.56 -40.21,71.33 -2.9,5.14 -8.26,7.98 -13.4,6.94 -13.29,-2.68 -26.57,-5.38 -39.81,-8.25 -9.55,-2.06 -13.53,-11.54 -8.56,-19.93 8.89,-14.99 17.75,-30 26.7,-44.96 0.85,-1.41 0.6,-1.74 -0.86,-2.01 -3.64,-0.69 -7.24,-1.56 -10.63,-3.1 -2.06,-0.93 -3.96,-0.81 -6.06,-0.04 -5.12,1.86 -10.47,3.95 -15.85,2.89 -6.19,-1.23 -11.88,-0.43 -17.92,0.76 -7.21,1.41 -14.67,0.13 -22.01,-0.04 -5.87,-0.14 -11.36,-1.61 -15.27,-6.62 -1.3,-1.65 -2.99,-1.24 -4.67,-0.29 -15.11,8.56 -30.77,9.81 -46.94,3.3 -2.02,-0.81 -3.84,-0.77 -5.89,-0.04 -5.42,1.93 -11.03,4.05 -16.77,2.87 -5.57,-1.15 -10.79,-1.26 -16.06,0.82 -0.33,0.13 -0.72,0.15 -1.09,0.17 -8.59,0.4 -17.17,0.21 -25.72,-0.64 -2.21,-0.22 -4.29,-0.43 -6.17,1.04 -2.67,2.11 -5.86,3.07 -9.12,3.25 -8.64,0.5 -17.3,0.07 -25.94,-0.32 -4.39,-0.2 -8.56,-1.19 -12.01,-4.15 -1.54,-1.31 -3.15,-1.44 -5,-0.71 -2.59,1.03 -5.28,1.84 -8.07,1.86 -8.84,0.06 -17.7,0.23 -26.52,-0.37 -4.99,-0.34 -9.53,-1.92 -12.86,-6.03 -2.4,-2.96 -3.36,-3.09 -6.45,-0.71 -9.51,7.31 -20.61,10.08 -32.23,10.36 -12.8,0.3 -24.98,-2.61 -35.75,-10.02 -0.03,-0.06 -0.04,-0.14 -0.08,-0.17 -1.49,-1.02 -3.09,-3.06 -4.75,-2.07 -1.34,0.81 -0.16,3.09 0.22,4.63 0.62,2.54 0.29,5 -0.14,7.48 -0.93,3.97 -3.35,6.96 -6.31,9.59 -20.04,17.77 -42.94,24.4 -69.15,17.34 -23.3,-6.29 -36.21,-27.93 -32.62,-51.13 1.42,-9.16 5.36,-17.11 11.02,-24.31 1.55,-1.98 1.48,-3.52 -0.29,-5.48 -4.68,-5.19 -9.06,-10.65 -12.97,-16.43 -2.56,-3.79 -3.28,-8.08 -2.36,-12.73 0.82,-4.09 3.36,-7.08 5.57,-10.32 4,-4.12 8.1,-8.09 12.72,-11.56 9.02,-6.75 19.47,-9.51 30.31,-11.04 12.12,-1.71 23.91,0.29 35.31,4.44 7.74,2.81 14.27,7.58 19.82,13.65 1.64,1.79 3.29,2.24 5,0.26 8.47,-9.79 19.31,-15.15 31.92,-17.3 18.72,-3.19 35.48,0.5 49.42,14.07 1.68,1.63 3.45,2.46 5.2,0.27 7.37,-9.18 17.12,-14.03 28.52,-16.17 7.46,-1.4 14.83,-1.8 22.18,0.36 2.64,0.78 5.21,0.87 7.81,-0.05 4.86,-1.73 9.87,-1.24 14.87,-1.12 6.48,0.16 13.2,-0.86 19.33,1.3 5.83,2.05 11.51,1.23 17.29,1.3 7.35,0.09 14.75,-0.44 22.02,0.82 3.91,0.68 7.49,1.22 11.29,-0.64 2.75,-1.35 5.97,-1.5 9.07,-1.58 6.37,-0.18 12.73,-0.29 19.1,-0.42 4.79,-0.1 9.33,0.76 13.47,3.33 3.18,1.98 6.53,0.54 9.77,0.21 6.38,-0.65 12.73,-1.63 19.12,-2.31 2.67,-0.28 5.29,0.51 7.78,1.43 2.19,0.8 4.32,0.95 6.52,0.25 3.47,-1.12 7.03,-1.2 10.63,-1.1 9,0.25 18.06,-0.59 26.92,1.81 1.17,0.31 2.32,-0.05 3.42,-0.57 3.75,-1.77 7.75,-2.49 11.85,-2.62 6.49,-0.21 12.98,-0.32 19.47,-0.43 4.66,-0.08 9.09,0.78 13.11,3.29 3.18,2 6.53,0.59 9.77,0.26 6.38,-0.64 12.73,-2.03 19.12,-2.22 7.87,-0.23 15.33,2.91 17.27,14.7 0.47,2.84 1.03,5.66 1.65,9.03 1.63,-2.88 3.02,-5.32 4.41,-7.76 0.37,-0.56 0.75,-1.11 1.1,-1.68 4.37,-7.06 8.19,-14.46 12.98,-21.26 1.27,-0.71 2.5,-1.51 3.82,-2.13 3.32,-1.54 6.73,-1.07 10.17,-0.39 6.17,1.23 12.33,2.6 18.55,3.52 7.41,1.09 11.96,4.88 13.2,13.05 0.98,-3.3 2.54,-5.59 4.34,-7.73 0.25,-0.26 0.5,-0.51 0.75,-0.77 5.8,-4.67 12.92,-3.94 19.64,-4.69 5.15,-0.58 10.34,-1.05 15.52,-1.16 8.58,-0.19 15.62,6.23 16.76,14.72 2.07,15.35 4.23,30.69 6.36,46.04 0.05,0.33 0.22,0.65 0.49,1.42 1.4,-4.72 2.66,-9.01 3.92,-13.3 2.75,-9.51 5.34,-19.07 8.31,-28.52 2.33,-7.41 3.05,-15.54 8.78,-21.59 7.06,-6.04 15.96,-4.95 24.25,-6.25 5.11,-0.8 9.97,-0.31 14.46,2.43 2.85,1.74 5.11,4.05 6.78,6.96 8.96,15.57 17.94,31.13 26.92,46.69 0.25,0.43 0.52,0.83 1.33,1.18 -0.54,-5.73 -1.09,-11.46 -1.63,-17.19 -0.58,-7.12 -1,-14.26 -1.8,-21.36 -0.85,-7.55 -1.1,-14.82 5.07,-20.59 6.14,-5 13.73,-4.17 20.86,-5.12 5.44,-0.72 10.94,-1.01 16.38,-1.76 10.16,-1.41 18.71,5.58 19.54,15.79 1.3,15.94 2.87,31.85 4.3,47.78 1.29,14.51 2.53,29.03 3.83,43.55 1.43,15.99 2.9,31.97 4.33,47.96 1.06,11.93 2.1,23.87 3.07,35.81 C 13.1,1.13 12.8,2.92 12.7,4.7" /></g><g
           transform="translate(557.0027,54.6712)"
           id="g24"><path
             id="path26"
             style="fill:#7a7b7a;fill-opacity:1;fill-rule:nonzero;stroke:none"
             d="m 0,0 c -0.62,-3.37 -1.18,-6.19 -1.65,-9.03 -1.94,-11.79 -9.4,-14.93 -17.27,-14.7 -6.39,0.19 -12.74,1.58 -19.12,2.22 -3.24,0.33 -6.59,1.74 -9.77,-0.26 -4.02,-2.51 -8.45,-3.37 -13.11,-3.29 -6.49,0.11 -12.98,0.22 -19.47,0.43 -4.1,0.13 -8.1,0.85 -11.85,2.62 -1.1,0.52 -2.25,0.88 -3.42,0.57 -8.86,-2.4 -17.92,-1.56 -26.92,-1.81 -3.6,-0.1 -7.16,-0.02 -10.63,1.1 -2.2,0.7 -4.33,0.55 -6.52,-0.25 -2.49,-0.92 -5.11,-1.71 -7.78,-1.43 -6.39,0.68 -12.74,1.66 -19.12,2.31 -3.24,0.33 -6.59,1.77 -9.77,-0.21 -4.14,-2.57 -8.68,-3.43 -13.47,-3.33 -6.37,0.13 -12.73,0.24 -19.1,0.42 -3.1,0.08 -6.32,0.23 -9.07,1.58 -3.8,1.86 -7.38,1.32 -11.29,0.64 -7.27,-1.26 -14.67,-0.73 -22.02,-0.82 -5.78,-0.07 -11.46,0.75 -17.29,-1.3 -6.13,-2.16 -12.85,-1.14 -19.33,-1.3 -5,-0.12 -10.01,-0.61 -14.87,1.12 -2.6,0.92 -5.17,0.83 -7.81,0.05 -7.35,-2.16 -14.72,-1.76 -22.18,-0.36 -11.4,2.14 -21.15,6.99 -28.52,16.17 -1.75,2.19 -3.52,1.36 -5.2,-0.27 -13.94,-13.57 -30.7,-17.26 -49.42,-14.07 -12.61,2.15 -23.45,7.51 -31.92,17.3 -1.71,1.98 -3.36,1.53 -5,-0.26 -5.55,-6.07 -12.08,-10.84 -19.82,-13.65 -11.4,-4.15 -23.19,-6.15 -35.31,-4.44 -10.84,1.53 -21.29,4.29 -30.31,11.04 -4.62,3.47 -8.72,7.44 -12.72,11.56 0.15,-1.43 1.03,-2.5 1.84,-3.57 9.55,-12.79 21.64,-21.74 37.59,-24.87 23.98,-4.71 45.77,-1.29 63.58,17.01 1.91,1.96 3.47,1.17 5.01,-0.53 7.24,-8.03 16.04,-13.32 26.63,-15.86 20.56,-4.93 39,-1.76 54.64,13.29 2.06,1.99 3.43,1.74 5.42,-0.55 12.27,-14.16 28.24,-18.17 46.05,-16.04 5.19,0.62 10.02,1.2 15.28,0.05 7.08,-1.55 14.42,-0.28 21.64,-0.28 5.06,0 9.98,0.67 14.66,2.7 1.04,0.45 2.16,0.33 3.29,0.24 11.48,-0.89 22.95,-1.14 34.33,1.05 1.7,0.33 3.28,0.33 4.88,-0.43 2.99,-1.41 6.19,-2.2 9.48,-2.34 6.18,-0.25 12.36,-0.28 18.54,-0.56 5.92,-0.27 11.61,0.24 16.75,3.55 1.18,0.76 2.57,0.81 3.96,0.63 5.21,-0.67 10.44,-1.25 15.64,-2.01 6.21,-0.89 12.39,-1.68 18.42,0.99 0.91,0.4 1.98,0.37 2.93,0.06 6.45,-2.12 13.09,-1.55 19.69,-1.41 5.18,0.1 10.43,-0.32 15.52,0.91 3.34,0.8 6.47,1.2 9.68,-0.57 1.36,-0.75 3.06,-0.97 4.64,-1.22 7.06,-1.14 14.2,-0.43 21.29,-0.9 5.97,-0.4 11.73,0.17 16.93,3.54 1.29,0.83 2.82,0.74 4.33,0.55 7.85,-0.98 15.7,-2.05 23.57,-2.84 8.33,-0.84 14.99,3.99 16.92,12.06 0.89,3.72 1.56,7.49 2.33,11.24 C 3.02,-5.32 1.63,-2.88 0,0 m 296.54,148.98 c 0.1,-1.78 0.4,-3.57 0.25,-5.33 -0.97,-11.94 -2.01,-23.88 -3.07,-35.81 -1.43,-15.99 -2.9,-31.97 -4.33,-47.96 -1.3,-14.52 -2.54,-29.04 -3.83,-43.55 -1.43,-15.93 -3,-31.84 -4.3,-47.78 -0.83,-10.21 -9.38,-17.2 -19.54,-15.79 -5.44,0.75 -10.94,1.04 -16.38,1.76 -7.13,0.95 -14.72,0.12 -20.86,5.12 1.34,-5.88 7.59,-10.73 14.52,-11.41 8.18,-0.79 16.37,-1.53 24.52,-2.57 6.69,-0.86 12.79,-0.32 17.75,4.95 3.83,4.06 4.29,9.12 4.73,14.27 1.61,18.65 3.26,37.3 4.93,55.95 1.68,18.77 3.39,37.53 5.08,56.3 1.71,19.08 3.38,38.16 5.11,57.24 0.5,5.53 -0.35,10.59 -4.58,14.61 M 221.51,17.6 c -8.98,-15.56 -17.96,-31.12 -26.92,-46.69 -1.67,-2.91 -3.93,-5.22 -6.78,-6.96 -4.49,-2.74 -9.35,-3.23 -14.46,-2.43 -8.29,1.3 -17.19,0.21 -24.25,6.25 2.32,-6.28 6.81,-10.4 13.28,-11.68 5.73,-1.15 11.63,-1.36 17.45,-2.12 7.48,-0.98 15.21,2.73 19,9.31 4.87,8.45 9.68,16.93 14.62,25.34 2.55,4.34 4.75,8.9 7.76,12.97 0.54,5.73 1.09,11.46 1.63,17.19 -0.81,-0.35 -1.08,-0.75 -1.33,-1.18 m -93.42,13.58 c -0.27,-0.77 -0.44,-1.09 -0.49,-1.42 -2.13,-15.35 -4.29,-30.69 -6.36,-46.04 -1.14,-8.49 -8.18,-14.91 -16.76,-14.72 -5.18,0.11 -10.37,0.58 -15.52,1.16 -6.72,0.75 -13.84,0.02 -19.64,4.69 1.05,-5.4 7.22,-10.5 13.44,-11.07 7.93,-0.73 15.86,-1.44 23.79,-2.14 10.24,-0.9 17.81,5.34 19.16,15.52 1.76,13.21 3.67,26.4 5.52,39.6 0.07,0.48 -0.16,1.23 0.78,1.12 -1.26,4.29 -2.52,8.58 -3.92,13.3 M 64.23,-16.65 c -1.24,-8.17 -5.79,-11.96 -13.2,-13.05 -6.22,-0.92 -12.38,-2.29 -18.55,-3.52 -3.44,-0.68 -6.85,-1.15 -10.17,0.39 -1.32,0.62 -2.55,1.42 -3.82,2.13 0.42,-0.82 0.81,-1.65 1.28,-2.44 4.12,-7.06 8.23,-8.98 16.31,-7.52 6.49,1.18 12.96,2.46 19.44,3.67 8.37,1.56 11.24,4.32 13.05,12.61 -1.8,2.14 -3.36,4.43 -4.34,7.73 m 119.66,78.04 c -8.35,30.93 -16.7,61.87 -25.04,92.8 -0.83,3.08 -2.02,5.96 -4.45,8.16 0.1,-0.54 0.17,-1.09 0.31,-1.62 9.08,-33.68 18.18,-67.36 27.28,-101.04 0.23,-0.85 0.15,-2.34 0.94,-2.37 0.88,-0.02 1.17,1.37 1.47,2.29 -0.17,0.59 -0.35,1.18 -0.51,1.78 m -627.83,30.43 c 0.43,-2.48 0.76,-4.94 0.14,-7.48 -0.38,-1.54 -1.56,-3.82 -0.22,-4.63 1.66,-0.99 3.26,1.05 4.75,2.07 0.04,0.03 0.05,0.11 0.08,0.17 -0.62,3.75 -1.67,7.3 -4.75,9.87" /></g><g
           transform="translate(85.1928,50.6413)"
           id="g28"><path
             id="path30"
             style="fill:#99c94a;fill-opacity:1;fill-rule:nonzero;stroke:none"
             d="m 0,0 c -16.99,-10.23 -43.67,-9 -59.51,2.88 -3.31,2.48 -6.37,5.26 -8.91,8.55 -0.39,0.4 -0.82,0.76 -1.17,1.18 -2.73,3.27 -2.74,3.78 -0.09,7.12 3.1,3.92 6.25,7.81 9.31,11.75 1.24,1.59 2.28,1.56 3.72,0.19 6.17,-5.89 13.46,-10.02 21.55,-12.48 2.95,-0.9 6.25,-1.32 9.5,-0.69 4.7,0.91 6.84,5.36 4.51,9.56 -1.04,1.87 -2.65,3.23 -4.18,4.66 -9.7,6.75 -20.62,11.7 -29.36,19.87 -1.07,0.99 -2.29,1.87 -2.97,3.23 -6.85,6.99 -9.91,15.41 -9.43,25.15 0.83,16.97 13.01,27.4 28.64,30 15.47,2.57 29.83,-0.56 42.79,-9.53 0.14,-0.09 0.29,-0.2 0.46,-0.33 1.65,-1.14 3.31,-2.31 4.69,-3.78 0.01,0 0.01,0 0.01,-0.01 0.31,-0.31 1.31,-1.16 1.64,-1.4 0.01,-0.01 0.03,-0.03 0.05,-0.04 0,-0.01 0.01,-0.01 0.02,-0.01 1.11,-0.65 1.98,-1.63 2.84,-2.58 0.05,-0.05 0.09,-0.09 0.12,-0.13 0.9,-0.97 0.67,-2.07 0.02,-3.08 C 11.37,85.61 8.46,81.16 5.58,76.7 4.37,74.84 3.09,75.39 1.71,76.5 c -5.95,4.84 -12.47,8.69 -19.84,10.95 -1.64,0.5 -3.36,0.82 -5.07,1.05 -4.6,0.6 -6.83,-0.96 -7.91,-5.4 0.24,-2.58 1.64,-4.47 3.62,-6.01 3.98,-3.09 8.52,-5.24 12.9,-7.63 5.16,-2.82 10.3,-5.67 14.88,-9.38 C 6.92,54.73 12.21,48.36 14.61,40 15.18,38.01 15.43,35.93 15.83,33.89 17.77,20.42 12.71,7.67 0,0" /></g><g
           transform="translate(190.1628,71.8413)"
           id="g32"><path
             id="path34"
             style="fill:#99c94a;fill-opacity:1;fill-rule:nonzero;stroke:none"
             d="m 0,0 c -3.33,-14.18 -17.08,-26.03 -32.06,-27.38 -12.51,-1.13 -24.24,1.01 -34.28,9.22 -0.7,0.57 -2.07,1.97 -3.18,3.18 -0.92,1.01 -1.66,1.89 -1.69,2.09 -5.2,6.22 -7.81,13.57 -8.8,21.46 -1.41,11.25 -0.45,22.27 4.98,32.46 6.5,12.21 17.19,18.11 30.62,19.62 5.97,0.67 11.91,0.57 17.77,-0.85 10.77,-2.61 19,-8.53 23.96,-18.63 1.93,-2.63 2.8,-5.72 3.73,-8.76 0.5,-1.64 -0.08,-2.76 -1.83,-3.2 -6.17,-1.53 -12.34,-3.07 -18.5,-4.62 -2.04,-0.51 -2.85,0.72 -3.64,2.28 -3.1,6.05 -8.25,8.74 -14.87,8.37 -6.09,-0.34 -9.93,-4.01 -12.14,-9.44 -1.73,-4.23 -1.86,-8.66 -1,-13.11 0.01,-0.07 0.03,-0.15 0.05,-0.22 0.37,-1.34 2.24,-6.47 3.76,-8.38 0.05,-0.06 0.1,-0.13 0.16,-0.19 7.35,-8.27 17.48,-5.64 23.56,2.95 2.63,3.73 2.51,3.8 7.1,2.56 4.46,-1.2 8.94,-2.34 13.38,-3.59 C 1.36,4.61 1.54,4.17 0,0" /></g><g
           transform="translate(283.1728,42.9812)"
           id="g36"><path
             id="path38"
             style="fill:#99c94a;fill-opacity:1;fill-rule:nonzero;stroke:none"
             d="m 0,0 c -7.29,-0.15 -14.58,-0.25 -21.86,-0.5 -2.55,-0.09 -3.98,0.63 -3.63,3.43 0.03,0.3 0.03,0.62 -0.03,0.92 -0.2,1.05 0.16,2.46 -1.08,2.96 -1.14,0.45 -1.9,-0.66 -2.7,-1.29 -8.72,-6.87 -18.59,-7.24 -28.88,-5.05 -7.63,1.61 -14.09,5.22 -18.91,11.48 -0.4,0.53 -0.69,1.14 -1.03,1.71 -3.68,5.22 -5.24,11.22 -5.92,17.42 -1.29,11.87 0.15,23.68 1.26,35.48 0.54,5.76 1.35,11.51 2.01,17.26 0.2,1.73 1.2,2.52 2.84,2.54 8.84,0.11 17.68,0.25 26.52,0.26 3.35,0.01 2.32,-2.38 2.06,-4.27 -1.6,-10.92 -3.15,-21.85 -3.7,-32.89 -0.21,-4 -0.18,-8.02 -0.28,-12.02 l 0,-0.01 c 0,-0.74 0.96,-5.34 2.19,-6.97 l 0.15,-0.18 c 3.72,-4.11 8.96,-5.39 14.34,-3.43 5.03,1.82 8.47,6.33 8.58,11.65 0.26,13.23 -0.39,26.43 -1.25,39.63 -0.2,2.95 -0.36,5.91 -0.56,8.87 -0.12,1.71 0.74,2.59 2.37,2.63 8.71,0.19 17.42,0.34 26.12,0.49 1.37,0.02 2.05,-0.77 2.16,-2.05 C 0.86,86.9 0.83,85.73 0.85,84.55 1.12,77.27 1.39,69.99 1.67,62.71 2.4,43.14 3.15,23.58 3.87,4.01 4,0.52 3.49,0.07 0,0" /></g><g
           transform="translate(541.6728,46.7913)"
           id="g40"><path
             id="path42"
             style="fill:#99c94a;fill-opacity:1;fill-rule:nonzero;stroke:none"
             d="m 0,0 c -0.26,-1.54 -1.14,-2.3 -2.72,-2.1 -8.7,1.06 -17.42,2.04 -26.1,3.27 -3.05,0.43 -1.81,2.72 -1.34,4.5 1.97,9.54 4.15,19.03 5.11,28.74 0.42,4.3 0.83,8.6 0.28,12.92 -0.34,2.69 -1.05,5.19 -2.8,7.31 -5.16,3.29 -9.62,1.71 -11.54,-4.18 -1.83,-5.61 -1.79,-11.47 -1.94,-17.26 -0.31,-11.25 -0.09,-22.51 0.76,-33.74 0.14,-1.94 -0.63,-2.73 -2.54,-2.69 -8.29,0.18 -16.57,0.33 -24.85,0.47 -2.26,0.04 -3.15,1.14 -2.74,3.34 0.41,13.95 0.46,27.91 0.28,41.87 -0.03,2.53 -0.38,5.03 -1.02,7.48 -1.9,7.25 -6.47,8.64 -11.93,3.65 -1.45,-6.39 -0.95,-12.9 -1.14,-19.35 -0.31,-10.75 -0.52,-21.5 -0.69,-32.25 -0.03,-2.19 -0.88,-3.17 -3.06,-3.2 -7.91,-0.1 -15.82,-0.28 -23.73,-0.38 -2.67,-0.04 -3.23,0.77 -2.94,4 -0.05,2.82 -0.1,5.64 -0.14,8.46 0.23,2.03 0.23,4.06 0,6.1 l 0,2.44 c 0.03,10.61 0.08,21.23 0.06,31.85 0,1.78 0.29,3.58 -0.26,5.33 -0.26,7.35 -0.46,14.7 -0.8,22.05 -0.12,2.53 0.77,3.59 3.36,3.61 6.92,0.05 13.84,0.22 20.76,0.45 2.22,0.08 3.38,-0.68 3.48,-2.98 0.06,-1.35 0.29,-2.7 0.54,-4.03 0.45,-2.31 1.61,-2.01 2.89,-0.67 2.97,3.13 6.45,5.43 10.72,6.23 7.47,1.4 14.01,-0.18 18.86,-6.46 1.31,-1.69 2.42,-1.66 3.93,-0.22 7.14,6.8 15.59,9.12 25.35,7.78 4.14,-0.57 8.23,-1.03 12.08,-2.73 6.61,-2.92 10.85,-8.03 13.49,-14.62 0.56,-1.4 1.42,-2.71 1.41,-4.3 C 2.93,56.44 3.28,51.87 3.65,47.35 4.93,31.38 2.71,15.67 0,0" /></g><g
           transform="translate(416.7828,76.3712)"
           id="g44"><path
             id="path46"
             style="fill:#99c94a;fill-opacity:1;fill-rule:nonzero;stroke:none"
             d="m 0,0 c -0.51,-9.51 -2.03,-18.91 -3.48,-28.32 -0.42,-2.72 -1.55,-3.7 -4.3,-3.32 -8.08,1.1 -16.18,2.02 -24.26,3.07 -2.58,0.33 -1.8,5.39 -1.64,6.16 2.57,11.87 5.23,23.73 5.36,35.96 0.02,2.48 -0.17,4.92 -0.85,7.3 -0.66,2.32 -1.78,4.32 -4.02,5.48 -5.4,1.12 -8.27,-0.6 -9.86,-5.94 -1.16,-3.88 -1.5,-7.91 -1.59,-11.91 -0.28,-12.73 -0.52,-25.47 0.6,-38.18 0.2,-2.2 -0.51,-3.19 -2.86,-3.13 -8.15,0.23 -16.31,0.33 -24.47,0.51 -1.44,0.03 -2.97,0.13 -2.72,2.27 0.1,7.34 0.28,14.67 0.29,22.01 0.02,8.56 0.55,17.15 -0.59,25.68 -0.19,1.44 -0.6,2.87 -1.06,4.25 -1.61,4.8 -4.82,6.15 -9.35,4.01 -2.33,-1.96 -2.89,-4.58 -2.95,-7.46 -0.26,-15.13 -0.57,-30.25 -0.88,-45.38 -0.06,-3.28 -0.62,-3.81 -3.96,-3.87 -7.04,-0.12 -14.08,-0.24 -21.11,-0.35 -4.96,-0.08 -4.89,7.29 -4.89,8.23 -0.04,20.46 0.23,40.92 -0.45,61.37 -0.11,3.58 -0.23,7.17 -0.49,10.74 -0.17,2.35 0.65,3.44 3.09,3.47 6.98,0.09 13.97,0.22 20.95,0.47 2.49,0.09 3.45,-1.05 3.62,-3.32 0.09,-1.17 0.23,-2.33 0.39,-3.49 0.11,-0.74 0.22,-1.57 1.02,-1.84 0.84,-0.29 1.38,0.4 1.88,0.92 2.91,3.09 6.33,5.43 10.54,6.18 7.5,1.33 14.26,0.1 19.17,-6.43 1.05,-1.4 2.15,-1.83 3.52,-0.47 9.47,9.39 20.91,9.89 32.95,7.03 12.97,-3.08 19.52,-14.15 21.12,-26.5 0.24,-1.88 0.55,-3.75 0.82,-5.62 C 0.61,13.07 0.35,6.53 0,0" /></g><g
           transform="translate(723.6227,121.0413)"
           id="g48"><path
             id="path50"
             style="fill:#ffffff;fill-opacity:1;fill-rule:nonzero;stroke:none"
             d="m 0,0 c -5.27,19.42 -10.45,38.86 -15.63,58.3 -0.29,1.09 -0.74,1.45 -1.88,1.45 -10.45,-0.05 -20.89,-0.05 -31.33,0 -1.18,0 -1.73,-0.32 -2.07,-1.49 -1.18,-4.01 -2.52,-7.98 -3.72,-11.98 -0.31,-1.04 -0.74,-1.46 -1.91,-1.44 -4.56,0.05 -9.12,-0.04 -13.68,-0.05 -0.82,0 -1.38,-0.04 -1.5,-1.1 -0.29,-2.63 -0.7,-5.24 -1.09,-7.85 -1.94,-13.23 -3.9,-26.46 -5.85,-39.7 -1.41,-9.38 -2.72,-18.77 -4.28,-28.13 -0.35,-2.16 0.25,-2.52 2.13,-2.38 4.41,0.31 8.76,0.24 12.53,-2.62 0.35,-0.27 0.92,-0.33 1.39,-0.33 4.39,-0.03 8.78,0.01 13.16,-0.04 1.18,-0.01 1.59,0.42 1.73,1.58 0.5,4.1 1.14,8.18 1.69,12.27 0.85,6.35 1.67,12.69 2.51,19.04 1.32,9.25 2.63,18.5 3.96,27.74 0.09,0.64 0.03,1.6 0.76,1.68 0.8,0.1 0.89,-0.87 1.07,-1.49 2.65,-9.02 5.29,-18.03 7.93,-27.05 0.13,-0.6 0.22,-1.2 0.39,-1.79 3.49,-11.88 7.08,-23.73 10.42,-35.66 0.72,-2.55 1.64,-3.64 4.42,-3.4 1.74,0.15 2.15,0.59 2.1,2.21 -0.1,3.28 -0.01,6.56 -0.02,9.83 -0.02,9.89 -0.04,19.77 -0.07,29.66 -0.17,1.17 0.61,1.09 1.38,1.08 4.7,0 9.4,0.04 14.1,-0.02 C -0.02,-1.7 0.43,-1.58 0,0 m 113.58,82.24 c -4.6,0.45 -9.23,0.77 -13.82,1.3 -1.32,0.15 -1.8,-0.15 -2.21,-1.39 C 94.63,73.26 91.59,64.41 88.7,55.51 88.33,54.35 87.85,54.13 86.78,54.13 80.48,54.17 74.18,54.11 67.89,54.19 66.58,54.2 65.9,53.76 65.3,52.67 54.92,33.55 44.51,14.46 34.11,-4.64 c -0.4,-0.61 -0.84,-1.19 -1.19,-1.83 -6.26,-11.45 -12.5,-22.92 -18.74,-34.39 -0.42,-0.76 -0.83,-1.67 -1.85,-1.54 -0.92,0.11 -1.13,1.01 -1.37,1.79 -1.25,4.06 -2.46,8.16 -3.43,12.26 -1.8,7.56 -4.07,14.99 -5.81,22.55 -0.3,1.33 -0.91,1.77 -2.26,1.74 -3.9,-0.08 -7.79,-0.11 -11.68,0.01 -1.69,0.05 -2.2,-0.44 -2.18,-2.16 0.11,-11.81 0.14,-23.62 0.16,-35.43 0.01,-5.26 -0.03,-5.29 -5.29,-5.29 -1.38,0 -1.88,-0.21 -1.42,-1.76 2.87,-9.57 5.64,-19.16 8.46,-28.74 0.03,-0.09 0.1,-0.32 0.2,-0.62 0.31,-0.96 0.89,-2.69 1.2,-3.5 0.01,-0.01 0.01,-0.02 0.01,-0.03 0.06,-0.14 0.11,-0.26 0.15,-0.32 0.01,-0.02 0.02,-0.04 0.03,-0.05 0.01,-0.01 0.01,-0.02 0.02,-0.02 0.79,-2.06 2.01,-3.8 4.31,-4.65 2.51,-0.93 5.67,-0.8 8.32,-1.1 5.23,-0.59 12.91,-2.21 16.27,2.37 0.19,0.16 1.46,1.71 1.77,2.16 0.02,0.02 0.04,0.05 0.05,0.07 4.08,7.09 8.24,14.16 12.35,21.24 5.55,9.56 11.08,19.12 16.62,28.68 3.76,6.49 7.54,12.96 11.28,19.46 1.52,2.64 2.94,5.33 4.4,8 2.61,4.45 5.21,8.91 7.83,13.35 0.27,0.45 0.55,1.15 1.18,0.97 0.64,-0.17 0.51,-0.93 0.48,-1.43 -0.21,-2.96 -0.48,-5.91 -0.73,-8.87 -0.82,-9.59 -1.63,-19.18 -2.47,-28.77 -0.09,-1.03 0.34,-1.28 1.26,-1.28 3.83,0.03 7.67,0.02 11.5,0.01 0.73,0 1.34,0.02 1.34,1.03 -0.01,9.45 0,18.9 0,28.35 0.06,2.28 -0.3,4.67 0.25,6.82 1.98,7.79 4.31,15.5 6.42,23.26 0.31,1.13 0.78,1.42 1.89,1.41 5.75,-0.06 11.5,0.07 17.25,-0.08 1.89,-0.05 2.35,0.56 2.47,2.33 0.47,6.55 1.12,13.08 1.7,19.62 0.79,8.98 1.62,17.95 2.36,26.93 0.22,2.69 -1,4.07 -3.64,4.33 M -17.04,63.49 c -2.66,9.61 -5.23,19.25 -7.86,28.88 -0.73,2.69 -2.57,4.08 -5.34,4.32 -1.72,0.15 -3.43,0.36 -5.15,0.54 -7.93,0.8 -15.85,1.62 -23.78,2.4 -2.56,0.25 -4.28,-0.98 -4.66,-3.47 -2.41,-15.8 -4.72,-31.61 -7.1,-47.41 -0.2,-1.29 0.25,-1.54 1.42,-1.52 3.71,0.06 7.42,0.07 11.13,0 1.11,-0.02 1.61,0.27 1.94,1.38 1.15,3.86 2.5,7.66 3.62,11.52 0.42,1.45 0.96,2.06 2.61,2.01 5.19,-0.13 10.39,-0.05 15.59,-0.05 5.5,0 11,0.04 16.51,-0.02 1.23,-0.02 1.4,0.22 1.07,1.42 m 0,0 c -2.66,9.61 -5.23,19.25 -7.86,28.88 -0.73,2.69 -2.57,4.08 -5.34,4.32 -1.72,0.15 -3.43,0.36 -5.15,0.54 -7.93,0.8 -15.85,1.62 -23.78,2.4 -2.56,0.25 -4.28,-0.98 -4.66,-3.47 -2.41,-15.8 -4.72,-31.61 -7.1,-47.41 -0.2,-1.29 0.25,-1.54 1.42,-1.52 3.71,0.06 7.42,0.07 11.13,0 1.11,-0.02 1.61,0.27 1.94,1.38 1.15,3.86 2.5,7.66 3.62,11.52 0.42,1.45 0.96,2.06 2.61,2.01 5.19,-0.13 10.39,-0.05 15.59,-0.05 5.5,0 11,0.04 16.51,-0.02 1.23,-0.02 1.4,0.22 1.07,1.42 m -39.3,-121.25 c -9.31,1.07 -18.61,2.15 -27.89,3.37 -1.72,0.23 -2.06,-0.43 -2.25,-1.82 -1.05,-7.25 -2.13,-14.49 -3.21,-21.73 -0.33,-2.23 0.86,-3.95 3.11,-4.17 7.97,-0.78 15.94,-1.54 23.92,-2.19 2.18,-0.18 3.78,1.06 4.12,3.21 1.15,7.29 2.14,14.62 3.24,22.27 0.3,0.61 -0.01,0.94 -1.04,1.06 m 167.92,84.33 c -5.49,-0.04 -10.98,0.02 -16.47,0.09 -1.08,0.01 -1.45,-0.39 -1.7,-1.43 -0.69,-2.85 -1.65,-5.64 -2.32,-8.49 -1.58,-6.66 -4.6,-13.05 -3.72,-20.15 -0.07,-0.61 -0.21,-1.21 -0.21,-1.82 0,-9.02 -0.04,-18.04 0.06,-27.07 0.01,-1.69 -0.52,-2.08 -2.1,-2.03 -4.08,0.1 -8.17,-0.12 -12.23,0.11 -2.29,0.14 -2.66,-0.91 -2.77,-2.74 -0.23,-3.92 -0.56,-7.83 -0.88,-11.74 -0.66,-7.99 -1.31,-15.98 -2.06,-23.96 l -1.71,-18.43 c 0,0 -0.57,-3 2.74,-3.94 3.32,-0.94 29.69,-3.31 29.69,-3.31 0,0 3.57,-0.38 4.31,3.69 0.76,4.06 1.64,24.24 1.64,24.24 0.23,3.06 0.62,6.12 0.89,9.19 0.73,8.1 1.41,16.21 2.15,24.31 0.44,4.83 0.96,9.65 1.4,14.48 0.51,5.57 0.97,11.14 1.45,16.71 0.92,10.31 1.84,20.63 2.77,30.94 0.07,0.73 0.31,1.36 -0.93,1.35 m -165.8,-66.4 c -3.89,-0.06 -7.79,0.04 -11.68,-0.07 -1.68,-0.05 -3.23,0.2 -4.55,1.18 -2.22,1.63 -4.68,2 -7.34,1.86 -1.41,-0.08 -2.84,0.04 -4.24,0.19 -1.21,0.13 -1.67,-0.39 -1.82,-1.5 -0.37,-2.78 -0.79,-5.55 -1.17,-8.33 -0.22,-1.64 -1.12,-3.78 -0.41,-4.79 0.82,-1.19 3.16,-0.72 4.85,-0.91 0.18,-0.03 0.36,-0.11 0.54,-0.13 7.89,-0.93 15.77,-1.86 24.02,-2.83 0.96,-0.26 1.28,0.33 1.44,1.59 0.49,4.04 1.13,8.05 1.77,12.07 0.19,1.2 -0.14,1.68 -1.41,1.67 M 94.07,84.05 c -2.34,0.13 -4.67,0.38 -7.01,0.56 -2.42,0.18 -4.52,-0.7 -5.68,-2.76 -4.67,-8.3 -9.18,-16.69 -13.9,-25.32 6.18,0 12.05,0.01 17.91,-0.02 0.92,0 1.24,0.35 1.52,1.2 2.72,8.28 5.5,16.55 8.3,24.8 0.42,1.23 -0.03,1.48 -1.14,1.54" /></g><g
           transform="translate(635.2028,224.9812)"
           id="g52"><path
             id="path54"
             style="fill:#ffffff;fill-opacity:1;fill-rule:nonzero;stroke:none"
             d="m 0,0 c -3.38,-0.7 -6.75,-1.4 -10.14,-2.06 -3.89,-0.76 -3.89,-0.74 -3.89,-4.76 -0.01,-2.94 0.72,-6.05 -2.6,-8.03 -0.91,-0.55 -0.21,-1.99 -0.37,-3 -0.22,-1.36 0.71,-3.06 -0.57,-4.05 -2.36,-1.83 -2.63,-4.16 -2.5,-6.86 0.17,-3.4 -0.15,-6.82 0.11,-10.2 0.22,-2.93 -0.58,-4.98 -3.09,-6.64 -1.35,-0.89 -2.48,-1.58 -4.15,-1.48 -2.47,0.13 -4.95,-0.03 -7.42,0.05 -1.18,0.04 -1.6,-0.34 -1.74,-1.52 -0.04,-0.36 -0.08,-0.72 -0.13,-1.08 -0.67,-5.69 -1.38,-11.38 -2.15,-17.06 -1.33,-9.77 -2.72,-19.52 -4.08,-29.29 -0.11,-0.32 -0.27,-0.64 -0.33,-0.96 0,-0.02 -0.01,-0.03 -0.01,-0.05 -1.22,-8.93 -2.42,-17.86 -3.64,-26.78 -0.13,-0.92 0.16,-2.19 -1.26,-2.3 -1.12,-0.09 -1.3,1.06 -1.7,1.77 -4.04,7.19 -8.06,14.39 -12.01,21.63 -0.77,1.4 -1.26,1.54 -2.51,0.45 -4.41,-3.85 -8.92,-7.59 -13.43,-11.33 -0.71,-0.59 -1.23,-1.13 -0.95,-2.14 2.94,-10.41 3.08,-21.08 2.9,-31.78 -0.02,-0.96 0.18,-1.79 0.68,-2.62 3.05,-5.08 6.06,-10.18 9.06,-15.3 0.51,-0.86 1.07,-0.98 1.97,-0.64 6.65,2.48 13.3,4.94 19.96,7.38 0.81,0.29 1.21,0.7 1.2,1.6 -0.04,2.03 0,4.06 0.01,6.1 0.02,3.88 5.26,9.24 9.19,8.81 4.86,-0.52 8.76,0.82 12.03,4.34 0.54,0.58 1.23,1.04 1.89,1.48 0.9,0.59 1.27,1.43 1.45,2.45 1.19,7.1 2.39,14.2 3.64,21.29 0.2,1.14 0,1.56 -1.23,1.53 -2.59,-0.07 -5.2,0.08 -7.79,-0.06 -1.58,-0.08 -1.94,0.46 -1.96,1.97 -0.08,4.51 0.5,9.01 -0.01,13.51 0.02,2.9 0.09,5.81 0.03,8.71 -0.03,1.16 0.22,2.11 1.2,2.71 2.97,1.79 2.42,4.59 1.97,7.22 -0.28,1.59 0.04,2.17 1.65,2.15 3.64,-0.04 7.29,0.02 10.94,-0.03 1.06,-0.02 1.56,0.12 1.77,1.39 0.11,0.68 0.22,1.35 0.34,2.03 0.08,0.49 0.17,1.02 0.26,1.57 0.14,0.83 0.29,1.73 0.45,2.68 0.11,0.65 0.22,1.3 0.33,1.96 0.08,0.47 0.16,0.94 0.24,1.42 0.03,0.22 0.07,0.45 0.11,0.68 1.59,9.42 3.22,18.83 4.82,28.26 1.52,8.91 3,17.83 4.49,26.74 0.09,0.52 0.18,1.04 0.26,1.56 0.04,0.24 0.08,0.47 0.12,0.71 0.07,0.42 0.14,0.84 0.21,1.26 0.07,0.37 0.13,0.74 0.19,1.11 C 4.34,-0.29 3.26,0.68 0,0 m -64.54,-97.53 -1.97,3.05 c -2.29,4.11 -4.57,8.21 -6.86,12.31 -7.47,13.33 -15.08,26.6 -22.34,40.04 -1.81,3.36 -3.76,5.16 -7.61,4.36 -1.03,-0.21 -2.4,0.53 -3.01,-0.78 -1.13,-2.47 -3.11,-2.7 -5.45,-2.53 -1.91,0.14 -3.84,-0.05 -5.75,0.06 -1.19,0.08 -1.42,-0.36 -1.4,-1.44 0.06,-4.08 0.01,-8.16 0.06,-12.23 0.02,-1.17 -0.3,-1.62 -1.57,-1.58 -2.9,0.1 -5.81,-0.04 -8.71,0.07 -1.64,0.05 -1.5,-0.39 -0.81,-1.55 4.61,-7.65 9.19,-15.32 13.72,-23.02 0.65,-1.12 1.44,-1.67 2.71,-1.87 11.35,-1.85 20.97,-6.67 27.77,-16.29 2.14,-3.65 4.54,-7.17 5.65,-11.32 0.39,-1.45 0.85,-1.61 2.04,-0.59 4.12,3.52 8.26,7.01 12.51,10.36 1.33,1.05 1.7,1.94 1.02,2.95 m 43.05,-43.5 c -2.98,-3.39 -6.79,-4.16 -11.03,-3.63 -1.44,0.19 -2.5,-0.5 -3.74,-1.15 -3.67,-1.92 -4.69,-4.85 -4.12,-8.7 0.18,-1.27 -0.03,-2.6 0.06,-3.89 0.1,-1.33 -0.42,-1.93 -1.69,-2.39 -6.85,-2.46 -13.64,-5.06 -20.47,-7.55 -1.04,-0.38 -1.21,-0.68 -0.6,-1.65 1.79,-2.88 3.45,-5.85 5.23,-8.74 l 0.24,-0.49 0.38,-0.75 0.01,-0.01 4.85,-9.61 c 0,0 1.32,-3.13 4.13,-2.5 2.81,0.62 18.44,3.83 18.44,3.83 0,0 2.87,-0.09 3.43,4.85 0.5,4.32 0.72,6.62 0.77,7.12 0.01,0.07 0.01,0.11 0.01,0.11 0.68,3.75 1.31,7.51 1.96,11.28 1.45,8.37 2.89,16.74 4.43,25.66 -1.05,-0.82 -1.78,-1.21 -2.29,-1.79 m -78.71,106.74 c -2.05,3.58 -3.98,7.23 -6.11,10.76 -1.18,1.95 -3.13,2.87 -5.41,2.41 -10.5,-2.13 -20.99,-4.33 -31.48,-6.54 -2.78,-0.58 -3.38,-2.04 -1.9,-4.54 3.35,-5.68 6.91,-11.24 10.01,-17.05 1.89,-3.55 3.98,-5.86 7.53,-4.58 2.25,0 3.73,0.02 5.22,-0.01 0.62,-0.01 1.05,0.05 1.04,0.86 -0.06,3.59 0.11,7.18 -0.16,10.75 -0.22,2.83 0.17,3.59 2.96,3.6 2.59,0 5.19,0.01 7.79,-0.01 0.84,-0.01 1.59,0.06 2,0.95 0.91,1.93 2.43,2.53 4.5,2.23 1.09,-0.16 2.22,0.03 3.33,-0.04 1.19,-0.08 1.19,0.31 0.68,1.21 m 83.93,24.64 c -0.12,1.73 -0.08,3.47 -0.01,5.2 0.04,0.95 -0.25,1.13 -1.14,0.93 -2.83,-0.62 -5.69,-1.14 -8.52,-1.75 -3.42,-0.74 -4.77,-2.33 -5.23,-5.76 -1.28,-9.53 -2.57,-19.07 -3.95,-28.59 -0.76,-5.18 -0.85,-5.17 4.36,-5.15 1.18,0 2.35,-0.01 3.53,0 2.31,0.02 4.92,2.61 4.93,4.87 0,5.07 0.01,10.14 0.01,15.21 0,0.68 -0.11,1.37 0.56,1.84 2.3,1.62 2.77,3.93 2.39,6.52 -0.25,1.76 0.27,3.1 1.83,4.04 0.98,0.58 1.32,1.46 1.24,2.64 m 6.35,-67.76 c -2.72,-0.04 -5.44,-0.08 -8.15,0.03 -1.33,0.06 -1.6,-0.37 -1.63,-1.64 -0.05,-1.71 0.91,-3.89 -0.77,-5.03 -2.51,-1.7 -2.67,-3.94 -2.51,-6.53 0.11,-1.91 0.03,-3.83 0.03,-5.74 l 0,-1.85 c -0.03,-3.14 -0.05,-6.28 -0.12,-9.42 -0.02,-0.97 0.5,-1.1 1.27,-1.09 2.22,0.02 4.44,0.02 6.66,0.01 0.65,0 1.26,0.02 1.39,0.85 0.64,4.19 1.28,8.37 1.92,12.56 0.98,5.57 1.95,11.15 2.95,16.72 0.17,0.94 -0.15,1.15 -1.04,1.13" /></g></g></g></g></svg>