<?xml version="1.0" encoding="UTF-8" standalone="no"?>
<!-- Generator: Adobe Illustrator 13.0.0, SVG Export Plug-In . SVG Version: 6.00 Build 14948)  -->

<svg
   xmlns:ns="&amp;ns_sfw;"
   xmlns:dc="http://purl.org/dc/elements/1.1/"
   xmlns:cc="http://creativecommons.org/ns#"
   xmlns:rdf="http://www.w3.org/1999/02/22-rdf-syntax-ns#"
   xmlns:svg="http://www.w3.org/2000/svg"
   xmlns="http://www.w3.org/2000/svg"
   xmlns:sodipodi="http://sodipodi.sourceforge.net/DTD/sodipodi-0.dtd"
   xmlns:inkscape="http://www.inkscape.org/namespaces/inkscape"
   version="1.2"
   id="Layer_3"
   x="0px"
   y="0px"
   width="141.73599"
   height="320.38599"
   viewBox="0 0 141.73599 320.38598"
   xml:space="preserve"
   inkscape:version="0.91 r13725"
   sodipodi:docname="controller.svg"><defs
     id="defs64" /><sodipodi:namedview
     pagecolor="#ffffff"
     bordercolor="#666666"
     borderopacity="1"
     objecttolerance="10"
     gridtolerance="10"
     guidetolerance="10"
     inkscape:pageopacity="0"
     inkscape:pageshadow="2"
     inkscape:window-width="690"
     inkscape:window-height="480"
     id="namedview62"
     showgrid="false"
     fit-margin-top="0"
     fit-margin-left="0"
     fit-margin-right="0"
     fit-margin-bottom="0"
     inkscape:zoom="0.48145317"
     inkscape:cx="69.609513"
     inkscape:cy="161.476"
     inkscape:window-x="0"
     inkscape:window-y="0"
     inkscape:window-maximized="0"
     inkscape:current-layer="Layer_3" /><metadata
     id="metadata55"><rdf:RDF><cc:Work
         rdf:about=""><dc:format>image/svg+xml</dc:format><dc:type
           rdf:resource="http://purl.org/dc/dcmitype/StillImage" /><dc:title></dc:title></cc:Work></rdf:RDF><ns:sfw><ns:slices /><ns:sliceSourceBounds
         x="890.89"
         y="-7652"
         width="141.737"
         height="16383"
         bottomLeftOrigin="true" /></ns:sfw></metadata><path
     id="path3"
     d="M 4.514,2.897 C 2.034,2.897 0,4.908 0,7.389 l 0,308.506 c 0,2.479 2.034,4.491 4.514,4.491 l 132.707,0 c 2.227,0 3.999,-1.646 4.358,-3.772 l 0.157,0 0,-0.719 0,-308.507 c 0,-2.48 -2.036,-4.492 -4.516,-4.492 l -132.706,0 0,10e-4 z m 0,1.437 132.707,0 c 1.701,0 3.078,1.351 3.078,3.054 l 0,307.788 0,0.719 c 0,1.701 -1.374,3.054 -3.078,3.054 l -132.707,0 c -1.702,0 -3.076,-1.351 -3.076,-3.054 l 0,-308.507 c 0,-1.703 1.374,-3.054 3.076,-3.054 l 0,0 z"
     inkscape:connector-curvature="0"
     style="fill:#f4f4f4" /><path
     id="path5"
     d="m 22.032,39.953 c -8.753,0 -15.855,7.124 -15.855,15.878 l 0,123.545 c 0,8.751 7.102,15.877 15.855,15.877 l 97.673,0 c 8.751,0 15.855,-7.125 15.855,-15.877 l 0,-0.719 0,-122.826 c 0,-8.753 -7.104,-15.878 -15.855,-15.878 l -97.673,0 z m 0,1.437 97.673,0 c 7.976,0 14.418,6.464 14.418,14.44 l 0,123.545 c 0,7.976 -6.443,14.439 -14.418,14.439 l -97.673,0 c -7.978,0 -14.418,-6.464 -14.418,-14.439 l 0,-123.544 c 0,-7.977 6.442,-14.441 14.418,-14.441 z"
     inkscape:connector-curvature="0"
     style="fill:#f4f4f4" /><path
     id="path7"
     d="m 28.612,49.115 c -5.231,0 -9.479,4.269 -9.479,9.5 l 0,114.382 c 0,5.231 4.247,9.499 9.479,9.499 l 84.507,0 c 5.229,0 9.478,-4.268 9.478,-9.499 l 0,-114.382 c 0,-5.231 -4.247,-9.5 -9.478,-9.5 l -84.507,0 z m 0,1.438 84.507,0 c 4.454,0 8.04,3.608 8.04,8.063 l 0,114.382 c 0,4.455 -3.586,8.062 -8.04,8.062 l -84.507,0 c -4.454,0 -8.041,-3.606 -8.041,-8.062 l 0,-114.383 c 0,-4.454 3.586,-8.062 8.041,-8.062 z"
     inkscape:connector-curvature="0"
     style="fill:#f4f4f4" /><path
     id="circle9"
     d="m 70.878,200.189 c -28.234,0 -51.138,22.903 -51.138,51.137 0,28.234 22.903,51.138 51.138,51.138 28.235,0 51.137,-22.904 51.137,-51.138 0,-28.234 -22.902,-51.137 -51.137,-51.137 z m 0,1.438 c 27.456,0 49.7,22.242 49.7,49.699 0,27.458 -22.244,49.7 -49.7,49.7 -27.458,0 -49.7,-22.242 -49.7,-49.7 0,-27.457 22.243,-49.699 49.7,-49.699 z"
     inkscape:connector-curvature="0"
     style="fill:#f4f4f4" /><path
     id="circle11"
     d="m 70.878,214.519 c -20.64,0 -37.393,16.754 -37.393,37.393 0,20.64 16.753,37.393 37.393,37.393 20.64,0 37.37,-16.753 37.37,-37.393 0,-20.64 -16.73,-37.393 -37.37,-37.393 z m 0,1.438 c 19.862,0 35.933,16.092 35.933,35.955 0,19.862 -16.07,35.956 -35.933,35.956 -19.864,0 -35.956,-16.094 -35.956,-35.956 0.003,-19.864 16.095,-35.955 35.958,-35.955 l -0.002,0 z"
     inkscape:connector-curvature="0"
     style="fill:#f4f4f4" /><path
     id="path13"
     d="m 13.924,0 c -0.83,0 -1.527,0.676 -1.527,1.505 l 0,1.976 1.437,0 0,-1.976 c 0,-0.05 0.04,-0.067 0.09,-0.067 l 113.886,0 c 0.05,0 0.09,0.017 0.09,0.067 l 0,2.088 1.437,0 0,-2.088 C 129.346,0.676 128.648,0 127.815,0 L 13.934,0 13.924,0 Z"
     inkscape:connector-curvature="0"
     style="fill:#f4f4f4" /><g
     id="g15"
     transform="translate(-229.485,-16.22)"><g
       id="g17"><path
         d="m 258.635,99.395 c -2.16,0 -3.908,-1.75 -3.908,-3.908 l 0,0 0,-19.129 c 0,-2.158 1.748,-3.906 3.908,-3.906 l 0,0 20.327,0 c 2.158,0 3.909,1.748 3.909,3.906 l 0,0 0,19.13 -0.002,0 c -0.001,2.157 -1.749,3.904 -3.906,3.906 l 0,0 -20.328,0 0,10e-4 z m -2.47,-23.037 0,19.128 c 0.002,1.364 1.106,2.468 2.47,2.47 l 0,0 20.327,0 c 1.362,-0.002 2.468,-1.106 2.47,-2.47 l 0,0 0,-19.128 c -0.002,-1.362 -1.108,-2.468 -2.47,-2.47 l 0,0 -20.327,0 c -1.364,0.002 -2.468,1.106 -2.47,2.47 l 0,0 z m 25.318,19.395 0.662,-0.265 -0.662,0.265 0,0 z"
         id="path12"
         inkscape:connector-curvature="0"
         style="fill:#f4f4f4" /><path
         id="circle21"
         d="m 268.809,75.374 c -5.818,0 -10.555,4.737 -10.555,10.556 0,5.819 4.737,10.556 10.555,10.556 5.818,0 10.533,-4.737 10.533,-10.556 0,-5.818 -4.715,-10.556 -10.533,-10.556 z m 0,1.438 c 5.042,0 9.095,4.077 9.095,9.118 0,5.041 -4.054,9.118 -9.095,9.118 -5.041,0 -9.118,-4.077 -9.118,-9.118 0,-5.041 4.077,-9.118 9.118,-9.118 z"
         inkscape:connector-curvature="0"
         style="fill:#f4f4f4" /></g><g
       id="g23"><path
         d="m 290.19,99.395 c -2.158,0 -3.907,-1.749 -3.907,-3.907 l 0,0 0,-19.129 c 0,-2.158 1.749,-3.907 3.907,-3.907 l 0,0 20.329,0 c 2.156,0 3.906,1.749 3.906,3.907 l 0,0 0,20.665 -0.238,-0.199 c -0.547,1.5 -1.985,2.57 -3.671,2.57 l 0,0 -20.326,0 0,0 z m -2.469,-23.036 0,19.128 c 0.002,1.364 1.106,2.467 2.469,2.47 l 0,0 20.326,0 c 1.362,-0.002 2.466,-1.106 2.47,-2.47 l 0,0 0,-1.532 0.002,0.001 0,-17.597 c -0.002,-1.365 -1.105,-2.469 -2.469,-2.472 l 0,0 -20.329,0 c -1.363,0.003 -2.467,1.107 -2.469,2.472 l 0,0 z m 25.523,19.681 0.46,-0.55 -0.46,0.55 0,0 z"
         id="path16"
         inkscape:connector-curvature="0"
         style="fill:#f4f4f4" /><path
         id="circle27"
         d="m 300.363,75.374 c -5.819,0 -10.556,4.737 -10.556,10.556 0,5.819 4.737,10.556 10.556,10.556 5.817,0 10.532,-4.737 10.532,-10.556 0.001,-5.818 -4.714,-10.556 -10.532,-10.556 z m 0,1.438 c 5.041,0 9.096,4.077 9.096,9.118 0,5.041 -4.056,9.118 -9.096,9.118 -5.042,0 -9.118,-4.077 -9.118,-9.118 0,-5.041 4.076,-9.118 9.118,-9.118 z"
         inkscape:connector-curvature="0"
         style="fill:#f4f4f4" /></g><g
       id="g29"><path
         d="m 321.744,99.395 c -2.156,0 -3.905,-1.749 -3.905,-3.908 l 0,0 0,-19.127 c 0,-2.159 1.747,-3.908 3.905,-3.908 l 0,0 20.328,0 c 2.156,0 3.908,1.749 3.908,3.908 l 0,0 0,19.127 0,0.002 0,0 c -0.002,2.158 -1.752,3.906 -3.908,3.906 l 0,0 -20.328,0 0,0 z m -2.471,-23.035 0,19.127 c 0.004,1.365 1.108,2.469 2.471,2.471 l 0,0 20.328,0 c 1.362,-0.002 2.467,-1.106 2.471,-2.471 l 0,0 0,-19.127 c -0.004,-1.365 -1.108,-2.469 -2.471,-2.471 l 0,0 -20.328,0 c -1.364,0.002 -2.467,1.106 -2.471,2.471 l 0,0 z"
         id="path20"
         inkscape:connector-curvature="0"
         style="fill:#f4f4f4" /><path
         id="circle33"
         d="m 331.915,75.374 c -5.817,0 -10.555,4.737 -10.555,10.556 0,5.819 4.737,10.556 10.555,10.556 5.818,0 10.533,-4.737 10.533,-10.556 0,-5.818 -4.715,-10.556 -10.533,-10.556 z m 0,1.438 c 5.042,0 9.097,4.077 9.097,9.118 0,5.041 -4.055,9.118 -9.097,9.118 -5.041,0 -9.117,-4.077 -9.117,-9.118 0,-5.041 4.076,-9.118 9.117,-9.118 z"
         inkscape:connector-curvature="0"
         style="fill:#f4f4f4" /></g></g><g
     id="g35"
     transform="translate(-229.485,-16.22)"><g
       id="g37"><path
         d="m 258.635,130.44 c -2.16,0 -3.908,-1.748 -3.908,-3.907 l 0,0 0,-19.13 c 0,-2.159 1.75,-3.909 3.908,-3.909 l 0,0 20.327,0 c 2.158,0.002 3.909,1.748 3.909,3.909 l 0,0 0,20.868 -0.282,-0.282 c -0.577,1.437 -1.982,2.451 -3.626,2.451 l 0,0 -20.328,0 0,0 z m -2.47,-23.037 0,19.13 c 0.002,1.365 1.106,2.468 2.47,2.471 l 0,0 20.327,0 c 1.362,-0.002 2.468,-1.106 2.47,-2.471 l 0,0 0,-19.13 c -0.002,-1.365 -1.108,-2.468 -2.47,-2.47 l 0,0 -20.327,0 c -1.366,0.002 -2.468,1.106 -2.47,2.47 l 0,0 z m 25.477,19.639 0.509,-0.509 -0.509,0.509 0,0 z"
         id="path25"
         inkscape:connector-curvature="0"
         style="fill:#f4f4f4" /><path
         id="circle41"
         d="m 268.809,106.411 c -5.818,0 -10.555,4.737 -10.555,10.556 0,5.819 4.737,10.556 10.555,10.556 5.818,0 10.533,-4.737 10.533,-10.556 0,-5.818 -4.715,-10.556 -10.533,-10.556 z m 0,1.438 c 5.042,0 9.095,4.077 9.095,9.118 0,5.041 -4.054,9.119 -9.095,9.119 -5.041,0 -9.118,-4.077 -9.118,-9.119 0,-5.041 4.077,-9.118 9.118,-9.118 z"
         inkscape:connector-curvature="0"
         style="fill:#f4f4f4" /></g><g
       id="g43"><path
         d="m 290.19,130.441 c -2.158,0 -3.907,-1.75 -3.907,-3.907 l 0,0 0,-19.132 c 0,-2.159 1.749,-3.907 3.907,-3.907 l 0,0 20.329,0 c 2.156,0 3.906,1.749 3.906,3.907 l 0,0 0,20.129 -0.122,-0.041 c -0.426,1.695 -1.962,2.949 -3.787,2.951 l 0,0 -20.326,0 0,0 z m -2.469,-23.039 0,19.132 c 0.002,1.363 1.106,2.467 2.469,2.469 l 0,0 20.326,0 c 1.362,-0.002 2.466,-1.106 2.47,-2.469 l 0,0 0,-0.997 0.002,0 0,-18.136 c -0.002,-1.363 -1.105,-2.467 -2.469,-2.469 l 0,0 -20.329,0 c -1.363,0.003 -2.467,1.107 -2.469,2.47 l 0,0 z m 25.756,19.812 0.229,-0.679 -0.229,0.679 0,0 z"
         id="path29"
         inkscape:connector-curvature="0"
         style="fill:#f4f4f4" /><path
         id="circle47"
         d="m 300.363,106.411 c -5.819,0 -10.556,4.737 -10.556,10.556 0,5.819 4.737,10.556 10.556,10.556 5.817,0 10.532,-4.737 10.532,-10.556 0.001,-5.818 -4.714,-10.556 -10.532,-10.556 z m 0,1.438 c 5.041,0 9.096,4.077 9.096,9.118 0,5.041 -4.056,9.119 -9.096,9.119 -5.042,0 -9.118,-4.077 -9.118,-9.119 0,-5.041 4.076,-9.118 9.118,-9.118 z"
         inkscape:connector-curvature="0"
         style="fill:#f4f4f4" /></g><g
       id="g49"><path
         d="m 321.744,130.441 c -2.156,0 -3.905,-1.749 -3.905,-3.908 l 0,0 0,-19.131 c 0,-2.159 1.747,-3.908 3.905,-3.908 l 0,0 20.328,0 c 2.156,0.002 3.908,1.749 3.908,3.908 l 0,0 0,19.131 0,0.002 0,0 c -0.002,2.158 -1.752,3.906 -3.908,3.906 l 0,0 -20.328,0 0,0 z m -2.471,-23.039 0,19.131 c 0.004,1.365 1.108,2.469 2.471,2.471 l 0,0 20.328,0 c 1.362,-0.002 2.467,-1.106 2.471,-2.471 l 0,0 0,-19.131 c -0.004,-1.363 -1.108,-2.467 -2.471,-2.471 l 0,0 -20.328,0 c -1.364,0.005 -2.467,1.107 -2.471,2.471 l 0,0 z"
         id="path33"
         inkscape:connector-curvature="0"
         style="fill:#f4f4f4" /><path
         id="circle53"
         d="m 331.915,106.411 c -5.817,0 -10.555,4.737 -10.555,10.556 0,5.819 4.737,10.556 10.555,10.556 5.818,0 10.533,-4.737 10.533,-10.556 0,-5.818 -4.715,-10.556 -10.533,-10.556 z m 0,1.438 c 5.042,0 9.097,4.077 9.097,9.118 0,5.041 -4.055,9.119 -9.097,9.119 -5.041,0 -9.117,-4.077 -9.117,-9.119 0,-5.041 4.076,-9.118 9.117,-9.118 z"
         inkscape:connector-curvature="0"
         style="fill:#f4f4f4" /></g></g><g
     id="g55"
     transform="translate(-229.485,-16.22)"><g
       id="g57"><path
         d="m 257.778,161.486 c -2.159,0 -3.908,-1.749 -3.908,-3.906 l 0,0 0,-19.132 c 0,-2.157 1.749,-3.906 3.908,-3.906 l 0,0 20.327,0 c 2.159,0 3.908,1.747 3.908,3.906 l 0,0 0,19.132 0,0.086 -10e-4,0.005 c -0.05,2.115 -1.78,3.815 -3.907,3.815 l 0,0 -20.327,0 0,0 z m -2.471,-23.038 0,19.132 c 0.002,1.363 1.106,2.467 2.471,2.469 l 0,0 20.327,0 c 1.363,-0.002 2.467,-1.106 2.469,-2.469 l 0,0 0,-0.09 0.002,-0.008 0,-19.034 c -0.004,-1.365 -1.106,-2.467 -2.471,-2.469 l 0,0 -20.327,0 c -1.364,0.002 -2.468,1.106 -2.471,2.469 l 0,0 z"
         id="path38"
         inkscape:connector-curvature="0"
         style="fill:#f4f4f4" /><path
         id="circle61"
         d="m 267.933,137.472 c -5.818,0 -10.533,4.716 -10.533,10.533 0,5.818 4.715,10.556 10.533,10.556 5.818,0 10.556,-4.737 10.556,-10.556 0,-5.818 -4.737,-10.533 -10.556,-10.533 z m 0,1.437 c 5.042,0 9.119,4.054 9.119,9.095 0,5.042 -4.077,9.119 -9.119,9.119 -5.041,0 -9.095,-4.077 -9.095,-9.119 0,-5.041 4.054,-9.095 9.095,-9.095 z"
         inkscape:connector-curvature="0"
         style="fill:#f4f4f4" /></g><g
       id="g63"><path
         d="m 289.333,161.486 c -2.158,0 -3.907,-1.749 -3.907,-3.907 l 0,0 0,-19.132 c 0,-2.158 1.749,-3.905 3.907,-3.907 l 0,0 20.328,0 c 2.156,0.002 3.904,1.749 3.904,3.907 l 0,0 0,19.13 0,0.002 c 0,2.158 -1.746,3.907 -3.904,3.907 l 0,0 -20.328,0 0,0 z m -2.472,-23.039 0,19.132 c 0.004,1.363 1.108,2.467 2.472,2.472 l 0,0 20.328,0 c 1.363,-0.004 2.468,-1.108 2.47,-2.472 l 0,0 0,-0.002 0,-19.13 c -0.002,-1.363 -1.106,-2.467 -2.47,-2.469 l 0,0 -20.328,0 c -1.363,0.002 -2.467,1.106 -2.472,2.469 l 0,0 z"
         id="path42"
         inkscape:connector-curvature="0"
         style="fill:#f4f4f4" /><path
         id="circle67"
         d="m 299.487,137.472 c -5.818,0 -10.533,4.715 -10.533,10.533 0,5.819 4.715,10.556 10.533,10.556 5.819,0 10.556,-4.737 10.556,-10.556 0,-5.819 -4.737,-10.533 -10.556,-10.533 z m 0,1.437 c 5.042,0 9.119,4.054 9.119,9.095 0,5.042 -4.076,9.119 -9.119,9.119 -5.042,0 -9.096,-4.076 -9.096,-9.119 0,-5.041 4.054,-9.095 9.096,-9.095 z"
         inkscape:connector-curvature="0"
         style="fill:#f4f4f4" /></g><g
       id="g69"><path
         d="m 320.881,161.486 c -2.158,0 -3.905,-1.749 -3.905,-3.905 l 0,0 0,-19.133 c 0,-2.158 1.747,-3.905 3.905,-3.905 l 0,0 20.328,0 c 2.158,0 3.907,1.747 3.907,3.905 l 0,0 0,19.131 0,0.002 c 0,2.156 -1.749,3.905 -3.907,3.905 l 0,0 -20.328,0 0,0 z m -2.469,-23.039 0,19.133 c 0.002,1.362 1.104,2.466 2.469,2.469 l 0,0 20.328,0 c 1.364,-0.002 2.469,-1.106 2.471,-2.469 l 0,0 0,-0.002 0,-19.131 c -0.002,-1.364 -1.106,-2.466 -2.471,-2.468 l 0,0 -20.328,0 c -1.364,0.002 -2.467,1.106 -2.469,2.468 l 0,0 z"
         id="path46"
         inkscape:connector-curvature="0"
         style="fill:#f4f4f4" /><path
         id="circle73"
         d="m 331.039,137.472 c -5.818,0 -10.532,4.716 -10.532,10.533 0,5.818 4.715,10.556 10.532,10.556 5.817,0 10.557,-4.737 10.557,-10.556 0,-5.818 -4.739,-10.533 -10.557,-10.533 z m 0,1.437 c 5.041,0 9.119,4.054 9.119,9.095 0,5.042 -4.077,9.119 -9.119,9.119 -5.041,0 -9.095,-4.077 -9.095,-9.119 0,-5.041 4.054,-9.095 9.095,-9.095 z"
         inkscape:connector-curvature="0"
         style="fill:#f4f4f4" /></g></g><g
     id="g75"
     transform="translate(-229.485,-16.22)"><g
       id="g77"><path
         d="m 257.779,192.532 c -2.159,0 -3.908,-1.749 -3.908,-3.906 l 0,0 0,-19.132 c 0,-2.157 1.749,-3.908 3.908,-3.908 l 0,0 20.326,0 c 2.159,0 3.908,1.749 3.908,3.908 l 0,0 0,19.132 0,0.04 0,0.002 c -0.024,2.136 -1.763,3.864 -3.908,3.864 l 0,0 -20.326,0 0,0 z m -2.47,-23.038 0,19.132 c 0.002,1.364 1.104,2.467 2.47,2.469 l 0,0 20.326,0 c 1.364,-0.002 2.468,-1.106 2.47,-2.469 l 0,0 0,-0.004 0,-19.128 c -0.002,-1.364 -1.104,-2.468 -2.47,-2.472 l 0,0 -20.326,0 c -1.364,0.004 -2.468,1.108 -2.47,2.472 l 0,0 z"
         id="path51"
         inkscape:connector-curvature="0"
         style="fill:#f4f4f4" /><path
         id="circle81"
         d="m 267.933,168.511 c -5.818,0 -10.533,4.737 -10.533,10.555 0,5.817 4.715,10.532 10.533,10.532 5.818,0 10.556,-4.715 10.556,-10.532 0,-5.818 -4.737,-10.555 -10.556,-10.555 z m 0,1.437 c 5.042,0 9.119,4.076 9.119,9.118 0,5.041 -4.077,9.095 -9.119,9.095 -5.041,0 -9.095,-4.054 -9.095,-9.095 0,-5.041 4.054,-9.118 9.095,-9.118 z"
         inkscape:connector-curvature="0"
         style="fill:#f4f4f4" /></g><g
       id="g83"><path
         d="m 289.333,192.532 c -2.157,0 -3.906,-1.749 -3.906,-3.906 l 0,0 0,-19.132 c 0,-2.157 1.747,-3.908 3.906,-3.908 l 0,0 20.328,0 c 2.158,0 3.907,1.749 3.907,3.908 l 0,0 0,19.128 0,0.004 c 0,2.155 -1.747,3.906 -3.907,3.906 l 0,0 -20.328,0 0,0 z m -2.471,-23.038 0,19.132 c 0.002,1.364 1.106,2.467 2.47,2.469 l 0,0 20.328,0 c 1.363,-0.002 2.468,-1.106 2.47,-2.469 l 0,0 0,-0.004 0,-19.128 c -0.002,-1.364 -1.106,-2.468 -2.47,-2.472 l 0,0 -20.328,0 c -1.364,0.004 -2.468,1.108 -2.47,2.472 l 0,0 z"
         id="path55"
         inkscape:connector-curvature="0"
         style="fill:#f4f4f4" /><path
         id="circle87"
         d="m 299.487,168.511 c -5.818,0 -10.533,4.736 -10.533,10.555 0,5.818 4.715,10.532 10.533,10.532 5.819,0 10.556,-4.715 10.556,-10.532 0,-5.818 -4.737,-10.555 -10.556,-10.555 z m 0,1.437 c 5.042,0 9.119,4.076 9.119,9.118 0,5.041 -4.076,9.095 -9.119,9.095 -5.042,0 -9.096,-4.054 -9.096,-9.095 0,-5.042 4.054,-9.118 9.096,-9.118 z"
         inkscape:connector-curvature="0"
         style="fill:#f4f4f4" /></g><g
       id="g89"><path
         d="m 320.881,192.531 c -2.158,0 -3.905,-1.747 -3.905,-3.905 l 0,0 0,-19.133 c 0,-2.156 1.747,-3.907 3.905,-3.907 l 0,0 20.328,0 c 2.158,0 3.907,1.751 3.907,3.907 l 0,0 0,19.129 0,0.004 c 0,2.156 -1.749,3.905 -3.907,3.905 l 0,0 -20.328,0 0,0 z m -2.469,-23.038 0,19.133 c 0.002,1.364 1.104,2.466 2.469,2.471 l 0,0 20.328,0 c 1.364,-0.005 2.469,-1.108 2.471,-2.471 l 0,0 0,-0.004 0,-19.129 c -0.002,-1.362 -1.106,-2.468 -2.471,-2.47 l 0,0 -20.328,0 c -1.362,0.001 -2.467,1.107 -2.469,2.47 l 0,0 z"
         id="path59"
         inkscape:connector-curvature="0"
         style="fill:#f4f4f4" /><path
         id="circle93"
         d="m 331.039,168.511 c -5.818,0 -10.532,4.737 -10.532,10.555 0,5.817 4.715,10.532 10.532,10.532 5.817,0 10.557,-4.715 10.557,-10.532 0,-5.818 -4.739,-10.555 -10.557,-10.555 z m 0,1.437 c 5.041,0 9.119,4.076 9.119,9.118 0,5.041 -4.077,9.095 -9.119,9.095 -5.041,0 -9.095,-4.054 -9.095,-9.095 0,-5.041 4.054,-9.118 9.095,-9.118 z"
         inkscape:connector-curvature="0"
         style="fill:#f4f4f4" /></g></g></svg>