<?xml version="1.0" encoding="UTF-8" standalone="no"?>
<svg
   xmlns:dc="http://purl.org/dc/elements/1.1/"
   xmlns:cc="http://creativecommons.org/ns#"
   xmlns:rdf="http://www.w3.org/1999/02/22-rdf-syntax-ns#"
   xmlns:svg="http://www.w3.org/2000/svg"
   xmlns="http://www.w3.org/2000/svg"
   viewBox="0 0 210.4025 507.84625"
   height="507.84625"
   width="210.4025"
   xml:space="preserve"
   version="1.1"
   id="svg2"><metadata
     id="metadata8"><rdf:RDF><cc:Work
         rdf:about=""><dc:format>image/svg+xml</dc:format><dc:type
           rdf:resource="http://purl.org/dc/dcmitype/StillImage" /><dc:title></dc:title></cc:Work></rdf:RDF></metadata><defs
     id="defs6"><clipPath
       id="clipPath16"
       clipPathUnits="userSpaceOnUse"><path
         id="path18"
         d="m 0,406.277 168.322,0 L 168.322,0 0,0 0,406.277 Z" /></clipPath><clipPath
       id="clipPath28"
       clipPathUnits="userSpaceOnUse"><path
         id="path30"
         d="m 7.99342,160.329 154.21258,0 0,-154.21316 -154.21258,0 0,154.21316 z" /></clipPath><linearGradient
       id="linearGradient84"
       spreadMethod="pad"
       gradientTransform="matrix(39.822853,39.822853,39.822853,-39.822853,65.123558,63.310898)"
       gradientUnits="userSpaceOnUse"
       y2="0"
       x2="1"
       y1="0"
       x1="0"><stop
         id="stop86"
         offset="0"
         style="stop-opacity:1;stop-color:#a6a8ab" /><stop
         id="stop88"
         offset="1"
         style="stop-opacity:1;stop-color:#e6e7e8" /></linearGradient><clipPath
       id="clipPath96"
       clipPathUnits="userSpaceOnUse"><path
         id="path98"
         d="m 0,406.277 168.322,0 L 168.322,0 0,0 0,406.277 Z" /></clipPath><clipPath
       id="clipPath104"
       clipPathUnits="userSpaceOnUse"><path
         id="path106"
         d="m 62.5988,105.659 44.8722,0 0,-44.873 -44.8722,0 0,44.873 z" /></clipPath><clipPath
       id="clipPath120"
       clipPathUnits="userSpaceOnUse"><path
         id="path122"
         d="m 56.9234,111.205 56.0936,0 0,-56.0943 -56.0936,0 0,56.0943 z" /></clipPath><clipPath
       id="clipPath124"
       clipPathUnits="userSpaceOnUse"><path
         id="path126"
         d="m 58.434,83.504 c 0,14.847 12.035,26.882 26.882,26.882 14.847,0 26.883,-12.035 26.883,-26.882 0,-14.847 -12.036,-26.883 -26.883,-26.883 -14.847,0 -26.882,12.036 -26.882,26.883 m 54.583,-0.346 c 0,15.49 -12.557,28.047 -28.047,28.047 -15.49,0 -28.047,-12.557 -28.047,-28.047 0,-15.49 12.557,-28.047 28.047,-28.047 15.49,0 28.047,12.557 28.047,28.047" /></clipPath><linearGradient
       id="linearGradient132"
       spreadMethod="pad"
       gradientTransform="matrix(39.664417,-39.664417,-39.664417,-39.664417,65.138191,102.98982)"
       gradientUnits="userSpaceOnUse"
       y2="0"
       x2="1"
       y1="0"
       x1="0"><stop
         id="stop134"
         offset="0"
         style="stop-opacity:0;stop-color:#ffffff" /><stop
         id="stop136"
         offset="0.20751882"
         style="stop-opacity:1;stop-color:#ffffff" /><stop
         id="stop138"
         offset="0.5"
         style="stop-opacity:1;stop-color:#ffffff" /><stop
         id="stop140"
         offset="0.79248118"
         style="stop-opacity:1;stop-color:#ffffff" /><stop
         id="stop142"
         offset="1"
         style="stop-opacity:0;stop-color:#ffffff" /></linearGradient><mask
       id="mask144"
       height="1"
       width="1"
       y="0"
       x="0"
       maskUnits="userSpaceOnUse"><g
         id="g146"><g
           id="g148"><g
             id="g150"><g
               id="g152"><path
                 id="path154"
                 style="fill:url(#linearGradient132);stroke:none"
                 d="m -32768,32767 65535,0 0,-65535 -65535,0 0,65535 z" /></g></g></g></g></mask><linearGradient
       id="linearGradient156"
       spreadMethod="pad"
       gradientTransform="matrix(39.664417,-39.664417,-39.664417,-39.664417,65.138191,102.98982)"
       gradientUnits="userSpaceOnUse"
       y2="0"
       x2="1"
       y1="0"
       x1="0"><stop
         id="stop158"
         offset="0"
         style="stop-opacity:1;stop-color:#231f20" /><stop
         id="stop160"
         offset="0.20751882"
         style="stop-opacity:1;stop-color:#231f20" /><stop
         id="stop162"
         offset="0.5"
         style="stop-opacity:1;stop-color:#231f20" /><stop
         id="stop164"
         offset="0.79248118"
         style="stop-opacity:1;stop-color:#231f20" /><stop
         id="stop166"
         offset="1"
         style="stop-opacity:1;stop-color:#231f20" /></linearGradient><clipPath
       id="clipPath190"
       clipPathUnits="userSpaceOnUse"><path
         id="path192"
         d="m 56.9238,111.205 56.0942,0 0,-56.094 -56.0942,0 0,56.094 z" /></clipPath><clipPath
       id="clipPath194"
       clipPathUnits="userSpaceOnUse"><path
         id="path196"
         d="m 111.507,82.812 c 0,-14.847 -12.036,-26.883 -26.882,-26.883 -14.847,0 -26.883,12.036 -26.883,26.883 0,14.847 12.036,26.883 26.883,26.883 14.846,0 26.882,-12.036 26.882,-26.883 m -54.583,0.346 c 0,-15.49 12.556,-28.047 28.047,-28.047 15.49,0 28.047,12.557 28.047,28.047 0,15.49 -12.557,28.047 -28.047,28.047 -15.491,0 -28.047,-12.557 -28.047,-28.047" /></clipPath><linearGradient
       id="linearGradient202"
       spreadMethod="pad"
       gradientTransform="matrix(-39.664425,39.664425,39.664425,39.664425,104.80286,63.325817)"
       gradientUnits="userSpaceOnUse"
       y2="0"
       x2="1"
       y1="0"
       x1="0"><stop
         id="stop204"
         offset="0"
         style="stop-opacity:0;stop-color:#ffffff" /><stop
         id="stop206"
         offset="0.5"
         style="stop-opacity:1;stop-color:#ffffff" /><stop
         id="stop208"
         offset="1"
         style="stop-opacity:0;stop-color:#ffffff" /></linearGradient><mask
       id="mask210"
       height="1"
       width="1"
       y="0"
       x="0"
       maskUnits="userSpaceOnUse"><g
         id="g212"><g
           id="g214"><g
             id="g216"><g
               id="g218"><path
                 id="path220"
                 style="fill:url(#linearGradient202);stroke:none"
                 d="m -32768,32767 65535,0 0,-65535 -65535,0 0,65535 z" /></g></g></g></g></mask><linearGradient
       id="linearGradient222"
       spreadMethod="pad"
       gradientTransform="matrix(-39.664425,39.664425,39.664425,39.664425,104.80286,63.325817)"
       gradientUnits="userSpaceOnUse"
       y2="0"
       x2="1"
       y1="0"
       x1="0"><stop
         id="stop224"
         offset="0"
         style="stop-opacity:1;stop-color:#ffffff" /><stop
         id="stop226"
         offset="0.5"
         style="stop-opacity:1;stop-color:#ffffff" /><stop
         id="stop228"
         offset="1"
         style="stop-opacity:1;stop-color:#ffffff" /></linearGradient><clipPath
       id="clipPath252"
       clipPathUnits="userSpaceOnUse"><path
         id="path254"
         d="m 88.207,117.732 c -3.673,-1.861 -7.008,-4.29 -9.891,-7.171 l 0,0 c -3.207,-3.207 -5.852,-6.974 -7.778,-11.142 l 0,0 C 68.187,94.33 66.992,88.76 66.992,83.157 l 0,0 C 67,77.899 68.06,72.885 69.971,68.316 l 0,0 c 1.958,-4.683 4.813,-8.899 8.348,-12.433 l 0,0 c 2.883,-2.882 6.218,-5.31 9.89,-7.169 l 0,0 c 5.417,-2.743 11.443,-4.149 17.511,-4.149 l 0,0 c 5.67,0.01 11.053,1.241 15.902,3.444 l 0,0 c 4.253,1.932 8.095,4.613 11.357,7.874 l 0,0 c 3.536,3.534 6.39,7.749 8.348,12.432 l 0,0 c 1.912,4.569 2.971,9.582 2.98,14.841 l 0,0 c 0,5.602 -1.194,11.172 -3.545,16.26 l 0,0 c -1.926,4.168 -4.571,7.936 -7.779,11.142 l 0,0 c -3.262,3.261 -7.103,5.943 -11.357,7.877 l 0,0 c -4.848,2.204 -10.232,3.434 -15.903,3.445 l 0,0 c -6.071,0 -12.097,-1.404 -17.516,-4.148" /></clipPath><clipPath
       id="clipPath298"
       clipPathUnits="userSpaceOnUse"><path
         id="path300"
         d="m 0,406.277 168.322,0 L 168.322,0 0,0 0,406.277 Z" /></clipPath><clipPath
       id="clipPath310"
       clipPathUnits="userSpaceOnUse"><path
         id="path312"
         d="m 81.8602,329.248 53.0618,0 0,-53.062 -53.0618,0 0,53.062 z" /></clipPath><clipPath
       id="clipPath334"
       clipPathUnits="userSpaceOnUse"><path
         id="path336"
         d="m 82.5478,328.408 51.5342,0 0,-51.534 -51.5342,0 0,51.534 z" /></clipPath><clipPath
       id="clipPath350"
       clipPathUnits="userSpaceOnUse"><path
         id="path352"
         d="m 75.1491,335.806 66.3309,0 0,-66.331 -66.3309,0 0,66.331 z" /></clipPath><clipPath
       id="clipPath370"
       clipPathUnits="userSpaceOnUse"><path
         id="path372"
         d="m 55.4057,399.51 53.0623,0 0,-53.062 -53.0623,0 0,53.062 z" /></clipPath><clipPath
       id="clipPath394"
       clipPathUnits="userSpaceOnUse"><path
         id="path396"
         d="m 56.0933,398.67 51.5337,0 0,-51.534 -51.5337,0 0,51.534 z" /></clipPath><clipPath
       id="clipPath410"
       clipPathUnits="userSpaceOnUse"><path
         id="path412"
         d="m 48.6945,406.068 66.3315,0 0,-66.331 -66.3315,0 0,66.331 z" /></clipPath><clipPath
       id="clipPath430"
       clipPathUnits="userSpaceOnUse"><path
         id="path432"
         d="m 55.3292,258.304 53.0618,0 0,-53.062 -53.0618,0 0,53.062 z" /></clipPath><clipPath
       id="clipPath454"
       clipPathUnits="userSpaceOnUse"><path
         id="path456"
         d="m 56.0168,257.464 51.5342,0 0,-51.534 -51.5342,0 0,51.534 z" /></clipPath><clipPath
       id="clipPath470"
       clipPathUnits="userSpaceOnUse"><path
         id="path472"
         d="m 48.6181,264.862 66.3309,0 0,-66.331 -66.3309,0 0,66.331 z" /></clipPath></defs><g
     transform="matrix(1.25,0,0,-1.25,0,507.84625)"
     id="g10"><g
       id="g12"><g
         clip-path="url(#clipPath16)"
         id="g14"><g
           transform="translate(85.0995,0)"
           id="g20"><path
             id="path22"
             style="fill:#231f20;fill-opacity:1;fill-rule:nonzero;stroke:none"
             d="m 0,0 c -45.962,0 -83.222,37.26 -83.222,83.222 0,45.963 37.26,83.222 83.222,83.222 45.962,0 83.222,-37.259 83.222,-83.222 C 83.222,37.26 45.962,0 0,0" /></g><g
           id="g24"><g
             id="g26" /><g
             id="g32"><g
               style="opacity:0.10000598"
               id="g34"
               clip-path="url(#clipPath28)"><g
                 id="g36"
                 transform="translate(85.0992,6.1158)"><path
                   id="path38"
                   style="fill:#84849b;fill-opacity:1;fill-rule:nonzero;stroke:none"
                   d="m 0,0 16.896,16.323 -8.253,0 0,18.674 -17.286,0 0,-18.674 -8.252,0 L 0,0 Z" /></g><g
                 id="g40"
                 transform="translate(139.622,28.6993)"><path
                   id="path42"
                   style="fill:#84849b;fill-opacity:1;fill-rule:nonzero;stroke:none"
                   d="M 0,0 0.405,23.489 -5.43,17.654 -18.635,30.858 -30.858,18.635 -17.653,5.431 -23.489,-0.405 0,0 Z" /></g><g
                 id="g44"
                 transform="translate(162.2061,83.2215)"><path
                   id="path46"
                   style="fill:#84849b;fill-opacity:1;fill-rule:nonzero;stroke:none"
                   d="m 0,0 -16.323,16.896 0,-8.252 -18.674,0 0,-17.287 18.674,0 0,-8.252 L 0,0 Z" /></g><g
                 id="g48"
                 transform="translate(139.6227,137.7441)"><path
                   id="path50"
                   style="fill:#84849b;fill-opacity:1;fill-rule:nonzero;stroke:none"
                   d="m 0,0 -23.489,0.405 5.835,-5.835 -13.205,-13.205 12.224,-12.223 13.204,13.205 5.836,-5.835 L 0,0 Z" /></g><g
                 id="g52"
                 transform="translate(85.1005,160.3285)"><path
                   id="path54"
                   style="fill:#84849b;fill-opacity:1;fill-rule:nonzero;stroke:none"
                   d="m 0,0 -16.896,-16.322 8.252,0 0,-18.675 17.287,0 0,18.674 8.252,0.001 L 0,0 Z" /></g><g
                 id="g56"
                 transform="translate(30.5779,137.7453)"><path
                   id="path58"
                   style="fill:#84849b;fill-opacity:1;fill-rule:nonzero;stroke:none"
                   d="M 0,0 -0.405,-23.489 5.43,-17.654 18.635,-30.859 30.858,-18.636 17.653,-5.431 23.488,0.405 0,0 Z" /></g><g
                 id="g60"
                 transform="translate(7.9934,83.223)"><path
                   id="path62"
                   style="fill:#84849b;fill-opacity:1;fill-rule:nonzero;stroke:none"
                   d="m 0,0 16.322,-16.895 0,8.251 18.675,0 0,17.286 -18.674,0 -0.001,8.253 L 0,0 Z" /></g><g
                 id="g64"
                 transform="translate(30.5767,28.7004)"><path
                   id="path66"
                   style="fill:#84849b;fill-opacity:1;fill-rule:nonzero;stroke:none"
                   d="M 0,0 23.489,-0.405 17.654,5.43 30.859,18.635 18.636,30.858 5.431,17.653 -0.405,23.488 0,0 Z" /></g></g></g></g><g
           transform="translate(84.1609,0.0119)"
           id="g68"><path
             id="path70"
             style="fill:#6d6e70;fill-opacity:1;fill-rule:nonzero;stroke:none"
             d="m 0,0 c -45.529,0.504 -82.284,37.562 -82.284,83.21 0,45.649 36.755,82.707 82.284,83.211 -0.313,0.003 -0.625,0.012 -0.939,0.012 -45.962,0 -83.222,-37.26 -83.222,-83.223 0,-45.962 37.26,-83.222 83.222,-83.222 0.314,0 0.626,0.009 0.939,0.012" /></g></g></g><g
       id="g72"><g
         id="g74"><g
           id="g80"><g
             id="g82"><path
               id="path90"
               style="fill:url(#linearGradient84);stroke:none"
               d="m 56.876,83.222 c 0,-15.551 12.608,-28.159 28.159,-28.159 l 0,0 c 15.552,0 28.159,12.608 28.159,28.159 l 0,0 c 0,15.552 -12.607,28.159 -28.159,28.159 l 0,0 c -15.551,0 -28.159,-12.607 -28.159,-28.159" /></g></g></g></g><g
       id="g92"><g
         clip-path="url(#clipPath96)"
         id="g94"><g
           id="g100"><g
             id="g102" /><g
             id="g108"><g
               style="opacity:0.30000299"
               id="g110"
               clip-path="url(#clipPath104)"><g
                 id="g112"
                 transform="translate(85.035,60.786)"><path
                   id="path114"
                   style="fill:#231f20;fill-opacity:1;fill-rule:nonzero;stroke:none"
                   d="m 0,0 c -12.391,0 -22.436,10.045 -22.436,22.436 0,12.391 10.045,22.437 22.436,22.437 12.391,0 22.436,-10.046 22.436,-22.437 C 22.436,10.045 12.391,0 0,0" /></g></g></g></g><g
           id="g116"><g
             id="g118" /><g
             id="g168"><g
               style="opacity:0.14999402"
               id="g170"
               clip-path="url(#clipPath120)"><g
                 id="g172"><g
                   id="g174"
                   clip-path="url(#clipPath124)"><g
                     id="g176"><g
                       id="g178" /><g
                       id="g180"
                       mask="url(#mask144)"><g
                         id="g182"><path
                           id="path184"
                           style="fill:url(#linearGradient156);stroke:none"
                           d="m 58.434,83.504 c 0,14.847 12.035,26.882 26.882,26.882 14.847,0 26.883,-12.035 26.883,-26.882 0,-14.847 -12.036,-26.883 -26.883,-26.883 -14.847,0 -26.882,12.036 -26.882,26.883 m 54.583,-0.346 c 0,15.49 -12.557,28.047 -28.047,28.047 -15.49,0 -28.047,-12.557 -28.047,-28.047 0,-15.49 12.557,-28.047 28.047,-28.047 15.49,0 28.047,12.557 28.047,28.047" /></g></g></g></g></g></g></g></g><g
           id="g186"><g
             id="g188" /><g
             id="g230"><g
               style="opacity:0.39999402"
               id="g232"
               clip-path="url(#clipPath190)"><g
                 id="g234"><g
                   id="g236"
                   clip-path="url(#clipPath194)"><g
                     id="g238"><g
                       id="g240" /><g
                       id="g242"
                       mask="url(#mask210)"><g
                         id="g244"><path
                           id="path246"
                           style="fill:url(#linearGradient222);stroke:none"
                           d="m 111.507,82.812 c 0,-14.847 -12.036,-26.883 -26.882,-26.883 -14.847,0 -26.883,12.036 -26.883,26.883 0,14.847 12.036,26.883 26.883,26.883 14.846,0 26.882,-12.036 26.882,-26.883 m -54.583,0.346 c 0,-15.49 12.556,-28.047 28.047,-28.047 15.49,0 28.047,12.557 28.047,28.047 0,15.49 -12.557,28.047 -28.047,28.047 -15.491,0 -28.047,-12.557 -28.047,-28.047" /></g></g></g></g></g></g></g></g></g></g><g
       id="g248"><g
         clip-path="url(#clipPath252)"
         id="g250"><g
           id="g256"><g
             transform="scale(1,-1)"
             id="g258"><g
               id="g260"><path
                 id="path262"
                 style="fill:#cf8a61;fill-opacity:1;fill-rule:nonzero;stroke:none"
                 d="m 78.316413,-110.56066 c -3.206545,3.20703 -5.85303,6.97364 -7.778813,11.141622 3.945315,-1.623052 9.011724,-1.819342 13.401863,-2.863292 0.694824,-5.37305 1.94336,-10.62404 4.26758,-15.44925 -3.672365,1.86036 -7.007816,4.28907 -9.89063,7.17092 z" /><path
                 id="path264"
                 style="fill:#cf8a61;fill-opacity:1;fill-rule:nonzero;stroke:none"
                 d="m 70.5376,-99.419038 c -2.351075,5.088878 -3.5459,10.659203 -3.5459,16.261755 5.31055,-0.002 10.621099,0.002 15.932137,0.0059 0.144532,-6.210951 0.190918,-12.756864 1.015626,-19.130907 -4.390139,1.04395 -9.456548,1.24024 -13.401863,2.863293 z" /><path
                 id="path266"
                 style="fill:#cf8a61;fill-opacity:1;fill-rule:nonzero;stroke:none"
                 d="m 66.9917,-83.157283 c 0.0083,5.258801 1.067872,10.272484 2.978517,14.840853 4.119143,1.413089 9.36231,2.619147 13.86866,3.533211 -0.761719,-5.993177 -0.97461,-12.421902 -0.91504,-18.368205 -5.311038,-0.0039 -10.621587,-0.0078 -15.932137,-0.0059 z" /><path
                 id="path268"
                 style="fill:#cf8a61;fill-opacity:1;fill-rule:nonzero;stroke:none"
                 d="m 69.970217,-68.31643 c 1.958986,4.683605 4.813479,8.899434 8.348637,12.433622 2.882814,2.881842 6.217777,5.309582 9.890142,7.168961 -2.231446,-4.238291 -3.589357,-9.924827 -4.370119,-16.069372 -4.50635,-0.914064 -9.749517,-2.120122 -13.86866,-3.533211 z" /><path
                 id="path270"
                 style="fill:#cf8a61;fill-opacity:1;fill-rule:nonzero;stroke:none"
                 d="m 88.207043,-117.73158 c -2.32422,4.82521 -14.156828,9.92713 -14.851652,15.30018 6.37305,-1.54492 31.707089,11.091283 38.447339,11.091283 -0.0469,-5.91017 -6.08103,-24.639503 -6.08005,-30.539913 -6.070318,0 -12.096689,1.4043 -17.515637,4.14845 z" /><path
                 id="path272"
                 style="fill:#cf8a61;fill-opacity:1;fill-rule:nonzero;stroke:none"
                 d="m 83.939463,-102.28233 c -0.824708,6.374042 -0.871094,12.919955 -1.015626,19.130906 7.607426,0.0059 15.214852,0.01367 22.822283,0.01367 0.17089,-6.999039 0.14941,-14.010773 0.0937,-21.022506 -6.740243,0 -15.527357,0.33301 -21.900407,1.87793 z" /><path
                 id="path274"
                 style="fill:#cf8a61;fill-opacity:1;fill-rule:nonzero;stroke:none"
                 d="m 82.923837,-83.151424 c -0.05957,5.946303 0.153321,12.375028 0.91504,18.368205 6.533206,1.349613 14.908211,2.063481 21.760753,2.063481 -0.0361,-6.428725 -0.0283,-13.300811 0.14649,-20.418014 -7.607431,0 -15.214857,-0.0078 -22.822283,-0.01367 z" /><path
                 id="path276"
                 style="fill:#cf8a61;fill-opacity:1;fill-rule:nonzero;stroke:none"
                 d="m 69.975234,-80.733862 c 0.780762,6.144545 16.002316,27.781724 18.233762,32.020015 5.416995,2.74317 11.442389,4.148447 17.511724,4.148447 0,-5.440442 -0.084,-11.564479 -0.12109,-18.154338 -6.852542,0 -29.09119,-16.664511 -35.624396,-18.014124 z" /><path
                 id="path278"
                 style="fill:#cf8a61;fill-opacity:1;fill-rule:nonzero;stroke:none"
                 d="m 105.72268,-121.88003 c -9.8e-4,5.90041 -25.718165,13.14678 -25.671275,19.05695 6.5459,0.006 40.268935,-1.02273 45.992575,0.21751 -0.96289,-5.42677 -2.39942,-10.75686 -4.41797,-15.82914 -4.84864,-2.2041 -10.23243,-3.43457 -15.90333,-3.44532 z" /><path
                 id="path280"
                 style="fill:#cf8a61;fill-opacity:1;fill-rule:nonzero;stroke:none"
                 d="m 105.83987,-104.16026 c 0.0557,7.011735 -10.3579,34.297184 -10.5287,41.296223 7.67676,0 25.50141,-20.280515 32.35688,-20.285435 0,-6.442397 -0.47949,-13.017607 -1.62402,-19.456098 -5.72364,-1.24024 -11.72028,-11.68569 -18.26618,-11.69155 z" /><path
                 id="path282"
                 style="fill:#cf8a61;fill-opacity:1;fill-rule:nonzero;stroke:none"
                 d="m 74.739262,-88.802466 c -0.17481,7.117203 30.824238,19.654003 30.860368,26.082728 6.69141,-0.0049 14.58595,-0.63086 20.45704,-1.713871 0.98731,-6.09181 1.52735,-12.618192 1.61133,-18.715862 -6.85547,0.0049 -45.251978,-5.652994 -52.928738,-5.652995 z" /><path
                 id="path284"
                 style="fill:#cf8a61;fill-opacity:1;fill-rule:nonzero;stroke:none"
                 d="m 76.083486,-69.726095 c 0.0371,6.589859 29.637234,19.720253 29.637234,25.160695 5.66993,-0.0098 11.05274,-1.241214 15.9004,-3.443367 1.94141,-4.394541 3.42286,-10.180687 4.43555,-16.424842 -5.87109,1.083011 -43.281774,-5.297368 -49.973184,-5.292486 z" /><path
                 id="path286"
                 style="fill:#cf8a61;fill-opacity:1;fill-rule:nonzero;stroke:none"
                 d="m 121.62601,-118.43471 c 2.01855,5.07228 -12.94278,22.179013 -11.97989,27.605783 5.02539,1.08594 27.08243,-10.424103 31.11564,-8.587182 -1.92578,-4.167981 -4.57129,-7.935561 -7.77833,-11.141631 -3.26172,-3.26172 -7.10352,-5.94337 -11.35742,-7.87697 z" /><path
                 id="path288"
                 style="fill:#cf8a61;fill-opacity:1;fill-rule:nonzero;stroke:none"
                 d="m 119.93205,-114.9785 c 1.14453,6.43849 7.73595,25.386632 7.73595,31.829029 6.01368,-0.0049 11.61622,-0.0078 16.63868,-0.0068 0,-5.601575 -1.19433,-11.1719 -3.54492,-16.259802 -4.03321,-1.836917 -36.37618,-4.786807 -41.401567,-5.872747 z" /><path
                 id="path290"
                 style="fill:#cf8a61;fill-opacity:1;fill-rule:nonzero;stroke:none"
                 d="m 127.668,-83.149471 c -34.221358,-1.952187 -0.62402,12.624052 -1.61133,18.715862 5.14942,-0.950197 11.11231,-2.283208 15.27052,-3.881844 1.91113,-4.56837 2.9707,-9.581076 2.97949,-14.840854 -5.02246,-9.76e-4 -34.47643,-12.370929 -40.49011,-12.366129 z" /><path
                 id="path292"
                 style="fill:#cf8a61;fill-opacity:1;fill-rule:nonzero;stroke:none"
                 d="m 104.44131,-83.365681 c -1.01269,6.244155 19.12122,30.962373 17.17981,35.356914 4.25391,-1.932622 8.09571,-4.613292 11.35743,-7.874041 3.53614,-3.534188 6.38965,-7.749041 8.34864,-12.432645 -4.15821,1.598636 -31.73646,-16.000425 -36.88588,-15.050228 z" /></g></g></g></g></g><g
       id="g294"><g
         clip-path="url(#clipPath298)"
         id="g296"><g
           transform="translate(108.3911,269.4192)"
           id="g302"><path
             id="path304"
             style="fill:#cf8a61;fill-opacity:1;fill-rule:nonzero;stroke:none"
             d="m 0,0 c -18.39,0 -33.298,14.908 -33.298,33.298 0,18.39 14.908,33.298 33.298,33.298 18.39,0 33.298,-14.908 33.298,-33.298 C 33.298,14.908 18.39,0 0,0" /></g><g
           id="g306"><g
             id="g308" /><g
             id="g314"><g
               style="opacity:0.30000299"
               id="g316"
               clip-path="url(#clipPath310)"><g
                 id="g318"
                 transform="translate(108.3911,276.1864)"><path
                   id="path320"
                   style="fill:#cf8a61;fill-opacity:1;fill-rule:nonzero;stroke:none"
                   d="m 0,0 c -14.653,0 -26.531,11.878 -26.531,26.531 0,14.652 11.878,26.531 26.531,26.531 14.653,0 26.531,-11.879 26.531,-26.531 C 26.531,11.878 14.653,0 0,0" /></g></g></g></g><g
           transform="translate(108.3148,276.8739)"
           id="g322"><path
             id="path324"
             style="fill:#cf8a61;fill-opacity:1;fill-rule:nonzero;stroke:none"
             d="m 0,0 c -14.231,0 -25.767,11.536 -25.767,25.767 0,14.231 11.536,25.767 25.767,25.767 14.231,0 25.767,-11.536 25.767,-25.767 C 25.767,11.536 14.231,0 0,0" /></g><g
           transform="translate(108.3148,276.8739)"
           id="g326"><path
             id="path328"
             style="fill:#cf8a61;fill-opacity:1;fill-rule:nonzero;stroke:none"
             d="m 0,0 c -14.231,0 -25.767,11.536 -25.767,25.767 0,14.231 11.536,25.767 25.767,25.767 14.231,0 25.767,-11.536 25.767,-25.767 C 25.767,11.536 14.231,0 0,0" /></g><g
           id="g330"><g
             id="g332" /><g
             id="g338"><g
               style="opacity:0.19999701"
               id="g340"
               clip-path="url(#clipPath334)"><g
                 id="g342"
                 transform="translate(83.9352,302.9589)"><path
                   id="path344"
                   style="fill:#cf8a61;fill-opacity:1;fill-rule:nonzero;stroke:none"
                   d="M 0,0 C 0,13.64 11.057,24.697 24.697,24.697 38.337,24.697 49.395,13.64 49.395,0 49.395,-13.64 38.337,-24.698 24.697,-24.698 11.057,-24.698 0,-13.64 0,0 m 50.146,-0.318 c 0,14.231 -11.536,25.767 -25.766,25.767 -14.231,0 -25.767,-11.536 -25.767,-25.767 0,-14.231 11.536,-25.767 25.767,-25.767 14.23,0 25.766,11.536 25.766,25.767" /></g></g></g></g><g
           id="g346"><g
             id="g348" /><g
             id="g354"><g
               style="opacity:0.14999402"
               id="g356"
               clip-path="url(#clipPath350)"><g
                 id="g358"
                 transform="translate(76.9348,303.0498)"><path
                   id="path360"
                   style="fill:#cf8a61;fill-opacity:1;fill-rule:nonzero;stroke:none"
                   d="M 0,0 C 0,17.557 14.233,31.789 31.789,31.789 49.346,31.789 63.578,17.557 63.578,0 63.578,-17.556 49.346,-31.789 31.789,-31.789 14.233,-31.789 0,-17.556 0,0 m 64.546,-0.409 c 0,18.317 -14.849,33.166 -33.166,33.166 -18.317,0 -33.166,-14.849 -33.166,-33.166 0,-18.317 14.849,-33.165 33.166,-33.165 18.317,0 33.166,14.848 33.166,33.165" /></g></g></g></g><g
           transform="translate(81.9366,339.6811)"
           id="g362"><path
             id="path364"
             style="fill:#cf8a61;fill-opacity:1;fill-rule:nonzero;stroke:none"
             d="m 0,0 c -18.39,0 -33.298,14.908 -33.298,33.298 0,18.39 14.908,33.298 33.298,33.298 18.39,0 33.298,-14.908 33.298,-33.298 C 33.298,14.908 18.39,0 0,0" /></g><g
           id="g366"><g
             id="g368" /><g
             id="g374"><g
               style="opacity:0.30000299"
               id="g376"
               clip-path="url(#clipPath370)"><g
                 id="g378"
                 transform="translate(81.9366,346.4483)"><path
                   id="path380"
                   style="fill:#cf8a61;fill-opacity:1;fill-rule:nonzero;stroke:none"
                   d="m 0,0 c -14.653,0 -26.531,11.878 -26.531,26.531 0,14.652 11.878,26.531 26.531,26.531 14.653,0 26.531,-11.879 26.531,-26.531 C 26.531,11.878 14.653,0 0,0" /></g></g></g></g><g
           transform="translate(81.8602,347.1358)"
           id="g382"><path
             id="path384"
             style="fill:#cf8a61;fill-opacity:1;fill-rule:nonzero;stroke:none"
             d="m 0,0 c -14.231,0 -25.767,11.536 -25.767,25.767 0,14.231 11.536,25.767 25.767,25.767 14.231,0 25.767,-11.536 25.767,-25.767 C 25.767,11.536 14.231,0 0,0" /></g><g
           transform="translate(81.8602,347.1358)"
           id="g386"><path
             id="path388"
             style="fill:#cf8a61;fill-opacity:1;fill-rule:nonzero;stroke:none"
             d="m 0,0 c -14.231,0 -25.767,11.536 -25.767,25.767 0,14.231 11.536,25.767 25.767,25.767 14.231,0 25.767,-11.536 25.767,-25.767 C 25.767,11.536 14.231,0 0,0" /></g><g
           id="g390"><g
             id="g392" /><g
             id="g398"><g
               style="opacity:0.19999701"
               id="g400"
               clip-path="url(#clipPath394)"><g
                 id="g402"
                 transform="translate(57.4806,373.2208)"><path
                   id="path404"
                   style="fill:#cf8a61;fill-opacity:1;fill-rule:nonzero;stroke:none"
                   d="M 0,0 C 0,13.64 11.057,24.697 24.697,24.697 38.337,24.697 49.395,13.64 49.395,0 49.395,-13.64 38.337,-24.698 24.697,-24.698 11.057,-24.698 0,-13.64 0,0 m 50.146,-0.318 c 0,14.231 -11.536,25.767 -25.766,25.767 -14.231,0 -25.767,-11.536 -25.767,-25.767 0,-14.231 11.536,-25.767 25.767,-25.767 14.23,0 25.766,11.536 25.766,25.767" /></g></g></g></g><g
           id="g406"><g
             id="g408" /><g
             id="g414"><g
               style="opacity:0.14999402"
               id="g416"
               clip-path="url(#clipPath410)"><g
                 id="g418"
                 transform="translate(50.4802,373.3117)"><path
                   id="path420"
                   style="fill:#cf8a61;fill-opacity:1;fill-rule:nonzero;stroke:none"
                   d="M 0,0 C 0,17.557 14.233,31.789 31.789,31.789 49.346,31.789 63.578,17.557 63.578,0 63.578,-17.556 49.346,-31.789 31.789,-31.789 14.233,-31.789 0,-17.556 0,0 m 64.546,-0.409 c 0,18.317 -14.849,33.166 -33.166,33.166 -18.317,0 -33.166,-14.849 -33.166,-33.166 0,-18.317 14.849,-33.165 33.166,-33.165 18.317,0 33.166,14.848 33.166,33.165" /></g></g></g></g><g
           transform="translate(81.8602,198.475)"
           id="g422"><path
             id="path424"
             style="fill:#cf8a61;fill-opacity:1;fill-rule:nonzero;stroke:none"
             d="m 0,0 c -18.39,0 -33.298,14.908 -33.298,33.298 0,18.39 14.908,33.298 33.298,33.298 18.39,0 33.298,-14.908 33.298,-33.298 C 33.298,14.908 18.39,0 0,0" /></g><g
           id="g426"><g
             id="g428" /><g
             id="g434"><g
               style="opacity:0.30000299"
               id="g436"
               clip-path="url(#clipPath430)"><g
                 id="g438"
                 transform="translate(81.8602,205.2422)"><path
                   id="path440"
                   style="fill:#cf8a61;fill-opacity:1;fill-rule:nonzero;stroke:none"
                   d="m 0,0 c -14.653,0 -26.531,11.878 -26.531,26.531 0,14.652 11.878,26.531 26.531,26.531 14.653,0 26.531,-11.879 26.531,-26.531 C 26.531,11.878 14.653,0 0,0" /></g></g></g></g><g
           transform="translate(81.7838,205.9297)"
           id="g442"><path
             id="path444"
             style="fill:#cf8a61;fill-opacity:1;fill-rule:nonzero;stroke:none"
             d="m 0,0 c -14.231,0 -25.767,11.536 -25.767,25.767 0,14.231 11.536,25.767 25.767,25.767 14.231,0 25.767,-11.536 25.767,-25.767 C 25.767,11.536 14.231,0 0,0" /></g><g
           transform="translate(81.7838,205.9297)"
           id="g446"><path
             id="path448"
             style="fill:#cf8a61;fill-opacity:1;fill-rule:nonzero;stroke:none"
             d="m 0,0 c -14.231,0 -25.767,11.536 -25.767,25.767 0,14.231 11.536,25.767 25.767,25.767 14.231,0 25.767,-11.536 25.767,-25.767 C 25.767,11.536 14.231,0 0,0" /></g><g
           id="g450"><g
             id="g452" /><g
             id="g458"><g
               style="opacity:0.19999701"
               id="g460"
               clip-path="url(#clipPath454)"><g
                 id="g462"
                 transform="translate(57.4042,232.0147)"><path
                   id="path464"
                   style="fill:#cf8a61;fill-opacity:1;fill-rule:nonzero;stroke:none"
                   d="M 0,0 C 0,13.64 11.057,24.697 24.697,24.697 38.337,24.697 49.395,13.64 49.395,0 49.395,-13.64 38.337,-24.698 24.697,-24.698 11.057,-24.698 0,-13.64 0,0 m 50.146,-0.318 c 0,14.231 -11.536,25.767 -25.766,25.767 -14.231,0 -25.767,-11.536 -25.767,-25.767 0,-14.231 11.536,-25.767 25.767,-25.767 14.23,0 25.766,11.536 25.766,25.767" /></g></g></g></g><g
           id="g466"><g
             id="g468" /><g
             id="g474"><g
               style="opacity:0.14999402"
               id="g476"
               clip-path="url(#clipPath470)"><g
                 id="g478"
                 transform="translate(50.4038,232.1056)"><path
                   id="path480"
                   style="fill:#cf8a61;fill-opacity:1;fill-rule:nonzero;stroke:none"
                   d="M 0,0 C 0,17.557 14.233,31.789 31.789,31.789 49.346,31.789 63.578,17.557 63.578,0 63.578,-17.556 49.346,-31.789 31.789,-31.789 14.233,-31.789 0,-17.556 0,0 m 64.546,-0.409 c 0,18.317 -14.849,33.165 -33.166,33.165 -18.317,0 -33.166,-14.848 -33.166,-33.165 0,-18.317 14.849,-33.165 33.166,-33.165 18.317,0 33.166,14.848 33.166,33.165" /></g></g></g></g></g></g></g></svg>