<?xml version="1.0" encoding="UTF-8" standalone="no"?>
<!-- Created with Inkscape (http://www.inkscape.org/) -->

<svg
   xmlns:dc="http://purl.org/dc/elements/1.1/"
   xmlns:cc="http://creativecommons.org/ns#"
   xmlns:rdf="http://www.w3.org/1999/02/22-rdf-syntax-ns#"
   xmlns:svg="http://www.w3.org/2000/svg"
   xmlns="http://www.w3.org/2000/svg"
   xmlns:sodipodi="http://sodipodi.sourceforge.net/DTD/sodipodi-0.dtd"
   xmlns:inkscape="http://www.inkscape.org/namespaces/inkscape"
   version="1.0"
   width="30"
   height="30"
   id="svg2"
   inkscape:version="0.91 r13725"
   sodipodi:docname="icon_empty.svg">
  <metadata
     id="metadata36">
    <rdf:RDF>
      <cc:Work
         rdf:about="">
        <dc:format>image/svg+xml</dc:format>
        <dc:type
           rdf:resource="http://purl.org/dc/dcmitype/StillImage" />
        <dc:title></dc:title>
      </cc:Work>
    </rdf:RDF>
  </metadata>
  <sodipodi:namedview
     pagecolor="#ffffff"
     bordercolor="#666666"
     borderopacity="1"
     objecttolerance="10"
     gridtolerance="10"
     guidetolerance="10"
     inkscape:pageopacity="0"
     inkscape:pageshadow="2"
     inkscape:window-width="1920"
     inkscape:window-height="1027"
     id="namedview34"
     showgrid="false"
     inkscape:zoom="28.6"
     inkscape:cx="15"
     inkscape:cy="14.727884"
     inkscape:window-x="-8"
     inkscape:window-y="-8"
     inkscape:window-maximized="1"
     inkscape:current-layer="svg2" />
  <defs
     id="defs4" />
  <path
     d="m 24.200872,12.325207 c 0.569161,1.018696 0.961527,2.084162 1.170702,3.186205 0.553969,0.02221 0.920951,0.343896 1.065065,0.934547 0.299021,-0.295932 1.219573,-1.331615 1.39287,-2.997821 -0.808518,-0.768834 -3.043886,-1.059166 -3.628637,-1.122931 l 0,0 z"
     style="fill:#666666"
     id="path6"
     inkscape:connector-curvature="0" />
  <path
     d="m 20.591624,13.082458 c -0.02609,0.0093 -0.163203,-0.44563 -0.534082,-0.978414 -0.348193,-0.539579 -1.059469,-1.085458 -1.813719,-1.058671 -1.586555,-0.08997 -2.849502,1.443736 -2.838108,1.400467 -0.02458,-0.01521 0.08935,-0.252448 0.484411,-0.629627 0.386469,-0.355087 1.118933,-0.927248 2.318218,-0.951832 1.254652,0.02679 1.847698,0.939046 2.098349,1.404966 0.26704,0.515685 0.304518,0.808911 0.284931,0.813111 z m -7.254676,-2.175797 c -0.02499,0.02501 -0.06396,0.02912 -0.09364,0.0099 -0.02968,-0.01923 -0.04218,-0.05647 -0.02928,-0.08941 0.02928,-0.07756 0.731963,-1.9074635 1.615837,-2.7914332 0.01909,-0.019227 0.04727,-0.026507 0.07336,-0.01904 1.079856,0.3036134 2.001607,1.6387193 2.040183,1.6954846 0.01599,0.022867 0.01759,0.05264 0.0047,0.07728 -0.01329,0.024547 -0.03868,0.039853 -0.06636,0.039853 -1.138322,0 -2.749562,0.2822312 -3.544788,1.0774592 z m -1.178598,0.525485 c -0.0066,0.04079 -0.04528,0.06851 -0.08585,0.06179 -0.04097,-0.0065 -0.06866,-0.04536 -0.06167,-0.08615 0.02619,-0.158209 0.662505,-3.8824904 2.613242,-4.5888653 0.01249,-0.00467 0.02579,-0.0056 0.03868,-0.00373 1.708381,0.3015135 3.374988,2.5004102 3.444846,2.5939489 0.02499,0.033133 0.01829,0.08008 -0.01489,0.104944 -0.03318,0.02492 -0.07995,0.018013 -0.104937,-0.01512 l 0,9.34e-5 c -0.01679,-0.0224 -1.687295,-2.2263741 -3.330915,-2.5319849 -1.853895,0.6946802 -2.491815,4.4268572 -2.498511,4.4646392 z m 13.151561,4.226779 c -0.01798,0 -0.03468,-0.0065 -0.04797,-0.01717 -0.0078,0.0047 -0.01569,0.0084 -0.02458,0.01176 -0.364283,0.02931 -1.481217,0.863082 -1.487014,0.869382 -0.05706,-0.04527 0.942738,-0.936545 1.445939,-0.970527 0.01179,-0.0028 0.02038,-0.0028 0.03008,-0.0037 -0.340397,-1.80152 -1.1758,-3.50561 -2.48442,-5.065472 C 21.562544,9.0780922 20.028358,7.8174477 18.181759,6.7365914 13.426394,3.953353 7.9870358,3.145534 5.3425123,3.9443557 7.2835552,5.0778801 9.819144,8.0103304 10.425083,10.401905 c 0.0058,0.02361 0,0.04853 -0.01569,0.06701 -0.01559,0.01848 -0.03938,0.02819 -0.06356,0.02595 -4.8241248,-0.432442 -8.9966376,2.226477 -10.17053783,4.974034 4.44035313,-0.279935 7.46115243,2.031195 7.49123443,2.054575 0.01839,0.01409 0.028883,0.03593 0.028883,0.05899 0,0.02352 -0.010493,0.04527 -0.028883,0.05936 -3.1231382,2.432949 -5.0891662,5.363402 -5.1961026,6.78486 3.5517828,-1.653317 7.5006292,-0.880377 9.59588,-0.137023 -1.242259,-0.984611 -1.579559,-2.416158 -1.669405,-3.04278 -0.138517,-0.967522 0.01679,-1.630431 0.366981,-2.147321 0.339698,-0.501704 0.943638,-0.852992 1.566667,-0.816713 0.614133,0.03556 1.246956,0.438041 1.982818,1.31951 -0.109336,-0.469215 -0.196783,-1.118834 -0.138219,-2.119835 0.05077,-0.87248 0.356089,-2.170607 1.177399,-3.354896 0.65351,-0.941939 1.399166,-1.759754 2.849501,-1.84311 0.541877,-0.03117 1.112237,0.195086 1.521393,0.597651 0.963426,0.947931 1.52679,2.997009 1.383875,4.706587 -0.124125,1.48542 -0.213872,2.558576 0.142516,2.862096 0.123726,0.105038 0.312314,0.123826 0.577455,0.05749 0.06207,-0.01568 0.125226,-0.04069 0.189687,-0.07364 0.03318,-0.02539 0.08355,-0.06011 0.163602,-0.114734 0.04568,-0.03052 0.09754,-0.06636 0.151411,-0.103843 0.08515,-0.07149 0.179992,-0.156203 0.288128,-0.261539 0.0035,-0.0037 0.0067,-0.0065 0.01059,-0.01017 0.305218,-0.314216 0.619531,-0.717174 0.928747,-1.114139 0.561765,-0.721066 1.092248,-1.402362 1.536584,-1.487809 0.191985,-0.03668 0.297822,0.05161 0.35249,0.132319 0.344294,0.505998 -0.247552,2.354493 -0.756949,3.317021 1.014995,-0.762645 1.897669,-3.026596 1.604843,-4.290647 -0.129622,-0.559067 -0.461424,-0.842492 -0.986511,-0.842492 l 0,0 z"
     style="fill:#666666"
     id="path8"
     inkscape:connector-curvature="0" />
  <path
     d="m 14.18924,22.667048 c -0.8386,-0.449335 -1.474921,-1.125134 -1.716577,-1.733266 -0.02229,-0.05544 -0.04178,-0.141717 -0.07536,-0.183493 -0.376376,0.167402 -0.479415,0.575353 -0.524687,0.560961 -0.04218,0.122528 -0.02539,-0.552365 0.574657,-0.810815 0.600042,-0.258645 1.091949,0.06207 1.07316,0.06907 -0.0101,0.05656 -0.554369,-0.06599 -0.942737,0.09915 0.01359,0.02968 0.02808,0.06599 0.04097,0.108528 0.104638,0.410359 0.781534,1.284836 1.62753,1.782938 0.815514,0.535584 1.655313,0.808118 1.638823,0.844798 7.99e-4,0.0047 -0.875578,-0.257246 -1.695789,-0.737857 z m 6.912679,0.512195 c 0,-0.212371 0.111633,-0.409454 0.30252,-0.574663 -0.248252,-0.222068 -0.820612,-0.597642 -1.782138,-0.482907 -2.154615,0.256546 -3.876589,-0.471921 -5.264462,-2.226971 -0.774138,-0.978321 -1.318713,-1.403062 -2.043681,-1.444838 -0.562565,-0.03239 -1.15871,0.375172 -1.399166,0.721868 -0.348593,0.503599 -0.501702,1.13092 -0.36968,2.053969 0.09914,0.692589 0.509796,2.398975 2.172905,3.317628 0.137018,0.05899 0.260345,0.115528 0.366181,0.168597 0.594146,0.297127 2.176402,1.000609 4.0269,1.116538 1.987115,0.124124 3.681005,-0.45053 5.040396,-1.705182 -0.620331,-0.167907 -1.049775,-0.527091 -1.049775,-0.944039 l 0,0 z"
     style="fill:#666666"
     id="path10"
     inkscape:connector-curvature="0" />
  <path
     d="M 14.904813,8.1740838 C 14.262596,8.8369934 13.707128,10.038875 13.472866,10.590046 14.491359,9.8062138 16.145474,9.6949791 16.735722,9.6812871 16.490168,9.3550776 15.736317,8.4315346 14.904813,8.1740838 l 0,0 z"
     style="fill:#666666"
     id="path12"
     inkscape:connector-curvature="0" />
  <path
     d="m 22.988295,22.555813 c -0.401361,0 -0.726567,0.135819 -0.726567,0.303716 0,0.167506 0.325206,0.303325 0.726567,0.303325 0.400861,0 0.726067,-0.135819 0.726067,-0.303325 0,-0.167897 -0.325206,-0.303716 -0.726067,-0.303716 l 0,0 z"
     style="fill:#666666"
     id="path14"
     inkscape:connector-curvature="0" />
  <path
     d="m 17.404123,17.518817 c -0.533282,1.249958 -1.266445,2.135029 -1.637724,1.97652 -0.370878,-0.158106 -0.239357,-1.300021 0.293925,-2.550082 0.533283,-1.249948 1.266846,-2.135421 1.637324,-1.976922 0.371279,0.158107 0.239758,1.300031 -0.293525,2.550484 z m 7.920678,0.0406 c -0.02779,-0.04097 -0.07886,-0.09296 -0.200679,-0.06944 -0.388869,0.07495 -0.926448,0.765147 -1.446438,1.432648 -0.09254,0.119131 -0.18539,0.238159 -0.278735,0.355684 0,9.34e-4 -3.99e-4,0.0028 -7.98e-4,0.0047 -0.09094,0.914658 -1.073161,2.787634 -1.652515,2.90627 -0.177995,0.03631 -0.326406,-0.07299 -0.341597,-0.308821 -0.02499,-0.388071 0.06286,-0.894367 0.179993,-1.184391 -0.177995,0.0056 -0.320909,-0.03668 -0.431044,-0.130424 -0.396962,-0.337503 -0.339996,-1.256855 -0.195183,-2.988619 0.139817,-1.670508 -0.440737,-3.648728 -1.37608,-4.569079 -0.376375,-0.36988 -0.858488,-0.541679 -1.40856,-0.508396 -1.32621,0.08027 -2.062471,0.840803 -2.687898,1.745166 -0.783833,1.132423 -1.102442,2.511694 -1.160208,3.238565 -0.119029,1.500306 0.142515,2.159716 0.163203,2.335005 1.350794,1.698789 3.024396,2.403773 5.116049,2.154722 1.053273,-0.125328 1.664708,0.294719 1.922755,0.537573 0.337299,-0.230356 0.844396,-0.377067 1.412358,-0.377067 0.242455,0 0.473617,0.02725 0.685591,0.07607 0.429044,-0.650011 0.781134,-1.222266 0.78823,-1.233961 3e-4,0 3e-4,0 3e-4,-4.01e-4 4e-4,0 0,-4.02e-4 0,-4.02e-4 0.546175,-0.860281 1.227468,-2.950435 0.911256,-3.414965 l 0,0 z"
     style="fill:#666666"
     id="path16"
     inkscape:connector-curvature="0" />
  <path
     d="m 17.411519,15.620649 c -0.130822,-0.05348 -0.374377,0.241258 -0.544176,0.657805 -0.169499,0.416556 -0.20068,0.797627 -0.06956,0.851097 0.130822,0.05301 0.374377,-0.241257 0.544275,-0.657813 0.169399,-0.416949 0.200581,-0.797926 0.06946,-0.851089 l 0,0 z"
     style="fill:#666666"
     id="path18"
     inkscape:connector-curvature="0" />
  <path
     d="m 22.362867,20.628862 c 0.05387,-0.124525 0.08905,-0.248855 0.113632,-0.362488 -0.04377,0.03239 -0.08674,0.06365 -0.129222,0.09365 -0.06207,0.05236 -0.123827,0.100539 -0.185489,0.143109 -0.06826,0.05115 -0.129624,0.09212 -0.18459,0.124926 -0.132422,0.389172 -0.13552,0.505204 -0.02779,0.529387 0.05117,0.01129 0.249851,-0.149912 0.413453,-0.528584 l 0,0 z"
     style="fill:#666666"
     id="path20"
     inkscape:connector-curvature="0" />
  <path
     d="m 13.472866,10.590046 c 0.234262,-0.551171 0.78973,-1.7530526 1.431947,-2.4159622 0.831504,0.2574508 1.585355,1.1809938 1.830909,1.5072033 -0.590248,0.01372 -2.244363,0.1249267 -3.262856,0.9087589 z m 3.475229,-0.8007255 c 0.01289,-0.024547 0.01129,-0.05432 -0.0047,-0.07728 -0.03857,-0.056747 -0.960327,-1.3918712 -2.040183,-1.6954846 -0.02609,-0.00747 -0.05426,-1.027e-4 -0.07336,0.01904 -0.883874,0.8839697 -1.586554,2.7138822 -1.615837,2.7914332 -0.01289,0.03295 -4e-4,0.07028 0.02928,0.08941 0.02968,0.01923 0.06866,0.01512 0.09364,-0.0099 0.795226,-0.795228 2.406466,-1.0774592 3.544787,-1.0774592 0.02768,0 0.05307,-0.015307 0.06636,-0.039853 l 0,0 z"
     style="fill:#666666"
     id="path22"
     inkscape:connector-curvature="0" />
  <path
     d="m 17.34206,16.471738 c -0.169899,0.416556 -0.413453,0.710873 -0.544275,0.657813 -0.131122,-0.05348 -0.09994,-0.434541 0.06956,-0.851097 0.169799,-0.416547 0.413354,-0.711275 0.544175,-0.657805 0.131123,0.0532 0.09994,0.43414 -0.06946,0.851089 z m 0.355588,-1.503405 c -0.370478,-0.158499 -1.104041,0.726974 -1.637324,1.976922 -0.533282,1.250061 -0.664803,2.391976 -0.293925,2.550082 0.371279,0.158509 1.104442,-0.726562 1.637724,-1.97652 0.533283,-1.250453 0.664804,-2.392377 0.293525,-2.550484 l 0,0 z"
     style="fill:#666666"
     id="path24"
     inkscape:connector-curvature="0" />
  <path
     d="m 14.656861,6.9675075 c 1.64362,0.3056108 3.314124,2.5096035 3.330915,2.5319848 l 0,-9.33e-5 c 0.02499,0.03304 0.07175,0.039947 0.104937,0.01512 0.03318,-0.02492 0.03987,-0.071867 0.01489,-0.104944 -0.06986,-0.093539 -1.736465,-2.2924355 -3.444846,-2.5939489 -0.01289,-0.0028 -0.02619,-9.334e-4 -0.03868,0.00373 -1.950738,0.7063749 -2.587058,4.4306566 -2.613242,4.5888656 -0.007,0.04079 0.02068,0.07943 0.06166,0.08615 0.04057,0.0065 0.07925,-0.021 0.08585,-0.06179 0.0067,-0.0378 0.644616,-3.7699587 2.498511,-4.4646389 l 0,0 z"
     style="fill:#666666"
     id="path26"
     inkscape:connector-curvature="0" />
  <path
     d="m 18.208344,10.864381 c -1.199285,0.02455 -1.931749,0.596745 -2.318218,0.951832 -0.395064,0.377179 -0.508996,0.614432 -0.484411,0.629627 -0.0114,0.04331 1.251553,-1.490412 2.838108,-1.400467 0.75425,-0.02679 1.465526,0.519092 1.813719,1.058671 0.370879,0.532784 0.507997,0.987607 0.534082,0.978414 0.01959,-0.0047 -0.01789,-0.297426 -0.284931,-0.813111 -0.250651,-0.46592 -0.843697,-1.378179 -2.098349,-1.404966 l 0,0 z"
     style="fill:#666666"
     id="path28"
     inkscape:connector-curvature="0" />
  <path
     d="m 14.246206,22.560107 c -0.845996,-0.498102 -1.522892,-1.37258 -1.62753,-1.782938 -0.01289,-0.04256 -0.02738,-0.07887 -0.04097,-0.108528 0.388369,-0.165107 0.932644,-0.04256 0.942738,-0.09915 0.01879,-0.0065 -0.473118,-0.327703 -1.07316,-0.06907 -0.600042,0.258449 -0.616833,0.933343 -0.574657,0.810815 0.04528,0.01437 0.148311,-0.393559 0.524686,-0.560962 0.03358,0.04181 0.05307,0.128026 0.07536,0.183494 0.241656,0.608132 0.877977,1.283931 1.716577,1.733266 0.820211,0.480611 1.696588,0.742952 1.695789,0.737856 0.01649,-0.03668 -0.82331,-0.309213 -1.638823,-0.844798 l 0,0 z"
     style="fill:#666666"
     id="path30"
     inkscape:connector-curvature="0" />
  <path
     d="m 26.436639,16.445959 c -0.144114,-0.590651 -0.511096,-0.912362 -1.065065,-0.934547 -0.209175,-1.102043 -0.601541,-2.167509 -1.170702,-3.186205 0.584751,0.06375 2.820119,0.354097 3.628637,1.122931 -0.173297,1.666206 -1.093849,2.701889 -1.39287,2.997821 z m -1.74506,4.346106 c 0.509397,-0.962529 1.101243,-2.811024 0.756949,-3.317022 -0.05467,-0.08073 -0.160505,-0.168998 -0.352489,-0.132318 -0.444336,0.08549 -0.97482,0.766743 -1.536585,1.487808 -0.309215,0.396966 -0.623529,0.799923 -0.928746,1.114139 -0.0039,0.0037 -0.0071,0.0065 -0.01059,0.01017 -0.108136,0.105336 -0.202979,0.190082 -0.288128,0.261538 -0.05387,0.03752 -0.105737,0.07336 -0.15141,0.103843 -0.08005,0.05469 -0.130423,0.08932 -0.163603,0.114735 -0.06446,0.03295 -0.127624,0.05796 -0.189687,0.07364 -0.265141,0.06636 -0.453729,0.0476 -0.577455,-0.05749 -0.356388,-0.303521 -0.266641,-1.376677 -0.142515,-2.862096 0.142915,-1.709578 -0.420449,-3.758656 -1.383876,-4.706587 -0.409155,-0.402566 -0.979516,-0.628825 -1.521392,-0.597651 -1.450336,0.08335 -2.195992,0.901171 -2.849502,1.84311 -0.82131,1.184288 -1.126628,2.482415 -1.177398,3.354896 -0.05857,1.001 0.02889,1.650619 0.138218,2.119834 -0.735862,-0.881468 -1.368684,-1.283931 -1.982818,-1.31951 -0.623029,-0.03631 -1.226969,0.315009 -1.566667,0.816714 -0.35019,0.516889 -0.505498,1.179799 -0.366981,2.14732 0.08984,0.626622 0.427146,2.058169 1.669405,3.04278 -2.0952506,-0.743353 -6.044097,-1.516294 -9.5958798,0.137023 0.1069364,-1.421458 2.0729644,-4.351911 5.1961026,-6.78486 0.01839,-0.01409 0.028883,-0.03584 0.028883,-0.05936 0,-0.02296 -0.010493,-0.04489 -0.028883,-0.05899 C 7.6364456,17.500309 4.6156465,15.189225 0.17529337,15.46916 1.3491936,12.721603 5.5217064,10.062685 10.345831,10.495126 c 0.02418,0.0019 0.04797,-0.0075 0.06356,-0.02595 0.01569,-0.01848 0.02149,-0.04349 0.01569,-0.06701 C 9.8191412,8.0105918 7.2835524,5.0781414 5.3425095,3.944617 7.987033,3.1457954 13.426391,3.9539503 18.181756,6.7368527 c 1.846599,1.0808563 3.380785,2.3415008 4.560182,3.7465693 1.308619,1.559862 2.144022,3.263952 2.484419,5.065473 -0.0097,7e-4 -0.01829,9.33e-4 -0.03008,0.0037 -0.503201,0.03397 -1.503004,0.925251 -1.445939,0.970527 0.0058,-0.0065 1.122731,-0.840103 1.487014,-0.869382 0.0089,-0.0028 0.01679,-0.0075 0.02458,-0.01176 0.01329,0.01101 0.02998,0.01717 0.04797,0.01717 0.525087,0 0.856889,0.283425 0.986511,0.842492 0.292826,1.264051 -0.589848,3.528001 -1.604843,4.290647 z m -2.714381,-0.164006 c 0.05496,-0.03276 0.11633,-0.07373 0.18459,-0.124926 0.06166,-0.04256 0.123426,-0.09072 0.185489,-0.143109 0.04248,-0.02996 0.08545,-0.06123 0.129222,-0.09365 -0.02458,0.113633 -0.05976,0.237963 -0.113632,0.362488 -0.163602,0.378672 -0.362284,0.539877 -0.413453,0.528584 -0.107736,-0.02417 -0.104638,-0.140215 0.02778,-0.529387 z m 2.436347,0.346295 c 0,0 4e-4,4.01e-4 0,4.01e-4 0,4.02e-4 0,4.02e-4 -3e-4,4.02e-4 -0.0071,0.01167 -0.359186,0.583949 -0.78823,1.23396 -0.211974,-0.04881 -0.443136,-0.07607 -0.685591,-0.07607 -0.567962,0 -1.075059,0.146711 -1.412358,0.377067 -0.258047,-0.242853 -0.869482,-0.6629 -1.922755,-0.537572 -2.091653,0.249051 -3.765255,-0.455933 -5.116049,-2.154722 -0.02068,-0.175289 -0.282232,-0.834699 -0.163203,-2.335005 0.05776,-0.726871 0.376375,-2.106142 1.160208,-3.238565 0.625427,-0.904363 1.361688,-1.664909 2.687898,-1.745166 0.550072,-0.03332 1.032185,0.138516 1.40856,0.508396 0.935343,0.920351 1.515897,2.89857 1.37608,4.569079 -0.144813,1.731763 -0.201779,2.651116 0.195183,2.988619 0.110135,0.09374 0.253049,0.13622 0.431044,0.130424 -0.117131,0.290024 -0.204978,0.79632 -0.179993,1.184391 0.01519,0.235862 0.163602,0.345091 0.341597,0.308821 0.579354,-0.118636 1.561569,-1.991613 1.652515,-2.90627 3.99e-4,-0.0019 7.98e-4,-0.0028 7.98e-4,-0.0047 0.09334,-0.117525 0.18619,-0.236553 0.278735,-0.355684 0.51999,-0.667502 1.057569,-1.357693 1.446438,-1.432649 0.121827,-0.02352 0.172896,0.02847 0.200679,0.06944 0.316212,0.46453 -0.365081,2.554684 -0.911256,3.414966 z m -1.42525,2.1885 c -0.401361,0 -0.726567,-0.135819 -0.726567,-0.303325 0,-0.167897 0.325206,-0.303716 0.726567,-0.303716 0.400861,0 0.726067,0.135819 0.726067,0.303716 0,0.167506 -0.325206,0.303325 -0.726067,0.303325 z m -5.876997,2.66561 c -1.850498,-0.115929 -3.432754,-0.819411 -4.0269,-1.116538 -0.105836,-0.05311 -0.229163,-0.109629 -0.366181,-0.168597 -1.663109,-0.918653 -2.073764,-2.625039 -2.172905,-3.317628 -0.132022,-0.923049 0.02108,-1.55037 0.36968,-2.053969 0.240456,-0.346696 0.836601,-0.754255 1.399166,-0.721868 0.724968,0.04181 1.269543,0.466517 2.043681,1.444838 1.387873,1.75505 3.109847,2.483517 5.264462,2.226971 0.961526,-0.114735 1.533886,0.260839 1.782138,0.482907 -0.190887,0.165209 -0.30252,0.362292 -0.30252,0.574663 0,0.416948 0.429444,0.776132 1.049775,0.944039 -1.359391,1.254652 -3.053281,1.829306 -5.040396,1.705182 z m 10.88841,-12.397415 c 0.002,-0.02231 -0.0058,-0.04433 -0.02149,-0.0602 -0.895866,-0.895767 -3.498615,-1.167899 -3.852004,-1.200985 -0.354089,-0.610429 -0.77134,-1.203982 -1.253153,-1.77774 C 21.683174,8.9737735 20.135697,7.702125 18.273907,6.6125793 13.892518,4.048105 8.1268553,2.8384299 5.1477312,3.858517 c -0.028083,0.00971 -0.047972,0.035093 -0.05037,0.06468 -0.0023,0.029587 0.012892,0.05796 0.039077,0.072147 1.9038651,1.0354777 4.4738336,3.9487387 5.1320412,6.3480133 -2.2271728,-0.178696 -4.5157086,0.287326 -6.4558521,1.319509 -1.8294094,0.973225 -3.21728215,2.382279 -3.80713054,3.865299 -0.00979416,0.02417 -0.006296241,0.05105 0.00899464,0.07215 0.01559072,0.02072 0.04017606,0.03211 0.06596068,0.03052 4.05738132,-0.29862 6.93606542,1.605241 7.43306922,1.95973 -3.2023911,2.518498 -5.1813115,5.564881 -5.1813115,6.960149 0,0.02576 0.012892,0.04956 0.034779,0.06365 0.021887,0.01363 0.049171,0.01521 0.072556,0.0037 3.9378527,-1.894975 8.4063883,-0.717575 10.2279033,0.0644 0.0031,0.0019 0.0063,0.0037 0.0094,0.0047 0.0039,0.0019 0.0086,0.0028 0.01289,0.0047 0.128423,0.05544 0.243954,0.108939 0.343895,0.15891 0.602741,0.301317 2.206884,1.01459 4.084666,1.132124 2.065967,0.12922 3.821621,-0.482515 5.224285,-1.813719 0.192085,0.03901 0.397763,0.06123 0.613234,0.06123 1.015095,0 1.837605,-0.468525 1.837605,-1.046277 0,-0.405655 -0.405558,-0.756149 -0.997805,-0.929945 0.376676,-0.572265 0.68749,-1.074361 0.751452,-1.178596 1.135723,-0.578956 2.171406,-2.990223 1.941043,-4.450648 0.204178,-0.188188 1.328508,-1.302327 1.511599,-3.194101 l 0,0 z"
     style="fill:#666666"
     id="path32"
     inkscape:connector-curvature="0" />
</svg>
