<?xml version="1.0" encoding="utf-8"?>
<!-- Generator: Adobe Illustrator 19.0.0, SVG Export Plug-In . SVG Version: 6.00 Build 0)  -->
<svg version="1.1" baseProfile="tiny"
	 id="svg3004" xmlns:rdf="http://www.w3.org/1999/02/22-rdf-syntax-ns#" xmlns:dc="http://purl.org/dc/elements/1.1/" xmlns:inkscape="http://www.inkscape.org/namespaces/inkscape" xmlns:sodipodi="http://sodipodi.sourceforge.net/DTD/sodipodi-0.dtd" xmlns:cc="http://creativecommons.org/ns#" xmlns:svg="http://www.w3.org/2000/svg" sodipodi:docname="icon_filled.svg" inkscape:version="0.91 r13725"
	 xmlns="http://www.w3.org/2000/svg" xmlns:xlink="http://www.w3.org/1999/xlink" x="0px" y="0px" viewBox="-290 382 30 30"
	 xml:space="preserve">
<sodipodi:namedview  inkscape:cy="14.770215" inkscape:cx="27.076271" inkscape:zoom="11.8" bordercolor="#666666" objecttolerance="10" borderopacity="1" pagecolor="#ffffff" guidetolerance="10" gridtolerance="10" showgrid="false" id="namedview150" inkscape:current-layer="svg3004" inkscape:window-maximized="1" inkscape:window-y="-8" inkscape:pageopacity="0" inkscape:window-x="-8" inkscape:window-height="1027" inkscape:window-width="1920" inkscape:pageshadow="2">
	</sodipodi:namedview>
<g>
	<g>
		<path fill="#9DFF48" d="M-269.4,386.7h2.6v2.6h-2.6V386.7z"/>
		<path fill="#9DFF48" d="M-263.2,397h-1.1h0h0v-2.6h-1.6h-0.9v-2.6h-2.6v-2.6h-2.6v2.6h-2.6h-2.6h-2.5v-2.6h-2.6v2.6h-0.1h-2.5v2.6
			h0h-2.6v2.5l-2.6,0.1v2.6h0v1.2v1.3v2.6h2.6v-2.6v-1.3v-1.2h2.6h0v2.6v2.6h2.6v-2.6h2.6h7.7h2.6v2.6h2.6v-2.6v-2.6h0h2.6v1.2v1.3
			v2.6h2.6v-2.6v-1.3v-1.2V397H-263.2z"/>
		<path fill="#9DFF48" d="M-274.6,404.7v2.6h2.6h2.6v-2.6h-2.6H-274.6z"/>
		<path fill="#9DFF48" d="M-284.8,386.7h2.6v2.6h-2.6V386.7z"/>
		<path fill="#9DFF48" d="M-279.7,404.7h-2.6v2.6h2.6h2.6v-2.6H-279.7"/>
	</g>
	<g>
		<path fill="#24396D" d="M-272,394.4h2.6v2.6h-2.6V394.4z"/>
		<path fill="#24396D" d="M-282.3,394.4h2.6v2.6h-2.6V394.4z"/>
	</g>
</g>
</svg>
