<svg xmlns="http://www.w3.org/2000/svg" width="618.70898" height="302.94757">
  <path fill="#cfd0cf" fill-rule="evenodd" d="M9.9 146.10001h-8c-1.7 0-1.9-.2-1.9-2.9V2.7C0 .6.3 0 2.7 0h416.4c4.9 0 5.1.4 5.1 5.1v29c0 .6 0 .7-.7.7h-3c-.7 0-.8.2-.8.7v97.50001h6.7c.9 0 1 .3 1 .6v11.3c0 1-.1 1.2-1.5 1.2H9.9z"/>
  <path fill="none" stroke="#9b9a9a" stroke-width="2" stroke-miterlimit="10" d="M5.8 146.10001V70.4c0-2.2 0-3.7 3.7-3.7h410.3"/>
  <path fill="#cfd0cf" fill-rule="evenodd" d="M12.7 301.70001c-5.7 0-6.9-4.5-6.9-8.6V70.5c0-2.2 0-3.7 3.7-3.7h411c3.7 0 3.7 1.4 3.7 3.7v222.60001c0 4.1-1.1 8.6-6.9 8.6H12.7z"/>
  <path fill="#0c0c0d" fill-rule="evenodd" d="M216.4 104.7H368c.4 0 .6.3.6.6v23.4c0 .4-.3.6-.6.6H216.4c-.4 0-.6-.3-.6-.6v-23.4c0-.3.2-.6.6-.6zm166.3 0H413c.4 0 .6.3.6.6v23.4c0 .4-.3.6-.6.6h-30.3c-.4 0-.6-.3-.6-.6v-23.4c-.1-.3.2-.6.6-.6zm-327.9 0H206c.4 0 .6.3.6.6v23.4c0 .4-.3.6-.6.6H54.8c-.4 0-.6-.3-.6-.6v-23.4c0-.3.2-.6.6-.6zm-37.1 0h22.9c.4 0 .6.3.6.6v23.4c0 .4-.3.6-.6.6H17.7c-.4 0-.6-.3-.6-.6v-23.4c-.1-.3.2-.6.6-.6zM414.2 240v24.3c0 .4-.3.6-.6.6H36.3c-.4 0-.6-.3-.6-.6v-21.1s.8-2.8-2.1-2.8H17.3c-.4 0-.6-.3-.6-.6v-96.3c0-.4.3-.6.6-.6H413c.4 0 .6.3.6.6v23.4c0 1.2-.7 1.5-2.6 1.5h-19c-1.5 0-1.9.7-1.9 1.5v68.6c0 .4.1.6.6.6h22.1c1.2-.1 1.4.4 1.4.9z"/>
  <path fill="#777878" fill-rule="evenodd" d="M7.7 8.6h408.9c.2 0 .3.1.3.3v3.3c0 .2-.1.3-.3.3H7.7c-.2 0-.3-.1-.3-.3V8.9c0-.1.1-.3.3-.3zm0 7.5h408.9c.2 0 .3.1.3.3v3.3c0 .2-.1.3-.3.3H7.7c-.2 0-.3-.1-.3-.3v-3.3c0-.2.1-.3.3-.3zm0 7.5h408.9c.2 0 .3.1.3.3v3.3c0 .2-.1.3-.3.3H7.7c-.2 0-.3-.1-.3-.3v-3.3c0-.2.1-.3.3-.3zm0 7.5h408.9c.2 0 .3.1.3.3v3.3c0 .2-.1.3-.3.3H7.7c-.2 0-.3-.1-.3-.3v-3.3c0-.2.1-.3.3-.3zm0 7.5h408.9c.2 0 .3.1.3.3v3.3c0 .2-.1.3-.3.3H7.7c-.2 0-.3-.1-.3-.3v-3.3c0-.2.1-.3.3-.3zm0 7.5h408.9c.2 0 .3.1.3.3v3.3c0 .2-.1.3-.3.3H7.7c-.2 0-.3-.1-.3-.3v-3.3c0-.2.1-.3.3-.3zm0 7.5h408.9c.2 0 .3.1.3.3v3.3c0 .2-.1.3-.3.3H7.7c-.2 0-.3-.1-.3-.3v-3.3c0-.2.1-.3.3-.3z"/>
  <g fill-rule="evenodd">
    <path fill="#9b9a9a" d="M243.8 192.2h19.4c.8 0 1.4.6 1.4 1.4v19.8c0 .8-.6 1.4-1.4 1.4h-19.4c-.8 0-1.4-.6-1.4-1.4v-19.8c-.1-.7.6-1.4 1.4-1.4z"/>
    <path fill="#cfd0cf" d="M246.7 194.4h13.5c.8 0 1.4.6 1.4 1.4v13.5c0 .8-.6 1.4-1.4 1.4h-13.5c-.8 0-1.4-.6-1.4-1.4v-13.5c0-.7.7-1.4 1.4-1.4z"/>
    <path fill="#9b9a9a" d="M267.7 192.2h19.4c.8 0 1.4.6 1.4 1.4v19.8c0 .8-.6 1.4-1.4 1.4h-19.4c-.8 0-1.4-.6-1.4-1.4v-19.8c0-.7.6-1.4 1.4-1.4z"/>
    <path fill="#cfd0cf" d="M270.7 194.4h13.5c.8 0 1.4.6 1.4 1.4v13.5c0 .8-.6 1.4-1.4 1.4h-13.5c-.8 0-1.4-.6-1.4-1.4v-13.5c-.1-.7.6-1.4 1.4-1.4z"/>
    <path fill="#9b9a9a" d="M291.6 192.2H311c.8 0 1.4.6 1.4 1.4v19.8c0 .8-.6 1.4-1.4 1.4h-19.4c-.8 0-1.4-.6-1.4-1.4v-19.8c0-.7.6-1.4 1.4-1.4z"/>
    <path fill="#cfd0cf" d="M294.6 194.4h13.5c.8 0 1.4.6 1.4 1.4v13.5c0 .8-.6 1.4-1.4 1.4h-13.5c-.8 0-1.4-.6-1.4-1.4v-13.5c-.1-.7.6-1.4 1.4-1.4z"/>
    <path fill="#9b9a9a" d="M315.5 192.2h19.4c.8 0 1.4.6 1.4 1.4v19.8c0 .8-.6 1.4-1.4 1.4h-19.4c-.8 0-1.4-.6-1.4-1.4v-19.8c0-.7.6-1.4 1.4-1.4z"/>
    <path fill="#cfd0cf" d="M318.5 194.4H332c.8 0 1.4.6 1.4 1.4v13.5c0 .8-.6 1.4-1.4 1.4h-13.5c-.8 0-1.4-.6-1.4-1.4v-13.5c-.1-.7.6-1.4 1.4-1.4z"/>
    <path fill="#9b9a9a" d="M339.4 192.2h19.4c.8 0 1.4.6 1.4 1.4v19.8c0 .8-.6 1.4-1.4 1.4h-19.4c-.8 0-1.4-.6-1.4-1.4v-19.8c0-.7.6-1.4 1.4-1.4z"/>
    <path fill="#cfd0cf" d="M342.4 194.4h13.5c.8 0 1.4.6 1.4 1.4v13.5c0 .8-.6 1.4-1.4 1.4h-13.5c-.8 0-1.4-.6-1.4-1.4v-13.5c0-.7.6-1.4 1.4-1.4z"/>
    <path fill="#9b9a9a" d="M219.9 192.2h19.4c.8 0 1.4.6 1.4 1.4v19.8c0 .8-.6 1.4-1.4 1.4h-19.4c-.8 0-1.4-.6-1.4-1.4v-19.8c-.1-.7.6-1.4 1.4-1.4z"/>
    <path fill="#cfd0cf" d="M222.8 194.4h13.5c.8 0 1.4.6 1.4 1.4v13.5c0 .8-.6 1.4-1.4 1.4h-13.5c-.8 0-1.4-.6-1.4-1.4v-13.5c0-.7.6-1.4 1.4-1.4z"/>
    <path fill="#9b9a9a" d="M196 192.2h19.4c.8 0 1.4.6 1.4 1.4v19.8c0 .8-.6 1.4-1.4 1.4H196c-.8 0-1.4-.6-1.4-1.4v-19.8c-.1-.7.6-1.4 1.4-1.4z"/>
    <path fill="#cfd0cf" d="M198.9 194.4h13.5c.8 0 1.4.6 1.4 1.4v13.5c0 .8-.6 1.4-1.4 1.4h-13.5c-.8 0-1.4-.6-1.4-1.4v-13.5c0-.7.6-1.4 1.4-1.4z"/>
    <path fill="#9b9a9a" d="M172.1 192.2h19.4c.8 0 1.4.6 1.4 1.4v19.8c0 .8-.6 1.4-1.4 1.4h-19.4c-.8 0-1.4-.6-1.4-1.4v-19.8c-.1-.7.6-1.4 1.4-1.4z"/>
    <path fill="#cfd0cf" d="M175 194.4h13.5c.8 0 1.4.6 1.4 1.4v13.5c0 .8-.6 1.4-1.4 1.4H175c-.8 0-1.4-.6-1.4-1.4v-13.5c0-.7.6-1.4 1.4-1.4z"/>
    <path fill="#9b9a9a" d="M148.1 192.2h19.4c.8 0 1.4.6 1.4 1.4v19.8c0 .8-.6 1.4-1.4 1.4h-19.4c-.8 0-1.4-.6-1.4-1.4v-19.8c0-.7.7-1.4 1.4-1.4z"/>
    <path fill="#cfd0cf" d="M151.1 194.4h13.5c.8 0 1.4.6 1.4 1.4v13.5c0 .8-.6 1.4-1.4 1.4h-13.5c-.8 0-1.4-.6-1.4-1.4v-13.5c0-.7.6-1.4 1.4-1.4z"/>
    <path fill="#9b9a9a" d="M124.2 192.2h19.4c.8 0 1.4.6 1.4 1.4v19.8c0 .8-.6 1.4-1.4 1.4h-19.4c-.8 0-1.4-.6-1.4-1.4v-19.8c0-.7.6-1.4 1.4-1.4z"/>
    <path fill="#cfd0cf" d="M127.2 194.4h13.5c.8 0 1.4.6 1.4 1.4v13.5c0 .8-.6 1.4-1.4 1.4h-13.5c-.8 0-1.4-.6-1.4-1.4v-13.5c0-.7.6-1.4 1.4-1.4z"/>
    <path fill="#9b9a9a" d="M100.3 192.2h19.4c.8 0 1.4.6 1.4 1.4v19.8c0 .8-.6 1.4-1.4 1.4h-19.4c-.8 0-1.4-.6-1.4-1.4v-19.8c0-.7.6-1.4 1.4-1.4z"/>
    <path fill="#cfd0cf" d="M103.3 194.4h13.5c.8 0 1.4.6 1.4 1.4v13.5c0 .8-.6 1.4-1.4 1.4h-13.5c-.8 0-1.4-.6-1.4-1.4v-13.5c0-.7.6-1.4 1.4-1.4z"/>
    <path fill="#9b9a9a" d="M76.4 192.2h19.4c.8 0 1.4.6 1.4 1.4v19.8c0 .8-.6 1.4-1.4 1.4H76.4c-.8 0-1.4-.6-1.4-1.4v-19.8c0-.7.6-1.4 1.4-1.4z"/>
    <path fill="#cfd0cf" d="M79.4 194.4h13.5c.8 0 1.4.6 1.4 1.4v13.5c0 .8-.6 1.4-1.4 1.4H79.4c-.8 0-1.4-.6-1.4-1.4v-13.5c-.1-.7.6-1.4 1.4-1.4z"/>
    <path fill="#9b9a9a" d="M231.8 216.3h19.4c.8 0 1.4.6 1.4 1.4v19.8c0 .8-.6 1.4-1.4 1.4h-19.4c-.8 0-1.4-.6-1.4-1.4v-19.8c0-.8.7-1.4 1.4-1.4z"/>
    <path fill="#cfd0cf" d="M234.8 218.5h13.5c.8 0 1.4.6 1.4 1.4v13.5c0 .8-.6 1.4-1.4 1.4h-13.5c-.8 0-1.4-.6-1.4-1.4v-13.5c0-.8.6-1.4 1.4-1.4z"/>
    <path fill="#9b9a9a" d="M255.8 216.3h19.4c.8 0 1.4.6 1.4 1.4v19.8c0 .8-.6 1.4-1.4 1.4h-19.4c-.8 0-1.4-.6-1.4-1.4v-19.8c-.1-.8.6-1.4 1.4-1.4z"/>
    <path fill="#cfd0cf" d="M258.7 218.5h13.5c.8 0 1.4.6 1.4 1.4v13.5c0 .8-.6 1.4-1.4 1.4h-13.5c-.8 0-1.4-.6-1.4-1.4v-13.5c0-.8.6-1.4 1.4-1.4z"/>
    <path fill="#9b9a9a" d="M279.7 216.3h19.4c.8 0 1.4.6 1.4 1.4v19.8c0 .8-.6 1.4-1.4 1.4h-19.4c-.8 0-1.4-.6-1.4-1.4v-19.8c-.1-.8.6-1.4 1.4-1.4z"/>
    <path fill="#cfd0cf" d="M282.6 218.5h13.5c.8 0 1.4.6 1.4 1.4v13.5c0 .8-.6 1.4-1.4 1.4h-13.5c-.8 0-1.4-.6-1.4-1.4v-13.5c0-.8.6-1.4 1.4-1.4z"/>
    <path fill="#9b9a9a" d="M303.6 216.3H323c.8 0 1.4.6 1.4 1.4v19.8c0 .8-.6 1.4-1.4 1.4h-19.4c-.8 0-1.4-.6-1.4-1.4v-19.8c-.1-.8.6-1.4 1.4-1.4z"/>
    <path fill="#cfd0cf" d="M306.5 218.5H320c.8 0 1.4.6 1.4 1.4v13.5c0 .8-.6 1.4-1.4 1.4h-13.5c-.8 0-1.4-.6-1.4-1.4v-13.5c0-.8.6-1.4 1.4-1.4z"/>
    <path fill="#9b9a9a" d="M320.3 240.3h19.4c.8 0 1.4.6 1.4 1.4v19.8c0 .8-.6 1.4-1.4 1.4h-19.4c-.8 0-1.4-.6-1.4-1.4v-19.8c-.1-.7.6-1.4 1.4-1.4z"/>
    <path fill="#cfd0cf" d="M323.2 242.5h13.5c.8 0 1.4.6 1.4 1.4v13.5c0 .8-.6 1.4-1.4 1.4h-13.5c-.8 0-1.4-.6-1.4-1.4V244c0-.8.6-1.5 1.4-1.5z"/>
    <path fill="#9b9a9a" d="M344.2 240.3h19.4c.8 0 1.4.6 1.4 1.4v19.8c0 .8-.6 1.4-1.4 1.4h-19.4c-.8 0-1.4-.6-1.4-1.4v-19.8c-.1-.7.6-1.4 1.4-1.4z"/>
    <path fill="#cfd0cf" d="M347.1 242.5h13.5c.8 0 1.4.6 1.4 1.4v13.5c0 .8-.6 1.4-1.4 1.4h-13.5c-.8 0-1.4-.6-1.4-1.4V244c0-.8.7-1.5 1.4-1.5z"/>
    <path fill="#9b9a9a" d="M368.1 240.3h19.4c.8 0 1.4.6 1.4 1.4v19.8c0 .8-.6 1.4-1.4 1.4h-19.4c-.8 0-1.4-.6-1.4-1.4v-19.8c0-.7.6-1.4 1.4-1.4z"/>
    <path fill="#cfd0cf" d="M371.1 242.5h13.5c.8 0 1.4.6 1.4 1.4v13.5c0 .8-.6 1.4-1.4 1.4h-13.5c-.8 0-1.4-.6-1.4-1.4V244c-.1-.8.6-1.5 1.4-1.5z"/>
    <path fill="#9b9a9a" d="M392 240.3h19.4c.8 0 1.4.6 1.4 1.4v19.8c0 .8-.6 1.4-1.4 1.4H392c-.8 0-1.4-.6-1.4-1.4v-19.8c0-.7.6-1.4 1.4-1.4z"/>
    <path fill="#cfd0cf" d="M395 242.5h13.5c.8 0 1.4.6 1.4 1.4v13.5c0 .8-.6 1.4-1.4 1.4H395c-.8 0-1.4-.6-1.4-1.4V244c-.1-.8.6-1.5 1.4-1.5z"/>
    <path fill="#9b9a9a" d="M368 216.3h19.4c.8 0 1.4.6 1.4 1.4v19.8c0 .8-.6 1.4-1.4 1.4H368c-.8 0-1.4-.6-1.4-1.4v-19.8c-.1-.8.6-1.4 1.4-1.4z"/>
    <path fill="#cfd0cf" d="M370.9 218.5h13.5c.8 0 1.4.6 1.4 1.4v13.5c0 .8-.6 1.4-1.4 1.4h-13.5c-.8 0-1.4-.6-1.4-1.4v-13.5c0-.8.7-1.4 1.4-1.4z"/>
    <path fill="#9b9a9a" d="M207.9 216.3h19.4c.8 0 1.4.6 1.4 1.4v19.8c0 .8-.6 1.4-1.4 1.4h-19.4c-.8 0-1.4-.6-1.4-1.4v-19.8c0-.8.6-1.4 1.4-1.4z"/>
    <path fill="#cfd0cf" d="M210.9 218.5h13.5c.8 0 1.4.6 1.4 1.4v13.5c0 .8-.6 1.4-1.4 1.4h-13.5c-.8 0-1.4-.6-1.4-1.4v-13.5c0-.8.6-1.4 1.4-1.4z"/>
    <path fill="#9b9a9a" d="M184 216.3h19.4c.8 0 1.4.6 1.4 1.4v19.8c0 .8-.6 1.4-1.4 1.4H184c-.8 0-1.4-.6-1.4-1.4v-19.8c0-.8.6-1.4 1.4-1.4z"/>
    <path fill="#cfd0cf" d="M187 218.5h13.5c.8 0 1.4.6 1.4 1.4v13.5c0 .8-.6 1.4-1.4 1.4H187c-.8 0-1.4-.6-1.4-1.4v-13.5c0-.8.6-1.4 1.4-1.4z"/>
    <path fill="#9b9a9a" d="M160.1 216.3h19.4c.8 0 1.4.6 1.4 1.4v19.8c0 .8-.6 1.4-1.4 1.4h-19.4c-.8 0-1.4-.6-1.4-1.4v-19.8c0-.8.6-1.4 1.4-1.4z"/>
    <path fill="#cfd0cf" d="M163.1 218.5h13.5c.8 0 1.4.6 1.4 1.4v13.5c0 .8-.6 1.4-1.4 1.4h-13.5c-.8 0-1.4-.6-1.4-1.4v-13.5c-.1-.8.6-1.4 1.4-1.4z"/>
    <path fill="#9b9a9a" d="M136.2 216.3h19.4c.8 0 1.4.6 1.4 1.4v19.8c0 .8-.6 1.4-1.4 1.4h-19.4c-.8 0-1.4-.6-1.4-1.4v-19.8c0-.8.6-1.4 1.4-1.4z"/>
    <path fill="#cfd0cf" d="M139.2 218.5h13.5c.8 0 1.4.6 1.4 1.4v13.5c0 .8-.6 1.4-1.4 1.4h-13.5c-.8 0-1.4-.6-1.4-1.4v-13.5c-.1-.8.6-1.4 1.4-1.4z"/>
    <path fill="#9b9a9a" d="M112.3 216.3h19.4c.8 0 1.4.6 1.4 1.4v19.8c0 .8-.6 1.4-1.4 1.4h-19.4c-.8 0-1.4-.6-1.4-1.4v-19.8c0-.8.6-1.4 1.4-1.4z"/>
    <path fill="#cfd0cf" d="M115.3 218.5h13.5c.8 0 1.4.6 1.4 1.4v13.5c0 .8-.6 1.4-1.4 1.4h-13.5c-.8 0-1.4-.6-1.4-1.4v-13.5c-.1-.8.6-1.4 1.4-1.4z"/>
    <path fill="#9b9a9a" d="M88.4 216.3h19.4c.8 0 1.4.6 1.4 1.4v19.8c0 .8-.6 1.4-1.4 1.4H88.4c-.8 0-1.4-.6-1.4-1.4v-19.8c0-.8.6-1.4 1.4-1.4z"/>
    <path fill="#cfd0cf" d="M91.4 218.5h13.5c.8 0 1.4.6 1.4 1.4v13.5c0 .8-.6 1.4-1.4 1.4H91.4c-.8 0-1.4-.6-1.4-1.4v-13.5c-.1-.8.6-1.4 1.4-1.4z"/>
    <path fill="#9b9a9a" d="M64.5 216.3h19.4c.8 0 1.4.6 1.4 1.4v19.8c0 .8-.6 1.4-1.4 1.4H64.5c-.8 0-1.4-.6-1.4-1.4v-19.8c-.1-.8.6-1.4 1.4-1.4z"/>
    <path fill="#cfd0cf" d="M67.4 218.5H81c.8 0 1.4.6 1.4 1.4v13.5c0 .8-.6 1.4-1.4 1.4H67.4c-.8 0-1.4-.6-1.4-1.4v-13.5c0-.8.6-1.4 1.4-1.4z"/>
    <path fill="#9b9a9a" d="M100.3 240.3h185.5c.8 0 1.4.6 1.4 1.4v19.8c0 .8-.6 1.4-1.4 1.4H100.3c-.8 0-1.4-.6-1.4-1.4v-19.8c0-.7.6-1.4 1.4-1.4z"/>
    <path fill="#cfd0cf" d="M103.3 242.5h179.6c.8 0 1.4.6 1.4 1.4v13.5c0 .8-.6 1.4-1.4 1.4H103.3c-.8 0-1.4-.6-1.4-1.4V244c0-.8.6-1.5 1.4-1.5z"/>
    <path fill="#9b9a9a" d="M237 168.2h19.4c.8 0 1.4.6 1.4 1.4v19.8c0 .8-.6 1.4-1.4 1.4H237c-.8 0-1.4-.6-1.4-1.4v-19.8c0-.8.6-1.4 1.4-1.4z"/>
    <path fill="#cfd0cf" d="M240 170.4h13.5c.8 0 1.4.6 1.4 1.4v13.5c0 .8-.6 1.4-1.4 1.4H240c-.8 0-1.4-.6-1.4-1.4v-13.5c0-.8.6-1.4 1.4-1.4z"/>
    <path fill="#9b9a9a" d="M260.9 168.2h19.4c.8 0 1.4.6 1.4 1.4v19.8c0 .8-.6 1.4-1.4 1.4h-19.4c-.8 0-1.4-.6-1.4-1.4v-19.8c0-.8.6-1.4 1.4-1.4z"/>
    <path fill="#cfd0cf" d="M263.9 170.4h13.5c.8 0 1.4.6 1.4 1.4v13.5c0 .8-.6 1.4-1.4 1.4h-13.5c-.8 0-1.4-.6-1.4-1.4v-13.5c0-.8.6-1.4 1.4-1.4z"/>
    <path fill="#9b9a9a" d="M284.9 168.2h19.4c.8 0 1.4.6 1.4 1.4v19.8c0 .8-.6 1.4-1.4 1.4h-19.4c-.8 0-1.4-.6-1.4-1.4v-19.8c-.1-.8.6-1.4 1.4-1.4z"/>
    <path fill="#cfd0cf" d="M287.8 170.4h13.5c.8 0 1.4.6 1.4 1.4v13.5c0 .8-.6 1.4-1.4 1.4h-13.5c-.8 0-1.4-.6-1.4-1.4v-13.5c0-.8.6-1.4 1.4-1.4z"/>
    <path fill="#9b9a9a" d="M308.8 168.2h19.4c.8 0 1.4.6 1.4 1.4v19.8c0 .8-.6 1.4-1.4 1.4h-19.4c-.8 0-1.4-.6-1.4-1.4v-19.8c-.1-.8.6-1.4 1.4-1.4z"/>
    <path fill="#cfd0cf" d="M311.7 170.4h13.5c.8 0 1.4.6 1.4 1.4v13.5c0 .8-.6 1.4-1.4 1.4h-13.5c-.8 0-1.4-.6-1.4-1.4v-13.5c0-.8.6-1.4 1.4-1.4z"/>
    <path fill="#9b9a9a" d="M332.7 168.2h19.4c.8 0 1.4.6 1.4 1.4v19.8c0 .8-.6 1.4-1.4 1.4h-19.4c-.8 0-1.4-.6-1.4-1.4v-19.8c-.1-.8.6-1.4 1.4-1.4z"/>
    <path fill="#cfd0cf" d="M335.6 170.4h13.5c.8 0 1.4.6 1.4 1.4v13.5c0 .8-.6 1.4-1.4 1.4h-13.5c-.8 0-1.4-.6-1.4-1.4v-13.5c0-.8.6-1.4 1.4-1.4z"/>
    <path fill="#9b9a9a" d="M213.1 168.2h19.4c.8 0 1.4.6 1.4 1.4v19.8c0 .8-.6 1.4-1.4 1.4h-19.4c-.8 0-1.4-.6-1.4-1.4v-19.8c0-.8.6-1.4 1.4-1.4z"/>
    <path fill="#cfd0cf" d="M216.1 170.4h13.5c.8 0 1.4.6 1.4 1.4v13.5c0 .8-.6 1.4-1.4 1.4h-13.5c-.8 0-1.4-.6-1.4-1.4v-13.5c0-.8.6-1.4 1.4-1.4z"/>
    <path fill="#9b9a9a" d="M189.6 168.2H209c.8 0 1.4.6 1.4 1.4v19.8c0 .8-.6 1.4-1.4 1.4h-19.4c-.8 0-1.4-.6-1.4-1.4v-19.8c-.1-.8.6-1.4 1.4-1.4z"/>
    <path fill="#cfd0cf" d="M192.5 170.4H206c.8 0 1.4.6 1.4 1.4v13.5c0 .8-.6 1.4-1.4 1.4h-13.5c-.8 0-1.4-.6-1.4-1.4v-13.5c0-.8.6-1.4 1.4-1.4z"/>
    <path fill="#9b9a9a" d="M165.3 168.2h19.4c.8 0 1.4.6 1.4 1.4v19.8c0 .8-.6 1.4-1.4 1.4h-19.4c-.8 0-1.4-.6-1.4-1.4v-19.8c0-.8.6-1.4 1.4-1.4z"/>
    <path fill="#cfd0cf" d="M168.3 170.4h13.5c.8 0 1.4.6 1.4 1.4v13.5c0 .8-.6 1.4-1.4 1.4h-13.5c-.8 0-1.4-.6-1.4-1.4v-13.5c-.1-.8.6-1.4 1.4-1.4z"/>
    <path fill="#9b9a9a" d="M141.4 168.2h19.4c.8 0 1.4.6 1.4 1.4v19.8c0 .8-.6 1.4-1.4 1.4h-19.4c-.8 0-1.4-.6-1.4-1.4v-19.8c0-.8.6-1.4 1.4-1.4z"/>
    <path fill="#cfd0cf" d="M144.4 170.4h13.5c.8 0 1.4.6 1.4 1.4v13.5c0 .8-.6 1.4-1.4 1.4h-13.5c-.8 0-1.4-.6-1.4-1.4v-13.5c-.1-.8.6-1.4 1.4-1.4z"/>
    <path fill="#9b9a9a" d="M117.5 168.2h19.4c.8 0 1.4.6 1.4 1.4v19.8c0 .8-.6 1.4-1.4 1.4h-19.4c-.8 0-1.4-.6-1.4-1.4v-19.8c0-.8.6-1.4 1.4-1.4z"/>
    <path fill="#cfd0cf" d="M120.5 170.4H134c.8 0 1.4.6 1.4 1.4v13.5c0 .8-.6 1.4-1.4 1.4h-13.5c-.8 0-1.4-.6-1.4-1.4v-13.5c-.1-.8.6-1.4 1.4-1.4z"/>
    <path fill="#9b9a9a" d="M93.6 168.2H113c.8 0 1.4.6 1.4 1.4v19.8c0 .8-.6 1.4-1.4 1.4H93.6c-.8 0-1.4-.6-1.4-1.4v-19.8c-.1-.8.6-1.4 1.4-1.4z"/>
    <path fill="#cfd0cf" d="M96.5 170.4H110c.8 0 1.4.6 1.4 1.4v13.5c0 .8-.6 1.4-1.4 1.4H96.5c-.8 0-1.4-.6-1.4-1.4v-13.5c0-.8.6-1.4 1.4-1.4z"/>
    <path fill="#9b9a9a" d="M69.7 168.2h19.4c.8 0 1.4.6 1.4 1.4v19.8c0 .8-.6 1.4-1.4 1.4H69.7c-.8 0-1.4-.6-1.4-1.4v-19.8c-.1-.8.6-1.4 1.4-1.4z"/>
    <path fill="#cfd0cf" d="M72.6 170.4h13.5c.8 0 1.4.6 1.4 1.4v13.5c0 .8-.6 1.4-1.4 1.4H72.6c-.8 0-1.4-.6-1.4-1.4v-13.5c0-.8.6-1.4 1.4-1.4z"/>
    <path fill="#9b9a9a" d="M224.6 144.2H244c.8 0 1.4.6 1.4 1.4v19.8c0 .8-.6 1.4-1.4 1.4h-19.4c-.8 0-1.4-.6-1.4-1.4v-19.8c0-.8.6-1.4 1.4-1.4z"/>
    <path fill="#cfd0cf" d="M227.6 146.4h13.5c.8 0 1.4.6 1.4 1.4v13.5c0 .8-.6 1.4-1.4 1.4h-13.5c-.8 0-1.4-.6-1.4-1.4v-13.5c0-.8.6-1.4 1.4-1.4z"/>
    <path fill="#9b9a9a" d="M248.6 144.2H268c.8 0 1.4.6 1.4 1.4v19.8c0 .8-.6 1.4-1.4 1.4h-19.4c-.8 0-1.4-.6-1.4-1.4v-19.8c-.1-.8.6-1.4 1.4-1.4z"/>
    <path fill="#cfd0cf" d="M251.5 146.4H265c.8 0 1.4.6 1.4 1.4v13.5c0 .8-.6 1.4-1.4 1.4h-13.5c-.8 0-1.4-.6-1.4-1.4v-13.5c0-.8.6-1.4 1.4-1.4z"/>
    <path fill="#9b9a9a" d="M272.5 144.2h19.4c.8 0 1.4.6 1.4 1.4v19.8c0 .8-.6 1.4-1.4 1.4h-19.4c-.8 0-1.4-.6-1.4-1.4v-19.8c-.1-.8.6-1.4 1.4-1.4z"/>
    <path fill="#cfd0cf" d="M275.4 146.4H289c.8 0 1.4.6 1.4 1.4v13.5c0 .8-.6 1.4-1.4 1.4h-13.5c-.8 0-1.4-.6-1.4-1.4v-13.5c-.1-.8.5-1.4 1.3-1.4z"/>
    <path fill="#9b9a9a" d="M296.4 144.2h19.4c.8 0 1.4.6 1.4 1.4v19.8c0 .8-.6 1.4-1.4 1.4h-19.4c-.8 0-1.4-.6-1.4-1.4v-19.8c-.1-.8.6-1.4 1.4-1.4z"/>
    <path fill="#cfd0cf" d="M299.3 146.4h13.5c.8 0 1.4.6 1.4 1.4v13.5c0 .8-.6 1.4-1.4 1.4h-13.5c-.8 0-1.4-.6-1.4-1.4v-13.5c0-.8.6-1.4 1.4-1.4z"/>
    <path fill="#9b9a9a" d="M320.3 144.2h19.4c.8 0 1.4.6 1.4 1.4v19.8c0 .8-.6 1.4-1.4 1.4h-19.4c-.8 0-1.4-.6-1.4-1.4v-19.8c-.1-.8.6-1.4 1.4-1.4z"/>
    <path fill="#cfd0cf" d="M323.2 146.4h13.5c.8 0 1.4.6 1.4 1.4v13.5c0 .8-.6 1.4-1.4 1.4h-13.5c-.8 0-1.4-.6-1.4-1.4v-13.5c0-.8.6-1.4 1.4-1.4z"/>
    <path fill="#9b9a9a" d="M344.2 144.2h19.4c.8 0 1.4.6 1.4 1.4v19.8c0 .8-.6 1.4-1.4 1.4h-19.4c-.8 0-1.4-.6-1.4-1.4v-19.8c-.1-.8.6-1.4 1.4-1.4z"/>
    <path fill="#cfd0cf" d="M347.1 146.4h13.5c.8 0 1.4.6 1.4 1.4v13.5c0 .8-.6 1.4-1.4 1.4h-13.5c-.8 0-1.4-.6-1.4-1.4v-13.5c0-.8.7-1.4 1.4-1.4z"/>
    <path fill="#9b9a9a" d="M200.7 144.2h19.4c.8 0 1.4.6 1.4 1.4v19.8c0 .8-.6 1.4-1.4 1.4h-19.4c-.8 0-1.4-.6-1.4-1.4v-19.8c0-.8.6-1.4 1.4-1.4z"/>
    <path fill="#cfd0cf" d="M203.7 146.4h13.5c.8 0 1.4.6 1.4 1.4v13.5c0 .8-.6 1.4-1.4 1.4h-13.5c-.8 0-1.4-.6-1.4-1.4v-13.5c0-.8.6-1.4 1.4-1.4z"/>
    <path fill="#9b9a9a" d="M176.8 144.2h19.4c.8 0 1.4.6 1.4 1.4v19.8c0 .8-.6 1.4-1.4 1.4h-19.4c-.8 0-1.4-.6-1.4-1.4v-19.8c0-.8.6-1.4 1.4-1.4z"/>
    <path fill="#cfd0cf" d="M179.8 146.4h13.5c.8 0 1.4.6 1.4 1.4v13.5c0 .8-.6 1.4-1.4 1.4h-13.5c-.8 0-1.4-.6-1.4-1.4v-13.5c-.1-.8.6-1.4 1.4-1.4z"/>
    <path fill="#9b9a9a" d="M152.9 144.2h19.4c.8 0 1.4.6 1.4 1.4v19.8c0 .8-.6 1.4-1.4 1.4h-19.4c-.8 0-1.4-.6-1.4-1.4v-19.8c0-.8.6-1.4 1.4-1.4z"/>
    <path fill="#cfd0cf" d="M155.9 146.4h13.5c.8 0 1.4.6 1.4 1.4v13.5c0 .8-.6 1.4-1.4 1.4h-13.5c-.8 0-1.4-.6-1.4-1.4v-13.5c-.1-.8.6-1.4 1.4-1.4z"/>
    <path fill="#9b9a9a" d="M129 144.2h19.4c.8 0 1.4.6 1.4 1.4v19.8c0 .8-.6 1.4-1.4 1.4H129c-.8 0-1.4-.6-1.4-1.4v-19.8c0-.8.6-1.4 1.4-1.4z"/>
    <path fill="#cfd0cf" d="M132 146.4h13.5c.8 0 1.4.6 1.4 1.4v13.5c0 .8-.6 1.4-1.4 1.4H132c-.8 0-1.4-.6-1.4-1.4v-13.5c-.1-.8.6-1.4 1.4-1.4z"/>
    <path fill="#9b9a9a" d="M105.1 144.2h19.4c.8 0 1.4.6 1.4 1.4v19.8c0 .8-.6 1.4-1.4 1.4h-19.4c-.8 0-1.4-.6-1.4-1.4v-19.8c0-.8.6-1.4 1.4-1.4z"/>
    <path fill="#cfd0cf" d="M108.1 146.4h13.5c.8 0 1.4.6 1.4 1.4v13.5c0 .8-.6 1.4-1.4 1.4h-13.5c-.8 0-1.4-.6-1.4-1.4v-13.5c-.1-.8.6-1.4 1.4-1.4z"/>
    <path fill="#9b9a9a" d="M81.2 144.2h19.4c.8 0 1.4.6 1.4 1.4v19.8c0 .8-.6 1.4-1.4 1.4H81.2c-.8 0-1.4-.6-1.4-1.4v-19.8c-.1-.8.6-1.4 1.4-1.4z"/>
    <path fill="#cfd0cf" d="M84.1 146.4h13.5c.8 0 1.4.6 1.4 1.4v13.5c0 .8-.6 1.4-1.4 1.4H84.1c-.8 0-1.4-.6-1.4-1.4v-13.5c0-.8.7-1.4 1.4-1.4z"/>
    <path fill="#9b9a9a" d="M57.3 144.2h19.4c.8 0 1.4.6 1.4 1.4v19.8c0 .8-.6 1.4-1.4 1.4H57.3c-.8 0-1.4-.6-1.4-1.4v-19.8c-.1-.8.6-1.4 1.4-1.4z"/>
    <path fill="#cfd0cf" d="M60.2 146.4h13.5c.8 0 1.4.6 1.4 1.4v13.5c0 .8-.6 1.4-1.4 1.4H60.2c-.8 0-1.4-.6-1.4-1.4v-13.5c0-.8.6-1.4 1.4-1.4z"/>
    <path fill="#60605d" d="M19.5 216.3h40.1c.8 0 1.4.6 1.4 1.4v19.8c0 .8-.6 1.4-1.4 1.4H19.5c-.8 0-1.4-.6-1.4-1.4v-19.8c-.1-.8.6-1.4 1.4-1.4z"/>
    <path fill="#868580" d="M22.4 218.5h34.2c.8 0 1.4.6 1.4 1.4v13.5c0 .8-.6 1.4-1.4 1.4H22.4c-.8 0-1.4-.6-1.4-1.4v-13.5c0-.8.6-1.4 1.4-1.4z"/>
    <path fill="#60605d" d="M327.4 216.3h36.1c.8 0 1.4.6 1.4 1.4v19.8c0 .8-.6 1.4-1.4 1.4h-36.1c-.8 0-1.4-.6-1.4-1.4v-19.8c-.1-.8.6-1.4 1.4-1.4z"/>
    <path fill="#868580" d="M330.3 218.5h30.2c.8 0 1.4.6 1.4 1.4v13.5c0 .8-.6 1.4-1.4 1.4h-30.2c-.8 0-1.4-.6-1.4-1.4v-13.5c0-.8.6-1.4 1.4-1.4z"/>
    <path fill="#60605d" d="M38.8 240.3h26.8c.8 0 1.4.6 1.4 1.4v19.8c0 .8-.6 1.4-1.4 1.4H38.8c-.8 0-1.4-.6-1.4-1.4v-19.8c-.1-.7.6-1.4 1.4-1.4z"/>
    <path fill="#868580" d="M41.7 242.5h20.9c.8 0 1.4.6 1.4 1.4v13.5c0 .8-.6 1.4-1.4 1.4H41.7c-.8 0-1.4-.6-1.4-1.4V244c0-.8.6-1.5 1.4-1.5z"/>
    <path fill="#60605d" d="M69.7 240.3h26.8c.8 0 1.4.6 1.4 1.4v19.8c0 .8-.6 1.4-1.4 1.4H69.7c-.8 0-1.4-.6-1.4-1.4v-19.8c-.1-.7.6-1.4 1.4-1.4z"/>
    <path fill="#868580" d="M72.6 242.5h20.9c.8 0 1.4.6 1.4 1.4v13.5c0 .8-.6 1.4-1.4 1.4H72.6c-.8 0-1.4-.6-1.4-1.4V244c0-.8.6-1.5 1.4-1.5z"/>
    <path fill="#60605d" d="M290.1 240.3h25.8c.8 0 1.4.6 1.4 1.4v19.8c0 .8-.6 1.4-1.4 1.4h-25.8c-.8 0-1.4-.6-1.4-1.4v-19.8c-.1-.7.6-1.4 1.4-1.4z"/>
    <path fill="#868580" d="M293 242.5h19.9c.8 0 1.4.6 1.4 1.4v13.5c0 .8-.6 1.4-1.4 1.4H293c-.8 0-1.4-.6-1.4-1.4V244c0-.8.6-1.5 1.4-1.5z"/>
    <path fill="#60605d" d="M19.5 192.2H48c.8 0 1.4.6 1.4 1.4v19.8c0 .8-.6 1.4-1.4 1.4H19.5c-.8 0-1.4-.6-1.4-1.4v-19.8c-.1-.7.6-1.4 1.4-1.4z"/>
    <path fill="#868580" d="M22.4 194.4H45c.8 0 1.4.6 1.4 1.4v13.5c0 .8-.6 1.4-1.4 1.4H22.4c-.8 0-1.4-.6-1.4-1.4v-13.5c0-.7.6-1.4 1.4-1.4z"/>
    <path fill="#60605d" d="M52.7 192.2h19.2c.8 0 1.4.6 1.4 1.4v19.8c0 .8-.6 1.4-1.4 1.4H52.7c-.8 0-1.4-.6-1.4-1.4v-19.8c0-.7.6-1.4 1.4-1.4z"/>
    <path fill="#868580" d="M55.7 194.4H69c.8 0 1.4.6 1.4 1.4v13.5c0 .8-.6 1.4-1.4 1.4H55.7c-.8 0-1.4-.6-1.4-1.4v-13.5c0-.7.6-1.4 1.4-1.4z"/>
    <path fill="#60605d" d="M368.1 144.2h19.2c.8 0 1.4.6 1.4 1.4v19.8c0 .8-.6 1.4-1.4 1.4h-19.2c-.8 0-1.4-.6-1.4-1.4v-19.8c0-.8.6-1.4 1.4-1.4z"/>
    <path fill="#868580" d="M371.1 146.4h13.3c.8 0 1.4.6 1.4 1.4v13.5c0 .8-.6 1.4-1.4 1.4h-13.3c-.8 0-1.4-.6-1.4-1.4v-13.5c-.1-.8.6-1.4 1.4-1.4z"/>
    <path fill="#60605d" d="M391.8 144.2H411c.8 0 1.4.6 1.4 1.4v19.8c0 .8-.6 1.4-1.4 1.4h-19.2c-.8 0-1.4-.6-1.4-1.4v-19.8c0-.8.6-1.4 1.4-1.4z"/>
    <path fill="#868580" d="M394.8 146.4h13.3c.8 0 1.4.6 1.4 1.4v13.5c0 .8-.6 1.4-1.4 1.4h-13.3c-.8 0-1.4-.6-1.4-1.4v-13.5c-.1-.8.6-1.4 1.4-1.4z"/>
    <path fill="#60605d" d="M19.5 168.2h45.8c.8 0 1.4.6 1.4 1.4v19.8c0 .8-.6 1.4-1.4 1.4H19.5c-.8 0-1.4-.6-1.4-1.4v-19.8c-.1-.8.6-1.4 1.4-1.4z"/>
    <path fill="#868580" d="M22.4 170.4h39.9c.8 0 1.4.6 1.4 1.4v13.5c0 .8-.6 1.4-1.4 1.4H22.4c-.8 0-1.4-.6-1.4-1.4v-13.5c0-.8.6-1.4 1.4-1.4z"/>
    <path fill="#60605d" d="M19.5 144.2h33.4c.8 0 1.4.6 1.4 1.4v19.8c0 .8-.6 1.4-1.4 1.4H19.5c-.8 0-1.4-.6-1.4-1.4v-19.8c-.1-.8.6-1.4 1.4-1.4z"/>
    <path fill="#868580" d="M22.4 146.4h27.5c.8 0 1.4.6 1.4 1.4v13.5c0 .8-.6 1.4-1.4 1.4H22.4c-.8 0-1.4-.6-1.4-1.4v-13.5c0-.8.6-1.4 1.4-1.4z"/>
    <path fill="#60605d" d="M356.8 168.2h30.5c.8 0 1.4.6 1.4 1.4v43.7c0 .8-.6 1.4-1.4 1.4h-23.5c-.8 0-1.4-.6-1.4-1.4v-18.7c0-2.4-1.5-3.2-3.7-3.2-3 0-3.3-1.8-3.3-3v-18.8c0-.8.7-1.4 1.4-1.4z"/>
    <path fill="#868580" d="M359.7 170.3h24.8c.8 0 1.4.6 1.4 1.4v37.7c0 .8-.6 1.4-1.4 1.4h-17.8c-.8 0-1.4-.6-1.4-1.4v-16.6c0-2-1.9-3-3.6-3-3.1 0-3.4-2.1-3.4-3.1v-15c0-.8.6-1.4 1.4-1.4z"/>
    <path fill="#60605d" d="M19.4 105.7h19.4c.8 0 1.4.6 1.4 1.4v19.8c0 .8-.6 1.4-1.4 1.4H19.4c-.8 0-1.4-.6-1.4-1.4v-19.8c-.1-.8.6-1.4 1.4-1.4z"/>
    <path fill="#868580" d="M22.3 107.9h13.5c.8 0 1.4.6 1.4 1.4v13.5c0 .8-.6 1.4-1.4 1.4H22.3c-.8 0-1.4-.6-1.4-1.4v-13.5c0-.8.6-1.4 1.4-1.4z"/>
    <path fill="#60605d" d="M56.7 105.7h26.2c.8 0 1.4.6 1.4 1.4v19.8c0 .8-.6 1.4-1.4 1.4H56.7c-.8 0-1.4-.6-1.4-1.4v-19.8c0-.8.6-1.4 1.4-1.4z"/>
    <path fill="#868580" d="M59.7 107.9H80c.8 0 1.4.6 1.4 1.4v13.5c0 .8-.6 1.4-1.4 1.4H59.7c-.8 0-1.4-.6-1.4-1.4v-13.5c-.1-.8.6-1.4 1.4-1.4z"/>
    <path fill="#60605d" d="M87.1 105.7h26.2c.8 0 1.4.6 1.4 1.4v19.8c0 .8-.6 1.4-1.4 1.4H87.1c-.8 0-1.4-.6-1.4-1.4v-19.8c-.1-.8.6-1.4 1.4-1.4z"/>
    <path fill="#868580" d="M90 107.9h20.3c.8 0 1.4.6 1.4 1.4v13.5c0 .8-.6 1.4-1.4 1.4H90c-.8 0-1.4-.6-1.4-1.4v-13.5c0-.8.6-1.4 1.4-1.4z"/>
    <path fill="#60605d" d="M117.4 105.7h26.2c.8 0 1.4.6 1.4 1.4v19.8c0 .8-.6 1.4-1.4 1.4h-26.2c-.8 0-1.4-.6-1.4-1.4v-19.8c0-.8.7-1.4 1.4-1.4z"/>
    <path fill="#868580" d="M120.4 107.9h20.3c.8 0 1.4.6 1.4 1.4v13.5c0 .8-.6 1.4-1.4 1.4h-20.3c-.8 0-1.4-.6-1.4-1.4v-13.5c0-.8.6-1.4 1.4-1.4z"/>
    <path fill="#60605d" d="M147.8 105.7H174c.8 0 1.4.6 1.4 1.4v19.8c0 .8-.6 1.4-1.4 1.4h-26.2c-.8 0-1.4-.6-1.4-1.4v-19.8c0-.8.6-1.4 1.4-1.4z"/>
    <path fill="#868580" d="M150.8 107.9h20.3c.8 0 1.4.6 1.4 1.4v13.5c0 .8-.6 1.4-1.4 1.4h-20.3c-.8 0-1.4-.6-1.4-1.4v-13.5c-.1-.8.6-1.4 1.4-1.4z"/>
    <path fill="#60605d" d="M178.2 105.7h26.2c.8 0 1.4.6 1.4 1.4v19.8c0 .8-.6 1.4-1.4 1.4h-26.2c-.8 0-1.4-.6-1.4-1.4v-19.8c0-.8.6-1.4 1.4-1.4z"/>
    <path fill="#868580" d="M181.2 107.9h20.3c.8 0 1.4.6 1.4 1.4v13.5c0 .8-.6 1.4-1.4 1.4h-20.3c-.8 0-1.4-.6-1.4-1.4v-13.5c-.1-.8.6-1.4 1.4-1.4z"/>
    <path fill="#60605d" d="M218.5 105.7h26.2c.8 0 1.4.6 1.4 1.4v19.8c0 .8-.6 1.4-1.4 1.4h-26.2c-.8 0-1.4-.6-1.4-1.4v-19.8c0-.8.6-1.4 1.4-1.4z"/>
    <path fill="#868580" d="M221.5 107.9h20.3c.8 0 1.4.6 1.4 1.4v13.5c0 .8-.6 1.4-1.4 1.4h-20.3c-.8 0-1.4-.6-1.4-1.4v-13.5c-.1-.8.6-1.4 1.4-1.4z"/>
    <path fill="#60605d" d="M248.9 105.7H275c.8 0 1.4.6 1.4 1.4v19.8c0 .8-.6 1.4-1.4 1.4h-26.2c-.8 0-1.4-.6-1.4-1.4v-19.8c0-.8.7-1.4 1.5-1.4z"/>
    <path fill="#868580" d="M251.8 107.9h20.3c.8 0 1.4.6 1.4 1.4v13.5c0 .8-.6 1.4-1.4 1.4h-20.3c-.8 0-1.4-.6-1.4-1.4v-13.5c0-.8.6-1.4 1.4-1.4z"/>
    <path fill="#60605d" d="M279.2 105.7h26.2c.8 0 1.4.6 1.4 1.4v19.8c0 .8-.6 1.4-1.4 1.4h-26.2c-.8 0-1.4-.6-1.4-1.4v-19.8c0-.8.7-1.4 1.4-1.4z"/>
    <path fill="#868580" d="M282.2 107.9h20.3c.8 0 1.4.6 1.4 1.4v13.5c0 .8-.6 1.4-1.4 1.4h-20.3c-.8 0-1.4-.6-1.4-1.4v-13.5c0-.8.6-1.4 1.4-1.4z"/>
    <path fill="#60605d" d="M309.6 105.7h26.2c.8 0 1.4.6 1.4 1.4v19.8c0 .8-.6 1.4-1.4 1.4h-26.2c-.8 0-1.4-.6-1.4-1.4v-19.8c0-.8.6-1.4 1.4-1.4z"/>
    <path fill="#868580" d="M312.6 107.9h20.3c.8 0 1.4.6 1.4 1.4v13.5c0 .8-.6 1.4-1.4 1.4h-20.3c-.8 0-1.4-.6-1.4-1.4v-13.5c-.1-.8.6-1.4 1.4-1.4z"/>
    <path fill="#60605d" d="M340 105.7h26.2c.8 0 1.4.6 1.4 1.4v19.8c0 .8-.6 1.4-1.4 1.4H340c-.8 0-1.4-.6-1.4-1.4v-19.8c0-.8.6-1.4 1.4-1.4z"/>
    <path fill="#868580" d="M343 107.9h20.3c.8 0 1.4.6 1.4 1.4v13.5c0 .8-.6 1.4-1.4 1.4H343c-.8 0-1.4-.6-1.4-1.4v-13.5c-.1-.8.6-1.4 1.4-1.4z"/>
    <path fill="#60605d" d="M384.8 105.7H411c.8 0 1.4.6 1.4 1.4v19.8c0 .8-.6 1.4-1.4 1.4h-26.2c-.8 0-1.4-.6-1.4-1.4v-19.8c0-.8.6-1.4 1.4-1.4z"/>
    <path fill="#868580" d="M387.8 107.9h20.3c.8 0 1.4.6 1.4 1.4v13.5c0 .8-.6 1.4-1.4 1.4h-20.3c-.8 0-1.4-.6-1.4-1.4v-13.5c0-.8.6-1.4 1.4-1.4z"/>
  </g>
  <g fill-rule="evenodd">
    <path fill="#bad532" d="M399.1 177.2h8.7s.1.1.1.2v2.8c0 .1 0 .2-.1.2h-8.7s-.1-.1-.1-.2v-2.8c0-.1.1-.2.1-.2z"/>
    <path fill="#525056" d="M399.1 201h8.7s.1.1.1.2v2.8c0 .1 0 .2-.1.2h-8.7s-.1-.1-.1-.2v-2.8c0-.1.1-.2.1-.2zm0 23.9h8.7s.1.1.1.2v2.8c0 .1 0 .2-.1.2h-8.7s-.1-.1-.1-.2v-2.8c0-.1.1-.2.1-.2z"/>
    <path fill="#e7e514" d="M406.4 179.6h-5.9c-.3 0-.6-.3-.6-.6v-.4c0-.3.3-.6.6-.6h5.9c.3 0 .6.3.6.6v.4c.1.4-.2.6-.6.6z"/>
  </g>
  <g fill-rule="evenodd">
    <path fill="#eaeaea" d="M18.5 92.1V77.9c0-.5.4-1 1-1h60.7c.1 0 .3 0 .4.1-.2-.2-.4-.4-.7-.4H19.1c-.5 0-1 .4-1 1v14.2c0 .4.2.7.6.9-.1-.2-.2-.4-.2-.6z"/>
    <path fill="#777878" d="M80.3 76.8c.1.1.1.3.1.5v14.2c0 .5-.4 1-1 1H18.7c-.2 0-.3-.1-.5-.1.2.3.5.5.8.5h60.7c.5 0 1-.4 1-1V77.6c.1-.3-.1-.6-.4-.8z"/>
  </g>
  <path fill="#192753" d="M46.9 89.1l1.3-2 .3 2h-1.6zm3.2 2.1l.1-.2H50c-.1 0-.2-.1-.2-.1l-.2-.2c0-.1-.1-.1-.1-.2l-.7-4.5h-.3c-.4.6-.8 1.3-1.3 2.2-.5.8-1 1.6-1.4 2.3-.1.1-.2.3-.3.3-.1.1-.2.1-.2.2-.1 0-.2.1-.3.1h-.2l-.1.2h2l.1-.2c-.2 0-.4 0-.5-.1-.1 0-.2-.1-.2-.2 0 0 0-.1.1-.2 0-.1.1-.2.1-.3 0-.1.1-.2.2-.4s.2-.3.3-.4h1.8c.1.4.1.7.1.9v.4c0 .1 0 .1-.1.1 0 0-.1.1-.2.1h-.5l-.1.2h2.3zm5.7-2.9c-.2-.3-.5-.4-.9-.4-.2 0-.5 0-.7.1-.2.1-.5.2-.7.4.2-.5.5-1 .9-1.4.4-.4.9-.6 1.4-.8h.3v-.3c-.5.1-1 .2-1.4.4-.4.2-.8.5-1.1.8-.3.3-.6.7-.8 1.2-.2.4-.3.9-.3 1.4 0 .5.1.9.4 1.2.3.3.6.4 1.1.4.3 0 .6-.1.8-.2.3-.1.5-.3.7-.5.2-.2.3-.4.5-.7.1-.3.2-.5.2-.8 0-.3-.1-.6-.4-.8zm-.8 2.3c-.3.3-.5.5-.9.5-.3 0-.5-.1-.6-.3-.1-.2-.2-.5-.2-.9 0-.2 0-.5.1-.7 0-.2.1-.3.1-.4.2-.1.3-.3.5-.3.2-.1.4-.1.6-.1.3 0 .5.1.6.3.2.2.2.4.2.8 0 .3-.1.7-.4 1.1zm5.5-3c-.3-.3-.7-.4-1.2-.4-.3 0-.7.1-1 .2-.3.1-.6.3-.8.6-.2.3-.4.5-.5.9-.1.3-.2.7-.2 1 0 .4.1.8.4 1.1.3.3.7.4 1.2.4.4 0 .7-.1 1-.2.3-.1.6-.3.8-.6.2-.2.4-.5.5-.9.1-.3.2-.7.2-1 0-.5-.1-.8-.4-1.1zm-.5 1.7l-.3.9c-.2.3-.4.6-.6.7-.2.2-.4.2-.7.2-.3 0-.5-.1-.6-.3-.1-.2-.2-.4-.2-.8 0-.2 0-.5.1-.8.1-.3.2-.6.3-.8.1-.3.3-.5.5-.7.2-.2.5-.2.7-.2.3 0 .5.1.6.3.1.2.2.4.2.8.1.1.1.4 0 .7zm5.1-1.7c-.3-.3-.7-.4-1.2-.4-.3 0-.7.1-1 .2-.3.1-.6.3-.8.6-.2.3-.4.5-.5.9-.1.4-.2.7-.2 1 0 .4.1.8.4 1.1.3.3.7.4 1.2.4.4 0 .7-.1 1-.2.3-.1.6-.3.8-.6.2-.2.4-.5.5-.9.1-.3.2-.7.2-1 .1-.5-.1-.8-.4-1.1zm-.4 1.7l-.3.9c-.2.3-.4.6-.6.7-.2.2-.4.2-.7.2-.3 0-.5-.1-.6-.3-.1-.2-.2-.4-.2-.8 0-.2 0-.5.1-.8.1-.3.2-.6.3-.8.1-.3.3-.5.5-.7.2-.2.5-.2.7-.2.3 0 .5.1.6.3.1.2.2.4.2.8.1.1 0 .4 0 .7zM26 78.3c-3.4 0-6.1 2.7-6.1 6.1 0 3.4 2.7 6.1 6.1 6.1.7 0 1.3-.1 1.9-.3v-3.1c-.5.3-1.1.5-1.7.5-1.9 0-3.4-1.5-3.4-3.2 0-1.8 1.5-3.2 3.4-3.2.6 0 1.2.2 1.7.5v-3.1c-.6-.2-1.3-.3-1.9-.3zm4.4 6h-2.5v-2.2h4.6"/>
  <path fill="#ed2224" d="M30.4 84.7h-2.5v2.1h4.6"/>
  <path fill="#192753" d="M43.8 82.9c.5 0 1-.2 1.3-.4.3-.3.5-.7.5-1.2s-.2-.9-.5-1.2c-.3-.3-.8-.4-1.3-.4s-1 .2-1.3.4c-.3.3-.5.7-.5 1.2s.2.9.5 1.2c.3.3.8.4 1.3.4zm0-.8c-.3 0-.4-.1-.6-.3-.1-.2-.2-.4-.2-.6 0-.2.1-.5.2-.6.1-.2.3-.3.6-.3s.4.1.6.3c.1.2.2.4.2.6 0 .2-.1.5-.2.6-.1.1-.3.3-.6.3zm2.3.7h1.1v-1.4c0-.3.1-.6.2-.8.1-.2.3-.2.5-.2s.3.1.3.2c.1.1.1.3.1.5v1.7h1.1v-1.4c0-.3.1-.6.2-.8.1-.2.3-.2.5-.2s.3.1.3.2c.1.1.1.3.1.5v1.7h1.1v-1.9c0-.4-.1-.8-.2-1-.2-.2-.5-.4-.9-.4-.2 0-.4 0-.6.1-.2.1-.4.3-.5.5-.1-.2-.2-.4-.4-.5-.2-.1-.4-.2-.6-.2-.3 0-.5.1-.7.2-.2.1-.4.3-.5.5v-.6h-1v3.3zm6.1 0h1.1v-1.4c0-.3.1-.6.2-.8.1-.2.3-.2.5-.2s.3.1.3.2c.1.1.1.3.1.5v1.7h1.1v-1.4c0-.3.1-.6.2-.8.1-.2.3-.2.5-.2s.3.1.3.2c.1.1.1.3.1.5v1.7h1.1v-1.9c0-.4-.1-.8-.2-1-.2-.2-.5-.4-.9-.4-.2 0-.4 0-.6.1-.2.1-.4.3-.5.5-.1-.2-.2-.4-.4-.5-.2-.1-.4-.2-.6-.2-.3 0-.5.1-.7.2-.2.1-.4.3-.5.5v-.6h-1v3.3zm7.8.1c.5 0 1-.2 1.3-.4.3-.3.5-.7.5-1.2s-.2-.9-.5-1.2c-.3-.3-.8-.4-1.3-.4s-1 .2-1.3.4c-.3.3-.5.7-.5 1.2s.2.9.5 1.2c.3.3.7.4 1.3.4zm0-.8c-.3 0-.4-.1-.6-.3-.2-.2-.2-.4-.2-.6 0-.2.1-.5.2-.6.1-.2.3-.3.6-.3s.4.1.6.3c.1.2.2.4.2.6 0 .2-.1.5-.2.6-.2.2-.4.3-.6.3zm5.8-3.9h-1.1V80c-.1-.2-.3-.3-.5-.4-.2-.1-.4-.1-.6-.1-.4 0-.8.2-1 .5-.2.3-.4.7-.4 1.1 0 .5.1.9.4 1.2.2.3.6.5 1.1.5.3 0 .5-.1.7-.2.2-.1.3-.3.4-.5v.6h1v-4.5zm-2.5 3c0-.2.1-.4.2-.6.1-.2.3-.2.5-.2s.4.1.5.2c.1.2.2.4.2.6 0 .2-.1.4-.2.6-.1.2-.3.2-.5.2s-.4-.1-.5-.2c-.1-.1-.2-.3-.2-.6zm4.7 1.7c.5 0 1-.2 1.3-.4.3-.3.5-.7.5-1.2s-.2-.9-.5-1.2c-.3-.3-.8-.4-1.3-.4s-1 .2-1.3.4c-.3.3-.5.7-.5 1.2s.2.9.5 1.2c.4.3.8.4 1.3.4zm0-.8c-.3 0-.4-.1-.6-.3-.1-.2-.2-.4-.2-.6 0-.2.1-.5.2-.6.1-.2.3-.3.6-.3s.4.1.6.3c.1.2.2.4.2.6 0 .2-.1.5-.2.6-.1.2-.3.3-.6.3zm4.7-2.5h-.4c-.2 0-.4.1-.6.2-.2.1-.3.3-.4.5v-.6h-1v3.2h1.1v-1.4c0-.3.1-.6.2-.7.1-.2.3-.3.6-.3h.4l.1-.9zm3.5 2v-.2c0-.5-.1-.9-.4-1.3-.2-.3-.7-.5-1.3-.5-.5 0-.9.2-1.2.4-.3.3-.5.7-.5 1.2s.2.9.5 1.2c.3.3.8.4 1.3.4h.6c.2 0 .4-.1.6-.2v-.8c-.2.1-.3.2-.5.2s-.3.1-.5.1c-.3 0-.5 0-.7-.1-.2-.1-.3-.3-.3-.5h2.4zm-2.2-.7c0-.2.1-.3.2-.5.1-.1.2-.2.4-.2s.4.1.5.2c.1.1.1.3.1.5H74zm-34.4 2c-.5-.1-.8-.3-1.2-.7-.3-.3-.4-.6-.5-1.2-.2-1.1.3-2.1 1.2-2.5.4-.2 1-.3 1.6-.3.4 0 .7.1 1 .1l-.1 1s-.1 0-.3-.1c-.2-.1-.4-.1-.6-.1-.4 0-.8.1-1.1.3-.6.5-.6 1.7 0 2.3.4.3 1.1.4 1.7.3l.3-.1.1 1c-.2 0-.6.1-1.1.1-.5 0-.7-.1-1-.1zm-4.199998 1.400003h43.400002v.4H35.400002z"/>
  <g fill="#777878">
    <path d="M324.1 80l-6.5 8h.8l5.6-7m4-6.5v18.6c0 .7.2 1.2.5 1.6.2.2.4.3.7.4-.1 0-.1-.1-.1-.1-.3-.3-.5-.8-.5-1.6V74.5h-.6zm-12.8 21v.3h-5.8l-.1.3h6.4v-.5c-.2-.1-.3-.1-.5-.1zM324 89h-7.1l-1.3 1.6-1.4 1.8c-.3.4-.5.7-.6 1.1-.1.2-.1.5-.1.7 0 .3.2.5.4.7.1.1.3.2.4.2-.2-.2-.3-.4-.4-.6 0-.2 0-.5.1-.7.1-.3.3-.7.6-1.1l1.4-1.8 1.3-1.6h6.6l.1-.3zm5.9 6.5l-.1.4h-8.7l-.1.3h9.2l.1-.5c0-.2-.2-.2-.4-.2zm9.9-16.8l-.2-1.5-3.7 14.8c-.1.6-.2 1.1-.2 1.5 0 .5.2.9.6 1.3.1.1.3.2.5.3-.4-.3-.6-.7-.6-1.3 0-.4 0-.9.2-1.5l3.4-13.6zm4.1-3.8h-.4l2.3 14.9.4-.6m16.4-14.3l-.1.3c-1 0-1.8.2-2.3.7-.5.4-.9 1.3-1.3 2.6L355.5 92c-.2.9-.3 1.5-.3 1.9 0 .4.2.7.5.9.1.1.2.1.4.2-.2-.2-.4-.5-.4-.8 0-.4.1-1.1.3-1.9l3.4-13.6c.3-1.3.7-2.2 1.3-2.6.5-.4 1.3-.7 2.3-.7l.2-.5h-.6zm-5.1 20.9h-10.1l-.1.3H358l.1-.5h-.6v.2zm-2.7-18.4l-12.1 18.4h-.2l.1.3h.6l11.2-17M338 95.8h-6.5l-.1.3h7.1l.1-.5h-.6v.2zm27.10001-20.499997V75.5M370.4 95.8h-10l-.1.3h10.6l.1-.5h-.6v.2zm4.6-20.9l-.1.3c-.9 0-1.7.2-2.1.6-.5.4-.9 1.3-1.2 2.6L368.2 92c-.2 1-.4 1.6-.3 1.9 0 .4.2.7.5.9.1.1.2.1.4.2-.2-.2-.4-.5-.4-.8 0-.3.1-1 .3-1.9l3.4-13.5c.3-1.3.7-2.2 1.2-2.6.5-.4 1.2-.6 2.1-.6l.2-.5h-.6zm19.9.2l-1 5.8h-.1v.3h.5l1-5.8s0-.6-.2-.8c-.2-.2-.3-.2-.3-.2h-.1c.2.3.2.7.2.7zm-14.4 18.5c.5.5 1.1.9 1.6 1.2-.4-.2-.8-.6-1.1-.9-1-1.1-1.6-2.7-1.7-4.8-.1-2.4.5-4.7 1.5-6.9s2.8-3.8 4.3-4.9c1.5-1.1 3.4-1.6 4.9-1.6.6 0 1 .1 1.3.2-.5-.3-1-.5-1.8-.5-1.5 0-3.4.6-4.9 1.6-1.5 1.1-3.3 2.7-4.3 4.9s-1.6 4.5-1.5 6.9c.1 2.1.7 3.7 1.7 4.8z"/>
    <path d="M394.7 86c-.5 0-1 .1-1.3.3-.3.2-.5.4-.7.8-.1.2-.2.7-.4 1.6l-1.6 6.3c-2.2.9-4.6 1.4-7.1 1.4-1.9 0-3.5-.3-4.9-1 .1.1.3.2.4.3 1.4.7 3 1 5 1 2.5 0 4.9-.5 7.1-1.4l1.6-6.3c.2-.8.3-1.4.4-1.6.2-.3.4-.6.7-.8.3-.2.7-.3 1.3-.3l.1-.6h-.6v.3zm3.4 9.5v.3h-5.8l-.1.3h6.4v-.5c-.2-.1-.3-.1-.5-.1zm12.9-21v18.6c0 .7.2 1.2.5 1.6.2.2.4.3.7.4-.1 0-.1-.1-.1-.1-.3-.3-.5-.8-.5-1.6V74.5h-.6zm-3.5 5l-6.9 8.5h.8l6.1-7.6m-.6 8.6h-7.1l-1.3 1.6-1.4 1.8c-.3.4-.5.7-.6 1.1-.1.2-.1.5-.1.7 0 .3.2.5.4.7.1.1.3.2.4.2-.2-.2-.3-.4-.4-.6 0-.2 0-.5.1-.7.1-.3.3-.7.6-1.1l1.4-1.8 1.3-1.6h6.6l.1-.3zm6 6.5l-.1.4h-8.7l-.1.3h9.2l.1-.5c-.1-.2-.3-.2-.4-.2z"/>
  </g>
  <g fill="#e8e8e8">
    <path d="M310 95.8c.6-.1 1.1-.3 1.5-.6.6-.4 1.4-1.3 2.4-2.6l14.4-17.9h.2v-.3h-.7l-14.4 17.9c-1 1.3-1.9 2.2-2.4 2.6-.4.3-.9.5-1.5.6l-.1.5h.6v-.2zm14.6-15.5l-.6.7-.1 7h-5.3l-.3.3h6.1m-2.6 7.5c.9-.1 1.4-.2 1.6-.2.3-.1.5-.5.8-.9.2-.5.3-1.3.3-2.4v-3h-.5v2.8c0 1.2-.1 2-.3 2.4-.2.5-.5.8-.8.9-.1.1-.7.1-1.6.2l-.2.5h.6l.1-.3zm15-20.6h7.2v-.3h-7.6l-.2.5h.6v-.2zM348 95.8c1.1 0 2-.2 2.5-.7.5-.4 1-1.3 1.3-2.6l3.7-14.8-.9 1.4-3.3 13.1c-.3 1.3-.8 2.2-1.3 2.6-.5.4-1.4.7-2.5.7l-.2.5h.6l.1-.2z"/>
    <path d="M346.4 90.1l9.8-14.9h6.9l.1-.3h-7.5l-9.5 14.3m-3.6 6.9h.4l-2.7-18.5-.3 1.1m-7.9 17.1c.8 0 1.5-.2 1.9-.5.8-.6 1.3-1.5 1.6-2.7l4-15.7c-.5-.5-.9-.8-1.2-.9.2.2.5.4.7.7l-4 15.7c-.3 1.2-.9 2.1-1.6 2.7-.4.3-1.1.5-1.9.5l-.1.5h.6v-.3zm33.6-20.6h9.8l.1-.3h-10.4l-.2.5c.2 0 .4 0 .6.1l.1-.3zM361 95.8c1.1 0 1.8-.2 2.3-.6.5-.4.9-1.3 1.2-2.7l3.4-13.5c.2-.8.3-1.5.3-1.9 0-.4-.2-.7-.5-.9-.1-.1-.2-.1-.4-.2.2.2.3.5.3.8 0 .4-.1 1.1-.3 1.9L364 92.3c-.3 1.4-.8 2.3-1.2 2.7-.5.4-1.2.6-2.3.6l-.2.5h.6l.1-.3zm25-9.6h.6l.1-.3h8.6l.1-.3h-9.2l-.2.6zm-3.4 8.8c.8.5 1.6.7 2.5.7.6 0 1.2-.2 2-.5l1.4-5.6c.2-.9.3-1.5.3-1.8 0-.4-.2-.7-.5-1-.1-.1-.3-.2-.4-.2.3.3.4.5.5.9 0 .3-.1.9-.3 1.8l-1.4 5.6c-.8.3-1.5.5-2 .5-.8.1-1.5-.1-2.1-.4z"/>
    <path d="M376.3 92.6c-.9-1.5-1.5-3.1-1.5-5-.2-4 1.5-7.3 5-9.9 2.7-2 5.8-2.9 9.3-3.1.3 0 1.2-.1 2.4-.1 1 0 2.2 0 3.8.2 0 0 0-.1-.1-.1-.2-.2-.3-.2-.3-.2-1.7-.2-2.9-.2-3.9-.2-1.2 0-2.1.1-2.4.1-3.5.2-6.6 1.1-9.3 3.1-3.5 2.6-5.1 5.9-5 9.9.1 1.9.6 3.5 1.5 5s2.1 2.5 3.5 3.2c-1.2-.6-2.2-1.6-3-2.9z"/>
    <path d="M393.9 81.2h.5c-.1-1.8-.2-3.1-1-3.9-.5-.5-.9-.9-1.4-1.1.3.2.6.5.9.8.7.9.8 2.3 1 4.2zm10.8 14.6c.9-.1 1.4-.2 1.6-.2.3-.1.5-.5.8-.9.2-.5.3-1.3.3-2.4v-3h-.5V92c0 1.2-.1 2-.3 2.4-.2.5-.5.8-.8.9-.1.1-.7.1-1.6.2l-.2.5h.6l.1-.2zm-11.8 0c.6-.1 1.1-.3 1.5-.6.6-.4 1.4-1.3 2.4-2.6l14.4-17.9h.2v-.3h-.7l-14.4 17.9c-1 1.3-1.9 2.2-2.4 2.6-.4.3-.9.5-1.5.6l-.1.5h.6v-.2zm14.6-15.4l-.5.6-.1 7h-5.4l-.3.3h6.2"/>
  </g>
  <path fill="#3b3b3b" d="M605.38761933 287.41488283h7.86387646v5.13017103h-7.8638765v-5.13017103zm-125.18172798-128.3614414l-.83978915.77183943-.2700567.97481752.13502836 140.45039828.32493914.7195704.7178281.4590615 136.6722044.1211248.90948122-.51140026.45909636-.8537276-.18991083-125.30279678h-.97481752v-5.71387678l.77096828.18991083v-1.94963505l-10.5200146-9.23419636-2.0846634-.12196108-.6498783.5819286h-11.1829603l-.9748175.97481752-2.2745742.06794975h-75.123672l.000697-.64987835-18.4683927-.1358995.0670438-.7178281-16.5056906-.12108992.0013939.00069692z"/>
  <path fill="none" stroke="#424242" stroke-width=".78403498" stroke-miterlimit="10" d="M479.1010076 160.80540892l.12980143 140.45038433.32493917.71521464.71521464.4547406 136.6809157.1298014.90948122-.5200769.45561176-.844145-.19513773-125.3071735h-.9748176v-5.7199749l.7796798.1951377v-1.9496351l-10.5287262-9.2289694-2.0803077-.1298015-.6498784.58454205h-11.1786045l-.9748175.9748175-2.2745742.0653363H515.107404v-.64987833l-18.45793893-.1306726.06446514-.71434345-16.5083038-.12980145-.845016.7796798-.2596029.9748175z" stroke-linecap="round" stroke-linejoin="round"/>
  <path fill="none" stroke="#858586" stroke-width=".52269002" stroke-miterlimit="10" d="M496.84425473 159.63545366v46.08038214l.32493917.58454205.45474062.19513774h20.14797107" stroke-linecap="round" stroke-linejoin="round"/>
  <path fill="#292929" d="M483.58595568 292.6121673h7.86387667v-5.13456163h-7.86387667v5.13456164z"/>
  <path fill="#fff" d="M601.4834708 298.9985375v-76.4495632l-.7796798-.90948122-103.9892471.12980144-.9103524.64987835v76.6769335l105.6792793-.09756886z"/>
  <path fill="#b2b2b2" d="M558.06236298 166.59499217h20.09395974v37.69642877h-20.09395974v-37.69642877zm-42.90939395-7.7044559v46.78252952l1.35463918 1.0427672h71.9126109l1.191734-1.3136951v-46.5089882h-74.4563706l-.0027876-.0027877z"/>
  <path fill="red" d="M544.06789662 245.91350853c-1.86287227 0-3.39069526-1.5144211-3.39069526-3.3906951 0-1.87627394 1.51442095-3.39069508 3.39069526-3.39069508 1.86287228 0 3.39069527 1.51442114 3.39069527 3.3906951 0 1.87627397-1.514421 3.39069508-3.3906953 3.39069508zm0-5.3875867c-1.0989603 0-1.9968918.8979311-1.9968918 1.9968916s.8979315 1.9968916 1.9968918 1.9968916c1.09896032 0 1.9968918-.8979311 1.9968918-1.9968916s-.89793148-1.9968916-1.9968918-1.9968916z" class="st0"/>
  <path fill="#ff5ddc" d="M555.40595206 246.12793986h-.0938134l-5.1463521-.67009782c-.1876268-.0268039-.3484504-.12061758-.45566585-.26803915-.1072163-.1474216-.1608236-.335049-.1340195-.5092744l.6700977-5.1463515c.0536082-.3752548.4020586-.6432939.7773131-.6030881l5.1463521.6700978c.1876268.0268039.3484504.1206176.4556659.2680391.1072164.1474215.1608236.3350489.1340205.5092744l-.6700985 5.1463514c-.0402052.3484508-.3350484.603088-.6834997.603088zm-4.35563606-1.97008766l3.75254772.4958724.4958729-3.75254792-3.75254773-.49587244-.4958729 3.75254796z" class="st1"/>
  <path fill="#027fe1" d="M544.16171002 237.44347174c-.05360726 0-.0938134 0-.14742157-.01340195-.3752545-.0804119-.61648947-.4422647-.53607812-.8175194l1.09896032-5.2669689c.08041227-.3752554.44226472-.6164904.81751922-.5360781.3752554.0804113.61649038.4422638.53607903.8175192l-1.09896123 5.2669688c-.05360727.3216469-.3484504.5494802-.67009765.5494802z" class="st2"/>
  <path fill="#027fe1" d="M544.16171002 237.44347174c-.05360726 0-.0938134 0-.14742157-.01340195-.3752545-.0804119-.61648947-.4422647-.53607812-.8175194l1.09896032-5.2669689c.08041227-.3752554.44226472-.6164904.81751922-.5360781.3752554.0804113.61649038.4422638.53607903.8175192l-1.09896123 5.2669688c-.05360727.3216469-.3484504.5494802-.67009765.5494802z" class="st2"/>
  <path fill="#027fe1" d="M547.35137645 235.35276645c-.05360817 0-.0938143 0-.14742157-.01340195l-5.2669696-1.0989606c-.37525448-.08041135-.61649037-.4422647-.5360781-.8175192.08041135-.3752545.44226472-.6164904.81751922-.53607813l5.26696958 1.09896032c.3752545.0804113.61648947.4422647.53607812.8175192-.06701022.3216472-.34845133.5494803-.67009765.5494803z" class="st2"/>
  <path fill="#8aee49" d="M550.96990465 237.06821697c-.17422567 0-.33504928-.06700986-.45566677-.17422548-.1876277-.1608236-.26803906-.4154607-.21443088-.6566959l.95153875-4.5298617c.05360726-.241235.22783292-.4422648.45566676-.5092741.227833-.0804123.495872-.0268041.6834997.1340195l3.4711067 3.055646c.1876277.1608236.2680391.4154606.2144309.6566956-.0536072.2412356-.2278329.4422649-.4556658.5226766l-4.4226463 1.4608133c-.0938134.0268039-.1608236.0402059-.2278329.0402059zm1.38040142-3.91337134l-.45566677 2.18451887 2.13091134-.71030405-1.67524457-1.47421482z" class="st3"/>
  <path fill="gray" d="M574.08828023 272.04732497l-4.35563606-15.02359385c-.20102884-.71030377-.97834283-1.28658802-1.7154507-1.28658802H529.3927532c-.73710696 0-1.50101892.57628425-1.7154498 1.28658802l-4.3020288 14.9431816c-.20102883.71030376-.3752545 1.88967635-.3752545 2.6267842v16.85966204c0 .73710696.60308834 1.3401953 1.3401953 1.3401953h48.78312404c.73710786 0 1.3401953-.60308834 1.3401953-1.3401953v-16.77925068c0-.73710786-.17422476-1.91647953-.3752545-2.6267833zm-4.54326376-1.4072055l-41.63988014-.0536082c-.73710787 0-1.1793726-.57628423-.9649408-1.286588l2.76080285-9.59580065c.20102975-.71030378.97834283-1.28658803 1.7154507-1.28658803h34.59045146c.73710695 0 1.51442095.5762842 1.71544978 1.286588l2.80100898 9.6494088c.20102975.7103037-.24123497 1.286588-.97834283 1.286588z" class="st4"/>
  <path fill="#fff" d="M527.78451884 284.0688801h-2.0907052v-3.49791072h5.5886159v.69690174h-3.4979107v2.80100897zm6.28551764-.7103038h3.4979107v.69690175h-5.5886159v-3.4979107h5.5886159v2.0907052h-3.4979107v.71030376zm0-1.39380345h1.39380347v-.69690173h-1.39380347v.69690173zm6.28551764 1.39380345h3.4979107v.69690175h-5.5886159v-3.4979107h5.5886159v.69690172h-3.4979107v2.10410724zm4.1814113-2.78760692h5.5886159v3.4979107h-5.5886159v-2.0907052h3.4979107v-.69690172h-3.4979107v-.71030378zm2.10410726 2.78760693h1.39380346v-.6969017h-1.39380346v.6969018zm4.1814104-5.5752138h2.0907052v6.2855177h-2.0907052v-6.2855176zm2.80100897 0h2.0907052v2.787607h3.4979107v3.4979107h-5.5886159v-6.2855176zm2.0907052 5.5752139h1.39380346v-2.0907051h-1.3938034v2.0907052zm4.19481245-2.7876069h5.5886159v3.4979107h-5.5886159v-3.4979107zm2.0907052 2.787607h1.39380345v-2.0907051h-1.39380346v2.0907052zm4.89171416-.6969017h.69690174v-.6969017h-.69690174v-.6969017h-.69690173v-.6969017h2.0907052v.6969018h1.39380346v-.6969017h2.0907061v.69690178h-.6969018v.69690175h-.6969018v.6969017h.6969017v.69690176h.6969017v.69690177h-2.0907061v-.69690172h-1.3938035v.69690178h-2.0907052v-.69690175h.6969017v-.69690175zm-.80411716-21.4699351c-.0536082-2.5463719-.1206175-3.3638911-.36185247-4.3690381-.80411808-3.3772932-2.19792155-6.0174785-4.26182266-8.0679779-2.82781306-2.8144109-6.28551764-3.0824501-10.27930124-.8041174l-.92473466.5360783c-1.42060756-.0134019-3.055646-.0938136-3.4040973-.1876273-.26803907-.1742255-.85772536-.4958724-1.29999008-.7237057-2.7339988-1.3535976-5.2267626-1.50101914-7.4112821-.42886254-2.9082244 1.42060733-5.4411944 5.293773-6.4597433 9.87724243-.2948432 1.32679326-.3216473 1.7422539-.3082452 5.03913576.013402 3.7391457.0938143 4.4226454.6700985 5.57521386.5494801 1.09896036 1.3669993 1.8360682 2.5865772 2.305137.3082451.1206175.6298924.1742257.9783428.1742257 1.9566857 0 4.5432638-1.8360682 6.7679885-4.90511714l.6566956-.89793054h11.4050656l.6566956.89793056c1.7288527 2.3989504 4.6370771 4.94532236 6.5937628 4.94532236 1.4876177 0 3.0020387-1.04535213 3.7659506-2.5999792.5762833-1.273186.7237049-2.5865781.6298915-6.3659299z" class="st5"/>
  <path fill="gray" d="M565.56463582 261.20514152c-.05360818-2.50616583-.1206175-3.29688096-.34845133-4.26182266-.7907152-3.29688096-2.1175093-5.82985097-4.1144002-7.81334064-2.6669895-2.6535875-5.8432539-2.89482264-9.6494098-.72370563l-1.0587542.603088s-3.4979107-.0402059-3.7927539-.2546372c-.2010298-.1340196-.777314-.4556665-1.286588-.7103037-2.5865781-1.286588-4.9051163-1.4340094-6.9556153-.4288627-2.7608038 1.3535977-5.1865573 5.0927436-6.1917043 9.5287915-.2814411 1.273186-.3082452 1.6752446-.2948432 4.9319203.013402 3.6587343.0804113 4.2752238.6164894 5.3339789.4824708.9783428 1.2195787 1.6216363 2.305137 2.050499 1.7556559.6834997 4.7040864-1.1927737 7.1298409-4.5566649l.8175192-1.1257644h11.9411438l.8175192 1.1257644c1.9164805 2.6535874 4.62367604 4.7308905 6.1649011 4.7308905 1.273186 0 2.6267833-.9381367 3.2834789-2.305137.57628424-1.1793717.7103038-2.4525577.6164904-6.124694zm-21.26890627-4.79790078h-1.8092641v1.8092641c0 .5628822-.4690679 1.031951-1.0319501 1.031951s-1.031951-.4690688-1.031951-1.031951v-1.8092641h-1.8092641c-.5628822 0-1.03195102-.4690679-1.03195102-1.0319501s.4690688-1.031951 1.03195102-1.031951h1.8092641v-1.8092643c0-.5628822.4690688-1.03195072 1.031951-1.03195072s1.0319501.46906853 1.0319501 1.03195073v1.80926428h1.8092641c.5628822 0 1.031951.4690688 1.031951 1.031951-.01340203.57628335-.4690688 1.0319501-1.031951 1.0319501zm13.3215452-5.65562567c.87112738 0 1.58143116.7103037 1.58143116 1.5814309s-.7103037 1.581431-1.5814311 1.581431c-.8711265 0-1.5814302-.7103038-1.5814302-1.581431.0134021-.8711272.7103038-1.5814309 1.5814303-1.5814309zm-5.13294915 3.05564645c0-.8711275.71030377-1.58143117 1.58143117-1.58143117.8711274 0 1.58143026.71030368 1.58143026 1.58143117 0 .8711274-.71030287 1.58143026-1.58143026 1.58143026-.8711274 0-1.58143117-.71030287-1.58143117-1.58143026zm3.28347982 5.34738094c-.8711274 0-1.58143117-.71030378-1.58143117-1.58143118s.71030378-1.58143117 1.58143117-1.58143117c.8711265 0 1.58143026.7103038 1.58143026 1.5814312 0 .8711274-.71030377 1.5814312-1.58143026 1.5814312zm3.32368505-1.58143118c-.8711274 0-1.58143117-.71030377-1.58143117-1.58143117 0-.8711273.71030378-1.5814311 1.58143117-1.5814311.8711274 0 1.58143117.7103038 1.58143117 1.5814312 0 .8845295-.71030377 1.5814312-1.58143117 1.5814312z" class="st4"/>
  <path fill="#d40000" d="M558.7905947 289.7523337zm0-1.30683077zm0-1.2878912zm0 .6439456zm0 2.59472197zm0-1.30683077zm0-2.5757824z" class="st6"/>
</svg>
