<svg xmlns="http://www.w3.org/2000/svg" baseProfile="tiny" viewBox="-261 285 87.2 221">
  <path fill="#60605D" d="M-214.2 367.6h-6v-50c0-18.4-9.3-26.6-30.2-26.6v-6c24 0 36.2 11 36.2 32.6v50z"/>
  <path fill="#868580" d="M-207.6 362h-8.6v-1.6h7.9l-.7-2h-7.2v-1.6h6.5l-.9-2.4h-5.6v-1.6h4.9l-.9-2.4h-10l-.9 2.4h5.3v1.6h-5.9l-.9 2.4h6.8v1.6h-7.3l-.8 2h8.1v1.6h-8.7l-1.3 3.6h21.6"/>
  <path fill="#C9C9C9" d="M-253.8 364.4h72.8c4 0 7.2 3.2 7.2 7.2v127.2c0 4-3.2 7.2-7.2 7.2h-72.8c-4 0-7.2-3.2-7.2-7.2V371.6c0-4 3.2-7.2 7.2-7.2z"/>
  <path fill="#DCDBDB" d="M-242.2 390.4h50.4c1.3 0 2.4 1.1 2.4 2.4v70.4c0 1.3-1.1 2.4-2.4 2.4h-50.4c-1.3 0-2.4-1.1-2.4-2.4v-70.4c0-1.4 1.1-2.4 2.4-2.4z"/>
  <path fill="#60605D" d="M-242.2 376.5h16c1.3 0 2.4 1.1 2.4 2.4v32c0 1.3-1.1 2.4-2.4 2.4h-16c-1.3 0-2.4-1.1-2.4-2.4v-32c0-1.3 1.1-2.4 2.4-2.4z"/>
  <path fill="#868580" d="M-242.2 374.4h16c1.3 0 2.4 1.1 2.4 2.4v32c0 1.3-1.1 2.4-2.4 2.4h-16c-1.3 0-2.4-1.1-2.4-2.4v-32c0-1.4 1.1-2.4 2.4-2.4z"/>
  <path fill="#60605D" d="M-207.8 376.5h16c1.3 0 2.4 1.1 2.4 2.4v32c0 1.3-1.1 2.4-2.4 2.4h-16c-1.3 0-2.4-1.1-2.4-2.4v-32c0-1.3 1.1-2.4 2.4-2.4z"/>
  <path fill="#868580" d="M-207.8 374.4h16c1.3 0 2.4 1.1 2.4 2.4v32c0 1.3-1.1 2.4-2.4 2.4h-16c-1.3 0-2.4-1.1-2.4-2.4v-32c0-1.4 1.1-2.4 2.4-2.4z"/>
</svg>
