<svg xmlns="http://www.w3.org/2000/svg" viewBox="-54.3 345.6 400 87.302905">
  <path fill="#025" d="M-10.648547 345.60001c-24.149377 0-43.651452 19.58506-43.651452 43.65145 0 24.14938 19.585062 43.65145 43.651452 43.65145 4.647303 0 9.1286308-.74689 13.2780084-2.07469V409.0025c-3.6514523 2.07468-7.8838174 3.3195-12.3651452 3.3195-13.2780082 0-23.9834022-10.37345-23.9834022-23.07054 0-12.6971 10.788382-23.07054 23.9834022-23.07054 4.5643153 0 8.7966804 1.24481 12.3651452 3.3195v-21.82573c-4.1493776-1.3278-8.6307054-2.07468-13.2780084-2.07468zm13.6929461 27.05394H35.57552l-14.605809 15.18672H3.0443991"/>
  <path fill="red" d="M3.0443991 406.01494H35.57552l-14.605809-15.10373H3.0443991"/>
  <path fill="#025" d="M90.596267 384.02324c4.149377 0 7.468879-1.16182 10.124483-3.3195 2.6556-2.24066 3.9834-5.3112 4.06639-9.37759-.083-4.06639-1.41079-7.21992-4.06639-9.46058-2.655604-2.24067-5.975106-3.31951-10.124483-3.31951-4.149378 0-7.46888 1.16183-10.124482 3.31951-2.655601 2.15767-3.983402 5.39419-4.06639 9.46058.08299 4.06639 1.410789 7.21991 4.06639 9.37759 2.655602 2.15768 5.975104 3.3195 10.124482 3.3195zm0-5.89211c-1.908714-.083-3.319503-.74689-4.232366-2.07469-.912863-1.3278-1.3278-2.90457-1.244813-4.81328 0-1.90871.414938-3.48548 1.244813-4.81328.829876-1.3278 2.240664-1.9917 4.232366-2.07469 1.908713.083 3.319502.74689 4.232365 2.07469.912863 1.3278 1.327801 2.90457 1.244813 4.81328 0 1.82573-.414938 3.48548-1.244813 4.81328-.912863 1.3278-2.323652 1.9917-4.232365 2.07469zm17.593363 5.3112h8.46473v-10.29046c0-2.57261.41493-4.56431 1.24481-5.80913.82988-1.24481 1.9917-1.82572 3.48548-1.82572 1.16182 0 2.07469.49792 2.57261 1.41079.49793.91286.82988 2.07469.82988 3.48547v13.11204h8.46473v-10.29046c0-2.57261.41493-4.56432 1.24481-5.80913.82988-1.24481 1.9917-1.82572 3.48548-1.82572 1.16182 0 2.07469.49792 2.57261 1.41078.49793.91287.82988 2.07469.82988 3.48548v13.11203h8.46473v-14.35684c.083-3.3195-.49793-5.89212-1.65975-7.80083-1.16183-1.82573-3.48548-2.82158-6.97096-2.82158-1.74274 0-3.40249.33195-4.89626 1.07884-1.49378.74689-2.73859 1.90871-3.73444 3.56846-.6639-1.57676-1.65975-2.73859-2.98756-3.56846-1.3278-.74689-2.90456-1.16183-4.6473-1.16183-1.90871 0-3.73444.41494-5.22821 1.24482-1.57677.82987-2.73859 2.07469-3.65146 3.81742h-.083v-4.48132h-7.71785l-.083 24.31535zm46.22406 0h8.46473v-10.29046c0-2.57261.41494-4.56431 1.24482-5.80913.82987-1.24481 1.9917-1.82572 3.48547-1.82572 1.16183 0 2.07469.49792 2.57262 1.41079.49792.91286.82987 2.07469.82987 3.48547v13.11204h8.46473v-10.29046c0-2.57261.41494-4.56432 1.24482-5.80913.82987-1.24481 1.9917-1.82572 3.48547-1.82572 1.16183 0 2.07469.49792 2.57262 1.41078.49792.91287.82987 2.07469.82987 3.48548v13.11203h8.46473v-14.35684c.083-3.3195-.49792-5.89212-1.65975-7.80083-1.16182-1.82573-3.48547-2.82158-6.97095-2.82158-1.74274 0-3.40249.33195-4.89627 1.07884-1.49377.74689-2.73859 1.90871-3.73444 3.56846-.6639-1.57676-1.65975-2.73859-2.98755-3.56846-1.3278-.74689-2.90456-1.16183-4.6473-1.16183-1.9917 0-3.73444.41494-5.22822 1.24482-1.57676.82987-2.73859 2.07469-3.65145 3.81742h-.083v-4.48132h-7.71784l-.083 24.31535zm59.17013.58091c4.14938 0 7.46888-1.16182 10.12448-3.3195 2.6556-2.24066 3.9834-5.3112 4.06639-9.37759-.083-4.06639-1.41079-7.21992-4.06639-9.46058-2.6556-2.24067-5.9751-3.31951-10.12448-3.31951s-7.46888 1.16183-10.12448 3.31951c-2.65561 2.15767-3.98341 5.39419-4.06639 9.46058.083 4.06639 1.41078 7.21991 4.06639 9.37759 2.6556 2.15768 6.05809 3.3195 10.12448 3.3195zm0-5.89211c-1.90872-.083-3.3195-.74689-4.23237-2.07469-.91286-1.3278-1.3278-2.90457-1.24481-4.81328 0-1.90871.41494-3.48548 1.24481-4.81328.82988-1.3278 2.24067-1.9917 4.23237-2.07469 1.90871.083 3.3195.74689 4.23236 2.07469.91287 1.3278 1.3278 2.90457 1.3278 4.81328 0 1.82573-.41493 3.48548-1.3278 4.81328-.91286 1.3278-2.24066 1.9917-4.23236 2.07469zm43.90041-29.79254h-8.46473v13.85893h-.083c-1.07883-1.41079-2.32365-2.32366-3.73444-2.90457-1.41078-.58091-2.98755-.82987-4.6473-.82987-3.40249.16597-5.9751 1.41078-7.71784 3.90041-1.74274 2.48963-2.6556 5.3112-2.6556 8.38174 0 3.73444.99585 6.80498 2.82157 9.29461 1.90872 2.48963 4.64731 3.81743 8.29876 3.90041 1.9917 0 3.73444-.49792 5.22822-1.41078 1.49377-.91287 2.57261-2.07469 3.15352-3.48548h.083v4.39834h7.80083l-.083-35.10374zm-18.75518 22.65561c0-1.65975.41493-3.07054 1.3278-4.23237.91286-1.16182 2.15767-1.74274 3.81742-1.82572 1.57677 0 2.82158.6639 3.73444 1.82572.91287 1.16183 1.41079 2.6556 1.41079 4.56432 0 1.82572-.58091 3.3195-1.49377 4.48132-.99585 1.16183-2.15768 1.74274-3.65146 1.74274-1.57676 0-2.82157-.6639-3.73444-1.82572-.91286-1.16183-1.41078-2.73859-1.41078-4.73029zm36.09958 13.02904c4.14938 0 7.46888-1.16182 10.12448-3.3195 2.6556-2.24066 3.9834-5.3112 4.06639-9.37759-.083-4.06639-1.41079-7.21992-4.06639-9.46058-2.6556-2.24067-5.9751-3.31951-10.12448-3.31951s-7.46888 1.16183-10.12448 3.31951c-2.6556 2.24066-3.9834 5.39419-4.06639 9.46058.083 4.06639 1.41079 7.21991 4.06639 9.37759s6.05809 3.3195 10.12448 3.3195zm0-5.89211c-1.90871-.083-3.3195-.74689-4.23236-2.07469-.82988-1.3278-1.32781-2.90457-1.24482-4.81328 0-1.90871.41494-3.48548 1.24482-4.81328.82987-1.3278 2.24066-1.9917 4.23236-2.07469 1.90871.083 3.3195.74689 4.23237 2.07469.82987 1.3278 1.3278 2.90457 1.24481 4.81328 0 1.82573-.41494 3.48548-1.24481 4.81328-.82988 1.3278-2.24067 1.9917-4.23237 2.07469zm35.51867-19.3361c-.41493-.083-.91286-.16598-1.41079-.16598-.49792-.083-.99585-.083-1.49377-.083-1.82573 0-3.3195.49793-4.39834 1.41079-1.16183.91286-2.07469 2.15768-2.82158 3.65145h-.083v-4.48132h-7.71784v24.39834h8.46473v-10.29046c0-2.40664.49793-4.31535 1.57677-5.64315 1.07883-1.3278 2.57261-1.9917 4.56431-1.9917h1.41079c.49792 0 .91286.083 1.41079.24896l.49792-7.05394zm26.47303 14.93776v-1.57677c.083-3.73444-.91286-6.97095-2.73859-9.54357-1.90871-2.6556-5.06224-3.9834-9.54357-4.14937-3.90041 0-6.97095 1.16182-9.37759 3.3195-2.40664 2.24066-3.65145 5.3112-3.65145 9.37759.083 4.06639 1.41079 7.21992 4.06639 9.37759 2.6556 2.24067 5.9751 3.31951 10.12448 3.40249 1.57676 0 3.15353-.083 4.6473-.33195 1.49378-.24896 2.98755-.6639 4.31536-1.16182v-5.97511c-1.24482.66391-2.57262 1.16183-3.81743 1.41079-1.24482.33195-2.48963.41494-3.65145.41494-2.07469 0-3.73444-.33195-4.97926-1.07884-1.24481-.74689-1.9917-1.90871-2.24066-3.56846l16.84647.083zm-17.01245-4.81328c.083-1.41079.49793-2.6556 1.24482-3.56847.74689-.99585 1.90871-1.49377 3.40249-1.49377 1.65975 0 2.90456.49792 3.56846 1.49377.74689.99585 1.07884 2.15768 1.07884 3.56847h-9.29461zM58.397096 383.69129c-3.651452-.99585-6.473029-2.6556-8.79668-5.22821-2.323652-2.57262-3.40249-4.89627-4.06639-9.04565-1.244813-8.13278 2.240664-15.60166 8.962655-18.83817 3.40249-1.65975 7.966805-2.48963 12.531121-2.48963 2.821577 0 5.311203.49793 7.634855.91287l-.746888 7.3029s-.580913-.16598-2.240664-.58091c-1.576764-.41494-3.153527-.58092-4.730291-.58092-3.153527 0-6.224066.82988-8.215767 2.40664-4.730291 3.65146-4.730291 13.19502.165975 17.17843 2.987552 2.48962 8.381742 3.3195 13.19502 2.07468l2.240664-.58091.663901 7.38589c-1.410789.33195-4.39834.91287-8.049793.91287-4.813278 0-6.307054-.16598-8.547718-.82988zm-18.921161 4.23237H345.7v2.48962H39.475935z"/>
  <path fill="red" d="M89.849379 427.84067c0-.41494-.08299-.74689-.331951-.82988-.248962-.16597-.497925-.24896-.912863-.24896-1.327801-.24896-2.074688-.74689-2.323651-1.49377-.248963-.82988-.33195-1.82573-.33195-3.07054l-1.327801-25.56017c0-.91286-.08299-1.65975-.248963-2.32365-.165975-.58091-.746888-.91286-1.825726-.99585-.912863 0-1.576763.33195-1.991701.82987-.414938.49793-.829876 1.16183-1.327801 1.82573l-16.431535 23.07054-2.73859 3.90041c-.580912.82988-1.161825 1.57677-1.742738 2.32366-.663901.74688-1.493776 1.16182-2.489627 1.3278-.580913.083-1.078838.16597-1.576763.33195-.497925.16597-.746888.58091-.829876 1.24481 0 .41494.165975.6639.414938.74689.248963.083.580913.16597.912863.16597.912863 0 1.908714-.083 2.904564-.16597.995851-.083 1.908714-.16598 2.904565-.16598.912863 0 1.742738.083 2.572614.16598.829875.083 1.742738.083 2.572614.16597.414938 0 .746888-.083 1.078838-.24896.33195-.16598.497925-.49793.497925-.91286-.08299-.6639-.414937-.99585-1.161825-1.07884-.746888-.083-1.410789-.24896-2.157677-.41494-.746888-.16597-1.078838-.6639-1.161825-1.57676.165975-.91287.746888-2.24067 1.825726-3.90042 1.078838-1.65975 1.825726-2.90456 2.323651-3.56846h10.207469c.08299 1.07884.08299 2.15767.165975 3.23651.08299 1.07884.08299 2.15768.08299 3.23652-.08299 1.49377-.414938 2.40664-1.161826 2.6556-.746888.24896-1.493776.41494-2.157676.41494-.746888 0-1.161826.49792-1.161826 1.24481 0 .33195.08299.58091.33195.74689.248963.16597.497926.16597.829876.16597 1.410788 0 2.821577-.083 4.232365-.16597 1.410788-.083 2.821577-.16598 4.232365-.16598.912863 0 1.908714.083 2.821577.083.912863.083 1.908713.083 2.821577.083.414937 0 .829875-.083 1.078838-.16598.414937-.16597.580913-.49792.580913-.91286zm-12.614108-13.11203h-8.547718l8.13278-11.86722.414938 11.86722zm86.804979-19.41909c0-.33195-.083-.49793-.33195-.6639-.16598-.16598-.41494-.24896-.74689-.24896-.49792 0-.91286 0-1.3278.083-.41494 0-.91286.083-1.3278.16598-1.16183.083-2.24066.16597-3.40249.24896-1.16183 0-2.32365.083-3.48548 0-.82987 0-1.65975-.083-2.57261-.083-.82988-.083-1.65975-.083-2.57262-.083-.41493 0-.74688.083-1.07883.33195-.33195.24896-.49793.58091-.49793.99585.16598.74688.74689 1.16182 1.74274 1.07884.99585-.083 1.57676.41493 1.74274 1.3278 0 .24896 0 .49792-.083.82987-.083.24896-.16597.49793-.24896.82988l-6.47303 22.40664c-.24896 1.07883-.49793 1.9917-.82988 2.73859-.33195.74688-.99585 1.24481-2.07469 1.49377-.49792.083-1.07883.16598-1.74273.33195-.6639.16598-1.07884.58091-1.07884 1.16183 0 .33195.16597.58091.41494.74689.24896.16597.58091.24896.91286.24896 1.07884 0 2.24066-.083 3.3195-.16598 1.16183-.083 2.24066-.16597 3.40249-.16597 1.24481 0 2.40664.083 3.65145.16597 1.24482.083 2.40664.083 3.65145.083.49793 0 1.07884 0 1.74274-.083.6639-.083.99585-.41494 1.07884-1.07884-.083-.6639-.41494-.99585-.99585-1.07883-.58091-.083-1.24481-.16598-1.82573-.33195-.58091-.16598-.91286-.74689-.99585-1.74274 0-.41494.083-.82988.16598-1.24482.083-.41493.24896-.82987.33195-1.24481l6.47303-22.48963c.24896-.91286.49792-1.57676.82987-1.9917.33195-.41493.99585-.74688 1.90872-.91286.49792-.083.99585-.16598 1.57676-.41494.41494-.33195.6639-.74689.74689-1.24481zm33.69295.24896c-.083-.58091-.66391-.91286-1.65976-1.16182-1.07883-.24897-2.15767-.33195-3.3195-.41494-1.16182-.083-1.90871-.083-2.32365-.083-4.31535 0-8.79668.91286-13.44398 2.57261-4.64731 1.74274-8.63071 4.23237-11.95021 7.55187-3.3195 3.3195-5.06224 7.38589-5.14523 12.19917.083 3.07054.91286 5.56017 2.6556 7.55187 1.74274 1.9917 3.81743 3.48548 6.47303 4.48133 2.57262.99585 5.22822 1.49377 8.04979 1.49377 1.65976 0 3.31951-.083 5.06225-.33195 1.65975-.16597 3.3195-.49792 4.97925-.91286.58091-.083 1.16182-.24896 1.57676-.49793.41494-.16597.74689-.58091.99585-1.24481.41494-1.24481.82988-2.57261 1.24482-3.90041.33195-1.3278.74688-2.65561 1.07883-3.90042.58092-1.82572 1.3278-2.98755 2.15768-3.3195.82988-.33195 1.57676-.49793 2.24066-.49793.6639 0 .99585-.41493.99585-1.24481 0-.33195-.16597-.58091-.41493-.74689-.24897-.16597-.58092-.24896-.82988-.24896-1.24481 0-2.57261.083-3.81743.16598-1.3278.083-2.57261.16597-3.90041.16597-1.24481 0-2.48963-.083-3.65145-.16597-1.24482-.083-2.48963-.16598-3.65146-.16598-.41493 0-.82987.083-1.16182.24896-.41494.16598-.58091.49793-.58091.91287.083.58091.41493.91286.99585.99585.6639.083 1.24481.16597 1.90871.41493.6639.16598.99585.74689.99585 1.65976-.083.99585-.33195 2.24066-.91286 3.9834-.49793 1.65975-.99585 2.98755-1.3278 4.06639-.16598.74689-.49793 1.3278-.82988 1.65975-.33195.33195-.91286.49792-1.74274.49792-2.98755-.083-5.3112-.99585-6.80498-2.90456-1.57676-1.90871-2.32365-4.23237-2.32365-7.13693 0-2.6556.58092-5.3112 1.65975-7.80083 1.07884-2.48963 2.57262-4.73029 4.39834-6.639 1.82573-1.82573 4.14938-3.40249 6.80498-4.73029 2.73859-1.32781 5.39419-1.99171 8.0498-2.07469 1.24481 0 1.9917.24896 2.32365.74688.24896.49793.41493 1.32781.33195 2.48963 0 .33195 0 .58091-.083.91286 0 .33195-.083.58092-.083.91287 0 .49792.083.99585.24896 1.41079.16598.41493.58092.6639 1.16183.6639.6639-.083 1.07884-.33195 1.41079-.91287.33195-.58091.49792-1.16182.6639-1.65975.16597-.41494.41494-1.24481.82987-2.57261.33195-1.3278.58092-2.15768.66391-2.48963zm29.37759 32.28216c0-.41494-.083-.74689-.33195-.82988-.24896-.16597-.49793-.24896-.91286-.24896-1.32781-.24896-2.07469-.74689-2.32366-1.49377-.24896-.82988-.33195-1.82573-.33195-3.07054l-1.3278-25.56017c0-.91286-.083-1.65975-.24896-2.32365-.16598-.58091-.74689-.91286-1.82573-.99585-.91286 0-1.57676.33195-1.9917.82987-.41494.49793-.82987 1.16183-1.3278 1.82573l-16.43153 23.07054-2.73859 3.90041c-.58092.82988-1.16183 1.57677-1.74274 2.32366-.6639.74688-1.49378 1.16182-2.48963 1.3278-.58091.083-1.07884.16597-1.57676.33195-.49793.16597-.74689.58091-.82988 1.24481 0 .41494.16598.6639.41494.74689.24896.083.58091.16597.91286.16597.91287 0 1.90872-.083 2.90457-.16597.99585-.083 1.90871-.16598 2.90456-.16598.91287 0 1.74274.083 2.57262.16598.91286.083 1.74274.083 2.57261.16597.41494 0 .74689-.083 1.07884-.24896.33195-.16598.49792-.49793.49792-.91286-.083-.6639-.41493-.99585-1.16182-1.07884-.74689-.083-1.41079-.24896-2.15768-.41494-.74689-.16597-1.07884-.6639-1.16182-1.57676.16597-.91287.74688-2.24067 1.82572-3.90042 1.07884-1.65975 1.82573-2.90456 2.32365-3.56846h10.29046c.083 1.07884.083 2.15767.16598 3.23651.083 1.07884.083 2.15768.083 3.23652-.083 1.49377-.41493 2.40664-1.16182 2.6556-.74689.24896-1.49378.41494-2.15768.41494-.74689 0-1.16182.49792-1.16182 1.24481 0 .33195.083.58091.33195.74689.24896.16597.49792.16597.82987.16597 1.41079 0 2.82158-.083 4.23237-.16597 1.41078-.083 2.82157-.16598 4.23236-.16598.91286 0 1.90872.083 2.82158.083.91286.083 1.90871.083 2.82157.083.41494 0 .82988-.083 1.07884-.16598.33195-.16597.49793-.49792.49793-.91286zm-12.6971-13.11203h-8.54771l8.13278-11.86722.41493 11.86722zm-72.11618-19.25312c0-.33195-.083-.58091-.33195-.74688-.16597-.16598-.41494-.24897-.74689-.24897-1.07884 0-2.15767 0-3.23651.083s-2.15768.083-3.23652.083c-.58091 0-1.41079-.083-2.57261-.083-1.16183 0-1.90871.083-2.32365.41494-.083.083-.16598.24896-.16598.33195-.083.16597-.16597.24896-.16597.33195l-14.10789 21.3278-.58091-20.99585c0-.41494 0-.74689-.083-.99585-.083-.33195-.33195-.41494-.74688-.49793-1.16183 0-2.40664 0-3.56847.083h-3.56846c-.6639 0-1.32781-.083-1.99171-.083-.6639-.083-1.3278-.083-1.9917-.083-.41493 0-.82987.083-1.24481.16597-.41494.16598-.58091.41494-.6639.91286.16597.82988.82988 1.24482 1.90871 1.16183 1.16183 0 1.74274.41494 1.90872 1.16183 0 .58091-.16598 1.16182-.33195 1.74273-.24897.58092-.41494 1.16183-.58092 1.65976-1.24481 3.48547-2.48962 6.88796-3.73444 10.37344-1.244808 3.48548-2.489622 6.88797-3.817422 10.37344-.497926 1.49378-.995851 2.48963-1.493776 3.07054-.497926.58092-1.493776.99585-3.07054 1.24482-.414937.083-.829875.16597-1.161825.41493-.331951.16598-.497926.49793-.497926.99585 0 .41494.165975.6639.414938.82988.248963.083.580913.16597.995851.16597.912863 0 1.825726 0 2.738589-.083.912863-.083 1.825726-.083 2.738589-.083.829876 0 1.659751.083 2.489627.16597.829875.083 1.659745.083 2.489625.16598.41494 0 .74689-.083 1.07884-.33195.33195-.16598.49792-.49793.58091-.91286-.083-.74689-.41494-1.07884-1.16182-1.16183-.74689-.083-1.49378-.16597-2.24067-.33195-.746885-.16597-1.161823-.82987-1.161823-1.9917.08299-1.57676.6639-3.9834 1.742733-7.21992 1.07884-3.15352 2.15768-6.30705 3.40249-9.2946 1.16183-2.98756 1.99171-4.97926 2.40664-6.05809l.58092 24.39834c0 .74688.083 1.3278.24896 1.82572.16597.41494.6639.6639 1.49377.6639.82988 0 1.49378-.33195 1.99171-.91286.49792-.58091.91286-1.16183 1.3278-1.82573l16.43153-24.14937-5.39419 20.41493c-.16597.91287-.41494 1.74274-.74689 2.6556-.33195.91287-.99585 1.41079-1.90871 1.65976-.58091 0-1.16183.16597-1.82573.24896-.6639.16597-1.07883.58091-1.16182 1.24481 0 .41494.16597.6639.41494.82988.24896.16597.58091.24896.91286.24896 1.16182 0 2.40664-.083 3.56846-.16598 1.16183-.083 2.40664-.16597 3.56847-.16597 1.24481 0 2.48962.083 3.65145.16597 1.24481.083 2.48963.16598 3.65145.16598.49793 0 .82988-.083 1.24482-.24896.33195-.16598.58091-.49793.58091-.99585-.083-.58092-.33195-.99585-.91286-1.07884-.58092-.083-1.16183-.24896-1.74274-.41494-.58092-.16597-.91287-.6639-.91287-1.57676 0-.58092.083-1.24482.24897-1.90872.16597-.6639.24896-1.24481.41493-1.82572l5.22822-20.99585c.16598-.91287.41494-1.65975.74689-2.15768.33195-.49792.91286-.82988 1.90871-.99585.49793 0 .99585-.16598 1.49378-.33195.24896.16597.58091-.24896.58091-.82988z"/>
  <path fill="none" d="M310.43029 399.54191c-8.46473-.24896-7.05394 16.34855-4.73029 20.74689.99585 1.90872 2.40664 2.90457 4.73029 2.90457s3.9834-.91287 5.06224-2.82158c2.40664-4.23237 3.48548-20.58091-5.06224-20.82988zm5.47718 16.43154c-.16598 1.16183-.58091 2.82158-1.16183 3.90041-.91286 1.65976-2.32365 2.32366-4.23236 2.32366-1.90872 0-2.98755-.74689-3.90042-2.40664-.58091-1.07884-.91286-2.6556-1.16182-3.81743-.33195-1.82573-.49793-3.73444-.49793-5.56017 0-2.82157.49793-7.46888 3.07054-9.21161.74689-.49793 1.57676-.66391 2.48963-.66391 4.6473.083 5.64315 6.14108 5.80913 9.79254 0 1.82572-.16598 3.73444-.41494 5.64315z"/>
  <path fill="none" d="M319.80788 398.79503c-2.24066-3.23652-5.39419-4.81328-9.2946-4.81328-3.90042 0-6.97096 1.57676-9.21162 4.81328-2.57261 3.56846-3.23651 8.21576-3.23651 12.6141 0 4.31536.74688 8.96266 3.23651 12.61411 2.24066 3.15353 5.39419 4.81328 9.21162 4.81328 3.90041 0 6.97095-1.57676 9.21162-4.73029 2.57261-3.56847 3.23651-8.13278 3.23651-12.36515.083-4.48132-.58091-9.2946-3.15353-12.94605zm-.82987 24.6473c-2.07469 2.90456-4.89627 4.31535-8.46473 4.31535-3.56847 0-6.39004-1.49377-8.46473-4.39834-2.07469-2.90456-3.07054-6.97095-3.07054-12.03319 0-5.06224.99585-9.12863 3.07054-12.0332 2.07469-2.90456 4.89626-4.39834 8.46473-4.39834 3.65145 0 6.47303 1.49378 8.46473 4.39834 1.9917 2.90457 2.98755 7.05394 2.98755 12.28216.083 5.06224-.91286 9.04564-2.98755 11.86722z"/>
  <path fill="#025" d="M320.63776 398.21411c-2.40664-3.48547-5.80913-5.22821-10.04149-5.22821-4.23237 0-7.63486 1.74274-10.0415 5.14523-2.6556 3.73444-3.40249 8.6307-3.40249 13.11203 0 4.56431.74689 9.37759 3.40249 13.19502 2.40664 3.40249 5.80913 5.22822 10.0415 5.22822 4.14937 0 7.55186-1.74274 9.9585-5.14523 2.6556-3.73444 3.40249-8.46473 3.40249-12.94606s-.6639-9.54357-3.3195-13.361zm-.91286 25.80913c-2.24067 3.15353-5.39419 4.73029-9.21162 4.73029-3.90042 0-6.97096-1.57676-9.21162-4.81328-2.57261-3.65145-3.23651-8.29875-3.23651-12.6141 0-4.31536.74688-8.96266 3.23651-12.61411 2.24066-3.15353 5.39419-4.81328 9.21162-4.81328 3.90041 0 7.05394 1.57676 9.2946 4.81328 2.57262 3.65145 3.23652 8.46473 3.23652 12.86307 0 4.31535-.74689 8.87967-3.3195 12.44813z"/>
  <path fill="#025" d="M310.43029 400.45478c-.91286 0-1.74274.16597-2.48963.6639-2.57261 1.74274-3.07054 6.39004-3.07054 9.21162 0 1.82572.16598 3.73444.49793 5.56016.24896 1.16183.58091 2.73859 1.16183 3.81743.91286 1.65975 1.9917 2.40664 3.90041 2.40664s3.3195-.6639 4.23237-2.32365c.58091-1.07884.99585-2.6556 1.16182-3.90042.33195-1.90871.41494-3.81743.33195-5.72614-.083-3.56846-1.07884-9.54357-5.72614-9.70954zm3.48548 18.34025c-.82988 1.74273-2.15768 2.24066-3.40249 2.24066-1.3278 0-2.48963-.24896-3.3195-2.15768-.74689-1.74273-1.24482-4.97925-1.24482-7.55186 0-3.15353.33195-6.22407 1.41079-7.96681.74689-1.24481 2.07469-1.74274 3.07054-1.74274 1.07884 0 2.32365.74689 3.07054 2.07469.99585 1.74274 1.41079 4.56432 1.41079 7.63486.083 2.73859-.16598 5.72614-.99585 7.46888z"/>
  <path fill="#025" d="M319.061 399.29295c-1.99171-2.90456-4.81328-4.39834-8.46473-4.39834-3.56847 0-6.39005 1.49378-8.46473 4.39834-2.07469 2.90457-3.07054 6.88797-3.07054 12.0332 0 5.14522.99585 9.12863 3.07054 12.03319 2.07468 2.90457 4.89626 4.39834 8.46473 4.39834 3.56846 0 6.39004-1.41079 8.46473-4.31535 2.07468-2.90457 3.07054-6.80498 3.07054-11.86722-.083-5.22822-1.07884-9.37759-3.07054-12.28216zm-3.48548 20.99585c-1.07884 1.90872-2.73859 2.82158-5.06224 2.82158s-3.73444-.99585-4.73029-2.90457c-2.32365-4.31535-3.73444-20.91286 4.73029-20.74688 8.46473.33195 7.38589 16.68049 5.06224 20.82987z"/>
  <path fill="none" d="M280.13983 399.54191c-8.46473-.24896-7.05394 16.34855-4.73029 20.74689.99585 1.90872 2.40664 2.90457 4.73029 2.90457 2.32366 0 3.98341-.91287 5.06224-2.82158 2.40664-4.23237 3.40249-20.58091-5.06224-20.82988zm5.39419 16.43154c-.16597 1.16183-.58091 2.82158-1.16182 3.90041-.91286 1.65976-2.32365 2.32366-4.23237 2.32366h-.33195c-1.65975-.083-2.6556-.82988-3.48547-2.40664-.58092-1.07884-.91287-2.6556-1.16183-3.81743-.33195-1.82573-.49792-3.73444-.49792-5.56017 0-2.82157.49792-7.46888 3.07054-9.21161.74688-.49793 1.57676-.66391 2.48962-.66391 4.6473.16598 5.64316 6.14108 5.80913 9.79254 0 1.82572-.16597 3.73444-.49793 5.64315z"/>
  <path fill="none" d="M289.51743 398.79503c-2.24067-3.23652-5.39419-4.81328-9.29461-4.81328-3.90041 0-6.97095 1.57676-9.21162 4.81328-2.57261 3.56846-3.23651 8.21576-3.23651 12.6141 0 4.31536.74689 8.96266 3.23651 12.61411 2.24067 3.15353 5.39419 4.81328 9.21162 4.81328 3.90042 0 6.97096-1.57676 9.21162-4.73029 2.57261-3.56847 3.23651-8.13278 3.23651-12.36515 0-4.48132-.6639-9.2946-3.15352-12.94605zm-.82988 24.6473c-2.07469 2.90456-4.89626 4.31535-8.46473 4.31535-3.56846 0-6.39004-1.49377-8.46473-4.39834-2.07469-2.90456-3.07054-6.97095-3.07054-12.03319 0-5.06224.99585-9.12863 3.07054-12.0332 2.07469-2.90456 4.89627-4.39834 8.46473-4.39834 3.65145 0 6.47303 1.49378 8.46473 4.39834 1.9917 2.90457 2.98755 7.05394 2.98755 12.28216.083 5.06224-.99585 9.04564-2.98755 11.86722z"/>
  <path fill="#025" d="M280.13983 400.45478c-.91286 0-1.74273.16597-2.48962.6639-2.57262 1.74274-3.07054 6.39004-3.07054 9.21162 0 1.82572.16597 3.73444.49792 5.56016.24897 1.16183.58092 2.73859 1.16183 3.81743.82987 1.57676 1.82573 2.32365 3.48548 2.40664h.33195c1.90871 0 3.3195-.6639 4.23236-2.32365.58091-1.07884.99585-2.6556 1.16183-3.90042.33195-1.90871.41494-3.81743.33195-5.72614 0-3.56846-.99585-9.54357-5.64316-9.70954zm3.56847 18.34025c-.82988 1.74273-2.15768 2.24066-3.40249 2.24066-1.3278 0-2.48963-.24896-3.3195-2.15768-.74689-1.74273-1.24482-4.97925-1.24482-7.55186 0-3.15353.33195-6.22407 1.41079-7.96681.74689-1.24481 2.07469-1.74274 3.07054-1.74274 1.07884 0 2.32365.74689 3.07054 2.07469.99585 1.74274 1.41079 4.56432 1.41079 7.63486.083 2.73859-.16598 5.72614-.99585 7.46888z"/>
  <path fill="#025" d="M290.26432 398.21411c-2.40664-3.48547-5.80913-5.22821-10.0415-5.22821-4.23236 0-7.63485 1.74274-10.04149 5.14523-2.6556 3.73444-3.40249 8.6307-3.40249 13.11203 0 4.56431.74689 9.37759 3.40249 13.19502 2.40664 3.40249 5.80913 5.22822 10.04149 5.22822 4.14938 0 7.55187-1.74274 9.95851-5.14523 2.6556-3.73444 3.40249-8.46473 3.40249-12.94606.083-4.48133-.6639-9.54357-3.3195-13.361zm-.82988 25.80913c-2.24066 3.15353-5.39419 4.73029-9.21162 4.73029-3.90041 0-6.97095-1.57676-9.21162-4.81328-2.57261-3.65145-3.23651-8.29875-3.23651-12.6141 0-4.31536.74689-8.96266 3.23651-12.61411 2.24067-3.15353 5.39419-4.81328 9.21162-4.81328 3.90042 0 7.05394 1.57676 9.29461 4.81328 2.57261 3.65145 3.23651 8.46473 3.23651 12.86307-.083 4.31535-.74689 8.87967-3.3195 12.44813z"/>
  <path fill="#025" d="M288.68755 399.29295c-1.9917-2.90456-4.81328-4.39834-8.46473-4.39834-3.56846 0-6.39004 1.49378-8.46473 4.39834-2.07469 2.90457-3.07054 6.88797-3.07054 12.0332 0 5.14522.99585 9.12863 3.07054 12.03319 2.07469 2.90457 4.89627 4.39834 8.46473 4.39834 3.56847 0 6.39004-1.41079 8.46473-4.31535 2.07469-2.90457 3.07054-6.80498 3.07054-11.86722 0-5.22822-.99585-9.37759-3.07054-12.28216zm-3.48548 20.99585c-1.07883 1.90872-2.73858 2.82158-5.06224 2.82158-2.32365 0-3.73444-.99585-4.73029-2.90457-2.32365-4.31535-3.73444-20.91286 4.73029-20.74688 8.46473.33195 7.46888 16.68049 5.06224 20.82987z"/>
  <path fill="none" d="M250.67925 410.82822c-3.48547-.16597-6.39004 2.57262-6.55601 6.05809-.16598 3.48548 2.57261 6.39004 6.05809 6.55602 3.48547.16597 6.39004-2.57262 6.55601-6.05809.083-3.48548-2.57261-6.39004-6.05809-6.55602zm-.49792 11.78423c-2.98755-.083-5.31121-2.6556-5.22822-5.64315.083-2.98755 2.6556-5.3112 5.64316-5.22822 2.98755.083 5.3112 2.65561 5.22821 5.64316-.083 2.98755-2.6556 5.3112-5.64315 5.22821z"/>
  <path fill="none" d="M258.48008 408.58756c-1.3278-1.16183-2.90456-2.07469-4.56431-2.57262-.99585-.33195-2.07469-.49792-3.15353-.58091h-1.65975c.58091-1.24481 1.3278-2.48963 1.9917-3.65145.6639-1.07884 1.3278-2.07469 1.9917-3.07054.58091-.82988 1.16183-1.57676 1.82573-2.32365l1.07884-1.16183-6.55602-1.07884-.33195.33195c-1.24481 1.3278-2.40664 2.90457-3.40249 4.39834-1.3278 1.9917-2.48963 4.06639-3.56846 6.22407-1.65976 3.3195-3.90042 8.63071-3.56847 12.36515.16598 6.14107 5.06224 11.12033 11.20332 11.36929 1.57676.083 3.15353-.16598 4.56432-.74689 1.41078-.49792 2.73858-1.3278 3.81742-2.32365 2.24067-2.07469 3.56847-4.89627 3.73444-7.9668 0-.33195.083-.58092.083-.91287.083-1.74274-.24896-3.40249-.99585-4.89626-.49793-1.24482-1.41079-2.40664-2.48963-3.40249zm2.6556 9.12863c-.33195 5.89211-5.3112 10.53942-11.2863 10.29045-5.72614-.24896-10.29046-4.89626-10.37345-10.53941-.58091-6.14108 6.55602-18.50623 10.29046-22.32366l4.56432.74689c-2.07469 2.32365-5.31121 7.55187-6.722 10.78838.58092-.16597 1.16183-.24896 1.74274-.33195.49793-.083.91287-.083 1.41079 0 .99585.083 1.9917.24897 2.90456.49793 1.57677.49792 3.07054 1.3278 4.23237 2.40664 2.15768 1.90871 3.40249 4.6473 3.3195 7.63485 0 .33195 0 .58092-.083.82988z"/>
  <path fill="#025" d="M261.88257 411.57511c-.6639-1.41079-1.65975-2.6556-2.82157-3.73444-1.41079-1.24481-3.07054-2.24066-4.89627-2.82158-1.07884-.33195-2.24066-.58091-3.40249-.58091h-.16597c.41493-.74689.82987-1.49378 1.24481-2.15768.58091-.99585 1.24481-1.9917 1.9917-2.98755.58091-.74689 1.07884-1.57676 1.74274-2.24066l2.15768-2.48963-8.79669-1.41079-.6639.6639c-1.3278 1.3278-2.48962 2.98755-3.48547 4.56432-1.3278 1.9917-2.57262 4.14938-3.65146 6.30705-1.74273 3.56847-3.9834 8.87967-3.65145 12.86307.24897 6.63901 5.47718 11.95021 12.11618 12.19917 1.65976.083 3.40249-.16597 4.97926-.82987 1.49377-.58092 2.90456-1.41079 4.14938-2.57262 2.40663-2.24066 3.90041-5.3112 4.06639-8.54771 0-.33195.083-.6639.083-.91287.24897-1.74274-.16597-3.56846-.99585-5.3112zm.16598 6.22407c-.16598 3.07053-1.49378 5.89211-3.73444 7.9668-1.07884.99585-2.40664 1.82573-3.81743 2.32365-1.49378.58091-2.98755.82988-4.56431.74689-6.14108-.24896-11.03735-5.22822-11.20332-11.36929-.33195-3.81743 1.90871-9.04565 3.56846-12.36515 1.07884-2.15768 2.24066-4.23237 3.56847-6.22407.99585-1.49377 2.15767-3.15352 3.40248-4.39834l.33195-.33195 6.55602 1.07884-1.07884 1.16183c-.6639.74689-1.24481 1.57676-1.82572 2.32365-.6639.99585-1.3278 1.9917-1.9917 3.07054-.74689 1.16182-1.41079 2.40664-1.99171 3.65145h.16598c.49793-.083.99585-.083 1.49378 0 1.07883.083 2.15767.24896 3.15352.58091 1.65975.49793 3.23652 1.41079 4.56432 2.57262 1.07884.99585 1.90871 2.15767 2.57261 3.40249.74689 1.49377 1.07884 3.23651.99585 4.89626-.16597.33195-.16597.6639-.16597.91287z"/>
  <path fill="#025" d="M253.6668 406.84482c-.91286-.33195-1.90871-.49793-2.90456-.49793h-1.41079c-.58091.083-1.16182.16598-1.74274.33195 1.3278-3.3195 4.64731-8.46473 6.722-10.78838l-4.56432-.74689c-3.73444 3.90042-10.87137 16.18258-10.29046 22.32366.16598 5.64315 4.64731 10.29045 10.37345 10.53941 5.9751.24897 10.95435-4.31535 11.2863-10.29045 0-.24896.083-.58091.083-.82988.083-2.98755-1.16182-5.72614-3.3195-7.63485-1.16183-1.07884-2.57261-1.90872-4.23237-2.40664zm-3.56846 16.59751c-3.48548-.16598-6.22407-3.07054-6.05809-6.55602.16597-3.48547 3.07054-6.22406 6.55602-6.05809 3.48547.16598 6.22406 3.07054 6.05809 6.55602-.083 3.48547-3.07054 6.22406-6.55602 6.05809z"/>
  <path fill="#025" d="M250.59627 411.74108c-2.98756-.083-5.56017 2.24067-5.64316 5.22822-.083 2.98755 2.24067 5.56017 5.22822 5.64315 2.98755.083 5.56016-2.24066 5.64315-5.22821.16598-2.98755-2.24066-5.56017-5.22821-5.64316zm-.24897 9.79254c-2.40664 0-4.31535-1.90872-4.31535-4.31536 0-2.40664 1.90871-4.31535 4.31535-4.31535 2.40664 0 4.31536 1.90871 4.31536 4.31535 0 2.40664-1.99171 4.31536-4.31536 4.31536z"/>
</svg>
