<svg xmlns="http://www.w3.org/2000/svg" width="455.97375" height="117.58413">
  <defs>
    <clipPath id="a">
      <path d="M0 94.067h364.779V0H0v94.067z"/>
    </clipPath>
  </defs>
  <g clip-path="url(#a)" transform="matrix(1.25,0,0,-1.25,0,117.58413)">
    <path fill="#009" fill-rule="evenodd" d="M225.4179 93.253v-6.528c-.139-.006-.26-.016-.381-.016-7.096 0-14.189-.018-21.286.008-3.046.011-5.782-2.112-6.489-5.049-.123-.502-.194-1.029-.198-1.544-.01-7.05-.01-14.1-.005-21.15.004-3.211 2.439-6.021 5.619-6.499.377-.057.758-.091 1.136-.092 4.903-.006 9.805-.004 14.711-.004.382 0 .382 0 .382.392v17.204c0 .402 0 .402-.395.402h-11.346c-.352 0-.353.001-.353.344v6.183h18.622v-26.42c.028-.004.057-.01.084-.015.042.09.088.176.12.269 1.259 3.703 2.519 7.408 3.779 11.112 1.602 4.703 3.205 9.407 4.805 14.114 1.289 3.797 2.558 7.602 3.868 11.391 1.011 2.924 3.048 4.913 5.919 5.952 4.011 1.447 7.738.837 11.045-1.906 1.435-1.193 2.324-2.755 2.916-4.523 2.611-7.815 5.255-15.621 7.885-23.429 1.941-5.762 3.886-11.525 5.83-17.287.027-.089.05-.18.086-.307-.121-.007-.214-.019-.307-.019-8.678-.001-17.353.001-26.027-.006-.262 0-.326.077-.324.329.011 1.969.007 3.942.007 5.911v.307h17.592c-.106.33-.193.604-.286.875-3.146 9.282-6.288 18.565-9.434 27.847-.533 1.568-1.063 3.139-1.595 4.707-.486 1.426-1.926 2.431-3.463 2.424-1.581-.007-3-.995-3.487-2.426-1.893-5.584-3.786-11.169-5.679-16.753-2.355-6.95-4.719-13.902-7.074-20.852-.232-.685-.482-1.363-.693-2.054-.074-.247-.199-.3-.436-.3-1.862.008-3.727.005-5.589.005-7.069 0-14.137.02-21.204-.007-5.662-.02-10.771 3.577-12.617 8.996-.449 1.321-.683 2.684-.683 4.077-.011 7.085-.011 14.171-.004 21.258.006 6.143 4.472 11.598 10.49 12.793.897.177 1.823.27 2.732.275 7.112.02 14.225.011 21.338.011h.389zM112.6445 53.9966v6.545h.375c6.784 0 13.568 0 20.355.002.148 0 .303.009.444.048.365.098.58.42.564.825-.015.368-.267.667-.641.735-.146.026-.298.036-.447.036-1.889.004-3.781-.03-5.673.017-3.44.081-6.51 1.235-9.192 3.386-3.008 2.419-4.898 5.545-5.555 9.346-.806 4.668.27 8.912 3.253 12.61 2.326 2.882 5.347 4.682 8.978 5.401.971.194 1.979.289 2.969.293 6.892.025 13.783.013 20.675.013h.349v-6.567h-.378c-6.845 0-13.694.002-20.54-.003-4.216-.002-7.826-2.837-8.743-6.949-.684-3.049.062-5.777 2.16-8.1 1.458-1.615 3.301-2.549 5.461-2.804.821-.098 1.654-.069 2.484-.081 1.422-.021 2.845-.031 4.265-.043 3.219-.031 6.101-2.308 6.928-5.473 1.097-4.199-1.646-8.431-5.926-9.128-.453-.075-.913-.105-1.371-.106-6.819-.006-13.642-.003-20.463-.003h-.331z"/>
    <path fill="#009" fill-rule="evenodd" d="M112.6289 52.4248h21.004c4.328 0 8.041 3.089 8.832 7.348.885 4.746-2.314 9.447-7.051 10.39-1.101.22-2.213.183-3.325.195-1.333.011-2.665.001-4.001.022-3.654.057-6.611 2.653-7.174 6.212-.595 3.789 1.791 7.351 5.51 8.248.529.127 1.084.189 1.623.189 6.932.014 13.853.009 20.781.009h.276c.012-.063.033-.112.033-.162-.016-1.996-.038-3.992-.038-5.987 0-.309-.126-.337-.374-.337-6.743.006-13.482.006-20.223.005-.16 0-.32-.003-.477-.021-.39-.048-.666-.36-.687-.754-.025-.539.297-.898.84-.898.947 0 1.891.028 2.836.024 1.369-.007 2.743.054 4.105-.065 3.086-.271 5.849-1.414 8.258-3.368 2.863-2.325 4.735-5.296 5.467-8.912.963-4.741-.059-9.069-3.055-12.873-2.338-2.971-5.408-4.807-9.105-5.59-1.04-.218-2.096-.301-3.155-.301-6.841-.001-13.679-.001-20.517-.001-.383 0-.383 0-.383.392v6.235zm75.2978 40.8282V86.73c-.128-.008-.254-.021-.382-.021h-22.027c-3.223 0-5.979-2.29-6.561-5.457-.066-.379-.097-.772-.097-1.159-.004-7.006-.004-14.011-.002-21.018.002-3.395 2.418-6.172 5.765-6.635.34-.045.687-.057 1.031-.057 7.27-.005 14.543-.004 21.813-.004.392 0 .392-.001.392-.385 0-1.935-.007-3.868.005-5.804.002-.265-.072-.345-.344-.345-7.395.006-14.787-.01-22.184.009-6.144.017-11.525 4.483-12.74 10.521-.187.93-.271 1.866-.271 2.812.001 6.899.005 13.801 0 20.702-.002 3.409 1.087 6.412 3.352 8.959 1.982 2.231 4.462 3.634 7.399 4.171.847.155 1.719.223 2.579.223 7.3.017 14.595.011 21.894.011h.378zm57.6241-32.0078c1.357-.011 3.041-.006 4.401-.006h.369c-.793 2.369-1.563 4.667-2.336 6.967h-.071c-.035-.093-.079-.185-.109-.28-.717-2.12-1.436-4.238-2.149-6.359l-.105-.322zm-.408-1.188c-1.436-4.231-3.061-9.007-4.499-13.237-.086-.25-.181-.497-.255-.751-.046-.167-.129-.226-.3-.221-.316.007-.636.002-.953.002h-6.122c-.113 0-.227.01-.377.018.039.134.068.241.103.346 2.295 6.776 4.59 13.552 6.887 20.328 2.094 6.195 4.19 12.389 6.287 18.582.496 1.457 2.12 1.991 3.295 1.102.371-.279.612-.653.761-1.09 1.782-5.305 3.569-10.607 5.356-15.911 1.68-4.986 3.359-9.971 5.039-14.958.03-.082.056-.165.096-.282h-15.333c0 1.915.015 4.169.015 6.072m-19.7102 18.4995h-18.271c-.152 0-.3.001-.453-.013-.916-.072-1.482-.678-1.482-1.597v-14.815c0-.823.668-1.509 1.516-1.536.757-.021 1.519-.011 2.277-.02.48-.005.956-.012 1.431-.038.239-.013.305.082.299.307-.015.353-.015.707 0 1.061.006.221-.078.287-.295.287-1.093-.009-2.189-.004-3.287-.004-.353 0-.355.002-.355.341v5.963c0 .078.007.155.011.249h10.438c.004-.116.011-.219.016-.323v-14.073c0-.349-.005-.349-.344-.349-4.358 0-8.713-.004-13.065 0-2.478.002-4.513 1.588-5.059 3.943-.077.339-.126.697-.126 1.047-.004 7.041-.006 14.082-.002 21.123.002 2.456 1.897 4.601 4.333 4.924.308.041.62.056.925.057 7.033.002 14.065.001 21.099.001.44 0 .391.04.394-.401v-6.134z"/>
    <path fill="#009" fill-rule="evenodd" d="M167.0683 76.918h16.043c.014-.138.033-.256.033-.377.012-1.829.02-3.657.029-5.486v-.025c.002-.653.002-.653-.641-.653h-21.993v.328c0 3.101-.002 6.204.002 9.304.002 2.477 1.612 4.473 4.033 4.985.364.079.751.094 1.129.094 7.3.005 14.594.004 21.894.004h.345v-6.173c0-.361 0-.361-.36-.361-6.221-.001-12.442 0-18.662-.004-.194 0-.387-.005-.582-.024-.764-.072-1.352-.798-1.27-1.612m-.0107-14.729c-.052-.967.583-1.61 1.577-1.645.08-.004.159-.002.238-.002h18.606c.375 0 .38 0 .38-.366v-5.778c0-.346-.005-.347-.352-.347h-21.942c-2.555.001-4.651 1.827-4.994 4.36-.032.236-.03.476-.03.715-.002 3.074-.002 6.149-.002 9.222 0 .357 0 .357.361.357 7.305.001 14.61.001 21.916 0 .384 0 .372 0 .367-.373-.011-1.272-.011-2.544-.019-3.816-.004-.652-.012-1.307-.019-1.959-.004-.366-.004-.368-.363-.368h-15.724z"/>
    <path fill="#009" d="M5.8418 35.3536L-.0002-.0004h36.156l4.436 28.122h-10.445l-13.692-10.444h8.838l-1.139-7.233h-9.641l3.917 24.909h23.301l-8.787 10.444h-15.267l-11.835-10.444z"/>
    <path fill="#fff" d="M9.5918 34.5498l-5.072-31.336h28.122l3.43 21.694h-5.623l-5.457-4.018h4.821l-2.16-13.658h-16.873l4.955 31.335h19.283l-3.381 4.018h-13.659l-8.386-8.035z"/>
    <path fill="#009" d="M205.9082 35.3536l-5.843-35.354h36.157l4.436 28.122h-10.445l-13.693-10.444h8.838l-1.138-7.233h-9.642l3.917 24.909h23.302l-8.788 10.444h-15.267l-11.834-10.444z"/>
    <path fill="#fff" d="M209.6572 34.5498l-5.073-31.336h28.123l3.431 21.694h-5.625l-5.456-4.018h4.822l-2.161-13.658h-16.872l4.955 31.335h19.283l-3.382 4.018h-13.659l-8.386-8.035z"/>
    <path fill="#009" d="M67.0732 17.6773l-1.138-7.233h-8.838l1.138 7.233h8.838zM77.9372.0003l8.035 45.798h-24.908l-12.906-10.445h21.693l-1.137-7.232h-11.248l-12.89-10.444-2.795-17.677h36.156z"/>
    <path fill="#fff" d="M80.6494 42.5845h-18.479l-4.655-4.018h16.873l-2.16-13.659h-13.658l-9.977-8.838-2.293-12.856h17.676l.637 4.018h-12.053l2.16 13.659h16.873l-2.795-17.677h5.623l6.228 39.371z"/>
    <path fill="#009" d="M304.9023 17.6773l-1.139-7.233h-8.837l1.138 7.233h8.838zm10.864-17.677l8.034 45.798h-24.907l-12.905-10.445h21.693l-1.138-7.232h-11.248l-12.89-10.444-2.796-17.677h36.157z"/>
    <path fill="#fff" d="M318.4785 42.5845h-18.48l-4.655-4.018h16.874l-2.159-13.659h-13.66l-9.977-8.838-2.293-12.856h17.677l.637 4.018h-12.052l2.158 13.659h16.873l-2.795-17.677h5.625l6.227 39.371z"/>
    <path fill="#009" d="M151.2715 35.3536l-5.842-35.354h32.943l1.657 10.445h-20.088l1.139 7.233h20.087l1.641 10.444h-20.088l1.139 7.232h20.087l1.657 10.444h-22.498l-11.834-10.444z"/>
    <path fill="#fff" d="M155.0205 33.7461l-5.071-30.532h24.907l.636 4.017h-19.283l2.16 13.659h19.283l.636 4.018h-19.284l2.16 13.659h19.283l.637 4.017h-16.071l-9.993-8.838z"/>
    <path fill="#009" d="M247.6875 35.3536l-5.842-35.354h32.944l1.657 10.445h-20.087l1.139 7.233h20.086l1.64 10.444h-20.086l1.137 7.232h20.088l1.656 10.444h-22.496l-11.836-10.444z"/>
    <path fill="#fff" d="M251.4375 33.7461l-5.071-30.532h24.907l.637 4.017h-19.284l2.159 13.659h19.284l.636 4.018h-19.284l2.16 13.659h19.283l.636 4.017h-16.069l-9.994-8.838z"/>
    <path fill="#009" d="M350.2656 35.3536l-1.139-7.232h-10.445l1.139 7.232h10.445zm-2.779-17.676l-2.795-17.678h12.855l2.662 16.07-5.49 6.026 7.399 6.829 2.662 16.873h-24.909l-12.638-10.444-5.842-35.354h12.856l2.795 17.678h10.445z"/>
    <path fill="#fff" d="M351.8388 24.9078h-16.872l2.158 13.659h16.873l-2.159-13.659zm-20.856 8.838l-5.072-30.532h5.624l2.795 17.676h16.873l-2.795-17.676h5.624l2.16 12.052-4.989 5.624.636 4.018 6.261 4.821 2.158 12.856h-19.281l-9.994-8.839z"/>
    <path fill="#009" d="M89.4043 34.5498l-5.842-34.55h13.658l5.575 35.354h8.035l-5.574-35.354h13.658l5.574 35.354h7.232l-5.575-35.354h13.659l7.232 45.798h-44.994l-12.638-11.248z"/>
    <path fill="#fff" d="M93.1523 33.7461l-5.07-30.532h5.623l5.592 35.353h16.069l-5.591-35.353h5.624l5.591 35.353h15.266l-5.59-35.353h5.623l6.228 39.37h-39.371l-9.994-8.838z"/>
  </g>
</svg>
