<svg xmlns="http://www.w3.org/2000/svg" width="395.82626" height="381.02625">
  <defs>
    <clipPath id="a">
      <path d="M0 304.821h316.661V0H0v304.821z"/>
    </clipPath>
  </defs>
  <g clip-path="url(#a)" transform="matrix(1.25,0,0,-1.25,0,381.02625)">
    <path fill="#1d1d1b" d="M6.1612 248.3213c-2.5 4.5 7.48 49.5 7.48 49.5s2.977 6 18.249 6c8.086 0 75.005 1 138.402 1 56.328 0 109.877-1 116.913-1 14.956 0 17.456-10 17.456-10s8-37.35 7-43.5c-1-6.15-303-6.5-305.5-2"/>
    <path fill="#f5f5f5" d="M3.1612 208.8213s-3.161-45.166-3.161-76.833.161-121.667.161-121.667-1.477-7 6.5-7 95.5-3.321 156.5-3.321 141.652.821 145.5.821c8 0 8 8.5 8 8.5s-.351 73.542-.351 134.021c-.394 32.515-3.149 65.479-3.149 65.479l-1.5 46.5s1.466 6.5-7.5 6.5-65.999 2.155-141 2.155c-75 0-139.5-2.155-148-2.155s-10-5.5-10-5.5l-2-47.5z"/>
    <path fill="#1d1d1b" d="M288.6612 214.8213h-215c-4.4 0-8 3.6-8 8v26.5c0 4.4 3.6 8 8 8h215c4.4 0 8-3.6 8-8v-26.5c0-4.4-3.6-8-8-8m0-197h-215c-4.4 0-8 3.6-8 8v149.5c0 4.4 3.6 8 8 8h215c4.4 0 8-3.6 8-8v-149.5c0-4.4-3.6-8-8-8"/>
    <path fill="none" stroke="#fff" stroke-width="2" stroke-miterlimit="10" d="M285.4971 154.8213H79.6611c-2.75 0-5 2.25-5 5v9.236c0 2.75 2.25 5 5 5h205.836c2.75 0 5-2.25 5-5v-9.236c0-2.75-2.25-5-5-5z"/>
    <path fill="#fff" d="M94.2458 158.3144h-13.917c-1.1 0-2 .9-2 2v6.25c0 1.1.9 2 2 2h13.917c1.1 0 2-.9 2-2v-6.25c0-1.1-.9-2-2-2m21.3289 0h-13.917c-1.1 0-2 .9-2 2v6.25c0 1.1.9 2 2 2h13.917c1.1 0 2-.9 2-2v-6.25c0-1.1-.9-2-2-2m21.3288 0h-13.917c-1.1 0-2 .9-2 2v6.25c0 1.1.9 2 2 2h13.917c1.1 0 2-.9 2-2v-6.25c0-1.1-.9-2-2-2m21.3289 0h-13.917c-1.1 0-2 .9-2 2v6.25c0 1.1.9 2 2 2h13.917c1.1 0 2-.9 2-2v-6.25c0-1.1-.9-2-2-2m21.3288 0h-13.917c-1.1 0-2 .9-2 2v6.25c0 1.1.9 2 2 2h13.917c1.1 0 2-.9 2-2v-6.25c0-1.1-.9-2-2-2m21.3289 0h-13.917c-1.1 0-2 .9-2 2v6.25c0 1.1.9 2 2 2h13.917c1.1 0 2-.9 2-2v-6.25c0-1.1-.9-2-2-2m21.3288 0h-13.917c-1.1 0-2 .9-2 2v6.25c0 1.1.9 2 2 2h13.917c1.1 0 2-.9 2-2v-6.25c0-1.1-.9-2-2-2m21.3289 0h-13.917c-1.1 0-2 .9-2 2v6.25c0 1.1.9 2 2 2h13.917c1.1 0 2-.9 2-2v-6.25c0-1.1-.9-2-2-2m21.3288 0h-13.917c-1.1 0-2 .9-2 2v6.25c0 1.1.9 2 2 2h13.917c1.1 0 2-.9 2-2v-6.25c0-1.1-.9-2-2-2m21.3288 0h-13.917c-1.1 0-2 .9-2 2v6.25c0 1.1.9 2 2 2h13.917c1.1 0 2-.9 2-2v-6.25c0-1.1-.9-2-2-2"/>
    <path fill="none" stroke="#fff" stroke-width="2" stroke-miterlimit="10" d="M285.4971 129.3213H79.6611c-2.75 0-5 2.25-5 5v9.236c0 2.75 2.25 5 5 5h205.836c2.75 0 5-2.25 5-5v-9.236c0-2.75-2.25-5-5-5z"/>
    <path fill="#fff" d="M94.2458 133.4879h-13.917c-1.1 0-2 .9-2 2v5.25c0 1.1.9 2 2 2h13.917c1.1 0 2-.9 2-2v-5.25c0-1.1-.9-2-2-2m21.2178 0h-13.917c-1.1 0-2 .9-2 2v5.25c0 1.1.9 2 2 2h13.917c1.1 0 2-.9 2-2v-5.25c0-1.1-.9-2-2-2m21.2177 0h-13.917c-1.1 0-2 .9-2 2v5.25c0 1.1.9 2 2 2h13.917c1.1 0 2-.9 2-2v-5.25c0-1.1-.9-2-2-2m21.2177 0h-13.917c-1.1 0-2 .9-2 2v5.25c0 1.1.9 2 2 2h13.917c1.1 0 2-.9 2-2v-5.25c0-1.1-.9-2-2-2m21.2178 0h-13.917c-1.1 0-2 .9-2 2v5.25c0 1.1.9 2 2 2h13.917c1.1 0 2-.9 2-2v-5.25c0-1.1-.9-2-2-2m21.2177 0h-13.917c-1.1 0-2 .9-2 2v5.25c0 1.1.9 2 2 2h13.917c1.1 0 2-.9 2-2v-5.25c0-1.1-.9-2-2-2m21.2177 0h-13.917c-1.1 0-2 .9-2 2v5.25c0 1.1.9 2 2 2h13.917c1.1 0 2-.9 2-2v-5.25c0-1.1-.9-2-2-2m21.2178 0h-13.917c-1.1 0-2 .9-2 2v5.25c0 1.1.9 2 2 2h13.917c1.1 0 2-.9 2-2v-5.25c0-1.1-.9-2-2-2m21.2177 0h-13.917c-1.1 0-2 .9-2 2v5.25c0 1.1.9 2 2 2h13.917c1.1 0 2-.9 2-2v-5.25c0-1.1-.9-2-2-2"/>
    <path fill="#e20613" d="M285.2054 133.4879h-13.917c-1.1 0-2 .9-2 2v5.25c0 1.1.9 2 2 2h13.917c1.1 0 2-.9 2-2v-5.25c0-1.1-.9-2-2-2"/>
    <path fill="none" stroke="#fff" stroke-width="2" stroke-miterlimit="10" d="M285.4971 27.8213H79.6611c-2.75 0-5 2.25-5 5v77.236c0 2.75 2.25 5 5 5h205.836c2.75 0 5-2.25 5-5v-77.236c0-2.75-2.25-5-5-5z"/>
    <path fill="#fff" d="M93.9112 99.1546h-13.917c-1.1 0-2 .9-2 2v6.25c0 1.1.9 2 2 2h13.917c1.1 0 2-.9 2-2v-6.25c0-1.1-.9-2-2-2m21.3289 0h-13.917c-1.1 0-2 .9-2 2v6.25c0 1.1.9 2 2 2h13.917c1.1 0 2-.9 2-2v-6.25c0-1.1-.9-2-2-2m21.3288 0h-13.917c-1.1 0-2 .9-2 2v6.25c0 1.1.9 2 2 2h13.917c1.1 0 2-.9 2-2v-6.25c0-1.1-.9-2-2-2m21.3289 0h-13.917c-1.1 0-2 .9-2 2v6.25c0 1.1.9 2 2 2h13.917c1.1 0 2-.9 2-2v-6.25c0-1.1-.9-2-2-2m21.3288 0h-13.917c-1.1 0-2 .9-2 2v6.25c0 1.1.9 2 2 2h13.917c1.1 0 2-.9 2-2v-6.25c0-1.1-.9-2-2-2m21.3289 0h-13.917c-1.1 0-2 .9-2 2v6.25c0 1.1.9 2 2 2h13.917c1.1 0 2-.9 2-2v-6.25c0-1.1-.9-2-2-2m21.3288 0h-13.917c-1.1 0-2 .9-2 2v6.25c0 1.1.9 2 2 2h13.917c1.1 0 2-.9 2-2v-6.25c0-1.1-.9-2-2-2m21.3289 0h-13.917c-1.1 0-2 .9-2 2v6.25c0 1.1.9 2 2 2h13.917c1.1 0 2-.9 2-2v-6.25c0-1.1-.9-2-2-2m21.3288 0h-13.917c-1.1 0-2 .9-2 2v6.25c0 1.1.9 2 2 2h13.917c1.1 0 2-.9 2-2v-6.25c0-1.1-.9-2-2-2M104.5577 78.4879h-13.917c-1.1 0-2 .9-2 2v6.25c0 1.1.9 2 2 2h13.917c1.1 0 2-.9 2-2v-6.25c0-1.1-.9-2-2-2m21.245 0h-13.917c-1.1 0-2 .9-2 2v6.25c0 1.1.9 2 2 2h13.917c1.1 0 2-.9 2-2v-6.25c0-1.1-.9-2-2-2m21.2449 0h-13.917c-1.1 0-2 .9-2 2v6.25c0 1.1.9 2 2 2h13.917c1.1 0 2-.9 2-2v-6.25c0-1.1-.9-2-2-2m21.245 0h-13.917c-1.1 0-2 .9-2 2v6.25c0 1.1.9 2 2 2h13.917c1.1 0 2-.9 2-2v-6.25c0-1.1-.9-2-2-2m21.2449 0h-13.917c-1.1 0-2 .9-2 2v6.25c0 1.1.9 2 2 2h13.917c1.1 0 2-.9 2-2v-6.25c0-1.1-.9-2-2-2m21.245 0h-13.917c-1.1 0-2 .9-2 2v6.25c0 1.1.9 2 2 2h13.917c1.1 0 2-.9 2-2v-6.25c0-1.1-.9-2-2-2m21.2449 0h-13.917c-1.1 0-2 .9-2 2v6.25c0 1.1.9 2 2 2h13.917c1.1 0 2-.9 2-2v-6.25c0-1.1-.9-2-2-2m21.245 0h-13.917c-1.1 0-2 .9-2 2v6.25c0 1.1.9 2 2 2h13.917c1.1 0 2-.9 2-2v-6.25c0-1.1-.9-2-2-2m21.2449 0h-13.917c-1.1 0-2 .9-2 2v6.25c0 1.1.9 2 2 2h13.917c1.1 0 2-.9 2-2v-6.25c0-1.1-.9-2-2-2M115.5577 58.1546h-13.917c-1.1 0-2 .9-2 2v6.25c0 1.1.9 2 2 2h13.917c1.1 0 2-.9 2-2v-6.25c0-1.1-.9-2-2-2m21.245 0h-13.917c-1.1 0-2 .9-2 2v6.25c0 1.1.9 2 2 2h13.917c1.1 0 2-.9 2-2v-6.25c0-1.1-.9-2-2-2m21.2449 0h-13.917c-1.1 0-2 .9-2 2v6.25c0 1.1.9 2 2 2h13.917c1.1 0 2-.9 2-2v-6.25c0-1.1-.9-2-2-2m21.245 0h-13.917c-1.1 0-2 .9-2 2v6.25c0 1.1.9 2 2 2h13.917c1.1 0 2-.9 2-2v-6.25c0-1.1-.9-2-2-2m21.2449 0h-13.917c-1.1 0-2 .9-2 2v6.25c0 1.1.9 2 2 2h13.917c1.1 0 2-.9 2-2v-6.25c0-1.1-.9-2-2-2m9.6869-21.9583h-55.917c-1.1 0-2 .9-2 2v6.25c0 1.1.9 2 2 2h55.917c1.1 0 2-.9 2-2v-6.25c0-1.1-.9-2-2-2m11.5581 21.9583h-13.917c-1.1 0-2 .9-2 2v6.25c0 1.1.9 2 2 2h13.917c1.1 0 2-.9 2-2v-6.25c0-1.1-.9-2-2-2m21.2449 0h-13.917c-1.1 0-2 .9-2 2v6.25c0 1.1.9 2 2 2h13.917c1.1 0 2-.9 2-2v-6.25c0-1.1-.9-2-2-2m21.245 0h-13.917c-1.1 0-2 .9-2 2v6.25c0 1.1.9 2 2 2h13.917c1.1 0 2-.9 2-2v-6.25c0-1.1-.9-2-2-2m21.2449 0h-13.917c-1.1 0-2 .9-2 2v6.25c0 1.1.9 2 2 2h13.917c1.1 0 2-.9 2-2v-6.25c0-1.1-.9-2-2-2m.3535 41h-13.917c-1.1 0-2 .9-2 2v6.25c0 1.1.9 2 2 2h13.917c1.1 0 2-.9 2-2v-6.25c0-1.1-.9-2-2-2M74.661 36.988h74.958v8.667H74.661v-8.667zm140.585 0h74.958v8.667h-74.958v-8.667z"/>
    <path fill="#e20613" d="M248.536 230.258h-14.592v13.846h14.592v-13.846z"/>
    <path fill="#fff" d="M250.536 230.258h15.75v13.814h-15.75v-13.814zm-34.342 0h15.75v13.814h-15.75v-13.814z"/>
    <path fill="#fff" d="M199.11 224.321h18.084v24.85H199.11v-24.85zm-126 0h44.353v24.85H73.11v-24.85z"/>
    <path fill="none" stroke="#fff" stroke-miterlimit="10" d="M195.4112 224.3213h-72.759c-1.1 0-2 .9-2 2v20.85c0 1.1.9 2 2 2h72.759c1.1 0 2-.9 2-2v-20.85c0-1.1-.9-2-2-2z"/>
    <path d="M20.9411 242.8271c.588 0 1.152-.041 1.704.02.225.025.488.229.618.428.135.206.174.504.177.763.017 1.279.014 2.559.002 3.839-.002.232-.026.488-.127.689-.098.198-.288.457-.47.487-.66.107-1.337.165-1.967-.036-.135-1.111-.104-5.405.063-6.19m-1.708-.494v7.178c.153.226.407.28.682.28.803.001 1.606.021 2.407-.006 1.145-.038 1.81-.705 1.831-1.855.023-1.307.022-2.615-.002-3.922-.021-1.115-.663-1.8-1.744-1.848-.89-.04-1.783-.017-2.674 0-.161.003-.321.108-.5.173m-4.7059 6.7549c-.064-.243-.156-.434-.157-.625-.012-1.664-.014-3.329.002-4.993.002-.21.127-.42.194-.625.792-.013 1.496-.141 2.226.097.217 1.102-.036 2.208.156 3.309.26.187.518.373.798.574-.074.753.194 1.526-.205 2.263h-3.014zm-.815.444c.557.302 1.499.365 3.939.26.293-.013.293-.013.746-.302.016-.145.052-.319.052-.492.004-1.965.002-3.93.002-5.895 0-.12.003-.239-.003-.358-.019-.347-.203-.581-.549-.583-1.309-.008-2.618.007-3.927.023-.074.001-.147.094-.215.14-.128.646-.16 6.082-.045 7.207m24.2894-4.0182c-1.053.402-2.167-.07-3.198.326v3.762c.129.055.28.165.44.181 1.089.11 3.05.014 3.59-.176v-2.063h-.573c-.052.523-.098.983-.149 1.497-.872.139-1.683.095-2.544.036-.167-.856-.085-1.647-.063-2.522 1.056-.375 2.18.009 3.195-.226.229-.651.28-2.624.122-3.978-.079-.052-.176-.169-.274-.171-1.072-.02-2.145-.028-3.217-.022-.166.001-.332.084-.53.139v2.085c.442.172.865.142 1.346.016.03-.48.059-.942.088-1.401.588-.313 1.133-.153 1.742-.138.094.919.059 1.766.025 2.655m-8.1089-1.0563h1.264c.067-.521.132-1.027.2-1.556.585-.12 1.104-.145 1.705.023.191.808.045 1.634.091 2.392-.239.34-.526.369-.835.364-.537-.007-1.073-.007-1.609.003-.232.004-.462.043-.73.07-.261 1.253-.075 2.482-.135 3.672.146.318.395.354.68.369 1.984.105 2.91.031 3.432-.319-.123-.629.068-1.31-.158-1.993-.142.008-.253.014-.373.02-.281.492.074 1.111-.396 1.581h-2.337c-.312-.853-.251-1.705-.045-2.584 1.062-.266 2.121.063 3.203-.221.156-1.28-.023-2.553.105-3.748-.175-.358-.434-.383-.715-.381-.894.004-1.788-.01-2.682.005-.627.011-.767.195-.727.824.03.464.04.929.062 1.479m9.7592-1.9129v6.985c.192.083.396.244.604.249 1.065.026 2.13.012 3.237.012.025-.239.043-.407.063-.604-.566-.2-1.132-.069-1.685-.106-.516-.035-1.09.144-1.536-.482 0-.477-.017-1.039.005-1.6.021-.522.238-.717.795-.738.475-.018.952-.004 1.428-.004h.932c.017-.195.028-.326.047-.549-.396-.01-.744-.042-1.09-.025-1.102.054-1.296-.138-1.238-1.276.016-.327-.013-.656.01-.982.012-.167.091-.33.162-.57.51-.014 1.007-.029 1.505-.043.308-.008.604-.034.675-.494-.143-.054-.292-.156-.444-.158-.892-.016-1.785-.004-2.678-.011-.315-.003-.596.037-.792.396m-13.4491-.2258c0 .794-.025 1.537.008 2.278.025.557-.147.981-.6 1.309-.239.173-.443.393-.662.589 0 1.038-.003 2.046.008 3.053.001.063.112.126.172.189.325-.053.341-.283.341-.528-.002-.714-.001-1.428-.001-2.228.453-.376.926-.769 1.413-1.174.654.304 1.146.712 1.543 1.206.209.896-.134 1.802.202 2.656.015.04.098.053.16.084.063-.055.186-.112.187-.171.011-1.008.008-2.017.008-3.081-.183-.173-.377-.408-.618-.575-.574-.397-.783-.921-.736-1.612.046-.679.01-1.363.01-2.069-.494-.121-.917-.168-1.435.074m20.9305-.1042h-1.386v3.097c-.444.354-.91.726-1.28 1.02 0 1.209-.002 2.243.01 3.277 0 .047.138.093.229.15.441-.392.191-.901.232-1.348.039-.442.008-.891.008-1.283.676-.826.801-.927 1.585-1.283.244.173.515.355.775.55.485.364.741.824.682 1.461-.044.473-.023.954-.002 1.43.007.157.104.31.205.592.162-.225.324-.347.328-.474.024-.834.042-1.671-.001-2.504-.012-.231-.211-.471-.369-.672-.145-.184-.349-.323-.528-.48-.358-.315-.517-.695-.496-1.186.031-.74.008-1.483.008-2.347"/>
    <path fill="none" stroke="#bd1622" stroke-width=".5" stroke-miterlimit="10" d="M54.4947 249.7016v2.426c0 .357.138.662.413.914.281.258.621.387 1.02.387h3.093c.118 0 .217.035.299.105.082.076.123.17.123.281 0 .106-.041.197-.123.273-.088.076-.187.114-.299.114h-4.526v1.477h5.142c.398 0 .735-.129 1.01-.387.282-.258.422-.563.422-.914v-1.125c0-.363-.14-.671-.422-.923-.287-.252-.624-.378-1.01-.378h-3.094c-.117 0-.22-.038-.308-.114-.076-.076-.114-.167-.114-.273v-.386h4.948v-1.477h-6.574z"/>
  </g>
</svg>
