<svg xmlns="http://www.w3.org/2000/svg" width="181.63251" height="294.83499">
  <defs>
    <clipPath id="a">
      <path d="M0 235.868h145.306V0H0v235.868z"/>
    </clipPath>
    <linearGradient id="b" x2="1" gradientTransform="matrix(0,29.797281,29.797281,0,64.454468,98.612198)" gradientUnits="userSpaceOnUse">
      <stop offset="0" stop-color="#f2e500"/>
      <stop offset=".3" stop-color="#f2e500"/>
      <stop offset=".6" stop-color="#f39519"/>
      <stop offset="1" stop-color="#e6680b"/>
    </linearGradient>
    <clipPath id="c">
      <path d="M0 235.868h145.306V0H0v235.868z"/>
    </clipPath>
  </defs>
  <g clip-path="url(#a)" transform="matrix(1.25,0,0,-1.25,0,294.835)">
    <path fill="#575756" d="M118.4972 171.3254h-91.689c-1.239 0-2.253 1.014-2.253 2.253l.451 40.775c0 1.239 1.014 2.253 2.253 2.253h90.787c1.24 0 2.253-1.014 2.253-2.253l.451-40.775c0-1.239-1.014-2.253-2.253-2.253m26.808 2.67l-3.629 48.797c-.627 8.559-4.833 13.076-9.413 13.076h-119.22c-4.581 0-8.787-4.517-9.414-13.076l-3.629-48.797c0-.107.008-.18.022-.229-.013-.099-.022-.199-.022-.301V2.2534c0-1.24 1.014-2.253 2.253-2.253h140.799c1.24 0 2.253 1.013 2.253 2.253v171.212c0 .102-.009.202-.022.301.014.049.022.122.022.229"/>
    <path fill="#1d1d1b" d="M126.0468 35.4816H19.2588c-6.318 0-11.487 5.169-11.487 11.487v106.45c0 6.317 5.169 11.486 11.487 11.486h106.788c6.318 0 11.487-5.169 11.487-11.486v-106.45c0-6.318-5.169-11.487-11.487-11.487M58.967.052H41.395v22.926h17.572V.052z"/>
    <path fill="none" stroke="#9c9b9b" stroke-width="1.72300005" stroke-miterlimit="10" d="M19.52 157.6057h107.55197M19.52 136.4283l108.30155-.24986016"/>
  </g>
  <path fill="url(#b)" d="M63.571846 127.98c-.424792-.507-.203453-1.66-.203453-1.66l1.007205-4.382h6.694946c.137498 0 .212396-.099.166563-.223l-.127438-.535c-.04583-.123-.19451-.223-.333126-.223h-6.151659l5.233885-22.345 5.873309 25.622H68.69618c-.183331 0-.370016.134-.415849.298l-.109552.666c-.04583.165.06707.298.250404.298h7.642903l.624892 2.909H64.699781s-.04136.005-.111787.005c-.21575 0-.695318-.047-1.016148-.43m15.497085-.004c-.67296-.507-1.020619-1.661-1.020619-1.661l-1.193889-4.379h6.000747c.13638 0 .162091-.1.05477-.224l-.344305-.534c-.107316-.124-.304061-.223-.442678-.223h-5.459695l-6.595456-22.323 17.93405 25.598h-6.340581c-.181095 0-.301826.134-.266054.298l.185567.666c.03354.164.210161.298.393492.298h6.94535l2.08707 2.908H80.399196s-.03913.005-.108434.005c-.214632 0-.714321-.047-1.221836-.429m-32.945977.424H35.166668l3.46988-3.029h6.8984l3.032791-3.326c.44715-.478.38902-.865-.129673-.865h-.681903l-3.415105 3.054h-4.433487l29.455975-25.619L32.844844 128.4h-9.960256s-1.475593-.383-1.475593-1.439c0-1.057.811576-1.569.811576-1.569l47.142975-26.777-18.92225 26.475s-.684139 1.209-1.916036 2.324c-.998261.905-1.958515.991-2.284934.991-.07602 0-.117377-.005-.117377-.005m-16.415977-3.84c-.632716.477-.716557.864-.191156.864h2.365421l4.796796-3.677c.633835-.478.385667-.865-.139734-.865h-1.369395l-5.461932 3.678zm83.538713 3.845l-4.80239-3.659c-.74227-.478-1.43088-.451-1.89144-.451-.45945 0-1.13353.441-.54888.856l3.72252 3.215-3.73258.039-6.049931-5.214c-.579059-.494-1.647746-1.913-.666253-1.886h1.520304l-29.770093-22.69 34.320963 22.69h1.86573c.52764 0 1.30679.444 2.05912.921l8.37623 6.179h-4.4033zm-20.240226 0l-22.643652-29.79 25.474108 22.342h-3.912558c-.138616 0-.212396.1-.166563.223l.126319.535c.04695.124.19451.223.333127.223h4.598933l3.09651 2.594h-4.65818c-.138616 0-.213514.1-.166563.223l.224692.517c.04583.124.19451.224.333127.224h5.344556l3.33909 2.909H93.005459zM56.48788 128.4l1.373867-3.151c.203453-.414-.0045-.751-.461682-.751-.458328 0-.994908.337-1.198361.751l-1.706993 3.151h-4.719663l4.128308-6.299c.31524-.477.542169-.905 1.543784-.921h1.195007l13.053412-22.565-8.513727 22.565h.849584c.823873.016 1.08322.312.958018.808l-1.926096 6.412H56.48788z" transform="matrix(1.25,0,0,-1.25,0,294.835)"/>
  <g clip-path="url(#c)" transform="matrix(1.25,0,0,-1.25,0,294.835)">
    <path fill="#e6680b" d="M122.469934 126.0214h-5.125451s2.9970197 2.342 3.2474234 2.565c.2448143.219.8205194.421 1.0742767.421l2.7633839.009s.857409.137 1.077631.419c.217985.28-.396846.438-.396846.438l-3.3312636-.006c-.1453236 0 .6863746.463.7992796.564.109552.099.249286.182.424792.252.173271.07.332009.104.479568.104h3.899144c.252639 0 .577941-.067.61483-.195.03577-.129.109552-.28-.08719-.456 0 0-.327537-.387-.931189-.944-.602538-.555-1.61086-.739-1.936161-.868-.326419-.13-1.45659-.155-1.709229-.155l-1.407403-.073-1.1256991-.909h2.5062731c.137498 0 .217985-.036.239225-.105.022357-.069-.02124-.154-.131909-.251-.11067-.101-.807105-.81-.943486-.81"/>
  </g>
  <path fill="#fff" d="M28.862423 109.9982h-.941162l-1.823731-2.16797h-1.021728v2.16797h-.725098v-5.45288h1.5271q.494385 0 .823974.0659.32959.0623.593262.22705.296631.18676.461426.47241.168457.28198.168457.71777 0 .5896-.296631.98877-.296631.39551-.81665.59693l2.050781 2.38403zm-1.695557-3.91846q0-.23437-.08423-.41382-.08057-.1831-.270996-.30761-.157471-.1062-.373535-.14649-.216065-.0439-.509034-.0439H25.0758v2.0581h.732422q.344238 0 .600586-.0586.256347-.0623.435791-.22705.164795-.15381.241699-.35156.08057-.20142.08057-.50904zm5.991211 3.91846h-3.592529v-5.45288h3.592529v.64453h-2.867431v1.49414h2.867431v.64453h-2.867431v2.02515h2.867431v.64453zm5.36499-.39551q-.201416.0879-.36621.1648-.161133.0769-.424805.16113-.223389.0696-.487061.11719-.260009.0513-.574951.0513-.593262 0-1.080322-.1648-.483399-.16846-.842285-.52368-.351563-.3479-.549317-.88257-.197754-.53833-.197754-1.24878 0-.67383.19043-1.20483.19043-.53101.549316-.89722.347901-.35522.838624-.54199.494384-.18677 1.09497-.18677.439453 0 .875244.1062.439454.1062.974121.37354v.86059h-.05493q-.45044-.37719-.893555-.54931-.443115-.17212-.948486-.17212-.413819 0-.74707.1355-.32959.13183-.5896.41381-.252686.27466-.395508.69581-.13916.41748-.13916.96679 0 .57495.153809.98877.15747.41382.402832.67383.256347.271.596923.40283.344239.12818.725098.12818.523682 0 .981445-.17945.457764-.17944.856934-.53833h.05127v.84961zm5.332032.39551h-.772705l-.534668-1.51978h-2.358399l-.534668 1.51978h-.736084l1.984864-5.45288h.966796l1.984864 5.45288zm-1.530762-2.14233l-.955811-2.67701-.959472 2.67701h1.915283zm5.808105 2.14233h-3.449707v-5.45288h.725098v4.80835h2.724609v.64453zm4.837647-1.67725q0 .4065-.153809.71778-.153808.31128-.413818.51269-.307617.2417-.67749.34424-.366211.10254-.933838.10254H48.85754v-5.45288h1.61499q.596924 0 .893555.0439.296631.044.567627.18311.300293.15747.435791.40649.135498.24536.135498.5896 0 .38819-.197754.66284-.197754.271-.527344.4358v.0293q.552979.11353.871582.48706.318604.36988.318604.9375zm-1.219482-2.45727q0-.19776-.06592-.33325-.06592-.1355-.212403-.21973-.172119-.0989-.41748-.12085-.245362-.0256-.60791-.0256h-.864258v1.5747h.9375q.340576 0 .541992-.033.201416-.0366.373535-.14648.172119-.10986.241699-.28198.07324-.17578.07324-.41382zm.465087 2.48657q0-.32959-.09888-.52368-.09888-.19409-.358886-.32959-.175781-.0915-.428467-.11719-.249023-.0293-.60791-.0293h-1.138916v2.02881h.959472q.476075 0 .78003-.0476.303955-.0513.498047-.18311.205078-.14282.300293-.32593.09521-.1831.09521-.47241zm5.848389-3.17871q.333252.36621.509033.89722.179444.531.179444 1.20483t-.183106 1.2085q-.179443.531-.505371.88623-.336914.36987-.79834.55664-.457763.18676-1.047363.18676-.574951 0-1.047363-.19042-.46875-.19043-.79834-.55298-.32959-.36255-.509033-.8899-.175782-.52734-.175782-1.20483 0-.6665.175782-1.19385.175781-.531.512695-.9082.322266-.35889.79834-.54932.479736-.19043 1.043701-.19043.585937 0 1.051025.1941.46875.19042.794678.54565zm-.06592 2.10205q0-1.06201-.476074-1.63696-.476074-.57862-1.300049-.57862-.831299 0-1.307373.57862-.472412.57495-.472412 1.63696 0 1.073.483398 1.64429.483399.56762 1.296387.56762.812988 0 1.292725-.56762.483398-.57129.483398-1.64429zm6.035158-2.72827l-1.882324 2.69531 1.878662 2.75757h-.838623l-1.486816-2.24487-1.523438 2.24487h-.791015l1.900634-2.72461-1.856689-2.72827h.834961l1.468506 2.21557 1.501465-2.21557h.794677z" style="line-height:125%" font-size="7.5" font-family="sans-serif" letter-spacing="0" word-spacing="0"/>
  <path fill="#1d1d1b" d="M64.55851 229.3471h-2.26268v-3.79095h6.0536v.75671h-3.79092v3.03424zm6.8103-.77154h3.79096v.7567h-6.05363v-3.79095h6.05363v2.2627h-3.79096v.77155zm0-1.51342h1.51342v-.74928h-1.51342v.74928zm6.81036 1.51342h3.79086v.7567h-6.05356v-3.79095h6.05356v.75671h-3.79086v2.27754zm4.53273-3.01941h6.06107v3.79095H82.7119v-2.27012h3.79095v-.74929H82.7119v-.77154zm2.28495 3.01941h1.506v-.75671h-1.506v.75671zm4.53283-6.03882h2.2627v6.81036h-2.2627v-6.81036zm3.03424 0h2.2626v3.01941h3.79096v3.79095h-6.05356v-6.81036zm2.2626 6.03882h1.51342v-2.2627h-1.51342v2.2627zm4.54767-3.01941h6.05365v3.79095h-6.05365v-3.79095zm2.2627 3.01941h1.51341v-2.2627h-1.51341v2.2627zm5.30427-.75671h.7567v-.75671h-.7567v-.74928h-.75671v-.75671h2.27012v.75671h1.50599v-.75671h2.27012v.75671h-.7567v.74928h-.75671v.75671h.75671v.75671h.7567v.7567h-2.27012v-.7567h-1.50599v.7567h-2.27012v-.7567h.75671v-.75671zm-.86789-23.26483c-.0593-2.75975-.13354-3.65-.39319-4.74054-.87541-3.65742-2.3814-6.52104-4.62185-8.73913-3.06392-3.04908-6.81036-3.33841-11.14278-.8754l-1.00153.58608c-1.53567-.0148-3.30873-.10387-3.68709-.20773-.28932-.18547-.92733-.53415-1.40955-.77896-2.96006-1.4689-5.66036-1.63212-8.03434-.46738-3.14553 1.53567-5.89787 5.73455-6.99581 10.70508-.319 1.43922-.34867 1.88434-.33384 5.46006.0148 4.05061.0965 4.79247.72704 6.03881.59346 1.19442 1.47629 1.99564 2.79682 2.50011.33384.13353.68252.19288 1.06087.19288 2.12175 0 4.92601-1.99563 7.33699-5.3192l.71219-.97185h12.35945l.71219.97185c1.87693 2.60396 5.02246 5.36371 7.1442 5.36371 1.61728 0 3.25681-1.13506 4.08029-2.8191.63059-1.37988.78628-2.80427.68994-6.89929z"/>
  <path fill="#d40000" d="M98.16494 235.50452zm0-1.41697zm0-1.39472zm0 .69736zm0 2.81169zm0-1.41697zm0-2.78943z"/>
</svg>
