<svg xmlns="http://www.w3.org/2000/svg" width="123.20895" height="200">
  <defs>
    <clipPath id="a">
      <path d="M0 235.868h145.306V0H0v235.868z"/>
    </clipPath>
    <linearGradient id="b" x2="1" gradientTransform="matrix(0,-25.266108,25.266108,0,54.652922,116.38377)" gradientUnits="userSpaceOnUse">
      <stop offset="0" stop-color="#f2e500"/>
      <stop offset=".3" stop-color="#f2e500"/>
      <stop offset=".6" stop-color="#f39519"/>
      <stop offset="1" stop-color="#e6680b"/>
    </linearGradient>
    <clipPath id="c">
      <path d="M0 235.868h145.306V0H0v235.868z"/>
    </clipPath>
  </defs>
  <g clip-path="url(#a)" transform="matrix(0.84793333,0,0,-0.84793333,-1.6958667e-4,200.00034)">
    <path fill="#575756" d="M118.4972 171.3254h-91.689c-1.239 0-2.253 1.014-2.253 2.253l.451 40.775c0 1.239 1.014 2.253 2.253 2.253h90.787c1.24 0 2.253-1.014 2.253-2.253l.451-40.775c0-1.239-1.014-2.253-2.253-2.253m26.808 2.67l-3.629 48.797c-.627 8.559-4.833 13.076-9.413 13.076h-119.22c-4.581 0-8.787-4.517-9.414-13.076l-3.629-48.797c0-.107.008-.18.022-.229-.013-.099-.022-.199-.022-.301V2.2534c0-1.24 1.014-2.253 2.253-2.253h140.799c1.24 0 2.253 1.013 2.253 2.253v171.212c0 .102-.009.202-.022.301.014.049.022.122.022.229"/>
    <path fill="#1d1d1b" d="M126.0468 35.4816H19.2588c-6.318 0-11.487 5.169-11.487 11.487v106.45c0 6.317 5.169 11.486 11.487 11.486h106.788c6.318 0 11.487-5.169 11.487-11.486v-106.45c0-6.318-5.169-11.487-11.487-11.487M58.967.052H41.395v22.926h17.572V.052z"/>
    <path fill="none" stroke="#9c9b9b" stroke-width="1.72300005" stroke-miterlimit="10" d="M19.52 157.6057h107.55197M19.52 136.4283l108.30155-.24986"/>
  </g>
  <path fill="url(#b)" d="M53.904518 91.481829c-.360196.4299-.172515 1.40757-.172515 1.40757l.854043 3.71564h5.676868c.116589 0 .180097.084.141234.18909l-.108059.45365c-.03886.10429-.164932.18909-.282469.18909h-5.216196l4.437985 18.947071 4.980175-21.725751h-5.965973c-.155452 0-.313749-.11362-.352612-.25268l-.09289-.56473c-.03886-.13991.05687-.25268.212326-.25268h6.480672l.529867-2.46664h-10.16604s-.03507-.004-.09479-.004c-.182941 0-.589583.0399-.861625.36461m13.140495.003c-.570626.42991-.865417 1.40842-.865417 1.40842l-1.012339 3.7131h5.088234c.115641 0 .137442.0848.04644.18994l-.291948.45279c-.091.10515-.257823.18909-.375361.18909h-4.629457l-5.592507 18.928421 15.206878-21.705401h-5.37639c-.153556 0-.255928-.11362-.225596-.25268l.157349-.56473c.02844-.13906.178202-.25268.333655-.25268h5.889194l1.769696-2.46579h-8.994456s-.03318-.004-.09194-.004c-.181994 0-.605697.0399-1.036036.36376m-27.935992-.35952h-9.290196l2.942227 2.56839h5.849384l2.571604 2.82023c.379154.40531.329863.73346-.109954.73346h-.578208l-2.895782-2.58959h-3.759301l24.976703 21.723201-30.965425-25.255691H19.40444s-1.251204.32476-1.251204 1.22018c0 .89626.688162 1.3304.688162 1.3304l39.9741 22.705111-16.044806-22.449031s-.580105-1.02515-1.624671-1.9706c-.846459-.76738-1.66069-.8403-1.937472-.8403-.06446 0-.09953.004-.09953.004m-13.919654 3.25606c-.536501-.40446-.607592-.73261-.162087-.73261h2.005719l4.067363 3.11785c.53745.40531.32702.73346-.118485.73346h-1.161156l-4.631354-3.1187zm70.835259-3.2603l-4.072106 3.10259c-.629396.40531-1.213291.38242-1.603815.38242-.389583 0-.961158-.37394-.465414-.72584l3.156449-2.7261-3.164979-.0331-5.129938 4.42112c-.491004.41888-1.397179 1.6221-.564938 1.59921h1.289116L60.225945 116.38121l29.101889-19.239601h1.582014c.447404 0 1.108071-.37649 1.745997-.78095l7.102484-5.23938h-3.733705zm-17.162362 0L59.661955 116.38124 81.2623 97.436719h-3.317588c-.117537 0-.180098-.0848-.141235-.18909l.107111-.45365c.03981-.10514.164931-.18909.282469-.18909h3.899589l2.625634-2.19953h-3.949826c-.117538 0-.181046-.0848-.141235-.18909l.190524-.43839c.03886-.10514.164932-.18993.28247-.18993h4.531827l2.831325-2.46664h-9.601103zm-30.964472.004l1.164947 2.67184c.172515.35104-.0038.6368-.391475.6368-.388632 0-.843616-.28576-1.01613-.6368l-1.447417-2.67184h-4.001959l3.50053 5.34113c.267302.40447.459723.76738 1.309026.78095h1.013286L59.097021 116.381l-7.219073-19.133611h.720391c.698589-.0136.918498-.26456.812335-.68513l-1.633201-5.43695H47.89779z"/>
  <g clip-path="url(#c)" transform="matrix(0.84793333,0,0,-0.84793333,-1.6958667e-4,200.00034)">
    <path fill="#e6680b" d="M122.46993 126.0214h-5.12545s2.99702 2.342 3.24743 2.565c.24481.219.82052.421 1.07427.421l2.76339.009s.85741.137 1.07763.419c.21798.28-.39685.438-.39685.438l-3.33126-.006c-.14533 0 .68637.463.79928.564.10955.099.24928.182.42479.252.17327.07.33201.104.47957.104h3.89914c.25264 0 .57794-.067.61483-.195.0358-.129.10955-.28-.0872-.456 0 0-.32754-.387-.93119-.944-.60254-.555-1.61086-.739-1.93616-.868-.32642-.13-1.45659-.155-1.70923-.155l-1.4074-.073-1.1257-.909h2.50627c.1375 0 .21799-.036.23923-.105.0224-.069-.0212-.154-.13191-.251-.11067-.101-.80711-.81-.94349-.81"/>
  </g>
  <path fill="#fff" d="M19.578559 74.616909h-.638434l-1.237122-1.47063h-.693086v1.47063h-.491868v-3.69894h1.035903q.335365 0 .55894.0447.223577.0423.402438.15402.201218.12669.313007.32046.114272.19128.114272.4869 0 .39995-.201219.67072-.201218.2683-.553972.40493l1.391141 1.6172zm-1.150176-2.65807q0-.15899-.05714-.28072-.05465-.1242-.183829-.20866-.10682-.072-.253386-.0994-.146567-.0298-.345302-.0298h-.578813v1.3961h.496836q.233512 0 .407405-.0397.173892-.0423.295618-.15402.111788-.10433.163955-.23848.05466-.13663.05466-.3453zm4.064118 2.65807h-2.43698v-3.69894h2.43698v.43721h-1.945112v1.01355h1.945112v.43721h-1.945112v1.37376h1.945112v.43721zm3.639323-.26829q-.136629.0596-.248417.11179-.109304.0522-.288165.1093-.151535.0472-.330396.0795-.176376.0348-.390016.0348-.402438 0-.732833-.11179-.327912-.11428-.571361-.35524-.238482-.236-.372628-.59869-.134145-.36517-.134145-.8471 0-.4571.129177-.8173.129178-.36021.372627-.60862.235997-.24097.568878-.36766.335363-.1267.742769-.1267.298101 0 .593719.0721.298102.072.660791.25338v.58378h-.03726q-.305555-.25586-.60614-.37262-.300586-.11676-.643402-.11676-.280713 0-.506773.0919-.223576.0894-.399953.28071-.171409.18631-.268292.472-.0944.28319-.0944.65582 0 .39001.104335.67072.10682.28072.27326.45709.173892.18384.404921.27326.233513.0869.491868.0869.355238 0 .66576-.12173.310522-.12172.581298-.36517h.03478v.57633zm3.616967.26829h-.524162l-.362691-1.03094h-1.599812l-.36269 1.03094h-.49932l1.346426-3.69894h.655823l1.346426 3.69894zm-1.038388-1.45324l-.648371-1.81594-.650855 1.81594h1.299226zm3.939909 1.45324h-2.340097v-3.69894h.491868v3.26173h1.848229v.43721zm3.281602-1.13775q0 .27574-.104336.4869-.104335.21115-.280712.34778-.208671.16396-.459573.23351-.248418.0696-.633466.0696H33.14218v-3.69894h1.095523q.404921 0 .60614.0298.201219.0298.385048.12421.203703.10682.295617.27574.09192.16644.09192.39996 0 .26332-.134146.44963-.134146.18383-.357722.29562v.0199q.375111.077.591235.33039.216124.25091.216124.63595zm-.827232-1.66689q0-.13415-.04472-.22605-.04472-.0919-.144083-.14906-.116757-.0671-.283197-.082-.16644-.0174-.412373-.0174h-.586267v1.06819h.63595q.231029 0 .367659-.0224.13663-.0248.253386-.0994.116756-.0745.163956-.19128.04968-.11924.04968-.28071zm.31549 1.68676q0-.22358-.06708-.35524t-.243449-.22357q-.11924-.0621-.290649-.0795-.168924-.0199-.412374-.0199h-.772579v1.37623h.650854q.322944 0 .529131-.0323.206187-.0348.337848-.12421.139114-.0969.203703-.22109.06459-.12421.06459-.32046zm3.967236-2.15627q.22606.24842.3453.60863.121726.3602.121726.81729 0 .45709-.12421.81978-.121724.36021-.342816.60118-.228545.2509-.541552.37759-.310522.12669-.710475.12669-.390016 0-.710475-.12917-.317975-.12918-.541551-.37511-.223577-.24594-.345301-.60367-.119241-.35771-.119241-.81729 0-.45212.119241-.80984.11924-.3602.347785-.61608.218608-.24345.541551-.37263.325427-.12917.707991-.12917.397468 0 .712959.13166.317975.12917.539068.37014zm-.04472 1.42592q0-.72041-.322943-1.11042-.322944-.39251-.881884-.39251-.563909 0-.886852.39251-.320459.39001-.320459 1.11042 0 .72787.327911 1.1154.327912.38504.8794.38504.551487 0 .876915-.38504.327912-.38753.327912-1.1154zm4.093929-1.85071l-1.276868 1.82835 1.274384 1.87059h-.568877l-1.008577-1.5228-1.033419 1.5228h-.536582l1.289289-1.84823-1.259479-1.85071h.566393l.996156 1.50292 1.018514-1.50292h.539066z" style="line-height:125%" font-size="7.5" letter-spacing="0" word-spacing="0" font-family="sans-serif"/>
  <path fill="#1d1d1b" d="M43.79288 155.57684h-1.534881v-2.57158h4.106439v.51331H43.79288v2.05827zm4.619745-.52337h2.571585v.5133h-4.10646v-2.57157h4.10646v1.53489h-2.571585v.52338zm0-1.02662h1.026623v-.50828h-1.026623v.50828zm4.619785 1.02662h2.571517v.5133h-4.106412v-2.57157h4.106412v.51331H53.03241v1.54496zm3.074762-2.04821h4.111507v2.57158h-4.111507v-1.53993h2.571578v-.50828h-2.571578v-.52337zm1.549988 2.04821h1.02159v-.51331h-1.02159v.51331zm3.07483-4.09641h1.534895v4.61978H60.73199v-4.61978zm2.058267 0h1.534827v2.0482h2.571585v2.57158h-4.106412v-4.61978zm1.534827 4.09641h1.026623v-1.5349h-1.026623v1.5349zm3.084897-2.04821h4.106473v2.57158h-4.106473v-2.57158zm1.534895 2.04821h1.026616v-1.5349h-1.026616v1.5349zm3.598134-.51331h.513305v-.51331h-.513305v-.50828h-.513312v-.51331h1.539928v.51331h1.021584v-.51331h1.539928v.51331h-.513305v.50828h-.513312v.51331h.513312v.51331h.513305v.5133H74.59121v-.5133h-1.021584v.5133h-1.539928v-.5133h.513312v-.51331zm-.588731-15.78162c-.04023-1.87207-.09059-2.47597-.266719-3.21573-.593831-2.481-1.615414-4.42353-3.135216-5.92816-2.0784-2.06834-4.619785-2.2646-7.558668-.59383l-.679384.39757c-1.041717-.01-2.244466-.0705-2.501126-.14091-.196259-.12582-.629051-.36234-.956163-.52841-2.007947-.99642-3.839687-1.10714-5.450068-.31704-2.13376 1.04171-4.0008 3.89001-4.745584 7.26175-.216393.97629-.236519 1.27824-.22646 3.70381.01004 2.74772.06546 3.25096.493186 4.09641.402571.81023 1.001436 1.35374 1.897213 1.69594.226459.0906.462985.13084.719638.13084 1.439282 0 3.341542-1.35373 4.977022-3.60826l.483112-.65925h8.383992l.483112.65925c1.273209 1.76639 3.406969 3.63845 4.846244 3.63845 1.097076 0 2.209246-.76996 2.767851-1.91232.427759-.93604.53337-1.90227.468018-4.68011z"/>
  <path fill="#d40000" d="M66.58969 159.75371zm0-.9612zm0-.9461zm0 .47305zm0 1.9073zm0-.9612zm0-1.8922z"/>
</svg>
