<?xml version="1.0" encoding="utf-8"?>
<!-- Generator: Adobe Illustrator 19.0.0, SVG Export Plug-In . SVG Version: 6.00 Build 0)  -->
<svg version="1.1" baseProfile="tiny"
	 id="svg2" xmlns:rdf="http://www.w3.org/1999/02/22-rdf-syntax-ns#" xmlns:dc="http://purl.org/dc/elements/1.1/" xmlns:inkscape="http://www.inkscape.org/namespaces/inkscape" xmlns:sodipodi="http://sodipodi.sourceforge.net/DTD/sodipodi-0.dtd" xmlns:cc="http://creativecommons.org/ns#" xmlns:svg="http://www.w3.org/2000/svg" sodipodi:docname="icon_filled.svg" inkscape:version="0.91 r13725"
	 xmlns="http://www.w3.org/2000/svg" xmlns:xlink="http://www.w3.org/1999/xlink" x="0px" y="0px" viewBox="-290 382 30 30"
	 xml:space="preserve">
<sodipodi:namedview  inkscape:cy="13.376988" inkscape:cx="14.394621" inkscape:zoom="21.036212" bordercolor="#666666" objecttolerance="10" borderopacity="1" pagecolor="#ffffff" guidetolerance="10" gridtolerance="10" showgrid="false" id="namedview4" inkscape:current-layer="svg2" inkscape:window-maximized="1" inkscape:window-y="-8" inkscape:pageopacity="0" inkscape:window-x="-8" inkscape:window-height="1027" inkscape:window-width="1920" inkscape:pageshadow="2">
	</sodipodi:namedview>
<g>
	<path fill="#808080" d="M-274.6,386.8l3-0.7l3.4-0.3l1.3-0.1l-2.4,2.8l-3.4,0.3l0.9,2.2l0.3,1.3l0.6,1.6l0,0.9l-0.1,1l-0.5,0.9
		l0.4,0.8l0.4,1.7l0.3,1l2-1.8l-2.2-2.4l2.6-3.4l3.5-3.8l1.7-1.5l0.8,5.9l-4.2,3.8l1.1,1.6l-3.3,2.3l0.7,1.1l-2.2,0.2l0.5-0.5
		l-1.1-0.7l0.2,1.8l0.1,1.5c0,0-0.1,2.8-1.6,4.3c-0.3,0.3-1,0.4-1.3,0.4c0.3,0.4,0.9,1.1,0.9,1.1l-0.5,0l-0.1,0.3l-0.3,0.2l-0.7-0.3
		l-1-0.9l-0.1-0.2l-2.5-0.1l-2.3,0.3l-0.5,0.1l-1.5,1.6l-0.1-0.3l-0.4-0.1h-0.6l0.6-1.1l-1.3-0.5c0,0-2.2-1.1-2.2-6.2
		c0-1.8,0.5-3.8,0.8-5c-0.6-0.5-1.2-0.8-1.1-2.4c0.1-1.6,0.5-2.7,0.5-2.7l0.2-1.4l0.5-1.4l-2.3-2l-0.7-1.8l-0.7-2.5l1.8,0.9l1.6,0.7
		l1.7,1.3l1.1,0.9l2.4-0.6l2.2-0.1L-274.6,386.8z"/>
	<path fill="#4D4D4D" d="M-269.8,388.7c0,0,0.5,0.1,2.7-3c0.6,0,1.4,0,1.4,0l0.8,0l0.1,0.2l-0.7,0.5l-2.1,1.3l-1.8,1L-269.8,388.7z"
		/>
	<path fill="#4D4D4D" d="M-288,383.5c0,0,0,0.9,1.4,4.4c-0.9-1-2.9-3.9-2.9-3.9l-0.4-0.7l-0.1-0.3l0.2-0.1l0.7,0.2L-288,383.5z"/>
	<polygon fill="#4D4D4D" stroke="#000000" stroke-width="1.774650e-002" points="-267.5,401.8 -268.6,401 -268.2,401.7 
		-268.8,401.3 -268.4,402 -269.1,401.6 -270,402.5 -270,405.4 -268.9,404.7 -269.2,403.7 -267.1,402.5 	"/>
	<g>
		<path fill="#231F20" d="M-272.2,397.5C-272.2,397.5-272.2,397.5-272.2,397.5C-272.3,397.5-272.3,397.4-272.2,397.5
			c2.2-1.8,1.3-4,0.9-5c-0.1-0.1-0.1-0.3-0.1-0.3c-0.1-0.5-0.4-1.2-0.5-1.6c-0.6-1.7-1.1-2-1.1-2c0,0,0,0,0-0.1c0,0,0,0,0.1,0
			c0,0,0.5,0.3,1.1,2c0.2,0.4,0.4,1.1,0.5,1.6c0,0.1,0.1,0.2,0.1,0.3C-270.8,393.5-269.9,395.7-272.2,397.5
			C-272.2,397.5-272.2,397.5-272.2,397.5z"/>
	</g>
	<g>
		<path fill="#231F20" d="M-272.5,410.7C-272.5,410.7-272.6,410.7-272.5,410.7l-2-1.6c0,0,0,0,0-0.1s0,0,0.1,0l1.8,1.4l-0.2-0.4
			c0,0,0,0,0-0.1c0,0,0,0,0.1,0l0.4,0.3l-0.1-0.3c0,0,0,0,0,0c0,0,0,0,0,0c0,0,0,0,0,0l0.4,0c-0.1-0.2-0.4-0.5-0.6-0.7
			c0,0-0.1-0.1-0.1-0.1c-0.1-0.1-0.1-0.1-0.6-0.3l-0.3-0.1c0,0,0,0,0-0.1c0,0,0,0,0.1,0c1.7,0.3,1.9,0,2.4-0.7
			c0.8-1,1.2-3.4,1.1-4.5c-0.5-6-1.4-6.8-1.4-6.8c0,0,0,0,0-0.1c0,0,0,0,0.1,0c0,0,0.9,0.8,1.4,6.9c0.1,1.1-0.3,3.5-1.1,4.6
			c-0.4,0.6-0.7,0.9-1.7,0.8c0.1,0,0.1,0.1,0.2,0.1c0,0,0.1,0.1,0.1,0.1c0.3,0.3,0.7,0.8,0.7,0.8c0,0,0,0,0,0.1c0,0,0,0,0,0l-0.5,0
			l0.2,0.4c0,0,0,0,0,0.1c0,0,0,0-0.1,0l-0.4-0.3L-272.5,410.7C-272.5,410.7-272.5,410.7-272.5,410.7
			C-272.5,410.7-272.5,410.7-272.5,410.7z"/>
	</g>
	<g>
		<path fill="#231F20" d="M-280.2,409.3C-280.3,409.3-280.3,409.3-280.2,409.3C-280.3,409.2-280.3,409.2-280.2,409.3
			c0.7-0.1,1.4-0.2,2-0.3c0.6-0.1,1.1-0.1,1.5-0.1c0.8,0,2.7,0.1,2.7,0.1c0,0,0,0,0,0.1c0,0,0,0,0,0c0,0,0,0,0,0
			c0,0-1.9-0.1-2.7-0.1c-0.4,0-0.9,0.1-1.5,0.1C-278.8,409.2-279.5,409.3-280.2,409.3L-280.2,409.3z"/>
	</g>
	<g>
		<path fill="#231F20" d="M-284.1,397.9C-284.1,397.9-284.1,397.9-284.1,397.9c0,0-1.7-0.5-1.6-2.6c0-1.1,0.2-1.7,0.4-2.2
			c0.1-0.4,0.2-0.7,0.2-1.3c0-1.2,1.1-3.1,1.7-3.4c0,0,0.1,0,0.1,0c0,0,0,0.1,0,0.1c-0.5,0.3-1.6,2.1-1.6,3.4c0,0.6-0.1,0.9-0.2,1.3
			c-0.1,0.5-0.3,1-0.4,2.2C-285.7,397.3-284.1,397.8-284.1,397.9C-284,397.8-284,397.8-284.1,397.9
			C-284,397.9-284,397.9-284.1,397.9z"/>
	</g>
	<g>
		<path fill="#231F20" d="M-284.5,389.8c-0.1-0.1-1.9-1.5-2.3-2c-0.4-0.5-2.1-2.8-2.8-3.8c-0.4-0.5-0.5-0.9-0.3-1
			c0.2-0.2,0.6-0.1,1.5,0.3c1.2,0.5,1.9,0.9,2.4,1.2c0.2,0.1,0.3,0.2,0.5,0.2c0.1,0.1,0.2,0.1,0.4,0.1c0.2,0.1,0.5,0.1,1,0.6
			l0.3,0.2c0.7,0.6,1.5,1.2,1.9,1.6c0.3-0.1,3.3-1.1,7.5-0.5c2.5-0.9,6.9-1.2,9.2-1.2c0.1,0,0.1,0,0.2,0c0.3,0,0.5,0,0.5,0.1
			c0,0.1,0,0.2-0.4,0.5c-0.9,0.6-3.8,2.3-4.2,2.5c-0.2,0.1-0.3,0.1-0.4,0.1c-0.1,0-0.2,0-0.4,0.1c-0.4,0.2-2,0.7-2.1,0.8l0-0.1
			c0,0,1.7-0.6,2.1-0.8c0.2-0.1,0.3-0.1,0.4-0.1c0.1,0,0.2,0,0.4-0.1c0.4-0.2,3.3-1.8,4.2-2.5c0.4-0.3,0.4-0.4,0.4-0.4
			c0,0-0.3,0-0.4,0c-0.1,0-0.1,0-0.2,0c-2.3,0-6.7,0.3-9.2,1.2l0,0l0,0c-4.4-0.7-7.4,0.5-7.4,0.5l0,0l0,0c-0.3-0.4-1.2-1.1-1.9-1.7
			l-0.3-0.2c-0.5-0.4-0.7-0.5-1-0.5c-0.1,0-0.2-0.1-0.4-0.1c-0.1-0.1-0.3-0.1-0.5-0.3c-0.5-0.3-1.2-0.7-2.4-1.2
			c-1-0.5-1.3-0.4-1.4-0.3c-0.1,0.1-0.1,0.3,0.3,0.9c0.7,1,2.4,3.3,2.8,3.8C-286.3,388.2-284.5,389.7-284.5,389.8L-284.5,389.8z"/>
	</g>
	<polyline fill="none" stroke="#231F20" stroke-width="0.1" points="-270,402.5 -269.2,401.6 -270.3,400.8 	"/>
	<g>
		<path fill="#231F20" d="M-270,405.6L-270,405.6l1.1-0.9l-0.4-1l0,0l2.1-1.2l-1-1.7l0,0l3.3-2.3l-1.1-1.6l0,0c0,0,3.1-2.7,4.2-3.7
			c-0.3-0.7-0.7-5-0.8-5.9c-2.7,2.2-7.5,8.2-7.9,8.7c0.2,0.2,1.8,1.7,2.3,2.3l0,0l0,0c-0.3,0.5-2,1.9-2.1,1.9l-0.1-0.1
			c0,0,1.8-1.4,2.1-1.9c-0.6-0.7-2.3-2.3-2.3-2.3l0,0l0,0c0.1-0.1,5.2-6.6,8-8.8l0.1-0.1l0,0.1c0,0.7,0.5,5.4,0.8,6l0,0l0,0
			c-1,0.9-3.8,3.4-4.2,3.7l1.1,1.6l0,0l-3.3,2.3l1.1,1.7l0,0l-2.1,1.2l0.4,1l0,0L-270,405.6z"/>
	</g>
	<g>
		<path fill="#231F20" d="M-279.4,396.2c-0.2,0-0.4-0.2-0.6-0.4c0,0,0-0.1,0-0.1c0,0,0.1,0,0.1,0c0.3,0.3,0.5,0.4,0.7,0.3l0,0
			c0.3-0.1,1-0.5,1.4-0.5c0.3,0,0.7,0,1.4,0.3c0.2,0.1,0.3,0.1,0.5,0c0.2-0.1,0.2-0.3,0.2-0.3c0,0,0,0,0.1,0s0,0,0,0.1
			c0,0-0.1,0.2-0.3,0.3c-0.2,0.1-0.3,0.1-0.6,0c-0.6-0.3-1-0.3-1.3-0.3c-0.3,0-1,0.3-1.4,0.5l0,0
			C-279.2,396.2-279.3,396.2-279.4,396.2z"/>
	</g>
	<path fill="#231F20" stroke="#231F20" stroke-width="0.1" stroke-linecap="round" stroke-linejoin="round" d="M-277.3,393.9
		c0,0-0.2,0.4-0.6,0.4c-0.4,0-0.6-0.2-0.7-0.3C-278.4,393.9-277.9,393.8-277.3,393.9z"/>
	<path fill="#4D4D4D" d="M-272.9,391.9c0,0.6-0.2,1.1-1.1,1.2c-0.8,0.1-1.3-0.4-1.3-1c0-0.7,0.4-1.2,1.1-1.2
		C-273.4,390.9-272.9,391.3-272.9,391.9z"/>
	<path fill="#4D4D4D" d="M-281,392.2c0,0.7-0.4,1.3-1.4,1.4c-0.9,0.1-1.1-0.5-1.1-1.2s0.3-1.4,1.2-1.3
		C-281.4,391.1-281,391.6-281,392.2z"/>
	<g>
		<path fill="#231F20" d="M-273.9,404.7C-273.9,404.7-273.9,404.7-273.9,404.7C-273.9,404.7-273.9,404.7-273.9,404.7l-0.1-0.3
			l-0.5,0.2c0,0,0,0-0.1,0c0,0,0,0,0,0c0,0,0-0.1,0-0.3c-0.2,0.1-0.4,0.1-0.4,0c-0.1-0.1,0-0.4,0.2-0.6c0,0,0-0.1,0.1-0.1
			c0.1-2.3,0.6-3.4,0.6-3.5c0,0,0,0,0.1,0c0,0,0,0,0,0.1c0,0-0.5,1.2-0.6,3.4c0,0,0,0,0,0c0,0,0,0.1-0.1,0.1
			c-0.1,0.2-0.3,0.5-0.2,0.5c0,0,0.1,0.1,0.4-0.1c0,0,0,0,0,0c0,0,0,0,0,0c0,0.1,0,0.3,0,0.3l0.4-0.2c0,0,0,0,0,0c0,0,0,0,0,0
			l0.1,0.2l0.2-0.2c0,0,0,0,0.1,0c0,0,0,0,0,0c0,0.1,0,0.2,0.1,0.2c0,0,0.1,0,0.4-0.4c0.2-0.2,0.3-0.4,0.5-0.7
			c0.5-0.6,1.1-1.4,1.3-2.5c0,0,0,0,0.1,0c0,0,0,0,0,0.1c-0.3,1.1-0.9,1.8-1.4,2.5c-0.2,0.2-0.3,0.4-0.5,0.6
			c-0.2,0.3-0.4,0.5-0.5,0.5c0,0,0,0,0,0c-0.1,0-0.1-0.1-0.1-0.2L-273.9,404.7C-273.8,404.7-273.8,404.7-273.9,404.7z"/>
	</g>
	<g>
		<path fill="#231F20" d="M-281.4,405.5c-0.1,0-0.2-0.1-0.5-0.5c-1-0.2-2-1.3-2.4-1.9c0,0,0-0.1,0-0.1c0,0,0.1,0,0.1,0
			c0.4,0.6,1.4,1.6,2.4,1.8c0,0,0,0,0,0C-281.5,405.4-281.4,405.4-281.4,405.5c0-0.1,0-0.1,0-0.1c0,0,0-0.2,0-0.3c0,0,0-0.1,0-0.1
			c0,0,0,0,0,0c0.2,0,0.3,0,0.4-0.1c0,0,0-0.1,0-0.2c0,0,0,0,0,0c0,0,0,0,0.1,0c0.2,0.1,0.3,0,0.3,0c0-0.1,0-0.2-0.2-0.3
			c0,0,0,0,0,0c0,0,0,0,0,0c0.2,0,0.2-0.1,0.2-0.1c0,0-0.1-0.1-0.2-0.2l-0.1,0c0,0,0,0,0,0c-0.8-2.4-1.7-4.2-1.7-4.2
			c0,0,0-0.1,0-0.1c0,0,0.1,0,0.1,0c0,0,1,1.8,1.7,4.2l0,0c0.2,0.1,0.3,0.2,0.3,0.3c0,0.1-0.1,0.1-0.2,0.2c0.1,0.1,0.2,0.3,0.1,0.4
			c-0.1,0.1-0.2,0.1-0.3,0c0,0.1,0,0.2,0,0.2c-0.1,0.1-0.2,0.1-0.4,0.1c0,0,0,0,0,0C-281.2,405.3-281.2,405.5-281.4,405.5
			C-281.3,405.5-281.3,405.5-281.4,405.5z"/>
	</g>
	<path fill="#FFFFFF" d="M-273.9,391.4c0.1,0.3-0.2,0.7-0.5,0.7c-0.3,0-0.5-0.2-0.5-0.5c0-0.3,0.4-0.5,0.5-0.5
		C-274.2,391-274,391.2-273.9,391.4z"/>
	<path fill="#FFFFFF" d="M-282.1,391.8c0,0.3-0.2,0.5-0.5,0.5c-0.3,0-0.4-0.2-0.4-0.4c0-0.2,0.1-0.6,0.5-0.6
		C-282.2,391.3-282.1,391.5-282.1,391.8z"/>
	<g>
		<path fill="#4D4D4D" stroke="#000000" stroke-width="1.774650e-002" d="M-271.3,395.1c0,0.6-0.5,1.3-1.1,1.3s-1-0.5-1-1.1
			c0-0.6,0.4-1.2,1.2-1.2C-271.4,394.1-271.3,394.8-271.3,395.1z"/>
		<path fill="#231F20" d="M-272.4,396.4c-0.7,0-1-0.6-1-1.1c0-0.6,0.5-1.3,1.2-1.3c0.8,0,0.9,0.8,0.9,1.1
			C-271.2,395.7-271.7,396.4-272.4,396.4z M-272.2,394.1c-0.7,0-1.1,0.6-1.1,1.2c0,0.5,0.2,1,0.9,1c0.6,0,1.1-0.6,1.1-1.2
			C-271.3,394.9-271.5,394.1-272.2,394.1z"/>
	</g>
	<g>
		<path fill="#4D4D4D" stroke="#000000" stroke-width="1.774650e-002" d="M-282.6,395.9c0,0.5-0.4,1.1-1,1.1c-0.6,0-1-0.4-1-1
			c0-0.5,0.4-1.2,1.1-1.2C-282.9,394.8-282.6,395.5-282.6,395.9z"/>
		<path fill="#231F20" d="M-283.6,397c-0.6,0-1.1-0.4-1.1-1c0-0.6,0.5-1.2,1.1-1.2c0.7,0,1,0.7,1,1.2
			C-282.5,396.3-282.9,397-283.6,397z M-283.5,394.8c-0.6,0-1,0.6-1,1.1c0,0.5,0.4,0.9,1,0.9c0.6,0,1-0.6,1-1
			C-282.6,395.5-282.9,394.8-283.5,394.8z"/>
	</g>
	<g>
		<path fill="#666666" d="M-281.1,409.3c0,0,0.7,0.1-0.1,0.5c-0.8,0.4-0.6,0-0.9,0.1c-0.3,0,0.3-0.4,0.3-0.4L-281.1,409.3z"/>
		<path fill="#666666" d="M-274.1,409c0,0-3.9-1.6-6.1,0.2c0.9,0,3-0.2,3-0.2l2,0.1L-274.1,409z"/>
		<path fill="#666666" d="M-272.8,388.7c0,0,3.4,0,4.1-0.4c-0.9,0.4-1.3,0.4-1.3,0.4l-2.2,0.9L-272.8,388.7z"/>
		<path fill="#666666" d="M-287.2,387.2c0,0,1.5,0.9,3.6,1.3c-0.5,0.7-0.9,1.1-0.9,1.1l-1.8-1.4L-287.2,387.2z"/>
		<path fill="#666666" d="M-276.6,399.7c-0.2,0.2,0.6-0.3-0.1-0.3s-2.3,0-2.6,0c-0.3,0-0.3,0.2,0,0.4c0.3,0.2,0.8,0.5,1,0.5
			c0.2,0.1,0.6,0.3,0.9,0.1C-277.1,400.1-276.6,399.7-276.6,399.7z"/>
	</g>
	<g>
		<path fill="#231F20" d="M-281.5,411.2C-281.5,411.2-281.5,411.2-281.5,411.2C-281.6,411.1-281.6,411.1-281.5,411.2
			c0.1-0.3,0.1-0.5,0.1-0.6l-0.5,0.2c0,0,0,0-0.1,0c0,0,0,0,0-0.1l0.2-0.3l-0.9,0.3c0,0,0,0-0.1,0c0,0,0,0,0-0.1l1-1.3
			c0,0,0,0,0.1,0c0,0,0,0,0,0.1l-0.9,1.2l0.9-0.3c0,0,0,0,0.1,0s0,0,0,0.1l-0.2,0.3l0.4-0.2c0,0,0,0,0,0c0,0,0,0,0,0
			c0,0,0,0.1-0.1,0.5c0.6-0.5,1.5-1.7,1.6-1.7c0,0,0,0,0.1,0c0,0,0,0,0,0.1C-279.8,409.3-280.9,410.7-281.5,411.2
			C-281.5,411.2-281.5,411.2-281.5,411.2z"/>
	</g>
	<g>
		<path fill="#231F20" d="M-281.1,409.3c-0.6,0-2.4-0.1-3.1-1.5c-0.8-1.6-1.2-2.9-1.1-4.7c0-1.6,0.3-4.4,0.8-5.5c0,0,0,0,0.1,0
			c0,0,0,0,0,0.1c-0.5,1.2-0.7,4-0.8,5.5c0,1.8,0.3,3.1,1.1,4.6c0.9,1.7,3.2,1.5,3.3,1.5c0,0,0,0,0,0c0,0,0,0,0,0c0,0,0,0.1,0,0.1
			C-280.9,409.3-281,409.3-281.1,409.3z"/>
	</g>
</g>
</svg>
