<?xml version="1.0" encoding="UTF-8" standalone="no"?>
<svg
   xmlns:dc="http://purl.org/dc/elements/1.1/"
   xmlns:cc="http://creativecommons.org/ns#"
   xmlns:rdf="http://www.w3.org/1999/02/22-rdf-syntax-ns#"
   xmlns:svg="http://www.w3.org/2000/svg"
   xmlns="http://www.w3.org/2000/svg"
   viewBox="0 0 545.17749 264.3425"
   height="264.3425"
   width="545.17749"
   xml:space="preserve"
   version="1.1"
   id="svg2"><metadata
     id="metadata8"><rdf:RDF><cc:Work
         rdf:about=""><dc:format>image/svg+xml</dc:format><dc:type
           rdf:resource="http://purl.org/dc/dcmitype/StillImage" /><dc:title></dc:title></cc:Work></rdf:RDF></metadata><defs
     id="defs6" /><g
     transform="matrix(1.25,0,0,-1.25,0,264.3425)"
     id="g10"><path
       id="path12"
       style="fill:#333333;fill-opacity:1;fill-rule:nonzero;stroke:none"
       d="m 0,5.418 435.712,0 0,206.057 L 0,211.475 0,5.418 Z" /><path
       id="path14"
       style="fill:#b12a12;fill-opacity:1;fill-rule:nonzero;stroke:none"
       d="m 389.229,45.563 -136.544,0 0,47.687 136.544,0 0,-47.687 z" /><path
       id="path16"
       style="fill:#666666;fill-opacity:1;fill-rule:nonzero;stroke:none"
       d="m 406.446,128.646 -376.75,0 0,51.382 376.75,0 0,-51.382 z" /><path
       id="path18"
       style="fill:#666666;fill-opacity:1;fill-rule:nonzero;stroke:none"
       d="m 290.696,5.418 60,0 0,22.082 -60,0 0,-22.082 z" /><path
       id="path20"
       style="fill:#191919;fill-opacity:1;fill-rule:nonzero;stroke:none"
       d="m 31.992,0 48.32,0 0,5.418 -48.32,0 0,-5.418 z" /><path
       id="path22"
       style="fill:#b12a12;fill-opacity:1;fill-rule:nonzero;stroke:#ffffff;stroke-width:1;stroke-linecap:butt;stroke-linejoin:miter;stroke-miterlimit:10;stroke-dasharray:none;stroke-opacity:1"
       d="m 79.313,13.446 -47.32,0 0,8.907 47.32,0 0,-8.907 z" /><path
       id="path24"
       style="fill:#b12a12;fill-opacity:1;fill-rule:nonzero;stroke:none"
       d="m 432.696,33 -428.5,0 0,4.25 428.5,0 0,-4.25 z" /><g
       transform="translate(55.6524,9.1702)"
       id="g26"><path
         id="path28"
         style="fill:#ffffff;fill-opacity:1;fill-rule:nonzero;stroke:none"
         d="m 0,0 2.469,2.138 2.468,2.138 -4.937,0 -4.937,0 L -2.469,2.138 0,0 Z" /></g><path
       id="path30"
       style="fill:none;stroke:#ffffff;stroke-width:1;stroke-linecap:butt;stroke-linejoin:miter;stroke-miterlimit:10;stroke-dasharray:none;stroke-opacity:1"
       d="m 223.562,13.446 -47.32,0 0,8.907 47.32,0 0,-8.907 z" /><g
       transform="translate(199.9024,9.1702)"
       id="g32"><path
         id="path34"
         style="fill:#ffffff;fill-opacity:1;fill-rule:nonzero;stroke:none"
         d="m 0,0 2.469,2.138 2.468,2.138 -4.937,0 -4.937,0 L -2.469,2.138 0,0 Z" /></g><path
       id="path36"
       style="fill:none;stroke:#ffffff;stroke-width:1;stroke-linecap:butt;stroke-linejoin:miter;stroke-miterlimit:10;stroke-dasharray:none;stroke-opacity:1"
       d="m 276.312,13.446 -47.32,0 0,8.907 47.32,0 0,-8.907 z" /><path
       id="path38"
       style="fill:none;stroke:#ffffff;stroke-width:1;stroke-linecap:butt;stroke-linejoin:miter;stroke-miterlimit:10;stroke-dasharray:none;stroke-opacity:1"
       d="m 417.562,13.446 -47.32,0 0,8.907 47.32,0 0,-8.907 z" /><g
       transform="translate(252.6524,9.1702)"
       id="g40"><path
         id="path42"
         style="fill:#ffffff;fill-opacity:1;fill-rule:nonzero;stroke:none"
         d="m 0,0 2.469,2.138 2.468,2.138 -4.937,0 -4.937,0 L -2.469,2.138 0,0 Z" /></g><g
       transform="translate(305.0712,71.5333)"
       id="g44"><path
         id="path46"
         style="fill:#333333;fill-opacity:1;fill-rule:nonzero;stroke:none"
         d="m 0,0 -32.469,10.527 0,-21.054 L 0,0 Z" /></g><g
       transform="translate(305.0712,71.5333)"
       id="g48"><path
         id="path50"
         style="fill:none;stroke:#ffffff;stroke-width:0.75;stroke-linecap:butt;stroke-linejoin:miter;stroke-miterlimit:10;stroke-dasharray:none;stroke-opacity:1"
         d="m 0,0 -32.469,10.527 0,-21.054 L 0,0 Z" /></g><g
       transform="translate(357.0146,17.8996)"
       id="g52"><path
         id="path54"
         style="fill:#ffffff;fill-opacity:1;fill-rule:nonzero;stroke:none"
         d="m 0,0 2.138,-2.469 2.138,-2.468 0,4.937 0,4.937 L 2.138,2.469 0,0 Z" /></g><path
       id="path56"
       style="fill:#b12a12;fill-opacity:1;fill-rule:nonzero;stroke:none"
       d="m 389.229,115.474 -136.544,0 0,11.259 136.544,0 0,-11.259 z" /><path
       id="path58"
       style="fill:#000000;fill-opacity:1;fill-rule:nonzero;stroke:none"
       d="m 387.446,132.916 -132.218,0 0,28.834 132.218,0 0,-28.834 z" /><path
       id="path60"
       style="fill:none;stroke:#000000;stroke-width:1.71700001;stroke-linecap:butt;stroke-linejoin:miter;stroke-miterlimit:10;stroke-dasharray:none;stroke-opacity:1"
       d="m 391.326,43.616 -140.738,0 0,143.717 140.738,0 0,-143.717 z" /><g
       transform="translate(316.3746,95.8786)"
       id="g62"><path
         id="path64"
         style="fill:none;stroke:#ffffff;stroke-width:0.745;stroke-linecap:butt;stroke-linejoin:miter;stroke-miterlimit:10;stroke-dasharray:none;stroke-opacity:1"
         d="m 0,0 -62.104,0 0,15.48 L 8,15.48 0,0 Z" /></g><g
       transform="translate(329.5267,111.3585)"
       id="g66"><path
         id="path68"
         style="fill:none;stroke:#ffffff;stroke-width:0.72500002;stroke-linecap:butt;stroke-linejoin:miter;stroke-miterlimit:10;stroke-dasharray:none;stroke-opacity:1"
         d="m 0,0 58.719,0 0,-15.48 -66.283,0 L 0,0 Z" /></g><path
       id="path70"
       style="fill:#000000;fill-opacity:1;fill-rule:nonzero;stroke:none"
       d="m 283.572,99.871 -25.982,0 0,7.496 25.982,0 0,-7.496 z" /><path
       id="path72"
       style="fill:#000000;fill-opacity:1;fill-rule:nonzero;stroke:none"
       d="m 385.135,99.871 -25.982,0 0,7.496 25.982,0 0,-7.496 z" /><g
       transform="translate(361.3375,66.7735)"
       id="g74"><path
         id="path76"
         style="fill:#333333;fill-opacity:1;fill-rule:nonzero;stroke:none"
         d="m 0,0 -17.556,0 5.81,10.657 16.983,0 L 0,0 Z" /></g><g
       transform="translate(361.3375,66.7735)"
       id="g78"><path
         id="path80"
         style="fill:none;stroke:#ffffff;stroke-width:0.75;stroke-linecap:butt;stroke-linejoin:miter;stroke-miterlimit:10;stroke-dasharray:none;stroke-opacity:1"
         d="m 0,0 -17.556,0 5.81,10.657 16.983,0 L 0,0 Z" /></g><g
       transform="translate(250.5876,166.3484)"
       id="g82"><path
         id="path84"
         style="fill:none;stroke:#000000;stroke-width:1;stroke-linecap:butt;stroke-linejoin:miter;stroke-miterlimit:10;stroke-dasharray:none;stroke-opacity:1"
         d="M 0,0 140.738,0" /></g><g
       transform="translate(250.5876,172.2325)"
       id="g86"><path
         id="path88"
         style="fill:none;stroke:#000000;stroke-width:1;stroke-linecap:butt;stroke-linejoin:miter;stroke-miterlimit:10;stroke-dasharray:none;stroke-opacity:1"
         d="M 0,0 140.738,0" /></g><g
       transform="translate(250.5876,180.0289)"
       id="g90"><path
         id="path92"
         style="fill:none;stroke:#000000;stroke-width:1;stroke-linecap:butt;stroke-linejoin:miter;stroke-miterlimit:10;stroke-dasharray:none;stroke-opacity:1"
         d="M 0,0 140.738,0" /></g><g
       transform="translate(0,211.4748)"
       id="g94"><path
         id="path96"
         style="fill:#4c4c4c;fill-opacity:1;fill-rule:nonzero;stroke:none"
         d="m 0,0 0,-169.975 29.696,87.147 0,51.382 L 0,0 Z" /></g><g
       transform="translate(436.1427,211.4748)"
       id="g98"><path
         id="path100"
         style="fill:#4c4c4c;fill-opacity:1;fill-rule:nonzero;stroke:none"
         d="m 0,0 -29.696,-31.446 0,-51.382 L 0,-169.975 0,0 Z" /></g></g></svg>