<?xml version="1.0" encoding="utf-8"?>
<!-- Generator: Adobe Illustrator 19.0.0, SVG Export Plug-In . SVG Version: 6.00 Build 0)  -->
<svg version="1.1" baseProfile="tiny" id="Ebene_2" xmlns="http://www.w3.org/2000/svg" xmlns:xlink="http://www.w3.org/1999/xlink"
	 x="0px" y="0px" viewBox="159.3 374.4 157.3 46" xml:space="preserve">
<g>
	<rect x="196.1" y="374.4" width="83.8" height="46"/>
	<path fill="#5A97D0" d="M237.5,409.7l11.5-11.4c0-0.1,0.1-0.2,0.1-0.3l-11.6,8.8l11.8-12.3l-11.8,9l11.3-12l-11.3,9.2l10.9-12.3
		c-3.9-3.3-13.2-0.4-21.3,6.8c-8.4,7.6-12.4,16.9-8.8,21c3.6,4,13.4,1.2,21.8-6.4c2.3-2,4.2-4.2,5.8-6.4L237.5,409.7z"/>
	<path fill="#010101" d="M232.4,399.9l-4,0v10h4v-2.7h3.8v6.1h-9.7c-1,0-1.9-1-1.9-1.9v-12.8c0-1.4,0.7-1.9,1.8-1.9h9.7v6.6h-3.8
		V399.9L232.4,399.9z"/>
	<path fill="#DEAD2C" d="M257.6,384.8l-11.5,11.4c0,0.1-0.1,0.2-0.1,0.3l11.6-8.8l-11.8,12.3l11.8-9l-11.3,12l11.3-9.2l-10.9,12.3
		c3.9,3.3,13.2,0.4,21.3-6.8c8.4-7.6,12.4-16.9,8.8-21c-3.6-4-13.4-1.2-21.8,6.4c-2.3,2-4.2,4.2-5.8,6.4L257.6,384.8z"/>
	<g>
		<path fill="#010101" d="M270.7,396.2c0,0.9-1,1.9-1.9,1.9l-9.7,0v-16.5h9.7c0.9,0.1,1.9,0.9,1.9,1.9V396.2z M263,394.7h4v-10l-4,0
			V394.7z"/>
	</g>
	<g>
		<path fill="#FFFFFF" d="M203.7,377.8c0.3-0.5,0.8-0.9,1.4-0.9c1.1,0,2.3,0,3.5,0c0,0.4,0,0.8,0,1.2c0.5-0.5,1-1.2,1.7-1.1
			c1.6,0,3.2,0,4.8,0c0,3.1,0,6.2,0,9.3c-1.1,0-2.2,0-3.2,0c0-2.2,0-4.5,0-6.7c-0.6-0.1-0.9,0.5-1.2,1c-1.2,1.9-2.4,3.8-3.5,5.7
			c-1.1,0-2.3,0-3.4,0c1.4-2.3,2.8-4.5,4.2-6.8c-0.7,0-1.6-0.2-2.2,0.4c-1.3,2.1-2.6,4.3-4,6.4c-1.1,0-2.3,0-3.4,0
			C200.1,383.4,201.9,380.6,203.7,377.8z"/>
		<path fill="#FFFFFF" d="M216.4,378c0.4-0.6,1.3-1.2,2.1-1.1c2.4,0,4.8,0,7.2,0c0,0.7,0,1.4,0,2.1c-1.8,0.1-3.6,0-5.3,0
			c-0.7,0.2-0.8,1.1-1.2,1.6c2.2,0,4.5,0,6.7,0c-0.4,0.6-0.9,1.2-1.3,1.8c-1.8,0-3.6,0-5.4,0c0,0.6,0,1.2,0,1.8c2.2,0,4.4,0,6.6,0
			c0,0.7,0,1.4,0,2c-3.3,0-6.6,0-9.9,0c0-1.9,0-3.8,0-5.7C215.7,379.5,215.9,378.7,216.4,378z"/>
		<path fill="#FFFFFF" d="M227.2,377.7c0.3-0.4,1.1-0.9,1.7-0.9c2.6,0,5.1,0,7.7,0c0,0.7,0,1.4,0,2.1c-1.7,0-3.3,0-5,0
			c-1.1-0.1-1.6,1.2-1.9,2.1c0,1.4-0.3,1.4-0.1,3.1c1.9,0.1,2.3,0.1,4.7,0c0.1-0.5,0-1,0.1-1.5c-0.8-0.1-0.6-0.1-2.2-0.1
			c0.4-0.7,0.8-1.3,1.1-2c1.3,0,2.7,0,4,0c0,1.6,0,3.1,0,4.7c0,0.3-0.1,0.6-0.2,0.9c-3.1,0.1-6.1,0-9.2,0.1
			c-0.8,0.1-1.3-0.7-1.3-1.4c0-1.7,0-3.4,0-5.1C226.4,378.8,226.8,378.3,227.2,377.7z"/>
		<g>
			<path fill="#FFFFFF" d="M238,376.8c1.7,0,3.5,0,5.2,0c0.9-0.1,1.6,0.7,2,1.4c1.6,2.7,3.3,5.3,4.9,8c-1.2,0-2.4,0-3.5,0
				c-0.5-0.6-0.8-1.3-1.4-1.8c-1,0-2.1,0-3.1,0c-0.3-0.5-0.6-1-0.9-1.5c0,1.1,0,2.2,0,3.3c-1.1,0-2.1,0-3.2,0
				C238,383.1,238,379.9,238,376.8z M241.3,378.9c0,1.2,0,2.3,0,3.5c0.9,0,1.9,0,2.8,0c-0.6-0.9-1.1-2-1.7-2.9
				C242.1,379.1,241.7,379,241.3,378.9z"/>
		</g>
	</g>
	<g>
		<path fill="#FFFFFF" d="M267.9,418.3v-5.4H266v-1.1h5.1v1.1h-1.9v5.4H267.9z"/>
		<path fill="#FFFFFF" d="M271.9,418.3v-6.4h1.9l1.2,4.4l1.2-4.4h2v6.4h-1.2v-5.1l-1.3,5.1h-1.3l-1.3-5.1v5.1H271.9z"/>
	</g>
</g>
</svg>
