<?xml version="1.0" encoding="UTF-8" standalone="no"?>
<svg
   xmlns:dc="http://purl.org/dc/elements/1.1/"
   xmlns:cc="http://creativecommons.org/ns#"
   xmlns:rdf="http://www.w3.org/1999/02/22-rdf-syntax-ns#"
   xmlns:svg="http://www.w3.org/2000/svg"
   xmlns="http://www.w3.org/2000/svg"
   xmlns:sodipodi="http://sodipodi.sourceforge.net/DTD/sodipodi-0.dtd"
   xmlns:inkscape="http://www.inkscape.org/namespaces/inkscape"
   viewBox="0 0 258.81 181.145"
   height="181.145"
   width="258.81"
   xml:space="preserve"
   version="1.1"
   id="svg2"
   inkscape:version="0.91 r13725"
   sodipodi:docname="game.svg"><sodipodi:namedview
     pagecolor="#ffffff"
     bordercolor="#666666"
     borderopacity="1"
     objecttolerance="10"
     gridtolerance="10"
     guidetolerance="10"
     inkscape:pageopacity="0"
     inkscape:pageshadow="2"
     inkscape:window-width="1920"
     inkscape:window-height="1027"
     id="namedview60"
     showgrid="false"
     inkscape:zoom="3.6849418"
     inkscape:cx="129.405"
     inkscape:cy="90.572502"
     inkscape:window-x="-8"
     inkscape:window-y="-8"
     inkscape:window-maximized="1"
     inkscape:current-layer="svg2" /><metadata
     id="metadata8"><rdf:RDF><cc:Work
         rdf:about=""><dc:format>image/svg+xml</dc:format><dc:type
           rdf:resource="http://purl.org/dc/dcmitype/StillImage" /><dc:title /></cc:Work></rdf:RDF></metadata><defs
     id="defs6"><clipPath
       id="clipPath16"
       clipPathUnits="userSpaceOnUse"><path
         id="path18"
         d="m 0,144.916 207.048,0 L 207.048,0 0,0 0,144.916 Z" /></clipPath><pattern
       y="0"
       x="0"
       height="6"
       width="6"
       patternUnits="userSpaceOnUse"
       id="EMFhbasepattern" /></defs><g
     transform="matrix(1.25,0,0,-1.25,0,181.145)"
     id="g10"><g
       id="g12"><g
         clip-path="url(#clipPath16)"
         id="g14"><g
           transform="translate(103.5241,1e-4)"
           id="g20"><path
             id="path22"
             style="fill:#cccccc;fill-opacity:1;fill-rule:nonzero;stroke:none"
             d="m 0,0 c 13.146,0 92.244,1.027 94.026,1.027 8.611,0 9.498,6.072 9.498,8.684 0,2.612 -0.712,119.059 -0.95,125.945 -0.237,6.886 -5.223,7.598 -9.26,7.836 -4.036,0.237 -80.967,1.424 -93.314,1.424 -12.347,0 -89.278,-1.187 -93.314,-1.424 -4.037,-0.238 -9.023,-0.95 -9.26,-7.836 -0.238,-6.886 -0.95,-123.333 -0.95,-125.945 0,-2.612 0.887,-8.684 9.498,-8.684 C -92.244,1.027 -13.146,0 0,0" /></g><path
           id="path24"
           style="fill:#666666;fill-opacity:1;fill-rule:nonzero;stroke:none"
           d="m 176.708,0.775 -0.474,0 0,143.148 0.474,0 0,-143.148 z" /><path
           id="path26"
           style="fill:#666666;fill-opacity:1;fill-rule:nonzero;stroke:none"
           d="m 30.788,0.765 -0.474,0 0,143.148 0.474,0 0,-143.148 z" /><g
           transform="translate(178.4641,75.3814)"
           id="g28"><path
             id="path30"
             style="fill:#000000;fill-opacity:1;fill-rule:nonzero;stroke:none"
             d="m 0,0 -153.681,0 c -5.253,0 -9.551,4.298 -9.551,9.551 l 0,41.787 c 0,5.252 4.298,9.551 9.551,9.551 L 0,60.889 c 5.253,0 9.551,-4.299 9.551,-9.551 l 0,-41.787 C 9.551,4.298 5.253,0 0,0" /></g><path
           id="path32"
           style="fill:#4d4d4d;fill-opacity:1;fill-rule:nonzero;stroke:none"
           d="m 80.337,75.381 76.634,0 0,60.889 -76.634,0 0,-60.889 z" /><g
           transform="translate(27.0653,85.7679)"
           id="g34"><path
             id="path36"
             style="fill:#7eee80;fill-opacity:1;fill-rule:nonzero;stroke:none"
             d="m 0,0 c 0,-1.105 -2.003,-2.001 -4.475,-2.001 -2.471,0 -4.474,0.896 -4.474,2.001 0,1.105 2.003,2.001 4.474,2.001 C -2.003,2.001 0,1.105 0,0" /></g><g
           transform="translate(35.0757,82.4543)"
           id="g38"><path
             id="path40"
             style="fill:#fee94b;fill-opacity:1;fill-rule:nonzero;stroke:none"
             d="m 0,0 c 0,-1.105 -2.003,-2.001 -4.475,-2.001 -2.471,0 -4.474,0.896 -4.474,2.001 0,1.105 2.003,2.001 4.474,2.001 C -2.003,2.001 0,1.105 0,0" /></g><g
           transform="translate(35.6143,83.7672)"
           id="g42"><path
             id="path44"
             style="fill:#ff7961;fill-opacity:1;fill-rule:nonzero;stroke:none"
             d="M 0,0 C -0.539,2.241 -2.492,4.717 -5.013,3.64 -2.96,8.376 0.915,7.623 2.26,6.008 3.308,4.751 3.283,0.45 0,0" /></g><g
           transform="translate(27.728,87.39)"
           id="g46"><path
             id="path48"
             style="fill:#0098df;fill-opacity:1;fill-rule:nonzero;stroke:none"
             d="M 0,0 C -0.539,2.241 -2.492,4.717 -5.013,3.64 -2.96,8.376 0.915,7.623 2.26,6.008 3.308,4.751 3.283,0.45 0,0" /></g><g
           transform="translate(12.6022,10.5081)"
           id="g50"><path
             id="path52"
             style="fill:#666666;fill-opacity:1;fill-rule:nonzero;stroke:none"
             d="m 0,0 c 0,-2.113 -1.713,-3.825 -3.826,-3.825 -2.112,0 -3.825,1.712 -3.825,3.825 0,2.113 1.713,3.826 3.825,3.826 C -1.713,3.826 0,2.113 0,0" /></g><g
           transform="translate(194.446,10.5081)"
           id="g54"><path
             id="path56"
             style="fill:#666666;fill-opacity:1;fill-rule:nonzero;stroke:none"
             d="m 0,0 c 0,-2.113 1.713,-3.825 3.826,-3.825 2.112,0 3.825,1.712 3.825,3.825 0,2.113 -1.713,3.826 -3.825,3.826 C 1.713,3.826 0,2.113 0,0" /></g><g
           transform="translate(159.7229,44.157)"
           id="g58"><path
             id="path60"
             style="fill:#b3b3b3;fill-opacity:1;fill-rule:nonzero;stroke:none"
             d="m 0,0 -112.398,0 c -2.506,0 -4.556,2.05 -4.556,4.556 l 0,1.789 c 0,2.506 2.05,4.556 4.556,4.556 L 0,10.901 c 2.506,0 4.556,-2.05 4.556,-4.556 l 0,-1.789 C 4.556,2.05 2.506,0 0,0" /></g><path
           id="path62"
           style="fill:#999999;fill-opacity:1;fill-rule:nonzero;stroke:none"
           d="m 122.909,45.802 -38.959,0 0,7.611 38.959,0 0,-7.611 z" /><g
           transform="translate(163.8574,52.2246)"
           id="g64"><path
             id="path66"
             style="fill:#666666;fill-opacity:1;fill-rule:nonzero;stroke:none"
             d="m 0,0 -120.667,0 c -0.035,-0.079 -0.067,-0.159 -0.099,-0.24 l 120.865,0 C 0.068,-0.159 0.036,-0.079 0,0 m 0.364,-1.248 -121.395,0 c -0.012,-0.08 -0.026,-0.16 -0.034,-0.241 l 121.463,0 C 0.39,-1.408 0.376,-1.328 0.364,-1.248 m -1.183,2.496 -119.029,0 c -0.07,-0.078 -0.14,-0.157 -0.205,-0.24 l 119.44,0 c -0.066,0.083 -0.135,0.162 -0.206,0.24 m -120.269,-3.985 121.51,0 0,0.24 -121.51,0 0,-0.24 z m 1.241,-3.746 119.028,0 c 0.071,0.079 0.14,0.158 0.206,0.241 l -119.44,0 c 0.065,-0.083 0.135,-0.162 0.206,-0.241 m -0.819,1.249 120.666,0 c 0.036,0.079 0.068,0.159 0.099,0.24 l -120.865,0 c 0.032,-0.081 0.064,-0.161 0.1,-0.24 m -0.365,1.248 121.395,0 c 0.012,0.08 0.026,0.159 0.034,0.241 l -121.463,0 c 0.008,-0.082 0.022,-0.161 0.034,-0.241" /></g><g
           transform="translate(162.8033,121.3416)"
           id="g68"><path
             id="path70"
             style="fill:#e10025;fill-opacity:1;fill-rule:evenodd;stroke:none"
             d="m 0,0 c -1.809,0 -3.017,1.282 -3.017,2.836 0,1.555 1.211,2.851 3.014,2.847 l 17.041,0 C 18.841,5.687 20.052,4.391 20.052,2.836 20.052,1.282 18.844,0 17.035,0 L 0,0 Z" /></g><g
           transform="translate(162.809,126.3255)"
           id="g72"><path
             id="path74"
             style="fill:#ffffff;fill-opacity:1;fill-rule:evenodd;stroke:none"
             d="m 0,0 c -1.432,-0.003 -2.311,-0.96 -2.311,-2.144 0,-1.183 0.873,-2.148 2.311,-2.143 l 17.023,0 c 1.438,-0.005 2.312,0.96 2.312,2.143 0,1.184 -0.879,2.141 -2.312,2.144 L 0,0 Z" /></g><g
           transform="translate(162.0746,125.5256)"
           id="g76"><path
             id="path78"
             style="fill:#e10025;fill-opacity:1;fill-rule:evenodd;stroke:none"
             d="M 0,0 0.833,0 1.987,-1.866 1.986,0 l 0.827,0 0,-2.676 -0.826,0 -1.159,1.866 0,-1.866 L 0,-2.676 0,0 Z" /></g><g
           transform="translate(169.3843,125.2502)"
           id="g80"><path
             id="path82"
             style="fill:#e10025;fill-opacity:1;fill-rule:evenodd;stroke:none"
             d="m 0,0 0.805,0 0,-0.36 0.436,0 0,-0.264 -0.436,0 0.001,-1.776 -0.806,0 0,1.776 -0.437,0 0,0.264 0.438,0 L 0,0 Z" /></g><path
           id="path84"
           style="fill:#e10025;fill-opacity:1;fill-rule:evenodd;stroke:none"
           d="m 165.348,124.629 0.805,0 0,-1.779 -0.805,0 0,1.779 z" /><path
           id="path86"
           style="fill:#e10025;fill-opacity:1;fill-rule:evenodd;stroke:none"
           d="m 165.347,125.526 0.806,0 0,-0.547 -0.806,0 0,0.547 z" /><g
           transform="translate(179.4469,124.7507)"
           id="g88"><path
             id="path90"
             style="fill:#e10025;fill-opacity:1;fill-rule:evenodd;stroke:none"
             d="m 0,0 c -0.649,0 -1.175,-0.447 -1.175,-0.999 0,-0.552 0.526,-0.999 1.175,-0.999 0.65,0 1.176,0.447 1.176,0.999 C 1.176,-0.447 0.65,0 0,0 m 0.323,-0.997 c 0,0 -0.001,-0.268 -0.001,-0.377 0,-0.283 -0.167,-0.4 -0.328,-0.4 -0.161,0 -0.33,0.117 -0.33,0.4 0,0.109 0.001,0.384 0.001,0.384 0,0 0,0.263 0,0.371 0,0.282 0.168,0.398 0.329,0.398 0.16,0 0.328,-0.116 0.328,-0.398 0,-0.108 0,-0.307 0.001,-0.379 l 0,0.001 z" /></g><g
           transform="translate(177.221,123.7485)"
           id="g92"><path
             id="path94"
             style="fill:#e10025;fill-opacity:1;fill-rule:evenodd;stroke:none"
             d="m 0,0 0,0.318 c 0,0.275 -0.19,0.345 -0.315,0.345 -0.128,0 -0.316,-0.07 -0.316,-0.345 0,-0.091 0.001,-0.317 0.001,-0.317 0,0 -0.001,-0.222 -0.001,-0.317 0,-0.274 0.188,-0.346 0.316,-0.346 C -0.19,-0.662 0,-0.59 0,-0.316 L 0,0 Z m -0.006,1.777 0.794,0 0,-2.675 -0.795,0 c 0,0 0,0.086 0,0.102 -0.308,-0.193 -0.656,-0.192 -0.927,-0.066 -0.072,0.033 -0.55,0.263 -0.55,0.882 0,0.47 0.443,0.982 1.023,0.931 0.191,-0.017 0.327,-0.086 0.455,-0.158 l 0,0.984 z" /></g><g
           transform="translate(168.0362,124.7113)"
           id="g96"><path
             id="path98"
             style="fill:#e10025;fill-opacity:1;fill-rule:evenodd;stroke:none"
             d="m 0,0 c 0.301,0.008 0.911,-0.189 0.907,-0.893 -0.001,-0.125 0,-0.968 0,-0.968 l -0.8,0 0,1.169 c 0,0.155 -0.148,0.327 -0.367,0.327 -0.22,0 -0.382,-0.172 -0.382,-0.327 0,-0.076 0.001,-1.169 0.001,-1.169 l -0.799,0 -0.001,1.779 0.8,0.001 c 0,0 -0.001,-0.144 0,-0.187 C -0.488,-0.122 -0.266,-0.008 0,0" /></g><g
           transform="translate(174.5747,124.7113)"
           id="g100"><path
             id="path102"
             style="fill:#e10025;fill-opacity:1;fill-rule:evenodd;stroke:none"
             d="M 0,0 C 0.3,0.008 0.911,-0.189 0.907,-0.893 0.906,-1.018 0.906,-1.861 0.906,-1.861 l -0.799,0 0,1.169 c 0,0.155 -0.148,0.327 -0.367,0.327 -0.219,0 -0.383,-0.172 -0.383,-0.327 0,-0.076 0.001,-1.169 0.001,-1.169 l -0.798,0 0,1.779 0.798,0.001 c 0,0 -0.001,-0.144 0,-0.187 C -0.487,-0.122 -0.266,-0.008 0,0" /></g><g
           transform="translate(172.0429,123.4725)"
           id="g104"><path
             id="path106"
             style="fill:#e10025;fill-opacity:1;fill-rule:evenodd;stroke:none"
             d="m 0,0 c 0,0 0.001,-0.008 0.001,-0.108 0,-0.326 -0.214,-0.398 -0.333,-0.398 -0.119,0 -0.337,0.072 -0.337,0.398 0,0.098 0.001,0.367 0.001,0.367 l 1.516,0 c 0,0.552 -0.533,1.009 -1.187,1.009 -0.654,0 -1.185,-0.447 -1.185,-0.998 0,-0.552 0.531,-1 1.185,-1 0.543,0 1.001,0.31 1.141,0.731 L 0,0 Z m -0.668,0.537 c -0.002,0.155 0.002,0.259 0.053,0.349 0.063,0.109 0.179,0.161 0.283,0.162 l 0,0 C -0.227,1.047 -0.112,0.995 -0.049,0.886 0.002,0.796 0.005,0.692 0.004,0.537 l -0.672,0 z" /></g><g
           transform="translate(180.789,125.2315)"
           id="g108"><path
             id="path110"
             style="fill:#e10025;fill-opacity:1;fill-rule:evenodd;stroke:none"
             d="m 0,0 c 0.078,0 0.148,0.005 0.148,0.099 0,0.075 -0.069,0.09 -0.132,0.09 l -0.126,0 L -0.11,0 0,0 Z m -0.11,-0.342 -0.093,0 0,0.609 0.232,0 c 0.144,0 0.215,-0.053 0.215,-0.173 0,-0.109 -0.068,-0.157 -0.158,-0.168 l 0.173,-0.268 -0.102,0 -0.162,0.264 -0.105,0 0,-0.264 z" /></g><g
           transform="translate(180.7901,124.7537)"
           id="g112"><path
             id="path114"
             style="fill:#e10025;fill-opacity:1;fill-rule:evenodd;stroke:none"
             d="M 0,0 C 0.239,0 0.427,0.187 0.427,0.442 0.427,0.691 0.239,0.88 0,0.88 -0.241,0.88 -0.43,0.691 -0.43,0.442 -0.43,0.187 -0.241,0 0,0 m -0.536,0.442 c 0,0.303 0.246,0.526 0.536,0.526 0.288,0 0.534,-0.223 0.534,-0.526 0,-0.307 -0.246,-0.53 -0.534,-0.53 -0.29,0 -0.536,0.223 -0.536,0.53" /></g><g
           transform="translate(37.5766,117.0343)"
           id="g116"><path
             id="path118"
             style="fill:#ff0000;fill-opacity:1;fill-rule:nonzero;stroke:none"
             d="m 0,0 -0.213,-0.577 0.162,0 L 0,0 Z m -5.996,0.689 c -0.016,0 -0.029,-0.01 -0.04,-0.021 l -0.132,-0.688 0,-0.01 c 0,-0.023 0.015,-0.041 0.04,-0.041 l 0.122,0 c 0.03,0 0.106,0.061 0.111,0.091 l 0.112,0.567 c 0.005,0.033 -0.051,0.102 -0.081,0.102 l -0.132,0 z m 24.277,0.273 0.679,0 -0.051,-0.283 -0.172,0 -0.354,-2.006 -0.324,0 0.354,2.006 -0.182,0 0.05,0.283 z m -3.008,0 0.284,0 0.152,-1.195 0.223,1.195 0.324,0 -0.426,-2.289 -0.283,0 -0.112,1.327 -0.263,-1.327 -0.334,0 0.435,2.289 z m -2.937,0 0.598,0 -0.041,-0.283 -0.324,0 -0.132,-0.709 0.314,0 -0.04,-0.243 -0.324,0 -0.132,-0.77 0.324,0 -0.05,-0.284 -0.638,0 0.445,2.289 z m -3.676,0 0.374,0 0.061,-1.327 0.577,1.317 0.365,0 -0.385,-2.279 -0.283,0 0.182,1.205 -0.506,-1.205 -0.203,0 -0.061,1.236 -0.223,-1.236 -0.324,0 0.426,2.289 z m -3.353,0 0.284,0 0.152,-1.195 0.222,1.195 0.325,0 -0.426,-2.289 -0.293,0 L 5.469,0 5.206,-1.327 l -0.334,0 0.435,2.289 z m -2.613,0 0.294,0 -0.436,-2.289 -0.283,0 0.425,2.289 z m -2.694,0 0.385,0 -0.122,-2.289 -0.385,0 0.051,0.527 -0.233,0 -0.192,-0.527 -0.345,0 L 0,0.962 Z m -3.373,0 0.679,0 -0.041,-0.283 -0.172,0 -0.364,-2.006 -0.324,0 0.354,2.006 -0.182,0 0.05,0.283 z m -2.896,0 0.648,0 c 0.12,0 0.196,-0.106 0.172,-0.233 l -0.152,-0.81 C -5.618,-0.169 -5.772,-0.24 -5.854,-0.273 l 0.02,0 0.01,0 0.01,0 0,-0.011 0.011,0 0.01,0 0.01,0 0.01,0 0.01,-0.01 0.01,0 0.01,0 0.01,0 0,-0.01 0.011,0 0.01,0 0,-0.01 0.01,0 c 0.013,-0.025 0.02,-0.097 0.02,-0.111 0,-0.014 -0.162,-0.902 -0.162,-0.902 l -0.294,0 c 0,0 0.157,0.798 0.162,0.831 0.003,0.035 -0.003,0.078 -0.01,0.111 -0.002,0.024 -0.003,0.066 -0.03,0.091 l -0.203,0 -0.192,-1.033 -0.294,0 0.436,2.289 z m -2.857,0 0.608,0 -0.05,-0.283 -0.314,0 -0.142,-0.709 0.314,0 -0.041,-0.243 -0.314,0 -0.131,-0.77 0.314,0 -0.041,-0.284 -0.648,0 0.445,2.289 z m -2.947,0 0.669,0 -0.041,-0.283 -0.172,0 -0.365,-2.006 -0.324,0 0.355,2.006 -0.183,0 0.061,0.283 z m -3.038,0 0.283,0 0.152,-1.195 0.223,1.195 0.334,0 -0.435,-2.289 -0.284,0 -0.111,1.327 -0.264,-1.327 -0.334,0 0.436,2.289 z m -2.796,0 0.598,0 -0.041,-0.283 -0.324,0 -0.131,-0.709 0.314,0 -0.041,-0.243 -0.324,0 -0.122,-0.77 0.314,0 -0.05,-0.284 -0.648,0 0.455,2.289 z m 54.399,0.081 0.375,0 0.06,-1.316 0.578,1.306 0.364,0.01 -0.384,-2.279 -0.284,0 0.182,1.206 -0.506,-1.206 -0.203,0 -0.061,1.236 -0.222,-1.236 -0.335,0 0.436,2.279 z m -2.502,0 0.608,0 -0.051,-0.273 -0.314,0 -0.141,-0.719 0.324,0 -0.051,-0.233 -0.314,0 -0.132,-0.77 0.314,0 -0.04,-0.284 -0.648,0 0.445,2.279 z m -2.653,0 0.678,0 -0.05,-0.273 -0.173,0 -0.354,-2.006 -0.334,0 0.354,2.006 -0.172,0 0.051,0.273 z m -2.36,0 0.01,0 0.01,0 0.01,0 0.01,0 0.01,0 0.446,0 c 0.12,0 0.204,-0.096 0.182,-0.223 l -0.111,-0.567 -0.273,0 0.06,0.375 C 29.345,0.713 29.295,0.78 29.21,0.78 29.125,0.78 29.041,0.713 29.027,0.628 l -0.05,-0.274 c -0.011,-0.016 0.013,-0.093 0.03,-0.101 0.036,-0.021 0.395,-0.614 0.395,-0.658 0.011,-0.022 0.01,-0.032 0.01,-0.041 -0.013,-0.074 -0.101,-0.577 -0.101,-0.577 -0.022,-0.116 -0.135,-0.213 -0.253,-0.213 l -0.436,0 c -0.118,0 -0.194,0.097 -0.172,0.213 l 0.101,0.577 0.294,0 -0.071,-0.415 c -0.013,-0.085 0.039,-0.162 0.122,-0.162 0.084,0 0.165,0.077 0.182,0.162 l 0.061,0.334 c -0.055,0.14 -0.413,0.649 -0.436,0.77 -0.015,0.014 -0.022,0.087 -0.02,0.142 0.003,0.06 0.081,0.435 0.081,0.435 l 0.01,0.011 0,0.01 0,0.01 0.01,0.02 0,0.01 0.011,0.01 0,0.01 0.01,0.01 0,0.011 0.01,0.01 0.01,0.01 0,0.01 0.01,0 0.01,0.01 0.01,0.01 0.01,0.01 0.011,0.01 0.01,0.011 0.01,0.01 0.01,0 0.01,0.01 0.01,0 0.01,0.01 0.01,0 0.021,0 0.01,0.01 z m -3.312,0 0.365,0 0.05,-0.861 0.466,0.861 0.365,0 -0.75,-1.316 -0.182,-0.963 -0.324,0 0.162,1.033 -0.152,1.246 z m -2.33,0 0.011,0 0.01,0 0.01,0 0.01,0 0.01,0 0.446,0 c 0.12,0 0.206,-0.096 0.182,-0.223 l -0.112,-0.567 -0.273,0 0.061,0.375 C 23.703,0.713 23.654,0.78 23.568,0.78 23.484,0.78 23.401,0.713 23.386,0.628 L 23.335,0.354 c -0.008,-0.016 0.017,-0.093 0.031,-0.101 0.037,-0.021 0.395,-0.614 0.395,-0.658 0.008,-0.022 0.013,-0.032 0.01,-0.041 C 23.76,-0.52 23.66,-1.023 23.66,-1.023 23.637,-1.139 23.525,-1.236 23.406,-1.236 l -0.425,0 c -0.118,0 -0.194,0.097 -0.172,0.213 l 0.101,0.577 0.294,0 -0.071,-0.415 c -0.014,-0.085 0.036,-0.162 0.121,-0.162 0.082,0 0.169,0.077 0.183,0.162 l 0.06,0.334 c -0.054,0.14 -0.412,0.649 -0.435,0.77 -0.016,0.014 -0.022,0.087 -0.02,0.142 0.003,0.06 0.081,0.435 0.081,0.435 l 0.01,0 0,0.011 0,0.01 0,0.01 0.01,0.02 0,0.01 0.01,0.01 0,0.01 0.01,0.01 0,0.011 0.01,0.01 0.01,0.01 0,0.01 0.011,0 0.01,0.01 0.01,0.01 0.01,0.01 0,0.01 0.01,0 0.01,0.011 0.01,0.01 0.011,0 0.01,0.01 0.01,0 0.01,0.01 0.01,0 0.02,0 0.01,0.01 z m -42.498,-3.018 57.812,0 0,3.373 -57.812,0 0,-3.373 z m 20.581,13.329 0.01,0 0.01,0 0.01,0 0.01,0 0.588,0 c 0.138,0 0.432,-0.316 0.405,-0.456 L 1.914,8.366 C 1.89,8.233 1.561,7.92 1.428,7.92 l -0.557,0 c -0.115,0 -0.194,0.076 -0.203,0.182 0,0.017 -0.002,0.041 0,0.061 l 0.598,3.11 0.01,0.01 0.01,0.01 0.021,0.01 0.01,0 0.01,0.01 0.01,0.01 0.01,0 0.01,0.01 0.01,0 0.021,0.011 0.01,0 0.01,0 0.01,0 0,0.01 z m -8.072,0 0.628,0 c 0.138,0 0.43,-0.316 0.405,-0.456 L -6.158,8.356 C -6.183,8.224 -6.361,7.92 -6.492,7.92 l -0.76,0 -0.01,0 -0.01,0 -0.01,0.01 -0.01,0 -0.01,0 -0.011,0 -0.01,0 0,0.011 -0.01,0 -0.01,0 -0.01,0.01 -0.01,0 -0.01,0.01 -0.01,0.01 -0.011,0 0,0.01 -0.01,0.01 -0.01,0.01 0,0.01 -0.01,0.01 -0.01,0.011 0,0.01 0,0.01 -0.01,0.01 0,0.01 0,0.01 -0.01,0.01 0,0.01 c 0,0.017 -0.002,0.043 0,0.061 l 0.607,3.11 c 0.056,0.046 0.124,0.081 0.193,0.081 m 44.28,0.04 0.041,0 c 0.382,0 0.633,-0.306 0.567,-0.688 L 37.019,3.97 C 36.953,3.589 36.601,3.271 36.218,3.271 c -0.382,0 -0.541,0.317 -0.476,0.699 l 1.206,6.736 0.01,0.03 0.01,0.03 0.01,0.041 0.01,0.03 0.01,0.041 0.01,0.03 0.011,0.03 0.02,0.031 0.01,0.03 0.02,0.031 0.01,0.03 0.021,0.03 0.02,0.021 0.02,0.03 0.02,0.03 0.031,0.021 0.02,0.02 0.02,0.02 0.031,0.02 0.03,0.021 0.02,0.02 0.031,0.02 0.03,0.01 0.03,0.021 0.021,0.01 0.04,0.01 0.031,0.01 0.03,0 0.03,0.01 0.041,0 0.03,0.01 z m -5.216,0 0.598,0 c 0.382,0 0.643,-0.306 0.577,-0.688 L 32.309,3.97 C 32.242,3.588 31.871,3.271 31.489,3.271 l -0.588,0 1.509,8.123 z m 4.457,1.185 c -0.556,0 -1.086,-0.457 -1.185,-1.023 L 34.233,3.241 C 34.139,2.71 34.491,2.289 35.023,2.289 l 2.137,0 c 0.536,0 1.056,0.421 1.155,0.952 l 1.57,8.315 c 0.107,0.566 -0.256,1.023 -0.81,1.023 l -2.208,0 z m -5.561,0 -1.954,-10.29 2.957,0 c 0.537,0 1.055,0.421 1.155,0.952 l 1.569,8.315 c 0.107,0.567 -0.254,1.023 -0.81,1.023 l -2.917,0 z m -5.155,0 -1.955,-10.29 1.499,0 1.206,5.966 0.476,-5.966 1.296,0 1.955,10.29 -1.499,0 -1.003,-5.378 -0.668,5.378 -1.307,0 z m -3.292,0 -2.025,-10.29 2.917,0 0.202,1.276 -1.438,0 0.598,3.474 1.438,0 0.202,1.074 -1.438,0 0.628,3.19 1.438,0 0.203,1.276 -2.725,0 z m -3.565,0 -0.243,-1.276 0.81,0 -1.6,-9.014 1.479,0 1.63,9.014 0.78,0 0.203,1.276 -3.059,0 z m -5.023,0 -1.955,-10.29 1.499,0 1.205,5.966 0.476,-5.966 1.297,0 1.954,10.29 -1.499,0 -1.002,-5.378 -0.669,5.378 -1.306,0 z m -1.975,0 -1.955,-10.29 1.296,0 1.955,10.29 -1.296,0 z m -5.146,0 -1.954,-10.29 1.489,0 1.205,5.966 0.476,-5.966 1.296,0 1.955,10.29 -1.489,0 -1.013,-5.378 -0.668,5.378 -1.297,0 z m -6.937,0 -1.945,-10.29 1.296,0 0.882,4.659 0.921,0 C 1.489,6.835 1.503,6.627 1.519,6.522 1.543,6.371 1.568,6.178 1.55,6.026 1.533,5.876 0.841,2.289 0.841,2.289 l 1.296,0 c 0,0 0.729,3.908 0.729,3.97 0.002,0.064 0,0.264 -0.071,0.375 C 2.748,6.705 2.667,6.868 2.573,6.928 2.392,7.044 2.188,7.12 2.188,7.12 l -0.091,0 c 0.37,0.146 1.07,0.387 1.144,0.78 l 0.709,3.656 c 0.108,0.567 -0.255,1.023 -0.81,1.023 l -2.927,0 z m -3.484,0 -2.026,-10.29 2.917,0 0.202,1.276 -1.438,0 0.588,3.474 1.438,0 0.202,1.074 -1.438,0 0.638,3.19 1.439,0 0.202,1.276 -2.724,0 z m -4.629,0 -1.955,-10.29 1.297,0 0.891,4.659 1.651,0 c 0.537,0 1.046,0.424 1.144,0.952 l 0.709,3.656 c 0.107,0.567 -0.254,1.023 -0.81,1.023 l -1.631,0 -1.296,0 z m -4.659,0 -1.62,-9.338 c -0.093,-0.531 0.266,-0.952 0.8,-0.952 l 1.934,0 c 0.536,0 1.056,0.421 1.155,0.952 l 1.732,9.338 -1.216,0 -1.651,-9.075 c -0.024,-0.131 -0.152,-0.243 -0.283,-0.243 l -0.962,0 c -0.135,0 -0.225,0.111 -0.203,0.243 l 1.61,9.075 -1.296,0 z m -3.727,0 c -0.556,0 -1.096,-0.457 -1.195,-1.023 l 0,-0.01 0,-0.01 0,-0.01 -0.01,-0.01 0,-0.021 0,-0.01 -0.01,-0.02 0,-0.02 -0.011,-0.02 0,-0.031 -0.01,-0.02 0,-0.03 -0.01,-0.031 -0.01,-0.03 -0.01,-0.061 -0.02,-0.071 -0.011,-0.071 -0.02,-0.071 -0.01,-0.081 -0.02,-0.081 -0.021,-0.091 -0.02,-0.081 -0.03,-0.172 -0.02,-0.091 -0.021,-0.081 -0.01,-0.081 -0.02,-0.081 -0.02,-0.081 -0.01,-0.081 -0.01,-0.071 -0.021,-0.061 -0.01,-0.071 0,-0.03 -0.01,-0.021 0,-0.03 0,-0.02 -0.01,-0.031 0,-0.02 0,-0.02 -0.01,-0.02 0,-0.01 0,-0.011 c -0.011,-0.247 0.024,-0.585 0.101,-0.648 0.098,-0.545 1.916,-3.069 1.864,-3.453 -0.049,-0.386 -0.264,-1.52 -0.264,-1.52 -0.066,-0.382 -0.326,-0.689 -0.709,-0.689 -0.382,0 -0.643,0.306 -0.577,0.689 l 0.344,1.884 -1.357,0 -0.456,-2.613 c -0.093,-0.531 0.267,-0.952 0.8,-0.952 l 1.935,0 c 0.536,0 1.046,0.421 1.145,0.952 0,0 0.498,2.441 0.496,2.613 -0.002,0.173 -0.051,0.192 -0.051,0.192 0,0.199 -1.617,2.869 -1.782,2.968 -0.071,0.042 -0.13,0.306 -0.132,0.466 -0.003,0.159 0.213,1.226 0.213,1.226 0.065,0.382 0.428,0.688 0.81,0.688 0.382,0 0.542,-0.306 0.476,-0.688 l -0.294,-1.692 1.367,0 0.477,2.542 c 0.107,0.566 -0.255,1.023 -0.811,1.023 l -2.005,0 z" /></g></g></g></g><path
     inkscape:connector-curvature="0"
     id="path3475"
     d="m 141.87787,30.068016 c -2.16573,0 -3.94917,-1.759659 -3.94917,-3.949277 0,-2.181656 1.76752,-3.941282 3.94917,-3.941282 2.16573,0 3.94132,1.759626 3.94132,3.941282 0,2.189618 -1.75966,3.949277 -3.94132,3.949277 z m 0,-6.266291 c -1.28192,0 -2.32497,1.043051 -2.32497,2.317014 0,1.281925 1.04305,2.324976 2.32497,2.324976 1.27397,0 2.31702,-1.043051 2.31702,-2.324976 0,-1.273963 -1.04305,-2.317014 -2.31702,-2.317014 z"
     style="fill:#ff0000;fill-opacity:1;fill-rule:nonzero;stroke:none" /><path
     inkscape:connector-curvature="0"
     id="path3477"
     d="m 155.06326,30.314845 -0.11147,0 -5.97955,-0.780298 c -0.22294,-0.0319 -0.40607,-0.135358 -0.53347,-0.310526 -0.1274,-0.167215 -0.18313,-0.390149 -0.15924,-0.589213 l 0.7803,-5.98758 c 0.0637,-0.437922 0.46977,-0.748449 0.90769,-0.700675 l 5.98751,0.780297 c 0.21498,0.03182 0.40607,0.135358 0.52551,0.310527 0.1274,0.167182 0.19109,0.390124 0.15924,0.589179 l -0.7803,5.987613 c -0.0478,0.406074 -0.39015,0.700676 -0.79622,0.700676 z m -5.06389,-2.293128 4.36321,0.581242 0.57328,-4.363312 -4.3632,-0.581242 -0.57329,4.363312 z"
     style="fill:#ff5ddc;fill-opacity:1;fill-rule:nonzero;stroke:none" /><path
     inkscape:connector-curvature="0"
     id="path3479"
     d="m 141.98138,20.210805 c -0.0557,0 -0.10351,0 -0.1672,-0.01591 -0.43793,-0.08758 -0.7166,-0.50959 -0.62106,-0.947512 l 1.27396,-6.122922 c 0.0956,-0.437922 0.51755,-0.7166 0.95547,-0.629016 0.42996,0.09555 0.7166,0.517545 0.62105,0.955467 l -1.28191,6.122922 c -0.0557,0.374224 -0.40608,0.636985 -0.78031,0.636985 z"
     style="fill:#027fe1;fill-opacity:1;fill-rule:nonzero;stroke:none" /><path
     inkscape:connector-curvature="0"
     id="path3481"
     d="m 141.98138,20.210805 c -0.0557,0 -0.10351,0 -0.1672,-0.01591 -0.43793,-0.08758 -0.7166,-0.50959 -0.62106,-0.947512 l 1.27396,-6.122922 c 0.0956,-0.437922 0.51755,-0.7166 0.95547,-0.629016 0.42996,0.09555 0.7166,0.517545 0.62105,0.955467 l -1.28191,6.122922 c -0.0557,0.374224 -0.40608,0.636985 -0.78031,0.636985 z"
     style="fill:#027fe1;fill-opacity:1;fill-rule:nonzero;stroke:none" /><path
     inkscape:connector-curvature="0"
     id="path3483"
     d="m 145.69179,17.782328 c -0.0557,0 -0.10351,0 -0.1672,-0.01591 l -6.13094,-1.281917 c -0.42996,-0.08758 -0.71649,-0.509574 -0.62094,-0.947496 0.0955,-0.437922 0.51743,-0.7166 0.95536,-0.621053 l 6.12297,1.273947 c 0.43792,0.09555 0.7166,0.517544 0.62105,0.955474 -0.0716,0.374208 -0.40607,0.63697 -0.7803,0.63697 z"
     style="fill:#027fe1;fill-opacity:1;fill-rule:nonzero;stroke:none" /><path
     inkscape:connector-curvature="0"
     id="path3485"
     d="m 149.90382,19.780837 c -0.19905,0 -0.39015,-0.07962 -0.53347,-0.207018 -0.21498,-0.183131 -0.31052,-0.485695 -0.24683,-0.764364 l 1.10675,-5.270973 c 0.0637,-0.278678 0.26276,-0.509582 0.53348,-0.589204 0.26275,-0.09555 0.57328,-0.03182 0.79622,0.159244 l 4.03676,3.551133 c 0.21498,0.191094 0.31052,0.485704 0.24683,0.764382 -0.0637,0.278669 -0.26276,0.517536 -0.53347,0.60512 l -5.14351,1.703907 c -0.10351,0.03182 -0.18314,0.04781 -0.26276,0.04781 z m 1.60838,-4.554373 -0.53347,2.53994 2.47615,-0.828063 -1.94268,-1.711877 z"
     style="fill:#8aee49;fill-opacity:1;fill-rule:nonzero;stroke:none" /><path
     inkscape:connector-curvature="0"
     id="path3487"
     d="m 176.79214,60.467687 -5.064,-17.477039 c -0.2309,-0.828079 -1.1386,-1.496905 -1.99852,-1.496905 l -44.92266,0 c -0.85991,0 -1.74371,0.668826 -1.99851,1.496905 L 117.8082,60.37214 c -0.23887,0.828071 -0.43792,2.197581 -0.43792,3.057394 l 0,19.610921 c 0,0.851958 0.70067,1.552641 1.56058,1.552641 l 56.7386,0 c 0.85992,0 1.5606,-0.700683 1.5606,-1.552641 l 0,-19.523336 c 0,-0.851958 -0.19906,-2.229324 -0.43792,-3.049432 z m -5.27898,-1.640226 -48.43399,-0.06371 c -0.85992,0 -1.37746,-0.668826 -1.12267,-1.496905 l 3.20876,-11.162974 c 0.2309,-0.820109 1.13859,-1.496905 1.99851,-1.496905 l 40.23301,0 c 0.85186,0 1.75956,0.676796 1.99046,1.496905 l 3.26453,11.226672 c 0.2309,0.828079 -0.28664,1.496905 -1.13861,1.496905 z"
     style="fill:#808080;fill-opacity:1;fill-rule:nonzero;stroke:none" /><path
     inkscape:connector-curvature="0"
     id="path3489"
     d="m 122.93584,74.449294 -2.42846,0 0,-4.06871 6.49715,0 0,0.812146 -4.06869,0 0,3.256564 0,0 z"
     style="fill:#ffffff;fill-opacity:1;fill-rule:nonzero;stroke:none" /><path
     inkscape:connector-curvature="0"
     id="path3491"
     d="m 130.24513,73.621215 4.06872,0 0,0.812155 -6.49717,0 0,-4.06871 6.49717,0 0,2.428484 -4.06872,0 0,0.828071 z m 0,-1.624301 1.6243,0 0,-0.804184 -1.6243,0 0,0.804184 z"
     style="fill:#ffffff;fill-opacity:1;fill-rule:nonzero;stroke:none" /><path
     inkscape:connector-curvature="0"
     id="path3493"
     d="m 137.55448,73.621215 4.0686,0 0,0.812155 -6.49709,0 0,-4.06871 6.49709,0 0,0.812146 -4.0686,0 0,2.444409 z"
     style="fill:#ffffff;fill-opacity:1;fill-rule:nonzero;stroke:none" /><path
     inkscape:connector-curvature="0"
     id="path3495"
     d="m 142.4193,70.380584 6.50517,0 0,4.06871 -6.50517,0 0,-2.436447 4.06872,0 0,-0.804192 -4.06872,0 0,-0.828071 z m 2.45238,3.240631 1.61634,0 0,-0.812146 -1.61634,0 0,0.812146 z"
     style="fill:#ffffff;fill-opacity:1;fill-rule:nonzero;stroke:none" /><path
     inkscape:connector-curvature="0"
     id="path3497"
     d="m 149.73662,67.139945 2.42848,0 0,7.309349 -2.42848,0 0,-7.309349 z"
     style="fill:#ffffff;fill-opacity:1;fill-rule:nonzero;stroke:none" /><path
     inkscape:connector-curvature="0"
     id="path3499"
     d="m 152.99318,67.139945 2.42838,0 0,3.240639 4.06871,0 0,4.06871 -6.49709,0 0,-7.309349 z m 2.42838,6.48127 1.6243,0 0,-2.428485 -1.6243,0 0,2.428485 z"
     style="fill:#ffffff;fill-opacity:1;fill-rule:nonzero;stroke:none" /><path
     inkscape:connector-curvature="0"
     id="path3501"
     d="m 160.30241,70.380584 6.49721,0 0,4.06871 -6.49721,0 0,-4.06871 z m 2.4285,3.240631 1.62429,0 0,-2.428485 -1.62429,0 0,2.428485 z"
     style="fill:#ffffff;fill-opacity:1;fill-rule:nonzero;stroke:none" /><path
     inkscape:connector-curvature="0"
     id="path3503"
     d="m 168.42381,72.809069 0.81215,0 0,-0.812155 -0.81215,0 0,-0.804184 -0.81215,0 0,-0.812146 2.43645,0 0,0.812146 1.61633,0 0,-0.812146 2.43645,0 0,0.812146 -0.81214,0 0,0.804184 -0.81215,0 0,0.812155 0.81215,0 0,0.812146 0.81214,0 0,0.812155 -2.43645,0 0,-0.812155 -1.61633,0 0,0.812155 -2.43645,0 0,-0.812155 0.81215,0 0,-0.812146 z"
     style="fill:#ffffff;fill-opacity:1;fill-rule:nonzero;stroke:none" /><path
     inkscape:connector-curvature="0"
     id="path3505"
     d="m 167.49233,47.839656 c -0.0637,-2.961954 -0.14332,-3.917428 -0.422,-5.087874 -0.93955,-3.925399 -2.55588,-6.998823 -4.96048,-9.379429 -3.28841,-3.272488 -7.30934,-3.583015 -11.9592,-0.93955 l -1.0749,0.629024 c -1.64819,-0.01591 -3.55116,-0.11148 -3.95724,-0.222943 -0.31052,-0.199063 -0.99528,-0.573288 -1.51283,-0.836041 -3.17694,-1.576527 -6.07509,-1.751696 -8.62301,-0.50162 -3.37599,1.648188 -6.32999,6.154714 -7.50837,11.489425 -0.34238,1.544671 -0.37422,2.022412 -0.35831,5.860112 0.0159,4.347388 0.10352,5.14361 0.78031,6.481271 0.63695,1.281925 1.58445,2.141845 3.00174,2.683276 0.3583,0.143328 0.73252,0.207017 1.1386,0.207017 2.27721,0 5.28693,-2.141845 7.87456,-5.708927 l 0.76438,-1.043059 13.26501,0 0.76437,1.043059 c 2.01445,2.794747 5.39045,5.756701 7.66764,5.756701 1.73578,0 3.49543,-1.21822 4.37925,-3.025652 0.67678,-1.480981 0.84388,-3.009727 0.74048,-7.40479 z"
     style="fill:#ffffff;fill-opacity:1;fill-rule:nonzero;stroke:none" /><path
     inkscape:connector-curvature="0"
     id="path3507"
     d="m 166.87924,47.855581 c -0.0637,-2.914181 -0.13536,-3.837806 -0.40607,-4.960479 -0.91567,-3.837814 -2.46034,-6.783843 -4.78532,-9.084827 -3.09731,-3.089349 -6.7918,-3.368035 -11.2187,-0.843995 l -1.23415,0.700675 c 0,0 -4.06871,-0.04781 -4.41109,-0.294602 -0.23887,-0.159244 -0.9077,-0.533469 -1.49691,-0.828079 -3.00973,-1.496897 -5.70882,-1.664104 -8.08954,-0.50162 -3.21675,1.576528 -6.03538,5.92381 -7.20584,11.083352 -0.32642,1.480973 -0.35826,1.950752 -0.34234,5.740678 0.0159,4.251842 0.0956,4.968441 0.71657,6.202594 0.56532,1.138605 1.41728,1.887054 2.68328,2.388673 l 0,0 c 2.03834,0.79623 5.47007,-1.393388 8.2886,-5.302862 l 0.95546,-1.305804 13.88607,0 0.95547,1.305804 c 2.22943,3.089357 5.37452,5.501918 7.16603,5.501918 1.48097,0 3.0575,-1.090824 3.82188,-2.683276 0.66883,-1.36951 0.82807,-2.850483 0.7166,-7.11815 z m -24.73861,-5.58154 -2.10204,0 0,2.102034 c 0,0.652901 -0.54939,1.202303 -1.20219,1.202303 -0.6529,0 -1.2023,-0.549402 -1.2023,-1.202303 l 0,-2.102034 -2.10203,0 c -0.65291,0 -1.20231,-0.549394 -1.20231,-1.202296 0,-0.65291 0.5494,-1.202303 1.20231,-1.202303 l 2.10203,0 0,-2.102034 c 0,-0.652902 0.5494,-1.202303 1.2023,-1.202303 0.6528,0 1.20219,0.549401 1.20219,1.202303 l 0,2.102034 2.10204,0 c 0.6529,0 1.2023,0.549393 1.2023,1.202303 -0.0159,0.668827 -0.5494,1.202296 -1.2023,1.202296 z m 15.49443,-6.576818 c 1.01121,0 1.83928,0.820109 1.83928,1.839281 0,1.011202 -0.82807,1.839281 -1.83928,1.839281 -1.0112,0 -1.83928,-0.828079 -1.83928,-1.839281 0.0159,-1.019172 0.82808,-1.839281 1.83928,-1.839281 z m -5.97158,3.551166 c 0,-1.01121 0.82807,-1.839281 1.83918,-1.839281 1.01917,0 1.83928,0.828071 1.83928,1.839281 0,1.011202 -0.82011,1.839273 -1.83928,1.839273 -1.01111,0 -1.83918,-0.828071 -1.83918,-1.839273 z m 3.82178,6.218518 c -1.01121,0 -1.83928,-0.828071 -1.83928,-1.839281 0,-1.01121 0.82807,-1.839281 1.83928,-1.839281 1.0112,0 1.83928,0.828071 1.83928,1.839281 0,1.01121 -0.82808,1.839281 -1.83928,1.839281 z m 3.86965,-1.839281 c -1.01917,0 -1.84724,-0.828071 -1.84724,-1.839281 0,-1.01121 0.82807,-1.839281 1.84724,-1.839281 1.0112,0 1.83928,0.828071 1.83928,1.839281 0,1.027135 -0.82808,1.839281 -1.83928,1.839281 z"
     style="fill:#808080;fill-opacity:1;fill-rule:nonzero;stroke:none" /><path
     inkscape:connector-curvature="0"
     id="path3509"
     d="m 159.00457,81.057854 0,0 0,0 z"
     style="fill:#d40000;fill-opacity:1;fill-rule:nonzero;stroke:none" /><path
     inkscape:connector-curvature="0"
     id="path3511"
     d="m 159.00457,79.537071 0,0 0,0 z"
     style="fill:#d40000;fill-opacity:1;fill-rule:nonzero;stroke:none" /><path
     inkscape:connector-curvature="0"
     id="path3513"
     d="m 159.00457,78.040165 0,0 0,0 z"
     style="fill:#d40000;fill-opacity:1;fill-rule:nonzero;stroke:none" /><path
     inkscape:connector-curvature="0"
     id="path3515"
     d="m 159.00457,78.788614 0,0 0,0 z"
     style="fill:#d40000;fill-opacity:1;fill-rule:nonzero;stroke:none" /><path
     inkscape:connector-curvature="0"
     id="path3517"
     d="m 159.00457,81.806311 0,0 0,0 z"
     style="fill:#d40000;fill-opacity:1;fill-rule:nonzero;stroke:none" /><path
     inkscape:connector-curvature="0"
     id="path3519"
     d="m 159.00457,80.285519 0,0 0,0 z"
     style="fill:#d40000;fill-opacity:1;fill-rule:nonzero;stroke:none" /><path
     inkscape:connector-curvature="0"
     id="path3521"
     d="m 159.00457,77.291709 0,0 0,0 z"
     style="fill:#d40000;fill-opacity:1;fill-rule:nonzero;stroke:none" /></svg>