<svg xmlns="http://www.w3.org/2000/svg" viewBox="373.5 287.6 399.99999 73.113451">
  <path fill="#f79226" d="M737.06469 298.34527c8.30163-1.37245 17.13885.76991 23.83372 5.82453 4.88725 3.61523 8.6029 8.66985 10.71178 14.36049 2.41015 6.66139 2.54405 14.15964.23432 20.88798-1.97498 5.92495-5.82453 11.2139-10.81221 14.9965-5.45631 4.11734-12.28507 6.42707-19.11384 6.29317-10.24314.10042-20.28544-5.35589-25.90913-13.89184-5.858-8.63638-6.92918-20.2185-2.77837-29.79216 4.0504-9.74103 13.35626-17.0719 23.83373-18.67867zm-15.93379 17.57402v3.68218h3.34744v19.6829h-3.34744v3.68218h10.47747v-3.68218h-3.34743c.0335-7.76604-.0335-15.53209.0335-23.33161-2.41015-.0335-4.78683 0-7.16351-.0335zm13.72448 2.30973c.0335 7.36435-.0335 14.7287.0335 22.05958.63602.93728 1.60677 1.64024 2.37668 2.4771h23.43203c.87033-1.10465 2.67795-1.87456 2.41015-3.5148-.0335-3.14659.0335-6.29318-.0335-9.43976-.46864-.83686-1.3055-1.4394-1.97499-2.10889-7.59867.0335-15.23082-.0335-22.82949.0335-.0335-2.7449 0-5.48979-.0335-8.23469h21.59094v3.44786h3.24701v-4.85378c-.66949-.70296-1.37245-1.40592-2.07541-2.10888-7.96689.0335-15.90031-.0335-23.83372.0335-.87033.66949-1.53982 1.50635-2.30973 2.20931zm-330.22425-18.61173h6.09232c.0335 17.7414 0 35.48279.0335 53.22418h6.86224c0-17.74139-.0335-35.48278.0335-53.22418 2.07541.0335 4.11734 0 6.19275.0335-.0335 17.00496 0 34.00991 0 51.01487-.0335 1.23855.10042 2.4771-.20085 3.68218-.56906 2.57752-3.11311 4.55251-5.72411 4.51903h-7.36435c-3.21353-.0669-5.92495-3.04616-5.85801-6.22622-.10042-17.67445-.0669-35.34889-.0669-53.02334zm34.64593 0c4.21776.0335 8.469-.0335 12.68677.0335 2.97921.0335 6.19275 2.30972 6.22622 5.48979v19.41511c-.0335 2.81184-1.90803 5.72411-4.78683 6.22622 2.00846 9.33934 3.94997 18.71215 5.95843 28.05149h-5.75758c-2.10888-9.23892-4.28472-18.47783-6.3936-27.68327h-2.10888v27.71674h-5.85801c.0335-19.74985.0335-39.4997.0335-59.24956zm6.09232 5.85801v19.31469h6.76182v-19.34817c-2.24278.0335-4.48556.0335-6.76182.0335zm29.45741-5.85801c4.41861 0 8.8707-.0335 13.28931 0 2.81185 0 5.45632 2.30973 5.55674 5.15505v18.74562c0 1.74067-1.23855 3.11312-2.44363 4.18429 1.17161.97076 2.30973 2.24278 2.44363 3.84955.16737 2.54405.067 5.12157.10042 7.66562-.0335 3.88302.067 7.79952-.10042 11.71602-.067 1.67371.2678 3.44785-.56906 4.9542-.90381 1.84109-2.94574 2.91227-4.9542 2.91227-4.41862 0-8.8707-.0335-13.28931 0-.0335-19.68291 0-39.43276-.0335-59.18262zm6.12581 5.85801v19.34816h6.76181v-19.31469c-2.24278-.0335-4.48556-.0335-6.76181-.0335zm0 25.50744v22.02611h6.79528v-21.99264c-2.27625-.0335-4.51903 0-6.79528-.0335zm32.43662-31.0307c1.80761-.53559 3.68218-.2678 5.55674-.33475 2.04193.0335 4.25124-.26779 6.09233.76991 1.84108.97076 3.5148 2.84532 3.44785 5.05462v45.55857c-.0335 1.33897.16737 2.71142-.46864 3.94997-.93728 1.97498-2.81184 3.6487-5.05462 3.88302-2.00846.0335-4.01692 0-6.02538.0335-1.1716 0-2.41015.10043-3.51481-.33474-2.3432-.93728-4.28471-3.24701-4.21776-5.85801v-45.52508c0-1.20508-.1339-2.51058.40169-3.64871.70296-1.64024 2.10888-2.94574 3.7826-3.54827zm2.30973 5.62368v47.09838h6.52749v-47.09838h-6.52749z"/>
  <path fill="#f79226" d="M738.37018 331.25053h21.18925v7.93342c-7.06308 0-14.12616.0335-21.18925-.0335.0335-2.61099 0-5.25547 0-7.89994zm-359.1126-37.72557H373.5v-5.92495h18.41088v5.92495h-5.75758v65.27495h-6.89572"/>
  <path fill="#d5e14d" d="M545.79237 294.09403c-.1339-3.04617 2.30973-5.92496 5.28894-6.3936 2.44363-.10042 4.88726 0 7.33088-.0335 3.51481-.36822 6.79529 2.94574 6.62792 6.42707v10.47746c-2.10888.0335-4.18429 0-6.29317 0 0-3.54828.0335-7.09656 0-10.64483-2.34321.0335-4.65294 0-6.99614 0-.0335 19.6829 0 39.39928 0 59.08219 2.41015 0 4.8203.0335 7.19698-.0335-.0335-9.54018 0-19.08037 0-28.58707h-3.18006v-5.69064h9.27239c0 13.35626.0335 26.74599 0 40.10225-4.31819-.0335-8.63638 0-12.95457 0-2.51057 0-4.98767-1.60677-5.92495-3.94998-.50212-1.23855-.33475-2.57752-.33475-3.84954 0-18.97995 0-37.95989-.0335-56.90636zm35.48279 5.52326c4.11734 0 8.20121-.0335 12.31855 0 2.51058-.0335 5.12157 1.33897 6.19275 3.68218.43517.87033.33475 1.87456.33475 2.84532-.0335 6.2597 0 12.48592 0 18.74562-.1339 2.64447-2.00846 5.35589-4.75336 5.79106 2.04194 9.33934 3.98345 18.71215 5.95843 28.08496h-5.72411c-2.14236-9.27239-4.28471-18.54478-6.42707-27.78369h-2.04193v27.88411h-5.85801c.0335-19.74985.0335-39.4997 0-59.24956zm5.95843 5.79106v19.24774h6.86224v-19.24774h-6.86224zm28.78792-.30127c0-2.67794 2.24278-5.28894 4.98768-5.38937 2.67794-.0335 5.38936 0 8.06731-.0335 1.37245-.0335 2.81184.33474 3.88302 1.20508 1.23855 1.00423 1.90804 2.61099 1.90804 4.21776v53.65935h-5.79106v-28.11844h-7.19698c-.0335 9.37282 0 18.74563 0 28.11844h-5.85801v-53.65935zm6.02538.63601c0 6.32665-.0335 12.68677 0 19.01342 2.27626-.0335 4.55251 0 6.86224 0v-19.01342c-2.27626 0-4.58598-.0335-6.86224 0zm27.54937-.93728c.0335-2.61099 2.27626-5.05462 4.92073-5.0881h9.87493v5.28895h-8.8707c-.0335 6.62792 0 13.22236 0 19.85028h7.26393v5.858h-7.2974v28.11844h-5.95843c.0669-18.04266.0669-36.05185.0669-54.02757zm29.52436-5.0881h6.19275c.0335 5.48979-.067 10.94611.067 16.4359 1.03771 1.74067 2.27626 3.41438 3.38091 5.12157 1.07118-1.70719 2.3432-3.28048 3.31396-5.02115.10042-5.48979.0335-11.01305.0335-16.50284h6.19275c-.0335 3.94997 0 7.86647 0 11.81644-.0335 1.84109.16737 3.71565-.50211 5.45631-1.37245 3.6487-3.44786 6.99614-5.48979 10.3101 2.3432 3.74912 4.85378 7.53172 5.92495 11.88338.1339 6.56097.0335 13.15541.0335 19.71638h-5.75759c-.0335-6.59444.0335-13.18888-.0335-19.8168-.97076-2.00846-2.44363-3.74913-3.61523-5.65716-1.20507 1.84109-2.44362 3.61523-3.6487 5.45631 0 6.6614.0335 13.32279 0 20.01765-2.04193-.0335-4.05039 0-6.09233 0v-18.57825c-.0335-1.67372.76991-3.21354 1.4394-4.71988 1.43939-2.91227 3.11311-5.69064 4.92072-8.36858-2.41015-3.71565-5.12157-7.39783-6.29317-11.71602-.16737-5.32242 0-10.57789-.067-15.83336z"/>
</svg>
