<svg xmlns="http://www.w3.org/2000/svg" width="400" height="77.983711">
  <defs>
    <clipPath id="a">
      <path d="M0 93.812h481.186V0H0v93.812z"/>
    </clipPath>
  </defs>
  <g clip-path="url(#a)" transform="matrix(0.83128008,0,0,-0.83128008,-8.5167628e-5,77.984047)">
    <path fill="#e72835" d="M86.6544 29.2392c1.282 2.112 1.571 4.315 1.774 6.515.165 1.792-.218 3.554-.602 5.301-1.318 5.996-4.328 11.081-8.466 15.525-1.437 1.542-2.936 3.029-4.598 4.362-2.261 1.814-4.646 3.426-7.183 4.798-3.203 1.732-6.615 2.985-10.187 3.682-2.043.399-4.157.71-6.223.631-1.843-.071-3.719-.349-5.544-.849-4.561-1.251-8.013-3.915-10.125-8.112-1.824-3.625-2.03-7.572-1.238-11.485.701-3.471 2.046-6.772 3.94-9.773 2.378-3.768 5.167-7.19 8.679-10.027 2.258-1.824 4.588-3.502 7.116-4.9 5.655-3.126 11.659-4.957 18.192-4.645 1.792.086 3.553.417 5.218 1.158-.528.078-1.045.095-1.561.075-3.072-.117-5.912.754-8.635 2.064-4.588 2.207-8.189 5.568-10.746 9.914-1.965 3.341-2.993 7.015-1.976 10.951.546 2.114 1.669 3.834 3.497 5.166 2.942 2.143 6.295 2.099 9.57 1.741 2.674-.293 5.244-1.332 7.617-2.729 3.437-2.024 6.391-4.582 8.538-7.953 2.06-3.236 3.456-6.704 2.872-10.678-.026-.178.033-.368.071-.732m-32.182 64.573c.911-.693 2.043-.403 3.041-.556 5.275-.81 10.298-2.394 15.186-4.468 4.89-2.076 9.568-4.584 13.979-7.52 2.994-1.994 5.896-4.147 8.624-6.537 1.537-1.347 2.966-2.816 4.563-4.112 1.544-1.253 2.775-2.899 4.105-4.397 1.815-2.044 3.486-4.228 5.013-6.508 3.028-4.524 5.321-9.39 6.488-14.718.33-1.507.69-3.094.22-5.039-.212 1.844-.339 3.367-.844 4.794-.916 2.589-2.309 4.929-3.949 7.124-1.51 2.02-3.132 3.948-5.015 5.628-2.502 2.232-5.149 4.258-8.072 5.949-2.862 1.656-5.887 2.852-9.052 3.69-2.579.683-5.225 1.015-7.94.745.002-.456.373-.652.691-.867 2.16-1.455 4.138-3.126 6.076-4.867 1.451-1.303 2.805-2.666 4.11-4.115 2.392-2.654 4.518-5.493 6.408-8.511 2.536-4.048 4.326-8.431 5.436-13.063.912-3.808 1.099-7.669.529-11.582-.608-4.177-2.077-8.011-4.43-11.454-2.269-3.32-5.261-5.888-8.808-7.89-3.556-2.007-7.333-3.317-11.268-4.193-1.724-.384-3.495-.62-5.278-.785-2.549-.236-5.096-.489-7.653-.552-3.073-.076-6.096.418-9.137.858-3.074.444-6.018 1.281-8.933 2.247-5.718 1.895-11.087 4.542-16.265 7.625-3.356 1.998-6.558 4.213-9.614 6.61-3.53 2.768-6.844 5.825-9.825 9.181-3.911 4.404-7.463 9.088-9.902 14.512-1.285 2.859-2.284 5.792-2.773 8.918-.202 1.291-.214 2.532-.146 3.812.254-1.257.467-2.514.738-3.763.573-2.64 1.998-4.833 3.414-7.029 1.274-1.976 2.924-3.678 4.506-5.398 1.411-1.534 3.072-2.865 4.742-4.128 2.214-1.675 4.568-3.183 7.103-4.319 3.56-1.595 7.225-2.915 11.206-2.953.775-.007 1.459-.487 2.267-.336.397.075.821-.008 1.046.481-4.163 2.757-7.856 6.092-11.196 9.781-2.687 2.966-4.949 6.271-7.004 9.728-2.454 4.129-3.9 8.611-4.995 13.225-.512 2.157-.394 4.394-.421 6.609-.073 5.806 1.867 10.997 5.176 15.596 2.957 4.111 7.05 6.924 11.772 8.875 2.766 1.143 5.61 1.981 8.498 2.621 1.818.404 3.697.732 5.594.753.363.003.849-.255 1.079.298h10.91z"/>
    <path fill="#262223" d="M128.9086 52.2882c2.895 1.775 4.663 5.398 8.703 5.3 1.459-.035 2.92-.005 4.56-.005-1.997-8.308-3.92-16.306-5.863-24.386 4.507 1.57 4.394 1.689 5.831 6.165 1.433 4.465 2.622 8.98 3.741 13.525.485 1.968 4.005 4.71 6.004 4.683 2.403-.032 4.819.203 7.256-.166-1.906-7.992-3.786-15.873-5.788-24.263 3.078 1.773 5.302 3.373 5.859 6.713.636 3.815 1.657 7.567 2.498 11.349.6 2.699 3.216 3.721 4.699 5.685.864 1.144 2.128.634 3.228.676 1.769.069 3.543.019 5.391.019-1.952-7.796-3.859-15.294-5.686-22.812-.409-1.685-.241-1.394-2.397-3.711l-2.618-2.247c-1.692-1.451-3.393-2.374-5.798-2.348-11.827.127-23.655.058-35.483.058 0 .634 5.738 25.688 5.863 25.765m349.5481-24.3411h-11.561c.825 3.058 1.648 6.149 2.494 9.232 1.08 3.933.154 5.185-3.873 5.191-.945.001-1.891 0-3.031 0-.948-3.263-1.846-6.554-2.867-9.807-1.143-3.643-3.592-5.472-7.308-5.377-2.126.055-4.352-.521-6.415.43.887 4.309 5.197 17.213 5.744 19.191h17.466c2.1 0 4.206-.092 6.3.024 2.407.133 4.212-.898 5.78-2.56 0-2.112-1.854-12.862-2.729-16.324M294.1375 42.315c-8.463.194-10.088-.462-10.606-4.159 6.239-.71 6.621-.567 10.606 4.159m9.563-1.985c2.671 2.513 5.583 3.815 8.233 5.524 1.159.748 2.425.999 3.833.98 4.961-.069 9.925-.065 14.887-.005 1.61.019 2.998-.302 4.401-1.169 2.431-1.502 3.044-3.279 1.44-5.562-.961-1.369-2.256-2.402-3.947-2.876-3.12-.875-6.178-.969-9.233.136.11.563.132.767.19.959.35 1.177 1.945 2.164.597 3.596-.671.713-3.505.491-4.742-.039-2.845-1.217-3.681-3.768-4.176-6.375-.533-2.807-1.702-5.407-2.127-8.215h-11.84c.882 4.181 1.736 8.23 2.633 12.48-1.58-.559-2.308-1.68-3.182-2.506-3.61-3.409-7.845-4.295-12.607-3.794-1.861.195-3.76.032-5.545.032-.536-.87-.416-1.554-.154-2.444h15.343c-2.2-2.479-4.486-4.561-7.957-4.537-4.646.032-9.292-.013-13.938.026-.904.008-1.764-.038-2.723.399-3.097 1.409-4.389 2.17-3.092 6.378.966 3.132 1.244 6.491 3.964 8.763 1.814 1.515 3.761 2.87 5.6 4.355.775.627 1.615.347 2.415.352 5.913.035 11.826.025 17.739.017 3.217-.004 3.899-.706 3.986-4.058.016-.632.002-1.264.002-2.417"/>
    <path fill="#262223" d="M322.0508 26.7922c2.093 2.095 4.111 4.046 6.039 6.081.704.744 1.502.634 2.318.616 8.206-.188 16.421.395 24.623-.288 1.753-.146 2.498.79 3.205 4.098-3.607 0-7.161.234-10.67-.062-4.073-.343-6.831 2.018-6.52 6.578.348 5.102 2.726 8.868 6.748 11.731.709.505 1.588.812 2.611.804 8.421-.062 16.842-.035 25.794-.035-1.85-1.885-3.414-3.39-4.869-4.996-.77-.85-1.681-.703-2.604-.705-3.381-.009-6.761.017-10.141-.01-3.338-.025-4.651-1.189-5.456-5.065 3.712 0 7.355-.036 10.996.013 2.459.033 4.501-.899 5.934-2.79 1.432-1.891 1.113-4.313.738-6.378-.721-3.981-2.792-7.268-6.611-9.127-.917-.447-1.847-.768-2.947-.764-12.782.048-25.563.032-38.345.04-.174 0-.348.103-.843.259m77.0841 5.5669c2.857 1.321 4.848 3.201 5.59 6.525.916 4.103 2.457 5.042 4.458 7.222 1.186 1.293 2.77.539 4.171.681 1.025.103 2.068.02 3.156.02-.447-4.572-2.143-8.586-2.621-12.862-.231-2.078-6.76-5.628-7.96-6.922-.522-.564-1.115-.495-1.725-.495-11.288-.002-22.576.003-33.864.019-.192 0-.383.147-.715.283.735 4.489 1.859 8.941 2.817 13.403.565 2.627 3.367 4.146 5.284 6.045 1.108 1.099 2.597.397 3.909.509 1.142.097 2.299.02 3.835.02-.445-5.187-2.188-9.945-3.202-14.731.462-.442.62-.051.859.022 4.496 1.383 4.882 5.291 5.498 9.016.502 3.031 3.505 5.686 6.604 5.692 2.005.003 4.009-.001 6.013-.021.197-.002.392-.137.587-.212-.864-4.594-2.949-14.443-2.694-14.214m-139.3758 9.6461c-1.855.557-3.12.36-4.361.346-2.094-.025-4.573-1.143-5.318-3.933-.555-2.076-1.522-4.751-.684-7.249 4.606-.415 7.309.232 9.062 4.492.702 1.707 1.301 4.173 1.301 6.344m17.072 11.771c-1.723-2.417-2.964-4.537-4.576-6.322-1.921-2.127-2.224-4.71-2.799-7.283-1-4.477-2.095-8.932-3.21-13.648h-12.619c-3.587 0-7.174-.013-10.761.003-4.289.019-6.348 2.293-5.68 6.523.299 1.89.928 3.751 1.603 5.553.645 1.719.933 2.468 2.514 3.794 1.149.964 0 0 4.287 3.001 2.686 1.648 2.394 1.481 3.941 1.432 2.635-.081 5.275.017 7.912-.037 1.526-.032 2.643.19 3.768 1.758 2.618 3.649 1.682 2.404 2.618 3.649.521.693 1.065 1.59 2.2 1.584 3.436-.018 6.871-.007 10.802-.007m-93.3889-22.7156c6.82.003 9.19 4.567 9.031 11.13-6.442 1.037-10.429-2.064-9.031-11.13m19.514 3.937c-.401-1.663-1.285-2.886-2.661-3.784-2.137-1.395-4.34-2.692-6.448-4.131-.865-.59-1.746-.56-2.676-.56-5.071 0-10.154-.219-15.208.066-4.475.253-6.281 2.87-5.147 6.778.397 1.367.702 2.811 1.199 4.079.734 1.87 1.384 3.736 3.442 5.133 3.677 2.819 2.394 1.959 3.677 2.819 1.352.906 2.734 1.54 4.559 1.476 5.382-.187 10.774-.064 16.161-.067 4.054-.003 5.857-2.307 4.646-6.226-.293-.948-1.302-4.58-1.544-5.583m234.3622 6.9121c-2.828.735-5.187 1.048-7.239-1.433-.925-1.118-1.845-2.28-2.547-3.485-.632-1.084-1.154-2.583-.069-3.919 1.229-1.513 2.908-2.281 4.712-2.708 1.186-.281 1.815.361 2.153 1.651.842 3.216 1.909 6.372 2.99 9.894m7.442-14.119c-8.244 0-16.557-.032-24.869.023-2.114.013-4.416 2.948-4.644 5.428-.504 5.493 2.134 9.085 6.666 11.757 2.22 1.308 4.437 1.9 7.024 1.853 7.161-.129 14.326-.045 21.566-.045-.311-1.796-4.369-14.83-5.743-19.016M206.5737 44.8559c.588 1.51 1.14 1.972 2.589 1.966 7.498-.031 14.998.085 22.494-.065 2.927-.059 5.044-1.697 4.943-4.927-.126-3.989-1.503-7.636-2.346-11.423-.175-.784-.015-1.654-.532-2.496h-10.624c.521 2.927.848 5.754 1.597 8.465.29 1.051.399 2.04.384 3.059-.03 1.962-.896 2.843-2.815 2.923-1.467.061-2.938.012-4.491.012-.84-3.232-1.577-6.385-2.487-9.488-1.083-3.69-3.951-5.719-7.808-5.725-5.504-.009-5.388-.035-4.177 5.295.403 1.776 2.369 10.081 3.273 12.404"/>
  </g>
</svg>
