<?xml version="1.0" encoding="UTF-8" standalone="no"?>
<!-- Generator: Adobe Illustrator 13.0.0, SVG Export Plug-In . SVG Version: 6.00 Build 14948)  -->

<svg
   xmlns:dc="http://purl.org/dc/elements/1.1/"
   xmlns:cc="http://creativecommons.org/ns#"
   xmlns:rdf="http://www.w3.org/1999/02/22-rdf-syntax-ns#"
   xmlns:svg="http://www.w3.org/2000/svg"
   xmlns="http://www.w3.org/2000/svg"
   xmlns:sodipodi="http://sodipodi.sourceforge.net/DTD/sodipodi-0.dtd"
   xmlns:inkscape="http://www.inkscape.org/namespaces/inkscape"
   id="Layer_3"
   xml:space="preserve"
   height="350.26462"
   viewBox="0 0 598.19015 350.26161"
   width="598.18915"
   version="1.2"
   y="0px"
   x="0px"
   inkscape:version="0.91 r13725"
   sodipodi:docname="controller.svg"><defs
     id="defs30" /><sodipodi:namedview
     pagecolor="#ffffff"
     bordercolor="#666666"
     borderopacity="1"
     objecttolerance="10"
     gridtolerance="10"
     guidetolerance="10"
     inkscape:pageopacity="0"
     inkscape:pageshadow="2"
     inkscape:window-width="690"
     inkscape:window-height="480"
     id="namedview28"
     showgrid="false"
     fit-margin-top="0"
     fit-margin-left="0"
     fit-margin-right="0"
     fit-margin-bottom="0"
     inkscape:zoom="0.48145238"
     inkscape:cx="299.09757"
     inkscape:cy="175.13641"
     inkscape:window-x="0"
     inkscape:window-y="0"
     inkscape:window-maximized="0"
     inkscape:current-layer="Layer_3" /><metadata
     id="metadata55"><rdf:RDF><cc:Work
         rdf:about=""><dc:format>image/svg+xml</dc:format><dc:type
           rdf:resource="http://purl.org/dc/dcmitype/StillImage" /><dc:title></dc:title></cc:Work></rdf:RDF></metadata><path
     id="path3"
     style="color:#000000;text-indent:0;text-align:start;text-transform:none;direction:ltr;block-progression:tb;baseline-shift:baseline;fill:#f4f4f4;enable-background:accumulate"
     d="m 294.78257,-0.00178528 c -91.93,0 -172.38,31.98100028 -204.969998,48.53100028 -16.879,8.574 -41.048,24.857 -60.093,48.375 -19.045,23.513995 -32.9580002,54.323995 -29.06300024,91.713995 4.99960004,47.998 27.06800024,87.065 50.56200024,114.66 11.747,13.795 23.846,24.715 34.375,32.469 10.529,7.7536 19.425998,12.372 25.093998,13.469 8.1265,1.5729 18.219,1.6845 28.031,-1.9375 9.8125,-3.622 19.294,-11.037 26.094,-24.375 13.446,-26.375 21.082,-52.288 48,-66 27.04,-13.775 62.088,-16.375 69.594,-16.375 l 33.375,0 c 7.5068,0 42.555,2.6004 69.594,16.375 l 0.19,0.1 c 26.76,13.738 34.399,39.595 47.812,65.906 6.7999,13.338 16.281,20.753 26.094,24.375 9.8125,3.6221 19.905,3.5104 28.031,1.9375 5.6673,-1.0968 14.565,-5.7151 25.094,-13.469 10.529,-7.7536 22.628,-18.673 34.375,-32.469 23.495,-27.591 45.562,-66.658 50.562,-114.66 3.8947,-37.392 -10.017,-68.2 -29.062,-91.718995 -19.04,-23.513 -43.21,-39.796 -60.08,-48.37 -32.59,-16.549 -113.04,-48.53100028 -204.97,-48.53100028 l -8.625,0 z m 0,1.99999998 8.625,0 c 91.467,0 171.74,31.8940003 204.06,48.3120003 16.654,8.4598 40.661,24.618 59.469,47.844 18.808,23.224995 32.426,53.456995 28.594,90.249995 -4.9489,47.506 -26.802,86.242 -50.094,113.59 -11.646,13.676 -23.636,24.501 -34.031,32.156 -10.395,7.6554 -19.279,12.126 -24.281,13.094 -7.8435,1.5181 -17.591,1.6179 -26.969,-1.8438 -9.3778,-3.4616 -18.405,-10.47 -25,-23.406 -13.342,-26.171 -21.186,-52.769 -48.875,-66.875 -27.567,-14.043 -62.549,-16.594 -70.5,-16.594 l -33.375,0 c -7.9467,0 -42.907,2.5356 -70.469,16.562 l -0.0312,0.0312 c -27.69,14.106 -35.533,40.704 -48.875,66.875 -6.5951,12.937 -15.622,19.945 -25,23.406 -9.3777,3.4615 -19.125,3.3619 -26.969,1.8438 -4.99,-0.97 -13.872998,-5.44 -24.268998,-13.09 -10.395,-7.66 -22.385,-18.48 -34.031,-32.16 -23.291,-27.35 -45.1450002,-66.09 -50.0940002,-113.59 -3.8322,-36.8 9.7858002,-67.03 28.5940002,-90.253995 18.808,-23.225 42.815,-39.384 59.469,-47.844 C 123.06137,33.886415 203.32037,1.9934147 294.79037,1.9934147 Z"
     inkscape:connector-curvature="0" /><path
     id="circle5"
     style="color:#000000;text-indent:0;text-align:start;text-transform:none;direction:ltr;block-progression:tb;baseline-shift:baseline;fill:#f4f4f4;enable-background:accumulate"
     d="m 139.53257,59.748215 c -51.185998,0 -92.687998,41.501995 -92.687998,92.687995 0,51.186 41.502,92.719 92.687998,92.719 51.186,0 92.719,-41.533 92.719,-92.719 0,-51.186 -41.533,-92.687995 -92.719,-92.687995 z m 0,2 c 50.105,0 90.719,40.582995 90.719,90.687995 0,50.105 -40.614,90.719 -90.719,90.719 -50.104998,0 -90.687998,-40.614 -90.687998,-90.719 0,-50.105 40.583,-90.687995 90.687998,-90.687995 z"
     inkscape:connector-curvature="0" /><path
     id="circle7"
     style="color:#000000;text-indent:0;text-align:start;text-transform:none;direction:ltr;block-progression:tb;baseline-shift:baseline;fill:#f4f4f4;enable-background:accumulate"
     d="m 139.53257,79.342215 c -40.372998,0 -73.093998,32.719995 -73.093998,73.093995 0,40.373 32.72,73.125 73.093998,73.125 40.373,0 73.125,-32.752 73.125,-73.125 0,-40.373 -32.752,-73.093995 -73.125,-73.093995 z m 0,2 c 39.293,0 71.125,31.800995 71.125,71.093995 0,39.293 -31.832,71.125 -71.125,71.125 -39.293,0 -71.093998,-31.832 -71.093998,-71.125 0,-39.293 31.800998,-71.093995 71.093998,-71.093995 z"
     inkscape:connector-curvature="0" /><path
     id="circle9"
     style="color:#000000;text-indent:0;text-align:start;text-transform:none;direction:ltr;block-progression:tb;baseline-shift:baseline;fill:#f4f4f4;enable-background:accumulate"
     d="m 139.53257,97.623215 c -30.273,0 -54.811998,24.539995 -54.811998,54.811995 0,30.273 24.539998,54.844 54.811998,54.844 30.273,0 54.844,-24.571 54.844,-54.844 0,-30.273 -24.571,-54.811995 -54.844,-54.811995 z m 0,2 c 29.192,0 52.844,23.620995 52.844,52.811995 0,29.192 -23.652,52.844 -52.844,52.844 -29.192,0 -52.811998,-23.652 -52.811998,-52.844 0,-29.192 23.620998,-52.811995 52.811998,-52.811995 z"
     inkscape:connector-curvature="0" /><path
     id="path11"
     style="color:#000000;text-indent:0;text-align:start;text-transform:none;direction:ltr;block-progression:tb;baseline-shift:baseline;fill:#f4f4f4;enable-background:accumulate"
     d="m 129.59257,101.74821 c -1.8201,0 -3.3125,1.4913 -3.3125,3.3125 l 0,27.875 c 0,2.1179 -0.62293,3.6064 -1.6875,4.625 -1.06457,1.0186 -2.6671,1.625 -4.8438,1.625 l -27.593998,0 c -1.8206,0 -3.3125,1.4919 -3.3125,3.3125 l 0,19.906 c 0,1.8212 1.4925,3.3125 3.3125,3.3125 l 27.593998,0 c 2.021,0 3.638,0.62774 4.75,1.7188 1.112,1.091 1.7812,2.6901 1.7812,4.8125 l 0,27.594 c 0,1.8212 1.4924,3.3125 3.3125,3.3125 l 19.906,0 c 1.8207,0 3.3125,-1.4918 3.3125,-3.3125 l 0,-27.5 c 4.6e-4,-2.1151 0.52745,-3.7504 1.5312,-4.8438 1.0038,-1.0933 2.5776,-1.7812 5.0938,-1.7812 l 27.5,0 c 1.8212,0 3.3125,-1.4919 3.3125,-3.3125 l 0,-19.906 c 0,-1.8206 -1.4913,-3.3125 -3.3125,-3.3125 l -27.469,0 c -2.6217,0 -4.209,-0.67155 -5.1875,-1.6875 -0.97853,-1.016 -1.4688,-2.5069 -1.4688,-4.5625 l 0,-27.875 c 0,-1.8212 -1.4924,-3.3125 -3.3125,-3.3125 l -19.906,0 z m 0,2 19.906,0 c 0.7399,0 1.3125,0.5717 1.3125,1.3125 l 0,27.875 c 0,2.3664 0.58403,4.4662 2.0312,5.9688 1.44717,1.5026 3.6657,2.2812 6.625,2.2812 l 27.469,0 c 0.7408,0 1.3125,0.57313 1.3125,1.3125 l 0,19.906 c 0,0.73938 -0.5717,1.3125 -1.3125,1.3125 l -27.5,0 c -2.8928,0 -5.15,0.86507 -6.5938,2.4375 -1.4437,1.5724 -2.0307,3.7516 -2.0312,6.1875 l 0,27.5 c 0,0.74132 -0.57118,1.3125 -1.3125,1.3125 l -19.906,0 c -0.7399,0 -1.3125,-0.5717 -1.3125,-1.3125 l 0,-27.594 c 0,-2.5566 -0.87821,-4.7195 -2.4062,-6.2188 -1.528,-1.4992 -3.68,-2.3125 -6.125,-2.3125 l -27.593998,0 c -0.73795,0 -1.3125,-0.57365 -1.3125,-1.3125 l 0,-19.906 c 0,-0.73937 0.57312,-1.3125 1.3125,-1.3125 l 27.593998,0 c 2.5453,0 4.7073,-0.74134 6.2188,-2.1875 1.5114,-1.4462 2.3125,-3.5434 2.3125,-6.0625 l 0,-27.875 c 0,-0.7408 0.5726,-1.3125 1.3125,-1.3125 z"
     inkscape:connector-curvature="0" /><path
     id="path13"
     style="color:#000000;text-indent:0;text-align:start;text-transform:none;direction:ltr;block-progression:tb;baseline-shift:baseline;fill:#f4f4f4;enable-background:accumulate"
     d="m 150.78257,117.08821 c 0,12.554 10.781,24.125 24.156,24.125 l 0,-2 c -12.212,0 -22.156,-10.723 -22.156,-22.125 l -2,0 z"
     inkscape:connector-curvature="0" /><path
     id="polygon15"
     style="color:#000000;text-indent:0;text-align:start;text-transform:none;direction:ltr;block-progression:tb;baseline-shift:baseline;fill-rule:nonzero;enable-background:accumulate"
     d="m 174.22257,116.30821 -1.125,0.46875 -8.75,3.7188 -0.71875,0.28125 0.5625,0.53125 5.1562,4.8438 0.53125,0.5 0.28125,-0.65625 3.5938,-8.5625 0.46875,-1.125 z m -1.8438,1.875 -2.875,6.75 -4.0625,-3.8438 6.9375,-2.9062 z"
     inkscape:connector-curvature="0" /><path
     id="circle17"
     style="color:#000000;text-indent:0;text-align:start;text-transform:none;direction:ltr;block-progression:tb;baseline-shift:baseline;fill:#f4f4f4;enable-background:accumulate"
     d="m 139.53257,140.55821 c -6.5631,0 -11.875,5.3119 -11.875,11.875 0,6.5631 5.3119,11.906 11.875,11.906 6.5631,0 11.906,-5.3431 11.906,-11.906 0,-6.5631 -5.3431,-11.875 -11.906,-11.875 z m 0,2 c 5.4822,0 9.9062,4.3928 9.9062,9.875 0,5.4822 -4.424,9.9062 -9.9062,9.9062 -5.4822,0 -9.875,-4.424 -9.875,-9.9062 0,-5.4822 4.3928,-9.875 9.875,-9.875 z"
     inkscape:connector-curvature="0" /><path
     id="path19"
     style="color:#000000;text-indent:0;text-align:start;text-transform:none;direction:ltr;block-progression:tb;baseline-shift:baseline;fill:#f4f4f4;enable-background:accumulate"
     d="m 126.31257,117.05821 c 0,12.212 -10.723,22.156 -22.125,22.156 l 0,2 c 12.554,0 24.125,-10.781 24.125,-24.156 l -2,0 z"
     inkscape:connector-curvature="0" /><path
     id="polygon21"
     style="color:#000000;text-indent:0;text-align:start;text-transform:none;direction:ltr;block-progression:tb;baseline-shift:baseline;fill-rule:nonzero;enable-background:accumulate"
     d="m 103.41257,117.77821 0.46875,1.125 3.7188,8.75 0.28125,0.71875 0.53125,-0.5625 4.8438,-5.1562 0.5,-0.53125 -0.65625,-0.28125 -8.5625,-3.5938 -1.125,-0.46875 z m 1.875,1.8438 6.75,2.875 -3.8438,4.0625 -2.9062,-6.9375 z"
     inkscape:connector-curvature="0" /><path
     id="path23"
     style="color:#000000;text-indent:0;text-align:start;text-transform:none;direction:ltr;block-progression:tb;baseline-shift:baseline;fill:#f4f4f4;enable-background:accumulate"
     d="m 104.16257,163.68821 0,2 c 12.211,0 22.156,10.722 22.156,22.125 l 2,0 c 0,-12.555 -10.782,-24.125 -24.156,-24.125 z"
     inkscape:connector-curvature="0" /><path
     id="polygon25"
     style="color:#000000;text-indent:0;text-align:start;text-transform:none;direction:ltr;block-progression:tb;baseline-shift:baseline;fill-rule:nonzero;enable-background:accumulate"
     d="m 109.22257,178.24821 -0.28125,0.65625 -3.5938,8.5625 -0.46875,1.125 1.125,-0.46875 8.75,-3.7188 0.71875,-0.28125 -0.5625,-0.53125 -5.1562,-4.8438 -0.53125,-0.5 z m 0.375,1.7188 4.0625,3.8125 -6.9375,2.9375 2.875,-6.75 z"
     inkscape:connector-curvature="0" /><path
     id="path27"
     style="color:#000000;text-indent:0;text-align:start;text-transform:none;direction:ltr;block-progression:tb;baseline-shift:baseline;fill:#f4f4f4;enable-background:accumulate"
     d="m 174.91257,163.68821 c -12.554,0 -24.125,10.782 -24.125,24.156 l 2,0 c 0,-12.211 10.723,-22.156 22.125,-22.156 l 0,-2 z"
     inkscape:connector-curvature="0" /><path
     id="polygon29"
     style="color:#000000;text-indent:0;text-align:start;text-transform:none;direction:ltr;block-progression:tb;baseline-shift:baseline;fill-rule:nonzero;enable-background:accumulate"
     d="m 171.22257,176.52821 -0.53125,0.5625 -4.8438,5.1562 -0.5,0.53125 0.65625,0.28125 8.5625,3.5938 1.125,0.46875 -0.46875,-1.125 -3.7188,-8.75 -0.28125,-0.71875 z m -0.34375,1.8125 2.9375,6.9375 -6.75,-2.875 3.8125,-4.0625 z"
     inkscape:connector-curvature="0" /><path
     id="path31"
     style="color:#000000;text-indent:0;text-align:start;text-transform:none;direction:ltr;block-progression:tb;baseline-shift:baseline;fill:#f4f4f4;enable-background:accumulate"
     d="m 503.53257,81.904215 c -4.0692,0.07702 -8.3971,0.29918 -12.906,0.6875 -18.037,1.5533 -38.999,5.8627 -58.375,15.031 -14.463,6.843695 -30.896,17.177995 -45,27.968995 -14.104,10.79 -25.868,21.996 -31,30.844 -5.1525,8.8844 -5.8039,20.51 -3.8438,31.531 1.9602,11.021 6.5213,21.449 12.188,28 11.238,12.995 30.594,20.326 55.281,13.719 12.328,-3.2986 20.222,-8.2087 28.406,-13.938 8.1838,-5.7288 16.672,-12.296 30.5,-19.125 27.706,-13.682 51.272,-18.78 64.094,-22.938 6.4803,-2.1021 13.213,-5.7405 18.344,-12.375 5.1308,-6.6345 8.6395,-16.227 8.8125,-30.125 0.17552,-14.02 -5.6556,-24.874 -13.406,-32.624995 -7.7507,-7.7506 -17.388,-12.441 -25.125,-14.375 -5.821,-1.4557 -15.761,-2.5123 -27.969,-2.2812 z m 0.0625,2.0312 c 12.094,-0.21944 21.894,0.80899 27.406,2.1875 7.3739,1.8431 16.772,6.3968 24.219,13.844 7.4471,7.446895 12.981,17.729995 12.812,31.187995 -0.169,13.577 -3.5456,22.693 -8.375,28.938 -4.8294,6.2447 -11.148,9.6676 -17.375,11.688 -12.569,4.0748 -36.359,9.2367 -64.219,22.969 l -0.15625,0.0937 c -13.991,6.9095 -22.652,13.559 -30.781,19.25 -8.1297,5.691 -15.693,10.43 -27.75,13.656 -24.083,6.4451 -42.508,-0.67297 -53.25,-13.094 -5.3238,-6.1555 -9.8464,-16.329 -11.75,-27.031 -1.9036,-10.702 -1.2127,-21.9 3.5938,-30.188 4.8282,-8.3242 16.502,-19.541 30.5,-30.25 13.998,-10.709 30.337,-20.989 44.625,-27.749995 19.09,-9.0334 39.866,-13.306 57.719,-14.844 4.4633,-0.38437 8.7501,-0.5831 12.781,-0.65625 z"
     inkscape:connector-curvature="0" /><path
     id="path33"
     style="color:#000000;text-indent:0;text-align:start;text-transform:none;direction:ltr;block-progression:tb;baseline-shift:baseline;fill:#f4f4f4;enable-background:accumulate"
     d="m 518.62257,94.498215 c -8.4685,-0.25574 -17.478,1.4208 -26.219,4.8125 -23.013,8.930295 -51.828,20.255995 -65.344,27.187995 -10.751,5.5137 -25.026,11.353 -37.156,19.094 -12.13,7.7408 -22.206,17.45 -24.156,30.75 -3.8695,26.397 19.444,45.89 44.094,41.312 12.195,-2.2644 20.464,-7.176 29,-13.125 8.5356,-5.949 17.387,-12.911 31.031,-19.562 13.657,-6.6574 28.184,-11.454 40.875,-15.312 12.69,-3.8585 23.488,-6.7793 29.844,-9.7812 6.4857,-3.0629 12.376,-9.7754 15.25,-18.219 2.8735,-8.4434 2.689,-18.633 -3.125,-28.5 -5.8166,-9.8704 -15.14,-15.643995 -25.844,-17.749995 -2.676,-0.52644 -5.4272,-0.821 -8.25,-0.90625 z m -0.0625,2 c 2.7206,0.08117 5.3759,0.37107 7.9375,0.875 10.246,2.0157 18.983,7.418595 24.5,16.780995 5.519,9.3662 5.6765,18.919 2.9688,26.875 -2.7077,7.9561 -8.3404,14.286 -14.219,17.062 -6.0069,2.837 -16.838,5.7562 -29.562,9.625 -12.724,3.8688 -27.368,8.7009 -41.188,15.438 -13.833,6.7437 -22.848,13.85 -31.312,19.75 -8.4649,5.8997 -16.373,10.582 -28.219,12.781 -23.432,4.351 -45.433,-13.91 -41.75,-39.031 1.8273,-12.459 11.336,-21.772 23.25,-29.375 11.914,-7.6027 26.122,-13.421 37,-19 13.273,-6.8067 42.181,-18.166 65.188,-27.094 8.5171,-3.304995 17.244,-4.930995 25.406,-4.687495 z"
     inkscape:connector-curvature="0" /><path
     id="circle35"
     style="color:#000000;text-indent:0;text-align:start;text-transform:none;direction:ltr;block-progression:tb;baseline-shift:baseline;fill:#f4f4f4;enable-background:accumulate"
     d="m 403.09257,149.77821 c -16.9,0 -30.625,13.725 -30.625,30.625 0,16.9 13.725,30.625 30.625,30.625 16.9,0 30.625,-13.725 30.625,-30.625 0,-16.9 -13.725,-30.625 -30.625,-30.625 z m 0,2 c 15.819,0 28.625,12.806 28.625,28.625 0,15.819 -12.806,28.625 -28.625,28.625 -15.819,0 -28.625,-12.806 -28.625,-28.625 0,-15.819 12.806,-28.625 28.625,-28.625 z"
     inkscape:connector-curvature="0" /><path
     id="circle37"
     style="color:#000000;text-indent:0;text-align:start;text-transform:none;direction:ltr;block-progression:tb;baseline-shift:baseline;fill:#f4f4f4;enable-background:accumulate"
     d="m 403.09257,155.43821 c -13.77,0 -24.938,11.198 -24.938,24.969 0,13.77 11.167,24.969 24.938,24.969 13.77,0 24.969,-11.198 24.969,-24.969 0,-13.77 -11.198,-24.969 -24.969,-24.969 z m 0,2 c 12.69,0 22.969,10.279 22.969,22.969 0,12.69 -10.279,22.969 -22.969,22.969 -12.69,0 -22.938,-10.279 -22.938,-22.969 0,-12.69 10.248,-22.969 22.938,-22.969 z"
     inkscape:connector-curvature="0" /><path
     id="circle39"
     style="color:#000000;text-indent:0;text-align:start;text-transform:none;direction:ltr;block-progression:tb;baseline-shift:baseline;fill:#f4f4f4;enable-background:accumulate"
     d="m 459.78257,120.43821 c -16.9,0 -30.625,13.694 -30.625,30.594 0,16.9 13.725,30.625 30.625,30.625 16.9,0 30.594,-13.725 30.594,-30.625 0,-16.9 -13.694,-30.594 -30.594,-30.594 z m 0,2 c 15.819,0 28.594,12.774 28.594,28.594 0,15.819 -12.774,28.625 -28.594,28.625 -15.819,0 -28.625,-12.806 -28.625,-28.625 0,-15.819 12.806,-28.594 28.625,-28.594 z"
     inkscape:connector-curvature="0" /><path
     id="circle41"
     style="color:#000000;text-indent:0;text-align:start;text-transform:none;direction:ltr;block-progression:tb;baseline-shift:baseline;fill:#f4f4f4;enable-background:accumulate"
     d="m 459.78257,126.08821 c -13.771,0 -24.969,11.167 -24.969,24.938 0,13.771 11.198,24.969 24.969,24.969 13.771,0 24.938,-11.198 24.938,-24.969 0,-13.771 -11.167,-24.938 -24.938,-24.938 z m 0,2 c 12.69,0 22.938,10.247 22.938,22.938 0,12.69 -10.247,22.969 -22.938,22.969 -12.69,0 -22.969,-10.279 -22.969,-22.969 0,-12.69 10.279,-22.938 22.969,-22.938 z"
     inkscape:connector-curvature="0" /><path
     id="circle43"
     style="color:#000000;text-indent:0;text-align:start;text-transform:none;direction:ltr;block-progression:tb;baseline-shift:baseline;fill:#f4f4f4;enable-background:accumulate"
     d="m 519.78257,98.779215 c -16.901,0 -30.625,13.723995 -30.625,30.624995 0,16.901 13.724,30.625 30.625,30.625 16.901,0 30.625,-13.724 30.625,-30.625 0,-16.901 -13.724,-30.624995 -30.625,-30.624995 z m 0,1.999995 c 15.82,0 28.625,12.805 28.625,28.625 0,15.82 -12.805,28.625 -28.625,28.625 -15.82,0 -28.625,-12.805 -28.625,-28.625 0,-15.82 12.805,-28.625 28.625,-28.625 z"
     inkscape:connector-curvature="0" /><path
     id="circle45"
     style="color:#000000;text-indent:0;text-align:start;text-transform:none;direction:ltr;block-progression:tb;baseline-shift:baseline;fill:#f4f4f4;enable-background:accumulate"
     d="m 519.78257,104.43821 c -13.771,0 -24.938,11.198 -24.938,24.969 0,13.771 11.167,24.969 24.938,24.969 13.771,0 24.969,-11.198 24.969,-24.969 0,-13.771 -11.198,-24.969 -24.969,-24.969 z m 0,2 c 12.69,0 22.969,10.279 22.969,22.969 0,12.69 -10.279,22.969 -22.969,22.969 -12.69,0 -22.938,-10.279 -22.938,-22.969 0,-12.69 10.247,-22.969 22.938,-22.969 z"
     inkscape:connector-curvature="0" /><path
     id="path47"
     style="color:#000000;text-indent:0;text-align:start;text-transform:none;direction:ltr;block-progression:tb;baseline-shift:baseline;fill:#f4f4f4;enable-background:accumulate"
     d="m 442.91257,50.342215 c -1.8765,-0.12952 -3.8,0.13099 -5.6875,0.78125 l -41.1,14.125 c -7.5491,2.6 -11.57,10.855 -8.9688,18.406 2.601,7.5509 10.855,11.602 18.406,9 l 41.1,-14.156 c 7.55,-2.601 11.57,-10.855 8.9688,-18.406 -1.9508,-5.6625 -7.0894,-9.3614 -12.719,-9.75 z m -0.125,2 c 4.8532,0.32901 9.2508,3.5103 10.938,8.4062 2.249,6.5291 -1.1907,13.595 -7.7188,15.844 l -41.09,14.156 c -6.5291,2.25 -13.595,-1.1897 -15.844,-7.7188 -2.249,-6.5291 1.1918,-13.627 7.7188,-15.875 l 41.09,-14.156 c 1.632,-0.56224 3.2885,-0.76592 4.9062,-0.65625 z"
     inkscape:connector-curvature="0" /><path
     id="path49"
     style="color:#000000;text-indent:0;text-align:start;text-transform:none;direction:ltr;block-progression:tb;baseline-shift:baseline;fill:#f4f4f4;enable-background:accumulate"
     d="m 441.84257,56.842215 c -1.064,-0.07399 -2.1808,0.03801 -3.25,0.40625 l -39.78,13.719 c -4.2769,1.473 -6.5366,6.1604 -5.0625,10.438 1.4729,4.278 6.1604,6.5679 10.438,5.0938 l 39.75,-13.719 c 4.2779,-1.4729 6.5666,-6.1599 5.0938,-10.438 -1.1055,-3.2076 -3.9956,-5.278 -7.1875,-5.5 z m -0.15625,1.9688 c 2.4158,0.16232 4.6273,1.7461 5.4688,4.1875 1.1212,3.2564 -0.58769,6.7852 -3.8438,7.9062 l -39.781,13.688 c -3.2549,1.1218 -6.7852,-0.58774 -7.9062,-3.8438 -1.1218,-3.2549 0.58865,-6.7852 3.8438,-7.9062 l 39.79,-13.688 c 0.81378,-0.28026 1.6322,-0.39786 2.4375,-0.34375 z"
     inkscape:connector-curvature="0" /></svg>