<?xml version="1.0" encoding="UTF-8" standalone="no"?>
<svg
   xmlns:dc="http://purl.org/dc/elements/1.1/"
   xmlns:cc="http://creativecommons.org/ns#"
   xmlns:rdf="http://www.w3.org/1999/02/22-rdf-syntax-ns#"
   xmlns:svg="http://www.w3.org/2000/svg"
   xmlns="http://www.w3.org/2000/svg"
   viewBox="0 0 545.17749 264.3425"
   height="264.3425"
   width="545.17749"
   xml:space="preserve"
   version="1.1"
   id="svg2"><metadata
     id="metadata8"><rdf:RDF><cc:Work
         rdf:about=""><dc:format>image/svg+xml</dc:format><dc:type
           rdf:resource="http://purl.org/dc/dcmitype/StillImage" /><dc:title></dc:title></cc:Work></rdf:RDF></metadata><defs
     id="defs6" /><g
     transform="matrix(1.25,0,0,-1.25,0,264.3425)"
     id="g10"><path
       id="path12"
       style="fill:#333333;fill-opacity:1;fill-rule:nonzero;stroke:none"
       d="m 0,5.418 436.143,0 0,206.057 L 0,211.475 0,5.418 Z" /><g
       transform="translate(329.5266,111.3585)"
       id="g14"><path
         id="path16"
         style="fill:#ffffff;fill-opacity:1;fill-rule:nonzero;stroke:none"
         d="m 0,0 58.719,0 0,-15.48 -66.283,0 L 0,0 Z" /></g><g
       transform="translate(316.3746,95.8786)"
       id="g18"><path
         id="path20"
         style="fill:#ffffff;fill-opacity:1;fill-rule:nonzero;stroke:none"
         d="m 0,0 -62.104,0 0,15.48 L 8,15.48 0,0 Z" /></g><path
       id="path22"
       style="fill:#b12a12;fill-opacity:1;fill-rule:nonzero;stroke:none"
       d="m 389.229,45.563 -136.544,0 0,47.687 136.544,0 0,-47.687 z" /><path
       id="path24"
       style="fill:#666666;fill-opacity:1;fill-rule:nonzero;stroke:none"
       d="m 406.446,128.646 -376.75,0 0,51.383 376.75,0 0,-51.383 z" /><path
       id="path26"
       style="fill:#666666;fill-opacity:1;fill-rule:nonzero;stroke:none"
       d="m 290.696,5.418 60,0 0,22.082 -60,0 0,-22.082 z" /><path
       id="path28"
       style="fill:#191919;fill-opacity:1;fill-rule:nonzero;stroke:none"
       d="m 31.992,0 48.32,0 0,5.418 -48.32,0 0,-5.418 z" /><path
       id="path30"
       style="fill:#b12a12;fill-opacity:1;fill-rule:nonzero;stroke:none"
       d="m 432.696,33 -428.5,0 0,4.25 428.5,0 0,-4.25 z" /><g
       transform="translate(55.6524,9.1702)"
       id="g32"><path
         id="path34"
         style="fill:#ffffff;fill-opacity:1;fill-rule:nonzero;stroke:none"
         d="m 0,0 2.469,2.138 2.468,2.138 -4.937,0 -4.937,0 L -2.469,2.138 0,0 Z" /></g><g
       transform="translate(199.9024,9.1702)"
       id="g36"><path
         id="path38"
         style="fill:#ffffff;fill-opacity:1;fill-rule:nonzero;stroke:none"
         d="m 0,0 2.468,2.138 2.469,2.138 -4.937,0 -4.937,0 L -2.469,2.138 0,0 Z" /></g><path
       id="path40"
       style="fill:#ffffff;fill-opacity:1;fill-rule:nonzero;stroke:none"
       d="m 417.562,13.446 -47.32,0 0,8.907 47.32,0 0,-8.907 z" /><g
       transform="translate(306.6151,71.6525)"
       id="g42"><path
         id="path44"
         style="fill:#ffffff;fill-opacity:1;fill-rule:nonzero;stroke:none"
         d="M 0,0 -34.602,11.514 -34.711,-11.851 0,0 Z" /></g><g
       transform="translate(252.6524,9.1702)"
       id="g46"><path
         id="path48"
         style="fill:#ffffff;fill-opacity:1;fill-rule:nonzero;stroke:none"
         d="m 0,0 2.468,2.138 2.469,2.138 -4.937,0 -4.937,0 L -2.469,2.138 0,0 Z" /></g><g
       transform="translate(305.0712,71.5333)"
       id="g50"><path
         id="path52"
         style="fill:#333333;fill-opacity:1;fill-rule:nonzero;stroke:none"
         d="m 0,0 -32.469,10.527 0,-21.054 L 0,0 Z" /></g><g
       transform="translate(357.0146,17.8995)"
       id="g54"><path
         id="path56"
         style="fill:#ffffff;fill-opacity:1;fill-rule:nonzero;stroke:none"
         d="m 0,0 2.138,-2.468 2.138,-2.469 0,4.937 0,4.937 L 2.138,2.469 0,0 Z" /></g><path
       id="path58"
       style="fill:#b12a12;fill-opacity:1;fill-rule:nonzero;stroke:none"
       d="m 389.229,115.474 -136.544,0 0,11.259 136.544,0 0,-11.259 z" /><path
       id="path60"
       style="fill:#000000;fill-opacity:1;fill-rule:nonzero;stroke:none"
       d="m 387.446,132.916 -132.218,0 0,28.834 132.218,0 0,-28.834 z" /><g
       transform="translate(315.5337,96.7526)"
       id="g62"><path
         id="path64"
         style="fill:#333333;fill-opacity:1;fill-rule:nonzero;stroke:none"
         d="m 0,0 -60.173,0 0,13.819 67.416,0 L 0,0 Z" /></g><path
       id="path66"
       style="fill:#000000;fill-opacity:1;fill-rule:nonzero;stroke:none"
       d="m 283.572,99.871 -25.982,0 0,7.495 25.982,0 0,-7.495 z" /><g
       transform="translate(330.7293,110.5715)"
       id="g68"><path
         id="path70"
         style="fill:#333333;fill-opacity:1;fill-rule:nonzero;stroke:none"
         d="m 0,0 56.328,0 0,-13.819 -63.091,0 L 0,0 Z" /></g><path
       id="path72"
       style="fill:#000000;fill-opacity:1;fill-rule:nonzero;stroke:none"
       d="m 385.135,99.871 -25.982,0 0,7.495 25.982,0 0,-7.495 z" /><g
       transform="translate(362.0678,66.1417)"
       id="g74"><path
         id="path76"
         style="fill:#ffffff;fill-opacity:1;fill-rule:nonzero;stroke:none"
         d="m 0,0 -19.638,0 6.5,11.921 18.996,0 L 0,0 Z" /></g><g
       transform="translate(0,211.4748)"
       id="g78"><path
         id="path80"
         style="fill:#4c4c4c;fill-opacity:1;fill-rule:nonzero;stroke:none"
         d="m 0,0 0,-169.975 29.696,87.146 0,51.383 L 0,0 Z" /></g><g
       transform="translate(436.1427,211.4748)"
       id="g82"><path
         id="path84"
         style="fill:#4c4c4c;fill-opacity:1;fill-rule:nonzero;stroke:none"
         d="m 0,0 -29.696,-31.446 0,-51.383 L 0,-169.975 0,0 Z" /></g><g
       transform="translate(361.2636,66.7735)"
       id="g86"><path
         id="path88"
         style="fill:#333333;fill-opacity:1;fill-rule:nonzero;stroke:none"
         d="m 0,0 -17.556,0 5.811,10.657 16.982,0 L 0,0 Z" /></g><path
       id="path90"
       style="fill:#333333;fill-opacity:1;fill-rule:nonzero;stroke:none"
       d="m 416.775,14.169 -45.744,0 0,7.441 45.744,0 0,-7.441 z" /><path
       id="path92"
       style="fill:#ffffff;fill-opacity:1;fill-rule:nonzero;stroke:none"
       d="m 276.345,13.446 -47.32,0 0,8.907 47.32,0 0,-8.907 z" /><path
       id="path94"
       style="fill:#333333;fill-opacity:1;fill-rule:nonzero;stroke:none"
       d="m 275.557,14.169 -45.744,0 0,7.441 45.744,0 0,-7.441 z" /><path
       id="path96"
       style="fill:#ffffff;fill-opacity:1;fill-rule:nonzero;stroke:none"
       d="m 223.963,13.446 -47.32,0 0,8.907 47.32,0 0,-8.907 z" /><path
       id="path98"
       style="fill:#333333;fill-opacity:1;fill-rule:nonzero;stroke:none"
       d="m 223.175,14.169 -45.744,0 0,7.441 45.744,0 0,-7.441 z" /><path
       id="path100"
       style="fill:#ffffff;fill-opacity:1;fill-rule:nonzero;stroke:none"
       d="m 79.697,13.446 -47.32,0 0,8.907 47.32,0 0,-8.907 z" /><path
       id="path102"
       style="fill:#b12a12;fill-opacity:1;fill-rule:nonzero;stroke:none"
       d="m 78.909,14.169 -45.744,0 0,7.441 45.744,0 0,-7.441 z" /><path
       id="path104"
       style="fill:#000000;fill-opacity:1;fill-rule:nonzero;stroke:none"
       d="m 392.204,186.518 -142.554,0 0,1.753 142.554,0 0,-1.753 z" /><path
       id="path106"
       style="fill:#000000;fill-opacity:1;fill-rule:nonzero;stroke:none"
       d="m 392.207,42.712 -142.554,0 0,1.753 142.554,0 0,-1.753 z" /><path
       id="path108"
       style="fill:#000000;fill-opacity:1;fill-rule:nonzero;stroke:none"
       d="m 249.649,186.518 1.753,0 0,-142.026 -1.753,0 0,142.026 z" /><path
       id="path110"
       style="fill:#000000;fill-opacity:1;fill-rule:nonzero;stroke:none"
       d="m 390.449,186.518 1.753,0 0,-142.026 -1.753,0 0,142.026 z" /><path
       id="path112"
       style="fill:#000000;fill-opacity:1;fill-rule:nonzero;stroke:none"
       d="m 390.449,179.47 -139.047,0 0,1.049 139.047,0 0,-1.049 z" /><path
       id="path114"
       style="fill:#000000;fill-opacity:1;fill-rule:nonzero;stroke:none"
       d="m 390.449,171.708 -139.047,0 0,1.049 139.047,0 0,-1.049 z" /><path
       id="path116"
       style="fill:#000000;fill-opacity:1;fill-rule:nonzero;stroke:none"
       d="m 390.449,165.824 -139.047,0 0,1.049 139.047,0 0,-1.049 z" /></g></svg>