<?xml version="1.0" encoding="UTF-8" standalone="no"?>
<svg
   xmlns:dc="http://purl.org/dc/elements/1.1/"
   xmlns:cc="http://creativecommons.org/ns#"
   xmlns:rdf="http://www.w3.org/1999/02/22-rdf-syntax-ns#"
   xmlns:svg="http://www.w3.org/2000/svg"
   xmlns="http://www.w3.org/2000/svg"
   xmlns:sodipodi="http://sodipodi.sourceforge.net/DTD/sodipodi-0.dtd"
   xmlns:inkscape="http://www.inkscape.org/namespaces/inkscape"
   viewBox="0 0 251.7175 164.4425"
   height="164.4425"
   width="251.7175"
   xml:space="preserve"
   version="1.1"
   id="svg2"
   inkscape:version="0.91 r13725"
   sodipodi:docname="game.svg"><sodipodi:namedview
     pagecolor="#ffffff"
     bordercolor="#666666"
     borderopacity="1"
     objecttolerance="10"
     gridtolerance="10"
     guidetolerance="10"
     inkscape:pageopacity="0"
     inkscape:pageshadow="2"
     inkscape:window-width="1920"
     inkscape:window-height="1027"
     id="namedview146"
     showgrid="false"
     inkscape:zoom="2.8285678"
     inkscape:cx="235.45485"
     inkscape:cy="82.221252"
     inkscape:window-x="-8"
     inkscape:window-y="-8"
     inkscape:window-maximized="1"
     inkscape:current-layer="svg2" /><metadata
     id="metadata8"><rdf:RDF><cc:Work
         rdf:about=""><dc:format>image/svg+xml</dc:format><dc:type
           rdf:resource="http://purl.org/dc/dcmitype/StillImage" /><dc:title /></cc:Work></rdf:RDF></metadata><defs
     id="defs6"><clipPath
       id="clipPath16"
       clipPathUnits="userSpaceOnUse"><path
         id="path18"
         d="m 0,131.554 201.374,0 L 201.374,0 0,0 0,131.554 Z" /></clipPath></defs><g
     transform="matrix(1.25,0,0,-1.25,0,164.4425)"
     id="g10"><g
       id="g12"><g
         clip-path="url(#clipPath16)"
         id="g14"><g
           transform="translate(197.1702,0)"
           id="g20"><path
             id="path22"
             style="fill:#333333;fill-opacity:1;fill-rule:nonzero;stroke:none"
             d="m 0,0 -192.966,0 c -2.322,0 -4.204,1.882 -4.204,4.204 l 0,83.261 1.753,0 0,2.213 -1.753,0 0,2.557 1.753,-0.001 0,2.214 -1.753,0 0,2.494 1.753,0 0,2.213 -1.753,0 0,28.195 c 0,2.322 1.882,4.204 4.204,4.204 l 192.966,0 c 2.322,0 4.204,-1.882 4.204,-4.204 l 0,-28.195 -1.753,0 0,-2.213 1.753,0 0,-2.494 -1.753,0 0,-2.214 1.753,0 0,-2.556 -1.753,0 0,-2.213 1.753,0 0,-83.261 C 4.204,1.882 2.322,0 0,0" /></g><path
           id="path24"
           style="fill:#000000;fill-opacity:1;fill-rule:nonzero;stroke:none"
           d="m 199.621,96.942 -197.868,0 0,2.213 197.868,0 0,-2.213 z" /><path
           id="path26"
           style="fill:#000000;fill-opacity:1;fill-rule:nonzero;stroke:none"
           d="m 199.621,92.234 -197.868,0 0,2.213 197.868,0 0,-2.213 z" /><path
           id="path28"
           style="fill:#000000;fill-opacity:1;fill-rule:nonzero;stroke:none"
           d="m 199.621,87.465 -197.868,0 0,2.213 197.868,0 0,-2.213 z" /><path
           id="path30"
           style="fill:#b12a12;fill-opacity:1;fill-rule:nonzero;stroke:none"
           d="m 2.962,130.899 195.463,0 0,-29.332 -195.463,0 0,29.332 z" /><path
           id="path32"
           style="fill:#000000;fill-opacity:1;fill-rule:nonzero;stroke:none"
           d="m 3.289,101.895 194.808,0 0,28.677 -194.808,0 0,-28.677 z m 195.462,-0.655 -196.117,0 0,29.987 196.117,0 0,-29.987 z" /><g
           transform="translate(2.9615,106.4557)"
           id="g34"><path
             id="path36"
             style="fill:#b12a12;fill-opacity:1;fill-rule:nonzero;stroke:none"
             d="M 0,0 195.463,0" /></g><path
           id="path38"
           style="fill:#000000;fill-opacity:1;fill-rule:nonzero;stroke:none"
           d="m 198.424,106.128 -195.462,0 0,0.655 195.462,0 0,-0.655 z" /><g
           transform="translate(2.9615,111.3444)"
           id="g40"><path
             id="path42"
             style="fill:#b12a12;fill-opacity:1;fill-rule:nonzero;stroke:none"
             d="M 0,0 195.463,0" /></g><path
           id="path44"
           style="fill:#000000;fill-opacity:1;fill-rule:nonzero;stroke:none"
           d="m 198.424,111.017 -195.462,0 0,0.655 195.462,0 0,-0.655 z" /><g
           transform="translate(2.9615,116.2332)"
           id="g46"><path
             id="path48"
             style="fill:#b12a12;fill-opacity:1;fill-rule:nonzero;stroke:none"
             d="M 0,0 195.463,0" /></g><path
           id="path50"
           style="fill:#000000;fill-opacity:1;fill-rule:nonzero;stroke:none"
           d="m 198.424,115.906 -195.462,0 0,0.655 195.462,0 0,-0.655 z" /><g
           transform="translate(2.9615,121.1219)"
           id="g52"><path
             id="path54"
             style="fill:#b12a12;fill-opacity:1;fill-rule:nonzero;stroke:none"
             d="M 0,0 195.463,0" /></g><path
           id="path56"
           style="fill:#000000;fill-opacity:1;fill-rule:nonzero;stroke:none"
           d="m 198.424,120.795 -195.462,0 0,0.655 195.462,0 0,-0.655 z" /><g
           transform="translate(2.9615,126.0106)"
           id="g58"><path
             id="path60"
             style="fill:#b12a12;fill-opacity:1;fill-rule:nonzero;stroke:none"
             d="M 0,0 195.463,0" /></g><path
           id="path62"
           style="fill:#000000;fill-opacity:1;fill-rule:nonzero;stroke:none"
           d="m 198.424,125.683 -195.462,0 0,0.655 195.462,0 0,-0.655 z" /><g
           transform="translate(192.5011,130.8993)"
           id="g64"><path
             id="path66"
             style="fill:#b12a12;fill-opacity:1;fill-rule:nonzero;stroke:none"
             d="M 0,0 0,-29.332" /></g><path
           id="path68"
           style="fill:#000000;fill-opacity:1;fill-rule:nonzero;stroke:none"
           d="m 192.829,101.567 -0.655,0 0,29.332 0.655,0 0,-29.332 z" /><g
           transform="translate(186.5779,130.8993)"
           id="g70"><path
             id="path72"
             style="fill:#b12a12;fill-opacity:1;fill-rule:nonzero;stroke:none"
             d="M 0,0 0,-29.332" /></g><path
           id="path74"
           style="fill:#000000;fill-opacity:1;fill-rule:nonzero;stroke:none"
           d="m 186.905,101.567 -0.655,0 0,29.332 0.655,0 0,-29.332 z" /><g
           transform="translate(180.6548,130.8993)"
           id="g76"><path
             id="path78"
             style="fill:#b12a12;fill-opacity:1;fill-rule:nonzero;stroke:none"
             d="M 0,0 0,-29.332" /></g><path
           id="path80"
           style="fill:#000000;fill-opacity:1;fill-rule:nonzero;stroke:none"
           d="m 180.982,101.567 -0.655,0 0,29.332 0.655,0 0,-29.332 z" /><g
           transform="translate(174.7317,130.8993)"
           id="g82"><path
             id="path84"
             style="fill:#b12a12;fill-opacity:1;fill-rule:nonzero;stroke:none"
             d="M 0,0 0,-29.332" /></g><path
           id="path86"
           style="fill:#000000;fill-opacity:1;fill-rule:nonzero;stroke:none"
           d="m 175.059,101.567 -0.655,0 0,29.332 0.655,0 0,-29.332 z" /><g
           transform="translate(168.8086,130.8993)"
           id="g88"><path
             id="path90"
             style="fill:#b12a12;fill-opacity:1;fill-rule:nonzero;stroke:none"
             d="M 0,0 0,-29.332" /></g><path
           id="path92"
           style="fill:#000000;fill-opacity:1;fill-rule:nonzero;stroke:none"
           d="m 169.136,101.567 -0.655,0 0,29.332 0.655,0 0,-29.332 z" /><g
           transform="translate(162.8855,130.8993)"
           id="g94"><path
             id="path96"
             style="fill:#b12a12;fill-opacity:1;fill-rule:nonzero;stroke:none"
             d="M 0,0 0,-29.332" /></g><path
           id="path98"
           style="fill:#000000;fill-opacity:1;fill-rule:nonzero;stroke:none"
           d="m 163.213,101.567 -0.655,0 0,29.332 0.655,0 0,-29.332 z" /><g
           transform="translate(156.9624,130.8993)"
           id="g100"><path
             id="path102"
             style="fill:#b12a12;fill-opacity:1;fill-rule:nonzero;stroke:none"
             d="M 0,0 0,-29.332" /></g><path
           id="path104"
           style="fill:#000000;fill-opacity:1;fill-rule:nonzero;stroke:none"
           d="m 157.29,101.567 -0.655,0 0,29.332 0.655,0 0,-29.332 z" /><g
           transform="translate(151.0393,130.8993)"
           id="g106"><path
             id="path108"
             style="fill:#b12a12;fill-opacity:1;fill-rule:nonzero;stroke:none"
             d="M 0,0 0,-29.332" /></g><path
           id="path110"
           style="fill:#000000;fill-opacity:1;fill-rule:nonzero;stroke:none"
           d="m 151.367,101.567 -0.655,0 0,29.332 0.655,0 0,-29.332 z" /><g
           transform="translate(145.1162,130.8993)"
           id="g112"><path
             id="path114"
             style="fill:#b12a12;fill-opacity:1;fill-rule:nonzero;stroke:none"
             d="M 0,0 0,-29.332" /></g><path
           id="path116"
           style="fill:#000000;fill-opacity:1;fill-rule:nonzero;stroke:none"
           d="m 145.444,101.567 -0.655,0 0,29.332 0.655,0 0,-29.332 z" /><g
           transform="translate(139.1931,130.8993)"
           id="g118"><path
             id="path120"
             style="fill:#b12a12;fill-opacity:1;fill-rule:nonzero;stroke:none"
             d="M 0,0 0,-29.332" /></g><path
           id="path122"
           style="fill:#000000;fill-opacity:1;fill-rule:nonzero;stroke:none"
           d="m 139.52,101.567 -0.655,0 0,29.332 0.655,0 0,-29.332 z" /><g
           transform="translate(133.27,130.8993)"
           id="g124"><path
             id="path126"
             style="fill:#b12a12;fill-opacity:1;fill-rule:nonzero;stroke:none"
             d="M 0,0 0,-29.332" /></g><path
           id="path128"
           style="fill:#000000;fill-opacity:1;fill-rule:nonzero;stroke:none"
           d="m 133.597,101.567 -0.655,0 0,29.332 0.655,0 0,-29.332 z" /><g
           transform="translate(127.3469,130.8993)"
           id="g130"><path
             id="path132"
             style="fill:#b12a12;fill-opacity:1;fill-rule:nonzero;stroke:none"
             d="M 0,0 0,-29.332" /></g><path
           id="path134"
           style="fill:#000000;fill-opacity:1;fill-rule:nonzero;stroke:none"
           d="m 127.674,101.567 -0.655,0 0,29.332 0.655,0 0,-29.332 z" /><g
           transform="translate(121.4238,130.8993)"
           id="g136"><path
             id="path138"
             style="fill:#b12a12;fill-opacity:1;fill-rule:nonzero;stroke:none"
             d="M 0,0 0,-29.332" /></g><path
           id="path140"
           style="fill:#000000;fill-opacity:1;fill-rule:nonzero;stroke:none"
           d="m 121.751,101.567 -0.655,0 0,29.332 0.655,0 0,-29.332 z" /><g
           transform="translate(115.5006,130.8993)"
           id="g142"><path
             id="path144"
             style="fill:#b12a12;fill-opacity:1;fill-rule:nonzero;stroke:none"
             d="M 0,0 0,-29.332" /></g><path
           id="path146"
           style="fill:#000000;fill-opacity:1;fill-rule:nonzero;stroke:none"
           d="m 115.828,101.567 -0.655,0 0,29.332 0.655,0 0,-29.332 z" /><g
           transform="translate(109.5775,130.8993)"
           id="g148"><path
             id="path150"
             style="fill:#b12a12;fill-opacity:1;fill-rule:nonzero;stroke:none"
             d="M 0,0 0,-29.332" /></g><path
           id="path152"
           style="fill:#000000;fill-opacity:1;fill-rule:nonzero;stroke:none"
           d="m 109.905,101.567 -0.655,0 0,29.332 0.655,0 0,-29.332 z" /><g
           transform="translate(103.6544,130.8993)"
           id="g154"><path
             id="path156"
             style="fill:#b12a12;fill-opacity:1;fill-rule:nonzero;stroke:none"
             d="M 0,0 0,-29.332" /></g><path
           id="path158"
           style="fill:#000000;fill-opacity:1;fill-rule:nonzero;stroke:none"
           d="m 103.982,101.567 -0.655,0 0,29.332 0.655,0 0,-29.332 z" /><g
           transform="translate(97.7313,130.8993)"
           id="g160"><path
             id="path162"
             style="fill:#b12a12;fill-opacity:1;fill-rule:nonzero;stroke:none"
             d="M 0,0 0,-29.332" /></g><path
           id="path164"
           style="fill:#000000;fill-opacity:1;fill-rule:nonzero;stroke:none"
           d="m 98.059,101.567 -0.655,0 0,29.332 0.655,0 0,-29.332 z" /><g
           transform="translate(91.8082,130.8993)"
           id="g166"><path
             id="path168"
             style="fill:#b12a12;fill-opacity:1;fill-rule:nonzero;stroke:none"
             d="M 0,0 0,-29.332" /></g><path
           id="path170"
           style="fill:#000000;fill-opacity:1;fill-rule:nonzero;stroke:none"
           d="m 92.135,101.567 -0.655,0 0,29.332 0.655,0 0,-29.332 z" /><g
           transform="translate(85.8851,130.8993)"
           id="g172"><path
             id="path174"
             style="fill:#b12a12;fill-opacity:1;fill-rule:nonzero;stroke:none"
             d="M 0,0 0,-29.332" /></g><path
           id="path176"
           style="fill:#000000;fill-opacity:1;fill-rule:nonzero;stroke:none"
           d="m 86.213,101.567 -0.655,0 0,29.332 0.655,0 0,-29.332 z" /><g
           transform="translate(79.962,130.8993)"
           id="g178"><path
             id="path180"
             style="fill:#b12a12;fill-opacity:1;fill-rule:nonzero;stroke:none"
             d="M 0,0 0,-29.332" /></g><path
           id="path182"
           style="fill:#000000;fill-opacity:1;fill-rule:nonzero;stroke:none"
           d="m 80.289,101.567 -0.655,0 0,29.332 0.655,0 0,-29.332 z" /><g
           transform="translate(74.0389,130.8993)"
           id="g184"><path
             id="path186"
             style="fill:#b12a12;fill-opacity:1;fill-rule:nonzero;stroke:none"
             d="M 0,0 0,-29.332" /></g><path
           id="path188"
           style="fill:#000000;fill-opacity:1;fill-rule:nonzero;stroke:none"
           d="m 74.366,101.567 -0.655,0 0,29.332 0.655,0 0,-29.332 z" /><g
           transform="translate(68.1158,130.8993)"
           id="g190"><path
             id="path192"
             style="fill:#b12a12;fill-opacity:1;fill-rule:nonzero;stroke:none"
             d="M 0,0 0,-29.332" /></g><path
           id="path194"
           style="fill:#000000;fill-opacity:1;fill-rule:nonzero;stroke:none"
           d="m 68.443,101.567 -0.655,0 0,29.332 0.655,0 0,-29.332 z" /><g
           transform="translate(62.1926,130.8993)"
           id="g196"><path
             id="path198"
             style="fill:#b12a12;fill-opacity:1;fill-rule:nonzero;stroke:none"
             d="M 0,0 0,-29.332" /></g><path
           id="path200"
           style="fill:#000000;fill-opacity:1;fill-rule:nonzero;stroke:none"
           d="m 62.52,101.567 -0.655,0 0,29.332 0.655,0 0,-29.332 z" /><g
           transform="translate(56.2695,130.8993)"
           id="g202"><path
             id="path204"
             style="fill:#b12a12;fill-opacity:1;fill-rule:nonzero;stroke:none"
             d="M 0,0 0,-29.332" /></g><path
           id="path206"
           style="fill:#000000;fill-opacity:1;fill-rule:nonzero;stroke:none"
           d="m 56.597,101.567 -0.655,0 0,29.332 0.655,0 0,-29.332 z" /><g
           transform="translate(50.3464,130.8993)"
           id="g208"><path
             id="path210"
             style="fill:#b12a12;fill-opacity:1;fill-rule:nonzero;stroke:none"
             d="M 0,0 0,-29.332" /></g><path
           id="path212"
           style="fill:#000000;fill-opacity:1;fill-rule:nonzero;stroke:none"
           d="m 50.674,101.567 -0.655,0 0,29.332 0.655,0 0,-29.332 z" /><g
           transform="translate(44.4233,130.8993)"
           id="g214"><path
             id="path216"
             style="fill:#b12a12;fill-opacity:1;fill-rule:nonzero;stroke:none"
             d="M 0,0 0,-29.332" /></g><path
           id="path218"
           style="fill:#000000;fill-opacity:1;fill-rule:nonzero;stroke:none"
           d="m 44.751,101.567 -0.655,0 0,29.332 0.655,0 0,-29.332 z" /><g
           transform="translate(38.5002,130.8993)"
           id="g220"><path
             id="path222"
             style="fill:#b12a12;fill-opacity:1;fill-rule:nonzero;stroke:none"
             d="M 0,0 0,-29.332" /></g><path
           id="path224"
           style="fill:#000000;fill-opacity:1;fill-rule:nonzero;stroke:none"
           d="m 38.828,101.567 -0.655,0 0,29.332 0.655,0 0,-29.332 z" /><g
           transform="translate(32.5771,130.8993)"
           id="g226"><path
             id="path228"
             style="fill:#b12a12;fill-opacity:1;fill-rule:nonzero;stroke:none"
             d="M 0,0 0,-29.332" /></g><path
           id="path230"
           style="fill:#000000;fill-opacity:1;fill-rule:nonzero;stroke:none"
           d="m 32.905,101.567 -0.655,0 0,29.332 0.655,0 0,-29.332 z" /><g
           transform="translate(26.654,130.8993)"
           id="g232"><path
             id="path234"
             style="fill:#b12a12;fill-opacity:1;fill-rule:nonzero;stroke:none"
             d="M 0,0 0,-29.332" /></g><path
           id="path236"
           style="fill:#000000;fill-opacity:1;fill-rule:nonzero;stroke:none"
           d="m 26.981,101.567 -0.655,0 0,29.332 0.655,0 0,-29.332 z" /><g
           transform="translate(20.7309,130.8993)"
           id="g238"><path
             id="path240"
             style="fill:#b12a12;fill-opacity:1;fill-rule:nonzero;stroke:none"
             d="M 0,0 0,-29.332" /></g><path
           id="path242"
           style="fill:#000000;fill-opacity:1;fill-rule:nonzero;stroke:none"
           d="m 21.059,101.567 -0.655,0 0,29.332 0.655,0 0,-29.332 z" /><g
           transform="translate(14.8078,130.8993)"
           id="g244"><path
             id="path246"
             style="fill:#b12a12;fill-opacity:1;fill-rule:nonzero;stroke:none"
             d="M 0,0 0,-29.332" /></g><path
           id="path248"
           style="fill:#000000;fill-opacity:1;fill-rule:nonzero;stroke:none"
           d="m 15.135,101.567 -0.655,0 0,29.332 0.655,0 0,-29.332 z" /><g
           transform="translate(8.8847,130.8993)"
           id="g250"><path
             id="path252"
             style="fill:#b12a12;fill-opacity:1;fill-rule:nonzero;stroke:none"
             d="M 0,0 0,-29.332" /></g><path
           id="path254"
           style="fill:#000000;fill-opacity:1;fill-rule:nonzero;stroke:none"
           d="m 9.212,101.567 -0.655,0 0,29.332 0.655,0 0,-29.332 z" /><g
           transform="translate(150.221,107.5113)"
           id="g256"><path
             id="path258"
             style="fill:#ffffff;fill-opacity:1;fill-rule:nonzero;stroke:none"
             d="m 0,0 4.748,0.004 c 1.942,0 3.516,1.574 3.516,3.516 0,1.941 -1.574,3.515 -3.516,3.515 L 3.515,7.029 c -0.098,0 -0.178,0.08 -0.178,0.178 0,0.099 0.08,0.178 0.178,0.178 l 4.736,0 0.003,1.488 -4.74,0 C 2.595,8.873 1.851,8.129 1.851,7.21 1.851,6.292 2.595,5.547 3.514,5.547 L 4.753,5.533 c 1.112,0 2.013,-0.901 2.013,-2.012 0,-1.113 -0.901,-2.014 -2.013,-2.014 l -4.751,0 L 0,0" /></g><g
           transform="translate(150.2228,109.369)"
           id="g260"><path
             id="path262"
             style="fill:#ffffff;fill-opacity:1;fill-rule:nonzero;stroke:none"
             d="M 0,0 4.751,0 C 5.67,0 6.414,0.744 6.414,1.663 6.414,2.581 5.67,3.326 4.751,3.326 L 3.512,3.339 C 2.4,3.339 1.499,4.24 1.499,5.353 1.499,6.464 2.4,7.365 3.512,7.365 L 8.252,7.367 8.25,8.864 3.513,8.865 c -1.942,0 -3.515,-1.574 -3.515,-3.516 0,-1.941 1.573,-3.515 3.515,-3.515 L 4.739,1.833 C 4.834,1.833 4.91,1.756 4.91,1.661 4.91,1.566 4.834,1.489 4.739,1.489 L -0.002,1.487 0,0" /></g><g
           transform="translate(162.1641,109.0092)"
           id="g264"><path
             id="path266"
             style="fill:#ffffff;fill-opacity:1;fill-rule:nonzero;stroke:none"
             d="m 0,0 c -0.823,0 -1.497,0.659 -1.497,1.497 l 0,4.759 C -1.497,7.063 -0.823,7.73 0,7.73 L 5.068,7.729 5.067,9.223 0,9.224 c -1.648,0 -2.984,-1.336 -2.984,-2.983 l 0,-4.744 c 0,-1.648 1.336,-2.983 2.984,-2.983 L 5.047,-1.489 5.045,0.002 0,0" /></g><g
           transform="translate(161.0302,115.2501)"
           id="g268"><path
             id="path270"
             style="fill:#ffffff;fill-opacity:1;fill-rule:nonzero;stroke:none"
             d="m 0,0 c 0,0.628 0.505,1.138 1.134,1.138 l 5.068,0 -0.001,-1.493 -4.366,0 c -0.35,0 -0.354,-0.351 -0.354,-0.351 l 3.641,0 0.001,-1.488 -5.125,0 L 0,0" /></g><g
           transform="translate(162.1641,109.3711)"
           id="g272"><path
             id="path274"
             style="fill:#ffffff;fill-opacity:1;fill-rule:nonzero;stroke:none"
             d="m 0,0 c -0.627,0 -1.135,0.508 -1.135,1.135 l -10e-4,2.195 5.125,0 -10e-4,-1.492 -3.641,0 C 0.351,1.487 0.701,1.486 0.701,1.486 l 4.346,0 L 5.045,0.002 0,0" /></g><g
           transform="translate(170.7826,109.0133)"
           id="g276"><path
             id="path278"
             style="fill:#ffffff;fill-opacity:1;fill-rule:nonzero;stroke:none"
             d="m 0,0 c -0.823,0 -1.493,0.671 -1.493,1.493 l 0,4.744 c 0,0.822 0.666,1.489 1.489,1.489 l 4.906,0.001 10e-4,1.493 -4.919,0 c -1.648,0 -2.983,-1.336 -2.983,-2.983 l 0,-4.744 c 0,-1.648 1.347,-2.983 2.995,-2.983 l 4.907,-0.003 -10e-4,7.025 -4.217,0 0,-1.489 2.727,0 0,-4.044 L 0,0" /></g><g
           transform="translate(169.6406,110.5061)"
           id="g280"><path
             id="path282"
             style="fill:#ffffff;fill-opacity:1;fill-rule:nonzero;stroke:none"
             d="m 0,0 c 0,-0.628 0.51,-1.145 1.138,-1.145 l 3.064,-10e-4 0,3.344 -2.371,0 0,-1.494 0.88,0 0.004,-0.351 -0.876,0.001 c -0.193,0 -0.35,0.157 -0.35,0.35 L 1.483,4.041 c 0,0 0,0.348 0.352,0.355 l 4.213,0 L 6.044,5.885 1.138,5.882 C 0.51,5.882 0,5.372 0,4.744 L 0,0" /></g><g
           transform="translate(180.2957,116.4124)"
           id="g284"><path
             id="path286"
             style="fill:#ffffff;fill-opacity:1;fill-rule:nonzero;stroke:none"
             d="m 0,0 c 0.066,0.19 0.246,0.326 0.459,0.326 0.212,0 0.393,-0.137 0.459,-0.327 l 2.38,-7.059 -3.486,0 0.004,1.66 1.166,0 -0.526,1.563 -1.708,-5.054 -1.76,0 L 0,0" /></g><g
           transform="translate(184.0749,109.0127)"
           id="g288"><path
             id="path290"
             style="fill:#ffffff;fill-opacity:1;fill-rule:nonzero;stroke:none"
             d="m 0,0 -3.961,0 0,-1.491 6.03,0 -3.136,9.31 c -0.275,0.908 -1.18,1.574 -2.254,1.574 -1.074,0 -1.978,-0.666 -2.254,-1.572 l -3.166,-9.312 1.579,0 3.072,9.052 c 0.125,0.3 0.421,0.51 0.766,0.51 0.345,0 0.64,-0.209 0.765,-0.507 L 0,0" /></g></g></g></g><g
     style="font-style:normal;font-weight:normal;font-size:17.5px;line-height:125%;font-family:sans-serif;letter-spacing:0px;word-spacing:0px;fill:#000000;fill-opacity:1;stroke:none;stroke-width:1px;stroke-linecap:butt;stroke-linejoin:miter;stroke-opacity:1"
     id="text4274"><path
       d="m 25.930826,24.785749 -3.645,0 -5.355,-6.93 -1.26,0.045 0,4.365 q 0,1.2825 0.3375,1.6425 0.36,0.36 1.665,0.45 l 0,0.4275 -6.21,0 0,-0.4275 q 1.2825,-0.1125 1.5975,-0.495 0.315,-0.3825 0.315,-1.8675 l 0,-9.6075 q 0,-1.26 -0.315,-1.62 -0.315,-0.36 -1.5975,-0.45 l 0,-0.4274996 6.12,0 q 3.0825,0 4.7025,1.3274996 1.1025,0.9 1.1025,2.7 0,3.06 -4.0725,3.69 l 4.5,5.6925 q 0.4725,0.585 0.9,0.7875 0.4275,0.2025 1.215,0.27 l 0,0.4275 z m -10.26,-13.1175 0,5.4 q 1.62,-0.0225 2.4075,-0.18 0.7875,-0.1575 1.575,-0.585 1.2825,-0.72 1.2825,-2.565 0,-3.015 -4.1175,-3.015 -0.6075,0 -0.8775,0.2025 -0.27,0.18 -0.27,0.7425 z"
       style="font-style:normal;font-variant:normal;font-weight:normal;font-stretch:normal;font-size:22.5px;font-family:STIXGeneral;-inkscape-font-specification:STIXGeneral;fill:#ffffff"
       id="path3476" /><path
       d="m 34.982505,21.095749 0.36,0.1575 q -1.35,3.7575 -4.7025,3.7575 -1.98,0 -3.1275,-1.3725 -1.1475,-1.395 -1.1475,-3.735 0,-2.4075 1.2825,-3.9375 1.2825,-1.53 3.375,-1.53 2.025,0 3.1275,1.5525 0.6525,0.9 0.765,2.565 l -6.93,0 q 0.09,1.4175 0.27,2.16 0.2025,0.7425 0.765,1.5075 0.945,1.2375 2.4975,1.2375 1.1025,0 1.845,-0.54 0.765,-0.54 1.62,-1.8225 z m -6.9525,-3.2625 4.59,0 q -0.2025,-1.4175 -0.675,-2.0025 -0.45,-0.585 -1.53,-0.585 -0.945,0 -1.575,0.675 -0.63,0.6525 -0.81,1.9125 z"
       style="font-style:normal;font-variant:normal;font-weight:normal;font-stretch:normal;font-size:22.5px;font-family:STIXGeneral;-inkscape-font-specification:STIXGeneral;fill:#ffffff"
       id="path3478" /><path
       d="m 44.777037,21.275749 0.315,0.2025 q -0.9675,1.89 -1.845,2.5875 -1.1475,0.945 -2.5875,0.945 -1.8675,0 -3.0825,-1.395 -1.1925,-1.4175 -1.1925,-3.6 0,-2.8575 1.89,-4.4325 1.395,-1.1475 3.0375,-1.1475 1.4175,0 2.43,0.6975 1.035,0.675 1.035,1.62 0,0.3825 -0.315,0.675 -0.315,0.27 -0.7425,0.27 -0.7875,0 -1.08,-1.035 l -0.135,-0.495 q -0.18,-0.63 -0.45,-0.855 -0.27,-0.225 -0.8775,-0.225 -1.3725,0 -2.2275,1.08 -0.8325,1.08 -0.8325,2.835 0,1.935 0.9675,3.1725 0.9675,1.215 2.52,1.215 0.9675,0 1.665,-0.45 0.6975,-0.4725 1.5075,-1.665 z"
       style="font-style:normal;font-variant:normal;font-weight:normal;font-stretch:normal;font-size:22.5px;font-family:STIXGeneral;-inkscape-font-specification:STIXGeneral;fill:#ffffff"
       id="path3480" /><path
       d="m 55.786568,23.300749 0,0.63 q -0.855,1.08 -2.025,1.08 -1.2825,0 -1.44,-1.6425 l -0.0225,0 q -1.44,1.6425 -3.2625,1.6425 -1.0575,0 -1.71,-0.6075 -0.6525,-0.63 -0.6525,-1.7325 0,-1.575 1.575,-2.6325 1.08,-0.72 4.05,-1.8225 l 0,-1.215 q 0,-1.0125 -0.495,-1.5075 -0.4725,-0.5175 -1.26,-0.5175 -0.675,0 -1.125,0.3375 -0.45,0.315 -0.45,0.765 0,0.2025 0.0675,0.45 0.0675,0.2475 0.0675,0.495 0,0.3375 -0.315,0.63 -0.2925,0.2925 -0.72,0.2925 -0.3825,0 -0.675,-0.2925 -0.2925,-0.2925 -0.2925,-0.7425 0,-1.08 1.1475,-1.8 1.0575,-0.675 2.5875,-0.675 1.8225,0 2.655,1.0125 0.405,0.4725 0.5175,0.9675 0.1125,0.4725 0.1125,1.53 l 0,4.2975 q 0,1.485 0.6975,1.485 0.45,0 0.9675,-0.4275 z m -3.4875,-1.3725 0,-3.1725 q -2.07,0.72 -2.88,1.485 -0.765,0.6975 -0.765,1.7325 0,0.855 0.4275,1.305 0.4275,0.4275 1.125,0.4275 0.7425,0 1.305,-0.36 0.4725,-0.3375 0.63,-0.63 0.1575,-0.2925 0.1575,-0.7875 z"
       style="font-style:normal;font-variant:normal;font-weight:normal;font-stretch:normal;font-size:22.5px;font-family:STIXGeneral;-inkscape-font-specification:STIXGeneral;fill:#ffffff"
       id="path3482" /><path
       d="m 61.643599,24.785749 -5.31,0 0,-0.3375 q 1.0575,-0.09 1.395,-0.4275 0.3375,-0.36 0.3375,-1.305 l 0,-10.5525 q 0,-0.81 -0.2025,-1.125 -0.2025,-0.315 -0.7425,-0.315 -0.4725,0 -0.8325,0.045 l 0,-0.36 q 2.1375,-0.5174996 3.555,-0.9899996 l 0.1125,0.09 0,13.3199996 q 0,0.945 0.315,1.26 0.315,0.2925 1.3725,0.36 l 0,0.3375 z"
       style="font-style:normal;font-variant:normal;font-weight:normal;font-stretch:normal;font-size:22.5px;font-family:STIXGeneral;-inkscape-font-specification:STIXGeneral;fill:#ffffff"
       id="path3484" /><path
       d="m 65.587779,9.4632494 0,6.8624996 q 0.36,-0.855 1.17,-1.3725 0.8325,-0.5175 1.8675,-0.5175 1.7775,0 2.9025,1.4175 1.1475,1.4175 1.1475,3.5325 0,2.475 -1.5075,4.05 -1.5075,1.575 -3.7575,1.575 -1.3725,0 -2.5425,-0.45 -1.17,-0.4725 -1.17,-1.035 l 0,-11.475 q 0,-0.8325 -0.2025,-1.0575 -0.2025,-0.2475 -0.9,-0.2475 -0.1575,0 -0.3825,0.045 l 0,-0.3825 0.675,-0.2025 q 2.295,-0.6974996 2.5875,-0.7874996 l 0.1125,0.045 z m 0,8.1674996 0,5.49 q 0,0.5175 0.63,0.855 0.6525,0.315 1.5525,0.315 1.3275,0 2.0925,-0.9675 0.8325,-1.035 0.8325,-2.97 0,-2.205 -0.8775,-3.4425 -0.7425,-1.0575 -2.0025,-1.0575 -0.9,0 -1.575,0.54 -0.6525,0.5175 -0.6525,1.2375 z"
       style="font-style:normal;font-variant:normal;font-weight:normal;font-stretch:normal;font-size:22.5px;font-family:STIXGeneral;-inkscape-font-specification:STIXGeneral;fill:#ffffff"
       id="path3486" /><path
       d="m 83.970279,19.588249 q 0,2.3625 -1.4175,3.8925 -1.395,1.53 -3.645,1.53 -2.07,0 -3.465,-1.5075 -1.395,-1.53 -1.395,-3.8475 0,-2.34 1.395,-3.78 1.395,-1.44 3.6675,-1.44 2.0925,0 3.465,1.44 1.395,1.4175 1.395,3.7125 z m -2.025,0.6075 q 0,-2.565 -1.125,-4.005 -0.9,-1.125 -2.1375,-1.125 -1.17,0 -1.89,0.9675 -0.72,0.945 -0.72,2.61 0,2.88 1.1925,4.6125 0.765,1.125 2.025,1.125 1.2375,0 1.935,-1.1025 0.72,-1.125 0.72,-3.0825 z"
       style="font-style:normal;font-variant:normal;font-weight:normal;font-stretch:normal;font-size:22.5px;font-family:STIXGeneral;-inkscape-font-specification:STIXGeneral;fill:#ffffff"
       id="path3488" /><path
       d="m 94.93938,24.785749 -4.5225,0 0,-0.3375 q 0.5625,-0.045 0.72,-0.135 0.18,-0.1125 0.18,-0.405 0,-0.2025 -0.135,-0.405 l -2.0475,-3.15 -1.7775,2.7675 q -0.45,0.6975 -0.45,0.9225 0,0.405 0.9,0.405 l 0,0.3375 -3.2625,0 0,-0.3375 q 0.5625,-0.045 0.855,-0.2475 0.315,-0.225 0.7875,-0.9 l 2.565,-3.7125 -2.115,-3.24 q -0.5175,-0.7875 -0.8775,-1.0575 -0.36,-0.2925 -0.855,-0.2925 l -0.2025,0 0,-0.3375 4.6575,0 0,0.3375 q -0.9675,0.0225 -0.9675,0.495 0,0.4725 1.035,2.0025 0.2925,0.405 0.315,0.45 0.1125,-0.1575 0.675,-0.99 0.1125,-0.2025 0.27,-0.4275 0.1575,-0.225 0.225,-0.36 0.09,-0.135 0.18,-0.27 0.09,-0.135 0.1125,-0.225 0.045,-0.1125 0.045,-0.18 0,-0.4275 -0.9,-0.495 l 0,-0.3375 3.555,0 0,0.3375 q -1.1475,0.045 -1.8225,0.99 l -1.8675,2.7 2.88,4.41 q 0.8775,1.35 1.845,1.35 l 0,0.3375 z"
       style="font-style:normal;font-variant:normal;font-weight:normal;font-stretch:normal;font-size:22.5px;font-family:STIXGeneral;-inkscape-font-specification:STIXGeneral;fill:#ffffff"
       id="path3490" /></g></svg>