<?xml version="1.0" encoding="UTF-8" standalone="no"?>
<!-- Generator: Adobe Illustrator 19.0.0, SVG Export Plug-In . SVG Version: 6.00 Build 0)  -->

<svg
   xmlns:dc="http://purl.org/dc/elements/1.1/"
   xmlns:cc="http://creativecommons.org/ns#"
   xmlns:rdf="http://www.w3.org/1999/02/22-rdf-syntax-ns#"
   xmlns:svg="http://www.w3.org/2000/svg"
   xmlns="http://www.w3.org/2000/svg"
   xmlns:sodipodi="http://sodipodi.sourceforge.net/DTD/sodipodi-0.dtd"
   xmlns:inkscape="http://www.inkscape.org/namespaces/inkscape"
   version="1.1"
   id="Ebene_1"
   x="0px"
   y="0px"
   viewBox="-51 295.6 30 30"
   xml:space="preserve"
   inkscape:version="0.91 r13725"
   sodipodi:docname="icon_empty.svg"
   width="30"
   height="30"><metadata
     id="metadata47"><rdf:RDF><cc:Work
         rdf:about=""><dc:format>image/svg+xml</dc:format><dc:type
           rdf:resource="http://purl.org/dc/dcmitype/StillImage" /><dc:title></dc:title></cc:Work></rdf:RDF></metadata><defs
     id="defs45" /><sodipodi:namedview
     pagecolor="#ffffff"
     bordercolor="#666666"
     borderopacity="1"
     objecttolerance="10"
     gridtolerance="10"
     guidetolerance="10"
     inkscape:pageopacity="0"
     inkscape:pageshadow="2"
     inkscape:window-width="1920"
     inkscape:window-height="1027"
     id="namedview43"
     showgrid="false"
     inkscape:zoom="12.508324"
     inkscape:cx="36.235894"
     inkscape:cy="12.303236"
     inkscape:window-x="-8"
     inkscape:window-y="-8"
     inkscape:window-maximized="1"
     inkscape:current-layer="Ebene_1" /><g
     id="g3"
     transform="matrix(0.31111111,0,0,0.31111111,-86.417831,201.84505)"><path
       d="m 114.1,394.7 39.8,0 c 16.3,0 29.5,-13.2 29.5,-29.5 0,-16.3 -13.2,-29.4 -29.5,-29.4 l -10.4,0 c -0.8,0 -1.5,-0.7 -1.5,-1.5 0,-0.9 0.7,-1.6 1.5,-1.6 l 39.7,0 0.1,-12.4 -39.8,0 c -7.7,0 -13.9,6.2 -13.9,13.9 0,7.8 6.2,14.1 13.9,14.1 l 10.4,0 c 9.3,0 16.9,7.6 16.9,16.9 0,9.3 -7.6,16.8 -16.9,16.8 l -39.8,0 0,12.7 0,0 z"
       id="path5"
       inkscape:connector-curvature="0"
       style="fill:#666666" /><path
       d="m 114.1,379.1 39.8,0 c 7.8,0 14,-6.3 14,-14 0,-7.7 -6.2,-14 -14,-14 l -10.4,0 c -9.3,0 -16.8,-7.7 -16.8,-17 0,-9.3 7.5,-16.8 16.8,-16.8 l 39.8,0 -0.1,-12.6 -39.7,0 c -16.3,0 -29.4,13.2 -29.4,29.5 0,16.3 13.2,29.4 29.4,29.4 l 10.3,0 c 0.8,0 1.5,0.7 1.5,1.5 0,0.8 -0.7,1.5 -1.5,1.5 l -39.7,0 0,12.5 0,0 z"
       id="path7"
       inkscape:connector-curvature="0"
       style="fill:#666666" /><g
       id="g27" /></g></svg>