<svg xmlns="http://www.w3.org/2000/svg" baseProfile="tiny" viewBox="-23 340 564 113">
  <path fill="#DE1528" d="M57.4 363.5l-.1 89.5-24-7.8V340l30.6 8.1c19.6 5.3 31.6 15.5 31.4 33.4-.2 20.9-9.8 29.3-28.7 23.8v-41.2c.1-4.9-9.2-5.2-9.2-.6z"/>
  <path fill="#F4CB0E" d="M22.3 427.8L11 431.6c-7.3 2.5-13.6-3.4-6.8-5.9l5.5-1.9-20.6-6.5c-6.3 2.1-12.3 6.7-11.9 13.2.4 6.5 15.3 8.1 26.8 9.9 10.7 1.8 20.5.8 29.4-2.3v-6.7l-11.1-3.6zM57.5 453l21-7.3-21.2-6.7v13.6l.2.4z"/>
  <path fill="#4177B3" d="M113.3 433.4l.4-.1c9.2-3.2 13.1-7.7 12.1-11.9-1.6-7-12.8-10.8-30-12.1-12.4-.9-24.6 1.9-36.5 5.9l-1.9.7 21.4 6.6 12.5-4.2c13.1-2.4 18.3 1.9 5.8 5.9l-6.2 2.1 22.4 7.1zm-80-31l-9.5 3.2 9.5 2.9v-6.1z"/>
  <path fill="#1BA0A5" d="M78.5 445.7l34.8-12.3-22.6-7-33.3 11.4v1.2l21.1 6.7zm-45.2-21.6l-11 3.7 11 3.5v-7.2zm24 5.8V416l21.4 6.6-21.4 7.3zm-47.7-6.1l23.7-8.5v-6.8l-9.5-2.9-34.3 11.6c-.1 0-.3.1-.5.1l20.6 6.5z"/>
  <path d="M140.83076792 368.95072304v55.95237456h8.69281968v-50.56527504h8.08064928s5.87683584 0 7.83578112 2.57111568c1.71407712 2.20381344 2.08137936 6.24413808 2.08137936 9.06012192 0 2.93841792-.24486816 7.46847888-1.2243408 9.06012192-1.46920896 2.57111568-3.91789056 3.060852-6.121704 3.060852h-5.38709952v5.01979728h7.71334704s6.97874256.24486816 9.91716048-2.69354976c3.6730224-3.6730224 4.53006096-8.69281968 4.53006096-15.42669408 0-6.121704-2.20381344-12.243408-6.7338744-14.32478736-3.6730224-1.71407712-10.4068968-1.71407712-10.4068968-1.71407712h-18.9772824m43.09679616 55.95237456h8.69281968v-55.95237456h-8.69281968v55.95237456zm55.21777008-42.851928l16.03886448 41.87245536-9.182556 22.52787072h7.22361072l26.44576128-64.40032608h-8.08064928l-11.50880352 31.34312448-10.65176496-31.34312448h-10.28446272m47.01468672 42.48462576v-5.26466544s9.182556.36730224 11.14150128.36730224c4.2851928 0 6.36657216-.85703856 7.9582152-2.57111568.97947264-.97947264 1.8365112-5.63196768 1.8365112-7.22361072 0-1.59164304-.36730224-5.14223136-.97947264-6.61144032-.6121704-1.34677488-2.20381344-2.69354976-4.40762688-2.93841792-1.59164304-.12243408-4.04032464-.48973632-6.97874256-.6121704-4.04032464-.24486816-6.7338744-2.32624752-7.9582152-3.79545648-1.2243408-1.46920896-2.93841792-3.79545648-2.93841792-10.77419904s1.8365112-10.89663312 3.6730224-12.73314432 4.40762688-2.57111568 6.48900624-2.93841792c2.32624752-.36730224 6.121704-.36730224 6.121704-.36730224l12.243408.36730224v5.26466544s-8.93768784-.36730224-10.89663312-.36730224c-4.2851928 0-5.5095336.85703856-7.10117664 2.57111568-.97947264.97947264-1.71407712 3.79545648-1.71407712 5.5095336 0 1.59164304.24486816 4.8973632.85703856 6.36657216.6121704 1.34677488 2.08137936 2.69354976 4.40762688 2.93841792 1.59164304.12243408 4.04032464.48973632 6.97874256.6121704 4.04032464.24486816 6.7338744 2.32624752 7.9582152 3.79545648 1.2243408 1.46920896 2.93841792 4.77492912 2.93841792 11.6312376 0 6.97874256-1.8365112 11.99853984-3.6730224 13.83505104s-4.40762688 2.57111568-6.48900624 2.93841792c-2.32624752.36730224-6.121704.48973632-6.121704.48973632l-13.34531472-.48973632m47.62685712-50.1979728h-8.69281968v41.0154168s.24486816 3.79545648.36730224 5.01979728c.24486816 1.34677488 2.08137936 4.40762688 7.10117664 4.40762688l9.06012192-.12243408V419.393564s-2.4486816.12243408-3.91789056.12243408-3.30572016-.12243408-3.6730224-2.57111568c-.36730224-2.57111568-.36730224-5.5095336-.36730224-5.5095336v-24.24194784h9.91716048v-5.26466544h-9.91716048l.12243408-7.59091296m84.35708112 50.56527504h8.69281968v-42.851928h-8.69281968v42.851928zm0-48.11659344h8.69281968v-7.83578112h-8.69281968v7.83578112zm36.36292176 4.8973632c5.99926992 0 10.52933088 1.34677488 12.97801248 3.30572016 2.4486816 1.95894528 5.63196768 6.24413808 5.63196768 18.48754608s-3.060852 16.5286008-5.63196768 18.48754608c-2.4486816 1.95894528-7.10117664 3.30572016-12.97801248 3.30572016-5.99926992 0-10.52933088-1.34677488-13.10044656-3.30572016-2.4486816-1.95894528-5.5095336-6.24413808-5.5095336-18.48754608s3.060852-16.5286008 5.5095336-18.48754608c2.57111568-2.08137936 7.10117664-3.30572016 13.10044656-3.30572016zm-5.99926992 8.20308336c-1.2243408 1.46920896-2.69354976 4.53006096-2.69354976 13.59018288s1.46920896 12.12097392 2.69354976 13.59018288c1.2243408 1.46920896 3.42815424 2.4486816 6.24413808 2.4486816s5.01979728-.97947264 6.24413808-2.4486816 2.69354976-4.53006096 2.69354976-13.59018288-1.46920896-12.12097392-2.69354976-13.59018288c-1.2243408-1.46920896-3.42815424-2.4486816-6.24413808-2.4486816s-5.01979728.97947264-6.24413808 2.4486816m42.60705984-1.8365112l8.5703856-.36730224c2.20381344 0 4.8973632.6121704 6.121704 2.20381344 1.2243408 1.46920896 1.95894528 3.30572016 1.95894528 6.24413808v28.64957472h8.69281968v-29.3841792c0-5.5095336-1.71407712-8.81525376-4.2851928-10.77419904-3.6730224-2.93841792-10.28446272-2.57111568-10.28446272-2.57111568l-19.5894528.36730224v42.48462576h8.69281968l.12243408-36.85265808m-90.35635104-13.71261696h-8.69281968v41.0154168s.24486816 3.79545648.36730224 5.01979728c.24486816 1.34677488 2.08137936 4.40762688 7.10117664 4.40762688l9.06012192-.12243408V419.393564s-2.4486816.12243408-3.91789056.12243408-3.30572016-.12243408-3.6730224-2.57111568c-.36730224-2.57111568-.36730224-5.5095336-.36730224-5.5095336v-24.24194784h9.7947264v-5.26466544h-9.7947264v-7.59091296M225.80001944 396.1310888c0-2.93841792-.73460448-4.77492912-1.95894528-6.24413808-1.2243408-1.59164304-3.91789056-2.20381344-6.121704-2.20381344l-11.50880352.36730224v-5.75440176l13.83505104-.36730224s6.61144032-.24486816 10.28446272 2.57111568c2.57111568 2.08137936 4.2851928 5.26466544 4.2851928 10.77419904v29.01687696l-16.77346896.36730224s-7.59091296 0-11.38636944-1.46920896c-3.6730224-1.46920896-5.75440176-5.63196768-5.75440176-11.38636944 0-5.5095336 1.71407712-8.81525376 4.2851928-10.77419904 3.6730224-2.93841792 10.28446272-2.57111568 10.28446272-2.57111568h5.38709952v4.8973632h-2.93841792c-2.20381344 0-4.53006096.36730224-5.87683584 2.08137936-1.2243408 1.46920896-1.8365112 2.81598384-1.8365112 5.75440176 0 3.79545648.73460448 5.63196768 2.57111568 6.85630848 1.59164304 1.2243408 4.40762688 1.46920896 7.71334704 1.46920896l5.75440176-.36730224-.24486816-23.01760704m147.28819824 0c0-2.93841792-.73460448-4.77492912-1.95894528-6.24413808-1.34677488-1.59164304-3.91789056-2.20381344-6.121704-2.20381344l-11.50880352.36730224v-5.75440176l13.83505104-.36730224s6.61144032-.24486816 10.16202864 2.57111568c2.57111568 2.08137936 4.2851928 5.26466544 4.2851928 10.77419904v29.01687696l-16.77346896.36730224s-7.59091296 0-11.38636944-1.46920896c-3.6730224-1.46920896-5.75440176-5.63196768-5.75440176-11.38636944 0-5.5095336 1.71407712-8.81525376 4.2851928-10.77419904 3.6730224-2.93841792 10.28446272-2.57111568 10.28446272-2.57111568h5.38709952v4.8973632h-3.060852c-2.20381344 0-4.53006096.36730224-5.87683584 2.08137936-1.2243408 1.46920896-1.8365112 2.81598384-1.8365112 5.75440176 0 3.79545648.73460448 5.63196768 2.57111568 6.85630848 1.59164304 1.2243408 4.53006096 1.46920896 7.71334704 1.46920896l5.75440176-.36730224V396.1310888m159.28673808 29.13931104c2.32624752 0 4.40762688-.85703856 5.99926992-2.4486816s2.4486816-3.79545648 2.4486816-5.99926992c0-2.32624752-.85703856-4.40762688-2.4486816-5.99926992-1.59164304-1.59164304-3.79545648-2.4486816-5.99926992-2.4486816-4.65249504 0-8.5703856 3.79545648-8.5703856 8.5703856 0 2.32624752.85703856 4.40762688 2.4486816 5.99926992 1.71407712 1.46920896 3.91789056 2.32624752 6.121704 2.32624752zm-7.10117664-8.5703856c0-1.8365112.73460448-3.6730224 2.08137936-5.01979728s3.060852-2.08137936 5.01979728-2.08137936 3.6730224.73460448 5.01979728 2.08137936c1.34677488 1.34677488 2.08137936 3.060852 2.08137936 5.01979728 0 3.91789056-3.18328608 7.10117664-7.10117664 7.10117664-1.8365112 0-3.6730224-.73460448-5.01979728-2.08137936-1.34677488-1.34677488-2.08137936-3.060852-2.08137936-5.01979728"/>
  <path d="M536.66014856 420.74033888c-.12243408 0-.24486816-.24486816-.24486816-.36730224s-.12243408-.36730224-.12243408-.73460448v-1.2243408c0-.6121704-.12243408-.97947264-.36730224-1.2243408-.12243408-.24486816-.36730224-.36730224-.6121704-.48973632.24486816-.24486816.48973632-.36730224.73460448-.73460448s.36730224-.85703856.36730224-1.46920896c0-1.10190672-.48973632-1.95894528-1.34677488-2.32624752-.48973632-.24486816-1.10190672-.36730224-1.8365112-.36730224h-4.40762688v9.54985824h1.59164304v-3.91789056h2.57111568c.48973632 0 .85703856 0 .97947264.12243408.36730224.12243408.48973632.48973632.48973632.97947264l.12243408 1.46920896c0 .36730224 0 .6121704.12243408.73460448 0 .12243408.12243408.24486816.12243408.36730224l.12243408.12243408h1.8365112l-.12243408-.48973632zm-1.95894528-6.121704c0 .48973632-.12243408.85703856-.36730224 1.10190672-.24486816.24486816-.73460448.36730224-1.2243408.36730224h-2.69354976v-2.69354976h2.81598384c.36730224 0 .73460448 0 .85703856.12243408.48973632.12243408.6121704.48973632.6121704 1.10190672"/>
</svg>
