<?xml version="1.0" encoding="UTF-8" standalone="no"?>
<!-- Generator: Adobe Illustrator 13.0.0, SVG Export Plug-In . SVG Version: 6.00 Build 14948)  -->

<svg
   xmlns:ns="&amp;ns_sfw;"
   xmlns:dc="http://purl.org/dc/elements/1.1/"
   xmlns:cc="http://creativecommons.org/ns#"
   xmlns:rdf="http://www.w3.org/1999/02/22-rdf-syntax-ns#"
   xmlns:svg="http://www.w3.org/2000/svg"
   xmlns="http://www.w3.org/2000/svg"
   xmlns:sodipodi="http://sodipodi.sourceforge.net/DTD/sodipodi-0.dtd"
   xmlns:inkscape="http://www.inkscape.org/namespaces/inkscape"
   version="1.2"
   id="Layer_3"
   x="0px"
   y="0px"
   width="560.16101"
   height="233.45799"
   viewBox="0 0 560.16099 233.45799"
   xml:space="preserve"
   inkscape:version="0.91 r13725"
   sodipodi:docname="controller.svg"><defs
     id="defs66" /><sodipodi:namedview
     pagecolor="#ffffff"
     bordercolor="#666666"
     borderopacity="1"
     objecttolerance="10"
     gridtolerance="10"
     guidetolerance="10"
     inkscape:pageopacity="0"
     inkscape:pageshadow="2"
     inkscape:window-width="690"
     inkscape:window-height="480"
     id="namedview64"
     showgrid="false"
     fit-margin-top="0"
     fit-margin-left="0"
     fit-margin-right="0"
     fit-margin-bottom="0"
     inkscape:zoom="0.48145317"
     inkscape:cx="280.78151"
     inkscape:cy="116.116"
     inkscape:window-x="0"
     inkscape:window-y="0"
     inkscape:window-maximized="0"
     inkscape:current-layer="Layer_3" /><metadata
     id="metadata55"><rdf:RDF><cc:Work
         rdf:about=""><dc:format>image/svg+xml</dc:format><dc:type
           rdf:resource="http://purl.org/dc/dcmitype/StillImage" /><dc:title></dc:title></cc:Work></rdf:RDF><ns:sfw><ns:slices /><ns:sliceSourceBounds
         x="679.719"
         y="423.384"
         width="560.161"
         height="233.458"
         bottomLeftOrigin="true" /></ns:sfw></metadata><path
     d="M 0,144.825 C 0.002,95.876 39.68,56.194 88.631,56.192 l 0,0 0,0.918 0,0.919 c -23.97,0 -45.663,9.715 -61.372,25.421 l 0,0 C 11.552,99.162 1.839,120.854 1.839,144.825 l 0,0 c 0,23.969 9.714,45.663 25.421,61.371 l 0,0 c 15.709,15.708 37.402,25.422 61.373,25.422 l 0,0 c 23.97,0 45.662,-9.714 61.372,-25.422 l 0,0 c 15.708,-15.708 25.42,-37.402 25.422,-61.371 l 0,0 c -0.002,-23.971 -9.714,-45.663 -25.422,-61.374 l 0,0 C 134.295,67.745 112.603,58.03 88.633,58.03 l 0,0 0,-0.919 0,-0.918 c 48.95,0.001 88.631,39.684 88.631,88.633 l 0,0 c 0,48.948 -39.682,88.63 -88.631,88.632 l 0,0 C 39.681,233.455 0.002,193.774 0,144.825 l 0,0 z"
     id="path4"
     inkscape:connector-curvature="0"
     style="fill:#f4f4f4" /><path
     d="m 51.247,144.824 c 0,-20.647 16.737,-37.384 37.385,-37.384 l 0,0 0,0.919 0,0.919 c -9.818,0 -18.699,3.978 -25.136,10.411 l 0,0 c -6.435,6.435 -10.412,15.314 -10.412,25.136 l 0,0 c 0,9.818 3.977,18.701 10.412,25.136 l 0,0 c 6.437,6.436 15.316,10.412 25.136,10.412 l 0,0 c 9.822,0 18.702,-3.977 25.137,-10.412 l 0,0 c 6.436,-6.435 10.411,-15.317 10.413,-25.136 l 0,0 c -0.002,-9.821 -3.977,-18.701 -10.413,-25.136 l 0,0 c -6.436,-6.434 -15.315,-10.411 -25.137,-10.411 l 0,0 0,-0.919 0,-0.919 c 20.648,0 37.385,16.736 37.388,37.384 l 0,0 c -0.002,20.647 -16.74,37.386 -37.388,37.386 l 0,0 c -20.648,0 -37.385,-16.738 -37.385,-37.386 l 0,0 z"
     id="path6"
     inkscape:connector-curvature="0"
     style="fill:#f4f4f4" /><polygon
     points="101.843,161.286 106.946,141.912 112.049,161.286 "
     id="polygon8"
     style="fill:#f4f4f4"
     transform="translate(-18.313,-57.788)" /><polygon
     points="74.114,176.999 64.024,159.691 81.332,169.782 "
     id="polygon10"
     style="fill:#f4f4f4"
     transform="translate(-18.313,-57.788)" /><polygon
     points="65.618,207.717 46.245,202.613 65.618,197.51 "
     id="polygon12"
     style="fill:#f4f4f4"
     transform="translate(-18.313,-57.788)" /><polygon
     points="81.332,235.444 64.024,245.536 74.114,228.228 "
     id="polygon14"
     style="fill:#f4f4f4"
     transform="translate(-18.313,-57.788)" /><polygon
     points="112.049,243.94 106.946,263.313 101.843,243.94 "
     id="polygon16"
     style="fill:#f4f4f4"
     transform="translate(-18.313,-57.788)" /><polygon
     points="139.777,228.228 149.868,245.536 132.56,235.444 "
     id="polygon18"
     style="fill:#f4f4f4"
     transform="translate(-18.313,-57.788)" /><polygon
     points="148.275,197.51 167.647,202.613 148.275,207.717 "
     id="polygon20"
     style="fill:#f4f4f4"
     transform="translate(-18.313,-57.788)" /><polygon
     points="132.56,169.782 149.868,159.691 139.777,176.999 "
     id="polygon22"
     style="fill:#f4f4f4"
     transform="translate(-18.313,-57.788)" /><g
     id="g24"
     transform="translate(-18.313,-57.788)"><path
       d="m 265.771,171.37 c 0.002,-18.104 14.677,-32.779 32.782,-32.781 l 0,0 0,0.92 0,0.918 c -17.09,0.03 -30.913,13.854 -30.944,30.943 l 0,0 c 0.031,17.086 13.854,30.91 30.944,30.94 l 0,0 c 17.087,-0.03 30.911,-13.854 30.941,-30.94 l 0,0 c -0.03,-17.089 -13.854,-30.913 -30.941,-30.943 l 0,0 0,-0.918 0,-0.92 c 18.102,0.002 32.78,14.676 32.78,32.781 l 0,0 c 0,18.101 -14.678,32.778 -32.78,32.779 l 0,0 c -18.104,-0.002 -32.78,-14.678 -32.782,-32.779 l 0,0 z"
       id="path26"
       inkscape:connector-curvature="0"
       style="fill:#f4f4f4" /><path
       d="m 276.264,171.37 c 0,-12.309 9.979,-22.287 22.288,-22.287 l 0,0 0,0.919 0,0.918 c -11.294,0.021 -20.43,9.156 -20.45,20.45 l 0,0 c 0.02,11.293 9.156,20.428 20.45,20.448 l 0,0 c 11.292,-0.02 20.428,-9.154 20.448,-20.448 l 0,0 c -0.021,-11.293 -9.156,-20.429 -20.448,-20.45 l 0,0 0,-0.918 0,-0.919 c 12.308,0 22.285,9.979 22.287,22.287 l 0,0 c -0.002,12.306 -9.979,22.286 -22.287,22.288 l 0,0 c -12.309,-0.003 -22.288,-9.981 -22.288,-22.288 l 0,0 z"
       id="path28"
       inkscape:connector-curvature="0"
       style="fill:#f4f4f4" /></g><g
     id="g30"
     transform="translate(-18.313,-57.788)"><path
       d="m 348.942,162.179 c 0.002,-18.104 14.678,-32.778 32.78,-32.779 l 0,0 0,0.92 0,0.919 c -17.09,0.03 -30.911,13.854 -30.94,30.94 l 0,0 c 0.029,17.089 13.851,30.911 30.94,30.94 l 0,0 c 17.088,-0.029 30.909,-13.851 30.94,-30.94 l 0,0 c -0.031,-17.088 -13.853,-30.91 -30.94,-30.94 l 0,0 0,-0.919 0,-0.92 c 18.103,0.001 32.778,14.675 32.779,32.779 l 0,0 c -10e-4,18.103 -14.677,32.779 -32.779,32.779 l 0,0 c -18.102,0 -32.778,-14.676 -32.78,-32.779 l 0,0 z"
       id="path32"
       inkscape:connector-curvature="0"
       style="fill:#f4f4f4" /><path
       d="m 359.436,162.179 c 0,-12.309 9.977,-22.287 22.287,-22.287 l 0,0 0,0.92 0,0.918 c -11.295,0.021 -20.429,9.155 -20.449,20.449 l 0,0 c 0.021,11.293 9.154,20.427 20.449,20.448 l 0,0 c 11.293,-0.021 20.429,-9.155 20.448,-20.448 l 0,0 c -0.02,-11.293 -9.155,-20.428 -20.448,-20.449 l 0,0 0,-0.918 0,-0.92 c 12.307,0 22.285,9.978 22.287,22.287 l 0,0 c -0.002,12.308 -9.98,22.286 -22.287,22.286 l 0,0 c -12.31,0.001 -22.287,-9.976 -22.287,-22.286 l 0,0 z"
       id="path34"
       inkscape:connector-curvature="0"
       style="fill:#f4f4f4" /></g><g
     id="g36"
     transform="translate(-18.313,-57.788)"><path
       d="m 432.112,152.99 c 0.002,-18.105 14.676,-32.779 32.78,-32.779 l 0,0 0,0.918 0,0.919 c -17.09,0.03 -30.911,13.853 -30.94,30.941 l 0,0 c 0.029,17.088 13.851,30.91 30.94,30.94 l 0,0 c 17.087,-0.03 30.91,-13.853 30.941,-30.94 l 0,0 c -0.031,-17.088 -13.854,-30.912 -30.941,-30.941 l 0,0 0,-0.919 0,-0.918 c 18.1,0 32.778,14.674 32.78,32.779 l 0,0 c -0.002,18.104 -14.681,32.777 -32.78,32.779 l 0,0 c -18.104,-0.002 -32.778,-14.676 -32.78,-32.779 l 0,0 z"
       id="path38"
       inkscape:connector-curvature="0"
       style="fill:#f4f4f4" /><path
       d="m 442.604,152.99 c 0.002,-12.31 9.978,-22.286 22.288,-22.288 l 0,0 0,0.919 0,0.92 c -11.294,0.02 -20.43,9.154 -20.448,20.448 l 0,0 c 0.019,11.293 9.154,20.428 20.448,20.448 l 0,0 c 11.295,-0.02 20.43,-9.155 20.45,-20.448 l 0,0 c -0.02,-11.294 -9.155,-20.428 -20.45,-20.448 l 0,0 0,-0.92 0,-0.919 c 12.31,0.002 22.287,9.979 22.287,22.288 l 0,0 c 0,12.311 -9.978,22.287 -22.287,22.287 l 0,0 c -12.31,-10e-4 -22.287,-9.978 -22.288,-22.287 l 0,0 z"
       id="path40"
       inkscape:connector-curvature="0"
       style="fill:#f4f4f4" /></g><g
     id="g42"
     transform="translate(-18.313,-57.788)"><path
       d="m 512.916,90.567 c 0,-18.104 14.676,-32.779 32.78,-32.779 l 0,0 0,0.919 0,0.918 c -17.09,0.032 -30.91,13.853 -30.942,30.942 l 0,0 c 0.032,17.088 13.853,30.91 30.942,30.94 l 0,0 c 17.088,-0.031 30.908,-13.852 30.939,-30.94 l 0,0 C 576.604,73.478 562.783,59.657 545.696,59.625 l 0,0 0,-0.918 0,-0.919 c 18.103,0 32.778,14.675 32.778,32.779 l 0,0 c 0,18.104 -14.676,32.779 -32.778,32.779 l 0,0 c -18.104,0 -32.78,-14.675 -32.78,-32.779 l 0,0 z"
       id="path44"
       inkscape:connector-curvature="0"
       style="fill:#f4f4f4" /><path
       d="m 523.407,90.567 c 0.002,-12.31 9.979,-22.288 22.289,-22.288 l 0,0 0,0.918 0,0.919 c -11.295,0.021 -20.428,9.155 -20.449,20.449 l 0,0 c 0.02,11.293 9.154,20.428 20.449,20.449 l 0,0 c 11.295,-0.021 20.428,-9.157 20.448,-20.449 l 0,0 C 566.123,79.271 556.991,70.136 545.696,70.116 l 0,0 0,-0.919 0,-0.917 c 12.31,0 22.286,9.978 22.287,22.288 l 0,0 c -10e-4,12.308 -9.978,22.287 -22.287,22.287 l 0,0 c -12.31,-0.001 -22.287,-9.98 -22.289,-22.288 l 0,0 z"
       id="path46"
       inkscape:connector-curvature="0"
       style="fill:#f4f4f4" /></g><g
     id="g48"
     transform="translate(-18.313,-57.788)"><path
       d="m 265.771,253.005 c 0,-18.104 14.676,-32.781 32.781,-32.781 l 0,0 0,0.921 0,0.919 c -17.09,0.031 -30.913,13.852 -30.944,30.941 l 0,0 c 0.031,17.088 13.854,30.91 30.944,30.942 l 0,0 c 17.087,-0.032 30.91,-13.854 30.941,-30.942 l 0,0 c -0.031,-17.09 -13.854,-30.91 -30.941,-30.941 l 0,0 0,-0.919 0,-0.921 c 18.104,0 32.78,14.677 32.781,32.781 l 0,0 c -0.001,18.104 -14.678,32.778 -32.781,32.78 l 0,0 c -18.103,-0.002 -32.781,-14.677 -32.781,-32.78 l 0,0 z"
       id="path50"
       inkscape:connector-curvature="0"
       style="fill:#f4f4f4" /><path
       d="m 276.265,253.006 c 0,-12.31 9.977,-22.287 22.288,-22.289 l 0,0 0,0.92 0,0.919 c -11.296,0.021 -20.43,9.154 -20.449,20.45 l 0,0 c 0.019,11.294 9.154,20.429 20.449,20.45 l 0,0 c 11.292,-0.021 20.428,-9.156 20.449,-20.45 l 0,0 c -0.021,-11.296 -9.157,-20.429 -20.449,-20.45 l 0,0 0,-0.919 0,-0.92 c 12.307,0.002 22.285,9.979 22.287,22.289 l 0,0 c -0.003,12.31 -9.979,22.286 -22.287,22.288 l 0,0 c -12.311,-0.002 -22.288,-9.979 -22.288,-22.288 l 0,0 z"
       id="path52"
       inkscape:connector-curvature="0"
       style="fill:#f4f4f4" /></g><g
     id="g54"
     transform="translate(-18.313,-57.788)"><path
       d="m 348.942,243.816 c 0.002,-18.104 14.678,-32.781 32.78,-32.781 l 0,0 0,0.921 0,0.918 c -17.09,0.029 -30.911,13.854 -30.94,30.942 l 0,0 c 0.029,17.087 13.851,30.909 30.94,30.938 l 0,0 c 17.088,-0.029 30.909,-13.852 30.94,-30.938 l 0,0 c -0.031,-17.089 -13.853,-30.913 -30.94,-30.942 l 0,0 0,-0.918 0,-0.921 c 18.103,0 32.778,14.677 32.779,32.781 l 0,0 c -10e-4,18.103 -14.677,32.779 -32.779,32.779 l 0,0 c -18.102,10e-4 -32.778,-14.676 -32.78,-32.779 l 0,0 z"
       id="path56"
       inkscape:connector-curvature="0"
       style="fill:#f4f4f4" /><path
       d="m 359.436,243.816 c 0,-12.31 9.977,-22.287 22.287,-22.287 l 0,0 0,0.919 0,0.92 c -11.295,0.019 -20.429,9.153 -20.449,20.448 l 0,0 c 0.021,11.292 9.154,20.428 20.449,20.447 l 0,0 c 11.293,-0.02 20.429,-9.155 20.448,-20.447 l 0,0 c -0.02,-11.295 -9.155,-20.43 -20.448,-20.448 l 0,0 0,-0.92 0,-0.919 c 12.307,0 22.285,9.978 22.287,22.287 l 0,0 c -0.002,12.309 -9.98,22.283 -22.287,22.286 l 0,0 c -12.31,-0.002 -22.287,-9.977 -22.287,-22.286 l 0,0 z"
       id="path58"
       inkscape:connector-curvature="0"
       style="fill:#f4f4f4" /></g><path
     d="m 413.799,176.838 c 0.002,-18.104 14.676,-32.779 32.78,-32.781 l 0,0 0,0.92 0,0.919 c -17.09,0.031 -30.911,13.853 -30.94,30.942 l 0,0 c 0.029,17.088 13.851,30.91 30.94,30.94 l 0,0 c 17.087,-0.03 30.91,-13.853 30.941,-30.94 l 0,0 c -0.031,-17.09 -13.854,-30.911 -30.941,-30.942 l 0,0 0,-0.919 0,-0.92 c 18.1,0.002 32.778,14.677 32.78,32.781 l 0,0 c -0.002,18.104 -14.681,32.777 -32.78,32.781 l 0,0 c -18.104,-0.004 -32.778,-14.678 -32.78,-32.781 l 0,0 z"
     id="path60"
     inkscape:connector-curvature="0"
     style="fill:#f4f4f4" /><path
     d="m 424.291,176.838 c 0.002,-12.31 9.978,-22.288 22.288,-22.288 l 0,0 0,0.919 0,0.92 c -11.294,0.02 -20.43,9.154 -20.448,20.449 l 0,0 c 0.019,11.293 9.154,20.429 20.448,20.447 l 0,0 c 11.295,-0.02 20.43,-9.154 20.45,-20.447 l 0,0 c -0.02,-11.295 -9.155,-20.429 -20.45,-20.449 l 0,0 0,-0.92 0,-0.919 c 12.31,0 22.287,9.979 22.287,22.288 l 0,0 c 0,12.309 -9.978,22.286 -22.287,22.286 l 0,0 c -12.31,0 -22.287,-9.977 -22.288,-22.286 l 0,0 z"
     id="path62"
     inkscape:connector-curvature="0"
     style="fill:#f4f4f4" /></svg>