<?xml version="1.0" encoding="UTF-8" standalone="no"?>
<!-- Generator: Adobe Illustrator 16.0.3, SVG Export Plug-In . SVG Version: 6.00 Build 0)  -->

<svg
   xmlns:dc="http://purl.org/dc/elements/1.1/"
   xmlns:cc="http://creativecommons.org/ns#"
   xmlns:rdf="http://www.w3.org/1999/02/22-rdf-syntax-ns#"
   xmlns:svg="http://www.w3.org/2000/svg"
   xmlns="http://www.w3.org/2000/svg"
   xmlns:sodipodi="http://sodipodi.sourceforge.net/DTD/sodipodi-0.dtd"
   xmlns:inkscape="http://www.inkscape.org/namespaces/inkscape"
   version="1.1"
   id="Ebene_1"
   x="0px"
   y="0px"
   width="562.95679"
   height="454.95456"
   viewBox="0 0 562.95677 454.95457"
   enable-background="new 0 0 566.929 458.929"
   xml:space="preserve"
   inkscape:version="0.91 r13725"
   sodipodi:docname="logo.svg"><metadata
     id="metadata33"><rdf:RDF><cc:Work
         rdf:about=""><dc:format>image/svg+xml</dc:format><dc:type
           rdf:resource="http://purl.org/dc/dcmitype/StillImage" /><dc:title /></cc:Work></rdf:RDF></metadata><defs
     id="defs31" /><sodipodi:namedview
     pagecolor="#ffffff"
     bordercolor="#666666"
     borderopacity="1"
     objecttolerance="10"
     gridtolerance="10"
     guidetolerance="10"
     inkscape:pageopacity="0"
     inkscape:pageshadow="2"
     inkscape:window-width="1920"
     inkscape:window-height="1017"
     id="namedview29"
     showgrid="false"
     fit-margin-top="0"
     fit-margin-left="0"
     fit-margin-right="0"
     fit-margin-bottom="0"
     inkscape:zoom="1.4368413"
     inkscape:cx="282.83983"
     inkscape:cy="242.27635"
     inkscape:window-x="-8"
     inkscape:window-y="-8"
     inkscape:window-maximized="1"
     inkscape:current-layer="g5" /><g
     id="g3"
     transform="translate(-1.987,-1.9894444)"><g
       id="g5"
       style="fill:#fa8c4e;fill-opacity:1"><path
         d="m 564.898,182.695 c 0.103,-1.35 0,-2.745 0,-3.875 0.015,-25.821 0.018,-51.642 -0.007,-77.463 -10e-4,-1.341 -0.074,-2.729 -0.417,-4.015 C 557.024,69.363 543.532,44.982 521.178,26.124 502.825,10.643 481.743,2.007 457.451,2.011 393.43,2.022 329.409,2.015 265.387,2.015 179.219,2.015 93.052,2.014 6.885,2.025 c -1.591,0 -3.182,-0.08 -4.898,0 0,19.744 0,39.258 0,58.69 1.204,0.469 2.251,0.942 3.338,1.29 7.92,2.53 15.849,5.035 23.776,7.545 79.821,25.273 159.644,50.542 239.464,75.823 37.698,11.939 75.383,23.919 113.091,35.826 2.366,0.747 4.884,1.441 7.333,1.444 57.348,0.081 114.696,0.064 172.045,0.052 1.128,0 2.515,0.104 3.864,0 z m -222.241,-3.722 c -51.406,-16.294 -102.396,-32.456 -154.027,-48.82 0,76.025 0,151.292 0,226.685 -22.218,11.208 -44.116,22.253 -65.864,33.224 0,22.504 0,44.586 0,66.882 89.945,0 179.608,0 269.52,0 0,-43.316 0,-86.366 0,-129.985 -16.6,0 -32.95,0 -49.629,0 0,-49.564 0,-98.559 0,-147.986 z m 17.448,17.717 c 0,38.089 0,75.92 0,114.012 68.267,0 136.274,0 204.543,0 0,-38.089 0,-75.92 0,-114.012 -68.267,0 -136.273,0 -204.543,0 z"
         id="path7"
         inkscape:connector-curvature="0"
         style="clip-rule:evenodd;fill:#fb7b27;fill-rule:evenodd;fill-opacity:1" /></g><g
       id="g11"><path
         d="m 3.972,59.45 c -2.648,266.31932 -1.324,133.15966 0,0 z"
         id="path15"
         inkscape:connector-curvature="0"
         sodipodi:nodetypes="cc" /></g><g
       id="g17" /></g></svg>