<?xml version="1.0" encoding="utf-8"?>
<!-- Generator: Adobe Illustrator 19.0.0, SVG Export Plug-In . SVG Version: 6.00 Build 0)  -->
<svg version="1.1" baseProfile="tiny"
	 id="Ebene_1" xmlns:dc="http://purl.org/dc/elements/1.1/" xmlns:cc="http://creativecommons.org/ns#" xmlns:rdf="http://www.w3.org/1999/02/22-rdf-syntax-ns#"
	 xmlns="http://www.w3.org/2000/svg" xmlns:xlink="http://www.w3.org/1999/xlink" x="0px" y="0px" viewBox="-134 295.6 788 202.4"
	 xml:space="preserve">
<g>
	<path fill="#17569B" d="M103.1,394.7h39.8c16.3,0,29.5-13.2,29.5-29.5c0-16.3-13.2-29.4-29.5-29.4h-10.4c-0.8,0-1.5-0.7-1.5-1.5
		c0-0.9,0.7-1.6,1.5-1.6h39.7l0.1-12.4h-39.8c-7.7,0-13.9,6.2-13.9,13.9c0,7.8,6.2,14.1,13.9,14.1h10.4c9.3,0,16.9,7.6,16.9,16.9
		c0,9.3-7.6,16.8-16.9,16.8h-39.8L103.1,394.7L103.1,394.7z"/>
	<path fill="#17569B" d="M103.1,379.1h39.8c7.8,0,14-6.3,14-14c0-7.7-6.2-14-14-14h-10.4c-9.3,0-16.8-7.7-16.8-17
		c0-9.3,7.5-16.8,16.8-16.8h39.8l-0.1-12.6h-39.7c-16.3,0-29.4,13.2-29.4,29.5c0,16.3,13.2,29.4,29.4,29.4h10.3
		c0.8,0,1.5,0.7,1.5,1.5c0,0.8-0.7,1.5-1.5,1.5h-39.7L103.1,379.1L103.1,379.1z"/>
	<path fill="#17569B" d="M203.2,382.1c-6.9,0-12.5-5.5-12.5-12.5v-40c0-6.7,5.6-12.3,12.5-12.3h42.5v-12.5h-42.5
		c-13.8,0-25,11.2-25,25v39.8c0,13.8,11.2,25,25,25h42.3v-12.5L203.2,382.1L203.2,382.1z"/>
	<path fill="#17569B" d="M193.8,329.8c0-5.2,4.2-9.6,9.5-9.6h42.5v12.5h-36.6c-2.9,0-2.9,2.9-2.9,2.9h30.6v12.5h-43L193.8,329.8
		L193.8,329.8z"/>
	<path fill="#17569B" d="M203.2,379.1c-5.2,0-9.5-4.3-9.5-9.5v-18.4h43v12.5h-30.6c0,2.9,2.9,2.9,2.9,2.9h36.4v12.4L203.2,379.1
		L203.2,379.1z"/>
	<path fill="#17569B" d="M275.6,382.1c-6.9,0-12.6-5.6-12.6-12.5v-39.8c0-6.9,5.6-12.5,12.5-12.5h41.2v-12.5h-41.3
		c-13.8,0-25,11.2-25,25v39.8c0,13.8,11.3,25,25.1,25h41.2v-58.9h-35.4v12.5h22.9v33.9L275.6,382.1L275.6,382.1z"/>
	<path fill="#17569B" d="M265.9,369.6c0,5.2,4.3,9.6,9.6,9.6h25.7v-28h-19.9v12.6h7.4v2.9h-7.4c-1.6,0-2.9-1.4-2.9-2.9v-28
		c0,0,0-2.9,2.9-2.9h35.3v-12.5h-41.2c-5.2,0-9.6,4.3-9.6,9.6L265.9,369.6L265.9,369.6z"/>
	<path fill="#17569B" d="M355.3,320.1c0.6-1.6,2-2.8,3.8-2.8c1.8,0,3.3,1.1,3.8,2.8l19.9,59.2h-29.2v-13.9h9.8l-4.4-13.2l-14.4,42.4
		h-14.7L355.3,320.1L355.3,320.1z"/>
	<path fill="#17569B" d="M387,382.1h-33.3v12.5h50.6l-26.3-78c-2.3-7.6-9.9-13.2-18.9-13.2c-9,0-16.6,5.6-18.9,13.2l-26.6,78H327
		l25.7-75.9c1.1-2.5,3.5-4.3,6.5-4.3c2.9,0,5.3,1.7,6.4,4.3L387,382.1L387,382.1z"/>
	<path fill="#17569B" d="M397,315.1c2.6,0,5.1-1,6.9-2.9c1.9-1.9,2.9-4.3,2.9-6.9c0-2.6-1-5.1-2.9-6.9c-1.8-1.9-4.3-2.9-6.9-2.9
		c-5.4,0-9.8,4.3-9.8,9.7c0,2.6,1.1,5.1,2.9,6.9C391.9,314.2,394.4,315.1,397,315.1z M388.6,305.3c0-2.2,0.9-4.3,2.5-6
		c1.5-1.6,3.7-2.5,6-2.5c2.2,0,4.3,0.9,6,2.5c1.6,1.6,2.5,3.8,2.5,6c0,4.7-3.8,8.4-8.4,8.4c-2.3,0-4.4-0.8-6-2.5
		C389.5,309.8,388.6,307.6,388.6,305.3z"/>
	<path fill="#17569B" d="M394.5,306.2v4.7h-1.4v-10.9h4c1.5,0,2.4,0,3.3,0.7c0.7,0.6,1.1,1.5,1.1,2.5c0,2.5-2,2.9-2.6,2.9l3,4.7
		h-1.7l-2.9-4.7L394.5,306.2L394.5,306.2z M394.5,305h2.9c0.5,0,0.9,0,1.3-0.2c1.1-0.2,1.4-1,1.4-1.7c0-0.2-0.1-1.1-0.7-1.6
		c-0.6-0.5-1.3-0.4-2.1-0.4h-2.8L394.5,305L394.5,305z"/>
	<g id="g6708" transform="translate(-67.069808,39.506873)">
		<g id="flowRoot6696" transform="translate(0,952.36218)">
			<path id="path6717" fill="#FF0000" d="M130.2-515.7H99.3v-3.5c1.1,0,2.6-0.1,4.3-0.3c1.8-0.2,3-0.5,3.6-0.8
				c1-0.6,1.8-1.3,2.2-2.1c0.5-0.8,0.7-1.8,0.7-3v-50.8h-0.7l-23.8,59.5h-2.5l-22.7-60.8h-0.6v41.7c0,4,0.3,7.1,0.8,9.2
				c0.5,2.1,1.3,3.6,2.3,4.5c0.7,0.7,2.2,1.4,4.5,2s3.7,1,4.4,1v3.5H43.6v-3.5c1.5-0.1,3-0.4,4.7-0.7c1.6-0.4,2.9-0.9,3.8-1.6
				c1.2-0.9,1.9-2.3,2.4-4.2c0.4-1.9,0.6-5.1,0.6-9.6v-35.8c0-2.1-0.2-3.8-0.7-5.1c-0.5-1.3-1.2-2.4-2.1-3.2c-1-0.9-2.3-1.5-3.7-2
				c-1.5-0.4-2.9-0.7-4.4-0.7v-3.5h23.8l20,52.4L105-577c0.6-1.6,1.2-3.3,1.6-5c0.4-1.8,0.7-2.9,0.7-3.5h22.8v3.5
				c-0.9,0-2.1,0.2-3.5,0.4c-1.4,0.3-2.5,0.5-3.1,0.7c-1.1,0.4-1.9,1.1-2.3,2c-0.4,0.9-0.6,1.9-0.6,3v50.4c0,1.2,0.2,2.1,0.6,2.9
				c0.4,0.8,1.1,1.5,2.3,2.1c0.6,0.3,1.6,0.6,3.2,0.9c1.5,0.3,2.7,0.4,3.6,0.5L130.2-515.7L130.2-515.7L130.2-515.7z"/>
			<path id="path6719" fill="#FF0000" d="M173.9-516.6c-1.5,0.6-2.9,1-4.1,1.4c-1.2,0.3-2.5,0.5-4,0.5c-2.6,0-4.6-0.6-6.1-1.8
				c-1.5-1.2-2.5-2.9-2.9-5.2h-0.3c-2.1,2.4-4.4,4.2-6.9,5.4c-2.4,1.3-5.4,1.9-8.8,1.9c-3.6,0-6.6-1.1-9-3.3
				c-2.3-2.2-3.5-5.2-3.5-8.8c0-1.9,0.3-3.5,0.8-5c0.5-1.5,1.3-2.8,2.4-4c0.8-1,1.9-1.9,3.3-2.6c1.3-0.8,2.6-1.4,3.8-1.8
				c1.5-0.6,4.5-1.6,9-3.1c4.5-1.5,7.6-2.7,9.1-3.5v-4.9c0-0.4-0.1-1.2-0.3-2.5c-0.2-1.2-0.6-2.4-1.2-3.4c-0.7-1.2-1.6-2.3-2.8-3.2
				c-1.2-0.9-2.9-1.4-5.1-1.4c-1.5,0-2.9,0.3-4.2,0.8c-1.3,0.5-2.2,1-2.7,1.6c0,0.7,0.2,1.6,0.5,2.9c0.3,1.3,0.5,2.5,0.5,3.5
				c0,1.2-0.5,2.2-1.6,3.2c-1,1-2.5,1.4-4.3,1.4c-1.6,0-2.8-0.6-3.6-1.7c-0.8-1.2-1.2-2.5-1.2-3.9c0-1.5,0.5-3,1.6-4.3
				c1.1-1.4,2.5-2.6,4.2-3.7c1.5-0.9,3.3-1.7,5.4-2.3c2.1-0.6,4.2-1,6.2-1c2.8,0,5.2,0.2,7.2,0.6c2.1,0.4,3.9,1.2,5.6,2.4
				c1.7,1.2,2.9,2.9,3.8,4.9c0.9,2.1,1.3,4.8,1.3,8.1c0,4.7-0.1,8.9-0.1,12.5c-0.1,3.6-0.1,7.6-0.1,11.9c0,1.3,0.2,2.3,0.7,3.1
				c0.4,0.8,1.1,1.4,2,1.9c0.5,0.3,1.3,0.5,2.3,0.5c1.1,0,2.2,0.1,3.3,0.1L173.9-516.6L173.9-516.6L173.9-516.6z M156.7-542.6
				c-2.8,0.8-5.2,1.6-7.3,2.4c-2.1,0.8-4.1,1.8-5.9,3c-1.6,1.1-2.9,2.4-3.9,4c-0.9,1.5-1.4,3.3-1.4,5.4c0,2.7,0.7,4.7,2.1,6
				c1.4,1.3,3.2,1.9,5.4,1.9c2.3,0,4.4-0.6,6.2-1.7c1.8-1.1,3.3-2.5,4.5-4L156.7-542.6z"/>
			<path id="path6721" fill="#FF0000" d="M200.3-539.5c1.3,1.2,2.4,2.5,3.1,4.1c0.7,1.5,1.1,3.4,1.1,5.7c0,4.5-1.7,8.2-5,11
				c-3.4,2.9-7.7,4.3-13.1,4.3c-2.8,0-5.4-0.5-7.8-1.5c-2.4-1-4.1-2-5.1-2.8l-1,3.2h-3.7l-0.5-16.9h3.4c0.3,1.3,0.8,2.8,1.7,4.5
				c0.9,1.7,1.9,3.2,3.1,4.6c1.3,1.4,2.8,2.7,4.6,3.6c1.8,1,3.8,1.5,6,1.5c3.2,0,5.6-0.7,7.3-2.1c1.7-1.4,2.6-3.5,2.6-6.1
				c0-1.4-0.3-2.6-0.8-3.6c-0.5-1-1.3-1.9-2.4-2.6c-1.1-0.8-2.4-1.4-4-2c-1.6-0.6-3.3-1.2-5.3-1.8c-1.5-0.5-3.3-1.1-5.1-1.9
				c-1.9-0.8-3.5-1.8-4.9-2.8c-1.4-1.1-2.6-2.6-3.5-4.2c-0.9-1.7-1.4-3.6-1.4-5.9c0-4,1.5-7.3,4.4-10.1c3-2.8,6.9-4.1,11.9-4.1
				c1.9,0,3.8,0.2,5.8,0.7c2,0.5,3.6,1.1,4.9,1.8l1.1-2.6h3.5l0.7,15.6h-3.4c-0.7-3.5-2.2-6.3-4.5-8.5c-2.3-2.2-5.1-3.3-8.4-3.3
				c-2.7,0-4.8,0.7-6.4,2c-1.5,1.4-2.3,3-2.3,4.9c0,1.5,0.3,2.7,0.8,3.7c0.5,1,1.3,1.8,2.3,2.5c1,0.7,2.2,1.3,3.7,1.8
				c1.5,0.6,3.3,1.2,5.5,1.9c2.2,0.7,4.2,1.5,6.1,2.4C197.5-541.7,199.1-540.6,200.3-539.5z"/>
			<path id="path6723" fill="#FF0000" d="M231.3-517.9c-2.1,0.9-4.2,1.6-6.1,2.2c-1.9,0.6-4.2,0.9-7,0.9c-4.1,0-6.9-1-8.6-3.1
				c-1.7-2.1-2.5-5-2.5-8.7v-32.9h-8.8v-4.7h9v-15.1h9v15.1h13.9v4.7h-13.8v27.1c0,2,0.1,3.7,0.2,5.1c0.1,1.4,0.5,2.6,1.1,3.6
				c0.5,1,1.3,1.7,2.4,2.2c1.1,0.5,2.5,0.7,4.2,0.7c0.8,0,2-0.1,3.6-0.2c1.6-0.1,2.7-0.3,3.4-0.6L231.3-517.9L231.3-517.9z"/>
			<path id="path6725" fill="#FF0000" d="M268.9-527.2c-2,3.9-4.8,7-8.2,9.3c-3.4,2.3-7.3,3.4-11.8,3.4c-3.9,0-7.3-0.7-10.3-2.1
				c-2.9-1.4-5.4-3.3-7.3-5.6c-1.9-2.4-3.3-5.1-4.3-8.3c-0.9-3.2-1.4-6.5-1.4-10c0-3.2,0.5-6.2,1.5-9.3c1-3,2.5-5.8,4.4-8.2
				c1.9-2.3,4.2-4.2,7-5.6c2.8-1.4,5.9-2.1,9.3-2.1c3.5,0,6.6,0.6,9.1,1.7c2.5,1.1,4.6,2.6,6.2,4.6c1.5,1.8,2.6,4,3.4,6.5
				c0.7,2.5,1.1,5.2,1.1,8.1v3.3h-32.2c0,3.2,0.3,6.1,0.9,8.7c0.6,2.6,1.6,4.9,2.9,6.8c1.3,1.9,3,3.4,5,4.5c2.1,1.1,4.5,1.6,7.4,1.6
				c2.9,0,5.4-0.7,7.6-2c2.1-1.4,4.2-3.8,6.1-7.4L268.9-527.2z M258-545.7c0-1.8-0.2-3.8-0.5-5.9c-0.3-2.1-0.8-3.9-1.5-5.3
				c-0.8-1.5-1.8-2.7-3.1-3.7c-1.3-0.9-3-1.4-5.1-1.4c-3.4,0-6.3,1.4-8.6,4.3c-2.3,2.9-3.5,6.9-3.7,12L258-545.7L258-545.7z"/>
			<path id="path6727" fill="#FF0000" d="M301.3-558c0,1.7-0.4,3.2-1.2,4.5c-0.8,1.3-2.1,1.9-3.8,1.9c-1.8,0-3.2-0.5-4.2-1.4
				c-1-0.9-1.5-2-1.5-3.1c0-0.7,0.1-1.4,0.2-2c0.1-0.6,0.2-1.2,0.3-1.8c-1.5,0-3.4,0.6-5.4,1.9c-2.1,1.3-3.8,3-5.3,5.3v28.3
				c0,1.2,0.2,2.1,0.7,2.8c0.4,0.7,1.1,1.3,2.1,1.6c0.8,0.3,1.9,0.6,3.2,0.7c1.3,0.2,2.4,0.3,3.4,0.3v3.3h-25.6v-3.3
				c0.8-0.1,1.5-0.1,2.3-0.2c0.8-0.1,1.5-0.2,2.1-0.4c0.9-0.3,1.6-0.8,2-1.5c0.4-0.7,0.7-1.7,0.7-2.9v-30c0-1-0.2-2-0.7-3
				c-0.5-1-1.1-1.8-2-2.4c-0.6-0.4-1.4-0.7-2.2-0.9c-0.9-0.2-1.8-0.3-2.8-0.4v-3.2l16.2-1.1l0.7,0.7v6.8h0.2c2-2.7,4.3-4.7,6.8-6.1
				c2.5-1.4,4.8-2.1,6.8-2.1c2.1,0,3.8,0.7,5,2C300.6-562.1,301.3-560.3,301.3-558L301.3-558z"/>
			<path id="path6729" fill="#FF0000" d="M353.7-547.8c1.5,1.6,2.6,3.4,3.3,5.4c0.7,2,1.1,4.2,1.1,6.8c0,6.2-2.3,11.3-6.8,15.3
				c-4.6,4-10.2,6-17,6c-3.1,0-6.2-0.5-9.4-1.5c-3.1-1-5.8-2.1-8.1-3.5l-2.1,3.6h-3.9l-0.7-23.9h4c0.8,3,1.8,5.6,2.9,8
				c1.1,2.4,2.6,4.6,4.4,6.7c1.7,1.9,3.7,3.5,6,4.6c2.3,1.2,4.9,1.7,8,1.7c2.3,0,4.2-0.3,5.9-0.9c1.7-0.6,3.1-1.4,4.1-2.5
				c1-1.1,1.8-2.4,2.3-3.8c0.5-1.5,0.8-3.1,0.8-5c0-2.8-0.8-5.4-2.4-7.8c-1.6-2.4-3.9-4.2-7-5.5c-2.1-0.9-4.6-1.8-7.3-2.8
				c-2.8-1-5.1-2-7.1-2.9c-3.9-1.8-7-4.1-9.2-7c-2.2-2.9-3.3-6.6-3.3-11.3c0-2.7,0.5-5.1,1.6-7.4c1.1-2.3,2.6-4.4,4.6-6.2
				c1.9-1.7,4.2-3,6.7-4c2.6-1,5.3-1.5,8.1-1.5c3.2,0,6.1,0.5,8.6,1.5c2.5,1,4.9,2.1,7,3.4l2-3.3h3.9l0.4,23.2h-4
				c-0.7-2.7-1.5-5.2-2.4-7.6c-0.9-2.4-2.1-4.6-3.5-6.6c-1.4-1.9-3.1-3.4-5.2-4.6c-2-1.1-4.5-1.7-7.5-1.7c-3.1,0-5.8,1-8,3
				c-2.2,2-3.3,4.5-3.3,7.3c0,3,0.7,5.5,2.1,7.5c1.4,2,3.5,3.6,6.2,4.9c2.4,1.2,4.8,2.1,7.1,3c2.3,0.8,4.6,1.7,6.7,2.7
				c2,0.9,3.9,1.8,5.7,2.9C350.8-550.5,352.4-549.2,353.7-547.8L353.7-547.8z"/>
			<path id="path6731" fill="#FF0000" d="M351.4-499.9c0-1.6,0.4-3,1.4-4c0.9-1,2-1.6,3.4-1.6c1,0,2,0.2,2.7,0.6
				c0.8,0.4,1.4,0.9,2,1.5c0.5,0.5,1,1.2,1.6,2c0.6,0.9,1,1.6,1.3,2.1c1.6-0.9,3.6-3.2,5.9-6.9c2.3-3.7,3.9-7,4.9-9.9
				c-3.1-7.8-5.9-14.7-8.5-20.9c-2.5-6.1-5.2-12.5-7.9-19.1c-0.6-1.5-1.7-2.7-3.2-3.5c-1.5-0.8-3-1.4-4.4-1.6v-3.3h22.2v3.4
				c-1,0-2.2,0.2-3.5,0.6c-1.4,0.4-2.1,0.8-2.1,1.3c0,0.2,0.1,0.5,0.2,1c0.1,0.5,0.3,0.9,0.5,1.4c1.2,3.3,3.1,7.9,5.7,14.1
				c2.6,6.1,4.5,11,6,14.7c1.5-3.5,3-7.1,4.6-10.9c1.6-3.8,3.4-8.2,5.3-13.3c0.2-0.6,0.6-1.5,1-2.6c0.4-1.1,0.6-2,0.6-2.8
				c0-0.9-0.7-1.7-2.2-2.4c-1.5-0.7-2.9-1.2-4.3-1.4v-3.2h18v3.1c-1,0.2-2.3,0.7-3.9,1.7c-1.6,1-2.8,2.3-3.6,4.1
				c-3.9,9.1-7.4,17.3-10.4,24.8c-3,7.5-5.3,12.9-6.9,16.4c-2.1,4.6-3.9,8.2-5.5,10.8c-1.6,2.6-3.2,4.6-4.8,6.1
				c-1.5,1.4-2.9,2.3-4.1,2.8s-2.5,0.7-3.8,0.7c-2.6,0-4.6-0.6-6-1.8C352.1-496.9,351.4-498.3,351.4-499.9L351.4-499.9z"/>
			<path id="path6733" fill="#FF0000" d="M426.3-539.5c1.3,1.2,2.4,2.5,3.1,4.1c0.7,1.5,1.1,3.4,1.1,5.7c0,4.5-1.7,8.2-5,11
				c-3.4,2.9-7.7,4.3-13.1,4.3c-2.8,0-5.4-0.5-7.8-1.5c-2.4-1-4.1-2-5.1-2.8l-1,3.2h-3.7l-0.5-16.9h3.4c0.3,1.3,0.8,2.8,1.7,4.5
				c0.9,1.7,1.9,3.2,3.1,4.6c1.3,1.4,2.8,2.7,4.6,3.6c1.8,1,3.8,1.5,6,1.5c3.1,0,5.6-0.7,7.3-2.1c1.7-1.4,2.6-3.5,2.6-6.1
				c0-1.4-0.3-2.6-0.8-3.6c-0.5-1-1.3-1.9-2.4-2.6c-1.1-0.8-2.4-1.4-4-2c-1.6-0.6-3.3-1.2-5.3-1.8c-1.5-0.5-3.3-1.1-5.1-1.9
				c-1.9-0.8-3.5-1.8-4.9-2.8c-1.4-1.1-2.6-2.6-3.5-4.2c-0.9-1.7-1.4-3.6-1.4-5.9c0-4,1.5-7.3,4.4-10.1c3-2.8,6.9-4.1,11.9-4.1
				c1.9,0,3.9,0.2,5.8,0.7c2,0.5,3.6,1.1,4.9,1.8l1.1-2.6h3.5l0.7,15.6h-3.4c-0.7-3.5-2.2-6.3-4.5-8.5c-2.3-2.2-5.1-3.3-8.4-3.3
				c-2.7,0-4.8,0.7-6.4,2c-1.5,1.4-2.3,3-2.3,4.9c0,1.5,0.3,2.7,0.8,3.7c0.5,1,1.3,1.8,2.3,2.5c1,0.7,2.2,1.3,3.7,1.8
				c1.5,0.6,3.3,1.2,5.5,1.9c2.2,0.7,4.2,1.5,6.1,2.4C423.5-541.7,425-540.6,426.3-539.5L426.3-539.5z"/>
			<path id="path6735" fill="#FF0000" d="M457.3-517.9c-2.1,0.9-4.2,1.6-6.1,2.2c-1.9,0.6-4.2,0.9-7,0.9c-4.1,0-6.9-1-8.6-3.1
				c-1.7-2.1-2.5-5-2.5-8.7v-32.9h-8.8v-4.7h9v-15.1h9v15.1h13.9v4.7h-13.8v27.1c0,2,0.1,3.7,0.2,5.1s0.5,2.6,1.1,3.6
				c0.5,1,1.3,1.7,2.4,2.2c1.1,0.5,2.5,0.7,4.2,0.7c0.8,0,2-0.1,3.6-0.2c1.6-0.1,2.7-0.3,3.4-0.6L457.3-517.9L457.3-517.9z"/>
			<path id="path6737" fill="#FF0000" d="M494.8-527.2c-2,3.9-4.8,7-8.2,9.3c-3.4,2.3-7.3,3.4-11.8,3.4c-3.9,0-7.3-0.7-10.3-2.1
				c-2.9-1.4-5.4-3.3-7.3-5.6c-1.9-2.4-3.3-5.1-4.3-8.3c-0.9-3.2-1.4-6.5-1.4-10c0-3.2,0.5-6.2,1.5-9.3c1-3,2.5-5.8,4.4-8.2
				c1.9-2.3,4.2-4.2,7-5.6c2.8-1.4,5.9-2.1,9.3-2.1c3.5,0,6.6,0.6,9.1,1.7c2.5,1.1,4.6,2.6,6.2,4.6c1.5,1.8,2.6,4,3.4,6.5
				c0.7,2.5,1.1,5.2,1.1,8.1v3.3h-32.2c0,3.2,0.3,6.1,0.9,8.7c0.6,2.6,1.6,4.9,2.9,6.8c1.3,1.9,3,3.4,5,4.5c2.1,1.1,4.5,1.6,7.4,1.6
				c2.9,0,5.4-0.7,7.6-2c2.1-1.4,4.2-3.8,6.1-7.4L494.8-527.2z M484-545.7c0-1.8-0.2-3.8-0.5-5.9c-0.3-2.1-0.8-3.9-1.5-5.3
				c-0.8-1.5-1.8-2.7-3.1-3.7c-1.3-0.9-3-1.4-5.1-1.4c-3.4,0-6.3,1.4-8.6,4.3c-2.3,2.9-3.5,6.9-3.7,12L484-545.7L484-545.7z"/>
			<path id="path6739" fill="#FF0000" d="M573.3-515.7h-23.7v-3.3c0.8-0.1,1.5-0.1,2.3-0.2c0.8-0.1,1.4-0.2,2-0.4
				c0.9-0.3,1.6-0.8,2-1.6c0.4-0.7,0.7-1.7,0.7-2.9v-25.1c0-3.4-0.8-6-2.3-7.9c-1.6-1.9-3.5-2.8-5.8-2.8c-1.6,0-3.1,0.2-4.5,0.7
				c-1.4,0.5-2.7,1.2-3.9,2.1c-1,0.7-1.8,1.5-2.4,2.3c-0.6,0.8-1.1,1.5-1.5,2.1v28c0,1.2,0.2,2.1,0.6,2.8c0.4,0.7,1.1,1.3,2,1.7
				c0.8,0.3,1.4,0.5,2,0.7c0.6,0.1,1.4,0.3,2.4,0.3v3.3H520v-3.3c0.8-0.1,1.5-0.1,2.2-0.2c0.7-0.1,1.4-0.2,1.9-0.4
				c0.9-0.3,1.6-0.8,2-1.5c0.4-0.7,0.7-1.7,0.7-2.9v-25.1c0-3.4-0.8-6-2.3-7.9c-1.6-1.9-3.5-2.8-5.8-2.8c-1.6,0-3.1,0.3-4.5,0.8
				c-1.4,0.5-2.7,1.2-3.9,2.1c-1,0.7-1.8,1.5-2.4,2.4c-0.7,0.9-1.1,1.6-1.5,2v27.8c0,1.1,0.2,2.1,0.7,2.8c0.5,0.8,1.1,1.3,2.1,1.7
				c0.7,0.3,1.4,0.6,2.1,0.7c0.7,0.2,1.5,0.3,2.4,0.3v3.3h-23.6v-3.3c0.8-0.1,1.5-0.1,2.3-0.2c0.8-0.1,1.5-0.2,2.1-0.4
				c0.9-0.3,1.6-0.8,2-1.6c0.4-0.7,0.7-1.7,0.7-2.9v-30.2c0-1-0.2-2-0.7-2.8c-0.5-0.8-1.1-1.6-2-2.1c-0.6-0.4-1.4-0.7-2.3-1
				c-0.9-0.2-1.9-0.4-2.9-0.5v-3.2l16.3-1.1l0.7,0.7v6.9h0.3c0.8-0.8,1.8-1.8,3-2.9c1.2-1.1,2.3-2,3.3-2.7c1.1-0.8,2.6-1.4,4.3-2
				c1.7-0.5,3.6-0.8,5.6-0.8c3.2,0,5.9,0.8,8.1,2.5c2.3,1.7,3.9,3.7,4.9,6.1c1.2-1.1,2.2-2.2,3.1-3c0.9-0.9,2.1-1.8,3.6-2.8
				c1.3-0.9,2.7-1.5,4.4-2.1c1.7-0.5,3.6-0.8,5.6-0.8c4.1,0,7.4,1.4,9.8,4c2.4,2.7,3.6,6.8,3.6,12.4v24.7c0,1.2,0.2,2.1,0.6,2.8
				c0.4,0.7,1.1,1.3,2,1.7c0.8,0.3,1.5,0.5,2.2,0.7c0.7,0.1,1.6,0.3,2.5,0.3L573.3-515.7L573.3-515.7L573.3-515.7L573.3-515.7z"/>
		</g>
		<g id="text6704" transform="scale(1.0267638,0.97393384)">
			<path id="path6742" fill="#FF0000" d="M594.6,410.6h-6.3v-1c0.2,0,0.5,0,0.8-0.1c0.4,0,0.6-0.1,0.7-0.1c0.2-0.1,0.3-0.2,0.4-0.3
				c0.1-0.1,0.1-0.2,0.1-0.4v-8.3h-0.3l-4.5,9.7H585l-4.3-9.9h-0.3v6.7c0,0.6,0,1.1,0.1,1.5c0.1,0.3,0.2,0.6,0.4,0.8
				c0.2,0.1,0.4,0.2,0.8,0.3c0.4,0.1,0.7,0.2,1,0.2v1h-5.8v-0.9c0.2,0,0.5-0.1,0.9-0.1c0.4-0.1,0.7-0.1,0.9-0.3
				c0.2-0.2,0.3-0.4,0.4-0.7c0.1-0.3,0.1-0.8,0.1-1.6v-6.4c0-0.3,0-0.5-0.1-0.7c-0.1-0.2-0.2-0.4-0.4-0.5c-0.2-0.1-0.4-0.3-0.7-0.3
				c-0.3-0.1-0.6-0.1-0.9-0.1V398h5.1l3.9,8.7l3.2-7.1c0.1-0.3,0.2-0.6,0.3-0.9c0.1-0.3,0.1-0.5,0.2-0.7h4.9v0.9
				c-0.2,0-0.5,0-0.8,0.1c-0.3,0-0.6,0.1-0.7,0.1c-0.2,0-0.3,0.1-0.3,0.3c0,0.1-0.1,0.3-0.1,0.4v8.9c0,0.2,0,0.3,0.1,0.4
				c0,0.1,0.2,0.2,0.3,0.3c0.1,0,0.3,0.1,0.6,0.1c0.3,0.1,0.6,0.1,0.9,0.1L594.6,410.6L594.6,410.6L594.6,410.6z M574.8,401.6h-0.9
				c-0.1-0.4-0.4-0.9-0.7-1.5c-0.4-0.6-0.7-0.9-1.1-1c-0.3,0-0.5,0-0.8-0.1c-0.3,0-0.5,0-0.6,0h-0.9v9.6c0,0.2,0,0.3,0.1,0.4
				c0.1,0.1,0.2,0.2,0.4,0.3c0.1,0,0.3,0.1,0.7,0.2c0.3,0.1,0.6,0.1,0.9,0.1v1h-6.5v-1c0.2,0,0.5,0,0.9-0.1c0.4,0,0.6-0.1,0.7-0.1
				c0.2-0.1,0.3-0.2,0.4-0.3c0.1-0.1,0.1-0.3,0.1-0.4V399h-0.9c-0.2,0-0.4,0-0.7,0c-0.3,0-0.5,0-0.7,0c-0.4,0.1-0.8,0.4-1.1,1
				c-0.4,0.6-0.6,1.1-0.7,1.5h-0.9V398h12.5L574.8,401.6L574.8,401.6z"/>
		</g>
	</g>
</g>
</svg>
