<?xml version="1.0" encoding="utf-8"?>
<!-- Generator: Adobe Illustrator 16.0.3, SVG Export Plug-In . SVG Version: 6.00 Build 0)  -->
<!DOCTYPE svg PUBLIC "-//W3C//DTD SVG 1.1//EN" "http://www.w3.org/Graphics/SVG/1.1/DTD/svg11.dtd">
<svg version="1.1"
	 id="svg2" xmlns:dc="http://purl.org/dc/elements/1.1/" xmlns:cc="http://creativecommons.org/ns#" xmlns:rdf="http://www.w3.org/1999/02/22-rdf-syntax-ns#" xmlns:svg="http://www.w3.org/2000/svg" xmlns:sodipodi="http://sodipodi.sourceforge.net/DTD/sodipodi-0.dtd" xmlns:inkscape="http://www.inkscape.org/namespaces/inkscape" sodipodi:docname="zx81.svg" inkscape:version="0.48.4 r9939"
	 xmlns="http://www.w3.org/2000/svg" xmlns:xlink="http://www.w3.org/1999/xlink" x="0px" y="0px" width="567.758px" height="84px"
	 viewBox="0 0 567.758 84" enable-background="new 0 0 567.758 84" xml:space="preserve">
<sodipodi:namedview  fit-margin-left="0" fit-margin-top="0" showgrid="false" inkscape:cy="22.135798" inkscape:cx="111.5182" inkscape:zoom="5.6568542" borderopacity="1.0" bordercolor="#666666" pagecolor="#ffffff" id="base" fit-margin-bottom="0" fit-margin-right="0" inkscape:window-maximized="0" inkscape:window-y="24" inkscape:current-layer="layer1" inkscape:window-x="51" inkscape:pageshadow="2" inkscape:document-units="px" inkscape:pageopacity="0.0" inkscape:window-height="998" inkscape:window-width="1629">
	</sodipodi:namedview>
<g id="layer1" transform="translate(-80.036789,-570.6495)" inkscape:label="Calque 1" inkscape:groupmode="layer">
	<g id="g3047" transform="translate(-4.7729708,73.715882)">
		<path id="path3075" inkscape:connector-curvature="0" fill="#BBDAD6" d="M85.071,578.748v-2.186l4-4.744c2.2-2.609,4-5,4-5.314
			c0-0.313-1.8-0.57-4-0.57h-4v-2v-2h7.5h7.5v2.09v2.092l-4.621,5.408l-4.622,5.41h5.122c2.816,0,5.393,0.112,5.725,0.25
			s1.532-1.352,2.667-3.308l2.063-3.558l-2.689-3.942l-2.689-3.942l2.239-0.348l2.238-0.348l2.098,2.63l2.097,2.631l1.355-2.532
			l1.355-2.533h2.331h2.331v0.768c0,0.423-1.144,2.451-2.542,4.51l-2.542,3.74l3.042,4.422c3.665,5.326,3.691,5.561,0.641,5.561
			h-2.402l-1.961-3.098l-1.961-3.097l-2.205,3.097l-2.205,3.098h-9.933h-9.932V578.748L85.071,578.748z M127.821,578.854l-1.75-1.02
			v-2.75v-2.75l1.087-1.088l1.088-1.087l-1.088-0.672l-1.087-0.672v-2.241v-2.24l1.2-1.2l1.2-1.2h5.1h5.101l1.199,1.2l1.2,1.2v2.1
			v2.1l-1.087,1.088l-1.087,1.087l1.087,0.672l1.087,0.672v2.905v2.906l-1.934,1.035l-1.935,1.035l-3.815-0.03l-3.816-0.03
			L127.821,578.854L127.821,578.854z M136.014,575.504l1.187-1.431l-1.926-1.031l-1.927-1.03l-1.804,1.318l-1.804,1.318l1.916,1.112
			C134.176,577.223,134.607,577.197,136.014,575.504z M135.822,567.184l0.416-1.249l-1.65-0.634l-1.65-0.633l-1.046,1.046
			l-1.046,1.046l0.706,1.143l0.706,1.143l1.574-0.306l1.573-0.306L135.822,567.184L135.822,567.184z M145.071,578.434v-1.5h2h2v-5.5
			v-5.5h-2h-2v-2v-2h4h4v7.5v7.5h2h2v1.5v1.5h-6h-6V578.434z M455.071,558.959c0-0.296,13.391-13.923,29.757-30.282l29.756-29.744
			h68.987h68.988l-30.457,30.469l-30.456,30.469l-68.287-0.188l-68.288-0.188V558.959L455.071,558.959z M85.071,545.434v-4.5h30.5
			h30.5v-4v-4h-30.5h-30.5v-12v-12h34.5h34.5v4v4h-30h-30v4v4h30.5h30.5v12.5v12.5h-35h-35V545.434z M159.071,529.434v-20.5h4.5h4.5
			v20.5v20.5h-4.5h-4.5V529.434z M172.071,529.491v-20.558h34.5h34.5v20.5v20.5h-4.5h-4.5v-16.5v-16.5h-25.475h-25.476l-0.274,16.25
			l-0.275,16.25l-4.25,0.308l-4.25,0.308V529.491z M245.071,529.434v-20.5h34.5h34.5v4v4h-30h-30v12v12h30h30v4.5v4.5h-34.5h-34.5
			V529.434z M319.071,523.434v-26.5h4.5h4.5v26.5v26.5h-4.5h-4.5V523.434z M332.071,537.434v-12.5h30h30v-4v-4h-30h-30v-4v-4h34.5
			h34.5v20.5v20.5h-34.5h-34.5V537.434z M392.071,536.934v-4h-25.5h-25.5v4v4h25.5h25.5V536.934z M406.071,529.491v-20.558h4.521
			h4.521l-0.271,20.25l-0.271,20.25l-4.25,0.308l-4.25,0.308V529.491z M419.071,529.434v-20.5h34.5h34.5v4v4h-30h-30v16.5v16.5h-4.5
			h-4.5V529.434z M159.071,500.934v-4h4.5h4.5v4v4h-4.5h-4.5V500.934z M406.071,500.934v-4h4.5h4.5v4v4h-4.5h-4.5V500.934z"/>
		<path id="path3073" inkscape:connector-curvature="0" fill="#E8A4A3" d="M85.071,578.791v-2.142l4.577-5.358l4.578-5.357h-4.078
			h-4.077v-2v-2h7h7v1.758v1.756l-4.514,5.494l-4.515,5.492l4.515,0.305l4.514,0.305v1.945v1.945h-7.5h-7.5V578.791z
			 M101.071,580.166c0-0.422,1.125-2.424,2.5-4.447c3.097-4.557,3.095-5.02-0.022-9.588l-2.522-3.697l2.165-0.338l2.164-0.338
			l2.162,2.711l2.162,2.711l1.719-2.623l1.719-2.623h1.978c2.528,0,2.496,0.258-0.614,4.959l-2.592,3.915l3.052,4.437l3.052,4.436
			l-0.627,0.627c-0.345,0.345-1.427,0.627-2.404,0.627h-1.776l-1.772-3c-0.975-1.65-2.013-2.997-2.307-2.994
			c-0.294,0.004-1.301,1.354-2.237,3l-1.704,2.994h-2.046h-2.047V580.166L101.071,580.166z M127.821,578.854l-1.75-1.02v-2.75v-2.75
			l1.087-1.088l1.088-1.087l-1.088-0.672l-1.087-0.672v-2.405v-2.406l1.935-1.035l1.935-1.035h3.631h3.632l1.935,1.035l1.934,1.035
			v2.265v2.265l-1.087,1.088l-1.087,1.087l1.087,0.672l1.087,0.672v2.37v2.369l-1.571,1.571l-1.571,1.571l-4.179-0.03l-4.179-0.03
			L127.821,578.854L127.821,578.854z M135.848,575.758l1.176-1.177l-1.099-1.323c-0.604-0.729-1.663-1.324-2.354-1.324
			s-1.749,0.596-2.354,1.324l-1.099,1.323l1.176,1.177c0.647,0.646,1.672,1.176,2.276,1.176
			C134.177,576.934,135.201,576.404,135.848,575.758z M136.071,567.918l1.5-0.984l-1.5-0.984c-0.825-0.542-1.95-0.984-2.5-0.984
			s-1.675,0.442-2.5,0.984l-1.5,0.984l1.5,0.984c0.825,0.542,1.95,0.984,2.5,0.984S135.246,568.46,136.071,567.918z
			 M145.071,578.434v-1.5h2h2v-5.906v-5.906l-2.101,0.549l-2.101,0.55l0.358-1.894l0.359-1.893l3.742-0.311l3.741-0.311v7.561v7.561
			h2h2v1.5v1.5h-6h-6V578.434L145.071,578.434z M455.072,559.081c0-0.362,13.39-14.044,29.756-30.404l29.756-29.744h68.992h68.991
			l-29.998,29.895l-29.997,29.896l-68.75,0.508l-68.75,0.51V559.081L455.072,559.081z M85.471,548.531
			c-0.302-0.785-0.402-2.704-0.224-4.264l0.324-2.834l30.25-0.265l30.25-0.265v-3.985v-3.985h-30.5h-30.5v-12v-12h34.5h34.5v4v4h-30
			h-30v4v4h30.531h30.53l-0.28,12.25l-0.281,12.25l-34.276,0.264l-34.276,0.263L85.471,548.531z M159.786,549.314l-0.715-0.714
			v-19.833v-19.833h4.521h4.521l-0.271,20.25l-0.271,20.25l-3.535,0.298l-3.536,0.298L159.786,549.314L159.786,549.314z
			 M172.071,529.491v-20.558h34.5h34.5v20.558v20.558l-4.25-0.308l-4.25-0.308l-0.274-16.25l-0.274-16.25h-25.451h-25.45
			l-0.274,16.25l-0.275,16.25l-4.25,0.308l-4.25,0.308V529.491L172.071,529.491z M245.071,529.434v-20.5h34.5h34.5v4v4h-30h-30v12
			v12h30h30v4.5v4.5h-34.5h-34.5V529.434z M319.738,549.268l-0.667-0.668v-25.833v-25.833h4.5h4.5v26.5v26.5h-3.833
			C322.13,549.934,320.104,549.634,319.738,549.268L319.738,549.268z M332.071,537.434v-12.5h30.5h30.5v-4v-4h-30.5h-30.5v-4v-4
			h34.5h34.5v20.5v20.5h-34.5h-34.5V537.434z M393.071,536.934v-4h-26h-26v4v4h26h26V536.934z M406.071,529.491v-20.558h4.521h4.521
			l-0.271,20.25l-0.271,20.25l-4.25,0.308l-4.25,0.308V529.491z M419.071,529.491v-20.558h34.5h34.5v4v4h-29.975h-29.976
			l-0.274,16.25l-0.275,16.25l-4.25,0.308l-4.25,0.308V529.491z M159.071,500.934v-4h4.5h4.5v4v4h-4.5h-4.5V500.934z
			 M406.071,500.991v-4.058h4.561h4.561l-0.311,3.75l-0.311,3.75l-4.25,0.308l-4.25,0.308V500.991z"/>
		<path id="path3071" inkscape:connector-curvature="0" fill="#ABABAB" d="M85.071,578.791v-2.142l4.577-5.358l4.578-5.357h-4.078
			h-4.077v-2v-2h7h7v1.758v1.756l-4.514,5.494l-4.515,5.492l4.515,0.305l4.514,0.305v1.945v1.945h-7.5h-7.5V578.791z
			 M101.071,580.166c0-0.422,1.125-2.424,2.5-4.447c3.097-4.557,3.095-5.02-0.022-9.588l-2.522-3.697l2.165-0.338l2.164-0.338
			l2.162,2.711l2.162,2.711l1.719-2.623l1.719-2.623h1.978c2.528,0,2.496,0.258-0.614,4.959l-2.592,3.915l3.052,4.437l3.052,4.436
			l-0.627,0.627c-0.345,0.345-1.427,0.627-2.404,0.627h-1.776l-1.772-3c-0.975-1.65-2.013-2.997-2.307-2.994
			c-0.294,0.004-1.301,1.354-2.237,3l-1.704,2.994h-2.046h-2.047V580.166L101.071,580.166z M127.821,578.854l-1.75-1.02v-2.75v-2.75
			l1.087-1.088l1.088-1.087l-1.088-0.672l-1.087-0.672v-2.405v-2.406l1.935-1.035l1.935-1.035h3.631h3.632l1.935,1.035l1.934,1.035
			v2.265v2.265l-1.087,1.088l-1.087,1.087l1.087,0.672l1.087,0.672v2.37v2.369l-1.571,1.571l-1.571,1.571l-4.179-0.03l-4.179-0.03
			L127.821,578.854L127.821,578.854z M135.848,575.758l1.176-1.177l-1.099-1.323c-0.604-0.729-1.663-1.324-2.354-1.324
			s-1.749,0.596-2.354,1.324l-1.099,1.323l1.176,1.177c0.647,0.646,1.672,1.176,2.276,1.176
			C134.177,576.934,135.201,576.404,135.848,575.758z M136.071,567.918l1.5-0.984l-1.5-0.984c-0.825-0.542-1.95-0.984-2.5-0.984
			s-1.675,0.442-2.5,0.984l-1.5,0.984l1.5,0.984c0.825,0.542,1.95,0.984,2.5,0.984S135.246,568.46,136.071,567.918z
			 M145.071,578.434v-1.5h2h2v-5.906v-5.906l-2.101,0.549l-2.101,0.55l0.358-1.894l0.359-1.893l3.742-0.311l3.741-0.311v7.561v7.561
			h2h2v1.5v1.5h-6h-6V578.434L145.071,578.434z M485.572,528.934l29.987-30h68.5h68.5l-29.987,30l-29.988,30h-68.5h-68.5
			L485.572,528.934z M85.471,548.531c-0.302-0.785-0.402-2.704-0.224-4.264l0.324-2.834l30.25-0.265l30.25-0.265v-3.985v-3.985
			h-30.5h-30.5v-12v-12h34.5h34.5v4v4h-30h-30v4v4h30.531h30.53l-0.28,12.25l-0.281,12.25l-34.276,0.264l-34.276,0.263
			L85.471,548.531z M159.786,549.314l-0.715-0.714v-19.833v-19.833h4.521h4.521l-0.271,20.25l-0.271,20.25l-3.535,0.298
			l-3.536,0.298L159.786,549.314L159.786,549.314z M172.071,529.491v-20.558h34.5h34.5v20.558v20.558l-4.25-0.308l-4.25-0.308
			l-0.274-16.25l-0.274-16.25h-25.451h-25.45l-0.274,16.25l-0.275,16.25l-4.25,0.308l-4.25,0.308V529.491L172.071,529.491z
			 M245.071,529.434v-20.5h34.5h34.5v4v4h-30h-30v12v12h30h30v4.5v4.5h-34.5h-34.5V529.434z M319.738,549.268l-0.667-0.668v-25.833
			v-25.833h4.5h4.5v26.5v26.5h-3.833C322.13,549.934,320.104,549.634,319.738,549.268L319.738,549.268z M332.071,537.434v-12.5h30.5
			h30.5v-4v-4h-30.5h-30.5v-4v-4h34.5h34.5v20.5v20.5h-34.5h-34.5V537.434z M393.071,536.934v-4h-26h-26v4v4h26h26V536.934z
			 M406.071,529.491v-20.558h4.521h4.521l-0.271,20.25l-0.271,20.25l-4.25,0.308l-4.25,0.308V529.491z M419.071,529.491v-20.558
			h34.5h34.5v4v4h-29.975h-29.976l-0.274,16.25l-0.275,16.25l-4.25,0.308l-4.25,0.308V529.491z M159.071,500.934v-4h4.5h4.5v4v4
			h-4.5h-4.5V500.934z M406.071,500.991v-4.058h4.561h4.561l-0.311,3.75l-0.311,3.75l-4.25,0.308l-4.25,0.308V500.991z"/>
		<path id="path3069" inkscape:connector-curvature="0" fill="#989898" d="M85.071,578.344v-1.592l4.622-5.408l4.621-5.41h-4.121
			h-4.122v-2v-2h7h7v1.758v1.756l-4.514,5.494l-4.515,5.492l4.515,0.305l4.514,0.305v1.445v1.445h-7.5h-7.5V578.344z
			 M102.609,577.184c0.973-1.513,2.351-3.604,3.063-4.646l1.294-1.896l-2.995-4.354l-2.995-4.354h2.433h2.434l1.751,2.673
			l1.751,2.673l1.947-2.673l1.947-2.673h1.917c2.467,0,2.428,0.27-0.717,5.021l-2.633,3.979l2.633,3.979
			c3.21,4.852,3.221,5.021,0.294,5.021h-2.34l-1.139-2.5c-0.627-1.375-1.523-2.5-1.992-2.5s-1.454,1.125-2.19,2.5l-1.338,2.5h-2.446
			h-2.445L102.609,577.184z M127.643,578.362l-1.571-1.571v-2.379v-2.379l1.609-0.9l1.609-0.901l-1.609-0.617l-1.609-0.618V566.5
			v-2.496l1.935-1.035l1.935-1.035h3.631h3.632l1.935,1.035l1.934,1.035v2.415v2.415l-1.609,0.9l-1.609,0.901l1.609,0.617
			l1.609,0.618v2.376v2.376l-1.828,1.655l-1.829,1.655h-4.1h-4.1L127.643,578.362L127.643,578.362z M135.489,576.326l1.582-0.606
			v-1.286v-1.286l-1.641-0.63l-1.641-0.629l-1.859,0.59l-1.859,0.59v1.35v1.35l1.25,0.504
			C133.123,576.998,133.719,577.006,135.489,576.326L135.489,576.326z M136.571,566.934v-1.5l-2.365-0.334l-2.365-0.336
			l-0.997,0.998l-0.998,0.998l0.707,1.145l0.708,1.145l2.655-0.308l2.655-0.308V566.934L136.571,566.934z M145.071,578.434v-1.5h2h2
			v-5.906v-5.906l-2.101,0.549l-2.101,0.55l0.358-1.894l0.359-1.893l3.742-0.311l3.741-0.311v7.561v7.561h2h2v1.5v1.5h-6h-6V578.434
			L145.071,578.434z M485.571,528.934l29.988-30h67.756h67.756v0.756c0,0.416-13.165,13.916-29.256,30l-29.256,29.244h-68.487
			h-68.488L485.571,528.934L485.571,528.934z M85.261,545.184l0.311-3.75l30.25-0.265l30.25-0.265v-3.971v-3.971l-30.25-0.265
			l-30.25-0.265l-0.281-11.75l-0.282-11.75h34.532h34.531v4v4h-30h-30v3.985v3.985l30.25,0.265l30.25,0.265l0.282,11.75l0.281,11.75
			h-35.092H84.951L85.261,545.184L85.261,545.184z M159.071,528.934v-20h4.5h4.5v20v20h-4.5h-4.5V528.934z M172.071,528.934v-20
			h34.5h34.5v20v20h-4.5h-4.5v-16v-16h-26h-26v16v16h-4h-4V528.934z M245.071,528.934v-20h34.5h34.5v4v4h-30h-30v12v12h30h30v4v4
			h-34.5h-34.5V528.934z M319.071,522.934v-26h4.5h4.5v26v26h-4.5h-4.5V522.934z M332.071,537.448v-11.485l30.25-0.265l30.25-0.265
			l0.308-4.25l0.308-4.25h-30.558h-30.558v-4v-4h34.5h34.5v20v20h-34.5h-34.5V537.448z M393.071,536.934v-4h-26h-26v4v4h26h26
			V536.934z M406.071,528.934v-20h4h4v20v20h-4h-4V528.934z M419.071,528.934v-20h34.5h34.5v4v4h-30h-30v16v16h-4.5h-4.5V528.934z
			 M159.071,500.934v-4h4.5h4.5v4v4h-4.5h-4.5V500.934z M406.071,500.934v-4h4h4v4v4h-4h-4V500.934z"/>
		<path id="path3067" inkscape:connector-curvature="0" fill="#FBC501" d="M85.071,578.533v-1.401l4.452-5.349l4.451-5.35
			l-3.951-0.308l-3.952-0.308v-1.942v-1.942h7h7v1.648v1.648l-4.619,5.602l-4.619,5.602l4.619,0.305l4.619,0.305v1.445v1.445h-7.5
			h-7.5V578.533z M104.065,575.442l3.09-4.491l-2.542-3.74c-1.397-2.059-2.542-4.087-2.542-4.51v-0.768h1.975h1.975l1.629,3.15
			l1.629,3.15l1.995-3.15l1.994-3.15h2.018h2.017l-1.463,2.25c-0.804,1.237-2.065,3.225-2.803,4.416l-1.341,2.166l2.688,4.063
			c3.215,4.857,3.249,5.105,0.712,5.105h-1.978l-1.638-2.5c-0.901-1.375-1.96-2.5-2.354-2.5c-0.394,0-1.317,1.125-2.054,2.5
			l-1.338,2.5h-2.379h-2.379L104.065,575.442L104.065,575.442z M128.294,578.377l-2.223-1.557v-1.904v-1.903l1.407-1.29l1.406-1.289
			l-1.497-1.678l-1.496-1.679l0.635-2.003l0.636-2.002l3.033-0.666l3.032-0.666l3.366,0.631l3.365,0.632l0.646,2.037l0.646,2.036
			l-1.497,1.68l-1.496,1.678l1.406,1.289l1.406,1.289v1.904v1.904l-2.223,1.557l-2.222,1.557h-3.056h-3.055L128.294,578.377
			L128.294,578.377z M136.571,574.434v-2l-2.365-0.334l-2.365-0.336l-1.018,1.018l-1.018,1.018l0.627,1.635l0.628,1.634l2.755-0.317
			l2.756-0.316V574.434L136.571,574.434z M136.571,566.934v-1.5l-2.365-0.334l-2.365-0.336l-0.997,0.998l-0.998,0.998l0.707,1.145
			l0.708,1.145l2.655-0.308l2.655-0.308V566.934L136.571,566.934z M145.071,578.434v-1.5h2h2v-6.067v-6.067l-2,0.635l-2,0.635
			v-1.461v-1.46l1.582-0.606c0.87-0.334,2.67-0.607,4-0.607h2.418v7.5v7.5h2h2v1.5v1.5h-6h-6V578.434z M485.571,528.934l29.988-30
			h67.756h67.756v0.756c0,0.416-13.165,13.916-29.256,30l-29.256,29.244h-68.487h-68.488L485.571,528.934L485.571,528.934z
			 M86.071,545.434v-3.5h30h30v-4.5v-4.5h-29.864H86.344l-0.637-4.64c-0.35-2.552-0.636-7.952-0.636-12v-7.36h34.5h34.5v4v4h-30.606
			H92.857l0.607,1.582c0.334,0.87,0.606,2.67,0.606,4v2.418h30h30v12v12h-34h-34V545.434z M159.071,528.934v-20h4.5h4.5v20v20h-4.5
			h-4.5V528.934z M172.071,528.934v-20h34.5h34.5v20v20h-4h-4v-16v-16h-26.5h-26.5v16v16h-4h-4V528.934z M245.071,528.934v-20h34.5
			h34.5v4v4h-30h-30v12.5v12.5h30h30v3.5v3.5h-34.5h-34.5V528.934z M320.071,522.934v-26h4h4v26v26h-4h-4V522.934z M332.071,537.434
			v-11.5h30.5h30.5v-4.5v-4.5h-30.5h-30.5v-4v-4h34.5h34.5v20v20h-34.5h-34.5V537.434z M393.071,537.434v-4.5h-26.5h-26.5v3.833
			c0,2.108,0.3,4.133,0.667,4.5l0.667,0.666h25.833h25.833V537.434z M406.071,528.934v-20h4h4v20v20h-4h-4V528.934z
			 M419.071,528.934v-20h34.5h34.5v4v4h-30.5h-30.5v16v16h-4h-4V528.934z M159.786,504.314c-0.394-0.393-0.715-2.214-0.715-4.047
			v-3.333h4.561h4.561l-0.311,3.75l-0.311,3.75l-3.535,0.298l-3.536,0.297L159.786,504.314L159.786,504.314z M406.071,500.934v-4h4
			h4v4v4h-4h-4V500.934z"/>
		<path id="path3065" inkscape:connector-curvature="0" fill="#5692B6" d="M85.071,578.533v-1.401l4.452-5.349l4.451-5.35
			l-3.951-0.308l-3.952-0.308v-1.942v-1.942h7h7v1.648v1.648l-4.619,5.602l-4.619,5.602l4.619,0.305l4.619,0.305v1.445v1.445h-7.5
			h-7.5V578.533z M104.065,575.442l3.09-4.491l-2.542-3.74c-1.397-2.059-2.542-4.087-2.542-4.51v-0.768h1.975h1.975l1.629,3.15
			l1.629,3.15l1.995-3.15l1.994-3.15h2.018h2.017l-1.463,2.25c-0.804,1.237-2.065,3.225-2.803,4.416l-1.341,2.166l2.688,4.063
			c3.215,4.857,3.249,5.105,0.712,5.105h-1.978l-1.638-2.5c-0.901-1.375-1.96-2.5-2.354-2.5c-0.394,0-1.317,1.125-2.054,2.5
			l-1.338,2.5h-2.379h-2.379L104.065,575.442L104.065,575.442z M128.294,578.377l-2.223-1.557v-1.904v-1.903l1.407-1.29l1.406-1.289
			l-1.497-1.678l-1.496-1.679l0.635-2.003l0.636-2.002l3.033-0.666l3.032-0.666l3.366,0.631l3.365,0.632l0.646,2.037l0.646,2.036
			l-1.497,1.68l-1.496,1.678l1.406,1.289l1.406,1.289v1.904v1.904l-2.223,1.557l-2.222,1.557h-3.056h-3.055L128.294,578.377
			L128.294,578.377z M136.571,574.434v-2l-2.365-0.334l-2.365-0.336l-1.018,1.018l-1.018,1.018l0.627,1.635l0.628,1.634l2.755-0.317
			l2.756-0.316V574.434L136.571,574.434z M136.571,566.934v-1.5l-2.365-0.334l-2.365-0.336l-0.997,0.998l-0.998,0.998l0.707,1.145
			l0.708,1.145l2.655-0.308l2.655-0.308V566.934L136.571,566.934z M145.071,578.434v-1.5h2h2v-6.067v-6.067l-2,0.635l-2,0.635
			v-1.461v-1.46l1.582-0.606c0.87-0.334,2.67-0.607,4-0.607h2.418v7.5v7.5h2h2v1.5v1.5h-6h-6V578.434z M485.571,528.934l29.988-30
			h17h17l-29.987,30l-29.988,30h-17h-17L485.571,528.934L485.571,528.934z M553.571,528.934l29.988-30h33.756h33.756v0.756
			c0,0.416-13.165,13.916-29.256,30l-29.256,29.244h-34.488h-34.487L553.571,528.934z M86.071,545.434v-3.5h30h30v-4.5v-4.5h-29.864
			H86.344l-0.637-4.64c-0.35-2.552-0.636-7.952-0.636-12v-7.36h34.5h34.5v4v4h-30.606H92.857l0.607,1.582
			c0.333,0.87,0.606,2.67,0.606,4v2.418h30h30v12v12h-34h-34V545.434z M159.071,528.934v-20h4.5h4.5v20v20h-4.5h-4.5V528.934z
			 M172.071,528.934v-20h34.5h34.5v20v20h-4h-4v-16v-16h-26.5h-26.5v16v16h-4h-4V528.934z M245.071,528.934v-20h34.5h34.5v4v4h-30
			h-30v12.5v12.5h30h30v3.5v3.5h-34.5h-34.5V528.934z M320.071,522.934v-26h4h4v26v26h-4h-4V522.934z M332.071,537.434v-11.5h30.5
			h30.5v-4.5v-4.5h-30.5h-30.5v-4v-4h34.5h34.5v20v20h-34.5h-34.5V537.434z M393.071,537.434v-4.5h-26.5h-26.5v3.833
			c0,2.108,0.3,4.133,0.667,4.5l0.667,0.666h25.833h25.833V537.434z M406.071,528.934v-20h4h4v20v20h-4h-4V528.934z
			 M419.071,528.934v-20h34.5h34.5v4v4h-30.5h-30.5v16v16h-4h-4V528.934z M159.786,504.314c-0.394-0.393-0.715-2.214-0.715-4.047
			v-3.333h4.561h4.561l-0.311,3.75l-0.311,3.75l-3.535,0.298l-3.536,0.297L159.786,504.314L159.786,504.314z M406.071,500.934v-4h4
			h4v4v4h-4h-4V500.934z"/>
		<path id="path3063" inkscape:connector-curvature="0" fill="#D96146" d="M85.071,578.533v-1.401l4.452-5.349l4.451-5.35
			l-3.951-0.308l-3.952-0.308v-1.942v-1.942h7h7v1.648v1.648l-4.619,5.602l-4.619,5.602l4.619,0.305l4.619,0.305v1.445v1.445h-7.5
			h-7.5V578.533z M104.065,575.442l3.09-4.491l-2.542-3.74c-1.397-2.059-2.542-4.087-2.542-4.51v-0.768h1.975h1.975l1.629,3.15
			l1.629,3.15l1.995-3.15l1.994-3.15h2.018h2.017l-1.463,2.25c-0.804,1.237-2.065,3.225-2.803,4.416l-1.341,2.166l2.688,4.063
			c3.215,4.857,3.249,5.105,0.712,5.105h-1.978l-1.638-2.5c-0.901-1.375-1.96-2.5-2.354-2.5c-0.394,0-1.317,1.125-2.054,2.5
			l-1.338,2.5h-2.379h-2.379L104.065,575.442L104.065,575.442z M128.294,578.377l-2.223-1.557v-1.904v-1.903l1.407-1.29l1.406-1.289
			l-1.497-1.678l-1.496-1.679l0.635-2.003l0.636-2.002l3.033-0.666l3.032-0.666l3.366,0.631l3.365,0.632l0.646,2.037l0.646,2.036
			l-1.497,1.68l-1.496,1.678l1.406,1.289l1.406,1.289v1.904v1.904l-2.223,1.557l-2.222,1.557h-3.056h-3.055L128.294,578.377
			L128.294,578.377z M136.571,574.434v-2l-2.365-0.334l-2.365-0.336l-1.018,1.018l-1.018,1.018l0.627,1.635l0.628,1.634l2.755-0.317
			l2.756-0.316V574.434L136.571,574.434z M136.571,566.934v-1.5l-2.365-0.334l-2.365-0.336l-0.997,0.998l-0.998,0.998l0.707,1.145
			l0.708,1.145l2.655-0.308l2.655-0.308V566.934L136.571,566.934z M145.071,578.434v-1.5h2h2v-6.067v-6.067l-2,0.635l-2,0.635
			v-1.461v-1.46l1.582-0.606c0.87-0.334,2.67-0.607,4-0.607h2.418v7.5v7.5h2h2v1.5v1.5h-6h-6V578.434z M485.571,528.934l29.988-30
			h17h17l-29.987,30l-29.988,30h-17h-17L485.571,528.934L485.571,528.934z M553.571,528.934l29.988-30h17h17l-29.988,30l-29.987,30
			h-17h-17L553.571,528.934z M588.571,528.934l29.988-30h16.5h16.5l-29.988,30l-29.987,30h-16.5h-16.5L588.571,528.934z
			 M86.071,545.434v-3.5h30h30v-4.5v-4.5h-29.864H86.344l-0.637-4.64c-0.35-2.552-0.636-7.952-0.636-12v-7.36h34.5h34.5v4v4h-30.606
			H92.857l0.607,1.582c0.333,0.87,0.606,2.67,0.606,4v2.418h30h30v12v12h-34h-34V545.434z M159.071,528.934v-20h4.5h4.5v20v20h-4.5
			h-4.5V528.934z M172.071,528.934v-20h34.5h34.5v20v20h-4h-4v-16v-16h-26.5h-26.5v16v16h-4h-4V528.934z M245.071,528.934v-20h34.5
			h34.5v4v4h-30h-30v12.5v12.5h30h30v3.5v3.5h-34.5h-34.5V528.934z M320.071,522.934v-26h4h4v26v26h-4h-4V522.934z M332.071,537.434
			v-11.5h30.5h30.5v-4.5v-4.5h-30.5h-30.5v-4v-4h34.5h34.5v20v20h-34.5h-34.5V537.434z M393.071,537.434v-4.5h-26.5h-26.5v3.833
			c0,2.108,0.3,4.133,0.667,4.5l0.667,0.666h25.833h25.833V537.434z M406.071,528.934v-20h4h4v20v20h-4h-4V528.934z
			 M419.071,528.934v-20h34.5h34.5v4v4h-30.5h-30.5v16v16h-4h-4V528.934z M159.786,504.314c-0.394-0.393-0.715-2.214-0.715-4.047
			v-3.333h4.561h4.561l-0.311,3.75l-0.311,3.75l-3.535,0.298l-3.536,0.297L159.786,504.314L159.786,504.314z M406.071,500.934v-4h4
			h4v4v4h-4h-4V500.934z"/>
		<path id="path3061" inkscape:connector-curvature="0" fill="#2BAA53" d="M85.071,578.533v-1.401l4.452-5.349l4.451-5.35
			l-3.951-0.308l-3.952-0.308v-1.942v-1.942h7h7v1.648v1.648l-4.619,5.602l-4.619,5.602l4.619,0.305l4.619,0.305v1.445v1.445h-7.5
			h-7.5V578.533z M104.065,575.442l3.09-4.491l-2.542-3.74c-1.397-2.059-2.542-4.087-2.542-4.51v-0.768h1.975h1.975l1.629,3.15
			l1.629,3.15l1.995-3.15l1.994-3.15h2.018h2.017l-1.463,2.25c-0.804,1.237-2.065,3.225-2.803,4.416l-1.341,2.166l2.688,4.063
			c3.215,4.857,3.249,5.105,0.712,5.105h-1.978l-1.638-2.5c-0.901-1.375-1.96-2.5-2.354-2.5c-0.394,0-1.317,1.125-2.054,2.5
			l-1.338,2.5h-2.379h-2.379L104.065,575.442L104.065,575.442z M128.294,578.377l-2.223-1.557v-1.904v-1.903l1.407-1.29l1.406-1.289
			l-1.497-1.678l-1.496-1.679l0.635-2.003l0.636-2.002l3.033-0.666l3.032-0.666l3.366,0.631l3.365,0.632l0.646,2.037l0.646,2.036
			l-1.497,1.68l-1.496,1.678l1.406,1.289l1.406,1.289v1.904v1.904l-2.223,1.557l-2.222,1.557h-3.056h-3.055L128.294,578.377
			L128.294,578.377z M136.571,574.434v-2l-2.365-0.334l-2.365-0.336l-1.018,1.018l-1.018,1.018l0.627,1.635l0.628,1.634l2.755-0.317
			l2.756-0.316V574.434L136.571,574.434z M136.571,566.934v-1.5l-2.365-0.334l-2.365-0.336l-0.997,0.998l-0.998,0.998l0.707,1.145
			l0.708,1.145l2.655-0.308l2.655-0.308V566.934L136.571,566.934z M145.071,578.434v-1.5h2h2v-6.067v-6.067l-2,0.635l-2,0.635
			v-1.461v-1.46l1.582-0.606c0.87-0.334,2.67-0.607,4-0.607h2.418v7.5v7.5h2h2v1.5v1.5h-6h-6V578.434z M485.071,529.434l29.487-29.5
			h16.5h16.5l-29.487,29.5l-29.487,29.5h-16.5h-16.5L485.071,529.434L485.071,529.434z M553.571,528.934l29.988-30h17h17l-29.988,30
			l-29.987,30h-17h-17L553.571,528.934z M588.571,528.934l29.988-30h16.5h16.5l-29.988,30l-29.987,30h-16.5h-16.5L588.571,528.934z
			 M86.071,545.434v-3.5h30h30v-4.5v-4.5h-29.864H86.344l-0.637-4.64c-0.35-2.552-0.636-7.952-0.636-12v-7.36h34.5h34.5v4v4h-30.606
			H92.857l0.607,1.582c0.333,0.87,0.606,2.67,0.606,4v2.418h30h30v12v12h-34h-34V545.434z M159.071,528.934v-20h4.5h4.5v20v20h-4.5
			h-4.5V528.934z M172.071,528.934v-20h34.5h34.5v20v20h-4h-4v-16v-16h-26.5h-26.5v16v16h-4h-4V528.934z M245.071,528.934v-20h34.5
			h34.5v4v4h-30h-30v12.5v12.5h30h30v3.5v3.5h-34.5h-34.5V528.934z M320.071,522.934v-26h4h4v26v26h-4h-4V522.934z M332.071,537.434
			v-11.5h30.5h30.5v-4.5v-4.5h-30.5h-30.5v-4v-4h34.5h34.5v20v20h-34.5h-34.5V537.434z M393.071,537.434v-4.5h-26.5h-26.5v3.833
			c0,2.108,0.3,4.133,0.667,4.5l0.667,0.666h25.833h25.833V537.434z M406.071,528.934v-20h4h4v20v20h-4h-4V528.934z
			 M419.071,528.934v-20h34.5h34.5v4v4h-30.5h-30.5v16v16h-4h-4V528.934z M159.786,504.314c-0.394-0.393-0.715-2.214-0.715-4.047
			v-3.333h4.561h4.561l-0.311,3.75l-0.311,3.75l-3.535,0.298l-3.536,0.297L159.786,504.314L159.786,504.314z M406.071,500.934v-4h4
			h4v4v4h-4h-4V500.934z"/>
		<path id="path3059" inkscape:connector-curvature="0" fill="#C92724" d="M85.071,578.533v-1.401l4.452-5.349l4.451-5.35
			l-3.951-0.308l-3.952-0.308v-1.942v-1.942h7h7v1.648v1.648l-4.619,5.602l-4.619,5.602l4.619,0.305l4.619,0.305v1.445v1.445h-7.5
			h-7.5V578.533z M104.065,575.442l3.09-4.491l-2.542-3.74c-1.397-2.059-2.542-4.087-2.542-4.51v-0.768h1.975h1.975l1.629,3.15
			l1.629,3.15l1.995-3.15l1.994-3.15h2.018h2.017l-1.463,2.25c-0.804,1.237-2.065,3.225-2.803,4.416l-1.341,2.166l2.688,4.063
			c3.215,4.857,3.249,5.105,0.712,5.105h-1.978l-1.638-2.5c-0.901-1.375-1.96-2.5-2.354-2.5c-0.394,0-1.317,1.125-2.054,2.5
			l-1.338,2.5h-2.379h-2.379L104.065,575.442L104.065,575.442z M128.294,578.377l-2.223-1.557v-1.904v-1.903l1.407-1.29l1.406-1.289
			l-1.497-1.678l-1.496-1.679l0.635-2.003l0.636-2.002l3.033-0.666l3.032-0.666l3.366,0.631l3.365,0.632l0.646,2.037l0.646,2.036
			l-1.497,1.68l-1.496,1.678l1.406,1.289l1.406,1.289v1.904v1.904l-2.223,1.557l-2.222,1.557h-3.056h-3.055L128.294,578.377
			L128.294,578.377z M136.571,574.434v-2l-2.365-0.334l-2.365-0.336l-1.018,1.018l-1.018,1.018l0.627,1.635l0.628,1.634l2.755-0.317
			l2.756-0.316V574.434L136.571,574.434z M136.571,566.934v-1.5l-2.365-0.334l-2.365-0.336l-0.997,0.998l-0.998,0.998l0.707,1.145
			l0.708,1.145l2.655-0.308l2.655-0.308V566.934L136.571,566.934z M145.071,578.434v-1.5h2h2v-6.067v-6.067l-2,0.635l-2,0.635
			v-1.461v-1.46l1.582-0.606c0.87-0.334,2.67-0.607,4-0.607h2.418v7.5v7.5h2h2v1.5v1.5h-6h-6V578.434z M485.071,529.434l29.487-29.5
			h16.5h16.5l-29.487,29.5l-29.487,29.5h-16.5h-16.5L485.071,529.434L485.071,529.434z M554.071,529.434l29.487-29.5h16.5h16.5
			l-29.487,29.5l-29.487,29.5h-16.5h-16.5L554.071,529.434z M588.571,528.934l29.988-30h16.5h16.5l-29.988,30l-29.987,30h-16.5
			h-16.5L588.571,528.934z M86.071,545.434v-3.5h30h30v-4.5v-4.5h-29.864H86.344l-0.637-4.64c-0.35-2.552-0.636-7.952-0.636-12
			v-7.36h34.5h34.5v4v4h-30.606H92.857l0.607,1.582c0.333,0.87,0.606,2.67,0.606,4v2.418h30h30v12v12h-34h-34V545.434z
			 M159.071,528.934v-20h4.5h4.5v20v20h-4.5h-4.5V528.934z M172.071,528.934v-20h34.5h34.5v20v20h-4h-4v-16v-16h-26.5h-26.5v16v16
			h-4h-4V528.934z M245.071,528.934v-20h34.5h34.5v4v4h-30h-30v12.5v12.5h30h30v3.5v3.5h-34.5h-34.5V528.934z M320.071,522.934v-26
			h4h4v26v26h-4h-4V522.934z M332.071,537.434v-11.5h30.5h30.5v-4.5v-4.5h-30.5h-30.5v-4v-4h34.5h34.5v20v20h-34.5h-34.5V537.434z
			 M393.071,537.434v-4.5h-26.5h-26.5v3.833c0,2.108,0.3,4.133,0.667,4.5l0.667,0.666h25.833h25.833V537.434z M406.071,528.934v-20
			h4h4v20v20h-4h-4V528.934z M419.071,528.934v-20h34.5h34.5v4v4h-30.5h-30.5v16v16h-4h-4V528.934z M159.786,504.314
			c-0.394-0.393-0.715-2.214-0.715-4.047v-3.333h4.561h4.561l-0.311,3.75l-0.311,3.75l-3.535,0.298l-3.536,0.297L159.786,504.314
			L159.786,504.314z M406.071,500.934v-4h4h4v4v4h-4h-4V500.934z"/>
		<path id="path3057" inkscape:connector-curvature="0" fill="#595959" d="M85.071,578.533v-1.401l4.452-5.349l4.451-5.35
			l-3.951-0.308l-3.952-0.308v-1.942v-1.942h7h7v1.648v1.648l-4.619,5.602l-4.619,5.602l4.619,0.305l4.619,0.305v1.445v1.445h-7.5
			h-7.5V578.533z M104.065,575.442l3.09-4.491l-2.542-3.74c-1.397-2.059-2.542-4.087-2.542-4.51v-0.768h1.975h1.975l1.629,3.15
			l1.629,3.15l1.995-3.15l1.994-3.15h2.018h2.017l-1.463,2.25c-0.804,1.237-2.065,3.225-2.803,4.416l-1.341,2.166l2.688,4.063
			c3.215,4.857,3.249,5.105,0.712,5.105h-1.978l-1.638-2.5c-0.901-1.375-1.96-2.5-2.354-2.5c-0.394,0-1.317,1.125-2.054,2.5
			l-1.338,2.5h-2.379h-2.379L104.065,575.442L104.065,575.442z M128.294,578.377l-2.223-1.557v-1.904v-1.903l1.407-1.29l1.406-1.289
			l-1.497-1.678l-1.496-1.679l0.635-2.003l0.636-2.002l3.033-0.666l3.032-0.666l3.366,0.631l3.365,0.632l0.646,2.037l0.646,2.036
			l-1.497,1.68l-1.496,1.678l1.406,1.289l1.406,1.289v1.904v1.904l-2.223,1.557l-2.222,1.557h-3.056h-3.055L128.294,578.377
			L128.294,578.377z M136.571,574.434v-2l-2.365-0.334l-2.365-0.336l-1.018,1.018l-1.018,1.018l0.627,1.635l0.628,1.634l2.755-0.317
			l2.756-0.316V574.434L136.571,574.434z M136.571,566.934v-1.5l-2.365-0.334l-2.365-0.336l-0.997,0.998l-0.998,0.998l0.707,1.145
			l0.708,1.145l2.655-0.308l2.655-0.308V566.934L136.571,566.934z M145.071,578.434v-1.5h2h2v-6.067v-6.067l-2,0.635l-2,0.635
			v-1.461v-1.46l1.582-0.606c0.87-0.334,2.67-0.607,4-0.607h2.418v7.5v7.5h2h2v1.5v1.5h-6h-6V578.434z M554.071,529.434l29.487-29.5
			h16.5h16.5l-29.487,29.5l-29.487,29.5h-16.5h-16.5L554.071,529.434z M588.571,528.934l29.988-30h16.5h16.5l-29.988,30l-29.987,30
			h-16.5h-16.5L588.571,528.934z M86.071,545.434v-3.5h30h30v-4.5v-4.5h-29.864H86.344l-0.637-4.64
			c-0.35-2.552-0.636-7.952-0.636-12v-7.36h34.5h34.5v4v4h-30.606H92.857l0.607,1.582c0.333,0.87,0.606,2.67,0.606,4v2.418h30h30v12
			v12h-34h-34V545.434z M159.071,528.934v-20h4.5h4.5v20v20h-4.5h-4.5V528.934z M172.071,528.934v-20h34.5h34.5v20v20h-4h-4v-16v-16
			h-26.5h-26.5v16v16h-4h-4V528.934z M245.071,528.934v-20h34.5h34.5v4v4h-30h-30v12.5v12.5h30h30v3.5v3.5h-34.5h-34.5V528.934z
			 M320.071,522.934v-26h4h4v26v26h-4h-4V522.934z M332.071,537.434v-11.5h30.5h30.5v-4.5v-4.5h-30.5h-30.5v-4v-4h34.5h34.5v20v20
			h-34.5h-34.5V537.434z M393.071,537.434v-4.5h-26.5h-26.5v3.833c0,2.108,0.3,4.133,0.667,4.5l0.667,0.666h25.833h25.833V537.434z
			 M406.071,528.934v-20h4h4v20v20h-4h-4V528.934z M419.071,528.934v-20h34.5h34.5v4v4h-30.5h-30.5v16v16h-4h-4V528.934z
			 M159.786,504.314c-0.394-0.393-0.715-2.214-0.715-4.047v-3.333h4.561h4.561l-0.311,3.75l-0.311,3.75l-3.535,0.298l-3.536,0.297
			L159.786,504.314L159.786,504.314z M406.071,500.934v-4h4h4v4v4h-4h-4V500.934z"/>
		<path id="path3055" inkscape:connector-curvature="0" fill="#01549B" d="M85.071,578.785c0-0.633,2.025-3.609,4.5-6.615
			c2.476-3.006,4.5-5.864,4.5-6.352v-0.885h-4h-4v-1.5v-1.5h6.531h6.532l0.572,1.494l0.573,1.493l-5.203,6.007l-5.203,6.006h5.099
			h5.099v1.5v1.5h-7.5h-7.5V578.785z M104.115,575.371l3.139-4.563l-2.591-3.916c-3.007-4.543-3.101-4.959-1.121-4.959h1.47
			l2.224,3.008l2.224,3.008l1.904-3.008l1.904-3.008h1.402h1.401l-0.022,1.25c-0.012,0.688-0.901,2.375-1.978,3.75
			c-2.445,3.127-2.475,4.506-0.164,7.846c1.01,1.46,2.162,3.217,2.56,3.904l0.723,1.25h-1.961h-1.961l-1.961-3.098l-1.961-3.097
			l-2.205,3.097l-2.205,3.098h-1.98h-1.979L104.115,575.371L104.115,575.371z M129.409,578.936l-2.162-0.873l-0.678-2.136
			l-0.678-2.137l1.615-1.784l1.615-1.785l-1.525-1.266c-0.839-0.697-1.525-1.861-1.525-2.588v-1.32l2.223-1.557l2.223-1.557h3.055
			h3.056l2.222,1.557l2.223,1.557v1.32c0,0.727-0.687,1.891-1.525,2.588l-1.524,1.266l1.615,1.785l1.615,1.784l-0.676,2.13
			l-0.676,2.129l-2.479,0.941C134.451,580.12,132.311,580.105,129.409,578.936z M136.571,574.434v-2l-2.365-0.334l-2.365-0.336
			l-1.018,1.018l-1.018,1.018l0.627,1.635l0.628,1.634l2.755-0.317l2.756-0.316V574.434L136.571,574.434z M136.571,566.934v-1.5
			l-2.365-0.334l-2.365-0.336l-0.997,0.998l-0.998,0.998l0.707,1.145l0.708,1.145l2.655-0.308l2.655-0.308V566.934L136.571,566.934z
			 M145.071,578.434v-1.5h2h2v-6.117V564.7l-2,0.523l-2,0.522v-1.289v-1.29l2.25-0.603c1.237-0.332,3.038-0.609,4-0.617l1.75-0.014
			v7.5v7.5h2h2v1.5v1.5h-6h-6V578.434L145.071,578.434z M554.072,529.434l29.486-29.5h16.5h16.5l-29.486,29.5l-29.488,29.5h-16.5
			h-16.5L554.072,529.434z M588.572,528.934l29.987-30h16.5h16.5l-29.987,30l-29.988,30h-16.5h-16.5L588.572,528.934z
			 M86.071,545.434v-3.5h30h30v-4.5v-4.5h-30h-30l-0.011-8.25c-0.006-4.538-0.29-9.938-0.631-12l-0.62-3.75h34.631h34.631v3.485
			v3.485l-30.236,0.265l-30.236,0.265l-0.353,1.829c-0.193,1.006-0.078,2.918,0.256,4.25l0.607,2.421h29.981h29.98v12v12h-34h-34
			V545.434z M160.071,528.934v-20h3.5h3.5v20v20h-3.5h-3.5V528.934z M172.071,528.934v-20h34.5h34.5v20v20h-4h-4v-16v-16h-26.5
			h-26.5v16v16h-4h-4V528.934z M245.301,529.184l0.271-19.75l34.25-0.263l34.25-0.263v4.013v4.013h-30.5h-30.5v12.5v12.5h30.5h30.5
			v3.5v3.5h-34.521h-34.521L245.301,529.184L245.301,529.184z M320.071,522.934v-26h4h4v26v26h-4h-4V522.934z M332.071,537.434
			v-11.5h30.5h30.501v-4.485v-4.485l-30.251-0.265l-30.25-0.265v-3.5v-3.5l34.25-0.263l34.251-0.263v20.013v20.013h-34.501h-34.5
			V537.434z M393.072,537.434v-4.5h-26.501h-26.5v4.5v4.5h26.5h26.501V537.434z M406.072,528.934v-20h4h4v20v20h-4h-4V528.934z
			 M419.301,529.184l0.271-19.75l34.25-0.263l34.25-0.263v4.013v4.013h-30.5h-30.5v16v16h-4.021h-4.021L419.301,529.184z
			 M160.071,500.934v-4h3.5h3.5v4v4h-3.5h-3.5V500.934z M406.072,500.934v-4h4h4v4v4h-4h-4V500.934z"/>
		<path id="path3053" inkscape:connector-curvature="0" fill="#009B36" d="M85.071,578.785c0-0.633,2.025-3.609,4.5-6.615
			c2.476-3.006,4.5-5.864,4.5-6.352v-0.885h-4h-4v-1.5v-1.5h6.531h6.532l0.572,1.494l0.573,1.493l-5.203,6.007l-5.203,6.006h5.099
			h5.099v1.5v1.5h-7.5h-7.5V578.785z M104.115,575.371l3.139-4.563l-2.591-3.916c-3.007-4.543-3.101-4.959-1.121-4.959h1.47
			l2.224,3.008l2.224,3.008l1.904-3.008l1.904-3.008h1.402h1.401l-0.022,1.25c-0.012,0.688-0.901,2.375-1.978,3.75
			c-2.445,3.127-2.475,4.506-0.164,7.846c1.01,1.46,2.162,3.217,2.56,3.904l0.723,1.25h-1.961h-1.961l-1.961-3.098l-1.961-3.097
			l-2.205,3.097l-2.205,3.098h-1.98h-1.979L104.115,575.371L104.115,575.371z M129.409,578.936l-2.162-0.873l-0.678-2.136
			l-0.678-2.137l1.615-1.784l1.615-1.785l-1.525-1.266c-0.839-0.697-1.525-1.861-1.525-2.588v-1.32l2.223-1.557l2.223-1.557h3.055
			h3.056l2.222,1.557l2.223,1.557v1.32c0,0.727-0.687,1.891-1.525,2.588l-1.524,1.266l1.615,1.785l1.615,1.784l-0.676,2.13
			l-0.676,2.129l-2.479,0.941C134.451,580.12,132.311,580.105,129.409,578.936z M136.571,574.434v-2l-2.365-0.334l-2.365-0.336
			l-1.018,1.018l-1.018,1.018l0.627,1.635l0.628,1.634l2.755-0.317l2.756-0.316V574.434L136.571,574.434z M136.571,566.934v-1.5
			l-2.365-0.334l-2.365-0.336l-0.997,0.998l-0.998,0.998l0.707,1.145l0.708,1.145l2.655-0.308l2.655-0.308V566.934L136.571,566.934z
			 M145.071,578.434v-1.5h2h2v-6.117V564.7l-2,0.523l-2,0.522v-1.289v-1.29l2.25-0.603c1.237-0.332,3.038-0.609,4-0.617l1.75-0.014
			v7.5v7.5h2h2v1.5v1.5h-6h-6V578.434L145.071,578.434z M554.072,529.434l29.486-29.5h16.5h16.5l-29.486,29.5l-29.488,29.5h-16.5
			h-16.5L554.072,529.434z M86.071,545.434v-3.5h30h30v-4.5v-4.5h-30h-30l-0.011-8.25c-0.006-4.538-0.29-9.938-0.631-12l-0.62-3.75
			h34.631h34.631v3.485v3.485l-30.236,0.265l-30.236,0.265l-0.353,1.829c-0.193,1.006-0.078,2.918,0.256,4.25l0.607,2.421h29.981
			h29.98v12v12h-34h-34V545.434z M160.071,528.934v-20h3.5h3.5v20v20h-3.5h-3.5V528.934z M172.071,528.934v-20h34.5h34.5v20v20h-4
			h-4v-16v-16h-26.5h-26.5v16v16h-4h-4V528.934z M245.301,529.184l0.271-19.75l34.25-0.263l34.25-0.263v4.013v4.013h-30.5h-30.5
			v12.5v12.5h30.5h30.5v3.5v3.5h-34.521h-34.521L245.301,529.184L245.301,529.184z M320.071,522.934v-26h4h4v26v26h-4h-4V522.934z
			 M332.071,537.434v-11.5h30.5h30.501v-4.485v-4.485l-30.251-0.265l-30.25-0.265v-3.5v-3.5l34.25-0.263l34.251-0.263v20.013v20.013
			h-34.501h-34.5V537.434z M393.072,537.434v-4.5h-26.501h-26.5v4.5v4.5h26.5h26.501V537.434z M406.072,528.934v-20h4h4v20v20h-4h-4
			V528.934z M419.301,529.184l0.271-19.75l34.25-0.263l34.25-0.263v4.013v4.013h-30.5h-30.5v16v16h-4.021h-4.021L419.301,529.184z
			 M160.071,500.934v-4h3.5h3.5v4v4h-3.5h-3.5V500.934z M406.072,500.934v-4h4h4v4v4h-4h-4V500.934z"/>
		<path id="path3051" inkscape:connector-curvature="0" fill="#2F2F2F" d="M85.071,578.785c0-0.633,2.025-3.609,4.5-6.615
			c2.476-3.006,4.5-5.864,4.5-6.352v-0.885h-4h-4v-1.5v-1.5h6.531h6.532l0.572,1.494l0.573,1.493l-5.203,6.007l-5.203,6.006h5.099
			h5.099v1.5v1.5h-7.5h-7.5V578.785z M104.115,575.371l3.139-4.563l-2.591-3.916c-3.007-4.543-3.101-4.959-1.121-4.959h1.47
			l2.224,3.008l2.224,3.008l1.904-3.008l1.904-3.008h1.402h1.401l-0.022,1.25c-0.012,0.688-0.901,2.375-1.978,3.75
			c-2.445,3.127-2.475,4.506-0.164,7.846c1.01,1.46,2.162,3.217,2.56,3.904l0.723,1.25h-1.961h-1.961l-1.961-3.098l-1.961-3.097
			l-2.205,3.097l-2.205,3.098h-1.98h-1.979L104.115,575.371L104.115,575.371z M129.409,578.936l-2.162-0.873l-0.678-2.136
			l-0.678-2.137l1.615-1.784l1.615-1.785l-1.525-1.266c-0.839-0.697-1.525-1.861-1.525-2.588v-1.32l2.223-1.557l2.223-1.557h3.055
			h3.056l2.222,1.557l2.223,1.557v1.32c0,0.727-0.687,1.891-1.525,2.588l-1.524,1.266l1.615,1.785l1.615,1.784l-0.676,2.13
			l-0.676,2.129l-2.479,0.941C134.451,580.12,132.311,580.105,129.409,578.936z M136.571,574.434v-2l-2.365-0.334l-2.365-0.336
			l-1.018,1.018l-1.018,1.018l0.627,1.635l0.628,1.634l2.755-0.317l2.756-0.316V574.434L136.571,574.434z M136.571,566.934v-1.5
			l-2.365-0.334l-2.365-0.336l-0.997,0.998l-0.998,0.998l0.707,1.145l0.708,1.145l2.655-0.308l2.655-0.308V566.934L136.571,566.934z
			 M145.071,578.434v-1.5h2h2v-6.117V564.7l-2,0.523l-2,0.522v-1.289v-1.29l2.25-0.603c1.237-0.332,3.038-0.609,4-0.617l1.75-0.014
			v7.5v7.5h2h2v1.5v1.5h-6h-6V578.434L145.071,578.434z M86.071,545.434v-3.5h30h30v-4.5v-4.5h-30h-30l-0.011-8.25
			c-0.006-4.538-0.29-9.938-0.631-12l-0.62-3.75h34.631h34.631v3.485v3.485l-30.236,0.265l-30.236,0.265l-0.353,1.829
			c-0.193,1.006-0.078,2.918,0.256,4.25l0.607,2.421h29.981h29.98v12v12h-34h-34V545.434L86.071,545.434z M160.071,528.934v-20h3.5
			h3.5v20v20h-3.5h-3.5V528.934z M172.071,528.934v-20h34.5h34.5v20v20h-4h-4v-16v-16h-26.5h-26.5v16v16h-4h-4V528.934z
			 M245.301,529.184l0.271-19.75l34.25-0.263l34.25-0.263v4.013v4.013h-30.5h-30.5v12.5v12.5h30.5h30.5v3.5v3.5h-34.521h-34.521
			L245.301,529.184L245.301,529.184z M320.071,522.934v-26h4h4v26v26h-4h-4V522.934z M332.071,537.434v-11.5h30.5h30.501v-4.485
			v-4.485l-30.251-0.265l-30.25-0.265v-3.5v-3.5l34.25-0.263l34.251-0.263v20.013v20.013h-34.501h-34.5V537.434z M393.072,537.434
			v-4.5h-26.501h-26.5v4.5v4.5h26.5h26.501V537.434z M406.072,528.934v-20h4h4v20v20h-4h-4V528.934z M419.301,529.184l0.271-19.75
			l34.25-0.263l34.25-0.263v4.013v4.013h-30.5h-30.5v16v16h-4.021h-4.021L419.301,529.184z M160.071,500.934v-4h3.5h3.5v4v4h-3.5
			h-3.5V500.934z M406.072,500.934v-4h4h4v4v4h-4h-4V500.934z"/>
		<path id="path3049" inkscape:connector-curvature="0" fill="#4C4C4C" d="M85.071,578.83c0-0.607,2.314-3.869,5.144-7.25
			l5.145-6.146l-4.645-0.305l-4.644-0.305v-0.945v-0.945h7h7v0.912c0,0.502-2.289,3.652-5.086,7l-5.087,6.088h5.087h5.086v1.5v1.5
			h-7.5h-7.5V578.83z M102.071,579.381c0-0.305,1.125-2.209,2.5-4.232c3.09-4.546,3.088-4.756-0.051-8.871l-2.551-3.344h1.936h1.937
			l1.724,2.631l1.723,2.63l2.212-2.773l2.212-2.774l1.189,0.396l1.189,0.397l-2.552,3.755l-2.552,3.756l3.09,4.491l3.091,4.491
			h-2.022h-2.022l-1.552-3c-0.854-1.65-1.893-3-2.31-3c-0.418,0-1.557,1.35-2.531,3l-1.772,3h-1.443
			C102.721,579.934,102.071,579.685,102.071,579.381L102.071,579.381z M130.319,579.248l-2.252-0.454l-1.069-1.997l-1.068-1.997
			l1.437-2.192l1.437-2.193l-1.363-2.053l-1.362-2.053l1.355-1.854l1.355-1.854h4.783h4.783l1.356,1.854l1.355,1.854l-1.363,2.053
			l-1.362,2.053l1.437,2.193l1.437,2.192l-1.106,2.067l-1.106,2.066l-1.215,0.014c-0.668,0.008-2.114,0.181-3.215,0.385
			C133.472,579.535,131.558,579.498,130.319,579.248L130.319,579.248z M136.571,574.434v-2l-2.365-0.334l-2.365-0.336l-1.018,1.018
			l-1.018,1.018l0.627,1.635l0.628,1.634l2.755-0.317l2.756-0.316V574.434L136.571,574.434z M137.071,566.934v-2h-3.5h-3.5v2v2h3.5
			h3.5V566.934z M145.071,578.434v-1.5h2h2v-6v-6h-2h-2v-0.875v-0.875l3.125-0.625c1.719-0.344,3.519-0.625,4-0.625h0.875v7.5v7.5h2
			h2v1.5v1.5h-6h-6V578.434z M86.071,545.448v-3.485l30.25-0.265l30.25-0.265v-4.5v-4.5l-30.25-0.265l-30.25-0.265v-11.485v-11.485
			h34h34v3.5v3.5h-30.5h-30.5v4.5v4.5h30.5h30.5v12v12h-34h-34V545.448z M160.071,529.434v-19.5h3.5h3.5v19.5v19.5h-3.5h-3.5
			V529.434z M172.071,528.934v-20h34h34v20v20h-3.5h-3.5v-16.5v-16.5h-26.5h-26.5v16.5v16.5h-4h-4V528.934z M246.071,529.434v-19.5
			h34h34v2.985v2.985l-30.25,0.265l-30.25,0.265l-0.279,12.75l-0.28,12.75h30.53h30.529v3.5v3.5h-34h-34V529.434L246.071,529.434z
			 M320.071,522.934v-26h3.5h3.5v26v26h-3.5h-3.5V522.934z M333.071,537.434v-11.5h30h30.001v-5v-5h-30.001h-30v-3v-3h34h34.001
			v19.5v19.5h-34.001h-34V537.434z M393.072,536.934v-5h-26.501h-26.5v5v5h26.5h26.501V536.934z M406.072,529.434v-19.5h4h4v19.5
			v19.5h-4h-4V529.434z M420.072,529.434v-19.5h34h34v2.985v2.985l-30.25,0.265l-30.25,0.265l-0.275,16.25l-0.274,16.25h-3.476
			h-3.475V529.434z M160.071,500.434v-3.5h3.5h3.5v3.5v3.5h-3.5h-3.5V500.434z M406.072,500.434v-3.5h4h4v3.5v3.5h-4h-4V500.434z"/>
	</g>
</g>
</svg>
