<?xml version="1.0" encoding="utf-8"?>
<!-- Generator: Adobe Illustrator 16.0.3, SVG Export Plug-In . SVG Version: 6.00 Build 0)  -->
<!DOCTYPE svg PUBLIC "-//W3C//DTD SVG 1.1//EN" "http://www.w3.org/Graphics/SVG/1.1/DTD/svg11.dtd">
<svg version="1.1"
	 id="Ebene_1" xmlns:dc="http://purl.org/dc/elements/1.1/" xmlns:cc="http://creativecommons.org/ns#" xmlns:rdf="http://www.w3.org/1999/02/22-rdf-syntax-ns#" xmlns:svg="http://www.w3.org/2000/svg" xmlns:sodipodi="http://sodipodi.sourceforge.net/DTD/sodipodi-0.dtd" xmlns:inkscape="http://www.inkscape.org/namespaces/inkscape" sodipodi:docname="logo.svg" inkscape:version="0.48.4 r9939"
	 xmlns="http://www.w3.org/2000/svg" xmlns:xlink="http://www.w3.org/1999/xlink" x="0px" y="0px" width="403.078px"
	 height="83.357px" viewBox="0 0 403.078 83.357" enable-background="new 0 0 403.078 83.357" xml:space="preserve">
<sodipodi:namedview  fit-margin-left="0" fit-margin-top="0" inkscape:cy="84.884526" inkscape:cx="79.529522" inkscape:zoom="1.696271" showgrid="false" guidetolerance="10" gridtolerance="10" objecttolerance="10" bordercolor="#666666" pagecolor="#ffffff" borderopacity="1" id="namedview51" fit-margin-bottom="0" fit-margin-right="0" inkscape:current-layer="Ebene_1" inkscape:window-maximized="1" inkscape:window-y="24" inkscape:window-x="51" inkscape:window-height="1026" inkscape:window-width="1629" inkscape:pageshadow="2" inkscape:pageopacity="0">
	</sodipodi:namedview>
<g id="g3778">
	<path id="path3" inkscape:connector-curvature="0" fill="#4C4C4C" d="M0.566,52.343v-7.735h60.564v-8.826H0.566l-0.381-23.82h68.81
		v7.714H8.429l0.381,8.394h60.563v24.276H0.566V52.343z"/>
	<path id="path5" inkscape:connector-curvature="0" fill="#4C4C4C" d="M74.357,52.343v-40.23h8.244v40.23H74.357L74.357,52.343z"/>
	<path id="path7" inkscape:connector-curvature="0" fill="#4C4C4C" d="M87.026,52.343v-40.23h68.81v40.23h-8.244V19.826H95.269
		v32.52L87.026,52.343L87.026,52.343L87.026,52.343z"/>
	<path id="path9" inkscape:connector-curvature="0" fill="#4C4C4C" d="M160.237,52.343v-40.23h68.86v7.715h-60.564v24.781h60.564
		v7.739h-68.86V52.343z"/>
	<path id="path11" inkscape:connector-curvature="0" fill="#4C4C4C" d="M234.583,52.343V0h8.246v52.345h-8.246V52.343z"/>
	<path id="path13" inkscape:connector-curvature="0" fill="#4C4C4C" d="M320.994,52.343v-40.23h8.295v40.23H320.994L320.994,52.343z
		"/>
	<path id="path15" inkscape:connector-curvature="0" fill="#4C4C4C" d="M334.271,52.343v-40.23h68.807v7.715h-60.563v32.521h-8.244
		V52.343L334.271,52.343L334.271,52.343z"/>
	<path id="path17" inkscape:connector-curvature="0" fill="#4C4C4C" d="M247.228,12.113v7.715h60.563v8.823h-60.563v23.694h68.861
		V12.113H247.228L247.228,12.113z M307.792,44.609h-52.271v-8.826h52.271V44.609z"/>
	<path id="path19" inkscape:connector-curvature="0" fill="#4C4C4C" d="M74.357,7.74V0h8.244V7.74H74.357L74.357,7.74z"/>
	<path id="path21" inkscape:connector-curvature="0" fill="#4C4C4C" d="M320.994,7.74V0h8.295V7.74H320.994L320.994,7.74z"/>
	<path id="path23" inkscape:connector-curvature="0" fill="#F05953" d="M0,80.22l9.688-11.586H0.76v-3.336h14.216v3.136L5.287,80.02
		h9.941v3.338H0V80.22L0,80.22z"/>
	<path id="path25" inkscape:connector-curvature="0" fill="#F05953" d="M21.985,73.897l-5.819-8.601h4.604l3.542,5.768l3.668-5.768
		h4.351l-5.792,8.625l6.298,9.436h-4.729L24.16,77.11l-4.021,6.247h-4.479L21.985,73.897z"/>
	<path id="path3824" inkscape:connector-curvature="0" fill="#F05953" d="M48.142,74.892c-0.875,0-1.547,0.238-2.017,0.717
		c-0.47,0.478-0.704,1.162-0.704,2.053s0.234,1.575,0.704,2.053c0.47,0.47,1.142,0.704,2.017,0.704c0.866,0,1.53-0.234,1.992-0.704
		c0.462-0.478,0.692-1.162,0.692-2.053c0-0.899-0.23-1.583-0.692-2.053C49.673,75.13,49.009,74.892,48.142,74.892 M44.729,73.349
		c-1.102-0.332-1.932-0.842-2.49-1.53s-0.838-1.547-0.838-2.575c0-1.53,0.57-2.696,1.712-3.498c1.143-0.802,2.818-1.203,5.029-1.203
		c2.194,0,3.862,0.401,5.005,1.203c1.142,0.793,1.712,1.959,1.712,3.498c0,1.028-0.283,1.887-0.85,2.575
		c-0.559,0.688-1.389,1.198-2.49,1.53c1.23,0.34,2.158,0.895,2.781,1.664c0.632,0.762,0.947,1.725,0.947,2.892
		c0,1.797-0.599,3.158-1.797,4.081c-1.19,0.915-2.96,1.372-5.309,1.372c-2.356,0-4.138-0.457-5.345-1.372
		C41.599,81.063,41,79.701,41,77.905c0-1.167,0.312-2.13,0.936-2.892C42.567,74.243,43.498,73.689,44.729,73.349 M45.822,69.717
		c0,0.721,0.198,1.275,0.596,1.664c0.404,0.389,0.979,0.583,1.725,0.583c0.729,0,1.292-0.194,1.688-0.583s0.595-0.943,0.595-1.664
		s-0.198-1.271-0.595-1.652c-0.396-0.389-0.96-0.583-1.688-0.583c-0.745,0-1.32,0.194-1.725,0.583
		C46.02,68.454,45.822,69.004,45.822,69.717"/>
	<path id="path3826" inkscape:connector-curvature="0" fill="#F05953" d="M57.109,80.127h4.13V68.406L57,69.28v-3.183l4.215-0.874
		h4.446v14.904h4.13v3.23H57.109V80.127"/>
</g>
</svg>
