<svg xmlns="http://www.w3.org/2000/svg" viewBox="-101.7 363.6 400 154.00523">
  <path fill="none" d="M-401.6858 814.78545h172.5v66.4h-172.5z"/>
  <path fill="#0a93b2" d="M27.992185 364.00659l14.144612 15.76776v19.01407H21.963334v-13.68085H5.9636901v22.49225h4.8694569v20.17346H-.76079695c-.46375795 0-.69563695-.46376-.92751595-.69564-4.637578-4.86945-9.5070341-9.50703-13.9127331-14.37649v-32.23116l14.3764911-16.4634H27.992185zm21.897947 95.04646c0-31.76741 0-63.53482-.231879-95.07035h21.79662c0 30.14426 0 60.52039.23187 90.66465h6.02886v20.63722h-11.13019c-.46376 0-.69564-.23188-.92752-.46376l-15.767761-15.76776zm38.695721-95.1951h21.796607c0 31.76741.23188 63.53482.23188 95.30223-5.10133 5.56509-10.666427 10.66642-15.767757 16.23152h-11.59395v-20.63722h5.79697c-.46375-30.37614-.46375-60.52039-.46375-90.89653m28.776397.0396h21.79661c0 37.10063.23188 74.20125.23188 111.30187h-21.79661c-.23188-37.10062-.23188-74.20124-.23188-111.30187m43.00147-.17715c5.33322 5.33321 10.66643 10.43455 15.76777 15.53588v42.20196l-15.76777 15.76777h-15.53588v-21.10098h9.27515v-31.30365h-9.27515V363.7204h15.53588zm22.96599.0359h47.76705v21.10098h-25.97044c0 22.95601 0 46.1439.23188 69.09991h25.97044v21.10098h-47.76706c-.23187-37.10063-.23187-74.20125-.23187-111.30187m54.97083-.15629h21.79661c0 37.10062.23188 74.20125.23188 111.30187h-21.79661c0-37.10062-.23188-74.20125-.23188-111.30187m46.67931 55.88421l13.21709 13.21709c.23188 14.14462 0 28.05735 0 42.20196h-22.02849v-44.52075h-10.89831v-21.10097h10.89831v-24.57917h-10.89831V363.6014h16.92716l15.99964 15.99965v26.20231l-13.21709 13.68086z"/>
  <path fill="#0a93b2" d="M210.75843 405.85794h15.76776v21.10098h-15.76776c.23188-6.95636.23188-14.14461 0-21.10098M27.85329 475.27321H-1.5953289l-14.1446131-15.76777v-19.01407H4.4335221v13.68086H20.433165v-26.20232h-3.710062v-20.17346h10.43455c.463758 0 .695637.23188.927515.46376 4.637578 4.86946 9.275156 9.50703 13.912734 14.14461.231879.23188.463758.46376.231879.92752v35.47747l-14.376491 16.4634zm39.655233 42.33204H34.34984c-2.08691 0-4.405698-.69564-6.028851-2.08691-1.159394-.92752-1.623152-2.55067-1.623152-3.94194v-19.70971c0-2.31879 1.855031-4.4057 3.941941-5.10133 1.623152-.69564 3.246305-.69564 4.869457-.69564h31.999288v5.79697H34.117962v19.94159h26.202314v-6.95637h-12.52146v-5.79697h19.941587l-.23188 18.55031zm14.23458-25.95444v6.95637h24.811037v-6.95637H81.743103m-7.42012-5.79697h31.999277c2.78255 0 5.5651 1.1594 6.95637 3.47819.69564 1.39127.69564 3.01442.69564 4.40569v5.5651c-.23188 2.31879-2.08691 3.94194-4.17382 4.63758-2.08691.92751-4.4057.46375-6.72449.69563l11.59394 12.75334h-9.04327c-3.94195-4.4057-7.652007-8.57952-11.593947-12.98522h-12.28958v12.98522h-7.42012c.23187 0 0-31.53553 0-31.53553zm80.678777 31.40823c-4.17382-8.57952-8.57952-17.15904-12.75334-25.73856h-3.24631c-4.17382 8.57952-8.34764 17.15904-12.75334 25.73856h-8.57951c5.10133-10.66643 10.43455-21.10098 15.53588-31.76741h14.60837c5.10134 10.43455 10.43455 21.10098 15.76777 31.53553l-8.57952.23188zm12.11776-31.47292h37.3325v5.79697h-29.91238v6.95637h26.20232v5.79697h-26.20232v12.98522h-7.42012v-31.53553m84.21887 31.38921h-10.66643c-3.94194-3.71006-7.652-7.42012-11.59394-11.13019-3.94194 3.71007-7.652 7.65201-11.36207 11.13019h-10.66643l16.46341-16.92716c-5.10134-4.86945-9.9708-9.73891-15.07213-14.84025h10.89831l9.97079 9.73892c3.47818-3.24631 6.49261-6.49261 9.97079-9.73892h10.66643c-5.10134 5.10134-10.20267 9.9708-15.07213 15.07213l16.4634 16.69528zM-84.338529 388.13335v-.23188c4.405699-9.04327 9.507035-13.68085 14.840249-13.68085 4.405699.23188 8.579519 3.71006 12.057702 10.20267 3.246305 6.26073 5.796973 15.07213 7.652004 25.50668 0 .23188-.231879.69564-.463758.69564s-.695637-.23188-.695637-.46376c-3.246304-21.10098-10.43455-34.31808-18.318432-34.78184-4.637578-.23187-9.507034 4.4057-13.680855 12.98522-.231878.23188-.463757.46376-.927515.23188-.463758 0-.463758-.23188-.463758-.46376m32.728778 79.05726c1.159394-6.72449 1.855031-13.91274 2.08691-21.10098 0-.46376.231879-.69564.695637-.69564.463757 0 .695636.23188.695636.69564-.231879 7.18824-1.159394 14.37649-2.08691 21.10098 0 .46375-.463757.69563-.695636.46375-.463758 0-.695637-.23188-.695637-.46375m-42.992665-19.95689v-1.1594.69564c0 .23188.463758.46376.463758.46376 0 34.08619 9.043276 60.98415 20.637221 61.21602 3.941941 0 8.115761-3.01442 11.825823-9.27515 3.710063-6.26073 6.724488-15.07213 9.043277-25.50668 0-.23188.463758-.46376.695637-.46376.231879 0 .463758.46376.463758.69564-2.318789 10.66643-5.333215 19.7097-9.043277 25.97043-3.941941 6.72449-8.34764 9.9708-12.753339 9.9708-6.028851-.23188-11.362066-6.95637-15.304007-18.78219-4.17382-11.59395-6.028851-27.12983-6.028851-43.82511"/>
  <path fill="#0a93b2" d="M-61.987027 458.68598l12.753339 16.69528-7.883882-19.7097 5.796972-5.5651-8.115761 1.85504-12.753339-16.69528 7.883882 19.7097-5.796972 5.56509 8.115761-1.85503z"/>
  <path fill="#0a93b2" d="M-55.324219 419.12234l7.188246 1.39128.695636 4.86945c0 .69564-.231879.92752-.927515.92752l-4.869457-.92752c-.695637-.23188-1.159394-.69563-1.391273-1.15939l-.695637-5.10134zm-20.405342 56.34657l7.188245 1.39128c2.318789.46375 4.637578 2.78254 4.869457 5.10133l1.391273 9.04328c.231879 1.62315-1.391273 2.55067-3.246304 2.31879l-2.318789-.46376c-1.623152-.23188-3.478183-2.08691-3.710062-3.47818l-1.623153-9.50704-.927515-.23188c-.927516-.23188-1.623152.46376-1.623152 1.39128l1.623152 10.66643-3.941941-.69564-1.855031-11.82582c.463757-2.31879 2.08691-4.17382 4.17382-3.71007m7.420124-23.65164l.695637 3.71006-15.767765-2.78255-.695636-3.94194 15.767764 3.01443zm-19.245948-25.2748l-.695636-3.94194 10.202671 1.85503c1.159394.23188 1.623152-.23188 1.391273-1.39128l-1.159394-6.72448-12.057703-2.31879-.695636-3.94194 15.767764 2.78254 2.08691 12.98522c.231879 1.85503-.927515 3.01443-3.014425 2.55067.463757.46376-11.825824-1.85503-11.825824-1.85503zm.927516-18.55031l-4.17382-.69564-2.550668-16.23152 27.361709 5.10133 2.08691 13.44898-3.710062-.69564-1.623152-9.50703-7.883883-1.39128 1.159395 7.88389-3.710062-.69564-1.159395-7.88388-7.883882-1.39128c.231879-.46375 2.08691 12.05771 2.08691 12.05771zm3.014425.46375l-1.391273-9.27515 1.855031.23188 1.159395 7.42012 9.738913 1.85503-1.159394-7.42012 1.855031.23188 1.391273 9.27515c0 .23188-13.448976-2.31879-13.448976-2.31879zm-6.492608 20.40535h.231878c0 .23188-.231878.69563 0 .92751l1.159395 7.65201c-1.623152-.23188-1.855031-2.31879-2.318789-5.33322l-.463758-3.47818L-101.7 426.77435l.69564 4.63757c1.159394 11.36207 6.956366 15.53589 13.912733 16.92716l2.318789 13.68086 12.057702 2.08691.231879 1.15939c.231879 1.1594.463758 1.1594-.927515.92752l-10.898308-2.08691 1.623152 9.97079.695637.23188c-.231879.69564-.463758 1.62315-.231879 2.55067l2.782546 17.15903 8.579519 1.62316.695637-1.1594c1.159395.92752 2.550668 1.62315 3.710062 1.85503l1.391274.23188c5.101335.92752 6.492609-3.94194 6.028851-6.02885l-1.623152-9.73891c-.231879-1.85503-1.391274-3.71006-3.014426-5.10134 1.159394-1.39127 1.855031-3.2463 1.623152-4.4057l-1.855031-10.8983-2.782547 1.15939 1.623153 9.97079c.231879 1.39128-.231879 2.31879-1.391274 2.55067-.231879 0-13.680854-2.55067-13.680854-2.55067l-.463758-3.47818 10.202671 1.85503c1.391274.23188 1.623152-.23188 1.391274-1.39127l-1.159395-6.72449-12.057702-2.31879-.695637-3.94194 13.680855 2.55067 3.710062-3.24631-4.17382-11.59394.927515 5.56509-18.78219-3.47818c-4.869456-.92752-9.275155-6.02885-9.970792-10.43455l-.695637-4.63758 3.710063.69564.463757 3.47818c.463758 3.01443 3.478184 6.49261 6.724488 7.18825l2.08691.46375-1.391273-9.04327c-.231879-1.85503.927515-3.01443 3.014425-2.55067l8.811398 1.62315c1.623152.23188 2.782547 1.1594 3.478184 2.55067h.231879l3.478183 4.63758-.463758-2.78255c-.231879-1.39127-1.391273-3.94194-3.478183-5.79697 1.391273-1.1594 2.08691-3.47819 1.855031-4.63758l-1.623152-9.73891 8.579519 1.62315 1.159394 7.18824c.695637 3.71007 4.869457 8.11577 9.043277 8.8114l5.796972 1.1594c3.941941.69563 7.188246-2.08691 6.492609-5.79698l-2.550668-15.76776-17.854674-3.2463-2.318789-14.3765c-.231879-1.15939-1.391274-2.31878-2.782547-2.55066l-28.984861-5.33322c-1.391274-.23188-2.08691.46376-2.08691 1.85503l4.405699 27.59359 12.057702 2.31879.231879 1.15939c.231879 1.1594.463758 1.1594-.927516.92752l-10.898308-2.08691c.231879-.92752 1.855032 9.04328 1.855032 9.04328zm21.332857 51.70899h-.463757l1.159394 7.42012c0 .69564.695637 1.1594 1.391273 1.1594.695637.23188 1.159395-.23188.927516-.92752l-.231879-1.85503-.463758-3.01442-.231879-.69564c-.231878-.92752-1.159394-1.85503-2.08691-2.08691m-7.420124-45.44826l-4.637578-.92752c-1.391273-.23188-1.623152.23188-1.391273 1.39127l1.159394 7.18825 8.115761 1.62315-1.159394-7.18824c-.231879-1.1594-.927516-1.85503-2.08691-2.08691m-1.855031 2.55066c1.159394.23188.927515.69564 1.159394 1.85504l.231879 1.15939-1.855031-.23188-.231879-1.15939c0-1.39128-.463758-1.85503.695637-1.62316"/>
  <path fill="#0a93b2" d="M-58.634754 450.82761l4.17382-1.1594v-.69563l-.927515-.23188c-.695637-.23188-1.391274-.69564-1.391274-1.39128l-.695636-4.17382c0-.69563.231878-1.15939.927515-.92751l11.130187 2.08691c.695637.23188 1.391273.69564 1.391273 1.39127l.695637 4.17382c0 .69564-.231879 1.1594-.927516.92752l-1.391273-.23188 1.391273 8.11576 1.623153.23188c4.17382.69564 7.420124-2.08691 6.724487-6.02885l-1.159394-7.88388c-.695637-3.94195-5.101336-8.34764-9.275156-9.04328l-11.825823-2.08691c-4.17382-.69564-7.420125 2.08691-6.724488 6.02885l.463758 2.55067 5.796972 8.34764zm2.482496 5.771c.463757.23188.695636.46376 1.391273.46376l1.391273.23188-.463758-3.24631-2.318788 2.55067z"/>
</svg>
