<?xml version="1.0" encoding="utf-8"?>
<!-- Generator: Adobe Illustrator 16.0.3, SVG Export Plug-In . SVG Version: 6.00 Build 0)  -->
<!DOCTYPE svg PUBLIC "-//W3C//DTD SVG 1.1//EN" "http://www.w3.org/Graphics/SVG/1.1/DTD/svg11.dtd">
<svg version="1.1"
	 id="svg2" xmlns:dc="http://purl.org/dc/elements/1.1/" xmlns:cc="http://creativecommons.org/ns#" xmlns:rdf="http://www.w3.org/1999/02/22-rdf-syntax-ns#" xmlns:svg="http://www.w3.org/2000/svg"
	 xmlns="http://www.w3.org/2000/svg" xmlns:xlink="http://www.w3.org/1999/xlink" x="0px" y="0px" width="82.32px"
	 height="50.008px" viewBox="0 0 82.32 50.008" enable-background="new 0 0 82.32 50.008" xml:space="preserve">
<g id="g10" transform="matrix(1.25,0,0,-1.25,0,50.008375)">
	<g id="g12">
		<g>
			<defs>
				<rect id="SVGID_1_" x="-8.232" y="-5.001" width="82.32" height="50.009"/>
			</defs>
			<clipPath id="SVGID_2_">
				<use xlink:href="#SVGID_1_"  overflow="visible"/>
			</clipPath>
			<g id="g14" clip-path="url(#SVGID_2_)">
				<g id="g20" transform="translate(7.5553,16.9088)">
					<path id="path22" fill="#4C504E" d="M0,0c-0.045,0-0.09,0.01-0.133,0.029c-4.349,2.114-6.597,4.574-6.496,7.12
						c0.082,2.095,1.793,4.073,4.945,5.722c2.993,1.563,7.213,2.804,12.205,3.587c0.167,0.027,0.323-0.087,0.348-0.254
						c0.027-0.166-0.088-0.323-0.254-0.347C0.502,14.268-5.871,10.922-6.02,7.125c-0.087-2.252,2.096-4.577,6.153-6.546
						c0.152-0.073,0.215-0.256,0.14-0.407C0.221,0.062,0.111,0,0,0"/>
				</g>
				<g id="g24" transform="translate(45.4753,32.5426)">
					<path id="path26" fill="#4C504E" d="M0,0c-0.017,0-0.033,0.001-0.051,0.003c-3.213,0.528-6.605,0.88-10.08,1.047
						c-0.17,0.007-0.298,0.151-0.291,0.319c0.008,0.169,0.155,0.298,0.32,0.289c3.498-0.168,6.914-0.52,10.151-1.052
						c0.166-0.027,0.279-0.184,0.252-0.35C0.277,0.106,0.147,0,0,0"/>
				</g>
				<g id="g28" transform="translate(35.8737,11.9645)">
					<path id="path30" fill="#4C504E" d="M0,0h-0.256h-0.302h0.305C-0.171,0-0.084,0.178,0,0.178
						c16.322,0,29.202,4.333,29.371,9.785c0.059,1.908-1.473,3.889-4.434,5.642c-2.947,1.748-7.171,3.258-12.214,4.327
						c-0.166,0.037-0.272,0.209-0.237,0.374c0.035,0.163,0.198,0.273,0.362,0.239c5.109-1.083,9.395-2.595,12.402-4.373
						c3.163-1.875,4.799-3.998,4.731-6.141c-0.09-2.901-3.294-5.417-9.02-7.315C15.426,0.882,7.99,0,0,0"/>
				</g>
				<g id="g32" transform="translate(41.3971,27.5914)">
					<path id="path34" fill="#4C504E" d="M0,0l8.053,6.137l-9.457-3.776l-2.658,2.766l0.847-3.832l-8.051-6.138l9.457,3.777
						l2.657-2.768L0,0z"/>
				</g>
				<g id="g36" transform="translate(22.4792,30.7779)">
					<path id="path38" fill="#4C504E" d="M0,0l0.633,3.402l2.371,0.377c0.31,0.048,0.471-0.127,0.408-0.456L2.98,0.994
						C2.92,0.665,2.684,0.426,2.373,0.377L0,0z M26.963-9.748l0.646,3.478c0.205,1.1,1.387,2.18,2.395,2.341l4.358,0.692
						c0.734,0.116,1.244-0.704,1.094-1.507l-0.213-1.119c-0.15-0.803-0.971-1.656-1.702-1.773l-4.525-0.718l-0.066-0.407
						c-0.086-0.461,0.221-0.821,0.645-0.753l5.054,0.805l-0.339-1.834l-5.704-0.904C27.598-11.609,26.758-10.85,26.963-9.748
						 M15.658-6.204l1.822,0.288l-1.398-7.52l-1.863-0.294l1.398,7.518L15.658-6.204z M3.545-15.425L1.682-15.72l0.906,4.883
						c0.115,0.612-0.068,0.811-0.66,0.717l-3.248-0.516l-1.065-5.729l-1.863-0.295l1.396,7.518l0.045,0.008l6.184,0.98
						c0.934,0.149,1.441-0.417,1.258-1.405L3.545-15.425z M-5.406-14.933l-0.367-1.969l-7.793-1.237l2.429,13.073l6.438,1.019
						l-0.332-1.79l-4.574-0.725l-0.7-3.76l3.727,0.591l-0.332-1.79l-3.727-0.591l-0.701-3.761L-5.406-14.933z M-5.141-13.499
						l-4.404-0.7l0.166,0.894l3.557,0.565l0.867,4.655L-8.514-8.65l0.166,0.896l4.405,0.698L-5.141-13.499z M4.635-16.642
						l0.029,0.157c0.121-0.009,0.283-0.056,0.426-0.035l3.662,0.576c-0.137-0.733-1.102-0.914-2.574-1.148l-1.676-0.266l-0.9-4.834
						l2.203,0.348c5.423,0.536,7.486,3.337,8.148,6.679l6.609,1.048l1.064,5.73L22.161-8.3c0.591,0.093,0.503,0.199,0.389-0.412
						l-0.975-5.242l4.745,0.753l0.065,0.346c0.357-0.157,0.777-0.213,1.22-0.143l8.202,1.301l0.767,4.12l-0.533,0.379
						c0.461,0.545,0.82,1.212,0.923,1.773l0.13,0.648c0.409,2.429-1.83,3.075-2.852,2.912l-4.707-0.746
						c-0.834-0.134-1.752-0.714-2.42-1.484c-0.619,0.613-1.57,0.85-2.127,0.762l-5.24-0.83l0.586-1.297l4.727,0.748
						c0.683,0.11,1.137-0.163,1.262-0.702c-0.051-0.143-1.262-6.595-1.262-6.595l-1.695-0.269l0.909,4.884
						c0.114,0.613-0.073,0.81-0.663,0.716l-3.246-0.516L19.3-12.925l-1.864-0.296l1.222,6.559l-1.535,1.808l-5.521-1.994
						l2.617,0.414l0.042,0.006l-1.663-8.952c-0.423-2.273-2.85-4.447-5.002-4.79l-2.203-0.348l0.334,1.788l1.675,0.266
						c1.475,0.234,3.131,1.71,3.416,3.251L11-14.242l-4.364-0.692c-0.936-0.149-1.444,0.418-1.258,1.407l0.781,4.21
						c0.139,0.747,0.606,1.368,1.231,1.69L7.4-7.515L9.588-5.83L8.311-6.045C7.629-6.154,6.369-6.663,5.566-7.684
						C4.961-6.963,3.9-6.679,3.305-6.773l-4.703-0.748l0.767,4.12l3.43,0.544c1.826,0.291,3.847,2.342,4.205,4.271L7.52,4.191
						c0.359,1.93-0.999,3.447-2.825,3.159l-7.498-1.19l-1.595-8.595l-6.905-1.098c-0.584-0.091-1.152-0.666-1.267-1.284
						l-2.58-13.877c-0.114-0.618,0.267-1.044,0.851-0.951l13.172,2.089l1.066,5.73l0.538,0.086c0.589,0.093,0.502,0.199,0.388-0.413
						l-0.974-5.241L4.635-16.642z M29.361-6.486l-0.039-0.216l3.526,0.559c0.277,0.045,0.548,0.327,0.602,0.629
						c0.058,0.305-0.123,0.516-0.4,0.471l-0.905-0.144l-1.445-0.229l-0.364-0.058C29.911-5.541,29.447-6.025,29.361-6.486
						 M7.672-10.031l-0.418-2.245c-0.113-0.614,0.072-0.812,0.662-0.718l3.416,0.542l0.733,3.937L8.646-9.056
						C8.057-9.148,7.785-9.418,7.672-10.031 M8.836-10.85c0.113,0.57,0.326,0.486,0.9,0.578l0.537,0.084l-0.166-0.895L9.57-11.167
						C8.994-11.259,8.74-11.412,8.836-10.85"/>
				</g>
				<g id="g40" transform="translate(37.6393,29.1861)">
					<path id="path42" fill="#4C504E" d="M0,0l-0.502,1.995l-0.285-0.034L-0.879,1.47C-0.941,1.128-1.215,0.85-1.537,0.8
						l-1.947-0.31c-0.323-0.051-0.509,0.154-0.445,0.495l0.983,5.28c0.063,0.341,0.339,0.62,0.659,0.671l1.949,0.308
						c0.32,0.052,0.504-0.155,0.442-0.494l-0.125-0.673l3.939,0.626l0.15,0.806c0.377,2.03-1.005,3.576-2.927,3.272l-3.77-0.598
						c-1.922-0.305-3.98-2.397-4.359-4.427l-1.047-5.641c-0.377-2.033,1.004-3.578,2.928-3.272l1.259,0.2L0,0z"/>
				</g>
				<g id="g44" transform="translate(40.4323,30.3902)">
					<path id="path46" fill="#4C504E" d="M0.001,0c0.103,0.277,0.173,0.381,0.227,0.664l0.134,0.718l-1.57-0.249L0.001,0z"/>
				</g>
				<g id="g48" transform="translate(45.8945,2.3828)">
					<path id="path50" fill="#4C504E" d="M0,0c-0.38-0.348-0.846-0.46-1.34-0.471c-0.622-0.013-1.244-0.003-1.867-0.003
						c-0.591,0-1.183-0.004-1.775,0.001C-5.412-0.469-5.827-0.4-6.196-0.155c-0.44,0.293-0.7,0.697-0.795,1.218
						c-0.098,0.538,0.052,1.013,0.373,1.43c0.306,0.397,0.728,0.645,1.23,0.652c1.421,0.017,2.844,0.006,4.264,0.005
						c0.405,0,0.752-0.136,1.072-0.391C0.28,2.496,0.48,2.161,0.57,1.76C0.723,1.068,0.525,0.48,0,0 M-1.303,3.664
						c-0.635-0.003-1.269-0.002-1.904-0.002c-0.579,0-1.158-0.002-1.738,0.002c-0.448,0.003-0.884-0.041-1.289-0.256
						c-0.461-0.244-0.823-0.587-1.041-1.06c-0.189-0.412-0.266-0.844-0.198-1.311c0.07-0.483,0.255-0.897,0.573-1.25
						c0.488-0.538,1.116-0.771,1.832-0.773c1.115-0.005,2.232-0.003,3.348,0c0.273,0.001,0.545-0.013,0.817,0.033
						c0.472,0.079,0.897,0.257,1.247,0.584c0.42,0.393,0.663,0.87,0.734,1.459c0.064,0.53-0.034,1.012-0.304,1.444
						C0.304,3.294-0.401,3.669-1.303,3.664 M-27.533-0.47c-0.045-0.012-0.096-0.004-0.145-0.004h-2.142
						c-0.726,0-1.453,0.003-2.178-0.003c-0.133,0-0.19,0.018-0.188,0.174c0.007,1.086,0.006,2.172,0,3.258
						c0,0.128,0.034,0.162,0.163,0.162c1.397-0.005,2.795,0.016,4.192-0.009c0.885-0.015,1.536-0.472,1.714-1.417
						C-25.929,0.698-26.435-0.175-27.533-0.47 M-26.445,3.144c-0.368,0.296-0.794,0.503-1.256,0.51
						c-1.617,0.023-3.235,0.008-4.852,0.012c-0.141,0.001-0.183-0.031-0.182-0.178c0.006-1.434,0.006-2.869-0.001-4.302
						c0-0.153,0.051-0.177,0.187-0.177c0.817,0.006,1.635,0.005,2.453,0.005c0.805,0,1.611,0.002,2.416-0.003
						c0.184-0.002,0.368,0.023,0.53,0.087c0.887,0.361,1.449,1.01,1.549,1.971C-25.516,1.889-25.78,2.609-26.445,3.144
						 M-12.173,2.338c-0.124-0.073-0.248-0.105-0.394-0.105c-1.8,0.004-3.6,0.006-5.4-0.003c-0.199-0.001-0.248,0.059-0.231,0.242
						c0.015,0.157,0.013,0.318,0,0.476c-0.012,0.14,0.038,0.17,0.173,0.169c0.945-0.005,1.891-0.002,2.837-0.002h2.819
						c0.209,0,0.35-0.102,0.398-0.287C-11.907,2.591-11.966,2.459-12.173,2.338 M-12.537,3.658c-2.02,0.014-4.04,0.004-6.06,0.008
						c-0.124,0-0.15-0.041-0.149-0.155c0.005-0.549,0.008-1.099-0.001-1.648c-0.002-0.145,0.039-0.18,0.181-0.18
						c1.007,0.006,2.014,0.003,3.021,0.003c0.91,0,1.819,0,2.728,0c0.252,0.001,0.496,0.008,0.745,0.1
						c0.416,0.154,0.727,0.668,0.588,1.116C-11.649,3.441-12.017,3.654-12.537,3.658 M-21.601,1.049
						c-0.064-0.197-0.218-0.296-0.413-0.311c-0.203-0.016-0.409-0.014-0.611,0.035c-0.17,0.042-0.351,0.312-0.329,0.49
						c0.034,0.274,0.208,0.457,0.435,0.46h0.256c0.186-0.012,0.399,0.043,0.573-0.141C-21.531,1.415-21.538,1.241-21.601,1.049
						 M-21.549,2.159c-0.257,0.163-0.559,0.148-0.855,0.153c-0.652,0.009-1.226-0.708-1.007-1.358
						c0.164-0.488,0.536-0.745,1.199-0.771c0.086-0.029,0.196,0.02,0.307,0.041c0.606,0.116,0.828,0.509,0.88,0.891
						C-20.969,1.532-21.098,1.875-21.549,2.159 M19.341,3.328c0.006-0.112-0.03-0.159-0.142-0.141c-0.005,0.002-0.013,0-0.019,0
						H17.37c-0.591,0-1.184,0.007-1.775-0.004C15.42,3.18,15.378,3.238,15.38,3.404c0.006,0.362,0.005,0.723,0.077,1.082
						c0.063,0.315,0.365,0.754,0.754,0.833c0.197,0.04,0.389,0.068,0.588,0.067c0.348-0.003,0.695-0.003,1.044-0.002
						c0.223,0.002,0.422,0.184,0.435,0.392c0.015,0.265-0.128,0.44-0.374,0.49c-0.169,0.032-0.337,0.032-0.505,0.032
						c-0.483,0.002-0.964,0.007-1.446-0.002c-0.142-0.003-0.18,0.041-0.168,0.175c0.011,0.127,0.012,0.256,0,0.384
						c-0.017,0.175,0.066,0.217,0.22,0.216c0.659-0.005,1.319-0.003,1.977-0.002c0.158,0,0.307-0.023,0.462-0.063
						c0.459-0.116,0.736-0.413,0.853-0.853c0.172-0.659-0.175-1.315-0.898-1.495c-0.047-0.011-0.097-0.007-0.146-0.007
						c-0.396-0.001-0.793,0.002-1.189-0.001c-0.276-0.002-0.531-0.23-0.546-0.472c-0.007-0.118,0.028-0.158,0.148-0.153
						c0.239,0.009,0.477,0.003,0.714,0.003c0.598,0,1.197-0.006,1.794,0.003c0.142,0.002,0.177-0.041,0.167-0.174
						C19.33,3.683,19.333,3.505,19.341,3.328 M19.439,4.288c-0.756-0.004-1.512-0.002-2.27-0.002h-0.223
						c0.072,0.123,0.159,0.11,0.241,0.11c0.348,0,0.696,0.002,1.044-0.002c0.134-0.002,0.261,0.027,0.387,0.065
						c0.764,0.235,1.106,0.989,0.96,1.705C19.428,6.9,18.9,7.295,18.175,7.32c-0.811,0.027-1.623,0.003-2.434,0.007
						c-0.161,0.001-0.214-0.067-0.211-0.22c0.005-0.299,0.009-0.598-0.002-0.898c-0.006-0.14,0.038-0.17,0.172-0.17
						c0.653,0.008,1.305,0.004,1.959,0.004c0.216,0,0.324-0.067,0.327-0.201c0.001-0.152-0.081-0.202-0.331-0.202
						c-0.354,0-0.708,0.006-1.061-0.003c-0.148-0.004-0.302-0.016-0.444-0.06c-0.655-0.197-0.936-0.723-0.98-1.379
						c-0.025-0.365-0.002-0.732-0.006-1.098C15.161,3,15.189,2.966,15.295,2.966c1.378,0.003,2.756,0.003,4.136,0
						c0.13-0.001,0.17,0.044,0.167,0.17c-0.006,0.337-0.009,0.672,0.002,1.007C19.603,4.274,19.549,4.288,19.439,4.288 M2.399,0.72
						C2.257-0.012,1.893-0.613,1.337-1.094C0.988-1.396,0.584-1.606,0.128-1.727C-0.223-1.819-0.574-1.829-0.93-1.829h-2.269
						c-0.823,0-1.648,0.015-2.47-0.005c-1.339-0.03-2.545,0.843-2.977,2.041c-0.406,1.123-0.259,2.176,0.446,3.131
						c0.444,0.601,1.056,0.987,1.79,1.155c0.236,0.054,0.48,0.09,0.732,0.089c1.72-0.009,3.442,0.015,5.162-0.015
						c0.688-0.012,1.31-0.281,1.845-0.739c0.368-0.315,0.66-0.683,0.852-1.12C2.462,2.073,2.533,1.409,2.399,0.72 M1.941,3.978
						C1.639,4.3,1.284,4.557,0.883,4.739C0.436,4.943-0.032,5.092-0.534,5.092c-0.891,0-1.781,0-2.672,0
						c-0.764,0-1.527,0.003-2.289-0.002c-0.261-0.001-0.52,0.018-0.78-0.032c-0.759-0.143-1.428-0.459-1.984-1
						c-0.37-0.36-0.653-0.781-0.85-1.259c-0.314-0.761-0.372-1.551-0.17-2.341c0.207-0.808,0.634-1.49,1.301-2.016
						c0.684-0.541,1.459-0.814,2.324-0.818c1.672-0.008,3.344-0.004,5.016,0c0.246,0,0.491,0.041,0.73,0.099
						C0.601-2.154,1.064-1.942,1.49-1.623c0.53,0.396,0.924,0.889,1.184,1.488C2.965,0.537,3.06,1.237,2.939,1.97
						C2.811,2.745,2.475,3.409,1.941,3.978 M-24.493-0.046c-0.137-0.273-0.298-0.528-0.494-0.766
						c-0.238-0.287-0.522-0.512-0.845-0.688c-0.381-0.206-0.789-0.356-1.224-0.362c-1.128-0.013-2.257-0.004-3.386-0.004
						c-1.146,0-2.293,0.003-3.44-0.003c-0.137-0.001-0.171,0.034-0.171,0.171c0.004,2.025,0.005,4.05,0,6.075
						c-0.001,0.143,0.043,0.168,0.174,0.168c2.233-0.003,4.465,0.014,6.698-0.012c0.708-0.009,1.348-0.293,1.882-0.777
						c0.429-0.39,0.772-0.841,0.95-1.402c0.075-0.237,0.145-0.477,0.153-0.733C-24.178,1.043-24.226,0.479-24.493-0.046
						 M-25.202,4.391c-0.566,0.403-1.191,0.689-1.888,0.694c-2.428,0.018-4.856,0.005-7.284,0.01c-0.149,0-0.193-0.033-0.193-0.188
						c0.006-2.366,0.006-4.734,0.001-7.1c-0.001-0.155,0.041-0.191,0.191-0.189c1.238,0.005,2.477,0.004,3.715,0.004h3.569
						c0.132,0,0.262,0.005,0.395,0.032c0.99,0.195,1.772,0.712,2.353,1.527c0.375,0.523,0.571,1.12,0.662,1.759
						c0.085,0.595,0,1.165-0.2,1.716C-24.141,3.365-24.583,3.949-25.202,4.391 M-10.312-1.868c-0.335,0.008-0.672,0.008-1.008,0
						c-0.117-0.005-0.141,0.038-0.139,0.145c0.005,0.385-0.008,0.77,0.005,1.153c0.012,0.422-0.381,1.005-0.833,1.16
						c-0.216,0.074-0.426,0.11-0.653,0.109c-1.879-0.005-3.759-0.005-5.639,0.002c-0.174,0.001-0.207-0.052-0.204-0.212
						c0.008-0.731,0-1.464,0.006-2.196c0.001-0.131-0.035-0.166-0.163-0.162c-0.311,0.01-0.623,0.012-0.933-0.001
						c-0.151-0.005-0.193,0.034-0.193,0.189c0.007,1.831,0.004,3.662,0.004,5.492c0,0.177,0.013,0.355-0.003,0.53
						c-0.016,0.184,0.032,0.243,0.231,0.242c1.306-0.01,2.612-0.005,3.918-0.005c1.294,0,2.588,0.011,3.882-0.004
						c0.837-0.01,1.609-0.605,1.822-1.448c0.192-0.761-0.016-1.408-0.567-1.951c-0.111-0.11-0.168-0.179-0.028-0.321
						c0.167-0.168,0.304-0.369,0.411-0.584c0.134-0.271,0.227-0.55,0.223-0.857c-0.006-0.378-0.005-0.757,0.001-1.137
						C-10.171-1.828-10.193-1.872-10.312-1.868 M-9.63-0.437c-0.07,0.481-0.253,0.92-0.531,1.315
						C-10.23,0.974-10.205,1.04-10.151,1.1c0.15,0.169,0.25,0.366,0.334,0.569c0.204,0.497,0.3,1.004,0.162,1.543
						c-0.141,0.553-0.411,1.011-0.864,1.368c-0.45,0.356-0.956,0.542-1.523,0.546c-1.367,0.008-2.734,0.002-4.1,0.002
						c-1.429,0-2.857-0.001-4.284,0.003c-0.133,0-0.188-0.019-0.188-0.173c0.006-2.392,0.005-4.784,0.001-7.177
						c0-0.127,0.033-0.163,0.161-0.162c0.69,0.007,1.38,0.008,2.069,0c0.148-0.002,0.196,0.03,0.194,0.187
						c-0.009,0.72,0.001,1.44-0.008,2.161c-0.002,0.158,0.046,0.186,0.194,0.186c1.593-0.005,3.185-0.003,4.778-0.005
						c0.175,0,0.348-0.003,0.524-0.03c0.425-0.062,0.695-0.454,0.696-0.789c0-0.516,0.002-1.036-0.003-1.555
						c0-0.118,0.03-0.155,0.152-0.154c0.708,0.005,1.415,0.006,2.123-0.001c0.128-0.002,0.148,0.047,0.147,0.159
						c-0.005,0.44,0.002,0.878-0.005,1.318C-9.592-0.749-9.607-0.591-9.63-0.437 M-35.658,3.835
						c0.013-0.162-0.032-0.212-0.205-0.212c-1.66,0.007-3.32,0.003-4.98,0.003c-0.323,0-0.647-0.011-0.97,0.003
						c-0.894,0.042-1.806-0.688-2.095-1.464c-0.311-0.833-0.196-1.598,0.318-2.29c0.324-0.436,0.778-0.725,1.332-0.829
						c0.114-0.023,0.226-0.032,0.341-0.032c2.02,0,4.04-0.003,6.06,0.002c0.159,0,0.215-0.034,0.199-0.198
						c-0.016-0.163-0.013-0.33,0-0.495c0.012-0.148-0.029-0.195-0.186-0.194c-1.105,0.008-2.21,0.004-3.314,0.004
						c-1.043,0-2.087-0.008-3.131,0.003c-0.749,0.007-1.407,0.264-1.985,0.75c-0.491,0.412-0.824,0.923-0.98,1.534
						c-0.257,1.009-0.121,1.955,0.504,2.82c0.493,0.684,1.167,1.061,1.964,1.25c0.185,0.044,0.384,0.049,0.576,0.049
						c2.118,0.004,4.235,0,6.353,0.007c0.16,0,0.215-0.037,0.199-0.2C-35.673,4.178-35.671,4.005-35.658,3.835 M-35.311,5.095
						c-2.02-0.005-4.04-0.004-6.06-0.003c-0.484,0-0.968,0.005-1.449-0.073c-0.537-0.084-1.028-0.281-1.469-0.594
						c-0.511-0.364-0.901-0.828-1.196-1.392c-0.411-0.786-0.488-1.613-0.339-2.453c0.141-0.799,0.529-1.487,1.157-2.033
						c0.689-0.598,1.476-0.918,2.385-0.924c1.129-0.007,2.258-0.001,3.387-0.001c1.208,0,2.416,0.002,3.624-0.004
						c0.129,0,0.164,0.034,0.162,0.162c-0.007,0.514-0.009,1.025,0.001,1.538c0.003,0.161-0.033,0.212-0.206,0.212
						c-2.135-0.007-4.271-0.001-6.406-0.006c-0.612-0.001-1.101,0.239-1.478,0.711c-0.278,0.348-0.396,0.763-0.363,1.195
						c0.035,0.47,0.217,0.894,0.591,1.216c0.321,0.277,0.677,0.467,1.108,0.468c2.19,0.003,4.381,0.003,6.571-0.001
						c0.14-0.001,0.185,0.03,0.183,0.177c-0.01,0.538-0.012,1.073,0.001,1.611C-35.103,5.071-35.159,5.095-35.311,5.095
						 M14.149-1.833c-0.33,0.013-0.659,0.01-0.988,0c-0.132-0.002-0.16,0.041-0.159,0.166c0.003,1.319,0.009,2.637-0.002,3.955
						c-0.004,0.503-0.209,0.922-0.645,1.197c-0.225,0.142-0.486,0.208-0.75,0.213c-0.561,0.01-1.123-0.002-1.684,0.007
						c-0.146,0.002-0.18-0.039-0.18-0.182c0.005-1.727,0.002-3.454,0.008-5.18C9.75-1.82,9.716-1.88,9.543-1.87
						c-0.273,0.016-0.55,0.014-0.823,0C8.559-1.878,8.534-1.821,8.534-1.675c0.005,1.721,0,3.441,0.008,5.163
						c0,0.178-0.045,0.221-0.22,0.216C7.779,3.692,7.235,3.713,6.693,3.697c-0.5-0.016-0.925-0.204-1.198-0.646
						C5.347,2.814,5.279,2.546,5.279,2.266C5.277,0.967,5.275-0.333,5.282-1.633c0.001-0.159-0.036-0.208-0.2-0.2
						C4.754-1.819,4.424-1.826,4.095-1.831c-0.1-0.002-0.137,0.022-0.137,0.13c0.004,1.532-0.009,3.064,0.008,4.596
						c0.008,0.74,0.616,1.4,1.273,1.584C5.505,4.554,5.766,4.58,6.039,4.58c1.037-0.002,2.075-0.001,3.112-0.001
						c1.123,0,2.246,0.014,3.369-0.005c0.683-0.012,1.209-0.34,1.572-0.92c0.17-0.272,0.23-0.575,0.23-0.89
						c0.002-1.471-0.001-2.942,0.003-4.413C14.326-1.783,14.302-1.839,14.149-1.833 M14.005,4.55
						c-0.45,0.387-0.97,0.577-1.561,0.577H5.91C5.657,5.129,5.413,5.102,5.164,5.029C4.682,4.886,4.291,4.628,3.972,4.245
						c-0.324-0.387-0.547-0.833-0.554-1.33c-0.02-1.703-0.006-3.405-0.01-5.107C3.407-2.314,3.445-2.345,3.561-2.345
						c0.69,0.006,1.379,0.008,2.07,0c0.156-0.003,0.202,0.031,0.202,0.197C5.824-0.659,5.825,0.83,5.829,2.318
						c0,0.35,0.146,0.628,0.477,0.776c0.172,0.078,0.361,0.087,0.547,0.092c0.311,0.007,0.622-0.009,0.933,0.005
						C7.957,3.2,7.991,3.143,7.991,2.981c-0.005-1.727-0.002-3.453-0.006-5.18c0-0.14,0.031-0.185,0.178-0.183
						c0.653,0.009,1.306,0.009,1.959-0.002c0.151-0.001,0.176,0.05,0.176,0.186c-0.005,1.239-0.003,2.478-0.003,3.716
						c0,0.508,0,1.014,0,1.52c0,0.081-0.014,0.159,0.114,0.152c0.424-0.024,0.848,0.001,1.274-0.027
						c0.456-0.028,0.777-0.415,0.775-0.883c-0.007-1.477,0-2.953-0.005-4.429c-0.002-0.146,0.023-0.199,0.184-0.196
						c0.684,0.01,1.366,0.01,2.052,0c0.153-0.002,0.188,0.042,0.187,0.192C14.87-0.55,14.87,1.056,14.873,2.66
						C14.875,3.426,14.583,4.052,14.005,4.55"/>
				</g>
			</g>
		</g>
	</g>
</g>
</svg>
