<?xml version="1.0" encoding="UTF-8" standalone="no"?>
<!-- Generator: Adobe Illustrator 19.0.0, SVG Export Plug-In . SVG Version: 6.00 Build 0)  -->

<svg
   xmlns:dc="http://purl.org/dc/elements/1.1/"
   xmlns:cc="http://creativecommons.org/ns#"
   xmlns:rdf="http://www.w3.org/1999/02/22-rdf-syntax-ns#"
   xmlns:svg="http://www.w3.org/2000/svg"
   xmlns="http://www.w3.org/2000/svg"
   xmlns:sodipodi="http://sodipodi.sourceforge.net/DTD/sodipodi-0.dtd"
   xmlns:inkscape="http://www.inkscape.org/namespaces/inkscape"
   version="1.1"
   id="Layer_1"
   x="0px"
   y="0px"
   viewBox="0 0 549 342.6"
   xml:space="preserve"
   inkscape:version="0.91 r13725"
   sodipodi:docname="console.svg"><metadata
     id="metadata761"><rdf:RDF><cc:Work
         rdf:about=""><dc:format>image/svg+xml</dc:format><dc:type
           rdf:resource="http://purl.org/dc/dcmitype/StillImage" /></cc:Work></rdf:RDF></metadata><defs
     id="defs759" /><sodipodi:namedview
     pagecolor="#ffffff"
     bordercolor="#666666"
     borderopacity="1"
     objecttolerance="10"
     gridtolerance="10"
     guidetolerance="10"
     inkscape:pageopacity="0"
     inkscape:pageshadow="2"
     inkscape:window-width="1920"
     inkscape:window-height="1057"
     id="namedview757"
     showgrid="false"
     inkscape:zoom="3.6681969"
     inkscape:cx="409.47402"
     inkscape:cy="85.159645"
     inkscape:window-x="1912"
     inkscape:window-y="-8"
     inkscape:window-maximized="1"
     inkscape:current-layer="Layer_1" /><path
     fill="#181515"
     d="M1020.6,444.1"
     id="path3" /><g
     id="g5"><rect
       x="0"
       width="549"
       height="342.60001"
       id="rect7"
       y="0"
       style="fill:#2d2a2a" /><polygon
       points="9,234.4 9,342.6 0,342.6 0,0 20,0 20,214.3 "
       id="polygon9"
       style="fill:#231e1e" /><polygon
       points="540,234.4 540,342.6 549,342.6 549,0 529,0 528.9,214.1 "
       id="polygon11"
       style="fill:#231e1e" /><path
       d="m 239.6,221.7 -210.4,0 c -4.6,0 -8.4,-3.3 -9.1,-7.7 L 9,234.4 c 3.3,4.3 9.7,7.3 14.5,5.8 5.7,-1.8 8.3,-7 8.3,-14.5 l 110.2,0 0,0.2 c 0.1,7.1 2.6,12 8.3,13.8 l 89.3,0 c 15.5,-0.3 18.3,1.7 26.7,10.9 22.6,26.8 60.5,44.4 103.4,44.4 43,0 80.9,-17.6 103.4,-44.4 5.4,-6.4 6.6,-9.3 15,-10.1 10.3,-0.9 48,0 51.9,-6.1 0,0 -11.1,-20.3 -11.1,-20.3 -0.8,4.3 -4.6,7.7 -9.1,7.7 -11.6,0.7 -26.8,-0.3 -29.4,3.4 -16,22.2 -54.9,62.2 -119.2,62.2 -64.3,0 -90.5,-29.4 -116.4,-57.1 -5.7,-6.8 -6.4,-8.8 -15.2,-8.6"
       id="path13"
       inkscape:connector-curvature="0"
       style="fill:#181515" /><path
       d="m 519.6,221.8 c -11.6,0.7 -29.6,-0.3 -32.2,3.4 -16,22.2 -52.2,62.2 -116.6,62.2 -64.4,0 -90.6,-29.4 -116.6,-57.1 -5.7,-6.7 -6.4,-8.7 -15.2,-8.5 l 0,0 -210.7,0 c -5.1,0 -9.3,-4.2 -9.3,-9.3 L 19,0 l 509.9,0 0,212.5 c 0,5.1 -4.2,9.2 -9.3,9.3"
       id="path15"
       inkscape:connector-curvature="0"
       style="fill:#312f2f" /><path
       stroke-miterlimit="10"
       d="M 528.8,217.1"
       id="path17"
       inkscape:connector-curvature="0"
       style="fill:none;stroke:#d6d5d5;stroke-miterlimit:10" /><path
       d="m 36.2,317.5 -10.9,-78 c 3.2,-1.6 5.2,-4.5 6.1,-8.5 l 4.8,86.5 z"
       id="path19"
       inkscape:connector-curvature="0"
       style="fill:#181515" /><path
       d="m 138.7,317.5 3.3,-91.6 c 0.1,7.1 2.6,12 8.3,13.8 l -11.6,77.8 z"
       id="path21"
       inkscape:connector-curvature="0"
       style="fill:#181515" /><g
       id="g23"><rect
         x="49.900002"
         y="243.5"
         width="19.299999"
         height="69.5"
         id="rect25" /><rect
         x="50.599998"
         y="244.2"
         width="6.5"
         height="68.900002"
         id="rect27"
         style="fill:#1b1818" /><rect
         x="61.900002"
         y="244.2"
         width="6.5"
         height="68.900002"
         id="rect29"
         style="fill:#1b1818" /><g
         id="g31"><rect
           x="52.400002"
           y="248"
           width="14.2"
           height="6.9000001"
           id="rect33"
           style="fill:#2b2828" /><rect
           x="52.400002"
           y="262.39999"
           width="14.2"
           height="0.40000001"
           id="rect35"
           style="fill:#3c3b3b" /><rect
           x="52.400002"
           y="267.20001"
           width="14.2"
           height="10.1"
           id="rect37"
           style="fill:#3f3f3e" /><rect
           x="52.400002"
           y="254.89999"
           width="14.2"
           height="7.5"
           id="rect39"
           style="fill:#333030" /><rect
           x="52.400002"
           y="249.10001"
           width="14.2"
           height="0.80000001"
           id="rect41"
           style="fill:#5d1314" /><rect
           x="52.400002"
           y="262.89999"
           width="14.2"
           height="0.89999998"
           id="rect43"
           style="fill:#414040" /><rect
           x="52.400002"
           y="263.70001"
           width="14.2"
           height="0.40000001"
           id="rect45"
           style="fill:#464646" /><rect
           x="52.400002"
           y="264.20001"
           width="14.2"
           height="0.40000001"
           id="rect47"
           style="fill:#535353" /><rect
           x="52.400002"
           y="264.60001"
           width="14.2"
           height="0.40000001"
           id="rect49"
           style="fill:#5f5f5f" /><rect
           x="52.400002"
           y="265"
           width="14.2"
           height="0.40000001"
           id="rect51"
           style="fill:#6a6a6a" /><rect
           x="52.400002"
           y="265.5"
           width="14.2"
           height="0.40000001"
           id="rect53"
           style="fill:#707070" /><rect
           x="52.400002"
           y="265.89999"
           width="14.2"
           height="0.40000001"
           id="rect55"
           style="fill:#6a6969" /><rect
           x="52.400002"
           y="266.39999"
           width="14.2"
           height="0.40000001"
           id="rect57"
           style="fill:#5a5a5a" /><rect
           x="52.400002"
           y="266.79999"
           width="14.2"
           height="0.40000001"
           id="rect59"
           style="fill:#484848" /></g><polygon
         points="47.4,239.8 71.6,239.8 69.1,243.5 49.9,243.5 "
         id="polygon61"
         style="fill:#0d0d0c" /><polygon
         points="47.4,316.8 71.6,316.8 69.1,313.1 49.9,313.1 "
         id="polygon63"
         style="fill:#4e4b4a" /><polygon
         points="47.4,239.8 49.9,243.5 49.9,313.1 47.4,316.8 "
         id="polygon65"
         style="fill:#211e1d" /><polygon
         points="71.6,239.8 69.1,243.5 69.1,313.1 71.6,316.8 "
         id="polygon67"
         style="fill:#211e1d" /></g><g
       id="g69"><path
         stroke-miterlimit="10"
         d="M 116.6,248.1"
         id="path71"
         inkscape:connector-curvature="0"
         style="fill:none;stroke:#5d1314;stroke-miterlimit:10" /><path
         stroke-miterlimit="10"
         d="M 116.6,255.8"
         id="path73"
         inkscape:connector-curvature="0"
         style="fill:none;stroke:#5d1314;stroke-miterlimit:10" /><path
         stroke-miterlimit="10"
         d="M 127.3,255.8"
         id="path75"
         inkscape:connector-curvature="0"
         style="fill:none;stroke:#5d1314;stroke-miterlimit:10" /><g
         id="g77"><rect
           x="100.3"
           y="248"
           width="9.1999998"
           height="7.5999999"
           id="rect79"
           style="fill:#414748" /><polygon
           points="89.7,243.8 120.1,243.8 109.5,248 100.3,248 "
           id="polygon81"
           style="fill:#262323" /><polygon
           points="89.7,243.8 100.3,248 100.3,255.6 89.7,259.7 "
           id="polygon83"
           style="fill:#33302f" /><polygon
           points="89.7,259.7 120.1,259.7 109.5,255.6 100.3,255.6 "
           id="polygon85"
           style="fill:#262323" /><path
           d="m 105,257.8 0,0 c -0.3,0 -0.5,-0.2 -0.5,-0.4 l 0,-11.2 c 0,-0.2 0.2,-0.4 0.4,-0.4 l 0.1,0 c 0.2,0 0.4,0.2 0.4,0.4 l 0,11.2 c -0.1,0.2 -0.2,0.4 -0.4,0.4 z"
           id="path87"
           inkscape:connector-curvature="0"
           style="fill:#5d1314" /><polygon
           points="120.1,243.8 109.5,248 109.5,255.6 120.1,259.7 "
           id="polygon89"
           style="fill:#33302f" /></g><rect
         x="120.1"
         y="243.8"
         width="7.6999998"
         height="15.9"
         id="rect91"
         style="fill:#282828" /><polygon
         points="86.9,241.1 130.7,241.1 127.8,243.8 89.7,243.8 "
         id="polygon93"
         style="fill:#0d0d0c" /><polygon
         points="86.9,262.5 130.7,262.5 127.8,259.7 89.7,259.7 "
         id="polygon95"
         style="fill:#4e4b4a" /><polygon
         points="89.7,243.8 86.9,241.1 86.9,262.5 89.7,259.7 "
         id="polygon97"
         style="fill:#211e1d" /><polygon
         points="127.8,243.8 130.7,241.1 130.7,262.5 127.8,259.7 "
         id="polygon99"
         style="fill:#211e1d" /><g
         id="g101"><path
           d="m 87.8,265.9 c 0,-0.4 0.1,-0.8 0.2,-1.1 0.1,-0.2 0.2,-0.4 0.4,-0.6 0.2,-0.2 0.4,-0.3 0.6,-0.4 0.3,-0.1 0.6,-0.2 0.9,-0.2 0.6,0 1.1,0.2 1.5,0.6 0.4,0.4 0.6,0.9 0.6,1.6 0,0.7 -0.2,1.2 -0.6,1.6 -0.4,0.4 -0.9,0.6 -1.5,0.6 -0.6,0 -1.1,-0.2 -1.5,-0.6 -0.5,-0.3 -0.6,-0.8 -0.6,-1.5 z m 0.8,-0.1 c 0,0.5 0.1,0.9 0.3,1.1 0.2,0.3 0.5,0.4 0.9,0.4 0.4,0 0.6,-0.1 0.9,-0.4 0.2,-0.3 0.3,-0.6 0.3,-1.1 0,-0.5 -0.1,-0.9 -0.3,-1.1 -0.2,-0.2 -0.5,-0.4 -0.9,-0.4 -0.4,0 -0.6,0.1 -0.9,0.4 -0.1,0.3 -0.3,0.7 -0.3,1.1 z"
           id="path103"
           inkscape:connector-curvature="0"
           style="fill:#c4c4c4" /><path
           d="m 92.6,268 0,-4.3 0.8,0 1.8,2.9 0,-2.9 0.8,0 0,4.3 -0.9,0 -1.7,-2.8 0,2.8 -0.8,0 z"
           id="path105"
           inkscape:connector-curvature="0"
           style="fill:#c4c4c4" /></g><g
         id="g107"><path
           d="m 118.3,265.9 c 0,-0.4 0.1,-0.8 0.2,-1.1 0.1,-0.2 0.2,-0.4 0.4,-0.6 0.2,-0.2 0.4,-0.3 0.6,-0.4 0.3,-0.1 0.6,-0.2 0.9,-0.2 0.6,0 1.1,0.2 1.5,0.6 0.4,0.4 0.6,0.9 0.6,1.6 0,0.7 -0.2,1.2 -0.6,1.6 -0.4,0.4 -0.9,0.6 -1.5,0.6 -0.6,0 -1.1,-0.2 -1.5,-0.6 -0.4,-0.3 -0.6,-0.8 -0.6,-1.5 z m 0.9,-0.1 c 0,0.5 0.1,0.9 0.3,1.1 0.2,0.3 0.5,0.4 0.9,0.4 0.4,0 0.6,-0.1 0.9,-0.4 0.2,-0.3 0.3,-0.6 0.3,-1.1 0,-0.5 -0.1,-0.9 -0.3,-1.1 -0.2,-0.2 -0.5,-0.4 -0.9,-0.4 -0.4,0 -0.6,0.1 -0.9,0.4 -0.2,0.3 -0.3,0.7 -0.3,1.1 z"
           id="path109"
           inkscape:connector-curvature="0"
           style="fill:#c4c4c4" /><path
           d="m 123.2,268 0,-4.3 2.9,0 0,0.7 -2.1,0 0,1 1.8,0 0,0.7 -1.8,0 0,1.8 -0.8,0 z"
           id="path111"
           inkscape:connector-curvature="0"
           style="fill:#c4c4c4" /><path
           d="m 126.9,268 0,-4.3 2.9,0 0,0.7 -2.1,0 0,1 1.8,0 0,0.7 -1.8,0 0,1.8 -0.8,0 z"
           id="path113"
           inkscape:connector-curvature="0"
           style="fill:#c4c4c4" /></g></g><g
       id="g115"><g
         id="g117"><rect
           x="42.599998"
           y="246.2"
           width="2.9000001"
           height="1"
           id="rect119"
           style="fill:#c4c4c4" /><rect
           x="42.599998"
           y="262.70001"
           width="2.9000001"
           height="1"
           id="rect121"
           style="fill:#c4c4c4" /><rect
           x="42.599998"
           y="279.10001"
           width="2.9000001"
           height="1"
           id="rect123"
           style="fill:#c4c4c4" /></g><g
         id="g125"><path
           d="m 38.7,248.4 -0.7,0 0,-2.6 c -0.3,0.2 -0.5,0.4 -0.9,0.5 l 0,-0.6 c 0.2,-0.1 0.4,-0.2 0.6,-0.3 0.2,-0.2 0.4,-0.4 0.4,-0.6 l 0.6,0 0,3.6 z"
           id="path127"
           inkscape:connector-curvature="0"
           style="fill:#c4c4c4" /><path
           d="m 40.9,244.8 c 0.3,0 0.6,0.1 0.8,0.4 0.2,0.3 0.3,0.8 0.3,1.5 0,0.7 -0.1,1.2 -0.4,1.5 -0.2,0.2 -0.5,0.4 -0.8,0.4 -0.3,0 -0.6,-0.1 -0.8,-0.4 -0.2,-0.3 -0.3,-0.7 -0.3,-1.4 0,-0.7 0.1,-1.2 0.4,-1.5 0.1,-0.4 0.4,-0.5 0.8,-0.5 z m 0,0.6 c -0.1,0 -0.2,0 -0.2,0.1 0,0.1 -0.1,0.1 -0.2,0.3 0,0.2 -0.1,0.5 -0.1,0.9 0,0.4 0,0.7 0.1,0.9 0.1,0.2 0.1,0.3 0.2,0.3 0.1,0.1 0.1,0.1 0.2,0.1 0.1,0 0.2,0 0.2,-0.1 0,-0.1 0.1,-0.1 0.2,-0.3 0,-0.2 0.1,-0.5 0.1,-0.9 0,-0.4 0,-0.7 -0.1,-0.9 -0.1,-0.2 -0.1,-0.3 -0.2,-0.3 -0.1,-0.1 -0.2,-0.1 -0.2,-0.1 z"
           id="path129"
           inkscape:connector-curvature="0"
           style="fill:#c4c4c4" /></g><g
         id="g131"><path
           d="m 39.6,263.9 0.7,-0.1 c 0,0.2 0.1,0.3 0.2,0.4 0.1,0.1 0.2,0.1 0.3,0.1 0.1,0 0.3,-0.1 0.4,-0.2 0.1,-0.1 0.1,-0.3 0.1,-0.5 0,-0.2 0,-0.4 -0.1,-0.5 -0.1,-0.1 -0.2,-0.2 -0.4,-0.2 -0.2,0 -0.4,0.1 -0.5,0.3 l -0.6,-0.1 0.4,-1.9 1.8,0 0,0.6 -1.3,0 -0.1,0.6 c 0.2,-0.1 0.3,-0.1 0.5,-0.1 0.3,0 0.6,0.1 0.8,0.3 0.2,0.2 0.3,0.5 0.3,0.9 0,0.3 -0.1,0.6 -0.3,0.8 -0.2,0.3 -0.6,0.5 -1,0.5 -0.3,0 -0.6,-0.1 -0.8,-0.3 -0.2,-0.2 -0.4,-0.3 -0.4,-0.6 z"
           id="path133"
           inkscape:connector-curvature="0"
           style="fill:#c4c4c4" /></g><g
         id="g135"><path
           d="m 40.7,277.8 c 0.3,0 0.6,0.1 0.8,0.4 0.2,0.3 0.3,0.8 0.3,1.5 0,0.7 -0.1,1.2 -0.4,1.5 -0.2,0.2 -0.5,0.4 -0.8,0.4 -0.3,0 -0.6,-0.1 -0.8,-0.4 -0.2,-0.3 -0.3,-0.7 -0.3,-1.4 0,-0.7 0.1,-1.2 0.4,-1.5 0.2,-0.4 0.5,-0.5 0.8,-0.5 z m 0,0.5 c -0.1,0 -0.2,0 -0.2,0.1 0,0.1 -0.1,0.1 -0.2,0.3 0,0.2 -0.1,0.5 -0.1,0.9 0,0.4 0,0.7 0.1,0.9 0.1,0.2 0.1,0.3 0.2,0.3 0.1,0.1 0.1,0.1 0.2,0.1 0.1,0 0.2,0 0.2,-0.1 0,-0.1 0.1,-0.1 0.2,-0.3 0,-0.2 0.1,-0.5 0.1,-0.9 0,-0.4 0,-0.7 -0.1,-0.9 -0.1,-0.2 -0.1,-0.3 -0.2,-0.3 0,0 -0.1,-0.1 -0.2,-0.1 z"
           id="path137"
           inkscape:connector-curvature="0"
           style="fill:#c4c4c4" /></g></g><path
       d="M 70.5,41 0,41 l 0,157.9 70.5,0 c 3.3,0 6,-2.7 6,-6 L 76.5,47 c 0,-3.3 -2.7,-6 -6,-6 z"
       id="path139"
       inkscape:connector-curvature="0"
       style="fill:#1e1b1b" /><g
       id="g141"><path
         d="m 71.5,52.3 -71.5,0 0,-6.2 71.5,0 c 0.5,0 0.9,0.4 0.9,0.9 l 0,4.3 c 0,0.6 -0.4,1 -0.9,1 z"
         id="path143"
         inkscape:connector-curvature="0"
         style="fill:#070606" /><path
         d="m 71.1,51.2 -52.1,0 0,-6 52.1,0 c 0.5,0 0.9,0.4 0.9,0.9 l 0,4.1 c 0.1,0.6 -0.3,1 -0.9,1 z"
         id="path145"
         inkscape:connector-curvature="0"
         style="fill:#282424" /><rect
         x="0"
         y="45.200001"
         width="19"
         height="6"
         id="rect147"
         style="fill:#1e1b1b" /><rect
         x="0"
         y="45.200001"
         width="19"
         height="0.89999998"
         id="rect149"
         style="fill:#252222" /><path
         d="m 72.1,46.1 -53.1,0 0,-0.9 52.1,0 c 0.6,0 1,0.4 1,0.9 l 0,0 z"
         id="path151"
         inkscape:connector-curvature="0"
         style="fill:#3c3939" /></g><path
       stroke-miterlimit="10"
       d="M 469.4,242.9"
       id="path153"
       inkscape:connector-curvature="0"
       style="fill:none;stroke:#d6d5d5;stroke-miterlimit:10" /><path
       stroke-miterlimit="10"
       d="M 366.1,269.4"
       id="path155"
       inkscape:connector-curvature="0"
       style="fill:none;stroke:#d6d5d5;stroke-miterlimit:10" /><ellipse
       cx="370.79999"
       cy="143.7"
       rx="140.5"
       ry="141"
       id="ellipse157"
       style="fill:#1b1818" /><ellipse
       cx="370.20001"
       cy="140.5"
       rx="121.2"
       ry="116.7"
       id="ellipse159"
       style="fill:#2c2929" /><path
       d="m 456.9,115 -173.4,0 c -10.3,0 -18.8,-8.5 -18.8,-18.8 l 0,0 c 0,-10.3 8.5,-18.8 18.8,-18.8 l 173.4,0 c 10.3,0 18.8,8.5 18.8,18.8 l 0,0 c 0,10.3 -8.5,18.8 -18.8,18.8 z"
       id="path161"
       inkscape:connector-curvature="0"
       style="fill:#181515" /><path
       d="m 369.9,110.8 83.2,0 c 5.6,0 10.1,-4.3 10.1,-19 l -10.1,0 0,-7.6 0.3,0 -83.2,0 0,0 -83.2,0 0.3,0 0,7.6 -10.1,0 c 0,14.7 4.5,19 10.1,19 l 83.2,0"
       id="path163"
       inkscape:connector-curvature="0" /><path
       d="m 369.9,109.8 82.4,0 c 5.5,0 10,-4 10,-17.6 l -10,0 0,-7 0.3,0 -82.4,0 0,0 -82.4,0 0.3,0 0,7 -10,0 c 0,13.6 4.5,17.6 10,17.6 l 82.4,0"
       id="path165"
       inkscape:connector-curvature="0"
       style="fill:#282424" /><rect
       x="278.60001"
       y="98.699997"
       width="183.2"
       height="0.89999998"
       id="rect167"
       style="fill:#010102" /><g
       id="g169"><g
         id="g171"><path
           d="m 300,87.8 -1.8,0 c 0,-0.4 0.4,-0.7 0.9,-0.7 l 0,0 c 0.5,0 0.9,0.3 0.9,0.7 z"
           id="path173"
           inkscape:connector-curvature="0"
           style="fill:#363636" /><path
           d="m 300,95.8 -1.8,0 c 0,0.4 0.4,0.7 0.9,0.7 l 0,0 c 0.5,0 0.9,-0.3 0.9,-0.7 z"
           id="path175"
           inkscape:connector-curvature="0"
           style="fill:#464646" /><rect
           x="298.20001"
           y="87.800003"
           width="1.8"
           height="8"
           id="rect177"
           style="fill:#424141" /></g><g
         id="g179"><path
           d="m 300,101.8 -1.8,0 c 0,-0.3 0.4,-0.6 0.9,-0.6 l 0,0 c 0.5,0 0.9,0.3 0.9,0.6 z"
           id="path181"
           inkscape:connector-curvature="0"
           style="fill:#363636" /><path
           d="m 300,108.2 -1.8,0 c 0,0.3 0.4,0.6 0.9,0.6 l 0,0 c 0.5,0 0.9,-0.2 0.9,-0.6 z"
           id="path183"
           inkscape:connector-curvature="0"
           style="fill:#464646" /><rect
           x="298.20001"
           y="101.8"
           width="1.8"
           height="6.5"
           id="rect185"
           style="fill:#424141" /></g><g
         id="g187"><path
           d="m 440.4,87.8 1.8,0 c 0,-0.4 -0.4,-0.7 -0.9,-0.7 l 0,0 c -0.5,0 -0.9,0.3 -0.9,0.7 z"
           id="path189"
           inkscape:connector-curvature="0"
           style="fill:#363636" /><path
           d="m 440.4,95.8 1.8,0 c 0,0.4 -0.4,0.7 -0.9,0.7 l 0,0 c -0.5,0 -0.9,-0.3 -0.9,-0.7 z"
           id="path191"
           inkscape:connector-curvature="0"
           style="fill:#464646" /><rect
           x="440.39999"
           y="87.800003"
           width="1.8"
           height="8"
           id="rect193"
           style="fill:#424141" /></g><g
         id="g195"><path
           d="m 440.4,101.8 1.8,0 c 0,-0.3 -0.4,-0.6 -0.9,-0.6 l 0,0 c -0.5,0 -0.9,0.3 -0.9,0.6 z"
           id="path197"
           inkscape:connector-curvature="0"
           style="fill:#363636" /><path
           d="m 440.4,108.2 1.8,0 c 0,0.3 -0.4,0.6 -0.9,0.6 l 0,0 c -0.5,0 -0.9,-0.2 -0.9,-0.6 z"
           id="path199"
           inkscape:connector-curvature="0"
           style="fill:#464646" /><rect
           x="440.39999"
           y="101.8"
           width="1.8"
           height="6.5"
           id="rect201"
           style="fill:#424141" /></g></g><path
       d="m 320,276.5 0,-29.7 c 15.3,6.7 32.3,10.4 50.2,10.4 17.9,0 34.9,-3.7 50.2,-10.4 l 0,0 0,29.6 0,-0.8 c -15.7,5.5 -32.6,9.1 -50.2,9.1 -17.6,0 -34.5,-4.1 -50.2,-9.6"
       id="path203"
       inkscape:connector-curvature="0"
       style="fill:#a02b59" /><g
       id="g205"><ellipse
         cx="370.20001"
         cy="270.29999"
         rx="3.3"
         ry="3.5"
         id="ellipse207"
         style="fill:#631418" /><circle
         cx="370.20001"
         cy="270.29999"
         id="ellipse209"
         r="2.3"
         style="fill:#f95d5d" /><g
         id="g211"><g
           id="g213"><path
             d="m 343.1,266.2 c 0.6,0.1 0.8,0.1 1.4,0.2 0.1,0 0.3,0 0.4,0.1 0.1,0 0.2,0.1 0.3,0.1 0.1,0 0.2,0.1 0.3,0.2 0.1,0.1 0.2,0.1 0.2,0.2 0,0.1 0.1,0.2 0.1,0.3 0,0.1 0,0.3 0,0.4 0,0.4 -0.2,0.7 -0.5,0.8 -0.3,0.2 -0.6,0.2 -1.1,0.2 -0.3,0 -0.5,-0.1 -0.8,-0.1 -0.1,0.6 -0.1,0.8 -0.2,1.4 -0.3,0 -0.4,-0.1 -0.7,-0.1 0.3,-1.5 0.4,-2.2 0.6,-3.7 z m 0.5,1.8 c 0.3,0 0.5,0.1 0.8,0.1 0.1,0 0.2,0 0.3,0 0.1,0 0.2,0 0.2,-0.1 0.1,0 0.1,-0.1 0.1,-0.2 0,-0.1 0.1,-0.1 0.1,-0.2 0,-0.1 0,-0.2 0,-0.3 0,-0.1 -0.1,-0.1 -0.1,-0.2 -0.1,0 -0.1,-0.1 -0.2,-0.1 -0.1,0 -0.2,0 -0.3,-0.1 -0.3,0 -0.5,-0.1 -0.8,-0.1 0,0.6 -0.1,0.8 -0.1,1.2 z"
             id="path215"
             inkscape:connector-curvature="0"
             style="fill:#391516" /><path
             d="m 348.3,266.8 c 0.3,0 0.5,0.1 0.7,0.2 0.2,0.1 0.4,0.3 0.5,0.4 0.1,0.2 0.2,0.4 0.3,0.6 0.1,0.2 0.1,0.5 0.1,0.8 0,0.3 -0.1,0.5 -0.2,0.8 -0.1,0.3 -0.3,0.4 -0.4,0.6 -0.2,0.1 -0.4,0.3 -0.6,0.3 -0.2,0.1 -0.5,0.1 -0.7,0.1 -0.3,0 -0.5,-0.1 -0.7,-0.2 -0.2,-0.1 -0.4,-0.3 -0.5,-0.5 -0.1,-0.2 -0.2,-0.4 -0.3,-0.6 -0.1,-0.2 -0.1,-0.5 0,-0.8 0,-0.3 0.1,-0.5 0.2,-0.8 0.1,-0.2 0.3,-0.4 0.4,-0.6 0.2,-0.1 0.4,-0.3 0.6,-0.3 0.1,0 0.4,0 0.6,0 z M 348,270 c 0.2,0 0.3,0 0.5,0 0.1,0 0.3,-0.1 0.4,-0.2 0.1,-0.1 0.2,-0.2 0.3,-0.4 0.1,-0.2 0.1,-0.3 0.1,-0.5 0,-0.2 0,-0.4 0,-0.6 0,-0.2 -0.1,-0.3 -0.2,-0.4 -0.1,-0.1 -0.2,-0.2 -0.3,-0.3 -0.1,-0.1 -0.3,-0.1 -0.4,-0.1 -0.2,0 -0.3,0 -0.4,0 -0.1,0 -0.3,0.1 -0.4,0.2 -0.1,0.1 -0.2,0.2 -0.3,0.4 -0.1,0.2 -0.1,0.3 -0.1,0.5 0,0.2 0,0.4 0,0.6 0,0.2 0.1,0.3 0.2,0.4 0.1,0.1 0.2,0.2 0.3,0.3 0,0.1 0.1,0.1 0.3,0.1 z"
             id="path217"
             inkscape:connector-curvature="0"
             style="fill:#391516" /><path
             d="m 355.3,267.6 c -0.5,1.4 -0.8,2.2 -1.3,3.6 -0.3,0 -0.4,0 -0.6,-0.1 -0.2,-1.1 -0.3,-1.7 -0.5,-2.8 -0.4,1.1 -0.6,1.6 -1,2.6 -0.3,0 -0.4,0 -0.6,-0.1 -0.3,-1.5 -0.4,-2.3 -0.7,-3.8 0.3,0 0.4,0 0.7,0.1 0.1,1 0.2,1.5 0.4,2.5 0.4,-1 0.6,-1.4 0.9,-2.4 0.3,0 0.4,0 0.7,0.1 0.2,1 0.3,1.5 0.5,2.5 0.3,-1 0.5,-1.5 0.8,-2.4 0.2,0.1 0.4,0.1 0.7,0.2 z"
             id="path219"
             inkscape:connector-curvature="0"
             style="fill:#391516" /><path
             d="m 358.4,271.5 c -1.2,-0.1 -1.7,-0.1 -2.9,-0.2 0.1,-1.5 0.2,-2.2 0.3,-3.7 1.1,0.1 1.7,0.1 2.8,0.2 0,0.3 0,0.4 0,0.6 -0.8,-0.1 -1.2,-0.1 -2.1,-0.1 0,0.3 0,0.5 -0.1,0.8 0.8,0.1 1.2,0.1 1.9,0.1 0,0.3 0,0.4 0,0.6 -0.8,0 -1.2,-0.1 -2,-0.1 0,0.4 0,0.6 -0.1,1 0.9,0.1 1.3,0.1 2.2,0.1 0.1,0.3 0,0.5 0,0.7 z"
             id="path221"
             inkscape:connector-curvature="0"
             style="fill:#391516" /><path
             d="m 362.4,271.7 c -0.3,0 -0.5,0 -0.8,0 -0.1,-0.4 -0.2,-0.6 -0.3,-1 0,-0.1 -0.1,-0.1 -0.1,-0.2 0,-0.1 -0.1,-0.1 -0.1,-0.2 -0.1,0 -0.1,-0.1 -0.2,-0.1 -0.1,0 -0.1,0 -0.2,0 -0.3,0 -0.5,0 -0.8,0 0,0.6 0,0.9 -0.1,1.5 -0.3,0 -0.4,0 -0.7,0 0.1,-1.5 0.1,-2.2 0.2,-3.7 0.7,0 1,0.1 1.7,0.1 0.1,0 0.2,0 0.3,0 0.1,0 0.2,0 0.3,0 0.1,0 0.2,0 0.2,0.1 0.1,0 0.1,0.1 0.2,0.1 0.1,0.1 0.1,0.1 0.2,0.2 0,0.1 0.1,0.1 0.1,0.2 0,0.1 0,0.1 0.1,0.2 0,0.1 0,0.2 0,0.2 0,0.2 -0.1,0.4 -0.2,0.6 -0.1,0.2 -0.3,0.3 -0.5,0.4 0.2,0.1 0.3,0.3 0.4,0.6 0.1,0.3 0.2,0.6 0.3,1 z m -2.4,-2.2 c 0.4,0 0.6,0 0.9,0 0.1,0 0.2,0 0.3,0 0.1,0 0.2,0 0.2,-0.1 0.1,0 0.1,-0.1 0.1,-0.1 0,-0.1 0,-0.1 0,-0.2 0,-0.2 0,-0.3 -0.1,-0.4 -0.1,-0.1 -0.3,-0.1 -0.5,-0.1 -0.4,0 -0.6,0 -1,0 0.1,0.3 0.1,0.5 0.1,0.9 z"
             id="path223"
             inkscape:connector-curvature="0"
             style="fill:#391516" /><path
             d="m 391.8,266.9 c 0.3,0 0.5,0 0.7,0.1 0.2,0.1 0.4,0.2 0.6,0.3 0.2,0.1 0.3,0.3 0.4,0.6 0.1,0.2 0.2,0.5 0.2,0.8 0,0.3 0,0.5 0,0.8 -0.1,0.2 -0.2,0.5 -0.3,0.6 -0.1,0.2 -0.3,0.3 -0.5,0.5 -0.2,0.2 -0.4,0.2 -0.7,0.2 -0.3,0 -0.5,0 -0.7,-0.1 -0.2,-0.1 -0.4,-0.2 -0.6,-0.3 -0.2,-0.1 -0.3,-0.3 -0.4,-0.6 -0.1,-0.2 -0.2,-0.5 -0.2,-0.8 0,-0.3 0,-0.6 0.1,-0.8 0.1,-0.2 0.2,-0.5 0.3,-0.6 0.1,-0.2 0.3,-0.3 0.5,-0.4 0.1,-0.2 0.3,-0.3 0.6,-0.3 z m 0.4,3.2 c 0.2,0 0.3,-0.1 0.4,-0.1 0.1,-0.1 0.2,-0.2 0.3,-0.3 0.1,-0.1 0.1,-0.3 0.2,-0.4 0,-0.2 0,-0.3 0,-0.6 0,-0.2 -0.1,-0.4 -0.1,-0.5 -0.1,-0.2 -0.2,-0.3 -0.3,-0.4 -0.1,-0.1 -0.2,-0.2 -0.4,-0.2 -0.1,0 -0.3,-0.1 -0.4,0 -0.2,0 -0.3,0.1 -0.4,0.1 -0.1,0 -0.2,0.2 -0.3,0.3 -0.1,0.1 -0.1,0.3 -0.2,0.4 0,0.2 0,0.3 0,0.5 0,0.2 0.1,0.4 0.1,0.5 0.1,0.2 0.2,0.3 0.3,0.4 0.1,0.1 0.2,0.2 0.4,0.2 0.2,0 0.2,0.1 0.4,0.1 z"
             id="path225"
             inkscape:connector-curvature="0"
             style="fill:#391516" /><path
             d="m 397.8,269.9 c -0.3,0 -0.4,0.1 -0.7,0.1 -0.8,-0.9 -1.2,-1.3 -2,-2.2 0.1,1 0.2,1.5 0.3,2.5 -0.3,0 -0.4,0.1 -0.7,0.1 -0.2,-1.5 -0.3,-2.2 -0.5,-3.7 0.3,0 0.4,0 0.7,-0.1 0.8,0.9 1.2,1.3 2,2.2 -0.1,-1 -0.2,-1.5 -0.3,-2.5 0.3,0 0.4,-0.1 0.7,-0.1 0.2,1.5 0.3,2.2 0.5,3.7 z"
             id="path227"
             inkscape:connector-curvature="0"
             style="fill:#391516" /><path
             d="m 388.4,269.3 0,0.7 c 0,0.1 -3.1,0.3 -6.9,0.5 -3.8,0.2 -6.9,0.4 -6.9,0.3 l 0,-0.7 c 0,0.1 3.1,-0.1 6.9,-0.3 3.8,-0.2 6.9,-0.5 6.9,-0.5 z"
             id="path229"
             inkscape:connector-curvature="0"
             style="fill:#391516" /></g></g></g><path
       d="m 421.9,175.5 0,71.2 0,0 c -15.7,6.8 -33.2,10.6 -51.7,10.6 -18.4,0 -35.9,-3.8 -51.7,-10.6 l 0,-71.2 c 0,-6.7 5.6,-12.1 12.4,-12.1 l 78.6,0 c 6.8,0 12.4,5.4 12.4,12.1 z"
       id="path231"
       inkscape:connector-curvature="0" /><path
       d="m 419.9,176.5 0,70.3 0,0 c -15.3,6.7 -32.3,10.4 -50.2,10.4 -17.9,0 -34.9,-3.7 -50.2,-10.4 l 0,-70.3 c 0,-6.6 5.4,-12 12,-12 l 76.3,0 c 6.7,0 12.1,5.4 12.1,12 z"
       id="path233"
       inkscape:connector-curvature="0"
       style="fill:#211f1f" /><g
       id="g235"><path
         d="M 71.5,62 0,62 l 0,-6.2 71.5,0 c 0.5,0 0.9,0.4 0.9,0.9 l 0,4.3 c 0,0.6 -0.4,1 -0.9,1 z"
         id="path237"
         inkscape:connector-curvature="0"
         style="fill:#070606" /><path
         d="m 71.1,60.9 -52.1,0 0,-6 52.1,0 c 0.5,0 0.9,0.4 0.9,0.9 l 0,4.2 c 0.1,0.5 -0.3,0.9 -0.9,0.9 z"
         id="path239"
         inkscape:connector-curvature="0"
         style="fill:#282424" /><rect
         x="0"
         y="54.900002"
         width="19"
         height="6"
         id="rect241"
         style="fill:#1e1b1b" /><rect
         x="0"
         y="54.900002"
         width="19"
         height="0.89999998"
         id="rect243"
         style="fill:#252222" /><path
         d="m 72.1,55.8 -53.1,0 0,-0.9 52.1,0 c 0.6,0 1,0.4 1,0.9 l 0,0 z"
         id="path245"
         inkscape:connector-curvature="0"
         style="fill:#3c3939" /></g><g
       id="g247"><path
         d="m 71.5,71.7 -71.5,0 0,-6.2 71.5,0 c 0.5,0 0.9,0.4 0.9,0.9 l 0,4.3 c 0,0.6 -0.4,1 -0.9,1 z"
         id="path249"
         inkscape:connector-curvature="0"
         style="fill:#070606" /><path
         d="m 71.1,70.6 -52.1,0 0,-6 52.1,0 c 0.5,0 0.9,0.4 0.9,0.9 l 0,4.1 c 0.1,0.6 -0.3,1 -0.9,1 z"
         id="path251"
         inkscape:connector-curvature="0"
         style="fill:#282424" /><rect
         x="0"
         y="64.599998"
         width="19"
         height="6"
         id="rect253"
         style="fill:#1e1b1b" /><rect
         x="0"
         y="64.599998"
         width="19"
         height="0.89999998"
         id="rect255"
         style="fill:#252222" /><path
         d="m 72.1,65.5 -53.1,0 0,-0.9 52.1,0 c 0.6,0 1,0.4 1,0.9 l 0,0 z"
         id="path257"
         inkscape:connector-curvature="0"
         style="fill:#3c3939" /></g><g
       id="g259"><path
         d="m 71.5,81.4 -71.5,0 0,-6.2 71.5,0 c 0.5,0 0.9,0.4 0.9,0.9 l 0,4.3 c 0,0.6 -0.4,1 -0.9,1 z"
         id="path261"
         inkscape:connector-curvature="0"
         style="fill:#070606" /><path
         d="m 71.1,80.3 -52.1,0 0,-6 52.1,0 c 0.5,0 0.9,0.4 0.9,0.9 l 0,4.1 c 0.1,0.6 -0.3,1 -0.9,1 z"
         id="path263"
         inkscape:connector-curvature="0"
         style="fill:#282424" /><rect
         x="0"
         y="74.300003"
         width="19"
         height="6"
         id="rect265"
         style="fill:#1e1b1b" /><rect
         x="0"
         y="74.300003"
         width="19"
         height="0.89999998"
         id="rect267"
         style="fill:#252222" /><path
         d="m 72.1,75.2 -53.1,0 0,-0.9 52.1,0 c 0.6,0 1,0.4 1,0.9 l 0,0 z"
         id="path269"
         inkscape:connector-curvature="0"
         style="fill:#3c3939" /></g><g
       id="g271"><path
         d="m 71.5,91.1 -71.5,0 0,-6.2 71.5,0 c 0.5,0 0.9,0.4 0.9,0.9 l 0,4.3 c 0,0.6 -0.4,1 -0.9,1 z"
         id="path273"
         inkscape:connector-curvature="0"
         style="fill:#070606" /><path
         d="m 71.1,90 -52.1,0 0,-6 52.1,0 c 0.5,0 0.9,0.4 0.9,0.9 l 0,4.1 c 0.1,0.6 -0.3,1 -0.9,1 z"
         id="path275"
         inkscape:connector-curvature="0"
         style="fill:#282424" /><rect
         x="0"
         y="84"
         width="19"
         height="6"
         id="rect277"
         style="fill:#1e1b1b" /><rect
         x="0"
         y="84"
         width="19"
         height="0.89999998"
         id="rect279"
         style="fill:#252222" /><path
         d="m 72.1,84.9 -53.1,0 0,-0.9 52.1,0 c 0.6,0 1,0.4 1,0.9 l 0,0 z"
         id="path281"
         inkscape:connector-curvature="0"
         style="fill:#3c3939" /></g><g
       id="g283"><path
         d="m 71.5,100.8 -71.5,0 0,-6.2 71.5,0 c 0.5,0 0.9,0.4 0.9,0.9 l 0,4.3 c 0,0.6 -0.4,1 -0.9,1 z"
         id="path285"
         inkscape:connector-curvature="0"
         style="fill:#070606" /><path
         d="m 71.1,99.7 -52.1,0 0,-6 52.1,0 c 0.5,0 0.9,0.4 0.9,0.9 l 0,4.1 c 0.1,0.6 -0.3,1 -0.9,1 z"
         id="path287"
         inkscape:connector-curvature="0"
         style="fill:#282424" /><rect
         x="0"
         y="93.699997"
         width="19"
         height="6"
         id="rect289"
         style="fill:#1e1b1b" /><rect
         x="0"
         y="93.699997"
         width="19"
         height="0.89999998"
         id="rect291"
         style="fill:#252222" /><path
         d="m 72.1,94.6 -53.1,0 0,-0.9 52.1,0 c 0.6,0 1,0.4 1,0.9 l 0,0 z"
         id="path293"
         inkscape:connector-curvature="0"
         style="fill:#3c3939" /></g><g
       id="g295"><path
         d="m 71.5,110.5 -71.5,0 0,-6.2 71.5,0 c 0.5,0 0.9,0.4 0.9,0.9 l 0,4.3 c 0,0.5 -0.4,1 -0.9,1 z"
         id="path297"
         inkscape:connector-curvature="0"
         style="fill:#070606" /><path
         d="m 71.1,109.4 -52.1,0 0,-6 52.1,0 c 0.5,0 0.9,0.4 0.9,0.9 l 0,4.1 c 0.1,0.6 -0.3,1 -0.9,1 z"
         id="path299"
         inkscape:connector-curvature="0"
         style="fill:#282424" /><rect
         x="0"
         y="103.4"
         width="19"
         height="6"
         id="rect301"
         style="fill:#1e1b1b" /><rect
         x="0"
         y="103.4"
         width="19"
         height="0.89999998"
         id="rect303"
         style="fill:#252222" /><path
         d="m 72.1,104.3 -53.1,0 0,-0.9 52.1,0 c 0.6,0 1,0.4 1,0.9 l 0,0 z"
         id="path305"
         inkscape:connector-curvature="0"
         style="fill:#3c3939" /></g><g
       id="g307"><path
         d="m 71.5,120.2 -71.5,0 0,-6.2 71.5,0 c 0.5,0 0.9,0.4 0.9,0.9 l 0,4.3 c 0,0.5 -0.4,1 -0.9,1 z"
         id="path309"
         inkscape:connector-curvature="0"
         style="fill:#070606" /><path
         d="m 71.1,119.1 -52.1,0 0,-6 52.1,0 c 0.5,0 0.9,0.4 0.9,0.9 l 0,4.1 c 0.1,0.6 -0.3,1 -0.9,1 z"
         id="path311"
         inkscape:connector-curvature="0"
         style="fill:#282424" /><rect
         x="0"
         y="113.1"
         width="19"
         height="6"
         id="rect313"
         style="fill:#1e1b1b" /><rect
         x="0"
         y="113.1"
         width="19"
         height="0.89999998"
         id="rect315"
         style="fill:#252222" /><path
         d="m 72.1,114 -53.1,0 0,-1 52.1,0 c 0.6,0 1,0.5 1,1 l 0,0 z"
         id="path317"
         inkscape:connector-curvature="0"
         style="fill:#3c3939" /></g><g
       id="g319"><path
         d="m 71.5,129.9 -71.5,0 0,-6.2 71.5,0 c 0.5,0 0.9,0.4 0.9,0.9 l 0,4.3 c 0,0.5 -0.4,1 -0.9,1 z"
         id="path321"
         inkscape:connector-curvature="0"
         style="fill:#070606" /><path
         d="m 71.1,128.8 -52.1,0 0,-6 52.1,0 c 0.5,0 0.9,0.4 0.9,0.9 l 0,4.1 c 0.1,0.5 -0.3,1 -0.9,1 z"
         id="path323"
         inkscape:connector-curvature="0"
         style="fill:#282424" /><rect
         x="0"
         y="122.8"
         width="19"
         height="6"
         id="rect325"
         style="fill:#1e1b1b" /><rect
         x="0"
         y="122.8"
         width="19"
         height="0.89999998"
         id="rect327"
         style="fill:#252222" /><path
         d="m 72.1,123.7 -53.1,0 0,-0.9 52.1,0 c 0.6,-0.1 1,0.4 1,0.9 l 0,0 z"
         id="path329"
         inkscape:connector-curvature="0"
         style="fill:#3c3939" /></g><g
       id="g331"><path
         d="m 71.5,139.5 -71.5,0 0,-6.2 71.5,0 c 0.5,0 0.9,0.4 0.9,0.9 l 0,4.3 c 0,0.6 -0.4,1 -0.9,1 z"
         id="path333"
         inkscape:connector-curvature="0"
         style="fill:#070606" /><path
         d="m 71.1,138.5 -52.1,0 0,-6 52.1,0 c 0.5,0 0.9,0.4 0.9,0.9 l 0,4.1 c 0.1,0.5 -0.3,1 -0.9,1 z"
         id="path335"
         inkscape:connector-curvature="0"
         style="fill:#282424" /><rect
         x="0"
         y="132.5"
         width="19"
         height="6"
         id="rect337"
         style="fill:#1e1b1b" /><rect
         x="0"
         y="132.5"
         width="19"
         height="0.89999998"
         id="rect339"
         style="fill:#252222" /><path
         d="m 72.1,133.4 -53.1,0 0,-0.9 52.1,0 c 0.6,-0.1 1,0.3 1,0.9 l 0,0 z"
         id="path341"
         inkscape:connector-curvature="0"
         style="fill:#3c3939" /></g><g
       id="g343"><path
         d="m 71.5,149.2 -71.5,0 0,-6.2 71.5,0 c 0.5,0 0.9,0.4 0.9,0.9 l 0,4.3 c 0,0.6 -0.4,1 -0.9,1 z"
         id="path345"
         inkscape:connector-curvature="0"
         style="fill:#070606" /><path
         d="m 71.1,148.2 -52.1,0 0,-6 52.1,0 c 0.5,0 0.9,0.4 0.9,0.9 l 0,4.1 c 0.1,0.5 -0.3,1 -0.9,1 z"
         id="path347"
         inkscape:connector-curvature="0"
         style="fill:#282424" /><rect
         x="0"
         y="142.2"
         width="19"
         height="6"
         id="rect349"
         style="fill:#1e1b1b" /><rect
         x="0"
         y="142.2"
         width="19"
         height="0.89999998"
         id="rect351"
         style="fill:#252222" /><path
         d="m 72.1,143.1 -53.1,0 0,-0.9 52.1,0 c 0.6,-0.1 1,0.3 1,0.9 l 0,0 z"
         id="path353"
         inkscape:connector-curvature="0"
         style="fill:#3c3939" /></g><g
       id="g355"><path
         d="m 71.5,158.9 -71.5,0 0,-6.2 71.5,0 c 0.5,0 0.9,0.4 0.9,0.9 l 0,4.3 c 0,0.6 -0.4,1 -0.9,1 z"
         id="path357"
         inkscape:connector-curvature="0"
         style="fill:#070606" /><path
         d="m 71.1,157.8 -52.1,0 0,-6 52.1,0 c 0.5,0 0.9,0.4 0.9,0.9 l 0,4.1 c 0.1,0.6 -0.3,1 -0.9,1 z"
         id="path359"
         inkscape:connector-curvature="0"
         style="fill:#282424" /><rect
         x="0"
         y="151.8"
         width="19"
         height="6"
         id="rect361"
         style="fill:#1e1b1b" /><rect
         x="0"
         y="151.8"
         width="19"
         height="0.89999998"
         id="rect363"
         style="fill:#252222" /><path
         d="m 72.1,152.8 -53.1,0 0,-0.9 52.1,0 c 0.6,-0.1 1,0.3 1,0.9 l 0,0 z"
         id="path365"
         inkscape:connector-curvature="0"
         style="fill:#3c3939" /></g><g
       id="g367"><path
         d="m 71.5,168.6 -71.5,0 0,-6.2 71.5,0 c 0.5,0 0.9,0.4 0.9,0.9 l 0,4.3 c 0,0.6 -0.4,1 -0.9,1 z"
         id="path369"
         inkscape:connector-curvature="0"
         style="fill:#070606" /><path
         d="m 71.1,167.5 -52.1,0 0,-6 52.1,0 c 0.5,0 0.9,0.4 0.9,0.9 l 0,4.1 c 0.1,0.6 -0.3,1 -0.9,1 z"
         id="path371"
         inkscape:connector-curvature="0"
         style="fill:#282424" /><rect
         x="0"
         y="161.5"
         width="19"
         height="6"
         id="rect373"
         style="fill:#1e1b1b" /><rect
         x="0"
         y="161.5"
         width="19"
         height="0.89999998"
         id="rect375"
         style="fill:#252222" /><path
         d="m 72.1,162.4 -53.1,0 0,-0.9 52.1,0 c 0.6,0 1,0.4 1,0.9 l 0,0 z"
         id="path377"
         inkscape:connector-curvature="0"
         style="fill:#3c3939" /></g><g
       id="g379"><path
         d="m 71.5,178.3 -71.5,0 0,-6.2 71.5,0 c 0.5,0 0.9,0.4 0.9,0.9 l 0,4.3 c 0,0.6 -0.4,1 -0.9,1 z"
         id="path381"
         inkscape:connector-curvature="0"
         style="fill:#070606" /><path
         d="m 71.1,177.2 -52.1,0 0,-6 52.1,0 c 0.5,0 0.9,0.4 0.9,0.9 l 0,4.1 c 0.1,0.6 -0.3,1 -0.9,1 z"
         id="path383"
         inkscape:connector-curvature="0"
         style="fill:#282424" /><rect
         x="0"
         y="171.2"
         width="19"
         height="6"
         id="rect385"
         style="fill:#1e1b1b" /><rect
         x="0"
         y="171.2"
         width="19"
         height="0.89999998"
         id="rect387"
         style="fill:#252222" /><path
         d="m 72.1,172.1 -53.1,0 0,-0.9 52.1,0 c 0.6,0 1,0.4 1,0.9 l 0,0 z"
         id="path389"
         inkscape:connector-curvature="0"
         style="fill:#3c3939" /></g><g
       id="g391"><path
         d="m 71.5,188 -71.5,0 0,-6.2 71.5,0 c 0.5,0 0.9,0.4 0.9,0.9 l 0,4.3 c 0,0.6 -0.4,1 -0.9,1 z"
         id="path393"
         inkscape:connector-curvature="0"
         style="fill:#070606" /><path
         d="m 71.1,186.9 -52.1,0 0,-6 52.1,0 c 0.5,0 0.9,0.4 0.9,0.9 l 0,4.1 c 0.1,0.6 -0.3,1 -0.9,1 z"
         id="path395"
         inkscape:connector-curvature="0"
         style="fill:#282424" /><rect
         x="0"
         y="180.89999"
         width="19"
         height="6"
         id="rect397"
         style="fill:#1e1b1b" /><rect
         x="0"
         y="180.89999"
         width="19"
         height="0.89999998"
         id="rect399"
         style="fill:#252222" /><path
         d="m 72.1,181.8 -53.1,0 0,-0.9 52.1,0 c 0.6,0 1,0.4 1,0.9 l 0,0 z"
         id="path401"
         inkscape:connector-curvature="0"
         style="fill:#3c3939" /></g><g
       id="g403"><path
         d="m 71.5,197.7 -71.5,0 0,-6.2 71.5,0 c 0.5,0 0.9,0.4 0.9,0.9 l 0,4.3 c 0,0.6 -0.4,1 -0.9,1 z"
         id="path405"
         inkscape:connector-curvature="0"
         style="fill:#070606" /><path
         d="m 71.1,196.6 -52.1,0 0,-6 52.1,0 c 0.5,0 0.9,0.4 0.9,0.9 l 0,4.1 c 0.1,0.6 -0.3,1 -0.9,1 z"
         id="path407"
         inkscape:connector-curvature="0"
         style="fill:#282424" /><rect
         x="0"
         y="190.60001"
         width="19"
         height="6"
         id="rect409"
         style="fill:#1e1b1b" /><rect
         x="0"
         y="190.60001"
         width="19"
         height="0.89999998"
         id="rect411"
         style="fill:#252222" /><path
         d="m 72.1,191.5 -53.1,0 0,-0.9 52.1,0 c 0.6,0 1,0.4 1,0.9 l 0,0 z"
         id="path413"
         inkscape:connector-curvature="0"
         style="fill:#3c3939" /></g><rect
       x="9"
       y="327.20001"
       width="531"
       height="1.7"
       id="rect415"
       style="fill:#323030" /><rect
       x="9"
       y="328.89999"
       width="531"
       height="3.4000001"
       id="rect417"
       style="fill:#383736" /><rect
       x="9"
       y="332.29999"
       width="531"
       height="1.7"
       id="rect419"
       style="fill:#3f3e3d" /><rect
       x="9"
       y="334"
       width="531"
       height="1.7"
       id="rect421"
       style="fill:#444241" /><rect
       x="9"
       y="335.70001"
       width="531"
       height="1.7"
       id="rect423"
       style="fill:#4a4747" /><rect
       x="9"
       y="337.39999"
       width="531"
       height="1.7"
       id="rect425"
       style="fill:#504d4c" /><rect
       x="9"
       y="339.10001"
       width="531"
       height="1.7"
       id="rect427"
       style="fill:#565252" /><rect
       x="9"
       y="340.89999"
       width="531"
       height="1.7"
       id="rect429"
       style="fill:#5b5857" /><rect
       x="0"
       y="327.20001"
       width="9"
       height="1.7"
       id="rect431"
       style="fill:#292424" /><rect
       x="0"
       y="328.89999"
       width="9"
       height="3.4000001"
       id="rect433"
       style="fill:#302a2b" /><rect
       x="0"
       y="332.29999"
       width="9"
       height="1.7"
       id="rect435"
       style="fill:#363031" /><rect
       x="0"
       y="334"
       width="9"
       height="1.7"
       id="rect437"
       style="fill:#3c3636" /><rect
       x="0"
       y="335.70001"
       width="9"
       height="1.7"
       id="rect439"
       style="fill:#423b3c" /><rect
       x="0"
       y="337.39999"
       width="9"
       height="1.7"
       id="rect441"
       style="fill:#484141" /><rect
       x="0"
       y="339.10001"
       width="9"
       height="1.7"
       id="rect443"
       style="fill:#4e4646" /><rect
       x="0"
       y="340.89999"
       width="9"
       height="1.7"
       id="rect445"
       style="fill:#544b4c" /><rect
       x="540"
       y="327.20001"
       width="9"
       height="1.7"
       id="rect447"
       style="fill:#292424" /><rect
       x="540"
       y="328.89999"
       width="9"
       height="3.4000001"
       id="rect449"
       style="fill:#302a2b" /><rect
       x="540"
       y="332.29999"
       width="9"
       height="1.7"
       id="rect451"
       style="fill:#363031" /><rect
       x="540"
       y="334"
       width="9"
       height="1.7"
       id="rect453"
       style="fill:#3c3636" /><rect
       x="540"
       y="335.70001"
       width="9"
       height="1.7"
       id="rect455"
       style="fill:#423b3c" /><rect
       x="540"
       y="337.39999"
       width="9"
       height="1.7"
       id="rect457"
       style="fill:#484141" /><rect
       x="540"
       y="339.10001"
       width="9"
       height="1.7"
       id="rect459"
       style="fill:#4e4646" /><rect
       x="540"
       y="340.89999"
       width="9"
       height="1.7"
       id="rect461"
       style="fill:#544b4c" /><g
       id="g463"><g
         id="g465"><rect
           x="91.800003"
           y="297.70001"
           width="35.299999"
           height="15.7"
           id="rect467" /><rect
           x="92.300003"
           y="298.29999"
           width="34.299999"
           height="14.5"
           id="rect469"
           style="fill:#006cb8" /></g><g
         id="g471"><path
           d="m 99.4,304.9 0,0 c -0.7,0 -1.3,-0.6 -1.3,-1.2 l 0,0 c 0,-0.7 0.6,-1.3 1.3,-1.3 l 0,0 c 0.7,0 1.3,0.6 1.3,1.3 l 0,0 c 0,0.6 -0.6,1.2 -1.3,1.2 z"
           id="path473"
           inkscape:connector-curvature="0"
           style="fill:#065687" /><path
           d="m 119.4,304.9 0,0 c -0.7,0 -1.3,-0.6 -1.3,-1.2 l 0,0 c 0,-0.7 0.6,-1.3 1.3,-1.3 l 0,0 c 0.7,0 1.3,0.6 1.3,1.3 l 0,0 c 0,0.6 -0.6,1.2 -1.3,1.2 z"
           id="path475"
           inkscape:connector-curvature="0"
           style="fill:#065687" /><path
           d="m 119.4,308.7 0,0 c -0.7,0 -1.3,-0.6 -1.3,-1.2 l 0,0 c 0,-0.7 0.6,-1.3 1.3,-1.3 l 0,0 c 0.7,0 1.3,0.6 1.3,1.3 l 0,0 c 0,0.6 -0.6,1.2 -1.3,1.2 z"
           id="path477"
           inkscape:connector-curvature="0"
           style="fill:#065687" /><path
           d="m 99.4,308.7 0,0 c -0.7,0 -1.3,-0.6 -1.3,-1.2 l 0,0 c 0,-0.7 0.6,-1.3 1.3,-1.3 l 0,0 c 0.7,0 1.3,0.6 1.3,1.3 l 0,0 c 0,0.6 -0.6,1.2 -1.3,1.2 z"
           id="path479"
           inkscape:connector-curvature="0"
           style="fill:#065687" /><path
           d="m 102.8,308.7 0,0 c -0.7,0 -1.3,-0.6 -1.3,-1.2 l 0,0 c 0,-0.7 0.6,-1.3 1.3,-1.3 l 0,0 c 0.7,0 1.3,0.6 1.3,1.3 l 0,0 c -0.1,0.6 -0.7,1.2 -1.3,1.2 z"
           id="path481"
           inkscape:connector-curvature="0"
           style="fill:#065687" /><path
           d="m 106.1,308.7 0,0 c -0.7,0 -1.3,-0.6 -1.3,-1.2 l 0,0 c 0,-0.7 0.6,-1.3 1.3,-1.3 l 0,0 c 0.7,0 1.3,0.6 1.3,1.3 l 0,0 c -0.1,0.6 -0.6,1.2 -1.3,1.2 z"
           id="path483"
           inkscape:connector-curvature="0"
           style="fill:#065687" /><path
           d="m 109.4,308.7 0,0 c -0.7,0 -1.3,-0.6 -1.3,-1.2 l 0,0 c 0,-0.7 0.6,-1.3 1.3,-1.3 l 0,0 c 0.7,0 1.3,0.6 1.3,1.3 l 0,0 c 0,0.6 -0.6,1.2 -1.3,1.2 z"
           id="path485"
           inkscape:connector-curvature="0"
           style="fill:#065687" /><path
           d="m 112.7,308.7 0,0 c -0.7,0 -1.3,-0.6 -1.3,-1.2 l 0,0 c 0,-0.7 0.6,-1.3 1.2,-1.3 l 0,0 c 0.7,0 1.3,0.6 1.3,1.3 l 0,0 c 0.1,0.6 -0.5,1.2 -1.2,1.2 z"
           id="path487"
           inkscape:connector-curvature="0"
           style="fill:#065687" /><path
           d="m 116.1,308.7 0,0 c -0.7,0 -1.3,-0.6 -1.3,-1.2 l 0,0 c 0,-0.7 0.6,-1.3 1.3,-1.3 l 0,0 c 0.7,0 1.3,0.6 1.3,1.3 l 0,0 c -0.1,0.6 -0.6,1.2 -1.3,1.2 z"
           id="path489"
           inkscape:connector-curvature="0"
           style="fill:#065687" /><path
           d="m 102.8,304.9 0,0 c -0.7,0 -1.3,-0.6 -1.3,-1.2 l 0,0 c 0,-0.7 0.6,-1.3 1.3,-1.3 l 0,0 c 0.7,0 1.3,0.6 1.3,1.3 l 0,0 c -0.1,0.6 -0.7,1.2 -1.3,1.2 z"
           id="path491"
           inkscape:connector-curvature="0"
           style="fill:#065687" /><path
           d="m 106.1,304.9 0,0 c -0.7,0 -1.3,-0.6 -1.3,-1.2 l 0,0 c 0,-0.7 0.6,-1.3 1.3,-1.3 l 0,0 c 0.7,0 1.3,0.6 1.3,1.3 l 0,0 c -0.1,0.6 -0.6,1.2 -1.3,1.2 z"
           id="path493"
           inkscape:connector-curvature="0"
           style="fill:#065687" /><path
           d="m 109.4,304.9 0,0 c -0.7,0 -1.3,-0.6 -1.3,-1.2 l 0,0 c 0,-0.7 0.6,-1.3 1.3,-1.3 l 0,0 c 0.7,0 1.3,0.6 1.3,1.3 l 0,0 c 0,0.6 -0.6,1.2 -1.3,1.2 z"
           id="path495"
           inkscape:connector-curvature="0"
           style="fill:#065687" /><path
           d="m 112.7,304.9 0,0 c -0.7,0 -1.3,-0.6 -1.3,-1.2 l 0,0 c 0,-0.7 0.6,-1.3 1.2,-1.3 l 0,0 c 0.7,0 1.3,0.6 1.3,1.3 l 0,0 c 0.1,0.6 -0.5,1.2 -1.2,1.2 z"
           id="path497"
           inkscape:connector-curvature="0"
           style="fill:#065687" /><path
           d="m 116.1,304.9 0,0 c -0.7,0 -1.3,-0.6 -1.3,-1.2 l 0,0 c 0,-0.7 0.6,-1.3 1.3,-1.3 l 0,0 c 0.7,0 1.3,0.6 1.3,1.3 l 0,0 c -0.1,0.6 -0.6,1.2 -1.3,1.2 z"
           id="path499"
           inkscape:connector-curvature="0"
           style="fill:#065687" /></g><polygon
         points="88.5,295.2 130.3,295.2 127.1,297.7 91.8,297.7 "
         id="polygon501"
         style="fill:#0d0d0c" /><polygon
         points="91.8,313.4 127.1,313.4 130.3,315.9 88.5,315.9 "
         id="polygon503"
         style="fill:#4e4b4a" /><polygon
         points="88.5,295.2 91.8,297.7 91.8,313.4 88.5,315.9 "
         id="polygon505"
         style="fill:#211e1d" /><polygon
         points="127.1,297.7 130.3,295.2 130.3,315.9 127.1,313.4 "
         id="polygon507"
         style="fill:#211e1d" /><g
         id="g509"><path
           d="m 102.5,321.1 0,-3.2 1.4,0 c 0.3,0 0.6,0 0.8,0.1 0.2,0.1 0.3,0.2 0.4,0.3 0.1,0.1 0.1,0.3 0.1,0.5 0,0.2 -0.1,0.4 -0.2,0.6 -0.1,0.2 -0.4,0.3 -0.6,0.3 0.1,0.1 0.3,0.2 0.3,0.3 0.1,0.1 0.2,0.3 0.4,0.5 l 0.4,0.6 -0.8,0 -0.5,-0.7 c -0.2,-0.3 -0.3,-0.4 -0.3,-0.5 -0.1,-0.1 -0.1,-0.1 -0.2,-0.1 -0.1,0 -0.2,0 -0.3,0 l -0.1,0 0,1.3 -0.8,0 z m 0.6,-1.8 0.5,0 c 0.3,0 0.5,0 0.6,0 0.1,0 0.1,-0.1 0.2,-0.1 0,-0.1 0.1,-0.1 0.1,-0.2 0,-0.1 0,-0.2 -0.1,-0.3 -0.1,-0.1 -0.1,-0.1 -0.2,-0.1 -0.1,0 -0.2,0 -0.5,0 l -0.5,0 0,0.7 z"
           id="path511"
           inkscape:connector-curvature="0"
           style="fill:#c4c4c4" /><path
           d="m 105.7,321.1 0,-3.2 2.4,0 0,0.5 -1.7,0 0,0.7 1.6,0 0,0.5 -1.6,0 0,0.9 1.8,0 0,0.5 -2.5,0 z"
           id="path513"
           inkscape:connector-curvature="0"
           style="fill:#c4c4c4" /><path
           d="m 108.5,320.1 0.6,-0.1 c 0,0.2 0.1,0.4 0.2,0.5 0.1,0.1 0.3,0.1 0.5,0.1 0.2,0 0.4,0 0.5,-0.1 0.1,-0.1 0.2,-0.2 0.2,-0.3 0,-0.1 0,-0.1 -0.1,-0.2 0,-0.1 -0.1,-0.1 -0.2,-0.1 -0.1,0 -0.2,-0.1 -0.5,-0.1 -0.3,-0.1 -0.6,-0.2 -0.7,-0.3 -0.2,-0.2 -0.3,-0.4 -0.3,-0.6 0,-0.2 0,-0.3 0.1,-0.5 0.1,-0.1 0.2,-0.3 0.4,-0.3 0.2,-0.1 0.4,-0.1 0.6,-0.1 0.4,0 0.7,0.1 0.9,0.3 0.2,0.2 0.3,0.4 0.3,0.7 l -0.7,0 c 0,-0.2 -0.1,-0.3 -0.2,-0.4 -0.1,-0.1 -0.2,-0.1 -0.4,-0.1 -0.2,0 -0.3,0 -0.4,0.1 -0.1,0 -0.1,0.1 -0.1,0.2 0,0.1 0,0.1 0.1,0.2 0.1,0.1 0.3,0.1 0.6,0.2 0.3,0.1 0.6,0.2 0.7,0.2 0.2,0.1 0.3,0.2 0.4,0.3 0.1,0.1 0.1,0.3 0.1,0.5 0,0.2 -0.1,0.4 -0.2,0.5 -0.1,0.1 -0.2,0.3 -0.4,0.4 -0.2,0.1 -0.4,0.1 -0.7,0.1 -0.4,0 -0.7,-0.1 -0.9,-0.3 -0.2,-0.2 -0.3,-0.5 -0.4,-0.8 z"
           id="path515"
           inkscape:connector-curvature="0"
           style="fill:#c4c4c4" /><path
           d="m 111.7,321.1 0,-3.2 2.4,0 0,0.5 -1.7,0 0,0.7 1.6,0 0,0.5 -1.6,0 0,0.9 1.8,0 0,0.5 -2.5,0 z"
           id="path517"
           inkscape:connector-curvature="0"
           style="fill:#c4c4c4" /><path
           d="m 115.4,321.1 0,-2.7 -1,0 0,-0.5 2.6,0 0,0.5 -1,0 0,2.7 -0.6,0 z"
           id="path519"
           inkscape:connector-curvature="0"
           style="fill:#c4c4c4" /></g></g><g
       id="_x31_6bit_1_"><path
         id="XMLID_14_"
         d="m 341.3,218.4 0,-2.5 c 2.5,-0.6 4.2,-1.5 5,-2.5 l 2.5,0 0,10.3 0,2.3 -3.3,0 0,-2.3 0,-7.1 c -1.9,0.9 -3.3,1.5 -4.2,1.8 z"
         inkscape:connector-curvature="0"
         style="fill:#d4aa6f" /><path
         id="XMLID_11_"
         d="m 362.1,216.7 -3,0.7 c -0.3,-1.3 -1,-1.9 -2.2,-1.9 -1.7,0 -2.6,1.4 -2.6,4.1 0.7,-0.9 1.8,-1.4 3.3,-1.4 1.4,0 2.5,0.4 3.4,1.1 0.9,0.7 1.3,1.6 1.3,2.7 0,1.1 -0.5,2.1 -1.4,2.9 -1,0.8 -2.2,1.3 -3.8,1.3 -1.6,0 -2.8,-0.3 -3.7,-1 -0.9,-0.7 -1.5,-1.5 -1.9,-2.4 -0.3,-0.9 -0.5,-1.9 -0.5,-2.7 0,-1.9 0.5,-3.4 1.5,-4.7 1,-1.2 2.5,-1.8 4.5,-1.8 1.4,0 2.6,0.3 3.5,1 0.8,0.4 1.4,1.1 1.6,2.1 z m -5.4,7.3 c 0.6,0 1.1,-0.2 1.6,-0.5 0.4,-0.4 0.6,-0.8 0.6,-1.5 0,-0.6 -0.2,-1 -0.7,-1.4 -0.4,-0.3 -1,-0.5 -1.5,-0.5 -0.6,0 -1.1,0.2 -1.5,0.5 -0.4,0.4 -0.7,0.8 -0.7,1.4 0,0.5 0.2,1 0.6,1.4 0.4,0.4 1,0.6 1.6,0.6 z"
         inkscape:connector-curvature="0"
         style="fill:#d4aa6f" /><path
         id="XMLID_9_"
         d="m 363.2,219.3 5.2,0 0,2.2 -5.2,0 0,-2.2 z"
         inkscape:connector-curvature="0"
         style="fill:#d4aa6f" /><path
         id="XMLID_5_"
         d="m 370.2,213.6 6.9,0 c 1.2,0 2.2,0.1 2.8,0.4 0.6,0.3 1.1,0.6 1.5,1.1 0.4,0.5 0.6,1 0.6,1.7 0,1.4 -0.9,2.3 -2.7,2.7 1,0.2 1.8,0.6 2.3,1.1 0.5,0.6 0.8,1.2 0.8,1.9 0,0.9 -0.4,1.7 -1.3,2.4 -0.8,0.7 -2.2,1 -4.1,1 l -6.9,0 0,-12.3 z m 3.4,2.1 0,2.7 2.6,0 c 1,0 1.6,-0.2 1.8,-0.5 0.2,-0.3 0.4,-0.6 0.4,-0.9 0,-0.3 -0.1,-0.6 -0.3,-0.8 -0.2,-0.2 -0.4,-0.4 -0.7,-0.4 -0.2,-0.1 -0.7,-0.1 -1.4,-0.1 l -2.4,0 z m 0,4.9 0,3 2.6,0 c 0.9,0 1.5,-0.1 1.9,-0.4 0.4,-0.3 0.6,-0.6 0.6,-1.1 0,-0.4 -0.2,-0.7 -0.5,-1 -0.4,-0.3 -1,-0.4 -1.8,-0.4 l -2.8,0 z"
         inkscape:connector-curvature="0"
         style="fill:#d4aa6f" /><path
         id="XMLID_3_"
         d="m 386.6,213.6 0,12.3 -3.4,0 0,-12.3 3.4,0 z"
         inkscape:connector-curvature="0"
         style="fill:#d4aa6f" /><path
         id="XMLID_1_"
         d="m 398.2,213.6 0,2.4 -3.6,0 0,9.9 -3.5,0 0,-9.9 -3.7,0 0,-2.4 10.8,0 z"
         inkscape:connector-curvature="0"
         style="fill:#d4aa6f" /></g><g
       id="SEGA_3_"><path
         id="XMLID_645_"
         d="m 526,320.1 c -2.3,0 -4.7,0 -7.1,0 0,-0.5 0,-1 0,-1.7 1.5,0 3.1,0 4.9,0 -0.4,-1.1 -0.6,-1.9 -0.9,-2.8 -0.7,-2.2 -1.4,-4.4 -2.1,-6.5 -0.2,-0.5 -0.7,-1.2 -1.2,-1.3 -0.8,-0.2 -1,0.6 -1.3,1.3 -1.1,3.3 -2.2,6.7 -3.2,10 -0.2,0.8 -0.6,1.1 -1.4,1 -2.2,-0.1 -4.4,0 -6.5,0 -2.2,0 -3.7,-1.5 -3.7,-3.8 0,-2.1 0,-4.1 0,-6.2 0.1,-2.3 1.5,-3.7 3.7,-3.8 2,0 3.9,0 6,0 0,0.6 0,1.1 0,1.8 -1.7,0 -3.4,0 -5.1,0 -2.4,0 -2.9,0.6 -2.9,3.1 0,1.6 0,3.1 0,4.7 0,1.7 0.8,2.5 2.3,2.5 1.3,0 2.5,0 3.9,0 0,-1.8 0,-3.6 0,-5.4 -1.1,0 -2.1,0 -3.2,0 0,-0.6 0,-1.1 0,-1.7 1.6,0 3.3,0 5,0 0,2.4 0,4.8 0,7.1 0.1,0 0.2,0 0.3,0 1.1,-3.3 2.1,-6.6 3.2,-9.9 0.6,-1.9 1.7,-2.6 3.5,-2.4 1,0.2 1.7,0.7 2.1,1.7 1.3,3.9 2.6,7.9 3.8,11.9 0,0.2 -0.1,0.3 -0.1,0.4 z"
         inkscape:connector-curvature="0"
         style="fill:#c2c2c2" /><path
         id="XMLID_644_"
         d="m 481.5,320.1 c 0,-0.6 0,-1.1 0,-1.7 1.9,0 3.8,0 5.6,0 1.6,0 2.7,-1.2 2.8,-2.6 0.1,-1.4 -1.1,-2.7 -2.6,-2.8 -0.6,0 -1.3,0 -1.9,-0.1 -1,-0.1 -1.6,-1 -1.6,-2 0,-1.1 0.7,-2 1.6,-2 2,-0.1 4.1,0 6.2,0 0,0.6 0,1.1 0,1.7 -1,0 -2.1,0 -3.1,0 -1,0 -1.9,0 -2.9,0 0,0.2 0,0.4 0,0.6 0.6,0 1.1,0.1 1.7,0.1 2.1,0 3.7,1.3 4.2,3.4 0.7,2.6 -1.2,5.4 -3.8,5.5 -2,0 -4.1,-0.1 -6.2,-0.1 z"
         inkscape:connector-curvature="0"
         style="fill:#c2c2c2" /><path
         id="XMLID_643_"
         d="m 481.4,317.7 c 0,-0.6 0,-1.1 0,-1.8 2,0 4,0 6,0 0,-0.2 0,-0.3 0,-0.5 -0.6,0 -1.2,-0.1 -1.8,-0.1 -1.7,0 -3,-0.9 -3.7,-2.4 -0.8,-1.6 -0.6,-3.2 0.4,-4.7 0.7,-1 1.7,-1.7 2.9,-1.7 2.1,-0.1 4.2,0 6.4,0 0,0.5 0,1.1 0,1.7 -1.9,0 -3.8,0 -5.7,0 -1.9,0 -3.1,1.8 -2.5,3.6 0.3,1.1 1.3,1.8 2.6,1.9 0.6,0 1.2,0 1.8,0.1 0.9,0.1 1.7,1 1.7,2 0,1 -0.7,2 -1.6,2 -2.3,0 -4.3,-0.1 -6.5,-0.1 z"
         inkscape:connector-curvature="0"
         style="fill:#c2c2c2" /><path
         id="XMLID_642_"
         d="m 502.5,306.5 c 0,0.6 0,1.1 0,1.7 -1.9,0 -3.7,0 -5.6,0 -2,0 -2.6,0.7 -2.6,2.7 0,1.6 0,3.3 0,4.9 0,1.9 0.7,2.6 2.5,2.6 1.9,0 3.7,0 5.7,0 0,0.6 0,1.1 0,1.7 -1.4,0 -2.8,0 -4.1,0 -0.9,0 -1.7,0 -2.6,0 -1.6,-0.1 -3,-1.6 -3.1,-3.3 -0.1,-2.4 -0.1,-4.8 0,-7.2 0,-1.5 1.3,-3.1 2.8,-3.2 2.3,0 4.6,0.1 7,0.1 z"
         inkscape:connector-curvature="0"
         style="fill:#c2c2c2" /><path
         id="XMLID_639_"
         d="m 515.3,320.1 c 1.2,-3.7 2.4,-7.4 3.6,-11 0.1,-0.3 0.4,-0.5 0.6,-0.6 0.1,0 0.5,0.2 0.6,0.4 1,2.9 1.9,5.8 2.9,8.8 -1.4,0 -2.7,0 -4.1,0 0,-0.4 -0.1,-0.8 -0.1,-1.2 -0.1,0 -0.1,0 -0.2,-0.1 -0.2,0.7 -0.5,1.3 -0.7,2 -0.6,1.9 -0.6,1.9 -2.6,1.7 z m 3.5,-4.3 c 0.5,0 0.9,0 1.4,0 -0.2,-0.7 -0.4,-1.3 -0.6,-1.9 -0.1,0 -0.2,0 -0.2,0 -0.2,0.6 -0.4,1.2 -0.6,1.9 z"
         inkscape:connector-curvature="0"
         style="fill:#c2c2c2" /><path
         id="XMLID_638_"
         d="m 509.3,315.6 c -0.5,-0.2 -0.8,-0.2 -1.2,-0.4 0,-0.5 0,-1 0,-1.5 0.9,0 1.7,0 2.6,0 0,1.3 0,2.6 0,4 -1.4,0 -2.7,0.1 -4,-0.1 -0.3,0 -0.9,-0.7 -0.9,-1.1 -0.1,-2.2 -0.1,-4.3 0,-6.5 0,-0.8 0.5,-1.2 1.2,-1.2 2,0 4,0 6.1,0 0,0.6 0,1.1 0,1.7 -1.5,0 -3,0 -4.5,0 -0.9,0 -1.3,0.3 -1.2,1.3 0.1,1 0,2 0,3 0,1.3 0.6,1.5 1.9,0.8 z"
         inkscape:connector-curvature="0"
         style="fill:#c2c2c2" /><path
         id="XMLID_637_"
         d="m 496.7,315.9 c 1.9,0.3 3.8,0 5.7,0.2 0,0.5 0,1 0,1.6 -2.2,0 -4.4,0.1 -6.5,-0.1 -0.3,0 -0.9,-0.7 -0.9,-1.2 -0.2,-0.9 0,-1.8 0,-2.8 2.1,0 4.1,0 6.1,0 0,0.5 0,1 0,1.6 -1.4,0 -2.9,0 -4.3,0 0,0.3 0,0.5 -0.1,0.7 z"
         inkscape:connector-curvature="0"
         style="fill:#c2c2c2" /><path
         id="XMLID_636_"
         d="m 502.5,308.9 c 0,0.6 0,1.1 0,1.6 -1.9,0.3 -3.9,-0.2 -5.8,0.2 0,0.1 0,0.3 0,0.4 1.4,0 2.8,0 4.3,0 0,0.6 0,1.1 0,1.7 -2,0 -4,0 -6.1,0 0,-1 -0.1,-2 0,-3.1 0,-0.4 0.6,-0.9 1,-0.9 2.2,0 4.4,0.1 6.6,0.1 z"
         inkscape:connector-curvature="0"
         style="fill:#c2c2c2" /></g><rect
       x="88.400002"
       y="318.89999"
       width="13.1"
       height="0.69999999"
       id="rect537"
       style="fill:#c4c4c4" /><rect
       x="117.3"
       y="318.89999"
       width="13.1"
       height="0.69999999"
       id="rect539"
       style="fill:#c4c4c4" /><rect
       x="88.400002"
       y="283.89999"
       width="13.1"
       height="0.69999999"
       id="rect541"
       style="fill:#c4c4c4" /><rect
       x="117.7"
       y="283.89999"
       width="12.8"
       height="0.69999999"
       id="rect543"
       style="fill:#c4c4c4" /><g
       id="g545"><path
         d="m 102.4,282.7 1.1,0 c 0.1,0 0.2,0 0.3,0 0.1,0 0.2,0 0.3,0.1 0.1,0.1 0.2,0.1 0.2,0.1 0.1,0 0.1,0.1 0.2,0.2 0,0.1 0.1,0.2 0.1,0.3 0,0.1 0,0.2 0,0.4 0,0.4 -0.1,0.6 -0.3,0.8 -0.2,0.2 -0.4,0.3 -0.8,0.3 l -0.6,0 0,1.3 -0.5,0 0,-3.5 z m 0.5,1.6 0.6,0 c 0.1,0 0.2,0 0.2,0 0.1,0 0.1,-0.1 0.2,-0.1 0,0 0.1,-0.1 0.1,-0.2 0,-0.1 0,-0.1 0,-0.2 0,-0.1 0,-0.2 0,-0.2 0,-0.1 -0.1,-0.1 -0.1,-0.1 0,0 -0.1,-0.1 -0.2,-0.1 -0.1,0 -0.1,0 -0.2,0 l -0.6,0 0,0.9 z"
         id="path547"
         inkscape:connector-curvature="0"
         style="fill:#c4c4c4" /><path
         d="m 106.4,282.7 c 0.2,0 0.4,0 0.5,0.1 0.2,0.1 0.3,0.2 0.4,0.4 0.1,0.2 0.2,0.3 0.3,0.5 0.1,0.2 0.1,0.4 0.1,0.7 0,0.3 0,0.5 -0.1,0.7 -0.1,0.2 -0.2,0.4 -0.3,0.5 -0.1,0.2 -0.3,0.3 -0.4,0.4 -0.1,0.1 -0.3,0.1 -0.5,0.1 -0.2,0 -0.4,0 -0.5,-0.1 -0.1,-0.1 -0.3,-0.2 -0.4,-0.4 -0.1,-0.2 -0.2,-0.3 -0.3,-0.5 -0.1,-0.2 -0.1,-0.4 -0.1,-0.7 0,-0.3 0,-0.5 0.1,-0.7 0.1,-0.2 0.2,-0.4 0.3,-0.5 0.1,-0.2 0.3,-0.3 0.4,-0.3 0.1,-0.2 0.3,-0.2 0.5,-0.2 z m -0.1,2.9 c 0.1,0 0.2,0 0.3,-0.1 0.1,-0.1 0.2,-0.1 0.3,-0.2 0.1,-0.1 0.1,-0.2 0.2,-0.4 0,-0.1 0.1,-0.3 0.1,-0.5 0,-0.2 0,-0.4 -0.1,-0.5 0,-0.1 -0.1,-0.3 -0.2,-0.4 -0.1,-0.1 -0.2,-0.2 -0.3,-0.2 -0.1,-0.1 -0.2,-0.1 -0.3,-0.1 -0.1,0 -0.2,0 -0.3,0.1 -0.1,0.1 -0.2,0.1 -0.3,0.2 -0.1,0.1 -0.1,0.2 -0.2,0.4 -0.1,0.2 -0.1,0.3 -0.1,0.5 0,0.2 0,0.3 0.1,0.5 0,0.1 0.1,0.3 0.2,0.4 0.1,0.1 0.2,0.2 0.3,0.2 0.1,0.1 0.2,0.1 0.3,0.1 z"
         id="path549"
         inkscape:connector-curvature="0"
         style="fill:#c4c4c4" /><path
         d="m 111.6,282.7 -0.8,3.4 -0.5,0 -0.6,-2.5 -0.6,2.5 -0.5,0 -0.8,-3.4 0.5,0 0.5,2.3 0.5,-2.3 0.6,0 0.5,2.3 0.5,-2.3 0.7,0 z"
         id="path551"
         inkscape:connector-curvature="0"
         style="fill:#c4c4c4" /><path
         d="m 114.2,286.1 -2.2,0 0,-3.4 2.1,0 0,0.6 -1.6,0 0,0.8 1.5,0 0,0.6 -1.5,0 0,0.9 1.6,0 0,0.5 z"
         id="path553"
         inkscape:connector-curvature="0"
         style="fill:#c4c4c4" /><path
         d="m 117.1,286.1 -0.6,0 -0.3,-0.9 c 0,-0.1 0,-0.1 -0.1,-0.2 0,-0.1 -0.1,-0.1 -0.1,-0.1 0,0 -0.1,-0.1 -0.1,-0.1 -0.1,0 -0.1,0 -0.2,0 l -0.6,0 0,1.3 -0.5,0 0,-3.4 1.3,0 c 0.1,0 0.1,0 0.2,0 0.1,0 0.1,0 0.2,0 0.1,0 0.1,0 0.2,0.1 0.1,0.1 0.1,0.1 0.2,0.1 0,0 0.1,0.1 0.1,0.2 0,0.1 0.1,0.1 0.1,0.2 0,0.1 0,0.1 0.1,0.2 0.1,0.1 0,0.1 0,0.2 0,0.2 0,0.4 -0.1,0.5 -0.1,0.1 -0.2,0.3 -0.3,0.3 0.1,0.1 0.2,0.3 0.3,0.5 l 0.2,1.1 z m -1.9,-1.9 0.7,0 c 0.1,0 0.2,0 0.2,0 0,0 0.1,0 0.2,-0.1 0,0 0.1,-0.1 0.1,-0.1 0,0 0,-0.1 0,-0.2 0,-0.1 0,-0.3 -0.1,-0.3 -0.1,-0.1 -0.2,-0.1 -0.4,-0.1 l -0.7,0 0,0.8 z"
         id="path555"
         inkscape:connector-curvature="0"
         style="fill:#c4c4c4" /></g><rect
       x="104.4"
       y="263.89999"
       width="1"
       height="5.1999998"
       id="rect557"
       style="fill:#c4c4c4" /><rect
       x="112.1"
       y="263.89999"
       width="1"
       height="5.1999998"
       id="rect559"
       style="fill:#c4c4c4" /><g
       id="g561"><path
         d="m 89.9,272.9 c 0,-0.1 0,-0.2 -0.1,-0.3 0,-0.1 -0.1,-0.1 -0.1,-0.2 0,-0.1 -0.1,-0.1 -0.2,-0.1 -0.1,0 -0.2,0 -0.2,0 -0.1,0 -0.2,0 -0.3,0.1 -0.1,0.1 -0.2,0.1 -0.2,0.2 -0.1,0.1 -0.1,0.2 -0.2,0.4 0,0.1 -0.1,0.3 -0.1,0.5 0,0.2 0,0.4 0.1,0.5 0,0.1 0.1,0.3 0.2,0.4 0.1,0.1 0.1,0.2 0.2,0.2 0.1,0.1 0.2,0.1 0.3,0.1 0.1,0 0.2,0 0.2,0 0,0 0.1,-0.1 0.2,-0.1 0.1,0 0.1,-0.1 0.1,-0.2 0,-0.1 0.1,-0.2 0.1,-0.3 l 0.5,0 c 0,0.2 -0.1,0.4 -0.1,0.5 -0.1,0.2 -0.1,0.3 -0.2,0.4 -0.1,0.1 -0.2,0.2 -0.4,0.2 -0.1,0.1 -0.3,0.1 -0.4,0.1 -0.2,0 -0.4,0 -0.5,-0.1 -0.2,-0.1 -0.3,-0.2 -0.4,-0.3 -0.1,-0.2 -0.2,-0.3 -0.3,-0.5 -0.1,-0.2 -0.1,-0.5 -0.1,-0.7 0,-0.3 0,-0.5 0.1,-0.7 0.1,-0.2 0.2,-0.4 0.3,-0.5 0.1,-0.2 0.3,-0.3 0.4,-0.3 0.2,-0.1 0.3,-0.1 0.5,-0.1 0.2,0 0.3,0 0.4,0.1 0.1,0.1 0.3,0.1 0.4,0.2 0.1,0.1 0.2,0.2 0.3,0.4 0.1,0.1 0.1,0.3 0.1,0.5 l -0.6,0 z"
         id="path563"
         inkscape:connector-curvature="0"
         style="fill:#c4c4c4" /><path
         d="m 93.4,275.1 -0.6,0 -0.3,-1 -1,0 -0.3,1 -0.6,0 1.1,-3.4 0.5,0 1.2,3.4 z m -1.1,-1.5 -0.3,-1.1 -0.3,1.1 0.6,0 z"
         id="path565"
         inkscape:connector-curvature="0"
         style="fill:#c4c4c4" /><path
         d="m 96.1,275.1 -0.6,0 -0.3,-0.9 c 0,-0.1 0,-0.1 -0.1,-0.2 0,-0.1 -0.1,-0.1 -0.1,-0.1 0,0 -0.1,-0.1 -0.1,-0.1 -0.1,0 -0.1,0 -0.2,0 l -0.6,0 0,1.3 -0.5,0 0,-3.4 1.3,0 c 0.1,0 0.1,0 0.2,0 0.1,0 0.1,0 0.2,0 0.1,0 0.1,0 0.2,0.1 0.1,0.1 0.1,0.1 0.2,0.1 0,0 0.1,0.1 0.1,0.2 0,0.1 0.1,0.1 0.1,0.2 0,0.1 0,0.1 0.1,0.2 0.1,0.1 0,0.1 0,0.2 0,0.2 0,0.4 -0.1,0.5 -0.1,0.1 -0.2,0.3 -0.3,0.3 0.1,0.1 0.2,0.3 0.3,0.5 l 0.2,1.1 z m -1.9,-1.9 0.7,0 c 0.1,0 0.2,0 0.2,0 0,0 0.1,0 0.2,-0.1 0,0 0.1,-0.1 0.1,-0.1 0,0 0,-0.1 0,-0.2 0,-0.1 0,-0.3 -0.1,-0.3 -0.1,-0.1 -0.2,-0.1 -0.4,-0.1 l -0.7,0 0,0.8 z"
         id="path567"
         inkscape:connector-curvature="0"
         style="fill:#c4c4c4" /><path
         d="m 98.6,272.3 -0.9,0 0,2.8 -0.5,0 0,-2.8 -0.9,0 0,-0.6 2.3,0 0,0.6 z"
         id="path569"
         inkscape:connector-curvature="0"
         style="fill:#c4c4c4" /><path
         d="m 101.5,275.1 -0.6,0 -0.3,-0.9 c 0,-0.1 0,-0.1 -0.1,-0.2 0,-0.1 -0.1,-0.1 -0.1,-0.1 0,0 -0.1,-0.1 -0.1,-0.1 -0.1,0 -0.1,0 -0.2,0 l -0.6,0 0,1.3 -0.5,0 0,-3.4 1.3,0 c 0.1,0 0.1,0 0.2,0 0.1,0 0.1,0 0.2,0 0.1,0 0.1,0 0.2,0.1 0.1,0.1 0.1,0.1 0.2,0.1 0,0 0.1,0.1 0.1,0.2 0,0.1 0.1,0.1 0.1,0.2 0,0.1 0,0.1 0.1,0.2 0.1,0.1 0,0.1 0,0.2 0,0.2 0,0.4 -0.1,0.5 -0.1,0.1 -0.2,0.3 -0.3,0.3 0.1,0.1 0.2,0.3 0.3,0.5 l 0.2,1.1 z m -1.9,-1.9 0.7,0 c 0.1,0 0.2,0 0.2,0 0,0 0.1,0 0.2,-0.1 0,0 0.1,-0.1 0.1,-0.1 0,0 0,-0.1 0,-0.2 0,-0.1 0,-0.3 -0.1,-0.3 -0.1,-0.1 -0.2,-0.1 -0.4,-0.1 l -0.7,0 0,0.8 z"
         id="path571"
         inkscape:connector-curvature="0"
         style="fill:#c4c4c4" /><path
         d="m 102.5,275.1 -0.5,0 0,-3.4 0.5,0 0,3.4 z"
         id="path573"
         inkscape:connector-curvature="0"
         style="fill:#c4c4c4" /><path
         d="m 105.5,273.4 c 0,1.1 -0.5,1.7 -1.4,1.7 l -0.9,0 0,-3.4 0.9,0 c 0.9,0.1 1.4,0.6 1.4,1.7 z m -0.5,0 c 0,-0.2 0,-0.3 0,-0.5 0,-0.1 -0.1,-0.2 -0.1,-0.3 0,-0.1 -0.2,-0.2 -0.3,-0.2 -0.1,0 -0.3,-0.1 -0.4,-0.1 l -0.4,0 0,2.2 0.4,0 c 0.2,0 0.3,0 0.4,-0.1 0.1,-0.1 0.2,-0.1 0.3,-0.2 0.1,-0.1 0.1,-0.2 0.1,-0.4 -0.1,-0.1 0,-0.2 0,-0.4 z"
         id="path575"
         inkscape:connector-curvature="0"
         style="fill:#c4c4c4" /><path
         d="m 107.3,275.2 c -0.2,0 -0.4,0 -0.6,-0.1 -0.2,-0.1 -0.3,-0.2 -0.4,-0.4 -0.1,-0.2 -0.2,-0.3 -0.3,-0.5 -0.1,-0.2 -0.1,-0.5 -0.1,-0.7 0,-0.3 0,-0.5 0.1,-0.7 0.1,-0.2 0.2,-0.4 0.3,-0.5 0.1,-0.1 0.3,-0.3 0.4,-0.3 0.1,0 0.3,-0.1 0.5,-0.1 0.2,0 0.3,0 0.5,0.1 0.1,0.1 0.3,0.1 0.4,0.2 0.1,0.1 0.2,0.2 0.3,0.4 0.1,0.1 0.1,0.3 0.1,0.5 l -0.5,0 c 0,-0.1 0,-0.2 -0.1,-0.3 -0.1,-0.1 -0.1,-0.1 -0.1,-0.2 -0.1,-0.1 -0.1,-0.1 -0.2,-0.1 -0.1,0 -0.2,0 -0.3,0 -0.1,0 -0.2,0 -0.3,0.1 -0.1,0.1 -0.2,0.1 -0.3,0.2 -0.1,0.1 -0.1,0.2 -0.2,0.4 0,0.1 -0.1,0.3 -0.1,0.5 0,0.2 0,0.3 0.1,0.5 0,0.1 0.1,0.3 0.2,0.4 0.1,0.1 0.2,0.2 0.3,0.2 0.1,0 0.2,0.1 0.3,0.1 0.2,0 0.3,0 0.4,-0.1 0.1,-0.1 0.2,-0.2 0.3,-0.3 l 0,-0.4 -0.7,0 0,-0.6 1.2,0 0,1.8 -0.4,0 -0.1,-0.2 c -0.1,0.1 -0.2,0.2 -0.3,0.2 -0.1,-0.2 -0.2,-0.1 -0.4,-0.1 z"
         id="path577"
         inkscape:connector-curvature="0"
         style="fill:#c4c4c4" /><path
         d="m 111.3,275.1 -2.1,0 0,-3.4 2.1,0 0,0.6 -1.6,0 0,0.8 1.5,0 0,0.6 -1.5,0 0,0.9 1.6,0 0,0.5 z"
         id="path579"
         inkscape:connector-curvature="0"
         style="fill:#c4c4c4" /><path
         d="m 89.9,280.5 -1.8,0 0,-3.4 0.5,0 0,2.8 1.3,0 0,0.6 z"
         id="path581"
         inkscape:connector-curvature="0"
         style="fill:#c4c4c4" /><path
         d="m 91.6,277.1 c 0.2,0 0.4,0 0.5,0.1 0.2,0.1 0.3,0.2 0.4,0.4 0.1,0.2 0.2,0.3 0.3,0.5 0.1,0.2 0.1,0.4 0.1,0.7 0,0.3 0,0.5 -0.1,0.7 -0.1,0.2 -0.2,0.4 -0.3,0.5 -0.1,0.2 -0.3,0.3 -0.4,0.4 -0.1,0.1 -0.3,0.1 -0.5,0.1 -0.2,0 -0.4,0 -0.5,-0.1 -0.1,-0.1 -0.3,-0.2 -0.4,-0.4 -0.1,-0.2 -0.2,-0.3 -0.3,-0.5 -0.1,-0.2 -0.1,-0.4 -0.1,-0.7 0,-0.3 0,-0.5 0.1,-0.7 0.1,-0.2 0.2,-0.4 0.3,-0.5 0.1,-0.2 0.3,-0.3 0.4,-0.3 0.1,-0.1 0.3,-0.2 0.5,-0.2 z m 0,2.9 c 0.1,0 0.2,0 0.3,-0.1 0.1,-0.1 0.2,-0.1 0.3,-0.2 0.1,-0.1 0.1,-0.2 0.2,-0.4 0,-0.1 0.1,-0.3 0.1,-0.5 0,-0.2 0,-0.4 -0.1,-0.5 0,-0.1 -0.1,-0.3 -0.2,-0.4 -0.1,-0.1 -0.2,-0.2 -0.3,-0.2 -0.1,-0.1 -0.2,-0.1 -0.3,-0.1 -0.1,0 -0.2,0 -0.3,0.1 -0.1,0.1 -0.2,0.1 -0.3,0.2 -0.1,0.1 -0.1,0.2 -0.2,0.4 -0.1,0.2 -0.1,0.3 -0.1,0.5 0,0.2 0,0.3 0.1,0.5 0,0.1 0.1,0.3 0.2,0.4 0.1,0.1 0.2,0.2 0.3,0.2 0,0.1 0.2,0.1 0.3,0.1 z"
         id="path583"
         inkscape:connector-curvature="0"
         style="fill:#c4c4c4" /><path
         d="m 95.3,278.3 c 0,-0.1 0,-0.2 -0.1,-0.3 0,-0.1 -0.1,-0.1 -0.1,-0.2 0,-0.1 -0.1,-0.1 -0.2,-0.1 -0.1,0 -0.2,0 -0.2,0 -0.1,0 -0.2,0 -0.3,0.1 -0.1,0.1 -0.2,0.1 -0.2,0.2 -0.1,0.1 -0.1,0.2 -0.2,0.4 0,0.1 -0.1,0.3 -0.1,0.5 0,0.2 0,0.4 0.1,0.5 0,0.1 0.1,0.3 0.2,0.4 0.1,0.1 0.1,0.2 0.2,0.2 0.1,0.1 0.2,0.1 0.3,0.1 0.1,0 0.2,0 0.2,0 0,0 0.1,-0.1 0.2,-0.1 0.1,0 0.1,-0.1 0.1,-0.2 0,-0.1 0.1,-0.2 0.1,-0.3 l 0.5,0 c 0,0.2 -0.1,0.4 -0.1,0.5 -0.1,0.2 -0.1,0.3 -0.2,0.4 -0.1,0.1 -0.2,0.2 -0.4,0.2 -0.1,0.1 -0.3,0.1 -0.4,0.1 -0.2,0 -0.4,0 -0.5,-0.1 -0.2,-0.1 -0.3,-0.2 -0.4,-0.3 -0.1,-0.2 -0.2,-0.3 -0.3,-0.5 -0.1,-0.2 -0.1,-0.5 -0.1,-0.7 0,-0.3 0,-0.5 0.1,-0.7 0.1,-0.2 0.2,-0.4 0.3,-0.5 0.1,-0.2 0.3,-0.3 0.4,-0.3 0.2,-0.1 0.3,-0.1 0.5,-0.1 0.2,0 0.3,0 0.4,0.1 0.1,0.1 0.3,0.1 0.4,0.2 0.1,0.1 0.2,0.2 0.3,0.4 0.1,0.1 0.1,0.3 0.1,0.5 l -0.6,0 z"
         id="path585"
         inkscape:connector-curvature="0"
         style="fill:#c4c4c4" /><path
         d="m 98.8,280.5 -0.7,0 -0.9,-1.5 -0.3,0.4 0,1.2 -0.5,0 0,-3.4 0.5,0 0,1.4 1.2,-1.4 0.7,0 -1.2,1.4 1.2,1.9 z"
         id="path587"
         inkscape:connector-curvature="0"
         style="fill:#c4c4c4" /></g><g
       id="g589"><path
         d="m 44.5,319.7 1.2,0 c 0.1,0 0.2,0 0.3,0 0.1,0 0.2,0 0.3,0.1 0.1,0 0.2,0.1 0.3,0.1 0.1,0 0.1,0.1 0.2,0.2 0.1,0.1 0.1,0.2 0.1,0.3 0,0.1 0,0.2 0,0.4 0,0.4 -0.1,0.7 -0.3,0.9 -0.2,0.2 -0.5,0.3 -0.9,0.3 l -0.6,0 0,1.4 -0.6,0 0,-3.7 z m 0.6,1.7 0.7,0 c 0.1,0 0.2,0 0.3,0 0.1,0 0.1,-0.1 0.2,-0.1 0,0 0.1,-0.1 0.1,-0.2 0,-0.1 0,-0.1 0,-0.2 0,-0.1 0,-0.2 0,-0.3 0,-0.1 -0.1,-0.1 -0.1,-0.2 0,-0.1 -0.1,-0.1 -0.2,-0.1 -0.1,0 -0.2,0 -0.2,0 l -0.6,0 0,1.1 z"
         id="path591"
         inkscape:connector-curvature="0"
         style="fill:#c4c4c4" /><path
         d="m 50,323.4 -0.6,0 0,-1.7 -1.3,0 0,1.7 -0.6,0 0,-3.7 0.6,0 0,1.4 1.3,0 0,-1.4 0.6,0 0,3.7 z"
         id="path593"
         inkscape:connector-curvature="0"
         style="fill:#c4c4c4" /><path
         d="m 52.1,319.6 c 0.2,0 0.4,0 0.6,0.1 0.2,0.1 0.3,0.2 0.5,0.4 0.1,0.2 0.2,0.4 0.3,0.6 0.1,0.2 0.1,0.5 0.1,0.8 0,0.3 0,0.5 -0.1,0.8 -0.1,0.2 -0.2,0.4 -0.3,0.6 -0.1,0.2 -0.3,0.3 -0.5,0.4 -0.2,0.1 -0.4,0.1 -0.6,0.1 -0.2,0 -0.4,0 -0.6,-0.1 -0.2,-0.1 -0.3,-0.2 -0.5,-0.4 -0.2,-0.2 -0.2,-0.4 -0.3,-0.6 -0.1,-0.2 -0.1,-0.5 -0.1,-0.8 0,-0.3 0,-0.6 0.1,-0.8 0.1,-0.2 0.2,-0.4 0.3,-0.6 0.1,-0.2 0.3,-0.3 0.5,-0.4 0.2,0 0.4,-0.1 0.6,-0.1 z m 0,3.3 c 0.1,0 0.3,0 0.4,-0.1 0.1,-0.1 0.2,-0.1 0.3,-0.3 0.1,-0.1 0.1,-0.3 0.2,-0.4 0,-0.2 0.1,-0.3 0.1,-0.6 0,-0.2 0,-0.4 -0.1,-0.6 0,-0.2 -0.1,-0.3 -0.2,-0.4 -0.1,-0.1 -0.2,-0.2 -0.3,-0.3 -0.1,-0.1 -0.2,-0.1 -0.4,-0.1 -0.1,0 -0.3,0 -0.4,0.1 -0.1,0.1 -0.2,0.1 -0.3,0.3 -0.1,0.1 -0.1,0.2 -0.2,0.4 0,0.2 -0.1,0.3 -0.1,0.5 0,0.2 0,0.4 0.1,0.6 0,0.2 0.1,0.3 0.2,0.4 0.1,0.1 0.2,0.2 0.3,0.3 0.2,0.1 0.3,0.2 0.4,0.2 z"
         id="path595"
         inkscape:connector-curvature="0"
         style="fill:#c4c4c4" /><path
         d="m 56.8,323.4 -0.5,0 -1.4,-2.5 0,2.5 -0.6,0 0,-3.7 0.6,0 1.4,2.5 0,-2.5 0.6,0 0,3.7 z"
         id="path597"
         inkscape:connector-curvature="0"
         style="fill:#c4c4c4" /><path
         d="m 59.9,323.4 -2.4,0 0,-3.7 2.3,0 0,0.6 -1.7,0 0,0.8 1.6,0 0,0.6 -1.6,0 0,1 1.8,0 0,0.7 z"
         id="path599"
         inkscape:connector-curvature="0"
         style="fill:#c4c4c4" /><path
         d="m 61.7,323.5 c -0.2,0 -0.4,0 -0.6,-0.1 -0.2,-0.1 -0.3,-0.2 -0.4,-0.3 -0.1,-0.1 -0.2,-0.3 -0.3,-0.4 -0.1,-0.2 -0.1,-0.4 -0.1,-0.6 l 0.6,0 c 0,0.1 0,0.2 0.1,0.3 0,0.1 0.1,0.2 0.2,0.2 0.1,0.1 0.1,0.1 0.2,0.1 0.1,0 0.2,0 0.3,0 0.1,0 0.2,0 0.3,0 0.1,0 0.1,-0.1 0.2,-0.1 0.1,0 0.1,-0.1 0.1,-0.2 0,-0.1 0,-0.1 0,-0.2 0,-0.1 0,-0.1 0,-0.2 0,-0.1 -0.1,-0.1 -0.1,-0.1 -0.1,0 -0.2,-0.1 -0.3,-0.1 -0.1,0 -0.2,-0.1 -0.4,-0.1 -0.2,0 -0.3,-0.1 -0.5,-0.2 -0.2,-0.1 -0.2,-0.1 -0.3,-0.2 -0.1,-0.1 -0.1,-0.2 -0.2,-0.3 0,-0.1 -0.1,-0.2 -0.1,-0.4 0,-0.2 0,-0.3 0.1,-0.4 0.1,-0.1 0.1,-0.2 0.2,-0.3 0.1,-0.1 0.2,-0.2 0.4,-0.2 0.1,-0.1 0.3,-0.1 0.5,-0.1 0.2,0 0.3,0 0.5,0.1 0.2,0.1 0.3,0.1 0.4,0.3 0.1,0.2 0.2,0.2 0.3,0.4 0.1,0.2 0.1,0.3 0.1,0.5 l -0.6,0 c 0,-0.4 -0.3,-0.6 -0.6,-0.6 -0.2,0 -0.3,0 -0.4,0.1 -0.1,0.1 -0.2,0.2 -0.2,0.3 0,0.1 0,0.1 0,0.1 0,0 0.1,0.1 0.1,0.1 0,0 0.1,0.1 0.2,0.1 0.1,0 0.2,0.1 0.3,0.1 0.1,0 0.2,0 0.3,0.1 0.1,0 0.2,0.1 0.3,0.1 0.1,0 0.2,0.1 0.3,0.1 0.1,0 0.2,0.1 0.2,0.2 0.1,0.1 0.1,0.2 0.1,0.3 0,0.1 0.1,0.2 0.1,0.4 0,0.2 0,0.3 -0.1,0.5 -0.1,0.1 -0.1,0.3 -0.2,0.4 -0.1,0.1 -0.2,0.2 -0.4,0.2 -0.3,0.1 -0.4,0.1 -0.6,0.1 z"
         id="path601"
         inkscape:connector-curvature="0"
         style="fill:#c4c4c4" /><path
         d="m 67.4,319.7 -1.2,3.7 -0.5,0 -1.2,-3.7 0.5,0 0.9,2.8 0.9,-2.8 0.6,0 z"
         id="path603"
         inkscape:connector-curvature="0"
         style="fill:#c4c4c4" /><path
         d="m 69.1,319.6 c 0.2,0 0.4,0 0.6,0.1 0.2,0.1 0.3,0.2 0.5,0.4 0.1,0.2 0.2,0.4 0.3,0.6 0.1,0.2 0.1,0.5 0.1,0.8 0,0.3 0,0.5 -0.1,0.8 -0.1,0.2 -0.2,0.4 -0.3,0.6 -0.1,0.2 -0.3,0.3 -0.5,0.4 -0.2,0.1 -0.4,0.1 -0.6,0.1 -0.2,0 -0.4,0 -0.6,-0.1 -0.2,-0.1 -0.3,-0.2 -0.5,-0.4 -0.2,-0.2 -0.2,-0.4 -0.3,-0.6 -0.1,-0.2 -0.1,-0.5 -0.1,-0.8 0,-0.3 0,-0.6 0.1,-0.8 0.1,-0.2 0.2,-0.4 0.3,-0.6 0.1,-0.2 0.3,-0.3 0.5,-0.4 0.2,0 0.4,-0.1 0.6,-0.1 z m 0,3.3 c 0.1,0 0.3,0 0.4,-0.1 0.1,-0.1 0.2,-0.1 0.3,-0.3 0.1,-0.1 0.1,-0.3 0.2,-0.4 0,-0.2 0.1,-0.3 0.1,-0.6 0,-0.2 0,-0.4 -0.1,-0.6 0,-0.2 -0.1,-0.3 -0.2,-0.4 -0.1,-0.1 -0.2,-0.2 -0.3,-0.3 -0.1,-0.1 -0.2,-0.1 -0.4,-0.1 -0.1,0 -0.3,0 -0.4,0.1 -0.1,0.1 -0.2,0.1 -0.3,0.3 -0.1,0.1 -0.1,0.2 -0.2,0.4 0,0.2 -0.1,0.3 -0.1,0.5 0,0.2 0,0.4 0.1,0.6 0,0.2 0.1,0.3 0.2,0.4 0.1,0.1 0.2,0.2 0.3,0.3 0.2,0.1 0.3,0.2 0.4,0.2 z"
         id="path605"
         inkscape:connector-curvature="0"
         style="fill:#c4c4c4" /><path
         d="m 73.2,323.4 -2,0 0,-3.7 0.6,0 0,3.1 1.4,0 0,0.6 z"
         id="path607"
         inkscape:connector-curvature="0"
         style="fill:#c4c4c4" /><path
         d="m 74.3,323.4 -0.6,0 0,-0.7 0.6,0 0,0.7 z"
         id="path609"
         inkscape:connector-curvature="0"
         style="fill:#c4c4c4" /></g><g
       id="g611"><rect
         x="72.699997"
         y="245.5"
         width="10"
         height="1"
         id="rect613"
         style="fill:#c2c2c2" /><rect
         x="72.800003"
         y="247.39999"
         width="9.6000004"
         height="0.60000002"
         id="rect615"
         style="fill:#c2c2c2" /><rect
         x="72.800003"
         y="249.10001"
         width="9.3000002"
         height="0.60000002"
         id="rect617"
         style="fill:#c2c2c2" /><rect
         x="72.800003"
         y="250.7"
         width="9"
         height="0.60000002"
         id="rect619"
         style="fill:#c2c2c2" /><rect
         x="72.800003"
         y="252.39999"
         width="8.6999998"
         height="0.60000002"
         id="rect621"
         style="fill:#c2c2c2" /><rect
         x="72.800003"
         y="254.10001"
         width="8.3999996"
         height="0.60000002"
         id="rect623"
         style="fill:#c2c2c2" /><rect
         x="72.800003"
         y="255.8"
         width="8.1000004"
         height="0.60000002"
         id="rect625"
         style="fill:#c2c2c2" /><rect
         x="72.800003"
         y="257.5"
         width="7.8000002"
         height="0.60000002"
         id="rect627"
         style="fill:#c2c2c2" /><rect
         x="72.800003"
         y="259.20001"
         width="7.5"
         height="0.60000002"
         id="rect629"
         style="fill:#c2c2c2" /><rect
         x="72.800003"
         y="260.79999"
         width="7.1999998"
         height="0.60000002"
         id="rect631"
         style="fill:#c2c2c2" /><rect
         x="72.800003"
         y="264.20001"
         width="6.5999999"
         height="0.60000002"
         id="rect633"
         style="fill:#c2c2c2" /><rect
         x="72.800003"
         y="265.89999"
         width="6.3000002"
         height="0.60000002"
         id="rect635"
         style="fill:#c2c2c2" /><rect
         x="72.800003"
         y="267.60001"
         width="6"
         height="0.60000002"
         id="rect637"
         style="fill:#c2c2c2" /><rect
         x="72.800003"
         y="269.29999"
         width="5.6999998"
         height="0.60000002"
         id="rect639"
         style="fill:#c2c2c2" /><rect
         x="72.800003"
         y="270.89999"
         width="5.4000001"
         height="0.60000002"
         id="rect641"
         style="fill:#c2c2c2" /><rect
         x="72.800003"
         y="272.60001"
         width="5.0999999"
         height="0.60000002"
         id="rect643"
         style="fill:#c2c2c2" /><rect
         x="72.800003"
         y="274.29999"
         width="4.8000002"
         height="0.60000002"
         id="rect645"
         style="fill:#c2c2c2" /><rect
         x="72.800003"
         y="276"
         width="4.5"
         height="0.60000002"
         id="rect647"
         style="fill:#c2c2c2" /><rect
         x="72.800003"
         y="277.70001"
         width="4.1999998"
         height="0.60000002"
         id="rect649"
         style="fill:#c2c2c2" /><rect
         x="72.699997"
         y="245.5"
         width="9.3000002"
         height="1"
         id="rect651"
         style="fill:#c2c2c2" /><rect
         x="72.800003"
         y="279.20001"
         width="9.6999998"
         height="1"
         id="rect653"
         style="fill:#c2c2c2" /><rect
         x="72.800003"
         y="262.29999"
         width="6.9000001"
         height="1"
         id="rect655"
         style="fill:#c2c2c2" /></g><g
       id="g657"><g
         id="g659"><path
           d="m 437.4,252.6 c -0.2,0.1 -0.3,0.2 -0.5,0.3 -0.2,-0.5 -0.4,-0.7 -0.6,-1.1 -0.5,0.2 -0.7,0.4 -1.1,0.6 0.2,0.5 0.3,0.7 0.6,1.1 -0.2,0.1 -0.3,0.2 -0.5,0.3 -0.5,-1 -0.8,-1.5 -1.3,-2.6 0.2,-0.1 0.3,-0.1 0.5,-0.3 0.2,0.4 0.3,0.6 0.5,1 0.5,-0.2 0.7,-0.4 1.1,-0.6 -0.2,-0.4 -0.3,-0.6 -0.5,-1 0.2,-0.1 0.3,-0.2 0.5,-0.3 0.4,1.1 0.7,1.6 1.3,2.6 z"
           id="path661"
           inkscape:connector-curvature="0"
           style="fill:#a02b59" /><path
           d="m 438.5,252 c -0.2,0.1 -0.3,0.2 -0.5,0.3 -0.5,-1 -0.8,-1.5 -1.4,-2.5 0.2,-0.1 0.3,-0.2 0.5,-0.3 0.6,1 0.9,1.5 1.4,2.5 z"
           id="path663"
           inkscape:connector-curvature="0"
           style="fill:#a02b59" /><path
           d="m 440.3,251 c -0.2,0.1 -0.4,0.2 -0.6,0.2 -0.2,0 -0.4,0 -0.6,0 -0.2,-0.1 -0.3,-0.1 -0.5,-0.3 -0.2,-0.1 -0.3,-0.3 -0.4,-0.5 -0.1,-0.2 -0.2,-0.4 -0.2,-0.6 0,-0.2 0,-0.4 0,-0.6 0,-0.2 0.1,-0.3 0.2,-0.5 0.1,-0.1 0.3,-0.3 0.4,-0.4 0.2,-0.1 0.3,-0.1 0.5,-0.2 0.2,0 0.3,0 0.5,0 0.1,0 0.3,0.1 0.4,0.1 0.1,0 0.2,0.2 0.3,0.3 -0.2,0.1 -0.3,0.2 -0.5,0.3 -0.1,-0.1 -0.1,-0.1 -0.2,-0.2 -0.1,0 -0.1,-0.1 -0.2,-0.1 -0.1,0 -0.2,0 -0.3,0 -0.1,0 -0.2,0.1 -0.3,0.1 -0.1,0.1 -0.2,0.1 -0.3,0.2 -0.1,0.1 -0.1,0.2 -0.1,0.3 0,0.1 0,0.2 0,0.4 0,0.1 0.1,0.3 0.2,0.4 0.1,0.1 0.2,0.3 0.3,0.3 0.1,0.1 0.2,0.2 0.3,0.2 0.1,0 0.2,0 0.3,0 0.1,0 0.2,-0.1 0.3,-0.1 0.2,-0.1 0.3,-0.2 0.4,-0.3 0.1,-0.1 0.1,-0.2 0.2,-0.4 -0.1,-0.1 -0.1,-0.2 -0.2,-0.3 -0.3,0.1 -0.4,0.2 -0.6,0.4 -0.1,-0.2 -0.1,-0.3 -0.2,-0.4 0.4,-0.3 0.7,-0.4 1.1,-0.6 0.3,0.5 0.5,0.8 0.8,1.3 -0.1,0.1 -0.2,0.1 -0.4,0.2 -0.1,-0.1 -0.1,-0.1 -0.2,-0.1 0,0.1 -0.1,0.2 -0.2,0.4 0.1,0.4 0,0.5 -0.2,0.5 z"
           id="path665"
           inkscape:connector-curvature="0"
           style="fill:#a02b59" /><path
           d="m 444.1,248.7 c -0.2,0.1 -0.3,0.2 -0.5,0.3 -0.3,-0.4 -0.4,-0.7 -0.7,-1.1 -0.4,0.3 -0.7,0.4 -1.1,0.7 0.3,0.4 0.4,0.7 0.7,1.1 -0.2,0.1 -0.3,0.2 -0.5,0.3 -0.6,-1 -0.9,-1.5 -1.5,-2.5 0.2,-0.1 0.3,-0.2 0.5,-0.3 0.2,0.4 0.3,0.6 0.6,1 0.4,-0.3 0.7,-0.4 1.1,-0.7 -0.2,-0.4 -0.4,-0.6 -0.6,-0.9 0.2,-0.1 0.3,-0.2 0.5,-0.3 0.6,1 0.9,1.4 1.5,2.4 z"
           id="path667"
           inkscape:connector-curvature="0"
           style="fill:#a02b59" /><path
           d="m 446.8,247 c -0.2,0.1 -0.4,0.2 -0.6,0.2 -0.2,0 -0.4,0 -0.6,0 -0.2,0 -0.3,-0.1 -0.5,-0.2 -0.2,-0.1 -0.3,-0.3 -0.4,-0.5 -0.1,-0.2 -0.2,-0.4 -0.2,-0.6 0,-0.2 0,-0.4 0,-0.6 0,-0.2 0.1,-0.3 0.2,-0.5 0.1,-0.2 0.2,-0.3 0.4,-0.4 0.1,-0.1 0.3,-0.2 0.4,-0.2 0.2,0 0.3,-0.1 0.5,0 0.1,0 0.3,0 0.4,0.1 0.1,0.1 0.2,0.2 0.3,0.3 -0.2,0.1 -0.3,0.2 -0.5,0.3 -0.1,-0.1 -0.1,-0.1 -0.2,-0.2 -0.1,0 -0.1,-0.1 -0.2,-0.1 -0.1,0 -0.2,0 -0.2,0 -0.1,0 -0.2,0.1 -0.3,0.1 -0.1,0.1 -0.2,0.2 -0.3,0.2 -0.1,0.1 -0.1,0.2 -0.1,0.3 0,0.1 0,0.2 0,0.4 0,0.1 0.1,0.3 0.2,0.4 0.1,0.1 0.2,0.2 0.3,0.3 0.1,0.1 0.2,0.1 0.3,0.2 0.1,0 0.2,0 0.3,0 0.1,0 0.2,-0.1 0.3,-0.1 0.2,-0.1 0.3,-0.2 0.4,-0.3 0.1,-0.1 0.1,-0.2 0.1,-0.4 -0.1,-0.1 -0.1,-0.2 -0.2,-0.3 -0.2,0.2 -0.4,0.2 -0.6,0.4 -0.1,-0.2 -0.2,-0.2 -0.3,-0.4 0.4,-0.3 0.6,-0.4 1.1,-0.7 0.4,0.5 0.5,0.8 0.9,1.3 -0.1,0.1 -0.2,0.1 -0.4,0.2 -0.1,-0.1 -0.1,-0.1 -0.2,-0.1 0,0.1 -0.1,0.2 -0.2,0.4 0.2,0.3 0.1,0.4 -0.1,0.5 z"
           id="path669"
           inkscape:connector-curvature="0"
           style="fill:#a02b59" /><path
           d="m 450.6,244.3 c -0.2,0.1 -0.3,0.2 -0.5,0.4 -0.3,-0.2 -0.4,-0.3 -0.7,-0.5 0,0 -0.1,-0.1 -0.2,-0.1 -0.1,0 -0.1,0 -0.2,0 -0.1,0 -0.1,0 -0.2,0 -0.1,0 -0.1,0 -0.2,0.1 -0.2,0.1 -0.3,0.2 -0.5,0.3 0.3,0.4 0.4,0.6 0.7,1 -0.2,0.1 -0.3,0.2 -0.5,0.3 -0.7,-1 -1,-1.4 -1.6,-2.4 0.4,-0.3 0.6,-0.4 1.1,-0.8 0.1,0 0.1,-0.1 0.2,-0.1 0.1,0 0.1,-0.1 0.2,-0.1 0.1,0 0.1,0 0.2,-0.1 0.1,0 0.1,0 0.2,0 0.1,0 0.1,0 0.2,0 0.1,0 0.1,0 0.2,0.1 0.1,0 0.1,0.1 0.1,0.1 0,0 0.1,0.1 0.1,0.1 0.1,0.1 0.2,0.3 0.2,0.4 0,0.2 0,0.3 -0.1,0.4 0.2,0 0.3,0.1 0.5,0.2 0.4,0.4 0.5,0.5 0.8,0.7 z m -2.6,-0.1 c 0.2,-0.2 0.4,-0.3 0.6,-0.4 0.1,-0.1 0.1,-0.1 0.2,-0.2 0.1,-0.1 0.1,-0.1 0.1,-0.2 0,-0.1 0,-0.1 0,-0.2 0,-0.1 0,-0.1 -0.1,-0.2 -0.1,-0.1 -0.2,-0.2 -0.3,-0.2 -0.1,0 -0.2,0 -0.4,0.1 -0.3,0.2 -0.4,0.3 -0.6,0.5 0.3,0.4 0.3,0.5 0.5,0.8 z"
           id="path671"
           inkscape:connector-curvature="0"
           style="fill:#a02b59" /><path
           d="m 453.1,242.5 c -0.2,0.2 -0.3,0.2 -0.5,0.4 -0.3,-0.2 -0.5,-0.3 -0.8,-0.5 -0.3,0.3 -0.5,0.4 -0.8,0.6 0.1,0.3 0.1,0.5 0.2,0.8 -0.2,0.1 -0.3,0.2 -0.5,0.3 -0.3,-1.2 -0.5,-1.8 -0.8,-3 0.2,-0.1 0.3,-0.2 0.4,-0.3 1.2,0.8 1.7,1.1 2.8,1.7 z m -1.7,-0.3 c -0.3,-0.2 -0.5,-0.3 -0.8,-0.5 0.1,0.4 0.2,0.6 0.3,0.9 0.2,-0.2 0.3,-0.3 0.5,-0.4 z"
           id="path673"
           inkscape:connector-curvature="0"
           style="fill:#a02b59" /><path
           d="m 454.4,239.6 c 0.6,0.8 0.5,1.5 -0.3,2.1 -0.3,0.2 -0.5,0.4 -0.8,0.6 -0.7,-0.9 -1.1,-1.4 -1.8,-2.3 0.3,-0.2 0.5,-0.4 0.8,-0.6 0.9,-0.6 1.5,-0.5 2.1,0.2 z M 454,240 c -0.1,-0.1 -0.2,-0.2 -0.3,-0.3 -0.1,-0.1 -0.2,-0.1 -0.3,-0.1 -0.1,0 -0.2,0 -0.3,0 -0.1,0 -0.3,0.1 -0.4,0.2 -0.1,0.1 -0.2,0.2 -0.3,0.3 0.5,0.6 0.7,0.9 1.2,1.5 0.1,-0.1 0.2,-0.2 0.3,-0.3 0.1,-0.1 0.3,-0.2 0.3,-0.3 0.1,-0.1 0.1,-0.2 0.1,-0.3 0,-0.1 0,-0.2 -0.1,-0.3 0,-0.2 -0.1,-0.3 -0.2,-0.4 z"
           id="path675"
           inkscape:connector-curvature="0"
           style="fill:#a02b59" /><path
           d="m 457.6,238.9 c -0.7,0.6 -1.1,0.9 -1.8,1.5 -0.7,-0.9 -1.1,-1.3 -1.8,-2.2 0.7,-0.5 1,-0.8 1.7,-1.4 0.1,0.2 0.2,0.2 0.3,0.4 -0.5,0.4 -0.8,0.6 -1.3,1 0.2,0.2 0.2,0.3 0.4,0.5 0.5,-0.4 0.7,-0.6 1.2,-1 0.1,0.2 0.2,0.2 0.3,0.4 -0.5,0.4 -0.7,0.6 -1.2,1 0.2,0.2 0.3,0.3 0.5,0.6 0.5,-0.4 0.8,-0.7 1.3,-1.1 0.2,0.1 0.3,0.1 0.4,0.3 z"
           id="path677"
           inkscape:connector-curvature="0"
           style="fill:#a02b59" /><path
           d="m 461,235.8 c -0.2,0.1 -0.2,0.2 -0.4,0.4 -0.5,-0.5 -0.7,-0.8 -1.2,-1.4 0.3,0.7 0.5,1.1 0.8,1.8 -0.1,0.1 -0.2,0.2 -0.4,0.3 -0.7,-0.4 -1,-0.6 -1.7,-1 0.5,0.6 0.7,0.8 1.2,1.4 -0.2,0.1 -0.2,0.2 -0.4,0.4 -0.8,-0.9 -1.1,-1.3 -1.9,-2.2 0.2,-0.2 0.3,-0.3 0.5,-0.5 0.7,0.4 1.1,0.7 1.9,1.1 -0.3,-0.8 -0.5,-1.2 -0.9,-2 0.2,-0.2 0.3,-0.3 0.5,-0.5 0.9,1 1.3,1.4 2,2.2 z"
           id="path679"
           inkscape:connector-curvature="0"
           style="fill:#a02b59" /><path
           d="m 462.5,234.6 c -0.1,0.1 -0.3,0.2 -0.4,0.3 -0.1,0.1 -0.2,0.1 -0.3,0.1 -0.1,0 -0.2,0 -0.3,0 -0.1,0 -0.2,-0.1 -0.3,-0.1 -0.1,-0.1 -0.2,-0.1 -0.2,-0.2 -0.1,-0.1 -0.1,-0.1 -0.2,-0.2 -0.5,-0.5 -0.7,-0.7 -1.1,-1.2 0.2,-0.1 0.2,-0.2 0.4,-0.4 0.5,0.5 0.7,0.7 1.1,1.2 0.1,0.1 0.2,0.2 0.3,0.3 0.1,0.1 0.2,0.1 0.3,0.1 0.1,0 0.2,0 0.2,-0.1 0.1,0 0.1,-0.1 0.2,-0.2 0.1,-0.1 0.1,-0.1 0.2,-0.2 0,-0.1 0.1,-0.1 0.1,-0.2 0,-0.1 0,-0.2 -0.1,-0.3 -0.1,-0.1 -0.1,-0.2 -0.2,-0.3 -0.5,-0.5 -0.7,-0.7 -1.1,-1.2 0.2,-0.2 0.2,-0.2 0.4,-0.4 0.5,0.5 0.7,0.7 1.2,1.2 0.1,0.1 0.3,0.3 0.3,0.4 0.1,0.1 0.1,0.3 0.1,0.4 0,0.1 0,0.3 -0.1,0.4 -0.2,0.2 -0.3,0.4 -0.5,0.6 z"
           id="path681"
           inkscape:connector-curvature="0"
           style="fill:#a02b59" /><path
           d="m 465.2,231.8 c -0.5,0.6 -0.8,0.8 -1.4,1.4 -0.8,-0.8 -1.2,-1.2 -2,-2.1 0.2,-0.2 0.2,-0.2 0.4,-0.4 0.7,0.7 1,1 1.7,1.7 0.4,-0.4 0.6,-0.6 1,-1 0.1,0.2 0.2,0.3 0.3,0.4 z"
           id="path683"
           inkscape:connector-curvature="0"
           style="fill:#a02b59" /><path
           d="m 465.3,228.3 c -0.3,0.3 -0.4,0.4 -0.6,0.7 0.7,0.7 1,1 1.7,1.7 -0.2,0.2 -0.2,0.2 -0.4,0.4 -0.7,-0.7 -1,-1 -1.7,-1.7 -0.3,0.3 -0.4,0.4 -0.6,0.7 -0.1,-0.1 -0.2,-0.2 -0.4,-0.3 0.7,-0.7 1,-1 1.6,-1.7 0.2,0 0.3,0 0.4,0.2 z"
           id="path685"
           inkscape:connector-curvature="0"
           style="fill:#a02b59" /><path
           d="m 467.8,229.1 c -0.2,0.2 -0.2,0.2 -0.4,0.4 -0.8,-0.8 -1.3,-1.2 -2.1,-2 0.1,-0.2 0.2,-0.2 0.4,-0.4 0.8,0.9 1.2,1.3 2.1,2 z"
           id="path687"
           inkscape:connector-curvature="0"
           style="fill:#a02b59" /><path
           d="m 466.1,226.7 c 0.3,-0.3 0.5,-0.5 0.8,-0.8 0.1,-0.1 0.1,-0.1 0.2,-0.2 0.1,-0.1 0.1,-0.1 0.2,-0.2 0.1,0 0.2,-0.1 0.2,-0.1 0,0 0.2,0 0.2,0 0.1,0 0.2,0 0.3,0.1 0.1,0 0.2,0.1 0.3,0.2 0.2,0.2 0.3,0.4 0.3,0.7 0,0.2 -0.1,0.5 -0.4,0.8 -0.2,0.2 -0.2,0.3 -0.4,0.5 0.3,0.3 0.5,0.4 0.8,0.7 -0.2,0.2 -0.2,0.2 -0.4,0.4 -0.8,-0.9 -1.3,-1.3 -2.1,-2.1 z m 1.3,0.5 c 0.2,-0.2 0.2,-0.3 0.4,-0.5 0.1,-0.1 0.1,-0.1 0.2,-0.2 0,-0.1 0.1,-0.1 0.1,-0.2 0,-0.1 0,-0.1 0,-0.2 0,-0.1 -0.1,-0.1 -0.1,-0.1 -0.1,-0.1 -0.1,-0.1 -0.2,-0.1 -0.1,0 -0.1,0 -0.2,0 -0.1,0 -0.1,0.1 -0.2,0.1 -0.1,0 -0.1,0.1 -0.2,0.2 -0.2,0.2 -0.2,0.3 -0.4,0.4 0.3,0.2 0.4,0.4 0.6,0.6 z"
           id="path689"
           inkscape:connector-curvature="0"
           style="fill:#a02b59" /><path
           d="m 471,225.6 c -0.1,0.1 -0.2,0.3 -0.4,0.3 -0.1,0.1 -0.2,0.1 -0.3,0.2 -0.1,0 -0.2,0 -0.3,0 -0.1,0 -0.2,0 -0.3,-0.1 -0.1,-0.1 -0.2,-0.1 -0.3,-0.2 -0.1,-0.1 -0.2,-0.1 -0.2,-0.2 -0.5,-0.4 -0.7,-0.7 -1.2,-1.1 0.1,-0.2 0.2,-0.2 0.4,-0.4 0.5,0.4 0.7,0.6 1.2,1.1 0.1,0.1 0.2,0.2 0.3,0.2 0.1,0 0.2,0.1 0.3,0.1 0.1,0 0.2,0 0.2,-0.1 0.1,0 0.1,-0.1 0.2,-0.2 0.1,-0.1 0.1,-0.2 0.2,-0.2 0,-0.1 0,-0.2 0,-0.2 0,-0.1 0,-0.2 -0.1,-0.2 -0.1,-0.1 -0.2,-0.2 -0.3,-0.3 -0.5,-0.4 -0.8,-0.6 -1.3,-1.1 0.1,-0.2 0.2,-0.3 0.4,-0.4 0.5,0.4 0.8,0.6 1.3,1.1 0.2,0.1 0.3,0.3 0.4,0.4 0.1,0.1 0.2,0.3 0.2,0.4 0,0.1 0,0.3 0,0.4 -0.2,0.2 -0.3,0.3 -0.4,0.5 z"
           id="path691"
           inkscape:connector-curvature="0"
           style="fill:#a02b59" /><path
           d="m 473.8,222.1 c -0.1,0.2 -0.2,0.3 -0.4,0.5 -0.3,-0.1 -0.5,-0.2 -0.8,-0.3 -0.1,0 -0.1,0 -0.2,0 -0.1,0 -0.1,0 -0.2,0 -0.1,0 -0.1,0 -0.2,0.1 0,0 -0.1,0.1 -0.1,0.1 -0.1,0.2 -0.2,0.3 -0.4,0.5 0.4,0.3 0.5,0.4 0.9,0.7 -0.1,0.2 -0.2,0.3 -0.4,0.4 -0.9,-0.7 -1.3,-1.1 -2.2,-1.8 0.3,-0.4 0.5,-0.6 0.8,-1 0,-0.1 0.1,-0.1 0.1,-0.2 0,-0.1 0.1,-0.1 0.1,-0.1 0.1,0 0.1,-0.1 0.2,-0.1 0.1,0 0.1,-0.1 0.2,-0.1 0.1,0 0.1,0 0.2,0 0.1,0 0.1,0 0.2,0 0.1,0 0.1,0 0.2,0.1 0.1,0 0.1,0.1 0.2,0.1 0.1,0.1 0.2,0.2 0.3,0.4 0,0.1 0,0.3 0,0.5 0.2,0 0.3,0 0.5,0 0.5,0 0.6,0.1 1,0.2 z m -2.6,0.5 c 0.2,-0.2 0.3,-0.3 0.5,-0.6 0.1,-0.1 0.1,-0.1 0.1,-0.2 0,-0.1 0.1,-0.1 0.1,-0.2 0,-0.1 0,-0.1 0,-0.2 0,0 -0.1,-0.1 -0.1,-0.1 -0.1,-0.1 -0.2,-0.1 -0.3,-0.1 -0.1,0 -0.2,0.1 -0.3,0.2 -0.2,0.2 -0.3,0.4 -0.5,0.6 0.2,0.3 0.3,0.4 0.5,0.6 z"
           id="path693"
           inkscape:connector-curvature="0"
           style="fill:#a02b59" /><path
           d="m 471.8,219.9 c 0.3,-0.4 0.4,-0.5 0.7,-0.9 0.1,-0.1 0.1,-0.2 0.2,-0.2 0.1,-0.1 0.1,-0.1 0.2,-0.2 0.1,-0.1 0.1,-0.1 0.2,-0.1 0.1,0 0.2,0 0.2,-0.1 0.1,0 0.2,0 0.3,0 0.1,0 0.2,0.1 0.3,0.1 0.2,0.2 0.4,0.4 0.4,0.6 0,0.2 -0.1,0.5 -0.3,0.8 -0.1,0.2 -0.2,0.3 -0.4,0.5 0.3,0.3 0.5,0.4 0.9,0.7 -0.1,0.2 -0.2,0.3 -0.3,0.4 -1,-0.5 -1.5,-0.9 -2.4,-1.6 z m 1.4,0.4 c 0.2,-0.2 0.2,-0.3 0.4,-0.5 0.1,-0.1 0.1,-0.2 0.1,-0.2 0,-0.1 0,-0.1 0,-0.2 0,-0.1 0,-0.1 0,-0.2 0,0 -0.1,-0.1 -0.1,-0.1 -0.1,0 -0.1,-0.1 -0.2,-0.1 -0.1,0 -0.1,0 -0.2,0 -0.1,0 -0.1,0.1 -0.2,0.1 0,0 -0.1,0.1 -0.1,0.2 -0.1,0.2 -0.2,0.3 -0.4,0.5 0.3,0.2 0.4,0.3 0.7,0.5 z"
           id="path695"
           inkscape:connector-curvature="0"
           style="fill:#a02b59" /><path
           d="m 474.3,216.6 c 0.1,-0.2 0.3,-0.3 0.4,-0.4 0.2,-0.1 0.3,-0.2 0.5,-0.2 0.2,0 0.4,0 0.6,0 0.2,0 0.4,0.1 0.6,0.3 0.2,0.1 0.3,0.3 0.4,0.4 0.1,0.2 0.2,0.3 0.2,0.5 0,0.2 0,0.4 0,0.6 0,0.2 -0.1,0.4 -0.3,0.5 -0.1,0.2 -0.3,0.3 -0.4,0.4 -0.2,0.1 -0.3,0.2 -0.5,0.2 -0.2,0 -0.4,0 -0.6,0 -0.2,-0.1 -0.4,-0.1 -0.6,-0.3 -0.2,-0.1 -0.3,-0.3 -0.4,-0.4 -0.1,-0.2 -0.2,-0.3 -0.2,-0.5 0,-0.2 0,-0.4 0,-0.5 0.1,-0.3 0.1,-0.5 0.3,-0.6 z m 2,1.4 c 0.1,-0.1 0.1,-0.2 0.1,-0.3 0,-0.1 0,-0.2 0,-0.3 0,-0.1 -0.1,-0.2 -0.2,-0.3 -0.1,-0.1 -0.2,-0.2 -0.3,-0.3 -0.1,-0.1 -0.3,-0.2 -0.4,-0.2 -0.1,0 -0.2,-0.1 -0.4,0 -0.1,0 -0.2,0 -0.3,0.1 -0.1,0.1 -0.2,0.1 -0.3,0.2 -0.1,0.1 -0.1,0.2 -0.1,0.3 0,0.1 0,0.2 0,0.3 0,0.1 0.1,0.2 0.1,0.3 0.1,0.1 0.2,0.2 0.3,0.3 0.1,0.1 0.3,0.2 0.4,0.2 0.1,0 0.2,0.1 0.4,0 0.2,-0.1 0.2,0 0.3,-0.1 0.2,0 0.3,-0.1 0.4,-0.2 z"
           id="path697"
           inkscape:connector-curvature="0"
           style="fill:#a02b59" /><path
           d="m 478.5,215.7 c -0.1,0.2 -0.2,0.3 -0.4,0.4 -0.1,0.1 -0.3,0.2 -0.4,0.2 -0.1,0 -0.3,0 -0.4,0 -0.1,0 -0.3,-0.1 -0.4,-0.2 0.1,-0.2 0.2,-0.3 0.3,-0.4 0.1,0.1 0.2,0.1 0.3,0.1 0.1,0 0.2,0 0.2,0 0.1,0 0.2,-0.1 0.2,-0.1 0.1,-0.1 0.1,-0.1 0.2,-0.2 0.1,-0.1 0.1,-0.1 0.1,-0.2 0,-0.1 0,-0.1 0,-0.2 0,-0.1 0,-0.1 0,-0.2 0,-0.1 -0.1,-0.1 -0.1,-0.1 0,0 -0.1,0 -0.2,0 0,0 -0.1,0 -0.2,0.1 -0.1,0 -0.1,0.1 -0.2,0.2 -0.1,0.1 -0.2,0.2 -0.3,0.3 -0.1,0.1 -0.2,0.2 -0.4,0.3 -0.2,0.1 -0.2,0.1 -0.3,0.2 -0.1,0 -0.2,0 -0.3,0 -0.1,0 -0.2,-0.1 -0.3,-0.1 -0.1,-0.1 -0.2,-0.2 -0.2,-0.3 -0.1,-0.1 -0.1,-0.2 -0.1,-0.3 0,-0.1 0,-0.2 0,-0.4 0,-0.1 0.1,-0.3 0.2,-0.4 0.1,-0.1 0.2,-0.3 0.3,-0.3 0.1,-0.1 0.2,-0.2 0.4,-0.2 0.1,0 0.3,0 0.4,0 0.1,0 0.3,0.1 0.4,0.2 -0.1,0.2 -0.2,0.3 -0.3,0.4 -0.3,-0.2 -0.5,-0.1 -0.7,0.2 -0.1,0.1 -0.2,0.3 -0.2,0.4 0,0.1 0,0.2 0.1,0.3 0,0 0.1,0 0.1,0 0,0 0.1,0 0.1,0 0,0 0.1,-0.1 0.2,-0.1 0.1,0 0.1,-0.1 0.2,-0.2 0.1,-0.1 0.1,-0.1 0.2,-0.2 0.1,-0.1 0.1,-0.1 0.2,-0.2 0.1,-0.1 0.2,-0.1 0.2,-0.1 0.1,0 0.2,-0.1 0.2,-0.1 0.1,0 0.2,0 0.3,0 0.1,0 0.2,0.1 0.3,0.1 0.1,0.1 0.2,0.2 0.3,0.3 0.1,0.1 0.1,0.2 0.1,0.4 0,0.1 0,0.3 0,0.4 0.1,-0.3 0,-0.1 -0.1,0 z"
           id="path699"
           inkscape:connector-curvature="0"
           style="fill:#a02b59" /><path
           d="m 480.7,212.3 c -0.5,0.8 -0.7,1.2 -1.2,1.9 -1,-0.6 -1.4,-1 -2.4,-1.6 0.5,-0.7 0.7,-1.1 1.2,-1.8 0.2,0.1 0.3,0.2 0.4,0.3 -0.4,0.6 -0.5,0.8 -0.9,1.4 0.2,0.1 0.3,0.2 0.5,0.4 0.3,-0.5 0.5,-0.8 0.8,-1.3 0.2,0.1 0.2,0.2 0.4,0.3 -0.3,0.5 -0.5,0.8 -0.8,1.3 0.3,0.2 0.4,0.2 0.6,0.4 0.4,-0.6 0.6,-0.9 0.9,-1.5 0.2,0 0.3,0.1 0.5,0.2 z"
           id="path701"
           inkscape:connector-curvature="0"
           style="fill:#a02b59" /><path
           d="m 482.3,209.8 c -0.1,0.2 -0.2,0.3 -0.3,0.4 -0.1,0.1 -0.2,0.2 -0.3,0.2 -0.1,0 -0.2,0.1 -0.3,0.1 -0.1,0 -0.2,0 -0.3,0 -0.1,0 -0.2,-0.1 -0.3,-0.1 -0.1,0 -0.2,-0.1 -0.3,-0.1 -0.6,-0.3 -0.8,-0.5 -1.4,-0.9 0.1,-0.2 0.2,-0.3 0.3,-0.5 0.6,0.3 0.8,0.5 1.4,0.8 0.1,0.1 0.3,0.1 0.4,0.2 0.1,0 0.2,0 0.3,0 0.1,0 0.1,-0.1 0.2,-0.1 0.1,-0.1 0.1,-0.1 0.2,-0.2 0.1,-0.1 0.1,-0.2 0.1,-0.3 0,-0.1 0,-0.2 0,-0.2 0,-0.1 -0.1,-0.2 -0.1,-0.2 -0.1,-0.1 -0.2,-0.2 -0.3,-0.2 -0.6,-0.3 -0.9,-0.5 -1.4,-0.8 0.1,-0.2 0.2,-0.3 0.3,-0.5 0.6,0.3 0.9,0.5 1.4,0.8 0.2,0.1 0.3,0.2 0.4,0.3 0.1,0.1 0.2,0.2 0.3,0.4 0,0.1 0.1,0.3 0,0.4 -0.1,0.1 -0.2,0.3 -0.3,0.5 z"
           id="path703"
           inkscape:connector-curvature="0"
           style="fill:#a02b59" /><path
           d="m 483.8,207.1 c -0.1,0.2 -0.2,0.3 -0.3,0.5 -0.1,0.1 -0.3,0.2 -0.4,0.2 -0.1,0 -0.3,0.1 -0.4,0 -0.1,-0.1 -0.3,-0.1 -0.4,-0.1 0.1,-0.2 0.2,-0.3 0.3,-0.5 0.1,0 0.2,0.1 0.3,0.1 0.1,0 0.2,0 0.2,0 0.1,0 0.1,-0.1 0.2,-0.1 0.1,-0.1 0.1,-0.1 0.2,-0.2 0,-0.1 0.1,-0.2 0.1,-0.2 0,-0.1 0,-0.1 0,-0.2 0,-0.1 0,-0.1 0,-0.2 0,0 -0.1,-0.1 -0.1,-0.1 -0.1,0 -0.1,0 -0.2,0 0,0 -0.1,0 -0.2,0.1 -0.1,0 -0.1,0.1 -0.2,0.2 -0.1,0.1 -0.2,0.2 -0.3,0.3 -0.1,0.1 -0.2,0.2 -0.3,0.3 -0.1,0.1 -0.2,0.1 -0.3,0.2 -0.1,0 -0.2,0 -0.3,0 -0.1,0 -0.2,0 -0.3,-0.1 -0.1,-0.1 -0.2,-0.1 -0.3,-0.2 -0.1,-0.1 -0.1,-0.2 -0.1,-0.3 0,-0.1 0,-0.2 0,-0.4 0,-0.1 0.1,-0.3 0.2,-0.4 0.1,-0.1 0.2,-0.3 0.3,-0.4 0.1,-0.1 0.2,-0.2 0.3,-0.2 0.1,0 0.3,-0.1 0.4,-0.1 0.1,0 0.3,0 0.4,0.1 -0.1,0.2 -0.2,0.3 -0.3,0.5 -0.3,-0.1 -0.5,0 -0.7,0.3 -0.1,0.2 -0.1,0.3 -0.1,0.4 0,0.1 0.1,0.2 0.1,0.2 0,0 0.1,0 0.1,0 0,0 0.1,0 0.1,0 0,0 0.1,-0.1 0.1,-0.1 0.1,-0.1 0.1,-0.1 0.2,-0.2 0.1,-0.1 0.1,-0.1 0.2,-0.2 0.1,-0.1 0.1,-0.1 0.2,-0.2 0.1,-0.1 0.1,-0.1 0.2,-0.2 0.1,0 0.2,-0.1 0.2,-0.1 0,0 0.2,0 0.3,0 0.1,0 0.2,0 0.3,0.1 0.1,0.1 0.2,0.1 0.3,0.2 0.1,0.1 0.1,0.2 0.1,0.3 0,0.1 0,0.3 0,0.4 0.1,0 0,0.1 -0.1,0.3 z"
           id="path705"
           inkscape:connector-curvature="0"
           style="fill:#a02b59" /><path
           d="m 485.7,203.5 c -0.4,0.8 -0.6,1.2 -1.1,2.1 -1,-0.5 -1.5,-0.8 -2.5,-1.4 0.4,-0.8 0.6,-1.2 1,-1.9 0.2,0.1 0.3,0.1 0.4,0.2 -0.3,0.6 -0.5,0.9 -0.8,1.5 0.2,0.1 0.3,0.2 0.6,0.3 0.3,-0.5 0.4,-0.8 0.7,-1.4 0.2,0.1 0.3,0.1 0.4,0.2 -0.3,0.6 -0.4,0.8 -0.7,1.4 0.3,0.1 0.4,0.2 0.7,0.4 0.3,-0.6 0.5,-0.9 0.8,-1.5 0.2,-0.1 0.3,0 0.5,0.1 z"
           id="path707"
           inkscape:connector-curvature="0"
           style="fill:#a02b59" /></g></g><g
       id="g709"><g
         id="g711"><path
           d="m 252.9,204.1 c -0.2,-0.4 -0.3,-0.6 -0.5,-1 0.3,-0.4 0.4,-0.6 0.7,-1 -0.3,-0.6 -0.5,-1 -0.9,-1.6 -0.5,0 -0.7,0 -1.2,0 -0.2,-0.4 -0.3,-0.6 -0.5,-0.9 1.8,0 2.6,0 4.4,0 0.2,0.3 0.3,0.5 0.4,0.8 -0.9,1.4 -1.4,2.2 -2.4,3.7 z m 0.6,-2.6 c 0.3,-0.5 0.5,-0.7 0.8,-1.1 -0.5,0 -0.8,0 -1.4,0 0.3,0.5 0.4,0.7 0.6,1.1 z"
           id="path713"
           inkscape:connector-curvature="0"
           style="fill:#a02b59" /><path
           d="m 258.8,206.4 c -1.7,0.1 -2.6,0.2 -4.4,0.3 -0.2,-0.3 -0.3,-0.5 -0.5,-0.8 0.9,-1.5 1.4,-2.2 2.4,-3.7 0.2,0.4 0.3,0.5 0.5,0.9 -0.7,1.1 -1.1,1.6 -1.8,2.7 1.3,-0.1 1.9,-0.1 3.2,-0.3 0.3,0.4 0.4,0.6 0.6,0.9 z"
           id="path715"
           inkscape:connector-curvature="0"
           style="fill:#a02b59" /><path
           d="m 256.9,210.8 c -0.2,-0.2 -0.2,-0.4 -0.4,-0.6 1,-0.6 1.5,-0.9 2.4,-1.5 0.2,0.2 0.2,0.4 0.4,0.6 -0.9,0.6 -1.4,0.9 -2.4,1.5 z"
           id="path717"
           inkscape:connector-curvature="0"
           style="fill:#a02b59" /><path
           d="m 259.1,214.1 c -0.2,-0.2 -0.2,-0.3 -0.4,-0.6 0.2,-1 0.4,-1.5 0.6,-2.5 -0.6,0.4 -1,0.6 -1.6,1.1 -0.2,-0.2 -0.2,-0.4 -0.4,-0.6 1,-0.6 1.5,-0.9 2.4,-1.6 0.1,0.2 0.2,0.3 0.4,0.6 -0.3,1 -0.4,1.5 -0.7,2.5 0.6,-0.4 1,-0.7 1.6,-1.1 0.2,0.2 0.2,0.3 0.4,0.6 -0.8,0.6 -1.3,1 -2.3,1.6 z"
           id="path719"
           inkscape:connector-curvature="0"
           style="fill:#a02b59" /><path
           d="m 263.2,215.8 c -0.3,-0.4 -0.4,-0.6 -0.7,-1 -0.8,0.6 -1.2,0.8 -1.9,1.4 -0.2,-0.2 -0.3,-0.4 -0.4,-0.6 0.8,-0.6 1.2,-0.8 1.9,-1.4 -0.3,-0.4 -0.4,-0.6 -0.7,-1 0.2,-0.1 0.2,-0.2 0.4,-0.3 0.7,1 1.1,1.5 1.8,2.5 -0.1,0.2 -0.2,0.2 -0.4,0.4 z"
           id="path721"
           inkscape:connector-curvature="0"
           style="fill:#a02b59" /><path
           d="m 263.5,220 c -0.7,-0.9 -1.1,-1.4 -1.8,-2.4 0.9,-0.7 1.4,-1 2.3,-1.7 0.7,0.9 1,1.4 1.7,2.2 -0.2,0.1 -0.2,0.2 -0.4,0.3 -0.5,-0.7 -0.8,-1 -1.3,-1.7 -0.2,0.2 -0.3,0.2 -0.5,0.4 0.5,0.6 0.7,1 1.2,1.6 -0.2,0.1 -0.2,0.2 -0.4,0.3 -0.5,-0.6 -0.7,-0.9 -1.2,-1.6 -0.2,0.2 -0.4,0.3 -0.6,0.4 0.5,0.7 0.8,1.1 1.4,1.8 -0.2,0.2 -0.3,0.3 -0.4,0.4 z"
           id="path723"
           inkscape:connector-curvature="0"
           style="fill:#a02b59" /><path
           d="m 265.5,222.6 c -0.6,-0.8 -0.9,-1.2 -1.6,-1.9 0.9,-0.7 1.4,-1.1 2.3,-1.8 0.2,0.2 0.3,0.3 0.4,0.6 -0.7,0.6 -1.1,0.9 -1.9,1.5 0.4,0.6 0.7,0.8 1.1,1.4 -0.1,0 -0.2,0 -0.3,0.2 z"
           id="path725"
           inkscape:connector-curvature="0"
           style="fill:#a02b59" /><path
           d="m 267.5,225 c -0.7,-0.8 -1,-1.1 -1.6,-1.9 0.9,-0.7 1.3,-1.1 2.2,-1.8 0.2,0.2 0.3,0.3 0.5,0.5 -0.7,0.6 -1.1,0.9 -1.8,1.5 0.5,0.5 0.7,0.8 1.1,1.3 -0.2,0.2 -0.2,0.2 -0.4,0.4 z"
           id="path727"
           inkscape:connector-curvature="0"
           style="fill:#a02b59" /><path
           d="m 268.4,226 c -0.2,-0.2 -0.3,-0.3 -0.5,-0.5 0.9,-0.8 1.3,-1.1 2.2,-1.9 0.2,0.2 0.3,0.3 0.5,0.5 -0.9,0.7 -1.3,1.1 -2.2,1.9 z"
           id="path729"
           inkscape:connector-curvature="0"
           style="fill:#a02b59" /><path
           d="m 270.1,227.9 c -0.2,-0.2 -0.3,-0.4 -0.4,-0.6 -0.1,-0.2 -0.2,-0.4 -0.2,-0.6 0,-0.2 0,-0.4 0.1,-0.6 0.1,-0.2 0.2,-0.4 0.4,-0.5 0.2,-0.2 0.4,-0.3 0.5,-0.3 0.2,-0.1 0.4,-0.1 0.6,0 0.2,0 0.4,0.1 0.6,0.2 0.2,0.1 0.4,0.3 0.6,0.5 0.2,0.2 0.3,0.3 0.4,0.5 0.1,0.2 0.2,0.4 0.2,0.5 0,0.2 0,0.3 0,0.5 0,0.2 -0.1,0.3 -0.2,0.4 -0.2,-0.2 -0.3,-0.3 -0.5,-0.5 0.1,-0.1 0.1,-0.1 0.1,-0.2 0,-0.1 0,-0.2 0,-0.3 0,-0.1 -0.1,-0.2 -0.1,-0.3 -0.1,-0.1 -0.1,-0.2 -0.2,-0.3 -0.1,-0.1 -0.2,-0.2 -0.4,-0.3 -0.1,-0.1 -0.3,-0.1 -0.4,-0.1 -0.1,0 -0.3,0 -0.4,0 -0.1,0 -0.3,0.1 -0.4,0.2 -0.1,0.1 -0.2,0.2 -0.3,0.3 -0.1,0.1 -0.1,0.3 -0.1,0.4 0,0.1 0,0.3 0.1,0.4 0.1,0.1 0.1,0.3 0.3,0.4 0.2,0.2 0.3,0.3 0.5,0.4 0.2,0.1 0.3,0.1 0.5,0.1 0.1,-0.1 0.1,-0.1 0.2,-0.2 -0.3,-0.3 -0.4,-0.4 -0.6,-0.7 0.1,-0.1 0.2,-0.2 0.4,-0.3 0.4,0.5 0.7,0.7 1.1,1.2 -0.5,0.4 -0.7,0.6 -1.1,1.1 -0.2,-0.2 -0.2,-0.2 -0.4,-0.4 0,-0.1 0.1,-0.1 0.1,-0.2 -0.2,0 -0.3,-0.1 -0.5,-0.2 -0.2,-0.1 -0.3,-0.3 -0.5,-0.5 z"
           id="path731"
           inkscape:connector-curvature="0"
           style="fill:#a02b59" /><path
           d="m 274,231.9 c -0.8,-0.8 -1.3,-1.3 -2.1,-2.1 0.8,-0.8 1.2,-1.2 2.1,-2 0.8,0.8 1.2,1.2 2,2 -0.1,0.1 -0.2,0.2 -0.3,0.4 -0.6,-0.6 -0.9,-0.9 -1.5,-1.5 -0.2,0.2 -0.3,0.3 -0.5,0.5 0.6,0.6 0.8,0.9 1.4,1.4 -0.1,0.1 -0.2,0.2 -0.3,0.3 -0.6,-0.6 -0.8,-0.8 -1.4,-1.4 -0.2,0.2 -0.3,0.3 -0.5,0.5 0.6,0.6 0.9,1 1.6,1.6 -0.3,0.1 -0.3,0.2 -0.5,0.3 z"
           id="path733"
           inkscape:connector-curvature="0"
           style="fill:#a02b59" /><path
           d="m 276.8,234.6 c -0.2,-0.2 -0.3,-0.3 -0.5,-0.5 0,-1 0,-1.6 0.1,-2.6 -0.5,0.6 -0.8,0.8 -1.3,1.4 -0.2,-0.2 -0.3,-0.3 -0.5,-0.5 0.8,-0.8 1.2,-1.2 2,-2.1 0.2,0.2 0.3,0.3 0.5,0.5 -0.1,1 -0.1,1.5 -0.1,2.6 0.5,-0.6 0.8,-0.8 1.3,-1.4 0.2,0.2 0.3,0.3 0.5,0.5 -0.8,0.8 -1.2,1.3 -2,2.1 z"
           id="path735"
           inkscape:connector-curvature="0"
           style="fill:#a02b59" /><path
           d="m 281.2,235.3 c -0.4,-0.3 -0.5,-0.5 -0.9,-0.8 -0.6,0.7 -1,1.1 -1.6,1.8 -0.2,-0.2 -0.3,-0.3 -0.5,-0.5 0.6,-0.7 1,-1.1 1.6,-1.8 -0.3,-0.3 -0.5,-0.5 -0.9,-0.8 0.1,-0.1 0.2,-0.2 0.3,-0.4 0.9,0.8 1.4,1.2 2.3,2 -0.1,0.3 -0.2,0.4 -0.3,0.5 z"
           id="path737"
           inkscape:connector-curvature="0"
           style="fill:#a02b59" /><path
           d="m 284.9,238.4 c -0.4,-0.3 -0.6,-0.4 -0.9,-0.7 -0.6,0.7 -0.9,1.1 -1.5,1.8 -0.2,-0.2 -0.3,-0.3 -0.6,-0.5 0.6,-0.7 0.9,-1.1 1.5,-1.8 -0.4,-0.3 -0.5,-0.5 -0.9,-0.8 0.1,-0.2 0.2,-0.2 0.3,-0.4 0.9,0.8 1.4,1.2 2.4,1.9 -0.1,0.3 -0.2,0.4 -0.3,0.5 z"
           id="path739"
           inkscape:connector-curvature="0"
           style="fill:#a02b59" /><path
           d="m 286.2,242.5 c -0.9,-0.7 -1.4,-1.1 -2.3,-1.8 0.7,-0.9 1.1,-1.4 1.8,-2.3 0.9,0.7 1.3,1 2.2,1.7 -0.1,0.2 -0.2,0.2 -0.3,0.4 -0.7,-0.5 -1,-0.8 -1.7,-1.3 -0.2,0.2 -0.2,0.3 -0.4,0.5 0.6,0.5 0.9,0.7 1.6,1.2 -0.1,0.2 -0.2,0.2 -0.3,0.4 -0.6,-0.5 -1,-0.7 -1.6,-1.2 -0.2,0.2 -0.3,0.4 -0.5,0.6 0.7,0.6 1.1,0.8 1.8,1.4 -0.2,0.1 -0.2,0.2 -0.3,0.4 z"
           id="path741"
           inkscape:connector-curvature="0"
           style="fill:#a02b59" /><path
           d="m 289.5,244.9 c -0.3,-0.2 -0.4,-0.3 -0.6,-0.5 0.1,-0.3 0.1,-0.5 0.2,-0.9 0,-0.1 0,-0.1 0,-0.2 0,-0.1 0,-0.1 -0.1,-0.2 0,-0.1 -0.1,-0.1 -0.1,-0.2 0,-0.1 -0.1,-0.1 -0.2,-0.2 -0.2,-0.2 -0.4,-0.3 -0.6,-0.5 -0.3,0.4 -0.4,0.6 -0.7,0.9 -0.2,-0.2 -0.3,-0.3 -0.6,-0.4 0.7,-0.9 1,-1.4 1.7,-2.3 0.5,0.4 0.8,0.6 1.4,1 0.1,0.1 0.2,0.1 0.2,0.2 0.1,0.1 0.1,0.1 0.2,0.2 0.1,0.1 0.1,0.1 0.2,0.2 0,0.1 0.1,0.1 0.1,0.2 0,0.1 0,0.1 0.1,0.2 0,0.1 0,0.1 0,0.2 0,0.1 0,0.1 0,0.2 0,0.1 0,0.1 -0.1,0.2 -0.1,0.1 -0.2,0.2 -0.4,0.3 -0.2,0 -0.3,0 -0.5,0 0.1,0.2 0.1,0.4 0.1,0.6 -0.2,0.5 -0.3,0.6 -0.3,1 z m -1.1,-2.8 c 0.3,0.2 0.5,0.3 0.8,0.6 0.1,0.1 0.2,0.1 0.3,0.2 0.1,0 0.2,0.1 0.2,0.1 0.1,0 0.1,0 0.2,0 0.1,0 0.1,-0.1 0.1,-0.1 0.1,-0.1 0.1,-0.2 0,-0.3 0,-0.1 -0.2,-0.2 -0.3,-0.4 -0.3,-0.2 -0.5,-0.4 -0.8,-0.6 -0.3,0.1 -0.4,0.2 -0.5,0.5 z"
           id="path743"
           inkscape:connector-curvature="0"
           style="fill:#a02b59" /><path
           d="m 293.1,247.4 c -0.2,-0.2 -0.4,-0.2 -0.6,-0.4 0.4,-0.6 0.6,-0.9 1,-1.5 -0.7,0.4 -1,0.6 -1.7,1.1 -0.2,-0.1 -0.3,-0.2 -0.5,-0.3 0.1,-0.8 0.2,-1.2 0.4,-2 -0.4,0.6 -0.6,0.9 -1.1,1.5 -0.2,-0.2 -0.3,-0.2 -0.6,-0.4 0.7,-0.9 1,-1.4 1.7,-2.4 0.3,0.2 0.5,0.3 0.8,0.5 -0.2,0.9 -0.3,1.3 -0.4,2.2 0.8,-0.5 1.1,-0.7 1.9,-1.2 0.3,0.2 0.5,0.3 0.8,0.5 -0.7,0.9 -1.1,1.4 -1.7,2.4 z"
           id="path745"
           inkscape:connector-curvature="0"
           style="fill:#a02b59" /><path
           d="m 294.5,248.3 c -0.2,-0.2 -0.4,-0.2 -0.6,-0.4 0.6,-1 0.9,-1.5 1.6,-2.4 0.2,0.2 0.4,0.2 0.6,0.4 -0.6,1 -0.9,1.4 -1.6,2.4 z"
           id="path747"
           inkscape:connector-curvature="0"
           style="fill:#a02b59" /><path
           d="m 297.9,250.4 c -0.2,-0.1 -0.4,-0.2 -0.6,-0.4 -0.2,-1 -0.3,-1.5 -0.5,-2.5 -0.4,0.7 -0.6,1 -1,1.6 -0.2,-0.1 -0.4,-0.2 -0.6,-0.4 0.6,-1 0.9,-1.5 1.5,-2.4 0.2,0.1 0.3,0.2 0.6,0.4 0.2,1 0.3,1.5 0.4,2.5 0.4,-0.7 0.6,-1 1,-1.7 0.2,0.1 0.4,0.2 0.6,0.4 -0.5,1 -0.8,1.5 -1.4,2.5 z"
           id="path749"
           inkscape:connector-curvature="0"
           style="fill:#a02b59" /><path
           d="m 301.6,252.5 c -0.3,-0.2 -0.4,-0.2 -0.7,-0.4 0,-0.4 0,-0.6 0,-0.9 -0.5,-0.3 -0.7,-0.4 -1.2,-0.7 -0.3,0.2 -0.5,0.3 -0.8,0.5 -0.3,-0.2 -0.4,-0.2 -0.7,-0.4 1.1,-0.7 1.6,-1 2.7,-1.8 0.2,0.1 0.4,0.2 0.6,0.3 0.1,1.4 0.1,2.1 0.1,3.4 z m -0.6,-1.8 c 0,-0.4 0,-0.6 0,-1 -0.3,0.2 -0.5,0.3 -0.8,0.6 0.3,0.1 0.5,0.2 0.8,0.4 z"
           id="path751"
           inkscape:connector-curvature="0"
           style="fill:#a02b59" /><path
           d="m 304.2,253.9 c -0.9,-0.5 -1.3,-0.7 -2.2,-1.2 0.6,-1 0.8,-1.5 1.4,-2.5 0.3,0.1 0.4,0.2 0.6,0.3 -0.5,0.8 -0.7,1.3 -1.1,2.1 0.6,0.3 0.9,0.5 1.6,0.8 -0.1,0.2 -0.2,0.3 -0.3,0.5 z"
           id="path753"
           inkscape:connector-curvature="0"
           style="fill:#a02b59" /></g></g><path
       id="text8337"
       inkscape:connector-curvature="0"
       d="m 407.9,320.3 3.2,-5.3 c 0.2,-0.3 0.3,-0.5 0.5,-0.5 l 2.3,0 0,0.7 0.2,-0.3 c 0.2,-0.3 0.3,-0.5 0.5,-0.5 l 2.7,0 0,5.8 -1.8,0 0,-4.5 -2.7,4.5 -1.8,0 2.7,-4.5 -0.9,0 c -0.1,0 -0.2,0.1 -0.3,0.2 l -2.6,4.4 -2,0 0,0 z m 11.8,-2.3 0,1.1 4.3,0 0,1.2 -6.1,0 0,-3.8 c 0,-0.1 0,-0.2 0.1,-0.3 l 0.8,-1.5 c 0.1,-0.1 0.2,-0.2 0.3,-0.2 l 4.9,0 0,1.2 -3.7,0 c -0.1,0 -0.2,0.1 -0.2,0.2 l -0.4,0.9 4.3,0 -0.6,1.2 -3.7,0 z m 6.7,1.1 3,0 0,-1.1 -1.2,0 0.6,-1.2 2.4,0 0,3.2 c 0,0.2 -0.1,0.3 -0.3,0.3 l -6.1,0 c -0.2,0 -0.3,-0.1 -0.3,-0.3 l 0,-3.5 c 0,-0.1 0,-0.2 0.1,-0.3 l 0.8,-1.5 c 0.1,-0.1 0.2,-0.2 0.3,-0.2 l 5.2,0 0,1.2 -4,0 c -0.1,0 -0.2,0.1 -0.2,0.2 l -0.4,0.9 0,2.3 z m 13,1.2 -2.1,0 -0.8,-1.2 -2.2,0 -0.6,-1.1 0,2.3 -1.8,0 0,-5.8 3.5,0 c 0.2,0 0.3,0.2 0.5,0.5 l 3.5,5.3 z m -3.8,-2.5 -1.4,-2 c -0.1,-0.1 -0.2,-0.2 -0.3,-0.2 l -0.3,0 0,2.1 2,0 0,0.1 z"
       style="fill:#c2c2c2" /><path
       id="text8339"
       inkscape:connector-curvature="0"
       d="m 443.1,319.1 2.2,0 c 0.1,0 0.2,0 0.2,-0.1 l 0.7,-1.4 0,-0.2 0,-0.2 -0.7,-1.4 c -0.1,-0.1 -0.1,-0.2 -0.2,-0.2 l -2.2,0 0,3.5 0,0 z m -1.9,-4.7 5.3,0 c 0.2,0 0.3,0.1 0.4,0.3 l 1.2,2.5 0,0.2 0,0.2 -1.2,2.5 c -0.1,0.2 -0.2,0.3 -0.4,0.3 l -5.3,0 0,-6 0,0 z m 7.6,0 5,0 c 0.2,0 0.3,0.1 0.4,0.3 l 0.8,1.7 0,0.2 0,0.2 -1.2,1.4 1.3,2.2 -1.9,0 -1.8,-3 0.9,0 c 0.1,0 0.2,0 0.2,-0.1 l 0.6,-0.7 -0.3,-0.8 c -0.1,-0.1 -0.1,-0.2 -0.2,-0.2 l -2,0 0,4.7 -1.9,0 0,-5.9 0.1,0 z m 8.8,6 -1.9,0 0,-6 1.9,0 0,6 0,0 z m 2.5,-4 1.9,2.8 1.9,-2.8 0,-2 1.9,0 0,2.2 c 0,0.2 0,0.4 -0.1,0.5 l -2.1,3.3 -3.2,0 -2.1,-3.3 c -0.1,-0.1 -0.1,-0.3 -0.1,-0.5 l 0,-2.2 1.9,0 0,2 0,0 z m 8.2,1.6 0,1.1 4.4,0 0,1.3 -6.3,0 0,-4 c 0,-0.1 0,-0.2 0.1,-0.3 l 0.9,-1.6 c 0.1,-0.1 0.2,-0.2 0.3,-0.2 l 5,0 0,1.3 -3.7,0 c -0.1,0 -0.2,0.1 -0.2,0.2 l -0.4,0.9 4.4,0 -0.6,1.3 -3.9,0 0,0 z"
       style="fill:#c2c2c2" /></g></svg>