<?xml version="1.0" encoding="utf-8"?>
<!-- Generator: Adobe Illustrator 19.0.0, SVG Export Plug-In . SVG Version: 6.00 Build 0)  -->
<svg version="1.1" baseProfile="tiny" id="Calque_1"
	 xmlns="http://www.w3.org/2000/svg" xmlns:xlink="http://www.w3.org/1999/xlink" x="0px" y="0px" viewBox="0 0 165.1 114.3"
	 xml:space="preserve">
<g>
	<path fill="#414042" d="M0,79.3v20.6c0,4.1,3.4,7.5,7.5,7.5h150.1c4.1,0,7.5-3.4,7.5-7.5V7.5c0-4.1-3.4-7.5-7.5-7.5H7.5
		C3.4,0,0,3.4,0,7.5l0,63.1l5.5,0c0.9,0,1.7,0.7,1.7,1.5v5.7c0,0.8-0.7,1.5-1.7,1.5H0z"/>
	<g>
		<path id="XMLID_2_" fill="none" stroke="#414042" stroke-miterlimit="10" d="M0,70.6"/>
		<rect y="18" width="7.1" height="2.2"/>
		<rect y="21.3" width="7.1" height="2.2"/>
		<rect y="24.6" width="7.1" height="2.2"/>
		<rect y="27.9" width="7.1" height="2.2"/>
		<rect y="31.2" width="7.1" height="2.2"/>
		<rect y="34.5" width="7.1" height="2.2"/>
		<rect y="37.8" width="7.1" height="2.2"/>
		<rect y="41.1" width="7.1" height="2.2"/>
		<rect y="44.4" width="7.1" height="2.2"/>
		<rect y="47.6" width="7.1" height="2.2"/>
		<rect y="50.9" width="7.1" height="2.2"/>
		<rect y="54.2" width="7.1" height="2.2"/>
		<rect y="57.5" width="7.1" height="2.2"/>
		<rect y="60.8" width="7.1" height="2.2"/>
		<rect y="64.1" width="7.1" height="2.2"/>
		<rect y="67.4" width="7.1" height="2.2"/>
		<rect y="80.6" width="7.1" height="2.2"/>
		<rect y="83.9" width="7.1" height="2.2"/>
		<rect y="87.1" width="7.1" height="2.2"/>
		<rect y="90.4" width="7.1" height="2.2"/>
		<rect y="93.7" width="7.1" height="2.2"/>
		<path fill="none" stroke="#414042" stroke-miterlimit="10" d="M0,70.6"/>
	</g>
	<g>
		<path id="XMLID_1_" fill="none" stroke="#414042" stroke-miterlimit="10" d="M158,71.1"/>
		<rect x="158" y="18.5" width="7.1" height="2.2"/>
		<rect x="158" y="21.8" width="7.1" height="2.2"/>
		<rect x="158" y="25.1" width="7.1" height="2.2"/>
		<rect x="158" y="28.4" width="7.1" height="2.2"/>
		<rect x="158" y="31.7" width="7.1" height="2.2"/>
		<rect x="158" y="35" width="7.1" height="2.2"/>
		<rect x="158" y="38.3" width="7.1" height="2.2"/>
		<rect x="158" y="41.5" width="7.1" height="2.2"/>
		<rect x="158" y="44.8" width="7.1" height="2.2"/>
		<rect x="158" y="48.1" width="7.1" height="2.2"/>
		<rect x="158" y="51.4" width="7.1" height="2.2"/>
		<rect x="158" y="54.7" width="7.1" height="2.2"/>
		<rect x="158" y="58" width="7.1" height="2.2"/>
		<rect x="158" y="61.3" width="7.1" height="2.2"/>
		<rect x="158" y="64.6" width="7.1" height="2.2"/>
		<rect x="158" y="67.9" width="7.1" height="2.2"/>
		<rect x="158" y="71.2" width="7.1" height="2.2"/>
		<rect x="158" y="74.5" width="7.1" height="2.2"/>
		<rect x="158" y="81" width="7.1" height="2.2"/>
		<rect x="158" y="84.3" width="7.1" height="2.2"/>
		<rect x="158" y="87.6" width="7.1" height="2.2"/>
		<rect x="158" y="90.9" width="7.1" height="2.2"/>
		<rect x="158" y="94.2" width="7.1" height="2.2"/>
		<path fill="none" stroke="#414042" stroke-miterlimit="10" d="M158,71.1"/>
		<rect x="158" y="77.8" width="7.1" height="2.2"/>
	</g>
	<path id="XMLID_245_" fill="#212121" d="M144.7,3.9v96.4c0,2.1-1.2,3.9-2.9,4.8c-0.3,0.1-0.5,0.2-0.8,0.3c-0.6,0.2-1.2,0.3-1.9,0.3
		H26c-0.7,0-1.3-0.1-1.9-0.3c-0.3-0.1-0.5-0.2-0.8-0.3c-1.7-0.9-2.9-2.7-2.9-4.8V3.9c0-1.3,0.5-2.5,1.2-3.4h121.8
		C144.2,1.4,144.7,2.6,144.7,3.9z"/>
	<path fill="none" stroke="#414042" stroke-miterlimit="10" d="M0,70.6"/>
	<g>
		<polygon points="154.5,114.8 10.6,114.8 10.6,0 11.6,0 11.6,113.8 153.5,113.8 153.5,0 154.5,0 		"/>
	</g>
	<rect x="11.6" y="105.8" fill="#414042" width="141.9" height="8.5"/>
	<g>
		<rect x="27.8" y="12.2" fill="#010101" width="34.4" height="16.3"/>
		<rect x="27.8" y="29" fill="#010101" width="34.4" height="5.8"/>
		<path fill="#FFFFFF" d="M28.9,33.2l1.6-2.7c0.1-0.2,0.2-0.2,0.2-0.2h1.1v0.4l0.1-0.1c0.1-0.2,0.2-0.2,0.2-0.2h1.4v2.9h-0.9v-2.3
			l-1.4,2.3h-0.9l1.4-2.3h-0.5c-0.1,0-0.1,0-0.2,0.1l-1.3,2.2L28.9,33.2L28.9,33.2z M34.8,32v0.5H37v0.6h-3.1v-1.9
			c0-0.1,0-0.1,0-0.2l0.4-0.8c0-0.1,0.1-0.1,0.2-0.1H37v0.6h-1.8c-0.1,0-0.1,0-0.1,0.1l-0.2,0.5H37L36.7,32H34.8z M38.2,32.6h1.5V32
			h-0.6l0.3-0.6h1.2V33c0,0.1-0.1,0.2-0.2,0.2h-3.1c-0.1,0-0.2-0.1-0.2-0.2v-1.8c0-0.1,0-0.1,0-0.2l0.4-0.8c0-0.1,0.1-0.1,0.2-0.1
			h2.6v0.6h-2c-0.1,0-0.1,0-0.1,0.1l-0.2,0.5V32.6L38.2,32.6z M44.8,33.2h-1.1l-0.4-0.6h-1.1L41.9,32v1.2H41v-2.9h1.8
			c0.1,0,0.2,0.1,0.2,0.2L44.8,33.2L44.8,33.2z M42.9,32l-0.7-1c-0.1-0.1-0.1-0.1-0.2-0.1h-0.2V32H42.9z"/>
		<path fill="#FFFFFF" d="M46.4,32.6h1.1c0.1,0,0.1,0,0.1-0.1l0.3-0.7l0-0.1l0-0.1l-0.3-0.7c0-0.1-0.1-0.1-0.1-0.1h-1.1V32.6
			L46.4,32.6z M45.5,30.2h2.7c0.1,0,0.1,0.1,0.2,0.2l0.6,1.3l0,0.1l0,0.1l-0.6,1.3c-0.1,0.1-0.1,0.2-0.2,0.2h-2.7V30.2L45.5,30.2z
			 M49.3,30.2h2.5c0.1,0,0.1,0.1,0.2,0.2l0.4,0.9l0,0.1l0,0.1l-0.6,0.7l0.6,1.1h-1l-0.9-1.5h0.5c0.1,0,0.1,0,0.1,0l0.3-0.4l-0.2-0.4
			c0-0.1-0.1-0.1-0.1-0.1h-1v2.4h-1L49.3,30.2L49.3,30.2z M53.7,33.2h-1v-3h1V33.2z M55,31.2l1,1.4l1-1.4v-1h1v1.1
			c0,0.1,0,0.2,0,0.2l-1.1,1.7h-1.6l-1.1-1.7c0-0.1,0-0.1,0-0.2v-1.1h1L55,31.2L55,31.2z M59.1,32.1v0.6h2.2v0.6h-3.2v-2
			c0-0.1,0-0.1,0-0.2l0.4-0.8c0-0.1,0.1-0.1,0.2-0.1h2.5v0.6h-1.9c-0.1,0-0.1,0-0.1,0.1l-0.2,0.5h2.2L61,32.1L59.1,32.1L59.1,32.1z"
			/>
		<polygon fill="#ED2224" points="37.9,13.8 29.4,26.5 37.9,26.5 		"/>
		<polygon fill="#ED2224" points="45,13.8 36.5,26.5 45,26.5 		"/>
		<rect x="46.9" y="14.1" fill="#11AA4B" width="4.1" height="12.5"/>
		<path fill="#11AA4B" d="M52.8,14.2L52,18.4l0,0c-0.1,0-0.1,0-0.2,0l0-4.3C52.1,14.2,52.5,14.2,52.8,14.2"/>
		<path fill="#11AA4B" d="M52.2,18.5l1.2-4.1l0,0c0.3,0.1,0.7,0.2,1,0.4l0,0l-1.9,3.8l0,0C52.4,18.5,52.3,18.5,52.2,18.5"/>
		<path fill="#11AA4B" d="M53,18.8l2.9-3.2l0,0c-0.2-0.2-0.5-0.4-0.8-0.6l0,0l-2.3,3.6l0,0C52.8,18.7,52.9,18.8,53,18.8"/>
		<path fill="#11AA4B" d="M53.3,19.2L57,17l0,0c-0.2-0.3-0.4-0.6-0.7-0.9l0,0L53.1,19l0,0C53.2,19.1,53.3,19.1,53.3,19.2"/>
		<path fill="#11AA4B" d="M53.5,19.5l4.2-1l0,0c-0.1-0.4-0.3-0.7-0.4-1.1l0,0l-3.8,1.9l0,0C53.5,19.4,53.5,19.5,53.5,19.5"/>
		<path fill="#11AA4B" d="M58,20.2h-4.3l0,0c0-0.1-0.1-0.3-0.1-0.4l0,0l4.2-0.6l0,0C57.9,19.5,58,19.8,58,20.2"/>
		<path fill="#11AA4B" d="M53.7,20.5c-0.1,1-0.9,1.9-2,1.9l0,4.3c3.4,0,6.2-2.7,6.2-6.1l0,0L53.7,20.5"/>
		<polygon fill="#FFFFFF" points="59.2,25 58.7,25 58.7,26.3 58.3,26.3 58.3,25 57.9,25 57.9,24.7 59.2,24.7 		"/>
		<polyline fill="#FFFFFF" points="60.1,25.9 59.8,24.7 59.4,24.7 59.4,26.3 59.7,26.3 59.7,24.9 60,26.3 60.3,26.3 60.6,24.9 
			60.6,26.3 60.9,26.3 60.9,24.7 60.4,24.7 60.1,26 		"/>
	</g>
</g>
</svg>
