<?xml version="1.0" encoding="utf-8"?>
<!-- Generator: Adobe Illustrator 19.0.0, SVG Export Plug-In . SVG Version: 6.00 Build 0)  -->
<svg version="1.1" baseProfile="tiny"
	 id="svg2" xmlns:rdf="http://www.w3.org/1999/02/22-rdf-syntax-ns#" xmlns:cc="http://creativecommons.org/ns#" xmlns:inkscape="http://www.inkscape.org/namespaces/inkscape" xmlns:dc="http://purl.org/dc/elements/1.1/" xmlns:svg="http://www.w3.org/2000/svg" xmlns:sodipodi="http://sodipodi.sourceforge.net/DTD/sodipodi-0.dtd" inkscape:version="0.48.0 r9654" sodipodi:docname="UPLOAD THIS.svg"
	 xmlns="http://www.w3.org/2000/svg" xmlns:xlink="http://www.w3.org/1999/xlink" x="0px" y="0px"
	 viewBox="1602.5 148.5 1679.9 444.5" xml:space="preserve">
<defs>
	
	
		<inkscape:path-effect  id="path-effect3036" copytype="single_stretched" effect="skeletal" normal_offset="0" spacing="0" tang_offset="0" fuse_tolerance="0" is_visible="true" scale_y_rel="false" pattern="m -9.0913734,-5.0507627 0,10 10.00000005,-5.00000003 z" prop_units="false" prop_scale="1" vertical_pattern="false">
		</inkscape:path-effect>
	<inkscape:path-effect  id="path-effect3034" effect="spiro" is_visible="true"></inkscape:path-effect>
	
		<inkscape:path-effect  id="path-effect3030" copytype="single_stretched" effect="skeletal" normal_offset="0" spacing="0" tang_offset="0" fuse_tolerance="0" is_visible="true" scale_y_rel="false" pattern="M 0,0 0,10 10,5 z" prop_units="false" prop_scale="1" vertical_pattern="false">
		</inkscape:path-effect>
	<inkscape:path-effect  id="path-effect3028" effect="spiro" is_visible="true"></inkscape:path-effect>
	
		<inkscape:path-effect  id="path-effect3024" copytype="single_stretched" effect="skeletal" normal_offset="0" spacing="0" tang_offset="0" fuse_tolerance="0" is_visible="true" scale_y_rel="false" pattern="M 0,0 0,10 10,5 z" prop_units="false" prop_scale="1" vertical_pattern="false">
		</inkscape:path-effect>
	<inkscape:path-effect  id="path-effect3022" effect="spiro" is_visible="true"></inkscape:path-effect>
	
		<inkscape:path-effect  id="path-effect3018" copytype="single_stretched" effect="skeletal" normal_offset="0" spacing="0" tang_offset="0" fuse_tolerance="0" is_visible="true" scale_y_rel="false" pattern="M 0,0 0,10 10,5 z" prop_units="false" prop_scale="1" vertical_pattern="false">
		</inkscape:path-effect>
	<inkscape:path-effect  id="path-effect3016" effect="spiro" is_visible="true"></inkscape:path-effect>
	
		<inkscape:path-effect  id="path-effect3012" copytype="single_stretched" effect="skeletal" normal_offset="0" spacing="0" tang_offset="0" fuse_tolerance="0" is_visible="true" scale_y_rel="false" pattern="M 0,0 0,10 10,5 z" prop_units="false" prop_scale="1" vertical_pattern="false">
		</inkscape:path-effect>
	<inkscape:path-effect  id="path-effect3010" effect="spiro" is_visible="true"></inkscape:path-effect>
</defs>
<sodipodi:namedview  id="base" bordercolor="#666666" inkscape:cx="2267.3878" pagecolor="#ffffff" fit-margin-top="0" showgrid="false" inkscape:cy="51.99112" fit-margin-left="0" showguides="true" borderopacity="1.0" inkscape:zoom="0.175" inkscape:window-width="1024" inkscape:window-maximized="1" fit-margin-right="0" fit-margin-bottom="0" inkscape:current-layer="layer2" inkscape:guide-bbox="true" inkscape:document-units="px" inkscape:window-y="-8" inkscape:window-x="-8" inkscape:pageopacity="0.0" inkscape:window-height="706" inkscape:pageshadow="2">
	</sodipodi:namedview>
<g id="g3975">
	<g id="g3903">
	</g>
</g>
<g id="flowRoot3018">
</g>
<g>
	<rect x="2030" y="148.5" width="825" height="444.5"/>
	<path fill="#FFFFFF" d="M2070.8,559.1l37-58.6c1.8-3.3,3.5-5,5.3-5h26.4v7.8l1.8-2.8c1.8-3.3,3.5-5,5.3-5h31.7v63.6h-21.1v-50.2
		l-31.7,50.2h-21.1l31.7-50.2h-10.6c-1.2,0-2.3,0.6-3.5,1.7l-30,48.5L2070.8,559.1L2070.8,559.1z M2206.4,534v11.7h49.3v13.4h-70.5
		v-41.8c0-1.1,0.3-2.2,0.9-3.3l9.7-16.7c0.6-1.1,1.8-1.7,3.5-1.7h56.4v13.4h-42.3c-1.2,0-2.1,0.6-2.6,1.7l-4.4,10h49.3l-7,13.4
		H2206.4z M2284,545.7h35.2V534h-14.1l7-13.4h28.2v35.1c0,2.2-1.2,3.3-3.5,3.3h-70.5c-2.3,0-3.5-1.1-3.5-3.3v-38.5
		c0-1.1,0.3-2.2,0.9-3.3l9.7-16.7c0.6-1.1,1.8-1.7,3.5-1.7h59.9v13.4H2291c-1.2,0-2.1,0.6-2.6,1.7l-4.4,10V545.7L2284,545.7z
		 M2435.5,559.1h-24.7l-9.7-13.4h-25.6l-7-12.1v25.5h-21.1v-63.6h40.5c1.8,0,3.5,1.7,5.3,5L2435.5,559.1L2435.5,559.1z
		 M2391.4,532.3l-15.8-21.8c-1.2-1.1-2.3-1.7-3.5-1.7h-3.5v23.4H2391.4z"/>
	<path fill="#FFFFFF" d="M2473.5,545.1h25.6c1.2,0,2.1-0.5,2.7-1.6l7.8-15.9l0.5-1.7l-0.5-1.7l-7.8-15.7c-0.6-1.2-1.5-1.7-2.7-1.7
		h-25.6V545.1L2473.5,545.1z M2451.6,492.7h61.2c1.8,0,3.3,1.2,4.6,3.5l14.2,27.9l0.5,1.7l-0.5,1.7l-14.2,27.9
		c-1.2,2.3-2.7,3.5-4.6,3.5h-61.2V492.7L2451.6,492.7z M2539.3,492.7h58.5c1.8,0,3.3,1.2,4.6,3.5l9.6,19.2l0.5,1.7l-0.5,1.7
		l-14.2,15.7l14.6,24.5h-21.9l-21-33.2h11c1.2,0,2.1-0.3,2.7-0.9l7.3-7.9l-3.7-8.7c-0.6-1.2-1.5-1.7-2.7-1.7h-22.8v52.4h-21.9V492.7
		L2539.3,492.7z M2641.6,559.1h-21.9v-66.4h21.9V559.1z M2670.8,514.6l21.9,30.6l21.9-30.6v-21.8h21.9v24.5c0,2.3-0.3,4.1-0.9,5.2
		l-24.7,36.7h-36.5l-24.7-36.7c-0.6-1.2-0.9-2.9-0.9-5.2v-24.5h21.9V514.6L2670.8,514.6z M2765.8,532.9v12.2h51.2v14h-73.1v-43.7
		c0-1.2,0.3-2.3,0.9-3.5l10-17.5c0.6-1.2,1.8-1.7,3.7-1.7h58.5v14h-43.8c-1.2,0-2.1,0.6-2.7,1.7l-4.6,10.5h51.2l-7.3,14
		L2765.8,532.9L2765.8,532.9z"/>
	<g>
		<g>
			<polygon fill="#FF0000" points="2299.3,184.4 2112.8,461.7 2299.3,461.7 			"/>
			<polygon fill="#FF0000" points="2455.3,184.6 2268.8,461.9 2455.3,461.9 			"/>
		</g>
		<g>
			<rect x="2496.7" y="190" fill="#00AA00" width="90" height="274.1"/>
			<path fill="#00AA00" d="M2625.6,193.8l-18.5,91.7l0,0c-1.6-0.2-3.2-0.3-4.8-0.3v-93.4C2610.3,191.8,2618.1,192.5,2625.6,193.8"/>
			<path fill="#00AA00" d="M2612.6,286.5l26.9-89.5l0,0c7.3,2.1,14.3,4.7,21,7.9l0,0l-40.8,84.1l0,0
				C2617.5,287.9,2615.1,287.1,2612.6,286.5"/>
			<path fill="#00AA00" d="M2628.9,294.3l62.8-69.3l0,0c-5.4-4.6-11.1-8.9-17.1-12.6l0,0l-49.8,79l0,0
				C2626.2,292.3,2627.6,293.3,2628.9,294.3"/>
			<path fill="#00AA00" d="M2636.8,302.3l80.8-47.4l0,0c-4.5-7-9.5-13.5-15.2-19.5l0,0l-69.6,62.4l0,0
				C2634.3,299.2,2635.6,300.7,2636.8,302.3"/>
			<path fill="#00AA00" d="M2641.5,309.8l91.6-21.7l0,0c-2.5-8.1-5.8-15.9-9.7-23.3l0,0l-83.8,41.5l0,0
				C2640.3,307.4,2640.9,308.6,2641.5,309.8"/>
			<path fill="#00AA00" d="M2739.2,323.2h-93.7l0,0c-0.4-3.1-1.1-6.1-2.1-9l0,0.1l93-13.7l0,0c1.5,7.3,2.5,14.9,2.8,22.6"/>
			<path fill="#00AA00" d="M2645.7,331.5c-1.4,22.7-20.3,40.6-43.3,40.6v93.4c74.6,0,135.3-59.7,136.8-134l0,0h-93.7"/>
		</g>
		<g>
			<polygon fill="#FFFFFF" points="2764.8,428.6 2754.2,428.6 2754.2,457.5 2746.8,457.5 2746.8,428.6 2736.2,428.6 2736.2,422.4 
				2764.8,422.4 			"/>
			<polyline fill="#FFFFFF" points="2786.1,450.1 2779.6,422.4 2768.9,422.4 2768.9,457.5 2775.7,457.5 2775.8,428.1 2782.2,457.5 
				2789.4,457.5 2796.1,428.1 2796.1,457.5 2803,457.5 2803,422.4 2792.3,422.4 2786.1,450.6 			"/>
		</g>
	</g>
</g>
</svg>
