<svg xmlns="http://www.w3.org/2000/svg" width="420.51501" height="340.495">
  <defs>
    <clipPath id="a">
      <path d="M0 272.396h336.412V0H0v272.396z"/>
    </clipPath>
  </defs>
  <path fill="#848484" d="M59.095 340.495h27.79625v-11.85875H59.095V340.495zm33.9125 0h27.79625v-11.85875H93.0075V340.495z"/>
  <path fill="#fff" d="M0 333.55375h420.515V0H0v333.55375z"/>
  <path fill="#a3a3a3" d="M318.365 333.55375h65.36875V0H318.365v333.55375z"/>
  <path fill="#050505" d="M318.365 40.5025h65.36875V0H318.365v40.5025zm65.36875 293.05125H318.365V293.0525h65.36875v40.50125z"/>
  <g clip-path="url(#a)" transform="matrix(1.25,0,0,-1.25,0,340.495)">
    <path fill="#212121" d="M256.4717 5.6637c-.92 0-1.668.748-1.668 1.668v12.643c0 .919.748 1.668 1.668 1.668h48.736c.92 0 1.668-.749 1.668-1.668V7.3317c0-.92-.748-1.668-1.668-1.668h-48.736z"/>
    <path d="M305.2083 21.7533h-48.737c-.983 0-1.779-.796-1.779-1.779V7.3323c0-.983.796-1.78 1.779-1.78h48.737c.982 0 1.779.797 1.779 1.78v12.642c0 .983-.797 1.779-1.779 1.779m0-.222c.858 0 1.556-.699 1.556-1.557V7.3323c0-.859-.698-1.557-1.556-1.557h-48.737c-.858 0-1.557.698-1.557 1.557v12.642c0 .858.699 1.557 1.557 1.557h48.737"/>
    <path fill="#212121" d="M256.4717 21.8649c-.92 0-1.668.748-1.668 1.667v12.644c0 .918.748 1.667 1.668 1.667h48.736c.92 0 1.668-.749 1.668-1.667v-12.644c0-.919-.748-1.667-1.668-1.667h-48.736z"/>
    <path d="M305.2083 37.954h-48.737c-.983 0-1.779-.796-1.779-1.779V23.532c0-.982.796-1.779 1.779-1.779h48.737c.982 0 1.779.797 1.779 1.779v12.643c0 .983-.797 1.779-1.779 1.779m0-.222c.858 0 1.556-.699 1.556-1.557V23.532c0-.858-.698-1.556-1.556-1.556h-48.737c-.858 0-1.557.698-1.557 1.556v12.643c0 .858.699 1.557 1.557 1.557h48.737"/>
    <path fill="#212121" d="M256.4717 240.1056c-.92 0-1.668.748-1.668 1.667v12.643c0 .919.748 1.668 1.668 1.668h48.736c.92 0 1.668-.749 1.668-1.668v-12.643c0-.919-.748-1.667-1.668-1.667h-48.736z"/>
    <path d="M305.2083 256.1942h-48.737c-.983 0-1.779-.796-1.779-1.779v-12.642c0-.983.796-1.779 1.779-1.779h48.737c.982 0 1.779.796 1.779 1.779v12.642c0 .983-.797 1.779-1.779 1.779m0-.222c.858 0 1.556-.699 1.556-1.557v-12.642c0-.859-.698-1.557-1.556-1.557h-48.737c-.858 0-1.557.698-1.557 1.557v12.642c0 .858.699 1.557 1.557 1.557h48.737"/>
    <path fill="#212121" d="M256.4717 256.3058c-.92 0-1.668.749-1.668 1.668v12.643c0 .919.748 1.668 1.668 1.668h48.736c.92 0 1.668-.749 1.668-1.668v-12.643c0-.919-.748-1.668-1.668-1.668h-48.736z"/>
    <path d="M305.2083 272.3955h-48.737c-.983 0-1.779-.796-1.779-1.779v-12.642c0-.984.796-1.78 1.779-1.78h48.737c.982 0 1.779.796 1.779 1.78v12.642c0 .983-.797 1.779-1.779 1.779m0-.222c.858 0 1.556-.699 1.556-1.557v-12.642c0-.859-.698-1.558-1.556-1.558h-48.737c-.858 0-1.557.699-1.557 1.558v12.642c0 .858.699 1.557 1.557 1.557h48.737"/>
    <path fill="#fff" d="M306.987 41.779h-52.295v-3.824h52.295v3.824zm0 7.078h-52.295v-3.823h52.295v3.823zm0 7.08h-52.295v-3.824h52.295v3.824zm0 7.079h-52.295v-3.824h52.295v3.824zm0 7.078h-52.295v-3.823h52.295v3.823zm0 7.079h-52.295V73.35h52.295v3.823zm0 7.081h-52.295V80.43h52.295v3.824zm0 7.078h-52.295v-3.824h52.295v3.824zm0 7.079h-52.295v-3.823h52.295v3.823zm0 7.079h-52.295v-3.823h52.295v3.823zm0 7.079h-52.295v-3.823h52.295v3.823zm0 7.079h-52.295v-3.823h52.295v3.823zm0 7.081h-52.295v-3.826h52.295v3.826zm0 7.077h-52.295v-3.824h52.295v3.824zm0 7.08h-52.295v-3.823h52.295v3.823zm0 7.079h-52.295v-3.823h52.295v3.823zm0 7.079h-52.295v-3.825h52.295v3.825zm0 7.079h-52.295V158.3h52.295v3.823zm0 7.079h-52.295v-3.824h52.295v3.824zm0 7.08h-52.295v-3.824h52.295v3.824zm0 7.079h-52.295v-3.823h52.295v3.823zm0 7.079h-52.295v-3.824h52.295v3.824zm0 7.079h-52.295v-3.824h52.295v3.824zm0 7.079h-52.295v-3.823h52.295v3.823zm0 7.079h-52.295v-3.824h52.295v3.824zm0 7.079h-52.295v-3.825h52.295v3.825zm0 7.079h-52.295v-3.824h52.295v3.824zm0 7.08h-52.295v-3.823h52.295v3.823zm0 7.079h-52.295v-3.824h52.295v3.824z"/>
    <path fill="#a3a3a3" d="M254.692 5.553H34.357v32.856h220.335V5.553z"/>
    <path fill="#fff" d="M253.919 5.553H35.084v32.182h218.835V5.553z"/>
  </g>
</svg>
