<?xml version="1.0" encoding="UTF-8" standalone="no"?>
<svg
   xmlns:dc="http://purl.org/dc/elements/1.1/"
   xmlns:cc="http://creativecommons.org/ns#"
   xmlns:rdf="http://www.w3.org/1999/02/22-rdf-syntax-ns#"
   xmlns:svg="http://www.w3.org/2000/svg"
   xmlns="http://www.w3.org/2000/svg"
   xmlns:sodipodi="http://sodipodi.sourceforge.net/DTD/sodipodi-0.dtd"
   xmlns:inkscape="http://www.inkscape.org/namespaces/inkscape"
   viewBox="0 0 342 231.77875"
   height="231.77875"
   width="342"
   xml:space="preserve"
   version="1.1"
   id="svg2"
   inkscape:version="0.91 r13725"
   sodipodi:docname="console.svg"><sodipodi:namedview
     pagecolor="#ffffff"
     bordercolor="#666666"
     borderopacity="1"
     objecttolerance="10"
     gridtolerance="10"
     guidetolerance="10"
     inkscape:pageopacity="0"
     inkscape:pageshadow="2"
     inkscape:window-width="1920"
     inkscape:window-height="1027"
     id="namedview224"
     showgrid="false"
     inkscape:zoom="0.96876186"
     inkscape:cx="95.329961"
     inkscape:cy="127.03013"
     inkscape:window-x="-8"
     inkscape:window-y="-8"
     inkscape:window-maximized="1"
     inkscape:current-layer="svg2" /><metadata
     id="metadata8"><rdf:RDF><cc:Work
         rdf:about=""><dc:format>image/svg+xml</dc:format><dc:type
           rdf:resource="http://purl.org/dc/dcmitype/StillImage" /><dc:title></dc:title></cc:Work></rdf:RDF></metadata><defs
     id="defs6"><clipPath
       id="clipPath16"
       clipPathUnits="userSpaceOnUse"><path
         id="path18"
         d="m 0,185.423 587.967,0 L 587.967,0 0,0 0,185.423 Z"
         inkscape:connector-curvature="0" /></clipPath></defs><g
     transform="matrix(1.25,0,0,-1.25,0,231.77875)"
     id="g10"><g
       id="g12"><g
         clip-path="url(#clipPath16)"
         id="g14"><g
           transform="translate(269.1606,1.5848)"
           id="g20"><path
             id="path22"
             style="fill:#7d3d4a;fill-opacity:1;fill-rule:nonzero;stroke:none"
             d="m 0,0 -264.827,0 c -2.384,0 -4.334,1.95 -4.334,4.333 l 0,170.871 c 0,2.383 1.95,4.333 4.334,4.333 l 264.827,0 c 2.383,0 4.333,-1.95 4.333,-4.333 l 0,-170.871 C 4.333,1.95 2.383,0 0,0"
             inkscape:connector-curvature="0" /></g><g
           transform="translate(265.0006,8.3769)"
           id="g24"><path
             id="path26"
             style="fill:#812a3c;fill-opacity:1;fill-rule:nonzero;stroke:none"
             d="m 0,0 -256.507,0 c -1.559,0 -2.834,1.275 -2.834,2.833 l 0,163.003 c 0,1.559 1.275,2.834 2.834,2.834 L 0,168.67 c 1.558,0 2.833,-1.275 2.833,-2.834 l 0,-163.003 C 2.833,1.275 1.558,0 0,0"
             inkscape:connector-curvature="0" /></g><g
           transform="translate(264.0102,11.0937)"
           id="g28"><path
             id="path30"
             style="fill:#ced2d1;fill-opacity:1;fill-rule:nonzero;stroke:none"
             d="m 0,0 -254.526,0 c -0.734,0 -1.334,0.6 -1.334,1.333 l 0,160.57 c 0,0.733 0.6,1.333 1.334,1.333 l 254.526,0 c 0.733,0 1.333,-0.6 1.333,-1.333 l 0,-160.57 C 1.333,0.6 0.733,0 0,0"
             inkscape:connector-curvature="0" /></g><g
           transform="translate(209.8558,37.5828)"
           id="g32"><path
             id="path34"
             style="fill:#999c93;fill-opacity:1;fill-rule:nonzero;stroke:none"
             d="m 0,0 -146.218,0 c -2.75,0 -5,2.25 -5,5 l 0,117.465 c 0,2.75 2.25,5 5,5 l 146.218,0 c 2.75,0 5,-2.25 5,-5 L 5,5 C 5,2.25 2.75,0 0,0"
             inkscape:connector-curvature="0" /></g><g
           transform="translate(205.6969,43.4692)"
           id="g36"><path
             id="path38"
             style="fill:#ced2d1;fill-opacity:1;fill-rule:nonzero;stroke:none"
             d="m 0,0 -137.9,0 c -1.831,0 -3.329,1.498 -3.329,3.329 l 0,110.166 c 0,1.831 1.498,3.329 3.329,3.329 l 137.9,0 c 1.831,0 3.329,-1.498 3.329,-3.329 l 0,-110.166 C 3.329,1.498 1.831,0 0,0"
             inkscape:connector-curvature="0" /></g><g
           transform="translate(191.9203,57.959)"
           id="g40"><path
             id="path42"
             style="fill:#752a35;fill-opacity:1;fill-rule:nonzero;stroke:none"
             d="m 0,0 -110.347,0 c -5.018,0 -9.125,4.106 -9.125,9.125 l 0,70.19 c 0,5.019 4.107,9.125 9.125,9.125 L 0,88.44 c 5.019,0 9.125,-4.106 9.125,-9.125 l 0,-70.19 C 9.125,4.106 5.019,0 0,0"
             inkscape:connector-curvature="0" /></g><g
           transform="translate(191.5155,61.3409)"
           id="g44"><path
             id="path46"
             style="fill:#889c86;fill-opacity:1;fill-rule:nonzero;stroke:none"
             d="m 0,0 -109.537,0 c -3.529,0 -6.417,2.887 -6.417,6.417 l 0,68.629 c 0,3.529 2.888,6.416 6.417,6.416 L 0,81.462 c 3.529,0 6.417,-2.887 6.417,-6.416 l 0,-68.629 C 6.417,2.887 3.529,0 0,0"
             inkscape:connector-curvature="0" /></g><g
           transform="translate(23.4326,53.7422)"
           id="g48"><path
             id="path50"
             style="fill:#80293a;fill-opacity:1;fill-rule:nonzero;stroke:none"
             d="m 0,0 c 0,7.096 5.752,12.848 12.848,12.848 7.096,0 12.849,-5.752 12.849,-12.848 0,-7.096 -5.753,-12.848 -12.849,-12.848 C 5.752,-12.848 0,-7.096 0,0"
             inkscape:connector-curvature="0" /></g><g
           transform="translate(26.0929,53.7422)"
           id="g52"><path
             id="path54"
             style="fill:#c6283a;fill-opacity:1;fill-rule:nonzero;stroke:none"
             d="m 0,0 c 0,5.627 4.561,10.188 10.188,10.188 5.627,0 10.188,-4.561 10.188,-10.188 0,-5.627 -4.561,-10.188 -10.188,-10.188 C 4.561,-10.188 0,-5.627 0,0"
             inkscape:connector-curvature="0" /></g><g
           transform="translate(225.1571,53.7422)"
           id="g56"><path
             id="path58"
             style="fill:#80293a;fill-opacity:1;fill-rule:nonzero;stroke:none"
             d="m 0,0 c 0,7.096 5.752,12.848 12.848,12.848 7.096,0 12.849,-5.752 12.849,-12.848 0,-7.096 -5.753,-12.848 -12.849,-12.848 C 5.752,-12.848 0,-7.096 0,0"
             inkscape:connector-curvature="0" /></g><g
           transform="translate(227.8173,53.7422)"
           id="g60"><path
             id="path62"
             style="fill:#c6283a;fill-opacity:1;fill-rule:nonzero;stroke:none"
             d="m 0,0 c 0,5.627 4.561,10.188 10.188,10.188 5.627,0 10.188,-4.561 10.188,-10.188 0,-5.627 -4.561,-10.188 -10.188,-10.188 C 4.561,-10.188 0,-5.627 0,0"
             inkscape:connector-curvature="0" /></g><g
           transform="translate(88.0705,26.9419)"
           id="g64"><path
             id="path66"
             style="fill:#161715;fill-opacity:1;fill-rule:nonzero;stroke:none"
             d="M 0,0 C 0,1.813 1.47,3.283 3.283,3.283 5.096,3.283 6.566,1.813 6.566,0 6.566,-1.813 5.096,-3.283 3.283,-3.283 1.47,-3.283 0,-1.813 0,0"
             inkscape:connector-curvature="0" /></g><g
           transform="translate(143.8787,19.4706)"
           id="g68"><path
             id="path70"
             style="fill:#752035;fill-opacity:1;fill-rule:nonzero;stroke:none"
             d="m 0,0 -5.49,0 c -4.172,0 -7.585,3.413 -7.585,7.584 l 0,0 c 0,4.172 3.413,7.585 7.585,7.585 l 5.49,0 c 4.171,0 7.584,-3.413 7.584,-7.585 l 0,0 C 7.584,3.413 4.171,0 0,0"
             inkscape:connector-curvature="0" /></g><g
           transform="translate(143.8504,22.6402)"
           id="g72"><path
             id="path74"
             style="fill:#7d878a;fill-opacity:1;fill-rule:nonzero;stroke:none"
             d="M 0,0 -5.434,0 C -7.846,0 -9.82,1.974 -9.82,4.387 l 0,0 c 0,2.412 1.974,4.386 4.386,4.386 l 5.434,0 c 2.413,0 4.387,-1.974 4.387,-4.386 l 0,0 C 4.387,1.974 2.413,0 0,0"
             inkscape:connector-curvature="0" /></g><g
           transform="translate(172.2356,19.4706)"
           id="g76"><path
             id="path78"
             style="fill:#752035;fill-opacity:1;fill-rule:nonzero;stroke:none"
             d="m 0,0 -5.49,0 c -4.172,0 -7.585,3.413 -7.585,7.584 l 0,0 c 0,4.172 3.413,7.585 7.585,7.585 l 5.49,0 c 4.171,0 7.584,-3.413 7.584,-7.585 l 0,0 C 7.584,3.413 4.171,0 0,0"
             inkscape:connector-curvature="0" /></g><g
           transform="translate(172.2073,22.6402)"
           id="g80"><path
             id="path82"
             style="fill:#7d878a;fill-opacity:1;fill-rule:nonzero;stroke:none"
             d="M 0,0 -5.434,0 C -7.846,0 -9.82,1.974 -9.82,4.387 l 0,0 c 0,2.412 1.974,4.386 4.386,4.386 l 5.434,0 c 2.413,0 4.387,-1.974 4.387,-4.386 l 0,0 C 4.387,1.974 2.413,0 0,0"
             inkscape:connector-curvature="0" /></g><g
           transform="translate(201.4415,19.4706)"
           id="g84"><path
             id="path86"
             style="fill:#752035;fill-opacity:1;fill-rule:nonzero;stroke:none"
             d="m 0,0 -5.49,0 c -4.172,0 -7.585,3.413 -7.585,7.584 l 0,0 c 0,4.172 3.413,7.585 7.585,7.585 l 5.49,0 c 4.171,0 7.584,-3.413 7.584,-7.585 l 0,0 C 7.584,3.413 4.171,0 0,0"
             inkscape:connector-curvature="0" /></g><g
           transform="translate(201.4132,22.6402)"
           id="g88"><path
             id="path90"
             style="fill:#7d878a;fill-opacity:1;fill-rule:nonzero;stroke:none"
             d="M 0,0 -5.434,0 C -7.846,0 -9.82,1.974 -9.82,4.387 l 0,0 c 0,2.412 1.974,4.386 4.386,4.386 l 5.434,0 c 2.413,0 4.387,-1.974 4.387,-4.386 l 0,0 C 4.387,1.974 2.413,0 0,0"
             inkscape:connector-curvature="0" /></g><g
           transform="translate(36.1377,132.5771)"
           id="g92"><path
             id="path94"
             style="fill:#231f20;fill-opacity:1;fill-rule:nonzero;stroke:none"
             d="m 0,0 c 4.637,0 9.273,0 13.91,0 0.158,0 0.317,-0.003 0.474,0.011 0.728,0.064 1.273,0.534 1.37,1.19 0.028,0.188 0.021,0.382 0.021,0.573 10e-4,7.502 10e-4,15.004 10e-4,22.506 0,0.124 0,0.248 -0.006,0.372 -0.052,1.079 -0.648,1.65 -1.723,1.65 -9.284,0 -18.569,0 -27.853,0 -1.348,0 -1.984,-0.627 -1.984,-1.955 0,-7.513 0,-15.026 0,-22.539 0,-0.102 -0.003,-0.203 0.002,-0.305 0.041,-0.746 0.501,-1.298 1.239,-1.446 0.263,-0.052 0.539,-0.055 0.809,-0.055 C -9.16,-0.001 -4.58,0 0,0 m -16.129,1.225 0,23.725 c 0.193,0.778 0.62,1.343 1.424,1.57 0.116,0.033 0.227,0.08 0.34,0.12 l 28.977,0 c 1.13,-0.472 1.493,-1.025 1.493,-2.277 0,-7.604 0,-15.207 -0.001,-22.811 0,-0.146 0.002,-0.295 -0.025,-0.437 -0.174,-0.895 -0.896,-1.444 -1.896,-1.444 -9.431,-0.001 -18.863,-0.001 -28.295,0 -0.056,0 -0.113,-0.002 -0.169,0.001 -0.856,0.04 -1.502,0.534 -1.76,1.344 -0.023,0.072 -0.059,0.139 -0.088,0.209"
             inkscape:connector-curvature="0" /></g><g
           transform="translate(45.8276,141.2315)"
           id="g96"><path
             id="path98"
             style="fill:#231f20;fill-opacity:1;fill-rule:nonzero;stroke:none"
             d="m 0,0 1.176,0 0,-2.759 2.13,0 0,2.75 1.2,0 0,-6.908 -1.174,0 0,2.919 -2.15,0 0,-2.917 L 0,-6.915 0,0 Z"
             inkscape:connector-curvature="0" /></g><g
           transform="translate(45.4589,136.161)"
           id="g100"><path
             id="path102"
             style="fill:#231f20;fill-opacity:1;fill-rule:nonzero;stroke:none"
             d="m 0,0 c -0.534,-1.348 -2.311,-2.208 -3.884,-1.914 -1.691,0.315 -2.927,1.782 -2.978,3.536 -0.05,1.696 1.169,3.24 2.864,3.628 1.576,0.361 3.359,-0.467 3.999,-1.895 -0.447,0 -0.873,-0.007 -1.298,0.007 -0.075,0.002 -0.153,0.086 -0.218,0.144 -0.862,0.765 -1.986,0.892 -2.95,0.332 -0.949,-0.552 -1.42,-1.646 -1.176,-2.731 0.233,-1.038 1.135,-1.824 2.236,-1.919 0.691,-0.061 1.315,0.144 1.833,0.606 0.178,0.159 0.35,0.221 0.58,0.21 C -0.673,-0.011 -0.354,0 0,0"
             inkscape:connector-curvature="0" /></g><g
           transform="translate(37.5551,134.3063)"
           id="g104"><path
             id="path106"
             style="fill:#231f20;fill-opacity:1;fill-rule:nonzero;stroke:none"
             d="m 0,0 -1.189,0 0,5.745 -1.342,0 0,1.174 3.847,0 0,-1.147 L 0,5.772 0,0 Z"
             inkscape:connector-curvature="0" /></g><g
           transform="translate(33.3178,139.071)"
           id="g108"><path
             id="path110"
             style="fill:#231f20;fill-opacity:1;fill-rule:nonzero;stroke:none"
             d="M 0,0 C -0.491,-0.738 -0.924,-1.39 -1.384,-2.08 L 0,-2.08 0,0 Z m 1.2,2.18 0,-6.931 -1.172,0 0,1.46 c -0.47,0 -0.917,-0.047 -1.349,0.011 -0.652,0.087 -1.098,-0.12 -1.348,-0.732 -0.264,-0.645 -0.734,-0.901 -1.423,-0.768 -0.14,0.028 -0.29,0.004 -0.492,0.004 0.081,0.139 0.131,0.235 0.19,0.324 1.402,2.111 2.809,4.217 4.201,6.334 C -0.04,2.116 0.121,2.205 0.388,2.184 0.647,2.164 0.909,2.18 1.2,2.18"
             inkscape:connector-curvature="0" /></g><g
           transform="translate(22.3904,134.292)"
           id="g112"><path
             id="path114"
             style="fill:#231f20;fill-opacity:1;fill-rule:nonzero;stroke:none"
             d="m 0,0 0,6.932 1.153,0 0,-4.643 C 1.177,2.278 1.201,2.266 1.226,2.255 1.293,2.347 1.365,2.436 1.428,2.531 2.339,3.9 3.255,5.265 4.152,6.643 4.309,6.885 4.472,6.992 4.758,6.964 5.006,6.939 5.258,6.959 5.539,6.959 l 0,-4.668 C 5.563,2.28 5.587,2.268 5.61,2.256 5.678,2.347 5.749,2.435 5.812,2.529 6.735,3.917 7.66,5.303 8.574,6.697 8.702,6.891 8.837,6.977 9.072,6.964 9.419,6.944 9.768,6.959 10.173,6.959 10.073,6.798 10.012,6.693 9.945,6.591 8.548,4.49 7.148,2.391 5.761,0.283 5.615,0.062 5.464,-0.026 5.207,-0.005 4.948,0.017 4.685,0 4.387,0 l 0,4.66 C 4.36,4.671 4.333,4.682 4.307,4.694 4.241,4.599 4.173,4.505 4.109,4.409 3.205,3.05 2.294,1.695 1.405,0.326 1.24,0.072 1.067,-0.035 0.771,-0.005 0.525,0.02 0.274,0 0,0"
             inkscape:connector-curvature="0" /></g><g
           transform="translate(35.0715,147.5946)"
           id="g116"><path
             id="path118"
             style="fill:#231f20;fill-opacity:1;fill-rule:nonzero;stroke:none"
             d="M 0,0 C 0.006,-0.223 0.37,-0.681 0.544,-0.684 0.73,-0.688 1.082,-0.243 1.084,-0.002 1.086,0.258 0.829,0.469 0.518,0.465 0.211,0.461 -0.007,0.265 0,0 m 0.462,-2.07 c -0.27,-0.227 -0.54,-0.408 -0.751,-0.641 -0.468,-0.516 -0.251,-1.384 0.383,-1.622 0.703,-0.264 1.525,0.177 1.677,0.908 0.014,0.068 -0.037,0.174 -0.092,0.226 C 1.291,-2.83 0.895,-2.47 0.462,-2.07 m 0.927,0.599 c 0.284,-0.26 0.568,-0.52 0.89,-0.815 0.18,0.401 0.356,0.766 0.509,1.141 0.075,0.184 0.172,0.266 0.379,0.253 C 3.448,-0.911 3.731,-0.897 4.07,-0.897 3.787,-1.535 3.54,-2.132 3.257,-2.712 3.13,-2.972 3.158,-3.128 3.38,-3.317 3.847,-3.715 4.288,-4.145 4.76,-4.581 4.513,-4.849 4.284,-5.097 4.037,-5.365 3.567,-4.933 3.115,-4.519 2.639,-4.082 2.146,-5.135 1.333,-5.598 0.216,-5.456 c -0.826,0.104 -1.436,0.553 -1.694,1.357 -0.377,1.181 0.09,2.066 1.089,2.707 C -1.231,-0.296 -1.29,0.485 -0.599,1.11 0.041,1.689 1.086,1.668 1.71,1.064 2.378,0.417 2.274,-0.423 1.389,-1.471"
             inkscape:connector-curvature="0" /></g><g
           transform="translate(46.2383,157.2146)"
           id="g120"><path
             id="path122"
             style="fill:#231f20;fill-opacity:1;fill-rule:nonzero;stroke:none"
             d="m 0,0 3.571,0 0,-1.161 -2.378,0 0,-1.775 2.386,0 0,-1.181 -2.383,0 0,-1.627 2.378,0 0,-1.172 L 0,-6.916 0,0 Z"
             inkscape:connector-curvature="0" /></g><g
           transform="translate(40.8533,157.2316)"
           id="g124"><path
             id="path126"
             style="fill:#231f20;fill-opacity:1;fill-rule:nonzero;stroke:none"
             d="m 0,0 0,-4.66 c 0.024,-0.012 0.047,-0.023 0.071,-0.034 0.065,0.095 0.132,0.19 0.196,0.286 0.866,1.303 1.75,2.594 2.588,3.915 0.246,0.389 0.513,0.563 0.96,0.497 C 3.991,-0.021 4.173,0 4.37,0 l 0,-6.937 -1.153,0 0,4.648 C 3.193,-2.278 3.17,-2.267 3.146,-2.256 3.079,-2.35 3.008,-2.441 2.944,-2.537 2.027,-3.916 1.107,-5.292 0.199,-6.677 0.066,-6.88 -0.067,-6.987 -0.319,-6.964 -0.59,-6.94 -0.864,-6.959 -1.165,-6.959 l 0,4.671 c -0.023,0.012 -0.047,0.024 -0.07,0.035 -0.067,-0.091 -0.138,-0.18 -0.2,-0.275 -0.923,-1.388 -1.849,-2.775 -2.763,-4.169 -0.127,-0.194 -0.263,-0.277 -0.497,-0.264 -0.348,0.02 -0.698,0.006 -1.101,0.006 0.089,0.142 0.145,0.237 0.205,0.328 1.397,2.102 2.798,4.201 4.184,6.31 0.158,0.24 0.319,0.351 0.606,0.322 C -0.554,-0.02 -0.301,0 0,0"
             inkscape:connector-curvature="0" /></g><g
           transform="translate(32.1151,152.9788)"
           id="g128"><path
             id="path130"
             style="fill:#231f20;fill-opacity:1;fill-rule:nonzero;stroke:none"
             d="m 0,0 1.363,0 0,2.051 C 0.885,1.332 0.454,0.683 0,0 m 2.573,-2.686 -1.175,0 0,1.462 c -0.731,0 -1.434,0.006 -2.136,-0.009 -0.073,-0.002 -0.157,-0.119 -0.212,-0.198 -0.24,-0.349 -0.48,-0.697 -0.699,-1.057 -0.103,-0.17 -0.225,-0.225 -0.416,-0.218 -0.363,0.013 -0.727,0.003 -1.142,0.003 0.079,0.133 0.131,0.229 0.191,0.319 1.402,2.112 2.809,4.22 4.202,6.338 C 1.338,4.186 1.499,4.279 1.768,4.257 2.027,4.236 2.29,4.253 2.573,4.253 l 0,-6.939 z"
             inkscape:connector-curvature="0" /></g><g
           transform="translate(26.0357,152.5676)"
           id="g132"><path
             id="path134"
             style="fill:#231f20;fill-opacity:1;fill-rule:nonzero;stroke:none"
             d="m 0,0 0,1.132 3.551,0 C 3.753,-0.513 2.315,-2.228 0.485,-2.538 -1.395,-2.856 -3.267,-1.559 -3.653,0.328 -4.05,2.269 -2.86,4.17 -0.958,4.633 0.768,5.054 2.797,4.066 3.228,2.559 2.845,2.559 2.472,2.546 2.102,2.568 2.011,2.573 1.917,2.685 1.844,2.765 1.057,3.623 -0.133,3.874 -1.158,3.392 -2.16,2.92 -2.756,1.836 -2.607,0.752 c 0.154,-1.128 1.002,-1.993 2.147,-2.191 0.984,-0.171 2.074,0.34 2.572,1.207 0.032,0.056 0.052,0.119 0.1,0.232 L 1.087,0 0,0 Z"
             inkscape:connector-curvature="0" /></g><g
           transform="translate(22.4337,129.6393)"
           id="g136"><path
             id="path138"
             style="fill:#110f0d;fill-opacity:1;fill-rule:nonzero;stroke:none"
             d="M 0,0 0.441,0 0.686,0 0.932,0 1.176,0 0.932,0 1.176,0 3.007,-3.029 3.007,0 3.495,0 3.742,0 3.986,0 4.23,0 3.986,0 4.23,0 l 0,-0.526 0,-0.263 0,-0.658 0,-0.264 0,-0.395 0,-0.266 0,-0.523 0,-0.398 0,-0.526 0,-0.263 0,-0.395 -0.61,0 -0.244,0 -0.244,0 -0.05,0 -1.906,3.29 0,-0.919 0,-0.266 0,-0.657 0,-0.264 0,-0.395 0,-0.394 0,-0.395 -0.61,0 -0.247,0 -0.244,0 L 0,-4.477 0,0 Z"
             inkscape:connector-curvature="0" /></g><g
           transform="translate(26.9887,128.1496)"
           id="g140"><path
             id="path142"
             style="fill:#110f0d;fill-opacity:1;fill-rule:nonzero;stroke:none"
             d="M 0,0 0.493,0 0.74,0 0.987,0 1.233,0 0.987,0 1.363,0 1.358,-2.999 l -0.616,0 -0.246,0 -0.247,0 -0.247,0 0.247,0 -0.247,0 L 0,0 Z m 0,1.462 0.615,0 0.247,0 0.247,0 0.246,0 -0.246,0 0.246,0 0,-0.664 0,-0.266 0,0.266 0,-0.266 -0.615,0 -0.247,0 -0.246,0 -0.247,0 0.247,0 -0.247,0 0,0.93 0,-0.266 0,0.266 z"
             inkscape:connector-curvature="0" /></g><g
           transform="translate(31.0185,128.371)"
           id="g144"><path
             id="path146"
             style="fill:#110f0d;fill-opacity:1;fill-rule:nonzero;stroke:none"
             d="m 0,0 c 0.9,0.078 1.361,-0.278 1.384,-1.07 l 0,-0.134 0,0.067 0,0.067 0,-0.268 0,0.134 0,-0.134 0,-0.67 0,-0.268 0,-0.269 0,-0.269 0,-0.403 -0.496,0 -0.249,0 -0.249,0 -0.25,0 0.25,0 -0.25,0 0,2.147 c 0.002,0.282 -0.18,0.439 -0.545,0.471 -0.258,0.02 -0.451,-0.092 -0.579,-0.336 l 0,-0.538 0,-0.266 0,-0.672 0,-0.269 0,-0.537 -0.621,0 -0.249,0 -0.249,0 -0.146,0 0,3.088 0.395,0 0.249,0 0.25,0 0.246,0 -0.246,0 0.376,0 -0.003,-0.375 C -0.705,-0.213 -0.377,-0.045 0,0"
             inkscape:connector-curvature="0" /></g><g
           transform="translate(33.4882,129.1017)"
           id="g148"><path
             id="path150"
             style="fill:#110f0d;fill-opacity:1;fill-rule:nonzero;stroke:none"
             d="m 0,0 1.176,0 0,-0.635 0.47,0 0.237,0 -0.237,0 0.237,0 0,-0.51 -0.47,0 -0.237,0 0,-0.507 0,-0.255 0,-0.509 0,-0.255 0,-0.636 0,-0.255 0,-0.381 -0.47,0 -0.236,0 -0.234,0 -0.236,0 0.236,0 -0.236,0 0,2.798 -0.706,0 0,0.51 0.47,0 0.236,0 L 0,0 Z"
             inkscape:connector-curvature="0" /></g><g
           transform="translate(37.1835,128.0014)"
           id="g152"><path
             id="path154"
             style="fill:#110f0d;fill-opacity:1;fill-rule:nonzero;stroke:none"
             d="m 0,0 c -0.301,-0.017 -0.456,-0.268 -0.465,-0.753 l 0.449,0 0.226,0 0.226,0 C 0.433,-0.29 0.287,-0.039 0,0 M -0.016,0.342 C 1.008,0.308 1.543,-0.22 1.592,-1.241 l -0.366,0 -0.226,0 -0.564,0 -0.226,0 -0.337,0 -0.338,0 c -0.015,-0.677 0.061,-1.061 0.229,-1.15 0.167,-0.088 0.334,-0.077 0.498,0.033 0.168,0.11 0.235,0.362 0.2,0.754 l 0.426,0 0.226,0 0.226,0 0.226,0 -0.226,0 0.226,0 C 1.412,-2.275 1.088,-2.667 0.594,-2.78 c -0.493,-0.114 -0.956,-0.081 -1.389,0.1 -0.431,0.183 -0.711,0.601 -0.841,1.255 l -0.003,0.218 c 0.128,0.986 0.67,1.502 1.623,1.549"
             inkscape:connector-curvature="0" /></g><g
           transform="translate(41.2188,128.371)"
           id="g156"><path
             id="path158"
             style="fill:#110f0d;fill-opacity:1;fill-rule:nonzero;stroke:none"
             d="m 0,0 c 0.9,0.078 1.361,-0.278 1.384,-1.07 l 0,-0.134 0,0.067 0,0.067 0,-0.268 0,0.134 0,-0.134 0,-0.67 0,-0.268 0,-0.269 0,-0.269 0,-0.403 -0.496,0 -0.249,0 -0.249,0 -0.25,0 0.25,0 -0.25,0 0,2.147 c 0.002,0.282 -0.18,0.439 -0.545,0.471 -0.258,0.02 -0.451,-0.092 -0.579,-0.336 l 0,-0.538 0,-0.266 0,-0.672 0,-0.269 0,-0.537 -0.621,0 -0.249,0 -0.249,0 -0.146,0 0,3.088 0.395,0 0.249,0 0.25,0 0.246,0 -0.246,0 0.376,0 -0.003,-0.375 C -0.705,-0.213 -0.377,-0.045 0,0"
             inkscape:connector-curvature="0" /></g><g
           transform="translate(44.7864,128.0014)"
           id="g160"><path
             id="path162"
             style="fill:#110f0d;fill-opacity:1;fill-rule:nonzero;stroke:none"
             d="m 0,0 c -0.325,-0.015 -0.494,-0.287 -0.506,-0.815 l 0,-0.845 c 0.026,-0.52 0.198,-0.791 0.516,-0.815 0.312,0.035 0.465,0.185 0.46,0.45 l 0,1.476 C 0.494,-0.215 0.338,-0.032 0,0 m 0.455,1.767 0.488,0 0.241,0 0.245,0 0.243,0 -0.243,0 0.243,0 0,-0.526 0,-0.261 0,-0.655 0,-0.263 0,-0.392 0,-0.264 0,-0.523 0,-0.395 0,-0.524 0,-0.263 0,-0.555 -1.22,0 -0.003,0.107 c -0.095,-0.08 -0.385,-0.111 -0.869,-0.092 -0.496,0.011 -0.859,0.181 -1.091,0.509 -0.232,0.331 -0.333,0.689 -0.304,1.076 0.005,0.354 0.098,0.676 0.278,0.965 0.18,0.29 0.525,0.504 1.034,0.642 0.482,0.035 0.802,-0.018 0.958,-0.16 l 0,1.574 z"
             inkscape:connector-curvature="0" /></g><g
           transform="translate(48.4014,127.9566)"
           id="g164"><path
             id="path166"
             style="fill:#110f0d;fill-opacity:1;fill-rule:nonzero;stroke:none"
             d="m 0,0 c -0.344,-0.011 -0.521,-0.254 -0.53,-0.728 l 0,-0.935 c 0.024,-0.463 0.205,-0.707 0.54,-0.731 0.333,0.033 0.495,0.283 0.489,0.748 l 0,0.907 C 0.49,-0.25 0.324,-0.004 0,0 m -1.706,-1.092 c 0.045,0.558 0.222,0.948 0.532,1.17 0.31,0.223 0.682,0.326 1.117,0.311 l 0.192,0 C 0.609,0.363 0.98,0.227 1.246,-0.018 1.513,-0.264 1.664,-0.619 1.701,-1.084 1.713,-1.66 1.564,-2.079 1.254,-2.338 0.946,-2.594 0.57,-2.746 0.127,-2.795 l -0.2,0 c -0.569,0.047 -0.981,0.208 -1.233,0.482 -0.251,0.271 -0.385,0.678 -0.4,1.221"
             inkscape:connector-curvature="0" /></g><g
           transform="translate(36.0846,72.711)"
           id="g168"><path
             id="path170"
             style="fill:#110f0d;fill-opacity:1;fill-rule:nonzero;stroke:none"
             d="m 0,0 -2.997,0 0,4.549 0.967,0 0,-3.717 2.03,0 L 0,0 Z"
             inkscape:connector-curvature="0" /></g><g
           transform="translate(40.2435,72.711)"
           id="g172"><path
             id="path174"
             style="fill:#110f0d;fill-opacity:1;fill-rule:nonzero;stroke:none"
             d="m 0,0 -3.502,0 0,4.549 3.399,0 0,-0.808 -2.432,0 0,-1.019 2.268,0 0,-0.816 -2.268,0 0,-1.09 L 0,0.816 0,0 Z"
             inkscape:connector-curvature="0" /></g><g
           transform="translate(44.1834,76.4519)"
           id="g176"><path
             id="path178"
             style="fill:#110f0d;fill-opacity:1;fill-rule:nonzero;stroke:none"
             d="m 0,0 -2.237,0 0,-1.142 1.919,0 0,-0.812 -1.919,0 0,-1.787 -0.967,0 0,4.549 L 0,0.808 0,0 Z"
             inkscape:connector-curvature="0" /></g><g
           transform="translate(48.2148,76.428)"
           id="g180"><path
             id="path182"
             style="fill:#110f0d;fill-opacity:1;fill-rule:nonzero;stroke:none"
             d="m 0,0 -1.345,0 0,-3.717 -0.959,0 0,3.717 -1.337,0 0,0.832 L 0,0.832 0,0 Z"
             inkscape:connector-curvature="0" /></g><g
           transform="translate(223.2993,75.2301)"
           id="g184"><path
             id="path186"
             style="fill:#110f0d;fill-opacity:1;fill-rule:nonzero;stroke:none"
             d="M 0,0 0.955,0 C 1.242,0 1.448,0.052 1.574,0.155 1.7,0.259 1.763,0.427 1.763,0.661 1.763,1.072 1.515,1.277 1.019,1.277 L 0,1.277 0,0 Z m 2.985,-2.519 -1.043,0 -0.39,1.11 c -0.077,0.226 -0.18,0.388 -0.31,0.486 -0.13,0.098 -0.293,0.147 -0.49,0.147 l -0.752,0 0,-1.743 -0.967,0 0,4.549 2.022,0 C 1.222,2.03 1.378,2.022 1.524,2.008 1.67,1.993 1.805,1.967 1.928,1.93 2.052,1.893 2.163,1.841 2.262,1.775 2.362,1.709 2.448,1.622 2.519,1.516 2.593,1.41 2.65,1.293 2.69,1.164 2.73,1.035 2.75,0.891 2.75,0.732 2.75,0.411 2.665,0.154 2.495,-0.04 2.326,-0.233 2.089,-0.367 1.787,-0.442 1.877,-0.482 1.959,-0.527 2.032,-0.577 2.105,-0.627 2.17,-0.688 2.229,-0.76 2.287,-0.832 2.34,-0.916 2.388,-1.013 2.436,-1.11 2.482,-1.218 2.527,-1.337 l 0.458,-1.182 z"
             inkscape:connector-curvature="0" /></g><path
           id="path188"
           style="fill:#110f0d;fill-opacity:1;fill-rule:nonzero;stroke:none"
           d="m 227.892,72.711 -0.963,0 0,4.549 0.963,0 0,-4.549 z"
           inkscape:connector-curvature="0" /><g
           transform="translate(230.8767,72.6393)"
           id="g190"><path
             id="path192"
             style="fill:#110f0d;fill-opacity:1;fill-rule:nonzero;stroke:none"
             d="m 0,0 c -0.329,0 -0.628,0.054 -0.897,0.161 -0.27,0.108 -0.501,0.262 -0.693,0.462 -0.192,0.2 -0.341,0.446 -0.446,0.736 -0.104,0.291 -0.157,0.619 -0.157,0.985 0,0.35 0.049,0.67 0.145,0.959 0.097,0.289 0.239,0.537 0.426,0.744 0.187,0.207 0.416,0.368 0.687,0.482 C -0.665,4.643 -0.356,4.7 -0.008,4.7 0.273,4.7 0.531,4.664 0.766,4.593 1.001,4.521 1.205,4.418 1.377,4.284 1.549,4.15 1.688,3.987 1.793,3.795 1.898,3.602 1.962,3.385 1.986,3.144 l -0.959,0 C 1,3.375 0.897,3.555 0.716,3.683 0.536,3.812 0.297,3.876 0,3.876 -0.183,3.876 -0.348,3.842 -0.495,3.775 -0.643,3.707 -0.768,3.608 -0.872,3.478 -0.975,3.348 -1.055,3.188 -1.112,2.997 -1.169,2.806 -1.198,2.588 -1.198,2.344 c 0,-0.247 0.029,-0.466 0.086,-0.657 0.057,-0.191 0.139,-0.351 0.246,-0.481 0.108,-0.13 0.237,-0.228 0.388,-0.295 0.152,-0.066 0.321,-0.099 0.51,-0.099 0.469,0 0.825,0.142 1.066,0.426 l 0,0.513 -0.971,0 0,0.732 1.927,0 0,-2.411 -0.597,0 -0.12,0.366 C 1.181,0.294 0.993,0.186 0.774,0.111 0.555,0.037 0.297,0 0,0"
             inkscape:connector-curvature="0" /></g><g
           transform="translate(237.5508,72.711)"
           id="g194"><path
             id="path196"
             style="fill:#110f0d;fill-opacity:1;fill-rule:nonzero;stroke:none"
             d="m 0,0 -0.963,0 0,1.982 -1.827,0 0,-1.982 -0.967,0 0,4.549 0.967,0 0,-1.763 1.827,0 0,1.763 L 0,4.549 0,0 Z"
             inkscape:connector-curvature="0" /></g><g
           transform="translate(241.7732,76.428)"
           id="g198"><path
             id="path200"
             style="fill:#110f0d;fill-opacity:1;fill-rule:nonzero;stroke:none"
             d="m 0,0 -1.345,0 0,-3.717 -0.959,0 0,3.717 -1.337,0 0,0.832 L 0,0.832 0,0 Z"
             inkscape:connector-curvature="0" /></g><g
           transform="translate(133.9704,47.7186)"
           id="g202"><path
             id="path204"
             style="fill:#110f0d;fill-opacity:1;fill-rule:nonzero;stroke:none"
             d="m 0,0 c -0.247,0 -0.471,0.04 -0.673,0.121 -0.202,0.081 -0.375,0.196 -0.519,0.346 -0.145,0.15 -0.256,0.334 -0.334,0.552 -0.079,0.218 -0.118,0.464 -0.118,0.739 0,0.263 0.036,0.502 0.108,0.719 0.073,0.217 0.18,0.403 0.32,0.559 0.14,0.155 0.312,0.275 0.515,0.361 0.203,0.085 0.434,0.128 0.696,0.128 0.21,0 0.404,-0.027 0.58,-0.081 C 0.751,3.391 0.903,3.313 1.033,3.213 1.162,3.112 1.266,2.99 1.345,2.846 1.423,2.702 1.472,2.539 1.49,2.358 l -0.719,0 C 0.75,2.531 0.673,2.666 0.537,2.763 0.402,2.859 0.223,2.907 0,2.907 -0.137,2.907 -0.261,2.882 -0.371,2.831 -0.482,2.781 -0.576,2.706 -0.653,2.609 -0.731,2.511 -0.791,2.391 -0.834,2.248 -0.877,2.104 -0.898,1.941 -0.898,1.758 c 0,-0.185 0.021,-0.349 0.064,-0.492 0.043,-0.144 0.104,-0.264 0.185,-0.362 0.081,-0.097 0.178,-0.171 0.291,-0.22 0.114,-0.05 0.241,-0.075 0.382,-0.075 0.353,0 0.619,0.106 0.8,0.319 l 0,0.385 -0.728,0 0,0.55 1.444,0 0,-1.809 -0.447,0 -0.09,0.274 C 0.885,0.221 0.745,0.139 0.581,0.084 0.417,0.028 0.223,0 0,0"
             inkscape:connector-curvature="0" /></g><g
           transform="translate(137.8453,49.1722)"
           id="g206"><path
             id="path208"
             style="fill:#110f0d;fill-opacity:1;fill-rule:nonzero;stroke:none"
             d="M 0,0 -0.448,1.4 -0.881,0 0,0 Z m 1.203,-1.4 -0.752,0 -0.281,0.812 -1.215,0 -0.268,-0.812 -0.723,0 1.191,3.412 0.803,0 1.245,-3.412 z"
             inkscape:connector-curvature="0" /></g><g
           transform="translate(143.003,47.7723)"
           id="g210"><path
             id="path212"
             style="fill:#110f0d;fill-opacity:1;fill-rule:nonzero;stroke:none"
             d="m 0,0 -0.654,0 0,2.695 L -1.466,0 l -0.662,0 -0.83,2.695 0,-2.695 -0.66,0 0,3.412 1.044,0 0.771,-2.579 0.764,2.579 L 0,3.412 0,0 Z"
             inkscape:connector-curvature="0" /></g><g
           transform="translate(146.3221,47.7723)"
           id="g214"><path
             id="path216"
             style="fill:#110f0d;fill-opacity:1;fill-rule:nonzero;stroke:none"
             d="m 0,0 -2.627,0 0,3.412 2.549,0 0,-0.606 -1.824,0 0,-0.764 1.702,0 0,-0.612 -1.702,0 0,-0.818 L 0,0.612 0,0 Z"
             inkscape:connector-curvature="0" /></g><g
           transform="translate(150.3493,49.5005)"
           id="g218"><path
             id="path220"
             style="fill:#110f0d;fill-opacity:1;fill-rule:nonzero;stroke:none"
             d="M 0,0 -0.547,1.711 -1.076,0 0,0 Z m 1.47,-1.711 -0.919,0 -0.343,0.992 -1.485,0 -0.328,-0.992 -0.883,0 1.456,4.17 0.981,0 1.521,-4.17 z"
             inkscape:connector-curvature="0" /></g><g
           transform="translate(178.076,48.5009)"
           id="g222"><path
             id="path224"
             style="fill:#110f0d;fill-opacity:1;fill-rule:nonzero;stroke:none"
             d="M 0,0 0.704,0 C 0.94,0 1.117,0.042 1.235,0.128 1.353,0.213 1.411,0.349 1.411,0.536 1.411,0.631 1.4,0.712 1.376,0.779 1.351,0.846 1.309,0.9 1.251,0.943 1.193,0.986 1.116,1.016 1.021,1.036 0.927,1.056 0.809,1.065 0.667,1.065 L 0,1.065 0,0 Z m 0,1.784 0.696,0 c 0.207,0 0.359,0.036 0.455,0.107 0.096,0.072 0.144,0.198 0.144,0.378 0,0.161 -0.047,0.28 -0.14,0.359 C 1.061,2.708 0.896,2.747 0.661,2.747 L 0,2.747 0,1.784 Z M 2.324,0.522 C 2.324,0.13 2.195,-0.173 1.939,-0.388 1.682,-0.604 1.29,-0.711 0.763,-0.711 l -1.643,0 0,4.169 1.62,0 C 0.962,3.458 1.161,3.434 1.339,3.385 1.516,3.337 1.667,3.266 1.791,3.174 1.916,3.081 2.01,2.97 2.076,2.838 2.141,2.707 2.174,2.56 2.174,2.397 2.174,1.971 1.973,1.669 1.569,1.492 1.824,1.421 2.014,1.301 2.138,1.131 2.262,0.961 2.324,0.757 2.324,0.522"
             inkscape:connector-curvature="0" /></g><g
           transform="translate(162.5544,47.7186)"
           id="g226"><path
             id="path228"
             style="fill:#110f0d;fill-opacity:1;fill-rule:nonzero;stroke:none"
             d="m 0,0 c -0.247,0 -0.471,0.04 -0.673,0.121 -0.202,0.081 -0.375,0.196 -0.519,0.346 -0.145,0.15 -0.256,0.334 -0.334,0.552 -0.079,0.218 -0.118,0.464 -0.118,0.739 0,0.263 0.036,0.502 0.108,0.719 0.073,0.217 0.18,0.403 0.32,0.559 0.14,0.155 0.312,0.275 0.515,0.361 0.203,0.085 0.434,0.128 0.696,0.128 0.21,0 0.404,-0.027 0.58,-0.081 C 0.751,3.391 0.903,3.313 1.033,3.213 1.162,3.112 1.266,2.99 1.345,2.846 1.423,2.702 1.472,2.539 1.49,2.358 l -0.719,0 C 0.75,2.531 0.673,2.666 0.537,2.763 0.402,2.859 0.223,2.907 0,2.907 -0.137,2.907 -0.261,2.882 -0.371,2.831 -0.482,2.781 -0.576,2.706 -0.653,2.609 -0.731,2.511 -0.791,2.391 -0.834,2.248 -0.877,2.104 -0.898,1.941 -0.898,1.758 c 0,-0.185 0.021,-0.349 0.064,-0.492 0.043,-0.144 0.104,-0.264 0.185,-0.362 0.081,-0.097 0.178,-0.171 0.291,-0.22 0.114,-0.05 0.241,-0.075 0.382,-0.075 0.353,0 0.619,0.106 0.8,0.319 l 0,0.385 -0.728,0 0,0.55 1.444,0 0,-1.809 -0.447,0 -0.09,0.274 C 0.885,0.221 0.745,0.139 0.581,0.084 0.417,0.028 0.223,0 0,0"
             inkscape:connector-curvature="0" /></g><g
           transform="translate(166.4287,49.1722)"
           id="g230"><path
             id="path232"
             style="fill:#110f0d;fill-opacity:1;fill-rule:nonzero;stroke:none"
             d="M 0,0 -0.448,1.4 -0.881,0 0,0 Z m 1.203,-1.4 -0.752,0 -0.281,0.812 -1.215,0 -0.268,-0.812 -0.723,0 1.191,3.412 0.803,0 1.245,-3.412 z"
             inkscape:connector-curvature="0" /></g><g
           transform="translate(171.5864,47.7723)"
           id="g234"><path
             id="path236"
             style="fill:#110f0d;fill-opacity:1;fill-rule:nonzero;stroke:none"
             d="m 0,0 -0.654,0 0,2.695 L -1.466,0 l -0.662,0 -0.83,2.695 0,-2.695 -0.66,0 0,3.412 1.044,0 0.771,-2.579 0.764,2.579 L 0,3.412 0,0 Z"
             inkscape:connector-curvature="0" /></g><g
           transform="translate(174.9055,47.7723)"
           id="g238"><path
             id="path240"
             style="fill:#110f0d;fill-opacity:1;fill-rule:nonzero;stroke:none"
             d="m 0,0 -2.627,0 0,3.412 2.549,0 0,-0.606 -1.824,0 0,-0.764 1.702,0 0,-0.612 -1.702,0 0,-0.818 L 0,0.612 0,0 Z"
             inkscape:connector-curvature="0" /></g><g
           transform="translate(196.2959,50.5601)"
           id="g242"><path
             id="path244"
             style="fill:#110f0d;fill-opacity:1;fill-rule:nonzero;stroke:none"
             d="m 0,0 -1.009,0 0,-2.788 -0.719,0 0,2.788 -1.003,0 0,0.624 L 0,0.624 0,0 Z"
             inkscape:connector-curvature="0" /></g><path
           id="path246"
           style="fill:#110f0d;fill-opacity:1;fill-rule:nonzero;stroke:none"
           d="m 197.489,47.772 -0.722,0 0,3.412 0.722,0 0,-3.412 z"
           inkscape:connector-curvature="0" /><g
           transform="translate(201.8237,47.7723)"
           id="g248"><path
             id="path250"
             style="fill:#110f0d;fill-opacity:1;fill-rule:nonzero;stroke:none"
             d="m 0,0 -0.654,0 0,2.695 L -1.466,0 l -0.662,0 -0.83,2.695 0,-2.695 -0.66,0 0,3.412 1.044,0 0.771,-2.579 0.764,2.579 L 0,3.412 0,0 Z"
             inkscape:connector-curvature="0" /></g><g
           transform="translate(205.1428,47.7723)"
           id="g252"><path
             id="path254"
             style="fill:#110f0d;fill-opacity:1;fill-rule:nonzero;stroke:none"
             d="m 0,0 -2.627,0 0,3.412 2.549,0 0,-0.606 -1.824,0 0,-0.764 1.702,0 0,-0.612 -1.702,0 0,-0.818 L 0,0.612 0,0 Z"
             inkscape:connector-curvature="0" /></g><g
           transform="translate(19.8362,74.9109)"
           id="g256"><path
             id="path258"
             style="fill:#110f0d;fill-opacity:1;fill-rule:nonzero;stroke:none"
             d="m 0,0 10.98,2.802 0,-5.717 L 0,0 Z"
             inkscape:connector-curvature="0" /></g><g
           transform="translate(244.1749,71.9959)"
           id="g260"><path
             id="path262"
             style="fill:#110f0d;fill-opacity:1;fill-rule:nonzero;stroke:none"
             d="M 0,0 10.98,2.915 0,5.717"
             inkscape:connector-curvature="0" /></g><g
           transform="translate(576.8167,134.4249)"
           id="g280" /><g
           transform="translate(576.8167,168.2117)"
           id="g284" /><g
           transform="translate(576.8167,134.4172)"
           id="g288" /><g
           transform="translate(576.8167,96.002)"
           id="g292" /><g
           transform="translate(576.8167,92.9512)"
           id="g296" /><g
           transform="translate(320.8167,57.7704)"
           id="g300" /><g
           transform="translate(320.8167,51.6533)"
           id="g304" /><g
           transform="translate(320.8167,44.007)"
           id="g308" /><g
           transform="translate(576.8167,38.0811)"
           id="g312" /><g
           transform="translate(576.8167,121.2349)"
           id="g316" /><g
           transform="translate(321.0385,28.778)"
           id="g322" /><g
           transform="translate(563.8013,24.9218)"
           id="g326" /><g
           transform="translate(506.8185,25.0962)"
           id="g330" /><g
           transform="translate(511.5563,24.967)"
           id="g334" /><g
           transform="translate(515.1606,25.0962)"
           id="g338" /><g
           transform="translate(520.8118,31.14)"
           id="g342" /><g
           transform="translate(529.6234,24.967)"
           id="g348" /><g
           transform="translate(535.9102,24.967)"
           id="g352" /><g
           transform="translate(541.6895,31.14)"
           id="g356" /><g
           transform="translate(545.2107,25.0962)"
           id="g360" /><g
           transform="translate(550.0039,25.0962)"
           id="g364" /><g
           transform="translate(558.909,25.0962)"
           id="g368" /><g
           transform="translate(352.1203,127.3649)"
           id="g372" /><g
           transform="translate(361.8759,136.7606)"
           id="g376" /><g
           transform="translate(361.5047,131.2557)"
           id="g380" /><g
           transform="translate(353.5474,129.2421)"
           id="g384" /><g
           transform="translate(349.2813,134.415)"
           id="g388" /><g
           transform="translate(338.2798,129.2266)"
           id="g392" /><g
           transform="translate(351.0469,143.6686)"
           id="g396" /><g
           transform="translate(362.2894,154.1127)"
           id="g400" /><g
           transform="translate(356.8679,154.131)"
           id="g404" /><g
           transform="translate(348.0704,149.514)"
           id="g408" /><g
           transform="translate(341.9499,149.0676)"
           id="g412" /><g
           transform="translate(338.3524,123.9746)"
           id="g416" /><g
           transform="translate(342.9075,122.4849)"
           id="g420" /><g
           transform="translate(346.9373,122.7063)"
           id="g424" /><g
           transform="translate(349.4069,123.437)"
           id="g428" /><g
           transform="translate(353.1023,122.3367)"
           id="g432" /><g
           transform="translate(357.1376,122.7063)"
           id="g436" /><g
           transform="translate(360.7051,122.3367)"
           id="g440" /><g
           transform="translate(364.3201,122.2919)"
           id="g444" /></g></g></g></svg>