<?xml version="1.0" encoding="UTF-8" standalone="no"?>
<!-- Generator: Adobe Illustrator 13.0.0, SVG Export Plug-In . SVG Version: 6.00 Build 14948)  -->

<svg
   xmlns:ns="&amp;ns_sfw;"
   xmlns:dc="http://purl.org/dc/elements/1.1/"
   xmlns:cc="http://creativecommons.org/ns#"
   xmlns:rdf="http://www.w3.org/1999/02/22-rdf-syntax-ns#"
   xmlns:svg="http://www.w3.org/2000/svg"
   xmlns="http://www.w3.org/2000/svg"
   xmlns:sodipodi="http://sodipodi.sourceforge.net/DTD/sodipodi-0.dtd"
   xmlns:inkscape="http://www.inkscape.org/namespaces/inkscape"
   version="1.2"
   id="Layer_3"
   x="0px"
   y="0px"
   width="503.927"
   height="309.255"
   viewBox="0 0 503.92698 309.255"
   xml:space="preserve"
   inkscape:version="0.91 r13725"
   sodipodi:docname="controller.svg"><defs
     id="defs121" /><sodipodi:namedview
     pagecolor="#ffffff"
     bordercolor="#666666"
     borderopacity="1"
     objecttolerance="10"
     gridtolerance="10"
     guidetolerance="10"
     inkscape:pageopacity="0"
     inkscape:pageshadow="2"
     inkscape:window-width="690"
     inkscape:window-height="480"
     id="namedview119"
     showgrid="false"
     fit-margin-top="0"
     fit-margin-left="0"
     fit-margin-right="0"
     fit-margin-bottom="0"
     inkscape:zoom="0.48145317"
     inkscape:cx="252.01351"
     inkscape:cy="150.976"
     inkscape:window-x="0"
     inkscape:window-y="0"
     inkscape:window-maximized="0"
     inkscape:current-layer="Layer_3" /><metadata
     id="metadata55"><rdf:RDF><cc:Work
         rdf:about=""><dc:format>image/svg+xml</dc:format><dc:type
           rdf:resource="http://purl.org/dc/dcmitype/StillImage" /><dc:title></dc:title></cc:Work></rdf:RDF><ns:sfw><ns:slices /><ns:sliceSourceBounds
         x="708.486"
         y="-7652"
         width="503.928"
         height="16383"
         bottomLeftOrigin="true" /></ns:sfw></metadata><g
     id="g3"
     transform="translate(-47.081,-16.851)"><path
       id="polyline5"
       d="m 82.189,26.116 0,83.276 -3.15,0 0,1.708 4.005,0 0.854,0 0,-0.854 0,-84.13 -1.709,0 z"
       inkscape:connector-curvature="0"
       style="fill:#f4f4f4" /><path
       id="rect7"
       d="m 47.081,25.262 0,0.854 0,84.129 0,0.854 0.854,0 27.768,0 0.854,0 0,-0.854 0,-84.129 0,-0.854 -0.854,0 -27.768,0 -0.854,0 z m 1.708,1.709 26.058,0 0,82.42 -26.058,0 0,-82.42 z"
       inkscape:connector-curvature="0"
       style="fill:#f4f4f4" /><path
       id="rect9"
       d="m 269.116,25.262 0,0.854 0,84.129 0,0.854 0.854,0 280.184,0 0.854,0 0,-0.854 0,-84.129 0,-0.854 -0.854,0 -280.184,0 -0.854,0 z m 1.708,1.709 278.476,0 0,82.42 -278.476,0 0,-82.42 z"
       inkscape:connector-curvature="0"
       style="fill:#f4f4f4" /><path
       id="polyline11"
       d="m 89.532,26.116 0,83.276 -3.15,0 0,1.708 4.004,0 0.854,0 0,-0.854 0,-84.13 -1.708,0 z"
       inkscape:connector-curvature="0"
       style="fill:#f4f4f4" /><path
       id="polyline13"
       d="m 96.874,26.116 0,83.276 -3.15,0 0,1.708 4.005,0 0.854,0 0,-0.854 0,-84.13 -1.709,0 z"
       inkscape:connector-curvature="0"
       style="fill:#f4f4f4" /><path
       id="polyline15"
       d="m 104.243,26.116 0,83.276 -3.177,0 0,1.708 4.032,0 0.854,0 0,-0.854 0,-84.13 -1.709,0 z"
       inkscape:connector-curvature="0"
       style="fill:#f4f4f4" /><path
       id="polyline17"
       d="m 111.585,26.116 0,83.276 -3.177,0 0,1.708 4.032,0 0.854,0 0,-0.854 0,-84.13 -1.709,0 z"
       inkscape:connector-curvature="0"
       style="fill:#f4f4f4" /><path
       id="polyline19"
       d="m 118.928,26.116 0,83.276 -3.177,0 0,1.708 4.032,0 0.854,0 0,-0.854 0,-84.13 -1.709,0 z"
       inkscape:connector-curvature="0"
       style="fill:#f4f4f4" /><path
       id="polyline21"
       d="m 126.271,26.116 0,83.276 -3.177,0 0,1.708 4.031,0 0.855,0 0,-0.854 0,-84.13 -1.709,0 z"
       inkscape:connector-curvature="0"
       style="fill:#f4f4f4" /><path
       id="polyline23"
       d="m 133.611,26.116 0,83.276 -3.177,0 0,1.708 4.032,0 0.854,0 0,-0.854 0,-84.13 -1.709,0 z"
       inkscape:connector-curvature="0"
       style="fill:#f4f4f4" /><path
       id="polyline25"
       d="m 140.959,26.116 0,83.276 -3.177,0 0,1.708 4.032,0 0.854,0 0,-0.854 0,-84.13 -1.709,0 z"
       inkscape:connector-curvature="0"
       style="fill:#f4f4f4" /><path
       id="polyline27"
       d="m 148.298,26.116 0,83.276 -3.177,0 0,1.708 4.031,0 0.854,0 0,-0.854 0,-84.13 -1.708,0 z"
       inkscape:connector-curvature="0"
       style="fill:#f4f4f4" /><path
       id="polyline29"
       d="m 155.638,26.116 0,83.276 -3.177,0 0,1.708 4.032,0 0.854,0 0,-0.854 0,-84.13 -1.709,0 z"
       inkscape:connector-curvature="0"
       style="fill:#f4f4f4" /><path
       id="polyline31"
       d="m 162.985,26.116 0,83.276 -3.177,0 0,1.708 4.032,0 0.854,0 0,-0.854 0,-84.13 -1.709,0 z"
       inkscape:connector-curvature="0"
       style="fill:#f4f4f4" /><path
       id="polyline33"
       d="m 170.324,26.116 0,83.276 -3.178,0 0,1.708 4.032,0 0.854,0 0,-0.854 0,-84.13 -1.708,0 z"
       inkscape:connector-curvature="0"
       style="fill:#f4f4f4" /><path
       id="polyline35"
       d="m 177.663,26.116 0,83.276 -3.177,0 0,1.708 4.032,0 0.854,0 0,-0.854 0,-84.13 -1.709,0 z"
       inkscape:connector-curvature="0"
       style="fill:#f4f4f4" /><path
       id="polyline37"
       d="m 185.011,26.116 0,83.276 -3.177,0 0,1.708 4.032,0 0.854,0 0,-0.854 0,-84.13 -1.709,0 z"
       inkscape:connector-curvature="0"
       style="fill:#f4f4f4" /><path
       id="polyline39"
       d="m 192.35,26.116 0,83.276 -3.178,0 0,1.708 4.032,0 0.854,0 0,-0.854 0,-84.13 -1.708,0 z"
       inkscape:connector-curvature="0"
       style="fill:#f4f4f4" /><path
       id="polyline41"
       d="m 199.689,26.116 0,83.276 -3.177,0 0,1.708 4.032,0 0.854,0 0,-0.854 0,-84.13 -1.709,0 z"
       inkscape:connector-curvature="0"
       style="fill:#f4f4f4" /><path
       id="polyline43"
       d="m 207.037,26.116 0,83.276 -3.177,0 0,1.708 4.032,0 0.854,0 0,-0.854 0,-84.13 -1.709,0 z"
       inkscape:connector-curvature="0"
       style="fill:#f4f4f4" /><path
       id="polyline45"
       d="m 214.376,26.116 0,83.276 -3.178,0 0,1.708 4.032,0 0.855,0 0,-0.854 0,-84.13 -1.709,0 z"
       inkscape:connector-curvature="0"
       style="fill:#f4f4f4" /><path
       id="polyline47"
       d="m 221.724,26.116 0,83.276 -3.178,0 0,1.708 4.032,0 0.854,0 0,-0.854 0,-84.13 -1.708,0 z"
       inkscape:connector-curvature="0"
       style="fill:#f4f4f4" /><path
       id="polyline49"
       d="m 229.063,26.116 0,83.276 -3.177,0 0,1.708 4.032,0 0.854,0 0,-0.854 0,-84.13 -1.709,0 z"
       inkscape:connector-curvature="0"
       style="fill:#f4f4f4" /><path
       id="polyline51"
       d="m 236.402,26.116 0,83.276 -3.178,0 0,1.708 4.032,0 0.855,0 0,-0.854 0,-84.13 -1.709,0 z"
       inkscape:connector-curvature="0"
       style="fill:#f4f4f4" /><path
       id="polyline53"
       d="m 243.749,26.116 0,83.276 -3.177,0 0,1.708 4.032,0 0.854,0 0,-0.854 0,-84.13 -1.709,0 z"
       inkscape:connector-curvature="0"
       style="fill:#f4f4f4" /><path
       id="polyline55"
       d="m 251.088,26.116 0,83.276 -3.177,0 0,1.708 4.032,0 0.854,0 0,-0.854 0,-84.13 -1.709,0 z"
       inkscape:connector-curvature="0"
       style="fill:#f4f4f4" /><path
       id="polyline57"
       d="m 258.436,26.116 0,83.276 -3.177,0 0,1.708 4.032,0 0.854,0 0,-0.854 0,-84.13 -1.709,0 z"
       inkscape:connector-curvature="0"
       style="fill:#f4f4f4" /><path
       id="polyline59"
       d="m 265.775,26.116 0,83.276 -3.178,0 0,1.708 4.032,0 0.854,0 0,-0.854 0,-84.13 -1.708,0 z"
       inkscape:connector-curvature="0"
       style="fill:#f4f4f4" /><path
       id="path61"
       d="m 341.737,35.461 c -0.906,0 -1.656,0.749 -1.656,1.655 l 0,32.893 c 0,0.905 0.75,1.656 1.656,1.656 l 196.883,0 c 0.906,0 1.655,-0.75 1.655,-1.656 l 0,-32.893 c 0,-0.905 -0.749,-1.655 -1.655,-1.655 l -196.883,0 z m 0.054,1.708 196.772,0 0,32.787 -196.772,0 0,-32.787 z"
       inkscape:connector-curvature="0"
       style="fill:#f4f4f4" /><path
       id="path63"
       d="m 347.53,40.24 c -1.128,0 -2.082,0.928 -2.082,2.056 l 0,22.534 c 0,1.128 0.954,2.056 2.082,2.056 l 148.261,0 c 0.799,0 1.368,-0.527 1.708,-1.201 l 0.348,0 0,-0.855 0,-22.534 c 0,-1.128 -0.926,-2.056 -2.056,-2.056 l -148.261,0 0,0 z m 0,1.709 148.261,0 c 0.205,0 0.347,0.142 0.347,0.347 l 0,21.68 0,0.854 c 0,0.205 -0.142,0.347 -0.347,0.347 l -148.261,0 c -0.204,0 -0.373,-0.143 -0.373,-0.347 l 0,-22.534 c 0,-0.205 0.169,-0.347 0.373,-0.347 z"
       inkscape:connector-curvature="0"
       style="fill:#f4f4f4" /><path
       id="path65"
       d="m 349.794,43.043 c -0.684,0 -1.255,0.568 -1.255,1.255 l 0,18.529 c 0,0.687 0.571,1.255 1.255,1.255 l 143.988,0 c 0.686,0 1.256,-0.571 1.256,-1.255 l 0,-18.529 c 0,-0.685 -0.57,-1.255 -1.256,-1.255 l -143.988,0 0,0 z m 0.454,1.709 143.082,0 0,17.622 -143.082,0 0,-17.622 z"
       inkscape:connector-curvature="0"
       style="fill:#f4f4f4" /><path
       id="circle67"
       d="m 520.482,41.842 c -6.465,0 -11.721,5.257 -11.721,11.722 0,6.464 5.255,11.721 11.721,11.721 6.465,0 11.722,-5.257 11.722,-11.721 0,-6.465 -5.257,-11.722 -11.722,-11.722 z m 0,1.709 c 5.54,0 10.013,4.471 10.013,10.013 0,5.541 -4.473,10.012 -10.013,10.012 -5.541,0 -10.012,-4.471 -10.012,-10.012 10e-4,-5.542 4.471,-10.013 10.012,-10.013 z"
       inkscape:connector-curvature="0"
       style="fill:#f4f4f4" /></g><path
     id="path69"
     d="m 5.206,97.425 c -0.906,0 -1.682,0.748 -1.682,1.655 l 0,208.519 c 0,0.906 0.774,1.656 1.682,1.656 l 493.505,0 c 0.906,0 1.656,-0.751 1.656,-1.656 l 0,-208.518 c 0,-0.905 -0.752,-1.655 -1.656,-1.655 l -493.505,0 z m 0.026,1.709 493.429,0 0,208.415 -493.429,0 0,-208.415 z"
     inkscape:connector-curvature="0"
     style="fill:#f4f4f4" /><path
     id="path71"
     d="m 5.206,0.001 c -0.907,0 -1.682,0.749 -1.682,1.655 l 0,7.716 1.708,0 0,-7.663 493.429,0 0,7.45 1.708,0 0,-7.503 C 500.369,0.75 499.617,0 498.711,0 L 5.198,0 5.206,0.001 Z"
     inkscape:connector-curvature="0"
     style="fill:#f4f4f4" /><path
     id="path73"
     d="m 28.273,150.209 c -1.795,0 -3.284,1.487 -3.284,3.284 l 0,15.993 c 0,1.796 1.487,3.284 3.284,3.284 l 15.993,0 c 1.796,0 3.258,-1.487 3.258,-3.284 l 0,-0.854 0,-15.139 c 0,-1.795 -1.462,-3.284 -3.258,-3.284 l -15.993,0 z m 0,1.708 15.993,0 c 0.874,0 1.549,0.704 1.549,1.576 l 0,15.993 c 0,0.872 -0.677,1.575 -1.549,1.575 l -15.993,0 c -0.872,0 -1.575,-0.704 -1.575,-1.575 l 0,-15.993 c 0,-0.874 0.702,-1.576 1.575,-1.576 z"
     inkscape:connector-curvature="0"
     style="fill:#f4f4f4" /><path
     id="path75"
     d="m 52.143,150.209 c -1.795,0 -3.284,1.487 -3.284,3.284 l 0,15.993 c 0,1.796 1.487,3.284 3.284,3.284 l 15.993,0 c 1.796,0 3.284,-1.487 3.284,-3.284 l 0,-15.993 c 0,-1.796 -1.489,-3.284 -3.284,-3.284 l -15.993,0 z m 0,1.708 15.993,0 c 0.874,0 1.575,0.704 1.575,1.576 l 0,15.993 c 0,0.872 -0.702,1.575 -1.575,1.575 l -15.993,0 c -0.873,0 -1.575,-0.704 -1.575,-1.575 l 0,-15.993 c -10e-4,-0.874 0.701,-1.576 1.575,-1.576 z"
     inkscape:connector-curvature="0"
     style="fill:#f4f4f4" /><path
     id="path77"
     d="m 76.012,150.209 c -1.794,0 -3.284,1.487 -3.284,3.284 l 0,15.993 c 0,1.795 1.487,3.284 3.284,3.284 l 15.993,0 c 1.795,0 3.284,-1.487 3.284,-3.284 l 0,-15.993 c 0,-1.795 -1.488,-3.284 -3.284,-3.284 l -15.993,0 z m 0,1.708 15.993,0 c 0.873,0 1.575,0.704 1.575,1.576 l 0,15.993 c 0,0.872 -0.703,1.575 -1.575,1.575 l -15.993,0 c -0.873,0 -1.575,-0.704 -1.575,-1.575 l 0,-15.993 c 0,-0.874 0.703,-1.576 1.575,-1.576 z"
     inkscape:connector-curvature="0"
     style="fill:#f4f4f4" /><path
     id="path79"
     d="m 99.884,150.209 c -1.794,0 -3.256,1.487 -3.256,3.284 l 0,15.993 c 0,1.796 1.46,3.284 3.256,3.284 l 15.994,0 c 1.796,0 3.284,-1.487 3.284,-3.284 l 0,-15.993 c 0,-1.796 -1.489,-3.284 -3.284,-3.284 l -15.994,0 z m 0,1.708 15.994,0 c 0.874,0 1.575,0.704 1.575,1.576 l 0,15.993 c 0,0.872 -0.702,1.575 -1.575,1.575 l -15.994,0 c -0.872,0 -1.548,-0.704 -1.548,-1.575 l 0,-15.993 c 0,-0.874 0.674,-1.576 1.548,-1.576 z"
     inkscape:connector-curvature="0"
     style="fill:#f4f4f4" /><path
     id="path81"
     d="m 123.747,150.209 c -1.794,0 -3.257,1.487 -3.257,3.284 l 0,15.993 c 0,1.795 1.46,3.284 3.257,3.284 l 16.02,0 c 1.795,0 3.257,-1.487 3.257,-3.284 l 0,-15.993 c 0,-1.795 -1.462,-3.284 -3.257,-3.284 l -16.02,0 z m 0,1.708 16.02,0 c 0.874,0 1.548,0.704 1.548,1.576 l 0,15.993 c 0,0.872 -0.676,1.575 -1.548,1.575 l -16.02,0 c -0.873,0 -1.548,-0.704 -1.548,-1.575 l 0,-15.993 c 0,-0.874 0.675,-1.576 1.548,-1.576 z"
     inkscape:connector-curvature="0"
     style="fill:#f4f4f4" /><path
     id="path83"
     d="m 147.618,150.209 c -1.795,0 -3.257,1.487 -3.257,3.284 l 0,15.993 c 0,1.796 1.461,3.284 3.257,3.284 l 16.02,0 c 1.796,0 3.257,-1.487 3.257,-3.284 l 0,-15.993 c 0,-1.796 -1.462,-3.284 -3.257,-3.284 l -16.02,0 z m 0,1.708 16.02,0 c 0.874,0 1.549,0.704 1.549,1.576 l 0,15.993 c 0,0.872 -0.676,1.575 -1.549,1.575 l -16.02,0 c -0.872,0 -1.548,-0.704 -1.548,-1.575 l 0,-15.993 c 0,-0.874 0.675,-1.576 1.548,-1.576 z"
     inkscape:connector-curvature="0"
     style="fill:#f4f4f4" /><path
     id="path85"
     d="m 171.516,150.209 c -1.794,0 -3.284,1.487 -3.284,3.284 l 0,15.993 c 0,1.796 1.488,3.284 3.284,3.284 l 15.993,0 c 1.795,0 3.257,-1.487 3.257,-3.284 l 0,-15.993 c 0,-1.796 -1.463,-3.284 -3.257,-3.284 l -15.993,0 z m 0,1.708 15.993,0 c 0.872,0 1.548,0.704 1.548,1.576 l 0,15.993 c 0,0.872 -0.678,1.575 -1.548,1.575 l -15.993,0 c -0.871,0 -1.575,-0.704 -1.575,-1.575 l 0,-15.993 c -0.001,-0.874 0.703,-1.576 1.575,-1.576 z"
     inkscape:connector-curvature="0"
     style="fill:#f4f4f4" /><path
     id="path87"
     d="m 195.387,150.209 c -1.794,0 -3.284,1.487 -3.284,3.284 l 0,15.993 c 0,1.796 1.489,3.284 3.284,3.284 l 15.993,0 c 1.795,0 3.284,-1.487 3.284,-3.284 l 0,-15.993 c 0,-1.796 -1.49,-3.284 -3.284,-3.284 l -15.993,0 z m 0,1.708 15.993,0 c 0.871,0 1.576,0.704 1.576,1.576 l 0,15.993 c 0,0.872 -0.705,1.575 -1.576,1.575 l -15.993,0 c -0.871,0 -1.576,-0.704 -1.576,-1.575 l 0,-15.993 c 0,-0.874 0.704,-1.576 1.576,-1.576 z"
     inkscape:connector-curvature="0"
     style="fill:#f4f4f4" /><path
     id="path89"
     d="m 219.25,150.209 c -1.794,0 -3.257,1.487 -3.257,3.284 l 0,15.993 c 0,1.795 1.46,3.284 3.257,3.284 l 15.993,0 c 1.797,0 3.284,-1.487 3.284,-3.284 l 0,-15.993 c 0,-1.796 -1.488,-3.284 -3.284,-3.284 l -15.993,0 z m 0,1.708 15.993,0 c 0.874,0 1.575,0.704 1.575,1.576 l 0,15.993 c 0,0.872 -0.702,1.575 -1.575,1.575 l -15.993,0 c -0.873,0 -1.548,-0.704 -1.548,-1.575 l 0,-15.993 c -0.001,-0.874 0.675,-1.576 1.548,-1.576 z"
     inkscape:connector-curvature="0"
     style="fill:#f4f4f4" /><path
     id="path91"
     d="m 243.121,150.209 c -1.795,0 -3.258,1.487 -3.258,3.284 l 0,15.993 c 0,1.795 1.461,3.284 3.258,3.284 l 15.993,0 c 1.796,0 3.284,-1.487 3.284,-3.284 l 0,-15.993 c 0,-1.795 -1.488,-3.284 -3.284,-3.284 l -15.993,0 z m 0,1.708 15.993,0 c 0.872,0 1.575,0.704 1.575,1.576 l 0,15.993 c 0,0.872 -0.704,1.575 -1.575,1.575 l -15.993,0 c -0.873,0 -1.549,-0.704 -1.549,-1.575 l 0,-15.993 c 0,-0.874 0.676,-1.576 1.549,-1.576 z"
     inkscape:connector-curvature="0"
     style="fill:#f4f4f4" /><path
     id="path93"
     d="m 407.674,115.872 c -1.795,0 -3.283,1.462 -3.283,3.257 l 0,16.018 c 0,1.796 1.488,3.257 3.283,3.257 l 15.993,0 c 1.794,0 3.284,-1.46 3.284,-3.257 l 0,-16.018 c 0,-1.796 -1.489,-3.257 -3.284,-3.257 l -15.993,0 z m 0,1.708 15.993,0 c 0.871,0 1.575,0.677 1.575,1.549 l 0,16.018 c 0,0.874 -0.704,1.549 -1.575,1.549 l -15.993,0 c -0.875,0 -1.575,-0.675 -1.575,-1.549 l 0,-16.018 c 0,-0.874 0.702,-1.549 1.575,-1.549 z"
     inkscape:connector-curvature="0"
     style="fill:#f4f4f4" /><path
     id="path95"
     d="m 431.537,115.872 c -1.796,0 -3.258,1.461 -3.258,3.257 l 0,16.018 c 0,1.796 1.462,3.257 3.258,3.257 l 15.992,0 c 1.796,0 3.284,-1.461 3.284,-3.257 l 0,-16.018 c 0,-1.795 -1.486,-3.257 -3.284,-3.257 l -15.992,0 z m 0,1.708 15.992,0 c 0.874,0 1.576,0.676 1.576,1.549 l 0,16.018 c 0,0.874 -0.702,1.549 -1.576,1.549 l -15.992,0 c -0.873,0 -1.549,-0.675 -1.549,-1.549 l 0,-16.018 c 0,-0.873 0.678,-1.549 1.549,-1.549 z"
     inkscape:connector-curvature="0"
     style="fill:#f4f4f4" /><path
     id="path97"
     d="m 455.408,115.872 c -1.794,0 -3.258,1.461 -3.258,3.257 l 0,16.018 c 0,1.796 1.464,3.257 3.258,3.257 l 16.02,0 c 1.794,0 3.258,-1.46 3.258,-3.257 l 0,-16.018 c 0,-1.796 -1.463,-3.257 -3.258,-3.257 l -16.02,0 z m 0,1.708 16.02,0 c 0.871,0 1.549,0.677 1.549,1.549 l 0,16.018 c 0,0.874 -0.678,1.549 -1.549,1.549 l -16.02,0 c -0.872,0 -1.549,-0.675 -1.549,-1.549 l 0,-16.018 c 0,-0.873 0.679,-1.549 1.549,-1.549 z"
     inkscape:connector-curvature="0"
     style="fill:#f4f4f4" /><path
     id="path99"
     d="m 266.992,150.209 c -1.796,0 -3.257,1.487 -3.257,3.284 l 0,15.993 c 0,1.796 1.46,3.284 3.257,3.284 l 16.021,0 c 1.793,0 3.256,-1.487 3.256,-3.284 l 0,-15.993 c 0,-1.796 -1.463,-3.284 -3.256,-3.284 l -16.021,0 z m 0,1.708 16.021,0 c 0.872,0 1.548,0.704 1.548,1.576 l 0,15.993 c 0,0.871 -0.68,1.575 -1.548,1.575 l -16.021,0 c -0.872,0 -1.549,-0.704 -1.549,-1.575 l 0,-15.993 c 0,-0.872 0.677,-1.576 1.549,-1.576 z"
     inkscape:connector-curvature="0"
     style="fill:#f4f4f4" /><path
     id="path101"
     d="m 290.863,150.209 c -1.794,0 -3.258,1.487 -3.258,3.284 l 0,15.993 c 0,1.795 1.46,3.284 3.258,3.284 l 16.02,0 c 1.796,0 3.258,-1.487 3.258,-3.284 l 0,-15.993 c 0,-1.795 -1.462,-3.284 -3.258,-3.284 l -16.02,0 z m 0,1.708 16.02,0 c 0.873,0 1.549,0.704 1.549,1.576 l 0,15.993 c 0,0.872 -0.678,1.575 -1.549,1.575 l -16.02,0 c -0.873,0 -1.548,-0.704 -1.548,-1.575 l 0,-15.993 c 0,-0.874 0.675,-1.576 1.548,-1.576 z"
     inkscape:connector-curvature="0"
     style="fill:#f4f4f4" /><path
     id="path103"
     d="m 314.76,150.209 c -1.794,0 -3.284,1.487 -3.284,3.284 l 0,15.993 c 0,1.796 1.488,3.284 3.284,3.284 l 15.992,0 c 1.798,0 3.258,-1.487 3.258,-3.284 l 0,-15.993 c 0,-1.795 -1.462,-3.284 -3.258,-3.284 l -15.992,0 z m 0,1.708 15.992,0 c 0.875,0 1.549,0.704 1.549,1.576 l 0,15.993 c 0,0.872 -0.675,1.575 -1.549,1.575 l -15.992,0 c -0.871,0 -1.576,-0.704 -1.576,-1.575 l 0,-15.993 c 0,-0.872 0.703,-1.576 1.576,-1.576 z"
     inkscape:connector-curvature="0"
     style="fill:#f4f4f4" /><path
     id="path105"
     d="m 338.622,150.209 c -1.794,0 -3.284,1.487 -3.284,3.284 l 0,15.993 c 0,1.795 1.489,3.284 3.284,3.284 l 15.993,0 c 1.797,0 3.284,-1.487 3.284,-3.284 l 0,-15.993 c 0,-1.795 -1.488,-3.284 -3.284,-3.284 l -15.993,0 z m 0,1.708 15.993,0 c 0.874,0 1.575,0.704 1.575,1.576 l 0,15.993 c 0,0.872 -0.703,1.575 -1.575,1.575 l -15.993,0 c -0.871,0 -1.575,-0.704 -1.575,-1.575 l 0,-15.993 c 0,-0.874 0.702,-1.576 1.575,-1.576 z"
     inkscape:connector-curvature="0"
     style="fill:#f4f4f4" /><path
     id="path107"
     d="m 362.495,150.209 c -1.796,0 -3.258,1.487 -3.258,3.284 l 0,15.993 c 0,1.796 1.461,3.284 3.258,3.284 l 15.993,0 c 1.793,0 3.283,-1.487 3.283,-3.284 l 0,-15.993 c 0,-1.796 -1.49,-3.284 -3.283,-3.284 l -15.993,0 z m 0,1.708 15.993,0 c 0.871,0 1.575,0.704 1.575,1.576 l 0,15.993 c 0,0.871 -0.706,1.575 -1.575,1.575 l -15.993,0 c -0.873,0 -1.549,-0.704 -1.549,-1.575 l 0,-15.993 c 0,-0.872 0.676,-1.576 1.549,-1.576 z"
     inkscape:connector-curvature="0"
     style="fill:#f4f4f4" /><path
     id="path109"
     d="m 40.475,198.003 c -1.795,0 -3.284,1.463 -3.284,3.258 l 0,15.992 c 0,1.797 1.489,3.284 3.284,3.284 l 21.227,0 c 1.795,0 3.284,-1.487 3.284,-3.284 l 0,-0.854 0,-15.138 c 0,-1.795 -1.487,-3.258 -3.284,-3.258 l -21.227,0 z m 0,1.709 21.227,0 c 0.873,0 1.575,0.678 1.575,1.549 l 0,15.992 c 0,0.874 -0.702,1.576 -1.575,1.576 l -21.227,0 c -0.873,0 -1.575,-0.701 -1.575,-1.576 l 0,-15.992 c -10e-4,-0.873 0.704,-1.549 1.575,-1.549 z"
     inkscape:connector-curvature="0"
     style="fill:#f4f4f4" /><path
     id="path111"
     d="m 69.578,198.003 c -1.796,0 -3.257,1.461 -3.257,3.258 l 0,15.992 c 0,1.796 1.46,3.284 3.257,3.284 l 15.993,0 c 1.795,0 3.285,-1.487 3.285,-3.284 l 0,-15.992 c 0,-1.797 -1.489,-3.258 -3.285,-3.258 l -15.993,0 z m 0,1.709 15.993,0 c 0.874,0 1.576,0.676 1.576,1.549 l 0,15.992 c 0,0.873 -0.702,1.576 -1.576,1.576 l -15.993,0 c -0.873,0 -1.549,-0.704 -1.549,-1.576 l 0,-15.992 c 0,-0.875 0.676,-1.549 1.549,-1.549 z"
     inkscape:connector-curvature="0"
     style="fill:#f4f4f4" /><path
     id="path113"
     d="m 93.451,198.003 c -1.795,0 -3.258,1.461 -3.258,3.258 l 0,15.992 c 0,1.795 1.461,3.284 3.258,3.284 l 16.02,0 c 1.795,0 3.257,-1.487 3.257,-3.284 l 0,-15.992 c 0,-1.795 -1.461,-3.258 -3.257,-3.258 l -16.02,0 z m 0,1.709 16.02,0 c 0.873,0 1.548,0.676 1.548,1.549 l 0,15.992 c 0,0.873 -0.676,1.576 -1.548,1.576 l -16.02,0 c -0.873,0 -1.549,-0.704 -1.549,-1.576 l 0,-15.992 c 0,-0.875 0.677,-1.549 1.549,-1.549 z"
     inkscape:connector-curvature="0"
     style="fill:#f4f4f4" /><path
     id="path115"
     d="m 117.314,198.003 c -1.795,0 -3.257,1.461 -3.257,3.258 l 0,15.992 c 0,1.796 1.461,3.284 3.257,3.284 l 16.02,0 c 1.796,0 3.258,-1.487 3.258,-3.284 l 0,-15.992 c 0,-1.797 -1.462,-3.258 -3.258,-3.258 l -16.02,0 z m 0,1.709 16.02,0 c 0.874,0 1.549,0.676 1.549,1.549 l 0,15.992 c 0,0.873 -0.675,1.576 -1.549,1.576 l -16.02,0 c -0.873,0 -1.549,-0.704 -1.549,-1.576 l 0,-15.992 c 0,-0.875 0.675,-1.549 1.549,-1.549 z"
     inkscape:connector-curvature="0"
     style="fill:#f4f4f4" /><path
     id="path117"
     d="m 141.211,198.003 c -1.794,0 -3.284,1.461 -3.284,3.258 l 0,15.992 c 0,1.795 1.488,3.284 3.284,3.284 l 15.993,0 c 1.795,0 3.257,-1.487 3.257,-3.284 l 0,-15.992 c 0,-1.795 -1.461,-3.258 -3.257,-3.258 l -15.993,0 z m 0,1.709 15.993,0 c 0.873,0 1.548,0.676 1.548,1.549 l 0,15.992 c 0,0.873 -0.676,1.576 -1.548,1.576 l -15.993,0 c -0.873,0 -1.575,-0.704 -1.575,-1.576 l 0,-15.992 c -0.001,-0.875 0.702,-1.549 1.575,-1.549 z"
     inkscape:connector-curvature="0"
     style="fill:#f4f4f4" /><path
     id="path119"
     d="m 165.082,198.003 c -1.796,0 -3.284,1.461 -3.284,3.258 l 0,15.992 c 0,1.796 1.487,3.284 3.284,3.284 l 15.993,0 c 1.796,0 3.285,-1.487 3.285,-3.284 l 0,-15.992 c 0,-1.797 -1.488,-3.258 -3.285,-3.258 l -15.993,0 z m 0,1.709 15.993,0 c 0.874,0 1.576,0.676 1.576,1.549 l 0,15.992 c 0,0.873 -0.702,1.576 -1.576,1.576 l -15.993,0 c -0.873,0 -1.575,-0.704 -1.575,-1.576 l 0,-15.992 c 0,-0.875 0.702,-1.549 1.575,-1.549 z"
     inkscape:connector-curvature="0"
     style="fill:#f4f4f4" /><path
     id="path121"
     d="m 188.953,198.003 c -1.794,0 -3.284,1.461 -3.284,3.258 l 0,15.992 c 0,1.797 1.489,3.284 3.284,3.284 l 15.993,0 c 1.796,0 3.284,-1.487 3.284,-3.284 l 0,-15.992 c 0,-1.797 -1.488,-3.258 -3.284,-3.258 l -15.993,0 z m 0,1.709 15.993,0 c 0.874,0 1.575,0.676 1.575,1.549 l 0,15.992 c 0,0.873 -0.702,1.576 -1.575,1.576 l -15.993,0 c -0.871,0 -1.575,-0.704 -1.575,-1.576 l 0,-15.992 c 0,-0.875 0.704,-1.549 1.575,-1.549 z"
     inkscape:connector-curvature="0"
     style="fill:#f4f4f4" /><path
     id="path123"
     d="m 212.816,198.003 c -1.794,0 -3.257,1.461 -3.257,3.258 l 0,15.992 c 0,1.796 1.462,3.284 3.257,3.284 l 15.993,0 c 1.794,0 3.284,-1.487 3.284,-3.284 l 0,-15.992 c 0,-1.797 -1.489,-3.258 -3.284,-3.258 l -15.993,0 z m 0,1.709 15.993,0 c 0.871,0 1.576,0.676 1.576,1.549 l 0,15.992 c 0,0.873 -0.705,1.576 -1.576,1.576 l -15.993,0 c -0.871,0 -1.549,-0.704 -1.549,-1.576 l 0,-15.992 c 0,-0.875 0.677,-1.549 1.549,-1.549 z"
     inkscape:connector-curvature="0"
     style="fill:#f4f4f4" /><path
     id="path125"
     d="m 236.688,198.003 c -1.795,0 -3.258,1.461 -3.258,3.258 l 0,15.992 c 0,1.795 1.461,3.284 3.258,3.284 l 16.019,0 c 1.796,0 3.258,-1.487 3.258,-3.284 l 0,-15.992 c 0,-1.795 -1.461,-3.258 -3.258,-3.258 l -16.019,0 z m 0,1.709 16.019,0 c 0.875,0 1.549,0.676 1.549,1.549 l 0,15.992 c 0,0.873 -0.676,1.576 -1.549,1.576 l -16.019,0 c -0.873,0 -1.549,-0.704 -1.549,-1.576 l 0,-15.992 c 0,-0.875 0.676,-1.549 1.549,-1.549 z"
     inkscape:connector-curvature="0"
     style="fill:#f4f4f4" /><path
     id="path127"
     d="m 260.559,198.003 c -1.796,0 -3.257,1.461 -3.257,3.258 l 0,15.992 c 0,1.795 1.461,3.284 3.257,3.284 l 16.02,0 c 1.795,0 3.256,-1.487 3.256,-3.284 l 0,-15.992 c 0,-1.795 -1.46,-3.258 -3.256,-3.258 l -16.02,0 z m 0,1.709 16.02,0 c 0.874,0 1.548,0.676 1.548,1.549 l 0,15.992 c 0,0.873 -0.676,1.576 -1.548,1.576 l -16.02,0 c -0.871,0 -1.549,-0.704 -1.549,-1.576 l 0,-15.992 c 0,-0.875 0.678,-1.549 1.549,-1.549 z"
     inkscape:connector-curvature="0"
     style="fill:#f4f4f4" /><path
     id="path129"
     d="m 284.455,198.003 c -1.795,0 -3.283,1.461 -3.283,3.258 l 0,15.992 c 0,1.796 1.488,3.284 3.283,3.284 l 15.994,0 c 1.795,0 3.257,-1.487 3.257,-3.284 l 0,-15.992 c 0,-1.797 -1.462,-3.258 -3.257,-3.258 l -15.994,0 z m 0,1.709 15.994,0 c 0.872,0 1.548,0.676 1.548,1.549 l 0,15.992 c 0,0.872 -0.678,1.576 -1.548,1.576 l -15.994,0 c -0.873,0 -1.574,-0.704 -1.574,-1.576 l 0,-15.992 c 0,-0.875 0.701,-1.549 1.574,-1.549 z"
     inkscape:connector-curvature="0"
     style="fill:#f4f4f4" /><path
     id="path131"
     d="m 308.326,198.003 c -1.794,0 -3.284,1.461 -3.284,3.258 l 0,15.992 c 0,1.795 1.489,3.284 3.284,3.284 l 15.993,0 c 1.796,0 3.284,-1.487 3.284,-3.284 l 0,-15.992 c 0,-1.795 -1.488,-3.258 -3.284,-3.258 l -15.993,0 z m 0,1.709 15.993,0 c 0.873,0 1.575,0.676 1.575,1.549 l 0,15.992 c 0,0.873 -0.702,1.576 -1.575,1.576 l -15.993,0 c -0.872,0 -1.574,-0.704 -1.574,-1.576 l 0,-15.992 c 0,-0.875 0.702,-1.549 1.574,-1.549 z"
     inkscape:connector-curvature="0"
     style="fill:#f4f4f4" /><path
     id="path133"
     d="m 332.19,198.003 c -1.794,0 -3.258,1.461 -3.258,3.258 l 0,15.992 c 0,1.796 1.462,3.284 3.258,3.284 l 15.993,0 c 1.796,0 3.284,-1.487 3.284,-3.284 l 0,-15.992 c 0,-1.795 -1.488,-3.258 -3.284,-3.258 l -15.993,0 z m 0,1.709 15.993,0 c 0.872,0 1.575,0.676 1.575,1.549 l 0,15.992 c 0,0.873 -0.703,1.576 -1.575,1.576 l -15.993,0 c -0.873,0 -1.549,-0.704 -1.549,-1.576 l 0,-15.992 c 0,-0.875 0.675,-1.549 1.549,-1.549 z"
     inkscape:connector-curvature="0"
     style="fill:#f4f4f4" /><path
     id="path135"
     d="m 356.06,198.003 c -1.793,0 -3.257,1.461 -3.257,3.258 l 0,15.992 c 0,1.795 1.462,3.284 3.257,3.284 l 16.021,0 c 1.796,0 3.258,-1.487 3.258,-3.284 l 0,-15.992 c 0,-1.795 -1.462,-3.258 -3.258,-3.258 l -16.021,0 z m 0,1.709 16.021,0 c 0.872,0 1.548,0.676 1.548,1.549 l 0,15.992 c 0,0.873 -0.676,1.576 -1.548,1.576 l -16.021,0 c -0.872,0 -1.548,-0.704 -1.548,-1.576 l 0,-15.992 c 0,-0.875 0.676,-1.549 1.548,-1.549 z"
     inkscape:connector-curvature="0"
     style="fill:#f4f4f4" /><path
     id="path137"
     d="m 45.709,221.874 c -1.796,0 -3.284,1.487 -3.284,3.284 l 0,15.992 c 0,1.796 1.488,3.285 3.284,3.285 l 27.26,0 c 1.795,0 3.284,-1.488 3.284,-3.285 l 0,-15.992 c 0,-1.796 -1.487,-3.284 -3.284,-3.284 l -27.26,0 z m 0,1.708 27.26,0 c 0.872,0 1.575,0.704 1.575,1.576 l 0,15.992 c 0,0.874 -0.703,1.577 -1.575,1.577 l -27.26,0 c -0.873,0 -1.576,-0.704 -1.576,-1.577 l 0,-15.992 c 0,-0.872 0.704,-1.576 1.576,-1.576 z"
     inkscape:connector-curvature="0"
     style="fill:#f4f4f4" /><path
     id="path139"
     d="m 80.844,221.874 c -1.795,0 -3.257,1.487 -3.257,3.284 l 0,15.992 c 0,1.796 1.461,3.285 3.257,3.285 l 16.02,0 c 1.796,0 3.257,-1.488 3.257,-3.285 l 0,-15.992 c 0,-1.796 -1.46,-3.284 -3.257,-3.284 l -16.02,0 z m 0,1.708 16.02,0 c 0.872,0 1.548,0.704 1.548,1.576 l 0,15.992 c 0,0.874 -0.675,1.577 -1.548,1.577 l -16.02,0 c -0.873,0 -1.548,-0.704 -1.548,-1.577 l 0,-15.992 c 0,-0.872 0.677,-1.576 1.548,-1.576 z"
     inkscape:connector-curvature="0"
     style="fill:#f4f4f4" /><path
     id="path141"
     d="m 104.712,221.874 c -1.796,0 -3.257,1.487 -3.257,3.284 l 0,15.992 c 0,1.796 1.46,3.285 3.257,3.285 l 16.019,0 c 1.796,0 3.258,-1.488 3.258,-3.285 l 0,-15.992 c 0,-1.796 -1.461,-3.284 -3.258,-3.284 l -16.019,0 z m 0,1.708 16.019,0 c 0.873,0 1.548,0.704 1.548,1.576 l 0,15.992 c 0,0.874 -0.675,1.577 -1.548,1.577 l -16.019,0 c -0.873,0 -1.549,-0.704 -1.549,-1.577 l 0,-15.992 c 0,-0.872 0.677,-1.576 1.549,-1.576 z"
     inkscape:connector-curvature="0"
     style="fill:#f4f4f4" /><path
     id="path143"
     d="m 128.609,221.874 c -1.796,0 -3.284,1.489 -3.284,3.284 l 0,15.992 c 0,1.796 1.488,3.285 3.284,3.285 l 15.993,0 c 1.796,0 3.257,-1.488 3.257,-3.285 l 0,-15.992 c 0,-1.796 -1.46,-3.284 -3.257,-3.284 l -15.993,0 z m 0,1.708 15.993,0 c 0.873,0 1.549,0.704 1.549,1.576 l 0,15.992 c 0,0.874 -0.675,1.577 -1.549,1.577 l -15.993,0 c -0.874,0 -1.575,-0.704 -1.575,-1.577 l 0,-15.992 c 0,-0.873 0.701,-1.576 1.575,-1.576 z"
     inkscape:connector-curvature="0"
     style="fill:#f4f4f4" /><path
     id="path145"
     d="m 152.48,221.874 c -1.796,0 -3.284,1.489 -3.284,3.284 l 0,15.992 c 0,1.796 1.487,3.285 3.284,3.285 l 15.993,0 c 1.796,0 3.284,-1.488 3.284,-3.285 l 0,-15.992 c 0,-1.796 -1.487,-3.284 -3.284,-3.284 l -15.993,0 z m 0,1.708 15.993,0 c 0.873,0 1.575,0.704 1.575,1.576 l 0,15.992 c 0,0.874 -0.702,1.577 -1.575,1.577 l -15.993,0 c -0.872,0 -1.575,-0.704 -1.575,-1.577 l 0,-15.992 c -0.001,-0.873 0.702,-1.576 1.575,-1.576 z"
     inkscape:connector-curvature="0"
     style="fill:#f4f4f4" /><path
     id="path147"
     d="m 176.351,221.874 c -1.796,0 -3.284,1.489 -3.284,3.284 l 0,15.992 c 0,1.796 1.488,3.285 3.284,3.285 l 15.993,0 c 1.796,0 3.284,-1.488 3.284,-3.285 l 0,-15.992 c 0,-1.796 -1.488,-3.284 -3.284,-3.284 l -15.993,0 z m 0,1.708 15.993,0 c 0.873,0 1.575,0.704 1.575,1.576 l 0,15.992 c 0,0.874 -0.702,1.577 -1.575,1.577 l -15.993,0 c -0.873,0 -1.575,-0.704 -1.575,-1.577 l 0,-15.992 c 0,-0.873 0.702,-1.576 1.575,-1.576 z"
     inkscape:connector-curvature="0"
     style="fill:#f4f4f4" /><path
     id="path149"
     d="m 200.213,221.874 c -1.795,0 -3.257,1.487 -3.257,3.284 l 0,15.992 c 0,1.796 1.461,3.285 3.257,3.285 l 15.994,0 c 1.795,0 3.284,-1.488 3.284,-3.285 l 0,-15.992 c 0,-1.795 -1.488,-3.284 -3.284,-3.284 l -15.994,0 z m 0,1.708 15.994,0 c 0.872,0 1.576,0.704 1.576,1.576 l 0,15.992 c 0,0.874 -0.704,1.577 -1.576,1.577 l -15.994,0 c -0.873,0 -1.548,-0.704 -1.548,-1.577 l 0,-15.992 c 0,-0.872 0.677,-1.576 1.548,-1.576 z"
     inkscape:connector-curvature="0"
     style="fill:#f4f4f4" /><path
     id="path151"
     d="m 224.085,221.874 c -1.795,0 -3.257,1.487 -3.257,3.284 l 0,15.992 c 0,1.797 1.461,3.285 3.257,3.285 l 16.02,0 c 1.796,0 3.257,-1.488 3.257,-3.285 l 0,-15.992 c 0,-1.795 -1.46,-3.284 -3.257,-3.284 l -16.02,0 z m 0,1.708 16.02,0 c 0.873,0 1.549,0.704 1.549,1.576 l 0,15.992 c 0,0.874 -0.677,1.577 -1.549,1.577 l -16.02,0 c -0.871,0 -1.548,-0.704 -1.548,-1.577 l 0,-15.992 c 0,-0.872 0.676,-1.576 1.548,-1.576 z"
     inkscape:connector-curvature="0"
     style="fill:#f4f4f4" /><path
     id="path153"
     d="m 247.982,221.874 c -1.796,0 -3.284,1.487 -3.284,3.284 l 0,15.992 c 0,1.796 1.487,3.285 3.284,3.285 l 15.993,0 c 1.795,0 3.257,-1.488 3.257,-3.285 l 0,-15.992 c 0,-1.795 -1.46,-3.284 -3.257,-3.284 l -15.993,0 z m 0,1.708 15.993,0 c 0.872,0 1.548,0.704 1.548,1.576 l 0,15.992 c 0,0.874 -0.676,1.577 -1.548,1.577 l -15.993,0 c -0.873,0 -1.575,-0.704 -1.575,-1.577 l 0,-15.992 c 0,-0.872 0.703,-1.576 1.575,-1.576 z"
     inkscape:connector-curvature="0"
     style="fill:#f4f4f4" /><path
     id="path155"
     d="m 271.853,221.874 c -1.795,0 -3.283,1.487 -3.283,3.284 l 0,15.992 c 0,1.797 1.488,3.285 3.283,3.285 l 15.993,0 c 1.796,0 3.258,-1.488 3.258,-3.285 l 0,-15.992 c 0,-1.795 -1.46,-3.284 -3.258,-3.284 l -15.993,0 z m 0,1.708 15.993,0 c 0.873,0 1.55,0.704 1.55,1.576 l 0,15.992 c 0,0.874 -0.677,1.577 -1.55,1.577 l -15.993,0 c -0.872,0 -1.574,-0.704 -1.574,-1.577 l 0,-15.992 c -10e-4,-0.872 0.703,-1.576 1.574,-1.576 z"
     inkscape:connector-curvature="0"
     style="fill:#f4f4f4" /><path
     id="path157"
     d="m 295.716,221.874 c -1.795,0 -3.283,1.487 -3.283,3.284 l 0,15.992 c 0,1.796 1.488,3.285 3.283,3.285 l 15.993,0 c 1.796,0 3.284,-1.488 3.284,-3.285 l 0,-0.854 0,-15.139 c 0,-1.795 -1.487,-3.284 -3.284,-3.284 l -15.993,0 z m 0,1.708 15.993,0 c 0.872,0 1.576,0.704 1.576,1.576 l 0,15.992 c 0,0.874 -0.704,1.577 -1.576,1.577 l -15.993,0 c -0.873,0 -1.575,-0.704 -1.575,-1.577 l 0,-15.992 c 0,-0.872 0.704,-1.576 1.575,-1.576 z"
     inkscape:connector-curvature="0"
     style="fill:#f4f4f4" /><path
     id="path159"
     d="m 319.588,221.874 c -1.796,0 -3.258,1.487 -3.258,3.284 l 0,15.992 c 0,1.797 1.462,3.285 3.258,3.285 l 15.992,0 c 1.795,0 3.284,-1.488 3.284,-3.285 l 0,-15.992 c 0,-1.795 -1.487,-3.284 -3.284,-3.284 l -15.992,0 z m 0,1.708 15.992,0 c 0.873,0 1.575,0.704 1.575,1.576 l 0,15.992 c 0,0.874 -0.702,1.577 -1.575,1.577 l -15.992,0 c -0.874,0 -1.55,-0.704 -1.55,-1.577 l 0,-15.992 c 0,-0.872 0.678,-1.576 1.55,-1.576 z"
     inkscape:connector-curvature="0"
     style="fill:#f4f4f4" /><path
     id="path161"
     d="m 343.458,221.874 c -1.795,0 -3.257,1.487 -3.257,3.284 l 0,15.992 c 0,1.796 1.462,3.285 3.257,3.285 l 28.89,0 c 1.795,0 3.283,-1.488 3.283,-3.285 l 0,-15.992 c 0,-1.795 -1.486,-3.284 -3.283,-3.284 l -28.89,0 z m 0,1.708 28.89,0 c 0.872,0 1.574,0.704 1.574,1.576 l 0,15.992 c 0,0.874 -0.702,1.577 -1.574,1.577 l -28.89,0 c -0.873,0 -1.549,-0.704 -1.549,-1.577 l 0,-15.992 c 0,-0.872 0.678,-1.576 1.549,-1.576 z"
     inkscape:connector-curvature="0"
     style="fill:#f4f4f4" /><path
     id="path163"
     d="m 80.871,245.77 c -1.795,0 -3.284,1.462 -3.284,3.258 l 0,16.02 c 0,1.796 1.488,3.258 3.284,3.258 l 15.993,0 c 1.796,0 3.284,-1.462 3.284,-3.258 l 0,-0.854 0,-15.165 c 0,-1.796 -1.487,-3.258 -3.284,-3.258 l -15.993,0 z m 0,1.71 15.993,0 c 0.872,0 1.575,0.677 1.575,1.548 l 0,16.02 c 0,0.873 -0.703,1.549 -1.575,1.549 l -15.993,0 c -0.872,0 -1.575,-0.678 -1.575,-1.549 l 0,-16.02 c 0,-0.871 0.703,-1.548 1.575,-1.548 z"
     inkscape:connector-curvature="0"
     style="fill:#f4f4f4" /><path
     id="path165"
     d="m 104.737,245.77 c -1.795,0 -3.284,1.462 -3.284,3.258 l 0,16.02 c 0,1.796 1.488,3.258 3.284,3.258 l 15.994,0 c 1.795,0 3.284,-1.462 3.284,-3.258 l 0,-16.02 c 0,-1.796 -1.489,-3.258 -3.284,-3.258 l -15.994,0 z m 0,1.71 15.994,0 c 0.872,0 1.575,0.677 1.575,1.548 l 0,16.02 c 0,0.873 -0.704,1.549 -1.575,1.549 l -15.994,0 c -0.872,0 -1.575,-0.678 -1.575,-1.549 l 0,-16.02 c 0,-0.871 0.703,-1.548 1.575,-1.548 z"
     inkscape:connector-curvature="0"
     style="fill:#f4f4f4" /><path
     id="path167"
     d="m 128.609,245.77 c -1.796,0 -3.257,1.462 -3.257,3.258 l 0,16.02 c 0,1.796 1.461,3.258 3.257,3.258 l 186.279,0 c 1.796,0 3.284,-1.462 3.284,-3.258 l 0,-16.02 c 0,-1.795 -1.486,-3.258 -3.284,-3.258 l -186.279,0 z m 0,1.71 186.279,0 c 0.873,0 1.575,0.677 1.575,1.548 l 0,16.02 c 0,0.873 -0.702,1.549 -1.575,1.549 l -186.279,0 c -0.872,0 -1.549,-0.678 -1.549,-1.549 l 0,-16.02 c 0,-0.871 0.677,-1.548 1.549,-1.548 z"
     inkscape:connector-curvature="0"
     style="fill:#f4f4f4" /><path
     id="path169"
     d="m 33.507,174.105 c -1.795,0 -3.284,1.461 -3.284,3.258 l 0,16.02 c 0,1.796 1.489,3.258 3.284,3.258 l 22.027,0 c 1.49,0 2.708,-1.032 3.097,-2.403 l 0.187,0 0,-0.854 0,-16.02 c 0,-1.796 -1.487,-3.258 -3.284,-3.258 l -22.027,0 0,-0.001 z m 0,1.709 22.027,0 c 0.873,0 1.575,0.677 1.575,1.549 l 0,15.165 0,0.854 c 0,0.873 -0.702,1.549 -1.575,1.549 l -22.027,0 c -0.871,0 -1.575,-0.678 -1.575,-1.549 l 0,-16.02 c 0,-0.872 0.704,-1.548 1.575,-1.548 z"
     inkscape:connector-curvature="0"
     style="fill:#f4f4f4" /><path
     id="path171"
     d="m 63.41,174.105 c -1.795,0 -3.284,1.461 -3.284,3.258 l 0,16.02 c 0,1.796 1.488,3.258 3.284,3.258 l 15.993,0 c 1.796,0 3.284,-1.462 3.284,-3.258 l 0,-16.02 c 0,-1.796 -1.487,-3.258 -3.284,-3.258 l -15.993,0 z m 0,1.709 15.993,0 c 0.873,0 1.575,0.677 1.575,1.549 l 0,16.02 c 0,0.873 -0.702,1.549 -1.575,1.549 l -15.993,0 c -0.873,0 -1.575,-0.677 -1.575,-1.549 l 0,-16.02 c 0,-0.873 0.703,-1.549 1.575,-1.549 z"
     inkscape:connector-curvature="0"
     style="fill:#f4f4f4" /><path
     id="path173"
     d="m 87.282,174.105 c -1.795,0 -3.257,1.461 -3.257,3.258 l 0,16.02 c 0,1.796 1.461,3.258 3.257,3.258 l 15.993,0 c 1.796,0 3.284,-1.462 3.284,-3.258 l 0,-16.02 c 0,-1.796 -1.487,-3.258 -3.284,-3.258 l -15.993,0 z m 0,1.709 15.993,0 c 0.873,0 1.575,0.677 1.575,1.549 l 0,16.02 c 0,0.873 -0.702,1.549 -1.575,1.549 l -15.993,0 c -0.873,0 -1.548,-0.677 -1.548,-1.549 l 0,-16.02 c 0,-0.873 0.676,-1.549 1.548,-1.549 z"
     inkscape:connector-curvature="0"
     style="fill:#f4f4f4" /><path
     id="path175"
     d="m 111.145,174.105 c -1.796,0 -3.257,1.462 -3.257,3.258 l 0,16.02 c 0,1.795 1.461,3.258 3.257,3.258 l 16.02,0 c 1.796,0 3.257,-1.462 3.257,-3.258 l 0,-16.02 c 0,-1.796 -1.461,-3.258 -3.257,-3.258 l -16.02,0 z m 0,1.709 16.02,0 c 0.873,0 1.548,0.677 1.548,1.549 l 0,16.02 c 0,0.873 -0.675,1.549 -1.548,1.549 l -16.02,0 c -0.873,0 -1.548,-0.676 -1.548,-1.549 l 0,-16.02 c 0,-0.874 0.675,-1.549 1.548,-1.549 z"
     inkscape:connector-curvature="0"
     style="fill:#f4f4f4" /><path
     id="path177"
     d="m 135.016,174.105 c -1.795,0 -3.257,1.461 -3.257,3.258 l 0,16.02 c 0,1.796 1.461,3.258 3.257,3.258 l 16.02,0 c 1.796,0 3.258,-1.462 3.258,-3.258 l 0,-16.02 c 0,-1.796 -1.461,-3.258 -3.258,-3.258 l -16.02,0 z m 0,1.709 16.02,0 c 0.875,0 1.549,0.676 1.549,1.549 l 0,16.02 c 0,0.873 -0.675,1.549 -1.549,1.549 l -16.02,0 c -0.873,0 -1.548,-0.677 -1.548,-1.549 l 0,-16.02 c 0,-0.873 0.676,-1.549 1.548,-1.549 z"
     inkscape:connector-curvature="0"
     style="fill:#f4f4f4" /><path
     id="path179"
     d="m 158.913,174.105 c -1.796,0 -3.284,1.462 -3.284,3.258 l 0,16.02 c 0,1.795 1.487,3.258 3.284,3.258 l 15.993,0 c 1.796,0 3.257,-1.462 3.257,-3.258 l 0,-16.02 c 0,-1.796 -1.461,-3.258 -3.257,-3.258 l -15.993,0 z m 0,1.709 15.993,0 c 0.873,0 1.548,0.677 1.548,1.549 l 0,16.02 c 0,0.873 -0.675,1.549 -1.548,1.549 l -15.993,0 c -0.874,0 -1.575,-0.676 -1.575,-1.549 l 0,-16.02 c 0,-0.874 0.701,-1.549 1.575,-1.549 z"
     inkscape:connector-curvature="0"
     style="fill:#f4f4f4" /><path
     id="path181"
     d="m 182.785,174.105 c -1.795,0 -3.284,1.461 -3.284,3.258 l 0,16.02 c 0,1.796 1.488,3.258 3.284,3.258 l 15.993,0 c 1.796,0 3.285,-1.462 3.285,-3.258 l 0,-16.02 c 0,-1.796 -1.488,-3.258 -3.285,-3.258 l -15.993,0 z m 0,1.709 15.993,0 c 0.873,0 1.576,0.676 1.576,1.549 l 0,16.02 c 0,0.873 -0.704,1.549 -1.576,1.549 l -15.993,0 c -0.873,0 -1.575,-0.677 -1.575,-1.549 l 0,-16.02 c 0,-0.873 0.703,-1.549 1.575,-1.549 z"
     inkscape:connector-curvature="0"
     style="fill:#f4f4f4" /><path
     id="path183"
     d="m 206.656,174.105 c -1.795,0 -3.257,1.461 -3.257,3.258 l 0,16.02 c 0,1.796 1.462,3.258 3.257,3.258 l 15.993,0 c 1.796,0 3.284,-1.462 3.284,-3.258 l 0,-16.02 c 0,-1.796 -1.487,-3.258 -3.284,-3.258 l -15.993,0 z m 0,1.709 15.993,0 c 0.873,0 1.575,0.677 1.575,1.549 l 0,16.02 c 0,0.873 -0.702,1.549 -1.575,1.549 l -15.993,0 c -0.872,0 -1.548,-0.678 -1.548,-1.549 l 0,-16.02 c -0.001,-0.873 0.676,-1.549 1.548,-1.549 z"
     inkscape:connector-curvature="0"
     style="fill:#f4f4f4" /><path
     id="path185"
     d="m 230.519,174.105 c -1.795,0 -3.258,1.461 -3.258,3.258 l 0,16.02 c 0,1.796 1.462,3.258 3.258,3.258 l 15.993,0 c 1.796,0 3.284,-1.462 3.284,-3.258 l 0,-16.02 c 0,-1.796 -1.487,-3.258 -3.284,-3.258 l -15.993,0 z m 0,1.709 15.993,0 c 0.873,0 1.575,0.676 1.575,1.549 l 0,16.02 c 0,0.873 -0.703,1.549 -1.575,1.549 l -15.993,0 c -0.873,0 -1.549,-0.677 -1.549,-1.549 l 0,-16.02 c 0,-0.873 0.677,-1.549 1.549,-1.549 z"
     inkscape:connector-curvature="0"
     style="fill:#f4f4f4" /><path
     id="path187"
     d="m 254.391,174.105 c -1.796,0 -3.258,1.461 -3.258,3.258 l 0,16.02 c 0,1.796 1.461,3.258 3.258,3.258 l 16.02,0 c 1.795,0 3.257,-1.462 3.257,-3.258 l 0,-16.02 c 0,-1.796 -1.462,-3.258 -3.257,-3.258 l -16.02,0 z m 0,1.709 16.02,0 c 0.873,0 1.548,0.676 1.548,1.549 l 0,16.02 c 0,0.873 -0.677,1.549 -1.548,1.549 l -16.02,0 c -0.873,0 -1.549,-0.678 -1.549,-1.549 l 0,-16.02 c 0,-0.873 0.676,-1.549 1.549,-1.549 z"
     inkscape:connector-curvature="0"
     style="fill:#f4f4f4" /><path
     id="path189"
     d="m 278.262,174.105 c -1.796,0 -3.258,1.461 -3.258,3.258 l 0,16.02 c 0,1.796 1.462,3.258 3.258,3.258 l 16.019,0 c 1.797,0 3.259,-1.462 3.259,-3.258 l 0,-16.02 c 0,-1.796 -1.462,-3.258 -3.259,-3.258 l -16.019,0 z m 0,1.709 16.019,0 c 0.873,0 1.55,0.676 1.55,1.549 l 0,16.02 c 0,0.873 -0.677,1.549 -1.55,1.549 l -16.019,0 c -0.874,0 -1.55,-0.677 -1.55,-1.549 l 0,-16.02 c 0,-0.873 0.676,-1.549 1.55,-1.549 z"
     inkscape:connector-curvature="0"
     style="fill:#f4f4f4" /><path
     id="path191"
     d="m 302.159,174.105 c -1.796,0 -3.284,1.461 -3.284,3.258 l 0,16.02 c 0,1.796 1.486,3.258 3.284,3.258 l 15.993,0 c 1.794,0 3.258,-1.462 3.258,-3.258 l 0,-16.02 c 0,-1.796 -1.462,-3.258 -3.258,-3.258 l -15.993,0 z m 0,1.709 15.993,0 c 0.872,0 1.548,0.676 1.548,1.549 l 0,16.02 c 0,0.873 -0.677,1.549 -1.548,1.549 l -15.993,0 c -0.874,0 -1.576,-0.678 -1.576,-1.549 l 0,-16.02 c 0,-0.873 0.703,-1.549 1.576,-1.549 z"
     inkscape:connector-curvature="0"
     style="fill:#f4f4f4" /><path
     id="path193"
     d="m 326.022,174.105 c -1.795,0 -3.283,1.461 -3.283,3.258 l 0,16.02 c 0,1.796 1.486,3.258 3.283,3.258 l 15.993,0 c 1.794,0 3.284,-1.461 3.284,-3.258 l 0,-16.02 c 0,-1.796 -1.489,-3.258 -3.284,-3.258 l -15.993,0 z m 0,1.709 15.993,0 c 0.873,0 1.575,0.677 1.575,1.549 l 0,16.02 c 0,0.873 -0.704,1.549 -1.575,1.549 l -15.993,0 c -0.874,0 -1.577,-0.677 -1.577,-1.549 l 0,-16.02 c -10e-4,-0.873 0.704,-1.549 1.577,-1.549 z"
     inkscape:connector-curvature="0"
     style="fill:#f4f4f4" /><path
     id="path195"
     d="m 349.893,174.105 c -1.796,0 -3.257,1.461 -3.257,3.258 l 0,16.02 c 0,1.796 1.46,3.258 3.257,3.258 l 28.488,0 c 1.794,0 3.258,-1.462 3.258,-3.258 l 0,-16.02 c 0,-1.796 -1.462,-3.258 -3.258,-3.258 l -28.488,0 z m 0,1.709 28.488,0 c 0.873,0 1.549,0.676 1.549,1.549 l 0,16.02 c 0,0.873 -0.677,1.549 -1.549,1.549 l -28.488,0 c -0.872,0 -1.548,-0.677 -1.548,-1.549 l 0,-16.02 c 0,-0.873 0.676,-1.549 1.548,-1.549 z"
     inkscape:connector-curvature="0"
     style="fill:#f4f4f4" /><path
     id="path197"
     d="m 49.686,115.102 c -1.796,0 -3.257,1.461 -3.257,3.257 l 0,16.02 c 0,1.795 1.461,3.257 3.257,3.257 l 25.685,0 c 1.794,0 3.257,-1.461 3.257,-3.257 l 0,-16.02 c 0,-1.796 -1.462,-3.257 -3.257,-3.257 l -25.685,0 z m 0,1.71 25.685,0 c 0.871,0 1.548,0.675 1.548,1.548 l 0,16.02 c 0,0.873 -0.677,1.549 -1.548,1.549 l -25.685,0 c -0.873,0 -1.548,-0.676 -1.548,-1.549 l 0,-16.02 c 0,-0.874 0.676,-1.548 1.548,-1.548 z"
     inkscape:connector-curvature="0"
     style="fill:#f4f4f4" /><path
     id="path199"
     d="m 84.849,115.102 c -1.796,0 -3.284,1.461 -3.284,3.257 l 0,16.02 c 0,1.794 1.488,3.257 3.284,3.257 l 25.658,0 c 1.795,0 3.284,-1.461 3.284,-3.257 l 0,-16.02 c 0,-1.796 -1.489,-3.257 -3.284,-3.257 l -25.658,0 z m 0,1.71 25.658,0 c 0.871,0 1.575,0.675 1.575,1.548 l 0,16.02 c 0,0.873 -0.704,1.549 -1.575,1.549 l -25.658,0 c -0.873,0 -1.576,-0.676 -1.576,-1.549 l 0,-16.02 c 0,-0.874 0.704,-1.548 1.576,-1.548 z"
     inkscape:connector-curvature="0"
     style="fill:#f4f4f4" /><path
     id="path201"
     d="m 119.988,115.102 c -1.796,0 -3.257,1.462 -3.257,3.257 l 0,16.02 c 0,1.794 1.46,3.257 3.257,3.257 l 25.684,0 c 1.795,0 3.257,-1.461 3.257,-3.257 l 0,-16.02 c 0,-1.796 -1.462,-3.257 -3.257,-3.257 l -25.684,0 z m 0,1.71 25.684,0 c 0.872,0 1.548,0.675 1.548,1.548 l 0,16.02 c 0,0.873 -0.677,1.549 -1.548,1.549 l -25.684,0 c -0.874,0 -1.549,-0.676 -1.549,-1.549 l 0,-16.02 c 0.001,-0.875 0.677,-1.548 1.549,-1.548 z"
     inkscape:connector-curvature="0"
     style="fill:#f4f4f4" /><path
     id="path203"
     d="m 155.146,115.102 c -1.796,0 -3.285,1.462 -3.285,3.257 l 0,16.02 c 0,1.794 1.488,3.257 3.285,3.257 l 25.657,0 c 1.796,0 3.285,-1.461 3.285,-3.257 l 0,-0.854 0,-15.166 c 0,-1.796 -1.489,-3.257 -3.285,-3.257 l -25.657,0 z m 0,1.71 25.657,0 c 0.872,0 1.576,0.675 1.576,1.548 l 0,16.02 c 0,0.873 -0.703,1.549 -1.576,1.549 l -25.657,0 c -0.874,0 -1.576,-0.676 -1.576,-1.549 l 0,-16.02 c 0,-0.875 0.703,-1.548 1.576,-1.548 z"
     inkscape:connector-curvature="0"
     style="fill:#f4f4f4" /><path
     id="path205"
     d="m 190.286,115.102 c -1.795,0 -3.257,1.461 -3.257,3.257 l 0,16.02 c 0,1.794 1.461,3.257 3.257,3.257 l 25.685,0 c 1.795,0 3.257,-1.461 3.257,-3.257 l 0,-16.02 c 0,-1.795 -1.461,-3.257 -3.257,-3.257 l -25.685,0 z m 0,1.71 25.685,0 c 0.873,0 1.548,0.674 1.548,1.548 l 0,16.02 c 0,0.873 -0.676,1.549 -1.548,1.549 l -25.685,0 c -0.872,0 -1.548,-0.676 -1.548,-1.549 l 0,-16.02 c -0.001,-0.874 0.676,-1.548 1.548,-1.548 z"
     inkscape:connector-curvature="0"
     style="fill:#f4f4f4" /><path
     id="path207"
     d="m 314.838,115.102 c -1.795,0 -3.283,1.461 -3.283,3.257 l 0,16.02 c 0,1.796 1.488,3.257 3.283,3.257 l 25.657,0 c 1.797,0 3.257,-1.461 3.257,-3.257 l 0,-16.02 c 0,-1.795 -1.46,-3.257 -3.257,-3.257 l -25.657,0 z m 0,1.71 25.657,0 c 0.874,0 1.548,0.674 1.548,1.548 l 0,16.02 c 0,0.873 -0.674,1.549 -1.548,1.549 l -25.657,0 c -0.871,0 -1.575,-0.676 -1.575,-1.549 l 0,-16.02 c 0,-0.873 0.704,-1.548 1.575,-1.548 z"
     inkscape:connector-curvature="0"
     style="fill:#f4f4f4" /><path
     id="path209"
     d="m 349.969,115.102 c -1.795,0 -3.257,1.461 -3.257,3.257 l 0,16.02 c 0,1.796 1.462,3.257 3.257,3.257 l 25.684,0 c 1.796,0 3.258,-1.461 3.258,-3.257 l 0,-16.02 c 0,-1.794 -1.46,-3.257 -3.258,-3.257 l -25.684,0 z m 0,1.71 25.684,0 c 0.873,0 1.549,0.674 1.549,1.548 l 0,16.02 c 0,0.873 -0.676,1.549 -1.549,1.549 l -25.684,0 c -0.872,0 -1.548,-0.676 -1.548,-1.549 l 0,-16.02 c 0,-0.873 0.678,-1.548 1.548,-1.548 z"
     inkscape:connector-curvature="0"
     style="fill:#f4f4f4" /><path
     id="path211"
     d="m 439.764,167.698 c -3.623,0 -7.254,1.384 -10.013,4.135 l -24.675,24.675 c -5.514,5.513 -5.514,14.481 0,19.997 l 24.296,24.271 c 5.516,5.516 14.484,5.513 19.998,0 l 24.671,-24.671 c 5.507,-5.506 5.515,-14.453 0.026,-19.972 l -0.026,-0.026 -24.297,-24.269 c -2.757,-2.758 -6.365,-4.139 -9.986,-4.139 l 0.006,-0.001 z m 0,1.682 c 3.181,0 6.354,1.228 8.784,3.657 l 24.297,24.297 c 4.862,4.862 4.862,12.706 0,17.568 l -24.671,24.669 c -4.861,4.862 -12.707,4.864 -17.567,0 l -24.296,-24.296 c -4.862,-4.862 -4.86,-12.709 0,-17.567 l 24.669,-24.671 c 2.431,-2.431 5.604,-3.657 8.784,-3.657 z"
     inkscape:connector-curvature="0"
     style="fill:#f4f4f4" /><g
     id="g213"
     transform="translate(-47.081,-16.851)"><path
       id="path215"
       d="m 486.657,185.882 c -3.104,0 -6.207,1.187 -8.569,3.551 l -12.202,12.201 -0.16,0.16 -0.454,0.427 0.026,0.027 -0.16,0.133 -12.201,12.201 c -4.728,4.729 -4.728,12.413 0,17.142 l 12.201,12.201 0.16,0.134 -0.026,0.026 0.454,0.427 0.16,0.16 12.202,12.201 c 4.727,4.729 12.413,4.729 17.141,0 l 12.199,-12.201 0.16,-0.16 0.428,-0.427 0.16,-0.16 12.202,-12.201 c 4.728,-4.728 4.728,-12.412 0,-17.14 l -12.202,-12.202 -0.16,-0.16 -0.428,-0.427 -0.16,-0.161 -12.199,-12.199 c -2.364,-2.364 -5.467,-3.551 -8.571,-3.551 l 0,-0.002 z m 0,1.709 c 2.664,0 5.332,1.007 7.369,3.044 l 11.586,11.585 -18.957,18.958 -18.955,-18.958 11.586,-11.585 c 2.038,-2.037 4.705,-3.044 7.369,-3.044 l 0.002,0 z m -20.931,16.607 18.957,18.956 -18.957,18.957 -11.588,-11.587 c -4.073,-4.075 -4.073,-10.662 0,-14.738 l 11.586,-11.594 0.002,0.006 z m 41.864,0 11.586,11.587 c 4.075,4.074 4.075,10.662 0,14.738 l -11.584,11.593 -18.96,-18.959 18.96,-18.957 -0.002,-0.002 z m -20.933,20.906 18.957,18.983 -11.588,11.586 c -4.073,4.077 -10.662,4.077 -14.738,0 l -11.594,-11.61 18.96,-18.959 0.003,0 z"
       inkscape:connector-curvature="0"
       style="fill:#f4f4f4" /></g><path
     id="path217"
     d="m 404.547,165.587 c -3.129,0 -5.687,2.558 -5.687,5.687 l 0,70.061 c 0,3.129 2.558,5.687 5.687,5.687 l 70.059,0 c 3.132,0 5.687,-2.558 5.687,-5.687 l 0,-70.061 c 0,-3.129 -2.555,-5.687 -5.687,-5.687 l -70.059,0 z m 0,1.708 70.059,0 c 2.207,0 3.979,1.772 3.979,3.978 l 0,70.061 c 0,2.206 -1.771,3.979 -3.979,3.979 l -70.059,0 c -2.204,0 -3.979,-1.773 -3.979,-3.979 l 0,-70.061 c 0,-2.205 1.775,-3.978 3.979,-3.978 l 0,0 z"
     inkscape:connector-curvature="0"
     style="fill:#f4f4f4" /><path
     id="path219"
     d="m 30.169,120.733 c -0.908,0 -1.655,0.75 -1.655,1.656 l 0,6.968 c 0,0.905 0.749,1.682 1.655,1.682 l 9.131,0 c 0.907,0 1.655,-0.776 1.655,-1.682 l 0,-6.968 c 0,-0.906 -0.748,-1.656 -1.655,-1.656 l -9.131,0 z m 0.053,1.709 9.024,0 0,6.889 -9.024,0 0,-6.889 z"
     inkscape:connector-curvature="0"
     style="fill:#f4f4f4" /><path
     id="path221"
     d="m 21.038,205.802 c -0.906,0 -1.655,0.776 -1.655,1.683 l 0,2.67 c 0,0.905 0.75,1.655 1.655,1.655 l 7.796,0 c 0.905,0 1.655,-0.747 1.655,-1.655 l 0,-2.67 c 0,-0.907 -0.748,-1.683 -1.655,-1.683 l -7.796,0 z"
     inkscape:connector-curvature="0"
     style="fill:#f4f4f4" /><path
     id="path223"
     d="m 384.708,205.802 c -0.906,0 -1.656,0.776 -1.656,1.683 l 0,2.67 c 0,0.905 0.751,1.655 1.656,1.655 l 7.769,0 c 0.906,0 1.656,-0.747 1.656,-1.655 l 0,-2.67 c 0,-0.906 -0.748,-1.683 -1.656,-1.683 l -7.769,0 z"
     inkscape:connector-curvature="0"
     style="fill:#f4f4f4" /><path
     id="line233"
     d="m 4.698,93.743 0,4.486 1.709,0 0,-4.486 -1.709,0 z"
     inkscape:connector-curvature="0"
     style="fill:#f4f4f4" /><path
     id="line235"
     d="m 496.846,93.478 0,4.699 1.709,0 0,-4.699 -1.709,0 z"
     inkscape:connector-curvature="0"
     style="fill:#f4f4f4" /><path
     id="path237"
     d="m 322.339,27.928 c -0.906,0 -1.655,0.775 -1.655,1.682 l 0,14.178 c 0,0.906 0.749,1.655 1.655,1.655 l 0.508,0 c 0.905,0 1.654,-0.75 1.654,-1.655 l 0,-14.178 c 0,-0.905 -0.749,-1.682 -1.654,-1.682 l -0.508,0 z m 0.054,1.709 0.4,0 0,14.098 -0.4,0 0,-14.098 z"
     inkscape:connector-curvature="0"
     style="fill:#f4f4f4" /><path
     id="path239"
     d="m 427.213,27.928 c -0.906,0 -1.655,0.777 -1.655,1.682 l 0,14.178 c 0,0.905 0.749,1.655 1.655,1.655 l 0.508,0 c 0.906,0 1.655,-0.749 1.655,-1.655 l 0,-14.178 c 0,-0.906 -0.749,-1.682 -1.655,-1.682 l -0.508,0 z m 0.054,1.709 0.4,0 0,14.098 -0.4,0 0,-14.098 z"
     inkscape:connector-curvature="0"
     style="fill:#f4f4f4" /></svg>