<?xml version="1.0" encoding="UTF-8" standalone="no"?>
<svg
   xmlns:dc="http://purl.org/dc/elements/1.1/"
   xmlns:cc="http://creativecommons.org/ns#"
   xmlns:rdf="http://www.w3.org/1999/02/22-rdf-syntax-ns#"
   xmlns:svg="http://www.w3.org/2000/svg"
   xmlns="http://www.w3.org/2000/svg"
   xmlns:sodipodi="http://sodipodi.sourceforge.net/DTD/sodipodi-0.dtd"
   xmlns:inkscape="http://www.inkscape.org/namespaces/inkscape"
   version="1.0"
   width="700.000000pt"
   height="350.000000pt"
   viewBox="0 0 700.000000 350.000000"
   preserveAspectRatio="xMidYMid meet"
   id="svg2"
   inkscape:version="0.48.4 r9939"
   sodipodi:docname="logo.svg">
  <defs
     id="defs20" />
  <sodipodi:namedview
     pagecolor="#ffffff"
     bordercolor="#666666"
     borderopacity="1"
     objecttolerance="10"
     gridtolerance="10"
     guidetolerance="10"
     inkscape:pageopacity="0"
     inkscape:pageshadow="2"
     inkscape:window-width="757"
     inkscape:window-height="480"
     id="namedview18"
     showgrid="false"
     inkscape:zoom="0.38857143"
     inkscape:cx="437.5"
     inkscape:cy="218.75"
     inkscape:window-x="61"
     inkscape:window-y="24"
     inkscape:window-maximized="0"
     inkscape:current-layer="svg2" />
  <metadata
     id="metadata4">
Created by potrace 1.12, written by Peter Selinger 2001-2015
<rdf:RDF>
  <cc:Work
     rdf:about="">
    <dc:format>image/svg+xml</dc:format>
    <dc:type
       rdf:resource="http://purl.org/dc/dcmitype/StillImage" />
  </cc:Work>
</rdf:RDF>
</metadata>
  <g
     transform="translate(0.000000,350.000000) scale(0.100000,-0.100000)"
     fill="#000000"
     stroke="none"
     id="g6"
     style="fill:#6a6a6a;fill-opacity:1">
    <path
       d="M2845 2996 c-39 -17 -70 -52 -90 -98 -12 -31 -15 -85 -15 -298 l0 -260 -77 0 c-104 0 -153 -24 -193 -94 -39 -66 -39 -116 -2 -187 38 -74 88 -99 193 -99 l78 0 3 -432 c4 -414 5 -436 26 -499 42 -125 144 -249 249 -302 112 -57 296 -78 426 -49 106 25 162 99 155 207 -5 76 -35 122 -103 155 -49 24 -81 24 -188 1 -62 -14 -140 11 -171 52 -20 28 -21 41 -24 448 l-3 419 138 0 c188 1 227 18 274 124 15 34 20 61 16 87 -7 56 -54 120 -107 147 -39 20 -59 22 -182 22 l-137 0 -3 278 -3 279 -29 37 c-51 67 -156 95 -231 62z"
       id="path8"
       style="fill:#6a6a6a;fill-opacity:1" />
    <path
       d="M305 2961 c-48 -22 -69 -44 -90 -94 -13 -32 -15 -160 -15 -1044 0 -940 1 -1010 18 -1042 62 -124 243 -135 319 -20 l28 43 0 1010 c0 556 -3 1023 -7 1038 -19 65 -105 128 -175 128 -21 0 -56 -9 -78 -19z"
       id="path10"
       style="fill:#6a6a6a;fill-opacity:1" />
    <path
       d="M4335 2336 c-235 -55 -404 -187 -482 -378 -57 -141 -63 -201 -63 -687 0 -434 0 -446 21 -489 44 -90 158 -128 249 -82 47 24 76 63 89 121 6 26 11 220 11 475 0 407 1 433 21 491 25 75 75 135 131 158 57 23 179 30 251 15 68 -14 118 -52 149 -114 42 -85 99 -126 173 -126 60 0 103 19 142 63 71 81 67 161 -13 279 -123 182 -292 275 -513 284 -69 2 -127 -1 -166 -10z"
       id="path12"
       style="fill:#6a6a6a;fill-opacity:1" />
    <path
       d="M1005 2323 c-46 -24 -66 -45 -86 -88 -17 -37 -19 -75 -19 -493 0 -376 3 -466 16 -530 29 -141 79 -235 183 -346 73 -77 156 -130 255 -163 71 -23 97 -26 216 -27 120 0 144 3 215 27 223 74 372 235 437 472 21 76 22 103 26 535 4 485 2 505 -45 560 -93 111 -261 83 -318 -52 -13 -32 -15 -103 -15 -482 0 -419 -1 -448 -21 -510 -41 -135 -138 -194 -304 -184 -125 8 -189 51 -239 158 -20 43 -21 65 -26 531 l-5 486 -27 40 c-49 74 -168 106 -243 66z"
       id="path14"
       style="fill:#6a6a6a;fill-opacity:1" />
    <path
       d="M5917 2324 c-226 -50 -416 -216 -494 -431 -46 -128 -57 -197 -57 -383 -1 -256 36 -405 138 -559 85 -127 208 -214 366 -257 90 -25 291 -25 380 -1 189 52 340 175 424 347 56 117 84 234 92 396 25 448 -173 788 -511 878 -88 24 -255 29 -338 10z m291 -384 c57 -24 110 -77 142 -139 76 -149 66 -484 -18 -621 -54 -88 -156 -140 -272 -140 -168 0 -277 92 -316 268 -22 98 -16 353 10 427 39 111 98 174 202 216 65 26 178 21 252 -11z"
       id="path16"
       style="fill:#6a6a6a;fill-opacity:1" />
  </g>
</svg>
