<svg xmlns="http://www.w3.org/2000/svg" version="1.2" viewBox="0 0 403.07796 83.357997">
  <path d="M.5659819 52.343v-7.735H61.130982v-8.827H.5659819l-.381-23.82H68.994982v7.714H8.4289819l.381 8.394H69.373982v24.276H.5659819v-.002zm73.7910001 0v-40.23h8.244v40.23h-8.244zm12.669 0v-40.23h68.809998v40.23h-8.244V19.826H95.268982v32.52l-8.243-.003zm73.210998 0v-40.23h68.86v7.714h-60.564v24.782h60.564v7.739h-68.86v-.005zm74.346 0V0h8.246v52.345h-8.246v-.002zm86.411 0v-40.23h8.295v40.23h-8.295zm13.277 0v-40.23h68.807v7.714h-60.563v32.521h-8.244v-.005zm-87.043-40.23v7.714h60.564v8.824h-60.564v23.694h68.861V12.113h-68.861zm60.564 32.496h-52.271v-8.827h52.271v8.827zM74.356982 7.739V0h8.244v7.739h-8.244zm246.636998 0V0h8.295v7.739h-8.295z"/>
  <path fill="#f05953" d="M-.0000181 80.22l9.688-11.586h-8.928v-3.336H14.974982v3.136L5.2869819 80.02h9.9410001v3.338H-.0000181V80.22zm21.9850001-6.323l-5.819-8.601h4.604l3.542 5.768 3.668-5.768h4.351l-5.792 8.625 6.298 9.436h-4.73l-3.947-6.247-4.022 6.247h-4.479l6.326-9.46z"/>
  <path fill="#f05953" d="M48.142309 74.89165c-.87458.000008-1.546705.238896-2.016376.716664-.469684.477783-.704522 1.162054-.704517 2.052816-.000005.890773.234833 1.575045.704517 2.052817.469671.46968 1.141796.704519 2.016376.704517.866465.000002 1.530492-.234837 1.992082-.704517.461569-.477772.692359-1.162044.69237-2.052817-.000011-.89886-.230801-1.583131-.69237-2.052816-.46159-.477768-1.125617-.716656-1.992082-.716664m-3.413263-1.542649c-1.101317-.332004-1.931351-.84217-2.490102-1.530502-.558757-.688309-.838134-1.546685-.838132-2.575131-.000002-1.530487.570899-2.696582 1.712704-3.49829 1.141799-.801674 2.818061-1.202519 5.028793-1.202538 2.194519.000019 3.862684.400864 5.004499 1.202538 1.141789.79361 1.71269 1.959706 1.712705 3.49829-.000015 1.028446-.283441 1.886822-.850279 2.575131-.558768.688332-1.388802 1.198498-2.490103 1.530502 1.230867.340121 2.158075.894826 2.781627 1.664118.631621.761209.947438 1.724858.947454 2.890948-.000016 1.797736-.599259 3.158181-1.797733 4.081339-1.190403.915063-2.959791 1.372593-5.30817 1.372594-2.356494-.000001-4.138029-.457531-5.344611-1.372594-1.19849-.923158-1.797734-2.283603-1.797732-4.081339-.000002-1.16609.311767-2.129739.935307-2.890948.631632-.769292 1.562889-1.323997 2.793773-1.664118m1.093216-3.631906c-.000006.720725.198392 1.275431.595196 1.664118.404887.38871.979837.583059 1.724851.583048.728801.000011 1.291605-.194338 1.688411-.583048.396786-.388687.595185-.943393.595196-1.664118-.000011-.720698-.19841-1.271355-.595196-1.65197-.396806-.388684-.95961-.583033-1.688411-.583049-.745014.000016-1.319964.194365-1.724851.583049-.396804.388713-.595202.939369-.595196 1.65197M57.109287 80.12694h4.129927V68.405237l-4.239248.874572v-3.182472l4.214954-.874573h4.445745V80.12694h4.129926V83.358H57.109287v-3.23106" style="text-align:start;line-height:125%;-inkscape-font-specification:Sans Bold" font-size="24.87673378" font-weight="bold" letter-spacing="-3.73150992" word-spacing="0" font-family="Sans"/>
</svg>
