<?xml version="1.0" encoding="UTF-8" standalone="no"?>
<svg
   xmlns:dc="http://purl.org/dc/elements/1.1/"
   xmlns:cc="http://creativecommons.org/ns#"
   xmlns:rdf="http://www.w3.org/1999/02/22-rdf-syntax-ns#"
   xmlns:svg="http://www.w3.org/2000/svg"
   xmlns="http://www.w3.org/2000/svg"
   viewBox="0 0 215.89375 316.09125"
   height="316.09125"
   width="215.89375"
   xml:space="preserve"
   version="1.1"
   id="svg2"><metadata
     id="metadata8"><rdf:RDF><cc:Work
         rdf:about=""><dc:format>image/svg+xml</dc:format><dc:type
           rdf:resource="http://purl.org/dc/dcmitype/StillImage" /><dc:title></dc:title></cc:Work></rdf:RDF></metadata><defs
     id="defs6"><clipPath
       id="clipPath16"
       clipPathUnits="userSpaceOnUse"><path
         id="path18"
         d="m 0,252.873 172.715,0 L 172.715,0 0,0 0,252.873 Z" /></clipPath></defs><g
     transform="matrix(1.25,0,0,-1.25,0,316.09125)"
     id="g10"><g
       id="g12"><g
         clip-path="url(#clipPath16)"
         id="g14"><g
           transform="translate(0,64.4324)"
           id="g20"><path
             id="path22"
             style="fill:#242d32;fill-opacity:1;fill-rule:nonzero;stroke:none"
             d="m 0,0 0,123.763 c 3.803,42.109 37.722,63.139 76.413,64.637 46.484,1.799 96.302,-56.787 96.302,-126.396 0,-69.609 -49.818,-128.195 -96.302,-126.396 C 37.722,-62.894 3.803,-41.864 0,0.245" /></g><g
           transform="translate(161.4623,126.4363)"
           id="g24"><path
             id="path26"
             style="fill:#42494c;fill-opacity:1;fill-rule:nonzero;stroke:none"
             d="m 0,0 c 0,52.137 -51.541,113.743 -86.357,112.396 -28.98,-1.122 -54.909,-16.307 -57.757,-47.847 l 0,-129.098 c 2.848,-31.54 28.777,-46.725 57.757,-47.847 C -51.541,-113.743 0,-52.137 0,0" /></g><g
           transform="translate(135.4262,160.8792)"
           id="g28"><path
             id="path30"
             style="fill:none;stroke:#6d7779;stroke-width:2;stroke-linecap:butt;stroke-linejoin:miter;stroke-miterlimit:10;stroke-dasharray:none;stroke-opacity:1"
             d="m 0,0 c -11.37,14.599 -25.633,22.068 -37.33,17.811 -17.242,-6.276 -22.378,-35.655 -11.471,-65.62 10.906,-29.965 33.725,-49.17 50.967,-42.894 17.242,6.276 22.378,35.655 11.472,65.62" /></g><g
           transform="translate(112.5428,108.2816)"
           id="g32"><path
             id="path34"
             style="fill:#c66a56;fill-opacity:1;fill-rule:nonzero;stroke:none"
             d="M 0,0 6.673,0 3.337,6.281 0,0 Z" /></g><g
           transform="translate(112.69,102.001)"
           id="g36"><path
             id="path38"
             style="fill:#c66a56;fill-opacity:1;fill-rule:nonzero;stroke:none"
             d="M 0,0 6.673,0 3.337,6.281 0,0 Z" /></g><g
           transform="translate(40.0594,214.5037)"
           id="g40"><path
             id="path42"
             style="fill:#f86745;fill-opacity:1;fill-rule:nonzero;stroke:none"
             d="m 0,0 13.984,13.984 19.777,0 L 47.745,0 l 0,-19.777 -13.984,-13.984 -19.777,0 L 0,-19.777 0,0 Z" /></g><g
           transform="translate(40.0594,214.5037)"
           id="g44"><path
             id="path46"
             style="fill:none;stroke:#c66a56;stroke-width:1;stroke-linecap:butt;stroke-linejoin:miter;stroke-miterlimit:10;stroke-dasharray:none;stroke-opacity:1"
             d="m 0,0 11.347,0 2.673,2.666 0,11.318" /></g><g
           transform="translate(54.0616,180.7427)"
           id="g48"><path
             id="path50"
             style="fill:none;stroke:#c66a56;stroke-width:1;stroke-linecap:butt;stroke-linejoin:miter;stroke-miterlimit:10;stroke-dasharray:none;stroke-opacity:1"
             d="m 0,0 0,11.347 -2.666,2.673 -11.318,0" /></g><g
           transform="translate(73.8204,228.5059)"
           id="g52"><path
             id="path54"
             style="fill:none;stroke:#c66a56;stroke-width:1;stroke-linecap:butt;stroke-linejoin:miter;stroke-miterlimit:10;stroke-dasharray:none;stroke-opacity:1"
             d="m 0,0 0,-11.347 2.666,-2.673 11.318,0" /></g><g
           transform="translate(87.8226,194.7449)"
           id="g56"><path
             id="path58"
             style="fill:none;stroke:#c66a56;stroke-width:1;stroke-linecap:butt;stroke-linejoin:miter;stroke-miterlimit:10;stroke-dasharray:none;stroke-opacity:1"
             d="m 0,0 -11.347,0 -2.673,-2.666 0,-11.318" /></g><g
           transform="translate(64.2305,198.3344)"
           id="g60"><path
             id="path62"
             style="fill:#c66a56;fill-opacity:1;fill-rule:nonzero;stroke:none"
             d="m 0,0 c -3.469,0 -6.281,2.812 -6.281,6.281 0,3.468 2.812,6.28 6.281,6.28 3.469,0 6.281,-2.812 6.281,-6.28 C 6.281,2.812 3.469,0 0,0" /></g><g
           transform="translate(59.157,217.1525)"
           id="g64"><path
             id="path66"
             style="fill:#c66a56;fill-opacity:1;fill-rule:nonzero;stroke:none"
             d="M 0,0 10.147,0 5.073,9.55 0,0 Z" /></g><g
           transform="translate(69.304,192.0782)"
           id="g68"><path
             id="path70"
             style="fill:#c66a56;fill-opacity:1;fill-rule:nonzero;stroke:none"
             d="M 0,0 -10.147,0 -5.073,-9.55 0,0 Z" /></g><g
           transform="translate(51.3945,199.5415)"
           id="g72"><path
             id="path74"
             style="fill:#c66a56;fill-opacity:1;fill-rule:nonzero;stroke:none"
             d="M 0,0 0,10.147 -9.55,5.073 0,0 Z" /></g><g
           transform="translate(76.4696,209.6884)"
           id="g76"><path
             id="path78"
             style="fill:#c66a56;fill-opacity:1;fill-rule:nonzero;stroke:none"
             d="M 0,0 0,-10.147 9.55,-5.073 0,0 Z" /></g><g
           transform="translate(63.941,54.3504)"
           id="g80"><path
             id="path82"
             style="fill:#f86745;fill-opacity:1;fill-rule:nonzero;stroke:none"
             d="m 0,0 c -6.937,0 -12.561,5.624 -12.561,12.561 0,6.937 5.624,12.561 12.561,12.561 6.937,0 12.561,-5.624 12.561,-12.561 C 12.561,5.624 6.937,0 0,0" /></g><g
           transform="translate(64.8233,17.7824)"
           id="g84"><path
             id="path86"
             style="fill:#f86745;fill-opacity:1;fill-rule:nonzero;stroke:none"
             d="m 0,0 c -6.937,0 -12.561,5.624 -12.561,12.561 0,6.937 5.624,12.561 12.561,12.561 6.937,0 12.561,-5.624 12.561,-12.561 C 12.561,5.624 6.937,0 0,0" /></g><path
           id="path88"
           style="fill:#405762;fill-opacity:1;fill-rule:nonzero;stroke:none"
           d="m 93.038,48.678 8.628,0 0,-21.303 -8.628,0 0,21.303 z" /><g
           transform="translate(100.4508,29.0603)"
           id="g90"><path
             id="path92"
             style="fill:#ffffff;fill-opacity:1;fill-rule:nonzero;stroke:none"
             d="m 0,0 -2.958,2.025 -3.232,-2.203 0,2.035 1.73,1.21 -1.734,1.22 0,2.021 C -6.08,6.253 -2.958,4.096 -2.958,4.096 l 1.279,0.92 -0.004,3.9 C -1.698,9.098 -1.642,9.321 -1.848,9.412 -1.916,9.444 -2.016,9.458 -2.084,9.421 -2.162,9.39 -2.234,9.317 -2.257,9.235 l -0.009,-0.123 0,-1.561 C -2.284,6.827 -2.735,6.158 -3.386,5.844 -3.932,5.566 -4.678,5.607 -5.197,5.917 -5.857,6.308 -6.226,7.005 -6.199,7.76 l 0,4.342 c 0,0 2.399,0.665 2.403,0.669 l -2.403,0.67 0,1.583 2.413,0.637 -2.408,0.697 0,1.752 c 0,0 5.798,-1.611 6.181,-1.716 l 0,-1.479 -2.585,-0.697 2.585,-0.71 0,-1.451 -4.502,-1.243 0,-2.895 C -4.505,7.72 -4.56,7.442 -4.314,7.36 c 0.109,-0.032 0.223,-0.005 0.3,0.072 0.064,0.073 0.082,0.164 0.082,0.26 l 0,1.556 c 0.023,0.738 0.505,1.47 1.215,1.743 0.71,0.296 1.562,0.123 2.111,-0.418 0.384,-0.382 0.575,-0.837 0.597,-1.37 L -0.004,4.096 -1.488,3.067 0,2.003 0,0 Z" /></g><g
           transform="translate(33.9185,149.9464)"
           id="g94"><path
             id="path96"
             style="fill:#c66a56;fill-opacity:1;fill-rule:nonzero;stroke:none"
             d="m 0,0 c 0.011,-0.446 0.035,-0.95 0.362,-1.27 0.096,-0.091 0.289,-0.24 0.604,-0.24 0.312,0.011 0.506,0.149 0.603,0.229 0.422,0.389 0.374,1.018 0.374,1.533 l 0,0.743 L 0,0.995 0,0 m -4.841,3.718 9.057,0 0,-3.798 C 4.202,-1.361 4.135,-2.597 2.983,-3.455 2.658,-3.695 2.06,-4.027 1.058,-4.027 c -1.26,0 -2.019,0.549 -2.373,0.927 -0.676,0.675 -0.744,1.578 -0.786,2.471 l 0,1.659 -2.74,0 0,2.688 z" /></g><g
           transform="translate(31.9758,141.8005)"
           id="g98"><path
             id="path100"
             style="fill:#c66a56;fill-opacity:1;fill-rule:nonzero;stroke:none"
             d="M 0,0 C -0.116,0.332 -0.219,0.675 -0.334,1.018 L -0.411,1.27 c -0.025,0.126 -0.11,0.515 -0.597,0.515 -0.218,0 -0.615,-0.126 -0.615,-0.629 0,-0.069 0.029,-0.378 0.081,-0.538 C -1.414,0.16 -1.117,0.126 -0.987,0 L 0,0 m -2.908,-0.24 0.603,0.103 C -2.574,0.206 -3.1,0.835 -3.1,1.968 c 0,0.194 0.026,1.041 0.512,1.624 0.219,0.252 0.745,0.687 1.616,0.687 0.205,0 0.556,-0.057 0.991,-0.389 C 0.648,3.421 0.818,2.86 0.986,2.139 L 1.137,0.927 C 1.176,0.789 1.214,0.641 1.239,0.481 1.253,0.446 1.279,0.252 1.356,0.149 1.432,0.046 1.728,-0.034 1.869,-0.034 c 0.257,0 0.466,0.331 0.466,0.846 0,0.458 -0.166,0.675 -0.333,0.79 C 1.913,1.659 1.836,1.682 1.63,1.693 l 0.014,2.3 C 2.169,3.89 2.592,3.787 3.028,3.409 3.555,2.94 3.888,2.197 3.888,0.744 3.888,0.469 4.003,-0.652 3.452,-1.476 3.233,-1.808 2.976,-2.025 2.63,-2.174 2.091,-2.425 1.439,-2.357 0.874,-2.357 l -1.808,0 c -1.128,0.012 -1.332,-0.068 -1.974,-0.274 l 0,2.391 z" /></g><g
           transform="translate(29.0607,134.6385)"
           id="g102"><path
             id="path104"
             style="fill:#c66a56;fill-opacity:1;fill-rule:nonzero;stroke:none"
             d="M 0,0 3.208,0 C 2.826,0 4.461,-0.103 4.622,0.24 4.678,0.355 4.789,0.572 4.783,0.835 4.778,1.133 4.634,1.464 4.369,1.579 4.047,1.705 3.75,1.75 3.079,1.739 l -3.081,0 0,2.471 6.64,0 0,-2.334 L 5.867,1.842 C 6.259,1.522 6.766,1.144 6.766,-0.229 6.766,-1.236 6.415,-2.002 5.395,-2.311 5.138,-2.38 4.889,-2.414 4.36,-2.437 L 0,-2.437 0,0" /></g><g
           transform="translate(33.7801,120.9095)"
           id="g106"><path
             id="path108"
             style="fill:#c66a56;fill-opacity:1;fill-rule:nonzero;stroke:none"
             d="M 0,0 C 0.253,0.046 0.672,0.229 0.672,0.858 0.672,1.133 0.597,1.339 0.533,1.442 0.509,1.499 0.343,1.59 0.153,1.59 0.103,1.59 -0.048,1.545 -0.137,1.396 -0.189,1.304 -0.252,1.087 -0.28,0.835 l -0.253,-0.972 c -0.174,-0.687 -0.296,-1.282 -0.777,-1.762 -0.228,-0.24 -0.523,-0.366 -0.643,-0.401 -0.343,-0.114 -0.612,-0.057 -0.726,-0.057 -0.783,0 -1.254,0.378 -1.457,0.595 -0.43,0.469 -0.755,1.213 -0.755,2.574 0,1.133 0.298,1.842 0.543,2.266 0.524,0.903 1.489,0.949 1.792,1.006 L -2.548,1.728 C -2.776,1.705 -2.946,1.67 -3.11,1.487 -3.249,1.339 -3.345,1.178 -3.345,0.755 c 0,-0.503 0.242,-0.789 0.463,-0.801 0.026,-0.011 0.204,-0.011 0.292,0.057 0.19,0.115 0.27,0.424 0.384,0.87 0,0 0.295,1.373 0.345,1.476 0.141,0.309 0.422,1.556 1.813,1.556 0.783,0 1.2,-0.401 1.415,-0.629 C 1.734,2.86 2.075,2.162 2.075,0.915 2.075,0.641 2.088,-0.526 1.493,-1.396 1.329,-1.636 1.127,-1.831 0.887,-1.979 0.546,-2.185 0.138,-2.22 0,-2.242 L 0,0" /></g><g
           transform="translate(33.8293,114.2395)"
           id="g110"><path
             id="path112"
             style="fill:#c66a56;fill-opacity:1;fill-rule:nonzero;stroke:none"
             d="M 0,0 C 0.204,0.217 0.245,0.549 0.245,0.664 0.245,0.95 0.079,1.156 0.029,1.224 -0.213,1.522 -0.58,1.739 -1.405,1.739 -2.052,1.739 -3.136,1.59 -3.136,0.675 -3.136,0.412 -3.067,0.16 -2.877,0 -2.636,-0.217 -2.2,-0.446 -1.438,-0.435 -1.4,-0.435 -0.456,-0.446 0,0 m -4.009,-1.831 c -0.406,0.401 -0.939,1.225 -0.939,2.586 0,0.435 0.025,1.636 1.066,2.517 0.444,0.366 1.181,0.812 2.502,0.812 0.229,0 0.75,0 1.321,-0.217 1.447,-0.492 2.107,-1.831 2.094,-3.238 0,-0.377 -0.037,-1.556 -0.901,-2.402 -0.432,-0.424 -1.219,-0.961 -2.616,-0.95 -0.342,0 -1.638,0.023 -2.527,0.892" /></g><path
           id="path114"
           style="fill:#c66a56;fill-opacity:1;fill-rule:nonzero;stroke:none"
           d="m 38.194,101.597 -1.736,0 0,2.425 1.736,0 0,-2.425 z m -2.474,0 -6.671,0 0,2.425 6.671,0 0,-2.425 z" /><g
           transform="translate(33.1691,96.9295)"
           id="g116"><path
             id="path118"
             style="fill:#c66a56;fill-opacity:1;fill-rule:nonzero;stroke:none"
             d="m 0,0 c 0.801,0.183 0.841,0.572 0.841,1.007 0,0.354 -0.12,0.469 -0.22,0.583 -0.263,0.309 -0.589,0.412 -1.402,0.412 -0.062,0 -1.149,0.034 -1.562,-0.56 -0.113,-0.172 -0.12,-0.252 -0.12,-0.458 0,-0.069 -0.007,-0.275 0.08,-0.458 0.112,-0.24 0.318,-0.492 0.882,-0.537 l 0.019,-2.346 c -0.151,0.023 -0.683,0.115 -1.121,0.343 -1.163,0.584 -1.648,1.774 -1.648,2.975 0,0.492 0.074,0.835 0.112,1.041 0.238,0.95 0.901,1.785 1.852,2.151 0.287,0.103 0.725,0.24 1.452,0.24 0.3,0 1.075,-0.011 1.851,-0.434 C 1.141,3.901 1.454,3.707 1.741,3.432 2.618,2.54 2.643,1.213 2.643,0.892 2.643,-0.343 2.179,-1.11 1.829,-1.487 1.716,-1.602 1.414,-1.831 1.001,-2.014 0.664,-2.162 0.363,-2.242 0,-2.3 L 0,0" /></g><g
           transform="translate(30.3947,128.2545)"
           id="g120"><path
             id="path122"
             style="fill:#c66a56;fill-opacity:1;fill-rule:nonzero;stroke:none"
             d="m 0,0 c -0.051,0.16 -0.04,0.435 -0.037,0.503 0.028,0.412 0.403,0.63 0.622,0.63 0.487,0 0.566,-0.389 0.591,-0.515 L 1.249,0.355 C 1.365,0.023 1.462,-0.32 1.578,-0.652 L 0.73,-0.664 C 0.539,-0.561 0.128,-0.446 0,0 m 0.612,-3.032 1.804,0 c 0.564,0 1.323,0 1.861,0.24 0.346,0.161 0.538,0.275 0.756,0.607 0.551,0.824 0.447,2.036 0.447,2.311 0,1.453 -0.383,2.196 -0.909,2.666 -0.436,0.377 -0.863,0.457 -1.389,0.56 l 0,-2.299 C 3.388,1.041 3.464,1.007 3.555,0.961 3.721,0.835 3.93,0.652 3.93,0.195 3.93,-0.32 3.668,-0.652 3.412,-0.652 3.271,-0.652 3.041,-0.641 2.964,-0.538 2.887,-0.435 2.795,-0.172 2.782,-0.126 2.763,-0.011 2.729,0.137 2.681,0.32 L 2.528,1.522 C 2.361,2.242 2.215,2.803 1.587,3.272 1.151,3.615 0.753,3.615 0.548,3.615 -0.324,3.615 -0.827,3.238 -1.046,2.986 -1.532,2.403 -1.514,1.567 -1.514,1.361 c 0,-1.132 0.498,-1.727 0.767,-2.082 l -0.629,-0.103 0,-2.482 c 0.436,0.137 0.663,0.286 1.988,0.274" /></g><g
           transform="translate(29.0733,106.9517)"
           id="g124"><path
             id="path126"
             style="fill:#c66a56;fill-opacity:1;fill-rule:nonzero;stroke:none"
             d="M 0,0 3.229,0 C 2.846,0 4.461,-0.114 4.623,0.229 4.677,0.343 4.789,0.561 4.783,0.812 4.778,1.11 4.634,1.453 4.369,1.556 4.047,1.693 3.827,1.762 3.157,1.75 l -3.17,0.023 0.011,2.414 6.64,0 0,-2.322 L 5.867,1.831 C 6.259,1.51 6.766,1.133 6.766,-0.252 6.766,-1.247 6.343,-2.014 5.323,-2.322 5.066,-2.391 4.898,-2.403 4.369,-2.437 l -4.371,0 L 0,0" /></g><path
           id="path128"
           style="fill:#5e676a;fill-opacity:1;fill-rule:nonzero;stroke:none"
           d="m 103.106,157.97 3.664,0 0,-66.338 -3.664,0 0,66.338 z" /><g
           transform="translate(103.1056,93.4634)"
           id="g130"><path
             id="path132"
             style="fill:#231f20;fill-opacity:1;fill-rule:nonzero;stroke:none"
             d="m 0,0 0,9.22 c 0,1.007 0.824,1.831 1.832,1.831 1.007,0 1.832,-0.824 1.832,-1.831 L 3.664,0 C 3.664,-1.008 2.839,-1.832 1.832,-1.832 0.824,-1.832 0,-1.008 0,0" /></g><path
           id="path134"
           style="fill:#5e676a;fill-opacity:1;fill-rule:nonzero;stroke:none"
           d="m 123.125,157.97 3.664,0 0,-66.338 -3.664,0 0,66.338 z" /><g
           transform="translate(123.1249,140.6983)"
           id="g136"><path
             id="path138"
             style="fill:#231f20;fill-opacity:1;fill-rule:nonzero;stroke:none"
             d="m 0,0 0,9.22 c 0,1.007 0.824,1.831 1.832,1.831 l 0,0 c 1.007,0 1.832,-0.824 1.832,-1.831 l 0,-9.22 c 0,-1.008 -0.825,-1.832 -1.832,-1.832 l 0,0 C 0.824,-1.832 0,-1.008 0,0" /></g><g
           transform="translate(112.69,146.8807)"
           id="g140"><path
             id="path142"
             style="fill:#c66a56;fill-opacity:1;fill-rule:nonzero;stroke:none"
             d="M 0,0 6.673,0 3.337,6.281 0,0 Z" /></g><g
           transform="translate(112.69,95.7205)"
           id="g144"><path
             id="path146"
             style="fill:#c66a56;fill-opacity:1;fill-rule:nonzero;stroke:none"
             d="M 0,0 6.673,0 3.337,6.281 0,0 Z" /></g><g
           transform="translate(116.0265,145.8013)"
           id="g148"><path
             id="path150"
             style="fill:none;stroke:#c66a56;stroke-width:1;stroke-linecap:butt;stroke-linejoin:miter;stroke-miterlimit:10;stroke-dasharray:none;stroke-opacity:1"
             d="M 0,0 0,-29.767" /></g></g></g><text
       id="text152"
       style="font-style:italic;font-variant:normal;font-weight:normal;font-stretch:normal;font-size:14.91629982px;font-family:Arial;-inkscape-font-specification:Arial-ItalicMT;writing-mode:lr-tb;fill:#c66a56;fill-opacity:1;fill-rule:nonzero;stroke:none"
       transform="matrix(0,-0.85763225,-1,0,137.126,167.5215)"><tspan
         id="tspan154"
         y="0"
         x="0 9.949172 21.554054 35.63504 45.584213 56.353783 60.500511 69.3414 79.290573">POWER PAD</tspan></text>
<text
       id="text156"
       style="font-variant:normal;font-weight:bold;font-stretch:normal;font-size:9.42080021px;font-family:Arial;-inkscape-font-specification:Arial-BoldMT;writing-mode:lr-tb;fill:#c66a56;fill-opacity:1;fill-rule:nonzero;stroke:none"
       transform="matrix(0,-1,-1,0,82.0303,70.6963)"><tspan
         id="tspan158"
         y="0"
         x="0">B</tspan><tspan
         id="tspan160"
         y="-20.292402"
         x="-95.253708">B</tspan><tspan
         id="tspan162"
         y="-0.52756482"
         x="37.165054">A</tspan><tspan
         id="tspan164"
         y="-39.134003"
         x="-95.253708">A</tspan></text>
</g></svg>