<?xml version="1.0" encoding="UTF-8" standalone="no"?>
<!-- Generator: Adobe Illustrator 13.0.0, SVG Export Plug-In . SVG Version: 6.00 Build 14948)  -->

<svg
   xmlns:ns="&amp;ns_sfw;"
   xmlns:dc="http://purl.org/dc/elements/1.1/"
   xmlns:cc="http://creativecommons.org/ns#"
   xmlns:rdf="http://www.w3.org/1999/02/22-rdf-syntax-ns#"
   xmlns:svg="http://www.w3.org/2000/svg"
   xmlns="http://www.w3.org/2000/svg"
   xmlns:sodipodi="http://sodipodi.sourceforge.net/DTD/sodipodi-0.dtd"
   xmlns:inkscape="http://www.inkscape.org/namespaces/inkscape"
   version="1.2"
   id="Layer_3"
   x="0px"
   y="0px"
   width="477.92499"
   height="200.87"
   viewBox="0 0 477.92497 200.86999"
   xml:space="preserve"
   inkscape:version="0.91 r13725"
   sodipodi:docname="controller.svg"><defs
     id="defs49" /><sodipodi:namedview
     pagecolor="#ffffff"
     bordercolor="#666666"
     borderopacity="1"
     objecttolerance="10"
     gridtolerance="10"
     guidetolerance="10"
     inkscape:pageopacity="0"
     inkscape:pageshadow="2"
     inkscape:window-width="690"
     inkscape:window-height="480"
     id="namedview47"
     showgrid="false"
     fit-margin-top="0"
     fit-margin-left="0"
     fit-margin-right="0"
     fit-margin-bottom="0"
     inkscape:zoom="0.48145317"
     inkscape:cx="243.34951"
     inkscape:cy="98.588995"
     inkscape:window-x="0"
     inkscape:window-y="0"
     inkscape:window-maximized="0"
     inkscape:current-layer="Layer_3" /><metadata
     id="metadata55"><rdf:RDF><cc:Work
         rdf:about=""><dc:format>image/svg+xml</dc:format><dc:type
           rdf:resource="http://purl.org/dc/dcmitype/StillImage" /><dc:title></dc:title></cc:Work></rdf:RDF><ns:sfw><ns:slices /><ns:sliceSourceBounds
         x="717.15"
         y="440.91"
         width="477.926"
         height="200.871"
         bottomLeftOrigin="true" /></ns:sfw></metadata><path
     id="path3"
     d="m 21.264,15.694 c -4.303,0 -7.798,3.495 -7.798,7.798 l 0,27.028 0,125.116 c 0,4.303 3.496,7.822 7.798,7.822 l 433.85,0 c 4.304,0 7.799,-3.52 7.799,-7.822 l 0,-82.173 c 0,-4.303 -3.495,-7.798 -7.799,-7.798 l -258.872,0 c -2.768,0 -4.417,-0.694 -5.425,-1.792 -1.006,-1.099 -1.452,-2.73 -1.453,-4.844 l 0,-55.534 c 0,-4.303 -3.495,-7.798 -7.798,-7.798 l -35.165,0 c -4.303,0 -7.823,3.495 -7.823,7.798 l 0,14.628 c 0,1.271 -0.199,2.375 -0.678,3.076 -0.479,0.701 -1.221,1.139 -2.81,1.139 l -67.545,0 c -1.134,0 -1.88,-0.216 -2.398,-0.775 -0.517,-0.56 -0.896,-1.6 -0.896,-3.439 l 0,-14.628 c -0.006,-4.313 -3.525,-7.809 -7.829,-7.809 l -35.165,0 0.007,0.007 z m 0,1.55 35.166,0 c 3.465,0 6.272,2.783 6.272,6.249 l 0,14.628 c 0,2.048 0.414,3.513 1.308,4.48 0.894,0.968 2.171,1.284 3.536,1.284 l 67.545,0 c 1.929,0 3.323,-0.69 4.093,-1.816 0.77,-1.127 0.945,-2.535 0.945,-3.948 l 0,-14.629 c 0,-3.466 2.807,-6.249 6.273,-6.249 l 35.165,0 c 3.465,0 6.248,2.783 6.248,6.249 l 0,55.532 c 0.001,2.329 0.497,4.393 1.865,5.886 1.368,1.492 3.531,2.301 6.563,2.301 l 258.87,0 c 3.467,0 6.249,2.784 6.249,6.248 l 0,82.173 c 0,3.466 -2.782,6.271 -6.249,6.271 l -433.848,0 c -3.466,0 -6.249,-2.806 -6.249,-6.271 l 0,-125.115 0,-27.028 c 0,-3.465 2.783,-6.248 6.249,-6.248 l -0.001,0.003 z"
     inkscape:connector-curvature="0"
     style="fill:#f4f4f4" /><path
     id="path5"
     d="M 139.359,94.944"
     inkscape:connector-curvature="0"
     style="fill:none;stroke:#f4f4f4;stroke-width:1.54999995" /><path
     id="path7"
     d="m 197.282,19.956 c -4.304,0 -7.798,3.496 -7.798,7.798 l 0,48.873 c 0,4.303 3.495,7.797 7.798,7.797 l 80.894,0 c 4.304,0 7.799,-3.494 7.799,-7.797 l 0,-48.873 c 0,-4.306 -3.495,-7.801 -7.797,-7.801 l -80.894,0 -0.002,0.003 z m 0,1.55 80.894,0 c 3.466,0 6.249,2.783 6.249,6.248 l 0,48.873 c 0,3.466 -2.783,6.249 -6.249,6.249 l -80.894,0 c -3.466,0 -6.249,-2.783 -6.249,-6.249 l 0,-48.873 c 0.001,-3.465 2.783,-6.248 6.249,-6.248 z"
     inkscape:connector-curvature="0"
     style="fill:#f4f4f4" /><path
     id="circle9"
     d="m 198.762,24.752 c -2.667,0 -4.843,2.2 -4.843,4.868 0,2.668 2.176,4.844 4.843,4.844 2.668,0 4.868,-2.176 4.868,-4.844 0,-2.668 -2.2,-4.868 -4.868,-4.868 z m 0,1.55 c 1.831,0 3.318,1.488 3.318,3.318 0,1.83 -1.488,3.293 -3.318,3.293 -1.829,0 -3.293,-1.463 -3.293,-3.293 0,-1.83 1.464,-3.318 3.293,-3.318 z"
     inkscape:connector-curvature="0"
     style="fill:#f4f4f4" /><path
     id="circle11"
     d="m 217.649,24.752 c -2.667,0 -4.844,2.2 -4.844,4.868 0,2.668 2.177,4.844 4.844,4.844 2.667,0 4.843,-2.176 4.843,-4.844 0,-2.668 -2.175,-4.868 -4.843,-4.868 z m 0,1.55 c 1.83,0 3.293,1.488 3.293,3.318 0,1.83 -1.464,3.293 -3.293,3.293 -1.83,0 -3.293,-1.463 -3.293,-3.293 0,-1.83 1.463,-3.318 3.293,-3.318 z"
     inkscape:connector-curvature="0"
     style="fill:#f4f4f4" /><path
     id="circle13"
     d="m 236.52,24.752 c -2.667,0 -4.843,2.2 -4.843,4.868 0,2.668 2.176,4.844 4.843,4.844 2.667,0 4.868,-2.176 4.868,-4.844 0,-2.668 -2.201,-4.868 -4.868,-4.868 z m 0,1.55 c 1.83,0 3.318,1.488 3.318,3.318 0,1.83 -1.488,3.293 -3.318,3.293 -1.83,0 -3.293,-1.463 -3.293,-3.293 0,-1.83 1.463,-3.318 3.293,-3.318 z"
     inkscape:connector-curvature="0"
     style="fill:#f4f4f4" /><path
     id="circle15"
     d="m 255.406,24.752 c -2.668,0 -4.844,2.2 -4.844,4.868 0,2.668 2.176,4.844 4.844,4.844 2.668,0 4.843,-2.176 4.843,-4.844 0,-2.668 -2.175,-4.868 -4.843,-4.868 z m 0,1.55 c 1.829,0 3.293,1.488 3.293,3.318 0,1.83 -1.464,3.293 -3.293,3.293 -1.828,0 -3.294,-1.463 -3.294,-3.293 0,-1.83 1.466,-3.318 3.294,-3.318 z"
     inkscape:connector-curvature="0"
     style="fill:#f4f4f4" /><path
     id="circle17"
     d="m 208.039,35.504 c -2.667,0 -4.868,2.176 -4.868,4.844 0,2.667 2.2,4.843 4.868,4.843 2.668,0 4.844,-2.176 4.844,-4.843 -0.001,-2.668 -2.177,-4.844 -4.844,-4.844 z m 0,1.55 c 1.831,0 3.294,1.463 3.294,3.294 0,1.83 -1.463,3.293 -3.294,3.293 -1.83,0 -3.317,-1.463 -3.317,-3.293 -0.001,-1.83 1.487,-3.294 3.317,-3.294 z"
     inkscape:connector-curvature="0"
     style="fill:#f4f4f4" /><path
     id="circle19"
     d="m 226.902,35.504 c -2.667,0 -4.843,2.176 -4.843,4.844 0,2.667 2.176,4.843 4.843,4.843 2.667,0 4.844,-2.176 4.844,-4.843 0.001,-2.668 -2.176,-4.844 -4.844,-4.844 z m 0,1.55 c 1.83,0 3.293,1.463 3.293,3.294 0,1.83 -1.463,3.293 -3.293,3.293 -1.83,0 -3.293,-1.463 -3.293,-3.293 0,-1.83 1.463,-3.294 3.293,-3.294 z"
     inkscape:connector-curvature="0"
     style="fill:#f4f4f4" /><path
     id="circle21"
     d="m 245.797,35.504 c -2.668,0 -4.868,2.176 -4.868,4.844 0,2.667 2.2,4.843 4.868,4.843 2.668,0 4.845,-2.176 4.845,-4.843 0,-2.668 -2.177,-4.844 -4.845,-4.844 z m 0,1.55 c 1.83,0 3.295,1.463 3.295,3.294 0,1.83 -1.465,3.293 -3.295,3.293 -1.83,0 -3.318,-1.463 -3.318,-3.293 0,-1.83 1.488,-3.294 3.318,-3.294 z"
     inkscape:connector-curvature="0"
     style="fill:#f4f4f4" /><path
     id="circle23"
     d="m 264.66,35.504 c -2.668,0 -4.844,2.176 -4.844,4.844 0,2.667 2.176,4.843 4.844,4.843 2.668,0 4.844,-2.176 4.844,-4.843 0,-2.668 -2.176,-4.844 -4.844,-4.844 z m 0,1.55 c 1.83,0 3.294,1.463 3.294,3.294 0,1.83 -1.464,3.293 -3.294,3.293 -1.83,0 -3.293,-1.463 -3.293,-3.293 0,-1.83 1.463,-3.294 3.293,-3.294 z"
     inkscape:connector-curvature="0"
     style="fill:#f4f4f4" /><path
     id="circle25"
     d="m 208.039,56.962 c -2.667,0 -4.868,2.176 -4.868,4.844 0,2.668 2.2,4.844 4.868,4.844 2.668,0 4.844,-2.176 4.844,-4.844 -0.001,-2.668 -2.177,-4.844 -4.844,-4.844 z m 0,1.55 c 1.831,0 3.294,1.463 3.294,3.293 0,1.83 -1.463,3.293 -3.294,3.293 -1.83,0 -3.317,-1.463 -3.317,-3.293 0,-1.83 1.487,-3.293 3.317,-3.293 z"
     inkscape:connector-curvature="0"
     style="fill:#f4f4f4" /><path
     id="circle27"
     d="m 226.902,56.962 c -2.667,0 -4.843,2.176 -4.843,4.844 0,2.668 2.176,4.844 4.843,4.844 2.667,0 4.844,-2.176 4.844,-4.844 0.001,-2.668 -2.176,-4.844 -4.844,-4.844 z m 0,1.55 c 1.83,0 3.293,1.463 3.293,3.293 0,1.83 -1.463,3.293 -3.293,3.293 -1.83,0 -3.293,-1.463 -3.293,-3.293 0,-1.83 1.463,-3.293 3.293,-3.293 z"
     inkscape:connector-curvature="0"
     style="fill:#f4f4f4" /><path
     id="circle29"
     d="m 245.797,56.962 c -2.668,0 -4.868,2.176 -4.868,4.844 0,2.668 2.2,4.844 4.868,4.844 2.668,0 4.845,-2.176 4.845,-4.844 0,-2.668 -2.177,-4.844 -4.845,-4.844 z m 0,1.55 c 1.83,0 3.295,1.463 3.295,3.293 0,1.83 -1.465,3.293 -3.295,3.293 -1.83,0 -3.318,-1.463 -3.318,-3.293 0,-1.83 1.488,-3.293 3.318,-3.293 z"
     inkscape:connector-curvature="0"
     style="fill:#f4f4f4" /><path
     id="circle31"
     d="m 264.66,56.962 c -2.668,0 -4.844,2.176 -4.844,4.844 0,2.668 2.176,4.844 4.844,4.844 2.668,0 4.844,-2.176 4.844,-4.844 0,-2.668 -2.176,-4.844 -4.844,-4.844 z m 0,1.55 c 1.83,0 3.294,1.463 3.294,3.293 0,1.83 -1.464,3.293 -3.294,3.293 -1.83,0 -3.293,-1.463 -3.293,-3.293 0,-1.83 1.463,-3.293 3.293,-3.293 z"
     inkscape:connector-curvature="0"
     style="fill:#f4f4f4" /><path
     id="circle33"
     d="m 274.278,24.752 c -2.669,0 -4.844,2.2 -4.844,4.868 0,2.668 2.175,4.844 4.844,4.844 2.667,0 4.868,-2.176 4.868,-4.844 10e-4,-2.668 -2.201,-4.868 -4.868,-4.868 z m 0,1.55 c 1.83,0 3.318,1.488 3.318,3.318 0,1.83 -1.488,3.293 -3.318,3.293 -1.831,0 -3.294,-1.463 -3.294,-3.293 0,-1.83 1.463,-3.318 3.294,-3.318 z"
     inkscape:connector-curvature="0"
     style="fill:#f4f4f4" /><path
     id="circle35"
     d="m 198.762,45.943 c -2.667,0 -4.843,2.2 -4.843,4.868 0,2.667 2.176,4.844 4.843,4.844 2.668,0 4.868,-2.176 4.868,-4.844 0,-2.668 -2.2,-4.868 -4.868,-4.868 z m 0,1.549 c 1.831,0 3.318,1.488 3.318,3.318 0,1.83 -1.488,3.294 -3.318,3.294 -1.829,0 -3.293,-1.464 -3.293,-3.294 -0.001,-1.829 1.464,-3.318 3.293,-3.318 z"
     inkscape:connector-curvature="0"
     style="fill:#f4f4f4" /><path
     id="circle37"
     d="m 217.649,45.943 c -2.667,0 -4.844,2.2 -4.844,4.868 0,2.667 2.177,4.844 4.844,4.844 2.667,0 4.843,-2.176 4.843,-4.844 0,-2.668 -2.175,-4.868 -4.843,-4.868 z m 0,1.549 c 1.83,0 3.293,1.488 3.293,3.318 0,1.83 -1.464,3.294 -3.293,3.294 -1.83,0 -3.293,-1.464 -3.293,-3.294 0,-1.829 1.463,-3.318 3.293,-3.318 z"
     inkscape:connector-curvature="0"
     style="fill:#f4f4f4" /><path
     id="circle39"
     d="m 236.52,45.943 c -2.667,0 -4.843,2.2 -4.843,4.868 0,2.667 2.176,4.844 4.843,4.844 2.667,0 4.868,-2.176 4.868,-4.844 0,-2.668 -2.201,-4.868 -4.868,-4.868 z m 0,1.549 c 1.83,0 3.318,1.488 3.318,3.318 0,1.83 -1.488,3.294 -3.318,3.294 -1.83,0 -3.293,-1.464 -3.293,-3.294 -0.001,-1.829 1.463,-3.318 3.293,-3.318 z"
     inkscape:connector-curvature="0"
     style="fill:#f4f4f4" /><path
     id="circle41"
     d="m 255.406,45.943 c -2.668,0 -4.844,2.2 -4.844,4.868 0,2.667 2.176,4.844 4.844,4.844 2.668,0 4.843,-2.176 4.843,-4.844 0,-2.668 -2.175,-4.868 -4.843,-4.868 z m 0,1.549 c 1.829,0 3.293,1.488 3.293,3.318 0,1.83 -1.464,3.294 -3.293,3.294 -1.828,0 -3.294,-1.464 -3.294,-3.294 0,-1.829 1.466,-3.318 3.294,-3.318 z"
     inkscape:connector-curvature="0"
     style="fill:#f4f4f4" /><path
     id="circle43"
     d="m 274.278,45.943 c -2.669,0 -4.844,2.2 -4.844,4.868 0,2.667 2.175,4.844 4.844,4.844 2.667,0 4.868,-2.176 4.868,-4.844 10e-4,-2.668 -2.201,-4.868 -4.868,-4.868 z m 0,1.549 c 1.83,0 3.318,1.488 3.318,3.318 0,1.83 -1.488,3.294 -3.318,3.294 -1.831,0 -3.294,-1.464 -3.294,-3.294 0,-1.829 1.463,-3.318 3.294,-3.318 z"
     inkscape:connector-curvature="0"
     style="fill:#f4f4f4" /><path
     id="circle45"
     d="m 198.762,67.158 c -2.667,0 -4.843,2.176 -4.843,4.844 0,2.667 2.176,4.843 4.843,4.843 2.668,0 4.868,-2.176 4.868,-4.843 0,-2.668 -2.2,-4.844 -4.868,-4.844 z m 0,1.55 c 1.831,0 3.318,1.464 3.318,3.294 0,1.83 -1.488,3.293 -3.318,3.293 -1.829,0 -3.293,-1.464 -3.293,-3.293 -0.001,-1.83 1.464,-3.294 3.293,-3.294 z"
     inkscape:connector-curvature="0"
     style="fill:#f4f4f4" /><path
     id="circle47"
     d="m 217.649,67.158 c -2.667,0 -4.844,2.176 -4.844,4.844 0,2.667 2.177,4.843 4.844,4.843 2.667,0 4.843,-2.176 4.843,-4.843 0,-2.668 -2.175,-4.844 -4.843,-4.844 z m 0,1.55 c 1.83,0 3.293,1.464 3.293,3.294 0,1.83 -1.464,3.293 -3.293,3.293 -1.83,0 -3.293,-1.464 -3.293,-3.293 0,-1.83 1.463,-3.294 3.293,-3.294 z"
     inkscape:connector-curvature="0"
     style="fill:#f4f4f4" /><path
     id="circle49"
     d="m 236.52,67.158 c -2.667,0 -4.843,2.176 -4.843,4.844 0,2.667 2.176,4.843 4.843,4.843 2.667,0 4.868,-2.176 4.868,-4.843 0,-2.668 -2.201,-4.844 -4.868,-4.844 z m 0,1.55 c 1.83,0 3.318,1.464 3.318,3.294 0,1.83 -1.488,3.293 -3.318,3.293 -1.83,0 -3.293,-1.464 -3.293,-3.293 -0.001,-1.83 1.463,-3.294 3.293,-3.294 z"
     inkscape:connector-curvature="0"
     style="fill:#f4f4f4" /><path
     id="circle51"
     d="m 255.406,67.158 c -2.668,0 -4.844,2.176 -4.844,4.844 0,2.667 2.176,4.843 4.844,4.843 2.668,0 4.843,-2.176 4.843,-4.843 0,-2.668 -2.175,-4.844 -4.843,-4.844 z m 0,1.55 c 1.829,0 3.293,1.464 3.293,3.294 0,1.83 -1.464,3.293 -3.293,3.293 -1.828,0 -3.294,-1.464 -3.294,-3.293 0,-1.83 1.466,-3.294 3.294,-3.294 z"
     inkscape:connector-curvature="0"
     style="fill:#f4f4f4" /><path
     id="circle53"
     d="m 274.278,67.158 c -2.669,0 -4.844,2.176 -4.844,4.844 0,2.667 2.175,4.843 4.844,4.843 2.667,0 4.868,-2.176 4.868,-4.843 10e-4,-2.668 -2.201,-4.844 -4.868,-4.844 z m 0,1.55 c 1.83,0 3.318,1.464 3.318,3.294 0,1.83 -1.488,3.293 -3.318,3.293 -1.831,0 -3.294,-1.464 -3.294,-3.293 0,-1.83 1.463,-3.294 3.294,-3.294 z"
     inkscape:connector-curvature="0"
     style="fill:#f4f4f4" /><path
     id="path55"
     d="m 70.136,26.979 c -1.645,0 -3.003,1.358 -3.003,3.003 l 0,6.466 c 0,1.646 1.358,3.003 3.003,3.003 l 62.75,0 c 1.646,0 2.979,-1.357 2.979,-3.003 l 0,-6.466 c 0,-1.646 -1.333,-3.003 -2.979,-3.003 l -62.75,0 z m 0,1.55 62.75,0 c 0.809,0 1.429,0.645 1.429,1.453 l 0,6.466 c 0,0.808 -0.621,1.453 -1.429,1.453 l -62.75,0 c -0.808,0 -1.453,-0.646 -1.453,-1.453 l 0,-6.466 c 10e-4,-0.808 0.646,-1.453 1.453,-1.453 z"
     inkscape:connector-curvature="0"
     style="fill:#f4f4f4" /><path
     id="path57"
     d="m 79.39,26.979 c -1.645,0 -3.003,1.358 -3.003,3.003 l 0,6.103 c 0,1.646 1.358,3.003 3.003,3.003 l 24.243,0 c 1.646,0 3.003,-1.357 3.003,-3.003 l 0,-6.103 c 0,-1.646 -1.358,-3.003 -3.003,-3.003 l -24.243,0 z m 0,1.55 24.243,0 c 0.808,0 1.454,0.645 1.454,1.453 l 0,6.103 c 0,0.808 -0.646,1.453 -1.454,1.453 l -24.243,0 c -0.808,0 -1.453,-0.645 -1.453,-1.453 l 0,-6.103 c 0,-0.808 0.645,-1.453 1.453,-1.453 z"
     inkscape:connector-curvature="0"
     style="fill:#f4f4f4" /><path
     id="circle59"
     d="m 338.649,114.289 c -15.292,0 -27.706,12.414 -27.706,27.706 0,15.292 12.414,27.706 27.706,27.706 15.292,0 27.705,-12.414 27.705,-27.706 0,-15.292 -12.413,-27.706 -27.705,-27.706 z m 0,1.55 c 14.455,0 26.155,11.702 26.155,26.156 0,14.454 -11.7,26.156 -26.155,26.156 -14.454,0 -26.156,-11.702 -26.156,-26.156 0,-14.454 11.701,-26.156 26.156,-26.156 z"
     inkscape:connector-curvature="0"
     style="fill:#f4f4f4" /><path
     id="circle61"
     d="m 338.649,119.396 c -12.48,0 -22.621,10.114 -22.621,22.596 0,12.48 10.141,22.621 22.621,22.621 12.481,0 22.621,-10.141 22.621,-22.621 0,-12.482 -10.14,-22.596 -22.621,-22.596 z m 0,1.55 c 11.645,0 21.071,9.403 21.071,21.046 0,11.644 -9.427,21.071 -21.071,21.071 -11.644,0 -21.07,-9.428 -21.07,-21.071 0,-11.643 9.426,-21.046 21.07,-21.046 z"
     inkscape:connector-curvature="0"
     style="fill:#f4f4f4" /><path
     id="circle63"
     d="m 402.516,114.289 c -15.291,0 -27.706,12.414 -27.706,27.706 0,15.292 12.415,27.706 27.706,27.706 15.292,0 27.706,-12.414 27.706,-27.706 0,-15.292 -12.414,-27.706 -27.706,-27.706 z m 0,1.55 c 14.455,0 26.156,11.702 26.156,26.156 0,14.454 -11.701,26.156 -26.156,26.156 -14.454,0 -26.156,-11.702 -26.156,-26.156 0,-14.454 11.702,-26.156 26.156,-26.156 z"
     inkscape:connector-curvature="0"
     style="fill:#f4f4f4" /><path
     id="circle65"
     d="m 402.516,119.396 c -12.48,0 -22.62,10.114 -22.62,22.596 0,12.48 10.14,22.621 22.62,22.621 12.481,0 22.596,-10.141 22.596,-22.621 -0.001,-12.482 -10.115,-22.596 -22.596,-22.596 z m 0,1.55 c 11.645,0 21.046,9.403 21.046,21.046 0,11.644 -9.403,21.071 -21.046,21.071 -11.643,0 -21.07,-9.428 -21.07,-21.071 0,-11.643 9.427,-21.046 21.07,-21.046 z"
     inkscape:connector-curvature="0"
     style="fill:#f4f4f4" /><path
     id="path67"
     d="m 61.902,68.878 c -3.69,0 -6.709,2.995 -6.709,6.685 l 0,19.205 c 0,1.251 -0.127,1.826 -0.194,1.914 -0.033,0.043 -0.041,0.074 -0.242,0.121 -0.201,0.047 -0.569,0.073 -1.065,0.073 l -19.811,0 c -3.69,0 -6.684,3.019 -6.684,6.709 l 0,30.854 c 0,3.689 2.994,6.684 6.684,6.684 l 19.617,0 c 0.632,0 1.097,0.015 1.38,0.049 0.283,0.034 0.352,0.105 0.314,0.071 -0.036,-0.031 -0.02,-0.098 0,0.073 0.021,0.173 0,0.502 0,0.945 l 0,20.173 c 0,3.69 3.019,6.709 6.709,6.709 l 30.854,0 c 3.69,0 6.684,-3.019 6.684,-6.709 l 0,-20.101 c 0,-0.35 0.02,-0.638 0.048,-0.8 0.029,-0.161 0.051,-0.171 0.073,-0.193 0.044,-0.045 0.418,-0.236 1.501,-0.218 l 0.024,0 19.666,0 c 3.69,0 6.708,-2.994 6.708,-6.685 l 0,-30.854 c 0,-3.689 -3.018,-6.708 -6.708,-6.708 l -19.736,0 c -0.475,0 -0.813,-0.02 -1.018,-0.073 -0.205,-0.053 -0.265,-0.107 -0.314,-0.169 -0.1,-0.124 -0.243,-0.668 -0.243,-1.816 l 0,-19.256 c 0,-3.689 -2.994,-6.685 -6.684,-6.685 l -30.854,0.002 0,0 z m 0,1.549 30.854,0 c 2.852,0 5.134,2.283 5.134,5.135 l 0,19.254 c 0,1.219 0.014,2.082 0.581,2.785 0.284,0.352 0.714,0.593 1.139,0.702 0.424,0.11 0.87,0.122 1.405,0.122 l 19.738,0 c 2.852,0 5.159,2.306 5.159,5.159 l 0,30.854 c 0,2.852 -2.307,5.134 -5.159,5.134 l -19.666,0 c -1.215,-0.021 -2.056,0.084 -2.64,0.679 -0.292,0.296 -0.422,0.667 -0.485,1.017 -0.063,0.348 -0.072,0.696 -0.072,1.065 l 0,20.102 c 0,2.853 -2.282,5.159 -5.134,5.159 l -30.854,0 c -2.853,0 -5.159,-2.307 -5.159,-5.159 l 0,-20.174 c 0,-0.431 0.018,-0.763 -0.024,-1.114 -0.042,-0.351 -0.175,-0.773 -0.509,-1.065 -0.334,-0.292 -0.718,-0.384 -1.138,-0.436 -0.419,-0.051 -0.926,-0.073 -1.574,-0.073 l -19.616,0 c -2.853,0 -5.134,-2.281 -5.134,-5.134 l 0,-30.854 c 0,-2.853 2.281,-5.159 5.134,-5.159 l 19.81,0 c 0.541,0 0.983,0.003 1.405,-0.097 0.421,-0.098 0.86,-0.338 1.138,-0.702 0.556,-0.726 0.509,-1.564 0.509,-2.858 l 0,-19.205 c 0,-2.852 2.306,-5.134 5.159,-5.134 l -10e-4,-0.003 z"
     inkscape:connector-curvature="0"
     style="fill:#f4f4f4" /><path
     id="path69"
     d="m 61.757,73.504 c -1.01,0 -1.841,0.831 -1.841,1.841 l 0,25.938 c 0,0.171 -0.034,0.217 -0.097,0.217 l -26.06,0 c -1.009,0 -1.84,0.855 -1.84,1.865 l 0,31.098 c 0,1.009 0.831,1.84 1.84,1.84 l 26.01,0 0.025,0 c 0.094,0.008 0.157,0.034 0.145,0.024 -0.014,-0.012 -0.024,-0.053 -0.024,0.024 l 0,26.495 c 0,1.01 0.831,1.84 1.841,1.84 l 31.121,0 c 1.009,0 1.84,-0.83 1.84,-1.84 l 0,-26.495 c 0,-0.03 -0.078,-0.049 0.146,-0.049 l 26.035,0 c 1.01,0 1.841,-0.831 1.841,-1.84 l 0,-31.098 c 0,-1.009 -0.831,-1.865 -1.841,-1.865 l -26.059,0 c -0.054,0 -0.121,-0.042 -0.121,-0.193 l 0,-25.962 c 0,-1.01 -0.831,-1.841 -1.84,-1.841 l -31.121,0 0,0.001 z m 0,1.55 31.121,0 c 0.171,0 0.291,0.119 0.291,0.291 l 0,25.962 c 0,0.897 0.699,1.744 1.671,1.744 l 26.059,0 c 0.173,0 0.291,0.142 0.291,0.314 l 0,31.098 c 0,0.171 -0.118,0.29 -0.291,0.29 l -26.035,0 c -0.937,0 -1.695,0.78 -1.695,1.599 l 0,26.495 c 0,0.173 -0.12,0.29 -0.291,0.29 l -31.121,0 c -0.171,0 -0.291,-0.117 -0.291,-0.29 l 0,-26.496 c 0,-0.437 -0.177,-0.896 -0.509,-1.187 -0.331,-0.292 -0.744,-0.412 -1.162,-0.412 l -26.035,0 c -0.173,0 -0.291,-0.119 -0.291,-0.29 l 0,-31.098 c 0,-0.173 0.118,-0.314 0.291,-0.314 l 26.06,0 c 0.985,0 1.647,-0.893 1.647,-1.768 l 0,-25.938 c -10e-4,-0.171 0.119,-0.291 0.29,-0.29 l 0,0 z"
     inkscape:connector-curvature="0"
     style="fill:#f4f4f4" /><path
     id="circle71"
     d="m 77.33,106.972 c -6.629,0 -12.037,5.408 -12.037,12.037 0,6.629 5.408,12.012 12.037,12.012 6.628,0 12.012,-5.383 12.012,-12.012 0,-6.629 -5.384,-12.037 -12.012,-12.037 z m 0,1.55 c 5.791,0 10.462,4.695 10.462,10.487 0,5.791 -4.671,10.462 -10.462,10.462 -5.792,0 -10.487,-4.671 -10.487,-10.462 0,-5.792 4.695,-10.487 10.487,-10.487 z"
     inkscape:connector-curvature="0"
     style="fill:#f4f4f4" /><path
     id="path73"
     d="M 59.031,116.9"
     inkscape:connector-curvature="0"
     style="fill:none;stroke:#f4f4f4;stroke-width:1.54999995" /><path
     id="polygon75"
     d="m 48.849,107.795 -1.308,1.332 -9.324,9.324 -0.557,0.557 0.557,0.533 9.324,9.348 1.308,1.308 0,-1.864 0,-1.89 8.234,0 0.775,0 0,-0.774 0,-13.321 0,-0.775 -0.775,0 -8.234,0 0,-1.889 0,-1.89 0,0.001 z m -1.551,3.753 0,0.799 0,0.775 0.775,0 8.234,0 0,11.77 -8.234,0 -0.775,0 0,0.775 0,0.775 -7.435,-7.436 7.435,-7.458 0,0 z"
     inkscape:connector-curvature="0"
     style="fill:#f4f4f4" /><path
     id="polygon77"
     d="m 69.895,138.462 0,0.774 0,8.234 -1.889,0 -1.889,0 1.332,1.332 9.324,9.324 0.557,0.557 0.532,-0.557 9.349,-9.324 1.307,-1.332 -1.864,0 -1.889,0 0,-8.234 0,-0.774 -0.775,0 -13.321,0 -0.774,0 0,0 z m 1.55,1.549 11.77,0 0,8.234 0,0.774 0.775,0 0.775,0 -7.46,7.459 -7.435,-7.459 0.799,0 0.775,0 0,-0.774 10e-4,-8.234 0,0 z"
     inkscape:connector-curvature="0"
     style="fill:#f4f4f4" /><path
     id="polygon79"
     d="m 105.786,107.795 0,1.889 0,1.889 -8.234,0 -0.775,0 0,0.775 0,13.32 0,0.775 0.775,0 8.234,0 0,1.889 0,1.865 1.332,-1.309 9.324,-9.354 0.557,-0.535 -0.557,-0.559 -9.324,-9.322 -1.333,-1.334 0.001,0.011 z m 1.551,3.753 7.459,7.459 -7.459,7.436 0,-0.775 0,-0.775 -0.775,0 -8.235,0 0,-11.77 8.235,0 0.775,0 0,-0.775 0,-0.8 0,0 z"
     inkscape:connector-curvature="0"
     style="fill:#f4f4f4" /><path
     id="polygon81"
     d="m 77.33,79.344 -0.557,0.557 -9.324,9.324 -1.332,1.308 1.889,0 1.889,0 0,8.234 0,0.775 0.775,0 13.321,0 0.775,0 0,-0.775 0,-8.234 1.889,0 1.864,0 -1.308,-1.308 -9.348,-9.324 -0.533,-0.557 0,0 z m -0.025,2.18 7.46,7.459 -0.775,0 -0.775,0 0,0.775 0,8.234 -11.771,0 0,-8.234 0,-0.775 -0.775,0 -0.798,0 7.434,-7.459 0,0 z"
     inkscape:connector-curvature="0"
     style="fill:#f4f4f4" /><path
     id="path83"
     d="M 16.42,0 C 7.352,0 0,7.566 0,16.856 l 0,167.159 c 0,9.291 7.352,16.855 16.42,16.855 l 445.109,0 c 9.068,0 16.396,-7.564 16.396,-16.855 l 0,-167.159 C 477.925,7.566 470.593,0 461.527,0 L 16.417,0 16.42,0 Z m 0,1.55 445.109,0 c 8.207,0 14.847,6.831 14.847,15.306 l 0,167.159 c 0,8.476 -6.64,15.306 -14.847,15.306 l -445.109,0 c -8.208,0 -14.872,-6.828 -14.872,-15.306 l 0,-167.159 C 1.548,8.38 8.212,1.55 16.42,1.55 l 0,0 z"
     inkscape:connector-curvature="0"
     style="fill:#f4f4f4" /><path
     id="path85"
     d="m 239.178,96.828 c -5.3,0 -9.614,4.315 -9.614,9.615 l 0,0.774 0.775,0 17.679,0 0.775,0 0,-0.774 c 0,-5.3 -4.315,-9.615 -9.615,-9.615 z m 0,1.55 c 4.188,0 7.516,3.211 7.92,7.29 l -15.839,0 c 0.405,-4.079 3.73,-7.29 7.919,-7.29 z"
     inkscape:connector-curvature="0"
     style="fill:#f4f4f4" /><path
     id="path87"
     d="m 239.178,94.092 c -6.807,0 -12.327,5.544 -12.327,12.352 l 1.55,0 c 0,-5.97 4.809,-10.802 10.777,-10.802 5.971,0 10.802,4.833 10.802,10.802 l 1.55,0 c -0.001,-6.808 -5.544,-12.352 -12.352,-12.352 z"
     inkscape:connector-curvature="0"
     style="fill:#f4f4f4" /></svg>