<svg xmlns="http://www.w3.org/2000/svg" viewBox="0 0 421.97201 268.21375">
  <defs>
    <clipPath id="a">
      <path d="M0 214.571h200.129V0H0v214.571z"/>
    </clipPath>
    <clipPath id="b">
      <path d="M0 214.571h200.129V0H0v214.571z"/>
    </clipPath>
    <clipPath id="c">
      <path d="M0 172.02h172.02V0H0v172.02z"/>
    </clipPath>
  </defs>
  <g clip-path="url(#a)" transform="matrix(1.25,0,0,-1.25,0,268.21375)">
    <path fill="#cac2b5" d="M154.5794 74.8154H44.7784c-1.559 0-2.835 1.276-2.835 2.835v9.003c0 1.559 1.276 2.835 2.835 2.835h109.801c1.559 0 2.835-1.276 2.835-2.835v-9.003c0-1.559-1.276-2.835-2.835-2.835"/>
    <path fill="#efede1" d="M181.2666 83.152H19.1526c-1.559 0-2.834 1.276-2.834 2.835v125.75c0 1.559 1.275 2.834 2.834 2.834h162.114c1.559 0 2.835-1.275 2.835-2.834V85.987c0-1.559-1.276-2.835-2.835-2.835"/>
    <path fill="#d8d5cb" d="M173.1577 95.2732h-145.81c-.779 0-1.417.638-1.417 1.417v104.343c0 .779.638 1.417 1.417 1.417h145.81c.78 0 1.417-.638 1.417-1.417V96.6902c0-.779-.637-1.417-1.417-1.417"/>
  </g>
  <g clip-path="url(#b)" transform="matrix(1.25,0,0,-1.25,0,268.21375)">
    <path fill="none" stroke="#4f4c4d" stroke-width=".25" stroke-miterlimit="10" d="M153.0653 103.8857H47.4403c-7.795 0-14.173 6.378-14.173 14.173v61.606c0 7.795 6.378 14.173 14.173 14.173h105.625c7.795 0 14.173-6.378 14.173-14.173v-61.606c0-7.795-6.378-14.173-14.173-14.173z"/>
    <path fill="#e4dccb" d="M141.4103 65.884h-83.463l4.526 8.931h74.458l4.479-8.931z"/>
    <path fill="#efede0" d="M159.509 57.463H41.944v8.421h117.565v-8.421z"/>
    <path fill="#e4dccb" d="M191.6249 0H8.5039c-4.677 0-8.504 3.827-8.504 8.504v40.455c0 4.677 3.827 8.504 8.504 8.504h183.121c4.677 0 8.504-3.827 8.504-8.504V8.504c0-4.677-3.827-8.504-8.504-8.504"/>
    <path fill="#c0ba9f" d="M14.1035 15.3564c-1.218 0-2.215.997-2.215 2.215v22.32c0 1.218.997 2.215 2.215 2.215s2.215-.997 2.215-2.215v-22.32c0-1.218-.997-2.215-2.215-2.215m8.1253 0c-1.218 0-2.215.997-2.215 2.215v22.32c0 1.218.997 2.215 2.215 2.215s2.215-.997 2.215-2.215v-22.32c0-1.218-.997-2.215-2.215-2.215m7.9759 0c-1.218 0-2.215.997-2.215 2.215v22.32c0 1.218.997 2.215 2.215 2.215s2.215-.997 2.215-2.215v-22.32c0-1.218-.997-2.215-2.215-2.215m8.1252 0c-1.218 0-2.215.997-2.215 2.215v22.32c0 1.218.997 2.215 2.215 2.215s2.215-.997 2.215-2.215v-22.32c0-1.218-.997-2.215-2.215-2.215m7.5975 0c-1.218 0-2.215.997-2.215 2.215v22.32c0 1.218.997 2.215 2.215 2.215s2.215-.997 2.215-2.215v-22.32c0-1.218-.997-2.215-2.215-2.215m8.1253 0c-1.218 0-2.215.997-2.215 2.215v22.32c0 1.218.997 2.215 2.215 2.215s2.215-.997 2.215-2.215v-22.32c0-1.218-.997-2.215-2.215-2.215"/>
    <path fill="#666870" d="M188.5454 8.1831H69.9584c-1.559 0-2.835 1.276-2.835 2.835v35.427c0 1.559 1.276 2.835 2.835 2.835h118.587c1.559 0 2.835-1.276 2.835-2.835v-35.427c0-1.559-1.276-2.835-2.835-2.835"/>
    <path fill="none" stroke="#4f4c4d" stroke-width=".5" stroke-miterlimit="10" d="M188.5454 8.1831H69.9584c-1.559 0-2.835 1.276-2.835 2.835v35.427c0 1.559 1.276 2.835 2.835 2.835h118.587c1.559 0 2.835-1.276 2.835-2.835v-35.427c0-1.559-1.276-2.835-2.835-2.835z"/>
    <path fill="#201d1d" d="M122.3736 25.8304h-48.415c-.78 0-1.417.638-1.417 1.417v2.968c0 .779.637 1.417 1.417 1.417h48.415c.78 0 1.417-.638 1.417-1.417v-2.968c0-.779-.637-1.417-1.417-1.417"/>
    <path fill="#201d1d" d="M101.253 22.204H88.199v13.054h13.054V22.204z"/>
    <path fill="#525458" d="M84.562 22.204h-4.636v13.054h4.636V22.204z"/>
    <path fill="#201d1d" d="M179.0843 25.8304h-48.415c-.78 0-1.417.638-1.417 1.417v2.968c0 .779.637 1.417 1.417 1.417h48.415c.78 0 1.417-.638 1.417-1.417v-2.968c0-.779-.637-1.417-1.417-1.417"/>
    <path fill="#525458" d="M186.9229 25.6823h-3.115c-.78 0-1.418.638-1.418 1.417v3.116c0 .779.638 1.417 1.418 1.417h3.115c.78 0 1.417-.638 1.417-1.417v-3.116c0-.779-.637-1.417-1.417-1.417"/>
    <path fill="#201d1d" d="M185.3652 31.7064h1.558c.779 0 1.417-.638 1.417-1.417v-3.116c0-.779-.638-1.417-1.417-1.417l-1.558-.074"/>
    <path fill="#cac2b5" d="M188.34 10.638h-5.95v5.95h5.95v-5.95z"/>
    <path fill="#1f70c1" d="M187.76 11.323h-1.815v1.815h1.815v-1.815z"/>
  </g>
  <path fill="#fff" d="M57.215774 137.87469c-7.059735-.85426-12.960248-6.11086-14.760477-13.14969-.566579-2.21531-.58274-3.40231-.57776-42.434411.0057-44.578389-.08783-42.382845 1.980615-46.499246 1.467325-2.920116 4.47189-5.974163 7.336002-7.456819 4.151437-2.149061-1.965107-1.985633 74.169776-1.981747 57.25568.0029 68.86641.07063 70.13722.408988 6.15078 1.637672 10.92981 6.378756 12.69221 12.59142.50904 1.794397.5381 4.104203.5381 42.763304 0 38.113351-.035 40.993191-.51976 42.747681-1.67925 6.07797-6.34147 10.79622-12.49029 12.64041-1.64461.49326-5.55547.52506-69.16545.5625-37.082246.0218-68.28533-.0648-69.340186-.19239z"/>
  <path fill="#1f70c1" d="M51.495219 52.685581v4.040345h28.733657v-4.040345H51.495219zm32.804468 0v4.040345h40.946863s-4.18277-4.040345-9.72214-4.040345H84.299687zm48.979123 0v4.040345h24.77246l-1.47038-4.040345h-23.30208zm42.53284 0l-1.47011 4.040345h24.54697v-4.040345h-23.07686zm-124.316431 7.8565v4.040345h28.733657v-4.040345H51.495219zm32.804468.0057v4.034096h45.698573s-.53431-3.109219-1.46465-4.034096H84.299687zm48.979123 0v4.034096h27.4885l-1.36153-4.034096h-26.12697zm39.59183 0l-1.36101 4.034096h27.3781v-4.034068h-26.01709zm-113.118192 7.8508v4.045032h12.443908v-4.045032H59.752448zm32.804728 0v4.045032h12.443644v-4.045032H92.557176zm24.547494 0v4.045032h12.44365s.78999-2.136432.78999-4.045032h-13.23364zm24.43163 0v4.045032h22.06215l-1.47064-4.045032H141.5363zm28.62429 0l-1.47637 4.045032h22.17151v-4.045032h-20.69514zm-110.408142 7.86249v4.040345h12.443908v-4.040345H59.752448zm32.804728 0v4.040345H124.3412s2.65876-2.0729 3.50604-4.040345H92.557176zm48.979124 0v4.040345h12.4439v-2.249438l.78974 2.249178h22.79461l.8478-2.249178v2.249178h12.44338v-4.040085h-23.35911l-1.23994 3.422459-1.2454-3.422459H141.5363zm-81.783852 7.8565v4.040345h12.443908v-4.040345H59.752448zm32.804728 0v4.040345H127.8475c-.8478-1.960414-3.50604-4.040345-3.50604-4.040345H92.557176zm48.979124 0v4.040345h12.4439v-4.040345h-12.4439zm14.70454 0l1.50474 4.040345h17.09172l1.43002-4.040345h-20.02648zm22.17151 0v4.040345h12.44338v-4.040345h-12.44338zM59.752448 91.974072v4.039824h12.443908v-4.039824H59.752448zm32.804728 0v4.039824h12.443644v-4.039824H92.557176zm24.547494 0v4.039824h13.23364c0-1.90652-.78999-4.039824-.78999-4.039824h-12.44365zm24.43163 0v4.039824h12.4439v-4.039824h-12.4439zm17.52994 0l1.45866 4.039824h11.45836l1.46986-4.039824h-14.38688zm19.34611 0v4.039824h12.44338v-4.039824h-12.44338zM51.719929 99.831096v4.045554h28.733917v-4.045554H51.719929zm32.579758 0v4.045554h44.233923c.93034-.92722 1.46465-4.045554 1.46465-4.045554H84.299687zm49.204613 0v4.045554h20.47668v-4.045554H133.5043zm28.39307 0l1.49928 4.045554h5.82969l1.4071-4.045554h-8.73607zm16.51498 0v4.045554h20.70087v-4.045554h-20.70087zM51.719929 107.69307v4.04034h28.733917v-4.04034H51.719929zm32.579758 0v4.03409h31.224723c5.53963 0 9.72214-4.03409 9.72214-4.03409H84.299687zm49.204613 0v4.04034h20.47668v-4.04034H133.5043zm31.23592 0l1.44122 4.02915.24814.005 1.46465-4.0341-3.15401-.00052zm13.67213 0v4.04034h20.70087v-4.04034h-20.70087z"/>
  <g clip-path="url(#c)" transform="matrix(0.58858578,0,0,0.58858578,295.41144,141.65309) matrix(1.25,0,0,-1.25,0,215.025)">
    <path fill="#231f20" d="M172.0199 86.0099c0 47.502-38.508 86.01-86.01 86.01s-86.01-38.508-86.01-86.01 38.508-86.01 86.01-86.01 86.01 38.508 86.01 86.01"/>
    <path fill="#fff" d="M150.1937 36.812c-14.768-19.276-38.038-31.691-64.194-31.691-26.156 0-49.405 12.415-64.193 31.691-10.459 13.622-16.686 30.683-16.686 49.208 0 44.68 36.219 80.879 80.879 80.879 44.681 0 80.9-36.199 80.9-80.879 0-18.525-6.228-35.586-16.686-49.208h-.02zm-64.194 133.804c-46.716 0-84.596-37.879-84.596-84.596 0-46.717 37.88-84.596 84.596-84.596 46.737 0 84.597 37.879 84.597 84.596 0 46.717-37.86 84.596-84.597 84.596"/>
    <path fill="#6e6f71" d="M86.0001 59.9826c-14.373 0-26.017 11.664-26.017 26.037s11.644 26.037 26.017 26.037 26.037-11.664 26.037-26.037-11.664-26.037-26.037-26.037m18.307-23.171h45.906c10.459 13.622 16.686 30.684 16.686 49.208 0 44.681-36.218 80.88-80.899 80.88-44.661 0-80.88-36.199-80.88-80.88 0-18.524 6.228-35.586 16.686-49.208h43.337"/>
    <path fill="#1f70c1" d="M86.0001 61.9003c-13.325 0-24.12 10.795-24.12 24.12 0 13.325 10.795 24.119 24.12 24.119 13.325 0 24.139-10.794 24.139-24.119s-10.814-24.12-24.139-24.12m0 50.157c-14.373 0-26.017-11.665-26.017-26.037 0-14.373 11.644-26.038 26.017-26.038s26.037 11.665 26.037 26.038c0 14.372-11.664 26.037-26.037 26.037"/>
    <path fill="#918f90" d="M86.0001 63.4424c-12.455 0-22.558 10.122-22.558 22.577 0 12.456 10.103 22.558 22.558 22.558 12.475 0 22.577-10.102 22.577-22.558 0-12.455-10.102-22.577-22.577-22.577m0 46.697c-13.325 0-24.12-10.795-24.12-24.12 0-13.325 10.795-24.119 24.12-24.119 13.325 0 24.139 10.794 24.139 24.119s-10.814 24.12-24.139 24.12"/>
    <path fill="#4f4c4d" d="M86.0001 74.1182c-6.959 0-12.594 5.635-12.594 12.594s5.635 12.613 12.594 12.613 12.613-5.654 12.613-12.613-5.654-12.594-12.613-12.594m0 34.459c-12.455 0-22.558-10.102-22.558-22.557 0-12.455 10.103-22.578 22.558-22.578 12.475 0 22.577 10.123 22.577 22.578s-10.102 22.557-22.577 22.557"/>
    <path fill="none" stroke="#353132" stroke-width="1.977" stroke-miterlimit="10" d="M86.0001 74.1182c-6.959 0-12.594 5.635-12.594 12.594s5.635 12.613 12.594 12.613 12.613-5.654 12.613-12.613-5.654-12.594-12.613-12.594zm0 34.459c-12.455 0-22.558-10.102-22.558-22.557 0-12.455 10.103-22.578 22.558-22.578 12.475 0 22.577 10.123 22.577 22.578s-10.102 22.557-22.577 22.557z"/>
  </g>
  <path fill="#d40000" d="M364.4900508 259.86540556zm0-.75595603zm0-.74409015zm0 .37204508zm0 1.50004617zm0-.75596193zm0-1.4881685z"/>
</svg>
