<svg xmlns="http://www.w3.org/2000/svg" viewBox="0 0 499.99999 317.80988">
  <defs>
    <clipPath id="a">
      <path d="M0 214.571h200.129V0H0v214.571z"/>
    </clipPath>
    <clipPath id="b">
      <path d="M0 214.571h200.129V0H0v214.571z"/>
    </clipPath>
    <clipPath id="c">
      <path d="M0 172.02h172.02V0H0v172.02z"/>
    </clipPath>
  </defs>
  <g clip-path="url(#a)" transform="matrix(1.4811408,0,0,-1.4811408,0,317.80986)">
    <path fill="#cac2b5" d="M154.5794 74.8154H44.7784c-1.559 0-2.835 1.276-2.835 2.835v9.003c0 1.559 1.276 2.835 2.835 2.835h109.801c1.559 0 2.835-1.276 2.835-2.835v-9.003c0-1.559-1.276-2.835-2.835-2.835"/>
    <path fill="#efede1" d="M181.2666 83.152H19.1526c-1.559 0-2.834 1.276-2.834 2.835v125.75c0 1.559 1.275 2.834 2.834 2.834h162.114c1.559 0 2.835-1.275 2.835-2.834V85.987c0-1.559-1.276-2.835-2.835-2.835"/>
    <path fill="#d8d5cb" d="M173.1577 95.2732h-145.81c-.779 0-1.417.638-1.417 1.417v104.343c0 .779.638 1.417 1.417 1.417h145.81c.78 0 1.417-.638 1.417-1.417V96.6902c0-.779-.637-1.417-1.417-1.417"/>
  </g>
  <g clip-path="url(#b)" transform="matrix(1.4811408,0,0,-1.4811408,0,317.80986)">
    <path fill="none" stroke="#4f4c4d" stroke-width=".25" stroke-miterlimit="10" d="M153.0653 103.8857H47.4403c-7.795 0-14.173 6.378-14.173 14.173v61.606c0 7.795 6.378 14.173 14.173 14.173h105.625c7.795 0 14.173-6.378 14.173-14.173v-61.606c0-7.795-6.378-14.173-14.173-14.173z"/>
    <path fill="#e4dccb" d="M141.4103 65.884h-83.463l4.526 8.931h74.458l4.479-8.931z"/>
    <path fill="#efede0" d="M159.509 57.463H41.944v8.421h117.565v-8.421z"/>
    <path fill="#e4dccb" d="M191.6249 0H8.5039c-4.677 0-8.504 3.827-8.504 8.504v40.455c0 4.677 3.827 8.504 8.504 8.504h183.121c4.677 0 8.504-3.827 8.504-8.504V8.504c0-4.677-3.827-8.504-8.504-8.504"/>
    <path fill="#c0ba9f" d="M14.1035 15.3564c-1.218 0-2.215.997-2.215 2.215v22.32c0 1.218.997 2.215 2.215 2.215s2.215-.997 2.215-2.215v-22.32c0-1.218-.997-2.215-2.215-2.215m8.1253 0c-1.218 0-2.215.997-2.215 2.215v22.32c0 1.218.997 2.215 2.215 2.215s2.215-.997 2.215-2.215v-22.32c0-1.218-.997-2.215-2.215-2.215m7.9759 0c-1.218 0-2.215.997-2.215 2.215v22.32c0 1.218.997 2.215 2.215 2.215s2.215-.997 2.215-2.215v-22.32c0-1.218-.997-2.215-2.215-2.215m8.1252 0c-1.218 0-2.215.997-2.215 2.215v22.32c0 1.218.997 2.215 2.215 2.215s2.215-.997 2.215-2.215v-22.32c0-1.218-.997-2.215-2.215-2.215m7.5975 0c-1.218 0-2.215.997-2.215 2.215v22.32c0 1.218.997 2.215 2.215 2.215s2.215-.997 2.215-2.215v-22.32c0-1.218-.997-2.215-2.215-2.215m8.1253 0c-1.218 0-2.215.997-2.215 2.215v22.32c0 1.218.997 2.215 2.215 2.215s2.215-.997 2.215-2.215v-22.32c0-1.218-.997-2.215-2.215-2.215"/>
    <path fill="#666870" d="M188.5454 8.1831H69.9584c-1.559 0-2.835 1.276-2.835 2.835v35.427c0 1.559 1.276 2.835 2.835 2.835h118.587c1.559 0 2.835-1.276 2.835-2.835v-35.427c0-1.559-1.276-2.835-2.835-2.835"/>
    <path fill="none" stroke="#4f4c4d" stroke-width=".5" stroke-miterlimit="10" d="M188.5454 8.1831H69.9584c-1.559 0-2.835 1.276-2.835 2.835v35.427c0 1.559 1.276 2.835 2.835 2.835h118.587c1.559 0 2.835-1.276 2.835-2.835v-35.427c0-1.559-1.276-2.835-2.835-2.835z"/>
    <path fill="#201d1d" d="M122.3736 25.8304h-48.415c-.78 0-1.417.638-1.417 1.417v2.968c0 .779.637 1.417 1.417 1.417h48.415c.78 0 1.417-.638 1.417-1.417v-2.968c0-.779-.637-1.417-1.417-1.417"/>
    <path fill="#201d1d" d="M101.253 22.204H88.199v13.054h13.054V22.204z"/>
    <path fill="#525458" d="M84.562 22.204h-4.636v13.054h4.636V22.204z"/>
    <path fill="#201d1d" d="M179.0843 25.8304h-48.415c-.78 0-1.417.638-1.417 1.417v2.968c0 .779.637 1.417 1.417 1.417h48.415c.78 0 1.417-.638 1.417-1.417v-2.968c0-.779-.637-1.417-1.417-1.417"/>
    <path fill="#525458" d="M186.9229 25.6823h-3.115c-.78 0-1.418.638-1.418 1.417v3.116c0 .779.638 1.417 1.418 1.417h3.115c.78 0 1.417-.638 1.417-1.417v-3.116c0-.779-.637-1.417-1.417-1.417"/>
    <path fill="#201d1d" d="M185.3652 31.7064h1.558c.779 0 1.417-.638 1.417-1.417v-3.116c0-.779-.638-1.417-1.417-1.417l-1.558-.074"/>
    <path fill="#cac2b5" d="M188.34 10.638h-5.95v5.95h5.95v-5.95z"/>
    <path fill="#1f70c1" d="M187.76 11.323h-1.815v1.815h1.815v-1.815z"/>
  </g>
  <path fill="#fff" d="M67.795696 163.36946c-8.36517-1.01223-15.356762-7.24084-17.489876-15.58124-.671347-2.62495-.690496-4.03144-.684596-50.281067.0068-52.821499-.10407-50.219971 2.346856-55.097547 1.738652-3.460082 5.298799-7.078861 8.692522-8.835679 4.91909-2.546449-2.32848-2.352801 87.884708-2.348197 67.84298.0034 81.60068.08369 83.10648.484615 7.28814 1.940499 12.95087 7.558269 15.03916 14.919733.60317 2.126204.6376 4.863122.6376 50.670781 0 45.160991-.0415 48.573351-.61587 50.652271-1.98976 7.20186-7.51409 12.79257-14.7999 14.97778-1.94872.58447-6.58275.62215-81.95502.66651-43.93922.0258-80.912152-.0768-82.162064-.22796z"/>
  <path fill="#1f70c1" d="M61.017338 62.427803v4.787456h34.046874v-4.787456H61.017338zm38.87043 0v4.787456h48.518452s-4.95621-4.787456-11.51988-4.787456H99.887768zm58.035982 0v4.787456h29.3532l-1.74227-4.787456h-27.61093zm50.3977 0l-1.74195 4.787456h29.08602v-4.787456h-27.34407zM61.017338 71.73707v4.787456h34.046874V71.73707H61.017338zm38.87043.0068v4.780051h54.148822s-.63311-3.684153-1.73549-4.780051H99.887768zm58.035982 0v4.780051h32.57147l-1.61329-4.780051h-30.95818zm46.91286 0l-1.61268 4.780051h32.44066v-4.780018h-30.82798zM70.801433 81.046382v4.79301h14.744944v-4.79301H70.801433zm38.870737 0v4.79301h14.74463v-4.79301h-14.74463zm29.08664 0v4.79301h14.74464s.93607-2.531485.93607-4.79301h-15.68071zm28.94935 0v4.79301h26.14172l-1.74258-4.79301h-24.39914zm33.91728 0l-1.74937 4.79301h26.2713v-4.79301h-24.52193zM70.801433 90.362746v4.787456h14.744944v-4.787456H70.801433zm38.870737 0v4.787456h37.66129s3.1504-2.456205 4.15436-4.787456h-41.81565zm58.03599 0v4.787456h14.74493v-2.665387l.93577 2.665079h27.00963l1.00457-2.665079v2.665079h14.74431v-4.787148h-27.6785l-1.46922 4.055315-1.47569-4.055315h-27.8158zm-96.906727 9.309267v4.787457h14.744944v-4.787457H70.801433zm38.870737 0v4.787457h41.81595c-1.00457-2.32292-4.15435-4.787457-4.15435-4.787457h-37.6616zm58.03599 0v4.787457h14.74493v-4.787457h-14.74493zm17.42359 0l1.78299 4.787457h20.25219l1.69445-4.787457h-23.72963zm26.27131 0v4.787457h14.74431v-4.787457h-14.74431zM70.801433 108.98128v4.78684h14.744944v-4.78684H70.801433zm38.870737 0v4.78684h14.74463v-4.78684h-14.74463zm29.08664 0v4.78684h15.68071c0-2.25906-.93607-4.78684-.93607-4.78684h-14.74464zm28.94935 0v4.78684h14.74493v-4.78684h-14.74493zm20.77144 0l1.72839 4.78684h13.57715l1.74166-4.78684h-17.0472zm22.92346 0v4.78684h14.74431v-4.78684h-14.74431zm-150.119461 9.30989v4.79363h34.047183v-4.79363H61.283599zm38.604169 0v4.79363H152.3011c1.10238-1.09868 1.73549-4.79363 1.73549-4.79363H99.887768zm58.303172 0v4.79363h24.26308v-4.79363h-24.26308zm33.64331 0l1.77651 4.79363h6.90768l1.66729-4.79363h-10.35148zm19.56881 0v4.79363h24.52872v-4.79363h-24.52872zm-150.119461 9.31575v4.78745h34.047183v-4.78745H61.283599zm38.604169 0v4.78004h36.998572c6.56398 0 11.51988-4.78004 11.51988-4.78004H99.887768zm58.303172 0v4.78745h24.26308v-4.78745h-24.26308zm37.01183 0l1.70772 4.77419.29403.006 1.73548-4.78006-3.73723-.00061zm16.20029 0v4.78745h24.52872v-4.78745h-24.52872z"/>
  <g clip-path="url(#c)" transform="matrix(0.87177844,0,0,-0.87177844,350.03676,317.80986)">
    <path fill="#231f20" d="M172.0199 86.0099c0 47.502-38.508 86.01-86.01 86.01s-86.01-38.508-86.01-86.01 38.508-86.01 86.01-86.01 86.01 38.508 86.01 86.01"/>
    <path fill="#fff" d="M150.1937 36.812c-14.768-19.276-38.038-31.691-64.194-31.691-26.156 0-49.405 12.415-64.193 31.691-10.459 13.622-16.686 30.683-16.686 49.208 0 44.68 36.219 80.879 80.879 80.879 44.681 0 80.9-36.199 80.9-80.879 0-18.525-6.228-35.586-16.686-49.208h-.02zm-64.194 133.804c-46.716 0-84.596-37.879-84.596-84.596 0-46.717 37.88-84.596 84.596-84.596 46.737 0 84.597 37.879 84.597 84.596 0 46.717-37.86 84.596-84.597 84.596"/>
    <path fill="#6e6f71" d="M86.0001 59.9826c-14.373 0-26.017 11.664-26.017 26.037s11.644 26.037 26.017 26.037 26.037-11.664 26.037-26.037-11.664-26.037-26.037-26.037m18.307-23.171h45.906c10.459 13.622 16.686 30.684 16.686 49.208 0 44.681-36.218 80.88-80.899 80.88-44.661 0-80.88-36.199-80.88-80.88 0-18.524 6.228-35.586 16.686-49.208h43.337"/>
    <path fill="#1f70c1" d="M86.0001 61.9003c-13.325 0-24.12 10.795-24.12 24.12 0 13.325 10.795 24.119 24.12 24.119 13.325 0 24.139-10.794 24.139-24.119s-10.814-24.12-24.139-24.12m0 50.157c-14.373 0-26.017-11.665-26.017-26.037 0-14.373 11.644-26.038 26.017-26.038s26.037 11.665 26.037 26.038c0 14.372-11.664 26.037-26.037 26.037"/>
    <path fill="#918f90" d="M86.0001 63.4424c-12.455 0-22.558 10.122-22.558 22.577 0 12.456 10.103 22.558 22.558 22.558 12.475 0 22.577-10.102 22.577-22.558 0-12.455-10.102-22.577-22.577-22.577m0 46.697c-13.325 0-24.12-10.795-24.12-24.12 0-13.325 10.795-24.119 24.12-24.119 13.325 0 24.139 10.794 24.139 24.119s-10.814 24.12-24.139 24.12"/>
    <path fill="#4f4c4d" d="M86.0001 74.1182c-6.959 0-12.594 5.635-12.594 12.594s5.635 12.613 12.594 12.613 12.613-5.654 12.613-12.613-5.654-12.594-12.613-12.594m0 34.459c-12.455 0-22.558-10.102-22.558-22.557 0-12.455 10.103-22.578 22.558-22.578 12.475 0 22.577 10.123 22.577 22.578s-10.102 22.557-22.577 22.557"/>
    <path fill="none" stroke="#353132" stroke-width="1.977" stroke-miterlimit="10" d="M86.0001 74.1182c-6.959 0-12.594 5.635-12.594 12.594s5.635 12.613 12.594 12.613 12.613-5.654 12.613-12.613-5.654-12.594-12.613-12.594zm0 34.459c-12.455 0-22.558-10.102-22.558-22.557 0-12.455 10.103-22.578 22.558-22.578 12.475 0 22.577 10.123 22.577 22.578s-10.102 22.557-22.577 22.557z"/>
  </g>
  <path fill="#d40000" d="M431.88888 307.9178zm0-.89574zm0-.88168zm0 .44084zm0 1.77742zm0-.89575zm0-1.76335z"/>
</svg>
