<svg xmlns="http://www.w3.org/2000/svg" width="215.02499" height="215.02499">
  <defs>
    <clipPath id="a">
      <path d="M0 172.02h172.02V0H0v172.02z"/>
    </clipPath>
  </defs>
  <g clip-path="url(#a)" transform="matrix(1.25,0,0,-1.25,0,215.025)">
    <path fill="#231f20" d="M172.0199 86.0099c0 47.502-38.508 86.01-86.01 86.01s-86.01-38.508-86.01-86.01 38.508-86.01 86.01-86.01 86.01 38.508 86.01 86.01"/>
    <path fill="#fff" d="M150.1937 36.812c-14.768-19.276-38.038-31.691-64.194-31.691-26.156 0-49.405 12.415-64.193 31.691-10.459 13.622-16.686 30.683-16.686 49.208 0 44.68 36.219 80.879 80.879 80.879 44.681 0 80.9-36.199 80.9-80.879 0-18.525-6.228-35.586-16.686-49.208h-.02zm-64.194 133.804c-46.716 0-84.596-37.879-84.596-84.596 0-46.717 37.88-84.596 84.596-84.596 46.737 0 84.597 37.879 84.597 84.596 0 46.717-37.86 84.596-84.597 84.596"/>
    <path fill="#6e6f71" d="M86.0001 59.9826c-14.373 0-26.017 11.664-26.017 26.037s11.644 26.037 26.017 26.037 26.037-11.664 26.037-26.037-11.664-26.037-26.037-26.037m18.307-23.171h45.906c10.459 13.622 16.686 30.684 16.686 49.208 0 44.681-36.218 80.88-80.899 80.88-44.661 0-80.88-36.199-80.88-80.88 0-18.524 6.228-35.586 16.686-49.208h43.337"/>
    <path fill="#1f70c1" d="M86.0001 61.9003c-13.325 0-24.12 10.795-24.12 24.12 0 13.325 10.795 24.119 24.12 24.119 13.325 0 24.139-10.794 24.139-24.119s-10.814-24.12-24.139-24.12m0 50.157c-14.373 0-26.017-11.665-26.017-26.037 0-14.373 11.644-26.038 26.017-26.038s26.037 11.665 26.037 26.038c0 14.372-11.664 26.037-26.037 26.037"/>
    <path fill="#918f90" d="M86.0001 63.4424c-12.455 0-22.558 10.122-22.558 22.577 0 12.456 10.103 22.558 22.558 22.558 12.475 0 22.577-10.102 22.577-22.558 0-12.455-10.102-22.577-22.577-22.577m0 46.697c-13.325 0-24.12-10.795-24.12-24.12 0-13.325 10.795-24.119 24.12-24.119 13.325 0 24.139 10.794 24.139 24.119s-10.814 24.12-24.139 24.12"/>
    <path fill="#4f4c4d" d="M86.0001 74.1182c-6.959 0-12.594 5.635-12.594 12.594s5.635 12.613 12.594 12.613 12.613-5.654 12.613-12.613-5.654-12.594-12.613-12.594m0 34.459c-12.455 0-22.558-10.102-22.558-22.557 0-12.455 10.103-22.578 22.558-22.578 12.475 0 22.577 10.123 22.577 22.578s-10.102 22.557-22.577 22.557"/>
    <path fill="none" stroke="#353132" stroke-width="1.977" stroke-miterlimit="10" d="M86.0001 74.1182c-6.959 0-12.594 5.635-12.594 12.594s5.635 12.613 12.594 12.613 12.613-5.654 12.613-12.613-5.654-12.594-12.613-12.594zm0 34.459c-12.455 0-22.558-10.102-22.558-22.557 0-12.455 10.103-22.578 22.558-22.578 12.475 0 22.577 10.123 22.577 22.578s-10.102 22.557-22.577 22.557z"/>
  </g>
  <path fill="#d40000" d="M117.36371 200.84127zm0-1.28436zm0-1.2642zm0 .6321zm0 2.54856zm0-1.28437zm0-2.52838z"/>
</svg>
