<svg xmlns="http://www.w3.org/2000/svg" viewBox="9 203.4 956.76327 386.686">
  <defs>
    <clipPath id="a">
      <path d="M0 143.379h228.894V0H0v143.379z"/>
    </clipPath>
  </defs>
  <path fill="none" d="M9 203.4559839h629.90002v386.60001H9z"/>
  <path fill="#9d9b91" d="M629.4618 219.4984939v-5.5h-615.9c-1.1 0-2.1.8-2.1 1.9v103.6c0 1 .9 1.9 2.1 1.9h4.9v4h611v-6.4h5.4c1.1 0 2.1-.8 2.1-1.9v-95.5c0-1.1-.8-2.1-1.9-2.1h-5.6z"/>
  <path fill="#424242" d="M15.506 325.2859939c-1.1 0-2.1.9-2.1 2.1v260.6c0 1.1 1 2.1 2.1 2.1h616.9c1.1 0 2.1-.9 2.1-2.1v-260.6c0-1.1-.9-2.1-2.1-2.1h-616.9z"/>
  <path fill="#5c5343" d="M44.373 393.3939939h20c1.1 0 1.9.9 1.9 2v20c0 1.1-.8 2-1.9 2h-20c-1.1 0-2-.9-2-2v-20c0-1.1.9-2 2-2"/>
  <path fill="#e4ddc4" d="M74.143 393.3939939h20c1.1 0 2 .9 2 2v20c0 1.1-.9 2-2 2h-20c-1.1 0-2-.9-2-2v-20c.1-1.1.9-2 2-2m29.869 0h20c1.1 0 2 .9 2 2v20c0 1.1-.9 2-2 2h-20c-1.1 0-2-.9-2-2v-20c0-1.1.9-2 2-2m29.872 0h20c1.1 0 2 .9 2 2v20c0 1.1-.9 2-2 2h-20c-1.1 0-1.9-.9-1.9-2v-20c-.1-1.1.8-2 1.9-2m29.763 0h20c1.1 0 1.9.9 1.9 2v20c0 1.1-.8 2-1.9 2h-20c-1.1 0-1.9-.9-1.9-2v-20c0-1.1.8-2 1.9-2m29.871 0h20c1.1 0 1.9.9 1.9 2v20c0 1.1-.8 2-1.9 2h-20c-1.1 0-1.9-.9-1.9-2v-20c0-1.1.8-2 1.9-2m29.898 0h20c1.1 0 1.9.9 1.9 2v20c0 1.1-.8 2-1.9 2h-20c-1.1 0-2-.9-2-2v-20c0-1.1.9-2 2-2m29.771 0h20c1.1 0 2 .9 2 2v20c0 1.1-.9 2-2 2h-20c-1.1 0-2-.9-2-2v-20c.1-1.1 1-2 2-2m29.863 0h20c1.1 0 2 .9 2 2v20c0 1.1-.9 2-2 2h-20c-1.1 0-1.9-.9-1.9-2v-20c0-1.1.8-2 1.9-2m29.871 0h20c1.1 0 2 .9 2 2v20c0 1.1-.9 2-2 2h-20c-1.1 0-1.9-.9-1.9-2v-20c-.1-1.1.8-2 1.9-2z"/>
  <path fill="#5c5343" d="M518.574 350.4309939h20c1.1 0 2 .8 2 1.9v20c0 1.1-.9 1.9-2 1.9h-20c-1.1 0-2-.8-2-1.9v-20c0-1 .9-1.9 2-1.9m29.863 0h20c1.1 0 2 .8 2 1.9v20c0 1.1-.9 1.9-2 1.9h-20c-1.1 0-1.9-.8-1.9-1.9v-20c-.1-1 .8-1.9 1.9-1.9m29.871 0h20c1.1 0 1.9.8 1.9 1.9v20c0 1.1-.8 1.9-1.9 1.9h-20c-1.1 0-1.9-.8-1.9-1.9v-20c-.1-1 .8-1.9 1.9-1.9"/>
  <path fill="#e4ddc4" d="M342.692 393.3939939h20c1.1 0 1.9.9 1.9 2v20c0 1.1-.8 2-1.9 2h-20c-1.1 0-1.9-.9-1.9-2v-20c0-1.1.9-2 1.9-2m29.871 0h20c1.1 0 1.9.9 1.9 2v20c0 1.1-.8 2-1.9 2h-20c-1.1 0-1.9-.9-1.9-2v-20c0-1.1.8-2 1.9-2m29.897 0h20c1.1 0 1.9.9 1.9 2v20c0 1.1-.8 2-1.9 2h-20c-1.1 0-2-.9-2-2v-20c0-1.1.9-2 2-2m29.862 0h20c1.1 0 2 .9 2 2v20c0 1.1-.9 2-2 2h-20c-1.1 0-2-.9-2-2v-20c0-1.1.9-2 2-2"/>
  <path fill="#5c5343" d="M462.095 393.3939939h20c1.1 0 2 .9 2 2v20c0 1.1-.9 2-2 2h-20c-1.1 0-1.9-.9-1.9-2v-20c0-1.1.8-2 1.9-2m-402.52 59.705h26.5c1.1 0 2 .8 2 1.9v20c0 1.1-.9 2-2 2h-26.5c-1.1 0-2-.9-2-2v-20c0-1 .9-1.9 2-1.9"/>
  <path fill="#e4ddc4" d="M95.978 453.0989939h20c1.1 0 2 .8 2 1.9v20c0 1.1-.9 2-2 2h-20c-1.1 0-1.9-.9-1.9-2v-20c0-1 .8-1.9 1.9-1.9m29.873 0h20c1.1 0 1.9.8 1.9 1.9v20c0 1.1-.8 2-1.9 2h-20c-1.1 0-1.9-.9-1.9-2v-20c-.1-1 .8-1.9 1.9-1.9m29.763 0h20c1.1 0 1.9.8 1.9 1.9v20c0 1.1-.8 2-1.9 2h-20c-1.1 0-1.9-.9-1.9-2v-20c0-1 .8-1.9 1.9-1.9m29.897 0h20c1.1 0 1.9.8 1.9 1.9v20c0 1.1-.8 2-1.9 2h-20c-1.1 0-2-.9-2-2v-20c0-1 .9-1.9 2-1.9m29.871 0h20c1.1 0 2 .8 2 1.9v20c0 1.1-.9 2-2 2h-20c-1.1 0-2-.9-2-2v-20c0-1 .9-1.9 2-1.9m29.771 0h20c1.1 0 2 .8 2 1.9v20c0 1.1-.9 2-2 2h-20c-1.1 0-2-.9-2-2v-20c.1-1 .9-1.9 2-1.9m29.863 0h20c1.1 0 2 .8 2 1.9v20c0 1.1-.9 2-2 2h-20c-1.1 0-1.9-.9-1.9-2v-20c0-1 .8-1.9 1.9-1.9m29.872 0h20c1.1 0 1.9.8 1.9 1.9v20c0 1.1-.8 2-1.9 2h-20c-1.1 0-1.9-.9-1.9-2v-20c-.1-1 .8-1.9 1.9-1.9m29.771 0h20c1.1 0 1.9.8 1.9 1.9v20c0 1.1-.8 2-1.9 2h-20c-1.1 0-1.9-.9-1.9-2v-20c0-1 .9-1.9 1.9-1.9m29.896 0h20c1.1 0 1.9.8 1.9 1.9v20c0 1.1-.8 2-1.9 2h-20c-1.1 0-2-.9-2-2v-20c0-1 .9-1.9 2-1.9m29.871 0h20c1.1 0 2 .8 2 1.9v20c0 1.1-.9 2-2 2h-20c-1.1 0-2-.9-2-2v-20c0-1 .9-1.9 2-1.9m29.764 0h20c1.1 0 2 .8 2 1.9v20c0 1.1-.9 2-2 2h-20c-1.1 0-1.9-.9-1.9-2v-20c0-1 .9-1.9 1.9-1.9"/>
  <path fill="#099a65" d="M454.06 453.0989939h20c1.1 0 1.9.8 1.9 1.9v20c0 1.1-.8 2-1.9 2h-20c-1.1 0-1.9-.9-1.9-2v-20c0-1 .8-1.9 1.9-1.9"/>
  <path fill="#5c5343" d="M66.109 482.9289939h34.1c1.1 0 2 .9 2 2v20c0 1.1-.9 2-2 2h-34.1c-1.1 0-2-.9-2-2v-20c.1-1.1.9-2 2-2"/>
  <path fill="#e4ddc4" d="M110.044 482.9289939h20c1.1 0 1.9.9 1.9 2v20c0 1.1-.8 2-1.9 2h-20c-1.1 0-1.9-.9-1.9-2v-20c0-1.1.8-2 1.9-2m29.868 0h20c1.1 0 1.9.9 1.9 2v20c0 1.1-.8 2-1.9 2h-20c-1.1 0-1.9-.9-1.9-2v-20c-.1-1.1.8-2 1.9-2m29.897 0h20c1.1 0 1.9.9 1.9 2v20c0 1.1-.8 2-1.9 2h-20c-1.1 0-2-.9-2-2v-20c0-1.1.9-2 2-2m29.771 0h20c1.1 0 2 .9 2 2v20c0 1.1-.9 2-2 2h-20c-1.1 0-2-.9-2-2v-20c0-1.1.9-2 2-2m29.871 0h20c1.1 0 2 .9 2 2v20c0 1.1-.9 2-2 2h-20c-1.1 0-2-.9-2-2v-20c0-1.1.9-2 2-2m29.862 0h20c1.1 0 2 .9 2 2v20c0 1.1-.9 2-2 2h-20c-1.1 0-1.9-.9-1.9-2v-20c-.1-1.1.8-2 1.9-2m29.772 0h20c1.1 0 1.9.9 1.9 2v20c0 1.1-.8 2-1.9 2h-20c-1.1 0-1.9-.9-1.9-2v-20c0-1.1.8-2 1.9-2m29.897 0h20c1.1 0 1.9.9 1.9 2v20c0 1.1-.8 2-1.9 2h-20c-1.1 0-2-.9-2-2v-20c0-1.1.9-2 2-2zm29.871 0h20c1.1 0 1.9.9 1.9 2v20c0 1.1-.8 2-1.9 2h-20c-1.1 0-2-.9-2-2v-20c0-1.1.9-2 2-2m29.763 0h20c1.1 0 2 .9 2 2v20c0 1.1-.9 2-2 2h-20c-1.1 0-2-.9-2-2v-20c.1-1.1.9-2 2-2m29.872 0h20c1.1 0 2 .9 2 2v20c0 1.1-.9 2-2 2h-20c-1.1 0-1.9-.9-1.9-2v-20c0-1.1.8-2 1.9-2"/>
  <path fill="#5c5343" d="M438.358 482.9289939h36.1c1.1 0 2 .9 2 2v20c0 1.1-.9 2-2 2h-36.1c-1.1 0-1.9-.9-1.9-2v-20c-.1-1.1.8-2 1.9-2m-328.287 29.902h20c1.1 0 2 .8 2 1.9v20c0 1.1-.9 1.9-2 1.9h-20c-1.1 0-2-.8-2-1.9v-20c0-1 .9-1.9 2-1.9z"/>
  <path fill="#099a65" d="M139.937 512.8309939h20c1.1 0 2 .8 2 1.9v20c0 1.1-.9 1.9-2 1.9h-20c-1.1 0-2-.8-2-1.9v-20c0-1 .9-1.9 2-1.9z"/>
  <path fill="#e4ddc4" d="M169.809 512.8309939h232.8c1.1 0 2 .8 2 1.9v20c0 1.1-.9 1.9-2 1.9h-232.8c-1.1 0-1.9-.8-1.9-1.9v-20c-.1-1 .8-1.9 1.9-1.9z"/>
  <path fill="#5c5343" d="M50.907 423.2969939h27.5c1.1 0 2 .8 2 1.9v20.1c0 1.1-.9 1.9-2 1.9h-27.5c-1.1 0-2-.8-2-1.9v-20c0-1.2.9-2 2-2z"/>
  <path fill="#e4ddc4" d="M88.31 423.2969939h20c1.1 0 2 .8 2 1.9v20c0 1.1-.9 1.9-2 1.9h-20c-1.1 0-2-.8-2-1.9v-20c0-1.1.9-1.9 2-1.9m29.772 0h20c1.1 0 2 .8 2 1.9v20c0 1.1-.9 1.9-2 1.9h-20c-1.1 0-1.9-.8-1.9-1.9v-20c0-1.1.8-1.9 1.9-1.9m29.863 0h20c1.1 0 1.9.8 1.9 1.9v20c0 1.1-.8 1.9-1.9 1.9h-20c-1.1 0-1.9-.8-1.9-1.9v-20c0-1.1.8-1.9 1.9-1.9m29.871 0h20c1.1 0 1.9.8 1.9 1.9v20c0 1.1-.8 1.9-1.9 1.9h-20c-1.1 0-1.9-.8-1.9-1.9v-20c-.1-1.1.8-1.9 1.9-1.9m29.797 0h20c1.1 0 1.9.8 1.9 1.9v20c0 1.1-.8 1.9-1.9 1.9h-20c-1.1 0-2-.8-2-1.9v-20c.1-1.1.9-1.9 2-1.9m29.872 0h20c1.1 0 2 .8 2 1.9v20c0 1.1-.9 1.9-2 1.9h-20c-1.1 0-2-.8-2-1.9v-20c0-1.1.9-1.9 2-1.9m29.871 0h20c1.1 0 2 .8 2 1.9v20c0 1.1-.9 1.9-2 1.9h-20c-1.1 0-1.9-.8-1.9-1.9v-20c-.1-1.1.8-1.9 1.9-1.9m29.763 0h20c1.1 0 2 .8 2 1.9v20c0 1.1-.9 1.9-2 1.9h-20c-1.1 0-1.9-.8-1.9-1.9v-20c0-1.1.8-1.9 1.9-1.9m29.872 0h20c1.1 0 1.9.8 1.9 1.9v20c0 1.1-.8 1.9-1.9 1.9h-20c-1.1 0-1.9-.8-1.9-1.9v-20c0-1.1.8-1.9 1.9-1.9m29.871 0h20c1.1 0 1.9.8 1.9 1.9v20c0 1.1-.8 1.9-1.9 1.9h-20c-1.1 0-1.9-.8-1.9-1.9v-20c-.1-1.1.8-1.9 1.9-1.9m29.797 0h20c1.1 0 1.9.8 1.9 1.9v20c0 1.1-.8 1.9-1.9 1.9h-20c-1.1 0-2-.8-2-1.9v-20c.1-1.1.9-1.9 2-1.9m29.863 0h20c1.1 0 2 .8 2 1.9v20c0 1.1-.9 1.9-2 1.9h-20c-1.1 0-2-.8-2-1.9v-20c0-1.1.9-1.9 2-1.9"/>
  <path fill="#5c5343" d="M446.393 423.2969939h35.6c1.1 0 1.9.8 1.9 1.9v20c0 1.1-.8 1.9-1.9 1.9h-35.6c-1.1 0-1.9-.8-1.9-1.9v-20c-.1-1.1.8-1.9 1.9-1.9m-375.307-73.798h32.1c1.1 0 1.9.8 1.9 1.9v20c0 1.1-.8 1.9-1.9 1.9h-32.1c-1.1 0-1.9-.8-1.9-1.9v-20c0-1.1.8-1.9 1.9-1.9m43.963 0h32.1c1.1 0 2 .8 2 1.9v20c0 1.1-.9 1.9-2 1.9h-32.1c-1.1 0-2-.8-2-1.9v-20c0-1.1.9-1.9 2-1.9m43.939 0h32.1c1.1 0 1.9.8 1.9 1.9v20c0 1.1-.8 1.9-1.9 1.9h-32.1c-1.1 0-1.9-.8-1.9-1.9v-20c0-1.1.8-1.9 1.9-1.9m43.958 0h32.1c1.1 0 2 .8 2 1.9v20c0 1.1-.9 1.9-2 1.9h-32.1c-1.1 0-2-.8-2-1.9v-20c0-1.1.9-1.9 2-1.9m43.94 0h32.1c1.1 0 1.9.8 1.9 1.9v20c0 1.1-.8 1.9-1.9 1.9h-32.1c-1.1 0-1.9-.8-1.9-1.9v-20c-.1-1.1.8-1.9 1.9-1.9m155.652 0h32.1c1.1 0 1.9.8 1.9 1.9v20c0 1.1-.8 1.9-1.9 1.9h-32.1c-1.1 0-2-.8-2-1.9v-20c0-1.1.9-1.9 2-1.9"/>
  <path fill="#cb051a" d="M446.469 349.4989939h32.1c1.1 0 1.9.8 1.9 1.9v20c0 1.1-.8 1.9-1.9 1.9h-32.1c-1.1 0-1.9-.8-1.9-1.9v-20c0-1.1.8-1.9 1.9-1.9"/>
  <path fill="#232323" d="M46.822 356.5689939h11.3v8.6h-11.3v-8.6zm-11.484 104.14c-1.1 0-2.1 1-2.1 2.1v3.3c0 1.1.9 2.1 2.1 2.1h9.7c1.1 0 2.1-.9 2.1-2.1v-3.3c0-1.1-.9-2.1-2.1-2.1h-9.7zm454.57 0c-1.1 0-2.1 1-2.1 2.1v3.3c0 1.1.9 2.1 2.1 2.1h9.7c1.1 0 2.1-.9 2.1-2.1v-3.3c0-1.1-.9-2.1-2.1-2.1h-9.7z"/>
  <path fill="#545353" d="M602.247 510.6159939h-87.6c-3 0-5.5-2.5-5.5-5.5v-87.6c0-3 2.5-5.5 5.5-5.5h87.6c3 0 5.5 2.5 5.5 5.5v87.6c0 3.1-2.5 5.5-5.5 5.5zm-87.6-97.5c-2.5 0-4.5 2-4.5 4.5v87.6c0 2.5 2 4.5 4.5 4.5h87.6c2.5 0 4.5-2 4.5-4.5v-87.6c0-2.5-2-4.5-4.5-4.5h-87.6z"/>
  <path fill="#2761a2" d="M558.476 416.8709939c3.3 0 6.7 1.3 9.2 3.8l14.5 14.5-23.7 23.7-23.7-23.7 14.5-14.5c2.5-2.5 5.9-3.8 9.2-3.8z"/>
  <path fill="#424242" d="M45.8 318.8559939h-2.1v-101h2.1v101zm9.2 0h-2.1v-99.5H55v99.5zm9.2 0h-2.1v-99.5h2.1v99.5zm9.2 0h-2.1v-99.5h2.1v99.5zm9.2 0h-2.1v-99.5h2.1v99.5zm9.2 0h-2.1v-99.5h2.1v99.5zm9.1 0h-2.1v-99.5h2.1v99.5zm9.2 0H108v-99.5h2.1v99.5zm9.2 0h-2.1v-99.5h2.1v99.5zm9.2 0h-2.1v-99.5h2.1v99.5zm9.2 0h-2.1v-99.5h2.1v99.5zm9.1 0h-2.1v-99.5h2.1v99.5zm9.2 0h-2.1v-99.5h2.1v99.5zm9.2 0h-2.1v-99.5h2.1v99.5zm9.2 0h-2.1v-99.5h2.1v99.5zm9.2 0h-2.1v-99.5h2.1v99.5zm9 0h-2.1v-99.5h2.1v99.5zm9.2 0h-2.1v-99.5h2.1v99.5zm9.1 0h-2.1v-99.5h2.1v99.5zm9.2 0H218v-99.5h2.1v99.5zm9.2 0h-2.1v-99.5h2.1v99.5zm9.2 0h-2.1v-99.5h2.1v99.5zm9.2 0h-2.1v-99.5h2.1v99.5zm9.1 0h-2.1v-99.5h2.1v99.5zm9.2 0h-2.1v-99.5h2.1v99.5zm9.2 0h-2.1v-99.5h2.1v99.5zm9.2 0h-2.1v-99.5h2.1v99.5z"/>
  <path fill="#545353" d="M634.8148 319.3984939h-346.4v-100.4h346.7c1.3 0 2.4 1.2 2.4 2.6v95.5c-.1 1.2-1.2 2.3-2.7 2.3zm-345.4-1h345.5c.9 0 1.6-.6 1.6-1.4v-95.5c0-.9-.6-1.6-1.4-1.6h-345.7v98.5z"/>
  <path fill="#424242" d="M377.356 234.2009939c-1.1 0-2.1.9-2.1 2.1v41.1c0 1.1.9 2.1 2.1 2.1h246.1c1.1 0 2.1-.9 2.1-2.1v-41.1c0-1.1-.9-2.1-2.1-2.1h-246.1z"/>
  <path fill="#545353" d="M567.413 270.5189939h-180c-1.1 0-2.1-.9-2.1-2.1v-23.2c0-1.1.9-2.1 2.1-2.1h180c1.1 0 2.1.9 2.1 2.1v23.2c-.1 1.2-1 2.1-2.1 2.1zm-180-26.3c-.6 0-1.1.5-1.1 1.1v23.2c0 .6.5 1.1 1.1 1.1h180c.6 0 1.1-.5 1.1-1.1v-23.2c0-.6-.5-1.1-1.1-1.1h-180z"/>
  <path fill="#262424" d="M600.801 244.4109939c6.9 0 12.5 5.6 12.5 12.5s-5.6 12.5-12.5 12.5-12.5-5.6-12.5-12.5c-.1-7 5.5-12.5 12.5-12.5"/>
  <path fill="#545353" d="M411.5 247.5559939h1.5v18.6h-1.5zm131.09998 0h1.5v18.6h-1.5z"/>
  <path fill="#231f20" d="M625.5 311.3559939h-34.7v-14h34.7v14z"/>
  <path fill="#9d9b91" d="M622.6986 299.2856939l-3.3 4.8 3.6 5.3h-3.3l-2-2.8-2 2.8h-3.3c.1-.2 3.6-5.3 3.6-5.3l-1.5-2.1h-6.4c-.3 0-.7-.1-.8.3-.1.1-.1.3 0 .4l.3.3h2.7c1.2 0 2.3.8 2.8 1.8.5.9.4 2.1-.1 3-.6 1.1-1.8 1.7-3 1.6h-7l-1.1-3.9-1.1 3.9h-2.6l-1-3.9-1.1 3.9h-2.9s2.6-9.4 2.8-10.1h2.4l1.1 4.2 1.2-4.2h2.4l2 7.3h4.7c.3 0 .8.1.9-.3.1-.2 0-.4-.1-.5-.1-.1-.3-.1-.4-.1h-2.5c-1.2 0-2.4-.8-2.8-2-.5-1.2-.2-2.5.7-3.4.6-.6 1.4-.9 2.2-1h8.3l1.7 2.4 1.7-2.4h3.2z"/>
  <path fill="#fff" d="M547.0632 439.5546939l11.4-10.8 11.4 10.8-1.4 1.5-10-9.6-10.1 9.6"/>
  <path fill="#2761a2" d="M603.1265 461.3129939c0 3.3-1.3 6.7-3.8 9.2l-14.5 14.5-23.7-23.7 23.7-23.7 14.5 14.5c2.6 2.6 3.8 5.9 3.8 9.2z"/>
  <path fill="#fff" d="M579.0102 451.3258939l1.5-1.4 10.8 11.4-10.8 11.4-1.5-1.4 9.6-10"/>
  <path fill="#2761a2" d="M558.472 506.0644939c-3.3 0-6.7-1.3-9.2-3.8l-14.5-14.5 23.7-23.7 23.7 23.7-14.5 14.5c-2.5 2.5-5.9 3.8-9.2 3.8z"/>
  <path fill="#fff" d="M558.4849 491.4808939l10.1-9.6 1.3 1.5-11.4 10.9-11.4-10.9 1.4-1.5"/>
  <path fill="#2761a2" d="M514.0086 461.3149939c0-3.3 1.3-6.7 3.8-9.2l14.5-14.5 23.7 23.7-23.7 23.7-14.5-14.5c-2.5-2.5-3.8-5.8-3.8-9.2z"/>
  <path fill="#fff" d="M538.125 451.4021939l-9.5 10 9.5 10-1.4 1.4-10.9-11.4 10.9-11.4"/>
  <path fill="#424242" d="M632.5828 213.9999939h-619.2v-8.7c0-1 1-1.9 2.1-1.9h616.9c1.1 0 2.1.8 2.1 1.9v6.6c0 1.2-.9 2.1-1.9 2.1"/>
  <g clip-path="url(#a)" transform="matrix(1.25,0,0,-1.25,679.64632,590.05649)">
    <path fill="#494647" d="M228.8936 140.1644c0 1.78-1.432 3.214-3.213 3.214H3.2386c-1.78 0-3.214-1.432-3.214-3.214v-9.738c0-1.78 1.433-3.214 3.214-3.214h11.003c1.781 0 3.213-1.434 3.213-3.214v-43.327H3.2136c-1.78 0-3.214-1.432-3.214-3.213V3.2144h.001c0-1.781 1.432-3.214 3.213-3.214h222.466c1.781 0 3.214 1.432 3.214 3.213v136.951"/>
    <path fill="#b5b4b4" d="M207.7615 9.2816H44.3485c-6.6 0-12 5.4-12 12v110.097c0 6.6 5.4 12 12 12h163.413c6.6 0 12-5.4 12-12V21.2816c0-6.6-5.4-12-12-12"/>
    <path fill="#211d1d" d="M206.96032 23.508011h-20.16875v8.168108h20.16875v-8.168108z"/>
    <path fill="#fff" d="M205.364717 30.526339l-1.917372-2.800552 2.085453-3.059601h-1.925806l-1.146045 1.638039-1.155283-1.642056h-1.913155c.05201.108038 2.094289 3.063618 2.094289 3.063618l-.870529 1.211109-3.692768-.0042c-.172298-.01345-.383354.03876-.469704-.15543-.03032-.06446-.04318-.159245-.0084-.224309.02972-.0731.099-.141976.176315-.163262l.116271-.0088h1.478192c.684776-.01727 1.318545-.443598 1.615549-1.059695.263267-.517297.224309-1.223961-.06888-1.715353-.370301-.624531-1.029774-.973747-1.744872-.948043h-4.110863s-.629351 2.271206-.633568 2.275022l-.633568-2.275022-1.499277-.000401-.603246 2.284259-.659473-2.27944h-1.658924s1.525383 5.489652 1.624384 5.851719h1.400879l.659272-2.44752.672124 2.44752 1.374572.000402 1.176368-4.262477h2.740508c.189167.0092.452233-.04257.529948.189769.03012.104021.0046.211457-.06888.284553-.06928.06045-.155229.07751-.245595.07751l-1.473573.000201c-.69823.02149-1.391842.478138-1.65049 1.150062-.279935.672526-.116271 1.478593.396407 1.999103.361866.36267.792813.543804 1.297258.56509l4.834596.0042.974149-1.404293 1.007885 1.40871 1.895885-.000401z"/>
    <path fill="#e4e4e4" d="M24.6602 36.7994c0-4.23-3.429-7.659-7.659-7.659s-7.659 3.429-7.659 7.659 3.429 7.659 7.659 7.659 7.659-3.429 7.659-7.659"/>
    <path fill="#1a1717" d="M3.2383 80.6714v46.541h11.003c1.781 0 3.213-1.434 3.213-3.214v-43.327h-14.24"/>
    <path fill="#4f4c4d" d="M19.2618 118.3091H.5418c-.284 0-.517.232-.517.517v3.489c0 .284.233.516.517.516h18.72c.284 0 .517-.232.517-.516v-3.489c0-.285-.233-.517-.517-.517m0-8.0965H.5418c-.284 0-.517.232-.517.517v3.489c0 .284.233.516.517.516h18.72c.284 0 .517-.232.517-.516v-3.489c0-.285-.233-.517-.517-.517m0-8.0965H.5418c-.284 0-.517.232-.517.517v3.489c0 .284.233.516.517.516h18.72c.284 0 .517-.232.517-.516v-3.489c0-.285-.233-.517-.517-.517m0-7.8777H.5418c-.284 0-.517.232-.517.517v3.489c0 .284.233.516.517.516h18.72c.284 0 .517-.232.517-.516v-3.489c0-.285-.233-.517-.517-.517m0-7.8776H.5418c-.284 0-.517.233-.517.517v3.489c0 .284.233.516.517.516h18.72c.284 0 .517-.232.517-.516v-3.489c0-.284-.233-.517-.517-.517"/>
  </g>
</svg>
