<svg xmlns="http://www.w3.org/2000/svg" width="286.11749" height="179.22375">
  <defs>
    <clipPath id="a">
      <path d="M0 143.379h228.894V0H0v143.379z"/>
    </clipPath>
  </defs>
  <g clip-path="url(#a)" transform="matrix(1.25,0,0,-1.25,0,179.22375)">
    <path fill="#494647" d="M228.8936 140.1644c0 1.78-1.432 3.214-3.213 3.214H3.2386c-1.78 0-3.214-1.432-3.214-3.214v-9.738c0-1.78 1.433-3.214 3.214-3.214h11.003c1.781 0 3.213-1.434 3.213-3.214v-43.327H3.2136c-1.78 0-3.214-1.432-3.214-3.213V3.2144h.001c0-1.781 1.432-3.214 3.213-3.214h222.466c1.781 0 3.214 1.432 3.214 3.213v136.951"/>
    <path fill="#b5b4b4" d="M207.7615 9.2816H44.3485c-6.6 0-12 5.4-12 12v110.097c0 6.6 5.4 12 12 12h163.413c6.6 0 12-5.4 12-12V21.2816c0-6.6-5.4-12-12-12"/>
    <path fill="#211d1d" d="M206.96032 23.508011h-20.16875v8.168108h20.16875v-8.168108z"/>
    <path fill="#fff" d="M205.364717 30.526339l-1.917372-2.800552 2.085453-3.059601h-1.925806l-1.146045 1.638039-1.155283-1.642056h-1.913155c.05201.108038 2.094289 3.063618 2.094289 3.063618l-.870529 1.211109-3.692768-.0042c-.172298-.01345-.383354.03876-.469704-.15543-.03032-.06446-.04318-.159245-.0084-.224309.02972-.0731.099-.141976.176315-.163262l.116271-.0088h1.478192c.684776-.01727 1.318545-.443598 1.615549-1.059695.263267-.517297.224309-1.223961-.06888-1.715353-.370301-.624531-1.029774-.973747-1.744872-.948043h-4.110863s-.629351 2.271206-.633568 2.275022l-.633568-2.275022-1.499277-.000401-.603246 2.284259-.659473-2.27944h-1.658924s1.525383 5.489652 1.624384 5.851719h1.400879l.659272-2.44752.672124 2.44752 1.374572.000402 1.176368-4.262477h2.740508c.189167.0092.452233-.04257.529948.189769.03012.104021.0046.211457-.06888.284553-.06928.06045-.155229.07751-.245595.07751l-1.473573.000201c-.69823.02149-1.391842.478138-1.65049 1.150062-.279935.672526-.116271 1.478593.396407 1.999103.361866.36267.792813.543804 1.297258.56509l4.834596.0042.974149-1.404293 1.007885 1.40871 1.895885-.000401z"/>
    <path fill="#e4e4e4" d="M24.6602 36.7994c0-4.23-3.429-7.659-7.659-7.659s-7.659 3.429-7.659 7.659 3.429 7.659 7.659 7.659 7.659-3.429 7.659-7.659"/>
    <path fill="#1a1717" d="M3.2383 80.6714v46.541h11.003c1.781 0 3.213-1.434 3.213-3.214v-43.327h-14.24"/>
    <path fill="#4f4c4d" d="M19.2618 118.3091H.5418c-.284 0-.517.232-.517.517v3.489c0 .284.233.516.517.516h18.72c.284 0 .517-.232.517-.516v-3.489c0-.285-.233-.517-.517-.517m0-8.0965H.5418c-.284 0-.517.232-.517.517v3.489c0 .284.233.516.517.516h18.72c.284 0 .517-.232.517-.516v-3.489c0-.285-.233-.517-.517-.517m0-8.0965H.5418c-.284 0-.517.232-.517.517v3.489c0 .284.233.516.517.516h18.72c.284 0 .517-.232.517-.516v-3.489c0-.285-.233-.517-.517-.517m0-7.8777H.5418c-.284 0-.517.232-.517.517v3.489c0 .284.233.516.517.516h18.72c.284 0 .517-.232.517-.516v-3.489c0-.285-.233-.517-.517-.517m0-7.8776H.5418c-.284 0-.517.233-.517.517v3.489c0 .284.233.516.517.516h18.72c.284 0 .517-.232.517-.516v-3.489c0-.284-.233-.517-.517-.517"/>
  </g>
</svg>
