<svg xmlns="http://www.w3.org/2000/svg" viewBox="241 210.9 399.99998 161.90476">
  <path fill="#231f20" d="M241 210.89999h400v161.90476H241z"/>
  <path fill="#fff" d="M609.38095 233.53944l-37.98639 55.51021 41.36054 60.73469h-38.36734l-22.69388-32.48979-23.02041 32.48979h-37.71429c.87075-2.12245 41.36055-60.73469 41.36055-60.73469l-17.19728-23.94558h-73.2517c-3.37415.27211-7.61905-.87075-9.2517 3.10204-.59864 1.2517-.87075 3.10204-.27211 4.2449.59864 1.52381 1.85034 2.77551 3.37415 3.37415l2.5034.27211h29.4966c13.4966.27211 26.06803 8.87075 31.89115 21.11564 5.22449 10.12245 4.62586 24.21769-1.2517 34.06803-7.34693 12.2449-20.57142 19.31973-34.61224 18.72109h-81.63265l-12.57143-45.06123-12.62585 45.11565h-29.76871l-11.97279-45.38775-12.89796 45.11564h-33.08843s30.36734-108.89796 32.21768-115.91837h27.86395l12.89796 48.4898 13.22449-48.4898h27.31973l23.40136 84.68028h54.2585c3.64626-.27211 8.87075.87074 10.39456-3.64626.59864-2.12245 0-4.2449-1.2517-5.4966-1.2517-1.2517-3.10204-1.52381-4.89796-1.52381H435.5034c-13.76871-.27211-27.59184-9.52381-32.81633-22.69388-5.49659-13.22449-2.5034-29.44217 8-39.56462 7.02041-7.02041 15.61905-10.72109 25.7415-11.37415h96.05442l19.31973 27.86394 19.97279-27.86394 37.60544-.70749z"/>
</svg>
