<?xml version="1.0" encoding="UTF-8" standalone="no"?>
<svg
   xmlns:dc="http://purl.org/dc/elements/1.1/"
   xmlns:cc="http://creativecommons.org/ns#"
   xmlns:rdf="http://www.w3.org/1999/02/22-rdf-syntax-ns#"
   xmlns:svg="http://www.w3.org/2000/svg"
   xmlns="http://www.w3.org/2000/svg"
   viewBox="0 0 361.17374 443.94876"
   height="443.94876"
   width="361.17374"
   xml:space="preserve"
   version="1.1"
   id="svg2"><metadata
     id="metadata8"><rdf:RDF><cc:Work
         rdf:about=""><dc:format>image/svg+xml</dc:format><dc:type
           rdf:resource="http://purl.org/dc/dcmitype/StillImage" /><dc:title></dc:title></cc:Work></rdf:RDF></metadata><defs
     id="defs6"><clipPath
       id="clipPath16"
       clipPathUnits="userSpaceOnUse"><path
         id="path18"
         d="m 0,355.159 288.939,0 L 288.939,0 0,0 0,355.159 Z" /></clipPath><linearGradient
       id="linearGradient48"
       spreadMethod="pad"
       gradientTransform="matrix(0,6.2488999,6.2488999,0,220.7242,22.255291)"
       gradientUnits="userSpaceOnUse"
       y2="0"
       x2="1"
       y1="0"
       x1="0"><stop
         id="stop50"
         offset="0"
         style="stop-opacity:1;stop-color:#d1d3d4" /><stop
         id="stop52"
         offset="1"
         style="stop-opacity:1;stop-color:#808080" /></linearGradient><linearGradient
       id="linearGradient68"
       spreadMethod="pad"
       gradientTransform="matrix(0,4.5653,4.5653,0,220.72404,23.09749)"
       gradientUnits="userSpaceOnUse"
       y2="0"
       x2="1"
       y1="0"
       x1="0"><stop
         id="stop70"
         offset="0"
         style="stop-opacity:1;stop-color:#231f20" /><stop
         id="stop72"
         offset="1"
         style="stop-opacity:1;stop-color:#ffffff" /></linearGradient><clipPath
       id="clipPath80"
       clipPathUnits="userSpaceOnUse"><path
         id="path82"
         d="m 0,355.159 288.939,0 L 288.939,0 0,0 0,355.159 Z" /></clipPath></defs><g
     transform="matrix(1.25,0,0,-1.25,0,443.94875)"
     id="g10"><g
       id="g12"><g
         clip-path="url(#clipPath16)"
         id="g14"><g
           transform="translate(287.0933,330.9505)"
           id="g20"><path
             id="path22"
             style="fill:#d9d9d9;fill-opacity:1;fill-rule:nonzero;stroke:none"
             d="m 0,0 c 0,18.693 -11.338,24.208 -20.531,24.208 -2.422,0 -10.812,-0.021 -22.176,-0.052 l 0,-4.312 -4.434,0 0,4.299 c -1.58,-0.004 -3.208,-0.009 -4.871,-0.013 l 0,-4.286 -4.434,0 0,4.273 c -1.598,-0.004 -3.223,-0.009 -4.871,-0.014 l 0,-4.259 -4.433,0 0,4.247 c -1.61,-0.005 -3.235,-0.009 -4.871,-0.014 l 0,-4.233 -4.434,0 0,4.22 c -1.619,-0.004 -3.243,-0.009 -4.871,-0.013 l 0,-4.207 -4.434,0 0,4.194 c -1.627,-0.004 -3.251,-0.009 -4.871,-0.013 l 0,-4.181 -4.434,0 0,4.168 c -1.635,-0.004 -3.26,-0.009 -4.871,-0.013 l 0,-4.155 -4.433,0 0,4.143 c -1.647,-0.004 -3.272,-0.009 -4.871,-0.013 l 0,-4.13 -4.434,0 0,4.119 c -1.661,-0.005 -3.288,-0.009 -4.871,-0.013 l 0,-4.106 -4.434,0 0,4.095 c -1.692,-0.004 -3.313,-0.007 -4.871,-0.011 l 0,-4.084 -4.434,0 0,4.075 c -1.755,-0.004 -3.386,-0.007 -4.871,-0.01 l 0,-4.065 -4.433,0 0,4.059 c -0.919,-10e-4 -1.743,-10e-4 -2.436,-10e-4 -0.693,0 -1.517,0 -2.435,10e-4 l 0,-4.059 -4.434,0 0,4.065 c -1.485,0.003 -3.116,0.006 -4.871,0.01 l 0,-4.075 -4.434,0 0,4.084 c -1.558,0.004 -3.179,0.007 -4.871,0.011 l 0,-4.095 -4.434,0 0,4.106 c -1.582,0.004 -3.21,0.008 -4.871,0.013 l 0,-4.119 -4.433,0 0,4.13 c -1.6,0.004 -3.225,0.009 -4.871,0.013 l 0,-4.143 -4.434,0 0,4.155 c -1.61,0.004 -3.235,0.009 -4.871,0.013 l 0,-4.168 -4.434,0 0,4.181 c -1.619,0.004 -3.244,0.009 -4.871,0.013 l 0,-4.194 -4.433,0 0,4.207 c -1.628,0.004 -3.253,0.009 -4.871,0.013 l 0,-4.22 -4.434,0 0,4.233 c -1.637,0.005 -3.262,0.009 -4.871,0.014 l 0,-4.247 -4.434,0 0,4.259 c -1.648,0.005 -3.273,0.01 -4.871,0.014 l 0,-4.273 -4.434,0 0,4.286 c -1.662,0.004 -3.29,0.009 -4.871,0.013 l 0,-4.299 -4.433,0 0,4.312 c -11.365,0.031 -19.754,0.052 -22.176,0.052 -9.193,0 -20.531,-5.515 -20.531,-24.208 0,-18.693 -3.411,-288.662 -0.96,-304.904 2.452,-18.999 11.645,-26.047 27.886,-26.047 16.241,0 115.697,0.668 115.697,0.668 0,0 99.457,-0.668 115.698,-0.668 16.241,0 25.434,7.048 27.885,26.047 C 3.411,-288.662 0,-18.693 0,0" /></g><g
           transform="translate(267.9272,7.0004)"
           id="g24"><path
             id="path26"
             style="fill:#4c4c4c;fill-opacity:1;fill-rule:nonzero;stroke:none"
             d="m 0,0 -245.874,0 c -8.301,0 -15.093,6.791 -15.093,15.092 l 0,311.903 c 0,8.3 6.792,15.092 15.093,15.092 l 245.874,0 c 8.301,0 15.092,-6.792 15.092,-15.092 l 0,-311.903 C 15.092,6.791 8.301,0 0,0" /></g><g
           transform="translate(266.9116,8.0005)"
           id="g28"><path
             id="path30"
             style="fill:#d9d9d9;fill-opacity:1;fill-rule:nonzero;stroke:none"
             d="m 0,0 -244.054,0 c -8.255,-0.359 -15.516,6.858 -14.998,14.998 l 0,310.302 c -0.518,8.335 7.18,15.508 14.998,14.997 l 244.054,0 c 8.246,0.467 15.551,-6.575 14.998,-14.997 l 0,-310.302 C 15.595,6.989 8.203,-0.446 0,0" /></g><g
           transform="translate(254.9423,65.6895)"
           id="g32"><path
             id="path34"
             style="fill:#b3b3b3;fill-opacity:1;fill-rule:nonzero;stroke:none"
             d="m 0,0 -220.942,0 c -7.19,0 -13.073,5.883 -13.073,13.072 l 0,222.921 c 0,7.19 5.883,13.073 13.073,13.073 l 220.942,0 c 7.19,0 13.072,-5.883 13.072,-13.073 l 0,-222.921 C 13.072,5.883 7.19,0 0,0" /></g></g></g><g
       id="g36"><g
         id="g38"><g
           id="g44"><g
             id="g46"><path
               id="path54"
               style="fill:url(#linearGradient48);stroke:none"
               d="m 216.273,28.504 c -1.723,0 -3.124,-1.401 -3.124,-3.124 l 0,0 c 0,-1.723 1.401,-3.125 3.124,-3.125 l 0,0 8.902,0 c 1.723,0 3.125,1.402 3.125,3.125 l 0,0 c 0,1.723 -1.402,3.124 -3.125,3.124 l 0,0 -8.902,0 z" /></g></g></g></g><g
       id="g56"><g
         id="g58"><g
           id="g64"><g
             id="g66"><path
               id="path74"
               style="fill:url(#linearGradient68);stroke:none"
               d="m 216.194,27.662 c -1.212,0 -2.204,-0.991 -2.204,-2.204 l 0,0 0,-0.156 c 0,-1.213 0.992,-2.204 2.204,-2.204 l 0,0 9.06,0 c 1.212,0 2.204,0.991 2.204,2.204 l 0,0 0,0.156 c 0,1.213 -0.992,2.204 -2.204,2.204 l 0,0 -9.06,0 z" /></g></g></g></g><g
       id="g76"><g
         clip-path="url(#clipPath80)"
         id="g78"><g
           transform="translate(225.2537,23.0975)"
           id="g84"><path
             id="path86"
             style="fill:#808080;fill-opacity:1;fill-rule:nonzero;stroke:none"
             d="m 0,0 -9.059,0 c -1.213,0 -2.204,0.992 -2.204,2.204 l 0,0.157 c 0,1.212 0.991,2.204 2.204,2.204 l 9.059,0 c 1.212,0 2.204,-0.992 2.204,-2.204 l 0,-0.157 C 2.204,0.992 1.212,0 0,0" /></g><g
           transform="translate(179.519,85.0324)"
           id="g88"><path
             id="path90"
             style="fill:#808080;fill-opacity:1;fill-rule:nonzero;stroke:none"
             d="m 0,0 -70.88,0 c -3.268,0 -5.942,2.674 -5.942,5.942 l 0,31.898 c 0,3.268 2.674,5.942 5.942,5.942 l 70.88,0 c 3.268,0 5.942,-2.674 5.942,-5.942 l 0,-31.898 C 5.942,2.674 3.268,0 0,0" /></g><g
           transform="translate(144.4681,190.2223)"
           id="g92"><path
             id="path94"
             style="fill:#4c4c4c;fill-opacity:1;fill-rule:nonzero;stroke:none"
             d="m 0,0 c 13.34,0 71.377,2.497 81.42,3.324 10.043,0.827 14.002,3.935 16.187,7.207 2.367,3.545 2.6,10.28 2.127,14.888 -0.473,4.608 -5.908,5.317 -7.916,5.317 l -91.818,0 0.003,0 -91.817,0 c -2.009,0 -7.444,-0.709 -7.917,-5.317 -0.472,-4.608 -0.24,-11.343 2.127,-14.888 2.185,-3.272 6.144,-6.38 16.187,-7.207 C -71.374,2.497 -13.337,0 0.003,0" /></g><g
           transform="translate(200.9727,89.5638)"
           id="g96"><path
             id="path98"
             style="fill:#ffffff;fill-opacity:1;fill-rule:nonzero;stroke:none"
             d="m 0,0 0,31.857 c 0,4.594 3.725,8.319 8.319,8.319 l 25.139,0 c 4.594,0 8.319,-3.725 8.319,-8.319 L 41.777,0 c 0,-4.594 -3.725,-8.319 -8.319,-8.319 l -25.139,0 C 3.725,-8.319 0,-4.594 0,0" /></g><g
           transform="translate(234.3457,83.7064)"
           id="g100"><path
             id="path102"
             style="fill:#4c4c4c;fill-opacity:1;fill-rule:nonzero;stroke:none"
             d="m 0,0 -24.969,0 c -3.269,0 -5.942,2.674 -5.942,5.942 l 0,31.688 c 0,3.268 2.673,5.942 5.942,5.942 l 24.969,0 c 3.268,0 5.942,-2.674 5.942,-5.942 l 0,-31.688 C 5.942,2.674 3.268,0 0,0" /></g><g
           transform="translate(45.7988,89.6251)"
           id="g104"><path
             id="path106"
             style="fill:#ffffff;fill-opacity:1;fill-rule:nonzero;stroke:none"
             d="m 0,0 0,31.857 c 0,4.594 3.725,8.319 8.319,8.319 l 25.138,0 c 4.595,0 8.319,-3.725 8.319,-8.319 L 41.776,0 c 0,-4.594 -3.724,-8.319 -8.319,-8.319 l -25.138,0 C 3.725,-8.319 0,-4.594 0,0" /></g><g
           transform="translate(79.1714,83.7675)"
           id="g108"><path
             id="path110"
             style="fill:#4c4c4c;fill-opacity:1;fill-rule:nonzero;stroke:none"
             d="m 0,0 -24.969,0 c -3.269,0 -5.942,2.674 -5.942,5.942 l 0,31.687 c 0,3.269 2.673,5.942 5.942,5.942 l 24.969,0 c 3.268,0 5.942,-2.673 5.942,-5.942 l 0,-31.687 C 5.942,2.674 3.268,0 0,0" /></g><g
           transform="translate(85.0544,103.3284)"
           id="g112"><path
             id="path114"
             style="fill:#4c4c4c;fill-opacity:1;fill-rule:nonzero;stroke:none"
             d="m 0,0 -36.558,0 c -0.654,0 -1.189,0.535 -1.189,1.188 l 0,2.073 c 0,0.654 0.535,1.189 1.189,1.189 L 0,4.45 c 0.654,0 1.188,-0.535 1.188,-1.189 l 0,-2.073 C 1.188,0.535 0.654,0 0,0" /></g><g
           transform="translate(48.5384,107.7782)"
           id="g116"><path
             id="path118"
             style="fill:#666666;fill-opacity:1;fill-rule:nonzero;stroke:none"
             d="M 0,0 C -0.635,0 -1.144,-0.493 -1.207,-1.112 -1.144,-1.732 -0.635,-2.225 0,-2.225 l 36.474,0 c 0.635,0 1.144,0.493 1.206,1.113 C 37.618,-0.493 37.109,0 36.474,0 L 0,0 Z" /></g><g
           transform="translate(63.1832,196.6211)"
           id="g120"><path
             id="path122"
             style="fill:#808080;fill-opacity:1;fill-rule:nonzero;stroke:none"
             d="m 0,0 -0.701,0 c -0.653,0 -1.188,0.535 -1.188,1.188 l 0,19.327 c 0,0.654 0.535,1.189 1.188,1.189 l 0.701,0 c 0.654,0 1.189,-0.535 1.189,-1.189 l 0,-19.327 C 1.189,0.535 0.654,0 0,0" /></g><g
           transform="translate(225.756,196.6211)"
           id="g124"><path
             id="path126"
             style="fill:#808080;fill-opacity:1;fill-rule:nonzero;stroke:none"
             d="m 0,0 0.701,0 c 0.653,0 1.188,0.535 1.188,1.188 l 0,19.327 c 0,0.654 -0.535,1.189 -1.188,1.189 l -0.701,0 c -0.654,0 -1.188,-0.535 -1.188,-1.189 l 0,-19.327 C -1.188,0.535 -0.654,0 0,0" /></g><g
           transform="translate(147.4254,196.5668)"
           id="g128"><path
             id="path130"
             style="fill:#808080;fill-opacity:1;fill-rule:nonzero;stroke:none"
             d="m 0,0 c -1.625,-1.654 -4.284,-1.654 -5.908,0 -1.625,1.654 -4.284,4.361 -5.909,6.016 -1.625,1.654 -0.295,3.007 2.954,3.007 l 11.817,0 C 6.204,9.023 7.533,7.67 5.908,6.016 4.284,4.361 1.625,1.654 0,0" /></g><g
           transform="translate(70.0829,16.8948)"
           id="g132"><path
             id="path134"
             style="fill:#4c4c4c;fill-opacity:1;fill-rule:nonzero;stroke:none"
             d="m 0,0 -0.249,-0.675 0.19,0 L 0,0 Z m -7.014,0.806 c -0.019,0 -0.034,-0.011 -0.048,-0.024 l -0.154,-0.806 0,-0.011 c 0,-0.026 0.018,-0.048 0.048,-0.048 l 0.142,0 c 0.035,0 0.124,0.071 0.13,0.107 l 0.131,0.663 c 0.006,0.038 -0.06,0.119 -0.095,0.119 l -0.154,0 z m 28.4,0.32 0.794,0 -0.059,-0.332 -0.201,0 -0.415,-2.346 -0.379,0 0.414,2.346 -0.213,0 0.059,0.332 z m -3.519,0 0.332,0 0.178,-1.398 0.261,1.398 0.379,0 -0.498,-2.678 -0.332,0 -0.13,1.552 -0.308,-1.552 -0.391,0 0.509,2.678 z m -3.436,0 0.699,0 -0.047,-0.332 -0.379,0 -0.154,-0.829 0.367,0 -0.047,-0.285 -0.379,0 -0.154,-0.9 0.379,0 -0.059,-0.332 -0.747,0 0.521,2.678 z m -4.301,0 0.439,0 0.071,-1.552 0.675,1.54 0.427,0 -0.45,-2.666 -0.332,0 0.213,1.41 -0.592,-1.41 -0.237,0 -0.071,1.445 -0.261,-1.445 -0.379,0 0.497,2.678 z m -3.921,0 0.331,0 0.178,-1.398 0.261,1.398 0.379,0 -0.498,-2.678 -0.343,0 L 6.398,0 6.09,-1.552 l -0.391,0 0.51,2.678 z m -3.057,0 0.343,0 -0.509,-2.678 -0.332,0 0.498,2.678 z m -3.152,0 0.45,0 -0.142,-2.678 -0.45,0 0.059,0.616 -0.272,0 -0.226,-0.616 -0.402,0 L 0,1.126 Z m -3.945,0 0.793,0 -0.047,-0.332 -0.201,0 -0.427,-2.346 -0.379,0 0.415,2.346 -0.214,0 0.06,0.332 z m -3.389,0 0.758,0 c 0.141,0 0.23,-0.125 0.202,-0.273 l -0.178,-0.948 c -0.02,-0.102 -0.2,-0.186 -0.296,-0.225 l 0.023,0 0.012,0 0.012,0 0,-0.012 0.012,0 0.012,0 0.012,0 0.011,0 0.012,-0.012 0.012,0 0.012,0 0.012,0 0,-0.011 0.012,0 0.012,0 0,-0.012 0.011,0 c 0.016,-0.029 0.024,-0.114 0.024,-0.131 0,-0.015 -0.19,-1.054 -0.19,-1.054 l -0.343,0 c 0,0 0.183,0.933 0.19,0.971 0.003,0.042 -0.005,0.092 -0.012,0.131 -0.003,0.028 -0.004,0.077 -0.036,0.106 l -0.237,0 -0.225,-1.208 -0.344,0 0.51,2.678 z m -3.341,0 0.711,0 -0.06,-0.332 -0.367,0 -0.166,-0.829 0.367,0 -0.047,-0.285 -0.367,0 -0.154,-0.9 0.367,0 -0.047,-0.332 -0.759,0 0.522,2.678 z m -3.448,0 0.782,0 -0.048,-0.332 -0.201,0 -0.427,-2.346 -0.379,0 0.415,2.346 -0.213,0 0.071,0.332 z m -3.555,0 0.332,0 0.178,-1.398 0.26,1.398 0.391,0 -0.509,-2.678 -0.332,0 -0.13,1.552 -0.308,-1.552 -0.391,0 0.509,2.678 z m -3.27,0 0.699,0 -0.047,-0.332 -0.379,0 -0.154,-0.829 0.367,0 -0.048,-0.285 -0.379,0 -0.142,-0.9 0.367,0 -0.059,-0.332 -0.758,0 0.533,2.678 z m 63.638,0.094 0.438,0 0.071,-1.54 0.676,1.528 0.426,0.012 -0.45,-2.665 -0.332,0 0.213,1.41 -0.592,-1.41 -0.237,0 -0.071,1.445 -0.261,-1.445 -0.391,0 0.51,2.665 z m -2.927,0 0.711,0 -0.059,-0.32 -0.367,0 -0.166,-0.841 0.379,0 -0.059,-0.272 -0.368,0 -0.154,-0.901 0.368,0 -0.048,-0.331 -0.758,0 0.521,2.665 z m -3.104,0 0.794,0 -0.059,-0.32 -0.202,0 -0.415,-2.345 -0.39,0 0.414,2.345 -0.201,0 0.059,0.32 z m -2.761,0 0.012,0 0.012,0 0.012,0 0.012,0 0.012,0 0.521,0 c 0.14,0 0.239,-0.112 0.213,-0.26 l -0.13,-0.664 -0.32,0 0.071,0.439 c 0.016,0.099 -0.042,0.177 -0.142,0.177 -0.099,0 -0.197,-0.078 -0.213,-0.177 l -0.06,-0.32 c -0.012,-0.019 0.016,-0.109 0.036,-0.119 0.041,-0.025 0.462,-0.718 0.462,-0.77 0.012,-0.026 0.012,-0.038 0.012,-0.047 -0.016,-0.087 -0.119,-0.676 -0.119,-0.676 -0.025,-0.135 -0.158,-0.248 -0.296,-0.248 l -0.509,0 c -0.138,0 -0.227,0.113 -0.202,0.248 l 0.119,0.676 0.343,0 -0.083,-0.486 c -0.015,-0.099 0.046,-0.19 0.142,-0.19 0.099,0 0.194,0.09 0.214,0.19 l 0.071,0.391 c -0.065,0.164 -0.483,0.759 -0.51,0.9 C 33.56,0.3 33.552,0.386 33.555,0.45 33.558,0.521 33.65,0.96 33.65,0.96 l 0.011,0.012 0,0.011 0,0.012 0.012,0.024 0,0.012 0.012,0.012 0,0.012 0.012,0.011 0,0.012 0.012,0.012 0.012,0.012 0,0.012 0.011,0 0.012,0.012 0.012,0.011 0.012,0.012 0.012,0.012 0.012,0.012 0.011,0.012 0.012,0 0.012,0.012 0.012,0 0.012,0.011 0.012,0 0.024,0 0.011,0.012 z m -3.874,0 0.426,0 0.06,-1.007 0.545,1.007 0.426,0 -0.876,-1.54 -0.214,-1.125 -0.379,0 0.19,1.208 -0.178,1.457 z m -2.725,0 0.012,0 0.012,0 0.011,0 0.012,0 0.012,0 0.521,0 c 0.141,0 0.242,-0.112 0.214,-0.26 l -0.131,-0.664 -0.32,0 0.072,0.439 c 0.015,0.099 -0.042,0.177 -0.143,0.177 -0.099,0 -0.196,-0.078 -0.213,-0.177 l -0.059,-0.32 c -0.01,-0.019 0.019,-0.109 0.035,-0.119 0.044,-0.025 0.462,-0.718 0.462,-0.77 0.01,-0.026 0.016,-0.038 0.012,-0.047 -0.012,-0.087 -0.13,-0.676 -0.13,-0.676 -0.026,-0.135 -0.157,-0.248 -0.296,-0.248 l -0.498,0 c -0.138,0 -0.227,0.113 -0.201,0.248 l 0.118,0.676 0.344,0 -0.083,-0.486 c -0.016,-0.099 0.042,-0.19 0.142,-0.19 0.095,0 0.197,0.09 0.213,0.19 l 0.071,0.391 c -0.063,0.164 -0.482,0.759 -0.509,0.9 -0.018,0.016 -0.026,0.102 -0.024,0.166 0.004,0.071 0.095,0.51 0.095,0.51 l 0.012,0 0,0.012 0,0.011 0,0.012 0.012,0.024 0,0.012 0.012,0.012 0,0.012 0.011,0.011 0,0.012 0.012,0.012 0.012,0.012 0,0.012 0.012,0 0.012,0.012 0.012,0.011 0.011,0.012 0,0.012 0.012,0 0.012,0.012 0.012,0.012 0.012,0 0.012,0.012 0.012,0 0.011,0.011 0.012,0 0.024,0 0.012,0.012 z m -49.716,-3.53 67.631,0 0,3.945 -67.631,0 0,-3.945 z m 24.076,15.592 0.012,0 0.012,0 0.011,0 0.012,0 0.687,0 c 0.162,0 0.506,-0.369 0.474,-0.533 L 2.239,9.787 C 2.211,9.632 1.826,9.266 1.671,9.266 l -0.652,0 c -0.134,0 -0.227,0.088 -0.237,0.213 0,0.019 -0.002,0.048 0,0.071 l 0.699,3.637 0.012,0.012 0.012,0.012 0.024,0.012 0.011,0 0.012,0.012 0.012,0.012 0.012,0 0.012,0.011 0.012,0 0.023,0.012 0.012,0 0.012,0 0.012,0 0,0.012 z m -9.443,0 0.734,0 c 0.161,0 0.504,-0.369 0.474,-0.533 L -7.204,9.775 C -7.233,9.621 -7.441,9.266 -7.595,9.266 l -0.888,0 -0.012,0 -0.012,0 -0.012,0.011 -0.012,0 -0.012,0 -0.012,0 -0.011,0 0,0.012 -0.012,0 -0.012,0 -0.012,0.012 -0.012,0 -0.012,0.012 -0.011,0.012 -0.012,0 0,0.012 -0.012,0.011 -0.012,0.012 0,0.012 -0.012,0.012 -0.012,0.012 0,0.012 0,0.011 -0.012,0.012 0,0.012 0,0.012 -0.011,0.012 0,0.012 c 0,0.019 -0.003,0.049 0,0.071 l 0.711,3.637 c 0.064,0.054 0.144,0.095 0.225,0.095 m 51.801,0.047 0.047,0 c 0.448,0 0.741,-0.358 0.664,-0.805 L 43.306,4.645 C 43.229,4.199 42.817,3.827 42.37,3.827 c -0.447,0 -0.634,0.37 -0.557,0.818 l 1.41,7.879 0.012,0.035 0.012,0.036 0.012,0.047 0.011,0.036 0.012,0.047 0.012,0.036 0.012,0.035 0.024,0.036 0.012,0.035 0.023,0.036 0.012,0.036 0.024,0.035 0.023,0.024 0.024,0.035 0.024,0.036 0.035,0.023 0.024,0.024 0.024,0.024 0.035,0.024 0.036,0.023 0.024,0.024 0.035,0.024 0.036,0.012 0.035,0.023 0.024,0.012 0.047,0.012 0.036,0.012 0.035,0 0.036,0.012 0.047,0 0.036,0.011 z m -6.102,0 0.699,0 c 0.447,0 0.752,-0.358 0.675,-0.805 L 37.797,4.645 C 37.718,4.197 37.284,3.827 36.837,3.827 l -0.687,0 1.765,9.502 z m 5.213,1.387 c -0.65,0 -1.27,-0.535 -1.386,-1.197 L 40.048,3.792 c -0.11,-0.621 0.301,-1.114 0.924,-1.114 l 2.5,0 c 0.627,0 1.234,0.493 1.351,1.114 l 1.836,9.727 c 0.126,0.662 -0.299,1.197 -0.948,1.197 l -2.583,0 z m -6.504,0 -2.287,-12.038 3.46,0 c 0.628,0 1.234,0.493 1.35,1.114 l 1.837,9.727 c 0.124,0.664 -0.298,1.197 -0.948,1.197 l -3.412,0 z m -6.031,0 -2.287,-12.038 1.754,0 1.409,6.978 0.557,-6.978 1.517,0 2.287,12.038 -1.754,0 -1.173,-6.292 -0.782,6.292 -1.528,0 z m -3.851,0 -2.37,-12.038 3.413,0 0.236,1.493 -1.682,0 0.699,4.064 1.683,0 0.237,1.256 -1.683,0 0.735,3.732 1.682,0 0.237,1.493 -3.187,0 z m -4.171,0 -0.284,-1.493 0.948,0 -1.872,-10.545 1.73,0 1.907,10.545 0.913,0 0.237,1.493 -3.579,0 z m -5.877,0 -2.286,-12.038 1.753,0 1.41,6.978 0.557,-6.978 1.517,0 2.286,12.038 -1.753,0 -1.173,-6.292 -0.782,6.292 -1.529,0 z m -2.31,0 -2.287,-12.038 1.517,0 2.287,12.038 -1.517,0 z m -6.019,0 -2.287,-12.038 1.742,0 1.41,6.978 0.557,-6.978 1.516,0 2.287,12.038 -1.742,0 -1.184,-6.292 -0.782,6.292 -1.517,0 z m -8.116,0 -2.275,-12.038 1.517,0 1.03,5.45 1.079,0 C 1.741,7.996 1.758,7.753 1.777,7.63 1.805,7.453 1.835,7.227 1.813,7.05 1.793,6.874 0.983,2.678 0.983,2.678 l 1.517,0 c 0,0 0.853,4.571 0.853,4.644 0.003,0.075 0,0.309 -0.083,0.439 C 3.215,7.844 3.12,8.035 3.01,8.104 2.798,8.24 2.559,8.329 2.559,8.329 l -0.106,0 c 0.433,0.172 1.252,0.453 1.339,0.913 l 0.829,4.277 c 0.126,0.664 -0.298,1.197 -0.948,1.197 l -3.424,0 z m -4.076,0 -2.37,-12.038 3.413,0 0.237,1.493 -1.683,0 0.687,4.064 1.683,0 0.237,1.256 -1.683,0 0.747,3.732 1.682,0 0.237,1.493 -3.187,0 z m -5.415,0 -2.287,-12.038 1.517,0 1.043,5.45 1.931,0 c 0.628,0 1.224,0.497 1.339,1.114 l 0.829,4.277 c 0.125,0.664 -0.297,1.197 -0.947,1.197 l -1.908,0 -1.517,0 z m -5.45,0 -1.896,-10.924 c -0.109,-0.621 0.312,-1.114 0.936,-1.114 l 2.263,0 c 0.627,0 1.235,0.493 1.351,1.114 l 2.026,10.924 -1.422,0 L -13.365,4.1 c -0.028,-0.154 -0.178,-0.285 -0.332,-0.285 l -1.125,0 c -0.158,0 -0.263,0.129 -0.237,0.285 l 1.884,10.616 -1.517,0 z m -4.36,0 c -0.65,0 -1.282,-0.535 -1.398,-1.197 l 0,-0.012 0,-0.012 0,-0.011 -0.012,-0.012 0,-0.024 0,-0.012 -0.012,-0.024 0,-0.023 -0.012,-0.024 0,-0.036 -0.012,-0.023 0,-0.036 -0.012,-0.035 -0.011,-0.036 -0.012,-0.071 -0.024,-0.083 -0.012,-0.083 -0.023,-0.083 -0.012,-0.094 -0.024,-0.095 -0.024,-0.107 -0.023,-0.095 -0.036,-0.201 -0.024,-0.107 -0.023,-0.095 -0.012,-0.094 -0.024,-0.095 -0.024,-0.095 -0.011,-0.095 -0.012,-0.083 -0.024,-0.071 -0.012,-0.083 0,-0.035 -0.012,-0.024 0,-0.036 0,-0.023 -0.012,-0.036 0,-0.023 0,-0.024 -0.011,-0.024 0,-0.012 0,-0.011 c -0.013,-0.29 0.028,-0.685 0.118,-0.759 0.115,-0.638 2.241,-3.59 2.18,-4.04 -0.057,-0.451 -0.308,-1.777 -0.308,-1.777 -0.077,-0.448 -0.382,-0.806 -0.829,-0.806 -0.448,0 -0.753,0.357 -0.676,0.806 l 0.403,2.203 -1.587,0 -0.534,-3.056 c -0.108,-0.621 0.312,-1.114 0.936,-1.114 l 2.263,0 c 0.627,0 1.224,0.493 1.339,1.114 0,0 0.583,2.855 0.581,3.056 -0.003,0.203 -0.059,0.226 -0.059,0.226 0,0.232 -1.893,3.355 -2.086,3.471 -0.083,0.049 -0.151,0.358 -0.154,0.545 -0.003,0.186 0.249,1.434 0.249,1.434 0.077,0.447 0.501,0.805 0.948,0.805 0.447,0 0.634,-0.358 0.557,-0.805 l -0.344,-1.979 1.6,0 0.557,2.974 c 0.126,0.662 -0.298,1.197 -0.948,1.197 l -2.346,0 z" /></g><g
           transform="translate(251.179,279.2247)"
           id="g136"><path
             id="path138"
             style="fill:#4c4c4c;fill-opacity:1;fill-rule:nonzero;stroke:none"
             d="m 0,0 c 0,-10.443 -8.466,-18.909 -18.909,-18.909 -10.443,0 -18.909,8.466 -18.909,18.909 0,10.443 8.466,18.909 18.909,18.909 C -8.466,18.909 0,10.443 0,0" /></g><g
           transform="translate(250.5187,279.2247)"
           id="g140"><path
             id="path142"
             style="fill:#b3b3b3;fill-opacity:1;fill-rule:nonzero;stroke:none"
             d="m 0,0 c 0,-10.079 -8.17,-18.249 -18.249,-18.249 -10.078,0 -18.248,8.17 -18.248,18.249 0,10.078 8.17,18.249 18.248,18.249 C -8.17,18.249 0,10.078 0,0" /></g><g
           transform="translate(230.2804,276.9928)"
           id="g144"><path
             id="path146"
             style="fill:#7eee80;fill-opacity:1;fill-rule:nonzero;stroke:none"
             d="m 0,0 c 0,-1.776 -3.22,-3.215 -7.191,-3.215 -3.972,0 -7.191,1.439 -7.191,3.215 0,1.776 3.219,3.215 7.191,3.215 C -3.22,3.215 0,1.776 0,0" /></g><g
           transform="translate(243.1538,271.6675)"
           id="g148"><path
             id="path150"
             style="fill:#fee94b;fill-opacity:1;fill-rule:nonzero;stroke:none"
             d="m 0,0 c 0,-1.776 -3.22,-3.215 -7.191,-3.215 -3.972,0 -7.191,1.439 -7.191,3.215 0,1.776 3.219,3.215 7.191,3.215 C -3.22,3.215 0,1.776 0,0" /></g><g
           transform="translate(244.0195,273.7775)"
           id="g152"><path
             id="path154"
             style="fill:#ff7961;fill-opacity:1;fill-rule:nonzero;stroke:none"
             d="m 0,0 c -0.866,3.601 -4.004,7.58 -8.057,5.85 3.3,7.612 9.527,6.401 11.69,3.806 C 5.317,7.635 5.276,0.724 0,0" /></g><g
           transform="translate(231.3453,279.5997)"
           id="g156"><path
             id="path158"
             style="fill:#0098df;fill-opacity:1;fill-rule:nonzero;stroke:none"
             d="m 0,0 c -0.866,3.601 -4.004,7.58 -8.057,5.85 3.3,7.612 9.527,6.401 11.69,3.806 C 5.317,7.635 5.276,0.724 0,0" /></g><path
           id="path160"
           style="fill:#4c4c4c;fill-opacity:1;fill-rule:nonzero;stroke:none"
           d="m 41.062,314.755 -0.616,0 0,33.756 0.616,0 0,-33.756 z" /><path
           id="path162"
           style="fill:#4c4c4c;fill-opacity:1;fill-rule:nonzero;stroke:none"
           d="m 248.493,314.755 -0.616,0 0,33.756 0.616,0 0,-33.756 z" /><path
           id="path164"
           style="fill:#4c4c4c;fill-opacity:1;fill-rule:nonzero;stroke:none"
           d="m 252.769,7.988 -0.616,0 0,57.705 0.616,0 0,-57.705 z" /><path
           id="path166"
           style="fill:#4c4c4c;fill-opacity:1;fill-rule:nonzero;stroke:none"
           d="m 36.783,7.988 -0.616,0 0,57.702 0.616,0 0,-57.702 z" /></g></g></g></svg>