<?xml version="1.0" encoding="utf-8"?>
<svg width="168.60794067382812" height="385.344970703125" viewBox="108.369 -108.77 168.608 385.345" xmlns="http://www.w3.org/2000/svg" xmlns:bx="https://www.boxy-svg.com/bx">
  <g transform="matrix(1, 0, 0, 1, 0, -2.842170943040401e-14)">
    <path d="M 278.694 -59.641 C 277.599 -58.911 277.153 -58.878 276.985 -54.908 C 276.976 -54.698 277.198 -54.162 277.712 -54.42 C 289.816 -61.79 303.619 -66.41 319.506 -66.889 L 363.991 -66.768 C 364.368 -66.781 364.335 -67.334 364.313 -67.548 C 364.13 -69.337 363.939 -69.829 362.677 -69.901 C 345.968 -70.379 319.365 -70.499 319.365 -70.382 C 304.392 -70.382 290.799 -66.612 278.694 -59.641 Z" style="fill: rgb(189, 189, 189); stroke-linejoin: round; stroke-linecap: round; stroke: rgb(153, 153, 153); stroke-width: 0;" transform="matrix(0, 1, -1, 0, 206.477031, -347.475043)" bx:origin="0 0"/>
    <path d="M 278.695 227.324 C 277.6 226.594 277.154 226.561 276.986 222.591 C 276.977 222.381 277.199 221.845 277.713 222.103 C 289.817 229.473 303.62 234.093 319.507 234.572 L 363.992 234.451 C 364.369 234.464 364.336 235.017 364.314 235.231 C 364.131 237.02 363.94 237.512 362.678 237.584 C 345.969 238.062 319.366 238.182 319.366 238.065 C 304.393 238.065 290.8 234.295 278.695 227.324 Z" style="fill: rgb(189, 189, 189); stroke-linejoin: round; stroke-linecap: round; stroke: rgb(153, 153, 153); stroke-width: 0;" transform="matrix(0, -1, 1, 0, 38.794945, 515.158993)" bx:origin="0 1"/>
    <path id="path-3" style="fill: rgb(204, 204, 204); fill-opacity: 1; fill-rule: nonzero; stroke: none; clip-path: url(#clipPath16);" d="M 355.912 -108.77 C 310.34 -108.573 273.398 -71.826 273.398 -26.255 C 273.398 19.315 310.34 56.259 355.912 56.259 C 375.958 56.259 394.332 49.105 408.628 37.217 L 523.513 37.217 C 537.809 49.105 556.182 56.259 576.229 56.259 C 621.801 56.259 658.743 19.315 658.743 -26.255 C 658.743 -71.826 621.801 -108.77 576.229 -108.77 L 466.071 -108.56 L 355.912 -108.77 Z" transform="matrix(0, 1, -1, 0, 164.628016, -382.168021)" bx:origin="0 0"/>
    <g transform="matrix(0, 1, -1, 0, 275.5755, -108.769524)">
      <g>
        <path d="M 145.366 123.432 C 145.419 123.096 145.279 122.834 144.946 122.648 L 144.386 122.329 C 143.599 121.86 143.226 121.222 143.266 120.416 C 143.286 120.044 143.383 119.716 143.556 119.433 C 143.729 119.14 143.973 118.914 144.286 118.755 C 144.593 118.595 144.929 118.52 145.296 118.529 C 145.789 118.538 146.186 118.728 146.486 119.1 C 146.786 119.463 146.933 119.955 146.926 120.575 L 145.766 120.575 C 145.773 120.327 145.733 120.124 145.646 119.964 C 145.559 119.814 145.416 119.734 145.216 119.725 C 145.016 119.725 144.843 119.787 144.696 119.911 C 144.543 120.034 144.453 120.207 144.426 120.429 C 144.386 120.731 144.556 120.978 144.936 121.173 C 145.316 121.369 145.593 121.532 145.766 121.665 C 146.313 122.099 146.569 122.684 146.536 123.419 C 146.516 123.8 146.423 124.137 146.256 124.429 C 146.089 124.712 145.859 124.934 145.566 125.093 C 145.273 125.253 144.939 125.328 144.566 125.319 C 144.299 125.31 144.053 125.257 143.826 125.16 C 143.593 125.053 143.393 124.898 143.226 124.695 C 142.899 124.287 142.743 123.747 142.756 123.073 L 143.926 123.087 C 143.913 123.423 143.963 123.681 144.076 123.857 C 144.183 124.026 144.369 124.11 144.636 124.11 C 144.829 124.11 144.993 124.053 145.126 123.937 C 145.259 123.814 145.339 123.645 145.366 123.432 Z" style="fill: rgb(76, 76, 76);" bx:origin="0.5 0.5"/>
        <path d="M 169.788 119.844 L 168.348 119.844 L 167.638 125.226 L 166.468 125.226 L 167.178 119.844 L 165.748 119.844 L 165.918 118.609 L 169.958 118.609 L 169.788 119.844 Z" style="fill: rgb(76, 76, 76);" bx:origin="0.5 0.5"/>
        <path d="M 164.477 122.967 C 164.443 123.436 164.327 123.848 164.127 124.203 C 163.927 124.566 163.667 124.845 163.347 125.04 C 163.02 125.235 162.667 125.328 162.287 125.319 C 161.767 125.302 161.36 125.08 161.067 124.655 C 160.767 124.22 160.603 123.636 160.577 122.901 C 160.557 122.413 160.597 121.878 160.697 121.293 C 160.797 120.717 160.96 120.217 161.187 119.791 C 161.42 119.357 161.69 119.034 161.997 118.821 C 162.31 118.609 162.65 118.506 163.017 118.516 C 163.563 118.533 163.993 118.751 164.307 119.167 C 164.62 119.592 164.793 120.173 164.827 120.908 L 163.657 120.908 C 163.663 120.5 163.61 120.213 163.497 120.044 C 163.377 119.867 163.197 119.774 162.957 119.765 C 162.337 119.738 161.96 120.372 161.827 121.665 C 161.767 122.259 161.737 122.679 161.737 122.927 C 161.723 123.671 161.93 124.057 162.357 124.083 C 162.63 124.093 162.85 124 163.017 123.804 C 163.183 123.609 163.29 123.339 163.337 122.994 L 164.477 122.967 Z" style="fill: rgb(76, 76, 76);" bx:origin="0.5 0.5"/>
        <path d="M 159.332 122.422 L 157.502 122.422 L 157.302 124.004 L 159.462 124.004 L 159.302 125.226 L 155.972 125.226 L 156.832 118.609 L 160.172 118.609 L 160.012 119.844 L 157.842 119.844 L 157.662 121.24 L 159.492 121.24 L 159.332 122.422 Z" style="fill: rgb(76, 76, 76);" bx:origin="0.5 0.5"/>
        <path d="M 153.087 124.004 L 155.107 124.004 L 154.947 125.226 L 151.757 125.226 L 152.617 118.609 L 153.787 118.609 L 153.087 124.004 Z" style="fill: rgb(76, 76, 76);" bx:origin="0.5 0.5"/>
        <path d="M 150.782 122.422 L 148.952 122.422 L 148.752 124.004 L 150.912 124.004 L 150.752 125.226 L 147.422 125.226 L 148.282 118.609 L 151.622 118.609 L 151.462 119.844 L 149.292 119.844 L 149.112 121.24 L 150.942 121.24 L 150.782 122.422 Z" style="fill: rgb(76, 76, 76);" bx:origin="0.5 0.5"/>
      </g>
      <g>
        <path d="M 189.002 123.432 C 189.055 123.096 188.915 122.834 188.582 122.648 L 188.022 122.329 C 187.235 121.86 186.862 121.222 186.902 120.416 C 186.922 120.044 187.019 119.716 187.192 119.433 C 187.365 119.14 187.609 118.914 187.922 118.755 C 188.229 118.595 188.565 118.52 188.932 118.529 C 189.425 118.538 189.822 118.728 190.122 119.1 C 190.422 119.463 190.569 119.955 190.562 120.575 L 189.402 120.575 C 189.409 120.327 189.369 120.124 189.282 119.964 C 189.195 119.814 189.052 119.734 188.852 119.725 C 188.652 119.725 188.479 119.787 188.332 119.911 C 188.179 120.034 188.089 120.207 188.062 120.429 C 188.022 120.731 188.192 120.978 188.572 121.173 C 188.952 121.369 189.229 121.532 189.402 121.665 C 189.949 122.099 190.205 122.684 190.172 123.419 C 190.152 123.8 190.059 124.137 189.892 124.429 C 189.725 124.712 189.495 124.934 189.202 125.093 C 188.909 125.253 188.575 125.328 188.202 125.319 C 187.935 125.31 187.689 125.257 187.462 125.16 C 187.229 125.053 187.029 124.898 186.862 124.695 C 186.535 124.287 186.379 123.747 186.392 123.073 L 187.562 123.087 C 187.549 123.423 187.599 123.681 187.712 123.857 C 187.819 124.026 188.005 124.11 188.272 124.11 C 188.465 124.11 188.629 124.053 188.762 123.937 C 188.895 123.814 188.975 123.645 189.002 123.432 Z" style="fill: rgb(76, 76, 76);" bx:origin="0.5 0.5"/>
        <path d="M 210.073 119.844 L 208.633 119.844 L 207.923 125.226 L 206.753 125.226 L 207.463 119.844 L 206.033 119.844 L 206.203 118.609 L 210.243 118.609 L 210.073 119.844 Z" style="fill: rgb(76, 76, 76);" bx:origin="0.5 0.5"/>
        <path d="M 202.25 121.665 L 202.93 121.665 C 203.116 121.665 203.28 121.608 203.42 121.492 C 203.56 121.369 203.66 121.2 203.72 120.987 C 203.78 120.784 203.796 120.579 203.77 120.376 C 203.723 120.04 203.56 119.862 203.28 119.844 L 202.49 119.844 Z M 202.09 122.887 L 201.79 125.226 L 200.62 125.226 L 201.48 118.609 L 203.24 118.622 C 203.8 118.622 204.233 118.795 204.54 119.14 C 204.84 119.495 204.973 119.973 204.94 120.575 C 204.92 121.054 204.816 121.448 204.63 121.758 C 204.45 122.077 204.196 122.325 203.87 122.502 L 204.54 125.146 L 204.54 125.226 L 203.29 125.226 L 202.74 122.887 Z" style="fill: rgb(76, 76, 76);" bx:origin="0 0"/>
        <path d="M 197.201 123.99 L 196.761 125.226 L 195.471 125.226 L 198.111 118.609 L 199.211 118.609 L 200.131 125.226 L 198.911 125.226 L 198.791 123.99 Z M 197.641 122.755 L 198.671 122.755 L 198.451 120.482 Z" style="fill: rgb(76, 76, 76);" bx:origin="0 0"/>
        <path d="M 195.548 119.844 L 194.108 119.844 L 193.398 125.226 L 192.228 125.226 L 192.938 119.844 L 191.508 119.844 L 191.678 118.609 L 195.718 118.609 L 195.548 119.844 Z" style="fill: rgb(76, 76, 76);" bx:origin="0.5 0.5"/>
      </g>
    </g>
    <path id="path42" style="fill: rgb(153, 153, 153); fill-opacity: 1; fill-rule: nonzero; stroke: rgb(153, 153, 153); clip-path: url(#clipPath16);" d="M 236.527 -27.418 C 236.527 -2.015 215.969 18.577 190.607 18.577 C 165.247 18.577 144.688 -2.015 144.688 -27.418 C 144.688 -52.82 165.247 -73.413 190.607 -73.413 C 215.969 -73.413 236.527 -52.82 236.527 -27.418" transform="matrix(0, 1, -1, 0, 163.189507, -218.025506)" bx:origin="0.5 0.5"/>
    <path id="path46" style="fill: rgb(204, 204, 204); fill-opacity: 1; fill-rule: nonzero; stroke: none; clip-path: url(#clipPath16);" d="M 235.065 -27.418 C 235.065 -2.824 215.162 17.112 190.608 17.112 C 166.055 17.112 146.15 -2.824 146.15 -27.418 C 146.15 -52.011 166.055 -71.948 190.608 -71.948 C 215.162 -71.948 235.065 -52.011 235.065 -27.418" transform="matrix(0, 1, -1, 0, 163.189507, -218.025506)" bx:origin="0.5 0.5"/>
    <path id="path50" style="fill: rgb(102, 102, 102); fill-opacity: 1; fill-rule: nonzero; stroke: none; clip-path: url(#clipPath16);" d="M 263.191 195.676 C 263.191 236.008 230.494 268.704 190.162 268.704 C 149.829 268.704 117.133 236.008 117.133 195.676 C 117.133 155.343 149.829 122.647 190.162 122.647 C 230.494 122.647 263.191 155.343 263.191 195.676" transform="matrix(0, 1, -1, 0, 385.83754, 5.513482)" bx:origin="0.5 0.5"/>
    <path id="path70" style="fill: rgb(76, 76, 76); fill-opacity: 1; fill-rule: nonzero; stroke: none; clip-path: url(#clipPath16);" d="M 222.517 -38.95 L 202.058 -38.95 L 202.058 -59.408 C 202.058 -60.282 201.343 -60.998 200.468 -60.998 L 180.597 -60.998 C 179.722 -60.998 179.007 -60.282 179.007 -59.408 L 179.007 -38.95 L 158.548 -38.95 C 157.675 -38.95 156.96 -38.235 156.96 -37.361 L 156.96 -17.488 C 156.96 -16.615 157.675 -15.9 158.548 -15.9 L 179.007 -15.9 L 179.007 4.56 C 179.007 5.434 179.722 6.149 180.597 6.149 L 200.468 6.149 C 201.343 6.149 202.058 5.434 202.058 4.56 L 202.058 -15.9 L 222.517 -15.9 C 223.391 -15.9 224.106 -16.615 224.106 -17.488 L 224.106 -37.361 C 224.106 -38.235 223.391 -38.95 222.517 -38.95" transform="matrix(0, 1, -1, 0, 163.108509, -217.957521)" bx:origin="0.5 0.5"/>
    <g transform="matrix(0, 1, -1, 0, 276.5755, -108.769524)">
      <path id="path-5" style="fill: rgb(204, 204, 204); fill-opacity: 1; fill-rule: nonzero; stroke: none; clip-path: url(#clipPath16);" d="M 312.357 129.298 C 294.74 140.036 275.283 116.973 291.068 100.81 L 331.323 71.63 C 350.607 60.631 367.146 85.739 352.724 99.426" transform="matrix(0.999391, -0.034899, 0.034899, 0.999391, -3.305862, 11.271155)" bx:origin="0.5 0.5"/>
      <path id="path-1" style="fill: rgb(204, 204, 204); fill-opacity: 1; fill-rule: nonzero; stroke: none; clip-path: url(#clipPath16);" d="M 275.501 100.938 C 257.884 111.676 238.427 88.613 254.212 72.45 L 294.467 43.27 C 313.751 32.271 330.29 57.379 315.868 71.066" transform="matrix(0.999391, -0.034899, 0.034899, 0.999391, -2.338579, 9.967647)" bx:origin="0.5 0.5"/>
    </g>
    <path id="path74" style="fill: rgb(126, 238, 128); fill-opacity: 1; fill-rule: nonzero; stroke: none; clip-path: url(#clipPath16);" d="M 204.249 157.72 C 204.249 165.466 197.969 171.746 190.223 171.746 C 182.475 171.746 176.195 165.466 176.195 157.72 C 176.195 149.974 182.475 143.694 190.223 143.694 C 197.969 143.694 204.249 149.974 204.249 157.72" transform="matrix(0, 1, -1, 0, 347.941993, -32.50201)" bx:origin="0.5 0.5"/>
    <path id="path78" style="fill: rgb(0, 152, 223); fill-opacity: 1; fill-rule: nonzero; stroke: none; clip-path: url(#clipPath16);" d="M 233.431 194.675 C 233.431 202.421 227.151 208.701 219.405 208.701 C 211.658 208.701 205.378 202.421 205.378 194.675 C 205.378 186.929 211.658 180.649 219.405 180.649 C 227.151 180.649 233.431 186.929 233.431 194.675" transform="matrix(0, 1, -1, 0, 414.079514, -24.729503)" bx:origin="0.5 0.5"/>
    <path id="path-6" style="fill: rgb(254, 233, 75); fill-opacity: 1; fill-rule: nonzero; stroke: none; clip-path: url(#clipPath16);" d="M 175.398 194.096 C 175.398 201.842 169.118 208.122 161.372 208.122 C 153.624 208.122 147.344 201.842 147.344 194.096 C 147.344 186.35 153.624 180.07 161.372 180.07 C 169.118 180.07 175.398 186.35 175.398 194.096" transform="matrix(0, 1, -1, 0, 355.467008, 32.724982)" bx:origin="0.5 0.5"/>
    <path id="path-7" style="fill: rgb(255, 121, 97); fill-opacity: 1; fill-rule: nonzero; stroke: none; clip-path: url(#clipPath16);" d="M 205.146 232.051 C 205.146 239.797 198.867 246.077 191.12 246.077 C 183.373 246.077 177.093 239.797 177.093 232.051 C 177.093 224.305 183.373 218.025 191.12 218.025 C 198.867 218.025 205.146 224.305 205.146 232.051" transform="matrix(0, 1, -1, 0, 423.170495, 40.93146)" bx:origin="0.5 0.5"/>
    <path id="path90" style="fill: rgb(102, 102, 102); fill-opacity: 1; fill-rule: nonzero; stroke: none; clip-path: url(#clipPath16);" d="M 185.789 -51.501 C 183.767 -50.355 183.767 -48.479 185.789 -47.331 L 193.623 -42.889 C 195.645 -41.742 197.299 -42.277 197.299 -44.079 L 197.299 -54.754 C 197.299 -56.555 195.645 -57.09 193.623 -55.944 L 185.789 -51.501 C 183.767 -50.355 183.767 -48.479 185.789 -47.331 L 193.623 -42.889 C 195.645 -41.742 197.299 -42.277 197.299 -44.079 L 197.299 -54.754 C 197.299 -56.555 195.645 -57.09 193.623 -55.944 L 185.789 -51.501 Z" transform="matrix(0, 1, -1, 0, 141.116972, -239.948987)" bx:origin="0.5 0.5"/>
    <path id="path94" style="fill: rgb(102, 102, 102); fill-opacity: 1; fill-rule: nonzero; stroke: none; clip-path: url(#clipPath16);" d="M 195.276 -7.519 C 197.299 -6.373 197.299 -4.497 195.276 -3.349 L 187.442 1.093 C 185.42 2.24 183.766 1.705 183.766 -0.097 L 183.766 -10.772 C 183.766 -12.573 185.42 -13.108 187.442 -11.962 L 195.276 -7.519 C 197.299 -6.373 197.299 -4.497 195.276 -3.349 L 187.442 1.093 C 185.42 2.24 183.766 1.705 183.766 -0.097 L 183.766 -10.772 C 183.766 -12.573 185.42 -13.108 187.442 -11.962 L 195.276 -7.519 Z" transform="matrix(0, 1, -1, 0, 185.098505, -195.966522)" bx:origin="0.5 0.5"/>
    <path id="path98" style="fill: rgb(102, 102, 102); fill-opacity: 1; fill-rule: nonzero; stroke: none; clip-path: url(#clipPath16);" d="M 214.608 -32.169 C 213.462 -34.191 211.585 -34.191 210.438 -32.169 L 205.996 -24.335 C 204.85 -22.313 205.385 -20.659 207.186 -20.659 L 217.861 -20.659 C 219.662 -20.659 220.197 -22.313 219.051 -24.335 L 214.608 -32.169 C 213.462 -34.191 211.585 -34.191 210.438 -32.169 L 205.996 -24.335 C 204.85 -22.313 205.385 -20.659 207.186 -20.659 L 217.861 -20.659 C 219.662 -20.659 220.197 -22.313 219.051 -24.335 L 214.608 -32.169 Z" transform="matrix(0, 1, -1, 0, 185.098487, -239.948503)" bx:origin="0.5 0.5"/>
    <path id="path102" style="fill: rgb(102, 102, 102); fill-opacity: 1; fill-rule: nonzero; stroke: none; clip-path: url(#clipPath16);" d="M 170.626 -22.682 C 169.48 -20.659 167.604 -20.659 166.457 -22.682 L 162.014 -30.515 C 160.868 -32.538 161.404 -34.192 163.204 -34.192 L 173.88 -34.192 C 175.681 -34.192 176.215 -32.538 175.07 -30.515 L 170.626 -22.682 C 169.48 -20.659 167.604 -20.659 166.457 -22.682 L 162.014 -30.515 C 160.868 -32.538 161.404 -34.192 163.204 -34.192 L 173.88 -34.192 C 175.681 -34.192 176.215 -32.538 175.07 -30.515 L 170.626 -22.682 Z" transform="matrix(0, 1, -1, 0, 141.115986, -195.967006)" bx:origin="0.5 0.5"/>
    <path id="path122" style="fill: rgb(76, 76, 76); fill-opacity: 1; fill-rule: nonzero; stroke: none; clip-path: url(#clipPath16);" d="M 232.222 83.157 L 231.88 84.096 L 232.14 84.096 L 232.222 83.157 Z M 222.578 82.038 C 222.55 82.038 222.53 82.053 222.511 82.071 L 222.299 83.191 L 222.299 83.198 C 222.299 83.242 222.326 83.274 222.367 83.274 L 222.56 83.274 C 222.61 83.274 222.73 83.174 222.741 83.125 L 222.919 82.201 C 222.925 82.147 222.838 82.038 222.788 82.038 L 222.578 82.038 Z M 261.632 81.593 L 262.723 81.593 L 262.638 82.053 L 262.365 82.053 L 261.794 85.317 L 261.272 85.317 L 261.843 82.053 L 261.551 82.053 L 261.632 81.593 Z M 256.791 81.593 L 257.25 81.593 L 257.491 83.537 L 257.851 81.593 L 258.372 81.593 L 257.689 85.317 L 257.231 85.317 L 257.055 83.157 L 256.629 85.317 L 256.091 85.317 L 256.791 81.593 Z M 252.067 81.593 L 253.03 81.593 L 252.964 82.053 L 252.442 82.053 L 252.228 83.205 L 252.736 83.205 L 252.669 83.602 L 252.15 83.602 L 251.936 84.855 L 252.461 84.855 L 252.377 85.317 L 251.35 85.317 L 252.067 81.593 Z M 246.152 81.593 L 246.756 81.593 L 246.852 83.751 L 247.782 81.607 L 248.368 81.607 L 247.749 85.317 L 247.292 85.317 L 247.588 83.355 L 246.772 85.317 L 246.448 85.317 L 246.348 83.307 L 245.989 85.317 L 245.467 85.317 L 246.152 81.593 Z M 240.76 81.593 L 241.217 81.593 L 241.459 83.537 L 241.819 81.593 L 242.34 81.593 L 241.657 85.317 L 241.185 85.317 L 241.019 83.157 L 240.597 85.317 L 240.06 85.317 L 240.76 81.593 Z M 236.555 81.593 L 237.029 81.593 L 236.329 85.317 L 235.871 85.317 L 236.555 81.593 Z M 232.222 81.593 L 232.842 81.593 L 232.646 85.317 L 232.027 85.317 L 232.108 84.461 L 231.733 84.461 L 231.423 85.317 L 230.87 85.317 L 232.222 81.593 Z M 226.797 81.593 L 227.887 81.593 L 227.822 82.053 L 227.547 82.053 L 226.96 85.317 L 226.438 85.317 L 227.009 82.053 L 226.715 82.053 L 226.797 81.593 Z M 222.139 81.593 L 223.178 81.593 C 223.373 81.593 223.496 81.765 223.458 81.971 L 223.212 83.29 C 223.187 83.432 222.938 83.549 222.806 83.602 L 222.838 83.602 L 222.853 83.602 L 222.872 83.602 L 222.872 83.619 L 222.886 83.619 L 222.903 83.619 L 222.919 83.619 L 222.935 83.619 L 222.951 83.636 L 222.968 83.636 L 222.985 83.636 L 223 83.636 L 223 83.652 L 223.019 83.652 L 223.033 83.652 L 223.033 83.669 L 223.051 83.669 C 223.072 83.71 223.081 83.826 223.081 83.851 C 223.081 83.871 222.819 85.317 222.819 85.317 L 222.35 85.317 C 222.35 85.317 222.603 84.019 222.61 83.966 C 222.613 83.909 222.604 83.836 222.592 83.785 C 222.589 83.745 222.587 83.677 222.546 83.636 L 222.22 83.636 L 221.908 85.317 L 221.438 85.317 L 222.139 81.593 Z M 217.542 81.593 L 218.52 81.593 L 218.439 82.053 L 217.933 82.053 L 217.705 83.205 L 218.211 83.205 L 218.146 83.602 L 217.637 83.602 L 217.43 84.855 L 217.933 84.855 L 217.87 85.317 L 216.826 85.317 L 217.542 81.593 Z M 212.803 81.593 L 213.879 81.593 L 213.81 82.053 L 213.536 82.053 L 212.947 85.317 L 212.424 85.317 L 212.997 82.053 L 212.703 82.053 L 212.803 81.593 Z M 207.913 81.593 L 208.368 81.593 L 208.614 83.537 L 208.973 81.593 L 209.508 81.593 L 208.809 85.317 L 208.354 85.317 L 208.176 83.157 L 207.748 85.317 L 207.213 85.317 L 207.913 81.593 Z M 203.415 81.593 L 204.378 81.593 L 204.313 82.053 L 203.791 82.053 L 203.579 83.205 L 204.085 83.205 L 204.02 83.602 L 203.499 83.602 L 203.302 84.855 L 203.807 84.855 L 203.725 85.317 L 202.684 85.317 L 203.415 81.593 Z M 290.927 81.46 L 291.529 81.46 L 291.627 83.602 L 292.555 81.477 L 293.143 81.46 L 292.523 85.169 L 292.067 85.169 L 292.361 83.205 L 291.548 85.169 L 291.219 85.169 L 291.122 83.157 L 290.763 85.169 L 290.227 85.169 L 290.927 81.46 Z M 286.901 81.46 L 287.88 81.46 L 287.798 81.905 L 287.293 81.905 L 287.066 83.075 L 287.585 83.075 L 287.505 83.453 L 287 83.453 L 286.788 84.707 L 287.293 84.707 L 287.226 85.169 L 286.187 85.169 L 286.901 81.46 Z M 282.632 81.46 L 283.724 81.46 L 283.645 81.905 L 283.366 81.905 L 282.798 85.169 L 282.259 85.169 L 282.83 81.905 L 282.553 81.905 L 282.632 81.46 Z M 278.836 81.46 L 278.854 81.46 L 278.869 81.46 L 278.885 81.46 L 278.902 81.46 L 278.918 81.46 L 279.635 81.46 C 279.827 81.46 279.965 81.618 279.929 81.822 L 279.749 82.745 L 279.309 82.745 L 279.408 82.137 C 279.431 81.997 279.349 81.889 279.212 81.889 C 279.076 81.889 278.94 81.997 278.918 82.137 L 278.836 82.58 C 278.82 82.606 278.86 82.733 278.885 82.745 C 278.943 82.783 279.522 83.745 279.522 83.819 C 279.539 83.853 279.539 83.869 279.539 83.883 C 279.516 84.003 279.375 84.825 279.375 84.825 C 279.339 85.011 279.157 85.169 278.97 85.169 L 278.268 85.169 C 278.077 85.169 277.954 85.011 277.99 84.825 L 278.151 83.883 L 278.626 83.883 L 278.511 84.559 C 278.489 84.698 278.575 84.825 278.709 84.825 C 278.844 84.825 278.972 84.698 278.999 84.559 L 279.099 84.015 C 279.007 83.787 278.434 82.958 278.397 82.762 C 278.374 82.739 278.361 82.622 278.363 82.533 C 278.368 82.433 278.495 81.822 278.495 81.822 L 278.511 81.806 L 278.511 81.79 L 278.511 81.774 L 278.53 81.741 L 278.53 81.723 L 278.544 81.707 L 278.544 81.69 L 278.56 81.674 L 278.56 81.659 L 278.576 81.643 L 278.591 81.626 L 278.591 81.607 L 278.608 81.607 L 278.626 81.593 L 278.642 81.576 L 278.659 81.56 L 278.675 81.544 L 278.691 81.526 L 278.709 81.511 L 278.724 81.511 L 278.739 81.493 L 278.755 81.493 L 278.772 81.477 L 278.789 81.477 L 278.823 81.477 L 278.836 81.46 Z M 273.509 81.46 L 274.096 81.46 L 274.177 82.862 L 274.928 81.46 L 275.514 81.46 L 274.308 83.602 L 274.014 85.169 L 273.492 85.169 L 273.755 83.487 L 273.509 81.46 Z M 269.762 81.46 L 269.779 81.46 L 269.795 81.46 L 269.808 81.46 L 269.828 81.46 L 269.842 81.46 L 270.56 81.46 C 270.753 81.46 270.89 81.618 270.853 81.822 L 270.673 82.745 L 270.235 82.745 L 270.333 82.137 C 270.355 81.997 270.273 81.889 270.136 81.889 C 270 81.889 269.865 81.997 269.842 82.137 L 269.762 82.58 C 269.748 82.606 269.787 82.733 269.808 82.745 C 269.871 82.783 270.447 83.745 270.447 83.819 C 270.459 83.853 270.467 83.869 270.461 83.883 C 270.447 84.003 270.282 84.825 270.282 84.825 C 270.248 85.011 270.069 85.169 269.875 85.169 L 269.194 85.169 C 269 85.169 268.879 85.011 268.914 84.825 L 269.079 83.883 L 269.549 83.883 L 269.434 84.559 C 269.413 84.698 269.495 84.825 269.633 84.825 C 269.764 84.825 269.903 84.698 269.925 84.559 L 270.021 84.015 C 269.935 83.787 269.357 82.958 269.321 82.762 C 269.297 82.739 269.285 82.622 269.288 82.533 C 269.295 82.433 269.42 81.822 269.42 81.822 L 269.434 81.822 L 269.434 81.806 L 269.434 81.79 L 269.434 81.774 L 269.453 81.741 L 269.453 81.723 L 269.467 81.707 L 269.467 81.69 L 269.486 81.674 L 269.486 81.659 L 269.499 81.643 L 269.519 81.626 L 269.519 81.607 L 269.534 81.607 L 269.549 81.593 L 269.566 81.576 L 269.582 81.56 L 269.582 81.544 L 269.601 81.544 L 269.614 81.526 L 269.633 81.511 L 269.648 81.511 L 269.665 81.493 L 269.681 81.493 L 269.696 81.477 L 269.714 81.477 L 269.746 81.477 L 269.762 81.46 Z M 201.397 86.371 L 294.399 86.371 L 294.399 80.884 L 201.397 80.884 L 201.397 86.371 Z M 234.503 64.686 L 234.518 64.686 L 234.537 64.686 L 234.552 64.686 L 234.57 64.686 L 235.515 64.686 C 235.736 64.686 236.209 65.199 236.163 65.427 L 235.302 69.547 C 235.263 69.761 234.733 70.269 234.518 70.269 L 233.625 70.269 C 233.44 70.269 233.31 70.148 233.298 69.974 C 233.298 69.946 233.295 69.907 233.298 69.876 L 234.258 64.817 L 234.276 64.8 L 234.29 64.785 L 234.324 64.767 L 234.341 64.767 L 234.357 64.752 L 234.371 64.734 L 234.388 64.734 L 234.404 64.718 L 234.422 64.718 L 234.455 64.702 L 234.47 64.702 L 234.488 64.702 L 234.503 64.702 L 234.503 64.686 Z M 221.518 64.686 L 222.527 64.686 C 222.752 64.686 223.22 65.199 223.178 65.427 L 222.317 69.563 C 222.275 69.775 221.991 70.269 221.781 70.269 L 220.559 70.269 L 220.539 70.269 L 220.526 70.269 L 220.507 70.254 L 220.491 70.254 L 220.474 70.254 L 220.459 70.254 L 220.443 70.254 L 220.443 70.236 L 220.426 70.236 L 220.41 70.236 L 220.393 70.221 L 220.378 70.221 L 220.361 70.206 L 220.344 70.189 L 220.326 70.189 L 220.326 70.173 L 220.313 70.156 L 220.294 70.139 L 220.294 70.122 L 220.281 70.108 L 220.264 70.089 L 220.264 70.074 L 220.264 70.058 L 220.247 70.041 L 220.247 70.024 L 220.247 70.008 L 220.23 69.991 L 220.23 69.974 C 220.23 69.946 220.226 69.907 220.23 69.876 L 221.206 64.817 C 221.296 64.742 221.406 64.686 221.518 64.686 M 292.753 64.618 L 292.816 64.618 C 293.43 64.618 293.835 65.119 293.728 65.737 L 291.772 76.698 C 291.667 77.319 291.101 77.836 290.487 77.836 C 289.871 77.836 289.615 77.32 289.72 76.698 L 291.66 65.737 L 291.675 65.689 L 291.695 65.642 L 291.708 65.575 L 291.726 65.526 L 291.74 65.46 L 291.757 65.412 L 291.772 65.361 L 291.806 65.312 L 291.823 65.264 L 291.854 65.211 L 291.872 65.163 L 291.902 65.114 L 291.937 65.081 L 291.969 65.031 L 292.002 64.982 L 292.05 64.949 L 292.084 64.915 L 292.115 64.884 L 292.164 64.852 L 292.213 64.817 L 292.245 64.785 L 292.293 64.752 L 292.344 64.734 L 292.393 64.702 L 292.426 64.686 L 292.489 64.669 L 292.539 64.651 L 292.589 64.651 L 292.637 64.637 L 292.703 64.637 L 292.753 64.618 Z M 284.36 64.618 L 285.319 64.618 C 285.938 64.618 286.356 65.119 286.251 65.737 L 284.198 76.698 C 284.09 77.32 283.492 77.836 282.878 77.836 L 281.932 77.836 L 284.36 64.618 Z M 291.529 62.69 C 290.635 62.69 289.781 63.433 289.621 64.355 L 287.293 77.884 C 287.141 78.749 287.707 79.432 288.567 79.432 L 292.002 79.432 C 292.864 79.432 293.701 78.749 293.859 77.884 L 296.383 64.355 C 296.557 63.433 295.974 62.69 295.083 62.69 L 291.529 62.69 Z M 282.585 62.69 L 279.438 79.432 L 284.198 79.432 C 285.062 79.432 285.893 78.749 286.055 77.884 L 288.581 64.355 C 288.751 63.431 288.17 62.69 287.277 62.69 L 282.585 62.69 Z M 274.29 62.69 L 271.146 79.432 L 273.558 79.432 L 275.497 69.729 L 276.263 79.432 L 278.349 79.432 L 281.493 62.69 L 279.082 62.69 L 277.47 71.443 L 276.391 62.69 L 274.29 62.69 Z M 268.996 62.69 L 265.736 79.432 L 270.429 79.432 L 270.754 77.358 L 268.442 77.358 L 269.402 71.705 L 271.717 71.705 L 272.042 69.959 L 269.729 69.959 L 270.74 64.767 L 273.052 64.767 L 273.377 62.69 L 268.996 62.69 Z M 263.259 62.69 L 262.87 64.767 L 264.172 64.767 L 261.597 79.432 L 263.977 79.432 L 266.6 64.767 L 267.854 64.767 L 268.18 62.69 L 263.259 62.69 Z M 255.181 62.69 L 252.035 79.432 L 254.446 79.432 L 256.383 69.729 L 257.15 79.432 L 259.236 79.432 L 262.38 62.69 L 259.969 62.69 L 258.357 71.443 L 257.283 62.69 L 255.181 62.69 Z M 252.003 62.69 L 248.86 79.432 L 250.941 79.432 L 254.088 62.69 L 252.003 62.69 Z M 243.724 62.69 L 240.58 79.432 L 242.977 79.432 L 244.913 69.729 L 245.679 79.432 L 247.767 79.432 L 250.91 62.69 L 248.515 62.69 L 246.888 71.443 L 245.812 62.69 L 243.724 62.69 Z M 232.563 62.69 L 229.435 79.432 L 231.523 79.432 L 232.939 71.855 L 234.422 71.855 C 234.617 72.037 234.638 72.377 234.668 72.546 C 234.705 72.792 234.746 73.107 234.716 73.352 C 234.689 73.598 233.575 79.432 233.575 79.432 L 235.661 79.432 C 235.661 79.432 236.835 73.076 236.835 72.974 C 236.838 72.87 236.835 72.545 236.72 72.366 C 236.643 72.249 236.513 71.984 236.36 71.887 C 236.071 71.699 235.743 71.573 235.743 71.573 L 235.596 71.573 C 236.19 71.335 237.317 70.944 237.435 70.303 L 238.576 64.355 C 238.75 63.431 238.168 62.69 237.272 62.69 L 232.563 62.69 Z M 226.96 62.69 L 223.7 79.432 L 228.394 79.432 L 228.721 77.358 L 226.407 77.358 L 227.351 71.705 L 229.664 71.705 L 229.988 69.959 L 227.677 69.959 L 228.702 64.767 L 231.017 64.767 L 231.342 62.69 L 226.96 62.69 Z M 219.514 62.69 L 216.37 79.432 L 218.455 79.432 L 219.89 71.855 L 222.546 71.855 C 223.408 71.855 224.228 71.163 224.387 70.303 L 225.527 64.355 C 225.695 63.431 225.115 62.69 224.22 62.69 L 221.599 62.69 L 219.514 62.69 Z M 212.019 62.69 L 209.413 77.884 C 209.261 78.749 209.84 79.432 210.7 79.432 L 213.81 79.432 C 214.672 79.432 215.509 78.749 215.669 77.884 L 218.455 62.69 L 216.498 62.69 L 213.843 77.458 C 213.807 77.67 213.598 77.853 213.387 77.853 L 211.841 77.853 C 211.624 77.853 211.48 77.671 211.513 77.458 L 214.104 62.69 L 212.019 62.69 Z M 206.022 62.69 C 205.131 62.69 204.26 63.433 204.099 64.355 L 204.099 64.372 L 204.099 64.388 L 204.099 64.406 L 204.085 64.42 L 204.085 64.455 L 204.085 64.47 L 204.068 64.504 L 204.068 64.536 L 204.053 64.57 L 204.053 64.618 L 204.034 64.651 L 204.034 64.702 L 204.02 64.752 L 204.002 64.8 L 203.984 64.899 L 203.954 65.015 L 203.94 65.13 L 203.905 65.245 L 203.888 65.378 L 203.855 65.508 L 203.826 65.657 L 203.791 65.79 L 203.741 66.068 L 203.71 66.216 L 203.678 66.35 L 203.661 66.481 L 203.628 66.613 L 203.594 66.745 L 203.579 66.876 L 203.566 66.992 L 203.531 67.092 L 203.513 67.206 L 203.513 67.254 L 203.499 67.289 L 203.499 67.335 L 203.499 67.369 L 203.48 67.422 L 203.48 67.453 L 203.48 67.485 L 203.465 67.519 L 203.465 67.536 L 203.465 67.552 C 203.449 67.955 203.502 68.506 203.628 68.608 C 203.786 69.492 206.711 73.601 206.626 74.228 C 206.546 74.855 206.203 76.698 206.203 76.698 C 206.098 77.32 205.675 77.818 205.06 77.818 C 204.448 77.818 204.029 77.323 204.133 76.698 L 204.687 73.635 L 202.504 73.635 L 201.77 77.884 C 201.621 78.749 202.199 79.432 203.06 79.432 L 206.169 79.432 C 207.032 79.432 207.852 78.749 208.01 77.884 C 208.01 77.884 208.814 73.913 208.809 73.635 C 208.806 73.35 208.729 73.319 208.729 73.319 C 208.729 72.996 206.125 68.652 205.86 68.488 C 205.746 68.423 205.653 67.994 205.647 67.733 C 205.643 67.473 205.99 65.737 205.99 65.737 C 206.098 65.119 206.68 64.618 207.295 64.618 C 207.91 64.618 208.166 65.119 208.059 65.737 L 207.588 68.488 L 209.788 68.488 L 210.555 64.355 C 210.727 63.433 210.143 62.69 209.248 62.69 L 206.022 62.69 Z" transform="matrix(0, 1, -1, 0, 323.507497, -174.446506)" bx:origin="0.5 0.5"/>
    <path id="path126" style="fill: rgb(102, 102, 102); fill-opacity: 1; fill-rule: nonzero; stroke: none; clip-path: url(#clipPath16);" d="M 197.046 -27.54 C 197.046 -23.913 194.106 -20.974 190.48 -20.974 C 186.854 -20.974 183.915 -23.913 183.915 -27.54 C 183.915 -31.166 186.854 -34.106 190.48 -34.106 C 194.106 -34.106 197.046 -31.166 197.046 -27.54" transform="matrix(0, 1, -1, 0, 162.940492, -218.020506)" bx:origin="0.5 0.5"/>
    <path id="path130" style="fill: rgb(76, 76, 76); fill-opacity: 1; fill-rule: nonzero; stroke: none; clip-path: url(#clipPath16);" d="M 195.033 -27.541 C 195.033 -25.026 192.995 -22.988 190.481 -22.988 C 187.966 -22.988 185.927 -25.026 185.927 -27.541 C 185.927 -30.056 187.966 -32.093 190.481 -32.093 C 192.995 -32.093 195.033 -30.056 195.033 -27.541" transform="matrix(0, 1, -1, 0, 162.939488, -218.020506)" bx:origin="0.5 0.5"/>
    <path id="path-4" style="fill: rgb(102, 102, 102); fill-opacity: 1; fill-rule: nonzero; stroke: none; clip-path: url(#clipPath16);" d="M 190.568 46.168 L 173.9 58.771 C 168.138 63.149 161.181 54.92 167.41 50.187 L 184.077 37.583 C 190.032 33.164 196.607 41.687 190.568 46.168" transform="matrix(0.017452, 0.999848, -0.999848, 0.017452, 223.921094, -131.550669)" bx:origin="0.5 0.5"/>
    <path id="path-2" style="fill: rgb(102, 102, 102); fill-opacity: 1; fill-rule: nonzero; stroke: none; clip-path: url(#clipPath16);" d="M 190.568 87.506 L 173.9 100.109 C 168.138 104.487 161.181 96.258 167.41 91.525 L 184.077 78.921 C 190.032 74.502 196.607 83.025 190.568 87.506" transform="matrix(0.017452, 0.999848, -0.999848, 0.017452, 265.252788, -90.934112)" bx:origin="0.5 0.5"/>
    <path d="M 246.535 217.41 L 243.849 217.38 L 247.237 221.414 L 243.624 225.809 L 246.151 225.792 L 248.533 222.956 L 250.914 225.792 L 253.441 225.809 L 249.828 221.414 L 253.216 217.38 L 250.53 217.41 L 248.533 219.839 Z" style="fill: rgb(216, 216, 216);" transform="matrix(0, 1, -1, 0, 461.004026, -26.244028)" bx:origin="0 0"/>
    <path d="M 217.589 249.562 L 218.843 249.573 L 220.096 249.562 L 223.894 257.873 L 221.852 257.884 L 220.904 255.799 L 216.792 255.775 L 215.833 257.884 L 213.792 257.873 Z M 220.135 254.103 L 218.843 251.262 L 217.572 254.058 Z" style="fill: rgb(216, 216, 216);" transform="matrix(0, 1, -1, 0, 463.353977, 35.769983)" bx:origin="0 0"/>
    <path d="M 175.516 132.543 L 173.246 132.541 L 177.008 137.215 L 177.008 141.051 L 178.992 141.051 L 178.992 137.193 L 182.736 132.541 L 180.466 132.544 L 177.991 135.639 Z" style="fill: rgb(216, 216, 216);" transform="matrix(0, 1, -1, 0, 305.787001, -40.704975)" bx:origin="0 0"/>
    <path d="M 144.171 166.303 L 145.01 166.303 L 145.01 166.301 L 149.595 166.301 L 149.595 166.299 C 149.609 166.3 149.624 166.3 149.638 166.301 L 149.707 166.301 L 149.707 166.305 C 153.164 166.533 153.387 170.226 149.948 170.392 C 154.141 170.552 153.857 174.707 149.707 174.88 L 149.707 174.881 L 149.689 174.881 C 149.656 174.882 149.625 174.883 149.592 174.884 L 149.592 174.881 L 144.171 174.881 Z M 149.677 173.299 C 150.997 173.078 151.082 171.581 149.707 171.309 L 149.707 171.311 L 146.375 171.311 L 146.375 173.299 Z M 149.646 169.729 C 151.07 169.19 150.466 168.022 149.707 167.881 L 149.707 167.883 L 146.375 167.883 L 146.375 169.729 Z" style="fill: rgb(204, 204, 204);" transform="matrix(0, 1, -1, 0, 310.469985, 22.128009)" bx:origin="0 0"/>
    <g transform="matrix(0, 1.605718, 1.605718, 0, 246.120041, 7.521332)" id="g104">
      <path id="path106" style="fill: rgb(76, 76, 76); fill-opacity: 1; fill-rule: nonzero; stroke: none;" d="m 0,0 c 0,-0.841 -1.525,-1.523 -3.407,-1.523 -1.882,0 -3.408,0.682 -3.408,1.523 0,0.841 1.526,1.523 3.408,1.523 C -1.525,1.523 0,0.841 0,0"/>
    </g>
    <g transform="matrix(0, 1.605718, 1.605718, 0, 242.068481, 17.315575)" id="g108">
      <path id="path110" style="fill: rgb(76, 76, 76); fill-opacity: 1; fill-rule: nonzero; stroke: none;" d="m 0,0 c 0,-0.841 -1.525,-1.523 -3.407,-1.523 -1.882,0 -3.408,0.682 -3.408,1.523 0,0.841 1.526,1.523 3.408,1.523 C -1.525,1.523 0,0.841 0,0"/>
    </g>
    <g transform="matrix(0, 1.605718, 1.605718, 0, 244.673706, 17.974098)" id="g112">
      <path id="path114" style="fill: rgb(76, 76, 76); fill-opacity: 1; fill-rule: nonzero; stroke: none;" d="M 0,0 C -0.41,1.706 -1.897,3.592 -3.817,2.772 -2.254,6.378 0.697,5.805 1.721,4.575 2.519,3.618 2.5,0.343 0,0"/>
    </g>
    <g transform="matrix(0, 1.605718, 1.605718, 0, 249.103256, 8.331581)" id="g116">
      <path id="path118" style="fill: rgb(76, 76, 76); fill-opacity: 1; fill-rule: nonzero; stroke: none;" d="M 0,0 C -0.41,1.706 -1.897,3.591 -3.817,2.772 -2.254,6.378 0.697,5.805 1.721,4.575 2.519,3.618 2.5,0.343 0,0"/>
    </g>
  </g>
</svg>