<?xml version="1.0" encoding="utf-8"?>
<svg width="384.989013671875" height="165.13800048828125" viewBox="-0.0840015 2.5 384.989 165.138" xmlns="http://www.w3.org/2000/svg" xmlns:bx="https://www.boxy-svg.com/bx">
  <path id="path7" d="M 261.87 2.5 C 260.879 2.5 259.736 2.585 258.759 3.019 C 257.781 3.454 256.964 4.382 256.964 5.693 L 257.605 5.693 C 257.594 5.945 257.626 6.323 257.937 6.334 L 302.422 6.213 C 318.309 6.692 332.112 11.312 344.216 18.682 C 344.73 18.94 344.952 18.404 344.943 18.194 C 344.907 17.337 344.857 16.663 344.792 16.126 L 344.857 16.126 C 344.857 15.278 344.93 14.624 344.857 13.992 C 344.784 13.368 344.429 12.735 343.78 12.376 C 343.774 12.372 343.784 12.357 343.78 12.355 C 343.774 12.353 343.765 12.359 343.76 12.355 C 331.815 5.641 318.052 2.5 303.42 2.5 Z" style="fill: rgb(189, 189, 189);" transform="matrix(1, 0, 0, 1, 0, 1.0658141036401503e-14)" bx:origin="0 0"/>
  <path id="path-7" d="M 132.864 2.5 C 131.873 2.5 130.73 2.415 129.753 1.981 C 128.775 1.546 127.958 0.618 127.958 -0.693 L 128.599 -0.693 C 128.588 -0.945 128.62 -1.323 128.931 -1.334 L 173.416 -1.213 C 189.303 -1.692 203.106 -6.312 215.21 -13.682 C 215.724 -13.94 215.946 -13.404 215.937 -13.194 C 215.901 -12.337 215.851 -11.663 215.786 -11.126 L 215.851 -11.126 C 215.851 -10.278 215.924 -9.624 215.851 -8.992 C 215.778 -8.368 215.423 -7.735 214.774 -7.376 C 214.768 -7.372 214.778 -7.357 214.774 -7.355 C 214.768 -7.353 214.759 -7.359 214.754 -7.355 C 202.809 -0.641 189.046 2.5 174.414 2.5 Z" style="fill: rgb(189, 189, 189);" transform="matrix(-1, 0, 0, -1, 255.9159851074219, 4.999996185302738)" bx:origin="0 1"/>
  <path id="path-11" d="M 80.935 5.611 L 170.385 5.611 L 186.483 5.611 L 186.483 6.448 L 186.483 7.085 L 187.12 7.085 L 197.878 7.085 L 198.515 7.085 L 198.515 6.448 L 198.515 5.611 L 214.434 5.611 L 303.883 5.611 C 348.637 5.611 384.905 41.861 384.905 86.613 C 384.905 131.367 348.635 167.635 303.883 167.635 C 286.223 167.635 269.899 161.983 256.586 152.395 L 256.567 152.395 L 254.894 151.1 C 251.954 148.752 248.227 147.355 244.175 147.355 L 213.814 147.355 L 171.001 147.355 L 140.639 147.355 C 136.588 147.355 132.861 148.752 129.922 151.1 L 128.248 152.395 L 128.229 152.395 C 114.924 161.989 98.603 167.638 80.937 167.638 C 36.185 167.638 -0.084 131.37 -0.084 86.616 C -0.084 41.864 36.186 5.613 80.937 5.613 L 80.935 5.611 Z" style="fill: rgb(204, 204, 204);" transform="matrix(1, 0, 0, 1, 0, 0)" bx:origin="0.5 0.5"/>
  <g transform="matrix(1, 0, 0, 1, 0, 0.9999999999999964)">
    <g>
      <path d="M 145.366 123.432 C 145.419 123.096 145.279 122.834 144.946 122.648 L 144.386 122.329 C 143.599 121.86 143.226 121.222 143.266 120.416 C 143.286 120.044 143.383 119.716 143.556 119.433 C 143.729 119.14 143.973 118.914 144.286 118.755 C 144.593 118.595 144.929 118.52 145.296 118.529 C 145.789 118.538 146.186 118.728 146.486 119.1 C 146.786 119.463 146.933 119.955 146.926 120.575 L 145.766 120.575 C 145.773 120.327 145.733 120.124 145.646 119.964 C 145.559 119.814 145.416 119.734 145.216 119.725 C 145.016 119.725 144.843 119.787 144.696 119.911 C 144.543 120.034 144.453 120.207 144.426 120.429 C 144.386 120.731 144.556 120.978 144.936 121.173 C 145.316 121.369 145.593 121.532 145.766 121.665 C 146.313 122.099 146.569 122.684 146.536 123.419 C 146.516 123.8 146.423 124.137 146.256 124.429 C 146.089 124.712 145.859 124.934 145.566 125.093 C 145.273 125.253 144.939 125.328 144.566 125.319 C 144.299 125.31 144.053 125.257 143.826 125.16 C 143.593 125.053 143.393 124.898 143.226 124.695 C 142.899 124.287 142.743 123.747 142.756 123.073 L 143.926 123.087 C 143.913 123.423 143.963 123.681 144.076 123.857 C 144.183 124.026 144.369 124.11 144.636 124.11 C 144.829 124.11 144.993 124.053 145.126 123.937 C 145.259 123.814 145.339 123.645 145.366 123.432 Z" style="fill: rgb(76, 76, 76);" bx:origin="0.5 0.5"/>
      <path d="M 169.788 119.844 L 168.348 119.844 L 167.638 125.226 L 166.468 125.226 L 167.178 119.844 L 165.748 119.844 L 165.918 118.609 L 169.958 118.609 L 169.788 119.844 Z" style="fill: rgb(76, 76, 76);" bx:origin="0.5 0.5"/>
      <path d="M 164.477 122.967 C 164.443 123.436 164.327 123.848 164.127 124.203 C 163.927 124.566 163.667 124.845 163.347 125.04 C 163.02 125.235 162.667 125.328 162.287 125.319 C 161.767 125.302 161.36 125.08 161.067 124.655 C 160.767 124.22 160.603 123.636 160.577 122.901 C 160.557 122.413 160.597 121.878 160.697 121.293 C 160.797 120.717 160.96 120.217 161.187 119.791 C 161.42 119.357 161.69 119.034 161.997 118.821 C 162.31 118.609 162.65 118.506 163.017 118.516 C 163.563 118.533 163.993 118.751 164.307 119.167 C 164.62 119.592 164.793 120.173 164.827 120.908 L 163.657 120.908 C 163.663 120.5 163.61 120.213 163.497 120.044 C 163.377 119.867 163.197 119.774 162.957 119.765 C 162.337 119.738 161.96 120.372 161.827 121.665 C 161.767 122.259 161.737 122.679 161.737 122.927 C 161.723 123.671 161.93 124.057 162.357 124.083 C 162.63 124.093 162.85 124 163.017 123.804 C 163.183 123.609 163.29 123.339 163.337 122.994 L 164.477 122.967 Z" style="fill: rgb(76, 76, 76);" bx:origin="0.5 0.5"/>
      <path d="M 159.332 122.422 L 157.502 122.422 L 157.302 124.004 L 159.462 124.004 L 159.302 125.226 L 155.972 125.226 L 156.832 118.609 L 160.172 118.609 L 160.012 119.844 L 157.842 119.844 L 157.662 121.24 L 159.492 121.24 L 159.332 122.422 Z" style="fill: rgb(76, 76, 76);" bx:origin="0.5 0.5"/>
      <path d="M 153.087 124.004 L 155.107 124.004 L 154.947 125.226 L 151.757 125.226 L 152.617 118.609 L 153.787 118.609 L 153.087 124.004 Z" style="fill: rgb(76, 76, 76);" bx:origin="0.5 0.5"/>
      <path d="M 150.782 122.422 L 148.952 122.422 L 148.752 124.004 L 150.912 124.004 L 150.752 125.226 L 147.422 125.226 L 148.282 118.609 L 151.622 118.609 L 151.462 119.844 L 149.292 119.844 L 149.112 121.24 L 150.942 121.24 L 150.782 122.422 Z" style="fill: rgb(76, 76, 76);" bx:origin="0.5 0.5"/>
    </g>
    <g>
      <path d="M 189.002 123.432 C 189.055 123.096 188.915 122.834 188.582 122.648 L 188.022 122.329 C 187.235 121.86 186.862 121.222 186.902 120.416 C 186.922 120.044 187.019 119.716 187.192 119.433 C 187.365 119.14 187.609 118.914 187.922 118.755 C 188.229 118.595 188.565 118.52 188.932 118.529 C 189.425 118.538 189.822 118.728 190.122 119.1 C 190.422 119.463 190.569 119.955 190.562 120.575 L 189.402 120.575 C 189.409 120.327 189.369 120.124 189.282 119.964 C 189.195 119.814 189.052 119.734 188.852 119.725 C 188.652 119.725 188.479 119.787 188.332 119.911 C 188.179 120.034 188.089 120.207 188.062 120.429 C 188.022 120.731 188.192 120.978 188.572 121.173 C 188.952 121.369 189.229 121.532 189.402 121.665 C 189.949 122.099 190.205 122.684 190.172 123.419 C 190.152 123.8 190.059 124.137 189.892 124.429 C 189.725 124.712 189.495 124.934 189.202 125.093 C 188.909 125.253 188.575 125.328 188.202 125.319 C 187.935 125.31 187.689 125.257 187.462 125.16 C 187.229 125.053 187.029 124.898 186.862 124.695 C 186.535 124.287 186.379 123.747 186.392 123.073 L 187.562 123.087 C 187.549 123.423 187.599 123.681 187.712 123.857 C 187.819 124.026 188.005 124.11 188.272 124.11 C 188.465 124.11 188.629 124.053 188.762 123.937 C 188.895 123.814 188.975 123.645 189.002 123.432 Z" style="fill: rgb(76, 76, 76);" bx:origin="0.5 0.5"/>
      <path d="M 210.073 119.844 L 208.633 119.844 L 207.923 125.226 L 206.753 125.226 L 207.463 119.844 L 206.033 119.844 L 206.203 118.609 L 210.243 118.609 L 210.073 119.844 Z" style="fill: rgb(76, 76, 76);" bx:origin="0.5 0.5"/>
      <path d="M 202.25 121.665 L 202.93 121.665 C 203.116 121.665 203.28 121.608 203.42 121.492 C 203.56 121.369 203.66 121.2 203.72 120.987 C 203.78 120.784 203.796 120.579 203.77 120.376 C 203.723 120.04 203.56 119.862 203.28 119.844 L 202.49 119.844 Z M 202.09 122.887 L 201.79 125.226 L 200.62 125.226 L 201.48 118.609 L 203.24 118.622 C 203.8 118.622 204.233 118.795 204.54 119.14 C 204.84 119.495 204.973 119.973 204.94 120.575 C 204.92 121.054 204.816 121.448 204.63 121.758 C 204.45 122.077 204.196 122.325 203.87 122.502 L 204.54 125.146 L 204.54 125.226 L 203.29 125.226 L 202.74 122.887 Z" style="fill: rgb(76, 76, 76);" bx:origin="0 0"/>
      <path d="M 197.201 123.99 L 196.761 125.226 L 195.471 125.226 L 198.111 118.609 L 199.211 118.609 L 200.131 125.226 L 198.911 125.226 L 198.791 123.99 Z M 197.641 122.755 L 198.671 122.755 L 198.451 120.482 Z" style="fill: rgb(76, 76, 76);" bx:origin="0 0"/>
      <path d="M 195.548 119.844 L 194.108 119.844 L 193.398 125.226 L 192.228 125.226 L 192.938 119.844 L 191.508 119.844 L 191.678 118.609 L 195.718 118.609 L 195.548 119.844 Z" style="fill: rgb(76, 76, 76);" bx:origin="0.5 0.5"/>
    </g>
  </g>
  <path id="path42" style="fill: rgb(153, 153, 153); fill-opacity: 1; fill-rule: nonzero; stroke: rgb(153, 153, 153); clip-path: url(#clipPath16);" d="M 127.385 85.687 C 127.385 111.09 106.826 131.681 81.465 131.681 C 56.104 131.681 35.545 111.09 35.545 85.687 C 35.545 60.285 56.104 39.691 81.465 39.691 C 106.826 39.691 127.385 60.285 127.385 85.687" transform="matrix(1, 0, 0, 1, 0, 0)" bx:origin="0.5 0.5"/>
  <path id="path46" style="fill: rgb(204, 204, 204); fill-opacity: 1; fill-rule: nonzero; stroke: none; clip-path: url(#clipPath16);" d="M 125.965 85.686 C 125.965 110.28 106.043 130.216 81.466 130.216 C 56.889 130.216 36.965 110.28 36.965 85.686 C 36.965 61.093 56.889 41.156 81.466 41.156 C 106.043 41.156 125.965 61.093 125.965 85.686" transform="matrix(1, 0, 0, 1, 0, 0)" bx:origin="0.5 0.5"/>
  <path id="path50" style="fill: rgb(102, 102, 102); fill-opacity: 1; fill-rule: nonzero; stroke: none; clip-path: url(#clipPath16);" d="M 377.021 85.775 C 377.021 126.107 344.324 158.803 303.992 158.803 C 263.659 158.803 230.963 126.107 230.963 85.775 C 230.963 45.442 263.659 12.746 303.992 12.746 C 344.324 12.746 377.021 45.442 377.021 85.775" transform="matrix(1, 0, 0, 1, 0, 0)" bx:origin="0.5 0.5"/>
  <path id="path70" style="fill: rgb(76, 76, 76); fill-opacity: 1; fill-rule: nonzero; stroke: none; clip-path: url(#clipPath16);" d="M 113.449 74.16 L 92.99 74.16 L 92.99 53.702 C 92.99 52.829 92.275 52.113 91.4 52.113 L 71.529 52.113 C 70.654 52.113 69.939 52.829 69.939 53.702 L 69.939 74.16 L 49.48 74.16 C 48.607 74.16 47.892 74.876 47.892 75.75 L 47.892 95.622 C 47.892 96.495 48.607 97.211 49.48 97.211 L 69.939 97.211 L 69.939 117.67 C 69.939 118.544 70.654 119.259 71.529 119.259 L 91.4 119.259 C 92.275 119.259 92.99 118.544 92.99 117.67 L 92.99 97.211 L 113.449 97.211 C 114.323 97.211 115.038 96.495 115.038 95.622 L 115.038 75.75 C 115.038 74.876 114.323 74.16 113.449 74.16" transform="matrix(1, 0, 0, 1, 0, 0)" bx:origin="0.5 0.5"/>
  <path id="path90" style="fill: rgb(102, 102, 102); fill-opacity: 1; fill-rule: nonzero; stroke: none; clip-path: url(#clipPath16);" d="M 52.681 83.601 C 50.659 84.747 50.659 86.624 52.681 87.771 L 60.515 92.213 C 62.537 93.361 64.191 92.825 64.191 91.023 L 64.191 80.349 C 64.191 78.547 62.537 78.013 60.515 79.158 L 52.681 83.601 C 50.659 84.747 50.659 86.624 52.681 87.771 L 60.515 92.213 C 62.537 93.361 64.191 92.825 64.191 91.023 L 64.191 80.349 C 64.191 78.547 62.537 78.013 60.515 79.158 L 52.681 83.601 Z" transform="matrix(1, 0, 0, 1, 0, 0)" bx:origin="0.5 0.5"/>
  <path id="path94" style="fill: rgb(102, 102, 102); fill-opacity: 1; fill-rule: nonzero; stroke: none; clip-path: url(#clipPath16);" d="M 110.15 83.601 C 112.173 84.747 112.173 86.624 110.15 87.771 L 102.316 92.213 C 100.294 93.361 98.64 92.825 98.64 91.023 L 98.64 80.349 C 98.64 78.547 100.294 78.013 102.316 79.158 L 110.15 83.601 C 112.173 84.747 112.173 86.624 110.15 87.771 L 102.316 92.213 C 100.294 93.361 98.64 92.825 98.64 91.023 L 98.64 80.349 C 98.64 78.547 100.294 78.013 102.316 79.158 L 110.15 83.601 Z" transform="matrix(1, 0, 0, 1, 0, 0)" bx:origin="0.5 0.5"/>
  <path id="path98" style="fill: rgb(102, 102, 102); fill-opacity: 1; fill-rule: nonzero; stroke: none; clip-path: url(#clipPath16);" d="M 83.549 57.026 C 82.402 55.004 80.525 55.004 79.379 57.026 L 74.937 64.86 C 73.79 66.882 74.326 68.536 76.127 68.536 L 86.801 68.536 C 88.603 68.536 89.137 66.882 87.992 64.86 L 83.549 57.026 C 82.402 55.004 80.525 55.004 79.379 57.026 L 74.937 64.86 C 73.79 66.882 74.326 68.536 76.127 68.536 L 86.801 68.536 C 88.603 68.536 89.137 66.882 87.992 64.86 L 83.549 57.026 Z" transform="matrix(1, 0, 0, 1, 0, 0)" bx:origin="0.5 0.5"/>
  <path id="path102" style="fill: rgb(102, 102, 102); fill-opacity: 1; fill-rule: nonzero; stroke: none; clip-path: url(#clipPath16);" d="M 83.5 114.495 C 82.354 116.518 80.477 116.518 79.33 114.495 L 74.888 106.662 C 73.742 104.639 74.277 102.985 76.078 102.985 L 86.753 102.985 C 88.554 102.985 89.089 104.639 87.943 106.662 L 83.5 114.495 C 82.354 116.518 80.477 116.518 79.33 114.495 L 74.888 106.662 C 73.742 104.639 74.277 102.985 76.078 102.985 L 86.753 102.985 C 88.554 102.985 89.089 104.639 87.943 106.662 L 83.5 114.495 Z" transform="matrix(1, 0, 0, 1, 0, 0)" bx:origin="0.5 0.5"/>
  <path id="path-4" style="fill: rgb(102, 102, 102); fill-opacity: 1; fill-rule: nonzero; stroke: none; clip-path: url(#clipPath16);" d="M 168.6 95.693 L 151.932 108.296 C 146.17 112.674 139.213 104.445 145.442 99.712 L 162.109 87.108 C 168.064 82.689 174.639 91.212 168.6 95.693" transform="matrix(0.9998480081558228, -0.017452001571655277, 0.017452001571655277, 0.9998480081558228, -1.6808280944824219, 2.7535309791564906)" bx:origin="0.5 0.5"/>
  <path id="path-2" style="fill: rgb(102, 102, 102); fill-opacity: 1; fill-rule: nonzero; stroke: none; clip-path: url(#clipPath16);" d="M 209.938 95.693 L 193.27 108.296 C 187.508 112.674 180.551 104.445 186.78 99.712 L 203.447 87.108 C 209.402 82.689 215.977 91.212 209.938 95.693" transform="matrix(0.9998480081558228, -0.017452001571655277, 0.017452001571655277, 0.9998480081558228, -1.6745320558547974, 3.474957942962643)" bx:origin="0.5 0.5"/>
  <path d="M 329.061 32.982 L 326.375 32.952 L 329.763 36.986 L 326.15 41.381 L 328.677 41.364 L 331.059 38.528 L 333.44 41.364 L 335.967 41.381 L 332.354 36.986 L 335.742 32.952 L 333.056 32.982 L 331.059 35.411 Z" style="fill: rgb(216, 216, 216);" transform="matrix(1, 0, 0, 1, 0, 0)" bx:origin="0 0"/>
  <path d="M 362.129 62.783 L 363.383 62.794 L 364.636 62.783 L 368.433 71.094 L 366.392 71.105 L 365.444 69.02 L 361.332 68.996 L 360.373 71.105 L 358.332 71.094 Z M 364.674 67.324 L 363.383 64.483 L 362.112 67.279 Z" style="fill: rgb(216, 216, 216);" transform="matrix(1, 0, 0, 1, 0, 0)" bx:origin="0 0"/>
  <path d="M 243.581 103.331 L 241.311 103.329 L 245.073 108.003 L 245.073 111.839 L 247.057 111.839 L 247.057 107.981 L 250.801 103.329 L 248.531 103.332 L 246.056 106.427 Z" style="fill: rgb(216, 216, 216);" transform="matrix(1, 0, 0, 1, 0, 0)" bx:origin="0 0"/>
  <path d="M 275.069 132.409 L 275.909 132.409 L 275.909 132.407 L 280.494 132.407 L 280.494 132.405 C 280.508 132.406 280.522 132.406 280.536 132.407 L 280.605 132.407 L 280.605 132.411 C 284.062 132.639 284.285 136.332 280.846 136.498 C 285.039 136.658 284.755 140.813 280.605 140.986 L 280.605 140.987 L 280.587 140.987 C 280.555 140.988 280.523 140.989 280.491 140.99 L 280.491 140.987 L 275.069 140.987 Z M 280.576 139.405 C 281.896 139.184 281.98 137.687 280.605 137.415 L 280.605 137.417 L 277.274 137.417 L 277.274 139.405 Z M 280.544 135.835 C 281.969 135.296 281.364 134.128 280.605 133.987 L 280.605 133.989 L 277.274 133.989 L 277.274 135.835 Z" style="fill: rgb(204, 204, 204);" transform="matrix(1, 0, 0, 1, 0, 0)" bx:origin="0 0"/>
  <path id="circle35" d="M 267.298 71.408 C 258.967 71.408 252.197 78.179 252.197 86.51 C 252.197 94.841 258.967 101.612 267.298 101.612 C 275.63 101.612 282.4 94.841 282.4 86.51 C 282.4 78.179 275.63 71.408 267.298 71.408 Z M 267.298 72.684 C 274.94 72.684 281.124 78.869 281.124 86.51 C 281.124 94.151 274.94 100.335 267.298 100.335 C 259.658 100.335 253.474 94.151 253.474 86.51 C 253.474 78.869 259.658 72.684 267.298 72.684 L 267.298 72.684 Z" style="fill: rgb(244, 244, 244);" transform="matrix(1, 0, 0, 1, 0, 0)" bx:origin="0.5 0.5"/>
  <path id="circle37" d="M 303.967 42.841 C 295.636 42.841 288.885 49.611 288.885 57.943 C 288.885 66.273 295.636 73.044 303.967 73.044 C 312.298 73.044 319.069 66.273 319.069 57.943 C 319.069 49.611 312.298 42.841 303.967 42.841 Z M 303.967 44.118 C 311.608 44.118 317.792 50.302 317.792 57.942 C 317.792 65.583 311.608 71.767 303.967 71.767 C 296.327 71.767 290.162 65.583 290.162 57.942 C 290.162 50.302 296.326 44.118 303.967 44.118 Z" style="fill: rgb(244, 244, 244);" transform="matrix(1, 0, 0, 1, 0, 0)" bx:origin="0.5 0.5"/>
  <path id="circle41" d="M 305.179 99.298 C 296.849 99.298 290.078 106.069 290.078 114.401 C 290.078 122.732 296.849 129.483 305.179 129.483 C 313.512 129.483 320.261 122.732 320.261 114.401 C 320.261 106.07 313.512 99.298 305.179 99.298 Z M 305.179 100.576 C 312.822 100.576 318.984 106.76 318.984 114.401 C 318.984 122.042 312.822 128.205 305.179 128.205 C 297.539 128.205 291.355 122.042 291.355 114.401 C 291.355 106.76 297.539 100.576 305.179 100.576 Z" style="fill: rgb(244, 244, 244);" transform="matrix(1, 0, 0, 1, 0, 0)" bx:origin="0.5 0.5"/>
  <path id="circle43" d="M 341.849 70.732 C 333.518 70.732 326.746 77.503 326.746 85.833 C 326.746 94.164 333.518 100.934 341.849 100.934 C 350.181 100.934 356.951 94.164 356.951 85.833 C 356.951 77.503 350.179 70.732 341.849 70.732 Z M 341.849 72.008 C 349.489 72.008 355.673 78.192 355.673 85.832 C 355.673 93.474 349.489 99.657 341.849 99.657 C 334.209 99.657 328.025 93.473 328.025 85.832 C 328.025 78.192 334.209 72.008 341.849 72.008 Z" style="fill: rgb(244, 244, 244);" transform="matrix(1, 0, 0, 1, 0, 0)" bx:origin="0.5 0.5"/>
  <path d="M 355.758 74.866 C 361.797 82.619 360.42 93.784 352.666 99.824 L 315.999 128.391 C 308.245 134.43 297.08 133.032 291.042 125.279 C 285.004 117.525 286.381 106.361 294.135 100.322 L 330.822 71.774 C 333.728 69.508 337.101 68.274 340.519 68.043 C 346.211 67.657 351.985 70.019 355.758 74.866 Z" style="fill: rgb(216, 216, 216);" transform="matrix(1, 0, 0, 1, 0, 0)" bx:origin="0 0"/>
  <path id="path-5" d="M 341.848 70.741 C 350.19 70.741 356.941 77.492 356.941 85.835 C 356.941 94.175 350.19 100.925 341.848 100.925 C 333.507 100.925 326.756 94.175 326.756 85.835 C 326.756 77.492 333.507 70.741 341.848 70.741 L 341.848 70.741 Z" style="fill: rgb(255, 121, 97);" transform="matrix(1, 0, 0, 1, 0, 0)" bx:origin="0.5 0.5"/>
  <path d="M 318.005 47.06 C 324.044 54.813 322.667 65.978 314.912 72.017 L 278.246 100.584 C 270.492 106.623 259.327 105.226 253.288 97.472 C 247.25 89.718 248.628 78.554 256.382 72.516 L 293.069 43.968 C 295.975 41.702 299.347 40.468 302.765 40.236 C 308.458 39.85 314.232 42.213 318.005 47.06 Z" style="fill: rgb(216, 216, 216);" transform="matrix(1, 0, 0, 1, 0, 0)" bx:origin="0 0"/>
  <path id="path-6" d="M 303.978 42.85 C 312.319 42.85 319.07 49.601 319.07 57.944 C 319.07 66.285 312.319 73.035 303.978 73.035 C 295.637 73.035 288.885 66.285 288.885 57.944 C 288.885 49.601 295.637 42.85 303.978 42.85 L 303.978 42.85 Z" style="fill: rgb(0, 152, 223);" transform="matrix(1, 0, 0, 1, 0, 0)" bx:origin="0.5 0.5"/>
  <path id="path-1" d="M 305.169 99.299 C 313.511 99.299 320.262 106.05 320.262 114.392 C 320.262 122.733 313.511 129.482 305.169 129.482 C 296.828 129.482 290.077 122.733 290.077 114.392 C 290.077 106.05 296.828 99.299 305.169 99.299 L 305.169 99.299 Z" style="fill: rgb(254, 233, 75);" transform="matrix(1, 0, 0, 1, 0, 0)" bx:origin="0.5 0.5"/>
  <path id="path-10" d="M 267.298 71.418 C 275.64 71.418 282.391 78.169 282.391 86.511 C 282.391 94.852 275.64 101.602 267.298 101.602 C 258.957 101.602 252.206 94.852 252.206 86.511 C 252.206 78.169 258.957 71.418 267.298 71.418 L 267.298 71.418 Z" style="fill: rgb(126, 238, 128);" transform="matrix(1, 0, 0, 1, 0, 0)" bx:origin="0.5 0.5"/>
  <path id="path-18" style="fill: rgb(102, 102, 102); fill-opacity: 0.5; fill-rule: nonzero; stroke: none; clip-path: url(#clipPath16);" d="M 89.83 85.686 C 89.83 90.307 86.085 94.051 81.464 94.051 C 76.845 94.051 73.1 90.307 73.1 85.686 C 73.1 81.067 76.845 77.321 81.464 77.321 C 86.085 77.321 89.83 81.067 89.83 85.686" transform="matrix(1, 0, 0, 1, 0, 0)" bx:origin="0.5 0.5"/>
  <g transform="matrix(1, 0, 0, 1, 3.196995, 0.809999)">
    <path id="path-3" style="fill: rgb(76, 76, 76); fill-opacity: 1; fill-rule: nonzero; stroke: none; clip-path: url(#clipPath16);" d="M 163.348 35.415 L 163.006 36.354 L 163.266 36.354 L 163.348 35.415 Z M 153.704 34.296 C 153.676 34.296 153.656 34.311 153.637 34.329 L 153.425 35.449 L 153.425 35.456 C 153.425 35.5 153.452 35.532 153.493 35.532 L 153.686 35.532 C 153.736 35.532 153.856 35.432 153.867 35.383 L 154.045 34.459 C 154.051 34.405 153.964 34.296 153.914 34.296 L 153.704 34.296 Z M 192.758 33.851 L 193.849 33.851 L 193.764 34.311 L 193.491 34.311 L 192.92 37.575 L 192.398 37.575 L 192.969 34.311 L 192.677 34.311 L 192.758 33.851 Z M 187.917 33.851 L 188.376 33.851 L 188.617 35.795 L 188.977 33.851 L 189.498 33.851 L 188.815 37.575 L 188.357 37.575 L 188.181 35.415 L 187.755 37.575 L 187.217 37.575 L 187.917 33.851 Z M 183.193 33.851 L 184.156 33.851 L 184.09 34.311 L 183.568 34.311 L 183.354 35.463 L 183.862 35.463 L 183.795 35.86 L 183.276 35.86 L 183.062 37.113 L 183.587 37.113 L 183.503 37.575 L 182.476 37.575 L 183.193 33.851 Z M 177.278 33.851 L 177.882 33.851 L 177.978 36.009 L 178.908 33.865 L 179.494 33.865 L 178.875 37.575 L 178.418 37.575 L 178.714 35.613 L 177.898 37.575 L 177.574 37.575 L 177.474 35.565 L 177.115 37.575 L 176.593 37.575 L 177.278 33.851 Z M 171.886 33.851 L 172.343 33.851 L 172.585 35.795 L 172.945 33.851 L 173.466 33.851 L 172.783 37.575 L 172.311 37.575 L 172.145 35.415 L 171.723 37.575 L 171.186 37.575 L 171.886 33.851 Z M 167.681 33.851 L 168.155 33.851 L 167.455 37.575 L 166.997 37.575 L 167.681 33.851 Z M 163.348 33.851 L 163.968 33.851 L 163.772 37.575 L 163.153 37.575 L 163.234 36.719 L 162.859 36.719 L 162.549 37.575 L 161.996 37.575 L 163.348 33.851 Z M 157.923 33.851 L 159.013 33.851 L 158.948 34.311 L 158.673 34.311 L 158.086 37.575 L 157.564 37.575 L 158.135 34.311 L 157.841 34.311 L 157.923 33.851 Z M 153.265 33.851 L 154.304 33.851 C 154.499 33.851 154.622 34.023 154.584 34.229 L 154.338 35.548 C 154.313 35.69 154.064 35.807 153.932 35.86 L 153.964 35.86 L 153.979 35.86 L 153.998 35.86 L 153.998 35.877 L 154.012 35.877 L 154.029 35.877 L 154.045 35.877 L 154.061 35.877 L 154.077 35.894 L 154.094 35.894 L 154.111 35.894 L 154.126 35.894 L 154.126 35.91 L 154.145 35.91 L 154.159 35.91 L 154.159 35.927 L 154.177 35.927 C 154.198 35.968 154.207 36.084 154.207 36.109 C 154.207 36.129 153.945 37.575 153.945 37.575 L 153.476 37.575 C 153.476 37.575 153.729 36.277 153.736 36.224 C 153.739 36.167 153.73 36.094 153.718 36.043 C 153.715 36.003 153.713 35.935 153.672 35.894 L 153.346 35.894 L 153.034 37.575 L 152.564 37.575 L 153.265 33.851 Z M 148.668 33.851 L 149.646 33.851 L 149.565 34.311 L 149.059 34.311 L 148.831 35.463 L 149.337 35.463 L 149.272 35.86 L 148.763 35.86 L 148.556 37.113 L 149.059 37.113 L 148.996 37.575 L 147.952 37.575 L 148.668 33.851 Z M 143.929 33.851 L 145.005 33.851 L 144.936 34.311 L 144.662 34.311 L 144.073 37.575 L 143.55 37.575 L 144.123 34.311 L 143.829 34.311 L 143.929 33.851 Z M 139.039 33.851 L 139.494 33.851 L 139.74 35.795 L 140.099 33.851 L 140.634 33.851 L 139.935 37.575 L 139.48 37.575 L 139.302 35.415 L 138.874 37.575 L 138.339 37.575 L 139.039 33.851 Z M 134.541 33.851 L 135.504 33.851 L 135.439 34.311 L 134.917 34.311 L 134.705 35.463 L 135.211 35.463 L 135.146 35.86 L 134.625 35.86 L 134.428 37.113 L 134.933 37.113 L 134.851 37.575 L 133.81 37.575 L 134.541 33.851 Z M 222.053 33.718 L 222.655 33.718 L 222.753 35.86 L 223.681 33.735 L 224.269 33.718 L 223.649 37.427 L 223.193 37.427 L 223.487 35.463 L 222.674 37.427 L 222.345 37.427 L 222.248 35.415 L 221.889 37.427 L 221.353 37.427 L 222.053 33.718 Z M 218.027 33.718 L 219.006 33.718 L 218.924 34.163 L 218.419 34.163 L 218.192 35.333 L 218.711 35.333 L 218.631 35.711 L 218.126 35.711 L 217.914 36.965 L 218.419 36.965 L 218.352 37.427 L 217.313 37.427 L 218.027 33.718 Z M 213.758 33.718 L 214.85 33.718 L 214.771 34.163 L 214.492 34.163 L 213.924 37.427 L 213.385 37.427 L 213.956 34.163 L 213.679 34.163 L 213.758 33.718 Z M 209.962 33.718 L 209.98 33.718 L 209.995 33.718 L 210.011 33.718 L 210.028 33.718 L 210.044 33.718 L 210.761 33.718 C 210.953 33.718 211.091 33.876 211.055 34.08 L 210.875 35.003 L 210.435 35.003 L 210.534 34.395 C 210.557 34.255 210.475 34.147 210.338 34.147 C 210.202 34.147 210.066 34.255 210.044 34.395 L 209.962 34.838 C 209.946 34.864 209.986 34.991 210.011 35.003 C 210.069 35.041 210.648 36.003 210.648 36.077 C 210.665 36.111 210.665 36.127 210.665 36.141 C 210.642 36.261 210.501 37.083 210.501 37.083 C 210.465 37.269 210.283 37.427 210.096 37.427 L 209.394 37.427 C 209.203 37.427 209.08 37.269 209.116 37.083 L 209.277 36.141 L 209.752 36.141 L 209.637 36.817 C 209.615 36.956 209.701 37.083 209.835 37.083 C 209.97 37.083 210.098 36.956 210.125 36.817 L 210.225 36.273 C 210.133 36.045 209.56 35.216 209.523 35.02 C 209.5 34.997 209.487 34.88 209.489 34.791 C 209.494 34.691 209.621 34.08 209.621 34.08 L 209.637 34.064 L 209.637 34.048 L 209.637 34.032 L 209.656 33.999 L 209.656 33.981 L 209.67 33.965 L 209.67 33.948 L 209.686 33.932 L 209.686 33.917 L 209.702 33.901 L 209.717 33.884 L 209.717 33.865 L 209.734 33.865 L 209.752 33.851 L 209.768 33.834 L 209.785 33.818 L 209.801 33.802 L 209.817 33.784 L 209.835 33.769 L 209.85 33.769 L 209.865 33.751 L 209.881 33.751 L 209.898 33.735 L 209.915 33.735 L 209.949 33.735 L 209.962 33.718 Z M 204.635 33.718 L 205.222 33.718 L 205.303 35.12 L 206.054 33.718 L 206.64 33.718 L 205.434 35.86 L 205.14 37.427 L 204.618 37.427 L 204.881 35.745 L 204.635 33.718 Z M 200.888 33.718 L 200.905 33.718 L 200.921 33.718 L 200.934 33.718 L 200.954 33.718 L 200.968 33.718 L 201.686 33.718 C 201.879 33.718 202.016 33.876 201.979 34.08 L 201.799 35.003 L 201.361 35.003 L 201.459 34.395 C 201.481 34.255 201.399 34.147 201.262 34.147 C 201.126 34.147 200.991 34.255 200.968 34.395 L 200.888 34.838 C 200.874 34.864 200.913 34.991 200.934 35.003 C 200.997 35.041 201.573 36.003 201.573 36.077 C 201.585 36.111 201.593 36.127 201.587 36.141 C 201.573 36.261 201.408 37.083 201.408 37.083 C 201.374 37.269 201.195 37.427 201.001 37.427 L 200.32 37.427 C 200.126 37.427 200.005 37.269 200.04 37.083 L 200.205 36.141 L 200.675 36.141 L 200.56 36.817 C 200.539 36.956 200.621 37.083 200.759 37.083 C 200.89 37.083 201.029 36.956 201.051 36.817 L 201.147 36.273 C 201.061 36.045 200.483 35.216 200.447 35.02 C 200.423 34.997 200.411 34.88 200.414 34.791 C 200.421 34.691 200.546 34.08 200.546 34.08 L 200.56 34.08 L 200.56 34.064 L 200.56 34.048 L 200.56 34.032 L 200.579 33.999 L 200.579 33.981 L 200.593 33.965 L 200.593 33.948 L 200.612 33.932 L 200.612 33.917 L 200.625 33.901 L 200.645 33.884 L 200.645 33.865 L 200.66 33.865 L 200.675 33.851 L 200.692 33.834 L 200.708 33.818 L 200.708 33.802 L 200.727 33.802 L 200.74 33.784 L 200.759 33.769 L 200.774 33.769 L 200.791 33.751 L 200.807 33.751 L 200.822 33.735 L 200.84 33.735 L 200.872 33.735 L 200.888 33.718 Z M 132.523 38.629 L 225.525 38.629 L 225.525 33.142 L 132.523 33.142 L 132.523 38.629 Z M 165.629 16.944 L 165.644 16.944 L 165.663 16.944 L 165.678 16.944 L 165.696 16.944 L 166.641 16.944 C 166.862 16.944 167.335 17.457 167.289 17.685 L 166.428 21.805 C 166.389 22.019 165.859 22.527 165.644 22.527 L 164.751 22.527 C 164.566 22.527 164.436 22.406 164.424 22.232 C 164.424 22.204 164.421 22.165 164.424 22.134 L 165.384 17.075 L 165.402 17.058 L 165.416 17.043 L 165.45 17.025 L 165.467 17.025 L 165.483 17.01 L 165.497 16.992 L 165.514 16.992 L 165.53 16.976 L 165.548 16.976 L 165.581 16.96 L 165.596 16.96 L 165.614 16.96 L 165.629 16.96 L 165.629 16.944 Z M 152.644 16.944 L 153.653 16.944 C 153.878 16.944 154.346 17.457 154.304 17.685 L 153.443 21.821 C 153.401 22.033 153.117 22.527 152.907 22.527 L 151.685 22.527 L 151.665 22.527 L 151.652 22.527 L 151.633 22.512 L 151.617 22.512 L 151.6 22.512 L 151.585 22.512 L 151.569 22.512 L 151.569 22.494 L 151.552 22.494 L 151.536 22.494 L 151.519 22.479 L 151.504 22.479 L 151.487 22.464 L 151.47 22.447 L 151.452 22.447 L 151.452 22.431 L 151.439 22.414 L 151.42 22.397 L 151.42 22.38 L 151.407 22.366 L 151.39 22.347 L 151.39 22.332 L 151.39 22.316 L 151.373 22.299 L 151.373 22.282 L 151.373 22.266 L 151.356 22.249 L 151.356 22.232 C 151.356 22.204 151.352 22.165 151.356 22.134 L 152.332 17.075 C 152.422 17 152.532 16.944 152.644 16.944 M 223.879 16.876 L 223.942 16.876 C 224.556 16.876 224.961 17.377 224.854 17.995 L 222.898 28.956 C 222.793 29.577 222.227 30.094 221.613 30.094 C 220.997 30.094 220.741 29.578 220.846 28.956 L 222.786 17.995 L 222.801 17.947 L 222.821 17.9 L 222.834 17.833 L 222.852 17.784 L 222.866 17.718 L 222.883 17.67 L 222.898 17.619 L 222.932 17.57 L 222.949 17.522 L 222.98 17.469 L 222.998 17.421 L 223.028 17.372 L 223.063 17.339 L 223.095 17.289 L 223.128 17.24 L 223.176 17.207 L 223.21 17.173 L 223.241 17.142 L 223.29 17.11 L 223.339 17.075 L 223.371 17.043 L 223.419 17.01 L 223.47 16.992 L 223.519 16.96 L 223.552 16.944 L 223.615 16.927 L 223.665 16.909 L 223.715 16.909 L 223.763 16.895 L 223.829 16.895 L 223.879 16.876 Z M 215.486 16.876 L 216.445 16.876 C 217.064 16.876 217.482 17.377 217.377 17.995 L 215.324 28.956 C 215.216 29.578 214.618 30.094 214.004 30.094 L 213.058 30.094 L 215.486 16.876 Z M 222.655 14.948 C 221.761 14.948 220.907 15.691 220.747 16.613 L 218.419 30.142 C 218.267 31.007 218.833 31.69 219.693 31.69 L 223.128 31.69 C 223.99 31.69 224.827 31.007 224.985 30.142 L 227.509 16.613 C 227.683 15.691 227.1 14.948 226.209 14.948 L 222.655 14.948 Z M 213.711 14.948 L 210.564 31.69 L 215.324 31.69 C 216.188 31.69 217.019 31.007 217.181 30.142 L 219.707 16.613 C 219.877 15.689 219.296 14.948 218.403 14.948 L 213.711 14.948 Z M 205.416 14.948 L 202.272 31.69 L 204.684 31.69 L 206.623 21.987 L 207.389 31.69 L 209.475 31.69 L 212.619 14.948 L 210.208 14.948 L 208.596 23.701 L 207.517 14.948 L 205.416 14.948 Z M 200.122 14.948 L 196.862 31.69 L 201.555 31.69 L 201.88 29.616 L 199.568 29.616 L 200.528 23.963 L 202.843 23.963 L 203.168 22.217 L 200.855 22.217 L 201.866 17.025 L 204.178 17.025 L 204.503 14.948 L 200.122 14.948 Z M 194.385 14.948 L 193.996 17.025 L 195.298 17.025 L 192.723 31.69 L 195.103 31.69 L 197.726 17.025 L 198.98 17.025 L 199.306 14.948 L 194.385 14.948 Z M 186.307 14.948 L 183.161 31.69 L 185.572 31.69 L 187.509 21.987 L 188.276 31.69 L 190.362 31.69 L 193.506 14.948 L 191.095 14.948 L 189.483 23.701 L 188.409 14.948 L 186.307 14.948 Z M 183.129 14.948 L 179.986 31.69 L 182.067 31.69 L 185.214 14.948 L 183.129 14.948 Z M 174.85 14.948 L 171.706 31.69 L 174.103 31.69 L 176.039 21.987 L 176.805 31.69 L 178.893 31.69 L 182.036 14.948 L 179.641 14.948 L 178.014 23.701 L 176.938 14.948 L 174.85 14.948 Z M 163.689 14.948 L 160.561 31.69 L 162.649 31.69 L 164.065 24.113 L 165.548 24.113 C 165.743 24.295 165.764 24.635 165.794 24.804 C 165.831 25.05 165.872 25.365 165.842 25.61 C 165.815 25.856 164.701 31.69 164.701 31.69 L 166.787 31.69 C 166.787 31.69 167.961 25.334 167.961 25.232 C 167.964 25.128 167.961 24.803 167.846 24.624 C 167.769 24.507 167.639 24.242 167.486 24.145 C 167.197 23.957 166.869 23.831 166.869 23.831 L 166.722 23.831 C 167.316 23.593 168.443 23.202 168.561 22.561 L 169.702 16.613 C 169.876 15.689 169.294 14.948 168.398 14.948 L 163.689 14.948 Z M 158.086 14.948 L 154.826 31.69 L 159.52 31.69 L 159.847 29.616 L 157.533 29.616 L 158.477 23.963 L 160.79 23.963 L 161.114 22.217 L 158.803 22.217 L 159.828 17.025 L 162.143 17.025 L 162.468 14.948 L 158.086 14.948 Z M 150.64 14.948 L 147.496 31.69 L 149.581 31.69 L 151.016 24.113 L 153.672 24.113 C 154.534 24.113 155.354 23.421 155.513 22.561 L 156.653 16.613 C 156.821 15.689 156.241 14.948 155.346 14.948 L 152.725 14.948 L 150.64 14.948 Z M 143.145 14.948 L 140.539 30.142 C 140.387 31.007 140.966 31.69 141.826 31.69 L 144.936 31.69 C 145.798 31.69 146.635 31.007 146.795 30.142 L 149.581 14.948 L 147.624 14.948 L 144.969 29.716 C 144.933 29.928 144.724 30.111 144.513 30.111 L 142.967 30.111 C 142.75 30.111 142.606 29.929 142.639 29.716 L 145.23 14.948 L 143.145 14.948 Z M 137.148 14.948 C 136.257 14.948 135.386 15.691 135.225 16.613 L 135.225 16.63 L 135.225 16.646 L 135.225 16.664 L 135.211 16.678 L 135.211 16.713 L 135.211 16.728 L 135.194 16.762 L 135.194 16.794 L 135.179 16.828 L 135.179 16.876 L 135.16 16.909 L 135.16 16.96 L 135.146 17.01 L 135.128 17.058 L 135.11 17.157 L 135.08 17.273 L 135.066 17.388 L 135.031 17.503 L 135.014 17.636 L 134.981 17.766 L 134.952 17.915 L 134.917 18.048 L 134.867 18.326 L 134.836 18.474 L 134.804 18.608 L 134.787 18.739 L 134.754 18.871 L 134.72 19.003 L 134.705 19.134 L 134.692 19.25 L 134.657 19.35 L 134.639 19.464 L 134.639 19.512 L 134.625 19.547 L 134.625 19.593 L 134.625 19.627 L 134.606 19.68 L 134.606 19.711 L 134.606 19.743 L 134.591 19.777 L 134.591 19.794 L 134.591 19.81 C 134.575 20.213 134.628 20.764 134.754 20.866 C 134.912 21.75 137.837 25.859 137.752 26.486 C 137.672 27.113 137.329 28.956 137.329 28.956 C 137.224 29.578 136.801 30.076 136.186 30.076 C 135.574 30.076 135.155 29.581 135.259 28.956 L 135.813 25.893 L 133.63 25.893 L 132.896 30.142 C 132.747 31.007 133.325 31.69 134.186 31.69 L 137.295 31.69 C 138.158 31.69 138.978 31.007 139.136 30.142 C 139.136 30.142 139.94 26.171 139.935 25.893 C 139.932 25.608 139.855 25.577 139.855 25.577 C 139.855 25.254 137.251 20.91 136.986 20.746 C 136.872 20.681 136.779 20.252 136.773 19.991 C 136.769 19.731 137.116 17.995 137.116 17.995 C 137.224 17.377 137.806 16.876 138.421 16.876 C 139.036 16.876 139.292 17.377 139.185 17.995 L 138.714 20.746 L 140.914 20.746 L 141.681 16.613 C 141.853 15.691 141.269 14.948 140.374 14.948 L 137.148 14.948 Z" bx:origin="0.5 0.5"/>
    <g transform="matrix(1.605718, 0, 0, -1.605718, 113.093491, 29.645523)" id="g104">
      <path id="path106" style="fill: rgb(76, 76, 76); fill-opacity: 1; fill-rule: nonzero; stroke: none;" d="m 0,0 c 0,-0.841 -1.525,-1.523 -3.407,-1.523 -1.882,0 -3.408,0.682 -3.408,1.523 0,0.841 1.526,1.523 3.408,1.523 C -1.525,1.523 0,0.841 0,0"/>
    </g>
    <g transform="matrix(1.605718, 0, 0, -1.605718, 122.887726, 33.697067)" id="g108">
      <path id="path110" style="fill: rgb(76, 76, 76); fill-opacity: 1; fill-rule: nonzero; stroke: none;" d="m 0,0 c 0,-0.841 -1.525,-1.523 -3.407,-1.523 -1.882,0 -3.408,0.682 -3.408,1.523 0,0.841 1.526,1.523 3.408,1.523 C -1.525,1.523 0,0.841 0,0"/>
    </g>
    <g transform="matrix(1.605718, 0, 0, -1.605718, 123.546249, 31.09185)" id="g112">
      <path id="path114" style="fill: rgb(76, 76, 76); fill-opacity: 1; fill-rule: nonzero; stroke: none;" d="M 0,0 C -0.41,1.706 -1.897,3.592 -3.817,2.772 -2.254,6.378 0.697,5.805 1.721,4.575 2.519,3.618 2.5,0.343 0,0"/>
    </g>
    <g transform="matrix(1.605718, 0, 0, -1.605718, 113.90374, 26.6623)" id="g116">
      <path id="path118" style="fill: rgb(76, 76, 76); fill-opacity: 1; fill-rule: nonzero; stroke: none;" d="M 0,0 C -0.41,1.706 -1.897,3.591 -3.817,2.772 -2.254,6.378 0.697,5.805 1.721,4.575 2.519,3.618 2.5,0.343 0,0"/>
    </g>
  </g>
</svg>