<?xml version="1.0" encoding="UTF-8" standalone="no"?>
<svg
   xmlns:dc="http://purl.org/dc/elements/1.1/"
   xmlns:cc="http://creativecommons.org/ns#"
   xmlns:rdf="http://www.w3.org/1999/02/22-rdf-syntax-ns#"
   xmlns:svg="http://www.w3.org/2000/svg"
   xmlns="http://www.w3.org/2000/svg"
   viewBox="0 0 210.4025 418.76999"
   height="418.76999"
   width="210.4025"
   xml:space="preserve"
   version="1.1"
   id="svg2"><metadata
     id="metadata8"><rdf:RDF><cc:Work
         rdf:about=""><dc:format>image/svg+xml</dc:format><dc:type
           rdf:resource="http://purl.org/dc/dcmitype/StillImage" /><dc:title></dc:title></cc:Work></rdf:RDF></metadata><defs
     id="defs6"><clipPath
       id="clipPath16"
       clipPathUnits="userSpaceOnUse"><path
         id="path18"
         d="m 0,335.016 168.322,0 L 168.322,0 0,0 0,335.016 Z" /></clipPath><clipPath
       id="clipPath28"
       clipPathUnits="userSpaceOnUse"><path
         id="path30"
         d="m 7.99342,160.329 154.21258,0 0,-154.21316 -154.21258,0 0,154.21316 z" /></clipPath><linearGradient
       id="linearGradient84"
       spreadMethod="pad"
       gradientTransform="matrix(39.822853,39.822853,39.822853,-39.822853,65.123558,63.310898)"
       gradientUnits="userSpaceOnUse"
       y2="0"
       x2="1"
       y1="0"
       x1="0"><stop
         id="stop86"
         offset="0"
         style="stop-opacity:1;stop-color:#a6a8ab" /><stop
         id="stop88"
         offset="1"
         style="stop-opacity:1;stop-color:#e6e7e8" /></linearGradient><clipPath
       id="clipPath96"
       clipPathUnits="userSpaceOnUse"><path
         id="path98"
         d="m 0,335.016 168.322,0 L 168.322,0 0,0 0,335.016 Z" /></clipPath><clipPath
       id="clipPath104"
       clipPathUnits="userSpaceOnUse"><path
         id="path106"
         d="m 62.5988,105.659 44.8722,0 0,-44.873 -44.8722,0 0,44.873 z" /></clipPath><clipPath
       id="clipPath120"
       clipPathUnits="userSpaceOnUse"><path
         id="path122"
         d="m 56.9234,111.205 56.0936,0 0,-56.0943 -56.0936,0 0,56.0943 z" /></clipPath><clipPath
       id="clipPath124"
       clipPathUnits="userSpaceOnUse"><path
         id="path126"
         d="m 58.434,83.504 c 0,14.847 12.035,26.882 26.882,26.882 14.847,0 26.883,-12.035 26.883,-26.882 0,-14.847 -12.036,-26.883 -26.883,-26.883 -14.847,0 -26.882,12.036 -26.882,26.883 m 54.583,-0.346 c 0,15.49 -12.557,28.047 -28.047,28.047 -15.49,0 -28.047,-12.557 -28.047,-28.047 0,-15.49 12.557,-28.047 28.047,-28.047 15.49,0 28.047,12.557 28.047,28.047" /></clipPath><linearGradient
       id="linearGradient132"
       spreadMethod="pad"
       gradientTransform="matrix(39.664417,-39.664417,-39.664417,-39.664417,65.138191,102.98982)"
       gradientUnits="userSpaceOnUse"
       y2="0"
       x2="1"
       y1="0"
       x1="0"><stop
         id="stop134"
         offset="0"
         style="stop-opacity:0;stop-color:#ffffff" /><stop
         id="stop136"
         offset="0.20751882"
         style="stop-opacity:1;stop-color:#ffffff" /><stop
         id="stop138"
         offset="0.5"
         style="stop-opacity:1;stop-color:#ffffff" /><stop
         id="stop140"
         offset="0.79248118"
         style="stop-opacity:1;stop-color:#ffffff" /><stop
         id="stop142"
         offset="1"
         style="stop-opacity:0;stop-color:#ffffff" /></linearGradient><mask
       id="mask144"
       height="1"
       width="1"
       y="0"
       x="0"
       maskUnits="userSpaceOnUse"><g
         id="g146"><g
           id="g148"><g
             id="g150"><g
               id="g152"><path
                 id="path154"
                 style="fill:url(#linearGradient132);stroke:none"
                 d="m -32768,32767 65535,0 0,-65535 -65535,0 0,65535 z" /></g></g></g></g></mask><linearGradient
       id="linearGradient156"
       spreadMethod="pad"
       gradientTransform="matrix(39.664417,-39.664417,-39.664417,-39.664417,65.138191,102.98982)"
       gradientUnits="userSpaceOnUse"
       y2="0"
       x2="1"
       y1="0"
       x1="0"><stop
         id="stop158"
         offset="0"
         style="stop-opacity:1;stop-color:#231f20" /><stop
         id="stop160"
         offset="0.20751882"
         style="stop-opacity:1;stop-color:#231f20" /><stop
         id="stop162"
         offset="0.5"
         style="stop-opacity:1;stop-color:#231f20" /><stop
         id="stop164"
         offset="0.79248118"
         style="stop-opacity:1;stop-color:#231f20" /><stop
         id="stop166"
         offset="1"
         style="stop-opacity:1;stop-color:#231f20" /></linearGradient><clipPath
       id="clipPath190"
       clipPathUnits="userSpaceOnUse"><path
         id="path192"
         d="m 56.9238,111.205 56.0942,0 0,-56.094 -56.0942,0 0,56.094 z" /></clipPath><clipPath
       id="clipPath194"
       clipPathUnits="userSpaceOnUse"><path
         id="path196"
         d="m 111.507,82.812 c 0,-14.847 -12.036,-26.883 -26.882,-26.883 -14.847,0 -26.883,12.036 -26.883,26.883 0,14.847 12.036,26.883 26.883,26.883 14.846,0 26.882,-12.036 26.882,-26.883 m -54.583,0.346 c 0,-15.49 12.556,-28.047 28.047,-28.047 15.49,0 28.047,12.557 28.047,28.047 0,15.49 -12.557,28.047 -28.047,28.047 -15.491,0 -28.047,-12.557 -28.047,-28.047" /></clipPath><linearGradient
       id="linearGradient202"
       spreadMethod="pad"
       gradientTransform="matrix(-39.664425,39.664425,39.664425,39.664425,104.80286,63.325817)"
       gradientUnits="userSpaceOnUse"
       y2="0"
       x2="1"
       y1="0"
       x1="0"><stop
         id="stop204"
         offset="0"
         style="stop-opacity:0;stop-color:#ffffff" /><stop
         id="stop206"
         offset="0.5"
         style="stop-opacity:1;stop-color:#ffffff" /><stop
         id="stop208"
         offset="1"
         style="stop-opacity:0;stop-color:#ffffff" /></linearGradient><mask
       id="mask210"
       height="1"
       width="1"
       y="0"
       x="0"
       maskUnits="userSpaceOnUse"><g
         id="g212"><g
           id="g214"><g
             id="g216"><g
               id="g218"><path
                 id="path220"
                 style="fill:url(#linearGradient202);stroke:none"
                 d="m -32768,32767 65535,0 0,-65535 -65535,0 0,65535 z" /></g></g></g></g></mask><linearGradient
       id="linearGradient222"
       spreadMethod="pad"
       gradientTransform="matrix(-39.664425,39.664425,39.664425,39.664425,104.80286,63.325817)"
       gradientUnits="userSpaceOnUse"
       y2="0"
       x2="1"
       y1="0"
       x1="0"><stop
         id="stop224"
         offset="0"
         style="stop-opacity:1;stop-color:#ffffff" /><stop
         id="stop226"
         offset="0.5"
         style="stop-opacity:1;stop-color:#ffffff" /><stop
         id="stop228"
         offset="1"
         style="stop-opacity:1;stop-color:#ffffff" /></linearGradient><clipPath
       id="clipPath252"
       clipPathUnits="userSpaceOnUse"><path
         id="path254"
         d="m 88.207,117.732 c -3.673,-1.861 -7.008,-4.29 -9.891,-7.171 l 0,0 c -3.207,-3.207 -5.852,-6.974 -7.778,-11.142 l 0,0 C 68.187,94.33 66.992,88.76 66.992,83.157 l 0,0 C 67,77.899 68.06,72.885 69.971,68.316 l 0,0 c 1.958,-4.683 4.813,-8.899 8.348,-12.433 l 0,0 c 2.883,-2.882 6.218,-5.31 9.89,-7.169 l 0,0 c 5.417,-2.743 11.443,-4.149 17.511,-4.149 l 0,0 c 5.67,0.01 11.053,1.241 15.902,3.444 l 0,0 c 4.253,1.932 8.095,4.613 11.357,7.874 l 0,0 c 3.536,3.534 6.39,7.749 8.348,12.432 l 0,0 c 1.912,4.569 2.971,9.582 2.98,14.841 l 0,0 c 0,5.602 -1.194,11.172 -3.545,16.26 l 0,0 c -1.926,4.168 -4.571,7.936 -7.779,11.142 l 0,0 c -3.262,3.261 -7.103,5.943 -11.357,7.877 l 0,0 c -4.848,2.204 -10.232,3.434 -15.903,3.445 l 0,0 c -6.071,0 -12.097,-1.404 -17.516,-4.148" /></clipPath><clipPath
       id="clipPath298"
       clipPathUnits="userSpaceOnUse"><path
         id="path300"
         d="m 0,335.016 168.322,0 L 168.322,0 0,0 0,335.016 Z" /></clipPath><clipPath
       id="clipPath310"
       clipPathUnits="userSpaceOnUse"><path
         id="path312"
         d="m 58.5181,328.248 53.0619,0 0,-53.062 -53.0619,0 0,53.062 z" /></clipPath><clipPath
       id="clipPath334"
       clipPathUnits="userSpaceOnUse"><path
         id="path336"
         d="m 59.2057,327.408 51.5333,0 0,-51.534 -51.5333,0 0,51.534 z" /></clipPath><clipPath
       id="clipPath350"
       clipPathUnits="userSpaceOnUse"><path
         id="path352"
         d="m 51.8069,334.806 66.3311,0 0,-66.331 -66.3311,0 0,66.331 z" /></clipPath><clipPath
       id="clipPath370"
       clipPathUnits="userSpaceOnUse"><path
         id="path372"
         d="m 57.9564,252.304 53.0616,0 0,-53.062 -53.0616,0 0,53.062 z" /></clipPath><clipPath
       id="clipPath394"
       clipPathUnits="userSpaceOnUse"><path
         id="path396"
         d="m 58.644,251.463 51.534,0 0,-51.533 -51.534,0 0,51.533 z" /></clipPath><clipPath
       id="clipPath410"
       clipPathUnits="userSpaceOnUse"><path
         id="path412"
         d="m 51.2453,258.862 66.3317,0 0,-66.331 -66.3317,0 0,66.331 z" /></clipPath></defs><g
     transform="matrix(1.25,0,0,-1.25,0,418.77)"
     id="g10"><g
       id="g12"><g
         clip-path="url(#clipPath16)"
         id="g14"><g
           transform="translate(85.0995,0)"
           id="g20"><path
             id="path22"
             style="fill:#231f20;fill-opacity:1;fill-rule:nonzero;stroke:none"
             d="m 0,0 c -45.962,0 -83.222,37.26 -83.222,83.222 0,45.963 37.26,83.222 83.222,83.222 45.962,0 83.222,-37.259 83.222,-83.222 C 83.222,37.26 45.962,0 0,0" /></g><g
           id="g24"><g
             id="g26" /><g
             id="g32"><g
               style="opacity:0.10000598"
               id="g34"
               clip-path="url(#clipPath28)"><g
                 id="g36"
                 transform="translate(85.0992,6.1158)"><path
                   id="path38"
                   style="fill:#84849b;fill-opacity:1;fill-rule:nonzero;stroke:none"
                   d="m 0,0 16.896,16.323 -8.253,0 0,18.674 -17.286,0 0,-18.674 -8.252,0 L 0,0 Z" /></g><g
                 id="g40"
                 transform="translate(139.622,28.6993)"><path
                   id="path42"
                   style="fill:#84849b;fill-opacity:1;fill-rule:nonzero;stroke:none"
                   d="M 0,0 0.405,23.489 -5.43,17.654 -18.635,30.858 -30.858,18.635 -17.653,5.431 -23.489,-0.405 0,0 Z" /></g><g
                 id="g44"
                 transform="translate(162.2061,83.2215)"><path
                   id="path46"
                   style="fill:#84849b;fill-opacity:1;fill-rule:nonzero;stroke:none"
                   d="m 0,0 -16.323,16.896 0,-8.252 -18.674,0 0,-17.287 18.674,0 0,-8.252 L 0,0 Z" /></g><g
                 id="g48"
                 transform="translate(139.6227,137.7441)"><path
                   id="path50"
                   style="fill:#84849b;fill-opacity:1;fill-rule:nonzero;stroke:none"
                   d="m 0,0 -23.489,0.405 5.835,-5.835 -13.205,-13.205 12.224,-12.223 13.204,13.205 5.836,-5.835 L 0,0 Z" /></g><g
                 id="g52"
                 transform="translate(85.1005,160.3285)"><path
                   id="path54"
                   style="fill:#84849b;fill-opacity:1;fill-rule:nonzero;stroke:none"
                   d="m 0,0 -16.896,-16.322 8.252,0 0,-18.675 17.287,0 0,18.674 8.252,0.001 L 0,0 Z" /></g><g
                 id="g56"
                 transform="translate(30.5779,137.7453)"><path
                   id="path58"
                   style="fill:#84849b;fill-opacity:1;fill-rule:nonzero;stroke:none"
                   d="M 0,0 -0.405,-23.489 5.43,-17.654 18.635,-30.859 30.858,-18.636 17.653,-5.431 23.488,0.405 0,0 Z" /></g><g
                 id="g60"
                 transform="translate(7.9934,83.223)"><path
                   id="path62"
                   style="fill:#84849b;fill-opacity:1;fill-rule:nonzero;stroke:none"
                   d="m 0,0 16.322,-16.895 0,8.251 18.675,0 0,17.286 -18.674,0 -0.001,8.253 L 0,0 Z" /></g><g
                 id="g64"
                 transform="translate(30.5767,28.7004)"><path
                   id="path66"
                   style="fill:#84849b;fill-opacity:1;fill-rule:nonzero;stroke:none"
                   d="M 0,0 23.489,-0.405 17.654,5.43 30.859,18.635 18.636,30.858 5.431,17.653 -0.405,23.488 0,0 Z" /></g></g></g></g><g
           transform="translate(84.1609,0.0119)"
           id="g68"><path
             id="path70"
             style="fill:#6d6e70;fill-opacity:1;fill-rule:nonzero;stroke:none"
             d="m 0,0 c -45.529,0.504 -82.284,37.562 -82.284,83.21 0,45.649 36.755,82.707 82.284,83.211 -0.313,0.003 -0.625,0.012 -0.939,0.012 -45.962,0 -83.222,-37.26 -83.222,-83.223 0,-45.962 37.26,-83.222 83.222,-83.222 0.314,0 0.626,0.009 0.939,0.012" /></g></g></g><g
       id="g72"><g
         id="g74"><g
           id="g80"><g
             id="g82"><path
               id="path90"
               style="fill:url(#linearGradient84);stroke:none"
               d="m 56.876,83.222 c 0,-15.551 12.608,-28.159 28.159,-28.159 l 0,0 c 15.552,0 28.159,12.608 28.159,28.159 l 0,0 c 0,15.552 -12.607,28.159 -28.159,28.159 l 0,0 c -15.551,0 -28.159,-12.607 -28.159,-28.159" /></g></g></g></g><g
       id="g92"><g
         clip-path="url(#clipPath96)"
         id="g94"><g
           id="g100"><g
             id="g102" /><g
             id="g108"><g
               style="opacity:0.30000299"
               id="g110"
               clip-path="url(#clipPath104)"><g
                 id="g112"
                 transform="translate(85.035,60.786)"><path
                   id="path114"
                   style="fill:#231f20;fill-opacity:1;fill-rule:nonzero;stroke:none"
                   d="m 0,0 c -12.391,0 -22.436,10.045 -22.436,22.436 0,12.391 10.045,22.437 22.436,22.437 12.391,0 22.436,-10.046 22.436,-22.437 C 22.436,10.045 12.391,0 0,0" /></g></g></g></g><g
           id="g116"><g
             id="g118" /><g
             id="g168"><g
               style="opacity:0.14999402"
               id="g170"
               clip-path="url(#clipPath120)"><g
                 id="g172"><g
                   id="g174"
                   clip-path="url(#clipPath124)"><g
                     id="g176"><g
                       id="g178" /><g
                       id="g180"
                       mask="url(#mask144)"><g
                         id="g182"><path
                           id="path184"
                           style="fill:url(#linearGradient156);stroke:none"
                           d="m 58.434,83.504 c 0,14.847 12.035,26.882 26.882,26.882 14.847,0 26.883,-12.035 26.883,-26.882 0,-14.847 -12.036,-26.883 -26.883,-26.883 -14.847,0 -26.882,12.036 -26.882,26.883 m 54.583,-0.346 c 0,15.49 -12.557,28.047 -28.047,28.047 -15.49,0 -28.047,-12.557 -28.047,-28.047 0,-15.49 12.557,-28.047 28.047,-28.047 15.49,0 28.047,12.557 28.047,28.047" /></g></g></g></g></g></g></g></g><g
           id="g186"><g
             id="g188" /><g
             id="g230"><g
               style="opacity:0.39999402"
               id="g232"
               clip-path="url(#clipPath190)"><g
                 id="g234"><g
                   id="g236"
                   clip-path="url(#clipPath194)"><g
                     id="g238"><g
                       id="g240" /><g
                       id="g242"
                       mask="url(#mask210)"><g
                         id="g244"><path
                           id="path246"
                           style="fill:url(#linearGradient222);stroke:none"
                           d="m 111.507,82.812 c 0,-14.847 -12.036,-26.883 -26.882,-26.883 -14.847,0 -26.883,12.036 -26.883,26.883 0,14.847 12.036,26.883 26.883,26.883 14.846,0 26.882,-12.036 26.882,-26.883 m -54.583,0.346 c 0,-15.49 12.556,-28.047 28.047,-28.047 15.49,0 28.047,12.557 28.047,28.047 0,15.49 -12.557,28.047 -28.047,28.047 -15.491,0 -28.047,-12.557 -28.047,-28.047" /></g></g></g></g></g></g></g></g></g></g><g
       id="g248"><g
         clip-path="url(#clipPath252)"
         id="g250"><g
           id="g256"><g
             transform="scale(1,-1)"
             id="g258"><g
               id="g260"><path
                 id="path262"
                 style="fill:#00adee;fill-opacity:1;fill-rule:nonzero;stroke:none"
                 d="m 78.316415,-110.5607 c -3.206546,3.20704 -5.853032,6.97365 -7.778814,11.141631 3.945315,-1.623051 9.011724,-1.819341 13.401864,-2.863291 0.694825,-5.37306 1.943361,-10.62405 4.267581,-15.44926 -3.672366,1.86036 -7.007817,4.28907 -9.890631,7.17092 z" /><path
                 id="path264"
                 style="fill:#00adee;fill-opacity:1;fill-rule:nonzero;stroke:none"
                 d="m 70.537601,-99.419069 c -2.351076,5.088882 -3.545901,10.65921 -3.545901,16.261764 5.31055,-0.002 10.621101,0.002 15.932139,0.0059 0.144532,-6.210955 0.190919,-12.756872 1.015626,-19.130915 -4.39014,1.04395 -9.456549,1.24024 -13.401864,2.863291 z" /><path
                 id="path266"
                 style="fill:#00adee;fill-opacity:1;fill-rule:nonzero;stroke:none"
                 d="m 66.9917,-83.157305 c 0.0083,5.258804 1.067872,10.27249 2.978518,14.840862 4.119143,1.41309 9.36231,2.619148 13.868661,3.533213 -0.761719,-5.993181 39.445351,-28.210903 39.504921,-34.157208 -5.31104,-0.0039 -51.04155,15.781193 -56.3521,15.783093 z" /><path
                 id="path268"
                 style="fill:#00adee;fill-opacity:1;fill-rule:nonzero;stroke:none"
                 d="m 69.970218,-68.316443 c 1.958985,4.683607 4.813479,8.899439 8.348638,12.433629 2.882814,2.881844 6.217777,5.309585 9.890143,7.168965 -2.231447,-4.238293 7.461103,-14.787035 6.680341,-20.931584 -4.506351,-0.914065 -20.799979,2.74208 -24.919122,1.32899 z" /><path
                 id="path270"
                 style="fill:#00adee;fill-opacity:1;fill-rule:nonzero;stroke:none"
                 d="m 88.207046,-117.73162 c -2.32422,4.82521 -18.380374,17.811523 -19.075199,23.184583 6.373051,-1.54492 29.967784,-9.613253 36.708023,-9.613253 -0.0469,-5.91018 -0.11816,-11.81937 -0.11719,-17.71978 -6.070314,0 -12.096685,1.4043 -17.515634,4.14845 z" /><path
                 id="path272"
                 style="fill:#00adee;fill-opacity:1;fill-rule:nonzero;stroke:none"
                 d="m 83.939465,-102.28236 c -0.824707,6.374043 -0.871094,12.91996 -1.015626,19.130915 7.607427,0.0059 18.087971,11.727159 25.695401,11.727159 0.1709,-6.999043 -2.72371,-25.724271 -2.77942,-32.736004 -6.740239,0 -15.527354,0.33301 -21.900405,1.87793 z" /><path
                 id="path274"
                 style="fill:#00adee;fill-opacity:1;fill-rule:nonzero;stroke:none"
                 d="m 82.923839,-83.151445 c -0.05957,5.946305 0.153321,12.375034 0.91504,18.368215 6.533208,1.349613 22.643541,3.831556 29.496081,3.831556 -0.0361,-6.428728 -7.76362,-15.068892 -7.58884,-22.186099 -7.607427,0 -15.214854,-0.0078 -22.822281,-0.01367 z" /><path
                 id="path276"
                 style="fill:#00adee;fill-opacity:1;fill-rule:nonzero;stroke:none"
                 d="m 74.998509,-82.02195 c 0.780762,6.144549 10.979043,29.069808 13.21049,33.308101 5.416996,2.743172 11.442391,4.148449 17.511731,4.148449 0,-5.440445 -0.084,-11.564485 -0.12109,-18.154348 -6.852548,0 -24.067923,-17.952589 -30.601131,-19.302202 z" /><path
                 id="path278"
                 style="fill:#00adee;fill-opacity:1;fill-rule:nonzero;stroke:none"
                 d="m 105.72268,-121.88007 c -9.7e-4,5.90041 -27.997872,8.71547 -27.950982,14.62565 6.5459,0.006 42.548652,3.40858 48.272292,4.64882 -0.9629,-5.42677 -2.39942,-10.75687 -4.41798,-15.82915 -4.84863,-2.2041 -10.23243,-3.43458 -15.90333,-3.44532 z" /><path
                 id="path280"
                 style="fill:#00adee;fill-opacity:1;fill-rule:nonzero;stroke:none"
                 d="m 105.83987,-104.16029 c 0.0557,7.011735 0.0771,14.023474 -0.0937,21.022517 7.67676,0 15.06642,-0.0068 21.92189,-0.01172 0,-6.442401 -0.47949,-13.017615 -1.62402,-19.456107 -5.72364,-1.24024 -24.26666,-10.83122 -30.812563,-10.83708 z" /><path
                 id="path282"
                 style="fill:#00adee;fill-opacity:1;fill-rule:nonzero;stroke:none"
                 d="m 105.74612,-83.137773 c -0.1748,7.117207 -0.18262,13.989297 -0.14648,20.418025 6.69141,-0.0049 14.58594,-0.630861 20.45704,-1.713872 0.98731,-6.091813 3.51643,-24.110679 3.60041,-30.208352 -6.85547,0.0049 -16.23421,11.5042 -23.91097,11.504199 z" /><path
                 id="path284"
                 style="fill:#00adee;fill-opacity:1;fill-rule:nonzero;stroke:none"
                 d="m 89.907985,-67.581951 c 0.0371,6.589863 15.812745,17.576106 15.812745,23.016551 5.66993,-0.0098 11.05274,-1.241214 15.9004,-3.443369 1.94141,-4.394544 4.08588,-27.640422 5.09858,-33.88458 -5.8711,1.083011 -30.120315,14.306516 -36.811725,14.311398 z" /><path
                 id="path286"
                 style="fill:#00adee;fill-opacity:1;fill-rule:nonzero;stroke:none"
                 d="m 121.62601,-118.43475 c 2.01856,5.07228 -38.757683,13.71752 -37.794783,19.144288 5.02539,1.08594 52.897333,-1.962598 56.930543,-0.125677 -1.92578,-4.167981 -4.57129,-7.935571 -7.77833,-11.141631 -3.26172,-3.26173 -7.10352,-5.94338 -11.35743,-7.87698 z" /><path
                 id="path288"
                 style="fill:#00adee;fill-opacity:1;fill-rule:nonzero;stroke:none"
                 d="m 127.66801,-83.149492 c 6.01368,-0.0049 11.61622,-0.0078 16.63868,-0.0068 0,-5.601578 11.69713,-40.024218 9.34654,-45.112128 -4.03321,-1.83691 -65.876287,14.96239 -56.782458,26.76791 10.645938,9.422229 29.778028,13.014645 30.797238,18.351018 z" /><path
                 id="path290"
                 style="fill:#00adee;fill-opacity:1;fill-rule:nonzero;stroke:none"
                 d="m 113.96544,-83.59151 c -0.084,6.097673 13.07855,13.066077 12.09124,19.15789 5.14942,-0.950198 11.11231,-2.283209 15.27052,-3.881846 1.91113,-4.568373 2.9707,-9.581082 2.97949,-14.840862 -5.02246,-9.77e-4 -16.81326,-8.396351 -22.82694,-8.391551 z" /><path
                 id="path292"
                 style="fill:#00adee;fill-opacity:1;fill-rule:nonzero;stroke:none"
                 d="m 119.64741,-82.556377 c -1.0127,6.244158 3.91513,30.153064 1.97372,34.547608 4.25391,-1.932623 8.09571,-4.613294 11.35743,-7.874045 3.53614,-3.53419 6.38965,-7.749046 8.34864,-12.432652 -4.15821,1.598637 -16.53037,-15.191109 -21.67979,-14.240911 z" /></g></g></g></g></g><g
       id="g294"><g
         clip-path="url(#clipPath298)"
         id="g296"><g
           transform="translate(85.049,268.4192)"
           id="g302"><path
             id="path304"
             style="fill:#00adee;fill-opacity:1;fill-rule:nonzero;stroke:none"
             d="m 0,0 c -18.39,0 -33.298,14.908 -33.298,33.298 0,18.39 14.908,33.298 33.298,33.298 18.39,0 33.298,-14.908 33.298,-33.298 C 33.298,14.908 18.39,0 0,0" /></g><g
           id="g306"><g
             id="g308" /><g
             id="g314"><g
               style="opacity:0.30000299"
               id="g316"
               clip-path="url(#clipPath310)"><g
                 id="g318"
                 transform="translate(85.049,275.1864)"><path
                   id="path320"
                   style="fill:#00adee;fill-opacity:1;fill-rule:nonzero;stroke:none"
                   d="m 0,0 c -14.653,0 -26.531,11.878 -26.531,26.531 0,14.652 11.878,26.531 26.531,26.531 14.653,0 26.531,-11.879 26.531,-26.531 C 26.531,11.878 14.653,0 0,0" /></g></g></g></g><g
           transform="translate(84.9726,275.8739)"
           id="g322"><path
             id="path324"
             style="fill:#00adee;fill-opacity:1;fill-rule:nonzero;stroke:none"
             d="m 0,0 c -14.231,0 -25.767,11.536 -25.767,25.767 0,14.231 11.536,25.767 25.767,25.767 14.231,0 25.767,-11.536 25.767,-25.767 C 25.767,11.536 14.231,0 0,0" /></g><g
           transform="translate(84.9726,275.8739)"
           id="g326"><path
             id="path328"
             style="fill:#00adee;fill-opacity:1;fill-rule:nonzero;stroke:none"
             d="m 0,0 c -14.231,0 -25.767,11.536 -25.767,25.767 0,14.231 11.536,25.767 25.767,25.767 14.231,0 25.767,-11.536 25.767,-25.767 C 25.767,11.536 14.231,0 0,0" /></g><g
           id="g330"><g
             id="g332" /><g
             id="g338"><g
               style="opacity:0.19999701"
               id="g340"
               clip-path="url(#clipPath334)"><g
                 id="g342"
                 transform="translate(60.593,301.9589)"><path
                   id="path344"
                   style="fill:#00adee;fill-opacity:1;fill-rule:nonzero;stroke:none"
                   d="M 0,0 C 0,13.64 11.057,24.697 24.697,24.697 38.337,24.697 49.395,13.64 49.395,0 49.395,-13.64 38.337,-24.698 24.697,-24.698 11.057,-24.698 0,-13.64 0,0 m 50.146,-0.318 c 0,14.231 -11.536,25.767 -25.766,25.767 -14.231,0 -25.767,-11.536 -25.767,-25.767 0,-14.231 11.536,-25.767 25.767,-25.767 14.23,0 25.766,11.536 25.766,25.767" /></g></g></g></g><g
           id="g346"><g
             id="g348" /><g
             id="g354"><g
               style="opacity:0.14999402"
               id="g356"
               clip-path="url(#clipPath350)"><g
                 id="g358"
                 transform="translate(53.5926,302.0498)"><path
                   id="path360"
                   style="fill:#00adee;fill-opacity:1;fill-rule:nonzero;stroke:none"
                   d="M 0,0 C 0,17.557 14.233,31.789 31.789,31.789 49.346,31.789 63.578,17.557 63.578,0 63.578,-17.556 49.346,-31.789 31.789,-31.789 14.233,-31.789 0,-17.556 0,0 m 64.546,-0.409 c 0,18.317 -14.849,33.166 -33.166,33.166 -18.317,0 -33.166,-14.849 -33.166,-33.166 0,-18.317 14.849,-33.165 33.166,-33.165 18.317,0 33.166,14.848 33.166,33.165" /></g></g></g></g><g
           transform="translate(84.4874,192.475)"
           id="g362"><path
             id="path364"
             style="fill:#00adee;fill-opacity:1;fill-rule:nonzero;stroke:none"
             d="m 0,0 c -18.39,0 -33.298,14.908 -33.298,33.298 0,18.39 14.908,33.298 33.298,33.298 18.39,0 33.298,-14.908 33.298,-33.298 C 33.298,14.908 18.39,0 0,0" /></g><g
           id="g366"><g
             id="g368" /><g
             id="g374"><g
               style="opacity:0.30000299"
               id="g376"
               clip-path="url(#clipPath370)"><g
                 id="g378"
                 transform="translate(84.4874,199.2422)"><path
                   id="path380"
                   style="fill:#00adee;fill-opacity:1;fill-rule:nonzero;stroke:none"
                   d="m 0,0 c -14.653,0 -26.531,11.878 -26.531,26.531 0,14.652 11.878,26.531 26.531,26.531 14.653,0 26.531,-11.879 26.531,-26.531 C 26.531,11.878 14.653,0 0,0" /></g></g></g></g><g
           transform="translate(84.411,199.9297)"
           id="g382"><path
             id="path384"
             style="fill:#00adee;fill-opacity:1;fill-rule:nonzero;stroke:none"
             d="m 0,0 c -14.231,0 -25.767,11.536 -25.767,25.767 0,14.231 11.536,25.767 25.767,25.767 14.231,0 25.767,-11.536 25.767,-25.767 C 25.767,11.536 14.231,0 0,0" /></g><g
           transform="translate(84.411,199.9297)"
           id="g386"><path
             id="path388"
             style="fill:#00adee;fill-opacity:1;fill-rule:nonzero;stroke:none"
             d="m 0,0 c -14.231,0 -25.767,11.536 -25.767,25.767 0,14.231 11.536,25.767 25.767,25.767 14.231,0 25.767,-11.536 25.767,-25.767 C 25.767,11.536 14.231,0 0,0" /></g><g
           id="g390"><g
             id="g392" /><g
             id="g398"><g
               style="opacity:0.19999701"
               id="g400"
               clip-path="url(#clipPath394)"><g
                 id="g402"
                 transform="translate(60.0314,226.0147)"><path
                   id="path404"
                   style="fill:#00adee;fill-opacity:1;fill-rule:nonzero;stroke:none"
                   d="M 0,0 C 0,13.64 11.057,24.697 24.697,24.697 38.337,24.697 49.395,13.64 49.395,0 49.395,-13.64 38.337,-24.698 24.697,-24.698 11.057,-24.698 0,-13.64 0,0 m 50.146,-0.318 c 0,14.231 -11.536,25.767 -25.766,25.767 -14.231,0 -25.767,-11.536 -25.767,-25.767 0,-14.231 11.536,-25.767 25.767,-25.767 14.23,0 25.766,11.536 25.766,25.767" /></g></g></g></g><g
           id="g406"><g
             id="g408" /><g
             id="g414"><g
               style="opacity:0.14999402"
               id="g416"
               clip-path="url(#clipPath410)"><g
                 id="g418"
                 transform="translate(53.031,226.1056)"><path
                   id="path420"
                   style="fill:#00adee;fill-opacity:1;fill-rule:nonzero;stroke:none"
                   d="M 0,0 C 0,17.557 14.233,31.789 31.789,31.789 49.346,31.789 63.578,17.557 63.578,0 63.578,-17.556 49.346,-31.789 31.789,-31.789 14.233,-31.789 0,-17.556 0,0 m 64.546,-0.409 c 0,18.317 -14.849,33.165 -33.166,33.165 -18.317,0 -33.166,-14.848 -33.166,-33.165 0,-18.317 14.849,-33.165 33.166,-33.165 18.317,0 33.166,14.848 33.166,33.165" /></g></g></g></g></g></g></g></svg>