<?xml version="1.0" encoding="utf-8"?>
<!-- Generator: Adobe Illustrator 16.0.3, SVG Export Plug-In . SVG Version: 6.00 Build 0)  -->
<!DOCTYPE svg PUBLIC "-//W3C//DTD SVG 1.1//EN" "http://www.w3.org/Graphics/SVG/1.1/DTD/svg11.dtd">
<svg version="1.1"
	 id="svg2" xmlns:dc="http://purl.org/dc/elements/1.1/" xmlns:cc="http://creativecommons.org/ns#" xmlns:rdf="http://www.w3.org/1999/02/22-rdf-syntax-ns#" xmlns:svg="http://www.w3.org/2000/svg"
	 xmlns="http://www.w3.org/2000/svg" xmlns:xlink="http://www.w3.org/1999/xlink" x="0px" y="0px" width="460.497px"
	 height="337.453px" viewBox="0 0 460.497 337.453" enable-background="new 0 0 460.497 337.453" xml:space="preserve">
<g id="g10" transform="matrix(1.25,0,0,-1.25,0,337.4525)">
	<g id="g12">
		<g>
			<g id="g14">
				<g id="g20" transform="translate(153.9784,7.8436)">
					<path id="path22" fill="#4C504E" d="M0,0c-0.352-0.171-1.415-1.055-1.785-1.244c-1.416-0.361-2.308-0.893-3.192-1.064
						C-6.031-2.497-7.294-2.66-8.366-2.66c-1.777,0-3.192,0.532-4.274,1.245c-1.253,0.703-1.253,0.36-2.146,1.613
						c-0.703,1.045-1.947,2.84-1.947,4.265c-0.189,1.073-0.189,1.965,0.171,3.038c0.181,0.712,0.55,1.416,1.073,2.137
						c0.703,0.712,1.434,1.605,2.488,2.317c1.073,0.55,1.966,0.712,3.742,1.415c0.893,0.361,2.146,0.55,4.111,0.722
						c1.055,0.171,3.192,0.171,3.913,0.522c0.712,0.19,1.433,0.19,1.965,0.559c0.532,0.352,1.245,0.532,1.605,0.712
						c0.352,0.342,0.893,0.532,1.776,1.415l-0.18-8.547c0,0-0.171-3.57-1.425-5.526C1.253,1.073,0,0,0,0 M-19.411,28.526
						c1.957,0.884,3.39,1.424,4.625,1.956c1.263,0.361,2.678,0.703,4.454,1.073c1.785,0.361,3.038,0.532,4.824,0.532
						c1.776,0,3.93-0.695,5.346-1.055c1.253-0.37,2.308-1.785,3.038-2.858c0.893-0.893,1.055-1.433,1.055-2.849v-1.433
						c-0.171-0.532-0.532-0.704-0.893-1.236c-0.36-0.54-0.712-1.072-1.244-1.424c-0.36-0.361-0.91-0.721-1.433-1.073
						c-0.713-0.361-1.416-0.532-2.146-0.892c-0.703-0.361-1.776-0.19-2.831-0.541c-3.57-0.541-6.419-0.704-8.024-1.245
						c-1.605-0.531-2.678-0.892-3.75-1.433c-1.236-0.532-1.776-1.073-2.849-1.956c-1.073-0.893-1.416-1.596-1.948-2.498
						c-0.55-0.883-1.082-1.784-1.433-2.84c-0.19-1.073-0.532-2.487-0.532-3.741c0-2.146,0.342-3.931,1.415-5.878
						c0.893-1.777,2.678-3.381,4.643-4.292c1.948-0.892,4.454-1.947,8.024-1.947h3.381c1.073,0.171,2.128,0.532,4.111,0.883
						c0.893,0.722,2.128,1.425,3.552,2.498C3.228-2.479,3.94-1.767,3.94-1.767v-4.454h3.57h4.093
						c-0.712,3.21-1.064,3.57-0.883,5.878c0,3.931-0.361,12.487-0.19,17.112c0,4.644-0.18,3.381-0.18,5.348
						c0,1.604-0.712,4.282-1.244,5.697c-0.55,1.434-1.434,2.327-2.326,3.93c-1.073,1.253-3.57,3.038-5.527,3.57
						c-2.127,0.55-3.57,0.893-5.869,0.893c-2.146,0-5.346-0.18-7.663-0.343c-2.146-0.36-3.931-0.91-6.96-1.794
						C-19.248,31.726-19.248,29.761-19.411,28.526"/>
				</g>
				<g id="g24" transform="translate(299.5993,8.3846)">
					<path id="path26" fill="#4C504E" d="M0,0c-0.531-0.189-1.423-1.073-1.956-1.262c-1.253-0.343-2.136-0.893-3.03-1.064
						c-1.261-0.17-2.317-0.352-3.389-0.352c-1.777,0-3.381,0.532-4.453,1.254c-1.073,0.712-1.073,0.351-1.966,1.604
						c-0.892,1.073-2.138,2.849-2.138,4.283c0,1.055,0,1.965,0.181,3.038c0.352,0.703,0.55,1.415,1.244,2.11
						c0.72,0.721,1.434,1.614,2.506,2.344c0.892,0.532,1.947,0.703,3.723,1.415c0.73,0.343,2.145,0.532,4.111,0.695
						c0.892,0.19,3.209,0.19,3.931,0.559c0.531,0.172,1.244,0.352,1.777,0.532c0.711,0.352,1.244,0.532,1.766,0.713
						c0.361,0.359,0.722,0.548,1.623,1.415V8.736c0,0-0.189-3.381-1.425-5.527C1.243,1.055,0,0,0,0 M-19.429,28.517
						c1.775,0.892,3.209,1.416,4.453,1.966c1.236,0.361,2.85,0.702,4.455,1.055c1.777,0.342,3.209,0.541,4.814,0.541
						c1.775,0,4.092-0.704,5.337-1.063c1.425-0.37,2.325-1.785,3.209-2.859c0.892-0.893,0.892-1.758,1.073-3.191
						c0-0.55,0-0.902-0.189-1.424c-0.181-0.559-0.361-0.361-0.714-0.902c-0.359-0.532-0.72-1.063-1.253-1.423
						c-0.359-0.343-0.891-0.703-1.605-1.073c-0.541-0.343-1.253-0.532-1.964-0.892c-0.894-0.361-1.777-0.172-2.831-0.532
						c-3.75-0.541-6.6-0.704-8.025-1.245c-1.622-0.54-2.677-0.901-3.93-1.424c-1.073-0.55-1.786-1.073-2.85-1.983
						c-1.072-0.884-1.433-1.407-1.964-2.299c-0.533-0.893-0.903-1.966-1.263-3.039c-0.344-1.064-0.703-2.488-0.703-3.741
						c0.18-2.128,0.359-3.931,1.433-5.878c1.055-1.776,2.669-3.381,4.634-4.274c2.128-0.892,4.642-1.965,8.203-1.965h3.192
						c1.263,0.189,2.317,0.532,4.094,0.892c0.902,0.712,2.327,1.434,3.57,2.48c1.433,1.271,2.145,1.974,2.145,1.974v-4.454h3.57
						h4.084c-0.703,3.201-1.056,3.571-1.056,5.887c0.173,3.921-0.188,12.468-0.188,17.093c0.188,4.643,0,3.381,0,5.356
						c-0.172,1.595-0.695,4.291-1.245,5.688c-0.541,1.434-1.416,2.507-2.487,3.93c-0.892,1.263-3.381,3.038-5.527,3.58
						c-1.956,0.531-3.381,1.037-5.689,1.037c-2.147,0-5.527-0.342-7.681-0.514c-2.308-0.36-3.913-0.892-6.952-1.604
						C-19.429,31.717-19.247,29.77-19.429,28.517"/>
				</g>
				<g id="g28" transform="translate(171.8024,1.6048)">
					<path id="path30" fill="#4C504E" d="M0,0l0.893,3.02l0.189,8.394L0.541,35.477c0,2.145-1.244,4.625-1.244,5.698
						c1.244,0,3.913,0.36,5.148,0.91c0.892,0.343,2.145,0.343,3.038,0.343v-5.527c0.893,1.605,2.308,1.767,3.038,2.678
						c0.532,0.891,1.253,0.891,2.489,1.776c1.073,0.73,1.775,0.73,3.209,1.073c1.785,0.189,3.02,0.352,4.625,0.352
						c1.073,0,2.146-0.171,3.21-0.532c1.073-0.171,2.128-0.713,3.029-1.245c0.893-0.359,1.776-1.073,2.308-1.614
						c0.721-0.73,1.434-1.072,2.146-2.316c0.18-0.36,1.776,1.948,4.093,3.201c2.326,1.253,4.995,2.326,7.853,2.326
						c1.776,0,5.869-0.189,7.654-0.893c1.784-0.712,4.282-1.622,5.355-2.857c1.064-1.236,1.416-1.777,2.308-2.849
						c1.253-1.245,1.623-4.454,1.623-5.698c0-1.425,0.171-3.571,0.171-6.248V4.291c0-1.965,0.541-2.145,0.902-4.291h-3.931h-4.273
						c1.055,3.38,0.892,2.326,0.892,4.291l0.171,17.987c0,2.506,0,3.93-0.171,5.888c0,1.587-0.532,3.57-0.892,4.454
						c-0.361,0.883-1.966,2.677-2.678,3.38c-0.72,0.713-1.776,0.892-2.848,1.262c-0.894,0.532-2.678,0.532-3.913,0.532
						c-0.901,0-2.326-0.172-3.218-0.37c-0.704-0.343-1.605-0.532-2.326-1.055c-0.704-0.541-1.416-0.721-2.128-1.605
						c-0.541-0.72-1.064-1.595-1.605-2.668c-0.361-0.911-0.361-2.507-0.531-4.111c0-1.776,0.17-4.093,0-6.582V3.931L35.287,0h-4.453
						h-4.113c0,3.57,0.55,0.361,0.55,4.102v16.219v8.188c-0.18,1.433-0.341,1.965-0.55,3.038c-0.341,0.892-0.873,2.317-1.586,3.02
						c-0.722,0.911-2.325,2.326-3.398,2.696c-0.893,0.532-2.308,0.892-3.561,0.892c-1.425,0-2.146-0.189-3.391-0.73
						c-1.073-0.532-2.127-0.703-3.02-1.776c-0.91-0.884-1.613-1.073-2.326-2.47c-0.55-1.434-1.073-1.073-1.244-3.416
						c-0.36-2.299-0.541-10.684-0.541-16.382c0.181-3.391,0.181-6.41,0.181-9.259c0-1.776,0.892-2.488,0.892-4.102H4.634
						C3.922,0,1.614,0,0,0"/>
				</g>
				<g id="g32" transform="translate(273.0392,9.2771)">
					<path id="path34" fill="#4C504E" d="M0,0c0-0.55-0.189-1.433-0.352-2.678c-0.189-1.253-0.542-2.326-0.722-3.57
						C-2.85-6.78-4.804-7.312-6.581-7.501c-1.623-0.18-6.239-0.343-7.681-0.343c-2.669,0-5.887,0.532-8.195,1.236
						c-2.317,0.91-5.347,2.505-7.131,4.453c-1.777,1.784-3.931,3.751-4.816,6.6c-0.883,2.848-1.586,5.526-1.586,8.547
						c-0.189,4.282,0.531,5.707,1.586,9.439c1.253,3.75,4.292,6.598,6.961,8.745c2.831,2.146,9.269,3.922,14.083,3.922
						c3.57,0,7.834-0.531,11.405-1.605c0.18-2.506,0.359-3.913,0.55-5.526c-2.498,0.91-4.823,1.983-6.248,2.326
						c-1.595,0.189-3.57,0.532-4.806,0.532c-2.316,0-6.95-1.073-8.736-1.948c-1.775-0.91-3.191-2.146-4.453-3.931
						c-1.072-1.604-1.966-3.921-2.488-6.239c-0.542-2.326-0.703-2.488-0.542-4.985c0.18-3.21,0.703-6.059,1.614-8.555
						c1.055-2.317,2.678-4.805,4.986-6.059c2.145-1.424,4.814-2.677,7.664-2.677C-11.756-3.57-6.059-3.219,0,0"/>
				</g>
				<g id="g36" transform="translate(316.3414,3.2186)">
					<path id="path38" fill="#4C504E" d="M0,0l-0.703,2.84c0,0.361-0.711,2.138-1.064,4.102c4.806-2.678,9.809-4.634,13.542-4.634
						c1.777,0,3.741,0.703,4.986,1.064c1.253,0.532,2.497,1.434,3.209,2.479c0.55,0.912,1.244,1.975,1.433,2.867
						c0.172,0.541,0.344,1.416,0.172,1.948c-0.172,0.548-0.361,2.145-0.892,2.686c-0.361,0.532-1.786,1.766-2.489,2.489
						c-0.712,0.53-2.678,1.604-5.355,2.677c-2.489,1.055-5.888,2.128-7.123,3.201c-1.261,0.902-3.389,2.137-4.283,3.209
						C0.54,26.001,0,27.065-0.532,28.12c-0.344,1.082,0,2.687-0.18,3.948c0,1.777,1.063,3.57,2.136,5.157
						c1.055,1.785,2.848,2.677,4.986,3.57c2.145,0.694,4.642,1.262,7.492,1.262c3.2,0,6.237-0.73,10.169-1.433
						c0.172-2.146-0.369-3.751-0.189-5.527c-2.686,1.776-5.887,2.848-8.908,2.848c-1.622,0-3.209-0.352-4.642-0.712
						c-1.434-0.541-2.85-1.776-3.57-2.669c-0.533-0.892-0.894-1.623-0.894-2.677c0-0.713,0.189-1.777,0.533-2.489
						c0.189-0.55,1.784-2.317,2.678-2.677c1.253-0.541,0.72-0.361,1.775-0.705c1.262-0.188,4.111-1.784,6.952-3.037
						c3.037-1.415,5.716-3.201,6.598-4.111c0.894-0.893,1.967-2.12,2.678-4.273c0.542-1.073,0.703-2.318,0.703-3.201
						c0-1.605-0.359-1.776-0.359-2.849c0.189-1.965-0.344-2.687-1.416-4.282c-1.056-1.777-3.039-3.38-5.347-4.273
						c-2.317-0.892-4.625-1.614-7.483-1.614c-1.253,0-3.931-0.171-5.517,0c-1.605,0.18-3.039,0.722-4.292,0.902
						C2.326-0.55,1.623-0.55,0,0"/>
				</g>
				<g id="g40" transform="translate(368.3889,6.7888)">
					<path id="path42" fill="#4C504E" d="M0.001,0c-0.353-1.433-0.713-2.155-0.903-4.454c-1.775-0.55-2.487-0.721-3.561-0.721
						c-0.9-0.171-1.964,0.18-2.858,0.18c-2.308,0-4.092,0.191-5.508,0.893c-1.434,0.713-2.498,1.605-3.209,3.038
						c-0.892,1.415-1.433,4.986-1.433,7.474v1.623c0,0.892-0.173,1.605,0,6.402l-0.173,18.554h-5.175v3.733l5.175,0.189
						c0.173,1.037,0,4.625,0,7.294c0,1.262-0.72,2.488-1.252,3.218c2.487,0.532,6.067,1.605,7.653,1.948
						c0-4.093,0.37-10.152,0.37-12.46l10.692-0.189c-0.172-1.785,0-2.489,0.189-4.093l-3.038,0.36h-7.844l-0.172-23.35V7.672
						c0.172-2.145,0.342-4.805,0.892-5.878c0.344-1.073,1.056-1.433,1.948-1.965c0.892-0.361,1.784-0.541,2.677-0.541h2.327
						C-2.488-0.73-1.956-0.55,0.001,0"/>
				</g>
				<g id="g44" transform="translate(125.462,9.0788)">
					<path id="path46" fill="#4C504E" d="M0,0c-0.171-1.596-0.712-3.552-0.884-6.048c-2.488-0.705-6.419-2.137-8.195-2.498
						c-1.776-0.171-3.57-0.171-5.346-0.171c-3.201,0-6.419,0.703-9.097,1.605c-2.488,0.891-5.004,2.659-6.951,4.813
						c-1.965,2.128-3.75,4.455-4.643,7.113c-0.893,2.849-1.073,5.527-1.253,8.547c-0.171,4.292,0.55,5.887,1.794,9.629
						c1.415,3.57,4.093,6.239,6.951,8.385c2.849,2.145,6.419,3.029,11.044,3.029c2.326,0,4.986-0.172,7.132-0.884
						c2.136-0.721,3.93-1.614,5.346-3.038c1.415-1.605,2.677-3.201,3.57-5.346c0.893-2.316,1.073-2.316,1.434-4.986
						c0.342-1.262,0.342-3.219,0.342-4.291l-30.464-0.172v-3.038c0.172-3.038,0.532-6.058,1.767-8.565
						c1.254-2.488,2.849-4.273,5.166-5.509c2.326-1.254,5.175-2.488,8.033-2.488C-10.855-3.895-4.986-2.479,0,0 M-27.967,20.168
						h22.278c0,1.767,0,1.245-0.18,2.308c-0.171,0.894-0.532,1.785-1.064,2.849c-0.532,1.064-1.424,1.767-2.326,2.497
						c-0.893,0.893-1.776,1.416-3.02,1.966c-1.082,0.36-2.867,0.532-4.292,0.532c-1.424,0-2.677-0.37-3.931-0.902
						c-1.415-0.532-2.488-1.064-3.371-1.965c-1.082-0.722-1.776-1.596-2.498-2.669c-0.712-1.073-1.244-2.146-1.424-3.202
						l-0.18-0.351C-27.975,21.232-27.795,21.232-27.967,20.168"/>
				</g>
				<g id="g48" transform="translate(63.0826,0.5319)">
					<path id="path50" fill="#4C504E" d="M0,0c0,0.911,0.721,1.974,0.721,2.688c0.19,13.532,0,23.873-0.36,32.429l-0.172,3.75
						l-1.253,3.03c1.253,0.189,3.038,0.351,3.931,0.532c0.884,0.189,3.201,0.541,4.264,0.541v-7.682
						c0.911,1.794,1.073,1.623,1.776,2.507c0.55,0.909,1.786,1.947,2.678,2.677c0.911,0.541,1.776,1.253,3.038,1.614
						c1.064,0.343,2.137,0.884,3.39,0.884c1.064,0,1.957,0.188,4.463,0c2.47-0.352,3.913-0.884,4.454-1.064
						c0.171-1.064-1.785-5.707-1.785-5.707s-1.966,0.189-3.571,0.891c-1.604,0.361-2.659,0.361-3.921,0.361
						c-1.416,0-3.192-0.361-4.454-0.893c-1.064-0.55-2.308-1.27-3.192-2.308c-0.901-1.072-1.433-2.335-1.965-3.93
						c-0.55-1.263-0.361-0.19-0.55-2.146c-0.171-2.137,0-21.214,0.189-25.668l0.704-2.308H4.111C3.399,0.198,1.434,0,0,0"/>
				</g>
				<g id="g52" transform="translate(0.1804,0.3696)">
					<path id="path54" fill="#4C504E" d="M0,0l1.433,4.093v50.605c-0.189,1.623-0.712,3.029-1.613,5.716
						c3.57-0.189,9.448,0.18,11.936,0.18c1.425,0,3.751-0.18,6.951-0.18c3.21,0,6.068,0,7.483-0.189
						c4.454-0.343,5.716-0.532,8.917-1.416c2.308-0.532,6.762-3.038,8.907-4.454c1.966-1.433,4.094-3.038,5.707-5.346
						c1.587-2.317,2.317-3.038,3.552-5.698c1.434-3.759,2.327-7.681,2.327-11.242c0.369-5.175-0.181-8.908-1.614-13.542
						c-1.587-4.643-4.806-8.024-7.826-11.062c-3.038-3.21-6.419-4.986-10.341-6.059C31.906,0.514,27.453-0.37,22.458-0.37H10.873
						L0,0z M10.53,4.814c3.363-0.189,6.23-0.189,9.079-0.189c2.326,0,5.175,0.189,7.663,0.362c2.669,0.359,4.454,1.252,6.429,1.965
						c1.956,0.721,3.921,1.766,5.697,3.57c1.966,1.777,3.381,3.931,4.644,6.068c1.054,2.317,1.965,4.805,2.307,7.663
						c0.532,2.849,0.722,5.707,0.722,8.547c-0.19,3.21-1.064,5.716-1.975,8.385c-0.883,2.839-2.479,6.238-4.805,8.204
						c-2.488,1.947-4.273,3.552-6.951,4.264c-2.488,0.721-6.23,1.794-10.332,1.794c-2.678,0-6.077-0.189-7.681-0.369
						c-1.776-0.181-3.21-0.361-5.527-0.361L10.53,4.814z"/>
				</g>
				<g id="g56" transform="translate(192.9171,147.5683)">
					<path id="path58" fill="#3E649F" d="M0,0c0,7.14-3.4,6.437-5.708,6.78c-2.488,0.36-8.385-0.893-13.712,0.36
						c-6.419,1.245-9.818,10.152-8.745,14.434c3.21,12.306,11.234,13.912,16.751,13.541c4.292-0.18,12.306-0.532,22.107-9.087
						c4.453-3.923,7.131-14.263,7.311-20.132c0.191-7.302-0.18-15.516-4.453-20.132c-6.952-7.492-25.316-13.893-35.639-13.55
						c-40.463,4.282-39.029,42.409-39.029,42.409s-3.219,16.4,10.512,33.872c1.073,1.425,2.849,4.814,4.273,6.23
						c1.425,1.605,2.489,1.965,4.283,3.398c1.605,1.245,3.381,2.128,5.166,3.2c4.454,2.67,9.268,5.148,13.893,6.582
						c6.96,2.138,13.911,2.67,19.438,2.498c16.741-0.532,34.926-9.628,44.023-23.711c1.416-1.948,2.488-3.381,3.733-5.166
						c1.253-1.965,2.85-5.346,4.453-9.439c2.147-6.068,1.416-3.57,3.742-12.839c1.605-6.59,2.334-10.71,2.678-14.966
						c0.189-1.965,0.352-4.093,0.548-6.42c0.172-7.311,1.056-9.097-0.548-14.794c-2.489-9.611-8.566-19.087-13.552-24.054
						c-8.906-8.745-17.094-11.423-21.916-13.902c-4.814-2.498-6.771-2.848-13.001-4.995c-6.23-2.317-9.628-2.678-20.691-2.678
						c-10.863,0.172-19.771,0.713-22.44,1.416c-19.437,5.355-26.379,8.916-34.755,15.696C-93.024-28.354-97.477,5.157-97.477,5.157
						s-2.317,17.094,1.415,34.927c2.146,9.448,11.603,26.731,17.13,33.691c4.625,5.869,15.308,14.443,21.728,18.365
						c6.419,4.093,15.516,9.439,26.028,12.64c5.166,1.758,9.097,2.488,20.844,3.029c13.55,0.532,33.52-3.029,45.268-6.59
						c12.306-3.751,23.52-11.775,29.236-17.996c5.87-6.428,18.897-25.487,21.025-29.418c2.327-3.921,8.556-24.775,9.089-27.624
						c0.55-2.668,1.603-12.116,10.881-11.584c8.547,0.73,6.05,10.513,5.869,12.307c-0.361,1.784-3.38,17.995-4.814,22.448
						c-1.244,4.453-7.825,16.22-9.439,18.536c-0.712,1.434-6.772,11.234-12.641,18.898c-4.462,5.707-8.753,11.422-13.567,14.27
						c-9.08,5.862-20.664,11.045-20.664,11.045s-19.781,6.779-30.131,8.023c-8.907,1.073-18.519,3.021-34.385,1.966
						c-15.859-1.073-24.595-5.355-30.464-7.663c-5.716-2.507-18.897-8.214-28.715-16.22c-9.809-8.042-6.771-4.111-12.117-9.98
						c-5.166-5.887-6.771-7.491-10.332-12.496c-3.57-5.166-11.216-20.132-14.092-30.283c-1.054-4.102-3.02-10.341-3.912-16.4
						c-0.713-5.157-0.902-10.16-0.352-14.254c0.892-8.736,0.532-8.907,0.532-8.907s4.093-16.931,6.239-23.711
						c2.308-6.582,5.346-16.391,19.068-31.726c13.893-15.156,26.551-19.24,31.365-21.205c4.815-1.784,21.025-7.483,42.419-7.844
						c24.775-0.541,31.194,4.986,35.648,6.771c4.625,1.966,19.78,8.385,31.897,19.78c12.117,11.396,16.039,23.703,16.4,24.595
						c3.372,9.62,4.453,24.964,1.416,39.93c-2.138,10.152-3.741,18.906-5.708,25.136c-3.569,10.684-7.842,16.752-11.044,21.557
						c-2.848,4.453-11.773,11.234-17.292,14.623c-2.677,1.587-5.166,3.561-8.736,4.995c-3.57,1.605-8.203,2.659-13.722,3.921
						c-5.166,1.245-11.945,2.489-17.644,2.849c-4.985,0.352-9.259,0.172-11.062,0.172c-2.488,0-11.044-1.434-22.44-7.474
						c-6.419-3.39-13.199-7.33-20.853-14.966c-2.326-2.507-4.454-5.527-6.239-8.024C-81.276,32.096-75.037,6.248-75.037,6.248
						s3.02-34.936,33.673-44.916c10.882-3.381,20.33-3.571,28.354-2.67c13.37,1.777,23.17,7.313,29.761,10.693
						c6.78,3.552,11.766,9.268,14.444,15.516c2.669,5.697,3.201,11.756,3.02,16.742c-0.172,3.038-0.172,6.77-0.884,10.701
						c-1.776,9.962-5.347,19.952-14.091,27.426l-2.678,1.795c-1.605,1.073-3.02,1.784-4.273,2.487
						c-7.473,3.931-14.804,5.356-24.955,5.888c-3.751-0.18-9.259-0.902-12.297-2.498c-12.127-5.877-18.708-16.589-18.185-30.644
						c0.532-13.19,12.838-20.141,14.966-22.097C-27.985-5.518-0.721-12.46,0,0"/>
				</g>
			</g>
		</g>
	</g>
</g>
</svg>
