<?xml version="1.0" encoding="utf-8"?>
<!-- Generator: Adobe Illustrator 16.0.3, SVG Export Plug-In . SVG Version: 6.00 Build 0)  -->
<!DOCTYPE svg PUBLIC "-//W3C//DTD SVG 1.1//EN" "http://www.w3.org/Graphics/SVG/1.1/DTD/svg11.dtd">
<svg version="1.1"
	 id="svg2" xmlns:dc="http://purl.org/dc/elements/1.1/" xmlns:cc="http://creativecommons.org/ns#" xmlns:rdf="http://www.w3.org/1999/02/22-rdf-syntax-ns#" xmlns:svg="http://www.w3.org/2000/svg"
	 xmlns="http://www.w3.org/2000/svg" xmlns:xlink="http://www.w3.org/1999/xlink" x="0px" y="0px" width="1013.984px"
	 height="200.223px" viewBox="0 0 1013.984 200.223" enable-background="new 0 0 1013.984 200.223" xml:space="preserve">
<g id="g10" transform="matrix(1.25,0,0,-1.25,0,200.2225)">
	<g id="g12">
		<g>
			<g id="g14">
				<g id="g20" transform="translate(451.1852,42.2087)">
					<path id="path22" fill="#4C504E" d="M0,0.001C-0.59-0.289-2.376-1.771-2.997-2.089c-2.378-0.605-3.875-1.498-5.358-1.786
						c-1.772-0.319-3.892-0.591-5.692-0.591c-2.983,0-5.358,0.893-7.175,2.089c-2.105,1.18-2.105,0.605-3.603,2.709
						c-1.18,1.755-3.269,4.767-3.269,7.159c-0.319,1.802-0.319,3.3,0.286,5.102c0.303,1.195,0.925,2.376,1.803,3.587
						c1.18,1.196,2.406,2.695,4.178,3.891c1.8,0.923,3.3,1.195,6.28,2.375c1.5,0.606,3.603,0.923,6.903,1.211
						c1.772,0.289,5.358,0.289,6.569,0.878c1.197,0.319,2.408,0.319,3.3,0.939c0.894,0.591,2.089,0.892,2.695,1.195
						c0.591,0.577,1.498,0.893,2.983,2.377L6.6,14.697c0,0-0.289-5.994-2.392-9.278C2.103,1.801,0,0.001,0,0.001 M-32.59,47.893
						c3.286,1.484,5.692,2.392,7.766,3.285c2.12,0.606,4.495,1.181,7.478,1.801c2.997,0.606,5.1,0.893,8.097,0.893
						c2.983,0,6.6-1.165,8.978-1.771c2.103-0.62,3.875-2.997,5.1-4.798C6.327,45.805,6.6,44.896,6.6,42.52v-2.407
						c-0.289-0.893-0.894-1.181-1.5-2.074c-0.605-0.908-1.195-1.801-2.089-2.391c-0.605-0.605-1.527-1.211-2.405-1.802
						c-1.197-0.605-2.378-0.893-3.603-1.498c-1.181-0.605-2.983-0.317-4.753-0.908c-5.994-0.909-10.777-1.181-13.472-2.089
						c-2.694-0.892-4.495-1.498-6.297-2.406c-2.075-0.894-2.983-1.802-4.783-3.286c-1.803-1.497-2.378-2.678-3.27-4.192
						c-0.923-1.483-1.817-2.997-2.408-4.769c-0.317-1.8-0.892-4.177-0.892-6.281c0-3.602,0.575-6.599,2.377-9.869
						C-34.997-4.435-32-7.129-28.7-8.658c3.27-1.499,7.478-3.27,13.472-3.27h5.677c1.802,0.288,3.572,0.892,6.902,1.484
						c1.5,1.211,3.573,2.391,5.964,4.193c2.105,2.087,3.3,3.284,3.3,3.284v-7.477h5.995h6.872c-1.195,5.388-1.786,5.995-1.483,9.87
						c0,6.6-0.606,20.964-0.319,28.73c0,7.795-0.303,5.676-0.303,8.976c0,2.694-1.195,7.19-2.089,9.567
						c-0.923,2.406-2.406,3.905-3.905,6.599c-1.802,2.104-5.994,5.101-9.28,5.995C-1.468,60.215-3.89,60.79-7.75,60.79
						c-3.603,0-8.977-0.303-12.866-0.575c-3.603-0.606-6.6-1.529-11.686-3.012C-32.317,53.267-32.317,49.967-32.59,47.893"/>
				</g>
				<g id="g24" transform="translate(695.677,43.1168)">
					<path id="path26" fill="#4C504E" d="M0.001,0c-0.894-0.319-2.392-1.802-3.286-2.119c-2.103-0.575-3.588-1.5-5.086-1.786
						c-2.119-0.289-3.889-0.592-5.691-0.592c-2.983,0-5.677,0.894-7.478,2.105c-1.802,1.195-1.802,0.591-3.3,2.695
						c-1.498,1.8-3.587,4.783-3.587,7.189c0,1.772,0,3.3,0.303,5.102c0.591,1.181,0.923,2.377,2.089,3.542
						c1.211,1.211,2.406,2.709,4.208,3.936c1.498,0.893,3.269,1.18,6.252,2.376c1.227,0.575,3.603,0.893,6.902,1.166
						c1.5,0.317,5.389,0.317,6.6,0.938c0.894,0.288,2.089,0.591,2.983,0.894c1.195,0.591,2.089,0.892,2.967,1.195
						c0.605,0.606,1.211,0.923,2.725,2.377v-14.35c0,0-0.319-5.677-2.392-9.278C2.09,1.771,0.001,0,0.001,0 M-32.62,47.878
						c2.981,1.499,5.389,2.377,7.478,3.3c2.072,0.606,4.783,1.181,7.477,1.771c2.981,0.575,5.389,0.908,8.083,0.908
						c2.983,0,6.872-1.181,8.961-1.786c2.392-0.621,3.906-2.997,5.389-4.798c1.498-1.499,1.498-2.952,1.802-5.359
						c0-0.923,0-1.513-0.317-2.391c-0.303-0.939-0.606-0.606-1.197-1.514c-0.605-0.893-1.211-1.786-2.103-2.391
						c-0.606-0.575-1.5-1.18-2.694-1.802c-0.909-0.575-2.106-0.893-3.3-1.498c-1.5-0.605-2.983-0.288-4.753-0.894
						c-6.297-0.908-11.08-1.18-13.472-2.087c-2.725-0.909-4.497-1.514-6.6-2.392c-1.802-0.923-2.997-1.802-4.783-3.33
						c-1.802-1.484-2.408-2.363-3.3-3.861c-0.894-1.498-1.514-3.3-2.12-5.1c-0.575-1.786-1.18-4.178-1.18-6.283
						c0.302-3.572,0.605-6.6,2.406-9.869c1.77-2.981,4.48-5.677,7.78-7.175c3.573-1.498,7.797-3.3,13.775-3.3h5.359
						c2.119,0.319,3.891,0.894,6.872,1.498c1.513,1.195,3.905,2.406,5.994,4.163C5.345-4.178,6.54-2.997,6.54-2.997v-7.478h5.994
						h6.858C18.21-5.101,17.62-4.479,17.62-0.59c0.288,6.584-0.317,20.934-0.317,28.7c0.317,7.795,0,5.677,0,8.991
						c-0.287,2.679-1.166,7.205-2.089,9.551c-0.908,2.407-2.377,4.208-4.178,6.6c-1.498,2.119-5.677,5.101-9.28,6.009
						c-3.284,0.893-5.675,1.741-9.55,1.741c-3.603,0-9.28-0.575-12.897-0.863c-3.875-0.605-6.57-1.498-11.672-2.694
						C-32.62,53.252-32.316,49.982-32.62,47.878"/>
				</g>
				<g id="g28" transform="translate(481.111,31.7339)">
					<path id="path30" fill="#4C504E" d="M0,0l1.5,5.07l0.317,14.092L0.907,59.564c0,3.602-2.089,7.765-2.089,9.566
						c2.089,0,6.57,0.606,8.645,1.529c1.497,0.575,3.602,0.575,5.1,0.575v-9.278c1.498,2.694,3.875,2.966,5.102,4.495
						c0.892,1.499,2.103,1.499,4.178,2.982c1.8,1.226,2.981,1.226,5.388,1.801c2.998,0.318,5.072,0.591,7.766,0.591
						c1.802,0,3.603-0.288,5.389-0.893c1.802-0.288,3.572-1.196,5.086-2.089c1.498-0.606,2.981-1.801,3.875-2.71
						c1.211-1.226,2.406-1.801,3.603-3.89c0.303-0.605,2.981,3.27,6.872,5.374c3.906,2.104,8.386,3.905,13.184,3.905
						c2.981,0,9.855-0.318,12.852-1.498c2.997-1.196,7.189-2.725,8.991-4.799c1.786-2.074,2.377-2.982,3.875-4.783
						c2.105-2.089,2.725-7.478,2.725-9.567c0-2.391,0.288-5.994,0.288-10.49V7.205c0-3.3,0.908-3.602,1.514-7.205h-6.6h-7.175
						c1.77,5.676,1.498,3.905,1.498,7.205l0.288,30.198c0,4.208,0,6.6-0.288,9.884c0,2.664-0.892,5.994-1.498,7.478
						c-0.606,1.483-3.3,4.495-4.495,5.676c-1.211,1.196-2.983,1.498-4.783,2.119c-1.5,0.893-4.497,0.893-6.57,0.893
						c-1.514,0-3.905-0.287-5.405-0.621c-1.18-0.575-2.694-0.893-3.905-1.771c-1.181-0.908-2.377-1.21-3.572-2.694
						c-0.909-1.211-1.788-2.679-2.695-4.48c-0.605-1.529-0.605-4.208-0.892-6.903c0-2.981,0.287-6.872,0-11.05V6.6L59.246,0h-7.478
						h-6.902c0,5.994,0.922,0.605,0.922,6.887v27.232v13.744c-0.303,2.407-0.575,3.3-0.922,5.101
						c-0.575,1.499-1.469,3.89-2.664,5.071c-1.211,1.529-3.906,3.905-5.708,4.526c-1.498,0.893-3.875,1.499-5.978,1.499
						c-2.392,0-3.603-0.318-5.692-1.227c-1.802-0.893-3.572-1.18-5.07-2.981c-1.53-1.484-2.711-1.802-3.906-4.148
						c-0.923-2.407-1.802-1.801-2.089-5.737c-0.605-3.861-0.908-17.937-0.908-27.504c0.303-5.691,0.303-10.762,0.303-15.545
						c0-2.981,1.498-4.178,1.498-6.887H7.779C6.586,0,2.711,0,0,0"/>
				</g>
				<g id="g32" transform="translate(651.0836,44.6154)">
					<path id="path34" fill="#4C504E" d="M0,0C0-0.923-0.318-2.407-0.59-4.496C-0.907-6.6-1.5-8.401-1.801-10.491
						c-2.981-0.892-6.267-1.786-9.248-2.103c-2.725-0.303-10.475-0.575-12.897-0.575c-4.481,0-9.884,0.892-13.759,2.073
						c-3.891,1.528-8.977,4.208-11.973,7.477c-2.981,2.998-6.6,6.298-8.084,11.081c-1.483,4.783-2.664,9.278-2.664,14.349
						c-0.317,7.19,0.894,9.582,2.664,15.849c2.106,6.297,7.206,11.08,11.686,14.683c4.753,3.602,15.563,6.584,23.645,6.584
						c5.994,0,13.153-0.893,19.147-2.694c0.303-4.208,0.606-6.57,0.925-9.279c-4.194,1.529-8.1,3.33-10.491,3.905
						c-2.68,0.318-5.995,0.893-8.067,0.893c-3.891,0-11.672-1.801-14.669-3.269c-2.981-1.529-5.358-3.603-7.478-6.6
						c-1.8-2.695-3.3-6.585-4.177-10.475c-0.909-3.905-1.181-4.178-0.909-8.372c0.303-5.388,1.181-10.172,2.711-14.364
						c1.77-3.891,4.495-8.069,8.37-10.173c3.602-2.391,8.083-4.495,12.866-4.495C-19.739-5.994-10.171-5.405,0,0"/>
				</g>
				<g id="g36" transform="translate(723.7862,34.4434)">
					<path id="path38" fill="#4C504E" d="M-0.001,0l-1.18,4.767c0,0.606-1.195,3.589-1.786,6.889
						C5.101,7.16,13.503,3.875,19.77,3.875c2.981,0,6.281,1.181,8.369,1.786c2.106,0.893,4.194,2.406,5.389,4.163
						c0.925,1.53,2.089,3.316,2.408,4.813c0.288,0.909,0.575,2.377,0.288,3.27c-0.288,0.923-0.606,3.603-1.498,4.511
						c-0.605,0.894-2.997,2.967-4.178,4.178c-1.197,0.894-4.495,2.695-8.991,4.495c-4.178,1.771-9.884,3.573-11.958,5.374
						c-2.12,1.514-5.692,3.587-7.191,5.389c-1.498,1.801-2.408,3.587-3.3,5.358c-0.575,1.817,0,4.511-0.303,6.63
						c0,2.982,1.786,5.994,3.588,8.659c1.772,2.997,4.783,4.495,8.37,5.994c3.603,1.165,7.797,2.119,12.58,2.119
						c5.372,0,10.475-1.226,17.073-2.407c0.287-3.602-0.62-6.297-0.317-9.279c-4.511,2.982-9.884,4.784-14.956,4.784
						c-2.723,0-5.389-0.591-7.794-1.196c-2.408-0.908-4.784-2.982-5.995-4.481c-0.894-1.498-1.498-2.724-1.498-4.495
						c0-1.196,0.319-2.982,0.894-4.178c0.317-0.923,2.997-3.89,4.495-4.496c2.105-0.908,1.211-0.605,2.981-1.181
						c2.12-0.317,6.903-2.997,11.67-5.1c5.103-2.377,9.597-5.373,11.08-6.903c1.5-1.498,3.3-3.556,4.497-7.175
						c0.908-1.8,1.181-3.889,1.181-5.373c0-2.694-0.606-2.982-0.606-4.783c0.317-3.3-0.575-4.511-2.377-7.191
						c-1.77-2.981-5.1-5.675-8.975-7.175c-3.891-1.498-7.766-2.709-12.564-2.709c-2.105,0-6.6-0.288-9.264,0
						C10.173-2.422,7.765-1.513,5.66-1.211C3.906-0.923,2.724-0.923-0.001,0"/>
				</g>
				<g id="g40" transform="translate(811.1719,40.4376)">
					<path id="path42" fill="#4C504E" d="M0,0c-0.589-2.406-1.195-3.618-1.514-7.478c-2.981-0.923-4.178-1.211-5.978-1.211
						c-1.514-0.287-3.3,0.303-4.798,0.303c-3.875,0-6.873,0.318-9.248,1.499c-2.408,1.195-4.194,2.694-5.389,5.101
						c-1.498,2.377-2.406,8.37-2.406,12.548v2.725c0,1.498-0.288,2.694,0,10.747l-0.288,31.152h-8.689v6.267l8.689,0.318
						c0.288,1.74,0,7.765,0,12.245c0,2.119-1.211,4.178-2.105,5.404c4.178,0.893,10.188,2.695,12.852,3.27
						c0-6.872,0.62-17.044,0.62-20.919l17.952-0.318c-0.286-2.997,0-4.178,0.319-6.872l-5.102,0.605h-13.169l-0.287-39.205v-3.299
						c0.287-3.602,0.575-8.068,1.498-9.87c0.575-1.802,1.772-2.408,3.269-3.3c1.5-0.605,2.997-0.908,4.497-0.908h3.905
						C-4.178-1.226-3.285-0.923,0,0"/>
				</g>
				<g id="g44" transform="translate(403.3071,44.2824)">
					<path id="path46" fill="#4C504E" d="M0,0c-0.288-2.68-1.196-5.964-1.483-10.158c-4.178-1.18-10.778-3.586-13.76-4.192
						c-2.982-0.287-5.994-0.287-8.976-0.287c-5.374,0-10.778,1.18-15.273,2.694c-4.178,1.5-8.401,4.466-11.671,8.084
						c-3.3,3.572-6.297,7.477-7.795,11.943c-1.499,4.783-1.802,9.279-2.104,14.35c-0.288,7.205,0.923,9.884,3.012,16.166
						c2.376,5.995,6.872,10.475,11.67,14.078c4.784,3.602,10.778,5.086,18.543,5.086c3.905,0,8.371-0.288,11.973-1.484
						c3.588-1.211,6.6-2.709,8.977-5.101c2.376-2.694,4.495-5.374,5.994-8.976c1.498-3.89,1.801-3.89,2.407-8.37
						c0.575-2.12,0.575-5.405,0.575-7.205l-51.148-0.288v-5.101c0.288-5.101,0.893-10.172,2.966-14.38
						c2.104-4.178,4.784-7.175,8.673-9.248c3.905-2.105,8.689-4.177,13.487-4.177C-18.225-6.539-8.371-4.163,0,0 M-46.955,33.861
						h37.404c0,2.967,0,2.089-0.303,3.875c-0.288,1.499-0.893,2.997-1.786,4.784c-0.893,1.786-2.392,2.966-3.906,4.193
						c-1.498,1.498-2.982,2.376-5.071,3.299c-1.816,0.606-4.813,0.894-7.205,0.894c-2.391,0-4.495-0.621-6.599-1.514
						c-2.377-0.893-4.178-1.786-5.662-3.3c-1.816-1.211-2.982-2.679-4.192-4.481c-1.196-1.801-2.089-3.602-2.392-5.373l-0.303-0.591
						C-46.97,35.647-46.667,35.647-46.955,33.861"/>
				</g>
				<g id="g48" transform="translate(298.5746,29.9325)">
					<path id="path50" fill="#4C504E" d="M0,0c0,1.529,1.212,3.315,1.212,4.511c0.318,22.72,0,40.082-0.606,54.447l-0.287,6.297
						l-2.105,5.086c2.105,0.318,5.102,0.591,6.6,0.893c1.484,0.318,5.373,0.909,7.159,0.909V59.246
						c1.529,3.012,1.802,2.725,2.982,4.208c0.924,1.529,2.997,3.27,4.496,4.496c1.529,0.908,2.982,2.104,5.101,2.709
						c1.786,0.575,3.587,1.484,5.691,1.484c1.787,0,3.284,0.317,7.493,0c4.148-0.591,6.57-1.484,7.477-1.787
						c0.288-1.786-2.997-9.581-2.997-9.581s-3.3,0.318-5.994,1.498c-2.695,0.606-4.466,0.606-6.585,0.606
						c-2.376,0-5.358-0.606-7.478-1.499c-1.786-0.923-3.875-2.134-5.358-3.875c-1.514-1.801-2.407-3.92-3.3-6.599
						c-0.923-2.12-0.605-0.318-0.923-3.603c-0.288-3.588,0-35.617,0.318-43.095l1.18-3.875H6.903C5.707,0.333,2.407,0,0,0"/>
				</g>
				<g id="g52" transform="translate(192.9642,29.6601)">
					<path id="path54" fill="#4C504E" d="M0,0l2.407,6.873v84.963c-0.318,2.724-1.196,5.086-2.71,9.597
						c5.994-0.318,15.864,0.302,20.041,0.302c2.392,0,6.297-0.302,11.671-0.302c5.389,0,10.187,0,12.564-0.318
						c7.477-0.575,9.597-0.893,14.97-2.377c3.875-0.893,11.353-5.101,14.955-7.477c3.3-2.407,6.873-5.102,9.582-8.977
						c2.664-3.89,3.89-5.101,5.964-9.566c2.406-6.312,3.905-12.897,3.905-18.876c0.621-8.689-0.302-14.955-2.709-22.737
						c-2.664-7.795-8.068-13.472-13.139-18.572C72.4,7.144,66.724,4.163,60.139,2.361C53.57,0.863,46.092-0.621,37.706-0.621H18.255
						L0,0z M17.68,8.084c5.646-0.319,10.46-0.319,15.243-0.319c3.905,0,8.688,0.319,12.866,0.606
						c4.481,0.605,7.478,2.104,10.793,3.3c3.285,1.211,6.584,2.966,9.566,5.994c3.3,2.983,5.677,6.6,7.796,10.188
						c1.77,3.89,3.3,8.067,3.875,12.866c0.893,4.784,1.211,9.582,1.211,14.35c-0.318,5.389-1.786,9.597-3.316,14.078
						c-1.483,4.768-4.162,10.474-8.068,13.774c-4.177,3.27-7.175,5.964-11.671,7.16c-4.177,1.211-10.459,3.012-17.346,3.012
						c-4.495,0-10.202-0.318-12.896-0.62c-2.982-0.303-5.389-0.606-9.279-0.606L17.68,8.084z"/>
				</g>
				<g id="g56" transform="translate(91.5573,62.656)">
					<path id="path58" fill="#3E649F" d="M0,0c0,5.689-2.708,5.129-4.547,5.402c-1.983,0.288-6.681-0.711-10.926,0.288
						c-5.115,0.992-7.823,8.089-6.969,11.501c2.558,9.806,8.951,11.084,13.348,10.79c3.419-0.144,9.805-0.424,17.614-7.241
						c3.548-3.125,5.682-11.365,5.826-16.04c0.15-5.82-0.144-12.364-3.549-16.042C5.258-17.312-9.375-22.413-17.6-22.141
						c-32.24,3.413-31.097,33.792-31.097,33.792s-2.565,13.067,8.376,26.988c0.854,1.135,2.27,3.836,3.405,4.964
						c1.135,1.279,1.982,1.566,3.412,2.708c1.278,0.992,2.694,1.696,4.116,2.551c3.549,2.126,7.385,4.101,11.07,5.244
						c5.546,1.702,11.084,2.126,15.488,1.989c13.339-0.423,27.829-7.672,35.077-18.892c1.128-1.552,1.983-2.694,2.974-4.116
						c0.998-1.567,2.27-4.26,3.549-7.522c1.709-4.834,1.127-2.844,2.981-10.229c1.278-5.251,1.86-8.534,2.133-11.925
						c0.151-1.566,0.28-3.261,0.438-5.113c0.137-5.827,0.841-7.25-0.438-11.789c-1.982-7.658-6.824-15.208-10.797-19.166
						c-7.097-6.969-13.62-9.102-17.463-11.078c-3.836-1.989-5.395-2.27-10.359-3.979c-4.963-1.846-7.672-2.134-16.486-2.134
						c-8.656,0.137-15.753,0.567-17.88,1.128c-15.487,4.267-21.019,7.105-27.692,12.506C-74.12-22.592-77.669,4.109-77.669,4.109
						s-1.846,13.62,1.128,27.829c1.71,7.528,9.245,21.299,13.649,26.845c3.685,4.677,12.197,11.508,17.312,14.633
						c5.115,3.261,12.363,7.521,20.739,10.071c4.116,1.401,7.248,1.983,16.609,2.414c10.796,0.424,26.708-2.414,36.068-5.251
						c9.806-2.989,18.742-9.382,23.297-14.339c4.676-5.121,15.056-20.308,16.752-23.44c1.853-3.124,6.817-19.74,7.241-22.01
						c0.438-2.126,1.278-9.655,8.67-9.231c6.81,0.582,4.82,8.376,4.677,9.806c-0.288,1.422-2.694,14.338-3.836,17.887
						c-0.992,3.548-6.236,12.923-7.522,14.769c-0.567,1.142-5.394,8.951-10.071,15.057c-3.556,4.547-6.975,9.101-10.811,11.371
						c-7.234,4.67-16.465,8.8-16.465,8.8s-15.761,5.402-24.007,6.394C8.663,96.569,1.006,98.12-11.637,97.28
						c-12.636-0.855-19.597-4.267-24.274-6.106c-4.554-1.997-15.056-6.545-22.879-12.924c-7.816-6.407-5.395-3.275-9.655-7.952
						c-4.116-4.691-5.395-5.969-8.232-9.956c-2.845-4.116-8.937-16.041-11.228-24.13c-0.841-3.268-2.407-8.239-3.118-13.067
						c-0.567-4.109-0.718-8.096-0.28-11.357c0.711-6.961,0.424-7.097,0.424-7.097s3.261-13.491,4.971-18.892
						c1.839-5.245,4.26-13.061,15.193-25.28c11.07-12.076,21.156-15.33,24.992-16.895c3.836-1.423,16.752-5.962,33.798-6.25
						c19.741-0.43,24.855,3.972,28.404,5.395c3.685,1.566,15.761,6.68,25.415,15.761c9.655,9.08,12.78,18.886,13.067,19.597
						c2.687,7.665,3.549,19.891,1.128,31.816c-1.702,8.089-2.981,15.064-4.547,20.028c-2.845,8.512-6.25,13.347-8.8,17.176
						c-2.27,3.548-9.382,8.95-13.778,11.651c-2.133,1.265-4.116,2.838-6.961,3.98c-2.845,1.279-6.537,2.119-10.933,3.125
						c-4.116,0.991-9.518,1.983-14.058,2.27c-3.973,0.28-7.378,0.136-8.815,0.136c-1.982,0-8.8-1.142-17.88-5.955
						c-5.114-2.701-10.516-5.84-16.615-11.925c-1.854-1.997-3.549-4.403-4.971-6.393c-13.491-18.462-8.52-39.057-8.52-39.057
						s2.407-27.836,26.831-35.788c8.67-2.695,16.199-2.845,22.592-2.127c10.653,1.416,18.462,5.827,23.713,8.52
						c5.402,2.83,9.375,7.385,11.508,12.362c2.126,4.541,2.55,9.367,2.407,13.341c-0.137,2.42-0.137,5.395-0.704,8.527
						c-1.416,7.938-4.26,15.897-11.228,21.852l-2.134,1.429c-1.279,0.855-2.406,1.423-3.405,1.983
						c-5.955,3.132-11.795,4.267-19.884,4.691c-2.988-0.144-7.378-0.718-9.798-1.99c-9.662-4.684-14.906-13.218-14.49-24.417
						c0.424-10.509,10.23-16.048,11.925-17.607C-22.298-4.396-0.575-9.928,0,0"/>
				</g>
			</g>
		</g>
	</g>
</g>
</svg>
