<?xml version="1.0" encoding="utf-8"?>
<!-- Generator: Adobe Illustrator 19.0.0, SVG Export Plug-In . SVG Version: 6.00 Build 0)  -->
<svg version="1.1" baseProfile="tiny" id="Layer_1" xmlns="http://www.w3.org/2000/svg" xmlns:xlink="http://www.w3.org/1999/xlink"
	 x="0px" y="0px" viewBox="0 0 549 342.6" xml:space="preserve">
<path fill="#181515" d="M1020.6,444.1"/>
<g>
	<rect x="0" fill="#2D2A2A" width="549" height="342.6"/>
	<polygon fill="#231E1E" points="20,0 20,214.3 9,234.4 9,342.6 0,342.6 0,0 	"/>
	<polygon fill="#231E1E" points="529,0 528.9,214.1 540,234.4 540,342.6 549,342.6 549,0 	"/>
	<path fill="#181515" d="M239.6,221.7H29.2c-4.6,0-8.4-3.3-9.1-7.7L9,234.4c3.3,4.3,9.7,7.3,14.5,5.8c5.7-1.8,8.3-7,8.3-14.5H142
		l0,0.2c0.1,7.1,2.6,12,8.3,13.8h89.3c15.5-0.3,18.3,1.7,26.7,10.9c22.6,26.8,60.5,44.4,103.4,44.4c43,0,80.9-17.6,103.4-44.4
		c5.4-6.4,6.6-9.3,15-10.1c10.3-0.9,48,0,51.9-6.1c0,0-11.1-20.3-11.1-20.3c-0.8,4.3-4.6,7.7-9.1,7.7c-11.6,0.7-26.8-0.3-29.4,3.4
		c-16,22.2-54.9,62.2-119.2,62.2s-90.5-29.4-116.4-57.1C249.1,223.5,248.4,221.5,239.6,221.7"/>
	<path fill="#312F2F" d="M519.6,221.8c-11.6,0.7-29.6-0.3-32.2,3.4c-16,22.2-52.2,62.2-116.6,62.2s-90.6-29.4-116.6-57.1
		c-5.7-6.7-6.4-8.7-15.2-8.5l0,0H28.3c-5.1,0-9.3-4.2-9.3-9.3V0h509.9v212.5C528.9,217.6,524.7,221.7,519.6,221.8"/>
	<path fill="none" stroke="#D6D5D5" stroke-miterlimit="10" d="M528.8,217.1"/>
	<path fill="#181515" d="M36.2,317.5l-10.9-78c3.2-1.6,5.2-4.5,6.1-8.5L36.2,317.5z"/>
	<path fill="#181515" d="M138.7,317.5l3.3-91.6c0.1,7.1,2.6,12,8.3,13.8L138.7,317.5z"/>
	<g>
		<rect x="49.9" y="243.5" width="19.3" height="69.5"/>
		<rect x="50.6" y="244.2" fill="#1B1818" width="6.5" height="68.9"/>
		<rect x="61.9" y="244.2" fill="#1B1818" width="6.5" height="68.9"/>
		<g>
			<rect x="52.4" y="248" fill="#2B2828" width="14.2" height="6.9"/>
			<rect x="52.4" y="262.4" fill="#3C3B3B" width="14.2" height="0.4"/>
			<rect x="52.4" y="267.2" fill="#3F3F3E" width="14.2" height="10.1"/>
			<rect x="52.4" y="254.9" fill="#333030" width="14.2" height="7.5"/>
			<rect x="52.4" y="249.1" fill="#5D1314" width="14.2" height="0.8"/>
			<rect x="52.4" y="262.9" fill="#414040" width="14.2" height="0.9"/>
			<rect x="52.4" y="263.7" fill="#464646" width="14.2" height="0.4"/>
			<rect x="52.4" y="264.2" fill="#535353" width="14.2" height="0.4"/>
			<rect x="52.4" y="264.6" fill="#5F5F5F" width="14.2" height="0.4"/>
			<rect x="52.4" y="265" fill="#6A6A6A" width="14.2" height="0.4"/>
			<rect x="52.4" y="265.5" fill="#707070" width="14.2" height="0.4"/>
			<rect x="52.4" y="265.9" fill="#6A6969" width="14.2" height="0.4"/>
			<rect x="52.4" y="266.4" fill="#5A5A5A" width="14.2" height="0.4"/>
			<rect x="52.4" y="266.8" fill="#484848" width="14.2" height="0.4"/>
		</g>
		<polygon fill="#0D0D0C" points="69.1,243.5 49.9,243.5 47.4,239.8 71.6,239.8 		"/>
		<polygon fill="#4E4B4A" points="69.1,313.1 49.9,313.1 47.4,316.8 71.6,316.8 		"/>
		<polygon fill="#211E1D" points="49.9,313.1 47.4,316.8 47.4,239.8 49.9,243.5 		"/>
		<polygon fill="#211E1D" points="69.1,313.1 71.6,316.8 71.6,239.8 69.1,243.5 		"/>
	</g>
	<g>
		<path fill="none" stroke="#5D1314" stroke-miterlimit="10" d="M116.6,248.1"/>
		<path fill="none" stroke="#5D1314" stroke-miterlimit="10" d="M116.6,255.8"/>
		<path fill="none" stroke="#5D1314" stroke-miterlimit="10" d="M127.3,255.8"/>
		<g>
			<rect x="100.3" y="248" fill="#414748" width="9.2" height="7.6"/>
			<polygon fill="#262323" points="109.5,248 100.3,248 89.7,243.8 120.1,243.8 			"/>
			<polygon fill="#33302F" points="100.3,255.6 89.7,259.7 89.7,243.8 100.3,248 			"/>
			<polygon fill="#262323" points="109.5,255.6 100.3,255.6 89.7,259.7 120.1,259.7 			"/>
			<path fill="#5D1314" d="M105,257.8L105,257.8c-0.3,0-0.5-0.2-0.5-0.4v-11.2c0-0.2,0.2-0.4,0.4-0.4h0.1c0.2,0,0.4,0.2,0.4,0.4
				v11.2C105.3,257.6,105.2,257.8,105,257.8z"/>
			<polygon fill="#33302F" points="109.5,255.6 120.1,259.7 120.1,243.8 109.5,248 			"/>
		</g>
		<rect x="120.1" y="243.8" fill="#282828" width="7.7" height="15.9"/>
		<polygon fill="#0D0D0C" points="127.8,243.8 89.7,243.8 86.9,241.1 130.7,241.1 		"/>
		<polygon fill="#4E4B4A" points="127.8,259.7 89.7,259.7 86.9,262.5 130.7,262.5 		"/>
		<polygon fill="#211E1D" points="86.9,262.5 89.7,259.7 89.7,243.8 86.9,241.1 		"/>
		<polygon fill="#211E1D" points="130.7,262.5 127.8,259.7 127.8,243.8 130.7,241.1 		"/>
		<g>
			<path fill="#C4C4C4" d="M86.3,265.9c0-0.4,0.1-0.8,0.2-1.1c0.1-0.2,0.2-0.4,0.4-0.6s0.4-0.3,0.6-0.4c0.3-0.1,0.6-0.2,0.9-0.2
				c0.6,0,1.1,0.2,1.5,0.6s0.6,0.9,0.6,1.6c0,0.7-0.2,1.2-0.6,1.6s-0.9,0.6-1.5,0.6c-0.6,0-1.1-0.2-1.5-0.6
				C86.5,267.1,86.3,266.6,86.3,265.9z M87.2,265.8c0,0.5,0.1,0.9,0.3,1.1c0.2,0.3,0.5,0.4,0.9,0.4s0.6-0.1,0.9-0.4
				c0.2-0.3,0.3-0.6,0.3-1.1c0-0.5-0.1-0.9-0.3-1.1s-0.5-0.4-0.9-0.4s-0.6,0.1-0.9,0.4C87.3,265,87.2,265.4,87.2,265.8z"/>
			<path fill="#C4C4C4" d="M91.2,268v-4.3H92l1.8,2.9v-2.9h0.8v4.3h-0.9l-1.7-2.8v2.8H91.2z"/>
		</g>
		<g>
			<path fill="#C4C4C4" d="M119.3,265.9c0-0.4,0.1-0.8,0.2-1.1c0.1-0.2,0.2-0.4,0.4-0.6s0.4-0.3,0.6-0.4c0.3-0.1,0.6-0.2,0.9-0.2
				c0.6,0,1.1,0.2,1.5,0.6s0.6,0.9,0.6,1.6c0,0.7-0.2,1.2-0.6,1.6s-0.9,0.6-1.5,0.6c-0.6,0-1.1-0.2-1.5-0.6
				C119.5,267.1,119.3,266.6,119.3,265.9z M120.2,265.8c0,0.5,0.1,0.9,0.3,1.1c0.2,0.3,0.5,0.4,0.9,0.4s0.6-0.1,0.9-0.4
				c0.2-0.3,0.3-0.6,0.3-1.1c0-0.5-0.1-0.9-0.3-1.1s-0.5-0.4-0.9-0.4s-0.6,0.1-0.9,0.4C120.3,265,120.2,265.4,120.2,265.8z"/>
			<path fill="#C4C4C4" d="M124.2,268v-4.3h2.9v0.7h-2.1v1h1.8v0.7h-1.8v1.8H124.2z"/>
			<path fill="#C4C4C4" d="M127.9,268v-4.3h2.9v0.7h-2.1v1h1.8v0.7h-1.8v1.8H127.9z"/>
		</g>
	</g>
	<g>
		<g>
			<rect x="42.6" y="246.2" fill="#C4C4C4" width="2.9" height="1"/>
			<rect x="42.6" y="249.6" fill="#C4C4C4" width="2.9" height="1"/>
			<rect x="42.6" y="253" fill="#C4C4C4" width="2.9" height="1"/>
			<rect x="42.6" y="255.9" fill="#C4C4C4" width="2.9" height="1"/>
			<rect x="42.6" y="259.3" fill="#C4C4C4" width="2.9" height="1"/>
			<rect x="42.6" y="262.7" fill="#C4C4C4" width="2.9" height="1"/>
			<rect x="42.5" y="266" fill="#C4C4C4" width="2.9" height="1"/>
			<rect x="42.6" y="269.2" fill="#C4C4C4" width="2.9" height="1"/>
			<rect x="42.6" y="272.4" fill="#C4C4C4" width="2.9" height="1"/>
			<rect x="42.6" y="275.7" fill="#C4C4C4" width="2.9" height="1"/>
			<rect x="42.6" y="279.1" fill="#C4C4C4" width="2.9" height="1"/>
		</g>
		<g>
			<path fill="#C4C4C4" d="M38.7,248.4H38v-2.6c-0.3,0.2-0.5,0.4-0.9,0.5v-0.6c0.2-0.1,0.4-0.2,0.6-0.3c0.2-0.2,0.4-0.4,0.4-0.6h0.6
				V248.4z"/>
			<path fill="#C4C4C4" d="M40.9,244.8c0.3,0,0.6,0.1,0.8,0.4c0.2,0.3,0.3,0.8,0.3,1.5s-0.1,1.2-0.4,1.5c-0.2,0.2-0.5,0.4-0.8,0.4
				c-0.3,0-0.6-0.1-0.8-0.4s-0.3-0.7-0.3-1.4c0-0.7,0.1-1.2,0.4-1.5C40.2,244.9,40.5,244.8,40.9,244.8z M40.9,245.4
				c-0.1,0-0.2,0-0.2,0.1s-0.1,0.1-0.2,0.3c0,0.2-0.1,0.5-0.1,0.9s0,0.7,0.1,0.9s0.1,0.3,0.2,0.3c0.1,0.1,0.1,0.1,0.2,0.1
				s0.2,0,0.2-0.1s0.1-0.1,0.2-0.3c0-0.2,0.1-0.5,0.1-0.9s0-0.7-0.1-0.9s-0.1-0.3-0.2-0.3C41,245.4,40.9,245.4,40.9,245.4z"/>
		</g>
		<g>
			<path fill="#C4C4C4" d="M39.6,263.9l0.7-0.1c0,0.2,0.1,0.3,0.2,0.4c0.1,0.1,0.2,0.1,0.3,0.1c0.1,0,0.3-0.1,0.4-0.2
				s0.1-0.3,0.1-0.5c0-0.2,0-0.4-0.1-0.5c-0.1-0.1-0.2-0.2-0.4-0.2c-0.2,0-0.4,0.1-0.5,0.3l-0.6-0.1l0.4-1.9h1.8v0.6h-1.3l-0.1,0.6
				c0.2-0.1,0.3-0.1,0.5-0.1c0.3,0,0.6,0.1,0.8,0.3c0.2,0.2,0.3,0.5,0.3,0.9c0,0.3-0.1,0.6-0.3,0.8c-0.2,0.3-0.6,0.5-1,0.5
				c-0.3,0-0.6-0.1-0.8-0.3S39.6,264.2,39.6,263.9z"/>
		</g>
		<g>
			<path fill="#C4C4C4" d="M40.7,277.8c0.3,0,0.6,0.1,0.8,0.4c0.2,0.3,0.3,0.8,0.3,1.5s-0.1,1.2-0.4,1.5c-0.2,0.2-0.5,0.4-0.8,0.4
				c-0.3,0-0.6-0.1-0.8-0.4s-0.3-0.7-0.3-1.4c0-0.7,0.1-1.2,0.4-1.5C40.1,277.9,40.4,277.8,40.7,277.8z M40.7,278.3
				c-0.1,0-0.2,0-0.2,0.1s-0.1,0.1-0.2,0.3c0,0.2-0.1,0.5-0.1,0.9s0,0.7,0.1,0.9s0.1,0.3,0.2,0.3c0.1,0.1,0.1,0.1,0.2,0.1
				s0.2,0,0.2-0.1s0.1-0.1,0.2-0.3c0-0.2,0.1-0.5,0.1-0.9s0-0.7-0.1-0.9s-0.1-0.3-0.2-0.3C40.9,278.4,40.8,278.3,40.7,278.3z"/>
		</g>
	</g>
	<path fill="#1E1B1B" d="M70.5,41H0v157.9h70.5c3.3,0,6-2.7,6-6V47C76.5,43.7,73.8,41,70.5,41z"/>
	<g>
		<path fill="#070606" d="M71.5,52.3H0l0-6.2h71.5c0.5,0,0.9,0.4,0.9,0.9v4.3C72.4,51.9,72,52.3,71.5,52.3z"/>
		<path fill="#282424" d="M71.1,51.2H19v-6h52.1c0.5,0,0.9,0.4,0.9,0.9v4.1C72.1,50.8,71.7,51.2,71.1,51.2z"/>
		<rect x="0" y="45.2" fill="#1E1B1B" width="19" height="6"/>
		<rect x="0" y="45.2" fill="#252222" width="19" height="0.9"/>
		<path fill="#3C3939" d="M72.1,46.1H19v-0.9h52.1C71.7,45.2,72.1,45.6,72.1,46.1L72.1,46.1z"/>
	</g>
	<path fill="none" stroke="#D6D5D5" stroke-miterlimit="10" d="M469.4,242.9"/>
	<path fill="none" stroke="#D6D5D5" stroke-miterlimit="10" d="M366.1,269.4"/>
	<ellipse fill="#1B1818" cx="370.8" cy="143.7" rx="140.5" ry="141"/>
	<ellipse fill="#2C2929" cx="370.2" cy="140.5" rx="121.2" ry="116.7"/>
	<g>
		<polygon id="polygon9" fill="#D2D2D2" points="277.5,151.7 288.9,158.4 451.5,158.4 462.9,151.7 462.9,137 452.1,130.6 
			398.6,130.6 388.9,116.8 350.5,116.8 350.5,116.8 341,130.6 288.2,130.6 277.5,136.9 		"/>
		<g>
			<path id="path11" fill="#1B1D1F" d="M362.7,127.3c0,0.7,0.6,1.3,1.3,1.3h5.2V127h-4.9v-0.5h3.9v-1.6h-5.5L362.7,127.3
				L362.7,127.3L362.7,127.3z"/>
			<path id="path13" fill="#1B1D1F" d="M362.7,122c0-0.7,0.6-1.3,1.3-1.3h5.2v1.6h-4.9v0.5h3.9v1.6h-5.5L362.7,122L362.7,122
				L362.7,122z"/>
			<polygon id="polygon15" fill="#1B1D1F" points="397.6,142.6 414.2,142.6 414.2,149.3 408.3,153.4 390,153.4 396,149.3 
				406.8,149.3 406.8,146.7 390.2,146.7 390.2,140.2 396.3,136 396.3,136 414.6,136 408.5,140.1 397.6,140.1 			"/>
			<polygon id="polygon17" fill="#1B1D1F" points="416.5,136 416.5,136 424,136 424,153.4 416.5,153.4 			"/>
			<polygon id="polygon19" fill="#1B1D1F" points="434.3,142.6 450.9,142.6 450.9,149.3 444.9,153.4 426.6,153.4 432.7,149.3 
				443.4,149.3 443.4,146.7 426.8,146.7 426.8,140.2 433,136 433,136 451.2,136 445.2,140.1 434.3,140.1 			"/>
			<polygon id="polygon21" fill="#1B1D1F" points="374,149.3 374,146.7 381.2,146.7 387.2,142.6 374,142.6 374,140.1 384.8,140.1 
				390.8,136 373.1,136 366.6,140 366.6,140 366.6,153.4 384.6,153.4 390.7,149.3 			"/>
			<polygon id="polygon23" fill="#1B1D1F" points="321.9,149.3 321.9,146.7 329.1,146.7 335.1,142.6 321.9,142.6 321.9,140.1 
				332.7,140.1 338.7,136 321,136 314.5,140 314.5,140 314.5,153.4 332.5,153.4 338.6,149.3 			"/>
			<polygon id="polygon25" fill="#1B1D1F" points="357.1,147.6 347.8,141.8 347.8,153.4 340.4,153.4 340.4,136 347.9,136 
				357.1,141.1 357.1,136 357.1,136 364.5,136 364.5,153.4 357.1,153.4 			"/>
			<polygon id="polygon27" fill="#1B1D1F" points="295.9,140.1 295.9,149.3 305.1,149.3 305.1,146.7 297.5,146.7 303.6,142.6 
				312.6,142.6 312.6,149.5 306.9,153.4 288.4,153.4 288.4,140.2 288.4,140.2 294.6,136 314.8,136 308.8,140.1 			"/>
			<path id="path29" fill="#1B1D1F" d="M363.7,118.5c-1.8,0-3.2,1.5-3.2,3.3v5.7c0,1.8,1.4,3.3,3.2,3.3h5.4v-1.6h-5.3
				c-0.9,0-1.8-0.9-1.8-1.8V122c0-0.9,0.8-1.8,1.8-1.8h5.3v-1.6L363.7,118.5L363.7,118.5L363.7,118.5z"/>
			<path id="path31" fill="#1B1D1F" d="M374,127v-4.7h5.2v-1.6h-5.5c-0.7,0-1.3,0.6-1.3,1.3l0,5.3c0,0.7,0.6,1.3,1.3,1.3h3.3l0-3.7
				h-2.5v1.6h0.9v0.5L374,127L374,127L374,127z"/>
			<path id="path33" fill="#1B1D1F" d="M359,118.5h-5.2c-2.2,0-4,1.8-4,4c0,2.2,1.8,4,4,3.9h1.6v0.5h-5.5v1.6h5.3
				c1,0,1.8-0.8,1.8-1.8c0-1-0.8-1.8-1.8-1.8l-1.4,0c-1.3,0-2.4-1.1-2.4-2.4c0-1.3,1.1-2.4,2.4-2.4h5.2L359,118.5L359,118.5z"/>
			<path id="path35" fill="#1B1D1F" d="M359,122.3h-5.4v0.5l1.6,0c2.2,0,4,1.8,4,4c0,2.2-1.8,4-4,4l-5.3,0v-1.6h5.3
				c1.3,0,2.4-1.1,2.4-2.4c0-1.3-1.1-2.4-2.4-2.4l-1.4,0c-1,0-1.8-0.8-1.8-1.8c0-1,0.8-1.8,1.8-1.8h5.2L359,122.3L359,122.3
				L359,122.3z"/>
			<path id="path37" fill="#1B1D1F" d="M385.2,120.4c-0.1-0.2-0.1-0.2-0.3-0.2s-0.2,0.1-0.3,0.2l-3.3,10.3l1.7,0l1.9-5.7l0.6,1.9
				h-1.2v1.6h3.5L385.2,120.4L385.2,120.4z"/>
			<path id="path39" fill="#1B1D1F" d="M373.5,130.7c-1.8,0-3.2-1.5-3.2-3.3v-5.7c0-1.8,1.4-3.3,3.2-3.3h5.6v1.6h-5.5
				c-0.9,0-1.8,0.9-1.8,1.8v5.3c0,0.9,0.8,1.8,1.8,1.8h3.9v-4.8h-3v-1.6h4.6v7.6l3.3-10.4c0.4-1,1.3-1.8,2.5-1.8
				c1.2,0,2.1,0.8,2.5,1.8l3.4,10.7h-6.5v-1.6h4.2l-2.9-8.9c-0.2-0.5-0.5-0.5-0.8-0.5c-0.3,0-0.6,0.1-0.8,0.6l-3.4,10.5L373.5,130.7
				L373.5,130.7L373.5,130.7z"/>
		</g>
	</g>
	<g>
		<g>
			<path fill="#E0E0E0" d="M294.1,43.2c-0.6,0.4-0.8,0.6-1.4,1c-0.9-1.1-1.4-1.6-2.2-2.7c-1.3,0.9-1.9,1.4-3.2,2.4
				c0.9,1.1,1.4,1.6,2.3,2.6c-0.5,0.4-0.8,0.6-1.3,1.1c-2.1-2.4-3.2-3.5-5.4-5.9c0.6-0.5,0.9-0.7,1.4-1.1c0.8,0.9,1.2,1.4,2,2.3
				c1.3-1,1.9-1.5,3.2-2.4c-0.8-0.9-1.2-1.4-2-2.4c0.6-0.4,0.9-0.6,1.5-1.1C291.1,39.5,292.1,40.7,294.1,43.2z"/>
			<path fill="#E0E0E0" d="M297.3,41c-0.6,0.4-0.8,0.6-1.4,0.9c-1.9-2.5-2.9-3.8-4.9-6.3c0.6-0.4,0.9-0.6,1.5-1
				C294.4,37.2,295.4,38.4,297.3,41z"/>
			<path fill="#E0E0E0" d="M302.5,37.8c-0.6,0.3-1.1,0.6-1.7,0.7c-0.6,0.1-1.1,0.1-1.7,0.1c-0.5-0.1-1-0.3-1.5-0.6
				c-0.5-0.3-0.9-0.7-1.3-1.2c-0.4-0.5-0.6-1-0.7-1.5c-0.1-0.5-0.1-1,0-1.5c0.1-0.5,0.4-1,0.8-1.4c0.4-0.5,0.9-0.9,1.4-1.2
				c0.5-0.3,1-0.5,1.5-0.6c0.5-0.1,1-0.2,1.4-0.2c0.5,0,0.9,0.1,1.3,0.3c0.4,0.2,0.7,0.4,1,0.8c-0.6,0.3-0.9,0.5-1.6,0.9
				c-0.2-0.2-0.3-0.3-0.5-0.4c-0.2-0.1-0.4-0.2-0.7-0.2c-0.2,0-0.5,0-0.8,0.1c-0.3,0.1-0.6,0.2-0.9,0.4c-0.4,0.2-0.6,0.5-0.9,0.7
				c-0.2,0.3-0.4,0.6-0.4,0.9c-0.1,0.3-0.1,0.7,0,1c0.1,0.3,0.3,0.7,0.5,1.1c0.3,0.4,0.5,0.6,0.8,0.8s0.6,0.3,1,0.4
				c0.3,0.1,0.7,0.1,1,0c0.4-0.1,0.7-0.2,1-0.4c0.5-0.3,0.9-0.6,1.1-0.9c0.3-0.3,0.4-0.7,0.5-1.1c-0.2-0.3-0.3-0.4-0.5-0.7
				c-0.8,0.5-1.2,0.7-2,1.2c-0.3-0.4-0.5-0.7-0.8-1.1c1.4-0.8,2.1-1.2,3.5-2c0.9,1.4,1.4,2.2,2.3,3.6c-0.5,0.3-0.7,0.4-1.1,0.6
				c-0.2-0.1-0.3-0.2-0.5-0.4c-0.1,0.3-0.4,0.7-0.7,1C303.3,37.3,303,37.6,302.5,37.8z"/>
			<path fill="#E0E0E0" d="M314.1,31.5c-0.6,0.3-0.9,0.4-1.5,0.7c-0.7-1.2-1-1.8-1.7-3c-1.4,0.7-2.1,1-3.5,1.8
				c0.7,1.2,1.1,1.8,1.8,3c-0.6,0.3-0.9,0.5-1.5,0.8c-1.6-2.7-2.5-4-4.1-6.7c0.6-0.3,0.9-0.5,1.6-0.8c0.6,1,0.9,1.6,1.5,2.6
				c1.4-0.7,2.1-1.1,3.6-1.8c-0.6-1.1-0.9-1.6-1.5-2.7c0.6-0.3,1-0.5,1.6-0.8C311.9,27.4,312.6,28.8,314.1,31.5z"/>
			<path fill="#E0E0E0" d="M324.8,22.9c1,2.4,0,4.1-2.8,5.2c-1.1,0.4-1.6,0.6-2.7,1.1c-1.3-2.8-2-4.2-3.4-7.1
				c1.2-0.5,1.7-0.7,2.9-1.2C321.8,19.9,323.8,20.5,324.8,22.9z M323.1,23.5c-0.2-0.4-0.3-0.7-0.5-0.9c-0.2-0.3-0.5-0.4-0.8-0.6
				c-0.3-0.1-0.7-0.2-1.1-0.1c-0.4,0-0.9,0.2-1.4,0.4c-0.5,0.2-0.7,0.3-1.2,0.5c0.9,1.9,1.3,2.8,2.1,4.7c0.5-0.2,0.7-0.3,1.2-0.5
				c0.5-0.2,0.9-0.4,1.2-0.7c0.3-0.2,0.5-0.5,0.6-0.8c0.1-0.3,0.2-0.6,0.1-0.9C323.4,24.3,323.3,23.9,323.1,23.5z"/>
			<path fill="#E0E0E0" d="M334.4,24c-2.6,0.7-3.9,1.1-6.5,2c-1.1-2.9-1.7-4.4-2.8-7.3c2.7-0.9,4-1.3,6.7-2.1
				c0.2,0.5,0.2,0.8,0.4,1.3c-2,0.6-3,0.9-5,1.5c0.2,0.7,0.4,1,0.6,1.7c1.8-0.6,2.7-0.9,4.6-1.4c0.2,0.5,0.2,0.8,0.4,1.3
				c-1.8,0.5-2.7,0.8-4.5,1.4c0.3,0.8,0.4,1.1,0.7,1.9c2-0.6,3-0.9,5-1.5C334.1,23.3,334.2,23.5,334.4,24z"/>
			<path fill="#E0E0E0" d="M340.5,15.9c-1.9,0.4-2.8,0.6-4.7,1.1c0.2,0.7,0.3,1,0.5,1.7c1.6-0.4,2.4-0.6,4-0.9
				c0.1,0.5,0.2,0.8,0.3,1.3c-1.6,0.4-2.4,0.5-3.9,0.9c0.4,1.3,0.6,1.9,0.9,3.2c-0.6,0.2-1,0.2-1.6,0.4c-0.9-3-1.4-4.5-2.3-7.4
				c2.5-0.7,3.8-1,6.4-1.5C340.4,15.1,340.4,15.4,340.5,15.9z"/>
			<path fill="#E0E0E0" d="M345.4,21.4c-0.6,0.1-1,0.2-1.6,0.3c-0.7-3-1.1-4.5-1.8-7.6c0.7-0.1,1-0.2,1.7-0.3
				C344.4,16.9,344.7,18.4,345.4,21.4z"/>
			<path fill="#E0E0E0" d="M354.4,20c-0.6,0.1-0.9,0.1-1.5,0.2c-1.9-1.8-2.9-2.7-4.9-4.5c0.4,2,0.6,3.1,1,5.1
				c-0.6,0.1-0.9,0.2-1.6,0.3c-0.6-3-0.9-4.6-1.5-7.6c0.7-0.1,1-0.2,1.6-0.3c2,1.8,3,2.7,4.9,4.5c-0.3-2.1-0.5-3.1-0.8-5.1
				c0.7-0.1,1-0.1,1.7-0.2C353.7,15.4,354,17,354.4,20z"/>
			<path fill="#E0E0E0" d="M358.2,19.6c-0.7,0.1-1,0.1-1.6,0.2c-0.4-3.1-0.6-4.6-0.9-7.7c0.7-0.1,1-0.1,1.7-0.2
				C357.7,15,357.8,16.6,358.2,19.6z"/>
			<path fill="#E0E0E0" d="M366.4,12.7c-1.2,0-1.7,0.1-2.9,0.1c0.2,2.6,0.2,3.8,0.4,6.4c-0.7,0-1,0.1-1.7,0.1
				c-0.2-2.6-0.3-3.8-0.5-6.4c-1.2,0.1-1.7,0.1-2.9,0.2c-0.1-0.5-0.1-0.8-0.1-1.3c3-0.3,4.6-0.3,7.6-0.4
				C366.3,11.9,366.3,12.2,366.4,12.7z"/>
			<path fill="#E0E0E0" d="M369.7,19.1c-0.7,0-1,0-1.6,0c-0.1-3.1-0.1-4.6-0.2-7.7c0.7,0,1.1,0,1.8,0
				C369.6,14.4,369.6,16,369.7,19.1z"/>
			<path fill="#E0E0E0" d="M375.8,11.3c0.7,0,1.3,0.1,1.8,0.4c0.5,0.2,1,0.5,1.4,0.9c0.4,0.4,0.7,0.8,0.8,1.3s0.3,1.1,0.2,1.7
				c0,0.6-0.2,1.1-0.4,1.6c-0.2,0.5-0.6,0.9-1,1.2s-0.9,0.6-1.4,0.7c-0.5,0.2-1.1,0.2-1.7,0.2s-1.2-0.1-1.7-0.3
				c-0.5-0.2-1-0.5-1.3-0.8c-0.4-0.4-0.7-0.8-0.9-1.3c-0.2-0.5-0.3-1-0.3-1.6c0-0.6,0.1-1.1,0.3-1.6c0.2-0.5,0.5-0.9,0.9-1.3
				c0.4-0.3,0.9-0.6,1.4-0.8C374.6,11.3,375.2,11.2,375.8,11.3z M375.6,18c0.4,0,0.7,0,1.1-0.1c0.3-0.1,0.6-0.3,0.9-0.5
				c0.2-0.2,0.4-0.5,0.6-0.8c0.1-0.3,0.2-0.7,0.3-1.1c0-0.4,0-0.8-0.1-1.2c-0.1-0.3-0.3-0.6-0.5-0.9c-0.2-0.2-0.5-0.4-0.8-0.6
				c-0.3-0.1-0.7-0.2-1.1-0.2c-0.4,0-0.8,0-1.1,0.2c-0.3,0.1-0.6,0.3-0.9,0.5c-0.2,0.2-0.4,0.5-0.6,0.8c-0.1,0.3-0.2,0.7-0.2,1.1
				c0,0.4,0.1,0.8,0.2,1.1c0.1,0.3,0.3,0.6,0.5,0.9c0.2,0.2,0.5,0.4,0.8,0.6C374.9,17.9,375.2,18,375.6,18z"/>
			<path fill="#E0E0E0" d="M388.6,20.2c-0.6-0.1-0.9-0.1-1.5-0.2c-1.3-2.2-2-3.4-3.4-5.6c-0.2,2.1-0.3,3.1-0.5,5.2
				c-0.6-0.1-1-0.1-1.6-0.1c0.3-3.1,0.4-4.6,0.7-7.7c0.7,0.1,1,0.1,1.7,0.1c1.5,2.2,2.1,3.3,3.5,5.6c0.3-2.1,0.4-3.1,0.7-5.1
				c0.7,0.1,1,0.1,1.7,0.2C389.3,15.6,389,17.1,388.6,20.2z"/>
			<path fill="#E0E0E0" d="M397.9,21.9c-0.6-0.1-1.2-0.3-1.7-0.6c-0.5-0.3-0.9-0.6-1.2-1c-0.3-0.4-0.5-0.9-0.6-1.4
				c-0.1-0.5-0.1-1.1,0-1.7c0.1-0.6,0.3-1.1,0.6-1.6c0.3-0.4,0.7-0.8,1.2-1.1c0.5-0.3,1-0.4,1.6-0.5c0.6-0.1,1.2-0.1,1.9,0.1
				c0.6,0.1,1.1,0.3,1.5,0.5c0.4,0.2,0.8,0.5,1.1,0.8c0.3,0.3,0.5,0.7,0.6,1.1c0.1,0.4,0.2,0.8,0.1,1.2c-0.7-0.2-1-0.2-1.7-0.4
				c0-0.2,0-0.5-0.1-0.7c-0.1-0.2-0.2-0.4-0.3-0.6c-0.2-0.2-0.4-0.3-0.6-0.4s-0.6-0.2-0.9-0.3c-0.4-0.1-0.8-0.1-1.1,0
				c-0.4,0.1-0.7,0.2-1,0.3c-0.3,0.2-0.5,0.4-0.7,0.7s-0.3,0.7-0.4,1.1c-0.1,0.4-0.1,0.8,0,1.2s0.2,0.7,0.4,0.9
				c0.2,0.3,0.4,0.5,0.7,0.7c0.3,0.2,0.6,0.3,1,0.4c0.5,0.1,1,0.1,1.4,0.1c0.4-0.1,0.8-0.2,1.1-0.4c0.1-0.3,0.1-0.5,0.2-0.8
				c-0.9-0.2-1.3-0.3-2.2-0.5c0.1-0.5,0.2-0.8,0.3-1.3c1.6,0.3,2.3,0.5,3.9,0.9c-0.4,1.6-0.7,2.4-1.1,4.1c-0.5-0.1-0.7-0.2-1.2-0.3
				c0-0.2,0-0.4-0.1-0.6c-0.4,0.2-0.8,0.2-1.2,0.3C398.9,22,398.5,22,397.9,21.9z"/>
			<path fill="#E0E0E0" d="M411.1,25.1c-0.7-0.2-1-0.3-1.7-0.5c-0.1-0.9-0.1-1.3-0.1-2.3c0-0.2-0.1-0.3-0.1-0.5
				c-0.1-0.1-0.1-0.3-0.2-0.4c-0.1-0.1-0.2-0.2-0.4-0.3c-0.1-0.1-0.3-0.2-0.5-0.2c-0.7-0.2-1.1-0.3-1.8-0.5c-0.4,1.2-0.5,1.8-0.9,3
				c-0.6-0.2-1-0.3-1.6-0.4c0.9-3,1.3-4.5,2.1-7.5c1.6,0.4,2.5,0.6,4.1,1.1c0.2,0.1,0.5,0.1,0.7,0.2c0.2,0.1,0.4,0.2,0.6,0.2
				c0.2,0.1,0.4,0.2,0.5,0.3c0.2,0.1,0.3,0.3,0.4,0.4c0.1,0.1,0.2,0.3,0.3,0.5c0.1,0.2,0.1,0.3,0.1,0.5c0,0.2,0,0.3,0,0.5
				c0,0.2-0.1,0.3-0.1,0.5c-0.2,0.4-0.4,0.8-0.8,1s-0.8,0.4-1.3,0.4c0.3,0.4,0.5,0.8,0.5,1.4C411,23.7,411.1,24.2,411.1,25.1z
				 M406.7,19.2c0.9,0.2,1.3,0.4,2.2,0.6c0.3,0.1,0.6,0.1,0.8,0.2c0.2,0,0.4,0,0.6,0c0.2,0,0.3-0.1,0.4-0.2c0.1-0.1,0.2-0.3,0.2-0.4
				c0.1-0.3,0.1-0.6-0.1-0.8c-0.2-0.2-0.6-0.4-1.1-0.6c-1-0.3-1.4-0.4-2.4-0.7C407,18,406.9,18.4,406.7,19.2z"/>
			<path fill="#E0E0E0" d="M419.8,28.2c-0.7-0.3-1-0.4-1.7-0.7c0-1,0-1.4-0.1-2.4c-1.2-0.4-1.8-0.6-3-1.1c-0.7,0.7-1,1.1-1.7,1.8
				c-0.7-0.2-1-0.3-1.7-0.5c2.4-2.5,3.6-3.8,6.1-6.2c0.6,0.2,1,0.3,1.6,0.6C419.6,23.1,419.7,24.8,419.8,28.2z M417.9,23.8
				c0-1.1-0.1-1.6-0.1-2.7c-0.8,0.8-1.2,1.2-1.9,2C416.7,23.3,417.1,23.5,417.9,23.8z"/>
			<path fill="#E0E0E0" d="M423.9,21.4c1.4,0.5,2,0.8,3.4,1.4c0.3,0.1,0.6,0.3,0.9,0.4c0.3,0.2,0.5,0.3,0.7,0.5
				c0.2,0.2,0.4,0.4,0.6,0.6c0.2,0.2,0.3,0.4,0.3,0.6s0.1,0.5,0.1,0.7c0,0.3-0.1,0.5-0.3,0.8c-0.4,0.7-1,1.2-1.7,1.3
				c-0.7,0.1-1.6,0-2.7-0.5c-0.7-0.3-1-0.4-1.7-0.7c-0.5,1.1-0.8,1.6-1.3,2.7c-0.6-0.3-0.9-0.4-1.5-0.6
				C422,25.7,422.6,24.3,423.9,21.4z M424.1,25.3c0.7,0.3,1.1,0.4,1.8,0.7c0.3,0.1,0.5,0.2,0.8,0.3c0.2,0,0.4,0.1,0.6,0
				c0.2,0,0.3-0.1,0.4-0.2c0.1-0.1,0.2-0.2,0.3-0.4c0.1-0.2,0.1-0.4,0.1-0.5c0-0.2-0.1-0.3-0.2-0.4c-0.1-0.1-0.3-0.3-0.5-0.4
				c-0.2-0.1-0.4-0.2-0.6-0.3c-0.7-0.3-1.1-0.5-1.8-0.7C424.6,24.1,424.4,24.5,424.1,25.3z"/>
			<path fill="#E0E0E0" d="M435,35.2c-0.6-0.3-0.9-0.5-1.5-0.8c0.7-1.2,1.1-1.8,1.8-3c-1.4-0.7-2.1-1.1-3.5-1.8
				c-0.7,1.2-1,1.8-1.7,3c-0.6-0.3-0.9-0.4-1.5-0.7c1.5-2.8,2.3-4.1,3.8-6.9c0.6,0.3,1,0.5,1.6,0.8c-0.6,1.1-0.9,1.6-1.5,2.6
				c1.4,0.7,2.1,1.1,3.6,1.8c0.6-1,0.9-1.6,1.6-2.6c0.6,0.3,1,0.5,1.6,0.9C437.5,31.2,436.6,32.6,435,35.2z"/>
			<path fill="#E0E0E0" d="M438.3,37.2c-0.6-0.3-0.9-0.5-1.4-0.8c1.7-2.6,2.6-4,4.3-6.6c0.6,0.4,0.9,0.5,1.5,0.9
				C441,33.2,440.1,34.5,438.3,37.2z"/>
			<path fill="#E0E0E0" d="M448.2,37.2c0.1-0.2,0.2-0.4,0.2-0.6c0-0.2,0-0.4-0.1-0.6c-0.1-0.2-0.2-0.4-0.4-0.6
				c-0.2-0.2-0.4-0.4-0.6-0.5c-0.3-0.2-0.7-0.4-1-0.5c-0.3-0.1-0.7-0.1-1,0c-0.3,0.1-0.7,0.2-1,0.4c-0.3,0.2-0.6,0.5-0.8,0.9
				c-0.3,0.4-0.4,0.7-0.5,1.1c-0.1,0.3-0.1,0.7-0.1,1c0,0.3,0.2,0.6,0.4,0.9c0.2,0.3,0.4,0.5,0.8,0.7c0.2,0.2,0.5,0.3,0.7,0.4
				c0.2,0.1,0.5,0.1,0.7,0.1c0.2,0,0.5-0.1,0.7-0.2s0.4-0.2,0.6-0.4c0.6,0.4,0.9,0.6,1.5,1c-0.3,0.3-0.7,0.6-1.1,0.8
				c-0.4,0.2-0.8,0.3-1.2,0.3c-0.4,0-0.9-0.1-1.3-0.2c-0.4-0.1-0.9-0.3-1.3-0.6c-0.5-0.4-1-0.7-1.3-1.2c-0.3-0.4-0.5-0.9-0.7-1.4
				c-0.1-0.5-0.1-1,0-1.5c0.1-0.5,0.3-1,0.7-1.5c0.4-0.5,0.8-0.9,1.2-1.2c0.5-0.3,1-0.5,1.5-0.6c0.5-0.1,1.1-0.1,1.7,0.1
				c0.6,0.1,1.2,0.4,1.7,0.8c0.4,0.3,0.8,0.6,1.1,1c0.3,0.4,0.5,0.7,0.7,1.1c0.1,0.4,0.2,0.8,0.2,1.2c0,0.4-0.2,0.8-0.4,1.2
				C449.1,37.8,448.8,37.6,448.2,37.2z"/>
			<path fill="#E0E0E0" d="M450.7,45.5c-0.5-0.4-0.9-0.8-1.2-1.2c-0.3-0.4-0.5-0.8-0.6-1.2s-0.1-0.8,0-1.2c0.1-0.4,0.3-0.8,0.5-1.1
				c0.6,0.4,0.8,0.6,1.4,1c-0.2,0.2-0.2,0.5-0.3,0.7c0,0.2,0,0.5,0.1,0.7c0.1,0.2,0.2,0.4,0.4,0.6c0.2,0.2,0.4,0.4,0.6,0.6
				c0.2,0.2,0.4,0.3,0.7,0.4c0.2,0.1,0.4,0.2,0.6,0.2c0.2,0,0.4,0,0.5,0c0.2,0,0.3-0.1,0.4-0.2c0.1-0.1,0.2-0.3,0.2-0.4
				c0-0.1,0-0.3-0.1-0.5s-0.2-0.4-0.5-0.7c-0.2-0.3-0.5-0.5-0.8-0.9c-0.4-0.4-0.7-0.8-0.9-1.1c-0.2-0.3-0.4-0.6-0.5-0.9
				c-0.1-0.3-0.1-0.6-0.1-0.8s0.2-0.5,0.4-0.7c0.2-0.3,0.5-0.5,0.8-0.6c0.3-0.1,0.7-0.2,1-0.1c0.4,0,0.8,0.1,1.2,0.3
				c0.4,0.2,0.9,0.4,1.3,0.7c0.4,0.3,0.8,0.7,1.1,1.1c0.3,0.4,0.5,0.7,0.6,1.1c0.1,0.4,0.1,0.8,0,1.1c-0.1,0.4-0.3,0.7-0.5,1
				c-0.5-0.4-0.8-0.6-1.3-1.1c0.5-0.8,0.3-1.5-0.7-2.2c-0.5-0.4-0.9-0.6-1.2-0.6c-0.4-0.1-0.6,0-0.8,0.2c-0.1,0.1-0.1,0.2-0.1,0.3
				c0,0.1,0,0.2,0.1,0.4c0.1,0.1,0.2,0.3,0.3,0.5c0.1,0.2,0.3,0.4,0.6,0.6c0.2,0.2,0.4,0.4,0.6,0.6c0.2,0.2,0.4,0.5,0.6,0.7
				s0.3,0.5,0.4,0.7c0.1,0.2,0.2,0.5,0.2,0.7c0,0.2,0,0.5-0.1,0.7s-0.2,0.5-0.4,0.7c-0.2,0.3-0.5,0.5-0.9,0.6
				c-0.3,0.1-0.7,0.2-1.1,0.1c-0.4,0-0.8-0.1-1.2-0.3C451.5,46.1,451.1,45.8,450.7,45.5z"/>
		</g>
	</g>
	<path fill="#181515" d="M456.9,115H283.5c-10.3,0-18.8-8.5-18.8-18.8v0c0-10.3,8.5-18.8,18.8-18.8h173.4c10.3,0,18.8,8.5,18.8,18.8
		v0C475.7,106.5,467.2,115,456.9,115z"/>
	<path d="M369.9,110.8h83.2c5.6,0,10.1-4.3,10.1-19h-10.1v-7.6h0.3h-83.2h0H287h0.3v7.6h-10.1c0,14.7,4.5,19,10.1,19h83.2"/>
	<path fill="#282424" d="M369.9,109.8h82.4c5.5,0,10-4,10-17.6h-10v-7h0.3h-82.4h0h-82.4h0.3v7h-10c0,13.6,4.5,17.6,10,17.6h82.4"/>
	<rect x="278.6" y="98.7" fill="#010102" width="183.2" height="0.9"/>
	<g>
		<g>
			<path fill="#363636" d="M300,87.8h-1.8c0-0.4,0.4-0.7,0.9-0.7h0C299.6,87.1,300,87.4,300,87.8z"/>
			<path fill="#464646" d="M300,95.8h-1.8c0,0.4,0.4,0.7,0.9,0.7h0C299.6,96.5,300,96.2,300,95.8z"/>
			<rect x="298.2" y="87.8" fill="#424141" width="1.8" height="8"/>
		</g>
		<g>
			<path fill="#363636" d="M300,101.8h-1.8c0-0.3,0.4-0.6,0.9-0.6h0C299.6,101.2,300,101.5,300,101.8z"/>
			<path fill="#464646" d="M300,108.2h-1.8c0,0.3,0.4,0.6,0.9,0.6h0C299.6,108.8,300,108.6,300,108.2z"/>
			<rect x="298.2" y="101.8" fill="#424141" width="1.8" height="6.5"/>
		</g>
		<g>
			<path fill="#363636" d="M440.4,87.8h1.8c0-0.4-0.4-0.7-0.9-0.7l0,0C440.8,87.1,440.4,87.4,440.4,87.8z"/>
			<path fill="#464646" d="M440.4,95.8h1.8c0,0.4-0.4,0.7-0.9,0.7l0,0C440.8,96.5,440.4,96.2,440.4,95.8z"/>
			<rect x="440.4" y="87.8" fill="#424141" width="1.8" height="8"/>
		</g>
		<g>
			<path fill="#363636" d="M440.4,101.8h1.8c0-0.3-0.4-0.6-0.9-0.6l0,0C440.8,101.2,440.4,101.5,440.4,101.8z"/>
			<path fill="#464646" d="M440.4,108.2h1.8c0,0.3-0.4,0.6-0.9,0.6l0,0C440.8,108.8,440.4,108.6,440.4,108.2z"/>
			<rect x="440.4" y="101.8" fill="#424141" width="1.8" height="6.5"/>
		</g>
	</g>
	<path fill="#811B15" d="M320,276.5v-29.7c15.3,6.7,32.3,10.4,50.2,10.4c17.9,0,34.9-3.7,50.2-10.4l0,0v29.6l0-0.8
		c-15.7,5.5-32.6,9.1-50.2,9.1c-17.6,0-34.5-4.1-50.2-9.6"/>
	<g>
		<ellipse fill="#631418" cx="370.2" cy="270.3" rx="3.3" ry="3.5"/>
		<ellipse fill="#F95D5D" cx="370.2" cy="270.3" rx="2.3" ry="2.3"/>
		<g>
			<g>
				<path fill="#391516" d="M343.1,266.2c0.6,0.1,0.8,0.1,1.4,0.2c0.1,0,0.3,0,0.4,0.1c0.1,0,0.2,0.1,0.3,0.1c0.1,0,0.2,0.1,0.3,0.2
					c0.1,0.1,0.2,0.1,0.2,0.2s0.1,0.2,0.1,0.3c0,0.1,0,0.3,0,0.4c0,0.4-0.2,0.7-0.5,0.8c-0.3,0.2-0.6,0.2-1.1,0.2
					c-0.3,0-0.5-0.1-0.8-0.1c-0.1,0.6-0.1,0.8-0.2,1.4c-0.3,0-0.4-0.1-0.7-0.1C342.8,268.4,342.9,267.7,343.1,266.2z M343.6,268
					c0.3,0,0.5,0.1,0.8,0.1c0.1,0,0.2,0,0.3,0c0.1,0,0.2,0,0.2-0.1c0.1,0,0.1-0.1,0.1-0.2c0-0.1,0.1-0.1,0.1-0.2c0-0.1,0-0.2,0-0.3
					c0-0.1-0.1-0.1-0.1-0.2c-0.1,0-0.1-0.1-0.2-0.1c-0.1,0-0.2,0-0.3-0.1c-0.3,0-0.5-0.1-0.8-0.1C343.7,267.4,343.6,267.6,343.6,268
					z"/>
				<path fill="#391516" d="M348.3,266.8c0.3,0,0.5,0.1,0.7,0.2s0.4,0.3,0.5,0.4c0.1,0.2,0.2,0.4,0.3,0.6s0.1,0.5,0.1,0.8
					c0,0.3-0.1,0.5-0.2,0.8s-0.3,0.4-0.4,0.6c-0.2,0.1-0.4,0.3-0.6,0.3c-0.2,0.1-0.5,0.1-0.7,0.1c-0.3,0-0.5-0.1-0.7-0.2
					c-0.2-0.1-0.4-0.3-0.5-0.5c-0.1-0.2-0.2-0.4-0.3-0.6c-0.1-0.2-0.1-0.5,0-0.8c0-0.3,0.1-0.5,0.2-0.8c0.1-0.2,0.3-0.4,0.4-0.6
					c0.2-0.1,0.4-0.3,0.6-0.3C347.8,266.8,348.1,266.8,348.3,266.8z M348,270c0.2,0,0.3,0,0.5,0c0.1,0,0.3-0.1,0.4-0.2
					c0.1-0.1,0.2-0.2,0.3-0.4c0.1-0.2,0.1-0.3,0.1-0.5c0-0.2,0-0.4,0-0.6c0-0.2-0.1-0.3-0.2-0.4c-0.1-0.1-0.2-0.2-0.3-0.3
					s-0.3-0.1-0.4-0.1c-0.2,0-0.3,0-0.4,0c-0.1,0-0.3,0.1-0.4,0.2c-0.1,0.1-0.2,0.2-0.3,0.4c-0.1,0.2-0.1,0.3-0.1,0.5
					c0,0.2,0,0.4,0,0.6c0,0.2,0.1,0.3,0.2,0.4c0.1,0.1,0.2,0.2,0.3,0.3C347.7,270,347.8,270,348,270z"/>
				<path fill="#391516" d="M355.3,267.6c-0.5,1.4-0.8,2.2-1.3,3.6c-0.3,0-0.4,0-0.6-0.1c-0.2-1.1-0.3-1.7-0.5-2.8
					c-0.4,1.1-0.6,1.6-1,2.6c-0.3,0-0.4,0-0.6-0.1c-0.3-1.5-0.4-2.3-0.7-3.8c0.3,0,0.4,0,0.7,0.1c0.1,1,0.2,1.5,0.4,2.5
					c0.4-1,0.6-1.4,0.9-2.4c0.3,0,0.4,0,0.7,0.1c0.2,1,0.3,1.5,0.5,2.5c0.3-1,0.5-1.5,0.8-2.4C354.8,267.5,355,267.5,355.3,267.6z"
					/>
				<path fill="#391516" d="M358.4,271.5c-1.2-0.1-1.7-0.1-2.9-0.2c0.1-1.5,0.2-2.2,0.3-3.7c1.1,0.1,1.7,0.1,2.8,0.2
					c0,0.3,0,0.4,0,0.6c-0.8-0.1-1.2-0.1-2.1-0.1c0,0.3,0,0.5-0.1,0.8c0.8,0.1,1.2,0.1,1.9,0.1c0,0.3,0,0.4,0,0.6
					c-0.8,0-1.2-0.1-2-0.1c0,0.4,0,0.6-0.1,1c0.9,0.1,1.3,0.1,2.2,0.1C358.5,271.1,358.4,271.3,358.4,271.5z"/>
				<path fill="#391516" d="M362.4,271.7c-0.3,0-0.5,0-0.8,0c-0.1-0.4-0.2-0.6-0.3-1c0-0.1-0.1-0.1-0.1-0.2c0-0.1-0.1-0.1-0.1-0.2
					c-0.1,0-0.1-0.1-0.2-0.1c-0.1,0-0.1,0-0.2,0c-0.3,0-0.5,0-0.8,0c0,0.6,0,0.9-0.1,1.5c-0.3,0-0.4,0-0.7,0
					c0.1-1.5,0.1-2.2,0.2-3.7c0.7,0,1,0.1,1.7,0.1c0.1,0,0.2,0,0.3,0c0.1,0,0.2,0,0.3,0c0.1,0,0.2,0,0.2,0.1c0.1,0,0.1,0.1,0.2,0.1
					c0.1,0.1,0.1,0.1,0.2,0.2c0,0.1,0.1,0.1,0.1,0.2s0,0.1,0.1,0.2c0,0.1,0,0.2,0,0.2c0,0.2-0.1,0.4-0.2,0.6s-0.3,0.3-0.5,0.4
					c0.2,0.1,0.3,0.3,0.4,0.6C362.2,271,362.3,271.3,362.4,271.7z M360,269.5c0.4,0,0.6,0,0.9,0c0.1,0,0.2,0,0.3,0
					c0.1,0,0.2,0,0.2-0.1c0.1,0,0.1-0.1,0.1-0.1c0-0.1,0-0.1,0-0.2c0-0.2,0-0.3-0.1-0.4s-0.3-0.1-0.5-0.1c-0.4,0-0.6,0-1,0
					C360,268.9,360,269.1,360,269.5z"/>
				<path fill="#391516" d="M391.8,266.9c0.3,0,0.5,0,0.7,0.1c0.2,0.1,0.4,0.2,0.6,0.3c0.2,0.1,0.3,0.3,0.4,0.6
					c0.1,0.2,0.2,0.5,0.2,0.8c0,0.3,0,0.5,0,0.8c-0.1,0.2-0.2,0.5-0.3,0.6c-0.1,0.2-0.3,0.3-0.5,0.5s-0.4,0.2-0.7,0.2
					c-0.3,0-0.5,0-0.7-0.1c-0.2-0.1-0.4-0.2-0.6-0.3c-0.2-0.1-0.3-0.3-0.4-0.6c-0.1-0.2-0.2-0.5-0.2-0.8c0-0.3,0-0.6,0.1-0.8
					s0.2-0.5,0.3-0.6c0.1-0.2,0.3-0.3,0.5-0.4C391.3,267,391.5,266.9,391.8,266.9z M392.2,270.1c0.2,0,0.3-0.1,0.4-0.1
					c0.1-0.1,0.2-0.2,0.3-0.3c0.1-0.1,0.1-0.3,0.2-0.4c0-0.2,0-0.3,0-0.6c0-0.2-0.1-0.4-0.1-0.5c-0.1-0.2-0.2-0.3-0.3-0.4
					c-0.1-0.1-0.2-0.2-0.4-0.2c-0.1,0-0.3-0.1-0.4,0c-0.2,0-0.3,0.1-0.4,0.1s-0.2,0.2-0.3,0.3c-0.1,0.1-0.1,0.3-0.2,0.4
					c0,0.2,0,0.3,0,0.5c0,0.2,0.1,0.4,0.1,0.5c0.1,0.2,0.2,0.3,0.3,0.4c0.1,0.1,0.2,0.2,0.4,0.2S392,270.1,392.2,270.1z"/>
				<path fill="#391516" d="M397.8,269.9c-0.3,0-0.4,0.1-0.7,0.1c-0.8-0.9-1.2-1.3-2-2.2c0.1,1,0.2,1.5,0.3,2.5
					c-0.3,0-0.4,0.1-0.7,0.1c-0.2-1.5-0.3-2.2-0.5-3.7c0.3,0,0.4,0,0.7-0.1c0.8,0.9,1.2,1.3,2,2.2c-0.1-1-0.2-1.5-0.3-2.5
					c0.3,0,0.4-0.1,0.7-0.1C397.5,267.7,397.6,268.4,397.8,269.9z"/>
				<path fill="#391516" d="M388.4,269.3l0,0.7c0,0.1-3.1,0.3-6.9,0.5s-6.9,0.4-6.9,0.3l0-0.7c0,0.1,3.1-0.1,6.9-0.3
					C385.3,269.6,388.4,269.3,388.4,269.3z"/>
			</g>
		</g>
	</g>
	<path d="M421.9,175.5v71.2l0,0c-15.7,6.8-33.2,10.6-51.7,10.6c-18.4,0-35.9-3.8-51.7-10.6v-71.2c0-6.7,5.6-12.1,12.4-12.1h78.6
		C416.3,163.4,421.9,168.8,421.9,175.5z"/>
	<path fill="#211F1F" d="M419.9,176.5v70.3l0,0c-15.3,6.7-32.3,10.4-50.2,10.4c-17.9,0-34.9-3.7-50.2-10.4v-70.3c0-6.6,5.4-12,12-12
		h76.3C414.5,164.5,419.9,169.9,419.9,176.5z"/>
	<g>
		<path fill="#070606" d="M71.5,62H0l0-6.2h71.5c0.5,0,0.9,0.4,0.9,0.9v4.3C72.4,61.6,72,62,71.5,62z"/>
		<path fill="#282424" d="M71.1,60.9H19v-6h52.1c0.5,0,0.9,0.4,0.9,0.9V60C72.1,60.5,71.7,60.9,71.1,60.9z"/>
		<rect x="0" y="54.9" fill="#1E1B1B" width="19" height="6"/>
		<rect x="0" y="54.9" fill="#252222" width="19" height="0.9"/>
		<path fill="#3C3939" d="M72.1,55.8H19v-0.9h52.1C71.7,54.9,72.1,55.3,72.1,55.8L72.1,55.8z"/>
	</g>
	<g>
		<path fill="#070606" d="M71.5,71.7H0l0-6.2h71.5c0.5,0,0.9,0.4,0.9,0.9v4.3C72.4,71.3,72,71.7,71.5,71.7z"/>
		<path fill="#282424" d="M71.1,70.6H19v-6h52.1c0.5,0,0.9,0.4,0.9,0.9v4.1C72.1,70.2,71.7,70.6,71.1,70.6z"/>
		<rect x="0" y="64.6" fill="#1E1B1B" width="19" height="6"/>
		<rect x="0" y="64.6" fill="#252222" width="19" height="0.9"/>
		<path fill="#3C3939" d="M72.1,65.5H19v-0.9h52.1C71.7,64.6,72.1,65,72.1,65.5L72.1,65.5z"/>
	</g>
	<g>
		<path fill="#070606" d="M71.5,81.4H0l0-6.2h71.5c0.5,0,0.9,0.4,0.9,0.9v4.3C72.4,81,72,81.4,71.5,81.4z"/>
		<path fill="#282424" d="M71.1,80.3H19v-6h52.1c0.5,0,0.9,0.4,0.9,0.9v4.1C72.1,79.9,71.7,80.3,71.1,80.3z"/>
		<rect x="0" y="74.3" fill="#1E1B1B" width="19" height="6"/>
		<rect x="0" y="74.3" fill="#252222" width="19" height="0.9"/>
		<path fill="#3C3939" d="M72.1,75.2H19v-0.9h52.1C71.7,74.3,72.1,74.7,72.1,75.2L72.1,75.2z"/>
	</g>
	<g>
		<path fill="#070606" d="M71.5,91.1H0l0-6.2h71.5c0.5,0,0.9,0.4,0.9,0.9v4.3C72.4,90.7,72,91.1,71.5,91.1z"/>
		<path fill="#282424" d="M71.1,90H19v-6h52.1c0.5,0,0.9,0.4,0.9,0.9v4.1C72.1,89.6,71.7,90,71.1,90z"/>
		<rect x="0" y="84" fill="#1E1B1B" width="19" height="6"/>
		<rect x="0" y="84" fill="#252222" width="19" height="0.9"/>
		<path fill="#3C3939" d="M72.1,84.9H19V84h52.1C71.7,84,72.1,84.4,72.1,84.9L72.1,84.9z"/>
	</g>
	<g>
		<path fill="#070606" d="M71.5,100.8H0l0-6.2h71.5c0.5,0,0.9,0.4,0.9,0.9v4.3C72.4,100.4,72,100.8,71.5,100.8z"/>
		<path fill="#282424" d="M71.1,99.7H19v-6h52.1c0.5,0,0.9,0.4,0.9,0.9v4.1C72.1,99.3,71.7,99.7,71.1,99.7z"/>
		<rect x="0" y="93.7" fill="#1E1B1B" width="19" height="6"/>
		<rect x="0" y="93.7" fill="#252222" width="19" height="0.9"/>
		<path fill="#3C3939" d="M72.1,94.6H19v-0.9h52.1C71.7,93.7,72.1,94.1,72.1,94.6L72.1,94.6z"/>
	</g>
	<g>
		<path fill="#070606" d="M71.5,110.5H0l0-6.2h71.5c0.5,0,0.9,0.4,0.9,0.9v4.3C72.4,110,72,110.5,71.5,110.5z"/>
		<path fill="#282424" d="M71.1,109.4H19v-6h52.1c0.5,0,0.9,0.4,0.9,0.9v4.1C72.1,109,71.7,109.4,71.1,109.4z"/>
		<rect x="0" y="103.4" fill="#1E1B1B" width="19" height="6"/>
		<rect x="0" y="103.4" fill="#252222" width="19" height="0.9"/>
		<path fill="#3C3939" d="M72.1,104.3H19v-0.9h52.1C71.7,103.4,72.1,103.8,72.1,104.3L72.1,104.3z"/>
	</g>
	<g>
		<path fill="#070606" d="M71.5,120.2H0l0-6.2h71.5c0.5,0,0.9,0.4,0.9,0.9v4.3C72.4,119.7,72,120.2,71.5,120.2z"/>
		<path fill="#282424" d="M71.1,119.1H19v-6h52.1c0.5,0,0.9,0.4,0.9,0.9v4.1C72.1,118.7,71.7,119.1,71.1,119.1z"/>
		<rect x="0" y="113.1" fill="#1E1B1B" width="19" height="6"/>
		<rect x="0" y="113.1" fill="#252222" width="19" height="0.9"/>
		<path fill="#3C3939" d="M72.1,114H19V113h52.1C71.7,113,72.1,113.5,72.1,114L72.1,114z"/>
	</g>
	<g>
		<path fill="#070606" d="M71.5,129.9H0l0-6.2h71.5c0.5,0,0.9,0.4,0.9,0.9v4.3C72.4,129.4,72,129.9,71.5,129.9z"/>
		<path fill="#282424" d="M71.1,128.8H19v-6h52.1c0.5,0,0.9,0.4,0.9,0.9v4.1C72.1,128.3,71.7,128.8,71.1,128.8z"/>
		<rect x="0" y="122.8" fill="#1E1B1B" width="19" height="6"/>
		<rect x="0" y="122.8" fill="#252222" width="19" height="0.9"/>
		<path fill="#3C3939" d="M72.1,123.7H19v-0.9h52.1C71.7,122.7,72.1,123.2,72.1,123.7L72.1,123.7z"/>
	</g>
	<g>
		<path fill="#070606" d="M71.5,139.5H0l0-6.2h71.5c0.5,0,0.9,0.4,0.9,0.9v4.3C72.4,139.1,72,139.5,71.5,139.5z"/>
		<path fill="#282424" d="M71.1,138.5H19v-6h52.1c0.5,0,0.9,0.4,0.9,0.9v4.1C72.1,138,71.7,138.5,71.1,138.5z"/>
		<rect x="0" y="132.5" fill="#1E1B1B" width="19" height="6"/>
		<rect x="0" y="132.5" fill="#252222" width="19" height="0.9"/>
		<path fill="#3C3939" d="M72.1,133.4H19v-0.9h52.1C71.7,132.4,72.1,132.8,72.1,133.4L72.1,133.4z"/>
	</g>
	<g>
		<path fill="#070606" d="M71.5,149.2H0l0-6.2h71.5c0.5,0,0.9,0.4,0.9,0.9v4.3C72.4,148.8,72,149.2,71.5,149.2z"/>
		<path fill="#282424" d="M71.1,148.2H19v-6h52.1c0.5,0,0.9,0.4,0.9,0.9v4.1C72.1,147.7,71.7,148.2,71.1,148.2z"/>
		<rect x="0" y="142.2" fill="#1E1B1B" width="19" height="6"/>
		<rect x="0" y="142.2" fill="#252222" width="19" height="0.9"/>
		<path fill="#3C3939" d="M72.1,143.1H19v-0.9h52.1C71.7,142.1,72.1,142.5,72.1,143.1L72.1,143.1z"/>
	</g>
	<g>
		<path fill="#070606" d="M71.5,158.9H0l0-6.2h71.5c0.5,0,0.9,0.4,0.9,0.9v4.3C72.4,158.5,72,158.9,71.5,158.9z"/>
		<path fill="#282424" d="M71.1,157.8H19v-6h52.1c0.5,0,0.9,0.4,0.9,0.9v4.1C72.1,157.4,71.7,157.8,71.1,157.8z"/>
		<rect x="0" y="151.8" fill="#1E1B1B" width="19" height="6"/>
		<rect x="0" y="151.8" fill="#252222" width="19" height="0.9"/>
		<path fill="#3C3939" d="M72.1,152.8H19v-0.9h52.1C71.7,151.8,72.1,152.2,72.1,152.8L72.1,152.8z"/>
	</g>
	<g>
		<path fill="#070606" d="M71.5,168.6H0l0-6.2h71.5c0.5,0,0.9,0.4,0.9,0.9v4.3C72.4,168.2,72,168.6,71.5,168.6z"/>
		<path fill="#282424" d="M71.1,167.5H19v-6h52.1c0.5,0,0.9,0.4,0.9,0.9v4.1C72.1,167.1,71.7,167.5,71.1,167.5z"/>
		<rect x="0" y="161.5" fill="#1E1B1B" width="19" height="6"/>
		<rect x="0" y="161.5" fill="#252222" width="19" height="0.9"/>
		<path fill="#3C3939" d="M72.1,162.4H19v-0.9h52.1C71.7,161.5,72.1,161.9,72.1,162.4L72.1,162.4z"/>
	</g>
	<g>
		<path fill="#070606" d="M71.5,178.3H0l0-6.2h71.5c0.5,0,0.9,0.4,0.9,0.9v4.3C72.4,177.9,72,178.3,71.5,178.3z"/>
		<path fill="#282424" d="M71.1,177.2H19v-6h52.1c0.5,0,0.9,0.4,0.9,0.9v4.1C72.1,176.8,71.7,177.2,71.1,177.2z"/>
		<rect x="0" y="171.2" fill="#1E1B1B" width="19" height="6"/>
		<rect x="0" y="171.2" fill="#252222" width="19" height="0.9"/>
		<path fill="#3C3939" d="M72.1,172.1H19v-0.9h52.1C71.7,171.2,72.1,171.6,72.1,172.1L72.1,172.1z"/>
	</g>
	<g>
		<path fill="#070606" d="M71.5,188H0l0-6.2h71.5c0.5,0,0.9,0.4,0.9,0.9v4.3C72.4,187.6,72,188,71.5,188z"/>
		<path fill="#282424" d="M71.1,186.9H19v-6h52.1c0.5,0,0.9,0.4,0.9,0.9v4.1C72.1,186.5,71.7,186.9,71.1,186.9z"/>
		<rect x="0" y="180.9" fill="#1E1B1B" width="19" height="6"/>
		<rect x="0" y="180.9" fill="#252222" width="19" height="0.9"/>
		<path fill="#3C3939" d="M72.1,181.8H19v-0.9h52.1C71.7,180.9,72.1,181.3,72.1,181.8L72.1,181.8z"/>
	</g>
	<g>
		<path fill="#070606" d="M71.5,197.7H0l0-6.2h71.5c0.5,0,0.9,0.4,0.9,0.9v4.3C72.4,197.3,72,197.7,71.5,197.7z"/>
		<path fill="#282424" d="M71.1,196.6H19v-6h52.1c0.5,0,0.9,0.4,0.9,0.9v4.1C72.1,196.2,71.7,196.6,71.1,196.6z"/>
		<rect x="0" y="190.6" fill="#1E1B1B" width="19" height="6"/>
		<rect x="0" y="190.6" fill="#252222" width="19" height="0.9"/>
		<path fill="#3C3939" d="M72.1,191.5H19v-0.9h52.1C71.7,190.6,72.1,191,72.1,191.5L72.1,191.5z"/>
	</g>
	<rect x="9" y="327.2" fill="#323030" width="531" height="1.7"/>
	<rect x="9" y="328.9" fill="#383736" width="531" height="3.4"/>
	<rect x="9" y="332.3" fill="#3F3E3D" width="531" height="1.7"/>
	<rect x="9" y="334" fill="#444241" width="531" height="1.7"/>
	<rect x="9" y="335.7" fill="#4A4747" width="531" height="1.7"/>
	<rect x="9" y="337.4" fill="#504D4C" width="531" height="1.7"/>
	<rect x="9" y="339.1" fill="#565252" width="531" height="1.7"/>
	<rect x="9" y="340.9" fill="#5B5857" width="531" height="1.7"/>
	<rect x="0" y="327.2" fill="#292424" width="9" height="1.7"/>
	<rect x="0" y="328.9" fill="#302A2B" width="9" height="3.4"/>
	<rect x="0" y="332.3" fill="#363031" width="9" height="1.7"/>
	<rect x="0" y="334" fill="#3C3636" width="9" height="1.7"/>
	<rect x="0" y="335.7" fill="#423B3C" width="9" height="1.7"/>
	<rect x="0" y="337.4" fill="#484141" width="9" height="1.7"/>
	<rect x="0" y="339.1" fill="#4E4646" width="9" height="1.7"/>
	<rect x="0" y="340.9" fill="#544B4C" width="9" height="1.7"/>
	<rect x="540" y="327.2" fill="#292424" width="9" height="1.7"/>
	<rect x="540" y="328.9" fill="#302A2B" width="9" height="3.4"/>
	<rect x="540" y="332.3" fill="#363031" width="9" height="1.7"/>
	<rect x="540" y="334" fill="#3C3636" width="9" height="1.7"/>
	<rect x="540" y="335.7" fill="#423B3C" width="9" height="1.7"/>
	<rect x="540" y="337.4" fill="#484141" width="9" height="1.7"/>
	<rect x="540" y="339.1" fill="#4E4646" width="9" height="1.7"/>
	<rect x="540" y="340.9" fill="#544B4C" width="9" height="1.7"/>
	<g>
		<path fill="#C4C4C4" d="M56.7,329.1c0-1.4-0.9-3.1-1.7-3.1c-0.8,0-1.7,1.3-1.7,2.8c0,1.4,1.3,2.9,2.1,2.9
			C56.2,331.7,56.7,330.5,56.7,329.1z"/>
		<g>
			<path fill="#C4C4C4" d="M65.7,328.8l-0.9-0.5c0.5-0.9,0.7-1.9,0.7-2.8c0-3.3-2.7-6-6.1-6c-3.3,0-6.1,2.7-6.1,6c0,1,0.3,2,0.7,2.8
				l-0.9,0.5c-0.6-1-0.9-2.2-0.9-3.3c0-3.8,3.2-6.9,7-7l0,0c0,0,0,0,0,0c3.9,0,7,3.1,7,7C66.6,326.7,66.3,327.8,65.7,328.8z"/>
		</g>
		<path fill="#C4C4C4" d="M62.3,329.1c0-1.4,0.9-3.1,1.7-3.1c0.8,0,1.7,1.3,1.7,2.8c0,1.4-1.3,2.9-2.1,2.9
			C62.8,331.7,62.3,330.5,62.3,329.1z"/>
	</g>
	<g>
		<path fill="#C4C4C4" d="M48.2,337.5l-1.5-4.3h0.9l1.1,3.2l1.1-3.2h0.9l-1.5,4.3H48.2z"/>
		<path fill="#C4C4C4" d="M50.9,335.4c0-0.4,0.1-0.8,0.2-1.1c0.1-0.2,0.2-0.4,0.4-0.6s0.4-0.3,0.6-0.4c0.3-0.1,0.6-0.2,0.9-0.2
			c0.6,0,1.1,0.2,1.5,0.6s0.6,0.9,0.6,1.6c0,0.7-0.2,1.2-0.6,1.6s-0.9,0.6-1.5,0.6c-0.6,0-1.1-0.2-1.5-0.6
			C51.1,336.6,50.9,336.1,50.9,335.4z M51.8,335.3c0,0.5,0.1,0.9,0.3,1.1c0.2,0.3,0.5,0.4,0.9,0.4s0.6-0.1,0.9-0.4
			c0.2-0.3,0.3-0.6,0.3-1.1c0-0.5-0.1-0.9-0.3-1.1s-0.5-0.4-0.9-0.4s-0.6,0.1-0.9,0.4C51.9,334.5,51.8,334.9,51.8,335.3z"/>
		<path fill="#C4C4C4" d="M55.8,337.5v-4.3h0.9v3.5h2.2v0.7H55.8z"/>
		<path fill="#C4C4C4" d="M59.4,333.2h0.9v2.3c0,0.4,0,0.6,0,0.7c0,0.2,0.1,0.3,0.3,0.4c0.1,0.1,0.3,0.2,0.6,0.2
			c0.2,0,0.4,0,0.6-0.2s0.2-0.2,0.2-0.4s0-0.4,0-0.7v-2.4h0.9v2.3c0,0.5,0,0.9-0.1,1.1s-0.1,0.4-0.3,0.5s-0.3,0.3-0.5,0.4
			c-0.2,0.1-0.5,0.1-0.8,0.1c-0.4,0-0.7,0-0.9-0.1c-0.2-0.1-0.4-0.2-0.5-0.4s-0.2-0.3-0.2-0.5c-0.1-0.2-0.1-0.6-0.1-1.1V333.2z"/>
		<path fill="#C4C4C4" d="M63.8,337.5v-4.3h1.3l0.8,2.9l0.8-2.9h1.3v4.3h-0.8v-3.4l-0.9,3.4h-0.8l-0.8-3.4v3.4H63.8z"/>
		<path fill="#C4C4C4" d="M68.8,337.5v-4.3H72v0.7h-2.3v1h2.2v0.7h-2.2v1.2H72v0.7H68.8z"/>
	</g>
	<g>
		<g>
			<rect x="91.8" y="297.7" width="35.3" height="15.7"/>
			<rect x="92.3" y="298.3" fill="#DBDBDB" width="34.3" height="14.5"/>
		</g>
		<g>
			<path fill="#CECCCE" d="M99.4,304.9L99.4,304.9c-0.7,0-1.3-0.6-1.3-1.2v0c0-0.7,0.6-1.3,1.3-1.3l0,0c0.7,0,1.3,0.6,1.3,1.3v0
				C100.7,304.3,100.1,304.9,99.4,304.9z"/>
			<path fill="#CECCCE" d="M119.4,304.9L119.4,304.9c-0.7,0-1.3-0.6-1.3-1.2v0c0-0.7,0.6-1.3,1.3-1.3l0,0c0.7,0,1.3,0.6,1.3,1.3v0
				C120.7,304.3,120.1,304.9,119.4,304.9z"/>
			<path fill="#CECCCE" d="M119.4,308.7L119.4,308.7c-0.7,0-1.3-0.6-1.3-1.2v0c0-0.7,0.6-1.3,1.3-1.3l0,0c0.7,0,1.3,0.6,1.3,1.3v0
				C120.7,308.1,120.1,308.7,119.4,308.7z"/>
			<path fill="#CECCCE" d="M99.4,308.7L99.4,308.7c-0.7,0-1.3-0.6-1.3-1.2v0c0-0.7,0.6-1.3,1.3-1.3l0,0c0.7,0,1.3,0.6,1.3,1.3v0
				C100.7,308.1,100.1,308.7,99.4,308.7z"/>
			<path fill="#CECCCE" d="M102.8,308.7L102.8,308.7c-0.7,0-1.3-0.6-1.3-1.2v0c0-0.7,0.6-1.3,1.3-1.3l0,0c0.7,0,1.3,0.6,1.3,1.3v0
				C104,308.1,103.4,308.7,102.8,308.7z"/>
			<path fill="#CECCCE" d="M106.1,308.7L106.1,308.7c-0.7,0-1.3-0.6-1.3-1.2v0c0-0.7,0.6-1.3,1.3-1.3l0,0c0.7,0,1.3,0.6,1.3,1.3v0
				C107.3,308.1,106.8,308.7,106.1,308.7z"/>
			<path fill="#CECCCE" d="M109.4,308.7L109.4,308.7c-0.7,0-1.3-0.6-1.3-1.2v0c0-0.7,0.6-1.3,1.3-1.3l0,0c0.7,0,1.3,0.6,1.3,1.3v0
				C110.7,308.1,110.1,308.7,109.4,308.7z"/>
			<path fill="#CECCCE" d="M112.7,308.7L112.7,308.7c-0.7,0-1.3-0.6-1.3-1.2v0c0-0.7,0.6-1.3,1.2-1.3h0c0.7,0,1.3,0.6,1.3,1.3v0
				C114,308.1,113.4,308.7,112.7,308.7z"/>
			<path fill="#CECCCE" d="M116.1,308.7L116.1,308.7c-0.7,0-1.3-0.6-1.3-1.2v0c0-0.7,0.6-1.3,1.3-1.3l0,0c0.7,0,1.3,0.6,1.3,1.3v0
				C117.3,308.1,116.8,308.7,116.1,308.7z"/>
			<path fill="#CECCCE" d="M102.8,304.9L102.8,304.9c-0.7,0-1.3-0.6-1.3-1.2v0c0-0.7,0.6-1.3,1.3-1.3l0,0c0.7,0,1.3,0.6,1.3,1.3v0
				C104,304.3,103.4,304.9,102.8,304.9z"/>
			<path fill="#CECCCE" d="M106.1,304.9L106.1,304.9c-0.7,0-1.3-0.6-1.3-1.2v0c0-0.7,0.6-1.3,1.3-1.3l0,0c0.7,0,1.3,0.6,1.3,1.3v0
				C107.3,304.3,106.8,304.9,106.1,304.9z"/>
			<path fill="#CECCCE" d="M109.4,304.9L109.4,304.9c-0.7,0-1.3-0.6-1.3-1.2v0c0-0.7,0.6-1.3,1.3-1.3l0,0c0.7,0,1.3,0.6,1.3,1.3v0
				C110.7,304.3,110.1,304.9,109.4,304.9z"/>
			<path fill="#CECCCE" d="M112.7,304.9L112.7,304.9c-0.7,0-1.3-0.6-1.3-1.2v0c0-0.7,0.6-1.3,1.2-1.3h0c0.7,0,1.3,0.6,1.3,1.3v0
				C114,304.3,113.4,304.9,112.7,304.9z"/>
			<path fill="#CECCCE" d="M116.1,304.9L116.1,304.9c-0.7,0-1.3-0.6-1.3-1.2v0c0-0.7,0.6-1.3,1.3-1.3l0,0c0.7,0,1.3,0.6,1.3,1.3v0
				C117.3,304.3,116.8,304.9,116.1,304.9z"/>
		</g>
		<polygon fill="#0D0D0C" points="127.1,297.7 91.8,297.7 88.5,295.2 130.3,295.2 		"/>
		<polygon fill="#4E4B4A" points="130.3,315.9 88.5,315.9 91.8,313.4 127.1,313.4 		"/>
		<polygon fill="#211E1D" points="91.8,313.4 88.5,315.9 88.5,295.2 91.8,297.7 		"/>
		<polygon fill="#211E1D" points="130.3,315.9 127.1,313.4 127.1,297.7 130.3,295.2 		"/>
		<g>
			<path fill="#C4C4C4" d="M102.5,321.1v-3.2h1.4c0.3,0,0.6,0,0.8,0.1c0.2,0.1,0.3,0.2,0.4,0.3c0.1,0.1,0.1,0.3,0.1,0.5
				c0,0.2-0.1,0.4-0.2,0.6c-0.1,0.2-0.4,0.3-0.6,0.3c0.1,0.1,0.3,0.2,0.3,0.3c0.1,0.1,0.2,0.3,0.4,0.5l0.4,0.6h-0.8l-0.5-0.7
				c-0.2-0.3-0.3-0.4-0.3-0.5c-0.1-0.1-0.1-0.1-0.2-0.1c-0.1,0-0.2,0-0.3,0h-0.1v1.3H102.5z M103.1,319.3h0.5c0.3,0,0.5,0,0.6,0
				c0.1,0,0.1-0.1,0.2-0.1c0-0.1,0.1-0.1,0.1-0.2c0-0.1,0-0.2-0.1-0.3c-0.1-0.1-0.1-0.1-0.2-0.1c-0.1,0-0.2,0-0.5,0h-0.5V319.3z"/>
			<path fill="#C4C4C4" d="M105.7,321.1v-3.2h2.4v0.5h-1.7v0.7h1.6v0.5h-1.6v0.9h1.8v0.5H105.7z"/>
			<path fill="#C4C4C4" d="M108.5,320.1l0.6-0.1c0,0.2,0.1,0.4,0.2,0.5c0.1,0.1,0.3,0.1,0.5,0.1c0.2,0,0.4,0,0.5-0.1
				c0.1-0.1,0.2-0.2,0.2-0.3c0-0.1,0-0.1-0.1-0.2c0-0.1-0.1-0.1-0.2-0.1c-0.1,0-0.2-0.1-0.5-0.1c-0.3-0.1-0.6-0.2-0.7-0.3
				c-0.2-0.2-0.3-0.4-0.3-0.6c0-0.2,0-0.3,0.1-0.5c0.1-0.1,0.2-0.3,0.4-0.3c0.2-0.1,0.4-0.1,0.6-0.1c0.4,0,0.7,0.1,0.9,0.3
				c0.2,0.2,0.3,0.4,0.3,0.7l-0.7,0c0-0.2-0.1-0.3-0.2-0.4c-0.1-0.1-0.2-0.1-0.4-0.1c-0.2,0-0.3,0-0.4,0.1c-0.1,0-0.1,0.1-0.1,0.2
				c0,0.1,0,0.1,0.1,0.2c0.1,0.1,0.3,0.1,0.6,0.2c0.3,0.1,0.6,0.2,0.7,0.2c0.2,0.1,0.3,0.2,0.4,0.3c0.1,0.1,0.1,0.3,0.1,0.5
				c0,0.2-0.1,0.4-0.2,0.5s-0.2,0.3-0.4,0.4s-0.4,0.1-0.7,0.1c-0.4,0-0.7-0.1-0.9-0.3C108.7,320.7,108.6,320.4,108.5,320.1z"/>
			<path fill="#C4C4C4" d="M111.7,321.1v-3.2h2.4v0.5h-1.7v0.7h1.6v0.5h-1.6v0.9h1.8v0.5H111.7z"/>
			<path fill="#C4C4C4" d="M115.4,321.1v-2.7h-1v-0.5h2.6v0.5h-1v2.7H115.4z"/>
		</g>
	</g>
	<g id="_x31_6bit_1_">
		<path id="XMLID_659_" fill="#C6C6C6" d="M341.3,218.4v-2.5c2.5-0.6,4.2-1.5,5-2.5h2.5v10.3l0,2.3h-3.3l0-2.3v-7.1
			C343.6,217.5,342.2,218.1,341.3,218.4z"/>
		<path id="XMLID_656_" fill="#C6C6C6" d="M362.1,216.7l-3,0.7c-0.3-1.3-1-1.9-2.2-1.9c-1.7,0-2.6,1.4-2.6,4.1
			c0.7-0.9,1.8-1.4,3.3-1.4c1.4,0,2.5,0.4,3.4,1.1c0.9,0.7,1.3,1.6,1.3,2.7c0,1.1-0.5,2.1-1.4,2.9c-1,0.8-2.2,1.3-3.8,1.3
			c-1.6,0-2.8-0.3-3.7-1c-0.9-0.7-1.5-1.5-1.9-2.4c-0.3-0.9-0.5-1.9-0.5-2.7c0-1.9,0.5-3.4,1.5-4.7c1-1.2,2.5-1.8,4.5-1.8
			c1.4,0,2.6,0.3,3.5,1C361.3,215,361.9,215.7,362.1,216.7z M356.7,224c0.6,0,1.1-0.2,1.6-0.5c0.4-0.4,0.6-0.8,0.6-1.5
			c0-0.6-0.2-1-0.7-1.4c-0.4-0.3-1-0.5-1.5-0.5c-0.6,0-1.1,0.2-1.5,0.5c-0.4,0.4-0.7,0.8-0.7,1.4c0,0.5,0.2,1,0.6,1.4
			C355.5,223.8,356.1,224,356.7,224z"/>
		<path id="XMLID_654_" fill="#C6C6C6" d="M363.2,219.3h5.2v2.2h-5.2V219.3z"/>
		<path id="XMLID_650_" fill="#C6C6C6" d="M370.2,213.6h6.9c1.2,0,2.2,0.1,2.8,0.4c0.6,0.3,1.1,0.6,1.5,1.1c0.4,0.5,0.6,1,0.6,1.7
			c0,1.4-0.9,2.3-2.7,2.7c1,0.2,1.8,0.6,2.3,1.1c0.5,0.6,0.8,1.2,0.8,1.9c0,0.9-0.4,1.7-1.3,2.4c-0.8,0.7-2.2,1-4.1,1h-6.9V213.6z
			 M373.6,215.7v2.7h2.6c1,0,1.6-0.2,1.8-0.5c0.2-0.3,0.4-0.6,0.4-0.9c0-0.3-0.1-0.6-0.3-0.8c-0.2-0.2-0.4-0.4-0.7-0.4
			c-0.2-0.1-0.7-0.1-1.4-0.1H373.6z M373.6,220.6v3h2.6c0.9,0,1.5-0.1,1.9-0.4c0.4-0.3,0.6-0.6,0.6-1.1c0-0.4-0.2-0.7-0.5-1
			c-0.4-0.3-1-0.4-1.8-0.4H373.6z"/>
		<path id="XMLID_648_" fill="#C6C6C6" d="M386.6,213.6v12.3h-3.4v-12.3H386.6z"/>
		<path id="XMLID_646_" fill="#C6C6C6" d="M398.2,213.6v2.4h-3.6v9.9h-3.5V216h-3.7v-2.4H398.2z"/>
	</g>
</g>
</svg>
