<svg xmlns="http://www.w3.org/2000/svg" width="200" height="200">
  <defs>
    <clipPath id="a">
      <path d="M0 172.02h172.02V0H0v172.02z"/>
    </clipPath>
  </defs>
  <g clip-path="url(#a)" transform="matrix(1.1626562,0,0,-1.1626562,0,200)">
    <path fill="#231f20" d="M172.0199 86.0099c0 47.502-38.508 86.01-86.01 86.01s-86.01-38.508-86.01-86.01 38.508-86.01 86.01-86.01 86.01 38.508 86.01 86.01"/>
    <path fill="#fff" d="M150.1937 36.812c-14.768-19.276-38.038-31.691-64.194-31.691-26.156 0-49.405 12.415-64.193 31.691-10.459 13.622-16.686 30.683-16.686 49.208 0 44.68 36.219 80.879 80.879 80.879 44.681 0 80.9-36.199 80.9-80.879 0-18.525-6.228-35.586-16.686-49.208h-.02zm-64.194 133.804c-46.716 0-84.596-37.879-84.596-84.596 0-46.717 37.88-84.596 84.596-84.596 46.737 0 84.597 37.879 84.597 84.596 0 46.717-37.86 84.596-84.597 84.596"/>
    <path fill="#231f20" d="M150.1937 36.812c-14.768-19.276-38.038-31.691-64.194-31.691-26.156 0-49.405 12.415-64.193 31.691h43.336l5.812 8.64h27.659l5.693-8.64h45.887z"/>
    <path fill="#918f90" d="M86.0001 59.9826c-14.373 0-26.017 11.664-26.017 26.037s11.644 26.037 26.017 26.037 26.037-11.664 26.037-26.037-11.664-26.037-26.037-26.037m0 106.917c-44.661 0-80.88-36.199-80.88-80.88 0-18.524 6.228-35.586 16.686-49.208h43.337l5.812 8.64h27.658l5.694-8.64h45.906c10.459 13.622 16.686 30.684 16.686 49.208 0 44.681-36.218 80.88-80.899 80.88"/>
    <path fill="#bdbcbc" d="M86.0001 61.9003c-13.325 0-24.12 10.795-24.12 24.12 0 13.325 10.795 24.119 24.12 24.119 13.325 0 24.139-10.794 24.139-24.119s-10.814-24.12-24.139-24.12m0 50.157c-14.373 0-26.017-11.665-26.017-26.037 0-14.373 11.644-26.038 26.017-26.038s26.037 11.665 26.037 26.038c0 14.372-11.664 26.037-26.037 26.037"/>
    <path fill="#918f90" d="M86.0001 63.4424c-12.455 0-22.558 10.122-22.558 22.577 0 12.456 10.103 22.558 22.558 22.558 12.475 0 22.577-10.102 22.577-22.558 0-12.455-10.102-22.577-22.577-22.577m0 46.697c-13.325 0-24.12-10.795-24.12-24.12 0-13.325 10.795-24.119 24.12-24.119 13.325 0 24.139 10.794 24.139 24.119s-10.814 24.12-24.139 24.12"/>
    <path fill="#4f4c4d" d="M86.0001 74.1182c-6.959 0-12.594 5.635-12.594 12.594s5.635 12.613 12.594 12.613 12.613-5.654 12.613-12.613-5.654-12.594-12.613-12.594m0 34.459c-12.455 0-22.558-10.102-22.558-22.557 0-12.455 10.103-22.578 22.558-22.578 12.475 0 22.577 10.123 22.577 22.578s-10.102 22.557-22.577 22.557"/>
    <path fill="none" stroke="#353132" stroke-width="1.977" stroke-miterlimit="10" d="M86.0001 74.1182c-6.959 0-12.594 5.635-12.594 12.594s5.635 12.613 12.594 12.613 12.613-5.654 12.613-12.613-5.654-12.594-12.613-12.594zm0 34.459c-12.455 0-22.558-10.102-22.558-22.557 0-12.455 10.103-22.578 22.558-22.578 12.475 0 22.577 10.123 22.577 22.578s-10.102 22.557-22.577 22.557z"/>
    <path fill="#fff" d="M77.7656 26.9951v1.539c.036.031.069.081.101.081 1.964 0 3.929.056 5.889-.029 1.071-.048 1.903-1.252 1.834-2.382-.069-1.162-1.018-2.112-2.204-2.131-1.745-.028-3.49-.01-5.235-.01-1.305-.002-2.608-.012-3.911.004-1.401.015-2.221.843-2.225 2.215-.003 1.004 0 2.009 0 3.113h3.227c0-.847-.003-1.649 0-2.449.004-1.005.1-1.102 1.088-1.103 1.635-.001 3.27-.001 4.905 0 .132 0 .265-.004.398.005.379.028.698.211.597.604-.057.216-.386.502-.605.514-.991.057-1.988.028-2.982.029h-.877zm-7.9804 1.6777v-1.657h-7.598c-.116-.885.11-1.166.891-1.17 2.124-.009 4.245-.003 6.369-.004h.849v-1.737c-.231-.013-.465-.041-.699-.041-2.765-.002-5.529-.006-8.293 0-1.674.005-2.431.769-2.424 2.413.003.94 0 1.878 0 2.868h3.177c.168-.611.661-.683 1.231-.677 1.858.014 3.716.005 5.573.005h.924zm-12.7814 1.2626h-17.402v1.774c.208.02.378.053.549.053 5.016.002 10.034.006 15.05-.002 1.154-.001 1.853-.711 1.803-1.825m39.8158-2.1548v1.571h3.21v-5.234h-3.16c-.022.485-.043.957-.069 1.521h-5.736v2.142h5.755zm25.834-3.6925v1.715c.289.015.545.04.801.042 1.593.004 3.184-.003 4.776.004.739.004.905.166.912.884.009.853.003 1.705.003 2.612h3.253c0-.44.003-.888-.001-1.336-.005-.614-.017-1.23-.027-1.844-.015-1.112-.728-2.031-1.823-2.057-2.602-.063-5.208-.02-7.894-.02m-50.5728 5.8631c-.117 1.036.588 1.79 1.706 1.808 1.282.02 2.566.005 3.847.005h7.926v-1.813h-13.479zm60.2398-.0076h-13.363c-.016.24-.038.431-.042.623-.005.368-.001.736-.001 1.131.217.03.365.067.512.067 3.713.004 7.424.011 11.137-.001 1.12-.003 1.811-.714 1.757-1.82m-45.0924.005c.02 1.09.634 1.796 1.644 1.804 3.178.024 6.356.024 9.534-.001 1.001-.008 1.666-.791 1.603-1.803h-12.781zM58.899 31.716h11.407v-1.774H58.899v1.774zm-5.107-2.375h3.226v-5.228h-3.226v5.228zm-14.192.021h3.149v-5.253H39.6v5.253zm47.592-.016h3.195v-5.235h-3.195v5.235zM49.858 24.1h-3.132v5.24h3.132V24.1zm69.095 5.255h3.177V24.12h-3.177v5.235zm-1.7457.8687v-.269h-11.05v.269c0 .807.698 1.471 1.546 1.471h7.957c.849 0 1.547-.664 1.547-1.471m0-4.3763v-.269c0-.807-.698-1.453-1.547-1.453h-7.957c-.848 0-1.546.646-1.546 1.453v3.802h2.414v-2.977c0-.305.264-.556.585-.556h8.051zm-15.7866 8.1177l-.039-.198-.08-.296-.316-.079h-5.278v1.127c-.257-.752-.475-1.167-1.246-1.167-.218 0-.494.04-.85.079l-.455.06h-.039c-.178-.099-.317-.139-.554-.139h-.059c-.574.02-1.147.02-1.72.02h-2.768c-1.384.02-2.412.771-2.788 1.977v-1.977h-4.112c-.296 0-.613 0-.929.02-1.305.099-2.432 1.285-2.471 2.609v.158c-.099-.533-.317-1.047-.633-1.482-.593-.791-1.443-1.246-2.353-1.285-.553-.02-1.087-.04-1.641-.04l-3.064.02v3.677h1.661c-.554.317-1.028.811-1.345 1.503-.593 1.225-.494 2.471.277 3.618.593.85 1.384 1.324 2.274 1.364.613.02 1.206.02 1.819.02h2.985v-1.661h.02v-.949c.019 1.265 1.107 2.491 2.293 2.55.652.04 1.305.06 1.977.06l3.282-.02v-1.859c.375 1.167 1.364 1.859 2.728 1.898h4.508v-1.996h-.02v-1.345h.039v-3.4l1.622 4.962c.415 1.285 1.206 1.937 2.332 1.937.159 0 .337-.019.534-.039.85-.138 1.463-.652 1.74-1.463.692-2.116 1.364-4.231 2.056-6.346l.613-1.918z"/>
    <path fill="#231f20" d="M100.9803 33.7958h-4.875v1.14h3.341c-.243.735-.444 1.333-.638 1.934-.485 1.496-.938 3.005-1.47 4.482-.129.358-.477.801-.795.875-.535.124-.709-.431-.858-.891-.741-2.293-1.504-4.578-2.221-6.879-.168-.541-.414-.723-.958-.709-1.496.041-2.993.004-4.49.018-1.516.013-2.508 1.005-2.541 2.575-.03 1.413-.032 2.829.001 4.242.037 1.594.996 2.564 2.528 2.586 1.349.019 2.698.004 4.095.004v-1.2c-1.159 0-2.312-.001-3.465 0-1.626 0-1.999-.393-2-2.107 0-1.067-.004-2.134.002-3.201.006-1.142.526-1.698 1.6-1.709.872-.01 1.745-.002 2.661-.002v3.722h-2.219v1.158h3.458v-4.904c.063-.007.126-.014.189-.022.732 2.254 1.464 4.508 2.194 6.763.417 1.289 1.185 1.813 2.424 1.623.689-.106 1.2-.508 1.425-1.19.896-2.707 1.765-5.424 2.64-8.139.014-.04-.014-.095-.028-.169m-30.5532-.0249v1.187c1.301 0 2.576-.014 3.851.004 1.068.016 1.865.79 1.903 1.804.038.991-.751 1.839-1.8 1.912-.427.03-.858-.011-1.282.035-.652.07-1.128.685-1.127 1.396 0 .721.471 1.364 1.129 1.384 1.395.04 2.791.012 4.224.012v-1.174h-4.101c-.001-.132-.002-.263-.003-.395.391-.018.781-.042 1.173-.051 1.474-.034 2.539-.893 2.906-2.352.449-1.781-.83-3.677-2.59-3.75-1.397-.058-2.798-.012-4.283-.012"/>
    <path fill="#231f20" d="M70.4155 35.4234v1.226h4.115c0 .115.001.23.001.345-.419.017-.839.042-1.259.049-1.178.02-2.054.584-2.57 1.669-.526 1.105-.446 2.212.248 3.227.475.697 1.131 1.169 1.958 1.195 1.446.047 2.894.013 4.398.013v-1.176c-1.299 0-2.599.022-3.897-.006-1.29-.028-2.127-1.231-1.737-2.444.234-.73.902-1.219 1.76-1.27.403-.024.809.006 1.21-.035.65-.066 1.143-.679 1.15-1.38.008-.7-.484-1.383-1.119-1.401-1.395-.039-2.793-.012-4.258-.012m14.4588 7.7091v-1.16c-1.286 0-2.56.001-3.834 0-1.339-.002-1.805-.475-1.814-1.861-.007-1.116-.003-2.232.005-3.347.01-1.288.504-1.807 1.719-1.81 1.277-.004 2.554-.001 3.879-.001v-1.191c-.953 0-1.891-.002-2.83.001-.593.001-1.188-.02-1.779.022-1.089.077-2.079 1.095-2.108 2.234-.04 1.635-.037 3.272 0 4.908.024 1.047.908 2.125 1.909 2.181 1.602.09 3.212.024 4.853.024m11.1598-6.3584h.98c-.153.473-.282.873-.411 1.274-.057-.003-.113-.007-.169-.01-.123-.388-.246-.776-.4-1.264m-2.387-2.952c.827 2.555 1.631 5.055 2.455 7.548.058.177.24.364.405.424.091.033.345-.162.392-.304.672-1.998 1.321-4.004 1.994-6.065h-2.793c-.031.296-.059.56-.086.824-.04.014-.08.029-.12.043-.159-.462-.322-.924-.477-1.388-.409-1.232-.408-1.232-1.77-1.082m-4.1518 3.072c-.357.105-.57.167-.824.241v1.054h1.811v-2.761c-.926 0-1.846-.053-2.755.035-.236.023-.607.478-.619.749-.062 1.486-.043 2.976-.026 4.465.006.522.312.828.816.832 1.375.014 2.751.005 4.189.005v-1.18c-1.035 0-2.051-.029-3.064.01-.621.025-.861-.202-.822-.857.042-.693.003-1.39.011-2.084.01-.829.393-1.029 1.283-.509"/>
    <path fill="#231f20" d="M80.905 36.6941c1.278-.238 2.603.011 3.928-.139v-1.125c-1.516 0-3.002-.037-4.484.037-.236.012-.59.495-.644.806-.103.597-.03 1.228-.03 1.908h4.218v-1.113h-2.949c-.013-.125-.026-.249-.039-.374m3.9696 4.8089v-1.118c-1.315-.187-2.664.119-3.956-.167.004-.102.009-.205.013-.307h2.963v-1.169h-4.206c0 .686-.059 1.401.031 2.095.032.249.419.627.655.636 1.487.059 2.977.03 4.5.03"/>
  </g>
  <path fill="#d40000" d="M109.7733 64.195999zm0-1.258282zm0-1.238518zm0 .619268zm0 2.496791zm0-1.258274zm0-2.477034z"/>
</svg>
