<?xml version="1.0" encoding="utf-8"?>
<!-- Generator: Adobe Illustrator 19.0.0, SVG Export Plug-In . SVG Version: 6.00 Build 0)  -->
<svg version="1.1" baseProfile="tiny"
	 id="svg2" xmlns:rdf="http://www.w3.org/1999/02/22-rdf-syntax-ns#" xmlns:dc="http://purl.org/dc/elements/1.1/" xmlns:inkscape="http://www.inkscape.org/namespaces/inkscape" xmlns:sodipodi="http://sodipodi.sourceforge.net/DTD/sodipodi-0.dtd" xmlns:cc="http://creativecommons.org/ns#" xmlns:svg="http://www.w3.org/2000/svg" sodipodi:docname="console_dc_test.svg" inkscape:version="0.91 r13725" inkscape:export-filename="/home/rockaddicted/Bureau/console_dc_test.svg.png" inkscape:export-ydpi="90" inkscape:export-xdpi="90" xmlns:osb="http://www.openswatchbook.org/uri/2009/osb"
	 xmlns="http://www.w3.org/2000/svg" xmlns:xlink="http://www.w3.org/1999/xlink" x="0px" y="0px" viewBox="-62 141.1 485.3 510.9"
	 xml:space="preserve">
<sodipodi:namedview  inkscape:cy="268.22935" inkscape:cx="319.75979" inkscape:zoom="1.28" showgrid="false" guidetolerance="10" gridtolerance="10" objecttolerance="10" borderopacity="1" bordercolor="#666666" id="namedview4" pagecolor="#ffffff" inkscape:current-layer="g4522" inkscape:window-maximized="1" inkscape:window-y="86" inkscape:window-x="1729" inkscape:window-height="876" inkscape:pageshadow="2" inkscape:pageopacity="0" inkscape:window-width="1551">
	</sodipodi:namedview>
<g>
	<g id="g20" transform="translate(385.5997,408.4282)">
		<path id="path22" inkscape:connector-curvature="0" fill="#A7A8A8" d="M34.4-267l-63.3,133.3c-0.7-1-1.4-2-2.1-3l61.5-130.6
			C32.1-267.3,33.4-267.2,34.4-267"/>
	</g>
	<g id="g24" transform="translate(55.0118,304.2107)">
		<path id="path26" inkscape:connector-curvature="0" fill="#A7A8A8" d="M-48.2-32.5c-0.7,1-1.4,2-2.1,3l-63.3-133.3
			c1-0.2,2.2-0.3,3.9-0.3L-48.2-32.5z"/>
	</g>
	<g id="g28" transform="translate(382.464,408.6867)">
		<path id="path30" inkscape:connector-curvature="0" fill="#E4E5E4" d="M33.6-267.5L-27.9-137c-38.4-54.7-102-90.4-173.9-90.4
			s-135.4,35.7-173.9,90.4l-61.6-130.6c1,0,2.1,0,3.3,0H30.3C31.6-267.6,32.6-267.6,33.6-267.5"/>
	</g>
	<g id="g32" transform="translate(388.2529,400.3307)">
		<path id="path34" inkscape:connector-curvature="0" fill="#DEDFDE" d="M35.1-248.7v380.7c0,0-0.3,98.9-6.7,106.3
			c-3.1,3.6-58.5,8.6-114.9,10.9c-60,2.6-121.1,2.5-121.1,2.5s-61.1,0.1-121.1-2.5c-56.4-2.4-111.8-7.3-114.9-10.9
			c-6.4-7.5-6.7-106.3-6.7-106.3v-380.7c0-7.1,0-9.4,3.3-10.1l63.3,133.3c0.7-1,1.4-2,2.1-3c38.5-54.7,102-90.4,173.9-90.4
			s135.4,35.7,173.9,90.4c0.7,1,1.4,2,2.1,3l63.3-133.3C35.1-258.1,35.1-255.9,35.1-248.7"/>
	</g>
	<g id="g36" transform="translate(326.6769,206.3679)">
		<path id="path38" inkscape:connector-curvature="0" fill="#E4E5E4" d="M19.7,187.7c0,91.6-74.2,165.8-165.7,165.8
			c-91.5,0-165.7-74.3-165.7-165.8c0-25.7,5.9-50.1,16.3-71.8c26.7-55.6,83.6-94,149.4-94c66.1,0,123.3,38.8,149.8,94.9
			C14,138.3,19.7,162.3,19.7,187.7"/>
	</g>
	<g id="g40" transform="translate(364.1497,206.3679)">
		<path id="path42" inkscape:connector-curvature="0" fill="#A7A8A8" d="M29,187.7c0,117.5-95.1,212.7-212.5,212.7
			c-117.4,0-212.5-95.2-212.5-212.7c0-44.2,13.5-85.3,36.5-119.3c0.7-1,1.4-2,2.1-3l1.8,3.7c-23.2,33.7-36.8,74.5-36.8,118.6
			c0,115.5,93.6,209.2,209,209.2c115.4,0,208.9-93.6,208.9-209.2c0-44-13.6-84.9-36.8-118.6l1.8-3.7c0.7,1,1.4,2,2.1,3
			C15.6,102.4,29,143.5,29,187.7"/>
	</g>
	<g id="g44" transform="translate(333.2411,304.2107)">
		<path id="path46" inkscape:connector-curvature="0" fill="#A7A8A8" d="M21.3-32.5l-1.8,3.7c-37.7-54.7-100.7-90.6-172.1-90.6
			c-71.4,0-134.4,35.8-172.1,90.5c0,0,0,0,0,0l-1.8-3.7c38.5-54.7,102-90.4,173.9-90.4S-17.1-87.2,21.3-32.5"/>
	</g>
	<g id="g48" transform="translate(180.4725,36.7323)">
		<path id="path50" inkscape:connector-curvature="0" fill="#D65725" d="M-16.9,569.4l17.1,36.9l17.1-36.9"/>
	</g>
	<g id="g52" transform="translate(25.4384,42.2042)">
		<path id="path54" inkscape:connector-curvature="0" fill="#A7A8A8" d="M-55.6,557c-9.5-25.1-7.8-35,3.7-42.1
			c17-10.5,44.4,18.1,47.6,33.3c3.4,16.6-5.3,31.6-18.7,33.9C-36.4,584.5-50.1,571.5-55.6,557"/>
	</g>
	<g id="g56" transform="translate(28.1279,40.8758)">
		<path id="path58" inkscape:connector-curvature="0" fill="#BBBBBB" d="M-55,560c-2.8-15.3,5.8-29.5,19.2-31.8
			c13.4-2.3,26.5,8.2,29.3,23.5c2.8,15.3-5.9,29.5-19.3,31.8C-39.1,585.8-52.2,575.3-55,560"/>
	</g>
	<g id="g60" transform="translate(33.7956,41.8551)">
		<path id="path62" inkscape:connector-curvature="0" fill="#C1C3C2" d="M-53.6,557.8c-2-10.8,4.1-20.9,13.6-22.5
			c9.5-1.6,18.7,5.8,20.7,16.6c2,10.8-4.2,20.9-13.7,22.5C-42.3,576.1-51.6,568.6-53.6,557.8"/>
	</g>
	<g id="g64" transform="translate(313.9619,263.0854)">
		<path id="path66" inkscape:connector-curvature="0" fill="#E4E5E4" d="M16.5,60.1C-10,3.9-67.2-34.9-133.3-34.9
			c-65.8,0-122.7,38.4-149.4,94l-22.7-46.8c37.7-54.7,100.7-90.5,172.1-90.5c71.4,0,134.4,35.9,172.1,90.6L16.5,60.1z"/>
	</g>
	<g id="g68" transform="translate(362.8214,42.2042)">
		<path id="path70" inkscape:connector-curvature="0" fill="#A7A8A8" d="M28.7,557c9.5-25.1,7.8-35-3.8-42.1
			C8,504.4-19.4,533-22.6,548.2c-3.4,16.6,5.3,31.6,18.7,33.9C9.5,584.5,23.2,571.5,28.7,557"/>
	</g>
	<g id="g72" transform="translate(360.1319,40.8758)">
		<path id="path74" inkscape:connector-curvature="0" fill="#BBBBBB" d="M28,560c2.8-15.3-5.8-29.5-19.2-31.8
			c-13.4-2.3-26.5,8.2-29.3,23.5c-2.8,15.3,5.9,29.5,19.3,31.8C12.2,585.8,25.3,575.3,28,560"/>
	</g>
	<g id="g76" transform="translate(337.8986,28.5696)">
		<path id="path78" inkscape:connector-curvature="0" fill="#C1C3C2" d="M22.5,587.7C13,586.1,6.9,576,8.8,565.2
			c2-10.8,11.3-18.2,20.7-16.6c9.5,1.7,15.6,11.7,13.6,22.5C41.2,581.9,31.9,589.3,22.5,587.7"/>
	</g>
	<g id="g80" transform="translate(21.4207,127.3149)">
		<path id="path82" inkscape:connector-curvature="0" fill="#C1C3C2" d="M-56.6,365.5c0-2.8,2.3-5,5-5c2.8,0,5,2.3,5,5
			c0,2.8-2.3,5-5,5C-54.4,370.6-56.6,368.3-56.6,365.5"/>
	</g>
	<g id="g84" transform="translate(5.3427,203.6716)">
		<path id="path86" inkscape:connector-curvature="0" fill="#C1C3C2" d="M-60.7,193.7c0-2.8,2.3-5,5-5c2.8,0,5,2.2,5,5
			c0,2.8-2.3,5-5,5C-58.4,198.8-60.7,196.5-60.7,193.7"/>
	</g>
	<g id="g88" transform="translate(9.3604,164.8136)">
		<path id="path90" inkscape:connector-curvature="0" fill="#C1C3C2" d="M-59.7,281.2c0-2.8,2.3-5,5-5c2.8,0,5,2.2,5,5
			c0,2.8-2.3,5-5,5C-57.4,286.2-59.7,283.9-59.7,281.2"/>
	</g>
	<g id="g92" transform="translate(21.4207,280.0662)">
		<path id="path94" inkscape:connector-curvature="0" fill="#C1C3C2" d="M-56.6,21.9c0,2.8,2.3,5,5,5c2.8,0,5-2.3,5-5
			c0-2.8-2.3-5-5-5C-54.4,16.8-56.6,19.1-56.6,21.9"/>
	</g>
	<g id="g96" transform="translate(9.3604,242.5365)">
		<path id="path98" inkscape:connector-curvature="0" fill="#C1C3C2" d="M-59.7,106.3c0,2.8,2.3,5,5,5c2.8,0,5-2.3,5-5
			c0-2.8-2.3-5-5-5C-57.4,101.3-59.7,103.5-59.7,106.3"/>
	</g>
	<g id="g100" transform="translate(366.8391,127.3149)">
		<path id="path102" inkscape:connector-curvature="0" fill="#C1C3C2" d="M29.7,365.5c0-2.8-2.3-5-5-5c-2.8,0-5,2.3-5,5
			c0,2.8,2.3,5,5,5C27.5,370.6,29.7,368.3,29.7,365.5"/>
	</g>
	<g id="g104" transform="translate(382.9154,203.6716)">
		<path id="path106" inkscape:connector-curvature="0" fill="#C1C3C2" d="M33.7,193.7c0-2.8-2.3-5-5-5c-2.8,0-5,2.2-5,5
			c0,2.8,2.3,5,5,5C31.5,198.8,33.7,196.5,33.7,193.7"/>
	</g>
	<g id="g108" transform="translate(378.8942,164.8136)">
		<path id="path110" inkscape:connector-curvature="0" fill="#C1C3C2" d="M32.7,281.2c0-2.8-2.3-5-5-5c-2.8,0-5,2.2-5,5
			c0,2.8,2.3,5,5,5C30.5,286.2,32.7,283.9,32.7,281.2"/>
	</g>
	<g id="g112" transform="translate(366.8391,280.0662)">
		<path id="path114" inkscape:connector-curvature="0" fill="#C1C3C2" d="M29.7,21.9c0,2.8-2.3,5-5,5c-2.8,0-5-2.3-5-5
			c0-2.8,2.3-5,5-5C27.5,16.8,29.7,19.1,29.7,21.9"/>
	</g>
	<g id="g116" transform="translate(378.8942,242.5365)">
		<path id="path118" inkscape:connector-curvature="0" fill="#C1C3C2" d="M32.7,106.3c0,2.8-2.3,5-5,5c-2.8,0-5-2.3-5-5
			c0-2.8,2.3-5,5-5C30.5,101.3,32.7,103.5,32.7,106.3"/>
	</g>
	<g id="g120" transform="translate(238.4391,241.1587)">
		<path id="path122" inkscape:connector-curvature="0" fill="#DEDFDE" d="M-2.4,109.4v14.3c0,3.2-2.6,5.8-5.8,5.8h-93.7
			c-3.2,0-5.8-2.6-5.8-5.8v-14.3c0-3.2,2.6-5.8,5.8-5.8h11.4c2.9,0,5.2-2.3,5.2-5.2V84.9c0-16.9,13-31.5,29.9-32.2
			c18-0.8,32.9,13.5,32.9,31.4v14.4c0,2.9,2.3,5.2,5.2,5.2h9.1C-5,103.6-2.4,106.2-2.4,109.4"/>
	</g>
	<g id="g124" transform="translate(190.1621,231.6708)">
		<path id="path126" inkscape:connector-curvature="0" d="M-14.5,130.7c-0.1,0-0.3,0.3-0.4,0.3c-0.3,0.1-0.6,0.2-0.8,0.3
			c-0.3,0-0.6,0.1-0.8,0.1c-0.4,0-0.8-0.1-1-0.3c-0.3-0.2-0.3-0.1-0.5-0.4c-0.2-0.3-0.5-0.7-0.5-1c0-0.3,0-0.5,0-0.7
			c0-0.2,0.1-0.3,0.3-0.5c0.2-0.2,0.3-0.4,0.6-0.6c0.3-0.1,0.5-0.2,0.9-0.3c0.2-0.1,0.5-0.1,1-0.2c0.3,0,0.8,0,0.9-0.1
			c0.2,0,0.3,0,0.5-0.1c0.1-0.1,0.3-0.1,0.4-0.2c0.1-0.1,0.2-0.1,0.4-0.3l0,2c0,0,0,0.9-0.3,1.3C-14.2,130.5-14.5,130.7-14.5,130.7
			 M-19.1,123.9c0.5-0.2,0.8-0.3,1.1-0.5c0.3-0.1,0.6-0.2,1.1-0.3c0.4-0.1,0.7-0.1,1.2-0.1c0.4,0,0.9,0.2,1.3,0.3
			c0.3,0.1,0.6,0.4,0.7,0.7c0.2,0.2,0.3,0.3,0.3,0.7v0.3c0,0.1-0.1,0.2-0.2,0.3c-0.1,0.1-0.2,0.3-0.3,0.3c-0.1,0.1-0.2,0.2-0.3,0.3
			c-0.2,0.1-0.3,0.1-0.5,0.2c-0.2,0.1-0.4,0-0.7,0.1c-0.9,0.1-1.5,0.2-1.9,0.3c-0.4,0.1-0.6,0.2-0.9,0.3c-0.3,0.1-0.4,0.3-0.7,0.5
			c-0.3,0.2-0.3,0.4-0.5,0.6c-0.1,0.2-0.3,0.4-0.3,0.7c0,0.3-0.1,0.6-0.1,0.9c0,0.5,0.1,0.9,0.3,1.4c0.2,0.4,0.6,0.8,1.1,1
			c0.5,0.2,1.1,0.5,1.9,0.5h0.8c0.3,0,0.5-0.1,1-0.2c0.2-0.2,0.5-0.3,0.8-0.6c0.3-0.3,0.5-0.5,0.5-0.5v1.1h0.9h1
			c-0.2-0.8-0.3-0.9-0.2-1.4c0-0.9-0.1-3,0-4.1c0-1.1,0-0.8,0-1.3c0-0.4-0.2-1-0.3-1.4c-0.1-0.3-0.3-0.6-0.6-0.9
			c-0.3-0.3-0.9-0.7-1.3-0.9c-0.5-0.1-0.9-0.2-1.4-0.2c-0.5,0-1.3,0-1.8,0.1c-0.5,0.1-0.9,0.2-1.7,0.4
			C-19.1,123.2-19.1,123.6-19.1,123.9"/>
	</g>
	<g id="g128" transform="translate(217.9902,231.7742)">
		<path id="path130" inkscape:connector-curvature="0" d="M-7.5,130.5c-0.1,0-0.3,0.3-0.5,0.3c-0.3,0.1-0.5,0.2-0.7,0.3
			c-0.3,0-0.6,0.1-0.8,0.1c-0.4,0-0.8-0.1-1.1-0.3c-0.3-0.2-0.3-0.1-0.5-0.4c-0.2-0.3-0.5-0.7-0.5-1c0-0.3,0-0.5,0-0.7
			c0.1-0.2,0.1-0.3,0.3-0.5c0.2-0.2,0.3-0.4,0.6-0.6c0.2-0.1,0.5-0.2,0.9-0.3c0.2-0.1,0.5-0.1,1-0.2c0.2,0,0.8,0,0.9-0.1
			c0.1,0,0.3-0.1,0.4-0.1c0.2-0.1,0.3-0.1,0.4-0.2c0.1-0.1,0.2-0.1,0.4-0.3v2c0,0,0,0.8-0.3,1.3C-7.2,130.3-7.5,130.5-7.5,130.5
			 M-12.1,123.7c0.4-0.2,0.8-0.3,1.1-0.5c0.3-0.1,0.7-0.2,1.1-0.3c0.4-0.1,0.8-0.1,1.2-0.1c0.4,0,1,0.2,1.3,0.3
			c0.3,0.1,0.6,0.4,0.8,0.7c0.2,0.2,0.2,0.4,0.3,0.8c0,0.1,0,0.2,0,0.3c0,0.1-0.1,0.1-0.2,0.2c-0.1,0.1-0.2,0.3-0.3,0.3
			c-0.1,0.1-0.2,0.2-0.4,0.3c-0.1,0.1-0.3,0.1-0.5,0.2c-0.2,0.1-0.4,0-0.7,0.1c-0.9,0.1-1.6,0.2-1.9,0.3c-0.4,0.1-0.6,0.2-0.9,0.3
			c-0.3,0.1-0.4,0.3-0.7,0.5c-0.3,0.2-0.3,0.3-0.5,0.6c-0.1,0.2-0.2,0.5-0.3,0.7c-0.1,0.3-0.2,0.6-0.2,0.9c0,0.5,0.1,0.9,0.3,1.4
			c0.3,0.4,0.6,0.8,1.1,1c0.5,0.2,1.1,0.5,2,0.5h0.8c0.3,0,0.6-0.1,1-0.2c0.2-0.2,0.6-0.3,0.9-0.6c0.3-0.3,0.5-0.5,0.5-0.5v1.1h0.9
			h1c-0.2-0.8-0.3-0.9-0.3-1.4c0-0.9,0-3,0-4.1c0-1.1,0-0.8,0-1.3c0-0.4-0.2-1-0.3-1.4c-0.1-0.3-0.3-0.6-0.6-0.9
			c-0.2-0.3-0.8-0.7-1.3-0.9c-0.5-0.1-0.8-0.2-1.4-0.2c-0.5,0-1.3,0.1-1.8,0.1c-0.6,0.1-0.9,0.2-1.7,0.4
			C-12.1,122.9-12.1,123.4-12.1,123.7"/>
	</g>
	<g id="g132" transform="translate(193.5682,230.4785)">
		<path id="path134" inkscape:connector-curvature="0" d="M-13.6,133.4l0.2-0.7l0-2l-0.1-5.7c0-0.5-0.3-1.1-0.3-1.4
			c0.3,0,0.9-0.1,1.2-0.2c0.2-0.1,0.5-0.1,0.7-0.1v1.3c0.2-0.4,0.6-0.4,0.7-0.6c0.1-0.2,0.3-0.2,0.6-0.4c0.3-0.2,0.4-0.2,0.8-0.3
			c0.4,0,0.7-0.1,1.1-0.1c0.3,0,0.5,0,0.8,0.1c0.3,0,0.5,0.2,0.7,0.3c0.2,0.1,0.4,0.3,0.6,0.4c0.2,0.2,0.3,0.3,0.5,0.6
			c0,0.1,0.4-0.5,1-0.8c0.6-0.3,1.2-0.6,1.9-0.6c0.4,0,1.4,0,1.8,0.2c0.4,0.2,1,0.4,1.3,0.7c0.3,0.3,0.3,0.4,0.6,0.7
			c0.3,0.3,0.4,1.1,0.4,1.4c0,0.3,0,0.9,0,1.5v4.7c0,0.5,0.1,0.5,0.2,1H0.1h-1c0.3-0.8,0.2-0.6,0.2-1l0-4.3c0-0.6,0-0.9,0-1.4
			c0-0.4-0.1-0.9-0.2-1.1c-0.1-0.2-0.5-0.6-0.6-0.8c-0.2-0.2-0.4-0.2-0.7-0.3c-0.2-0.1-0.6-0.1-0.9-0.1c-0.2,0-0.6,0-0.8,0.1
			c-0.2,0.1-0.4,0.1-0.6,0.3c-0.2,0.1-0.3,0.2-0.5,0.4c-0.1,0.2-0.3,0.4-0.4,0.6c-0.1,0.2-0.1,0.6-0.1,1c0,0.4,0,1,0,1.6v4.2
			l0.3,0.9h-1.1h-1c0-0.9,0.1-0.1,0.1-1v-3.9v-2c0-0.3-0.1-0.5-0.1-0.7c-0.1-0.2-0.2-0.6-0.4-0.7c-0.2-0.2-0.6-0.6-0.8-0.6
			c-0.2-0.1-0.6-0.2-0.9-0.2c-0.3,0-0.5,0-0.8,0.2c-0.3,0.1-0.5,0.2-0.7,0.4c-0.2,0.2-0.4,0.3-0.6,0.6c-0.1,0.3-0.3,0.3-0.3,0.8
			c-0.1,0.5-0.1,2.6-0.1,3.9c0,0.8,0,1.5,0,2.2c0,0.4,0.2,0.6,0.2,1h-1C-12.7,133.4-13.2,133.4-13.6,133.4"/>
	</g>
	<g id="g136" transform="translate(212.9145,231.9447)">
		<path id="path138" inkscape:connector-curvature="0" d="M-8.8,130.1c0,0.1,0,0.3-0.1,0.6c0,0.3-0.1,0.6-0.2,0.9
			c-0.4,0.1-0.9,0.3-1.3,0.3c-0.4,0-1.5,0.1-1.8,0.1c-0.6,0-1.4-0.1-2-0.3c-0.6-0.2-1.3-0.6-1.7-1.1c-0.4-0.4-0.9-0.9-1.2-1.6
			c-0.2-0.7-0.4-1.3-0.4-2c0-1,0.1-1.4,0.4-2.3c0.3-0.9,1-1.6,1.7-2.1c0.7-0.5,2.2-0.9,3.4-0.9c0.9,0,1.9,0.1,2.7,0.4
			c0,0.6,0.1,0.9,0.1,1.3c-0.6-0.2-1.2-0.5-1.5-0.6c-0.4,0-0.9-0.1-1.1-0.1c-0.6,0-1.7,0.3-2.1,0.5c-0.4,0.2-0.8,0.5-1.1,0.9
			c-0.3,0.4-0.5,0.9-0.6,1.5c-0.1,0.6-0.2,0.6-0.1,1.2c0,0.8,0.2,1.4,0.4,2c0.3,0.6,0.6,1.1,1.2,1.4c0.5,0.3,1.1,0.6,1.8,0.6
			C-11.6,131-10.2,130.9-8.8,130.1"/>
	</g>
	<g id="g140" transform="translate(221.1896,230.7869)">
		<path id="path142" inkscape:connector-curvature="0" d="M-6.7,132.7l-0.2-0.7c0-0.1-0.2-0.5-0.3-1c1.1,0.6,2.3,1.1,3.2,1.1
			c0.4,0,0.9-0.2,1.2-0.3c0.3-0.1,0.6-0.3,0.8-0.6c0.1-0.2,0.3-0.5,0.3-0.7c0-0.1,0.1-0.3,0-0.5c0-0.1-0.1-0.5-0.2-0.6
			c-0.1-0.1-0.4-0.4-0.6-0.6c-0.2-0.1-0.6-0.4-1.3-0.6c-0.6-0.3-1.4-0.5-1.7-0.8c-0.3-0.2-0.8-0.5-1-0.8s-0.3-0.5-0.5-0.8
			c-0.1-0.3,0-0.6,0-0.9c0-0.4,0.3-0.9,0.5-1.2c0.3-0.4,0.7-0.6,1.2-0.9c0.5-0.2,1.1-0.3,1.8-0.3c0.8,0,1.5,0.2,2.4,0.3
			c0,0.5-0.1,0.9,0,1.3c-0.6-0.4-1.4-0.7-2.1-0.7c-0.4,0-0.8,0.1-1.1,0.2c-0.3,0.1-0.7,0.4-0.9,0.6c-0.1,0.2-0.2,0.4-0.2,0.6
			c0,0.2,0,0.4,0.1,0.6c0,0.1,0.4,0.6,0.6,0.6c0.3,0.1,0.2,0.1,0.4,0.2c0.3,0,1,0.4,1.7,0.7c0.7,0.3,1.4,0.8,1.6,1
			c0.2,0.2,0.5,0.5,0.6,1c0.1,0.3,0.2,0.6,0.2,0.8c0,0.4-0.1,0.4-0.1,0.7c0,0.5-0.1,0.6-0.3,1c-0.3,0.4-0.7,0.8-1.3,1
			c-0.6,0.2-1.1,0.4-1.8,0.4c-0.3,0-0.9,0-1.3,0c-0.4,0-0.7-0.2-1-0.2C-6.1,132.9-6.3,132.9-6.7,132.7"/>
	</g>
	<g id="g144" transform="translate(231.1358,231.4692)">
		<path id="path146" inkscape:connector-curvature="0" d="M-4.2,131.2c-0.1,0.3-0.2,0.5-0.2,1.1c-0.4,0.1-0.6,0.2-0.9,0.2
			c-0.2,0-0.5,0-0.7,0c-0.6,0-1,0-1.3-0.2c-0.3-0.2-0.6-0.4-0.8-0.7c-0.2-0.3-0.3-1.2-0.3-1.8v-0.4c0-0.2,0-0.4,0-1.5l0-4.4h-1.2
			v-0.9l1.2,0c0-0.2,0-1.1,0-1.7c0-0.3-0.2-0.6-0.3-0.8c0.6-0.1,1.4-0.4,1.8-0.5c0,1,0.1,2.4,0.1,3l2.6,0c0,0.4,0,0.6,0,1l-0.7-0.1
			h-1.9l0,5.6v0.5c0,0.5,0.1,1.1,0.2,1.4c0.1,0.3,0.3,0.3,0.5,0.5c0.2,0.1,0.4,0.1,0.6,0.1H-5C-4.8,131.4-4.7,131.3-4.2,131.2"/>
	</g>
	<g id="g148" transform="translate(184.7126,231.9068)">
		<path id="path150" inkscape:connector-curvature="0" d="M-15.8,130.2c0,0.4-0.2,0.8-0.2,1.4c-0.6,0.2-1.5,0.5-2,0.6
			c-0.4,0-0.9,0-1.3,0c-0.8,0-1.5-0.2-2.2-0.4c-0.6-0.2-1.2-0.6-1.7-1.1c-0.5-0.5-0.9-1.1-1.1-1.7c-0.2-0.7-0.3-1.3-0.3-2
			c0-1,0.1-1.4,0.4-2.3c0.3-0.9,1-1.5,1.7-2c0.7-0.5,1.5-0.7,2.6-0.7c0.6,0,1.2,0,1.7,0.2c0.5,0.2,0.9,0.4,1.3,0.7
			c0.3,0.4,0.6,0.8,0.9,1.3c0.2,0.6,0.3,0.6,0.3,1.2c0.1,0.3,0.1,0.8,0.1,1l-7.3,0v0.7c0,0.7,0.1,1.4,0.4,2c0.3,0.6,0.7,1,1.2,1.3
			c0.6,0.3,1.2,0.6,1.9,0.6C-18.4,131.1-17,130.8-15.8,130.2 M-22.5,125.4h5.3c0-0.4,0-0.3,0-0.6c0-0.2-0.1-0.4-0.3-0.7
			c-0.1-0.3-0.3-0.4-0.6-0.6c-0.2-0.2-0.4-0.3-0.7-0.5c-0.3-0.1-0.7-0.1-1-0.1c-0.3,0-0.6,0.1-0.9,0.2c-0.3,0.1-0.6,0.3-0.8,0.5
			c-0.3,0.2-0.4,0.4-0.6,0.6c-0.2,0.3-0.3,0.5-0.3,0.8l0,0.1C-22.5,125.1-22.5,125.1-22.5,125.4"/>
	</g>
	<g id="g152" transform="translate(172.7919,230.2735)">
		<path id="path154" inkscape:connector-curvature="0" d="M-18.8,133.9c0-0.2,0.2-0.5,0.2-0.6c0-3.2,0-5.7-0.1-7.7l0-0.9l-0.3-0.7
			c0.3,0,0.7-0.1,0.9-0.1c0.2,0,0.8-0.1,1-0.1v1.8c0.2-0.4,0.3-0.4,0.4-0.6c0.1-0.2,0.4-0.5,0.6-0.6c0.2-0.1,0.4-0.3,0.7-0.4
			c0.3-0.1,0.5-0.2,0.8-0.2c0.3,0,0.5,0,1.1,0c0.6,0.1,0.9,0.2,1.1,0.3c0,0.3-0.4,1.4-0.4,1.4s-0.5,0-0.9-0.2
			c-0.4-0.1-0.6-0.1-0.9-0.1c-0.3,0-0.8,0.1-1.1,0.2c-0.3,0.1-0.6,0.3-0.8,0.6c-0.2,0.3-0.3,0.6-0.5,0.9c-0.1,0.3-0.1,0-0.1,0.5
			c0,0.5,0,5.1,0,6.1l0.2,0.6h-1C-18,133.8-18.5,133.9-18.8,133.9"/>
	</g>
	<g id="g156" transform="translate(160.7713,230.2425)">
		<path id="path158" inkscape:connector-curvature="0" d="M-21.8,134l0.3-1v-12.1c0-0.4-0.2-0.7-0.4-1.4c0.9,0,2.3,0,2.9,0
			c0.3,0,0.9,0,1.7,0c0.8,0,1.4,0,1.8,0c1.1,0.1,1.4,0.1,2.1,0.3c0.6,0.1,1.6,0.7,2.1,1.1c0.5,0.3,1,0.7,1.4,1.3
			c0.4,0.6,0.6,0.7,0.8,1.4c0.3,0.9,0.6,1.8,0.6,2.7c0.1,1.2,0,2.1-0.4,3.2c-0.4,1.1-1.1,1.9-1.9,2.6c-0.7,0.8-1.5,1.2-2.5,1.4
			c-0.9,0.2-2,0.4-3.2,0.4h-2.8L-21.8,134z M-19.3,132.8c0.8,0,1.5,0,2.2,0c0.6,0,1.2,0,1.8-0.1c0.6-0.1,1.1-0.3,1.5-0.5
			c0.5-0.2,0.9-0.4,1.4-0.9c0.5-0.4,0.8-0.9,1.1-1.4c0.3-0.6,0.5-1.1,0.6-1.8c0.1-0.7,0.2-1.4,0.2-2c0-0.8-0.3-1.4-0.5-2
			c-0.2-0.7-0.6-1.5-1.1-2c-0.6-0.5-1-0.8-1.7-1c-0.6-0.2-1.5-0.4-2.5-0.4c-0.6,0-1.5,0-1.8,0.1c-0.4,0-0.8,0.1-1.3,0.1L-19.3,132.8
			z"/>
	</g>
	<g id="g160" transform="translate(197.6032,258.3721)">
		<path id="path162" inkscape:connector-curvature="0" fill="#EE5507" d="M-12.6,70.7c0-1.7-0.8-1.5-1.4-1.6c-0.6-0.1-2,0.2-3.3-0.1
			c-1.5-0.3-2.3-2.4-2.1-3.4c0.8-2.9,2.7-3.3,4-3.2c1,0,2.9,0.1,5.3,2.2c1.1,0.9,1.7,3.4,1.7,4.8c0,1.7,0,3.7-1.1,4.8
			c-1.7,1.8-6,3.3-8.5,3.2c-9.7-1-9.3-10.1-9.3-10.1s-0.8-3.9,2.5-8.1c0.3-0.3,0.7-1.1,1-1.5c0.3-0.4,0.6-0.5,1-0.8
			c0.4-0.3,0.8-0.5,1.2-0.8c1.1-0.6,2.2-1.2,3.3-1.6c1.7-0.5,3.3-0.6,4.6-0.6c4,0.1,8.3,2.3,10.5,5.7c0.3,0.5,0.6,0.8,0.9,1.2
			C-1.7,61.2-1.4,62-1,63c0.5,1.4,0.3,0.9,0.9,3.1c0.4,1.6,0.6,2.6,0.6,3.6c0,0.5,0.1,1,0.1,1.5c0,1.7,0.3,2.2-0.1,3.5
			c-0.6,2.3-2,4.6-3.2,5.7c-2.1,2.1-4.1,2.7-5.2,3.3c-1.1,0.6-1.6,0.7-3.1,1.2c-1.5,0.6-2.3,0.6-4.9,0.6c-2.6,0-4.7-0.2-5.4-0.3
			c-4.6-1.3-6.3-2.1-8.3-3.8c-5.2-4.1-6.3-12.1-6.3-12.1s-0.6-4.1,0.3-8.3c0.5-2.3,2.8-6.4,4.1-8c1.1-1.4,3.7-3.4,5.2-4.4
			c1.5-1,3.7-2.3,6.2-3c1.2-0.4,2.2-0.6,5-0.7c3.2-0.1,8,0.7,10.8,1.6c2.9,0.9,5.6,2.8,7,4.3c1.4,1.5,4.5,6.1,5,7
			c0.6,0.9,2,5.9,2.2,6.6c0.1,0.6,0.4,2.9,2.6,2.8c2-0.2,1.4-2.5,1.4-2.9c-0.1-0.4-0.8-4.3-1.1-5.4c-0.3-1.1-1.9-3.9-2.3-4.4
			c-0.2-0.3-1.6-2.7-3-4.5c-1.1-1.4-2.1-2.7-3.2-3.4c-2.2-1.4-4.9-2.6-4.9-2.6s-4.7-1.6-7.2-1.9c-2.1-0.3-4.4-0.7-8.2-0.5
			c-3.8,0.3-5.9,1.3-7.3,1.8c-1.4,0.6-4.5,2-6.9,3.9c-2.3,1.9-1.6,1-2.9,2.4c-1.2,1.4-1.6,1.8-2.5,3c-0.9,1.2-2.7,4.8-3.4,7.2
			c-0.3,1-0.7,2.5-0.9,3.9c-0.2,1.2-0.2,2.4-0.1,3.4c0.2,2.1,0.1,2.1,0.1,2.1s1,4,1.5,5.7c0.6,1.6,1.3,3.9,4.6,7.6
			c3.3,3.6,6.3,4.6,7.5,5.1c1.1,0.4,5,1.8,10.1,1.9c5.9,0.1,7.5-1.2,8.5-1.6c1.1-0.5,4.7-2,7.6-4.7c2.9-2.7,3.8-5.7,3.9-5.9
			c0.8-2.3,1.1-6,0.3-9.5c-0.5-2.4-0.9-4.5-1.4-6c-0.9-2.6-1.9-4-2.6-5.1c-0.7-1.1-2.8-2.7-4.1-3.5c-0.6-0.4-1.2-0.8-2.1-1.2
			c-0.9-0.4-2-0.6-3.3-0.9c-1.2-0.3-2.9-0.6-4.2-0.7c-1.2-0.1-2.2,0-2.6,0c-0.6,0-2.6,0.3-5.4,1.8c-1.5,0.8-3.2,1.8-5,3.6
			c-0.6,0.6-1.1,1.3-1.5,1.9c-4,5.5-2.6,11.7-2.6,11.7s0.7,8.3,8,10.7c2.6,0.8,4.9,0.9,6.8,0.6c3.2-0.4,5.5-1.7,7.1-2.6
			c1.6-0.8,2.8-2.2,3.4-3.7c0.6-1.4,0.8-2.8,0.7-4c0-0.7,0-1.6-0.2-2.6C-5.1,65.3-5.9,63-8,61.2l-0.6-0.4c-0.4-0.3-0.7-0.4-1-0.6
			c-1.8-0.9-3.5-1.3-6-1.4c-0.9,0-2.2,0.2-2.9,0.6c-2.9,1.4-4.5,4-4.3,7.3c0.1,3.1,3.1,4.8,3.6,5.3C-19.3,72-12.8,73.6-12.6,70.7"/>
	</g>
	<g id="g164" transform="translate(178.0146,42.0574)">
		<path id="path166" inkscape:connector-curvature="0" fill="#C1C3C2" d="M-17.5,557.4c0,0,40.3,0,40.3,0l21-45.4
			c-13.2,3.4-26.9,5.1-41.1,5.1c-14.2,0-28-1.8-41.1-5.1L-17.5,557.4"/>
	</g>
	<g id="g168" transform="translate(35.5107,44.4102)">
		<path id="path170" inkscape:connector-curvature="0" fill="#8C8C8C" d="M-53.1,552.1c0.2,0.1,0.4,0.1,0.7,0.1
			c1.1,0,1.8-0.5,1.8-1.5c0-0.9-0.7-1.4-1.7-1.4c-0.4,0-0.7,0-0.9,0.1V552.1z M-54,548.7c0.4-0.1,1-0.1,1.7-0.1c0.9,0,1.5,0.2,2,0.6
			c0.4,0.3,0.6,0.8,0.6,1.5c0,0.6-0.2,1.1-0.5,1.5c-0.5,0.5-1.3,0.8-2.1,0.8c-0.3,0-0.5,0-0.7-0.1v2.8H-54V548.7z"/>
	</g>
	<g id="g172" transform="translate(39.6556,44.3431)">
		<path id="path174" inkscape:connector-curvature="0" fill="#8C8C8C" d="M-52.1,552.2c0,1.5,0.8,2.8,2.2,2.8c1.4,0,2.2-1.3,2.2-2.9
			c0-1.4-0.7-2.9-2.2-2.9C-51.3,549.3-52.1,550.7-52.1,552.2 M-46.6,552.1c0,2.4-1.5,3.7-3.3,3.7c-1.9,0-3.2-1.4-3.2-3.6
			c0-2.2,1.4-3.7,3.3-3.7C-47.9,548.6-46.6,550-46.6,552.1"/>
	</g>
	<g id="g176" transform="translate(45.8654,41.573)">
		<path id="path178" inkscape:connector-curvature="0" fill="#8C8C8C" d="M-50.5,558.5l-1.8-7h1l0.8,3.5c0.2,0.9,0.4,1.7,0.5,2.4h0
			c0.1-0.7,0.3-1.5,0.6-2.4l0.9-3.5h0.9l0.9,3.6c0.2,0.8,0.4,1.7,0.5,2.4h0c0.1-0.8,0.3-1.5,0.6-2.4l0.9-3.5h0.9l-2,7h-0.9l-0.9-3.7
			c-0.2-0.9-0.4-1.6-0.5-2.3h0c-0.1,0.7-0.3,1.4-0.5,2.3l-1,3.7H-50.5z"/>
	</g>
	<g id="g180" transform="translate(54.8971,44.2029)">
		<path id="path182" inkscape:connector-curvature="0" fill="#8C8C8C" d="M-48.3,552.5H-51v2.5h3v0.8h-3.9v-7h3.8v0.8H-51v2.2h2.7
			V552.5z"/>
	</g>
	<g id="g184" transform="translate(56.8126,44.5524)">
		<path id="path186" inkscape:connector-curvature="0" fill="#8C8C8C" d="M-47.8,551.8h0.9c1,0,1.6-0.5,1.6-1.3
			c0-0.9-0.7-1.3-1.6-1.3c-0.4,0-0.7,0-0.9,0.1V551.8z M-48.7,548.6c0.5-0.1,1.1-0.1,1.7-0.1c1,0,1.6,0.2,2,0.6
			c0.4,0.3,0.6,0.8,0.6,1.3c0,0.9-0.6,1.5-1.3,1.8v0c0.5,0.2,0.9,0.7,1,1.4c0.2,1,0.4,1.7,0.5,1.9h-0.9c-0.1-0.2-0.3-0.8-0.5-1.7
			c-0.2-1-0.6-1.3-1.4-1.4h-0.9v3h-0.9L-48.7,548.6z"/>
	</g>
	<g id="g188" transform="translate(331.5862,44.3398)">
		<path id="path190" inkscape:connector-curvature="0" fill="#8C8C8C" d="M20.9,552.2c0,1.6,0.9,3.1,2.5,3.1c1.6,0,2.5-1.5,2.5-3.2
			c0-1.5-0.8-3.1-2.5-3.1C21.7,549,20.9,550.5,20.9,552.2 M26.9,552.1c0,2.7-1.6,4.1-3.6,4.1c-2,0-3.5-1.6-3.5-3.9
			c0-2.4,1.5-4,3.6-4C25.5,548.2,26.9,549.8,26.9,552.1"/>
	</g>
	<g id="g192" transform="translate(338.1999,44.4135)">
		<path id="path194" inkscape:connector-curvature="0" fill="#8C8C8C" d="M22.5,552.1c0.2,0.1,0.5,0.1,0.8,0.1
			c1.2,0,1.9-0.6,1.9-1.6c0-1-0.7-1.5-1.8-1.5c-0.4,0-0.8,0-0.9,0.1V552.1z M21.6,548.4c0.5-0.1,1.1-0.2,1.9-0.2
			c1,0,1.7,0.2,2.2,0.6c0.4,0.4,0.7,0.9,0.7,1.6c0,0.7-0.2,1.2-0.6,1.6c-0.5,0.6-1.4,0.8-2.4,0.8c-0.3,0-0.6,0-0.8-0.1v3.1h-1V548.4
			z"/>
	</g>
	<g id="g196" transform="translate(345.4589,44.1857)">
		<path id="path198" inkscape:connector-curvature="0" fill="#8C8C8C" d="M24.4,552.6h-3v2.8h3.3v0.8h-4.3v-7.7h4.2v0.8h-3.2v2.4h3
			V552.6z"/>
	</g>
	<g id="g200" transform="translate(346.7696,41.2964)">
		<path id="path202" inkscape:connector-curvature="0" fill="#8C8C8C" d="M24.7,559.1v-7.7h1.1l2.5,3.9c0.6,0.9,1,1.7,1.4,2.5l0,0
			c-0.1-1-0.1-2-0.1-3.2v-3.2h0.9v7.7h-1l-2.4-3.9c-0.5-0.9-1.1-1.7-1.4-2.6l0,0c0.1,1,0.1,1.9,0.1,3.2v3.3H24.7z"/>
	</g>
</g>
</svg>
