<svg xmlns="http://www.w3.org/2000/svg" width="400" height="64.264313">
  <defs>
    <linearGradient id="a" x2="1" gradientTransform="matrix(0,-46.391461,46.391461,0,200.00002,46.391769)" gradientUnits="userSpaceOnUse">
      <stop offset="0" stop-color="#fff"/>
      <stop offset=".26694311" stop-color="#fff"/>
      <stop offset=".458827" stop-color="#8a9cd7"/>
      <stop offset=".65396032" stop-color="#fff"/>
      <stop offset="1" stop-color="#fff"/>
    </linearGradient>
    <linearGradient id="b" x2="1" gradientTransform="matrix(0,-17.872542,17.872542,0,200.02066,64.264311)" gradientUnits="userSpaceOnUse">
      <stop offset="0" stop-color="#fff"/>
      <stop offset="1" stop-color="#4675c3"/>
    </linearGradient>
    <clipPath id="c">
      <path d="M0 82.668h514.55V0H0v82.668z"/>
    </clipPath>
  </defs>
  <path fill="url(#a)" d="M183.86707.938298c-10.94626 1.305995-21.38645 4.298902-30.74609 10.168108-9.28889 5.830337-19.46477 8.885434-30.06821 10.790788-14.93422 2.673404-30.030907 3.341949-45.181233 3.24089-11.373822-.06996-22.746089-.318725-34.104363.04742-9.677582.317948-19.232339 1.927121-28.405403 5.269848-4.305898 1.56253-8.4034589 3.505976-11.9016613 6.498882C.82557466 39.224179-.3257226 41.983872.0792915 44.845401c.06996404.512293.19434457 1.025362.3653678 1.546983H399.59654c.15548-.497522.27208-1.011369.34205-1.546983.0319-.233991.0474-.474978.0552-.715965.003-.09562.005-.18968.006-.283743v-.1306c-.0256-3.516082-2.0857-5.880867-4.78709-7.849188-5.3095-3.879118-11.37305-6.04023-17.65504-7.594986-11.99417-2.961812-24.21534-3.637353-36.52123-3.537072-11.89389.09329-23.79555.217666-35.68866.02332-10.69751-.171023-21.33204-1.282674-31.79478-3.521524-8.79215-1.873482-17.39772-4.353318-25.13341-9.266349C236.85996 4.630843 224.01845 1.272568 210.48351.363036 206.96899.126713 203.45679 0 199.94615 0c-5.36391 0-10.72315.294627-16.07929.938296"/>
  <path fill="url(#b)" d="M.4446593 46.392384c.30240015.916529.7618308 1.841609 1.3837334 2.751142.9476241 1.376737 2.1214654 2.65086 3.3808182 3.747741C8.4431046 55.720146 12.338547 57.4537 16.32572 58.852981c10.487611 3.69332 21.424546 4.84307 32.440774 5.0926 13.113594.29463 26.236517.28763 39.357885.30241 37.244971.0311 74.489171.008 111.740361.008v-.0156h46.02857c7.54678-.003 15.09357-.002 22.64036-.002 20.27947.002 40.56127.005 60.84307-.0917 2.32436-.0117 4.6495-.005 6.97619.002 10.04217.0311 20.09057.0614 30.08843-1.40939 7.23039-1.06501 14.39704-2.269943 21.08327-5.44087 3.74619-1.780973 7.36955-3.732193 9.96599-7.121562.90176-1.173841 1.66359-2.409873 2.10592-3.785055H.4446593z"/>
  <g fill="#231f20" clip-path="url(#c)" transform="matrix(0.77737829,0,0,-0.77737829,-1.0862693e-6,64.264311)">
    <path d="M497.5416 17.6508c-5.55-4.73-12.24-6.96-19.08-8.82-10.42-2.83-21.09-4.1-31.86-4.14-56.83-.22-113.66-.33-170.5-.47-43.42-.11-86.85-.32-130.27-.27-26.61.03-53.22.29-79.83.81-13.02.24-25.91 2.11-38.08 7.02-4.02 1.63-7.83 4.15-11.19 6.91-2.26 1.85-3.41 4.04-3.51 6.29-.11 2.44 1.02 4.95 3.31 7.18 4.78 4.63 10.81 6.99 17.03 8.82 8.85 2.6 17.95 4 27.13 4.21 17.01.38 34.03.23 51.03.58 18.71.39 37.36 1.59 55.66 5.97 7.75 1.86 15.28 4.33 22.56 7.56.16.07.34.11.4.12 3.95-2.41 7.54-4.87 11.37-6.88 6.64-3.48 13.98-4.76 21.27-6.07 12.8-2.29 25.72-2.11 38.65-2.13 13.58-.03 27.03.87 40.28 4.09 8.04 1.96 15.43 5.17 21.76 10.62.2.17.46.27.51.28 6.61-2.21 12.84-4.54 19.22-6.37 10.61-3.05 21.49-4.64 32.47-5.69 22.67-2.18 45.42-1.42 68.14-1.62 12.54-.11 24.99-1.15 37.13-4.52 5.99-1.66 11.75-3.93 16.57-8.03 3.08-2.62 4.5-5.37 4.3-8.12-.18-2.48-1.68-4.95-4.47-7.33m-285.99 48.97c5.3 2.96 11.17 4.16 17.06 5.17 14.96 2.57 30.03 3.01 45.13 1.96 9.96-.69 19.89-1.82 29.37-5.25 1.84-.67 3.65-1.54 5.26-2.64 3.59-2.44 3.68-5.52-.05-7.7-2.95-1.72-6.22-3.11-9.52-4-12.96-3.51-26.26-4.18-36-4.24-15.67 0-27.68.7-39.47 3.39-3.75.86-7.34 2.39-10.99 3.62-.26.09-.5.22-.73.37-1.77 1.14-3.78 2.18-3.81 4.65-.03 2.49 1.92 3.65 3.75 4.67m296.84-30.09c-6.83 4.99-14.63 7.77-22.71 9.77-15.43 3.81-31.15 4.68-46.98 4.55-15.3-.12-30.61-.28-45.91-.03-13.76.22-27.44 1.65-40.9 4.53-11.31 2.41-22.38 5.6-32.33 11.92-14.87 9.44-31.39 13.76-48.8 14.93-11.43.77-22.84.63-34.24-.74-14.08-1.68-27.51-5.53-39.55-13.08-11.95-7.5-25.04-11.43-38.68-13.88-19.21-3.44-38.63-4.3-58.12-4.17-14.63.09-29.26.41-43.87-.06-12.45-.41-24.74-2.48-36.54-6.78-5.54-2.01-10.81-4.51-15.31-8.36-3.39-2.92-4.87-6.47-4.35-10.15.25-1.83 1-3.7 2.25-5.53 1.22-1.77 2.73-3.41 4.35-4.82 4.16-3.64 9.17-5.87 14.3-7.67 13.49-4.75 27.56-6.23 41.73-6.55 16.87-.38 33.75-.37 50.63-.39 47.91-.04 95.82-.01 143.74-.01v.02h59.21c35.79.02 71.59-.05 107.39.12 15.9.08 31.84-.52 47.68 1.81 9.3 1.37 18.52 2.92 27.12 7 4.82 2.29 9.48 4.8 12.82 9.16 1.58 2.06 2.83 4.27 3.15 6.86.04.3.06.61.07.92.18 4.82-2.54 8-6.15 10.63"/>
    <path d="M280.2916 58.6308c.26.82.79 2.48.79 2.48s.834-1.69 1.174-2.48c-.66-.06-1.284.06-1.964 0m1.36 9.4l-.9-.03c-1.69-4.91-3.38-9.81-5.14-14.9h2.65c.54 1.44 1.05 2.81 1.7 4.55.26-.82.4-1.27.53-1.69h5.31c-1.43 4.16-2.79 8.11-4.15 12.07m7.63-13.3c-1.4 4.26-2.84 8.5-4.21 12.77-.64 1.97-1.89 3.24-3.96 3.21-1.96-.04-3.16-1.27-3.77-3.18-1.15-3.62-2.38-7.22-3.6-10.82-.15-.43-.41-.83-.62-1.25-.14.05-.29.08-.43.12v8.58h-6.64l-.057-1.941 4.377-.019s-.05-4.57-.05-6.89c-1.96 0-3.78.02-5.6 0-1.8-.03-2.59.87-2.58 2.64.03 2.38-.01 4.76 0 7.15.03 2.32.7 2.98 3.07 3.01 2.44.02 4.87 0 7.42 0v2.24c-3.05 0-5.9.12-8.74-.04-2.39-.13-3.95-1.81-4-4.1-.08-3.07-.08-6.13-.01-9.19.05-2.12 1.61-3.9 3.65-3.97 3.73-.13 7.47-.04 11.23-.04.33.9.63 1.66.89 2.43 1.32 3.85 2.59 7.72 3.98 11.55.21.6.73 1.387 1.42 1.46.672.071 1.28-.37 1.43-.77 1.48-4.05 2.85-8.14 4.4-12.64h-6.56c.04-.84.06-1.35.09-1.95h9.22c-.13.63-.19 1.15-.35 1.64m-16.64 10.34v2.12c-2.69 0-5.13-.02-7.57 0-1.33.02-2.08-.69-2.13-1.94-.09-2.36-.18-4.75.02-7.1.05-.71.97-1.78 1.63-1.91 1.54-.28 3.17-.09 4.86-.09v5.15h-2.54c0-1.11-.05-1.62-.05-2.77-.55.09-1-.03-1.52.05v6.49h7.3zm-21.13-6.66c0 .24.01.47.02.71h5.25c-.04.78-.07 1.28-.1 1.8h-7.85c0-1 .05-1.828.05-2.6 0-1.268.89-1.99 1.44-2.03 2.66-.22 5.35-.1 8.1-.1v2.22h-6.91zm6.84 8.76c-2.66 0-5.17.14-7.65-.09-.67-.06-1.8-.465-1.8-1.91 0-.713-.06-1.7-.06-2.85h7.92c-.04.72-.07 1.26-.11 2.04h-5.06c0 .21 0 .42-.01.62h6.77v2.19zm-7.59-11.82c-1.86-.02-2.77.93-2.79 2.73-.04 2.24-.05 4.49-.03 6.73.02 2.56.74 3.28 3.26 3.3 2.36.02 4.72 0 7.16 0v2.23c-2.99 0-5.84.13-8.67-.04-2.24-.13-3.7-1.53-3.84-3.78-.21-3.17-.22-6.38-.06-9.56.11-2.16 1.53-3.69 3.58-3.82 2.96-.19 5.94-.04 9.03-.04v2.25c-2.64 0-5.14.01-7.64 0m-12.04 8.88c-.77.09-1.534-.059-2.294.041.01.2.014.649.034.859h7.71c-.04.87-.1 2.04-.1 2.04s-5.29.18-7.83-.11c-.83-.09-2.069-.602-2.15-2.15-.086-1.657.273-2.014 1.023-2.514.366-.244 1.077-.366 1.467-.396.61-.05 1.22-.01 1.84-.02 2.09-.05 3.46-1.26 3.52-3.13.07-1.92-1.33-3.43-3.43-3.51-2.49-.09-4.99-.02-7.66-.02.05-.92.09-1.55.13-2.31 2.9 0 5.61-.12 8.31.03 2.83.16 4.94 2.64 4.95 5.5.02 3.03-2.19 5.31-5.52 5.69m-4.83 2.25c-.522-.696-.677-2.231-.37-3.12.359-1.04 1.227-1.732 2.577-1.948.888-.142 1.94.008 2.86-.172 1.42-.28 2.323-1.15 2.273-2.61-.06-1.46-.94-2.45-2.46-2.49-2.51-.08-5.02-.02-7.72-.02-.07.68-.12 1.23-.19 2.07h7.8c.03.21.027.684.047.894-.727 0-1.247.006-1.897.036-3.38.14-5.89 2.43-5.95 5.46-.06 3.13 2.25 5.59 5.64 5.76 2.49.13 4.99.03 7.6.03v-2.26c-2.25 0-4.49.18-6.69-.07-1.24-.13-2.703-.472-3.52-1.56m244.82-47.51c-3.35-.01-6.32 2.75-6.56 6.01-.02.14-.03.28-.03.42-.03 3.42 3.04 6.39 6.57 6.38 3.56-.01 6.54-2.98 6.47-6.47 0-.11-.01-.22-.02-.33-.23-3.26-3.12-5.99-6.43-6.01m-20.15-6.04c-.62-.04-1.33-.13-2.04-.13-8.57-.01-17.15-.03-25.71 0-5.11.02-7.4 2.4-7.38 7.56.01 1.54.01 3.07.01 4.62-.01 1.37-.01 2.74-.01 4.11.39.09.65.2.9.2 2.86.02 5.72.01 8.86.01.43-2.41 2.35-2.23 4.22-2.22 5.65.01 11.29 0 16.94-.01.86 0 1.73-.09 2.66-.14v-4.97h-23.35c-.44-2.74.25-3.62 2.66-3.64 6.46-.03 12.93-.01 19.39-.01h2.85v-5.38zm-55.04-.03h-12.32c-2.66 3.98-5.33 7.97-8.09 12.08-.93 1.38-1.86 2.78-2.81 4.19h11.19c.89-1.35 1.81-2.74 2.76-4.19.99-1.5 2.02-3.06 3.11-4.7 1.07 1.62 2.08 3.17 3.08 4.7.93 1.42 1.85 2.82 2.78 4.23h11.19c-.95-1.43-1.89-2.84-2.82-4.23-2.74-4.09-5.4-8.07-8.07-12.08m-31.95.02h-9.7v16.25h9.7v-16.25zm-14.04-.11c-3.52 0-7.04-.14-10.55.09-.94.07-2 1.11-2.66 1.97-1.81 2.39-4.06 3.23-7.04 2.97-3.1-.25-6.23-.05-9.55-.05v6.59h10.03c1.76 0 3.53 0 5.3.01 1.22.01 1.91.14 2.31.59.35.39.46 1.05.5 2.12.01.66.07 1.32.11 2.09h9.73c.28-1.52.32-2.92.03-4.21-.47-2.17-1.84-4.02-4.48-5.56 2.45-2.01 4.68-3.85 6.91-5.68-.21-.31-.43-.62-.64-.93m-32.2.15h-9.85v16.24h9.85v-16.24zm-16.44 6.33c-.05-3.44-2.24-6.29-5.61-6.37-8.01-.2-16.03-.06-24.3-.06v5.31c.89.05 1.68.13 2.47.13 4.9.01 9.79-.01 14.7.01 2.27.02 2.78.52 2.8 2.75.01 1.3.02 2.6.02 3.92 0 1.36-.01 2.74-.01 4.17h10.01c0-1.36.01-2.75 0-4.14v-.03c-.02-1.89-.05-3.79-.08-5.69m-31.52-6.33h-9.78v16.22h9.78v-16.22zm-33.15 0h-9.73c-.06 1.51-.13 2.97-.21 4.72h-17.65v6.63h17.71v4.87h9.88v-16.22zm-29.68-.02h-9.83v16.23h9.83v-16.23zm-14.77 6.49c-.21-3.6-3.13-6.55-6.78-6.6-5.37-.09-10.74-.04-16.11-.04-4.02 0-8.03-.03-12.04.02-4.31.04-6.83 2.61-6.85 6.86v9.65h9.94v-7.59c.01-3.12.3-3.42 3.35-3.42h15.09c.41 0 .82-.01 1.23.02 1.16.08 2.14.65 1.83 1.87-.17.67-1.18 1.55-1.86 1.59-3.05.18-6.12.09-9.18.09h-2.7v4.77c.11.09.22.25.31.25 6.05 0 12.1.18 18.13-.09 1.4-.06 2.66-.77 3.64-1.83 1.33-1.44 2.13-3.53 2-5.55m-47.07-6.51c-.71-.04-1.42-.12-2.15-.12-8.51-.01-17.01-.02-25.52 0-5.15.01-7.48 2.38-7.46 7.48.01 1.56 0 3.12 0 4.7v4.18h9.78c.51-1.89 2.03-2.11 3.79-2.1 5.71.05 11.43.02 17.15.02h2.84v-5.13h-23.38c-.36-2.75.33-3.62 2.74-3.63 6.54-.03 13.07-.01 19.6-.01h2.61v-5.39zm-40.86.03h-9.93v16.2h9.93v-16.2zm-22.04-.04h-9.64v16.24h9.64v-16.24zm-21.88.03h-9.69v16.28h9.69v-16.28zm-32.33 6.03c-3.34-.02-6.32 2.76-6.55 6.01-.03.15-.03.31-.03.47.03 3.39 3 6.31 6.45 6.33 3.6.02 6.6-2.9 6.58-6.41 0-.13-.01-.26-.02-.39-.23-3.24-3.14-5.99-6.43-6.01m22.64 17.52c.64.06 1.17.16 1.69.16 15.44.01 30.88.02 46.32 0 3.56-.01 5.71-2.21 5.55-5.66h-53.56v5.5zm59.4.02h35.1v-5.5h-35.1v5.5zm45.82.13c3.95.07 7.89.02 11.84.02h24.4v-5.62h-41.49c-.36 3.21 1.81 5.55 5.25 5.6m46.43-.02c9.78.08 19.56.08 29.34 0 3.08-.02 5.13-2.45 4.94-5.59h-39.34c.06 3.38 1.95 5.57 5.06 5.59m57.59-.18c.67.09 1.12.21 1.58.21 11.42.01 22.85.03 34.28-.01 3.44 0 5.57-2.21 5.4-5.64h-41.12c-.05.75-.12 1.34-.14 1.94-.01 1.14 0 2.28 0 3.5m52.98.17c10.13.1 20.24.1 30.36 0 3.12-.03 5.16-2.54 4.83-5.63h-40c-.27 3.1 1.75 5.61 4.81 5.63m41.44-.09h9.74v-5.52h-9.74v5.52zm24.43.43c1.22-1.83 2.48-3.72 3.97-5.93h-11.23c-1.16 1.76-2.45 3.7-3.92 5.93h11.18zm22.06.02h11.21c-1.44-2.18-2.69-4.06-3.95-5.97h-11.17c1.45 2.21 2.68 4.1 3.91 5.97m15.09-.42h35.14v-5.53h-35.14v5.53zm65.09-6.55c-2.49 2.13-5.38 3.97-8.38 5.24-8.22 3.51-16.96 4.94-25.82 5.33-8.49.36-17 .45-25.51.45-114.42.03-228.83.02-343.25.02-6.26 0-12.53.14-18.79-.07-10.34-.35-20.61-1.32-30.46-4.86-4.08-1.47-7.98-3.19-10.94-6.48-1.42-1.58-2.09-3.11-1.99-4.65.07-1.34.72-2.68 1.95-4.08 2.93-3.33 6.54-5.68 10.75-7.15 7.76-2.71 15.8-4.04 23.97-4.38 8.43-.36 16.87-.47 25.31-.47 57.24-.04 114.48-.02 171.73-.02h25.52c53.3.01 106.59-.02 159.89.06 10.81.01 21.6.63 32.11 3.62 5.41 1.54 10.37 3.77 14.19 8.01 1.36 1.5 2.12 2.98 2.23 4.41.16 1.75-.65 3.43-2.51 5.02"/>
  </g>
</svg>
