<?xml version="1.0" encoding="utf-8"?>
<!-- Generator: Adobe Illustrator 19.0.0, SVG Export Plug-In . SVG Version: 6.00 Build 0)  -->
<svg version="1.1" baseProfile="tiny" id="Calque_1"
	 xmlns="http://www.w3.org/2000/svg" xmlns:xlink="http://www.w3.org/1999/xlink" x="0px" y="0px" viewBox="0 0 218.3 147.3"
	 xml:space="preserve">
<g>
	<path fill="#2C2C2D" d="M109.2,0l92.7,0c9.1,0,16.5,7.4,16.5,16.5v119.1c0,6.4-5.3,11.7-11.7,11.7h-97.5H11.7
		C5.3,147.3,0,142,0,135.6V16.5C0,7.4,7.4,0,16.5,0L109.2,0"/>
	<g>
		<path fill="#121115" d="M0,15.8v122.4c0,0.6,0.5,1,1.1,1c6.7-0.8,12.2-2.6,16.2-4.4c1.8-0.8,3.4-2,4.5-3.7h0
			c1.5-2.2,2.2-4.9,1.8-7.5L10.5,26.9c-0.4-2.8-2.8-5.9-5.1-7.6L0,15.8"/>
		<path fill="#121115" d="M218.3,15.8v122.4c0,0.6-0.5,1-1.1,1c-6.7-0.8-12.2-2.6-16.2-4.4c-1.8-0.8-3.4-2-4.5-3.7h0
			c-1.5-2.2-2.2-4.9-1.8-7.5l13.1-96.7c0.4-2.8,2.8-5.9,5.1-7.6L218.3,15.8"/>
	</g>
	<path fill="#121115" d="M109.2,125.1c17,0.2,53.5-4.8,53.5-4.8c25.7-3.5,27.4-13,28.6-34.7l4.3-73.6c0-6.6-5.4-12-12-12l-74.5,0
		H34.7c-6.6,0-12,5.4-12,12L27,85.6c1.3,21.7,2.9,31.2,28.6,34.7C55.6,120.3,92.2,125.3,109.2,125.1z"/>
	<g>
		<path fill="#232122" d="M109.1,17.8H177c2.9,0,5.3,2.4,5.3,5.3v71.7c0,6.8-5.5,12.3-12.3,12.3h-60.8h0.1H48.4
			c-6.8,0-12.3-5.5-12.3-12.3V23c0-2.9,2.4-5.3,5.3-5.3H109.1"/>
		<path fill="#FFC119" d="M55.6,18.3v89l0-0.3h-7.2c-6.8,0-12.3-5.5-12.3-12.3V23c0-2.9,2.4-5.3,5.3-5.3h14.2"/>
		<polygon fill="#F4D945" points="36.1,47 55.6,33.2 55.6,18.3 36.1,32.1 		"/>
		<polygon fill="#F4D945" points="36.1,77.4 55.6,63.6 55.6,48.7 36.1,62.5 		"/>
		<g>
			<g>
				<path d="M43.8,45.8c0-0.4-0.1-0.7-0.1-1.1c0-0.6,0.1-1.1,0.2-1.7c0.1-0.4,0.2-0.8,0.4-1.2c0.2-0.4,0.4-0.8,0.8-1.2
					c0.3-0.3,0.6-0.5,1-0.5c0.4,0,0.7-0.1,1.1,0.1c0.3,0.1,0.6,0.3,0.8,0.5c0.4,0.3,0.6,0.8,0.8,1.2c0.1,0.3,0.3,0.5,0.4,0.8
					c0.2,0.5,0.4,1,0.5,1.5c0.1,0.5,0.3,1.1,0.5,1.6c0.2,0.7,0.5,1.3,1,1.9c0.1,0.1,0.2,0.1,0.3,0.2c0.1-0.1,0.1-0.3,0.1-0.4
					c0-2.4,0-4.9,0-7.3c0-0.1,0-0.2-0.1-0.4c-0.1-0.1-0.2-0.2-0.2-0.4c0.3-0.1,0.6,0,0.8,0c0.4,0,0.8,0,1.2,0c0,0.1,0,0.1,0,0.2
					c-0.1,0.1-0.2,0.2-0.2,0.3c0,0.2,0,0.3,0,0.5c0,3.3,0,6.7,0,10c0,0.1,0,0.2-0.1,0.2c-0.4,0-0.8-0.1-1.2-0.3
					c-0.6-0.3-1.1-0.8-1.5-1.3c-0.2-0.4-0.5-0.8-0.6-1.1c-0.1-0.2-0.2-0.4-0.3-0.7c-0.1-0.4-0.3-0.7-0.4-1c-0.2-0.5-0.4-1-0.6-1.5
					c-0.2-0.5-0.4-0.9-0.6-1.4c-0.2-0.3-0.5-0.6-0.9-0.8c-0.3-0.1-0.6,0-0.9,0.2c-0.5,0.5-0.6,1.3-0.6,1.9c0,1,0.3,2.1,0.9,2.9
					c0.1,0.1,0.2,0.3,0.4,0.4c0.1,0.1,0.2,0.2,0.4,0.2c0.1,0.1,0.3,0,0.5,0c0.1,0,0.1,0.1,0,0.2c-0.2,0.3-0.5,0.5-0.8,0.8
					c-0.2,0.2-0.4,0.5-0.7,0.7c-0.1,0.1-0.2,0.2-0.3,0.2c-0.1-0.1,0-0.3-0.1-0.4c-0.2-0.3-0.4-0.5-0.6-0.8c-0.3-0.5-0.6-1-0.8-1.6
					C44,46.7,43.9,46.2,43.8,45.8z"/>
				<path d="M44,58.7c-0.1-0.6-0.2-1.2-0.2-1.8c0-0.7,0-1.3,0.1-2c0.1-0.4,0.2-0.7,0.3-1.1c0.1-0.4,0.3-0.8,0.6-1.1
					c0.3-0.4,0.7-0.8,1.2-0.9c0.3-0.1,0.7-0.1,1,0c0.2,0.1,0.4,0.2,0.6,0.3c0.2,0.1,0.3,0.3,0.4,0.5c0.1,0.2,0.2,0.4,0.3,0.6
					c0,0,0.1,0,0.1-0.1c0.1-0.2,0.2-0.5,0.3-0.8c0.2-0.4,0.5-0.7,0.7-1c0.2-0.2,0.5-0.3,0.8-0.4c0.2,0,0.4-0.1,0.6,0
					c0.4,0.1,0.7,0.2,1,0.5c0.4,0.4,0.7,0.9,0.9,1.4c0.2,0.5,0.3,1,0.4,1.6c0.2,1,0.1,2.1,0.1,3.1c-0.1,0.7-0.1,1.4-0.3,2.1
					c-0.1,0.5-0.3,1.1-0.6,1.6c-0.1,0.2-0.2,0.4-0.2,0.6c0,0.2,0,0.3,0,0.5c0,0.1-0.1,0.1-0.1,0.1c-0.2-0.1-0.3-0.1-0.4-0.2
					c-0.3-0.2-0.7-0.4-1-0.6c-0.1-0.1-0.3-0.2-0.4-0.3c-0.1-0.1-0.1-0.2,0-0.3c0.2-0.1,0.4-0.1,0.5-0.3c0.3-0.4,0.5-0.9,0.7-1.5
					c0.1-0.4,0.2-0.8,0.3-1.3c0.1-0.8,0.2-1.7,0.1-2.5c-0.1-0.4-0.1-0.8-0.3-1.2c-0.1-0.3-0.4-0.6-0.7-0.8c-0.4-0.2-0.9,0-1.1,0.3
					c-0.4,0.5-0.5,1.1-0.6,1.7c-0.1,0.5-0.1,1-0.1,1.5c0,0.3,0,0.6,0.1,0.9c0,0.1,0.2,0.2,0.2,0.3c0,0.1-0.2,0.1-0.3,0.1
					c-0.5,0-1.1,0-1.7,0c0-0.2,0.2-0.3,0.2-0.5c0.2-0.7,0.1-1.4,0-2.1c-0.1-0.4-0.1-0.8-0.4-1.1c-0.1-0.2-0.3-0.4-0.5-0.5
					c-0.3-0.1-0.6,0-0.8,0.2c-0.1,0.2-0.2,0.3-0.3,0.5c-0.2,0.4-0.2,0.9-0.3,1.3c0,0.4,0,0.9,0,1.3c0.1,0.6,0.2,1.2,0.4,1.7
					c0.1,0.3,0.3,0.6,0.6,0.9c0.1,0.1,0.4,0.1,0.5,0.2c0.1,0,0.2,0.1,0.1,0.2c-0.4,0.5-1,0.9-1.4,1.4c-0.1,0.1-0.1,0.1-0.2,0.2
					c0,0-0.1,0-0.1,0c0-0.2,0-0.4,0-0.5c-0.2-0.5-0.5-0.9-0.7-1.4C44.2,59.7,44.1,59.2,44,58.7z"/>
				<path d="M43.8,38.2c0-1.1,0-2.2,0-3.3c0-0.1,0-0.2,0-0.3c0.1,0.1,0.2,0.1,0.3,0.2c0.4-0.4,0.8-0.8,1.2-1.1
					c0.4-0.4,0.8-0.8,1.3-1.2c0.1-0.1,0.2-0.2,0.1-0.3c-0.2-0.2-0.4-0.4-0.7-0.7c-0.5-0.5-1.1-1.1-1.7-1.6c-0.1-0.1-0.2-0.2-0.3-0.2
					c-0.1,0.1-0.2,0.1-0.2,0.2c0-0.3,0-0.5,0-0.8c0-0.9,0-1.8,0-2.7c0-0.1,0.1-0.1,0.1-0.1c0.1,0.2,0.1,0.4,0.2,0.6
					c0.1,0.3,0.4,0.5,0.6,0.8c0.3,0.4,0.7,0.7,1.1,1c0.5,0.5,1,1,1.5,1.4c0.2,0.2,0.5,0.5,0.7,0.7c0.1,0.1,0.2,0.1,0.2,0
					c0.3-0.2,0.5-0.5,0.8-0.8c0.2-0.2,0.4-0.4,0.6-0.6c0.6-0.6,1.1-1.1,1.7-1.7c0.3-0.3,0.7-0.6,1-0.9c0.2-0.2,0.3-0.4,0.4-0.6
					c0.1-0.1,0.1-0.3,0.2-0.4c0,0.2,0,0.4,0,0.6c0,0.9,0,1.7,0,2.6c0,0.2,0,0.3,0,0.4c-0.1-0.1-0.2-0.1-0.3-0.1
					c-0.1,0-0.1,0.1-0.2,0.1c-0.2,0.2-0.5,0.5-0.7,0.7c-0.6,0.5-1.1,1.1-1.7,1.7c-0.1,0.1-0.3,0.2-0.3,0.4c-0.1,0.1,0.1,0.2,0.1,0.3
					c0.5,0.5,1.1,1.1,1.6,1.6c0.4,0.3,0.7,0.6,1,1c0.1,0.1,0.1,0.1,0.2,0.1c0.1,0,0.1-0.1,0.2-0.1c0,0,0,0,0.1,0c0,1.1,0,2.1,0,3.2
					c0,0.2,0,0.3,0,0.5c-0.1,0-0.1-0.1-0.1-0.2c-0.1-0.2-0.1-0.5-0.3-0.7c-0.2-0.3-0.5-0.5-0.8-0.8c-0.9-0.8-1.7-1.7-2.5-2.5
					c-0.2-0.2-0.5-0.4-0.7-0.7c-0.1-0.1-0.1-0.1-0.2-0.2c-0.1,0-0.2,0.1-0.3,0.2c-0.1,0.1-0.2,0.2-0.3,0.3c-0.7,0.7-1.4,1.4-2.2,2.1
					c-0.3,0.3-0.6,0.6-0.9,0.8c-0.1,0.1-0.3,0.3-0.4,0.4c-0.1,0.2-0.1,0.4-0.2,0.6C43.9,38.2,43.8,38.2,43.8,38.2z"/>
			</g>
			<path fill="#ED0A0A" d="M43.5,45.4c0-0.4-0.1-0.7-0.1-1.1c0-0.6,0.1-1.1,0.2-1.7c0.1-0.4,0.2-0.8,0.4-1.2
				c0.2-0.4,0.4-0.8,0.8-1.2c0.3-0.3,0.6-0.5,1-0.5c0.4,0,0.7-0.1,1.1,0.1c0.3,0.1,0.6,0.3,0.8,0.5c0.4,0.3,0.6,0.8,0.8,1.2
				c0.1,0.3,0.3,0.5,0.4,0.8c0.2,0.5,0.4,1,0.5,1.5c0.1,0.5,0.3,1.1,0.5,1.6c0.2,0.7,0.5,1.3,1,1.9c0.1,0.1,0.2,0.1,0.3,0.2
				c0.1-0.1,0.1-0.3,0.1-0.4c0-2.4,0-4.9,0-7.3c0-0.1,0-0.2-0.1-0.4c-0.1-0.1-0.2-0.2-0.2-0.4c0.3-0.1,0.6,0,0.8,0
				c0.4,0,0.8,0,1.2,0c0,0.1,0,0.1,0,0.2c-0.1,0.1-0.2,0.2-0.2,0.3c0,0.2,0,0.3,0,0.5c0,3.3,0,6.7,0,10c0,0.1,0,0.2-0.1,0.2
				c-0.4,0-0.8-0.1-1.2-0.3c-0.6-0.3-1.1-0.8-1.5-1.3c-0.2-0.4-0.5-0.8-0.6-1.1c-0.1-0.2-0.2-0.4-0.3-0.7c-0.1-0.4-0.3-0.7-0.4-1
				c-0.2-0.5-0.4-1-0.6-1.5c-0.2-0.5-0.4-0.9-0.6-1.4c-0.2-0.3-0.5-0.6-0.9-0.8c-0.3-0.1-0.6,0-0.9,0.2c-0.5,0.5-0.6,1.3-0.6,1.9
				c0,1,0.3,2.1,0.9,2.9c0.1,0.1,0.2,0.3,0.4,0.4c0.1,0.1,0.2,0.2,0.4,0.2c0.1,0.1,0.3,0,0.5,0c0.1,0,0.1,0.1,0,0.2
				c-0.2,0.3-0.5,0.5-0.8,0.8c-0.2,0.2-0.4,0.5-0.7,0.7c-0.1,0.1-0.2,0.2-0.3,0.2c-0.1-0.1,0-0.3-0.1-0.4c-0.2-0.3-0.4-0.5-0.6-0.8
				c-0.3-0.5-0.6-1-0.8-1.6C43.6,46.4,43.5,45.9,43.5,45.4z"/>
			<path fill="#ED0A0A" d="M43.6,58.4c-0.1-0.6-0.2-1.2-0.2-1.8c0-0.7,0-1.3,0.1-2c0.1-0.4,0.2-0.7,0.3-1.1c0.1-0.4,0.3-0.8,0.6-1.1
				c0.3-0.4,0.7-0.8,1.2-0.9c0.3-0.1,0.7-0.1,1,0c0.2,0.1,0.4,0.2,0.6,0.3c0.2,0.1,0.3,0.3,0.4,0.5c0.1,0.2,0.2,0.4,0.3,0.6
				c0,0,0.1,0,0.1-0.1c0.1-0.2,0.2-0.5,0.3-0.8c0.2-0.4,0.5-0.7,0.7-1c0.2-0.2,0.5-0.3,0.8-0.4c0.2,0,0.4-0.1,0.6,0
				c0.4,0.1,0.7,0.2,1,0.5c0.4,0.4,0.7,0.9,0.9,1.4c0.2,0.5,0.3,1,0.4,1.6c0.2,1,0.1,2.1,0.1,3.1c-0.1,0.7-0.1,1.4-0.3,2.1
				c-0.1,0.5-0.3,1.1-0.6,1.6c-0.1,0.2-0.2,0.4-0.2,0.6c0,0.2,0,0.3,0,0.5c0,0.1-0.1,0.1-0.1,0.1c-0.2-0.1-0.3-0.1-0.4-0.2
				c-0.3-0.2-0.7-0.4-1-0.6c-0.1-0.1-0.3-0.2-0.4-0.3c-0.1-0.1-0.1-0.2,0-0.3c0.2-0.1,0.4-0.1,0.5-0.3c0.3-0.4,0.5-0.9,0.7-1.5
				c0.1-0.4,0.2-0.8,0.3-1.3c0.1-0.8,0.2-1.7,0.1-2.5c-0.1-0.4-0.1-0.8-0.3-1.2c-0.1-0.3-0.4-0.6-0.7-0.8c-0.4-0.2-0.9,0-1.1,0.3
				c-0.4,0.5-0.5,1.1-0.6,1.7c-0.1,0.5-0.1,1-0.1,1.5c0,0.3,0,0.6,0.1,0.9c0,0.1,0.2,0.2,0.2,0.3c0,0.1-0.2,0.1-0.3,0.1
				c-0.5,0-1.1,0-1.7,0c0-0.2,0.2-0.3,0.2-0.5c0.2-0.7,0.1-1.4,0-2.1c-0.1-0.4-0.1-0.8-0.4-1.1c-0.1-0.2-0.3-0.4-0.5-0.5
				c-0.3-0.1-0.6,0-0.8,0.2c-0.1,0.2-0.2,0.3-0.3,0.5c-0.2,0.4-0.2,0.9-0.3,1.3c0,0.4,0,0.9,0,1.3c0.1,0.6,0.2,1.2,0.4,1.7
				c0.1,0.3,0.3,0.6,0.6,0.9c0.1,0.1,0.4,0.1,0.5,0.2c0.1,0,0.2,0.1,0.1,0.2c-0.4,0.5-1,0.9-1.4,1.4c-0.1,0.1-0.1,0.1-0.2,0.2
				c0,0-0.1,0-0.1,0c0-0.2,0-0.4,0-0.5c-0.2-0.5-0.5-0.9-0.7-1.4C43.9,59.3,43.7,58.8,43.6,58.4z"/>
			<path fill="#ED0A0A" d="M43.4,37.8c0-1.1,0-2.2,0-3.3c0-0.1,0-0.2,0-0.3c0.1,0.1,0.2,0.1,0.3,0.2c0.4-0.4,0.8-0.8,1.2-1.1
				c0.4-0.4,0.8-0.8,1.3-1.2c0.1-0.1,0.2-0.2,0.1-0.3c-0.2-0.2-0.4-0.4-0.7-0.7c-0.5-0.5-1.1-1.1-1.7-1.6c-0.1-0.1-0.2-0.2-0.3-0.2
				c-0.1,0.1-0.2,0.1-0.2,0.2c0-0.3,0-0.5,0-0.8c0-0.9,0-1.8,0-2.7c0-0.1,0.1-0.1,0.1-0.1c0.1,0.2,0.1,0.4,0.2,0.6
				c0.1,0.3,0.4,0.5,0.6,0.8c0.3,0.4,0.7,0.7,1.1,1c0.5,0.5,1,1,1.5,1.4c0.2,0.2,0.5,0.5,0.7,0.7c0.1,0.1,0.2,0.1,0.2,0
				c0.3-0.2,0.5-0.5,0.8-0.8c0.2-0.2,0.4-0.4,0.6-0.6c0.6-0.6,1.1-1.1,1.7-1.7c0.3-0.3,0.7-0.6,1-0.9c0.2-0.2,0.3-0.4,0.4-0.6
				c0.1-0.1,0.1-0.3,0.2-0.4c0,0.2,0,0.4,0,0.6c0,0.9,0,1.7,0,2.6c0,0.2,0,0.3,0,0.4c-0.1-0.1-0.2-0.1-0.3-0.1
				c-0.1,0-0.1,0.1-0.2,0.1c-0.2,0.2-0.5,0.5-0.7,0.7c-0.6,0.5-1.1,1.1-1.7,1.7c-0.1,0.1-0.3,0.2-0.3,0.4c-0.1,0.1,0.1,0.2,0.1,0.3
				c0.5,0.5,1.1,1.1,1.6,1.6c0.4,0.3,0.7,0.6,1,1c0.1,0.1,0.1,0.1,0.2,0.1c0.1,0,0.1-0.1,0.2-0.1c0,0,0,0,0.1,0c0,1.1,0,2.1,0,3.2
				c0,0.2,0,0.3,0,0.5c-0.1,0-0.1-0.1-0.1-0.2c-0.1-0.2-0.1-0.5-0.3-0.7c-0.2-0.3-0.5-0.5-0.8-0.8c-0.9-0.8-1.7-1.7-2.5-2.5
				c-0.2-0.2-0.5-0.4-0.7-0.7c-0.1-0.1-0.1-0.1-0.2-0.2c-0.1,0-0.2,0.1-0.3,0.2c-0.1,0.1-0.2,0.2-0.3,0.3c-0.7,0.7-1.4,1.4-2.2,2.1
				c-0.3,0.3-0.6,0.6-0.9,0.8c-0.1,0.1-0.3,0.3-0.4,0.4c-0.1,0.2-0.1,0.4-0.2,0.6C43.6,37.8,43.5,37.8,43.4,37.8z"/>
		</g>
		<g>
			<path d="M43.3,65.4h-0.4c0,0,0,0-0.1,0c0,0,0,0,0,0.1h0v-0.4h0c0,0,0,0,0,0.1s0,0,0.1,0h0.9v0c0,0-0.1,0-0.1,0c0,0,0,0,0,0.1v0.3
				c0,0,0,0,0,0.1c0,0,0,0,0.1,0v0c-0.3,0.2-0.7,0.3-1,0.3c-0.3,0-0.5-0.1-0.7-0.2c-0.2-0.1-0.3-0.4-0.3-0.6c0-0.2,0.1-0.4,0.3-0.6
				c0.2-0.1,0.5-0.2,0.8-0.2c0.1,0,0.2,0,0.3,0s0.2,0,0.3,0.1c0.1,0,0.1,0,0.1,0c0,0,0,0,0.1,0l0,0l-0.2,0.4l0,0c0,0,0,0,0-0.1
				c0,0,0,0,0,0c-0.1,0-0.1-0.1-0.2-0.1c-0.1,0-0.2,0-0.3,0c-0.2,0-0.3,0-0.5,0.1C42.1,64.9,42,65,42,65.2c0,0.2,0.1,0.3,0.2,0.4
				c0.1,0.1,0.3,0.1,0.5,0.1c0.1,0,0.2,0,0.3,0s0.2,0,0.3-0.1V65.4z"/>
			<path d="M44.5,65.3v0.4h1.2c0,0,0,0,0.1,0c0,0,0,0,0-0.1h0V66h0c0,0,0,0,0-0.1c0,0,0,0-0.1,0H44v0c0,0,0.1,0,0.1,0c0,0,0,0,0-0.1
				v-1.3c0,0,0,0,0-0.1c0,0,0,0-0.1,0v0h1.6c0,0,0,0,0.1,0s0,0,0-0.1h0v0.4h0c0,0,0,0,0-0.1s0,0-0.1,0h-1.1V65h0.7c0,0,0,0,0.1,0
				c0,0,0,0,0-0.1h0v0.4h0c0,0,0,0,0-0.1c0,0,0,0-0.1,0H44.5z"/>
			<path d="M46.5,64.9v0.9c0,0,0,0,0,0.1c0,0,0,0,0.1,0v0H46v0c0,0,0.1,0,0.1,0c0,0,0,0,0-0.1v-1.3c0,0,0,0,0-0.1c0,0,0,0-0.1,0v0
				h0.6v0c0,0-0.1,0-0.1,0.1c0,0,0,0,0,0.1l1,0.9v-0.9c0,0,0,0,0-0.1c0,0,0,0-0.1,0v0h0.5v0c0,0-0.1,0-0.1,0c0,0,0,0,0,0.1v1.3
				c0,0,0,0,0,0.1c0,0,0,0,0.1,0v0h-0.6v0c0,0,0.1,0,0.1,0c0,0,0,0-0.1-0.1L46.5,64.9z"/>
			<path d="M48.9,65.3v0.4H50c0,0,0,0,0.1,0c0,0,0,0,0-0.1h0V66h0c0,0,0,0,0-0.1c0,0,0,0-0.1,0h-1.6v0c0,0,0.1,0,0.1,0
				c0,0,0,0,0-0.1v-1.3c0,0,0,0,0-0.1c0,0,0,0-0.1,0v0H50c0,0,0,0,0.1,0s0,0,0-0.1h0v0.4h0c0,0,0,0,0-0.1s0,0-0.1,0h-1.1V65h0.7
				c0,0,0,0,0.1,0c0,0,0,0,0-0.1h0v0.4h0c0,0,0,0,0-0.1c0,0,0,0-0.1,0H48.9z"/>
			<path d="M52.1,64.5l-0.2,0.4l0,0c0,0,0,0,0,0c0,0,0-0.1-0.1-0.1c-0.2-0.1-0.3-0.1-0.6-0.1c-0.1,0-0.2,0-0.2,0
				c-0.1,0-0.1,0-0.1,0.1c0,0,0,0.1,0,0.1c0,0.1,0,0.1,0.1,0.1c0,0,0.1,0,0.3,0l0.2,0c0.1,0,0.2,0,0.3,0c0.1,0,0.1,0,0.2,0.1
				c0.1,0,0.1,0.1,0.1,0.1c0,0.1,0.1,0.1,0.1,0.2c0,0.1,0,0.2-0.1,0.3c-0.1,0.1-0.2,0.1-0.3,0.2c-0.1,0-0.2,0-0.4,0
				c-0.2,0-0.5,0-0.7-0.1c0,0-0.1,0-0.1,0c0,0,0,0-0.1,0l0,0l0.2-0.4l0,0c0,0,0,0,0,0c0,0,0,0.1,0.1,0.1c0.1,0,0.1,0.1,0.3,0.1
				c0.1,0,0.2,0,0.3,0c0.1,0,0.2,0,0.3-0.1c0,0,0.1,0,0.1-0.1s0-0.1,0-0.1c0-0.1,0-0.1-0.1-0.1c0,0-0.1,0-0.3,0l-0.2,0
				c-0.1,0-0.2,0-0.3,0c-0.1,0-0.1,0-0.2-0.1c-0.1,0-0.1-0.1-0.2-0.2c0-0.1-0.1-0.1-0.1-0.2c0-0.1,0.1-0.2,0.2-0.3
				c0.1-0.1,0.3-0.2,0.6-0.2c0.1,0,0.2,0,0.3,0c0.1,0,0.2,0.1,0.4,0.1c0.1,0,0.1,0,0.1,0C52,64.5,52,64.5,52.1,64.5L52.1,64.5z"/>
			<path d="M52.5,65.8v-1.3c0,0,0,0,0-0.1c0,0,0,0-0.1,0v0h0.6v0c0,0-0.1,0-0.1,0c0,0,0,0,0,0.1v1.3c0,0,0,0,0,0.1c0,0,0,0,0.1,0v0
				h-0.6L52.5,65.8C52.4,65.9,52.4,65.9,52.5,65.8C52.5,65.9,52.5,65.8,52.5,65.8z"/>
			<path d="M54.9,64.5l-0.2,0.4l0,0c0,0,0,0,0,0c0,0,0-0.1-0.1-0.1c-0.2-0.1-0.3-0.1-0.6-0.1c-0.1,0-0.2,0-0.2,0
				c-0.1,0-0.1,0-0.1,0.1c0,0,0,0.1,0,0.1c0,0.1,0,0.1,0.1,0.1c0,0,0.1,0,0.3,0l0.2,0c0.1,0,0.2,0,0.3,0c0.1,0,0.1,0,0.2,0.1
				c0.1,0,0.1,0.1,0.1,0.1c0,0.1,0.1,0.1,0.1,0.2c0,0.1,0,0.2-0.1,0.3c-0.1,0.1-0.2,0.1-0.3,0.2c-0.1,0-0.2,0-0.4,0
				c-0.2,0-0.5,0-0.7-0.1c0,0-0.1,0-0.1,0c0,0,0,0-0.1,0l0,0l0.2-0.4l0,0c0,0,0,0,0,0c0,0,0,0.1,0.1,0.1c0.1,0,0.1,0.1,0.3,0.1
				c0.1,0,0.2,0,0.3,0c0.1,0,0.2,0,0.3-0.1c0,0,0.1,0,0.1-0.1s0-0.1,0-0.1c0-0.1,0-0.1-0.1-0.1c0,0-0.1,0-0.3,0l-0.2,0
				c-0.1,0-0.2,0-0.3,0c-0.1,0-0.1,0-0.2-0.1c-0.1,0-0.1-0.1-0.2-0.2c0-0.1-0.1-0.1-0.1-0.2c0-0.1,0.1-0.2,0.2-0.3
				c0.1-0.1,0.3-0.2,0.6-0.2c0.1,0,0.2,0,0.3,0c0.1,0,0.2,0.1,0.4,0.1c0.1,0,0.1,0,0.1,0C54.9,64.5,54.9,64.5,54.9,64.5L54.9,64.5z"
				/>
		</g>
		<path fill="#F4D945" d="M55.6,78.6L36.1,92.4l0,2.3c0,3.8,1.7,7.2,4.4,9.4c0,0,15.1-10.7,15.1-10.7V78.6z"/>
	</g>
	<g>
		<path fill="#121115" d="M55.9,147.3L55.9,147.3c-0.9,0-1.6-0.7-1.6-1.6v-10.4c0-0.9,0.7-1.6,1.6-1.6l0,0c0.9,0,1.6,0.7,1.6,1.6
			v10.4C57.5,146.6,56.8,147.3,55.9,147.3z"/>
		<path fill="#121115" d="M77.2,147.3L77.2,147.3c-0.9,0-1.6-0.7-1.6-1.6v-10.4c0-0.9,0.7-1.6,1.6-1.6l0,0c0.9,0,1.6,0.7,1.6,1.6
			v10.4C78.7,146.6,78,147.3,77.2,147.3z"/>
		<path fill="#121115" d="M98.7,147.3L98.7,147.3c-0.9,0-1.6-0.7-1.6-1.6v-10.4c0-0.9,0.7-1.6,1.6-1.6l0,0c0.9,0,1.6,0.7,1.6,1.6
			v10.4C100.2,146.6,99.5,147.3,98.7,147.3z"/>
		<path fill="#121115" d="M119.9,147.3L119.9,147.3c-0.9,0-1.6-0.7-1.6-1.6v-10.4c0-0.9,0.7-1.6,1.6-1.6l0,0c0.9,0,1.6,0.7,1.6,1.6
			v10.4C121.5,146.6,120.8,147.3,119.9,147.3z"/>
		<path fill="#121115" d="M141.2,147.3L141.2,147.3c-0.9,0-1.6-0.7-1.6-1.6v-10.4c0-0.9,0.7-1.6,1.6-1.6h0c0.9,0,1.6,0.7,1.6,1.6
			v10.4C142.7,146.6,142,147.3,141.2,147.3z"/>
		<path fill="#121115" d="M162.4,147.3L162.4,147.3c-0.9,0-1.6-0.7-1.6-1.6v-10.4c0-0.9,0.7-1.6,1.6-1.6h0c0.9,0,1.6,0.7,1.6,1.6
			v10.4C164,146.6,163.3,147.3,162.4,147.3z"/>
	</g>
</g>
</svg>
