<?xml version="1.0" encoding="utf-8"?>
<!-- Generator: Adobe Illustrator 19.0.0, SVG Export Plug-In . SVG Version: 6.00 Build 0)  -->
<svg version="1.1" baseProfile="tiny" id="Layer_1" xmlns="http://www.w3.org/2000/svg" xmlns:xlink="http://www.w3.org/1999/xlink"
	 x="0px" y="0px" viewBox="0 0 331 71.8" xml:space="preserve">
<g>
	<g>
		<g>
			<path d="M157.1,28.6c1.7-0.2,3.3-0.4,5-0.4c2.6-0.1,5.2,0.4,7.8,0.8c1.9,0.5,3.7,1.1,5.5,1.8c2,0.8,3.9,2,5.3,3.6
				c1.2,1.2,2.1,2.8,2.4,4.5c0.1,1.6,0.3,3.3-0.4,4.9c-0.5,1.3-1.2,2.7-2.2,3.7c-1.6,1.6-3.6,2.7-5.6,3.7c-1.2,0.6-2.4,1.2-3.7,1.7
				c-2.3,0.8-4.6,1.7-7,2.3c-2.5,0.6-4.9,1.6-7.4,2.4c-3.1,1.1-6,2.5-8.5,4.6c-0.4,0.3-0.6,0.8-0.9,1.2c0.5,0.5,1.3,0.3,2,0.4
				c11.1,0,22.3,0,33.4,0c0.5,0,1.1,0,1.6-0.3c0.6-0.4,1.1-0.8,1.7-1c0.2,1.3,0.1,2.6,0.2,3.9c0,1.8,0,3.6-0.1,5.4
				c-0.2,0-0.5,0.1-0.7,0.1c-0.4-0.4-0.8-1-1.4-1.1c-0.7-0.2-1.4-0.2-2.1-0.2c-15.3,0-30.6,0-45.9,0c-0.4,0-0.8-0.2-0.9-0.5
				c-0.1-1.9,0.4-3.9,1.2-5.7c1.2-2.9,3.7-5.1,6.1-7c1.7-1.1,3.4-2.1,5.2-2.9c1-0.5,2-1.1,3.1-1.5c1.6-0.6,3.2-1.3,4.8-1.9
				c2.3-0.8,4.6-1.7,6.8-2.6c2.2-0.8,4.3-1.7,6.3-2.9c1.6-0.9,2.7-2.3,3.6-3.9c0.6-1.4-0.1-2.9-1-4c-2.4-2.1-5.8-2.7-8.9-2.9
				c-4.7,0-9.5,1.4-13.3,4.3c-0.7,0.5-1.4,1-1.9,1.7c-0.4,0.5-0.7,1.1-0.9,1.7c-0.2,0.7,0,1.4,0,2.1c-0.1,0.4-0.7,0.3-0.9,0.1
				c-1.4-1.1-2.5-2.5-3.9-3.6c-1.1-0.9-2.1-2-3.2-3c-0.4-0.4-0.9-0.7-0.9-1.3c0.7-0.2,1.4-0.2,2-0.5c1.3-0.8,2.5-1.8,3.8-2.6
				c2.3-1.4,4.6-2.7,7.1-3.5C152.7,29.4,154.9,28.8,157.1,28.6z"/>
			<path d="M97.7,29.3c2.7-0.5,5.4-0.8,8.1-0.9c3,0,6.1-0.1,9.1,0.5c1.7,0.2,3.4,0.8,5.1,1.2c1.8,0.6,3.5,1.5,5.1,2.5
				c1.9,1.3,3.5,3.1,4.2,5.4c0.3,1.4,0.4,3,0,4.4c-0.3,0.9-0.7,1.8-1.4,2.5c-0.6,0.7-1.5,1.1-2.4,1.6c-0.9,0.5-2,0.8-2.9,1.3
				c0.2,0.2,0.2,0.5,0.4,0.6c1.1,0.5,2.4,0.8,3.5,1.4c1.7,0.8,3.1,2.1,4.4,3.4c0.9,1.1,1.5,2.4,1.7,3.9c0.1,0.9,0.3,1.8,0.1,2.7
				c-0.3,1.7-1,3.4-2.3,4.6c-1.8,1.9-4.1,3.1-6.5,4.2c-2.3,0.9-4.7,1.6-7.1,1.9c-4.7,0.8-9.6,0.6-14.3,0.4c-3.2-0.3-6.5-0.6-9.6-1.4
				c-2.5-0.7-4.9-1.5-7.3-2.5c-0.8-0.4-1.7-0.8-2.6-0.9c-0.7,0-1.5,0.2-2.2,0.2c-0.3-0.1-0.5-0.4-0.4-0.6c0.3-0.7,0.7-1.3,1.1-1.9
				c1-1.6,1.9-3.1,2.9-4.7c0.4-0.7,0.8-1.4,1.3-2c0.3-0.4,0.9-0.4,1.2,0.1c0.4,0.8,0.6,1.9,1.5,2.4c1.9,1.6,4.3,2.5,6.7,3.3
				c1.9,0.5,3.8,1,5.8,1.3c3.8,0.6,7.7,0.7,11.5,0.3c1.9-0.3,3.8-0.7,5.6-1.4c1.6-0.6,2.9-1.8,3.8-3.2c1.1-1.7,0.2-4-1.4-5.1
				c-2.2-1.8-5-2.4-7.7-2.8c-2.2-0.4-4.5-0.3-6.7-0.3c-1.4,0-2.8,0.2-4.2,0.6c-0.6,0.2-1,0.8-1.6,0.9c-0.5-0.2-0.4-0.9-0.4-1.3
				c0-2.5-0.1-5,0.1-7.6c0.9-0.1,1.5,0.7,2.4,0.8c3.1,0.8,6.4,0.4,9.6,0c1.8-0.4,3.7-0.5,5.2-1.7c0.8-0.7,1.6-1.4,2.1-2.4
				c0.4-1.2-0.1-2.6-1.1-3.4c-0.7-0.6-1.5-1.1-2.3-1.5c-1.9-0.8-3.9-1-5.9-1.3c-2-0.2-4,0-6,0.2c-2.7,0.2-5.4,1-7.9,2.1
				c-1.5,0.6-2.9,1.5-4.2,2.5c-0.6,0.7-0.7,1.6-0.7,2.5c0,0.4-0.6,0.8-0.9,0.5c-2.3-2-4.3-4.4-6.5-6.5c-0.3-0.3-0.7-0.6-0.8-1
				c0-0.2,0.1-0.4,0.2-0.6c0.8,0.1,1.7,0.2,2.4-0.2c2.1-1,4.1-2.2,6.2-3.2C93.5,30.4,95.6,29.8,97.7,29.3z"/>
			<path d="M191.8,28.3c5.1-0.2,10.2,0,15.3-0.1c0.5,0,1.1-0.1,1.5,0.2c-0.2,0.5-0.6,0.9-0.8,1.4c1.6,1.9,3.5,3.5,5.1,5.4
				c1.9,1.9,3.8,3.8,5.7,5.8c0.3,0.3,0.7,0.7,1.2,0.4c1.1-0.9,2-2,3-3c2.5-2.5,4.9-5.1,7.4-7.6c0.3-0.4,0.9-0.7,0.7-1.3
				c-0.2-0.4-0.5-0.7-0.7-1.1c1.2-0.2,2.5-0.2,3.8-0.2c4.2,0,8.4,0,12.6,0c0.4-0.1,0.5,0.5,0.6,0.7c-0.9,0.4-1.8,0.5-2.7,0.9
				c-1.4,0.6-2.4,1.9-3.5,3c-1.6,1.6-3.2,3.3-4.8,4.9c-2.2,2.2-4.4,4.4-6.6,6.7c-1,1.1-2.1,2.1-3.1,3.2c-0.2,0.3-0.5,0.7-0.2,1.1
				c1,1.3,2.3,2.3,3.4,3.6c1,0.9,1.7,1.9,2.7,2.9c2.5,2.6,5.1,5.1,7.6,7.7c1.4,1.6,2.9,3,4.3,4.5c0.8,0.8,1.8,1.4,2.9,1.7
				c0.6,0.3,1.5,0.3,1.8,1c-0.9,0.2-1.9,0.2-2.8,0.2c-4,0-8,0-12,0c-0.7,0-1.4,0.1-2.1-0.2c0.2-0.4,0.6-0.8,0.7-1.3
				c-0.2-0.3-0.4-0.6-0.7-0.8c-1-1.1-2.1-2.1-3.1-3.2c-2.4-2.8-5.1-5.2-7.6-7.9c-0.5-0.5-1-1.2-1.7-1.5c-0.6-0.4-1.1,0.3-1.5,0.6
				c-2.4,2.5-4.9,4.9-7.3,7.4c-1.4,1.7-2.9,3.1-4.5,4.7c-0.3,0.3-0.6,0.6-0.5,1c0.2,0.3,0.4,0.6,0.6,0.9c-0.1,0.1-0.2,0.2-0.2,0.3
				c-4.8,0-9.6,0-14.5,0c-0.7,0-1.4,0.1-2.1-0.2c0.2-0.3,0.4-0.6,0.7-0.7c1.1-0.4,2.3-0.6,3.3-1.5c1.3-1.1,2.4-2.4,3.6-3.6
				c3.6-4,7.6-7.6,11.2-11.6c1.1-1,2-2.1,3.1-3c0.4-0.3,0.7-0.7,0.9-1.1c0.2-0.6-0.4-1-0.7-1.4c-0.5-0.5-1-1-1.5-1.5
				c-3.1-3.4-6.5-6.6-9.7-9.9c-1.2-1.4-2.6-2.6-3.9-4c-0.6-0.6-1.2-1.3-2-1.8c-0.8-0.5-1.9-0.6-2.8-1
				C191.8,29,191.8,28.6,191.8,28.3z"/>
		</g>
		<path fill="#0084E2" d="M158.8,27c1.7-0.2,3.3-0.4,5-0.4c2.6-0.1,5.2,0.4,7.8,0.8c1.9,0.5,3.7,1.1,5.5,1.8c2,0.8,3.9,2,5.3,3.6
			c1.2,1.2,2.1,2.8,2.4,4.5c0.1,1.6,0.3,3.3-0.4,4.9c-0.5,1.3-1.2,2.7-2.2,3.7c-1.6,1.6-3.6,2.7-5.6,3.7c-1.2,0.6-2.4,1.2-3.7,1.7
			c-2.3,0.8-4.6,1.7-7,2.3c-2.5,0.6-4.9,1.6-7.4,2.4c-3.1,1.1-6,2.5-8.5,4.6c-0.4,0.3-0.6,0.8-0.9,1.2c0.5,0.5,1.3,0.3,2,0.4
			c11.1,0,22.3,0,33.4,0c0.5,0,1.1,0,1.6-0.3c0.6-0.4,1.1-0.8,1.7-1c0.2,1.3,0.1,2.6,0.2,3.9c0,1.8,0,3.6-0.1,5.4
			c-0.2,0-0.5,0.1-0.7,0.1c-0.4-0.4-0.8-1-1.4-1.1c-0.7-0.2-1.4-0.2-2.1-0.2c-15.3,0-30.6,0-45.9,0c-0.4,0-0.8-0.2-0.9-0.5
			c-0.1-1.9,0.4-3.9,1.2-5.7c1.2-2.9,3.7-5.1,6.1-7c1.7-1.1,3.4-2.1,5.2-2.9c1-0.5,2-1.1,3.1-1.5c1.6-0.6,3.2-1.3,4.8-1.9
			c2.3-0.8,4.6-1.7,6.8-2.6c2.2-0.8,4.3-1.7,6.3-2.9c1.6-0.9,2.7-2.3,3.6-3.9c0.6-1.4-0.1-2.9-1-4c-2.4-2.1-5.8-2.7-8.9-2.9
			c-4.7,0-9.5,1.4-13.3,4.3c-0.7,0.5-1.4,1-1.9,1.7c-0.4,0.5-0.7,1.1-0.9,1.7c-0.2,0.7,0,1.4,0,2.1c-0.1,0.4-0.7,0.3-0.9,0.1
			c-1.4-1.1-2.5-2.5-3.9-3.6c-1.1-0.9-2.1-2-3.2-3c-0.4-0.4-0.9-0.7-0.9-1.3c0.7-0.2,1.4-0.2,2-0.5c1.3-0.8,2.5-1.8,3.8-2.6
			c2.3-1.4,4.6-2.7,7.1-3.5C154.3,27.8,156.5,27.3,158.8,27z"/>
		<path fill="#0084E2" d="M99.3,27.7c2.7-0.5,5.4-0.8,8.1-0.9c3,0,6.1-0.1,9.1,0.5c1.7,0.2,3.4,0.8,5.1,1.2c1.8,0.6,3.5,1.5,5.1,2.5
			c1.9,1.3,3.5,3.1,4.2,5.4c0.3,1.4,0.4,3,0,4.4c-0.3,0.9-0.7,1.8-1.4,2.5c-0.6,0.7-1.5,1.1-2.4,1.6c-0.9,0.5-2,0.8-2.9,1.3
			c0.2,0.2,0.2,0.5,0.4,0.6c1.1,0.5,2.4,0.8,3.5,1.4c1.7,0.8,3.1,2.1,4.4,3.4c0.9,1.1,1.5,2.4,1.7,3.9c0.1,0.9,0.3,1.8,0.1,2.7
			c-0.3,1.7-1,3.4-2.3,4.6c-1.8,1.9-4.1,3.1-6.5,4.2c-2.3,0.9-4.7,1.6-7.1,1.9c-4.7,0.8-9.6,0.6-14.3,0.4c-3.2-0.3-6.5-0.6-9.6-1.4
			c-2.5-0.7-4.9-1.5-7.3-2.5c-0.8-0.4-1.7-0.8-2.6-0.9c-0.7,0-1.5,0.2-2.2,0.2c-0.3-0.1-0.5-0.4-0.4-0.6c0.3-0.7,0.7-1.3,1.1-1.9
			c1-1.6,1.9-3.1,2.9-4.7c0.4-0.7,0.8-1.4,1.3-2c0.3-0.4,0.9-0.4,1.2,0.1c0.4,0.8,0.6,1.9,1.5,2.4c1.9,1.6,4.3,2.5,6.7,3.3
			c1.9,0.5,3.8,1,5.8,1.3c3.8,0.6,7.7,0.7,11.5,0.3c1.9-0.3,3.8-0.7,5.6-1.4c1.6-0.6,2.9-1.8,3.8-3.2c1.1-1.7,0.2-4-1.4-5.1
			c-2.2-1.8-5-2.4-7.7-2.8c-2.2-0.4-4.5-0.3-6.7-0.3c-1.4,0-2.8,0.2-4.2,0.6c-0.6,0.2-1,0.8-1.6,0.9c-0.5-0.2-0.4-0.9-0.4-1.3
			c0-2.5-0.1-5,0.1-7.6c0.9-0.1,1.5,0.7,2.4,0.8c3.1,0.8,6.4,0.4,9.6,0c1.8-0.4,3.7-0.5,5.2-1.7c0.8-0.7,1.6-1.4,2.1-2.4
			c0.4-1.2-0.1-2.6-1.1-3.4c-0.7-0.6-1.5-1.1-2.3-1.5c-1.9-0.8-3.9-1-5.9-1.3c-2-0.2-4,0-6,0.2c-2.7,0.2-5.4,1-7.9,2.1
			c-1.5,0.6-2.9,1.5-4.2,2.5c-0.6,0.7-0.7,1.6-0.7,2.5c0,0.4-0.6,0.8-0.9,0.5c-2.3-2-4.3-4.4-6.5-6.5c-0.3-0.3-0.7-0.6-0.8-1
			c0-0.2,0.1-0.4,0.2-0.6c0.8,0.1,1.7,0.2,2.4-0.2c2.1-1,4.1-2.2,6.2-3.2C95.1,28.9,97.2,28.2,99.3,27.7z"/>
		<path fill="#ED0A0A" d="M193.4,26.8c5.1-0.2,10.2,0,15.3-0.1c0.5,0,1.1-0.1,1.5,0.2c-0.2,0.5-0.6,0.9-0.8,1.4
			c1.6,1.9,3.5,3.5,5.1,5.4c1.9,1.9,3.8,3.8,5.7,5.8c0.3,0.3,0.7,0.7,1.2,0.4c1.1-0.9,2-2,3-3c2.5-2.5,4.9-5.1,7.4-7.6
			c0.3-0.4,0.9-0.7,0.7-1.3c-0.2-0.4-0.5-0.7-0.7-1.1c1.2-0.2,2.5-0.2,3.8-0.2c4.2,0,8.4,0,12.6,0c0.4-0.1,0.5,0.5,0.6,0.7
			c-0.9,0.4-1.8,0.5-2.7,0.9c-1.4,0.6-2.4,1.9-3.5,3c-1.6,1.6-3.2,3.3-4.8,4.9c-2.2,2.2-4.4,4.4-6.6,6.7c-1,1.1-2.1,2.1-3.1,3.2
			c-0.2,0.3-0.5,0.7-0.2,1.1c1,1.3,2.3,2.3,3.4,3.6c1,0.9,1.7,1.9,2.7,2.9c2.5,2.6,5.1,5.1,7.6,7.7c1.4,1.6,2.9,3,4.3,4.5
			c0.8,0.8,1.8,1.4,2.9,1.7c0.6,0.3,1.5,0.3,1.8,1c-0.9,0.2-1.9,0.2-2.8,0.2c-4,0-8,0-12,0c-0.7,0-1.4,0.1-2.1-0.2
			c0.2-0.4,0.6-0.8,0.7-1.3c-0.2-0.3-0.4-0.6-0.7-0.8c-1-1.1-2.1-2.1-3.1-3.2c-2.4-2.8-5.1-5.2-7.6-7.9c-0.5-0.5-1-1.2-1.7-1.5
			c-0.6-0.4-1.1,0.3-1.5,0.6c-2.4,2.5-4.9,4.9-7.3,7.4c-1.4,1.7-2.9,3.1-4.5,4.7c-0.3,0.3-0.6,0.6-0.5,1c0.2,0.3,0.4,0.6,0.6,0.9
			c-0.1,0.1-0.2,0.2-0.2,0.3c-4.8,0-9.6,0-14.5,0c-0.7,0-1.4,0.1-2.1-0.2c0.2-0.3,0.4-0.6,0.7-0.7c1.1-0.4,2.3-0.6,3.3-1.5
			c1.3-1.1,2.4-2.4,3.6-3.6c3.6-4,7.6-7.6,11.2-11.6c1.1-1,2-2.1,3.1-3c0.4-0.3,0.7-0.7,0.9-1.1c0.2-0.6-0.4-1-0.7-1.4
			c-0.5-0.5-1-1-1.5-1.5c-3.1-3.4-6.5-6.6-9.7-9.9c-1.2-1.4-2.6-2.6-3.9-4c-0.6-0.6-1.2-1.3-2-1.8c-0.8-0.5-1.9-0.6-2.8-1
			C193.4,27.4,193.5,27,193.4,26.8z"/>
	</g>
	<g>
		<rect x="65.2" fill="#FFE607" width="200.6" height="20.3"/>
		<g>
			<path d="M88.6,11.2h-3c-0.2,0-0.3,0-0.4,0.1c-0.1,0.1-0.2,0.2-0.2,0.5h-0.3v-3h0.3C85,9,85.1,9.2,85.2,9.3
				c0.1,0.1,0.2,0.1,0.4,0.1h5.7v0.3c-0.2,0.1-0.4,0.1-0.4,0.2c-0.1,0.1-0.1,0.2-0.1,0.4V13c0,0.2,0,0.3,0.1,0.4s0.2,0.2,0.4,0.2
				v0.2C89,15.3,86.8,16,84.6,16c-2,0-3.6-0.5-4.8-1.5c-1.6-1.2-2.3-2.9-2.3-5.1c0-2,0.7-3.7,2.1-4.9c1.3-1.1,3.1-1.7,5.2-1.7
				c0.7,0,1.3,0.1,2,0.2c0.6,0.1,1.3,0.4,2.1,0.7c0.4,0.2,0.7,0.3,0.9,0.3c0.1,0,0.3-0.1,0.4-0.2l0.2,0.1l-1.4,3l-0.3-0.1
				c0-0.2,0-0.4-0.1-0.4c0-0.1-0.2-0.2-0.3-0.3c-0.4-0.3-0.9-0.5-1.6-0.7c-0.7-0.2-1.4-0.3-2-0.3c-1.3,0-2.3,0.4-3.1,1.1
				c-0.9,0.8-1.4,2-1.4,3.3c0,1.3,0.5,2.4,1.4,3.2c0.8,0.8,1.9,1.1,3.3,1.1c0.7,0,1.3-0.1,2-0.2c0.6-0.2,1.2-0.4,1.7-0.7V11.2z"/>
			<path d="M110.2,10.2v3.5h7.8c0.2,0,0.3,0,0.4-0.1c0.1-0.1,0.2-0.2,0.2-0.5h0.3v3.3h-0.3c-0.1-0.2-0.1-0.4-0.2-0.5
				c-0.1-0.1-0.2-0.1-0.4-0.1h-11v-0.3c0.2-0.1,0.4-0.1,0.4-0.2c0.1-0.1,0.1-0.2,0.1-0.4V4c0-0.2,0-0.3-0.1-0.4
				c-0.1-0.1-0.2-0.2-0.4-0.2V3h10.8c0.2,0,0.3,0,0.4-0.1c0.1-0.1,0.2-0.2,0.2-0.5h0.3v3.3h-0.3c-0.1-0.2-0.1-0.4-0.2-0.5
				c-0.1-0.1-0.2-0.1-0.4-0.1h-7.6v3h4.9c0.2,0,0.3,0,0.4-0.1c0.1-0.1,0.2-0.2,0.2-0.5h0.3v3.2h-0.3c-0.1-0.2-0.1-0.4-0.2-0.5
				c-0.1-0.1-0.2-0.1-0.4-0.1H110.2z"/>
			<path d="M137.5,7v7.7c0,0.2,0,0.3,0.1,0.4c0.1,0.1,0.2,0.2,0.4,0.2v0.3h-3.6v-0.3c0.2-0.1,0.4-0.1,0.4-0.2
				c0.1-0.1,0.1-0.2,0.1-0.4V4c0-0.2,0-0.3-0.1-0.4c-0.1-0.1-0.2-0.2-0.4-0.2V3h4.1v0.3c-0.3,0.1-0.4,0.2-0.4,0.4
				c0,0.1,0.1,0.3,0.2,0.5l6.7,7.3V4c0-0.2,0-0.3-0.1-0.4c-0.1-0.1-0.2-0.2-0.4-0.2V3h3.6v0.3c-0.2,0.1-0.4,0.1-0.4,0.2
				c-0.1,0.1-0.1,0.2-0.1,0.4v10.8c0,0.2,0,0.3,0.1,0.4c0.1,0.1,0.2,0.2,0.4,0.2v0.3h-3.8v-0.3c0.2-0.1,0.4-0.2,0.4-0.4
				c0-0.1-0.1-0.3-0.4-0.7L137.5,7z"/>
			<path d="M167.2,10.2v3.5h7.8c0.2,0,0.3,0,0.4-0.1c0.1-0.1,0.2-0.2,0.2-0.5h0.3v3.3h-0.3c-0.1-0.2-0.1-0.4-0.2-0.5
				c-0.1-0.1-0.2-0.1-0.4-0.1h-11v-0.3c0.2-0.1,0.4-0.1,0.4-0.2c0.1-0.1,0.1-0.2,0.1-0.4V4c0-0.2,0-0.3-0.1-0.4
				c-0.1-0.1-0.2-0.2-0.4-0.2V3h10.8c0.2,0,0.3,0,0.4-0.1c0.1-0.1,0.2-0.2,0.2-0.5h0.3v3.3h-0.3c-0.1-0.2-0.1-0.4-0.2-0.5
				c-0.1-0.1-0.2-0.1-0.4-0.1h-7.6v3h4.9c0.2,0,0.3,0,0.4-0.1c0.1-0.1,0.2-0.2,0.2-0.5h0.3v3.2h-0.3c-0.1-0.2-0.1-0.4-0.2-0.5
				c-0.1-0.1-0.2-0.1-0.4-0.1H167.2z"/>
			<path d="M202.7,4.1l-1.4,3L201,6.9c0-0.1,0-0.1,0-0.1c0-0.2-0.2-0.4-0.5-0.7c-1.1-0.8-2.3-1.2-3.7-1.2c-0.6,0-1.2,0.1-1.7,0.2
				c-0.3,0.1-0.6,0.3-0.8,0.6c-0.2,0.2-0.3,0.5-0.3,0.8c0,0.5,0.3,0.8,0.8,1c0.3,0.1,0.9,0.2,1.8,0.3L198,8c0.8,0.1,1.5,0.2,2,0.4
				c0.5,0.2,1,0.4,1.4,0.7c0.4,0.3,0.7,0.7,1,1.2c0.2,0.5,0.4,1,0.4,1.6c0,0.9-0.3,1.7-0.8,2.4c-0.5,0.6-1.3,1.1-2.3,1.4
				c-0.8,0.2-1.6,0.3-2.5,0.3c-1.6,0-3.2-0.4-4.7-1.2c-0.3-0.2-0.5-0.2-0.6-0.2c-0.1,0-0.2,0.1-0.4,0.2l-0.3-0.1l1.3-3.1l0.3,0.1
				c0,0.1,0,0.1,0,0.1c0,0.3,0.1,0.5,0.4,0.8c0.4,0.4,1,0.7,1.8,0.9c0.8,0.3,1.6,0.4,2.3,0.4c0.8,0,1.5-0.1,2-0.4
				c0.3-0.2,0.6-0.4,0.7-0.6c0.2-0.3,0.3-0.5,0.3-0.8c0-0.4-0.2-0.7-0.6-0.9c-0.3-0.1-0.9-0.2-1.8-0.3l-1.4-0.1
				c-0.9-0.1-1.6-0.2-1.9-0.3c-0.4-0.1-0.8-0.2-1.1-0.4c-0.5-0.3-1-0.7-1.3-1.3c-0.3-0.5-0.4-1.1-0.4-1.7c0-1.1,0.4-2,1.1-2.7
				c0.9-0.9,2.3-1.4,4.2-1.4c0.8,0,1.5,0.1,2.2,0.2c0.7,0.2,1.5,0.5,2.5,0.9c0.3,0.1,0.6,0.2,0.6,0.2c0.1,0,0.3-0.1,0.4-0.2
				L202.7,4.1z"/>
			<path d="M223.3,14.8V4c0-0.2,0-0.3-0.1-0.4c-0.1-0.1-0.2-0.2-0.4-0.2V3h3.8v0.3c-0.2,0.1-0.4,0.1-0.4,0.2
				c-0.1,0.1-0.1,0.2-0.1,0.4v10.8c0,0.2,0,0.3,0.1,0.4c0.1,0.1,0.2,0.2,0.4,0.2v0.3h-3.8v-0.3c0.2-0.1,0.4-0.1,0.4-0.2
				C223.2,15.1,223.3,15,223.3,14.8z"/>
			<path d="M253.6,4.1l-1.4,3l-0.2-0.1c0-0.1,0-0.1,0-0.1c0-0.2-0.2-0.4-0.5-0.7c-1.1-0.8-2.3-1.2-3.7-1.2C247,5,246.5,5,246,5.2
				c-0.3,0.1-0.6,0.3-0.8,0.6c-0.2,0.2-0.3,0.5-0.3,0.8c0,0.5,0.3,0.8,0.8,1c0.3,0.1,0.9,0.2,1.8,0.3l1.4,0.1c0.8,0.1,1.5,0.2,2,0.4
				c0.5,0.2,1,0.4,1.4,0.7c0.4,0.3,0.7,0.7,1,1.2c0.2,0.5,0.4,1,0.4,1.6c0,0.9-0.3,1.7-0.8,2.4c-0.5,0.6-1.3,1.1-2.3,1.4
				c-0.8,0.2-1.6,0.3-2.5,0.3c-1.6,0-3.2-0.4-4.7-1.2c-0.3-0.2-0.5-0.2-0.6-0.2c-0.1,0-0.2,0.1-0.4,0.2l-0.3-0.1l1.3-3.1l0.3,0.1
				c0,0.1,0,0.1,0,0.1c0,0.3,0.1,0.5,0.4,0.8c0.4,0.4,1,0.7,1.8,0.9c0.8,0.3,1.6,0.4,2.3,0.4c0.8,0,1.5-0.1,2-0.4
				c0.3-0.2,0.6-0.4,0.7-0.6c0.2-0.3,0.3-0.5,0.3-0.8c0-0.4-0.2-0.7-0.6-0.9c-0.3-0.1-0.9-0.2-1.8-0.3l-1.4-0.1
				c-0.9-0.1-1.6-0.2-1.9-0.3c-0.4-0.1-0.8-0.2-1.1-0.4c-0.5-0.3-1-0.7-1.3-1.3c-0.3-0.5-0.4-1.1-0.4-1.7c0-1.1,0.4-2,1.1-2.7
				c0.9-0.9,2.3-1.4,4.2-1.4c0.8,0,1.5,0.1,2.2,0.2c0.7,0.2,1.5,0.5,2.5,0.9c0.3,0.1,0.6,0.2,0.6,0.2c0.1,0,0.3-0.1,0.4-0.2
				L253.6,4.1z"/>
		</g>
	</g>
</g>
</svg>
