<?xml version="1.0" encoding="UTF-8" standalone="no"?>
<!-- Generator: Adobe Illustrator 13.0.0, SVG Export Plug-In . SVG Version: 6.00 Build 14948)  -->

<svg
   xmlns:ns="&amp;#38;ns_sfw;"
   xmlns:dc="http://purl.org/dc/elements/1.1/"
   xmlns:cc="http://creativecommons.org/ns#"
   xmlns:rdf="http://www.w3.org/1999/02/22-rdf-syntax-ns#"
   xmlns:svg="http://www.w3.org/2000/svg"
   xmlns="http://www.w3.org/2000/svg"
   xmlns:sodipodi="http://sodipodi.sourceforge.net/DTD/sodipodi-0.dtd"
   xmlns:inkscape="http://www.inkscape.org/namespaces/inkscape"
   version="1.2"
   id="Layer_3"
   x="0px"
   y="0px"
   width="583.36627"
   height="307.37918"
   viewBox="0 0 583.36625 307.37917"
   xml:space="preserve"
   inkscape:version="0.91 r13725"
   sodipodi:docname="controller.svg"><defs
     id="defs29" /><sodipodi:namedview
     pagecolor="#ffffff"
     bordercolor="#666666"
     borderopacity="1"
     objecttolerance="10"
     gridtolerance="10"
     guidetolerance="10"
     inkscape:pageopacity="0"
     inkscape:pageshadow="2"
     inkscape:window-width="690"
     inkscape:window-height="480"
     id="namedview27"
     showgrid="false"
     fit-margin-top="0"
     fit-margin-left="0"
     fit-margin-right="0"
     fit-margin-bottom="0"
     inkscape:zoom="0.48145317"
     inkscape:cx="-17.737389"
     inkscape:cy="151.57219"
     inkscape:window-x="0"
     inkscape:window-y="0"
     inkscape:window-maximized="0"
     inkscape:current-layer="Layer_3" /><metadata
     id="metadata55"><rdf:RDF><cc:Work
         rdf:about=""><dc:format>image/svg+xml</dc:format><dc:type
           rdf:resource="http://purl.org/dc/dcmitype/StillImage" /><dc:title></dc:title></cc:Work></rdf:RDF><ns:sfw><ns:slices /><ns:sliceSourceBounds
         x="-7231"
         y="-7652"
         width="16383"
         height="16383"
         bottomLeftOrigin="true" /></ns:sfw></metadata><path
     id="ellipse3"
     d="M 214.35136,70.541 C 177.69536,36.658 114.23336,46 72.592356,91.061 c -41.65,45.062 -45.998,109.076 -9.34,142.956 36.658,33.89 100.156004,24.539 141.807004,-20.521 41.651,-45.058 45.958,-109.075 9.294,-142.964 l -0.002,0.009 z m -1.3,1.406 c 35.728,33.014 31.679,95.811 -9.398,140.256 -41.086,44.445 -103.382,53.432 -139.099004,20.413 -35.719,-33.008 -31.636,-95.8 9.446,-140.255 C 115.08236,47.914 177.34336,38.933 213.06036,71.947 l -0.009,0 z"
     inkscape:connector-curvature="0"
     style="fill:#f4f4f4" /><path
     id="ellipse5"
     d="m 199.25836,82.226 c -30.099,-27.824 -82.364,-19.948 -116.741004,17.242 -34.378,37.191 -38.132,89.906 -8.033,117.737 30.099004,27.822 82.364004,19.945 116.742004,-17.246 34.377,-37.191 38.128,-89.906 8.029,-117.737 l 0.003,0.004 z m -1.3,1.406 c 29.154,26.95 25.675,78.45 -8.138,115.028 -33.814,36.579 -84.883,44.086 -114.033004,17.136 -29.156,-26.941 -25.677,-78.44 8.136,-115.019 C 117.73536,64.194 168.80336,56.688 197.95636,83.638 l 0.002,-0.006 z"
     inkscape:connector-curvature="0"
     style="fill:#f4f4f4" /><path
     id="path7"
     d="m 283.68036,0.002 c -33.468,0 -69.873,4.176 -105.276,14.057 -0.688,0.2 -1.309,0.72 -1.436,1.406 -0.127,0.686 0.168,1.258 0.538,1.674 0,0 5.863,6.771 9.362,10.02 1.587,1.474 3.045,3.654 5.772,5.084 2.727,1.43 6.623,1.968 12.831,0.479 11.909,-2.858 57.564,-8.942 74.83,-8.942 l 22.79,0 c 17.265,0 62.918,6.084 74.83,8.942 6.207,1.489 10.074,0.951 12.801,-0.479 2.727,-1.43 4.217,-3.611 5.802,-5.084 3.492,-3.242 9.093,-9.661 9.093,-9.661 l -1.466,-1.256 c 0,0 -5.603,6.438 -8.913,9.511 -1.812,1.684 -3.131,3.634 -5.383,4.815 -2.253,1.181 -5.549,1.723 -11.484,0.299 -12.378,-2.97 -57.571,-9.003 -75.278,-9.003 l -22.79,0 c -17.708,0 -62.902,6.033 -75.278,9.003 -5.937,1.424 -9.232,0.882 -11.485,-0.299 -2.252,-1.182 -3.57,-3.132 -5.383,-4.815 -3.292,-3.057 -9.14,-9.787 -9.188,-9.842 35.19,-9.816 71.415,-13.997 104.711,-13.997 l 15.992,0 c 34.192,0 71.468,4.468 107.554,14.864 -0.27,0.313 -7.83,9.078 -11.036,12.053 -1.78,1.652 -3.319,3.584 -5.831,4.785 -2.512,1.201 -6.063,1.752 -11.994,0.329 -12.383,-2.971 -57.575,-9.003 -75.281,-9.003 l -22.789,0 c -17.708,0 -62.901,6.032 -75.278,9.002 -5.931,1.424 -9.48,0.872 -11.993,-0.329 -2.512,-1.2 -4.051,-3.132 -5.832,-4.785 -3.284,-3.049 -11.245,-11.993 -11.245,-11.993 -1.043,-1.186 -2.641,-1.322 -3.924,-0.926 -41.118,12.326 -80.551004,32.515 -111.978004,63.046 -29.897,29.046 -50.6939998,67.654 -57.5729998,105.066 -6.879,37.415 0.198,73.74 26.2599998,97.916 28.719,26.641 53.625,28.939 76.056004,22.281 22.432,-6.658 42.46,-22.075 61.969,-30.626 18.913,-8.288 63.788,-28.323 106.234,-28.323 l 37.384,0 c 42.446,0 87.32,20.035 106.233,28.323 19.509,8.551 39.509,23.969 61.938,30.626 22.432,6.658 47.37,4.358 76.087,-22.281 26.063,-24.178 33.139,-60.504 26.261,-97.916 -6.883,-37.412 -27.68,-76.02 -57.578,-105.066 C 463.30936,20.661 374.17036,0 299.66336,0 l -16.001,0 0.018,0.002 z m 124.053,16.897 c 41.978,12.164 82.317,32.418 114.253,63.435 29.607,28.762 50.237,67.05 57.035,104.023 6.798,36.969 -0.202,72.538 -25.691,96.184 -28.357,26.306 -52.246,28.379 -74.201,21.863 -21.954,-6.518 -41.894,-21.841 -61.729,-30.536 -18.892,-8.279 -63.965,-28.502 -107.009,-28.502 l -37.385,0 c -43.046,0 -88.12,20.223 -107.008,28.502 -19.837,8.695 -39.777,24.02 -61.73,30.536 -21.965004,6.518 -45.855004,4.44 -74.214004,-21.869 C 4.5663562,256.895 -2.4336438,221.322 4.3633562,184.35 11.160356,147.39 31.790356,109.098 61.397356,80.338 92.554356,50.07 131.68836,29.997 172.55936,17.74 c 0.767,-0.236 1.52,-0.136 1.944,0.359 0,0 7.848,8.877 11.366,12.143 1.62,1.504 3.358,3.704 6.31,5.114 2.953,1.41 7.066,1.94 13.279,0.449 11.911,-2.858 57.564,-8.943 74.83,-8.943 l 22.79,0 c 17.265,0 62.918,6.084 74.829,8.943 6.214,1.491 10.328,0.961 13.279,-0.449 2.953,-1.41 4.691,-3.61 6.311,-5.114 3.538,-3.284 11.306,-12.382 11.306,-12.382 l -1.076,-0.958 0.006,-0.003 z"
     inkscape:connector-curvature="0"
     style="fill:#f4f4f4" /><path
     id="path9"
     d="m 412.85336,47.166 c -23.602,0.603 -45.641,9.221 -61.76,26.229 -36.844,38.876 -28.561,106.501 18.155,151.061 46.713,44.563 114.464,49.433 151.301,10.558 36.843,-38.876 28.59,-106.501 -18.126,-151.061 -26.28,-25.068 -59.231,-37.563 -89.57,-36.789 l 0,0.002 z m 0.149,1.914 c 29.785,-0.746 62.181,11.514 88.109,36.249 46.096,43.972 54.016,110.405 18.034,148.373 -35.982,37.966 -102.491,33.354 -148.583,-10.617 -46.096,-43.973 -54.048,-110.406 -18.064,-148.373 15.744,-16.611 37.338,-25.052 60.504,-25.632 z"
     inkscape:connector-curvature="0"
     style="fill:#f4f4f4" /><path
     id="path11"
     d="m 420.26136,69.926 c -18.995,0.519 -36.874,7.615 -50.007,21.534 -25.401,26.924 -24.646,70.421 -0.718,104.165 l 1.561,-1.099 c -23.492,-33.134 -24.143,-75.587 0.539,-101.745 22.683,-24.043 60.07,-27.231 92.385,-10.528 l 0.87,-1.707 c -14.413,-7.449 -29.85,-11.021 -44.627,-10.618 l -0.003,-0.002 z"
     inkscape:connector-curvature="0"
     style="fill:#f4f4f4" /><path
     id="path13"
     d="m 491.36136,100.1 -1.35,1.35 c 8.043,8.122 14.432,17.2 19.141,26.708 l 1.732,-0.871 c -4.801,-9.692 -11.342,-18.919 -19.529,-27.186 l 0.006,0 z"
     inkscape:connector-curvature="0"
     style="fill:#f4f4f4" /><path
     id="path15"
     d="m 518.72236,172.54 c -0.902,16.388 -6.89,31.783 -18.214,43.785 -22.895,24.266 -60.765,27.285 -93.283,10.049 l -0.896,1.704 c 33.144,17.569 72.021,14.537 95.585,-10.438 11.657,-12.346 17.792,-28.224 18.721,-45.001 l -1.914,-0.09 10e-4,-0.009 z"
     inkscape:connector-curvature="0"
     style="fill:#f4f4f4" /><path
     id="circle17"
     d="m 135.69036,89.635 c -31.77,0 -57.542004,25.772 -57.542004,57.542 0,31.771 25.772004,57.543 57.542004,57.543 31.771,0 57.543,-25.772 57.543,-57.543 0,-31.769 -25.773,-57.542 -57.543,-57.542 z m 0,1.915 c 30.737,0 55.629,24.892 55.629,55.628 0,30.737 -24.892,55.629 -55.629,55.629 -30.736,0 -55.628004,-24.892 -55.628004,-55.629 -10e-4,-30.736 24.892004,-55.628 55.628004,-55.628 z"
     inkscape:connector-curvature="0"
     style="fill:#f4f4f4" /><path
     id="path19"
     d="m 137.99736,97.469 c -4.056,-0.187 -8.025,0.124 -11.843,0.867 -0.01,0.002 -0.02,-0.002 -0.03,0 l 0,0.03 c -0.575,0.104 -1.19,0.401 -1.555,0.927 -0.372,0.539 -0.502,1.207 -0.538,1.974 l -0.748,15.761 c -0.243,5.26 -1.778,9.063 -4.486,11.544 -2.708,2.482 -6.679,3.714 -11.993,3.47 l -15.462004,-0.718 c -0.775,-0.035 -1.378,-0.049 -2.003,0.209 -0.626,0.258 -1.108,0.842 -1.346,1.465 l 0,0.06 0,0.029 c -1.106,3.758 -1.786,7.699 -1.974,11.784 -0.179,3.901 0.094,7.711 0.778,11.395 l 0,0.03 c 0.298,1.385 1.644,2.486 3.499,2.572 l 15.313004,0.688 c 5.126,0.234 8.929,1.867 11.425,4.695 2.497,2.827 3.75,6.948 3.499,12.381 l -0.658,14.565 c -0.043,0.931 0.011,1.653 0.299,2.303 0.288,0.651 0.848,1.129 1.436,1.376 l 0.06,0.029 0.06,0 c 3.726,1.087 7.616,1.76 11.664,1.945 3.958,0.183 7.841,-0.102 11.575,-0.809 l 0.03,0 0.03,-0.029 c 0.64,-0.161 1.282,-0.525 1.705,-1.137 0.422,-0.61 0.614,-1.392 0.658,-2.333 l 0.688,-14.505 c 0.246,-5.325 1.882,-9.339 4.606,-11.993 2.724,-2.652 6.568,-3.993 11.455,-3.769 l 15.672,0.718 c 0.858,0.041 1.581,0.045 2.273,-0.299 0.692,-0.342 1.157,-1.013 1.436,-1.794 l 0,-0.03 0,-0.03 c 1.035,-3.632 1.673,-7.46 1.854,-11.394 0.182,-3.951 -0.104,-7.817 -0.808,-11.544 l 0,-0.029 -0.047,-0.058 c -0.163,-0.536 -0.411,-1.129 -0.928,-1.585 -0.516,-0.456 -1.244,-0.709 -2.093,-0.748 l -16.174,-0.746 c -4.832,-0.223 -8.54,-1.816 -11.007,-4.546 -2.467,-2.73 -3.76,-6.664 -3.529,-11.694 l 0.717,-15.433 c 0.034,-0.73 0.122,-1.362 -0.06,-2.034 -0.181,-0.672 -0.807,-1.309 -1.555,-1.556 l -0.03,0 c -3.782,-1.122 -7.757,-1.814 -11.873,-2.004 l 0.008,0 z m -0.09,1.914 c 3.961,0.182 7.789,0.866 11.426,1.944 0.233,0.074 0.227,0.055 0.27,0.209 0.046,0.173 0.034,0.694 0,1.435 l -0.718,15.433 c -0.249,5.405 1.18,9.908 4.038,13.07 2.857,3.162 7.106,4.933 12.322,5.174 l 16.18,0.748 c 0.548,0.025 0.784,0.143 0.927,0.27 0.136,0.12 0.223,0.355 0.329,0.688 0.005,0.018 0.024,0.012 0.03,0.03 0.659,3.546 0.921,7.217 0.748,10.976 -0.173,3.767 -0.779,7.412 -1.765,10.886 -0.196,0.551 -0.287,0.64 -0.449,0.719 -0.161,0.08 -0.585,0.155 -1.346,0.119 l -15.672,-0.718 c -5.29,-0.242 -9.749,1.247 -12.891,4.307 -3.141,3.062 -4.913,7.603 -5.173,13.279 l -0.689,14.5 c -0.033,0.715 -0.184,1.137 -0.329,1.346 -0.146,0.211 -0.287,0.28 -0.598,0.359 -3.57,0.671 -7.278,0.952 -11.065,0.777 -3.862,-0.177 -7.57,-0.795 -11.125,-1.825 -0.01,-0.001 -0.021,0.004 -0.03,0 -0.289,-0.123 -0.339,-0.178 -0.419,-0.358 -0.084,-0.188 -0.157,-0.665 -0.12,-1.466 l 0.658,-14.565 c 0.267,-5.773 -1.081,-10.445 -3.978,-13.728 -2.896,-3.28 -7.279,-5.071 -12.771,-5.323 l -15.313004,-0.718 c -1.217,-0.056 -1.59,-0.529 -1.705,-1.017 -0.002,-0.009 0.002,-0.021 0,-0.03 -0.653,-3.531 -0.919,-7.202 -0.748,-10.947 0.18,-3.908 0.802,-7.681 1.854,-11.274 0.012,-0.031 0.02,-0.003 0.03,-0.03 0.002,-0.01 -0.003,-0.021 0,-0.03 0.091,-0.223 0.137,-0.287 0.239,-0.329 0.119,-0.049 0.53,-0.092 1.226,-0.06 l 15.433004,0.718 c 5.654,0.26 10.204,-1.078 13.369,-3.978 3.165,-2.899 4.856,-7.295 5.115,-12.891 l 0.748,-15.732 c 0.026,-0.558 0.134,-0.849 0.209,-0.957 0.075,-0.108 0.085,-0.145 0.299,-0.18 l 0.03,0 c 3.678,-0.718 7.513,-1.018 11.425,-0.837 l 0,0.006 z"
     inkscape:connector-curvature="0"
     style="fill:#f4f4f4" /><path
     id="circle21"
     d="m 135.69036,135.664 c -6.336,0 -11.484,5.178 -11.484,11.514 0,6.336 5.148,11.484 11.484,11.484 6.337,0 11.485,-5.148 11.485,-11.484 0,-6.336 -5.148,-11.514 -11.485,-11.514 z m 0,1.914 c 5.303,0 9.571,4.298 9.571,9.6 0,5.303 -4.268,9.57 -9.571,9.57 -5.302,0 -9.57,-4.268 -9.57,-9.57 0,-5.302 4.268,-9.6 9.57,-9.6 z"
     inkscape:connector-curvature="0"
     style="fill:#f4f4f4" /><path
     id="polygon23"
     d="m 103.54336,111.891 0.568,1.914 1.884,6.34 0.449,1.466 1.106,-1.047 4.247,-3.858 1.137,-1.017 -1.406,-0.568 -6.161,-2.482 -1.824,-0.748 0,0 z m 2.961,3.26 2.901,1.167 -2.034,1.824 -0.867,-2.991 z"
     inkscape:connector-curvature="0"
     style="fill:#f4f4f4" /><path
     id="polygon25"
     d="m 104.20436,169.936 -0.568,1.406 -2.483,6.131 -0.717,1.854 1.884,-0.568 6.341,-1.885 1.465,-0.448 -1.017,-1.137 -3.888,-4.217 -1.017,-1.136 0,0 z m 0.627,3.529 1.825,2.004 -2.991,0.897 1.166,-2.901 0,0 z"
     inkscape:connector-curvature="0"
     style="fill:#f4f4f4" /><path
     id="polygon27"
     d="m 164.93836,172.749 -1.107,1.017 -4.247,3.858 -1.137,1.017 1.436,0.599 6.131,2.452 1.854,0.748 -0.598,-1.914 -1.885,-6.341 -0.447,-1.436 0,0 z m -0.958,3.44 0.898,2.991 -2.9,-1.167 2.002,-1.824 0,0 z"
     inkscape:connector-curvature="0"
     style="fill:#f4f4f4" /><path
     id="polygon29"
     d="m 170.98636,115.001 -1.914,0.568 -6.34,1.914 -1.466,0.419 1.017,1.136 3.888,4.247 1.017,1.107 0.568,-1.406 2.482,-6.131 0.748,-1.854 0,0 z m -3.29,2.991 -1.136,2.871 -1.825,-2.003 2.961,-0.868 0,0 z"
     inkscape:connector-curvature="0"
     style="fill:#f4f4f4" /><path
     id="circle31"
     d="m 395.74136,175.678 c -15.183,0 -27.516,12.333 -27.516,27.516 0,15.183 12.333,27.515 27.516,27.515 15.183,0 27.485,-12.332 27.485,-27.515 0,-15.183 -12.303,-27.516 -27.485,-27.516 z m 0,1.915 c 14.148,0 25.571,11.452 25.571,25.601 0,14.149 -11.423,25.601 -25.571,25.601 -14.148,0 -25.602,-11.452 -25.602,-25.601 0,-14.149 11.453,-25.601 25.602,-25.601 z"
     inkscape:connector-curvature="0"
     style="fill:#f4f4f4" /><path
     id="circle33"
     d="m 446.58036,144.909 c -15.182,0 -27.516,12.332 -27.516,27.515 0,15.184 12.334,27.515 27.516,27.515 15.184,0 27.486,-12.331 27.486,-27.515 0,-15.183 -12.303,-27.515 -27.486,-27.515 z m 0,1.914 c 14.147,0 25.572,11.453 25.572,25.601 0,14.148 -11.425,25.601 -25.572,25.601 -14.147,0 -25.602,-11.452 -25.602,-25.601 0,-14.149 11.454,-25.601 25.602,-25.601 z"
     inkscape:connector-curvature="0"
     style="fill:#f4f4f4" /><path
     id="circle35"
     d="m 501.61136,125.491 c -15.184,0 -27.516,12.333 -27.516,27.515 0,15.182 12.332,27.486 27.516,27.486 15.183,0 27.515,-12.304 27.515,-27.486 0,-15.182 -12.333,-27.515 -27.515,-27.515 z m 0,1.914 c 14.147,0 25.601,11.453 25.601,25.601 0,14.148 -11.454,25.571 -25.601,25.571 -14.148,0 -25.602,-11.423 -25.602,-25.571 0,-14.148 11.453,-25.601 25.602,-25.601 z"
     inkscape:connector-curvature="0"
     style="fill:#f4f4f4" /><path
     id="circle37"
     d="m 375.96836,116.734 c -11.069,0 -20.068,8.999 -20.068,20.068 0,11.07 8.999,20.068 20.068,20.068 11.069,0 20.068,-8.999 20.068,-20.068 10e-4,-11.069 -8.998,-20.068 -20.068,-20.068 z m 0,1.914 c 10.035,0 18.154,8.12 18.154,18.154 0,10.034 -8.119,18.154 -18.154,18.154 -10.036,0 -18.154,-8.12 -18.154,-18.154 0,-10.035 8.118,-18.154 18.154,-18.154 z"
     inkscape:connector-curvature="0"
     style="fill:#f4f4f4" /><path
     id="circle39"
     d="m 422.59636,92.448 c -11.07,0 -20.039,8.999 -20.039,20.068 0,11.069 8.969,20.068 20.039,20.068 11.069,0 20.067,-8.999 20.067,-20.068 0,-11.069 -8.998,-20.068 -20.067,-20.068 z m 0,1.914 c 10.035,0 18.153,8.119 18.153,18.154 0,10.035 -8.118,18.154 -18.153,18.154 -10.035,0 -18.126,-8.12 -18.126,-18.154 0,-10.035 8.091,-18.154 18.126,-18.154 z"
     inkscape:connector-curvature="0"
     style="fill:#f4f4f4" /><path
     id="circle41"
     d="m 471.82736,79.168 c -11.069,0 -20.068,8.999 -20.068,20.068 0,11.069 8.999,20.069 20.068,20.069 11.069,0 20.068,-9 20.068,-20.069 0,-11.069 -8.999,-20.068 -20.068,-20.068 z m 0,1.914 c 10.034,0 18.154,8.12 18.154,18.154 0,10.035 -8.118,18.155 -18.154,18.155 -10.034,0 -18.153,-8.12 -18.153,-18.155 -10e-4,-10.034 8.118,-18.154 18.153,-18.154 z"
     inkscape:connector-curvature="0"
     style="fill:#f4f4f4" /><path
     id="path43"
     d="m 266.11836,127.682 c -4.586,0 -8.314,3.729 -8.314,8.315 0,4.586 3.729,8.314 8.314,8.314 l 34.155,0 c 4.587,0 8.345,-3.729 8.345,-8.314 0,-4.585 -3.758,-8.315 -8.345,-8.315 l -34.155,0 z m 0,1.914 34.155,0 c 3.553,0 6.431,2.849 6.431,6.4 0,3.551 -2.878,6.4 -6.431,6.4 l -34.155,0 c -3.551,0 -6.4,-2.849 -6.4,-6.4 -0.001,-3.551 2.849,-6.4 6.4,-6.4 z"
     inkscape:connector-curvature="0"
     style="fill:#f4f4f4" /><path
     id="path45"
     d="m 266.11836,123.787 c -6.732,0 -12.202,5.47 -12.202,12.202 0,6.733 5.47,12.202 12.202,12.202 l 34.155,0 c 6.732,0 12.203,-5.469 12.203,-12.202 0,-6.732 -5.471,-12.202 -12.203,-12.202 l -34.155,0 z m 0,1.914 34.155,0 c 5.697,0 10.288,4.59 10.288,10.288 0,5.698 -4.591,10.288 -10.288,10.288 l -34.155,0 c -5.698,0 -10.288,-4.59 -10.288,-10.288 0,-5.698 4.59,-10.288 10.288,-10.288 z"
     inkscape:connector-curvature="0"
     style="fill:#f4f4f4" /><path
     id="path47"
     d="m 176.96836,15.793 c -0.093,0.077 -0.288,0.203 -0.538,0.299 -0.5,0.193 -1.209,0.285 -1.465,0.269 l -0.12,1.914 c 0.715,0.044 1.514,-0.096 2.273,-0.389 0.38,-0.146 0.748,-0.33 1.078,-0.598 0.329,-0.269 0.677,-0.678 0.718,-1.256 l -1.915,-0.149 c 0.01,-0.153 0.063,-0.167 -0.031,-0.09 l 0,0 z"
     inkscape:connector-curvature="0"
     style="fill:#f4f4f4" /></svg>