<svg xmlns="http://www.w3.org/2000/svg" width="400" height="80.536911">
  <g transform="matrix(0.53691275,0,0,0.53691275,-13.154362,-124.2953)">
    <path fill="#c2c4d2" d="M24.5 301.5v53l48 27h649l48-27v-53l-48-27h-240l-25-43h-118l-25 43h-241l-48 27zm252-9h25l45 25.14V292.5h24v70h-24v-25.86l-46-25.709V362.5h-24v-70zm313 70v-70h24v70h-24zm-207 0v-54l24-16h63l-23 14h-40v14h48l-23 14h-25v14h65l-23 14h-66zm-212 0v-54l24-16h63l-23 14h-40v14h48l-23 14h-25v14h65l-23 14h-66zm-16-45v29l-24 16h-69v-54l24-16h73l-23 14h-50v42h45v-17h-28l23-14h29zm418 31l-23 14h-71l23-14h45v-14h-68v-27l23-14h72l-23 14h-47v13h69v28zm153 0l-23 14h-71l23-14h45v-14h-68v-27l23-14h72l-23 14h-47v13h69v28z"/>
    <linearGradient id="a" x1="397.33499" x2="397.33499" y1="237.5" y2="375.50049" gradientUnits="userSpaceOnUse">
      <stop offset="0" stop-color="#d9dde9"/>
      <stop offset=".38999999" stop-color="#777489"/>
      <stop offset=".98000002" stop-color="#d9dde9"/>
    </linearGradient>
    <path fill="url(#a)" d="M477.5 280.5l-25-43H342.17l-25 43H72.83L30.5 304.25v47.5l42.33 23.75h649.01l42.33-23.75v-47.5l-42.33-23.75H477.5zm-201 12h25l45 25.14V292.5h24v70h-24v-25.86l-46-25.709V362.5h-24v-70zm313 70v-70h24v70h-24zm-207 0v-54l24-16h63l-23 14h-40v14h48l-23 14h-25v14h65l-23 14h-66zm-212 0v-54l24-16h63l-23 14h-40v14h48l-23 14h-25v14h65l-23 14h-66zm-16-45v29l-24 16h-69v-54l24-16h73l-23 14h-50v42h45v-17h-28l23-14h29zm418 31l-23 14h-71l23-14h45v-14h-68v-27l23-14h72l-23 14h-47v13h69v28zm153 0l-23 14h-71l23-14h45v-14h-68v-27l23-14h72l-23 14h-47v13h69v28z"/>
    <path fill="#181c4e" d="M431.16 249.2l-9.37 28.55h4.63l9.391-27.57c.34-1.26 1.369-2.18 2.579-2.18 1.221 0 2.25.92 2.591 2.18l7.939 23.32h-12.46v4.25H455l-9.37-28.55c-.899-3.15-3.8-5.45-7.24-5.45-3.43 0-6.329 2.3-7.23 5.45zm5.49 17.73l1.64-4.87 1.71 4.87h-3.35zm-.68-13.98l-8.39 24.8h5.41l3.47-10.28v4.86h10.9l-6.471-19.38c-.329-1.08-1.31-4.18-2.46-4.18-1.159 0-2.139 3.1-2.459 4.18zm-29.63-3.79h16.221v-4.64h-16.61c-4.48 0-8.11 3.64-8.11 8.12v17c0 4.48 3.63 8.11 8.11 8.11h16.61v-21.64H409.43v4.25h8.49v12.75h-11.58c-2.14 0-3.859-1.73-3.859-3.86v-16.23c-.001-2.13 1.719-3.86 3.859-3.86zm3.09 12.36v4.64h2.7v1.16h-2.7c-.64 0-1.16-.52-1.16-1.16v-10.05c0-.64.521-1.16 1.16-1.16h13.131v-4.63H407.5c-2.14 0-3.87 1.73-3.87 3.86v13.91c0 2.13 1.73 3.86 3.87 3.86h9.27v-10.43h-7.34zm-29.74-12.36h16.22v-4.64H379.3c-4.48 0-8.11 3.64-8.11 8.12v16.81c0 4.48 3.63 8.12 8.11 8.12h16.61v-4.64h-16.22c-2.13 0-3.86-1.73-3.86-3.86v-16.05c0-2.13 1.73-3.86 3.86-3.86zm12.74 11.2v-4.25h-10.81c0-.64.52-1.16 1.16-1.16h13.13v-4.63h-15.06c-2.13 0-3.86 1.73-3.86 3.86v6.18h15.44zm0 1.55v4.25h-10.81c0 .64.52 1.16 1.16 1.16h13.13v4.63h-15.06c-2.13 0-3.86-1.73-3.86-3.86v-6.18h15.44zm-39.69 5.79H343v4.25h15.06c2.79-.1 5.02-2.4 5.02-5.21 0-2.88-2.33-5.22-5.21-5.22h-5.86c-2.37-.9-4.38-3.25-4.38-5.99 0-3.52 3.24-6.37 6.76-6.37h14.49v-4.64h-15.07c-5.97 0-10.81 4.85-10.81 10.82 0 5.98 5.23 10.82 11.2 10.82v-.05l.03.05h3.45c.42 0 .77.34.77.77s-.35.77-.77.77h-4.94zm6.39-13.13h9.75v-4.25h-15.07c-2.79.1-5.02 2.4-5.02 5.21 0 2.89 2.34 5.22 5.22 5.22h5.86c2.37.91 4.37 3.25 4.37 5.99 0 3.52-3.24 6.37-6.76 6.37H343v4.64h15.06c5.97 0 10.82-4.84 10.82-10.82 0-5.97-5.23-10.82-11.2-10.82v.06l-.04-.06h-3.44c-.43 0-.77-.34-.77-.77 0-.42.34-.77.77-.77h4.93z"/>
  </g>
  <linearGradient id="b" x1="282.97659" x2="350.0932" y1="286.97659" y2="354.0932" gradientUnits="userSpaceOnUse" gradientTransform="matrix(0.53691275,0,0,0.53691275,-13.154362,-124.2953)">
    <stop offset="0"/>
    <stop offset=".11" stop-color="#181c4e"/>
    <stop offset=".22" stop-color="#181818"/>
    <stop offset=".34" stop-color="#181c4e"/>
    <stop offset=".47"/>
    <stop offset=".58999997" stop-color="#181c4e"/>
    <stop offset=".72000003"/>
    <stop offset=".83999997" stop-color="#181c4e"/>
    <stop offset=".98000002"/>
  </linearGradient>
  <path fill="url(#b)" d="M185.77181 32.751683v37.58389h-12.8859v-13.88457l-24.69799-13.80349v27.68806h-12.88591v-37.58389h13.42282l24.16108 13.49798v-13.49798"/>
  <linearGradient id="c" x1="578.51947" x2="645.26678" y1="303.0542" y2="374.05829" gradientUnits="userSpaceOnUse" gradientTransform="matrix(0.53691275,0,0,0.53691275,-13.154362,-124.2953)">
    <stop offset="0"/>
    <stop offset=".11" stop-color="#181c4e"/>
    <stop offset=".22" stop-color="#181818"/>
    <stop offset=".34" stop-color="#181c4e"/>
    <stop offset=".47"/>
    <stop offset=".58999997" stop-color="#181c4e"/>
    <stop offset=".72000003"/>
    <stop offset=".83999997" stop-color="#181c4e"/>
    <stop offset=".98000002"/>
  </linearGradient>
  <path fill="url(#c)" d="M303.3557 32.751683h12.88591v37.58389H303.3557z"/>
  <linearGradient id="d" x1="386.7139" x2="453.11661" y1="288.2139" y2="354.61661" gradientUnits="userSpaceOnUse" gradientTransform="matrix(0.53691275,0,0,0.53691275,-13.154362,-124.2953)">
    <stop offset="0"/>
    <stop offset=".11" stop-color="#181c4e"/>
    <stop offset=".22" stop-color="#181818"/>
    <stop offset=".34" stop-color="#181c4e"/>
    <stop offset=".47"/>
    <stop offset=".58999997" stop-color="#181c4e"/>
    <stop offset=".72000003"/>
    <stop offset=".83999997" stop-color="#181c4e"/>
    <stop offset=".98000002"/>
  </linearGradient>
  <path fill="url(#d)" d="M226.57718 40.268453h-21.47651v7.51678h25.77181l-12.34899 7.51678h-13.42282v7.51678H240l-12.34899 7.51678h-35.43624v-28.99329l12.8859-8.5906h33.8255"/>
  <linearGradient id="e" x1="174.7144" x2="241.1171" y1="288.21439" y2="354.6171" gradientUnits="userSpaceOnUse" gradientTransform="matrix(0.53691275,0,0,0.53691275,-13.154362,-124.2953)">
    <stop offset="0"/>
    <stop offset=".11" stop-color="#181c4e"/>
    <stop offset=".22" stop-color="#181818"/>
    <stop offset=".34" stop-color="#181c4e"/>
    <stop offset=".47"/>
    <stop offset=".58999997" stop-color="#181c4e"/>
    <stop offset=".72000003"/>
    <stop offset=".83999997" stop-color="#181c4e"/>
    <stop offset=".98000002"/>
  </linearGradient>
  <path fill="url(#e)" d="M112.75168 40.268453H91.275168v7.51678h25.771812l-12.34899 7.51678H91.275168v7.51678H126.1745l-12.349 7.51678H78.389262v-28.99329l12.885906-8.5906h33.825502"/>
  <linearGradient id="f" x1="76.250504" x2="141.7504" y1="293.75049" y2="359.2504" gradientUnits="userSpaceOnUse" gradientTransform="matrix(0.53691275,0,0,0.53691275,-13.154362,-124.2953)">
    <stop offset="0"/>
    <stop offset=".11" stop-color="#181c4e"/>
    <stop offset=".22" stop-color="#181818"/>
    <stop offset=".34" stop-color="#181c4e"/>
    <stop offset=".47"/>
    <stop offset=".58999997" stop-color="#181c4e"/>
    <stop offset=".72000003"/>
    <stop offset=".83999997" stop-color="#181c4e"/>
    <stop offset=".98000002"/>
  </linearGradient>
  <path fill="url(#f)" d="M19.865772 41.342283l12.885906-8.5906h39.194631l-12.348994 7.51677H32.751678v22.55034h24.161074v-9.12752H41.879195l12.348993-7.51678h15.57047v15.57047l-12.885906 8.59061h-37.04698"/>
  <linearGradient id="g" x1="485.45901" x2="552.35858" y1="287.4595" y2="354.3591" gradientUnits="userSpaceOnUse" gradientTransform="matrix(0.53691275,0,0,0.53691275,-13.154362,-124.2953)">
    <stop offset="0"/>
    <stop offset=".11" stop-color="#181c4e"/>
    <stop offset=".22" stop-color="#181818"/>
    <stop offset=".34" stop-color="#181c4e"/>
    <stop offset=".47"/>
    <stop offset=".58999997" stop-color="#181c4e"/>
    <stop offset=".72000003"/>
    <stop offset=".83999997" stop-color="#181c4e"/>
    <stop offset=".98000002"/>
  </linearGradient>
  <path fill="url(#g)" d="M280.26846 62.818793v-7.51678h-36.51007v-14.49664l12.34899-7.51678h38.65772l-12.34899 7.51678h-25.2349v6.97986h37.04698v15.03356l-12.349 7.51678h-38.1208l12.34899-7.51678"/>
  <linearGradient id="h" x1="638.46002" x2="705.35962" y1="287.4595" y2="354.3591" gradientUnits="userSpaceOnUse" gradientTransform="matrix(0.53691275,0,0,0.53691275,-13.154362,-124.2953)">
    <stop offset="0"/>
    <stop offset=".11" stop-color="#181c4e"/>
    <stop offset=".22" stop-color="#181818"/>
    <stop offset=".34" stop-color="#181c4e"/>
    <stop offset=".47"/>
    <stop offset=".58999997" stop-color="#181c4e"/>
    <stop offset=".72000003"/>
    <stop offset=".83999997" stop-color="#181c4e"/>
    <stop offset=".98000002"/>
  </linearGradient>
  <path fill="url(#h)" d="M362.41611 62.818793v-7.51678h-36.51007v-14.49664l12.34899-7.51678h38.65772l-12.34899 7.51678h-25.2349v6.97986h37.04698v15.03356l-12.34899 7.51678h-38.12081l12.34899-7.51678"/>
</svg>
