<svg xmlns="http://www.w3.org/2000/svg" baseProfile="tiny" viewBox="0 0 165.1 114.3">
  <path fill="#414042" d="M0 79.3v20.6c0 4.1 3.4 7.5 7.5 7.5h150.1c4.1 0 7.5-3.4 7.5-7.5V7.5c0-4.1-3.4-7.5-7.5-7.5H7.5C3.4 0 0 3.4 0 7.5v63.1h5.5c.9 0 1.7.7 1.7 1.5v5.7c0 .8-.7 1.5-1.7 1.5H0z"/>
  <path d="M0 18h7.1v2.2H0zm0 3.3h7.1v2.2H0zm0 3.3h7.1v2.2H0zm0 3.3h7.1v2.2H0zm0 3.3h7.1v2.2H0zm0 3.3h7.1v2.2H0zm0 3.3h7.1V40H0zm0 3.3h7.1v2.2H0zm0 3.3h7.1v2.2H0zm0 3.2h7.1v2.2H0zm0 3.3h7.1v2.2H0zm0 3.3h7.1v2.2H0zm0 3.3h7.1v2.2H0zm0 3.3h7.1V63H0zm0 3.3h7.1v2.2H0zm0 3.3h7.1v2.2H0zm0 13.2h7.1v2.2H0zm0 3.3h7.1v2.2H0zm0 3.2h7.1v2.2H0zm0 3.3h7.1v2.2H0zm0 3.3h7.1v2.2H0zm158-75.2h7.1v2.2H158zm0 3.3h7.1V24H158zm0 3.3h7.1v2.2H158zm0 3.3h7.1v2.2H158zm0 3.3h7.1v2.2H158zm0 3.3h7.1v2.2H158zm0 3.3h7.1v2.2H158zm0 3.2h7.1v2.2H158zm0 3.3h7.1V47H158zm0 3.3h7.1v2.2H158zm0 3.3h7.1v2.2H158zm0 3.3h7.1v2.2H158zm0 3.3h7.1v2.2H158zm0 3.3h7.1v2.2H158zm0 3.3h7.1v2.2H158zm0 3.3h7.1v2.2H158zm0 3.3h7.1v2.2H158zm0 3.3h7.1v2.2H158zm0 6.5h7.1v2.2H158zm0 3.3h7.1v2.2H158zm0 3.3h7.1v2.2H158zm0 3.3h7.1v2.2H158zm0 3.3h7.1v2.2H158zm0-16.4h7.1V80H158z"/>
  <path fill="#212121" d="M144.7 3.9v96.4c0 2.1-1.2 3.9-2.9 4.8-.3.1-.5.2-.8.3-.6.2-1.2.3-1.9.3H26c-.7 0-1.3-.1-1.9-.3-.3-.1-.5-.2-.8-.3-1.7-.9-2.9-2.7-2.9-4.8V3.9c0-1.3.5-2.5 1.2-3.4h121.8c.8.9 1.3 2.1 1.3 3.4z"/>
  <path d="M154.5 114.8H10.6V0h1v113.8h141.9V0h1"/>
  <path fill="#414042" d="M11.6 105.8h141.9v8.5H11.6z"/>
  <path fill="#010101" d="M27.8 12.2h34.4v16.3H27.8zm0 16.8h34.4v5.8H27.8z"/>
  <path fill="#FFF" d="M28.9 33.2l1.6-2.7c.1-.2.2-.2.2-.2h1.1v.4l.1-.1c.1-.2.2-.2.2-.2h1.4v2.9h-.9V31l-1.4 2.3h-.9l1.4-2.3h-.5c-.1 0-.1 0-.2.1l-1.3 2.2-.8-.1zm5.9-1.2v.5H37v.6h-3.1V31l.4-.8c0-.1.1-.1.2-.1H37v.6h-1.8c-.1 0-.1 0-.1.1l-.2.5H37l-.3.7h-1.9zm3.4.6h1.5V32h-.6l.3-.6h1.2V33c0 .1-.1.2-.2.2h-3.1c-.1 0-.2-.1-.2-.2v-2l.4-.8c0-.1.1-.1.2-.1h2.6v.6h-2c-.1 0-.1 0-.1.1l-.2.5v1.3h.2zm6.6.6h-1.1l-.4-.6h-1.1l-.3-.6v1.2H41v-2.9h1.8c.1 0 .2.1.2.2l1.8 2.7zM42.9 32l-.7-1c-.1-.1-.1-.1-.2-.1h-.2V32h1.1zm3.5.6h1.1c.1 0 .1 0 .1-.1l.3-.7v-.2l-.3-.7c0-.1-.1-.1-.1-.1h-1.1v1.8zm-.9-2.4h2.7c.1 0 .1.1.2.2l.6 1.3v.2l-.6 1.3c-.1.1-.1.2-.2.2h-2.7v-3.2zm3.8 0h2.5c.1 0 .1.1.2.2l.4.9v.2l-.6.7.6 1.1h-1l-.9-1.5h.6l.3-.4-.2-.4c0-.1-.1-.1-.1-.1h-1v2.4h-1l.2-3.1zm4.4 3h-1v-3h1v3zm1.3-2l1 1.4 1-1.4v-1h1v1.3l-1.1 1.7h-1.6l-1.1-1.7v-1.3h1l-.2 1zm4.1.9v.6h2.2v.6h-3.2v-2.2l.4-.8c0-.1.1-.1.2-.1h2.5v.6h-1.9c-.1 0-.1 0-.1.1l-.2.5h2.2l-.2.7h-1.9z"/>
  <path fill="#ED2224" d="M37.9 13.8l-8.5 12.7h8.5"/>
  <path fill="#ED2224" d="M45 13.8l-8.5 12.7H45"/>
  <path fill="#11AA4B" d="M46.9 14.1H51v12.5h-4.1zm5.9.1l-.8 4.2h-.2v-4.3c.3.1.7.1 1 .1m-.6 4.3l1.2-4.1c.3.1.7.2 1 .4l-1.9 3.8c-.1-.1-.2-.1-.3-.1m.8.3l2.9-3.2c-.2-.2-.5-.4-.8-.6l-2.3 3.6c0 .1.1.2.2.2m.3.4L57 17c-.2-.3-.4-.6-.7-.9L53.1 19c.1.1.2.1.2.2m.2.3l4.2-1c-.1-.4-.3-.7-.4-1.1l-3.8 1.9v.2m4.5.7h-4.3c0-.1-.1-.3-.1-.4l4.2-.6c.1.3.2.6.2 1m-4.3.3c-.1 1-.9 1.9-2 1.9v4.3c3.4 0 6.2-2.7 6.2-6.1l-4.2-.1"/>
  <path fill="#FFF" d="M59.2 25h-.5v1.3h-.4V25h-.4v-.3h1.3m.9 1.2l-.3-1.2h-.4v1.6h.3v-1.4l.3 1.4h.3l.3-1.4v1.4h.3v-1.6h-.5l-.3 1.3"/>
</svg>
