<svg xmlns="http://www.w3.org/2000/svg" baseProfile="tiny" viewBox="1602.5 148.5 1679.9 444.5">
  <path d="M2030 148.5h825V593h-825z"/>
  <path fill="#FFF" d="M2070.8 559.1l37-58.6c1.8-3.3 3.5-5 5.3-5h26.4v7.8l1.8-2.8c1.8-3.3 3.5-5 5.3-5h31.7v63.6h-21.1v-50.2l-31.7 50.2h-21.1l31.7-50.2h-10.6c-1.2 0-2.3.6-3.5 1.7l-30 48.5h-21.2zm135.6-25.1v11.7h49.3v13.4h-70.5v-41.8c0-1.1.3-2.2.9-3.3l9.7-16.7c.6-1.1 1.8-1.7 3.5-1.7h56.4V509h-42.3c-1.2 0-2.1.6-2.6 1.7l-4.4 10h49.3l-7 13.4h-42.3zm77.6 11.7h35.2V534h-14.1l7-13.4h28.2v35.1c0 2.2-1.2 3.3-3.5 3.3h-70.5c-2.3 0-3.5-1.1-3.5-3.3v-38.5c0-1.1.3-2.2.9-3.3l9.7-16.7c.6-1.1 1.8-1.7 3.5-1.7h59.9v13.4H2291c-1.2 0-2.1.6-2.6 1.7l-4.4 10v25.1zm151.5 13.4h-24.7l-9.7-13.4h-25.6l-7-12.1v25.5h-21.1v-63.6h40.5c1.8 0 3.5 1.7 5.3 5l42.3 58.6zm-44.1-26.8l-15.8-21.8c-1.2-1.1-2.3-1.7-3.5-1.7h-3.5v23.4h22.8zm82.1 12.8h25.6c1.2 0 2.1-.5 2.7-1.6l7.8-15.9.5-1.7-.5-1.7-7.8-15.7c-.6-1.2-1.5-1.7-2.7-1.7h-25.6v38.3zm-21.9-52.4h61.2c1.8 0 3.3 1.2 4.6 3.5l14.2 27.9.5 1.7-.5 1.7-14.2 27.9c-1.2 2.3-2.7 3.5-4.6 3.5h-61.2v-66.2zm87.7 0h58.5c1.8 0 3.3 1.2 4.6 3.5l9.6 19.2.5 1.7-.5 1.7-14.2 15.7 14.6 24.5h-21.9l-21-33.2h11c1.2 0 2.1-.3 2.7-.9l7.3-7.9-3.7-8.7c-.6-1.2-1.5-1.7-2.7-1.7h-22.8V559h-21.9v-66.3h-.1zm102.3 66.4h-21.9v-66.4h21.9v66.4zm29.2-44.5l21.9 30.6 21.9-30.6v-21.8h21.9v24.5c0 2.3-.3 4.1-.9 5.2l-24.7 36.7h-36.5l-24.7-36.7c-.6-1.2-.9-2.9-.9-5.2v-24.5h21.9v21.8h.1zm95 18.3v12.2h51.2v14h-73.1v-43.7c0-1.2.3-2.3.9-3.5l10-17.5c.6-1.2 1.8-1.7 3.7-1.7h58.5v14h-43.8c-1.2 0-2.1.6-2.7 1.7l-4.6 10.5h51.2l-7.3 14h-44z"/>
  <g fill="#F00">
    <path d="M2299.3 184.4l-186.5 277.3h186.5"/>
    <path d="M2455.3 184.6l-186.5 277.3h186.5"/>
  </g>
  <path fill="#0A0" d="M2496.7 190h90v274.1h-90zm128.9 3.8l-18.5 91.7c-1.6-.2-3.2-.3-4.8-.3v-93.4c8 0 15.8.7 23.3 2m-13 92.7l26.9-89.5c7.3 2.1 14.3 4.7 21 7.9l-40.8 84.1c-2.2-1.1-4.6-1.9-7.1-2.5m16.3 7.8l62.8-69.3c-5.4-4.6-11.1-8.9-17.1-12.6l-49.8 79c1.4.9 2.8 1.9 4.1 2.9m7.9 8l80.8-47.4c-4.5-7-9.5-13.5-15.2-19.5l-69.6 62.4c1.5 1.4 2.8 2.9 4 4.5m4.7 7.5l91.6-21.7c-2.5-8.1-5.8-15.9-9.7-23.3l-83.8 41.5c.7 1.1 1.3 2.3 1.9 3.5m97.7 13.4h-93.7c-.4-3.1-1.1-6.1-2.1-9v.1l93-13.7c1.5 7.3 2.5 14.9 2.8 22.6m-93.5 8.3c-1.4 22.7-20.3 40.6-43.3 40.6v93.4c74.6 0 135.3-59.7 136.8-134h-93.7"/>
  <path fill="#FFF" d="M2764.8 428.6h-10.6v28.9h-7.4v-28.9h-10.6v-6.2h28.6m21.3 27.7l-6.5-27.7h-10.7v35.1h6.8l.1-29.4 6.4 29.4h7.2l6.7-29.4v29.4h6.9v-35.1h-10.7l-6.2 28.2"/>
</svg>
