<svg xmlns="http://www.w3.org/2000/svg" viewBox="1602.5 148.5 399.99999 215.51515">
  <path d="M1602.5 148.5h400v215.51515h-400z"/>
  <path fill="#fff" d="M1622.2818 347.57879l17.9394-28.41212c.8727-1.6 1.697-2.42425 2.5697-2.42425h12.8v3.78182l.8727-1.35757c.8728-1.6 1.697-2.42425 2.5697-2.42425h15.3697v30.83637h-10.2303v-24.3394l-15.3697 24.3394h-10.2303l15.3697-24.3394h-5.1394c-.5818 0-1.1151.29091-1.6969.82424l-14.5455 23.51516h-10.2788zm65.7455-12.1697v5.67273h23.903v6.49697h-34.1818v-20.26667c0-.53333.1454-1.06667.4363-1.6l4.7031-8.09697c.2909-.53333.8727-.82424 1.6969-.82424h27.3455v6.49697h-20.5091c-.5818 0-1.0182.29091-1.2606.82424l-2.1333 4.84848h23.903l-3.3939 6.49697h-20.5091zm37.6242 5.67273h17.0667v-5.67273h-6.8364l3.394-6.49697h13.6727v17.01818c0 1.06667-.5818 1.6-1.697 1.6h-34.1818c-1.1152 0-1.697-.53333-1.697-1.6v-18.66667c0-.53333.1455-1.06666.4364-1.6l4.703-8.09696c.2909-.53334.8727-.82425 1.697-.82425h29.0424v6.49697h-22.206c-.5819 0-1.0182.29091-1.2607.82424l-2.1333 4.84849v12.1697zm73.4546 6.49697h-11.9758l-4.703-6.49697h-12.4121l-3.394-5.86667v12.36364h-10.2303v-30.83637h19.6364c.8727 0 1.6969.82425 2.5697 2.42425l20.5091 28.41212zm-21.3819-12.99394l-7.6606-10.5697c-.5818-.53333-1.1151-.82424-1.6969-.82424h-1.697v11.34545h11.0545zm39.8061 6.20606h12.4121c.5818 0 1.0182-.24243 1.3091-.77576l3.7818-7.70909.2425-.82424-.2425-.82425-3.7818-7.61212c-.2909-.58182-.7273-.82424-1.3091-.82424h-12.4121v18.5697zm-10.6182-25.40606h29.6727c.8728 0 1.6.58182 2.2304 1.69697l6.8848 13.52727.2424.82424-.2424.82424-6.8848 13.52728c-.5819 1.11515-1.3091 1.69697-2.2304 1.69697h-29.6727v-32.09697zm42.5212 0h28.3637c.8727 0 1.6.58182 2.2303 1.69697l4.6545 9.30909.2424.82424-.2424.82424-6.8848 7.61212 7.0788 11.87879h-10.6182l-10.1818-16.09697h5.3333c.5818 0 1.0182-.14545 1.3091-.43636l3.5394-3.8303-1.794-4.21819c-.2909-.58181-.7272-.82424-1.3091-.82424H1860.1v25.40606h-10.6182v-32.14545h-.048zm49.6 32.19394h-10.6181v-32.19394h10.6181v32.19394zm14.1576-21.57576l10.6182 14.83636 10.6182-14.83636v-10.5697h10.6182v11.87879c0 1.11515-.1455 1.98788-.4364 2.52121l-11.9758 17.79394h-17.6969l-11.9758-17.79394c-.2909-.58182-.4364-1.40606-.4364-2.52121v-11.87879h10.6182v10.5697h.048zm46.0606 8.87273v5.91515h24.8243v6.78788h-35.4425v-21.18788c0-.58182.1455-1.11515.4364-1.69697l4.8485-8.48485c.2909-.58182.8727-.82424 1.7939-.82424h28.3637v6.78788h-21.2364c-.5818 0-1.0182.2909-1.3091.82424l-2.2303 5.09091h24.8242l-3.5394 6.78788h-21.3333z"/>
  <g fill="red">
    <path d="M1733.06971006 165.9060597l-90.42424152 134.44848352h90.42424152"/>
    <path d="M1808.70607294 166.0030294l-90.42424152 134.4484835h90.42424152"/>
  </g>
  <path fill="#0a0" d="M1828.7788 168.62121h43.6364v132.89697h-43.6364zm62.497 1.84242l-8.9697 44.46061c-.7758-.097-1.5516-.14545-2.3273-.14545v-45.28485c3.8788 0 7.6606.33939 11.297.96969m-6.3031 44.94546l13.0425-43.39394c3.5393 1.01818 6.9333 2.27879 10.1818 3.8303l-19.7818 40.77576c-1.0667-.53333-2.2304-.92121-3.4425-1.21212m7.9031 3.78182l30.4484-33.6c-2.6181-2.23031-5.3818-4.31515-8.2909-6.10909l-24.1454 38.30303c.6788.43636 1.3576.92121 1.9879 1.40606m3.8303 3.87879l39.1757-22.98182c-2.1818-3.39394-4.606-6.54546-7.3697-9.45455l-33.7454 30.25455c.7272.67879 1.3575 1.40606 1.9394 2.18182m2.2787 3.63636l44.4122-10.52121c-1.2122-3.92728-2.8122-7.70909-4.7031-11.29697l-40.6303 20.12121c.3394.53333.6303 1.11515.9212 1.69697m47.3697 6.49697h-45.4303c-.1939-1.50303-.5333-2.95758-1.0181-4.36364v.0485l45.0909-6.64243c.7272 3.5394 1.2121 7.22425 1.3575 10.95758m-45.3333 4.02424c-.6788 11.00606-9.8424 19.68485-20.9939 19.68485v45.28485c36.1697 0 65.6-28.94546 66.3272-64.9697h-45.4303"/>
  <path fill="#fff" d="M1958.7667 284.30606h-5.1394v14.01212h-3.5879v-14.01212H1944.9V281.3h13.8667m10.3272 13.4303l-3.1515-13.4303h-5.1879v17.01818h3.297l.048-14.25455 3.103 14.25455h3.4909l3.2485-14.25455v14.25455h3.3455V281.3h-5.1879l-3.0061 13.67273"/>
</svg>
