<?xml version="1.0" encoding="utf-8"?>
<!-- Generator: Adobe Illustrator 16.0.3, SVG Export Plug-In . SVG Version: 6.00 Build 0)  -->
<!DOCTYPE svg PUBLIC "-//W3C//DTD SVG 1.1//EN" "http://www.w3.org/Graphics/SVG/1.1/DTD/svg11.dtd">
<svg version="1.1" id="Ebene_1" xmlns="http://www.w3.org/2000/svg" xmlns:xlink="http://www.w3.org/1999/xlink" x="0px" y="0px"
	 width="300px" height="80px" viewBox="0 0 300 80" enable-background="new 0 0 300 80" xml:space="preserve">
<g transform="translate(0.000000,80.000000) scale(0.100000,-0.100000)">
	<path fill="#4C4C4C" d="M1643,606.001c-79.004-93.003-142.998-173.003-142.998-177.002c0-5,25.996-8.999,57.998-8.999
		c55,0,60,2.002,102.002,45s80,58.999,80,32.998c0-6.997-16.006-27.998-35-47.998l-36.006-37.002l-1.992-190.996L1665.002,30H1728
		h62.002v195v195H1823c27.002,0,44.004,11.001,97.002,65l63.994,65H1888h-97.002L1788,662.002l-2.998,111.997L1643,606.001z"/>
	<path fill="#4C4C4C" d="M52.004,562.002C80.999,521.001,503.996,30,510.998,30c2.998,0,71.006,75,150,167.998
		C738.996,290,843,411.001,892.004,467.002c47.998,55.996,87.998,103.999,87.998,106.997C980.002,577.002,938,580,888,580
		l-92.998,1.001L633,412.998C480.998,254.004,470.002,245.996,453.996,262.002c-15.996,15.996-12.998,22.002,64.004,105
		C562.004,415,623.996,480,653.996,510c31.006,30,56.006,57.998,56.006,62.002c0,3.999-151.006,7.998-336.006,7.998
		C50.999,580,38.997,578.999,52.004,562.002z"/>
	<path fill="#4C4C4C" d="M912.004,402.998C845.998,370.996,800.002,294.004,800.002,215c0-15.996,10.996-52.998,23.994-80.996
		c56.006-121.006,207.002-151.006,305-61.006c53.008,49.004,76.006,151.006,50,226.006l-11.992,32.998l-53.008-52.998
		c-30-29.004-53.994-59.004-53.994-66.006c0-22.002-39.004-52.998-65-52.998c-14.004,0-25,2.998-25,7.998
		c0,4.004,37.998,45,85,92.002c47.002,47.002,85,90,85,97.002s-20,23.994-42.998,37.998
		C1045.002,425,963.996,428.999,912.004,402.998z M1013.996,282.002c3.008-5-11.992-26.006-32.998-46.006
		c-40.996-40-57.998-35.996-40.996,8.008C952.004,275.996,1002.004,300.996,1013.996,282.002z"/>
	<path fill="#4C4C4C" d="M1335.002,402.998c-85-43.994-124.004-130-102.998-225.996C1257.004,60,1393-15,1490.002,35
		C1598.996,89.004,1640.998,195,1598,302.998l-10.996,27.998l-53.008-51.992c-30-30-53.994-61.006-53.994-70
		c0-21.006-32.002-49.004-56.006-49.004c-47.998,0-81.992,57.998-55.996,95.996c15.996,24.004,50.996,35,72.998,23.008
		c19.004-10,27.002-5,70,36.992c26.006,26.006,46.006,51.006,42.998,56.006c-2.998,3.994-22.998,17.002-43.994,27.998
		C1462.004,423.999,1378,426.001,1335.002,402.998z"/>
	<path fill="#4C4C4C" d="M1880.002,225V30h60h60v125v125H2048c45.996,0,47.998,2.002,104.004,67.998L2208,415l-65,2.998
		l-65.996,3.003L2013,350c-67.002-72.998-80-80-90-54.004c-4.004,10,12.002,34.004,47.998,70L2023.996,420h-71.992h-72.002V225z"/>
	<path fill="#4C4C4C" d="M2238,390.996C2132.004,324.004,2118.997,160,2212.004,72.998C2318.996-27.998,2490.998,25,2530.002,170
		c12.998,47.998,5.996,117.002-12.998,144.004c-11.006,15.996-18.008,10.996-65-43.008c-29.004-31.992-52.002-63.994-52.002-68.994
		c0-16.006-36.006-42.002-57.998-42.002c-12.002,0-22.002,2.998-22.002,5.996c0,3.008,37.998,47.002,85,97.002
		c82.002,87.998,83.994,91.006,67.002,110C2423.996,427.998,2310.002,437.002,2238,390.996z M2360.002,282.998
		c-1.006-8.994-67.998-82.998-75-82.998c-15,0-2.001,44.004,20,65C2328,289.004,2360.002,299.004,2360.002,282.998z"/>
	<path fill="#4C4C4C" d="M2522.004,369.004c22.998-28.008,60-73.008,81.992-100l38.008-48.008L2568,132.998
		C2527.004,85,2490.998,40.996,2488,35c-4.004-5.996,19.004-9.004,62.998-7.002l67.998,4.004l60,63.994
		c57.002,61.006,91.006,80,91.006,51.006c0-7.002-22.002-37.002-50-67.002c-27.002-30-50-54.004-50-55c0,0,65,0,145,0
		s145,2.002,145,5s-34.004,45.996-75,95c-41.006,50-75,92.998-75,97.998c0,4.004,35,49.004,77.002,100L2963.996,415l-65,2.998
		l-63.994,3.003l-67.998-70.005c-37.002-38.994-72.002-70.996-77.002-70.996c-22.998,0-20,25,7.002,52.998
		c15,17.998,38.994,44.004,51.992,60L2773,420h-147.002H2478L2522.004,369.004z"/>
</g>
</svg>
