<svg xmlns="http://www.w3.org/2000/svg" width="400" height="236.67097">
  <defs>
    <clipPath id="a">
      <path d="M0 321.814h543.902V0H0v321.814z"/>
    </clipPath>
  </defs>
  <g clip-path="url(#a)" transform="matrix(0.73542782,0,0,-0.73542782,0,236.67097)">
    <path fill="#4d4d4f" d="M333.7106 25.5989c-4.849-5.064-23.675-21.674-27.46-25.004-.43-.392-.671-.595-.671-.595H24.9156s-20.193 19.282-22.257 20.193c-1.393 1.899-2.659 5.039-2.659 12.838v271.042c0 18.484 14.901 17.737 14.901 17.737h15.56v-1.81h269.688v1.81h10.9c.507 0 1.013-.013 1.494-.025 20.978-.836 23.346-19.092 23.346-19.092V33.5619s.341-5.342-2.178-7.963"/>
    <path fill="#58595b" d="M306.2506.595c-.063-.266-.139-.468-.203-.595H24.9156s-7.698 129.628 39.234 135.996c8.672 1.025 19.496-1.266 44.045-7.128 24.548-5.861 90.026-5.861 114.575 0 24.548 5.862 35.321 7.128 44.044 7.128 16.269 0 26.308-15.863 32.373-36.765 10.925-37.639 8.912-91.61 7.064-98.636"/>
    <path fill="#30302f" d="M300.1471 319.9949v-11.222s-.094-1.424-1.986-1.424h-265.72c-1.899 0-1.986 1.424-1.986 1.424v11.222l134.846-.066 134.846.066z"/>
    <path fill="#3d3d3d" d="M165.4818 123.9486c-33.215 0-39.834 1.634-45.49 2.388-5.656.755-3.972-4.399-3.972-4.399s2.889-19.107 3.25-26.398c.361-7.291 8.183-6.285 8.183-6.285h76.058s7.822-1.006 8.183 6.285c.361 7.291 3.25 26.398 3.25 26.398s1.684 5.154-3.972 4.399c-5.656-.754-12.275-2.388-45.49-2.388"/>
    <path fill="none" stroke="#404041" stroke-width="3.7980001" stroke-miterlimit="10" d="M165.4818 123.9486c-33.215 0-39.834 1.634-45.49 2.388-5.656.755-3.972-4.399-3.972-4.399s2.889-19.107 3.25-26.398c.361-7.291 8.183-6.285 8.183-6.285h76.058s7.822-1.006 8.183 6.285c.361 7.291 3.25 26.398 3.25 26.398s1.684 5.154-3.972 4.399c-5.656-.754-12.275-2.388-45.49-2.388z"/>
    <path fill="#30302f" d="M308.0898 222.3111c0-45.299-63.929-82.021-142.789-82.021-78.859 0-142.788 36.722-142.788 82.021s63.929 82.021 142.788 82.021c78.86 0 142.789-36.722 142.789-82.021"/>
    <path fill="#404041" d="M306.5254 222.4997c0-44.431-63.255-80.45-141.284-80.45s-141.285 36.019-141.285 80.45c0 44.431 63.256 80.45 141.285 80.45s141.284-36.019 141.284-80.45"/>
    <path fill="#4d4c4c" d="M281.7344 224.3852c0-36.031-51.967-65.24-116.072-65.24s-116.072 29.209-116.072 65.24c0 36.031 51.967 65.24 116.072 65.24s116.072-29.209 116.072-65.24"/>
    <path fill="#343433" d="M165.6623 197.6105l-7.191-7.511h14.592l-7.401 7.511z"/>
    <path fill="#5c5c5c" d="M165.7676 250.7829c-38.555 0-80.104-4.902-80.104-4.902s-9.778-.283-14.562-5.28c-4.784-4.997-5.235-10.685-5.235-16.216 0-5.531 1.251-10.557 2.347-13.198 1.564-3.772 5.551-6.034 7.672-6.034h179.764c2.121 0 6.108 2.262 7.672 6.034 1.096 2.641 2.347 7.667 2.347 13.198 0 5.531-.451 11.219-5.235 16.216-4.784 4.997-14.562 5.28-14.562 5.28s-41.549 4.902-80.104 4.902"/>
    <path fill="none" stroke="#4d4d4f" stroke-width="2.53200006" stroke-miterlimit="10" d="M165.7676 250.7829c-38.555 0-80.104-4.902-80.104-4.902s-9.778-.283-14.562-5.28c-4.784-4.997-5.235-10.685-5.235-16.216 0-5.531 1.251-10.557 2.347-13.198 1.564-3.772 5.551-6.034 7.672-6.034h179.764c2.121 0 6.108 2.262 7.672 6.034 1.096 2.641 2.347 7.667 2.347 13.198 0 5.531-.451 11.219-5.235 16.216-4.784 4.997-14.562 5.28-14.562 5.28s-41.549 4.902-80.104 4.902z"/>
    <path fill="#353535" d="M87.6792 240.6009h157.771v-8.862h9.387s.813-.503.813-3.614c0-3.111-.813-3.74-.813-3.74H79.0142s-1.143.88-1.143 3.897 1.143 4.211 1.143 4.211h8.484l.181 8.108z"/>
    <path fill="#f1f1f2" d="M64.3926 27.8792v1.802c1.808.445 2.987 1.039 3.539 1.783h1.777v-7.286l-.016-1.603h-2.369l-.02 1.603v5.009c-1.246-.632-2.217-1.069-2.911-1.308m10.971-3.97c.444 0 .814.125 1.111.374.296.25.444.603.444 1.059 0 .406-.16.727-.479.964-.319.236-.675.354-1.068.354-.414 0-.78-.127-1.099-.383-.32-.256-.479-.591-.479-1.005 0-.388.148-.713.444-.973.296-.26.672-.39 1.126-.39m3.814 5.214l-2.106-.474c-.199.898-.72 1.347-1.562 1.347-1.226 0-1.839-.977-1.839-2.93.496.67 1.277 1.005 2.344 1.005.975 0 1.772-.266 2.39-.798.618-.532.927-1.162.927-1.889 0-.774-.341-1.458-1.023-2.052-.682-.595-1.592-.892-2.731-.892-1.123 0-2.01.242-2.661.725-.651.483-1.093 1.058-1.325 1.725-.233.667-.349 1.315-.349 1.944 0 1.342.361 2.45 1.084 3.322.723.872 1.794 1.308 3.213 1.308 1.027 0 1.851-.225 2.474-.676.623-.451 1.011-1.006 1.164-1.665m.8354-1.8462h3.661v-1.541h-3.661v1.541zm7.3454-.9691v-2.11h1.88c.642 0 1.096.094 1.361.282.265.188.397.451.397.789 0 .282-.127.526-.382.731-.255.205-.678.308-1.269.308h-1.987zm0 3.476v-1.917h1.854c.679 0 1.106.112 1.283.336.176.225.264.44.264.645 0 .222-.073.413-.218.574-.146.16-.306.261-.479.301-.174.041-.516.061-1.027.061h-1.677zm-2.443 1.546h4.871c.873 0 1.529-.09 1.969-.27.439-.179.801-.435 1.087-.768.286-.334.429-.74.429-1.218 0-.97-.628-1.617-1.884-1.942.725-.137 1.269-.409 1.631-.815.363-.407.544-.849.544-1.329 0-.654-.296-1.22-.888-1.697-.593-.477-1.555-.716-2.888-.716h-4.871v8.755zM96.596 22.575h-2.443v8.755h2.443v-8.755zm8.2746 8.7548v-1.732h-2.589v-7.023h-2.482v7.023h-2.604v1.732h7.675z"/>
    <path fill="#eff8fb" d="M188.2226 99.5295h-7.109v1.663h4.873c-.355 1.071-.648 1.943-.931 2.819-.707 2.182-1.367 4.382-2.144 6.536-.188.522-.695 1.168-1.158 1.275-.781.182-1.035-.628-1.251-1.299-1.081-3.343-2.193-6.676-3.239-10.031-.246-.788-.604-1.054-1.397-1.032-2.181.059-4.365.005-6.547.025-2.211.02-3.657 1.466-3.705 3.754-.043 2.062-.047 4.125.001 6.186.053 2.325 1.453 3.739 3.686 3.771 1.967.028 3.935.006 5.972.006v-1.751c-1.691 0-3.372 0-5.053.001-2.371 0-2.915-.573-2.916-3.073 0-1.556-.007-3.111.002-4.667.01-1.664.768-2.476 2.334-2.492 1.272-.014 2.543-.003 3.88-.003v5.427h-3.236v1.688h5.043v-7.149c.091-.011.183-.022.275-.032 1.067 3.287 2.135 6.573 3.199 9.861.608 1.879 1.728 2.643 3.534 2.366 1.006-.154 1.75-.741 2.079-1.735 1.306-3.948 2.573-7.909 3.85-11.867.019-.059-.022-.139-.042-.247m-44.5504-.0363v1.731c1.897 0 3.756-.021 5.616.006 1.556.023 2.719 1.152 2.775 2.63.054 1.445-1.097 2.681-2.626 2.788-.622.044-1.251-.016-1.869.051-.951.103-1.645.999-1.644 2.035.001 1.051.687 1.99 1.647 2.018 2.034.059 4.07.018 6.159.018v-1.712h-5.979l-.006-.576c.57-.025 1.14-.061 1.711-.074 2.149-.049 3.702-1.302 4.238-3.429.654-2.598-1.21-5.362-3.778-5.469-2.036-.085-4.079-.017-6.244-.017"/>
    <path fill="#eff8fb" d="M143.6552 101.9028v1.788h6c.001.167.001.335.002.502-.612.025-1.224.062-1.836.072-1.717.03-2.995.852-3.748 2.434-.767 1.611-.649 3.225.361 4.705.694 1.016 1.651 1.704 2.857 1.743 2.108.068 4.219.019 6.411.019v-1.715c-1.893 0-3.788.032-5.682-.009-1.88-.04-3.101-1.795-2.533-3.564.342-1.064 1.317-1.778 2.567-1.851.587-.035 1.18.009 1.765-.051.947-.097 1.666-.99 1.677-2.012.01-1.022-.706-2.017-1.632-2.043-2.035-.058-4.072-.018-6.209-.018m21.0827 11.2408v-1.691c-1.875 0-3.733.001-5.59-.001-1.952-.002-2.633-.692-2.646-2.713-.01-1.627-.004-3.254.008-4.881.014-1.878.735-2.634 2.506-2.639 1.862-.005 3.724-.001 5.656-.001v-1.737c-1.389 0-2.758-.003-4.126.001-.865.003-1.733-.028-2.595.032-1.587.113-3.031 1.597-3.072 3.258-.059 2.384-.055 4.772-.001 7.156.034 1.527 1.324 3.099 2.784 3.181 2.336.131 4.683.035 7.076.035m16.2725-9.2713h1.429c-.223.689-.411 1.274-.6 1.858l-.246-.015c-.179-.566-.358-1.131-.583-1.843m-3.481-4.304c1.206 3.726 2.378 7.371 3.579 11.006.086.257.351.531.592.618.132.048.503-.237.572-.443.979-2.913 1.926-5.839 2.907-8.844h-4.073c-.045.432-.085.817-.125 1.201-.059.021-.117.042-.175.063-.232-.674-.47-1.346-.695-2.023-.597-1.796-.595-1.797-2.582-1.578m-6.0534 4.479c-.521.152-.831.243-1.201.351v1.538h2.641v-4.027c-1.35 0-2.693-.077-4.018.052-.344.033-.886.697-.902 1.091-.09 2.167-.064 4.34-.038 6.511.009.761.454 1.207 1.189 1.214 2.006.019 4.012.007 6.108.007v-1.721c-1.509 0-2.99-.043-4.467.015-.906.036-1.256-.295-1.199-1.251.061-1.009.004-2.025.017-3.038.014-1.209.573-1.5 1.87-.742"/>
    <path fill="#eff8fb" d="M158.9502 103.7555c1.864-.348 3.795.016 5.727-.202v-1.642c-2.21 0-4.377-.053-6.537.055-.345.017-.861.721-.94 1.175-.15.871-.043 1.791-.043 2.782h6.149v-1.623h-4.299c-.019-.181-.038-.363-.057-.545m5.7882 7.0121v-1.631c-1.918-.273-3.884.175-5.768-.242.006-.15.012-.299.019-.449h4.32v-1.703h-6.134c0 .999-.085 2.042.046 3.055.047.362.611.913.956.927 2.168.085 4.34.043 6.561.043"/>
    <path fill="#353535" d="M167.0588 222.8768h-86.781s1.453-1.808 2.201-2.595c6.975-7.345 14.888-8.153 14.888-8.153h7.566v-.942h123.896v.942h7.566s7.913.808 14.888 8.153c.748.787 2.201 2.595 2.201 2.595h-86.425z"/>
    <path fill="#3f4040" d="M266.5711 61.6628c0-12.415-14.261-14.519-14.261-14.519H78.6531c-2.527 0-14.26 2.104-14.26 14.519s14.26 14.519 14.26 14.519h173.657s14.261-2.104 14.261-14.519"/>
    <path fill="#333" d="M252.23 50.4938H79.095c-6.101 0-11.092 4.991-11.092 11.092 0 6.1 4.991 11.092 11.092 11.092H252.23c6.1 0 11.092-4.992 11.092-11.092 0-6.101-4.992-11.092-11.092-11.092"/>
    <path fill="#5d5e5f" d="M161.2607 55.2519h-2.028c-.437 0-.791.354-.791.791v10.412c0 .437.354.792.791.792h2.028c.437 0 .791-.355.791-.792v-10.412c0-.437-.354-.791-.791-.791m5.235 0h-2.028c-.437 0-.791.354-.791.791v10.412c0 .437.354.792.791.792h2.028c.437 0 .791-.355.791-.792v-10.412c0-.437-.354-.791-.791-.791m5.1748 0h-2.028c-.437 0-.791.354-.791.791v10.412c0 .437.354.792.791.792h2.028c.437 0 .791-.355.791-.792v-10.412c0-.437-.354-.791-.791-.791"/>
    <path fill="#d4202b" d="M250.9879 53.932h-29.487c-4.252 0-7.731 3.479-7.731 7.731s3.479 7.73 7.731 7.73h29.487c4.252 0 7.731-3.478 7.731-7.73 0-4.252-3.479-7.731-7.731-7.731"/>
    <path fill="#b7202f" d="M245.6931 59.023h-17.325c-1.226 0-2.229 1.003-2.229 2.229v.822c0 1.226 1.003 2.229 2.229 2.229h17.325c1.226 0 2.229-1.003 2.229-2.229v-.822c0-1.226-1.003-2.229-2.229-2.229"/>
    <path fill="#d4202b" d="M110.1248 53.932h-29.487c-4.252 0-7.731 3.479-7.731 7.731s3.479 7.73 7.731 7.73h29.487c4.252 0 7.731-3.478 7.731-7.73 0-4.252-3.479-7.731-7.731-7.731"/>
    <path fill="#b7202f" d="M104.0437 59.023h-17.325c-1.226 0-2.229 1.003-2.229 2.229v.822c0 1.226 1.003 2.229 2.229 2.229h17.325c1.226 0 2.229-1.003 2.229-2.229v-.822c0-1.226-1.003-2.229-2.229-2.229"/>
    <path fill="#fff" d="M207.0578 26.4115v1.087c.024.021.046.056.068.056 1.318 0 2.637.04 3.952-.02.719-.034 1.277-.884 1.231-1.681-.046-.821-.683-1.491-1.479-1.504-1.171-.02-2.343-.008-3.514-.008-.875-.001-1.75-.008-2.624.003-.941.011-1.491.595-1.494 1.564-.002.709 0 1.417 0 2.197h2.166c0-.598-.002-1.164 0-1.728.003-.71.067-.778.73-.779 1.098-.001 2.195-.001 3.292 0 .089 0 .178-.003.267.004.255.019.469.149.401.426-.038.152-.259.354-.406.363-.665.04-1.334.019-2.001.02h-.589zm56.2539.0186c-.096-.625.053-.826.58-.829 1.409-.007 2.818-.003 4.227-.004h.622v-1.224c-.135-.009-.29-.03-.446-.031-1.869-.001-3.738-.005-5.606.001-1.115.004-1.613.547-1.608 1.721.003.661 0 1.321 0 1.989.085.021.141.047.196.047.622.003 1.246.002 1.931.002.093-.549.514-.508.921-.507 1.231.002 2.462.002 3.693-.001.189 0 .378-.021.581-.033v-1.131h-5.091zm-61.6101 1.1656v-1.169h-5.1c-.077-.625.074-.824.599-.826 1.425-.007 2.849-.002 4.274-.003h.57v-1.226c-.155-.01-.312-.029-.469-.029-1.856-.002-3.711-.005-5.566 0-1.124.004-1.632.542-1.627 1.703.002.663 0 1.326 0 2.024h2.132c.113-.431.444-.481.827-.478 1.246.011 2.493.004 3.74.004h.62zm49.9742.4754h2.439c.394-.624.814-1.289 1.279-2.024.45.715.861 1.368 1.279 2.034h2.441c-.816-1.276-1.592-2.489-2.377-3.715h-2.685c-.777 1.213-1.556 2.426-2.376 3.705m-58.5526.4158h-11.68v1.252c.14.014.254.037.369.037 3.367.002 6.734.005 10.101-.001.774-.001 1.244-.502 1.21-1.288m26.7229-1.521v1.109h2.154v-3.694h-2.12c-.015.342-.03.675-.046 1.073h-3.851v1.512h3.863zm26.8636-2.6206c-.768 0-1.536-.032-2.3.021-.205.015-.437.252-.58.449-.397.544-.886.735-1.537.677-.676-.059-1.359-.013-2.081-.013v1.502h2.186c.385 0 .771-.001 1.157.001.503.005.596.103.611.617.004.151.016.301.024.477h2.122c.165-.927-.052-1.666-.97-2.225.534-.459 1.021-.876 1.508-1.294-.047-.071-.094-.141-.14-.212m-17.1292.0112v1.21c.194.011.366.029.538.03 1.069.003 2.137-.002 3.205.003.496.003.608.117.612.624.006.602.002 1.204.002 1.844h2.184c0-.311.001-.627-.001-.943-.004-.434-.012-.868-.018-1.302-.011-.785-.489-1.433-1.224-1.452-1.746-.045-3.495-.014-5.298-.014m-26.3381 4.1415c-.078.731.395 1.263 1.145 1.276.861.014 1.722.004 2.582.004h5.32v-1.28h-9.047zm32.8263-.0083h-8.969c-.01.169-.025.304-.028.44-.004.26-.001.519-.001.798.146.022.245.048.344.048 2.492.002 4.983.007 7.475-.001.751-.002 1.216-.505 1.179-1.285m10.2287-.0047h-8.723c-.058.704.382 1.276 1.05 1.282 2.207.021 4.413.021 6.62 0 .68-.007 1.124-.579 1.053-1.282m-32.8887.0112c.013.769.426 1.268 1.103 1.274 2.134.016 4.267.016 6.4-.001.671-.006 1.117-.559 1.075-1.273h-8.578zM261.09 29.753h7.661v-1.261h-7.661v1.261zm-66.695-.009h7.656v-1.252h-7.656v1.252zm-3.427-1.677h2.165v-3.69h-2.165v3.69zm46.573.012h2.146v-3.7h-2.146v3.7zm-56.098.003h2.113v-3.708h-2.113v3.708zm31.942-.011h2.145v-3.695h-2.145v3.695zm36.387-3.7h-2.116v3.7h2.116v-3.7zm-61.445-.003h-2.102v3.699h2.102v-3.699zm38.77 3.706h2.132v-3.695h-2.132v3.695zm25.8898 1.7711c.267-.418.542-.847.866-1.353h-2.448c-.254.401-.534.844-.856 1.353h2.438zm4.812.0037h2.444c-.315-.497-.587-.926-.861-1.359h-2.436c.315.502.585.932.853 1.359m-8.0148-1.3598h-2.123v1.258h2.123v-1.258zm25.462-2.49h-1.401v3.619h1.401v-3.619zm2.064 0v3.741h1.555v1.424h-8.718v-1.668h1.56v-3.575h-1.56v-1.585h9.068v1.663h-1.905z"/>
    <path fill="#343433" d="M141.3192 185.82l-1.252-.093c-.017.852-.298 1.277-.843 1.277-.624 0-.936-.655-.936-1.966 0-.757.085-1.271.255-1.54.17-.27.407-.405.711-.405.495 0 .797.38.907 1.14l1.158-.083c-.075-.722-.302-1.271-.682-1.647-.38-.375-.845-.563-1.396-.563-.675 0-1.224.275-1.646.826-.422.551-.633 1.313-.633 2.285 0 .91.204 1.656.613 2.236.408.581.966.871 1.674.871 1.225 0 1.916-.779 2.07-2.338m1.3713-1.4319h1.081l-.536 2.117-.545-2.117zm1.364 3.677l1.597-6.032h-1.284l-.315 1.241h-1.649l-.32-1.241h-1.047l1.635 6.032h1.383zm3.0787-1.074v-1.538h.732c.24 0 .413.02.522.06.108.04.205.128.289.265.085.137.127.294.127.471 0 .167-.042.318-.127.45-.084.133-.177.215-.276.246-.1.031-.287.046-.561.046h-.706zm0-2.568v-2.39h-1.203v6.032h2.242c.413 0 .745-.057.996-.17.25-.114.458-.322.622-.625.164-.303.247-.641.247-1.011 0-.725-.296-1.245-.886-1.559l.942-2.667h-1.321l-.783 2.39h-.856zm6.8334 3.6419v-1.193h-1.263v-4.839h-1.211v4.839h-1.27v1.193h3.744zm1.6024-1.0739v-1.538h.732c.24 0 .413.02.522.06.108.04.205.128.289.265.085.137.127.294.127.471 0 .167-.042.318-.127.45-.084.133-.177.215-.276.246-.1.031-.287.046-.561.046h-.706zm0-2.568v-2.39h-1.203v6.032h2.242c.413 0 .745-.057.996-.17.25-.114.458-.322.622-.625.164-.303.247-.641.247-1.011 0-.725-.296-1.245-.886-1.559l.942-2.667h-1.321l-.783 2.39h-.856zm4.432-2.3901h-1.192v6.032h1.192v-6.032zm1.5429 4.9227v-3.787h.492c.435 0 .759.192.97.576.211.385.317.836.317 1.355 0 .365-.061.703-.181 1.014-.121.311-.27.529-.45.654-.179.125-.393.188-.644.188h-.504zm-1.173 1.109h1.557c.634 0 1.107-.104 1.418-.311.311-.208.59-.537.837-.986.246-.449.369-1.017.369-1.703 0-.864-.215-1.585-.646-2.164-.43-.579-1.024-.868-1.781-.868h-1.754v6.032zm8.6186-2.806s-.008-1.9-.694-2.594c-.686-.694-.849-.725-1.412-.725-.666 0-1.184.282-1.554.844-.37.563-.555 1.291-.555 2.183 0 .961.197 1.733.592 2.316.395.583.931.875 1.609.875.568 0 1.026-.189 1.375-.566.349-.377.562-.879.639-1.507l-1.136-.176c-.092.73-.385 1.096-.878 1.096-.324 0-.569-.173-.734-.52-.166-.346-.249-.84-.249-1.482 0-.619.09-1.092.269-1.419.179-.327.435-.49.766-.49.214 0 .406.082.574.247.168.165.252.429.252.791h-.96v1.127h2.096zm3.9083 1.6572h-2.429v-1.237h1.91v-1.136h-1.91v-1.317h2.429v-1.193h-3.643v6.032h3.643v-1.149zm4.7482-4.8829h-1.192v6.032h1.192v-6.032zm4.1802 6.032v-6.032h-1.02l-1.996 4.074c.003-.103.005-.171.008-.203.01-.103.015-.19.015-.261v-3.61h-.931v6.032h1.288l1.735-3.557c-.015.176-.022.31-.022.402v3.155h.923zm1.4076-2.6958h.777c.297 0 .505.081.624.243.12.162.18.348.18.557 0 .244-.067.439-.2.583-.134.145-.336.217-.607.217h-.774v-1.6zm.041-1.096v-2.241h-1.214v6.033h2.01c.448 0 .792-.057 1.03-.17.237-.114.45-.316.637-.608s.28-.65.28-1.074c0-.297-.05-.588-.149-.871-.1-.282-.241-.505-.423-.667-.182-.162-.358-.269-.529-.322-.17-.053-.437-.08-.801-.08h-.841zm7.0643 3.7918v-3.756c0-.607-.059-1.059-.176-1.355-.117-.296-.333-.539-.648-.729-.315-.19-.718-.285-1.209-.285-.491 0-.881.085-1.171.256-.291.171-.508.414-.652.729-.145.316-.217.777-.217 1.384v3.756h1.296v-3.756c0-.324.024-.563.07-.716.046-.153.138-.275.276-.365.138-.09.308-.135.51-.135.224 0 .407.045.548.133.14.088.234.205.28.351.046.146.069.39.069.732v3.756h1.024zm4.0236 0v-1.193h-1.263v-4.839h-1.211v4.839h-1.27v1.193h3.744z"/>
    <path fill="#444546" d="M34.072 321.812h-2.481v-12.836h2.481v12.836zm3.759 0H35.35v-12.836h2.481v12.836zm3.822 0h-2.481v-12.836h2.481v12.836zm3.759 0h-2.481v-12.836h2.481v12.836zm3.696 0h-2.481v-12.836h2.481v12.836zm3.759 0h-2.481v-12.836h2.481v12.836zm3.822 0h-2.481v-12.836h2.481v12.836zm3.759 0h-2.481v-12.836h2.481v12.836zm3.854 0h-2.481v-12.836h2.481v12.836zm3.759 0H65.58v-12.836h2.481v12.836zm3.822 0h-2.481v-12.836h2.481v12.836zm3.759 0h-2.481v-12.836h2.481v12.836zm3.695 0h-2.481v-12.836h2.481v12.836zm3.759 0h-2.481v-12.836h2.481v12.836zm3.822 0h-2.481v-12.836h2.481v12.836zm3.759 0h-2.481v-12.836h2.481v12.836zm3.822 0h-2.481v-12.836h2.481v12.836zm3.759 0h-2.481v-12.836h2.481v12.836zm3.822 0h-2.481v-12.836h2.481v12.836zm3.759 0h-2.481v-12.836h2.481v12.836zm3.696 0h-2.481v-12.836h2.481v12.836zm3.759 0h-2.481v-12.836h2.481v12.836zm3.822 0h-2.481v-12.836h2.481v12.836zm3.759 0h-2.481v-12.836h2.481v12.836zm3.822 0h-2.481v-12.836h2.481v12.836zm3.759 0h-2.481v-12.836h2.481v12.836zm3.822 0h-2.481v-12.836h2.481v12.836zm3.759 0h-2.481v-12.836h2.481v12.836zm3.696 0h-2.481v-12.836h2.481v12.836zm3.759 0h-2.481v-12.836h2.481v12.836zm3.822 0h-2.481v-12.836h2.481v12.836zm3.759 0h-2.481v-12.836h2.481v12.836zm4.022 0h-2.481v-12.836h2.481v12.836zm3.822 0h-2.481v-12.836h2.481v12.836zm3.759 0h-2.481v-12.836h2.481v12.836zm3.696 0h-2.481v-12.836h2.481v12.836zm3.759 0h-2.481v-12.836h2.481v12.836zm3.822 0h-2.481v-12.836h2.481v12.836zm3.759 0h-2.481v-12.836h2.481v12.836zm3.822 0h-2.481v-12.836h2.481v12.836zm3.759 0h-2.481v-12.836h2.481v12.836zm3.822 0h-2.481v-12.836h2.481v12.836zm3.759 0h-2.481v-12.836h2.481v12.836zm3.696 0h-2.481v-12.836h2.481v12.836zm3.759 0h-2.481v-12.836h2.481v12.836zm3.822 0h-2.481v-12.836h2.481v12.836zm3.759 0h-2.481v-12.836h2.481v12.836zm4.138 0h-2.481v-12.836h2.481v12.836zm3.822 0h-2.481v-12.836h2.481v12.836zm3.759 0h-2.481v-12.836h2.481v12.836zm3.695 0h-2.481v-12.836h2.481v12.836zm3.759 0h-2.481v-12.836h2.481v12.836zm3.822 0h-2.481v-12.836h2.481v12.836zm3.759 0h-2.481v-12.836h2.481v12.836zm3.823 0h-2.481v-12.836h2.481v12.836zm3.758 0h-2.481v-12.836h2.481v12.836zm3.823 0h-2.481v-12.836h2.481v12.836zm3.758 0h-2.481v-12.836h2.481v12.836zm3.696 0h-2.481v-12.836h2.481v12.836zm3.759 0H254.8v-12.836h2.481v12.836zm3.822 0h-2.481v-12.836h2.481v12.836zm3.759 0h-2.481v-12.836h2.481v12.836zm3.98 0h-2.481v-12.836h2.481v12.836zm3.822 0h-2.481v-12.836h2.481v12.836zm3.759 0h-2.481v-12.836h2.481v12.836zm3.696 0h-2.481v-12.836h2.481v12.836zm3.759 0h-2.481v-12.836h2.481v12.836zm3.822 0h-2.481v-12.836h2.481v12.836zm3.759 0h-2.481v-12.836h2.481v12.836zm3.822 0H292.8v-12.836h2.481v12.836zm3.759 0h-2.481v-12.836h2.481v12.836z"/>
    <path fill="#282827" d="M315.9607 195.9469c0-.486-.175-21.454-1.354-30.238-1.194-8.895 1.059-19.646-16.19-27.076-17.257-7.438-43.274-13.928-80.568-18.189-37.293-4.252-83.426-3.846-119.86 2.325-36.425 6.172-56.677 10.919-67.897 16.262-11.993 5.702-13.323 15.792-13.522 25.444-.104 4.961-.446 30.134-.55 37.373.088-6.53.478-11.587 1.123-13.522l.35-1.067c2.023-6.092 3.775-11.356 12.432-14.51 3.002-1.091 10.177-3.13 18.491-5.487 14.876-4.229 35.239-10.018 41.689-13.299 10.289-5.248 34.379-15.29 41.037-17.496l6.705-2.214c.478-.183 11.818-4.38 28.303-4.38 16.492 0 27.697 4.197 28.103 4.356l6.769 2.238c6.658 2.206 30.74 12.248 41.029 17.496 6.45 3.281 26.821 9.07 41.689 13.299 8.314 2.357 15.497 4.396 18.5 5.487 8.656 3.154 10.4 8.418 12.423 14.51l.358 1.067c.43 1.298.749 4.006.94 7.621"/>
    <path fill="#565151" d="M310.8083 220.3554h-3.584c-.748 0-1.361.613-1.361 1.362 0 .748.613 1.362 1.361 1.362h3.584c.749 0 1.362-.614 1.362-1.362 0-.749-.613-1.362-1.362-1.362m.366 3.305h-4.316c-1.003 0-1.824-.82-1.824-1.832v-.223c0-1.011.821-1.831 1.824-1.831h4.316c1.004 0 1.824.82 1.824 1.831v.223c0 1.012-.82 1.832-1.824 1.832"/>
    <path fill="#231f20" d="M312.17 221.7171c0-.749-.613-1.362-1.362-1.362h-3.583c-.749 0-1.362.613-1.362 1.362 0 .749.613 1.362 1.362 1.362h3.583c.749 0 1.362-.613 1.362-1.362"/>
    <path fill="#565151" d="M309.98 229.402h-3.584c-.748 0-1.361.613-1.361 1.362 0 .748.613 1.362 1.361 1.362h3.584c.749 0 1.362-.614 1.362-1.362 0-.749-.613-1.362-1.362-1.362m.358 3.297h-4.308c-1.003 0-1.824-.82-1.824-1.824v-.231c0-1.003.821-1.823 1.824-1.823h4.308c1.012 0 1.832.82 1.832 1.823v.231c0 1.004-.82 1.824-1.832 1.824"/>
    <path fill="#231f20" d="M311.3418 230.7638c0-.749-.613-1.362-1.362-1.362h-3.583c-.749 0-1.362.613-1.362 1.362 0 .749.613 1.362 1.362 1.362h3.583c.749 0 1.362-.613 1.362-1.362"/>
    <path fill="#565151" d="M309.3828 238.4248h-3.584c-.748 0-1.361.613-1.361 1.362 0 .748.613 1.362 1.361 1.362h3.584c.749 0 1.362-.614 1.362-1.362 0-.749-.613-1.362-1.362-1.362m.358 3.297h-4.308c-1.003 0-1.824-.82-1.824-1.824v-.231c0-1.003.821-1.823 1.824-1.823h4.308c1.012 0 1.832.82 1.832 1.823v.231c0 1.004-.82 1.824-1.832 1.824"/>
    <path fill="#231f20" d="M310.7445 239.7865c0-.749-.613-1.362-1.362-1.362h-3.583c-.749 0-1.362.613-1.362 1.362 0 .749.613 1.362 1.362 1.362h3.583c.749 0 1.362-.613 1.362-1.362"/>
    <path fill="#565151" d="M25.0186 220.3554h-3.584c-.748 0-1.353.613-1.353 1.362 0 .748.605 1.362 1.353 1.362h3.584c.749 0 1.362-.614 1.362-1.362 0-.749-.613-1.362-1.362-1.362m.366 3.305h-4.308c-1.003 0-1.832-.82-1.832-1.832v-.223c0-1.011.829-1.831 1.832-1.831h4.308c1.004 0 1.824.82 1.824 1.831v.223c0 1.012-.82 1.832-1.824 1.832"/>
    <path fill="#231f20" d="M26.3804 221.7171c0-.749-.613-1.362-1.362-1.362h-3.583c-.749 0-1.354.613-1.354 1.362 0 .749.605 1.362 1.354 1.362h3.583c.749 0 1.362-.613 1.362-1.362"/>
    <path fill="#565151" d="M25.8548 229.402h-3.584c-.748 0-1.361.613-1.361 1.362 0 .748.613 1.362 1.361 1.362h3.584c.749 0 1.354-.614 1.354-1.362 0-.749-.605-1.362-1.354-1.362m.358 3.297h-4.308c-1.003 0-1.824-.82-1.824-1.824v-.231c0-1.003.821-1.823 1.824-1.823h4.308c1.004 0 1.832.82 1.832 1.823v.231c0 1.004-.828 1.824-1.832 1.824"/>
    <path fill="#231f20" d="M27.2086 230.7638c0-.749-.605-1.362-1.354-1.362h-3.583c-.749 0-1.362.613-1.362 1.362 0 .749.613 1.362 1.362 1.362h3.583c.749 0 1.354-.613 1.354-1.362"/>
    <path fill="#565151" d="M26.4521 238.4248h-3.584c-.748 0-1.361.613-1.361 1.362 0 .748.613 1.362 1.361 1.362h3.584c.749 0 1.354-.614 1.354-1.362 0-.749-.605-1.362-1.354-1.362m.358 3.297h-4.308c-1.003 0-1.824-.82-1.824-1.824v-.231c0-1.003.821-1.823 1.824-1.823h4.308c1.004 0 1.832.82 1.832 1.823v.231c0 1.004-.828 1.824-1.832 1.824"/>
    <path fill="#231f20" d="M27.8058 239.7865c0-.749-.605-1.362-1.354-1.362h-3.583c-.749 0-1.362.613-1.362 1.362 0 .749.613 1.362 1.362 1.362h3.583c.749 0 1.354-.613 1.354-1.362"/>
    <path fill="#17171b" d="M315.9607 195.9549v-.008c-.191-3.615-.51-6.323-.94-7.621l-.358-1.067c-2.023-6.092-3.767-11.356-12.423-14.51-3.003-1.091-10.186-3.13-18.5-5.487-14.868-4.229-35.239-10.018-41.689-13.299-10.289-5.248-34.371-15.29-41.029-17.496l-6.769-2.238c-.406-.159-11.611-4.356-28.103-4.356-16.485 0-27.825 4.197-28.303 4.38l-6.705 2.214c-6.658 2.206-30.748 12.248-41.037 17.496-6.45 3.281-26.813 9.07-41.689 13.299-8.314 2.357-15.489 4.396-18.491 5.487-8.657 3.154-10.409 8.418-12.432 14.51l-.35 1.067c-.645 1.935-1.035 6.992-1.123 13.522 0 .255-.008.502-.008.757-.151 15.568 1.346 38.83 4.93 48.211 8.17 21.327 22.704 22.569 41.108 24.146 2.731.231 5.558.47 8.489.788 16.564 1.776 33.702 3.082 51.269 3.887l-.023-1.569c-21.956-.996-39.277-2.549-51.079-3.791-22.76-2.389-39.316-.478-48.275-23.357-4.97-12.678-5.973-53.587-3.783-59.958 2.19-6.371 3.408-11.253 11.81-14.239 8.394-2.986 50.203-13.379 60.356-18.436 10.154-5.057 34.045-14.812 40.814-17.002l6.769-2.19s11.364-4.181 27.753-4.181 27.61 4.181 27.61 4.181l6.769 2.19c6.769 2.19 30.659 11.945 40.813 17.002 10.154 5.057 51.963 15.45 60.364 18.436 8.394 2.986 9.62 7.868 11.802 14.239 2.198 6.371 1.187 47.28-3.775 59.958-8.967 22.879-25.523 20.968-48.283 23.357-1.521.159-3.13.327-4.834.494-.366.032-.74.071-1.115.111-1.592.152-3.265.311-5.017.47-.74.072-1.489.135-2.253.199-.765.072-1.537.144-2.326.207-.788.072-1.592.136-2.413.199-3.265.271-6.729.542-10.4.797-1.832.135-3.711.262-5.646.382-2.652.175-5.4.334-8.243.486-.772.047-1.553.087-2.341.127-.526.032-1.051.056-1.585.08-.979.055-1.975.103-2.978.151-.677.032-1.362.064-2.047.096l.056 1.561c17.576-.805 34.721-2.103 51.309-3.887 2.931-.318 5.758-.557 8.49-.788 18.403-1.577 32.937-2.819 41.108-24.146 4.157-10.854 5.503-40.256 4.746-54.861"/>
    <path fill="#282827" d="M312.9982 221.6056c0-1.011-.82-1.832-1.824-1.832h-4.316c-1.003 0-1.824.821-1.824 1.832v.223c0 1.011.821 1.832 1.824 1.832h4.316c1.004 0 1.824-.821 1.824-1.832v-.223zm-8.792 9.039v.231c0 1.003.82 1.823 1.824 1.823h4.308c1.012 0 1.832-.82 1.832-1.823v-.231c0-1.004-.82-1.824-1.832-1.824h-4.308c-1.004 0-1.824.82-1.824 1.824m-.597 9.022v.231c0 1.004.82 1.824 1.824 1.824h4.308c1.011 0 1.831-.82 1.831-1.824v-.231c0-1.003-.82-1.823-1.831-1.823h-4.308c-1.004 0-1.824.82-1.824 1.823m-13.156-37.325c-14.613-12.383-34.076-29.378-61.184-41.084-.008-.008-.016-.016-.024-.016-.024-.008-.064-.024-.128-.048-1.903-.828-3.846-1.624-5.829-2.389-30.262-11.682-43.911-15.131-57.394-15.131-9.269 0-18.618 1.633-33.383 6.443-.008.008-28.446 10.464-30.596 11.404-26.798 11.69-46.078 28.533-60.579 40.821-15.657 13.267-17.783 57.601 11.945 63.438 29.736 5.845 112.613 6.905 112.613 6.905s82.878-1.06 112.614-6.905c29.728-5.837 27.601-50.171 11.945-63.438m-261.811 37.325c0-1.003-.828-1.823-1.832-1.823h-4.308c-1.004 0-1.824.82-1.824 1.823v.231c0 1.004.82 1.824 1.824 1.824h4.308c1.004 0 1.832-.82 1.832-1.824v-.231zm-.597-9.022c0-1.004-.829-1.824-1.832-1.824h-4.308c-1.004 0-1.824.82-1.824 1.824v.231c0 1.003.82 1.823 1.824 1.823h4.308c1.003 0 1.832-.82 1.832-1.823v-.231zm-.837-9.039c0-1.011-.82-1.832-1.823-1.832h-4.309c-1.003 0-1.831.821-1.831 1.832v.223c0 1.011.828 1.832 1.831 1.832h4.309c1.003 0 1.823-.821 1.823-1.832v-.223zm282.525 29.314c-8.967 22.879-25.523 20.968-48.283 23.357-1.521.16-3.13.327-4.834.494-.367.032-.733.072-1.115.111-1.593.152-3.265.311-5.017.47-.733.064-1.489.136-2.254.199-.764.072-1.537.136-2.325.207-.797.064-1.601.136-2.413.2-3.265.27-6.73.541-10.401.796-1.831.127-3.719.255-5.646.382-.661.04-1.33.08-2.007.128-.31.016-.613.031-.924.055-1.051.064-2.118.128-3.193.191-.382.024-.772.04-1.163.064-.318.016-.637.032-.955.048-.773.048-1.553.088-2.342.127-.525.032-1.051.056-1.584.08-.98.056-1.975.104-2.979.151-.677.032-1.361.064-2.046.096-13.116.589-27.897.979-44.143.979-16.301 0-31.129-.39-44.293-.987h-.032c-21.956-.996-39.276-2.548-51.078-3.791-22.76-2.389-39.317-.478-48.276-23.357-4.969-12.678-5.973-53.587-3.783-59.958 2.19-6.371 3.409-11.252 11.811-14.239 8.393-2.986 50.202-13.379 60.356-18.436 10.153-5.056 34.044-14.812 40.813-17.002l6.769-2.19s11.364-4.181 27.753-4.181 27.61 4.181 27.61 4.181l6.769 2.19c6.769 2.19 30.66 11.946 40.814 17.002 10.153 5.057 51.962 15.45 60.364 18.436 8.393 2.987 9.62 7.868 11.802 14.239 2.198 6.371 1.186 47.28-3.775 59.958"/>
    <path fill="#fff" d="M229.269 161.2575c-.008-.008-.016-.016-.024-.016-.024-.008-.064-.024-.127-.048-1.904-.828-3.847-1.624-5.83-2.389-30.261-11.682-43.911-15.131-57.393-15.131-9.27 0-18.619 1.633-33.384 6.443-.008.008-28.446 10.464-30.596 11.404.526 1.378 1.983 4.953 4.476 8.999.008.008.008.024.016.032 3.01 4.881 7.525 10.432 13.705 13.601.366.183.741.367 1.115.534 12.081 5.439 31.719 5.041 44.923 5.041 13.203 0 32.587.398 44.667-5.041.375-.167.749-.351 1.115-.534 8.251-4.252 13.132-12.885 15.585-18.419.9-2.031 1.465-3.648 1.752-4.476"/>
    <path fill="#2f3134" d="M165.8945 145.2666c-9.486 0-19.015 1.844-32.89 6.364l.051-.031c-.317.131-.854.329-1.834.69-14.66 5.405-23.787 8.797-27.231 10.121.753 1.778 1.953 4.324 3.66 7.116l.134.135.067.197c2.607 4.197 6.954 9.783 12.987 12.877.331.165.685.339 1.038.497 10.903 4.909 29.134 4.909 38.928 4.909l5.345-.007 5.333.007c13.442 0 28.624-.379 38.681-4.907.358-.16.711-.335 1.057-.507 7.52-3.875 12.223-11.732 14.84-17.64.508-1.145.909-2.163 1.204-2.956-1.491-.633-3.016-1.25-4.549-1.841-29.461-11.373-43.268-15.024-56.821-15.024"/>
    <path fill="#171819" d="M283.5488 225.4998s-1.394-20.108-18.316-23.094c-16.923-2.987-45.377-3.584-99.338-3.584-53.962 0-82.415.597-99.338 3.584-16.923 2.986-18.316 23.094-18.316 23.094v5.264c0 5.256 4.579 19.224 18.913 24.799 14.335 5.574 82.033 7.167 98.741 7.167 16.707 0 84.406-1.593 98.74-7.167 14.335-5.575 18.914-19.543 18.914-24.799v-5.264zm-5.041 40.28c-29.736 5.845-112.613 6.904-112.613 6.904s-82.877-1.059-112.613-6.904c-29.729-5.837-27.602-50.171-11.946-63.438 14.502-12.288 33.782-29.131 60.579-40.822.526 1.378 1.983 4.954 4.476 8.999.008.008.008.024.016.032 3.01 4.882 7.525 10.433 13.705 13.602.366.183.741.366 1.115.534 12.081 5.439 31.719 5.041 44.923 5.041 13.203 0 32.587.398 44.667-5.041.375-.168.749-.351 1.115-.534 8.251-4.253 13.132-12.885 15.585-18.42.9-2.03 1.465-3.647 1.752-4.475 27.108 11.706 46.571 28.7 61.184 41.084 15.657 13.267 17.783 57.601-11.945 63.438"/>
    <path fill="#282827" d="M269.0153 221.5499c-.693-6.005-3.783-12.575-9.556-12.877-5.774-.295-29.067-1.386-33.647-1.29-4.579.095-42.971-.797-59.663-.494-16.684-.303-55.084.597-59.663.494-4.579-.096-27.873.995-33.646 1.298-5.774.294-8.856 6.864-9.557 12.869-.692 6.005-.796 6.737 0 14.669.797 7.932 5.774 11.38 8.76 12.574 2.987 1.195 16.923 2.39 36.832 3.783 19.909 1.394 31.623 2.126 57.274 2.126s37.365-.732 57.274-2.126c19.909-1.393 33.846-2.588 36.832-3.783 2.986-1.194 7.964-4.642 8.76-12.574.796-7.932.693-8.664 0-14.669m-4.38 34.012c-14.334 5.575-82.033 7.168-98.741 7.168-16.707 0-84.406-1.593-98.74-7.168-14.335-5.574-18.914-19.542-18.914-24.798v-5.264s1.394-20.108 18.316-23.095c16.923-2.986 45.377-3.583 99.338-3.583 53.962 0 82.416.597 99.338 3.583 16.923 2.987 18.317 23.095 18.317 23.095v5.264c0 5.256-4.58 19.224-18.914 24.798"/>
    <path fill="#1d1d1d" d="M255.74 220.9845h-3.783v-6.172h-9.755v1.466h-7.693v-1.466H98.148v1.593h-7.812v-1.593H80.079v6.737h-4.03v14.669h4.03v6.738h10.257v-1.593h7.812v1.593h136.361v-1.466h7.693v1.466h9.755v-6.172h3.783v-15.8zm13.275 15.234c-.796 7.932-5.773 11.38-8.76 12.575-2.986 1.194-16.922 2.389-36.831 3.783-19.909 1.393-31.624 2.126-57.274 2.126-25.651 0-37.366-.733-57.275-2.126-19.909-1.394-33.845-2.589-36.831-3.783-2.987-1.195-7.964-4.643-8.76-12.575-.797-7.931-.693-8.664 0-14.669.701-6.004 3.782-12.574 9.556-12.869 5.774-.302 29.067-1.393 33.646-1.298 4.579.104 42.98-.796 59.664-.494 16.691-.302 55.084.59 59.663.494 4.579-.095 27.872.996 33.646 1.29 5.774.303 8.863 6.873 9.556 12.877.693 6.005.797 6.738 0 14.669"/>
    <path fill="#191818" d="M255.74 228.2871v-7.303h-3.783v-6.171h-9.755v1.465h-7.693v-1.465H98.148v1.592h-7.812v-1.592H80.079v6.737h-4.03v6.737H255.74z"/>
    <path d="M255.74 228.287H76.049v1.195H255.74v-1.195z"/>
    <path fill="#191818" d="M255.74 236.7843v-7.303H76.049v6.738h4.03v6.737h10.257v-1.593h7.812v1.593h136.361v-1.466h7.693v1.466h9.755v-6.172h3.783z"/>
    <path fill="#505052" d="M222.6273 239.7786v-1.736s-.661-7.526-2.652-8.641l-106.736.08h-.096c-1.895 1.338-2.54 8.561-2.54 8.561v1.736h112.024z"/>
    <path fill="#323333" d="M222.6273 238.0425v-8.64h-2.652c1.991 1.114 2.652 8.64 2.652 8.64m-109.4835-8.5609h-2.54v8.561s.645-7.223 2.54-8.561"/>
    <path fill="#505052" d="M222.6273 218.0539v1.736s-.661 7.526-2.652 8.641l-106.736-.08h-.096c-1.895-1.338-2.54-8.561-2.54-8.561v-1.736h112.024z"/>
    <path fill="#323333" d="M222.6273 219.7899v8.64h-2.652c1.991-1.114 2.652-8.64 2.652-8.64m-109.4835 8.5609h-2.54v-8.561s.645 7.223 2.54 8.561"/>
    <path fill="#fff" d="M144.755 179.589h1.286v-2.058h-1.286v2.058zm-3.344 0h1.286v-2.058h-1.286v2.058zm-3.087 0h1.286v-2.058h-1.286v2.058zm0 .257v.772h7.203c.343 0 .514-.257.514-.772h-7.717zm8.4889-1.5434v1.286h1.286c0-.172.086-.257.257-.257h3.087v-.772h-3.344c0-.172.086-.257.257-.257h3.344v-.772h-4.373c-.343 0-.514.258-.514.772m0 2.315h4.887v-.772h-4.887v.772zm5.6591-2.315v1.286h1.286v-1.286h2.572c.172 0 .258.043.258.129 0 .085-.086.128-.258.128h-1.286v.772h2.315c.515 0 .772-.257.772-.772v-.257c0-.514-.171-.772-.514-.772h-4.631c-.343 0-.514.258-.514.772m0 1.543c0 .515.171.772.514.772h4.888v-.772h-5.402zm10.5466-2.3147v.514h-2.572v.772h2.572v.772h1.286v-2.058h-1.286zm-4.116 2.058h1.286v-2.058h-1.286v2.058zm0 .257c0 .515.172.772.515.772h4.373c.343 0 .514-.257.514-.772h-5.402zm11.0612-2.315h-3.344v.772h2.572v1.286h1.286v-1.286c0-.515-.171-.772-.514-.772m-4.887 2.058h1.286v-2.058h-1.286v2.058zm0 .257v.772h4.887c.343 0 .514-.257.514-.772h-5.401zm7.7166-1.8005v.772h2.315c.171 0 .257.085.257.257v.514h1.286v-.771c0-.515-.171-.772-.514-.772l.772-.514h-1.286l-.772.514h-2.058zm-1.543 1.543h1.286v-2.058h-1.286v2.058zm0 .258c0 .514.171.771.514.771h4.373c.343 0 .514-.257.514-.771h-5.401zm6.4306.7716h1.286v-3.087h-1.286v3.087zm6.3939-.772l.514.772h1.544l-.515-.772h-1.543zm-2.021-2.315l-1.286 2.058h1.543l.772-1.235.772 1.235h1.543l-1.286-2.058h-2.058zm-1.543 2.315l-.515.772h1.543l.515-.772h-1.543zm6.3935-1.5434v1.286h1.286c0-.172.086-.257.257-.257h3.087v-.772h-3.344c0-.172.086-.257.257-.257h3.344v-.772h-4.373c-.343 0-.514.258-.514.772m0 2.315h4.887v-.772h-4.887v.772zm-48.5802-13.9988v2.508h10.554c.541 0 .812.14.812.418 0 .278-.271.418-.812.418h-7.307v2.508h7.145c.649 0 .974.278.974.836h4.06v-4.18c0-1.672-.758-2.508-2.274-2.508h-13.152zm0 7.524v2.508h13.152c1.516 0 2.274-.836 2.274-2.508h-15.426zm17.0494-4.18c0 1.672.812 2.508 2.436 2.508h8.118c.541 0 .812.278.812.836h4.06v-.836c0-1.672-.812-2.508-2.436-2.508h-8.931c-.541 0-.812-.278-.812-.836h12.179v-2.508h-15.426v3.344zm0 4.18v2.508h12.99c1.624 0 2.436-.836 2.436-2.508h-15.426zm31.547 2.508h4.871l-3.618-2.508h-4.86l3.607 2.508zm-.046-10.032l-4.767 3.308-4.767-3.308h-4.871l7.202 5.004-2.424 1.684h9.719l-2.424-1.684 7.203-5.004h-4.871zm-10.833 7.524l-3.619 2.508h4.872l3.607-2.508h-4.86zm-23.6705-19.8705c0 .371.133.691.399.96.267.27.639.405 1.118.405h3.639v-1.213h-3.639c-.203 0-.304-.051-.304-.152s.101-.152.304-.152h.909c.694 0 1.323-.281 1.886-.844s.844-1.241.844-2.037c0-.789-.281-1.466-.844-2.032-.563-.566-1.192-.849-1.886-.849h-3.943v1.213h3.64c.56 0 1.003.165 1.33.495.327.331.49.721.49 1.173 0 .458-.163.851-.49 1.178-.327.327-.77.49-1.33.49h-.606c-.479 0-.851.133-1.118.4-.266.266-.399.588-.399.965m-1.517 0c0 .789.282 1.466.845 2.032.562.566 1.191.849 1.885.849h3.943v-1.213h-3.639c-.56 0-1.003-.165-1.33-.495-.327-.331-.49-.721-.49-1.173 0-.458.163-.851.49-1.178.327-.327.77-.49 1.33-.49h.606c.479 0 .851-.133 1.117-.4.267-.266.4-.588.4-.965 0-.371-.133-.691-.4-.96-.266-.27-.638-.405-1.117-.405h-3.64v1.213h3.64c.202 0 .303.051.303.152s-.101.152-.303.152h-.91c-.694 0-1.323.281-1.885.844-.563.562-.845 1.241-.845 2.037m8.7962-1.6682h3.943v-1.213h-2.73c0-.202.101-.303.303-.303h3.337v-1.214h-3.64c-.809 0-1.213.405-1.213 1.214v1.516zm0 .303v1.517c0 .809.404 1.213 1.213 1.213h3.64v-1.213h-3.337c-.202 0-.303-.101-.303-.303h2.73v-1.214h-3.943zm-1.517 1.517c0 1.82.91 2.73 2.73 2.73h3.64v-1.214h-3.64c-1.011 0-1.516-.505-1.516-1.516v-3.336c0-1.011.505-1.517 1.516-1.517h3.64v-1.213h-3.64c-1.82 0-2.73.91-2.73 2.73v3.336zm8.493-.0001c0 .809.404 1.213 1.213 1.213h3.64v-1.213h-3.337c-.202 0-.303-.101-.303-.303v-2.73c0-.202.101-.303.303-.303h.607v.303h-.607v1.213h1.82v-2.73h-2.123c-.809 0-1.213.405-1.213 1.214v3.336zm-1.517 0c0 1.82.91 2.73 2.73 2.73h3.64v-1.213h-3.64c-1.011 0-1.516-.506-1.516-1.517v-3.336c0-1.011.505-1.517 1.516-1.517h2.427v3.337h-2.124v1.213h3.337v-5.763h-3.64c-1.82 0-2.73.91-2.73 2.73v3.336zm11.3237-1.9209l-.556-1.415h1.112l-.556 1.415zm-.758-2.629v.658l-.86-2.174h-1.213l2.629 7.077c.034.134.101.202.202.202s.168-.068.202-.202l2.123-5.561h-3.083zm0-.303h3.589l-2.427 6.167c-.067.135-.202.202-.404.202-.168 0-.303-.067-.404-.202l-2.73-7.38h-1.213l2.83 7.785c.338.674.843 1.011 1.517 1.011.775 0 1.28-.337 1.517-1.011l2.931-7.785h-5.206v1.213z"/>
    <path fill="#fff" d="M144.5204 147.5893l5.508 10.751h29.731l5.939-10.751 1.261.398-6.669 11.752h-31.357l-5.74-11.586 1.327-.564z"/>
    <path fill="#231f20" d="M90.336 242.956h7.812v-1.593h-7.812v1.593zm0-28.143h7.812v1.593h-7.812v-1.593zm144.173 26.678h7.693v1.465h-7.693v-1.465zm0-25.213h7.693v-1.465h-7.693v1.465z"/>
    <path fill="#505052" d="M98.7934 230.7107c-.365 0-.664.299-.664.664v8.096c0 .365.299.664.664.664.365 0 .664-.299.664-.664v-8.096c0-.365-.299-.664-.664-.664m-5.4584 0c-.365 0-.664.299-.664.664v8.096c0 .365.299.664.664.664.365 0 .664-.299.664-.664v-8.096c0-.365-.299-.664-.664-.664m5.4584-13.0086c-.365 0-.664.299-.664.664v8.096c0 .365.299.664.664.664.365 0 .664-.299.664-.664v-8.096c0-.365-.299-.664-.664-.664m-5.4584 0c-.365 0-.664.299-.664.664v8.096c0 .365.299.664.664.664.365 0 .664-.299.664-.664v-8.096c0-.365-.299-.664-.664-.664m146.1569 12.9747c-.365 0-.664.299-.664.664v8.096c0 .365.299.664.664.664.365 0 .664-.299.664-.664v-8.096c0-.365-.299-.664-.664-.664m-5.4584 0c-.365 0-.664.299-.664.664v8.096c0 .365.299.664.664.664.365 0 .664-.299.664-.664v-8.096c0-.365-.299-.664-.664-.664m5.4584-13.0085c-.365 0-.664.299-.664.664v8.096c0 .365.299.664.664.664.365 0 .664-.299.664-.664v-8.096c0-.365-.299-.664-.664-.664m-5.4584 0c-.365 0-.664.299-.664.664v8.096c0 .365.299.664.664.664.365 0 .664-.299.664-.664v-8.096c0-.365-.299-.664-.664-.664"/>
    <path fill="#282827" d="M460.2121 9.0248c-.486 0-21.454.175-30.238 1.354-8.895 1.194-19.646-1.059-27.076 16.19-7.438 17.257-13.928 43.274-18.189 80.568-4.252 37.293-3.846 83.426 2.325 119.86 6.172 36.425 10.919 56.677 16.262 67.897 5.702 11.993 15.792 13.323 25.444 13.522 4.961.104 30.134.446 37.373.55-6.53-.088-11.587-.478-13.522-1.123l-1.067-.35c-6.092-2.023-11.356-3.775-14.51-12.432-1.091-3.002-3.13-10.177-5.487-18.491-4.229-14.876-10.018-35.239-13.299-41.689-5.248-10.289-15.29-34.379-17.496-41.037l-2.214-6.705c-.183-.478-4.38-11.818-4.38-28.303 0-16.492 4.197-27.697 4.356-28.103l2.238-6.769c2.206-6.658 12.248-30.74 17.496-41.029 3.281-6.45 9.07-26.821 13.299-41.689 2.357-8.314 4.396-15.497 5.487-18.5 3.154-8.656 8.418-10.4 14.51-12.423l1.067-.358c1.298-.43 4.006-.749 7.621-.94"/>
    <path fill="#565151" d="M484.6205 14.1772v3.584c0 .748.613 1.361 1.362 1.361.748 0 1.362-.613 1.362-1.361v-3.584c0-.749-.614-1.362-1.362-1.362-.749 0-1.362.613-1.362 1.362m3.305-.366v4.316c0 1.003-.82 1.824-1.832 1.824h-.223c-1.011 0-1.831-.821-1.831-1.824v-4.316c0-1.004.82-1.824 1.831-1.824h.223c1.012 0 1.832.82 1.832 1.824"/>
    <path fill="#231f20" d="M485.9823 12.8155c-.749 0-1.362.613-1.362 1.362v3.583c0 .749.613 1.362 1.362 1.362.749 0 1.362-.613 1.362-1.362v-3.583c0-.749-.613-1.362-1.362-1.362"/>
    <path fill="#565151" d="M493.6672 15.0054v3.584c0 .748.613 1.361 1.362 1.361.748 0 1.362-.613 1.362-1.361v-3.584c0-.749-.614-1.362-1.362-1.362-.749 0-1.362.613-1.362 1.362m3.297-.358v4.308c0 1.003-.82 1.824-1.824 1.824h-.231c-1.003 0-1.823-.821-1.823-1.824v-4.308c0-1.012.82-1.832 1.823-1.832h.231c1.004 0 1.824.82 1.824 1.832"/>
    <path fill="#231f20" d="M495.0289 13.6436c-.749 0-1.362.613-1.362 1.362v3.583c0 .749.613 1.362 1.362 1.362.749 0 1.362-.613 1.362-1.362v-3.583c0-.749-.613-1.362-1.362-1.362"/>
    <path fill="#565151" d="M502.6899 15.6027v3.584c0 .748.613 1.361 1.362 1.361.748 0 1.362-.613 1.362-1.361v-3.584c0-.749-.614-1.362-1.362-1.362-.749 0-1.362.613-1.362 1.362m3.297-.358v4.308c0 1.003-.82 1.824-1.824 1.824h-.231c-1.003 0-1.823-.821-1.823-1.824v-4.308c0-1.012.82-1.832 1.823-1.832h.231c1.004 0 1.824.82 1.824 1.832"/>
    <path fill="#231f20" d="M504.0517 14.2409c-.749 0-1.362.613-1.362 1.362v3.583c0 .749.613 1.362 1.362 1.362.749 0 1.362-.613 1.362-1.362v-3.583c0-.749-.613-1.362-1.362-1.362"/>
    <path fill="#565151" d="M484.6205 299.9669v3.584c0 .748.613 1.353 1.362 1.353.748 0 1.362-.605 1.362-1.353v-3.584c0-.749-.614-1.362-1.362-1.362-.749 0-1.362.613-1.362 1.362m3.305-.366v4.308c0 1.003-.82 1.832-1.832 1.832h-.223c-1.011 0-1.831-.829-1.831-1.832v-4.308c0-1.004.82-1.824 1.831-1.824h.223c1.012 0 1.832.82 1.832 1.824"/>
    <path fill="#231f20" d="M485.9823 298.6051c-.749 0-1.362.613-1.362 1.362v3.583c0 .749.613 1.354 1.362 1.354.749 0 1.362-.605 1.362-1.354v-3.583c0-.749-.613-1.362-1.362-1.362"/>
    <path fill="#565151" d="M493.6672 299.1306v3.584c0 .748.613 1.361 1.362 1.361.748 0 1.362-.613 1.362-1.361v-3.584c0-.749-.614-1.354-1.362-1.354-.749 0-1.362.605-1.362 1.354m3.297-.358v4.308c0 1.003-.82 1.824-1.824 1.824h-.231c-1.003 0-1.823-.821-1.823-1.824v-4.308c0-1.004.82-1.832 1.823-1.832h.231c1.004 0 1.824.828 1.824 1.832"/>
    <path fill="#231f20" d="M495.0289 297.7769c-.749 0-1.362.605-1.362 1.354v3.583c0 .749.613 1.362 1.362 1.362.749 0 1.362-.613 1.362-1.362v-3.583c0-.749-.613-1.354-1.362-1.354"/>
    <path fill="#565151" d="M502.6899 298.5334v3.584c0 .748.613 1.361 1.362 1.361.748 0 1.362-.613 1.362-1.361v-3.584c0-.749-.614-1.354-1.362-1.354-.749 0-1.362.605-1.362 1.354m3.297-.358v4.308c0 1.003-.82 1.824-1.824 1.824h-.231c-1.003 0-1.823-.821-1.823-1.824v-4.308c0-1.004.82-1.832 1.823-1.832h.231c1.004 0 1.824.828 1.824 1.832"/>
    <path fill="#231f20" d="M504.0517 297.1796c-.749 0-1.362.605-1.362 1.354v3.583c0 .749.613 1.362 1.362 1.362.749 0 1.362-.613 1.362-1.362v-3.583c0-.749-.613-1.354-1.362-1.354"/>
    <path fill="#17171b" d="M460.2201 9.0248h-.008c-3.615.191-6.323.51-7.621.94l-1.067.358c-6.092 2.023-11.356 3.767-14.51 12.423-1.091 3.003-3.13 10.186-5.487 18.5-4.229 14.868-10.018 35.239-13.299 41.689-5.248 10.289-15.29 34.371-17.496 41.029l-2.238 6.769c-.159.406-4.356 11.611-4.356 28.103 0 16.485 4.197 27.825 4.38 28.303l2.214 6.705c2.206 6.658 12.248 30.748 17.496 41.037 3.281 6.45 9.07 26.813 13.299 41.689 2.357 8.314 4.396 15.489 5.487 18.491 3.154 8.657 8.418 10.409 14.51 12.432l1.067.35c1.935.645 6.992 1.035 13.522 1.123.255 0 .502.008.757.008 15.568.151 38.83-1.346 48.211-4.93 21.327-8.17 22.569-22.704 24.146-41.108.231-2.731.47-5.558.788-8.489 1.776-16.564 3.082-33.702 3.886-51.27l-1.568.024c-.996 21.956-2.549 39.277-3.791 51.079-2.389 22.76-.478 39.316-23.357 48.275-12.678 4.97-53.587 5.973-59.958 3.783-6.371-2.19-11.253-3.408-14.239-11.81-2.986-8.394-13.379-50.203-18.436-60.356-5.057-10.154-14.812-34.045-17.002-40.814l-2.19-6.769s-4.181-11.364-4.181-27.753 4.181-27.61 4.181-27.61l2.19-6.769c2.19-6.769 11.945-30.659 17.002-40.813 5.057-10.154 15.45-51.963 18.436-60.364 2.986-8.394 7.868-9.62 14.239-11.802 6.371-2.198 47.28-1.187 59.958 3.775 22.879 8.967 20.968 25.523 23.357 48.283.159 1.521.326 3.13.494 4.834.032.366.071.74.111 1.115.152 1.592.311 3.265.47 5.017.072.74.135 1.489.199 2.253.072.765.143 1.537.207 2.326.072.788.136 1.592.199 2.413.271 3.265.542 6.729.797 10.4.135 1.832.262 3.711.382 5.646.175 2.652.334 5.4.486 8.243.047.772.087 1.553.127 2.341.032.526.056 1.051.08 1.585.055.979.103 1.975.151 2.978.032.677.064 1.362.096 2.047l1.56-.056c-.804-17.576-2.102-34.721-3.886-51.309-.318-2.931-.557-5.758-.788-8.49-1.577-18.404-2.819-32.937-24.146-41.108-10.854-4.157-40.256-5.503-54.861-4.746"/>
    <path fill="#282827" d="M485.8708 11.9872c-1.011 0-1.832.82-1.832 1.824v4.316c0 1.003.821 1.824 1.832 1.824h.223c1.011 0 1.832-.821 1.832-1.824v-4.316c0-1.004-.821-1.824-1.832-1.824h-.223zm9.039 8.792h.231c1.003 0 1.823-.82 1.823-1.824v-4.308c0-1.012-.82-1.832-1.823-1.832h-.231c-1.004 0-1.824.82-1.824 1.832v4.308c0 1.004.82 1.824 1.824 1.824m9.022.597h.231c1.004 0 1.824-.82 1.824-1.824v-4.308c0-1.011-.82-1.831-1.824-1.831h-.231c-1.003 0-1.823.82-1.823 1.831v4.308c0 1.004.82 1.824 1.823 1.824m-37.325 13.156c-12.383 14.613-29.378 34.076-41.084 61.184-.008.008-.016.016-.016.024-.008.024-.024.064-.048.128-.828 1.903-1.624 3.846-2.389 5.829-11.682 30.262-15.131 43.911-15.131 57.394 0 9.269 1.633 18.618 6.443 33.383.008.008 10.464 28.446 11.404 30.596 11.69 26.798 28.533 46.078 40.821 60.579 13.267 15.657 57.601 17.783 63.438-11.945 5.845-29.736 6.905-112.613 6.905-112.613s-1.06-82.878-6.905-112.614c-5.837-29.728-50.171-27.601-63.438-11.945m37.325 261.811c-1.003 0-1.823.828-1.823 1.832v4.308c0 1.004.82 1.824 1.823 1.824h.231c1.004 0 1.824-.82 1.824-1.824v-4.308c0-1.004-.82-1.832-1.824-1.832h-.231zm-9.022.597c-1.004 0-1.824.829-1.824 1.832v4.308c0 1.004.82 1.824 1.824 1.824h.231c1.003 0 1.823-.82 1.823-1.824v-4.308c0-1.003-.82-1.832-1.823-1.832h-.231zm-9.039.837c-1.011 0-1.832.82-1.832 1.823v4.309c0 1.003.821 1.831 1.832 1.831h.223c1.011 0 1.832-.828 1.832-1.831v-4.309c0-1.003-.821-1.823-1.832-1.823h-.223zm29.314-282.525c22.879 8.967 20.968 25.523 23.357 48.283.16 1.521.327 3.13.494 4.834.032.367.072.733.112 1.115.151 1.593.31 3.265.469 5.017.064.733.136 1.489.199 2.254.072.764.136 1.537.207 2.325.064.797.136 1.601.2 2.413.27 3.265.541 6.73.796 10.401.127 1.831.255 3.719.382 5.646.04.661.08 1.33.128 2.007.016.31.031.613.055.924.064 1.051.128 2.118.191 3.193.024.382.04.772.064 1.163.016.318.032.637.048.955.048.773.088 1.553.127 2.342.032.525.056 1.051.08 1.584.056.98.104 1.975.151 2.979.032.677.064 1.361.096 2.046.589 13.116.979 27.897.979 44.143 0 16.301-.39 31.129-.987 44.293v.032c-.996 21.956-2.548 39.276-3.791 51.078-2.389 22.76-.478 39.317-23.357 48.276-12.678 4.969-53.587 5.973-59.958 3.783-6.371-2.19-11.252-3.409-14.239-11.811-2.986-8.393-13.379-50.202-18.436-60.356-5.056-10.153-14.812-34.044-17.002-40.813l-2.19-6.769s-4.181-11.364-4.181-27.753 4.181-27.61 4.181-27.61l2.19-6.769c2.19-6.769 11.946-30.66 17.002-40.814 5.057-10.153 15.45-51.962 18.436-60.364 2.987-8.393 7.868-9.62 14.239-11.802 6.371-2.198 47.28-1.186 59.958 3.775"/>
    <path fill="#fff" d="M425.5226 95.7165c-.008.008-.016.016-.016.024-.008.024-.024.064-.048.127-.828 1.904-1.624 3.847-2.389 5.83-11.682 30.261-15.131 43.911-15.131 57.393 0 9.27 1.633 18.619 6.443 33.384.008.008 10.464 28.446 11.404 30.596 1.378-.526 4.953-1.983 8.999-4.476.008-.008.024-.008.032-.016 4.881-3.01 10.432-7.525 13.601-13.705.183-.366.367-.741.534-1.115 5.439-12.081 5.041-31.719 5.041-44.923 0-13.203.398-32.587-5.041-44.667-.167-.375-.351-.749-.534-1.115-4.252-8.251-12.885-13.132-18.419-15.585-2.031-.9-3.648-1.465-4.476-1.752"/>
    <path fill="#2f3134" d="M409.5317 159.091c0 9.486 1.844 19.015 6.364 32.89l-.031-.051c.131.317.329.854.69 1.834 5.405 14.66 8.797 23.787 10.121 27.231 1.778-.753 4.324-1.953 7.116-3.66l.135-.134.197-.067c4.197-2.607 9.783-6.954 12.877-12.987.165-.331.339-.685.497-1.038 4.909-10.903 4.909-29.134 4.909-38.928l-.007-5.345.007-5.333c0-13.442-.379-28.624-4.907-38.681-.16-.358-.335-.711-.507-1.057-3.875-7.52-11.733-12.223-17.64-14.84-1.145-.508-2.163-.909-2.956-1.204-.633 1.491-1.25 3.016-1.841 4.549-11.373 29.461-15.024 43.268-15.024 56.821"/>
    <path fill="#171819" d="M489.765 41.4366s-20.108 1.394-23.094 18.316c-2.987 16.923-3.584 45.377-3.584 99.338 0 53.962.597 82.415 3.584 99.338 2.986 16.923 23.094 18.316 23.094 18.316h5.264c5.256 0 19.224-4.579 24.799-18.913 5.574-14.335 7.167-82.033 7.167-98.741 0-16.707-1.593-84.406-7.167-98.74-5.575-14.335-19.543-18.914-24.799-18.914h-5.264zm40.28 5.041c5.845 29.736 6.904 112.613 6.904 112.613s-1.059 82.877-6.904 112.613c-5.837 29.728-50.171 27.602-63.438 11.946-12.288-14.502-29.131-33.782-40.822-60.579 1.378-.526 4.954-1.983 8.999-4.476.008-.008.024-.008.032-.016 4.882-3.01 10.433-7.525 13.602-13.705.183-.366.366-.741.534-1.115 5.439-12.081 5.041-31.719 5.041-44.923 0-13.203.398-32.587-5.041-44.667-.168-.375-.351-.749-.534-1.115-4.253-8.251-12.885-13.132-18.42-15.585-2.031-.9-3.647-1.465-4.475-1.752 11.706-27.108 28.7-46.571 41.084-61.184 13.267-15.657 57.601-17.783 63.438 11.945"/>
    <path fill="#282827" d="M485.8151 55.9702c-6.005.693-12.575 3.783-12.877 9.556-.295 5.774-1.386 29.067-1.29 33.647.095 4.579-.797 42.971-.494 59.663-.303 16.684.597 55.084.494 59.663-.096 4.579.995 27.873 1.298 33.646.294 5.774 6.864 8.856 12.869 9.557 6.005.692 6.737.796 14.669 0 7.932-.797 11.38-5.774 12.574-8.76 1.195-2.987 2.39-16.923 3.783-36.832 1.394-19.909 2.126-31.623 2.126-57.274s-.732-37.365-2.126-57.274c-1.393-19.909-2.588-33.846-3.783-36.832-1.194-2.986-4.642-7.964-12.574-8.76-7.932-.796-8.664-.693-14.669 0m34.013 4.38c5.574 14.334 7.167 82.033 7.167 98.741 0 16.707-1.593 84.406-7.167 98.74-5.575 14.335-19.543 18.914-24.799 18.914h-5.264s-20.108-1.394-23.095-18.316c-2.986-16.923-3.583-45.377-3.583-99.338 0-53.962.597-82.416 3.583-99.338 2.987-16.923 23.095-18.317 23.095-18.317h5.264c5.256 0 19.224 4.58 24.799 18.914"/>
    <path fill="#1d1d1d" d="M485.2496 69.2455v3.783h-6.172v9.755h1.466v7.693h-1.466v136.361h1.593v7.812h-1.593v10.257h6.737v4.03h14.669v-4.03h6.738v-10.257h-1.593v-7.812h1.593V90.4765h-1.466v-7.693h1.466v-9.755h-6.172v-3.783h-15.8zm15.234-13.275c7.932.796 11.38 5.773 12.575 8.76 1.194 2.986 2.389 16.922 3.783 36.831 1.393 19.909 2.126 31.624 2.126 57.274 0 25.651-.733 37.366-2.126 57.275-1.394 19.909-2.589 33.845-3.783 36.831-1.195 2.987-4.643 7.964-12.575 8.76-7.931.797-8.664.693-14.669 0-6.004-.701-12.574-3.782-12.869-9.556-.302-5.774-1.393-29.067-1.298-33.646.104-4.579-.796-42.98-.494-59.664-.302-16.691.59-55.084.494-59.663-.095-4.579.996-27.872 1.29-33.646.303-5.774 6.873-8.863 12.877-9.556 6.005-.693 6.738-.797 14.669 0"/>
    <path fill="#191818" d="M492.5522 69.2455h-7.303v3.783h-6.171v9.755h1.465v7.693h-1.465v136.361h1.592v7.812h-1.592v10.257h6.737v4.03h6.737V69.2455z"/>
    <path d="M493.747 69.245h-1.195v179.691h1.195V69.245z"/>
    <path fill="#191818" d="M501.0494 69.2455h-7.303v179.691h6.738v-4.03h6.737v-10.257h-1.593v-7.812h1.593V90.4765h-1.466v-7.693h1.466v-9.755h-6.172v-3.783z"/>
    <path fill="#505052" d="M504.0437 102.3582h-1.736s-7.526.661-8.641 2.652l.08 106.736v.096c1.338 1.895 8.561 2.54 8.561 2.54h1.736v-112.024z"/>
    <path fill="#323333" d="M502.3076 102.3582h-8.64v2.652c1.114-1.991 8.64-2.652 8.64-2.652m-8.5608 109.4835v2.54h8.561s-7.223-.645-8.561-2.54"/>
    <path fill="#505052" d="M482.319 102.3582h1.736s7.526.661 8.641 2.652l-.08 106.736v.096c-1.338 1.895-8.561 2.54-8.561 2.54h-1.736v-112.024z"/>
    <path fill="#323333" d="M484.0551 102.3582h8.641v2.652c-1.115-1.991-8.641-2.652-8.641-2.652m8.5609 109.4835v2.54h-8.561s7.223-.645 8.561-2.54"/>
    <path fill="#fff" d="M441.796 180.23h2.058v-1.286h-2.058v1.286zm0 3.344h2.058v-1.286h-2.058v1.286zm0 3.087h2.058v-1.286h-2.058v1.286zm2.315 0h.772v-7.202c0-.343-.257-.515-.772-.515v7.717zm-1.5432-8.4884h1.286v-1.286c-.172 0-.257-.086-.257-.257v-3.087h-.772v3.344c-.172 0-.257-.086-.257-.257v-3.344h-.772v4.373c0 .343.258.514.772.514m1.543 0h.772v-4.887h-.772v4.887zm-1.543-5.6592h1.286v-1.286h-1.286v-2.572c0-.172.043-.258.129-.258.085 0 .128.086.128.258v1.286h.772v-2.315c0-.515-.257-.772-.772-.772h-.257c-.514 0-.772.171-.772.514v4.631c0 .343.258.514.772.514m1.543 0c.515 0 .772-.171.772-.514v-4.888h-.772v5.402zm-2.3147-10.5465h.514v2.572h.772v-2.572h.772v-1.286h-2.058v1.286zm0 4.116h2.058v-1.286h-2.058v1.286zm2.315 0c.515 0 .772-.172.772-.515v-4.373c0-.343-.257-.514-.772-.514v5.402zm-2.315-11.0613v3.344h.772v-2.572h1.286v-1.286h-1.286c-.515 0-.772.171-.772.514m0 4.887h2.058v-1.286h-2.058v1.286zm2.315 0h.772v-4.887c0-.343-.257-.514-.772-.514v5.401zm-1.8006-7.7165h.772v-2.315c0-.171.085-.257.257-.257h.514v-1.286h-.771c-.515 0-.772.171-.772.514l-.514-.772v1.286l.514.772v2.058zm-.514 1.543h2.058v-1.286h-2.058v1.286zm2.315 0c.514 0 .771-.171.771-.514v-4.373c0-.343-.257-.514-.771-.514v5.401zm-2.3155-6.4301h3.087v-1.286h-3.087v1.286zm2.3152-6.3944l.772-.514v-1.544l-.772.515v1.543zm-2.315 2.021l2.058 1.286v-1.543l-1.235-.772 1.235-.772v-1.543l-2.058 1.286v2.058zm2.315 1.544l.772.514v-1.543l-.772-.515v1.544zm-1.5434-6.3946h1.286v-1.286c-.172 0-.257-.086-.257-.257v-3.087h-.772v3.344c-.172 0-.257-.086-.257-.257v-3.344h-.772v4.373c0 .343.258.514.772.514m1.543 0h.772v-4.887h-.772v4.887zm-13.2269 48.5802h2.508v-10.554c0-.541.14-.812.418-.812.278 0 .418.271.418.812v7.307h2.508v-7.145c0-.649.278-.974.836-.974v-4.06h-4.18c-1.672 0-2.508.758-2.508 2.274v13.152zm7.524 0h2.508v-13.152c0-1.516-.836-2.274-2.508-2.274v15.426zm-4.18-17.0493c1.672 0 2.508-.812 2.508-2.436v-8.118c0-.541.278-.812.836-.812v-4.06h-.836c-1.672 0-2.508.812-2.508 2.436v8.931c0 .541-.278.812-.836.812v-12.179h-2.508v15.426h3.344zm4.18 0h2.508v-12.99c0-1.624-.836-2.436-2.508-2.436v15.426zm2.5081-31.5471v-4.871l-2.508 3.618v4.86l2.508-3.607zm-10.032.046l3.308 4.767-3.308 4.767v4.871l5.004-7.202 1.684 2.424v-9.719l-1.684 2.424-5.004-7.203v4.871zm7.524 10.833l2.508 3.619v-4.872l-2.508-3.607v4.86zm-19.8706 23.6705c.371 0 .691-.133.96-.399.27-.267.405-.639.405-1.118v-3.639h-1.213v3.639c0 .203-.051.304-.152.304s-.152-.101-.152-.304v-.909c0-.695-.281-1.323-.844-1.886s-1.241-.844-2.037-.844c-.789 0-1.466.281-2.032.844-.566.563-.849 1.191-.849 1.886v3.942h1.213v-3.639c0-.56.165-1.003.495-1.33.331-.327.721-.49 1.173-.49.458 0 .851.163 1.178.49.327.327.49.77.49 1.33v.606c0 .479.133.851.4 1.118.266.266.588.399.965.399m0 1.516c.789 0 1.466-.281 2.032-.844.566-.562.849-1.191.849-1.885v-3.943h-1.213v3.639c0 .56-.165 1.003-.495 1.33-.331.327-.721.49-1.173.49-.458 0-.851-.163-1.178-.49-.327-.327-.49-.77-.49-1.33v-.606c0-.479-.133-.851-.4-1.117-.266-.267-.588-.4-.965-.4-.371 0-.691.133-.96.4-.27.266-.405.638-.405 1.117v3.639h1.213v-3.639c0-.202.051-.303.152-.303s.152.101.152.303v.91c0 .694.281 1.323.844 1.885.562.563 1.241.844 2.037.844m-1.6681-8.7952v-3.943h-1.213v2.73c-.202 0-.304-.101-.304-.304v-3.336h-1.213v3.64c0 .809.405 1.213 1.213 1.213h1.517zm.303 0h1.517c.809 0 1.213-.404 1.213-1.213v-3.64h-1.213v3.336c0 .203-.101.304-.303.304v-2.73h-1.214v3.943zm1.517 1.517c1.82 0 2.729-.91 2.729-2.73v-3.64h-1.213v3.64c0 1.011-.505 1.516-1.516 1.516h-3.337c-1.011 0-1.516-.505-1.516-1.516v-3.64h-1.213v3.64c0 1.82.91 2.73 2.729 2.73h3.337zm-.0002-8.4929c.809 0 1.213-.404 1.213-1.213v-3.64h-1.213v3.336c0 .203-.101.304-.303.304h-2.73c-.202 0-.303-.101-.303-.304v-.606h.303v.606h1.213v-1.819h-2.729v2.123c0 .809.404 1.213 1.213 1.213h3.336zm0 1.517c1.82 0 2.73-.91 2.73-2.73v-3.64h-1.213v3.64c0 1.011-.506 1.516-1.517 1.516h-3.336c-1.011 0-1.517-.505-1.517-1.516v-2.427h3.336v2.123h1.214v-3.336h-5.763v3.64c0 1.82.91 2.73 2.73 2.73h3.336zm-1.9209-11.3237l-1.415.556v-1.112l1.415.556zm-2.629.758h.658l-2.174.86v1.213l7.077-2.629c.134-.034.202-.101.202-.202s-.068-.168-.202-.202l-5.561-2.123v3.083zm-.303 0v-3.589l6.167 2.427c.135.067.202.202.202.404 0 .168-.067.303-.202.404l-7.38 2.73v1.213l7.785-2.831c.674-.337 1.011-.842 1.011-1.516 0-.775-.337-1.28-1.011-1.517l-7.785-2.931v5.206h1.213z"/>
    <path fill="#fff" d="M411.8545 180.4651l10.751-5.508v-29.731l-10.751-5.939.398-1.261 11.752 6.669v31.357l-11.586 5.74-.564-1.327z"/>
    <path fill="#231f20" d="M507.221 226.837h-1.593v7.812h1.593v-7.812zm-26.55 7.812h-1.593v-7.812h1.593v7.812zm26.55-144.173h-1.465v-7.693h1.465v7.693zm-26.678-7.692h-1.465v7.693h1.465v-7.693z"/>
    <path fill="#505052" d="M494.9758 226.1921c0 .365.299.664.664.664h8.096c.365 0 .664-.299.664-.664 0-.365-.299-.664-.664-.664h-8.096c-.365 0-.664.299-.664.664m0 5.4584c0 .365.299.664.664.664h8.096c.365 0 .664-.299.664-.664 0-.365-.299-.664-.664-.664h-8.096c-.365 0-.664.299-.664.664m-13.0085-5.4584c0 .365.299.664.664.664h8.096c.365 0 .664-.299.664-.664 0-.365-.299-.664-.664-.664h-8.096c-.365 0-.664.299-.664.664m0 5.4584c0 .365.299.664.664.664h8.096c.365 0 .664-.299.664-.664 0-.365-.299-.664-.664-.664h-8.096c-.365 0-.664.299-.664.664M494.942 85.4936c0 .365.299.664.664.664h8.096c.365 0 .664-.299.664-.664 0-.365-.299-.664-.664-.664h-8.096c-.365 0-.664.299-.664.664m0 5.4584c0 .365.299.664.664.664h8.096c.365 0 .664-.299.664-.664 0-.365-.299-.664-.664-.664h-8.096c-.365 0-.664.299-.664.664m-13.0086-5.4584c0 .365.299.664.664.664h8.096c.365 0 .664-.299.664-.664 0-.365-.299-.664-.664-.664h-8.096c-.365 0-.664.299-.664.664m0 5.4584c0 .365.299.664.664.664h8.096c.365 0 .664-.299.664-.664 0-.365-.299-.664-.664-.664h-8.096c-.365 0-.664.299-.664.664"/>
  </g>
</svg>
