<svg xmlns="http://www.w3.org/2000/svg" width="566.929" height="104.51">
  <path d="M566.929 84.51c0 11-9 20-20 20H20c-11 0-20-9-20-20V20C0 9 9 0 20 0h526.929c11 0 20 9 20 20v64.51z"/>
  <path fill="#F00" d="M432.612 68.958L384.13 86.539h48.791l18.554-10.243m-64.139-58.075h57.596l76.685 38.876h-30.072l-21.144-9.72-13.036 5.304"/>
  <path fill="#FC0" d="M494.603 36.031l48.488-17.573h-48.789l-18.553 10.235m64.137 58.075h-57.595l-76.686-38.876h30.071l21.146 9.721 13.035-5.305M23.837 17.749h38.175v46.65H23.837zm0 52.361h97.824v14.281H23.837zM85.87 17.749h45.34l31.017 26.177-22.42 16.449m3.329 2.592v21.425h35.791V62.967l69.198-45.218h-33.407l-69.192 45.218m107.373-38.082l38.175 23.801v35.706h-38.175m4.768-66.643l97.831 66.643h21.474v-66.65h-18.611v46.871L288.69 17.749"/>
</svg>
