<?xml version="1.0" encoding="UTF-8" standalone="no"?>
<!-- Generator: Adobe Illustrator 19.0.0, SVG Export Plug-In . SVG Version: 6.00 Build 0)  -->

<svg
   xmlns:dc="http://purl.org/dc/elements/1.1/"
   xmlns:cc="http://creativecommons.org/ns#"
   xmlns:rdf="http://www.w3.org/1999/02/22-rdf-syntax-ns#"
   xmlns:svg="http://www.w3.org/2000/svg"
   xmlns="http://www.w3.org/2000/svg"
   xmlns:sodipodi="http://sodipodi.sourceforge.net/DTD/sodipodi-0.dtd"
   xmlns:inkscape="http://www.inkscape.org/namespaces/inkscape"
   version="1.1"
   id="Layer_1"
   x="0px"
   y="0px"
   viewBox="0 0 612.7 722.3"
   xml:space="preserve"
   inkscape:version="0.91 r13725"
   sodipodi:docname="console.svg"><metadata
     id="metadata157"><rdf:RDF><cc:Work
         rdf:about=""><dc:format>image/svg+xml</dc:format><dc:type
           rdf:resource="http://purl.org/dc/dcmitype/StillImage" /></cc:Work></rdf:RDF></metadata><defs
     id="defs155" /><sodipodi:namedview
     pagecolor="#ffffff"
     bordercolor="#666666"
     borderopacity="1"
     objecttolerance="10"
     gridtolerance="10"
     guidetolerance="10"
     inkscape:pageopacity="0"
     inkscape:pageshadow="2"
     inkscape:window-width="1920"
     inkscape:window-height="1027"
     id="namedview153"
     showgrid="false"
     inkscape:zoom="2.62"
     inkscape:cx="306.35001"
     inkscape:cy="188.42162"
     inkscape:window-x="-8"
     inkscape:window-y="-8"
     inkscape:window-maximized="1"
     inkscape:current-layer="Layer_1" /><g
     id="g3"><path
       d="M599.9,717.8H12.8C5.7,717.8,0,712.1,0,705V12.8C0,5.7,5.7,0,12.8,0h587.1c7.1,0,12.8,5.7,12.8,12.8V705   C612.7,712.1,607,717.8,599.9,717.8z"
       id="path5"
       fill="#CCCCCC" /><g
       id="g7"><path
         d="M482.5,54.7c-8.8,0-14.7-6.4-14.7-14.2c0-7.8,5.9-14.3,14.7-14.2h82.8c8.8,0,14.6,6.5,14.6,14.2    c0,7.8-5.9,14.2-14.7,14.2L482.5,54.7L482.5,54.7z M482.5,29.8c-7,0-11.2,4.8-11.2,10.7c0,5.9,4.2,10.7,11.2,10.7h82.7    c7,0,11.2-4.8,11.2-10.7c0-5.9-4.3-10.7-11.2-10.7H482.5z"
         id="path9"
         fill="#999999" /><path
         id="path456_1_"
         d="M478.9,33.8h4.1l5.6,9.3l0-9.3h4v13.4h-4l-5.6-9.3v9.3h-4L478.9,33.8L478.9,33.8z"
         fill="#999999" /><path
         id="path458_1_"
         d="M514.5,35.2h3.9V37h2.1v1.3h-2.1l0,8.9h-3.9l0-8.9h-2.1V37l2.1,0L514.5,35.2L514.5,35.2z"
         fill="#999999" /><path
         id="path460_1_"
         d="M494.8,38.3h3.9v8.9h-3.9V38.3z"
         fill="#999999" /><path
         id="path462_1_"
         d="M494.8,33.8h3.9v2.7h-3.9V33.8z"
         fill="#999999" /><path
         id="path464_1_"
         d="M563.4,37.7c-3.2,0-5.7,2.2-5.7,5c0,2.8,2.6,5,5.7,5c3.2,0,5.7-2.2,5.7-5    C569.1,39.9,566.5,37.7,563.4,37.7 M564.9,42.7c0,0,0,1.3,0,1.9c0,1.4-0.8,2-1.6,2c-0.8,0-1.6-0.6-1.6-2c0-0.5,0-1.9,0-1.9    s0-1.3,0-1.9c0-1.4,0.8-2,1.6-2c0.8,0,1.6,0.6,1.6,2C564.9,41.3,564.9,42.3,564.9,42.7L564.9,42.7L564.9,42.7z"
         fill="#999999" /><path
         id="path466_1_"
         d="M552.5,42.7v-1.6c0-1.4-0.9-1.7-1.5-1.7c-0.6,0-1.5,0.3-1.5,1.7v1.6v1.6    c0,1.4,0.9,1.7,1.5,1.7c0.6,0,1.5-0.4,1.5-1.7L552.5,42.7L552.5,42.7z M552.5,33.8h3.9v13.4h-3.9c0,0,0-0.4,0-0.5    c-1.5,1-3.2,1-4.5,0.3c-0.4-0.2-2.7-1.3-2.7-4.4c0-2.3,2.2-4.9,5-4.7c0.9,0.1,1.6,0.4,2.2,0.8L552.5,33.8L552.5,33.8z"
         fill="#999999" /><path
         id="path468_1_"
         d="M507.9,37.9c1.5,0,4.4,0.9,4.4,4.5c0,0.6,0,4.8,0,4.8h-3.9v-5.8c0-0.8-0.7-1.6-1.8-1.6    c-1.1,0-1.9,0.9-1.9,1.6c0,0.4,0,5.8,0,5.8h-3.9l0-8.9l3.9,0c0,0,0,0.7,0,0.9C505.5,38.5,506.6,37.9,507.9,37.9"
         fill="#999999" /><path
         id="path470_1_"
         d="M539.7,37.9c1.5,0,4.4,0.9,4.4,4.5c0,0.6,0,4.8,0,4.8h-3.9v-5.8c0-0.8-0.7-1.6-1.8-1.6    c-1.1,0-1.9,0.9-1.9,1.6c0,0.4,0,5.8,0,5.8h-3.9v-8.9l3.9,0c0,0,0,0.7,0,0.9C537.3,38.5,538.4,37.9,539.7,37.9"
         fill="#999999" /><path
         id="path472_1_"
         d="M527.4,44.1c0,0,0,0,0,0.5c0,1.6-1,2-1.6,2c-0.6,0-1.6-0.4-1.6-2c0-0.5,0-1.8,0-1.8    s7.4,0,7.4,0c0-2.8-2.6-5-5.8-5s-5.8,2.2-5.8,5c0,2.8,2.6,5,5.8,5c2.6,0,4.9-1.5,5.5-3.7L527.4,44.1L527.4,44.1z M524.1,41.4    c0-0.8,0-1.3,0.3-1.7c0.3-0.5,0.9-0.8,1.4-0.8c0.5,0,1.1,0.3,1.4,0.8c0.2,0.4,0.3,1,0.3,1.7H524.1z"
         fill="#999999" /><path
         id="path474_1_"
         d="M569.9,35.3c0.4,0,0.7,0,0.7-0.5c0-0.4-0.3-0.4-0.6-0.4h-0.6v0.9H569.9z M569.3,37h-0.4    v-3h1.1c0.7,0,1,0.3,1,0.9c0,0.5-0.3,0.8-0.8,0.8l0.8,1.3h-0.5l-0.8-1.3h-0.5L569.3,37L569.3,37z"
         fill="#999999" /><path
         id="path476_1_"
         d="M569.9,37.7c1.2,0,2.1-0.9,2.1-2.2c0-1.3-0.9-2.2-2.1-2.2c-1.2,0-2.1,0.9-2.1,2.2    C567.8,36.7,568.7,37.7,569.9,37.7 M567.3,35.5c0-1.5,1.2-2.6,2.6-2.6c1.4,0,2.6,1.1,2.6,2.6c0,1.5-1.2,2.6-2.6,2.6    C568.5,38.1,567.3,37,567.3,35.5"
         fill="#999999" /></g><ellipse
       cx="77.3"
       cy="524.9"
       rx="3.3"
       ry="3.4"
       id="ellipse22"
       fill="#737477" /><ellipse
       cx="77.3"
       cy="537"
       rx="3.3"
       ry="3.4"
       id="ellipse24"
       fill="#737477" /><g
       id="g26"><path
         d="M63.5,527.7c-0.1,0.4-0.3,0.6-0.7,0.6h-2.1c-0.4,0-0.5-0.2-0.4-0.6l1.3-5c0.1-0.4,0.3-0.6,0.7-0.6h2.1    c0.4,0,0.5,0.2,0.5,0.6L63.5,527.7z M62.6,527.5l1.2-4.5h-1.4l-1.2,4.5H62.6z"
         id="path28"
         fill="#737477" /><path
         d="M67.5,528.3h-0.9l-0.6-3.8c0,0.2,0,0.3-0.1,0.4l-0.9,3.4h-1l1.6-6.1h0.9l0.6,3.8c0-0.2,0-0.3,0.1-0.4    l0.9-3.3h1L67.5,528.3z"
         id="path30"
         fill="#737477" /></g><g
       id="g32"><path
         d="M60.9,539.8c-0.1,0.4-0.3,0.6-0.7,0.6h-2.1c-0.4,0-0.5-0.2-0.4-0.6l1.3-5c0.1-0.4,0.3-0.6,0.7-0.6h2.1    c0.4,0,0.5,0.2,0.5,0.6L60.9,539.8z M60,539.6l1.2-4.5h-1.4l-1.2,4.5H60z"
         id="path34"
         fill="#737477" /><path
         d="M65.7,535.1h-1.7l-0.5,1.8h1.5l-0.2,0.8h-1.5l-0.7,2.7h-1l1.6-6.1h2.7L65.7,535.1z"
         id="path36"
         fill="#737477" /><path
         d="M68.9,535.1h-1.7l-0.5,1.8h1.5l-0.2,0.8h-1.5l-0.7,2.7h-1l1.6-6.1h2.7L68.9,535.1z"
         id="path38"
         fill="#737477" /></g><rect
       x="0.4"
       y="194.7"
       width="611.8"
       height="247.9"
       id="rect40"
       fill="#CCCCCC" /><g
       id="g42"><path
         id="polyline2177_1_"
         d="M122.9,378.1c-1.5,0-3,1.3-3.2,3v0v0v0l0,0v0.1v0l0,0.1v0.1l0,0.1v0.1l0,0.1v0.1    l0,0.1l0,0.1l0,0.2l-0.1,0.2l0,0.2l-0.1,0.2l0,0.2l-0.1,0.2l-0.1,0.3l-0.1,0.2l-0.1,0.5l-0.1,0.3l-0.1,0.2l0,0.2l-0.1,0.2    l-0.1,0.2l0,0.2l0,0.2l-0.1,0.2l0,0.2v0.1l0,0.1v0.1v0.1l0,0.1v0.1v0.1l0,0.1v0v0c0,0.7,0.1,1.7,0.3,1.9c0.3,1.6,5.2,8.9,5.1,10    c-0.1,1.1-0.7,4.4-0.7,4.4c-0.2,1.1-0.9,2-1.9,2c-1,0-1.7-0.9-1.6-2l0.9-5.4H117l-1.2,7.5c-0.3,1.5,0.7,2.7,2.2,2.7h5.3    c1.5,0,2.8-1.2,3.1-2.7c0,0,1.4-7,1.3-7.5c0-0.5-0.1-0.6-0.1-0.6c0-0.6-4.4-8.3-4.8-8.6c-0.2-0.1-0.4-0.9-0.4-1.3    c0-0.5,0.6-3.5,0.6-3.5c0.2-1.1,1.2-2,2.2-2c1,0,1.5,0.9,1.3,2l-0.8,4.9h3.7l1.3-7.3c0.3-1.6-0.7-3-2.2-3H122.9z M133.1,378.1    l-4.4,26.9c-0.3,1.5,0.7,2.7,2.2,2.7h5.3c1.5,0,2.9-1.2,3.1-2.7l4.7-26.9h-3.3l-4.5,26.2c-0.1,0.4-0.4,0.7-0.8,0.7h-2.6    c-0.4,0-0.6-0.3-0.6-0.7l4.4-26.2H133.1z M145.7,378.1l-5.3,29.7h3.5l2.4-13.4h4.5c1.5,0,2.8-1.2,3.1-2.7l1.9-10.5    c0.3-1.6-0.7-3-2.2-3h-4.4H145.7z M158.3,378.1l-5.5,29.7h7.9l0.6-3.7h-3.9l1.6-10h3.9l0.6-3.1h-3.9l1.7-9.2h3.9l0.5-3.7H158.3z     M167.8,378.1l-5.3,29.7h3.5l2.4-13.4h2.5c0.3,0.3,0.4,0.9,0.4,1.2c0.1,0.4,0.1,1,0.1,1.4c0,0.4-1.9,10.8-1.9,10.8h3.5    c0,0,2-11.3,2-11.5c0-0.2,0-0.8-0.2-1.1c-0.1-0.2-0.4-0.7-0.6-0.8c-0.5-0.3-1-0.6-1-0.6h-0.2c1-0.4,2.9-1.1,3.1-2.2l1.9-10.5    c0.3-1.6-0.7-3-2.2-3H167.8z M186.6,378.1l-5.3,29.7h4l3.3-17.2l1.3,17.2h3.5l5.3-29.7h-4l-2.8,15.5l-1.8-15.5H186.6z     M200.6,378.1l-5.3,29.7h3.5l5.3-29.7H200.6z M206,378.1l-5.3,29.7h4.1l3.3-17.2l1.3,17.2h3.5l5.3-29.7h-4.1l-2.7,15.5l-1.8-15.5    H206z M219.6,378.1l-0.7,3.7h2.2l-4.3,26h4l4.4-26h2.1l0.6-3.7H219.6z M229.3,378.1l-5.5,29.7h7.9l0.6-3.7h-3.9l1.6-10h3.9    l0.6-3.1h-3.9l1.7-9.2h3.9l0.6-3.7H229.3z M238.3,378.1l-5.3,29.7h4.1l3.3-17.2l1.3,17.2h3.5l5.3-29.7h-4.1l-2.7,15.5l-1.8-15.5    H238.3z M252.3,378.1l-5.3,29.7h8c1.5,0,2.9-1.2,3.1-2.7l4.3-24c0.3-1.6-0.7-3-2.2-3H252.3z M267.4,378.1c-1.5,0-3,1.3-3.2,3    l-3.9,24c-0.3,1.5,0.7,2.7,2.1,2.7h5.8c1.5,0,2.9-1.2,3.1-2.7l4.3-24c0.3-1.6-0.7-3-2.2-3H267.4z M255.3,381.5h1.6    c1,0,1.7,0.9,1.6,2l-3.5,19.4c-0.2,1.1-1.2,2-2.2,2h-1.6L255.3,381.5z M269.5,381.5h0.1c1,0,1.7,0.9,1.5,2l-3.3,19.4    c-0.2,1.1-1.1,2-2.2,2c-1,0-1.5-0.9-1.3-2l3.3-19.4l0-0.1l0-0.1l0-0.1l0-0.1l0-0.1l0-0.1l0-0.1l0.1-0.1l0-0.1l0.1-0.1l0-0.1    l0.1-0.1l0.1-0.1l0.1-0.1l0.1-0.1l0.1-0.1l0.1-0.1l0.1-0.1l0.1-0.1l0.1-0.1l0.1-0.1l0.1-0.1l0.1,0l0.1-0.1l0.1,0l0.1,0l0.1,0h0.1    l0.1,0L269.5,381.5L269.5,381.5z M149.1,381.6h1.7c0.4,0,1.2,0.9,1.1,1.3l-1.5,7.3c-0.1,0.4-0.6,1.3-0.9,1.3h-2.1h0h0l0,0h0h0h0h0    v0h0h0l0,0h0l0,0l0,0h0v0l0,0l0,0v0l0,0l0,0v0v0l0,0v0v0l0,0v0c0,0,0-0.1,0-0.2l1.7-9C148.8,381.7,148.9,381.6,149.1,381.6z     M171.1,381.6L171.1,381.6L171.1,381.6L171.1,381.6h0.1h1.6c0.4,0,1.2,0.9,1.1,1.3l-1.5,7.3c-0.1,0.4-1,1.3-1.3,1.3h-1.5    c-0.3,0-0.5-0.2-0.6-0.5c0,0,0-0.1,0-0.2l1.6-9l0,0l0,0l0.1,0h0l0,0l0,0h0l0,0h0L171.1,381.6L171.1,381.6L171.1,381.6L171.1,381.6    L171.1,381.6L171.1,381.6L171.1,381.6z M115.1,410.3v9.7h157.1v-9.7H115.1z M230.6,411.3L230.6,411.3L230.6,411.3L230.6,411.3h0.1    h0h1.2c0.3,0,0.6,0.3,0.5,0.6l-0.3,1.6h-0.7l0.2-1.1c0-0.2-0.1-0.4-0.3-0.4c-0.2,0-0.5,0.2-0.5,0.4l-0.1,0.8c0,0,0,0.3,0.1,0.3    c0.1,0.1,1.1,1.8,1.1,1.9c0,0.1,0,0.1,0,0.1c0,0.2-0.3,1.7-0.3,1.7c-0.1,0.3-0.4,0.6-0.7,0.6h-1.2c-0.3,0-0.5-0.3-0.5-0.6l0.3-1.7    h0.8l-0.2,1.2c0,0.2,0.1,0.5,0.3,0.5c0.2,0,0.5-0.2,0.5-0.5l0.2-1c-0.1-0.4-1.1-1.9-1.2-2.2c0,0-0.1-0.3-0.1-0.4    c0-0.2,0.2-1.3,0.2-1.3h0v0v0v0l0-0.1v0l0,0v0l0,0v0l0,0l0,0v0h0l0,0l0,0l0,0v0h0l0,0l0,0h0l0,0h0l0,0L230.6,411.3L230.6,411.3    L230.6,411.3z M237,411.3h1l0.1,2.5l1.3-2.5h1l-2,3.8l-0.5,2.8h-0.9l0.4-3L237,411.3z M246,411.3L246,411.3L246,411.3L246,411.3    h0.1h0h1.2c0.3,0,0.6,0.3,0.5,0.6l-0.3,1.6h-0.7l0.2-1.1c0-0.2-0.1-0.4-0.3-0.4c-0.2,0-0.5,0.2-0.5,0.4l-0.1,0.8    c0,0,0,0.3,0.1,0.3c0.1,0.1,1.1,1.8,1.1,1.9c0,0.1,0,0.1,0,0.1c0,0.2-0.3,1.7-0.3,1.7c-0.1,0.3-0.4,0.6-0.7,0.6H245    c-0.3,0-0.5-0.3-0.5-0.6l0.3-1.7h0.8l-0.2,1.2c0,0.2,0.1,0.5,0.3,0.5c0.2,0,0.4-0.2,0.5-0.5l0.2-1c-0.2-0.4-1.1-1.9-1.2-2.2    c0,0-0.1-0.3-0.1-0.4c0-0.2,0.2-1.3,0.2-1.3l0,0v0v0l0-0.1v0l0,0v0l0,0v0l0,0l0,0v0h0l0,0l0,0l0,0l0,0l0,0l0,0h0l0,0h0l0,0    L246,411.3L246,411.3L246,411.3z M252.4,411.3h1.8l-0.1,0.8h-0.5l-1,5.8h-0.9l1-5.8h-0.5L252.4,411.3z M259.6,411.3h1.7l-0.1,0.8    h-0.9l-0.4,2.1h0.9l-0.1,0.7h-0.9l-0.4,2.2h0.9l-0.1,0.8h-1.8L259.6,411.3z M266.4,411.3h1l0.2,3.8l1.6-3.8l1,0l-1,6.6h-0.8    l0.5-3.5l-1.4,3.5h-0.6l-0.2-3.6l-0.6,3.6h-0.9L266.4,411.3z M118.5,411.6h1.6l-0.1,0.8h-0.9l-0.4,2h0.9l-0.1,0.7h-0.9l-0.3,2.2    h0.9l-0.1,0.8h-1.8L118.5,411.6z M126.1,411.6h0.8l0.4,3.4l0.6-3.4h0.9l-1.2,6.6h-0.8l-0.3-3.8l-0.7,3.8H125L126.1,411.6z     M134.4,411.6h1.8l-0.1,0.8h-0.5l-1,5.8h-0.9l1-5.8h-0.5L134.4,411.6z M142.4,411.6h1.7l-0.1,0.8h-0.9l-0.4,2h0.9l-0.1,0.7h-0.9    l-0.4,2.2h0.9l-0.1,0.8h-1.8L142.4,411.6z M150.2,411.6h1.8c0.3,0,0.5,0.3,0.5,0.7l-0.4,2.3c0,0.3-0.5,0.5-0.7,0.6h0.1h0h0v0h0h0    h0h0l0,0h0h0h0v0h0h0v0h0c0,0.1,0.1,0.3,0.1,0.3c0,0-0.4,2.6-0.4,2.6h-0.8c0,0,0.4-2.3,0.4-2.4c0-0.1,0-0.2,0-0.3    c0-0.1,0-0.2-0.1-0.3h-0.6l-0.5,3H149L150.2,411.6z M158,411.6h1.8l-0.1,0.8h-0.5l-1,5.8h-0.9l1-5.8h-0.5L158,411.6z M167.2,411.6    h1l-0.3,6.6h-1l0.1-1.5h-0.6l-0.5,1.5h-0.9L167.2,411.6z M174.5,411.6h0.8l-1.2,6.6h-0.8L174.5,411.6z M181.6,411.6h0.8l0.4,3.4    l0.6-3.4h0.9l-1.2,6.6h-0.8l-0.3-3.8l-0.7,3.8h-0.9L181.6,411.6z M190.7,411.6h1l0.2,3.8l1.6-3.8h1l-1,6.6h-0.8l0.5-3.5l-1.4,3.5    h-0.6l-0.2-3.6l-0.6,3.6h-0.9L190.7,411.6z M200.7,411.6h1.6l-0.1,0.8h-0.9l-0.4,2h0.9l-0.1,0.7h-0.9l-0.4,2.2h0.9l-0.1,0.8h-1.7    L200.7,411.6z M208.7,411.6h0.8l0.4,3.4l0.6-3.4h0.9l-1.2,6.6h-0.8l-0.3-3.8l-0.7,3.8h-0.9L208.7,411.6z M216.9,411.6h1.8    l-0.1,0.8h-0.5l-1,5.8h-0.9l1-5.8h-0.5L216.9,411.6z M150.9,412.4c0,0-0.1,0-0.1,0.1l-0.4,2c0,0,0,0,0,0c0,0.1,0,0.1,0.1,0.1h0.3    c0.1,0,0.3-0.2,0.3-0.3l0.3-1.6c0-0.1-0.1-0.3-0.2-0.3L150.9,412.4L150.9,412.4z M167.2,414.4l-0.6,1.7h0.4L167.2,414.4z"
         fill="#6C6C6C" /></g><g
       id="g45"><path
         d="M172,353.9h-5.2v-68.3h5.2V353.9z M167.8,352.9h3.2v-66.3h-3.2V352.9z"
         id="path47"
         fill="#808084" /></g><g
       id="g49"><path
         d="M443.2,352.9H438v-68.3h5.2V352.9z M439,351.9h3.2v-66.3H439V351.9z"
         id="path51"
         fill="#808084" /></g><rect
       x="88.1"
       y="284.1"
       width="436.5"
       height="4"
       id="rect53"
       fill="#555251" /><rect
       x="88.1"
       y="351.4"
       width="436.5"
       height="4"
       id="rect55"
       fill="#555251" /><g
       id="g57"><rect
         x="87.6"
         y="194.7"
         width="1"
         height="247.9"
         id="rect59"
         fill="#555251" /></g><g
       id="g61"><rect
         x="524.1"
         y="194.7"
         width="1"
         height="247.9"
         id="rect63"
         fill="#555251" /></g><g
       id="g65"><path
         d="M612.7,444.2H0V195.3h612.7V444.2z M1,443.2h610.8V196.3H1V443.2z"
         id="path67"
         fill="#555251" /></g><g
       id="g69"><path
         d="M250.6,721.8H98.9c-1.7,0-3.1-1.4-3.1-3.1v-275h158v275C253.7,720.4,252.3,721.8,250.6,721.8z"
         id="path71"
         fill="#CCCCCC" /><g
         id="g73"><g
           id="g75"><path
             d="M250.7,722.3H98.8c-1.9,0-3.5-1.6-3.5-3.6V443.2h158.9v275.5C254.2,720.7,252.7,722.3,250.7,722.3z       M96.3,444.2v274.5c0,1.4,1.1,2.6,2.5,2.6h151.9c1.4,0,2.5-1.2,2.5-2.6V444.2H96.3z"
             id="path77"
             fill="#555251" /></g></g></g><g
       id="g79"><g
         id="g81"><path
           d="M514.1,721.6H362.4c-1.7,0-3.1-1.4-3.1-3.1v-275h158v275C517.2,720.2,515.8,721.6,514.1,721.6z"
           id="path83"
           fill="#CCCCCC" /><g
           id="g85"><g
             id="g87"><path
               d="M514.2,722.1H362.3c-1.9,0-3.5-1.6-3.5-3.6V442.9h158.9v275.5C517.7,720.4,516.2,722.1,514.2,722.1z        M359.8,443.9v274.5c0,1.4,1.1,2.6,2.5,2.6h151.9c1.4,0,2.5-1.2,2.5-2.6V443.9H359.8z"
               id="path89"
               fill="#555251" /></g></g></g></g><rect
       x="254.5"
       y="488.9"
       width="103.6"
       height="182.8"
       id="rect91"
       fill="#686665" /><rect
       x="254.7"
       y="488.9"
       stroke-miterlimit="10"
       width="102.1"
       height="182.7"
       id="rect93"
       stroke-width="4"
       stroke="#5B5959"
       fill="none" /><g
       id="g95"><g
         id="g103" /><g
         id="g4290" /></g><g
       id="g119"><path
         d="M260.5,559.1H88.7c-3,0-5.5-2.5-5.5-5.5v-61c0-3,2.5-5.5,5.5-5.5h171.8c3,0,5.5,2.5,5.5,5.5v61    C266,556.6,263.5,559.1,260.5,559.1z"
         id="path121"
         fill="#32215F" /><rect
         x="88.1"
         y="491.2"
         width="172.7"
         height="1.2"
         id="rect123"
         fill="#544679" /><path
         d="M251,524.9H95.3v0c0-12.9,10.2-23.4,22.8-23.4h110.2C240.7,501.5,251,512,251,524.9z"
         id="path125"
         fill="#2A1C4F" /><path
         d="M251,524.9l-155.7,0c0,12.9,10.2,23.4,22.8,23.4h110.2C240.7,548.3,251,537.8,251,524.9L251,524.9z"
         id="path127"
         fill="#46386B" /><g
         id="g129"><path
           d="M156.9,524.7c-0.3,0.9-0.8,1.3-1.8,1.3h-3.7l-1.5,5h-2.3l4.1-13.7h6c0.9,0,1.3,0.4,1,1.3L156.9,524.7z      M154.7,524.2l1.6-5.2h-2.8l-1.6,5.2H154.7z"
           id="path131"
           fill="#FCFCFC" /><path
           d="M164.8,529.7c-0.2,0.8-0.8,1.3-1.8,1.3h-5c-0.9,0-1.2-0.4-1-1.3l3.3-11.2c0.3-0.8,0.8-1.3,1.7-1.3h5     c0.9,0,1.3,0.4,1,1.3L164.8,529.7z M162.6,529.2l3-10.2h-3.1l-3,10.2H162.6z"
           id="path133"
           fill="#FCFCFC" /><path
           d="M181.6,517.3l-6.3,13.7H173l1-7.8c0.1-0.3,0.2-0.7,0.3-1.3c-0.1,0.3-0.2,0.7-0.5,1.3l-3.7,7.8h-2.2     l1.9-13.7h2.3l-1.2,8.1c-0.1,0.3-0.2,0.7-0.3,1.3c0.1-0.3,0.2-0.7,0.5-1.3l3.8-8.1h1.9l-1.1,8.1c-0.1,0.3-0.2,0.7-0.3,1.3     c0.1-0.3,0.2-0.7,0.5-1.3l3.6-8.1H181.6z"
           id="path135"
           fill="#FCFCFC" /><path
           d="M185.1,531h-6.3l4.1-13.7h6.3l-0.5,1.8h-4l-1.2,4h3.4l-0.5,1.8h-3.4l-1.3,4.3h4.1L185.1,531z"
           id="path137"
           fill="#FCFCFC" /><path
           d="M194.5,531h-2.4l-0.6-6.4l0.4-1.2h2.2l1.3-4.3h-2.9l-3.6,12h-2.3l4.1-13.7h6.1c0.9,0,1.3,0.4,1,1.3     l-1.5,5c-0.2,0.6-0.5,1-1,1.1c-0.3,0.1-0.8,0.1-1.5,0.1L194.5,531z"
           id="path139"
           fill="#FCFCFC" /></g></g><g
       id="g141"><path
         d="M295.2,661.3h-4.1l3.4-12.5h4.1l-0.3,1h-3l-1.3,4.7h2.7l-0.3,1h-2.7l-1.3,4.9h3L295.2,661.3z"
         id="path143"
         fill="#4E4E51" /><path
         d="M301.6,660.4c-0.1,0.3-0.2,0.5-0.4,0.6c-0.2,0.2-0.4,0.2-0.7,0.2h-2.9c-0.3,0-0.5-0.1-0.6-0.2    c-0.1-0.2-0.1-0.4-0.1-0.6l0.9-3.2h1.1l-0.8,3.1h2.5l3.1-11.5h1.1L301.6,660.4z"
         id="path145"
         fill="#4E4E51" /><path
         d="M307.5,661.3h-4.1l3.4-12.5h4.1l-0.3,1h-3l-1.3,4.7h2.7l-0.3,1h-2.7l-1.3,4.9h3L307.5,661.3z"
         id="path147"
         fill="#4E4E51" /><path
         d="M314.5,660.4c-0.1,0.3-0.2,0.5-0.4,0.6c-0.2,0.2-0.5,0.2-0.7,0.2h-3.2c-0.3,0-0.5-0.1-0.6-0.2    c-0.1-0.2-0.1-0.4-0.1-0.6l2.9-10.8c0.1-0.3,0.2-0.5,0.4-0.6c0.2-0.2,0.4-0.2,0.7-0.2h3.2c0.3,0,0.5,0.1,0.6,0.2    c0.1,0.2,0.2,0.4,0.1,0.6l-0.8,2.9h-1.1l0.8-2.8h-2.8l-2.8,10.6h2.8l0.8-3.1h1.1L314.5,660.4z"
         id="path149"
         fill="#4E4E51" /><path
         d="M323.6,649.7h-1.9l-3.1,11.5h-1.1l3.1-11.5h-2l0.3-1h5L323.6,649.7z"
         id="path151"
         fill="#4E4E51" /></g></g><path
     inkscape:connector-curvature="0"
     style="fill:#32215f"
     id="path97"
     d="m 524.06794,558.68167 -171.8,0 c -3,0 -5.5,-2.5 -5.5,-5.5 l 0,-61 c 0,-3 2.5,-5.5 5.5,-5.5 l 171.8,0 c 3,0 5.5,2.5 5.5,5.5 l 0,61 c 0,3.1 -2.5,5.5 -5.5,5.5 z" /><path
     inkscape:connector-curvature="0"
     style="fill:#2a1c4f"
     id="path99"
     d="m 514.56794,524.58167 -155.7,0 0,0 c 0,-12.9 10.2,-23.4 22.8,-23.4 l 110.2,0 c 12.4,0 22.7,10.5 22.7,23.4 z" /><path
     inkscape:connector-curvature="0"
     style="fill:#46386b"
     id="path101"
     d="m 514.56794,524.58167 -155.7,0 c 0,12.9 10.2,23.4 22.8,23.4 l 110.2,0 c 12.4,0 22.7,-10.5 22.7,-23.4 l 0,0 z" /><path
     inkscape:connector-curvature="0"
     id="path105"
     d="m 423.16794,528.78167 -2.4,0 -0.6,-6.4 0.4,-1.2 2.2,0 1.3,-4.3 -2.9,0 -3.6,12 -2.3,0 4.1,-13.7 6.1,0 c 0.9,0 1.3,0.4 1,1.3 l -1.5,5 c -0.2,0.6 -0.5,1 -1,1.1 -0.3,0.1 -0.8,0.1 -1.5,0.1 l 0.7,6.1 z"
     style="fill:#fcfcfc" /><path
     inkscape:connector-curvature="0"
     id="path107"
     d="m 430.86794,528.78167 -6.3,0 4.1,-13.7 6.3,0 -0.5,1.8 -4,0 -1.2,4 3.4,0 -0.5,1.8 -3.4,0 -1.3,4.3 4.1,0 -0.7,1.8 z"
     style="fill:#fcfcfc" /><path
     inkscape:connector-curvature="0"
     id="path109"
     d="m 440.16794,527.48167 c -0.2,0.8 -0.8,1.3 -1.8,1.3 l -4.6,0 c -0.9,0 -1.3,-0.4 -1,-1.3 l 1,-3.3 2.3,0 -0.8,2.8 2.8,0 0.8,-2.7 -3.4,-3.9 c -0.2,-0.3 -0.3,-0.7 -0.2,-1.1 l 0.9,-3.1 c 0.3,-0.8 0.8,-1.3 1.8,-1.3 l 4.6,0 c 0.9,0 1.3,0.4 1,1.2 l -0.9,3.1 -2.3,0 0.8,-2.6 -2.8,0 -0.7,2.5 3.4,3.9 c 0.2,0.3 0.3,0.7 0.2,1.1 l -1.1,3.4 z"
     style="fill:#fcfcfc" /><path
     inkscape:connector-curvature="0"
     id="path111"
     d="m 447.96794,528.78167 -6.3,0 4.1,-13.7 6.3,0 -0.5,1.8 -4,0 -1.2,4 3.4,0 -0.5,1.8 -3.4,0 -1.3,4.3 4.1,0 -0.7,1.8 z"
     style="fill:#fcfcfc" /><path
     inkscape:connector-curvature="0"
     id="path113"
     d="m 459.66794,516.88167 -2.5,0 -3.6,11.9 -2.3,0 3.6,-11.9 -2.5,0 0.5,-1.8 7.3,0 -0.5,1.8 z"
     style="fill:#fcfcfc" /><polygon
     transform="translate(-0.13206062,-11.818333)"
     style="fill:#fcfcfc"
     id="polygon115"
     points="462.2,540.6 469.1,540.6 465.6,526.9 " /><rect
     style="fill:#544679"
     id="rect117"
     height="1.2"
     width="172.7"
     y="490.18167"
     x="351.76794" /></svg>