<?xml version="1.0" encoding="UTF-8" standalone="no"?>
<svg
   xmlns:dc="http://purl.org/dc/elements/1.1/"
   xmlns:cc="http://creativecommons.org/ns#"
   xmlns:rdf="http://www.w3.org/1999/02/22-rdf-syntax-ns#"
   xmlns:svg="http://www.w3.org/2000/svg"
   xmlns="http://www.w3.org/2000/svg"
   xmlns:sodipodi="http://sodipodi.sourceforge.net/DTD/sodipodi-0.dtd"
   xmlns:inkscape="http://www.inkscape.org/namespaces/inkscape"
   viewBox="0 0 204.06625 229.99875"
   height="229.99875"
   width="204.06625"
   xml:space="preserve"
   version="1.1"
   id="svg2"
   inkscape:version="0.91 r13725"
   sodipodi:docname="game.svg"><sodipodi:namedview
     pagecolor="#ffffff"
     bordercolor="#666666"
     borderopacity="1"
     objecttolerance="10"
     gridtolerance="10"
     guidetolerance="10"
     inkscape:pageopacity="0"
     inkscape:pageshadow="2"
     inkscape:window-width="1920"
     inkscape:window-height="1027"
     id="namedview46"
     showgrid="false"
     inkscape:zoom="2.902228"
     inkscape:cx="39.150407"
     inkscape:cy="128.78189"
     inkscape:window-x="-8"
     inkscape:window-y="-8"
     inkscape:window-maximized="1"
     inkscape:current-layer="svg2" /><metadata
     id="metadata8"><rdf:RDF><cc:Work
         rdf:about=""><dc:format>image/svg+xml</dc:format><dc:type
           rdf:resource="http://purl.org/dc/dcmitype/StillImage" /><dc:title /></cc:Work></rdf:RDF></metadata><defs
     id="defs6"><clipPath
       id="clipPath26"
       clipPathUnits="userSpaceOnUse"><path
         id="path28"
         d="m 0,183.999 163.253,0 L 163.253,0 0,0 0,183.999 Z" /></clipPath></defs><g
     transform="matrix(1.25,0,0,-1.25,0,229.99875)"
     id="g10"><g
       transform="translate(157.2912,183.9996)"
       id="g12"><path
         id="path14"
         style="fill:#bcbcbc;fill-opacity:1;fill-rule:nonzero;stroke:none"
         d="m 0,0 0,-2.327 -9.016,0 0,2.327 -87.249,0 0,-2.327 -35.982,0 0,2.327 -10.147,0 0,-2.327 -8.952,0 0,2.327 -5.945,0 0,-150.166 8.482,0 0,-33.834 145.319,0 0,33.398 9.452,0 L 5.962,0 0,0 Z" /></g><path
       id="path16"
       style="fill:#a3a3a3;fill-opacity:1;fill-rule:nonzero;stroke:none"
       d="m 5.945,181.673 8.951,0 0,0.921 -8.951,0 0,-0.921 z" /><path
       id="path18"
       style="fill:#a3a3a3;fill-opacity:1;fill-rule:nonzero;stroke:none"
       d="m 148.275,181.673 9.016,0 0,0.921 -9.016,0 0,-0.921 z" /><path
       id="path20"
       style="fill:#a3a3a3;fill-opacity:1;fill-rule:nonzero;stroke:none"
       d="m 25.044,0 35.982,0 0,181.673 -35.982,0 0,-181.673 z" /><g
       id="g22"><g
         clip-path="url(#clipPath26)"
         id="g24"><g
           transform="translate(61.0263,181.6728)"
           id="g30"><path
             id="path32"
             style="fill:#848484;fill-opacity:1;fill-rule:nonzero;stroke:none"
             d="m 0,0 -35.982,0 0,-20.423 c 0,-0.857 0.694,-1.551 1.551,-1.551 l 32.879,0 c 0.858,0 1.552,0.694 1.552,1.551 L 0,0 Z" /></g><g
           transform="translate(25.3346,0)"
           id="g34"><path
             id="path36"
             style="fill:#bcbcbc;fill-opacity:1;fill-rule:nonzero;stroke:none"
             d="m 0,0 35.4,0 0,17.515 c 0,0.856 -0.683,1.551 -1.525,1.551 l -32.349,0 C 0.683,19.066 0,18.371 0,17.515 L 0,0 Z" /></g><path
           id="path38"
           style="fill:#bcbcbc;fill-opacity:1;fill-rule:nonzero;stroke:none"
           d="m 60.202,22.298 -34.415,0 0,3.296 34.415,0 0,-3.296 z" /><path
           id="path40"
           style="fill:#bcbcbc;fill-opacity:1;fill-rule:nonzero;stroke:none"
           d="m 60.202,29.213 -34.415,0 0,3.296 34.415,0 0,-3.296 z" /><path
           id="path42"
           style="fill:#bcbcbc;fill-opacity:1;fill-rule:nonzero;stroke:none"
           d="m 60.202,36.128 -34.415,0 0,3.296 34.415,0 0,-3.296 z" /><path
           id="path44"
           style="fill:#bcbcbc;fill-opacity:1;fill-rule:nonzero;stroke:none"
           d="m 60.202,43.043 -34.415,0 0,3.296 34.415,0 0,-3.296 z" /><path
           id="path46"
           style="fill:#bcbcbc;fill-opacity:1;fill-rule:nonzero;stroke:none"
           d="m 60.202,49.959 -34.415,0 0,3.296 34.415,0 0,-3.296 z" /><path
           id="path48"
           style="fill:#bcbcbc;fill-opacity:1;fill-rule:nonzero;stroke:none"
           d="m 60.202,56.874 -34.415,0 0,3.296 34.415,0 0,-3.296 z" /><path
           id="path50"
           style="fill:#bcbcbc;fill-opacity:1;fill-rule:nonzero;stroke:none"
           d="m 60.202,63.79 -34.415,0 0,3.296 34.415,0 0,-3.296 z" /><path
           id="path52"
           style="fill:#bcbcbc;fill-opacity:1;fill-rule:nonzero;stroke:none"
           d="m 60.202,70.705 -34.415,0 0,3.296 34.415,0 0,-3.296 z" /><path
           id="path54"
           style="fill:#bcbcbc;fill-opacity:1;fill-rule:nonzero;stroke:none"
           d="m 60.202,77.62 -34.415,0 0,3.296 34.415,0 0,-3.296 z" /><path
           id="path56"
           style="fill:#bcbcbc;fill-opacity:1;fill-rule:nonzero;stroke:none"
           d="m 60.202,84.535 -34.415,0 0,3.297 34.415,0 0,-3.297 z" /><path
           id="path58"
           style="fill:#bcbcbc;fill-opacity:1;fill-rule:nonzero;stroke:none"
           d="m 60.202,91.451 -34.415,0 0,3.296 34.415,0 0,-3.296 z" /><path
           id="path60"
           style="fill:#bcbcbc;fill-opacity:1;fill-rule:nonzero;stroke:none"
           d="m 60.202,98.367 -34.415,0 0,3.296 34.415,0 0,-3.296 z" /><path
           id="path62"
           style="fill:#bcbcbc;fill-opacity:1;fill-rule:nonzero;stroke:none"
           d="m 60.202,105.282 -34.415,0 0,3.296 34.415,0 0,-3.296 z" /><path
           id="path64"
           style="fill:#bcbcbc;fill-opacity:1;fill-rule:nonzero;stroke:none"
           d="m 60.202,112.197 -34.415,0 0,3.296 34.415,0 0,-3.296 z" /><path
           id="path66"
           style="fill:#bcbcbc;fill-opacity:1;fill-rule:nonzero;stroke:none"
           d="m 60.202,119.112 -34.415,0 0,3.296 34.415,0 0,-3.296 z" /><path
           id="path68"
           style="fill:#bcbcbc;fill-opacity:1;fill-rule:nonzero;stroke:none"
           d="m 60.202,126.028 -34.415,0 0,3.297 34.415,0 0,-3.297 z" /><path
           id="path70"
           style="fill:#bcbcbc;fill-opacity:1;fill-rule:nonzero;stroke:none"
           d="m 60.202,132.943 -34.415,0 0,3.296 34.415,0 0,-3.296 z" /><path
           id="path72"
           style="fill:#bcbcbc;fill-opacity:1;fill-rule:nonzero;stroke:none"
           d="m 60.202,139.859 -34.415,0 0,3.296 34.415,0 0,-3.296 z" /><path
           id="path74"
           style="fill:#bcbcbc;fill-opacity:1;fill-rule:nonzero;stroke:none"
           d="m 60.202,146.775 -34.415,0 0,3.296 34.415,0 0,-3.296 z" /><path
           id="path76"
           style="fill:#bcbcbc;fill-opacity:1;fill-rule:nonzero;stroke:none"
           d="m 60.202,153.69 -34.415,0 0,3.296 34.415,0 0,-3.296 z" /><g
           transform="translate(64.3701,183.9993)"
           id="g78"><path
             id="path80"
             style="fill:#1a1a1a;fill-opacity:1;fill-rule:nonzero;stroke:none"
             d="m 0,0 0,-123.926 c 0,-0.857 0.695,-1.551 1.552,-1.551 l 75.616,0 c 0.857,0 1.552,0.694 1.552,1.551 L 78.72,0 0,0 Z" /></g><g
           transform="translate(73.5804,47.6642)"
           id="g82"><path
             id="path84"
             style="fill:#a3a3a3;fill-opacity:1;fill-rule:nonzero;stroke:none"
             d="M 0,0 14.769,0 7.384,-12.797 0,0 Z" /></g><path
           id="path86"
           style="fill:#a3a3a3;fill-opacity:1;fill-rule:nonzero;stroke:none"
           d="m 60.202,160.605 -34.415,0 0,3.296 34.415,0 0,-3.296 z" /><path
           id="path88"
           style="fill:#a3a3a3;fill-opacity:1;fill-rule:nonzero;stroke:none"
           d="m 60.202,167.52 -34.415,0 0,3.296 34.415,0 0,-3.296 z" /><path
           id="path90"
           style="fill:#a3a3a3;fill-opacity:1;fill-rule:nonzero;stroke:none"
           d="m 60.202,174.436 -34.415,0 0,3.296 34.415,0 0,-3.296 z" /></g></g></g><path
     inkscape:connector-curvature="0"
     style="fill:#ffffff"
     d="m 157.53983,131.07985 c 6.13686,0 11.11206,3.4656 11.11206,7.73929 0,4.27448 -4.9752,7.74009 -11.11206,7.74009 -6.13686,0 -11.11206,-3.46552 -11.11206,-7.74001 0,-4.27369 4.9752,-7.73937 11.11206,-7.73937 z"
     id="path3" /><g
     transform="matrix(0.08072689,0,0,0.08072689,143.80415,128.30656)"
     id="g5"><g
       id="g7"><path
         style="fill:#a58252"
         inkscape:connector-curvature="0"
         d="m 140.531,186.856 4.25,0 0,0.224 c 0,1.331 0.414,2.346 1.244,3.043 0.828,0.696 2.035,1.046 3.619,1.046 1.223,0 2.164,-0.253 2.828,-0.757 0.664,-0.506 0.996,-1.222 0.996,-2.146 0,-0.775 -0.219,-1.349 -0.654,-1.716 -0.434,-0.366 -1.314,-0.646 -2.637,-0.837 l -2.951,-0.413 c -2.16,-0.317 -3.748,-1.012 -4.766,-2.084 -1.016,-1.069 -1.523,-2.582 -1.523,-4.532 0,-2.313 0.732,-4.194 2.199,-5.647 1.465,-1.453 3.406,-2.181 5.822,-2.181 2.594,0 4.625,0.687 6.09,2.057 1.467,1.371 2.201,3.247 2.201,5.627 l 0,0.191 -4.156,0 c -0.098,-1.183 -0.484,-2.065 -1.162,-2.651 -0.676,-0.586 -1.646,-0.879 -2.91,-0.879 -1.166,0 -2.07,0.237 -2.715,0.71 -0.643,0.473 -0.963,1.14 -0.963,2.001 0,0.69 0.188,1.196 0.566,1.515 0.377,0.319 1.307,0.596 2.787,0.829 l 3.084,0.46 c 2.137,0.33 3.707,1.053 4.711,2.172 1.004,1.119 1.508,2.697 1.508,4.732 0,2.621 -0.754,4.611 -2.26,5.975 -1.506,1.364 -3.707,2.045 -6.605,2.045 -2.764,0 -4.889,-0.718 -6.375,-2.151 -1.486,-1.435 -2.229,-3.479 -2.229,-6.136 l 0,-0.496 0.001,0 z"
         id="path9" /><path
         style="fill:#a58252"
         inkscape:connector-curvature="0"
         d="m 174.637,189.294 c -0.511,2.023 -1.396,3.587 -2.656,4.689 -1.259,1.103 -2.794,1.654 -4.602,1.654 -2.297,0 -4.113,-0.848 -5.453,-2.539 -1.338,-1.692 -2.008,-3.986 -2.008,-6.885 0,-2.896 0.668,-5.186 2.004,-6.867 1.336,-1.681 3.156,-2.521 5.459,-2.521 2.395,0 4.238,0.872 5.533,2.615 1.295,1.744 1.941,4.228 1.941,7.449 l 0,0.748 -10.625,0 c 0.023,1.288 0.318,2.313 0.887,3.075 0.569,0.763 1.318,1.144 2.252,1.144 0.73,0 1.357,-0.224 1.885,-0.67 0.527,-0.444 0.906,-1.076 1.141,-1.894 l 4.242,0.002 0,0 z m -10.282,-5.313 6.219,0.017 c -0.068,-1.093 -0.379,-1.951 -0.936,-2.578 -0.555,-0.625 -1.279,-0.938 -2.174,-0.938 -0.887,0 -1.609,0.315 -2.168,0.946 -0.56,0.632 -0.872,1.482 -0.941,2.553 z"
         id="path11" /><path
         style="fill:#a58252"
         inkscape:connector-curvature="0"
         d="m 191.16,192.188 c 0,0.688 0.045,1.213 0.137,1.578 0.092,0.365 0.244,0.648 0.457,0.85 l 0,0.396 -4.244,0 -0.191,-1.92 c -0.668,0.87 -1.422,1.511 -2.262,1.925 -0.84,0.414 -1.813,0.62 -2.914,0.62 -1.711,0 -3.057,-0.524 -4.039,-1.575 -0.981,-1.051 -1.475,-2.473 -1.475,-4.266 0,-1.665 0.443,-2.909 1.328,-3.73 0.885,-0.822 2.404,-1.36 4.557,-1.615 0.285,-0.031 0.682,-0.068 1.193,-0.11 2.475,-0.244 3.713,-0.921 3.713,-2.03 0,-0.666 -0.238,-1.164 -0.715,-1.492 -0.477,-0.327 -1.189,-0.491 -2.141,-0.491 -0.959,0 -1.664,0.233 -2.113,0.702 -0.449,0.47 -0.682,1.203 -0.697,2.203 l -4.031,0.017 0,-0.063 c 0,-2.065 0.604,-3.643 1.813,-4.729 1.207,-1.086 2.955,-1.63 5.243,-1.63 1.125,0 2.121,0.157 2.988,0.47 0.865,0.313 1.592,0.775 2.178,1.393 0.441,0.478 0.757,1.078 0.939,1.806 0.184,0.727 0.275,1.825 0.275,3.301 l 0,8.39 0.001,0 z m -3.752,-5.643 c -0.48,0.371 -1.396,0.651 -2.752,0.842 -0.164,0.031 -0.289,0.054 -0.371,0.063 -1.445,0.213 -2.357,0.474 -2.74,0.781 -0.381,0.31 -0.572,0.787 -0.572,1.437 0,0.683 0.189,1.228 0.566,1.638 0.379,0.409 0.883,0.613 1.512,0.613 1.303,0 2.359,-0.439 3.172,-1.322 0.813,-0.884 1.219,-2.031 1.219,-3.445 0,-0.17 -0.002,-0.297 -0.006,-0.383 -0.004,-0.084 -0.015,-0.161 -0.028,-0.224 z"
         id="path13" /><path
         style="fill:#a58252"
         inkscape:connector-curvature="0"
         d="m 194.582,195.013 0,-23.531 3.813,0 0,23.531 -3.813,0 z"
         id="path15" /></g></g><path
     inkscape:connector-curvature="0"
     style="fill:#a58252"
     d="m 169.97581,138.82478 1.32876,1.42322 -1.89878,1.13987 0.53361,2.20384 -2.0432,0.0565 -0.14046,2.39993 -2.27731,-0.62725 -0.38426,2.26519 -2.10778,-0.83713 -1.09869,1.99718 -1.64603,-1.42402 -1.43532,2.02374 -1.58063,-1.71779 -1.72756,1.60397 -1.12775,-1.88893 -2.03674,1.19879 -0.70394,-2.11504 -2.35803,0.92925 -0.34713,-2.08518 -2.10939,0.13158 0.31564,-2.12311 -2.15782,-0.009 0.50454,-2.31847 -1.67339,-0.94047 1.33199,-1.51282 -1.19556,-2.10375 1.94471,-0.61514 -0.51181,-2.25066 2.1328,-0.0283 0.24703,-2.2321 1.92937,0.64017 0.63855,-2.17559 1.94875,1.05429 0.80646,-1.92453 1.688,1.17296 1.18588,-1.82927 1.59435,1.59355 1.40869,-1.45712 1.23512,1.83653 1.92937,-1.23996 0.76521,2.02705 1.93914,-0.91786 0.49889,2.11505 2.2983,-0.40929 -0.0702,2.06983 2.32259,0.25026 -0.65792,1.9996 2.02309,0.86701 -1.26111,1.78325 z m -1.32392,-0.005 c 0,-4.27369 -4.9752,-7.73929 -11.11206,-7.73929 -6.13686,0 -11.11206,3.4656 -11.11206,7.73929 0,4.27448 4.9752,7.74009 11.11206,7.74009 6.13686,0 11.11206,-3.46561 11.11206,-7.74009 z"
     id="path17" /><g
     transform="matrix(0.08072689,0,0,0.08072689,143.80415,128.30656)"
     id="g19"><g
       id="g21"><path
         style="fill:#a58252"
         inkscape:connector-curvature="0"
         d="m 124.572,80.886 c 0,-6.363 3.613,-7.944 6.178,-7.944 2.566,0 6.174,1.581 6.174,7.944 0,6.366 -3.607,7.95 -6.174,7.95 -2.564,0 -6.178,-1.584 -6.178,-7.95 l 0,0 z m -4.736,0 c 0,10.662 7.904,11.958 10.914,11.958 3.01,0 10.912,-1.296 10.912,-11.958 0,-10.658 -7.902,-11.953 -10.912,-11.953 -3.01,0 -10.914,1.295 -10.914,11.953 l 0,0 z"
         id="path23" /><path
         style="fill:#a58252"
         inkscape:connector-curvature="0"
         d="m 149.611,92.246 -4.434,0 0,-13.647 -2.436,0 0,-3.174 2.436,0 0,-1.369 c 0,-3.493 1.9,-4.823 4.939,-4.823 1.297,0 1.898,0.033 2.277,0.063 l 0,3.575 -1.234,0 c -1.518,0 -1.549,0.48 -1.549,1.885 l 0,0.669 2.879,0 0,3.174 -2.879,0 10e-4,13.647 0,0 z"
         id="path25" /><path
         style="fill:#a58252"
         inkscape:connector-curvature="0"
         d="m 159.514,92.246 -4.432,0 0,-13.647 -2.438,0 0,-3.174 2.438,0 0,-1.369 c 0,-3.493 1.898,-4.823 4.939,-4.823 1.295,0 1.898,0.033 2.275,0.063 l 0,3.575 -1.234,0 c -1.518,0 -1.549,0.48 -1.549,1.885 l 0,0.669 2.877,0 0,3.174 -2.877,0 0.001,13.647 0,0 z"
         id="path27" /><path
         style="fill:#a58252"
         inkscape:connector-curvature="0"
         d="m 168.85,75.423 0,16.823 -4.428,0 0,-16.823 4.428,0 0,0 z m 0,-2.023 -4.428,0 0,-4.104 4.428,0 0,4.104 0,0 z"
         id="path29" /><path
         style="fill:#a58252"
         inkscape:connector-curvature="0"
         d="m 186.953,86.106 c -0.16,1.731 -1.521,6.57 -7.701,6.57 -6.336,0 -7.795,-4.839 -7.795,-8.364 0,-5.423 2.377,-9.316 8.082,-9.316 2.66,0 7.031,1.204 7.443,6.446 l -4.496,0 c -0.193,-1.104 -0.889,-2.839 -2.947,-2.712 -2.789,0 -3.518,2.776 -3.518,4.856 0,1.825 0.063,5.452 3.42,5.452 2.252,0 3.012,-2.145 3.012,-2.933 l 4.5,10e-4 0,0 z"
         id="path31" /><path
         style="fill:#a58252"
         inkscape:connector-curvature="0"
         d="m 193.973,75.423 0,16.823 -4.435,0 0,-16.823 4.435,0 0,0 z m 0,-2.023 -4.435,0 0,-4.104 4.435,0 0,4.104 0,0 z"
         id="path33" /><path
         style="fill:#a58252"
         inkscape:connector-curvature="0"
         d="m 206.875,86.216 c 0,2.026 -1.988,3.287 -3.947,3.287 -0.854,0 -2.053,-0.475 -2.053,-2.018 0,-1.827 1.359,-2.237 3.002,-2.521 1.832,-0.284 2.555,-0.567 2.998,-0.914 l 0,2.166 0,0 z m 4.333,-6.353 c 0,-4.145 -4.334,-4.873 -6.703,-4.873 -3.44,0 -7.021,0.729 -7.522,5.887 l 4.272,0 c 0.125,-0.983 0.504,-2.341 2.716,-2.341 1.135,0 2.903,0.095 2.903,1.961 0,0.945 -0.853,1.229 -1.549,1.326 l -3.979,0.601 c -2.813,0.41 -4.904,2.086 -4.904,5.37 0,3.454 2.597,4.883 5.129,4.883 2.998,0 4.421,-1.396 5.431,-2.445 0.097,0.972 0.158,1.229 0.412,2.015 l 4.776,0 0,-0.659 c -0.539,-0.191 -0.981,-0.633 -0.981,-2.625 l 0,-9.1 -0.001,0 z"
         id="path35" /><polygon
         style="fill:#a58252"
         points="219.089,92.246 214.66,92.246 214.66,69.527 219.089,69.527 "
         id="polygon37" /></g></g><path
     inkscape:connector-curvature="0"
     style="fill:#a58252"
     d="m 157.53959,145.91834 c 5.74169,0 10.41271,-3.18444 10.41271,-7.09888 0,-3.91429 -4.67085,-7.09896 -10.41271,-7.09896 -5.74146,0 -10.41256,3.1846 -10.41256,7.09896 0,3.91444 4.6711,7.09888 10.41256,7.09888 l 0,0 z m -10.15642,-7.0988 c 0,-3.77309 4.55615,-6.84297 10.1565,-6.84297 5.60042,0 10.15665,3.0698 10.15665,6.84297 0,3.77318 -4.55614,6.84281 -10.15665,6.84281 -5.60035,-7e-5 -10.1565,-3.06963 -10.1565,-6.84281 l 0,0 z"
     id="path39" /><g
     transform="matrix(0.08072689,0,0,0.08072689,143.80415,128.30656)"
     id="g41"><g
       id="g43"><path
         style="fill:#a58252"
         inkscape:connector-curvature="0"
         d="m 251.273,159.819 c 15.065,0 27.328,-12.26 27.328,-27.328 0,-15.068 -12.263,-27.328 -27.328,-27.328 l -163.621,0 c -15.068,0 -27.328,12.26 -27.328,27.328 0,15.068 12.26,27.328 27.328,27.328 l 163.621,0 0,0 z M 87.652,152.722 c -11.154,0 -20.23,-9.076 -20.23,-20.229 0,-11.154 9.076,-20.23 20.23,-20.23 l 163.622,0 c 11.153,0 20.229,9.076 20.229,20.23 0,11.153 -9.074,20.229 -20.229,20.229 l -163.622,0 0,0 z"
         id="path45" /><path
         style="fill:#a58252"
         inkscape:connector-curvature="0"
         d="m 80.644,145.536 0,-25.733 8.042,-0.004 10.733,16.685 0.034,-16.681 8.345,0 -0.004,25.733 c 0,0 -5.556,0 -8.341,0 -0.723,-1.579 -10.336,-16.595 -10.336,-16.595 l 0,16.596 -8.473,-0.001 0,0 z"
         id="path47" /><path
         style="fill:#a58252"
         inkscape:connector-curvature="0"
         d="m 131.396,128.347 c 0.267,0.328 0.711,0.683 0.908,0.844 0.779,-0.516 1.403,-0.986 2.244,-1.272 6.342,-2.172 9.636,1.48 10.277,2.073 2.896,2.678 2.01,9.952 2.187,15.545 0.092,0 -8.43,0 -8.43,0 0,0 0.141,-10.474 0.019,-11.896 -0.104,-1.238 -1.879,-2.747 -2.914,-2.789 -1.744,-0.068 -3.902,0.833 -3.997,2.802 -0.191,4.002 0.063,11.882 0.063,11.882 l -8.256,0 0,-17.216 7.899,0.027 0,0 z"
         id="path49" /><polygon
         style="fill:#a58252"
         points="151.008,145.536 151.012,128.671 147.278,128.671 147.28,126.368 151.008,126.372 151.003,123.921 159.261,123.921 159.253,126.363 163.196,126.368 163.166,128.679 159.261,128.675 159.26,145.536 "
         id="polygon51" /><path
         style="fill:#a58252"
         inkscape:connector-curvature="0"
         d="m 162.515,136.89 c -0.151,-5.64 5.087,-9.189 9.524,-9.42 2.1,-0.105 4.26,-0.272 6.154,0.614 1.199,0.566 2.576,0.752 3.565,1.693 1.964,1.859 3.229,4.222 3.229,7.24 l -14.106,-0.045 c 0,2.217 -1.241,7.276 2.63,7.36 1.479,0.034 2.314,-0.233 2.857,-1.503 0.402,-0.945 0.41,-2.063 0.322,-3.15 1.422,0.086 7.41,-0.089 8.139,-0.063 -1.615,4.498 -6.494,6.451 -11.199,6.451 -1.95,0 -10.894,-0.889 -11.115,-9.177 l 0,0 z m 8.366,-2.696 5.686,-0.021 c -0.004,-0.973 -0.004,-1.505 -0.113,-2.3 -0.145,-1.066 -1,-2.577 -2.787,-2.503 -2.426,0.103 -2.783,1.479 -2.785,2.984 -0.004,0.659 0.001,1.334 -0.001,1.84 l 0,0 z"
         id="path53" /><path
         style="fill:#a58252"
         inkscape:connector-curvature="0"
         d="m 239.305,140.562 c -1.476,-1.946 -1.697,-5.766 -0.318,-8.602 1.203,-2.475 4.313,-4.299 5.945,-4.828 2.215,-0.718 5.817,-0.917 8.846,-0.189 2.244,0.536 5.037,1.867 6.762,5.012 1.354,2.469 1.115,6.526 -0.41,8.616 -0.98,1.343 -3.156,3.668 -5.588,4.313 -2.115,0.563 -6.465,0.874 -8.766,0.156 -2.517,-0.784 -4.456,-1.812 -6.471,-4.478 l 0,0 z m 10.525,2.96 c 2.332,0.017 2.863,-1.804 2.906,-2.953 0.094,-2.619 -0.055,-5.869 -0.049,-8.615 0.006,-1.414 -0.795,-3.279 -2.912,-3.279 -3.043,-0.002 -2.935,2.384 -2.967,3.279 -0.063,1.512 -0.063,6.66 -0.031,8.607 0.012,0.652 0.323,2.949 3.053,2.961 l 0,0 z"
         id="path55" /><path
         style="fill:#a58252"
         inkscape:connector-curvature="0"
         d="m 235.3,145.532 c 0,0.004 -7.452,0.004 -7.424,0.002 -0.028,0.002 -0.17,-0.996 -0.17,-0.996 -2.078,1.618 -10.418,2.415 -13.64,-4.373 -0.287,-0.604 -1.127,-5.014 0.086,-7.723 1.966,-4.395 6.507,-5.364 9.74,-5.174 1.295,0.074 3.781,1.41 3.781,1.41 l 0.016,-9.411 7.609,0.004 c 0.002,0 0.093,26.265 0.002,26.261 l 0,0 z m -7.748,-4.322 c 0.24,-0.757 0.117,-5.688 0.117,-8.1 0,-0.666 -0.53,-1.773 -0.657,-1.929 -0.63,-0.771 -1.115,-1.175 -2.382,-1.119 -1.618,0.067 -2.551,1.496 -2.621,2.406 -0.192,2.416 -0.327,4.896 0.052,7.977 0.086,0.731 0.424,1.425 1.092,1.898 1.809,1.284 3.938,0.306 4.399,-1.133 l 0,0 z"
         id="path57" /><polygon
         style="fill:#a58252"
         points="119.772,145.536 119.772,128.144 111.256,128.144 111.256,145.536 "
         id="polygon59" /><polygon
         style="fill:#a58252"
         points="119.772,125.215 119.772,119.803 111.256,119.803 111.256,125.215 "
         id="polygon61" /><path
         style="fill:#a58252"
         inkscape:connector-curvature="0"
         d="m 195.816,128.211 c 0.266,0.331 0.711,0.686 0.908,0.848 0.776,-0.517 1.401,-0.985 2.243,-1.276 6.345,-2.167 9.636,1.482 10.277,2.074 2.896,2.68 2.008,9.955 2.188,15.544 0.088,0 -8.431,0 -8.431,0 0,0 0.138,-10.475 0.019,-11.896 -0.105,-1.237 -1.883,-2.744 -2.914,-2.786 -1.746,-0.069 -3.902,0.833 -3.998,2.804 -0.191,4.002 -0.115,12.013 -0.115,12.013 l -7.986,0 0,-17.35 7.809,0.025 0,0 z"
         id="path63" /><path
         style="fill:#a58252"
         inkscape:connector-curvature="0"
         d="m 256.555,125.414 -0.555,0 0,-2.598 0.973,0 c 0.668,0 1.066,0.192 1.066,0.785 0,0.48 -0.283,0.651 -0.629,0.678 l 0.664,1.135 -0.656,0 -0.602,-1.089 -0.262,0 0,1.089 0.001,0 z m 0.493,-1.529 c 0.246,0 0.396,-0.055 0.396,-0.341 0,-0.267 -0.287,-0.287 -0.498,-0.287 l -0.391,0 0,0.628 0.493,0 0,0 z m -0.091,2.649 c -1.283,0 -2.428,-0.888 -2.428,-2.414 0,-1.528 1.145,-2.414 2.428,-2.414 1.279,0 2.42,0.886 2.42,2.414 -0.001,1.526 -1.141,2.414 -2.42,2.414 l 0,0 z m 0,-4.268 c -0.957,0 -1.73,0.743 -1.73,1.854 0,1.111 0.773,1.859 1.73,1.853 l 0,0.007 c 0.932,0 1.725,-0.748 1.725,-1.859 0,-1.111 -0.793,-1.855 -1.725,-1.855 l 0,0 z"
         id="path65" /></g></g><g
     id="g3"
     transform="matrix(0.10117835,0,0,0.10117835,82.942261,135.92709)"><path
       style="fill:#ff0000"
       inkscape:connector-curvature="0"
       d="m 277.724,70.452 -215.148,0 C 43.153,70.452 27.348,54.649 27.348,35.225 27.348,15.801 43.154,0 62.576,0 l 215.146,0 c 19.426,0 35.229,15.802 35.229,35.226 -0.001,19.423 -15.802,35.226 -35.227,35.226 z M 62.576,8.333 c -14.829,0 -26.895,12.064 -26.895,26.895 0,14.828 12.065,26.894 26.895,26.894 l 215.146,0 c 14.827,0 26.896,-12.065 26.896,-26.894 0,-14.83 -12.067,-26.895 -26.896,-26.895 l -215.146,0 z"
       id="path5" /><path
       style="fill:#ff0000"
       inkscape:connector-curvature="0"
       d="m 90.208,51.562 0,-32.515 -9.779,0 0,22.735 -14.423,-22.735 -10.512,0 0,32.515 9.779,0 0,-23.469 15.155,23.469 9.78,0 z"
       id="path7" /><path
       style="fill:#ff0000"
       inkscape:connector-curvature="0"
       d="m 106.099,51.562 0,-22.002 -9.778,0 0,22.002 9.778,0 z"
       id="path9-4" /><path
       style="fill:#ff0000"
       inkscape:connector-curvature="0"
       d="m 106.099,24.914 0,-5.867 -9.778,0 0,5.867 9.778,0 z"
       id="path11-9" /><path
       style="fill:#ff0000"
       inkscape:connector-curvature="0"
       id="_x33_162"
       d="m 140.324,51.562 0,-15.159 c 0,-3.178 -6.112,-7.578 -9.289,-7.578 l -2.935,0 c -2.199,0 -4.645,1.956 -6.845,2.934 l 0,-2.199 -9.779,0 0,22.002 9.779,0 0,-15.159 c 0,-1.467 3.422,-3.178 4.89,-3.178 1.467,0 4.155,1.711 4.155,3.178 l 0,15.158 10.024,0 z" /><path
       style="fill:#ff0000"
       inkscape:connector-curvature="0"
       id="_x33_162_1_"
       d="m 222.143,52.319 0,-15.157 c 0,-3.179 -6.109,-7.578 -9.292,-7.578 l -2.932,0 c -2.201,0 -4.646,1.956 -6.848,2.933 l 0,-2.199 -9.777,0 0,22.002 9.777,0 0,-15.158 c 0,-1.466 3.424,-3.179 4.891,-3.179 1.466,0 4.154,1.713 4.154,3.179 l 0,15.157 10.027,0 z" /><path
       style="fill:#ff0000"
       inkscape:connector-curvature="0"
       d="m 156.215,51.562 0,-22.002 5.134,0 0,-2.934 -5.134,0 0,-4.645 -10.021,0 0,4.645 -5.135,0 0,2.934 5.135,0 0,22.002 10.021,0 z"
       id="path15-5" /><path
       style="fill:#ff0000"
       inkscape:connector-curvature="0"
       d="m 175.038,28.826 c -7.822,0 -14.422,5.378 -14.422,11.979 0,6.846 6.6,12.223 14.422,12.223 6.846,0 12.469,-3.911 13.936,-9.045 l -10.022,0 0,2.934 c 0,2.445 -1.709,3.18 -3.91,3.18 -2.2,0 -3.668,-0.734 -3.668,-3.18 l 0,-6.111 18.093,0 c -0.003,-6.601 -6.359,-11.98 -14.429,-11.98 z m 0,2.2 c 2.201,0 3.912,1.467 3.912,3.912 l 0,2.199 -7.578,0 0,-2.199 c 0,-2.445 1.467,-3.912 3.666,-3.912 z"
       id="path17-1" /><path
       style="fill:#ff0000"
       inkscape:connector-curvature="0"
       d="m 271.364,28.826 c -8.069,0 -14.426,5.378 -14.426,11.979 0,6.846 6.354,12.223 14.426,12.223 7.819,0 14.422,-5.377 14.422,-12.223 -0.004,-6.6 -6.603,-11.979 -14.422,-11.979 z m 0,2.2 c 2.196,0 3.666,1.467 3.666,3.912 l 0,11.978 c 0,2.444 -1.47,3.179 -3.666,3.179 -2.444,0 -3.914,-0.734 -3.914,-3.179 l 0,-11.978 c -0.002,-2.445 1.467,-3.912 3.914,-3.912 z"
       id="path19" /><path
       style="fill:#ff0000"
       inkscape:connector-curvature="0"
       d="m 243.247,19.047 0,11.979 c 0,0 -2.936,-2.2 -6.848,-2.2 -6.111,0 -11.244,5.378 -11.244,11.246 0,6.112 5.135,12.224 11.244,12.224 3.912,0 6.848,-1.467 6.848,-1.467 l 0,0.732 9.779,0 0,-32.514 -9.779,0 z m -3.668,13.446 c 2.199,0 3.668,1.712 3.668,3.912 l 0,9.045 c 0,2.201 -1.469,2.934 -3.668,2.934 -2.443,0 -3.912,-0.732 -3.912,-2.934 l 0,-9.045 c 0,-2.2 1.469,-3.912 3.912,-3.912 z"
       id="path21" /><g
       id="g23"><path
         style="fill:#ff0000"
         inkscape:connector-curvature="0"
         d="m 287.006,29.216 c -2.775,0 -5.036,-2.258 -5.036,-5.035 0,-2.959 2.213,-5.28 5.036,-5.28 2.729,0 5.036,2.417 5.036,5.28 0,2.681 -2.35,5.035 -5.036,5.035 z m 0,-9.533 c -2.427,0 -4.253,1.934 -4.253,4.5 0,2.344 1.908,4.254 4.253,4.254 2.229,0 4.254,-2.028 4.254,-4.254 0,-2.399 -1.984,-4.5 -4.254,-4.5 z m 0.884,6.647 -0.864,-1.515 -1.095,0 0,1.321 -0.78,0 0,-4.546 2.104,0 c 0.979,0 1.488,0.813 1.488,1.613 0,0.615 -0.303,1.238 -0.885,1.492 l 0.711,1.248 -0.679,0.387 z m -1.959,-2.294 1.321,0 c 0.219,0 0.395,-0.079 0.521,-0.235 0.118,-0.149 0.188,-0.368 0.188,-0.597 0,-0.311 -0.151,-0.832 -0.709,-0.832 l -1.321,0 0,1.664 0,0 z"
         id="path25-4" /></g><path
       inkscape:connector-curvature="0"
       id="_x32_399"
       d="m 51.827,99.231 0,-14.18 c 0,-2.688 -2.689,-5.379 -5.378,-5.379 l -20.535,0 0,19.559 6.357,0 0,-13.199 c 0,-0.979 0.732,-1.957 1.711,-1.957 l 9.777,0 c 0.979,0 1.957,0.979 1.957,1.957 l 0,13.199 6.111,0 z"
       style="fill:#ff0000;fill-opacity:1" /><path
       inkscape:connector-curvature="0"
       id="_x32_399_1_"
       d="m 221.469,99.231 0,-14.18 c 0,-2.688 -2.688,-5.379 -5.376,-5.379 l -20.536,0 0,19.559 6.354,0 0,-13.199 c 0,-0.979 0.736,-1.957 1.713,-1.957 l 9.779,0 c 0.979,0 1.953,0.979 1.953,1.957 l 0,13.199 6.113,0 z"
       style="fill:#ff0000;fill-opacity:1" /><path
       inkscape:connector-curvature="0"
       id="_x32_399_2_"
       d="m 314.327,99.231 0,-14.18 c 0,-2.688 -2.688,-5.379 -5.379,-5.379 l -20.535,0 0,19.559 6.354,0 0,-13.199 c 0,-0.979 0.732,-1.957 1.714,-1.957 l 9.776,0 c 0.979,0 1.955,0.979 1.955,1.957 l 0,13.199 6.115,0 z"
       style="fill:#ff0000;fill-opacity:1" /><path
       inkscape:connector-curvature="0"
       id="_x33_177"
       d="m 258.892,99.231 0,-14.18 c 0,-2.688 -2.688,-5.379 -5.379,-5.379 l -27.625,0 0,19.559 6.357,0 0,-13.199 c 0,-0.979 0.731,-1.957 1.709,-1.957 l 3.668,0 c 0.734,0 1.712,0.979 1.712,1.957 l 0,13.199 6.358,0 0,-13.199 c 0,-0.979 0.731,-1.957 1.709,-1.957 l 3.668,0 c 0.733,0 1.711,0.979 1.711,1.957 l 0,13.199 6.112,0 z"
       style="fill:#ff0000;fill-opacity:1" /><path
       inkscape:connector-curvature="0"
       id="_x33_181"
       d="m 21.514,99.231 -16.135,0 C 2.691,99.231 0,97.521 0,94.833 l 0,-15.4 21.513,0 0,4.645 -14.424,0 c -0.732,0 -1.711,0.734 -1.711,1.712 0,0.979 0.979,1.712 1.711,1.712 l 13.446,0 0,3.911 -13.446,0 c -0.732,0 -1.711,0.979 -1.711,1.712 0,0.979 0.979,1.955 1.711,1.955 l 14.424,0 10e-4,4.151 0,0 z"
       style="fill:#ff0000;fill-opacity:1" /><path
       inkscape:connector-curvature="0"
       id="_x33_181_1_"
       d="m 100.979,99.478 -16.136,0 c -2.688,0 -5.379,-1.711 -5.379,-4.398 l 0,-15.403 21.515,0 0,4.645 -14.426,0 c -0.731,0 -1.71,0.734 -1.71,1.714 0,0.98 0.979,1.711 1.71,1.711 l 13.446,0 0,3.91 -13.446,0 c -0.731,0 -1.71,0.979 -1.71,1.714 0,0.979 0.979,1.954 1.71,1.954 l 14.426,0 0,4.153 0,0 z"
       style="fill:#ff0000;fill-opacity:1" /><path
       inkscape:connector-curvature="0"
       id="_x33_181_2_"
       d="m 284.907,99.231 -16.137,0 c -2.688,0 -5.381,-1.711 -5.381,-4.398 l 0,-15.4 21.516,0 0,4.645 -14.424,0 c -0.732,0 -1.714,0.734 -1.714,1.712 0,0.979 0.979,1.712 1.714,1.712 l 13.443,0 0,3.911 -13.443,0 c -0.732,0 -1.714,0.979 -1.714,1.712 0,0.979 0.979,1.955 1.714,1.955 l 14.424,0 0,4.154 0.002,0 0,-0.003 z"
       style="fill:#ff0000;fill-opacity:1" /><path
       inkscape:connector-curvature="0"
       id="_x32_391"
       d="m 54.517,79.675 0,4.4 6.355,0 c 1.712,0 1.712,0 1.712,1.957 l 0,13.199 6.111,0 0,-13.199 c 0,-1.957 0,-1.957 1.956,-1.957 l 6.111,0 0,-4.4 -22.245,0 z"
       style="fill:#ff0000;fill-opacity:1" /><path
       inkscape:connector-curvature="0"
       id="_x32_391_1_"
       d="m 132.197,79.675 0,4.4 6.355,0 c 1.71,0 1.71,0 1.71,1.957 l 0,13.199 6.112,0 0,-13.199 c 0,-1.957 0,-1.957 1.957,-1.957 l 6.112,0 0,-4.4 -22.246,0 z"
       style="fill:#ff0000;fill-opacity:1" /><path
       inkscape:connector-curvature="0"
       id="_x32_391_2_"
       d="m 317.909,79.675 0,4.4 6.355,0 c 1.713,0 1.713,0 1.713,1.957 l 0,13.199 6.11,0 0,-13.199 c 0,-1.957 0,-1.957 1.955,-1.957 l 6.111,0 0,-4.4 -22.244,0 z"
       style="fill:#ff0000;fill-opacity:1" /><path
       inkscape:connector-curvature="0"
       d="m 105.366,79.675 0,19.559 6.356,0 0,-3.42 c 0,-0.979 0.733,-1.959 1.711,-1.959 l 8.068,0 c 0.979,0 1.711,0.979 1.711,1.959 l 0,3.42 5.379,0 0,-5.379 c 0,-0.731 -0.732,-1.709 -0.732,-2.688 0,-0.731 1.711,-2.442 1.711,-4.397 l 0,-1.713 c 0,-1.713 -2.689,-5.38 -4.4,-5.38 l -19.804,-0.002 0,0 z m 8.067,4.4 8.068,0 c 0.979,0 1.71,0.979 1.71,1.957 l 0,1.71 c 0,0.979 -0.732,1.713 -1.71,1.713 l -8.068,0 c -0.978,0 -1.711,-0.733 -1.711,-1.713 l 0,-1.71 c 0.001,-0.976 0.733,-1.957 1.711,-1.957 z"
       id="path37"
       style="fill:#ff0000;fill-opacity:1" /><path
       inkscape:connector-curvature="0"
       d="m 161.594,79.675 c -1.712,0 -4.399,3.667 -4.399,5.381 l 0,14.178 6.354,0 0,-5.379 11.489,0 0,5.379 6.355,0 0,-14.178 c 0,-1.714 -2.688,-5.381 -4.645,-5.381 l -15.154,0 z m 3.667,4.4 8.066,0 c 0.731,0 1.711,0.979 1.711,1.957 l 0,3.422 -11.489,0 0,-3.422 c 0,-0.976 0.734,-1.957 1.712,-1.957 z"
       id="path39-1"
       style="fill:#ff0000;fill-opacity:1" /><path
       inkscape:connector-curvature="0"
       d="m 191.907,99.231 0,-19.558 -6.11,0 0,19.559 6.11,0 z"
       id="path41"
       style="fill:#ff0000;fill-opacity:1" /><path
       inkscape:connector-curvature="0"
       id="_x33_177_1_"
       d="m 250.86,126.021 0,-14.18 c 0,-2.688 -2.689,-5.379 -5.381,-5.379 l -27.623,0 0,19.559 6.354,0 0,-13.201 c 0,-0.979 0.732,-1.957 1.71,-1.957 l 3.667,0 c 0.734,0 1.714,0.979 1.714,1.957 l 0,13.199 6.354,0 0,-13.199 c 0,-0.979 0.731,-1.957 1.709,-1.957 l 3.668,0 c 0.733,0 1.715,0.979 1.715,1.957 l 0,13.199 6.111,0 0.002,0.002 0,0 z"
       style="fill:#ff0000;fill-opacity:1" /><path
       inkscape:connector-curvature="0"
       id="_x33_181_3_"
       d="m 213.479,126.021 -16.136,0 c -2.688,0 -5.377,-1.713 -5.377,-4.398 l 0,-15.403 21.511,0 0,4.646 -14.422,0 c -0.732,0 -1.712,0.733 -1.712,1.711 0,0.979 0.979,1.712 1.712,1.712 l 13.444,0 0,3.911 -13.444,0 c -0.732,0 -1.712,0.979 -1.712,1.713 0,0.979 0.979,1.954 1.712,1.954 l 14.422,0 0.002,4.154 0,0 z"
       style="fill:#ff0000;fill-opacity:1" /><path
       inkscape:connector-curvature="0"
       id="_x32_391_3_"
       d="m 167.017,106.462 0,4.398 6.355,0 c 1.711,0 1.711,0 1.711,1.957 l 0,13.199 6.111,0 0,-13.199 c 0,-1.957 0,-1.957 1.959,-1.957 l 6.109,0 0,-4.398 -22.245,0 z"
       style="fill:#ff0000;fill-opacity:1" /><path
       inkscape:connector-curvature="0"
       id="_x33_187"
       d="m 94.611,106.565 c -1.712,0 -5.379,2.69 -5.379,4.398 l 0,2.691 c 0,1.712 3.667,4.4 5.379,4.4 l 10.756,0 c 0.978,0 1.956,0.979 1.956,1.711 0,0.977 -0.979,1.954 -1.956,1.954 l -16.135,0 0,4.399 18.09,0 c 1.712,0 5.134,-2.688 5.134,-4.399 l 0,-2.688 c 0,-1.957 -3.422,-4.646 -5.134,-4.646 l -10.756,0 c -0.979,0 -1.955,-0.733 -1.955,-1.713 0,-0.978 0.977,-1.713 1.955,-1.713 l 15.89,0 0,-4.397 -17.845,0 0,0.003 z"
       style="fill:#ff0000;fill-opacity:1" /><path
       inkscape:connector-curvature="0"
       id="_x33_187_1_"
       d="m 146.397,106.565 c -1.713,0 -5.38,2.69 -5.38,4.398 l 0,2.691 c 0,1.712 3.667,4.4 5.38,4.4 l 10.756,0 c 0.978,0 1.956,0.979 1.956,1.711 0,0.977 -0.979,1.954 -1.956,1.954 l -16.136,0 0,4.399 18.091,0 c 1.712,0 5.134,-2.688 5.134,-4.399 l 0,-2.688 c 0,-1.957 -3.422,-4.646 -5.134,-4.646 l -10.757,0 c -0.978,0 -1.955,-0.733 -1.955,-1.713 0,-0.978 0.978,-1.713 1.955,-1.713 l 15.891,0 0,-4.397 -17.845,0 0,0.003 0,0 z"
       style="fill:#ff0000;fill-opacity:1" /><path
       inkscape:connector-curvature="0"
       d="m 114.412,106.565 0,8.804 c 0,1.71 2.688,4.399 4.4,4.399 l 4.398,0 0,6.354 6.357,0 0,-6.354 4.4,0 c 1.71,0 4.4,-2.689 4.4,-4.399 l 0,-8.804 -6.112,0 0,7.092 c 0,0.732 -0.978,1.712 -1.956,1.712 l -7.822,0 c -0.979,0 -1.956,-0.979 -1.956,-1.712 l 0,-7.092 -6.109,0 z"
       id="path48-2"
       style="fill:#ff0000;fill-opacity:1" /></g></svg>