<?xml version="1.0" encoding="UTF-8" standalone="no"?>
<!-- Created with Inkscape (http://www.inkscape.org/) -->
<svg xmlns:dc="http://purl.org/dc/elements/1.1/" xmlns:cc="http://creativecommons.org/ns#" xmlns:rdf="http://www.w3.org/1999/02/22-rdf-syntax-ns#" xmlns:svg="http://www.w3.org/2000/svg" xmlns="http://www.w3.org/2000/svg" xmlns:xlink="http://www.w3.org/1999/xlink" xmlns:sodipodi="http://sodipodi.sourceforge.net/DTD/sodipodi-0.dtd" xmlns:inkscape="http://www.inkscape.org/namespaces/inkscape" width="84.61335mm" height="72.189247mm" viewBox="0 0 299.81103 255.78858" id="svg2" version="1.1" inkscape:version="0.91 r13725" sodipodi:docname="Ghostbusters_logo.svg">
  <defs id="defs4">
    <linearGradient id="0">
      <stop id="stop3450" stop-color="#00aaec"/>
      <stop id="stop3452" offset="1" stop-color="#0076d0"/>
    </linearGradient>
    <linearGradient gradientUnits="userSpaceOnUse" x2="641.65002" x1="255.67" id="1" xlink:href="#0"/>
    <linearGradient gradientUnits="userSpaceOnUse" x2="861.70001" x1="725.20001" id="2" xlink:href="#0"/>
    <clipPath id="clipPath5029" clipPathUnits="userSpaceOnUse">
      <rect transform="scale(1,-1)" y="-790.0863" x="271.35229" height="94.85714" width="53.714287" id="rect5031" style="fill:#0000ff;fill-rule:evenodd;stroke:#000000;stroke-width:0.80000001px;stroke-linecap:butt;stroke-linejoin:miter;stroke-opacity:1"/>
    </clipPath>
    <clipPath clipPathUnits="userSpaceOnUse" id="clipPath2999">
      <path d="m 0,0 595.276,0 0,841.89 L 0,841.89 0,0 Z" id="path3001" inkscape:connector-curvature="0"/>
    </clipPath>
    <clipPath clipPathUnits="userSpaceOnUse" id="clipPath3007">
      <path d="m 0,0 595.278,0 0,841.887 L 0,841.887 0,0 Z" id="path3009" inkscape:connector-curvature="0"/>
    </clipPath>
    <clipPath clipPathUnits="userSpaceOnUse" id="clipPath3017">
      <path d="m -8.505,-8.505 612.288,0 0,858.897 -612.288,0 0,-858.897 z" id="path3019" inkscape:connector-curvature="0" style="clip-rule:evenodd"/>
    </clipPath>
    <clipPath clipPathUnits="userSpaceOnUse" id="clipPath3025">
      <path d="m -44.073,850.392 683.424,0 0,-858.897 -683.424,0 0,858.897 z" id="path3027" inkscape:connector-curvature="0"/>
    </clipPath>
    <clipPath clipPathUnits="userSpaceOnUse" id="clipPath3033">
      <path d="M 595.278,841.887 0,841.887 0,0 l 595.278,0 0,841.887 z M 46.35,650.034 l 505.917,0 0,-71.514 -505.917,0 0,71.514 z" id="path3035" inkscape:connector-curvature="0"/>
    </clipPath>
    <clipPath clipPathUnits="userSpaceOnUse" id="clipPath3045">
      <path d="m 8.505,700.155 578.268,0 0,85.041 -578.268,0 0,-85.041 z" id="path3047" inkscape:connector-curvature="0" style="clip-rule:evenodd"/>
    </clipPath>
    <clipPath clipPathUnits="userSpaceOnUse" id="clipPath3153">
      <path d="m 29.763,28.962 110.16,0 0,45.126 -110.16,0 0,-45.126 z" id="path3155" inkscape:connector-curvature="0" style="clip-rule:evenodd"/>
    </clipPath>
    <clipPath clipPathUnits="userSpaceOnUse" id="clipPath3161">
      <path d="m 0.938,2.957 1,0 0,1 -1,0 0,-1 z" id="path3163" inkscape:connector-curvature="0"/>
    </clipPath>
    <clipPath clipPathUnits="userSpaceOnUse" id="clipPath3173">
      <path d="m 552.267,650.034 -505.917,0 0,-71.514 505.917,0 0,71.514 z" id="path3175" inkscape:connector-curvature="0"/>
    </clipPath>
    <clipPath clipPathUnits="userSpaceOnUse" id="clipPath3181">
      <path d="m 46.162,578.346 506.327,0 0,72.006 -506.327,0 0,-72.006 z" id="path3183" inkscape:connector-curvature="0"/>
    </clipPath>
    <clipPath clipPathUnits="userSpaceOnUse" id="clipPath3201">
      <path d="m 433.701,35.901 153.072,0 0,30.717 -153.072,0 0,-30.717 z" id="path3203" inkscape:connector-curvature="0"/>
    </clipPath>
    <clipPath clipPathUnits="userSpaceOnUse" id="clipPath3289">
      <path d="m 481.321,50.262 c -1.215,1.215 -1.216,3.185 -0.001,4.401 1.215,1.215 3.185,1.215 4.401,0 1.215,-1.215 1.216,-3.185 10e-4,-4.401 -1.215,-1.215 -3.186,-1.216 -4.401,0" id="path3291" inkscape:connector-curvature="0"/>
    </clipPath>
    <clipPath clipPathUnits="userSpaceOnUse" id="clipPath3305">
      <path d="m 481.292,50.188 c -0.254,0.255 -0.457,0.542 -0.608,0.848 1.186,-1.117 3.052,-1.095 4.212,0.064 1.159,1.16 1.18,3.027 0.063,4.212 0.306,-0.151 0.593,-0.353 0.847,-0.608 1.247,-1.247 1.248,-3.268 0.001,-4.515 -1.246,-1.247 -3.268,-1.247 -4.515,-10e-4" id="path3307" inkscape:connector-curvature="0"/>
    </clipPath>
    <clipPath clipPathUnits="userSpaceOnUse" id="clipPath3313">
      <path d="m 481.321,50.262 c -1.215,1.215 -1.216,3.185 -0.001,4.401 1.215,1.215 3.185,1.215 4.401,0 1.215,-1.215 1.216,-3.185 10e-4,-4.401 -1.215,-1.215 -3.186,-1.216 -4.401,0" id="path3315" inkscape:connector-curvature="0"/>
    </clipPath>
    <clipPath clipPathUnits="userSpaceOnUse" id="clipPath3323">
      <path d="m 481.321,50.262 c -1.215,1.215 -1.216,3.185 -0.001,4.401 1.215,1.215 3.185,1.215 4.401,0 1.215,-1.215 1.216,-3.185 10e-4,-4.401 -1.215,-1.215 -3.186,-1.216 -4.401,0" id="path3325" inkscape:connector-curvature="0"/>
    </clipPath>
    <style type="text/css" id="style2989">
   
    .fil1 {fill:#2D4287}
    .fil3 {fill:#912747}
    .fil0 {fill:#B0ADB9}
    .fil2 {fill:#FEFEFE}
   
  </style>
    <clipPath id="clipPath6125-9">
      <path id="path6127-5" d="m 297.905,392.154 c -3.142,-10e-4 -5.688,-2.55 -5.687,-5.692 0.002,-3.142 2.551,-5.689 5.693,-5.686 3.142,10e-4 5.688,2.55 5.686,5.692 -10e-4,3.141 -2.549,5.686 -5.688,5.686 -10e-4,0 -0.003,0 -0.004,0" inkscape:connector-curvature="0"/>
    </clipPath>
    <clipPath id="clipPath6037-0">
      <path id="path6039-7" d="m 297.901,398.972 c -6.908,-0.002 -12.505,-5.605 -12.501,-12.514 0.003,-6.909 5.606,-12.505 12.514,-12.501 6.909,0.002 12.506,5.606 12.502,12.514 -0.003,6.906 -5.603,12.501 -12.508,12.501 -0.003,0 -0.005,0 -0.007,0" inkscape:connector-curvature="0"/>
    </clipPath>
    <clipPath id="clipPath5949-4">
      <path id="path5951-5" d="m 297.898,405.359 c -7.423,-0.004 -13.844,-4.289 -16.93,-10.517 -1.252,-2.527 -1.955,-5.375 -1.954,-8.387 10e-4,-1.194 0.113,-2.362 0.325,-3.496 l 5.992,0.004 c -0.308,1.112 -0.474,2.284 -0.475,3.495 -10e-4,2.082 0.486,4.051 1.352,5.797 2.132,4.302 6.566,7.259 11.693,7.261 5.123,0.003 9.557,-2.946 11.695,-7.239 0.872,-1.749 1.362,-3.72 1.363,-5.806 10e-4,-1.21 -0.164,-2.382 -0.472,-3.495 l 5.993,0.003 c 0.211,1.133 0.322,2.302 0.321,3.497 -10e-4,3.034 -0.717,5.9 -1.99,8.439 -3.102,6.194 -9.506,10.444 -16.903,10.444 -0.003,0 -0.007,0 -0.01,0" inkscape:connector-curvature="0"/>
    </clipPath>
    <style id="style6" type="text/css"/>
  </defs>
  <sodipodi:namedview id="base" pagecolor="#ffffff" bordercolor="#666666" borderopacity="1.0" inkscape:pageopacity="0.0" inkscape:pageshadow="2" inkscape:zoom="0.35" inkscape:cx="756.93297" inkscape:cy="257.0723" inkscape:document-units="px" inkscape:current-layer="layer1" showgrid="false" fit-margin-top="0" fit-margin-left="0" fit-margin-right="0" fit-margin-bottom="0" inkscape:window-width="1366" inkscape:window-height="705" inkscape:window-x="-8" inkscape:window-y="-8" inkscape:window-maximized="1"/>
  <metadata id="metadata7">
    <rdf:RDF>
      <cc:Work rdf:about="">
        <dc:format>image/svg+xml</dc:format>
        <dc:type rdf:resource="http://purl.org/dc/dcmitype/StillImage"/>
        <dc:title/>
      </cc:Work>
    </rdf:RDF>
  </metadata>
  <g inkscape:label="Layer 1" inkscape:groupmode="layer" id="layer1" transform="translate(381.93282,-533.64595)">
    <g id="g5944" transform="translate(-381.79532,533.64227)">
      <g display="none" id="Layer_1" style="display:none">
        <path id="path5869" d="m 246.6,55.5 c -22.2,-22 -51.8,-34.1 -83.4,-34.1 -31.5,0 -61,12.1 -83.1,34.2 -22.1,22 -34.3,51.5 -34.3,83 0,31.5 12.2,61.1 34.3,83.4 22.1,22.3 51.7,34.5 83.1,34.5 31.5,0 61.1,-12.3 83.4,-34.5 22.3,-22.3 34.5,-51.9 34.5,-83.4 0.1,-31.5 -12.2,-61 -34.5,-83.1 z m -83.3,160.7 c -21.4,0 -41.6,-9 -56,-24.9 l 130.2,-68.9 c 0.3,0.7 0.5,1.4 0.6,2.1 1.1,5.4 1.6,10.9 1.6,16.5 0.1,42.2 -33.5,75.2 -76.4,75.2 z M 163.1,62.8 c 20.7,0.1 41.2,9 56.9,24.7 l -131,69 C 88,151 87.1,145.4 87.2,139.2 l 0,-0.1 c 0.1,-42 34.1,-76.3 75.9,-76.3 z" display="inline" inkscape:connector-curvature="0" style="display:inline"/>
        <path id="path5871" d="m 163.3,23.9 c -63.7,0 -114.9,50.9 -114.9,114.6 0,63.7 51.1,115.4 114.9,115.4 63.7,0 115.4,-51.7 115.4,-115.4 C 278.6,74.8 227,23.9 163.3,23.9 Z m 0,194.9 c -24.6,0 -46.5,-11.4 -60.9,-29.2 -6.9,-8.5 -12.4,-18.2 -15.3,-29 -1.3,-6.7 -2.7,-13.5 -2.5,-21.3 0,-43.7 34.8,-78.9 78.4,-78.9 25,0.1 46.5,12.2 61.1,28 7,8.6 11.6,19.2 14.6,30.7 1,2.2 1.5,3.4 1.8,5.1 1.1,5.5 1.7,11.1 1.7,17 0.1,43.5 -35.2,77.6 -78.9,77.6 z" display="inline" inkscape:connector-curvature="0" style="display:inline;fill:#ff0000"/>
        <path id="path5873" d="m 165.5,217.5 c -28.3,0.5 -50.6,-15.5 -49.6,-16.2 3.1,-2.1 8.6,-5.8 10.9,-8.4 1.5,-1.6 3.8,-3.6 5,-5.4 0.8,-1.1 2.7,-3.4 3.2,-4.1 -0.5,-1.2 -10.3,-7.6 -10.3,-7.6 -17.8,-12.3 -19.7,-26.5 -21.3,-29.6 l -1.2,-3.5 c -0.9,0.1 -7.6,1.3 -8.6,1.7 -2.7,1 -5.3,3 -9.7,5.5 -9.7,6.1 -19.3,6.7 -19.3,6.7 0,0 2.6,7.5 2.6,8.2 0,0.9 0,3.3 -4,3.3 -4.1,0 -7.8,-3.5 -10.5,-7.1 -1.9,-2.6 -4,-5.1 -6.7,-6.6 -2,0.9 -8.5,-1.7 -12.8,-4.1 -2.8,-1.6 -3.3,-2.2 -3.9,-2.6 -1.2,-0.8 -4.8,0.3 -5.5,0.5 -3.1,0.8 -5.2,1.3 -6.9,1.3 -1.8,0 -3.1,-1.4 -3.1,-2.1 0,-1.2 0.3,-3.2 2.7,-5.3 1.1,-1.1 3,-1.9 3.7,-2.9 0,-0.1 1.5,-3.1 1.6,-3.1 0,0 0.2,-0.9 -0.1,-1.1 -1,-0.8 -5,-0.5 -9.8,-0.5 -0.7,0 -1.3,0 -2,0 -0.5,0 -1,0 -1.5,0 -2.5,0 -2.1,-1.2 -2.3,-2 -0.5,-1.8 1.2,-4.2 2.5,-4.9 0.7,-0.4 2.7,-1.6 5.1,-3.1 2.4,-1.4 6,-3.4 6.7,-3.8 0.2,-0.7 -2.4,-3.3 -4.6,-4.7 -0.8,-0.5 -2,-1 -3.3,-1.6 -3.2,-1.4 -5.8,-2.7 -5.7,-4.8 0.1,-1.8 1.1,-2.8 5.3,-2.8 l 2.8,0.2 c 7.6,0.1 26.5,12.4 27.5,13 3.6,2.5 14.6,8 14.6,8 0,0 2.7,-1.7 7.9,-5.4 1.9,-1.4 6.3,-3.9 7.7,-5 2.8,-2.3 10.9,-8.9 13.8,-13.2 3.6,-6.5 10.4,-10.1 13.3,-11.5 -0.1,-0.3 -7,-12.3 -6.1,-19.1 1.2,-9.3 5.5,-14.4 11.3,-20.1 1.7,-1.6 4.2,-4.6 5.8,-6.4 3.2,-3.5 5.9,-8.7 7.8,-12.9 2.5,-5.4 5,-10.3 9.9,-14.3 4.3,-3.5 7.1,-4.4 11.4,-5 1,-0.1 5.6,-0.8 7.5,-1.1 -0.3,-0.3 1,-2.9 3.6,-4.1 7.9,-4.3 14.1,-5 14.3,-5 5.7,0 7.4,1.5 8.7,4.6 0.6,1.6 1.6,5.2 3.1,6.9 1.9,2.2 2.7,3.2 4,3.1 0.8,-0.1 2,-1.3 2.2,-1.4 1.9,-0.4 5.4,-1.4 5.9,-0.6 0.9,1.5 -0.8,6.8 -3.6,8.1 -2.1,0.9 -6.5,0.8 -9.7,0.8 0,0 -4.5,1.8 -5.3,2.9 -0.4,0.7 1.3,3.8 1.4,7.5 0.1,2.2 -0.6,4.8 -0.8,6.4 -0.2,1.6 -0.6,2.2 -0.6,5.6 -0.1,5.6 5.3,16.7 7.5,21.3 2,4.9 1.5,9.9 1.5,9.9 0,0 15.5,0.2 23,4.2 6.1,3.3 9.4,4.7 12,7.8 2.6,3.1 8.4,19.4 8.4,19.4 l 13.3,8 c 0.7,0.3 3.3,3.3 4,5.7 2.6,-0.1 4.9,-1.5 6.6,-0.8 2.4,1.1 4.3,1.9 4.6,1.8 2,-0.5 7.2,-2.4 11.9,-4.7 3,-1.5 6.7,-3.1 7.9,-3.6 3.4,-1.3 9.8,-3.2 12.9,-3.2 0.1,0 3.9,1.4 3.9,4 0,2.1 -2.8,3.1 -8.1,6.7 -2.5,1.7 -5.8,3.8 -7.2,5.2 -4.1,3.9 -5,5.5 -4.8,7.6 0.1,1.1 3,1.5 5,2.3 1.4,0.5 3.9,1.2 6.3,1.8 3.5,0.9 8.1,2.4 10.1,3.3 1.1,0.5 6,3.8 5.7,6.5 -0.3,3.4 -2.9,4.3 -5.9,4.3 -3,0 -6.8,-1.4 -9.3,-2 -1.9,-0.5 -5.5,-0.4 -5.5,-0.4 -2.4,0 -5.2,-0.4 -4.5,1.6 0.1,0.2 0,0 0.1,0.2 1.4,2.3 5.3,5.9 7,7.4 0.3,0.3 0.5,0.5 0.7,0.6 0.9,0.8 2.3,4 1.7,5.5 -0.3,0.6 -2.2,2 -4.3,2 -3,0 -10.2,-5.6 -11.4,-6.5 -3.4,-2.6 -7.4,-6.7 -11.8,-6.8 -0.1,0 -13.3,3.4 -13.3,3.4 -0.2,0.7 -3.8,12.9 -11.4,23.9 -10.4,15 -33.3,31.8 -61.6,32.3 z" display="inline" inkscape:connector-curvature="0" style="display:inline;fill:#ffffff"/>
        <path id="path5875" d="m 237.1,161.1 c -8.7,32.1 -38,55.1 -73.8,55.1 -21.4,0 -41.6,-9 -56,-24.9 l 131.2,-69.4 0.1,-3.7 C 235.6,107 231.1,96.6 224.2,88.2 211.7,74.7 194,63.8 173.4,61 c 0,0 0,0 0,0 l 1.3,2.8 c 16.6,2.7 32.6,11 45.3,23.8 l -131,69 c -0.5,-2.9 -1,-5.8 -1.4,-8.8 0,0 0,0 0,0 l -2.4,1.5 c 0,0 0,0 0,0 0.5,3.9 1.2,7.6 1.9,11.3 2.9,10.8 8.5,20.6 15.3,29 14.4,17.8 36.2,29.2 60.9,29.2 36.7,0 67.5,-24 76.4,-57.6 l -2.6,-0.1 0,0 z" display="inline" inkscape:connector-curvature="0" style="display:inline"/>
        <path id="path5877" d="m 139.3,83.2 c 0,3 -1.4,6.7 -4,6.8 -1.8,0 -4,-2.9 -3.9,-6.6 0.1,-3.7 1.8,-6.6 4,-6.6 2.4,0 3.9,3.1 3.9,6.4 z" display="inline" inkscape:connector-curvature="0" style="display:inline"/>
        <path id="path5879" d="m 133.5,100.3 c -1.4,0 -2.6,-1.4 -3.6,-1.6 -0.2,0.1 2.6,3.8 5.8,3.8 3.7,0 5.3,-3.8 4.6,-4.7 -0.4,-0.5 -0.6,0.8 -1.6,1.6 -0.7,0.6 -2,0.9 -3.5,1 -0.7,0 -1,0 -1.7,-0.1 z" display="inline" inkscape:connector-curvature="0" style="display:inline"/>
        <path id="path5881" d="m 134.3,62.7 c -0.2,0.2 1.7,4 4.5,4 2.9,0 4.4,-3.5 3.6,-4.6 -0.9,-0.7 -0.5,2 -3.9,2.3 -2.5,0.3 -3.9,-2 -4.2,-1.7 z" display="inline" inkscape:connector-curvature="0" style="display:inline"/>
        <path id="path5883" d="m 135.9,38.7 c -0.4,-1 -1.4,-1.8 -2.4,-1.8 -1.9,0 -3.8,1.7 -3.8,4.7 0,1.9 0.9,4.1 2.2,4.2 2.3,0.2 2.8,-0.8 2.8,-2.3 0,-0.7 -0.2,-1.3 -0.5,-1.9 -0.3,-0.6 -0.7,-1.5 -0.6,-1.9 0.1,-0.3 0.4,-0.2 0.9,-0.1 0.7,0.1 1.5,0.9 1.6,0.9 0.2,0 0.2,-0.7 -0.2,-1.8 z" display="inline" inkscape:connector-curvature="0" style="display:inline"/>
        <path id="path5885" d="m 153.6,41.9 c -0.2,-0.5 -0.7,-2.1 -2.1,-2.2 -1.6,-0.1 -3.5,1.5 -3.9,4.6 -0.4,3 0.2,3.7 1.9,4 1.4,0.3 2.2,-0.1 2.2,-1.4 0,-1.3 0.1,-2.8 0.2,-3.1 0.2,-0.3 0.5,-0.4 0.8,-0.3 0.2,0.1 0.5,0.5 1,0.5 0.5,0 0.1,-1.6 -0.1,-2.1 z" display="inline" inkscape:connector-curvature="0" style="display:inline"/>
        <path id="path5887" d="m 129.5,33.6 c 2.2,0.7 1.4,-2.4 3.4,-4.1 0.9,-1 2.3,-1.5 2.4,-2.2 0.2,-0.7 -2.5,0.6 -3.4,1.5 -1.2,1.2 -3.9,4.5 -2.4,4.8 z" display="inline" inkscape:connector-curvature="0" style="display:inline"/>
        <path id="path5889" d="m 151.3,28.8 c -0.7,0.6 -0.1,1.2 0.5,1.5 0.6,0.2 1.7,0.9 2.7,2 1.5,1.6 2.2,3 2.6,2.9 0.3,-0.1 -0.6,-2 -1.4,-3.6 -0.8,-1.7 -2.9,-3.9 -4.4,-2.8 z" display="inline" inkscape:connector-curvature="0" style="display:inline"/>
        <path id="path5891" d="m 13.6,106 c -4.1,0 -7.3,0.8 -7.4,3.5 -0.1,2.9 4.4,5.1 7.7,6.5 1.3,0.5 4.9,3.1 5.7,4.3 -2.8,1.7 -11.6,7 -13.3,8.5 -1.6,1.5 -1.5,3.3 -0.9,4.7 0.6,1.4 1.9,2.6 5,2.6 0.4,0 2.7,0 3.4,0 5.8,0 6.1,0.1 6.6,0.3 0,1.5 -0.3,2.3 -0.9,3 -0.6,0.6 -1.7,1.1 -2.3,1.8 -2.7,2.7 -4.2,4.6 -4.3,6.2 0,1.1 1,2.2 1.7,2.7 0.7,0.5 2.3,0.9 4.3,0.9 2.3,0 5.4,-1.2 10.1,-2.3 0.5,0.2 1.7,0.7 4.5,2.3 5.1,2.9 8.9,5.4 12.2,5.4 0.3,0 1.1,-0.2 1.4,-0.4 3.5,3.2 5.7,6.8 6.6,7.8 0.9,1.1 3,3 4.1,3.8 2.8,2.4 5.4,2 6,1.9 0.6,-0.1 2.5,-0.3 3.6,-1.1 0.8,-0.7 1.2,-1.8 1.2,-2.8 0.1,-1.8 -1.2,-4 -2,-5.8 -0.4,-0.9 -0.5,-1.7 -0.5,-1.7 0,0 2.5,-0.4 5.1,-1.1 2.5,-0.7 7.9,-2.1 14.3,-6.5 8.4,-5.9 13.4,-6.2 15.8,-6.5 0.5,1.4 2.4,6.8 2.7,7.3 0.3,0.6 2.4,-1.8 2.4,-1.8 l -2.7,-6.1 c 1.2,-0.1 2.2,-0.2 3.4,-0.1 1.3,-0.3 1.4,-1 1,-1.2 -0.6,-0.4 -3.9,-0.5 -7.4,-0.1 -2,0.2 -4.3,0.6 -5.9,1.2 -2.7,0.9 -5.5,2.4 -10.1,5.1 -2.7,1.6 -5.6,3.2 -8.5,4.4 -5,2 -9.4,3.1 -10.2,3.1 -1.4,0 0.8,-2.4 0.8,-2.4 0,0 0.2,-1.1 0.1,-1.5 -0.1,-0.1 -0.4,-0.2 -0.6,-0.1 -0.5,0.2 -1.1,0.8 -1.6,1.6 -0.5,0.8 -1.1,1.7 -1,3.1 0.1,1.8 1.1,3.6 1.8,5.5 0.6,1.3 0.9,2.6 0.9,3.1 0,0.6 0,1 -0.7,1.4 -0.5,0.3 -1.4,0.7 -2.6,0.7 -1.3,0 -2.5,-0.3 -3.7,-1.2 -2.2,-1.7 -4.3,-4.8 -6.3,-7.2 -2.4,-2.9 -4.9,-4.8 -5.2,-5.1 -0.6,-0.5 -2,-1.7 -3.1,-2.4 -0.4,-0.2 -0.7,-0.4 -1,-0.5 -0.3,-0.1 -0.5,0 -0.5,0 -0.2,0.2 -0.1,0.4 0,0.6 0.2,0.3 0.6,0.9 0.7,1.2 0.2,0.6 0,0.9 -0.3,0.8 -0.3,-0.1 -2.2,-0.6 -4.5,-1.6 -1.3,-0.6 -2.6,-1.4 -4,-2.2 -1.3,-0.8 -2.4,-1.6 -3.1,-2.2 -1.2,-0.9 -1.8,-1.4 -2.4,-1.9 -1,-0.7 -2.4,-1.4 -3.5,-1.5 -0.5,-0.1 -0.6,0.1 -0.8,0.3 -0.2,0.2 -0.3,0.5 -0.1,0.7 0.2,0.2 0.8,0.5 1.3,0.9 0.4,0.3 0.8,0.7 0.8,0.8 -0.1,0.4 -1.1,0.3 -2.6,0.6 -2.1,0.5 -4.9,1.1 -6.1,1.1 -2.7,0 -3.7,-0.6 -3.7,-1.7 0,-0.9 0.9,-2.2 2.8,-4.1 0.4,-0.5 1,-0.9 1.6,-1.3 1,-0.4 1.8,-0.9 2,-1.5 0.5,-0.7 0.4,-1.6 0.6,-2.1 0.1,-0.2 0.4,-0.5 0.9,-0.6 1.6,-0.3 3.6,2.4 4.7,2.8 0.7,0.3 0.9,-0.5 0.2,-1.5 -0.6,-1 -1.5,-2.5 -3.3,-3.6 -1,-0.6 -2.1,-1.2 -3.8,-1.5 -1.3,-0.2 -2.8,-0.3 -4.7,0 -1.3,0 -4.6,0.4 -5.6,0.4 -2.5,0.1 -3.4,-1.2 -3.2,-2.6 0.4,-1.1 1.8,-2.1 2.5,-2.5 1.3,-1 4.2,-2.6 7,-4.3 1.8,-1 2.9,-2 4.3,-2 1.1,0 1.6,1.2 2.4,2.3 0.8,1.1 1.7,2.1 1.8,2.3 l 0.7,-0.1 c -0.3,-0.6 -1.1,-3.3 -2.6,-5.7 -1.8,-2.4 -4.6,-4.4 -5,-4.7 -0.7,-0.6 -2.6,-1.9 -4.8,-2.9 -3.1,-1.5 -5.4,-2.8 -5.3,-4.1 0,-0.9 1.8,-1.6 4.7,-1.6 2.9,0 7.4,1 11.7,3.2 5.8,3.2 14.5,8.5 15.5,9 1.7,0.9 4.5,2.6 6.8,3.8 2.3,1.3 4.9,2.9 9,4.8 2.3,1.1 7.5,2 7.6,1.1 0,-0.4 -0.7,-0.5 -1.7,-1.1 -1.1,-0.5 -2.4,-1.1 -2.4,-1.1 0,0 11.8,-7.7 15.6,-10.9 4.1,-3 9.5,-7.5 12.3,-11.6 0.5,-0.8 1.3,-1.9 1.8,-2.6 3.3,-4.9 8.4,-7.6 10.2,-8.1 1.4,2 3.7,4.8 5,6.1 1.6,1.4 2,0.7 2.1,0.6 -3.4,-4.3 -7.6,-10.2 -9.9,-16.6 -1.6,-4 -2.2,-8 -1.7,-11.4 0.7,-5.5 2.9,-9.5 6.1,-13.3 3.5,-4.2 8.2,-8.1 11.6,-12.5 2.1,-2.6 3.6,-5.3 5,-8.2 0.6,-1.3 1.3,-2.9 1.9,-4.3 2.5,-5.3 5.3,-10.2 9.9,-14.3 3.6,-2.6 9,-4.4 14,-5 0.7,-0.1 3.3,-0.3 5.8,-0.2 2.2,0.1 4.3,0.4 4.5,0.4 0.4,0 0.7,-0.6 -0.4,-1.1 -0.5,-0.1 -1.5,-0.3 -2.4,-0.5 -1.3,-0.1 -2.2,-0.6 -2.2,-1.1 0,-0.6 2.5,-2 5.8,-3.6 3.5,-1.7 7.9,-3.5 11.3,-3.6 4.8,-0.1 6.4,1.9 7.5,4.7 0.9,2.2 1.6,4.7 3.6,7.1 2.1,2.6 5,4.1 6.3,4.6 0.3,0.1 0.5,-0.1 0.7,-0.1 0.2,-0.2 0.2,-0.3 0.1,-0.5 -0.3,-0.6 -1.6,-1.3 -1.8,-2 -0.1,-0.2 4.1,-1.7 4.8,-1.8 0.6,0 1.4,0.5 1.4,1.5 0,0.8 -0.4,1.9 -1,3 -0.5,0.7 -1.3,1.6 -2.3,2 -1.1,0.6 -2.5,0.6 -4.4,0.6 -0.8,0 -2,0 -2.9,0 -1.9,0 -3.4,0.2 -3.8,0.4 -1.7,0.4 -3.6,2.3 -4.2,2.8 0,0 -0.9,-1.2 -2,-2.3 -1.1,-1.2 -2.5,-2.3 -2.7,-2.3 -0.5,0 -0.6,0.6 -0.4,0.9 0.1,0.3 0.9,2 1.5,2.6 0.4,0.5 1.1,1.5 1.5,2.1 0.4,0.6 1.5,2.5 1.9,3.7 0.5,1.4 0.9,2.9 1,4.7 0.1,4.3 -0.9,5.2 -1,11.8 -0.1,6 2,9.8 4.1,13.7 1.2,2.5 3.3,6.5 4.2,10.2 1,4 0.8,5.7 0.8,7.8 0,0.9 -0.4,3.1 -0.8,4.4 -0.7,2.6 -1.9,4.7 -3.2,6.9 -0.5,0.9 -1.3,2.2 -1.9,3 -0.6,0.9 -3.6,5 -6.3,7.1 0,0.1 -0.6,0.4 -0.4,0.8 0.2,0.4 0.6,0.1 1,-0.1 0.2,-0.1 3.9,-1.4 6.9,-5.7 2,-2.8 4.8,-7.2 5.9,-11 0.6,-1.8 0.7,-3.6 0.8,-5.1 1.8,0 6.3,0.1 11.2,0.9 5,0.8 10,2.8 13.9,4.9 5.7,3.3 7.4,4.7 7.4,4.7 l 2.4,-0.8 c 0,0 -3.6,-3.9 -11.7,-7.3 -5.5,-2.3 -13,-4.9 -23.2,-4.4 -0.2,-3.4 -0.3,-3.9 -0.7,-6 -2.1,-9.8 -8.2,-12.7 -8.4,-24.6 0.1,-3.5 1.4,-8.4 1.4,-12.3 0,-2.2 -0.8,-3.6 -1.3,-5.5 0.2,-0.8 0.8,-1.7 1.4,-2.3 0.5,-0.4 0.9,-0.5 1.4,-0.7 1.3,-0.4 2.9,-0.8 4.6,-0.9 3,-0.1 6.3,0 8.6,-1.9 2.7,-2.4 3.1,-5.9 2,-8.3 -1.3,-2.6 -8.5,0.7 -9,1 -0.6,0.3 -2.2,-1.1 -4.3,-5 -2.1,-3.9 -1.5,-9.1 -10.3,-9.1 -10.3,0 -20,7.5 -23.1,10 -4.3,0.5 -9.2,1.6 -13.3,4.1 -4.3,2.6 -7.6,6.8 -10.1,11.4 -2.5,4.7 -4.1,9.8 -6.8,13.8 -2.5,3.9 -5.4,6.9 -8.5,10 -3.5,3.4 -7.2,6.8 -9.4,11.6 -4.4,9.6 -2.6,20.1 3.4,28.2 -1,0.3 -4.4,1.8 -7.2,4.4 -1.9,1.8 -3.5,4 -4.9,5.9 -1.4,1.9 -2.7,3.5 -3.2,4.1 -1.5,1.7 -4.3,4.4 -7.6,7.1 -3.9,3.1 -8.5,6.3 -11.7,8.2 -3.7,2.7 -6.2,4.4 -6.2,4.4 0,0 -2,-1 -2.9,-1.4 C 51.1,123.6 46,121.3 41.3,118.3 32.1,112.3 21.8,106 13.6,106 Z" display="inline" inkscape:connector-curvature="0" style="display:inline"/>
        <path id="path5893" d="m 144.6,189 c 4.7,2 8.9,3.2 12.4,4 5.4,1.3 8.9,1.5 8.9,1.5 0,0 1.8,0.2 1.8,-0.4 0,-0.6 -1.7,-0.8 -1.7,-0.8 0,0 -2.8,-0.4 -6.3,-1.2 -3.1,-0.7 -6.7,-1.7 -9.3,-2.8 -1,-0.4 -6.8,-2.6 -12.3,-5.8 -6.5,-3.7 -11.2,-8.1 -11.2,-8.1 0,0 -3.3,0.6 -3,1.8 0.3,1 2.7,2.2 3.4,2.7 1.5,1.1 3.8,2.4 5.4,3.3 -2.7,4.5 -9.7,11.2 -18.3,16.5 l 2.4,1.7 c 2.2,-1.2 5.2,-2.9 7.5,-4.9 1.8,-1.4 3.4,-2.9 4.4,-4 2.8,-2.8 5.1,-5.7 6.8,-8 3.1,1.8 6.2,3.3 9.1,4.5 z" display="inline" inkscape:connector-curvature="0" style="display:inline"/>
        <path id="path5895" d="m 206.1,135.2 c 0,0 3.7,4.6 4.6,5.6 0.9,0.9 1.7,1.7 2.6,2.5 1.3,1.1 2.6,1.8 2.6,1.8 0,0 -1.9,2.2 -3.6,4.3 -1.9,2.4 -4.1,5.2 -4.1,7.8 -0.1,2.2 0.8,3.7 1.9,4.7 0.9,0.8 2,1.3 3.3,1.5 1,0.2 2.1,0.4 3.4,0.3 2,0 4.7,-0.8 7,-1.7 2.9,-1.1 5.2,-2.4 6,-2.4 0.5,0 0.9,0.4 1.5,0.9 0.5,0.4 1.2,0.7 1.9,1.1 1.2,0.5 2.9,0.6 4.9,0.6 2.2,0 4.8,-0.7 7.1,-1.4 2.7,-0.8 5,-1.8 6.7,-1.7 1.6,0 3.9,1.2 6.2,2.9 2.5,1.9 4.8,4 6.9,5.6 4.2,3.2 7.4,4.6 10.1,4.7 4,0.4 5.3,-3.5 4.5,-5.4 -0.8,-1.9 -1.7,-2.9 -3.4,-4.8 -1,-1.1 -2.3,-2.5 -3.3,-3.8 -1.3,-1.6 -2.2,-3 -2.2,-3 0,0 1.1,-0.3 2.8,-0.3 3.8,-0.4 10.4,2 14.5,2.1 5.9,0.1 7.4,-2.9 7.6,-5.6 0.3,-3.8 -5.8,-6.7 -10.2,-8.1 -4.4,-1.4 -17.1,-5.4 -17.1,-5.4 0,0 1.1,-1.9 2.6,-3.7 1.6,-1.9 3.6,-3.7 4.7,-4.7 2.2,-2 7.3,-5.1 9.9,-6.9 2.6,-1.8 3,-4.8 2.3,-6.6 -0.7,-1.7 -2.3,-2.2 -6.1,-2.1 -4.9,0.1 -14,3.9 -21.2,7.3 -1.6,0.8 -3.4,1.5 -4.9,2.1 -1.8,0.7 -3.3,1.4 -4.5,1.7 -0.9,-1.1 -3.5,-1.7 -6.4,-1.7 -0.8,0 -4,0.6 -4,0.6 l -2.5,-6.1 -2.3,2.1 c 0,0 3,3.3 2.8,4.1 -0.1,0.3 -0.7,0.8 -1.2,0.9 -0.6,0.2 -1.2,0 -1.6,0 -0.3,0 -0.6,0.2 -0.6,0.4 0,0.2 0.2,0.4 0.5,0.5 0.6,0.2 1.6,0.3 2.7,0.2 1.2,-0.1 3.6,-0.4 5.8,-0.7 2.2,-0.3 4,0.5 4,0.8 0,0.1 -0.6,0.3 -1.3,0.5 -1.2,0.3 -2.7,0.6 -2.7,0.6 l 0,0.6 c 0,0 2.1,0.2 4.1,-0.1 2.4,-0.4 4.8,-1.2 5.7,-1.6 0.3,-0.1 2.1,-0.8 4.3,-1.8 4.2,-1.8 10.2,-4.6 12.2,-5.4 3.1,-1.3 8.4,-3.3 11.4,-3.3 2.9,0 4.1,0.6 4.3,2.4 -0.2,1 -0.4,1.8 -1.4,2.7 -1.6,1.1 -3.8,2.4 -6,3.8 -2.9,1.9 -5.7,4.2 -7.4,5.8 -2.5,2.4 -4.3,5.1 -5.6,8.4 -0.9,1.9 -0.5,3.3 -0.3,3.6 0.6,1.5 1.9,2.8 2.4,2.6 0.2,-0.1 0.7,-0.5 0.6,-1 -0.1,-0.7 -0.9,-1.2 -1,-2.3 -0.1,-0.9 0.3,-1.5 0.3,-1.5 0,0 1.6,0.5 4.8,1.4 3.1,0.9 13.1,3.6 16.5,5.2 1.9,0.9 3.5,2.2 4.1,3.5 0.5,0.9 0.3,1.9 0.1,2.3 -0.7,1.3 -2.1,2.6 -5.2,2.6 -2.6,0 -5.4,-1 -8.1,-1.6 -2.6,-0.6 -5.2,-1 -6.8,-1 -0.9,0 -2.2,0.1 -3.4,0.4 -1.8,0.4 -3.7,1.1 -4.4,2 -0.2,0.2 -0.1,0.5 0.2,0.6 0.4,0.2 1,0.1 1.2,0.1 0.3,0 0.9,0 1.8,0.9 1.1,1.3 1.6,1.8 1.9,2.2 0.7,0.8 4.7,5 5.4,5.9 0.8,0.9 1.8,2.1 1.7,3.3 0,1 -0.9,2.1 -2.5,2.1 -3,0 -6.1,-2.9 -8.8,-4.5 -0.8,-0.6 -2.6,-1.7 -4.4,-3.2 -1.6,-1.3 -3,-2.7 -4.8,-3.8 -1.7,-1 -3.9,-1.7 -5.7,-1.8 -2.9,-0.1 -4.6,0.7 -6.6,1.5 -2.1,0.8 -5,1.5 -7.4,1.5 -3.5,-0.1 -4.3,-1.1 -4.8,-1.6 1.3,-1 3,-1 4.7,-1.1 0.8,-0.1 1.2,-0.5 1.2,-0.7 0,-0.4 -0.5,-0.9 -1.3,-1 -0.8,-0.1 -1.6,0.2 -2.5,0.4 -1.6,0.3 -3.4,0.9 -4.5,1.3 -1.5,0.5 -4.3,1.5 -7.2,2.7 -2.7,1 -5.7,1.8 -7.6,1.9 -4,0.1 -5.1,-2.5 -5.1,-4.1 0,-3.2 3.8,-7.5 5.5,-9.8 1.8,-2.1 4.1,-5.1 4,-6.8 0,-1 -0.6,-1.4 -1,-1.9 -0.4,-0.5 -0.8,-1.1 -1.1,-1 -0.5,0.2 -0.3,0.3 -0.2,1.3 0,0.4 0,1.2 -0.2,1.9 -0.2,0.8 -0.6,1.5 -0.6,1.5 0,0 -2,-1.4 -4,-3.5 -2.1,-2.2 -4.5,-5.8 -4.5,-5.8 l -1.8,1 -0.4,0.7 z" display="inline" inkscape:connector-curvature="0" style="display:inline"/>
        <g id="g5897" display="inline" style="display:inline">
          <polygon id="polygon5899" points="246,115.1 96.9,193.9 76.3,166.2 229.4,85.5 " style="fill:#ff0000"/>
        </g>
      </g>
      <g id="Layer_2">
        <g id="g5902">
          <path id="path5904" d="m 292.7,132.8 c -1.1,-0.5 -4.9,-1.4 -11.4,-2.7 0,0.1 -11.3,-2.1 -11.3,-2.1 l -0.5,-0.1 -0.2,0.5 c 0,0.1 -0.4,1.4 -0.1,2.7 0.1,0.6 0.4,1.3 1,1.7 -0.6,-0.4 -1.4,-1.1 -1.6,-2.4 -0.1,-0.4 -0.1,-1 0,-1.5 1.1,-5.2 4.5,-10.2 10.6,-15.2 0,-0.1 4.3,-3.4 4.3,-3.4 l 2,-1.5 c 1.5,-1.2 2.3,-3 2,-4.4 -0.1,-0.3 -0.2,-0.6 -0.4,-0.9 -0.6,-1.1 -3,-3.1 -10.9,0.2 -1.2,0.6 -2.6,1.3 -4,2 -5.8,3.1 -9.5,5.3 -12.1,6.8 -4,2.3 -5.9,3.4 -9.6,4.8 -0.4,0.1 -0.7,0.2 -1.1,0.3 0.2,-0.2 0.3,-0.5 0.3,-0.7 0,-0.1 0,-0.1 0,-0.2 -0.1,-0.7 -1.1,-1 -1.9,-1.2 -1.7,-0.4 -3.7,0.1 -5.8,0.7 l -2,0.5 0,0 c -0.3,0 -0.5,-0.1 -0.7,-0.1 0,0 0,0 -0.1,0 0.3,-0.4 0.5,-0.7 0.5,-1.1 0,0 0,-0.1 0,-0.2 -0.2,-1.1 -2.2,-3.1 -3.4,-4.3 L 211,85.3 l -0.1,0 c -16,-9.7 -26.2,-9 -34.5,-8.5 l -2.4,0.2 0,0.6 c 0.3,3.4 -0.2,6.6 -1.5,9.7 -2.8,6.9 -5.3,10.1 -7.1,11.6 2,-2.6 4.1,-6.3 6.2,-11.1 2.2,-5 2.4,-9.6 1.5,-14 -1.1,-5.4 -3.8,-10.2 -6.7,-14.6 l -1,-1.4 c -2.2,-3.3 -3.4,-6 -3.9,-8.9 -0.6,-3.1 -0.5,-6.4 -0.4,-10.4 l 0.1,-2.4 c 0,-1 -0.1,-1.9 -0.3,-2.8 -1.1,-5.6 -5.6,-9.9 -5.9,-10.1 -0.2,-0.3 -0.4,-0.5 -0.6,-0.8 1,0.7 2.3,1.8 3.5,3.2 l 0.4,0.5 0.4,-0.6 c 0.6,-0.7 2,-2.2 3,-2.9 1.2,-0.8 3.8,-1.1 6.5,-1.3 l 2.1,-0.2 c 3.4,-0.3 5.6,-2.2 6.5,-5.4 0.7,-2.4 -0.3,-3.7 -1.5,-4.1 -1,-0.3 -2.8,0.5 -5.3,2 l -0.5,0.3 c -0.3,0.2 -0.5,0.4 -0.5,0.7 0,0.1 0,0.2 0,0.3 0.1,0.3 0.3,0.6 0.7,1 -5,-2.1 -6.4,-4.8 -8.2,-8.2 L 160.2,5.3 C 157.6,0.9 153.3,1.2 149,2.2 c -4.7,1.1 -13.1,7.1 -14.2,8.2 -0.5,0.5 -0.6,1 -0.5,1.3 0,0 0,0.1 0,0.1 0.2,0.7 0.9,1.1 1.3,1.3 -1.2,0.1 -2.5,0.3 -3.8,0.5 -2.7,0.5 -5.4,1.2 -7.9,2.2 -5,2 -7.7,4.4 -8.3,5.1 -2.9,2.9 -5.4,7.1 -7.6,12.8 -0.6,1.5 -1.2,3.2 -1.8,5 -2.9,9.3 -7,14.5 -12.9,21.4 -6.2,7.2 -8.7,15.2 -7.1,22.9 1.1,5.7 5,11.6 8.1,15.7 -0.1,0.1 -0.1,0.1 -0.1,0.2 -0.1,-0.1 -0.5,-0.6 -0.5,-0.6 l -0.4,0.1 c -2,0.8 -7.3,4.3 -10.2,9.7 -3.5,6.6 -6.4,10.1 -14.2,17.1 -3.3,2.9 -6.3,5.5 -8.8,7.5 -2.1,1.7 -3.7,3 -4.8,4.1 l -0.7,0.6 c 0,0 2,0.7 3.1,1.1 -1,-0.1 -2.1,-0.2 -3.3,-0.4 -2.5,-0.6 -4.4,-1.4 -4.4,-1.4 0,0 -4,-1.7 -4,-1.7 -4.8,-2.1 -12.6,-5.5 -22.5,-10.2 -10.9,-5.2 -18.1,-4.2 -20.6,-2.8 -0.8,0.5 -1.3,1 -1.4,1.6 0,0.2 0,0.4 0,0.6 0.3,1.6 2.7,2.8 6.4,4.1 5.6,2 9.9,5.7 10.9,7.1 0.1,0.2 0.3,0.5 0.5,0.8 0,0 -0.1,-0.1 -0.1,-0.1 L 19,136 18.7,135.7 c -0.4,-0.5 -1,-0.8 -1.6,-0.9 -1.7,-0.2 -3.5,1.3 -3.7,1.5 0,0 -3.8,2.8 -3.8,2.8 l -1.5,1.2 c -3.1,2.3 -5.9,4.3 -5.5,6.4 0.1,0.2 0.1,0.5 0.3,0.7 1.3,2.4 3.5,2 7.5,1.3 l 4.2,-0.7 c 5.5,-0.8 8.4,2 9.6,3.4 -0.2,-0.1 -0.4,-0.2 -0.6,-0.4 -1.3,-0.9 -2.4,-1.3 -3.4,-1.2 -0.6,0.1 -1.2,0.5 -1.6,1.1 -0.2,0.3 -0.2,0.7 -0.3,1.1 -0.1,0.8 -0.1,1.7 -1.3,2.3 -2.2,1.2 -4.2,4.6 -4.3,4.7 -0.8,1.6 -0.9,2.8 -0.2,3.6 1.3,1.5 4.7,1 6.5,0.4 l 2.7,-0.9 c 1.3,-0.4 2.4,-0.8 3.2,-1 1,-0.2 1.2,-0.7 1.2,-1 0,-0.1 0,-0.2 0,-0.3 -0.1,-0.5 -0.6,-1.1 -1.5,-1.5 0.6,0.2 1.5,0.5 2.3,0.9 7.4,5 12.2,6 14.2,6.4 l 0.7,0.2 c 1.1,0.3 1.5,-0.2 1.7,-0.4 0.2,-0.3 0.3,-0.7 0.2,-1.1 -0.1,-0.2 -0.2,-0.4 -0.3,-0.7 1.1,0.6 3.3,2.1 5.4,3.6 1.7,1.3 3,2.5 3.8,3.3 2.3,2.5 5.3,5.3 5.3,5.3 2.6,2.3 5.8,2.6 8.7,0.9 1.1,-0.6 1.3,-1.5 1.1,-2.6 -0.3,-1.4 -1.3,-3.2 -2.5,-5.3 l -0.1,-0.2 c -0.6,-1 -0.9,-1.8 -1,-2.5 -0.2,-0.8 -0.1,-1.5 0.1,-2 -0.1,0.3 -0.1,0.6 -0.1,0.9 0,0.1 0.1,0.2 0.1,0.3 0.1,0.3 0.4,0.7 1.2,0.6 1.8,-0.2 9,-2.9 14.7,-6.8 l 5,-3.5 0.7,-0.5 c 1.9,-1.4 3.6,-2.5 6.5,-4.2 2.1,-1.2 4.7,-2.1 7.9,-2.7 0,0 0.5,-0.1 1.1,-0.2 0,0.1 0.3,0.6 0.3,0.6 9.3,17.6 22.7,30.4 39.7,38.1 -0.1,0.1 -0.1,0.2 -0.2,0.3 -0.5,-0.2 -2.4,-1.1 -2.4,-1.1 l -0.3,0.5 c -1.8,3.2 -8.4,14 -17.6,19.3 l -0.8,0.5 0.8,0.5 c 17.4,11 38.2,14.9 58.4,10.8 31.3,-6.2 56,-30.5 62.7,-61.7 l 0,0 0,-0.2 c 0.3,-1.3 0.3,-2.1 0.2,-2.4 0,-0.1 0,-0.2 -0.1,-0.2 0,0 -0.1,-0.1 -0.1,-0.2 0,0 0.6,-0.1 0.6,-0.1 l 0,0 c 2.2,-0.5 3.9,-1.2 4.7,-1.6 0,0 0,0 0,0 l 0.1,0 0.1,-0.1 0.6,-0.3 -0.1,0.1 2.1,-1 c 5.4,-2.8 10.2,-0.7 13.2,1.6 4.1,3 12.4,7.2 12.8,7.4 1.1,0.4 2,0.7 2.9,0.8 1.8,0.3 3,0 3.8,-0.8 0.5,-0.5 1,-1.5 0.6,-3.3 -0.1,-0.5 -0.5,-1.4 -2.9,-3.7 -1.6,-1.6 -3.6,-3.2 -4.9,-4.3 l -1.3,-1.1 -0.5,-0.5 c -0.9,-0.9 -1.8,-1.8 -3.3,-1.9 2.6,-1.8 5.9,-2.4 10.4,-2.1 1.7,0.1 3.4,0.4 4.8,0.6 l 2.6,0.4 c 4.9,0.5 8.8,-1.1 9.4,-4 0.1,-0.5 0.1,-0.9 0,-1.4 0.2,-1.6 -1.6,-3.3 -4.9,-4.7 m -50.1,19.4 0,0 c 0,0 0,0 0,0 z m 0.4,0.1 c 0,0 0,0 0,0 0.1,0 0.1,0 0,0 l 0,0 z" inkscape:connector-curvature="0" style="fill:#ffffff"/>
          <path id="path5906" d="m 161.7,22.2 c -1.1,0.8 -2.5,2.2 -3.1,3 -2,-2.3 -4.3,-3.8 -5,-4.3 -0.1,0 -0.2,0 -0.4,0 0,0.6 1.6,2.6 1.6,2.6 0,0 6.1,5.7 5.9,12.4 -0.2,9.2 -1,14.2 4.4,22 0.3,0.5 0.6,0.9 1,1.4 34.3,0.8 64.8,23.8 74.5,57.5 2.6,-0.6 5,-1.5 7,-1 2,0.4 2.7,1.2 -2.6,2.6 0,0 2.6,0.2 5.7,-0.9 6.3,-2.3 7.4,-3.8 21.8,-11.5 1.5,-0.8 2.8,-1.4 4,-2 C 262,56.3 218.9,23.3 170.3,20.6 c -3.6,0.4 -7,0.5 -8.6,1.6" inkscape:connector-curvature="0" style="fill:#ff0000"/>
          <path id="path5908" d="m 267.9,128.7 c -0.7,3.5 2.6,4.9 2.6,4.9 0,0 0.9,-0.4 0.1,-1.2 -2.1,-2 -0.8,-3.9 -0.8,-3.9 0,0 5.6,1 11.3,2.2 -0.3,-5.1 -1,-10.3 -2,-15.5 -0.1,-0.7 -0.3,-1.3 -0.4,-2 -4.5,3.7 -9.4,8.8 -10.8,15.5" inkscape:connector-curvature="0" style="fill:#ff0000"/>
          <path id="path5910" d="m 269.6,144.3 c 0,0 -0.8,0.5 1,0.3 1.7,-0.2 2.7,1.2 3.8,2.2 0.7,0.6 3.8,3.2 6.2,5.5 0.4,-3.6 0.7,-7.2 0.8,-10.9 -4,-0.3 -8.4,0 -11.8,2.9" inkscape:connector-curvature="0" style="fill:#ff0000"/>
          <path id="path5912" d="m 54.6,138.8 0,0 c 0,0.1 0.1,0.1 0,0 1.6,0.4 3.5,0.6 5.2,0.4 0,0 1.5,-0.1 0.4,-0.4 0,0 -1.5,-0.5 -4.2,-1.5 2.4,-2.3 7.6,-6.2 13.6,-11.6 8,-7.2 10.9,-10.8 14.3,-17.3 2.9,-5.5 8.3,-8.8 9.9,-9.4 0.3,0.3 0.5,0.6 0.8,0.9 0.2,-0.4 0.5,-0.8 0.7,-1.2 -3.3,-4.3 -7,-10.1 -8.2,-15.7 -1.6,-8.2 1.4,-15.9 7,-22.4 5.6,-6.5 10,-12 13,-21.6 0.6,-1.8 1.1,-3.4 1.7,-4.9 -37.6,19.8 -62,58.8 -62.8,101.6 2.6,1.1 4,1.7 4,1.7 0,0 2,0.8 4.6,1.4" inkscape:connector-curvature="0" style="fill:#ff0000"/>
          <path id="path5914" d="m 276.8,158.3 c 0,0 -8.6,-4.3 -12.7,-7.3 -4.1,-3 -8.9,-4.2 -13.8,-1.6 -0.9,0.5 -1.8,0.9 -2.8,1.3 l -5.2,2 -0.3,2.4 c -2.1,10.1 -6.1,19.7 -11.8,28.1 -11.3,16.9 -29.1,29.6 -50.7,33.9 -20.8,4.2 -41.4,-0.2 -58,-10.7 -17.8,-11.2 -31.1,-29.3 -35.6,-51.5 -1.5,1.1 -3.2,2.3 -5.7,4 -5.9,3.9 -12.9,6.6 -14.4,6.7 -1.5,0.1 -0.3,-2.2 0.3,-2.9 0,0 0.4,-2.3 -0.9,-0.7 -1.2,1.6 -2.4,3.5 -0.3,7.3 2.2,3.8 3.6,6.3 1.8,7.4 -3,1.8 -5.9,1 -8,-0.9 0,0 -3,-2.7 -5.3,-5.3 -0.9,-0.9 -2.3,-2.2 -3.8,-3.4 15.3,60.3 75.3,98.7 137,86.4 48.8,-9.7 84.5,-48.3 92.8,-94.4 -0.7,-0.1 -1.6,-0.4 -2.6,-0.8" inkscape:connector-curvature="0" style="fill:#ff0000"/>
          <path id="path5916" d="m 299.1,135.6 c -2.7,-3.2 -4.4,-3.7 -10.1,-5.2 l -0.7,-0.2 c -1.4,-0.4 -4.9,-1 -8.5,-1.7 -3.8,-0.7 -8.5,-1.5 -9.4,-1.9 0.6,-1.2 3.9,-7.8 10.1,-12.2 6.1,-4.3 8.7,-7.1 9,-9.5 0.1,-0.4 0,-0.8 -0.1,-1.2 -0.1,-0.6 -0.5,-1.3 -1,-1.9 -0.9,-1.1 -3.5,-4.2 -18.1,3.5 -3.1,1.6 -6.3,3.4 -9.1,5.1 -4.1,2.3 -7.6,4.4 -9.6,5.1 -0.6,-0.5 -3.3,-2.1 -8.8,-0.7 0,0 -1.6,0.4 -1.9,0.5 -0.4,-0.8 -2,-4 -2.9,-4.9 l -0.2,-0.2 -2.5,1.2 0.3,0.3 c 1.5,1.5 3.2,3.4 3.2,3.9 0,0.2 -0.1,0.4 -0.4,0.7 -0.5,0.4 -1.4,0.7 -2,0.6 -0.2,0 -0.7,-0.1 -0.9,0.3 l -0.1,0.1 0.1,0.2 c 0.4,0.6 2.3,0.3 3.1,0.2 1.2,-0.2 2.4,-0.5 3.5,-0.8 2,-0.5 3.9,-1 5.4,-0.7 1.1,0.2 1.2,0.5 1.2,0.5 0,0 -0.1,0.6 -3.9,1.6 l 0.1,0.6 c 0.1,0 2.7,0.2 5.8,-0.9 3.8,-1.4 5.6,-2.5 9.7,-4.8 2.7,-1.5 6.3,-3.6 12.1,-6.8 8.4,-4.5 12.6,-4.3 13.8,-2.6 0.7,1.2 0.2,3.1 -1.4,4.3 l -2,1.5 c -4.7,3.5 -13.4,9.9 -15.3,19.1 -0.7,3.7 2.7,5.2 2.7,5.2 l 0.1,0 0.1,0 c 0.1,0 0.5,-0.2 0.6,-0.7 0,-0.1 0,-0.2 0,-0.4 -0.1,-0.2 -0.2,-0.5 -0.4,-0.7 -0.5,-0.6 -0.8,-1.2 -0.9,-1.7 -0.1,-0.7 0,-1.2 0.1,-1.4 2.1,0.4 19.9,3.5 22.3,4.6 3,1.3 4.7,2.7 5,4.2 0.1,0.4 0.1,0.7 0,1.1 -0.5,2.4 -4,3.8 -8.4,3.4 l -2.6,-0.4 c -4.7,-0.8 -11.9,-2 -16.9,2.2 -0.2,0.2 -0.3,0.4 -0.3,0.6 0.1,0.3 0.5,0.4 1.4,0.3 1.3,-0.1 2.1,0.7 3,1.6 l 0.5,0.5 1.3,1.1 c 2.2,1.8 7.3,6.2 7.6,7.6 0.2,0.9 -0.1,1.7 -0.7,2.2 -1.1,0.9 -3.2,0.9 -5.4,-0.1 -0.1,0 -8.6,-4.3 -12.6,-7.2 -4.7,-3.5 -9.5,-4 -14.1,-1.7 -4.9,2.6 -11.1,4.4 -13.8,2 0,0 0,0 -0.1,-0.1 0.4,-0.4 1.5,-1.2 3.9,-1.5 1.1,-0.1 1.7,-0.3 1.9,-0.7 0.1,-0.2 0.1,-0.4 -0.1,-0.6 -0.4,-0.4 -1.4,-0.6 -2.2,-0.4 l -0.5,0.2 c -1.7,0.5 -4.8,1.5 -10.6,4.5 -7,3.7 -11.5,4.6 -13.7,2.8 -2.4,-2 -2.7,-4.9 2.9,-13 4.6,-6.6 3.9,-8 2.5,-9.2 l -0.4,-0.4 c -0.5,-0.5 -0.8,-0.8 -1.1,-0.6 -0.2,0.1 -0.2,0.4 -0.2,0.7 0,0.1 0.1,0.2 0.1,0.3 l 0.1,0.3 c 0.1,0.7 0.2,2.5 -0.5,3.5 -1.1,-0.6 -5.5,-3 -9.5,-8.7 -1.8,-2.6 -2.5,-3 -3,-2.7 -0.4,0.2 -0.4,1 -0.2,2 0.1,0.7 0.4,1.4 0.6,2.1 l 0,0.1 0,0.1 c 0.3,0.3 6.3,7.5 11.1,9.4 -0.8,1.2 -3.7,5.3 -5.7,9.1 -0.9,1.7 -1.1,3.5 -0.8,5 0.1,0.7 0.4,1.4 0.8,2 1.3,2 3.7,3.1 6.9,3 4.5,-0.1 8.7,-2.5 11.5,-4.1 1.4,-0.8 2.7,-1.5 3.1,-1.4 0.4,0.1 0.7,0.3 1.2,0.6 1.2,0.7 2.9,1.7 6.5,1.3 4.5,-0.6 6.8,-1.6 9.9,-3 l 0.9,-0.4 c 4.2,-1.8 5.5,-1.9 12.1,1.9 0.3,0.2 8.1,6.1 13.5,7.5 2.9,0.8 5.9,0.2 7.3,-1.6 0.6,-0.8 0.9,-1.8 0.6,-2.8 -0.1,-0.5 -0.3,-1.1 -0.6,-1.6 -0.7,-1.3 -2.7,-3.1 -4.8,-5 -2.1,-2 -4.3,-4 -5.2,-5.5 1,-0.4 5,-1.6 13.1,0.1 6.1,1.3 10,-1.1 11.4,-3.5 0.7,-1.1 0.9,-2.3 0.7,-3.4 0.2,-0.6 -0.1,-1.2 -0.5,-1.7" inkscape:connector-curvature="0"/>
          <path id="path5918" d="m 133.4,84.3 c 0.3,3.7 -1.2,6.9 -3.4,7.1 -2.2,0.2 -4.3,-2.7 -4.6,-6.4 -0.3,-3.7 1.2,-6.9 3.4,-7.1 2.2,-0.1 4.3,2.7 4.6,6.4" inkscape:connector-curvature="0"/>
          <path id="path5920" d="m 133.7,62.8 c 0,0 0.5,-1.1 0.9,0.1 0.8,2.1 -3.4,8.3 -8.1,1.5 -1,-1.4 0.9,0.1 2.2,0.6 0.9,0.4 3.9,0.5 5,-2.2" inkscape:connector-curvature="0"/>
          <path id="path5922" d="m 135.2,99.6 c 0,0 0.4,-1.6 0.9,-0.4 0.8,2.1 -3.8,8.7 -10.3,2.1 -1.2,-1.2 0.9,0.1 2.2,0.7 0.9,0.3 6.1,0.3 7.2,-2.4" inkscape:connector-curvature="0"/>
          <path id="path5924" d="m 144.3,42.9 c 0.5,0 -0.9,-5.6 -3.9,-3.9 -3,1.7 -2.4,6 -2.2,7 0.2,1.1 1.1,1.4 1.8,1.5 0.7,0.1 2.7,0.2 2.5,-1.3 -0.2,-1.5 -0.3,-3.5 0.2,-3.7 0.5,-0.2 1.1,0.4 1.6,0.4" inkscape:connector-curvature="0"/>
          <path id="path5926" d="m 125.9,41.1 c 0.5,0.3 -0.4,-4.3 -3.6,-3.3 -3.1,0.9 -3.1,4.7 -2.7,6.1 0.7,2.2 1.5,3.2 3,3.1 1.8,-0.1 2.3,-1 2.2,-2.7 -0.2,-1.6 -2.1,-3.5 -1.3,-3.8 0.8,-0.4 1.9,0.3 2.4,0.6" inkscape:connector-curvature="0"/>
          <path id="path5928" d="m 123.6,28.2 c 0,0 1,-1.6 -1.8,0.2 -2.7,1.8 -4.3,5.4 -3.9,6 0.4,0.6 1.8,0.5 2,-0.4 0.2,-0.9 0.4,-2.3 1.1,-3.2 0.9,-1.1 2.6,-2.6 2.6,-2.6" inkscape:connector-curvature="0"/>
          <path id="path5930" d="m 145.6,32.8 c 0,0 2.3,2.4 0.3,-1.2 -2,-3.7 -4.4,-5 -5.5,-4.1 -1.2,0.9 0.2,1.6 1.1,1.8 0.8,0.3 2.6,1.8 4.1,3.5" inkscape:connector-curvature="0"/>
          <path id="path5932" d="m 69.6,176.3 c 0.2,-0.6 0.2,-1.3 0,-2 -0.2,-0.7 -0.5,-1.5 -0.9,-2.2 -1.4,-2.2 -2.1,-3.9 -2.3,-4.6 1.8,-0.4 10.6,-2.7 18.5,-9.3 6,-5.1 11.8,-7.5 15.6,-8.6 2.3,4.5 13.6,25.1 37.1,36.8 -5.1,10.9 -15.6,17.2 -18.2,18.7 0.8,0.5 1.5,1 2.3,1.5 0.1,0.1 0.2,0.1 0.3,0.2 9.1,-5.3 15.7,-15.8 17.7,-19.4 9.6,4.4 20,6.9 31,7.2 2.9,-0.1 2.9,-0.3 2.9,-0.6 0,0 0,-0.1 0,-0.1 -0.1,-0.3 -0.5,-0.4 -3,-0.7 -0.5,0 -43.8,-0.3 -67.4,-44.3 1.2,-0.3 2.4,-0.4 3.4,-0.5 l 0.1,0 0,0 c 1.2,-0.6 1.1,-0.9 1.1,-1 -0.1,-0.4 -0.6,-0.4 -1.2,-0.4 -0.7,0 -2.1,0.1 -3.8,0.3 l -2.1,0.3 c -3.2,0.6 -6,1.6 -8.1,2.8 -3.2,1.9 -4.9,3.1 -7.2,4.7 l -5,3.5 c -5.7,3.9 -12.7,6.5 -14.3,6.7 -0.2,0 -0.3,0 -0.4,-0.1 -0.2,-0.4 0.4,-1.7 0.9,-2.3 l 0.1,-0.1 0,-0.1 c 0.1,-0.6 0.2,-1.4 -0.3,-1.6 -0.4,-0.2 -0.8,0.2 -1.1,0.7 -1.4,1.9 -2.5,3.8 -0.3,7.6 l 0.1,0.2 c 2.2,3.9 3.3,5.9 1.8,6.8 -3.5,2.1 -6.3,0.4 -7.7,-0.8 0,0 -3,-2.7 -5.2,-5.2 -2.3,-2.6 -8.8,-7.1 -10.2,-7.5 -0.7,-0.2 -1,-0.3 -1.2,-0.1 -0.2,0.2 0,0.4 0.4,0.9 l 0.3,0.4 c 0.4,0.5 0.5,1 0.4,1.2 -0.1,0.1 -0.4,0.2 -0.8,0 l -0.8,-0.2 c -2,-0.4 -6.6,-1.4 -13.9,-6.3 -1,-0.5 -3.4,-1.5 -4,-1 -0.3,0.3 -0.5,0.4 -0.5,0.7 0,0.3 0.3,0.4 1.3,0.9 0.8,0.4 1.2,0.8 1.2,1 0,0.1 -0.2,0.2 -0.5,0.3 -0.9,0.2 -2,0.5 -3.3,1 l -2.7,0.9 c -1.7,0.5 -4.7,0.9 -5.6,-0.2 -0.4,-0.5 -0.4,-1.4 0.3,-2.6 0,-0.1 1.9,-3.3 3.9,-4.4 1.6,-0.8 1.7,-2.2 1.7,-3.1 0,-0.3 0,-0.6 0.1,-0.7 0.2,-0.3 0.5,-0.6 1,-0.7 0.7,-0.1 1.6,0.2 2.7,1 1.9,1.4 2.4,1.5 2.7,1.3 0.3,-0.2 0.1,-0.7 -0.2,-1.2 -0.3,-0.6 -3.5,-5.8 -11,-4.7 l -4.2,0.7 c -3.9,0.7 -5.6,1 -6.6,-0.8 -0.9,-1.6 1.8,-3.7 5,-6 l 1.5,-1.1 3.8,-2.9 c 0,0 1.7,-1.4 3,-1.3 0.4,0 0.7,0.2 1,0.5 l 0.5,0.4 0.1,0.1 c 1.2,1.5 2.8,3 2.8,3 l 0.1,0.1 0.7,-0.1 -0.2,-0.3 c -0.1,-0.1 -1.4,-2.9 -2.5,-4.5 -1.1,-1.6 -5.5,-5.4 -11.3,-7.5 -3.1,-1.1 -6,-2.4 -5.9,-3.8 0,-0.3 0.4,-0.7 1,-1 2.4,-1.3 9.2,-2.2 19.8,2.8 15.7,7.4 26.4,11.8 26.5,11.9 0.1,0 2,0.9 4.5,1.5 2,0.4 3.7,0.6 5.3,0.5 1,-0.1 1.1,-0.3 1.1,-0.5 0,-0.4 -0.4,-0.5 -0.6,-0.5 0,0 -2.7,-0.9 -3.7,-1.3 1.1,-1 2.5,-2.2 4.4,-3.7 2.5,-2 5.6,-4.5 8.8,-7.5 7.9,-7.1 10.8,-10.6 14.4,-17.3 2.9,-5.5 8.1,-8.6 9.6,-9.2 3,3.4 5.7,5.6 5.7,5.6 1.3,1 1.8,0.7 2,0.6 l 0.2,-0.2 -0.2,-0.2 C 101.8,105.2 90,93.6 87.9,83 c -1.5,-7.5 0.9,-15.1 6.9,-22.2 5.8,-6.8 10.1,-12.3 13.1,-21.7 2.5,-8 5.6,-13.9 9.1,-17.4 0.7,-0.7 3.2,-3 8,-4.9 2.4,-1 5.1,-1.8 7.7,-2.2 2.9,-0.5 5.3,-0.7 8.1,-0.5 0.3,0 0.7,0 0.8,-0.3 0,-0.1 0.1,-0.4 -0.9,-0.8 l -0.1,0 -3.8,-0.4 c -0.3,-0.1 -0.9,-0.4 -1,-0.7 -0.1,-0.2 0,-0.3 0.2,-0.5 1.1,-1 9.4,-6.9 13.8,-8 3.7,-0.9 7.8,-1.4 10.2,2.7 l 1.3,2.4 c 2,3.8 3.7,7 10.4,9.3 l 0.1,0 0.1,0 c 0.2,0 0.7,-0.1 0.8,-0.5 0,-0.1 0,-0.2 0,-0.2 -0.1,-0.3 -0.3,-0.5 -0.4,-0.5 -1.3,-0.9 -1.7,-1.4 -1.7,-1.5 0,0 0,0 0,0 l 0.6,-0.3 c 1.1,-0.6 3.8,-2.2 4.6,-1.9 1,0.4 1.4,1.4 0.9,3 -0.8,2.9 -2.7,4.5 -5.8,4.8 l -2.1,0.2 c -3,0.3 -5.6,0.5 -6.9,1.4 -1.1,0.7 -2.3,2 -3,2.8 -2.4,-2.6 -5,-4.2 -5.1,-4.3 l -0.1,-0.1 -0.1,0 c -0.2,0.1 -0.3,0.1 -0.4,0.3 -0.2,0.6 1,2.1 1.6,3 0.1,0.1 6,5.7 5.9,12.3 l -0.1,2.4 c -0.3,7.8 -0.4,12.6 4.5,19.8 5.5,8.1 11,17.7 6,29.1 -2.1,4.8 -4.2,8.5 -6.2,11.1 -0.7,0.9 -1.4,1.6 -2.1,2.2 -0.4,0.4 -0.5,0.7 -0.3,0.9 0.2,0.3 0.6,0.1 1.3,-0.4 l 0.3,-0.2 c 1.5,-0.9 5.1,-2.9 9.4,-13.4 1.3,-3.2 1.8,-6.3 1.6,-9.8 0.4,0 1.6,-0.1 1.6,-0.1 8.1,-0.5 18.2,-1.2 33.9,8.3 l 0.1,0.1 2,-0.9 -0.3,-0.3 c -0.1,-0.1 -12.2,-11.7 -37.1,-9.4 -0.1,0 -0.2,0 -0.3,-0.1 -0.1,-0.5 -0.1,-0.9 -0.2,-1.4 -1.2,-5.9 -4.4,-11.3 -8.1,-17.3 -2.2,-3.5 -3.3,-6.2 -3.8,-8.7 -0.5,-2.6 -0.4,-4.9 -0.2,-7.8 0.1,-1.6 0.2,-3.4 0.2,-5.5 0,-0.9 -0.1,-1.8 -0.3,-2.6 -0.3,-1.6 -0.9,-3.1 -1.8,-4.6 0.2,-0.9 0.9,-2.3 1.6,-2.8 1.7,-1.1 4.2,-1.9 6.6,-2 2.4,-0.1 6.4,-1.2 7.7,-2.8 l 0.2,-0.3 c 1.2,-1.5 2.8,-3.4 1.9,-6.4 -0.4,-1.5 -1.5,-3.2 -4,-2.7 -0.7,0.1 -3.4,1.4 -4.5,2 -0.8,0.5 -1.2,0.9 -1.4,1.1 C 168.3,13.5 166,12 164.3,8.7 164.2,8.5 162.1,4.6 160.8,2.9 158.6,0 155.4,-0.7 150.2,0.7 146.5,1.7 142.7,3.6 138,7 l -2.5,1.7 c -0.8,0.6 -0.8,0.6 -1.1,0.9 l -0.2,0.2 c -0.9,1 -1.3,1.8 -1.2,2.5 0,0 0,0.1 0,0.1 0,0.1 0.1,0.2 0.1,0.3 -10.2,0.9 -15.9,5.2 -18.5,7.7 -3.6,3.6 -6.8,9.7 -9.4,17.9 -3.1,9.8 -7.6,15.2 -12.9,21.3 -5.5,6.5 -8.9,13.1 -7.1,24.1 0,0.2 0.1,0.5 0.1,0.7 0.8,4.2 3.2,8.7 7.1,13.5 -1.9,0.9 -6.5,3.8 -9.5,8.9 l -0.1,0.1 c -3.8,6.4 -6.1,10.3 -14.1,17.5 -3.5,3.2 -6.8,5.9 -9.4,8 -2.4,2 -4.1,3.4 -4.9,4.3 -6.6,-2.4 -16.8,-6.5 -28.1,-12.1 -16.8,-8.3 -24.4,-4.4 -26.1,-1.2 -0.3,0.6 -0.4,1.2 -0.3,1.8 0,0.1 0.1,0.3 0.1,0.4 0.5,1.3 2.2,2.4 5.3,3.6 3.2,1.2 7.4,3 10,5.2 -1.2,0.8 -5.2,3.6 -7.9,5.9 -2.7,2.3 -6.2,5.4 -5.7,7.9 0.1,0.3 0.2,0.6 0.3,0.8 1.2,1.9 3,2 4.1,2 l 0.1,0 c 0.4,0 1.5,-0.2 2.9,-0.4 2.2,-0.4 5.2,-1 6.9,-0.8 0,0 1.5,0.2 2.2,0.3 -0.4,0.5 -0.9,1.4 -0.9,2.7 0,0.7 -0.6,1.2 -1.5,1.9 -0.9,0.7 -2.1,1.6 -3,3.3 -1.3,2.3 -2.1,3.8 -1.8,5.1 0.1,0.5 0.3,1 0.8,1.4 1.4,1.5 3.4,1.9 6.1,1.2 l 7.8,-2.3 1.3,-0.6 c 0.9,-0.5 1.6,-0.8 2.5,-0.3 1.4,1 4,2.4 7.8,3.9 4.4,1.8 7.2,2.3 8.7,1.6 0,0 0.5,-0.2 0.7,-0.3 0.7,0.4 2.4,1.5 3,2.2 l 1.2,1.3 c 1.4,1.5 3.3,3.6 4.2,4.4 1.3,1.1 4.5,3.4 6.4,4 2.4,0.7 5.5,-0.1 6.9,-0.9 0.5,-0.8 1,-1.5 1.2,-2.4" inkscape:connector-curvature="0"/>
          <polygon id="polygon5934" points="81,171.1 230,72.8 250.7,104.2 101.8,202.5 " style="fill:#ff0000"/>
          <path id="path5936" d="m 287.7,163.1 c 2.1,0 3.8,1.7 3.8,3.9 0,2.2 -1.7,3.9 -3.9,3.9 -2.1,0 -3.9,-1.7 -3.9,-3.9 0.1,-2.2 1.8,-3.9 4,-3.9 l 0,0 m -0.1,0.6 c -1.7,0 -3.1,1.5 -3.1,3.3 0,1.9 1.4,3.3 3.2,3.3 1.7,0 3.1,-1.5 3.1,-3.3 0,-1.8 -1.4,-3.3 -3.2,-3.3 l 0,0 z m -0.7,5.6 -0.7,0 0,-4.4 c 0.4,-0.1 0.7,-0.1 1.2,-0.1 0.6,0 1.1,0.1 1.3,0.3 0.3,0.2 0.4,0.5 0.4,0.9 0,0.6 -0.4,0.9 -0.9,1 l 0,0.1 c 0.4,0.1 0.6,0.4 0.7,1.1 0.1,0.7 0.2,0.9 0.3,1.1 l -0.7,0 c -0.1,-0.2 -0.2,-0.6 -0.3,-1.1 -0.1,-0.5 -0.4,-0.8 -1,-0.8 l -0.5,0 0,1.9 z m 0,-2.5 0.5,0 c 0.6,0 1.1,-0.2 1.1,-0.7 0,-0.4 -0.3,-0.8 -1.1,-0.8 -0.2,0 -0.4,0 -0.5,0 l 0,1.5 z" inkscape:connector-curvature="0"/>
        </g>
      </g>
    </g>
  </g>
<style xmlns="" type="text/css" id="undefined"/></svg>