<svg xmlns="http://www.w3.org/2000/svg" baseProfile="tiny" viewBox="0 0 146 146">
  <path fill="#B7B6A8" d="M129.2 146H16.8C7.6 146 0 138.4 0 129.2V16.8C0 7.6 7.6 0 16.8 0h112.3c9.3 0 16.8 7.6 16.8 16.8v112.3c.1 9.3-7.5 16.9-16.7 16.9z"/>
  <path fill="#A4ADB7" d="M108.8 23.3H35.3c-6.6 0-12 5.4-12 12v73.3c0 6.6 5.4 12 12 12h73.5c6.6 0 12-5.4 12-12V35.3c0-6.7-5.4-12-12-12z"/>
  <circle cx="28.9" cy="27.3" r="14.5" fill="#960E0C"/>
  <path fill="#421A1A" d="M28.9 42.3c-8.3 0-15-6.7-15-15s6.7-15 15-15 15 6.7 15 15-6.7 15-15 15zm0-29c-7.7 0-14 6.3-14 14s6.3 14 14 14 14-6.3 14-14-6.3-14-14-14z"/>
  <path fill="#B7B6A8" d="M45.4 27.3c0 9.1-7.4 16.5-16.5 16.5s-16.5-7.4-16.5-16.5 7.4-16.5 16.5-16.5 16.5 7.4 16.5 16.5zM28.9 12.8c-8 0-14.5 6.5-14.5 14.5s6.5 14.5 14.5 14.5 14.5-6.5 14.5-14.5-6.5-14.5-14.5-14.5z"/>
  <circle cx="115.3" cy="27.3" r="14.5" fill="#960E0C"/>
  <path fill="#421A1A" d="M115.3 42.3c-8.3 0-15-6.7-15-15s6.7-15 15-15 15 6.7 15 15-6.8 15-15 15zm0-29c-7.7 0-14 6.3-14 14s6.3 14 14 14 14-6.3 14-14-6.3-14-14-14z"/>
  <path fill="#B7B6A8" d="M131.8 27.3c0 9.1-7.4 16.5-16.5 16.5s-16.5-7.4-16.5-16.5 7.4-16.5 16.5-16.5 16.5 7.4 16.5 16.5zm-16.5-14.5c-8 0-14.5 6.5-14.5 14.5s6.5 14.5 14.5 14.5 14.5-6.5 14.5-14.5-6.5-14.5-14.5-14.5z"/>
  <circle cx="72.1" cy="71.9" r="42.5" fill="#231F20"/>
</svg>
