<svg xmlns="http://www.w3.org/2000/svg" width="324.45987" height="200">
  <defs>
    <clipPath id="a">
      <path d="M0 601h879V0H0v601z"/>
    </clipPath>
  </defs>
  <g clip-path="url(#a)" transform="matrix(0.40314428,0,0,-0.40314428,-16.125771,220.51992)">
    <path fill="#515151" d="M781.5732 546.8997h-339.265.207-363.932c-13.521 0-24.583-11.187-24.583-24.859V75.7587c0-13.672 11.062-24.859 24.583-24.859h727.657c13.521 0 24.583 11.187 24.583 24.859v446.282c0 13.672-11.062 24.859-24.583 24.859h-24.667z"/>
    <path fill="#212121" d="M90.1536 131.75c0-4.418-3.582-8-8-8s-8 3.582-8 8 3.582 8 8 8 8-3.582 8-8m704.5161 0c0-4.418 3.582-8 8-8s8 3.582 8 8-3.582 8-8 8-8-3.582-8-8"/>
    <path fill="#5a5a5b" d="M792.4504 243.9342H90.3724c-6.6 0-12 5.4-12 12v138.295c0 6.6 5.4 12 12 12h702.078c6.6 0 12-5.4 12-12v-138.295c0-6.6-5.4-12-12-12"/>
    <path fill="none" stroke="#2d2c2c" stroke-miterlimit="10" d="M792.4504 243.9342H90.3724c-6.6 0-12 5.4-12 12v138.295c0 6.6 5.4 12 12 12h702.078c6.6 0 12-5.4 12-12v-138.295c0-6.6-5.4-12-12-12z"/>
    <path fill="#341d0e" d="M443.6278 406.2058h-339.106c30.286 63.218 94.867 106.876 169.645 106.876 74.627 0 139.099-43.483 169.461-106.495m.0218-163.2758h-338.816c30.415-62.869 94.81-106.229 169.333-106.229 74.645 0 139.13 43.503 169.483 106.539"/>
    <path fill="none" stroke="#f2f2f2" stroke-width=".5" stroke-miterlimit="10" d="M86.1667 323.7644c-8.167-112.082-12.013-193.332-12.013-193.332-1.407-13.25 20.003-63.627 55.096-66.5 197.084-9 406.707-3.625 626.324 0 35.093 2.873 56.503 53.25 55.096 66.5-1.92 35.25-69.336 182.983-114.771 198.829"/>
    <path fill="none" stroke="#404040" stroke-width="5" stroke-miterlimit="10" d="M109.375 543.5h39M182 517.625h-27V543.5h30.125v-22.75c0-1.719-1.406-3.125-3.125-3.125z"/>
    <path fill="#545454" d="M54 86.8333v141.5l-11.5-11.5v-118.5l11.5-11.5z"/>
    <path fill="none" stroke="#404040" stroke-width="5" stroke-miterlimit="10" d="M54 86.8333v141.5l-11.5-11.5v-118.5l11.5-11.5z"/>
    <path fill="#414141" d="M451 484c0-4.418-3.582-8-8-8s-8 3.582-8 8 3.582 8 8 8 8-3.582 8-8"/>
    <path fill="#3a3a3a" d="M88.25 525.5065c0-8.557-6.937-15.493-15.493-15.493-8.557 0-15.494 6.936-15.494 15.493"/>
    <path fill="#525252" d="M57.2631 525.5065c0 8.557 6.937 15.493 15.493 15.493 8.557 0 15.494-6.936 15.494-15.493"/>
    <path fill="#1f1f1f" d="M76.5 520.667h-8v8h8v-8z"/>
    <path fill="#1f1f1f" d="M76.1961 532.8763l-10.569-14.025 3.177-2.394 10.569 14.025-3.177 2.394z"/>
    <path fill="#1f1f1f" d="M64.2904 528.3627l14.025-10.569 2.394 3.177-14.025 10.569-2.394-3.177z"/>
    <path fill="none" stroke="#404040" stroke-miterlimit="10" d="M88.25 525.5065c0-8.557-6.937-15.493-15.493-15.493-8.557 0-15.494 6.936-15.494 15.493s6.937 15.493 15.494 15.493c8.556 0 15.493-6.936 15.493-15.493z"/>
    <path fill="none" stroke="#404040" stroke-width="5" stroke-miterlimit="10" d="M775.4482 543.5h-39m-33.625-25.875h27V543.5h-30.125v-22.75c0-1.719 1.406-3.125 3.125-3.125z"/>
    <path fill="#545454" d="M830.8232 86.8333v141.5l11.5-11.5v-118.5l-11.5-11.5z"/>
    <path fill="none" stroke="#404040" stroke-width="5" stroke-miterlimit="10" d="M830.8232 86.8333v141.5l11.5-11.5v-118.5l-11.5-11.5zM710.8232 54h95.417c13.521 0 24.583 11.063 24.583 24.583v441.334c0 13.52-11.062 24.583-24.583 24.583h-24.667v-35.875c0-1.719-1.406-3.125-3.125-3.125h-45.5c-1.719 0-3.125 1.406-3.125 3.125V544.5h-287.5.176-287.499v-35.875c0-1.719-1.406-3.125-3.125-3.125h-45.5c-1.719 0-3.125 1.406-3.125 3.125V544.5h-24.667c-13.521 0-24.583-11.063-24.583-24.583V78.583c0-13.52 11.062-24.583 24.583-24.583h95.417"/>
    <path fill="#3a3a3a" d="M796.5732 525.5065c0-8.557 6.937-15.493 15.493-15.493 8.557 0 15.494 6.936 15.494 15.493"/>
    <path fill="#525252" d="M827.5602 525.5065c0 8.557-6.937 15.493-15.493 15.493-8.557 0-15.494-6.936-15.494-15.493"/>
    <path fill="#1f1f1f" d="M808.323 520.667h8v8h-8v-8z"/>
    <path fill="#1f1f1f" d="M808.6272 532.8763l10.569-14.025-3.177-2.394-10.569 14.025 3.177 2.394z"/>
    <path fill="#1f1f1f" d="M820.5329 528.3627l-14.025-10.569-2.394 3.177 14.025 10.569 2.394-3.177z"/>
    <path fill="none" stroke="#404040" stroke-miterlimit="10" d="M796.5732 525.5065c0-8.557 6.937-15.493 15.493-15.493 8.557 0 15.494 6.936 15.494 15.493s-6.937 15.493-15.494 15.493c-8.556 0-15.493-6.936-15.493-15.493z"/>
    <path fill="#9d9d9d" d="M565.5502 315.4606c4.523-25.654 28.987-42.783 54.641-38.26 25.653 4.524 42.783 28.987 38.259 54.641-4.523 25.653-28.987 42.783-54.64 38.26-25.654-4.524-42.783-28.987-38.26-54.641m39.07 50.045c23.116 4.076 45.159-11.359 49.234-34.475 4.076-23.115-11.358-45.158-34.474-49.234-23.115-4.076-45.158 11.359-49.234 34.474-4.076 23.116 11.359 45.159 34.474 49.235"/>
    <path fill="#fff" d="M604.6202 365.5053c23.116 4.076 45.159-11.359 49.234-34.474 4.076-23.116-11.358-45.159-34.474-49.235-23.115-4.076-45.158 11.359-49.234 34.475-4.076 23.115 11.359 45.158 34.474 49.234"/>
    <path fill="none" stroke="#e4e4e3" stroke-width="2" stroke-miterlimit="10" d="M604.6202 365.5053c23.116 4.076 45.159-11.359 49.234-34.474 4.076-23.116-11.358-45.159-34.474-49.235-23.115-4.076-45.158 11.359-49.234 34.475-4.076 23.115 11.359 45.158 34.474 49.234z"/>
    <path fill="none" stroke="#e4e4e3" stroke-width="3" stroke-miterlimit="10" d="M570.9935 312.4879l11.478 2.024m-12.822 5.5985l11.479 2.024m61.9197 3.0615l11.478 2.024m-12.8221 5.5984l11.479 2.024m-52.0198-52.2866l3.986 10.953m-11.2592-8.3058l3.986 10.953m28.3092 55.1549l3.986 10.953m-11.2593-8.3058l3.986 10.953m19.3599-71.1782l-7.492 8.929m1.5628-13.9041l-7.492 8.929M595.2252 349.78l-7.492 8.929m1.5628-13.9041l-7.492 8.929"/>
    <path fill="#bcbdbc" d="M565.5502 315.4606c4.523-25.654 28.987-42.783 54.641-38.26 25.653 4.524 42.783 28.987 38.259 54.641-4.523 25.653-28.987 42.783-54.64 38.26-25.654-4.524-42.783-28.987-38.26-54.641m36.899 62.355c29.915 5.275 58.441-14.7 63.716-44.614 5.274-29.914-14.7-58.44-44.614-63.715-29.914-5.275-58.441 14.7-63.715 44.614-5.275 29.914 14.699 58.44 44.613 63.715"/>
    <path fill="#ccc" d="M528.4917 308.716c8.008-45.415 51.757-75.662 97.716-67.558 45.959 8.104 76.724 51.489 68.716 96.905-8.007 45.415-51.756 75.662-97.715 67.558s-76.725-51.49-68.717-96.905m73.63 69.042c29.914 5.274 58.44-14.7 63.715-44.614 5.274-29.914-14.7-58.441-44.614-63.715-29.914-5.275-58.44 14.699-63.715 44.613-5.275 29.915 14.699 58.441 44.614 63.716"/>
    <path fill="#9c9c9c" d="M566.7291 388.416c8.749 6.124 18.878 10.558 29.997 12.745l2.952-16.746c-8.075-1.634-15.479-4.78-21.966-9.089l-10.983 13.09z"/>
    <path fill="#525252" d="M597.659 395.8674c-10.157-2.013-19.424-6.043-27.456-11.597l4.272-5.094c7.156 4.842 15.363 8.366 24.335 10.164l-1.151 6.527z"/>
    <path fill="#9c9c9c" d="M632.3842 399.9927c-10.315 2.762-21.35 3.465-32.546 1.717l2.952-16.746c8.147 1.227 16.181.802 23.751-1.028l5.843 16.057z"/>
    <path fill="#525252" d="M600.7711 396.4161c10.233 1.582 20.319.965 29.766-1.507l-2.272-6.248c-8.38 2.103-17.298 2.607-26.343 1.228l-1.151 6.527z"/>
    <path fill="#9c9c9c" d="M533.275 316.8272c-.929 10.638.295 21.627 3.961 32.35l15.979-5.816c-2.623-7.81-3.6-15.795-3.112-23.568l-16.828-2.966z"/>
    <path fill="#525252" d="M542.2869 347.339c-3.335-9.803-4.479-19.843-3.685-29.576l6.548 1.153c-.616 8.618.436 17.488 3.365 26.156l-6.228 2.267z"/>
    <path fill="#9c9c9c" d="M556.0768 379.4745c-7.55-7.552-13.676-16.757-17.76-27.328l15.979-5.816c3.011 7.669 7.395 14.414 12.765 20.055l-10.984 13.089z"/>
    <path fill="#525252" d="M543.3677 350.3085c3.746 9.653 9.324 18.079 16.188 25.025l4.275-5.092c-6.011-6.206-10.907-13.677-14.235-22.2l-6.228 2.267"/>
    <path fill="#9c9c9c" d="M578.5462 252.0622c-9.678 4.515-18.582 11.07-26.035 19.605l13.026 10.931c5.452-6.177 11.878-11.016 18.854-14.479l-5.845-16.057z"/>
    <path fill="#525252" d="M556.6281 275.1226c6.822-7.79 14.945-13.8 23.771-17.979l2.275 6.247c-7.771 3.776-14.926 9.121-20.969 15.992l-5.077-4.26"/>
    <path fill="#9c9c9c" d="M535.6929 303.1328c2.766-10.315 7.675-20.222 14.787-29.044l13.026 10.93c-5.136 6.442-8.786 13.611-10.985 21.082l-16.828-2.968z"/>
    <path fill="#525252" d="M554.5969 277.5433c-6.487 8.071-10.995 17.114-13.578 26.532l6.547 1.156c2.369-8.309 6.391-16.284 12.108-23.428l-5.077-4.26z"/>
    <path fill="#9c9c9c" d="M657.2668 258.8852c-8.749-6.124-18.878-10.558-29.997-12.745l-2.952 16.746c8.075 1.634 15.479 4.78 21.966 9.089l10.983-13.09z"/>
    <path fill="#525252" d="M626.337 251.4337c10.157 2.013 19.424 6.043 27.456 11.597l-4.272 5.094c-7.156-4.842-15.363-8.366-24.335-10.164l1.151-6.527z"/>
    <path fill="#9c9c9c" d="M591.6118 247.3084c10.315-2.762 21.35-3.465 32.546-1.717l-2.952 16.746c-8.147-1.227-16.181-.802-23.751 1.028l-5.843-16.057z"/>
    <path fill="#525252" d="M623.2249 250.885c-10.233-1.582-20.319-.965-29.766 1.507l2.272 6.248c8.38-2.103 17.298-2.607 26.343-1.228l1.151-6.527z"/>
    <path fill="#9c9c9c" d="M690.724 330.4563c.929-10.638-.295-21.627-3.961-32.35l-15.979 5.816c2.623 7.81 3.6 15.795 3.112 23.568l16.828 2.966z"/>
    <path fill="#525252" d="M681.7122 299.9445c3.335 9.803 4.479 19.843 3.685 29.576l-6.548-1.153c.616-8.618-.436-17.488-3.365-26.156l6.228-2.267z"/>
    <path fill="#9c9c9c" d="M667.9223 267.809c7.55 7.552 13.676 16.757 17.76 27.328l-15.979 5.816c-3.011-7.669-7.395-14.414-12.765-20.055l10.984-13.089z"/>
    <path fill="#525252" d="M680.6314 296.9751c-3.746-9.653-9.324-18.079-16.188-25.025l-4.275 5.092c6.011 6.206 10.907 13.677 14.235 22.2l6.228-2.267zm-.6956 46.4282l12.626 2.226c-6.533 24.054-23.22 43.132-44.507 53.344l-4.272-10.822-3.65-9.246c14.596-7.446 26.099-20.576 31.134-37.031l8.669 1.529z"/>
    <path fill="#9c9c9c" d="M675.2884 348.1866l11.148 1.966c-6.432 18.133-19.126 32.832-35.112 42.018l-4.327-9.291c1.88-.096 10.729-1.067 19.093-11.104 8.403-10.082 9.848-21.581 9.655-23.508m-27.773 51.172l.083-.467c21.287-10.212 37.974-29.289 44.506-53.343l-12.626-2.226c2.434-2.198 3.444-3.764 3.029-4.7-.608-1.374-4.287-1.388-11.035-.042.269 2.452 1.654 17.337-9.325 30.088-10.928 12.693-22.92 11.103-25.395 11.209-.07 6.881.626 10.493 2.089 10.836.996.234 2.348-1.049 4.056-3.848l4.53 11.993"/>
    <path fill="#939393" d="M160.25 96.25c0-17.121-13.879-31-31-31-17.121 0-31 13.879-31 31 0 17.121 13.879 31 31 31 17.121 0 31-13.879 31-31"/>
    <path fill="#232323" d="M135.5 96.25c0-3.452-2.798-6.25-6.25-6.25S123 92.798 123 96.25s2.798 6.25 6.25 6.25 6.25-2.798 6.25-6.25"/>
    <path fill="#717171" d="M140.9375 96.25v-3.375l10-5.625c1.76 0 3.188 2.686 3.188 6v6c0 3.314-1.428 6-3.188 6l-10-5.625V96.25zm-6.098 10.2142l2.923-1.687 9.871 5.847c.88 1.525-.732 4.104-3.602 5.761l-2.598 1.5-2.598 1.5c-2.87 1.657-5.91 1.764-6.79.239l-.129-11.473 2.923-1.687zm-16.8187-10.0475v-3.375l-10-5.625c-1.76 0-3.188 2.686-3.188 6v6c0 3.314 1.428 6 3.188 6l10-5.625v-3.375zm5.973 10.0475l-2.923-1.687-9.871 5.847c-.88 1.525.732 4.104 3.602 5.761l2.598 1.5 2.598 1.5c2.87 1.657 5.91 1.764 6.79.239l.129-11.473-2.923-1.687zm.125-20.4284l-2.923 1.687-9.871-5.847c-.88-1.525.732-4.104 3.602-5.761l2.598-1.5 2.598-1.5c2.87-1.657 5.91-1.764 6.79-.239l.129 11.473-2.923 1.687zm10.8457 0l2.923 1.687 9.871-5.847c.88-1.525-.732-4.104-3.602-5.761l-2.598-1.5-2.598-1.5c-2.87-1.657-5.91-1.764-6.79-.239l-.129 11.473 2.923 1.687z"/>
    <path fill="#939393" d="M724.5732 96.25c0-17.121 13.879-31 31-31 17.121 0 31 13.879 31 31 0 17.121-13.879 31-31 31-17.121 0-31-13.879-31-31"/>
    <path fill="#232323" d="M749.3232 96.25c0-3.452 2.798-6.25 6.25-6.25s6.25 2.798 6.25 6.25-2.798 6.25-6.25 6.25-6.25-2.798-6.25-6.25"/>
    <path fill="#717171" d="M743.8857 96.25v-3.375l-10-5.625c-1.76 0-3.188 2.686-3.188 6v6c0 3.314 1.428 6 3.188 6l10-5.625V96.25zm6.0981 10.2142l-2.923-1.687-9.871 5.847c-.88 1.525.732 4.104 3.602 5.761l2.598 1.5 2.598 1.5c2.87 1.657 5.91 1.764 6.79.239l.129-11.473-2.923-1.687zm16.8186-10.0475v-3.375l10-5.625c1.76 0 3.188 2.686 3.188 6v6c0 3.314-1.428 6-3.188 6l-10-5.625v-3.375zm-5.973 10.0475l2.923-1.687 9.871 5.847c.88 1.525-.732 4.104-3.602 5.761l-2.598 1.5-2.598 1.5c-2.87 1.657-5.91 1.764-6.79.239l-.129-11.473 2.923-1.687zm-.125-20.4284l2.923 1.687 9.871-5.847c.88-1.525-.732-4.104-3.602-5.761l-2.598-1.5-2.598-1.5c-2.87-1.657-5.91-1.764-6.79-.239l-.129 11.473 2.923 1.687zm-10.8456 0l-2.923 1.687-9.871-5.847c-.88-1.525.732-4.104 3.602-5.761l2.598-1.5 2.598-1.5c2.87-1.657 5.91-1.764 6.79-.239l.129 11.473-2.923 1.687z"/>
    <path fill="red" d="M484.249 479.426h213.037v-5.808H484.249v5.808z"/>
    <path fill="#fd4120" d="M484.249 467.809h213.037V462H484.249v5.809z"/>
    <path fill="#fc0" d="M484.249 456.192h213.037v-5.809H484.249v5.809z"/>
    <path fill="#4dac26" d="M484.249 444.575h213.037v-5.809H484.249v5.809z"/>
    <path fill="#00a0c6" d="M484.249 432.959h213.037v-5.81H484.249v5.81z"/>
    <path fill="#fff" d="M744.5893 445.457v2.983c0 1.054-.341 1.719-1.017 2-.677.28-2.149.423-4.412.423h-2.943c-2.264 0-3.745-.131-4.451-.396-.702-.261-1.053-.937-1.053-2.027v-2.983c0-1.129.351-1.833 1.053-2.112.706-.281 2.186-.424 4.451-.424h2.943c2.313 0 3.797.143 4.448.424.655.279.981.983.981 2.112m48.692 5.576v13.573l-13.198-13.573h13.198zm21.719-9.069h-6.485v-7.661h-15.234v7.661h-27.531l.076 11.152 21.798 22.138h20.891v-24.221h6.485v-9.069zm-550.4 23.045h-7.179v-21.511h7.658v11.084c0 3.257 1.915 4.397 5.742 4.397 3.992 0 5.105-1.304 5.105-5.54v-9.941h7.824v11.407c0 3.096 2.234 4.074 5.904 4.074 3.509 0 5.263-1.14 5.263-4.074v-11.407h7.659v12.712c0 6.353-3.828 9.29-10.849 9.29-6.065 0-8.14-2.119-9.095-4.726-1.597 2.771-3.832 4.726-9.895 4.726-5.585 0-7.02-1.955-8.137-5.542v5.051zm-51.545 0h-7.179v-21.511h7.66v11.084c0 3.257 1.596 4.397 5.903 4.397 3.991 0 5.109-1.465 5.109-5.54v-9.941h7.818v11.407c0 3.096 2.391 4.074 6.062 4.074 3.512 0 5.107-.978 5.107-4.074v-11.407h7.66v12.712c0 6.353-3.832 9.29-10.85 9.29-6.067 0-8.3-2.283-9.098-4.726-1.594 2.771-3.828 4.726-9.894 4.726-5.744 0-7.34-1.955-8.299-5.542v5.051h.001zm-109.273.228v13.293c-2.63.707-4.431.993-7.06.993-13.709 0-25.754-11.741-25.754-26.305 0-14.992 12.182-26.166 25.89-26.166 2.492 0 3.876.285 6.924 1.134v13.577c-3.047-1.555-4.568-1.979-7.06-1.979-7.616 0-13.433 6.503-13.433 13.718 0 7.492 5.677 13.859 13.294 13.859 2.631 0 4.845-.708 7.199-2.124m254.485-6.096c4.307 0 5.745-.65 5.745-4.072 0-5.217-.321-5.709-6.381-5.709-6.065 0-7.66.167-7.66 4.566 0 5.053 1.915 5.215 8.296 5.215m5.584 14.998v-12.55c-1.754 2.445-3.349 3.745-9.732 3.745-10.212 0-12.129-2.771-12.129-11.244 0-8.641 2.714-11.081 12.606-11.081 6.224 0 8.138 1.629 9.575 4.399v-3.909h7.659v30.64h-7.979zm-184.465-20.05c0 4.402.958 4.89 6.386 4.89 6.221 0 7.339-.162 7.339-4.89 0-4.401-.8-5.216-6.701-5.216-6.227 0-7.024.654-7.024 5.216m21.545.493c0 8.799-2.393 10.59-14.681 10.59-13.245 0-14.841-2.113-14.841-11.245 0-9.29 2.236-11.246 14.841-11.246 13.405 0 14.681 2.281 14.681 11.901m183.347-.493c0 4.402.957 4.89 6.542 4.89 6.224 0 7.341-.162 7.341-4.89 0-4.401-.797-5.216-6.702-5.216-6.382 0-7.181.654-7.181 5.216m21.698.493c0 8.799-2.392 10.59-14.677 10.59-13.086 0-14.681-2.113-14.681-11.245 0-9.29 2.233-11.246 14.681-11.246 13.4 0 14.677 2.281 14.677 11.901m-90.633-.493c0 4.402.957 4.89 6.543 4.89 6.223 0 7.339-.162 7.339-4.89 0-4.401-.8-5.216-6.703-5.216-6.382 0-7.179.654-7.179 5.216m21.86.493c0 8.799-2.552 10.59-14.84 10.59-13.245 0-14.839-2.281-14.839-11.406 0-9.129 2.232-11.085 14.839-11.085 13.406 0 14.84 2.281 14.84 11.901m-177.921 1.3h7.659c-.637 7.335-2.714 9.127-13.402 9.127-12.129 0-14.842-1.951-14.842-11.083 0-9.127 2.553-11.246 13.884-11.246 11.965 0 14.36 1.631 14.36 9.292h-7.659c0-2.12-.796-3.1-6.701-3.1-5.109 0-6.223 1.305-6.223 5.542 0 4.076 1.114 4.076 7.182 4.076 4.466.001 5.263-.489 5.742-2.608m285.312.815c.318 2.282.955 3.098 6.06 3.098 5.593 0 6.389-.327 6.708-3.098h-12.768zm8.617-8.963c-7.339 0-8.456.652-8.456 4.4h20.109c-.322 10.428-.322 12.874-13.884 12.874-11.493 0-14.047-2.118-14.047-11.407 0-8.64 3.354-10.756 12.61-10.921 10.369 0 15.32.49 15.32 7.497h-7.502c-.317-1.629-.956-2.443-4.15-2.443m-326.586 16.797h-22.152v-10.323h12.186l9.966 10.323zm-9.827-12.444h-12.325v-10.324h22.152l-9.827 10.324zm301.149 12.922h-7.34v-21.511h7.658v11.243c0 2.934 1.757 4.4 4.948 4.4 3.19 0 3.991-.977 4.147-3.746h7.183c0 7.333-.959 10.104-8.618 10.104-4.628 0-6.225-.979-7.979-4.563v4.073h.001zm341.879-20.173c0-7.36-6.339-11.04-19.008-11.04h-6.486c-7.14 0-12.095 1.259-14.857 3.772-2.769 2.518-4.151 6.874-4.151 13.071v8.334c0 6.16 1.382 10.496 4.151 13.012 2.761 2.517 7.717 3.773 14.857 3.773h6.486c5.885 0 10.31-.807 13.274-2.422 2.969-1.614 4.453-3.98 4.453-7.096v-2.986h-15.237v1.069c0 .977-.279 1.616-.829 1.917-.553.298-1.66.452-3.319.452h-3.622c-2.06 0-3.381-.171-3.959-.509-.576-.338-.866-1.145-.866-2.421v-5.744c2.212 1.238 4.951 1.856 8.219 1.856h5.357c5.382 0 9.317-.93 11.803-2.787 2.489-1.858 3.735-4.723 3.735-8.59v-3.661h-.001z"/>
    <path fill="#392010" d="M442.8489 243.6209h-337.982c-11.857 24.636-18.501 52.255-18.501 81.426 0 29.524 6.806 57.46 18.935 82.322h337.643-.095c12.129-24.862 18.935-52.798 18.935-82.322 0-29.171-6.644-56.79-18.5-81.426"/>
    <path fill="none" stroke="#fff" stroke-miterlimit="10" d="M359.3333 352.6667v-58.333m21.4167 58.333v-58.333m20.5 58.333v-58.333m20.75 58.333v-58.333m21 58.333v-58.333m20.75 58.333v-58.333m20.75 58.333v-58.333m21 58.333v-58.333m21 58.333v-58.333"/>
    <path fill="#9d9d9d" d="M274.3737 370.6667c-26.049 0-47.167-21.117-47.167-47.167 0-26.049 21.118-47.166 47.167-47.166 26.049 0 47.167 21.117 47.167 47.166 0 26.05-21.118 47.167-47.167 47.167m42.5-47.167c0-23.472-19.028-42.5-42.5-42.5s-42.5 19.028-42.5 42.5 19.028 42.5 42.5 42.5 42.5-19.028 42.5-42.5"/>
    <path fill="#fff" d="M316.8737 323.5c0-23.472-19.028-42.5-42.5-42.5s-42.5 19.028-42.5 42.5 19.028 42.5 42.5 42.5 42.5-19.028 42.5-42.5"/>
    <path fill="none" stroke="#e4e4e3" stroke-width="2" stroke-miterlimit="10" d="M316.8737 323.5c0-23.472-19.028-42.5-42.5-42.5s-42.5 19.028-42.5 42.5 19.028 42.5 42.5 42.5 42.5-19.028 42.5-42.5z"/>
    <path fill="none" stroke="#e4e4e3" stroke-width="3" stroke-miterlimit="10" d="M270.501 365.8222v-11.656m7.74 11.656v-11.656m-7.7373-61.5107v-11.656m7.74 11.656v-11.656m-42.4592 60.3089l10.094-5.828m-6.224 12.5311l10.094-5.828m49.4016-37.4561l10.094-5.828m-6.224 12.5311l10.094-5.828m-73.4582-6.7052l10.094 5.828m-13.964.8751l10.094 5.828m57.1388 24.0546l10.094 5.828m-13.964.875l10.094 5.828"/>
    <path fill="#bcbdbc" d="M274.3737 370.6667c-26.049 0-47.167-21.117-47.167-47.167 0-26.049 21.118-47.166 47.167-47.166 26.049 0 47.167 21.117 47.167 47.166 0 26.05-21.118 47.167-47.167 47.167m55-47.167c0-30.375-24.624-55-55-55s-55 24.625-55 55c0 30.376 24.624 55 55 55s55-24.624 55-55"/>
    <path fill="#ccc" d="M274.1667 408.3333c-46.116 0-83.5-37.832-83.5-84.5s37.384-84.5 83.5-84.5 83.5 37.832 83.5 84.5-37.384 84.5-83.5 84.5m55.207-84.5c0-30.376-24.624-55-55-55s-55 24.624-55 55 24.624 55 55 55 55-24.624 55-55"/>
    <path fill="#9c9c9c" d="M346.016 356.837c4.512-9.679 7.119-20.424 7.342-31.754h-17.004c-.207 8.236-2.019 16.074-5.137 23.211l14.799 8.543z"/>
    <path fill="#525252" d="M347.9833 325.0832c-.219 10.352-2.578 20.178-6.653 29.053l-5.758-3.323c3.526-7.888 5.571-16.583 5.783-25.73h6.628z"/>
    <path fill="#9c9c9c" d="M346.016 290.1692c4.512 9.679 7.119 20.424 7.342 31.754h-17.004c-.207-8.236-2.019-16.074-5.137-23.211l14.799-8.543z"/>
    <path fill="#525252" d="M347.9833 321.9231c-.219-10.352-2.578-20.178-6.653-29.053l-5.758 3.323c3.526 7.888 5.571 16.583 5.783 25.73h6.628z"/>
    <path fill="#9c9c9c" d="M281.3241 402.2142c10.638-.932 21.248-4.046 31.171-9.518l-8.502-14.727c-7.237 3.94-14.93 6.289-22.67 7.157l.001 17.088z"/>
    <path fill="#525252" d="M309.8074 388.041c-9.075 4.987-18.764 7.857-28.487 8.765l-.001-6.649c8.594-.89 17.146-3.466 25.174-7.856l3.314 5.74z"/>
    <path fill="#9c9c9c" d="M339.0601 368.8802c-6.126 8.747-14.128 16.378-23.829 22.235l-8.502-14.726c7.03-4.297 12.911-9.785 17.533-16.054l14.798 8.545z"/>
    <path fill="#525252" d="M312.5441 386.4609c8.856-5.366 16.186-12.322 21.834-20.288l-5.757-3.325c-5.068 6.997-11.575 13.116-19.391 17.873l3.314 5.74z"/>
    <path fill="#9c9c9c" d="M209.6818 368.8771c6.126 8.747 14.128 16.378 23.829 22.235l8.502-14.726c-7.03-4.297-12.911-9.785-17.533-16.054l-14.798 8.545z"/>
    <path fill="#525252" d="M236.1978 386.4578c-8.856-5.366-16.186-12.322-21.834-20.288l5.757-3.325c5.068 6.997 11.575 13.116 19.391 17.873l-3.314 5.74z"/>
    <path fill="#9c9c9c" d="M267.4178 402.211c-10.638-.932-21.248-4.046-31.171-9.518l8.502-14.727c7.237 3.94 14.93 6.289 22.67 7.157l-.001 17.088z"/>
    <path fill="#525252" d="M238.9345 388.0378c9.075 4.987 18.764 7.857 28.487 8.765l.001-6.649c-8.594-.89-17.146-3.466-25.174-7.856l-3.314 5.74"/>
    <path fill="#9c9c9c" d="M202.7313 290.1677c-4.512 9.679-7.119 20.424-7.342 31.754h17.004c.207-8.236 2.019-16.074 5.137-23.211l-14.799-8.543z"/>
    <path fill="#525252" d="M200.764 321.9215c.219-10.352 2.578-20.178 6.653-29.053l5.758 3.323c-3.525 7.888-5.571 16.583-5.783 25.73h-6.628"/>
    <path fill="#9c9c9c" d="M202.7313 356.8355c-4.512-9.679-7.119-20.424-7.342-31.754h17.004c.207 8.236 2.019 16.074 5.137 23.211l-14.799 8.543z"/>
    <path fill="#525252" d="M200.764 325.0816c.219 10.352 2.578 20.178 6.653 29.053l5.758-3.323c-3.525-7.888-5.571-16.583-5.783-25.73h-6.628z"/>
    <path fill="#9c9c9c" d="M267.4054 244.7905c-10.638.932-21.248 4.046-31.171 9.519l8.502 14.726c7.236-3.94 14.93-6.289 22.67-7.157l-.001-17.088z"/>
    <path fill="#525252" d="M238.922 258.9637c9.075-4.987 18.764-7.857 28.487-8.765l.001 6.649c-8.594.89-17.146 3.466-25.174 7.856l-3.314-5.74z"/>
    <path fill="#9c9c9c" d="M209.6693 278.1245c6.127-8.747 14.128-16.378 23.829-22.235l8.502 14.726c-7.03 4.297-12.911 9.785-17.533 16.054l-14.798-8.545z"/>
    <path fill="#525252" d="M236.1853 260.5438c-8.856 5.366-16.186 12.322-21.834 20.288l5.757 3.325c5.068-6.997 11.575-13.116 19.391-17.873l-3.314-5.74zm45.8437-7.3771v-12.82c24.823 2.256 46.508 15.376 60.261 34.567l-9.915 6.086-8.472 5.2c-9.867-13.081-24.795-22.129-41.874-24.231v-8.802z"/>
    <path fill="#9c9c9c" d="M287.5467 256.9128v-11.319c18.974 3.184 35.655 13.133 47.477 27.281l-8.399 5.875c-.42-1.835-2.913-10.38-14.25-16.875-11.389-6.524-22.964-5.951-24.828-5.427m55.218 18.466h-.474c-13.753-19.191-35.439-32.311-60.262-34.568v12.821c-2.586-2.015-4.304-2.737-5.154-2.167-1.247.838-.622 4.463 1.875 10.875 2.368-.691 16.786-4.64 31.25 3.959 14.398 8.558 14.914 20.644 15.449 23.062 6.788-1.126 10.225-2.439 10.308-3.939.058-1.021-1.44-2.13-4.493-3.326l11.024-6.544"/>
    <path fill="#434343" d="M828 172.683H56.5v4.667H828v-4.667zm0-8H56.5v4.667H828v-4.667zm0-8H56.5v4.667H828v-4.667zm0-8H56.5v4.667H828v-4.667zm0-8H56.5v4.667H828v-4.667zm0-8H56.5v4.667H828v-4.667zm0-8H56.5v4.667H828v-4.667zm0-8H56.5v4.667H828v-4.667zm0-8.083H56.5v4.667H828V108.6zm0-8H56.5v4.667H828V100.6zm0-8H56.5v4.667H828V92.6zm0-8H56.5v4.667H828V84.6zm0-8H56.5v4.667H828V76.6zm0-8H56.5v4.667H828V68.6zm-3.554-7.98H59.663v4.626h764.783V60.62z"/>
    <path fill="#3a3a3a" d="M458.4935 136.3398c0-8.557-6.937-15.493-15.493-15.493-8.557 0-15.494 6.936-15.494 15.493"/>
    <path fill="#525252" d="M427.5065 136.3398c0 8.557 6.937 15.493 15.493 15.493 8.557 0 15.494-6.936 15.494-15.493"/>
    <path fill="#1f1f1f" d="M446.743 131.5h-8v8h8v-8z"/>
    <path fill="#1f1f1f" d="M446.4395 143.7096l-10.569-14.025 3.177-2.394 10.569 14.025-3.177 2.394z"/>
    <path fill="#1f1f1f" d="M434.5338 139.196l14.025-10.569 2.394 3.177-14.025 10.569-2.394-3.177z"/>
    <path fill="none" stroke="#404040" stroke-miterlimit="10" d="M458.4935 136.3398c0-8.557-6.937-15.493-15.493-15.493-8.557 0-15.494 6.936-15.494 15.493s6.937 15.493 15.494 15.493c8.556 0 15.493-6.936 15.493-15.493z"/>
    <path fill="#3a3a3a" d="M88.444 71.3399c0-8.557-6.937-15.493-15.493-15.493-8.557 0-15.494 6.936-15.494 15.493"/>
    <path fill="#525252" d="M57.457 71.3399c0 8.557 6.937 15.493 15.493 15.493 8.557 0 15.494-6.936 15.494-15.493"/>
    <path fill="#1f1f1f" d="M76.694 66.5h-8v8h8v-8z"/>
    <path fill="#1f1f1f" d="M76.39 78.7096l-10.569-14.025 3.177-2.394 10.569 14.025-3.177 2.394z"/>
    <path fill="#1f1f1f" d="M64.4843 74.1961l14.025-10.569 2.394 3.177-14.025 10.569-2.394-3.177z"/>
    <path fill="none" stroke="#404040" stroke-miterlimit="10" d="M88.444 71.3399c0-8.557-6.937-15.493-15.493-15.493-8.557 0-15.494 6.936-15.494 15.493s6.937 15.493 15.494 15.493c8.556 0 15.493-6.936 15.493-15.493z"/>
    <path fill="none" stroke="#292929" stroke-width="6" stroke-miterlimit="10" d="M286.3333 54h30.5m-19.1666 48.5V66M354 102.5H191.633"/>
    <path fill="#292929" d="M254.6082 102.5h25.941l-12.673-27.544h-26.536l-12.674 27.544h25.942z"/>
    <path fill="none" stroke="#404040" stroke-width="5" stroke-miterlimit="10" d="M286.3333 54h-100.333m130.833 0h32.5"/>
    <path fill="#292929" d="M354 115.3333l-42.417-10.167H354v10.167z"/>
    <path fill="#e4e4e3" d="M343.3333 72.3333h-17.167c-5.133 0-9.333 4.2-9.333 9.333v13.5c0 5.134 4.2 9.334 9.333 9.334h17.167c5.133 0 9.333-4.2 9.333-9.334v-13.5c0-5.133-4.2-9.333-9.333-9.333"/>
    <path fill="#3a3a3a" d="M796.3793 71.3399c0-8.557 6.937-15.493 15.493-15.493 8.557 0 15.494 6.936 15.494 15.493"/>
    <path fill="#525252" d="M827.3662 71.3399c0 8.557-6.937 15.493-15.493 15.493-8.557 0-15.494-6.936-15.494-15.493"/>
    <path fill="#1f1f1f" d="M808.129 66.5h8v8h-8v-8z"/>
    <path fill="#1f1f1f" d="M808.4332 78.7096l10.569-14.025-3.177-2.394-10.569 14.025 3.177 2.394z"/>
    <path fill="#1f1f1f" d="M820.3389 74.1961l-14.025-10.569-2.394 3.177 14.025 10.569 2.394-3.177z"/>
    <path fill="none" stroke="#404040" stroke-miterlimit="10" d="M796.3793 71.3399c0-8.557 6.937-15.493 15.493-15.493 8.557 0 15.494 6.936 15.494 15.493s-6.937 15.493-15.494 15.493c-8.556 0-15.493-6.936-15.493-15.493z"/>
    <path fill="none" stroke="#292929" stroke-width="6" stroke-miterlimit="10" d="M598.4899 54h-30.5m19.1667 48.5V66m-56.3334 36.5h162.367"/>
    <path fill="#292929" d="M630.2151 102.5h-25.942l12.674-27.544h26.536l12.673 27.544h-25.941z"/>
    <path fill="none" stroke="#404040" stroke-width="5" stroke-miterlimit="10" d="M598.4899 54h100.333m-130.833 0h-32.5"/>
    <path fill="#292929" d="M530.8232 115.3333l42.417-10.167h-42.417v10.167z"/>
    <path fill="#e4e4e3" d="M541.4899 72.3333h17.167c5.133 0 9.333 4.2 9.333 9.333v13.5c0 5.134-4.2 9.334-9.333 9.334h-17.167c-5.133 0-9.333-4.2-9.333-9.334v-13.5c0-5.133 4.2-9.333 9.333-9.333"/>
    <path fill="none" stroke="#292929" stroke-width="6" stroke-miterlimit="10" d="M530.8232 112.3333h-88.743.663-88.743"/>
    <path fill="none" stroke="#b7b8b6" stroke-width="2" stroke-miterlimit="10" d="M512.3232 88.728l-1.25 13.772h-137.323l-1.25-13.772"/>
    <path fill="#e4e4e3" d="M610.1566 76.25c0-11.046 8.954-20 20-20s20 8.954 20 20-8.954 20-20 20-20-8.954-20-20m-335.4899 0c0-11.046-8.954-20-20-20s-20 8.954-20 20 8.954 20 20 20 20-8.954 20-20"/>
    <path fill="#100b06" d="M457.993 61.5h-30.987v16.167h30.987V61.5z"/>
    <path fill="none" stroke="#81472e" stroke-width="2" stroke-miterlimit="10" d="M520.3232 83.5v-5.833h-78 .176-77.999V83.5"/>
    <path fill="none" stroke="#292929" stroke-width="6" stroke-miterlimit="10" d="M500.1566 100V54h35.333m-150.8229 46V54h-35.333"/>
    <path fill="none" stroke="#292929" stroke-width="6" stroke-miterlimit="10" d="M180.6667 54l23.667 104.667c0 6.6 5.4 12 12 12h226.166-.176 226.166c6.6 0 12-5.4 12-12L704.1567 54"/>
  </g>
</svg>
