<?xml version="1.0" encoding="UTF-8" standalone="no"?>
<svg
   xmlns:dc="http://purl.org/dc/elements/1.1/"
   xmlns:cc="http://creativecommons.org/ns#"
   xmlns:rdf="http://www.w3.org/1999/02/22-rdf-syntax-ns#"
   xmlns:svg="http://www.w3.org/2000/svg"
   xmlns="http://www.w3.org/2000/svg"
   xmlns:sodipodi="http://sodipodi.sourceforge.net/DTD/sodipodi-0.dtd"
   xmlns:inkscape="http://www.inkscape.org/namespaces/inkscape"
   viewBox="0 0 250.16125 268.21375"
   height="268.21375"
   width="250.16125"
   xml:space="preserve"
   version="1.1"
   id="svg2"
   inkscape:version="0.48.4 r9939"
   sodipodi:docname="console.svg"><sodipodi:namedview
     pagecolor="#ffffff"
     bordercolor="#666666"
     borderopacity="1"
     objecttolerance="10"
     gridtolerance="10"
     guidetolerance="10"
     inkscape:pageopacity="0"
     inkscape:pageshadow="2"
     inkscape:window-width="1855"
     inkscape:window-height="1056"
     id="namedview3886"
     showgrid="false"
     inkscape:zoom="3.3890881"
     inkscape:cx="77.722758"
     inkscape:cy="134.10687"
     inkscape:window-x="65"
     inkscape:window-y="24"
     inkscape:window-maximized="1"
     inkscape:current-layer="svg2" /><metadata
     id="metadata8"><rdf:RDF><cc:Work
         rdf:about=""><dc:format>image/svg+xml</dc:format><dc:type
           rdf:resource="http://purl.org/dc/dcmitype/StillImage" /><dc:title /></cc:Work></rdf:RDF></metadata><defs
     id="defs6"><clipPath
       id="clipPath16"
       clipPathUnits="userSpaceOnUse"><path
         id="path18"
         d="m 0,214.571 200.129,0 L 200.129,0 0,0 0,214.571 Z" /></clipPath><linearGradient
       id="linearGradient44"
       spreadMethod="pad"
       gradientTransform="matrix(0,89.952156,89.952156,0,100.25288,103.88564)"
       gradientUnits="userSpaceOnUse"
       y2="0"
       x2="1"
       y1="0"
       x1="0"><stop
         id="stop46"
         offset="0"
         style="stop-opacity:1;stop-color:#fff424" /><stop
         id="stop48"
         offset="0.1077829"
         style="stop-opacity:1;stop-color:#fac308" /><stop
         id="stop50"
         offset="0.227423"
         style="stop-opacity:1;stop-color:#fac308" /><stop
         id="stop52"
         offset="0.497416"
         style="stop-opacity:1;stop-color:#f3812f" /><stop
         id="stop54"
         offset="0.636303"
         style="stop-opacity:1;stop-color:#ee5233" /><stop
         id="stop56"
         offset="0.855615"
         style="stop-opacity:1;stop-color:#ea2c35" /><stop
         id="stop58"
         offset="1"
         style="stop-opacity:1;stop-color:#ea2c35" /></linearGradient><clipPath
       id="clipPath66"
       clipPathUnits="userSpaceOnUse"><path
         id="path68"
         d="m 0,214.571 200.129,0 L 200.129,0 0,0 0,214.571 Z" /></clipPath></defs><g
     transform="matrix(1.25,0,0,-1.25,0,268.21375)"
     id="g10"><g
       id="g12"><g
         clip-path="url(#clipPath16)"
         id="g14"><g
           transform="translate(154.5794,74.8154)"
           id="g20"><path
             id="path22"
             style="fill:#cac2b5;fill-opacity:1;fill-rule:nonzero;stroke:none"
             d="m 0,0 -109.801,0 c -1.559,0 -2.835,1.276 -2.835,2.835 l 0,9.003 c 0,1.559 1.276,2.835 2.835,2.835 L 0,14.673 c 1.559,0 2.835,-1.276 2.835,-2.835 l 0,-9.003 C 2.835,1.276 1.559,0 0,0" /></g><g
           transform="translate(181.2666,83.152)"
           id="g24"><path
             id="path26"
             style="fill:#efede1;fill-opacity:1;fill-rule:nonzero;stroke:none"
             d="m 0,0 -162.114,0 c -1.559,0 -2.834,1.276 -2.834,2.835 l 0,125.75 c 0,1.559 1.275,2.834 2.834,2.834 l 162.114,0 c 1.559,0 2.835,-1.275 2.835,-2.834 l 0,-125.75 C 2.835,1.276 1.559,0 0,0" /></g><g
           transform="translate(173.1577,95.2732)"
           id="g28"><path
             id="path30"
             style="fill:#d8d5cb;fill-opacity:1;fill-rule:nonzero;stroke:none"
             d="m 0,0 -145.81,0 c -0.779,0 -1.417,0.638 -1.417,1.417 l 0,104.343 c 0,0.779 0.638,1.417 1.417,1.417 l 145.81,0 c 0.78,0 1.417,-0.638 1.417,-1.417 l 0,-104.343 C 1.417,0.638 0.78,0 0,0" /></g></g></g><g
       id="g32"><g
         id="g34"><g
           id="g40"><g
             id="g42" /></g></g></g><g
       id="g62"><g
         clip-path="url(#clipPath66)"
         id="g64"><g
           transform="translate(153.0653,103.8857)"
           id="g70"><path
             id="path72"
             style="fill:none;stroke:#4f4c4d;stroke-width:0.25;stroke-linecap:butt;stroke-linejoin:miter;stroke-miterlimit:10;stroke-dasharray:none;stroke-opacity:1"
             d="m 0,0 -105.625,0 c -7.795,0 -14.173,6.378 -14.173,14.173 l 0,61.606 c 0,7.795 6.378,14.173 14.173,14.173 L 0,89.952 c 7.795,0 14.173,-6.378 14.173,-14.173 l 0,-61.606 C 14.173,6.378 7.795,0 0,0 Z" /></g><g
           transform="translate(141.4103,65.884)"
           id="g74"><path
             id="path76"
             style="fill:#e4dccb;fill-opacity:1;fill-rule:nonzero;stroke:none"
             d="m 0,0 -83.463,0 4.526,8.931 74.458,0 L 0,0 Z" /></g><path
           id="path78"
           style="fill:#efede0;fill-opacity:1;fill-rule:nonzero;stroke:none"
           d="m 159.509,57.463 -117.565,0 0,8.421 117.565,0 0,-8.421 z" /><g
           transform="translate(191.6249,0)"
           id="g80"><path
             id="path82"
             style="fill:#e4dccb;fill-opacity:1;fill-rule:nonzero;stroke:none"
             d="m 0,0 -183.121,0 c -4.677,0 -8.504,3.827 -8.504,8.504 l 0,40.455 c 0,4.677 3.827,8.504 8.504,8.504 L 0,57.463 c 4.677,0 8.504,-3.827 8.504,-8.504 l 0,-40.455 C 8.504,3.827 4.677,0 0,0" /></g><g
           transform="translate(14.1035,15.3564)"
           id="g84"><path
             id="path86"
             style="fill:#c0ba9f;fill-opacity:1;fill-rule:nonzero;stroke:none"
             d="m 0,0 0,0 c -1.218,0 -2.215,0.997 -2.215,2.215 l 0,22.32 c 0,1.218 0.997,2.215 2.215,2.215 l 0,0 c 1.218,0 2.215,-0.997 2.215,-2.215 l 0,-22.32 C 2.215,0.997 1.218,0 0,0" /></g><g
           transform="translate(22.2288,15.3564)"
           id="g88"><path
             id="path90"
             style="fill:#c0ba9f;fill-opacity:1;fill-rule:nonzero;stroke:none"
             d="m 0,0 0,0 c -1.218,0 -2.215,0.997 -2.215,2.215 l 0,22.32 c 0,1.218 0.997,2.215 2.215,2.215 l 0,0 c 1.218,0 2.215,-0.997 2.215,-2.215 l 0,-22.32 C 2.215,0.997 1.218,0 0,0" /></g><g
           transform="translate(30.2047,15.3564)"
           id="g92"><path
             id="path94"
             style="fill:#c0ba9f;fill-opacity:1;fill-rule:nonzero;stroke:none"
             d="m 0,0 0,0 c -1.218,0 -2.215,0.997 -2.215,2.215 l 0,22.32 c 0,1.218 0.997,2.215 2.215,2.215 l 0,0 c 1.218,0 2.215,-0.997 2.215,-2.215 l 0,-22.32 C 2.215,0.997 1.218,0 0,0" /></g><g
           transform="translate(38.3299,15.3564)"
           id="g96"><path
             id="path98"
             style="fill:#c0ba9f;fill-opacity:1;fill-rule:nonzero;stroke:none"
             d="m 0,0 0,0 c -1.218,0 -2.215,0.997 -2.215,2.215 l 0,22.32 c 0,1.218 0.997,2.215 2.215,2.215 l 0,0 c 1.218,0 2.215,-0.997 2.215,-2.215 l 0,-22.32 C 2.215,0.997 1.218,0 0,0" /></g><g
           transform="translate(45.9274,15.3564)"
           id="g100"><path
             id="path102"
             style="fill:#c0ba9f;fill-opacity:1;fill-rule:nonzero;stroke:none"
             d="m 0,0 0,0 c -1.218,0 -2.215,0.997 -2.215,2.215 l 0,22.32 c 0,1.218 0.997,2.215 2.215,2.215 l 0,0 c 1.218,0 2.215,-0.997 2.215,-2.215 l 0,-22.32 C 2.215,0.997 1.218,0 0,0" /></g><g
           transform="translate(54.0527,15.3564)"
           id="g104"><path
             id="path106"
             style="fill:#c0ba9f;fill-opacity:1;fill-rule:nonzero;stroke:none"
             d="m 0,0 0,0 c -1.218,0 -2.215,0.997 -2.215,2.215 l 0,22.32 c 0,1.218 0.997,2.215 2.215,2.215 l 0,0 c 1.218,0 2.215,-0.997 2.215,-2.215 l 0,-22.32 C 2.215,0.997 1.218,0 0,0" /></g><g
           transform="translate(188.5454,8.1831)"
           id="g108"><path
             id="path110"
             style="fill:#666870;fill-opacity:1;fill-rule:nonzero;stroke:none"
             d="m 0,0 -118.587,0 c -1.559,0 -2.835,1.276 -2.835,2.835 l 0,35.427 c 0,1.559 1.276,2.835 2.835,2.835 L 0,41.097 c 1.559,0 2.835,-1.276 2.835,-2.835 l 0,-35.427 C 2.835,1.276 1.559,0 0,0" /></g><g
           transform="translate(188.5454,8.1831)"
           id="g112"><path
             id="path114"
             style="fill:none;stroke:#4f4c4d;stroke-width:0.5;stroke-linecap:butt;stroke-linejoin:miter;stroke-miterlimit:10;stroke-dasharray:none;stroke-opacity:1"
             d="m 0,0 -118.587,0 c -1.559,0 -2.835,1.276 -2.835,2.835 l 0,35.427 c 0,1.559 1.276,2.835 2.835,2.835 L 0,41.097 c 1.559,0 2.835,-1.276 2.835,-2.835 l 0,-35.427 C 2.835,1.276 1.559,0 0,0 Z" /></g><g
           transform="translate(122.3736,25.8304)"
           id="g116"><path
             id="path118"
             style="fill:#201d1d;fill-opacity:1;fill-rule:nonzero;stroke:none"
             d="m 0,0 -48.415,0 c -0.78,0 -1.417,0.638 -1.417,1.417 l 0,2.968 c 0,0.779 0.637,1.417 1.417,1.417 L 0,5.802 c 0.78,0 1.417,-0.638 1.417,-1.417 l 0,-2.968 C 1.417,0.638 0.78,0 0,0" /></g><path
           id="path120"
           style="fill:#201d1d;fill-opacity:1;fill-rule:nonzero;stroke:none"
           d="m 101.253,22.204 -13.054,0 0,13.054 13.054,0 0,-13.054 z" /><path
           id="path122"
           style="fill:#525458;fill-opacity:1;fill-rule:nonzero;stroke:none"
           d="m 84.562,22.204 -4.636,0 0,13.054 4.636,0 0,-13.054 z" /><g
           transform="translate(179.0843,25.8304)"
           id="g124"><path
             id="path126"
             style="fill:#201d1d;fill-opacity:1;fill-rule:nonzero;stroke:none"
             d="m 0,0 -48.415,0 c -0.78,0 -1.417,0.638 -1.417,1.417 l 0,2.968 c 0,0.779 0.637,1.417 1.417,1.417 L 0,5.802 c 0.78,0 1.417,-0.638 1.417,-1.417 l 0,-2.968 C 1.417,0.638 0.78,0 0,0" /></g><g
           transform="translate(186.9229,25.6823)"
           id="g128"><path
             id="path130"
             style="fill:#525458;fill-opacity:1;fill-rule:nonzero;stroke:none"
             d="m 0,0 -3.115,0 c -0.78,0 -1.418,0.638 -1.418,1.417 l 0,3.116 c 0,0.779 0.638,1.417 1.418,1.417 L 0,5.95 c 0.78,0 1.417,-0.638 1.417,-1.417 l 0,-3.116 C 1.417,0.638 0.78,0 0,0" /></g><g
           transform="translate(185.3652,31.7064)"
           id="g132"><path
             id="path134"
             style="fill:#201d1d;fill-opacity:1;fill-rule:nonzero;stroke:none"
             d="m 0,0 1.558,0 c 0.779,0 1.417,-0.638 1.417,-1.417 l 0,-3.116 C 2.975,-5.312 2.337,-5.95 1.558,-5.95 L 0,-6.024" /></g><path
           id="path136"
           style="fill:#cac2b5;fill-opacity:1;fill-rule:nonzero;stroke:none"
           d="m 188.34,10.638 -5.95,0 0,5.95 5.95,0 0,-5.95 z" /><path
           id="path138"
           style="fill:#1f70c1;fill-opacity:1;fill-rule:nonzero;stroke:none"
           d="m 187.76,11.323 -1.815,0 0,1.815 1.815,0 0,-1.815 z" /><g
           transform="translate(132.3629,179.347)"
           id="g140" /><g
           transform="translate(108.7874,167.3632)"
           id="g144" /><g
           transform="translate(69.5992,167.0285)"
           id="g148" /><g
           transform="translate(78.3179,168.7893)"
           id="g152" /><g
           transform="translate(86.0433,166.3922)"
           id="g156" /><g
           transform="translate(107.5141,166.7087)"
           id="g160" /><g
           transform="translate(97.1408,169.1656)"
           id="g164" /><g
           transform="translate(122.6267,172.8758)"
           id="g168" /><g
           transform="translate(115.2826,181.509)"
           id="g172" /><g
           transform="translate(132.0248,112.6395)"
           id="g176" /><g
           transform="translate(160.0988,154.7744)"
           id="g180" /><g
           transform="translate(160.0988,147.9837)"
           id="g184" /><g
           transform="translate(160.0988,138.6012)"
           id="g188" /><g
           transform="translate(160.0988,132.3502)"
           id="g192" /><g
           transform="translate(160.0988,125.9397)"
           id="g196" /><g
           transform="translate(160.0988,116.9105)"
           id="g200" /><g
           transform="translate(130.8616,146.646)"
           id="g208" /></g></g></g><path
     style="fill:#ffffff"
     d="m 57.215774,137.87469 c -7.059735,-0.85426 -12.960248,-6.11086 -14.760477,-13.14969 -0.566579,-2.21531 -0.58274,-3.40231 -0.57776,-42.434411 0.0057,-44.578389 -0.08783,-42.382845 1.980615,-46.499246 1.467325,-2.920116 4.47189,-5.974163 7.336002,-7.456819 4.151437,-2.149061 -1.965107,-1.985633 74.169776,-1.981747 57.25568,0.0029 68.86641,0.07063 70.13722,0.408988 6.15078,1.637672 10.92981,6.378756 12.69221,12.59142 0.50904,1.794397 0.5381,4.104203 0.5381,42.763304 0,38.113351 -0.035,40.993191 -0.51976,42.747681 -1.67925,6.07797 -6.34147,10.79622 -12.49029,12.64041 -1.64461,0.49326 -5.55547,0.52506 -69.16545,0.5625 -37.082246,0.0218 -68.28533,-0.0648 -69.340186,-0.19239 l 0,0 z"
     id="path3272"
     inkscape:connector-curvature="0" /><path
     d="m 51.495219,52.685581 v 4.040345 H 80.228876 V 52.685581 H 51.495219 z m 32.804468,0 v 4.040345 h 40.946863 c 0,0 -4.18277,-4.040345 -9.72214,-4.040345 H 84.299687 z m 48.979123,0 v 4.040345 h 24.77246 l -1.47038,-4.040345 h -23.30208 z m 42.53284,0 -1.47011,4.040345 h 24.54697 v -4.040345 h -23.07686 z m -124.316431,7.8565 v 4.040345 H 80.228876 V 60.542081 H 51.495219 z m 32.804468,0.0057 v 4.034096 h 45.698573 c 0,0 -0.53431,-3.109219 -1.46465,-4.034096 H 84.299687 z m 48.979123,0 v 4.034096 h 27.4885 l -1.36153,-4.034096 h -26.12697 z m 39.59183,0 -1.36101,4.034096 h 27.3781 v -4.034068 h -26.01709 z m -113.118192,7.8508 v 4.045032 H 72.196356 V 68.398581 H 59.752448 z m 32.804728,0 v 4.045032 H 105.00082 V 68.398581 H 92.557176 z m 24.547494,0 v 4.045032 h 12.44365 c 0,0 0.78999,-2.136432 0.78999,-4.045032 h -13.23364 z m 24.43163,0 v 4.045032 h 22.06215 l -1.47064,-4.045032 H 141.5363 z m 28.62429,0 -1.47637,4.045032 h 22.17151 v -4.045032 h -20.69514 z m -110.408142,7.86249 v 4.040345 H 72.196356 V 76.261071 H 59.752448 z m 32.804728,0 v 4.040345 H 124.3412 c 0,0 2.65876,-2.0729 3.50604,-4.040345 H 92.557176 z m 48.979124,0 v 4.040345 h 12.4439 v -2.249438 l 0.78974,2.249178 h 22.79461 l 0.8478,-2.249178 v 2.249178 h 12.44338 v -4.040085 h -23.35911 l -1.23994,3.422459 -1.2454,-3.422459 H 141.5363 z m -81.783852,7.8565 v 4.040345 H 72.196356 V 84.117571 H 59.752448 z m 32.804728,0 v 4.040345 H 127.8475 c -0.8478,-1.960414 -3.50604,-4.040345 -3.50604,-4.040345 H 92.557176 z m 48.979124,0 v 4.040345 h 12.4439 v -4.040345 h -12.4439 z m 14.70454,0 1.50474,4.040345 h 17.09172 l 1.43002,-4.040345 h -20.02648 z m 22.17151,0 v 4.040345 h 12.44338 V 84.117571 H 178.41235 z M 59.752448,91.974072 v 4.039824 H 72.196356 V 91.974072 H 59.752448 z m 32.804728,0 v 4.039824 H 105.00082 V 91.974072 H 92.557176 z m 24.547494,0 v 4.039824 h 13.23364 c 0,-1.90652 -0.78999,-4.039824 -0.78999,-4.039824 h -12.44365 z m 24.43163,0 v 4.039824 h 12.4439 v -4.039824 h -12.4439 z m 17.52994,0 1.45866,4.039824 h 11.45836 l 1.46986,-4.039824 h -14.38688 z m 19.34611,0 v 4.039824 h 12.44338 V 91.974072 H 178.41235 z M 51.719929,99.831096 v 4.045554 H 80.453846 V 99.831096 H 51.719929 z m 32.579758,0 v 4.045554 h 44.233923 c 0.93034,-0.92722 1.46465,-4.045554 1.46465,-4.045554 H 84.299687 z m 49.204613,0 v 4.045554 h 20.47668 V 99.831096 H 133.5043 z m 28.39307,0 1.49928,4.045554 h 5.82969 l 1.4071,-4.045554 h -8.73607 z m 16.51498,0 v 4.045554 h 20.70087 V 99.831096 H 178.41235 z M 51.719929,107.69307 v 4.04034 h 28.733917 v -4.04034 H 51.719929 z m 32.579758,0 v 4.03409 h 31.224723 c 5.53963,0 9.72214,-4.03409 9.72214,-4.03409 H 84.299687 z m 49.204613,0 v 4.04034 h 20.47668 v -4.04034 H 133.5043 z m 31.23592,0 1.44122,4.02915 0.24814,0.005 1.46465,-4.0341 -3.15401,-5.2e-4 0,0 z m 13.67213,0 v 4.04034 h 20.70087 v -4.04034 h -20.70087 z"
     id="path3488"
     inkscape:connector-curvature="0"
     style="fill:#1f70c1" /></svg>