<?xml version="1.0" encoding="utf-8"?>
<!-- Generator: Adobe Illustrator 19.0.0, SVG Export Plug-In . SVG Version: 6.00 Build 0)  -->
<svg version="1.1" baseProfile="tiny" id="Layer_1" xmlns="http://www.w3.org/2000/svg" xmlns:xlink="http://www.w3.org/1999/xlink"
	 x="0px" y="0px" viewBox="0 0 162.5 367" xml:space="preserve">
<g id="PAD">
	<g id="XMLID_60_">
		<path id="XMLID_61_" fill="#59001D" d="M162.5,347c0,0,0,4.6,0-0.6s0-36.4,0-48.9c0-9.4,0-227.8,0-227.8V20c0-11-9-20-20-20
			L83.2,0L20,0C9,0,0,9,0,20l0,327c0,11,9,20,20,20h122.5C153.5,367,162.5,358,162.5,347z"/>
	</g>
	<g id="XMLID_58_">
		<path id="XMLID_59_" fill="#AA1C41" d="M154.5,344.9V24.5c0-11-9-20-20-20H21c-11,0-20,9-20,20v318c0,11,9,20,20,20h113.5
			C145.5,362.5,154.5,351.8,154.5,344.9z"/>
	</g>
	<g id="XMLID_56_">
		<path id="XMLID_57_" fill="#C0A987" d="M85.8,349.1c0,0,0-196,0-198.8c0-2.9,2.8-2.5,2.8-2.5h47.2c2.2,0,4-1.8,4-4V19.1
			c0-2.2-1.8-4-4-4h-120c-2.2,0-4,1.8-4,4v121.3v3.3v205.3c0,2.2,1.8,4,4,4h66C84,353.1,85.8,351.3,85.8,349.1z"/>
	</g>
	<g id="XMLID_54_">
		<rect id="XMLID_55_" x="38" y="15" fill="#414042" width="3" height="337.9"/>
	</g>
	<g id="XMLID_52_">
		<rect id="XMLID_53_" x="30.8" y="15" fill="#414042" width="3" height="337.9"/>
	</g>
	<g id="XMLID_50_">
		<path id="XMLID_51_" fill="#AA1C41" d="M24.5,206.1v-66c0-10.4,8.5-19,19-19h0c10.4,0,19,8.5,19,19v66c0,10.4-8.5,19-19,19h0
			C33,225.1,24.5,216.5,24.5,206.1z"/>
	</g>
	<g id="XMLID_48_">
		<circle id="XMLID_49_" fill="#AA1C41" cx="43.8" cy="261.8" r="21.2"/>
	</g>
	<g id="XMLID_46_">
		<circle id="XMLID_47_" fill="#AA1C41" cx="43.8" cy="310.5" r="21.5"/>
	</g>
	<g id="XMLID_44_">
		<circle id="XMLID_45_" fill="#414042" cx="43.8" cy="261.8" r="18.5"/>
	</g>
	<g id="XMLID_42_">
		<circle id="XMLID_43_" fill="#414042" cx="43.8" cy="310.5" r="18.5"/>
	</g>
	<g id="XMLID_40_">
		<path id="XMLID_41_" fill="#AA1C41" d="M74.6,101.3V83.2h19.3c1.1,0,2-0.9,2-2V52.5c0-1.1-0.9-2-2-2H74.6V32.3c0-1.1-0.9-2-2-2
			H45.8c-1.1,0-2,0.9-2,2v18.2H24.5c-1.1,0-2,0.9-2,2v28.7c0,1.1,0.9,2,2,2h19.3v18.2c0,1.1,0.9,2,2,2h26.8
			C73.7,103.3,74.6,102.4,74.6,101.3z"/>
	</g>
	<g id="XMLID_38_">
		<polygon id="XMLID_39_" fill="#414042" points="69.6,98.3 69.6,78.2 90.9,78.2 90.9,55.5 69.6,55.5 69.6,35.3 48.8,35.3 
			48.8,55.5 27.5,55.5 27.5,78.2 48.8,78.2 48.8,98.3 		"/>
	</g>
	<g id="XMLID_36_">
		<path id="XMLID_37_" fill="#414042" d="M39.2,158.6v-19.3c0-2.5,2-4.5,4.5-4.5h0c2.5,0,4.5,2,4.5,4.5v19.3c0,2.5-2,4.5-4.5,4.5h0
			C41.2,163.1,39.2,161.1,39.2,158.6z"/>
	</g>
	<g id="XMLID_34_">
		<path id="XMLID_35_" fill="#414042" d="M39.2,206.6v-19.3c0-2.5,2-4.5,4.5-4.5h0c2.5,0,4.5,2,4.5,4.5v19.3c0,2.5-2,4.5-4.5,4.5h0
			C41.2,211.1,39.2,209.1,39.2,206.6z"/>
	</g>
	<g id="XMLID_25_">
		<g id="XMLID_32_">
			<path id="XMLID_33_" fill="#414042" d="M74.1,264.3c0.1-0.3,0.1-0.9,0.1-1.8v-1.7h-2.3v1.9c0,0.7,0,1.2,0.1,1.4
				c0,0.3,0.2,0.6,0.3,0.8s0.4,0.3,0.7,0.3c0.3,0,0.5-0.1,0.7-0.2S74,264.6,74.1,264.3z"/>
		</g>
		<g id="XMLID_30_">
			<path id="XMLID_31_" fill="#414042" d="M75.7,263.6c0,0.4,0.1,0.6,0.3,0.8c0.2,0.2,0.4,0.3,0.7,0.3c0.3,0,0.5-0.1,0.6-0.3
				c0.2-0.2,0.3-0.4,0.3-0.8c0-0.2,0-0.8,0-1.8v-1.2h-2v1.4C75.7,262.9,75.7,263.4,75.7,263.6z"/>
		</g>
		<g id="XMLID_26_">
			<path id="XMLID_27_" fill="#414042" d="M80.4,267.5v-11.1c0-3.1-2.6-5.7-5.7-5.7s-5.7,2.6-5.7,5.7v11.1c0,3.1,2.6,5.7,5.7,5.7
				S80.4,270.7,80.4,267.5z M71.9,267c-0.4-0.2-0.7-0.5-0.9-0.9s-0.4-0.8-0.4-1.4c0-0.3-0.1-1.2-0.1-2.5v-3.5h8.6v4.1
				c0,0.8,0,1.4-0.1,1.8s-0.2,0.8-0.4,1.1s-0.4,0.6-0.7,0.8s-0.6,0.3-1,0.3c-0.4,0-0.8-0.1-1.1-0.4s-0.6-0.6-0.8-1.1
				c-0.2,0.6-0.4,1.1-0.8,1.4s-0.8,0.5-1.3,0.5C72.6,267.3,72.2,267.2,71.9,267z"/>
		</g>
	</g>
	<g id="XMLID_18_">
		<g id="XMLID_23_">
			<polygon id="XMLID_24_" fill="#414042" points="73.9,309.6 73.9,312.4 77.1,311 			"/>
		</g>
		<g id="XMLID_19_">
			<path id="XMLID_20_" fill="#414042" d="M80.4,316V305c0-3.1-2.6-5.7-5.7-5.7S69,301.8,69,305V316c0,3.1,2.6,5.7,5.7,5.7
				S80.4,319.2,80.4,316z M70.5,313.9l2-0.9V309l-2-0.8v-2.2l8.6,4v2.2l-8.6,4.1V313.9z"/>
		</g>
	</g>
	<g id="XMLID_14_">
		<path id="XMLID_15_" fill="#414042" d="M136.5,18.9h-25.3v25.3h25.3V18.9z M116.3,33.3c-0.1,0.3-0.3,0.8-0.4,1.5
			c0,0.2-0.2,0.3-0.5,0.3c-0.1,0-0.3,0-0.5-0.1c0-0.6,0.1-1.2,0.1-1.8c0-0.6,0-1.1,0-1.7c0-0.5,0-1.1,0-1.7s-0.1-1.2-0.1-1.7
			c0.2,0,0.3-0.1,0.5-0.1c0.3,0,0.4,0.1,0.5,0.3c0.1,0.7,0.3,1.2,0.4,1.5c0.2,0.3,0.4,0.4,0.8,0.4h14.4c0.4,0,0.6-0.1,0.8-0.4
			c0.2-0.3,0.3-0.8,0.4-1.5c0-0.1,0.1-0.2,0.2-0.2c0.1,0,0.2-0.1,0.3-0.1s0.3,0,0.5,0.1c0,0.6-0.1,1.2-0.1,1.8s0,1.2,0,1.7
			c0,0.5,0,1,0,1.6c0,0.6,0.1,1.2,0.1,1.8c-0.2,0-0.3,0.1-0.5,0.1c-0.3,0-0.4-0.1-0.5-0.3c-0.1-0.7-0.3-1.2-0.4-1.5
			c-0.2-0.3-0.4-0.4-0.8-0.4h-14.4C116.7,32.9,116.5,33,116.3,33.3z"/>
	</g>
	<g id="XMLID_12_">
		<circle id="XMLID_13_" fill="#282829" cx="59.2" cy="66.8" r="8.9"/>
	</g>
	<g id="XMLID_10_">
		<polygon id="XMLID_11_" points="86.9,66.9 80.8,59.6 80.8,61.1 73.6,61.1 73.6,72.7 80.8,72.7 80.8,74 		"/>
	</g>
	<g id="XMLID_8_">
		<polygon id="XMLID_9_" fill="#282829" points="86.9,66.9 80.8,59.6 80.8,61.1 73.6,61.1 73.6,72.7 80.8,72.7 80.8,74 		"/>
	</g>
	<g id="XMLID_6_">
		<polygon id="XMLID_7_" fill="#282829" points="59.3,39.1 52,45.2 53.5,45.2 53.5,52.5 65.1,52.5 65.1,45.2 66.4,45.2 		"/>
	</g>
	<g id="XMLID_4_">
		<polygon id="XMLID_5_" fill="#282829" points="31.5,66.7 37.6,74 37.6,72.5 44.8,72.5 44.8,60.9 37.6,60.9 37.6,59.6 		"/>
	</g>
	<g id="XMLID_2_">
		<polygon id="XMLID_3_" fill="#282829" points="59.1,94.5 66.4,88.4 64.9,88.4 64.9,81.2 53.3,81.2 53.3,88.4 52,88.4 		"/>
	</g>
</g>
</svg>
