<svg xmlns="http://www.w3.org/2000/svg" viewBox="0 0 835.07301 311.97138">
  <g fill="#282424">
    <path d="M297.9685975 0h59.83013127v311.8804572H297.9685975z"/>
    <path d="M357.79871695 304.78814104h27.64188308v7.09232545h-27.64188308z"/>
  </g>
  <g transform="matrix(0.90927247,0,0,0.90927247,0,0.09092725)">
    <path fill="#312f2f" d="M24.7 0h10.1v1.9h287.4V0h10.1C354.7.9 357 20.4 357 20.4v286.8s.6 5.7-2.1 8.5c-5.2 5.4-23.2 23.3-27.2 27.3H26.1S4.8 322.4 2.6 321.4c-1.5-2-2.6-5.4-2.6-13.7V20.3S2.4 1 24.7 0z"/>
    <path fill="#3f3f3f" d="M327.9 342.3c-.1.3-.1.5-.2.6H28.1S19.9 204.8 69.9 198c9.2-1.1 20.8 1.3 46.9 7.6 26.2 6.2 95.9 6.2 122.1 0 26.2-6.2 37.6-7.6 46.9-7.6 17.3 0 28 16.9 34.5 39.2 11.7 40.1 9.6 97.6 7.6 105.1z"/>
    <path fill="#181515" d="M178.6 215.1c-35.4 0-42.4-1.7-48.5-2.5-6-.8-4.2 4.7-4.2 4.7s3.1 20.4 3.5 28.1c.4 7.7 8.7 6.7 8.7 6.7h81s8.3 1.1 8.7-6.7c.4-7.8 3.5-28.1 3.5-28.1s1.8-5.5-4.2-4.7c-6.1.8-13.2 2.5-48.5 2.5z"/>
    <ellipse cx="178.60001" cy="106" fill="#30302f" rx="152.10001" ry="87.400002"/>
    <ellipse cx="178.60001" cy="105.8" fill="#181515" rx="150.5" ry="85.699997"/>
    <ellipse cx="178.60001" cy="103.8" fill="#2c2929" rx="123.7" ry="69.5"/>
    <path fill="#241c1e" d="M186.3 140.3l-7.9-8-7.6 8"/>
    <g fill="#929397">
      <path d="M202.3 239h-7.6v-1.8h5.2c-.4-1.1-.7-2.1-1-3-.8-2.3-1.5-4.7-2.3-7-.2-.6-.7-1.2-1.2-1.4-.8-.2-1.1.7-1.3 1.4-1.2 3.6-2.3 7.1-3.5 10.7-.3.8-.6 1.1-1.5 1.1-2.3-.1-4.7 0-7 0-2.4 0-3.9-1.6-3.9-4 0-2.2-.1-4.4 0-6.6.1-2.5 1.5-4 3.9-4h6.4v1.9h-5.4c-2.5 0-3.1.6-3.1 3.3v5c0 1.8.8 2.6 2.5 2.7h4.1v-5.8h-3.4v-1.8h5.4v7.6h.3c1.1-3.5 2.3-7 3.4-10.5.6-2 1.8-2.8 3.8-2.5 1.1.2 1.9.8 2.2 1.8 1.4 4.2 2.7 8.4 4.1 12.6 0 .1-.1.2-.1.3zm-47.5 0v-1.8h6c1.7 0 2.9-1.2 3-2.8.1-1.5-1.2-2.9-2.8-3-.7 0-1.3 0-2-.1-1-.1-1.8-1.1-1.8-2.2s.7-2.1 1.8-2.1c2.2-.1 4.3 0 6.6 0v1.8h-6.4v.6c.6 0 1.2.1 1.8.1 2.3.1 3.9 1.4 4.5 3.7.7 2.8-1.3 5.7-4 5.8-2.2.1-4.3 0-6.7 0z"/>
      <path d="M154.8 236.5v-1.9h6.4v-.5c-.7 0-1.3-.1-2-.1-1.8 0-3.2-.9-4-2.6-.8-1.7-.7-3.4.4-5 .7-1.1 1.8-1.8 3-1.9 2.2-.1 4.5 0 6.8 0v1.8h-6.1c-2 0-3.3 1.9-2.7 3.8.4 1.1 1.4 1.9 2.7 2 .6 0 1.3 0 1.9.1 1 .1 1.8 1.1 1.8 2.1 0 1.1-.8 2.1-1.7 2.2h-6.5zm22.5-12v1.8h-6c-2.1 0-2.8.7-2.8 2.9v5.2c0 2 .8 2.8 2.7 2.8h6v1.9H170c-1.7-.1-3.2-1.7-3.3-3.5-.1-2.5-.1-5.1 0-7.6 0-1.6 1.4-3.3 3-3.4 2.5-.2 5-.1 7.6-.1zm13.6 14.4c1.3-4 2.5-7.9 3.8-11.7.1-.3.4-.6.6-.7.1-.1.5.3.6.5 1 3.1 2.1 6.2 3.1 9.4h-4.3c0-.5-.1-.9-.1-1.3-.1 0-.1 0-.2-.1-.2.7-.5 1.4-.7 2.2-.7 2-.7 2-2.8 1.7zm3.7-4.5h1.5c-.2-.7-.4-1.4-.6-2h-.3c-.1.6-.3 1.2-.6 2zm-10.1-.2c-.6-.2-.9-.3-1.3-.4v-1.6h2.8v4.3c-1.4 0-2.9.1-4.3-.1-.4 0-.9-.7-1-1.2-.1-2.3-.1-4.6 0-6.9 0-.8.5-1.3 1.3-1.3h6.5v1.8h-4.8c-1 0-1.3.3-1.3 1.3.1 1.1 0 2.2 0 3.2.1 1.4.7 1.7 2.1.9z"/>
      <path d="M171.1 234.5c2 .4 4 0 6.1.2v1.7c-2.4 0-4.7.1-7-.1-.4 0-.9-.8-1-1.3-.2-.9 0-1.9 0-3h6.6v1.7h-4.6c0 .4-.1.6-.1.8zm6.2-7.5v1.7c-2 .3-4.1-.2-6.1.3v.5h4.6v1.8h-6.5c0-1.1-.1-2.2 0-3.3.1-.4.7-1 1-1h7z"/>
    </g>
    <path fill="#241c1e" d="M152.6 144.9l-1.3.1c0-.9-.3-1.4-.9-1.4-.7 0-1 .7-1 2.1 0 .8.1 1.4.3 1.6.2.3.4.4.8.4.5 0 .8-.4 1-1.2l1.2.1c-.1.8-.3 1.4-.7 1.8-.4.4-.9.6-1.5.6-.7 0-1.3-.3-1.8-.9-.4-.6-.7-1.4-.7-2.4s.2-1.8.7-2.4c.4-.6 1-.9 1.8-.9 1.2 0 1.9.8 2.1 2.5zm2.9-2.4l1.7 6.4h-1.4l-.3-1.3h-1.8l-.3 1.3h-1.1l1.7-6.4h1.5zm-1.4 3.9h1.2l-.6-2.3-.6 2.3zm4.7 0v2.5h-1.3v-6.4h2.4c.4 0 .8.1 1.1.2.3.1.5.3.7.7.2.3.3.7.3 1.1 0 .8-.3 1.3-.9 1.7l1 2.8h-1.4l-.8-2.5h-1.1zm0-2.7v1.6h.8c.3 0 .4 0 .6-.1.1 0 .2-.1.3-.3.1-.1.1-.3.1-.5s0-.3-.1-.5-.2-.2-.3-.3h-1.4zm7.3-1.2v1.3h-1.3v5.2h-1.3v-5.2h-1.4v-1.3h4zm1.7 3.9v2.5h-1.3v-6.4h2.4c.4 0 .8.1 1.1.2.3.1.5.3.7.7.2.3.3.7.3 1.1 0 .8-.3 1.3-.9 1.7l1 2.8h-1.4l-.8-2.5h-1.1zm0-2.7v1.6h.8c.3 0 .4 0 .6-.1.1 0 .2-.1.3-.3.1-.1.1-.3.1-.5s0-.3-.1-.5l-.3-.3h-1.4zm4.7-1.2v6.4h-1.3v-6.4h1.3zm.4 0h1.7c.7 0 1.2.1 1.5.3.3.2.6.6.9 1.1.3.5.4 1.1.4 1.8 0 .9-.2 1.7-.7 2.3-.5.6-1.1.9-1.9.9h-1.9v-6.4zm1.3 1.2v4h.5c.5 0 .8-.2 1-.6.2-.4.3-.9.3-1.4 0-.4-.1-.7-.2-1.1-.1-.3-.3-.6-.5-.7-.2-.1-.4-.2-.7-.2h-.4zm7.9 1.8s0 2-.7 2.8c-.7.7-.9.8-1.5.8-.7 0-1.3-.3-1.7-.9-.4-.6-.6-1.4-.6-2.3 0-1 .2-1.8.6-2.5.4-.6 1-.9 1.7-.9.6 0 1.1.2 1.5.6.4.4.6.9.7 1.6l-1.2.2c-.1-.8-.4-1.2-.9-1.2-.3 0-.6.2-.8.6-.2.4-.3.9-.3 1.6 0 .7.1 1.2.3 1.5.2.3.5.5.8.5.2 0 .4-.1.6-.3.2-.2.3-.5.3-.8h-1v-1.2h2.2zm4.2-1.8h-2.6v1.3h2v1.2h-2v1.4h2.6v1.3h-3.9v-6.4h3.9v1.2zm5-1.2v6.4H190v-6.4h1.3zm4.5 0v6.4h-1.1l-2.1-4.3v4.3h-1v-6.4h1.4l1.8 3.8v-3.8h1zm1.5 4.1v2.4H196v-6.4h2.1c.5 0 .8.1 1.1.2.3.1.5.3.7.6.2.3.3.7.3 1.1 0 .3-.1.6-.2.9-.1.3-.3.5-.4.7-.2.2-.4.3-.6.3-.2.1-.5.1-.9.1h-.8zm0-1.2h.8c.3 0 .5-.1.7-.3.2-.2.2-.4.2-.6 0-.3-.1-.5-.2-.6-.1-.2-.4-.2-.6-.2h-.8v1.7zm7.5-2.9v4c0 .6-.1 1.1-.2 1.4-.1.3-.4.6-.7.8-.3.2-.8.3-1.3.3s-.9-.1-1.2-.3c-.3-.2-.5-.4-.7-.8-.2-.4-.2-.8-.2-1.5v-4h1.4v4c0 .3 0 .6.1.8 0 .2.1.3.3.4.2.1.3.1.5.1s.4 0 .6-.1c.2-.1.2-.2.3-.4 0-.2.1-.4.1-.8v-4h1zm4.3 0v1.3h-1.3v5.2h-1.3v-5.2h-1.4v-1.3h4z"/>
    <path fill="#181515" d="M272.3 122.3H84.8c-10.3 0-18.8-8.5-18.8-18.8V101c0-10.3 8.5-18.8 18.8-18.8h187.4c10.3 0 18.8 8.5 18.8 18.8v2.5c.1 10.3-8.4 18.8-18.7 18.8z"/>
    <path d="M79.300003 88.699997h198.39999v28.200001H79.300003z"/>
    <path fill="#732a46" d="M80.300003 89.699997h196.39999v26.200001H80.300003z"/>
    <path fill="#010102" d="M79.300003 102.3h198.39999v1H79.300003z"/>
    <path fill="#181515" d="M43.5 220.3c6.2-12.2 16-18.4 27.5-20 9.2-1.1 22.7 3.9 48.9 10.1 13.1 3.1 33.9 4.7 58 4.6 24.1 0 44.9-1.5 58-4.6 26.2-6.2 39.6-11.2 48.9-10.1 11.5 1.6 22.5 7.4 28.6 19.6-6.5-13.2-15.5-21.9-28-21.9-9.3 0-20.8 1.3-46.9 7.6-13 3.1-36.8 4.7-60.6 4.7-24.1 0-48.3-1.5-61.4-4.7-26.2-6.2-37.7-8.7-46.9-7.6-11.5 1.6-19.9 10.1-26.1 22.3z"/>
    <path fill="#3f4040" d="M286.3 277.2c0 13.2-15.2 15.5-15.2 15.5h-185c-2.7 0-15.2-2.2-15.2-15.5 0-13.2 15.2-15.5 15.2-15.5h185s15.2 2.3 15.2 15.5z"/>
    <path fill="#333" d="M274 289.1H83.4c-4.8 0-8.8-3.9-8.8-8.8v-6.1c0-4.8 3.9-8.8 8.8-8.8H274c4.8 0 8.8 3.9 8.8 8.8v6.1c0 4.9-3.9 8.8-8.8 8.8z"/>
    <path fill="#212020" d="M269.7 285.4h-31.4c-4.5 0-8.2-3.7-8.2-8.2 0-4.5 3.7-8.2 8.2-8.2h31.4c4.5 0 8.2 3.7 8.2 8.2 0 4.5-3.7 8.2-8.2 8.2z"/>
    <path fill="#6177b3" d="M270.1 282.2h-32.2c-2.5 0-4.6-2.1-4.6-4.6v-.9c0-2.5 2.1-4.6 4.6-4.6h32.2c2.5 0 4.6 2.1 4.6 4.6v.9c-.1 2.6-2.1 4.6-4.6 4.6z"/>
    <circle cx="240.10001" cy="277.29999" r="1" fill="#45537c"/>
    <circle cx="247" cy="277.29999" r="1" fill="#45537c"/>
    <circle cx="253.89999" cy="277.29999" r="1" fill="#45537c"/>
    <circle cx="260.79999" cy="277.29999" r="1" fill="#45537c"/>
    <circle cx="267.70001" cy="277.29999" r="1" fill="#45537c"/>
    <path fill="#212020" d="M119 285.4H87.6c-4.5 0-8.2-3.7-8.2-8.2 0-4.5 3.7-8.2 8.2-8.2H119c4.5 0 8.2 3.7 8.2 8.2 0 4.5-3.7 8.2-8.2 8.2z"/>
    <path fill="#cbcfd8" d="M119.4 282.2H87.1c-2.5 0-4.6-2.1-4.6-4.6v-.9c0-2.5 2.1-4.6 4.6-4.6h32.2c2.5 0 4.6 2.1 4.6 4.6v.9c0 2.6-2 4.6-4.5 4.6z"/>
    <path fill="#7d8189" d="M106.1 272.2c-2 0-3.5 2.2-3.5 5s1.6 5 3.5 5H94.7c2 0 3.5-2.2 3.5-5s-1.6-5-3.5-5h11.4z"/>
    <path fill="#6b6d72" d="M99.800003 272.20001h1.1v10h-1.1z"/>
    <path fill="#929397" d="M94.7 272.2h-8c-2 0-3.5 2.2-3.5 5s1.6 5 3.5 5h8c2 0 3.5-2.2 3.5-5s-1.6-5-3.5-5zm19.4 0h-8c-2 0-3.5 2.2-3.5 5s1.6 5 3.5 5h8c2 0 3.5-2.2 3.5-5s-1.6-5-3.5-5z"/>
    <path fill="#444546" d="M322.2 1.9v12s-.1 1.5-2.1 1.5H37c-2 0-2.1-1.5-2.1-1.5v-12l143.7.1 143.6-.1z"/>
    <path fill="#282424" d="M36.099998 0h2.5999999v13.7H36.099998zm4 0h2.5999999v13.7H40.099998zm4 0h2.5999999v13.7H44.099998zm4 0h2.5999999v13.7H48.099998zm4 0h2.5999999v13.7H52.099998zm4 0h2.5999999v13.7H56.099998zm4.100003 0h2.5999999v13.7H60.200001zm3.999996 0h2.5999999v13.7H64.199997zm4.100006 0h2.5999999v13.7H68.300003zm4 0h2.5999999v13.7H72.300003zm4.099999 0h2.5999999v13.7H76.400002zm4 0h2.5999999v13.7H80.400002zm3.900001 0h2.5999999v13.7H84.300003zm4 0h2.5999999v13.7H88.300003zm4.099999 0h2.5999999v13.7H92.400002zm4 0h2.5999999v13.7H96.400002zM100.5 0h2.5999999v13.7H100.5zm4 0h2.5999999v13.7H104.5zm4 0h2.5999999v13.7H108.5zm4 0h2.5999999v13.7H112.5zm4 0h2.5999999v13.7H116.5zm4 0h2.5999999v13.7H120.5zm4.1 0h2.5999999v13.7H124.6zm4.00001 0h2.5999999v13.7H128.60001zm4 0h2.5999999v13.7H132.60001zm4 0h2.5999999v13.7H136.60001zM140.7 0h2.5999999v13.7H140.7zm4 0h2.5999999v13.7H144.7zm3.90001 0h2.5999999v13.7H148.60001zM152.7 0h2.5999999v13.7H152.7zm4 0h2.5999999v13.7H156.7zm4 0h2.5999999v13.7H160.7zm4.3 0h2.5999999v13.7H165zm4.10001 0h2.5999999v13.7H169.10001zm4 0h2.5999999v13.7H173.10001zM177 0h2.5999999v13.7H177zm4 0h2.5999999v13.7H181zm4.10001 0h2.5999999v13.7H185.10001zm4 0h2.5999999v13.7H189.10001zM193.2 0h2.5999999v13.7H193.2zm4 0h2.5999999v13.7H197.2zm4.1 0h2.5999999v13.7H201.3zm4 0h2.5999999v13.7H205.3zm3.9 0h2.5999999v13.7H209.2zm4 0h2.5999999v13.7H213.2zm4.1 0h2.5999999v13.7H217.3zm4 0h2.5999999v13.7H221.3zm4.4 0h2.5999999v13.7H225.7zm4.1 0h2.5999999v13.7H229.8zm4 0h2.5999999v13.7H233.8zm3.9 0h2.5999999v13.7H237.7zm4 0h2.5999999v13.7H241.7zm4.1 0h2.5999999v13.7H245.8zm4 0h2.5999999v13.7H249.8zm4.09999 0h2.5999999v13.7H253.89999zm4 0h2.5999999v13.7H257.89999zM262 0h2.5999999v13.7H262zm4 0h2.5999999v13.7H266zm3.89999 0h2.5999999v13.7H269.89999zm4 0h2.5999999v13.7H273.89999zM278 0h2.5999999v13.7H278zm4 0h2.5999999v13.7H282zm4.20001 0h2.5999999v13.7H286.20001zm4.09998 0h2.5999999v13.7H290.29999zm4 0h2.5999999v13.7H294.29999zm3.90002 0h2.5999999v13.7H298.20001zm4 0h2.5999999v13.7H302.20001zm4.09998 0h2.5999999v13.7H306.29999zm4 0h2.5999999v13.7H310.29999zm4.1 0h2.5999999v13.7H314.39999zm4 0h2.5999999v13.7H318.39999z"/>
    <path fill="#82888b" d="M248.4 299.2h-.7l-.4-1c0-.1-.1-.1-.1-.2s-.1-.1-.1-.2c-.1 0-.1-.1-.2-.1h-.9v1.5h-.7v-3.7h2.3c.1 0 .2 0 .2.1.1 0 .1.1.2.1l.2.2c.1.1.1.1.1.2s.1.1.1.2v.2c0 .2-.1.4-.2.6-.1.2-.3.3-.5.4.2.1.3.3.4.6l.3 1.1zm-2.5-2.1h1.2c.1 0 .2 0 .2-.1.1 0 .1-.1.1-.2v-.2c0-.2-.1-.3-.2-.4-.1-.1-.3-.1-.5-.1h-1v1zm6 2.1H249v-3.7h2.8v.6h-2.1v.8h1.9v.6h-1.9v1h2.1v.7zm2.1.1c-.3 0-.5 0-.7-.1-.2-.1-.4-.2-.5-.3-.1-.1-.2-.3-.3-.4-.1-.2-.1-.4-.1-.6h.7c0 .1 0 .2.1.3.1.1.1.2.2.2.1.1.2.1.3.1h.6c.1 0 .2-.1.2-.1.1 0 .1-.1.2-.2 0-.1.1-.1.1-.2s0-.1-.1-.2c0-.1-.1-.1-.2-.1s-.2-.1-.3-.1c-.1 0-.3-.1-.5-.1s-.4-.1-.5-.2c-.1-.1-.3-.1-.4-.2-.1-.1-.2-.2-.2-.3 0-.1-.1-.2-.1-.4s0-.3.1-.4l.3-.3c.1-.1.3-.2.4-.2.2-.1.4-.1.6-.1.2 0 .4 0 .6.1.2.1.3.1.5.2s.2.2.3.4c.1.2.1.3.1.5h-.7c0-.4-.3-.6-.8-.6-.2 0-.4 0-.5.1-.1.1-.2.2-.2.3v.1l.1.1s.1.1.2.1.2.1.3.1c.1 0 .2 0 .3.1.1 0 .2.1.3.1.1 0 .2.1.3.1.1.1.2.1.3.2.1.1.1.2.2.3 0 .1.1.2.1.4s0 .3-.1.5-.2.3-.3.4c-.1.1-.3.2-.4.2-.1.2-.3.2-.5.2zm5-.1h-2.8v-3.7h2.8v.6h-2.1v.8h1.9v.6h-1.9v1h2.1v.7zm3.4-3h-1.2v3.1h-.7v-3.1h-1.1v-.6h3v.6zm-170.5-.9h1.9c.1 0 .3 0 .4.1.1 0 .2.1.3.1.1.1.2.1.2.2.1.1.1.2.2.3 0 .1.1.3.1.4 0 .4-.1.7-.4.9-.3.2-.6.3-1.1.3h-.8v1.5H92v-3.8zm.7 1.8h1.1l.2-.1c.1 0 .1-.1.1-.2v-.2c0-.1 0-.2-.1-.3 0-.1-.1-.1-.2-.2-.1 0-.2-.1-.2-.1h-1.1v1.1zm4.8-1.9c.3 0 .5 0 .8.1.3.1.4.2.6.4.2.2.3.4.4.6.1.3.1.5.1.8 0 .3 0 .6-.1.8-.1.3-.2.5-.4.6-.2.2-.4.3-.6.4-.2.1-.5.1-.8.1-.3 0-.5 0-.8-.1-.2-.1-.4-.2-.6-.4-.2-.2-.3-.4-.4-.6-.1-.3-.1-.5-.1-.8 0-.3 0-.6.1-.8.1-.3.2-.5.4-.6.2-.2.4-.3.6-.4.3 0 .6-.1.8-.1zm0 3.5c.2 0 .3 0 .5-.1.1-.1.3-.2.4-.3.1-.1.2-.3.2-.4.1-.2.1-.4.1-.6 0-.2 0-.4-.1-.6-.1-.2-.1-.3-.2-.4-.1-.1-.2-.2-.4-.3-.1-.1-.3-.1-.5-.1s-.3 0-.5.1c-.1.1-.3.2-.4.3-.1.1-.2.3-.2.4-.1.2-.1.4-.1.6 0 .2 0 .4.1.6.1.2.1.3.2.4.1.1.2.2.4.3.2 0 .4.1.5.1zm7.5-3.4l-1.1 4h-.7l-.8-2.9-.8 2.9h-.7l-1.1-4h.8l.7 2.7.7-2.7h.8l.7 2.7.7-2.7h.8zm3.6 4h-3v-4h2.9v.7h-2.2v.9h2.1v.7h-2.1v1h2.3v.7zm4.2 0h-.8l-.4-1.1c0-.1-.1-.1-.1-.2s-.1-.1-.2-.2c-.1 0-.1-.1-.2-.1h-1v1.6h-.7v-4h2.4c.1 0 .2 0 .3.1.1 0 .2.1.2.1l.2.2c0 .1.1.1.1.2s.1.2.1.2v.2c0 .2-.1.4-.2.6-.1.2-.3.3-.5.4.2.1.3.3.4.6l.4 1.4zM110 297h1.3c.1 0 .2 0 .2-.1.1 0 .1-.1.1-.2v-.2c0-.2-.1-.3-.2-.4-.1-.1-.3-.1-.5-.1h-.9v1z"/>
    <path fill="#929397" d="M77.2 319v-1.9c1.9-.5 3.2-1.1 3.8-1.9h1.9v9.5h-2.5v-7.1c-1.4.7-2.5 1.1-3.2 1.4zm27.8-3.70001h2.5999999v9.3999996H105zm6.1 1.80001h-2.8v-1.8h8.2v1.8h-2.8v7.6h-2.6m-15.9-8.4c0-.6.5-1 1-1h4.2c.9 0 1.6.1 2.1.3.5.2.9.5 1.2.8.3.4.5.8.5 1.3 0 1-.7 1.7-2 2.1.8.1 1.4.4 1.7.9.4.4.6.9.6 1.4 0 .7-.3 1.3-1 1.8-.6.5-1.7.8-3.1.8h-4.2c-.6 0-1-.5-1-1v-7.4zm2.6 1.4c0 .2.5.4 1 .4h1c.7 0 1.2 0 1.4-.1.2-.1.3-.2.3-.2 0-.1-.1-.2-.2-.2-.2-.1-.3-.1-.5-.1h-1.9c-.7-.2-1.1 0-1.1.2zm.6 3.7h1.4c.7 0 1.2 0 1.5-.1.3-.1.4-.2.4-.3 0-.1-.1-.2-.4-.3-.3-.1-.7-.1-1.4-.1h-1.1c-.6 0-1 .2-1 .4v3.6h.6v-3.2zm-11.3-3.7h6.6v-2.6h-7.6c-1.1 0-2 .9-2 2v5.7c0 1.1.9 2 2 2h5.6c1.1 0 2-.9 2-2v-2.3c0-1-.8-1.8-1.8-2.1h-4.2v2.2h3.1v.8H87v-3.7zm139 5.3l4.3-6.5c.2-.4.4-.6.6-.6h3.1v.9l.2-.3c.2-.4.4-.6.6-.6h3.7v7h-2.5v-5.5l-3.7 5.5H230l3.7-5.5h-1.2c-.1 0-.3.1-.4.2l-3.5 5.4h-2.5zm15.7-2.8v1.3h5.7v1.5h-8.2v-4.6c0-.1 0-.2.1-.4l1.1-1.8c.1-.1.2-.2.4-.2h6.5v1.5h-4.9c-.1 0-.2.1-.3.2l-.5 1.1h5.7l-.8 1.5h-4.8zm9 1.3h4.1v-1.3h-1.6l.8-1.5h3.3v3.9c0 .2-.1.4-.4.4h-8.2c-.3 0-.4-.1-.4-.4v-4.2c0-.1 0-.2.1-.4l1.1-1.8c.1-.1.2-.2.4-.2h6.9v1.5h-5.3c-.1 0-.2.1-.3.2l-.5 1.1v2.7zm17.6 1.5h-2.9l-1.1-1.5h-3l-.8-1.3v2.8h-2.5v-7h4.7c.2 0 .4.2.6.6l5 6.4zm-5.1-3l-1.8-2.4c-.1-.1-.3-.2-.4-.2h-.4v2.6h2.6zm39.6-5.9h-10.2c2.2-1.2 5.4-2.9 6.8-4.7 2.7-3.4-1.7-5.8-5.3-4.6-5 1.7-7.1 4.1-10 6.6h-5.9c4.2-8.1 9.5-12.4 17.5-14.6 8.6-2.3 12.6 3.3 11 9.9-.8 3.5-1.2 4.1-3.9 7.4zm-13.5 13.2c0-.3.2-.6.4-1 .2-.5.6-.8.7-1h-10.2c-.8 1.4-1.5 2.1-2 4.7-.5 2.8 1.1 4.1 2 4.1h24.6l3.6-6.9h-19.1z"/>
    <path fill="#8c8e92" d="M272.4 321.7h2.6c.1 0 .2-.1.3-.2l.8-1.7v-.4l-.8-1.7c-.1-.1-.2-.2-.3-.2h-2.6v4.2zm-2.2-5.7h6.3c.2 0 .3.1.5.4l1.5 3v.4l-1.5 3c-.1.3-.3.4-.5.4h-6.3V316zm9 0h6c.2 0 .3.1.5.4l1 2.1v.4l-1.5 1.7 1.5 2.6h-2.3l-2.2-3.6h1.1c.1 0 .2 0 .3-.1l.8-.9-.4-.9c-.1-.1-.2-.2-.3-.2h-2.4v5.7H279V316h.2zm10.6 7.2h-2.3V316h2.3v7.2zm3-4.8l2.3 3.3 2.3-3.3V316h2.3v2.6c0 .3 0 .4-.1.6l-2.5 4h-3.8l-2.5-4c-.1-.1-.1-.3-.1-.6V316h2.3v2.4h-.2zm9.8 2v1.3h5.3v1.5h-7.5v-4.7c0-.1 0-.3.1-.4l1-1.9c.1-.1.2-.2.4-.2h6v1.5h-4.5c-.1 0-.2.1-.3.2l-.5 1.1h5.3l-.8 1.5h-4.5v.1z"/>
    <path fill="#929397" d="M78.4 297.3c0-.4.1-.8.2-1.1.1-.2.2-.4.4-.6.2-.2.4-.3.6-.4.3-.1.6-.2.9-.2.6 0 1.1.2 1.5.6.4.4.6.9.6 1.6 0 .7-.2 1.2-.6 1.6-.4.4-.9.6-1.5.6s-1.1-.2-1.5-.6c-.4-.3-.6-.8-.6-1.5zm.9 0c0 .5.1.9.3 1.1.2.3.5.4.9.4s.6-.1.9-.4c.2-.3.3-.6.3-1.1 0-.5-.1-.9-.3-1.1-.2-.2-.5-.4-.9-.4s-.6.1-.9.4c-.2.2-.3.6-.3 1.1zm4 2.1v-4.3h.8l1.8 2.9v-2.9h.8v4.3h-.9l-1.7-2.8v2.8h-.8zm34.8-2.1c0-.4.1-.8.2-1.1.1-.2.2-.4.4-.6.2-.2.4-.3.6-.4.3-.1.6-.2.9-.2.6 0 1.1.2 1.5.6.4.4.6.9.6 1.6 0 .7-.2 1.2-.6 1.6-.4.4-.9.6-1.5.6s-1.1-.2-1.5-.6c-.4-.3-.6-.8-.6-1.5zm.9 0c0 .5.1.9.3 1.1.2.3.5.4.9.4s.6-.1.9-.4c.2-.3.3-.6.3-1.1 0-.5-.1-.9-.3-1.1-.2-.2-.5-.4-.9-.4s-.6.1-.9.4c-.2.2-.3.6-.3 1.1zm4 2.1v-4.3h2.9v.7h-2.1v1h1.8v.7h-1.8v1.8h-.8zm3.7 0v-4.3h2.9v.7h-2.1v1h1.8v.7h-1.8v1.8h-.8z"/>
    <path fill="#929397" d="M85.4 301.8h-5.3c-2.2 0-4.1-1.8-4.1-4.1v-1c0-2.2 1.8-4.1 4.1-4.1h5.3c2.2 0 4.1 1.8 4.1 4.1v1c-.1 2.3-1.9 4.1-4.1 4.1zm-5.3-8.1c-1.7 0-3.1 1.4-3.1 3.1v1c0 1.7 1.4 3.1 3.1 3.1h5.3c1.7 0 3.1-1.4 3.1-3.1v-1c0-1.7-1.4-3.1-3.1-3.1h-5.3zm47.5 8.1H120c-2.2 0-4.1-1.8-4.1-4.1v-1c0-2.2 1.8-4.1 4.1-4.1h7.6c2.2 0 4.1 1.8 4.1 4.1v1c0 2.3-1.8 4.1-4.1 4.1zm-7.5-8.1c-1.7 0-3.1 1.4-3.1 3.1v1c0 1.7 1.4 3.1 3.1 3.1h7.6c1.7 0 3.1-1.4 3.1-3.1v-1c0-1.7-1.4-3.1-3.1-3.1h-7.6z"/>
  </g>
  <g transform="matrix(0.90927247,0,0,0.90927247,0,0.09092725)">
    <path fill="#3f3f3f" d="M364.5 309.1V14.2C364.5 6.4 370 0 376.6 0h17v1.9h223.8V0h17.9c6.6 0 12.1 6.4 12.1 14.2V217c0 69.3-48.2 126-107 126H422.2c-18 0-35.4-9.5-46.7-22.1"/>
    <path fill="#312f2f" d="M540.3 291H421.6c-9.5 0-19 1.5-28.1 4.4l-29 13.7V12c0-6.6 5.4-12 12.1-12h17v1.9l223.8.4V0h17.9c6.6 0 12.1 5.4 12.1 12v172.1c-.1 58.8-48.2 106.9-107.1 106.9z"/>
    <path fill="#181515" d="M526.4 277.4h-85.2c-31.6 0-57.4-25.7-57.4-57.3V66.6c0-14.5 11.8-26.3 26.3-26.3h196.8c14.5 0 26.3 11.8 26.3 26.3v104.1c0 58.9-47.9 106.7-106.8 106.7zM410.1 41.3c-14 0-25.3 11.3-25.3 25.3v153.5c0 31.1 25.3 56.3 56.4 56.3h85.2c58.3 0 105.8-47.4 105.8-105.7V66.6c0-13.9-11.4-25.3-25.3-25.3H410.1z"/>
    <path fill="#181515" d="M384.29999 94.800003h248.39999v1.8H384.29999z"/>
    <g fill="#929397">
      <path d="M520.5 162.1v.2c0 .2 0 .3-.7.3s-.6-.1-.7-.3v-1.4c0-.2 0-.3.7-.3s.6.1.7.3v.2h.9v-.5c-.1-.5.1-.9-1.5-.9-1.7 0-1.5.4-1.5.9v1.8c.1.5-.1.9 1.5.9 1.7 0 1.5-.4 1.5-.9v-.4h-.9v.1zm-12.7 1.3v-2.5l.9 2.5h.8l.9-2.5v2.5h.9V160H510l-.9 2.5-.9-2.5h-1.3v3.4m15.5 0v-2.5h-.8v-.9h2.5v.9h-.8v2.5m-6.2-.7H516l.2-.6h.8l-.4-1.3-.8 2.6h-.9l1-3.4h1.3l1 3.4h-.9m-12.5-2.7c.7 0 .6.1.7.3v1.4c0 .2 0 .3-.7.3s-.6-.1-.7-.3V161c.1-.2.1-.3.7-.3v-.8c-1.7 0-1.5.4-1.5.9v1.8c.1.5-.1.9 1.5.9 1.7 0 1.5-.4 1.5-.9v-1.8c-.1-.5.1-.9-1.5-.9v.8zm-2.9 1.4v.2c0 .2 0 .3-.7.3s-.6-.1-.7-.3v-1.4c0-.2 0-.3.7-.3s.6.1.7.3v.2h.9v-.5c-.1-.5.1-.9-1.5-.9-1.7 0-1.5.4-1.5.9v1.8c.1.5-.1.9 1.5.9 1.7 0 1.5-.4 1.5-.9v-.4h-.9zm11.5.5h-.5v-.8h.5c.7 0 .6-.1.7-.3v-.4c0-.2 0-.3-.7-.3h-.5v2.6h-.9V160h1.4c1.7 0 1.5.4 1.5.9v.8c0 .5.1.9-1.5.9zm-16.9 13.6h-5.4c-.8 0-1.4-.6-1.4-1.4v-8.3c0-.8.6-1.4 1.4-1.4h3.4c.4 0 .7-.3.7-.7v-3.3c0-.2.1-.3.3-.3h2c.2 0 .3.1.3.3V176c0 .2-.1.3-.3.3l-1-.1v.7h1.4c.4 0 .7-.3.7-.7v-15.5c0-.4-.3-.7-.7-.7h-2.6c-.4 0-.7.3-.7.7v3.3c0 .2-.1.3-.3.3h-3.1c-1.2 0-2.2 1-2.2 2.2v8.3c0 1.2 1 2.2 2.2 2.2h5.4l-.1-.8z"/>
      <path d="M494.4 173.2v-5.4c0-.4-.4-.8-.8-.8s-.8.4-.8.8v5.8c0 .4.4.8.8.8s.8-.4.8-.8v-.4h.7v.4c0 .9-.7 1.6-1.6 1.6-.9 0-1.6-.7-1.6-1.6v-5.8c0-.9.7-1.6 1.6-1.6.9 0 1.6.7 1.6 1.6v5.4h-.7zm7.2 3h-1c-.2 0-.3-.1-.3-.3v-10.5c0-.2.1-.3.3-.3h2c.2 0 .3.1.3.3v10.5c0 .2-.1.3-.3.3h-1v.7h1.3c.4 0 .7-.3.7-.7v-11.1c0-.4-.3-.7-.7-.7h-2.6c-.4 0-.7.3-.7.7v11.1c0 .4.3.7.7.7h1.3v-.7zm9.5-9h-2.2c-.7 0-1.2.5-1.2 1.2s.5 1.2 1.2 1.2h3c.8 0 1.4.6 1.4 1.4v3.7c0 .8-.6 1.4-1.4 1.4h-6c-.2 0-.3-.1-.3-.3v-1.4c0-.2.1-.3.3-.3h4.1c.7 0 1.2-.5 1.2-1.2s-.5-1.2-1.2-1.2h-2.9c-.8 0-1.4-.6-1.4-1.4v-3.7c0-.8.6-1.4 1.4-1.4h5.5c.2 0 .3.1.3.3v1.5c0 .2-.1.3-.3.3l-1.5-.1v.7h1.8c.4 0 .7-.3.7-.7v-2.1c0-.4-.3-.7-.7-.7h-5.8c-1.2 0-2.2 1-2.2 2.2v3.7c0 1.2 1 2.2 2.2 2.2h2.9c.3 0 .5.2.5.5s-.2.5-.5.5h-4.4c-.4 0-.7.3-.7.7v2.1c0 .4.3.7.7.7h6.3c1.2 0 2.2-1 2.2-2.2v-3.7c0-1.2-1-2.2-2.2-2.2h-3c-.3 0-.5-.2-.5-.5s.2-.5.5-.5h2.2v-.7zm11 2h.9c.2 0 .3-.1.3-.3v-2.4c0-.8-.6-1.4-1.4-1.4h-4.7c-.8 0-1.4.6-1.4 1.4v8.3c0 .8.6 1.4 1.4 1.4h4.7c.8 0 1.4-.6 1.4-1.4v-2.3c0-.2-.1-.3-.3-.3h-1.8c-.2 0-.3.1-.3.3v1.1c0 .9-.5 1.6-1.4 1.6-.9 0-1.4-.7-1.4-1.6v-5.8c0-.9.5-1.6 1.4-1.6.9 0 1.4.7 1.4 1.6v1.1c0 .2.1.3.3.3h.9v.7H521c-.4 0-.7-.3-.7-.7v-1.4c0-.4-.2-.8-.7-.8-.5 0-.7.4-.7.8v5.8c0 .4.2.8.7.8.5 0 .7-.4.7-.8v-1.4c0-.4.3-.7.7-.7h2.4c.4 0 .7.3.7.7v2.6c0 1.2-1 2.2-2.2 2.2h-4.7c-1.2 0-2.2-1-2.2-2.2v-8.3c0-1.2 1-2.2 2.2-2.2h4.7c1.2 0 2.2 1 2.2 2.2v2.7c0 .4-.3.7-.7.7h-1.3v-.7z"/>
    </g>
    <path fill="#181515" d="M543.1 186c-34.3 32.7-52.8 60.1-39.9 73.7 13 13.6 54 9.2 88.3-23.5s42.3-73.6 29.3-87.1c-13-13.5-43.4 4.2-77.7 36.9z"/>
    <path fill="#2c2929" d="M549.5 194.4c-20.3 19.4-29.9 42.4-21.2 51.5 8.7 9.1 32.1.6 52.5-18.7 20.3-19.4 29.9-42.4 21.2-51.5-8.7-9.1-32.1-.7-52.5 18.7z"/>
    <circle cx="549.59998" cy="225.3" r="2.9000001" fill="#181515"/>
    <circle cx="558.5" cy="216.2" r="2.9000001" fill="#181515"/>
    <circle cx="567.40002" cy="207.10001" r="2.9000001" fill="#181515"/>
    <circle cx="576.29999" cy="198.39999" r="2.9000001" fill="#181515"/>
    <path fill="#241c1e" d="M446.3 325h-1l-.5-1.9H443l-.5 1.9h-1l1.9-6.7h.9l2 6.7zm-1.9-3l-.6-2.1-.6 2.1h1.2zm5.6-1.4c0-.2 0-.4-.1-.5-.1-.2-.1-.3-.2-.4l-.3-.3c-.1-.1-.3-.1-.4-.1-.2 0-.4.1-.6.2-.2.1-.3.3-.4.4-.1.2-.2.4-.3.7-.1.3-.1.6-.1 1s0 .7.1 1c.1.3.2.5.3.7.1.2.3.3.4.5.2.1.4.2.6.2.2 0 .3 0 .4-.1.1-.1.2-.1.3-.3.1-.1.2-.3.2-.4.1-.2.1-.4.1-.6h.9c0 .4-.1.8-.2 1.1-.1.3-.3.6-.4.8-.2.2-.4.4-.6.5-.2.1-.5.2-.8.2-.4 0-.7-.1-1-.2-.3-.2-.5-.4-.7-.7-.2-.3-.4-.7-.5-1.1-.1-.4-.2-.9-.2-1.4 0-.5.1-1 .2-1.4.1-.4.3-.8.5-1.1.2-.3.4-.5.7-.7.3-.2.6-.2.9-.2.3 0 .5.1.7.2.2.1.4.3.6.5.2.2.3.5.4.8.1.3.2.6.2 1h-.7zm5.1 0c0-.2 0-.4-.1-.5-.1-.2-.1-.3-.2-.4l-.3-.3c-.1-.1-.3-.1-.4-.1-.2 0-.4.1-.6.2-.2.1-.3.3-.4.4-.1.2-.2.4-.3.7-.1.3-.1.6-.1 1s0 .7.1 1c.1.3.2.5.3.7.1.2.3.3.4.5.2.1.4.2.6.2.2 0 .3 0 .4-.1.1-.1.2-.1.3-.3.1-.1.2-.3.2-.4.1-.2.1-.4.1-.6h.9c0 .4-.1.8-.2 1.1-.1.3-.3.6-.4.8-.2.2-.4.4-.6.5-.2.1-.5.2-.8.2-.4 0-.7-.1-1-.2-.3-.2-.5-.4-.7-.7-.2-.3-.4-.7-.5-1.1-.1-.4-.2-.9-.2-1.4 0-.5.1-1 .2-1.4.1-.4.3-.8.5-1.1.2-.3.4-.5.7-.7.3-.2.6-.2.9-.2.3 0 .5.1.7.2.2.1.4.3.6.5.2.2.3.5.4.8.1.3.2.6.2 1h-.7zm5.6 4.4H457v-6.7h3.6v1.2h-2.7v1.5h2.5v1.1h-2.5v1.7h2.8v1.2zm2.9.1c-.4 0-.7-.1-.9-.2-.3-.1-.5-.3-.7-.5-.2-.2-.3-.5-.4-.8-.1-.3-.1-.7-.2-1h.9c0 .2.1.4.1.6.1.2.2.3.3.4.1.1.2.2.4.3.1.1.3.1.4.1.1 0 .3 0 .4-.1.1 0 .2-.1.3-.2.1-.1.2-.2.2-.3 0-.1.1-.2.1-.4 0-.1 0-.3-.1-.4 0-.1-.1-.2-.2-.3-.1-.1-.2-.1-.4-.2s-.4-.1-.6-.2c-.3-.1-.5-.2-.7-.3-.2-.1-.4-.2-.5-.4-.1-.2-.2-.3-.3-.5-.1-.2-.1-.4-.1-.7 0-.3 0-.5.1-.8.1-.2.2-.4.4-.6.2-.2.3-.3.6-.4.2-.1.5-.1.7-.1.3 0 .5.1.8.2.2.1.4.3.6.4.2.2.3.4.4.7.1.3.1.6.2 1h-.9c-.1-.8-.4-1.1-1-1.1-.3 0-.5.1-.7.2-.2.1-.2.3-.2.6 0 .1 0 .2.1.3 0 .1.1.1.2.2s.2.1.3.2c.1 0 .3.1.4.1.1 0 .3.1.5.1s.3.1.5.2c.1.1.3.2.4.3.1.1.2.2.3.4.1.2.2.3.2.5.1.2.1.4.1.7 0 .3 0 .6-.1.8-.1.3-.2.5-.4.7-.2.2-.4.3-.6.4-.4 0-.7.1-.9.1zm4.7 0c-.4 0-.7-.1-.9-.2-.3-.1-.5-.3-.7-.5-.2-.2-.3-.5-.4-.8-.1-.3-.1-.7-.2-1h.9c0 .2.1.4.1.6.1.2.2.3.3.4.1.1.2.2.4.3.1.1.3.1.4.1.1 0 .3 0 .4-.1.1 0 .2-.1.3-.2.1-.1.2-.2.2-.3 0-.1.1-.2.1-.4 0-.1 0-.3-.1-.4 0-.1-.1-.2-.2-.3-.1-.1-.2-.1-.4-.2s-.4-.1-.6-.2c-.3-.1-.5-.2-.7-.3-.2-.1-.4-.2-.5-.4-.1-.2-.2-.3-.3-.5-.1-.2-.1-.4-.1-.7 0-.3 0-.5.1-.8.1-.2.2-.4.4-.6.2-.2.3-.3.6-.4.2-.1.5-.1.7-.1.3 0 .5.1.8.2.2.1.4.3.6.4.2.2.3.4.4.7.1.3.1.6.2 1h-.9c-.1-.8-.4-1.1-1-1.1-.3 0-.5.1-.7.2-.2.1-.2.3-.2.6 0 .1 0 .2.1.3 0 .1.1.1.2.2s.2.1.3.2c.1 0 .3.1.4.1.1 0 .3.1.5.1s.3.1.5.2c.1.1.3.2.4.3.1.1.2.2.3.4.1.1.2.3.2.5.1.2.1.4.1.7 0 .3 0 .6-.1.8-.1.2-.2.5-.4.7-.2.2-.4.3-.6.4-.4 0-.6.1-.9.1z"/>
    <path fill="#631418" d="M422.7 323v-3.2c0-.3.3-.6.6-.6h12.2c.3 0 .6.3.6.6v3.2c0 .3-.3.6-.6.6h-12.2c-.3 0-.6-.2-.6-.6z"/>
    <path fill="#f95d5d" d="M424 322.2v-1.6c0-.3.3-.6.6-.6h9.7c.3 0 .6.3.6.6v1.6c0 .3-.3.6-.6.6h-9.7c-.3 0-.6-.2-.6-.6z"/>
    <path fill="#181515" d="M620.1 270.6c-2.9-2.9-2.9-7.7 0-10.6l9.2-8.9c2.9-2.9 5.2-.7 8.1 2.2 2.9 2.9 2 7 0 10.6l-6.5 12c-3 2.9-7.9-2.4-10.8-5.3z"/>
    <path fill="#241c1e" d="M614.4 286.7c.5-.5.7-1.1.4-1.4l-7.3-7.2 1.6-1.6 8 8c.7.7.1 2.4-1.2 3.8l2.3 2.3-5.9-.1-.1-5.9 2.2 2.1m3.1-12.6c.2.2.4.5.4.7.1.3.1.6 0 .9-.1.3-.2.6-.4 1-.2.3-.5.7-.8 1-.3.3-.6.6-1 .8-.3.2-.7.3-1 .4-.3.1-.6.1-.9 0-.3-.1-.5-.2-.8-.4-.2-.2-.4-.5-.4-.8 0-.3-.1-.6 0-.9.1-.3.2-.6.4-1 .2-.3.5-.7.8-1 .3-.3.7-.6 1-.8.3-.2.7-.3 1-.4.3-.1.6 0 .9 0 .3.2.6.3.8.5zm-3.7 3.7c.1.1.3.2.5.3.2.1.4 0 .6 0 .2 0 .4-.1.6-.3.2-.2.5-.3.7-.6.2-.2.4-.5.6-.7l.3-.6v-.6c0-.2-.1-.3-.3-.5-.1-.1-.3-.2-.5-.3h-.6c-.2 0-.4.1-.6.3-.2.1-.5.3-.7.5-.2.2-.4.5-.6.7-.2.2-.2.4-.3.6 0 .2-.1.4 0 .6.1.3.2.4.3.6zm5.7-1.5l1.2 1.2.3.3c.1.1.2.2.2.4 0 .1.1.3.1.4v.4c0 .2-.1.3-.2.5s-.2.3-.4.5c-.4.4-.9.7-1.3.7s-.8-.2-1.2-.5l-.6-.6-1.6 1.6-.6-.6 4.1-4.3zm-1.3 2.5l.6.6c.1.1.2.2.3.2.1 0 .2.1.3.1.1 0 .2 0 .3-.1.1-.1.2-.1.3-.2.1-.1.2-.2.2-.3 0-.1.1-.2 0-.3-.1-.1 0-.2-.1-.3-.1-.1-.1-.2-.2-.2l-.6-.6-1.1 1.1zm2.4 7l-2.3-2.3 4.2-4.2 2.3 2.3-.7.7-1.7-1.7-.9.9 1.6 1.6-.7.7-1.6-1.6-1.1 1.1 1.8 1.8-.9.7zm3 3l-.5-.5 1.4-4.2-2.8 2.8-.6-.6 4.2-4.2.5.5-1.5 4.2 2.8-2.8.6.6-4.1 4.2z"/>
    <path fill="#6177b3" d="M638.2 254.1l-1.3-1.4c-.6-.5-1.2-.9-2-.9-1 0-1.9.4-2.4 1.1l-11.9 15.3c-.8 1-.6 2.4.4 3.2l2.3 2.2c1 .8 2.5.2 3.3-.7l11.9-15.3c.8-1 .4-2.5-.3-3.5z"/>
    <path fill="#444546" d="M617.3 1.9v12s-.1 1.5-1.6 1.5H395.1c-1.6 0-1.6-1.5-1.6-1.5v-12l111.9.1 111.9-.1z"/>
    <path fill="#282424" d="M394.70001 0h2.7v13.7h-2.7zm4.09998 0h2.7v13.7h-2.7zm4.1 0h2.7v13.7h-2.7zm4 0h2.7v13.7h-2.7zm3.9 0h2.7v13.7h-2.7zm4.1 0h2.7v13.7h-2.7zm4 0h2.7v13.7h-2.7zM423 0h2.7v13.7H423zm4.10001 0h2.7v13.7h-2.7zm4 0h2.7v13.7h-2.7zm4.1 0h2.7v13.7h-2.7zm4 0h2.7v13.7h-2.7zm4 0h2.7v13.7h-2.7zm4 0h2.7v13.7h-2.7zm4.09998 0h2.7v13.7h-2.7zm4 0h2.7v13.7h-2.7zm4.1 0h2.7v13.7h-2.7zm4 0h2.7v13.7h-2.7zM467.5 0h2.7v13.7h-2.7zm4 0h2.7v13.7h-2.7zm4 0h2.7v13.7h-2.7zm4 0h2.7v13.7h-2.7zm4.10001 0h2.7v13.7h-2.7zm4 0h2.7v13.7h-2.7zm4.1 0h2.7v13.7h-2.7zm4 0h2.7v13.7h-2.7zm4.09998 0h2.7v13.7h-2.7zm4.1 0h2.7v13.7h-2.7zm3.9 0h2.7v13.7h-2.7zm4 0h2.7v13.7h-2.7zm4.10003 0h2.7v13.7h-2.7zm4 0h2.7v13.7h-2.7zm4.29999 0h2.7v13.7h-2.7zm4.09998 0h2.7v13.7h-2.7zm4.10003 0h2.7v13.7h-2.7zm3.89997 0h2.7v13.7h-2.7zm4 0h2.7v13.7h-2.7zm4.10003 0h2.7v13.7h-2.7zm4 0h2.7v13.7h-2.7zM552.5 0h2.7v13.7h-2.7zm4.09998 0h2.7v13.7h-2.7zm4 0h2.7v13.7h-2.7zm4.10003 0h2.7v13.7h-2.7zm3.89997 0h2.7v13.7h-2.7zm4 0h2.7v13.7h-2.7zm4.10003 0h2.7v13.7h-2.7zm4.09998 0h2.7v13.7h-2.7zm4.40002 0h2.7v13.7h-2.7zm4.09998 0h2.7v13.7h-2.7zm4 0h2.7v13.7h-2.7zm4 0h2.7v13.7h-2.7zm4 0h2.7v13.7h-2.7zm4.10003 0h2.7v13.7h-2.7zm4 0h2.7v13.7h-2.7zM613.5 0h2.7v13.7h-2.7z"/>
    <path fill="#929397" d="M397.3 172.2l4.3-6.5c.2-.4.4-.6.6-.6h3.1v.9l.2-.3c.2-.4.4-.6.6-.6h3.7v7h-2.5v-5.5l-3.7 5.5h-2.5l3.7-5.5h-1.2c-.1 0-.3.1-.4.2l-3.5 5.4h-2.4zm15.8-2.8v1.3h5.7v1.5h-8.2v-4.6c0-.1 0-.2.1-.4l1.1-1.8c.1-.1.2-.2.4-.2h6.5v1.5h-4.9c-.1 0-.2.1-.3.2l-.5 1.1h5.7l-.8 1.5h-4.8zm8.9 1.3h4.1v-1.3h-1.6l.8-1.5h3.3v3.9c0 .2-.1.4-.4.4H420c-.3 0-.4-.1-.4-.4v-4.2c0-.1 0-.2.1-.4l1.1-1.8c.1-.1.2-.2.4-.2h6.9v1.5h-5.3c-.1 0-.2.1-.3.2l-.5 1.1v2.7zm17.6 1.5h-2.9l-1.1-1.5h-3l-.8-1.3v2.8h-2.5v-7h4.7c.2 0 .4.2.6.6l5 6.4zm-5.1-3l-1.8-2.4c-.1-.1-.3-.2-.4-.2h-.4v2.6h2.6zm10.4-.5l1.5-2.3h5.7v-1.2h-7.3l-2.2 3.5 2.2 3.5h7.3V171h-5.7m-7.10001-3.10001h2v1.7h-2zM462.7 168.7l-2.4 3.7h-6.9v-7.2h6.9l2.4 3.5zm-2.4 0l-1.6-2.3h-3.2v4.9h3.2l1.6-2.6zm-7.2-5.4h-10.2c2.2-1.2 5.4-2.9 6.8-4.7 2.7-3.4-1.7-5.8-5.3-4.6-5 1.7-7.1 4.1-10 6.6h-5.9c4.2-8.1 9.5-12.4 17.5-14.6 8.6-2.3 12.6 3.3 11 9.9-.8 3.5-1.2 4.1-3.9 7.4zm-13.5 13.1c0-.3.2-.6.4-1 .2-.5.6-.8.7-1h-10.2c-.8 1.4-1.5 2.1-2 4.7-.5 2.8 1.1 4.1 2 4.1H455l3.6-6.9h-19z"/>
    <g fill="#929397">
      <path d="M620.7 116.5h-6.3V115h4.3c-.3-.9-.6-1.7-.8-2.5-.6-1.9-1.2-3.9-1.9-5.8-.2-.5-.6-1-1-1.1-.7-.2-.9.6-1.1 1.1-1 3-1.9 5.9-2.9 8.9-.2.7-.5.9-1.2.9-1.9-.1-3.9 0-5.8 0-2 0-3.2-1.3-3.3-3.3v-5.5c0-2.1 1.3-3.3 3.3-3.3h5.3v1.5h-4.5c-2.1 0-2.6.5-2.6 2.7v4.1c0 1.5.7 2.2 2.1 2.2h3.4v-4.8h-2.9v-1.5h4.5v6.3h.2c.9-2.9 1.9-5.8 2.8-8.7.5-1.7 1.5-2.3 3.1-2.1.9.1 1.5.7 1.8 1.5 1.2 3.5 2.3 7 3.4 10.5.2.3.1.3.1.4zm-39.4.1v-1.5h5c1.4 0 2.4-1 2.5-2.3 0-1.3-1-2.4-2.3-2.5h-1.7c-.8-.1-1.5-.9-1.5-1.8s.6-1.8 1.5-1.8c1.8-.1 3.6 0 5.4 0v1.5h-5.3v.5c.5 0 1 .1 1.5.1 1.9 0 3.3 1.2 3.7 3 .6 2.3-1.1 4.7-3.3 4.8h-5.5z"/>
      <path d="M581.3 114.4v-1.6h5.3v-.4c-.5 0-1.1-.1-1.6-.1-1.5 0-2.6-.8-3.3-2.2-.7-1.4-.6-2.9.3-4.2.6-.9 1.5-1.5 2.5-1.5 1.9-.1 3.7 0 5.7 0v1.5h-5c-1.7 0-2.7 1.6-2.2 3.2.3.9 1.2 1.6 2.3 1.6h1.6c.8.1 1.5.9 1.5 1.8s-.6 1.8-1.4 1.8c-2 .2-3.8.1-5.7.1zm18.7-9.9v1.5h-4.9c-1.7 0-2.3.6-2.3 2.4v4.3c0 1.7.7 2.3 2.2 2.3h5v1.5h-5.9c-1.4-.1-2.7-1.4-2.7-2.9-.1-2.1 0-4.2 0-6.3 0-1.4 1.2-2.7 2.5-2.8 1.9-.1 3.9 0 6.1 0zm11.3 12c1.1-3.3 2.1-6.5 3.2-9.7.1-.2.3-.5.5-.5.1 0 .4.2.5.4.9 2.6 1.7 5.2 2.6 7.8h-3.6c0-.4-.1-.7-.1-1.1-.1 0-.1 0-.2-.1l-.6 1.8c-.6 1.6-.6 1.6-2.3 1.4zm3-3.8h1.3c-.2-.6-.4-1.1-.5-1.6h-.2c-.2.5-.4 1-.6 1.6zm-8.4-.2c-.5-.1-.7-.2-1.1-.3v-1.4h2.3v3.6c-1.2 0-2.4.1-3.6 0-.3 0-.8-.6-.8-1-.1-1.9-.1-3.8 0-5.8 0-.7.4-1.1 1.1-1.1h5.4v1.5h-4c-.8 0-1.1.3-1.1 1.1.1.9 0 1.8 0 2.7.2 1.2.7 1.4 1.8.7z"/>
      <path d="M594.8 112.8c1.6.3 3.4 0 5.1.2v1.5h-5.8c-.3 0-.8-.6-.8-1-.1-.8 0-1.6 0-2.5h5.4v1.4h-3.8c0 .1 0 .2-.1.4zm5.2-6.2v1.4c-1.7.2-3.4-.2-5.1.2v.4h3.8v1.5h-5.4c0-.9-.1-1.8 0-2.7 0-.3.5-.8.8-.8h5.9z"/>
    </g>
    <circle cx="602.5" cy="69.099998" r="6.8000002" fill="#181515"/>
    <circle cx="407.79999" cy="69.099998" r="6.8000002" fill="#181515"/>
    <path fill="#181515" d="M451.1 66.4c-.1-.5-.2-.9-.5-1.2-.3-.4-.7-.7-1.2-.9-.5-.3-1.1-.5-1.8-.6-.7-.1-1.4-.2-2.2-.2-1.1 0-2.1.1-2.9.3-.9.2-1.6.6-2.2 1-.6.5-1.1 1-1.4 1.7-.3.7-.5 1.4-.5 2.3 0 .9.2 1.6.5 2.3.3.7.8 1.2 1.4 1.7.6.5 1.3.8 2.2 1 .9.2 1.8.4 2.9.4.8 0 1.5-.1 2.2-.2.7-.1 1.3-.3 1.8-.6s.9-.6 1.2-1c.3-.4.5-.9.6-1.4h4.8c-.1.9-.5 1.7-1.1 2.4-.6.7-1.3 1.3-2.2 1.8-.9.5-2 .9-3.2 1.1-1.2.3-2.5.4-4 .4-1.8 0-3.5-.2-4.9-.6-1.5-.4-2.7-.9-3.7-1.6-1-.7-1.8-1.5-2.4-2.5-.6-1-.8-2.1-.8-3.3 0-1.2.3-2.3.8-3.3.6-1 1.4-1.8 2.4-2.5s2.3-1.2 3.7-1.6c1.5-.4 3.1-.6 4.9-.6 1.4 0 2.6.1 3.9.4 1.3.3 2.3.6 3.2 1.1.9.5 1.7 1.1 2.3 1.8.6.7 1 1.4 1.1 2.3h-4.9zm30.9 2.4c0 5.2-4.3 7.8-12.9 7.8h-8.3V61.1h8.3c8.6 0 12.9 2.6 12.9 7.7zm-4.8 0c0-.8-.1-1.5-.4-2.1-.3-.6-.7-1.1-1.3-1.6-.6-.5-1.5-.8-2.5-1-1-.2-2.4-.3-3.9-.3h-3.6v10.1h3.6c1.6 0 2.9-.1 3.9-.3 1-.2 1.9-.6 2.5-1 .6-.4 1.1-1 1.3-1.6.3-.7.4-1.4.4-2.2zm17.8 3.5h-10.2v-2.7H495v2.7zm25.4 4.2h-5.1l-2.4-4.2c-.2-.3-.4-.6-.7-.8-.3-.2-.6-.5-1-.6-.4-.2-.8-.3-1.3-.4-.5-.1-1-.2-1.5-.2h-5v6.2h-4.7V61.1h13.2c.6 0 1.2.1 1.8.1.6.1 1.1.2 1.6.3.5.1 1 .3 1.5.6.4.2.8.5 1.1.7.3.3.6.5.8.8.2.3.4.6.5.9.1.3.2.6.2 1 0 .9-.4 1.7-1.1 2.4-.7.7-1.8 1.2-3.1 1.5 1.1.5 1.9 1.3 2.6 2.4l2.6 4.7zm-16.9-8.8h6.3c.8 0 1.6 0 2.2-.1.6-.1 1.1-.2 1.5-.3.4-.1.7-.4.8-.6.2-.3.3-.6.3-1 0-.7-.3-1.2-1-1.5-.7-.3-1.8-.5-3.2-.5h-6.7v4zm32.5-6.8c1.8 0 3.4.2 4.9.6 1.5.4 2.8.9 3.8 1.6 1.1.7 1.9 1.5 2.5 2.5.6 1 .9 2.1.9 3.2 0 1.2-.3 2.2-.9 3.2-.6 1-1.4 1.8-2.5 2.5s-2.4 1.2-3.8 1.6c-1.4.4-3.1.6-4.9.6-1.8 0-3.4-.2-4.9-.6-1.5-.4-2.8-.9-3.8-1.6-1-.7-1.9-1.5-2.5-2.5-.6-1-.9-2.1-.9-3.2 0-1.2.3-2.3.9-3.3.6-1 1.4-1.8 2.5-2.5s2.4-1.2 3.8-1.6c1.4-.4 3.1-.5 4.9-.5zm0 13.3c1.1 0 2.1-.1 3-.4.9-.2 1.7-.6 2.3-1.1.6-.5 1.2-1 1.5-1.7.4-.7.5-1.4.5-2.3 0-.9-.2-1.6-.5-2.3-.4-.7-.9-1.2-1.5-1.7s-1.4-.8-2.3-1c-.9-.2-1.9-.4-2.9-.4-1.1 0-2 .1-2.9.4-.9.2-1.7.6-2.3 1.1-.7.5-1.2 1-1.5 1.7-.3.7-.5 1.4-.5 2.3 0 .8.2 1.6.5 2.3.3.7.9 1.2 1.5 1.7s1.4.8 2.3 1.1c.7.2 1.7.3 2.8.3zm41 2.3h-4.6v-9.8l-5.4 9.8h-4l-5.4-9.8v9.8h-4.5V61.1h6.1l5.8 11 5.9-11h6.1v15.4z"/>
  </g>
  <path fill="#5b98d0" d="M831.899661 204.45888663c0 57.62771366-46.7114507 104.33916438-104.33916437 104.33916438-57.62771366 0-104.33916438-46.7114507-104.33916438-104.3391643s46.71145072-104.3391644 104.33916438-104.3391644S831.899661 146.831173 831.899661 204.4588867zm-86.44157048-38.079987c-5.45813147-2.5386658-11.5509294-4.06186528-17.8975939-4.06186528-23.22879206 0-42.01491898 18.78612692-42.01491898 42.014919 0 23.22879206 18.78612692 42.01491898 42.014919 42.01491898 23.22879206 0 42.01491898-18.78612692 42.01491898-42.014919 0-16.62826098-9.90079662-31.09865604-24.1173251-37.9530537"/>
  <path fill="#0f1317" d="M727.56049663 311.97138326c-59.27784643 0-107.51249663-48.2346502-107.51249663-107.51249663C620.048 145.1810402 668.2826502 96.94639 727.56049663 96.94639c59.27784643 0 107.51249663 48.2346502 107.51249663 107.51249663 0 59.27784643-48.2346502 107.51249663-107.51249663 107.51249663zm0-214.89805997c-59.15091314 0-107.38556334 48.2346502-107.38556334 107.3855633 0 59.1509131 48.1077169 107.25863 107.25863 107.25863s107.25863-48.1077169 107.25863-107.2586301c.1269332-59.1509132-47.9807837-107.3855634-107.1316968-107.3855634z"/>
  <path fill="#0f1317" d="M818.1908657 256.24766895c-18.0245272 31.35252263-51.78878233 52.55038206-90.63036907 52.55038206-38.84158674 0-72.60584188-21.1978594-90.63036906-52.550382H818.1908657"/>
  <path d="M727.56049663 246.47380562c-23.22879207 0-42.014919-18.78612692-42.014919-42.014919 0-23.22879206 18.78612693-42.01491898 42.014919-42.01491898s42.014919 18.78612692 42.014919 42.014919c0 23.22879206-18.91306022 42.01491898-42.014919 42.01491898zm0-82.76050508c-22.46719233 0-40.7455861 18.27839376-40.7455861 40.7455861 0 22.46719232 18.27839377 40.74558608 40.7455861 40.74558608 22.46719233 0 40.7455861-18.27839376 40.7455861-40.7455861 0-22.46719232-18.27839377-40.74558608-40.7455861-40.74558608z"/>
  <path fill="#a299a1" d="M727.56049663 223.11808026c-10.2815965 0-18.65919363-8.37759714-18.65919363-18.65919363 0-10.2815965 8.37759714-18.65919363 18.65919363-18.65919363 10.2815965 0 18.65919363 8.37759714 18.65919363 18.65919363 0 10.2815965-8.37759714 18.65919363-18.65919363 18.65919363zm0-36.04905436c-9.64693004 0-17.38986073 7.7429307-17.38986073 17.38986073 0 9.51999675 7.7429307 17.38986073 17.38986073 17.38986073 9.51999675 0 17.38986073-7.7429307 17.38986073-17.38986073 0-9.64693004-7.86986398-17.38986073-17.38986073-17.38986073z"/>
  <path fill="#a299a1" d="M727.56049663 219.43701485c-8.25066385 0-14.97812822-6.72746437-14.97812822-14.97812822s6.7274644-14.97812822 14.9781283-14.97812822 14.9781282 6.7274644 14.9781282 14.9781283-6.7274643 14.9781282-14.9781282 14.9781282zm0-28.81385683c-7.6159974 0-13.70879532 6.2197312-13.70879532 13.70879532 0 7.6159974 6.2197313 13.70879532 13.7087954 13.70879532 7.6159974 0 13.7087953-6.2197312 13.7087953-13.70879532 0-7.4890641-6.0927979-13.70879532-13.7087953-13.70879532z"/>
  <path fill="#96b0c1" d="M768.94074917 204.45888663c0 22.8479922-18.53226034 41.38025254-41.38025254 41.38025254s-41.38025254-18.53226034-41.38025254-41.38025254 18.5322603-41.38025254 41.3802525-41.38025254 41.3802525 18.5322603 41.3802525 41.3802525zm-41.38025254-36.04905436c-19.92852653 0-36.04905436 16.12052783-36.04905436 36.04905436s16.12052783 35.92212107 36.04905436 35.92212107 35.92212107-16.12052783 35.92212107-35.92212107c0-19.80159324-16.12052783-36.04905436-35.92212107-36.04905436z"/>
  <path fill="#929397" d="M686.0533108 270.08339756l5.45813147-8.25066385c.25386658-.5077331.50773316-.7615997.76159974-.7615997h3.934932v1.1423996l.2538666-.3807998c.2538666-.5077331.5077332-.7615997.7615998-.7615997h4.6965318v8.8853303H698.74664v-6.9813309l-4.69653172 6.981331H690.876776l4.69653172-6.9813309h-1.5231995c-.1269333 0-.38079985.1269333-.50773314.2538666l-4.44266515 6.8543977H686.053311zm19.92852653-3.55413212v1.65013277h7.23519753v1.9039994h-10.40852978v-5.8389313c0-.1269333 0-.2538666.1269333-.5077331l1.39626618-2.2847992c.1269333-.1269333.25386658-.2538665.50773316-.2538665h8.25066385v1.9039994h-6.2197312c-.1269333 0-.2538666.1269333-.38079988.2538666l-.6346665 1.3962662h7.2351975l-1.0154663 1.9039994h-6.0927979zm11.4239961 1.65013277h5.2042649v-1.6501327h-2.03093265l1.01546632-1.9039993h4.18879857v4.9503983c0 .2538666-.1269333.5077332-.50773316.5077332h-10.4085297c-.3807998 0-.5077331-.1269333-.5077331-.5077331v-5.3311981c0-.1269333 0-.2538666.1269333-.5077331l1.3962662-2.2847992c.1269333-.1269333.2538666-.2538666.5077332-.2538666h8.758397v1.9039994H718.4213c-.1269333 0-.2538666.1269333-.38079987.2538666l-.63466642 1.3962662v3.4271988zm22.34025904 1.9039994h-3.6810654l-1.3962662-1.9039993h-3.8079987l-1.01546632-1.6501327v3.5541321h-3.17333225v-8.8853303h5.96586463c.25386658 0 .50773316.2538666.76159974.7615998l6.3466645 8.1237306zm-6.4735978-3.6810654l-2.2847992-3.0463989c-.1269333-.1269333-.38079988-.2538666-.50773317-.2538666h-.50773316v3.3002656h3.30026554zm10.1546632-.7615997l2.91946568 4.4426652h9.26613017v-1.5231995h-7.36213082l-1.77706606-2.9194656 1.77706606-2.9194656h7.36213082v-1.5231995h-9.26613017m-7.1082617 3.5541321h2.5386658v2.157866h-2.5386658zm29.8293206.8885331l-3.04639895 4.6965318h-8.758397v-9.1391968h8.758397l3.04639896 4.44266518zm-3.04639895 0l-2.03093264-2.9194656h-4.06186528v6.2197312h4.06186528l2.03093264-3.3002655zm-111.44742735-4.1887859h24.1173251v13.5818621h-24.1173251z"/>
  <path fill="#010101" d="M654.95465475 261.83272102h23.35572536v12.8202623h-23.3557253z"/>
  <g fill="#ed2224">
    <path d="M656.09705436 272.87592994h6.3466645v-9.51999675"/>
    <path d="M661.42825254 272.87592994h6.2197312v-9.51999675"/>
  </g>
  <path fill="#11aa4b" d="M669.0442474 263.60979977h3.0463991v9.3930636h-3.0463991zm4.3157344.1269333l-.63466645 3.17333224h-.1269333v-3.1733322c.2538666-.1269333.50773317-.1269333.76159975 0m-.38079987 3.1733323l.88853303-3.0463989c.25386658.1269333.50773316.1269333.76159974.2538666l-1.3962662 2.9194657c-.12693328-.1269333-.25386657-.1269333-.25386657-.1269333m.50773317.2538666l2.15786592-2.4117325c-.1269333-.1269333-.38079987-.2538666-.63466645-.3807998l-1.65013277 2.6655991.1269333.1269333m.25386657.2538666l2.6655991-1.6501328c-.1269333-.2538665-.38079988-.5077331-.50773317-.6346664l-2.28479922 2.157866.1269333.1269333m.12693328.2538666l3.04639896-.76159976-.38079987-.7615997-2.6655991 1.5231995c0-.1269333 0 0 0 0m3.30026555.50773317h-3.17333225c0-.1269333 0-.2538666-.1269333-.2538666l3.17333226-.50773312c.1269333.2538666.1269333.5077332.1269333.7615998m-3.1733322.2538666c0 .76159974-.6346664 1.3962662-1.3962662 1.3962662v3.17333224c2.5386658 0 4.5695985-2.03093263 4.5695985-4.56959843h-3.1733322"/>
  <path fill="#929397" d="M776.30288 261.32500055h24.1173251v13.58186203H776.30288z"/>
  <path fill="#010101" d="M776.68367986 261.70580042h23.35572536v12.8202623h-23.35572536z"/>
  <path fill="#5b98d0" d="M788.23460925 271.60659704l3.17333225-3.17333225v-.1269333l-3.30026554 2.4117325 3.30026554-3.4271989-3.30026554 2.5386658 3.17333225-3.3002656-3.1733322 2.5386658 3.046399-3.4271989c-1.1423996-.8885331-3.6810654-.1269333-5.9658646 1.9039993-2.4117325 2.1578659-3.4271988 4.6965317-2.4117325 5.8389313 1.0154663 1.1423996 3.6810654.3807998 6.0927979-1.7770661.6346665-.6346665 1.1423996-1.1423996 1.6501328-1.7770661l-2.2847992 1.777066z"/>
  <path fill="#020202" d="M786.83834306 268.81406466h-1.1423996v2.79253238h1.1423996v-.76159974h1.01546632v1.65013277h-2.6655991c-.25386657 0-.50773315-.25386658-.50773315-.50773316v-3.5541321c0-.3807998.1269333-.5077331.50773316-.5077331h2.665599v1.9039994h-1.0154663v-1.0154663z"/>
  <path fill="#deae2c" d="M793.9466073 264.6252661l-3.17333225 3.17333224v.1269333l3.30026554-2.41173252-3.3002656 3.42719883 3.3002655-2.5386658-3.1733323 3.30026554 3.1733322-2.5386658-3.046399 3.4271988c1.1423996.888533 3.6810654.1269333 5.9658646-1.9039994 2.4117325-2.157866 3.4271988-4.6965318 2.4117325-5.8389314-1.0154663-1.1423996-3.6810654-.3807999-6.0927979 1.777066-.6346665.6346664-1.1423996 1.1423996-1.6501328 1.777066l2.2847992-1.7770661z"/>
  <path fill="#020202" d="M797.50073942 267.79859834c0 .25386658-.25386658.50773316-.50773316.50773316h-2.6655991v-4.56959844h2.6655991c.25386658 0 .50773316.25386658.50773316.50773316v3.55413212zm-2.15786593-.38079987h1.1423996v-2.79253238h-1.1423996v2.7925323z"/>
  <path fill="#fff" d="M778.8415458 262.59433345c.12693328-.1269333.25386657-.25386658.38079986-.25386658h1.01546632v.38079987c.1269333-.1269333.25386658-.38079987.50773316-.38079987h1.2693329v2.6655991h-.88853303v-1.90399936c-.1269332 0-.2538665.1269333-.3807998.2538666-.3807998.5077332-.6346664 1.0154663-1.0154663 1.6501328h-.888533l1.1423996-1.9039993c-.2538665 0-.5077331 0-.6346664.1269333-.3807998.6346665-.7615997 1.1423996-1.1423996 1.7770661h-1.0154664c.6346665-.7615997 1.1423996-1.5231995 1.6501328-2.4117325zm3.5541321.1269333c.1269333-.1269333.38079988-.38079988.63466646-.38079988h2.03093264v.63466645h-1.52319948l-.38079987.38079987h1.90399935c-.1269333.1269332-.25386658.3807998-.38079987.5077331h-1.52319948v.5077331h1.77706606v.5077331h-2.7925323v-1.6501328c0-.1269333.1269333-.3807999.2538666-.5077332zm3.04639897-.1269333c.1269333-.1269333.25386658-.25386658.50773316-.25386658h2.15786593v.63466645h-1.3962662c-.38079986 0-.50773315.38079987-.50773315.63466645 0 .38079987-.1269332.38079987 0 .88853303h1.2693329v-.38079987h-.6346664c.1269333-.1269333.2538666-.38079987.2538666-.50773316h1.1423996v1.2693329c0 .1269333 0 .1269333-.1269333.25386658h-2.5386658c-.2538666 0-.3807998-.25386658-.3807998-.38079987v-1.3962662c0-.38079986.1269333-.50773315.2538666-.76159973zm3.04639896-.25386658h1.3962662c.25386657 0 .50773315.25386658.63466644.38079987.50773316.76159974.88853303 1.52319948 1.3962662 2.28479922h-1.01546633c-.1269333-.1269333-.25386658-.38079987-.38079987-.50773316h-.88853303c-.1269333-.1269333-.1269333-.25386658-.25386658-.38079987v.88853303h-.88853303v-2.6655991zm.88853303.63466645v1.01546632h.76159974c-.1269333-.25386658-.25386658-.50773316-.50773316-.76159974 0-.25386658-.1269333-.25386658-.25386658-.25386658z"/>
  <path fill="#929397" d="M735.04956074 302.83218638h-4.95039832c-2.03093264 0-3.30026554-1.3962662-3.42719883-3.42719883v-4.69653173c0-2.03093264 1.3962662-3.42719883 3.4271988-3.42719883h5.2042649v2.4117325h-4.4426652c-1.3962662 0-1.6501328.1269333-1.6501328 1.777066v3.5541321c0 1.1423996.5077331 1.2693329 1.2693329 1.3962662h2.4117325v-3.046399h-2.4117325v-2.4117325h4.9503983v3.0463989l1.5231995-4.6965318c.5077331-1.5231995 1.3962662-2.2847993 2.6655991-2.2847993h.6346664c1.0154663.1269333 1.777066.7615997 2.0309326 1.6501328.7615997 2.2847992 1.5231995 4.6965317 2.2847992 6.9813309l.7615997 2.2847992v.2538666l-.1269333.3807998-.5077332.1269333h-5.9658646v-2.4117325h3.5541321l-.5077331-1.3962662-.5077332-1.3962662c-.3807999-1.1423996-.7615998-2.4117325-1.1423996-3.5541321-.1269333-.2538666-.3807999-.6346665-.5077332-.6346665-.1269333 0-.2538666.3807999-.2538666.6346665l-.7615998 2.5386658c-.5077332 1.77706603-1.1423996 3.4271988-1.6501328 5.2042649-.5077332.7615997-1.0154664 1.1423996-1.9039994 1.1423996z"/>
  <path fill="#3e64af" d="M744.5695575 302.19751993h-5.4581315v-1.2693329h3.6810654c-.25386657-.76159974-.50773315-1.52319948-.76159973-2.15786593-.50773317-1.65013277-1.01546633-3.30026554-1.65013278-4.9503983-.1269333-.38079988-.5077332-.88853304-.8885331-1.01546633-.6346665-.1269333-.7615998.50773316-1.0154664 1.01546632-.7615998 2.5386658-1.6501328 5.0773316-2.4117325 7.6159974-.1269333.6346664-.5077332.7615997-1.0154664.7615997h-4.9503983c-1.6501328 0-2.7925324-1.1423996-2.7925324-2.9194657v-4.6965318c0-1.7770661 1.1423996-2.7925324 2.7925324-2.9194657h4.5695984v1.3962662h-3.8079987c-1.7770661 0-2.2847993.3807998-2.2847993 2.2847992v3.5541321c0 1.2693329.6346664 1.9039993 1.777066 1.9039993h2.9194657v-4.1887985h-2.4117325v-1.2693329h3.8079987v5.4581314h.2538665c.7615997-2.5386658 1.6501327-4.9503983 2.4117325-7.4890641.5077331-1.3962662 1.2693329-2.0309327 2.6655991-1.7770661.7615997.1269333 1.3962662.5077331 1.5231994 1.2693329 1.0154663 3.0463989 1.90399935 5.9658646 2.91946567 9.0122636.1269333.2538665.1269333.2538665.1269333.3807998z"/>
  <path fill="#929397" d="M710.0437026 302.7052531v-2.41173252h4.82346504c.88853303 0 1.52319948-.63466645 1.52319948-1.3962662 0-.76159973-.63466644-1.52319947-1.52319947-1.52319947h-.38079987l-.38079987-.5077331v.5077332h-.6346664c-1.0154663-.1269333-1.777066-1.0154663-1.777066-2.1578659s.7615998-2.0309326 1.7770661-2.1578659h5.2042649v2.4117325h-1.6501327c.7615998.5077332 1.3962662 1.3962662 1.6501328 2.4117326.2538666 1.1423996 0 2.4117325-.6346664 3.4271988-.6346664.8885331-1.6501327 1.3962662-2.6655991 1.5231995h-1.7770661l-3.5541321-.1269333z"/>
  <path fill="#3e64af" d="M710.55143577 302.19751993v-1.2693329h4.31573186c1.1423996 0 2.03093264-.88853303 2.15786593-2.03093264 0-1.1423997-.88853303-2.0309327-2.03093264-2.157866h-1.3962662c-.76159973-.1269333-1.2693329-.7615998-1.2693329-1.5231995s.50773317-1.5231995 1.2693329-1.5231995h4.69653174v1.2693329h-4.56959844v.3807998h1.2693329c1.65013277 0 2.79253238 1.0154663 3.17333225 2.6655991.50773316 2.0309326-.88853303 4.0618652-2.91946567 4.1887985h-4.69653173z"/>
  <path fill="#929397" d="M710.0437026 300.92818703v-2.5386658h1.5231995c-.50773317-.38079987-.88853304-.88853303-1.14239962-1.52319948-.63466645-1.3962662-.50773316-2.79253238.38079987-4.18879857.63466645-1.01546632 1.65013277-1.52319948 2.6655991-1.52319948h5.58506475v2.4117325h-4.9503983c-.50773318 0-.88853305.2538666-1.2693329.63466646-.2538666.38079987-.3807999.88853303-.2538666 1.3962662.2538666.63466644.76159974 1.0154663 1.3962662 1.0154663h1.2693329c1.0154663.1269333 1.77706605 1.01546633 1.77706605 2.03093265 0 1.1423997-.76159974 2.157866-1.77706606 2.157866h-2.0309327l-3.1733323.1269333z"/>
  <path fill="#3e64af" d="M710.55143577 300.29352058v-1.3962662h4.56959844v-.38079986h-1.3962661c-1.2693329 0-2.2847992-.63466645-2.9194656-1.90399935-.6346664-1.2693329-.5077331-2.4117325.2538666-3.55413212.5077332-.76159974 1.2693329-1.2693329 2.157866-1.2693329h4.823465v1.2693329h-4.3157318c-1.3962662 0-2.4117325 1.3962662-1.9039993 2.6655991.2538666.76159973 1.0154663 1.39626618 1.9039993 1.39626618h1.3962662c.7615997.1269333 1.2693329.76159974 1.2693329 1.52319948 0 .7615998-.5077332 1.5231995-1.2693329 1.5231995-1.3962662.2538666-2.9194657.1269333-4.5695984.1269333z"/>
  <path fill="#929397" d="M722.48316503 302.7052531h-1.01546632c-1.5231994-.1269333-2.7925323-1.5231995-2.9194656-3.04639897v-5.45813147c0-1.52319948 1.2693329-2.91946567 2.6655991-2.91946567h5.9658646v2.4117325h-4.823465c-1.1423996 0-1.3962662.2538665-1.3962662 1.5231994v3.6810654c0 1.1423996.2538666 1.3962662 1.3962662 1.3962662h4.823465v2.4117325h-4.6965317z"/>
  <path fill="#3e64af" d="M726.6719636 291.78899015v1.2693329h-4.31573186c-1.52319948 0-2.03093264.50773316-2.03093264 2.03093264v3.6810654c0 1.3962662.50773316 2.0309326 1.90399935 2.0309326h4.31573186v1.2693329h-5.2042648c-1.2693329-.1269333-2.2847992-1.2693329-2.2847992-2.5386658v-5.4581315c0-1.1423996 1.0154664-2.4117325 2.157866-2.4117325 1.7770661 0 3.5541321.1269333 5.4581315.1269333z"/>
  <path fill="#929397" d="M737.33435996 302.7052531c-.25386658 0-.50773316 0-1.01546632-.1269333l-.63466645-.1269333.6346664-1.77706605c.7615997-2.4117325 1.5231995-4.82346502 2.4117325-7.23519753.1269333-.38079987.5077331-.76159974.7615997-.88853303h.2538666c.3807998 0 .888533.3807998.888533.7615997.6346664 1.777066 1.1423996 3.5541321 1.777066 5.4581314l.6346664 2.0309326h-4.0618653l-.1269333.2538666c-.3807999 1.1423996-.5077332 1.6501327-1.5231995 1.6501327z"/>
  <path fill="#3e64af" d="M736.31889364 302.07058664l2.6655991-8.37759714c.12693328-.25386658.25386657-.38079987.50773315-.50773316.1269332 0 .3807998.1269333.3807998.38079987.7615997 2.157866 1.5231995 4.4426652 2.1578659 6.7274644h-3.046399c0-.3807998-.1269333-.6346664-.1269333-.888533h-.1269333c-.1269333.5077332-.3807999 1.0154663-.5077332 1.5231995-.3807999 1.3962662-.3807999 1.3962662-1.9039994 1.1423996zm2.6655991-3.17333225h1.1423996c-.1269333-.5077332-.25386658-1.0154664-.50773316-1.3962662h-.1269333c-.12693328.3807998-.25386657.7615997-.50773315 1.3962662z"/>
  <path fill="#929397" d="M731.24156204 300.92818703h-1.3962662c-.63466644 0-1.1423996-.88853303-1.1423996-1.3962662-.1269333-1.65013276 0-3.30026553 0-4.9503983 0-.88853303.63466645-1.52319948 1.52319948-1.52319948h5.2042649v2.4117325h-4.31573188v1.2693329h2.5386658v4.18879858h-2.4117325z"/>
  <path fill="#3e64af" d="M731.7492952 298.7703211c-.38079987-.1269333-.63466645-.1269333-.88853303-.25386658v-1.1423996h2.03093264v3.04639895h-3.0463989c-.2538666 0-.6346664-.50773316-.6346664-.88853303-.1269333-1.65013277 0-3.30026554 0-4.9503983 0-.63466646.3807999-.88853304.8885331-.88853304h4.6965318v1.2693329h-3.4271988c-.6346664 0-1.0154663.25386658-.888533 1.01546632v2.28479922c-.1269333.76159974.2538666 1.01546632 1.2693329.50773316z"/>
  <path fill="#929397" d="M724.1332978 300.92818703h-2.5386658c-.63466645 0-1.1423996-.88853303-1.2693329-1.3962662-.1269333-.50773315-.1269333-1.0154663 0-1.52319947v-1.1423996h5.83893134v1.77706606h1.01546632v2.28479923h-3.04639896z"/>
  <path fill="#3e64af" d="M722.22929845 298.8972544c1.3962662.25386657 2.91946567 0 4.31573186.12693328v1.2693329h-4.9503983c-.2538665 0-.6346664-.50773316-.7615997-.88853303-.1269333-.63466645 0-1.3962662 0-2.15786593h4.6965318v1.2693329h-3.3002655v.38079987z"/>
  <path fill="#929397" d="M720.3252991 297.24712162v-2.91946567c.1269333-.50773316.76159974-1.1423996 1.2693329-1.1423996h5.58506476v2.2847992l-.50773316.1269333h-.63466645v1.77706606h-5.71199805z"/>
  <path fill="#3e64af" d="M726.6719636 293.5660562v1.2693329c-1.52319948.2538666-2.91946567-.12693328-4.44266515.1269333v.38079987h3.30026554v1.2693329h-4.6965318c0-.76159974-.1269333-1.52319948 0-2.28479922 0-.25386658.5077331-.63466645.7615997-.76159974h5.0773316z"/>
</svg>
