<?xml version="1.0" encoding="UTF-8" standalone="no"?>
<!-- Generator: Adobe Illustrator 19.0.0, SVG Export Plug-In . SVG Version: 6.00 Build 0)  -->

<svg
   xmlns:dc="http://purl.org/dc/elements/1.1/"
   xmlns:cc="http://creativecommons.org/ns#"
   xmlns:rdf="http://www.w3.org/1999/02/22-rdf-syntax-ns#"
   xmlns:svg="http://www.w3.org/2000/svg"
   xmlns="http://www.w3.org/2000/svg"
   xmlns:sodipodi="http://sodipodi.sourceforge.net/DTD/sodipodi-0.dtd"
   xmlns:inkscape="http://www.inkscape.org/namespaces/inkscape"
   version="1.1"
   id="Layer_1"
   x="0px"
   y="0px"
   viewBox="0 0 835.07301 311.97138"
   xml:space="preserve"
   inkscape:version="0.91 r13725"
   sodipodi:docname="consolegame.svg"
   width="835.073"
   height="311.97137"><metadata
     id="metadata413"><rdf:RDF><cc:Work
         rdf:about=""><dc:format>image/svg+xml</dc:format><dc:type
           rdf:resource="http://purl.org/dc/dcmitype/StillImage" /><dc:title></dc:title></cc:Work></rdf:RDF></metadata><defs
     id="defs411" /><sodipodi:namedview
     pagecolor="#ffffff"
     bordercolor="#666666"
     borderopacity="1"
     objecttolerance="10"
     gridtolerance="10"
     guidetolerance="10"
     inkscape:pageopacity="0"
     inkscape:pageshadow="2"
     inkscape:window-width="1920"
     inkscape:window-height="1027"
     id="namedview409"
     showgrid="false"
     fit-margin-top="0"
     fit-margin-left="0"
     fit-margin-right="0"
     fit-margin-bottom="0"
     inkscape:zoom="0.54997684"
     inkscape:cx="323.64999"
     inkscape:cy="171.45"
     inkscape:window-x="-8"
     inkscape:window-y="-8"
     inkscape:window-maximized="1"
     inkscape:current-layer="Layer_1" /><path
     d="M 427.6,413.17139"
     id="path3"
     inkscape:connector-curvature="0"
     style="fill:#181515" /><g
     id="g5"
     transform="matrix(0.90927247,0,0,0.90927247,0,0.09092725)"><g
       id="g7"><rect
         x="327.70001"
         y="-0.1"
         width="65.800003"
         height="343"
         id="rect9"
         style="fill:#282424" /><rect
         x="393.5"
         y="335.10001"
         width="30.4"
         height="7.8000002"
         id="rect11"
         style="fill:#282424" /></g><g
       id="g13"><path
         d="m 24.7,0 10.1,0 0,1.9 287.4,0 0,-1.9 8.7,0 c 0.5,0 0.9,0 1.4,0 22.4,0.9 24.7,20.4 24.7,20.4 l 0,286.8 c 0,0 0.6,5.7 -2.1,8.5 -5.2,5.4 -23.2,23.3 -27.2,27.3 L 26.1,343 C 26.1,343 4.8,322.4 2.6,321.4 1.1,319.4 0,316 0,307.7 L 0,20.3 C 0,20.3 2.4,1 24.7,0 Z"
         id="path15"
         inkscape:connector-curvature="0"
         style="fill:#312f2f" /><path
         id="XMLID_748_"
         d="m 327.9,342.3 c -0.1,0.3 -0.1,0.5 -0.2,0.6 l -299.6,0 c 0,0 -8.2,-138.1 41.8,-144.9 9.2,-1.1 20.8,1.3 46.9,7.6 26.2,6.2 95.9,6.2 122.1,0 26.2,-6.2 37.6,-7.6 46.9,-7.6 17.3,0 28,16.9 34.5,39.2 11.7,40.1 9.6,97.6 7.6,105.1 z"
         inkscape:connector-curvature="0"
         style="fill:#3f3f3f" /><path
         id="XMLID_746_"
         d="m 178.6,215.1 c -35.4,0 -42.4,-1.7 -48.5,-2.5 -6,-0.8 -4.2,4.7 -4.2,4.7 0,0 3.1,20.4 3.5,28.1 0.4,7.7 8.7,6.7 8.7,6.7 l 81,0 c 0,0 8.3,1.1 8.7,-6.7 0.4,-7.8 3.5,-28.1 3.5,-28.1 0,0 1.8,-5.5 -4.2,-4.7 -6.1,0.8 -13.2,2.5 -48.5,2.5 z"
         inkscape:connector-curvature="0"
         style="fill:#181515" /><ellipse
         id="XMLID_745_"
         cx="178.60001"
         cy="106"
         rx="152.10001"
         ry="87.400002"
         style="fill:#30302f" /><ellipse
         id="XMLID_744_"
         cx="178.60001"
         cy="105.8"
         rx="150.5"
         ry="85.699997"
         style="fill:#181515" /><ellipse
         id="XMLID_743_"
         cx="178.60001"
         cy="103.8"
         rx="123.7"
         ry="69.5"
         style="fill:#2c2929" /><polygon
         id="XMLID_742_"
         points="186.3,140.3 178.4,132.3 170.8,140.3 "
         style="fill:#241c1e" /><g
         id="SEGA_1_"><path
           id="XMLID_724_"
           d="m 202.3,239 c -2.5,0 -5,0 -7.6,0 0,-0.6 0,-1.1 0,-1.8 1.6,0 3.3,0 5.2,0 -0.4,-1.1 -0.7,-2.1 -1,-3 -0.8,-2.3 -1.5,-4.7 -2.3,-7 -0.2,-0.6 -0.7,-1.2 -1.2,-1.4 -0.8,-0.2 -1.1,0.7 -1.3,1.4 -1.2,3.6 -2.3,7.1 -3.5,10.7 -0.3,0.8 -0.6,1.1 -1.5,1.1 -2.3,-0.1 -4.7,0 -7,0 -2.4,0 -3.9,-1.6 -3.9,-4 0,-2.2 -0.1,-4.4 0,-6.6 0.1,-2.5 1.5,-4 3.9,-4 2.1,0 4.2,0 6.4,0 0,0.6 0,1.2 0,1.9 -1.8,0 -3.6,0 -5.4,0 -2.5,0 -3.1,0.6 -3.1,3.3 0,1.7 0,3.3 0,5 0,1.8 0.8,2.6 2.5,2.7 1.4,0 2.7,0 4.1,0 0,-2 0,-3.8 0,-5.8 -1.2,0 -2.3,0 -3.4,0 0,-0.7 0,-1.2 0,-1.8 1.8,0 3.5,0 5.4,0 0,2.5 0,5.1 0,7.6 0.1,0 0.2,0 0.3,0 1.1,-3.5 2.3,-7 3.4,-10.5 0.6,-2 1.8,-2.8 3.8,-2.5 1.1,0.2 1.9,0.8 2.2,1.8 1.4,4.2 2.7,8.4 4.1,12.6 0,0.1 -0.1,0.2 -0.1,0.3 z"
           inkscape:connector-curvature="0"
           style="fill:#929397" /><path
           id="XMLID_723_"
           d="m 154.8,239 c 0,-0.6 0,-1.2 0,-1.8 2,0 4,0 6,0 1.7,0 2.9,-1.2 3,-2.8 0.1,-1.5 -1.2,-2.9 -2.8,-3 -0.7,0 -1.3,0 -2,-0.1 -1,-0.1 -1.8,-1.1 -1.8,-2.2 0,-1.1 0.7,-2.1 1.8,-2.1 2.2,-0.1 4.3,0 6.6,0 0,0.6 0,1.1 0,1.8 -1.1,0 -2.2,0 -3.3,0 -1,0 -2,0 -3.1,0 0,0.2 0,0.4 0,0.6 0.6,0 1.2,0.1 1.8,0.1 2.3,0.1 3.9,1.4 4.5,3.7 0.7,2.8 -1.3,5.7 -4,5.8 -2.2,0.1 -4.3,0 -6.7,0 z"
           inkscape:connector-curvature="0"
           style="fill:#929397" /><path
           id="XMLID_722_"
           d="m 154.8,236.5 c 0,-0.7 0,-1.2 0,-1.9 2.2,0 4.3,0 6.4,0 0,-0.2 0,-0.4 0,-0.5 -0.7,0 -1.3,-0.1 -2,-0.1 -1.8,0 -3.2,-0.9 -4,-2.6 -0.8,-1.7 -0.7,-3.4 0.4,-5 0.7,-1.1 1.8,-1.8 3,-1.9 2.2,-0.1 4.5,0 6.8,0 0,0.6 0,1.1 0,1.8 -2,0 -4,0 -6.1,0 -2,0 -3.3,1.9 -2.7,3.8 0.4,1.1 1.4,1.9 2.7,2 0.6,0 1.3,0 1.9,0.1 1,0.1 1.8,1.1 1.8,2.1 0,1.1 -0.8,2.1 -1.7,2.2 -2,0 -4.2,0 -6.5,0 z"
           inkscape:connector-curvature="0"
           style="fill:#929397" /><path
           id="XMLID_721_"
           d="m 177.3,224.5 c 0,0.6 0,1.1 0,1.8 -2,0 -4,0 -6,0 -2.1,0 -2.8,0.7 -2.8,2.9 0,1.7 0,3.5 0,5.2 0,2 0.8,2.8 2.7,2.8 2,0 4,0 6,0 0,0.6 0,1.1 0,1.9 -1.5,0 -2.9,0 -4.4,0 -0.9,0 -1.8,0 -2.8,0 -1.7,-0.1 -3.2,-1.7 -3.3,-3.5 -0.1,-2.5 -0.1,-5.1 0,-7.6 0,-1.6 1.4,-3.3 3,-3.4 2.5,-0.2 5,-0.1 7.6,-0.1 z"
           inkscape:connector-curvature="0"
           style="fill:#929397" /><path
           id="XMLID_718_"
           d="m 190.9,238.9 c 1.3,-4 2.5,-7.9 3.8,-11.7 0.1,-0.3 0.4,-0.6 0.6,-0.7 0.1,-0.1 0.5,0.3 0.6,0.5 1,3.1 2.1,6.2 3.1,9.4 -1.5,0 -2.9,0 -4.3,0 0,-0.5 -0.1,-0.9 -0.1,-1.3 -0.1,0 -0.1,0 -0.2,-0.1 -0.2,0.7 -0.5,1.4 -0.7,2.2 -0.7,2 -0.7,2 -2.8,1.7 z m 3.7,-4.5 c 0.6,0 0.9,0 1.5,0 -0.2,-0.7 -0.4,-1.4 -0.6,-2 -0.1,0 -0.2,0 -0.3,0 -0.1,0.6 -0.3,1.2 -0.6,2 z"
           inkscape:connector-curvature="0"
           style="fill:#929397" /><path
           id="XMLID_717_"
           d="m 184.5,234.2 c -0.6,-0.2 -0.9,-0.3 -1.3,-0.4 0,-0.5 0,-1 0,-1.6 0.9,0 1.8,0 2.8,0 0,1.4 0,2.8 0,4.3 -1.4,0 -2.9,0.1 -4.3,-0.1 -0.4,0 -0.9,-0.7 -1,-1.2 -0.1,-2.3 -0.1,-4.6 0,-6.9 0,-0.8 0.5,-1.3 1.3,-1.3 2.1,0 4.3,0 6.5,0 0,0.6 0,1.2 0,1.8 -1.6,0 -3.2,0 -4.8,0 -1,0 -1.3,0.3 -1.3,1.3 0.1,1.1 0,2.2 0,3.2 0.1,1.4 0.7,1.7 2.1,0.9 z"
           inkscape:connector-curvature="0"
           style="fill:#929397" /><path
           id="XMLID_359_"
           d="m 171.1,234.5 c 2,0.4 4,0 6.1,0.2 0,0.6 0,1.1 0,1.7 -2.4,0 -4.7,0.1 -7,-0.1 -0.4,0 -0.9,-0.8 -1,-1.3 -0.2,-0.9 0,-1.9 0,-3 2.2,0 4.3,0 6.6,0 0,0.5 0,1.1 0,1.7 -1.5,0 -3.1,0 -4.6,0 0,0.4 -0.1,0.6 -0.1,0.8 z"
           inkscape:connector-curvature="0"
           style="fill:#929397" /><path
           id="XMLID_358_"
           d="m 177.3,227 c 0,0.6 0,1.2 0,1.7 -2,0.3 -4.1,-0.2 -6.1,0.3 0,0.2 0,0.3 0,0.5 1.5,0 3,0 4.6,0 0,0.7 0,1.2 0,1.8 -2.1,0 -4.3,0 -6.5,0 0,-1.1 -0.1,-2.2 0,-3.3 0.1,-0.4 0.7,-1 1,-1 2.3,0 4.6,0 7,0 z"
           inkscape:connector-curvature="0"
           style="fill:#929397" /></g><g
         id="XMLID_212_"><path
           id="XMLID_89_"
           d="m 152.6,144.9 -1.3,0.1 c 0,-0.9 -0.3,-1.4 -0.9,-1.4 -0.7,0 -1,0.7 -1,2.1 0,0.8 0.1,1.4 0.3,1.6 0.2,0.3 0.4,0.4 0.8,0.4 0.5,0 0.8,-0.4 1,-1.2 l 1.2,0.1 c -0.1,0.8 -0.3,1.4 -0.7,1.8 -0.4,0.4 -0.9,0.6 -1.5,0.6 -0.7,0 -1.3,-0.3 -1.8,-0.9 -0.4,-0.6 -0.7,-1.4 -0.7,-2.4 0,-1 0.2,-1.8 0.7,-2.4 0.4,-0.6 1,-0.9 1.8,-0.9 1.2,0 1.9,0.8 2.1,2.5 z"
           inkscape:connector-curvature="0"
           style="fill:#241c1e" /><path
           id="XMLID_86_"
           d="m 155.5,142.5 1.7,6.4 -1.4,0 -0.3,-1.3 -1.8,0 -0.3,1.3 -1.1,0 1.7,-6.4 1.5,0 z m -1.4,3.9 1.2,0 -0.6,-2.3 -0.6,2.3 z"
           inkscape:connector-curvature="0"
           style="fill:#241c1e" /><path
           id="XMLID_83_"
           d="m 158.8,146.4 0,2.5 -1.3,0 0,-6.4 2.4,0 c 0.4,0 0.8,0.1 1.1,0.2 0.3,0.1 0.5,0.3 0.7,0.7 0.2,0.3 0.3,0.7 0.3,1.1 0,0.8 -0.3,1.3 -0.9,1.7 l 1,2.8 -1.4,0 -0.8,-2.5 -1.1,0 z m 0,-2.7 0,1.6 0.8,0 c 0.3,0 0.4,0 0.6,-0.1 0.1,0 0.2,-0.1 0.3,-0.3 0.1,-0.1 0.1,-0.3 0.1,-0.5 0,-0.2 0,-0.3 -0.1,-0.5 -0.1,-0.2 -0.2,-0.2 -0.3,-0.3 -0.1,0 -0.3,0 -0.6,0 l -0.8,0 z"
           inkscape:connector-curvature="0"
           style="fill:#241c1e" /><path
           id="XMLID_81_"
           d="m 166.1,142.5 0,1.3 -1.3,0 0,5.2 -1.3,0 0,-5.2 -1.4,0 0,-1.3 4,0 z"
           inkscape:connector-curvature="0"
           style="fill:#241c1e" /><path
           id="XMLID_78_"
           d="m 167.8,146.4 0,2.5 -1.3,0 0,-6.4 2.4,0 c 0.4,0 0.8,0.1 1.1,0.2 0.3,0.1 0.5,0.3 0.7,0.7 0.2,0.3 0.3,0.7 0.3,1.1 0,0.8 -0.3,1.3 -0.9,1.7 l 1,2.8 -1.4,0 -0.8,-2.5 -1.1,0 z m 0,-2.7 0,1.6 0.8,0 c 0.3,0 0.4,0 0.6,-0.1 0.1,0 0.2,-0.1 0.3,-0.3 0.1,-0.1 0.1,-0.3 0.1,-0.5 0,-0.2 0,-0.3 -0.1,-0.5 -0.1,-0.1 -0.2,-0.2 -0.3,-0.3 -0.1,0 -0.3,0 -0.6,0 l -0.8,0 z"
           inkscape:connector-curvature="0"
           style="fill:#241c1e" /><path
           id="XMLID_76_"
           d="m 172.5,142.5 0,6.4 -1.3,0 0,-6.4 1.3,0 z"
           inkscape:connector-curvature="0"
           style="fill:#241c1e" /><path
           id="XMLID_17_"
           d="m 172.9,142.5 1.7,0 c 0.7,0 1.2,0.1 1.5,0.3 0.3,0.2 0.6,0.6 0.9,1.1 0.3,0.5 0.4,1.1 0.4,1.8 0,0.9 -0.2,1.7 -0.7,2.3 -0.5,0.6 -1.1,0.9 -1.9,0.9 l -1.9,0 0,-6.4 z m 1.3,1.2 0,4 0.5,0 c 0.5,0 0.8,-0.2 1,-0.6 0.2,-0.4 0.3,-0.9 0.3,-1.4 0,-0.4 -0.1,-0.7 -0.2,-1.1 -0.1,-0.3 -0.3,-0.6 -0.5,-0.7 -0.2,-0.1 -0.4,-0.2 -0.7,-0.2 l -0.4,0 z"
           inkscape:connector-curvature="0"
           style="fill:#241c1e" /><path
           id="XMLID_15_"
           d="m 182.1,145.5 c 0,0 0,2 -0.7,2.8 -0.7,0.7 -0.9,0.8 -1.5,0.8 -0.7,0 -1.3,-0.3 -1.7,-0.9 -0.4,-0.6 -0.6,-1.4 -0.6,-2.3 0,-1 0.2,-1.8 0.6,-2.5 0.4,-0.6 1,-0.9 1.7,-0.9 0.6,0 1.1,0.2 1.5,0.6 0.4,0.4 0.6,0.9 0.7,1.6 l -1.2,0.2 c -0.1,-0.8 -0.4,-1.2 -0.9,-1.2 -0.3,0 -0.6,0.2 -0.8,0.6 -0.2,0.4 -0.3,0.9 -0.3,1.6 0,0.7 0.1,1.2 0.3,1.5 0.2,0.3 0.5,0.5 0.8,0.5 0.2,0 0.4,-0.1 0.6,-0.3 0.2,-0.2 0.3,-0.5 0.3,-0.8 l -1,0 0,-1.2 2.2,0 z"
           inkscape:connector-curvature="0"
           style="fill:#241c1e" /><path
           id="XMLID_13_"
           d="m 186.3,143.7 -2.6,0 0,1.3 2,0 0,1.2 -2,0 0,1.4 2.6,0 0,1.3 -3.9,0 0,-6.4 3.9,0 0,1.2 z"
           inkscape:connector-curvature="0"
           style="fill:#241c1e" /><path
           id="XMLID_11_"
           d="m 191.3,142.5 0,6.4 -1.3,0 0,-6.4 1.3,0 z"
           inkscape:connector-curvature="0"
           style="fill:#241c1e" /><path
           id="XMLID_9_"
           d="m 195.8,142.5 0,6.4 -1.1,0 -2.1,-4.3 c 0,0.1 0,0.2 0,0.2 0,0.1 0,0.2 0,0.3 l 0,3.8 -1,0 0,-6.4 1.4,0 1.8,3.8 c 0,-0.2 0,-0.3 0,-0.4 l 0,-3.4 1,0 z"
           inkscape:connector-curvature="0"
           style="fill:#241c1e" /><path
           id="XMLID_6_"
           d="m 197.3,146.6 0,2.4 -1.3,0 0,-6.4 2.1,0 c 0.5,0 0.8,0.1 1.1,0.2 0.3,0.1 0.5,0.3 0.7,0.6 0.2,0.3 0.3,0.7 0.3,1.1 0,0.3 -0.1,0.6 -0.2,0.9 -0.1,0.3 -0.3,0.5 -0.4,0.7 -0.2,0.2 -0.4,0.3 -0.6,0.3 -0.2,0.1 -0.5,0.1 -0.9,0.1 l -0.8,0 z m 0,-1.2 0.8,0 c 0.3,0 0.5,-0.1 0.7,-0.3 0.2,-0.2 0.2,-0.4 0.2,-0.6 0,-0.3 -0.1,-0.5 -0.2,-0.6 -0.1,-0.2 -0.4,-0.2 -0.6,-0.2 l -0.8,0 0,1.7 z"
           inkscape:connector-curvature="0"
           style="fill:#241c1e" /><path
           id="XMLID_4_"
           d="m 204.8,142.5 0,4 c 0,0.6 -0.1,1.1 -0.2,1.4 -0.1,0.3 -0.4,0.6 -0.7,0.8 -0.3,0.2 -0.8,0.3 -1.3,0.3 -0.5,0 -0.9,-0.1 -1.2,-0.3 -0.3,-0.2 -0.5,-0.4 -0.7,-0.8 -0.2,-0.4 -0.2,-0.8 -0.2,-1.5 l 0,-4 1.4,0 0,4 c 0,0.3 0,0.6 0.1,0.8 0,0.2 0.1,0.3 0.3,0.4 0.2,0.1 0.3,0.1 0.5,0.1 0.2,0 0.4,0 0.6,-0.1 0.2,-0.1 0.2,-0.2 0.3,-0.4 0,-0.2 0.1,-0.4 0.1,-0.8 l 0,-4 1,0 z"
           inkscape:connector-curvature="0"
           style="fill:#241c1e" /><path
           id="XMLID_2_"
           d="m 209.1,142.5 0,1.3 -1.3,0 0,5.2 -1.3,0 0,-5.2 -1.4,0 0,-1.3 4,0 z"
           inkscape:connector-curvature="0"
           style="fill:#241c1e" /></g><g
         id="g47"><path
           d="m 272.3,122.3 -187.5,0 C 74.5,122.3 66,113.8 66,103.5 L 66,101 C 66,90.7 74.5,82.2 84.8,82.2 l 187.4,0 c 10.3,0 18.8,8.5 18.8,18.8 l 0,2.5 c 0.1,10.3 -8.4,18.8 -18.7,18.8 z"
           id="path49"
           inkscape:connector-curvature="0"
           style="fill:#181515" /><g
           id="g51"><rect
             x="79.300003"
             y="88.699997"
             width="198.39999"
             height="28.200001"
             id="rect53" /><rect
             x="80.300003"
             y="89.699997"
             width="196.39999"
             height="26.200001"
             id="rect55"
             style="fill:#732a46" /><rect
             x="79.300003"
             y="102.3"
             width="198.39999"
             height="1"
             id="rect57"
             style="fill:#010102" /></g></g><path
         id="XMLID_250_"
         d="m 43.5,220.3 c 6.2,-12.2 16,-18.4 27.5,-20 9.2,-1.1 22.7,3.9 48.9,10.1 13.1,3.1 33.9,4.7 58,4.6 24.1,0 44.9,-1.5 58,-4.6 26.2,-6.2 39.6,-11.2 48.9,-10.1 11.5,1.6 22.5,7.4 28.6,19.6 -6.5,-13.2 -15.5,-21.9 -28,-21.9 -9.3,0 -20.8,1.3 -46.9,7.6 -13,3.1 -36.8,4.7 -60.6,4.7 -24.1,0 -48.3,-1.5 -61.4,-4.7 -26.2,-6.2 -37.7,-8.7 -46.9,-7.6 -11.5,1.6 -19.9,10.1 -26.1,22.3 z"
         inkscape:connector-curvature="0"
         style="fill:#181515" /><g
         id="g60"><path
           id="XMLID_350_"
           d="m 286.3,277.2 c 0,13.2 -15.2,15.5 -15.2,15.5 l -92.5,0 c 0,0 -89.8,0 -92.5,0 -2.7,0 -15.2,-2.2 -15.2,-15.5 0,-13.2 15.2,-15.5 15.2,-15.5 l 92.5,0 92.5,0 c 0,0 15.2,2.3 15.2,15.5 z"
           inkscape:connector-curvature="0"
           style="fill:#3f4040" /><path
           id="XMLID_349_"
           d="m 274,289.1 -190.6,0 c -4.8,0 -8.8,-3.9 -8.8,-8.8 l 0,-6.1 c 0,-4.8 3.9,-8.8 8.8,-8.8 l 190.6,0 c 4.8,0 8.8,3.9 8.8,8.8 l 0,6.1 c 0,4.9 -3.9,8.8 -8.8,8.8 z"
           inkscape:connector-curvature="0"
           style="fill:#333333" /><path
           id="bouton_8_"
           d="m 269.7,285.4 -31.4,0 c -4.5,0 -8.2,-3.7 -8.2,-8.2 l 0,0 c 0,-4.5 3.7,-8.2 8.2,-8.2 l 31.4,0 c 4.5,0 8.2,3.7 8.2,8.2 l 0,0 c 0,4.5 -3.7,8.2 -8.2,8.2 z"
           inkscape:connector-curvature="0"
           style="fill:#212020" /><path
           id="bouton_7_"
           d="m 270.1,282.2 -32.2,0 c -2.5,0 -4.6,-2.1 -4.6,-4.6 l 0,-0.9 c 0,-2.5 2.1,-4.6 4.6,-4.6 l 32.2,0 c 2.5,0 4.6,2.1 4.6,4.6 l 0,0.9 c -0.1,2.6 -2.1,4.6 -4.6,4.6 z"
           inkscape:connector-curvature="0"
           style="fill:#6177b3" /><circle
           cx="240.10001"
           cy="277.29999"
           r="1"
           id="circle66"
           style="fill:#45537c" /><circle
           cx="247"
           cy="277.29999"
           r="1"
           id="circle68"
           style="fill:#45537c" /><circle
           cx="253.89999"
           cy="277.29999"
           r="1"
           id="circle70"
           style="fill:#45537c" /><circle
           cx="260.79999"
           cy="277.29999"
           r="1"
           id="circle72"
           style="fill:#45537c" /><circle
           cx="267.70001"
           cy="277.29999"
           r="1"
           id="circle74"
           style="fill:#45537c" /><path
           id="bouton_13_"
           d="m 119,285.4 -31.4,0 c -4.5,0 -8.2,-3.7 -8.2,-8.2 l 0,0 c 0,-4.5 3.7,-8.2 8.2,-8.2 l 31.4,0 c 4.5,0 8.2,3.7 8.2,8.2 l 0,0 c 0,4.5 -3.7,8.2 -8.2,8.2 z"
           inkscape:connector-curvature="0"
           style="fill:#212020" /><path
           id="bouton_10_"
           d="m 119.4,282.2 -32.3,0 c -2.5,0 -4.6,-2.1 -4.6,-4.6 l 0,-0.9 c 0,-2.5 2.1,-4.6 4.6,-4.6 l 32.2,0 c 2.5,0 4.6,2.1 4.6,4.6 l 0,0.9 c 0,2.6 -2,4.6 -4.5,4.6 z"
           inkscape:connector-curvature="0"
           style="fill:#cbcfd8" /><path
           d="m 106.1,272.2 c -2,0 -3.5,2.2 -3.5,5 0,2.8 1.6,5 3.5,5 l -11.4,0 c 2,0 3.5,-2.2 3.5,-5 0,-2.8 -1.6,-5 -3.5,-5 l 11.4,0 z"
           id="path78"
           inkscape:connector-curvature="0"
           style="fill:#7d8189" /><rect
           x="99.800003"
           y="272.20001"
           width="1.1"
           height="10"
           id="rect80"
           style="fill:#6b6d72" /><path
           d="m 94.7,272.2 -8,0 c -2,0 -3.5,2.2 -3.5,5 0,2.8 1.6,5 3.5,5 l 8,0 c 2,0 3.5,-2.2 3.5,-5 0,-2.8 -1.6,-5 -3.5,-5 z"
           id="path82"
           inkscape:connector-curvature="0"
           style="fill:#929397" /><path
           d="m 114.1,272.2 -8,0 c -2,0 -3.5,2.2 -3.5,5 0,2.8 1.6,5 3.5,5 l 8,0 c 2,0 3.5,-2.2 3.5,-5 0,-2.8 -1.6,-5 -3.5,-5 z"
           id="path84"
           inkscape:connector-curvature="0"
           style="fill:#929397" /></g><g
         id="g86"><path
           id="XMLID_747_"
           d="m 322.2,1.9 0,12 c 0,0 -0.1,1.5 -2.1,1.5 -2,0 -141.6,0 -141.6,0 0,0 -139.5,0 -141.5,0 -2,0 -2.1,-1.5 -2.1,-1.5 l 0,-12 L 178.6,2 322.2,1.9 Z"
           inkscape:connector-curvature="0"
           style="fill:#444546" /><g
           id="XMLID_139_"><rect
             id="XMLID_211_"
             x="36.099998"
             width="2.5999999"
             height="13.7"
             y="0"
             style="fill:#282424" /><rect
             id="XMLID_210_"
             x="40.099998"
             width="2.5999999"
             height="13.7"
             y="0"
             style="fill:#282424" /><rect
             id="XMLID_209_"
             x="44.099998"
             width="2.5999999"
             height="13.7"
             y="0"
             style="fill:#282424" /><rect
             id="XMLID_208_"
             x="48.099998"
             width="2.5999999"
             height="13.7"
             y="0"
             style="fill:#282424" /><rect
             id="XMLID_207_"
             x="52.099998"
             width="2.5999999"
             height="13.7"
             y="0"
             style="fill:#282424" /><rect
             id="XMLID_206_"
             x="56.099998"
             width="2.5999999"
             height="13.7"
             y="0"
             style="fill:#282424" /><rect
             id="XMLID_205_"
             x="60.200001"
             width="2.5999999"
             height="13.7"
             y="0"
             style="fill:#282424" /><rect
             id="XMLID_204_"
             x="64.199997"
             width="2.5999999"
             height="13.7"
             y="0"
             style="fill:#282424" /><rect
             id="XMLID_203_"
             x="68.300003"
             width="2.5999999"
             height="13.7"
             y="0"
             style="fill:#282424" /><rect
             id="XMLID_202_"
             x="72.300003"
             width="2.5999999"
             height="13.7"
             y="0"
             style="fill:#282424" /><rect
             id="XMLID_201_"
             x="76.400002"
             width="2.5999999"
             height="13.7"
             y="0"
             style="fill:#282424" /><rect
             id="XMLID_200_"
             x="80.400002"
             width="2.5999999"
             height="13.7"
             y="0"
             style="fill:#282424" /><rect
             id="XMLID_199_"
             x="84.300003"
             width="2.5999999"
             height="13.7"
             y="0"
             style="fill:#282424" /><rect
             id="XMLID_198_"
             x="88.300003"
             width="2.5999999"
             height="13.7"
             y="0"
             style="fill:#282424" /><rect
             id="XMLID_197_"
             x="92.400002"
             width="2.5999999"
             height="13.7"
             y="0"
             style="fill:#282424" /><rect
             id="XMLID_196_"
             x="96.400002"
             width="2.5999999"
             height="13.7"
             y="0"
             style="fill:#282424" /><rect
             id="XMLID_195_"
             x="100.5"
             width="2.5999999"
             height="13.7"
             y="0"
             style="fill:#282424" /><rect
             id="XMLID_194_"
             x="104.5"
             width="2.5999999"
             height="13.7"
             y="0"
             style="fill:#282424" /><rect
             id="XMLID_193_"
             x="108.5"
             width="2.5999999"
             height="13.7"
             y="0"
             style="fill:#282424" /><rect
             id="XMLID_192_"
             x="112.5"
             width="2.5999999"
             height="13.7"
             y="0"
             style="fill:#282424" /><rect
             id="XMLID_191_"
             x="116.5"
             width="2.5999999"
             height="13.7"
             y="0"
             style="fill:#282424" /><rect
             id="XMLID_190_"
             x="120.5"
             width="2.5999999"
             height="13.7"
             y="0"
             style="fill:#282424" /><rect
             id="XMLID_189_"
             x="124.6"
             width="2.5999999"
             height="13.7"
             y="0"
             style="fill:#282424" /><rect
             id="XMLID_188_"
             x="128.60001"
             width="2.5999999"
             height="13.7"
             y="0"
             style="fill:#282424" /><rect
             id="XMLID_187_"
             x="132.60001"
             width="2.5999999"
             height="13.7"
             y="0"
             style="fill:#282424" /><rect
             id="XMLID_186_"
             x="136.60001"
             width="2.5999999"
             height="13.7"
             y="0"
             style="fill:#282424" /><rect
             id="XMLID_185_"
             x="140.7"
             width="2.5999999"
             height="13.7"
             y="0"
             style="fill:#282424" /><rect
             id="XMLID_184_"
             x="144.7"
             width="2.5999999"
             height="13.7"
             y="0"
             style="fill:#282424" /><rect
             id="XMLID_183_"
             x="148.60001"
             width="2.5999999"
             height="13.7"
             y="0"
             style="fill:#282424" /><rect
             id="XMLID_182_"
             x="152.7"
             width="2.5999999"
             height="13.7"
             y="0"
             style="fill:#282424" /><rect
             id="XMLID_181_"
             x="156.7"
             width="2.5999999"
             height="13.7"
             y="0"
             style="fill:#282424" /><rect
             id="XMLID_180_"
             x="160.7"
             width="2.5999999"
             height="13.7"
             y="0"
             style="fill:#282424" /><rect
             id="XMLID_179_"
             x="165"
             width="2.5999999"
             height="13.7"
             y="0"
             style="fill:#282424" /><rect
             id="XMLID_178_"
             x="169.10001"
             width="2.5999999"
             height="13.7"
             y="0"
             style="fill:#282424" /><rect
             id="XMLID_177_"
             x="173.10001"
             width="2.5999999"
             height="13.7"
             y="0"
             style="fill:#282424" /><rect
             id="XMLID_176_"
             x="177"
             width="2.5999999"
             height="13.7"
             y="0"
             style="fill:#282424" /><rect
             id="XMLID_175_"
             x="181"
             width="2.5999999"
             height="13.7"
             y="0"
             style="fill:#282424" /><rect
             id="XMLID_174_"
             x="185.10001"
             width="2.5999999"
             height="13.7"
             y="0"
             style="fill:#282424" /><rect
             id="XMLID_173_"
             x="189.10001"
             width="2.5999999"
             height="13.7"
             y="0"
             style="fill:#282424" /><rect
             id="XMLID_172_"
             x="193.2"
             width="2.5999999"
             height="13.7"
             y="0"
             style="fill:#282424" /><rect
             id="XMLID_171_"
             x="197.2"
             width="2.5999999"
             height="13.7"
             y="0"
             style="fill:#282424" /><rect
             id="XMLID_170_"
             x="201.3"
             width="2.5999999"
             height="13.7"
             y="0"
             style="fill:#282424" /><rect
             id="XMLID_169_"
             x="205.3"
             width="2.5999999"
             height="13.7"
             y="0"
             style="fill:#282424" /><rect
             id="XMLID_168_"
             x="209.2"
             width="2.5999999"
             height="13.7"
             y="0"
             style="fill:#282424" /><rect
             id="XMLID_167_"
             x="213.2"
             width="2.5999999"
             height="13.7"
             y="0"
             style="fill:#282424" /><rect
             id="XMLID_166_"
             x="217.3"
             width="2.5999999"
             height="13.7"
             y="0"
             style="fill:#282424" /><rect
             id="XMLID_165_"
             x="221.3"
             width="2.5999999"
             height="13.7"
             y="0"
             style="fill:#282424" /><rect
             id="XMLID_164_"
             x="225.7"
             width="2.5999999"
             height="13.7"
             y="0"
             style="fill:#282424" /><rect
             id="XMLID_163_"
             x="229.8"
             width="2.5999999"
             height="13.7"
             y="0"
             style="fill:#282424" /><rect
             id="XMLID_162_"
             x="233.8"
             width="2.5999999"
             height="13.7"
             y="0"
             style="fill:#282424" /><rect
             id="XMLID_161_"
             x="237.7"
             width="2.5999999"
             height="13.7"
             y="0"
             style="fill:#282424" /><rect
             id="XMLID_160_"
             x="241.7"
             width="2.5999999"
             height="13.7"
             y="0"
             style="fill:#282424" /><rect
             id="XMLID_159_"
             x="245.8"
             width="2.5999999"
             height="13.7"
             y="0"
             style="fill:#282424" /><rect
             id="XMLID_158_"
             x="249.8"
             width="2.5999999"
             height="13.7"
             y="0"
             style="fill:#282424" /><rect
             id="XMLID_157_"
             x="253.89999"
             width="2.5999999"
             height="13.7"
             y="0"
             style="fill:#282424" /><rect
             id="XMLID_156_"
             x="257.89999"
             width="2.5999999"
             height="13.7"
             y="0"
             style="fill:#282424" /><rect
             id="XMLID_155_"
             x="262"
             width="2.5999999"
             height="13.7"
             y="0"
             style="fill:#282424" /><rect
             id="XMLID_154_"
             x="266"
             width="2.5999999"
             height="13.7"
             y="0"
             style="fill:#282424" /><rect
             id="XMLID_153_"
             x="269.89999"
             width="2.5999999"
             height="13.7"
             y="0"
             style="fill:#282424" /><rect
             id="XMLID_152_"
             x="273.89999"
             width="2.5999999"
             height="13.7"
             y="0"
             style="fill:#282424" /><rect
             id="XMLID_151_"
             x="278"
             width="2.5999999"
             height="13.7"
             y="0"
             style="fill:#282424" /><rect
             id="XMLID_150_"
             x="282"
             width="2.5999999"
             height="13.7"
             y="0"
             style="fill:#282424" /><rect
             id="XMLID_149_"
             x="286.20001"
             width="2.5999999"
             height="13.7"
             y="0"
             style="fill:#282424" /><rect
             id="XMLID_148_"
             x="290.29999"
             width="2.5999999"
             height="13.7"
             y="0"
             style="fill:#282424" /><rect
             id="XMLID_146_"
             x="294.29999"
             width="2.5999999"
             height="13.7"
             y="0"
             style="fill:#282424" /><rect
             id="XMLID_145_"
             x="298.20001"
             width="2.5999999"
             height="13.7"
             y="0"
             style="fill:#282424" /><rect
             id="XMLID_144_"
             x="302.20001"
             width="2.5999999"
             height="13.7"
             y="0"
             style="fill:#282424" /><rect
             id="XMLID_143_"
             x="306.29999"
             width="2.5999999"
             height="13.7"
             y="0"
             style="fill:#282424" /><rect
             id="XMLID_142_"
             x="310.29999"
             width="2.5999999"
             height="13.7"
             y="0"
             style="fill:#282424" /><rect
             id="XMLID_141_"
             x="314.39999"
             width="2.5999999"
             height="13.7"
             y="0"
             style="fill:#282424" /><rect
             id="XMLID_140_"
             x="318.39999"
             width="2.5999999"
             height="13.7"
             y="0"
             style="fill:#282424" /></g></g><g
         id="g161"><path
           d="m 248.4,299.2 -0.7,0 -0.4,-1 c 0,-0.1 -0.1,-0.1 -0.1,-0.2 0,-0.1 -0.1,-0.1 -0.1,-0.2 -0.1,0 -0.1,-0.1 -0.2,-0.1 -0.1,0 -0.1,0 -0.2,0 l -0.7,0 0,1.5 -0.7,0 0,-3.7 1.7,0 c 0.1,0 0.2,0 0.3,0 0.1,0 0.2,0 0.3,0 0.1,0 0.2,0 0.2,0.1 0.1,0 0.1,0.1 0.2,0.1 0.1,0.1 0.1,0.1 0.2,0.2 0.1,0.1 0.1,0.1 0.1,0.2 0,0.1 0.1,0.1 0.1,0.2 0,0.1 0,0.2 0,0.2 0,0.2 -0.1,0.4 -0.2,0.6 -0.1,0.2 -0.3,0.3 -0.5,0.4 0.2,0.1 0.3,0.3 0.4,0.6 l 0.3,1.1 z m -2.5,-2.1 0.9,0 c 0.1,0 0.2,0 0.3,0 0.1,0 0.2,0 0.2,-0.1 0.1,0 0.1,-0.1 0.1,-0.2 0,-0.1 0,-0.1 0,-0.2 0,-0.2 -0.1,-0.3 -0.2,-0.4 -0.1,-0.1 -0.3,-0.1 -0.5,-0.1 l -1,0 0,1 z"
           id="path163"
           inkscape:connector-curvature="0"
           style="fill:#82888b" /><path
           d="m 251.9,299.2 -2.9,0 0,-3.7 2.8,0 0,0.6 -2.1,0 0,0.8 1.9,0 0,0.6 -1.9,0 0,1 2.1,0 0,0.7 z"
           id="path165"
           inkscape:connector-curvature="0"
           style="fill:#82888b" /><path
           d="m 254,299.3 c -0.3,0 -0.5,0 -0.7,-0.1 -0.2,-0.1 -0.4,-0.2 -0.5,-0.3 -0.1,-0.1 -0.2,-0.3 -0.3,-0.4 -0.1,-0.2 -0.1,-0.4 -0.1,-0.6 l 0.7,0 c 0,0.1 0,0.2 0.1,0.3 0.1,0.1 0.1,0.2 0.2,0.2 0.1,0.1 0.2,0.1 0.3,0.1 0.1,0 0.2,0 0.3,0 0.1,0 0.2,0 0.3,0 0.1,0 0.2,-0.1 0.2,-0.1 0.1,0 0.1,-0.1 0.2,-0.2 0,-0.1 0.1,-0.1 0.1,-0.2 0,-0.1 0,-0.1 -0.1,-0.2 0,-0.1 -0.1,-0.1 -0.2,-0.1 -0.1,0 -0.2,-0.1 -0.3,-0.1 -0.1,0 -0.3,-0.1 -0.5,-0.1 -0.2,0 -0.4,-0.1 -0.5,-0.2 -0.1,-0.1 -0.3,-0.1 -0.4,-0.2 -0.1,-0.1 -0.2,-0.2 -0.2,-0.3 0,-0.1 -0.1,-0.2 -0.1,-0.4 0,-0.2 0,-0.3 0.1,-0.4 0.1,-0.1 0.2,-0.2 0.3,-0.3 0.1,-0.1 0.3,-0.2 0.4,-0.2 0.2,-0.1 0.4,-0.1 0.6,-0.1 0.2,0 0.4,0 0.6,0.1 0.2,0.1 0.3,0.1 0.5,0.2 0.2,0.1 0.2,0.2 0.3,0.4 0.1,0.2 0.1,0.3 0.1,0.5 l -0.7,0 c 0,-0.4 -0.3,-0.6 -0.8,-0.6 -0.2,0 -0.4,0 -0.5,0.1 -0.1,0.1 -0.2,0.2 -0.2,0.3 0,0.1 0,0.1 0,0.1 0,0 0.1,0.1 0.1,0.1 0,0 0.1,0.1 0.2,0.1 0.1,0 0.2,0.1 0.3,0.1 0.1,0 0.2,0 0.3,0.1 0.1,0 0.2,0.1 0.3,0.1 0.1,0 0.2,0.1 0.3,0.1 0.1,0.1 0.2,0.1 0.3,0.2 0.1,0.1 0.1,0.2 0.2,0.3 0,0.1 0.1,0.2 0.1,0.4 0,0.2 0,0.3 -0.1,0.5 -0.1,0.2 -0.2,0.3 -0.3,0.4 -0.1,0.1 -0.3,0.2 -0.4,0.2 -0.1,0.2 -0.3,0.2 -0.5,0.2 z"
           id="path167"
           inkscape:connector-curvature="0"
           style="fill:#82888b" /><path
           d="m 259,299.2 -2.8,0 0,-3.7 2.8,0 0,0.6 -2.1,0 0,0.8 1.9,0 0,0.6 -1.9,0 0,1 2.1,0 0,0.7 z"
           id="path169"
           inkscape:connector-curvature="0"
           style="fill:#82888b" /><path
           d="m 262.4,296.2 -1.2,0 0,3.1 -0.7,0 0,-3.1 -1.1,0 0,-0.6 3,0 0,0.6 z"
           id="path171"
           inkscape:connector-curvature="0"
           style="fill:#82888b" /></g><g
         id="g173"><path
           d="m 91.9,295.3 1.5,0 c 0.1,0 0.3,0 0.4,0 0.1,0 0.3,0 0.4,0.1 0.1,0 0.2,0.1 0.3,0.1 0.1,0.1 0.2,0.1 0.2,0.2 0.1,0.1 0.1,0.2 0.2,0.3 0,0.1 0.1,0.3 0.1,0.4 0,0.4 -0.1,0.7 -0.4,0.9 -0.3,0.2 -0.6,0.3 -1.1,0.3 l -0.8,0 0,1.5 -0.7,0 0,-3.8 z m 0.7,1.8 0.8,0 c 0.1,0 0.3,0 0.3,0 0,0 0.2,-0.1 0.2,-0.1 0.1,0 0.1,-0.1 0.1,-0.2 0,-0.1 0,-0.2 0,-0.2 0,-0.1 0,-0.2 -0.1,-0.3 0,-0.1 -0.1,-0.1 -0.2,-0.2 -0.1,0 -0.2,-0.1 -0.2,-0.1 -0.1,0 -0.2,0 -0.3,0 l -0.8,0 0,1.1 z"
           id="path175"
           inkscape:connector-curvature="0"
           style="fill:#82888b" /><path
           d="m 97.4,295.2 c 0.3,0 0.5,0 0.8,0.1 0.3,0.1 0.4,0.2 0.6,0.4 0.2,0.2 0.3,0.4 0.4,0.6 0.1,0.3 0.1,0.5 0.1,0.8 0,0.3 0,0.6 -0.1,0.8 -0.1,0.3 -0.2,0.5 -0.4,0.6 -0.2,0.2 -0.4,0.3 -0.6,0.4 -0.2,0.1 -0.5,0.1 -0.8,0.1 -0.3,0 -0.5,0 -0.8,-0.1 -0.2,-0.1 -0.4,-0.2 -0.6,-0.4 -0.2,-0.2 -0.3,-0.4 -0.4,-0.6 -0.1,-0.3 -0.1,-0.5 -0.1,-0.8 0,-0.3 0,-0.6 0.1,-0.8 0.1,-0.3 0.2,-0.5 0.4,-0.6 0.2,-0.2 0.4,-0.3 0.6,-0.4 0.3,0 0.6,-0.1 0.8,-0.1 z m 0,3.5 c 0.2,0 0.3,0 0.5,-0.1 0.1,-0.1 0.3,-0.2 0.4,-0.3 0.1,-0.1 0.2,-0.3 0.2,-0.4 0.1,-0.2 0.1,-0.4 0.1,-0.6 0,-0.2 0,-0.4 -0.1,-0.6 -0.1,-0.2 -0.1,-0.3 -0.2,-0.4 -0.1,-0.1 -0.2,-0.2 -0.4,-0.3 -0.1,-0.1 -0.3,-0.1 -0.5,-0.1 -0.2,0 -0.3,0 -0.5,0.1 -0.1,0.1 -0.3,0.2 -0.4,0.3 -0.1,0.1 -0.2,0.3 -0.2,0.4 -0.1,0.2 -0.1,0.4 -0.1,0.6 0,0.2 0,0.4 0.1,0.6 0.1,0.2 0.1,0.3 0.2,0.4 0.1,0.1 0.2,0.2 0.4,0.3 0.2,0 0.4,0.1 0.5,0.1 z"
           id="path177"
           inkscape:connector-curvature="0"
           style="fill:#82888b" /><path
           d="m 104.9,295.3 -1.1,4 -0.7,0 -0.8,-2.9 -0.8,2.9 -0.7,0 -1.1,-4 0.8,0 0.7,2.7 0.7,-2.7 0.8,0 0.7,2.7 0.7,-2.7 0.8,0 z"
           id="path179"
           inkscape:connector-curvature="0"
           style="fill:#82888b" /><path
           d="m 108.5,299.3 -3,0 0,-4 2.9,0 0,0.7 -2.2,0 0,0.9 2.1,0 0,0.7 -2.1,0 0,1 2.3,0 0,0.7 z"
           id="path181"
           inkscape:connector-curvature="0"
           style="fill:#82888b" /><path
           d="m 112.7,299.3 -0.8,0 -0.4,-1.1 c 0,-0.1 -0.1,-0.1 -0.1,-0.2 0,-0.1 -0.1,-0.1 -0.2,-0.2 -0.1,0 -0.1,-0.1 -0.2,-0.1 -0.1,0 -0.1,0 -0.2,0 l -0.8,0 0,1.6 -0.7,0 0,-4 1.8,0 c 0.1,0 0.2,0 0.3,0 0.1,0 0.2,0 0.3,0 0.1,0 0.2,0 0.3,0.1 0.1,0 0.2,0.1 0.2,0.1 0.1,0.1 0.1,0.1 0.2,0.2 0,0.1 0.1,0.1 0.1,0.2 0,0.1 0.1,0.2 0.1,0.2 0,0.1 0,0.2 0,0.2 0,0.2 -0.1,0.4 -0.2,0.6 -0.1,0.2 -0.3,0.3 -0.5,0.4 0.2,0.1 0.3,0.3 0.4,0.6 l 0.4,1.4 z m -2.7,-2.3 1,0 c 0.1,0 0.2,0 0.3,0 0.1,0 0.2,0 0.2,-0.1 0.1,0 0.1,-0.1 0.1,-0.2 0,-0.1 0,-0.1 0,-0.2 0,-0.2 -0.1,-0.3 -0.2,-0.4 -0.1,-0.1 -0.3,-0.1 -0.5,-0.1 l -0.9,0 0,1 z"
           id="path183"
           inkscape:connector-curvature="0"
           style="fill:#82888b" /></g><g
         id="g185"><path
           id="XMLID_333_"
           d="m 77.2,319 0,-1.9 c 1.9,-0.5 3.2,-1.1 3.8,-1.9 l 1.9,0 0,7.8 0,1.7 -2.5,0 0,-1.7 0,-5.4 c -1.4,0.7 -2.5,1.1 -3.2,1.4 z"
           inkscape:connector-curvature="0"
           style="fill:#929397" /><rect
           id="XMLID_322_"
           x="105"
           y="315.29999"
           width="2.5999999"
           height="9.3999996"
           style="fill:#929397" /><polygon
           id="XMLID_319_"
           points="111.1,317.1 108.3,317.1 108.3,315.3 116.5,315.3 116.5,317.1 113.7,317.1 113.7,324.7 111.1,324.7 "
           style="fill:#929397" /><path
           d="m 95.2,316.3 c 0,-0.6 0.5,-1 1,-1 l 4.2,0 c 0.9,0 1.6,0.1 2.1,0.3 0.5,0.2 0.9,0.5 1.2,0.8 0.3,0.4 0.5,0.8 0.5,1.3 0,1 -0.7,1.7 -2,2.1 0.8,0.1 1.4,0.4 1.7,0.9 0.4,0.4 0.6,0.9 0.6,1.4 0,0.7 -0.3,1.3 -1,1.8 -0.6,0.5 -1.7,0.8 -3.1,0.8 l -4.2,0 c -0.6,0 -1,-0.5 -1,-1 l 0,-7.4 z m 2.6,1.4 0,0 c 0,0.2 0.5,0.4 1,0.4 l 1,0 c 0.7,0 1.2,0 1.4,-0.1 0.2,-0.1 0.3,-0.2 0.3,-0.2 0,-0.1 -0.1,-0.2 -0.2,-0.2 -0.2,-0.1 -0.3,-0.1 -0.5,-0.1 -0.2,0 -0.6,0 -1.1,0 l -0.8,0 c -0.7,-0.2 -1.1,0 -1.1,0.2 z m 0.6,3.7 0,0 c 0.1,0 0.3,0 0.4,0 l 1,0 c 0.7,0 1.2,0 1.5,-0.1 0.3,-0.1 0.4,-0.2 0.4,-0.3 0,-0.1 -0.1,-0.2 -0.4,-0.3 -0.3,-0.1 -0.7,-0.1 -1.4,-0.1 l -1.1,0 c -0.6,0 -1,0.2 -1,0.4 l 0,0 0,3.6 0.6,0 0,-3.2 z"
           id="path190"
           inkscape:connector-curvature="0"
           style="fill:#929397" /><path
           d="m 87.1,317.7 6.6,0 0,-2.6 -7.6,0 c -1.1,0 -2,0.9 -2,2 l 0,5.7 c 0,1.1 0.9,2 2,2 l 5.6,0 c 1.1,0 2,-0.9 2,-2 l 0,-2.3 0,0 c 0,-1 -0.8,-1.8 -1.8,-2.1 l -4.2,0 0,2.2 3.1,0 0,0.8 -3.8,0 0,-3.7 z"
           id="path192"
           inkscape:connector-curvature="0"
           style="fill:#929397" /></g><g
         id="g194"><path
           id="text8337_4_"
           inkscape:connector-curvature="0"
           d="m 226.1,323 4.3,-6.5 c 0.2,-0.4 0.4,-0.6 0.6,-0.6 l 3.1,0 0,0.9 0.2,-0.3 c 0.2,-0.4 0.4,-0.6 0.6,-0.6 l 3.7,0 0,7 -2.5,0 0,-5.5 -3.7,5.5 -2.4,0 3.7,-5.5 -1.2,0 c -0.1,0 -0.3,0.1 -0.4,0.2 l -3.5,5.4 -2.5,0 0,0 z m 15.7,-2.8 0,1.3 5.7,0 0,1.5 -8.2,0 0,-4.6 c 0,-0.1 0,-0.2 0.1,-0.4 l 1.1,-1.8 c 0.1,-0.1 0.2,-0.2 0.4,-0.2 l 6.5,0 0,1.5 -4.9,0 c -0.1,0 -0.2,0.1 -0.3,0.2 l -0.5,1.1 5.7,0 -0.8,1.5 -4.8,0 z m 9,1.3 4.1,0 0,-1.3 -1.6,0 0.8,-1.5 3.3,0 0,3.9 c 0,0.2 -0.1,0.4 -0.4,0.4 l -8.2,0 c -0.3,0 -0.4,-0.1 -0.4,-0.4 l 0,-4.2 c 0,-0.1 0,-0.2 0.1,-0.4 l 1.1,-1.8 c 0.1,-0.1 0.2,-0.2 0.4,-0.2 l 6.9,0 0,1.5 -5.3,0 c -0.1,0 -0.2,0.1 -0.3,0.2 l -0.5,1.1 0,2.7 z m 17.6,1.5 -2.9,0 -1.1,-1.5 -3,0 -0.8,-1.3 0,2.8 -2.5,0 0,-7 4.7,0 c 0.2,0 0.4,0.2 0.6,0.6 l 5,6.4 z m -5.1,-3 -1.8,-2.4 c -0.1,-0.1 -0.3,-0.2 -0.4,-0.2 l -0.4,0 0,2.6 2.6,0 0,0 z"
           style="fill:#929397" /><g
           id="g197"><path
             d="m 302.9,314.1 -10.2,0 c 2.2,-1.2 5.4,-2.9 6.8,-4.7 2.7,-3.4 -1.7,-5.8 -5.3,-4.6 -5,1.7 -7.1,4.1 -10,6.6 l -5.9,0 c 4.2,-8.1 9.5,-12.4 17.5,-14.6 8.6,-2.3 12.6,3.3 11,9.9 -0.8,3.5 -1.2,4.1 -3.9,7.4 z"
             id="path199"
             inkscape:connector-curvature="0"
             style="fill:#929397" /><path
             d="m 289.4,327.3 c 0,-0.3 0.2,-0.6 0.4,-1 0.2,-0.5 0.6,-0.8 0.7,-1 l -10.2,0 c -0.8,1.4 -1.5,2.1 -2,4.7 -0.5,2.8 1.1,4.1 2,4.1 l 24.6,0 3.6,-6.9 -19.1,0 z"
             id="path201"
             inkscape:connector-curvature="0"
             style="fill:#929397" /></g><path
           id="text8339_2_"
           inkscape:connector-curvature="0"
           d="m 272.4,321.7 2.6,0 c 0.1,0 0.2,-0.1 0.3,-0.2 l 0.8,-1.7 0,-0.2 0,-0.2 -0.8,-1.7 c -0.1,-0.1 -0.2,-0.2 -0.3,-0.2 l -2.6,0 0,4.2 0,0 z m -2.2,-5.7 6.3,0 c 0.2,0 0.3,0.1 0.5,0.4 l 1.5,3 0,0.2 0,0.2 -1.5,3 c -0.1,0.3 -0.3,0.4 -0.5,0.4 l -6.3,0 0,-7.2 0,0 z m 9,0 6,0 c 0.2,0 0.3,0.1 0.5,0.4 l 1,2.1 0,0.2 0,0.2 -1.5,1.7 1.5,2.6 -2.3,0 -2.2,-3.6 1.1,0 c 0.1,0 0.2,0 0.3,-0.1 l 0.8,-0.9 -0.4,-0.9 c -0.1,-0.1 -0.2,-0.2 -0.3,-0.2 l -2.4,0 0,5.7 -2.3,0 0,-7.2 0.2,0 z m 10.6,7.2 -2.3,0 0,-7.2 2.3,0 0,7.2 0,0 z m 3,-4.8 2.3,3.3 2.3,-3.3 0,-2.4 2.3,0 0,2.6 c 0,0.3 0,0.4 -0.1,0.6 l -2.5,4 -3.8,0 -2.5,-4 c -0.1,-0.1 -0.1,-0.3 -0.1,-0.6 l 0,-2.6 2.3,0 0,2.4 -0.2,0 z m 9.8,2 0,1.3 5.3,0 0,1.5 -7.5,0 0,-4.7 c 0,-0.1 0,-0.3 0.1,-0.4 l 1,-1.9 c 0.1,-0.1 0.2,-0.2 0.4,-0.2 l 6,0 0,1.5 -4.5,0 c -0.1,0 -0.2,0.1 -0.3,0.2 l -0.5,1.1 5.3,0 -0.8,1.5 -4.5,0 0,0.1 z"
           style="fill:#8c8e92" /></g><g
         id="g204"><path
           d="m 78.4,297.3 c 0,-0.4 0.1,-0.8 0.2,-1.1 0.1,-0.2 0.2,-0.4 0.4,-0.6 0.2,-0.2 0.4,-0.3 0.6,-0.4 0.3,-0.1 0.6,-0.2 0.9,-0.2 0.6,0 1.1,0.2 1.5,0.6 0.4,0.4 0.6,0.9 0.6,1.6 0,0.7 -0.2,1.2 -0.6,1.6 -0.4,0.4 -0.9,0.6 -1.5,0.6 -0.6,0 -1.1,-0.2 -1.5,-0.6 -0.4,-0.3 -0.6,-0.8 -0.6,-1.5 z m 0.9,0 c 0,0.5 0.1,0.9 0.3,1.1 0.2,0.3 0.5,0.4 0.9,0.4 0.4,0 0.6,-0.1 0.9,-0.4 0.2,-0.3 0.3,-0.6 0.3,-1.1 0,-0.5 -0.1,-0.9 -0.3,-1.1 -0.2,-0.2 -0.5,-0.4 -0.9,-0.4 -0.4,0 -0.6,0.1 -0.9,0.4 -0.2,0.2 -0.3,0.6 -0.3,1.1 z"
           id="path206"
           inkscape:connector-curvature="0"
           style="fill:#929397" /><path
           d="m 83.3,299.4 0,-4.3 0.8,0 1.8,2.9 0,-2.9 0.8,0 0,4.3 -0.9,0 -1.7,-2.8 0,2.8 -0.8,0 z"
           id="path208"
           inkscape:connector-curvature="0"
           style="fill:#929397" /></g><g
         id="g210"><path
           d="m 118.1,297.3 c 0,-0.4 0.1,-0.8 0.2,-1.1 0.1,-0.2 0.2,-0.4 0.4,-0.6 0.2,-0.2 0.4,-0.3 0.6,-0.4 0.3,-0.1 0.6,-0.2 0.9,-0.2 0.6,0 1.1,0.2 1.5,0.6 0.4,0.4 0.6,0.9 0.6,1.6 0,0.7 -0.2,1.2 -0.6,1.6 -0.4,0.4 -0.9,0.6 -1.5,0.6 -0.6,0 -1.1,-0.2 -1.5,-0.6 -0.4,-0.3 -0.6,-0.8 -0.6,-1.5 z m 0.9,0 c 0,0.5 0.1,0.9 0.3,1.1 0.2,0.3 0.5,0.4 0.9,0.4 0.4,0 0.6,-0.1 0.9,-0.4 0.2,-0.3 0.3,-0.6 0.3,-1.1 0,-0.5 -0.1,-0.9 -0.3,-1.1 -0.2,-0.2 -0.5,-0.4 -0.9,-0.4 -0.4,0 -0.6,0.1 -0.9,0.4 -0.2,0.2 -0.3,0.6 -0.3,1.1 z"
           id="path212"
           inkscape:connector-curvature="0"
           style="fill:#929397" /><path
           d="m 123,299.4 0,-4.3 2.9,0 0,0.7 -2.1,0 0,1 1.8,0 0,0.7 -1.8,0 0,1.8 -0.8,0 z"
           id="path214"
           inkscape:connector-curvature="0"
           style="fill:#929397" /><path
           d="m 126.7,299.4 0,-4.3 2.9,0 0,0.7 -2.1,0 0,1 1.8,0 0,0.7 -1.8,0 0,1.8 -0.8,0 z"
           id="path216"
           inkscape:connector-curvature="0"
           style="fill:#929397" /></g><g
         id="g218"><path
           d="m 85.4,301.8 -5.3,0 c -2.2,0 -4.1,-1.8 -4.1,-4.1 l 0,-1 c 0,-2.2 1.8,-4.1 4.1,-4.1 l 5.3,0 c 2.2,0 4.1,1.8 4.1,4.1 l 0,1 c -0.1,2.3 -1.9,4.1 -4.1,4.1 z m -5.3,-8.1 c -1.7,0 -3.1,1.4 -3.1,3.1 l 0,1 c 0,1.7 1.4,3.1 3.1,3.1 l 5.3,0 c 1.7,0 3.1,-1.4 3.1,-3.1 l 0,-1 c 0,-1.7 -1.4,-3.1 -3.1,-3.1 l -5.3,0 z"
           id="path220"
           inkscape:connector-curvature="0"
           style="fill:#929397" /></g><g
         id="g222"><path
           d="m 127.6,301.8 -7.6,0 c -2.2,0 -4.1,-1.8 -4.1,-4.1 l 0,-1 c 0,-2.2 1.8,-4.1 4.1,-4.1 l 7.6,0 c 2.2,0 4.1,1.8 4.1,4.1 l 0,1 c 0,2.3 -1.8,4.1 -4.1,4.1 z m -7.5,-8.1 c -1.7,0 -3.1,1.4 -3.1,3.1 l 0,1 c 0,1.7 1.4,3.1 3.1,3.1 l 7.6,0 c 1.7,0 3.1,-1.4 3.1,-3.1 l 0,-1 c 0,-1.7 -1.4,-3.1 -3.1,-3.1 l -7.6,0 z"
           id="path224"
           inkscape:connector-curvature="0"
           style="fill:#929397" /></g></g><g
       id="g226"><path
         d="m 364.5,309.1 0,-294.9 C 364.5,6.4 370,0 376.6,0 l 17,0 0,1.9 223.8,0 0,-1.9 17.9,0 c 6.6,0 12.1,6.4 12.1,14.2 l 0,202.8 c 0,69.3 -48.2,126 -107,126 l -118.2,0 c -18,0 -35.4,-9.5 -46.7,-22.1"
         id="path228"
         inkscape:connector-curvature="0"
         style="fill:#3f3f3f" /><path
         d="m 540.3,291 -118.7,0 c -9.5,0 -19,1.5 -28.1,4.4 l -29,13.7 0,-297.1 c 0,-6.6 5.4,-12 12.1,-12 l 17,0 0,1.9 223.8,0.4 0,-2.3 17.9,0 c 6.6,0 12.1,5.4 12.1,12 l 0,172.1 C 647.3,242.9 599.2,291 540.3,291 Z"
         id="path230"
         inkscape:connector-curvature="0"
         style="fill:#312f2f" /><g
         id="g232"><path
           d="m 526.4,277.4 -85.2,0 c -31.6,0 -57.4,-25.7 -57.4,-57.3 l 0,-153.5 c 0,-14.5 11.8,-26.3 26.3,-26.3 l 196.8,0 c 14.5,0 26.3,11.8 26.3,26.3 l 0,104.1 c 0,58.9 -47.9,106.7 -106.8,106.7 z M 410.1,41.3 c -14,0 -25.3,11.3 -25.3,25.3 l 0,153.5 c 0,31.1 25.3,56.3 56.4,56.3 l 85.2,0 c 58.3,0 105.8,-47.4 105.8,-105.7 l 0,-104.1 c 0,-13.9 -11.4,-25.3 -25.3,-25.3 l -196.8,0 z"
           id="path234"
           inkscape:connector-curvature="0"
           style="fill:#181515" /></g><rect
         x="384.29999"
         y="94.800003"
         width="248.39999"
         height="1.8"
         id="rect236"
         style="fill:#181515" /><g
         id="g238"><path
           d="m 520.5,162.1 c 0,0.1 0,0.2 0,0.2 0,0.2 0,0.3 -0.7,0.3 -0.7,0 -0.6,-0.1 -0.7,-0.3 0,-0.1 0,-0.5 0,-0.7 0,-0.2 0,-0.6 0,-0.7 0,-0.2 0,-0.3 0.7,-0.3 0.7,0 0.6,0.1 0.7,0.3 0,0 0,0.1 0,0.2 l 0.9,0 c 0,-0.2 0,-0.4 0,-0.5 -0.1,-0.5 0.1,-0.9 -1.5,-0.9 -1.7,0 -1.5,0.4 -1.5,0.9 0,0.1 0,0.5 0,0.9 0,0.4 0,0.7 0,0.9 0.1,0.5 -0.1,0.9 1.5,0.9 1.7,0 1.5,-0.4 1.5,-0.9 0,-0.1 0,-0.2 0,-0.4 l -0.9,0 0,0.1 z"
           id="path240"
           inkscape:connector-curvature="0"
           style="fill:#929397" /><polygon
           points="507.8,163.4 507.8,160.9 508.7,163.4 509.5,163.4 510.4,160.9 510.4,163.4 511.3,163.4 511.3,160 510,160 509.1,162.5 508.2,160 506.9,160 506.9,163.4 "
           id="polygon242"
           style="fill:#929397" /><polygon
           points="522.4,163.4 522.4,160.9 521.6,160.9 521.6,160 524.1,160 524.1,160.9 523.3,160.9 523.3,163.4 "
           id="polygon244"
           style="fill:#929397" /><polygon
           points="517.1,162.7 516,162.7 516.2,162.1 517,162.1 516.6,160.8 515.8,163.4 514.9,163.4 515.9,160 517.2,160 518.2,163.4 517.3,163.4 "
           id="polygon246"
           style="fill:#929397" /><path
           d="m 504.8,160.7 c 0.7,0 0.6,0.1 0.7,0.3 0,0.1 0,0.5 0,0.7 0,0.2 0,0.6 0,0.7 0,0.2 0,0.3 -0.7,0.3 -0.7,0 -0.6,-0.1 -0.7,-0.3 0,-0.1 0,-0.5 0,-0.7 0,-0.2 0,-0.6 0,-0.7 0.1,-0.2 0.1,-0.3 0.7,-0.3 l 0,-0.8 c -1.7,0 -1.5,0.4 -1.5,0.9 0,0.1 0,0.5 0,0.9 0,0.4 0,0.7 0,0.9 0.1,0.5 -0.1,0.9 1.5,0.9 1.7,0 1.5,-0.4 1.5,-0.9 0,-0.1 0,-0.5 0,-0.9 0,-0.4 0,-0.7 0,-0.9 -0.1,-0.5 0.1,-0.9 -1.5,-0.9 l 0,0.8 z"
           id="path248"
           inkscape:connector-curvature="0"
           style="fill:#929397" /><path
           d="m 501.9,162.1 c 0,0.1 0,0.2 0,0.2 0,0.2 0,0.3 -0.7,0.3 -0.7,0 -0.6,-0.1 -0.7,-0.3 0,-0.1 0,-0.5 0,-0.7 0,-0.2 0,-0.6 0,-0.7 0,-0.2 0,-0.3 0.7,-0.3 0.7,0 0.6,0.1 0.7,0.3 0,0 0,0.1 0,0.2 l 0.9,0 c 0,-0.2 0,-0.4 0,-0.5 -0.1,-0.5 0.1,-0.9 -1.5,-0.9 -1.7,0 -1.5,0.4 -1.5,0.9 0,0.1 0,0.5 0,0.9 0,0.4 0,0.7 0,0.9 0.1,0.5 -0.1,0.9 1.5,0.9 1.7,0 1.5,-0.4 1.5,-0.9 0,-0.1 0,-0.2 0,-0.4 l -0.9,0 z"
           id="path250"
           inkscape:connector-curvature="0"
           style="fill:#929397" /><path
           d="m 513.4,162.6 -0.5,0 0,-0.8 0.5,0 c 0.7,0 0.6,-0.1 0.7,-0.3 0,-0.1 0,0 0,-0.2 0,-0.2 0,-0.1 0,-0.2 0,-0.2 0,-0.3 -0.7,-0.3 l -0.5,0 0,2.6 -0.9,0 0,-3.4 1.4,0 c 1.7,0 1.5,0.4 1.5,0.9 0,0.1 0,0.3 0,0.4 0,0.1 0,0.4 0,0.4 0,0.5 0.1,0.9 -1.5,0.9 l 0,0 z"
           id="path252"
           inkscape:connector-curvature="0"
           style="fill:#929397" /><path
           d="m 496.5,176.2 -5.4,0 c -0.8,0 -1.4,-0.6 -1.4,-1.4 l 0,-8.3 c 0,-0.8 0.6,-1.4 1.4,-1.4 l 3.4,0 c 0.4,0 0.7,-0.3 0.7,-0.7 l 0,-3.3 c 0,-0.2 0.1,-0.3 0.3,-0.3 l 2,0 c 0.2,0 0.3,0.1 0.3,0.3 l 0,14.9 c 0,0.2 -0.1,0.3 -0.3,0.3 l -1,-0.1 0,0.7 1.4,0 c 0.4,0 0.7,-0.3 0.7,-0.7 l 0,-15.5 c 0,-0.4 -0.3,-0.7 -0.7,-0.7 l -2.6,0 c -0.4,0 -0.7,0.3 -0.7,0.7 l 0,3.3 c 0,0.2 -0.1,0.3 -0.3,0.3 l -3.1,0 c -1.2,0 -2.2,1 -2.2,2.2 l 0,8.3 c 0,1.2 1,2.2 2.2,2.2 l 5.4,0 -0.1,-0.8 0,0 z"
           id="path254"
           inkscape:connector-curvature="0"
           style="fill:#929397" /><path
           d="m 494.4,173.2 0,-5.4 c 0,-0.4 -0.4,-0.8 -0.8,-0.8 -0.4,0 -0.8,0.4 -0.8,0.8 l 0,5.8 c 0,0.4 0.4,0.8 0.8,0.8 0.4,0 0.8,-0.4 0.8,-0.8 l 0,-0.4 0.7,0 0,0.4 c 0,0.9 -0.7,1.6 -1.6,1.6 -0.9,0 -1.6,-0.7 -1.6,-1.6 l 0,-5.8 c 0,-0.9 0.7,-1.6 1.6,-1.6 0.9,0 1.6,0.7 1.6,1.6 l 0,5.4 -0.7,0 z"
           id="path256"
           inkscape:connector-curvature="0"
           style="fill:#929397" /><path
           d="m 501.6,176.2 -1,0 c -0.2,0 -0.3,-0.1 -0.3,-0.3 l 0,-10.5 c 0,-0.2 0.1,-0.3 0.3,-0.3 l 2,0 c 0.2,0 0.3,0.1 0.3,0.3 l 0,10.5 c 0,0.2 -0.1,0.3 -0.3,0.3 l -1,0 0,0.7 1.3,0 c 0.4,0 0.7,-0.3 0.7,-0.7 l 0,-11.1 c 0,-0.4 -0.3,-0.7 -0.7,-0.7 l -2.6,0 c -0.4,0 -0.7,0.3 -0.7,0.7 l 0,11.1 c 0,0.4 0.3,0.7 0.7,0.7 l 1.3,0 0,-0.7 0,0 z"
           id="path258"
           inkscape:connector-curvature="0"
           style="fill:#929397" /><path
           d="m 511.1,167.2 -2.2,0 c -0.7,0 -1.2,0.5 -1.2,1.2 0,0.7 0.5,1.2 1.2,1.2 l 3,0 c 0.8,0 1.4,0.6 1.4,1.4 l 0,3.7 c 0,0.8 -0.6,1.4 -1.4,1.4 l -6,0 c -0.2,0 -0.3,-0.1 -0.3,-0.3 l 0,-1.4 c 0,-0.2 0.1,-0.3 0.3,-0.3 l 4.1,0 c 0.7,0 1.2,-0.5 1.2,-1.2 0,-0.7 -0.5,-1.2 -1.2,-1.2 l -2.9,0 c -0.8,0 -1.4,-0.6 -1.4,-1.4 l 0,-3.7 c 0,-0.8 0.6,-1.4 1.4,-1.4 l 5.5,0 c 0.2,0 0.3,0.1 0.3,0.3 l 0,1.5 c 0,0.2 -0.1,0.3 -0.3,0.3 l -1.5,-0.1 0,0.7 1.8,0 c 0.4,0 0.7,-0.3 0.7,-0.7 l 0,-2.1 c 0,-0.4 -0.3,-0.7 -0.7,-0.7 l -5.8,0 c -1.2,0 -2.2,1 -2.2,2.2 l 0,3.7 c 0,1.2 1,2.2 2.2,2.2 l 2.9,0 c 0.3,0 0.5,0.2 0.5,0.5 0,0.3 -0.2,0.5 -0.5,0.5 l -4.4,0 c -0.4,0 -0.7,0.3 -0.7,0.7 l 0,2.1 c 0,0.4 0.3,0.7 0.7,0.7 l 6.3,0 c 1.2,0 2.2,-1 2.2,-2.2 l 0,-3.7 c 0,-1.2 -1,-2.2 -2.2,-2.2 l -3,0 c -0.3,0 -0.5,-0.2 -0.5,-0.5 0,-0.3 0.2,-0.5 0.5,-0.5 l 2.2,0 0,-0.7 z"
           id="path260"
           inkscape:connector-curvature="0"
           style="fill:#929397" /><path
           d="m 522.1,169.2 0.9,0 c 0.2,0 0.3,-0.1 0.3,-0.3 l 0,-2.4 c 0,-0.8 -0.6,-1.4 -1.4,-1.4 l -4.7,0 c -0.8,0 -1.4,0.6 -1.4,1.4 l 0,8.3 c 0,0.8 0.6,1.4 1.4,1.4 l 4.7,0 c 0.8,0 1.4,-0.6 1.4,-1.4 l 0,-2.3 c 0,-0.2 -0.1,-0.3 -0.3,-0.3 l -1.8,0 c -0.2,0 -0.3,0.1 -0.3,0.3 l 0,1.1 c 0,0.9 -0.5,1.6 -1.4,1.6 -0.9,0 -1.4,-0.7 -1.4,-1.6 l 0,-5.8 c 0,-0.9 0.5,-1.6 1.4,-1.6 0.9,0 1.4,0.7 1.4,1.6 l 0,1.1 c 0,0.2 0.1,0.3 0.3,0.3 l 0.9,0 0,0.7 -1.1,0 c -0.4,0 -0.7,-0.3 -0.7,-0.7 l 0,-1.4 c 0,-0.4 -0.2,-0.8 -0.7,-0.8 -0.5,0 -0.7,0.4 -0.7,0.8 l 0,5.8 c 0,0.4 0.2,0.8 0.7,0.8 0.5,0 0.7,-0.4 0.7,-0.8 l 0,-1.4 c 0,-0.4 0.3,-0.7 0.7,-0.7 l 2.4,0 c 0.4,0 0.7,0.3 0.7,0.7 l 0,2.6 c 0,1.2 -1,2.2 -2.2,2.2 l -4.7,0 c -1.2,0 -2.2,-1 -2.2,-2.2 l 0,-8.3 c 0,-1.2 1,-2.2 2.2,-2.2 l 4.7,0 c 1.2,0 2.2,1 2.2,2.2 l 0,2.7 c 0,0.4 -0.3,0.7 -0.7,0.7 l -1.3,0 0,-0.7 0,0 z"
           id="path262"
           inkscape:connector-curvature="0"
           style="fill:#929397" /></g><path
         d="m 543.1,186 c -34.3,32.7 -52.8,60.1 -39.9,73.7 13,13.6 54,9.2 88.3,-23.5 34.3,-32.7 42.3,-73.6 29.3,-87.1 -13,-13.5 -43.4,4.2 -77.7,36.9 z"
         id="path264"
         inkscape:connector-curvature="0"
         style="fill:#181515" /><path
         d="m 549.5,194.4 c -20.3,19.4 -29.9,42.4 -21.2,51.5 8.7,9.1 32.1,0.6 52.5,-18.7 20.3,-19.4 29.9,-42.4 21.2,-51.5 -8.7,-9.1 -32.1,-0.7 -52.5,18.7 z"
         id="path266"
         inkscape:connector-curvature="0"
         style="fill:#2c2929" /><circle
         cx="549.59998"
         cy="225.3"
         r="2.9000001"
         id="circle268"
         style="fill:#181515" /><circle
         cx="558.5"
         cy="216.2"
         r="2.9000001"
         id="circle270"
         style="fill:#181515" /><circle
         cx="567.40002"
         cy="207.10001"
         r="2.9000001"
         id="circle272"
         style="fill:#181515" /><circle
         cx="576.29999"
         cy="198.39999"
         r="2.9000001"
         id="circle274"
         style="fill:#181515" /><g
         id="g276"><path
           d="m 446.3,325 -1,0 -0.5,-1.9 -1.8,0 -0.5,1.9 -1,0 1.9,-6.7 0.9,0 2,6.7 z m -1.9,-3 -0.6,-2.1 -0.6,2.1 1.2,0 z"
           id="path278"
           inkscape:connector-curvature="0"
           style="fill:#241c1e" /><path
           d="m 450,320.6 c 0,-0.2 0,-0.4 -0.1,-0.5 -0.1,-0.2 -0.1,-0.3 -0.2,-0.4 -0.1,-0.1 -0.2,-0.2 -0.3,-0.3 -0.1,-0.1 -0.3,-0.1 -0.4,-0.1 -0.2,0 -0.4,0.1 -0.6,0.2 -0.2,0.1 -0.3,0.3 -0.4,0.4 -0.1,0.2 -0.2,0.4 -0.3,0.7 -0.1,0.3 -0.1,0.6 -0.1,1 0,0.4 0,0.7 0.1,1 0.1,0.3 0.2,0.5 0.3,0.7 0.1,0.2 0.3,0.3 0.4,0.5 0.2,0.1 0.4,0.2 0.6,0.2 0.2,0 0.3,0 0.4,-0.1 0.1,-0.1 0.2,-0.1 0.3,-0.3 0.1,-0.1 0.2,-0.3 0.2,-0.4 0.1,-0.2 0.1,-0.4 0.1,-0.6 l 0.9,0 c 0,0.4 -0.1,0.8 -0.2,1.1 -0.1,0.3 -0.3,0.6 -0.4,0.8 -0.2,0.2 -0.4,0.4 -0.6,0.5 -0.2,0.1 -0.5,0.2 -0.8,0.2 -0.4,0 -0.7,-0.1 -1,-0.2 -0.3,-0.2 -0.5,-0.4 -0.7,-0.7 -0.2,-0.3 -0.4,-0.7 -0.5,-1.1 -0.1,-0.4 -0.2,-0.9 -0.2,-1.4 0,-0.5 0.1,-1 0.2,-1.4 0.1,-0.4 0.3,-0.8 0.5,-1.1 0.2,-0.3 0.4,-0.5 0.7,-0.7 0.3,-0.2 0.6,-0.2 0.9,-0.2 0.3,0 0.5,0.1 0.7,0.2 0.2,0.1 0.4,0.3 0.6,0.5 0.2,0.2 0.3,0.5 0.4,0.8 0.1,0.3 0.2,0.6 0.2,1 l -0.7,0 z"
           id="path280"
           inkscape:connector-curvature="0"
           style="fill:#241c1e" /><path
           d="m 455.1,320.6 c 0,-0.2 0,-0.4 -0.1,-0.5 -0.1,-0.2 -0.1,-0.3 -0.2,-0.4 -0.1,-0.1 -0.2,-0.2 -0.3,-0.3 -0.1,-0.1 -0.3,-0.1 -0.4,-0.1 -0.2,0 -0.4,0.1 -0.6,0.2 -0.2,0.1 -0.3,0.3 -0.4,0.4 -0.1,0.2 -0.2,0.4 -0.3,0.7 -0.1,0.3 -0.1,0.6 -0.1,1 0,0.4 0,0.7 0.1,1 0.1,0.3 0.2,0.5 0.3,0.7 0.1,0.2 0.3,0.3 0.4,0.5 0.2,0.1 0.4,0.2 0.6,0.2 0.2,0 0.3,0 0.4,-0.1 0.1,-0.1 0.2,-0.1 0.3,-0.3 0.1,-0.1 0.2,-0.3 0.2,-0.4 0.1,-0.2 0.1,-0.4 0.1,-0.6 l 0.9,0 c 0,0.4 -0.1,0.8 -0.2,1.1 -0.1,0.3 -0.3,0.6 -0.4,0.8 -0.2,0.2 -0.4,0.4 -0.6,0.5 -0.2,0.1 -0.5,0.2 -0.8,0.2 -0.4,0 -0.7,-0.1 -1,-0.2 -0.3,-0.2 -0.5,-0.4 -0.7,-0.7 -0.2,-0.3 -0.4,-0.7 -0.5,-1.1 -0.1,-0.4 -0.2,-0.9 -0.2,-1.4 0,-0.5 0.1,-1 0.2,-1.4 0.1,-0.4 0.3,-0.8 0.5,-1.1 0.2,-0.3 0.4,-0.5 0.7,-0.7 0.3,-0.2 0.6,-0.2 0.9,-0.2 0.3,0 0.5,0.1 0.7,0.2 0.2,0.1 0.4,0.3 0.6,0.5 0.2,0.2 0.3,0.5 0.4,0.8 0.1,0.3 0.2,0.6 0.2,1 l -0.7,0 z"
           id="path282"
           inkscape:connector-curvature="0"
           style="fill:#241c1e" /><path
           d="m 460.7,325 -3.7,0 0,-6.7 3.6,0 0,1.2 -2.7,0 0,1.5 2.5,0 0,1.1 -2.5,0 0,1.7 2.8,0 0,1.2 z"
           id="path284"
           inkscape:connector-curvature="0"
           style="fill:#241c1e" /><path
           d="m 463.6,325.1 c -0.4,0 -0.7,-0.1 -0.9,-0.2 -0.3,-0.1 -0.5,-0.3 -0.7,-0.5 -0.2,-0.2 -0.3,-0.5 -0.4,-0.8 -0.1,-0.3 -0.1,-0.7 -0.2,-1 l 0.9,0 c 0,0.2 0.1,0.4 0.1,0.6 0.1,0.2 0.2,0.3 0.3,0.4 0.1,0.1 0.2,0.2 0.4,0.3 0.1,0.1 0.3,0.1 0.4,0.1 0.1,0 0.3,0 0.4,-0.1 0.1,0 0.2,-0.1 0.3,-0.2 0.1,-0.1 0.2,-0.2 0.2,-0.3 0,-0.1 0.1,-0.2 0.1,-0.4 0,-0.1 0,-0.3 -0.1,-0.4 0,-0.1 -0.1,-0.2 -0.2,-0.3 -0.1,-0.1 -0.2,-0.1 -0.4,-0.2 -0.2,-0.1 -0.4,-0.1 -0.6,-0.2 -0.3,-0.1 -0.5,-0.2 -0.7,-0.3 -0.2,-0.1 -0.4,-0.2 -0.5,-0.4 -0.1,-0.2 -0.2,-0.3 -0.3,-0.5 -0.1,-0.2 -0.1,-0.4 -0.1,-0.7 0,-0.3 0,-0.5 0.1,-0.8 0.1,-0.2 0.2,-0.4 0.4,-0.6 0.2,-0.2 0.3,-0.3 0.6,-0.4 0.2,-0.1 0.5,-0.1 0.7,-0.1 0.3,0 0.5,0.1 0.8,0.2 0.2,0.1 0.4,0.3 0.6,0.4 0.2,0.2 0.3,0.4 0.4,0.7 0.1,0.3 0.1,0.6 0.2,1 l -0.9,0 c -0.1,-0.8 -0.4,-1.1 -1,-1.1 -0.3,0 -0.5,0.1 -0.7,0.2 -0.2,0.1 -0.2,0.3 -0.2,0.6 0,0.1 0,0.2 0.1,0.3 0,0.1 0.1,0.1 0.2,0.2 0.1,0.1 0.2,0.1 0.3,0.2 0.1,0 0.3,0.1 0.4,0.1 0.1,0 0.3,0.1 0.5,0.1 0.2,0 0.3,0.1 0.5,0.2 0.1,0.1 0.3,0.2 0.4,0.3 0.1,0.1 0.2,0.2 0.3,0.4 0.1,0.2 0.2,0.3 0.2,0.5 0.1,0.2 0.1,0.4 0.1,0.7 0,0.3 0,0.6 -0.1,0.8 -0.1,0.3 -0.2,0.5 -0.4,0.7 -0.2,0.2 -0.4,0.3 -0.6,0.4 -0.4,0 -0.7,0.1 -0.9,0.1 z"
           id="path286"
           inkscape:connector-curvature="0"
           style="fill:#241c1e" /><path
           d="m 468.3,325.1 c -0.4,0 -0.7,-0.1 -0.9,-0.2 -0.3,-0.1 -0.5,-0.3 -0.7,-0.5 -0.2,-0.2 -0.3,-0.5 -0.4,-0.8 -0.1,-0.3 -0.1,-0.7 -0.2,-1 l 0.9,0 c 0,0.2 0.1,0.4 0.1,0.6 0.1,0.2 0.2,0.3 0.3,0.4 0.1,0.1 0.2,0.2 0.4,0.3 0.1,0.1 0.3,0.1 0.4,0.1 0.1,0 0.3,0 0.4,-0.1 0.1,0 0.2,-0.1 0.3,-0.2 0.1,-0.1 0.2,-0.2 0.2,-0.3 0,-0.1 0.1,-0.2 0.1,-0.4 0,-0.1 0,-0.3 -0.1,-0.4 0,-0.1 -0.1,-0.2 -0.2,-0.3 -0.1,-0.1 -0.2,-0.1 -0.4,-0.2 -0.2,-0.1 -0.4,-0.1 -0.6,-0.2 -0.3,-0.1 -0.5,-0.2 -0.7,-0.3 -0.2,-0.1 -0.4,-0.2 -0.5,-0.4 -0.1,-0.2 -0.2,-0.3 -0.3,-0.5 -0.1,-0.2 -0.1,-0.4 -0.1,-0.7 0,-0.3 0,-0.5 0.1,-0.8 0.1,-0.2 0.2,-0.4 0.4,-0.6 0.2,-0.2 0.3,-0.3 0.6,-0.4 0.2,-0.1 0.5,-0.1 0.7,-0.1 0.3,0 0.5,0.1 0.8,0.2 0.2,0.1 0.4,0.3 0.6,0.4 0.2,0.2 0.3,0.4 0.4,0.7 0.1,0.3 0.1,0.6 0.2,1 l -0.9,0 c -0.1,-0.8 -0.4,-1.1 -1,-1.1 -0.3,0 -0.5,0.1 -0.7,0.2 -0.2,0.1 -0.2,0.3 -0.2,0.6 0,0.1 0,0.2 0.1,0.3 0,0.1 0.1,0.1 0.2,0.2 0.1,0.1 0.2,0.1 0.3,0.2 0.1,0 0.3,0.1 0.4,0.1 0.1,0 0.3,0.1 0.5,0.1 0.2,0 0.3,0.1 0.5,0.2 0.1,0.1 0.3,0.2 0.4,0.3 0.1,0.1 0.2,0.2 0.3,0.4 0.1,0.1 0.2,0.3 0.2,0.5 0.1,0.2 0.1,0.4 0.1,0.7 0,0.3 0,0.6 -0.1,0.8 -0.1,0.2 -0.2,0.5 -0.4,0.7 -0.2,0.2 -0.4,0.3 -0.6,0.4 -0.4,0 -0.6,0.1 -0.9,0.1 z"
           id="path288"
           inkscape:connector-curvature="0"
           style="fill:#241c1e" /></g><path
         id="voyant_2_"
         d="m 422.7,323 0,-3.2 c 0,-0.3 0.3,-0.6 0.6,-0.6 l 12.2,0 c 0.3,0 0.6,0.3 0.6,0.6 l 0,3.2 c 0,0.3 -0.3,0.6 -0.6,0.6 l -12.2,0 c -0.3,0 -0.6,-0.2 -0.6,-0.6 z"
         inkscape:connector-curvature="0"
         style="fill:#631418" /><path
         id="voyant_1_"
         d="m 424,322.2 0,-1.6 c 0,-0.3 0.3,-0.6 0.6,-0.6 l 9.7,0 c 0.3,0 0.6,0.3 0.6,0.6 l 0,1.6 c 0,0.3 -0.3,0.6 -0.6,0.6 l -9.7,0 c -0.3,0 -0.6,-0.2 -0.6,-0.6 z"
         inkscape:connector-curvature="0"
         style="fill:#f95d5d" /><path
         d="m 620.1,270.6 0,0 c -2.9,-2.9 -2.9,-7.7 0,-10.6 l 9.2,-8.9 c 2.9,-2.9 5.2,-0.7 8.1,2.2 l 0,0 c 2.9,2.9 2,7 0,10.6 l -6.5,12 c -3,2.9 -7.9,-2.4 -10.8,-5.3 z"
         id="path292"
         inkscape:connector-curvature="0"
         style="fill:#181515" /><path
         d="m 614.4,286.7 c 0.5,-0.5 0.7,-1.1 0.4,-1.4 l -7.3,-7.2 1.6,-1.6 8,8 0,0 c 0.7,0.7 0.1,2.4 -1.2,3.8 l 2.3,2.3 -5.9,-0.1 -0.1,-5.9 2.2,2.1"
         id="path294"
         inkscape:connector-curvature="0"
         style="fill:#241c1e" /><g
         id="g296"><path
           d="m 617.5,274.1 c 0.2,0.2 0.4,0.5 0.4,0.7 0.1,0.3 0.1,0.6 0,0.9 -0.1,0.3 -0.2,0.6 -0.4,1 -0.2,0.3 -0.5,0.7 -0.8,1 -0.3,0.3 -0.6,0.6 -1,0.8 -0.3,0.2 -0.7,0.3 -1,0.4 -0.3,0.1 -0.6,0.1 -0.9,0 -0.3,-0.1 -0.5,-0.2 -0.8,-0.4 -0.2,-0.2 -0.4,-0.5 -0.4,-0.8 0,-0.3 -0.1,-0.6 0,-0.9 0.1,-0.3 0.2,-0.6 0.4,-1 0.2,-0.3 0.5,-0.7 0.8,-1 0.3,-0.3 0.7,-0.6 1,-0.8 0.3,-0.2 0.7,-0.3 1,-0.4 0.3,-0.1 0.6,0 0.9,0 0.3,0.2 0.6,0.3 0.8,0.5 z m -3.7,3.7 c 0.1,0.1 0.3,0.2 0.5,0.3 0.2,0.1 0.4,0 0.6,0 0.2,0 0.4,-0.1 0.6,-0.3 0.2,-0.2 0.5,-0.3 0.7,-0.6 0.2,-0.2 0.4,-0.5 0.6,-0.7 0.1,-0.2 0.2,-0.4 0.3,-0.6 0,-0.2 0,-0.4 0,-0.6 0,-0.2 -0.1,-0.3 -0.3,-0.5 -0.1,-0.1 -0.3,-0.2 -0.5,-0.3 -0.2,0 -0.4,0 -0.6,0 -0.2,0 -0.4,0.1 -0.6,0.3 -0.2,0.1 -0.5,0.3 -0.7,0.5 -0.2,0.2 -0.4,0.5 -0.6,0.7 -0.2,0.2 -0.2,0.4 -0.3,0.6 0,0.2 -0.1,0.4 0,0.6 0.1,0.3 0.2,0.4 0.3,0.6 z"
           id="path298"
           inkscape:connector-curvature="0"
           style="fill:#241c1e" /><path
           d="m 619.5,276.3 1.2,1.2 c 0.1,0.1 0.2,0.2 0.3,0.3 0.1,0.1 0.2,0.2 0.2,0.4 0,0.1 0.1,0.3 0.1,0.4 0,0.1 0,0.3 0,0.4 0,0.2 -0.1,0.3 -0.2,0.5 -0.1,0.2 -0.2,0.3 -0.4,0.5 -0.4,0.4 -0.9,0.7 -1.3,0.7 -0.4,0 -0.8,-0.2 -1.2,-0.5 l -0.6,-0.6 -1.6,1.6 -0.6,-0.6 4.1,-4.3 z m -1.3,2.5 0.6,0.6 c 0.1,0.1 0.2,0.2 0.3,0.2 0.1,0 0.2,0.1 0.3,0.1 0.1,0 0.2,0 0.3,-0.1 0.1,-0.1 0.2,-0.1 0.3,-0.2 0.1,-0.1 0.2,-0.2 0.2,-0.3 0,-0.1 0.1,-0.2 0,-0.3 -0.1,-0.1 0,-0.2 -0.1,-0.3 -0.1,-0.1 -0.1,-0.2 -0.2,-0.2 l -0.6,-0.6 -1.1,1.1 z"
           id="path300"
           inkscape:connector-curvature="0"
           style="fill:#241c1e" /><path
           d="m 620.6,285.8 -2.3,-2.3 4.2,-4.2 2.3,2.3 -0.7,0.7 -1.7,-1.7 -0.9,0.9 1.6,1.6 -0.7,0.7 -1.6,-1.6 -1.1,1.1 1.8,1.8 -0.9,0.7 z"
           id="path302"
           inkscape:connector-curvature="0"
           style="fill:#241c1e" /><path
           d="m 623.6,288.8 -0.5,-0.5 1.4,-4.2 -2.8,2.8 -0.6,-0.6 4.2,-4.2 0.5,0.5 -1.5,4.2 2.8,-2.8 0.6,0.6 -4.1,4.2 z"
           id="path304"
           inkscape:connector-curvature="0"
           style="fill:#241c1e" /></g><path
         d="m 638.2,254.1 -1.3,-1.4 c -0.6,-0.5 -1.2,-0.9 -2,-0.9 -1,0 -1.9,0.4 -2.4,1.1 l -11.9,15.3 c -0.8,1 -0.6,2.4 0.4,3.2 l 2.3,2.2 c 1,0.8 2.5,0.2 3.3,-0.7 l 11.9,-15.3 c 0.8,-1 0.4,-2.5 -0.3,-3.5 z"
         id="path306"
         inkscape:connector-curvature="0"
         style="fill:#6177b3" /><g
         id="g308"><path
           id="XMLID_74_"
           d="m 617.3,1.9 0,12 c 0,0 -0.1,1.5 -1.6,1.5 -1.6,0 -110.3,0 -110.3,0 0,0 -108.7,0 -110.3,0 -1.6,0 -1.6,-1.5 -1.6,-1.5 l 0,-12 L 505.4,2 617.3,1.9 Z"
           inkscape:connector-curvature="0"
           style="fill:#444546" /><g
           id="XMLID_1_"><rect
             id="XMLID_73_"
             x="394.70001"
             y="0"
             width="2.7"
             height="13.7"
             style="fill:#282424" /><rect
             id="XMLID_72_"
             x="398.79999"
             y="0"
             width="2.7"
             height="13.7"
             style="fill:#282424" /><rect
             id="XMLID_71_"
             x="402.89999"
             y="0"
             width="2.7"
             height="13.7"
             style="fill:#282424" /><rect
             id="XMLID_70_"
             x="406.89999"
             y="0"
             width="2.7"
             height="13.7"
             style="fill:#282424" /><rect
             id="XMLID_69_"
             x="410.79999"
             y="0"
             width="2.7"
             height="13.7"
             style="fill:#282424" /><rect
             id="XMLID_68_"
             x="414.89999"
             y="0"
             width="2.7"
             height="13.7"
             style="fill:#282424" /><rect
             id="XMLID_67_"
             x="418.89999"
             y="0"
             width="2.7"
             height="13.7"
             style="fill:#282424" /><rect
             id="XMLID_66_"
             x="423"
             y="0"
             width="2.7"
             height="13.7"
             style="fill:#282424" /><rect
             id="XMLID_65_"
             x="427.10001"
             y="0"
             width="2.7"
             height="13.7"
             style="fill:#282424" /><rect
             id="XMLID_64_"
             x="431.10001"
             y="0"
             width="2.7"
             height="13.7"
             style="fill:#282424" /><rect
             id="XMLID_63_"
             x="435.20001"
             y="0"
             width="2.7"
             height="13.7"
             style="fill:#282424" /><rect
             id="XMLID_62_"
             x="439.20001"
             y="0"
             width="2.7"
             height="13.7"
             style="fill:#282424" /><rect
             id="XMLID_61_"
             x="443.20001"
             y="0"
             width="2.7"
             height="13.7"
             style="fill:#282424" /><rect
             id="XMLID_60_"
             x="447.20001"
             y="0"
             width="2.7"
             height="13.7"
             style="fill:#282424" /><rect
             id="XMLID_59_"
             x="451.29999"
             y="0"
             width="2.7"
             height="13.7"
             style="fill:#282424" /><rect
             id="XMLID_58_"
             x="455.29999"
             y="0"
             width="2.7"
             height="13.7"
             style="fill:#282424" /><rect
             id="XMLID_57_"
             x="459.39999"
             y="0"
             width="2.7"
             height="13.7"
             style="fill:#282424" /><rect
             id="XMLID_56_"
             x="463.39999"
             y="0"
             width="2.7"
             height="13.7"
             style="fill:#282424" /><rect
             id="XMLID_55_"
             x="467.5"
             y="0"
             width="2.7"
             height="13.7"
             style="fill:#282424" /><rect
             id="XMLID_54_"
             x="471.5"
             y="0"
             width="2.7"
             height="13.7"
             style="fill:#282424" /><rect
             id="XMLID_53_"
             x="475.5"
             y="0"
             width="2.7"
             height="13.7"
             style="fill:#282424" /><rect
             id="XMLID_52_"
             x="479.5"
             y="0"
             width="2.7"
             height="13.7"
             style="fill:#282424" /><rect
             id="XMLID_51_"
             x="483.60001"
             y="0"
             width="2.7"
             height="13.7"
             style="fill:#282424" /><rect
             id="XMLID_50_"
             x="487.60001"
             y="0"
             width="2.7"
             height="13.7"
             style="fill:#282424" /><rect
             id="XMLID_49_"
             x="491.70001"
             y="0"
             width="2.7"
             height="13.7"
             style="fill:#282424" /><rect
             id="XMLID_48_"
             x="495.70001"
             y="0"
             width="2.7"
             height="13.7"
             style="fill:#282424" /><rect
             id="XMLID_47_"
             x="499.79999"
             y="0"
             width="2.7"
             height="13.7"
             style="fill:#282424" /><rect
             id="XMLID_46_"
             x="503.89999"
             y="0"
             width="2.7"
             height="13.7"
             style="fill:#282424" /><rect
             id="XMLID_45_"
             x="507.79999"
             y="0"
             width="2.7"
             height="13.7"
             style="fill:#282424" /><rect
             id="XMLID_44_"
             x="511.79999"
             y="0"
             width="2.7"
             height="13.7"
             style="fill:#282424" /><rect
             id="XMLID_43_"
             x="515.90002"
             y="0"
             width="2.7"
             height="13.7"
             style="fill:#282424" /><rect
             id="XMLID_42_"
             x="519.90002"
             y="0"
             width="2.7"
             height="13.7"
             style="fill:#282424" /><rect
             id="XMLID_41_"
             x="524.20001"
             y="0"
             width="2.7"
             height="13.7"
             style="fill:#282424" /><rect
             id="XMLID_40_"
             x="528.29999"
             y="0"
             width="2.7"
             height="13.7"
             style="fill:#282424" /><rect
             id="XMLID_39_"
             x="532.40002"
             y="0"
             width="2.7"
             height="13.7"
             style="fill:#282424" /><rect
             id="XMLID_38_"
             x="536.29999"
             y="0"
             width="2.7"
             height="13.7"
             style="fill:#282424" /><rect
             id="XMLID_37_"
             x="540.29999"
             y="0"
             width="2.7"
             height="13.7"
             style="fill:#282424" /><rect
             id="XMLID_36_"
             x="544.40002"
             y="0"
             width="2.7"
             height="13.7"
             style="fill:#282424" /><rect
             id="XMLID_35_"
             x="548.40002"
             y="0"
             width="2.7"
             height="13.7"
             style="fill:#282424" /><rect
             id="XMLID_34_"
             x="552.5"
             y="0"
             width="2.7"
             height="13.7"
             style="fill:#282424" /><rect
             id="XMLID_33_"
             x="556.59998"
             y="0"
             width="2.7"
             height="13.7"
             style="fill:#282424" /><rect
             id="XMLID_32_"
             x="560.59998"
             y="0"
             width="2.7"
             height="13.7"
             style="fill:#282424" /><rect
             id="XMLID_31_"
             x="564.70001"
             y="0"
             width="2.7"
             height="13.7"
             style="fill:#282424" /><rect
             id="XMLID_30_"
             x="568.59998"
             y="0"
             width="2.7"
             height="13.7"
             style="fill:#282424" /><rect
             id="XMLID_29_"
             x="572.59998"
             y="0"
             width="2.7"
             height="13.7"
             style="fill:#282424" /><rect
             id="XMLID_28_"
             x="576.70001"
             y="0"
             width="2.7"
             height="13.7"
             style="fill:#282424" /><rect
             id="XMLID_27_"
             x="580.79999"
             y="0"
             width="2.7"
             height="13.7"
             style="fill:#282424" /><rect
             id="XMLID_26_"
             x="585.20001"
             y="0"
             width="2.7"
             height="13.7"
             style="fill:#282424" /><rect
             id="XMLID_25_"
             x="589.29999"
             y="0"
             width="2.7"
             height="13.7"
             style="fill:#282424" /><rect
             id="XMLID_24_"
             x="593.29999"
             y="0"
             width="2.7"
             height="13.7"
             style="fill:#282424" /><rect
             id="XMLID_23_"
             x="597.29999"
             y="0"
             width="2.7"
             height="13.7"
             style="fill:#282424" /><rect
             id="XMLID_22_"
             x="601.29999"
             y="0"
             width="2.7"
             height="13.7"
             style="fill:#282424" /><rect
             id="XMLID_21_"
             x="605.40002"
             y="0"
             width="2.7"
             height="13.7"
             style="fill:#282424" /><rect
             id="XMLID_20_"
             x="609.40002"
             y="0"
             width="2.7"
             height="13.7"
             style="fill:#282424" /><rect
             id="XMLID_19_"
             x="613.5"
             y="0"
             width="2.7"
             height="13.7"
             style="fill:#282424" /></g></g><g
         id="g367"><g
           id="g369"><path
             id="text8337_3_"
             inkscape:connector-curvature="0"
             d="m 397.3,172.2 4.3,-6.5 c 0.2,-0.4 0.4,-0.6 0.6,-0.6 l 3.1,0 0,0.9 0.2,-0.3 c 0.2,-0.4 0.4,-0.6 0.6,-0.6 l 3.7,0 0,7 -2.5,0 0,-5.5 -3.7,5.5 -2.5,0 3.7,-5.5 -1.2,0 c -0.1,0 -0.3,0.1 -0.4,0.2 l -3.5,5.4 -2.4,0 0,0 z m 15.8,-2.8 0,1.3 5.7,0 0,1.5 -8.2,0 0,-4.6 c 0,-0.1 0,-0.2 0.1,-0.4 l 1.1,-1.8 c 0.1,-0.1 0.2,-0.2 0.4,-0.2 l 6.5,0 0,1.5 -4.9,0 c -0.1,0 -0.2,0.1 -0.3,0.2 l -0.5,1.1 5.7,0 -0.8,1.5 -4.8,0 z m 8.9,1.3 4.1,0 0,-1.3 -1.6,0 0.8,-1.5 3.3,0 0,3.9 c 0,0.2 -0.1,0.4 -0.4,0.4 l -8.2,0 c -0.3,0 -0.4,-0.1 -0.4,-0.4 l 0,-4.2 c 0,-0.1 0,-0.2 0.1,-0.4 l 1.1,-1.8 c 0.1,-0.1 0.2,-0.2 0.4,-0.2 l 6.9,0 0,1.5 -5.3,0 c -0.1,0 -0.2,0.1 -0.3,0.2 l -0.5,1.1 0,2.7 z m 17.6,1.5 -2.9,0 -1.1,-1.5 -3,0 -0.8,-1.3 0,2.8 -2.5,0 0,-7 4.7,0 c 0.2,0 0.4,0.2 0.6,0.6 l 5,6.4 z m -5.1,-3 -1.8,-2.4 c -0.1,-0.1 -0.3,-0.2 -0.4,-0.2 l -0.4,0 0,2.6 2.6,0 0,0 z"
             style="fill:#929397" /><polygon
             points="444.9,168.7 446.4,166.4 452.1,166.4 452.1,165.2 444.8,165.2 442.6,168.7 444.8,172.2 452.1,172.2 452.1,171 446.4,171 "
             id="polygon372"
             style="fill:#929397" /><rect
             x="439.29999"
             y="167.89999"
             width="2"
             height="1.7"
             id="rect374"
             style="fill:#929397" /><path
             d="m 462.7,168.7 -2.4,3.7 -6.9,0 0,-7.2 6.9,0 2.4,3.5 z m -2.4,0 -1.6,-2.3 -3.2,0 0,4.9 3.2,0 1.6,-2.6 z"
             id="path376"
             inkscape:connector-curvature="0"
             style="fill:#929397" /></g><g
           id="g378"><path
             d="m 453.1,163.3 -10.2,0 c 2.2,-1.2 5.4,-2.9 6.8,-4.7 2.7,-3.4 -1.7,-5.8 -5.3,-4.6 -5,1.7 -7.1,4.1 -10,6.6 l -5.9,0 c 4.2,-8.1 9.5,-12.4 17.5,-14.6 8.6,-2.3 12.6,3.3 11,9.9 -0.8,3.5 -1.2,4.1 -3.9,7.4 z"
             id="path380"
             inkscape:connector-curvature="0"
             style="fill:#929397" /><path
             d="m 439.6,176.4 c 0,-0.3 0.2,-0.6 0.4,-1 0.2,-0.5 0.6,-0.8 0.7,-1 l -10.2,0 c -0.8,1.4 -1.5,2.1 -2,4.7 -0.5,2.8 1.1,4.1 2,4.1 l 24.5,0 3.6,-6.9 -19,0 z"
             id="path382"
             inkscape:connector-curvature="0"
             style="fill:#929397" /></g></g><g
         id="SEGA_4_"><path
           id="XMLID_332_"
           d="m 620.7,116.5 c -2.1,0 -4.1,0 -6.3,0 0,-0.5 0,-0.9 0,-1.5 1.4,0 2.7,0 4.3,0 -0.3,-0.9 -0.6,-1.7 -0.8,-2.5 -0.6,-1.9 -1.2,-3.9 -1.9,-5.8 -0.2,-0.5 -0.6,-1 -1,-1.1 -0.7,-0.2 -0.9,0.6 -1.1,1.1 -1,3 -1.9,5.9 -2.9,8.9 -0.2,0.7 -0.5,0.9 -1.2,0.9 -1.9,-0.1 -3.9,0 -5.8,0 -2,0 -3.2,-1.3 -3.3,-3.3 0,-1.8 0,-3.6 0,-5.5 0,-2.1 1.3,-3.3 3.3,-3.3 1.7,0 3.5,0 5.3,0 0,0.5 0,1 0,1.5 -1.5,0 -3,0 -4.5,0 -2.1,0 -2.6,0.5 -2.6,2.7 0,1.4 0,2.8 0,4.1 0,1.5 0.7,2.2 2.1,2.2 1.1,0 2.2,0 3.4,0 0,-1.6 0,-3.2 0,-4.8 -1,0 -1.9,0 -2.9,0 0,-0.6 0,-1 0,-1.5 1.5,0 2.9,0 4.5,0 0,2.1 0,4.2 0,6.3 0.1,0 0.2,0 0.2,0 0.9,-2.9 1.9,-5.8 2.8,-8.7 0.5,-1.7 1.5,-2.3 3.1,-2.1 0.9,0.1 1.5,0.7 1.8,1.5 1.2,3.5 2.3,7 3.4,10.5 0.2,0.3 0.1,0.3 0.1,0.4 z"
           inkscape:connector-curvature="0"
           style="fill:#929397" /><path
           id="XMLID_331_"
           d="m 581.3,116.6 c 0,-0.5 0,-1 0,-1.5 1.7,0 3.3,0 5,0 1.4,0 2.4,-1 2.5,-2.3 0,-1.3 -1,-2.4 -2.3,-2.5 -0.5,0 -1.1,0 -1.7,0 -0.8,-0.1 -1.5,-0.9 -1.5,-1.8 0,-0.9 0.6,-1.8 1.5,-1.8 1.8,-0.1 3.6,0 5.4,0 0,0.5 0,1 0,1.5 -0.9,0 -1.8,0 -2.7,0 -0.9,0 -1.7,0 -2.6,0 0,0.2 0,0.3 0,0.5 0.5,0 1,0.1 1.5,0.1 1.9,0 3.3,1.2 3.7,3 0.6,2.3 -1.1,4.7 -3.3,4.8 -1.8,0 -3.6,0 -5.5,0 z"
           inkscape:connector-curvature="0"
           style="fill:#929397" /><path
           id="XMLID_330_"
           d="m 581.3,114.4 c 0,-0.5 0,-1 0,-1.6 1.8,0 3.5,0 5.3,0 0,-0.1 0,-0.3 0,-0.4 -0.5,0 -1.1,-0.1 -1.6,-0.1 -1.5,0 -2.6,-0.8 -3.3,-2.2 -0.7,-1.4 -0.6,-2.9 0.3,-4.2 0.6,-0.9 1.5,-1.5 2.5,-1.5 1.9,-0.1 3.7,0 5.7,0 0,0.5 0,0.9 0,1.5 -1.7,0 -3.4,0 -5,0 -1.7,0 -2.7,1.6 -2.2,3.2 0.3,0.9 1.2,1.6 2.3,1.6 0.5,0 1,0 1.6,0 0.8,0.1 1.5,0.9 1.5,1.8 0,0.9 -0.6,1.8 -1.4,1.8 -2,0.2 -3.8,0.1 -5.7,0.1 z"
           inkscape:connector-curvature="0"
           style="fill:#929397" /><path
           id="XMLID_329_"
           d="m 600,104.5 c 0,0.5 0,0.9 0,1.5 -1.7,0 -3.3,0 -4.9,0 -1.7,0 -2.3,0.6 -2.3,2.4 0,1.4 0,2.9 0,4.3 0,1.7 0.7,2.3 2.2,2.3 1.6,0 3.3,0 5,0 0,0.5 0,0.9 0,1.5 -1.2,0 -2.4,0 -3.6,0 -0.8,0 -1.5,0 -2.3,0 -1.4,-0.1 -2.7,-1.4 -2.7,-2.9 -0.1,-2.1 0,-4.2 0,-6.3 0,-1.4 1.2,-2.7 2.5,-2.8 1.9,-0.1 3.9,0 6.1,0 z"
           inkscape:connector-curvature="0"
           style="fill:#929397" /><path
           id="XMLID_324_"
           d="m 611.3,116.5 c 1.1,-3.3 2.1,-6.5 3.2,-9.7 0.1,-0.2 0.3,-0.5 0.5,-0.5 0.1,0 0.4,0.2 0.5,0.4 0.9,2.6 1.7,5.2 2.6,7.8 -1.3,0 -2.4,0 -3.6,0 0,-0.4 -0.1,-0.7 -0.1,-1.1 -0.1,0 -0.1,0 -0.2,-0.1 -0.2,0.6 -0.4,1.2 -0.6,1.8 -0.6,1.6 -0.6,1.6 -2.3,1.4 z m 3,-3.8 c 0.5,0 0.8,0 1.3,0 -0.2,-0.6 -0.4,-1.1 -0.5,-1.6 -0.1,0 -0.1,0 -0.2,0 -0.2,0.5 -0.4,1 -0.6,1.6 z"
           inkscape:connector-curvature="0"
           style="fill:#929397" /><path
           id="XMLID_323_"
           d="m 605.9,112.5 c -0.5,-0.1 -0.7,-0.2 -1.1,-0.3 0,-0.4 0,-0.9 0,-1.4 0.8,0 1.5,0 2.3,0 0,1.2 0,2.3 0,3.6 -1.2,0 -2.4,0.1 -3.6,0 -0.3,0 -0.8,-0.6 -0.8,-1 -0.1,-1.9 -0.1,-3.8 0,-5.8 0,-0.7 0.4,-1.1 1.1,-1.1 1.8,0 3.5,0 5.4,0 0,0.5 0,1 0,1.5 -1.3,0 -2.6,0 -4,0 -0.8,0 -1.1,0.3 -1.1,1.1 0.1,0.9 0,1.8 0,2.7 0.2,1.2 0.7,1.4 1.8,0.7 z"
           inkscape:connector-curvature="0"
           style="fill:#929397" /><path
           id="XMLID_321_"
           d="m 594.8,112.8 c 1.6,0.3 3.4,0 5.1,0.2 0,0.5 0,0.9 0,1.5 -2,0 -3.9,0 -5.8,0 -0.3,0 -0.8,-0.6 -0.8,-1 -0.1,-0.8 0,-1.6 0,-2.5 1.8,0 3.6,0 5.4,0 0,0.5 0,0.9 0,1.4 -1.3,0 -2.5,0 -3.8,0 0,0.1 0,0.2 -0.1,0.4 z"
           inkscape:connector-curvature="0"
           style="fill:#929397" /><path
           id="XMLID_318_"
           d="m 600,106.6 c 0,0.5 0,1 0,1.4 -1.7,0.2 -3.4,-0.2 -5.1,0.2 0,0.1 0,0.3 0,0.4 1.3,0 2.5,0 3.8,0 0,0.6 0,1 0,1.5 -1.8,0 -3.5,0 -5.4,0 0,-0.9 -0.1,-1.8 0,-2.7 0,-0.3 0.5,-0.8 0.8,-0.8 2,0 3.9,0 5.9,0 z"
           inkscape:connector-curvature="0"
           style="fill:#929397" /></g><circle
         id="XMLID_335_"
         cx="602.5"
         cy="69.099998"
         r="6.8000002"
         style="fill:#181515" /><circle
         id="XMLID_334_"
         cx="407.79999"
         cy="69.099998"
         r="6.8000002"
         style="fill:#181515" /><g
         id="g395"><path
           d="m 451.1,66.4 c -0.1,-0.5 -0.2,-0.9 -0.5,-1.2 -0.3,-0.4 -0.7,-0.7 -1.2,-0.9 -0.5,-0.3 -1.1,-0.5 -1.8,-0.6 -0.7,-0.1 -1.4,-0.2 -2.2,-0.2 -1.1,0 -2.1,0.1 -2.9,0.3 -0.9,0.2 -1.6,0.6 -2.2,1 -0.6,0.5 -1.1,1 -1.4,1.7 -0.3,0.7 -0.5,1.4 -0.5,2.3 0,0.9 0.2,1.6 0.5,2.3 0.3,0.7 0.8,1.2 1.4,1.7 0.6,0.5 1.3,0.8 2.2,1 0.9,0.2 1.8,0.4 2.9,0.4 0.8,0 1.5,-0.1 2.2,-0.2 0.7,-0.1 1.3,-0.3 1.8,-0.6 0.5,-0.3 0.9,-0.6 1.2,-1 0.3,-0.4 0.5,-0.9 0.6,-1.4 l 4.8,0 c -0.1,0.9 -0.5,1.7 -1.1,2.4 -0.6,0.7 -1.3,1.3 -2.2,1.8 -0.9,0.5 -2,0.9 -3.2,1.1 -1.2,0.3 -2.5,0.4 -4,0.4 -1.8,0 -3.5,-0.2 -4.9,-0.6 -1.5,-0.4 -2.7,-0.9 -3.7,-1.6 -1,-0.7 -1.8,-1.5 -2.4,-2.5 -0.6,-1 -0.8,-2.1 -0.8,-3.3 0,-1.2 0.3,-2.3 0.8,-3.3 0.6,-1 1.4,-1.8 2.4,-2.5 1,-0.7 2.3,-1.2 3.7,-1.6 1.5,-0.4 3.1,-0.6 4.9,-0.6 1.4,0 2.6,0.1 3.9,0.4 1.3,0.3 2.3,0.6 3.2,1.1 0.9,0.5 1.7,1.1 2.3,1.8 0.6,0.7 1,1.4 1.1,2.3 l -4.9,0 z"
           id="path397"
           inkscape:connector-curvature="0"
           style="fill:#181515" /><path
           d="m 482,68.8 c 0,5.2 -4.3,7.8 -12.9,7.8 l -8.3,0 0,-15.5 8.3,0 c 8.6,0 12.9,2.6 12.9,7.7 z m -4.8,0 c 0,-0.8 -0.1,-1.5 -0.4,-2.1 -0.3,-0.6 -0.7,-1.1 -1.3,-1.6 -0.6,-0.5 -1.5,-0.8 -2.5,-1 -1,-0.2 -2.4,-0.3 -3.9,-0.3 l -3.6,0 0,10.1 3.6,0 c 1.6,0 2.9,-0.1 3.9,-0.3 1,-0.2 1.9,-0.6 2.5,-1 0.6,-0.4 1.1,-1 1.3,-1.6 0.3,-0.7 0.4,-1.4 0.4,-2.2 z"
           id="path399"
           inkscape:connector-curvature="0"
           style="fill:#181515" /><path
           d="m 495,72.3 -10.2,0 0,-2.7 10.2,0 0,2.7 z"
           id="path401"
           inkscape:connector-curvature="0"
           style="fill:#181515" /><path
           d="m 520.4,76.5 -5.1,0 -2.4,-4.2 c -0.2,-0.3 -0.4,-0.6 -0.7,-0.8 -0.3,-0.2 -0.6,-0.5 -1,-0.6 -0.4,-0.2 -0.8,-0.3 -1.3,-0.4 -0.5,-0.1 -1,-0.2 -1.5,-0.2 l -5,0 0,6.2 -4.7,0 0,-15.4 11.3,0 c 0.7,0 1.3,0 1.9,0 0.6,0 1.2,0.1 1.8,0.1 0.6,0.1 1.1,0.2 1.6,0.3 0.5,0.1 1,0.3 1.5,0.6 0.4,0.2 0.8,0.5 1.1,0.7 0.3,0.3 0.6,0.5 0.8,0.8 0.2,0.3 0.4,0.6 0.5,0.9 0.1,0.3 0.2,0.6 0.2,1 0,0.9 -0.4,1.7 -1.1,2.4 -0.7,0.7 -1.8,1.2 -3.1,1.5 1.1,0.5 1.9,1.3 2.6,2.4 l 2.6,4.7 z m -16.9,-8.8 6.3,0 c 0.8,0 1.6,0 2.2,-0.1 0.6,-0.1 1.1,-0.2 1.5,-0.3 0.4,-0.1 0.7,-0.4 0.8,-0.6 0.2,-0.3 0.3,-0.6 0.3,-1 0,-0.7 -0.3,-1.2 -1,-1.5 -0.7,-0.3 -1.8,-0.5 -3.2,-0.5 l -6.7,0 0,4 z"
           id="path403"
           inkscape:connector-curvature="0"
           style="fill:#181515" /><path
           d="m 536,60.9 c 1.8,0 3.4,0.2 4.9,0.6 1.5,0.4 2.8,0.9 3.8,1.6 1.1,0.7 1.9,1.5 2.5,2.5 0.6,1 0.9,2.1 0.9,3.2 0,1.2 -0.3,2.2 -0.9,3.2 -0.6,1 -1.4,1.8 -2.5,2.5 -1.1,0.7 -2.4,1.2 -3.8,1.6 -1.4,0.4 -3.1,0.6 -4.9,0.6 -1.8,0 -3.4,-0.2 -4.9,-0.6 -1.5,-0.4 -2.8,-0.9 -3.8,-1.6 -1,-0.7 -1.9,-1.5 -2.5,-2.5 -0.6,-1 -0.9,-2.1 -0.9,-3.2 0,-1.2 0.3,-2.3 0.9,-3.3 0.6,-1 1.4,-1.8 2.5,-2.5 1.1,-0.7 2.4,-1.2 3.8,-1.6 1.4,-0.4 3.1,-0.5 4.9,-0.5 z m 0,13.3 c 1.1,0 2.1,-0.1 3,-0.4 0.9,-0.2 1.7,-0.6 2.3,-1.1 0.6,-0.5 1.2,-1 1.5,-1.7 0.4,-0.7 0.5,-1.4 0.5,-2.3 0,-0.9 -0.2,-1.6 -0.5,-2.3 -0.4,-0.7 -0.9,-1.2 -1.5,-1.7 -0.6,-0.5 -1.4,-0.8 -2.3,-1 -0.9,-0.2 -1.9,-0.4 -2.9,-0.4 -1.1,0 -2,0.1 -2.9,0.4 -0.9,0.2 -1.7,0.6 -2.3,1.1 -0.7,0.5 -1.2,1 -1.5,1.7 -0.3,0.7 -0.5,1.4 -0.5,2.3 0,0.8 0.2,1.6 0.5,2.3 0.3,0.7 0.9,1.2 1.5,1.7 0.6,0.5 1.4,0.8 2.3,1.1 0.7,0.2 1.7,0.3 2.8,0.3 z"
           id="path405"
           inkscape:connector-curvature="0"
           style="fill:#181515" /><path
           d="m 577,76.5 -4.6,0 0,-9.8 -5.4,9.8 -4,0 -5.4,-9.8 0,9.8 -4.5,0 0,-15.4 6.1,0 5.8,11 5.9,-11 6.1,0 0,15.4 z"
           id="path407"
           inkscape:connector-curvature="0"
           style="fill:#181515" /></g></g></g><g
     id="g3742"
     transform="matrix(1.2693329,0,0,1.2693329,620.048,96.94639)"><path
       id="path3744"
       d="m 166.9,84.7 c 0,45.4 -36.8,82.2 -82.2,82.2 C 39.3,166.9 2.5,130.1 2.5,84.7 2.5,39.3 39.3,2.5 84.7,2.5 c 45.4,0 82.2,36.8 82.2,82.2 z m -68.1,-30 c -4.3,-2 -9.1,-3.2 -14.1,-3.2 -18.3,0 -33.1,14.8 -33.1,33.1 0,18.3 14.8,33.1 33.1,33.1 18.3,0 33.1,-14.8 33.1,-33.1 0,-13.1 -7.8,-24.5 -19,-29.9"
       inkscape:connector-curvature="0"
       style="fill:#5b98d0" /><g
       id="g3746"><path
         id="path3748"
         d="M 84.7,169.4 C 38,169.4 0,131.4 0,84.7 0,38 38,0 84.7,0 c 46.7,0 84.7,38 84.7,84.7 0,46.7 -38,84.7 -84.7,84.7 z m 0,-169.3 c -46.6,0 -84.6,38 -84.6,84.6 0,46.6 37.9,84.5 84.5,84.5 46.6,0 84.5,-37.9 84.5,-84.5 C 169.2,38.1 131.3,0.1 84.7,0.1 Z"
         inkscape:connector-curvature="0"
         style="fill:#0f1317" /></g><path
       id="path3750"
       d="m 156.1,125.5 c -14.2,24.7 -40.8,41.4 -71.4,41.4 -30.6,0 -57.2,-16.7 -71.4,-41.4 l 0,0 142.8,0"
       inkscape:connector-curvature="0"
       style="fill:#0f1317" /><g
       id="g3752"><path
         id="path3754"
         d="m 84.7,117.8 c -18.3,0 -33.1,-14.8 -33.1,-33.1 0,-18.3 14.8,-33.1 33.1,-33.1 18.3,0 33.1,14.8 33.1,33.1 0,18.3 -14.9,33.1 -33.1,33.1 z m 0,-65.2 C 67,52.6 52.6,67 52.6,84.7 c 0,17.7 14.4,32.1 32.1,32.1 17.7,0 32.1,-14.4 32.1,-32.1 0,-17.7 -14.4,-32.1 -32.1,-32.1 z"
         inkscape:connector-curvature="0" /></g><g
       id="g3756"><path
         id="path3758"
         d="M 84.7,99.4 C 76.6,99.4 70,92.8 70,84.7 70,76.6 76.6,70 84.7,70 c 8.1,0 14.7,6.6 14.7,14.7 0,8.1 -6.6,14.7 -14.7,14.7 z M 84.7,71 C 77.1,71 71,77.1 71,84.7 c 0,7.5 6.1,13.7 13.7,13.7 7.5,0 13.7,-6.1 13.7,-13.7 C 98.4,77.1 92.2,71 84.7,71 Z"
         inkscape:connector-curvature="0"
         style="fill:#a299a1" /></g><g
       id="g3760"><path
         id="path3762"
         d="m 84.7,96.5 c -6.5,0 -11.8,-5.3 -11.8,-11.8 0,-6.5 5.3,-11.8 11.8,-11.8 6.5,0 11.8,5.3 11.8,11.8 0,6.5 -5.3,11.8 -11.8,11.8 z m 0,-22.7 c -6,0 -10.8,4.9 -10.8,10.8 0,6 4.9,10.8 10.8,10.8 6,0 10.8,-4.9 10.8,-10.8 0,-5.9 -4.8,-10.8 -10.8,-10.8 z"
         inkscape:connector-curvature="0"
         style="fill:#a299a1" /></g><g
       id="g3764"><path
         id="path3766"
         d="m 117.3,84.7 c 0,18 -14.6,32.6 -32.6,32.6 -18,0 -32.6,-14.6 -32.6,-32.6 0,-18 14.6,-32.6 32.6,-32.6 18,0 32.6,14.6 32.6,32.6 z M 84.7,56.3 C 69,56.3 56.3,69 56.3,84.7 56.3,100.4 69,113 84.7,113 100.4,113 113,100.3 113,84.7 113,69.1 100.3,56.3 84.7,56.3 Z"
         inkscape:connector-curvature="0"
         style="fill:#96b0c1" /></g><path
       id="path3768"
       d="M 66.6,112.4"
       stroke-miterlimit="10"
       inkscape:connector-curvature="0"
       style="fill:none;stroke:#7ac143;stroke-miterlimit:10" /><path
       id="path3770"
       d="M 84.7,117.8"
       stroke-miterlimit="10"
       inkscape:connector-curvature="0"
       style="fill:none;stroke:#7ac143;stroke-miterlimit:10" /><path
       id="path3772"
       d="M 98.8,54.7"
       stroke-miterlimit="10"
       inkscape:connector-curvature="0"
       style="fill:none;stroke:#7ac143;stroke-miterlimit:10" /><path
       id="path3774"
       d="M 84.7,51.6"
       stroke-miterlimit="10"
       inkscape:connector-curvature="0"
       style="fill:none;stroke:#7ac143;stroke-miterlimit:10" /><path
       id="path3776"
       d="M 51.6,84.7"
       stroke-miterlimit="10"
       inkscape:connector-curvature="0"
       style="fill:none;stroke:#7ac143;stroke-miterlimit:10" /><path
       id="path3778"
       d="M 51.9,89.2"
       stroke-miterlimit="10"
       inkscape:connector-curvature="0"
       style="fill:none;stroke:#7ac143;stroke-miterlimit:10" /><g
       id="g3780"><g
         id="g3782"><path
           d="m 52,136.4 4.3,-6.5 c 0.2,-0.4 0.4,-0.6 0.6,-0.6 l 3.1,0 0,0.9 0.2,-0.3 c 0.2,-0.4 0.4,-0.6 0.6,-0.6 l 3.7,0 0,7 -2.5,0 0,-5.5 -3.7,5.5 -2.5,0 3.7,-5.5 -1.2,0 c -0.1,0 -0.3,0.1 -0.4,0.2 l -3.5,5.4 -2.4,0 0,0 z m 15.7,-2.8 0,1.3 5.7,0 0,1.5 -8.2,0 0,-4.6 c 0,-0.1 0,-0.2 0.1,-0.4 l 1.1,-1.8 c 0.1,-0.1 0.2,-0.2 0.4,-0.2 l 6.5,0 0,1.5 -4.9,0 c -0.1,0 -0.2,0.1 -0.3,0.2 l -0.5,1.1 5.7,0 -0.8,1.5 -4.8,0 z m 9,1.3 4.1,0 0,-1.3 -1.6,0 0.8,-1.5 3.3,0 0,3.9 c 0,0.2 -0.1,0.4 -0.4,0.4 l -8.2,0 c -0.3,0 -0.4,-0.1 -0.4,-0.4 l 0,-4.2 c 0,-0.1 0,-0.2 0.1,-0.4 l 1.1,-1.8 c 0.1,-0.1 0.2,-0.2 0.4,-0.2 l 6.9,0 0,1.5 -5.3,0 c -0.1,0 -0.2,0.1 -0.3,0.2 l -0.5,1.1 0,2.7 z m 17.6,1.5 -2.9,0 -1.1,-1.5 -3,0 -0.8,-1.3 0,2.8 -2.5,0 0,-7 4.7,0 c 0.2,0 0.4,0.2 0.6,0.6 l 5,6.4 z m -5.1,-2.9 -1.8,-2.4 C 87.3,131 87.1,130.9 87,130.9 l -0.4,0 0,2.6 2.6,0 0,0 z"
           inkscape:connector-curvature="0"
           id="text8337_3_-2"
           style="fill:#929397" /><polygon
           id="polygon3785"
           points="97.2,132.9 99.5,136.4 106.8,136.4 106.8,135.2 101,135.2 99.6,132.9 101,130.6 106.8,130.6 106.8,129.4 99.5,129.4 "
           style="fill:#929397" /><rect
           id="rect3787"
           height="1.7"
           width="2"
           y="132.2"
           x="93.900002"
           style="fill:#929397" /><path
           id="path3789"
           d="m 117.4,132.9 -2.4,3.7 -6.9,0 0,-7.2 6.9,0 2.4,3.5 z m -2.4,0 -1.6,-2.3 -3.2,0 0,4.9 3.2,0 1.6,-2.6 z"
           inkscape:connector-curvature="0"
           style="fill:#929397" /></g></g><g
       id="g3791"><rect
         id="rect3793"
         height="10.7"
         width="19"
         y="129.60001"
         x="27.200001"
         style="fill:#929397" /><rect
         id="rect3795"
         height="10.1"
         width="18.4"
         y="129.89999"
         x="27.5"
         style="fill:#010101" /><g
         id="g3797"><g
           id="g3799"><polygon
             id="polygon3801"
             points="28.4,138.6 33.4,138.6 33.4,131.1 "
             style="fill:#ed2224" /><polygon
             id="polygon3803"
             points="32.6,138.6 37.5,138.6 37.5,131.1 "
             style="fill:#ed2224" /></g><g
           id="g3805"><rect
             id="rect3807"
             height="7.4000001"
             width="2.4000001"
             y="131.3"
             x="38.599998"
             style="fill:#11aa4b" /><path
             id="path3809"
             d="m 42,131.4 -0.5,2.5 0,0 c 0,0 -0.1,0 -0.1,0 l 0,-2.5 c 0.2,-0.1 0.4,-0.1 0.6,0"
             inkscape:connector-curvature="0"
             style="fill:#11aa4b" /><path
             id="path3811"
             d="m 41.7,133.9 0.7,-2.4 0,0 c 0.2,0.1 0.4,0.1 0.6,0.2 l 0,0 -1.1,2.3 0,0 c -0.1,-0.1 -0.2,-0.1 -0.2,-0.1"
             inkscape:connector-curvature="0"
             style="fill:#11aa4b" /><path
             id="path3813"
             d="m 42.1,134.1 1.7,-1.9 0,0 c -0.1,-0.1 -0.3,-0.2 -0.5,-0.3 l 0,0 -1.3,2.1 0,0 c 0,0 0.1,0.1 0.1,0.1"
             inkscape:connector-curvature="0"
             style="fill:#11aa4b" /><path
             id="path3815"
             d="m 42.3,134.3 2.1,-1.3 0,0 c -0.1,-0.2 -0.3,-0.4 -0.4,-0.5 l 0,0 -1.8,1.7 0,0 c 0,0 0.1,0.1 0.1,0.1"
             inkscape:connector-curvature="0"
             style="fill:#11aa4b" /><path
             id="path3817"
             d="m 42.4,134.5 2.4,-0.6 0,0 c -0.1,-0.2 -0.2,-0.4 -0.3,-0.6 l 0,0 -2.1,1.2 0,0 c 0,-0.1 0,0 0,0"
             inkscape:connector-curvature="0"
             style="fill:#11aa4b" /><path
             id="path3819"
             d="m 45,134.9 -2.5,0 0,0 c 0,-0.1 0,-0.2 -0.1,-0.2 l 0,0 2.5,-0.4 0,0 c 0.1,0.2 0.1,0.4 0.1,0.6"
             inkscape:connector-curvature="0"
             style="fill:#11aa4b" /><path
             id="path3821"
             d="m 42.5,135.1 c 0,0.6 -0.5,1.1 -1.1,1.1 l 0,2.5 c 2,0 3.6,-1.6 3.6,-3.6 l 0,0 -2.5,0"
             inkscape:connector-curvature="0"
             style="fill:#11aa4b" /></g></g></g><g
       id="g3823"><rect
         id="rect3825"
         height="10.7"
         width="19"
         y="129.5"
         x="123.1"
         style="fill:#929397" /><g
         id="g3827"><rect
           id="rect3829"
           height="10.1"
           width="18.4"
           y="129.8"
           x="123.4"
           style="fill:#010101" /><path
           id="path3831"
           d="m 132.5,137.6 2.5,-2.5 c 0,0 0,0 0,-0.1 l -2.6,1.9 2.6,-2.7 -2.6,2 2.5,-2.6 -2.5,2 2.4,-2.7 c -0.9,-0.7 -2.9,-0.1 -4.7,1.5 -1.9,1.7 -2.7,3.7 -1.9,4.6 0.8,0.9 2.9,0.3 4.8,-1.4 0.5,-0.5 0.9,-0.9 1.3,-1.4 l -1.8,1.4 z"
           inkscape:connector-curvature="0"
           style="fill:#5b98d0" /><path
           id="path3833"
           d="m 131.4,135.4 -0.9,0 0,2.2 0.9,0 0,-0.6 0.8,0 0,1.3 -2.1,0 c -0.2,0 -0.4,-0.2 -0.4,-0.4 l 0,-2.8 c 0,-0.3 0.1,-0.4 0.4,-0.4 l 2.1,0 0,1.5 -0.8,0 0,-0.8 0,0 z"
           inkscape:connector-curvature="0"
           style="fill:#020202" /><path
           id="path3835"
           d="m 137,132.1 -2.5,2.5 c 0,0 0,0 0,0.1 l 2.6,-1.9 -2.6,2.7 2.6,-2 -2.5,2.6 2.5,-2 -2.4,2.7 c 0.9,0.7 2.9,0.1 4.7,-1.5 1.9,-1.7 2.7,-3.7 1.9,-4.6 -0.8,-0.9 -2.9,-0.3 -4.8,1.4 -0.5,0.5 -0.9,0.9 -1.3,1.4 l 1.8,-1.4 z"
           inkscape:connector-curvature="0"
           style="fill:#deae2c" /><g
           id="g3837"><path
             id="path3839"
             d="m 139.8,134.6 c 0,0.2 -0.2,0.4 -0.4,0.4 l -2.1,0 0,-3.6 2.1,0 c 0.2,0 0.4,0.2 0.4,0.4 l 0,2.8 z m -1.7,-0.3 0.9,0 0,-2.2 -0.9,0 0,2.2 z"
             inkscape:connector-curvature="0"
             style="fill:#020202" /></g><g
           id="g3841"><path
             id="path3843"
             d="m 125.1,130.5 c 0.1,-0.1 0.2,-0.2 0.3,-0.2 0.3,0 0.5,0 0.8,0 0,0.1 0,0.2 0,0.3 0.1,-0.1 0.2,-0.3 0.4,-0.3 0.3,0 0.7,0 1,0 0,0.7 0,1.4 0,2.1 -0.2,0 -0.5,0 -0.7,0 0,-0.5 0,-1 0,-1.5 -0.1,0 -0.2,0.1 -0.3,0.2 -0.3,0.4 -0.5,0.8 -0.8,1.3 -0.2,0 -0.5,0 -0.7,0 0.3,-0.5 0.6,-1 0.9,-1.5 -0.2,0 -0.4,0 -0.5,0.1 -0.3,0.5 -0.6,0.9 -0.9,1.4 -0.3,0 -0.5,0 -0.8,0 0.5,-0.6 0.9,-1.2 1.3,-1.9 z"
             inkscape:connector-curvature="0"
             style="fill:#ffffff" /><path
             id="path3845"
             d="m 127.9,130.6 c 0.1,-0.1 0.3,-0.3 0.5,-0.3 0.5,0 1,0 1.6,0 0,0.2 0,0.3 0,0.5 -0.4,0 -0.8,0 -1.2,0 -0.1,0.1 -0.2,0.2 -0.3,0.3 0.5,0 1,0 1.5,0 -0.1,0.1 -0.2,0.3 -0.3,0.4 -0.4,0 -0.8,0 -1.2,0 0,0.1 0,0.3 0,0.4 0.5,0 1,0 1.4,0 0,0.1 0,0.3 0,0.4 -0.7,0 -1.5,0 -2.2,0 0,-0.4 0,-0.8 0,-1.3 0,-0.1 0.1,-0.3 0.2,-0.4 z"
             inkscape:connector-curvature="0"
             style="fill:#ffffff" /><path
             id="path3847"
             d="m 130.3,130.5 c 0.1,-0.1 0.2,-0.2 0.4,-0.2 0.6,0 1.1,0 1.7,0 0,0.2 0,0.3 0,0.5 -0.4,0 -0.7,0 -1.1,0 -0.3,0 -0.4,0.3 -0.4,0.5 0,0.3 -0.1,0.3 0,0.7 0.4,0 0.5,0 1,0 0,-0.1 0,-0.2 0,-0.3 -0.2,0 -0.1,0 -0.5,0 0.1,-0.1 0.2,-0.3 0.2,-0.4 0.3,0 0.6,0 0.9,0 0,0.3 0,0.7 0,1 0,0.1 0,0.1 -0.1,0.2 -0.7,0 -1.3,0 -2,0 -0.2,0 -0.3,-0.2 -0.3,-0.3 0,-0.4 0,-0.7 0,-1.1 0,-0.3 0.1,-0.4 0.2,-0.6 z"
             inkscape:connector-curvature="0"
             style="fill:#ffffff" /><g
             id="g3849"><path
               id="path3851"
               d="m 132.7,130.3 c 0.4,0 0.8,0 1.1,0 0.2,0 0.4,0.2 0.5,0.3 0.4,0.6 0.7,1.2 1.1,1.8 -0.3,0 -0.5,0 -0.8,0 -0.1,-0.1 -0.2,-0.3 -0.3,-0.4 -0.2,0 -0.5,0 -0.7,0 -0.1,-0.1 -0.1,-0.2 -0.2,-0.3 0,0.2 0,0.5 0,0.7 -0.2,0 -0.5,0 -0.7,0 0,-0.7 0,-1.4 0,-2.1 z m 0.7,0.5 c 0,0.3 0,0.5 0,0.8 0.2,0 0.4,0 0.6,0 -0.1,-0.2 -0.2,-0.4 -0.4,-0.6 0,-0.2 -0.1,-0.2 -0.2,-0.2 z"
               inkscape:connector-curvature="0"
               style="fill:#ffffff" /></g></g></g></g><g
       id="SEGA_2_"><path
         id="path3854"
         d="m 90.6,162.2 c -0.5,0 -1,0 -1.5,0 l -2.4,0 c -1.6,0 -2.6,-1.1 -2.7,-2.7 0,-1.2 0,-2.5 0,-3.7 0,-1.6 1.1,-2.7 2.7,-2.7 0.5,0 0.9,0 1.4,0 l 2.7,0 0,1.9 -3.5,0 c -1.1,0 -1.3,0.1 -1.3,1.4 l 0,2.8 c 0,0.9 0.4,1 1,1.1 l 1.9,0 0,-2.4 -1.9,0 0,-1.9 3.9,0 0,2.4 1.2,-3.7 c 0.4,-1.2 1.1,-1.8 2.1,-1.8 0.2,0 0.3,0 0.5,0 0.8,0.1 1.4,0.6 1.6,1.3 0.6,1.8 1.2,3.7 1.8,5.5 l 0.6,1.8 0,0.2 -0.1,0.3 -0.4,0.1 -4.7,0 0,-1.9 2.8,0 -0.4,-1.1 -0.4,-1.1 c -0.3,-0.9 -0.6,-1.9 -0.9,-2.8 -0.1,-0.2 -0.3,-0.5 -0.4,-0.5 -0.1,0 -0.2,0.3 -0.2,0.5 l -0.6,2 c -0.4,1.4 -0.9,2.7 -1.3,4.1 -0.4,0.6 -0.8,0.9 -1.5,0.9 l 0,0 z"
         inkscape:connector-curvature="0"
         style="fill:#929397" /><path
         d="m 98.1,161.7 c -1.4,0 -2.8,0 -4.3,0 0,-0.3 0,-0.6 0,-1 0.9,0 1.9,0 2.9,0 -0.2,-0.6 -0.4,-1.2 -0.6,-1.7 -0.4,-1.3 -0.8,-2.6 -1.3,-3.9 -0.1,-0.3 -0.4,-0.7 -0.7,-0.8 -0.5,-0.1 -0.6,0.4 -0.8,0.8 -0.6,2 -1.3,4 -1.9,6 -0.1,0.5 -0.4,0.6 -0.8,0.6 -1.3,0 -2.6,0 -3.9,0 -1.3,0 -2.2,-0.9 -2.2,-2.3 0,-1.2 0,-2.5 0,-3.7 0,-1.4 0.9,-2.2 2.2,-2.3 1.2,0 2.4,0 3.6,0 0,0.4 0,0.7 0,1.1 -1,0 -2,0 -3,0 -1.4,0 -1.8,0.3 -1.8,1.8 0,0.9 0,1.9 0,2.8 0,1 0.5,1.5 1.4,1.5 0.8,0 1.5,0 2.3,0 0,-1.1 0,-2.1 0,-3.3 -0.6,0 -1.3,0 -1.9,0 0,-0.4 0,-0.7 0,-1 1,0 2,0 3,0 0,1.4 0,2.9 0,4.3 0.1,0 0.1,0 0.2,0 0.6,-2 1.3,-3.9 1.9,-5.9 0.4,-1.1 1,-1.6 2.1,-1.4 0.6,0.1 1.1,0.4 1.2,1 0.8,2.4 1.5,4.7 2.3,7.1 0.1,0.2 0.1,0.2 0.1,0.3 z"
         id="XMLID_20_-3"
         inkscape:connector-curvature="0"
         style="fill:#3e64af" /><path
         id="path3857"
         d="m 70.9,162.1 0,-1.9 2.5,0 c 0.4,0 0.9,0 1.3,0 0.7,0 1.2,-0.5 1.2,-1.1 0,-0.6 -0.5,-1.2 -1.2,-1.2 -0.1,0 -0.2,0 -0.3,0 l -0.3,-0.4 0,0.4 c -0.2,0 -0.3,0 -0.5,0 -0.8,-0.1 -1.4,-0.8 -1.4,-1.7 0,-0.9 0.6,-1.6 1.4,-1.7 0.5,0 1,0 1.5,0 l 2.6,0 0,1.9 -1.3,0 c 0.6,0.4 1.1,1.1 1.3,1.9 0.2,0.9 0,1.9 -0.5,2.7 -0.5,0.7 -1.3,1.1 -2.1,1.2 -0.5,0 -0.9,0 -1.4,0 l -2.8,-0.1 z"
         inkscape:connector-curvature="0"
         style="fill:#929397" /><path
         d="m 71.3,161.7 c 0,-0.4 0,-0.7 0,-1 1.1,0 2.3,0 3.4,0 0.9,0 1.6,-0.7 1.7,-1.6 0,-0.9 -0.7,-1.6 -1.6,-1.7 -0.4,0 -0.8,0 -1.1,0 -0.6,-0.1 -1,-0.6 -1,-1.2 0,-0.6 0.4,-1.2 1,-1.2 1.2,0 2.4,0 3.7,0 0,0.4 0,0.6 0,1 -0.6,0 -1.2,0 -1.9,0 -0.6,0 -1.2,0 -1.7,0 0,0.1 0,0.2 0,0.3 0.3,0 0.7,0 1,0 1.3,0 2.2,0.8 2.5,2.1 0.4,1.6 -0.7,3.2 -2.3,3.3 -1.2,0 -2.4,0 -3.7,0 z"
         id="XMLID_19_-8"
         inkscape:connector-curvature="0"
         style="fill:#3e64af" /><path
         id="path3860"
         d="m 70.9,160.7 0,-2 1.2,0 c -0.4,-0.3 -0.7,-0.7 -0.9,-1.2 -0.5,-1.1 -0.4,-2.2 0.3,-3.3 0.5,-0.8 1.3,-1.2 2.1,-1.2 0.5,0 1,0 1.6,0 l 2.8,0 0,1.9 -2.6,0 c -0.4,0 -0.9,0 -1.3,0 -0.4,0 -0.7,0.2 -1,0.5 -0.2,0.3 -0.3,0.7 -0.2,1.1 0.2,0.5 0.6,0.8 1.1,0.8 0.1,0 0.3,0 0.4,0 0.2,0 0.4,0 0.6,0 0.8,0.1 1.4,0.8 1.4,1.6 0,0.9 -0.6,1.7 -1.4,1.7 -0.5,0 -1,0 -1.6,0 l -2.5,0.1 z"
         inkscape:connector-curvature="0"
         style="fill:#929397" /><path
         d="m 71.3,160.2 c 0,-0.4 0,-0.7 0,-1.1 1.2,0 2.4,0 3.6,0 0,-0.1 0,-0.2 0,-0.3 -0.4,0 -0.7,0 -1.1,0 -1,0 -1.8,-0.5 -2.3,-1.5 -0.5,-1 -0.4,-1.9 0.2,-2.8 0.4,-0.6 1,-1 1.7,-1 1.3,0 2.5,0 3.8,0 0,0.3 0,0.6 0,1 -1.1,0 -2.3,0 -3.4,0 -1.1,0 -1.9,1.1 -1.5,2.1 0.2,0.6 0.8,1.1 1.5,1.1 0.4,0 0.7,0 1.1,0 0.6,0.1 1,0.6 1,1.2 0,0.6 -0.4,1.2 -1,1.2 -1.1,0.2 -2.3,0.1 -3.6,0.1 z"
         id="XMLID_18_"
         inkscape:connector-curvature="0"
         style="fill:#3e64af" /><path
         id="path3863"
         d="m 80.7,162.1 c -0.3,0 -0.6,0 -0.8,0 -1.2,-0.1 -2.2,-1.2 -2.3,-2.4 0,-1.4 0,-2.9 0,-4.3 0,-1.2 1,-2.3 2.1,-2.3 0.6,0 1.1,0 1.7,0 l 3,0 0,1.9 -3.8,0 c -0.9,0 -1.1,0.2 -1.1,1.2 0,1 0,1.9 0,2.9 0,0.9 0.2,1.1 1.1,1.1 l 3.8,0 0,1.9 -3.7,0 z"
         inkscape:connector-curvature="0"
         style="fill:#929397" /><path
         d="m 84,153.5 c 0,0.3 0,0.6 0,1 -1.1,0 -2.2,0 -3.4,0 -1.2,0 -1.6,0.4 -1.6,1.6 0,1 0,2 0,2.9 0,1.1 0.4,1.6 1.5,1.6 1.1,0 2.2,0 3.4,0 0,0.4 0,0.6 0,1 -0.8,0 -1.7,0 -2.5,0 -0.5,0 -1,0 -1.6,0 -1,-0.1 -1.8,-1 -1.8,-2 0,-1.4 0,-2.9 0,-4.3 0,-0.9 0.8,-1.9 1.7,-1.9 1.4,0 2.8,0.1 4.3,0.1 z"
         id="XMLID_17_-2"
         inkscape:connector-curvature="0"
         style="fill:#3e64af" /><path
         id="path3866"
         d="m 92.4,162.1 c -0.2,0 -0.4,0 -0.8,-0.1 l -0.5,-0.1 0.5,-1.4 c 0.6,-1.9 1.2,-3.8 1.9,-5.7 0.1,-0.3 0.4,-0.6 0.6,-0.7 l 0.1,0 0.1,0 c 0.3,0 0.7,0.3 0.7,0.6 0.5,1.4 0.9,2.8 1.4,4.3 l 0.5,1.6 -3.2,0 -0.1,0.2 c -0.3,0.9 -0.4,1.3 -1.2,1.3 z"
         inkscape:connector-curvature="0"
         style="fill:#929397" /><path
         d="m 91.6,161.6 c 0.7,-2.2 1.4,-4.4 2.1,-6.6 0.1,-0.2 0.2,-0.3 0.4,-0.4 0.1,0 0.3,0.1 0.3,0.3 0.6,1.7 1.2,3.5 1.7,5.3 -0.9,0 -1.6,0 -2.4,0 0,-0.3 -0.1,-0.5 -0.1,-0.7 0,0 -0.1,0 -0.1,0 -0.1,0.4 -0.3,0.8 -0.4,1.2 -0.3,1.1 -0.3,1.1 -1.5,0.9 z m 2.1,-2.5 c 0.3,0 0.5,0 0.9,0 -0.1,-0.4 -0.2,-0.8 -0.4,-1.1 0,0 -0.1,0 -0.1,0 -0.1,0.3 -0.2,0.6 -0.4,1.1 z"
         id="XMLID_14_"
         inkscape:connector-curvature="0"
         style="fill:#3e64af" /><path
         id="path3869"
         d="m 87.6,160.7 c -0.4,0 -0.8,0 -1.1,0 -0.5,0 -0.9,-0.7 -0.9,-1.1 -0.1,-1.3 0,-2.6 0,-3.9 0,-0.7 0.5,-1.2 1.2,-1.2 l 4.1,0 0,1.9 -2.1,0 c -0.4,0 -0.7,0 -1.1,0 0,0 0,0 0,0 -0.2,0 -0.2,0 -0.2,0 0,0 0,0.1 0,0.3 0,0.2 0,0.5 0,0.7 l 2,0 0,3.3 -1.9,0 z"
         inkscape:connector-curvature="0"
         style="fill:#929397" /><path
         d="m 88,159 c -0.3,-0.1 -0.5,-0.1 -0.7,-0.2 0,-0.3 0,-0.6 0,-0.9 0.5,0 1,0 1.6,0 0,0.8 0,1.6 0,2.4 -0.8,0 -1.6,0 -2.4,0 -0.2,0 -0.5,-0.4 -0.5,-0.7 -0.1,-1.3 0,-2.6 0,-3.9 0,-0.5 0.3,-0.7 0.7,-0.7 1.2,0 2.4,0 3.7,0 0,0.3 0,0.7 0,1 -0.9,0 -1.8,0 -2.7,0 -0.5,0 -0.8,0.2 -0.7,0.8 0,0.6 0,1.2 0,1.8 -0.1,0.6 0.2,0.8 1,0.4 z"
         id="XMLID_13_-0"
         inkscape:connector-curvature="0"
         style="fill:#3e64af" /><path
         id="path3872"
         d="m 82,160.7 c -0.7,0 -1.3,0 -2,0 -0.5,0 -0.9,-0.7 -1,-1.1 -0.1,-0.4 -0.1,-0.8 0,-1.2 0,-0.2 0,-0.3 0,-0.5 l 0,-0.4 4.6,0 0,1.4 c 0.1,0 0.3,0 0.4,0 l 0.4,0 0,1.8 -2.4,0 z"
         inkscape:connector-curvature="0"
         style="fill:#929397" /><path
         d="m 80.5,159.1 c 1.1,0.2 2.3,0 3.4,0.1 0,0.3 0,0.6 0,1 -1.3,0 -2.6,0 -3.9,0 -0.2,0 -0.5,-0.4 -0.6,-0.7 -0.1,-0.5 0,-1.1 0,-1.7 1.2,0 2.4,0 3.7,0 0,0.3 0,0.6 0,1 -0.9,0 -1.7,0 -2.6,0 0,0.1 0,0.2 0,0.3 z"
         id="XMLID_12_"
         inkscape:connector-curvature="0"
         style="fill:#3e64af" /><path
         id="path3875"
         d="m 79,157.8 0,-0.9 c 0,-0.5 0,-0.9 0,-1.4 0.1,-0.4 0.6,-0.9 1,-0.9 0.7,0 1.3,0 2,0 l 2.4,0 0,1.8 -0.4,0.1 c -0.2,0 -0.3,0 -0.5,0 l 0,1.4 -4.5,0 z"
         inkscape:connector-curvature="0"
         style="fill:#929397" /><path
         d="m 84,154.9 c 0,0.4 0,0.6 0,1 -1.2,0.2 -2.3,-0.1 -3.5,0.1 0,0.1 0,0.2 0,0.3 0.9,0 1.7,0 2.6,0 0,0.4 0,0.7 0,1 -1.2,0 -2.4,0 -3.7,0 0,-0.6 -0.1,-1.2 0,-1.8 0,-0.2 0.4,-0.5 0.6,-0.6 1.3,0 2.6,0 4,0 z"
         id="XMLID_11_-3"
         inkscape:connector-curvature="0"
         style="fill:#3e64af" /></g></g></svg>