<?xml version="1.0" encoding="UTF-8" standalone="no"?>
<!-- Generator: Adobe Illustrator 13.0.0, SVG Export Plug-In . SVG Version: 6.00 Build 14948)  -->

<svg
   xmlns:ns="&amp;ns_sfw;"
   xmlns:dc="http://purl.org/dc/elements/1.1/"
   xmlns:cc="http://creativecommons.org/ns#"
   xmlns:rdf="http://www.w3.org/1999/02/22-rdf-syntax-ns#"
   xmlns:svg="http://www.w3.org/2000/svg"
   xmlns="http://www.w3.org/2000/svg"
   xmlns:sodipodi="http://sodipodi.sourceforge.net/DTD/sodipodi-0.dtd"
   xmlns:inkscape="http://www.inkscape.org/namespaces/inkscape"
   version="1.2"
   id="Layer_3"
   x="0px"
   y="0px"
   width="475.94601"
   height="314.38901"
   viewBox="0 0 475.94599 314.389"
   xml:space="preserve"
   inkscape:version="0.91 r13725"
   sodipodi:docname="controller.svg"><defs
     id="defs634" /><sodipodi:namedview
     pagecolor="#ffffff"
     bordercolor="#666666"
     borderopacity="1"
     objecttolerance="10"
     gridtolerance="10"
     guidetolerance="10"
     inkscape:pageopacity="0"
     inkscape:pageshadow="2"
     inkscape:window-width="690"
     inkscape:window-height="480"
     id="namedview632"
     showgrid="false"
     fit-margin-top="0"
     fit-margin-left="0"
     fit-margin-right="0"
     fit-margin-bottom="0"
     inkscape:zoom="0.48145317"
     inkscape:cx="237.12951"
     inkscape:cy="159.861"
     inkscape:window-x="0"
     inkscape:window-y="0"
     inkscape:window-maximized="0"
     inkscape:current-layer="Layer_3" /><metadata
     id="metadata55"><rdf:RDF><cc:Work
         rdf:about=""><dc:format>image/svg+xml</dc:format><dc:type
           rdf:resource="http://purl.org/dc/dcmitype/StillImage" /><dc:title></dc:title></cc:Work></rdf:RDF><ns:sfw><ns:slices /><ns:sliceSourceBounds
         x="723.37"
         y="379.639"
         width="475.946"
         height="314.389"
         bottomLeftOrigin="true" /></ns:sfw></metadata><g
     id="g4"
     transform="translate(-61.965,-20.602)"><path
       d="m 143.577,201.482 c -0.644,0 -1.169,-0.522 -1.169,-1.168 l 0,0 0,-22.213 c 0.002,-0.646 0.523,-1.165 1.169,-1.168 l 0,0 22.212,0 c 0.648,0.002 1.167,0.522 1.169,1.168 l 0,0 0,22.213 c -0.002,0.645 -0.525,1.168 -1.169,1.169 l 0,0 -22.212,-0.001 0,0 z m 21.771,-1.609 0,-21.328 -21.328,0 0,21.326 21.328,0.002 0,0 z"
       id="path6"
       inkscape:connector-curvature="0"
       style="fill:#f4f4f4" /><path
       d="m 150.967,197.539 c -2.85,-10e-4 -5.156,-2.311 -5.159,-5.156 l 0,0 0,-6.348 c 0.001,-2.85 2.309,-5.156 5.159,-5.156 l 0,0 7.434,0 c 2.848,0 5.157,2.307 5.157,5.156 l 0,0 0,6.348 c 0,2.847 -2.309,5.155 -5.157,5.156 l 0,0 -7.434,0 0,0 z m -3.547,-11.504 0,6.348 c 0.003,1.956 1.588,3.542 3.546,3.544 l 0,0 7.434,0 c 1.957,-0.002 3.542,-1.588 3.545,-3.544 l 0,0 0.001,0 -0.001,-6.348 c -0.003,-1.96 -1.586,-3.544 -3.545,-3.546 l 0,0 -7.434,0 c -1.959,0.002 -3.542,1.587 -3.546,3.546 l 0,0 z"
       id="path8"
       inkscape:connector-curvature="0"
       style="fill:#f4f4f4" /></g><g
     id="g10"
     transform="translate(-61.965,-20.602)"><path
       d="m 167.574,201.483 c -0.646,-0.002 -1.168,-0.524 -1.169,-1.17 l 0,0 0.001,-22.211 c 0,-0.646 0.52,-1.168 1.168,-1.168 l 0,0 22.213,0 c 0.646,0 1.167,0.522 1.167,1.168 l 0,0 0,22.211 c -0.001,0.646 -0.523,1.168 -1.167,1.17 l 0,0 -22.213,0 0,0 z m 21.769,-1.611 0,-21.328 -21.327,0 0,21.328 21.327,0 0,0 z"
       id="path12"
       inkscape:connector-curvature="0"
       style="fill:#f4f4f4" /><path
       d="m 174.962,197.538 c -2.85,0 -5.157,-2.308 -5.157,-5.154 l 0,0 -0.002,-6.348 c 0.002,-2.85 2.309,-5.156 5.159,-5.156 l 0,0 7.435,0 c 2.848,0 5.156,2.307 5.156,5.156 l 0,0 0,6.348 c 0,2.847 -2.309,5.154 -5.156,5.155 l 0,0 -7.435,-10e-4 0,0 z m -3.546,-11.503 0,6.348 c 0.003,1.956 1.588,3.542 3.546,3.544 l 0,0 7.435,0 c 1.958,-0.002 3.542,-1.588 3.544,-3.544 l 0,0 0.002,0 -0.002,-6.348 c -0.003,-1.96 -1.587,-3.544 -3.544,-3.546 l 0,0 -7.435,0 c -1.958,0.002 -3.543,1.587 -3.546,3.546 l 0,0 z"
       id="path14"
       inkscape:connector-curvature="0"
       style="fill:#f4f4f4" /></g><g
     id="g16"
     transform="translate(-61.965,-20.602)"><path
       d="m 191.569,201.482 c -0.644,0 -1.167,-0.522 -1.169,-1.168 l 0,0 0.002,-22.213 c 0,-0.646 0.521,-1.165 1.167,-1.168 l 0,0 22.214,0 c 0.645,0.002 1.166,0.522 1.167,1.168 l 0,0 0,22.213 c 0,0.646 -0.523,1.168 -1.167,1.169 l 0,0 -22.214,-0.001 0,0 z m 21.769,-1.609 0,-21.328 -21.327,0 0,21.326 21.327,0.002 0,0 z"
       id="path18"
       inkscape:connector-curvature="0"
       style="fill:#f4f4f4" /><path
       d="m 198.958,197.538 c -2.848,0 -5.156,-2.308 -5.156,-5.154 l 0,0 0,-6.348 c 0,-2.85 2.309,-5.156 5.156,-5.156 l 0,0 7.434,0 c 2.849,0 5.158,2.307 5.158,5.156 l 0,0 0,6.348 c 0,2.845 -2.309,5.154 -5.158,5.155 l 0,0 -7.434,-10e-4 0,0 z m -3.547,-11.503 0,6.348 c 0.003,1.956 1.588,3.542 3.546,3.544 l 0,0 7.434,0 c 1.958,-0.002 3.542,-1.588 3.547,-3.544 l 0,0 0,-6.348 c -0.005,-1.96 -1.588,-3.544 -3.547,-3.546 l 0,0 -7.434,0 c -1.957,0.002 -3.543,1.587 -3.546,3.546 l 0,0 z"
       id="path20"
       inkscape:connector-curvature="0"
       style="fill:#f4f4f4" /></g><g
     id="g22"
     transform="translate(-61.965,-20.602)"><path
       d="m 215.565,201.483 c -0.644,-0.002 -1.167,-0.524 -1.169,-1.17 l 0,0 0.002,-22.211 c 0,-0.644 0.52,-1.168 1.167,-1.168 l 0,0 22.213,0 c 0.646,0 1.166,0.522 1.168,1.168 l 0,0 0,22.211 c -0.002,0.646 -0.523,1.168 -1.168,1.17 l 0,0 -22.213,0 0,0 z m 21.77,-1.611 0,-21.328 -21.326,0 -10e-4,21.328 21.327,0 0,0 z"
       id="path24"
       inkscape:connector-curvature="0"
       style="fill:#f4f4f4" /><path
       d="m 222.954,197.539 c -2.849,-10e-4 -5.157,-2.31 -5.157,-5.156 l 0,0 0,-6.348 c 0,-2.85 2.309,-5.156 5.157,-5.156 l 0,0 7.434,0 c 2.848,0 5.156,2.307 5.156,5.156 l 0,0 0,6.348 c 0,2.847 -2.308,5.155 -5.156,5.156 l 0,0 -7.434,0 0,0 z m -3.547,-11.504 0,6.348 c 0.004,1.956 1.588,3.542 3.547,3.544 l 0,0 7.433,0 c 1.959,-0.002 3.544,-1.588 3.547,-3.544 l 0,0 0,-6.348 c -0.003,-1.96 -1.588,-3.544 -3.547,-3.546 l 0,0 -7.433,0 c -1.958,0.002 -3.542,1.587 -3.547,3.546 l 0,0 z"
       id="path26"
       inkscape:connector-curvature="0"
       style="fill:#f4f4f4" /></g><g
     id="g28"
     transform="translate(-61.965,-20.602)"><path
       d="m 239.561,201.482 c -0.644,0 -1.167,-0.524 -1.167,-1.168 l 0,0 0,-22.213 c 0,-0.644 0.521,-1.165 1.167,-1.168 l 0,0 22.213,0 c 0.646,0.002 1.168,0.524 1.168,1.168 l 0,0 0,22.213 c -0.001,0.644 -0.522,1.168 -1.168,1.169 l 0,0 -22.213,-0.001 0,0 z m 21.769,-1.609 0,-21.328 -21.326,0 0,21.326 21.326,0.002 0,0 z"
       id="path30"
       inkscape:connector-curvature="0"
       style="fill:#f4f4f4" /><path
       d="m 246.949,197.539 c -2.848,-10e-4 -5.157,-2.31 -5.157,-5.156 l 0,0 0,-6.348 c 0,-2.85 2.309,-5.156 5.157,-5.156 l 0,0 7.434,0 c 2.85,0 5.157,2.307 5.157,5.156 l 0,0 0,6.348 10e-4,0 c -10e-4,2.846 -2.309,5.155 -5.159,5.156 l 0,0 -7.433,0 0,0 z m -3.547,-11.504 0,6.348 c 0.005,1.956 1.59,3.542 3.547,3.544 l 0,0 7.434,0 c 1.959,-0.002 3.543,-1.588 3.547,-3.544 l 0,0 0,-6.348 c -0.003,-1.96 -1.587,-3.544 -3.547,-3.546 l 0,0 -7.434,0 c -1.958,0.002 -3.542,1.587 -3.547,3.546 l 0,0 z"
       id="path32"
       inkscape:connector-curvature="0"
       style="fill:#f4f4f4" /></g><g
     id="g34"
     transform="translate(-61.965,-20.602)"><path
       d="m 263.558,201.482 c -0.645,0 -1.168,-0.524 -1.169,-1.168 l 0,0 10e-4,-22.213 c 0,-0.644 0.521,-1.165 1.168,-1.168 l 0,0 22.213,0 c 0.646,0.002 1.167,0.524 1.167,1.168 l 0,0 0,22.213 c 0,0.644 -0.522,1.168 -1.167,1.169 l 0,0 -22.213,-0.001 0,0 z m 21.769,-1.609 0,-21.328 -21.327,0 0,21.326 21.327,0.002 0,0 z"
       id="path36"
       inkscape:connector-curvature="0"
       style="fill:#f4f4f4" /><path
       d="m 270.946,197.538 c -2.85,0 -5.159,-2.308 -5.159,-5.154 l 0,0 0,-6.348 c 0,-2.85 2.309,-5.156 5.159,-5.156 l 0,0 7.434,0 c 2.848,0 5.157,2.307 5.157,5.156 l 0,0 0,6.348 c -10e-4,2.845 -2.309,5.154 -5.157,5.155 l 0,0 -7.434,-10e-4 0,0 z m -3.548,-11.503 0.002,6.348 c 0.003,1.956 1.589,3.542 3.547,3.544 l 0,0 7.434,0 c 1.958,-0.002 3.542,-1.588 3.544,-3.544 l 0,0 0.002,0 -0.002,-6.348 c -0.002,-1.96 -1.586,-3.544 -3.544,-3.546 l 0,0 -7.435,0 c -1.96,0.002 -3.543,1.587 -3.548,3.546 l 0,0 z"
       id="path38"
       inkscape:connector-curvature="0"
       style="fill:#f4f4f4" /></g><g
     id="g40"
     transform="translate(-61.965,-20.602)"><path
       d="m 287.553,201.482 c -0.645,0 -1.168,-0.524 -1.168,-1.168 l 0,0 0,-22.213 c 0,-0.644 0.521,-1.165 1.168,-1.168 l 0,0 22.212,0 c 0.648,0.002 1.166,0.522 1.167,1.168 l 0,0 0,22.213 c 0,0.646 -0.521,1.168 -1.167,1.169 l 0,0 -22.212,-0.001 0,0 z m 21.768,-1.609 0.002,-21.328 -21.328,0 -10e-4,21.326 21.327,0.002 0,0 z"
       id="path42"
       inkscape:connector-curvature="0"
       style="fill:#f4f4f4" /><path
       d="m 294.942,197.538 c -2.851,0 -5.157,-2.308 -5.159,-5.154 l 0,0 0,-6.348 c 10e-4,-2.85 2.311,-5.156 5.159,-5.156 l 0,0 7.434,0 c 2.848,0 5.156,2.307 5.156,5.156 l 0,0 0,6.348 c 0,2.847 -2.309,5.154 -5.156,5.155 l 0,0 -7.434,-10e-4 0,0 z m -3.547,-11.503 0,6.348 c 0.003,1.956 1.588,3.542 3.547,3.544 l 0,0 7.434,0 c 1.957,-0.002 3.542,-1.588 3.545,-3.544 l 0,0 0.002,0 -0.002,-6.348 c -0.003,-1.96 -1.586,-3.544 -3.545,-3.546 l 0,0 -7.434,0 c -1.959,0.002 -3.544,1.587 -3.547,3.546 l 0,0 z"
       id="path44"
       inkscape:connector-curvature="0"
       style="fill:#f4f4f4" /></g><g
     id="g46"
     transform="translate(-61.965,-20.602)"><path
       d="m 311.549,201.483 c -0.645,-0.002 -1.167,-0.524 -1.169,-1.17 l 0,0 0.002,-22.212 c 0,-0.644 0.521,-1.166 1.167,-1.168 l 0,0 22.213,0 c 0.646,0.002 1.166,0.521 1.168,1.168 l 0,0 0,22.212 -0.002,0 c 0,0.646 -0.522,1.168 -1.166,1.17 l 0,0 -22.213,0 0,0 z m 21.77,-1.61 0,-21.329 -21.327,0 0,21.327 21.327,0.002 0,0 z"
       id="path48"
       inkscape:connector-curvature="0"
       style="fill:#f4f4f4" /><path
       d="m 318.938,197.538 c -2.85,0 -5.159,-2.309 -5.159,-5.155 l 0,0 0,-6.347 c 0,-2.85 2.31,-5.157 5.159,-5.157 l 0,0 7.435,0 c 2.846,0 5.153,2.308 5.153,5.157 l 0,0 0,6.347 0.002,0 c -0.002,2.847 -2.31,5.155 -5.155,5.155 l 0,0 -7.435,0 0,0 z m -3.548,-11.502 0.002,6.347 c 0.003,1.956 1.588,3.541 3.547,3.544 l 0,0 7.435,0 c 1.955,-0.003 3.541,-1.588 3.544,-3.544 l 0,0 0,-6.347 c -0.003,-1.961 -1.589,-3.544 -3.544,-3.547 l 0,0 -7.435,-0.001 c -1.96,0.004 -3.544,1.588 -3.549,3.548 l 0,0 z"
       id="path50"
       inkscape:connector-curvature="0"
       style="fill:#f4f4f4" /></g><g
     id="g52"
     transform="translate(-61.965,-20.602)"><path
       d="m 335.544,201.483 c -0.646,-0.002 -1.168,-0.524 -1.17,-1.169 l 0,0 0.002,-22.213 c 0,-0.645 0.521,-1.167 1.168,-1.169 l 0,0 22.213,0 c 0.646,0.002 1.166,0.523 1.169,1.169 l 0,0 0,22.213 -0.003,0 c 0,0.645 -0.521,1.167 -1.166,1.169 l 0,0 -22.213,0 0,0 z m 21.769,-1.611 0.002,-21.328 -21.329,0 -10e-4,21.328 21.328,0 0,0 z"
       id="path54"
       inkscape:connector-curvature="0"
       style="fill:#f4f4f4" /><path
       d="m 342.933,197.538 c -2.849,0 -5.155,-2.309 -5.155,-5.154 l 0,0 -0.002,-6.348 c 0.002,-2.85 2.309,-5.156 5.157,-5.158 l 0,0 7.434,0.002 c 2.849,0 5.157,2.307 5.157,5.156 l 0,0 0,6.348 0.002,0 c -0.002,2.846 -2.311,5.154 -5.159,5.155 l 0,0 -7.434,-10e-4 0,0 z m -3.547,-11.503 0.002,6.348 c 0.003,1.956 1.587,3.541 3.545,3.544 l 0,0 7.434,0 c 1.958,-0.003 3.543,-1.588 3.547,-3.544 l 0,0 0.002,0 -0.002,-6.348 c -0.004,-1.959 -1.591,-3.543 -3.547,-3.546 l 0,0 -7.434,-0.001 c -1.958,0.004 -3.542,1.588 -3.547,3.547 l 0,0 z"
       id="path56"
       inkscape:connector-curvature="0"
       style="fill:#f4f4f4" /></g><g
     id="g58"
     transform="translate(-61.965,-20.602)"><path
       d="m 359.539,201.482 c -0.645,0 -1.167,-0.522 -1.168,-1.168 l 0,0 0.001,-22.212 c 0.002,-0.647 0.521,-1.166 1.167,-1.17 l 0,0 22.213,0.002 c 0.647,0 1.167,0.524 1.169,1.168 l 0,0 0,22.212 -0.002,0 c 0,0.644 -0.522,1.168 -1.167,1.169 l 0,0 -22.213,-0.001 0,0 z m 21.772,-1.61 0,-21.327 -21.327,0 -0.002,21.327 21.329,0 0,0 z"
       id="path60"
       inkscape:connector-curvature="0"
       style="fill:#f4f4f4" /><path
       d="m 366.929,197.538 c -2.85,0 -5.157,-2.309 -5.157,-5.156 l 0,0 0,-6.347 c 0,-2.849 2.311,-5.156 5.157,-5.156 l 0,0 7.434,0 c 2.849,0 5.157,2.308 5.157,5.156 l 0,0 0,6.347 0.002,0 c -0.002,2.848 -2.311,5.156 -5.159,5.156 l 0,0 -7.434,0 0,0 z m -3.547,-11.503 0,6.347 c 0.005,1.957 1.591,3.542 3.547,3.545 l 0,0 7.434,0 c 1.958,-0.003 3.544,-1.588 3.547,-3.545 l 0,0 0,-6.347 c -0.003,-1.96 -1.589,-3.543 -3.547,-3.546 l 0,0 -7.434,-0.001 c -1.96,0.004 -3.542,1.588 -3.547,3.547 l 0,0 z"
       id="path62"
       inkscape:connector-curvature="0"
       style="fill:#f4f4f4" /></g><g
     id="g64"
     transform="translate(-61.965,-20.602)"><path
       d="m 383.535,201.483 c -0.645,-0.002 -1.165,-0.524 -1.168,-1.169 l 0,0 0,-22.213 c 0,-0.644 0.521,-1.166 1.168,-1.168 l 0,0 22.213,0 c 0.648,0.004 1.166,0.522 1.169,1.168 l 0,0 0,22.213 -0.002,0 c 0,0.646 -0.522,1.169 -1.167,1.169 l 0,0 -22.213,0 0,0 z m 21.772,-1.611 0,-21.328 -21.327,0 0,21.328 21.327,0 0,0 z"
       id="path66"
       inkscape:connector-curvature="0"
       style="fill:#f4f4f4" /><path
       d="m 390.925,197.538 c -2.849,0 -5.156,-2.309 -5.156,-5.156 l 0,0 -0.002,-6.347 c 0.002,-2.849 2.31,-5.156 5.158,-5.157 l 0,0 7.434,0.001 c 2.85,0 5.158,2.308 5.158,5.156 l 0,0 0,6.347 10e-4,0 c -10e-4,2.848 -2.31,5.156 -5.159,5.156 l 0,0 -7.434,0 0,0 z m -3.546,-11.503 0,6.347 c 0.002,1.957 1.588,3.543 3.546,3.544 l 0,0 7.434,0.002 c 1.96,-0.003 3.544,-1.589 3.547,-3.546 l 0,0 0,-6.347 c -0.003,-1.96 -1.588,-3.543 -3.547,-3.546 l 0,0 -7.434,-0.001 c -1.959,0.004 -3.544,1.588 -3.546,3.547 l 0,0 z"
       id="path68"
       inkscape:connector-curvature="0"
       style="fill:#f4f4f4" /></g><g
     id="g70"
     transform="translate(-61.965,-20.602)"><path
       d="m 407.531,201.483 c -0.645,-0.002 -1.165,-0.525 -1.168,-1.168 l 0,0 0.003,-22.213 c 0,-0.646 0.519,-1.168 1.165,-1.17 l 0,0 22.213,0.002 c 0.646,0 1.167,0.522 1.168,1.168 l 0,0 0,22.213 -10e-4,0 c 0,0.643 -0.521,1.166 -1.167,1.168 l 0,0 -22.213,0 0,0 z m 21.769,-1.61 0,-21.329 -21.324,0 -0.002,21.327 21.326,0.002 0,0 z"
       id="path72"
       inkscape:connector-curvature="0"
       style="fill:#f4f4f4" /><path
       d="m 414.921,197.538 c -2.848,0 -5.157,-2.309 -5.157,-5.154 l 0,0 0,-6.348 c 0,-2.848 2.31,-5.156 5.157,-5.158 l 0,0 7.434,0 c 2.849,0 5.156,2.311 5.156,5.158 l 0,0 0,6.348 0.002,0 c -0.002,2.846 -2.31,5.154 -5.158,5.155 l 0,0 -7.434,-10e-4 0,0 z m -3.547,-11.502 0,6.347 c 0.003,1.956 1.587,3.542 3.545,3.544 l 0,0 7.435,0 c 1.96,-0.002 3.543,-1.588 3.547,-3.544 l 0,0 10e-4,0 -10e-4,-6.347 c -0.004,-1.961 -1.589,-3.545 -3.547,-3.547 l 0,0 -7.435,0 c -1.958,0.002 -3.542,1.587 -3.545,3.547 l 0,0 z"
       id="path74"
       inkscape:connector-curvature="0"
       style="fill:#f4f4f4" /></g><g
     id="g76"
     transform="translate(-61.965,-20.602)"><path
       d="m 431.526,201.482 c -0.646,0 -1.166,-0.523 -1.167,-1.169 l 0,0 0.001,-22.212 c 0,-0.644 0.52,-1.167 1.168,-1.169 l 0,0 22.213,0.002 c 0.645,0 1.166,0.522 1.168,1.167 l 0,0 0,22.212 -0.002,0 c 0,0.646 -0.521,1.169 -1.166,1.17 l 0,0 -22.215,-0.001 0,0 z m 21.771,-1.609 10e-4,-21.328 -21.327,-10e-4 -10e-4,21.327 21.327,0.002 0,0 z"
       id="path78"
       inkscape:connector-curvature="0"
       style="fill:#f4f4f4" /><path
       d="m 438.917,197.538 c -2.85,0 -5.155,-2.308 -5.155,-5.155 l 0,0 -0.002,-6.347 c 0.002,-2.848 2.31,-5.156 5.157,-5.157 l 0,0 7.434,0 c 2.849,0.001 5.156,2.31 5.156,5.157 l 0,0 0,6.347 10e-4,0 c -10e-4,2.848 -2.309,5.155 -5.157,5.156 l 0,0 -7.434,-10e-4 0,0 z m -3.547,-11.503 0,6.347 c 0.004,1.958 1.587,3.543 3.547,3.545 l 0,0 7.433,0 c 1.957,-0.002 3.544,-1.588 3.547,-3.545 l 0,0 0,-6.347 c -0.003,-1.96 -1.588,-3.543 -3.547,-3.546 l 0,0 -7.433,-0.001 c -1.96,0.004 -3.543,1.588 -3.547,3.547 l 0,0 z"
       id="path80"
       inkscape:connector-curvature="0"
       style="fill:#f4f4f4" /></g><g
     id="g82"
     transform="translate(-61.965,-20.602)"><path
       d="m 131.248,225.698 c -0.646,0 -1.169,-0.521 -1.169,-1.166 l 0,0 0,-22.213 c 0,-0.646 0.523,-1.167 1.169,-1.169 l 0,0 22.212,0.002 c 0.645,0 1.167,0.521 1.168,1.167 l 0,0 0,22.213 -10e-4,0 c 0,0.646 -0.523,1.166 -1.167,1.168 l 0,0 -22.212,-0.002 0,0 z m 21.768,-1.609 0,-21.327 -21.327,0 0,21.327 21.327,0 0,0 z"
       id="path84"
       inkscape:connector-curvature="0"
       style="fill:#f4f4f4" /><path
       d="m 138.636,221.755 c -2.849,0 -5.157,-2.307 -5.157,-5.155 l 0,0 0,-6.348 c 0,-2.848 2.309,-5.157 5.157,-5.157 l 0,0 7.435,0 c 2.85,0 5.156,2.31 5.157,5.157 l 0,0 0,6.348 c -0.001,2.849 -2.309,5.155 -5.157,5.157 l 0,0 -7.435,-0.002 0,0 z m -3.547,-11.503 0,6.348 c 0.003,1.96 1.587,3.543 3.547,3.545 l 0,0 7.435,0 c 1.96,-0.002 3.542,-1.586 3.545,-3.545 l 0,0 0.002,-6.348 c -0.005,-1.959 -1.59,-3.542 -3.547,-3.547 l 0,0 -7.435,0 c -1.958,0.003 -3.544,1.59 -3.547,3.547 l 0,0 z"
       id="path86"
       inkscape:connector-curvature="0"
       style="fill:#f4f4f4" /></g><g
     id="g88"
     transform="translate(-61.965,-20.602)"><path
       d="m 155.243,225.698 c -0.645,0 -1.168,-0.522 -1.168,-1.166 l 0,0 0,-22.213 c 0,-0.643 0.523,-1.167 1.168,-1.169 l 0,0 22.211,0.002 c 0.645,0 1.168,0.521 1.168,1.167 l 0,0 0,22.213 c 0,0.646 -0.523,1.166 -1.168,1.168 l 0,0 -22.211,-0.002 0,0 z m 21.77,-1.609 0,-21.327 -21.327,0 0,21.327 21.327,0 0,0 z"
       id="path90"
       inkscape:connector-curvature="0"
       style="fill:#f4f4f4" /><path
       d="m 162.631,221.755 c -2.849,0 -5.155,-2.307 -5.157,-5.155 l 0,0 0.001,-6.348 c 0,-2.848 2.307,-5.157 5.155,-5.157 l 0,0 7.435,0 c 2.849,0 5.158,2.31 5.158,5.157 l 0,0 0,6.348 c 0,2.849 -2.309,5.155 -5.158,5.157 l 0,0 -7.434,-0.002 0,0 z m -3.545,-11.503 0,6.348 c 0.004,1.96 1.587,3.543 3.545,3.545 l 0,0 7.435,0.002 c 1.959,-0.004 3.543,-1.588 3.547,-3.547 l 0,0 0,-6.348 c -0.004,-1.959 -1.587,-3.542 -3.547,-3.547 l 0,0 -7.435,0 c -1.958,0.003 -3.541,1.588 -3.545,3.547 l 0,0 z"
       id="path92"
       inkscape:connector-curvature="0"
       style="fill:#f4f4f4" /></g><g
     id="g94"
     transform="translate(-61.965,-20.602)"><path
       d="m 179.238,225.699 c -0.643,-0.001 -1.168,-0.521 -1.168,-1.165 l 0,0 0,-22.214 c 0.001,-0.646 0.523,-1.167 1.168,-1.169 l 0,0 22.213,0 c 0.645,0.002 1.167,0.523 1.168,1.169 l 0,0 0,22.214 c 0,0.643 -0.523,1.165 -1.168,1.165 l 0,0 -22.213,0 0,0 z m 21.77,-1.61 10e-4,-21.328 -21.329,0 0,21.328 21.328,0 0,0 z"
       id="path96"
       inkscape:connector-curvature="0"
       style="fill:#f4f4f4" /><path
       d="m 186.627,221.757 c -2.849,-0.002 -5.157,-2.309 -5.157,-5.157 l 0,0 0,-6.348 c 0,-2.848 2.309,-5.157 5.157,-5.157 l 0,0 7.435,0 c 2.849,0 5.156,2.31 5.156,5.157 l 0,0 0,6.348 c 0,2.849 -2.307,5.155 -5.156,5.157 l 0,0 -7.435,0 0,0 z m -3.545,-11.505 0,6.348 c 0.003,1.96 1.587,3.543 3.546,3.545 l 0,0 7.435,0 c 1.957,-0.002 3.541,-1.586 3.545,-3.545 l 0,0 0.001,-6.348 c -0.004,-1.959 -1.59,-3.542 -3.546,-3.547 l 0,0 -7.435,0 c -1.959,0.003 -3.544,1.588 -3.546,3.547 l 0,0 z"
       id="path98"
       inkscape:connector-curvature="0"
       style="fill:#f4f4f4" /></g><g
     id="g100"
     transform="translate(-61.965,-20.602)"><path
       d="m 203.234,225.698 c -0.645,0 -1.168,-0.521 -1.168,-1.166 l 0,0 0,-22.213 c 0.001,-0.646 0.523,-1.167 1.168,-1.169 l 0,0 22.214,0.002 c 0.644,0 1.167,0.52 1.167,1.167 l 0,0 0,22.213 c 0,0.647 -0.524,1.166 -1.167,1.168 l 0,0 -22.214,-0.002 0,0 z m 21.771,-1.609 0,-21.327 -21.328,0 0,21.327 21.328,0 0,0 z"
       id="path102"
       inkscape:connector-curvature="0"
       style="fill:#f4f4f4" /><path
       d="m 210.623,221.755 c -2.848,0 -5.156,-2.307 -5.157,-5.155 l 0,0 0.001,-6.348 c 0,-2.848 2.308,-5.157 5.156,-5.157 l 0,0 7.435,0 c 2.849,0 5.157,2.31 5.157,5.157 l 0,0 0,6.348 c 0,2.849 -2.309,5.155 -5.157,5.157 l 0,0 -7.435,-0.002 0,0 z m -3.547,-11.503 0,6.348 c 0.005,1.96 1.589,3.543 3.546,3.545 l 0,0 7.435,0 c 1.959,-0.002 3.543,-1.586 3.546,-3.545 l 0,0 0,-6.348 c -0.003,-1.959 -1.588,-3.542 -3.546,-3.547 l 0,0 -7.435,0 c -1.956,0.003 -3.541,1.588 -3.546,3.547 l 0,0 z"
       id="path104"
       inkscape:connector-curvature="0"
       style="fill:#f4f4f4" /></g><g
     id="g106"
     transform="translate(-61.965,-20.602)"><path
       d="m 227.23,225.698 c -0.643,0 -1.167,-0.521 -1.168,-1.166 l 0,0 10e-4,-22.213 c 0,-0.646 0.521,-1.167 1.167,-1.169 l 0,0 22.212,0.002 c 0.646,0 1.167,0.524 1.169,1.167 l 0,0 0,22.213 c -0.002,0.644 -0.525,1.166 -1.169,1.168 l 0,0 -22.212,-0.002 0,0 z m 21.77,-1.609 0.002,-21.327 -21.327,0 0,21.327 21.325,0 0,0 z"
       id="path108"
       inkscape:connector-curvature="0"
       style="fill:#f4f4f4" /><path
       d="m 234.62,221.755 c -2.849,0 -5.158,-2.307 -5.158,-5.155 l 0,0 0,-6.348 c 0,-2.848 2.309,-5.157 5.158,-5.157 l 0,0 7.435,0 c 2.849,0 5.155,2.31 5.155,5.157 l 0,0 0,6.348 c 0,2.849 -2.309,5.155 -5.155,5.157 l 0,0 -7.435,-0.002 0,0 z m -3.547,-11.503 0,6.348 c 0.003,1.96 1.588,3.543 3.547,3.545 l 0,0 7.435,0.002 c 1.958,-0.004 3.542,-1.588 3.545,-3.547 l 0,0 0,-6.348 c -0.003,-1.959 -1.587,-3.542 -3.545,-3.547 l 0,0 -7.435,0 c -1.96,0.003 -3.543,1.588 -3.547,3.547 l 0,0 z"
       id="path110"
       inkscape:connector-curvature="0"
       style="fill:#f4f4f4" /></g><g
     id="g112"
     transform="translate(-61.965,-20.602)"><path
       d="m 251.227,225.698 c -0.644,0 -1.169,-0.521 -1.169,-1.166 l 0,0 0,-22.213 c 0.002,-0.646 0.525,-1.167 1.169,-1.169 l 0,0 22.212,0.002 c 0.646,0 1.167,0.524 1.169,1.167 l 0,0 0,22.213 c -0.002,0.644 -0.523,1.166 -1.169,1.168 l 0,0 -22.212,-0.002 0,0 z m 21.768,-1.609 0,-21.327 -21.326,0 -0.001,21.327 21.327,0 0,0 z"
       id="path114"
       inkscape:connector-curvature="0"
       style="fill:#f4f4f4" /><path
       d="m 258.615,221.755 c -2.848,0 -5.156,-2.307 -5.157,-5.155 l 0,0 0.001,-6.348 c 0,-2.848 2.308,-5.157 5.156,-5.157 l 0,0 7.435,0 c 2.849,0 5.158,2.31 5.158,5.157 l 0,0 0,6.348 c 0,2.849 -2.309,5.155 -5.158,5.157 l 0,0 -7.435,-0.002 0,0 z m -3.546,-11.503 0,6.348 c 0.003,1.96 1.587,3.543 3.546,3.545 l 0,0 7.435,0.002 c 1.959,-0.004 3.543,-1.588 3.547,-3.547 l 0,0 0,-6.348 c -0.003,-1.957 -1.587,-3.542 -3.547,-3.547 l 0,0 -7.435,0 c -1.958,0.003 -3.543,1.588 -3.546,3.547 l 0,0 z"
       id="path116"
       inkscape:connector-curvature="0"
       style="fill:#f4f4f4" /></g><g
     id="g118"
     transform="translate(-61.965,-20.602)"><path
       d="m 275.223,225.698 c -0.644,0 -1.168,-0.52 -1.168,-1.166 l 0,0 0,-22.213 c 10e-4,-0.647 0.525,-1.167 1.168,-1.169 l 0,0 22.213,0.002 c 0.645,0 1.167,0.524 1.168,1.167 l 0,0 0,22.213 -10e-4,0 c 0,0.644 -0.522,1.166 -1.167,1.168 l 0,0 -22.213,-0.002 0,0 z m 21.767,-1.609 10e-4,-21.327 -21.327,0 0,21.327 21.326,0 0,0 z"
       id="path120"
       inkscape:connector-curvature="0"
       style="fill:#f4f4f4" /><path
       d="m 282.611,221.757 c -2.848,-0.002 -5.157,-2.309 -5.157,-5.157 l 0,0 0,-6.348 c 0,-2.848 2.309,-5.157 5.157,-5.157 l 0,0 7.433,0 c 2.849,0 5.158,2.31 5.158,5.157 l 0,0 0,6.348 c 0,2.849 -2.309,5.155 -5.158,5.157 l 0,0 -7.433,0 0,0 z m -3.545,-11.505 0,6.348 c 0.002,1.96 1.587,3.543 3.546,3.545 l 0,0 7.433,0.002 c 1.959,-0.004 3.543,-1.588 3.547,-3.547 l 0,0 0,-6.348 c -0.003,-1.957 -1.588,-3.542 -3.547,-3.547 l 0,0 -7.433,0 c -1.957,0.003 -3.544,1.59 -3.546,3.547 l 0,0 z"
       id="path122"
       inkscape:connector-curvature="0"
       style="fill:#f4f4f4" /></g><g
     id="g124"
     transform="translate(-61.965,-20.602)"><path
       d="m 299.218,225.698 c -0.645,0 -1.167,-0.52 -1.168,-1.166 l 0,0 0,-22.213 c 0,-0.647 0.523,-1.167 1.168,-1.169 l 0,0 22.211,0.002 c 0.646,0 1.167,0.524 1.169,1.167 l 0,0 0,22.213 -0.002,0 c 0,0.644 -0.521,1.166 -1.167,1.168 l 0,0 -22.211,-0.002 0,0 z m 21.768,-1.609 0.001,-21.327 -21.326,0 0,21.327 21.325,0 0,0 z"
       id="path126"
       inkscape:connector-curvature="0"
       style="fill:#f4f4f4" /><path
       d="m 306.606,221.755 c -2.848,0 -5.157,-2.307 -5.157,-5.155 l 0,0 0,-6.348 c 0,-2.848 2.31,-5.157 5.157,-5.157 l 0,0 7.436,0 c 2.849,0 5.155,2.31 5.157,5.157 l 0,0 0,6.348 c -0.002,2.849 -2.311,5.155 -5.157,5.157 l 0,0 -7.436,-0.002 0,0 z m -3.546,-11.503 0,6.348 c 0.004,1.96 1.588,3.543 3.547,3.545 l 0,0 7.434,0.002 c 1.958,-0.004 3.544,-1.588 3.547,-3.547 l 0,0 0,-6.348 c -0.003,-1.957 -1.589,-3.542 -3.547,-3.547 l 0,0 -7.434,0 c -1.958,0.003 -3.544,1.59 -3.547,3.547 l 0,0 z"
       id="path128"
       inkscape:connector-curvature="0"
       style="fill:#f4f4f4" /></g><g
     id="g130"
     transform="translate(-61.965,-20.602)"><path
       d="m 323.214,225.699 c -0.646,-0.001 -1.166,-0.523 -1.168,-1.167 l 0,0 0,-22.212 c 0.002,-0.644 0.522,-1.167 1.168,-1.169 l 0,0 22.212,0 c 0.645,0.002 1.167,0.525 1.169,1.169 l 0,0 0,22.212 -0.002,0 c 0,0.644 -0.522,1.166 -1.167,1.167 l 0,0 -22.212,0 0,0 z m 21.768,-1.61 0,-21.326 -21.325,-0.002 -0.002,21.327 21.327,0.001 0,0 z"
       id="path132"
       inkscape:connector-curvature="0"
       style="fill:#f4f4f4" /><path
       d="m 330.603,221.755 c -2.849,0 -5.155,-2.307 -5.157,-5.156 l 0,0 0.002,-6.347 c 0,-2.847 2.307,-5.156 5.155,-5.156 l 0,0 7.436,0 c 2.847,0 5.154,2.308 5.155,5.156 l 0,0 0,6.347 c -0.001,2.85 -2.31,5.156 -5.155,5.158 l 0,0 -7.436,-0.002 0,0 z m -3.547,-11.503 0,6.347 c 0.004,1.96 1.587,3.542 3.547,3.546 l 0,0 7.434,0 c 1.958,-0.004 3.543,-1.587 3.545,-3.546 l 0,0 0.002,-6.347 c -0.004,-1.957 -1.589,-3.541 -3.547,-3.546 l 0,0 -7.434,0 c -1.96,0.004 -3.543,1.587 -3.547,3.546 l 0,0 z"
       id="path134"
       inkscape:connector-curvature="0"
       style="fill:#f4f4f4" /></g><g
     id="g136"
     transform="translate(-61.965,-20.602)"><path
       d="m 347.211,225.699 c -0.646,-0.001 -1.167,-0.523 -1.168,-1.166 l 0,0 0,-22.214 c 10e-4,-0.645 0.522,-1.166 1.168,-1.168 l 0,0 22.211,0 c 0.645,0.002 1.167,0.523 1.169,1.168 l 0,0 0,22.214 -0.002,0 c 0,0.643 -0.522,1.165 -1.167,1.166 l 0,0 -22.211,0 0,0 z m 21.768,-1.61 0.002,-21.327 -21.327,0 0,21.327 21.325,0 0,0 z"
       id="path138"
       inkscape:connector-curvature="0"
       style="fill:#f4f4f4" /><path
       d="m 354.6,221.754 c -2.848,0 -5.158,-2.307 -5.158,-5.154 l 0,0 0,-6.346 c 0,-2.85 2.308,-5.159 5.158,-5.159 l 0,0 7.433,0 c 2.85,0 5.156,2.31 5.158,5.159 l 0,0 0,6.346 c -0.002,2.848 -2.311,5.154 -5.158,5.157 l 0,0 -7.433,-0.003 0,0 z m -3.547,-11.5 0,6.346 c 0.004,1.961 1.587,3.541 3.547,3.546 l 0,0 7.433,0 c 1.959,-0.005 3.542,-1.586 3.546,-3.546 l 0,0 0,-6.346 c -0.004,-1.96 -1.589,-3.543 -3.546,-3.548 l 0,0 -7.433,-0.002 c -1.959,0.006 -3.543,1.59 -3.547,3.55 l 0,0 z"
       id="path140"
       inkscape:connector-curvature="0"
       style="fill:#f4f4f4" /></g><g
     id="g142"
     transform="translate(-61.965,-20.602)"><path
       d="m 371.207,225.699 c -0.645,-0.001 -1.168,-0.522 -1.17,-1.167 l 0,0 0.002,-22.213 c 0,-0.643 0.523,-1.167 1.168,-1.169 l 0,0 22.213,0.002 c 0.644,0 1.165,0.524 1.166,1.167 l 0,0 0,22.213 -0.001,0 c 0,0.645 -0.521,1.166 -1.165,1.167 l 0,0 -22.213,0 0,0 z m 21.769,-1.61 0,-21.327 -21.326,0 0,21.326 21.326,0.001 0,0 z"
       id="path144"
       inkscape:connector-curvature="0"
       style="fill:#f4f4f4" /><path
       d="m 378.596,221.757 c -2.851,0 -5.158,-2.31 -5.159,-5.157 l 0,0 10e-4,-6.348 c 0,-2.848 2.308,-5.157 5.158,-5.157 l 0,0 7.433,0 c 2.849,0 5.156,2.31 5.156,5.157 l 0,0 0,6.348 c 0,2.848 -2.308,5.157 -5.157,5.157 l 0,0 -7.432,0 0,0 z m -3.547,-11.505 0,6.348 c 0.002,1.959 1.587,3.542 3.547,3.545 l 0,0 7.433,0 c 1.961,-0.003 3.542,-1.587 3.546,-3.545 l 0,0 0,-6.348 c -0.004,-1.958 -1.587,-3.542 -3.546,-3.547 l 0,0 -7.433,0 c -1.958,0.003 -3.545,1.589 -3.547,3.547 l 0,0 z"
       id="path146"
       inkscape:connector-curvature="0"
       style="fill:#f4f4f4" /></g><g
     id="g148"
     transform="translate(-61.965,-20.602)"><path
       d="m 395.202,225.698 c -0.646,0 -1.168,-0.522 -1.169,-1.166 l 0,0 10e-4,-22.213 c 0,-0.645 0.522,-1.166 1.168,-1.168 l 0,0 22.214,0 c 0.645,0.002 1.165,0.525 1.167,1.168 l 0,0 0,22.213 -0.002,0 c 0,0.644 -0.521,1.166 -1.165,1.168 l 0,0 -22.214,-0.002 0,0 z m 21.769,-1.609 10e-4,-21.328 -21.327,0 0,21.328 21.326,0 0,0 z"
       id="path150"
       inkscape:connector-curvature="0"
       style="fill:#f4f4f4" /><path
       d="m 402.589,221.757 c -2.848,-0.002 -5.157,-2.309 -5.157,-5.157 l 0,0 0,-6.347 c 0,-2.849 2.31,-5.158 5.157,-5.158 l 0,0 7.437,0 c 2.846,0 5.155,2.31 5.155,5.158 l 0,0 0,6.347 c 0,2.849 -2.31,5.155 -5.155,5.157 l 0,0 -7.437,0 0,0 z m -3.545,-11.504 0,6.347 c 0.004,1.959 1.588,3.542 3.545,3.546 l 0,0 7.437,0 c 1.958,-0.004 3.543,-1.588 3.545,-3.546 l 0,0 0.002,-6.347 c -0.004,-1.958 -1.591,-3.542 -3.547,-3.548 l 0,0 -7.437,0 c -1.957,0.005 -3.541,1.59 -3.545,3.548 l 0,0 z"
       id="path152"
       inkscape:connector-curvature="0"
       style="fill:#f4f4f4" /></g><g
     id="g154"
     transform="translate(-61.965,-20.602)"><path
       d="m 419.196,225.699 c -0.645,-0.002 -1.166,-0.522 -1.167,-1.167 l 0,0 0,-22.214 c 10e-4,-0.642 0.522,-1.166 1.167,-1.168 l 0,0 22.213,0.002 c 0.643,0 1.168,0.52 1.17,1.166 l 0,0 0,22.214 -0.002,0 c 0,0.646 -0.525,1.165 -1.168,1.167 l 0,0 -22.213,0 0,0 z m 21.771,-1.61 0.002,-21.326 -21.327,-0.002 -0.002,21.327 21.327,0.001 0,0 z"
       id="path156"
       inkscape:connector-curvature="0"
       style="fill:#f4f4f4" /><path
       d="m 426.586,221.757 c -2.849,-0.002 -5.156,-2.309 -5.156,-5.157 l 0,0 0,-6.347 c 0,-2.85 2.308,-5.157 5.156,-5.159 l 0,0 7.435,0 c 2.848,0.002 5.155,2.31 5.156,5.159 l 0,0 0,6.347 c -0.001,2.849 -2.309,5.155 -5.156,5.157 l 0,0 -7.435,0 0,0 z m -3.546,-11.504 0,6.347 c 0.004,1.96 1.587,3.541 3.546,3.545 l 0,0 7.435,0 c 1.957,-0.004 3.541,-1.586 3.546,-3.545 l 0,0 0,-6.347 c -0.005,-1.959 -1.589,-3.542 -3.546,-3.547 l 0,0 -7.435,0 c -1.957,0.004 -3.542,1.588 -3.546,3.547 l 0,0 z"
       id="path158"
       inkscape:connector-curvature="0"
       style="fill:#f4f4f4" /></g><g
     id="g160"
     transform="translate(-61.965,-20.602)"><path
       d="m 444.099,225.698 c -0.646,0 -1.166,-0.52 -1.169,-1.165 l 0,0 0,-22.215 c 0,-0.646 0.523,-1.167 1.169,-1.167 l 0,0 22.214,0 c 0.644,0.002 1.167,0.523 1.169,1.167 l 0,0 0,22.215 -0.002,0 c 0,0.643 -0.523,1.165 -1.167,1.167 l 0,0 -22.214,-0.002 0,0 z m 21.769,-1.609 0,-21.326 -21.326,-0.002 -10e-4,21.328 21.327,0 0,0 z"
       id="path162"
       inkscape:connector-curvature="0"
       style="fill:#f4f4f4" /><path
       d="m 451.487,221.755 c -2.848,0 -5.155,-2.308 -5.155,-5.155 l 0,0 0,-6.347 c 0,-2.85 2.308,-5.157 5.155,-5.159 l 0,0 7.437,0 c 2.848,0.002 5.155,2.31 5.155,5.159 l 0,0 0,6.347 c 0,2.848 -2.308,5.155 -5.155,5.157 l 0,0 -7.437,-0.002 0,0 z m -3.545,-11.502 0,6.347 c 0.004,1.961 1.587,3.541 3.545,3.545 l 0,0 7.437,0 c 1.957,-0.004 3.541,-1.585 3.545,-3.545 l 0,0 0.001,-6.347 c -0.005,-1.959 -1.589,-3.543 -3.546,-3.548 l 0,0 -7.437,0 c -1.956,0.003 -3.541,1.589 -3.545,3.548 l 0,0 z"
       id="path164"
       inkscape:connector-curvature="0"
       style="fill:#f4f4f4" /></g><g
     id="g166"
     transform="translate(-61.965,-20.602)"><path
       d="m 137.533,249.917 c -0.647,0 -1.168,-0.521 -1.169,-1.167 l 0,0 0,-22.212 c 0.001,-0.644 0.525,-1.167 1.169,-1.169 l 0,0 22.212,0 c 0.644,0.002 1.168,0.525 1.169,1.169 l 0,0 0,22.212 -10e-4,0 c 0,0.646 -0.521,1.166 -1.168,1.168 l 0,0 -22.212,-0.001 0,0 z m 21.771,-1.609 0,-21.328 -21.329,0 0,21.326 21.329,0.002 0,0 z"
       id="path168"
       inkscape:connector-curvature="0"
       style="fill:#f4f4f4" /><path
       d="m 144.923,245.974 c -2.849,0 -5.158,-2.309 -5.158,-5.157 l 0,0 0,-6.347 c 0,-2.849 2.309,-5.155 5.158,-5.157 l 0,0 7.433,0.002 c 2.85,0 5.157,2.307 5.158,5.155 l 0,0 0,6.347 c -0.001,2.848 -2.309,5.157 -5.158,5.158 l 0,0 -7.433,-0.001 0,0 z m -3.548,-11.504 0,6.347 c 0.003,1.959 1.588,3.543 3.547,3.547 l 0,0 7.434,0 c 1.957,-0.004 3.542,-1.589 3.547,-3.547 l 0,0 -0.002,-6.347 c -0.003,-1.958 -1.588,-3.542 -3.545,-3.546 l 0,0 -7.434,0 c -1.958,0.003 -3.544,1.588 -3.547,3.546 l 0,0 z"
       id="path170"
       inkscape:connector-curvature="0"
       style="fill:#f4f4f4" /></g><g
     id="g172"
     transform="translate(-61.965,-20.602)"><path
       d="m 161.529,249.918 c -0.647,-0.002 -1.167,-0.521 -1.169,-1.168 l 0,0 0,-22.211 c 0,-0.647 0.525,-1.169 1.169,-1.169 l 0,0 22.213,0 c 0.645,0 1.167,0.522 1.168,1.169 l 0,0 0,22.211 -0.001,0 c 0,0.647 -0.521,1.166 -1.167,1.168 l 0,0 -22.213,0 0,0 z m 21.77,-1.61 0,-21.328 -21.328,0 0,21.328 21.328,0 0,0 z"
       id="path174"
       inkscape:connector-curvature="0"
       style="fill:#f4f4f4" /><path
       d="m 168.918,245.974 c -2.849,0 -5.159,-2.31 -5.159,-5.157 l 0,0 0,-6.347 c 0,-2.849 2.31,-5.155 5.159,-5.157 l 0,0 7.433,0.002 c 2.849,0 5.156,2.307 5.158,5.155 l 0,0 0,6.347 c -0.002,2.848 -2.309,5.157 -5.158,5.158 l 0,0 -7.433,-0.001 0,0 z m -3.547,-11.504 0,6.347 c 0.005,1.959 1.588,3.543 3.548,3.547 l 0,0 7.433,0 c 1.958,-0.004 3.543,-1.589 3.547,-3.547 l 0,0 -0.001,-6.347 c -0.003,-1.958 -1.588,-3.542 -3.546,-3.546 l 0,0 -7.433,0 c -1.96,0.003 -3.544,1.588 -3.548,3.546 l 0,0 z"
       id="path176"
       inkscape:connector-curvature="0"
       style="fill:#f4f4f4" /></g><g
     id="g178"
     transform="translate(-61.965,-20.602)"><path
       d="m 185.525,249.917 c -0.647,0 -1.168,-0.521 -1.169,-1.167 l 0,0 0.001,-22.212 c 0,-0.644 0.522,-1.167 1.168,-1.169 l 0,0 22.213,0 c 0.644,0.002 1.167,0.522 1.167,1.169 l 0,0 0,22.212 c -0.001,0.647 -0.522,1.164 -1.167,1.168 l 0,0 -22.213,-0.001 0,0 z m 21.769,-1.609 0,-21.328 -21.328,0 0,21.326 21.328,0.002 0,0 z"
       id="path180"
       inkscape:connector-curvature="0"
       style="fill:#f4f4f4" /><path
       d="m 192.914,245.975 c -2.85,-0.001 -5.158,-2.31 -5.158,-5.158 l 0,0 0,-6.347 c 0,-2.849 2.309,-5.155 5.158,-5.157 l 0,0 7.434,0 c 2.848,0.002 5.157,2.309 5.157,5.157 l 0,0 0,6.347 c 0,2.849 -2.309,5.157 -5.157,5.158 l 0,0 -7.434,0 0,0 z m -3.548,-11.505 0,6.347 c 0.005,1.959 1.59,3.543 3.548,3.547 l 0,0 7.434,0 c 1.957,-0.004 3.541,-1.589 3.547,-3.547 l 0,0 0,-6.347 c -0.005,-1.958 -1.59,-3.542 -3.547,-3.546 l 0,0 -7.434,0 c -1.958,0.003 -3.543,1.588 -3.548,3.546 l 0,0 z"
       id="path182"
       inkscape:connector-curvature="0"
       style="fill:#f4f4f4" /></g><g
     id="g184"
     transform="translate(-61.965,-20.602)"><path
       d="m 209.522,249.917 c -0.648,-0.002 -1.167,-0.52 -1.169,-1.167 l 0,0 0,-22.212 c 0,-0.646 0.523,-1.167 1.169,-1.169 l 0,0 22.211,0 c 0.644,0.002 1.168,0.525 1.168,1.169 l 0,0 0,22.212 c 0,0.646 -0.522,1.166 -1.168,1.168 l 0,0 -22.211,-0.001 0,0 z m 21.768,-1.609 0.001,-21.328 -21.328,0 0,21.326 21.327,0.002 0,0 z"
       id="path186"
       inkscape:connector-curvature="0"
       style="fill:#f4f4f4" /><path
       d="m 216.91,245.974 c -2.85,0 -5.157,-2.31 -5.158,-5.157 l 0,0 0,-6.347 c 10e-4,-2.849 2.309,-5.155 5.158,-5.157 l 0,0 7.435,0.002 c 2.848,0 5.155,2.309 5.156,5.155 l 0,0 0,6.347 c -0.001,2.848 -2.309,5.157 -5.156,5.158 l 0,0 -7.435,-0.001 0,0 z m -3.547,-11.504 0,6.347 c 0.004,1.959 1.589,3.543 3.547,3.547 l 0,0 7.435,0 c 1.958,-0.004 3.542,-1.589 3.544,-3.547 l 0,0 0,-6.347 c -0.003,-1.958 -1.586,-3.542 -3.544,-3.546 l 0,0 -7.435,0 c -1.958,0.003 -3.543,1.588 -3.547,3.546 l 0,0 z"
       id="path188"
       inkscape:connector-curvature="0"
       style="fill:#f4f4f4" /></g><g
     id="g190"
     transform="translate(-61.965,-20.602)"><path
       d="m 233.516,249.918 c -0.646,-0.002 -1.166,-0.521 -1.167,-1.168 l 0,0 0,-22.211 c 0.001,-0.646 0.523,-1.169 1.167,-1.169 l 0,0 22.213,0 c 0.646,0 1.167,0.522 1.167,1.169 l 0,0 0,22.211 c -0.001,0.647 -0.52,1.166 -1.167,1.168 l 0,0 -22.213,0 0,0 z m 21.769,-1.61 0.002,-21.328 -21.329,0 0,21.328 21.327,0 0,0 z"
       id="path192"
       inkscape:connector-curvature="0"
       style="fill:#f4f4f4" /><path
       d="m 240.906,245.975 c -2.85,-0.001 -5.156,-2.311 -5.159,-5.158 l 0,0 0,-6.347 c 0.002,-2.849 2.309,-5.155 5.159,-5.157 l 0,0 7.435,0.002 c 2.847,0 5.156,2.307 5.156,5.155 l 0,0 0,6.347 c 0,2.848 -2.309,5.157 -5.156,5.158 l 0,0 -7.435,0 0,0 z m -3.548,-11.505 0,6.347 c 0.005,1.959 1.59,3.543 3.548,3.547 l 0,0 7.435,0 c 1.958,-0.004 3.541,-1.589 3.546,-3.547 l 0,0 -0.001,-6.347 c -0.003,-1.958 -1.586,-3.542 -3.544,-3.546 l 0,0 -7.435,0 c -1.961,0.003 -3.544,1.588 -3.549,3.546 l 0,0 z"
       id="path194"
       inkscape:connector-curvature="0"
       style="fill:#f4f4f4" /></g><g
     id="g196"
     transform="translate(-61.965,-20.602)"><path
       d="m 257.513,249.917 c -0.647,0 -1.167,-0.521 -1.169,-1.167 l 0,0 0.002,-22.212 c 0,-0.644 0.521,-1.167 1.167,-1.169 l 0,0 22.212,0 c 0.644,0.002 1.167,0.525 1.167,1.169 l 0,0 0,22.212 c 0,0.646 -0.52,1.166 -1.167,1.168 l 0,0 -22.212,-0.001 0,0 z m 21.768,-1.609 10e-4,-21.328 -21.328,0 0,21.326 21.327,0.002 0,0 z"
       id="path198"
       inkscape:connector-curvature="0"
       style="fill:#f4f4f4" /><path
       d="m 264.902,245.975 c -2.849,-0.001 -5.156,-2.311 -5.156,-5.158 l 0,0 -10e-4,-6.347 c 10e-4,-2.847 2.309,-5.155 5.159,-5.157 l 0,0 7.435,0.002 c 2.848,0 5.155,2.309 5.155,5.155 l 0,0 0,6.347 c 0,2.848 -2.309,5.157 -5.155,5.158 l 0,0 -7.437,0 0,0 z m -3.547,-11.505 0,6.347 c 0.003,1.959 1.586,3.543 3.546,3.547 l 0,0 7.436,0 c 1.958,-0.004 3.541,-1.589 3.545,-3.547 l 0,0 -0.001,-6.347 c -0.003,-1.958 -1.586,-3.542 -3.544,-3.546 l 0,0 -7.436,0 c -1.959,0.003 -3.542,1.588 -3.546,3.546 l 0,0 z"
       id="path200"
       inkscape:connector-curvature="0"
       style="fill:#f4f4f4" /></g><g
     id="g202"
     transform="translate(-61.965,-20.602)"><path
       d="m 281.508,249.917 c -0.646,0 -1.166,-0.521 -1.167,-1.167 l 0,0 0,-22.212 c 10e-4,-0.644 0.523,-1.167 1.167,-1.169 l 0,0 22.214,0 c 0.646,0.002 1.164,0.525 1.166,1.169 l 0,0 0,22.212 c -0.002,0.644 -0.52,1.164 -1.166,1.168 l 0,0 -22.214,-0.001 0,0 z m 21.769,-1.609 0,-21.328 -21.326,0 0,21.326 21.326,0.002 0,0 z"
       id="path204"
       inkscape:connector-curvature="0"
       style="fill:#f4f4f4" /><path
       d="m 288.897,245.975 c -2.847,-0.001 -5.156,-2.31 -5.156,-5.158 l 0,0 -10e-4,-6.347 c 10e-4,-2.849 2.311,-5.155 5.158,-5.157 l 0,0 7.434,0 c 2.849,0.002 5.158,2.309 5.158,5.157 l 0,0 0,6.347 c 0,2.849 -2.309,5.157 -5.158,5.158 l 0,0 -7.435,0 0,0 z m -3.546,-11.505 0,6.347 c 0.003,1.959 1.589,3.543 3.546,3.547 l 0,0 7.433,0 c 1.958,-0.004 3.544,-1.589 3.547,-3.547 l 0,0 0,-6.347 c -0.003,-1.958 -1.589,-3.542 -3.547,-3.546 l 0,0 -7.433,0 c -1.958,0.003 -3.543,1.588 -3.546,3.546 l 0,0 z"
       id="path206"
       inkscape:connector-curvature="0"
       style="fill:#f4f4f4" /></g><g
     id="g208"
     transform="translate(-61.965,-20.602)"><path
       d="m 305.505,249.917 c -0.648,0 -1.168,-0.521 -1.17,-1.167 l 0,0 0.002,-22.212 c 0,-0.644 0.521,-1.167 1.168,-1.169 l 0,0 22.213,0 c 0.645,0 1.166,0.522 1.167,1.169 l 0,0 0,22.212 -10e-4,0 c -0.002,0.647 -0.521,1.164 -1.166,1.168 l 0,0 -22.213,-0.001 0,0 z m 21.769,-1.609 0,-21.328 -21.328,0 0,21.326 21.328,0.002 0,0 z"
       id="path210"
       inkscape:connector-curvature="0"
       style="fill:#f4f4f4" /><path
       d="m 312.892,245.974 c -2.848,0 -5.154,-2.31 -5.154,-5.157 l 0,0 -0.003,-6.347 c 0.003,-2.847 2.31,-5.155 5.157,-5.157 l 0,0 7.436,0.002 c 2.847,0 5.156,2.307 5.156,5.155 l 0,0 0,6.347 c 0,2.849 -2.31,5.157 -5.156,5.158 l 0,0 -7.436,-0.001 0,0 z m -3.545,-11.504 0,6.347 c 0.004,1.959 1.589,3.543 3.545,3.547 l 0,0 7.436,0 c 1.956,-0.004 3.542,-1.589 3.545,-3.547 l 0,0 0,-6.347 c -0.003,-1.958 -1.59,-3.542 -3.545,-3.546 l 0,0 -7.436,0 c -1.956,0.003 -3.541,1.588 -3.545,3.546 l 0,0 z"
       id="path212"
       inkscape:connector-curvature="0"
       style="fill:#f4f4f4" /></g><g
     id="g214"
     transform="translate(-61.965,-20.602)"><path
       d="m 329.501,249.917 c -0.646,0 -1.17,-0.52 -1.171,-1.167 l 0,0 0.001,-22.212 c 0,-0.646 0.524,-1.167 1.17,-1.169 l 0,0 22.211,0 c 0.646,0.002 1.166,0.525 1.168,1.169 l 0,0 0,22.212 c 0,0.646 -0.521,1.166 -1.168,1.168 l 0,0 -22.211,-0.001 0,0 z m 21.769,-1.609 0,-21.328 -21.327,0 -0.002,21.326 21.329,0.002 0,0 z"
       id="path216"
       inkscape:connector-curvature="0"
       style="fill:#f4f4f4" /><path
       d="m 336.888,245.975 c -2.849,-0.001 -5.155,-2.31 -5.155,-5.158 l 0,0 -0.002,-6.347 c 0.002,-2.849 2.309,-5.155 5.157,-5.157 l 0,0 7.434,0 c 2.849,0.002 5.157,2.311 5.157,5.157 l 0,0 0,6.347 c 0,2.848 -2.309,5.157 -5.157,5.158 l 0,0 -7.434,0 0,0 z m -3.547,-11.505 0,6.347 c 0.006,1.959 1.591,3.543 3.547,3.547 l 0,0 7.434,0 c 1.96,-0.004 3.544,-1.589 3.547,-3.547 l 0,0 -0.002,-6.347 c -0.001,-1.958 -1.587,-3.542 -3.545,-3.546 l 0,0 -7.434,0 c -1.956,0.003 -3.541,1.588 -3.547,3.546 l 0,0 z"
       id="path218"
       inkscape:connector-curvature="0"
       style="fill:#f4f4f4" /></g><g
     id="g220"
     transform="translate(-61.965,-20.602)"><path
       d="m 353.495,249.917 c -0.646,0 -1.167,-0.521 -1.169,-1.167 l 0,0 0.002,-22.212 c 0,-0.643 0.523,-1.167 1.167,-1.17 l 0,0 22.212,0 c 0.644,0.003 1.169,0.527 1.171,1.17 l 0,0 0,22.212 -0.002,0 c 0,0.645 -0.522,1.166 -1.169,1.168 l 0,0 -22.212,-0.001 0,0 z m 21.771,-1.609 10e-4,-21.327 -21.326,-0.002 -0.002,21.327 21.327,0.002 0,0 z"
       id="path222"
       inkscape:connector-curvature="0"
       style="fill:#f4f4f4" /><path
       d="m 360.886,245.975 c -2.85,0 -5.155,-2.311 -5.155,-5.157 l 0,0 -0.004,-6.347 c 0.004,-2.85 2.31,-5.156 5.159,-5.158 l 0,0 7.434,0.002 c 2.848,0 5.156,2.307 5.156,5.156 l 0,0 0,6.347 c 0,2.847 -2.309,5.157 -5.156,5.157 l 0,0 -7.434,0 0,0 z m -3.547,-11.504 0,6.347 c 0.003,1.958 1.587,3.542 3.547,3.545 l 0,0 7.434,0.002 c 1.957,-0.005 3.54,-1.59 3.544,-3.547 l 0,0 0,-6.347 c -0.004,-1.959 -1.587,-3.544 -3.544,-3.546 l 0,0 -7.434,0 c -1.96,0.002 -3.544,1.587 -3.547,3.546 l 0,0 z"
       id="path224"
       inkscape:connector-curvature="0"
       style="fill:#f4f4f4" /></g><g
     id="g226"
     transform="translate(-61.965,-20.602)"><path
       d="m 377.49,249.918 c -0.647,-0.002 -1.165,-0.521 -1.168,-1.168 l 0,0 0.002,-22.212 c 0,-0.646 0.521,-1.169 1.166,-1.169 l 0,0 22.213,0 c 0.646,0.002 1.169,0.524 1.169,1.169 l 0,0 0,22.212 c 0,0.646 -0.522,1.165 -1.169,1.167 l 0,0 -22.213,0.001 0,0 z m 21.771,-1.61 0.002,-21.327 -21.33,0 0,21.327 21.328,0 0,0 z"
       id="path228"
       inkscape:connector-curvature="0"
       style="fill:#f4f4f4" /><path
       d="m 384.881,245.975 c -2.851,0 -5.157,-2.31 -5.157,-5.158 l 0,0 0,-6.347 c 0,-2.848 2.307,-5.155 5.157,-5.157 l 0,0 7.435,0.002 c 2.847,0 5.156,2.308 5.156,5.155 l 0,0 0,6.347 c 0,2.849 -2.31,5.158 -5.156,5.158 l 0,0 -7.435,0 0,0 z m -3.547,-11.505 0,6.347 c 0.003,1.959 1.589,3.544 3.547,3.547 l 0,0 7.435,0 c 1.957,-0.003 3.542,-1.589 3.547,-3.547 l 0,0 -10e-4,-6.347 c -0.004,-1.957 -1.591,-3.542 -3.546,-3.545 l 0,0 -7.435,-0.002 c -1.958,0.004 -3.544,1.59 -3.547,3.547 l 0,0 z"
       id="path230"
       inkscape:connector-curvature="0"
       style="fill:#f4f4f4" /></g><g
     id="g232"
     transform="translate(-61.965,-20.602)"><path
       d="m 401.487,249.917 c -0.647,0 -1.169,-0.521 -1.169,-1.167 l 0,0 0,-22.212 c 0.003,-0.643 0.523,-1.167 1.169,-1.169 l 0,0 36.719,0 c 0.646,0 1.167,0.522 1.169,1.169 l 0,0 0,22.212 -0.002,0 c -10e-4,0.647 -0.521,1.165 -1.167,1.169 l 0,0 -36.719,-0.002 0,0 z m 36.276,-1.609 0,-21.328 -35.834,-0.002 0,21.327 35.834,0.003 0,0 z"
       id="path234"
       inkscape:connector-curvature="0"
       style="fill:#f4f4f4" /><path
       d="m 408.876,245.975 c -2.848,0 -5.157,-2.311 -5.157,-5.157 l 0,0 0,-6.347 c 0,-2.849 2.31,-5.156 5.157,-5.156 l 0,0 21.943,0 c 2.846,0 5.155,2.308 5.155,5.156 l 0,0 0,6.347 c 0,2.848 -2.31,5.157 -5.155,5.157 l 0,0 -21.943,0 0,0 z m -3.547,-11.504 0,6.347 c 0.005,1.958 1.589,3.542 3.549,3.546 l 0,0 21.941,0 c 1.956,-0.004 3.54,-1.589 3.543,-3.546 l 0,0 0,-6.347 c -0.003,-1.958 -1.589,-3.544 -3.543,-3.547 l 0,0 -21.941,0 c -1.961,0.003 -3.544,1.587 -3.549,3.547 l 0,0 z"
       id="path236"
       inkscape:connector-curvature="0"
       style="fill:#f4f4f4" /></g><g
     id="g238"
     transform="translate(-61.965,-20.602)"><path
       d="m 439.99,249.918 c -0.646,-0.002 -1.168,-0.522 -1.168,-1.168 l 0,0 0,-22.212 c 0,-0.646 0.522,-1.167 1.168,-1.169 l 0,0 22.213,0 c 0.645,0.002 1.166,0.523 1.166,1.169 l 0,0 0,22.212 c 0,0.646 -0.52,1.166 -1.166,1.168 l 0,0 -22.213,0 0,0 z m 21.769,-1.61 0.002,-21.328 -21.327,0 -0.001,21.326 21.326,0.002 0,0 z"
       id="path240"
       inkscape:connector-curvature="0"
       style="fill:#f4f4f4" /><path
       d="m 447.38,245.975 c -2.851,0 -5.158,-2.31 -5.158,-5.156 l 0,0 -0.002,-6.348 c 0.002,-2.849 2.31,-5.157 5.16,-5.157 l 0,0 7.434,0 c 2.847,0 5.156,2.309 5.156,5.157 l 0,0 0,6.348 c 0,2.847 -2.31,5.156 -5.156,5.156 l 0,0 -7.434,0 0,0 z m -3.549,-11.504 0,6.348 c 0.005,1.956 1.59,3.542 3.549,3.545 l 0,0 7.434,0 c 1.957,-0.003 3.542,-1.59 3.546,-3.545 l 0,0 -0.003,-6.348 c -0.001,-1.959 -1.586,-3.543 -3.542,-3.546 l 0,0 -7.435,-0.002 c -1.959,0.004 -3.544,1.589 -3.549,3.548 l 0,0 z"
       id="path242"
       inkscape:connector-curvature="0"
       style="fill:#f4f4f4" /></g><g
     id="g244"
     transform="translate(-61.965,-20.602)"><path
       d="m 137.472,274.136 c -0.644,0 -1.168,-0.523 -1.168,-1.17 l 0,0 0,-22.212 c 0.002,-0.645 0.521,-1.167 1.168,-1.167 l 0,0 34.905,0 c 0.646,0 1.169,0.522 1.169,1.167 l 0,0 0,22.212 c 0,0.646 -0.524,1.168 -1.169,1.17 l 0,0 -34.905,0 0,0 z m 34.464,-1.611 0,-21.329 -34.02,0 -0.002,21.329 34.022,0 0,0 z"
       id="path246"
       inkscape:connector-curvature="0"
       style="fill:#f4f4f4" /><path
       d="m 144.861,270.19 c -2.849,0 -5.156,-2.309 -5.156,-5.155 l 0,0 0,-6.347 c 0,-2.85 2.307,-5.158 5.156,-5.158 l 0,0 20.128,0 c 2.849,0 5.156,2.309 5.156,5.158 l 0,0 0,6.347 c 0,2.847 -2.307,5.155 -5.156,5.155 l 0,0 -20.128,0 0,0 z m -3.545,-11.502 0,6.347 c 0.003,1.956 1.587,3.542 3.545,3.544 l 0,0 20.128,0 c 1.958,-0.002 3.542,-1.589 3.546,-3.544 l 0,0 0.001,0 0,-6.347 c -0.005,-1.96 -1.589,-3.544 -3.547,-3.547 l 0,0 -20.128,0 c -1.959,0.004 -3.542,1.588 -3.545,3.547 l 0,0 z"
       id="path248"
       inkscape:connector-curvature="0"
       style="fill:#f4f4f4" /></g><g
     id="g250"
     transform="translate(-61.965,-20.602)"><path
       d="m 203.114,298.132 c -0.646,-0.002 -1.168,-0.526 -1.17,-1.169 l 0,0 0.002,-22.213 c 0,-0.645 0.521,-1.166 1.168,-1.168 l 0,0 194.837,0 c 0.643,0.002 1.167,0.523 1.169,1.168 l 0,0 0,22.213 c -0.002,0.643 -0.526,1.167 -1.169,1.169 l 0,0 -194.837,0 0,0 z m 194.394,-1.611 0,-21.327 -193.951,0 -10e-4,21.327 193.952,0 0,0 z"
       id="path252"
       inkscape:connector-curvature="0"
       style="fill:#f4f4f4" /><path
       d="m 210.502,294.187 c -2.848,0 -5.157,-2.309 -5.157,-5.156 l 0,0 0,-6.346 c 0,-2.849 2.309,-5.158 5.157,-5.158 l 0,0 180.06,0 c 2.849,0 5.156,2.31 5.157,5.158 l 0,0 0,6.346 -10e-4,0 c 0,2.848 -2.308,5.157 -5.156,5.157 l 0,0 -180.06,-10e-4 0,0 z m -3.545,-11.502 0,6.346 c 0.003,1.957 1.589,3.542 3.546,3.546 l 0,0 180.059,0 c 1.96,-0.004 3.544,-1.588 3.547,-3.546 l 0,0 0,-6.346 c -0.003,-1.961 -1.589,-3.545 -3.547,-3.548 l 0,0 -180.06,0 c -1.959,0.003 -3.544,1.587 -3.545,3.548 l 0,0 z"
       id="path254"
       inkscape:connector-curvature="0"
       style="fill:#f4f4f4" /></g><g
     id="g256"
     transform="translate(-61.965,-20.602)"><path
       d="m 174.162,274.136 c -0.644,0 -1.168,-0.523 -1.168,-1.17 l 0,0 0,-22.212 c 0.002,-0.645 0.521,-1.167 1.168,-1.167 l 0,0 22.212,0 c 0.647,0 1.167,0.522 1.168,1.167 l 0,0 0,22.212 c 0,0.646 -0.523,1.17 -1.168,1.17 l 0,0 -22.212,0 0,0 z m 21.769,-1.611 10e-4,-21.329 -21.328,0 0,21.329 21.327,0 0,0 z"
       id="path258"
       inkscape:connector-curvature="0"
       style="fill:#f4f4f4" /><path
       d="m 181.551,270.19 c -2.848,-10e-4 -5.157,-2.307 -5.157,-5.156 l 0,0 0,-6.347 c 0,-2.848 2.308,-5.157 5.157,-5.158 l 0,0 7.435,0.001 c 2.848,0 5.157,2.31 5.157,5.157 l 0,0 0,6.347 c 0,2.85 -2.309,5.155 -5.157,5.156 l 0,0 -7.435,0 0,0 z m -3.548,-11.502 0.002,6.347 c 0.003,1.958 1.587,3.542 3.546,3.544 l 0,0 7.435,0.002 c 1.959,-0.004 3.543,-1.589 3.546,-3.546 l 0,0 0,-6.347 c -0.003,-1.959 -1.587,-3.544 -3.546,-3.546 l 0,0 -7.435,0 c -1.959,0.002 -3.543,1.587 -3.548,3.546 l 0,0 z"
       id="path260"
       inkscape:connector-curvature="0"
       style="fill:#f4f4f4" /></g><g
     id="g262"
     transform="translate(-61.965,-20.602)"><path
       d="m 198.158,274.135 c -0.646,0 -1.168,-0.521 -1.168,-1.167 l 0,0 0,-22.214 c 0.001,-0.646 0.521,-1.166 1.168,-1.169 l 0,0 22.212,0 c 0.646,0.003 1.167,0.522 1.168,1.169 l 0,0 0,22.214 c 0,0.646 -0.523,1.167 -1.168,1.168 l 0,0 -22.212,-0.001 0,0 z m 21.769,-1.611 0,-21.327 -21.328,-0.001 0,21.328 21.328,0 0,0 z"
       id="path264"
       inkscape:connector-curvature="0"
       style="fill:#f4f4f4" /><path
       d="m 205.546,270.19 c -2.849,-10e-4 -5.157,-2.31 -5.157,-5.156 l 0,0 0,-6.347 c 0,-2.848 2.308,-5.157 5.157,-5.158 l 0,0 7.435,0 c 2.849,0.001 5.156,2.311 5.156,5.158 l 0,0 0,6.347 c 0,2.847 -2.307,5.155 -5.156,5.156 l 0,0 -7.435,0 0,0 z M 202,258.688 l 0,6.347 c 0.003,1.958 1.587,3.542 3.546,3.544 l 0,0 7.435,0 c 1.958,-0.002 3.542,-1.587 3.545,-3.544 l 0,0 0,-6.347 c -0.003,-1.959 -1.587,-3.544 -3.545,-3.546 l 0,0 -7.435,0 c -1.959,0.002 -3.543,1.587 -3.546,3.546 l 0,0 z"
       id="path266"
       inkscape:connector-curvature="0"
       style="fill:#f4f4f4" /></g><g
     id="g268"
     transform="translate(-61.965,-20.602)"><path
       d="m 222.154,274.136 c -0.646,-0.002 -1.167,-0.524 -1.169,-1.17 l 0,0 0,-22.212 c 10e-4,-0.645 0.522,-1.167 1.169,-1.167 l 0,0 22.213,0 c 0.647,0 1.166,0.522 1.167,1.167 l 0,0 0,22.212 c 0,0.646 -0.524,1.17 -1.167,1.17 l 0,0 -22.213,0 0,0 z m 21.77,-1.611 0,-21.329 -21.327,0 -0.001,21.329 21.328,0 0,0 z"
       id="path270"
       inkscape:connector-curvature="0"
       style="fill:#f4f4f4" /><path
       d="m 229.542,270.19 c -2.848,-10e-4 -5.156,-2.307 -5.156,-5.156 l 0,0 0,-6.347 c 0,-2.849 2.309,-5.157 5.156,-5.158 l 0,0 7.435,0.001 c 2.85,0 5.157,2.31 5.157,5.157 l 0,0 0,6.347 c 0,2.85 -2.307,5.155 -5.157,5.156 l 0,0 -7.435,0 0,0 z m -3.547,-11.502 0.002,6.347 c 0.003,1.958 1.587,3.542 3.545,3.544 l 0,0 7.435,0.002 c 1.958,-0.004 3.542,-1.589 3.546,-3.546 l 0,0 0.001,0 0,-6.347 c -0.005,-1.959 -1.589,-3.544 -3.547,-3.546 l 0,0 -7.435,0 c -1.958,0.002 -3.542,1.587 -3.547,3.546 l 0,0 z"
       id="path272"
       inkscape:connector-curvature="0"
       style="fill:#f4f4f4" /></g><g
     id="g274"
     transform="translate(-61.965,-20.602)"><path
       d="m 246.149,274.136 c -0.645,-0.002 -1.168,-0.523 -1.168,-1.17 l 0,0 0,-22.212 c 0,-0.645 0.522,-1.167 1.168,-1.167 l 0,0 22.212,0 c 0.648,0.002 1.167,0.523 1.169,1.167 l 0,0 0,22.212 -0.002,0 c 0,0.646 -0.521,1.17 -1.167,1.17 l 0,0 -22.212,0 0,0 z m 21.77,-1.611 0,-21.329 -21.328,0 0,21.329 21.328,0 0,0 z"
       id="path276"
       inkscape:connector-curvature="0"
       style="fill:#f4f4f4" /><path
       d="m 253.539,270.189 c -2.849,0 -5.158,-2.306 -5.158,-5.155 l 0,0 0,-6.347 c 0,-2.849 2.309,-5.157 5.158,-5.158 l 0,0 7.434,0.001 c 2.849,0 5.156,2.309 5.156,5.157 l 0,0 0,6.347 10e-4,0 c -10e-4,2.85 -2.309,5.155 -5.158,5.156 l 0,0 -7.433,-10e-4 0,0 z m -3.547,-11.501 0,6.347 c 0.003,1.958 1.589,3.542 3.547,3.544 l 0,0 7.434,0.002 c 1.958,-0.004 3.542,-1.589 3.547,-3.546 l 0,0 0,-6.347 c -0.005,-1.959 -1.59,-3.544 -3.547,-3.546 l 0,0 -7.434,-0.001 c -1.958,0.003 -3.544,1.588 -3.547,3.547 l 0,0 z"
       id="path278"
       inkscape:connector-curvature="0"
       style="fill:#f4f4f4" /></g><g
     id="g280"
     transform="translate(-61.965,-20.602)"><path
       d="m 270.145,274.135 c -0.644,0 -1.167,-0.522 -1.168,-1.167 l 0,0 0,-22.214 c 0,-0.645 0.522,-1.166 1.168,-1.169 l 0,0 22.211,0 c 0.647,0 1.169,0.524 1.169,1.169 l 0,0 0,22.214 c 0,0.645 -0.526,1.167 -1.169,1.168 l 0,0 -22.211,-0.001 0,0 z m 21.771,-1.611 0,-21.327 -21.327,-0.001 -0.002,21.328 21.329,0 0,0 z"
       id="path282"
       inkscape:connector-curvature="0"
       style="fill:#f4f4f4" /><path
       d="m 277.535,270.189 c -2.849,0 -5.157,-2.306 -5.158,-5.155 l 0,0 0,-6.347 c 10e-4,-2.849 2.309,-5.157 5.158,-5.158 l 0,0 7.433,0.001 c 2.85,0 5.157,2.31 5.157,5.157 l 0,0 0,6.347 c 0,2.847 -2.307,5.155 -5.157,5.156 l 0,0 -7.433,-10e-4 0,0 z m -3.548,-11.501 0,6.347 c 0.004,1.958 1.589,3.542 3.548,3.544 l 0,0 7.433,0.002 c 1.958,-0.004 3.543,-1.589 3.546,-3.546 l 0,0 0,0 0,-6.347 c -0.004,-1.959 -1.589,-3.544 -3.547,-3.546 l 0,0 -7.433,-0.001 c -1.957,0.003 -3.543,1.588 -3.547,3.547 l 0,0 z"
       id="path284"
       inkscape:connector-curvature="0"
       style="fill:#f4f4f4" /></g><g
     id="g286"
     transform="translate(-61.965,-20.602)"><path
       d="m 294.14,274.135 c -0.645,0 -1.167,-0.521 -1.168,-1.167 l 0,0 0.002,-22.214 c 0.001,-0.646 0.521,-1.166 1.167,-1.169 l 0,0 22.213,0 c 0.646,0.003 1.167,0.524 1.169,1.169 l 0,0 0,22.214 -0.002,0 c 0,0.645 -0.522,1.167 -1.167,1.168 l 0,0 -22.214,-0.001 0,0 z m 21.77,-1.611 0,-21.327 -21.327,-0.001 0,21.328 21.327,0 0,0 z"
       id="path288"
       inkscape:connector-curvature="0"
       style="fill:#f4f4f4" /><path
       d="m 301.53,270.189 c -2.85,0 -5.158,-2.306 -5.158,-5.155 l 0,0 0,-6.347 c 0,-2.849 2.309,-5.157 5.158,-5.158 l 0,0 7.436,0 c 2.848,0.001 5.154,2.31 5.154,5.158 l 0,0 0,6.347 0.002,0 c -0.002,2.85 -2.309,5.155 -5.156,5.156 l 0,0 -7.436,-10e-4 0,0 z m -3.548,-11.501 0.002,6.347 c 0.003,1.958 1.588,3.542 3.546,3.544 l 0,0 7.436,0 c 1.955,-0.002 3.541,-1.587 3.544,-3.544 l 0,0 0.001,0 0,-6.347 c -0.004,-1.959 -1.59,-3.544 -3.545,-3.546 l 0,0 -7.436,-0.001 c -1.959,0.003 -3.543,1.588 -3.548,3.547 l 0,0 z"
       id="path290"
       inkscape:connector-curvature="0"
       style="fill:#f4f4f4" /></g><g
     id="g292"
     transform="translate(-61.965,-20.602)"><path
       d="m 318.137,274.135 c -0.646,0 -1.166,-0.522 -1.17,-1.167 l 0,0 0,-22.214 c 0,-0.645 0.521,-1.166 1.17,-1.169 l 0,0 22.213,0 c 0.646,0.003 1.168,0.524 1.168,1.169 l 0,0 0,22.214 c 0,0.645 -0.522,1.167 -1.168,1.168 l 0,0 -22.213,-0.001 0,0 z m 21.77,-1.611 0,-21.327 -21.328,-0.001 -0.001,21.328 21.329,0 0,0 z"
       id="path294"
       inkscape:connector-curvature="0"
       style="fill:#f4f4f4" /><path
       d="m 325.527,270.19 c -2.851,-10e-4 -5.159,-2.31 -5.159,-5.156 l 0,0 0,-6.347 c 0,-2.848 2.309,-5.157 5.159,-5.158 l 0,0 7.432,0.001 c 2.851,0 5.157,2.31 5.157,5.157 l 0,0 0,6.347 c 0,2.847 -2.307,5.155 -5.157,5.156 l 0,0 -7.432,0 0,0 z m -3.548,-11.502 0,6.347 c 0.004,1.958 1.589,3.542 3.549,3.544 l 0,0 7.432,0.002 c 1.958,-0.004 3.543,-1.589 3.545,-3.546 l 0,0 0.004,0 0,-6.347 c -0.006,-1.959 -1.591,-3.544 -3.549,-3.546 l 0,0 -7.432,0 c -1.963,0.002 -3.546,1.587 -3.549,3.546 l 0,0 z"
       id="path296"
       inkscape:connector-curvature="0"
       style="fill:#f4f4f4" /></g><g
     id="g298"
     transform="translate(-61.965,-20.602)"><path
       d="m 342.132,274.135 c -0.644,0 -1.165,-0.522 -1.167,-1.167 l 0,0 0,-22.214 c 0,-0.645 0.521,-1.169 1.167,-1.169 l 0,0 22.215,0 c 0.646,0.003 1.165,0.522 1.167,1.169 l 0,0 0,22.214 c -0.002,0.646 -0.524,1.167 -1.167,1.168 l 0,0 -22.215,-0.001 0,0 z m 21.771,-1.611 0,-21.327 -21.327,-0.001 0,21.328 21.327,0 0,0 z"
       id="path300"
       inkscape:connector-curvature="0"
       style="fill:#f4f4f4" /><path
       d="m 349.522,270.189 c -2.85,0 -5.157,-2.306 -5.157,-5.155 l 0,0 0,-6.347 c 0,-2.849 2.308,-5.157 5.157,-5.158 l 0,0 7.435,0.001 c 2.847,0 5.155,2.309 5.155,5.157 l 0,0 0,6.347 c 0,2.85 -2.309,5.155 -5.155,5.156 l 0,0 -7.435,-10e-4 0,0 z m -3.547,-11.501 0,6.347 c 0.003,1.958 1.589,3.542 3.548,3.544 l 0,0 7.435,0.002 c 1.956,-0.004 3.542,-1.589 3.545,-3.546 l 0,0 0,-6.347 c -0.003,-1.959 -1.59,-3.544 -3.545,-3.546 l 0,0 -7.435,-0.001 c -1.96,0.003 -3.545,1.588 -3.548,3.547 l 0,0 z"
       id="path302"
       inkscape:connector-curvature="0"
       style="fill:#f4f4f4" /></g><g
     id="g304"
     transform="translate(-61.965,-20.602)"><path
       d="m 366.13,274.135 c -0.646,0 -1.168,-0.522 -1.168,-1.167 l 0,0 0,-22.214 c 0,-0.645 0.52,-1.166 1.168,-1.169 l 0,0 22.211,0 c 0.646,0.003 1.167,0.524 1.169,1.169 l 0,0 0,22.214 -0.002,0 c 0,0.645 -0.522,1.167 -1.167,1.168 l 0,0 -22.211,-0.001 0,0 z m 21.767,-1.611 0,-21.327 -21.325,-0.001 0,21.328 21.325,0 0,0 z"
       id="path306"
       inkscape:connector-curvature="0"
       style="fill:#f4f4f4" /><path
       d="m 373.518,270.19 c -2.85,0 -5.156,-2.309 -5.156,-5.156 l 0,0 0,-6.347 c 0,-2.849 2.307,-5.157 5.156,-5.158 l 0,0 7.434,0 c 2.849,0.001 5.156,2.311 5.156,5.158 l 0,0 0,6.347 0.002,0 c -0.002,2.848 -2.31,5.156 -5.158,5.156 l 0,0 -7.434,0 0,0 z m -3.548,-11.502 10e-4,6.347 c 0.003,1.957 1.589,3.542 3.547,3.544 l 0,0 7.433,0 c 1.961,-0.002 3.543,-1.587 3.547,-3.544 l 0,0 0.001,0 0,-6.347 c -0.005,-1.959 -1.588,-3.543 -3.548,-3.546 l 0,0 -7.433,0 c -1.958,0.003 -3.544,1.587 -3.548,3.546 l 0,0 z"
       id="path308"
       inkscape:connector-curvature="0"
       style="fill:#f4f4f4" /></g><g
     id="g310"
     transform="translate(-61.965,-20.602)"><path
       d="m 390.124,274.135 c -0.645,0 -1.166,-0.522 -1.168,-1.167 l 0,0 0,-22.214 c 0,-0.645 0.52,-1.166 1.168,-1.168 l 0,0 22.213,0 c 0.646,0.002 1.166,0.521 1.167,1.168 l 0,0 0,22.214 c 0,0.646 -0.522,1.167 -1.167,1.168 l 0,0 -22.213,-0.001 0,0 z m 21.77,-1.61 10e-4,-21.329 -21.328,0 0,21.327 21.327,0.002 0,0 z"
       id="path312"
       inkscape:connector-curvature="0"
       style="fill:#f4f4f4" /><path
       d="m 397.514,270.189 c -2.848,0 -5.157,-2.307 -5.157,-5.154 l 0,0 0,-6.348 c 0,-2.849 2.31,-5.157 5.157,-5.158 l 0,0 7.435,0.001 c 2.848,0 5.155,2.309 5.155,5.157 l 0,0 0,6.348 0.002,0 c -0.002,2.848 -2.31,5.154 -5.157,5.155 l 0,0 -7.435,-10e-4 0,0 z m -3.549,-11.501 0.002,6.348 c 0.003,1.956 1.587,3.542 3.547,3.544 l 0,0 7.433,0 c 1.958,-0.002 3.543,-1.589 3.547,-3.544 l 0,0 0,-6.348 c -0.004,-1.959 -1.589,-3.543 -3.547,-3.546 l 0,0 -7.433,0 c -1.96,0.003 -3.544,1.587 -3.549,3.546 l 0,0 z"
       id="path314"
       inkscape:connector-curvature="0"
       style="fill:#f4f4f4" /></g><g
     id="g316"
     transform="translate(-61.965,-20.602)"><path
       d="m 414.12,274.136 c -0.645,0 -1.167,-0.521 -1.169,-1.169 l 0,0 0,-22.213 c 0.002,-0.647 0.521,-1.166 1.169,-1.168 l 0,0 36.719,0 c 0.647,0.002 1.168,0.523 1.17,1.168 l 0,0 0,22.213 -0.002,0 c 0,0.645 -0.521,1.169 -1.168,1.169 l 0,0 -36.719,0 0,0 z m 36.276,-1.611 0,-21.328 -35.833,-0.001 0,21.329 35.833,0 0,0 z"
       id="path318"
       inkscape:connector-curvature="0"
       style="fill:#f4f4f4" /><path
       d="m 421.509,270.189 c -2.849,0 -5.158,-2.308 -5.158,-5.155 l 0,0 0,-6.347 c 0,-2.849 2.31,-5.157 5.158,-5.157 l 0,0 21.941,0 c 2.849,0 5.154,2.309 5.154,5.157 l 0,0 0,6.347 0.003,0 c -0.003,2.848 -2.309,5.155 -5.157,5.157 l 0,0 -21.941,-0.002 0,0 z m -3.548,-11.501 0,6.347 c 0.006,1.957 1.591,3.542 3.548,3.544 l 0,0 21.941,0.002 c 1.958,-0.004 3.541,-1.589 3.544,-3.546 l 0,0 0.003,0 0,-6.347 c -0.006,-1.959 -1.591,-3.543 -3.547,-3.546 l 0,0 -21.941,0 c -1.957,0.003 -3.542,1.587 -3.548,3.546 l 0,0 z"
       id="path320"
       inkscape:connector-curvature="0"
       style="fill:#f4f4f4" /></g><path
     d="m 57.932,278.769 0,-127.286 c 10e-4,-2.85 2.31,-5.157 5.158,-5.157 l 0,0 349.765,0 c 2.849,0 5.156,2.31 5.157,5.157 l 0,0 0,127.286 -10e-4,0 c 0,2.848 -2.308,5.155 -5.156,5.155 l 0,0 -349.767,0.003 c -2.847,-0.003 -5.155,-2.31 -5.156,-5.158 l 0,0 z m 1.611,-127.286 0,127.286 c 0.003,1.957 1.588,3.542 3.546,3.547 l 0,0 349.766,0 c 1.958,-0.005 3.542,-1.589 3.546,-3.547 l 0,0 0,-127.286 c -0.004,-1.959 -1.588,-3.542 -3.546,-3.546 l 0,0 -349.766,0 c -1.958,0.003 -3.543,1.587 -3.546,3.546 l 0,0 z"
     id="path322"
     inkscape:connector-curvature="0"
     style="fill:#f4f4f4" /><path
     d="m 7.062,293.172 c -2.248,0 -4.07,-1.821 -4.07,-4.068 l 0,0 0,-149.044 c 0,-2.248 1.822,-4.07 4.07,-4.07 l 0,0 461.822,0 c 2.246,0 4.068,1.822 4.068,4.07 l 0,0 0,149.045 c 0,2.247 -1.822,4.068 -4.068,4.068 l 0,0 -461.822,-10e-4 0,0 z M 4.603,140.06 4.601,289.105 c 0.003,1.356 1.102,2.454 2.46,2.458 l 0,0 461.822,0 c 1.358,-0.004 2.457,-1.102 2.46,-2.458 l 0,0 -0.002,0 0.002,-149.045 c -0.003,-1.359 -1.102,-2.457 -2.46,-2.458 l 0,0 -461.822,-0.003 c -1.358,0.004 -2.456,1.102 -2.458,2.461 l 0,0 z"
     id="path324"
     inkscape:connector-curvature="0"
     style="fill:#f4f4f4" /><path
     d="M 4.069,314.389 C 1.823,314.386 0,312.566 0,310.32 l 0,0 L 0,4.072 C 0,1.823 1.823,0.002 4.069,0 l 0,0 467.807,0 c 2.247,0.001 4.068,1.823 4.07,4.072 l 0,0 0,306.248 -0.002,0 c 0,2.246 -1.821,4.066 -4.068,4.069 l 0,0 -467.807,0 0,0 z M 1.611,4.072 l 0,306.248 c 0.002,1.358 1.101,2.454 2.458,2.457 l 0,0 467.807,0 c 1.358,-0.003 2.454,-1.099 2.458,-2.457 l 0,0 0,-306.248 c -0.004,-1.36 -1.1,-2.458 -2.458,-2.46 l 0,0 -467.807,0 c -1.357,10e-4 -2.456,1.1 -2.458,2.46 l 0,0 z"
     id="path326"
     inkscape:connector-curvature="0"
     style="fill:#f4f4f4" /><path
     d="m 160.604,91.507 c -0.646,0 -1.167,-0.522 -1.169,-1.168 l 0,0 0.001,-13.599 c 0,-0.645 0.52,-1.168 1.167,-1.169 l 0,0 152.862,0 c 0.646,0.001 1.165,0.524 1.167,1.169 l 0,0 0,13.599 -0.002,0 c 0,0.646 -0.521,1.168 -1.165,1.168 l 0,0 -152.861,0 0,0 z m 152.416,-1.609 0.002,-12.714 -151.975,-10e-4 0,12.715 151.973,0 0,0 z"
     id="path328"
     inkscape:connector-curvature="0"
     style="fill:#f4f4f4" /><path
     d="m 7.152,61.444 c -2.449,0 -4.431,-1.983 -4.431,-4.431 l 0,0 0,-43.879 c 0,-2.448 1.983,-4.431 4.431,-4.431 l 0,0 461.64,0 c 2.449,0 4.433,1.983 4.433,4.431 l 0,0 0,43.879 0.002,0 c -0.002,2.448 -1.985,4.431 -4.435,4.431 l 0,0 -461.64,0 0,0 z M 4.33,13.134 4.332,57.013 c 0.001,1.558 1.263,2.819 2.82,2.82 l 0,0 461.64,0 c 1.56,-10e-4 2.818,-1.262 2.82,-2.82 l 0,0 0.003,0 -0.003,-43.879 c -0.002,-1.558 -1.261,-2.818 -2.82,-2.82 l 0,0 -461.64,0 c -1.557,0.002 -2.819,1.263 -2.822,2.82 l 0,0 z"
     id="path330"
     inkscape:connector-curvature="0"
     style="fill:#f4f4f4" /><g
     id="g332"
     transform="translate(-61.965,-20.602)"><path
       d="m 101.258,39.396 c -0.845,0 -1.53,-0.685 -1.53,-1.529 l 0,0 0,-2.721 c 0,-0.846 0.686,-1.529 1.53,-1.53 l 0,0 190.033,0 c 0.846,10e-4 1.529,0.685 1.529,1.53 l 0,0 0,2.721 c 0,0.845 -0.684,1.529 -1.529,1.529 l 0,0 -190.033,0 0,0 z m 189.952,-1.609 0,-2.56 -189.873,0 0,2.56 189.873,0 0,0 z"
       id="path334"
       inkscape:connector-curvature="0"
       style="fill:#f4f4f4" /><g
       id="g336"><polygon
         points="159.997,38.502 158.386,38.502 158.386,34.513 159.997,34.513 "
         id="polygon338"
         style="fill:#f4f4f4" /><polygon
         points="162.445,38.502 160.834,38.502 160.834,34.511 162.445,34.511 "
         id="polygon340"
         style="fill:#f4f4f4" /></g><g
       id="g342"><polygon
         points="192.729,38.502 191.116,38.502 191.116,34.513 192.729,34.513 "
         id="polygon344"
         style="fill:#f4f4f4" /><polygon
         points="195.176,38.502 193.565,38.502 193.565,34.513 195.176,34.513 "
         id="polygon346"
         style="fill:#f4f4f4" /></g><g
       id="g348"><polygon
         points="242.05,38.502 240.439,38.502 240.439,34.512 242.05,34.512 "
         id="polygon350"
         style="fill:#f4f4f4" /><polygon
         points="244.498,38.502 242.887,38.502 242.887,34.513 244.498,34.513 "
         id="polygon352"
         style="fill:#f4f4f4" /></g><polygon
       points="156.914,38.591 155.303,38.591 155.303,34.33 156.914,34.33 "
       id="polygon354"
       style="fill:#f4f4f4" /><polygon
       points="105.69,38.592 104.079,38.592 104.079,34.33 105.69,34.33 "
       id="polygon356"
       style="fill:#f4f4f4" /><g
       id="g358"><path
         d="m 101.258,46.832 c -0.845,0 -1.53,-0.686 -1.53,-1.531 l 0,0 0,-2.72 c 0,-0.846 0.686,-1.529 1.53,-1.53 l 0,0 190.033,0 c 0.846,10e-4 1.529,0.685 1.529,1.53 l 0,0 0,2.72 c 0,0.846 -0.684,1.531 -1.529,1.531 l 0,0 -190.033,0 0,0 z m 189.952,-1.61 0,-2.56 -189.873,-0.002 0,2.562 189.873,0 0,0 z"
         id="path360"
         inkscape:connector-curvature="0"
         style="fill:#f4f4f4" /><g
         id="g362"><polygon
           points="159.998,45.936 158.387,45.936 158.387,41.947 159.998,41.947 "
           id="polygon364"
           style="fill:#f4f4f4" /><polygon
           points="162.445,45.936 160.834,45.936 160.834,41.946 162.445,41.946 "
           id="polygon366"
           style="fill:#f4f4f4" /></g><g
         id="g368"><polygon
           points="192.729,45.936 191.116,45.936 191.116,41.946 192.729,41.946 "
           id="polygon370"
           style="fill:#f4f4f4" /><polygon
           points="195.176,45.935 193.565,45.935 193.565,41.945 195.176,41.945 "
           id="polygon372"
           style="fill:#f4f4f4" /></g><g
         id="g374"><polygon
           points="242.05,45.936 240.439,45.936 240.439,41.946 242.05,41.946 "
           id="polygon376"
           style="fill:#f4f4f4" /><polygon
           points="244.498,45.936 242.887,45.936 242.887,41.946 244.498,41.946 "
           id="polygon378"
           style="fill:#f4f4f4" /></g><polygon
         points="156.916,46.026 155.305,46.026 155.305,41.767 156.916,41.767 "
         id="polygon380"
         style="fill:#f4f4f4" /><polygon
         points="105.69,46.026 104.079,46.026 104.079,41.767 105.69,41.767 "
         id="polygon382"
         style="fill:#f4f4f4" /></g><g
       id="g384"><path
         d="m 101.258,54.266 c -0.845,0 -1.53,-0.685 -1.53,-1.531 l 0,0 0,-2.719 c 0,-0.847 0.686,-1.53 1.53,-1.532 l 0,0 190.033,0 c 0.846,10e-4 1.529,0.686 1.529,1.532 l 0,0 0,2.719 c 0,0.846 -0.684,1.531 -1.529,1.531 l 0,0 -190.033,0 0,0 z m 189.952,-1.611 0,-2.56 -189.873,0 0,2.56 189.873,0 0,0 z"
         id="path386"
         inkscape:connector-curvature="0"
         style="fill:#f4f4f4" /><g
         id="g388"><polygon
           points="159.998,53.371 158.387,53.371 158.387,49.38 159.998,49.38 "
           id="polygon390"
           style="fill:#f4f4f4" /><polygon
           points="162.446,53.371 160.835,53.371 160.835,49.38 162.446,49.38 "
           id="polygon392"
           style="fill:#f4f4f4" /></g><g
         id="g394"><polygon
           points="192.729,53.37 191.116,53.37 191.116,49.381 192.729,49.381 "
           id="polygon396"
           style="fill:#f4f4f4" /><polygon
           points="195.176,53.37 193.565,53.37 193.565,49.381 195.176,49.381 "
           id="polygon398"
           style="fill:#f4f4f4" /></g><g
         id="g400"><polygon
           points="242.05,53.371 240.439,53.371 240.439,49.381 242.05,49.381 "
           id="polygon402"
           style="fill:#f4f4f4" /><polygon
           points="244.498,53.371 242.887,53.371 242.887,49.381 244.498,49.381 "
           id="polygon404"
           style="fill:#f4f4f4" /></g><polygon
         points="156.916,53.461 155.305,53.461 155.305,49.2 156.916,49.2 "
         id="polygon406"
         style="fill:#f4f4f4" /><polygon
         points="105.69,53.461 104.079,53.461 104.079,49.2 105.69,49.2 "
         id="polygon408"
         style="fill:#f4f4f4" /></g><g
       id="g410"><path
         d="m 101.258,61.7 c -0.845,0 -1.53,-0.685 -1.53,-1.53 l 0,0 0,-2.721 c 0,-0.845 0.686,-1.527 1.53,-1.53 l 0,0 190.033,0 c 0.846,0.002 1.529,0.685 1.529,1.53 l 0,0 0,2.721 c 0,0.846 -0.684,1.53 -1.529,1.53 l 0,0 -190.033,0 0,0 z m 189.952,-1.609 0,-2.561 -189.873,0 0,2.56 189.873,10e-4 0,0 z"
         id="path412"
         inkscape:connector-curvature="0"
         style="fill:#f4f4f4" /><g
         id="g414"><polygon
           points="159.997,60.804 158.386,60.804 158.386,56.814 159.997,56.814 "
           id="polygon416"
           style="fill:#f4f4f4" /><polygon
           points="162.446,60.804 160.835,60.804 160.835,56.814 162.446,56.814 "
           id="polygon418"
           style="fill:#f4f4f4" /></g><g
         id="g420"><polygon
           points="192.729,60.804 191.116,60.804 191.116,56.814 192.729,56.814 "
           id="polygon422"
           style="fill:#f4f4f4" /><polygon
           points="195.176,60.804 193.565,60.804 193.565,56.814 195.176,56.814 "
           id="polygon424"
           style="fill:#f4f4f4" /></g><g
         id="g426"><polygon
           points="242.05,60.804 240.439,60.804 240.439,56.815 242.05,56.815 "
           id="polygon428"
           style="fill:#f4f4f4" /><polygon
           points="244.498,60.804 242.887,60.804 242.887,56.814 244.498,56.814 "
           id="polygon430"
           style="fill:#f4f4f4" /></g><polygon
         points="156.915,60.895 155.303,60.895 155.303,56.635 156.915,56.635 "
         id="polygon432"
         style="fill:#f4f4f4" /><polygon
         points="105.69,60.895 104.079,60.895 104.079,56.635 105.69,56.635 "
         id="polygon434"
         style="fill:#f4f4f4" /></g><g
       id="g436"><path
         d="m 101.258,69.135 c -0.845,0 -1.53,-0.686 -1.53,-1.531 l 0,0 0,-2.718 c 0,-0.847 0.686,-1.531 1.53,-1.533 l 0,0 190.033,0 c 0.846,10e-4 1.529,0.686 1.529,1.533 l 0,0 0,2.718 c 0,0.845 -0.684,1.531 -1.529,1.531 l 0,0 -190.033,0 0,0 z m 189.952,-1.61 0,-2.56 -189.873,0 0,2.56 189.873,0 0,0 z"
         id="path438"
         inkscape:connector-curvature="0"
         style="fill:#f4f4f4" /><g
         id="g440"><polygon
           points="159.997,68.239 158.387,68.239 158.387,64.25 159.997,64.25 "
           id="polygon442"
           style="fill:#f4f4f4" /><polygon
           points="162.446,68.239 160.835,68.239 160.835,64.25 162.446,64.25 "
           id="polygon444"
           style="fill:#f4f4f4" /></g><g
         id="g446"><polygon
           points="192.729,68.241 191.116,68.241 191.116,64.251 192.729,64.251 "
           id="polygon448"
           style="fill:#f4f4f4" /><polygon
           points="195.176,68.24 193.565,68.24 193.565,64.25 195.176,64.25 "
           id="polygon450"
           style="fill:#f4f4f4" /></g><g
         id="g452"><polygon
           points="242.05,68.239 240.439,68.239 240.439,64.251 242.05,64.251 "
           id="polygon454"
           style="fill:#f4f4f4" /><polygon
           points="244.498,68.24 242.887,68.24 242.887,64.249 244.498,64.249 "
           id="polygon456"
           style="fill:#f4f4f4" /></g><polygon
         points="156.915,68.331 155.304,68.331 155.304,64.069 156.915,64.069 "
         id="polygon458"
         style="fill:#f4f4f4" /><polygon
         points="105.689,68.331 104.079,68.331 104.079,64.069 105.689,64.069 "
         id="polygon460"
         style="fill:#f4f4f4" /></g><g
       id="g462"><path
         d="m 101.258,76.57 c -0.845,0 -1.53,-0.685 -1.53,-1.53 l 0,0 0,-2.721 c 0,-0.845 0.686,-1.528 1.53,-1.53 l 0,0 190.033,0 c 0.846,0.002 1.529,0.685 1.529,1.53 l 0,0 0,2.721 c 0,0.846 -0.684,1.53 -1.529,1.53 l 0,0 -190.033,0 0,0 z m 189.952,-1.611 0,-2.559 -189.873,0 0,2.56 189.873,0 0,-10e-4 z"
         id="path464"
         inkscape:connector-curvature="0"
         style="fill:#f4f4f4" /><g
         id="g466"><polygon
           points="159.997,75.674 158.386,75.674 158.386,71.685 159.997,71.685 "
           id="polygon468"
           style="fill:#f4f4f4" /><polygon
           points="162.446,75.674 160.835,75.674 160.835,71.685 162.446,71.685 "
           id="polygon470"
           style="fill:#f4f4f4" /></g><g
         id="g472"><polygon
           points="192.729,75.674 191.116,75.674 191.116,71.685 192.729,71.685 "
           id="polygon474"
           style="fill:#f4f4f4" /><polygon
           points="195.176,75.674 193.565,75.674 193.565,71.685 195.176,71.685 "
           id="polygon476"
           style="fill:#f4f4f4" /></g><g
         id="g478"><polygon
           points="242.05,75.673 240.439,75.673 240.439,71.686 242.05,71.686 "
           id="polygon480"
           style="fill:#f4f4f4" /><polygon
           points="244.498,75.673 242.887,75.673 242.887,71.686 244.498,71.686 "
           id="polygon482"
           style="fill:#f4f4f4" /></g><polygon
         points="156.916,75.765 155.304,75.765 155.304,71.503 156.916,71.503 "
         id="polygon484"
         style="fill:#f4f4f4" /><polygon
         points="105.689,75.765 104.079,75.765 104.079,71.503 105.689,71.503 "
         id="polygon486"
         style="fill:#f4f4f4" /></g><g
       id="g488"><path
         d="m 308.517,39.396 c -0.846,0 -1.529,-0.684 -1.529,-1.53 l 0,0 0,-2.719 c 0,-0.847 0.685,-1.531 1.529,-1.531 l 0,0 190.032,0 c 0.846,0 1.53,0.687 1.53,1.531 l 0,0 0,2.719 c -0.001,0.845 -0.685,1.53 -1.53,1.53 l 0,0 -190.032,0 0,0 z m 189.952,-1.608 0,-2.56 -189.874,-0.001 0,2.56 189.874,10e-4 0,0 z"
         id="path490"
         inkscape:connector-curvature="0"
         style="fill:#f4f4f4" /><g
         id="g492"><g
           id="g494"><polygon
             points="353.446,38.472 351.834,38.472 351.834,34.36 353.446,34.36 "
             id="polygon496"
             style="fill:#f4f4f4" /><polygon
             points="355.984,38.471 354.372,38.471 354.372,34.361 355.984,34.361 "
             id="polygon498"
             style="fill:#f4f4f4" /></g><g
           id="g500"><polygon
             points="403.069,38.472 401.457,38.472 401.457,34.362 403.069,34.362 "
             id="polygon502"
             style="fill:#f4f4f4" /><polygon
             points="405.607,38.471 403.997,38.471 403.997,34.361 405.607,34.361 "
             id="polygon504"
             style="fill:#f4f4f4" /></g><g
           id="g506"><polygon
             points="452.691,38.471 451.082,38.471 451.082,34.361 452.691,34.361 "
             id="polygon508"
             style="fill:#f4f4f4" /><polygon
             points="455.231,38.471 453.622,38.471 453.622,34.361 455.231,34.361 "
             id="polygon510"
             style="fill:#f4f4f4" /></g></g></g><g
       id="g512"><path
         d="m 308.517,46.836 c -0.846,-10e-4 -1.529,-0.686 -1.529,-1.531 l 0,0 0,-2.719 c 0,-0.846 0.685,-1.53 1.529,-1.532 l 0,0 190.032,0.002 c 0.846,0 1.529,0.686 1.53,1.53 l 0,0 0,2.719 c -0.001,0.846 -0.685,1.531 -1.53,1.531 l 0,0 -190.032,0 0,0 z m 189.952,-1.611 0,-2.56 -189.874,0 0,2.56 189.874,0 0,0 z"
         id="path514"
         inkscape:connector-curvature="0"
         style="fill:#f4f4f4" /><g
         id="g516"><g
           id="g518"><polygon
             points="353.446,45.909 351.834,45.909 351.834,41.8 353.446,41.8 "
             id="polygon520"
             style="fill:#f4f4f4" /><polygon
             points="355.984,45.909 354.372,45.909 354.372,41.8 355.984,41.8 "
             id="polygon522"
             style="fill:#f4f4f4" /></g><g
           id="g524"><polygon
             points="403.069,45.909 401.457,45.909 401.457,41.799 403.069,41.799 "
             id="polygon526"
             style="fill:#f4f4f4" /><polygon
             points="405.607,45.909 403.997,45.909 403.997,41.8 405.607,41.8 "
             id="polygon528"
             style="fill:#f4f4f4" /></g><g
           id="g530"><polygon
             points="452.691,45.911 451.082,45.911 451.082,41.799 452.691,41.799 "
             id="polygon532"
             style="fill:#f4f4f4" /><polygon
             points="455.231,45.911 453.622,45.911 453.622,41.801 455.231,41.801 "
             id="polygon534"
             style="fill:#f4f4f4" /></g></g></g><g
       id="g536"><path
         d="m 308.517,54.275 c -0.846,0 -1.529,-0.685 -1.529,-1.53 l 0,0 0,-2.72 c 0,-0.846 0.685,-1.53 1.529,-1.531 l 0,0 190.032,0 c 0.846,0 1.53,0.687 1.53,1.531 l 0,0 0,2.72 c -0.001,0.843 -0.685,1.53 -1.53,1.531 l 0,0 -190.032,-0.001 0,0 z m 189.952,-1.61 0,-2.561 -189.874,0 0,2.561 189.874,0 0,0 z"
         id="path538"
         inkscape:connector-curvature="0"
         style="fill:#f4f4f4" /><g
         id="g540"><g
           id="g542"><polygon
             points="353.446,53.349 351.834,53.349 351.834,49.24 353.446,49.24 "
             id="polygon544"
             style="fill:#f4f4f4" /><polygon
             points="355.984,53.35 354.372,53.35 354.372,49.239 355.984,49.239 "
             id="polygon546"
             style="fill:#f4f4f4" /></g><g
           id="g548"><polygon
             points="403.069,53.349 401.457,53.349 401.457,49.239 403.069,49.239 "
             id="polygon550"
             style="fill:#f4f4f4" /><polygon
             points="405.607,53.349 403.997,53.349 403.997,49.239 405.607,49.239 "
             id="polygon552"
             style="fill:#f4f4f4" /></g><g
           id="g554"><polygon
             points="452.691,53.35 451.082,53.35 451.082,49.241 452.691,49.241 "
             id="polygon556"
             style="fill:#f4f4f4" /><polygon
             points="455.231,53.349 453.622,53.349 453.622,49.239 455.231,49.239 "
             id="polygon558"
             style="fill:#f4f4f4" /></g></g></g><g
       id="g560"><path
         d="m 308.517,61.714 c -0.846,0 -1.529,-0.685 -1.529,-1.529 l 0,0 0,-2.72 c 0,-0.846 0.685,-1.531 1.529,-1.531 l 0,0 190.032,0 c 0.846,0 1.529,0.686 1.53,1.531 l 0,0 0,2.72 c -0.001,0.845 -0.685,1.528 -1.53,1.529 l 0,0 -190.032,0 0,0 z m 189.952,-1.61 0,-2.56 -189.874,0 0,2.558 189.874,0.002 0,0 z"
         id="path562"
         inkscape:connector-curvature="0"
         style="fill:#f4f4f4" /><g
         id="g564"><g
           id="g566"><polygon
             points="353.446,60.789 351.834,60.789 351.834,56.677 353.446,56.677 "
             id="polygon568"
             style="fill:#f4f4f4" /><polygon
             points="355.984,60.789 354.372,60.789 354.372,56.677 355.984,56.677 "
             id="polygon570"
             style="fill:#f4f4f4" /></g><g
           id="g572"><polygon
             points="403.069,60.788 401.457,60.788 401.457,56.678 403.069,56.678 "
             id="polygon574"
             style="fill:#f4f4f4" /><polygon
             points="405.607,60.789 403.997,60.789 403.997,56.677 405.607,56.677 "
             id="polygon576"
             style="fill:#f4f4f4" /></g><g
           id="g578"><polygon
             points="452.691,60.788 451.082,60.788 451.082,56.678 452.691,56.678 "
             id="polygon580"
             style="fill:#f4f4f4" /><polygon
             points="455.231,60.788 453.622,60.788 453.622,56.678 455.231,56.678 "
             id="polygon582"
             style="fill:#f4f4f4" /></g></g></g><g
       id="g584"><path
         d="m 308.517,69.153 c -0.846,0 -1.529,-0.686 -1.529,-1.53 l 0,0 0,-2.721 c 0,-0.845 0.685,-1.529 1.529,-1.531 l 0,0 190.032,10e-4 c 0.846,0 1.53,0.686 1.53,1.529 l 0,0 0,2.72 c -0.001,0.846 -0.685,1.531 -1.53,1.531 l 0,0 -190.032,0 0,0.001 z m 189.952,-1.611 0,-2.56 -189.874,0 0,2.56 189.874,0 0,0 z"
         id="path586"
         inkscape:connector-curvature="0"
         style="fill:#f4f4f4" /><g
         id="g588"><g
           id="g590"><polygon
             points="353.446,68.229 351.834,68.229 351.834,64.117 353.446,64.117 "
             id="polygon592"
             style="fill:#f4f4f4" /><polygon
             points="355.984,68.229 354.372,68.229 354.372,64.117 355.984,64.117 "
             id="polygon594"
             style="fill:#f4f4f4" /></g><g
           id="g596"><polygon
             points="403.069,68.228 401.457,68.228 401.457,64.118 403.069,64.118 "
             id="polygon598"
             style="fill:#f4f4f4" /><polygon
             points="405.607,68.229 403.997,68.229 403.997,64.116 405.607,64.116 "
             id="polygon600"
             style="fill:#f4f4f4" /></g><g
           id="g602"><polygon
             points="452.691,68.227 451.082,68.227 451.082,64.117 452.691,64.117 "
             id="polygon604"
             style="fill:#f4f4f4" /><polygon
             points="455.231,68.229 453.622,68.229 453.622,64.116 455.231,64.116 "
             id="polygon606"
             style="fill:#f4f4f4" /></g></g></g><g
       id="g608"><path
         d="m 308.583,76.592 c -0.844,0 -1.528,-0.685 -1.528,-1.53 l 0,0 0,-2.72 c 0,-0.846 0.685,-1.53 1.528,-1.53 l 0,0 190.035,0 c 0.845,0.001 1.527,0.686 1.53,1.53 l 0,0 0,2.72 c -0.003,0.845 -0.687,1.528 -1.53,1.53 l 0,0 -190.035,0 0,0 z m 189.953,-1.61 0,-2.56 -189.873,0 0,2.558 189.873,0.002 0,0 z"
         id="path610"
         inkscape:connector-curvature="0"
         style="fill:#f4f4f4" /><g
         id="g612"><g
           id="g614"><polygon
             points="353.514,75.667 351.903,75.667 351.903,71.556 353.514,71.556 "
             id="polygon616"
             style="fill:#f4f4f4" /><polygon
             points="356.051,75.666 354.441,75.666 354.441,71.556 356.051,71.556 "
             id="polygon618"
             style="fill:#f4f4f4" /></g><g
           id="g620"><polygon
             points="403.137,75.667 401.524,75.667 401.524,71.557 403.137,71.557 "
             id="polygon622"
             style="fill:#f4f4f4" /><polygon
             points="405.676,75.666 404.064,75.666 404.064,71.557 405.676,71.557 "
             id="polygon624"
             style="fill:#f4f4f4" /></g><g
           id="g626"><polygon
             points="452.761,75.667 451.15,75.667 451.15,71.556 452.761,71.556 "
             id="polygon628"
             style="fill:#f4f4f4" /><polygon
             points="455.299,75.666 453.688,75.666 453.688,71.556 455.299,71.556 "
             id="polygon630"
             style="fill:#f4f4f4" /></g></g></g></g></svg>