<?xml version="1.0" encoding="UTF-8" standalone="no"?>
<!-- Created with Inkscape (http://www.inkscape.org/) -->

<svg
   xmlns:dc="http://purl.org/dc/elements/1.1/"
   xmlns:cc="http://creativecommons.org/ns#"
   xmlns:rdf="http://www.w3.org/1999/02/22-rdf-syntax-ns#"
   xmlns:svg="http://www.w3.org/2000/svg"
   xmlns="http://www.w3.org/2000/svg"
   xmlns:sodipodi="http://sodipodi.sourceforge.net/DTD/sodipodi-0.dtd"
   xmlns:inkscape="http://www.inkscape.org/namespaces/inkscape"
   id="svg2"
   version="1.1"
   inkscape:version="0.91 r13725"
   xml:space="preserve"
   width="182.5"
   height="182.5"
   viewBox="0 0 182.5 182.5"
   sodipodi:docname="controller.svg"><metadata
     id="metadata8"><rdf:RDF><cc:Work
         rdf:about=""><dc:format>image/svg+xml</dc:format><dc:type
           rdf:resource="http://purl.org/dc/dcmitype/StillImage" /><dc:title></dc:title></cc:Work></rdf:RDF></metadata><defs
     id="defs6"><clipPath
       clipPathUnits="userSpaceOnUse"
       id="clipPath16"><path
         d="m 0,238.488 197.99,0 L 197.99,0 0,0 0,238.488 Z"
         id="path18"
         inkscape:connector-curvature="0" /></clipPath></defs><sodipodi:namedview
     pagecolor="#ffffff"
     bordercolor="#666666"
     borderopacity="1"
     objecttolerance="10"
     gridtolerance="10"
     guidetolerance="10"
     inkscape:pageopacity="0"
     inkscape:pageshadow="2"
     inkscape:window-width="1631"
     inkscape:window-height="998"
     id="namedview4"
     showgrid="false"
     fit-margin-top="0"
     fit-margin-left="0"
     fit-margin-right="0"
     fit-margin-bottom="0"
     inkscape:zoom="0.79165413"
     inkscape:cx="91.250377"
     inkscape:cy="91.250007"
     inkscape:window-x="49"
     inkscape:window-y="24"
     inkscape:window-maximized="0"
     inkscape:current-layer="g10" /><g
     id="g10"
     inkscape:groupmode="layer"
     inkscape:label="controller"
     transform="matrix(1.25,0,0,-1.25,-32.493375,240.305)"><g
       id="g12"><g
         id="g14"
         clip-path="url(#clipPath16)"><g
           id="g20"
           transform="translate(155.1617,46.244)"><path
             d="m 0,0 -112.333,0 c -9.259,0 -16.834,7.575 -16.834,16.833 l 0,112.334 c 0,9.258 7.575,16.833 16.834,16.833 L 0,146 c 9.258,0 16.833,-7.575 16.833,-16.833 l 0,-112.334 C 16.833,7.575 9.258,0 0,0"
             style="fill:#b7b6a8;fill-opacity:1;fill-rule:nonzero;stroke:none"
             id="path22"
             inkscape:connector-curvature="0" /></g><g
           id="g24"
           transform="translate(134.8284,168.994)"><path
             d="m 0,0 -73.5,0 c -6.6,0 -12,-5.4 -12,-12 l 0,-73.25 c 0,-6.6 5.4,-12 12,-12 l 73.5,0 c 6.6,0 12,5.4 12,12 L 12,-12 C 12,-5.4 6.6,0 0,0"
             style="fill:#a4adb7;fill-opacity:1;fill-rule:nonzero;stroke:none"
             id="path26"
             inkscape:connector-curvature="0" /></g><g
           id="g28"
           transform="translate(69.4111,164.9107)"><path
             d="m 0,0 c 0,-8.008 -6.492,-14.5 -14.5,-14.5 -8.008,0 -14.5,6.492 -14.5,14.5 0,8.008 6.492,14.5 14.5,14.5 C -6.492,14.5 0,8.008 0,0"
             style="fill:#960e0c;fill-opacity:1;fill-rule:nonzero;stroke:none"
             id="path30"
             inkscape:connector-curvature="0" /></g><g
           id="g32"
           transform="translate(69.4111,164.9107)"><path
             d="m 0,0 c 0,-8.008 -6.492,-14.5 -14.5,-14.5 -8.008,0 -14.5,6.492 -14.5,14.5 0,8.008 6.492,14.5 14.5,14.5 C -6.492,14.5 0,8.008 0,0 Z"
             style="fill:none;stroke:#421a1a;stroke-width:1;stroke-linecap:butt;stroke-linejoin:miter;stroke-miterlimit:10;stroke-dasharray:none;stroke-opacity:1"
             id="path34"
             inkscape:connector-curvature="0" /></g><g
           id="g36"
           transform="translate(54.9111,179.4107)"><path
             d="m 0,0 c -8.008,0 -14.5,-6.492 -14.5,-14.5 0,-8.008 6.492,-14.5 14.5,-14.5 8.008,0 14.5,6.492 14.5,14.5 C 14.5,-6.492 8.008,0 0,0 M 16.5,-14.5 C 16.5,-23.613 9.113,-31 0,-31 c -9.113,0 -16.5,7.387 -16.5,16.5 C -16.5,-5.387 -9.113,2 0,2 9.113,2 16.5,-5.387 16.5,-14.5"
             style="fill:#b7b6a8;fill-opacity:1;fill-rule:nonzero;stroke:none"
             id="path38"
             inkscape:connector-curvature="0" /></g><g
           id="g40"
           transform="translate(155.7457,164.9107)"><path
             d="m 0,0 c 0,-8.008 -6.492,-14.5 -14.5,-14.5 -8.008,0 -14.5,6.492 -14.5,14.5 0,8.008 6.492,14.5 14.5,14.5 C -6.492,14.5 0,8.008 0,0"
             style="fill:#960e0c;fill-opacity:1;fill-rule:nonzero;stroke:none"
             id="path42"
             inkscape:connector-curvature="0" /></g><g
           id="g44"
           transform="translate(155.7457,164.9107)"><path
             d="m 0,0 c 0,-8.008 -6.492,-14.5 -14.5,-14.5 -8.008,0 -14.5,6.492 -14.5,14.5 0,8.008 6.492,14.5 14.5,14.5 C -6.492,14.5 0,8.008 0,0 Z"
             style="fill:none;stroke:#421a1a;stroke-width:1;stroke-linecap:butt;stroke-linejoin:miter;stroke-miterlimit:10;stroke-dasharray:none;stroke-opacity:1"
             id="path46"
             inkscape:connector-curvature="0" /></g><g
           id="g48"
           transform="translate(141.2457,179.4107)"><path
             d="m 0,0 c -8.008,0 -14.5,-6.492 -14.5,-14.5 0,-8.008 6.492,-14.5 14.5,-14.5 8.008,0 14.5,6.492 14.5,14.5 C 14.5,-6.492 8.008,0 0,0 M 16.5,-14.5 C 16.5,-23.613 9.113,-31 0,-31 c -9.113,0 -16.5,7.387 -16.5,16.5 C -16.5,-5.387 -9.113,2 0,2 9.113,2 16.5,-5.387 16.5,-14.5"
             style="fill:#b7b6a8;fill-opacity:1;fill-rule:nonzero;stroke:none"
             id="path50"
             inkscape:connector-curvature="0" /></g><g
           id="g52"
           transform="translate(140.5784,120.369)"><path
             d="M 0,0 C 0,-23.472 -19.028,-42.5 -42.5,-42.5 -65.972,-42.5 -85,-23.472 -85,0 -85,23.472 -65.972,42.5 -42.5,42.5 -19.028,42.5 0,23.472 0,0"
             style="fill:#231f20;fill-opacity:1;fill-rule:nonzero;stroke:none"
             id="path54"
             inkscape:connector-curvature="0" /></g></g></g></g></svg>