<svg xmlns="http://www.w3.org/2000/svg" baseProfile="tiny" viewBox="0 0 619 403.3">
  <path fill="#C68228" d="M604 0H15C6.7 0 0 6.8 0 15v325c0 8.3 6.7 15 15 15h24v40.3c0 4.4 3.6 8 8 8h521c4.4 0 8-3.6 8-8V355h28c8.3 0 15-6.8 15-15V15c0-8.2-6.8-15-15-15z"/>
  <path fill="#FBAA2A" d="M587 22H32c-4.4 0-8 3.6-8 8v303c0 4.4 3.6 8 8 8h13v50.3c0 4.4 3.6 8 8 8h510c4.4 0 8-3.6 8-8V341h16c4.4 0 8-3.6 8-8V30c0-4.4-3.6-8-8-8z"/>
  <path fill="#E6E7E8" d="M567 302H52c-4.4 0-8-3.6-8-8V48c0-4.4 3.6-8 8-8h515c4.4 0 8 3.6 8 8v246c0 4.4-3.6 8-8 8z"/>
  <g fill-rule="evenodd">
    <path d="M80.4 82.5c-9.1 0-15.2-6.4-15.2-14.3 0-7.8 6.1-14.3 15.2-14.3h85.7c9.1 0 15.2 6.5 15.2 14.3 0 7.8-6.1 14.3-15.2 14.3H80.4z"/>
    <path fill="#FFF" d="M80.4 57.4c-7.2 0-11.6 4.8-11.6 10.8 0 6 4.4 10.8 11.6 10.8H166c7.2 0 11.6-4.8 11.6-10.8 0-6-4.4-10.8-11.6-10.8H80.4z"/>
    <path d="M76.7 61.5h4.2l5.8 9.3v-9.3h4.2v13.4h-4.2l-5.8-9.4v9.4h-4.2V61.5m36.8 1.4h4v1.8h2.2V66h-2.2v8.9h-4V66h-2.2v-1.3h2.2v-1.8M93.2 66h4.1v8.9h-4.1V66m0-4.5h4.1v2.7h-4.1v-2.7m72.5 8.9v1.9c0 1.4-.8 2-1.7 2-.8 0-1.7-.6-1.7-2v-3.8c0-1.4.8-2 1.7-2s1.7.6 1.7 2v1.9zm-1.6-5c-3.3 0-5.9 2.2-5.9 5s2.6 5 5.9 5c3.3 0 5.9-2.2 5.9-5s-2.6-5-5.9-5zm-11.2-3.9h4v13.4h-4v-.5c-1.5 1-3.3 1-4.7.3-.4-.2-2.8-1.3-2.8-4.4 0-2.4 2.2-4.9 5.1-4.7 1 .1 1.6.4 2.3.8.1-2.1.1-4.9.1-4.9zm0 8.9v-1.6c0-1.4-1-1.7-1.6-1.7-.6 0-1.6.4-1.6 1.7V72c0 1.4.9 1.7 1.6 1.7.6 0 1.6-.4 1.6-1.7v-1.6zm-46.2-4.8c1.5 0 4.6.9 4.6 4.5V75h-4v-5.9c0-.8-.7-1.6-1.8-1.6s-1.9.9-1.9 1.6V75h-4v-8.9h4v.9c.7-.8 1.8-1.4 3.1-1.4zm32.9 0c1.5 0 4.6.9 4.6 4.5V75h-4v-5.9c0-.8-.7-1.6-1.8-1.6s-1.9.9-1.9 1.6V75h-4v-8.9h4v.9c.6-.8 1.8-1.4 3.1-1.4zm-16.1 3.5c0-.8 0-1.3.3-1.8.3-.6.9-.8 1.4-.8.5 0 1.1.3 1.4.8.3.4.3 1 .3 1.8h-3.4zm3.4 2.7v.5c0 1.6-1.1 2-1.7 2-.6 0-1.7-.4-1.7-2v-1.8h7.6c0-2.8-2.7-5.1-6-5.1s-6 2.2-6 5 2.7 5 6 5c2.7 0 5-1.6 5.7-3.7l-3.9.1zm43.4-7.1h-.5v-3.1h1.2c.7 0 1.1.3 1.1.9 0 .5-.3.8-.8.8l.9 1.3h-.5l-.8-1.3h-.5v1.4h-.1zm.5-1.8c.4 0 .7 0 .7-.5 0-.4-.3-.4-.7-.4h-.6v.9h.6z"/>
    <path d="M168.1 63.1c0-1.5 1.2-2.6 2.7-2.6 1.4 0 2.7 1.1 2.7 2.6s-1.2 2.7-2.7 2.7c-1.4 0-2.7-1.1-2.7-2.7zm2.7 2.2c1.2 0 2.1-.9 2.1-2.2 0-1.3-.9-2.2-2.1-2.2-1.2 0-2.2.9-2.2 2.2.1 1.3 1 2.2 2.2 2.2z"/>
  </g>
  <path fill="#EA2C27" d="M317.9 60.7c0 4.3.7 10.1-1.8 14-1.2 2.1-3.4 3.3-5.5 4.3h-14.1v-4.4h12.3c2.2-.3 4-2.2 4.7-4.3.4-1.4.4-2.9.4-4.3h-19.8v-5.2h23.8zM367 74.6c3.5-.1 7.2.1 10.6 0 1.7-.1 3.2-1.5 4.2-2.9.9-1.2 1.2-2.4 1.3-4.1.1-2.3 0-4.6.1-6.9h3.4V70c0 2.5-.8 4.4-2.4 6.2-.5.8-1.9 1.8-3.2 2.3-.9.2-1.8.5-2.8.4h-11.1l-.1-4.3zm172-8.3c-.8 2.8-2.9 6-6.2 5.9V67c.9-.4 1.9-.9 2.5-1.8.7-1.3.7-2.8.6-4.6 6.6-.1 13.5 0 20.1 0v11.9c0 4.2-4.6 6.4-5.7 6.4h-15.9v-4.4h13c1.8 0 3.6-.6 4.1-1.4h-12.1v-5.2H552c.1-1.9-1.2-1.6-2.3-1.7H539zM318.9 79v-4.3l6.9-.1c.9 0 .9-2.3.9-3.8h7.8c0-.7-.8-1.1-2-1.1H319V65h19.2c0 2.8.3 6.6-.9 8.5-1.5 2.2-5.8 1.5-7.3 1.7 0 1.8-1.3 3.8-2.6 3.8h-8.5zm20.3-13.3l23.2 2.5v-4.8l-23.2-2.5m0 10.1l23.2 2.5v-4.8l-23.2-2.5m0 10.2l23.2 2.6v-4.8l-23.2-2.6m24.3-10.9h4.2v11.7h-4.2zm24.4 7h22.4v4.6h-22.4zm54.2-7h-22.7v5.2h18.8v8.6h-19.4V79h23.3m1.5-4.4c3.5-.1 11.1.1 14.6 0 1.7-.1 3.2-1.5 4.2-2.9.9-1.2 1.2-2.4 1.3-4.1.1-2.3 0-4.6.1-6.9h3.4V70c0 2.5-.8 4.4-2.4 6.2-.5.8-1.9 1.8-3.2 2.3-.9.2-1.8.5-2.8.4h-15l-.2-4.3zm28.1-3.9h19.9v-3.9h-2.4c1-.5 1.7-1.5 1.7-2.7 0-1.7-1.4-3-3-3s-3 1.4-3 3c0 1.2.7 2.2 1.7 2.7H485c-.5 0-.4-1.3-1.4-1.3h-12v-4.8h-3.4v13.7c0 2 1.8 4.3 3.2 4.6h20.1v-4.4h-17.8c-1.6-.4-2-2.4-2-3.9zm16.1-8.2c.9 0 1.6.7 1.6 1.6 0 .9-.7 1.6-1.6 1.6s-1.6-.7-1.6-1.6c0-.9.7-1.6 1.6-1.6zm19.9 3h-13.5v4.8h10.2v4.3h-11.9V79h19v-4.4h-3.8"/>
  <path fill="#EA2C27" d="M509.2 67.7h22.4v4.6h-22.4z"/>
  <path fill-rule="evenodd" d="M470.5 94.3h85.6v21.5h-85.6z"/>
  <path fill="#E6E7E8" d="M475.2 111.8V97.6h2.9v5.6h5.6v-5.6h2.9v14.1h-2.9v-6.2h-5.6v6.2h-2.9zm17.9 0L488 97.6h3.1l3.6 10.5 3.5-10.5h3l-5.1 14.1h-3zm18.6-5.2l2.8.9c-.4 1.5-1.1 2.7-2.1 3.4-1 .7-2.2 1.1-3.8 1.1-1.9 0-3.4-.6-4.6-1.9-1.2-1.3-1.8-3-1.8-5.3 0-2.4.6-4.2 1.8-5.5 1.2-1.3 2.8-2 4.8-2 1.7 0 3.1.5 4.2 1.5.6.6 1.1 1.5 1.4 2.6l-2.8.7c-.2-.7-.5-1.3-1-1.7-.5-.4-1.2-.6-1.9-.6-1 0-1.9.4-2.6 1.1-.7.8-1 2-1 3.7 0 1.8.3 3.1 1 3.8.6.8 1.5 1.1 2.5 1.1.8 0 1.4-.2 2-.7.5-.4.8-1.2 1.1-2.2zm4.9 1.4v-2.7h5.3v2.7h-5.3zm6.9-10.4h2.9v7.7c0 1.2 0 2 .1 2.4.1.6.4 1 .9 1.4.5.4 1.1.5 1.9.5.8 0 1.4-.2 1.8-.5.4-.3.7-.7.7-1.2.1-.5.1-1.3.1-2.4v-7.8h2.9v7.4c0 1.7-.1 2.9-.2 3.6-.2.7-.4 1.3-.9 1.8-.4.5-1 .9-1.7 1.2s-1.6.4-2.7.4c-1.4 0-2.4-.2-3.1-.5-.7-.3-1.2-.7-1.7-1.2-.4-.5-.7-1-.8-1.6-.2-.8-.3-2-.3-3.6v-7.6zm14.2 14.2V97.6h4.3l2.6 9.6 2.5-9.6h4.3v14.1h-2.7v-11.1l-2.8 11.1h-2.7l-2.8-11.1v11.1h-2.7z"/>
</svg>
