<?xml version="1.0" encoding="UTF-8" standalone="no"?>
<svg
   xmlns:dc="http://purl.org/dc/elements/1.1/"
   xmlns:cc="http://creativecommons.org/ns#"
   xmlns:rdf="http://www.w3.org/1999/02/22-rdf-syntax-ns#"
   xmlns:svg="http://www.w3.org/2000/svg"
   xmlns="http://www.w3.org/2000/svg"
   viewBox="0 0 258.8425 495.1225"
   height="495.1225"
   width="258.8425"
   xml:space="preserve"
   version="1.1"
   id="svg2"><metadata
     id="metadata8"><rdf:RDF><cc:Work
         rdf:about=""><dc:format>image/svg+xml</dc:format><dc:type
           rdf:resource="http://purl.org/dc/dcmitype/StillImage" /><dc:title></dc:title></cc:Work></rdf:RDF></metadata><defs
     id="defs6"><clipPath
       id="clipPath16"
       clipPathUnits="userSpaceOnUse"><path
         id="path18"
         d="m 0,396.098 207.074,0 L 207.074,0 0,0 0,396.098 Z" /></clipPath></defs><g
     transform="matrix(1.25,0,0,-1.25,0,495.1225)"
     id="g10"><g
       id="g12"><g
         clip-path="url(#clipPath16)"
         id="g14"><g
           transform="translate(196.125,390.8977)"
           id="g20"><path
             id="path22"
             style="fill:none;stroke:#8f9c97;stroke-width:10.39999962;stroke-linecap:round;stroke-linejoin:miter;stroke-miterlimit:10;stroke-dasharray:none;stroke-opacity:1"
             d="m 0,0 c -30.292,-10.081 -60.32,-10.427 -80.426,-35.008 -5.654,-6.913 -13.848,-23.209 -8.777,-53.223" /></g><g
           transform="translate(73,310.0638)"
           id="g24"><path
             id="path26"
             style="fill:#93936b;fill-opacity:1;fill-rule:evenodd;stroke:none"
             d="m 0,0 68.074,0 c 1.435,0 2.6,-1.165 2.6,-2.6 l 0,-1.563 c 0,-1.435 -1.165,-2.6 -2.6,-2.6 L 0,-6.763 c -1.435,0 -2.6,1.165 -2.6,2.6 l 0,1.563 C -2.6,-1.165 -1.435,0 0,0" /></g><g
           transform="translate(83.612,315.7867)"
           id="g28"><path
             id="path30"
             style="fill:#8f9c97;fill-opacity:1;fill-rule:evenodd;stroke:none"
             d="m 0,0 46.87,0 3.318,-6.519 -53.007,0 L 0,0 Z" /></g><g
           transform="translate(85.4973,326.1907)"
           id="g32"><path
             id="path34"
             style="fill:#8f9c97;fill-opacity:1;fill-rule:evenodd;stroke:none"
             d="m 0,0 43.654,0 3.09,-7.558 -49.369,0 L 0,0 Z" /></g><g
           transform="translate(89.1849,337.6367)"
           id="g36"><path
             id="path38"
             style="fill:#8f9c97;fill-opacity:1;fill-rule:evenodd;stroke:none"
             d="m 0,0 35.842,0 2.537,-8.6 -40.534,0 L 0,0 Z" /></g><g
           transform="translate(92.9001,348.0407)"
           id="g40"><path
             id="path42"
             style="fill:#8f9c97;fill-opacity:1;fill-rule:evenodd;stroke:none"
             d="m 0,0 28.49,0 2.017,-8.599 -32.22,0 L 0,0 Z" /></g><g
           transform="translate(23.12,306.4218)"
           id="g44"><path
             id="path46"
             style="fill:#9a9a71;fill-opacity:1;fill-rule:evenodd;stroke:none"
             d="m 0,0 167.834,0 c 8.898,0 16.12,-7.222 16.12,-16.12 l 0,-274.182 c 0,-8.898 -7.222,-16.12 -16.12,-16.12 l -167.834,0 c -8.898,0 -23.12,7.222 -23.12,16.12 l 7,274.182 C -16.12,-7.222 -8.898,0 0,0" /></g><g
           transform="translate(35.0702,258.5598)"
           id="g48"><path
             id="path50"
             style="fill:#a7a478;fill-opacity:1;fill-rule:evenodd;stroke:none"
             d="m 0,0 141.855,0 c 6.889,0 12.48,-5.591 12.48,-12.48 l 0,-185.738 c 0,-6.888 -5.591,-12.48 -12.48,-12.48 l -141.855,0 c -6.889,0 -12.48,5.592 -12.48,12.48 l 0,185.738 C -12.48,-5.591 -6.889,0 0,0" /></g><g
           transform="translate(46.499,290.2947)"
           id="g52"><path
             id="path54"
             style="fill:#4c544d;fill-opacity:1;fill-rule:evenodd;stroke:none"
             d="m 0,0 115.879,0 c 3.444,0 6.24,-2.796 6.24,-6.24 l 0,-78.042 c 0,-3.445 -2.796,-6.24 -6.24,-6.24 L 0,-90.522 c -3.444,0 -6.24,2.795 -6.24,6.24 l 0,78.042 C -6.24,-2.796 -3.444,0 0,0" /></g><g
           transform="translate(45.4574,258.0397)"
           id="g56"><path
             id="path58"
             style="fill:#697066;fill-opacity:1;fill-rule:evenodd;stroke:none"
             d="m 0,0 118.482,0 c 1.435,0 2.6,-1.165 2.6,-2.6 l 0,-51.506 c 0,-1.436 -1.165,-2.6 -2.6,-2.6 L 0,-56.706 c -1.435,0 -2.6,1.164 -2.6,2.6 l 0,51.506 C -2.6,-1.165 -1.435,0 0,0" /></g><g
           transform="translate(45.4574,288.2137)"
           id="g60"><path
             id="path62"
             style="fill:#929e8e;fill-opacity:1;fill-rule:evenodd;stroke:none"
             d="m 0,0 118.482,0 c 1.435,0 2.6,-1.165 2.6,-2.6 l 0,-25.494 c 0,-1.436 -1.165,-2.6 -2.6,-2.6 L 0,-30.694 c -1.435,0 -2.6,1.164 -2.6,2.6 l 0,25.494 C -2.6,-1.165 -1.435,0 0,0" /></g><g
           transform="translate(45.4574,205.4947)"
           id="g64"><path
             id="path66"
             style="fill:#473d35;fill-opacity:1;fill-rule:evenodd;stroke:none"
             d="m 0,0 118.482,0 c 1.435,0 2.6,-0.932 2.6,-2.081 0,-1.148 -1.165,-2.08 -2.6,-2.08 L 0,-4.161 c -1.435,0 -2.6,0.932 -2.6,2.08 C -2.6,-0.932 -1.435,0 0,0" /></g><g
           transform="translate(48.5777,101.4467)"
           id="g68"><path
             id="path70"
             style="fill:#9e9872;fill-opacity:1;fill-rule:evenodd;stroke:none"
             d="m 0,0 22.338,0 c 3.444,0 6.24,-2.796 6.24,-6.24 l 0,-22.896 c 0,-3.444 -2.796,-6.24 -6.24,-6.24 l -22.338,0 c -3.444,0 -6.24,2.796 -6.24,6.24 l 0,22.896 C -6.24,-2.796 -3.444,0 0,0" /></g><g
           transform="translate(24.0398,303.2244)"
           id="g72"><path
             id="path74"
             style="fill:#a4a47e;fill-opacity:1;fill-rule:nonzero;stroke:none"
             d="m 0,0 c 3.166,-9.49 6.329,-18.981 9.486,-28.474 1.484,-4.463 3.074,-8.892 4.342,-13.425 0.195,-0.697 0.506,-1.376 0.339,-2.129 -0.535,-0.942 -1.485,-0.782 -2.296,-0.744 -4.699,0.222 -8.304,-1.715 -11.053,-5.435 -0.298,-0.403 -0.531,-0.959 -1.211,-0.827 -2.515,3.259 -4.175,7.022 -6.049,10.635 -3.192,6.156 -6.424,12.3 -9.213,18.659 -0.391,0.89 -0.701,1.861 -1.459,2.557 l 0,9.954 c 0.521,0.197 0.552,0.715 0.701,1.131 2.613,7.293 7.972,11.268 15.611,11.541" /></g><g
           transform="translate(0,24.4851)"
           id="g76"><path
             id="path78"
             style="fill:#93936e;fill-opacity:1;fill-rule:nonzero;stroke:none"
             d="m 0,0 c 2.612,3.474 5.261,6.935 7.829,10.425 4.413,5.998 8.777,12.014 13.158,18.023 0.326,0.447 0.594,0.921 1.325,1.12 1.209,0.073 1.635,-0.651 2.185,-1.169 3.444,-3.247 8.103,-4.676 13.692,-4.786 1.296,-0.025 2.656,0.184 3.84,-0.408 0.635,-0.82 0.148,-1.619 -0.2,-2.374 C 35.323,6.709 28.492,-7.333 21.293,-21.284 c -0.123,-0.238 -0.306,-0.453 -0.528,-0.651 -0.2,-0.139 -0.398,-0.281 -0.591,-0.426 l -1.062,0 c -7.322,0.42 -12.674,3.065 -16.59,7.402 C 1.101,-13.385 0.579,-11.621 0,-9.854 0,-6.569 0,-3.285 0,0" /></g><g
           transform="translate(191.8378,306.329)"
           id="g80"><path
             id="path82"
             style="fill:#a4a47e;fill-opacity:1;fill-rule:nonzero;stroke:none"
             d="m 0,0 c 4.953,-0.384 9.149,-2.452 12.229,-6.709 2.486,-3.437 3.313,-7.312 2.91,-11.489 -2.648,-6.45 -5.245,-12.922 -7.957,-19.345 -2.742,-6.495 -5.59,-12.946 -8.415,-19.406 -0.286,-0.652 -0.735,-1.232 -1.109,-1.846 -0.62,0.482 -0.747,1.225 -0.955,1.902 -1.426,4.622 -4.552,7.394 -9.194,8.56 -0.622,0.156 -1.326,0.137 -1.801,0.691 4.475,15.795 9.204,31.514 14.199,47.368" /></g><g
           transform="translate(189.2917,55.2247)"
           id="g84"><path
             id="path86"
             style="fill:#93936e;fill-opacity:1;fill-rule:nonzero;stroke:none"
             d="m 0,0 c 2.156,-4.18 4.398,-8.315 6.449,-12.549 3.458,-7.138 7.084,-14.193 10.253,-21.479 0.257,-0.592 0.644,-1.125 0.97,-1.685 0.419,-5.291 -0.246,-10.253 -3.95,-14.351 -2.682,-2.967 -5.939,-4.712 -9.849,-5.161 -0.392,0.04 -0.784,0.08 -1.176,0.12 -1.78,2.369 -2.249,5.316 -3.175,8.029 -4.15,12.163 -8.232,24.351 -12.14,36.6 -0.256,0.803 -0.66,1.607 -0.261,2.49 0.417,0.514 1.01,0.5 1.579,0.553 4.333,0.407 7.82,2.274 10.121,6.207 C -0.887,-0.725 -0.628,-0.167 0,0" /></g><g
           transform="translate(49.8417,89.242)"
           id="g88"><path
             id="path90"
             style="fill:#a7a478;fill-opacity:1;fill-rule:nonzero;stroke:none"
             d="m 0,0 c 0.008,0.013 0.017,0.027 0.025,0.04 1.399,2.163 3.606,3.428 5.681,3.428 2.113,0 3.441,-1.163 5.188,-1.163 1.694,0 2.727,1.165 5.169,1.165 1.846,0 3.803,-1.009 5.197,-2.754 C 20.874,0.504 20.527,0.263 20.216,-0.001 L 0,0 Z" /></g><g
           transform="translate(64.0522,94.6608)"
           id="g92"><path
             id="path94"
             style="fill:#a7a478;fill-opacity:1;fill-rule:nonzero;stroke:none"
             d="M 0,0 C 0.887,1.144 1.561,2.758 1.317,4.409 -0.133,4.309 -1.829,3.383 -2.819,2.176 -3.718,1.08 -4.46,-0.546 -4.171,-2.125 -2.588,-2.174 -0.951,-1.225 0,0" /></g><g
           transform="translate(49.7695,89.2739)"
           id="g96"><path
             id="path98"
             style="fill:#a7a478;fill-opacity:1;fill-rule:nonzero;stroke:none"
             d="m 0,0 c -0.602,-0.948 -1.019,-2.306 -1.13,-3.498 l 19.544,0.001 c 0.211,1.303 0.914,2.549 2.027,3.496 L 0,0 0.001,0 0,0 Z" /></g><g
           transform="translate(48.8172,82.3098)"
           id="g100"><path
             id="path102"
             style="fill:#a7a478;fill-opacity:1;fill-rule:nonzero;stroke:none"
             d="M 0,0 C -0.19,1.217 -0.221,2.39 -0.101,3.466 L 19.29,3.467 C 19.1,2.3 19.259,1.085 19.739,-0.001 L 0,0 Z" /></g><g
           transform="translate(49.7648,78.8436)"
           id="g104"><path
             id="path106"
             style="fill:#a7a478;fill-opacity:1;fill-rule:nonzero;stroke:none"
             d="M 0,0 C -0.458,1.165 -0.771,2.334 -0.948,3.466 L 18.792,3.465 C 19.403,2.082 20.534,0.907 22.126,0.303 22.079,0.197 22.033,0.096 21.989,-0.001 L 0,0 Z" /></g><g
           transform="translate(71.7538,78.8421)"
           id="g108"><path
             id="path110"
             style="fill:#a7a478;fill-opacity:1;fill-rule:nonzero;stroke:none"
             d="m 0,0 c -0.547,-1.207 -0.864,-1.833 -1.62,-2.99 -0.102,-0.155 -0.207,-0.314 -0.317,-0.474 l -18.22,-0.002 c -0.058,0.087 -0.116,0.175 -0.173,0.261 -0.681,1.042 -1.233,2.122 -1.659,3.206 L 0,0 Z" /></g><g
           transform="translate(69.8171,75.3778)"
           id="g112"><path
             id="path114"
             style="fill:#a7a478;fill-opacity:1;fill-rule:nonzero;stroke:none"
             d="m 0,0 c -1.115,-1.64 -2.611,-3.444 -4.427,-3.461 -1.771,-0.016 -2.226,1.158 -4.63,1.145 -2.403,-0.014 -2.905,-1.165 -4.677,-1.149 -1.894,0.018 -3.365,1.79 -4.486,3.463 L 0,0 Z" /></g></g></g></g></svg>