<?xml version="1.0" encoding="utf-8"?>
<!-- Generator: Adobe Illustrator 19.0.0, SVG Export Plug-In . SVG Version: 6.00 Build 0)  -->
<svg version="1.1" baseProfile="tiny" id="Layer_1" xmlns="http://www.w3.org/2000/svg" xmlns:xlink="http://www.w3.org/1999/xlink"
	 x="0px" y="0px" viewBox="0 0 489.5 540.5" xml:space="preserve">
<g>
	<g>
		<path fill="#A29583" d="M489.5,528V12c0-6.6-5.4-12-12-12h-465c-6.6,0-12,5.4-12,12v516c0,6.6,5.4,12,12,12h465
			C484.1,540,489.5,534.6,489.5,528z"/>
	</g>
	<g>
		<path fill="#D7250B" d="M369.6,99.4v-67c0-6.6-5.4-12-12-12h-62c-6.6,0-12,5.4-12,12v67c0,6.6,5.4,12,12,12h62
			C364.2,111.4,369.6,106,369.6,99.4z"/>
	</g>
	<g>
		<path fill="#D7250B" d="M473.6,217.4v-67c0-6.6-5.4-12-12-12h-62c-6.6,0-12,5.4-12,12v67c0,6.6,5.4,12,12,12h62
			C468.2,229.4,473.6,224,473.6,217.4z"/>
	</g>
	<g>
		<path fill="#A29583" d="M0.5,128.4V528c0,6.6,5.4,12,12,12h357.1c6.6,0,12-5.4,12-12V128.4c0-6.6-5.4-12-12-12H12.5
			C5.9,116.4,0.5,121.8,0.5,128.4z"/>
		<path fill="#2D241A" d="M0,528V128.4c0-6.9,5.6-12.5,12.5-12.5h357.1c6.9,0,12.5,5.6,12.5,12.5V528c0,6.9-5.6,12.5-12.5,12.5H12.5
			C5.6,540.5,0,534.9,0,528z M381.1,128.4c0-6.3-5.2-11.5-11.5-11.5H12.5c-6.3,0-11.5,5.2-11.5,11.5V528c0,6.3,5.2,11.5,11.5,11.5
			h357.1c6.3,0,11.5-5.2,11.5-11.5V128.4z"/>
	</g>
	<g>
		<path fill="#685646" d="M50.2,475V181.3c0-6.6,5.4-12,12-12H324c6.6,0,12,5.4,12,12V475c0,6.6-5.4,12-12,12H62.2
			C55.6,487,50.2,481.6,50.2,475z"/>
	</g>
	<g>
		<path fill="none" stroke="#000000" stroke-miterlimit="10" d="M170.5,328.2"/>
	</g>
	<g>
		<path fill="none" stroke="#000000" stroke-miterlimit="10" d="M240.7,340.2"/>
	</g>
	<g>
		<path fill="#847863" d="M38.6,62.4v-40c0-6.6,5.4-12,12-12h40c6.6,0,12,5.4,12,12v40c0,6.6-5.4,12-12,12h-40
			C44,74.4,38.6,69,38.6,62.4z"/>
	</g>
	<g>
		<path fill="none" stroke="#000000" stroke-miterlimit="10" d="M211.5,312.6"/>
	</g>
	<g>
		<path fill="none" stroke="#000000" stroke-miterlimit="10" d="M211.5,358"/>
	</g>
	<g>
		<path fill="none" stroke="#000000" stroke-miterlimit="10" d="M350.6,352"/>
	</g>
	<g>
		<g id="path5_1_">
			<path inkscape:connector-curvature="0" fill="#A29583" d="M76.6,25C76.6,25,76.7,25,76.6,25c3.7,2.4,5.8,6.1,5.8,9.5
				c0,3.5-1.9,5.7-1.9,8.7c0,2.8,1.9,4.6,1.9,8.6c0,3.1-1.7,6.4-4.6,8.7c-0.4-0.6-0.8-1.2-1.2-1.7L76.6,25L76.6,25L76.6,25z"/>
		</g>
		<g id="path7_1_">
			<path inkscape:connector-curvature="0" fill="#A29583" d="M85.7,48.7c1.9,1.5,4.6,2.6,7.4,2.2c-0.2-2.4-1.7-5.3-3.7-6.9
				c-1.8-1.5-4.5-2.7-7.2-2.3C82,44.4,83.6,47.1,85.7,48.7L85.7,48.7L85.7,48.7z"/>
		</g>
		<g id="path9_1_">
			<path sodipodi:nodetypes="ccccccc" inkscape:connector-curvature="0" fill="#A29583" d="M76.7,24.9c-1.6-1-3.9-1.7-5.8-1.9
				l0,32.7c2.2,0.4,4.3,1.5,5.8,3.4L76.7,24.9L76.7,24.9L76.7,24.9z"/>
		</g>
		<g id="path11_1_">
			<path inkscape:connector-curvature="0" fill="#A29583" d="M65,23.3c2-0.3,4-0.4,5.8-0.2l0,32.4c-2-0.3-4-0.1-5.8,0.8L65,23.3
				L65,23.3L65,23.3z"/>
		</g>
		<g id="path13_1_">
			<path inkscape:connector-curvature="0" fill="#A29583" d="M59.2,24.9c1.9-0.8,3.9-1.3,5.8-1.6l0,33c-2.3,1-4.3,2.9-5.3,5.6
				c-0.2-0.1-0.3-0.2-0.5-0.2L59.2,24.9L59.2,24.9L59.2,24.9z"/>
		</g>
		<g id="path15_1_">
			<path inkscape:connector-curvature="0" fill="#A29583" d="M59.2,61.6c-2-0.9-3.1-1.4-5-2.7c-0.3-0.2-0.5-0.3-0.8-0.5l0-30.4
				c0.1-0.1,0.3-0.2,0.4-0.3c1.7-1.1,3.5-2.1,5.4-2.8L59.2,61.6L59.2,61.6z"/>
		</g>
		<g id="path19_1_">
			<path inkscape:connector-curvature="0" fill="#A29583" d="M53.4,58.4c-2.7-1.9-5.8-4.4-5.8-7.4c0-3,1.9-3.7,1.9-7.7
				c0-4-1.9-4.9-1.9-7.8c0-3.2,3-5.6,5.8-7.5L53.4,58.4L53.4,58.4z"/>
		</g>
	</g>
	<g>
		<path fill="none" stroke="#000000" stroke-miterlimit="10" d="M306.3,346"/>
	</g>
	<g>
		
			<rect x="262.9" y="301.5" transform="matrix(-0.7405 0.6721 -0.6721 -0.7405 730.9377 528.9033)" fill="#6D5A4B" width="1" height="208.1"/>
	</g>
	<g>
		
			<rect x="159.1" y="250.6" transform="matrix(-0.67 0.7424 -0.7424 -0.67 626.1812 223.786)" fill="#6D5A4B" width="208.5" height="1"/>
	</g>
	<g>
		
			<rect x="123" y="146.2" transform="matrix(-0.7423 0.67 -0.67 -0.7423 383.1797 354.2419)" fill="#6D5A4B" width="1" height="209.2"/>
	</g>
	<g>
		
			<rect x="19.3" y="405.1" transform="matrix(-0.6723 0.7403 -0.7403 -0.6723 506.7256 586.8447)" fill="#6D5A4B" width="208.3" height="1"/>
	</g>
	<g>
		<g>
			<g>
				<circle fill="#463A2D" cx="193" cy="328.5" r="36.5"/>
			</g>
			<g>
				<path fill="#606060" d="M156,328.5c0-20.4,16.6-37,37-37s37,16.6,37,37s-16.6,37-37,37S156,348.9,156,328.5z M229,328.5
					c0-19.9-16.1-36-36-36s-36,16.1-36,36s16.1,36,36,36S229,348.3,229,328.5z"/>
			</g>
		</g>
		<g>
			<g>
				<ellipse fill="#3F3126" cx="390.6" cy="355.2" rx="24.5" ry="31.6"/>
			</g>
			<g>
				<path fill="#606060" d="M365.6,355.2c0-17.7,11.2-32.1,25-32.1s25,14.4,25,32.1s-11.2,32.1-25,32.1S365.6,372.9,365.6,355.2z
					 M414.6,355.2c0-17.1-10.8-31.1-24-31.1s-24,13.9-24,31.1s10.8,31.1,24,31.1S414.6,372.4,414.6,355.2z"/>
			</g>
		</g>
		<g>
			<g>
				<path fill="#372E24" d="M237.3,351.9l-44.2-6.2c-8.8,0-16-7.7-16-17.3c0-9.5,7.2-17.3,16-17.3l45.8,6.4"/>
				<path fill="#606060" d="M176.5,328.5c0-9.8,7.4-17.8,16.5-17.8l45.9,6.4l-0.1,1l-45.8-6.4c-8.5,0-15.4,7.5-15.4,16.8
					s7,16.8,15.5,16.8l44.3,6.2l-0.1,1l-44.2-6.2C183.9,346.2,176.5,338.3,176.5,328.5z"/>
			</g>
			<g>
				<path fill="#372E24" d="M237.3,351.9c-3.4-4.1-5.5-9.9-5.5-16.3c0-7.3,2.8-13.8,7.1-18"/>
				<path fill="#606060" d="M231.2,335.6c0-7.2,2.6-13.9,7.2-18.3l0.7,0.7c-4.4,4.3-6.9,10.7-6.9,17.6c0,6.1,1.9,11.8,5.4,16
					l-0.8,0.6C233.2,347.8,231.2,341.9,231.2,335.6z"/>
			</g>
		</g>
		<g>
			<g>
				<path fill="#403124" d="M390.6,386.8c-13.5,0-24.5-14.1-24.5-31.6c0-17.4,11-31.6,24.5-31.6H390l-64-13.8l-76,3.3v0
					c-10.1,0-18.3,10.5-18.3,23.3c0,12.9,10,22.1,18,24.5l74.5,21.8l67.3,4.1"/>
			</g>
			<g>
				<path fill="#606060" d="M231.2,336.5c0-13.2,8.4-23.8,18.8-23.8l0.5,0l75.5-3.3l0.1,0l63.9,13.8h0.5v1c-13.2,0-24,13.9-24,31.1
					c0,15.8,9.2,28.9,21,30.8l3.9,0.2l-0.1,1l-0.9-0.1v0.1c-1,0-2.1-0.1-3.1-0.2l-63.4-3.9l-74.5-21.8
					C242,359.2,231.2,350,231.2,336.5z M249.5,313.6c-9.6,0.3-17.3,10.5-17.3,22.8c0,13,10.3,21.8,17.7,24l74.4,21.8l58.6,3.6
					c-10.1-4.1-17.4-16.3-17.4-30.5c0-16.1,9.3-29.4,21.3-31.7l-61-13.2L249.5,313.6L249.5,313.6z"/>
			</g>
		</g>
	</g>
</g>
</svg>
