<?xml version="1.0" encoding="utf-8"?>
<!-- Generator: Adobe Illustrator 19.0.0, SVG Export Plug-In . SVG Version: 6.00 Build 0)  -->
<svg version="1.1" baseProfile="tiny" xmlns="http://www.w3.org/2000/svg" xmlns:xlink="http://www.w3.org/1999/xlink" x="0px"
	 y="0px" viewBox="0 0 207.1 396.2" xml:space="preserve">
<g id="New_Layer">
</g>
<g id="MasterLayer_1">
	<g>
		<g>
			<g>
				<path fill="#929E9D" d="M106.9,98.8c-2.5,0-4.7-1.8-5.1-4.3c-5.5-32.7,3.8-50,9.9-57.4c15.9-19.4,36.9-24.6,59.3-30.1
					c7.7-1.9,15.7-3.9,23.5-6.5c2.7-0.9,5.7,0.6,6.6,3.3c0.9,2.7-0.6,5.7-3.3,6.6c-8.2,2.7-16.4,4.8-24.3,6.7
					c-21.5,5.3-40.1,9.9-53.7,26.6c-4,4.9-12.7,19.4-7.7,49.1c0.5,2.8-1.4,5.5-4.3,6C107.5,98.7,107.2,98.8,106.9,98.8z"/>
			</g>
			<path fill-rule="evenodd" fill="#989678" d="M73,86.2h68.1c1.4,0,2.6,1.2,2.6,2.6v1.6c0,1.4-1.2,2.6-2.6,2.6H73
				c-1.4,0-2.6-1.2-2.6-2.6v-1.6C70.4,87.3,71.6,86.2,73,86.2z"/>
			<polygon fill-rule="evenodd" fill="#929E9D" points="83.6,80.4 130.5,80.4 133.8,87 80.8,87 			"/>
			<polygon fill-rule="evenodd" fill="#929E9D" points="85.5,70 129.2,70 132.2,77.6 82.9,77.6 			"/>
			<polygon fill-rule="evenodd" fill="#929E9D" points="89.2,58.6 125,58.6 127.6,67.2 87,67.2 			"/>
			<polygon fill-rule="evenodd" fill="#929E9D" points="92.9,48.2 121.4,48.2 123.4,56.8 91.2,56.8 			"/>
		</g>
		<path fill-rule="evenodd" fill="none" d="M23.1,89.8H191c8.9,0,16.1,7.2,16.1,16.1v274.2c0,8.9-7.2,16.1-16.1,16.1H23.1
			C14.2,396.2,0,389,0,380.1l7-274.2C7,97,14.2,89.8,23.1,89.8"/>
		<path fill-rule="evenodd" fill="#A09B7C" d="M23.1,89.8H191c8.9,0,16.1,7.2,16.1,16.1v274.2c0,8.9-7.2,16.1-16.1,16.1H23.1
			C14.2,396.2,0,389,0,380.1l7-274.2C7,97,14.2,89.8,23.1,89.8z"/>
		<path fill-rule="evenodd" fill="#ABA685" d="M35.1,137.7h141.9c6.9,0,12.5,5.6,12.5,12.5v185.7c0,6.9-5.6,12.5-12.5,12.5H35.1
			c-6.9,0-12.5-5.6-12.5-12.5V150.1C22.6,143.3,28.2,137.7,35.1,137.7z"/>
		<g>
			<path fill-rule="evenodd" fill="#525B55" d="M46.5,105.9h115.9c3.4,0,6.2,2.8,6.2,6.2v78c0,3.4-2.8,6.2-6.2,6.2H46.5
				c-3.4,0-6.2-2.8-6.2-6.2v-78C40.3,108.7,43.1,105.9,46.5,105.9z"/>
			<path fill-rule="evenodd" fill="#6E766F" d="M45.5,138.2h118.5c1.4,0,2.6,1.2,2.6,2.6v51.5c0,1.4-1.2,2.6-2.6,2.6H45.5
				c-1.4,0-2.6-1.2-2.6-2.6v-51.5C42.9,139.3,44,138.2,45.5,138.2z"/>
			<path fill-rule="evenodd" fill="#95A095" d="M45.5,108h118.5c1.4,0,2.6,1.2,2.6,2.6v25.5c0,1.4-1.2,2.6-2.6,2.6H45.5
				c-1.4,0-2.6-1.2-2.6-2.6v-25.5C42.9,109.2,44,108,45.5,108z"/>
			<path fill-rule="evenodd" fill="#4E453C" d="M45.5,190.7h118.5c1.4,0,2.6,0.9,2.6,2.1l0,0c0,1.1-1.2,2.1-2.6,2.1H45.5
				c-1.4,0-2.6-0.9-2.6-2.1l0,0C42.9,191.7,44,190.7,45.5,190.7z"/>
		</g>
		<path fill-rule="evenodd" fill="#A29C7E" d="M48.6,294.8h22.3c3.4,0,6.2,2.8,6.2,6.2v22.9c0,3.4-2.8,6.2-6.2,6.2H48.6
			c-3.4,0-6.2-2.8-6.2-6.2V301C42.3,297.6,45.1,294.8,48.6,294.8z"/>
		<path fill="#A9A589" d="M25.1,89.5"/>
		<path fill="#A9A589" d="M24,93c3.2,9.5,6.3,19,9.5,28.5c1.5,4.5,3.1,8.9,4.3,13.4c0.2,0.7,0.5,1.4,0.3,2.1
			c-0.5,0.9-1.5,0.8-2.3,0.7c-4.7-0.2-8.3,1.7-11.1,5.4c-0.3,0.4-0.5,1-1.2,0.8c-2.5-3.3-4.2-7-6-10.6c-3.2-6.2-6.4-12.3-9.2-18.7
			c-0.4-0.9-0.7-1.9-1.5-2.6c0-3.3,0-6.6,0-10c0.5-0.2,0.6-0.7,0.7-1.1c2.6-7.3,8-11.3,15.6-11.5"/>
		<path fill="#A9A589" d="M26.9,90.5"/>
		<path fill="#A9A589" d="M28.3,90.5"/>
		<path fill="#999578" d="M0,371.7c2.6-3.5,5.3-6.9,7.8-10.4c4.4-6,8.8-12,13.2-18c0.3-0.4,0.6-0.9,1.3-1.1c1.2-0.1,1.6,0.7,2.2,1.2
			c3.4,3.2,8.1,4.7,13.7,4.8c1.3,0,2.7-0.2,3.8,0.4c0.6,0.8,0.1,1.6-0.2,2.4C35.3,365,28.5,379.1,21.3,393c-0.1,0.2-0.3,0.5-0.5,0.7
			c-0.2,0.1-0.4,0.3-0.6,0.4c-0.4,0-0.7,0-1.1,0c-7.3-0.4-12.7-3.1-16.6-7.4c-1.4-1.6-1.9-3.3-2.5-5.1C0,378.3,0,375,0,371.7z"/>
		<path fill="#A9A589" d="M189.3,89.9"/>
		<path fill="#A9A589" d="M191.8,89.9c5,0.4,9.1,2.5,12.2,6.7c2.5,3.4,3.3,7.3,2.9,11.5c-2.6,6.5-5.2,12.9-8,19.3
			c-2.7,6.5-5.6,12.9-8.4,19.4c-0.3,0.7-0.7,1.2-1.1,1.8c-0.6-0.5-0.7-1.2-1-1.9c-1.4-4.6-4.6-7.4-9.2-8.6c-0.6-0.2-1.3-0.1-1.8-0.7
			c4.5-15.8,9.2-31.5,14.2-47.4"/>
		<path fill="#A9A589" d="M190.1,89.6"/>
		<path fill="#999578" d="M189.3,341c2.2,4.2,4.4,8.3,6.4,12.5c3.5,7.1,7.1,14.2,10.3,21.5c0.3,0.6,0.6,1.1,1,1.7
			c0.4,5.3-0.2,10.3-4,14.4c-2.7,3-5.9,4.7-9.8,5.2c-0.4,0-0.8-0.1-1.2-0.1c-1.8-2.4-2.2-5.3-3.2-8c-4.1-12.2-8.2-24.4-12.1-36.6
			c-0.3-0.8-0.7-1.6-0.3-2.5c0.4-0.5,1-0.5,1.6-0.6c4.3-0.4,7.8-2.3,10.1-6.2C188.4,341.7,188.7,341.2,189.3,341z"/>
		<g>
			<path id="path5" inkscape:connector-curvature="0" fill="#ABA685" d="M49.8,307C49.8,307,49.9,307,49.8,307
				c1.4-2.2,3.6-3.5,5.7-3.5c2.1,0,3.4,1.2,5.2,1.2c1.7,0,2.7-1.2,5.2-1.2c1.8,0,3.8,1,5.2,2.8c-0.4,0.2-0.7,0.5-1,0.7L49.8,307
				L49.8,307L49.8,307z"/>
			<path id="path7" inkscape:connector-curvature="0" fill="#ABA685" d="M64.1,301.6c0.9-1.1,1.6-2.8,1.3-4.4
				c-1.4,0.1-3.1,1-4.1,2.2c-0.9,1.1-1.6,2.7-1.4,4.3C61.5,303.7,63.1,302.8,64.1,301.6L64.1,301.6L64.1,301.6z"/>
			<path id="path9" sodipodi:nodetypes="ccccccc" inkscape:connector-curvature="0" fill="#ABA685" d="M49.8,307
				c-0.6,0.9-1,2.3-1.1,3.5l19.5,0c0.2-1.3,0.9-2.5,2-3.5L49.8,307L49.8,307L49.8,307z"/>
			<path id="path11" inkscape:connector-curvature="0" fill="#ABA685" d="M48.8,313.9c-0.2-1.2-0.2-2.4-0.1-3.5l19.4,0
				c-0.2,1.2,0,2.4,0.4,3.5L48.8,313.9L48.8,313.9L48.8,313.9z"/>
			<path id="path13" inkscape:connector-curvature="0" fill="#ABA685" d="M49.8,317.4c-0.5-1.2-0.8-2.3-0.9-3.5l19.7,0
				c0.6,1.4,1.7,2.6,3.3,3.2c0,0.1-0.1,0.2-0.1,0.3L49.8,317.4L49.8,317.4L49.8,317.4z"/>
			<path id="path15" inkscape:connector-curvature="0" fill="#ABA685" d="M71.8,317.4c-0.5,1.2-0.9,1.8-1.6,3
				c-0.1,0.2-0.2,0.3-0.3,0.5l-18.2,0c-0.1-0.1-0.1-0.2-0.2-0.3c-0.7-1-1.2-2.1-1.7-3.2L71.8,317.4L71.8,317.4z"/>
			<path id="path19" inkscape:connector-curvature="0" fill="#ABA685" d="M69.8,320.8c-1.1,1.6-2.6,3.4-4.4,3.5
				c-1.8,0-2.2-1.2-4.6-1.1c-2.4,0-2.9,1.2-4.7,1.1c-1.9,0-3.4-1.8-4.5-3.5L69.8,320.8L69.8,320.8z"/>
		</g>
	</g>
</g>
</svg>
