<?xml version="1.0" encoding="UTF-8" standalone="no"?>
<svg
   xmlns:dc="http://purl.org/dc/elements/1.1/"
   xmlns:cc="http://creativecommons.org/ns#"
   xmlns:rdf="http://www.w3.org/1999/02/22-rdf-syntax-ns#"
   xmlns:svg="http://www.w3.org/2000/svg"
   xmlns="http://www.w3.org/2000/svg"
   viewBox="0 0 348.04001 594.97375"
   height="594.97375"
   width="348.04001"
   xml:space="preserve"
   version="1.1"
   id="svg2"><metadata
     id="metadata8"><rdf:RDF><cc:Work
         rdf:about=""><dc:format>image/svg+xml</dc:format><dc:type
           rdf:resource="http://purl.org/dc/dcmitype/StillImage" /><dc:title></dc:title></cc:Work></rdf:RDF></metadata><defs
     id="defs6"><clipPath
       id="clipPath16"
       clipPathUnits="userSpaceOnUse"><path
         id="path18"
         d="m 0,475.979 278.432,0 L 278.432,0 0,0 0,475.979 Z" /></clipPath></defs><g
     transform="matrix(1.25,0,0,-1.25,0,594.97375)"
     id="g10"><g
       id="g12"><g
         clip-path="url(#clipPath16)"
         id="g14"><g
           transform="translate(278.2842,175.8076)"
           id="g20"><path
             id="path22"
             style="fill:#a29583;fill-opacity:1;fill-rule:nonzero;stroke:none"
             d="m 0,0 0,293.349 c 0,3.752 -3.07,6.822 -6.822,6.822 l -264.356,0 c -3.752,0 -6.822,-3.07 -6.822,-6.822 L -278,0 c 0,-3.752 3.07,-6.822 6.822,-6.822 l 264.356,0 C -3.07,-6.822 0,-3.752 0,0" /></g><g
           transform="translate(210.118,419.468)"
           id="g24"><path
             id="path26"
             style="fill:#d7250b;fill-opacity:1;fill-rule:nonzero;stroke:none"
             d="m 0,0 0,38.092 c 0,3.752 -3.07,6.822 -6.822,6.822 l -35.25,0 c -3.752,0 -6.822,-3.07 -6.822,-6.822 l 0,-38.092 c 0,-3.752 3.07,-6.822 6.822,-6.822 l 35.25,0 C -3.07,-6.822 0,-3.752 0,0" /></g><g
           transform="translate(269.2457,352.3809)"
           id="g28"><path
             id="path30"
             style="fill:#d7250b;fill-opacity:1;fill-rule:nonzero;stroke:none"
             d="m 0,0 0,38.092 c 0,3.752 -3.07,6.822 -6.822,6.822 l -35.25,0 c -3.752,0 -6.822,-3.07 -6.822,-6.822 l 0,-38.092 c 0,-3.752 3.07,-6.822 6.822,-6.822 l 35.25,0 C -3.07,-6.822 0,-3.752 0,0" /></g><g
           transform="translate(0.2843,402.9805)"
           id="g32"><path
             id="path34"
             style="fill:#a29583;fill-opacity:1;fill-rule:nonzero;stroke:none"
             d="m 0,0 0,-227.173 c 0,-3.752 3.07,-6.822 6.822,-6.822 l 203.012,0 c 3.752,0 6.822,3.07 6.822,6.822 l 0,227.173 c 0,3.752 -3.07,6.822 -6.822,6.822 l -203.012,0 C 3.07,6.822 0,3.752 0,0" /></g><g
           transform="translate(0.2843,402.9805)"
           id="g36"><path
             id="path38"
             style="fill:none;stroke:#2d241a;stroke-width:0.56900001;stroke-linecap:butt;stroke-linejoin:miter;stroke-miterlimit:10;stroke-dasharray:none;stroke-opacity:1"
             d="m 0,0 0,-227.173 c 0,-3.752 3.07,-6.822 6.822,-6.822 l 203.012,0 c 3.752,0 6.822,3.07 6.822,6.822 l 0,227.173 c 0,3.752 -3.07,6.822 -6.822,6.822 l -203.012,0 C 3.07,6.822 0,3.752 0,0 Z" /></g><g
           transform="translate(28.5255,205.9098)"
           id="g40"><path
             id="path42"
             style="fill:#685646;fill-opacity:1;fill-rule:nonzero;stroke:none"
             d="m 0,0 0,166.969 c 0,3.752 3.07,6.822 6.822,6.822 l 148.848,0 c 3.752,0 6.822,-3.07 6.822,-6.822 L 162.492,0 c 0,-3.752 -3.07,-6.822 -6.822,-6.822 l -148.848,0 C 3.07,-6.822 0,-3.752 0,0" /></g><g
           transform="translate(21.9328,440.5038)"
           id="g44"><path
             id="path46"
             style="fill:#847863;fill-opacity:1;fill-rule:nonzero;stroke:none"
             d="m 0,0 0,22.741 c 0,3.753 3.07,6.823 6.822,6.823 l 22.742,0 c 3.752,0 6.822,-3.07 6.822,-6.823 L 36.386,0 c 0,-3.752 -3.07,-6.822 -6.822,-6.822 l -22.742,0 C 3.07,-6.822 0,-3.752 0,0" /></g><g
           transform="translate(43.5569,461.7766)"
           id="g48"><path
             id="path50"
             style="fill:#a29583;fill-opacity:1;fill-rule:nonzero;stroke:none"
             d="m 0,0 c 0.013,-0.008 0.025,-0.016 0.038,-0.024 2.054,-1.329 3.257,-3.425 3.257,-5.396 0,-2.008 -1.105,-3.27 -1.105,-4.929 0,-1.61 1.107,-2.59 1.107,-4.911 0,-1.753 -0.959,-3.612 -2.617,-4.936 -0.201,0.366 -0.43,0.696 -0.681,0.991 L 0,0 Z" /></g><g
           transform="translate(48.7046,448.2771)"
           id="g52"><path
             id="path54"
             style="fill:#a29583;fill-opacity:1;fill-rule:nonzero;stroke:none"
             d="M 0,0 C 1.086,-0.842 2.62,-1.483 4.189,-1.251 4.094,0.126 3.213,1.737 2.067,2.678 1.026,3.532 -0.518,4.237 -2.018,3.962 -2.065,2.459 -1.164,0.903 0,0" /></g><g
           transform="translate(43.5872,461.8451)"
           id="g56"><path
             id="path58"
             style="fill:#a29583;fill-opacity:1;fill-rule:nonzero;stroke:none"
             d="m 0,0 c -0.9,0.572 -2.191,0.968 -3.323,1.073 l 10e-4,-18.565 c 1.238,-0.201 2.421,-0.869 3.321,-1.926 L 0,0 0,-0.001 0,0 Z" /></g><g
           transform="translate(36.9716,462.7498)"
           id="g60"><path
             id="path62"
             style="fill:#a29583;fill-opacity:1;fill-rule:nonzero;stroke:none"
             d="m 0,0 c 1.156,0.18 2.271,0.21 3.293,0.096 l 0,-18.421 c -1.108,0.18 -2.262,0.029 -3.294,-0.427 L 0,0 Z" /></g><g
           transform="translate(33.6788,461.8496)"
           id="g64"><path
             id="path66"
             style="fill:#a29583;fill-opacity:1;fill-rule:nonzero;stroke:none"
             d="M 0,0 C 1.106,0.435 2.217,0.733 3.293,0.9 L 3.292,-17.851 c -1.314,-0.581 -2.431,-1.655 -3.005,-3.168 -0.1,0.045 -0.196,0.088 -0.288,0.13 L 0,0 Z" /></g><g
           transform="translate(33.6774,440.9608)"
           id="g68"><path
             id="path70"
             style="fill:#a29583;fill-opacity:1;fill-rule:nonzero;stroke:none"
             d="M 0,0 C -1.147,0.519 -1.742,0.82 -2.84,1.539 -2.988,1.636 -3.139,1.736 -3.291,1.84 l -0.002,17.308 c 0.083,0.056 0.166,0.111 0.248,0.165 0.99,0.647 2.016,1.171 3.046,1.576 L 0,0 Z" /></g><g
           transform="translate(30.3865,442.8006)"
           id="g72"><path
             id="path74"
             style="fill:#a29583;fill-opacity:1;fill-rule:nonzero;stroke:none"
             d="m 0,0 c -1.557,1.059 -3.271,2.48 -3.288,4.205 -0.015,1.683 1.1,2.115 1.088,4.398 -0.013,2.284 -1.107,2.761 -1.091,4.444 0.016,1.799 1.7,3.196 3.289,4.262 L 0,0 Z" /></g><g
           transform="translate(110.0138,289.2333)"
           id="g76"><path
             id="path78"
             style="fill:none;stroke:#6d5a4b;stroke-width:0.56900001;stroke-linecap:butt;stroke-linejoin:miter;stroke-miterlimit:10;stroke-dasharray:none;stroke-opacity:1"
             d="M 0,0 79.42,-87.68" /></g><g
           transform="translate(110.0138,289.2333)"
           id="g80"><path
             id="path82"
             style="fill:none;stroke:#6d5a4b;stroke-width:0.56900001;stroke-linecap:butt;stroke-linejoin:miter;stroke-miterlimit:10;stroke-dasharray:none;stroke-opacity:1"
             d="M 0,0 79.42,88.002" /></g><g
           transform="translate(30.3865,377.5466)"
           id="g84"><path
             id="path86"
             style="fill:none;stroke:#6d5a4b;stroke-width:0.56900001;stroke-linecap:butt;stroke-linejoin:miter;stroke-miterlimit:10;stroke-dasharray:none;stroke-opacity:1"
             d="M 0,0 79.627,-88.313" /></g><g
           transform="translate(30.3849,201.5529)"
           id="g88"><path
             id="path90"
             style="fill:none;stroke:#6d5a4b;stroke-width:0.56900001;stroke-linecap:butt;stroke-linejoin:miter;stroke-miterlimit:10;stroke-dasharray:none;stroke-opacity:1"
             d="M 0,0 79.629,87.68" /></g><g
           transform="translate(109.7495,268.4818)"
           id="g92"><path
             id="path94"
             style="fill:#463a2d;fill-opacity:1;fill-rule:nonzero;stroke:none"
             d="m 0,0 c -11.461,0 -20.752,9.291 -20.752,20.752 0,11.46 9.291,20.751 20.752,20.751 11.461,0 20.752,-9.291 20.752,-20.751 C 20.752,9.291 11.461,0 0,0" /></g><g
           transform="translate(109.7495,268.4818)"
           id="g96"><path
             id="path98"
             style="fill:none;stroke:#606060;stroke-width:0.56900001;stroke-linecap:butt;stroke-linejoin:miter;stroke-miterlimit:10;stroke-dasharray:none;stroke-opacity:1"
             d="m 0,0 c -11.461,0 -20.752,9.291 -20.752,20.752 0,11.46 9.291,20.751 20.752,20.751 11.461,0 20.752,-9.291 20.752,-20.751 C 20.752,9.291 11.461,0 0,0 Z" /></g><g
           transform="translate(222.0573,256.0666)"
           id="g100"><path
             id="path102"
             style="fill:#3f3126;fill-opacity:1;fill-rule:nonzero;stroke:none"
             d="m 0,0 c -7.693,0 -13.929,8.034 -13.929,17.944 0,9.91 6.236,17.944 13.929,17.944 7.693,0 13.929,-8.034 13.929,-17.944 C 13.929,8.034 7.693,0 0,0" /></g><g
           transform="translate(222.0573,256.0666)"
           id="g104"><path
             id="path106"
             style="fill:none;stroke:#606060;stroke-width:0.56900001;stroke-linecap:butt;stroke-linejoin:miter;stroke-miterlimit:10;stroke-dasharray:none;stroke-opacity:1"
             d="m 0,0 c -7.693,0 -13.929,8.034 -13.929,17.944 0,9.91 6.236,17.944 13.929,17.944 7.693,0 13.929,-8.034 13.929,-17.944 C 13.929,8.034 7.693,0 0,0 Z" /></g><g
           transform="translate(134.8869,275.9123)"
           id="g108"><path
             id="path110"
             style="fill:#372e24;fill-opacity:1;fill-rule:nonzero;stroke:#606060;stroke-width:0.56900001;stroke-linecap:butt;stroke-linejoin:miter;stroke-miterlimit:10;stroke-dasharray:none;stroke-opacity:1"
             d="m 0,0 -25.137,3.514 c -5.024,0 -9.097,4.391 -9.097,9.807 0,5.416 4.073,9.807 9.097,9.807 L 0.892,19.49" /></g><g
           transform="translate(134.8927,275.8914)"
           id="g112"><path
             id="path114"
             style="fill:#372e24;fill-opacity:1;fill-rule:nonzero;stroke:#606060;stroke-width:0.56900001;stroke-linecap:butt;stroke-linejoin:miter;stroke-miterlimit:10;stroke-dasharray:none;stroke-opacity:1"
             d="m 0,0 c -1.938,2.348 -3.142,5.631 -3.142,9.265 0,4.159 1.578,7.86 4.028,10.224" /></g><g
           transform="translate(222.0573,256.0666)"
           id="g116"><path
             id="path118"
             style="fill:#403124;fill-opacity:1;fill-rule:nonzero;stroke:#606060;stroke-width:0.56900001;stroke-linecap:butt;stroke-linejoin:miter;stroke-miterlimit:10;stroke-dasharray:none;stroke-opacity:1"
             d="m 0,0 c -7.693,0 -13.929,8.034 -13.929,17.944 0,9.91 6.236,17.944 13.929,17.944 l -0.336,0 -36.386,7.862 -43.209,-1.869 0,0.02 c -5.73,0 -10.376,-5.943 -10.376,-13.275 0,-7.332 5.714,-12.588 10.25,-13.902 L -37.722,2.336 0.512,0" /></g><g
           transform="translate(275.1324,6.9475)"
           id="g120"><path
             id="path122"
             style="fill:none;stroke:#919d9c;stroke-width:6.59899998;stroke-linecap:round;stroke-linejoin:miter;stroke-miterlimit:10;stroke-dasharray:none;stroke-opacity:1"
             d="m 0,0 c -6.397,19.221 -6.616,38.275 -22.214,51.033 -4.386,3.588 -14.727,8.787 -33.772,5.569" /></g><g
           transform="translate(223.8406,85.0744)"
           id="g124"><path
             id="path126"
             style="fill:#979577;fill-opacity:1;fill-rule:evenodd;stroke:none"
             d="m 0,0 0,-43.195 c 0,-0.911 -0.739,-1.65 -1.65,-1.65 l -0.992,0 c -0.91,0 -1.649,0.739 -1.649,1.65 l 0,43.195 c 0,0.911 0.739,1.65 1.649,1.65 l 0.992,0 C -0.739,1.65 0,0.911 0,0" /></g><g
           transform="translate(227.472,78.3407)"
           id="g128"><path
             id="path130"
             style="fill:#919d9c;fill-opacity:1;fill-rule:evenodd;stroke:none"
             d="m 0,0 0,-29.741 -4.137,-2.105 0,33.634 L 0,0 Z" /></g><g
           transform="translate(234.0737,77.1444)"
           id="g132"><path
             id="path134"
             style="fill:#919d9c;fill-opacity:1;fill-rule:evenodd;stroke:none"
             d="m 0,0 0,-27.7 -4.796,-1.96 0,31.326 L 0,0 Z" /></g><g
           transform="translate(241.3366,74.8046)"
           id="g136"><path
             id="path138"
             style="fill:#919d9c;fill-opacity:1;fill-rule:evenodd;stroke:none"
             d="m 0,0 0,-22.743 -5.457,-1.61 0,25.721 L 0,0 Z" /></g><g
           transform="translate(247.9383,72.4471)"
           id="g140"><path
             id="path142"
             style="fill:#919d9c;fill-opacity:1;fill-rule:evenodd;stroke:none"
             d="m 0,0 0,-18.078 -5.456,-1.28 0,20.445 L 0,0 Z" /></g><g
           transform="translate(221.5296,116.7249)"
           id="g144"><path
             id="path146"
             style="fill:#9e9a7b;fill-opacity:1;fill-rule:evenodd;stroke:none"
             d="m 0,0 0,-106.496 c 0,-5.646 -4.583,-10.229 -10.229,-10.229 l -173.977,0 c -5.646,0 -10.229,4.583 -10.229,10.229 l 0,106.496 c 0,5.646 4.583,14.67 10.229,14.67 L -10.229,10.229 C -4.583,10.229 0,5.646 0,0" /></g><g
           transform="translate(191.1596,109.1421)"
           id="g148"><path
             id="path150"
             style="fill:#aaa584;fill-opacity:1;fill-rule:evenodd;stroke:none"
             d="m 0,0 0,-90.012 c 0,-4.371 -3.548,-7.919 -7.919,-7.919 l -117.857,0 c -4.371,0 -7.919,3.548 -7.919,7.919 l 0,90.012 c 0,4.371 3.548,7.919 7.919,7.919 l 117.857,0 C -3.548,7.919 0,4.371 0,0" /></g><g
           transform="translate(211.2965,101.8902)"
           id="g152"><path
             id="path154"
             style="fill:#525b55;fill-opacity:1;fill-rule:evenodd;stroke:none"
             d="m 0,0 0,-73.529 c 0,-2.185 -1.774,-3.96 -3.959,-3.96 l -49.521,0 c -2.186,0 -3.959,1.775 -3.959,3.96 l 0,73.529 c 0,2.185 1.773,3.96 3.959,3.96 l 49.521,0 C -1.774,3.96 0,2.185 0,0" /></g><g
           transform="translate(190.8297,102.5511)"
           id="g156"><path
             id="path158"
             style="fill:#6e766f;fill-opacity:1;fill-rule:evenodd;stroke:none"
             d="m 0,0 0,-75.181 c 0,-0.91 -0.739,-1.649 -1.65,-1.649 l -32.682,0 c -0.911,0 -1.65,0.739 -1.65,1.649 l 0,75.181 c 0,0.911 0.739,1.65 1.65,1.65 l 32.682,0 C -0.739,1.65 0,0.911 0,0" /></g><g
           transform="translate(209.9761,102.5511)"
           id="g160"><path
             id="path162"
             style="fill:#949f94;fill-opacity:1;fill-rule:evenodd;stroke:none"
             d="m 0,0 0,-75.181 c 0,-0.91 -0.739,-1.649 -1.65,-1.649 l -16.177,0 c -0.911,0 -1.649,0.739 -1.649,1.649 l 0,75.181 c 0,0.911 0.738,1.65 1.649,1.65 l 16.177,0 C -0.739,1.65 0,0.911 0,0" /></g><g
           transform="translate(157.4881,102.5511)"
           id="g164"><path
             id="path166"
             style="fill:#4e453d;fill-opacity:1;fill-rule:evenodd;stroke:none"
             d="m 0,0 0,-75.181 c 0,-0.91 -0.591,-1.649 -1.32,-1.649 -0.729,0 -1.32,0.739 -1.32,1.649 L -2.64,0 c 0,0.911 0.591,1.65 1.32,1.65 C -0.591,1.65 0,0.911 0,0" /></g><g
           transform="translate(91.4662,100.5712)"
           id="g168"><path
             id="path170"
             style="fill:#a19b7e;fill-opacity:1;fill-rule:evenodd;stroke:none"
             d="m 0,0 0,-14.174 c 0,-2.186 -1.774,-3.96 -3.959,-3.96 l -14.529,0 c -2.185,0 -3.959,1.774 -3.959,3.96 l 0,14.174 c 0,2.186 1.774,3.96 3.959,3.96 l 14.529,0 C -1.774,3.96 0,2.186 0,0" /></g><g
           transform="translate(219.5008,116.1412)"
           id="g172"><path
             id="path174"
             style="fill:#a7a488;fill-opacity:1;fill-rule:nonzero;stroke:none"
             d="m 0,0 c -6.022,-2.009 -12.044,-4.016 -18.068,-6.019 -2.831,-0.942 -5.642,-1.95 -8.518,-2.755 -0.443,-0.124 -0.873,-0.321 -1.351,-0.215 -0.598,0.339 -0.496,0.942 -0.472,1.457 0.141,2.981 -1.089,5.268 -3.449,7.013 -0.256,0.189 -0.608,0.337 -0.525,0.768 2.068,1.596 4.456,2.65 6.749,3.839 3.906,2.025 7.804,4.076 11.839,5.846 0.565,0.248 1.181,0.444 1.623,0.925 l 6.316,0 c 0.125,-0.33 0.454,-0.35 0.717,-0.444 4.628,-1.658 7.151,-5.059 7.324,-9.906" /></g><g
           transform="translate(42.6315,131.3953)"
           id="g176"><path
             id="path178"
             style="fill:#979378;fill-opacity:1;fill-rule:nonzero;stroke:none"
             d="m 0,0 c 2.204,-1.658 4.4,-3.338 6.615,-4.968 3.806,-2.8 7.623,-5.569 11.437,-8.349 0.283,-0.207 0.583,-0.377 0.71,-0.84 0.046,-0.768 -0.413,-1.038 -0.742,-1.387 -2.06,-2.185 -2.967,-5.142 -3.037,-8.688 -0.016,-0.823 0.117,-1.685 -0.259,-2.437 -0.52,-0.403 -1.027,-0.094 -1.506,0.127 -8.961,4.128 -17.871,8.463 -26.723,13.031 -0.151,0.078 -0.288,0.194 -0.413,0.335 -0.089,0.127 -0.179,0.252 -0.271,0.375 l 0,0.673 c 0.267,4.647 1.945,8.043 4.697,10.527 0.999,0.902 2.118,1.234 3.239,1.601 L 0,0 Z" /></g><g
           transform="translate(221.4708,9.6678)"
           id="g180"><path
             id="path182"
             style="fill:#a7a488;fill-opacity:1;fill-rule:nonzero;stroke:none"
             d="m 0,0 c -0.244,-3.143 -1.556,-5.805 -4.257,-7.759 -2.181,-1.578 -4.639,-2.103 -7.29,-1.847 -4.093,1.68 -8.2,3.328 -12.275,5.049 -4.122,1.74 -8.215,3.547 -12.314,5.339 -0.414,0.182 -0.782,0.467 -1.171,0.704 0.305,0.393 0.777,0.474 1.206,0.606 2.933,0.905 4.692,2.888 5.432,5.834 0.099,0.394 0.087,0.841 0.439,1.143 10.022,-2.84 19.996,-5.841 30.056,-9.01" /></g><g
           transform="translate(62.1368,11.2835)"
           id="g184"><path
             id="path186"
             style="fill:#979378;fill-opacity:1;fill-rule:nonzero;stroke:none"
             d="m 0,0 c -2.652,-1.368 -5.276,-2.791 -7.963,-4.092 -4.529,-2.194 -9.006,-4.495 -13.629,-6.506 -0.376,-0.163 -0.714,-0.408 -1.069,-0.616 -3.358,-0.265 -6.506,0.156 -9.107,2.507 -1.882,1.702 -2.989,3.769 -3.274,6.25 0.025,0.248 0.051,0.497 0.076,0.746 1.503,1.129 3.373,1.427 5.095,2.014 7.717,2.633 15.451,5.224 23.224,7.703 0.509,0.163 1.019,0.419 1.58,0.166 C -4.741,7.908 -4.75,7.531 -4.717,7.17 -4.458,4.421 -3.274,2.208 -0.778,0.748 -0.46,0.563 -0.106,0.399 0,0" /></g><g
           transform="translate(83.7219,99.7691)"
           id="g188"><path
             id="path190"
             style="fill:#aaa584;fill-opacity:1;fill-rule:nonzero;stroke:none"
             d="m 0,0 c 0.009,-0.005 0.017,-0.011 0.025,-0.016 1.373,-0.888 2.176,-2.288 2.176,-3.605 0,-1.34 -0.738,-2.183 -0.738,-3.291 0,-1.076 0.739,-1.731 0.739,-3.281 0,-1.171 -0.641,-2.413 -1.748,-3.297 -0.134,0.244 -0.287,0.465 -0.455,0.662 L 0,0 Z" /></g><g
           transform="translate(87.1603,90.7521)"
           id="g192"><path
             id="path194"
             style="fill:#aaa584;fill-opacity:1;fill-rule:nonzero;stroke:none"
             d="M 0,0 C 0.726,-0.563 1.75,-0.991 2.798,-0.836 2.734,0.084 2.146,1.16 1.381,1.789 0.685,2.359 -0.346,2.83 -1.348,2.647 -1.38,1.642 -0.777,0.603 0,0" /></g><g
           transform="translate(83.7422,99.8149)"
           id="g196"><path
             id="path198"
             style="fill:#aaa584;fill-opacity:1;fill-rule:nonzero;stroke:none"
             d="m 0,0 c -0.601,0.382 -1.463,0.647 -2.219,0.717 l 0,-12.401 c 0.827,-0.134 1.617,-0.58 2.218,-1.287 L 0,0 0,-0.001 0,0 Z" /></g><g
           transform="translate(79.3232,100.4192)"
           id="g200"><path
             id="path202"
             style="fill:#aaa584;fill-opacity:1;fill-rule:nonzero;stroke:none"
             d="m 0,0 c 0.772,0.121 1.517,0.14 2.2,0.064 l 0,-12.304 C 1.459,-12.12 0.688,-12.221 0,-12.525 L 0,0 Z" /></g><g
           transform="translate(77.1237,99.8179)"
           id="g204"><path
             id="path206"
             style="fill:#aaa584;fill-opacity:1;fill-rule:nonzero;stroke:none"
             d="m 0,0 c 0.739,0.291 1.481,0.49 2.199,0.601 l 0,-12.525 c -0.878,-0.388 -1.624,-1.105 -2.007,-2.116 -0.067,0.03 -0.131,0.059 -0.193,0.087 L 0,0 Z" /></g><g
           transform="translate(77.1228,85.8651)"
           id="g208"><path
             id="path210"
             style="fill:#aaa584;fill-opacity:1;fill-rule:nonzero;stroke:none"
             d="M 0,0 C -0.766,0.347 -1.163,0.548 -1.897,1.028 -1.996,1.093 -2.096,1.159 -2.198,1.229 L -2.199,12.79 c 0.055,0.037 0.111,0.074 0.165,0.11 0.662,0.432 1.347,0.782 2.035,1.053 L 0,0 Z" /></g><g
           transform="translate(74.9246,87.094)"
           id="g212"><path
             id="path214"
             style="fill:#aaa584;fill-opacity:1;fill-rule:nonzero;stroke:none"
             d="m 0,0 c -1.04,0.707 -2.185,1.657 -2.196,2.809 -0.01,1.124 0.735,1.412 0.726,2.938 -0.008,1.525 -0.739,1.843 -0.729,2.968 0.012,1.202 1.136,2.135 2.198,2.846 L 0,0 Z" /></g></g></g></g></svg>