<?xml version="1.0" encoding="UTF-8" standalone="no"?>
<svg
   xmlns:dc="http://purl.org/dc/elements/1.1/"
   xmlns:cc="http://creativecommons.org/ns#"
   xmlns:rdf="http://www.w3.org/1999/02/22-rdf-syntax-ns#"
   xmlns:svg="http://www.w3.org/2000/svg"
   xmlns="http://www.w3.org/2000/svg"
   viewBox="0 0 210 210"
   height="210"
   width="210"
   xml:space="preserve"
   version="1.1"
   id="svg2"><metadata
     id="metadata8"><rdf:RDF><cc:Work
         rdf:about=""><dc:format>image/svg+xml</dc:format><dc:type
           rdf:resource="http://purl.org/dc/dcmitype/StillImage" /><dc:title></dc:title></cc:Work></rdf:RDF></metadata><defs
     id="defs6" /><g
     transform="matrix(1.25,0,0,-1.25,0,210)"
     id="g10"><g
       transform="translate(0,168.0003)"
       id="g12"><path
         id="path14"
         style="fill:#000000;fill-opacity:1;fill-rule:nonzero;stroke:none"
         d="m 0,0 0,-168 65.64,0 0,0.479 0.36,0.841 0.66,0.66 0.9,0.36 0.48,0.06 0.48,-0.06 0.84,-0.36 0.66,-0.66 0.36,-0.841 0.06,-0.479 27.18,0 0.06,0.479 0.36,0.841 0.6,0.66 0.9,0.36 0.48,0.06 0.48,-0.06 0.9,-0.36 0.6,-0.66 0.36,-0.841 0.06,-0.479 65.58,0 0,120.25 -3.98,0 0,8.02 3.98,0 L 168,0 0,0 Z" /></g><g
       transform="translate(110.15,73.8)"
       id="g16"><path
         id="path18"
         style="fill:#3c3c3c;fill-opacity:1;fill-rule:nonzero;stroke:none"
         d="m 0,0 0,-0.48 -0.36,-0.9 -0.66,-0.66 -0.9,-0.36 -0.48,0 -0.48,0 -0.84,0.36 -0.66,0.66 -0.36,0.9 L -4.8,0 -4.74,0.48 -4.38,1.32 -3.72,1.98 -2.88,2.34 -2.4,2.4 -1.92,2.34 -1.02,1.98 -0.36,1.32 0,0.48 0,0 Z" /></g><g
       transform="translate(84,55.98)"
       id="g20"><path
         id="path22"
         style="fill:#3c3c3c;fill-opacity:1;fill-rule:nonzero;stroke:none"
         d="m 0,0 0.84,0 1.56,-0.36 2.1,-0.96 2.22,-2.16 0.96,-2.1 0.3,-1.56 0.06,-0.84 0,-31.98 L 7.98,-40.8 7.68,-42.36 6.72,-44.52 4.5,-46.68 2.4,-47.64 0.84,-47.94 0,-48 l -0.78,0.06 -1.56,0.3 -2.16,0.96 -2.16,2.16 -0.96,2.16 -0.36,1.56 0,0.84 0,31.98 0,0.84 0.36,1.56 0.96,2.1 2.16,2.16 2.16,0.96 L -0.78,0 0,0 Z" /></g><g
       transform="translate(100.02,84)"
       id="g24"><path
         id="path26"
         style="fill:none;stroke:#00ffff;stroke-width:0.66000003;stroke-linecap:square;stroke-linejoin:miter;stroke-miterlimit:10;stroke-dasharray:none;stroke-opacity:1"
         d="m 0,0 -0.06,-1.68 -0.66,-3.12 -1.2,-2.88 -1.74,-2.52 -2.16,-2.16 -2.52,-1.74 -2.88,-1.2 -3.12,-0.66 -1.68,-0.06 -1.62,0.06 -3.12,0.66 -2.88,1.2 -2.58,1.74 -2.16,2.16 -1.74,2.52 -1.2,2.88 -0.6,3.12 -0.06,1.68 0.06,1.62 0.6,3.12 1.2,2.88 1.74,2.58 2.16,2.16 2.58,1.74 2.88,1.2 3.12,0.6 1.62,0.06 1.68,-0.06 3.12,-0.6 2.88,-1.2 2.52,-1.74 2.16,-2.16 1.74,-2.58 1.2,-2.88 L -0.06,1.62 0,0 Z" /></g><g
       transform="translate(104.04,84)"
       id="g28"><path
         id="path30"
         style="fill:#3c3c3c;fill-opacity:1;fill-rule:evenodd;stroke:none"
         d="M 0,0 -0.06,-2.1 -0.9,-6 l -1.5,-3.54 -2.16,-3.24 -2.7,-2.7 -3.24,-2.16 -3.54,-1.5 -3.9,-0.78 -2.1,-0.12 -2.04,0.12 -3.9,0.78 -3.6,1.5 -3.18,2.16 -2.7,2.7 -2.16,3.24 -1.56,3.54 -0.78,3.9 -0.06,2.1 0.06,2.04 0.78,3.9 1.56,3.6 2.16,3.18 2.7,2.7 3.18,2.16 3.6,1.56 3.9,0.78 2.04,0.06 2.1,-0.06 3.9,-0.78 3.54,-1.56 3.24,-2.16 2.7,-2.7 2.16,-3.18 1.5,-3.6 0.84,-3.9 L 0,0 Z m -4.02,0 -0.06,-1.68 -0.66,-3.12 -1.2,-2.88 -1.74,-2.52 -2.16,-2.16 -2.52,-1.74 -2.88,-1.2 -3.12,-0.66 -1.68,-0.06 -1.62,0.06 -3.12,0.66 -2.88,1.2 -2.58,1.74 -2.16,2.16 -1.74,2.52 -1.2,2.88 -0.6,3.12 L -36,0 l 0.06,1.62 0.6,3.12 1.2,2.88 1.74,2.58 2.16,2.16 2.58,1.74 2.88,1.2 3.12,0.6 1.62,0.06 1.68,-0.06 3.12,-0.6 2.88,-1.2 2.52,-1.74 2.16,-2.16 1.74,-2.58 1.2,-2.88 L -4.08,1.62 -4.02,0 Z" /></g><g
       transform="translate(100.02,84)"
       id="g32"><path
         id="path34"
         style="fill:#ffffff;fill-opacity:1;fill-rule:evenodd;stroke:none"
         d="m 0,0 -0.06,-1.68 -0.66,-3.12 -1.2,-2.88 -1.74,-2.52 -2.16,-2.16 -2.52,-1.74 -2.88,-1.2 -3.12,-0.66 -1.68,-0.06 -1.62,0.06 -3.12,0.66 -2.88,1.2 -2.58,1.74 -2.16,2.16 -1.74,2.52 -1.2,2.88 -0.6,3.12 -0.06,1.68 0.06,1.62 0.6,3.12 1.2,2.88 1.74,2.52 2.16,2.22 2.58,1.68 2.88,1.26 3.12,0.6 1.62,0.06 1.68,-0.06 3.12,-0.6 2.88,-1.26 2.52,-1.68 2.16,-2.22 1.74,-2.52 1.2,-2.88 L -0.06,1.62 0,0 Z" /></g><g
       transform="translate(100.02,84)"
       id="g36"><path
         id="path38"
         style="fill:none;stroke:#1a1a1a;stroke-width:0.77999997;stroke-linecap:square;stroke-linejoin:miter;stroke-miterlimit:10;stroke-dasharray:none;stroke-opacity:1"
         d="m 0,0 -0.06,-1.68 -0.66,-3.12 -1.2,-2.88 -1.74,-2.52 -2.16,-2.16 -2.52,-1.74 -2.88,-1.2 -3.12,-0.66 -1.68,-0.06 -1.62,0.06 -3.12,0.66 -2.88,1.2 -2.58,1.74 -2.16,2.16 -1.74,2.52 -1.2,2.88 -0.6,3.12 -0.06,1.68 0.06,1.62 0.6,3.12 1.2,2.88 1.74,2.52 2.16,2.22 2.58,1.68 2.88,1.26 3.12,0.6 1.62,0.06 1.68,-0.06 3.12,-0.6 2.88,-1.26 2.52,-1.68 2.16,-2.22 1.74,-2.52 1.2,-2.88 L -0.06,1.62 0,0 Z" /></g><path
       id="path40"
       style="fill:#ed1a24;fill-opacity:1;fill-rule:nonzero;stroke:none"
       d="m 123.642,157.641 -85.625,0 0,6.563 85.625,0 0,-6.563 z" /><path
       id="path42"
       style="fill:#ffffff;fill-opacity:1;fill-rule:nonzero;stroke:none"
       d="m 123.642,151.078 -85.625,0 0,6.563 85.625,0 0,-6.563 z" /><path
       id="path44"
       style="fill:#ffffff;fill-opacity:1;fill-rule:nonzero;stroke:none"
       d="m 123.642,144.515 -85.625,0 0,6.563 85.625,0 0,-6.563 z" /><path
       id="path46"
       style="fill:#ffffff;fill-opacity:1;fill-rule:nonzero;stroke:none"
       d="m 123.642,137.952 -85.625,0 0,6.563 85.625,0 0,-6.563 z" /><path
       id="path48"
       style="fill:#ffffff;fill-opacity:1;fill-rule:nonzero;stroke:none"
       d="m 123.642,130.279 -85.625,0 0,7.674 85.625,0 0,-7.674 z" /><g
       transform="translate(38.017,157.6407)"
       id="g50"><path
         id="path52"
         style="fill:none;stroke:#231f20;stroke-width:0.30000001;stroke-linecap:butt;stroke-linejoin:miter;stroke-miterlimit:10;stroke-dasharray:none;stroke-opacity:1"
         d="M 0,0 85.625,0" /></g><g
       transform="translate(38.017,151.0779)"
       id="g54"><path
         id="path56"
         style="fill:none;stroke:#231f20;stroke-width:0.30000001;stroke-linecap:butt;stroke-linejoin:miter;stroke-miterlimit:10;stroke-dasharray:none;stroke-opacity:1"
         d="M 0,0 85.625,0" /></g><g
       transform="translate(38.017,144.515)"
       id="g58"><path
         id="path60"
         style="fill:none;stroke:#231f20;stroke-width:0.30000001;stroke-linecap:butt;stroke-linejoin:miter;stroke-miterlimit:10;stroke-dasharray:none;stroke-opacity:1"
         d="M 0,0 85.625,0" /></g><g
       transform="translate(38.017,137.9521)"
       id="g62"><path
         id="path64"
         style="fill:none;stroke:#231f20;stroke-width:0.30000001;stroke-linecap:butt;stroke-linejoin:miter;stroke-miterlimit:10;stroke-dasharray:none;stroke-opacity:1"
         d="M 0,0 85.625,0" /></g></g></svg>