<?xml version="1.0" encoding="UTF-8" standalone="no"?>
<!-- Generator: Adobe Illustrator 16.0.0, SVG Export Plug-In . SVG Version: 6.00 Build 0)  -->

<svg
   xmlns:dc="http://purl.org/dc/elements/1.1/"
   xmlns:cc="http://creativecommons.org/ns#"
   xmlns:rdf="http://www.w3.org/1999/02/22-rdf-syntax-ns#"
   xmlns:svg="http://www.w3.org/2000/svg"
   xmlns="http://www.w3.org/2000/svg"
   xmlns:sodipodi="http://sodipodi.sourceforge.net/DTD/sodipodi-0.dtd"
   xmlns:inkscape="http://www.inkscape.org/namespaces/inkscape"
   version="1.1"
   id="Calque_1"
   x="0px"
   y="0px"
   width="287.26199"
   height="213.485"
   viewBox="0 0 287.26199 213.48499"
   enable-background="new 0 0 841.89 1190.55"
   xml:space="preserve"
   inkscape:version="0.48.4 r9939"
   sodipodi:docname="console.svg"><metadata
     id="metadata245"><rdf:RDF><cc:Work
         rdf:about=""><dc:format>image/svg+xml</dc:format><dc:type
           rdf:resource="http://purl.org/dc/dcmitype/StillImage" /><dc:title /></cc:Work></rdf:RDF></metadata><defs
     id="defs243" /><sodipodi:namedview
     pagecolor="#ffffff"
     bordercolor="#666666"
     borderopacity="1"
     objecttolerance="10"
     gridtolerance="10"
     guidetolerance="10"
     inkscape:pageopacity="0"
     inkscape:pageshadow="2"
     inkscape:window-width="1629"
     inkscape:window-height="891"
     id="namedview241"
     showgrid="false"
     inkscape:zoom="11.4427"
     inkscape:cx="93.058735"
     inkscape:cy="-7.9505826"
     inkscape:window-x="51"
     inkscape:window-y="34"
     inkscape:window-maximized="0"
     inkscape:current-layer="Calque_1"
     fit-margin-top="0"
     fit-margin-left="0"
     fit-margin-right="0"
     fit-margin-bottom="0" /><g
     id="g3"
     transform="translate(-277.114,-488.21201)"><path
       d="M 346.796,695.199 V 659.5 c -15.091,-17.224 -24.253,-39.768 -24.253,-64.414 0,-24.646 9.162,-47.189 24.253,-64.413 v -36.661 h 0.682 10e-4 v -1.701 c 0,-2.265 -1.834,-4.099 -4.1,-4.099 h -62.166 c -2.264,0 -4.099,1.834 -4.099,4.099 v 205.284 c 0,2.266 1.835,4.102 4.099,4.102 h 62.166 c 2.265,0 4.1,-1.836 4.1,-4.102 v -2.396 h -10e-4 -0.682 z M 298.55,610.675 c 5.723,0 10.361,4.639 10.361,10.361 0,5.722 -4.639,10.361 -10.361,10.361 -5.722,0 -10.361,-4.639 -10.361,-10.361 0,-5.722 4.639,-10.361 10.361,-10.361 z m 11.356,77.276 v 4.059 9.686 h -4.099 v -9.686 -4.059 c -10.985,-1.034 -19.582,-10.274 -19.582,-21.529 0,-11.947 9.685,-21.631 21.632,-21.631 11.946,0 21.632,9.684 21.632,21.631 0,11.255 -8.598,20.495 -19.583,21.529 z"
       id="path5"
       inkscape:connector-curvature="0"
       style="fill:#d9d9d9" /><path
       d="m 560.277,488.213 h -62.166 c -2.264,0 -4.1,1.834 -4.1,4.099 v 1.701 h 0.002 0.042 v 36.709 c 15.066,17.218 24.21,39.743 24.21,64.365 0,19.243 -5.586,37.205 -15.217,52.354 l 11.629,7.028 c 3.875,-5.831 10.497,-9.679 18.023,-9.679 11.947,0 21.633,9.684 21.633,21.631 0,11.947 -9.686,21.633 -21.633,21.633 -11.947,0 -21.631,-9.686 -21.631,-21.633 0,-3.932 1.064,-7.607 2.897,-10.784 l -11.663,-7.049 c -2.5,3.813 -5.257,7.444 -8.249,10.864 v 35.746 h -0.042 -0.002 v 2.396 c 0,2.266 1.836,4.102 4.1,4.102 h 62.166 c 2.266,0 4.1,-1.836 4.1,-4.102 V 492.312 c 0,-2.265 -1.834,-4.099 -4.099,-4.099 z"
       id="path7"
       inkscape:connector-curvature="0"
       style="fill:#d9d9d9" /><path
       d="m 420.404,497.227 c 28.784,0 54.703,12.494 72.625,32.34 V 494.013 H 348.502 v 34.765 c 17.894,-19.387 43.502,-31.551 71.902,-31.551 z"
       id="path9"
       inkscape:connector-curvature="0"
       style="fill:#d9d9d9" /><path
       d="m 420.404,692.949 c -28.4,0 -54.009,-12.164 -71.902,-31.552 v 33.802 H 493.03 v -34.591 c -17.923,19.847 -43.842,32.341 -72.626,32.341 z"
       id="path11"
       inkscape:connector-curvature="0"
       style="fill:#d9d9d9" /><path
       d="m 346.796,695.199 h 0.682 v -34.93 c -0.229,-0.255 -0.457,-0.511 -0.682,-0.769 v 35.699 z"
       id="path13"
       inkscape:connector-curvature="0"
       style="fill:#d9d9d9" /><path
       d="m 347.478,494.013 h -0.682 v 36.661 c 0.226,-0.257 0.454,-0.513 0.682,-0.769 v -35.892 z"
       id="path15"
       inkscape:connector-curvature="0"
       style="fill:#d9d9d9" /><path
       d="m 347.479,660.271 v 34.928 h 1.023 v -33.802 c -0.343,-0.373 -0.684,-0.748 -1.023,-1.126 z"
       id="path17"
       inkscape:connector-curvature="0"
       style="fill:#707070" /><path
       d="m 348.502,528.778 v -34.765 h -1.023 v 35.891 c 0.339,-0.378 0.68,-0.754 1.023,-1.126 z"
       id="path19"
       inkscape:connector-curvature="0"
       style="fill:#707070" /><rect
       x="347.478"
       y="494.013"
       width="0.0020000001"
       height="35.890999"
       id="rect21"
       style="fill:#707070" /><rect
       x="347.478"
       y="660.26898"
       width="0.001"
       height="34.93"
       id="rect23"
       style="fill:#707070" /><path
       d="m 494.055,530.722 v -36.709 h -0.042 v 36.663 c 0.014,0.015 0.029,0.031 0.042,0.046 z"
       id="path25"
       inkscape:connector-curvature="0"
       style="fill:#707070" /><path
       d="m 494.013,695.199 h 0.042 v -35.746 c -0.014,0.016 -0.028,0.031 -0.042,0.047 v 35.699 z"
       id="path27"
       inkscape:connector-curvature="0"
       style="fill:#707070" /><path
       d="m 494.011,530.673 v -36.66 h -0.981 v 35.554 c 0.33,0.366 0.656,0.735 0.981,1.106 z"
       id="path29"
       inkscape:connector-curvature="0"
       style="fill:#707070" /><path
       d="m 493.03,660.608 v 34.591 h 0.981 v -35.697 c -0.325,0.371 -0.651,0.74 -0.981,1.106 z"
       id="path31"
       inkscape:connector-curvature="0"
       style="fill:#707070" /><rect
       x="494.01099"
       y="494.013"
       width="0.0020000001"
       height="36.662998"
       id="rect33"
       style="fill:#707070" /><rect
       x="494.01099"
       y="659.5"
       width="0.003"
       height="35.696999"
       id="rect35"
       style="fill:#707070" /><path
       d="m 323.226,595.087 c 0,24.194 8.889,46.349 23.57,63.376 V 531.711 c -14.681,17.028 -23.57,39.183 -23.57,63.376 z"
       id="path37"
       inkscape:connector-curvature="0"
       style="fill:#d9d9d9" /><path
       d="m 517.582,595.087 c 0,-24.169 -8.872,-46.304 -23.526,-63.324 v 126.649 c 14.653,-17.021 23.526,-39.156 23.526,-63.325 z"
       id="path39"
       inkscape:connector-curvature="0"
       style="fill:#d9d9d9" /><path
       d="m 420.949,639.252 c 10e-4,-0.059 0,-0.112 0,-0.167 0.002,-0.006 -0.001,-0.008 -0.002,-0.012 0.003,0.059 0.003,0.117 0,0.178 10e-4,0 0.002,0 0.002,10e-4 z"
       id="path41"
       inkscape:connector-curvature="0"
       style="fill:#d9d9d9" /><path
       d="m 415.234,636.814 c -0.302,0.107 -0.598,0.215 -0.896,0.32 -0.021,0.008 -0.044,0.021 -0.07,0.004 0,0 -10e-4,0 -0.002,-0.001 -0.005,0.032 -0.034,0.034 -0.059,0.042 -0.173,0.064 -0.345,0.123 -0.519,0.188 -0.12,0.043 -0.246,0.08 -0.355,0.146 -0.044,0.027 -0.085,0.061 -0.121,0.1 -0.131,0.145 -0.103,0.32 0.052,0.457 0.163,0.139 0.362,0.203 0.574,0.225 0.27,0.029 0.52,-0.039 0.77,-0.127 0.232,-0.082 0.467,-0.156 0.7,-0.236 0.226,-0.072 0.447,-0.148 0.671,-0.225 0.023,-0.008 0.05,-0.021 0.077,-0.021 0.006,0.002 0.013,0.004 0.02,0.006 0.179,-0.06 0.355,-0.121 0.536,-0.182 0.324,-0.109 0.635,-0.217 0.959,-0.324 0,-0.001 0,-0.003 0,-0.004 -0.004,-0.354 0.002,-0.709 0,-1.063 0,-0.043 -0.001,-0.086 0,-0.129 -0.353,0.125 -0.74,0.252 -1.094,0.377 -0.415,0.148 -0.83,0.299 -1.243,0.447 z"
       id="path43"
       inkscape:connector-curvature="0"
       style="fill:#d9d9d9" /><path
       d="m 413.468,542.131 c 0.51,0.361 1.082,0.521 1.643,0.527 0.427,10e-4 0.785,-0.063 1.122,-0.188 0.489,-0.184 0.907,-0.471 1.214,-0.902 0.408,-0.58 0.506,-1.212 0.259,-1.883 -0.174,-0.472 -0.491,-0.833 -0.911,-1.099 -0.814,-0.515 -1.688,-0.604 -2.6,-0.313 -0.504,0.16 -0.932,0.446 -1.251,0.872 -0.434,0.573 -0.555,1.206 -0.32,1.893 0.153,0.459 0.452,0.815 0.844,1.093 z"
       id="path45"
       inkscape:connector-curvature="0"
       style="fill:#d9d9d9" /><path
       d="m 420.947,637.986 c 0.003,0.357 0.003,0.716 0,1.071 0,-10e-4 -0.003,-0.003 0.002,-0.005 0.368,-0.121 0.773,-0.252 1.14,-0.375 0.563,-0.191 1.119,-0.383 1.676,-0.572 0.387,-0.131 0.771,-0.264 1.156,-0.396 0.203,-0.068 0.406,-0.137 0.607,-0.209 0.02,-0.008 0.045,-0.029 0.066,-0.004 0.002,10e-4 0.005,10e-4 0.008,0.002 -0.002,-0.003 -0.009,-0.001 -0.01,-0.006 0.012,-0.025 0.037,-0.027 0.059,-0.035 0.291,-0.1 0.58,-0.201 0.871,-0.297 0.203,-0.068 0.406,-0.145 0.598,-0.254 0.088,-0.047 0.174,-0.105 0.244,-0.178 0.02,-0.021 0.037,-0.043 0.053,-0.068 0.041,-0.076 0.029,-0.148 -0.039,-0.207 -0.068,-0.057 -0.152,-0.086 -0.236,-0.107 -0.143,-0.031 -0.287,-0.045 -0.436,-0.051 -0.338,-0.008 -0.672,0.031 -1.004,0.09 -0.113,0.021 -0.221,0.066 -0.328,0.104 -0.453,0.16 -0.91,0.307 -1.365,0.459 -0.033,0.012 -0.064,0.029 -0.104,0.029 -0.009,-0.002 -0.017,-0.006 -0.025,-0.008 -0.159,0.06 -0.317,0.114 -0.477,0.17 -0.823,0.28 -1.634,0.564 -2.456,0.847 z"
       id="path47"
       inkscape:connector-curvature="0"
       style="fill:#d9d9d9" /><path
       d="m 433.15,644.593 c -0.438,0.012 -0.691,0.186 -0.783,0.576 -0.061,0.27 -0.076,0.547 -0.113,0.826 0.037,0.281 0.053,0.566 0.117,0.84 0.098,0.404 0.359,0.588 0.775,0.594 0.447,0.004 0.711,-0.164 0.818,-0.582 0.15,-0.563 0.148,-1.135 0.004,-1.695 -0.103,-0.399 -0.371,-0.567 -0.818,-0.559 z"
       id="path49"
       inkscape:connector-curvature="0"
       style="fill:#d9d9d9" /><path
       d="m 420.404,497.91 c -28.466,0 -54.113,12.303 -71.902,31.871 v 130.614 c 17.789,19.568 43.436,31.871 71.902,31.871 28.857,0 54.812,-12.648 72.625,-32.687 V 530.596 C 475.216,510.558 449.261,497.91 420.404,497.91 z m 0.095,39.666 c 0.025,-10e-4 0.048,-0.004 0.07,-0.004 0.975,0 1.948,0 2.926,0 0.049,0 0.08,0.019 0.115,0.048 0.725,0.655 1.451,1.309 2.178,1.964 0.574,0.518 1.15,1.037 1.725,1.556 0.02,0.018 0.037,0.031 0.057,0.047 0.004,-10e-4 0.01,-0.004 0.016,-0.005 0,-0.027 0,-0.055 0,-0.082 0,-0.786 0,-1.574 0,-2.363 0,-0.188 -0.102,-0.3 -0.291,-0.318 -0.029,-0.003 -0.061,-0.003 -0.09,-0.003 -0.25,0 -0.498,0 -0.746,0 -0.023,0 -0.051,0 -0.074,0 -0.016,-0.055 -0.02,-0.74 -0.006,-0.837 1.17,0 2.34,0 3.51,0 0.016,0.047 0.021,0.705 0.008,0.831 -0.02,0.002 -0.037,0.006 -0.061,0.006 -0.25,0 -0.502,-0.001 -0.754,-0.001 -0.021,0 -0.045,0.001 -0.068,0.002 -0.148,0.011 -0.234,0.097 -0.248,0.246 -0.004,0.047 -0.004,0.093 -0.004,0.139 0,1.52 0,3.038 0,4.558 0,0.029 0,0.06 0,0.092 -0.029,10e-4 -0.051,0.004 -0.068,0.004 -0.391,0 -0.779,-10e-4 -1.17,10e-4 -0.043,0 -0.072,-0.013 -0.104,-0.041 -1.5,-1.333 -2.998,-2.666 -4.496,-3.997 -0.02,-0.018 -0.037,-0.031 -0.066,-0.056 0,0.041 0,0.065 0,0.092 0,0.995 -0.002,1.99 0,2.987 0,0.039 0.002,0.078 0.006,0.116 0.008,0.054 0.041,0.083 0.092,0.089 0.047,0.006 0.092,0.007 0.139,0.009 0.281,0 0.563,0 0.846,0 0.023,0 0.049,0 0.07,0 0.018,0.055 0.021,0.7 0.006,0.794 -1.162,0 -2.324,0 -3.487,0 -0.016,-0.046 -0.021,-0.665 -0.008,-0.792 0.022,0 0.049,-0.002 0.07,-0.002 0.262,0 0.523,0 0.783,-0.002 0.033,0 0.069,0 0.102,-0.01 0.076,-0.019 0.117,-0.07 0.123,-0.147 0.002,-0.021 0,-0.041 0,-0.063 0,-1.28 0,-2.563 0,-3.846 0,-0.167 -0.031,-0.204 -0.197,-0.227 -0.031,-0.007 -0.064,-0.009 -0.098,-0.009 -0.241,0 -0.483,0 -0.726,0 -0.025,0 -0.051,0 -0.08,0 0,-0.262 0,-0.518 0,-0.776 z m -9.508,1.454 c 0.242,-0.398 0.563,-0.728 0.938,-1.002 0.511,-0.372 1.074,-0.623 1.684,-0.784 0.607,-0.164 1.228,-0.224 1.854,-0.193 0.77,0.036 1.505,0.204 2.201,0.535 0.491,0.233 0.932,0.536 1.3,0.938 0.324,0.352 0.568,0.754 0.691,1.221 0.165,0.63 0.091,1.233 -0.203,1.812 -0.243,0.478 -0.598,0.856 -1.023,1.172 -0.521,0.389 -1.104,0.646 -1.729,0.811 -0.357,0.094 -0.722,0.152 -1.09,0.175 -0.147,0.011 -0.295,0.003 -0.442,0.003 0,-10e-4 0,0.003 0,0.005 -0.187,-0.006 -0.375,-0.003 -0.559,-0.021 -0.973,-0.089 -1.872,-0.376 -2.67,-0.951 -0.42,-0.302 -0.769,-0.668 -1.018,-1.123 -0.223,-0.407 -0.336,-0.843 -0.324,-1.307 0.012,-0.466 0.149,-0.895 0.39,-1.291 z m -3.038,106.12 c -0.122,0.504 -0.435,0.807 -0.95,0.85 -0.335,0.025 -0.673,0.002 -1.018,0.002 0,-0.16 0,-0.314 0,-0.492 0.174,0 0.34,0.002 0.508,0 0.433,-0.006 0.616,-0.15 0.66,-0.578 0.027,-0.291 0.028,-0.59 -0.006,-0.879 -0.043,-0.393 -0.315,-0.604 -0.706,-0.605 -0.288,-0.002 -0.576,0 -0.886,0 0,1.51 0,3.002 0,4.51 -0.269,0 -0.519,0 -0.783,0 0,-1.676 0,-3.35 0,-5.023 0.01,-0.006 0.02,-0.018 0.029,-0.018 0.694,0.008 1.389,0.006 2.08,0.029 0.188,0.008 0.379,0.074 0.554,0.146 0.229,0.09 0.387,0.268 0.46,0.506 0.161,0.511 0.183,1.027 0.058,1.552 z m 1.44,2.805 c -0.262,0 -0.517,0 -0.779,0 0,-1.682 0,-3.355 0,-5.037 0.259,0 0.51,0 0.779,0 0,1.687 0,3.355 0,5.037 z m -0.453,-105.16 c -0.244,0.212 -0.526,0.361 -0.826,0.481 -0.358,0.142 -0.732,0.234 -1.111,0.299 -0.373,0.063 -0.749,0.101 -1.129,0.101 -0.202,10e-4 -0.404,-0.024 -0.605,-0.059 -0.666,-0.112 -1.325,-0.27 -1.975,-0.466 -0.085,-0.025 -0.169,-0.056 -0.248,-0.103 -0.075,-0.044 -0.164,-0.04 -0.259,-0.041 -0.006,0.122 0,0.242 -0.004,0.361 -0.05,0.019 -0.854,0.023 -0.994,0.011 -0.014,-0.048 -0.019,-2.192 -0.006,-2.306 0.05,-0.015 0.822,-0.02 0.942,-0.005 0.004,0.028 0.008,0.06 0.011,0.092 0.032,0.306 0.176,0.554 0.396,0.761 0.22,0.204 0.479,0.344 0.754,0.453 0.313,0.126 0.641,0.207 0.974,0.262 0.44,0.072 0.889,0.101 1.337,0.083 0.336,-0.015 0.669,-0.063 0.983,-0.19 0.178,-0.07 0.338,-0.162 0.475,-0.292 0.075,-0.069 0.138,-0.149 0.188,-0.24 0.02,-0.036 0.022,-0.072 0.017,-0.112 -0.021,-0.117 -0.084,-0.208 -0.172,-0.282 -0.092,-0.074 -0.193,-0.127 -0.302,-0.17 -0.213,-0.084 -0.436,-0.135 -0.66,-0.176 -0.375,-0.068 -0.755,-0.112 -1.137,-0.155 -0.519,-0.06 -1.039,-0.116 -1.555,-0.208 -0.421,-0.073 -0.839,-0.168 -1.239,-0.332 -0.241,-0.098 -0.47,-0.222 -0.668,-0.395 -0.256,-0.225 -0.408,-0.504 -0.442,-0.843 -0.037,-0.377 0.054,-0.724 0.278,-1.029 0.177,-0.242 0.404,-0.428 0.658,-0.582 0.356,-0.215 0.742,-0.36 1.142,-0.467 0.521,-0.138 1.054,-0.213 1.594,-0.207 0.356,0.004 0.711,0.05 1.063,0.12 0.473,0.095 0.936,0.229 1.381,0.415 0.094,0.038 0.182,0.091 0.274,0.131 0.03,0.015 0.071,0.021 0.104,0.02 0.07,-0.005 0.09,-0.029 0.09,-0.103 -0.002,-0.072 -0.002,-0.143 -0.002,-0.22 0.297,0 0.582,0 0.871,0 0,0.681 0,1.355 0,2.036 -0.28,0 -0.561,0 -0.842,0 -0.004,-0.031 -0.007,-0.062 -0.012,-0.091 -0.035,-0.244 -0.147,-0.447 -0.324,-0.616 -0.196,-0.188 -0.433,-0.313 -0.684,-0.41 -0.287,-0.111 -0.584,-0.184 -0.888,-0.231 -0.415,-0.067 -0.833,-0.095 -1.255,-0.082 -0.332,0.011 -0.661,0.039 -0.984,0.12 -0.134,0.033 -0.262,0.076 -0.385,0.139 -0.088,0.047 -0.169,0.103 -0.234,0.178 -0.076,0.085 -0.12,0.186 -0.126,0.3 -0.005,0.094 0.028,0.171 0.098,0.232 0.063,0.056 0.132,0.093 0.208,0.122 0.167,0.069 0.343,0.104 0.521,0.137 0.35,0.06 0.702,0.092 1.057,0.127 0.564,0.055 1.128,0.105 1.687,0.206 0.434,0.075 0.857,0.177 1.265,0.346 0.256,0.106 0.498,0.24 0.71,0.423 0.368,0.32 0.548,0.727 0.558,1.212 0.008,0.503 -0.189,0.916 -0.568,1.245 z m 4.275,105.165 c -0.232,0 -0.473,0.006 -0.711,0 -0.506,-0.014 -1.019,0.008 -1.518,-0.053 -0.565,-0.07 -0.78,-0.303 -0.847,-0.869 -0.035,-0.287 -0.001,-0.588 0.038,-0.877 0.042,-0.305 0.27,-0.48 0.55,-0.535 0.398,-0.076 0.808,-0.105 1.23,-0.16 0,0.209 0,0.367 0,0.551 -0.116,0 -0.237,-0.02 -0.354,0.006 -0.165,0.029 -0.348,0.063 -0.489,0.146 -0.229,0.139 -0.166,0.396 -0.187,0.611 -0.004,0.059 0.012,0.121 0.019,0.178 0.037,0.318 0.165,0.453 0.485,0.467 0.33,0.016 0.656,0.004 1.009,0.004 0,-0.383 0,-0.74 0,-1.104 0,-0.344 0.003,-0.688 0,-1.031 -0.003,-0.426 -0.237,-0.678 -0.666,-0.693 -0.293,-0.01 -0.591,-0.002 -0.887,-0.002 -0.065,0 -0.131,0 -0.209,0 0,-0.168 0,-0.32 0,-0.486 0.031,-0.004 0.071,-0.016 0.111,-0.016 0.501,0.012 1.002,0.01 1.5,0.041 0.349,0.023 0.671,0.156 0.824,0.502 0.075,0.164 0.108,0.359 0.112,0.541 0.014,0.9 0.007,1.803 0.008,2.699 0.002,0.018 -0.005,0.034 -0.018,0.08 z m 3.713,-2.929 c -0.627,1.553 -1.257,3.104 -1.88,4.656 -0.063,0.156 -0.136,0.232 -0.311,0.213 -0.165,-0.016 -0.335,-0.004 -0.537,-0.004 0.224,-0.555 0.412,-1.088 0.654,-1.598 0.173,-0.359 0.166,-0.67 0.02,-1.037 -0.393,-0.992 -0.745,-1.998 -1.113,-2.998 -0.019,-0.051 -0.031,-0.102 -0.055,-0.172 0.269,0 0.521,-0.008 0.771,0.008 0.049,0.004 0.114,0.088 0.138,0.146 0.278,0.746 0.554,1.49 0.828,2.236 0.017,0.047 0.034,0.09 0.063,0.166 0.06,-0.139 0.109,-0.25 0.156,-0.363 0.277,-0.689 0.558,-1.373 0.831,-2.063 0.038,-0.1 0.087,-0.141 0.196,-0.137 0.195,0.01 0.395,0.004 0.616,0.004 -0.13,0.331 -0.251,0.64 -0.377,0.943 z m 3.584,2.185 c -0.147,0.443 -0.471,0.691 -0.928,0.713 -0.561,0.027 -1.124,0.01 -1.703,0.01 0,-0.166 0,-0.314 0,-0.49 0.313,0 0.616,0.006 0.923,-0.002 0.155,-0.004 0.315,-0.018 0.465,-0.055 0.284,-0.066 0.47,-0.252 0.49,-0.553 0.019,-0.227 0.027,-0.459 10e-4,-0.682 -0.032,-0.285 -0.168,-0.396 -0.452,-0.43 -0.132,-0.016 -0.265,-0.027 -0.396,-0.037 -0.992,-0.072 -1.147,-0.494 -1.209,-1.223 -0.021,-0.262 0.042,-0.539 0.104,-0.799 0.107,-0.457 0.437,-0.699 0.887,-0.727 0.51,-0.031 1.022,-0.01 1.552,-0.01 0,0.143 0,0.299 0,0.48 -0.248,0 -0.494,-0.002 -0.738,0.002 -0.152,0.004 -0.303,0.01 -0.452,0.031 -0.256,0.037 -0.438,0.174 -0.486,0.438 -0.03,0.178 -0.057,0.359 -0.046,0.537 0.02,0.295 0.18,0.441 0.475,0.473 0.257,0.023 0.517,0.043 0.773,0.07 0.363,0.045 0.604,0.24 0.716,0.6 0.168,0.553 0.207,1.104 0.024,1.654 z m 2.595,-2.625 c -0.291,0 -0.582,0 -0.895,0 0,0.09 0,0.152 0,0.221 0,0.674 0,1.352 0,2.023 0.002,0.09 0.002,0.184 0.018,0.271 0.047,0.238 0.15,0.324 0.396,0.322 0.09,0 0.178,0 0.283,0 0,0.174 0,0.33 0,0.521 -0.379,-0.012 -0.762,0.063 -1.137,-0.063 -0.217,-0.068 -0.32,-0.242 -0.348,-0.463 -0.011,-0.09 -0.01,-0.182 -0.01,-0.27 0,-1.184 0,-2.365 0,-3.547 0.002,-0.07 0.002,-0.143 0.002,-0.23 0.276,0 0.522,0 0.793,0 0,0.232 0,0.463 0,0.711 0.313,0 0.598,0 0.896,0 0.002,0.174 0.002,0.327 0.002,0.504 z m 3.529,3.375 c -0.295,0 -0.563,0.006 -0.832,-0.002 -0.479,-0.014 -0.969,0 -1.441,-0.064 -0.557,-0.07 -0.771,-0.313 -0.828,-0.863 -0.029,-0.27 -0.002,-0.551 0.027,-0.826 0.027,-0.287 0.215,-0.463 0.479,-0.559 0.422,-0.154 0.863,-0.145 1.322,-0.141 0,0.176 0,0.328 0,0.504 -0.117,0 -0.23,-0.012 -0.342,0.006 -0.146,0.02 -0.297,0.051 -0.436,0.102 -0.143,0.057 -0.229,0.176 -0.234,0.336 -0.006,0.174 -0.021,0.35 -0.002,0.521 0.033,0.309 0.168,0.436 0.482,0.445 0.326,0.016 0.65,0.004 1.004,0.004 0,-0.066 0,-0.127 0,-0.186 0,-0.645 0,-1.291 -0.002,-1.938 0,-0.447 -0.236,-0.695 -0.688,-0.707 -0.354,-0.008 -0.709,0 -1.07,0 0,-0.176 0,-0.328 0,-0.533 0.596,0.033 1.186,0.035 1.77,0.107 0.486,0.063 0.738,0.357 0.758,0.846 0.031,0.814 0.023,1.627 0.033,2.443 0,0.156 0,0.31 0,0.505 z m 2.594,-3.379 c -0.289,0 -0.574,0 -0.889,0 0,0.076 0,0.135 0,0.191 0,0.701 -0.002,1.4 0,2.1 0,0.096 0.014,0.193 0.035,0.285 0.051,0.203 0.141,0.266 0.348,0.266 0.104,0 0.203,0 0.32,0 0,0.172 0,0.332 0,0.521 -0.375,-0.014 -0.754,0.057 -1.123,-0.055 -0.242,-0.072 -0.369,-0.264 -0.369,-0.504 -0.008,-1.332 -0.006,-2.662 -0.006,-4.01 0.275,0 0.525,0 0.793,0 0,0.234 0,0.461 0,0.705 0.305,0 0.592,0 0.891,0 0,0.175 0,0.328 0,0.501 z m -0.408,-6.134 c -0.027,0.01 -0.058,0.012 -0.087,0.02 h 10e-4 c -0.084,0.031 -0.168,0.064 -0.252,0.096 -0.242,0.086 -0.486,0.172 -0.73,0.256 -0.395,0.139 -0.787,0.275 -1.182,0.416 -0.359,0.127 -0.717,0.254 -1.074,0.381 -0.412,0.145 -0.824,0.289 -1.236,0.436 -0.127,0.045 -0.252,0.098 -0.385,0.133 -0.143,0.059 -0.293,0.104 -0.439,0.154 -0.309,0.109 -0.615,0.217 -0.926,0.324 -0.406,0.143 -0.814,0.283 -1.221,0.424 -0.098,0.035 -0.247,0.068 -0.343,0.105 v -0.002 c -0.227,-0.074 -0.528,-0.148 -0.757,-0.225 -0.248,-0.082 -0.496,-0.162 -0.745,-0.242 -0.298,-0.096 -0.594,-0.189 -0.889,-0.291 -0.288,-0.092 -0.698,-0.184 -0.985,-0.275 v -0.086 -0.867 c -0.26,0.068 -0.745,0.152 -0.998,0.199 0,0 -1.225,0.184 -2.111,0.156 -0.52,-0.025 -1.14,-0.141 -1.708,-0.227 -0.429,-0.063 -0.858,-0.135 -1.284,-0.229 -0.384,-0.084 -0.764,-0.182 -1.119,-0.354 -0.118,-0.059 -0.229,-0.127 -0.335,-0.211 -0.215,-0.176 -0.295,-0.4 -0.266,-0.674 0.046,-0.451 0.282,-0.793 0.616,-1.076 0.253,-0.213 0.538,-0.369 0.844,-0.492 0.068,-0.027 0.132,-0.063 0.208,-0.072 0.001,0 0.002,10e-4 0.003,10e-4 0.563,-0.189 1.126,-0.382 1.69,-0.569 0.881,-0.297 1.763,-0.594 2.642,-0.893 0.171,-0.057 0.339,-0.113 0.512,-0.17 h 0 c 0.224,-0.076 0.448,-0.154 0.676,-0.23 0.212,-0.076 0.418,-0.146 0.631,-0.221 0.003,-0.023 0,-0.049 0,-0.07 0.002,-2.855 0.014,-5.709 0.014,-8.564 0,-0.02 -10e-4,-0.035 0.001,-0.053 0.002,-0.016 0.011,-0.023 0.025,-0.016 0.144,0.039 0.284,0.08 0.426,0.117 0.403,0.105 0.806,0.215 1.209,0.318 0.368,0.102 0.738,0.193 1.106,0.291 0.434,0.115 0.864,0.23 1.299,0.344 0.35,0.092 0.695,0.191 1.037,0.313 0.592,0.211 1.16,0.473 1.682,0.826 0.277,0.188 0.539,0.398 0.77,0.645 0.244,0.256 0.451,0.537 0.621,0.854 0.186,0.344 0.309,0.709 0.389,1.09 0.033,0.154 0.051,0.311 0.068,0.467 0.01,0.021 0,0.045 0.01,0.068 0,0.025 0.002,0.053 0.002,0.082 0.012,0.031 -0.002,0.064 0.008,0.102 0,0.16 0,0.32 0,0.482 -0.01,0.043 0.004,0.088 -0.008,0.133 0,0.031 -0.002,0.063 -0.002,0.092 -0.012,0.029 0.002,0.063 -0.01,0.09 0,0.023 0,0.049 -0.002,0.07 -0.01,0.02 0.002,0.047 -0.006,0.066 -0.002,0.02 -0.004,0.033 -0.004,0.051 -0.01,0.02 0,0.039 -0.01,0.061 0,0.012 0,0.025 0,0.041 -0.014,0.016 0,0.037 -0.01,0.055 -0.039,0.26 -0.08,0.518 -0.15,0.773 -0.096,0.34 -0.23,0.666 -0.432,0.959 -0.229,0.332 -0.523,0.586 -0.893,0.75 -0.244,0.107 -0.502,0.162 -0.768,0.188 -0.023,0.008 -0.049,-0.002 -0.07,0.008 -0.039,0 -0.074,0.002 -0.111,0.004 -0.07,0.006 -0.145,0.006 -0.215,0 -0.039,-0.002 -0.076,-0.004 -0.115,-0.004 -0.027,-0.01 -0.061,0.002 -0.09,-0.008 -0.016,0 -0.031,-0.002 -0.049,-0.002 -0.018,-0.01 -0.039,0 -0.057,-0.008 -0.141,-0.008 -0.279,-0.031 -0.414,-0.059 -0.162,-0.033 -0.326,-0.064 -0.484,-0.117 -0.025,-0.008 -0.055,-0.014 -0.082,-0.021 -0.016,-0.004 -0.021,-0.012 -0.021,-0.025 0,-0.016 0,-0.033 0,-0.049 0,-1.887 0,-3.77 0,-5.656 0,-0.023 0.006,-0.047 -0.004,-0.068 -0.018,-0.184 -0.123,-0.309 -0.277,-0.395 -0.102,-0.055 -0.213,-0.088 -0.33,-0.098 -0.057,-0.006 -0.113,-0.006 -0.168,0 -0.189,0.018 -0.354,0.074 -0.458,0.244 -0.026,0.043 -0.044,0.09 -0.043,0.139 -0.011,0.055 -0.004,0.109 -0.005,0.166 -0.003,0.162 0.005,0.328 -0.003,0.492 -0.001,0.205 -0.003,0.41 -0.004,0.615 l 0.004,6.1 c 0.003,0.006 -0.001,0.012 0,0.018 0,0 10e-4,0 10e-4,0 0,-10e-4 0.001,-10e-4 0,-0.002 -10e-4,-0.004 -0.003,-0.008 0,-0.01 0.005,-0.008 -0.007,-0.008 0,-0.01 0.307,-0.104 0.626,-0.209 0.935,-0.305 0.457,-0.137 0.916,-0.262 1.383,-0.361 0.266,-0.057 0.252,-0.057 0.797,-0.146 0.543,-0.088 2.48,-0.121 3.436,0.031 0.318,0.051 0.496,0.08 0.74,0.135 0.281,0.063 0.559,0.135 0.83,0.23 0.328,0.113 0.645,0.256 0.922,0.473 0.219,0.174 0.391,0.381 0.475,0.658 0.074,0.248 0.031,0.477 -0.1,0.689 -0.15,0.248 -0.371,0.426 -0.609,0.578 -0.295,0.188 -0.611,0.324 -0.937,0.444 z m 1.824,9.502 c -0.258,0 -0.512,0 -0.775,0 0,-1.283 0,-2.559 0,-3.855 0.264,0 0.512,0 0.775,0 0,1.282 0,2.564 0,3.855 z m 0,-4.346 c -0.254,0 -0.504,0 -0.777,0 0,-0.23 0,-0.451 0,-0.688 0.258,0 0.512,0 0.777,0 0,0.227 0,0.452 0,0.688 z m 4.143,3.353 c -0.141,0.627 -0.451,0.916 -1.09,0.977 -0.404,0.033 -0.82,0.02 -1.223,-0.027 -0.486,-0.063 -0.785,-0.379 -0.904,-0.848 -0.17,-0.674 -0.166,-1.352 -0.021,-2.025 0.119,-0.555 0.465,-0.904 1.037,-0.947 0.428,-0.033 0.871,-0.037 1.293,0.023 0.582,0.082 0.844,0.516 0.938,1.055 0.047,0.277 0.057,0.561 0.088,0.885 -0.034,0.275 -0.05,0.601 -0.118,0.907 z m 3.228,0.995 c 0,-0.303 0,-0.59 0,-0.877 0,-0.592 0,-1.184 0,-1.775 -0.004,-0.441 -0.232,-0.686 -0.672,-0.703 -0.246,-0.01 -0.494,-0.002 -0.74,-0.002 -0.025,0 -0.049,0.004 -0.098,0.014 0,1.111 0,2.225 0,3.346 -0.271,0 -0.516,0 -0.777,0 0,-1.279 0,-2.553 0,-3.836 0,-0.002 0.01,-0.016 0.02,-0.016 0.711,0.01 1.422,0.002 2.133,0.037 0.207,0.014 0.424,0.129 0.609,0.24 0.207,0.127 0.299,0.355 0.301,0.592 0.008,0.988 0.004,1.977 0.004,2.98 -0.258,0 -0.501,0 -0.78,0 z m 1.791,-109.541 c -0.023,0 -0.047,0 -0.072,0 -0.273,0 -0.547,0 -0.822,-0.001 -0.043,0 -0.072,0.012 -0.102,0.042 -0.889,0.95 -1.779,1.898 -2.668,2.847 -0.027,0.027 -0.039,0.058 -0.039,0.098 0.002,0.365 0,0.731 0,1.1 0,0.021 0.002,0.042 0.004,0.063 0.008,0.058 0.043,0.092 0.098,0.104 0.033,0.006 0.068,0.002 0.104,0.002 0.316,0.002 0.633,0.002 0.947,0.002 0.004,0 0.01,0.002 0.014,0.004 0.014,0.048 0.02,0.648 0.006,0.741 -0.051,0.015 -3.957,0.021 -4.082,0.007 -0.016,-0.047 -0.021,-0.647 -0.006,-0.75 0.023,-10e-4 0.047,-0.004 0.07,-0.004 0.264,0 0.525,0 0.789,0 0.025,0 0.051,0 0.076,-0.001 0.094,-0.007 0.143,-0.058 0.146,-0.15 0.002,-0.011 0,-0.022 0,-0.033 0,-0.382 0,-0.763 0.002,-1.143 0,-0.047 -0.016,-0.081 -0.045,-0.116 -0.797,-0.868 -1.588,-1.735 -2.379,-2.604 -0.051,-0.056 -0.102,-0.108 -0.148,-0.164 -0.025,-0.032 -0.057,-0.041 -0.096,-0.041 -0.313,10e-4 -0.621,10e-4 -0.936,10e-4 -0.021,0 -0.049,0 -0.076,0 0,-0.283 0,-0.557 0,-0.83 0.047,-0.018 4.08,-0.023 4.178,-0.009 0,0.276 0,0.551 0,0.831 -0.025,10e-4 -0.045,0.005 -0.064,0.005 -0.143,0 -0.287,0.004 -0.43,-0.002 -0.145,-0.006 -0.16,0.081 -0.113,0.181 0.016,0.035 0.041,0.067 0.066,0.098 0.146,0.168 0.293,0.339 0.441,0.503 0.295,0.32 0.592,0.641 0.887,0.959 0.016,0.015 0.023,0.03 0.039,0.05 0.025,-0.027 0.043,-0.044 0.059,-0.063 0.449,-0.489 0.896,-0.98 1.344,-1.471 0.023,-0.026 0.049,-0.05 0.07,-0.077 0.045,-0.059 0.035,-0.12 -0.033,-0.155 -0.027,-0.015 -0.064,-0.021 -0.098,-0.021 -0.146,-10e-4 -0.291,0 -0.438,0 -0.021,0 -0.043,-0.004 -0.068,-0.007 0,-0.278 0,-0.552 0,-0.825 0.059,-0.014 3.189,-0.021 3.375,-0.007 0.014,0.046 0.02,0.756 0,0.836 z"
       id="path51"
       inkscape:connector-curvature="0"
       style="fill:#d9d9d9" /><path
       d="m 346.796,531.711 v 126.752 c 0.225,0.261 0.454,0.519 0.682,0.777 V 530.934 c -0.228,0.259 -0.457,0.516 -0.682,0.777 z"
       id="path53"
       inkscape:connector-curvature="0"
       style="fill:#d9d9d9" /><path
       d="m 347.479,530.933 v 128.309 c 0.339,0.386 0.677,0.772 1.023,1.152 V 529.78 c -0.345,0.38 -0.683,0.767 -1.023,1.153 z"
       id="path55"
       inkscape:connector-curvature="0"
       style="fill:#d9d9d9" /><rect
       x="347.478"
       y="530.935"
       width="0.0020000001"
       height="128.30701"
       id="rect57"
       style="fill:#d9d9d9" /><path
       d="M 494.055,658.412 V 531.763 c -0.014,-0.017 -0.028,-0.034 -0.042,-0.05 v 126.749 c 0.014,-0.016 0.029,-0.034 0.042,-0.05 z"
       id="path59"
       inkscape:connector-curvature="0"
       style="fill:#d9d9d9" /><path
       d="m 493.03,659.579 c 0.329,-0.37 0.658,-0.739 0.981,-1.114 V 531.71 c -0.323,-0.375 -0.652,-0.744 -0.981,-1.114 v 128.983 z"
       id="path61"
       inkscape:connector-curvature="0"
       style="fill:#d9d9d9" /><polygon
       points="494.011,658.464 494.013,658.461 494.013,531.713 494.011,531.71 "
       id="polygon63"
       style="fill:#d9d9d9" /><path
       d="m 322.885,595.087 c 0,-24.476 9.018,-46.843 23.911,-63.966 v -0.447 c -15.091,17.224 -24.253,39.768 -24.253,64.413 0,24.646 9.162,47.19 24.253,64.414 v -0.447 C 331.903,641.93 322.885,619.562 322.885,595.087 z"
       id="path65"
       inkscape:connector-curvature="0"
       style="fill:#707070" /><path
       d="m 502.429,647.848 c -2.527,3.921 -5.327,7.649 -8.374,11.157 v 0.447 c 2.992,-3.42 5.749,-7.051 8.249,-10.864 l -0.236,-0.143 0.361,-0.597 z"
       id="path67"
       inkscape:connector-curvature="0"
       style="fill:#707070" /><path
       d="m 517.923,595.087 c 0,19.202 -5.553,37.104 -15.135,52.197 l 0.26,0.157 c 9.631,-15.149 15.217,-33.111 15.217,-52.354 0,-24.622 -9.144,-47.146 -24.21,-64.365 v 0.447 c 14.867,17.117 23.868,39.466 23.868,63.918 z"
       id="path69"
       inkscape:connector-curvature="0"
       style="fill:#707070" /><path
       d="m 420.404,497.568 c 28.851,0 54.771,12.532 72.625,32.445 v -0.446 c -17.923,-19.847 -43.842,-32.34 -72.625,-32.34 -28.4,0 -54.009,12.165 -71.902,31.551 v 0.435 c 17.828,-19.448 43.44,-31.645 71.902,-31.645 z"
       id="path71"
       inkscape:connector-curvature="0"
       style="fill:#707070" /><path
       d="m 420.404,692.607 c -28.462,0 -54.074,-12.196 -71.902,-31.646 v 0.436 c 17.893,19.388 43.502,31.552 71.902,31.552 28.784,0 54.703,-12.494 72.625,-32.341 v -0.447 c -17.854,19.914 -43.774,32.446 -72.625,32.446 z"
       id="path73"
       inkscape:connector-curvature="0"
       style="fill:#707070" /><path
       d="m 347.478,530.352 v -0.447 c -0.229,0.255 -0.457,0.511 -0.682,0.769 v 0.447 c 0.225,-0.259 0.454,-0.513 0.682,-0.769 z"
       id="path75"
       inkscape:connector-curvature="0"
       style="fill:#707070" /><path
       d="m 346.796,659.053 v 0.447 c 0.226,0.258 0.454,0.514 0.682,0.769 v -0.447 c -0.228,-0.256 -0.457,-0.51 -0.682,-0.769 z"
       id="path77"
       inkscape:connector-curvature="0"
       style="fill:#707070" /><path
       d="m 347.479,659.824 v 0.447 c 0.338,0.378 0.679,0.753 1.023,1.126 v -0.436 c -0.344,-0.376 -0.684,-0.755 -1.023,-1.137 z"
       id="path79"
       inkscape:connector-curvature="0"
       style="fill:#707070" /><path
       d="m 348.502,529.212 v -0.435 c -0.344,0.373 -0.685,0.748 -1.023,1.126 v 0.447 c 0.339,-0.381 0.679,-0.762 1.023,-1.138 z"
       id="path81"
       inkscape:connector-curvature="0"
       style="fill:#707070" /><rect
       x="347.478"
       y="659.823"
       width="0.0020000001"
       height="0.447"
       id="rect83"
       style="fill:#707070" /><rect
       x="347.478"
       y="529.90503"
       width="0.0020000001"
       height="0.447"
       id="rect85"
       style="fill:#707070" /><path
       d="m 494.013,659.052 v 0.447 c 0.014,-0.016 0.028,-0.031 0.042,-0.047 v -0.447 c -0.013,0.016 -0.028,0.032 -0.042,0.047 z"
       id="path87"
       inkscape:connector-curvature="0"
       style="fill:#707070" /><path
       d="m 494.013,531.122 c 0.014,0.016 0.028,0.031 0.042,0.047 v -0.447 c -0.014,-0.016 -0.028,-0.031 -0.042,-0.047 v 0.447 z"
       id="path89"
       inkscape:connector-curvature="0"
       style="fill:#707070" /><path
       d="m 493.03,660.161 v 0.447 c 0.33,-0.366 0.656,-0.735 0.981,-1.106 v -0.446 c -0.323,0.371 -0.652,0.738 -0.981,1.105 z"
       id="path91"
       inkscape:connector-curvature="0"
       style="fill:#707070" /><path
       d="m 494.011,531.119 v -0.446 c -0.325,-0.371 -0.651,-0.74 -0.981,-1.106 v 0.446 c 0.329,0.367 0.658,0.735 0.981,1.106 z"
       id="path93"
       inkscape:connector-curvature="0"
       style="fill:#707070" /><rect
       x="494.01099"
       y="659.05402"
       width="0.003"
       height="0.44600001"
       id="rect95"
       style="fill:#707070" /><rect
       x="494.01099"
       y="530.67401"
       width="0.003"
       height="0.44600001"
       id="rect97"
       style="fill:#707070" /><path
       d="m 323.226,595.087 c 0,-24.193 8.889,-46.348 23.57,-63.375 v -0.591 c -14.893,17.123 -23.911,39.491 -23.911,63.966 0,24.475 9.018,46.843 23.911,63.966 v -0.59 c -14.681,-17.027 -23.57,-39.182 -23.57,-63.376 z"
       id="path99"
       inkscape:connector-curvature="0"
       style="fill:#707070" /><path
       d="m 517.582,595.087 c 0,24.169 -8.872,46.304 -23.526,63.325 v 0.594 c 3.047,-3.508 5.847,-7.236 8.374,-11.157 l 0.346,-0.572 0.014,0.008 c 9.582,-15.093 15.135,-32.995 15.135,-52.197 0,-24.452 -9.001,-46.801 -23.868,-63.918 v 0.594 c 14.652,17.019 23.525,39.153 23.525,63.323 z"
       id="path101"
       inkscape:connector-curvature="0"
       style="fill:#707070" /><path
       d="m 420.404,692.265 c -28.466,0 -54.113,-12.303 -71.902,-31.871 v 0.567 c 17.828,19.449 43.439,31.646 71.902,31.646 28.851,0 54.771,-12.532 72.625,-32.446 v -0.582 c -17.813,20.038 -43.768,32.686 -72.625,32.686 z"
       id="path103"
       inkscape:connector-curvature="0"
       style="fill:#707070" /><path
       d="m 420.404,497.91 c 28.857,0 54.812,12.648 72.625,32.687 v -0.583 c -17.854,-19.913 -43.774,-32.445 -72.625,-32.445 -28.462,0 -54.074,12.196 -71.902,31.644 v 0.568 c 17.79,-19.569 43.436,-31.871 71.902,-31.871 z"
       id="path105"
       inkscape:connector-curvature="0"
       style="fill:#707070" /><path
       d="m 346.796,658.463 v 0.59 c 0.225,0.259 0.455,0.513 0.682,0.769 v -0.581 c -0.228,-0.259 -0.457,-0.517 -0.682,-0.778 z"
       id="path107"
       inkscape:connector-curvature="0"
       style="fill:#707070" /><path
       d="m 347.478,530.934 v -0.582 c -0.228,0.256 -0.457,0.51 -0.682,0.769 v 0.591 c 0.225,-0.262 0.454,-0.519 0.682,-0.778 z"
       id="path109"
       inkscape:connector-curvature="0"
       style="fill:#707070" /><path
       d="m 347.479,659.242 v 0.582 c 0.339,0.382 0.678,0.762 1.023,1.138 v -0.567 c -0.345,-0.381 -0.683,-0.768 -1.023,-1.153 z"
       id="path111"
       inkscape:connector-curvature="0"
       style="fill:#707070" /><path
       d="m 348.502,529.78 v -0.568 c -0.345,0.376 -0.684,0.757 -1.023,1.138 v 0.582 c 0.34,-0.385 0.678,-0.772 1.023,-1.152 z"
       id="path113"
       inkscape:connector-curvature="0"
       style="fill:#707070" /><rect
       x="347.478"
       y="530.35101"
       width="0.0020000001"
       height="0.58200002"
       id="rect115"
       style="fill:#707070" /><rect
       x="347.478"
       y="659.242"
       width="0.0020000001"
       height="0.58099997"
       id="rect117"
       style="fill:#707070" /><path
       d="m 494.013,658.461 v 0.591 c 0.014,-0.016 0.028,-0.031 0.042,-0.047 v -0.594 c -0.013,0.017 -0.028,0.035 -0.042,0.05 z"
       id="path119"
       inkscape:connector-curvature="0"
       style="fill:#707070" /><path
       d="m 494.055,531.763 v -0.594 c -0.014,-0.016 -0.028,-0.032 -0.042,-0.047 v 0.591 c 0.014,0.016 0.029,0.033 0.042,0.05 z"
       id="path121"
       inkscape:connector-curvature="0"
       style="fill:#707070" /><path
       d="m 494.011,531.71 v -0.591 c -0.323,-0.372 -0.652,-0.739 -0.981,-1.106 v 0.583 c 0.329,0.37 0.658,0.739 0.981,1.114 z"
       id="path123"
       inkscape:connector-curvature="0"
       style="fill:#707070" /><path
       d="m 493.03,659.579 v 0.582 c 0.329,-0.366 0.658,-0.733 0.981,-1.105 v -0.591 c -0.323,0.374 -0.652,0.743 -0.981,1.114 z"
       id="path125"
       inkscape:connector-curvature="0"
       style="fill:#707070" /><rect
       x="494.01099"
       y="531.12"
       width="0.003"
       height="0.59100002"
       id="rect127"
       style="fill:#707070" /><polygon
       points="494.013,658.461 494.011,658.464 494.011,659.055 494.013,659.052 "
       id="polygon129"
       style="fill:#707070" /><circle
       cx="298.54999"
       cy="621.03699"
       r="10.361"
       id="circle131"
       sodipodi:cx="298.54999"
       sodipodi:cy="621.03699"
       sodipodi:rx="10.361"
       sodipodi:ry="10.361"
       style="fill:#4d4d4d"
       d="m 308.91099,621.03699 c 0,5.72222 -4.63878,10.361 -10.361,10.361 -5.72222,0 -10.361,-4.63878 -10.361,-10.361 0,-5.72223 4.63878,-10.361 10.361,-10.361 5.72222,0 10.361,4.63877 10.361,10.361 z" /><path
       d="m 513.967,655.637 c 0.229,-0.395 0.458,-0.789 0.71,-1.168 l -11.629,-7.028 c -0.245,0.385 -0.494,0.767 -0.744,1.147 l 11.663,7.049 z"
       id="path133"
       inkscape:connector-curvature="0"
       style="fill:#707070" /><path
       d="m 502.429,647.848 -0.361,0.598 0.236,0.143 c 0.25,-0.381 0.499,-0.763 0.744,-1.147 l -0.26,-0.157 c -0.12,0.187 -0.238,0.376 -0.359,0.563 z"
       id="path135"
       inkscape:connector-curvature="0"
       style="fill:#707070" /><path
       d="m 502.429,647.848 c 0.121,-0.188 0.239,-0.376 0.359,-0.564 l -0.014,-0.008 -0.345,0.572 z"
       id="path137"
       inkscape:connector-curvature="0"
       style="fill:#707070" /><path
       d="m 514.41,655.905 -0.442,-0.268 c -1.833,3.177 -2.897,6.853 -2.897,10.784 0,11.947 9.684,21.633 21.631,21.633 11.947,0 21.633,-9.686 21.633,-21.633 0,-11.947 -9.686,-21.631 -21.633,-21.631 -7.526,0 -14.148,3.848 -18.023,9.679 l 0.439,0.266 -0.708,1.17 z"
       id="path139"
       inkscape:connector-curvature="0"
       style="fill:#4d4d4d" /><path
       d="m 514.41,655.905 0.707,-1.17 -0.439,-0.266 c -0.252,0.379 -0.481,0.773 -0.71,1.168 l 0.442,0.268 z"
       id="path141"
       inkscape:connector-curvature="0"
       style="fill:#4d4d4d" /><rect
       x="305.80701"
       y="692.00897"
       width="4.099"
       height="9.6859999"
       id="rect143"
       style="fill:#36ce39" /><path
       d="m 305.807,687.951 v 4.059 h 4.099 v -4.059 c -0.675,0.063 -1.357,0.104 -2.048,0.104 -0.693,-10e-4 -1.375,-0.041 -2.051,-0.104 z"
       id="path145"
       inkscape:connector-curvature="0"
       style="fill:#707070" /><path
       d="m 307.857,644.791 c -11.947,0 -21.632,9.684 -21.632,21.631 0,11.255 8.597,20.495 19.582,21.529 v -0.154 h 4.099 v 0.154 c 10.985,-1.033 19.583,-10.273 19.583,-21.529 0,-11.948 -9.685,-21.631 -21.632,-21.631 z"
       id="path147"
       inkscape:connector-curvature="0"
       style="fill:#4d4d4d" /><path
       d="m 305.807,687.796 v 0.154 c 0.676,0.063 1.358,0.104 2.05,0.104 0.691,0 1.374,-0.04 2.048,-0.104 v -0.154 h -4.098 z"
       id="path149"
       inkscape:connector-curvature="0"
       style="fill:#4d4d4d" /><path
       d="m 408.239,539.914 c -0.407,-0.169 -0.831,-0.271 -1.265,-0.346 -0.559,-0.101 -1.122,-0.151 -1.687,-0.206 -0.354,-0.035 -0.707,-0.067 -1.057,-0.127 -0.179,-0.032 -0.354,-0.067 -0.521,-0.137 -0.076,-0.029 -0.146,-0.066 -0.208,-0.122 -0.069,-0.062 -0.103,-0.139 -0.098,-0.232 0.006,-0.114 0.05,-0.215 0.126,-0.3 0.065,-0.075 0.146,-0.131 0.234,-0.178 0.123,-0.063 0.251,-0.105 0.385,-0.139 0.323,-0.081 0.652,-0.109 0.984,-0.12 0.422,-0.013 0.84,0.015 1.255,0.082 0.304,0.048 0.601,0.12 0.888,0.231 0.251,0.097 0.487,0.222 0.684,0.41 0.177,0.169 0.289,0.372 0.324,0.616 0.005,0.029 0.008,0.06 0.012,0.091 0.281,0 0.562,0 0.842,0 0,-0.681 0,-1.355 0,-2.036 -0.289,0 -0.574,0 -0.871,0 0,0.077 0,0.147 0.002,0.22 0,0.073 -0.02,0.098 -0.09,0.103 -0.033,0.002 -0.074,-0.005 -0.104,-0.02 -0.093,-0.04 -0.181,-0.093 -0.274,-0.131 -0.445,-0.186 -0.908,-0.32 -1.381,-0.415 -0.352,-0.07 -0.706,-0.116 -1.063,-0.12 -0.54,-0.006 -1.072,0.069 -1.594,0.207 -0.399,0.106 -0.785,0.252 -1.142,0.467 -0.254,0.154 -0.481,0.34 -0.658,0.582 -0.225,0.306 -0.315,0.652 -0.278,1.029 0.034,0.339 0.187,0.618 0.442,0.843 0.198,0.173 0.427,0.297 0.668,0.395 0.4,0.164 0.818,0.259 1.239,0.332 0.516,0.092 1.036,0.148 1.555,0.208 0.382,0.043 0.762,0.087 1.137,0.155 0.225,0.041 0.447,0.092 0.66,0.176 0.108,0.043 0.21,0.096 0.302,0.17 0.088,0.074 0.151,0.165 0.172,0.282 0.006,0.04 0.003,0.076 -0.017,0.112 -0.05,0.091 -0.112,0.171 -0.188,0.24 -0.137,0.13 -0.297,0.222 -0.475,0.292 -0.314,0.127 -0.647,0.176 -0.983,0.19 -0.448,0.018 -0.896,-0.011 -1.337,-0.083 -0.333,-0.055 -0.66,-0.136 -0.974,-0.262 -0.275,-0.109 -0.534,-0.249 -0.754,-0.453 -0.221,-0.207 -0.364,-0.455 -0.396,-0.761 -0.003,-0.032 -0.007,-0.063 -0.011,-0.092 -0.12,-0.015 -0.893,-0.01 -0.942,0.005 -0.013,0.113 -0.008,2.258 0.006,2.306 0.14,0.013 0.944,0.008 0.994,-0.011 0.004,-0.119 -0.002,-0.239 0.004,-0.361 0.095,10e-4 0.184,-0.003 0.259,0.041 0.079,0.047 0.163,0.077 0.248,0.103 0.649,0.196 1.309,0.354 1.975,0.466 0.201,0.034 0.403,0.06 0.605,0.059 0.38,0 0.756,-0.038 1.129,-0.101 0.379,-0.064 0.753,-0.157 1.111,-0.299 0.3,-0.12 0.582,-0.27 0.826,-0.481 0.379,-0.329 0.575,-0.742 0.566,-1.246 -0.01,-0.485 -0.189,-0.892 -0.558,-1.212 -0.21,-0.182 -0.452,-0.315 -0.708,-0.422 z"
       id="path151"
       inkscape:connector-curvature="0"
       style="fill:#4d4d4d" /><path
       d="m 421.305,538.351 c 0.033,0 0.066,0.002 0.098,0.009 0.166,0.022 0.197,0.06 0.197,0.227 0,1.283 0,2.565 0,3.846 0,0.022 0.002,0.042 0,0.063 -0.006,0.077 -0.047,0.129 -0.123,0.147 -0.033,0.01 -0.069,0.01 -0.102,0.01 -0.26,0.002 -0.521,0.002 -0.783,0.002 -0.021,0 -0.048,0.002 -0.07,0.002 -0.014,0.127 -0.008,0.746 0.008,0.792 1.163,0 2.325,0 3.487,0 0.016,-0.094 0.012,-0.739 -0.006,-0.794 -0.021,0 -0.047,0 -0.07,0 -0.283,0 -0.564,0 -0.846,0 -0.047,-0.002 -0.092,-0.003 -0.139,-0.009 -0.051,-0.006 -0.084,-0.035 -0.092,-0.089 -0.004,-0.038 -0.006,-0.077 -0.006,-0.116 -0.002,-0.997 0,-1.992 0,-2.987 0,-0.026 0,-0.051 0,-0.092 0.029,0.024 0.047,0.038 0.066,0.056 1.498,1.331 2.996,2.664 4.496,3.997 0.031,0.028 0.061,0.041 0.104,0.041 0.391,-0.002 0.779,-10e-4 1.17,-10e-4 0.018,0 0.039,-0.003 0.068,-0.004 0,-0.032 0,-0.063 0,-0.092 0,-1.52 0,-3.038 0,-4.558 0,-0.046 0,-0.092 0.004,-0.139 0.014,-0.149 0.1,-0.235 0.248,-0.246 0.023,-0.001 0.047,-0.002 0.068,-0.002 0.252,0 0.504,10e-4 0.754,10e-4 0.023,0 0.041,-0.004 0.061,-0.006 0.014,-0.126 0.008,-0.784 -0.008,-0.831 -1.17,0 -2.34,0 -3.51,0 -0.014,0.097 -0.01,0.782 0.006,0.837 0.023,0 0.051,0 0.074,0 0.248,0 0.496,0 0.746,0 0.029,0 0.061,0 0.09,0.003 0.189,0.019 0.291,0.13 0.291,0.318 0,0.789 0,1.577 0,2.363 0,0.027 0,0.055 0,0.082 -0.006,10e-4 -0.012,0.004 -0.016,0.005 -0.02,-0.016 -0.037,-0.029 -0.057,-0.047 -0.574,-0.519 -1.15,-1.038 -1.725,-1.556 -0.727,-0.655 -1.453,-1.309 -2.178,-1.964 -0.035,-0.029 -0.066,-0.048 -0.115,-0.048 -0.979,0 -1.951,0 -2.926,0 -0.022,0 -0.045,0.003 -0.07,0.004 0,0.258 0,0.514 0,0.774 0.029,0 0.055,0 0.08,0 0.242,0.002 0.484,0.002 0.726,0.002 z"
       id="path153"
       inkscape:connector-curvature="0"
       style="fill:#4d4d4d" /><path
       d="m 411.942,542.749 c 0.798,0.575 1.697,0.862 2.67,0.951 0.184,0.018 0.372,0.015 0.559,0.021 0,-0.002 0,-0.006 0,-0.005 0.147,0 0.295,0.008 0.442,-0.003 0.368,-0.022 0.732,-0.081 1.09,-0.175 0.626,-0.164 1.209,-0.422 1.729,-0.811 0.426,-0.315 0.78,-0.694 1.023,-1.172 0.294,-0.578 0.368,-1.182 0.203,-1.812 -0.123,-0.467 -0.367,-0.869 -0.691,-1.221 -0.368,-0.401 -0.809,-0.704 -1.3,-0.938 -0.696,-0.331 -1.432,-0.499 -2.201,-0.535 -0.626,-0.03 -1.246,0.029 -1.854,0.193 -0.609,0.161 -1.173,0.412 -1.684,0.784 -0.375,0.274 -0.696,0.604 -0.938,1.002 -0.241,0.396 -0.378,0.825 -0.391,1.289 -0.012,0.464 0.102,0.899 0.324,1.307 0.251,0.457 0.599,0.823 1.019,1.125 z m 1.001,-3.603 c 0.319,-0.426 0.747,-0.712 1.251,-0.872 0.912,-0.291 1.785,-0.202 2.6,0.313 0.42,0.266 0.737,0.627 0.911,1.099 0.247,0.671 0.149,1.303 -0.259,1.883 -0.307,0.432 -0.725,0.719 -1.214,0.902 -0.337,0.126 -0.695,0.189 -1.122,0.188 -0.561,-0.006 -1.133,-0.166 -1.643,-0.527 -0.392,-0.278 -0.69,-0.634 -0.845,-1.093 -0.233,-0.687 -0.112,-1.32 0.321,-1.893 z"
       id="path155"
       inkscape:connector-curvature="0"
       style="fill:#4d4d4d" /><path
       d="m 436.433,537.585 c 0,0.273 0,0.547 0,0.825 0.025,0.003 0.047,0.007 0.068,0.007 0.146,0 0.291,-10e-4 0.438,0 0.033,0 0.07,0.006 0.098,0.021 0.068,0.035 0.078,0.097 0.033,0.155 -0.021,0.027 -0.047,0.051 -0.07,0.077 -0.447,0.49 -0.895,0.981 -1.344,1.471 -0.016,0.02 -0.033,0.036 -0.059,0.063 -0.016,-0.02 -0.023,-0.035 -0.039,-0.05 -0.295,-0.318 -0.592,-0.639 -0.887,-0.959 -0.148,-0.164 -0.295,-0.335 -0.441,-0.503 -0.025,-0.03 -0.051,-0.063 -0.066,-0.098 -0.047,-0.1 -0.031,-0.187 0.113,-0.181 0.143,0.006 0.287,0.002 0.43,0.002 0.02,0 0.039,-0.004 0.064,-0.005 0,-0.28 0,-0.555 0,-0.831 -0.098,-0.015 -4.131,-0.009 -4.178,0.009 0,0.273 0,0.547 0,0.83 0.027,0 0.055,0 0.076,0 0.314,0 0.623,0 0.936,-10e-4 0.039,0 0.07,0.009 0.096,0.041 0.047,0.056 0.098,0.108 0.148,0.164 0.791,0.868 1.582,1.735 2.379,2.604 0.029,0.035 0.045,0.069 0.045,0.116 -0.002,0.38 -0.002,0.761 -0.002,1.143 0,0.011 0.002,0.022 0,0.033 -0.004,0.093 -0.053,0.144 -0.146,0.15 -0.025,10e-4 -0.051,10e-4 -0.076,10e-4 -0.264,0 -0.525,0 -0.789,0 -0.023,0 -0.047,0.003 -0.07,0.004 -0.016,0.103 -0.01,0.703 0.006,0.75 0.125,0.014 4.031,0.008 4.082,-0.007 0.014,-0.093 0.008,-0.693 -0.006,-0.741 -0.004,-0.002 -0.01,-0.004 -0.014,-0.004 -0.314,0 -0.631,0 -0.947,-0.002 -0.035,0 -0.07,0.004 -0.104,-0.002 -0.055,-0.013 -0.09,-0.047 -0.098,-0.104 -0.002,-0.021 -0.004,-0.042 -0.004,-0.063 0,-0.368 0.002,-0.734 0,-1.1 0,-0.04 0.012,-0.07 0.039,-0.098 0.889,-0.948 1.779,-1.896 2.668,-2.847 0.029,-0.03 0.059,-0.042 0.102,-0.042 0.275,10e-4 0.549,10e-4 0.822,10e-4 0.025,0 0.049,0 0.072,0 0.02,-0.08 0.014,-0.79 0,-0.838 -0.185,-0.013 -3.316,-0.005 -3.375,0.009 z"
       id="path157"
       inkscape:connector-curvature="0"
       style="fill:#4d4d4d" /><path
       d="m 430.367,637.429 c 0.131,-0.213 0.174,-0.441 0.1,-0.689 -0.084,-0.277 -0.256,-0.484 -0.475,-0.658 -0.277,-0.217 -0.594,-0.359 -0.922,-0.473 -0.271,-0.096 -0.549,-0.168 -0.83,-0.23 -0.244,-0.055 -0.422,-0.084 -0.74,-0.135 -0.955,-0.152 -2.893,-0.119 -3.436,-0.031 -0.545,0.09 -0.531,0.09 -0.797,0.146 -0.467,0.1 -0.926,0.225 -1.383,0.361 -0.309,0.096 -0.628,0.201 -0.935,0.305 -0.007,0.002 0.005,0.002 0,0.01 -0.003,0.002 -0.001,0.006 0,0.01 0,0.001 -0.001,0.001 0,0.002 0.374,0.117 0.734,0.232 1.107,0.348 0.318,0.1 0.639,0.199 0.955,0.297 0.301,0.09 0.596,0.182 0.891,0.27 -0.007,0.003 -0.015,0.005 -0.021,0.008 0.009,0.002 0.017,0.006 0.025,0.008 0.039,0 0.07,-0.018 0.104,-0.029 0.455,-0.152 0.912,-0.299 1.365,-0.459 0.107,-0.037 0.215,-0.082 0.328,-0.104 0.332,-0.059 0.666,-0.098 1.004,-0.09 0.148,0.006 0.293,0.02 0.436,0.051 0.084,0.021 0.168,0.051 0.236,0.107 0.068,0.059 0.08,0.131 0.039,0.207 -0.016,0.025 -0.033,0.047 -0.053,0.068 -0.07,0.072 -0.156,0.131 -0.244,0.178 -0.191,0.109 -0.395,0.186 -0.598,0.254 -0.291,0.096 -0.58,0.197 -0.871,0.297 -0.021,0.008 -0.047,0.01 -0.059,0.035 10e-4,0.005 0.008,0.003 0.01,0.006 0.107,0.049 0.226,0.075 0.336,0.109 0.49,0.154 0.982,0.305 1.475,0.457 0.242,0.074 0.48,0.15 0.723,0.227 0.199,0.061 0.398,0.121 0.599,0.182 0.029,-0.008 0.06,-0.01 0.087,-0.02 0.326,-0.119 0.643,-0.256 0.936,-0.445 0.237,-0.154 0.457,-0.332 0.608,-0.58 z"
       id="path159"
       inkscape:connector-curvature="0"
       style="fill:#326cb2" /><path
       d="m 417.571,639.13 c 0.008,-0.313 0.003,-0.628 0,-0.941 l 0,0 c -0.296,-0.098 -0.58,-0.189 -0.877,-0.283 -0.213,-0.068 -0.428,-0.135 -0.64,-0.207 0.007,-0.002 0.014,-0.005 0.021,-0.008 -0.006,-0.002 -0.013,-0.004 -0.02,-0.006 -0.027,0 -0.054,0.014 -0.077,0.021 -0.224,0.076 -0.445,0.152 -0.671,0.225 -0.233,0.08 -0.468,0.154 -0.7,0.236 -0.25,0.088 -0.5,0.156 -0.77,0.127 -0.212,-0.021 -0.411,-0.086 -0.574,-0.225 -0.154,-0.137 -0.183,-0.313 -0.052,-0.457 0.036,-0.039 0.077,-0.072 0.121,-0.1 0.109,-0.066 0.235,-0.104 0.355,-0.146 0.174,-0.064 0.346,-0.123 0.519,-0.188 0.024,-0.008 0.053,-0.01 0.059,-0.042 -0.394,-0.122 -0.786,-0.249 -1.182,-0.376 -0.556,-0.178 -1.112,-0.354 -1.667,-0.529 10e-4,0 0.002,-10e-4 0.003,-10e-4 -10e-4,0 -0.002,-10e-4 -0.003,-10e-4 -0.076,0.01 -0.14,0.045 -0.208,0.072 -0.306,0.123 -0.591,0.279 -0.844,0.492 -0.334,0.283 -0.57,0.625 -0.616,1.076 -0.029,0.273 0.051,0.498 0.266,0.674 0.105,0.084 0.217,0.152 0.335,0.211 0.355,0.172 0.735,0.27 1.119,0.354 0.426,0.094 0.855,0.166 1.284,0.229 0.568,0.086 1.188,0.201 1.708,0.227 0.887,0.027 2.111,-0.156 2.111,-0.156 0.253,-0.047 0.738,-0.131 0.998,-0.199 0.002,-0.033 0.01,-0.041 0,-0.074 0.008,10e-4 0.004,-10e-4 0.002,-0.005 z"
       id="path161"
       inkscape:connector-curvature="0"
       style="fill:#f2c102" /><path
       d="m 428.662,638.466 c -0.285,-0.086 -0.568,-0.174 -0.855,-0.264 -0.455,-0.143 -0.908,-0.283 -1.361,-0.424 -0.264,-0.08 -0.525,-0.164 -0.787,-0.244 -0.021,-0.007 -0.043,-0.016 -0.055,-0.037 -0.003,-10e-4 -0.006,-10e-4 -0.008,-0.002 -0.021,-0.025 -0.047,-0.004 -0.066,0.004 -0.201,0.072 -0.404,0.141 -0.607,0.209 -0.385,0.133 -0.77,0.266 -1.156,0.396 -0.557,0.189 -1.113,0.381 -1.676,0.572 -0.367,0.123 -0.772,0.254 -1.14,0.375 -0.005,0.002 -0.001,0.004 -0.002,0.005 0,0.006 0,0.011 0,0.017 l 0,0 c 10e-4,0.004 0.004,0.006 0.002,0.012 0,0.055 10e-4,0.108 0,0.167 0.977,0.312 1.948,0.622 2.927,0.937 0.133,-0.035 0.258,-0.088 0.385,-0.133 0.412,-0.146 0.824,-0.291 1.236,-0.436 0.357,-0.127 0.715,-0.254 1.074,-0.381 0.395,-0.141 0.787,-0.277 1.182,-0.416 0.244,-0.084 0.488,-0.17 0.73,-0.256 0.084,-0.031 0.168,-0.064 0.252,-0.096 h -0.001 -10e-4 c -0.025,0.013 -0.05,0.005 -0.073,-0.005 z"
       id="path163"
       inkscape:connector-curvature="0"
       style="fill:#00a99d" /><path
       d="m 427.414,638.064 c -0.492,-0.152 -0.984,-0.303 -1.475,-0.457 -0.11,-0.034 -0.229,-0.061 -0.336,-0.109 0.012,0.021 0.033,0.03 0.055,0.037 0.262,0.08 0.523,0.164 0.787,0.244 0.453,0.141 0.906,0.281 1.361,0.424 0.287,0.09 0.57,0.178 0.855,0.264 0.023,0.01 0.049,0.018 0.072,0.006 h 10e-4 c -0.2,-0.061 -0.399,-0.121 -0.599,-0.182 -0.241,-0.077 -0.479,-0.153 -0.721,-0.227 z"
       id="path165"
       inkscape:connector-curvature="0"
       style="fill:#00a99d" /><path
       d="m 413.087,636.748 c 0.371,0.119 0.741,0.234 1.111,0.354 0.024,0.01 0.053,0.016 0.07,0.035 0,0.001 -10e-4,0 -0.002,0.001 0,10e-4 10e-4,10e-4 0.002,10e-4 0.026,0.018 0.05,0.004 0.07,-0.004 0.298,-0.105 0.594,-0.213 0.896,-0.32 0.413,-0.148 0.827,-0.299 1.243,-0.447 0.354,-0.125 0.741,-0.252 1.094,-0.377 0,-0.01 0,-0.02 0,-0.029 0,-10e-4 0,-10e-4 0,-0.002 0,-0.003 0,-0.005 0,-0.008 0,-0.012 0,-0.023 0,-0.035 10e-4,-0.285 -0.001,-0.572 0,-0.863 0,-10e-4 0,-0.003 0,-0.004 0,-0.02 0,-0.039 0,-0.059 -0.296,-0.088 -0.625,-0.18 -0.922,-0.273 -0.129,-0.039 -0.256,-0.078 -0.384,-0.117 -0.173,0.057 -0.341,0.113 -0.512,0.17 -0.879,0.299 -1.761,0.596 -2.642,0.893 -0.563,0.188 -1.126,0.38 -1.69,0.569 0.07,0.001 0.133,0.03 0.197,0.05 0.491,0.156 0.979,0.308 1.469,0.465 z"
       id="path167"
       inkscape:connector-curvature="0"
       style="fill:#00a99d" /><path
       d="m 413.085,636.761 c 0.396,0.127 0.788,0.254 1.182,0.376 0,-10e-4 0.002,0 0.002,-10e-4 -0.018,-0.02 -0.046,-0.025 -0.07,-0.035 -0.37,-0.119 -0.74,-0.234 -1.111,-0.354 -0.49,-0.156 -0.978,-0.309 -1.469,-0.467 -0.063,-0.02 -0.127,-0.049 -0.197,-0.05 -0.001,0 -0.002,10e-4 -0.003,10e-4 0.554,0.177 1.11,0.352 1.666,0.53 z"
       id="path169"
       inkscape:connector-curvature="0"
       style="fill:#00a99d" /><path
       d="m 422.81,639.865 c -0.602,-0.193 -1.26,-0.385 -1.861,-0.574 -0.006,-0.002 -0.002,-0.004 -0.002,-0.006 0,0.443 0,0.887 0,1.33 0,0.166 0,0.332 0,0.498 0,0.005 0,0.009 0,0.014 0,0.018 -0.013,0.033 0,0.049 0,0.021 0,0.02 0,0.02 v 0.002 c 0.096,-0.037 0.245,-0.07 0.343,-0.105 0.407,-0.141 0.815,-0.281 1.221,-0.424 0.311,-0.107 0.617,-0.215 0.926,-0.324 0.146,-0.051 0.297,-0.096 0.439,-0.154 -0.039,0.006 -0.072,-0.01 -0.109,-0.02 -0.318,-0.107 -0.639,-0.207 -0.957,-0.306 z"
       id="path171"
       inkscape:connector-curvature="0"
       style="fill:#f2c102" /><path
       d="m 420.947,639.261 c 0,0.002 0,0.003 0,0.004 10e-4,-0.004 0.005,-0.006 0.002,-0.012 v -0.001 c 0,-10e-4 -0.001,-10e-4 -0.002,-10e-4 0,0.002 0,0.006 0,0.01 z"
       id="path173"
       inkscape:connector-curvature="0"
       style="fill:#f2c102" /><path
       d="m 420.949,639.253 c 0.003,0.006 -0.001,0.008 -0.002,0.012 0,0.007 0,0.014 0,0.02 0,0.002 -0.004,0.004 0.002,0.006 0.601,0.189 1.259,0.381 1.861,0.574 0.318,0.1 0.639,0.199 0.957,0.305 0.037,0.01 0.07,0.025 0.109,0.02 -0.979,-0.315 -1.95,-0.626 -2.927,-0.937 l 0,0 z"
       id="path175"
       inkscape:connector-curvature="0"
       style="fill:#f2c102" /><path
       d="m 416.336,634.607 c 0.397,0.125 0.838,0.246 1.235,0.365 0,-0.243 0,-0.486 0,-0.73 0,-0.019 0,-0.038 0,-0.057 0,-0.01 0.002,-0.021 0,-0.033 0.002,-0.008 0.006,-0.01 0,-0.004 -0.213,0.074 -0.419,0.145 -0.631,0.221 -0.228,0.076 -0.452,0.154 -0.676,0.23 h 0 0 c 0.024,-0.008 0.049,0 0.072,0.008 z"
       id="path177"
       inkscape:connector-curvature="0"
       style="fill:#326db2" /><path
       d="m 417.571,634.99 c 0,-0.006 0,-0.012 0,-0.018 -0.397,-0.119 -0.838,-0.24 -1.235,-0.365 -0.022,-0.008 -0.048,-0.016 -0.07,-0.008 h 0 c 0.128,0.039 0.255,0.078 0.384,0.117 0.296,0.094 0.625,0.186 0.921,0.274 z"
       id="path179"
       inkscape:connector-curvature="0"
       style="fill:#326db2" /><path
       d="m 421.921,636.365 c -0.313,-0.096 -0.66,-0.195 -0.972,-0.289 -0.006,-0.002 -0.002,-0.005 -0.002,-0.007 0,0.005 0,0.009 0,0.015 0,0.01 0,0.02 0,0.029 0,0.601 0,1.202 0,1.803 0,0.009 0,0.019 0,0.027 0,0.013 0,0.024 0,0.041 0,10e-4 0,10e-4 0,0.002 0.822,-0.283 1.632,-0.566 2.457,-0.848 0.159,-0.056 0.317,-0.11 0.477,-0.17 -0.153,-0.039 -0.304,-0.091 -0.455,-0.139 -0.503,-0.154 -1.005,-0.31 -1.505,-0.464 z"
       id="path181"
       inkscape:connector-curvature="0"
       style="fill:#00a99d" /><polygon
       points="420.949,636.046 420.947,636.046 420.947,636.056 "
       id="polygon183"
       style="fill:#00a99d" /><path
       d="m 420.947,636.069 c 0,0.002 -0.004,0.005 0.002,0.007 0.313,0.094 0.66,0.193 0.972,0.289 0.5,0.154 1.002,0.311 1.504,0.465 0.151,0.048 0.302,0.1 0.455,0.139 0.007,-0.003 0.015,-0.005 0.021,-0.008 -0.295,-0.088 -0.59,-0.18 -0.891,-0.27 -0.316,-0.098 -0.637,-0.197 -0.955,-0.297 -0.373,-0.115 -0.734,-0.23 -1.107,-0.348 0.001,0.004 0,0.007 -10e-4,0.01 0,0.004 0,0.008 0,0.013 z"
       id="path185"
       inkscape:connector-curvature="0"
       style="fill:#00a99d" /><path
       d="m 416.076,637.691 c 0.174,0.059 0.346,0.111 0.521,0.168 0.306,0.098 0.666,0.195 0.974,0.293 -0.002,-0.322 -0.002,-0.645 0,-0.967 -0.324,0.107 -0.635,0.215 -0.959,0.324 -0.181,0.061 -0.357,0.122 -0.536,0.182 z"
       id="path187"
       inkscape:connector-curvature="0"
       style="fill:#00a99d" /><path
       d="m 417.571,638.152 c -0.308,-0.098 -0.668,-0.195 -0.974,-0.293 -0.175,-0.057 -0.348,-0.109 -0.521,-0.168 -0.007,0.003 -0.014,0.006 -0.021,0.008 0.212,0.072 0.427,0.139 0.64,0.207 0.297,0.094 0.581,0.186 0.877,0.283 0,-10e-4 0,-10e-4 0,-0.002 -10e-4,-0.012 -10e-4,-0.023 -10e-4,-0.035 z"
       id="path189"
       inkscape:connector-curvature="0"
       style="fill:#00a99d" /><path
       d="m 420.947,641.126 c 0,-0.005 0,-0.009 0,-0.014 0,-0.166 0,-0.332 0,-0.498 0,-0.443 0,-0.887 0,-1.33 0,-0.004 -0.002,-0.011 0,-0.02 0,-10e-4 0,-0.002 0,-0.004 0,-0.004 0,-0.008 0,-0.01 0.003,-0.061 0.003,-0.119 0,-0.178 -0.002,-0.007 0,-0.014 0,-0.017 0.003,-0.355 0.003,-0.714 0,-1.071 0,-0.001 0,-0.001 0,-0.002 0,-0.017 0,-0.028 0,-0.041 0,-0.009 0,-0.019 0,-0.027 0,-0.601 0,-1.202 0,-1.803 0,-0.01 0,-0.02 0,-0.029 0,-0.006 0,-0.01 0,-0.015 10e-4,-0.003 -0.002,-0.008 0,-0.013 0,-0.003 0,-0.007 0,-0.01 -10e-4,-0.006 0.003,-0.012 0,-0.018 l -0.004,-6.1 c 0.001,-0.205 0.003,-0.41 0.004,-0.615 0.008,-0.164 0,-0.33 0.003,-0.492 0.001,-0.057 -0.006,-0.111 0.005,-0.166 -10e-4,-0.049 0.017,-0.096 0.043,-0.139 0.104,-0.17 0.27,-0.227 0.458,-0.244 0.055,-0.006 0.111,-0.006 0.168,0 0.117,0.01 0.229,0.043 0.33,0.098 0.154,0.086 0.26,0.211 0.277,0.395 0.01,0.021 0.004,0.045 0.004,0.068 0,1.887 0,3.77 0,5.656 0,0.016 0,0.033 0,0.049 0,0.014 0.006,0.021 0.021,0.025 0.027,0.008 0.057,0.014 0.082,0.021 0.158,0.053 0.322,0.084 0.484,0.117 0.135,0.027 0.273,0.051 0.414,0.059 0.018,0.008 0.039,-0.002 0.057,0.008 0.018,0 0.033,0.002 0.049,0.002 0.029,0.01 0.063,-0.002 0.09,0.008 0.039,0 0.076,0.002 0.115,0.004 0.07,0.006 0.145,0.006 0.215,0 0.037,-0.002 0.072,-0.004 0.111,-0.004 0.021,-0.01 0.047,0 0.07,-0.008 0.266,-0.025 0.523,-0.08 0.768,-0.188 0.369,-0.164 0.664,-0.418 0.893,-0.75 0.201,-0.293 0.336,-0.619 0.432,-0.959 0.07,-0.256 0.111,-0.514 0.15,-0.773 0.01,-0.018 -0.004,-0.039 0.01,-0.055 0,-0.016 0,-0.029 0,-0.041 0.01,-0.021 0,-0.041 0.01,-0.061 0,-0.018 0.002,-0.031 0.004,-0.051 0.008,-0.02 -0.004,-0.047 0.006,-0.066 0.002,-0.021 0.002,-0.047 0.002,-0.07 0.012,-0.027 -0.002,-0.061 0.01,-0.09 0,-0.029 0.002,-0.061 0.002,-0.092 0.012,-0.045 -0.002,-0.09 0.008,-0.133 0,-0.162 0,-0.322 0,-0.482 -0.01,-0.037 0.004,-0.07 -0.008,-0.102 0,-0.029 -0.002,-0.057 -0.002,-0.082 -0.01,-0.023 0,-0.047 -0.01,-0.068 -0.018,-0.156 -0.035,-0.313 -0.068,-0.467 -0.08,-0.381 -0.203,-0.746 -0.389,-1.09 -0.17,-0.316 -0.377,-0.598 -0.621,-0.854 -0.23,-0.246 -0.492,-0.457 -0.77,-0.645 -0.521,-0.354 -1.09,-0.615 -1.682,-0.826 -0.342,-0.121 -0.688,-0.221 -1.037,-0.313 -0.435,-0.113 -0.866,-0.229 -1.299,-0.344 -0.368,-0.098 -0.738,-0.189 -1.106,-0.291 -0.403,-0.104 -0.806,-0.213 -1.209,-0.318 -0.142,-0.037 -0.282,-0.078 -0.426,-0.117 -0.015,-0.008 -0.023,0 -0.025,0.016 -0.002,0.018 -0.001,0.033 -0.001,0.053 0,2.855 -0.012,5.709 -0.014,8.564 0,0.021 0.003,0.047 0,0.07 0.006,-0.006 0.002,-0.004 0,0.004 0.002,0.012 0,0.023 0,0.033 0,0.019 0,0.038 0,0.057 0,0.244 0,0.487 0,0.73 0.027,0.01 0.022,0.022 0.014,0.04 0,0.001 -10e-4,0.004 -10e-4,0.005 -0.005,0.011 -0.012,0.02 -0.012,0.035 -10e-4,0.291 10e-4,0.578 0,0.863 0,0.012 0,0.023 0,0.035 -0.005,0.025 0.021,0.033 0,0.039 -10e-4,0.043 0,0.086 0,0.129 0.002,0.354 -0.004,0.709 0,1.063 0,10e-4 0,0.003 0,0.004 0,0 0,0 10e-4,0 0.002,0.189 0,0.381 0,0.568 0.002,0.136 0.001,0.268 0,0.403 0.002,0.005 0,0.012 0,0.021 0,0.004 0,0.007 0,0.011 0,0 0,0 -10e-4,0 l 0,0 c 0.003,0.313 0.008,0.628 0,0.941 0.002,0.004 0.006,0.006 0,0.004 0.01,0.033 0.002,0.041 0,0.074 v 0.867 0.086 c 0.287,0.092 0.697,0.184 0.985,0.275 0.295,0.102 0.591,0.195 0.889,0.291 0.249,0.08 0.497,0.16 0.745,0.242 0.229,0.076 0.53,0.15 0.757,0.225 0,0 0,0.002 0,-0.02 -0.013,-0.008 -10e-4,-0.024 -10e-4,-0.042 z"
       id="path191"
       inkscape:connector-curvature="0"
       style="fill:#dc0029" /><path
       d="m 420.947,636.069 c 0,-0.005 0,-0.009 0,-0.013 -0.002,0.005 10e-4,0.01 0,0.013 z"
       id="path193"
       inkscape:connector-curvature="0"
       style="fill:#dc0029" /><path
       d="m 417.572,638.157 c 0,0.007 0,0.015 0,0.021 10e-4,-0.01 0.003,-0.016 0,-0.021 z"
       id="path195"
       inkscape:connector-curvature="0"
       style="fill:#dc0029" /><path
       d="m 420.947,639.074 0,0 c 0,-0.006 0,-0.011 0,-0.017 0,0.003 -0.002,0.01 0,0.017 z"
       id="path197"
       inkscape:connector-curvature="0"
       style="fill:#dc0029" /><path
       d="m 420.947,639.285 c 0,-0.006 0,-0.013 0,-0.02 -0.002,0.009 0,0.016 0,0.02 z"
       id="path199"
       inkscape:connector-curvature="0"
       style="fill:#dc0029" /><path
       d="m 417.571,635.96 c 0,0.01 0,0.02 0,0.029 0.021,-0.006 -0.005,-0.014 0,-0.039 0,0.003 0,0.005 0,0.008 0,10e-4 0,10e-4 0,0.002 z"
       id="path201"
       inkscape:connector-curvature="0"
       style="fill:#dc0029" /><path
       d="m 417.585,635.012 c 0.009,-0.018 0.014,-0.03 -0.014,-0.04 0,0.006 0,0.012 0,0.018 0.018,0.007 0.018,0.013 0.014,0.022 z"
       id="path203"
       inkscape:connector-curvature="0"
       style="fill:#dc0029" /><path
       d="m 417.571,635.052 c 0,-0.016 0.007,-0.024 0.012,-0.035 -0.004,0.009 -0.011,0.018 -0.012,0.031 0,10e-4 0,0.003 0,0.004 z"
       id="path205"
       inkscape:connector-curvature="0"
       style="fill:#dc0029" /><path
       d="m 417.585,635.012 c 0,0.001 -10e-4,0.004 -10e-4,0.005 0,-0.001 0,-0.004 10e-4,-0.005 z"
       id="path207"
       inkscape:connector-curvature="0"
       style="fill:#dc0029" /><path
       d="m 417.571,635.048 c 10e-4,-0.014 0.008,-0.022 0.012,-0.031 0,-0.001 10e-4,-0.004 10e-4,-0.005 0.004,-0.009 0.004,-0.016 -0.014,-0.022 0.001,0.019 0.001,0.039 0.001,0.058 z"
       id="path209"
       inkscape:connector-curvature="0"
       style="fill:#dc0029" /><path
       d="m 417.572,638.157 c 10e-4,-0.136 0.002,-0.268 0,-0.403 0,-0.188 0.002,-0.379 0,-0.568 0,0 0,0 -10e-4,0 -0.002,0.322 -0.002,0.645 0,0.967 0.005,10e-4 10e-4,0.002 10e-4,0.004 z"
       id="path211"
       inkscape:connector-curvature="0"
       style="fill:#dc0029" /><polygon
       points="417.571,638.187 417.571,638.189 417.572,638.189 417.572,638.178 "
       id="polygon213"
       style="fill:#dc0029" /><path
       d="m 417.571,638.187 c -0.003,-0.005 10e-4,-0.006 10e-4,-0.009 0,-0.007 0,-0.015 0,-0.021 0,-0.002 0.003,-0.003 -10e-4,-0.005 0,0.012 0,0.023 0,0.035 z"
       id="path215"
       inkscape:connector-curvature="0"
       style="fill:#dc0029" /><path
       d="m 407.436,643.091 c -0.175,-0.072 -0.366,-0.139 -0.554,-0.146 -0.691,-0.023 -1.386,-0.021 -2.08,-0.029 -0.01,0 -0.02,0.012 -0.029,0.018 0,1.674 0,3.348 0,5.023 0.265,0 0.515,0 0.783,0 0,-1.508 0,-3 0,-4.51 0.31,0 0.598,-0.002 0.886,0 0.391,0.002 0.663,0.213 0.706,0.605 0.034,0.289 0.033,0.588 0.006,0.879 -0.044,0.428 -0.228,0.572 -0.66,0.578 -0.168,0.002 -0.334,0 -0.508,0 0,0.178 0,0.332 0,0.492 0.345,0 0.683,0.023 1.018,-0.002 0.516,-0.043 0.828,-0.346 0.95,-0.85 0.125,-0.525 0.103,-1.041 -0.058,-1.553 -0.074,-0.237 -0.231,-0.415 -0.46,-0.505 z"
       id="path217"
       inkscape:connector-curvature="0"
       style="fill:#4d4d4d" /><path
       d="m 433.88,644.115 c -0.422,-0.061 -0.865,-0.057 -1.293,-0.023 -0.572,0.043 -0.918,0.393 -1.037,0.947 -0.145,0.674 -0.148,1.352 0.021,2.025 0.119,0.469 0.418,0.785 0.904,0.848 0.402,0.047 0.818,0.061 1.223,0.027 0.639,-0.061 0.949,-0.35 1.09,-0.977 0.068,-0.307 0.084,-0.633 0.117,-0.908 -0.031,-0.324 -0.041,-0.607 -0.088,-0.885 -0.093,-0.539 -0.355,-0.972 -0.937,-1.054 z m 0.084,2.732 c -0.107,0.418 -0.371,0.586 -0.818,0.582 -0.416,-0.006 -0.678,-0.189 -0.775,-0.594 -0.064,-0.273 -0.08,-0.559 -0.117,-0.84 0.037,-0.279 0.053,-0.557 0.113,-0.826 0.092,-0.391 0.346,-0.564 0.783,-0.576 0.447,-0.008 0.715,0.16 0.818,0.559 0.145,0.56 0.147,1.133 -0.004,1.695 z"
       id="path219"
       inkscape:connector-curvature="0"
       style="fill:#4d4d4d" /><path
       d="m 416.494,644.222 c -0.273,0.689 -0.554,1.373 -0.831,2.063 -0.047,0.113 -0.097,0.225 -0.156,0.363 -0.029,-0.076 -0.047,-0.119 -0.063,-0.166 -0.274,-0.746 -0.55,-1.49 -0.828,-2.236 -0.023,-0.059 -0.089,-0.143 -0.138,-0.146 -0.25,-0.016 -0.503,-0.008 -0.771,-0.008 0.023,0.07 0.036,0.121 0.055,0.172 0.368,1 0.721,2.006 1.113,2.998 0.146,0.367 0.153,0.678 -0.02,1.037 -0.242,0.51 -0.431,1.043 -0.654,1.598 0.202,0 0.372,-0.012 0.537,0.004 0.175,0.02 0.248,-0.057 0.311,-0.213 0.623,-1.553 1.253,-3.104 1.88,-4.656 0.126,-0.303 0.247,-0.611 0.379,-0.941 -0.222,0 -0.421,0.006 -0.616,-0.004 -0.111,-0.005 -0.16,0.036 -0.198,0.135 z"
       id="path221"
       inkscape:connector-curvature="0"
       style="fill:#4d4d4d" /><path
       d="m 425.845,644.173 c -0.584,-0.072 -1.174,-0.074 -1.77,-0.107 0,0.205 0,0.357 0,0.533 0.361,0 0.717,-0.008 1.07,0 0.451,0.012 0.688,0.26 0.688,0.707 0.002,0.646 0.002,1.293 0.002,1.938 0,0.059 0,0.119 0,0.186 -0.354,0 -0.678,0.012 -1.004,-0.004 -0.314,-0.01 -0.449,-0.137 -0.482,-0.445 -0.02,-0.172 -0.004,-0.348 0.002,-0.521 0.006,-0.16 0.092,-0.279 0.234,-0.336 0.139,-0.051 0.289,-0.082 0.436,-0.102 0.111,-0.018 0.225,-0.006 0.342,-0.006 0,-0.176 0,-0.328 0,-0.504 -0.459,-0.004 -0.9,-0.014 -1.322,0.141 -0.264,0.096 -0.451,0.271 -0.479,0.559 -0.029,0.275 -0.057,0.557 -0.027,0.826 0.057,0.551 0.271,0.793 0.828,0.863 0.473,0.064 0.963,0.051 1.441,0.064 0.27,0.008 0.537,0.002 0.832,0.002 0,-0.195 0,-0.35 0,-0.504 -0.01,-0.816 -0.002,-1.629 -0.033,-2.443 -0.02,-0.489 -0.271,-0.784 -0.758,-0.847 z"
       id="path223"
       inkscape:connector-curvature="0"
       style="fill:#4d4d4d" /><path
       d="m 413.115,644.64 c -0.153,-0.346 -0.476,-0.479 -0.824,-0.502 -0.498,-0.031 -0.999,-0.029 -1.5,-0.041 -0.04,0 -0.08,0.012 -0.111,0.016 0,0.166 0,0.318 0,0.486 0.078,0 0.144,0 0.209,0 0.296,0 0.594,-0.008 0.887,0.002 0.429,0.016 0.663,0.268 0.666,0.693 0.003,0.344 0,0.688 0,1.031 0,0.363 0,0.721 0,1.104 -0.353,0 -0.679,0.012 -1.009,-0.004 -0.32,-0.014 -0.448,-0.148 -0.485,-0.467 -0.007,-0.057 -0.022,-0.119 -0.019,-0.178 0.021,-0.215 -0.042,-0.473 0.187,-0.611 0.142,-0.084 0.324,-0.117 0.489,-0.146 0.116,-0.025 0.237,-0.006 0.354,-0.006 0,-0.184 0,-0.342 0,-0.551 -0.423,0.055 -0.832,0.084 -1.23,0.16 -0.28,0.055 -0.508,0.23 -0.55,0.535 -0.039,0.289 -0.073,0.59 -0.038,0.877 0.066,0.566 0.281,0.799 0.847,0.869 0.499,0.061 1.012,0.039 1.518,0.053 0.238,0.006 0.479,0 0.711,0 0.013,-0.047 0.021,-0.063 0.021,-0.08 -10e-4,-0.896 0.006,-1.799 -0.008,-2.699 -0.006,-0.181 -0.04,-0.377 -0.115,-0.541 z"
       id="path225"
       inkscape:connector-curvature="0"
       style="fill:#4d4d4d" /><path
       d="m 419.771,644.964 c -0.257,-0.027 -0.517,-0.047 -0.773,-0.07 -0.295,-0.031 -0.455,-0.178 -0.475,-0.473 -0.011,-0.178 0.016,-0.359 0.046,-0.537 0.048,-0.264 0.23,-0.4 0.486,-0.438 0.149,-0.021 0.3,-0.027 0.452,-0.031 0.244,-0.004 0.49,-0.002 0.738,-0.002 0,-0.182 0,-0.338 0,-0.48 -0.529,0 -1.042,-0.021 -1.552,0.01 -0.45,0.027 -0.779,0.27 -0.887,0.727 -0.062,0.26 -0.125,0.537 -0.104,0.799 0.062,0.729 0.217,1.15 1.209,1.223 0.131,0.01 0.264,0.021 0.396,0.037 0.284,0.033 0.42,0.145 0.452,0.43 0.026,0.223 0.018,0.455 -0.001,0.682 -0.021,0.301 -0.206,0.486 -0.49,0.553 -0.149,0.037 -0.31,0.051 -0.465,0.055 -0.307,0.008 -0.61,0.002 -0.923,0.002 0,0.176 0,0.324 0,0.49 0.579,0 1.143,0.018 1.703,-0.01 0.457,-0.021 0.78,-0.27 0.928,-0.713 0.184,-0.551 0.145,-1.102 -0.025,-1.652 -0.112,-0.361 -0.352,-0.557 -0.715,-0.602 z"
       id="path227"
       inkscape:connector-curvature="0"
       style="fill:#4d4d4d" /><path
       d="m 438.492,644.384 c -0.186,-0.111 -0.402,-0.227 -0.609,-0.24 -0.711,-0.035 -1.422,-0.027 -2.133,-0.037 -0.01,0 -0.02,0.014 -0.02,0.016 0,1.283 0,2.557 0,3.836 0.262,0 0.506,0 0.777,0 0,-1.121 0,-2.234 0,-3.346 0.049,-0.01 0.072,-0.014 0.098,-0.014 0.246,0 0.494,-0.008 0.74,0.002 0.439,0.018 0.668,0.262 0.672,0.703 0,0.592 0,1.184 0,1.775 0,0.287 0,0.574 0,0.877 0.279,0 0.521,0 0.779,0 0,-1.004 0.004,-1.992 -0.004,-2.98 -10e-4,-0.236 -0.093,-0.465 -0.3,-0.592 z"
       id="path229"
       inkscape:connector-curvature="0"
       style="fill:#4d4d4d" /><path
       d="m 428.339,643.382 c -0.268,0 -0.518,0 -0.793,0 0,1.348 -0.002,2.678 0.006,4.01 0,0.24 0.127,0.432 0.369,0.504 0.369,0.111 0.748,0.041 1.123,0.055 0,-0.189 0,-0.35 0,-0.521 -0.117,0 -0.217,0 -0.32,0 -0.207,0 -0.297,-0.063 -0.348,-0.266 -0.021,-0.092 -0.035,-0.189 -0.035,-0.285 -0.002,-0.699 0,-1.398 0,-2.1 0,-0.057 0,-0.115 0,-0.191 0.314,0 0.6,0 0.889,0 0,-0.174 0,-0.326 0,-0.5 -0.299,0 -0.586,0 -0.891,0 0,-0.245 0,-0.471 0,-0.706 z"
       id="path231"
       inkscape:connector-curvature="0"
       style="fill:#4d4d4d" /><path
       d="m 422.21,643.378 c -0.271,0 -0.518,0 -0.793,0 0,0.088 0,0.16 -0.002,0.23 0,1.182 0,2.363 0,3.547 0,0.088 -0.001,0.18 0.01,0.27 0.028,0.221 0.131,0.395 0.348,0.463 0.375,0.125 0.758,0.051 1.137,0.063 0,-0.191 0,-0.348 0,-0.521 -0.105,0 -0.193,0 -0.283,0 -0.246,0.002 -0.35,-0.084 -0.396,-0.322 -0.016,-0.088 -0.016,-0.182 -0.018,-0.271 0,-0.672 0,-1.35 0,-2.023 0,-0.068 0,-0.131 0,-0.221 0.313,0 0.604,0 0.895,0 0,-0.178 0,-0.33 0,-0.502 -0.299,0 -0.584,0 -0.896,0 -0.002,-0.25 -0.002,-0.48 -0.002,-0.713 z"
       id="path233"
       inkscape:connector-curvature="0"
       style="fill:#4d4d4d" /><path
       d="m 408.613,647.955 c 0.263,0 0.518,0 0.779,0 0,-1.682 0,-3.35 0,-5.037 -0.27,0 -0.521,0 -0.779,0 0,1.681 0,3.355 0,5.037 z"
       id="path235"
       inkscape:connector-curvature="0"
       style="fill:#4d4d4d" /><path
       d="m 429.871,647.955 c 0.264,0 0.518,0 0.775,0 0,-1.291 0,-2.572 0,-3.855 -0.264,0 -0.512,0 -0.775,0 0,1.296 0,2.571 0,3.855 z"
       id="path237"
       inkscape:connector-curvature="0"
       style="fill:#4d4d4d" /><path
       d="m 429.869,643.609 c 0.273,0 0.523,0 0.777,0 0,-0.236 0,-0.461 0,-0.688 -0.266,0 -0.52,0 -0.777,0 0,0.237 0,0.457 0,0.688 z"
       id="path239"
       inkscape:connector-curvature="0"
       style="fill:#4d4d4d" /></g></svg>