<?xml version="1.0" encoding="UTF-8" standalone="no"?>
<svg
   xmlns:dc="http://purl.org/dc/elements/1.1/"
   xmlns:cc="http://creativecommons.org/ns#"
   xmlns:rdf="http://www.w3.org/1999/02/22-rdf-syntax-ns#"
   xmlns:svg="http://www.w3.org/2000/svg"
   xmlns="http://www.w3.org/2000/svg"
   viewBox="0 0 215.02499 215.02499"
   height="215.02499"
   width="215.02499"
   xml:space="preserve"
   version="1.1"
   id="svg2"><metadata
     id="metadata8"><rdf:RDF><cc:Work
         rdf:about=""><dc:format>image/svg+xml</dc:format><dc:type
           rdf:resource="http://purl.org/dc/dcmitype/StillImage" /><dc:title></dc:title></cc:Work></rdf:RDF></metadata><defs
     id="defs6"><clipPath
       id="clipPath16"
       clipPathUnits="userSpaceOnUse"><path
         id="path18"
         d="m 0,172.02 172.02,0 L 172.02,0 0,0 0,172.02 Z" /></clipPath><linearGradient
       id="linearGradient206"
       spreadMethod="pad"
       gradientTransform="matrix(20.823595,0,0,-20.823595,130.58289,87.014198)"
       gradientUnits="userSpaceOnUse"
       y2="0"
       x2="1"
       y1="0"
       x1="0"><stop
         id="stop208"
         offset="0"
         style="stop-opacity:1;stop-color:#ef4e26" /><stop
         id="stop210"
         offset="0.5"
         style="stop-opacity:1;stop-color:#e5e543" /><stop
         id="stop212"
         offset="1"
         style="stop-opacity:1;stop-color:#ef4e26" /></linearGradient><linearGradient
       id="linearGradient228"
       spreadMethod="pad"
       gradientTransform="matrix(10.411851,0,0,-10.411851,137.44432,90.499291)"
       gradientUnits="userSpaceOnUse"
       y2="0"
       x2="1"
       y1="0"
       x1="0"><stop
         id="stop230"
         offset="0"
         style="stop-opacity:1;stop-color:#ef4e26" /><stop
         id="stop232"
         offset="0.4"
         style="stop-opacity:1;stop-color:#e5e543" /><stop
         id="stop234"
         offset="1"
         style="stop-opacity:1;stop-color:#fbae1f" /></linearGradient><linearGradient
       id="linearGradient250"
       spreadMethod="pad"
       gradientTransform="matrix(10.412209,0,0,-10.412209,134.26407,83.311134)"
       gradientUnits="userSpaceOnUse"
       y2="0"
       x2="1"
       y1="0"
       x1="0"><stop
         id="stop252"
         offset="0"
         style="stop-opacity:1;stop-color:#fbae1f" /><stop
         id="stop254"
         offset="0.6"
         style="stop-opacity:1;stop-color:#e5e543" /><stop
         id="stop256"
         offset="1"
         style="stop-opacity:1;stop-color:#ef4e26" /></linearGradient><clipPath
       id="clipPath264"
       clipPathUnits="userSpaceOnUse"><path
         id="path266"
         d="m 0,172.02 172.02,0 L 172.02,0 0,0 0,172.02 Z" /></clipPath></defs><g
     transform="matrix(1.25,0,0,-1.25,0,215.025)"
     id="g10"><g
       id="g12"><g
         clip-path="url(#clipPath16)"
         id="g14"><g
           transform="translate(172.0199,86.0099)"
           id="g20"><path
             id="path22"
             style="fill:#929497;fill-opacity:1;fill-rule:nonzero;stroke:none"
             d="m 0,0 c 0,47.502 -38.508,86.01 -86.01,86.01 -47.502,0 -86.01,-38.508 -86.01,-86.01 0,-47.502 38.508,-86.01 86.01,-86.01 C -38.508,-86.01 0,-47.502 0,0" /></g><g
           transform="translate(150.1937,36.812)"
           id="g24"><path
             id="path26"
             style="fill:#ffffff;fill-opacity:1;fill-rule:nonzero;stroke:none"
             d="m 0,0 c -14.768,-19.276 -38.038,-31.691 -64.194,-31.691 -26.156,0 -49.405,12.415 -64.193,31.691 -10.459,13.622 -16.686,30.683 -16.686,49.208 0,44.68 36.219,80.879 80.879,80.879 44.681,0 80.9,-36.199 80.9,-80.879 C 16.706,30.683 10.478,13.622 0.02,0 L 0,0 Z m -64.194,133.804 c -46.716,0 -84.596,-37.879 -84.596,-84.596 0,-46.717 37.88,-84.596 84.596,-84.596 46.737,0 84.597,37.879 84.597,84.596 0,46.717 -37.86,84.596 -84.597,84.596" /></g><g
           transform="translate(86.0001,61.9003)"
           id="g28"><path
             id="path30"
             style="fill:#bbbdbf;fill-opacity:1;fill-rule:nonzero;stroke:none"
             d="m 0,0 c -13.325,0 -24.12,10.795 -24.12,24.12 0,13.325 10.795,24.119 24.12,24.119 13.325,0 24.139,-10.794 24.139,-24.119 C 24.139,10.795 13.325,0 0,0 m 0,50.157 c -14.373,0 -26.017,-11.665 -26.017,-26.037 0,-14.373 11.644,-26.038 26.017,-26.038 14.373,0 26.037,11.665 26.037,26.038 0,14.372 -11.664,26.037 -26.037,26.037" /></g><g
           transform="translate(86.0001,63.4424)"
           id="g32"><path
             id="path34"
             style="fill:#929497;fill-opacity:1;fill-rule:nonzero;stroke:none"
             d="m 0,0 c -12.455,0 -22.558,10.122 -22.558,22.577 0,12.456 10.103,22.558 22.558,22.558 12.475,0 22.577,-10.102 22.577,-22.558 C 22.577,10.122 12.475,0 0,0 m 0,46.697 c -13.325,0 -24.12,-10.795 -24.12,-24.12 0,-13.325 10.795,-24.119 24.12,-24.119 13.325,0 24.139,10.794 24.139,24.119 0,13.325 -10.814,24.12 -24.139,24.12" /></g><g
           transform="translate(86.0001,74.1182)"
           id="g36"><path
             id="path38"
             style="fill:#58595b;fill-opacity:1;fill-rule:nonzero;stroke:none"
             d="m 0,0 c -6.959,0 -12.594,5.635 -12.594,12.594 0,6.959 5.635,12.613 12.594,12.613 6.959,0 12.613,-5.654 12.613,-12.613 C 12.613,5.635 6.959,0 0,0 m 0,34.459 c -12.455,0 -22.558,-10.102 -22.558,-22.557 0,-12.455 10.103,-22.578 22.558,-22.578 12.475,0 22.577,10.123 22.577,22.578 0,12.455 -10.102,22.557 -22.577,22.557" /></g><g
           transform="translate(86.0001,74.1182)"
           id="g40"><path
             id="path42"
             style="fill:none;stroke:#3b3a3c;stroke-width:1.977;stroke-linecap:butt;stroke-linejoin:miter;stroke-miterlimit:10;stroke-dasharray:none;stroke-opacity:1"
             d="m 0,0 c -6.959,0 -12.594,5.635 -12.594,12.594 0,6.959 5.635,12.613 12.594,12.613 6.959,0 12.613,-5.654 12.613,-12.613 C 12.613,5.635 6.959,0 0,0 Z m 0,34.459 c -12.455,0 -22.558,-10.102 -22.558,-22.557 0,-12.455 10.103,-22.578 22.558,-22.578 12.475,0 22.577,10.123 22.577,22.578 0,12.455 -10.102,22.557 -22.577,22.557 z" /></g><g
           transform="translate(41.2968,59.2308)"
           id="g44"><path
             id="path46"
             style="fill:none;stroke:#ffffff;stroke-width:0.50700003;stroke-linecap:butt;stroke-linejoin:miter;stroke-miterlimit:4;stroke-dasharray:none;stroke-opacity:1"
             d="m 0,0 1.685,0 c 0.202,0 0.361,-0.169 0.361,-0.36 l 0,-6.642 c 0,-0.191 -0.169,-0.36 -0.361,-0.36 l -1.685,0 c -0.192,0 -0.36,0.159 -0.36,0.36 l 0,6.642 C -0.36,-0.159 -0.201,0 0,0 Z" /></g><g
           transform="translate(36.7308,57.9805)"
           id="g48"><path
             id="path50"
             style="fill:none;stroke:#ffffff;stroke-width:0.50700003;stroke-linecap:butt;stroke-linejoin:miter;stroke-miterlimit:4;stroke-dasharray:none;stroke-opacity:1"
             d="m 0,0 1.107,0 c 0.202,0 0.361,-0.172 0.361,-0.36 l 0,-4.336 c 0,-0.188 -0.172,-0.36 -0.361,-0.36 l -1.107,0 c -0.188,0 -0.36,0.159 -0.36,0.36 l 0,4.336 C -0.36,-0.159 -0.201,0 0,0 Z m 1.582,3.92 1.35,0 c 0.202,0 0.364,-0.163 0.364,-0.364 l 0,-9.307 c 0,-0.202 -0.162,-0.358 -0.364,-0.358 l -4.731,-0.003 c -0.24,0 -0.523,0.276 -0.523,0.523 l 0,6.313 c 0,0.247 0.279,0.523 0.523,0.523 l 3.017,0 0,2.309 c 0,0.201 0.162,0.364 0.364,0.364 z" /></g><g
           transform="translate(46.1388,56.5094)"
           id="g52"><path
             id="path54"
             style="fill:none;stroke:#ffffff;stroke-width:0.50700003;stroke-linecap:butt;stroke-linejoin:miter;stroke-miterlimit:4;stroke-dasharray:none;stroke-opacity:1"
             d="m 0,0 3.014,0.003 c 0.201,0 0.363,-0.279 0.363,-0.363 l 0,-3.917 c 0,-0.159 -0.204,-0.364 -0.363,-0.364 l -4.368,0 c -0.055,0 -0.361,0.159 -0.361,0.361 l 0,0.893 c 0,0.201 0.159,0.36 0.361,0.36 l 3.017,0 0,1.108 -3.017,0 c -0.062,0 -0.361,0.159 -0.361,0.36 l 0,3.92 c 0,0.201 0.159,0.36 0.361,0.36 l 4.147,0 c 0.169,0 0.36,-0.198 0.36,-0.36 l 0,-0.893 c 0,-0.15 -0.211,-0.361 -0.36,-0.361 L 0,1.107 0,0 Z" /></g><g
           transform="translate(55.4883,54.8954)"
           id="g56"><path
             id="path58"
             style="fill:none;stroke:#ffffff;stroke-width:0.50700003;stroke-linecap:butt;stroke-linejoin:miter;stroke-miterlimit:4;stroke-dasharray:none;stroke-opacity:1"
             d="m 0,0 0,-2.666 c 0,-0.166 -0.195,-0.361 -0.36,-0.361 l -4.424,0 c -0.068,0 -0.36,0.159 -0.36,0.361 l 0,6.641 c 0,0.201 0.159,0.36 0.36,0.36 l 4.424,0 C -0.159,4.335 0,4.04 0,3.975 l 0,-2.747 -1.656,0 0,1.591 c 0,0 -0.159,0.36 -0.361,0.36 l -1.107,0 c -0.201,0 -0.361,-0.159 -0.361,-0.36 l 0,-4.336 c 0,-0.198 0.225,-0.36 0.361,-0.36 l 1.107,0 c 0.169,0 0.361,0.192 0.361,0.36 L -1.656,0 0,0 Z" /></g><g
           transform="translate(54.5758,60.0914)"
           id="g60"><path
             id="path62"
             style="fill:#ffffff;fill-opacity:1;fill-rule:nonzero;stroke:none"
             d="m 0,0 0.497,0 0,1.367 0.467,0 0,0.393 -1.428,0 0,-0.393 L 0,1.367 0,0 Z" /></g><g
           transform="translate(53.673,60.7766)"
           id="g64"><path
             id="path66"
             style="fill:#ffffff;fill-opacity:1;fill-rule:nonzero;stroke:none"
             d="m 0,0 -0.51,0 0,-0.045 c 0,-0.189 -0.062,-0.247 -0.256,-0.247 -0.241,0 -0.257,0.087 -0.257,0.35 l 0,0.289 c 0,0.264 0.016,0.335 0.257,0.335 0.181,0 0.256,-0.042 0.256,-0.218 l 0,-0.029 0.497,0 0,0.029 c 0,0.481 -0.182,0.64 -0.692,0.64 l -0.136,0 c -0.526,0 -0.692,-0.188 -0.692,-0.727 l 0,-0.364 c 0,-0.523 0.166,-0.74 0.692,-0.74 l 0.166,0 C -0.211,-0.727 0,-0.526 0,-0.058 L 0,0 Z" /></g><g
           transform="translate(46.8273,61.8515)"
           id="g68"><path
             id="path70"
             style="fill:#ffffff;fill-opacity:1;fill-rule:nonzero;stroke:none"
             d="M 0,0 -0.373,-1.267 -0.75,0 l -0.724,0 0,-1.76 0.484,0 0,1.309 0.376,-1.309 0.481,0 0.377,1.296 0,-1.296 0.464,0 0,1.76 L 0,0 Z" /></g><g
           transform="translate(50.8606,60.7604)"
           id="g72"><path
             id="path74"
             style="fill:#ffffff;fill-opacity:1;fill-rule:nonzero;stroke:none"
             d="m 0,0 -0.195,0 0.179,0.727 0.016,0 0.016,0 L 0.195,0 0,0 Z m 0.377,1.091 -0.377,0 -0.377,0 -0.526,-1.76 0.526,0 0.091,0.305 0.286,0 0.286,0 0.074,-0.305 0.527,0 -0.51,1.76 z" /></g><g
           transform="translate(49.2044,61.1696)"
           id="g76"><path
             id="path78"
             style="fill:#ffffff;fill-opacity:1;fill-rule:nonzero;stroke:none"
             d="m 0,0 c 0,-0.175 -0.042,-0.221 -0.195,-0.221 l -0.075,0 -0.269,0 0,0.51 0.269,0 0.046,0 C -0.058,0.289 0,0.247 0,0.101 L 0,0 Z m -0.179,0.682 -0.091,0 -0.766,0 0,-1.76 0.497,0 0,0.464 0.269,0 0.091,0 c 0.465,0 0.676,0.163 0.676,0.598 l 0,0.117 c 0,0.438 -0.211,0.581 -0.676,0.581" /></g><g
           transform="translate(44.2877,60.8351)"
           id="g80"><path
             id="path82"
             style="fill:#ffffff;fill-opacity:1;fill-rule:nonzero;stroke:none"
             d="m 0,0 c 0,-0.279 -0.016,-0.351 -0.273,-0.351 l -0.042,0 -0.049,0 c -0.253,0 -0.269,0.072 -0.269,0.351 l 0,0.289 c 0,0.263 0.016,0.335 0.269,0.335 l 0.049,0 0.042,0 C -0.016,0.624 0,0.552 0,0.289 L 0,0 Z m -0.198,1.046 -0.117,0 -0.123,0 c -0.526,0 -0.692,-0.189 -0.692,-0.728 l 0,-0.363 c 0,-0.523 0.166,-0.741 0.692,-0.741 l 0.123,0 0.117,0 c 0.526,0 0.708,0.218 0.708,0.741 l 0,0.363 c 0,0.539 -0.182,0.728 -0.708,0.728" /></g><g
           transform="translate(42.6608,60.7766)"
           id="g84"><path
             id="path86"
             style="fill:#ffffff;fill-opacity:1;fill-rule:nonzero;stroke:none"
             d="m 0,0 -0.51,0 0,-0.045 c 0,-0.189 -0.062,-0.247 -0.256,-0.247 -0.241,0 -0.257,0.087 -0.257,0.35 l 0,0.289 c 0,0.264 0.016,0.335 0.257,0.335 0.181,0 0.256,-0.042 0.256,-0.218 l 0,-0.029 0.497,0 0,0.029 c 0,0.481 -0.182,0.64 -0.695,0.64 l -0.133,0 c -0.526,0 -0.692,-0.188 -0.692,-0.727 l 0,-0.364 c 0,-0.523 0.166,-0.74 0.692,-0.74 l 0.166,0 C -0.211,-0.727 0,-0.526 0,-0.058 L 0,0 Z" /></g><g
           transform="translate(132.8392,99.4139)"
           id="g88"><path
             id="path90"
             style="fill:#ffffff;fill-opacity:1;fill-rule:nonzero;stroke:none"
             d="m 0,0 0.265,0 c 0.216,-0.395 0.73,-0.818 1.455,-0.818 0.379,0 0.784,0.114 0.784,0.392 0,0.204 -0.178,0.308 -0.584,0.36 L 1.368,0.003 C 0.39,0.125 0,0.458 0,0.811 c 0,0.534 0.665,0.79 1.433,0.79 0.346,0 0.66,-0.062 0.947,-0.19 l 0.292,0.169 0.232,0 0.071,-0.915 -0.271,0 c -0.2,0.371 -0.67,0.749 -1.341,0.749 -0.346,0 -0.746,-0.107 -0.746,-0.357 0,-0.149 0.124,-0.284 0.6,-0.346 L 1.888,0.62 C 2.78,0.499 3.153,0.232 3.153,-0.198 c 0,-0.422 -0.498,-0.807 -1.411,-0.807 -0.438,0 -0.823,0.08 -1.12,0.232 l -0.341,-0.215 -0.238,0 L 0,0 Z" /></g><g
           transform="translate(138.427,98.5786)"
           id="g92"><path
             id="path94"
             style="fill:#ffffff;fill-opacity:1;fill-rule:nonzero;stroke:none"
             d="M 0,0 C 0.649,0 0.968,0.381 0.968,1.133 0.968,1.885 0.649,2.267 0,2.267 -0.654,2.267 -0.973,1.885 -0.973,1.133 -0.973,0.381 -0.654,0 0,0 M 0,2.437 C 1.142,2.437 2.039,1.875 2.039,1.133 2.039,0.392 1.142,-0.17 0,-0.17 c -1.146,0 -2.044,0.562 -2.044,1.303 0,0.742 0.898,1.304 2.044,1.304" /></g><g
           transform="translate(140.7044,100.9632)"
           id="g96"><path
             id="path98"
             style="fill:#ffffff;fill-opacity:1;fill-rule:nonzero;stroke:none"
             d="m 0,0 1.395,0 2.093,-1.594 0,0.974 c 0,0.322 -0.092,0.419 -0.595,0.433 l 0,0.187 1.558,0 0,-0.187 C 3.948,-0.201 3.856,-0.298 3.856,-0.62 l 0,-1.917 -0.351,0 -2.531,1.951 -0.012,0 0,-1.296 c 0,-0.322 0.093,-0.419 0.596,-0.433 l 0,-0.187 -1.558,0 0,0.187 c 0.503,0.014 0.595,0.111 0.595,0.433 l 0,1.508 C 0.459,-0.25 0.249,-0.187 0,-0.187 L 0,0 Z" /></g><g
           transform="translate(145.1179,100.9632)"
           id="g100"><path
             id="path102"
             style="fill:#ffffff;fill-opacity:1;fill-rule:nonzero;stroke:none"
             d="m 0,0 1.936,0 0,-0.187 -0.119,0 c -0.227,0 -0.286,-0.021 -0.286,-0.08 0,-0.031 0.027,-0.066 0.102,-0.142 l 0.709,-0.735 0.519,0.603 c 0.076,0.09 0.103,0.135 0.103,0.174 0,0.145 -0.249,0.18 -0.514,0.18 l 0,0.187 1.585,0 0,-0.187 C 3.645,-0.222 3.483,-0.322 3.212,-0.617 L 2.498,-1.4 l 0,-0.742 c 0,-0.132 0.033,-0.173 0.325,-0.173 l 0.287,0 0,-0.187 -2.169,0 0,0.187 0.27,0 c 0.292,0 0.325,0.041 0.325,0.173 l 0,0.7 -1.039,1.064 C 0.34,-0.218 0.281,-0.187 0,-0.187 L 0,0 Z" /></g><g
           transform="translate(134.4756,74.9948)"
           id="g104"><path
             id="path106"
             style="fill:#ffffff;fill-opacity:1;fill-rule:nonzero;stroke:none"
             d="m 0,0 c -0.08,0.297 -0.297,0.411 -0.649,0.411 -0.498,0 -0.712,-0.36 -0.712,-0.771 0,-0.389 0.169,-0.781 0.729,-0.781 0.355,0 0.575,0.203 0.652,0.479 l 0.203,0 c -0.091,-0.336 -0.34,-0.619 -0.892,-0.619 -0.635,0 -0.887,0.423 -0.887,0.916 0,0.665 0.412,0.916 0.958,0.916 C -0.174,0.551 0.135,0.36 0.2,0 L 0,0 Z" /></g><g
           transform="translate(136.8105,74.6273)"
           id="g108"><path
             id="path110"
             style="fill:#ffffff;fill-opacity:1;fill-rule:nonzero;stroke:none"
             d="M 0,0 C 0,0.483 -0.295,0.778 -0.769,0.778 -1.298,0.778 -1.53,0.404 -1.53,0 c 0,-0.411 0.229,-0.773 0.767,-0.773 C -0.229,-0.773 0,-0.406 0,0 m -0.775,0.918 c 0.644,0 0.97,-0.408 0.97,-0.918 0,-0.5 -0.326,-0.914 -0.962,-0.914 -0.634,0 -0.957,0.414 -0.957,0.914 -0.003,0.507 0.334,0.918 0.949,0.918" /></g><g
           transform="translate(137.4691,73.7596)"
           id="g112"><path
             id="path114"
             style="fill:#ffffff;fill-opacity:1;fill-rule:nonzero;stroke:none"
             d="m 0,0 0,1.74 0.298,0 0.675,-1.534 0.005,0 0.663,1.534 0.295,0 0,-1.74 -0.194,0 0,1.552 -0.006,0 L 1.061,0 0.878,0 0.2,1.552 0.195,1.552 0.195,0 0,0 Z" /></g><g
           transform="translate(140.5788,74.6684)"
           id="g116"><path
             id="path118"
             style="fill:#ffffff;fill-opacity:1;fill-rule:nonzero;stroke:none"
             d="m 0,0 c 0.363,0 0.589,0.063 0.589,0.358 0,0.217 -0.166,0.333 -0.532,0.333 l -0.503,0 L -0.446,0 0,0 Z m -0.641,-0.909 0,1.74 0.752,0 c 0.535,0 0.673,-0.224 0.673,-0.485 0,-0.39 -0.409,-0.486 -0.79,-0.486 l -0.44,0 0,-0.769 -0.195,0 z" /></g><g
           transform="translate(141.7831,75.4998)"
           id="g120"><path
             id="path122"
             style="fill:#ffffff;fill-opacity:1;fill-rule:nonzero;stroke:none"
             d="m 0,0 0.195,0 0,-1.037 c 0,-0.43 0.183,-0.609 0.603,-0.609 0.444,0 0.603,0.198 0.603,0.609 l 0,1.037 0.195,0 0,-1.085 C 1.596,-1.537 1.33,-1.786 0.798,-1.786 0.26,-1.786 0,-1.53 0,-1.085 L 0,0 Z" /></g><g
           transform="translate(143.7461,75.4998)"
           id="g124"><path
             id="path126"
             style="fill:#ffffff;fill-opacity:1;fill-rule:nonzero;stroke:none"
             d="m 0,0 1.499,0 0,-0.14 -0.653,0 0,-1.6 -0.194,0 0,1.6 L 0,-0.14 0,0 Z" /></g><g
           transform="translate(145.609,73.7596)"
           id="g128"><path
             id="path130"
             style="fill:#ffffff;fill-opacity:1;fill-rule:nonzero;stroke:none"
             d="m 0,0 0,1.74 1.37,0 0,-0.14 -1.176,0 0,-0.628 1.061,0 0,-0.141 -1.061,0 0,-0.691 1.204,0 L 1.398,0 0,0 Z" /></g><g
           transform="translate(148.2407,74.6901)"
           id="g132"><path
             id="path134"
             style="fill:#ffffff;fill-opacity:1;fill-rule:nonzero;stroke:none"
             d="m 0,0 c 0.288,0 0.512,0.102 0.512,0.346 0,0.261 -0.24,0.324 -0.501,0.324 l -0.618,0 0,-0.67 L 0,0 Z m -0.607,-0.14 0,-0.79 -0.194,0 0,1.74 0.807,0 c 0.451,0 0.7,-0.136 0.7,-0.457 0,-0.22 -0.097,-0.336 -0.334,-0.425 0.243,-0.07 0.257,-0.288 0.263,-0.472 0.008,-0.263 0.034,-0.336 0.085,-0.37 l 0,-0.016 -0.214,0 C 0.426,-0.812 0.446,-0.486 0.415,-0.353 0.369,-0.164 0.2,-0.14 0.006,-0.14 l -0.613,0 z" /></g><g
           transform="translate(133.0092,72.126)"
           id="g136"><path
             id="path138"
             style="fill:#ffffff;fill-opacity:1;fill-rule:nonzero;stroke:none"
             d="m 0,0 0,1.241 0.951,0 0,-0.1 -0.816,0 0,-0.448 0.737,0 0,-0.1 -0.737,0 0,-0.493 0.836,0 0,-0.1 L 0,0 Z" /></g><g
           transform="translate(134.3575,73.208)"
           id="g140"><path
             id="path142"
             style="fill:#ffffff;fill-opacity:1;fill-rule:nonzero;stroke:none"
             d="m 0,0 -0.004,0 0,-1.082 -0.135,0 0,1.241 0.153,0 0.826,-1.084 0.004,0 0,1.084 0.135,0 0,-1.241 -0.157,0 L 0,0 Z" /></g><g
           transform="translate(135.5271,73.3665)"
           id="g144"><path
             id="path146"
             style="fill:#ffffff;fill-opacity:1;fill-rule:nonzero;stroke:none"
             d="m 0,0 1.04,0 0,-0.1 -0.452,0 0,-1.141 -0.135,0 0,1.141 L 0,-0.1 0,0 Z" /></g><g
           transform="translate(136.76,72.126)"
           id="g148"><path
             id="path150"
             style="fill:#ffffff;fill-opacity:1;fill-rule:nonzero;stroke:none"
             d="m 0,0 0,1.241 0.951,0 0,-0.1 -0.816,0 0,-0.448 0.737,0 0,-0.1 -0.737,0 0,-0.493 0.836,0 0,-0.1 L 0,0 Z" /></g><g
           transform="translate(138.5275,72.7894)"
           id="g152"><path
             id="path154"
             style="fill:#ffffff;fill-opacity:1;fill-rule:nonzero;stroke:none"
             d="m 0,0 c 0.201,0 0.355,0.072 0.355,0.246 0,0.186 -0.167,0.231 -0.347,0.231 l -0.429,0 L -0.421,0 0,0 Z m -0.421,-0.1 0,-0.563 -0.135,0 0,1.24 0.56,0 c 0.314,0 0.487,-0.096 0.487,-0.326 0,-0.156 -0.068,-0.239 -0.233,-0.303 0.169,-0.05 0.179,-0.205 0.183,-0.336 0.006,-0.188 0.024,-0.239 0.059,-0.263 l 0,-0.012 -0.149,0 C 0.296,-0.579 0.309,-0.346 0.288,-0.252 0.256,-0.117 0.139,-0.1 0.004,-0.1 l -0.425,0 z" /></g><g
           transform="translate(139.1687,73.3665)"
           id="g156"><path
             id="path158"
             style="fill:#ffffff;fill-opacity:1;fill-rule:nonzero;stroke:none"
             d="m 0,0 1.041,0 0,-0.1 -0.453,0 0,-1.141 -0.135,0 0,1.141 L 0,-0.1 0,0 Z" /></g><g
           transform="translate(140.6243,72.6153)"
           id="g160"><path
             id="path162"
             style="fill:#ffffff;fill-opacity:1;fill-rule:nonzero;stroke:none"
             d="M 0,0 0.56,0 0.28,0.651 0,0 Z m -0.353,-0.489 0.562,1.24 0.152,0 0.549,-1.24 -0.139,0 -0.165,0.389 -0.651,0 -0.169,-0.389 -0.139,0 z" /></g><path
           id="path164"
           style="fill:#ffffff;fill-opacity:1;fill-rule:nonzero;stroke:none"
           d="m 141.774,73.367 0.135,0 0,-1.241 -0.135,0 0,1.241 z" /><g
           transform="translate(142.4136,73.208)"
           id="g166"><path
             id="path168"
             style="fill:#ffffff;fill-opacity:1;fill-rule:nonzero;stroke:none"
             d="m 0,0 -0.004,0 0,-1.082 -0.135,0 0,1.241 0.153,0 0.826,-1.084 0.004,0 0,1.084 0.135,0 0,-1.241 -0.157,0 L 0,0 Z" /></g><g
           transform="translate(143.7063,72.126)"
           id="g170"><path
             id="path172"
             style="fill:#ffffff;fill-opacity:1;fill-rule:nonzero;stroke:none"
             d="m 0,0 0,1.241 0.206,0 0.469,-1.095 0.004,0 0.461,1.095 0.205,0 0,-1.241 -0.136,0 0,1.106 -0.004,0 L 0.737,0 0.61,0 0.139,1.106 0.135,1.106 0.135,0 0,0 Z" /></g><g
           transform="translate(145.366,72.126)"
           id="g174"><path
             id="path176"
             style="fill:#ffffff;fill-opacity:1;fill-rule:nonzero;stroke:none"
             d="m 0,0 0,1.241 0.952,0 0,-0.1 -0.817,0 0,-0.448 0.737,0 0,-0.1 -0.737,0 0,-0.493 0.836,0 0,-0.1 L 0,0 Z" /></g><g
           transform="translate(146.7143,73.208)"
           id="g178"><path
             id="path180"
             style="fill:#ffffff;fill-opacity:1;fill-rule:nonzero;stroke:none"
             d="m 0,0 -0.004,0 0,-1.082 -0.135,0 0,1.241 0.153,0 0.826,-1.084 0.004,0 0,1.084 0.135,0 0,-1.241 -0.157,0 L 0,0 Z" /></g><g
           transform="translate(147.8839,73.3665)"
           id="g182"><path
             id="path184"
             style="fill:#ffffff;fill-opacity:1;fill-rule:nonzero;stroke:none"
             d="m 0,0 1.041,0 0,-0.1 -0.453,0 0,-1.141 -0.135,0 0,1.141 L 0,-0.1 0,0 Z" /></g><g
           transform="translate(149.8203,72.6888)"
           id="g186"><path
             id="path188"
             style="fill:#ffffff;fill-opacity:1;fill-rule:nonzero;stroke:none"
             d="m 0,0 0.472,0 0,-0.045 -0.206,0 0,-0.518 -0.061,0 0,0.518 L 0,-0.045 0,0 Z" /></g><g
           transform="translate(150.439,72.126)"
           id="g190"><path
             id="path192"
             style="fill:#ffffff;fill-opacity:1;fill-rule:nonzero;stroke:none"
             d="m 0,0 0,0.502 0.002,0 L 0.215,0 l 0.058,0 0.213,0.502 0.002,0 0,-0.502 0.061,0 0,0.563 -0.093,0 -0.209,-0.497 -0.002,0 -0.212,0.497 -0.094,0 L -0.061,0 0,0 Z" /></g></g></g><g
       id="g194"><g
         id="g196"><g
           id="g202"><g
             id="g204"><path
               id="path214"
               style="fill:url(#linearGradient206);stroke:none"
               d="m 130.583,87.069 10.455,-10.456 10.368,10.368 -10.433,10.434 -10.39,-10.346 z" /></g></g></g></g><g
       id="g216"><g
         id="g218"><g
           id="g224"><g
             id="g226"><path
               id="path236"
               style="fill:url(#linearGradient228);stroke:none"
               d="m 137.444,90.527 5.228,-5.229 -0.033,10.402 -5.195,-5.173 z" /></g></g></g></g><g
       id="g238"><g
         id="g240"><g
           id="g246"><g
             id="g248"><path
               id="path258"
               style="fill:url(#linearGradient250);stroke:none"
               d="m 139.492,78.111 5.184,5.184 -5.216,5.216 0.032,-10.4 z" /></g></g></g></g><g
       id="g260"><g
         clip-path="url(#clipPath264)"
         id="g262"><path
           id="path268"
           style="fill:#58595b;fill-opacity:1;fill-rule:nonzero;stroke:none"
           d="m 44.975,77.766 -25.708,0 0,23.565 25.708,0 0,-23.565 z" /><g
           transform="translate(31.0647,89.4424)"
           id="g270"><path
             id="path272"
             style="fill:#00a99d;fill-opacity:1;fill-rule:evenodd;stroke:none"
             d="M 0,0 -3.008,0.902 -6.974,-0.52 -7.658,-0.793 -4.786,-1.696 0,0 Z" /></g><g
           transform="translate(35.9875,87.9657)"
           id="g274"><path
             id="path276"
             style="fill:#00a99d;fill-opacity:1;fill-rule:evenodd;stroke:none"
             d="M 0,0 -4.294,-1.505 -5.005,-1.723 -7.931,-0.821 -3.063,0.93 0,0 Z" /></g><g
           transform="translate(37.8473,87.4184)"
           id="g278"><path
             id="path280"
             style="fill:#00a99d;fill-opacity:1;fill-rule:evenodd;stroke:none"
             d="m 0,0 -5.005,-1.805 2.817,-0.93 4.622,1.641 0.547,0.246 L 0,0 Z" /></g><g
           transform="translate(35.6595,84.6837)"
           id="g282"><path
             id="path284"
             style="fill:#f2c102;fill-opacity:1;fill-rule:evenodd;stroke:none"
             d="M 0,0 -2.817,0.93 -5.634,-0.082 -2.762,-0.985 0,0 Z" /></g><g
           transform="translate(28.0564,87.145)"
           id="g286"><path
             id="path288"
             style="fill:#f2c102;fill-opacity:1;fill-rule:evenodd;stroke:none"
             d="m 0,0 2.926,-0.903 c -2.461,-0.82 -4.841,-0.902 -7.165,-0.273 -1.231,0.328 -1.915,0.766 -1.969,1.367 -0.028,0.411 0.519,0.876 1.558,1.313 L -1.778,0.602 -2.516,0.328 C -2.735,0.246 -2.926,0.137 -3.063,0.055 -3.2,-0.082 -3.145,-0.219 -2.926,-0.355 l 1.094,-0.137 1.148,0.219 L 0,0 Z" /></g><g
           transform="translate(29.5606,90.837)"
           id="g290"><path
             id="path292"
             style="fill:#326cb2;fill-opacity:1;fill-rule:evenodd;stroke:none"
             d="M 0,0 2.954,-0.848 1.504,-1.395 -1.504,-0.492 0,0 Z" /></g><g
           transform="translate(32.9246,88.8953)"
           id="g294"><path
             id="path296"
             style="fill:#326cb2;fill-opacity:1;fill-rule:evenodd;stroke:none"
             d="M 0,0 C 1.422,0.547 2.789,0.821 4.102,0.848 5.251,0.903 6.482,0.766 7.712,0.356 8.806,0 9.408,-0.41 9.435,-0.93 9.49,-1.477 8.998,-1.915 7.904,-2.325 l -2.981,0.848 1.012,0.383 c 0.41,0.137 0.601,0.274 0.547,0.438 C 6.427,-0.52 6.29,-0.41 5.989,-0.383 L 4.977,-0.328 4.212,-0.52 3.063,-0.93 0,0 Z" /></g><g
           transform="translate(29.5059,99.5617)"
           id="g298"><path
             id="path300"
             style="fill:#dc0029;fill-opacity:1;fill-rule:evenodd;stroke:none"
             d="m 0,0 0,-14.824 3.391,-1.039 0,12.39 c 0,0.328 0.028,0.546 0.164,0.683 0.137,0.192 0.274,0.219 0.465,0.137 C 4.485,-2.79 4.704,-3.2 4.704,-3.884 l 0,-4.977 c 1.039,-0.493 1.969,-0.547 2.653,-0.028 0.711,0.493 1.094,1.368 1.094,2.68 0,1.368 -0.274,2.407 -0.875,3.091 -0.547,0.739 -1.505,1.34 -2.927,1.832 C 2.79,-0.684 1.231,-0.246 0,0" /></g><g
           transform="translate(24.2867,82.6331)"
           id="g302"><path
             id="path304"
             style="fill:#ffffff;fill-opacity:1;fill-rule:evenodd;stroke:none"
             d="m 0,0 -0.698,0 -0.069,0 -0.341,0 0,-2.631 0.41,0 0,2.335 0.54,0 c 0.312,0 0.319,-0.413 0.319,-0.413 l 0,-0.255 C 0.143,-1.392 -0.06,-1.339 -0.06,-1.339 l -0.374,0 0,-0.291 0.416,0 c 0.599,0 0.6,0.634 0.6,0.634 l 0,0.414 C 0.582,0.007 0,0 0,0" /></g><path
           id="path306"
           style="fill:#ffffff;fill-opacity:1;fill-rule:nonzero;stroke:none"
           d="m 25.625,79.992 -0.415,0 0,2.641 0.415,0 0,-2.641 z" /><g
           transform="translate(26.2504,82.0468)"
           id="g308"><path
             id="path310"
             style="fill:#ffffff;fill-opacity:1;fill-rule:nonzero;stroke:none"
             d="m 0,0 0.753,0 c 0,0 0.616,0.056 0.616,-0.567 l 0,-1.484 -1.012,0 c 0,0 -0.627,0.006 -0.602,0.619 l 0,0.126 c 0,0 0.024,0.534 0.534,0.534 l 0.383,0 0,-0.229 -0.231,0 c 0,0 -0.238,-0.011 -0.238,-0.333 0,-0.322 0.115,-0.441 0.364,-0.441 l 0.389,0 0,1.169 c 0,0 0.021,0.34 -0.385,0.34 L 0,-0.266 0,0 Z" /></g><g
           transform="translate(33.3493,82.0468)"
           id="g312"><path
             id="path314"
             style="fill:#ffffff;fill-opacity:1;fill-rule:nonzero;stroke:none"
             d="m 0,0 0.753,0 c 0,0 0.616,0.056 0.616,-0.567 l 0,-1.484 -1.012,0 c 0,0 -0.626,0.006 -0.602,0.619 l 0,0.126 c 0,0 0.024,0.534 0.534,0.534 l 0.383,0 0,-0.229 -0.231,0 c 0,0 -0.238,-0.011 -0.238,-0.333 0,-0.322 0.116,-0.441 0.364,-0.441 l 0.389,0 0,1.169 c 0,0 0.021,0.34 -0.385,0.34 L 0,-0.266 0,0 Z" /></g><g
           transform="translate(27.8308,82.0607)"
           id="g316"><path
             id="path318"
             style="fill:#ffffff;fill-opacity:1;fill-rule:nonzero;stroke:none"
             d="M 0,0 0.483,0 1.024,-1.386 1.58,0 1.974,0 0.688,-3.019 0.331,-3.019 0.777,-1.99 0,0 Z" /></g><g
           transform="translate(30.1044,80.2403)"
           id="g320"><path
             id="path322"
             style="fill:#ffffff;fill-opacity:1;fill-rule:nonzero;stroke:none"
             d="m 0,0 0.693,0 c 0,0 0.322,-0.024 0.322,0.417 l 0,0.234 c 0,0 -0.024,0.272 -0.271,0.272 l -0.299,0 c 0,0 -0.564,-0.013 -0.547,0.642 l 0,0.248 c 0,0 0.028,0.56 0.638,0.56 l 0.724,0 0,-0.262 -0.633,0 c 0,0 -0.324,0.014 -0.324,-0.324 l 0,-0.152 c 0,0 0.021,-0.348 0.347,-0.348 l 0.327,0 c 0,0 0.437,0.001 0.437,-0.555 l 0,-0.427 c 0,0 -0.031,-0.559 -0.558,-0.559 L 0,-0.254 0,0 Z" /></g><g
           transform="translate(32.7123,79.9955)"
           id="g324"><path
             id="path326"
             style="fill:#ffffff;fill-opacity:1;fill-rule:nonzero;stroke:none"
             d="m 0,0 -0.462,0 c 0,0 -0.287,-0.035 -0.287,0.458 l 0,1.919 0.444,0 0,-0.326 0.417,0 0,-0.287 -0.417,0 -0.042,0 0,-1.201 c 0,0 -0.021,-0.315 0.28,-0.315 L 0,0.248 0,0 Z" /></g><g
           transform="translate(35.8839,79.9885)"
           id="g328"><path
             id="path330"
             style="fill:#ffffff;fill-opacity:1;fill-rule:nonzero;stroke:none"
             d="m 0,0 -0.462,0 c 0,0 -0.287,-0.035 -0.287,0.458 l 0,1.919 0.444,0 0,-0.326 0.417,0 0,-0.287 -0.417,0 -0.042,0 0,-1.201 c 0,0 -0.021,-0.314 0.28,-0.314 L 0,0.249 0,0 Z" /></g><path
           id="path332"
           style="fill:#ffffff;fill-opacity:1;fill-rule:nonzero;stroke:none"
           d="m 36.789,82.255 -0.41,0 0,0.415 0.41,0 0,-0.415 z" /><path
           id="path334"
           style="fill:#ffffff;fill-opacity:1;fill-rule:nonzero;stroke:none"
           d="m 36.789,80.018 -0.41,0 0,2.037 0.41,0 0,-2.037 z" /><g
           transform="translate(38.5542,80.6671)"
           id="g336"><path
             id="path338"
             style="fill:#ffffff;fill-opacity:1;fill-rule:nonzero;stroke:none"
             d="m 0,0 c 0,-0.235 -0.194,-0.426 -0.433,-0.426 -0.239,0 -0.433,0.191 -0.433,0.426 l 0,0.682 c 0,0.235 0.194,0.425 0.433,0.425 C -0.194,1.107 0,0.917 0,0.682 L 0,0 Z m -0.333,1.381 -0.2,0 c -0.441,0 -0.798,-0.358 -0.798,-0.799 l 0,-0.483 c 0,-0.44 0.357,-0.798 0.798,-0.798 l 0.2,0 c 0.44,0 0.798,0.358 0.798,0.798 l 0,0.483 c 0,0.441 -0.358,0.799 -0.798,0.799" /></g><g
           transform="translate(39.4822,82.0476)"
           id="g340"><path
             id="path342"
             style="fill:#ffffff;fill-opacity:1;fill-rule:nonzero;stroke:none"
             d="m 0,0 0.966,0 c 0,0 0.64,0.037 0.64,-0.639 l 0,-1.412 -0.425,0 0,1.381 c 0,0 0.042,0.365 -0.364,0.365 l -0.407,0 0,-1.725 L 0,-2.03 0,0 Z" /></g><g
           transform="translate(42.1507,80.0103)"
           id="g344"><path
             id="path346"
             style="fill:#ffffff;fill-opacity:1;fill-rule:nonzero;stroke:none"
             d="m 0,0 0,0.661 0.162,0 0.167,-0.528 0.162,0.528 0.159,0 0,-0.661 -0.101,0 0,0.555 L 0.379,0 0.279,0 0.101,0.563 0.101,0 0,0 Z m -0.4,0 0,0.563 -0.214,0 0,0.098 0.54,0 0,-0.098 -0.216,0 0,-0.563 -0.11,0 z" /></g><path
           id="path348"
           style="fill:#58595b;fill-opacity:1;fill-rule:nonzero;stroke:none"
           d="m 44.975,71.594 -25.708,0 0,4.172 25.708,0 0,-4.172 z" /><g
           transform="translate(29.0375,73.6387)"
           id="g350"><path
             id="path352"
             style="fill:#ffffff;fill-opacity:1;fill-rule:nonzero;stroke:none"
             d="m 0,0 c 0.095,-0.025 0.215,-0.035 0.36,-0.035 0.526,0 0.846,0.255 0.846,0.721 0,0.445 -0.315,0.661 -0.796,0.661 C 0.22,1.347 0.075,1.332 0,1.312 L 0,0 Z m -0.436,1.627 c 0.21,0.035 0.486,0.065 0.836,0.065 0.431,0 0.746,-0.1 0.946,-0.28 C 1.531,1.251 1.642,1.006 1.642,0.706 1.642,0.4 1.551,0.16 1.381,-0.015 1.151,-0.26 0.775,-0.385 0.35,-0.385 0.22,-0.385 0.1,-0.38 0,-0.355 l 0,-1.352 -0.436,0 0,3.334 z" /></g><g
           transform="translate(32.4936,73.3336)"
           id="g354"><path
             id="path356"
             style="fill:#ffffff;fill-opacity:1;fill-rule:nonzero;stroke:none"
             d="m 0,0 -0.331,0.971 c -0.075,0.22 -0.125,0.42 -0.175,0.615 l -0.01,0 c -0.05,-0.2 -0.105,-0.405 -0.17,-0.61 L -1.016,0 0,0 Z m -1.106,-0.34 -0.351,-1.061 -0.45,0 1.146,3.373 0.526,0 1.151,-3.373 -0.466,0 -0.36,1.061 -1.196,0 z" /></g><g
           transform="translate(33.9018,75.3057)"
           id="g358"><path
             id="path360"
             style="fill:#ffffff;fill-opacity:1;fill-rule:nonzero;stroke:none"
             d="m 0,0 0.436,0 0,-3.008 1.441,0 0,-0.366 L 0,-3.374 0,0 Z" /></g></g></g></g></svg>