<?xml version="1.0" encoding="UTF-8" standalone="no"?>
<svg
   xmlns:dc="http://purl.org/dc/elements/1.1/"
   xmlns:cc="http://creativecommons.org/ns#"
   xmlns:rdf="http://www.w3.org/1999/02/22-rdf-syntax-ns#"
   xmlns:svg="http://www.w3.org/2000/svg"
   xmlns="http://www.w3.org/2000/svg"
   viewBox="0 0 407.63501 293.07999"
   height="293.07999"
   width="407.63501"
   xml:space="preserve"
   version="1.1"
   id="svg2"><metadata
     id="metadata8"><rdf:RDF><cc:Work
         rdf:about=""><dc:format>image/svg+xml</dc:format><dc:type
           rdf:resource="http://purl.org/dc/dcmitype/StillImage" /><dc:title></dc:title></cc:Work></rdf:RDF></metadata><defs
     id="defs6"><clipPath
       id="clipPath16"
       clipPathUnits="userSpaceOnUse"><path
         id="path18"
         d="m 0,234.464 326.108,0 L 326.108,0 0,0 0,234.464 Z" /></clipPath></defs><g
     transform="matrix(1.25,0,0,-1.25,0,293.08)"
     id="g10"><g
       id="g12"><g
         clip-path="url(#clipPath16)"
         id="g14"><g
           transform="translate(217.8301,140.5262)"
           id="g20"><path
             id="path22"
             style="fill:#326cb2;fill-opacity:1;fill-rule:evenodd;stroke:none"
             d="m 0,0 c 3.052,-0.496 4.746,-0.777 7.086,-1.292 2.695,-0.58 5.353,-1.291 7.955,-2.199 3.154,-1.095 6.188,-2.443 8.836,-4.521 2.106,-1.666 3.744,-3.66 4.549,-6.318 0.72,-2.377 0.3,-4.567 -0.954,-6.627 -1.433,-2.367 -3.558,-4.053 -5.832,-5.541 -2.808,-1.815 -5.85,-3.116 -8.966,-4.268 -0.272,-0.083 -0.562,-0.112 -0.843,-0.187 -0.234,-0.084 -0.459,-0.019 -0.702,0.057 -2.733,0.823 -5.447,1.675 -8.19,2.527 -4.362,1.366 -8.723,2.724 -13.066,4.062 -2.518,0.767 -5.026,1.573 -7.544,2.339 -0.234,0.076 -0.524,0.104 -0.608,0.412 0.102,0.244 0.346,0.272 0.543,0.347 2.789,0.954 5.559,1.928 8.348,2.845 1.966,0.655 3.904,1.386 5.729,2.425 0.842,0.458 1.666,1.01 2.34,1.713 0.196,0.205 0.355,0.402 0.505,0.645 0.403,0.73 0.281,1.432 -0.365,1.984 -0.665,0.552 -1.46,0.824 -2.274,1.03 -1.367,0.318 -2.762,0.44 -4.165,0.496 -3.248,0.075 -6.449,-0.3 -9.632,-0.87 -1.076,-0.206 -2.115,-0.627 -3.136,-0.974 -4.351,-1.525 -8.732,-2.93 -13.093,-4.399 -0.319,-0.103 -0.627,-0.281 -0.983,-0.281 -1.555,0.374 -3.08,0.908 -4.615,1.395 -4.801,1.47 -9.612,2.967 -14.404,4.446 -2.996,0.926 -6.328,1.871 -9.323,2.779 -0.187,0.066 0.113,0.131 0,0.291 -0.009,0.038 -0.028,0.075 0,0.102 0.047,0.075 -0.065,0.066 0,0.094 2.939,0.992 6,2.004 8.967,2.911 4.371,1.319 8.77,2.518 13.244,3.473 2.536,0.543 2.414,0.543 7.628,1.404 C -27.751,1.151 -9.153,1.451 0,0" /></g><g
           transform="translate(92.8682,99.1375)"
           id="g24"><path
             id="path26"
             style="fill:#f2c102;fill-opacity:1;fill-rule:evenodd;stroke:none"
             d="m 0,0 c -4.979,0.243 -10.923,1.319 -16.37,2.143 -4.109,0.627 -8.237,1.292 -12.309,2.19 -3.677,0.814 -7.319,1.751 -10.726,3.397 -1.142,0.553 -2.208,1.208 -3.21,2.013 -2.06,1.685 -2.826,3.838 -2.546,6.468 0.44,4.324 2.705,7.6 5.906,10.305 2.424,2.041 5.157,3.547 8.087,4.726 0.655,0.253 1.264,0.6 1.993,0.684 0.684,0 1.301,-0.29 1.919,-0.487 4.708,-1.507 9.388,-2.976 14.077,-4.474 3.557,-1.132 7.105,-2.246 10.652,-3.388 0.243,-0.075 0.506,-0.122 0.683,-0.328 -0.038,-0.337 -0.346,-0.346 -0.581,-0.411 -1.656,-0.6 -3.303,-1.19 -4.969,-1.788 -1.152,-0.412 -2.359,-0.758 -3.408,-1.423 -0.421,-0.252 -0.813,-0.552 -1.16,-0.936 -1.254,-1.404 -0.982,-3.08 0.496,-4.371 1.564,-1.339 3.473,-1.947 5.504,-2.152 2.573,-0.281 4.97,0.364 7.366,1.207 2.237,0.795 4.474,1.507 6.72,2.265 2.153,0.692 4.287,1.432 6.421,2.162 0.234,0.075 0.478,0.196 0.749,0.177 1.722,-0.551 3.444,-1.104 5.186,-1.647 2.919,-0.936 6.382,-1.881 9.322,-2.808 0.243,-0.084 -0.159,-0.112 0,-0.346 0.027,-3.004 0.074,-6.018 0,-9.041 0.018,-0.037 0.055,-0.057 0,-0.047 0.093,-0.319 0.018,-0.393 0,-0.702 C 27.312,2.732 22.66,1.918 20.235,1.469 20.235,1.469 8.498,-0.281 0,0" /></g><g
           transform="translate(199.5791,118.9422)"
           id="g28"><path
             id="path30"
             style="fill:#00a99d;fill-opacity:1;fill-rule:evenodd;stroke:none"
             d="m 0,0 c 1.048,-0.486 2.199,-0.73 3.285,-1.076 4.708,-1.47 9.425,-2.911 14.133,-4.371 2.312,-0.711 4.605,-1.442 6.917,-2.172 1.909,-0.58 3.828,-1.17 5.747,-1.75 -0.805,-0.299 -1.619,-0.609 -2.424,-0.899 -2.321,-0.814 -4.661,-1.637 -6.982,-2.452 -3.781,-1.319 -7.554,-2.648 -11.335,-3.977 -3.445,-1.217 -6.861,-2.444 -10.286,-3.651 -3.951,-1.394 -7.901,-2.78 -11.85,-4.175 -1.217,-0.439 -2.425,-0.935 -3.687,-1.272 -0.375,-0.066 -0.703,0.094 -1.049,0.178 -3.071,0.992 -6.121,1.965 -9.182,2.93 -5.766,1.853 -12.074,3.668 -17.84,5.494 -0.243,0.084 0.141,0.121 0,0.365 0.009,0.552 0,1.085 0,1.609 0.094,0.235 -0.187,0.243 0,0.319 3.529,1.151 7.422,2.405 10.933,3.585 5.372,1.843 10.717,3.669 16.06,5.494 3.698,1.254 7.385,2.526 11.074,3.79 1.946,0.665 3.902,1.32 5.821,2.004 C -0.449,0.037 -0.216,0.234 0,0" /></g><g
           transform="translate(91.0147,122.3582)"
           id="g32"><path
             id="path34"
             style="fill:#00a99d;fill-opacity:1;fill-rule:evenodd;stroke:none"
             d="m 0,0 c -3.781,1.189 -7.553,2.406 -11.344,3.623 -5.326,1.693 -10.661,3.388 -15.977,5.082 5.41,1.816 10.82,3.65 16.23,5.467 8.442,2.845 16.894,5.699 25.317,8.535 1.639,0.553 3.258,1.104 4.915,1.639 0.215,0.065 0.449,0 0.673,-0.067 3.81,-1.188 8.032,-2.377 11.841,-3.51 0.43,-0.13 0.019,-0.336 0,-0.767 -0.01,-2.892 0.019,-5.756 0,-8.62 -0.047,-0.234 0.196,-0.309 0,-0.374 C 28.285,9.81 24.56,8.593 21.182,7.394 17.194,5.973 13.216,4.531 9.257,3.107 6.374,2.088 3.538,1.059 0.684,0.047 0.477,-0.027 0.253,-0.168 0,0" /></g><g
           transform="translate(155.0264,102.1141)"
           id="g36"><path
             id="path38"
             style="fill:#f2c102;fill-opacity:1;fill-rule:evenodd;stroke:none"
             d="m 0,0 c 9.388,-2.977 18.682,-5.972 28.07,-8.967 -1.357,-0.571 -2.799,-0.992 -4.212,-1.508 -2.949,-1.038 -5.906,-2.068 -8.873,-3.097 -3.894,-1.366 -7.806,-2.724 -11.7,-4.063 C 2.35,-17.971 0.917,-18.299 0,-18.636 l 0,0.197 c -0.112,0.14 0,0.29 0,0.468 0.009,5.962 0,11.914 0,17.867 L 0,0 Z" /></g><g
           transform="translate(122.67,133.6747)"
           id="g40"><path
             id="path42"
             style="fill:#326db2;fill-opacity:1;fill-rule:evenodd;stroke:none"
             d="m 0,0 c 0.019,2.92 0,5.803 0,8.724 0.019,0.29 0.337,0.43 0,0.551 -2.836,0.843 -5.99,1.733 -8.836,2.621 -1.227,0.384 -2.452,0.749 -3.679,1.133 2.135,0.748 4.296,1.497 6.468,2.228 2.031,0.72 4.006,1.403 6.047,2.105 0.056,0.047 0.019,0.019 0,-0.037 C 0.019,17.213 0,17.082 0,16.988 0.019,11.457 0,5.943 0,0.412 0,0.271 0.019,0.131 0,0 -0.02,-0.027 0.019,-0.027 0,0" /></g><g
           transform="translate(183.3487,124.0623)"
           id="g44"><path
             id="path46"
             style="fill:#00a99d;fill-opacity:1;fill-rule:evenodd;stroke:none"
             d="m 0,0 c -1.591,-0.58 -3.182,-1.142 -4.782,-1.694 -7.891,-2.705 -15.659,-5.391 -23.54,-8.106 -0.01,0.141 0,0.272 0,0.412 l 0,17.812 c 0,0.131 -0.01,0.243 0,0.355 3.585,-1.114 7.057,-2.217 10.641,-3.322 3.052,-0.955 6.113,-1.909 9.155,-2.854 C -5.672,1.722 -2.836,0.852 0,0" /></g><g
           transform="translate(108.1338,116.9861)"
           id="g48"><path
             id="path50"
             style="fill:#00a99d;fill-opacity:1;fill-rule:evenodd;stroke:none"
             d="m 0,0 c 1.778,0.599 3.538,1.227 5.335,1.816 3.107,1.067 6.094,2.087 9.201,3.117 0.019,-1.816 0,-3.641 0,-5.457 0.019,-1.395 0.019,-2.77 0,-4.147 -2.846,0.908 -5.56,1.798 -8.415,2.705 C 4.09,-1.319 2.031,-0.664 0,0" /></g><g
           transform="translate(122.67,112.2967)"
           id="g52"><path
             id="path54"
             style="fill:#dc0029;fill-opacity:1;fill-rule:evenodd;stroke:none"
             d="m 0,0 c -0.02,3.22 -0.02,6.44 0,9.65 -0.038,3.388 0.019,6.795 0,10.184 0,0.505 -0.038,1.02 0,1.517 0.027,5.503 -0.01,10.978 0,16.472 0.019,0.309 -0.141,0.617 0,0.899 0.027,0.224 0,0.449 0,0.673 0.019,27.359 0.131,54.727 0.131,82.086 0,0.187 -0.01,0.346 0.009,0.514 0.019,0.15 0.103,0.216 0.244,0.141 1.375,-0.374 2.723,-0.758 4.08,-1.123 3.866,-1.03 7.722,-2.059 11.588,-3.071 3.528,-0.945 7.076,-1.852 10.604,-2.789 4.155,-1.094 8.293,-2.209 12.448,-3.285 3.351,-0.87 6.684,-1.844 9.941,-2.976 5.682,-2.022 11.129,-4.53 16.117,-7.918 2.668,-1.817 5.167,-3.847 7.385,-6.206 2.34,-2.443 4.324,-5.148 5.953,-8.162 1.77,-3.285 2.948,-6.786 3.716,-10.445 0.318,-1.47 0.477,-2.967 0.665,-4.465 0.084,-0.215 -0.01,-0.439 0.084,-0.664 0,-0.253 0.009,-0.506 0.018,-0.777 0.103,-0.319 -0.018,-0.637 0.076,-0.974 l 0,-4.624 c -0.094,-0.421 0.027,-0.851 -0.076,-1.281 -0.009,-0.291 -0.018,-0.59 -0.018,-0.881 -0.113,-0.28 0.009,-0.589 -0.084,-0.86 -0.01,-0.216 -0.01,-0.459 -0.029,-0.675 -0.084,-0.205 0.019,-0.449 -0.056,-0.654 -0.019,-0.169 -0.028,-0.319 -0.037,-0.469 -0.094,-0.187 0,-0.374 -0.084,-0.57 0,-0.122 -0.01,-0.253 -0.01,-0.394 -0.112,-0.149 0,-0.355 -0.094,-0.524 -0.365,-2.49 -0.767,-4.97 -1.441,-7.413 -0.917,-3.266 -2.199,-6.383 -4.127,-9.201 -2.182,-3.181 -5.018,-5.615 -8.546,-7.187 -2.34,-1.021 -4.82,-1.545 -7.366,-1.798 -0.215,-0.075 -0.459,0.018 -0.664,-0.066 -0.375,-0.009 -0.712,-0.028 -1.077,-0.037 -0.683,-0.056 -1.376,-0.056 -2.059,0 -0.365,0.009 -0.73,0.028 -1.096,0.037 -0.28,0.084 -0.58,-0.028 -0.86,0.066 -0.151,0.01 -0.318,0.018 -0.469,0.018 -0.178,0.104 -0.374,0 -0.552,0.086 -1.329,0.074 -2.676,0.289 -3.968,0.561 -1.554,0.318 -3.126,0.608 -4.633,1.123 -0.262,0.074 -0.525,0.131 -0.796,0.196 -0.141,0.038 -0.206,0.122 -0.206,0.253 l 0,0.468 0,54.212 c 0,0.215 0.047,0.449 -0.037,0.655 -0.169,1.76 -1.189,2.948 -2.658,3.773 -0.974,0.533 -2.05,0.851 -3.164,0.935 -0.552,0.056 -1.085,0.056 -1.62,0 -1.796,-0.169 -3.378,-0.711 -4.389,-2.331 -0.252,-0.411 -0.421,-0.86 -0.411,-1.329 -0.104,-0.523 -0.039,-1.048 -0.047,-1.591 -0.029,-1.553 0.047,-3.144 -0.029,-4.726 -0.009,-1.956 -0.028,-3.931 -0.037,-5.897 l 0.037,-58.452 c 0.029,-0.057 -0.009,-0.121 0,-0.178 0.029,-0.206 0,-0.43 0,-0.627 l 0,-17.278 0,-0.665 c 0.029,-3.481 0.029,-6.973 0,-10.435 0.029,-0.562 0.029,-1.124 0,-1.704 0.029,-4.371 -0.009,-8.705 0,-13.066 l 0,-4.783 0,-0.59 0,-0.196 c -2.162,0.729 -5.063,1.45 -7.254,2.162 -2.377,0.786 -4.754,1.553 -7.141,2.321 -2.846,0.917 -5.682,1.834 -8.508,2.779 -2.762,0.89 -6.702,1.77 -9.453,2.668 L 0,-18.063 0,0 Z" /></g><g
           transform="translate(11.625,37.409)"
           id="g56"><path
             id="path58"
             style="fill:#ffffff;fill-opacity:1;fill-rule:nonzero;stroke:none"
             d="m 0,0 0,4.727 c 1.666,0 3.258,-0.028 4.867,0 4.147,0.056 5.906,1.451 6.327,5.541 0.272,2.79 0.282,5.654 -0.046,8.423 -0.421,3.764 -3.033,5.786 -6.777,5.813 -2.761,0.019 -5.522,0 -8.479,0 l 0,-43.214 -7.517,0 0,48.138 c 0.094,0.056 0.187,0.177 0.29,0.177 6.655,-0.084 13.301,-0.065 19.937,-0.281 1.788,-0.084 3.631,-0.729 5.307,-1.422 2.19,-0.871 3.696,-2.555 4.408,-4.848 C 19.853,18.158 20.059,13.197 18.86,8.181 17.691,3.352 14.704,0.459 9.753,0.038 6.543,-0.225 3.304,0 0,0" /></g><g
           transform="translate(263.3848,37.4754)"
           id="g60"><path
             id="path62"
             style="fill:#ffffff;fill-opacity:1;fill-rule:nonzero;stroke:none"
             d="m 0,0 c 0.364,-2.705 0.505,-5.43 1.132,-8.05 0.927,-3.875 3.444,-5.635 7.423,-5.69 4.296,-0.047 6.813,1.572 7.862,5.568 1.432,5.401 1.423,10.877 0.027,16.277 -0.992,3.809 -3.556,5.419 -7.842,5.326 C 4.398,13.347 1.965,11.681 1.095,7.908 0.505,5.344 0.355,2.667 0,0 m 25.421,-0.571 c -0.318,-2.64 -0.459,-5.738 -1.123,-8.696 -1.348,-6.008 -4.324,-8.779 -10.437,-9.34 -3.875,-0.337 -7.871,-0.198 -11.718,0.261 -4.67,0.58 -7.535,3.632 -8.667,8.116 -1.628,6.439 -1.591,12.935 -0.197,19.412 1.142,5.326 4.455,8.667 9.941,9.088 4.099,0.318 8.339,0.346 12.391,-0.234 5.579,-0.777 8.078,-4.932 8.967,-10.099 0.459,-2.677 0.543,-5.401 0.843,-8.508" /></g><g
           transform="translate(90.3594,0.0829)"
           id="g64"><path
             id="path66"
             style="fill:#ffffff;fill-opacity:1;fill-rule:nonzero;stroke:none"
             d="m 0,0 c 2.144,5.316 3.95,10.427 6.28,15.312 1.648,3.454 1.592,6.421 0.178,9.95 -3.762,9.5 -7.141,19.15 -10.67,28.734 -0.178,0.478 -0.299,0.965 -0.523,1.639 2.573,0 4.988,0.074 7.393,-0.067 0.468,-0.037 1.105,-0.841 1.321,-1.413 2.666,-7.141 5.306,-14.282 7.936,-21.433 0.159,-0.441 0.337,-0.862 0.618,-1.591 0.562,1.319 1.048,2.395 1.497,3.49 2.658,6.58 5.345,13.16 7.966,19.75 0.364,0.945 0.833,1.338 1.881,1.301 1.882,-0.084 3.781,-0.037 5.915,-0.037 C 28.529,52.48 27.368,49.531 26.161,46.621 20.151,31.738 14.115,16.875 8.144,1.993 7.544,0.496 6.842,-0.234 5.167,-0.057 3.566,0.121 1.937,0 0,0" /></g><g
           transform="translate(197.3418,42.1082)"
           id="g68"><path
             id="path70"
             style="fill:#ffffff;fill-opacity:1;fill-rule:nonzero;stroke:none"
             d="m 0,0 0,-4.83 c -1.114,0 -2.209,0.112 -3.276,-0.037 -1.404,-0.206 -2.836,-0.478 -4.165,-0.974 -1.367,-0.533 -2.2,-1.684 -2.237,-3.22 -0.056,-1.666 -0.216,-3.35 -0.028,-4.998 0.318,-2.957 1.61,-4.173 4.633,-4.287 3.117,-0.131 6.233,-0.037 9.612,-0.037 l 0,1.778 c 0,6.187 0,12.374 -0.009,18.57 0,4.297 -2.265,6.674 -6.59,6.777 -3.397,0.074 -6.803,0.009 -10.267,0.009 l 0,5.101 c 5.719,-0.309 11.372,-0.328 16.96,-1.03 4.661,-0.589 7.086,-3.416 7.263,-8.095 0.309,-7.807 0.225,-15.603 0.319,-23.418 0.009,-1.489 0,-2.967 0,-4.831 -2.818,0 -5.382,-0.055 -7.966,0.01 -4.604,0.141 -9.284,0 -13.824,0.617 -5.325,0.684 -7.385,3.005 -7.946,8.284 -0.282,2.593 -0.01,5.279 0.271,7.919 0.271,2.742 2.06,4.436 4.577,5.344 C -8.62,0.131 -4.399,0.047 0,0" /></g><g
           transform="translate(73.503,23.7254)"
           id="g72"><path
             id="path74"
             style="fill:#ffffff;fill-opacity:1;fill-rule:nonzero;stroke:none"
             d="m 0,0 0,10.576 c 0,3.295 0.027,6.6 0,9.885 -0.028,4.09 -2.275,6.505 -6.384,6.644 -2.807,0.094 -5.653,0.029 -8.489,0.029 l -2.003,0 0,4.671 c 0.3,0.047 0.684,0.14 1.067,0.14 4.801,-0.103 9.603,-0.075 14.376,-0.402 3.342,-0.225 6.431,-1.488 7.901,-4.802 0.72,-1.573 1.048,-3.454 1.085,-5.194 0.122,-8.621 0.056,-17.251 0.065,-25.861 0,-0.16 -0.074,-0.329 -0.186,-0.778 -2.238,0 -4.531,-0.047 -6.815,0.01 -4.847,0.121 -9.762,-0.075 -14.545,0.505 -5.419,0.665 -7.478,2.901 -8.105,8.331 -0.337,2.751 -0.01,5.634 0.365,8.404 0.402,2.92 2.574,4.606 5.26,5.12 3.828,0.73 7.741,1.03 11.803,1.536 l 0,-5.261 c -1.114,0 -2.275,0.169 -3.379,-0.047 -1.591,-0.309 -3.332,-0.617 -4.699,-1.432 -2.18,-1.31 -1.592,-3.781 -1.778,-5.849 -0.038,-0.562 0.103,-1.161 0.168,-1.713 0.356,-3.042 1.582,-4.344 4.661,-4.465 C -6.505,-0.102 -3.379,0 0,0" /></g><g
           transform="translate(125.6368,18.868)"
           id="g76"><path
             id="path78"
             style="fill:#ffffff;fill-opacity:1;fill-rule:nonzero;stroke:none"
             d="m 0,0 0,4.698 c 2.985,0 5.906,-0.055 8.845,0.019 1.488,0.038 3.023,0.14 4.455,0.496 2.723,0.665 4.493,2.415 4.699,5.307 0.168,2.171 0.262,4.39 0.009,6.533 -0.309,2.724 -1.61,3.791 -4.333,4.119 -1.264,0.14 -2.537,0.252 -3.801,0.346 -9.509,0.702 -10.997,4.736 -11.587,11.718 -0.206,2.518 0.402,5.176 0.992,7.666 1.03,4.38 4.175,6.692 8.49,6.963 4.885,0.3 9.808,0.075 14.873,0.075 l 0,-4.595 c -2.378,0 -4.737,0.028 -7.077,-0.019 -1.46,-0.028 -2.901,-0.094 -4.334,-0.3 C 8.779,42.681 7.02,41.37 6.562,38.824 6.271,37.13 6.027,35.38 6.131,33.676 6.309,30.84 7.844,29.445 10.67,29.165 c 2.462,-0.253 4.951,-0.412 7.413,-0.702 3.491,-0.421 5.784,-2.303 6.86,-5.729 C 26.572,17.465 26.946,12.186 25.196,6.889 23.773,2.63 20.684,0.262 16.305,0.056 10.951,-0.187 5.55,0 0,0" /></g><g
           transform="translate(326.0948,18.6805)"
           id="g80"><path
             id="path82"
             style="fill:#ffffff;fill-opacity:1;fill-rule:nonzero;stroke:none"
             d="m 0,0 -7.469,0 0,8.395 c 0,5.673 0.009,11.354 0,17.017 -0.028,4.249 -2.227,6.58 -6.431,6.738 -2.368,0.094 -4.745,0.029 -7.113,0.029 -0.233,0 -0.449,-0.047 -0.917,-0.113 l 0,-32.076 -7.468,0 0,36.766 c 0.008,0.028 0.102,0.159 0.186,0.159 6.823,-0.094 13.638,-0.019 20.442,-0.384 1.994,-0.103 4.072,-1.217 5.84,-2.302 1.985,-1.208 2.865,-3.407 2.893,-5.672 C 0.047,19.094 0,9.612 0,0" /></g><g
           transform="translate(218.2793,62.5223)"
           id="g84"><path
             id="path86"
             style="fill:#ffffff;fill-opacity:1;fill-rule:nonzero;stroke:none"
             d="m 0,0 7.591,0 0,-6.768 8.536,0 0,-4.792 -8.518,0 0,-1.825 c 0,-6.72 -0.018,-13.431 0.01,-20.133 0,-0.918 0.112,-1.853 0.328,-2.733 0.487,-1.937 1.348,-2.546 3.341,-2.546 l 3.061,0 0,-4.998 c -3.594,0.141 -7.216,-0.543 -10.754,0.525 -2.322,0.702 -3.548,2.526 -3.548,4.838 C -0.027,-25.665 0,-12.908 0,0" /></g><g
           transform="translate(159.5284,62.5594)"
           id="g88"><path
             id="path90"
             style="fill:#ffffff;fill-opacity:1;fill-rule:nonzero;stroke:none"
             d="m 0,0 7.6,0 0,-6.814 8.592,0 0,-4.821 -8.554,0 0,-2.087 0,-19.421 c 0.018,-0.861 0.018,-1.741 0.159,-2.584 0.439,-2.302 1.45,-3.126 3.8,-3.107 0.861,0.01 1.712,0.01 2.714,0.01 l 0,-4.989 c -3.623,0.122 -7.291,-0.599 -10.885,0.581 -2.069,0.673 -3.079,2.339 -3.332,4.445 C -0.01,-37.926 0,-37.056 0,-36.204 L 0,-2.209 0,0 Z" /></g><path
           id="path92"
           style="fill:#ffffff;fill-opacity:1;fill-rule:nonzero;stroke:none"
           d="m 44.281,18.699 -7.479,0 0,48.278 7.479,0 0,-48.278 z" /><path
           id="path94"
           style="fill:#ffffff;fill-opacity:1;fill-rule:nonzero;stroke:none"
           d="m 240.556,55.651 7.432,0 0,-36.952 -7.432,0 0,36.952 z" /><path
           id="path96"
           style="fill:#ffffff;fill-opacity:1;fill-rule:nonzero;stroke:none"
           d="m 240.537,66.931 7.45,0 0,-6.58 -7.45,0 0,6.58 z" /></g></g></g></svg>