<svg xmlns="http://www.w3.org/2000/svg" baseProfile="tiny" viewBox="0 0 647.3 342.9">
  <path fill="#282424" d="M327.7 0h65.8v343h-65.8zm65.8 335.2h30.4v7.8h-30.4z"/>
  <path fill="#312F2F" d="M24.7 0h10.1v1.9h287.4V0h10.1C354.7.9 357 20.4 357 20.4v286.8s.6 5.7-2.1 8.5c-5.2 5.4-23.2 23.3-27.2 27.3H26.1S4.8 322.4 2.6 321.4c-1.5-2-2.6-5.4-2.6-13.7V20.3S2.4 1 24.7 0z"/>
  <path fill="#3F3F3F" d="M327.9 342.3c-.1.3-.1.5-.2.6H28.1S19.9 204.8 69.9 198c9.2-1.1 20.8 1.3 46.9 7.6 26.2 6.2 95.9 6.2 122.1 0 26.2-6.2 37.6-7.6 46.9-7.6 17.3 0 28 16.9 34.5 39.2 11.7 40.1 9.6 97.6 7.6 105.1z"/>
  <path fill="#181515" d="M178.6 215.1c-35.4 0-42.4-1.7-48.5-2.5-6-.8-4.2 4.7-4.2 4.7s3.1 20.4 3.5 28.1 8.7 6.7 8.7 6.7h81s8.3 1.1 8.7-6.7c.4-7.8 3.5-28.1 3.5-28.1s1.8-5.5-4.2-4.7c-6.1.8-13.2 2.5-48.5 2.5z"/>
  <ellipse cx="178.6" cy="106" fill="#30302F" rx="152.1" ry="87.4"/>
  <ellipse cx="178.6" cy="105.8" fill="#181515" rx="150.5" ry="85.7"/>
  <ellipse cx="178.6" cy="103.8" fill="#2C2929" rx="123.7" ry="69.5"/>
  <path fill="#241C1E" d="M178.4 132.3l-7.6 8h15.5"/>
  <g fill="#EFF8FB">
    <path d="M202.3 239h-7.6v-1.8h5.2c-.4-1.1-.7-2.1-1-3-.8-2.3-1.5-4.7-2.3-7-.2-.6-.7-1.2-1.2-1.4-.8-.2-1.1.7-1.3 1.4-1.2 3.6-2.3 7.1-3.5 10.7-.3.8-.6 1.1-1.5 1.1-2.3-.1-4.7 0-7 0-2.4 0-3.9-1.6-3.9-4 0-2.2-.1-4.4 0-6.6.1-2.5 1.5-4 3.9-4h6.4v1.9h-5.4c-2.5 0-3.1.6-3.1 3.3v5c0 1.8.8 2.6 2.5 2.7h4.1v-5.8h-3.4v-1.8h5.4v7.6h.3c1.1-3.5 2.3-7 3.4-10.5.6-2 1.8-2.8 3.8-2.5 1.1.2 1.9.8 2.2 1.8 1.4 4.2 2.7 8.4 4.1 12.6 0 .1-.1.2-.1.3zm-47.5 0v-1.8h6c1.7 0 2.9-1.2 3-2.8.1-1.5-1.2-2.9-2.8-3-.7 0-1.3 0-2-.1-1-.1-1.8-1.1-1.8-2.2s.7-2.1 1.8-2.1c2.2-.1 4.3 0 6.6 0v1.8h-6.4v.6c.6 0 1.2.1 1.8.1 2.3.1 3.9 1.4 4.5 3.7.7 2.8-1.3 5.7-4 5.8-2.2.1-4.3 0-6.7 0z"/>
    <path d="M154.8 236.5v-1.9h6.4v-.5c-.7 0-1.3-.1-2-.1-1.8 0-3.2-.9-4-2.6-.8-1.7-.7-3.4.4-5 .7-1.1 1.8-1.8 3-1.9 2.2-.1 4.5 0 6.8 0v1.8h-6.1c-2 0-3.3 1.9-2.7 3.8.4 1.1 1.4 1.9 2.7 2 .6 0 1.3 0 1.9.1 1 .1 1.8 1.1 1.8 2.1 0 1.1-.8 2.1-1.7 2.2h-6.5zm22.5-12v1.8h-6c-2.1 0-2.8.7-2.8 2.9v5.2c0 2 .8 2.8 2.7 2.8h6v1.9H170c-1.7-.1-3.2-1.7-3.3-3.5-.1-2.5-.1-5.1 0-7.6 0-1.6 1.4-3.3 3-3.4 2.5-.2 5-.1 7.6-.1zm13.6 14.4c1.3-4 2.5-7.9 3.8-11.7.1-.3.4-.6.6-.7.1-.1.5.3.6.5 1 3.1 2.1 6.2 3.1 9.4h-4.3c0-.5-.1-.9-.1-1.3-.1 0-.1 0-.2-.1-.2.7-.5 1.4-.7 2.2-.7 2-.7 2-2.8 1.7zm3.7-4.5h1.5c-.2-.7-.4-1.4-.6-2h-.3c-.1.6-.3 1.2-.6 2zm-10.1-.2c-.6-.2-.9-.3-1.3-.4v-1.6h2.8v4.3c-1.4 0-2.9.1-4.3-.1-.4 0-.9-.7-1-1.2-.1-2.3-.1-4.6 0-6.9 0-.8.5-1.3 1.3-1.3h6.5v1.8h-4.8c-1 0-1.3.3-1.3 1.3.1 1.1 0 2.2 0 3.2.1 1.4.7 1.7 2.1.9z"/>
    <path d="M171.1 234.5c2 .4 4 0 6.1.2v1.7c-2.4 0-4.7.1-7-.1-.4 0-.9-.8-1-1.3-.2-.9 0-1.9 0-3h6.6v1.7h-4.6c0 .4-.1.6-.1.8zm6.2-7.5v1.7c-2 .3-4.1-.2-6.1.3v.5h4.6v1.8h-6.5c0-1.1-.1-2.2 0-3.3.1-.4.7-1 1-1h7z"/>
  </g>
  <path fill="#241C1E" d="M152.6 144.9l-1.3.1c0-.9-.3-1.4-.9-1.4-.7 0-1 .7-1 2.1 0 .8.1 1.4.3 1.6.2.3.4.4.8.4.5 0 .8-.4 1-1.2l1.2.1c-.1.8-.3 1.4-.7 1.8-.4.4-.9.6-1.5.6-.7 0-1.3-.3-1.8-.9-.4-.6-.7-1.4-.7-2.4s.2-1.8.7-2.4c.4-.6 1-.9 1.8-.9 1.2 0 1.9.8 2.1 2.5zm2.9-2.4l1.7 6.4h-1.4l-.3-1.3h-1.8l-.3 1.3h-1.1l1.7-6.4h1.5zm-1.4 3.9h1.2l-.6-2.3-.6 2.3zm4.7 0v2.5h-1.3v-6.4h2.4c.4 0 .8.1 1.1.2.3.1.5.3.7.7.2.3.3.7.3 1.1 0 .8-.3 1.3-.9 1.7l1 2.8h-1.4l-.8-2.5h-1.1zm0-2.7v1.6h.8c.3 0 .4 0 .6-.1.1 0 .2-.1.3-.3.1-.1.1-.3.1-.5s0-.3-.1-.5-.2-.2-.3-.3h-1.4zm7.3-1.2v1.3h-1.3v5.2h-1.3v-5.2h-1.4v-1.3h4zm1.7 3.9v2.5h-1.3v-6.4h2.4c.4 0 .8.1 1.1.2.3.1.5.3.7.7.2.3.3.7.3 1.1 0 .8-.3 1.3-.9 1.7l1 2.8h-1.4l-.8-2.5h-1.1zm0-2.7v1.6h.8c.3 0 .4 0 .6-.1.1 0 .2-.1.3-.3.1-.1.1-.3.1-.5s0-.3-.1-.5l-.3-.3h-1.4zm4.7-1.2v6.4h-1.3v-6.4h1.3zm.4 0h1.7c.7 0 1.2.1 1.5.3.3.2.6.6.9 1.1.3.5.4 1.1.4 1.8 0 .9-.2 1.7-.7 2.3-.5.6-1.1.9-1.9.9h-1.9v-6.4zm1.3 1.2v4h.5c.5 0 .8-.2 1-.6.2-.4.3-.9.3-1.4 0-.4-.1-.7-.2-1.1-.1-.3-.3-.6-.5-.7-.2-.1-.4-.2-.7-.2h-.4zm7.9 1.8s0 2-.7 2.8c-.7.7-.9.8-1.5.8-.7 0-1.3-.3-1.7-.9-.4-.6-.6-1.4-.6-2.3 0-1 .2-1.8.6-2.5.4-.6 1-.9 1.7-.9.6 0 1.1.2 1.5.6.4.4.6.9.7 1.6l-1.2.2c-.1-.8-.4-1.2-.9-1.2-.3 0-.6.2-.8.6-.2.4-.3.9-.3 1.6 0 .7.1 1.2.3 1.5.2.3.5.5.8.5.2 0 .4-.1.6-.3.2-.2.3-.5.3-.8h-1v-1.2h2.2zm4.2-1.8h-2.6v1.3h2v1.2h-2v1.4h2.6v1.3h-3.9v-6.4h3.9v1.2zm5-1.2v6.4H190v-6.4h1.3zm4.5 0v6.4h-1.1l-2.1-4.3v4.3h-1v-6.4h1.4l1.8 3.8v-3.8h1zm1.5 4.1v2.4H196v-6.4h2.1c.5 0 .8.1 1.1.2.3.1.5.3.7.6.2.3.3.7.3 1.1 0 .3-.1.6-.2.9-.1.3-.3.5-.4.7-.2.2-.4.3-.6.3-.2.1-.5.1-.9.1h-.8zm0-1.2h.8c.3 0 .5-.1.7-.3s.2-.4.2-.6c0-.3-.1-.5-.2-.6-.1-.2-.4-.2-.6-.2h-.8v1.7zm7.5-2.9v4c0 .6-.1 1.1-.2 1.4-.1.3-.4.6-.7.8-.3.2-.8.3-1.3.3s-.9-.1-1.2-.3-.5-.4-.7-.8-.2-.8-.2-1.5v-4h1.4v4c0 .3 0 .6.1.8 0 .2.1.3.3.4s.3.1.5.1.4 0 .6-.1.2-.2.3-.4c0-.2.1-.4.1-.8v-4h1zm4.3 0v1.3h-1.3v5.2h-1.3v-5.2h-1.4v-1.3h4z"/>
  <path fill="#181515" d="M272.3 122.3H84.8c-10.3 0-18.8-8.5-18.8-18.8V101c0-10.3 8.5-18.8 18.8-18.8h187.4c10.3 0 18.8 8.5 18.8 18.8v2.5c.1 10.3-8.4 18.8-18.7 18.8z"/>
  <path d="M178.2 117.8H267c5.9 0 10.8-4.6 10.8-20.3H267v-8.1h.4H89.8h.4v8.1H79.4c0 15.6 4.8 20.3 10.8 20.3H179"/>
  <path fill="#282424" d="M178.2 116.7h87.9c5.9 0 10.7-4.3 10.7-18.8h-10.7v-7.5h.4H90.6h.4V98H80.3c0 14.5 4.8 18.8 10.7 18.8h87.9"/>
  <path fill="#010102" d="M80.9 104.9h195.4v1H80.9z"/>
  <path fill="#363636" d="M103.7 93.3h-1.9c0-.4.4-.8.9-.8s1 .4 1 .8z"/>
  <path fill="#464646" d="M103.7 101.8h-1.9c0 .4.4.8.9.8s1-.3 1-.8z"/>
  <path fill="#424141" d="M101.8 93.3h1.9v8.6h-1.9z"/>
  <path fill="#363636" d="M103.7 108.2h-1.9c0-.3.4-.6.9-.6s1 .2 1 .6z"/>
  <path fill="#464646" d="M103.7 115.1h-1.9c0 .3.4.6.9.6s1-.3 1-.6z"/>
  <path fill="#424141" d="M101.8 108.2h1.9v6.9h-1.9z"/>
  <path fill="#363636" d="M253.4 93.3h1.9c0-.4-.4-.8-.9-.8s-1 .4-1 .8z"/>
  <path fill="#464646" d="M253.4 101.8h1.9c0 .4-.4.8-.9.8s-1-.3-1-.8z"/>
  <path fill="#424141" d="M253.4 93.3h1.9v8.6h-1.9z"/>
  <path fill="#363636" d="M253.4 108.2h1.9c0-.3-.4-.6-.9-.6s-1 .2-1 .6z"/>
  <path fill="#464646" d="M253.4 115.1h1.9c0 .3-.4.6-.9.6s-1-.3-1-.6z"/>
  <path fill="#424141" d="M253.4 108.2h1.9v6.9h-1.9z"/>
  <path fill="#181515" d="M43.5 220.3c6.2-12.2 16-18.4 27.5-20 9.2-1.1 22.7 3.9 48.9 10.1 13.1 3.1 33.9 4.7 58 4.6 24.1 0 44.9-1.5 58-4.6 26.2-6.2 39.6-11.2 48.9-10.1 11.5 1.6 22.5 7.4 28.6 19.6-6.5-13.2-15.5-21.9-28-21.9-9.3 0-20.8 1.3-46.9 7.6-13 3.1-36.8 4.7-60.6 4.7-24.1 0-48.3-1.5-61.4-4.7-26.2-6.2-37.7-8.7-46.9-7.6-11.5 1.6-19.9 10.1-26.1 22.3z"/>
  <path fill="#3F4040" d="M286.3 277.2c0 13.2-15.2 15.5-15.2 15.5h-185c-2.7 0-15.2-2.2-15.2-15.5 0-13.2 15.2-15.5 15.2-15.5h185s15.2 2.3 15.2 15.5z"/>
  <path fill="#333" d="M274 289.1H83.4c-4.8 0-8.8-3.9-8.8-8.8v-6.1c0-4.8 3.9-8.8 8.8-8.8H274c4.8 0 8.8 3.9 8.8 8.8v6.1c0 4.9-3.9 8.8-8.8 8.8z"/>
  <path fill="#631418" d="M174.3 284h-2.6c-.3 0-.6-.3-.6-.6v-11.5c0-.3.3-.6.6-.6h2.6c.3 0 .6.3.6.6v11.5c0 .3-.3.6-.6.6zm5.5 0h-2.6c-.3 0-.6-.3-.6-.6v-11.5c0-.3.3-.6.6-.6h2.6c.3 0 .6.3.6.6v11.5c.1.3-.2.6-.6.6zm5.6 0h-2.6c-.3 0-.6-.3-.6-.6v-11.5c0-.3.3-.6.6-.6h2.6c.3 0 .6.3.6.6v11.5c0 .3-.3.6-.6.6z"/>
  <path fill="#212020" d="M271.8 285.4h-35.7c-3.4 0-6.1-2.7-6.1-6.1V275c0-3.4 2.7-6.1 6.1-6.1h35.7c3.4 0 6.1 2.7 6.1 6.1v4.3c0 3.4-2.8 6.1-6.1 6.1zm-150.1 0H86c-3.4 0-6.1-2.7-6.1-6.1V275c0-3.4 2.7-6.1 6.1-6.1h35.7c3.4 0 6.1 2.7 6.1 6.1v4.3c0 3.4-2.7 6.1-6.1 6.1z"/>
  <path fill="#5C5C5C" d="M116.3 280.6H92c-1 0-1.8-.8-1.8-1.8v-3.2c0-1 .8-1.8 1.8-1.8h24.3c1 0 1.8.8 1.8 1.8v3.2c0 1-.8 1.8-1.8 1.8z"/>
  <path fill="#241C1E" d="M93.9 275.3h1.9c.1 0 .3 0 .4.1.1 0 .2.1.3.1.1.1.2.1.2.2.1.1.1.2.2.3 0 .1.1.3.1.4 0 .4-.1.7-.4.9-.3.2-.6.3-1.1.3h-.8v1.5H94v-3.8zm.7 1.8h1.1l.2-.1c.1 0 .1-.1.1-.2v-.2c0-.1 0-.2-.1-.3 0-.1-.1-.1-.2-.2-.1 0-.2-.1-.2-.1h-1.1v1.1zm4.8-1.9c.3 0 .5 0 .8.1s.4.2.6.4c.2.2.3.4.4.6.1.3.1.5.1.8 0 .3 0 .6-.1.8-.1.3-.2.5-.4.6-.2.2-.4.3-.6.4s-.5.1-.8.1c-.3 0-.5 0-.8-.1-.2-.1-.4-.2-.6-.4-.2-.2-.3-.4-.4-.6-.1-.3-.1-.5-.1-.8 0-.3 0-.6.1-.8.1-.3.2-.5.4-.6.2-.2.4-.3.6-.4.3 0 .6-.1.8-.1zm0 3.5c.2 0 .3 0 .5-.1.1-.1.3-.2.4-.3.1-.1.2-.3.2-.4.1-.2.1-.4.1-.6 0-.2 0-.4-.1-.6-.1-.2-.1-.3-.2-.4-.1-.1-.2-.2-.4-.3-.1-.1-.3-.1-.5-.1s-.3 0-.5.1c-.1.1-.3.2-.4.3-.1.1-.2.3-.2.4-.1.2-.1.4-.1.6 0 .2 0 .4.1.6.1.2.1.3.2.4.1.1.2.2.4.3.2 0 .4.1.5.1zm7.5-3.4l-1.1 4h-.7l-.8-2.9-.8 2.9h-.7l-1.1-4h.8l.7 2.7.7-2.7h.8l.7 2.7.7-2.7h.8zm3.6 4h-3v-4h2.9v.7h-2.2v.9h2.1v.7h-2.1v1h2.3v.7zm4.2 0h-.8l-.4-1.1c0-.1-.1-.1-.1-.2s-.1-.1-.2-.2c-.1 0-.1-.1-.2-.1h-1v1.6h-.7v-4h2.4c.1 0 .2 0 .3.1.1 0 .2.1.2.1l.2.2c0 .1.1.1.1.2s.1.2.1.2v.2c0 .2-.1.4-.2.6s-.3.3-.5.4c.2.1.3.3.4.6l.4 1.4zM112 277h1.3c.1 0 .2 0 .2-.1.1 0 .1-.1.1-.2v-.2c0-.2-.1-.3-.2-.4-.1-.1-.3-.1-.5-.1h-.9v1z"/>
  <path fill="#5C5C5C" d="M266.1 280.6h-24.3c-1 0-1.8-.8-1.8-1.8v-3.2c0-1 .8-1.8 1.8-1.8h24.3c1 0 1.8.8 1.8 1.8v3.2c0 1-.8 1.8-1.8 1.8z"/>
  <path fill="#241C1E" d="M248.3 279.3h-.8l-.4-1.1c0-.1-.1-.1-.1-.2s-.1-.1-.2-.2c-.1 0-.1-.1-.2-.1h-1v1.6h-.7v-4h2.4c.1 0 .2 0 .3.1.1 0 .2.1.2.1l.2.2c0 .1.1.1.1.2s.1.2.1.2v.2c0 .2-.1.4-.2.6-.1.2-.3.3-.5.4.2.1.3.3.4.6l.4 1.4zm-2.7-2.3h1.3c.1 0 .2 0 .2-.1.1 0 .1-.1.1-.2v-.2c0-.2-.1-.3-.2-.4-.1-.1-.3-.1-.5-.1h-1.1v1zm6.4 2.3h-3v-4h2.9v.7h-2.2v.9h2.1v.7h-2.1v1h2.3v.7zm2.3 0c-.3 0-.5 0-.7-.1-.2-.1-.4-.2-.5-.3-.1-.1-.3-.3-.3-.5-.1-.2-.1-.4-.1-.6h.7c0 .1 0 .3.1.4.1.1.1.2.2.3.1.1.2.1.3.1h.7c.1 0 .2-.1.3-.1.1 0 .1-.1.2-.2 0-.1.1-.1.1-.2s0-.2-.1-.2c0-.1-.1-.1-.2-.2-.1 0-.2-.1-.3-.1-.1 0-.3-.1-.5-.1-.2-.1-.4-.1-.6-.2-.2-.1-.3-.1-.4-.2-.1-.1-.2-.2-.2-.3-.1-.1-.1-.3-.1-.4 0-.2 0-.3.1-.5.1-.1.2-.3.3-.4.1-.1.3-.2.5-.2.2-.1.4-.1.6-.1.2 0 .4 0 .6.1.2.1.3.1.5.3s.2.3.3.4c.1.2.1.4.1.6h-.9c-.1-.4-.3-.7-.8-.7-.2 0-.4 0-.5.1-.1.1-.2.2-.2.3v.1l.1.1c.1 0 .1.1.2.1s.2.1.3.1c.1 0 .2.1.4.1.1 0 .2.1.4.1.1 0 .2.1.3.2.1.1.2.1.3.2.1.1.1.2.2.3 0 .1.1.3.1.4 0 .2 0 .3-.1.5s-.2.3-.3.4c-.1.1-.3.2-.5.3-.2.1-.4.1-.6.1zm5.3 0h-3v-4h2.9v.7h-2.2v.9h2.1v.7h-2.1v1h2.3v.7zm3.7-3.3h-1.2v3.3h-.7V276h-1.2v-.7h3.2v.7z"/>
  <path fill="#F95D5D" d="M184.7 282.8h-1.2c-.3 0-.6-.3-.6-.6v-9.1c0-.3.3-.6.6-.6h1.2c.3 0 .6.3.6.6v9.1c0 .3-.3.6-.6.6zm-5.5 0H178c-.3 0-.6-.3-.6-.6v-9.1c0-.3.3-.6.6-.6h1.2c.3 0 .6.3.6.6v9.1c0 .3-.3.6-.6.6zm-5.6 0h-1.2c-.3 0-.6-.3-.6-.6v-9.1c0-.3.3-.6.6-.6h1.2c.3 0 .6.3.6.6v9.1c0 .3-.3.6-.6.6z"/>
  <g fill="#EFF8FB">
    <path d="M235.9 73.1H121.2l-8.4-4.9v-11l7.9-4.6h115.7l8 4.7v11l-8.5 4.8zm-114.4-1h114.2l7.6-4.5v-9.8l-7.2-4.2H121l-7.2 4.2v9.8l7.7 4.5z"/>
    <path d="M198.1 61.4h11.7v4.7l-4.2 2.8h-12.9L197 66h7.6v-1.7h-11.7v-4.6l4.3-3h12.9l-4.3 2.9h-7.7m13.3-2.9h5.3v12.2h-5.3m12.5-7.5h11.7v4.7l-4.2 2.8h-12.8l4.2-2.9h7.6v-1.7h-11.7v-4.6l4.3-3h12.9l-4.3 2.9h-7.7"/>
    <path d="M181.5 66v-1.7h5l4.3-2.9h-9.3v-1.8h7.6l4.2-2.9h-12.5l-4.5 2.9v9.3H189l4.3-2.9m-48.5 0v-1.7h5l4.3-2.9h-9.3v-1.8h7.6l4.2-2.9h-12.4l-4.6 2.9v9.3h12.7l4.3-2.9m13-1.1l-6.5-4.1v8.1h-5.3V56.7h5.3l6.5 3.6v-3.6h5.2v12.2h-5.2m-43.1-9.3V66h6.5v-1.7h-5.3l4.2-2.9h6.3v4.8l-4 2.7h-13v-9.2l4.4-3h14.2l-4.2 2.9"/>
  </g>
  <path fill="#444546" d="M322.2 1.9v12s-.1 1.5-2.1 1.5H37c-2 0-2.1-1.5-2.1-1.5v-12l143.7.1 143.6-.1z"/>
  <path fill="#282424" d="M36.1 0h2.6v13.7h-2.6zm4 0h2.6v13.7h-2.6zm4 0h2.6v13.7h-2.6zm4 0h2.6v13.7h-2.6zm4 0h2.6v13.7h-2.6zm4 0h2.6v13.7h-2.6zm4.1 0h2.6v13.7h-2.6zm4 0h2.6v13.7h-2.6zm4.1 0h2.6v13.7h-2.6zm4 0h2.6v13.7h-2.6zm4.1 0H79v13.7h-2.6zm4 0H83v13.7h-2.6zm3.9 0h2.6v13.7h-2.6zm4 0h2.6v13.7h-2.6zm4.1 0H95v13.7h-2.6zm4 0H99v13.7h-2.6zm4.1 0h2.6v13.7h-2.6zm4 0h2.6v13.7h-2.6zm4 0h2.6v13.7h-2.6zm4 0h2.6v13.7h-2.6zm4 0h2.6v13.7h-2.6zm4 0h2.6v13.7h-2.6zm4.1 0h2.6v13.7h-2.6zm4 0h2.6v13.7h-2.6zm4 0h2.6v13.7h-2.6zm4 0h2.6v13.7h-2.6zm4.1 0h2.6v13.7h-2.6zm4 0h2.6v13.7h-2.6zm3.9 0h2.6v13.7h-2.6zm4.1 0h2.6v13.7h-2.6zm4 0h2.6v13.7h-2.6zm4 0h2.6v13.7h-2.6zm4.3 0h2.6v13.7H165zm4.1 0h2.6v13.7h-2.6zm4 0h2.6v13.7h-2.6zm3.9 0h2.6v13.7H177zm4 0h2.6v13.7H181zm4.1 0h2.6v13.7h-2.6zm4 0h2.6v13.7h-2.6zm4.1 0h2.6v13.7h-2.6zm4 0h2.6v13.7h-2.6zm4.1 0h2.6v13.7h-2.6zm4 0h2.6v13.7h-2.6zm3.9 0h2.6v13.7h-2.6zm4 0h2.6v13.7h-2.6zm4.1 0h2.6v13.7h-2.6zm4 0h2.6v13.7h-2.6zm4.4 0h2.6v13.7h-2.6zm4.1 0h2.6v13.7h-2.6zm4 0h2.6v13.7h-2.6zm3.9 0h2.6v13.7h-2.6zm4 0h2.6v13.7h-2.6zm4.1 0h2.6v13.7h-2.6zm4 0h2.6v13.7h-2.6zm4.1 0h2.6v13.7h-2.6zm4 0h2.6v13.7h-2.6zm4.1 0h2.6v13.7H262zm4 0h2.6v13.7H266zm3.9 0h2.6v13.7h-2.6zm4 0h2.6v13.7h-2.6zm4.1 0h2.6v13.7H278zm4 0h2.6v13.7H282zm4.2 0h2.6v13.7h-2.6zm4.1 0h2.6v13.7h-2.6zm4 0h2.6v13.7h-2.6zm3.9 0h2.6v13.7h-2.6zm4 0h2.6v13.7h-2.6zm4.1 0h2.6v13.7h-2.6zm4 0h2.6v13.7h-2.6zm4.1 0h2.6v13.7h-2.6zm4 0h2.6v13.7h-2.6z"/>
  <path fill="#3F3F3F" d="M364.5 309.1V14.2C364.5 6.4 370 0 376.6 0h17v1.9h223.8V0h17.9c6.6 0 12.1 6.4 12.1 14.2V217c0 69.3-48.2 126-107 126H422.2c-18 0-35.4-9.5-46.7-22.1"/>
  <path fill="#312F2F" d="M540.3 291H421.6c-9.5 0-19 1.5-28.1 4.4l-29 13.7V12c0-6.6 5.4-12 12.1-12h17v1.9l223.8.4V0h17.9c6.6 0 12.1 5.4 12.1 12v172.1c-.1 58.8-48.2 106.9-107.1 106.9z"/>
  <path fill="#181515" d="M526.4 277.4h-85.2c-31.6 0-57.4-25.7-57.4-57.3V66.6c0-14.5 11.8-26.3 26.3-26.3h196.8c14.5 0 26.3 11.8 26.3 26.3v104.1c0 58.9-47.9 106.7-106.8 106.7zM410.1 41.3c-14 0-25.3 11.3-25.3 25.3v153.5c0 31.1 25.3 56.3 56.4 56.3h85.2c58.3 0 105.8-47.4 105.8-105.7V66.6c0-13.9-11.4-25.3-25.3-25.3H410.1z"/>
  <path fill="#181515" d="M384.3 94.8h248.4v1.8H384.3z"/>
  <path fill="#EFF8FB" d="M470.4 70.7l-.3-.2v-.3c0-.3-1.9-1.7-5.1-1.7-3.1 0-4.4 1-4.4 2.3 0 3.4 11.7-1.6 11.7 5.9 0 2.7-2.5 4.8-7.6 4.8-4.9 0-6.3-1.6-6.7-1.6-.1 0-.2.1-.3.2l-.3-.1 1.7-3.5.3.2v.3c0 1.2 2.6 2.1 5.1 2.1 3.6 0 4.9-1.1 4.9-2.2 0-4.1-11.6 1-11.6-5.9 0-3.5 3.5-4.9 7.4-4.9 3.5 0 5.9 1.6 6.1 1.6.3 0 .3-.1.4-.1l.3.1-1.6 3zm3.5 10.3c.4 0 .5-.2.5-.6V67.2c0-.5-.1-.6-.5-.6v-.3h12.9c.5 0 .7-.2.7-.5h.3v3.4h-.3c0-.4-.2-.5-.7-.5h-9.6v3.7h6.3c.5 0 .7-.2.7-.5h.3v3.5h-.3c0-.2 0-.3-.2-.4-.1-.1-.3-.1-.5-.1h-6.3V79h9.8c.5 0 .7-.2.7-.5h.3v3.4h-.3c0-.3-.2-.5-.7-.5h-13.1V81zm31.7-7.6v.3c-.2 0-.4.2-.4.7v4.1c0 .3.1.5.4.5v.3c-1.3.7-4.3 2.3-7.8 2.3-4.6 0-8.6-2.4-8.6-7.7 0-5.4 4.7-7.7 8.8-7.7 1.6 0 3.2.4 4.3.8 1.1.5 1.8.8 2 .8.2 0 .4-.1.4-.2l.3.1-1.9 3.4-.3-.2v-.4c0-.6-2.2-1.9-4.8-1.9-3.3 0-6.1 1.7-6.1 5.2 0 3.7 2.7 5.4 5.8 5.4 2.5 0 4-.9 4.6-1.3V76H499c-.4 0-.6.2-.6.5h-.4v-3.6h.3c0 .3.2.5.6.5h6.7zm1 7.9V81c.4 0 .5-.1.8-.8l5.4-12.7c.1-.2.2-.4.2-.6 0-.2-.2-.3-.4-.4v-.3h4.3v.3c-.3 0-.4.2-.4.3 0 .2.1.3.2.5l5.8 12.9c.3.6.4.8.8.8v.3h-4V81c.3 0 .4-.1.4-.2 0-.2-.2-.5-1.5-3.5h-6.8c-1.2 2.7-1.5 3.1-1.5 3.4 0 .2.1.3.3.3v.3h-3.6zM517 75l-2.4-5.4-2.4 5.4h4.8z"/>
  <path fill="#EFF8FB" d="M566.8 83.8H454.7v-20h112.1v20zm-111-1.3h110.1V65.1H455.8v17.4z"/>
  <g fill="#EFF8FB">
    <path d="M567.2 64.2h.7v2.3h.3v-2.3h.7v-.4h-1.7"/>
    <path d="M570.6 63.8l-.6 2.1-.6-2.1h-.5v2.7h.4v-2l.6 2h.2l.6-2v2h.3v-2.7"/>
  </g>
  <path fill="#EFF8FB" d="M526.7 66.3v15.1H565V66.3h-38.3zm1.6 10.5c-.3-2.7 6.7-6.3 15.9-8.1-.2.1-.6.2-.6.2l-1.2.4c-4.7 1.4-8 4.1-7.7 6.4.3 2.4 4.2 3.6 9.2 3.2.3 0 1.3-.1 1.5-.1-9.2 1.5-16.8.7-17.1-2zm23 .6c-2 .6-4.6 1.1-4.6 1.1v-6.7l1.3 5.5s3.1-.6 5.5-1.9c2.1-1.1 3.4-2.5 3.3-3.9-.1-2.4-4.1-3.6-9-3.2-.3 0-1.4.1-1.6.1 9.2-1.6 16.8-.8 17.1 1.9.2 2.2-4.8 5.1-12 7.1z"/>
  <g fill="#EFF8FB">
    <path d="M463.4 223.6v.2c0 .2 0 .3-.7.3s-.6-.1-.7-.3v-1.4c0-.2 0-.3.7-.3s.6.1.7.3v.2h.9v-.5c-.1-.5.1-.9-1.5-.9-1.7 0-1.5.4-1.5.9v1.8c.1.5-.1.9 1.5.9 1.7 0 1.5-.4 1.5-.9v-.4h-.9v.1zm-10.5-2.2l-.9 2.6-.9-2.6h-1.3v3.4h.9v-2.5l.9 2.5h.8l.9-2.5v2.5h.9v-3.4m10.3 0h2.5v.9h-.8v2.5h-.9v-2.5h-.8m-6.7 2.5l1-3.4h1.3l1 3.4h-.9l-.2-.7h-1.1l.2-.5h.8l-.4-1.4-.8 2.6m-11-2.7c.7 0 .6.1.7.3v1.4c0 .2 0 .3-.7.3s-.6-.1-.7-.3v-1.4c.1-.2.1-.3.7-.3v-.8c-1.7 0-1.5.4-1.5.9v1.8c.1.5-.1.9 1.5.9s1.5-.4 1.5-.9v-1.8c-.1-.5.1-.9-1.5-.9v.8zm-2.9 1.5v.2c0 .2 0 .3-.7.3s-.6-.1-.7-.3v-1.4c0-.2 0-.3.7-.3s.6.1.7.3v.2h.9v-.5c-.1-.5.1-.9-1.5-.9-1.7 0-1.5.4-1.5.9v1.8c.1.5-.1.9 1.5.9 1.7 0 1.5-.4 1.5-.9v-.4h-.9zm11.5.5h-.5v-.8h.5c.7 0 .6-.1.7-.3v-.4c0-.2 0-.3-.7-.3h-.5v2.6h-.9v-3.4h1.4c1.7 0 1.5.4 1.5.9v.8c0 .4.1.9-1.5.9zm-16.9 13.6H434c-.8 0-1.4-.6-1.4-1.4V228c0-.8.6-1.4 1.4-1.4h3.4c.4 0 .7-.3.7-.7v-3.3c0-.2.1-.3.3-.3h2c.2 0 .3.1.3.3v14.9c0 .2-.1.3-.3.3l-1-.1v.7h1.4c.4 0 .7-.3.7-.7v-15.5c0-.4-.3-.7-.7-.7h-2.6c-.4 0-.7.3-.7.7v3.3c0 .2-.1.3-.3.3h-3.1c-1.2 0-2.2 1-2.2 2.2v8.3c0 1.2 1 2.2 2.2 2.2h5.4l-.1-.8z"/>
    <path d="M437.3 234.6v-5.4c0-.4-.4-.8-.8-.8s-.8.4-.8.8v5.8c0 .4.4.8.8.8s.8-.4.8-.8v-.4h.7v.4c0 .9-.7 1.6-1.6 1.6-.9 0-1.6-.7-1.6-1.6v-5.8c0-.9.7-1.6 1.6-1.6.9 0 1.6.7 1.6 1.6v5.4h-.7zm7.2 3.1h-1c-.2 0-.3-.1-.3-.3v-10.5c0-.2.1-.3.3-.3h2c.2 0 .3.1.3.3v10.5c0 .2-.1.3-.3.3h-1v.7h1.3c.4 0 .7-.3.7-.7v-11.1c0-.4-.3-.7-.7-.7h-2.6c-.4 0-.7.3-.7.7v11.1c0 .4.3.7.7.7h1.3v-.7zm9.5-9.1h-2.2c-.7 0-1.2.5-1.2 1.2s.5 1.2 1.2 1.2h3c.8 0 1.4.6 1.4 1.4v3.7c0 .8-.6 1.4-1.4 1.4h-6c-.2 0-.3-.1-.3-.3v-1.4c0-.2.1-.3.3-.3h4.1c.7 0 1.2-.5 1.2-1.2s-.5-1.2-1.2-1.2H450c-.8 0-1.4-.6-1.4-1.4V228c0-.8.6-1.4 1.4-1.4h5.5c.2 0 .3.1.3.3v1.5c0 .2-.1.3-.3.3l-1.5-.1v.7h1.8c.4 0 .7-.3.7-.7v-2.1c0-.4-.3-.7-.7-.7H450c-1.2 0-2.2 1-2.2 2.2v3.7c0 1.2 1 2.2 2.2 2.2h2.9c.3 0 .5.2.5.5s-.2.5-.5.5h-4.4c-.4 0-.7.3-.7.7v2.1c0 .4.3.7.7.7h6.3c1.2 0 2.2-1 2.2-2.2v-3.7c0-1.2-1-2.2-2.2-2.2h-3c-.3 0-.5-.2-.5-.5s.2-.5.5-.5h2.2v-.7zm11 2.1h.9c.2 0 .3-.1.3-.3V228c0-.8-.6-1.4-1.4-1.4h-4.7c-.8 0-1.4.6-1.4 1.4v8.3c0 .8.6 1.4 1.4 1.4h4.7c.8 0 1.4-.6 1.4-1.4V234c0-.2-.1-.3-.3-.3h-1.8c-.2 0-.3.1-.3.3v1.1c0 .9-.5 1.6-1.4 1.6-.9 0-1.4-.7-1.4-1.6v-5.8c0-.9.5-1.6 1.4-1.6.9 0 1.4.7 1.4 1.6v1.1c0 .2.1.3.3.3h.9v.7h-1.1c-.4 0-.7-.3-.7-.7v-1.4c0-.4-.2-.8-.7-.8-.4 0-.7.4-.7.8v5.8c0 .4.2.8.7.8.4 0 .7-.4.7-.8v-1.4c0-.4.3-.7.7-.7h2.4c.4 0 .7.3.7.7v2.6c0 1.2-1 2.2-2.2 2.2h-4.7c-1.2 0-2.2-1-2.2-2.2V228c0-1.2 1-2.2 2.2-2.2h4.7c1.2 0 2.2 1 2.2 2.2v2.7c0 .4-.3.7-.7.7H465v-.7z"/>
  </g>
  <path fill="#181515" d="M543.1 186c-34.3 32.7-52.8 60.1-39.9 73.7 13 13.6 54 9.2 88.3-23.5s42.3-73.6 29.3-87.1-43.4 4.2-77.7 36.9z"/>
  <path fill="#2C2929" d="M549.5 194.4c-20.3 19.4-29.9 42.4-21.2 51.5s32.1.6 52.5-18.7c20.3-19.4 29.9-42.4 21.2-51.5s-32.1-.7-52.5 18.7z"/>
  <circle cx="549.6" cy="225.3" r="2.9" fill="#181515"/>
  <circle cx="558.5" cy="216.2" r="2.9" fill="#181515"/>
  <circle cx="567.4" cy="207.1" r="2.9" fill="#181515"/>
  <circle cx="576.3" cy="198.4" r="2.9" fill="#181515"/>
  <path fill="#241C1E" d="M446.3 325h-1l-.5-1.9H443l-.5 1.9h-1l1.9-6.7h.9l2 6.7zm-1.9-3l-.6-2.1-.6 2.1h1.2zm5.6-1.4c0-.2 0-.4-.1-.5-.1-.2-.1-.3-.2-.4l-.3-.3c-.1-.1-.3-.1-.4-.1-.2 0-.4.1-.6.2-.2.1-.3.3-.4.4-.1.2-.2.4-.3.7-.1.3-.1.6-.1 1s0 .7.1 1c.1.3.2.5.3.7.1.2.3.3.4.5.2.1.4.2.6.2.2 0 .3 0 .4-.1.1-.1.2-.1.3-.3.1-.1.2-.3.2-.4.1-.2.1-.4.1-.6h.9c0 .4-.1.8-.2 1.1-.1.3-.3.6-.4.8-.2.2-.4.4-.6.5s-.5.2-.8.2c-.4 0-.7-.1-1-.2-.3-.2-.5-.4-.7-.7-.2-.3-.4-.7-.5-1.1-.1-.4-.2-.9-.2-1.4s.1-1 .2-1.4c.1-.4.3-.8.5-1.1.2-.3.4-.5.7-.7.3-.2.6-.2.9-.2.3 0 .5.1.7.2.2.1.4.3.6.5.2.2.3.5.4.8.1.3.2.6.2 1h-.7zm5.1 0c0-.2 0-.4-.1-.5-.1-.2-.1-.3-.2-.4l-.3-.3c-.1-.1-.3-.1-.4-.1-.2 0-.4.1-.6.2-.2.1-.3.3-.4.4-.1.2-.2.4-.3.7-.1.3-.1.6-.1 1s0 .7.1 1c.1.3.2.5.3.7.1.2.3.3.4.5.2.1.4.2.6.2.2 0 .3 0 .4-.1.1-.1.2-.1.3-.3.1-.1.2-.3.2-.4.1-.2.1-.4.1-.6h.9c0 .4-.1.8-.2 1.1-.1.3-.3.6-.4.8-.2.2-.4.4-.6.5s-.5.2-.8.2c-.4 0-.7-.1-1-.2-.3-.2-.5-.4-.7-.7-.2-.3-.4-.7-.5-1.1-.1-.4-.2-.9-.2-1.4s.1-1 .2-1.4c.1-.4.3-.8.5-1.1.2-.3.4-.5.7-.7.3-.2.6-.2.9-.2.3 0 .5.1.7.2.2.1.4.3.6.5.2.2.3.5.4.8.1.3.2.6.2 1h-.7zm5.6 4.4H457v-6.7h3.6v1.2h-2.7v1.5h2.5v1.1h-2.5v1.7h2.8v1.2zm2.9.1c-.4 0-.7-.1-.9-.2-.3-.1-.5-.3-.7-.5-.2-.2-.3-.5-.4-.8-.1-.3-.1-.7-.2-1h.9c0 .2.1.4.1.6.1.2.2.3.3.4.1.1.2.2.4.3.1.1.3.1.4.1.1 0 .3 0 .4-.1.1 0 .2-.1.3-.2.1-.1.2-.2.2-.3 0-.1.1-.2.1-.4 0-.1 0-.3-.1-.4 0-.1-.1-.2-.2-.3-.1-.1-.2-.1-.4-.2s-.4-.1-.6-.2c-.3-.1-.5-.2-.7-.3-.2-.1-.4-.2-.5-.4-.1-.2-.2-.3-.3-.5-.1-.2-.1-.4-.1-.7 0-.3 0-.5.1-.8.1-.2.2-.4.4-.6.2-.2.3-.3.6-.4.2-.1.5-.1.7-.1.3 0 .5.1.8.2.2.1.4.3.6.4.2.2.3.4.4.7.1.3.1.6.2 1h-.9c-.1-.8-.4-1.1-1-1.1-.3 0-.5.1-.7.2-.2.1-.2.3-.2.6 0 .1 0 .2.1.3 0 .1.1.1.2.2s.2.1.3.2c.1 0 .3.1.4.1.1 0 .3.1.5.1s.3.1.5.2c.1.1.3.2.4.3.1.1.2.2.3.4s.2.3.2.5c.1.2.1.4.1.7 0 .3 0 .6-.1.8-.1.3-.2.5-.4.7-.2.2-.4.3-.6.4-.4 0-.7.1-.9.1zm4.7 0c-.4 0-.7-.1-.9-.2-.3-.1-.5-.3-.7-.5-.2-.2-.3-.5-.4-.8-.1-.3-.1-.7-.2-1h.9c0 .2.1.4.1.6.1.2.2.3.3.4.1.1.2.2.4.3.1.1.3.1.4.1.1 0 .3 0 .4-.1.1 0 .2-.1.3-.2.1-.1.2-.2.2-.3 0-.1.1-.2.1-.4 0-.1 0-.3-.1-.4 0-.1-.1-.2-.2-.3-.1-.1-.2-.1-.4-.2s-.4-.1-.6-.2c-.3-.1-.5-.2-.7-.3-.2-.1-.4-.2-.5-.4-.1-.2-.2-.3-.3-.5-.1-.2-.1-.4-.1-.7 0-.3 0-.5.1-.8.1-.2.2-.4.4-.6.2-.2.3-.3.6-.4.2-.1.5-.1.7-.1.3 0 .5.1.8.2.2.1.4.3.6.4.2.2.3.4.4.7.1.3.1.6.2 1h-.9c-.1-.8-.4-1.1-1-1.1-.3 0-.5.1-.7.2-.2.1-.2.3-.2.6 0 .1 0 .2.1.3 0 .1.1.1.2.2s.2.1.3.2c.1 0 .3.1.4.1.1 0 .3.1.5.1s.3.1.5.2c.1.1.3.2.4.3.1.1.2.2.3.4.1.1.2.3.2.5.1.2.1.4.1.7 0 .3 0 .6-.1.8s-.2.5-.4.7c-.2.2-.4.3-.6.4-.4 0-.6.1-.9.1z"/>
  <path fill="#631418" d="M422.7 323v-3.2c0-.3.3-.6.6-.6h12.2c.3 0 .6.3.6.6v3.2c0 .3-.3.6-.6.6h-12.2c-.3 0-.6-.2-.6-.6z"/>
  <path fill="#F95D5D" d="M424 322.2v-1.6c0-.3.3-.6.6-.6h9.7c.3 0 .6.3.6.6v1.6c0 .3-.3.6-.6.6h-9.7c-.3 0-.6-.2-.6-.6z"/>
  <path fill="#181515" d="M620.1 270.6c-2.9-2.9-2.9-7.7 0-10.6l9.2-8.9c2.9-2.9 5.2-.7 8.1 2.2 2.9 2.9 2 7 0 10.6l-6.5 12c-3 2.9-7.9-2.4-10.8-5.3z"/>
  <path fill="#241C1E" d="M614.4 286.7c.5-.5.7-1.1.4-1.4l-7.3-7.2 1.6-1.6 8 8c.7.7.1 2.4-1.2 3.8l2.3 2.3-5.9-.1-.1-5.9 2.2 2.1m3.1-12.6c.2.2.4.5.4.7.1.3.1.6 0 .9-.1.3-.2.6-.4 1-.2.3-.5.7-.8 1-.3.3-.6.6-1 .8-.3.2-.7.3-1 .4-.3.1-.6.1-.9 0-.3-.1-.5-.2-.8-.4-.2-.2-.4-.5-.4-.8s-.1-.6 0-.9c.1-.3.2-.6.4-1 .2-.3.5-.7.8-1 .3-.3.7-.6 1-.8.3-.2.7-.3 1-.4.3-.1.6 0 .9 0 .3.2.6.3.8.5zm-3.7 3.7c.1.1.3.2.5.3s.4 0 .6 0c.2 0 .4-.1.6-.3s.5-.3.7-.6c.2-.2.4-.5.6-.7l.3-.6v-.6s-.1-.3-.3-.5c-.1-.1-.3-.2-.5-.3h-.6s-.4.1-.6.3c-.2.1-.5.3-.7.5-.2.2-.4.5-.6.7s-.2.4-.3.6c0 .2-.1.4 0 .6.1.3.2.4.3.6zm5.7-1.5l1.2 1.2.3.3c.1.1.2.2.2.4 0 .1.1.3.1.4v.4c0 .2-.1.3-.2.5s-.2.3-.4.5c-.4.4-.9.7-1.3.7s-.8-.2-1.2-.5l-.6-.6-1.6 1.6-.6-.6 4.1-4.3zm-1.3 2.5l.6.6c.1.1.2.2.3.2.1 0 .2.1.3.1s.2 0 .3-.1c.1-.1.2-.1.3-.2.1-.1.2-.2.2-.3 0-.1.1-.2 0-.3s0-.2-.1-.3c-.1-.1-.1-.2-.2-.2l-.6-.6-1.1 1.1zm2.4 7l-2.3-2.3 4.2-4.2 2.3 2.3-.7.7-1.7-1.7-.9.9 1.6 1.6-.7.7-1.6-1.6-1.1 1.1 1.8 1.8-.9.7zm3 3l-.5-.5 1.4-4.2-2.8 2.8-.6-.6 4.2-4.2.5.5-1.5 4.2 2.8-2.8.6.6-4.1 4.2z"/>
  <path fill="#2C2929" d="M638.2 254.1l-1.3-1.4c-.6-.5-1.2-.9-2-.9-1 0-1.9.4-2.4 1.1l-11.9 15.3c-.8 1-.6 2.4.4 3.2l2.3 2.2c1 .8 2.5.2 3.3-.7l11.9-15.3c.8-1 .4-2.5-.3-3.5z"/>
  <path fill="#444546" d="M617.3 1.9v12s-.1 1.5-1.6 1.5H395.1c-1.6 0-1.6-1.5-1.6-1.5v-12l111.9.1 111.9-.1z"/>
  <path fill="#282424" d="M394.7 0h2.7v13.7h-2.7zm4.1 0h2.7v13.7h-2.7zm4.1 0h2.7v13.7h-2.7zm4 0h2.7v13.7h-2.7zm3.9 0h2.7v13.7h-2.7zm4.1 0h2.7v13.7h-2.7zm4 0h2.7v13.7h-2.7zm4.1 0h2.7v13.7H423zm4.1 0h2.7v13.7h-2.7zm4 0h2.7v13.7h-2.7zm4.1 0h2.7v13.7h-2.7zm4 0h2.7v13.7h-2.7zm4 0h2.7v13.7h-2.7zm4 0h2.7v13.7h-2.7zm4.1 0h2.7v13.7h-2.7zm4 0h2.7v13.7h-2.7zm4.1 0h2.7v13.7h-2.7zm4 0h2.7v13.7h-2.7zm4.1 0h2.7v13.7h-2.7zm4 0h2.7v13.7h-2.7zm4 0h2.7v13.7h-2.7zm4 0h2.7v13.7h-2.7zm4.1 0h2.7v13.7h-2.7zm4 0h2.7v13.7h-2.7zm4.1 0h2.7v13.7h-2.7zm4 0h2.7v13.7h-2.7zm4.1 0h2.7v13.7h-2.7zm4.1 0h2.7v13.7h-2.7zm3.9 0h2.7v13.7h-2.7zm4 0h2.7v13.7h-2.7zm4.1 0h2.7v13.7h-2.7zm4 0h2.7v13.7h-2.7zm4.3 0h2.7v13.7h-2.7zm4.1 0h2.7v13.7h-2.7zm4.1 0h2.7v13.7h-2.7zm3.9 0h2.7v13.7h-2.7zm4 0h2.7v13.7h-2.7zm4.1 0h2.7v13.7h-2.7zm4 0h2.7v13.7h-2.7zm4.1 0h2.7v13.7h-2.7zm4.1 0h2.7v13.7h-2.7zm4 0h2.7v13.7h-2.7zm4.1 0h2.7v13.7h-2.7zm3.9 0h2.7v13.7h-2.7zm4 0h2.7v13.7h-2.7zm4.1 0h2.7v13.7h-2.7zm4.1 0h2.7v13.7h-2.7zm4.4 0h2.7v13.7h-2.7zm4.1 0h2.7v13.7h-2.7zm4 0h2.7v13.7h-2.7zm4 0h2.7v13.7h-2.7zm4 0h2.7v13.7h-2.7zm4.1 0h2.7v13.7h-2.7zm4 0h2.7v13.7h-2.7zm4.1 0h2.7v13.7h-2.7z"/>
</svg>
