<?xml version="1.0" encoding="utf-8"?>
<!-- Generator: Adobe Illustrator 19.0.0, SVG Export Plug-In . SVG Version: 6.00 Build 0)  -->
<svg version="1.1" baseProfile="tiny" id="Calque_1"
	 xmlns="http://www.w3.org/2000/svg" xmlns:xlink="http://www.w3.org/1999/xlink" x="0px" y="0px" viewBox="0 0 218.3 147.3"
	 xml:space="preserve">
<g>
	<path fill="#2C2C2D" d="M109.2,0l92.7,0c9.1,0,16.5,7.4,16.5,16.5v119.1c0,6.4-5.3,11.7-11.7,11.7h-97.5H11.7
		C5.3,147.3,0,142,0,135.6V16.5C0,7.4,7.4,0,16.5,0L109.2,0"/>
	<g>
		<path fill="#121115" d="M0,15.8v122.4c0,0.6,0.5,1,1.1,1c6.7-0.8,12.2-2.6,16.2-4.4c1.8-0.8,3.4-2,4.5-3.7h0
			c1.5-2.2,2.2-4.9,1.8-7.5L10.5,26.9c-0.4-2.8-2.8-5.9-5.1-7.6L0,15.8"/>
		<path fill="#121115" d="M218.3,15.8v122.4c0,0.6-0.5,1-1.1,1c-6.7-0.8-12.2-2.6-16.2-4.4c-1.8-0.8-3.4-2-4.5-3.7h0
			c-1.5-2.2-2.2-4.9-1.8-7.5l13.1-96.7c0.4-2.8,2.8-5.9,5.1-7.6L218.3,15.8"/>
	</g>
	<path fill="#121115" d="M109.2,125.1c17,0.2,53.5-4.8,53.5-4.8c25.7-3.5,27.4-13,28.6-34.7l4.3-73.6c0-6.6-5.4-12-12-12l-74.5,0
		H34.7c-6.6,0-12,5.4-12,12L27,85.6c1.3,21.7,2.9,31.2,28.6,34.7C55.6,120.3,92.2,125.3,109.2,125.1z"/>
	<path fill="#232122" d="M109.1,17.8H177c2.9,0,5.3,2.4,5.3,5.3v71.7c0,6.8-5.5,12.3-12.3,12.3h-60.8h0.1H48.4
		c-6.8,0-12.3-5.5-12.3-12.3V23c0-2.9,2.4-5.3,5.3-5.3H109.1"/>
	<path fill="#FBE627" d="M55.6,18.5v89l0-0.3h-7.2c-6.8,0-12.3-5.5-12.3-12.3V23.3c0-2.9,2.4-5.3,5.3-5.3h14.2"/>
	<g>
		<path fill="#121115" d="M55.9,147.3L55.9,147.3c-0.9,0-1.6-0.7-1.6-1.6v-10.4c0-0.9,0.7-1.6,1.6-1.6l0,0c0.9,0,1.6,0.7,1.6,1.6
			v10.4C57.5,146.6,56.8,147.3,55.9,147.3z"/>
		<path fill="#121115" d="M77.2,147.3L77.2,147.3c-0.9,0-1.6-0.7-1.6-1.6v-10.4c0-0.9,0.7-1.6,1.6-1.6l0,0c0.9,0,1.6,0.7,1.6,1.6
			v10.4C78.7,146.6,78,147.3,77.2,147.3z"/>
		<path fill="#121115" d="M98.7,147.3L98.7,147.3c-0.9,0-1.6-0.7-1.6-1.6v-10.4c0-0.9,0.7-1.6,1.6-1.6l0,0c0.9,0,1.6,0.7,1.6,1.6
			v10.4C100.2,146.6,99.5,147.3,98.7,147.3z"/>
		<path fill="#121115" d="M119.9,147.3L119.9,147.3c-0.9,0-1.6-0.7-1.6-1.6v-10.4c0-0.9,0.7-1.6,1.6-1.6l0,0c0.9,0,1.6,0.7,1.6,1.6
			v10.4C121.5,146.6,120.8,147.3,119.9,147.3z"/>
		<path fill="#121115" d="M141.2,147.3L141.2,147.3c-0.9,0-1.6-0.7-1.6-1.6v-10.4c0-0.9,0.7-1.6,1.6-1.6h0c0.9,0,1.6,0.7,1.6,1.6
			v10.4C142.7,146.6,142,147.3,141.2,147.3z"/>
		<path fill="#121115" d="M162.4,147.3L162.4,147.3c-0.9,0-1.6-0.7-1.6-1.6v-10.4c0-0.9,0.7-1.6,1.6-1.6h0c0.9,0,1.6,0.7,1.6,1.6
			v10.4C164,146.6,163.3,147.3,162.4,147.3z"/>
	</g>
	<g>
		<g>
			<polygon points="47,89.7 53.5,82.9 53.5,33.7 53.1,33.7 49.3,33.7 47,36.4 			"/>
		</g>
		<g>
			<path d="M38.2,80.7H40c0.3,0,0.6,0.2,0.7,0.7c0.1,0.4,0.2,1,0.2,1.7c0,0.8-0.1,1.4-0.2,1.8c-0.1,0.5-0.4,0.7-0.7,0.7h-1.8v-1.9
				H40c0.1,0,0.2-0.1,0.3-0.2c0.1-0.1,0.1-0.3,0.1-0.6c0-0.2,0-0.4-0.1-0.5c0-0.1-0.1-0.2-0.1-0.3c-0.1,0-0.2,0-0.3,0h-1.6V80.7z"/>
		</g>
		<g>
			<path d="M39.9,78.2h1v1.7h-2.7v-2.3c0-0.6,0-1,0.1-1.3c0.1-0.3,0.2-0.5,0.3-0.7s0.3-0.3,0.5-0.3c0.3,0,0.5,0.2,0.6,0.5
				c0.2,0.4,0.2,0.8,0.2,1.4V78.2z M39.4,78.2v-0.5c0-0.5-0.1-0.7-0.3-0.7c-0.2,0-0.2,0.2-0.2,0.7v0.6H39.4z"/>
		</g>
		<g>
			<path d="M40.3,70.9h0.6v4h-2.7v-4h0.6v2.4h0.4v-1.9h0.6v1.9h0.4V70.9z"/>
		</g>
		<g>
			<path d="M40.9,66v1.8l-1,0.8V69h1v1.6h-2.7v-2.7c0-0.6,0.1-1.1,0.2-1.4c0.1-0.3,0.3-0.5,0.6-0.5c0.2,0,0.3,0.1,0.4,0.2
				c0.1,0.1,0.2,0.4,0.3,0.7L40.9,66z M39.3,69v-0.7c0-0.2,0-0.4-0.1-0.5c0-0.1-0.1-0.2-0.2-0.2c-0.2,0-0.3,0.2-0.3,0.6V69H39.3z"/>
		</g>
		<g>
			<path d="M41,88.5c0,0.4,0,0.8-0.1,1.1s-0.1,0.6-0.2,0.8c-0.1,0.2-0.2,0.4-0.3,0.5C40.2,90.9,40.1,91,40,91V90
				c0.1,0,0.2-0.1,0.2-0.2c0.1-0.1,0.1-0.2,0.2-0.3c0-0.1,0.1-0.3,0.1-0.4s0-0.3,0-0.5c0-0.2,0-0.3,0-0.5c0-0.1,0-0.3-0.1-0.4
				c0-0.1-0.1-0.2-0.1-0.2c0-0.1-0.1-0.1-0.1-0.1c-0.1,0-0.1,0-0.1,0.1c0,0.1-0.1,0.1-0.1,0.3c0,0.1-0.1,0.3-0.1,0.5
				c0,0.2-0.1,0.4-0.1,0.7c0,0.3-0.1,0.6-0.1,0.9c0,0.2-0.1,0.4-0.2,0.6c-0.1,0.2-0.1,0.3-0.2,0.3c-0.1,0.1-0.2,0.1-0.3,0.1
				c-0.1,0-0.2-0.1-0.3-0.2c-0.1-0.1-0.2-0.2-0.2-0.4c-0.1-0.2-0.1-0.4-0.2-0.7c0-0.3-0.1-0.6-0.1-0.9c0-0.3,0-0.6,0.1-0.9
				c0-0.3,0.1-0.5,0.2-0.7s0.2-0.4,0.3-0.5c0.1-0.1,0.2-0.2,0.4-0.2v1c-0.3,0.1-0.4,0.5-0.4,1.2c0,0.4,0,0.6,0.1,0.8
				c0.1,0.2,0.1,0.3,0.2,0.3c0,0,0.1,0,0.1-0.1c0,0,0.1-0.1,0.1-0.2c0-0.1,0-0.2,0.1-0.3c0-0.1,0-0.3,0.1-0.5c0-0.2,0-0.4,0.1-0.5
				c0-0.2,0-0.4,0.1-0.5c0-0.2,0.1-0.3,0.1-0.5c0-0.2,0.1-0.3,0.1-0.4c0.1-0.1,0.1-0.2,0.2-0.3c0.1-0.1,0.2-0.1,0.3-0.1
				c0.1,0,0.2,0.1,0.3,0.2c0.1,0.1,0.2,0.3,0.3,0.5c0.1,0.2,0.1,0.4,0.2,0.7C40.9,87.9,41,88.2,41,88.5z"/>
		</g>
		<g>
			<g>
				<path d="M45.3,38.1v0.5h1.2v0.3h-1.2v0.5H45v-1.2H45.3z"/>
				<path d="M46.5,36.4v0.3h-0.9l0.9,0.3v0.2l-0.9,0.3h0.9v0.3H45v-0.4l1-0.4l-1-0.4v-0.4H46.5z"/>
			</g>
		</g>
		<path d="M52.4,76h-2l-0.1-0.3c-1.1-3-3.9-8-4.7-8.2c-0.1,0-0.3,0-0.4,0.1c-0.3,0.2-0.4,0.6-0.4,1c0,0.5,0.3,1,0.8,1.1l0.3,0l0,0.4
			v6L45.2,76c-2.4-0.6-3.9-3.6-3.9-7.5c0-4.4,1.6-7.5,3.9-7.5c1.6,0,2.9,1.6,4,5v-4.7h3.1V76z"/>
		<path fill="#FFFFFF" d="M45.7,67.2c-0.7-0.2-1.4,0.7-1.4,1.5c0,0.7,0.5,1.3,1.1,1.5l0,0v5.5c-2-0.5-3.6-3.2-3.6-7.1
			s1.4-7.1,3.4-7.1c1.8,0,3.1,2.6,3.9,5.8h0.5v-5.6H52v14h-1.3C49.7,73.2,46.9,67.5,45.7,67.2z"/>
		<path d="M52.9,84.1c0,1.9-0.2,5.4-1.8,7c-0.5,0.5-1.2,0.8-1.9,0.8l-0.4,0l0-0.4V86l0-0.4l0.3-0.1c0.3-0.1,0.7-0.6,0.7-1.4
			c0-0.9-0.4-1.6-0.8-1.6c-0.4,0-0.8,0.7-0.8,1.6l0,0.1c0,0.1,0,0.1,0,0.2l0.1,0.5h-2.8l0.1-0.6c0-0.1,0-0.1,0-0.2
			c0-0.7-0.4-1.2-0.7-1.2s-0.7,0.5-0.7,1.2c0,0.7,0.3,1.2,0.6,1.2l0.3,0.1l0,0.4v5.4h-0.4c-0.9,0-1.9-0.9-2.5-2.1
			c-0.6-1.2-0.9-3-0.9-5.2c0-3.6,1-7.2,2.9-7.2c0.8,0,1.6,0.7,2.2,1.8c0.6-1.6,1.7-2.2,2.6-2.2C51.3,76.3,52.9,79.7,52.9,84.1z"/>
		<path id="XMLID_2_" fill="#FFFFFF" d="M49.2,91.4V86l0,0c0.6-0.1,1-0.9,1-1.8c0-1.1-0.5-2-1.2-2c-0.7,0-1.2,0.9-1.2,2
			c0,0.1,0,0.2,0,0.3h-1H46l0,0c0-0.1,0-0.2,0-0.3c0-0.9-0.5-1.7-1.1-1.7c-0.6,0-1.1,0.7-1.1,1.7c0,0.9,0.4,1.6,1,1.7l0,0v5
			c-0.7,0-1.5-0.7-2.1-1.9c-0.6-1.3-0.8-3-0.8-5c0-3.8,1.1-6.8,2.5-6.8c0.9,0,1.6,1.1,2.1,2.9h0.4c0.3-2.2,1.1-3.3,2.3-3.3
			c1.8,0,3.3,3.3,3.3,7.3S51.5,91.4,49.2,91.4"/>
		<polyline fill="#1D46A5" points="52.9,34.6 52.9,50.9 38.2,66 38.2,49.7 38.3,49.7 52.9,34.6 		"/>
		<g>
			<polygon points="52.4,46.9 50.2,49.3 52.4,51.7 52.4,60.8 45.9,53.9 39.6,60.8 39.6,51.6 41.7,49.4 39.6,47.2 39.6,38.1 
				45.9,44.7 52.4,37.6 			"/>
			<g>
				<path fill="#FFFFFF" d="M45.9,53.3l-5.9,6.4v-8l2.2-2.4L40.1,47v-7.9l5.9,6.2l6.1-6.6v8l-2.4,2.6l2.4,2.5v7.9L45.9,53.3z"/>
			</g>
		</g>
	</g>
</g>
</svg>
