<?xml version="1.0" encoding="UTF-8" standalone="no"?>
<!-- Generator: Adobe Illustrator 19.0.0, SVG Export Plug-In . SVG Version: 6.00 Build 0)  -->

<svg
   xmlns:dc="http://purl.org/dc/elements/1.1/"
   xmlns:cc="http://creativecommons.org/ns#"
   xmlns:rdf="http://www.w3.org/1999/02/22-rdf-syntax-ns#"
   xmlns:svg="http://www.w3.org/2000/svg"
   xmlns="http://www.w3.org/2000/svg"
   xmlns:sodipodi="http://sodipodi.sourceforge.net/DTD/sodipodi-0.dtd"
   xmlns:inkscape="http://www.inkscape.org/namespaces/inkscape"
   version="1.1"
   id="Layer_1"
   x="0px"
   y="0px"
   viewBox="-6 246.3 802.14755 301.7"
   xml:space="preserve"
   inkscape:version="0.91 r13725"
   sodipodi:docname="consolegame.svg"
   width="802.14758"
   height="301.70001"><metadata
     id="metadata388"><rdf:RDF><cc:Work
         rdf:about=""><dc:format>image/svg+xml</dc:format><dc:type
           rdf:resource="http://purl.org/dc/dcmitype/StillImage" /><dc:title></dc:title></cc:Work></rdf:RDF></metadata><defs
     id="defs386" /><sodipodi:namedview
     pagecolor="#ffffff"
     bordercolor="#666666"
     borderopacity="1"
     objecttolerance="10"
     gridtolerance="10"
     guidetolerance="10"
     inkscape:pageopacity="0"
     inkscape:pageshadow="2"
     inkscape:window-width="1920"
     inkscape:window-height="1057"
     id="namedview384"
     showgrid="false"
     inkscape:zoom="1.1888462"
     inkscape:cx="238.49486"
     inkscape:cy="150.84999"
     inkscape:window-x="1912"
     inkscape:window-y="-8"
     inkscape:window-maximized="1"
     inkscape:current-layer="Layer_1"
     fit-margin-top="0"
     fit-margin-left="0"
     fit-margin-right="0"
     fit-margin-bottom="0" /><g
     id="XMLID_1_"
     transform="translate(0,3.0517577e-6)"><path
       id="base"
       d="m 2.9,392.4 c 0,0 -5,0 -7,0 -1.7,0 -1.9,-0.2 -1.9,-2.9 0,-2.7 0,-138.4 0,-140.5 0,-2.1 0.3,-2.7 2.7,-2.7 2.4,0 583,0 587.9,0 4.9,0 5.1,0.4 5.1,5.1 0,4.2 0,24.9 0,29 0,0.6 0,0.7 -0.7,0.7 -0.8,0 -2.1,0 -3,0 -0.7,0 -0.8,0.2 -0.8,0.7 0,6.2 0,52.7 0,52.7 l 0,44.8 c 0,0 4.5,0 6.7,0 0.9,0 1,0.3 1,0.6 0,2.1 0,8.6 0,11.3 0,1 -0.1,1.2 -1.5,1.2 -32.7,0 -588.5,0 -588.5,0 z"
       inkscape:connector-curvature="0"
       style="fill:#cfd0cf" /><path
       id="outline"
       stroke-miterlimit="10"
       d="m -0.2,392.4 c 0,-41 0,-74.8 0,-75.7 0,-2.2 0,-3.7 3.7,-3.7 3.6,0 557.9,0 581.7,0"
       inkscape:connector-curvature="0"
       style="fill:none;stroke:#9b9a9a;stroke-width:2;stroke-miterlimit:10" /><path
       id="keyboard"
       d="m 6.7,548 c -5.7,0 -6.9,-4.5 -6.9,-8.6 0,-4.1 0,-220.4 0,-222.6 0,-2.2 0,-3.7 3.7,-3.7 3.7,0 578.8,0 582.5,0 3.7,0 3.7,1.4 3.7,3.7 0,2.2 0,218.5 0,222.6 0,4.1 -1.1,8.6 -6.9,8.6 -5.7,0 -570.3,0 -576.1,0 z"
       inkscape:connector-curvature="0"
       style="fill:#cfd0cf" /><g
       id="holes"><path
         id="XMLID_123_"
         d="m 210.4,351 151.6,0 c 0.4,0 0.6,0.3 0.6,0.6 l 0,23.4 c 0,0.4 -0.3,0.6 -0.6,0.6 l -151.6,0 c -0.4,0 -0.6,-0.3 -0.6,-0.6 l 0,-23.4 c 0,-0.3 0.2,-0.6 0.6,-0.6 z"
         inkscape:connector-curvature="0"
         style="fill:#0c0c0d" /><path
         id="XMLID_121_"
         d="m 48.8,351 151.2,0 c 0.4,0 0.6,0.3 0.6,0.6 l 0,23.4 c 0,0.4 -0.3,0.6 -0.6,0.6 l -151.2,0 c -0.4,0 -0.6,-0.3 -0.6,-0.6 l 0,-23.4 c 0,-0.3 0.2,-0.6 0.6,-0.6 z"
         inkscape:connector-curvature="0"
         style="fill:#0c0c0d" /><path
         id="XMLID_119_"
         d="m 11.7,351 22.9,0 c 0.4,0 0.6,0.3 0.6,0.6 l 0,23.4 c 0,0.4 -0.3,0.6 -0.6,0.6 l -22.9,0 c -0.4,0 -0.6,-0.3 -0.6,-0.6 l 0,-23.4 C 11,351.3 11.3,351 11.7,351 Z"
         inkscape:connector-curvature="0"
         style="fill:#0c0c0d" /><path
         id="XMLID_117_"
         d="m 368.2,489.5 0,21 c 0,0.4 -0.3,0.6 -0.6,0.6 l -337.3,0 c -0.4,0 -0.6,-0.3 -0.6,-0.6 l 0,-21.1 c 0,0 0.8,-2.8 -2.1,-2.8 -2.5,0 -16.3,0 -16.3,0 -0.4,0 -0.6,-0.3 -0.6,-0.6 l 0,-96.3 c 0,-0.4 0.3,-0.6 0.6,-0.6 l 372.2,0 c 0.4,0 0.6,0.3 0.6,0.6 l 0,96.3 c 0,0.4 -0.3,0.6 -0.6,0.6 0,0 -9.6,0 -12.8,0 -3.2,0 -2.5,2.9 -2.5,2.9 z"
         inkscape:connector-curvature="0"
         style="fill:#0c0c0d" /><path
         id="XMLID_115_"
         d="m 470.2,414.8 c 0.4,0 0.6,-0.3 0.6,-0.6 l 0,-24.4 c 0,-0.4 -0.3,-0.6 -0.6,-0.6 l -73.3,0 c -0.4,0 -0.6,0.3 -0.6,0.6 l 0,24.4 c 0,0.4 0.3,0.6 0.6,0.6 l 73.3,0 z"
         inkscape:connector-curvature="0"
         style="fill:#0c0c0d" /><path
         id="XMLID_113_"
         d="m 578.2,511.3 c 0.4,0 0.6,-0.3 0.6,-0.6 l 0,-121 c 0,-0.4 -0.3,-0.6 -0.6,-0.6 l -96.9,0 c -0.4,0 -0.6,0.3 -0.6,0.6 l 0,121 c 0,0.4 0.3,0.6 0.6,0.6 l 96.9,0 z"
         inkscape:connector-curvature="0"
         style="fill:#0c0c0d" /><path
         id="XMLID_111_"
         d="m 446.4,458.3 0,-21.5 c 0,-0.4 -0.3,-0.6 -0.6,-0.6 l -24.6,0 c -0.4,0 -0.6,0.3 -0.6,0.6 l 0,21.5 c 0,0 0.3,1.7 -1.9,1.7 -11.9,0 -21.8,0 -21.8,0 -0.4,0 -0.6,0.3 -0.6,0.6 l 0,25.3 c 0,0.4 0.3,0.6 0.6,0.6 l 73.3,0 c 0.4,0 0.6,-0.3 0.6,-0.6 l 0,-25.3 c 0,-0.4 -0.3,-0.6 -0.6,-0.6 0,0 -9.8,0 -22.2,0 -2.4,0 -1.6,-1.7 -1.6,-1.7 z"
         inkscape:connector-curvature="0"
         style="fill:#0c0c0d" /></g><g
       id="keys"><g
         id="XMLID_21_"><path
           id="XMLID_65_"
           d="m 237.8,438.5 19.4,0 c 0.8,0 1.4,0.6 1.4,1.4 l 0,19.8 c 0,0.8 -0.6,1.4 -1.4,1.4 l -19.4,0 c -0.8,0 -1.4,-0.6 -1.4,-1.4 l 0,-19.8 c -0.1,-0.7 0.6,-1.4 1.4,-1.4 z"
           inkscape:connector-curvature="0"
           style="fill:#9b9a9a" /><path
           id="XMLID_34_"
           d="m 240.7,440.7 13.5,0 c 0.8,0 1.4,0.6 1.4,1.4 l 0,13.5 c 0,0.8 -0.6,1.4 -1.4,1.4 l -13.5,0 c -0.8,0 -1.4,-0.6 -1.4,-1.4 l 0,-13.5 c 0,-0.7 0.7,-1.4 1.4,-1.4 z"
           inkscape:connector-curvature="0"
           style="fill:#cfd0cf" /></g><g
         id="XMLID_165_"><path
           id="XMLID_168_"
           d="m 261.7,438.5 19.4,0 c 0.8,0 1.4,0.6 1.4,1.4 l 0,19.8 c 0,0.8 -0.6,1.4 -1.4,1.4 l -19.4,0 c -0.8,0 -1.4,-0.6 -1.4,-1.4 l 0,-19.8 c 0,-0.7 0.6,-1.4 1.4,-1.4 z"
           inkscape:connector-curvature="0"
           style="fill:#9b9a9a" /><path
           id="XMLID_166_"
           d="m 264.7,440.7 13.5,0 c 0.8,0 1.4,0.6 1.4,1.4 l 0,13.5 c 0,0.8 -0.6,1.4 -1.4,1.4 l -13.5,0 c -0.8,0 -1.4,-0.6 -1.4,-1.4 l 0,-13.5 c -0.1,-0.7 0.6,-1.4 1.4,-1.4 z"
           inkscape:connector-curvature="0"
           style="fill:#cfd0cf" /></g><g
         id="XMLID_170_"><path
           id="XMLID_173_"
           d="m 285.6,438.5 19.4,0 c 0.8,0 1.4,0.6 1.4,1.4 l 0,19.8 c 0,0.8 -0.6,1.4 -1.4,1.4 l -19.4,0 c -0.8,0 -1.4,-0.6 -1.4,-1.4 l 0,-19.8 c 0,-0.7 0.6,-1.4 1.4,-1.4 z"
           inkscape:connector-curvature="0"
           style="fill:#9b9a9a" /><path
           id="XMLID_171_"
           d="m 288.6,440.7 13.5,0 c 0.8,0 1.4,0.6 1.4,1.4 l 0,13.5 c 0,0.8 -0.6,1.4 -1.4,1.4 l -13.5,0 c -0.8,0 -1.4,-0.6 -1.4,-1.4 l 0,-13.5 c -0.1,-0.7 0.6,-1.4 1.4,-1.4 z"
           inkscape:connector-curvature="0"
           style="fill:#cfd0cf" /></g><g
         id="XMLID_175_"><path
           id="XMLID_178_"
           d="m 309.5,438.5 19.4,0 c 0.8,0 1.4,0.6 1.4,1.4 l 0,19.8 c 0,0.8 -0.6,1.4 -1.4,1.4 l -19.4,0 c -0.8,0 -1.4,-0.6 -1.4,-1.4 l 0,-19.8 c 0,-0.7 0.6,-1.4 1.4,-1.4 z"
           inkscape:connector-curvature="0"
           style="fill:#9b9a9a" /><path
           id="XMLID_176_"
           d="m 312.5,440.7 13.5,0 c 0.8,0 1.4,0.6 1.4,1.4 l 0,13.5 c 0,0.8 -0.6,1.4 -1.4,1.4 l -13.5,0 c -0.8,0 -1.4,-0.6 -1.4,-1.4 l 0,-13.5 c -0.1,-0.7 0.6,-1.4 1.4,-1.4 z"
           inkscape:connector-curvature="0"
           style="fill:#cfd0cf" /></g><g
         id="XMLID_180_"><path
           id="XMLID_183_"
           d="m 333.4,438.5 19.4,0 c 0.8,0 1.4,0.6 1.4,1.4 l 0,19.8 c 0,0.8 -0.6,1.4 -1.4,1.4 l -19.4,0 c -0.8,0 -1.4,-0.6 -1.4,-1.4 l 0,-19.8 c 0,-0.7 0.6,-1.4 1.4,-1.4 z"
           inkscape:connector-curvature="0"
           style="fill:#9b9a9a" /><path
           id="XMLID_181_"
           d="m 336.4,440.7 13.5,0 c 0.8,0 1.4,0.6 1.4,1.4 l 0,13.5 c 0,0.8 -0.6,1.4 -1.4,1.4 l -13.5,0 c -0.8,0 -1.4,-0.6 -1.4,-1.4 l 0,-13.5 c 0,-0.7 0.6,-1.4 1.4,-1.4 z"
           inkscape:connector-curvature="0"
           style="fill:#cfd0cf" /></g><g
         id="XMLID_390_"><path
           id="XMLID_393_"
           d="m 399.1,461.7 19.4,0 c 0.8,0 1.4,0.6 1.4,1.4 l 0,19.8 c 0,0.8 -0.6,1.4 -1.4,1.4 l -19.4,0 c -0.8,0 -1.4,-0.6 -1.4,-1.4 l 0,-19.8 c -0.1,-0.8 0.6,-1.4 1.4,-1.4 z"
           inkscape:connector-curvature="0"
           style="fill:#9b9a9a" /><path
           id="XMLID_391_"
           d="m 402,463.9 13.5,0 c 0.8,0 1.4,0.6 1.4,1.4 l 0,13.5 c 0,0.8 -0.6,1.4 -1.4,1.4 l -13.5,0 c -0.8,0 -1.4,-0.6 -1.4,-1.4 l 0,-13.5 c 0,-0.8 0.6,-1.4 1.4,-1.4 z"
           inkscape:connector-curvature="0"
           style="fill:#cfd0cf" /></g><g
         id="XMLID_410_"><path
           id="XMLID_413_"
           d="m 448.5,461.7 19.5,0 c 0.8,0 1.4,0.6 1.4,1.4 l 0,19.8 c 0,0.8 -0.6,1.4 -1.4,1.4 l -19.4,0 c -0.8,0 -1.4,-0.6 -1.4,-1.4 l 0,-19.8 c -0.1,-0.8 0.5,-1.4 1.3,-1.4 z"
           inkscape:connector-curvature="0"
           style="fill:#9b9a9a" /><path
           id="XMLID_411_"
           d="m 451.5,463.9 13.5,0 c 0.8,0 1.4,0.6 1.4,1.4 l 0,13.5 c 0,0.8 -0.6,1.4 -1.4,1.4 l -13.5,0 c -0.8,0 -1.4,-0.6 -1.4,-1.4 l 0,-13.5 c -0.1,-0.8 0.6,-1.4 1.4,-1.4 z"
           inkscape:connector-curvature="0"
           style="fill:#cfd0cf" /></g><g
         id="XMLID_415_"><path
           id="XMLID_418_"
           d="m 423.8,461.7 19.4,0 c 0.8,0 1.4,0.6 1.4,1.4 l 0,19.8 c 0,0.8 -0.6,1.4 -1.4,1.4 l -19.4,0 c -0.8,0 -1.4,-0.6 -1.4,-1.4 l 0,-19.8 c 0,-0.8 0.6,-1.4 1.4,-1.4 z"
           inkscape:connector-curvature="0"
           style="fill:#9b9a9a" /><path
           id="XMLID_416_"
           d="m 426.8,463.9 13.5,0 c 0.8,0 1.4,0.6 1.4,1.4 l 0,13.5 c 0,0.8 -0.6,1.4 -1.4,1.4 l -13.5,0 c -0.8,0 -1.4,-0.6 -1.4,-1.4 l 0,-13.5 c -0.1,-0.8 0.6,-1.4 1.4,-1.4 z"
           inkscape:connector-curvature="0"
           style="fill:#cfd0cf" /></g><g
         id="XMLID_420_"><path
           id="XMLID_423_"
           d="m 423.8,437.6 19.4,0 c 0.8,0 1.4,0.6 1.4,1.4 l 0,19.8 c 0,0.8 -0.6,1.4 -1.4,1.4 l -19.4,0 c -0.8,0 -1.4,-0.6 -1.4,-1.4 l 0,-19.8 c 0,-0.8 0.6,-1.4 1.4,-1.4 z"
           inkscape:connector-curvature="0"
           style="fill:#9b9a9a" /><path
           id="XMLID_421_"
           d="m 426.8,439.8 13.5,0 c 0.8,0 1.4,0.6 1.4,1.4 l 0,13.5 c 0,0.8 -0.6,1.4 -1.4,1.4 l -13.5,0 c -0.8,0 -1.4,-0.6 -1.4,-1.4 l 0,-13.5 c -0.1,-0.8 0.6,-1.4 1.4,-1.4 z"
           inkscape:connector-curvature="0"
           style="fill:#cfd0cf" /></g><g
         id="XMLID_503_"><path
           id="XMLID_506_"
           d="m 483.8,414.8 19.4,0 c 0.8,0 1.4,0.6 1.4,1.4 l 0,19.8 c 0,0.8 -0.6,1.4 -1.4,1.4 l -19.4,0 c -0.8,0 -1.4,-0.6 -1.4,-1.4 l 0,-19.8 c 0,-0.8 0.6,-1.4 1.4,-1.4 z"
           inkscape:connector-curvature="0"
           style="fill:#9b9a9a" /><path
           id="XMLID_504_"
           d="m 486.8,417 13.5,0 c 0.8,0 1.4,0.6 1.4,1.4 l 0,13.5 c 0,0.8 -0.6,1.4 -1.4,1.4 l -13.5,0 c -0.8,0 -1.4,-0.6 -1.4,-1.4 l 0,-13.5 c -0.1,-0.8 0.6,-1.4 1.4,-1.4 z"
           inkscape:connector-curvature="0"
           style="fill:#cfd0cf" /></g><g
         id="XMLID_486_"><path
           id="XMLID_501_"
           d="m 508.1,414.8 19.4,0 c 0.8,0 1.4,0.6 1.4,1.4 l 0,19.8 c 0,0.8 -0.6,1.4 -1.4,1.4 l -19.4,0 c -0.8,0 -1.4,-0.6 -1.4,-1.4 l 0,-19.8 c -0.1,-0.8 0.6,-1.4 1.4,-1.4 z"
           inkscape:connector-curvature="0"
           style="fill:#9b9a9a" /><path
           id="XMLID_499_"
           d="m 511,417 13.5,0 c 0.8,0 1.4,0.6 1.4,1.4 l 0,13.5 c 0,0.8 -0.6,1.4 -1.4,1.4 l -13.5,0 c -0.8,0 -1.4,-0.6 -1.4,-1.4 l 0,-13.5 c 0,-0.8 0.6,-1.4 1.4,-1.4 z"
           inkscape:connector-curvature="0"
           style="fill:#cfd0cf" /></g><g
         id="XMLID_481_"><path
           id="XMLID_484_"
           d="m 532.3,414.8 19.4,0 c 0.8,0 1.4,0.6 1.4,1.4 l 0,19.8 c 0,0.8 -0.6,1.4 -1.4,1.4 l -19.4,0 c -0.8,0 -1.4,-0.6 -1.4,-1.4 l 0,-19.8 c 0,-0.8 0.7,-1.4 1.4,-1.4 z"
           inkscape:connector-curvature="0"
           style="fill:#9b9a9a" /><path
           id="XMLID_482_"
           d="m 535.3,417 13.5,0 c 0.8,0 1.4,0.6 1.4,1.4 l 0,13.5 c 0,0.8 -0.6,1.4 -1.4,1.4 l -13.5,0 c -0.8,0 -1.4,-0.6 -1.4,-1.4 l 0,-13.5 c 0,-0.8 0.6,-1.4 1.4,-1.4 z"
           inkscape:connector-curvature="0"
           style="fill:#cfd0cf" /></g><g
         id="XMLID_523_"><path
           id="XMLID_526_"
           d="m 483.8,438.7 19.4,0 c 0.8,0 1.4,0.6 1.4,1.4 l 0,19.8 c 0,0.8 -0.6,1.4 -1.4,1.4 l -19.4,0 c -0.8,0 -1.4,-0.6 -1.4,-1.4 l 0,-19.8 c 0,-0.7 0.6,-1.4 1.4,-1.4 z"
           inkscape:connector-curvature="0"
           style="fill:#9b9a9a" /><path
           id="XMLID_524_"
           d="m 486.8,440.9 13.5,0 c 0.8,0 1.4,0.6 1.4,1.4 l 0,13.5 c 0,0.8 -0.6,1.4 -1.4,1.4 l -13.5,0 c -0.8,0 -1.4,-0.6 -1.4,-1.4 l 0,-13.5 c -0.1,-0.7 0.6,-1.4 1.4,-1.4 z"
           inkscape:connector-curvature="0"
           style="fill:#cfd0cf" /></g><g
         id="XMLID_518_"><path
           id="XMLID_521_"
           d="m 508.1,438.7 19.4,0 c 0.8,0 1.4,0.6 1.4,1.4 l 0,19.8 c 0,0.8 -0.6,1.4 -1.4,1.4 l -19.4,0 c -0.8,0 -1.4,-0.6 -1.4,-1.4 l 0,-19.8 c -0.1,-0.7 0.6,-1.4 1.4,-1.4 z"
           inkscape:connector-curvature="0"
           style="fill:#9b9a9a" /><path
           id="XMLID_519_"
           d="m 511,440.9 13.5,0 c 0.8,0 1.4,0.6 1.4,1.4 l 0,13.5 c 0,0.8 -0.6,1.4 -1.4,1.4 l -13.5,0 c -0.8,0 -1.4,-0.6 -1.4,-1.4 l 0,-13.5 c 0,-0.7 0.6,-1.4 1.4,-1.4 z"
           inkscape:connector-curvature="0"
           style="fill:#cfd0cf" /></g><g
         id="XMLID_513_"><path
           id="XMLID_516_"
           d="m 532.3,438.7 19.4,0 c 0.8,0 1.4,0.6 1.4,1.4 l 0,19.8 c 0,0.8 -0.6,1.4 -1.4,1.4 l -19.4,0 c -0.8,0 -1.4,-0.6 -1.4,-1.4 l 0,-19.8 c 0,-0.7 0.7,-1.4 1.4,-1.4 z"
           inkscape:connector-curvature="0"
           style="fill:#9b9a9a" /><path
           id="XMLID_514_"
           d="m 535.3,440.9 13.5,0 c 0.8,0 1.4,0.6 1.4,1.4 l 0,13.5 c 0,0.8 -0.6,1.4 -1.4,1.4 l -13.5,0 c -0.8,0 -1.4,-0.6 -1.4,-1.4 l 0,-13.5 c 0,-0.7 0.6,-1.4 1.4,-1.4 z"
           inkscape:connector-curvature="0"
           style="fill:#cfd0cf" /></g><g
         id="XMLID_543_"><path
           id="XMLID_546_"
           d="m 483.8,463.2 19.4,0 c 0.8,0 1.4,0.6 1.4,1.4 l 0,19.8 c 0,0.8 -0.6,1.4 -1.4,1.4 l -19.4,0 c -0.8,0 -1.4,-0.6 -1.4,-1.4 l 0,-19.8 c 0,-0.8 0.6,-1.4 1.4,-1.4 z"
           inkscape:connector-curvature="0"
           style="fill:#9b9a9a" /><path
           id="XMLID_544_"
           d="m 486.8,465.4 13.5,0 c 0.8,0 1.4,0.6 1.4,1.4 l 0,13.5 c 0,0.8 -0.6,1.4 -1.4,1.4 l -13.5,0 c -0.8,0 -1.4,-0.6 -1.4,-1.4 l 0,-13.5 c -0.1,-0.8 0.6,-1.4 1.4,-1.4 z"
           inkscape:connector-curvature="0"
           style="fill:#cfd0cf" /></g><g
         id="XMLID_538_"><path
           id="XMLID_541_"
           d="m 508.1,463.2 19.4,0 c 0.8,0 1.4,0.6 1.4,1.4 l 0,19.8 c 0,0.8 -0.6,1.4 -1.4,1.4 l -19.4,0 c -0.8,0 -1.4,-0.6 -1.4,-1.4 l 0,-19.8 c -0.1,-0.8 0.6,-1.4 1.4,-1.4 z"
           inkscape:connector-curvature="0"
           style="fill:#9b9a9a" /><path
           id="XMLID_539_"
           d="m 511,465.4 13.5,0 c 0.8,0 1.4,0.6 1.4,1.4 l 0,13.5 c 0,0.8 -0.6,1.4 -1.4,1.4 l -13.5,0 c -0.8,0 -1.4,-0.6 -1.4,-1.4 l 0,-13.5 c 0,-0.8 0.6,-1.4 1.4,-1.4 z"
           inkscape:connector-curvature="0"
           style="fill:#cfd0cf" /></g><g
         id="XMLID_533_"><path
           id="XMLID_536_"
           d="m 532.3,463.2 19.4,0 c 0.8,0 1.4,0.6 1.4,1.4 l 0,19.8 c 0,0.8 -0.6,1.4 -1.4,1.4 l -19.4,0 c -0.8,0 -1.4,-0.6 -1.4,-1.4 l 0,-19.8 c 0,-0.8 0.7,-1.4 1.4,-1.4 z"
           inkscape:connector-curvature="0"
           style="fill:#9b9a9a" /><path
           id="XMLID_534_"
           d="m 535.3,465.4 13.5,0 c 0.8,0 1.4,0.6 1.4,1.4 l 0,13.5 c 0,0.8 -0.6,1.4 -1.4,1.4 l -13.5,0 c -0.8,0 -1.4,-0.6 -1.4,-1.4 l 0,-13.5 c 0,-0.8 0.6,-1.4 1.4,-1.4 z"
           inkscape:connector-curvature="0"
           style="fill:#cfd0cf" /></g><g
         id="XMLID_563_"><path
           id="XMLID_566_"
           d="m 483.8,487.6 43.7,0 c 0.8,0 1.4,0.6 1.4,1.4 l 0,19.8 c 0,0.8 -0.6,1.4 -1.4,1.4 l -43.7,0 c -0.8,0 -1.4,-0.6 -1.4,-1.4 l 0,-19.8 c 0,-0.7 0.6,-1.4 1.4,-1.4 z"
           inkscape:connector-curvature="0"
           style="fill:#9b9a9a" /><path
           id="XMLID_564_"
           d="m 486.8,489.8 37.8,0 c 0.8,0 1.4,0.6 1.4,1.4 l 0,13.5 c 0,0.8 -0.6,1.4 -1.4,1.4 l -37.8,0 c -0.8,0 -1.4,-0.6 -1.4,-1.4 l 0,-13.4 c -0.1,-0.8 0.6,-1.5 1.4,-1.5 z"
           inkscape:connector-curvature="0"
           style="fill:#cfd0cf" /></g><g
         id="XMLID_553_"><path
           id="XMLID_556_"
           d="m 532.3,487.6 19.4,0 c 0.8,0 1.4,0.6 1.4,1.4 l 0,19.8 c 0,0.8 -0.6,1.4 -1.4,1.4 l -19.4,0 c -0.8,0 -1.4,-0.6 -1.4,-1.4 l 0,-19.8 c 0,-0.7 0.7,-1.4 1.4,-1.4 z"
           inkscape:connector-curvature="0"
           style="fill:#9b9a9a" /><path
           id="XMLID_554_"
           d="m 535.3,489.8 13.5,0 c 0.8,0 1.4,0.6 1.4,1.4 l 0,13.5 c 0,0.8 -0.6,1.4 -1.4,1.4 l -13.5,0 c -0.8,0 -1.4,-0.6 -1.4,-1.4 l 0,-13.4 c 0,-0.8 0.6,-1.5 1.4,-1.5 z"
           inkscape:connector-curvature="0"
           style="fill:#cfd0cf" /></g><g
         id="XMLID_30_"><path
           id="XMLID_83_"
           d="m 213.9,438.5 19.4,0 c 0.8,0 1.4,0.6 1.4,1.4 l 0,19.8 c 0,0.8 -0.6,1.4 -1.4,1.4 l -19.4,0 c -0.8,0 -1.4,-0.6 -1.4,-1.4 l 0,-19.8 c -0.1,-0.7 0.6,-1.4 1.4,-1.4 z"
           inkscape:connector-curvature="0"
           style="fill:#9b9a9a" /><path
           id="XMLID_74_"
           d="m 216.8,440.7 13.5,0 c 0.8,0 1.4,0.6 1.4,1.4 l 0,13.5 c 0,0.8 -0.6,1.4 -1.4,1.4 l -13.5,0 c -0.8,0 -1.4,-0.6 -1.4,-1.4 l 0,-13.5 c 0,-0.7 0.6,-1.4 1.4,-1.4 z"
           inkscape:connector-curvature="0"
           style="fill:#cfd0cf" /></g><g
         id="XMLID_98_"><path
           id="XMLID_109_"
           d="m 190,438.5 19.4,0 c 0.8,0 1.4,0.6 1.4,1.4 l 0,19.8 c 0,0.8 -0.6,1.4 -1.4,1.4 l -19.4,0 c -0.8,0 -1.4,-0.6 -1.4,-1.4 l 0,-19.8 c -0.1,-0.7 0.6,-1.4 1.4,-1.4 z"
           inkscape:connector-curvature="0"
           style="fill:#9b9a9a" /><path
           id="XMLID_99_"
           d="m 192.9,440.7 13.5,0 c 0.8,0 1.4,0.6 1.4,1.4 l 0,13.5 c 0,0.8 -0.6,1.4 -1.4,1.4 l -13.5,0 c -0.8,0 -1.4,-0.6 -1.4,-1.4 l 0,-13.5 c 0,-0.7 0.6,-1.4 1.4,-1.4 z"
           inkscape:connector-curvature="0"
           style="fill:#cfd0cf" /></g><g
         id="XMLID_140_"><path
           id="XMLID_143_"
           d="m 166.1,438.5 19.4,0 c 0.8,0 1.4,0.6 1.4,1.4 l 0,19.8 c 0,0.8 -0.6,1.4 -1.4,1.4 l -19.4,0 c -0.8,0 -1.4,-0.6 -1.4,-1.4 l 0,-19.8 c -0.1,-0.7 0.6,-1.4 1.4,-1.4 z"
           inkscape:connector-curvature="0"
           style="fill:#9b9a9a" /><path
           id="XMLID_141_"
           d="m 169,440.7 13.5,0 c 0.8,0 1.4,0.6 1.4,1.4 l 0,13.5 c 0,0.8 -0.6,1.4 -1.4,1.4 l -13.5,0 c -0.8,0 -1.4,-0.6 -1.4,-1.4 l 0,-13.5 c 0,-0.7 0.6,-1.4 1.4,-1.4 z"
           inkscape:connector-curvature="0"
           style="fill:#cfd0cf" /></g><g
         id="XMLID_145_"><path
           id="XMLID_148_"
           d="m 142.1,438.5 19.4,0 c 0.8,0 1.4,0.6 1.4,1.4 l 0,19.8 c 0,0.8 -0.6,1.4 -1.4,1.4 l -19.4,0 c -0.8,0 -1.4,-0.6 -1.4,-1.4 l 0,-19.8 c 0,-0.7 0.7,-1.4 1.4,-1.4 z"
           inkscape:connector-curvature="0"
           style="fill:#9b9a9a" /><path
           id="XMLID_146_"
           d="m 145.1,440.7 13.5,0 c 0.8,0 1.4,0.6 1.4,1.4 l 0,13.5 c 0,0.8 -0.6,1.4 -1.4,1.4 l -13.5,0 c -0.8,0 -1.4,-0.6 -1.4,-1.4 l 0,-13.5 c 0,-0.7 0.6,-1.4 1.4,-1.4 z"
           inkscape:connector-curvature="0"
           style="fill:#cfd0cf" /></g><g
         id="XMLID_150_"><path
           id="XMLID_153_"
           d="m 118.2,438.5 19.4,0 c 0.8,0 1.4,0.6 1.4,1.4 l 0,19.8 c 0,0.8 -0.6,1.4 -1.4,1.4 l -19.4,0 c -0.8,0 -1.4,-0.6 -1.4,-1.4 l 0,-19.8 c 0,-0.7 0.6,-1.4 1.4,-1.4 z"
           inkscape:connector-curvature="0"
           style="fill:#9b9a9a" /><path
           id="XMLID_151_"
           d="m 121.2,440.7 13.5,0 c 0.8,0 1.4,0.6 1.4,1.4 l 0,13.5 c 0,0.8 -0.6,1.4 -1.4,1.4 l -13.5,0 c -0.8,0 -1.4,-0.6 -1.4,-1.4 l 0,-13.5 c 0,-0.7 0.6,-1.4 1.4,-1.4 z"
           inkscape:connector-curvature="0"
           style="fill:#cfd0cf" /></g><g
         id="XMLID_155_"><path
           id="XMLID_158_"
           d="m 94.3,438.5 19.4,0 c 0.8,0 1.4,0.6 1.4,1.4 l 0,19.8 c 0,0.8 -0.6,1.4 -1.4,1.4 l -19.4,0 c -0.8,0 -1.4,-0.6 -1.4,-1.4 l 0,-19.8 c 0,-0.7 0.6,-1.4 1.4,-1.4 z"
           inkscape:connector-curvature="0"
           style="fill:#9b9a9a" /><path
           id="XMLID_156_"
           d="m 97.3,440.7 13.5,0 c 0.8,0 1.4,0.6 1.4,1.4 l 0,13.5 c 0,0.8 -0.6,1.4 -1.4,1.4 l -13.5,0 c -0.8,0 -1.4,-0.6 -1.4,-1.4 l 0,-13.5 c 0,-0.7 0.6,-1.4 1.4,-1.4 z"
           inkscape:connector-curvature="0"
           style="fill:#cfd0cf" /></g><g
         id="XMLID_160_"><path
           id="XMLID_163_"
           d="m 70.4,438.5 19.4,0 c 0.8,0 1.4,0.6 1.4,1.4 l 0,19.8 c 0,0.8 -0.6,1.4 -1.4,1.4 l -19.4,0 c -0.8,0 -1.4,-0.6 -1.4,-1.4 l 0,-19.8 c 0,-0.7 0.6,-1.4 1.4,-1.4 z"
           inkscape:connector-curvature="0"
           style="fill:#9b9a9a" /><path
           id="XMLID_161_"
           d="m 73.4,440.7 13.5,0 c 0.8,0 1.4,0.6 1.4,1.4 l 0,13.5 c 0,0.8 -0.6,1.4 -1.4,1.4 l -13.5,0 c -0.8,0 -1.4,-0.6 -1.4,-1.4 l 0,-13.5 c -0.1,-0.7 0.6,-1.4 1.4,-1.4 z"
           inkscape:connector-curvature="0"
           style="fill:#cfd0cf" /></g><g
         id="XMLID_365_"><path
           id="XMLID_368_"
           d="m 225.8,462.6 19.4,0 c 0.8,0 1.4,0.6 1.4,1.4 l 0,19.8 c 0,0.8 -0.6,1.4 -1.4,1.4 l -19.4,0 c -0.8,0 -1.4,-0.6 -1.4,-1.4 l 0,-19.8 c 0,-0.8 0.7,-1.4 1.4,-1.4 z"
           inkscape:connector-curvature="0"
           style="fill:#9b9a9a" /><path
           id="XMLID_366_"
           d="m 228.8,464.8 13.5,0 c 0.8,0 1.4,0.6 1.4,1.4 l 0,13.5 c 0,0.8 -0.6,1.4 -1.4,1.4 l -13.5,0 c -0.8,0 -1.4,-0.6 -1.4,-1.4 l 0,-13.5 c 0,-0.8 0.6,-1.4 1.4,-1.4 z"
           inkscape:connector-curvature="0"
           style="fill:#cfd0cf" /></g><g
         id="XMLID_360_"><path
           id="XMLID_363_"
           d="m 249.8,462.6 19.4,0 c 0.8,0 1.4,0.6 1.4,1.4 l 0,19.8 c 0,0.8 -0.6,1.4 -1.4,1.4 l -19.4,0 c -0.8,0 -1.4,-0.6 -1.4,-1.4 l 0,-19.8 c -0.1,-0.8 0.6,-1.4 1.4,-1.4 z"
           inkscape:connector-curvature="0"
           style="fill:#9b9a9a" /><path
           id="XMLID_361_"
           d="m 252.7,464.8 13.5,0 c 0.8,0 1.4,0.6 1.4,1.4 l 0,13.5 c 0,0.8 -0.6,1.4 -1.4,1.4 l -13.5,0 c -0.8,0 -1.4,-0.6 -1.4,-1.4 l 0,-13.5 c 0,-0.8 0.6,-1.4 1.4,-1.4 z"
           inkscape:connector-curvature="0"
           style="fill:#cfd0cf" /></g><g
         id="XMLID_355_"><path
           id="XMLID_358_"
           d="m 273.7,462.6 19.4,0 c 0.8,0 1.4,0.6 1.4,1.4 l 0,19.8 c 0,0.8 -0.6,1.4 -1.4,1.4 l -19.4,0 c -0.8,0 -1.4,-0.6 -1.4,-1.4 l 0,-19.8 c -0.1,-0.8 0.6,-1.4 1.4,-1.4 z"
           inkscape:connector-curvature="0"
           style="fill:#9b9a9a" /><path
           id="XMLID_356_"
           d="m 276.6,464.8 13.5,0 c 0.8,0 1.4,0.6 1.4,1.4 l 0,13.5 c 0,0.8 -0.6,1.4 -1.4,1.4 l -13.5,0 c -0.8,0 -1.4,-0.6 -1.4,-1.4 l 0,-13.5 c 0,-0.8 0.6,-1.4 1.4,-1.4 z"
           inkscape:connector-curvature="0"
           style="fill:#cfd0cf" /></g><g
         id="XMLID_350_"><path
           id="XMLID_353_"
           d="m 297.6,462.6 19.4,0 c 0.8,0 1.4,0.6 1.4,1.4 l 0,19.8 c 0,0.8 -0.6,1.4 -1.4,1.4 l -19.4,0 c -0.8,0 -1.4,-0.6 -1.4,-1.4 l 0,-19.8 c -0.1,-0.8 0.6,-1.4 1.4,-1.4 z"
           inkscape:connector-curvature="0"
           style="fill:#9b9a9a" /><path
           id="XMLID_351_"
           d="m 300.5,464.8 13.5,0 c 0.8,0 1.4,0.6 1.4,1.4 l 0,13.5 c 0,0.8 -0.6,1.4 -1.4,1.4 l -13.5,0 c -0.8,0 -1.4,-0.6 -1.4,-1.4 l 0,-13.5 c 0,-0.8 0.6,-1.4 1.4,-1.4 z"
           inkscape:connector-curvature="0"
           style="fill:#cfd0cf" /></g><g
         id="XMLID_340_"><path
           id="XMLID_343_"
           d="m 201.9,462.6 19.4,0 c 0.8,0 1.4,0.6 1.4,1.4 l 0,19.8 c 0,0.8 -0.6,1.4 -1.4,1.4 l -19.4,0 c -0.8,0 -1.4,-0.6 -1.4,-1.4 l 0,-19.8 c 0,-0.8 0.6,-1.4 1.4,-1.4 z"
           inkscape:connector-curvature="0"
           style="fill:#9b9a9a" /><path
           id="XMLID_341_"
           d="m 204.9,464.8 13.5,0 c 0.8,0 1.4,0.6 1.4,1.4 l 0,13.5 c 0,0.8 -0.6,1.4 -1.4,1.4 l -13.5,0 c -0.8,0 -1.4,-0.6 -1.4,-1.4 l 0,-13.5 c 0,-0.8 0.6,-1.4 1.4,-1.4 z"
           inkscape:connector-curvature="0"
           style="fill:#cfd0cf" /></g><g
         id="XMLID_335_"><path
           id="XMLID_338_"
           d="m 178,462.6 19.4,0 c 0.8,0 1.4,0.6 1.4,1.4 l 0,19.8 c 0,0.8 -0.6,1.4 -1.4,1.4 l -19.4,0 c -0.8,0 -1.4,-0.6 -1.4,-1.4 l 0,-19.8 c 0,-0.8 0.6,-1.4 1.4,-1.4 z"
           inkscape:connector-curvature="0"
           style="fill:#9b9a9a" /><path
           id="XMLID_336_"
           d="m 181,464.8 13.5,0 c 0.8,0 1.4,0.6 1.4,1.4 l 0,13.5 c 0,0.8 -0.6,1.4 -1.4,1.4 l -13.5,0 c -0.8,0 -1.4,-0.6 -1.4,-1.4 l 0,-13.5 c 0,-0.8 0.6,-1.4 1.4,-1.4 z"
           inkscape:connector-curvature="0"
           style="fill:#cfd0cf" /></g><g
         id="XMLID_330_"><path
           id="XMLID_333_"
           d="m 154.1,462.6 19.4,0 c 0.8,0 1.4,0.6 1.4,1.4 l 0,19.8 c 0,0.8 -0.6,1.4 -1.4,1.4 l -19.4,0 c -0.8,0 -1.4,-0.6 -1.4,-1.4 l 0,-19.8 c 0,-0.8 0.6,-1.4 1.4,-1.4 z"
           inkscape:connector-curvature="0"
           style="fill:#9b9a9a" /><path
           id="XMLID_331_"
           d="m 157.1,464.8 13.5,0 c 0.8,0 1.4,0.6 1.4,1.4 l 0,13.5 c 0,0.8 -0.6,1.4 -1.4,1.4 l -13.5,0 c -0.8,0 -1.4,-0.6 -1.4,-1.4 l 0,-13.5 c -0.1,-0.8 0.6,-1.4 1.4,-1.4 z"
           inkscape:connector-curvature="0"
           style="fill:#cfd0cf" /></g><g
         id="XMLID_325_"><path
           id="XMLID_328_"
           d="m 130.2,462.6 19.4,0 c 0.8,0 1.4,0.6 1.4,1.4 l 0,19.8 c 0,0.8 -0.6,1.4 -1.4,1.4 l -19.4,0 c -0.8,0 -1.4,-0.6 -1.4,-1.4 l 0,-19.8 c 0,-0.8 0.6,-1.4 1.4,-1.4 z"
           inkscape:connector-curvature="0"
           style="fill:#9b9a9a" /><path
           id="XMLID_326_"
           d="m 133.2,464.8 13.5,0 c 0.8,0 1.4,0.6 1.4,1.4 l 0,13.5 c 0,0.8 -0.6,1.4 -1.4,1.4 l -13.5,0 c -0.8,0 -1.4,-0.6 -1.4,-1.4 l 0,-13.5 c -0.1,-0.8 0.6,-1.4 1.4,-1.4 z"
           inkscape:connector-curvature="0"
           style="fill:#cfd0cf" /></g><g
         id="XMLID_320_"><path
           id="XMLID_323_"
           d="m 106.3,462.6 19.4,0 c 0.8,0 1.4,0.6 1.4,1.4 l 0,19.8 c 0,0.8 -0.6,1.4 -1.4,1.4 l -19.4,0 c -0.8,0 -1.4,-0.6 -1.4,-1.4 l 0,-19.8 c 0,-0.8 0.6,-1.4 1.4,-1.4 z"
           inkscape:connector-curvature="0"
           style="fill:#9b9a9a" /><path
           id="XMLID_321_"
           d="m 109.3,464.8 13.5,0 c 0.8,0 1.4,0.6 1.4,1.4 l 0,13.5 c 0,0.8 -0.6,1.4 -1.4,1.4 l -13.5,0 c -0.8,0 -1.4,-0.6 -1.4,-1.4 l 0,-13.5 c -0.1,-0.8 0.6,-1.4 1.4,-1.4 z"
           inkscape:connector-curvature="0"
           style="fill:#cfd0cf" /></g><g
         id="XMLID_315_"><path
           id="XMLID_318_"
           d="m 82.4,462.6 19.4,0 c 0.8,0 1.4,0.6 1.4,1.4 l 0,19.8 c 0,0.8 -0.6,1.4 -1.4,1.4 l -19.4,0 c -0.8,0 -1.4,-0.6 -1.4,-1.4 L 81,464 c 0,-0.8 0.6,-1.4 1.4,-1.4 z"
           inkscape:connector-curvature="0"
           style="fill:#9b9a9a" /><path
           id="XMLID_316_"
           d="m 85.4,464.8 13.5,0 c 0.8,0 1.4,0.6 1.4,1.4 l 0,13.5 c 0,0.8 -0.6,1.4 -1.4,1.4 l -13.5,0 c -0.8,0 -1.4,-0.6 -1.4,-1.4 l 0,-13.5 c -0.1,-0.8 0.6,-1.4 1.4,-1.4 z"
           inkscape:connector-curvature="0"
           style="fill:#cfd0cf" /></g><g
         id="XMLID_310_"><path
           id="XMLID_313_"
           d="m 58.5,462.6 19.4,0 c 0.8,0 1.4,0.6 1.4,1.4 l 0,19.8 c 0,0.8 -0.6,1.4 -1.4,1.4 l -19.4,0 c -0.8,0 -1.4,-0.6 -1.4,-1.4 l 0,-19.8 c -0.1,-0.8 0.6,-1.4 1.4,-1.4 z"
           inkscape:connector-curvature="0"
           style="fill:#9b9a9a" /><path
           id="XMLID_311_"
           d="m 61.4,464.8 13.6,0 c 0.8,0 1.4,0.6 1.4,1.4 l 0,13.5 c 0,0.8 -0.6,1.4 -1.4,1.4 l -13.6,0 c -0.8,0 -1.4,-0.6 -1.4,-1.4 l 0,-13.5 c 0,-0.8 0.6,-1.4 1.4,-1.4 z"
           inkscape:connector-curvature="0"
           style="fill:#cfd0cf" /></g><g
         id="XMLID_345_"><path
           id="XMLID_348_"
           d="m 94.3,486.6 210.5,0 c 0.8,0 1.4,0.6 1.4,1.4 l 0,19.8 c 0,0.8 -0.6,1.4 -1.4,1.4 l -210.5,0 c -0.8,0 -1.4,-0.6 -1.4,-1.4 l 0,-19.8 c 0,-0.7 0.6,-1.4 1.4,-1.4 z"
           inkscape:connector-curvature="0"
           style="fill:#9b9a9a" /><path
           id="XMLID_346_"
           d="m 97.3,488.8 204.6,0 c 0.8,0 1.4,0.6 1.4,1.4 l 0,13.5 c 0,0.8 -0.6,1.4 -1.4,1.4 l -204.6,0 c -0.8,0 -1.4,-0.6 -1.4,-1.4 l 0,-13.4 c 0,-0.8 0.6,-1.5 1.4,-1.5 z"
           inkscape:connector-curvature="0"
           style="fill:#cfd0cf" /></g><g
         id="XMLID_240_"><path
           id="XMLID_243_"
           d="m 231,414.5 19.4,0 c 0.8,0 1.4,0.6 1.4,1.4 l 0,19.8 c 0,0.8 -0.6,1.4 -1.4,1.4 l -19.4,0 c -0.8,0 -1.4,-0.6 -1.4,-1.4 l 0,-19.8 c 0,-0.8 0.6,-1.4 1.4,-1.4 z"
           inkscape:connector-curvature="0"
           style="fill:#9b9a9a" /><path
           id="XMLID_241_"
           d="m 234,416.7 13.5,0 c 0.8,0 1.4,0.6 1.4,1.4 l 0,13.5 c 0,0.8 -0.6,1.4 -1.4,1.4 l -13.5,0 c -0.8,0 -1.4,-0.6 -1.4,-1.4 l 0,-13.5 c 0,-0.8 0.6,-1.4 1.4,-1.4 z"
           inkscape:connector-curvature="0"
           style="fill:#cfd0cf" /></g><g
         id="XMLID_235_"><path
           id="XMLID_238_"
           d="m 254.9,414.5 19.4,0 c 0.8,0 1.4,0.6 1.4,1.4 l 0,19.8 c 0,0.8 -0.6,1.4 -1.4,1.4 l -19.4,0 c -0.8,0 -1.4,-0.6 -1.4,-1.4 l 0,-19.8 c 0,-0.8 0.6,-1.4 1.4,-1.4 z"
           inkscape:connector-curvature="0"
           style="fill:#9b9a9a" /><path
           id="XMLID_236_"
           d="m 257.9,416.7 13.5,0 c 0.8,0 1.4,0.6 1.4,1.4 l 0,13.5 c 0,0.8 -0.6,1.4 -1.4,1.4 l -13.5,0 c -0.8,0 -1.4,-0.6 -1.4,-1.4 l 0,-13.5 c 0,-0.8 0.6,-1.4 1.4,-1.4 z"
           inkscape:connector-curvature="0"
           style="fill:#cfd0cf" /></g><g
         id="XMLID_230_"><path
           id="XMLID_233_"
           d="m 278.9,414.5 19.4,0 c 0.8,0 1.4,0.6 1.4,1.4 l 0,19.8 c 0,0.8 -0.6,1.4 -1.4,1.4 l -19.4,0 c -0.8,0 -1.4,-0.6 -1.4,-1.4 l 0,-19.8 c -0.1,-0.8 0.6,-1.4 1.4,-1.4 z"
           inkscape:connector-curvature="0"
           style="fill:#9b9a9a" /><path
           id="XMLID_231_"
           d="m 281.8,416.7 13.5,0 c 0.8,0 1.4,0.6 1.4,1.4 l 0,13.5 c 0,0.8 -0.6,1.4 -1.4,1.4 l -13.5,0 c -0.8,0 -1.4,-0.6 -1.4,-1.4 l 0,-13.5 c 0,-0.8 0.6,-1.4 1.4,-1.4 z"
           inkscape:connector-curvature="0"
           style="fill:#cfd0cf" /></g><g
         id="XMLID_225_"><path
           id="XMLID_228_"
           d="m 302.8,414.5 19.4,0 c 0.8,0 1.4,0.6 1.4,1.4 l 0,19.8 c 0,0.8 -0.6,1.4 -1.4,1.4 l -19.4,0 c -0.8,0 -1.4,-0.6 -1.4,-1.4 l 0,-19.8 c -0.1,-0.8 0.6,-1.4 1.4,-1.4 z"
           inkscape:connector-curvature="0"
           style="fill:#9b9a9a" /><path
           id="XMLID_226_"
           d="m 305.7,416.7 13.5,0 c 0.8,0 1.4,0.6 1.4,1.4 l 0,13.5 c 0,0.8 -0.6,1.4 -1.4,1.4 l -13.5,0 c -0.8,0 -1.4,-0.6 -1.4,-1.4 l 0,-13.5 c 0,-0.8 0.6,-1.4 1.4,-1.4 z"
           inkscape:connector-curvature="0"
           style="fill:#cfd0cf" /></g><g
         id="XMLID_220_"><path
           id="XMLID_223_"
           d="m 326.7,414.5 19.4,0 c 0.8,0 1.4,0.6 1.4,1.4 l 0,19.8 c 0,0.8 -0.6,1.4 -1.4,1.4 l -19.4,0 c -0.8,0 -1.4,-0.6 -1.4,-1.4 l 0,-19.8 c -0.1,-0.8 0.6,-1.4 1.4,-1.4 z"
           inkscape:connector-curvature="0"
           style="fill:#9b9a9a" /><path
           id="XMLID_221_"
           d="m 329.6,416.7 13.5,0 c 0.8,0 1.4,0.6 1.4,1.4 l 0,13.5 c 0,0.8 -0.6,1.4 -1.4,1.4 l -13.5,0 c -0.8,0 -1.4,-0.6 -1.4,-1.4 l 0,-13.5 c 0,-0.8 0.6,-1.4 1.4,-1.4 z"
           inkscape:connector-curvature="0"
           style="fill:#cfd0cf" /></g><g
         id="XMLID_215_"><path
           id="XMLID_218_"
           d="m 207.1,414.5 19.4,0 c 0.8,0 1.4,0.6 1.4,1.4 l 0,19.8 c 0,0.8 -0.6,1.4 -1.4,1.4 l -19.4,0 c -0.8,0 -1.4,-0.6 -1.4,-1.4 l 0,-19.8 c 0,-0.8 0.6,-1.4 1.4,-1.4 z"
           inkscape:connector-curvature="0"
           style="fill:#9b9a9a" /><path
           id="XMLID_216_"
           d="m 210.1,416.7 13.5,0 c 0.8,0 1.4,0.6 1.4,1.4 l 0,13.5 c 0,0.8 -0.6,1.4 -1.4,1.4 l -13.5,0 c -0.8,0 -1.4,-0.6 -1.4,-1.4 l 0,-13.5 c 0,-0.8 0.6,-1.4 1.4,-1.4 z"
           inkscape:connector-curvature="0"
           style="fill:#cfd0cf" /></g><g
         id="XMLID_210_"><path
           id="XMLID_213_"
           d="m 183.6,414.5 19.4,0 c 0.8,0 1.4,0.6 1.4,1.4 l 0,19.8 c 0,0.8 -0.6,1.4 -1.4,1.4 l -19.4,0 c -0.8,0 -1.4,-0.6 -1.4,-1.4 l 0,-19.8 c -0.1,-0.8 0.6,-1.4 1.4,-1.4 z"
           inkscape:connector-curvature="0"
           style="fill:#9b9a9a" /><path
           id="XMLID_211_"
           d="m 186.5,416.7 13.5,0 c 0.8,0 1.4,0.6 1.4,1.4 l 0,13.5 c 0,0.8 -0.6,1.4 -1.4,1.4 l -13.5,0 c -0.8,0 -1.4,-0.6 -1.4,-1.4 l 0,-13.5 c 0,-0.8 0.6,-1.4 1.4,-1.4 z"
           inkscape:connector-curvature="0"
           style="fill:#cfd0cf" /></g><g
         id="XMLID_205_"><path
           id="XMLID_208_"
           d="m 159.3,414.5 19.4,0 c 0.8,0 1.4,0.6 1.4,1.4 l 0,19.8 c 0,0.8 -0.6,1.4 -1.4,1.4 l -19.4,0 c -0.8,0 -1.4,-0.6 -1.4,-1.4 l 0,-19.8 c 0,-0.8 0.6,-1.4 1.4,-1.4 z"
           inkscape:connector-curvature="0"
           style="fill:#9b9a9a" /><path
           id="XMLID_206_"
           d="m 162.3,416.7 13.5,0 c 0.8,0 1.4,0.6 1.4,1.4 l 0,13.5 c 0,0.8 -0.6,1.4 -1.4,1.4 l -13.5,0 c -0.8,0 -1.4,-0.6 -1.4,-1.4 l 0,-13.5 c -0.1,-0.8 0.6,-1.4 1.4,-1.4 z"
           inkscape:connector-curvature="0"
           style="fill:#cfd0cf" /></g><g
         id="XMLID_200_"><path
           id="XMLID_203_"
           d="m 135.4,414.5 19.4,0 c 0.8,0 1.4,0.6 1.4,1.4 l 0,19.8 c 0,0.8 -0.6,1.4 -1.4,1.4 l -19.4,0 c -0.8,0 -1.4,-0.6 -1.4,-1.4 l 0,-19.8 c 0,-0.8 0.6,-1.4 1.4,-1.4 z"
           inkscape:connector-curvature="0"
           style="fill:#9b9a9a" /><path
           id="XMLID_201_"
           d="m 138.4,416.7 13.5,0 c 0.8,0 1.4,0.6 1.4,1.4 l 0,13.5 c 0,0.8 -0.6,1.4 -1.4,1.4 l -13.5,0 c -0.8,0 -1.4,-0.6 -1.4,-1.4 l 0,-13.5 c -0.1,-0.8 0.6,-1.4 1.4,-1.4 z"
           inkscape:connector-curvature="0"
           style="fill:#cfd0cf" /></g><g
         id="XMLID_195_"><path
           id="XMLID_198_"
           d="m 111.5,414.5 19.4,0 c 0.8,0 1.4,0.6 1.4,1.4 l 0,19.8 c 0,0.8 -0.6,1.4 -1.4,1.4 l -19.4,0 c -0.8,0 -1.4,-0.6 -1.4,-1.4 l 0,-19.8 c 0,-0.8 0.6,-1.4 1.4,-1.4 z"
           inkscape:connector-curvature="0"
           style="fill:#9b9a9a" /><path
           id="XMLID_196_"
           d="m 114.5,416.7 13.5,0 c 0.8,0 1.4,0.6 1.4,1.4 l 0,13.5 c 0,0.8 -0.6,1.4 -1.4,1.4 l -13.5,0 c -0.8,0 -1.4,-0.6 -1.4,-1.4 l 0,-13.5 c -0.1,-0.8 0.6,-1.4 1.4,-1.4 z"
           inkscape:connector-curvature="0"
           style="fill:#cfd0cf" /></g><g
         id="XMLID_190_"><path
           id="XMLID_193_"
           d="m 87.6,414.5 19.4,0 c 0.8,0 1.4,0.6 1.4,1.4 l 0,19.8 c 0,0.8 -0.6,1.4 -1.4,1.4 l -19.4,0 c -0.8,0 -1.4,-0.6 -1.4,-1.4 l 0,-19.8 c -0.1,-0.8 0.6,-1.4 1.4,-1.4 z"
           inkscape:connector-curvature="0"
           style="fill:#9b9a9a" /><path
           id="XMLID_191_"
           d="m 90.5,416.7 13.5,0 c 0.8,0 1.4,0.6 1.4,1.4 l 0,13.5 c 0,0.8 -0.6,1.4 -1.4,1.4 l -13.5,0 c -0.8,0 -1.4,-0.6 -1.4,-1.4 l 0,-13.5 c 0,-0.8 0.6,-1.4 1.4,-1.4 z"
           inkscape:connector-curvature="0"
           style="fill:#cfd0cf" /></g><g
         id="XMLID_185_"><path
           id="XMLID_188_"
           d="m 63.7,414.5 19.4,0 c 0.8,0 1.4,0.6 1.4,1.4 l 0,19.8 c 0,0.8 -0.6,1.4 -1.4,1.4 l -19.4,0 c -0.8,0 -1.4,-0.6 -1.4,-1.4 l 0,-19.8 c -0.1,-0.8 0.6,-1.4 1.4,-1.4 z"
           inkscape:connector-curvature="0"
           style="fill:#9b9a9a" /><path
           id="XMLID_186_"
           d="m 66.6,416.7 13.5,0 c 0.8,0 1.4,0.6 1.4,1.4 l 0,13.5 c 0,0.8 -0.6,1.4 -1.4,1.4 l -13.5,0 c -0.8,0 -1.4,-0.6 -1.4,-1.4 l 0,-13.5 c 0,-0.8 0.6,-1.4 1.4,-1.4 z"
           inkscape:connector-curvature="0"
           style="fill:#cfd0cf" /></g><g
         id="XMLID_300_"><path
           id="XMLID_303_"
           d="m 218.6,390.5 19.4,0 c 0.8,0 1.4,0.6 1.4,1.4 l 0,19.8 c 0,0.8 -0.6,1.4 -1.4,1.4 l -19.4,0 c -0.8,0 -1.4,-0.6 -1.4,-1.4 l 0,-19.8 c 0,-0.8 0.6,-1.4 1.4,-1.4 z"
           inkscape:connector-curvature="0"
           style="fill:#9b9a9a" /><path
           id="XMLID_301_"
           d="m 221.6,392.7 13.5,0 c 0.8,0 1.4,0.6 1.4,1.4 l 0,13.5 c 0,0.8 -0.6,1.4 -1.4,1.4 l -13.5,0 c -0.8,0 -1.4,-0.6 -1.4,-1.4 l 0,-13.5 c 0,-0.8 0.6,-1.4 1.4,-1.4 z"
           inkscape:connector-curvature="0"
           style="fill:#cfd0cf" /></g><g
         id="XMLID_295_"><path
           id="XMLID_298_"
           d="m 242.6,390.5 19.4,0 c 0.8,0 1.4,0.6 1.4,1.4 l 0,19.8 c 0,0.8 -0.6,1.4 -1.4,1.4 l -19.4,0 c -0.8,0 -1.4,-0.6 -1.4,-1.4 l 0,-19.8 c -0.1,-0.8 0.6,-1.4 1.4,-1.4 z"
           inkscape:connector-curvature="0"
           style="fill:#9b9a9a" /><path
           id="XMLID_296_"
           d="m 245.5,392.7 13.5,0 c 0.8,0 1.4,0.6 1.4,1.4 l 0,13.5 c 0,0.8 -0.6,1.4 -1.4,1.4 l -13.5,0 c -0.8,0 -1.4,-0.6 -1.4,-1.4 l 0,-13.5 c 0,-0.8 0.6,-1.4 1.4,-1.4 z"
           inkscape:connector-curvature="0"
           style="fill:#cfd0cf" /></g><g
         id="XMLID_290_"><path
           id="XMLID_293_"
           d="m 266.5,390.5 19.4,0 c 0.8,0 1.4,0.6 1.4,1.4 l 0,19.8 c 0,0.8 -0.6,1.4 -1.4,1.4 l -19.4,0 c -0.8,0 -1.4,-0.6 -1.4,-1.4 l 0,-19.8 c -0.1,-0.8 0.6,-1.4 1.4,-1.4 z"
           inkscape:connector-curvature="0"
           style="fill:#9b9a9a" /><path
           id="XMLID_291_"
           d="m 269.4,392.7 13.6,0 c 0.8,0 1.4,0.6 1.4,1.4 l 0,13.5 c 0,0.8 -0.6,1.4 -1.4,1.4 l -13.5,0 c -0.8,0 -1.4,-0.6 -1.4,-1.4 l 0,-13.5 c -0.1,-0.8 0.5,-1.4 1.3,-1.4 z"
           inkscape:connector-curvature="0"
           style="fill:#cfd0cf" /></g><g
         id="XMLID_285_"><path
           id="XMLID_288_"
           d="m 290.4,390.5 19.4,0 c 0.8,0 1.4,0.6 1.4,1.4 l 0,19.8 c 0,0.8 -0.6,1.4 -1.4,1.4 l -19.4,0 c -0.8,0 -1.4,-0.6 -1.4,-1.4 l 0,-19.8 c -0.1,-0.8 0.6,-1.4 1.4,-1.4 z"
           inkscape:connector-curvature="0"
           style="fill:#9b9a9a" /><path
           id="XMLID_286_"
           d="m 293.3,392.7 13.5,0 c 0.8,0 1.4,0.6 1.4,1.4 l 0,13.5 c 0,0.8 -0.6,1.4 -1.4,1.4 l -13.5,0 c -0.8,0 -1.4,-0.6 -1.4,-1.4 l 0,-13.5 c 0,-0.8 0.6,-1.4 1.4,-1.4 z"
           inkscape:connector-curvature="0"
           style="fill:#cfd0cf" /></g><g
         id="XMLID_280_"><path
           id="XMLID_283_"
           d="m 314.3,390.5 19.4,0 c 0.8,0 1.4,0.6 1.4,1.4 l 0,19.8 c 0,0.8 -0.6,1.4 -1.4,1.4 l -19.4,0 c -0.8,0 -1.4,-0.6 -1.4,-1.4 l 0,-19.8 c -0.1,-0.8 0.6,-1.4 1.4,-1.4 z"
           inkscape:connector-curvature="0"
           style="fill:#9b9a9a" /><path
           id="XMLID_281_"
           d="m 317.2,392.7 13.5,0 c 0.8,0 1.4,0.6 1.4,1.4 l 0,13.5 c 0,0.8 -0.6,1.4 -1.4,1.4 l -13.5,0 c -0.8,0 -1.4,-0.6 -1.4,-1.4 l 0,-13.5 c 0,-0.8 0.6,-1.4 1.4,-1.4 z"
           inkscape:connector-curvature="0"
           style="fill:#cfd0cf" /></g><g
         id="XMLID_305_"><path
           id="XMLID_308_"
           d="m 338.2,390.5 19.4,0 c 0.8,0 1.4,0.6 1.4,1.4 l 0,19.8 c 0,0.8 -0.6,1.4 -1.4,1.4 l -19.4,0 c -0.8,0 -1.4,-0.6 -1.4,-1.4 l 0,-19.8 c -0.1,-0.8 0.6,-1.4 1.4,-1.4 z"
           inkscape:connector-curvature="0"
           style="fill:#9b9a9a" /><path
           id="XMLID_306_"
           d="m 341.1,392.7 13.5,0 c 0.8,0 1.4,0.6 1.4,1.4 l 0,13.5 c 0,0.8 -0.6,1.4 -1.4,1.4 l -13.5,0 c -0.8,0 -1.4,-0.6 -1.4,-1.4 l 0,-13.5 c 0,-0.8 0.7,-1.4 1.4,-1.4 z"
           inkscape:connector-curvature="0"
           style="fill:#cfd0cf" /></g><g
         id="XMLID_275_"><path
           id="XMLID_278_"
           d="m 194.7,390.5 19.4,0 c 0.8,0 1.4,0.6 1.4,1.4 l 0,19.8 c 0,0.8 -0.6,1.4 -1.4,1.4 l -19.4,0 c -0.8,0 -1.4,-0.6 -1.4,-1.4 l 0,-19.8 c 0,-0.8 0.6,-1.4 1.4,-1.4 z"
           inkscape:connector-curvature="0"
           style="fill:#9b9a9a" /><path
           id="XMLID_276_"
           d="m 197.7,392.7 13.5,0 c 0.8,0 1.4,0.6 1.4,1.4 l 0,13.5 c 0,0.8 -0.6,1.4 -1.4,1.4 l -13.5,0 c -0.8,0 -1.4,-0.6 -1.4,-1.4 l 0,-13.5 c 0,-0.8 0.6,-1.4 1.4,-1.4 z"
           inkscape:connector-curvature="0"
           style="fill:#cfd0cf" /></g><g
         id="XMLID_270_"><path
           id="XMLID_273_"
           d="m 170.8,390.5 19.4,0 c 0.8,0 1.4,0.6 1.4,1.4 l 0,19.8 c 0,0.8 -0.6,1.4 -1.4,1.4 l -19.4,0 c -0.8,0 -1.4,-0.6 -1.4,-1.4 l 0,-19.8 c 0,-0.8 0.6,-1.4 1.4,-1.4 z"
           inkscape:connector-curvature="0"
           style="fill:#9b9a9a" /><path
           id="XMLID_271_"
           d="m 173.8,392.7 13.5,0 c 0.8,0 1.4,0.6 1.4,1.4 l 0,13.5 c 0,0.8 -0.6,1.4 -1.4,1.4 l -13.5,0 c -0.8,0 -1.4,-0.6 -1.4,-1.4 l 0,-13.5 c -0.1,-0.8 0.6,-1.4 1.4,-1.4 z"
           inkscape:connector-curvature="0"
           style="fill:#cfd0cf" /></g><g
         id="XMLID_265_"><path
           id="XMLID_268_"
           d="m 146.9,390.5 19.4,0 c 0.8,0 1.4,0.6 1.4,1.4 l 0,19.8 c 0,0.8 -0.6,1.4 -1.4,1.4 l -19.4,0 c -0.8,0 -1.4,-0.6 -1.4,-1.4 l 0,-19.8 c 0,-0.8 0.6,-1.4 1.4,-1.4 z"
           inkscape:connector-curvature="0"
           style="fill:#9b9a9a" /><path
           id="XMLID_266_"
           d="m 149.9,392.7 13.5,0 c 0.8,0 1.4,0.6 1.4,1.4 l 0,13.5 c 0,0.8 -0.6,1.4 -1.4,1.4 l -13.5,0 c -0.8,0 -1.4,-0.6 -1.4,-1.4 l 0,-13.5 c -0.1,-0.8 0.6,-1.4 1.4,-1.4 z"
           inkscape:connector-curvature="0"
           style="fill:#cfd0cf" /></g><g
         id="XMLID_260_"><path
           id="XMLID_263_"
           d="m 123,390.5 19.4,0 c 0.8,0 1.4,0.6 1.4,1.4 l 0,19.8 c 0,0.8 -0.6,1.4 -1.4,1.4 l -19.4,0 c -0.8,0 -1.4,-0.6 -1.4,-1.4 l 0,-19.8 c 0,-0.8 0.6,-1.4 1.4,-1.4 z"
           inkscape:connector-curvature="0"
           style="fill:#9b9a9a" /><path
           id="XMLID_261_"
           d="m 126,392.7 13.5,0 c 0.8,0 1.4,0.6 1.4,1.4 l 0,13.5 c 0,0.8 -0.6,1.4 -1.4,1.4 l -13.5,0 c -0.8,0 -1.4,-0.6 -1.4,-1.4 l 0,-13.5 c -0.1,-0.8 0.6,-1.4 1.4,-1.4 z"
           inkscape:connector-curvature="0"
           style="fill:#cfd0cf" /></g><g
         id="XMLID_255_"><path
           id="XMLID_258_"
           d="m 99.1,390.5 19.4,0 c 0.8,0 1.4,0.6 1.4,1.4 l 0,19.8 c 0,0.8 -0.6,1.4 -1.4,1.4 l -19.4,0 c -0.8,0 -1.4,-0.6 -1.4,-1.4 l 0,-19.8 c 0,-0.8 0.6,-1.4 1.4,-1.4 z"
           inkscape:connector-curvature="0"
           style="fill:#9b9a9a" /><path
           id="XMLID_256_"
           d="m 102.1,392.7 13.5,0 c 0.8,0 1.4,0.6 1.4,1.4 l 0,13.5 c 0,0.8 -0.6,1.4 -1.4,1.4 l -13.5,0 c -0.8,0 -1.4,-0.6 -1.4,-1.4 l 0,-13.5 c -0.1,-0.8 0.6,-1.4 1.4,-1.4 z"
           inkscape:connector-curvature="0"
           style="fill:#cfd0cf" /></g><g
         id="XMLID_250_"><path
           id="XMLID_253_"
           d="m 75.2,390.5 19.4,0 c 0.8,0 1.4,0.6 1.4,1.4 l 0,19.8 c 0,0.8 -0.6,1.4 -1.4,1.4 l -19.4,0 c -0.8,0 -1.4,-0.6 -1.4,-1.4 l 0,-19.8 c -0.1,-0.8 0.6,-1.4 1.4,-1.4 z"
           inkscape:connector-curvature="0"
           style="fill:#9b9a9a" /><path
           id="XMLID_251_"
           d="m 78.1,392.7 13.5,0 c 0.8,0 1.4,0.6 1.4,1.4 l 0,13.5 c 0,0.8 -0.6,1.4 -1.4,1.4 l -13.5,0 c -0.8,0 -1.4,-0.6 -1.4,-1.4 l 0,-13.5 c 0,-0.8 0.7,-1.4 1.4,-1.4 z"
           inkscape:connector-curvature="0"
           style="fill:#cfd0cf" /></g><g
         id="XMLID_245_"><path
           id="XMLID_248_"
           d="m 51.3,390.5 19.4,0 c 0.8,0 1.4,0.6 1.4,1.4 l 0,19.8 c 0,0.8 -0.6,1.4 -1.4,1.4 l -19.4,0 c -0.8,0 -1.4,-0.6 -1.4,-1.4 l 0,-19.8 c -0.1,-0.8 0.6,-1.4 1.4,-1.4 z"
           inkscape:connector-curvature="0"
           style="fill:#9b9a9a" /><path
           id="XMLID_246_"
           d="m 54.2,392.7 13.5,0 c 0.8,0 1.4,0.6 1.4,1.4 l 0,13.5 c 0,0.8 -0.6,1.4 -1.4,1.4 l -13.5,0 c -0.8,0 -1.4,-0.6 -1.4,-1.4 l 0,-13.5 c 0,-0.8 0.6,-1.4 1.4,-1.4 z"
           inkscape:connector-curvature="0"
           style="fill:#cfd0cf" /></g><g
         id="XMLID_476_"><path
           id="XMLID_479_"
           d="m 13.5,462.6 40.1,0 c 0.8,0 1.4,0.6 1.4,1.4 l 0,19.8 c 0,0.8 -0.6,1.4 -1.4,1.4 l -40.1,0 c -0.8,0 -1.4,-0.6 -1.4,-1.4 l 0,-19.8 c -0.1,-0.8 0.6,-1.4 1.4,-1.4 z"
           inkscape:connector-curvature="0"
           style="fill:#60605d" /><path
           id="XMLID_477_"
           d="m 16.4,464.8 34.2,0 c 0.8,0 1.4,0.6 1.4,1.4 l 0,13.5 c 0,0.8 -0.6,1.4 -1.4,1.4 l -34.2,0 c -0.8,0 -1.4,-0.6 -1.4,-1.4 l 0,-13.5 c 0,-0.8 0.6,-1.4 1.4,-1.4 z"
           inkscape:connector-curvature="0"
           style="fill:#868580" /></g><g
         id="XMLID_470_"><path
           id="XMLID_474_"
           d="m 321.4,462.6 60.3,0 c 0.8,0 1.4,0.6 1.4,1.4 l 0,19.8 c 0,0.8 -0.6,1.4 -1.4,1.4 l -60.3,0 c -0.8,0 -1.4,-0.6 -1.4,-1.4 l 0,-19.8 c -0.1,-0.8 0.6,-1.4 1.4,-1.4 z"
           inkscape:connector-curvature="0"
           style="fill:#60605d" /><path
           id="XMLID_471_"
           d="m 324.3,464.8 54.4,0 c 0.8,0 1.4,0.6 1.4,1.4 l 0,13.5 c 0,0.8 -0.6,1.4 -1.4,1.4 l -54.4,0 c -0.8,0 -1.4,-0.6 -1.4,-1.4 l 0,-13.5 c 0,-0.8 0.6,-1.4 1.4,-1.4 z"
           inkscape:connector-curvature="0"
           style="fill:#868580" /></g><g
         id="XMLID_445_"><path
           id="XMLID_448_"
           d="m 32.8,486.6 26.8,0 c 0.8,0 1.4,0.6 1.4,1.4 l 0,19.8 c 0,0.8 -0.6,1.4 -1.4,1.4 l -26.8,0 c -0.8,0 -1.4,-0.6 -1.4,-1.4 l 0,-19.8 c -0.1,-0.7 0.6,-1.4 1.4,-1.4 z"
           inkscape:connector-curvature="0"
           style="fill:#60605d" /><path
           id="XMLID_446_"
           d="m 35.7,488.8 20.9,0 c 0.8,0 1.4,0.6 1.4,1.4 l 0,13.5 c 0,0.8 -0.6,1.4 -1.4,1.4 l -20.9,0 c -0.8,0 -1.4,-0.6 -1.4,-1.4 l 0,-13.4 c 0,-0.8 0.6,-1.5 1.4,-1.5 z"
           inkscape:connector-curvature="0"
           style="fill:#868580" /></g><g
         id="XMLID_440_"><path
           id="XMLID_443_"
           d="m 63.7,486.6 26.8,0 c 0.8,0 1.4,0.6 1.4,1.4 l 0,19.8 c 0,0.8 -0.6,1.4 -1.4,1.4 l -26.8,0 c -0.8,0 -1.4,-0.6 -1.4,-1.4 l 0,-19.8 c -0.1,-0.7 0.6,-1.4 1.4,-1.4 z"
           inkscape:connector-curvature="0"
           style="fill:#60605d" /><path
           id="XMLID_441_"
           d="m 66.6,488.8 20.9,0 c 0.8,0 1.4,0.6 1.4,1.4 l 0,13.5 c 0,0.8 -0.6,1.4 -1.4,1.4 l -20.9,0 c -0.8,0 -1.4,-0.6 -1.4,-1.4 l 0,-13.4 c 0,-0.8 0.6,-1.5 1.4,-1.5 z"
           inkscape:connector-curvature="0"
           style="fill:#868580" /></g><g
         id="XMLID_385_"><path
           id="XMLID_388_"
           d="m 399.1,390.5 32.4,0 c 0.8,0 1.4,0.6 1.4,1.4 l 0,19.8 c 0,0.8 -0.6,1.4 -1.4,1.4 l -32.4,0 c -0.8,0 -1.4,-0.6 -1.4,-1.4 l 0,-19.8 c -0.1,-0.8 0.6,-1.4 1.4,-1.4 z"
           inkscape:connector-curvature="0"
           style="fill:#60605d" /><path
           id="XMLID_386_"
           d="m 402,392.7 26.5,0 c 0.8,0 1.4,0.6 1.4,1.4 l 0,13.5 c 0,0.8 -0.6,1.4 -1.4,1.4 l -26.5,0 c -0.8,0 -1.4,-0.6 -1.4,-1.4 l 0,-13.5 c 0,-0.8 0.6,-1.4 1.4,-1.4 z"
           inkscape:connector-curvature="0"
           style="fill:#868580" /></g><g
         id="XMLID_380_"><path
           id="XMLID_383_"
           d="m 435.5,390.5 32.5,0 c 0.8,0 1.4,0.6 1.4,1.4 l 0,19.8 c 0,0.8 -0.6,1.4 -1.4,1.4 l -32.4,0 c -0.8,0 -1.4,-0.6 -1.4,-1.4 l 0,-19.8 c -0.1,-0.8 0.5,-1.4 1.3,-1.4 z"
           inkscape:connector-curvature="0"
           style="fill:#60605d" /><path
           id="XMLID_381_"
           d="m 438.5,392.7 26.5,0 c 0.8,0 1.4,0.6 1.4,1.4 l 0,13.5 c 0,0.8 -0.6,1.4 -1.4,1.4 l -26.5,0 c -0.8,0 -1.4,-0.6 -1.4,-1.4 l 0,-13.5 c 0,-0.8 0.6,-1.4 1.4,-1.4 z"
           inkscape:connector-curvature="0"
           style="fill:#868580" /></g><g
         id="XMLID_435_"><path
           id="XMLID_438_"
           d="m 309.1,486.6 25.8,0 c 0.8,0 1.4,0.6 1.4,1.4 l 0,19.8 c 0,0.8 -0.6,1.4 -1.4,1.4 l -25.8,0 c -0.8,0 -1.4,-0.6 -1.4,-1.4 l 0,-19.8 c 0,-0.7 0.6,-1.4 1.4,-1.4 z"
           inkscape:connector-curvature="0"
           style="fill:#60605d" /><path
           id="XMLID_436_"
           d="m 312.1,488.8 19.9,0 c 0.8,0 1.4,0.6 1.4,1.4 l 0,13.5 c 0,0.8 -0.6,1.4 -1.4,1.4 l -19.9,0 c -0.8,0 -1.4,-0.6 -1.4,-1.4 l 0,-13.4 c 0,-0.8 0.6,-1.5 1.4,-1.5 z"
           inkscape:connector-curvature="0"
           style="fill:#868580" /></g><g
         id="XMLID_430_"><path
           id="XMLID_433_"
           d="m 339.5,486.6 25.8,0 c 0.8,0 1.4,0.6 1.4,1.4 l 0,19.8 c 0,0.8 -0.6,1.4 -1.4,1.4 l -25.8,0 c -0.8,0 -1.4,-0.6 -1.4,-1.4 l 0,-19.8 c -0.1,-0.7 0.6,-1.4 1.4,-1.4 z"
           inkscape:connector-curvature="0"
           style="fill:#60605d" /><path
           id="XMLID_431_"
           d="m 342.4,488.8 19.9,0 c 0.8,0 1.4,0.6 1.4,1.4 l 0,13.5 c 0,0.8 -0.6,1.4 -1.4,1.4 l -19.9,0 c -0.8,0 -1.4,-0.6 -1.4,-1.4 l 0,-13.4 c 0,-0.8 0.6,-1.5 1.4,-1.5 z"
           inkscape:connector-curvature="0"
           style="fill:#868580" /></g><g
         id="XMLID_405_"><path
           id="XMLID_408_"
           d="m 13.5,438.5 28.5,0 c 0.8,0 1.4,0.6 1.4,1.4 l 0,19.8 c 0,0.8 -0.6,1.4 -1.4,1.4 l -28.5,0 c -0.8,0 -1.4,-0.6 -1.4,-1.4 l 0,-19.8 c -0.1,-0.7 0.6,-1.4 1.4,-1.4 z"
           inkscape:connector-curvature="0"
           style="fill:#60605d" /><path
           id="XMLID_406_"
           d="m 16.4,440.7 22.6,0 c 0.8,0 1.4,0.6 1.4,1.4 l 0,13.5 c 0,0.8 -0.6,1.4 -1.4,1.4 l -22.6,0 c -0.8,0 -1.4,-0.6 -1.4,-1.4 l 0,-13.5 c 0,-0.7 0.6,-1.4 1.4,-1.4 z"
           inkscape:connector-curvature="0"
           style="fill:#868580" /></g><g
         id="XMLID_400_"><path
           id="XMLID_403_"
           d="m 46.7,438.5 19.2,0 c 0.8,0 1.4,0.6 1.4,1.4 l 0,19.8 c 0,0.8 -0.6,1.4 -1.4,1.4 l -19.2,0 c -0.8,0 -1.4,-0.6 -1.4,-1.4 l 0,-19.8 c 0,-0.7 0.6,-1.4 1.4,-1.4 z"
           inkscape:connector-curvature="0"
           style="fill:#60605d" /><path
           id="XMLID_401_"
           d="m 49.7,440.7 13.3,0 c 0.8,0 1.4,0.6 1.4,1.4 l 0,13.5 c 0,0.8 -0.6,1.4 -1.4,1.4 l -13.3,0 c -0.8,0 -1.4,-0.6 -1.4,-1.4 l 0,-13.5 c 0,-0.7 0.6,-1.4 1.4,-1.4 z"
           inkscape:connector-curvature="0"
           style="fill:#868580" /></g><g
         id="XMLID_395_"><path
           id="XMLID_398_"
           d="m 362.1,390.5 19.2,0 c 0.8,0 1.4,0.6 1.4,1.4 l 0,19.8 c 0,0.8 -0.6,1.4 -1.4,1.4 l -19.2,0 c -0.8,0 -1.4,-0.6 -1.4,-1.4 l 0,-19.8 c 0,-0.8 0.6,-1.4 1.4,-1.4 z"
           inkscape:connector-curvature="0"
           style="fill:#60605d" /><path
           id="XMLID_396_"
           d="m 365.1,392.7 13.3,0 c 0.8,0 1.4,0.6 1.4,1.4 l 0,13.5 c 0,0.8 -0.6,1.4 -1.4,1.4 l -13.3,0 c -0.8,0 -1.4,-0.6 -1.4,-1.4 l 0,-13.5 c -0.1,-0.8 0.6,-1.4 1.4,-1.4 z"
           inkscape:connector-curvature="0"
           style="fill:#868580" /></g><g
         id="XMLID_375_"><path
           id="XMLID_378_"
           d="m 13.5,414.5 45.8,0 c 0.8,0 1.4,0.6 1.4,1.4 l 0,19.8 c 0,0.8 -0.6,1.4 -1.4,1.4 l -45.8,0 c -0.8,0 -1.4,-0.6 -1.4,-1.4 l 0,-19.8 c -0.1,-0.8 0.6,-1.4 1.4,-1.4 z"
           inkscape:connector-curvature="0"
           style="fill:#60605d" /><path
           id="XMLID_376_"
           d="m 16.4,416.7 39.9,0 c 0.8,0 1.4,0.6 1.4,1.4 l 0,13.5 c 0,0.8 -0.6,1.4 -1.4,1.4 l -39.9,0 c -0.8,0 -1.4,-0.6 -1.4,-1.4 l 0,-13.5 c 0,-0.8 0.6,-1.4 1.4,-1.4 z"
           inkscape:connector-curvature="0"
           style="fill:#868580" /></g><g
         id="XMLID_370_"><path
           id="XMLID_373_"
           d="m 13.5,390.5 33.4,0 c 0.8,0 1.4,0.6 1.4,1.4 l 0,19.8 c 0,0.8 -0.6,1.4 -1.4,1.4 l -33.4,0 c -0.8,0 -1.4,-0.6 -1.4,-1.4 l 0,-19.8 c -0.1,-0.8 0.6,-1.4 1.4,-1.4 z"
           inkscape:connector-curvature="0"
           style="fill:#60605d" /><path
           id="XMLID_371_"
           d="m 16.4,392.7 27.5,0 c 0.8,0 1.4,0.6 1.4,1.4 l 0,13.5 c 0,0.8 -0.6,1.4 -1.4,1.4 l -27.5,0 c -0.8,0 -1.4,-0.6 -1.4,-1.4 l 0,-13.5 c 0,-0.8 0.6,-1.4 1.4,-1.4 z"
           inkscape:connector-curvature="0"
           style="fill:#868580" /></g><g
         id="XMLID_528_"><path
           id="XMLID_28_"
           d="m 350.8,414.5 30.5,0 c 0.8,0 1.4,0.6 1.4,1.4 l 0,43.7 c 0,0.8 -0.6,1.4 -1.4,1.4 l -23.5,0 c -0.8,0 -1.4,-0.6 -1.4,-1.4 0,0 0,-16.2 0,-18.7 0,-2.4 -1.5,-3.2 -3.7,-3.2 -3,0 -3.3,-1.8 -3.3,-3 0,-1.1 0,-18.8 0,-18.8 0,-0.8 0.7,-1.4 1.4,-1.4 z"
           inkscape:connector-curvature="0"
           style="fill:#60605d" /><path
           id="XMLID_558_"
           d="m 353.7,416.6 24.8,0 c 0.8,0 1.4,0.6 1.4,1.4 l 0,37.7 c 0,0.8 -0.6,1.4 -1.4,1.4 l -17.8,0 c -0.8,0 -1.4,-0.6 -1.4,-1.4 0,0 0,-13.8 0,-16.6 0,-2 -1.9,-3 -3.6,-3 -3.1,0 -3.4,-2.1 -3.4,-3.1 0,-1 0,-15 0,-15 0,-0.8 0.6,-1.4 1.4,-1.4 z"
           inkscape:connector-curvature="0"
           style="fill:#868580" /></g><g
         id="XMLID_531_"><path
           id="XMLID_561_"
           d="m 13.4,352 19.4,0 c 0.8,0 1.4,0.6 1.4,1.4 l 0,19.8 c 0,0.8 -0.6,1.4 -1.4,1.4 l -19.4,0 c -0.8,0 -1.4,-0.6 -1.4,-1.4 l 0,-19.8 c -0.1,-0.8 0.6,-1.4 1.4,-1.4 z"
           inkscape:connector-curvature="0"
           style="fill:#60605d" /><path
           id="XMLID_559_"
           d="m 16.3,354.2 13.5,0 c 0.8,0 1.4,0.6 1.4,1.4 l 0,13.5 c 0,0.8 -0.6,1.4 -1.4,1.4 l -13.5,0 c -0.8,0 -1.4,-0.6 -1.4,-1.4 l 0,-13.5 c 0,-0.8 0.6,-1.4 1.4,-1.4 z"
           inkscape:connector-curvature="0"
           style="fill:#868580" /></g><g
         id="XMLID_568_"><path
           id="XMLID_571_"
           d="m 50.7,352 26.2,0 c 0.8,0 1.4,0.6 1.4,1.4 l 0,19.8 c 0,0.8 -0.6,1.4 -1.4,1.4 l -26.2,0 c -0.8,0 -1.4,-0.6 -1.4,-1.4 l 0,-19.8 c 0,-0.8 0.6,-1.4 1.4,-1.4 z"
           inkscape:connector-curvature="0"
           style="fill:#60605d" /><path
           id="XMLID_569_"
           d="m 53.7,354.2 20.3,0 c 0.8,0 1.4,0.6 1.4,1.4 l 0,13.5 c 0,0.8 -0.6,1.4 -1.4,1.4 l -20.3,0 c -0.8,0 -1.4,-0.6 -1.4,-1.4 l 0,-13.5 c -0.1,-0.8 0.6,-1.4 1.4,-1.4 z"
           inkscape:connector-curvature="0"
           style="fill:#868580" /></g><g
         id="XMLID_573_"><path
           id="XMLID_576_"
           d="m 81.1,352 26.2,0 c 0.8,0 1.4,0.6 1.4,1.4 l 0,19.8 c 0,0.8 -0.6,1.4 -1.4,1.4 l -26.2,0 c -0.8,0 -1.4,-0.6 -1.4,-1.4 l 0,-19.8 c -0.1,-0.8 0.6,-1.4 1.4,-1.4 z"
           inkscape:connector-curvature="0"
           style="fill:#60605d" /><path
           id="XMLID_574_"
           d="m 84,354.2 20.3,0 c 0.8,0 1.4,0.6 1.4,1.4 l 0,13.5 c 0,0.8 -0.6,1.4 -1.4,1.4 l -20.3,0 c -0.8,0 -1.4,-0.6 -1.4,-1.4 l 0,-13.5 c 0,-0.8 0.6,-1.4 1.4,-1.4 z"
           inkscape:connector-curvature="0"
           style="fill:#868580" /></g><g
         id="XMLID_578_"><path
           id="XMLID_581_"
           d="m 111.4,352 26.2,0 c 0.8,0 1.4,0.6 1.4,1.4 l 0,19.8 c 0,0.8 -0.6,1.4 -1.4,1.4 l -26.2,0 c -0.8,0 -1.4,-0.6 -1.4,-1.4 l 0,-19.8 c 0,-0.8 0.7,-1.4 1.4,-1.4 z"
           inkscape:connector-curvature="0"
           style="fill:#60605d" /><path
           id="XMLID_579_"
           d="m 114.4,354.2 20.3,0 c 0.8,0 1.4,0.6 1.4,1.4 l 0,13.5 c 0,0.8 -0.6,1.4 -1.4,1.4 l -20.3,0 c -0.8,0 -1.4,-0.6 -1.4,-1.4 l 0,-13.5 c 0,-0.8 0.6,-1.4 1.4,-1.4 z"
           inkscape:connector-curvature="0"
           style="fill:#868580" /></g><g
         id="XMLID_583_"><path
           id="XMLID_586_"
           d="m 141.8,352 26.2,0 c 0.8,0 1.4,0.6 1.4,1.4 l 0,19.8 c 0,0.8 -0.6,1.4 -1.4,1.4 l -26.2,0 c -0.8,0 -1.4,-0.6 -1.4,-1.4 l 0,-19.8 c 0,-0.8 0.6,-1.4 1.4,-1.4 z"
           inkscape:connector-curvature="0"
           style="fill:#60605d" /><path
           id="XMLID_584_"
           d="m 144.8,354.2 20.3,0 c 0.8,0 1.4,0.6 1.4,1.4 l 0,13.5 c 0,0.8 -0.6,1.4 -1.4,1.4 l -20.3,0 c -0.8,0 -1.4,-0.6 -1.4,-1.4 l 0,-13.5 c -0.1,-0.8 0.6,-1.4 1.4,-1.4 z"
           inkscape:connector-curvature="0"
           style="fill:#868580" /></g><g
         id="XMLID_588_"><path
           id="XMLID_591_"
           d="m 172.2,352 26.2,0 c 0.8,0 1.4,0.6 1.4,1.4 l 0,19.8 c 0,0.8 -0.6,1.4 -1.4,1.4 l -26.2,0 c -0.8,0 -1.4,-0.6 -1.4,-1.4 l 0,-19.8 c 0,-0.8 0.6,-1.4 1.4,-1.4 z"
           inkscape:connector-curvature="0"
           style="fill:#60605d" /><path
           id="XMLID_589_"
           d="m 175.2,354.2 20.3,0 c 0.8,0 1.4,0.6 1.4,1.4 l 0,13.5 c 0,0.8 -0.6,1.4 -1.4,1.4 l -20.3,0 c -0.8,0 -1.4,-0.6 -1.4,-1.4 l 0,-13.5 c -0.1,-0.8 0.6,-1.4 1.4,-1.4 z"
           inkscape:connector-curvature="0"
           style="fill:#868580" /></g><g
         id="XMLID_613_"><path
           id="XMLID_616_"
           d="m 212.5,352 26.2,0 c 0.8,0 1.4,0.6 1.4,1.4 l 0,19.8 c 0,0.8 -0.6,1.4 -1.4,1.4 l -26.2,0 c -0.8,0 -1.4,-0.6 -1.4,-1.4 l 0,-19.8 c 0,-0.8 0.6,-1.4 1.4,-1.4 z"
           inkscape:connector-curvature="0"
           style="fill:#60605d" /><path
           id="XMLID_614_"
           d="m 215.5,354.2 20.3,0 c 0.8,0 1.4,0.6 1.4,1.4 l 0,13.5 c 0,0.8 -0.6,1.4 -1.4,1.4 l -20.3,0 c -0.8,0 -1.4,-0.6 -1.4,-1.4 l 0,-13.5 c -0.1,-0.8 0.6,-1.4 1.4,-1.4 z"
           inkscape:connector-curvature="0"
           style="fill:#868580" /></g><g
         id="XMLID_608_"><path
           id="XMLID_611_"
           d="m 242.9,352 26.1,0 c 0.8,0 1.4,0.6 1.4,1.4 l 0,19.8 c 0,0.8 -0.6,1.4 -1.4,1.4 l -26.2,0 c -0.8,0 -1.4,-0.6 -1.4,-1.4 l 0,-19.8 c 0,-0.8 0.7,-1.4 1.5,-1.4 z"
           inkscape:connector-curvature="0"
           style="fill:#60605d" /><path
           id="XMLID_609_"
           d="m 245.8,354.2 20.3,0 c 0.8,0 1.4,0.6 1.4,1.4 l 0,13.5 c 0,0.8 -0.6,1.4 -1.4,1.4 l -20.3,0 c -0.8,0 -1.4,-0.6 -1.4,-1.4 l 0,-13.5 c 0,-0.8 0.6,-1.4 1.4,-1.4 z"
           inkscape:connector-curvature="0"
           style="fill:#868580" /></g><g
         id="XMLID_603_"><path
           id="XMLID_606_"
           d="m 273.2,352 26.2,0 c 0.8,0 1.4,0.6 1.4,1.4 l 0,19.8 c 0,0.8 -0.6,1.4 -1.4,1.4 l -26.2,0 c -0.8,0 -1.4,-0.6 -1.4,-1.4 l 0,-19.8 c 0,-0.8 0.7,-1.4 1.4,-1.4 z"
           inkscape:connector-curvature="0"
           style="fill:#60605d" /><path
           id="XMLID_604_"
           d="m 276.2,354.2 20.3,0 c 0.8,0 1.4,0.6 1.4,1.4 l 0,13.5 c 0,0.8 -0.6,1.4 -1.4,1.4 l -20.3,0 c -0.8,0 -1.4,-0.6 -1.4,-1.4 l 0,-13.5 c 0,-0.8 0.6,-1.4 1.4,-1.4 z"
           inkscape:connector-curvature="0"
           style="fill:#868580" /></g><g
         id="XMLID_598_"><path
           id="XMLID_601_"
           d="m 303.6,352 26.2,0 c 0.8,0 1.4,0.6 1.4,1.4 l 0,19.8 c 0,0.8 -0.6,1.4 -1.4,1.4 l -26.2,0 c -0.8,0 -1.4,-0.6 -1.4,-1.4 l 0,-19.8 c 0,-0.8 0.6,-1.4 1.4,-1.4 z"
           inkscape:connector-curvature="0"
           style="fill:#60605d" /><path
           id="XMLID_599_"
           d="m 306.6,354.2 20.3,0 c 0.8,0 1.4,0.6 1.4,1.4 l 0,13.5 c 0,0.8 -0.6,1.4 -1.4,1.4 l -20.3,0 c -0.8,0 -1.4,-0.6 -1.4,-1.4 l 0,-13.5 c -0.1,-0.8 0.6,-1.4 1.4,-1.4 z"
           inkscape:connector-curvature="0"
           style="fill:#868580" /></g><g
         id="XMLID_593_"><path
           id="XMLID_596_"
           d="m 334,352 26.2,0 c 0.8,0 1.4,0.6 1.4,1.4 l 0,19.8 c 0,0.8 -0.6,1.4 -1.4,1.4 l -26.2,0 c -0.8,0 -1.4,-0.6 -1.4,-1.4 l 0,-19.8 c 0,-0.8 0.6,-1.4 1.4,-1.4 z"
           inkscape:connector-curvature="0"
           style="fill:#60605d" /><path
           id="XMLID_594_"
           d="m 337,354.2 20.3,0 c 0.8,0 1.4,0.6 1.4,1.4 l 0,13.5 c 0,0.8 -0.6,1.4 -1.4,1.4 l -20.3,0 c -0.8,0 -1.4,-0.6 -1.4,-1.4 l 0,-13.5 c -0.1,-0.8 0.6,-1.4 1.4,-1.4 z"
           inkscape:connector-curvature="0"
           style="fill:#868580" /></g><g
         id="XMLID_425_"><path
           id="XMLID_428_"
           d="m 483.8,390.5 19.4,0 c 0.8,0 1.4,0.6 1.4,1.4 l 0,19.8 c 0,0.8 -0.6,1.4 -1.4,1.4 l -19.4,0 c -0.8,0 -1.4,-0.6 -1.4,-1.4 l 0,-19.8 c 0,-0.8 0.6,-1.4 1.4,-1.4 z"
           inkscape:connector-curvature="0"
           style="fill:#60605d" /><path
           id="XMLID_426_"
           d="m 486.8,392.7 13.5,0 c 0.8,0 1.4,0.6 1.4,1.4 l 0,13.5 c 0,0.8 -0.6,1.4 -1.4,1.4 l -13.5,0 c -0.8,0 -1.4,-0.6 -1.4,-1.4 l 0,-13.5 c -0.1,-0.8 0.6,-1.4 1.4,-1.4 z"
           inkscape:connector-curvature="0"
           style="fill:#868580" /></g><g
         id="XMLID_450_"><path
           id="XMLID_453_"
           d="m 508.1,390.5 19.4,0 c 0.8,0 1.4,0.6 1.4,1.4 l 0,19.8 c 0,0.8 -0.6,1.4 -1.4,1.4 l -19.4,0 c -0.8,0 -1.4,-0.6 -1.4,-1.4 l 0,-19.8 c -0.1,-0.8 0.6,-1.4 1.4,-1.4 z"
           inkscape:connector-curvature="0"
           style="fill:#60605d" /><path
           id="XMLID_451_"
           d="m 511,392.7 13.5,0 c 0.8,0 1.4,0.6 1.4,1.4 l 0,13.5 c 0,0.8 -0.6,1.4 -1.4,1.4 l -13.5,0 c -0.8,0 -1.4,-0.6 -1.4,-1.4 l 0,-13.5 c 0,-0.8 0.6,-1.4 1.4,-1.4 z"
           inkscape:connector-curvature="0"
           style="fill:#868580" /></g><g
         id="XMLID_455_"><path
           id="XMLID_458_"
           d="m 532.3,390.5 19.4,0 c 0.8,0 1.4,0.6 1.4,1.4 l 0,19.8 c 0,0.8 -0.6,1.4 -1.4,1.4 l -19.4,0 c -0.8,0 -1.4,-0.6 -1.4,-1.4 l 0,-19.8 c 0,-0.8 0.7,-1.4 1.4,-1.4 z"
           inkscape:connector-curvature="0"
           style="fill:#60605d" /><path
           id="XMLID_456_"
           d="m 535.3,392.7 13.5,0 c 0.8,0 1.4,0.6 1.4,1.4 l 0,13.5 c 0,0.8 -0.6,1.4 -1.4,1.4 l -13.5,0 c -0.8,0 -1.4,-0.6 -1.4,-1.4 l 0,-13.5 c 0,-0.8 0.6,-1.4 1.4,-1.4 z"
           inkscape:connector-curvature="0"
           style="fill:#868580" /></g><g
         id="XMLID_460_"><path
           id="XMLID_463_"
           d="m 556.6,390.5 19.4,0 c 0.8,0 1.4,0.6 1.4,1.4 l 0,19.8 c 0,0.8 -0.6,1.4 -1.4,1.4 l -19.4,0 c -0.8,0 -1.4,-0.6 -1.4,-1.4 l 0,-19.8 c 0,-0.8 0.6,-1.4 1.4,-1.4 z"
           inkscape:connector-curvature="0"
           style="fill:#60605d" /><path
           id="XMLID_461_"
           d="m 559.6,392.7 13.5,0 c 0.8,0 1.4,0.6 1.4,1.4 l 0,13.5 c 0,0.8 -0.6,1.4 -1.4,1.4 l -13.5,0 c -0.8,0 -1.4,-0.6 -1.4,-1.4 l 0,-13.5 c 0,-0.8 0.6,-1.4 1.4,-1.4 z"
           inkscape:connector-curvature="0"
           style="fill:#868580" /></g><g
         id="XMLID_465_"><path
           id="XMLID_468_"
           d="m 556.6,414.8 19.4,0 c 0.8,0 1.4,0.6 1.4,1.4 l 0,19.8 c 0,0.8 -0.6,1.4 -1.4,1.4 l -19.4,0 c -0.8,0 -1.4,-0.6 -1.4,-1.4 l 0,-19.8 c 0,-0.8 0.6,-1.4 1.4,-1.4 z"
           inkscape:connector-curvature="0"
           style="fill:#60605d" /><path
           id="XMLID_466_"
           d="m 559.6,417 13.5,0 c 0.8,0 1.4,0.6 1.4,1.4 l 0,13.5 c 0,0.8 -0.6,1.4 -1.4,1.4 l -13.5,0 c -0.8,0 -1.4,-0.6 -1.4,-1.4 l 0,-13.5 c 0,-0.8 0.6,-1.4 1.4,-1.4 z"
           inkscape:connector-curvature="0"
           style="fill:#868580" /></g><g
         id="XMLID_508_"><path
           id="XMLID_511_"
           d="m 556.6,438.7 19.4,0 c 0.8,0 1.4,0.6 1.4,1.4 l 0,19.8 c 0,0.8 -0.6,1.4 -1.4,1.4 l -19.4,0 c -0.8,0 -1.4,-0.6 -1.4,-1.4 l 0,-19.8 c 0,-0.7 0.6,-1.4 1.4,-1.4 z"
           inkscape:connector-curvature="0"
           style="fill:#60605d" /><path
           id="XMLID_509_"
           d="m 559.6,440.9 13.5,0 c 0.8,0 1.4,0.6 1.4,1.4 l 0,13.5 c 0,0.8 -0.6,1.4 -1.4,1.4 l -13.5,0 c -0.8,0 -1.4,-0.6 -1.4,-1.4 l 0,-13.5 c 0,-0.7 0.6,-1.4 1.4,-1.4 z"
           inkscape:connector-curvature="0"
           style="fill:#868580" /></g><g
         id="XMLID_532_"><path
           id="XMLID_551_"
           d="m 556.6,463.5 19.4,0 c 0.8,0 1.4,0.6 1.4,1.4 l 0,43.9 c 0,0.8 -0.6,1.4 -1.4,1.4 l -19.4,0 c -0.8,0 -1.4,-0.6 -1.4,-1.4 l 0,-43.9 c 0,-0.7 0.6,-1.4 1.4,-1.4 z"
           inkscape:connector-curvature="0"
           style="fill:#60605d" /><path
           id="XMLID_549_"
           d="m 559.6,465.7 13.5,0 c 0.8,0 1.4,0.6 1.4,1.4 l 0,37.6 c 0,0.8 -0.6,1.4 -1.4,1.4 l -13.5,0 c -0.8,0 -1.4,-0.6 -1.4,-1.4 l 0,-37.6 c 0,-0.7 0.6,-1.4 1.4,-1.4 z"
           inkscape:connector-curvature="0"
           style="fill:#868580" /></g></g><g
       id="grill"><path
         id="XMLID_137_"
         d="m 5.6,254.9 571.4,0 c 0.2,0 0.3,0.1 0.3,0.3 l 0,3.3 c 0,0.2 -0.1,0.3 -0.3,0.3 l -571.4,0 c -0.2,0 -0.3,-0.1 -0.3,-0.3 l 0,-3.3 c 0,-0.1 0.1,-0.3 0.3,-0.3 z"
         inkscape:connector-curvature="0"
         style="fill:#777878" /><path
         id="XMLID_135_"
         d="m 5.6,262.4 571.4,0 c 0.2,0 0.3,0.1 0.3,0.3 l 0,3.3 c 0,0.2 -0.1,0.3 -0.3,0.3 l -571.4,0 c -0.2,0 -0.3,-0.1 -0.3,-0.3 l 0,-3.3 c 0,-0.2 0.1,-0.3 0.3,-0.3 z"
         inkscape:connector-curvature="0"
         style="fill:#777878" /><path
         id="XMLID_133_"
         d="m 5.6,269.9 571.4,0 c 0.2,0 0.3,0.1 0.3,0.3 l 0,3.3 c 0,0.2 -0.1,0.3 -0.3,0.3 l -571.4,0 c -0.2,0 -0.3,-0.1 -0.3,-0.3 l 0,-3.3 c 0,-0.2 0.1,-0.3 0.3,-0.3 z"
         inkscape:connector-curvature="0"
         style="fill:#777878" /><path
         id="XMLID_131_"
         d="m 5.6,277.4 571.4,0 c 0.2,0 0.3,0.1 0.3,0.3 l 0,3.3 c 0,0.2 -0.1,0.3 -0.3,0.3 l -571.4,0 c -0.2,0 -0.3,-0.1 -0.3,-0.3 l 0,-3.3 c 0,-0.2 0.1,-0.3 0.3,-0.3 z"
         inkscape:connector-curvature="0"
         style="fill:#777878" /><path
         id="XMLID_129_"
         d="m 5.6,284.9 571.4,0 c 0.2,0 0.3,0.1 0.3,0.3 l 0,3.3 c 0,0.2 -0.1,0.3 -0.3,0.3 l -571.4,0 c -0.2,0 -0.3,-0.1 -0.3,-0.3 l 0,-3.3 c 0,-0.2 0.1,-0.3 0.3,-0.3 z"
         inkscape:connector-curvature="0"
         style="fill:#777878" /><path
         id="XMLID_127_"
         d="m 5.6,292.4 571.4,0 c 0.2,0 0.3,0.1 0.3,0.3 l 0,3.3 c 0,0.2 -0.1,0.3 -0.3,0.3 l -571.4,0 c -0.2,0 -0.3,-0.1 -0.3,-0.3 l 0,-3.3 c 0,-0.2 0.1,-0.3 0.3,-0.3 z"
         inkscape:connector-curvature="0"
         style="fill:#777878" /><path
         id="XMLID_125_"
         d="m 5.6,299.9 571.4,0 c 0.2,0 0.3,0.1 0.3,0.3 l 0,3.3 c 0,0.2 -0.1,0.3 -0.3,0.3 l -571.4,0 c -0.2,0 -0.3,-0.1 -0.3,-0.3 l 0,-3.3 c 0,-0.2 0.1,-0.3 0.3,-0.3 z"
         inkscape:connector-curvature="0"
         style="fill:#777878" /></g><g
       id="plaque"><path
         id="XMLID_51_"
         d="m 12.5,338.4 0,-14.2 c 0,-0.5 0.4,-1 1,-1 l 60.7,0 c 0.1,0 0.3,0 0.4,0.1 -0.2,-0.2 -0.4,-0.4 -0.7,-0.4 l -60.8,0 c -0.5,0 -1,0.4 -1,1 l 0,14.2 c 0,0.4 0.2,0.7 0.6,0.9 -0.1,-0.2 -0.2,-0.4 -0.2,-0.6 z"
         inkscape:connector-curvature="0"
         style="fill:#eaeaea" /><path
         id="XMLID_60_"
         d="m 74.3,323.1 c 0.1,0.1 0.1,0.3 0.1,0.5 l 0,14.2 c 0,0.5 -0.4,1 -1,1 l -60.7,0 c -0.2,0 -0.3,-0.1 -0.5,-0.1 0.2,0.3 0.5,0.5 0.8,0.5 l 60.7,0 c 0.5,0 1,-0.4 1,-1 l 0,-14.3 c 0.1,-0.3 -0.1,-0.6 -0.4,-0.8 z"
         inkscape:connector-curvature="0"
         style="fill:#777878" /></g><g
       id="a1200_x5F_logo"><path
         id="XMLID_85_"
         d="m 29.6,328.5 -1.6,0.4 -0.3,-1.6 1.6,-0.4 0.3,1.6 z"
         inkscape:connector-curvature="0"
         style="fill:#ec2127" /><path
         id="XMLID_79_"
         d="m 25.9,329.7 -1.3,0 -0.1,0 -0.1,0 -1.2,4 -1.4,-4 -0.8,0 0,0 -1.4,0 0,0.2 0.9,0 0,5.8 0.2,0 0,-5.5 2,5.5 0.2,0 0.5,-1.7 1.3,-4 0,5.8 0.6,0 0,0 1.4,0 0,-0.2 -0.7,0 0,-5.9 -0.1,0 z"
         inkscape:connector-curvature="0"
         style="fill:#0b0b0b" /><path
         id="XMLID_76_"
         d="m 17.2,329.6 0,0 -0.2,0 -0.5,1.4 -1.7,4.8 0.2,0 0.6,-1.8 1.9,0 0.6,1.8 1.2,0 0,0 0.7,0 0,-0.2 -0.7,0 -2.1,-6 z m -1.5,4.1 0.9,-2.5 0.9,2.5 -1.8,0 z"
         inkscape:connector-curvature="0"
         style="fill:#0b0b0b" /><path
         id="XMLID_73_"
         d="m 41.1,335.5 -0.7,0 -2.1,-6 0,0 -0.2,0 -0.5,1.4 -1.6,4.8 0.2,0 0.6,-1.8 1.9,0 0.6,1.8 1.2,0 0,0 0.6,0 0,-0.2 z m -4.2,-1.8 0.9,-2.5 0.9,2.5 -1.8,0 z"
         inkscape:connector-curvature="0"
         style="fill:#0b0b0b" /><path
         id="XMLID_71_"
         d="m 29.1,329.9 0.8,0 0,-0.2 -1.4,0 0,0 -0.7,0 0,5.8 -0.6,0 0,0.2 1.3,0 0.1,0 1.3,0 0,-0.2 -0.8,0 0,-5.6 z"
         inkscape:connector-curvature="0"
         style="fill:#0b0b0b" /><path
         id="XMLID_69_"
         d="m 33.5,333.8 0.9,0 c 0,0.3 0,1 0,1.2 0,0.3 -0.3,0.6 -0.6,0.6 -0.8,0.1 -1.6,-0.1 -1.7,-0.7 -0.3,-1.1 -0.2,-2.5 -0.1,-3.7 0,-0.8 0.7,-1.4 1.5,-1.4 0.8,0 1.5,0.6 1.6,1.4 0,0.1 0,0.2 0,0.2 l 0.4,0 0,-1.1 c 0,0 -0.1,-0.2 -0.2,-0.3 -0.6,-0.4 -1.5,-0.6 -2.4,-0.4 -1.6,0.4 -2.7,2.2 -2,4.3 0.4,1.3 1.9,2.4 3.7,1.8 0.8,-0.3 1.3,-1 1.3,-1.9 l 0,0 0,-0.2 -2.2,0 0,0.2 -0.2,0 z"
         inkscape:connector-curvature="0"
         style="fill:#0b0b0b" /><path
         id="XMLID_66_"
         d="m 46.7,333.8 1.4,-1.9 0,1.9 -1.4,0 z m 2.3,2 0.1,-0.2 c -0.1,0 -0.1,0 -0.2,0 -0.1,0 -0.1,0 -0.2,-0.1 -0.1,-0.1 -0.1,-0.1 -0.1,-0.2 0,-0.1 0,-0.1 0,-0.2 l 0.1,-4.3 -0.2,0 c -0.4,0.6 -0.9,1.3 -1.5,2.1 -0.6,0.8 -1.1,1.5 -1.5,2.1 -0.1,0.1 -0.2,0.2 -0.3,0.3 -0.1,0.1 -0.2,0.1 -0.2,0.2 -0.1,0 -0.1,0.1 -0.2,0.1 -0.1,0 -0.2,0 -0.2,0 l -0.1,0.2 1.7,0 0.1,-0.2 c -0.2,0 -0.3,0 -0.4,-0.1 -0.1,0 -0.1,-0.1 -0.1,-0.2 0,0 0,-0.1 0.1,-0.2 0,-0.1 0.1,-0.2 0.1,-0.2 0.1,-0.1 0.1,-0.2 0.2,-0.4 0.1,-0.2 0.2,-0.3 0.3,-0.4 l 1.5,0 c 0,0.4 0,0.7 0,0.9 0,0.2 0,0.3 0,0.3 0,0.1 0,0.1 -0.1,0.1 0,0 -0.1,0.1 -0.2,0.1 -0.1,0 -0.1,0 -0.2,0 -0.1,0 -0.2,0 -0.2,0 l -0.1,0.2 1.8,0.1 0,0 z"
         inkscape:connector-curvature="0"
         style="fill:#0b0b0b" /><path
         id="XMLID_64_"
         d="m 56.2,331.1 c -0.2,0.2 -0.4,0.3 -0.6,0.4 -0.2,0.1 -0.5,0.2 -0.8,0.2 l -0.2,0 -0.1,0.3 0.9,0 -1.1,3 c 0,0.1 -0.1,0.2 -0.2,0.3 -0.1,0.1 -0.2,0.1 -0.2,0.2 -0.1,0 -0.2,0 -0.4,0.1 -0.2,0 -0.3,0 -0.4,0 l -0.1,0.2 2.6,0 0.1,-0.3 c -0.1,0 -0.2,0 -0.3,0 -0.1,0 -0.2,-0.1 -0.3,-0.1 L 55,335.3 c 0,0 0,-0.1 0,-0.2 0,0 0,0 0,-0.1 0,0 0,0 0,-0.1 l 0.9,-2.5 c 0,-0.1 0.1,-0.3 0.2,-0.6 0.1,-0.3 0.2,-0.5 0.3,-0.7 l -0.2,0 z"
         inkscape:connector-curvature="0"
         style="fill:#0b0b0b" /><path
         id="XMLID_62_"
         d="m 60.7,331.4 c -0.2,-0.2 -0.6,-0.4 -1,-0.4 -0.3,0 -0.5,0 -0.8,0.1 -0.2,0.1 -0.5,0.2 -0.6,0.4 -0.2,0.1 -0.4,0.3 -0.5,0.5 -0.1,0.2 -0.2,0.3 -0.2,0.5 0,0.1 0,0.2 0,0.3 0,0.1 0.1,0.1 0.3,0.1 0.2,0 0.3,-0.1 0.5,-0.2 0.1,-0.1 0.2,-0.3 0.2,-0.6 0,-0.1 0,-0.2 0,-0.2 0,-0.1 0,-0.1 0,-0.1 0.1,-0.1 0.2,-0.2 0.4,-0.3 0.2,-0.1 0.3,-0.1 0.6,-0.1 0.2,0 0.4,0.1 0.5,0.2 0.1,0.2 0.1,0.4 0.1,0.7 0,0.2 -0.1,0.5 -0.2,0.6 -0.1,0.2 -0.3,0.3 -0.5,0.5 -0.1,0.1 -0.3,0.2 -0.5,0.3 -0.2,0.1 -0.4,0.2 -0.7,0.3 -0.2,0.1 -0.4,0.2 -0.5,0.2 -0.2,0.1 -0.3,0.2 -0.5,0.3 -0.2,0.1 -0.3,0.2 -0.4,0.3 -0.1,0.1 -0.2,0.2 -0.3,0.3 l -0.2,0.6 3.6,0 0.3,-0.7 -3,0 c 0.2,-0.2 0.4,-0.3 0.6,-0.4 0.2,-0.1 0.5,-0.2 0.7,-0.3 0.3,-0.1 0.6,-0.2 0.8,-0.3 0.2,-0.1 0.5,-0.2 0.7,-0.3 0.3,-0.2 0.5,-0.3 0.6,-0.5 0.2,-0.2 0.3,-0.5 0.3,-0.8 0,-0.4 0,-0.7 -0.3,-1 z"
         inkscape:connector-curvature="0"
         style="fill:#0b0b0b" /><path
         id="XMLID_59_"
         d="m 65.5,331.6 c -0.2,-0.3 -0.6,-0.5 -1.1,-0.5 -0.4,0 -0.7,0.1 -1.1,0.2 -0.3,0.2 -0.7,0.4 -0.9,0.7 -0.3,0.3 -0.5,0.6 -0.7,1 -0.2,0.4 -0.3,0.8 -0.4,1.2 -0.1,0.5 0,0.9 0.2,1.2 0.2,0.3 0.6,0.5 1.1,0.5 0.4,0 0.8,-0.1 1.1,-0.3 0.3,-0.2 0.6,-0.4 0.9,-0.7 0.3,-0.3 0.5,-0.6 0.7,-1 0.2,-0.4 0.3,-0.8 0.4,-1.2 0.1,-0.4 0.1,-0.8 -0.2,-1.1 z m -0.8,1.9 c -0.1,0.3 -0.3,0.7 -0.5,1 -0.2,0.4 -0.5,0.6 -0.7,0.8 -0.2,0.2 -0.5,0.3 -0.8,0.3 -0.3,0 -0.5,-0.1 -0.6,-0.3 -0.1,-0.2 -0.1,-0.5 -0.1,-0.9 0,-0.3 0.1,-0.6 0.3,-0.9 0.1,-0.3 0.3,-0.7 0.5,-1 0.2,-0.3 0.4,-0.6 0.7,-0.8 0.3,-0.2 0.5,-0.3 0.8,-0.3 0.3,0 0.5,0.1 0.6,0.3 0.1,0.2 0.1,0.5 0.1,0.9 -0.1,0.3 -0.1,0.6 -0.3,0.9 z"
         inkscape:connector-curvature="0"
         style="fill:#0b0b0b" /><path
         id="XMLID_56_"
         d="m 70.3,331.6 c -0.2,-0.3 -0.6,-0.5 -1.1,-0.5 -0.4,0 -0.7,0.1 -1.1,0.2 -0.3,0.2 -0.7,0.4 -0.9,0.7 -0.3,0.3 -0.5,0.6 -0.7,1 -0.2,0.4 -0.3,0.8 -0.4,1.2 -0.1,0.5 0,0.9 0.2,1.2 0.2,0.3 0.6,0.5 1.1,0.5 0.4,0 0.8,-0.1 1.1,-0.3 0.3,-0.2 0.6,-0.4 0.9,-0.7 0.3,-0.3 0.5,-0.6 0.7,-1 0.2,-0.4 0.3,-0.8 0.4,-1.2 0.1,-0.4 0.1,-0.8 -0.2,-1.1 z m -0.8,1.9 c -0.1,0.3 -0.3,0.7 -0.5,1 -0.2,0.4 -0.5,0.6 -0.7,0.8 -0.2,0.2 -0.5,0.3 -0.8,0.3 -0.3,0 -0.5,-0.1 -0.6,-0.3 -0.1,-0.2 -0.1,-0.5 -0.1,-0.9 0,-0.3 0.1,-0.6 0.3,-0.9 0.1,-0.3 0.3,-0.7 0.5,-1 0.2,-0.3 0.4,-0.6 0.7,-0.8 0.3,-0.2 0.5,-0.3 0.8,-0.3 0.3,0 0.5,0.1 0.6,0.3 0.1,0.2 0.1,0.5 0.1,0.9 -0.1,0.3 -0.1,0.6 -0.3,0.9 z"
         inkscape:connector-curvature="0"
         style="fill:#0b0b0b" /></g><g
       id="lights"><path
         id="XMLID_91_"
         d="m 542.2,351.3 17.8,0 c 0.1,0 0.2,0.1 0.2,0.2 l 0,2.4 c 0,0.1 -0.1,0.2 -0.2,0.2 l -17.8,0 c -0.1,0 -0.2,-0.1 -0.2,-0.2 l 0,-2.4 c 0,-0.1 0.1,-0.2 0.2,-0.2 z"
         inkscape:connector-curvature="0"
         style="fill:#525056" /><path
         id="XMLID_89_"
         d="m 542.2,361.6 17.8,0 c 0.1,0 0.2,0.1 0.2,0.2 l 0,2.4 c 0,0.1 -0.1,0.2 -0.2,0.2 l -17.8,0 c -0.1,0 -0.2,-0.1 -0.2,-0.2 l 0,-2.4 c 0,-0.1 0.1,-0.2 0.2,-0.2 z"
         inkscape:connector-curvature="0"
         style="fill:#525056" /><path
         id="XMLID_87_"
         d="m 542.2,371.9 17.8,0 c 0.1,0 0.2,0.1 0.2,0.2 l 0,2.4 c 0,0.1 -0.1,0.2 -0.2,0.2 l -17.8,0 c -0.1,0 -0.2,-0.1 -0.2,-0.2 l 0,-2.4 c 0,-0.1 0.1,-0.2 0.2,-0.2 z"
         inkscape:connector-curvature="0"
         style="fill:#b9d432" /><path
         id="XMLID_494_"
         d="m 557.9,374 -13.6,0 c -0.3,0 -0.6,-0.3 -0.6,-0.6 l 0,-0.3 c 0,-0.3 0.3,-0.6 0.6,-0.6 l 13.6,0 c 0.3,0 0.6,0.3 0.6,0.6 l 0,0.3 c 0,0.4 -0.3,0.6 -0.6,0.6 z"
         inkscape:connector-curvature="0"
         style="fill:#e6e414;fill-rule:evenodd" /></g><g
       id="amiga_x5F_logo_x5F_big"><g
         id="XMLID_50_"><g
           id="XMLID_75_"><polygon
             id="XMLID_77_"
             points="401.1,365.9 407.5,357.9 407.5,356.8 400.2,365.9 "
             style="fill:#777878" /><path
             id="XMLID_78_"
             d="m 412.1,350.4 0,19.5 c 0,1 0,1.7 0,1.9 0,0.8 0.2,1.4 0.6,1.8 0.2,0.2 0.4,0.4 0.8,0.5 -0.1,0 -0.1,-0.1 -0.2,-0.1 -0.3,-0.4 -0.5,-1 -0.6,-1.8 0,-0.2 0,-0.8 0,-1.9 l 0,-19.8 -0.6,0 0,-0.1 z"
             inkscape:connector-curvature="0"
             style="fill:#777878" /><path
             id="XMLID_80_"
             d="m 397.4,374.5 0,0.4 -6.6,0 -0.1,0.3 7.3,0 0,-0.6 c -0.2,-0.1 -0.4,-0.1 -0.6,-0.1 z"
             inkscape:connector-curvature="0"
             style="fill:#777878" /><path
             id="XMLID_88_"
             d="m 407.5,367 -8.1,0 -1.5,1.9 -1.7,2 c -0.3,0.4 -0.5,0.9 -0.7,1.2 -0.1,0.3 -0.2,0.6 -0.1,0.8 0,0.3 0.2,0.6 0.5,0.8 0.1,0.1 0.3,0.2 0.5,0.2 -0.3,-0.2 -0.4,-0.5 -0.4,-0.7 0,-0.3 0,-0.6 0.1,-0.8 0.1,-0.4 0.4,-0.8 0.7,-1.2 l 1.7,-2 1.5,-1.9 7.6,0 -0.1,-0.3 z"
             inkscape:connector-curvature="0"
             style="fill:#777878" /><path
             id="XMLID_90_"
             d="m 414.3,374.4 -0.1,0.4 -9.9,0 -0.1,0.3 10.6,0 0.2,-0.6 c -0.3,0 -0.5,0 -0.7,-0.1 z"
             inkscape:connector-curvature="0"
             style="fill:#777878" /></g><g
           id="XMLID_61_"><path
             id="XMLID_63_"
             d="m 425.5,355.2 -0.2,-1.7 -4.2,16.9 c -0.2,0.7 -0.2,1.2 -0.2,1.7 0,0.6 0.3,1.1 0.7,1.5 0.2,0.1 0.4,0.2 0.6,0.3 -0.4,-0.4 -0.7,-0.8 -0.7,-1.4 0,-0.4 0.1,-1 0.2,-1.7 l 3.8,-15.6 z"
             inkscape:connector-curvature="0"
             style="fill:#777878" /><polygon
             id="XMLID_86_"
             points="432.4,368 432.8,367.3 430.3,351 429.7,351 "
             style="fill:#777878" /><path
             id="XMLID_92_"
             d="m 451.6,351 -0.1,0.3 c -1.2,0 -2.1,0.2 -2.7,0.8 -0.6,0.5 -1.1,1.5 -1.4,3 l -3.9,15.5 c -0.2,1 -0.4,1.7 -0.3,2.2 0,0.4 0.2,0.8 0.6,1.1 0.1,0.1 0.3,0.2 0.5,0.2 -0.3,-0.3 -0.4,-0.6 -0.5,-1 0,-0.5 0.1,-1.2 0.3,-2.2 l 3.9,-15.6 c 0.4,-1.5 0.9,-2.5 1.4,-3 0.6,-0.5 1.5,-0.7 2.7,-0.7 l 0.2,-0.6 -0.7,0 z"
             inkscape:connector-curvature="0"
             style="fill:#777878" /><path
             id="XMLID_93_"
             d="m 445.8,374.8 -11.5,0 -0.1,0.3 12.2,0 0.1,-0.6 c -0.2,0 -0.4,0 -0.6,0 l -0.1,0.3 z"
             inkscape:connector-curvature="0"
             style="fill:#777878" /><polygon
             id="XMLID_94_"
             points="442.7,353.8 428.9,374.8 428.7,374.8 428.7,375.2 429.5,375.2 442.2,355.8 "
             style="fill:#777878" /><path
             id="XMLID_102_"
             d="m 423.5,374.8 -7.4,0 -0.1,0.3 8.1,0 0.2,-0.6 c -0.2,0 -0.4,0 -0.7,-0.1 l -0.1,0.4 z"
             inkscape:connector-curvature="0"
             style="fill:#777878" /></g><g
           id="XMLID_58_"><line
             id="XMLID_31_"
             x1="454.5"
             y1="351.29999"
             x2="454.39999"
             y2="351.60001"
             style="fill:none" /><path
             id="XMLID_82_"
             d="m 460.5,374.8 -11.4,0 -0.1,0.3 12.1,0 0.2,-0.6 c -0.2,0 -0.4,0 -0.7,0 l -0.1,0.3 z"
             inkscape:connector-curvature="0"
             style="fill:#777878" /><path
             id="XMLID_101_"
             d="m 465.9,351 -0.1,0.3 c -1.1,0 -1.9,0.2 -2.4,0.7 -0.6,0.5 -1,1.5 -1.4,3 l -3.9,15.5 c -0.3,1.1 -0.4,1.8 -0.4,2.2 0,0.4 0.2,0.8 0.5,1 0.1,0.1 0.3,0.2 0.5,0.2 -0.3,-0.2 -0.4,-0.5 -0.4,-0.9 0,-0.4 0.1,-1.1 0.4,-2.2 l 3.9,-15.5 c 0.4,-1.5 0.8,-2.5 1.4,-3 0.6,-0.5 1.4,-0.7 2.4,-0.7 l 0.2,-0.6 -0.7,0 z"
             inkscape:connector-curvature="0"
             style="fill:#777878" /></g><g
           id="XMLID_52_"><path
             id="XMLID_53_"
             d="m 488.6,351.2 -1.2,6.6 -0.1,0 c 0,0.1 0,0.2 0,0.3 l 0.6,0 1.2,-6.6 c 0,0 0,-0.7 -0.2,-0.9 -0.2,-0.2 -0.4,-0.2 -0.4,-0.2 l -0.1,0 c 0.1,0.3 0.2,0.8 0.2,0.8 z"
             inkscape:connector-curvature="0"
             style="fill:#777878" /><path
             id="XMLID_54_"
             d="m 472.1,372.3 c 0.6,0.6 1.2,1.1 1.9,1.4 -0.4,-0.3 -0.9,-0.6 -1.3,-1.1 -1.2,-1.3 -1.8,-3.1 -1.9,-5.4 -0.1,-2.8 0.6,-5.4 1.7,-7.9 1.1,-2.5 3.2,-4.4 4.9,-5.6 1.7,-1.2 3.9,-1.9 5.6,-1.9 0.7,0 1.1,0.1 1.5,0.2 -0.5,-0.4 -1.1,-0.6 -2.1,-0.6 -1.7,0 -3.9,0.7 -5.6,1.9 -1.7,1.2 -3.8,3.1 -4.9,5.6 -1.1,2.5 -1.8,5.1 -1.7,7.9 0.1,2.4 0.7,4.2 1.9,5.5 z"
             inkscape:connector-curvature="0"
             style="fill:#777878" /><path
             id="XMLID_97_"
             d="m 488.4,363.6 c -0.6,0 -1.1,0.2 -1.5,0.4 -0.3,0.2 -0.6,0.5 -0.8,0.9 -0.1,0.2 -0.3,0.8 -0.5,1.8 l -1.8,7.2 c -2.5,1 -5.2,1.6 -8.1,1.6 -2.2,0 -4,-0.4 -5.6,-1.1 0.2,0.1 0.3,0.2 0.5,0.3 1.6,0.8 3.5,1.2 5.7,1.2 2.9,0 5.6,-0.5 8.1,-1.6 l 1.8,-7.2 c 0.2,-1 0.4,-1.6 0.5,-1.8 0.2,-0.4 0.5,-0.7 0.8,-0.9 0.3,-0.2 0.8,-0.3 1.5,-0.4 l 0.1,-0.7 -0.6,0 -0.1,0.3 z"
             inkscape:connector-curvature="0"
             style="fill:#777878" /></g><g
           id="XMLID_55_"><path
             id="XMLID_57_"
             d="m 492.3,374.5 0,0.4 -6.6,0 -0.1,0.3 7.3,0 0,-0.6 c -0.3,-0.1 -0.5,-0.1 -0.6,-0.1 z"
             inkscape:connector-curvature="0"
             style="fill:#777878" /><path
             id="XMLID_84_"
             d="m 506.9,350.4 0,19.5 c 0,1 0,1.7 0,1.9 0,0.8 0.2,1.4 0.6,1.8 0.2,0.2 0.4,0.4 0.8,0.5 -0.1,0 -0.1,-0.1 -0.2,-0.1 -0.3,-0.4 -0.5,-1 -0.6,-1.8 0,-0.2 0,-0.8 0,-1.9 l 0,-19.8 -0.6,0 0,-0.1 z"
             inkscape:connector-curvature="0"
             style="fill:#777878" /><polygon
             id="XMLID_100_"
             points="496,365.9 503,357.2 503,356.1 495.1,365.9 "
             style="fill:#777878" /><path
             id="XMLID_103_"
             d="m 502.3,367 -8.1,0 -1.5,1.9 -1.7,2 c -0.3,0.4 -0.5,0.9 -0.7,1.2 -0.1,0.3 -0.2,0.6 -0.1,0.8 0,0.3 0.2,0.6 0.5,0.8 0.1,0.1 0.3,0.2 0.5,0.2 -0.3,-0.2 -0.4,-0.5 -0.4,-0.7 0,-0.3 0,-0.6 0.1,-0.8 0.1,-0.4 0.4,-0.8 0.7,-1.2 l 1.7,-2 1.5,-1.9 7.5,0 0,-0.3 z"
             inkscape:connector-curvature="0"
             style="fill:#777878" /><path
             id="XMLID_104_"
             d="m 509.1,374.4 -0.1,0.4 -9.9,0 -0.1,0.3 10.6,0 0.2,-0.6 c -0.3,0 -0.5,0 -0.7,-0.1 z"
             inkscape:connector-curvature="0"
             style="fill:#777878" /></g></g><g
         id="XMLID_29_"><g
           id="XMLID_120_"><path
             id="XMLID_126_"
             d="m 391.4,374.9 c 0.6,-0.1 1.2,-0.3 1.7,-0.7 0.7,-0.5 1.6,-1.5 2.8,-3 l 16.5,-20.4 0.2,0 0,-0.3 -0.8,0 -16.5,20.4 c -1.2,1.5 -2.1,2.5 -2.8,3 -0.5,0.3 -1.1,0.6 -1.7,0.7 l -0.2,0.6 0.7,0 0.1,-0.3 z"
             inkscape:connector-curvature="0"
             style="fill:#e8e8e8" /><polygon
             id="XMLID_128_"
             points="408.1,357.1 407.5,357.9 407.4,365.9 401.2,365.9 401,366.2 408,366.2 "
             style="fill:#e8e8e8" /><path
             id="XMLID_130_"
             d="m 404.9,374.9 c 1,-0.1 1.6,-0.2 1.8,-0.3 0.3,-0.2 0.6,-0.5 0.9,-1.1 0.3,-0.5 0.4,-1.5 0.4,-2.8 l 0,-3.5 -0.6,0 0,3.2 c 0,1.3 -0.1,2.2 -0.4,2.8 -0.3,0.5 -0.5,0.9 -0.9,1.1 -0.2,0.1 -0.8,0.2 -1.8,0.3 l -0.2,0.6 0.7,0 0.1,-0.3 z"
             inkscape:connector-curvature="0"
             style="fill:#e8e8e8" /></g><g
           id="XMLID_70_"><path
             id="XMLID_72_"
             d="m 422.1,351.3 8.2,0 0,-0.3 -8.7,0 -0.2,0.6 c 0.2,0 0.5,0 0.7,0 l 0,-0.3 z"
             inkscape:connector-curvature="0"
             style="fill:#e8e8e8" /><path
             id="XMLID_114_"
             d="m 434.9,374.9 c 1.3,0 2.3,-0.2 2.9,-0.8 0.6,-0.5 1.1,-1.5 1.5,-3 l 4.2,-17 -1.1,1.6 -3.7,15 c -0.4,1.5 -0.9,2.5 -1.5,3 -0.6,0.5 -1.6,0.8 -2.9,0.8 l -0.2,0.6 0.7,0 0.1,-0.2 z"
             inkscape:connector-curvature="0"
             style="fill:#e8e8e8" /><polygon
             id="XMLID_116_"
             points="433,368.3 444.3,351.3 452.2,351.3 452.3,351 443.7,351 432.9,367.3 "
             style="fill:#e8e8e8" /><polygon
             id="XMLID_118_"
             points="426.1,354 425.8,355.3 428.7,375.2 429.2,375.2 "
             style="fill:#e8e8e8" /><path
             id="XMLID_132_"
             d="m 416.8,374.9 c 1,0 1.7,-0.2 2.2,-0.6 0.9,-0.7 1.5,-1.7 1.9,-3.1 l 4.6,-17.9 c -0.5,-0.5 -1,-0.9 -1.4,-1.1 l 0,0 c 0.3,0.2 0.5,0.4 0.8,0.7 l -4.6,17.9 c -0.4,1.4 -1,2.4 -1.9,3.1 -0.5,0.4 -1.2,0.6 -2.2,0.6 l -0.1,0.6 0.7,0 0,-0.2 z"
             inkscape:connector-curvature="0"
             style="fill:#e8e8e8" /></g><g
           id="XMLID_67_"><path
             id="XMLID_110_"
             d="m 455.2,351.3 11.2,0 0.1,-0.3 -11.9,0 -0.2,0.6 c 0.2,0 0.5,0 0.7,0.1 l 0.1,-0.4 z"
             inkscape:connector-curvature="0"
             style="fill:#e8e8e8" /><path
             id="XMLID_112_"
             d="m 449.8,374.9 c 1.2,0 2.1,-0.2 2.6,-0.7 0.5,-0.5 1,-1.5 1.4,-3 l 3.9,-15.5 c 0.2,-1 0.3,-1.7 0.3,-2.2 0,-0.4 -0.2,-0.8 -0.5,-1 -0.1,-0.1 -0.3,-0.1 -0.4,-0.2 0.2,0.2 0.4,0.5 0.4,0.9 0,0.5 -0.1,1.2 -0.3,2.2 l -3.9,15.5 c -0.4,1.6 -0.9,2.6 -1.4,3 -0.5,0.5 -1.4,0.7 -2.6,0.7 l -0.2,0.6 0.7,0 0,-0.3 z"
             inkscape:connector-curvature="0"
             style="fill:#e8e8e8" /></g><g
           id="XMLID_32_"><path
             id="XMLID_33_"
             d="m 478.4,363.9 c 0.2,0 0.4,0 0.6,0 l 0.1,-0.4 9.8,0 0.1,-0.3 -10.5,0 -0.1,0.7 z"
             inkscape:connector-curvature="0"
             style="fill:#e8e8e8" /><path
             id="XMLID_106_"
             d="m 474.5,374 c 0.9,0.6 1.8,0.8 2.8,0.8 0.6,0 1.4,-0.2 2.3,-0.5 l 1.6,-6.4 c 0.3,-1.1 0.4,-1.8 0.4,-2.1 0,-0.4 -0.2,-0.8 -0.6,-1.1 -0.1,-0.1 -0.3,-0.2 -0.5,-0.2 0.3,0.3 0.5,0.6 0.5,1 0,0.3 -0.1,1 -0.4,2.1 L 479,374 c -0.9,0.3 -1.7,0.5 -2.3,0.5 -0.8,0 -1.5,-0.2 -2.2,-0.5 z"
             inkscape:connector-curvature="0"
             style="fill:#e8e8e8" /><path
             id="XMLID_108_"
             d="m 467.2,371.2 c -1.1,-1.7 -1.7,-3.6 -1.8,-5.7 -0.2,-4.6 1.7,-8.3 5.7,-11.3 3.1,-2.3 6.6,-3.3 10.7,-3.5 0.4,0 1.4,-0.1 2.8,-0.1 1.1,0 2.5,0 4.4,0.2 0,0 0,-0.1 -0.1,-0.1 -0.2,-0.2 -0.4,-0.2 -0.4,-0.2 -2,-0.2 -3.3,-0.2 -4.5,-0.2 -1.4,0 -2.4,0.1 -2.8,0.1 -4,0.2 -7.6,1.3 -10.7,3.5 -4,3 -5.9,6.7 -5.7,11.3 0.1,2.1 0.7,4 1.8,5.7 1.1,1.7 2.4,2.9 4,3.7 0,0 0,0 0.1,0 -1.3,-0.8 -2.5,-1.9 -3.5,-3.4 z"
             inkscape:connector-curvature="0"
             style="fill:#e8e8e8" /><path
             id="XMLID_136_"
             d="m 487.4,358.2 0.6,0 c -0.2,-2.1 -0.3,-3.6 -1.2,-4.5 -0.6,-0.6 -1,-1 -1.6,-1.3 0.3,0.2 0.6,0.6 1,0.9 0.9,1 1,2.6 1.2,4.9 z"
             inkscape:connector-curvature="0"
             style="fill:#e8e8e8" /></g><g
           id="XMLID_27_"><path
             id="XMLID_95_"
             d="m 499.8,374.9 c 1,-0.1 1.6,-0.2 1.8,-0.3 0.3,-0.2 0.6,-0.5 0.9,-1.1 0.3,-0.5 0.4,-1.5 0.4,-2.8 l 0,-3.4 -0.6,0 0,3.1 c 0,1.3 -0.1,2.2 -0.4,2.8 -0.3,0.5 -0.5,0.9 -0.9,1.1 -0.2,0.1 -0.8,0.2 -1.8,0.3 l -0.2,0.6 0.7,0 0.1,-0.3 z"
             inkscape:connector-curvature="0"
             style="fill:#e8e8e8" /><path
             id="XMLID_138_"
             d="m 486.3,374.9 c 0.6,-0.1 1.2,-0.3 1.7,-0.7 0.7,-0.5 1.6,-1.5 2.8,-3 l 16.5,-20.4 0.2,0 0,-0.3 -0.8,0 -16.5,20.4 c -1.2,1.5 -2.1,2.5 -2.8,3 -0.5,0.3 -1.1,0.6 -1.7,0.7 l -0.2,0.6 0.7,0 0.1,-0.3 z"
             inkscape:connector-curvature="0"
             style="fill:#e8e8e8" /><polygon
             id="XMLID_139_"
             points="503,357.2 502.4,357.9 502.2,365.9 496.1,365.9 495.8,366.2 502.8,366.2 "
             style="fill:#e8e8e8" /></g></g></g></g><g
     id="g3756"
     transform="matrix(0.69692048,0,0,0.69692206,656.1476,403.0402)"><g
       id="layer1"
       transform="translate(0,-844.36216)"><path
         d="m 181.76913,1030.0746 11.28375,0 0,7.3612 -11.28375,0 0,-7.3612 z M 2.1478797,845.89083 l -1.20499996,1.1075 -0.3875,1.39875 0.19375,201.53002 0.46624996,1.0325 1.03,0.6587 196.1087503,0.1738 1.305,-0.7338 0.65875,-1.225 -0.2725,-179.79497 -1.39875,0 0,-8.19875 1.10625,0.2725 0,-2.7975 -15.095,-13.25 -2.99125,-0.175 -0.9325,0.835 -16.04625,0 -1.39875,1.39875 -3.26375,0.0975 -107.79375,0 10e-4,-0.9325 -26.5,-0.195 0.0962,-1.03 -23.6837503,-0.17375 0.002,10e-4 z"
         style="fill:#3b3b3b;fill-opacity:1;fill-rule:nonzero;stroke:none"
         id="path986"
         inkscape:connector-curvature="0" /><g
         id="g988"
         transform="matrix(1.25,0,0,-1.25,0.56249974,848.4047)"><path
           d="m 0,0 0.149,-161.224 0.373,-0.821 0.821,-0.522 156.897,-0.149 1.044,0.597 0.523,0.969 -0.224,143.841 -1.119,0 0,6.566 0.895,-0.224 0,2.238 -12.086,10.594 -2.388,0.149 -0.746,-0.671 -12.832,0 -1.119,-1.119 -2.611,-0.075 -86.245,0 0,0.746 -21.188,0.15 0.074,0.82 L 1.268,2.014 0.298,1.119 0,0 0,0 Z"
           style="fill:none;stroke:#424242;stroke-width:0.89999998;stroke-linecap:round;stroke-linejoin:round;stroke-miterlimit:10;stroke-dasharray:none;stroke-opacity:1"
           id="path990"
           inkscape:connector-curvature="0" /></g><g
         id="g992"
         transform="matrix(1.25,0,0,-1.25,26.022,846.72595)"><path
           d="m 0,0 0,-52.896 0.373,-0.671 0.522,-0.224 23.128,0"
           style="fill:none;stroke:#858586;stroke-width:0.60000002;stroke-linecap:round;stroke-linejoin:round;stroke-miterlimit:10;stroke-dasharray:none;stroke-opacity:1"
           id="path994"
           inkscape:connector-curvature="0" /></g><path
         d="m 6.9978797,1037.5321 11.2837503,0 0,-7.3675 -11.2837503,0 0,7.3675 z"
         style="fill:#292929;fill-opacity:1;fill-rule:nonzero;stroke:none"
         id="path996"
         inkscape:connector-curvature="0" /><g
         id="g998"
         transform="matrix(1.25,0,0,-1.25,176.16713,1046.6958)"><path
           d="m 0,0 0,87.757 -0.895,1.044 -119.37,-0.149 -1.045,-0.746 0,-88.018 L 0,0 Z"
           style="fill:#ffffff;fill-opacity:1;fill-rule:nonzero;stroke:none"
           id="path1000"
           inkscape:connector-curvature="0" /></g><path
         d="m 113.86288,856.71208 28.8325,0 0,54.09 -28.8325,0 0,-54.09 z m -61.57,-11.055 0,67.1275 1.94375,1.49625 103.18625,0 1.71,-1.885 0,-66.735 -106.83625,0 -0.004,-0.004 z"
         style="fill:#b2b2b2;fill-opacity:1;fill-rule:nonzero;stroke:none"
         id="path1002"
         inkscape:connector-curvature="0" /></g><g
       transform="matrix(0.13096144,0,0,0.13096144,49.408652,123.8373)"
       id="g4379"><path
         class="st0"
         d="m 338.83098,17.757019 c -20.41063,0 -37.15028,-16.5928117 -37.15028,-37.150278 0,-20.557466 16.59281,-37.150278 37.15028,-37.150278 20.41063,0 37.15028,16.592812 37.15028,37.150278 0,20.5574663 -16.59281,37.150278 -37.15028,37.150278 z m 0,-59.029296 c -12.0408,0 -21.87902,9.838216 -21.87902,21.879018 0,12.0408017 9.83822,21.8790177 21.87902,21.8790177 12.0408,0 21.87902,-9.838216 21.87902,-21.8790177 0,-12.040802 -9.83822,-21.879018 -21.87902,-21.879018 z"
         id="path9"
         inkscape:connector-curvature="0"
         style="fill:#ff0000" /><path
         class="st1"
         d="m 463.05681,20.106444 c -0.29368,0 -0.73419,0 -1.02787,0 l -56.3862,-7.341952 C 403.587,12.470814 401.82493,11.442941 400.65022,9.827711 399.4755,8.2124815 398.88815,6.1567349 399.18183,4.2478273 l 7.34195,-56.3861933 c 0.58736,-4.111493 4.40517,-7.048274 8.51666,-6.607757 l 56.3862,7.341952 c 2.05574,0.293678 3.81781,1.321552 4.99252,2.936781 1.17472,1.61523 1.76207,3.670976 1.4684,5.579884 l -7.34196,56.386193 c -0.44051,3.817815 -3.67097,6.607757 -7.48879,6.607757 z m -47.72269,-21.5853395 41.11493,5.4330447 5.43305,-41.1149322 -41.11493,-5.433045 -5.43305,41.1149325 z"
         id="path11"
         inkscape:connector-curvature="0"
         style="fill:#ff5ddc" /><path
         class="st2"
         d="m 339.85885,-75.045257 c -0.58735,0 -1.02787,0 -1.61523,-0.146839 -4.11149,-0.881035 -6.75459,-4.845689 -5.87356,-8.957182 l 12.0408,-57.707742 c 0.88104,-4.1115 4.84569,-6.7546 8.95718,-5.87356 4.1115,0.88103 6.7546,4.84568 5.87357,8.95718 l -12.04081,57.707742 c -0.58735,3.524137 -3.81781,6.020401 -7.34195,6.020401 z"
         id="path13"
         inkscape:connector-curvature="0"
         style="fill:#027fe1" /><path
         class="st2"
         d="m 339.85885,-75.045257 c -0.58735,0 -1.02787,0 -1.61523,-0.146839 -4.11149,-0.881035 -6.75459,-4.845689 -5.87356,-8.957182 l 12.0408,-57.707742 c 0.88104,-4.1115 4.84569,-6.7546 8.95718,-5.87356 4.1115,0.88103 6.7546,4.84568 5.87357,8.95718 l -12.04081,57.707742 c -0.58735,3.524137 -3.81781,6.020401 -7.34195,6.020401 z"
         id="path15"
         inkscape:connector-curvature="0"
         style="fill:#027fe1" /><path
         class="st2"
         d="m 374.80655,-97.952148 c -0.58736,0 -1.02788,0 -1.61523,-0.146839 l -57.70775,-12.040803 c -4.11149,-0.88103 -6.7546,-4.84569 -5.87356,-8.95718 0.88103,-4.11149 4.84569,-6.7546 8.95718,-5.87356 l 57.70775,12.0408 c 4.11149,0.88103 6.75459,4.84569 5.87356,8.95718 -0.7342,3.52414 -3.81782,6.020402 -7.34195,6.020402 z"
         id="path17"
         inkscape:connector-curvature="0"
         style="fill:#027fe1" /><path
         class="st3"
         d="m 414.45309,-79.15675 c -1.90891,0 -3.67098,-0.734196 -4.99253,-1.908908 -2.05575,-1.762069 -2.93678,-4.55201 -2.34942,-7.195113 l 10.42557,-49.631599 c 0.58735,-2.6431 2.49626,-4.84569 4.99253,-5.57988 2.49626,-0.88104 5.43304,-0.29368 7.48879,1.46839 l 38.03131,33.4793 c 2.05575,1.76207 2.93678,4.55201 2.34942,7.19511 -0.58735,2.643107 -2.49626,4.845692 -4.99252,5.726726 l -48.45689,16.005456 c -1.02787,0.293678 -1.76207,0.440518 -2.49626,0.440518 z m 15.12442,-42.877 -4.99253,23.934763 23.34741,-7.782473 -18.35488,-16.15229 z"
         id="path19"
         inkscape:connector-curvature="0"
         style="fill:#8aee49" /><path
         class="st4"
         d="M 667.75044,304.09316 620.02775,139.48659 c -2.20258,-7.78247 -10.71925,-14.09655 -18.7954,-14.09655 l -423.19013,0 c -8.07614,0 -16.44597,6.31408 -18.79539,14.09655 L 112.11149,303.21212 C 109.90891,310.99459 108,323.91643 108,331.99258 l 0,184.72352 c 0,8.07614 6.60776,14.6839 14.6839,14.6839 l 534.49413,0 c 8.07615,0 14.6839,-6.60776 14.6839,-14.6839 l 0,-183.84249 c 0,-8.07615 -1.9089,-20.99798 -4.11149,-28.78045 z M 617.972,288.67506 161.74309,288.0877 c -8.07615,0 -12.92184,-6.31408 -10.57241,-14.09655 L 181.41952,168.8544 c 2.20259,-7.78247 10.71925,-14.09655 18.7954,-14.09655 l 378.99158,0 c 8.07614,0 16.59281,6.31408 18.79539,14.09655 l 30.68936,105.72411 c 2.20259,7.78247 -2.6431,14.09655 -10.71925,14.09655 z"
         id="path21"
         inkscape:connector-curvature="0"
         style="fill:#808080" /><path
         id="path3079_4_"
         inkscape:connector-curvature="0"
         class="st5"
         d="m 160.42154,435.80778 -22.90689,0 0,-38.32499 61.23188,0 0,7.63563 -38.32499,0 0,30.68936 0,0 z"
         style="fill:#ffffff" /><path
         id="path3081_4_"
         inkscape:connector-curvature="0"
         class="st5"
         d="m 229.28905,428.02531 38.32499,0 0,7.63563 -61.23188,0 0,-38.32499 61.23188,0 0,22.90689 -38.32499,0 0,7.78247 z m 0,-15.27126 15.27126,0 0,-7.63563 -15.27126,0 0,7.63563 z"
         style="fill:#ffffff" /><path
         id="path3083_4_"
         inkscape:connector-curvature="0"
         class="st5"
         d="m 298.15656,428.02531 38.32499,0 0,7.63563 -61.23188,0 0,-38.32499 61.23188,0 0,7.63563 -38.32499,0 0,23.05373 z"
         style="fill:#ffffff" /><path
         id="path3085_4_"
         inkscape:connector-curvature="0"
         class="st5"
         d="m 343.97035,397.48279 61.23188,0 0,38.32499 -61.23188,0 0,-22.90689 38.32499,0 0,-7.63563 -38.32499,0 0,-7.78247 z m 23.05373,30.54252 15.27126,0 0,-7.63563 -15.27126,0 0,7.63563 z"
         style="fill:#ffffff" /><path
         id="path3087_4_"
         inkscape:connector-curvature="0"
         class="st5"
         d="m 412.83786,366.94027 22.90689,0 0,68.86751 -22.90689,0 0,-68.86751 z"
         style="fill:#ffffff" /><path
         id="path3089_4_"
         inkscape:connector-curvature="0"
         class="st5"
         d="m 443.52722,366.94027 22.90689,0 0,30.54252 38.32499,0 0,38.32499 -61.23188,0 0,-68.86751 z m 22.90689,61.08504 15.27126,0 0,-22.90689 -15.27126,0 0,22.90689 z"
         style="fill:#ffffff" /><path
         id="path3091_4_"
         inkscape:connector-curvature="0"
         class="st5"
         d="m 512.39473,397.48279 61.23188,0 0,38.32499 -61.23188,0 0,-38.32499 z m 22.90689,30.54252 15.27126,0 0,-22.90689 -15.27126,0 0,22.90689 z"
         style="fill:#ffffff" /><path
         id="path3093_4_"
         inkscape:connector-curvature="0"
         class="st5"
         d="m 588.89787,420.38968 7.63563,0 0,-7.63563 -7.63563,0 0,-7.63563 -7.63563,0 0,-7.63563 22.90689,0 0,7.63563 15.27126,0 0,-7.63563 22.9069,0 0,7.63563 -7.63563,0 0,7.63563 -7.63563,0 0,7.63563 7.63563,0 0,7.63563 7.63563,0 0,7.63563 -22.9069,0 0,-7.63563 -15.27126,0 0,7.63563 -22.90689,0 0,-7.63563 7.63563,0 0,-7.63563 z"
         style="fill:#ffffff" /><path
         class="st5"
         d="M 580.08753,185.15353 C 579.50017,157.25411 578.76598,148.29693 576.12288,137.284 567.31253,100.28056 552.04127,71.353271 529.42806,48.886897 498.44502,18.050698 460.56055,15.113917 416.80251,40.076554 l -10.13189,5.873562 C 391.10568,45.803277 373.19132,44.922243 369.3735,43.89437 366.43672,41.985462 359.9758,38.461325 355.13011,35.965061 325.17495,21.134318 297.86289,19.519088 273.92812,31.266212 242.06405,46.83115 214.31147,89.267635 203.1517,139.48659 c -3.23046,14.53706 -3.52414,19.08907 -3.3773,55.21148 0.14684,40.96809 1.02788,48.45688 7.34196,61.08504 6.0204,12.0408 14.97758,20.11695 28.33993,25.25632 3.3773,1.32155 6.90144,1.90891 10.71925,1.90891 21.4385,0 49.77844,-20.11695 74.15372,-53.7431 l 7.19511,-9.83821 124.96003,0 7.19511,9.83821 c 18.94224,26.28419 50.80631,54.18361 72.24481,54.18361 16.29914,0 32.89195,-11.45344 41.26178,-28.48677 6.31407,-13.94971 7.9293,-28.33994 6.90143,-69.74855 z"
         id="path31"
         inkscape:connector-curvature="0"
         style="fill:#ffffff" /><path
         class="st4"
         d="m 574.36081,185.30037 c -0.58736,-27.4589 -1.32155,-36.1224 -3.81782,-46.69482 -8.6635,-36.1224 -23.20057,-63.874981 -45.07958,-85.60716 C 496.24244,23.924259 461.44158,21.281157 419.73929,45.069082 l -11.60028,6.607757 c 0,0 -38.32499,-0.440517 -41.55545,-2.789942 -2.20259,-1.46839 -8.51667,-4.992527 -14.09655,-7.782469 -28.33994,-14.096549 -53.74309,-15.711778 -76.20946,-4.69885 -30.24885,14.830744 -56.82671,55.798837 -67.83964,104.402562 -3.08362,13.94971 -3.3773,18.35488 -3.23046,54.03677 0.14684,40.08706 0.88103,46.84165 6.75459,58.44194 5.28621,10.71925 13.36236,17.76752 25.25632,22.46637 l 0,0 c 19.23591,7.48879 51.5405,-13.06867 78.11837,-49.92527 l 8.95718,-12.33448 130.83359,0 8.95718,12.33448 c 20.99799,29.07413 50.65948,51.83418 67.54597,51.83418 13.94971,0 28.78045,-10.27873 35.97556,-25.25632 6.31408,-12.92183 7.78247,-26.87154 6.7546,-67.10544 z m -233.03357,-52.56838 -19.82327,0 0,19.82327 c 0,6.16724 -5.13936,11.30661 -11.3066,11.30661 -6.16724,0 -11.30661,-5.13937 -11.30661,-11.30661 l 0,-19.82327 -19.82327,0 c -6.16724,0 -11.30661,-5.13936 -11.30661,-11.3066 0,-6.16724 5.13937,-11.30661 11.30661,-11.30661 l 19.82327,0 0,-19.823272 c 0,-6.16724 5.13937,-11.306607 11.30661,-11.306607 6.16724,0 11.3066,5.139367 11.3066,11.306607 l 0,19.823272 19.82327,0 c 6.16724,0 11.30661,5.13937 11.30661,11.30661 -0.14684,6.31407 -5.13937,11.3066 -11.30661,11.3066 z M 487.28525,70.765915 c 9.54454,0 17.32701,7.782469 17.32701,17.327007 0,9.544538 -7.78247,17.327008 -17.32701,17.327008 -9.54453,0 -17.327,-7.78247 -17.327,-17.327008 0.14684,-9.544538 7.78247,-17.327007 17.327,-17.327007 z M 431.0459,104.24522 c 0,-9.544541 7.78247,-17.32701 17.32701,-17.32701 9.54454,0 17.327,7.782469 17.327,17.32701 0,9.54454 -7.78246,17.327 -17.327,17.327 -9.54454,0 -17.32701,-7.78246 -17.32701,-17.327 z m 35.97557,58.58878 c -9.54454,0 -17.32701,-7.78247 -17.32701,-17.32701 0,-9.54454 7.78247,-17.32701 17.32701,-17.32701 9.54453,0 17.327,7.78247 17.327,17.32701 0,9.54454 -7.78247,17.32701 -17.327,17.32701 z m 36.41608,-17.32701 c -9.54454,0 -17.32701,-7.78247 -17.32701,-17.32701 0,-9.54454 7.78247,-17.32701 17.32701,-17.32701 9.54454,0 17.32701,7.78247 17.32701,17.32701 0,9.69138 -7.78247,17.32701 -17.32701,17.32701 z"
         id="path33"
         inkscape:connector-curvature="0"
         style="fill:#808080" /><g
         id="g35"
         transform="matrix(2.0751218,0,0,2.0751218,-336.96336,-563.55356)"><path
           id="path3_1_"
           inkscape:connector-curvature="0"
           class="st6"
           d="m 403.4,511.6 0,0 0,0 z"
           style="fill:#d40000" /><path
           id="path5_1_"
           inkscape:connector-curvature="0"
           class="st6"
           d="m 403.4,504.7 0,0 0,0 z"
           style="fill:#d40000" /><path
           id="path7_1_"
           inkscape:connector-curvature="0"
           class="st6"
           d="m 403.4,497.9 0,0 0,0 z"
           style="fill:#d40000" /><path
           id="path9_1_"
           inkscape:connector-curvature="0"
           class="st6"
           d="m 403.4,501.3 0,0 0,0 z"
           style="fill:#d40000" /><path
           id="path11_1_"
           inkscape:connector-curvature="0"
           class="st6"
           d="m 403.4,515 0,0 0,0 z"
           style="fill:#d40000" /><path
           id="path13_1_"
           inkscape:connector-curvature="0"
           class="st6"
           d="m 403.4,508.1 0,0 0,0 z"
           style="fill:#d40000" /><path
           id="path15_1_"
           inkscape:connector-curvature="0"
           class="st6"
           d="m 403.4,494.5 0,0 0,0 z"
           style="fill:#d40000" /></g></g></g></svg>