<svg xmlns="http://www.w3.org/2000/svg" width="500" height="339.63098">
  <defs>
    <clipPath id="a">
      <path d="M0 355.159h288.939V0H0v355.159z"/>
    </clipPath>
    <linearGradient id="b" x2="1" gradientTransform="matrix(0,-5.9756982,5.9756982,0,211.07399,318.34869)" gradientUnits="userSpaceOnUse">
      <stop offset="0" stop-color="#d1d3d4"/>
      <stop offset="1" stop-color="gray"/>
    </linearGradient>
    <linearGradient id="c" x2="1" gradientTransform="matrix(0,-4.3657052,4.3657052,0,211.07384,317.54331)" gradientUnits="userSpaceOnUse">
      <stop offset="0" stop-color="#231f20"/>
      <stop offset="1" stop-color="#fff"/>
    </linearGradient>
    <clipPath id="d">
      <path d="M0 355.159h288.939V0H0v355.159z"/>
    </clipPath>
    <clipPath id="e">
      <path d="M0 144.916h207.048V0H0v144.916z"/>
    </clipPath>
  </defs>
  <g clip-path="url(#a)" transform="matrix(0.95628003,0,0,-0.95628003,-1.5301375e-4,339.63098)">
    <path fill="#d9d9d9" d="M287.0933 330.9505c0 18.693-11.338 24.208-20.531 24.208-2.422 0-10.812-.021-22.176-.052v-4.312h-4.434v4.299c-1.58-.004-3.208-.009-4.871-.013v-4.286h-4.434v4.273c-1.598-.004-3.223-.009-4.871-.014v-4.259h-4.433v4.247c-1.61-.005-3.235-.009-4.871-.014v-4.233h-4.434v4.22c-1.619-.004-3.243-.009-4.871-.013v-4.207h-4.434v4.194c-1.627-.004-3.251-.009-4.871-.013v-4.181h-4.434v4.168c-1.635-.004-3.26-.009-4.871-.013v-4.155h-4.433v4.143c-1.647-.004-3.272-.009-4.871-.013v-4.13h-4.434v4.119c-1.661-.005-3.288-.009-4.871-.013v-4.106h-4.434v4.095c-1.692-.004-3.313-.007-4.871-.011v-4.084h-4.434v4.075c-1.755-.004-3.386-.007-4.871-.01v-4.065h-4.433v4.059c-.919-.001-1.743-.001-2.436-.001-.693 0-1.517 0-2.435.001v-4.059h-4.434v4.065c-1.485.003-3.116.006-4.871.01v-4.075h-4.434v4.084c-1.558.004-3.179.007-4.871.011v-4.095h-4.434v4.106c-1.582.004-3.21.008-4.871.013v-4.119h-4.433v4.13c-1.6.004-3.225.009-4.871.013v-4.143h-4.434v4.155c-1.61.004-3.235.009-4.871.013v-4.168h-4.434v4.181c-1.619.004-3.244.009-4.871.013v-4.194h-4.433v4.207c-1.628.004-3.253.009-4.871.013v-4.22h-4.434v4.233c-1.637.005-3.262.009-4.871.014v-4.247h-4.434v4.259c-1.648.005-3.273.01-4.871.014v-4.273h-4.434v4.286c-1.662.004-3.29.009-4.871.013v-4.299h-4.433v4.312c-11.365.031-19.754.052-22.176.052-9.193 0-20.531-5.515-20.531-24.208 0-18.693-3.411-288.662-.96-304.904 2.452-18.999 11.645-26.047 27.886-26.047s115.697.668 115.697.668 99.457-.668 115.698-.668 25.434 7.048 27.885 26.047c2.452 16.242-.959 286.211-.959 304.904"/>
    <path fill="#4c4c4c" d="M267.9272 7.0004H22.0532c-8.301 0-15.093 6.791-15.093 15.092v311.903c0 8.3 6.792 15.092 15.093 15.092h245.874c8.301 0 15.092-6.792 15.092-15.092V22.0924c0-8.301-6.791-15.092-15.092-15.092"/>
    <path fill="#d9d9d9" d="M266.9116 8.0005H22.8576c-8.255-.359-15.516 6.858-14.998 14.998v310.302c-.518 8.335 7.18 15.508 14.998 14.997h244.054c8.246.467 15.551-6.575 14.998-14.997V22.9985c.597-8.009-6.795-15.444-14.998-14.998"/>
    <path fill="#b3b3b3" d="M254.9423 65.6895H34.0003c-7.19 0-13.073 5.883-13.073 13.072v222.921c0 7.19 5.883 13.073 13.073 13.073h220.942c7.19 0 13.072-5.883 13.072-13.073V78.7615c0-7.189-5.882-13.072-13.072-13.072"/>
  </g>
  <path fill="url(#b)" d="M206.8174 312.37318c-1.64767 0-2.98742 1.33974-2.98742 2.98742 0 1.64767 1.33975 2.98837 2.98742 2.98837h8.5128c1.64767 0 2.98838-1.3407 2.98838-2.98837 0-1.64768-1.34071-2.98742-2.98838-2.98742h-8.5128z"/>
  <path fill="url(#c)" d="M206.74185 313.17836c-1.15901 0-2.10764.94768-2.10764 2.10765v.14918c0 1.15996.94863 2.10764 2.10764 2.10764h8.6639c1.15901 0 2.10764-.94768 2.10764-2.10764v-.14918c0-1.15997-.94863-2.10765-2.10764-2.10765h-8.6639z"/>
  <g clip-path="url(#d)" transform="matrix(0.95628003,0,0,-0.95628003,-1.5301375e-4,339.63098)">
    <path fill="gray" d="M225.2537 23.0975h-9.059c-1.213 0-2.204.992-2.204 2.204v.157c0 1.212.991 2.204 2.204 2.204h9.059c1.212 0 2.204-.992 2.204-2.204v-.157c0-1.212-.992-2.204-2.204-2.204M179.519 85.0324h-70.88c-3.268 0-5.942 2.674-5.942 5.942v31.898c0 3.268 2.674 5.942 5.942 5.942h70.88c3.268 0 5.942-2.674 5.942-5.942v-31.898c0-3.268-2.674-5.942-5.942-5.942"/>
    <path fill="#4c4c4c" d="M144.4681 190.2223c13.34 0 71.377 2.497 81.42 3.324 10.043.827 14.002 3.935 16.187 7.207 2.367 3.545 2.6 10.28 2.127 14.888-.473 4.608-5.908 5.317-7.916 5.317h-91.818.003-91.817c-2.009 0-7.444-.709-7.917-5.317-.472-4.608-.24-11.343 2.127-14.888 2.185-3.272 6.144-6.38 16.187-7.207 10.043-.827 68.08-3.324 81.42-3.324"/>
    <path fill="#fff" d="M200.9727 89.5638v31.857c0 4.594 3.725 8.319 8.319 8.319h25.139c4.594 0 8.319-3.725 8.319-8.319v-31.857c0-4.594-3.725-8.319-8.319-8.319h-25.139c-4.594 0-8.319 3.725-8.319 8.319"/>
    <path fill="#4c4c4c" d="M234.3457 83.7064h-24.969c-3.269 0-5.942 2.674-5.942 5.942v31.688c0 3.268 2.673 5.942 5.942 5.942h24.969c3.268 0 5.942-2.674 5.942-5.942v-31.688c0-3.268-2.674-5.942-5.942-5.942"/>
    <path fill="#fff" d="M45.7988 89.6251v31.857c0 4.594 3.725 8.319 8.319 8.319h25.138c4.595 0 8.319-3.725 8.319-8.319v-31.857c0-4.594-3.724-8.319-8.319-8.319h-25.138c-4.594 0-8.319 3.725-8.319 8.319"/>
    <path fill="#4c4c4c" d="M79.1714 83.7675h-24.969c-3.269 0-5.942 2.674-5.942 5.942v31.687c0 3.269 2.673 5.942 5.942 5.942h24.969c3.268 0 5.942-2.673 5.942-5.942v-31.687c0-3.268-2.674-5.942-5.942-5.942"/>
    <path fill="#4c4c4c" d="M85.0544 103.3284h-36.558c-.654 0-1.189.535-1.189 1.188v2.073c0 .654.535 1.189 1.189 1.189h36.558c.654 0 1.188-.535 1.188-1.189v-2.073c0-.653-.534-1.188-1.188-1.188"/>
    <path fill="#666" d="M48.5384 107.7782c-.635 0-1.144-.493-1.207-1.112.063-.62.572-1.113 1.207-1.113h36.474c.635 0 1.144.493 1.206 1.113-.062.619-.571 1.112-1.206 1.112h-36.474z"/>
    <path fill="gray" d="M63.1832 196.6211h-.701c-.653 0-1.188.535-1.188 1.188v19.327c0 .654.535 1.189 1.188 1.189h.701c.654 0 1.189-.535 1.189-1.189v-19.327c0-.653-.535-1.188-1.189-1.188m162.5728 0h.701c.653 0 1.188.535 1.188 1.188v19.327c0 .654-.535 1.189-1.188 1.189h-.701c-.654 0-1.188-.535-1.188-1.189v-19.327c0-.653.534-1.188 1.188-1.188m-78.3306-.0543c-1.625-1.654-4.284-1.654-5.908 0-1.625 1.654-4.284 4.361-5.909 6.016-1.625 1.654-.295 3.007 2.954 3.007h11.817c3.25 0 4.579-1.353 2.954-3.007-1.624-1.655-4.283-4.362-5.908-6.016"/>
    <path fill="#4c4c4c" d="M70.0829 16.8948l-.249-.675h.19l.059.675zm-7.014.806c-.019 0-.034-.011-.048-.024l-.154-.806v-.011c0-.026.018-.048.048-.048h.142c.035 0 .124.071.13.107l.131.663c.006.038-.06.119-.095.119h-.154zm28.4.32h.794l-.059-.332h-.201l-.415-2.346h-.379l.414 2.346h-.213l.059.332zm-3.519 0h.332l.178-1.398.261 1.398h.379l-.498-2.678h-.332l-.13 1.552-.308-1.552h-.391l.509 2.678zm-3.436 0h.699l-.047-.332h-.379l-.154-.829h.367l-.047-.285h-.379l-.154-.9h.379l-.059-.332h-.747l.521 2.678zm-4.301 0h.439l.071-1.552.675 1.54h.427l-.45-2.666h-.332l.213 1.41-.592-1.41h-.237l-.071 1.445-.261-1.445h-.379l.497 2.678zm-3.921 0h.331l.178-1.398.261 1.398h.379l-.498-2.678h-.343l-.119 1.552-.308-1.552h-.391l.51 2.678zm-3.057 0h.343l-.509-2.678h-.332l.498 2.678zm-3.152 0h.45l-.142-2.678h-.45l.059.616h-.272l-.226-.616h-.402l.983 2.678zm-3.945 0h.793l-.047-.332h-.201l-.427-2.346h-.379l.415 2.346h-.214l.06.332zm-3.389 0h.758c.141 0 .23-.125.202-.273l-.178-.948c-.02-.102-.2-.186-.296-.225h.047v-.012h.047l.012-.012h.036v-.011h.024v-.012h.011c.016-.029.024-.114.024-.131 0-.015-.19-1.054-.19-1.054h-.343s.183.933.19.971c.003.042-.005.092-.012.131-.003.028-.004.077-.036.106h-.237l-.225-1.208h-.344l.51 2.678zm-3.341 0h.711l-.06-.332h-.367l-.166-.829h.367l-.047-.285h-.367l-.154-.9h.367l-.047-.332h-.759l.522 2.678zm-3.448 0h.782l-.048-.332h-.201l-.427-2.346h-.379l.415 2.346h-.213l.071.332zm-3.555 0h.332l.178-1.398.26 1.398h.391l-.509-2.678h-.332l-.13 1.552-.308-1.552h-.391l.509 2.678zm-3.27 0h.699l-.047-.332h-.379l-.154-.829h.367l-.048-.285h-.379l-.142-.9h.367l-.059-.332h-.758l.533 2.678zm63.638.094h.438l.071-1.54.676 1.528.426.012-.45-2.665h-.332l.213 1.41-.592-1.41h-.237l-.071 1.445-.261-1.445h-.391l.51 2.665zm-2.927 0h.711l-.059-.32h-.367l-.166-.841h.379l-.059-.272h-.368l-.154-.901h.368l-.048-.331h-.758l.521 2.665zm-3.104 0h.794l-.059-.32h-.202l-.415-2.345h-.39l.414 2.345h-.201l.059.32zm-2.761 0h.581c.14 0 .239-.112.213-.26l-.13-.664h-.32l.071.439c.016.099-.042.177-.142.177-.099 0-.197-.078-.213-.177l-.06-.32c-.012-.019.016-.109.036-.119.041-.025.462-.718.462-.77.012-.026.012-.038.012-.047-.016-.087-.119-.676-.119-.676-.025-.135-.158-.248-.296-.248h-.509c-.138 0-.227.113-.202.248l.119.676h.343l-.083-.486c-.015-.099.046-.19.142-.19.099 0 .194.09.214.19l.071.391c-.065.164-.483.759-.51.9-.018.016-.026.102-.023.166.003.071.095.51.095.51l.011.012v.023l.012.024v.012l.012.012v.012l.012.011v.012l.012.012.012.012v.012h.011l.012.012.012.011.012.012.012.012.012.012.011.012h.012l.012.012h.012l.012.011h.036l.011.012zm-3.874 0h.426l.06-1.007.545 1.007h.426l-.876-1.54-.214-1.125h-.379l.19 1.208-.178 1.457zm-2.725 0h.58c.141 0 .242-.112.214-.26l-.131-.664h-.32l.072.439c.015.099-.042.177-.143.177-.099 0-.196-.078-.213-.177l-.059-.32c-.01-.019.019-.109.035-.119.044-.025.462-.718.462-.77.01-.026.016-.038.012-.047-.012-.087-.13-.676-.13-.676-.026-.135-.157-.248-.296-.248h-.498c-.138 0-.227.113-.201.248l.118.676h.344l-.083-.486c-.016-.099.042-.19.142-.19.095 0 .197.09.213.19l.071.391c-.063.164-.482.759-.509.9-.018.016-.026.102-.024.166.004.071.095.51.095.51h.012v.035l.012.024v.012l.012.012v.012l.011.011v.012l.012.012.012.012v.012h.012l.012.012.012.011.011.012v.012h.012l.012.012.012.012h.012l.012.012h.012l.011.011h.036l.012.012zm-49.716-3.53h67.631v3.945h-67.631v-3.945zm24.076 15.592h.734c.162 0 .506-.369.474-.533l-.628-2.962c-.028-.155-.413-.521-.568-.521h-.652c-.134 0-.227.088-.237.213 0 .019-.002.048 0 .071l.699 3.637.012.012.012.012.024.012h.011l.012.012.012.012h.012l.012.011h.012l.023.012h.036v.012zm-9.443 0h.734c.161 0 .504-.369.474-.533l-.628-2.974c-.029-.154-.237-.509-.391-.509h-.912l-.012.011h-.047v.012h-.024l-.012.012h-.012l-.012.012-.011.012h-.012v.012l-.012.011-.012.012v.012l-.012.012-.012.012v.023l-.012.012v.024l-.011.012v.012c0 .019-.003.049 0 .071l.711 3.637c.064.054.144.095.225.095m51.801.047h.047c.448 0 .741-.358.664-.805l-1.422-7.879c-.077-.446-.489-.818-.936-.818-.447 0-.634.37-.557.818l1.41 7.879.012.035.012.036.012.047.011.036.012.047.012.036.012.035.024.036.012.035.023.036.012.036.024.035.023.024.024.035.024.036.035.023.024.024.024.024.035.024.036.023.024.024.035.024.036.012.035.023.024.012.047.012.036.012h.035l.036.012h.047l.036.011zm-6.102 0h.699c.447 0 .752-.358.675-.805l-1.492-7.879c-.079-.448-.513-.818-.96-.818h-.687l1.765 9.502zm5.213 1.387c-.65 0-1.27-.535-1.386-1.197l-1.694-9.727c-.11-.621.301-1.114.924-1.114h2.5c.627 0 1.234.493 1.351 1.114l1.836 9.727c.126.662-.299 1.197-.948 1.197h-2.583zm-6.504 0l-2.287-12.038h3.46c.628 0 1.234.493 1.35 1.114l1.837 9.727c.124.664-.298 1.197-.948 1.197h-3.412zm-6.031 0l-2.287-12.038h1.754l1.409 6.978.557-6.978h1.517l2.287 12.038h-1.754l-1.173-6.292-.782 6.292h-1.528zm-3.851 0l-2.37-12.038h3.413l.236 1.493h-1.682l.699 4.064h1.683l.237 1.256h-1.683l.735 3.732h1.682l.237 1.493h-3.187zm-4.171 0l-.284-1.493h.948l-1.872-10.545h1.73l1.907 10.545h.913l.237 1.493h-3.579zm-5.877 0l-2.286-12.038h1.753l1.41 6.978.557-6.978h1.517l2.286 12.038h-1.753l-1.173-6.292-.782 6.292h-1.529zm-2.31 0l-2.287-12.038h1.517l2.287 12.038h-1.517zm-6.019 0l-2.287-12.038h1.742l1.41 6.978.557-6.978h1.516l2.287 12.038h-1.742l-1.184-6.292-.782 6.292h-1.517zm-8.116 0l-2.275-12.038h1.517l1.03 5.45h1.079c.141-.132.158-.375.177-.498.028-.177.058-.403.036-.58-.02-.176-.83-4.372-.83-4.372h1.517s.853 4.571.853 4.644c.003.075 0 .309-.083.439-.055.083-.15.274-.26.343-.212.136-.451.225-.451.225h-.106c.433.172 1.252.453 1.339.913l.829 4.277c.126.664-.298 1.197-.948 1.197h-3.424zm-4.076 0l-2.37-12.038h3.413l.237 1.493h-1.683l.687 4.064h1.683l.237 1.256h-1.683l.747 3.732h1.682l.237 1.493h-3.187zm-5.415 0l-2.287-12.038h1.517l1.043 5.45h1.931c.628 0 1.224.497 1.339 1.114l.829 4.277c.125.664-.297 1.197-.947 1.197h-3.425zm-5.45 0l-1.896-10.924c-.109-.621.312-1.114.936-1.114h2.263c.627 0 1.235.493 1.351 1.114l2.026 10.924h-1.422l-1.931-10.616c-.028-.154-.178-.285-.332-.285h-1.125c-.158 0-.263.129-.237.285l1.884 10.616h-1.517zm-4.36 0c-.65 0-1.282-.535-1.398-1.197v-.035l-.012-.012v-.036l-.012-.024v-.023l-.012-.024v-.036l-.012-.023v-.036l-.012-.035-.011-.036-.012-.071-.024-.083-.012-.083-.023-.083-.012-.094-.024-.095-.024-.107-.023-.095-.036-.201-.024-.107-.023-.095-.012-.094-.024-.095-.024-.095-.011-.095-.012-.083-.024-.071-.012-.083v-.035l-.012-.024v-.059l-.012-.036v-.047l-.011-.024v-.023c-.013-.29.028-.685.118-.759.115-.638 2.241-3.59 2.18-4.04-.057-.451-.308-1.777-.308-1.777-.077-.448-.382-.806-.829-.806-.448 0-.753.357-.676.806l.403 2.203h-1.587l-.534-3.056c-.108-.621.312-1.114.936-1.114h2.263c.627 0 1.224.493 1.339 1.114 0 0 .583 2.855.581 3.056-.003.203-.059.226-.059.226 0 .232-1.893 3.355-2.086 3.471-.083.049-.151.358-.154.545-.003.186.249 1.434.249 1.434.077.447.501.805.948.805.447 0 .634-.358.557-.805l-.344-1.979h1.6l.557 2.974c.126.662-.298 1.197-.948 1.197h-2.346zM251.179 279.2247c0-10.443-8.466-18.909-18.909-18.909s-18.909 8.466-18.909 18.909 8.466 18.909 18.909 18.909 18.909-8.466 18.909-18.909"/>
    <path fill="#b3b3b3" d="M250.5187 279.2247c0-10.079-8.17-18.249-18.249-18.249-10.078 0-18.248 8.17-18.248 18.249 0 10.078 8.17 18.249 18.248 18.249 10.079 0 18.249-8.171 18.249-18.249"/>
    <path fill="#7eee80" d="M230.2804 276.9928c0-1.776-3.22-3.215-7.191-3.215-3.972 0-7.191 1.439-7.191 3.215 0 1.776 3.219 3.215 7.191 3.215 3.971 0 7.191-1.439 7.191-3.215"/>
    <path fill="#fee94b" d="M243.1538 271.6675c0-1.776-3.22-3.215-7.191-3.215-3.972 0-7.191 1.439-7.191 3.215 0 1.776 3.219 3.215 7.191 3.215 3.971 0 7.191-1.439 7.191-3.215"/>
    <path fill="#ff7961" d="M244.0195 273.7775c-.866 3.601-4.004 7.58-8.057 5.85 3.3 7.612 9.527 6.401 11.69 3.806 1.684-2.021 1.643-8.932-3.633-9.656"/>
    <path fill="#0098df" d="M231.3453 279.5997c-.866 3.601-4.004 7.58-8.057 5.85 3.3 7.612 9.527 6.401 11.69 3.806 1.684-2.021 1.643-8.932-3.633-9.656"/>
    <path fill="#4c4c4c" d="M41.062 314.755h-.616v33.756h.616v-33.756zm207.431 0h-.616v33.756h.616v-33.756zm4.276-306.767h-.616v57.705h.616V7.988zm-215.986 0h-.616V65.69h.616V7.988z"/>
  </g>
  <g clip-path="url(#e)" transform="matrix(0.90662653,0,0,-0.90662653,312.28479,339.63108)">
    <path fill="#ccc" d="M103.5241.0001c13.146 0 92.244 1.027 94.026 1.027 8.611 0 9.498 6.072 9.498 8.684 0 2.612-.712 119.059-.95 125.945-.237 6.886-5.223 7.598-9.26 7.836-4.036.237-80.967 1.424-93.314 1.424-12.347 0-89.278-1.187-93.314-1.424-4.037-.238-9.023-.95-9.26-7.836-.238-6.886-.95-123.333-.95-125.945 0-2.612.887-8.684 9.498-8.684 1.782 0 80.88-1.027 94.026-1.027"/>
    <path fill="#666" d="M176.708.775h-.474v143.148h.474V.775zM30.788.765h-.474v143.148h.474V.765z"/>
    <path d="M178.4641 75.3814H24.7831c-5.253 0-9.551 4.298-9.551 9.551v41.787c0 5.252 4.298 9.551 9.551 9.551h153.681c5.253 0 9.551-4.299 9.551-9.551v-41.787c0-5.253-4.298-9.551-9.551-9.551"/>
    <path fill="#4d4d4d" d="M80.337 75.381h76.634v60.889H80.337V75.381z"/>
    <path fill="#7eee80" d="M27.0653 85.7679c0-1.105-2.003-2.001-4.475-2.001-2.471 0-4.474.896-4.474 2.001s2.003 2.001 4.474 2.001c2.472 0 4.475-.896 4.475-2.001"/>
    <path fill="#fee94b" d="M35.0757 82.4543c0-1.105-2.003-2.001-4.475-2.001-2.471 0-4.474.896-4.474 2.001s2.003 2.001 4.474 2.001c2.472 0 4.475-.896 4.475-2.001"/>
    <path fill="#ff7961" d="M35.6143 83.7672c-.539 2.241-2.492 4.717-5.013 3.64 2.053 4.736 5.928 3.983 7.273 2.368 1.048-1.257 1.023-5.558-2.26-6.008"/>
    <path fill="#0098df" d="M27.728 87.39c-.539 2.241-2.492 4.717-5.013 3.64 2.053 4.736 5.928 3.983 7.273 2.368 1.048-1.257 1.023-5.558-2.26-6.008"/>
    <path fill="#666" d="M12.6022 10.5081c0-2.113-1.713-3.825-3.826-3.825-2.112 0-3.825 1.712-3.825 3.825 0 2.113 1.713 3.826 3.825 3.826 2.113 0 3.826-1.713 3.826-3.826m181.8438 0c0-2.113 1.713-3.825 3.826-3.825 2.112 0 3.825 1.712 3.825 3.825 0 2.113-1.713 3.826-3.825 3.826-2.113 0-3.826-1.713-3.826-3.826"/>
    <path fill="#b3b3b3" d="M159.7229 44.157H47.3249c-2.506 0-4.556 2.05-4.556 4.556v1.789c0 2.506 2.05 4.556 4.556 4.556h112.398c2.506 0 4.556-2.05 4.556-4.556v-1.789c0-2.506-2.05-4.556-4.556-4.556"/>
    <path fill="#999" d="M122.909 45.802H83.95v7.611h38.959v-7.611z"/>
    <path fill="#666" d="M163.8574 52.2246H43.1904c-.035-.079-.067-.159-.099-.24h120.865c-.031.081-.063.161-.099.24m.364-1.248H42.8264c-.012-.08-.026-.16-.034-.241h121.463c-.008.081-.022.161-.034.241m-1.183 2.496H44.0094c-.07-.078-.14-.157-.205-.24h119.44c-.066.083-.135.162-.206.24m-120.269-3.985h121.51v.24h-121.51v-.24zm1.241-3.746h119.028c.071.079.14.158.206.241h-119.44c.065-.083.135-.162.206-.241m-.819 1.249h120.666c.036.079.068.159.099.24H43.0914c.032-.081.064-.161.1-.24m-.365 1.248h121.395c.012.08.026.159.034.241H42.7924c.008-.082.022-.161.034-.241"/>
    <path fill="#e10025" fill-rule="evenodd" d="M162.8033 121.3416c-1.809 0-3.017 1.282-3.017 2.836 0 1.555 1.211 2.851 3.014 2.847h17.041c1.803.004 3.014-1.292 3.014-2.847 0-1.554-1.208-2.836-3.017-2.836h-17.035z"/>
    <path fill="#fff" fill-rule="evenodd" d="M162.809 126.3255c-1.432-.003-2.311-.96-2.311-2.144 0-1.183.873-2.148 2.311-2.143h17.023c1.438-.005 2.312.96 2.312 2.143 0 1.184-.879 2.141-2.312 2.144h-17.023z"/>
    <path fill="#e10025" fill-rule="evenodd" d="M162.0746 125.5256h.833l1.154-1.866-.001 1.866h.827v-2.676h-.826l-1.159 1.866v-1.866h-.828v2.676zm7.3097-.2754h.805v-.36h.436v-.264h-.436l.001-1.776h-.806v1.776h-.437v.264h.438l-.001.36zm-4.0363-.6212h.805v-1.779h-.805v1.779zm-.001.897h.806v-.547h-.806v.547zm14.0999-.7753c-.649 0-1.175-.447-1.175-.999s.526-.999 1.175-.999c.65 0 1.176.447 1.176.999s-.526.999-1.176.999m.323-.997s-.001-.268-.001-.377c0-.283-.167-.4-.328-.4s-.33.117-.33.4c0 .109.001.384.001.384v.371c0 .282.168.398.329.398.16 0 .328-.116.328-.398 0-.108 0-.307.001-.379v.001zm-2.5489-.005v.318c0 .275-.19.345-.315.345-.128 0-.316-.07-.316-.345 0-.091.001-.317.001-.317s-.001-.222-.001-.317c0-.274.188-.346.316-.346.125 0 .315.072.315.346v.316zm-.006 1.777h.794v-2.675h-.795v.102c-.308-.193-.656-.192-.927-.066-.072.033-.55.263-.55.882 0 .47.443.982 1.023.931.191-.017.327-.086.455-.158v.984zm-9.1788-.8142c.301.008.911-.189.907-.893-.001-.125 0-.968 0-.968h-.8v1.169c0 .155-.148.327-.367.327-.22 0-.382-.172-.382-.327 0-.076.001-1.169.001-1.169h-.799l-.001 1.779.8.001s-.001-.144 0-.187c.153.146.375.26.641.268m6.5385 0c.3.008.911-.189.907-.893-.001-.125-.001-.968-.001-.968h-.799v1.169c0 .155-.148.327-.367.327s-.383-.172-.383-.327c0-.076.001-1.169.001-1.169h-.798v1.779l.798.001s-.001-.144 0-.187c.155.146.376.26.642.268m-2.5318-1.2388s.001-.008.001-.108c0-.326-.214-.398-.333-.398-.119 0-.337.072-.337.398 0 .098.001.367.001.367h1.516c0 .552-.533 1.009-1.187 1.009s-1.185-.447-1.185-.998c0-.552.531-1 1.185-1 .543 0 1.001.31 1.141.731l-.802-.001zm-.668.537c-.002.155.002.259.053.349.063.109.179.161.283.162.105-.001.22-.053.283-.162.051-.09.054-.194.053-.349h-.672zm9.4141 1.222c.078 0 .148.005.148.099 0 .075-.069.09-.132.09h-.126v-.189h.11zm-.11-.342h-.093v.609h.232c.144 0 .215-.053.215-.173 0-.109-.068-.157-.158-.168l.173-.268h-.102l-.162.264h-.105v-.264z"/>
    <path fill="#e10025" fill-rule="evenodd" d="M180.7901 124.7537c.239 0 .427.187.427.442 0 .249-.188.438-.427.438-.241 0-.43-.189-.43-.438 0-.255.189-.442.43-.442m-.536.442c0 .303.246.526.536.526.288 0 .534-.223.534-.526 0-.307-.246-.53-.534-.53-.29 0-.536.223-.536.53"/>
    <path fill="red" d="M37.5766 117.0343l-.213-.577h.162l.051.577zm-5.996.689c-.016 0-.029-.01-.04-.021l-.132-.688v-.01c0-.023.015-.041.04-.041h.122c.03 0 .106.061.111.091l.112.567c.005.033-.051.102-.081.102h-.132zm24.277.273h.679l-.051-.283h-.172l-.354-2.006h-.324l.354 2.006h-.182l.05.283zm-3.008 0h.284l.152-1.195.223 1.195h.324l-.426-2.289h-.283l-.112 1.327-.263-1.327h-.334l.435 2.289zm-2.937 0h.598l-.041-.283h-.324l-.132-.709h.314l-.04-.243h-.324l-.132-.77h.324l-.05-.284h-.638l.445 2.289zm-3.676 0h.374l.061-1.327.577 1.317h.365l-.385-2.279h-.283l.182 1.205-.506-1.205h-.203l-.061 1.236-.223-1.236h-.324l.426 2.289zm-3.353 0h.284l.152-1.195.222 1.195h.325l-.426-2.289h-.293l-.102 1.327-.263-1.327h-.334l.435 2.289zm-2.613 0h.294l-.436-2.289h-.283l.425 2.289zm-2.694 0h.385l-.122-2.289h-.385l.051.527h-.233l-.192-.527h-.345l.841 2.289zm-3.373 0h.679l-.041-.283h-.172l-.364-2.006h-.324l.354 2.006h-.182l.05.283zm-2.896 0h.648c.12 0 .196-.106.172-.233l-.152-.81c-.017-.088-.171-.159-.253-.192h.04v-.011h.041l.01-.01h.03v-.01h.021v-.01h.01c.013-.025.02-.097.02-.111 0-.014-.162-.902-.162-.902h-.294s.157.798.162.831c.003.035-.003.078-.01.111-.002.024-.003.066-.03.091h-.203l-.192-1.033h-.294l.436 2.289zm-2.857 0h.608l-.05-.283h-.314l-.142-.709h.314l-.041-.243h-.314l-.131-.77h.314l-.041-.284h-.648l.445 2.289zm-2.947 0h.669l-.041-.283h-.172l-.365-2.006h-.324l.355 2.006h-.183l.061.283zm-3.038 0h.283l.152-1.195.223 1.195h.334l-.435-2.289h-.284l-.111 1.327-.264-1.327h-.334l.436 2.289zm-2.796 0h.598l-.041-.283h-.324l-.131-.709h.314l-.041-.243h-.324l-.122-.77h.314l-.05-.284h-.648l.455 2.289zm54.399.081h.375l.06-1.316.578 1.306.364.01-.384-2.279h-.284l.182 1.206-.506-1.206h-.203l-.061 1.236-.222-1.236h-.335l.436 2.279zm-2.502 0h.608l-.051-.273h-.314l-.141-.719h.324l-.051-.233h-.314l-.132-.77h.314l-.04-.284h-.648l.445 2.279zm-2.653 0h.678l-.05-.273h-.173l-.354-2.006h-.334l.354 2.006h-.172l.051.273zm-2.36 0h.496c.12 0 .204-.096.182-.223l-.111-.567h-.273l.06.375c.014.085-.036.152-.121.152-.085 0-.169-.067-.183-.152l-.05-.274c-.011-.016.013-.093.03-.101.036-.021.395-.614.395-.658.011-.022.01-.032.01-.041-.013-.074-.101-.577-.101-.577-.022-.116-.135-.213-.253-.213h-.436c-.118 0-.194.097-.172.213l.101.577h.294l-.071-.415c-.013-.085.039-.162.122-.162.084 0 .165.077.182.162l.061.334c-.055.14-.413.649-.436.77-.015.014-.022.087-.02.142.003.06.081.435.081.435l.01.011v.02l.01.02v.01l.011.01v.01l.01.01v.011l.01.01.01.01v.01h.01l.01.01.01.01.01.01.011.01.01.011.01.01h.01l.01.01h.01l.01.01h.031l.01.01zm-3.312 0h.365l.05-.861.466.861h.365l-.75-1.316-.182-.963h-.324l.162 1.033-.152 1.246zm-2.33 0h.497c.12 0 .206-.096.182-.223l-.112-.567h-.273l.061.375c.013.085-.036.152-.122.152-.084 0-.167-.067-.182-.152l-.051-.274c-.008-.016.017-.093.031-.101.037-.021.395-.614.395-.658.008-.022.013-.032.01-.041-.011-.074-.111-.577-.111-.577-.023-.116-.135-.213-.254-.213h-.425c-.118 0-.194.097-.172.213l.101.577h.294l-.071-.415c-.014-.085.036-.162.121-.162.082 0 .169.077.183.162l.06.334c-.054.14-.412.649-.435.77-.016.014-.022.087-.02.142.003.06.081.435.081.435h.01v.031l.01.02v.01l.01.01v.01l.01.01v.011l.01.01.01.01v.01h.011l.01.01.01.01.01.01v.01h.01l.01.011.01.01h.011l.01.01h.01l.01.01h.03l.01.01zm-42.498-3.018h57.812v3.373h-57.812v-3.373zm20.581 13.329h.628c.138 0 .432-.316.405-.456l-.537-2.532c-.024-.133-.353-.446-.486-.446h-.557c-.115 0-.194.076-.203.182 0 .017-.002.041 0 .061l.598 3.11.01.01.01.01.021.01h.01l.01.01.01.01h.01l.01.01h.01l.021.011h.03v.01zm-8.072 0h.628c.138 0 .43-.316.405-.456l-.537-2.542c-.025-.132-.203-.436-.334-.436h-.78l-.01.01h-.041v.011h-.02l-.01.01h-.01l-.01.01-.01.01h-.011v.01l-.01.01-.01.01v.01l-.01.01-.01.011v.02l-.01.01v.02l-.01.01v.01c0 .017-.002.043 0 .061l.607 3.11c.056.046.124.081.193.081m44.28.04h.041c.382 0 .633-.306.567-.688l-1.215-6.736c-.066-.381-.418-.699-.801-.699-.382 0-.541.317-.476.699l1.206 6.736.01.03.01.03.01.041.01.03.01.041.01.03.011.03.02.031.01.03.02.031.01.03.021.03.02.021.02.03.02.03.031.021.02.02.02.02.031.02.03.021.02.02.031.02.03.01.03.021.021.01.04.01.031.01h.03l.03.01h.041l.03.01zm-5.216 0h.598c.382 0 .643-.306.577-.688l-1.276-6.736c-.067-.382-.438-.699-.82-.699h-.588l1.509 8.123zm4.457 1.185c-.556 0-1.086-.457-1.185-1.023l-1.449-8.315c-.094-.531.258-.952.79-.952h2.137c.536 0 1.056.421 1.155.952l1.57 8.315c.107.566-.256 1.023-.81 1.023h-2.208zm-5.561 0l-1.954-10.29h2.957c.537 0 1.055.421 1.155.952l1.569 8.315c.107.567-.254 1.023-.81 1.023h-2.917zm-5.155 0l-1.955-10.29h1.499l1.206 5.966.476-5.966h1.296l1.955 10.29h-1.499l-1.003-5.378-.668 5.378h-1.307zm-3.292 0l-2.025-10.29h2.917l.202 1.276h-1.438l.598 3.474h1.438l.202 1.074h-1.438l.628 3.19h1.438l.203 1.276h-2.725zm-3.565 0l-.243-1.276h.81l-1.6-9.014h1.479l1.63 9.014h.78l.203 1.276h-3.059zm-5.023 0l-1.955-10.29h1.499l1.205 5.966.476-5.966h1.297l1.954 10.29h-1.499l-1.002-5.378-.669 5.378h-1.306zm-1.975 0l-1.955-10.29h1.296l1.955 10.29h-1.296zm-5.146 0l-1.954-10.29h1.489l1.205 5.966.476-5.966h1.296l1.955 10.29h-1.489l-1.013-5.378-.668 5.378h-1.297zm-6.937 0l-1.945-10.29h1.296l.882 4.659h.921c.122-.113.136-.321.152-.426.024-.151.049-.344.031-.496-.017-.15-.709-3.737-.709-3.737h1.296s.729 3.908.729 3.97c.002.064 0 .264-.071.375-.047.071-.128.234-.222.294-.181.116-.385.192-.385.192h-.091c.37.146 1.07.387 1.144.78l.709 3.656c.108.567-.255 1.023-.81 1.023h-2.927zm-3.484 0l-2.026-10.29h2.917l.202 1.276h-1.438l.588 3.474h1.438l.202 1.074h-1.438l.638 3.19h1.439l.202 1.276h-2.724zm-4.629 0l-1.955-10.29h1.297l.891 4.659h1.651c.537 0 1.046.424 1.144.952l.709 3.656c.107.567-.254 1.023-.81 1.023h-2.927zm-4.659 0l-1.62-9.338c-.093-.531.266-.952.8-.952h1.934c.536 0 1.056.421 1.155.952l1.732 9.338h-1.216l-1.651-9.075c-.024-.131-.152-.243-.283-.243h-.962c-.135 0-.225.111-.203.243l1.61 9.075h-1.296zm-3.727 0c-.556 0-1.096-.457-1.195-1.023v-.03l-.01-.01v-.031l-.01-.02v-.02l-.011-.02v-.031l-.01-.02v-.03l-.01-.031-.01-.03-.01-.061-.02-.071-.011-.071-.02-.071-.01-.081-.02-.081-.021-.091-.02-.081-.03-.172-.02-.091-.021-.081-.01-.081-.02-.081-.02-.081-.01-.081-.01-.071-.021-.061-.01-.071v-.03l-.01-.021v-.05l-.01-.031v-.04l-.01-.02v-.021c-.011-.247.024-.585.101-.648.098-.545 1.916-3.069 1.864-3.453-.049-.386-.264-1.52-.264-1.52-.066-.382-.326-.689-.709-.689-.382 0-.643.306-.577.689l.344 1.884h-1.357l-.456-2.613c-.093-.531.267-.952.8-.952h1.935c.536 0 1.046.421 1.145.952 0 0 .498 2.441.496 2.613-.002.173-.051.192-.051.192 0 .199-1.617 2.869-1.782 2.968-.071.042-.13.306-.132.466-.003.159.213 1.226.213 1.226.065.382.428.688.81.688.382 0 .542-.306.476-.688l-.294-1.692h1.367l.477 2.542c.107.566-.255 1.023-.811 1.023h-2.005z"/>
  </g>
  <path fill="#d40000" d="M427.611 267.03775zm0-1.10302zm0-1.08571zm0 .54285zm0 2.18874zm0-1.10303zm0-2.17142z"/>
</svg>
