<svg xmlns="http://www.w3.org/2000/svg" width="361.17374" height="443.94876">
  <defs>
    <clipPath id="a">
      <path d="M0 355.159h288.939V0H0v355.159z"/>
    </clipPath>
    <linearGradient id="b" x2="1" gradientTransform="matrix(0,6.2488999,6.2488999,0,220.7242,22.255291)" gradientUnits="userSpaceOnUse">
      <stop offset="0" stop-color="#d1d3d4"/>
      <stop offset="1" stop-color="gray"/>
    </linearGradient>
    <linearGradient id="c" x2="1" gradientTransform="matrix(0,4.5653,4.5653,0,220.72404,23.09749)" gradientUnits="userSpaceOnUse">
      <stop offset="0" stop-color="#231f20"/>
      <stop offset="1" stop-color="#fff"/>
    </linearGradient>
    <clipPath id="d">
      <path d="M0 355.159h288.939V0H0v355.159z"/>
    </clipPath>
  </defs>
  <g clip-path="url(#a)" transform="matrix(1.25,0,0,-1.25,0,443.94875)">
    <path fill="#d9d9d9" d="M287.0933 330.9505c0 18.693-11.338 24.208-20.531 24.208-2.422 0-10.812-.021-22.176-.052v-4.312h-4.434v4.299c-1.58-.004-3.208-.009-4.871-.013v-4.286h-4.434v4.273c-1.598-.004-3.223-.009-4.871-.014v-4.259h-4.433v4.247c-1.61-.005-3.235-.009-4.871-.014v-4.233h-4.434v4.22c-1.619-.004-3.243-.009-4.871-.013v-4.207h-4.434v4.194c-1.627-.004-3.251-.009-4.871-.013v-4.181h-4.434v4.168c-1.635-.004-3.26-.009-4.871-.013v-4.155h-4.433v4.143c-1.647-.004-3.272-.009-4.871-.013v-4.13h-4.434v4.119c-1.661-.005-3.288-.009-4.871-.013v-4.106h-4.434v4.095c-1.692-.004-3.313-.007-4.871-.011v-4.084h-4.434v4.075c-1.755-.004-3.386-.007-4.871-.01v-4.065h-4.433v4.059c-.919-.001-1.743-.001-2.436-.001-.693 0-1.517 0-2.435.001v-4.059h-4.434v4.065c-1.485.003-3.116.006-4.871.01v-4.075h-4.434v4.084c-1.558.004-3.179.007-4.871.011v-4.095h-4.434v4.106c-1.582.004-3.21.008-4.871.013v-4.119h-4.433v4.13c-1.6.004-3.225.009-4.871.013v-4.143h-4.434v4.155c-1.61.004-3.235.009-4.871.013v-4.168h-4.434v4.181c-1.619.004-3.244.009-4.871.013v-4.194h-4.433v4.207c-1.628.004-3.253.009-4.871.013v-4.22h-4.434v4.233c-1.637.005-3.262.009-4.871.014v-4.247h-4.434v4.259c-1.648.005-3.273.01-4.871.014v-4.273h-4.434v4.286c-1.662.004-3.29.009-4.871.013v-4.299h-4.433v4.312c-11.365.031-19.754.052-22.176.052-9.193 0-20.531-5.515-20.531-24.208 0-18.693-3.411-288.662-.96-304.904 2.452-18.999 11.645-26.047 27.886-26.047s115.697.668 115.697.668 99.457-.668 115.698-.668 25.434 7.048 27.885 26.047c2.452 16.242-.959 286.211-.959 304.904"/>
    <path fill="#4c4c4c" d="M267.9272 7.0004H22.0532c-8.301 0-15.093 6.791-15.093 15.092v311.903c0 8.3 6.792 15.092 15.093 15.092h245.874c8.301 0 15.092-6.792 15.092-15.092V22.0924c0-8.301-6.791-15.092-15.092-15.092"/>
    <path fill="#d9d9d9" d="M266.9116 8.0005H22.8576c-8.255-.359-15.516 6.858-14.998 14.998v310.302c-.518 8.335 7.18 15.508 14.998 14.997h244.054c8.246.467 15.551-6.575 14.998-14.997V22.9985c.597-8.009-6.795-15.444-14.998-14.998"/>
    <path fill="#b3b3b3" d="M254.9423 65.6895H34.0003c-7.19 0-13.073 5.883-13.073 13.072v222.921c0 7.19 5.883 13.073 13.073 13.073h220.942c7.19 0 13.072-5.883 13.072-13.073V78.7615c0-7.189-5.882-13.072-13.072-13.072"/>
  </g>
  <path fill="url(#b)" d="M216.273 28.504c-1.723 0-3.124-1.401-3.124-3.124s1.401-3.125 3.124-3.125h8.902c1.723 0 3.125 1.402 3.125 3.125s-1.402 3.124-3.125 3.124h-8.902z" transform="matrix(1.25,0,0,-1.25,0,443.94875)"/>
  <path fill="url(#c)" d="M216.194 27.662c-1.212 0-2.204-.991-2.204-2.204v-.156c0-1.213.992-2.204 2.204-2.204h9.06c1.212 0 2.204.991 2.204 2.204v.156c0 1.213-.992 2.204-2.204 2.204h-9.06z" transform="matrix(1.25,0,0,-1.25,0,443.94875)"/>
  <g clip-path="url(#d)" transform="matrix(1.25,0,0,-1.25,0,443.94875)">
    <path fill="gray" d="M225.2537 23.0975h-9.059c-1.213 0-2.204.992-2.204 2.204v.157c0 1.212.991 2.204 2.204 2.204h9.059c1.212 0 2.204-.992 2.204-2.204v-.157c0-1.212-.992-2.204-2.204-2.204M179.519 85.0324h-70.88c-3.268 0-5.942 2.674-5.942 5.942v31.898c0 3.268 2.674 5.942 5.942 5.942h70.88c3.268 0 5.942-2.674 5.942-5.942v-31.898c0-3.268-2.674-5.942-5.942-5.942"/>
    <path fill="#4c4c4c" d="M144.4681 190.2223c13.34 0 71.377 2.497 81.42 3.324 10.043.827 14.002 3.935 16.187 7.207 2.367 3.545 2.6 10.28 2.127 14.888-.473 4.608-5.908 5.317-7.916 5.317h-91.818.003-91.817c-2.009 0-7.444-.709-7.917-5.317-.472-4.608-.24-11.343 2.127-14.888 2.185-3.272 6.144-6.38 16.187-7.207 10.043-.827 68.08-3.324 81.42-3.324"/>
    <path fill="#fff" d="M200.9727 89.5638v31.857c0 4.594 3.725 8.319 8.319 8.319h25.139c4.594 0 8.319-3.725 8.319-8.319v-31.857c0-4.594-3.725-8.319-8.319-8.319h-25.139c-4.594 0-8.319 3.725-8.319 8.319"/>
    <path fill="#4c4c4c" d="M234.3457 83.7064h-24.969c-3.269 0-5.942 2.674-5.942 5.942v31.688c0 3.268 2.673 5.942 5.942 5.942h24.969c3.268 0 5.942-2.674 5.942-5.942v-31.688c0-3.268-2.674-5.942-5.942-5.942"/>
    <path fill="#fff" d="M45.7988 89.6251v31.857c0 4.594 3.725 8.319 8.319 8.319h25.138c4.595 0 8.319-3.725 8.319-8.319v-31.857c0-4.594-3.724-8.319-8.319-8.319h-25.138c-4.594 0-8.319 3.725-8.319 8.319"/>
    <path fill="#4c4c4c" d="M79.1714 83.7675h-24.969c-3.269 0-5.942 2.674-5.942 5.942v31.687c0 3.269 2.673 5.942 5.942 5.942h24.969c3.268 0 5.942-2.673 5.942-5.942v-31.687c0-3.268-2.674-5.942-5.942-5.942"/>
    <path fill="#4c4c4c" d="M85.0544 103.3284h-36.558c-.654 0-1.189.535-1.189 1.188v2.073c0 .654.535 1.189 1.189 1.189h36.558c.654 0 1.188-.535 1.188-1.189v-2.073c0-.653-.534-1.188-1.188-1.188"/>
    <path fill="#666" d="M48.5384 107.7782c-.635 0-1.144-.493-1.207-1.112.063-.62.572-1.113 1.207-1.113h36.474c.635 0 1.144.493 1.206 1.113-.062.619-.571 1.112-1.206 1.112h-36.474z"/>
    <path fill="gray" d="M63.1832 196.6211h-.701c-.653 0-1.188.535-1.188 1.188v19.327c0 .654.535 1.189 1.188 1.189h.701c.654 0 1.189-.535 1.189-1.189v-19.327c0-.653-.535-1.188-1.189-1.188m162.5728 0h.701c.653 0 1.188.535 1.188 1.188v19.327c0 .654-.535 1.189-1.188 1.189h-.701c-.654 0-1.188-.535-1.188-1.189v-19.327c0-.653.534-1.188 1.188-1.188m-78.3306-.0543c-1.625-1.654-4.284-1.654-5.908 0-1.625 1.654-4.284 4.361-5.909 6.016-1.625 1.654-.295 3.007 2.954 3.007h11.817c3.25 0 4.579-1.353 2.954-3.007-1.624-1.655-4.283-4.362-5.908-6.016"/>
    <path fill="#4c4c4c" d="M70.0829 16.8948l-.249-.675h.19l.059.675zm-7.014.806c-.019 0-.034-.011-.048-.024l-.154-.806v-.011c0-.026.018-.048.048-.048h.142c.035 0 .124.071.13.107l.131.663c.006.038-.06.119-.095.119h-.154zm28.4.32h.794l-.059-.332h-.201l-.415-2.346h-.379l.414 2.346h-.213l.059.332zm-3.519 0h.332l.178-1.398.261 1.398h.379l-.498-2.678h-.332l-.13 1.552-.308-1.552h-.391l.509 2.678zm-3.436 0h.699l-.047-.332h-.379l-.154-.829h.367l-.047-.285h-.379l-.154-.9h.379l-.059-.332h-.747l.521 2.678zm-4.301 0h.439l.071-1.552.675 1.54h.427l-.45-2.666h-.332l.213 1.41-.592-1.41h-.237l-.071 1.445-.261-1.445h-.379l.497 2.678zm-3.921 0h.331l.178-1.398.261 1.398h.379l-.498-2.678h-.343l-.119 1.552-.308-1.552h-.391l.51 2.678zm-3.057 0h.343l-.509-2.678h-.332l.498 2.678zm-3.152 0h.45l-.142-2.678h-.45l.059.616h-.272l-.226-.616h-.402l.983 2.678zm-3.945 0h.793l-.047-.332h-.201l-.427-2.346h-.379l.415 2.346h-.214l.06.332zm-3.389 0h.758c.141 0 .23-.125.202-.273l-.178-.948c-.02-.102-.2-.186-.296-.225h.047v-.012h.047l.012-.012h.036v-.011h.024v-.012h.011c.016-.029.024-.114.024-.131 0-.015-.19-1.054-.19-1.054h-.343s.183.933.19.971c.003.042-.005.092-.012.131-.003.028-.004.077-.036.106h-.237l-.225-1.208h-.344l.51 2.678zm-3.341 0h.711l-.06-.332h-.367l-.166-.829h.367l-.047-.285h-.367l-.154-.9h.367l-.047-.332h-.759l.522 2.678zm-3.448 0h.782l-.048-.332h-.201l-.427-2.346h-.379l.415 2.346h-.213l.071.332zm-3.555 0h.332l.178-1.398.26 1.398h.391l-.509-2.678h-.332l-.13 1.552-.308-1.552h-.391l.509 2.678zm-3.27 0h.699l-.047-.332h-.379l-.154-.829h.367l-.048-.285h-.379l-.142-.9h.367l-.059-.332h-.758l.533 2.678zm63.638.094h.438l.071-1.54.676 1.528.426.012-.45-2.665h-.332l.213 1.41-.592-1.41h-.237l-.071 1.445-.261-1.445h-.391l.51 2.665zm-2.927 0h.711l-.059-.32h-.367l-.166-.841h.379l-.059-.272h-.368l-.154-.901h.368l-.048-.331h-.758l.521 2.665zm-3.104 0h.794l-.059-.32h-.202l-.415-2.345h-.39l.414 2.345h-.201l.059.32zm-2.761 0h.581c.14 0 .239-.112.213-.26l-.13-.664h-.32l.071.439c.016.099-.042.177-.142.177-.099 0-.197-.078-.213-.177l-.06-.32c-.012-.019.016-.109.036-.119.041-.025.462-.718.462-.77.012-.026.012-.038.012-.047-.016-.087-.119-.676-.119-.676-.025-.135-.158-.248-.296-.248h-.509c-.138 0-.227.113-.202.248l.119.676h.343l-.083-.486c-.015-.099.046-.19.142-.19.099 0 .194.09.214.19l.071.391c-.065.164-.483.759-.51.9-.018.016-.026.102-.023.166.003.071.095.51.095.51l.011.012v.023l.012.024v.012l.012.012v.012l.012.011v.012l.012.012.012.012v.012h.011l.012.012.012.011.012.012.012.012.012.012.011.012h.012l.012.012h.012l.012.011h.036l.011.012zm-3.874 0h.426l.06-1.007.545 1.007h.426l-.876-1.54-.214-1.125h-.379l.19 1.208-.178 1.457zm-2.725 0h.58c.141 0 .242-.112.214-.26l-.131-.664h-.32l.072.439c.015.099-.042.177-.143.177-.099 0-.196-.078-.213-.177l-.059-.32c-.01-.019.019-.109.035-.119.044-.025.462-.718.462-.77.01-.026.016-.038.012-.047-.012-.087-.13-.676-.13-.676-.026-.135-.157-.248-.296-.248h-.498c-.138 0-.227.113-.201.248l.118.676h.344l-.083-.486c-.016-.099.042-.19.142-.19.095 0 .197.09.213.19l.071.391c-.063.164-.482.759-.509.9-.018.016-.026.102-.024.166.004.071.095.51.095.51h.012v.035l.012.024v.012l.012.012v.012l.011.011v.012l.012.012.012.012v.012h.012l.012.012.012.011.011.012v.012h.012l.012.012.012.012h.012l.012.012h.012l.011.011h.036l.012.012zm-49.716-3.53h67.631v3.945h-67.631v-3.945zm24.076 15.592h.734c.162 0 .506-.369.474-.533l-.628-2.962c-.028-.155-.413-.521-.568-.521h-.652c-.134 0-.227.088-.237.213 0 .019-.002.048 0 .071l.699 3.637.012.012.012.012.024.012h.011l.012.012.012.012h.012l.012.011h.012l.023.012h.036v.012zm-9.443 0h.734c.161 0 .504-.369.474-.533l-.628-2.974c-.029-.154-.237-.509-.391-.509h-.912l-.012.011h-.047v.012h-.024l-.012.012h-.012l-.012.012-.011.012h-.012v.012l-.012.011-.012.012v.012l-.012.012-.012.012v.023l-.012.012v.024l-.011.012v.012c0 .019-.003.049 0 .071l.711 3.637c.064.054.144.095.225.095m51.801.047h.047c.448 0 .741-.358.664-.805l-1.422-7.879c-.077-.446-.489-.818-.936-.818-.447 0-.634.37-.557.818l1.41 7.879.012.035.012.036.012.047.011.036.012.047.012.036.012.035.024.036.012.035.023.036.012.036.024.035.023.024.024.035.024.036.035.023.024.024.024.024.035.024.036.023.024.024.035.024.036.012.035.023.024.012.047.012.036.012h.035l.036.012h.047l.036.011zm-6.102 0h.699c.447 0 .752-.358.675-.805l-1.492-7.879c-.079-.448-.513-.818-.96-.818h-.687l1.765 9.502zm5.213 1.387c-.65 0-1.27-.535-1.386-1.197l-1.694-9.727c-.11-.621.301-1.114.924-1.114h2.5c.627 0 1.234.493 1.351 1.114l1.836 9.727c.126.662-.299 1.197-.948 1.197h-2.583zm-6.504 0l-2.287-12.038h3.46c.628 0 1.234.493 1.35 1.114l1.837 9.727c.124.664-.298 1.197-.948 1.197h-3.412zm-6.031 0l-2.287-12.038h1.754l1.409 6.978.557-6.978h1.517l2.287 12.038h-1.754l-1.173-6.292-.782 6.292h-1.528zm-3.851 0l-2.37-12.038h3.413l.236 1.493h-1.682l.699 4.064h1.683l.237 1.256h-1.683l.735 3.732h1.682l.237 1.493h-3.187zm-4.171 0l-.284-1.493h.948l-1.872-10.545h1.73l1.907 10.545h.913l.237 1.493h-3.579zm-5.877 0l-2.286-12.038h1.753l1.41 6.978.557-6.978h1.517l2.286 12.038h-1.753l-1.173-6.292-.782 6.292h-1.529zm-2.31 0l-2.287-12.038h1.517l2.287 12.038h-1.517zm-6.019 0l-2.287-12.038h1.742l1.41 6.978.557-6.978h1.516l2.287 12.038h-1.742l-1.184-6.292-.782 6.292h-1.517zm-8.116 0l-2.275-12.038h1.517l1.03 5.45h1.079c.141-.132.158-.375.177-.498.028-.177.058-.403.036-.58-.02-.176-.83-4.372-.83-4.372h1.517s.853 4.571.853 4.644c.003.075 0 .309-.083.439-.055.083-.15.274-.26.343-.212.136-.451.225-.451.225h-.106c.433.172 1.252.453 1.339.913l.829 4.277c.126.664-.298 1.197-.948 1.197h-3.424zm-4.076 0l-2.37-12.038h3.413l.237 1.493h-1.683l.687 4.064h1.683l.237 1.256h-1.683l.747 3.732h1.682l.237 1.493h-3.187zm-5.415 0l-2.287-12.038h1.517l1.043 5.45h1.931c.628 0 1.224.497 1.339 1.114l.829 4.277c.125.664-.297 1.197-.947 1.197h-3.425zm-5.45 0l-1.896-10.924c-.109-.621.312-1.114.936-1.114h2.263c.627 0 1.235.493 1.351 1.114l2.026 10.924h-1.422l-1.931-10.616c-.028-.154-.178-.285-.332-.285h-1.125c-.158 0-.263.129-.237.285l1.884 10.616h-1.517zm-4.36 0c-.65 0-1.282-.535-1.398-1.197v-.035l-.012-.012v-.036l-.012-.024v-.023l-.012-.024v-.036l-.012-.023v-.036l-.012-.035-.011-.036-.012-.071-.024-.083-.012-.083-.023-.083-.012-.094-.024-.095-.024-.107-.023-.095-.036-.201-.024-.107-.023-.095-.012-.094-.024-.095-.024-.095-.011-.095-.012-.083-.024-.071-.012-.083v-.035l-.012-.024v-.059l-.012-.036v-.047l-.011-.024v-.023c-.013-.29.028-.685.118-.759.115-.638 2.241-3.59 2.18-4.04-.057-.451-.308-1.777-.308-1.777-.077-.448-.382-.806-.829-.806-.448 0-.753.357-.676.806l.403 2.203h-1.587l-.534-3.056c-.108-.621.312-1.114.936-1.114h2.263c.627 0 1.224.493 1.339 1.114 0 0 .583 2.855.581 3.056-.003.203-.059.226-.059.226 0 .232-1.893 3.355-2.086 3.471-.083.049-.151.358-.154.545-.003.186.249 1.434.249 1.434.077.447.501.805.948.805.447 0 .634-.358.557-.805l-.344-1.979h1.6l.557 2.974c.126.662-.298 1.197-.948 1.197h-2.346zM251.179 279.2247c0-10.443-8.466-18.909-18.909-18.909s-18.909 8.466-18.909 18.909 8.466 18.909 18.909 18.909 18.909-8.466 18.909-18.909"/>
    <path fill="#b3b3b3" d="M250.5187 279.2247c0-10.079-8.17-18.249-18.249-18.249-10.078 0-18.248 8.17-18.248 18.249 0 10.078 8.17 18.249 18.248 18.249 10.079 0 18.249-8.171 18.249-18.249"/>
    <path fill="#7eee80" d="M230.2804 276.9928c0-1.776-3.22-3.215-7.191-3.215-3.972 0-7.191 1.439-7.191 3.215 0 1.776 3.219 3.215 7.191 3.215 3.971 0 7.191-1.439 7.191-3.215"/>
    <path fill="#fee94b" d="M243.1538 271.6675c0-1.776-3.22-3.215-7.191-3.215-3.972 0-7.191 1.439-7.191 3.215 0 1.776 3.219 3.215 7.191 3.215 3.971 0 7.191-1.439 7.191-3.215"/>
    <path fill="#ff7961" d="M244.0195 273.7775c-.866 3.601-4.004 7.58-8.057 5.85 3.3 7.612 9.527 6.401 11.69 3.806 1.684-2.021 1.643-8.932-3.633-9.656"/>
    <path fill="#0098df" d="M231.3453 279.5997c-.866 3.601-4.004 7.58-8.057 5.85 3.3 7.612 9.527 6.401 11.69 3.806 1.684-2.021 1.643-8.932-3.633-9.656"/>
    <path fill="#4c4c4c" d="M41.062 314.755h-.616v33.756h.616v-33.756zm207.431 0h-.616v33.756h.616v-33.756zm4.276-306.767h-.616v57.705h.616V7.988zm-215.986 0h-.616V65.69h.616V7.988z"/>
  </g>
</svg>
