<svg xmlns="http://www.w3.org/2000/svg" xmlns:bx="https://www.boxy-svg.com/bx" viewBox="109.842 -107.426 85.78846 200.00025">
  <path fill="#bdbdbd" d="M195.63043 28.658142c0-.51482-.0442-1.1086-.26962-1.61615-.22598-.50806-.70807-.93249-1.38913-.93249v.333c-.13091-.006-.32728.0109-.333.17247l.0629 23.10975c-.24884 8.25322-2.64891 15.42382-6.47759 21.71179-.13403.26702.14442.38235.25352.37767.44521-.0187.79535-.0447 1.07431-.0784v.0338c.44054 0 .78029.0379 1.10861 0 .32416-.0379.653-.22235.8395-.5595.002-.003.01.002.0109 0 .001-.003-.002-.008 0-.0104 3.48789-6.20537 5.11963-13.35519 5.11963-20.95644z" bx:origin="0 0"/>
  <path fill="#bdbdbd" d="M195.63043-43.457168c0 .51482-.0442 1.10861-.26962 1.61615-.22598.50807-.70807.9325-1.38913.9325v-.333c-.13091.006-.32728-.0109-.333-.17247l.0629-23.10975c-.24884-8.25323-2.64891-15.42382-6.47759-21.711793-.13403-.26702.14442-.382348.25352-.377673.44521.0187.79535.04468 1.07431.07844v-.03377c.44054 0 .78029-.03792 1.10861 0 .32416.03792.653.222344.8395.559496.002.0031.01-.0021.0109 0 .001.0031-.002.0078 0 .01039 3.48789 6.20537 5.11963 13.35518 5.11963 20.95644z" bx:origin="0 1"/>
  <path fill="#ccc" d="M194.01428-65.336748v54.8317h-.76574v6.2505605h.76574V50.483702c0 23.2495-18.83171 42.09056-42.08017 42.09056-23.24949 0-42.09055-18.8421-42.09055-42.09056 0-9.17429 2.93619-17.65453 7.91711-24.57057v-.01l.67275-.86912c1.21977-1.52731 1.94551-3.46347 1.94551-5.56847v-53.78647c0-2.10447-.72574-4.04063-1.94551-5.56743l-.67275-.86964v-.01c-4.98404-6.91188-7.91867-15.39057-7.91867-24.56797 0-23.248457 18.84106-42.090032 42.09056-42.090032 23.24845 0 42.08068 18.842094 42.08068 42.090032l.001-.001z" bx:origin="0.5 0.5"/>
  <g fill="#4c4c4c">
    <path d="M132.2873205-31.86514448c.17455044.02753326.31065822-.0451961.40728436-.21818805l.16571902-.2909174c.24364333-.40884285.57508137-.60261462.99379463-.5818348.1932523.0103899.3636468.06078096.510664.15065365.1522122.0898727.2696181.21662957.3522179.37923162.0831193.15948507.1220814.3340355.117406.5246903-.0046754.25611122-.1033796.46235088-.2966318.6181995-.1885768.1558486-.4441685.2322144-.7662556.22857795v-.6026147c.1288349.0036364.2342924-.0171434.3174117-.0623395.0779243-.0451961.1194839-.119484.1241594-.223383 0-.1038991-.0322087-.1937718-.0966261-.2701376-.0638979-.0794828-.1537706-.1262374-.2690986-.1402638-.1568876-.0207799-.2852029.0675344-.3865045.2649426-.1018211.1974082-.1864988.3413084-.2555917.4311811-.225461.2841639-.5293658.4171547-.9111949.4000114-.1979277-.0103899-.3729977-.058703-.5246903-.1454587-.1470172-.0867558-.2623452-.2062397-.3449449-.3584518-.08311925-.1522122-.1220814-.3257236-.11740594-.5194954.00467545-.1387053.0322087-.2665011.08259976-.3844266.055586-.1210424.1361077-.2249415.2415653-.3116972.2119541-.169875.4924816-.2509163.8426215-.2441629l-.007273.6078096c-.1745505-.0067535-.3085803.0192213-.4000115.0779243-.0877947.055586-.1314323.1522121-.1314323.2909174 0 .1002626.02961127.1854598.0898727.2545527.0638979.0690929.15169268.1106525.2623452.1246789zm1.86394935 12.6871157v-.74807333l-2.79592403-.3688418v-.6078096l2.79592403.3688417v-.7428784l.64157677.0883142v2.0987612l-.64157677-.0883142zm-1.622384-2.75903987c-.24364333-.01766284-.45767542-.0779243-.64209627-.18182338-.18857682-.10389907-.33351602-.23896786-.43481762-.40520638-.1013016-.169875-.14961466-.3532569-.1449392-.5506651.00883142-.2701376.1241594-.4815722.3449449-.6337844.2259805-.1558486.5293658-.2410459.91119488-.2545528.25351373-.0103899.53144375.0103899.83534853.0623394.29922933.0519495.558977.1366272.78028204.2545527.225461.1210424.393258.2613062.5039105.4207912.1101331.162602.1636411.3392304.1584461.5298852-.0088314.2836444-.1220814.5070274-.3381915.670149-.2207855.162602-.5226123.2524747-.9044414.2701376v-.6078096c.2119541.003117.3610493-.0244163.448844-.0831193.0919507-.0623395.1402638-.1558486.1449392-.2805275.0140264-.3220872-.3153337-.5179369-.9870412-.5870298-.3085802-.0311697-.5267683-.0467546-.6556031-.0467546-.3865045-.007273-.5870297.1002626-.6005366.3220871-.0051949.1418222.0431181.2561112.1449392.3428669.1013016.0862362.2415654.1418222.4207913.1662385l.0140264.5922247zm.28312496-2.67280363v-.9506765l-.8218416-.10389908v1.12210998l-.6348233-.08311926v-1.72991955l3.4375008.4467661v1.7351145l-.6415767-.0831192v-1.1273049l-.7252155-.0935091v.9506765l-.6140435-.0831192zm-.8218416-3.24424852v1.04938063l-.6348233-.08311926v-1.6571902l3.4375008.446766v.60780958l-2.8026774-.36364675zm.8218417-1.1974368v-.95067652l-.8218416-.10389907v1.12211l-.6348233-.0831192v-1.7299196l3.4375008.446766v1.7351145l-.6415767-.0831192v-1.1273049l-.7252155-.0935091v.9506765l-.6140435-.0831192zm-.5246903 19.85511265c.1745505.02753326.3106582-.0451961.4072844-.21818805l.165719-.2909174c.2436434-.40884285.5750814-.60261462.9937947-.5818348.1932523.0103899.3636468.06078095.510664.15065365.1522122.0898727.2696181.21662957.3522179.3792316.0831193.1594851.1220814.33403553.117406.52469033-.0046754.2561112-.1033796.46235087-.2966318.61819948-.1885768.1558486-.4441685.23221442-.76625563.22857795v-.6026146c.1288349.0036365.2342924-.0171433.3174117-.0623394.0779243-.0451961.11948396-.1194839.1241594-.223383 0-.103899-.0322087-.1937717-.09662612-.2701376-.0638979-.0794828-.1537706-.1262373-.2690986-.1402637-.1568876-.0207798-.2852029.0675344-.3865045.2649427-.1018211.1974083-.18649883.3413085-.2555917.4311812-.225461.284164-.5293658.4171548-.9111949.4000114-.19792774-.0103899-.3729977-.0587029-.5246903-.1454587-.1470172-.0867557-.2623452-.2062396-.34494494-.3584518-.08311924-.1522121-.1220814-.3257236-.11740593-.5194953.00467545-.1387052.0322087-.2665011.08259976-.3844265.055586-.1210424.13610775-.2249415.2415653-.3116972.2119541-.1698749.4924816-.2509162.8426215-.2441628l-.0072729.6078096c-.17455043-.0067534-.30858024.0192214-.40001142.0779243-.0877947.055586-.1314323.1522122-.1314323.2909174 0 .1002626.0296112.1854599.0898727.2545528.0638979.0690929.15169265.1106525.26234516.1246789zM134.15127 1.74984438v-.74807332l-2.79592403-.3688417V.0251172L134.15127.3939615v-.74288097l.64157675.0883142V1.8381586l-.64157676-.08831422z" bx:origin="0.5 0.5"/>
    <path d="M133.2052688-2.31417042v.35325685c0 .09662613.02961124.18182337.0898727.25455272.06389793.07272935.15169264.1246789.26234515.1558486.10545756.03116973.2119541.03948166.31741167.02597478.17455044-.02441628.2670206-.10909403.27637153-.25455273v-.41040133zm-.63482333-.08311926l-1.21509965-.1558486v-.60780957l3.4375008.446766-.00675344.91431184c0 .2909174-.0898727.5158588-.2690986.6753439-.18442085.1558486-.43273963.2249415-.74547584.2077981-.24883827-.0103899-.45351945-.0644175-.614563-.1610436-.16571903-.0935092-.29455388-.225461-.38650456-.3948165l-1.37354573.3480619h-.04155963v-.6493692l1.21509965-.2857225zm-.57300338-2.5398128l-.6420963-.22857797v-.670149l3.4375008 1.37146774v.5714448l-3.4375008.4779357v-.6337844l.6420962-.0623395zm.6415767.22857795v.53508022l1.1808129-.114289z" bx:origin="0 0"/>
    <path d="M134.15126985-5.79582832v-.74807332l-2.79592403-.3688417v-.60780958l2.79592403.3688417v-.74287835l.64157677.0883142v2.09876126l-.64157677-.0883143z" bx:origin="0.5 0.5"/>
  </g>
  <path fill="#999" stroke="#999" stroke-width=".51949537" d="M152.41517-41.206188c-13.19674 0-23.89367-10.68031-23.89367-23.85523 0-13.17492 10.69693-23.855224 23.89367-23.855224 13.19622 0 23.89471 10.680304 23.89471 23.855224s-10.69849 23.85523-23.89471 23.85523" bx:origin="0.5 0.5" clip-path="url(#clipPath16)"/>
  <path fill="#ccc" d="M152.41569-41.943868c-12.77647 0-23.13313-10.34939-23.13313-23.11703s10.35666-23.118061 23.13313-23.118061c12.77595 0 23.13313 10.350421 23.13313 23.118061s-10.35718 23.11703-23.13313 23.11703" bx:origin="0.5 0.5" clip-path="url(#clipPath16)"/>
  <path fill="#666" d="M152.36945 88.478552c-20.95229 0-37.93771-16.98594-37.93771-37.93822 0-20.95281 16.98542-37.93823 37.93771-37.93823 20.95281 0 37.93823 16.98542 37.93823 37.93823 0 20.95228-16.98542 37.93822-37.93823 37.93822" bx:origin="0.5 0.5" clip-path="url(#clipPath16)"/>
  <path fill="#4c4c4c" d="M158.40339-48.445878v-10.62835h10.62784c.45352 0 .82547-.37144.82547-.826v-10.32289c0-.45456-.37195-.826-.82547-.826h-10.62784v-10.62836c0-.45352-.37196-.82496-.826-.82496h-10.32341c-.45352 0-.82548.37144-.82548.82496v10.62836h-10.62835c-.45404 0-.82548.37144-.82548.826v10.32289c0 .45456.37144.826.82548.826h10.62835v10.62835c0 .45404.37196.82548.82548.82548h10.32341c.45404 0 .826-.37144.826-.82548" bx:origin="0.5 0.5" clip-path="url(#clipPath16)"/>
  <path fill="#666" d="M153.49883-80.014568c-.59534-1.05042-1.57043-1.05042-2.16629 0l-2.3076 4.06972c-.59638 1.05042-.31793 1.90967.6182 1.90967h5.54509c.93613 0 1.21354-.85925.61872-1.90967l-2.30812-4.06972c-.59534-1.05042-1.57043-1.05042-2.16629 0l-2.3076 4.06972c-.59638 1.05042-.31793 1.90967.6182 1.90967h5.54509c.93613 0 1.21354-.85925.61872-1.90967l-2.30812-4.06972zm0 29.85488c-.59534 1.05094-1.57043 1.05094-2.16629 0l-2.3076-4.06973c-.59638-1.05042-.31793-1.90966.6182-1.90966h5.54509c.93613 0 1.21354.85924.61872 1.90966l-2.30812 4.06973c-.59534 1.05094-1.57043 1.05094-2.16629 0l-2.3076-4.06973c-.59638-1.05042-.31793-1.90966.6182-1.90966h5.54509c.93613 0 1.21354.85924.61872 1.90966l-2.30812 4.06973zm13.80559-13.8191c1.05042-.59586 1.05042-1.57095 0-2.16629l-4.06972-2.3076c-1.05042-.59586-1.90967-.31741-1.90967.6182v5.54509c0 .93613.85925 1.21354 1.90967.61872l4.06972-2.30812c1.05042-.59586 1.05042-1.57095 0-2.16629l-4.06972-2.3076c-1.05042-.59586-1.90967-.31741-1.90967.6182v5.54509c0 .93613.85925 1.21354 1.90967.61872l4.06972-2.30812zm-29.85488-.0255c-1.05093-.59535-1.05093-1.57044 0-2.1663l4.06921-2.3076c1.05094-.59534 1.91019-.31741 1.91019.6182v5.54561c0 .93562-.85925 1.21355-1.91019.6182l-4.06921-2.30811c-1.05093-.59535-1.05093-1.57044 0-2.1663l4.06921-2.3076c1.05094-.59534 1.91019-.31741 1.91019.6182v5.54561c0 .93562-.85925 1.21355-1.91019.6182l-4.06921-2.30811zm9.87323 44.19018l-6.69732-8.54337c-2.32625-2.95318 1.88496-6.64137 4.39983-3.44883l6.69783 8.54284c2.34929 3.05306-2.01809 6.54549-4.40034 3.44936m0 21.4749105l-6.69732-8.54337c-2.32625-2.95319 1.88495-6.6413705 4.39983-3.4488405l6.69783 8.5428405c2.34929 3.05306-2.01809 6.5455-4.40034 3.44937" bx:origin="0.5 0.5" clip-path="url(#clipPath16)"/>
  <path fill="#d8d8d8" d="M179.79517 63.563562l.0156-1.39537-2.09565 1.76005-2.28318-1.87693.009 1.31276 1.47329 1.23744-1.47329 1.23692-.009 1.31276 2.28318-1.87694 2.09565 1.76005-.0156-1.39536-1.26185-1.03743zm-15.48148 17.17867l-.006.65145.006.65092-4.31753 1.97253-.006-1.06029 1.08315-.49248.0125-2.13617-1.09561-.49819.006-1.06029zm-2.35903 1.32211l1.47589-.67066-1.45251-.66028zm-18.70547-62.90725l.001-1.17925-2.42812 1.95434h-1.99279v1.03068h2.00422l2.41669 1.94499-.002-1.17926-1.60784-1.28575z" bx:origin="0 0"/>
  <path fill="#ccc" d="M128.1433 35.514962v.43638h.001v2.38189h.001c-.00052.007-.00052.0145-.001.0218v.0359h-.002c-.11845 1.79589-2.03695 1.91174-2.12318.1252-.0831 2.17824-2.24162 2.0307-2.3315-.1252h-.00052v-.009l-.002-.0499h.002v-2.81671zm-3.63438 2.86086c.1148.68574.89249.72938 1.03379.0151h-.001v-1.73044h-1.03275zm1.85459-.0166c.28001.74028.88678.42599.96003.0317h-.001v-1.73044h-.95899z" bx:origin="0 0"/>
  <path fill="#f4f4f4" d="M159.83304 31.477962c0-4.32791-3.5175-7.8449-7.84542-7.8449-4.32791 0-7.84542 3.51699-7.84542 7.8449 0 4.32844 3.51751 7.84542 7.84542 7.84542 4.32792 0 7.84542-3.51698 7.84542-7.84542zm-.66287 0c0 3.96999-3.21308 7.18255-7.18255 7.18255-3.96946 0-7.18202-3.21256-7.18202-7.18255 0-3.96894 3.21256-7.1815 7.18202-7.1815 3.96947 0 7.18255 3.21256 7.18255 7.1815zm15.5033 19.04938c0-4.32792-3.51699-7.83503-7.84542-7.83503-4.3274 0-7.8449 3.50711-7.8449 7.83503s3.5175 7.84542 7.8449 7.84542c4.32843 0 7.84542-3.5175 7.84542-7.84542zm-.6634 0c0 3.96946-3.21256 7.18202-7.1815 7.18202-3.96947 0-7.18203-3.21256-7.18203-7.18202 0-3.96894 3.21256-7.17163 7.18203-7.17163 3.96894 0 7.1815 3.20217 7.1815 7.17163zm-28.66575.62963c0-4.3274-3.51751-7.8449-7.84594-7.8449-4.32792 0-7.83503 3.5175-7.83503 7.8449 0 4.32895 3.50711 7.83503 7.83503 7.83503 4.32791 0 7.84594-3.50608 7.84594-7.83503zm-.66392 0c0 3.9705-3.21256 7.17163-7.18202 7.17163-3.96947 0-7.17112-3.20113-7.17112-7.17163 0-3.96895 3.20165-7.18151 7.17112-7.18151 3.96946 0 7.18202 3.21256 7.18202 7.18151zm15.50382 19.04989c0-4.32791-3.5175-7.84594-7.8449-7.84594-4.32792 0-7.8449 3.51803-7.8449 7.84594 0 4.32844 3.51698 7.84542 7.8449 7.84542 4.3274 0 7.8449-3.51802 7.8449-7.84542zm-.66288 0c0 3.96895-3.21256 7.18151-7.1815 7.18151-3.96998 0-7.18202-3.21256-7.18202-7.18151 0-3.96894 3.21256-7.1815 7.18202-7.1815 3.96894 0 7.1815 3.21256 7.1815 7.1815z" bx:origin="0.5 0.5"/>
  <path fill="#d8d8d8" d="M158.03663 77.432522c-4.02765 3.13724-9.82782 2.42189-12.96557-1.60628l-14.84042-19.04833c-3.13724-4.02817-2.41098-9.82833 1.61667-12.96505 4.02816-3.13671 9.82781-2.42137 12.96504 1.6068l14.83056 19.05873c1.17717 1.50965 1.81823 3.26191 1.93823 5.03754.20053 2.95697-1.02652 5.95654-3.54451 7.91659z" bx:origin="0 0"/>
  <path fill="#ff7961" d="M160.17954 70.206342c0 4.33363-3.50711 7.84075-7.84126 7.84075-4.33259 0-7.83918-3.50712-7.83918-7.84075 0-4.33311 3.50659-7.84022 7.83918-7.84022 4.33415 0 7.84126 3.50711 7.84126 7.84022z" bx:origin="0.5 0.5"/>
  <path fill="#d8d8d8" d="M172.48171 57.820022c-4.02764 3.13723-9.82781 2.42188-12.96504-1.6068l-14.84043-19.04782c-3.13723-4.02817-2.41149-9.82833 1.61667-12.96557 4.02817-3.13671 9.82782-2.42084 12.96453 1.60732l14.83055 19.05873c1.17718 1.50965 1.81824 3.26139 1.93876 5.03703.20053 2.95748-1.02704 5.95705-3.54504 7.91711z" bx:origin="0 0"/>
  <path fill="#0098df" d="M174.66879 50.533052c0 4.33312-3.50711 7.84023-7.84126 7.84023-4.33311 0-7.83971-3.50711-7.83971-7.84023 0-4.33311 3.5066-7.84074 7.83971-7.84074 4.33415 0 7.84126 3.50763 7.84126 7.84074z" bx:origin="0.5 0.5"/>
  <path fill="#fee94b" d="M145.3438 51.151772c0 4.33363-3.50712 7.84075-7.84075 7.84075-4.33311 0-7.83918-3.50712-7.83918-7.84075 0-4.33311 3.50607-7.84022 7.83918-7.84022 4.33363 0 7.84075 3.50711 7.84075 7.84022z" bx:origin="0.5 0.5"/>
  <path fill="#7eee80" d="M159.82785 31.477962c0 4.33363-3.50712 7.84075-7.84075 7.84075-4.33311 0-7.8397-3.50712-7.8397-7.84075 0-4.33311 3.50659-7.84022 7.8397-7.84022 4.33363 0 7.84075 3.50711 7.84075 7.84022z" bx:origin="0.5 0.5"/>
  <path fill="#666" fill-opacity=".5" d="M152.41569-60.715838c-2.40059 0-4.34558-1.94551-4.34558-4.3461 0-2.39955 1.94499-4.34506 4.34558-4.34506 2.39955 0 4.34558 1.94551 4.34558 4.34506 0 2.40059-1.94603 4.3461-4.34558 4.3461" bx:origin="0.5 0.5" clip-path="url(#clipPath16)"/>
  <path fill="#4c4c4c" d="M178.11045-20.862748l-.48781-.17767v.13507l.48781.0426zm.58131-5.01001c0-.0145-.008-.0249-.0171-.0348l-.58183-.11013h-.004c-.0229 0-.0395.014-.0395.0353v.10027c0 .026.0519.0883.0774.094l.48002.0925c.0281.003.0847-.0421.0847-.0681v-.10909zm.23118 20.2883705v.56677l-.23897-.0442v-.14182l-1.69563-.29663v-.27118l1.69563.29663v-.15169l.23897.0421zm0-2.51488v.23845l-1.0099.1252 1.0099.18702v.27066l-1.9346-.35482v-.23793l1.12211-.0914-1.12211-.22131v-.27948l1.9346.36364zm0-2.4540905v.50027l-.23897-.0343v-.27117l-.59846-.11117v.2639l-.20624-.0348v-.26961l-.65093-.11118v.27274l-.24-.0436v-.53352l1.9346.37248zm0-3.07282v.31378l-1.12107.0499 1.1138.48313v.30442l-1.92733-.32156v-.23741l1.01925.15377-1.01925-.42391v-.16832l1.04418-.052-1.04418-.1865v-.27117l1.9346.35585zm0-2.80112v.23741l-1.0099.12572 1.0099.18702v.27066l-1.9346-.35482v-.2452l1.12211-.0862-1.12211-.21922v-.27897l1.9346.36364zm0-2.18448v.24625l-1.9346-.36365v-.23793l1.9346.35533zm0-2.25097v.32209l-1.9346-.10182v-.32157l.44469.0421v-.19481l-.44469-.16105v-.28728l1.9346.70236zm0-2.81826v.56625l-.23897-.0338v-.14286l-1.69563-.30494v-.27118l1.69563.29663v-.15273l.23897.0426zm0-2.41981v.53976c0 .1013-.0893.1652-.19637.14545l-.68521-.12779c-.0738-.013-.13455-.14234-.16209-.21092v.0343h-.009v.0327l-.009.008v.0255h-.008v.0171h-.009v.009c-.0213.0109-.0816.0156-.0945.0156-.0104 0-.76158-.1361-.76158-.1361v-.24365s.6743.13144.70184.13507c.0296.002.0675-.003.094-.009.0208-.002.0561-.003.0774-.0239v-.16935l-.87327-.16208v-.24417l1.9346.36417zm0-2.38812v.50807l-.23897-.0421v-.26287l-.59846-.11844v.26286l-.20624-.0338v-.26442l-.65093-.10753v.2613l-.24-.0327v-.54235l1.9346.37196zm0-2.46189v.55898l-.23897-.0358v-.14234l-1.69563-.30598v-.2717l1.69563.29767v-.15273l.23897.052zm0-2.54033v.23637l-1.0099.1278 1.0099.18649v.27793l-1.9346-.36312v-.23637l1.12211-.0925-1.12211-.22235v-.27793l1.9346.36365zm0-2.33669v.50027l-.23897-.0338v-.27118l-.59846-.11013v.26286l-.20624-.0338v-.27065l-.65093-.10234v.26234l-.24-.0426v-.54079l1.9346.37975zm.0691 45.4620805v.31273l-1.11276.0509 1.10393.4820995.009.30546-1.92681-.32209v-.23689l1.02029.15273-1.02029-.4223495v-.17091l1.04523-.0504-1.04523-.1865v-.27845l1.92681.36365zm0-2.09149v.50858l-.23117-.0426v-.26235l-.60781-.11792v.26961l-.19637-.0416v-.26234l-.65145-.11013v.26234l-.24001-.0348v-.53975l1.92681.37092zm0-2.21773v.56729l-.23117-.041v-.14494l-1.69564-.29507v-.28001l1.69564.29663v-.1439l.23117.041zm0-1.972v.41508c0 .0997-.0821.17143-.18806.15273l-.47949-.0935v-.22858l.31585.0514c.0727.012.12884-.0306.12884-.10182 0-.0707-.0561-.1413-.12884-.15273l-.23013-.0426c-.0135-.008-.0795.0125-.0857.0255-.0197.0301-.5195.33092-.55794.33092-.0177.009-.026.009-.0333.009-.0623-.0119-.48936-.0852-.48936-.0852-.0966-.0187-.17871-.11325-.17871-.2104v-.36469c0-.0992.0821-.16312.17871-.14441l.48936.0836v.24676l-.35117-.0597c-.0722-.0114-.13819.0333-.13819.10286 0 .0701.066.13663.13819.15066l.2826.052c.11845-.0478.54911-.34547.65093-.36469.012-.012.0727-.0187.11896-.0177.0519.003.36936.0686.36936.0686l.008.008h.0166l.0171.01h.009l.008.007h.009l.008.008h.008l.008.008.009.008h.01v.009l.007.009.009.008.008.009.008.008.009.008.008.009v.008l.009.008v.008l.008.009v.0265l.009.007zm0-2.76735v.30494l-.72833.0421.72833.39014v.30442l-1.11276-.62651-.81405-.15273v-.27117l.87379.13662 1.05302-.12779zm0-1.94655v.41455c0 .10027-.0821.17144-.18806.15222l-.47949-.0935v-.22754l.31585.0509c.0727.0114.12884-.0312.12884-.10234 0-.0707-.0561-.14078-.12884-.15273l-.23013-.0416c-.0135-.007-.0795.013-.0857.0239-.0197.0327-.5195.33196-.55794.33196-.0177.006-.026.0104-.0333.007-.0623-.007-.48936-.093-.48936-.093-.0966-.0177-.17871-.11066-.17871-.21144v-.35378c0-.10078.0821-.16364.17871-.14545l.48936.0857v.24416l-.35117-.0597c-.0722-.0109-.13819.0317-.13819.10338 0 .0681.066.14027.13819.1517l.2826.0499c.11845-.0447.54911-.34495.65093-.36365.012-.0125.0727-.0187.11896-.0171.0519.004.36936.0686.36936.0686v.007h.0249l.0171.01h.009l.008.007h.009l.008.01h.008l.008.007.009.0104h.01v.008l.007.008.009.009.008.008h.008v.01l.009.007.008.01v.008l.009.009v.008l.008.008v.026l.009.008zM176.4408-36.876188v48.3141h2.85047v-48.3141h-2.85047zm11.26526 17.19841v.52573c0 .11481-.2665.36053-.38495.33663l-2.14032-.44728c-.11117-.0203-.37508-.2956-.37508-.40729v-.46391c0-.0961.0629-.16364.15326-.16987.0145 0 .0348-.002.0509 0l2.62812.49871.009.009.008.007.009.0177v.009l.008.008.009.007v.009l.008.008v.009l.008.0171v.0249h.008zm0-6.74565v.52417c0 .11689-.2665.36001-.38495.3382l-2.14863-.44729c-.11014-.0218-.36677-.16936-.36677-.27845v-.65197l.008-.01v-.0332h.009v-.0172l.008-.009v-.008l.008-.009.009-.009v-.009h.008l.009-.007.009-.01h.009l.007-.007.01-.009h.0161l.009-.009h.0171l.009-.009h.009c.0145 0 .0348-.002.0509 0l2.62812.50703c.039.0468.0681.1039.0681.16208m.0353 37.00626v.0327c0 .31897-.26026.52937-.58131.47378l-5.69419-1.01613c-.32261-.0546-.59119-.3485795-.59119-.6675495 0-.32001.26806-.453.59119-.39845l5.69419 1.0078195.0249.008.0244.0104.0348.007.0255.009.0343.007.0249.009.0265.008.0255.0177.0249.009.0275.0161.0249.009.0254.0156.0172.0182.026.0166.0255.0171.0171.0249.0177.0177.0161.0161.0166.0255.0182.0255.0166.0166.0171.0249.009.0265.0166.0255.008.0171.009.0327.009.026v.026l.007.0249v.0343l.01.026zm0-4.3601295v.4982c0 .32156-.26026.53871-.58131.48417l-5.69419-1.06653c-.32313-.0561-.59119-.36676-.59119-.68573v-.49144l6.86669 1.26133zm1.00159 3.72426c0-.46443-.38599-.90807-.86496-.99119l-7.02825-1.20939c-.44937-.079-.80418.21507-.80418.66184v1.7844595c0 .44781.35481.88263.80418.96471l7.02825 1.3112c.47897.0904.86496-.21247.86496-.67534V9.9453325zm0-4.64636l-8.69739-1.63486v2.4728c0 .44885.35481.88055.80418.96471l7.02825 1.31224c.48001.0883.86496-.21351.86496-.67742v-2.43747zm0-4.30922l-8.69739-1.63329v1.25302l5.04066 1.0073-5.04066.39794v1.08366l8.69739 1.6333v-1.25251l-4.54714-.83742 4.54714-.56054v-1.09146zm0-2.75021l-8.69739-1.69355v2.43799l1.07743.16884v-1.20108l2.93671.49872v1.20263l.90704.16884v-1.2016l2.69722.52521v1.20108l1.07899.16883v-2.27591zm0-2.98034l-1.07899-.20208v.67638l-7.6184-1.3377v1.2364l7.6184 1.36263v.65145l1.07899.16936v-2.55644zm0-4.19648l-8.69739-1.6343405v1.2525105l5.04066 1.00626-5.04066.39845v1.08367l8.69739 1.63329v-1.2525l-4.54714-.83743 4.54714-.55794v-1.09197zm0-1.6509605l-8.69739-1.63277v1.08107l8.69739 1.6348505v-1.0831505zm0-4.3009l-8.69739-1.6333v1.24523l5.04066 1.00575-5.04066.39793v1.08471l8.69739 1.63277v-1.24419l-4.54714-.84522 4.54714-.55898v-1.0847zm0-5.79809l-8.69739-1.62498v1.0847l3.93621.73561v.77041c-.0945.1013-.27117.11221-.35897.1278-.12779.0192-.29143.0405-.41871.0249-.1278-.014-3.15853-.59274-3.15853-.59274v1.08367s3.30191.60988 3.3549.60988c.054.002.22286 0 .31585-.0597.0608-.04.19845-.10753.24884-.18702.0977-.15013.16312-.32053.16312-.32053v-.0764c.12364.30858.32676.89405.65976.95535l3.08996.59275c.48001.0904.86496-.21196.86496-.67743v-2.4463zm0-2.91073l-8.69739-1.69356v2.43851l1.07743.16988v-1.20211l2.93671.4904v1.20159l.90704.16832v-1.20055l2.69722.53248v1.20263l1.07899.16884v-2.27643zm0-3.86817l-8.69739-1.63329v1.08315l3.93621.74547v1.37978c0 .44781.3595.8738.80626.9564l3.08996.59222c.48001.0873.86496-.21403.86496-.67898v-2.44475zm0-3.89361l-7.89321-1.35381c-.44937-.079-.80418.22183-.80418.66859v1.61563c0 .44781.35481.88263.80418.96574l7.89321 1.44732v-1.01665l-7.67191-1.37926c-.11013-.0187-.2052-.12728-.2052-.23689v-.80314c0-.11273.0945-.18754.2052-.1704l7.67191 1.34601v-1.08314zm0-3.11542c0-.46287-.38599-.91535-.86496-.99899h-.0265l-.007-.007h-.026l-.0177-.009h-.0166l-.0177-.008h-.0249l-.0171-.01h-.0265l-.026-.007-.0249-.009-.0514-.009-.0603-.0156-.0597-.007-.0597-.0182-.0691-.009-.0675-.0171-.0774-.0151-.0691-.0182-.14442-.026-.0769-.0161-.0696-.0166-.0681-.009-.0686-.0171-.0686-.0177-.0681-.008-.0603-.007-.052-.0182-.0592-.009h-.0249l-.0182-.007h-.0416l-.0275-.01h-.0327l-.0177-.008h-.0171c-.20935-.008-.4956.0192-.54858.0847-.45924.0821-2.59384 1.60161-2.91957 1.55745-.32572-.0416-1.28315-.21975-1.28315-.21975-.32313-.0546-.58184-.27429-.58184-.59378 0-.31793.25715-.5356.58184-.48157l1.59121.2878v-1.13406l-2.20733-.38131c-.44937-.0774-.80418.22286-.80418.67015v1.61511c0 .44832.35481.87431.80418.95639 0 0 2.06291.41767 2.20733.41508.14806-.002.16416-.0416.16416-.0416.1678 0 2.42449-1.35277 2.50969-1.49044.0338-.0592.25663-.10753.39221-.11065.13507-.002 1.03692.17819 1.03692.17819.32105.0561.58131.35845.58131.67794s-.26026.45248-.58131.3969l-1.42913-.24469v1.14289l2.14707.39846c.47897.0894.86496-.21404.86496-.67898v-1.6759z" bx:origin="0.5 0.5" clip-path="url(#clipPath16)"/>
  <path fill="#4c4c4c" d="M181.10766-46.969728c-.70153 0-1.27043-1.2721-1.27043-2.842 0-1.56989.5689-2.84282 1.27043-2.84282.70154 0 1.27043 1.27293 1.27043 2.84282 0 1.5699-.56889 2.842-1.27043 2.842m-2.10475 5.08806c-.70153 0-1.27043-1.2721-1.27043-2.842 0-1.56989.5689-2.84282 1.27043-2.84282s1.27043 1.27293 1.27043 2.84282c0 1.5699-.5689 2.842-1.27043 2.842m1.35339.3421c1.42309-.34201 2.99632-1.58241 2.3123-3.184 3.008 1.30379 2.53002 3.76541 1.504 4.61959-.79829.66566-3.53018.64981-3.8163-1.43559m2.30113-5.00924c1.42309-.34201 2.99548-1.58241 2.3123-3.184 3.008 1.30379 2.53002 3.76541 1.504 4.61959-.79829.66566-3.53018.64982-3.8163-1.43559"/>
</svg>
