<svg xmlns="http://www.w3.org/2000/svg" viewBox="109.842 -107.426 165.138 384.989" xmlns:bx="https://www.boxy-svg.com/bx">
  <path fill="#BDBDBD" d="M274.9795227 154.5284854c0-.991-.085-2.134-.519-3.111-.435-.978-1.363-1.795-2.674-1.795v.641c-.252-.011-.63.021-.641.332l.121 44.485c-.479 15.887-5.099 29.69-12.469 41.794-.258.514.278.736.488.727.857-.036 1.531-.086 2.068-.151v.065c.848 0 1.502.073 2.134 0 .624-.073 1.257-.428 1.616-1.077.004-.006.019.004.021 0 .002-.006-.004-.015 0-.02 6.714-11.945 9.855-25.708 9.855-40.34z" bx:origin="0 0"/>
  <path fill="#BDBDBD" d="M274.9795227 15.71047815c0 .991-.085 2.134-.519 3.111-.435.978-1.363 1.795-2.674 1.795v-.641c-.252.011-.63-.021-.641-.332l.121-44.485c-.479-15.887-5.099-29.69-12.469-41.794-.258-.514.278-.736.488-.727.857.036 1.531.086 2.068.151v-.065c.848 0 1.502-.073 2.134 0 .624.073 1.257.428 1.616 1.077.004.006.019-.004.021 0 .002.006-.004.015 0 .02 6.714 11.945 9.855 25.708 9.855 40.34z" bx:origin="0 1"/>
  <path fill="#CCC" d="M271.8685227-26.4065146v105.548h-1.474v12.032h1.474v105.368c0 44.754-36.25 81.022-81.002 81.022-44.754 0-81.022-36.27-81.022-81.022 0-17.66 5.652-33.984 15.24-47.297v-.019l1.295-1.673c2.348-2.94 3.745-6.667 3.745-10.719v-103.536c0-4.051-1.397-7.778-3.745-10.717l-1.295-1.674v-.019c-9.594-13.305-15.243-29.626-15.243-47.292 0-44.752 36.268-81.021 81.022-81.021 44.752 0 81.003 36.27 81.003 81.021l.002-.002z" bx:origin="0.5 0.5"/>
  <g fill="#4C4C4C">
    <path d="M153.0475227 38.0244854c.336.053.598-.087.784-.42l.319-.56c.469-.787 1.107-1.16 1.913-1.12.372.02.7.117.983.29.293.173.519.417.678.73.16.307.235.643.226 1.01-.009.493-.199.89-.571 1.19-.363.3-.855.447-1.475.44v-1.16c.248.007.451-.033.611-.12.15-.087.23-.23.239-.43 0-.2-.062-.373-.186-.52-.123-.153-.296-.243-.518-.27-.302-.04-.549.13-.744.51-.196.38-.359.657-.492.83-.434.547-1.019.803-1.754.77-.381-.02-.718-.113-1.01-.28-.283-.167-.505-.397-.664-.69-.16-.293-.235-.627-.226-1 .009-.267.062-.513.159-.74.107-.233.262-.433.465-.6.408-.327.948-.483 1.622-.47l-.014 1.17c-.336-.013-.594.037-.77.15-.169.107-.253.293-.253.56 0 .193.057.357.173.49.123.133.292.213.505.24zm3.588 24.422v-1.44l-5.382-.71v-1.17l5.382.71v-1.43l1.235.17v4.04l-1.235-.17zm-3.123-5.311c-.469-.034-.881-.15-1.236-.35-.363-.2-.642-.46-.837-.78-.195-.327-.288-.68-.279-1.06.017-.52.239-.927.664-1.22.435-.3 1.019-.464 1.754-.49.488-.02 1.023.02 1.608.12.576.1 1.076.263 1.502.49.434.233.757.503.97.81.212.313.315.653.305 1.02-.017.546-.235.976-.651 1.29-.425.313-1.006.486-1.741.52v-1.17c.408.006.695-.047.864-.16.177-.12.27-.3.279-.54.027-.62-.607-.997-1.9-1.13-.594-.06-1.014-.09-1.262-.09-.744-.014-1.13.193-1.156.62-.01.273.083.493.279.66.195.166.465.273.81.32l.027 1.14zm.545-5.145v-1.83l-1.582-.2v2.16l-1.222-.16v-3.33l6.617.86v3.34l-1.235-.16v-2.17l-1.396-.18v1.83l-1.182-.16zm-1.582-6.245v2.02l-1.222-.16v-3.19l6.617.86v1.17l-5.395-.7zm1.582-2.305v-1.83l-1.582-.2v2.16l-1.222-.16v-3.33l6.617.86v3.34l-1.235-.16v-2.17l-1.396-.18v1.83l-1.182-.16zm-1.01 38.22c.336.053.598-.087.784-.42l.319-.56c.469-.787 1.107-1.16 1.913-1.12.372.02.7.117.983.29.293.173.519.417.678.73.16.307.235.643.226 1.01-.009.493-.199.89-.571 1.19-.363.3-.855.447-1.475.44v-1.16c.248.007.451-.033.611-.12.15-.087.23-.23.239-.43 0-.2-.062-.373-.186-.52-.123-.153-.296-.243-.518-.27-.302-.04-.549.13-.744.51-.196.38-.359.657-.492.83-.434.547-1.019.803-1.754.77-.381-.02-.718-.113-1.01-.28-.283-.167-.505-.397-.664-.69-.16-.293-.235-.627-.226-1 .009-.267.062-.513.159-.74.107-.233.262-.433.465-.6.408-.327.948-.483 1.622-.47l-.014 1.17c-.336-.013-.594.037-.77.15-.169.107-.253.293-.253.56 0 .193.057.357.173.49.123.133.292.213.505.24zm3.588 21.071v-1.44l-5.382-.71v-1.17l5.382.71v-1.43l1.235.17v4.04l-1.235-.17z" bx:origin="0.5 0.5"/>
    <path d="M154.8145227 94.9084854v.68c0 .186.057.35.173.49.123.14.292.24.505.3.203.06.408.076.611.05.336-.047.514-.21.532-.49v-.79zm-1.222-.16l-2.339-.3v-1.17l6.617.86-.013 1.76c0 .56-.173.993-.518 1.3-.355.3-.833.433-1.435.4-.479-.02-.873-.124-1.183-.31-.319-.18-.567-.434-.744-.76l-2.644.67h-.08v-1.25l2.339-.55zm-1.103-4.889l-1.236-.44v-1.29l6.617 2.64v1.1l-6.617.92v-1.22l1.236-.12zm1.235.44v1.03l2.273-.22z" bx:origin="0 0"/>
    <path d="M156.6355227 88.2064854v-1.44l-5.382-.71v-1.17l5.382.71v-1.43l1.235.17v4.04l-1.235-.17z" bx:origin="0.5 0.5"/>
  </g>
  <path fill="#999" stroke="#999" d="M127.385 85.687c0 25.403-20.559 45.994-45.92 45.994s-45.92-20.591-45.92-45.994c0-25.402 20.559-45.996 45.92-45.996s45.92 20.594 45.92 45.996" transform="matrix(6.123233601181348e-17, 0.9999999999999999, -0.9999999999999999, 6.123233601181348e-17, 277.4795227050781, -107.34151458740233)" bx:origin="0.5 0.5" clip-path="url(#clipPath16)"/>
  <path fill="#CCC" d="M125.965 85.686c0 24.594-19.922 44.53-44.499 44.53s-44.501-19.936-44.501-44.53c0-24.593 19.924-44.53 44.501-44.53 24.577 0 44.499 19.937 44.499 44.53" transform="matrix(6.123233601181348e-17, 0.9999999999999999, -0.9999999999999999, 6.123233601181348e-17, 277.4795227050781, -107.34151458740233)" bx:origin="0.5 0.5" clip-path="url(#clipPath16)"/>
  <path fill="#666" d="M377.021 85.775c0 40.332-32.697 73.028-73.029 73.028-40.333 0-73.029-32.696-73.029-73.028 0-40.333 32.696-73.029 73.029-73.029 40.332 0 73.029 32.696 73.029 73.029" transform="matrix(6.123233601181348e-17, 0.9999999999999999, -0.9999999999999999, 6.123233601181348e-17, 277.4795227050781, -107.34151458740233)" bx:origin="0.5 0.5" clip-path="url(#clipPath16)"/>
  <path fill="#4C4C4C" d="M113.449 74.16H92.99V53.702c0-.873-.715-1.589-1.59-1.589H71.529c-.875 0-1.59.716-1.59 1.589V74.16H49.48c-.873 0-1.588.716-1.588 1.59v19.872c0 .873.715 1.589 1.588 1.589h20.459v20.459c0 .874.715 1.589 1.59 1.589H91.4c.875 0 1.59-.715 1.59-1.589V97.211h20.459c.874 0 1.589-.716 1.589-1.589V75.75c0-.874-.715-1.59-1.589-1.59" transform="matrix(6.123233601181348e-17, 0.9999999999999999, -0.9999999999999999, 6.123233601181348e-17, 277.4795227050781, -107.34151458740233)" bx:origin="0.5 0.5" clip-path="url(#clipPath16)"/>
  <path fill="#666" d="M52.681 83.601c-2.022 1.146-2.022 3.023 0 4.17l7.834 4.442c2.022 1.148 3.676.612 3.676-1.19V80.349c0-1.802-1.654-2.336-3.676-1.191l-7.834 4.443c-2.022 1.146-2.022 3.023 0 4.17l7.834 4.442c2.022 1.148 3.676.612 3.676-1.19V80.349c0-1.802-1.654-2.336-3.676-1.191l-7.834 4.443zm57.469 0c2.023 1.146 2.023 3.023 0 4.17l-7.834 4.442c-2.022 1.148-3.676.612-3.676-1.19V80.349c0-1.802 1.654-2.336 3.676-1.191l7.834 4.443c2.023 1.146 2.023 3.023 0 4.17l-7.834 4.442c-2.022 1.148-3.676.612-3.676-1.19V80.349c0-1.802 1.654-2.336 3.676-1.191l7.834 4.443zM83.549 57.026c-1.147-2.022-3.024-2.022-4.17 0l-4.442 7.834c-1.147 2.022-.611 3.676 1.19 3.676h10.674c1.802 0 2.336-1.654 1.191-3.676l-4.443-7.834c-1.147-2.022-3.024-2.022-4.17 0l-4.442 7.834c-1.147 2.022-.611 3.676 1.19 3.676h10.674c1.802 0 2.336-1.654 1.191-3.676l-4.443-7.834zm-.049 57.469c-1.146 2.023-3.023 2.023-4.17 0l-4.442-7.833c-1.146-2.023-.611-3.677 1.19-3.677h10.675c1.801 0 2.336 1.654 1.19 3.677l-4.443 7.833c-1.146 2.023-3.023 2.023-4.17 0l-4.442-7.833c-1.146-2.023-.611-3.677 1.19-3.677h10.675c1.801 0 2.336 1.654 1.19 3.677l-4.443 7.833z" transform="matrix(6.123233601181348e-17, 0.9999999999999999, -0.9999999999999999, 6.123233601181348e-17, 277.4795227050781, -107.34151458740233)" bx:origin="0.5 0.5" clip-path="url(#clipPath16)"/>
  <path fill="#666" d="M168.6 95.693l-16.668 12.603c-5.762 4.378-12.719-3.851-6.49-8.584l16.667-12.604c5.955-4.419 12.53 4.104 6.491 8.585" transform="matrix(0.017452005296945572, 0.9998480081558226, -0.9998480081558226, 0.017452005296945572, 274.72598266601557, -109.02233886718749)" bx:origin="0.5 0.5" clip-path="url(#clipPath16)"/>
  <path fill="#666" d="M209.938 95.693l-16.668 12.603c-5.762 4.378-12.719-3.851-6.49-8.584l16.667-12.604c5.955-4.419 12.53 4.104 6.491 8.585" transform="matrix(0.017452005296945572, 0.9998480081558226, -0.9998480081558226, 0.017452005296945572, 274.0045471191406, -109.01604461669922)" bx:origin="0.5 0.5" clip-path="url(#clipPath16)"/>
  <path fill="#D8D8D8" d="M244.4975227 221.7194854l.03-2.686-4.034 3.388-4.395-3.613.017 2.527 2.836 2.382-2.836 2.381-.017 2.527 4.395-3.613 4.034 3.388-.03-2.686-2.429-1.997zm-29.801 33.068l-.011 1.254.011 1.253-8.311 3.797-.011-2.041 2.085-.948.024-4.112-2.109-.959.011-2.041zm-4.541 2.545l2.841-1.291-2.796-1.271zm-36.007-121.093l.002-2.27-4.674 3.762h-3.836v1.984h3.858l4.652 3.744-.003-2.27-3.095-2.475z" bx:origin="0 0"/>
  <path fill="#CCC" d="M145.0705227 167.7274854v.84h.002v4.585h.002c-.001.014-.001.028-.002.042v.069h-.004c-.228 3.457-3.921 3.68-4.087.241-.16 4.193-4.315 3.909-4.488-.241h-.001v-.018l-.003-.096h.003v-5.422zm-6.996 5.507c.221 1.32 1.718 1.404 1.99.029h-.002v-3.331h-1.988zm3.57-.032c.539 1.425 1.707.82 1.848.061h-.002v-3.331h-1.846z" bx:origin="0 0"/>
  <path fill="#F4F4F4" d="M206.0715227 159.9564854c0-8.331-6.771-15.101-15.102-15.101s-15.102 6.77-15.102 15.101c0 8.332 6.771 15.102 15.102 15.102s15.102-6.77 15.102-15.102zm-1.276 0c0 7.642-6.185 13.826-13.826 13.826-7.641 0-13.825-6.184-13.825-13.826 0-7.64 6.184-13.824 13.825-13.824 7.641 0 13.826 6.184 13.826 13.824zm29.843 36.669c0-8.331-6.77-15.082-15.102-15.082-8.33 0-15.101 6.751-15.101 15.082s6.771 15.102 15.101 15.102c8.332 0 15.102-6.771 15.102-15.102zm-1.277 0c0 7.641-6.184 13.825-13.824 13.825-7.641 0-13.825-6.184-13.825-13.825 0-7.64 6.184-13.805 13.825-13.805 7.64 0 13.824 6.164 13.824 13.805zm-55.18 1.212c0-8.33-6.771-15.101-15.103-15.101-8.331 0-15.082 6.771-15.082 15.101 0 8.333 6.751 15.082 15.082 15.082s15.103-6.749 15.103-15.082zm-1.278 0c0 7.643-6.184 13.805-13.825 13.805-7.641 0-13.804-6.162-13.804-13.805 0-7.64 6.163-13.824 13.804-13.824s13.825 6.184 13.825 13.824zm29.844 36.67c0-8.331-6.771-15.103-15.101-15.103-8.331 0-15.101 6.772-15.101 15.103 0 8.332 6.77 15.102 15.101 15.102 8.33 0 15.101-6.772 15.101-15.102zm-1.276 0c0 7.64-6.184 13.824-13.824 13.824-7.642 0-13.825-6.184-13.825-13.824s6.184-13.824 13.825-13.824c7.64 0 13.824 6.184 13.824 13.824z" bx:origin="0.5 0.5"/>
  <path fill="#D8D8D8" d="M202.6135227 248.4164854c-7.753 6.039-18.918 4.662-24.958-3.092l-28.567-36.667c-6.039-7.754-4.641-18.919 3.112-24.957 7.754-6.038 18.918-4.661 24.957 3.093l28.548 36.687c2.266 2.906 3.5 6.279 3.731 9.697.386 5.692-1.976 11.466-6.823 15.239z" bx:origin="0 0"/>
  <path fill="#FF7961" d="M206.7385227 234.5064854c0 8.342-6.751 15.093-15.094 15.093-8.34 0-15.09-6.751-15.09-15.093 0-8.341 6.75-15.092 15.09-15.092 8.343 0 15.094 6.751 15.094 15.092z" bx:origin="0.5 0.5"/>
  <path fill="#D8D8D8" d="M230.4195227 210.6634854c-7.753 6.039-18.918 4.662-24.957-3.093l-28.567-36.666c-6.039-7.754-4.642-18.919 3.112-24.958 7.754-6.038 18.918-4.66 24.956 3.094l28.548 36.687c2.266 2.906 3.5 6.278 3.732 9.696.386 5.693-1.977 11.467-6.824 15.24z" bx:origin="0 0"/>
  <path fill="#0098DF" d="M234.6295227 196.6364854c0 8.341-6.751 15.092-15.094 15.092-8.341 0-15.091-6.751-15.091-15.092 0-8.341 6.75-15.093 15.091-15.093 8.343 0 15.094 6.752 15.094 15.093z" bx:origin="0.5 0.5"/>
  <path fill="#FEE94B" d="M178.1805227 197.8274854c0 8.342-6.751 15.093-15.093 15.093-8.341 0-15.09-6.751-15.09-15.093 0-8.341 6.749-15.092 15.09-15.092 8.342 0 15.093 6.751 15.093 15.092z" bx:origin="0.5 0.5"/>
  <path fill="#7EEE80" d="M206.0615227 159.9564854c0 8.342-6.751 15.093-15.093 15.093-8.341 0-15.091-6.751-15.091-15.093 0-8.341 6.75-15.092 15.091-15.092 8.342 0 15.093 6.751 15.093 15.092z" bx:origin="0.5 0.5"/>
  <path fill="#666" fill-opacity=".5" d="M89.83 85.686c0 4.621-3.745 8.365-8.366 8.365-4.619 0-8.364-3.744-8.364-8.365 0-4.619 3.745-8.365 8.364-8.365 4.621 0 8.366 3.746 8.366 8.365" transform="matrix(6.123233601181348e-17, 0.9999999999999999, -0.9999999999999999, 6.123233601181348e-17, 277.4795227050781, -107.34151458740233)" bx:origin="0.5 0.5" clip-path="url(#clipPath16)"/>
  <path fill="#4C4C4C" d="M163.348 35.415l-.342.939h.26l.082-.939zm-9.644-1.119c-.028 0-.048.015-.067.033l-.212 1.12v.007c0 .044.027.076.068.076h.193c.05 0 .17-.1.181-.149l.178-.924c.006-.054-.081-.163-.131-.163h-.21zm39.054-.445h1.091l-.085.46h-.273l-.571 3.264h-.522l.571-3.264h-.292l.081-.46zm-4.841 0h.459l.241 1.944.36-1.944h.521l-.683 3.724h-.458l-.176-2.16-.426 2.16h-.538l.7-3.724zm-4.724 0h.963l-.066.46h-.522l-.214 1.152h.508l-.067.397h-.519l-.214 1.253h.525l-.084.462h-1.027l.717-3.724zm-5.915 0h.604l.096 2.158.93-2.144h.586l-.619 3.71h-.457l.296-1.962-.816 1.962h-.324l-.1-2.01-.359 2.01h-.522l.685-3.724zm-5.392 0h.457l.242 1.944.36-1.944h.521l-.683 3.724h-.472l-.166-2.16-.422 2.16h-.537l.7-3.724zm-4.205 0h.474l-.7 3.724h-.458l.684-3.724zm-4.333 0h.62l-.196 3.724h-.619l.081-.856h-.375l-.31.856h-.553l1.352-3.724zm-5.425 0h1.09l-.065.46h-.275l-.587 3.264h-.522l.571-3.264h-.294l.082-.46zm-4.658 0h1.039c.195 0 .318.172.28.378l-.246 1.319c-.025.142-.274.259-.406.312h.066v.017h.063l.016.017h.049v.016h.033v.017h.018c.021.041.03.157.03.182 0 .02-.262 1.466-.262 1.466h-.469s.253-1.298.26-1.351c.003-.057-.006-.13-.018-.181-.003-.04-.005-.108-.046-.149h-.326l-.312 1.681h-.47l.701-3.724zm-4.597 0h.978l-.081.46h-.506l-.228 1.152h.506l-.065.397h-.509l-.207 1.253h.503l-.063.462h-1.044l.716-3.724zm-4.739 0h1.076l-.069.46h-.274l-.589 3.264h-.523l.573-3.264h-.294l.1-.46zm-4.89 0h.455l.246 1.944.359-1.944h.535l-.699 3.724h-.455l-.178-2.16-.428 2.16h-.535l.7-3.724zm-4.498 0h.963l-.065.46h-.522l-.212 1.152h.506l-.065.397h-.521l-.197 1.253h.505l-.082.462h-1.041l.731-3.724zm87.512-.133h.602l.098 2.142.928-2.125.588-.017-.62 3.709h-.456l.294-1.964-.813 1.964h-.329l-.097-2.012-.359 2.012h-.536l.7-3.709zm-4.026 0h.979l-.082.445h-.505l-.227 1.17h.519l-.08.378h-.505l-.212 1.254h.505l-.067.462h-1.039l.714-3.709zm-4.269 0h1.092l-.079.445h-.279l-.568 3.264h-.539l.571-3.264h-.277l.079-.445zm-3.796 0h.799c.192 0 .33.158.294.362l-.18.923h-.44l.099-.608c.023-.14-.059-.248-.196-.248-.136 0-.272.108-.294.248l-.082.443c-.016.026.024.153.049.165.058.038.637 1 .637 1.074.017.034.017.05.017.064-.023.12-.164.942-.164.942-.036.186-.218.344-.405.344h-.702c-.191 0-.314-.158-.278-.344l.161-.942h.475l-.115.676c-.022.139.064.266.198.266.135 0 .263-.127.29-.266l.1-.544c-.092-.228-.665-1.057-.702-1.253-.023-.023-.036-.14-.034-.229.005-.1.132-.711.132-.711l.016-.016v-.032l.019-.033v-.018l.014-.016v-.017l.016-.016v-.015l.016-.016.015-.017v-.019h.017l.018-.014.016-.017.017-.016.016-.016.016-.018.018-.015h.015l.015-.018h.016l.017-.016h.051l.013-.017zm-5.327 0h.587l.081 1.402.751-1.402h.586l-1.206 2.142-.294 1.567h-.522l.263-1.682-.246-2.027zm-3.747 0h.798c.193 0 .33.158.293.362l-.18.923h-.438l.098-.608c.022-.14-.06-.248-.197-.248-.136 0-.271.108-.294.248l-.08.443c-.014.026.025.153.046.165.063.038.639 1 .639 1.074.012.034.02.05.014.064-.014.12-.179.942-.179.942-.034.186-.213.344-.407.344h-.681c-.194 0-.315-.158-.28-.344l.165-.942h.47l-.115.676c-.021.139.061.266.199.266.131 0 .27-.127.292-.266l.096-.544c-.086-.228-.664-1.057-.7-1.253-.024-.023-.036-.14-.033-.229.007-.1.132-.711.132-.711h.014v-.048l.019-.033v-.018l.014-.016v-.017l.019-.016v-.015l.013-.016.02-.017v-.019h.015l.015-.014.017-.017.016-.016v-.016h.019l.013-.018.019-.015h.015l.017-.018h.016l.015-.016h.05l.016-.017zm-68.365 4.911h93.002v-5.487h-93.002v5.487zm33.106-21.685h1.012c.221 0 .694.513.648.741l-.861 4.12c-.039.214-.569.722-.784.722h-.893c-.185 0-.315-.121-.327-.295 0-.028-.003-.067 0-.098l.96-5.059.018-.017.014-.015.034-.018h.017l.016-.015.014-.018h.017l.016-.016h.018l.033-.016h.048v-.016zm-12.985 0h1.009c.225 0 .693.513.651.741l-.861 4.136c-.042.212-.326.706-.536.706h-1.255l-.019-.015h-.064v-.018h-.033l-.017-.015h-.015l-.017-.015-.017-.017h-.018v-.016l-.013-.017-.019-.017v-.017l-.013-.014-.017-.019v-.031l-.017-.017v-.033l-.017-.017v-.017c0-.028-.004-.067 0-.098l.976-5.059c.09-.075.2-.131.312-.131m71.235-.068h.063c.614 0 1.019.501.912 1.119l-1.956 10.961c-.105.621-.671 1.138-1.285 1.138-.616 0-.872-.516-.767-1.138l1.94-10.961.015-.048.02-.047.013-.067.018-.049.014-.066.017-.048.015-.051.034-.049.017-.048.031-.053.018-.048.03-.049.035-.033.032-.05.033-.049.048-.033.034-.034.031-.031.049-.032.049-.035.032-.032.048-.033.051-.018.049-.032.033-.016.063-.017.05-.018h.05l.048-.014h.066l.05-.019zm-8.393 0h.959c.619 0 1.037.501.932 1.119l-2.053 10.961c-.108.622-.706 1.138-1.32 1.138h-.946l2.428-13.218zm7.169-1.928c-.894 0-1.748.743-1.908 1.665l-2.328 13.529c-.152.865.414 1.548 1.274 1.548h3.435c.862 0 1.699-.683 1.857-1.548l2.524-13.529c.174-.922-.409-1.665-1.3-1.665h-3.554zm-8.944 0l-3.147 16.742h4.76c.864 0 1.695-.683 1.857-1.548l2.526-13.529c.17-.924-.411-1.665-1.304-1.665h-4.692zm-8.295 0l-3.144 16.742h2.412l1.939-9.703.766 9.703h2.086l3.144-16.742h-2.411l-1.612 8.753-1.079-8.753h-2.101zm-5.294 0l-3.26 16.742h4.693l.325-2.074h-2.312l.96-5.653h2.315l.325-1.746h-2.313l1.011-5.192h2.312l.325-2.077h-4.381zm-5.737 0l-.389 2.077h1.302l-2.575 14.665h2.38l2.623-14.665h1.254l.326-2.077h-4.921zm-8.078 0l-3.146 16.742h2.411l1.937-9.703.767 9.703h2.086l3.144-16.742h-2.411l-1.612 8.753-1.074-8.753h-2.102zm-3.178 0l-3.143 16.742h2.081l3.147-16.742h-2.085zm-8.279 0l-3.144 16.742h2.397l1.936-9.703.766 9.703h2.088l3.143-16.742h-2.395l-1.627 8.753-1.076-8.753h-2.088zm-11.161 0l-3.128 16.742h2.088l1.416-7.577h1.483c.195.182.216.522.246.691.037.246.078.561.048.806-.027.246-1.141 6.08-1.141 6.08h2.086s1.174-6.356 1.174-6.458c.003-.104 0-.429-.115-.608-.077-.117-.207-.382-.36-.479-.289-.188-.617-.314-.617-.314h-.147c.594-.238 1.721-.629 1.839-1.27l1.141-5.948c.174-.924-.408-1.665-1.304-1.665h-4.709zm-5.603 0l-3.26 16.742h4.694l.327-2.074h-2.314l.944-5.653h2.313l.324-1.746h-2.311l1.025-5.192h2.315l.325-2.077h-4.382zm-7.446 0l-3.144 16.742h2.085l1.435-7.577h2.656c.862 0 1.682-.692 1.841-1.552l1.14-5.948c.168-.924-.412-1.665-1.307-1.665h-4.706zm-7.495 0l-2.606 15.194c-.152.865.427 1.548 1.287 1.548h3.11c.862 0 1.699-.683 1.859-1.548l2.786-15.194h-1.957l-2.655 14.768c-.036.212-.245.395-.456.395h-1.546c-.217 0-.361-.182-.328-.395l2.591-14.768h-2.085zm-5.997 0c-.891 0-1.762.743-1.923 1.665v.051l-.014.014v.05l-.017.034v.032l-.015.034v.048l-.019.033v.051l-.014.05-.018.048-.018.099-.03.116-.014.115-.035.115-.017.133-.033.13-.029.149-.035.133-.05.278-.031.148-.032.134-.017.131-.033.132-.034.132-.015.131-.013.116-.035.1-.018.114v.048l-.014.035v.08l-.019.053v.063l-.015.034v.033c-.016.403.037.954.163 1.056.158.884 3.083 4.993 2.998 5.62-.08.627-.423 2.47-.423 2.47-.105.622-.528 1.12-1.143 1.12-.612 0-1.031-.495-.927-1.12l.554-3.063h-2.183l-.734 4.249c-.149.865.429 1.548 1.29 1.548h3.109c.863 0 1.683-.683 1.841-1.548 0 0 .804-3.971.799-4.249-.003-.285-.08-.316-.08-.316 0-.323-2.604-4.667-2.869-4.831-.114-.065-.207-.494-.213-.755-.004-.26.343-1.996.343-1.996.108-.618.69-1.119 1.305-1.119s.871.501.764 1.119l-.471 2.751h2.2l.767-4.133c.172-.922-.412-1.665-1.307-1.665h-3.226z" bx:origin="0.5 0.5" clip-path="url(#clipPath16)" transform="matrix(0, 1, -1, 0, 276.669525, -104.144508)"/>
  <path fill="#4C4C4C" d="M247.024002 8.948983c-1.35040884 0-2.4455085-2.44871995-2.4455085-5.47068123 0-3.02196127 1.09509966-5.47228694 2.4455085-5.47228694 1.35040884 0 2.4455085 2.45032567 2.4455085 5.47228694 0 3.02196128-1.09509966 5.47068123-2.4455085 5.47068123m-4.051544 9.794235c-1.35040884 0-2.4455085-2.44871995-2.4455085-5.47068123 0-3.02196127 1.09509966-5.47228694 2.4455085-5.47228694 1.35040884 0 2.4455085 2.45032567 2.4455085 5.47228694 0 3.02196128-1.09509966 5.47068123-2.4455085 5.47068123m2.605217.658523c2.7393549-.65834438 5.76773906-3.04604705 4.4510503-6.1290256 5.7902191 2.50973723 4.8701427 7.24821105 2.89510955 8.89246628-1.53667213 1.28136296-6.79539858 1.25085432-7.34615985-2.76344068m4.42955-9.642509c2.7393549-.65834438 5.76613334-3.04604705 4.4510503-6.1290256 5.7902191 2.50973723 4.8701427 7.24821105 2.89510955 8.89246628-1.53667213 1.28136296-6.79539858 1.25085432-7.34615985-2.76344068"/>
</svg>
