<?xml version="1.0" encoding="utf-8"?>
<!-- Generator: Adobe Illustrator 19.0.0, SVG Export Plug-In . SVG Version: 6.00 Build 0)  -->
<svg version="1.1"
	 id="svg2" xmlns:rdf="http://www.w3.org/1999/02/22-rdf-syntax-ns#" xmlns:dc="http://purl.org/dc/elements/1.1/" xmlns:inkscape="http://www.inkscape.org/namespaces/inkscape" xmlns:sodipodi="http://sodipodi.sourceforge.net/DTD/sodipodi-0.dtd" xmlns:cc="http://creativecommons.org/ns#" xmlns:svg="http://www.w3.org/2000/svg" sodipodi:docname="icon_filled.svg" inkscape:version="0.91 r13725"
	 xmlns="http://www.w3.org/2000/svg" xmlns:xlink="http://www.w3.org/1999/xlink" x="0px" y="0px" viewBox="-290 382 30 30"
	 enable-background="new -290 382 30 30" xml:space="preserve">
<sodipodi:namedview  inkscape:cy="13.376988" inkscape:cx="14.394621" inkscape:zoom="21.036212" bordercolor="#666666" objecttolerance="10" borderopacity="1" pagecolor="#ffffff" guidetolerance="10" gridtolerance="10" showgrid="false" id="namedview4" inkscape:current-layer="svg2" inkscape:window-maximized="1" inkscape:window-y="-8" inkscape:pageopacity="0" inkscape:window-x="-8" inkscape:window-height="1027" inkscape:window-width="1920" inkscape:pageshadow="2">
	</sodipodi:namedview>
<g>
	<path fill="#CECCC0" d="M-273,404.9l4.1-4.1l-14.7-14.7l-6.3-2.2l2.2,6.3"/>
	<path fill="#2B3347" d="M-269.3,402.1l5.7,5.7l-2.4,2.4l-5.7-5.7L-269.3,402.1z"/>
	<path fill="#D8D6CE" d="M-271,402.8l2-2l-14.7-14.7l-6.3-2.2L-271,402.8z"/>
	<path fill="#F4B056" d="M-274.9,406.1l7.1-7.1l1.1,1.1l-7.1,7.1L-274.9,406.1z"/>
	<path fill="#A08D8D" d="M-263.6,383.8l-2.2,6.3l-14.7,14.7l-4.1-4.1l14.7-14.7L-263.6,383.8z"/>
	<path fill="#E8E7E6" d="M-263.6,383.8l-2.2,6.3l-14.7,14.7l-4.1-4.1l14.7-14.7L-263.6,383.8z"/>
	<path fill="#353D4F" d="M-290,407.7l5.7-5.7l2.4,2.4l-5.7,5.7L-290,407.7z"/>
	<path fill="#D6D5D4" d="M-282.6,402.8l-2-2l14.7-14.7l6.3-2.2L-282.6,402.8z"/>
	<path fill="#FFD67B" d="M-285.9,398.9l7.1,7.1l-1.1,1.1l-7.1-7.1L-285.9,398.9z"/>
</g>
</svg>
