<?xml version="1.0" encoding="utf-8"?>
<!-- Generator: Adobe Illustrator 16.0.3, SVG Export Plug-In . SVG Version: 6.00 Build 0)  -->
<!DOCTYPE svg PUBLIC "-//W3C//DTD SVG 1.1//EN" "http://www.w3.org/Graphics/SVG/1.1/DTD/svg11.dtd">
<svg version="1.1"
	 id="svg3513" xmlns:inkscape="http://www.inkscape.org/namespaces/inkscape" xmlns:sodipodi="http://sodipodi.sourceforge.net/DTD/sodipodi-0.dtd" xmlns:dc="http://purl.org/dc/elements/1.1/" xmlns:cc="http://creativecommons.org/ns#" xmlns:rdf="http://www.w3.org/1999/02/22-rdf-syntax-ns#" xmlns:svg="http://www.w3.org/2000/svg" sodipodi:docname="Nouveau document 3" inkscape:version="0.48.4 r9939"
	 xmlns="http://www.w3.org/2000/svg" xmlns:xlink="http://www.w3.org/1999/xlink" x="0px" y="0px" width="350.438px"
	 height="295.236px" viewBox="0 0 350.438 295.236" enable-background="new 0 0 350.438 295.236" xml:space="preserve">
<sodipodi:namedview  id="base" pagecolor="#ffffff" bordercolor="#666666" borderopacity="1.0" inkscape:zoom="0.35" inkscape:cx="181.64754" inkscape:cy="124.76097" showgrid="false" fit-margin-top="0" fit-margin-left="0" inkscape:window-maximized="0" inkscape:window-y="24" inkscape:window-x="51" inkscape:window-height="998" inkscape:window-width="1629" inkscape:pageshadow="2" inkscape:pageopacity="0.0" fit-margin-bottom="0" fit-margin-right="0" inkscape:document-units="px" inkscape:current-layer="layer1">
	</sodipodi:namedview>
<g id="layer1" transform="translate(-193.35246,-361.8869)" inkscape:label="Calque 1" inkscape:groupmode="layer">
	<g id="g426" transform="matrix(1.25,0,0,-1.25,-28.237414,1333.1364)">
		<g>
			<defs>
				<rect id="SVGID_1_" x="-76.5" y="-99" width="765" height="990"/>
			</defs>
			<clipPath id="SVGID_2_">
				<use xlink:href="#SVGID_1_"  overflow="visible"/>
			</clipPath>
			<g id="g428" clip-path="url(#SVGID_2_)">
				<g id="g434" transform="translate(363.4684,674.2056)">
					<path id="path436" inkscape:connector-curvature="0" fill="#EB3F3F" d="M0,0c2.041,3.362,2.5,6.869,2.823,10.372
						c0.263,2.851-0.346,5.656-0.957,8.438c-2.098,9.545-6.891,17.641-13.478,24.714c-2.286,2.455-4.674,4.822-7.319,6.944
						c-3.599,2.889-7.396,5.454-11.434,7.638c-5.1,2.758-10.532,4.752-16.218,5.862c-3.252,0.635-6.618,1.13-9.907,1.004
						c-2.933-0.113-5.92-0.555-8.824-1.352c-7.261-1.991-12.757-6.232-16.119-12.913c-2.904-5.771-3.231-12.053-1.971-18.283
						c1.117-5.525,3.258-10.781,6.272-15.557c3.786-5.998,8.227-11.447,13.817-15.964C-59.721-2-56.011-4.671-51.987-6.896
						c9.002-4.976,18.56-7.891,28.959-7.394c2.855,0.136,5.657,0.663,8.307,1.843c-0.839,0.124-1.663,0.151-2.484,0.119
						c-4.89-0.186-9.411,1.201-13.747,3.286C-38.255-5.528-43.988-0.178-48.058,6.74c-3.129,5.319-4.765,11.167-3.146,17.432
						c0.87,3.367,2.658,6.105,5.567,8.225c4.683,3.411,10.021,3.342,15.235,2.771c4.255-0.465,8.348-2.119,12.125-4.343
						c5.472-3.223,10.175-7.295,13.591-12.662c3.28-5.15,5.502-10.671,4.573-16.998C-0.155,0.882-0.061,0.579,0,0 M-51.231,102.794
						c1.45-1.102,3.252-0.641,4.84-0.885c8.398-1.288,16.395-3.81,24.175-7.113c7.785-3.304,15.233-7.297,22.254-11.971
						c4.766-3.173,9.386-6.601,13.728-10.406c2.448-2.144,4.723-4.482,7.264-6.545c2.458-1.995,4.418-4.615,6.536-7.001
						c2.889-3.254,5.55-6.73,7.979-10.36c4.821-7.202,8.471-14.948,10.329-23.43c0.525-2.398,1.099-4.925,0.35-8.021
						c-0.337,2.936-0.54,5.359-1.343,7.631c-1.458,4.123-3.675,7.848-6.286,11.342c-2.404,3.216-4.987,6.284-7.984,8.959
						c-3.983,3.554-8.196,6.778-12.848,9.47c-4.557,2.636-9.373,4.54-14.411,5.874c-4.106,1.087-8.318,1.617-12.639,1.187
						c0.002-0.726,0.593-1.039,1.098-1.38c3.439-2.317,6.588-4.977,9.673-7.749c2.31-2.074,4.465-4.244,6.543-6.55
						c3.808-4.226,7.192-8.745,10.201-13.549c4.036-6.444,6.887-13.421,8.653-20.795c1.452-6.063,1.749-12.208,0.842-18.439
						c-0.967-6.648-3.306-12.752-7.052-18.233c-3.612-5.285-8.375-9.374-14.021-12.56c-5.662-3.195-11.673-5.28-17.939-6.675
						c-2.743-0.611-5.563-0.986-8.401-1.248c-4.058-0.377-8.113-0.78-12.183-0.88c-4.892-0.122-9.705,0.666-14.545,1.366
						c-4.894,0.707-9.58,2.04-14.221,3.578c-9.102,3.016-17.648,7.23-25.891,12.137c-5.343,3.181-10.441,6.706-15.306,10.522
						c-5.619,4.406-10.895,9.273-15.64,14.616c-6.227,7.011-11.881,14.467-15.763,23.102c-2.047,4.552-3.637,9.22-4.415,14.196
						c-0.321,2.055-0.341,4.032-0.232,6.069c0.404-2.001,0.743-4.002,1.174-5.99c0.912-4.203,3.18-7.695,5.436-11.191
						c2.028-3.144,4.654-5.854,7.172-8.592c2.246-2.443,4.891-4.561,7.549-6.572c3.525-2.666,7.273-5.067,11.308-6.875
						c5.667-2.539,11.502-4.64,17.839-4.701c1.234-0.011,2.323-0.776,3.609-0.534c0.632,0.118,1.306-0.013,1.664,0.764
						C-88.762-0.249-94.64,5.06-99.958,10.933c-4.277,4.723-7.878,9.984-11.15,15.487c-3.907,6.572-6.209,13.708-7.952,21.053
						c-0.813,3.433-0.626,6.995-0.67,10.52c-0.115,9.244,2.973,17.508,8.24,24.828c4.708,6.545,11.222,11.023,18.74,14.128
						c4.404,1.819,8.931,3.154,13.528,4.173c2.894,0.642,5.886,1.166,8.906,1.198c0.577,0.006,1.352-0.405,1.718,0.474H-51.231
						L-51.231,102.794z"/>
				</g>
				<g id="g438" transform="translate(283.9539,540.8106)">
					<path id="path440" inkscape:connector-curvature="0" fill="#EFAC50" d="M0,0c-0.227,0.641-0.784,0.46-1.246,0.495
						C-5.845,0.832-9.94,4.388-10.475,9.6c-0.31,3.023-0.067,5.934,0.537,8.855c1.045,5.04,4.654,7.637,9.118,9.29
						C0.68,28.3,2.239,28.84,3.906,28.784c1.916-0.064,2.441-0.655,1.817-2.422c-0.834-2.361-1.894-4.641-2.724-7.005
						c-0.83-2.367-1.473-4.77-1.55-7.339C1.348,8.575,2.971,6.551,5.655,5.604c2.936-1.034,6.486,0.278,8.257,2.833
						c1.008,1.456,1.219,3.075,1.584,4.753c0.462,2.121-0.178,3.95-0.507,5.906c-0.32,1.892-1.346,3.052-3.091,3.76
						c-0.713,0.289-1.616,0.452-1.967,1.541c3.527,2.458,7.509,3.323,11.711,2.805c1.63-0.201,3.209-1.098,3.959-2.915
						c1.018-2.462,1.637-4.919,0.88-7.588c-0.241-0.851-0.152-1.793-0.362-2.657c-1.443-5.923-5.654-9.309-10.952-11.52
						C12.254,1.309,9.195,0.42,5.964,0.456C5.686,0.459,5.556,0.232,5.458,0H0z"/>
				</g>
				<g id="g442" transform="translate(342.0089,540.8106)">
					<path id="path444" inkscape:connector-curvature="0" fill="#7B9AC8" d="M0,0c-0.732,0.995-1.834,0.32-2.741,0.599
						c-3.034,0.934-5.407,2.656-6.995,5.428c-0.192,0.334-0.207,0.823-0.71,0.926l0.034-0.035c-0.488,2.339-0.617,4.709-0.497,7.086
						c0.344,6.824,3.826,11.97,10.304,13.938c1.384,0.42,2.805,0.804,4.287,0.845c1.254,0.034,1.728-0.523,1.803-1.773
						c0.117-1.948-1.093-3.423-1.775-5.025c-1.321-3.105-2.012-6.337-2.651-9.596C0.56,9.845,2.587,6.691,5.148,5.887
						c4.92-1.545,9.52,0.78,10.179,7.15c0.172,1.666,0.105,3.378-0.273,5.124c-0.612,2.826-2.065,4.528-4.798,5.254
						c-0.216,0.058-0.388,0.281-0.715,0.53c0.336,0.671,0.847,1.059,1.505,1.42c3.127,1.714,6.495,2.191,9.97,1.888
						c2.434-0.212,5.081-2.68,5.197-5.163c0.117-2.511,0.235-5.031-0.278-7.595c-1.008-5.047-4.284-8.136-8.362-10.608
						C14.035,1.742,10.146,0.596,5.98,0.496C5.563,0.486,5.152,0.473,4.962,0H0z"/>
				</g>
				<g id="g446" transform="translate(252.5766,541.2126)">
					<path id="path448" inkscape:connector-curvature="0" fill="#00A9E6" d="M0,0c-6.922,0.087-12.387,1.679-16.583,6.189
						c-2.83,3.041-4.266,6.734-4.714,10.973c-0.486,4.593,0.398,8.696,3.116,12.314c2.279,3.033,5.206,5.426,8.579,7.223
						c4.021,2.142,8.2,3.889,12.676,4.805c4.103,0.84,8.207,1.116,12.409,0.388c1.898-0.33,3.889-0.402,5.838-0.594
						c1.109-0.108,1.818-0.498,1.546-1.669c-0.77-3.307-0.803-6.734-1.83-10.017c-0.42-1.345-1.015-2.569-1.627-3.781
						c-0.702-1.389-2.637-1.392-3.362-0.019c-0.79,1.5-1.462,3.083-1.984,4.695c-0.281,0.868-0.631,1.727-1.11,2.42
						c-1.596,2.306-3.367,3.209-6.199,2.58c-6.779-1.504-10.534-6.159-13.407-11.827c-1.244-2.452-1.923-5.166-1.681-8.028
						c0.337-4.017,2.33-7.78,6.413-8.842c1.559-0.405,3.002-0.174,4.56,0.143c3.556,0.723,6.63,2.152,9.021,4.93
						c1.264,1.47,3.135,1.593,4.821,2.06c0.815,0.227,1.354-0.321,1.495-1.23c0.475-3.066-0.68-5.586-3.006-7.352
						C11.407,2.657,4.558-0.476,0,0"/>
				</g>
				<g id="g450" transform="translate(331.563,547.7637)">
					<path id="path452" inkscape:connector-curvature="0" fill="#E56565" d="M0,0C0.142-1.784-0.637-2.902-2.06-4.077
						C-4.633-6.2-7.504-6.037-10.439-5.95c-2.641,0.079-5.133,0.866-7.344,2.249c-1.332,0.832-2.024,2.186-2.079,3.943
						c-0.148,4.712,1.177,9.153,2.286,13.629c1.163,4.691,2.421,9.36,3.768,14.002c0.804,2.766,2.317,5.144,4.428,7.177
						c1.607,1.549,3.227,1.22,4.919,0.425c1.552-0.729,2.553-1.716,2.565-3.734c0.02-3.194-1.154-6.045-2.116-8.939
						c-1.984-5.97-3.665-12.021-5.26-18.098c-0.92-3.506,0.977-5.191,4.591-4.351c1.552,0.361,3.295,1.479,4.715-0.388L0,0z"/>
				</g>
				<g id="g454" transform="translate(398.8348,553.554)">
					<path id="path456" inkscape:connector-curvature="0" fill="#D78FAC" d="M0,0c-1.046,0.78-1.179,1.646-1.647,2.302
						C-3.169,4.437-5.046,5.139-7.58,4.443c-4.52-1.239-7.306-4.417-9.379-8.387c-0.72-1.378-1.365-2.798-2.115-4.161
						c-1.324-2.405-4.942-3.688-7.255-2.467c-0.898,0.475-1.728,1.208-1.737,2.5C-28.08-5.932-28-3.831-27.288-1.777
						c1.276,3.686,2.454,7.398,3.283,11.225c0.269,1.243,0.957,2.452,1.673,3.53c1.284,1.936,6.372,2.302,7.843,0.598
						c1.195-1.384,0.913-3.085,0.695-4.714c-0.05-0.376-0.43-0.709,0.073-1.286c5.385,4.567,10.87,9.096,19.011,8.36
						C4.802,10.119,2.204,5.249,0,0"/>
				</g>
				<g id="g458" transform="translate(181.8609,614.5686)">
					<path id="path460" inkscape:connector-curvature="0" fill="#4C504E" d="M0,0.001C2.266,1.39,3.65,4.226,6.813,4.149
						c1.142-0.027,2.285-0.004,3.57-0.004C8.819-2.358,7.314-8.619,5.793-14.945c3.528,1.23,3.439,1.323,4.564,4.827
						c1.122,3.495,2.052,7.03,2.929,10.587c0.379,1.54,3.135,3.687,4.698,3.666c1.881-0.025,3.773,0.159,5.681-0.13
						c-1.493-6.256-2.964-12.425-4.531-18.993c2.409,1.388,4.15,2.64,4.587,5.254c0.498,2.987,1.297,5.923,1.955,8.884
						c0.47,2.114,2.518,2.913,3.679,4.45c0.676,0.895,1.666,0.497,2.526,0.53c1.385,0.054,2.774,0.015,4.22,0.015
						c-1.527-6.103-3.02-11.972-4.45-17.857c-0.321-1.319-0.188-1.092-1.876-2.905l-2.05-1.759
						c-1.324-1.136-2.656-1.858-4.539-1.837c-9.257,0.098-18.517,0.045-27.775,0.045C-4.589-19.673-0.098-0.06,0,0.001"/>
				</g>
				<g id="g462" transform="translate(455.4863,595.5145)">
					<path id="path464" inkscape:connector-curvature="0" fill="#4C504E" d="M0,0h-9.05c0.646,2.394,1.29,4.813,1.953,7.227
						c0.845,3.079,0.12,4.058-3.032,4.063c-0.74,0.001-1.48,0-2.373,0c-0.741-2.555-1.445-5.13-2.244-7.677
						c-0.895-2.852-2.812-4.284-5.721-4.209c-1.665,0.042-3.407-0.409-5.022,0.337c0.695,3.373,4.069,13.474,4.497,15.023H-7.32
						c1.645,0,3.292-0.072,4.932,0.018c1.884,0.104,3.297-0.702,4.524-2.002C2.136,11.125,0.685,2.71,0,0"/>
				</g>
				<g id="g466" transform="translate(311.2017,606.7617)">
					<path id="path468" inkscape:connector-curvature="0" fill="#4C504E" d="M0,0c-6.625,0.152-7.897-0.362-8.302-3.255
						C-3.419-3.812-3.12-3.699,0,0 M7.486-1.553c2.091,1.967,4.371,2.986,6.445,4.325c0.907,0.584,1.898,0.781,3,0.766
						c3.884-0.054,7.769-0.05,11.654-0.004c1.259,0.015,2.347-0.236,3.445-0.915c1.902-1.177,2.384-2.567,1.127-4.355
						c-0.752-1.07-1.766-1.878-3.09-2.251c-2.442-0.684-4.836-0.758-7.227,0.107c0.086,0.441,0.103,0.6,0.148,0.752
						c0.273,0.92,1.523,1.692,0.468,2.814c-0.527,0.558-2.745,0.384-3.712-0.03c-2.228-0.953-2.882-2.95-3.269-4.99
						c-0.417-2.198-1.332-4.233-1.665-6.431h-9.27c0.691,3.272,1.36,6.442,2.063,9.769C6.366-2.435,5.796-3.312,5.112-3.958
						C2.286-6.627-1.029-7.32-4.757-6.928C-6.214-6.775-7.7-6.904-9.097-6.904c-0.42-0.68-0.327-1.216-0.121-1.913h12.01
						c-1.723-1.94-3.511-3.57-6.229-3.551c-3.637,0.025-7.273-0.01-10.91,0.02c-0.707,0.006-1.381-0.029-2.131,0.312
						c-2.425,1.103-3.437,1.699-2.421,4.994c0.756,2.452,0.974,5.08,3.103,6.859c1.42,1.186,2.944,2.246,4.384,3.409
						c0.606,0.491,1.263,0.272,1.89,0.275c4.628,0.028,9.257,0.02,13.886,0.014c2.519-0.005,3.052-0.553,3.12-3.177
						C7.497-0.156,7.486-0.65,7.486-1.553"/>
				</g>
				<g id="g470" transform="translate(333.0522,594.6105)">
					<path id="path472" inkscape:connector-curvature="0" fill="#4C504E" d="M0,0c1.638,1.64,3.218,3.167,4.727,4.76
						c0.551,0.582,1.176,0.497,1.814,0.482c6.425-0.146,12.855,0.309,19.276-0.225c1.372-0.114,1.955,0.618,2.509,3.208
						c-2.824,0-5.606,0.183-8.353-0.048c-3.188-0.27-5.347,1.578-5.104,5.148c0.273,3.994,2.134,6.941,5.283,9.183
						c0.555,0.395,1.243,0.636,2.044,0.63c6.591-0.049,13.184-0.028,20.191-0.028c-1.448-1.475-2.673-2.653-3.811-3.91
						c-0.603-0.665-1.317-0.551-2.039-0.552c-2.646-0.006-5.292,0.013-7.938-0.008c-2.612-0.02-3.641-0.93-4.271-3.965
						c2.906,0,5.757-0.028,8.607,0.01c1.925,0.026,3.524-0.703,4.645-2.184c1.121-1.48,0.871-3.376,0.579-4.993
						c-0.565-3.116-2.186-5.688-5.175-7.144c-0.718-0.35-1.446-0.601-2.308-0.598C20.671-0.197,10.665-0.209,0.66-0.203
						C0.524-0.202,0.387-0.122,0,0"/>
				</g>
				<g id="g474" transform="translate(393.3934,598.9682)">
					<path id="path476" inkscape:connector-curvature="0" fill="#4C504E" d="M0,0c2.237,1.034,3.795,2.505,4.377,5.107
						c0.716,3.212,1.923,3.948,3.488,5.654c0.93,1.012,2.17,0.422,3.266,0.533c0.802,0.081,1.618,0.016,2.47,0.016
						c-0.35-3.58-1.678-6.721-2.052-10.069c-0.182-1.627-5.291-4.405-6.23-5.419C4.91-4.618,4.446-4.565,3.968-4.565
						C-4.869-4.566-13.705-4.562-22.541-4.55c-0.15,0.001-0.3,0.116-0.559,0.222c0.575,3.514,1.455,6.999,2.205,10.491
						c0.441,2.056,2.636,3.245,4.136,4.733c0.868,0.859,2.033,0.309,3.06,0.398c0.894,0.076,1.8,0.016,3.002,0.016
						c-0.348-4.061-1.712-7.785-2.507-11.531c0.363-0.347,0.486-0.04,0.673,0.017c3.519,1.082,3.822,4.142,4.304,7.058
						c0.393,2.372,2.744,4.45,5.17,4.455c1.57,0.003,3.138-0.001,4.707-0.016c0.153-0.002,0.306-0.108,0.459-0.166
						C1.433,7.531-0.199-0.18,0,0"/>
				</g>
				<g id="g478" transform="translate(284.2904,606.5192)">
					<path id="path480" inkscape:connector-curvature="0" fill="#4C504E" d="M0,0c-1.452,0.436-2.441,0.282-3.413,0.271
						c-1.639-0.019-3.58-0.895-4.163-3.079c-0.434-1.625-1.191-3.719-0.535-5.673c3.605-0.325,5.721,0.18,7.093,3.516
						C-0.469-3.63,0-1.699,0,0 M13.364,9.214c-1.348-1.892-2.32-3.551-3.582-4.948C8.278,2.601,8.041,0.58,7.591-1.436
						C6.808-4.94,5.951-8.428,5.078-12.119H-4.8c-2.808,0-5.616-0.01-8.423,0.002c-3.358,0.016-4.97,1.795-4.447,5.106
						c0.234,1.48,0.726,2.938,1.255,4.347c0.504,1.345,0.73,1.933,1.968,2.97c0.899,0.755,0,0,3.356,2.35
						c2.102,1.289,1.874,1.158,3.085,1.121c2.062-0.065,4.129,0.013,6.193-0.03c1.195-0.025,2.069,0.149,2.95,1.377
						C3.186,7.98,2.453,7.005,3.186,7.98c0.408,0.542,0.833,1.245,1.723,1.239C7.597,9.205,10.286,9.214,13.364,9.214"/>
				</g>
				<g id="g482" transform="translate(224.5497,597.9518)">
					<path id="path484" inkscape:connector-curvature="0" fill="#4C504E" d="M0,0c5.339,0.003,7.195,3.575,7.07,8.712
						C2.026,9.524-1.095,7.096,0,0 M15.276,3.082c-0.316-1.302-1.007-2.259-2.084-2.962c-1.673-1.094-3.397-2.109-5.047-3.234
						C7.468-3.576,6.778-3.551,6.05-3.551c-3.969,0-7.948-0.173-11.905,0.05c-3.503,0.198-4.916,2.248-4.028,5.306
						c0.31,1.07,0.549,2.202,0.938,3.194c0.573,1.463,1.084,2.925,2.695,4.017c2.878,2.208,1.874,1.534,2.878,2.208
						c1.058,0.709,2.14,1.205,3.569,1.155c4.213-0.146,8.434-0.05,12.652-0.052c3.173-0.002,4.584-1.805,3.636-4.874
						C16.255,6.71,15.465,3.867,15.276,3.082"/>
				</g>
				<g id="g486" transform="translate(423.2833,606.4444)">
					<path id="path488" inkscape:connector-curvature="0" fill="#4C504E" d="M0,0c-2.214,0.577-4.06,0.822-5.667-1.122
						C-6.39-1.997-7.111-2.906-7.661-3.849c-0.494-0.849-0.902-2.023-0.053-3.069c0.962-1.184,2.276-1.786,3.688-2.12
						c0.929-0.22,1.421,0.283,1.685,1.293C-1.682-5.228-0.846-2.757,0,0 M5.826-11.052c-6.454,0-12.961-0.025-19.467,0.017
						c-1.655,0.011-3.457,2.309-3.635,4.25c-0.395,4.298,1.67,7.111,5.218,9.203c1.738,1.023,3.473,1.488,5.498,1.451
						c5.606-0.102,11.215-0.035,16.882-0.035C10.078,2.427,6.901-7.776,5.826-11.052"/>
				</g>
				<g id="g490" transform="translate(242.657,608.7507)">
					<path id="path492" inkscape:connector-curvature="0" fill="#4C504E" d="M0,0C0.46,1.183,0.893,1.543,2.026,1.539
						c5.87-0.025,11.741,0.067,17.609-0.051c2.291-0.046,3.948-1.327,3.87-3.855c-0.098-3.123-1.176-5.978-1.836-8.944
						c-0.137-0.613-0.012-1.295-0.416-1.953h-8.317c0.409,2.291,0.664,4.505,1.25,6.627c0.227,0.822,0.313,1.596,0.3,2.395
						c-0.023,1.534-0.701,2.225-2.202,2.287c-1.148,0.048-2.299,0.01-3.516,0.01C8.109-4.476,7.532-6.944,6.82-9.373
						c-0.848-2.889-3.093-4.477-6.112-4.482c-4.309-0.006-4.218-0.027-3.27,4.145C-2.247-8.32-0.708-1.817,0,0"/>
				</g>
			</g>
		</g>
	</g>
</g>
</svg>
