<?xml version="1.0" encoding="utf-8"?>
<!-- Generator: Adobe Illustrator 16.0.3, SVG Export Plug-In . SVG Version: 6.00 Build 0)  -->
<!DOCTYPE svg PUBLIC "-//W3C//DTD SVG 1.1//EN" "http://www.w3.org/Graphics/SVG/1.1/DTD/svg11.dtd">
<svg version="1.1"
	 id="Ebene_1" xmlns:rdf="http://www.w3.org/1999/02/22-rdf-syntax-ns#" xmlns:dc="http://purl.org/dc/elements/1.1/" xmlns:cc="http://creativecommons.org/ns#"
	 xmlns="http://www.w3.org/2000/svg" xmlns:xlink="http://www.w3.org/1999/xlink" x="0px" y="0px" width="566.93px"
	 height="180.921px" viewBox="0 0 566.93 180.921" enable-background="new 0 0 566.93 180.921" xml:space="preserve">
<g>
	<path fill="#4C4C4C" d="M459.742,80.08L368.58,180.919H152.56l-3.646-3.502c-10.23-9.832-20.466-19.658-30.695-29.488
		l-55.65-53.467L10.871,44.802c-2.467-2.349-5.214-4.938-7.26-7.592c-8.29-10.674-1.57-24.727,12.654-24.727h26.126H65.83
		c1.796,0,3.448-0.087,5.262,0.095c2.813,0.282,5.328,1.093,7.616,2.27c2.498-1.48,5.583-2.356,9.139-2.356h42.452
		c0.71,0,1.431-0.044,2.141-0.065c4.686-0.141,8.611,0.658,11.97,2.236c2.363-1.373,5.314-2.171,8.807-2.171h20.909h0.602
		l0.601,0.055c2.107,0.197,4.105,0.76,5.877,1.659c2.256-1.104,4.912-1.714,7.793-1.714h14.313c4.543,0,8.127-0.226,12.393,1.945
		c0.155,0.082,0.311,0.163,0.462,0.246c2.475-1.391,5.471-2.19,8.944-2.19h50.808c4.86,0,8.974,0.018,13.168,2.527
		c2.854-1.607,6.174-2.527,9.783-2.527h48.506c4.739,0,8.932,0.083,12.791,2.476c3.084-1.576,6.546-2.476,10.164-2.476h51.211
		c4.73,0,9.132,0.099,12.886,2.4c1.145-0.612,2.36-1.123,3.676-1.506c3.662-1.076,6.828-0.894,10.543-0.894h17.324
		c3.108,0,6.047,0.54,8.524,1.922c2.035-1.069,4.338-1.681,6.748-1.88l0.525-0.042h0.527h22.957c2.116,0,4.182,0.325,6.075,0.99
		c0.304-1.388,0.843-2.8,1.64-4.201l0.627-1.101l0.854-0.952c3.646-4.074,7.551-7.497,13.525-7.212h18.274
		c5.056,0,10.082,0.985,14.082,4.167c8.479,6.744,8.229,18.327,2.4,26.538c-2.273,3.198-5.67,5.797-9.486,7.535
		c-0.521,2.596-1.932,5.157-4.362,7.332c-1.414,1.268-2.793,2.578-4.187,3.876c-3.834,3.586-7.342,4.235-12.356,4.235h-23.925
		c-2.842,0-5.465-0.329-7.905-1.431L483.14,69.874c-5.754,5.885-12.205,10.149-20.978,10.207l-0.09,0.001
		C461.299,80.08,460.519,80.08,459.742,80.08"/>
	<path fill="#F57E25" d="M82.539,36.625C73.353,24.2,71.162,25.472,65.829,25.472H42.391H16.265c-3.994,0-4.883,2.99-2.669,5.963
		c1.244,1.688,3.922,4.414,6.061,6.54l51.718,51.871h50.979C110.738,74.491,97.542,56.919,82.539,36.625z M89.951,77.13
		c-1.556,0.023-4.109,0.079-5.639,0.055c-1.736-0.028-2.229-0.421-3.308-1.621L57.359,49.249c-1.063-1.184-0.938-2.53,1.024-2.532
		l7.278-0.007c0.98-0.001,1.451,0.099,3.262,2.289l21.288,25.729C91.416,76.182,90.615,77.123,89.951,77.13z"/>
	<path fill="#F57E25" d="M87.845,25.479h26.116h16.336c5.327,0,10.485-1.854,16.696,11.139l25.448,53.229H127.41l-23.684-32.743
		c-0.977-1.35-1.107-1.527-1.712-2.553c-0.528-0.894,0.136-1.907,1.549-1.995c5.75-0.055,11.499-0.11,17.248-0.165
		c2.824,0.051,3.817,0.084,5.4,2.714c4.537,6.723,8.599,13.684,13.136,20.408c0.9,1.666,2.217,1.735,4.939,1.768
		c3.146,0.038,5.026-0.345,3.094-3.572L132.46,48.785c-2.243-3.747-8.856-3.116-9.838-3.116h-22.301
		c-2.63,0-4.637,0.158-6.288-2.005l-8.877-12.236C82.989,28.438,83.849,25.479,87.845,25.479L87.845,25.479z"/>
	<path fill="#F57E25" d="M153.214,25.479c6.792,0,14.116,0,20.907,0c1.08,0.105,1.691,0.444,1.833,1.021
		c3.115,7.735,5.468,15.47,8.585,23.205c0.578,1.492,1.099,2.161,1.913,2.007c1.733,0.011,3.168,0.022,4.902,0.035
		c1.584-0.063,2.021-0.951,1.492-2.662c-2.021-7.354-4.261-14.269-6.282-21.624c-0.543-1.814,0.561-1.984,2.433-1.984h14.314
		c7.166,0,8.325-1.046,10.993,11.139c2.105,9.618,4.034,19.238,6.141,28.858c0.498,3.184-0.794,5.764-4.306,5.67l-6.695-0.023
		l5.114,18.725H189.76l-7.529-18.679c-2.896,0.002-4.413,0.003-7.31,0.004c-4.362-0.032-6.524-2.871-8.329-6.739l-15.685-33.004
		C149.483,28.43,149.219,25.479,153.214,25.479L153.214,25.479z"/>
	<path fill="#F57E25" d="M225.108,25.479h27.48h23.326c5.327,0,9.167-0.538,8.528,7.315l-0.589,7.269
		c-0.099,1.19-0.203,2.255-0.51,3.381c-0.671,2.458-2.96,2.829-5.508,2.868h-28.796c-1.307,0-1.741,0.074-1.745,0.97l-0.025,4.467
		c-0.006,1.014,0.705,0.878,2.325,0.878h22.024c1.612,0,3.184-0.076,4.767,0.304c2.952,0.708,4.545,2.445,5.363,4.669
		c0.682,1.854,0.402,3.382,0.245,5.316l-2.188,26.93h-49.454l-1.566-8.994c-0.272-1.565,0.208-2.545,2.109-2.545h26.065
		c4.525-0.654,4.676-3.78,4.219-7.263h-27.814c-2.85,0.129-4.684-0.744-5.905-2.153c-1.131-1.303-1.197-2.506-1.482-4.15
		l-5.471-31.406C219.704,28.723,221.114,25.479,225.108,25.479L225.108,25.479z"/>
	<path fill="#F57E25" d="M298.869,25.479h25.791h22.715c5.188,0,9.025-0.526,6.509,7.123l-2.554,7.743
		c-0.387,1.16-0.752,2.195-1.325,3.292c-1.255,2.393-3.571,2.754-6.063,2.792h-25.66c-1.271,0-1.705,0.072-1.938,0.944l-1.313,4.92
		c-0.261,0.986,0.475,0.855,2.05,0.855h19.067c1.567,0,3.115-0.072,4.563,0.296c2.697,0.689,3.826,2.38,4.076,4.546
		c0.207,1.805-0.438,3.293-1.063,5.175l-9.508,26.68h-47.4l1.032-8.678c0.119-1.524,0.822-2.479,2.68-2.478h19.616
		c4.563-0.638,5.479-3.682,5.889-7.072h-17.722c-6.374,0.284-9.358-3.927-8.944-9.532l2.133-28.96
		c0.332-4.488,3.482-7.649,7.371-7.649h0.002v0.003H298.869z"/>
	<path fill="#F57E25" d="M370.328,25.479h27.232h23.979c5.478,0,9.675-0.526,4.943,7.123l-4.791,7.743
		c-0.723,1.16-1.389,2.195-2.291,3.292c-1.977,2.393-4.522,2.754-7.162,2.792h-20.459c-1.344,0-3.1-0.127-3.061,0.629l0.205,4.084
		c0.043,0.858,0.929,1.521,2.595,1.521h11.157l7.805,0.053c1.717,0.012,2.43,1.576,1.621,2.928l-3.092,5.176l-7.245,11.194
		c-0.306,0.016-0.612,0.025-0.921,0.029h-21.869c-1.396,0-3.229-0.127-3.174,0.844l0.212,3.869c0.05,0.857,0.964,1.521,2.689,1.521
		h12.22l6.76,0.045l-7.457,11.521h-49.66c4.773-12.021,4.592-12.785,19.908-56.718C362.037,28.64,366.221,25.479,370.328,25.479
		L370.328,25.479z"/>
	<path fill="#F57E25" d="M505.251,25.479c-7.456,0-15.497,0-22.954,0c-1.229,0.105-2.048,0.444-2.443,1.021
		c-6.693,7.735-12.553,15.47-19.244,23.205c-1.268,1.492-2.121,2.161-2.949,2.007c-1.909,0.011-3.487,0.022-5.397,0.035
		c-1.711-0.063-1.813-0.951-0.51-2.662c5.332-7.354,10.717-14.269,16.047-21.624c1.362-1.814,0.229-1.984-1.83-1.984h-17.324
		c-7.861,0-8.691-1.046-16.779,11.139c-6.381,9.618-12.569,19.238-18.953,28.858c-1.896,3.184-1.567,5.764,2.326,5.67l8.969-0.023
		L410.67,89.846h27.225l16.172-18.679c3.18,0.002,4.846,0.003,8.023,0.004c4.803-0.032,8.381-2.871,11.998-6.739l31.188-33.005
		C508.101,28.43,509.638,25.479,505.251,25.479L505.251,25.479z"/>
	<path fill="#F57E25" d="M540.396,38.507c-1.484,1.387-2.932,2.818-4.385,4.237c-1.156,1.132-2.041,0.882-3.672,0.882h-23.923
		c-1.426,0-2.381-0.085-2.897-0.494c-0.758-0.597-0.586-1.702,0.396-2.691c3.716-3.944,7.437-7.889,11.15-11.832
		c1.775-1.632,3.43-3.309,6.813-4.407c2.067-0.67,3.899-0.827,6.041-0.827h9.854c2.434,0.228,4.672-4.551,2.074-5.461h-16.138
		c-2.123,0.151-2.729-0.605-1.82-2.276c1.75-2.042,2.776-3.29,3.643-3.186h18.722c1.891,0,4.592,0.198,6.137,1.482
		c3.311,2.743,2.307,7.848,0.063,11.148c-1.938,2.844-6.27,4.823-9.563,4.935h-12.869c-3.146,0.228-7.238,6.708-1.572,6.783h11.287
		C541.359,36.801,541.4,37.57,540.396,38.507"/>
	
		<linearGradient id="SVGID_1_" gradientUnits="userSpaceOnUse" x1="417.783" y1="-1182.7544" x2="417.783" y2="-1274.9559" gradientTransform="matrix(1 0 0 -1 -163.7246 -1098.1406)">
		<stop  offset="0" style="stop-color:#F57E25"/>
		<stop  offset="1" style="stop-color:#FCD660"/>
	</linearGradient>
	<path fill="url(#SVGID_1_)" d="M118.668,84.97c14.686,19.413,30.529,40.165,40.607,53.508
		c11.277,14.945,20.691,27.43,28.656,37.979h-30.208c-8.84-8.867-18.979-19.033-30.696-30.789L66.513,84.97H118.668z M441.603,85.56
		l-27.41-0.589l-66.154,91.487h14.856L441.603,85.56z M342.462,84.97c-4.018,10.11-13.428,33.065-36.629,91.489h28.341
		l58.456-90.332L342.462,84.97z M335.337,86.695l-48.178,0.241l-10.642,89.522h26.841L335.337,86.695z M280.02,87.225l-50.03,0.536
		l15.444,88.698h27.331L280.02,87.225z M213.643,86.495h-25.234l36.271,89.963h13.531l-23.655-86.61L213.643,86.495z M170.11,84.97
		h-46.229l66.174,91.489h23.795l-41.407-86.61"/>
</g>
</svg>
