<svg xmlns="http://www.w3.org/2000/svg" viewBox="-62 141.1 1084.2371 510.94453">
  <path fill="#a7a8a8" d="M420.0468 141.4415061l-63.3 133.3-2.1-3 61.5-130.6c1.6 0 2.9.1 3.9.3m-413.1879 130.2825l-2.1 3-63.3-133.3c1-.2 2.2-.3 3.9-.3l61.5 130.6z"/>
  <path fill="#e4e5e4" d="M416.1111 141.2000061l-61.5 130.5c-38.4-54.7-102-90.4-173.9-90.4s-135.4 35.7-173.9 90.4l-61.6-130.6h467.6c1.3 0 2.3 0 3.3.1"/>
  <path fill="#dedfde" d="M423.4 151.6440061v380.7s-.3 98.9-6.7 106.3c-3.1 3.6-58.5 8.6-114.9 10.9-60 2.6-121.1 2.5-121.1 2.5s-61.1.1-121.1-2.5c-56.4-2.4-111.8-7.3-114.9-10.9-6.4-7.5-6.7-106.3-6.7-106.3v-380.7c0-7.1 0-9.4 3.3-10.1l63.3 133.3 2.1-3c38.5-54.7 102-90.4 173.9-90.4s135.4 35.7 173.9 90.4l2.1 3 63.3-133.3c3.5.7 3.5 2.9 3.5 10.1"/>
  <path fill="#e4e5e4" d="M346.424 394.0812061c0 91.6-74.2 165.8-165.7 165.8-91.5 0-165.7-74.3-165.7-165.8 0-25.7 5.9-50.1 16.3-71.8 26.7-55.6 83.6-94 149.4-94 66.1 0 123.3 38.8 149.8 94.9 10.2 21.5 15.9 45.5 15.9 70.9"/>
  <path fill="#a7a8a8" d="M393.1968 394.0812061c0 117.5-95.1 212.7-212.5 212.7s-212.5-95.2-212.5-212.7c0-44.2 13.5-85.3 36.5-119.3l2.1-3 1.8 3.7c-23.2 33.7-36.8 74.5-36.8 118.6 0 115.5 93.6 209.2 209 209.2s208.9-93.6 208.9-209.2c0-44-13.6-84.9-36.8-118.6l1.8-3.7 2.1 3c23 34 36.4 75.1 36.4 119.3"/>
  <path fill="#a7a8a8" d="M354.5882 271.7240061l-1.8 3.7c-37.7-54.7-100.7-90.6-172.1-90.6-71.4 0-134.4 35.8-172.1 90.5l-1.8-3.7c38.5-54.7 102-90.4 173.9-90.4s135.5 35.8 173.9 90.5"/>
  <path fill="#d65725" d="M163.6196 606.1456061l17.1 36.9 17.1-36.9"/>
  <path fill="#a7a8a8" d="M-30.1145 599.2175061c-9.5-25.1-7.8-35 3.7-42.1 17-10.5 44.4 18.1 47.6 33.3 3.4 16.6-5.3 31.6-18.7 33.9-13.4 2.4-27.1-10.6-32.6-25.1"/>
  <path fill="#bbb" d="M-26.825 600.8891061c-2.8-15.3 5.8-29.5 19.2-31.8 13.4-2.3 26.5 8.2 29.3 23.5 2.8 15.3-5.9 29.5-19.3 31.8-13.3 2.3-26.4-8.2-29.2-23.5"/>
  <path fill="#c1c3c2" d="M-19.7573 599.6684061c-2-10.8 4.1-20.9 13.6-22.5 9.5-1.6 18.7 5.8 20.7 16.6s-4.2 20.9-13.7 22.5c-9.3 1.7-18.6-5.8-20.6-16.6"/>
  <path fill="#e4e5e4" d="M330.509 323.1987061c-26.5-56.2-83.7-95-149.8-95-65.8 0-122.7 38.4-149.4 94l-22.7-46.8c37.7-54.7 100.7-90.5 172.1-90.5 71.4 0 134.4 35.9 172.1 90.6l-22.3 47.7z"/>
  <path fill="#a7a8a8" d="M391.5685 599.2175061c9.5-25.1 7.8-35-3.8-42.1-16.9-10.5-44.3 18.1-47.5 33.3-3.4 16.6 5.3 31.6 18.7 33.9 13.4 2.4 27.1-10.6 32.6-25.1"/>
  <path fill="#bbb" d="M388.179 600.8891061c2.8-15.3-5.8-29.5-19.2-31.8-13.4-2.3-26.5 8.2-29.3 23.5-2.8 15.3 5.9 29.5 19.3 31.8 13.4 2.3 26.5-8.2 29.2-23.5"/>
  <path fill="#c1c3c2" d="M360.4457 616.2829061c-9.5-1.6-15.6-11.7-13.7-22.5 2-10.8 11.3-18.2 20.7-16.6 9.5 1.7 15.6 11.7 13.6 22.5-1.9 10.8-11.2 18.2-20.6 16.6m-395.5779-123.4547c0-2.8 2.3-5 5-5 2.8 0 5 2.3 5 5 0 2.8-2.3 5-5 5-2.8.1-5-2.2-5-5m-20.178-95.4433c0-2.8 2.3-5 5-5 2.8 0 5 2.2 5 5s-2.3 5-5 5c-2.7.1-5-2.2-5-5m5.0177 48.642c0-2.8 2.3-5 5-5 2.8 0 5 2.2 5 5s-2.3 5-5 5-5-2.3-5-5m15.1603-144.0474c0 2.8 2.3 5 5 5 2.8 0 5-2.3 5-5 0-2.8-2.3-5-5-5-2.8-.1-5 2.2-5 5m-15.1603 46.8703c0 2.8 2.3 5 5 5 2.8 0 5-2.3 5-5 0-2.8-2.3-5-5-5s-5 2.2-5 5m446.8787 143.9784c0-2.8-2.3-5-5-5-2.8 0-5 2.3-5 5 0 2.8 2.3 5 5 5 2.8.1 5-2.2 5-5m20.0763-95.4433c0-2.8-2.3-5-5-5-2.8 0-5 2.2-5 5s2.3 5 5 5c2.8.1 5-2.2 5-5m-5.0212 48.642c0-2.8-2.3-5-5-5-2.8 0-5 2.2-5 5s2.3 5 5 5c2.8 0 5-2.3 5-5m-15.0551-144.0474c0 2.8-2.3 5-5 5-2.8 0-5-2.3-5-5 0-2.8 2.3-5 5-5 2.8-.1 5 2.2 5 5m15.0551 46.8703c0 2.8-2.3 5-5 5-2.8 0-5-2.3-5-5 0-2.8 2.3-5 5-5 2.8 0 5 2.2 5 5"/>
  <path fill="#dedfde" d="M236.0862 350.5720061v14.3c0 3.2-2.6 5.8-5.8 5.8h-93.7c-3.2 0-5.8-2.6-5.8-5.8v-14.3c0-3.2 2.6-5.8 5.8-5.8h11.4c2.9 0 5.2-2.3 5.2-5.2v-13.5c0-16.9 13-31.5 29.9-32.2 18-.8 32.9 13.5 32.9 31.4v14.4c0 2.9 2.3 5.2 5.2 5.2h9.1c3.2-.1 5.8 2.5 5.8 5.7"/>
  <path d="M175.7092 362.3841061c-.1 0-.3.3-.4.3-.3.1-.6.2-.8.3-.3 0-.6.1-.8.1-.4 0-.8-.1-1-.3-.3-.2-.3-.1-.5-.4-.2-.3-.5-.7-.5-1v-.7c0-.2.1-.3.3-.5.2-.2.3-.4.6-.6.3-.1.5-.2.9-.3.2-.1.5-.1 1-.2.3 0 .8 0 .9-.1.2 0 .3 0 .5-.1.1-.1.3-.1.4-.2.1-.1.2-.1.4-.3v2s0 .9-.3 1.3c-.4.5-.7.7-.7.7m-4.6-6.8c.5-.2.8-.3 1.1-.5.3-.1.6-.2 1.1-.3.4-.1.7-.1 1.2-.1.4 0 .9.2 1.3.3.3.1.6.4.7.7.2.2.3.3.3.7v.3c0 .1-.1.2-.2.3-.1.1-.2.3-.3.3l-.3.3c-.2.1-.3.1-.5.2s-.4 0-.7.1c-.9.1-1.5.2-1.9.3-.4.1-.6.2-.9.3-.3.1-.4.3-.7.5-.3.2-.3.4-.5.6-.1.2-.3.4-.3.7 0 .3-.1.6-.1.9 0 .5.1.9.3 1.4.2.4.6.8 1.1 1 .5.2 1.1.5 1.9.5h.8c.3 0 .5-.1 1-.2.2-.2.5-.3.8-.6l.5-.5v1.1h1.9c-.2-.8-.3-.9-.2-1.4 0-.9-.1-3 0-4.1v-1.3c0-.4-.2-1-.3-1.4-.1-.3-.3-.6-.6-.9-.3-.3-.9-.7-1.3-.9-.5-.1-.9-.2-1.4-.2-.5 0-1.3 0-1.8.1s-.9.2-1.7.4c-.3.7-.3 1.1-.3 1.4m39.4281 6.7034c-.1 0-.3.3-.5.3-.3.1-.5.2-.7.3-.3 0-.6.1-.8.1-.4 0-.8-.1-1.1-.3-.3-.2-.3-.1-.5-.4-.2-.3-.5-.7-.5-1v-.7c.1-.2.1-.3.3-.5.2-.2.3-.4.6-.6.2-.1.5-.2.9-.3.2-.1.5-.1 1-.2.2 0 .8 0 .9-.1.1 0 .3-.1.4-.1.2-.1.3-.1.4-.2.1-.1.2-.1.4-.3v2s0 .8-.3 1.3c-.2.5-.5.7-.5.7m-4.6-6.8c.4-.2.8-.3 1.1-.5.3-.1.7-.2 1.1-.3.4-.1.8-.1 1.2-.1.4 0 1 .2 1.3.3.3.1.6.4.8.7.2.2.2.4.3.8v.3c0 .1-.1.1-.2.2s-.2.3-.3.3c-.1.1-.2.2-.4.3-.1.1-.3.1-.5.2s-.4 0-.7.1c-.9.1-1.6.2-1.9.3-.4.1-.6.2-.9.3-.3.1-.4.3-.7.5-.3.2-.3.3-.5.6-.1.2-.2.5-.3.7-.1.3-.2.6-.2.9 0 .5.1.9.3 1.4.3.4.6.8 1.1 1 .5.2 1.1.5 2 .5h.8c.3 0 .6-.1 1-.2.2-.2.6-.3.9-.6l.5-.5v1.1h1.9c-.2-.8-.3-.9-.3-1.4v-5.4c0-.4-.2-1-.3-1.4-.1-.3-.3-.6-.6-.9-.2-.3-.8-.7-1.3-.9-.5-.1-.8-.2-1.4-.2-.5 0-1.3.1-1.8.1-.6.1-.9.2-1.7.4-.3.6-.3 1.1-.3 1.4m-25.922 8.4043l.2-.7v-2l-.1-5.7c0-.5-.3-1.1-.3-1.4.3 0 .9-.1 1.2-.2.2-.1.5-.1.7-.1v1.3c.2-.4.6-.4.7-.6.1-.2.3-.2.6-.4s.4-.2.8-.3c.4 0 .7-.1 1.1-.1.3 0 .5 0 .8.1.3 0 .5.2.7.3.2.1.4.3.6.4.2.2.3.3.5.6 0 .1.4-.5 1-.8.6-.3 1.2-.6 1.9-.6.4 0 1.4 0 1.8.2.4.2 1 .4 1.3.7.3.3.3.4.6.7.3.3.4 1.1.4 1.4v6.2c0 .5.1.5.2 1h-2c.3-.8.2-.6.2-1v-5.7c0-.4-.1-.9-.2-1.1-.1-.2-.5-.6-.6-.8-.2-.2-.4-.2-.7-.3-.2-.1-.6-.1-.9-.1-.2 0-.6 0-.8.1-.2.1-.4.1-.6.3-.2.1-.3.2-.5.4-.1.2-.3.4-.4.6-.1.2-.1.6-.1 1v5.8l.3.9h-2.1c0-.9.1-.1.1-1v-5.9c0-.3-.1-.5-.1-.7-.1-.2-.2-.6-.4-.7-.2-.2-.6-.6-.8-.6-.2-.1-.6-.2-.9-.2-.3 0-.5 0-.8.2-.3.1-.5.2-.7.4-.2.2-.4.3-.6.6-.1.3-.3.3-.3.8-.1.5-.1 2.6-.1 3.9v2.2c0 .4.2.6.2 1h-1c0-.1-.5-.1-.9-.1m24.1463-1.8338c0 .1 0 .3-.1.6 0 .3-.1.6-.2.9-.4.1-.9.3-1.3.3s-1.5.1-1.8.1c-.6 0-1.4-.1-2-.3-.6-.2-1.3-.6-1.7-1.1-.4-.4-.9-.9-1.2-1.6-.2-.7-.4-1.3-.4-2 0-1 .1-1.4.4-2.3.3-.9 1-1.6 1.7-2.1s2.2-.9 3.4-.9c.9 0 1.9.1 2.7.4 0 .6.1.9.1 1.3-.6-.2-1.2-.5-1.5-.6-.4 0-.9-.1-1.1-.1-.6 0-1.7.3-2.1.5-.4.2-.8.5-1.1.9-.3.4-.5.9-.6 1.5-.1.6-.2.6-.1 1.2 0 .8.2 1.4.4 2 .3.6.6 1.1 1.2 1.4.5.3 1.1.6 1.8.6.7.2 2.1.1 3.5-.7m10.3751 1.4422l-.2-.7c0-.1-.2-.5-.3-1 1.1.6 2.3 1.1 3.2 1.1.4 0 .9-.2 1.2-.3.3-.1.6-.3.8-.6.1-.2.3-.5.3-.7 0-.1.1-.3 0-.5 0-.1-.1-.5-.2-.6l-.6-.6c-.2-.1-.6-.4-1.3-.6-.6-.3-1.4-.5-1.7-.8-.3-.2-.8-.5-1-.8-.2-.3-.3-.5-.5-.8-.1-.3 0-.6 0-.9 0-.4.3-.9.5-1.2.3-.4.7-.6 1.2-.9.5-.2 1.1-.3 1.8-.3.8 0 1.5.2 2.4.3 0 .5-.1.9 0 1.3-.6-.4-1.4-.7-2.1-.7-.4 0-.8.1-1.1.2-.3.1-.7.4-.9.6-.1.2-.2.4-.2.6 0 .2 0 .4.1.6 0 .1.4.6.6.6.3.1.2.1.4.2.3 0 1 .4 1.7.7.7.3 1.4.8 1.6 1 .2.2.5.5.6 1 .1.3.2.6.2.8 0 .4-.1.4-.1.7 0 .5-.1.6-.3 1-.3.4-.7.8-1.3 1-.6.2-1.1.4-1.8.4h-1.3c-.4 0-.7-.2-1-.2-.1.3-.3.3-.7.1m12.4462-.8177c-.1.3-.2.5-.2 1.1-.4.1-.6.2-.9.2h-.7c-.6 0-1 0-1.3-.2-.3-.2-.6-.4-.8-.7-.2-.3-.3-1.2-.3-1.8v-6.3h-1.2v-.9h1.2v-1.7c0-.3-.2-.6-.3-.8.6-.1 1.4-.4 1.8-.5 0 1 .1 2.4.1 3h2.6v1l-.7-.1h-1.9v6.1c0 .5.1 1.1.2 1.4.1.3.3.3.5.5.2.1.4.1.6.1h.5c.2-.2.3-.3.8-.4m-58.0232-.5624c0 .4-.2.8-.2 1.4-.6.2-1.5.5-2 .6h-1.3c-.8 0-1.5-.2-2.2-.4-.6-.2-1.2-.6-1.7-1.1-.5-.5-.9-1.1-1.1-1.7-.2-.7-.3-1.3-.3-2 0-1 .1-1.4.4-2.3.3-.9 1-1.5 1.7-2s1.5-.7 2.6-.7c.6 0 1.2 0 1.7.2s.9.4 1.3.7c.3.4.6.8.9 1.3.2.6.3.6.3 1.2.1.3.1.8.1 1h-7.3v.7c0 .7.1 1.4.4 2 .3.6.7 1 1.2 1.3.6.3 1.2.6 1.9.6 1 .1 2.4-.2 3.6-.8m-6.7-4.8h5.3v-.6c0-.2-.1-.4-.3-.7-.1-.3-.3-.4-.6-.6-.2-.2-.4-.3-.7-.5-.3-.1-.7-.1-1-.1-.3 0-.6.1-.9.2-.3.1-.6.3-.8.5-.3.2-.4.4-.6.6-.2.3-.3.5-.3.8v.1c-.1 0-.1 0-.1.3m-8.2207 6.8667c0-.2.2-.5.2-.6 0-3.2 0-5.7-.1-7.7v-.9l-.3-.7c.3 0 .7-.1.9-.1.2 0 .8-.1 1-.1v1.8c.2-.4.3-.4.4-.6.1-.2.4-.5.6-.6.2-.1.4-.3.7-.4.3-.1.5-.2.8-.2h1.1c.6.1.9.2 1.1.3 0 .3-.4 1.4-.4 1.4s-.5 0-.9-.2c-.4-.1-.6-.1-.9-.1-.3 0-.8.1-1.1.2-.3.1-.6.3-.8.6-.2.3-.3.6-.5.9-.1.3-.1 0-.1.5v6.1l.2.6h-1c-.1-.3-.6-.2-.9-.2m-15.0206.069l.3-1v-12.1c0-.4-.2-.7-.4-1.4h6.4c1.1.1 1.4.1 2.1.3.6.1 1.6.7 2.1 1.1.5.3 1 .7 1.4 1.3.4.6.6.7.8 1.4.3.9.6 1.8.6 2.7.1 1.2 0 2.1-.4 3.2s-1.1 1.9-1.9 2.6c-.7.8-1.5 1.2-2.5 1.4-.9.2-2 .4-3.2.4h-2.8l-2.5.1zm2.5-1.2h2.2c.6 0 1.2 0 1.8-.1.6-.1 1.1-.3 1.5-.5.5-.2.9-.4 1.4-.9.5-.4.8-.9 1.1-1.4.3-.6.5-1.1.6-1.8.1-.7.2-1.4.2-2 0-.8-.3-1.4-.5-2-.2-.7-.6-1.5-1.1-2-.6-.5-1-.8-1.7-1-.6-.2-1.5-.4-2.5-.4-.6 0-1.5 0-1.8.1-.4 0-.8.1-1.3.1l.1 11.9z"/>
  <path fill="#cf3311" d="M185.0503 329.0854061c0-1.7-.8-1.5-1.4-1.6-.6-.1-2 .2-3.3-.1-1.5-.3-2.3-2.4-2.1-3.4.8-2.9 2.7-3.3 4-3.2 1 0 2.9.1 5.3 2.2 1.1.9 1.7 3.4 1.7 4.8 0 1.7 0 3.7-1.1 4.8-1.7 1.8-6 3.3-8.5 3.2-9.7-1-9.3-10.1-9.3-10.1s-.8-3.9 2.5-8.1c.3-.3.7-1.1 1-1.5.3-.4.6-.5 1-.8.4-.3.8-.5 1.2-.8 1.1-.6 2.2-1.2 3.3-1.6 1.7-.5 3.3-.6 4.6-.6 4 .1 8.3 2.3 10.5 5.7.3.5.6.8.9 1.2.6.4.9 1.2 1.3 2.2.5 1.4.3.9.9 3.1.4 1.6.6 2.6.6 3.6 0 .5.1 1 .1 1.5 0 1.7.3 2.2-.1 3.5-.6 2.3-2 4.6-3.2 5.7-2.1 2.1-4.1 2.7-5.2 3.3-1.1.6-1.6.7-3.1 1.2-1.5.6-2.3.6-4.9.6-2.6 0-4.7-.2-5.4-.3-4.6-1.3-6.3-2.1-8.3-3.8-5.2-4.1-6.3-12.1-6.3-12.1s-.6-4.1.3-8.3c.5-2.3 2.8-6.4 4.1-8 1.1-1.4 3.7-3.4 5.2-4.4 1.5-1 3.7-2.3 6.2-3 1.2-.4 2.2-.6 5-.7 3.2-.1 8 .7 10.8 1.6 2.9.9 5.6 2.8 7 4.3 1.4 1.5 4.5 6.1 5 7 .6.9 2 5.9 2.2 6.6.1.6.4 2.9 2.6 2.8 2-.2 1.4-2.5 1.4-2.9-.1-.4-.8-4.3-1.1-5.4-.3-1.1-1.9-3.9-2.3-4.4-.2-.3-1.6-2.7-3-4.5-1.1-1.4-2.1-2.7-3.2-3.4-2.2-1.4-4.9-2.6-4.9-2.6s-4.7-1.6-7.2-1.9c-2.1-.3-4.4-.7-8.2-.5-3.8.3-5.9 1.3-7.3 1.8-1.4.6-4.5 2-6.9 3.9-2.3 1.9-1.6 1-2.9 2.4-1.2 1.4-1.6 1.8-2.5 3-.9 1.2-2.7 4.8-3.4 7.2-.3 1-.7 2.5-.9 3.9-.2 1.2-.2 2.4-.1 3.4.2 2.1.1 2.1.1 2.1s1 4 1.5 5.7c.6 1.6 1.3 3.9 4.6 7.6 3.3 3.6 6.3 4.6 7.5 5.1 1.1.4 5 1.8 10.1 1.9 5.9.1 7.5-1.2 8.5-1.6 1.1-.5 4.7-2 7.6-4.7 2.9-2.7 3.8-5.7 3.9-5.9.8-2.3 1.1-6 .3-9.5-.5-2.4-.9-4.5-1.4-6-.9-2.6-1.9-4-2.6-5.1-.7-1.1-2.8-2.7-4.1-3.5-.6-.4-1.2-.8-2.1-1.2-.9-.4-2-.6-3.3-.9-1.2-.3-2.9-.6-4.2-.7-1.2-.1-2.2 0-2.6 0-.6 0-2.6.3-5.4 1.8-1.5.8-3.2 1.8-5 3.6-.6.6-1.1 1.3-1.5 1.9-4 5.5-2.6 11.7-2.6 11.7s.7 8.3 8 10.7c2.6.8 4.9.9 6.8.6 3.2-.4 5.5-1.7 7.1-2.6 1.6-.8 2.8-2.2 3.4-3.7.6-1.4.8-2.8.7-4 0-.7 0-1.6-.2-2.6-.2-2.6-1-4.9-3.1-6.7l-.6-.4c-.4-.3-.7-.4-1-.6-1.8-.9-3.5-1.3-6-1.4-.9 0-2.2.2-2.9.6-2.9 1.4-4.5 4-4.3 7.3.1 3.1 3.1 4.8 3.6 5.3-.1 0 6.4 1.6 6.6-1.3"/>
  <path fill="#c1c3c2" d="M160.5617 599.4707061h40.3l21-45.4c-13.2 3.4-26.9 5.1-41.1 5.1-14.2 0-28-1.8-41.1-5.1l20.9 45.4"/>
  <path fill="#8c8c8c" d="M-17.5422 596.5235061c.2.1.4.1.7.1 1.1 0 1.8-.5 1.8-1.5 0-.9-.7-1.4-1.7-1.4-.4 0-.7 0-.9.1v2.7zm-.9-3.4c.4-.1 1-.1 1.7-.1.9 0 1.5.2 2 .6.4.3.6.8.6 1.5 0 .6-.2 1.1-.5 1.5-.5.5-1.3.8-2.1.8-.3 0-.5 0-.7-.1v2.8h-1v-7zm6.0449 3.4329c0 1.5.8 2.8 2.2 2.8 1.4 0 2.2-1.3 2.2-2.9 0-1.4-.7-2.9-2.2-2.9-1.4.1-2.2 1.5-2.2 3m5.5-.1c0 2.4-1.5 3.7-3.3 3.7-1.9 0-3.2-1.4-3.2-3.6s1.4-3.7 3.3-3.7c1.9.1 3.2 1.5 3.2 3.6m2.3098 3.6299l-1.8-7h1l.8 3.5c.2.9.4 1.7.5 2.4.1-.7.3-1.5.6-2.4l.9-3.5h.9l.9 3.6c.2.8.4 1.7.5 2.4.1-.8.3-1.5.6-2.4l.9-3.5h.9l-2 7h-.9l-.9-3.7c-.2-.9-.4-1.6-.5-2.3-.1.7-.3 1.4-.5 2.3l-1 3.7h-.9zm11.2317-3.3701h-2.7v2.5h3v.8h-3.9v-7h3.8v.8h-2.9v2.2h2.7v.7zm2.4155-.3505h.9c1 0 1.6-.5 1.6-1.3 0-.9-.7-1.3-1.6-1.3-.4 0-.7 0-.9.1v2.5zm-.9-3.2c.5-.1 1.1-.1 1.7-.1 1 0 1.6.2 2 .6.4.3.6.8.6 1.3 0 .9-.6 1.5-1.3 1.8.5.2.9.7 1 1.4.2 1 .4 1.7.5 1.9h-.9c-.1-.2-.3-.8-.5-1.7-.2-1-.6-1.3-1.4-1.4h-.9v3h-.9l.1-6.8zm344.3736 3.3874c0 1.6.9 3.1 2.5 3.1s2.5-1.5 2.5-3.2c0-1.5-.8-3.1-2.5-3.1s-2.5 1.5-2.5 3.2m6-.1c0 2.7-1.6 4.1-3.6 4.1s-3.5-1.6-3.5-3.9c0-2.4 1.5-4 3.6-4 2.1-.1 3.5 1.5 3.5 3.8m2.2137.0737c.2.1.5.1.8.1 1.2 0 1.9-.6 1.9-1.6s-.7-1.5-1.8-1.5c-.4 0-.8 0-.9.1v2.9zm-.9-3.7c.5-.1 1.1-.2 1.9-.2 1 0 1.7.2 2.2.6.4.4.7.9.7 1.6 0 .7-.2 1.2-.6 1.6-.5.6-1.4.8-2.4.8-.3 0-.6 0-.8-.1v3.1h-1v-7.4zm10.059 3.9722h-3v2.8h3.3v.8h-4.3v-7.7h4.2v.8h-3.2v2.4h3v.9zm1.6107 3.6107v-7.7h1.1l2.5 3.9c.6.9 1 1.7 1.4 2.5-.1-1-.1-2-.1-3.2v-3.2h.9v7.7h-1l-2.4-3.9c-.5-.9-1.1-1.7-1.4-2.6.1 1 .1 1.9.1 3.2v3.3h-1.1z"/>
  <path fill="#cdcdcd" d="M500.7811 480.81690983c0-94.5263856 76.67001422-171.19639983 171.19639983-171.19639983 94.5263856 0 171.19639983 76.67001422 171.19639983 171.19639983 0 94.5263856-76.67001422 171.19639983-171.19639983 171.19639983-94.5263856 0-171.19639983-76.67001422-171.19639983-171.19639983zm171.19639983-25.3485552c-14.23514922 0-25.72316438 11.36314544-25.72316438 25.47342493 0 14.1102795 11.48801516 25.47342492 25.72316438 25.47342492s25.72316438-11.36314543 25.72316438-25.47342492c0-14.1102795-11.4880151-25.47342492-25.7231643-25.47342492z"/>
  <path fill="#020202" d="M505.90075893 480.81690983c0-91.77925155 74.42235908-166.0767409 166.0767409-166.0767409 91.77925155 0 166.0767409 74.42235908 166.0767409 166.0767409 0 91.77925155-74.42235908 166.0767409-166.0767409 166.0767409-91.77925155 0-166.0767409-74.29748935-166.0767409-166.0767409zm165.57726198-25.22368546c-14.2351492 0-25.7231643 11.48801516-25.7231643 25.72316438s11.4880152 25.72316438 25.7231644 25.72316438c14.2351493 0 25.7231644-11.48801516 25.7231644-25.72316438s-11.4880151-25.72316438-25.7231644-25.72316438z"/>
  <path fill="#030303" d="M737.1594989 480.81690983V623.0435323c-19.85428708 9.1154903-41.9562293 14.23514922-65.18199907 14.23514922-23.22576978 0-45.327712-5.11965893-65.18199906-14.23514922V480.81690983c0 35.96248224 29.21951682 65.18199906 65.18199906 65.18199906s65.18199906-29.2195169 65.18199906-65.1819991z"/>
  <path fill="#fff" d="M655.86930466 596.19654035c.62434865-.24973946 1.12382757-.49947892 1.49843676-.62434865.3746092-.12486973.8740881-.24973946 1.49843676-.3746092.62434865-.12486972.99895784-.12486972 1.6233065-.12486972.62434864 0 1.2486973.24973946 1.7481762.3746092.3746092.12486972.7492184.62434864.99895785.8740881.24973946.24973946.3746092.49947892.3746092.8740881v.49947893c0 .1248698-.12486974.2497395-.24973947.3746092-.12486973.1248698-.24973946.3746092-.3746092.499479-.12486972.1248698-.24973945.2497395-.4994789.3746092-.24973947.1248697-.49947893.1248697-.7492184.2497395-.24973945.1248698-.62434864 0-.8740881.1248698-1.12382757.1248698-2.1227854.2497395-2.62226433.3746092-.49947892.1248698-.8740881.2497395-1.2486973.4994789-.3746092.1248698-.62434865.3746092-.8740881.6243487-.3746092.2497395-.49947893.4994789-.62434866.7492184-.12486973.2497395-.3746092.6243487-.49947892.8740881 0 .3746092-.12486973.7492184-.12486973 1.2486973 0 .7492184.12486973 1.2486973.49947892 1.873046.24973946.6243487.8740881 1.1238276 1.49843676 1.3735671.62434865.2497395 1.49843676.6243487 2.62226433.6243487h1.12382757c.3746092 0 .74921838-.1248697 1.37356703-.2497394.24973946-.2497394.74921838-.4994789 1.12382757-.7492184l.62434865-.6243486v1.4984368h2.4973946c-.24973946-.9989578-.3746092-1.1238276-.24973946-1.873046 0-1.2486973-.1248698-3.9958313 0-5.6191378v-1.7481762c0-.4994789-.2497395-1.373567-.3746092-1.8730459-.1248698-.4994789-.499479-.7492184-.7492184-1.2486973-.3746092-.3746092-1.1238276-.9989578-1.7481762-1.1238276-.7492184-.1248697-1.1238276-.2497394-1.873046-.2497394s-1.7481762 0-2.4973946.1248698c-.7492184.1248697-1.2486973.2497395-2.2476552.6243487-.6243487.6243487-.6243487 1.373567-.6243487 1.7481762zm6.2434865 9.24036002c-.12486973 0-.49947892.3746092-.62434865.3746092-.4994789.12486972-.7492183.24973945-.9989578.37460918-.3746092 0-.7492184.12486973-1.1238275.12486973-.6243486 0-.9989578-.12486973-1.373567-.3746092-.3746092-.24973945-.3746092-.12486972-.7492183-.4994789-.2497394-.3746092-.6243486-.87408812-.6243486-1.37356704v-.99895784c0-.24973946.1248698-.49947892.3746092-.74921838l.7492184-.74921838c.3746092-.12486973.6243487-.24973946 1.2486973-.49947892.2497395-.12486973.7492184-.12486973 1.3735671-.24973946.3746092 0 .9989579 0 1.2486973-.12486973.2497395 0 .4994789 0 .6243487-.12486973.1248698-.12486973.3746092-.12486973.4994789-.24973946.1248698-.12486973.2497395-.12486973.6243487-.49947892v2.74713406s0 1.12382757-.4994789 1.74817622c-.2497394.74921838-.7492184 1.12382757-.7492184 1.12382757zm41.08214117-9.49009947c.62434865-.24973947.99895784-.49947893 1.49843676-.62434866.3746091-.12486973.8740881-.24973946 1.4984367-.3746092.6243486-.12486972.9989578-.12486972 1.6233065-.12486972s1.373567.24973946 1.7481762.3746092c.4994789.12486972.7492184.62434864.9989578.8740881.2497394.24973946.2497394.62434865.3746092.99895784v.49947892c0 .12486973-.1248698.12486973-.2497395.24973946-.1248698.12486973-.2497395.3746092-.3746092.49947892-.1248698.12486973-.2497395.24973946-.4994789.3746092-.1248698.12486972-.3746092.12486972-.6243487.24973945-.2497395.1248698-.6243487 0-.8740881.1248698-1.2486973.1248698-2.1227854.2497395-2.6222644.3746092-.499479.1248697-.8740881.2497395-1.2486973.4994789-.3746092.1248698-.6243487.3746092-.8740881.6243487-.3746092.2497395-.499479.499479-.6243487.7492184-.1248698.2497395-.2497395.6243487-.3746092.9989579-.1248698.3746092-.2497395.7492184-.2497395 1.2486973 0 .7492184.1248697 1.2486973.4994789 1.873046.3746092.6243487.8740881 1.1238276 1.4984367 1.3735671.7492183.2497395 1.4984367.6243487 2.6222643.6243487h.9989578c.3746092 0 .7492183-.1248697 1.373567-.2497395.2497394-.2497394.7492183-.4994789 1.1238275-.7492184.4994789-.3746092.7492184-.6243486.7492184-.6243486v1.4984368h2.4973946c-.2497395-.9989578-.3746092-1.1238275-.3746092-1.8730459v-7.2424444c0-.4994789-.2497394-1.373567-.3746092-1.8730459-.1248698-.4994789-.499479-.8740881-.7492184-1.2486973-.2497395-.3746092-1.1238276-.9989578-1.7481763-1.1238276-.6243487-.1248697-1.1238276-.3746091-1.873046-.3746091s-1.7481762.1248697-2.4973946.1248697c-.7492184.1248697-1.2486973.2497395-2.2476551.4994789-.6243487.7492184-.6243487 1.373567-.6243487 1.7481762zm6.2434865 9.36522974c-.12486973 0-.49947892.3746092-.62434865.3746092-.3746092.12486972-.74921838.24973945-.99895784.37460918-.3746092 0-.74921838.12486973-1.12382757.12486973-.62434865 0-1.12382757-.12486973-1.49843676-.3746092-.3746091-.24973945-.3746091-.12486972-.6243486-.4994789-.2497394-.3746092-.7492184-.87408812-.7492184-1.37356704v-.9989578c.1248698-.2497394.1248698-.4994789.3746092-.6243486.2497395-.2497394.4994789-.4994789.8740881-.7492184.2497395-.1248697.6243487-.2497394 1.2486973-.4994789.2497395-.1248697.7492184-.1248697 1.3735671-.2497394.2497395 0 .9989579 0 1.2486973-.1248697.1248698 0 .3746092-.1248697.6243487-.1248697.2497395-.1248697.3746092-.1248697.6243487-.2497394.1248698-.1248697.2497395-.1248697.499479-.4994789v2.7471341s0 1.1238276-.4994789 1.7481762c-.3746092.6243487-.7492184.9989579-.7492184.9989579zm-41.45675036 2.1227854l.24973946-.99895783v-2.747134l-.12486973-7.866793c0-.7492183-.3746092-1.4984367-.3746092-1.8730459.3746092 0 1.2486973-.1248697 1.6233065-.2497394.24973946-.1248697.74921838-.1248697.99895784-.1248697v1.7481762c.24973946-.4994789.74921838-.6243486.99895784-.8740881.12486973-.2497394.3746092-.2497394.74921838-.6243486.3746092-.2497394.62434865-.2497394.99895784-.3746092.62434865 0 .99895784-.1248697 1.49843676-.1248697.3746092 0 .74921838 0 .99895784.1248697.3746092 0 .74921838.2497395.99895784.3746092.24973946.1248697.62434865.3746092.74921838.4994789.24973946.2497395.49947892.3746092.74921838.7492184 0 .1248697.62434865-.6243486 1.37356703-.9989578.74921838-.3746092 1.6233065-.7492184 2.4973946-.7492184.62434865 0 1.87304595 0 2.4973946.2497395.62434865.2497395 1.37356703.4994789 1.74817622.8740881.3746092.3746092.49947892.6243487.74921838.8740881.3746092.3746092.49947892 1.4984368.49947892 1.873046v8.3662719c0 .6243487.12486973.7492184.24973946 1.373567h-2.6222643c.3746092-1.1238275.2497395-.7492184.2497395-1.373567v-7.7419233c0-.4994789-.1248697-1.1238275-.2497394-1.4984367-.1248697-.2497394-.6243486-.8740881-.8740881-1.1238275-.2497394-.2497395-.6243486-.2497395-.8740881-.3746092-.2497394-.1248697-.8740881-.1248697-1.2486973-.1248697-.2497394 0-.7492183 0-.9989578.1248697-.2497394.1248697-.4994789.1248697-.7492184.3746092-.2497394.1248697-.4994789.2497394-.7492184.4994789-.1248697.2497395-.3746092.4994789-.4994789.8740881-.1248697.2497395-.1248697.8740881-.1248697 1.373567v7.7419233l.3746092 1.2486973h-2.8720038c0-1.1238275.1248698-.1248697.1248698-1.373567v-7.866793c0-.4994789-.1248697-.6243486-.1248697-.9989578-.1248697-.2497395-.2497394-.7492184-.4994789-.9989578-.2497394-.2497394-.7492184-.7492184-1.1238275-.8740881-.2497394-.1248697-.7492184-.2497394-1.1238276-.2497394-.4994789 0-.7492184 0-1.1238276.2497395-.3746092.1248697-.7492183.2497395-.9989578.6243487-.2497394.2497395-.4994789.3746092-.7492184.7492184-.1248697.499479-.3746092.3746092-.3746092 1.1238276-.1248697.7492184-.1248697 3.4963524-.1248697 5.3693984v2.9968735c0 .6243487.2497395.7492184.2497395 1.373567h-1.373567c0 .3746092-.7492184.3746092-1.2486973.3746092zm32.840739-2.4973946c0 .12486974 0 .49947893-.12486974.8740881 0 .3746092-.12486973.7492184-.24973946 1.1238276-.62434865.12486972-1.2486973.3746092-1.74817622.3746092-.49947892 0-1.99791568.1248697-2.4973946.1248697-.8740881 0-1.87304595-.12486972-2.62226433-.3746092-.74921838-.24973944-1.74817622-.8740881-2.37252487-1.49843674s-1.2486973-1.2486973-1.6233065-2.1227854c-.24973945-.87408812-.4994789-1.74817623-.4994789-2.74713407 0-1.37356703.12486972-1.87304595.4994789-3.12174325.3746092-1.2486973 1.37356704-2.1227854 2.24765515-2.8720038.8740881-.74921837 2.99687352-1.2486973 4.62018-1.2486973 1.12382758 0 2.4973946.12486974 3.7460919.49947893 0 .8740882.12486974 1.2486973.12486974 1.7481763-.74921838-.2497394-1.6233065-.6243486-1.99791568-.7492184-.49947892 0-1.12382757-.1248697-1.6233065-.1248697-.74921837 0-2.24765513.3746092-2.87200378.6243487s-.99895784.7492184-1.49843676 1.2486973c-.3746092.4994789-.62434865 1.2486973-.74921838 1.9979157-.12486973.7492184-.24973946.7492184-.12486973 1.6233065 0 .9989578.2497395 1.9979157.499479 2.7471341.3746092.7492184.8740881 1.6233065 1.6233065 1.9979157.7492184.4994789 1.6233065.8740881 2.4973946.8740881.9989579.1248698 2.7471341.1248698 4.7450498-.9989578zm14.11027948 1.9979157l-.24973946-.8740881c0-.12486975-.2497395-.7492184-.3746092-1.37356705 1.6233065.8740881 3.2466129 1.4984367 4.3704405 1.4984367.6243486 0 1.2486973-.2497395 1.6233065-.3746092.3746092-.1248697.7492183-.4994789.9989578-.7492184.1248697-.2497395.3746092-.6243487.4994789-.8740881 0-.1248698.1248697-.499479 0-.6243487 0-.1248698-.1248698-.7492184-.2497395-.8740881l-.7492184-.7492184c-.2497395-.1248697-.8740881-.4994789-1.7481763-.8740881-.7492184-.3746092-1.873046-.7492184-2.3725249-.9989579-.3746092-.2497395-1.1238276-.7492184-1.3735671-.9989579s-.4994789-.7492184-.6243487-.9989579c-.1248698-.3746092 0-.8740881 0-1.2486973 0-.6243487.3746092-1.1238276.7492183-1.6233065.3746092-.6243487.8740881-.8740881 1.6233065-1.1238276.7492183-.2497395 1.4984367-.3746092 2.3725248-.3746092.9989578 0 1.9979157.2497394 3.246613.4994789 0 .7492184-.1248698 1.2486973 0 1.7481762-.8740881-.6243487-1.873046-.8740881-2.8720038-.8740881-.4994789 0-.9989579.1248697-1.4984368.2497394-.4994789.1248697-.8740881.6243486-1.1238276.8740881-.1248697.2497394-.2497395.4994789-.2497395.8740881 0 .2497394 0 .6243486.1248697.7492183 0 .1248697.6243486.7492184.8740881.8740881.3746092.1248697.2497394.1248697.6243486.2497395.3746092 0 1.3735671.6243486 2.2476552.9989578.9989578.4994789 1.8730459.9989578 2.1227854 1.373567.2497394.2497394.6243486.7492184.8740881 1.373567.1248697.3746092.2497395.7492184.2497395.9989578 0 .4994789-.1248698.6243486-.1248698.8740881 0 .6243486-.1248698.8740881-.4994789 1.373567-.3746092.6243486-.9989579 1.1238275-1.7481763 1.373567-.7492184.2497394-1.4984368.4994789-2.3725249.4994789h-1.7481762c-.4994789 0-.9989578-.2497395-1.373567-.2497395-.4994789-.4994789-.7492184-.4994789-1.2486973-.6243486zm16.85741355-1.12382758c-.12486973.49947892-.24973946.74921838-.24973946 1.49843676-.62434865.12486973-.74921838.24973946-1.12382757.24973946h-.8740881c-.7492184 0-1.37356704 0-1.74817623-.24973946-.49947892-.24973946-.74921838-.49947892-.99895784-.99895784-.24973946-.49947892-.49947892-1.6233065-.49947892-2.37252487v-8.6160113h-1.6233065v-1.2486973h1.6233065v-2.3725248c0-.3746092-.24973946-.7492184-.3746092-.9989578.7492184-.1248697 1.9979157-.4994789 2.4973946-.6243486 0 1.3735671.12486974 3.246613.12486974 3.9958314h3.49635244v1.3735671l-.99895784-.1248697h-2.4973946v8.2414022c0 .7492184.12486973 1.6233065.24973946 1.873046.12486973.3746092.3746092.4994789.62434865.6243487.24973946.1248698.62434865.1248698.8740881.1248698h.7492184c0-.1248697.12486972-.2497395.74921837-.3746092zm-88.03315965-7.36731406h7.24244434v-.7492184c0-.24973945-.1248698-.62434864-.3746092-.8740881-.1248698-.3746092-.499479-.62434865-.7492184-.74921838-.2497395-.24973946-.6243487-.49947892-.9989579-.62434865-.3746092-.12486973-.8740881-.12486973-1.3735671-.12486973-.4994789 0-.8740881.12486973-1.2486973.24973946-.4994789.12486973-.7492184.3746092-1.1238276.62434865-.3746092.24973946-.6243487.49947892-.7492184.8740881-.2497395.3746092-.3746092.7492184-.499479.99895785v.12486973s0-.12486973-.1248698.24973946zm9.1154903 6.61809568c0 .49947892-.24973947 1.12382757-.24973947 1.99791568-.74921838.24973946-2.1227854.74921838-2.62226433.74921838h-1.74817622c-.99895784 0-2.1227854-.24973946-2.99687352-.49947892-.7492183-.24973946-1.6233064-.8740881-2.2476551-1.6233065-.6243486-.74921837-1.2486973-1.49843675-1.4984367-2.37252486-.2497394-.8740881-.3746092-1.74817622-.3746092-2.74713406 0-1.37356703.1248698-1.87304595.6243487-3.12174325.4994789-1.12382757 1.3735671-1.99791568 2.2476552-2.74713406.8740881-.7492184 2.1227854-.9989579 3.6212222-.9989579.7492184 0 1.6233065 0 2.3725249.2497394.7492184.2497394 1.2486973.4994789 1.7481762.9989578.499479.4994789.8740881.9989578 1.1238276 1.7481762.2497395.7492183.3746092.7492183.4994789 1.6233065.1248698.3746091.1248698.9989578.1248698 1.373567h-9.8647087v.9989578c0 .9989578.1248697 1.9979157.6243487 2.747134.3746092.7492183.8740881 1.373567 1.6233065 1.7481762.7492184.3746092 1.6233065.7492184 2.6222643.7492184.8740881.3746091 2.7471341-.1248698 4.3704406-.8740882zm-20.22889627 2.74713406c0-.24973946.24973946-.62434865.24973946-.8740881 0-4.37044056 0-7.74192327-.12486973-10.48905733v-1.2486973l-.3746091-.9989578c.3746092 0 .9989579-.1248697 1.2486973-.1248697.2497395 0 .9989579-.1248697 1.3735671-.1248697v2.4973946c.2497395-.6243486.3746092-.4994789.6243487-.8740881.1248698-.2497394.6243487-.6243486.8740881-.8740881.2497395-.1248697.6243487-.3746092.9989579-.4994789.3746092-.1248697.7492184-.2497394 1.1238276-.2497394h1.4984368c.7492184.1248698 1.2486973.2497395 1.4984368.3746092 0 .3746092-.6243486 1.873046-.6243486 1.873046s-.6243486 0-1.1238275-.2497394c-.4994789-.1248697-.8740881-.1248697-1.2486973-.1248697-.4994789 0-.9989578.1248697-1.4984368.2497395-.3746092.1248697-.7492183.3746092-.9989578.7492184-.2497394.3746092-.4994789.7492184-.6243486 1.2486973-.1248697.3746092-.1248697 0-.1248697.7492184v8.3662719l.2497395.7492184h-1.373567c-.4994789-.2497395-1.1238275-.1248697-1.6233065-.1248697zm-16.98228328-1.49843676h2.99687352c.74921838 0 1.6233065 0 2.4973946-.12486973.8740881-.12486973 1.49843676-.3746092 2.1227854-.62434865.62434866-.24973946 1.2486973-.62434865 1.87304596-1.12382757.62434865-.62434865 1.12382757-1.2486973 1.49843676-1.99791568.3746092-.74921838.62434865-1.6233065.74921838-2.4973946.12486973-.8740881.24973946-1.87304595.24973946-2.74713406 0-.9989579-.3746092-1.873046-.62434865-2.7471341-.24973946-.8740881-.74921838-1.9979157-1.6233065-2.6222644-.74921837-.6243487-1.37356702-1.1238276-2.24765513-1.3735671-.74921838-.2497395-1.99791568-.6243487-3.3714827-.6243487-.87408812 0-1.9979157 0-2.4973946.1248697-.62434866 0-.99895785.1248697-1.74817623.1248697l.12486973 16.2330649zm-3.49635244 1.49843676l.49947892-1.37356703v-16.4828043c0-.4994789-.24973946-.9989578-.49947892-1.8730459h8.49114163c1.4984367.1248698 1.8730459.1248698 2.8720038.499479.7492183.1248698 2.2476551.9989579 2.8720037 1.4984368.6243486.4994789 1.373567.9989579 1.8730459 1.7481762.4994789.7492184.7492184.9989579 1.1238275 1.873046.4994789 1.2486973.7492183 2.4973946.7492183 3.6212222.1248697 1.6233065 0 2.8720038-.4994789 4.3704406-.499479 1.4984368-1.6233065 2.6222643-2.4973946 3.6212222-.9989579.9989579-2.1227854 1.6233065-3.3714827 1.9979157-1.2486973.2497395-2.7471341.6243487-4.3704406.6243487h-3.7460919l-3.4963525-.1248697z"/>
  <path fill="#cf3311" d="M674.84950362 573.84485868c0-1.37356703-.62434865-1.2486973-1.12382757-1.2486973-.49947892-.12486973-1.6233065.12486973-2.62226433-.12486973-1.2486973-.24973946-1.87304595-1.87304595-1.6233065-2.74713406.62434866-2.3725249 2.12278542-2.6222644 3.12174326-2.6222644.8740881 0 2.37252487.1248697 4.24557082 1.7481762.8740881.7492184 1.37356703 2.747134 1.37356703 3.8709616 0 1.373567 0 2.9968735-.8740881 3.8709616-1.37356704 1.373567-4.74504975 2.6222643-6.74296543 2.6222643-7.61705353-.8740881-7.36731407-7.9916627-7.36731407-7.9916627s-.62434865-3.1217433 1.99791568-6.3683563c.2497395-.2497395.499479-.8740881.7492184-1.1238276.2497395-.2497395.4994789-.3746092.8740881-.6243487.2497395-.2497395.6243487-.3746092.9989579-.6243487.8740881-.4994789 1.7481762-.9989579 2.6222644-1.2486973 1.3735671-.3746092 2.6222644-.4994789 3.7460919-.4994789 3.1217433.1248697 6.6180957 1.8730459 8.3662719 4.4953102.2497395.3746092.499479.6243486.7492184.9989578.2497395.3746092.4994789.9989578.8740881 1.7481762.3746092 1.1238275.2497395.6243486.7492184 2.4973946.2497395 1.2486973.499479 1.9979157.499479 2.8720038 0 .3746092.1248697.7492183.1248697 1.2486973 0 1.373567.2497395 1.7481762-.1248697 2.747134-.4994789 1.873046-1.6233065 3.6212222-2.6222643 4.62018-1.7481762 1.6233065-3.246613 2.1227854-4.1207011 2.6222643-.8740881.4994789-1.2486973.4994789-2.4973946.9989578-1.1238275.4994789-1.8730459.4994789-3.8709616.4994789-2.1227854 0-3.7460919-.1248697-4.2455708-.2497395-3.7460919-.9989578-4.9947892-1.7481762-6.6180957-2.9968735-4.120701-3.246613-4.9947892-9.6149692-4.9947892-9.6149692s-.4994789-3.246613.2497395-6.6180957c.3746092-1.7481762 2.2476552-5.1196589 3.246613-6.3683562.8740881-1.1238276 2.8720038-2.747134 4.1207011-3.4963524 1.2486973-.7492184 2.9968735-1.7481763 4.9947892-2.3725249.9989578-.3746092 1.7481762-.4994789 3.9958314-.6243487 2.6222644-.1248698 6.3683563.6243486 8.6160114 1.2486973 2.3725249.7492183 4.4953103 2.2476551 5.4942681 3.3714827 1.1238276 1.2486973 3.6212222 4.8699194 3.9958314 5.6191378.4994789.7492184 1.6233065 4.74504974 1.7481762 5.2445287.1248697.4994789.2497395 2.2476551 2.1227854 2.2476551 1.6233065-.12486976 1.1238276-1.9979157 1.1238276-2.3725249-.1248697-.3746092-.6243487-3.3714827-.8740881-4.2455708-.2497395-.8740881-1.4984368-3.1217432-1.7481762-3.4963524-.1248697-.24973947-1.2486973-2.1227854-2.3725248-3.62122218-.8740881-1.1238275-1.6233065-2.1227854-2.6222643-2.747134-1.7481762-1.1238276-3.8709616-2.1227854-3.8709616-2.1227854s-3.7460919-1.2486973-5.7440076-1.4984368c-1.7481762-.2497394-3.4963524-.6243486-6.4932259-.3746092-2.9968735.2497395-4.62018.9989579-5.7440076 1.4984368-1.1238276.4994789-3.6212222 1.49843676-5.4942681 3.12174325-1.873046 1.49843674-1.2486973.7492184-2.2476551 1.87304593-.9989578 1.1238276-1.2486973 1.373567-1.9979157 2.3725249-.6243486.9989578-2.1227854 3.8709616-2.6222643 5.7440076-.2497394.7492184-.6243486 1.9979157-.7492183 3.1217432-.1248697.9989578-.1248697 1.8730459-.1248697 2.747134.1248697 1.6233065.1248697 1.7481762.1248697 1.7481762s.7492184 3.24661295 1.12382756 4.49531025c.4994789 1.2486973.99895783 3.1217433 3.6212222 5.9937471 2.6222643 2.8720038 4.9947892 3.62122212 5.993747 3.9958313.8740881.3746092 3.9958314 1.373567 7.99166277 1.49843675 4.7450497.1248697 5.8688773-.9989579 6.7429654-1.2486973.8740881-.3746092 3.7460919-1.6233065 5.993747-3.7460919 2.24765517-2.1227854 2.9968735-4.4953103 3.12174328-4.62018.62434867-1.873046.8740881-4.7450498.24973948-7.6170536-.3746092-1.87304595-.7492184-3.6212222-1.1238276-4.74504974-.62434866-1.9979157-1.4984368-3.1217432-2.1227854-4.1207011-.49947894-.8740881-2.24765516-2.1227854-3.246613-2.747134-.4994789-.2497395-.99895784-.6243487-1.6233065-.99895788-.62434864-.24973948-1.49843675-.4994789-2.6222643-.7492184-.9989579-.24973945-2.2476552-.4994789-3.3714827-.4994789-.9989579-.1248697-1.74817626 0-2.1227854 0-.499479 0-2.12278546.2497395-4.2455709 1.373567-1.2486973.6243487-2.4973946 1.3735671-3.99583133 2.8720038-.4994789.4994789-.8740881.9989579-1.12382755 1.4984368-3.246613 4.37044055-1.9979157 9.24036-1.9979157 9.24036s.62434863 6.6180957 6.3683562 8.49114165c2.1227854.6243487 3.8709616.6243487 5.36939835.49947897 2.4973946-.3746092 4.3704406-1.37356703 5.6191379-1.9979157s2.24765516-1.74817624 2.74713408-2.99687354c.4994789-1.1238276.6243487-2.24765513.6243487-3.12174324 0-.6243486 0-1.2486973-.1248697-1.9979156-.3746092-1.87304594-.9989578-3.7460919-2.6222643-5.24452865l-.4994789-.3746092c-.2497395-.2497394-.6243487-.3746092-.7492184-.4994789-1.373567-.7492184-2.7471341-.9989578-4.74504977-1.1238276-.74921836 0-1.7481762.1248697-2.3725248.4994789-2.24765518 1.1238276-3.49635248 3.1217433-3.49635248 5.8688773.12486974 2.4973946 2.4973946 3.8709617 2.8720038 4.2455708-.24973946-.4994789 4.8699195.8740881 4.9947892-1.4984367z"/>
  <path fill="#fff" d="M690.08361068 639.52633666h-14.6097584c-1.37356704 0-2.24765515-.3746092-2.99687353-1.12382757v1.1238275h-4.86991947c-1.74817622 0-2.99687352-.7492184-3.49635244-1.9979157-.12486973.2497394-.3746092.6243486-.62434865.8740881-.7492184.7492184-1.6233065 1.1238276-2.6222644 1.1238276h-5.119659v-4.4953103h1.1238275c-.7492184-.7492184-1.1238276-1.7481762-1.1238276-2.7471341 0-1.1238276.3746092-1.9979157 1.1238275-2.7471341.7492183-.7492184 1.6233065-1.1238276 2.6222643-1.1238276h5.1196589v1.1238275c.6243486-.7492184 1.6233065-1.1238276 2.9968735-1.1238276h4.8699194v1.1238275c.6243486-.7492184 1.6233065-1.1238276 2.9968735-1.1238276h4.8699195v5.2445286l1.373567-3.7460919c.6243487-1.2486973 1.6233065-1.4984368 2.3725249-1.4984368 1.1238276 0 1.9979157.6243486 2.3725249 1.6233065l3.6212222 9.4900995z"/>
  <path fill="#174b9a" d="M656.4936533 632.1590226c0-.87408812.3746092-1.6233065.99895785-2.24765515.62434865-.62434865 1.37356703-.99895784 2.1227854-.99895784h4.37044056v1.3735671h-3.9958313c-.6243486 0-1.1238275.1248698-1.4984367.4994789-.3746092.3746092-.4994789.7492184-.4994789 1.2486973 0 .4994789.1248698.9989579.499479 1.2486973.3746092.3746092.8740881.4994789 1.4984368.4994789h.6243487c.4994789 0 .9989579.1248698 1.2486973.4994789.2497395.2497395.4994789.6243487.4994789 1.1238276 0 .3746092-.1248697.7492184-.4994789 1.1238276-.2497394.2497395-.7492184.4994789-1.2486973.4994789h-3.9958314v-1.373567h3.9958314c.2497395 0 .3746092 0 .3746092-.1248697s-.1248697-.1248697-.3746092-.1248697h-.9989578c-.7492183 0-1.4984367-.3746092-2.1227854-.9989578-.6243486-.4994789-.9989578-1.373567-.9989578-2.2476551zm1.74817623 0c0-.3746092.12486973-.7492184.49947892-1.12382758.24973946-.24973946.74921838-.49947892 1.2486973-.49947892h3.99583136v1.37356703h-3.9958313c-.2497394 0-.3746092 0-.3746092.12486973s.1248698.12486973.3746092.12486973h.9989579c.7492184 0 1.4984368.3746091 2.1227854.9989578.6243487.6243486.9989579 1.373567.9989579 2.2476551 0 .8740881-.3746092 1.6233065-.9989578 2.2476551-.6243486.6243486-1.373567.9989578-2.1227854.9989578h-4.3704405v-1.3735671h3.9958314c.6243487 0 1.1238276-.1248698 1.4984368-.4994789.3746092-.3746092.499479-.7492184.499479-1.2486973 0-.499479-.1248697-.9989579-.4994789-1.2486973-.3746092-.3746092-.8740881-.499479-1.4984367-.499479h-.6243486c-.4994789 0-.9989578-.1248698-1.2486973-.4994789-.3746092-.2497395-.4994789-.6243487-.4994789-1.1238276zm6.36835623-.12486974c0-1.99791568.99895784-2.99687352 2.99687352-2.99687352h3.99583136v1.37356703h-3.99583136c-1.12382757 0-1.74817622.62434865-1.74817622 1.74817622v3.7460919c0 1.1238275.62434865 1.7481762 1.74817622 1.7481762h3.99583136v1.373567h-3.99583136c-1.99791568 0-2.99687352-.9989579-2.99687352-2.9968735v-3.9958314zm1.74817622 1.74817622v-1.74817622c0-.8740881.49947892-1.37356703 1.37356703-1.37356703h3.9958314v1.37356703h-3.7460919c-.2497394 0-.3746092.12486973-.3746092.3746092h2.9968736v1.37356702h-4.2455708zm0 .24973946h4.37044055v1.37356703H667.731929c0 .24973946.12486974.3746092.3746092.3746092h3.7460919v1.37356702h-3.99583136c-.8740881 0-1.37356703-.499479-1.37356703-1.3735671v-1.7481762zm5.99374704-1.99791568c0-1.99791568.99895784-2.99687352 2.99687352-2.99687352h3.99583136v1.37356703h-3.99583136c-1.12382757 0-1.74817622.62434865-1.74817622 1.74817622v3.7460919c0 1.1238275.62434865 1.7481762 1.74817622 1.7481762h2.74713406v-3.7460919h-2.37252487v-1.3735671h3.7460919v6.3683562h-3.99583136c-1.99791568 0-2.99687352-.9989579-2.99687352-2.9968735v-3.8709617zm1.74817622 0c0-.8740881.49947892-1.37356703 1.37356703-1.37356703h3.99583136v1.37356703h-3.7460919c-.24973946 0-.3746092.12486973-.3746092.3746092v2.9968735c0 .24973947.12486974.3746092.3746092.3746092h.62434865v-.3746092h-.62434865v-1.37356702h1.99791568v2.99687352h-2.3725248c-.8740881 0-1.373567-.49947892-1.373567-1.37356703v-3.62122217z"/>
  <path fill="#174b9a" d="M683.0909058 637.40355125h3.99583136l-2.74713406-6.86783515c-.12486973-.12486973-.24973946-.24973946-.49947892-.24973946s-.3746092.12486973-.49947892.24973946l-2.99687352 8.24140218h-1.37356703l3.1217433-8.61601137c.3746092-.7492183.9989579-1.1238275 1.7481762-1.1238275.8740881 0 1.3735671.3746092 1.7481762 1.1238276l3.246613 8.6160114h-5.7440076v-1.373567zm0-.24973946v-.7492184l-.99895784 2.3725248h-1.37356703l2.8720038-7.866793c0-.1248697.12486972-.2497395.24973945-.2497395s.24973946.1248697.24973946.2497394l2.37252487 6.2434865h-3.3714827zm.8740881-2.9968736l-.62434864 1.6233065h1.2486973l-.62434865-1.6233065z"/>
  <path fill="#32507c" d="M828.43927152 480.81690983c0 63.05921365-37.33604927 117.50241593-91.1549029 142.22662247V480.81690983c0 35.96248224-29.21951682 65.18199906-65.18199906 65.18199906s-65.18199906-29.2195169-65.18199906-65.1819991v142.2266225c-53.81885363-24.7242066-91.1549029-79.0425391-91.1549029-142.2266225 0-86.4098532 70.05191853-156.4617717 156.4617717-156.4617717 86.1601137 0 156.21203222 70.0519185 156.21203222 156.4617717zm-156.4617717-25.59829465c-14.2351492 0-25.72316437 11.48801516-25.72316437 25.59829465 0 14.1102795 11.48801516 25.59829465 25.72316438 25.59829465s25.72316438-11.48801516 25.72316438-25.59829465c0-14.1102795-11.4880151-25.59829465-25.7231643-25.59829465z"/>
  <path fill="#9f9f9f" d="M737.1594989 480.81690983c0 35.96248224-29.21951683 65.18199906-65.18199907 65.18199906s-65.18199906-29.2195169-65.18199906-65.1819991 29.21951682-65.1819991 65.18199906-65.1819991 65.18199906 29.2195168 65.18199906 65.181999zm-65.18199907-25.72316438c-14.23514922 0-25.72316438 11.6128849-25.72316438 25.97290384 0 14.3600189 11.48801516 25.9729038 25.72316438 25.9729038s25.72316438-11.6128849 25.72316438-25.9729039-11.4880151-25.9729039-25.7231643-25.9729039z"/>
  <path fill="#181818" d="M612.7892478 480.81690983c0-32.71586926 26.47238277-59.18825202 59.18825203-59.18825202 32.71586926 0 59.18825202 26.4723828 59.18825202 59.1882521s-26.47238276 59.188252-59.18825202 59.188252c-32.71586926 0-59.18825202-26.4723827-59.18825202-59.188252zm59.18825203 25.72316438c14.23514922 0 25.72316438-11.4880151 25.72316438-25.7231643s-11.4880151-25.7231644-25.7231643-25.7231644-25.7231644 11.4880152-25.7231644 25.7231644 11.4880152 25.7231644 25.7231644 25.7231644z"/>
  <g transform="matrix(1.2486973,0,0,1.2486973,500.7811,309.62051)">
    <path fill="#dedfde" d="M316.5 266.9V83.2c11.9-5.4 26.4-8.6 41.9-8.6 15.6 0 30 3.2 41.9 8.6V267c-11.9 4.6-26.4 7.2-42 7.2-15.4 0-29.9-2.7-41.8-7.3"/>
    <ellipse cx="358.39999" cy="95" fill="#c1c3c2" ry="12.3" rx="13.4"/>
    <path fill="#56727d" d="M386.3 195.3h-55.7c-4.8 0-8.7-3.9-8.7-8.7v-43.7c0-4.8 3.9-8.7 8.7-8.7h55.7c4.8 0 8.7 3.9 8.7 8.7v43.7c-.1 4.8-4 8.7-8.7 8.7z"/>
    <path fill="#353360" d="M331.20001 184h7.0999999v10.7H331.20001z"/>
    <path fill="#353360" d="M330.89999 184h6.8000002v10.3H330.89999z"/>
    <path fill="#56727d" d="M331.20001 184.39999h6.4000001v9.1999998H331.20001z"/>
    <path fill="#353360" d="M331.60001 192.60001h2.0999999v.3H331.60001zm3.6 0h1.8v.3h-1.8zm-3.6-1.10001h2.0999999v.3H331.60001zm3.6 0h1.8v.3h-1.8zm-3.6-1h5.3000002v.3H331.60001zm3.6-1.5h1.8v.3h-1.8zm.29999-1.10001h1.4v.3h-1.4zm.70001-1h.7v.3h-.7z"/>
    <path fill="#56727d" stroke="#353360" stroke-miterlimit="10" d="M337.4 184.2h-7l-2.4 5.3h7z"/>
    <path fill="#353360" d="M331.60001 183.3h.7v1.8h-.7zm1.39999 0h.7v1.8h-.7zm1.39999 0h.7v1.8h-.7zm1.5 0h.7v1.8h-.7z"/>
    <path fill="#4a6787" d="M324.20001 136.89999h68.300003v45.400002H324.20001z"/>
    <g fill="#363264">
      <path d="M344.20001 171.10001h5.6999998v5.6999998H344.20001zm5.69998-5.70002h5.6999998v5.6999998H349.89999z"/>
      <path d="M349.89999 159.7h5.6999998v5.6999998H349.89999z"/>
      <path d="M344.20001 159.7h5.6999998v5.6999998H344.20001zm11.4 0h5.6999998v5.6999998H355.60001zm0-5.7h5.6999998v5.6999998H355.60001zm0-5.7h5.6999998v5.6999998H355.60001zm-5.70002 0h5.6999998v5.6999998H349.89999z"/>
      <path d="M344.20001 148.3h5.6999998v5.6999998H344.20001z"/>
      <path d="M344.20001 142.60001h5.6999998v5.6999998H344.20001zm0 11.39999h5.6999998v5.6999998H344.20001zM338.5 154h5.6999998v5.6999998H338.5zm-5.70001 5.7h5.6999998v5.6999998H332.79999zM367 171.10001h5.6999998v5.6999998H367zm-5.70001-5.70002h5.6999998v5.6999998H361.29999z"/>
      <path d="M361.29999 159.7h5.6999998v5.6999998H361.29999zm5.70001 0h5.6999998v5.6999998H367zm-5.70001-11.4h5.6999998v5.6999998H361.29999zm5.70001 0h5.6999998v5.6999998H367z"/>
      <path d="M367 142.60001h5.6999998v5.6999998H367zM367 154h5.6999998v5.6999998H367zm5.70001 0h5.6999998v5.6999998H372.70001zm5.69998 5.7h5.6999998v5.6999998H378.39999z"/>
    </g>
    <path fill="#2f3338" d="M357.5 204.6c-.2 0-.4 0-.5-.1-.1-.1-.3-.1-.4-.2v-.7c.1.2.3.3.4.4.2.1.3.1.5.1s.4-.1.5-.2c.1-.1.2-.3.2-.5s0-.3-.1-.4c-.1-.1-.2-.2-.3-.2-.1 0-.2-.1-.3-.1-.1 0-.2-.1-.3-.1-.1 0-.2-.1-.3-.1-.1-.1-.2-.1-.2-.2-.1-.1-.1-.2-.1-.3 0-.1-.1-.3-.1-.4 0-.3.1-.6.3-.8.2-.2.4-.3.7-.3.2 0 .3 0 .5.1.1 0 .3.1.4.2v.7c-.1-.1-.2-.2-.4-.3-.2-.1-.3-.1-.5-.1s-.3.1-.4.2c-.1.1-.2.3-.2.5s0 .3.1.4c.1.1.2.2.3.2.1 0 .2.1.3.1.1 0 .2.1.3.1.2.1.4.2.4.4.1.2.1.4.1.7 0 .2 0 .3-.1.5 0 .2-.1.3-.2.4l-.3.3c.1-.3-.1-.3-.3-.3zm3.2-.1H359v-4.1h.4v3.7h1.3v.4zm.3 0v-4.1h1.8v.5h-1.5v1.1h1.4v.5h-1.4v1.5h1.5v.5H361zm2.3 0v-4.1h1.8v.5h-1.5v1.1h1.4v.5h-1.4v1.5h1.5v.5h-1.8zm4.1-2.9c0 .2 0 .4-.1.5 0 .2-.1.3-.2.4-.1.1-.2.2-.4.3-.1.1-.3.1-.5.1h-.2v1.5h-.4v-4.1h.7c.2 0 .3 0 .4.1.1 0 .2.1.3.2.1.1.2.2.3.4.1.2.1.4.1.6zm-.4 0c0-.1 0-.3-.1-.4-.1-.1-.1-.2-.2-.3-.1-.1-.1-.1-.2-.1h-.5v1.7h.3c.2 0 .3 0 .4-.1.1 0 .2-.1.2-.2.1-.1.1-.2.1-.3v-.3zm11.1 2.9h-.4v-3.6l-.8 2.4h-.2l-.8-2.4v3.6h-.4v-4.1h.5l.7 2.3.7-2.3h.5v4.1zm2.7-3.6c.1.2.2.4.3.7.1.3.1.6.1.9 0 .3 0 .6-.1.9-.1.3-.1.5-.3.7-.1.2-.3.3-.4.4-.2.1-.3.1-.5.1s-.4 0-.5-.1c-.2-.1-.3-.2-.4-.4-.1-.2-.2-.4-.3-.7-.1-.3-.1-.6-.1-.9 0-.3 0-.7.1-.9.1-.3.1-.5.3-.7.1-.2.3-.3.4-.4.2-.1.3-.1.5-.1s.4 0 .5.1c.2 0 .3.2.4.4zm0 1.5c0-.3 0-.5-.1-.7 0-.2-.1-.4-.2-.5-.1-.1-.2-.3-.3-.3-.1-.1-.2-.1-.4-.1-.1 0-.3 0-.4.1l-.3.3c-.1.1-.1.3-.2.5 0 .2-.1.5-.1.7 0 .5.1 1 .2 1.2.2.3.4.4.7.4.3 0 .5-.1.7-.4.3-.2.4-.6.4-1.2zm3.1.1c0 .4-.1.7-.2 1-.1.3-.3.5-.4.7-.1.1-.3.2-.5.3-.2 0-.4.1-.6.1h-.7v-4.1h.7c.3 0 .5 0 .7.1.2.1.3.1.4.2.2.2.3.4.4.7.2.2.2.5.2 1zm-.4-.1c0-.3 0-.6-.1-.8-.1-.2-.2-.4-.3-.5-.1-.1-.2-.2-.3-.2-.1 0-.3-.1-.4-.1h-.4v3.2h.3c.2 0 .3 0 .5-.1.1 0 .3-.1.4-.2.1-.1.2-.3.3-.5v-.8zm.9 2.1v-4.1h1.8v.5h-1.5v1.1h1.4v.5h-1.4v1.5h1.5v.5h-1.8zm-16.2 47l1.7-4.9h.8l1.7 4.9h-.7l-.4-1.4h-1.9l-.4 1.4h-.8zm2.8-2l-.8-2.3-.8 2.3h1.6zm24.6-3.6c0 .2 0 .5-.1.6-.1.2-.2.3-.4.5l-.6.3c-.2.1-.5.1-.8.1h-1.4v-4.9h2.1c.2 0 .3.1.5.2s.3.2.4.4c.1.2.1.3.1.5s-.1.4-.2.6c-.1.2-.3.3-.5.4.3.1.5.2.7.4.2.2.2.6.2.9zm-.9-2.2c0-.1 0-.2-.1-.3 0-.1-.1-.2-.2-.2-.1-.1-.2-.1-.4-.1h-1.1v1.4h1.2c.1 0 .2-.1.3-.1.1-.1.2-.1.2-.3 0-.1.1-.2.1-.4zm.2 2.3c0-.2 0-.3-.1-.5l-.3-.3c-.1-.1-.2-.1-.3-.1H393v1.8h1.2c.2 0 .3-.1.4-.2l.3-.3v-.4z"/>
    <path fill="#a7a8a8" d="M398.3 134.2h-79.8c10.2-1.3 24.3-2.1 39.9-2.1 15.6 0 29.7.8 39.9 2.1zm0 61.1h-79.8c10.2 1.3 24.3 2.1 39.9 2.1 15.6 0 29.7-.8 39.9-2.1z"/>
    <circle cx="370.79999" cy="234.89999" r="8.3999996" fill="#c1c3c2"/>
    <circle cx="370.79999" cy="234.89999" r="7.0999999" fill="#646fa4"/>
    <circle cx="362.39999" cy="215.7" r="5.3000002" fill="#c1c3c2"/>
    <circle cx="362.39999" cy="215.7" r="4.0999999" fill="#646fa4"/>
    <path fill="#c1c3c2" d="M386.8 221h-7c-3 0-5.3-2.4-5.3-5.3 0-3 2.4-5.3 5.3-5.3h7"/>
    <circle cx="379.79999" cy="215.7" r="4.0999999" fill="#646fa4"/>
    <path fill="#a7a8a8" d="M315.10001 84.300003h1.5v180.7h-1.5z"/>
    <path fill="#a7a8a8" d="M400.3 104v1.1h.1c-11.9-6.1-26.4-9.9-41.9-9.9-15.6 0-30 3.8-41.9 9.9V104c11.9-6.1 26.4-9.9 41.9-9.9s30 3.8 41.8 9.9m-98.69999 0h13.5v1.1h-13.5z"/>
    <path fill="#dedfde" d="M301.3 104h13.8V86.1c0-1.6-1.3-2.9-2.9-2.9-6 0-10.9 4.9-10.9 10.9v9.9zm3.5 158l10.2 3.6V105.1h-13.8v153.3c.1 1.9 1.6 2.9 3.6 3.6z"/>
    <path fill="#dedfde" d="M301.3 234.9v16.9c-1.1 0-2-3.8-2-8.5 0-4.6.9-8.4 2-8.4z"/>
    <path fill="#a7a8a8" d="M400.29999 84.300003h1.5v180.7h-1.5zm1.5 19.699997h13.5v1.1h-13.5z"/>
    <path fill="#dedfde" d="M415.6 104h-13.8V86.1c0-1.6 1.3-2.9 2.9-2.9 6 0 10.9 4.9 10.9 10.9v9.9zM412 261.9l-10.2 3.6V105h13.8v153.3c0 2-1.6 3-3.6 3.6zm3.6-27.1v16.9c1.1 0 2-3.8 2-8.5-.1-4.6-.9-8.4-2-8.4z"/>
    <circle cx="394.70001" cy="229.7" r="8.3999996" fill="#c1c3c2"/>
    <circle cx="394.70001" cy="229.7" r="7.0999999" fill="#646fa4"/>
    <path fill="#c1c3c2" d="M315.7 224.5c0 10.3 7.2 18.6 17.3 18.6 10.1 0 19.1-10.9 19.1-21.2 0-10.3-5.7-15.9-15.8-15.9-10.1 0-20.6 8.3-20.6 18.5z"/>
    <circle cx="332.10001" cy="226.7" r="16.4" fill="#a7a8a8"/>
    <circle cx="331.70001" cy="226.7" r="15.3" fill="#646fa4"/>
    <g fill="none" stroke="#a7a8a8" stroke-miterlimit="10">
      <circle cx="331.70001" cy="226.7" r="1.2"/>
      <path d="M326.1 212.5v4.9c0 1.9-1.6 3.5-3.5 3.5h-5m-.1 11.5h4.9c1.9 0 3.5 1.6 3.5 3.5v5m11.5 0V236c0-1.9 1.6-3.5 3.5-3.5h5m.1-11.5h-4.9c-1.9 0-3.5-1.6-3.5-3.5v-5"/>
    </g>
    <path fill="#2f3338" d="M359.5 118.9c.3-.1.5-.2.7-.3.2-.1.4-.1.6-.2.3-.1.4-.1.7-.1.3 0 .6.1.8.1.2.1.3.3.4.4.1.1.1.2.1.4v.2c0 .1-.1.1-.1.2-.1.1-.1.2-.2.2l-.2.2c-.1.1-.2.1-.3.1-.1.1-.3 0-.4.1-.5.1-.9.1-1.1.2-.2.1-.4.1-.5.2-.2.1-.3.2-.4.3-.2.1-.2.2-.3.4-.1.1-.2.3-.2.4 0 .2-.1.4-.1.5 0 .3 0 .6.2.8.1.3.4.5.7.6.3.1.6.3 1.1.3h.5c.2 0 .3-.1.6-.1.1-.1.3-.2.5-.4l.3-.3v.6h1.1c-.1-.5-.2-.5-.1-.8 0-.6-.1-1.8 0-2.4v-.8c0-.2-.1-.6-.2-.8-.1-.2-.2-.3-.3-.6-.2-.2-.5-.4-.8-.5-.3-.1-.5-.1-.8-.1h-1.1c-.3.1-.6.1-1 .3-.2.4-.2.7-.2.9zm2.8 4s-.2.1-.3.2c-.2.1-.3.1-.5.2h-.5c-.3 0-.5-.1-.6-.2-.2-.1-.2-.1-.3-.2-.1-.1-.3-.4-.3-.6v-.4c0-.1.1-.2.2-.3.1-.1.2-.2.4-.3.2-.1.3-.1.5-.2.1-.1.3-.1.6-.1.1 0 .5 0 .6-.1.1 0 .2 0 .3-.1.1 0 .2-.1.2-.1s.1-.1.3-.2v1.2s0 .5-.2.8l-.4.4zm17.8-4.1c.3-.1.5-.2.6-.3.2-.1.4-.1.6-.1.3 0 .5-.1.7-.1.3 0 .6.1.8.2.2.1.3.3.5.4.1.1.1.2.2.5v.2c0 .1-.1.1-.1.1-.1.1-.1.2-.2.2s-.1.1-.2.2c-.1 0-.2.1-.3.1-.1.1-.3 0-.4.1-.5.1-.9.1-1.1.2-.2.1-.4.1-.6.2-.2.1-.3.2-.4.3-.2.1-.2.2-.3.3-.1.1-.1.3-.2.4 0 .2-.1.4-.1.5 0 .3.1.6.2.8.1.3.4.5.7.6.3.1.7.3 1.2.3h.5c.2 0 .3-.1.6-.1.1-.1.3-.2.5-.4l.3-.3v.6h1.1c-.1-.5-.1-.5-.1-.8v-3.2c0-.2-.1-.6-.2-.8-.1-.2-.2-.4-.4-.6-.1-.2-.5-.4-.8-.5-.3-.1-.5-.1-.8-.1-.3 0-.8 0-1.1.1-.3.1-.6.1-1 .2-.2.4-.1.6-.2.8zm2.8 4.1c-.1 0-.2.2-.3.2-.2 0-.3.1-.4.2h-.5c-.3 0-.5-.1-.6-.2-.2-.1-.2 0-.3-.2-.1-.2-.3-.4-.3-.6v-.4c0-.1.1-.2.2-.3.1-.1.2-.2.4-.3.1-.1.3-.1.5-.2.1 0 .3-.1.6-.1.1 0 .5 0 .6-.1.1 0 .2 0 .3-.1.1 0 .2-.1.3-.1l.2-.2v1.2s0 .5-.2.8c-.3.2-.5.4-.5.4zm-18.1.9l.1-.4v-1.2l-.1-3.4c0-.3-.2-.7-.2-.8.2 0 .6-.1.7-.1h.4v.8c.1-.2.3-.3.4-.4.1-.1.2-.1.4-.3.2-.1.3-.1.5-.2h.7c.2 0 .3 0 .5.1.2 0 .3.1.4.2.1.1.3.2.3.2l.3.3c0 .1.3-.3.6-.5s.7-.3 1.1-.3c.3 0 .8 0 1.1.1.3.1.6.2.8.4.2.2.2.3.3.4.2.2.2.6.2.8v3.7c0 .3.1.3.1.6h-1.2c.1-.5.1-.3.1-.6v-3.3c0-.2-.1-.5-.1-.6-.1-.1-.3-.4-.4-.5-.1-.1-.3-.1-.4-.2-.1-.1-.4-.1-.6-.1-.1 0-.3 0-.5.1-.1 0-.2.1-.3.1-.1.1-.2.1-.3.2-.1.1-.2.2-.2.4-.1.1-.1.4-.1.6v3.4l.2.6h-1.2c0-.5.1-.1.1-.6v-3.5c0-.2 0-.3-.1-.4 0-.1-.1-.3-.2-.4-.1-.1-.3-.3-.5-.4-.1-.1-.3-.1-.5-.1s-.3 0-.5.1-.3.1-.4.3l-.3.3c-.1.2-.2.2-.2.5-.1.3-.1 1.5-.1 2.3v1.3c0 .3.1.4.1.6h-.6c.1-.1-.2-.1-.4-.1zm14.3-1.1v.4c0 .2-.1.3-.1.5-.3.1-.5.2-.8.2h-1.1c-.4 0-.8-.1-1.2-.2-.3-.1-.8-.4-1-.6-.3-.3-.6-.5-.7-.9-.1-.4-.2-.8-.2-1.2 0-.6.1-.8.2-1.3.2-.5.6-.9 1-1.2.4-.3 1.3-.6 2-.6.5 0 1.1.1 1.6.2 0 .4.1.6.1.8-.4-.1-.7-.3-.9-.3-.2 0-.5-.1-.7-.1-.3 0-1 .2-1.2.3-.3.1-.5.3-.6.6-.2.2-.3.6-.4.9-.1.3-.1.4-.1.7 0 .5.1.9.2 1.2.1.3.4.7.7.9.3.2.7.4 1.1.4.5-.2 1.3-.2 2.1-.7zm6.2.9l-.1-.4c0-.1-.1-.3-.2-.6.7.4 1.4.7 1.9.7.3 0 .5-.1.7-.2.2-.1.4-.2.5-.4.1-.1.2-.3.2-.4v-.3c0-.1-.1-.3-.1-.4l-.4-.4c-.1-.1-.4-.2-.8-.4-.4-.1-.8-.3-1-.5-.2-.1-.5-.3-.6-.5-.1-.2-.2-.3-.3-.5v-.6c0-.3.2-.5.3-.7.1-.3.4-.4.7-.5.3-.1.7-.2 1.1-.2.5 0 .9.1 1.4.2 0 .3-.1.5 0 .8-.4-.3-.8-.4-1.3-.4-.2 0-.5 0-.7.1-.2.1-.4.3-.5.4-.1.1-.1.2-.1.4 0 .1 0 .3.1.4 0 .1.3.3.4.4.2.1.1.1.3.1.2 0 .6.3 1 .4.4.2.8.5.9.6.1.1.3.3.4.6.1.2.1.3.1.5s-.1.3-.1.4c0 .3 0 .4-.2.6-.1.3-.4.5-.8.6-.3.1-.7.2-1.1.2h-.8c-.2 0-.4-.1-.6-.1 0 .2-.1.2-.3.1zm7.3-.5c0 .2-.1.3-.1.6-.3.1-.4.1-.5.1h-.4c-.3 0-.6 0-.8-.1-.2-.1-.4-.2-.5-.4-.1-.2-.2-.7-.2-1.1v-3.7h-.7v-.5h.7v-1c0-.2-.1-.4-.2-.5.4-.1.9-.2 1.1-.3 0 .6.1 1.4.1 1.8h1.5v.6l-.4-.1h-1.1v3.6c0 .3 0 .7.1.8 0 .2.1.2.3.3.1.1.3.1.4.1h.3c.1-.1.2-.1.4-.2zm-38.3-3.2h3.2v-.3c0-.1-.1-.3-.2-.4-.1-.2-.2-.3-.3-.4-.1-.1-.3-.2-.4-.3-.2-.1-.4-.1-.6-.1-.2 0-.4.1-.6.1-.2.1-.4.2-.5.3-.2.1-.3.2-.4.4-.1.2-.2.3-.2.5v.2zm3.9 2.9c0 .2-.1.5-.1.9-.4.1-.9.3-1.2.4h-.8c-.5 0-.9-.1-1.3-.2s-.7-.4-1-.7c-.3-.3-.5-.6-.7-1-.1-.4-.2-.8-.2-1.2 0-.6.1-.8.3-1.4.2-.5.6-.9 1-1.2.4-.3.9-.4 1.6-.4.3 0 .7 0 1 .1.3.1.6.2.8.4.2.2.4.5.5.8.1.3.2.3.2.7v.6H354v.4c0 .4.1.9.3 1.2.2.4.4.6.7.8.3.2.7.4 1.1.4.6-.1 1.4-.3 2.1-.6zm-8.8 1.2c0-.1.1-.3.1-.4 0-1.9 0-3.4-.1-4.6v-.5l-.2-.4c.2 0 .4 0 .6-.1.1 0 .5-.1.6-.1v1.1c.1-.3.2-.2.3-.4l.4-.4c.1-.1.3-.2.4-.2.2 0 .3-.1.5-.1h.6c.4 0 .6.1.6.2 0 .2-.3.8-.3.8s-.3 0-.5-.1-.4-.1-.6-.1c-.2 0-.5.1-.6.1-.2.1-.3.2-.5.3-.1.2-.2.3-.3.6-.1.2-.1 0-.1.3v3.6l.1.3h-.6c.1 0-.2.1-.4.1zm-7.4-.7h1.3c.3 0 .7 0 1.1-.1.4-.1.6-.2.9-.3.3-.1.6-.3.8-.5.3-.3.5-.6.7-.9.1-.3.3-.7.3-1.1.1-.4.1-.8.1-1.2 0-.5-.2-.8-.3-1.2-.1-.4-.4-.9-.7-1.2-.4-.3-.6-.5-1-.6-.4-.1-.9-.3-1.5-.3-.4 0-.9 0-1.1.1-.3 0-.5.1-.8.1l.2 7.2zm-1.5.7l.2-.6v-7.2c0-.2-.1-.4-.2-.8h3.8c.6 0 .8.1 1.3.2.3.1 1 .4 1.3.6.3.2.6.4.8.8.2.3.3.4.5.8.2.5.3 1.1.3 1.6.1.7 0 1.3-.2 1.9-.2.7-.7 1.1-1.1 1.6-.4.5-.9.7-1.5.9-.6.1-1.2.3-1.9.3H342l-1.5-.1zm-8.6-2.8c0-.5-.2-.4-.4-.5-.2 0-.6.1-.9 0-.4-.1-.7-.7-.6-1 .2-.8.8-.9 1.1-.9.3 0 .8 0 1.5.6.3.3.5 1 .5 1.4 0 .5 0 1-.3 1.4-.5.5-1.7.9-2.4.9-2.7-.3-2.6-2.9-2.6-2.9s-.2-1.1.7-2.3c.1-.1.2-.3.3-.4.1-.1.2-.1.3-.2.1-.1.2-.1.3-.2.3-.2.6-.3.9-.4.5-.1.9-.2 1.3-.2 1.1 0 2.3.6 3 1.6l.3.3c.1.1.2.4.3.6.1.4.1.2.3.9.1.4.2.7.2 1v.4c0 .5.1.6 0 1-.2.6-.6 1.3-.9 1.6-.6.6-1.1.8-1.5.9-.3.2-.5.2-.9.3-.4.2-.6.2-1.4.2-.7 0-1.3 0-1.5-.1-1.3-.4-1.8-.6-2.3-1.1-1.5-1.1-1.8-3.4-1.8-3.4s-.2-1.1.1-2.3c.1-.6.8-1.8 1.2-2.3.3-.4 1-1 1.5-1.2.4-.3 1-.6 1.8-.8.3-.1.6-.2 1.4-.2.9 0 2.3.2 3 .4.8.3 1.6.8 2 1.2.4.4 1.3 1.7 1.4 2 .2.3.6 1.7.6 1.9 0 .2.1.8.7.8s.4-.7.4-.8c0-.1-.2-1.2-.3-1.5-.1-.3-.5-1.1-.6-1.2 0-.1-.5-.8-.8-1.3-.3-.4-.6-.8-.9-1-.6-.4-1.4-.7-1.4-.7s-1.3-.5-2-.5c-.6-.1-1.2-.2-2.3-.1-1.1.1-1.7.4-2 .5-.4.2-1.3.6-1.9 1.1-.7.5-.5.3-.8.7-.3.4-.5.5-.7.8-.2.3-.8 1.4-.9 2-.1.3-.2.7-.3 1.1 0 .3-.1.7 0 1 .1.6 0 .6 0 .6s.3 1.1.4 1.6c.2.4.4 1.1 1.3 2.1s1.8 1.3 2.1 1.4c.3.1 1.4.5 2.9.5 1.7 0 2.1-.3 2.4-.5.3-.1 1.3-.6 2.1-1.3.8-.7 1.1-1.6 1.1-1.7.2-.6.3-1.7.1-2.7-.1-.7-.3-1.3-.4-1.7-.2-.7-.5-1.1-.7-1.4-.2-.3-.8-.8-1.2-1-.2-.1-.3-.2-.6-.3-.2-.1-.6-.2-.9-.3-.3-.1-.8-.2-1.2-.2h-.7c-.2 0-.7.1-1.5.5-.4.2-.9.5-1.4 1-.2.2-.3.4-.4.5-1.1 1.6-.7 3.3-.7 3.3s.2 2.3 2.3 3c.7.2 1.4.2 1.9.2.9-.1 1.6-.5 2-.7.5-.2.8-.6 1-1 .2-.4.2-.8.2-1.1 0-.2 0-.5-.1-.7-.1-.7-.4-1.3-.9-1.8l-.2-.1c-.1-.1-.2-.1-.3-.2-.5-.3-1-.4-1.7-.4-.3 0-.6.1-.8.2-.8.4-1.3 1.1-1.2 2.1 0 .9.9 1.4 1 1.5-.5-.1 1.4.4 1.4-.5z"/>
  </g>
</svg>
