<?xml version="1.0" encoding="utf-8"?>
<!-- Generator: Adobe Illustrator 19.0.0, SVG Export Plug-In . SVG Version: 6.00 Build 0)  -->
<svg version="1.1" baseProfile="tiny" id="Calque_1"
	 xmlns="http://www.w3.org/2000/svg" xmlns:xlink="http://www.w3.org/1999/xlink" x="0px" y="0px" viewBox="0 0 239.8 132.6"
	 xml:space="preserve">
<g>
	<g>
		<path fill="#E6E6E6" d="M239.8,121.8c0,2.5-2,4.5-4.5,4.5h-68.7c-2.5,0-4.5-2-4.5-4.5v-111c0-2.5,2-4.5,4.5-4.5h68.7
			c2.5,0,4.5,2,4.5,4.5V121.8z"/>
		<rect x="165.1" y="48" fill="#B3B3B3" width="71.5" height="67.6"/>
		<path fill="#202022" d="M164,8.9v31.3c0,2.5,2,4.6,4.5,4.6h64.6c2.5,0,4.5-2.1,4.5-4.6V8.9H164z"/>
		<rect x="164" y="8.9" width="73.6" height="6.2"/>
		<polygon fill="#CCCCCC" points="211.6,120.9 200.9,117.7 190.1,120.9 190.1,124.4 211.6,124.4 		"/>
		<g>
			<rect x="166" y="10.4" fill="#F7B71D" width="1.1" height="4.2"/>
			<rect x="167.9" y="9.8" fill="#F7B71D" width="1.1" height="4.8"/>
			<rect x="169.7" y="9.8" fill="#F7B71D" width="1.1" height="4.8"/>
			<rect x="171.6" y="9.8" fill="#F7B71D" width="1.1" height="4.8"/>
			<rect x="173.4" y="9.8" fill="#F7B71D" width="1.1" height="4.8"/>
			<rect x="175.3" y="9.8" fill="#F7B71D" width="1.1" height="4.8"/>
			<rect x="177.1" y="9.8" fill="#F7B71D" width="1.1" height="4.8"/>
			<rect x="179" y="9.8" fill="#F7B71D" width="1.1" height="4.8"/>
			<rect x="180.8" y="9.8" fill="#F7B71D" width="1.1" height="4.8"/>
			<rect x="182.7" y="9.8" fill="#F7B71D" width="1.1" height="4.8"/>
			<rect x="184.6" y="9.8" fill="#F7B71D" width="1.1" height="4.8"/>
			<rect x="186.4" y="9.8" fill="#F7B71D" width="1.1" height="4.8"/>
			<rect x="188.3" y="9.8" fill="#F7B71D" width="1.1" height="4.8"/>
			<rect x="190.1" y="9.8" fill="#F7B71D" width="1.1" height="4.8"/>
			<rect x="192" y="9.8" fill="#F7B71D" width="1.1" height="4.8"/>
			<rect x="193.8" y="9.8" fill="#F7B71D" width="1.1" height="4.8"/>
			<rect x="195.7" y="9.8" fill="#F7B71D" width="1.1" height="4.8"/>
			<rect x="197.5" y="8.9" fill="#F7B71D" width="1.1" height="6.2"/>
			<rect x="199.4" y="9.8" fill="#F7B71D" width="1.1" height="4.8"/>
			<rect x="201.3" y="9.8" fill="#F7B71D" width="1.1" height="4.8"/>
			<rect x="203.1" y="9.8" fill="#F7B71D" width="1.1" height="4.8"/>
			<rect x="205" y="9.8" fill="#F7B71D" width="1.1" height="4.8"/>
			<rect x="206.8" y="9.8" fill="#F7B71D" width="1.1" height="4.8"/>
			<rect x="208.7" y="9.8" fill="#F7B71D" width="1.1" height="4.8"/>
			<rect x="210.5" y="9.8" fill="#F7B71D" width="1.1" height="4.8"/>
			<rect x="212.4" y="9.8" fill="#F7B71D" width="1.1" height="4.8"/>
			<rect x="214.2" y="9.8" fill="#F7B71D" width="1.1" height="4.8"/>
			<rect x="216.1" y="9.8" fill="#F7B71D" width="1.1" height="4.8"/>
			<rect x="217.9" y="9.8" fill="#F7B71D" width="1.1" height="4.8"/>
			<rect x="219.8" y="9.8" fill="#F7B71D" width="1.1" height="4.8"/>
			<rect x="221.7" y="9.8" fill="#F7B71D" width="1.1" height="4.8"/>
			<rect x="223.5" y="9.8" fill="#F7B71D" width="1.1" height="4.8"/>
			<rect x="225.4" y="9.8" fill="#F7B71D" width="1.1" height="4.8"/>
			<rect x="227.2" y="9.8" fill="#F7B71D" width="1.1" height="4.8"/>
			<rect x="229.1" y="9.8" fill="#F7B71D" width="1.1" height="4.8"/>
			<rect x="230.9" y="9.8" fill="#F7B71D" width="1.1" height="4.8"/>
			<rect x="232.8" y="9.8" fill="#F7B71D" width="1.1" height="4.8"/>
			<rect x="234.6" y="8.9" fill="#F7B71D" width="1.1" height="6.2"/>
		</g>
		<g>
			<polygon fill="#FFFFFF" stroke="#000000" stroke-width="0.3739" stroke-miterlimit="2.6131" points="209.6,109.8 209.6,84.9 
				192.1,84.9 192.1,109.8 			"/>
			<polygon points="208.9,109.1 208.9,85.6 192.6,85.6 192.6,109.1 			"/>
			<polygon fill="#FFFFFF" points="193.3,86.5 195.6,86.5 195.6,87.2 194.9,87.2 194.9,96.9 194.1,96.9 194.1,87.3 193.3,87.3 			
				"/>
			<path fill="#FFFFFF" d="M196.9,93.3h0.9v-6.8h0.8v6.8c0,0.4-0.4,0.8-0.8,0.8h-0.9c-0.4,0-0.8-0.4-0.8-0.8v-6.8h0.8V93.3
				L196.9,93.3z"/>
			<path fill="#FFFFFF" d="M199.3,94.1v-7.5h1.6c0.4,0,0.8,0.3,0.8,0.7v2.5c0,0.4-0.3,0.8-0.6,0.8l0.8,3.6h-0.7l-0.8-3.5H200v3.5
				H199.3L199.3,94.1z"/>
			<path fill="#FFFFFF" d="M202.4,86.6h1.7c0.4,0,0.7,0.3,0.7,0.7v2.3c0,0.3-0.3,0.5-0.3,0.5s0.3,0.2,0.3,0.5c0,0.3,0,2.7,0,2.7
				c0,0.5-0.4,0.7-0.7,0.7h-1.7V86.6L202.4,86.6z"/>
			<path fill="#FFFFFF" d="M206.7,86.5h0.4c0.5,0,0.8,0.4,0.8,0.7v9c0,0.3-0.4,0.7-0.7,0.7h-0.9c-0.3,0-0.8-0.4-0.8-0.7v-8.9
				c0-0.3,0.3-0.7,0.8-0.7H206.7L206.7,86.5z"/>
			<path fill="#FFFFFF" d="M194.9,102.3h1.2v5.9h-1.7c-0.4,0-0.8-0.3-0.8-0.7v-8.9c0-0.4,0.4-0.8,0.8-0.8h0.9c0.4,0,0.8,0.4,0.8,0.8
				v2.1h-0.8v-2.1h-0.9v8.9h0.9V103h-0.4V102.3L194.9,102.3z"/>
			<path fill="#FFFFFF" d="M196.9,108.2v-7.5h1.6c0.4,0,0.8,0.3,0.8,0.7v2.5c0,0.4-0.3,0.8-0.6,0.8l0.8,3.6h-0.7l-0.8-3.5h-0.3v3.5
				H196.9L196.9,108.2z"/>
			<path fill="#FFFFFF" d="M200.8,104.6v3.6H200v-6.8c0-0.3,0.3-0.7,0.7-0.7h1c0.4,0,0.7,0.3,0.7,0.7v6.8h-0.7v-3.6L200.8,104.6
				L200.8,104.6z"/>
			<path fill="#FFFFFF" d="M204,104.6v3.6h-0.7v-6.8c0-0.3,0.3-0.6,0.6-0.6h1.2v0.7H204v2.5h0.9v0.7L204,104.6L204,104.6z"/>
			<path fill="#FFFFFF" d="M205.5,97.8h0.8v3.8l0.4,0.7l0.4-0.6v-3.8h0.8v3.6c0,0.4-0.8,1.6-0.8,1.6s0.8,1.2,0.8,1.6v3.6h-0.7v-3.7
				l-0.5-0.7l-0.5,0.7v3.7h-0.8v-3.6c0-0.4,0.8-1.6,0.8-1.6s-0.8-1.1-0.8-1.6L205.5,97.8L205.5,97.8z"/>
			<polygon points="200.9,89.7 200.9,87.3 200,87.3 200,89.7 			"/>
			<polygon points="198.5,103.9 198.5,101.4 197.6,101.4 197.6,103.9 			"/>
			<polygon points="204,89.7 204,87.3 203.2,87.3 203.2,89.7 			"/>
			<polygon points="204,93.3 204,90.5 203.2,90.5 203.2,93.3 			"/>
			<polygon points="207.2,96.2 207.2,87.3 206.4,87.3 206.4,96.2 			"/>
			<polygon points="201.7,103.9 201.7,101.4 200.8,101.4 200.8,103.9 			"/>
			<path fill="#FFFFFF" d="M198.9,100c-1.2,0-2.5-1-2.5-2.6c0-1.5,1.3-2.6,2.5-2.6V100L198.9,100z"/>
			<path fill="#FFFFFF" d="M202.5,100c1.2,0,2.5-1,2.5-2.6c0-1.5-1.3-2.6-2.5-2.6V100L202.5,100z"/>
			<polygon fill="#FFFFFF" points="202.5,100 202.5,94.8 198.9,94.8 198.9,100 			"/>
			<path d="M198.8,99.5c-0.6,0-1.9-0.7-1.9-2.2c0-1.3,1.2-2.1,1.9-2.1V99.5L198.8,99.5z"/>
			<path d="M202.7,99.5c0.6,0,1.9-0.7,1.9-2.2c0-1.3-1.2-2.1-1.9-2.1V99.5L202.7,99.5z"/>
			<polygon points="202.7,99.5 202.7,95.2 198.8,95.2 198.8,99.5 			"/>
			<polygon fill="#FFFFFF" points="198.2,95.8 199,95.8 199,98.5 199.4,98.5 199.4,98.9 198.2,98.9 198.2,98.5 198.6,98.5 
				198.6,96.3 198.2,96.3 			"/>
			<polygon fill="#FFFFFF" points="200,96.1 200.2,95.9 203,95.9 203.2,96.1 203.2,96.7 202.8,96.7 202.8,96.3 200.4,96.3 
				200.4,97.2 203,97.2 203.2,97.4 203.2,98.6 202.9,98.9 200.3,98.9 200,98.6 			"/>
			<polygon points="202.8,98.5 202.8,97.6 200.4,97.6 200.4,98.5 			"/>
		</g>
		<g>
			<path fill="#231F20" d="M221.4,112h-1l-0.3,1.2h-0.6l0.6-2.7h0.6l-0.2,1h1l0.2-1h0.6l-0.6,2.7h-0.6L221.4,112z"/>
			<path fill="#231F20" d="M222.6,111.3h0.5l-0.2,1.2c0,0.1,0,0.2,0,0.3c0,0.1,0,0.1,0.1,0.1c0,0,0.1,0.1,0.2,0.1c0,0,0.1,0,0.1,0
				c0,0,0.1,0,0.1-0.1c0,0,0.1-0.1,0.1-0.1c0,0,0.1-0.1,0.1-0.2c0-0.1,0-0.1,0.1-0.3l0.2-0.9h0.5l-0.4,2h-0.5l0.1-0.3
				c-0.2,0.2-0.5,0.3-0.7,0.3c-0.2,0-0.3,0-0.4-0.1c-0.1-0.1-0.1-0.2-0.1-0.4c0-0.1,0-0.2,0.1-0.4L222.6,111.3z"/>
			<path fill="#231F20" d="M226.5,112.3l0.6,0.1c-0.1,0.3-0.3,0.5-0.5,0.7c-0.2,0.2-0.5,0.2-0.8,0.2c-0.3,0-0.6-0.1-0.8-0.3
				c-0.2-0.2-0.3-0.5-0.3-0.9c0-0.3,0.1-0.6,0.2-0.8c0.1-0.3,0.3-0.4,0.5-0.6c0.2-0.1,0.5-0.2,0.7-0.2c0.3,0,0.5,0.1,0.7,0.2
				c0.2,0.2,0.3,0.4,0.3,0.6l-0.5,0.1c0-0.2-0.1-0.3-0.2-0.3c-0.1-0.1-0.2-0.1-0.3-0.1c-0.2,0-0.3,0-0.4,0.1
				c-0.1,0.1-0.2,0.2-0.3,0.4c-0.1,0.2-0.1,0.4-0.1,0.6c0,0.2,0.1,0.4,0.2,0.5c0.1,0.1,0.2,0.2,0.4,0.2c0.1,0,0.3,0,0.4-0.1
				C226.3,112.6,226.4,112.5,226.5,112.3z"/>
			<path fill="#231F20" d="M229,112.7H228l-0.3,0.6h-0.6l1.5-2.7h0.6l0.4,2.7h-0.5L229,112.7z M229,112.2l-0.2-1.1l-0.7,1.1H229z"/>
			<path fill="#231F20" d="M230.5,113.3H230l0.6-2.7h1.2c0.2,0,0.4,0,0.5,0.1c0.1,0,0.2,0.1,0.3,0.2c0.1,0.1,0.1,0.2,0.1,0.4
				c0,0.2-0.1,0.4-0.2,0.6c-0.1,0.1-0.3,0.2-0.6,0.3c0.1,0.1,0.1,0.1,0.2,0.3c0.1,0.2,0.3,0.5,0.4,0.9h-0.6c0-0.2-0.1-0.4-0.3-0.7
				c-0.1-0.2-0.2-0.3-0.2-0.4c-0.1,0-0.1-0.1-0.3-0.1h-0.2L230.5,113.3z M230.9,111.7h0.3c0.3,0,0.5,0,0.6-0.1
				c0.1,0,0.2-0.1,0.2-0.2c0.1-0.1,0.1-0.2,0.1-0.2c0-0.1,0-0.2-0.1-0.2c0,0-0.2,0-0.3,0H231L230.9,111.7z"/>
			<path fill="#231F20" d="M232.7,113.3l0.6-2.7h0.7c0.2,0,0.3,0,0.4,0c0.1,0,0.2,0,0.3,0.1c0.1,0,0.2,0.1,0.2,0.1
				c0.1,0.1,0.1,0.1,0.2,0.2s0.1,0.2,0.1,0.3c0,0.1,0,0.2,0,0.4c0,0.3-0.1,0.5-0.2,0.8c-0.1,0.2-0.3,0.4-0.4,0.5
				c-0.1,0.1-0.3,0.2-0.5,0.2c-0.1,0-0.3,0-0.5,0H232.7z M233.4,112.8h0.3c0.2,0,0.4,0,0.4,0s0.2-0.1,0.3-0.1
				c0.1-0.1,0.2-0.2,0.3-0.4c0.1-0.2,0.1-0.4,0.1-0.6c0-0.2,0-0.3-0.1-0.4c-0.1-0.1-0.1-0.2-0.2-0.2c-0.1,0-0.2,0-0.3,0h-0.3
				L233.4,112.8z"/>
		</g>
	</g>
	<g>
		<path fill="#604832" d="M130.6,66.3c0,35.5-28.8,64.3-64.3,64.3S1.9,101.8,1.9,66.3S30.8,1.9,66.3,1.9S130.6,30.7,130.6,66.3z
			 M77.3,42.9c-3.4-1.6-7.1-2.5-11-2.5C52,40.4,40.4,52,40.4,66.3S52,92.2,66.3,92.2c14.3,0,25.9-11.6,25.9-25.9
			C92.2,56,86.1,47,77.3,42.9"/>
		<g>
			<path fill="#0F1417" d="M66.3,132.6C29.7,132.6,0,102.8,0,66.3S29.7,0,66.3,0c36.6,0,66.3,29.7,66.3,66.3S102.8,132.6,66.3,132.6
				z M66.3,0.1C29.8,0.1,0.1,29.8,0.1,66.3c0,36.5,29.7,66.2,66.2,66.2c36.5,0,66.2-29.7,66.2-66.2C132.5,29.8,102.8,0.1,66.3,0.1z"
				/>
		</g>
		<g>
			<path fill="#A198A0" d="M66.3,77.8c-6.3,0-11.5-5.2-11.5-11.5S60,54.8,66.3,54.8S77.8,60,77.8,66.3S72.6,77.8,66.3,77.8z
				 M66.3,55.6c-5.9,0-10.7,4.8-10.7,10.7c0,5.9,4.8,10.7,10.7,10.7C72.2,77,77,72.2,77,66.3C77,60.4,72.2,55.6,66.3,55.6z"/>
		</g>
		<g>
			<path fill="#A198A0" d="M66.3,75.6c-5.1,0-9.3-4.2-9.3-9.3c0-5.1,4.2-9.3,9.3-9.3c5.1,0,9.3,4.2,9.3,9.3
				C75.6,71.4,71.4,75.6,66.3,75.6z M66.3,57.8c-4.7,0-8.5,3.8-8.5,8.5c0,4.7,3.8,8.5,8.5,8.5c4.7,0,8.5-3.8,8.5-8.5
				C74.8,61.6,71,57.8,66.3,57.8z"/>
		</g>
		<path fill="none" stroke="#7BC043" stroke-miterlimit="10" d="M66.3,88"/>
		<path fill="none" stroke="#7BC043" stroke-miterlimit="10" d="M66.3,92.2"/>
		<path fill="none" stroke="#7BC043" stroke-miterlimit="10" d="M66.3,42.9"/>
		<path fill="none" stroke="#7BC043" stroke-miterlimit="10" d="M66.3,40.4"/>
		<path fill="none" stroke="#7BC043" stroke-miterlimit="10" d="M66.3,66.3"/>
		<path fill="none" stroke="#7BC043" stroke-miterlimit="10" d="M66.3,69.8"/>
		<path fill="#1E1C1A" d="M1.9,66.3c0,35.5,28.8,64.3,64.3,64.3s64.3-28.8,64.3-64.3l0.2-0.3H92.2c0,14.3-11.2,25.9-25.5,25.9
			c-14.3,0-25.9-11.6-25.9-25.9h-39"/>
		<g>
			<g>
				<g>
					<path fill="#604832" d="M58.2,97.6c0-0.6,0.4-1.1,1-1.2c0.5,0,0.9,0,1.4,0c0.7-0.1,1.3,0.5,1.2,1.2c0,0.7,0,1.3,0,2
						c-0.4,0-0.8,0-1.2,0c0-0.7,0-1.3,0-2c-0.4,0-0.9,0-1.3,0c0,3.7,0,7.3,0,11c0.4,0,0.9,0,1.3,0c0-1.8,0-3.6,0-5.3
						c-0.2,0-0.4,0-0.6,0c0-0.4,0-0.7,0-1.1c0.6,0,1.2,0,1.7,0c0,2.5,0,5,0,7.5c-0.8,0-1.6,0-2.4,0c-0.5,0-0.9-0.3-1.1-0.7
						c-0.1-0.2-0.1-0.5-0.1-0.7C58.2,104.7,58.2,101.1,58.2,97.6z"/>
					<g>
						<path fill="#604832" d="M64.8,98.6c0.8,0,1.5,0,2.3,0c0.5,0,1,0.3,1.2,0.7c0.1,0.2,0.1,0.4,0.1,0.5c0,1.2,0,2.3,0,3.5
							c0,0.5-0.4,1-0.9,1.1c0.4,1.7,0.7,3.5,1.1,5.2c-0.4,0-0.7,0-1.1,0c-0.4-1.7-0.8-3.5-1.2-5.2c-0.1,0-0.3,0-0.4,0
							c0,1.7,0,3.5,0,5.2c-0.4,0-0.7,0-1.1,0C64.8,106,64.8,102.3,64.8,98.6z M65.9,99.7c0,1.2,0,2.4,0,3.6c0.4,0,0.9,0,1.3,0
							c0-1.2,0-2.4,0-3.6C66.8,99.7,66.4,99.7,65.9,99.7z"/>
					</g>
					<g>
						<path fill="#604832" d="M71.3,99.7c0-0.5,0.4-1,0.9-1c0.5,0,1,0,1.5,0c0.3,0,0.5,0.1,0.7,0.2c0.2,0.2,0.4,0.5,0.4,0.8
							c0,3.3,0,6.7,0,10c-0.4,0-0.7,0-1.1,0c0-1.7,0-3.5,0-5.2c-0.4,0-0.9,0-1.3,0c0,1.7,0,3.5,0,5.2c-0.4,0-0.7,0-1.1,0
							C71.3,106.3,71.3,103,71.3,99.7z M72.4,99.8c0,1.2,0,2.4,0,3.5c0.4,0,0.9,0,1.3,0c0-1.2,0-2.4,0-3.5
							C73.3,99.8,72.8,99.8,72.4,99.8z"/>
					</g>
					<path fill="#604832" d="M77.6,99.6c0-0.5,0.4-0.9,0.9-0.9c0.6,0,1.2,0,1.8,0c0,0.3,0,0.7,0,1c-0.6,0-1.1,0-1.7,0
						c0,1.2,0,2.5,0,3.7c0.5,0,0.9,0,1.4,0c0,0.4,0,0.7,0,1.1c-0.5,0-0.9,0-1.4,0c0,1.7,0,3.5,0,5.2c-0.4,0-0.7,0-1.1,0
						C77.6,106.3,77.6,102.9,77.6,99.6z"/>
					<path fill="#604832" d="M83.1,98.6c0.4,0,0.8,0,1.2,0c0,1,0,2,0,3.1c0.2,0.3,0.4,0.6,0.6,1c0.2-0.3,0.4-0.6,0.6-0.9
						c0-1,0-2.1,0-3.1c0.4,0,0.8,0,1.2,0c0,0.7,0,1.5,0,2.2c0,0.3,0,0.7-0.1,1c-0.3,0.7-0.6,1.3-1,1.9c0.4,0.7,0.9,1.4,1.1,2.2
						c0,1.2,0,2.5,0,3.7c-0.4,0-0.7,0-1.1,0c0-1.2,0-2.5,0-3.7c-0.2-0.4-0.5-0.7-0.7-1.1c-0.2,0.3-0.5,0.7-0.7,1c0,1.2,0,2.5,0,3.7
						c-0.4,0-0.8,0-1.1,0c0-1.2,0-2.3,0-3.5c0-0.3,0.1-0.6,0.3-0.9c0.3-0.5,0.6-1.1,0.9-1.6c-0.5-0.7-1-1.4-1.2-2.2
						C83,100.6,83.1,99.6,83.1,98.6z"/>
				</g>
				<g>
					<path fill="#604832" d="M97.9,102.5c-0.6,0-1.2,0-1.8,0c0,1.2,0,2.3,0,3.5c0.6,0,1.2,0,1.8,0C97.9,104.8,97.9,103.6,97.9,102.5
						z"/>
					<path fill="#604832" d="M100.4,106.1c0.4-1.3,0.4-2.7,0-3.9c-0.4-1.1-1.1-2-2-2.7c-1.3-0.9-2.9-1.3-4.4-1.1
						c-1.9,0.3-3.7,1.7-4.4,3.5c-0.8,1.8-0.6,3.9,0.5,5.6c1,1.6,2.9,2.6,4.8,2.6c1.3,0,2.6-0.4,3.6-1.2
						C99.3,108.1,100,107.2,100.4,106.1z M91.3,101.7l2.3,0c0.1,0.1,0.3,0.3,0.4,0.4c0,0.3,0,0.6,0,0.9c-0.2,0-0.5,0-0.7,0
						c0-0.2,0-0.4,0-0.6c-0.6,0-1.1,0-1.7,0c0,1.2,0,2.3,0,3.5c0.6,0,1.1,0,1.7,0c0-0.2,0-0.4,0-0.6c0.2,0,0.5,0,0.7,0
						c0,0.3,0,0.6,0,0.9c-0.1,0.1-0.3,0.3-0.4,0.4h-2.3l-0.4-0.4l0-4.3L91.3,101.7z M94.9,102.5v-0.8h3.4l0.4,0.4v4.3l-0.4,0.4h-3.5
						c0-0.3,0-0.5,0-0.8c0.1,0,0.3,0,0.4,0c0-1.2,0-2.3,0-3.5L94.9,102.5L94.9,102.5z"/>
				</g>
				<g>
					<path fill="#604832" d="M31.9,98.6c0.4,0,0.8,0,1.1,0c0,3.3,0,6.6,0,9.9c0.4,0,0.9,0,1.3,0c0-3.3,0-6.6,0-9.9
						c0.4,0,0.8,0,1.2,0c0,3.2,0,6.3,0,9.5c0,0.2,0,0.5,0,0.7c-0.1,0.5-0.6,0.8-1.1,0.8c-0.5,0-0.9,0-1.4,0c-0.6,0-1.1-0.6-1.1-1.2
						C31.9,105.2,31.9,101.9,31.9,98.6z"/>
					<g>
						<path fill="#604832" d="M38.3,98.6c0.8,0,1.6,0,2.4,0c0.6,0,1.2,0.4,1.2,1c0,1.2,0,2.4,0,3.6c0,0.5-0.4,1.1-0.9,1.2
							c0.4,1.7,0.7,3.5,1.1,5.2c-0.4,0-0.7,0-1.1,0c-0.4-1.7-0.8-3.4-1.2-5.2c-0.1,0-0.3,0-0.4,0c0,1.7,0,3.4,0,5.2
							c-0.4,0-0.7,0-1.1,0C38.3,106,38.3,102.3,38.3,98.6z M39.5,99.7c0,1.2,0,2.4,0,3.6c0.4,0,0.8,0,1.3,0c0-1.2,0-2.4,0-3.6
							C40.3,99.7,39.9,99.7,39.5,99.7z"/>
					</g>
					<g>
						<path fill="#604832" d="M45,98.6c0.8,0,1.7,0,2.5,0c0.5,0,1,0.4,1,1c0,1.2,0,2.3,0,3.5c0,0.3-0.2,0.6-0.5,0.8
							c0.2,0.2,0.4,0.4,0.5,0.7c0,0.5,0,1,0,1.4c0,0.7,0,1.5,0,2.2c0,0.3,0,0.6-0.1,0.9c-0.2,0.3-0.5,0.5-0.9,0.5
							c-0.8,0-1.7,0-2.5,0C45,106,45,102.3,45,98.6z M46.1,99.7c0,1.2,0,2.4,0,3.6c0.4,0,0.8,0,1.3,0c0-1.2,0-2.4,0-3.6
							C47,99.7,46.5,99.7,46.1,99.7z M46.1,104.5c0,1.4,0,2.7,0,4.1c0.4,0,0.8,0,1.3,0c0-1.4,0-2.7,0-4.1
							C47,104.5,46.5,104.5,46.1,104.5z"/>
					</g>
					<g>
						<path fill="#604832" d="M52.2,98.7c0.3-0.1,0.7-0.1,1-0.1c0.4,0,0.8,0,1.1,0.1c0.3,0.2,0.7,0.5,0.6,0.9c0,2.8,0,5.7,0,8.5
							c0,0.2,0,0.5-0.1,0.7c-0.2,0.4-0.5,0.7-0.9,0.7c-0.4,0-0.7,0-1.1,0c-0.2,0-0.4,0-0.7-0.1c-0.4-0.2-0.8-0.6-0.8-1.1
							c0-2.8,0-5.7,0-8.5c0-0.2,0-0.5,0.1-0.7C51.6,99.1,51.9,98.8,52.2,98.7z M52.6,99.7c0,2.9,0,5.9,0,8.8c0.4,0,0.8,0,1.2,0
							c0-2.9,0-5.9,0-8.8C53.4,99.7,53,99.7,52.6,99.7z"/>
					</g>
					<polygon fill="#604832" points="27.2,97.5 26.1,97.5 26.1,96.4 29.5,96.4 29.5,97.5 28.4,97.5 28.4,109.7 27.2,109.7 					"/>
				</g>
			</g>
			<g>
				<path fill-rule="evenodd" fill="#604832" d="M105.5,74.4l-4.1-4.4l-1.8,1.9l0.9,0.7L99.4,78l2.1-0.9l-1.1-0.9l0.6-2.8l4.3,4.5
					l1.5-6.1l1.5-0.8l-1.8-1L105.5,74.4L105.5,74.4z M109.1,70.7c0.1,0.1,0.3,0.3,0.3,0.5l0,0l-0.5,2.4l0,0c0,0.2-0.2,0.3-0.4,0.4
					c-0.1,0.1-0.3,0.1-0.5,0.1c0.2,0.1,0.3,0.1,0.4,0.2c0.1,0.1,0.2,0.2,0.2,0.4l0,0l-0.6,2.3l0,0c-0.1,0.2-0.3,0.4-0.5,0.5
					c-0.2,0.1-0.4,0.2-0.6,0.2l0,0h6.8l0.5-2.3l0,0c-0.3,0.5-0.5,1-1,1.3c-0.4,0.3-1.1,0.6-1.7,0.6l0,0h-1.3l0.6-2.9l0,0
					c0.2-0.1,0.5-0.1,0.7,0c0.2,0.1,0.4,0.3,0.6,0.5c0.2,0.2,0.3,0.4,0.5,0.7l0,0l0.7-3l0,0c-0.2,0.2-0.5,0.4-0.7,0.6
					c-0.3,0.2-0.6,0.3-0.8,0.4c-0.3,0.1-0.5,0.1-0.8,0l0,0l0.6-2.8l1,0l0,0c0.5,0,0.9-0.1,1.3,0.2c0.4,0.3,0.7,0.9,0.9,1.4l0,0
					l0.5-2.1h-7l0,0C108.8,70.5,109,70.6,109.1,70.7L109.1,70.7z M117.3,71.5c-0.5,0.4-1,0.9-1.3,1.5c-0.3,0.6-0.5,1.2-0.5,1.8
					c0,0.6,0.1,1.1,0.4,1.6c0.3,0.5,0.6,0.9,1.1,1.2c0.5,0.3,1,0.4,1.5,0.5c0.5,0.1,1,0.1,1.3,0c0.4,0,0.6-0.1,0.9-0.3l0,0l1.4-2.7
					l0,0c-0.4,0.2-0.8,0.3-1.1,0.5s-0.8,0.3-1.2,0.3c-0.4,0-0.9,0-1.3-0.2c-0.4-0.2-0.8-0.6-0.9-1c-0.2-0.4-0.2-0.9-0.1-1.3
					s0.4-0.8,0.7-1.2c0.3-0.3,0.7-0.6,1.1-0.8c0.4-0.2,0.7-0.3,1-0.3l0,0l1.1,1.4l1.3-0.4l-0.9-2l0,0c-0.2,0-0.5,0-0.8,0
					c-0.3,0-0.6,0.1-1,0.2c-0.4,0.1-0.7,0.2-1.2,0.4C118.4,70.8,117.8,71.1,117.3,71.5L117.3,71.5z"/>
			</g>
			<g>
				<path fill="#604832" d="M30.4,69.7c0,0.1,0,0.1,0,0.1c0,0.1,0,0.2-0.4,0.2s-0.4-0.1-0.4-0.2c0,0,0-0.3,0-0.4c0-0.1,0-0.4,0-0.4
					c0-0.1,0-0.2,0.4-0.2s0.4,0.1,0.4,0.2c0,0,0,0.1,0,0.1l0.6,0c0-0.1,0-0.2,0-0.3c0-0.3,0.1-0.6-1-0.6c-1.1,0-1,0.3-1,0.6
					c0,0.1,0,0.3,0,0.6c0,0.2,0,0.5,0,0.6c0,0.3-0.1,0.6,1,0.6c1.1,0,1-0.3,1-0.6c0-0.1,0-0.2,0-0.3H30.4L30.4,69.7z"/>
				<polygon fill="#604832" points="23.6,68.3 23,69.9 22.4,68.3 21.6,68.3 21.6,70.5 22.2,70.5 22.2,68.9 22.7,70.5 23.3,70.5 
					23.8,68.9 23.8,70.5 24.4,70.5 24.4,68.3 				"/>
				<polygon fill="#604832" points="31.1,68.3 32.7,68.3 32.7,68.9 32.2,68.9 32.2,70.5 31.7,70.5 31.7,68.9 31.1,68.9 				"/>
				<polygon fill="#604832" points="26.8,70.5 27.4,68.3 28.3,68.3 28.9,70.5 28.4,70.5 28.2,70 27.5,70 27.6,69.7 28.1,69.7 
					27.8,68.8 27.3,70.5 				"/>
				<path fill="#604832" d="M20.2,68.7c0.4,0,0.4,0.1,0.4,0.2c0,0,0,0.3,0,0.4c0,0.1,0,0.4,0,0.4c0,0.1,0,0.2-0.4,0.2
					s-0.4-0.1-0.4-0.2c0,0,0-0.3,0-0.4c0-0.1,0-0.4,0-0.4C19.8,68.8,19.8,68.7,20.2,68.7l0-0.5c-1.1,0-1,0.3-1,0.6
					c0,0.1,0,0.3,0,0.6c0,0.2,0,0.5,0,0.6c0,0.3-0.1,0.6,1,0.6c1.1,0,1-0.3,1-0.6c0-0.1,0-0.3,0-0.6c0-0.2,0-0.5,0-0.6
					c0-0.3,0.1-0.6-1-0.6L20.2,68.7z"/>
				<path fill="#604832" d="M18.3,69.7c0,0.1,0,0.1,0,0.1c0,0.1,0,0.2-0.4,0.2c-0.4,0-0.4-0.1-0.4-0.2c0,0,0-0.3,0-0.4
					c0-0.1,0-0.4,0-0.4c0-0.1,0-0.2,0.4-0.2c0.4,0,0.4,0.1,0.4,0.2c0,0,0,0.1,0,0.1l0.6,0c0-0.1,0-0.2,0-0.3c0-0.3,0.1-0.6-1-0.6
					c-1.1,0-1,0.3-1,0.6c0,0.1,0,0.3,0,0.6c0,0.2,0,0.5,0,0.6c0,0.3-0.1,0.6,1,0.6c1.1,0,1-0.3,1-0.6c0-0.1,0-0.2,0-0.3H18.3z"/>
				<path fill="#604832" d="M25.8,70l-0.3,0v-0.5l0.3,0c0.4,0,0.4-0.1,0.4-0.2c0,0,0,0,0-0.1s0-0.1,0-0.1c0-0.1,0-0.2-0.4-0.2
					l-0.3,0l0,1.7h-0.6v-2.2l0.9,0c1.1,0,1,0.3,1,0.6c0,0,0,0.2,0,0.3c0,0.1,0,0.2,0,0.3C26.8,69.7,26.9,70,25.8,70L25.8,70z"/>
				<path fill="#604832" d="M14.8,78.8l-3.5,0c-0.5,0-0.9-0.4-0.9-0.9v-5.4c0-0.5,0.4-0.9,0.9-0.9l2.2,0c0.3,0,0.5-0.2,0.5-0.5
					l0-2.1c0-0.1,0.1-0.2,0.2-0.2h1.3c0.1,0,0.2,0.1,0.2,0.2l0,9.6c0,0.1-0.1,0.2-0.2,0.2L14.8,78.8l0,0.5h0.9
					c0.3,0,0.5-0.2,0.5-0.5V68.8c0-0.3-0.2-0.5-0.5-0.5H14c-0.3,0-0.5,0.2-0.5,0.5l0,2.2c0,0.1-0.1,0.2-0.2,0.2l-2,0
					c-0.8,0-1.4,0.6-1.4,1.4l0,5.4c0,0.8,0.6,1.4,1.4,1.4l3.5,0L14.8,78.8L14.8,78.8z"/>
				<path fill="#604832" d="M13.5,76.8v-3.5c0-0.3-0.2-0.5-0.5-0.5c-0.3,0-0.5,0.2-0.5,0.5v3.7c0,0.3,0.2,0.5,0.5,0.5
					c0.3,0,0.5-0.2,0.5-0.5V76.8l0.5,0v0.3c0,0.6-0.5,1-1,1c-0.6,0-1-0.5-1-1v-3.7c0-0.6,0.5-1,1-1c0.6,0,1,0.5,1,1v3.5L13.5,76.8z"
					/>
				<path fill="#604832" d="M18.2,78.8h-0.7c-0.1,0-0.2-0.1-0.2-0.2l0-6.8c0-0.1,0.1-0.2,0.2-0.2h1.3c0.1,0,0.2,0.1,0.2,0.2l0,6.8
					c0,0.1-0.1,0.2-0.2,0.2L18.2,78.8v0.5l0.8,0c0.3,0,0.5-0.2,0.5-0.5v-7.2c0-0.3-0.2-0.5-0.5-0.5l-1.7,0c-0.3,0-0.5,0.2-0.5,0.5
					l0,7.2c0,0.3,0.2,0.5,0.5,0.5l0.9,0V78.8L18.2,78.8z"/>
				<path fill="#604832" d="M24.3,72.9l-1.4,0c-0.4,0-0.8,0.4-0.8,0.8c0,0.4,0.4,0.8,0.8,0.8l1.9,0c0.5,0,0.9,0.4,0.9,0.9l0,2.4
					c0,0.5-0.4,0.9-0.9,0.9l-3.9,0c-0.1,0-0.2-0.1-0.2-0.2v-0.9c0-0.1,0.1-0.2,0.2-0.2l2.6,0c0.4,0,0.8-0.4,0.8-0.8
					c0-0.4-0.4-0.8-0.8-0.8l-1.9,0c-0.5,0-0.9-0.4-0.9-0.9v-2.4c0-0.5,0.4-0.9,0.9-0.9l3.6,0c0.1,0,0.2,0.1,0.2,0.2v1
					c0,0.1-0.1,0.2-0.2,0.2L24.3,72.9l0,0.5l1.2,0c0.3,0,0.5-0.2,0.5-0.5l0-1.3c0-0.3-0.2-0.5-0.5-0.5l-3.8,0
					c-0.8,0-1.4,0.6-1.4,1.4v2.4c0,0.8,0.6,1.4,1.4,1.4l1.9,0c0.2,0,0.3,0.1,0.3,0.3c0,0.2-0.1,0.3-0.3,0.3l-2.8,0
					c-0.3,0-0.5,0.2-0.5,0.5v1.3c0,0.3,0.2,0.5,0.5,0.5l4.1,0c0.8,0,1.4-0.6,1.4-1.4l0-2.4c0-0.8-0.6-1.4-1.4-1.4l-1.9,0
					c-0.2,0-0.3-0.1-0.3-0.3c0-0.2,0.1-0.3,0.3-0.3h1.4L24.3,72.9z"/>
				<path fill="#604832" d="M31.4,74.3h0.6c0.1,0,0.2-0.1,0.2-0.2l0-1.6c0-0.5-0.4-0.9-0.9-0.9h-3.1c-0.5,0-0.9,0.4-0.9,0.9v5.4
					c0,0.5,0.4,0.9,0.9,0.9h3.1c0.5,0,0.9-0.4,0.9-0.9l0-1.5c0-0.1-0.1-0.2-0.2-0.2h-1.2c-0.1,0-0.2,0.1-0.2,0.2l0,0.7
					c0,0.6-0.3,1-0.9,1c-0.6,0-0.9-0.5-0.9-1v-3.7c0-0.6,0.3-1,0.9-1c0.6,0,0.9,0.5,0.9,1l0,0.7c0,0.1,0.1,0.2,0.2,0.2L31.4,74.3
					l0,0.5h-0.7c-0.3,0-0.5-0.2-0.5-0.5l0-0.9c0-0.3-0.1-0.5-0.4-0.5s-0.4,0.2-0.4,0.5v3.7c0,0.3,0.1,0.5,0.4,0.5s0.4-0.2,0.4-0.5
					l0-0.9c0-0.3,0.2-0.5,0.5-0.5h1.6c0.3,0,0.5,0.2,0.5,0.5l0,1.7c0,0.8-0.6,1.4-1.4,1.4h-3.1c-0.8,0-1.4-0.6-1.4-1.4v-5.4
					c0-0.8,0.6-1.4,1.4-1.4h3.1c0.8,0,1.4,0.6,1.4,1.4l0,1.8c0,0.3-0.2,0.5-0.5,0.5h-0.8L31.4,74.3L31.4,74.3z"/>
			</g>
		</g>
		<g>
			<path d="M66.3,92.2c-14.3,0-25.9-11.6-25.9-25.9S52,40.4,66.3,40.4c14.3,0,25.9,11.6,25.9,25.9S80.6,92.2,66.3,92.2z M66.3,41.2
				c-13.9,0-25.1,11.3-25.1,25.1c0,13.9,11.3,25.1,25.1,25.1s25.1-11.3,25.1-25.1C91.4,52.4,80.1,41.2,66.3,41.2z"/>
		</g>
		<g>
			<path fill="#AA9885" d="M91.8,66.3c0,14.1-11.4,25.5-25.5,25.5S40.8,80.4,40.8,66.3s11.4-25.5,25.5-25.5S91.8,52.2,91.8,66.3z
				 M66.3,44.1C54,44.1,44.1,54,44.1,66.3S54,88.5,66.3,88.5s22.2-9.9,22.2-22.2S78.5,44.1,66.3,44.1z"/>
		</g>
	</g>
</g>
</svg>
