<?xml version="1.0" encoding="UTF-8" standalone="no"?>
<svg
   xmlns:dc="http://purl.org/dc/elements/1.1/"
   xmlns:cc="http://creativecommons.org/ns#"
   xmlns:rdf="http://www.w3.org/1999/02/22-rdf-syntax-ns#"
   xmlns:svg="http://www.w3.org/2000/svg"
   xmlns="http://www.w3.org/2000/svg"
   xmlns:sodipodi="http://sodipodi.sourceforge.net/DTD/sodipodi-0.dtd"
   xmlns:inkscape="http://www.inkscape.org/namespaces/inkscape"
   viewBox="0 0 173.10001 173.5"
   height="173.5"
   width="173.10001"
   xml:space="preserve"
   version="1.1"
   id="svg2"
   inkscape:version="0.91 r13725"
   sodipodi:docname="game.svg"><sodipodi:namedview
     pagecolor="#ffffff"
     bordercolor="#666666"
     borderopacity="1"
     objecttolerance="10"
     gridtolerance="10"
     guidetolerance="10"
     inkscape:pageopacity="0"
     inkscape:pageshadow="2"
     inkscape:window-width="1920"
     inkscape:window-height="1027"
     id="namedview40"
     showgrid="false"
     inkscape:zoom="1.9236565"
     inkscape:cx="86.550003"
     inkscape:cy="65.956267"
     inkscape:window-x="-8"
     inkscape:window-y="-8"
     inkscape:window-maximized="1"
     inkscape:current-layer="svg2" /><metadata
     id="metadata8"><rdf:RDF><cc:Work
         rdf:about=""><dc:format>image/svg+xml</dc:format><dc:type
           rdf:resource="http://purl.org/dc/dcmitype/StillImage" /><dc:title /></cc:Work></rdf:RDF></metadata><defs
     id="defs6"><clipPath
       id="clipPath16"
       clipPathUnits="userSpaceOnUse"><path
         id="path18"
         d="m 0,138.8 138.48,0 L 138.48,0 0,0 0,138.8 Z" /></clipPath></defs><g
     transform="matrix(1.25,0,0,-1.25,0,173.5)"
     id="g10"><g
       id="g12"><g
         clip-path="url(#clipPath16)"
         id="g14"><g
           transform="translate(138.3711,137.3135)"
           id="g20"><path
             id="path22"
             style="fill:#3a3a3a;fill-opacity:1;fill-rule:nonzero;stroke:none"
             d="m 0,0 c 0,0.821 -0.666,1.486 -1.486,1.486 l -135.346,0 c -0.822,0 -1.487,-0.665 -1.487,-1.486 l 0,-135.827 c 0,-0.821 0.665,-1.487 1.487,-1.487 l 135.346,0 c 0.82,0 1.486,0.666 1.486,1.487 L 0,0 Z" /></g><g
           transform="translate(69.1592,114.9473)"
           id="g24"><path
             id="path26"
             style="fill:#333333;fill-opacity:1;fill-rule:nonzero;stroke:none"
             d="m 0,0 40.938,0 c 10.947,0 19.821,-8.874 19.821,-19.82 l 0,-14.399 c 0,0 8.133,-1.092 8.4,3.998 0,-4.019 -7.517,-3.648 -7.517,-3.008 l 0,21.1 c 0,10.947 -8.873,19.82 -19.821,19.82 l -41.821,0 -0.001,0 -41.82,0 c -10.948,0 -19.823,-8.873 -19.823,-19.82 l 0,-21.1 c 0,-0.64 -7.515,-1.011 -7.515,3.008 0.267,-5.09 8.399,-3.998 8.399,-3.998 l 0,14.399 C -60.76,-8.874 -51.886,0 -40.938,0 L 0,0 Z" /></g><g
           transform="translate(69.1582,29.0176)"
           id="g28"><path
             id="path30"
             style="fill:#282828;fill-opacity:1;fill-rule:nonzero;stroke:none"
             d="m 0,0 54.301,0 c 0,0 4.021,-0.086 4.021,3.322 l 0,65.198 c 0,8.211 -6.656,14.866 -14.866,14.866 l -43.171,0 -0.515,0 -43.172,0 c -8.21,0 -14.866,-6.655 -14.866,-14.866 l 0,-65.198 c 0,-3.408 4.02,-3.322 4.02,-3.322 L 0.053,0 0,0 Z" /></g><g
           transform="translate(49.0273,6.4336)"
           id="g32"><path
             id="path34"
             style="fill:#333333;fill-opacity:1;fill-rule:nonzero;stroke:none"
             d="m 0,0 c -3.958,0 -7.168,3.21 -7.168,7.168 0,3.959 3.21,7.167 7.168,7.167 l 40.25,0 c 3.959,0 7.168,-3.208 7.168,-7.167 C 47.418,3.21 44.209,0 40.25,0 L 0,0 Z" /></g><g
           transform="translate(36.3242,120.1826)"
           id="g36"><path
             id="path38"
             style="fill:none;stroke:#404140;stroke-width:1.398;stroke-linecap:round;stroke-linejoin:miter;stroke-miterlimit:10;stroke-dasharray:none;stroke-opacity:1"
             d="M 0,0 65.992,0" /></g><g
           transform="translate(36.3242,116.7735)"
           id="g40"><path
             id="path42"
             style="fill:none;stroke:#404140;stroke-width:1.398;stroke-linecap:round;stroke-linejoin:miter;stroke-miterlimit:10;stroke-dasharray:none;stroke-opacity:1"
             d="M 0,0 65.992,0" /></g><g
           transform="translate(76.543,19.2334)"
           id="g44"><path
             id="path46"
             style="fill:#3a3a3a;fill-opacity:1;fill-rule:evenodd;stroke:none"
             d="m 0,0 0,-1.44 c -0.029,-0.002 -0.057,-0.004 -0.084,-0.004 -1.565,0 -3.131,-0.004 -4.697,0.002 -0.672,0.002 -1.276,-0.466 -1.432,-1.115 -0.027,-0.111 -0.043,-0.227 -0.044,-0.34 -0.003,-1.557 -0.003,-3.112 -0.001,-4.668 0,-0.709 0.537,-1.328 1.24,-1.434 0.082,-0.014 0.167,-0.021 0.25,-0.021 l 3.247,0 c 0.085,0 0.085,0 0.085,0.085 l 0,3.797 c 0,0.09 0,0.09 -0.087,0.09 l -2.504,0 c -0.078,0 -0.078,0 -0.078,0.074 l 0,1.305 0,0.061 4.109,0 0,-5.83 c 0.007,-10e-4 0.014,-0.003 0.019,-0.004 0.009,0.02 0.02,0.039 0.026,0.059 0.279,0.818 0.556,1.636 0.835,2.452 0.352,1.038 0.707,2.077 1.06,3.116 0.285,0.838 0.564,1.677 0.854,2.513 0.223,0.645 0.673,1.084 1.306,1.315 0.884,0.318 1.708,0.183 2.437,-0.422 0.317,-0.264 0.514,-0.608 0.645,-0.998 0.576,-1.725 1.159,-3.447 1.739,-5.17 0.429,-1.273 0.858,-2.545 1.287,-3.816 0.006,-0.02 0.011,-0.04 0.018,-0.067 -0.026,-0.002 -0.046,-0.004 -0.066,-0.004 -1.916,0 -3.83,0 -5.745,-0.002 -0.058,0 -0.071,0.016 -0.071,0.073 0.002,0.434 0.002,0.87 0.002,1.304 l 0,0.069 3.881,0 C 8.209,-8.948 8.189,-8.888 8.168,-8.828 7.475,-6.779 6.781,-4.731 6.087,-2.683 5.969,-2.337 5.852,-1.989 5.734,-1.643 5.627,-1.328 5.31,-1.106 4.971,-1.108 4.621,-1.11 4.309,-1.328 4.201,-1.643 3.783,-2.876 3.365,-4.109 2.947,-5.341 2.428,-6.875 1.906,-8.409 1.387,-9.944 c -0.053,-0.151 -0.108,-0.3 -0.154,-0.452 -0.016,-0.056 -0.044,-0.067 -0.096,-0.067 -0.41,0.002 -0.823,10e-4 -1.234,10e-4 -1.56,0 -3.12,0.005 -4.679,-10e-4 -1.249,-0.005 -2.378,0.788 -2.785,1.984 -0.099,0.293 -0.151,0.593 -0.151,0.901 -0.003,1.563 -0.003,3.128 -0.001,4.691 0.002,1.357 0.987,2.56 2.316,2.824 0.198,0.039 0.402,0.06 0.602,0.06 C -3.225,0.002 -1.654,0 -0.085,0 L 0,0 Z" /></g><g
           transform="translate(51.6543,10.5703)"
           id="g48"><path
             id="path50"
             style="fill:#3a3a3a;fill-opacity:1;fill-rule:evenodd;stroke:none"
             d="m 0,0 0,1.443 0.083,0 c 1.497,0 2.995,0 4.493,10e-4 0.032,0 0.067,0.003 0.098,0.011 0.08,0.022 0.128,0.092 0.125,0.182 C 4.795,1.718 4.739,1.784 4.656,1.799 4.624,1.805 4.59,1.807 4.558,1.807 4.141,1.808 3.725,1.801 3.306,1.811 2.547,1.828 1.869,2.083 1.277,2.559 0.613,3.092 0.197,3.781 0.051,4.62 -0.127,5.65 0.111,6.588 0.77,7.404 1.282,8.039 1.949,8.438 2.751,8.596 2.965,8.639 3.188,8.66 3.406,8.66 4.927,8.666 6.447,8.663 7.969,8.663 l 0.076,0 0,-1.45 -0.083,0 c -1.511,0 -3.023,0.002 -4.532,0 C 2.499,7.213 1.701,6.587 1.5,5.68 1.349,5.006 1.514,4.404 1.977,3.893 2.299,3.535 2.705,3.33 3.182,3.273 3.363,3.252 3.547,3.258 3.73,3.256 4.044,3.25 4.357,3.249 4.671,3.246 5.381,3.239 6.018,2.736 6.2,2.037 6.442,1.111 5.837,0.178 4.893,0.023 4.793,0.008 4.691,0 4.59,0 3.084,-0.002 1.579,0 0.073,0 L 0,0 Z" /></g><g
           transform="translate(51.6504,10.2227)"
           id="g52"><path
             id="path54"
             style="fill:#3a3a3a;fill-opacity:1;fill-rule:evenodd;stroke:none"
             d="M 0,0 0.086,0 4.637,0 C 5.592,0 6.411,0.682 6.586,1.622 6.781,2.669 6.075,3.707 5.029,3.914 4.787,3.963 4.541,3.955 4.295,3.957 4.002,3.961 3.707,3.959 3.412,3.963 2.605,3.976 1.953,4.549 1.829,5.333 1.698,6.17 2.225,6.956 3.045,7.154 3.162,7.182 3.285,7.195 3.404,7.195 4.934,7.199 6.461,7.197 7.99,7.197 l 0.061,0 C 8.054,7.184 8.059,7.172 8.059,7.162 8.055,6.722 8.049,6.281 8.049,5.84 8.049,5.772 8.021,5.766 7.967,5.766 6.479,5.768 4.992,5.768 3.504,5.768 c -0.035,0 -0.07,0 -0.105,-0.005 C 3.313,5.752 3.252,5.683 3.247,5.596 3.242,5.477 3.313,5.398 3.433,5.398 3.642,5.398 3.85,5.404 4.059,5.403 4.361,5.402 4.664,5.416 4.965,5.389 5.645,5.33 6.256,5.077 6.787,4.646 7.419,4.133 7.832,3.477 7.994,2.678 8.205,1.633 7.98,0.678 7.319,-0.162 6.804,-0.818 6.126,-1.223 5.31,-1.396 5.08,-1.443 4.848,-1.462 4.613,-1.462 3.104,-1.463 1.595,-1.463 0.086,-1.463 0,-1.463 0,-1.463 0,-1.376 L 0,-0.077 0,0 Z" /></g><g
           transform="translate(68.2695,19.2334)"
           id="g56"><path
             id="path58"
             style="fill:#3a3a3a;fill-opacity:1;fill-rule:evenodd;stroke:none"
             d="m 0,0 0,-1.44 c -0.028,-0.001 -0.057,-0.004 -0.084,-0.004 l -4.861,0 c -0.711,0 -1.321,-0.505 -1.448,-1.205 -0.015,-0.083 -0.023,-0.17 -0.023,-0.254 l 0,-4.64 c 0,-0.749 0.534,-1.362 1.273,-1.464 0.075,-0.01 0.152,-0.013 0.227,-0.013 l 4.814,0 c 0.086,0 0.086,0 0.086,-0.086 0,-0.426 -0.001,-0.853 0.002,-1.281 0,-0.058 -0.015,-0.076 -0.076,-0.076 -1.632,0.002 -3.264,-0.001 -4.895,0.002 -1.357,0.004 -2.544,0.989 -2.812,2.321 -0.042,0.206 -0.06,0.413 -0.06,0.622 0,1.523 0.002,3.046 0,4.569 -10e-4,0.751 0.24,1.415 0.74,1.977 0.437,0.493 0.984,0.801 1.633,0.92 0.187,0.035 0.379,0.049 0.569,0.049 C -3.305,0.001 -1.695,0 -0.084,0 L 0,0 Z" /></g><g
           transform="translate(80.9863,12.168)"
           id="g60"><path
             id="path62"
             style="fill:#3a3a3a;fill-opacity:1;fill-rule:evenodd;stroke:none"
             d="m 0,0 c 0.301,-0.001 0.672,0 0.973,0 l 0.08,0 C 0.878,0.523 0.708,1.03 0.538,1.538 l -0.017,0 C 0.514,1.518 0.504,1.496 0.498,1.477 0.34,1.008 0.182,0.541 0.023,0.072 L 0,0 Z m -0.09,-0.26 c -0.316,-0.935 -0.676,-1.988 -0.992,-2.922 -0.02,-0.055 -0.04,-0.11 -0.057,-0.166 -0.009,-0.037 -0.029,-0.049 -0.066,-0.048 -0.069,0.002 -0.14,0 -0.21,0 -0.45,0 -0.901,0 -1.352,10e-4 -0.024,0 -0.049,10e-4 -0.083,0.002 0.009,0.031 0.016,0.054 0.024,0.077 0.506,1.496 1.013,2.991 1.519,4.486 0.462,1.367 0.924,2.734 1.388,4.102 C 0.189,5.593 0.549,5.711 0.808,5.515 0.89,5.453 0.943,5.37 0.977,5.273 1.369,4.104 1.764,2.934 2.158,1.762 2.529,0.662 2.898,-0.437 3.27,-1.539 3.276,-1.557 3.283,-1.574 3.291,-1.602 l -3.384,0 c 0,0.424 0.003,0.921 0.003,1.342" /></g><g
           transform="translate(76.5469,15.9903)"
           id="g64"><path
             id="path66"
             style="fill:#3a3a3a;fill-opacity:1;fill-rule:evenodd;stroke:none"
             d="m 0,0 -0.072,0 -3.96,0 C -4.066,0 -4.099,0 -4.133,-0.003 -4.334,-0.02 -4.459,-0.152 -4.459,-0.355 l 0,-3.27 c 0,-0.182 0.147,-0.333 0.334,-0.34 0.167,-0.004 0.336,-0.002 0.502,-0.004 0.106,0 0.212,-0.003 0.316,-0.009 0.053,-10e-4 0.069,0.019 0.067,0.07 -0.004,0.076 -0.004,0.155 0,0.232 0.002,0.049 -0.018,0.065 -0.065,0.065 -0.242,-0.002 -0.484,-0.002 -0.725,-10e-4 -0.079,0 -0.079,0 -0.079,0.075 l 0,1.316 c 0,0.017 0.002,0.033 0.002,0.055 l 2.303,0 c 0.001,-0.025 0.003,-0.049 0.003,-0.071 l 0,-3.107 c 0,-0.076 0,-0.076 -0.074,-0.076 -0.962,0 -1.924,-0.002 -2.885,0 -0.546,0 -0.995,0.35 -1.115,0.869 -0.018,0.076 -0.028,0.155 -0.028,0.233 -0.001,1.552 -0.001,3.107 -0.001,4.66 0.001,0.543 0.42,1.015 0.957,1.088 0.067,0.007 0.136,0.011 0.203,0.011 l 4.657,0 C 0.01,1.441 0,1.451 0,1.354 L 0,0.078 0,0 Z" /></g><g
           transform="translate(63.666,15.6279)"
           id="g68"><path
             id="path70"
             style="fill:#3a3a3a;fill-opacity:1;fill-rule:evenodd;stroke:none"
             d="M 0,0 3.541,0 C 3.543,-0.03 3.549,-0.056 3.549,-0.083 3.551,-0.487 3.553,-0.89 3.555,-1.294 l 0,-0.006 c 0,-0.142 0,-0.142 -0.142,-0.142 l -4.767,0 -0.087,0 0,0.072 c 0,0.684 0,1.368 0.001,2.053 0,0.547 0.356,0.987 0.889,1.1 0.08,0.017 0.166,0.021 0.25,0.021 l 4.832,0 0.076,0 0,-0.075 0,-1.287 c 0,-0.08 0,-0.08 -0.08,-0.08 l -4.119,0 C 0.366,0.362 0.323,0.36 0.28,0.357 0.111,0.34 -0.018,0.181 0,0" /></g><g
           transform="translate(63.6641,12.3779)"
           id="g72"><path
             id="path74"
             style="fill:#3a3a3a;fill-opacity:1;fill-rule:evenodd;stroke:none"
             d="M 0,0 C -0.012,-0.214 0.129,-0.355 0.348,-0.363 0.365,-0.364 0.383,-0.364 0.4,-0.364 l 4.106,0 c 0.084,0 0.084,0 0.084,-0.08 l 0,-1.276 c 0,-0.076 0,-0.076 -0.077,-0.076 l -4.843,0 c -0.564,0 -1.025,0.403 -1.102,0.962 -0.007,0.052 -0.006,0.105 -0.006,0.157 -0.001,0.679 -0.001,1.358 -0.001,2.035 0,0.081 0,0.081 0.08,0.081 l 4.837,0 c 0.085,0 0.081,0 0.081,-0.084 C 3.556,1.075 3.556,0.794 3.555,0.514 3.554,0.369 3.551,0.225 3.551,0.081 3.549,0 3.549,0 3.471,0 L 0.09,0 0,0 Z" /></g><g
           transform="translate(69.3203,122.543)"
           id="g76"><path
             id="path78"
             style="fill:#404140;fill-opacity:1;fill-rule:nonzero;stroke:none"
             d="m 0,0 41.822,0 c 10.947,0 19.821,-8.875 19.821,-19.822 l 0,-21.1 c 0,-0.64 7.517,-1.012 7.517,3.01 l 0,52.683 c 0,0.82 -0.666,1.486 -1.486,1.486 l -67.674,0 -67.673,0 c -0.821,0 -1.486,-0.666 -1.486,-1.486 l 0,-52.683 c 0,-4.022 7.516,-3.65 7.516,-3.01 l 0,21.1 C -61.643,-8.875 -52.769,0 -41.821,0 L 0,0 Z" /></g></g></g></g><g
     id="g4379"
     transform="matrix(0.13807107,0,0,0.13807107,31.653737,58.214048)"><path
       style="fill:#ff0000"
       inkscape:connector-curvature="0"
       id="path9"
       d="m 338.83098,17.757019 c -20.41063,0 -37.15028,-16.5928117 -37.15028,-37.150278 0,-20.557466 16.59281,-37.150278 37.15028,-37.150278 20.41063,0 37.15028,16.592812 37.15028,37.150278 0,20.5574663 -16.59281,37.150278 -37.15028,37.150278 z m 0,-59.029296 c -12.0408,0 -21.87902,9.838216 -21.87902,21.879018 0,12.0408017 9.83822,21.8790177 21.87902,21.8790177 12.0408,0 21.87902,-9.838216 21.87902,-21.8790177 0,-12.040802 -9.83822,-21.879018 -21.87902,-21.879018 z"
       class="st0" /><path
       style="fill:#ff5ddc"
       inkscape:connector-curvature="0"
       id="path11"
       d="m 463.05681,20.106444 c -0.29368,0 -0.73419,0 -1.02787,0 l -56.3862,-7.341952 C 403.587,12.470814 401.82493,11.442941 400.65022,9.827711 399.4755,8.2124815 398.88815,6.1567349 399.18183,4.2478273 l 7.34195,-56.3861933 c 0.58736,-4.111493 4.40517,-7.048274 8.51666,-6.607757 l 56.3862,7.341952 c 2.05574,0.293678 3.81781,1.321552 4.99252,2.936781 1.17472,1.61523 1.76207,3.670976 1.4684,5.579884 l -7.34196,56.386193 c -0.44051,3.817815 -3.67097,6.607757 -7.48879,6.607757 z m -47.72269,-21.5853395 41.11493,5.4330447 5.43305,-41.1149322 -41.11493,-5.433045 -5.43305,41.1149325 z"
       class="st1" /><path
       style="fill:#027fe1"
       inkscape:connector-curvature="0"
       id="path13"
       d="m 339.85885,-75.045257 c -0.58735,0 -1.02787,0 -1.61523,-0.146839 -4.11149,-0.881035 -6.75459,-4.845689 -5.87356,-8.957182 l 12.0408,-57.707742 c 0.88104,-4.1115 4.84569,-6.7546 8.95718,-5.87356 4.1115,0.88103 6.7546,4.84568 5.87357,8.95718 l -12.04081,57.707742 c -0.58735,3.524137 -3.81781,6.020401 -7.34195,6.020401 z"
       class="st2" /><path
       style="fill:#027fe1"
       inkscape:connector-curvature="0"
       id="path15"
       d="m 339.85885,-75.045257 c -0.58735,0 -1.02787,0 -1.61523,-0.146839 -4.11149,-0.881035 -6.75459,-4.845689 -5.87356,-8.957182 l 12.0408,-57.707742 c 0.88104,-4.1115 4.84569,-6.7546 8.95718,-5.87356 4.1115,0.88103 6.7546,4.84568 5.87357,8.95718 l -12.04081,57.707742 c -0.58735,3.524137 -3.81781,6.020401 -7.34195,6.020401 z"
       class="st2" /><path
       style="fill:#027fe1"
       inkscape:connector-curvature="0"
       id="path17"
       d="m 374.80655,-97.952148 c -0.58736,0 -1.02788,0 -1.61523,-0.146839 l -57.70775,-12.040803 c -4.11149,-0.88103 -6.7546,-4.84569 -5.87356,-8.95718 0.88103,-4.11149 4.84569,-6.7546 8.95718,-5.87356 l 57.70775,12.0408 c 4.11149,0.88103 6.75459,4.84569 5.87356,8.95718 -0.7342,3.52414 -3.81782,6.020402 -7.34195,6.020402 z"
       class="st2" /><path
       style="fill:#8aee49"
       inkscape:connector-curvature="0"
       id="path19"
       d="m 414.45309,-79.15675 c -1.90891,0 -3.67098,-0.734196 -4.99253,-1.908908 -2.05575,-1.762069 -2.93678,-4.55201 -2.34942,-7.195113 l 10.42557,-49.631599 c 0.58735,-2.6431 2.49626,-4.84569 4.99253,-5.57988 2.49626,-0.88104 5.43304,-0.29368 7.48879,1.46839 l 38.03131,33.4793 c 2.05575,1.76207 2.93678,4.55201 2.34942,7.19511 -0.58735,2.643107 -2.49626,4.845692 -4.99252,5.726726 l -48.45689,16.005456 c -1.02787,0.293678 -1.76207,0.440518 -2.49626,0.440518 z m 15.12442,-42.877 -4.99253,23.934763 23.34741,-7.782473 -18.35488,-16.15229 z"
       class="st3" /><path
       style="fill:#808080"
       inkscape:connector-curvature="0"
       id="path21"
       d="M 667.75044,304.09316 620.02775,139.48659 c -2.20258,-7.78247 -10.71925,-14.09655 -18.7954,-14.09655 l -423.19013,0 c -8.07614,0 -16.44597,6.31408 -18.79539,14.09655 L 112.11149,303.21212 C 109.90891,310.99459 108,323.91643 108,331.99258 l 0,184.72352 c 0,8.07614 6.60776,14.6839 14.6839,14.6839 l 534.49413,0 c 8.07615,0 14.6839,-6.60776 14.6839,-14.6839 l 0,-183.84249 c 0,-8.07615 -1.9089,-20.99798 -4.11149,-28.78045 z M 617.972,288.67506 161.74309,288.0877 c -8.07615,0 -12.92184,-6.31408 -10.57241,-14.09655 L 181.41952,168.8544 c 2.20259,-7.78247 10.71925,-14.09655 18.7954,-14.09655 l 378.99158,0 c 8.07614,0 16.59281,6.31408 18.79539,14.09655 l 30.68936,105.72411 c 2.20259,7.78247 -2.6431,14.09655 -10.71925,14.09655 z"
       class="st4" /><path
       style="fill:#ffffff"
       d="m 160.42154,435.80778 -22.90689,0 0,-38.32499 61.23188,0 0,7.63563 -38.32499,0 0,30.68936 0,0 z"
       class="st5"
       inkscape:connector-curvature="0"
       id="path3079_4_" /><path
       style="fill:#ffffff"
       d="m 229.28905,428.02531 38.32499,0 0,7.63563 -61.23188,0 0,-38.32499 61.23188,0 0,22.90689 -38.32499,0 0,7.78247 z m 0,-15.27126 15.27126,0 0,-7.63563 -15.27126,0 0,7.63563 z"
       class="st5"
       inkscape:connector-curvature="0"
       id="path3081_4_" /><path
       style="fill:#ffffff"
       d="m 298.15656,428.02531 38.32499,0 0,7.63563 -61.23188,0 0,-38.32499 61.23188,0 0,7.63563 -38.32499,0 0,23.05373 z"
       class="st5"
       inkscape:connector-curvature="0"
       id="path3083_4_" /><path
       style="fill:#ffffff"
       d="m 343.97035,397.48279 61.23188,0 0,38.32499 -61.23188,0 0,-22.90689 38.32499,0 0,-7.63563 -38.32499,0 0,-7.78247 z m 23.05373,30.54252 15.27126,0 0,-7.63563 -15.27126,0 0,7.63563 z"
       class="st5"
       inkscape:connector-curvature="0"
       id="path3085_4_" /><path
       style="fill:#ffffff"
       d="m 412.83786,366.94027 22.90689,0 0,68.86751 -22.90689,0 0,-68.86751 z"
       class="st5"
       inkscape:connector-curvature="0"
       id="path3087_4_" /><path
       style="fill:#ffffff"
       d="m 443.52722,366.94027 22.90689,0 0,30.54252 38.32499,0 0,38.32499 -61.23188,0 0,-68.86751 z m 22.90689,61.08504 15.27126,0 0,-22.90689 -15.27126,0 0,22.90689 z"
       class="st5"
       inkscape:connector-curvature="0"
       id="path3089_4_" /><path
       style="fill:#ffffff"
       d="m 512.39473,397.48279 61.23188,0 0,38.32499 -61.23188,0 0,-38.32499 z m 22.90689,30.54252 15.27126,0 0,-22.90689 -15.27126,0 0,22.90689 z"
       class="st5"
       inkscape:connector-curvature="0"
       id="path3091_4_" /><path
       style="fill:#ffffff"
       d="m 588.89787,420.38968 7.63563,0 0,-7.63563 -7.63563,0 0,-7.63563 -7.63563,0 0,-7.63563 22.90689,0 0,7.63563 15.27126,0 0,-7.63563 22.9069,0 0,7.63563 -7.63563,0 0,7.63563 -7.63563,0 0,7.63563 7.63563,0 0,7.63563 7.63563,0 0,7.63563 -22.9069,0 0,-7.63563 -15.27126,0 0,7.63563 -22.90689,0 0,-7.63563 7.63563,0 0,-7.63563 z"
       class="st5"
       inkscape:connector-curvature="0"
       id="path3093_4_" /><path
       style="fill:#ffffff"
       inkscape:connector-curvature="0"
       id="path31"
       d="M 580.08753,185.15353 C 579.50017,157.25411 578.76598,148.29693 576.12288,137.284 567.31253,100.28056 552.04127,71.353271 529.42806,48.886897 498.44502,18.050698 460.56055,15.113917 416.80251,40.076554 l -10.13189,5.873562 C 391.10568,45.803277 373.19132,44.922243 369.3735,43.89437 366.43672,41.985462 359.9758,38.461325 355.13011,35.965061 325.17495,21.134318 297.86289,19.519088 273.92812,31.266212 242.06405,46.83115 214.31147,89.267635 203.1517,139.48659 c -3.23046,14.53706 -3.52414,19.08907 -3.3773,55.21148 0.14684,40.96809 1.02788,48.45688 7.34196,61.08504 6.0204,12.0408 14.97758,20.11695 28.33993,25.25632 3.3773,1.32155 6.90144,1.90891 10.71925,1.90891 21.4385,0 49.77844,-20.11695 74.15372,-53.7431 l 7.19511,-9.83821 124.96003,0 7.19511,9.83821 c 18.94224,26.28419 50.80631,54.18361 72.24481,54.18361 16.29914,0 32.89195,-11.45344 41.26178,-28.48677 6.31407,-13.94971 7.9293,-28.33994 6.90143,-69.74855 z"
       class="st5" /><path
       style="fill:#808080"
       inkscape:connector-curvature="0"
       id="path33"
       d="m 574.36081,185.30037 c -0.58736,-27.4589 -1.32155,-36.1224 -3.81782,-46.69482 -8.6635,-36.1224 -23.20057,-63.874981 -45.07958,-85.60716 C 496.24244,23.924259 461.44158,21.281157 419.73929,45.069082 l -11.60028,6.607757 c 0,0 -38.32499,-0.440517 -41.55545,-2.789942 -2.20259,-1.46839 -8.51667,-4.992527 -14.09655,-7.782469 -28.33994,-14.096549 -53.74309,-15.711778 -76.20946,-4.69885 -30.24885,14.830744 -56.82671,55.798837 -67.83964,104.402562 -3.08362,13.94971 -3.3773,18.35488 -3.23046,54.03677 0.14684,40.08706 0.88103,46.84165 6.75459,58.44194 5.28621,10.71925 13.36236,17.76752 25.25632,22.46637 l 0,0 c 19.23591,7.48879 51.5405,-13.06867 78.11837,-49.92527 l 8.95718,-12.33448 130.83359,0 8.95718,12.33448 c 20.99799,29.07413 50.65948,51.83418 67.54597,51.83418 13.94971,0 28.78045,-10.27873 35.97556,-25.25632 6.31408,-12.92183 7.78247,-26.87154 6.7546,-67.10544 z m -233.03357,-52.56838 -19.82327,0 0,19.82327 c 0,6.16724 -5.13936,11.30661 -11.3066,11.30661 -6.16724,0 -11.30661,-5.13937 -11.30661,-11.30661 l 0,-19.82327 -19.82327,0 c -6.16724,0 -11.30661,-5.13936 -11.30661,-11.3066 0,-6.16724 5.13937,-11.30661 11.30661,-11.30661 l 19.82327,0 0,-19.823272 c 0,-6.16724 5.13937,-11.306607 11.30661,-11.306607 6.16724,0 11.3066,5.139367 11.3066,11.306607 l 0,19.823272 19.82327,0 c 6.16724,0 11.30661,5.13937 11.30661,11.30661 -0.14684,6.31407 -5.13937,11.3066 -11.30661,11.3066 z M 487.28525,70.765915 c 9.54454,0 17.32701,7.782469 17.32701,17.327007 0,9.544538 -7.78247,17.327008 -17.32701,17.327008 -9.54453,0 -17.327,-7.78247 -17.327,-17.327008 0.14684,-9.544538 7.78247,-17.327007 17.327,-17.327007 z M 431.0459,104.24522 c 0,-9.544541 7.78247,-17.32701 17.32701,-17.32701 9.54454,0 17.327,7.782469 17.327,17.32701 0,9.54454 -7.78246,17.327 -17.327,17.327 -9.54454,0 -17.32701,-7.78246 -17.32701,-17.327 z m 35.97557,58.58878 c -9.54454,0 -17.32701,-7.78247 -17.32701,-17.32701 0,-9.54454 7.78247,-17.32701 17.32701,-17.32701 9.54453,0 17.327,7.78247 17.327,17.32701 0,9.54454 -7.78247,17.32701 -17.327,17.32701 z m 36.41608,-17.32701 c -9.54454,0 -17.32701,-7.78247 -17.32701,-17.32701 0,-9.54454 7.78247,-17.32701 17.32701,-17.32701 9.54454,0 17.32701,7.78247 17.32701,17.32701 0,9.69138 -7.78247,17.32701 -17.32701,17.32701 z"
       class="st4" /><g
       transform="matrix(2.0751218,0,0,2.0751218,-336.96336,-563.55356)"
       id="g35"><path
         style="fill:#d40000"
         d="m 403.4,511.6 0,0 0,0 z"
         class="st6"
         inkscape:connector-curvature="0"
         id="path3_1_" /><path
         style="fill:#d40000"
         d="m 403.4,504.7 0,0 0,0 z"
         class="st6"
         inkscape:connector-curvature="0"
         id="path5_1_" /><path
         style="fill:#d40000"
         d="m 403.4,497.9 0,0 0,0 z"
         class="st6"
         inkscape:connector-curvature="0"
         id="path7_1_" /><path
         style="fill:#d40000"
         d="m 403.4,501.3 0,0 0,0 z"
         class="st6"
         inkscape:connector-curvature="0"
         id="path9_1_" /><path
         style="fill:#d40000"
         d="m 403.4,515 0,0 0,0 z"
         class="st6"
         inkscape:connector-curvature="0"
         id="path11_1_" /><path
         style="fill:#d40000"
         d="m 403.4,508.1 0,0 0,0 z"
         class="st6"
         inkscape:connector-curvature="0"
         id="path13_1_" /><path
         style="fill:#d40000"
         d="m 403.4,494.5 0,0 0,0 z"
         class="st6"
         inkscape:connector-curvature="0"
         id="path15_1_" /></g></g></svg>