<?xml version="1.0" encoding="UTF-8" standalone="no"?>
<!-- Generator: Adobe Illustrator 16.0.3, SVG Export Plug-In . SVG Version: 6.00 Build 0)  -->

<svg
   xmlns:dc="http://purl.org/dc/elements/1.1/"
   xmlns:cc="http://creativecommons.org/ns#"
   xmlns:rdf="http://www.w3.org/1999/02/22-rdf-syntax-ns#"
   xmlns:svg="http://www.w3.org/2000/svg"
   xmlns="http://www.w3.org/2000/svg"
   xmlns:sodipodi="http://sodipodi.sourceforge.net/DTD/sodipodi-0.dtd"
   xmlns:inkscape="http://www.inkscape.org/namespaces/inkscape"
   version="1.1"
   id="Layer_1"
   x="0px"
   y="0px"
   width="30"
   height="30"
   viewBox="0 0 29.999999 30"
   enable-background="new 0 0 566.929 67.639"
   xml:space="preserve"
   inkscape:version="0.91 r13725"
   sodipodi:docname="icon_empty.svg"><metadata
     id="metadata24"><rdf:RDF><cc:Work
         rdf:about=""><dc:format>image/svg+xml</dc:format><dc:type
           rdf:resource="http://purl.org/dc/dcmitype/StillImage" /><dc:title></dc:title></cc:Work></rdf:RDF></metadata><defs
     id="defs22" /><sodipodi:namedview
     pagecolor="#ffffff"
     bordercolor="#666666"
     borderopacity="1"
     objecttolerance="10"
     gridtolerance="10"
     guidetolerance="10"
     inkscape:pageopacity="0"
     inkscape:pageshadow="2"
     inkscape:window-width="1920"
     inkscape:window-height="1027"
     id="namedview20"
     showgrid="false"
     inkscape:zoom="14.208764"
     inkscape:cx="28.309084"
     inkscape:cy="8.483024"
     inkscape:window-x="-8"
     inkscape:window-y="-8"
     inkscape:window-maximized="1"
     inkscape:current-layer="Layer_1" /><g
     id="g3"
     transform="matrix(0.19296945,0,0,0.19296945,0.07113644,8.3439721)"><g
       id="g5" /><g
       id="g11" /><path
       id="path21"
       d="M 10.274,26.281 C 21.131,8.071 36.077,-3.295 43.657,0.855 51.221,5.023 48.555,23.163 37.678,41.361 26.819,59.572 11.875,70.936 4.313,66.784 -3.269,62.619 -0.587,44.477 10.274,26.281 Z"
       inkscape:connector-curvature="0"
       style="fill:#666666" /><path
       id="path21_2_"
       d="M 58.846,26.281 C 69.704,8.071 84.649,-3.295 92.227,0.855 99.791,5.023 97.125,23.163 86.248,41.361 75.391,59.572 60.446,70.936 52.883,66.784 45.303,62.619 47.985,44.477 58.846,26.281 Z"
       inkscape:connector-curvature="0"
       style="fill:#666666" /><path
       id="path21_3_"
       d="M 107.418,26.281 C 118.273,8.07 133.221,-3.295 140.799,0.854 c 7.564,4.168 4.898,22.308 -5.979,40.506 -10.859,18.211 -25.801,29.575 -33.365,25.423 -7.581,-4.164 -4.898,-22.306 5.963,-40.502 z"
       inkscape:connector-curvature="0"
       style="fill:#666666" /></g></svg>