<svg xmlns="http://www.w3.org/2000/svg" viewBox="0 0 399.99999 471.55216">
  <path fill="#ccc" d="M391.64354 468.61433H8.356455C3.7212339 468.61433 0 464.8931 0 460.25788V8.35646C0 3.72124 3.7212339 0 8.356455 0H391.64354C396.27877 0 400 3.72124 400 8.35646v451.90142c0 4.63522-3.72123 8.35645-8.35646 8.35645z"/>
  <g fill="#999">
    <path d="M314.99918412 35.71078834c-5.74506283 0-9.59686633-4.17822752-9.59686633-9.2704423 0-5.0922148 3.8518034-9.33572713 9.5968663-9.27044232h54.0558185c5.7450628 0 9.5315815 4.24351232 9.5315815 9.2704423 0 5.0922148-3.8518035 9.27044232-9.5968664 9.27044232H314.999184zm0-16.25591645c-4.56993634 0-7.31189815 3.1336706-7.31189815 6.9854741s2.7419618 6.9854741 7.31189815 6.9854741h53.99053374c4.56993635 0 7.31189816-3.1336707 7.31189816-6.9854742 0-3.8518035-2.8072466-6.9854742-7.31189816-6.9854742h-53.99053373z"/>
    <path d="M312.64893115 22.0662641h2.676677l3.65594908 6.07148685V22.0662641h2.6113922v8.74816386h-2.6113922l-3.65594908-6.07148687v6.0714868h-2.6113922l-.0652848-8.7481639zm23.24139057.91398726h2.5461074v1.1751265h1.3709809v.84870245h-1.3709809v5.8103477h-2.5461074v-5.8103477h-1.3709809v-.8487024h1.3709809v-1.1751265zm-12.86110658 2.02382895h2.5461074v5.8103477h-2.5461074v-5.8103477zm0-2.9378162h2.5461074v1.7626898h-2.5461074v-1.7626898zm44.78537623 2.5461074c-2.08911376 0-3.7212339 1.4362657-3.7212339 3.2642403e-8 1.8279746 1.69740495 3.2642403 3.7212339 3.2642403 2.08911376 0 3.7212339-1.4362657 3.7212339-3.2642402s-1.69740494-3.2642402-3.7212339-3.2642402m.97927208 3.26424023v1.2404113c0 .91398728-.52227845 1.3056961-1.0445569 1.3056961-.52227842 0-1.04455686-.39170882-1.04455686-1.3056961l-e-7-2.4808226c0-.91398725.5222784-1.3056961 1.0445569-1.3056961s1.0445569.39170885 1.0445569 1.3056961v1.2404113zm-8.09531583 0V26.832055c0-.91398728-.58756324-1.1098417-.97927207-1.1098417s-.97927208.1958544-.97927208 1.1098417v2.08911374c0 .9139873.58756325 1.1098417.97927208 1.1098417s.97927208-.2611392.97927208-1.1098417v-1.0445569zm0-5.81034763h2.5461074v8.7481638h-2.5461074v-.3264241c-.97927207.65284805-2.08911375.65284805-2.93781622.19585442-.26113922-.1305696-1.76268974-.8487025-1.76268974-2.87253145 0-1.5015505 1.43626572-3.19895544 3.26424026-3.06838583.58756324.0652848 1.04455687.2611392 1.4362657.5222784v-3.1989554zm-29.11702302 2.676677c.97927207 0 2.8725314.5875632 2.8725314 2.9378162le-8 3.13367062h-2.5461074v-3.7865187c0-.52227845-.45699363-1.0445569-1.1751265-1.0445569-.71813284 0-1.24041128.58756325-1.24041128 1.0445569v3.7865187h-2.5461074v-5.8103477h2.5461074v.58756326c.52227843-.45699362 1.2404113-.84870245 2.08911375-.84870245m20.7605679 0c.9792721 0 2.8725314.5875632 2.8725314 2.9378162v3.1336706h-2.5461074v-3.7865187c0-.52227845-.4569937-1.0445569-1.1751265-1.0445569s-1.2404113.58756324-1.2404113 1.04455688v3.7865187h-2.5461074v-5.8103476h2.5461074v.58756328c.5222784-.45699366 1.2404113-.8487025 2.0891137-.8487025m-8.030031 4.0476579v.326424c0 1.0445569-.6528481 1.3056961-1.0445569 1.3056961-.3917088 0-1.0445569-.2611392-1.0445569-1.3056961v-1.1751265h4.8310756c0-1.82797456-1.69740495-3.26424027-3.7865187-3.26424027s-3.7865187 1.4362657-3.7865187 3.26424024c0 1.82797452 1.69740493 3.26424023 3.7865187 3.26424023 1.69740492 0 3.19895543-.9792721 3.59066426-2.4155378h-2.5461074zm-2.1543986-1.7626898c0-.52227843 0-.84870246.1958544-1.10984167.1958544-.32642404.58756322-.52227846.91398725-.52227846.326424 0 .71813285.1958544.91398727.52227842.1305696.26113924.1958544.65284807.1958544 1.1098417h-2.2196833zm29.9004407-3.9823731c.2611392 0 .4569936 0 .4569936-.32642402 0-.2611392-.1958544-.2611392-.39170885-.2611392h-.3917088v.58756324h.326424zm-.39170888 1.1098417h-.2611392v-1.9585441h.71813284c.45699362 0 .65284804.1958544.65284804.58756323 0 .32642403-.19585445.52227844-.52227847.52227844l.52227845.84870245h-.326424l-.52227846-.84870247h-.326424l.0652848.84870244z"/>
    <path d="M372.0581037 24.6123715c.78341765 0 1.3709809-.58756326 1.3709809-1.43626572 0-.84870247-.58756325-1.43626572-1.3709809-1.43626572-.78341767 0-1.3709809.58756325-1.3709809 1.43626572 0 .78341765.58756323 1.4362657 1.3709809 1.4362657m-1.69740494-1.4362657c0-.97927208.78341767-1.69740494 1.69740494-1.69740494.91398726 0 1.69740492.71813286 1.69740492 1.69740494 0 .97927207-.78341765 1.69740492-1.69740492 1.69740492-.91398728 0-1.69740494-.71813285-1.69740494-1.69740492"/>
  </g>
  <ellipse cx="50.465157" cy="342.67993" fill="#737477" rx="2.1543984" ry="2.2196834"/>
  <ellipse cx="50.465157" cy="350.57941" fill="#737477" rx="2.1543984" ry="2.2196834"/>
  <path fill="#737477" d="M41.455851 344.50792c-.06529.26114-.195854.39171-.456993.39171h-1.370981c-.26114 0-.326424-.13057-.26114-.39171l.848703-3.26424c.06528-.26114.195854-.39171.456993-.39171h1.370981c.26114 0 .326424.13057.326424.39171l-.913987 3.26424zm-.587563-.13057l.783418-2.93782h-.913988l-.783417 2.93782h.913987zm3.198955.52228h-.587563l-.391709-2.48082c0 .13057 0 .19585-.06529.26114l-.587563 2.21968h-.652848l1.044557-3.98237h.587563l.391709 2.48082c0-.13057 0-.19586.06529-.26114l.587563-2.1544h.652848l-1.044557 3.91709zm-4.308797 7.50775c-.06528.26114-.195854.39171-.456993.39171h-1.370981c-.26114 0-.326424-.13057-.26114-.39171l.848703-3.26424c.06529-.26114.195854-.39171.456994-.39171h1.37098c.26114 0 .326424.13057.326424.39171l-.913987 3.26424zm-.587563-.13057l.783418-2.93781h-.913988l-.783417 2.93781h.913987zm3.721234-2.93781h-1.109842l-.326424 1.17512h.979272l-.130569.52228h-.979272l-.456994 1.76269h-.652848l1.044557-3.98237h1.762689l-.130569.52228zm2.089114 0h-1.109842l-.326424 1.17512h.979272l-.13057.52228h-.979272l-.456993 1.76269h-.652848l1.044556-3.98237h1.76269l-.130569.52228z"/>
  <path fill="#ccc" d="M.26113922 127.10952H399.67358v161.84103H.26113922z"/>
  <path fill="#6c6c6c" d="M80.235025 246.84185c-.979272 0-1.958544.8487-2.089113 1.95855v.71813l-.06528.13057v.13057l-.06529.13057v.13057l-.06529.13057-.06529.19585-.06528.13057-.06529.32642-.06529.19586-.06529.13057v.13057l-.06529.13057-.06528.13057v.26114l-.06528.13057v.65284c0 .457.06528 1.10985.195854 1.24042.195855 1.04455 3.39481 5.81034 3.329525 6.52848-.06529.71813-.456993 2.87253-.456993 2.87253-.13057.71813-.587564 1.30569-1.240412 1.30569-.652848 0-1.109841-.58756-1.044557-1.30569l.587564-3.52538h-2.415538l-.783418 4.89636c-.195854.97927.456994 1.76269 1.436266 1.76269h3.460095c.979272 0 1.827974-.78342 2.023828-1.76269 0 0 .913988-4.56994.848703-4.89636 0-.32643-.06529-.39171-.06529-.39171 0-.39171-2.872531-5.41864-3.133671-5.61449-.130569-.0653-.261139-.58757-.261139-.84871 0-.32642.391709-2.28496.391709-2.28496.13057-.71814.783418-1.3057 1.436266-1.3057.652848 0 .979272.58756.848702 1.3057l-.522278 3.19895h2.415538l.848702-4.76579c.195854-1.04456-.456994-1.95854-1.436266-1.95854h-3.655949zm6.65905 0l-2.872531 17.56161c-.195854.97928.456994 1.76269 1.436266 1.76269h3.460094c.979272 0 1.89326-.78341 2.023829-1.76269l3.068386-17.56161h-2.154398l-2.937817 17.10462c-.06528.26114-.261139.45699-.522278.45699h-1.697405c-.261139 0-.391709-.19585-.391709-.45699l2.872532-17.10462h-2.284969zm8.225886 0l-3.460095 19.38959h2.284968l1.566836-8.74817h2.937816c.979272 0 1.827974-.78341 2.023824-1.76269l1.24042-6.8549c.19585-1.04456-.457-1.95854-1.43627-1.95854h-5.157499zm8.225889 0l-3.590668 19.38959h5.157498l.39171-2.41554h-2.54611l1.04456-6.52848h2.54611l.39171-2.02383h-2.54611l1.10984-6.0062h2.54611l.32642-2.41554h-4.83107zm6.20205 0l-3.46009 19.38959h2.28497l1.56683-8.74817h1.63212c.19586.19586.26114.58757.26114.78342.0653.26114.0653.65285.0653.91399 0 .26114-1.24042 7.05076-1.24042 7.05076h2.28497s1.3057-7.37718 1.3057-7.50775c0-.13057 0-.52228-.13057-.71814-.0653-.13057-.26114-.45699-.39171-.52228l-.65285-.3917h-.13057c.65285-.26114 1.89326-.71814 2.02383-1.43627l1.24041-6.8549c.19586-1.04456-.45699-1.95855-1.43626-1.95855h-5.22279zm12.27355 0l-3.4601 19.38959h2.61139l2.1544-11.22899.8487 11.22899h2.28497l3.4601-19.38959h-2.61139l-1.82798 10.11915-1.17513-10.11915h-2.28496zm9.13987 0l-3.4601 19.38959h2.28497l3.4601-19.38959h-2.28497zm3.52538 0l-3.4601 19.38959h2.67668l2.1544-11.22899.8487 11.22899h2.28497l3.46009-19.38959h-2.67667l-1.76269 10.11915-1.17513-10.11915h-2.35025zm8.87873 0l-.45699 2.41554h1.43626l-2.80724 16.97405h2.61139l2.87253-16.97405h1.37098l.39171-2.41554h-5.41864zm6.33263 0l-3.59067 19.38959h5.1575l.39171-2.41554h-2.54611l1.04456-6.52848h2.54611l.39171-2.02383h-2.54611l1.10984-6.0062h2.54611l.39171-2.41554h-4.89636zm5.87563 0l-3.46009 19.38959h2.67667l2.1544-11.22899.8487 11.22899h2.28497l3.4601-19.38959h-2.67668l-1.76269 10.11915-1.17513-10.11915h-2.35025zm9.13987 0l-3.46009 19.38959h5.22278c.97927 0 1.89326-.78342 2.02383-1.76269l2.80725-15.66835c.19585-1.04456-.457-1.95855-1.43627-1.95855h-5.1575zm9.85801 0c-.97927 0-1.95855.8487-2.08912 1.95855l-2.5461 15.66835c-.19586.97927.45699 1.76269 1.37098 1.76269h3.78652c.97927 0 1.89326-.78342 2.02383-1.76269l2.80724-15.66835c.19586-1.04456-.45699-1.95855-1.43626-1.95855h-3.91709zm-7.89946 2.21968h1.04455c.65285 0 1.10985.58757 1.04456 1.3057l-2.28497 12.66525c-.13057.71814-.78342 1.3057-1.43626 1.3057h-1.04456l2.67668-15.27665zm9.27044 0h.0653c.65285 0 1.10985.58757.97928 1.3057l-2.1544 12.66525c-.13057.71814-.71814 1.3057-1.43627 1.3057-.65285 0-.97927-.58756-.8487-1.3057l2.1544-12.66525v-.45699l.0653-.0653v-.0653l.0653-.0653v-.0653l.0653-.0653.0653-.0653.0653-.0653.0653-.0653.0653-.0653.0653-.0653.0653-.0653.0653-.0653.0653-.0653.0653-.0653.0653-.0653h.0653l.0653-.0653h.32642l-.0653.19585zm-78.602906.0653h1.109842c.261139 0 .783418.58756.718133.8487l-.979272 4.76579c-.06528.26114-.391709.84871-.587564.84871h-1.37098v-.13057l1.109841-5.87564c-.195854-.39171-.130569-.45699 0-.45699zm14.362656 0h1.10984c.26114 0 .78342.58756.71814.8487l-.97928 4.76579c-.0653.26114-.65284.84871-.8487.84871h-.97927c-.19586 0-.32642-.13057-.39171-.32643v-.13057l1.04456-5.87563h.0653l.26114-.13057zm-36.559489 18.73674v6.33262H177.70524v-6.33262H75.142811zm75.403949.65285h.8487c.19586 0 .39171.19585.32643.39171l-.19586 1.04455h-.45699l.13057-.71813c0-.13057-.0653-.26114-.19586-.26114-.13057 0-.32642.13057-.32642.26114l-.0653.52228s0 .19585.0653.19585c.0653.0653.71813 1.17513.71813 1.24041v.0653c0 .13057-.19585 1.10984-.19585 1.10984-.0653.19585-.26114.39171-.457.39171h-.78341c-.19586 0-.32643-.19586-.32643-.39171l.19586-1.10984h.52228l-.13057.78342c0 .13057.0653.32642.19585.32642.13057 0 .32642-.13057.32642-.32642l.13057-.65285c-.0653-.26114-.71813-1.24041-.78341-1.43627 0 0-.0653-.19585-.0653-.26114 0-.13057.13057-.8487.13057-.8487v-.0653l.39171-.26114zm4.17823 0h.65285l.0653 1.63212.8487-1.63212h.65285l-1.30569 2.48082-.32643 1.82797h-.58756l.26114-1.95854-.26114-2.35025zm5.87563 0h.8487c.19586 0 .39171.19585.32643.39171l-.19586 1.04455h-.45699l.13057-.71813c0-.13057-.0653-.26114-.19586-.26114-.13057 0-.32642.13057-.32642.26114l-.0653.52228s0 .19585.0653.19585c.0653.0653.71813 1.17513.71813 1.24041v.0653c0 .13057-.19585 1.10984-.19585 1.10984-.0653.19585-.26114.39171-.457.39171h-.8487c-.19585 0-.32642-.19586-.32642-.39171l.19585-1.10984h.52228l-.13057.78342c0 .13057.0653.32642.19586.32642.13057 0 .26114-.13057.32642-.32642l.13057-.65285c-.13057-.26114-.71813-1.24041-.78342-1.43627 0 0-.0653-.19585-.0653-.26114 0-.13057.13057-.8487.13057-.8487v-.0653l.45699-.26114zm4.17823 0h1.17512l-.0653.52228h-.32642l-.65285 3.78651h-.58757l.65285-3.78651h-.32642l.13057-.52228zm4.7005 0h1.10985l-.0653.52228h-.58756l-.26114 1.37098h.58756l-.0653.45699h-.58757l-.26114 1.43627h.58757l-.0653.52227h-1.17512l.78341-4.30879zm4.43937 0h.65285l.13057 2.48082 1.04455-2.48082h.65285l-.65285 4.30879h-.52227l.32642-2.28496-.91399 2.28496h-.39171l-.13057-2.35025-.3917 2.35025h-.58757l.78342-4.30879zm-96.556226.19585h1.044557l-.06528.52228h-.587563l-.26114 1.3057h.587564l-.06529.45699h-.587563l-.195855 1.43626h.587564l-.06529.52228h-1.175127l.783418-4.24351zm4.961645 0h.522278l.26114 2.21968.391709-2.21968h.587563l-.783418 4.3088h-.522278l-.195855-2.48082-.456993 2.48082h-.522279l.718133-4.3088zm5.418639 0h1.175126l-.06528.52228H88.5262l-.652849 3.78652h-.587563l.652848-3.78652h-.326424l.13057-.52228zm5.222784 0h1.109842l-.06529.52228h-.587563l-.261139 1.3057h.587563l-.06529.45699h-.587563l-.261139 1.43626h.587563l-.06529.52228H92.18213l.783417-4.24351zm5.092215 0h1.175127c.195854 0 .326424.19586.326424.45699l-.26114 1.50156c0 .19585-.326424.32642-.456993.3917h.06529c0 .0653.06528.19586.06528.19586l-.261139 1.6974h-.522278s.261139-1.50155.261139-1.56683v-.19586c0-.0653 0-.13057-.06528-.19585h-.391709l-.326424 1.95854h-.391709l.783418-4.24351zm5.092213 0h1.17513l-.0653.52228h-.32642l-.65285 3.78652h-.58756l.65285-3.78652h-.32643l.13057-.52228zm6.0062 0h.65285l-.19585 4.3088h-.65285l.0653-.97927h-.3917l-.32643.97927h-.58756l1.43626-4.3088zm4.76579 0h.52228l-.78341 4.3088h-.52228l.78341-4.3088zm4.63523 0h.52227l.26114 2.21968.39171-2.21968h.58757l-.78342 4.3088h-.52228l-.19585-2.48082-.457 2.48082h-.58756l.78342-4.3088zm5.94091 0h.65285l.13057 2.48082 1.04456-2.48082h.65285l-.65285 4.3088h-.52228l.32642-2.28497-.91398 2.28497h-.39171l-.13057-2.35025-.39171 2.35025h-.58756l.78341-4.3088zm6.52848 0h1.04456l-.0653.52228h-.58757l-.26114 1.3057h.58757l-.0653.45699h-.58756l-.26114 1.43626h.58756l-.0653.52228h-1.10984l.78341-4.24351zm5.22279 0h.52228l.26114 2.21968.3917-2.21968h.58757l-.78342 4.3088h-.52228l-.19585-2.48082-.457 2.48082h-.58756l.78342-4.3088zm5.35335 0h1.17513l-.0653.52228h-.32642l-.65285 3.78652h-.58756l.65285-3.78652h-.32643l.13057-.52228zm-43.087969.52228s-.06529 0-.06529.0653l-.261139 1.3057c0 .0653 0 .0653.06528.0653h.195855c.06529 0 .195854-.13057.195854-.19586l.195855-1.04456c0-.0653-.06529-.19585-.13057-.19585h-.195854zm10.641419 1.3057l-.3917 1.10984h.26113l.13057-1.10984z"/>
  <path fill="#808084" d="M112.28986 231.04293h-3.39481v-44.58952h3.39481v44.58952zm-2.74196-.65285h2.08912v-43.28383h-2.08912v43.28383zm179.79436 0h-3.39481v-44.58952h3.39481v44.58952zm-2.74197-.65285h2.08912v-43.28382h-2.08912v43.28382z"/>
  <path fill="#555251" d="M57.515913 185.47413H342.48409v2.6114H57.515913zm0 43.93668H342.48409v2.61139H57.515913z"/>
  <path fill="#555251" d="M57.189489 127.10952h.652848v161.84103h-.652848zm284.968171 0h.65285v161.84103h-.65285z"/>
  <path fill="#555251" d="M400 289.99511H0V127.50123h400v162.49388zM.65284805 289.34226H399.41244V128.15408H.65284805v161.18818z"/>
  <path fill="#ccc" d="M163.60372 471.22573H64.566672c-1.109842 0-2.023829-.91399-2.023829-2.02383V289.66868H165.69283V469.2019c-.0653 1.10984-.97927 2.02383-2.08911 2.02383z"/>
  <path fill="#555251" d="M163.66901 471.55215H64.501387c-1.240411 0-2.284968-1.04456-2.284968-2.35025V289.34226H165.95397V469.2019c0 1.30569-.97927 2.35025-2.28496 2.35025zM62.869267 289.99511V469.2019c0 .91398.718133 1.6974 1.63212 1.6974h99.167623c.91398 0 1.63212-.78342 1.63212-1.6974V289.99511H62.869267z"/>
  <path fill="#ccc" d="M335.62918 471.09516h-99.03705c-1.10984 0-2.02383-.91399-2.02383-2.02383V289.53811h103.15v179.53322c-.0653 1.10984-.97928 2.02383-2.08912 2.02383z"/>
  <path fill="#555251" d="M335.69447 471.42158h-99.16762c-1.24041 0-2.28497-1.04456-2.28497-2.35025V289.1464h103.73756v179.85964c0 1.3057-.97928 2.41554-2.28497 2.41554zM234.89473 289.79925v179.20679c0 .91399.71813 1.69741 1.63212 1.69741h99.16762c.91398 0 1.63212-.78342 1.63212-1.69741V289.79925H234.89473z"/>
  <path fill="#686665" d="M166.14983 319.17742h67.63506v119.34062h-67.63506z"/>
  <path fill="none" stroke="#5b5959" stroke-width="2.61139226" stroke-miterlimit="10" d="M166.2804 319.17742h66.65578v119.27533H166.2804z"/>
  <path fill="#32215f" d="M170.06692 365.00735H57.907622c-1.958544 0-3.590664-1.63212-3.590664-3.59067v-39.82373c0-1.95854 1.63212-3.59066 3.590664-3.59066H170.06692c1.95854 0 3.59066 1.63212 3.59066 3.59066v39.82373c0 1.95855-1.63212 3.59067-3.59066 3.59067z"/>
  <path fill="#544679" d="M57.515913 320.67897H170.26277v.78341H57.515913z"/>
  <path fill="#2a1c4f" d="M163.86486 342.67995H62.216419c0-8.42174 6.65905-15.27665 14.884936-15.27665h71.943855c8.09532 0 14.81965 6.85491 14.81965 15.27665z"/>
  <path fill="#46386b" d="M163.86486 342.67995H62.216419c0 8.42173 6.65905 15.27664 14.884936 15.27664h71.943855c8.09532 0 14.81965-6.85491 14.81965-15.27664z"/>
  <path fill="#fcfcfc" d="M102.43186 342.54938c-.19586.58756-.52228.8487-1.17513.8487h-2.415535l-.979272 3.26424h-1.501551l2.676677-8.94402h3.917091c.58756 0 .8487.26114.65285.8487l-1.17513 3.98238zm-1.43627-.32643l1.04456-3.39481h-1.82797l-1.044561 3.39481h1.827971zm6.59377 3.59067c-.13057.52227-.52228.8487-1.17513.8487h-3.26424c-.58756 0-.78342-.26114-.65285-.8487l2.1544-7.3119c.19586-.52228.52228-.8487 1.10984-.8487h3.26424c.58757 0 .84871.26113.65285.8487l-2.08911 7.3119zm-1.43627-.32643l1.95855-6.65905h-2.02383l-1.95855 6.65905h2.02383zm12.40412-7.76889l-4.11295 8.94402h-1.50155l.65285-5.09222c.0653-.19585.13057-.45699.19586-.8487-.0653.19586-.13057.45699-.32643.8487l-2.41554 5.09222h-1.43626l1.24041-8.94402h1.50155l-.78342 5.28807c-.0653.19585-.13057.45699-.19585.8487.0653-.19585.13057-.45699.32642-.8487l2.48082-5.28807h1.24042l-.71814 5.28807c-.0653.19585-.13057.45699-.19585.8487.0653-.19585.13057-.45699.32642-.8487l2.35025-5.28807h1.37099zm2.28496 8.94402h-4.11294l2.67668-8.94402h4.11294l-.32642 1.17513h-2.6114l-.78341 2.61139h2.21968l-.32642 1.17513h-2.21969l-.8487 2.80724h2.67668l-.457 1.17513zm6.13678 0h-1.56684l-.39171-4.17823.26114-.78342h1.43627l.8487-2.80724h-1.89326l-2.35025 7.83417h-1.50155l2.67667-8.94402h3.98238c.58756 0 .8487.26114.65284.84871l-.97927 3.26424c-.13057.39171-.32642.65285-.65285.71813-.19585.0653-.52227.0653-.97927.0653l.457 3.98237z"/>
  <path fill="#4e4e51" d="M192.72074 431.72842h-2.67667l2.21968-8.1606h2.67668l-.19586.65285h-1.95854l-.8487 3.06838h1.76269l-.19586.65285h-1.76269l-.8487 3.19896h1.95854l-.13057.58756zm4.17823-.58756c-.0653.19585-.13057.32642-.26114.3917-.13057.13057-.26114.13057-.45699.13057h-1.89326c-.19585 0-.32642-.0653-.39171-.13057-.0653-.13057-.0653-.26113-.0653-.3917l.58756-2.08912h.71813l-.52228 2.02383h1.63212l2.02383-7.50775h.71814l-2.08912 7.57304zm3.85181.58756h-2.67668l2.21968-8.1606h2.67668l-.19586.65285h-1.95854l-.8487 3.06838h1.76269l-.19586.65285h-1.76269l-.8487 3.19896h1.95854l-.13056.58756zm4.56993-.58756c-.0653.19585-.13057.32642-.26114.3917-.13057.13057-.32642.13057-.45699.13057h-2.08912c-.19585 0-.32642-.0653-.3917-.13057-.0653-.13057-.0653-.26113-.0653-.3917l1.89326-7.05076c.0653-.19586.13057-.32643.26114-.39171.13057-.13057.26114-.13057.45699-.13057h2.08912c.19585 0 .32642.0653.39171.13057.0653.13057.13057.26114.0653.39171l-.52228 1.89326h-.71813l.52228-1.82798h-1.82798l-1.82797 6.92019h1.82797l.52228-2.02383h.71813l-.58756 2.08912zm5.94092-6.98548h-1.24041l-2.02383 7.50775h-.71813l2.02382-7.50775h-1.30569l.19585-.65285h3.26424l-.19585.65285z"/>
  <path fill="#32215f" d="M342.13673 364.73424H229.97744c-1.95855 0-3.59067-1.63212-3.59067-3.59066v-39.82373c0-1.95855 1.63212-3.59067 3.59067-3.59067h112.15929c1.95855 0 3.59067 1.63212 3.59067 3.59067v39.82373c0 2.02383-1.63212 3.59066-3.59067 3.59066z"/>
  <path fill="#2a1c4f" d="M335.93468 342.47212H234.28623c0-8.42174 6.65905-15.27664 14.88494-15.27664h71.94386c8.09531 0 14.81965 6.8549 14.81965 15.27664z"/>
  <path fill="#46386b" d="M335.93468 342.47212H234.28623c0 8.42174 6.65905 15.27665 14.88494 15.27665h71.94386c8.09531 0 14.81965-6.85491 14.81965-15.27665z"/>
  <path fill="#fcfcfc" d="M276.26436 345.21409h-1.56683l-.39171-4.17823.26114-.78342h1.43627l.8487-2.80725h-1.89326l-2.35025 7.83418h-1.50156l2.67668-8.94402h3.98237c.58757 0 .84871.26114.65285.8487l-.97927 3.26424c-.13057.39171-.32642.65285-.65285.71814-.19585.0653-.52228.0653-.97927.0653l.45699 3.98238zm5.02693 0h-4.11294l2.67668-8.94402h4.11294l-.32642 1.17512h-2.61139l-.78342 2.6114h2.21968l-.32642 1.17512h-2.21969l-.8487 2.80725h2.67668l-.457 1.17513zm6.07149-.84871c-.13057.52228-.52228.84871-1.17513.84871h-3.0031c-.58756 0-.8487-.26114-.65284-.84871l.65284-2.1544h1.50155l-.52227 1.82798h1.82797l.52228-1.76269-2.21968-2.54611c-.13057-.19585-.19586-.45699-.13057-.71813l.58756-2.02383c.19585-.52228.52228-.8487 1.17513-.8487h3.0031c.58756 0 .8487.26114.65284.78342l-.58756 2.02382h-1.50155l.52228-1.6974h-1.82798l-.45699 1.63212 2.21968 2.54611c.13057.19585.19586.45699.13057.71813l-.71813 2.21968zm5.09222.84871h-4.11295l2.67668-8.94402h4.11294l-.32642 1.17512h-2.61139l-.78342 2.6114h2.21968l-.32642 1.17512h-2.21968l-.84871 2.80725h2.67668l-.45699 1.17513zm7.63832-7.7689h-1.63212l-2.35026 7.7689h-1.50155l2.35026-7.7689h-1.63212l.32642-1.17512h4.76579l-.32642 1.17512zm1.56683 7.76889h4.50465l-2.28496-8.94401"/>
  <path fill="#544679" d="M229.65101 320.01415h112.74686v.78342H229.65101z"/>
</svg>
