<svg xmlns="http://www.w3.org/2000/svg" baseProfile="tiny" viewBox="0 0 518.5 337.1">
  <path fill="#807887" d="M517.6 64H3.4c-1.2 0-2.1-1-2.1-2.1V20.1c0-2.5 2.1-4.6 4.6-4.6h511.8c1.2 0 2.1 1 2.1 2.1v44.3c0 1.1-1 2.1-2.2 2.1zm-3.6 54.6H4.5c-2.5 0-4.5-2-4.5-4.5V74.5C0 72 2 70 4.5 70H514c2.5 0 4.5 2 4.5 4.5v39.6c0 2.4-2 4.5-4.5 4.5z"/>
  <path fill="#48434B" d="M6.2 64h508.7v2.4H6.2z"/>
  <path fill="#746C7A" d="M6.2 66.4h508.7V70H6.2z"/>
  <path fill="#48434B" d="M4.9 118.6h508.7v2.4H4.9z"/>
  <path fill="#746C7A" d="M4.9 121h508.7v3.6H4.9z"/>
  <path fill="#807887" d="M514 173.1H4.5c-2.5 0-4.5-2-4.5-4.5V129c0-2.5 2-4.5 4.5-4.5H514c2.5 0 4.5 2 4.5 4.5v39.6c0 2.5-2 4.5-4.5 4.5z"/>
  <path fill="#48434B" d="M4.9 173.1h508.7v2.4H4.9z"/>
  <path fill="#746C7A" d="M4.9 175.5h508.7v3.6H4.9z"/>
  <path fill="#807887" d="M514 227.7H4.5c-2.5 0-4.5-2-4.5-4.5v-39.6c0-2.5 2-4.5 4.5-4.5H514c2.5 0 4.5 2 4.5 4.5v39.6c0 2.5-2 4.5-4.5 4.5z"/>
  <path fill="#48434B" d="M4.9 227.7h508.7v2.4H4.9z"/>
  <path fill="#746C7A" d="M4.9 230.1h508.7v3.6H4.9z"/>
  <path fill="#807887" d="M514 280.4H4.5c-2.5 0-4.5-2-4.5-4.5v-39.6c0-2.5 2-4.5 4.5-4.5H514c2.5 0 4.5 2 4.5 4.5v39.6c0 2.5-2 4.5-4.5 4.5z"/>
  <path fill="#48434B" d="M4.9 280.4h508.7v2.4H4.9z"/>
  <path fill="#746C7A" d="M4.9 282.8h508.7v3.6H4.9z"/>
  <path fill="#807887" d="M514 336.6H4.5c-2.5 0-4.5-2-4.5-4.5v-41.2c0-2.5 2-4.5 4.5-4.5H514c2.5 0 4.5 2 4.5 4.5v41.2c0 2.5-2 4.5-4.5 4.5z"/>
  <path fill="#807886" d="M440.8 336.5H80.2v-324c0-6.6 5.4-12 12-12h336.7c6.6 0 12 5.4 12 12v324z"/>
  <path fill="#6A626E" d="M213.8 203.1h93.3v9.5h-93.3z"/>
  <path fill="#6F6774" d="M213.8 212.6h93.3v9.5h-93.3z"/>
  <path fill="#797180" d="M213.8 222.1h93.3v9.5h-93.3z"/>
  <path fill="#827988" d="M213.8 231.6h93.3v9.5h-93.3z"/>
  <path fill="#7F7785" d="M213.8 241.1h93.3v9.5h-93.3z"/>
  <path fill="#847C8B" d="M213.8 250.6h93.3v9.5h-93.3z"/>
  <path fill="#89808E" d="M213.8 260.1h93.3v9.5h-93.3z"/>
  <path fill="#908996" d="M213.8 269.5h93.3v9.5h-93.3z"/>
  <path fill="#8D8693" d="M213.8 279h93.3v9.5h-93.3z"/>
  <path fill="#8C8391" d="M213.8 288.5h93.3v9.5h-93.3z"/>
  <path fill="#847D8B" d="M213.8 298h93.3v9.5h-93.3z"/>
  <path fill="#4B474F" d="M215.3 202.5h-3.8v91c2.9-28.9 6.3-59.4 3.8-91zm90.4 0h3.8v91c-2.9-28.9-6.3-59.4-3.8-91z"/>
  <circle cx="46.6" cy="314.1" r="9.8" fill="#201C24"/>
  <path fill="none" stroke="#000" stroke-miterlimit="10" d="M40.6 316.6l1.1-6 5.7-2.1 4.7 4-1.1 6-5.8 2.1z"/>
  <path fill="#5E585E" d="M51.3 316.6H40.6l1.1-6 5.7-2.1 4.7 4-.8 4.1"/>
  <path fill="#2A2727" d="M51.3 316.6H40.6l4.6 4 5.8-2.1.3-1.9"/>
  <circle cx="474.4" cy="314.1" r="9.8" fill="#201C24"/>
  <path fill="none" stroke="#000" stroke-miterlimit="10" d="M480.4 316.6l-1.1-6-5.7-2.1-4.7 4 1.1 6 5.8 2.1z"/>
  <path fill="#5E585E" d="M469.7 316.6h10.7l-1.1-6-5.7-2.1-4.7 4 .8 4.1"/>
  <path fill="#2A2727" d="M469.7 316.6h10.7l-4.6 4-5.8-2.1-.3-1.9"/>
  <path fill="none" stroke="#665F6B" stroke-miterlimit="10" d="M96.8 214.6c0-6.6 5.4-12 12-12h303.3c6.6 0 12 5.4 12 12"/>
  <path d="M424.2 214.5c0-6.6-5.4-10.7-12-10.7H108.8c-6.6 0-12 4.1-12 10.7 0-6.6 5.4-12 12-12h303.3c6.7 0 12.1 5.4 12.1 12z"/>
  <path fill="#4B474F" d="M424.7 337.1H96.3V214.6h1v121.5h326.4V214.6h1"/>
  <path fill="#4B474F" d="M441.3 337H79.7V12.5C79.7 5.6 85.3 0 92.2 0h336.7c6.9 0 12.5 5.6 12.5 12.5V337zm-360.6-1h359.7V12.5c0-6.3-5.2-11.5-11.5-11.5H92.2c-6.3 0-11.5 5.2-11.5 11.5V336z"/>
  <path d="M410.1 151H110.9c-6.6 0-12-5.4-12-12V.5h323.2V139c0 6.6-5.4 12-12 12z"/>
  <path fill="#FFF" d="M120.9 105.8c7.1 0 12.9 4 12.9 9s-5.8 9-12.9 9-12.9-4-12.9-9 5.8-9 12.9-9z"/>
  <g fill="#A58252">
    <path d="M118.1 120.1h.4c0 .1 0 .2.1.3.1.1.2.1.3.1.1 0 .2 0 .3-.1.1 0 .1-.1.1-.2s0-.1-.1-.2c0 0-.1-.1-.2-.1h-.3c-.2 0-.4-.1-.4-.2-.1-.1-.1-.2-.1-.4s.1-.4.2-.5c.1-.1.3-.2.5-.2s.4.1.6.2c.1.1.2.3.2.5h-.4c0-.1 0-.2-.1-.2-.1-.1-.2-.1-.3-.1-.1 0-.2 0-.3.1-.1 0-.1.1-.1.2s0 .1.1.1c0 0 .1.1.3.1h.3c.2 0 .3.1.4.2s.1.3.1.4c0 .2-.1.4-.2.6-.1.1-.3.2-.6.2s-.5-.1-.6-.2c-.1-.2-.2-.4-.2-.6zm3.2.2c0 .2-.1.3-.2.4-.1.1-.3.2-.4.2-.2 0-.4-.1-.5-.2-.1-.2-.2-.4-.2-.6 0-.3.1-.5.2-.6.1-.2.3-.2.5-.2s.4.1.5.2c.1.2.2.4.2.7v.1h-1c0 .1 0 .2.1.3.1.1.1.1.2.1s.1 0 .2-.1c0 0 .1-.1.1-.2l.3-.1zm-1-.5h.6c0-.1 0-.2-.1-.2-.1-.1-.1-.1-.2-.1s-.2 0-.2.1c0 0-.1.1-.1.2z"/>
    <path d="M122.8 120.6v.2h-.4v-.2l-.2.2c-.1 0-.2.1-.3.1-.2 0-.3 0-.4-.1-.1-.1-.1-.2-.1-.4s0-.3.1-.3c.1-.1.2-.1.4-.2h.1c.2 0 .3-.1.3-.2s0-.1-.1-.1h-.2c-.1 0-.2 0-.2.1 0 0-.1.1-.1.2h-.4c0-.2.1-.3.2-.4.1-.1.3-.2.5-.2h.3c.1 0 .1.1.2.1 0 0 .1.1.1.2v.3l.2.7zm-.3-.6s-.1.1-.3.1c-.1 0-.2 0-.3.1l-.1.1c0 .1 0 .1.1.2l.1.1c.1 0 .2 0 .3-.1.1-.2.2-.3.2-.5 0 .1 0 .1 0 0zm.7.8v-2.2h.4v2.2h-.4z"/>
  </g>
  <path fill="#A58252" d="M135.3 114.8l1.5 1.6-2.2 1.3.6 2.6-2.4.1-.2 2.8-2.6-.7-.4 2.6-2.4-1-1.3 2.3-1.9-1.6-1.7 2.3-1.8-2-2 1.9-1.3-2.2-2.4 1.4-.8-2.5-2.7 1.1-.4-2.4-2.4.2.4-2.5h-2.5l.6-2.7-1.9-1.1 1.5-1.8-1.4-2.4 2.3-.7-.6-2.6h2.5l.3-2.6 2.2.7.7-2.5 2.3 1.2.9-2.2 2 1.4 1.4-2.1 1.8 1.8 1.6-1.7 1.4 2.1 2.2-1.4.9 2.3 2.2-1.1.6 2.5 2.7-.5-.1 2.4 2.7.3-.8 2.3 2.3 1-1.4 2.1zm-1.6 0c0-5-5.8-9-12.9-9s-12.9 4-12.9 9 5.8 9 12.9 9 12.9-4.1 12.9-9z"/>
  <path fill="#A58252" d="M116.6 110.1c0-.6.3-.7.6-.7.2 0 .6.1.6.7s-.3.7-.6.7c-.3.1-.6-.1-.6-.7zm-.4 0c0 1 .7 1.1 1 1.1.3 0 1-.1 1-1.1s-.7-1.1-1-1.1c-.3 0-1 .1-1 1.1zm2.7 1.1h-.4v-1.3h-.2v-.3h.2v-.1c0-.3.2-.5.5-.5h.2v.3h-.1c-.1 0-.1 0-.1.2v.1h.3v.3h-.3l-.1 1.3zm1 0h-.4v-1.3h-.2v-.3h.2v-.1c0-.3.2-.5.5-.5h.2v.3h-.2c-.1 0-.1 0-.1.2v.1h.3v.3h-.3v1.3zm.8-1.6v1.6h-.4v-1.6h.4zm0-.2h-.4v-.4h.4v.4zm1.7 1.2c0 .2-.1.6-.7.6s-.7-.5-.7-.8c0-.5.2-.9.8-.9.2 0 .7.1.7.6h-.5c0-.1-.1-.3-.3-.3-.3 0-.3.3-.3.5s0 .5.3.5c.2 0 .3-.2.3-.3l.4.1zm.7-1v1.6h-.4v-1.6h.4zm0-.2h-.4v-.4h.4v.4zm1.2 1.2c0 .2-.2.3-.4.3-.1 0-.2 0-.2-.2s.1-.2.3-.2c.2 0 .2-.1.3-.1v.2zm.4-.6c0-.4-.4-.5-.6-.5-.3 0-.7.1-.7.6h.4c0-.1 0-.2.3-.2.1 0 .3 0 .3.2 0 .1-.1.1-.1.1l-.4.1c-.3 0-.5.2-.5.5s.2.5.5.5.4-.1.5-.2v.2h.4v-.1c-.1 0-.1-.1-.1-.2v-1zm.7 1.2h-.4v-2.1h.4"/>
  <path fill="#A58252" d="M120.9 123c6.7 0 12.1-3.7 12.1-8.2 0-4.5-5.4-8.2-12.1-8.2-6.7 0-12.1 3.7-12.1 8.2 0 4.5 5.4 8.2 12.1 8.2zm-11.8-8.2c0-4.4 5.3-7.9 11.8-7.9 6.5 0 11.8 3.6 11.8 7.9s-5.3 7.9-11.8 7.9c-6.5 0-11.8-3.6-11.8-7.9z"/>
  <g fill="#A58252">
    <path d="M128.5 117.5c1.4 0 2.6-1.1 2.6-2.6 0-1.4-1.1-2.6-2.6-2.6h-15.3c-1.4 0-2.6 1.1-2.6 2.6 0 1.4 1.1 2.6 2.6 2.6h15.3zm-15.3-.6c-1 0-1.9-.8-1.9-1.9 0-1 .8-1.9 1.9-1.9h15.3c1 0 1.9.8 1.9 1.9 0 1-.8 1.9-1.9 1.9h-15.3z"/>
    <path d="M112.5 116.2v-2.4h.8l1 1.6v-1.6h.8v2.4h-.8c-.1-.1-1-1.6-1-1.6v1.6h-.8zm4.7-1.6c.1 0 .1 0 0 0h.3c.6-.2.9.1 1 .2.3.3.2.9.2 1.5h-.8v-1.1c0-.1-.2-.3-.3-.3-.2 0-.4.1-.4.3v1.1h-.8v-1.6l.8-.1zm1.9-.2v-.2h.7v.2h.4v.2h-.4v1.6h-.7v-1.6h-.4v-.2m1.5 1c0-.5.5-.9.9-.9.2 0 .4 0 .6.1.1.1.2.1.3.2.2.2.3.4.3.7H121c0 .2-.1.7.2.7.1 0 .2 0 .3-.1v-.3h.8c-.2.4-.6.6-1 .6-.3-.2-1.1-.2-1.1-1zm.7-.3h.5v-.2c0-.1-.1-.2-.3-.2-.2 0-.3.1-.3.3.1 0 .1.1.1.1zm6.4.6c-.1-.2-.2-.5 0-.8.1-.2.4-.4.6-.5.2-.1.5-.1.8 0 .2.1.5.2.6.5.1.2.1.6 0 .8-.1.1-.3.3-.5.4-.2.1-.6.1-.8 0-.3 0-.5-.1-.7-.4zm1 .3c.2 0 .3-.2.3-.3v-.8c0-.1-.1-.3-.3-.3-.3 0-.3.2-.3.3v.8c0 .1.1.3.3.3zm-1.3.2h-.7v-.1c-.2.2-1 .2-1.3-.4 0-.1-.1-.5 0-.7.2-.4.6-.5.9-.5.1 0 .4.1.4.1v-.9h.7v2.5zm-.8-.4v-.8c0-.1 0-.2-.1-.2-.1-.1-.1-.1-.2-.1-.2 0-.2.1-.2.2v.7c0 .1 0 .1.1.2.2.2.4.1.4 0zm-10 .4v-1.6h-.8v1.6m.8-1.9v-.5h-.8v.5m7.9.3h.3c.6-.2.9.1 1 .2.3.3.2.9.2 1.5h-.8v-1.1c0-.1-.2-.3-.3-.3-.2 0-.4.1-.4.3v1.1h-.7v-1.6l.7-.1zm5.6-.3l-.1-.2h.1c.1 0 .1 0 .1.1 0 0 0 .1-.1.1l.1.1h-.1v-.1zm.1-.1c0-.1 0-.1 0 0zm0 .2c-.1 0-.2-.1-.2-.2s.1-.2.2-.2.2.1.2.2-.1.2-.2.2zm0-.4c-.1 0-.2.1-.2.2s.1.2.2.2.2-.1.2-.2-.1-.2-.2-.2z"/>
  </g>
  <path fill="#ED1C24" d="M108.2 40.5c-2.9 0-4.9-2.1-4.9-4.6 0-2.5 2-4.6 4.9-4.6h27.6c2.9 0 4.9 2.1 4.9 4.6 0 2.5-2 4.6-4.9 4.6h-27.6z"/>
  <path fill="#FFF" d="M108.2 32.5c-2.3 0-3.7 1.6-3.7 3.5s1.4 3.5 3.7 3.5h27.6c2.3 0 3.7-1.6 3.7-3.5s-1.4-3.5-3.7-3.5h-27.6z"/>
  <path fill="#ED1C24" d="M107 33.8h1.4l1.9 3v-3h1.3v4.3h-1.3l-1.9-3v3H107v-4.3zm11.8.4h1.3v.6h.7v.4h-.7v2.9h-1.3v-2.9h-.7v-.4h.7v-.6zm-6.5 1h1.3v2.9h-1.3v-2.9zm0-1.4h1.3v.9h-1.3v-.9zm22.8 1.2c-1.1 0-1.9.7-1.9 1.6 0 .9.9 1.6 1.9 1.6 1.1 0 1.9-.7 1.9-1.6.1-.9-.8-1.6-1.9-1.6m.6 1.6v.6c0 .5-.3.6-.5.6-.3 0-.5-.2-.5-.6V36c0-.5.3-.6.5-.6.3 0 .5.2.5.6v.6zm-4.2 0v-.5c0-.4-.3-.6-.5-.6s-.5.1-.5.6v1c0 .4.3.6.5.6s.5-.1.5-.6v-.5zm0-2.8h1.3v4.3h-1.3v-.2c-.5.3-1.1.3-1.5.1-.1-.1-.9-.4-.9-1.4 0-.8.7-1.6 1.7-1.5.3 0 .5.1.7.3v-1.6zm-14.8 1.3c.5 0 1.5.3 1.5 1.4v1.6h-1.3v-1.9c0-.3-.2-.5-.6-.5-.4 0-.6.3-.6.5v1.9h-1.3v-2.9h1.3v.3c.2-.2.5-.4 1-.4m10.6 0c.5 0 1.5.3 1.5 1.4v1.6h-1.3v-1.9c0-.3-.2-.5-.6-.5-.4 0-.6.3-.6.5v1.9H125v-2.9h1.3v.3c.2-.2.5-.4 1-.4m-4.1 2v.2c0 .5-.3.6-.5.6s-.5-.1-.5-.6v-.6h2.5c0-.9-.9-1.6-1.9-1.6s-1.9.7-1.9 1.6c0 .9.9 1.6 1.9 1.6.9 0 1.6-.5 1.8-1.2h-1.4zm-1.1-.9c0-.3 0-.4.1-.6.1-.2.3-.3.5-.3s.4.1.5.3c.1.1.1.3.1.6h-1.2zm15.2-2c.1 0 .2 0 .2-.2 0-.1-.1-.1-.2-.1h-.2v.3h.2zm-.2.6h-.1v-1h.4c.2 0 .3.1.3.3 0 .2-.1.3-.3.3l.3.4h-.2l-.3-.4h-.2l.1.4z"/>
  <path fill="#ED1C24" d="M137.3 35c.4 0 .7-.3.7-.7 0-.4-.3-.7-.7-.7-.4 0-.7.3-.7.7 0 .4.3.7.7.7m-.8-.7c0-.5.4-.9.9-.9s.9.4.9.9-.4.9-.9.9-.9-.4-.9-.9"/>
  <path fill="#C40000" d="M327.4 124.2c-.8 0-1.6.7-1.8 1.5v2c0 .4 0 .9.2 1 .1.8 2.8 4.6 2.8 5.1-.1.6-.4 2.3-.4 2.3-.1.6-.5 1-1.1 1-.6 0-1-.5-.9-1l.5-2.8h-2l-.7 3.9c-.1.8.4 1.4 1.2 1.4h2.9c.8 0 1.6-.6 1.7-1.4 0 0 .7-3.6.7-3.9 0-.3-.1-.3-.1-.3 0-.3-2.4-4.3-2.6-4.4-.1-.1-.2-.5-.2-.7 0-.2.3-1.8.3-1.8.1-.6.6-1 1.2-1s.8.5.7 1l-.4 2.5h2l.7-3.8c.2-.8-.4-1.5-1.2-1.5h-3.5zm5.5 0l-2.4 13.8c-.1.8.4 1.4 1.2 1.4h2.9c.8 0 1.6-.6 1.7-1.4l2.6-13.8H337l-2.4 13.5c0 .2-.2.4-.4.4h-1.4c-.2 0-.3-.2-.3-.4l2.4-13.5h-2zm6.9 0l-2.9 15.3h1.9l1.3-6.9h2.4c.8 0 1.6-.6 1.7-1.4l1.1-5.4c.2-.8-.4-1.5-1.2-1.5h-4.3zm6.9 0l-3 15.3h4.3l.3-1.9h-2.1l.9-5.2h2.1l.3-1.6h-2.1l.9-4.7h2.1l.3-1.9h-4zm5.1 0l-2.9 15.3h1.9l1.3-6.9h1.4c.2.2.2.5.2.6 0 .2.1.5 0 .7 0 .2-1.1 5.5-1.1 5.5h1.9s1.1-5.8 1.1-5.9c0-.1 0-.4-.1-.6-.1-.1-.2-.3-.3-.4-.3-.2-.6-.3-.6-.3h-.1c.6-.2 1.6-.6 1.7-1.2l1.1-5.4c.2-.8-.4-1.5-1.2-1.5h-4.3zm10.3 0l-2.9 15.3h2.2l1.8-8.8.7 8.8h1.9l2.9-15.3h-2.2l-1.5 8-1-8h-1.9zm7.7 0l-2.9 15.3h1.9l2.9-15.3h-1.9zm2.9 0l-2.9 15.3h2.2l1.8-8.8.7 8.8h1.9l2.9-15.3h-2.2l-1.5 8-1-8h-1.9zm7.4 0l-.4 1.9h1.2l-2.4 13.4h2.2l2.4-13.4h1.2l.3-1.9h-4.5zm5.3 0l-3 15.3h4.3l.3-1.9h-2.1l.9-5.2h2.1l.3-1.6h-2.1l.9-4.7h2.1l.3-1.9h-4zm4.9 0l-2.9 15.3h2.2l1.8-8.8.7 8.8h1.9l2.9-15.3h-2.2l-1.5 8-1-8h-1.9zm7.6 0l-2.9 15.3h4.4c.8 0 1.6-.6 1.7-1.4l2.3-12.3c.2-.8-.4-1.5-1.2-1.5h-4.3zm8.3 0c-.8 0-1.6.7-1.8 1.5l-2.1 12.3c-.1.8.4 1.4 1.2 1.4h3.2c.8 0 1.6-.6 1.7-1.4l2.3-12.3c.2-.8-.4-1.5-1.2-1.5h-3.3zm-6.6 1.7h.9c.6 0 1 .5.9 1l-1.9 10c-.1.6-.6 1-1.2 1h-.9l2.2-12zm7.7 0c.6 0 1 .5.9 1l-1.8 10c-.1.6-.6 1-1.2 1s-.8-.5-.7-1l1.8-10v-.2h.1l.9-.8zm-65.6.1h.9c.2 0 .6.5.6.7l-.8 3.8c0 .2-.3.6-.5.6h-1.1v-.1l.9-4.6c-.2-.4-.1-.4 0-.4zm11.9 0h.9c.2 0 .6.5.6.7l-.8 3.8c0 .2-.5.7-.7.7h-.8c-.2 0-.3-.1-.3-.3v-.1l.9-4.6.2-.2zm-30.5 14.8v5h85.7v-5h-85.7zm63 .5h.7c.2 0 .3.1.3.3l-.2.8h-.4l.1-.6c0-.1-.1-.2-.2-.2s-.2.1-.3.2l-.1.4v.2c.1 0 .6.9.6 1v.1c0 .1-.2.9-.2.9 0 .2-.2.3-.4.3h-.6c-.2 0-.3-.1-.3-.3l.2-.9h.4l-.1.6c0 .1.1.2.2.2s.3-.1.3-.2l.1-.5c-.1-.2-.6-1-.6-1.1v-.2c0-.1.1-.6.1-.6l.4-.4zm3.5 0h.5l.1 1.3.7-1.3h.5l-1.1 2-.3 1.4h-.5l.2-1.5-.1-1.9zm4.9 0h.7c.2 0 .3.1.3.3l-.2.8h-.4l.1-.6c0-.1-.1-.2-.2-.2s-.3.1-.3.2l-.1.4v.2c.1 0 .6.9.6 1v.1c0 .1-.2.9-.2.9 0 .2-.2.3-.4.3h-.4c-.2 0-.3-.1-.3-.3l.2-.9h.4l-.1.6c0 .1.1.2.2.2s.2-.1.3-.2l.1-.5c-.1-.2-.6-1-.6-1.1v-.2c0-.1.1-.6.1-.6l.2-.4zm3.5 0h1l-.1.4h-.3l-.5 3h-.5l.5-3h-.3l.2-.4zm3.9 0h.9l-.1.4h-.5l-.2 1.1h.5l-.1.3h-.4l-.2 1.1h.5l-.1.4h-1l.7-3.3zm3.7 0h.6l.1 2 .9-1.9h.5l-.6 3.4h-.4l.3-1.8-.8 1.8h-.3l-.1-1.8-.3 1.8h-.5l.6-3.5zm-80.6.1h.9l-.1.4h-.5l-.2 1.1h.5l-.1.4h-.5l-.2 1.1h.5l-.1.4h-1l.8-3.4zm4.1 0h.4l.2 1.8.3-1.8h.5l-.6 3.4h-.4l-.2-2-.4 2h-.5l.7-3.4zm4.5 0h1l-.1.4h-.3l-.5 3h-.5l.5-3h-.3l.2-.4zm4.4 0h.9l-.1.4h-.5l-.2 1.1h.5l-.1.4h-.5l-.2 1.1h.5l-.1.4h-1l.8-3.4zm4.2 0h1c.2 0 .3.2.3.3l-.2 1.2c0 .1-.3.2-.4.3v.2l-.2 1.3h-.4l.2-1.2v-.3h-.3l-.3 1.5h-.4l.7-3.3zm4.3 0h1l-.1.4h-.3l-.5 3h-.5l.5-3h-.3l.2-.4zm5 0h.6l-.2 3.4h-.6l.1-.8h-.3l-.3.8h-.5l1.2-3.4zm4 0h.4l-.6 3.4h-.4l.6-3.4zm3.9 0h.4l.2 1.8.3-1.8h.5l-.6 3.4h-.4l-.2-2-.4 2h-.5l.7-3.4zm5 0h.6l.1 2 .9-2h.5l-.6 3.4h-.4l.3-1.8-.8 1.8h-.3l-.1-1.8-.3 1.8h-.5l.6-3.4zm5.4 0h.9l-.1.4h-.5l-.2 1.1h.5l-.1.4h-.5l-.2 1.1h.5l-.1.4h-.9l.7-3.4zm4.4 0h.4l.2 1.8.3-1.8h.5l-.6 3.4h-.4l-.2-2-.4 2h-.5l.7-3.4zm4.4 0h1l-.1.4h-.3l-.5 3h-.5l.5-3h-.3l.2-.4zm-36 .4l-.3 1.1s0 .1.1.1h.2l.2-.1.2-.8-.1-.2-.3-.1zm8.9 1l-.3.9h.2l.1-.9z"/>
  <path fill="#7F7F7F" d="M365 63.3h44.9v1.2H365zm0 3.1h26.6v1.2H365zm0 3.1h19v1.2h-19zm0 3h13.8v1.2H365zm0 2.9h10v1.2h-10zm0 3h6v1.2h-6zm0 3h3v1.2h-3zm0 3h1v1.2h-1zm32-18h12.9v1.2H397zm-7.9 3.1h20.8v1.2h-20.8zm-5.1 3h25.9v1.2H384zm-3.9 2.9h29.8v1.2h-29.8zm26.9 3h2.9v1.2H407zm-16 0h11v1.2h-11zm-15 0h9.9v1.2H376zm31 3h2.9v1.2H407zm-16 0h6v1.2h-6zm-18 0h8v1.2h-8zm32 3h4.9v1.2H405zm-15.9 0h3.8v1.2h-3.8zm-18.1 0h6v1.2h-6zm32 3h7v1.2h-7zm-16 0h4v1.2h-4zm-19 0h7v1.2h-7zm32 3h9.9v1.2H400zm-16 0h4.9v1.2H384zm-18 0h6.9v1.2H366zm-1 6.1h44.9v1.2H365zm39 2.9h5.9v1.2H404zm-18 0h8.8v1.2H386zm16 3h7.8v1.2H402zm-17 0h6v1.2h-6zm15 3h9.8v1.2H400zm-17 0h6v1.2h-6zm15 3h11.9v1.2H398zm-17 0h5.9v1.2H381zm14 3h14.9v1.2H395zm-17 0h7v1.2h-7zm12 3h19.9v1.2H390zm-16 0h11v1.2h-11zm-9 3h44.9v1.2H365zm32-24h13v1.2h-13zm-32 0h6.9v1.2H365zm16 0h7v1.2h-7zm-16 6h13.9v1.2H365zm0 3h10v1.2h-10zm0 3h7v1.2h-7zm0 3h3.9v1.2H365zm0 3h2.9v1.2H365zm0 3h2v1.2h-2z"/>
  <path fill="#FFF" d="M105.3 21.6v-4.7h1v3.9h2.4v.8h-3.4zm4.1 0v-4.8h1v4.8h-1zm4.9-1.8l.9.3c-.1.5-.4.9-.7 1.2-.3.3-.8.4-1.3.4-.6 0-1.2-.2-1.6-.6s-.6-1-.6-1.8.2-1.4.6-1.9c.4-.4 1-.7 1.6-.7.6 0 1.1.2 1.4.5.2.2.4.5.5.9l-1 .2c-.1-.2-.2-.4-.4-.6-.2-.1-.4-.2-.7-.2-.4 0-.6.1-.9.4-.2.3-.3.7-.3 1.2 0 .6.1 1 .3 1.3.2.3.5.4.9.4.3 0 .5-.1.7-.2.4-.2.6-.4.6-.8zm1.8 1.8v-4.8h3.6v.8h-2.6v1.1h2.4v.8h-2.4v1.3h2.7v.8h-3.7zm4.5 0v-4.8h.9l2 3.2v-3.2h.9v4.8h-1l-1.9-3.1v3.1h-.9zm7.9-1.8l.9.3c-.1.5-.4.9-.7 1.2-.3.3-.8.4-1.3.4-.6 0-1.2-.2-1.6-.6s-.6-1-.6-1.8.2-1.4.6-1.9c.4-.4 1-.7 1.6-.7.6 0 1.1.2 1.4.5.2.2.4.5.5.9l-1 .2c-.1-.2-.2-.4-.4-.6-.2-.1-.4-.2-.7-.2-.4 0-.6.1-.9.4-.2.3-.3.7-.3 1.2 0 .6.1 1 .3 1.3.2.3.5.4.9.4.3 0 .5-.1.7-.2.4-.2.6-.4.6-.8zm1.8 1.8v-4.8h3.6v.8h-2.6v1.1h2.4v.8h-2.4v1.3h2.7v.8h-3.7zm4.5-4.8h1.8c.4 0 .7 0 .9.1.3.1.5.2.7.4.2.2.4.5.5.8s.2.7.2 1.1c0 .4 0 .7-.1 1-.1.3-.3.6-.5.8-.2.2-.4.3-.7.4-.2.1-.5.1-.9.1h-1.8v-4.7zm1 .8v3.2h1.3c.2 0 .3-.1.4-.2s.2-.2.3-.5c.1-.2.1-.5.1-.9s0-.7-.1-.9c-.1-.2-.2-.4-.3-.5-.1-.1-.3-.2-.4-.2h-1.3zm-17.9 7.2h2.8c.2 0 .4.1.5.2.1.1.3.2.4.4.1.2.1.4.1.6 0 .2-.1.4-.2.6-.1.2-.3.3-.5.4.3.1.5.2.7.4.2.2.2.4.2.7 0 .2-.1.4-.2.6-.1.2-.2.4-.4.5-.2.1-.4.2-.7.2h-2.8v-4.6zm.9.8v1.1h1.3c.2 0 .3-.1.4-.2.1-.1.1-.2.1-.4 0-.1 0-.3-.1-.4s-.2-.1-.4-.2h-1.3zm0 1.9v1.3h1.6c.1 0 .3-.1.4-.2s.1-.2.1-.4c0-.1 0-.3-.1-.4-.1-.1-.2-.2-.3-.2-.1 0-.4-.1-.9-.1h-.8zm5.2 2.1v-2l-1.8-2.8h1.1l1.1 1.9 1.1-1.9h1.1l-1.8 2.8v2h-.8z"/>
</svg>
