<svg xmlns="http://www.w3.org/2000/svg" width="308.39514" height="200">
  <path fill="#807887" d="M307.08988 37.97093H2.0172056c-.7119549 0-1.2459211-.5933-1.2459211-1.24592V11.92524c0-1.48323 1.2459211-2.72916 2.7291605-2.72916H307.14921c.71196 0 1.24592.5933 1.24592 1.24593v26.283c0 .65262-.59329 1.24592-1.30525 1.24592zm-2.13586 32.39395H2.6698309C1.1865915 70.36488 0 69.17829 0 67.69505V44.20053c0-1.48324 1.1865915-2.66983 2.6698309-2.66983H304.95402c1.48324 0 2.66983 1.18659 2.66983 2.66983v23.49452c0 1.42391-1.18659 2.66983-2.66983 2.66983z"/>
  <path fill="#48434b" d="M3.6784337 37.97093H305.48799v1.42391H3.6784337z"/>
  <path fill="#746c7a" d="M3.6784337 39.39484H305.48799v2.13586H3.6784337z"/>
  <path fill="#48434b" d="M2.9071492 70.36488H304.7167v1.42391H2.9071492z"/>
  <path fill="#746c7a" d="M2.9071492 71.78879H304.7167v2.13586H2.9071492z"/>
  <path fill="#807887" d="M304.95402 102.6995H2.6698309C1.1865915 102.6995 0 101.5129 0 100.02966V76.53515c0-1.48324 1.1865915-2.66983 2.6698309-2.66983H304.95402c1.48324 0 2.66983 1.18659 2.66983 2.66983v23.49451c0 1.48324-1.18659 2.66984-2.66983 2.66984z"/>
  <path fill="#48434b" d="M2.9071492 102.6995H304.7167v1.42391H2.9071492z"/>
  <path fill="#746c7a" d="M2.9071492 104.12341H304.7167v2.13586H2.9071492z"/>
  <path fill="#807887" d="M304.95402 135.09344H2.6698309C1.1865915 135.09344 0 133.90685 0 132.42361V108.9291c0-1.48324 1.1865915-2.66983 2.6698309-2.66983H304.95402c1.48324 0 2.66983 1.18659 2.66983 2.66983v23.49451c0 1.48324-1.18659 2.66983-2.66983 2.66983z"/>
  <path fill="#48434b" d="M2.9071492 135.09344H304.7167v1.42391H2.9071492z"/>
  <path fill="#746c7a" d="M2.9071492 136.51735H304.7167v2.13587H2.9071492z"/>
  <path fill="#807887" d="M304.95402 166.36013H2.6698309C1.1865915 166.36013 0 165.17354 0 163.6903v-23.49451c0-1.48324 1.1865915-2.66983 2.6698309-2.66983H304.95402c1.48324 0 2.66983 1.18659 2.66983 2.66983v23.49451c0 1.48324-1.18659 2.66983-2.66983 2.66983z"/>
  <path fill="#48434b" d="M2.9071492 166.36013H304.7167v1.42391H2.9071492z"/>
  <path fill="#746c7a" d="M2.9071492 167.78404H304.7167v2.13587H2.9071492z"/>
  <path fill="#807887" d="M304.95402 199.70335H2.6698309C1.1865915 199.70335 0 198.51676 0 197.03352v-24.44378c0-1.48324 1.1865915-2.66983 2.6698309-2.66983H304.95402c1.48324 0 2.66983 1.18659 2.66983 2.66983v24.44378c0 1.48324-1.18659 2.66983-2.66983 2.66983z"/>
  <path fill="#807886" d="M261.52477 199.64402H47.58232V7.4162c0-3.91576 3.203797-7.11955 7.119549-7.11955H254.46455c3.91575 0 7.11955 3.20379 7.11955 7.11955v192.22782z"/>
  <path fill="#6a626e" d="M126.84663 120.49837h55.3545v5.63631h-55.3545z"/>
  <path fill="#6f6774" d="M126.84663 126.13468h55.3545v5.63631h-55.3545z"/>
  <path fill="#797180" d="M126.84663 131.77099h55.3545v5.63631h-55.3545z"/>
  <path fill="#827988" d="M126.84663 137.4073h55.3545v5.63631h-55.3545z"/>
  <path fill="#7f7785" d="M126.84663 143.04361h55.3545v5.63631h-55.3545z"/>
  <path fill="#847c8b" d="M126.84663 148.67992h55.3545v5.63631h-55.3545z"/>
  <path fill="#89808e" d="M126.84663 154.31623h55.3545v5.63631h-55.3545z"/>
  <path fill="#908996" d="M126.84663 159.89321h55.3545v5.63631h-55.3545z"/>
  <path fill="#8d8693" d="M126.84663 165.52952h55.3545v5.63631h-55.3545z"/>
  <path fill="#8c8391" d="M126.84663 171.16583h55.3545v5.63631h-55.3545z"/>
  <path fill="#847d8b" d="M126.84663 176.80214h55.3545v5.63631h-55.3545z"/>
  <path fill="#4b474f" d="M127.73658 120.14239h-2.25453v53.98991c1.72056-17.14624 3.73777-35.24176 2.25453-53.98991zm53.63393 0h2.25453v53.98991c-1.72056-17.14624-3.73777-35.24176-2.25453-53.98991z"/>
  <circle cx="27.647581" cy="186.35419" r="5.8142986" fill="#201c24"/>
  <path fill="none" stroke="#000" stroke-width=".59329575" stroke-miterlimit="10" d="M24.087808 187.83744l.652625-3.55978 3.381786-1.24592 2.78849 2.37318-.652625 3.55978-3.441116 1.24592z"/>
  <path fill="#5e585e" d="M30.436072 187.83744h-6.348264l.652625-3.55978 3.381786-1.24592 2.78849 2.37318-.474637 2.43252"/>
  <path fill="#2a2727" d="M30.436072 187.83744h-6.348264l2.72916 2.37318 3.441116-1.24592.177988-1.12726"/>
  <circle cx="281.4595" cy="186.35419" r="5.8142986" fill="#201c24"/>
  <path fill="none" stroke="#000" stroke-width=".59329575" stroke-miterlimit="10" d="M285.01928 187.83744l-.65262-3.55978-3.38179-1.24592-2.78849 2.37318.65263 3.55978 3.44111 1.24592z"/>
  <path fill="#5e585e" d="M278.67102 187.83744h6.34826l-.65262-3.55978-3.38179-1.24592-2.78849 2.37318.47464 2.43252"/>
  <path fill="#2a2727" d="M278.67102 187.83744h6.34826l-2.72916 2.37318-3.44111-1.24592-.17799-1.12726"/>
  <path fill="none" stroke="#665f6b" stroke-width=".59329575" stroke-miterlimit="10" d="M57.431029 127.32127c0-3.91575 3.203797-7.11955 7.119549-7.11955H244.49718c3.91575 0 7.11955 3.2038 7.11955 7.11955"/>
  <path d="M251.67606 127.26194c0-3.91575-3.2038-6.34826-7.11955-6.34826H64.550578c-3.915752 0-7.119549 2.43251-7.119549 6.34826 0-3.91575 3.203797-7.11955 7.119549-7.11955H244.49718c3.97508 0 7.17888 3.2038 7.17888 7.11955z"/>
  <path fill="#4b474f" d="M251.97271 200H57.134381v-72.67873h.593296v72.08543H251.37941v-72.08543h.5933"/>
  <path fill="#4b474f" d="M261.82142 199.94067H47.285672V7.4162c0-4.09374 3.322456-7.4162 7.416197-7.4162H254.46455c4.09374 0 7.4162 3.32246 7.4162 7.4162v192.52447zm-213.942452-.5933H261.28745V7.4162c0-3.73777-3.08514-6.8229-6.8229-6.8229H54.701869c-3.737763 0-6.822901 3.08513-6.822901 6.8229v191.93117z"/>
  <path d="M243.31059 89.58766H65.7965c-3.915752 0-7.11955-3.2038-7.11955-7.11955V.29665h191.75319v82.17146c0 3.91575-3.2038 7.11955-7.11955 7.11955z"/>
  <path fill="#fff" d="M71.729457 62.77069c4.2124 0 7.653515 2.37318 7.653515 5.33966 0 2.96648-3.441115 5.33966-7.653515 5.33966s-7.653515-2.37318-7.653515-5.33966c0-2.96648 3.441115-5.33966 7.653515-5.33966z"/>
  <g fill="#a58252">
    <path d="M70.06822926 71.25482078h.2373183c0 .05932957 0 .11865915.05932958.17798872.05932957.05932958.11865915.05932958.17798872.05932958.05932958 0 .11865916 0 .17798873-.05932958.0593295 0 .0593295-.05932957.0593295-.11865915 0-.05932957 0-.05932957-.0593296-.11865915 0 0-.0593296-.05932958-.1186592-.05932958h-.1779888c-.1186592 0-.2373183-.05932957-.2373183-.11865915-.0593296-.05932957-.0593296-.11865915-.0593296-.2373183s.0593295-.2373183.1186591-.29664788c.0593296-.0593296.1779887-.1186592.2966479-.1186592.1186591 0 .2373183.0593295.3559774.1186591.0593296.0593295.1186591.1779887.1186591.2966478h-.2373183c0-.0593296 0-.1186592-.0593296-.1186592-.0593296-.0593296-.1186592-.0593296-.1779887-.0593296s-.1186592 0-.1779887.0593296c-.0593296 0-.0593296.0593295-.0593296.1186591 0 .0593295 0 .0593295.0593296.0593295 0 0 .0593296.0593296.1779887.0593296h.1779887c.11865912 0 .1779887.0593295.2373183.1186591.05932955.0593296.05932955.1779888.05932955.2373183 0 .1186592-.05932953.2373183-.1186591.3559775-.0593296.0593296-.17798873.1186591-.35597746.1186591-.1779887 0-.29664786-.0593296-.35597743-.11865918-.0593296-.11865913-.11865915-.2373183-.11865915-.35597743zm1.89854643.11865915c0 .11865915-.0593296.17798873-.1186592.2373183-.0593296.05932958-.1779888.11865915-.2373183.11865915-.1186592 0-.2373183-.05932957-.2966479-.11865915-.0593296-.11865915-.1186592-.2373183-.1186592-.35597745 0-.17798873.0593295-.29664788.1186591-.35597746.0593296-.11865915.1779887-.11865915.2966479-.11865915.1186591 0 .2373183.05932957.2966478.11865915.0593296.11865915.1186591.2373183.1186591.41530703v.05932958h-.5932958c0 .05932957 0 .11865915.0593296.17798873.0593296.05932957.0593296.05932957.1186591.05932957.0593296 0 .0593296 0 .1186591-.05932957 0 0 .0593296-.05932958.0593296-.11865916l.1779887-.05932957zm-.5932958-.29664788h.3559774c0-.05932958 0-.11865915-.0593296-.11865915-.0593296-.05932958-.0593296-.05932958-.1186592-.05932958s-.1186592 0-.1186592.05932958c0 0-.0593296.05932957-.0593296.11865915z"/>
    <path d="M72.85671933 71.55146866v.11865915h-.2373183v-.1186591l-.11865916.1186592c-.05932957 0-.11865915.0593296-.17798873.0593296-.11865915 0-.17798872 0-.2373183-.0593295-.05932958-.0593295-.05932958-.1186591-.05932958-.2373183 0-.1186591 0-.1779887.05932958-.1779887.05932958-.0593295.11865915-.0593295.2373183-.1186591h.05932958c.11865915 0 .17798873-.0593295.17798873-.1186591 0-.0593295 0-.0593295-.05932958-.0593295h-.11865915c-.05932958 0-.11865915 0-.11865915.0593296 0 0-.05932958.0593296-.05932958.1186592h-.2373183c0-.1186591.0593295-.1779887.1186591-.2373183.0593296-.0593296.1779887-.1186591.2966479-.1186591h.1779887c.0593295 0 .0593295.05932956.1186591.05932956 0 0 .0593295.0593296.0593295.11865917v.1779887l.1186591.41530706zm-.17798873-.35597746s-.05932958.05932958-.17798873.05932958c-.05932957 0-.11865915 0-.17798873.05932957l-.05932957.05932958c0 .05932957 0 .05932957.05932957.11865915l.05932958.05932958c.05932958 0 .11865915 0 .17798873-.05932958.05932957-.11865915.11865915-.17798873.11865915-.29664788 0 .05932958 0 .05932958 0 0zm.41530703.4746366v-1.30525066h.2373183v1.30525067h-.2373183z"/>
  </g>
  <path fill="#a58252" d="M80.272916 68.11035l.889944.94928-1.305251.77128.355977 1.54257-1.423909.0593-.118659 1.66123-1.542569-.41531-.237319 1.54257-1.42391-.5933-.771284 1.36458-1.127262-.94927-1.008603 1.36458-1.067932-1.18659-1.186592 1.12726-.771284-1.30525-1.42391.83061-.474637-1.48323-1.601898.65262-.237318-1.42391-1.42391.11866.237318-1.48324h-1.483239l.355977-1.6019-1.127262-.65262.889944-1.06794-.830614-1.42391 1.36458-.4153-.355977-1.54257h1.483239l.177989-1.54257 1.30525.41531.415307-1.48324 1.364581.71195.533966-1.30525 1.186591.83062.830614-1.24593 1.067933 1.06794.949273-1.00861.830614 1.24593 1.305251-.83062.533966 1.36458 1.305251-.65262.355977 1.48324 1.601899-.29665-.05933 1.42391 1.601898.17799-.474636 1.36458 1.36458.59329-.830614 1.24592zm-.949273 0c0-2.96648-3.441116-5.33966-7.653515-5.33966-4.2124 0-7.653516 2.37318-7.653516 5.33966 0 2.96648 3.441116 5.33966 7.653516 5.33966 4.212399 0 7.653515-2.43251 7.653515-5.33966z"/>
  <path fill="#a58252" d="M69.178285 65.32186c0-.35597.177989-.4153.355978-.4153.118659 0 .355977.0593.355977.4153 0 .35598-.177988.41531-.355977.41531-.177989.0593-.355978-.0593-.355978-.41531zm-.237318 0c0 .5933.415307.65263.593296.65263.177989 0 .593296-.0593.593296-.65263 0-.59329-.415307-.65262-.593296-.65262-.177989 0-.593296.0593-.593296.65262zm1.601899.65263h-.237319v-.77129h-.118659v-.17798h.118659v-.0593c0-.17799.118659-.29665.296648-.29665h.118659v.17799h-.05933c-.05933 0-.05933 0-.05933.11866v.0593h.177989v.17798h-.177989l-.05933.77129zm.593295 0h-.237318v-.77129h-.118659v-.17798h.118659v-.0593c0-.17799.118659-.29665.296648-.29665h.118659v.17799h-.118659c-.05933 0-.05933 0-.05933.11866v.0593h.177989v.17798h-.177989v.77129zm.474637-.94927v.94927h-.237318v-.94927h.237318zm0-.11866h-.237318v-.23732h.237318v.23732zm1.008603.71195c0 .11866-.05933.35598-.415307.35598-.355978 0-.415307-.29665-.415307-.47464 0-.29665.118659-.53396.474636-.53396.118659 0 .415307.0593.415307.35597h-.296648c0-.0593-.05933-.17799-.177988-.17799-.177989 0-.177989.17799-.177989.29665 0 .11866 0 .29665.177989.29665.118659 0 .177988-.11866.177988-.17799l.237319.0593zm.415307-.59329v.94927h-.237319v-.94927h.237319zm0-.11866h-.237319v-.23732h.237319v.23732zm.711955.71195c0 .11866-.118659.17799-.237319.17799-.05933 0-.118659 0-.118659-.11866s.05933-.11866.177989-.11866c.118659 0 .118659-.0593.177989-.0593v.11866zm.237318-.35598c0-.23731-.237318-.29664-.355977-.29664-.177989 0-.415307.0593-.415307.35597h.237318c0-.0593 0-.11866.177989-.11866.05933 0 .177988 0 .177988.11866 0 .0593-.05933.0593-.05933.0593l-.237319.0593c-.177988 0-.296647.11866-.296647.29665 0 .17799.118659.29665.296647.29665.177989 0 .237319-.0593.296648-.11866v.11866h.237319v-.0593c-.05933 0-.05933-.0593-.05933-.11866v-.5933zm.415307.71196h-.237318v-1.24592h.237318"/>
  <path fill="#a58252" d="M71.729457 72.97538c3.975082 0 7.178879-2.1952 7.178879-4.86503s-3.203797-4.86502-7.178879-4.86502c-3.975081 0-7.178879 2.19519-7.178879 4.86502s3.203798 4.86503 7.178879 4.86503zm-7.00089-4.86503c0-2.6105 3.144468-4.68703 7.00089-4.68703 3.856423 0 7.00089 2.13586 7.00089 4.68703s-3.144467 4.68704-7.00089 4.68704c-3.856422 0-7.00089-2.13587-7.00089-4.68704z"/>
  <g fill="#a58252">
    <path d="M76.23850516 69.7122518c.83061406 0 1.54256898-.65262534 1.54256898-1.54256898 0-.83061406-.65262534-1.54256897-1.54256898-1.54256897h-9.07742513c-.83061406 0-1.54256897.65262533-1.54256897 1.54256897 0 .83061407.65262533 1.54256898 1.54256897 1.54256898h9.07742513zm-9.07742513-.35597746c-.59329576 0-1.12726194-.4746366-1.12726194-1.12726194 0-.59329576.4746366-1.12726194 1.1272619-1.12726194h9.0774251c.5932957 0 1.1272619.4746366 1.1272619 1.12726194 0 .59329576-.4746366 1.12726194-1.127262 1.12726194H67.16108z"/>
    <path d="M66.745773 68.9409673v-1.4239098h.4746366l.59329577.9492732v-.9492732h.4746366v1.4239098h-.4746366c-.05932958-.05932956-.59329576-.9492732-.59329576-.9492732v.9492732h-.4746366zm2.78849007-.9492732c.05932958 0 .05932958 0 0 0h.17798873c.35597746-.11865916.53396618.05932957.59329576.11865915.17798873.17798873.11865915.53396618.11865915.88994364h-.4746366v-.6526254c0-.0593296-.1186591-.1779888-.1779887-.1779888-.1186591 0-.2373183.0593296-.2373183.1779887v.6526253h-.4746366v-.9492733l.4746366-.0593296zm1.12726195-.11865916v-.11865915h.41530703v.1186591h.2373183v.1186591h-.2373183v.9492732h-.41530703v-.9492732h-.2373183v-.1186592m.88994363.5932957c0-.2966479.29664788-.5339662.5339662-.5339662.11865914 0 .2373183 0 .35597744.0593296.0593295.0593295.1186591.0593295.1779887.1186591.1186591.1186591.1779887.2373183.1779887.415307h-.7712845c0 .1186591-.0593296.415307.1186591.415307.0593296 0 .1186591 0 .1779887-.0593296v-.1779887h.4746366c-.1186592.2373183-.3559775.3559774-.5932958.3559774-.1779888-.1186592-.6526254-.1186592-.6526254-.5932958zm.41530703-.1779888h.29664788v-.1186592c0-.0593296-.05932957-.1186592-.17798872-.1186592-.11865916 0-.17798873.0593296-.17798873.1779887.0593296 0 .0593296.05932957.0593296.05932957zm3.79709287.3559774c-.05932958-.1186592-.11865915-.2966479 0-.4746366.05932957-.1186592.2373183-.2373183.35597745-.2966479.11865916-.0593296.29664788-.0593296.4746366 0 .11865916.0593296.2966479.1186591.35597747.2966479.05932957.1186591.05932957.3559774 0 .4746366-.05932958.0593295-.17798873.1779887-.29664788.2373183-.1186592.0593295-.3559775.0593295-.4746367 0-.1779888 0-.2966479-.0593296-.4153071-.2373183zm.59329576.1779887c.1186592 0 .1779888-.1186592.1779888-.1779888v-.4746366c0-.0593296-.0593296-.17798878-.1779887-.17798878-.1779887 0-.1779887.11865915-.1779887.1779887v.4746366c0 .0593296.0593296.17798876.1779888.17798876zm-.7712844.1186591h-.415307v-.0593296c-.1186591.1186592-.5932957.1186592-.7712845-.2373183 0-.05932957-.0593295-.2966479 0-.415307.1186592-.2373183.3559775-.2966479.5339662-.2966479.0593296 0 .2373183.05932956.2373183.05932956v-.5339662h.4153071v1.4832394zm-.4746366-.2373183v-.4746366c0-.0593296 0-.1186592-.0593296-.1186592-.0593296-.0593296-.0593296-.0593296-.1186591-.0593296-.1186591 0-.1186591.05932956-.1186591.11865913v.41530705c0 .0593296 0 .0593296.0593296.11865915.1186592.11865914.2373183.0593296.2373183 0zm-5.9329576.2373183v-.9492732h-.4746366v.9492732m.4746366-1.1272619v-.2966479h-.4746366v.2966478m4.6870365.17798874h.1779888c.3559775-.11865915.5339662.0593296.5932958.11865916.1779888.17798874.1186592.5339662.1186592.88994365h-.4746366v-.65262532c0-.05932957-.1186591-.17798873-.1779887-.17798873-.1186591 0-.2373183.0593296-.2373183.17798873v.65262532h-.415307v-.9492733l.4153071-.0593296zm3.3224563-.1779887l-.0593295-.11865914h.0593296c.0593296 0 .0593296 0 .0593296.05932956 0 0 0 .0593296-.0593295.0593296l.0593296.0593296h-.0593296v-.0593296zm.0593296-.05932957c0-.0593296 0-.0593296 0 0zm0 .1186591c-.0593295 0-.1186591-.05932957-.1186591-.11865915s.0593296-.11865914.1186592-.11865914.1186592.0593296.1186592.11865917c0 .0593296-.0593296.11865914-.1186591.11865914zm0-.2373183c-.0593295 0-.1186591.0593296-.1186591.11865915 0 .0593296.0593296.11865916.1186592.11865916s.1186592-.05932955.1186592-.11865913-.0593296-.11865916-.1186591-.11865916z"/>
  </g>
  <path fill="#ed1c24" d="M64.194601 24.02848c-1.720558 0-2.907149-1.24592-2.907149-2.72916s1.186591-2.72916 2.907149-2.72916h16.374963c1.720558 0 2.907149 1.24592 2.907149 2.72916s-1.186591 2.72916-2.907149 2.72916H64.194601z"/>
  <path fill="#fff" d="M64.194601 19.28211c-1.36458 0-2.195194.94928-2.195194 2.07654 0 1.12726.830614 2.07653 2.195194 2.07653h16.374963c1.36458 0 2.195194-.94927 2.195194-2.07653 0-1.12726-.830614-2.07654-2.195194-2.07654H64.194601z"/>
  <path fill="#ed1c24" d="M63.482646 20.0534h.830614l1.127262 1.77988V20.0534h.771285v2.55117h-.771285l-1.127262-1.77989v1.77989h-.830614V20.0534zm7.00089.23731h.771285v.35598h.415307v.23732h-.415307v1.72056h-.771285v-1.72056h-.415307v-.23732h.415307v-.35598zm-3.856422.5933h.771284v1.72056h-.771284v-1.72056zm0-.83061h.771284v.53396h-.771284v-.53396zm13.527143.71195c-.652625 0-1.127262.41531-1.127262.94927 0 .53397.533966.94928 1.127262.94928.652625 0 1.127262-.41531 1.127262-.94928.05933-.53396-.474637-.94927-1.127262-.94927m.355977.94927v.35598c0 .29665-.177988.35598-.296648.35598-.177988 0-.296647-.11866-.296647-.35598v-.71195c0-.29665.177988-.35598.296647-.35598.177989 0 .296648.11866.296648.35598v.35597zm-2.491842 0v-.29664c0-.23732-.177989-.35598-.296648-.35598-.118659 0-.296648.0593-.296648.35598v.59329c0 .23732.177989.35598.296648.35598.118659 0 .296648-.0593.296648-.35598v-.29665zm0-1.66122h.771285v2.55117h-.771285v-.11866c-.296648.17799-.652625.17799-.889943.0593-.05933-.0593-.533967-.23732-.533967-.83062 0-.47463.415307-.94927 1.008603-.88994.177989 0 .296648.0593.415307.17799v-.94927zm-8.780777.77128c.296648 0 .889944.17799.889944.83062v.94927h-.771285v-1.12726c0-.17799-.118659-.29665-.355977-.29665-.237319 0-.355978.17799-.355978.29665v1.12726h-.771284v-1.72056h.771284v.17799c.118659-.11866.296648-.23732.593296-.23732m6.288935 0c.296648 0 .889944.17799.889944.83062v.94927h-.771285v-1.12726c0-.17799-.118659-.29665-.355977-.29665-.237319 0-.355978.17799-.355978.29665v1.12726h-.771284v-1.72056h.771284v.17799c.118659-.11866.296648-.23732.593296-.23732m-2.432513 1.18659v.11866c0 .29665-.177988.35598-.296648.35598-.118659 0-.296647-.0593-.296647-.35598v-.35598h1.483239c0-.53396-.533966-.94927-1.127262-.94927-.593296 0-1.127262.41531-1.127262.94927 0 .53397.533966.94928 1.127262.94928.533966 0 .949273-.29665 1.067932-.71196h-.830614zm-.652625-.53396c0-.17799 0-.23732.05933-.35598.05933-.11866.177988-.17799.296647-.17799.11866 0 .237319.0593.296648.17799.05933.0593.05933.17799.05933.35598h-.711955zm9.018096-1.1866c.05933 0 .118659 0 .118659-.11865 0-.0593-.05933-.0593-.118659-.0593h-.11866v.17798h.11866zm-.11866.35598h-.05933v-.59329h.237318c.118659 0 .177989.0593.177989.17799 0 .11865-.05933.17798-.177989.17798l.177989.23732h-.118659l-.177989-.23732h-.118659l.05933.23732z"/>
  <path fill="#ed1c24" d="M81.459508 20.76535c.237318 0 .415307-.17799.415307-.41531 0-.23731-.177989-.4153-.415307-.4153-.237319 0-.415307.17799-.415307.4153 0 .23732.177988.41531.415307.41531m-.474637-.41531c0-.29664.237318-.53396.533966-.53396s.533966.23732.533966.53396c0 .29665-.237318.53397-.533966.53397s-.533966-.23732-.533966-.53397"/>
  <path fill="#c40000" d="M194.24503 73.68733c-.47464 0-.94927.41531-1.06793.88995v1.18659c0 .23732 0 .53396.11866.59329.0593.47464 1.66123 2.72916 1.66123 3.02581-.0593.35598-.23732 1.36458-.23732 1.36458-.0593.35598-.29665.5933-.65263.5933s-.59329-.29665-.53396-.5933l.29664-1.66123h-1.18659l-.4153 2.31386c-.0593.47463.23731.83061.71195.83061h1.72056c.47463 0 .94927-.35598 1.0086-.83061 0 0 .41531-2.13587.41531-2.31386 0-.17798-.0593-.17798-.0593-.17798 0-.17799-1.42391-2.55118-1.54257-2.61051-.0593-.0593-.11866-.29664-.11866-.4153 0-.11866.17799-1.06793.17799-1.06793.0593-.35598.35598-.5933.71195-.5933.35598 0 .47464.29665.41531.5933l-.23732 1.48323h1.18659l.41531-2.25452c.11866-.47464-.23732-.88994-.71195-.88994h-2.07654zm3.26313 0l-1.42391 8.18748c-.0593.47464.23732.83062.71195.83062h1.72056c.47464 0 .94927-.35598 1.0086-.83062l1.54257-8.18748h-1.12726l-1.42391 8.0095c0 .11866-.11866.23731-.23732.23731h-.83061c-.11866 0-.17799-.11865-.17799-.23731l1.42391-8.0095h-1.18659zm4.09374 0l-1.72056 9.07743h1.12726l.77129-4.09374h1.42391c.47463 0 .94927-.35598 1.0086-.83062l.65263-3.20379c.11865-.47464-.23732-.88995-.71196-.88995h-2.55117zm4.09374 0l-1.77989 9.07743h2.55117l.17799-1.12726h-1.24592l.53397-3.08514h1.24592l.17799-.94927h-1.24592l.53396-2.78849h1.24592l.17799-1.12727h-2.37318zm3.02581 0l-1.72056 9.07743h1.12726l.77129-4.09374h.83061c.11866.11866.11866.29665.11866.35597 0 .11866.0593.29665 0 .41531 0 .11866-.65263 3.26313-.65263 3.26313h1.12727s.65262-3.44112.65262-3.50045c0-.0593 0-.23731-.0593-.35597-.0593-.0593-.11866-.17799-.17799-.23732-.17799-.11866-.35597-.17799-.35597-.17799h-.0593c.35597-.11866.94927-.35598 1.0086-.71196l.65262-3.20379c.11866-.47464-.23731-.88995-.71195-.88995h-2.55117zm6.11094 0l-1.72055 9.07743h1.30525l1.06793-5.221.41531 5.221h1.12726l1.72056-9.07743h-1.30525l-.88995 4.74637-.59329-4.74637h-1.12727zm4.56838 0l-1.72056 9.07743h1.12727l1.72055-9.07743h-1.12726zm1.72056 0l-1.72056 9.07743h1.30525l1.06793-5.221.41531 5.221h1.12726l1.72056-9.07743h-1.30525l-.88994 4.74637-.5933-4.74637h-1.12726zm4.39039 0l-.23732 1.12727h.71195l-1.42391 7.95016h1.30526l1.4239-7.95016h.71196l.17799-1.12727h-2.66983zm3.14447 0l-1.77989 9.07743h2.55117l.17799-1.12726h-1.24592l.53396-3.08514h1.24592l.17799-.94927h-1.24592l.53397-2.78849h1.24592l.17799-1.12727h-2.37318zm2.90714 0l-1.72055 9.07743h1.30525l1.06793-5.221.41531 5.221h1.12726l1.72056-9.07743h-1.30525l-.88995 4.74637-.59329-4.74637h-1.12727zm4.50905 0l-1.72056 9.07743h2.61051c.47463 0 .94927-.35598 1.0086-.83062l1.36458-7.29753c.11866-.47464-.23732-.88995-.71196-.88995h-2.55117zm4.92436 0c-.47464 0-.94928.41531-1.06794.88995l-1.24592 7.29753c-.0593.47464.23732.83062.71196.83062h1.89854c.47464 0 .94928-.35598 1.00861-.83062l1.36458-7.29753c.11866-.47464-.23732-.88995-.71196-.88995h-1.95787zm-3.91576 1.00861h.53397c.35598 0 .5933.29664.53397.59329l-1.12726 5.93296c-.0593.35598-.35598.5933-.71196.5933h-.53397l1.30525-7.11955zm4.56838 0c.35598 0 .5933.29664.53397.59329l-1.06793 5.93296c-.0593.35598-.35598.5933-.71196.5933s-.47464-.29665-.41531-.5933l1.06794-5.93296v-.11866h.0593l.53396-.47463zm-38.9202.0593h.53397c.11866 0 .35597.29664.35597.4153l-.47463 2.25453c0 .11866-.17799.35597-.29665.35597h-.65263v-.0593l.53397-2.72916c-.11866-.23731-.0593-.23731 0-.23731zm7.06022 0h.53397c.11866 0 .35597.29664.35597.4153l-.47463 2.25453c0 .11866-.29665.4153-.41531.4153h-.47464c-.11866 0-.17799-.0593-.17799-.17799v-.0593l.53397-2.72917.11866-.11865zm-18.09552 8.78077v2.96648h50.84545v-2.96648h-50.84545zm37.37763.29665h.41531c.11866 0 .17799.0593.17799.17799l-.11866.47464h-.23732l.0593-.35598c0-.0593-.0593-.11866-.11866-.11866-.0593 0-.11866.0593-.17799.11866l-.0593.23732v.11866c.0593 0 .35598.53396.35598.59329v.0593c0 .0593-.11866.53397-.11866.53397 0 .11866-.11866.17799-.23732.17799h-.35597c-.11866 0-.17799-.0593-.17799-.17799l.11866-.53397h.23731l-.0593.35598c0 .0593.0593.11866.11866.11866.0593 0 .17799-.0593.17799-.11866l.0593-.29665c-.0593-.11866-.35598-.59329-.35598-.65262v-.11866c0-.0593.0593-.35598.0593-.35598l.23732-.23732zm2.07654 0h.29665l.0593.77129.41531-.77129h.29665l-.65263 1.18659-.17798.83062h-.29665l.11866-.88995-.0593-1.12726zm2.90715 0h.4153c.11866 0 .17799.0593.17799.17799l-.11866.47464h-.23732l.0593-.35598c0-.0593-.0593-.11866-.11865-.11866-.0593 0-.17799.0593-.17799.11866l-.0593.23732v.11866c.0593 0 .35597.53396.35597.59329v.0593c0 .0593-.11865.53397-.11865.53397 0 .11866-.11866.17799-.23732.17799h-.23732c-.11866 0-.17799-.0593-.17799-.17799l.11866-.53397h.23732l-.0593.35598c0 .0593.0593.11866.11866.11866.0593 0 .11866-.0593.17799-.11866l.0593-.29665c-.0593-.11866-.35598-.59329-.35598-.65262v-.11866c0-.0593.0593-.35598.0593-.35598l.11866-.23732zm2.07653 0h.5933l-.0593.23732h-.17799l-.29665 1.77989h-.29665l.29665-1.77989h-.17799l.11866-.23732zm2.31386 0h.53396l-.0593.23732h-.29665l-.11866.65262h.29665l-.0593.17799h-.23732l-.11865.65263h.29664l-.0593.23732h-.59329l.41531-1.95788zm2.19519 0h.35598l.0593 1.18659.53396-1.12726h.29665l-.35598 2.01721h-.23732l.17799-1.06794-.47463 1.06794h-.17799l-.0593-1.06794-.17799 1.06794h-.29665l.35598-2.07654zm-47.81964.0593h.53397l-.0593.23732h-.29665l-.11866.65262h.29665l-.0593.23732h-.29665l-.11866.65263h.29665l-.0593.23732h-.5933l.47464-2.01721zm2.43251 0h.23732l.11866 1.06793.17799-1.06793h.29665l-.35598 2.01721h-.23732l-.11866-1.1866-.23732 1.1866h-.29664l.4153-2.01721zm2.66983 0h.5933l-.0593.23732h-.17799l-.29665 1.77989h-.29664l.29664-1.77989h-.17798l.11865-.23732zm2.61051 0h.53396l-.0593.23732h-.29665l-.11865.65262h.29664l-.0593.23732h-.29664l-.11866.65263h.29664l-.0593.23732h-.5933l.47464-2.01721zm2.49184 0h.59329c.11866 0 .17799.11866.17799.17799l-.11866.71195c0 .0593-.17799.11866-.23731.17799v.11866l-.11866.77129h-.23732l.11866-.71196v-.17799h-.17799l-.17799.88995h-.23732l.41531-1.95788zm2.55117 0h.5933l-.0593.23732h-.17799l-.29665 1.77989h-.29665l.29665-1.77989h-.17799l.11866-.23732zm2.96648 0h.35598l-.11866 2.01721h-.35598l.0593-.47464h-.17799l-.17799.47464h-.29665l.71196-2.01721zm2.37318 0h.23732l-.35598 2.01721h-.23732l.35598-2.01721zm2.31386 0h.23731l.11866 1.06793.17799-1.06793h.29665l-.35598 2.01721h-.23732l-.11866-1.1866-.23731 1.1866h-.29665l.41531-2.01721zm2.96647 0h.35598l.0593 1.18659.53397-1.18659h.29665l-.35598 2.01721h-.23732l.17799-1.06794-.47464 1.06794h-.17799l-.0593-1.06794-.17799 1.06794h-.29664l.35597-2.01721zm3.2038 0h.53397l-.0593.23732h-.29665l-.11866.65262h.29665l-.0593.23732h-.29665l-.11866.65263h.29665l-.0593.23732h-.53397l.41531-2.01721zm2.6105 0h.23732l.11866 1.06793.17799-1.06793h.29665l-.35598 2.01721h-.23732l-.11866-1.1866-.23732 1.1866h-.29664l.4153-2.01721zm2.6105 0h.5933l-.0593.23732h-.17799l-.29665 1.77989h-.29664l.29664-1.77989h-.17799l.11866-.23732zm-21.35864.23732l-.17799.65262s0 .0593.0593.0593h.11866l.11866-.0593.11865-.47463-.0593-.11866-.17799-.0593zm5.28033.59329l-.17799.53397h.11866l.0593-.53397z"/>
  <path fill="#7f7f7f" d="M216.55295 37.55562h26.63898v.71196h-26.63898zm0 1.83922h15.78167v.71195h-15.78167zm0 1.83922h11.27262v.71195h-11.27262zm0 1.77988h8.18748v.71196h-8.18748zm0 1.72056h5.93296v.71196h-5.93296zm0 1.77989h3.55978v.71195h-3.55978zm0 1.77988h1.77989v.71196h-1.77989zm0 1.77989h.5933v.71196h-.5933zm18.98547-10.67932h7.65351v.71195h-7.65351zm-4.68704 1.83922h12.34055v.71195h-12.34055zm-3.02581 1.77988h15.36636v.71196h-15.36636zm-2.31385 1.72056h17.68021v.71196h-17.68021zm15.95965 1.77989h1.72056v.71195h-1.72056zm-9.49273 0h6.52625v.71195h-6.52625zm-8.89944 0h5.87363v.71195h-5.87363zm18.39217 1.77988h1.72056v.71196h-1.72056zm-9.49273 0h3.55978v.71196h-3.55978zm-10.67932 0h4.74636v.71196h-4.74636zm18.98546 1.77989h2.90715v.71196h-2.90715zm-9.4334 0h2.25452v.71196h-2.25452zm-10.73865 0h3.55977v.71196h-3.55977zm18.98546 1.77989h4.15307v.71195h-4.15307zm-9.49273 0h2.37318v.71195h-2.37318zm-11.27262 0h4.15307v.71195h-4.15307zm18.98546 1.77989h5.87363v.71195h-5.87363zm-9.49273 0h2.90715v.71195h-2.90715zm-10.67932 0h4.09374v.71195h-4.09374zm-.5933 3.6191h26.63898v.71196h-26.63898zm23.13854 1.72056h3.50044v.71195h-3.50044zm-10.67933 0h5.22101v.71195h-5.22101zm9.49273 1.77989h4.62771v.71195h-4.62771zm-10.08602 0h3.55977v.71195h-3.55977zm8.89943 1.77988h5.8143v.71196h-5.8143zm-10.08602 0h3.55977v.71196h-3.55977zm8.89943 1.77989h7.06022v.71196h-7.06022zm-10.08603 0h3.50045v.71196h-3.50045zm8.30614 1.77989h8.84011v.71195h-8.84011zm-10.08602 0h4.15307v.71195h-4.15307zm7.11955 1.77988h11.80658v.71196h-11.80658zm-9.49274 0h6.52626v.71196h-6.52626zm-5.33966 1.77989h26.63898v.71196h-26.63898zm18.98547-14.2391h7.71284v.71196h-7.71284zm-18.98547 0h4.09374v.71196h-4.09374zm9.49273 0h4.15307v.71196h-4.15307zm-9.49273 3.55978h8.24681v.71195h-8.24681zm0 1.77989h5.93296v.71195h-5.93296zm0 1.77988h4.15307v.71196h-4.15307zm0 1.77989h2.31386v.71196h-2.31386zm0 1.77989h1.72056v.71195h-1.72056zm0 1.77988h1.18659v.71196h-1.18659z"/>
  <path fill="#fff" d="M62.474043 12.81519V10.0267h.593296v2.31385h1.42391v.47464h-2.017206zm2.432513 0V9.96737h.593296v2.84782h-.593296zm2.907149-1.06793l.533966.17798c-.05933.29665-.237318.53397-.415307.71196-.177988.17799-.474636.23732-.771284.23732-.355978 0-.711955-.11866-.949273-.35598-.237319-.23732-.355978-.5933-.355978-1.06793 0-.47464.118659-.83062.355978-1.12726.237318-.23732.593295-.41531.949273-.41531.355977 0 .652625.11866.830614.29665.118659.11866.237318.29664.296648.53396l-.593296.11866c-.05933-.11866-.118659-.23732-.237318-.35598-.118659-.0593-.237319-.11865-.415307-.11865-.237319 0-.355978.0593-.533967.23731-.118659.17799-.177988.41531-.177988.71196 0 .35598.05933.59329.177988.77128.11866.17799.296648.23732.533967.23732.177988 0 .296648-.0593.415307-.11866.237318-.11866.355977-.23732.355977-.47463zm1.067932 1.06793V9.96737h2.135865v.47464h-1.542569v.65262h1.42391v.47464h-1.42391v.77128h1.601899v.47464h-2.195195zm2.669831 0V9.96737h.533967l1.186591 1.89855V9.96737h.533966v2.84782h-.593295l-1.127262-1.83922v1.83922h-.533967zm4.687037-1.06793l.533966.17798c-.05933.29665-.237318.53397-.415307.71196-.177989.17799-.474637.23732-.771284.23732-.355978 0-.711955-.11866-.949274-.35598-.237318-.23732-.355977-.5933-.355977-1.06793 0-.47464.118659-.83062.355977-1.12726.237319-.23732.593296-.41531.949274-.41531.355977 0 .652625.11866.830614.29665.118659.11866.237318.29664.296648.53396l-.593296.11866c-.05933-.11866-.118659-.23732-.237319-.35598-.118659-.0593-.237318-.11865-.415307-.11865-.237318 0-.355977.0593-.533966.23731-.118659.17799-.177989.41531-.177989.71196 0 .35598.05933.59329.177989.77128.118659.17799.296648.23732.533966.23732.177989 0 .296648-.0593.415307-.11866.237319-.11866.355978-.23732.355978-.47463zm1.067932 1.06793V9.96737h2.135865v.47464h-1.542569v.65262h1.42391v.47464h-1.42391v.77128h1.601899v.47464h-2.195195zm2.669831-2.84782h1.067933c.237318 0 .415307 0 .533966.0593.177988.0593.296648.11866.415307.23732.118659.11866.237318.29664.296648.47463.05933.17799.118659.41531.118659.65263 0 .23732 0 .41531-.05933.59329-.05933.17799-.177989.35598-.296648.47464-.118659.11866-.237318.17799-.415307.23732-.118659.0593-.296648.0593-.533966.0593h-1.067932V9.96731zm.593296.47464v1.89854h.771284c.11866 0 .177989-.0593.237319-.11866.05933-.0593.118659-.11866.177988-.29665.05933-.11865.05933-.29664.05933-.53396 0-.23732 0-.41531-.05933-.53397-.05933-.11866-.118659-.23732-.177988-.29665-.05933-.0593-.177989-.11865-.237319-.11865h-.771284zM69.94957 14.71373h1.661228c.118659 0 .237318.0593.296648.11866.05933.0593.177989.11866.237318.23732.05933.11866.05933.23732.05933.35598 0 .11866-.05933.23732-.118659.35598-.05933.11866-.177989.17799-.296648.23732.177988.0593.296648.11865.415307.23731.118659.11866.118659.23732.118659.41531 0 .11866-.05933.23732-.118659.35598-.05933.11866-.118659.23732-.237319.29665-.118659.0593-.237318.11866-.415307.11866H69.89024v-2.72917zm.533966.47464v.65263h.771285c.118659 0 .177988-.0593.237318-.11866.05933-.0593.05933-.11866.05933-.23732 0-.0593 0-.17799-.05933-.23732-.05933-.0593-.118659-.0593-.237318-.11866h-.771285zm0 1.12726v.77129h.949273c.05933 0 .177989-.0593.237319-.11866.05933-.0593.05933-.11866.05933-.23732 0-.0593 0-.17799-.05933-.23732-.05933-.0593-.11866-.11866-.177989-.11866-.05933 0-.237318-.0593-.533966-.0593h-.474637zm3.085138 1.24592v-1.18659l-1.067932-1.66123h.652625l.652625 1.12727.652626-1.12727h.652625l-1.067932 1.66123v1.18659h-.474637z"/>
</svg>
