<?xml version="1.0" encoding="UTF-8" standalone="no"?>
<!-- Created with Inkscape (http://www.inkscape.org/) -->

<svg
   xmlns:dc="http://purl.org/dc/elements/1.1/"
   xmlns:cc="http://creativecommons.org/ns#"
   xmlns:rdf="http://www.w3.org/1999/02/22-rdf-syntax-ns#"
   xmlns:svg="http://www.w3.org/2000/svg"
   xmlns="http://www.w3.org/2000/svg"
   xmlns:sodipodi="http://sodipodi.sourceforge.net/DTD/sodipodi-0.dtd"
   xmlns:inkscape="http://www.inkscape.org/namespaces/inkscape"
   version="1.1"
   width="30"
   height="30"
   id="svg3004"
   inkscape:version="0.91 r13725"
   sodipodi:docname="icon_filled.svg">
  <sodipodi:namedview
     pagecolor="#ffffff"
     bordercolor="#666666"
     borderopacity="1"
     objecttolerance="10"
     gridtolerance="10"
     guidetolerance="10"
     inkscape:pageopacity="0"
     inkscape:pageshadow="2"
     inkscape:window-width="1920"
     inkscape:window-height="1027"
     id="namedview150"
     showgrid="false"
     inkscape:zoom="11.8"
     inkscape:cx="27.076271"
     inkscape:cy="14.770215"
     inkscape:window-x="-8"
     inkscape:window-y="-8"
     inkscape:window-maximized="1"
     inkscape:current-layer="svg3004" />
  <metadata
     id="metadata3296">
    <rdf:RDF>
      <cc:Work
         rdf:about="">
        <dc:format>image/svg+xml</dc:format>
        <dc:type
           rdf:resource="http://purl.org/dc/dcmitype/StillImage" />
        <dc:title></dc:title>
      </cc:Work>
    </rdf:RDF>
  </metadata>
  <defs
     id="defs3006" />
  <g
     id="mario"
     transform="matrix(0.04375039,0,0,0.04375,-3.4152854,0.55932004)">
    <title
       id="title3443">mario</title>
    <rect
       width="40"
       height="40"
       x="200"
       y="0"
       id="rect3008"
       style="fill:#d80000;fill-opacity:1" />
    <rect
       width="40"
       height="40"
       x="240"
       y="0"
       id="rect3010"
       style="fill:#d80000;fill-opacity:1" />
    <rect
       width="40"
       height="40"
       x="280"
       y="0"
       id="rect3012"
       style="fill:#d80000;fill-opacity:1" />
    <rect
       width="40"
       height="40"
       x="320"
       y="0"
       id="rect3014"
       style="fill:#d80000;fill-opacity:1" />
    <rect
       width="40"
       height="40"
       x="360"
       y="0"
       id="rect3016"
       style="fill:#d80000;fill-opacity:1" />
    <rect
       width="40"
       height="40"
       x="160"
       y="40"
       id="rect3018"
       style="fill:#d80000;fill-opacity:1" />
    <rect
       width="40"
       height="40"
       x="200"
       y="40"
       id="rect3020"
       style="fill:#d80000;fill-opacity:1" />
    <rect
       width="40"
       height="40"
       x="240"
       y="40"
       id="rect3022"
       style="fill:#d80000;fill-opacity:1" />
    <rect
       width="40"
       height="40"
       x="280"
       y="40"
       id="rect3024"
       style="fill:#d80000;fill-opacity:1" />
    <rect
       width="40"
       height="40"
       x="320"
       y="40"
       id="rect3026"
       style="fill:#d80000;fill-opacity:1" />
    <rect
       width="40"
       height="40"
       x="360"
       y="40"
       id="rect3028"
       style="fill:#d80000;fill-opacity:1" />
    <rect
       width="40"
       height="40"
       x="400"
       y="40"
       id="rect3030"
       style="fill:#d80000;fill-opacity:1" />
    <rect
       width="40"
       height="40"
       x="440"
       y="40"
       id="rect3032"
       style="fill:#d80000;fill-opacity:1" />
    <rect
       width="40"
       height="40"
       x="480"
       y="40"
       id="rect3034"
       style="fill:#d80000;fill-opacity:1" />
    <rect
       width="40"
       height="40"
       x="160"
       y="80"
       id="rect3036"
       style="fill:#706800;fill-opacity:1" />
    <rect
       width="40"
       height="40"
       x="200"
       y="80"
       id="rect3038"
       style="fill:#706800;fill-opacity:1" />
    <rect
       width="40"
       height="40"
       x="240"
       y="80"
       id="rect3040"
       style="fill:#706800;fill-opacity:1" />
    <rect
       width="40"
       height="40"
       x="280"
       y="80"
       id="rect3042"
       style="fill:#f8ab00;fill-opacity:1" />
    <rect
       width="40"
       height="40"
       x="320"
       y="80"
       id="rect3044"
       style="fill:#f8ab00;fill-opacity:1" />
    <rect
       width="40"
       height="40"
       x="360"
       y="80"
       id="rect3046"
       style="fill:#706800;fill-opacity:1" />
    <rect
       width="40"
       height="40"
       x="400"
       y="80"
       id="rect3048"
       style="fill:#f8ab00;fill-opacity:1" />
    <rect
       width="40"
       height="40"
       x="120"
       y="120"
       id="rect3050"
       style="fill:#706800;fill-opacity:1" />
    <rect
       width="40"
       height="40"
       x="160"
       y="120"
       id="rect3052"
       style="fill:#f8ab00;fill-opacity:1" />
    <rect
       width="40"
       height="40"
       x="200"
       y="120"
       id="rect3054"
       style="fill:#706800;fill-opacity:1" />
    <rect
       width="40"
       height="40"
       x="240"
       y="120"
       id="rect3056"
       style="fill:#f8ab00;fill-opacity:1" />
    <rect
       width="40"
       height="40"
       x="280"
       y="120"
       id="rect3058"
       style="fill:#f8ab00;fill-opacity:1" />
    <rect
       width="40"
       height="40"
       x="320"
       y="120"
       id="rect3060"
       style="fill:#f8ab00;fill-opacity:1" />
    <rect
       width="40"
       height="40"
       x="360"
       y="120"
       id="rect3062"
       style="fill:#706800;fill-opacity:1" />
    <rect
       width="40"
       height="40"
       x="400"
       y="120"
       id="rect3064"
       style="fill:#f8ab00;fill-opacity:1" />
    <rect
       width="40"
       height="40"
       x="440"
       y="120"
       id="rect3066"
       style="fill:#f8ab00;fill-opacity:1" />
    <rect
       width="40"
       height="40"
       x="480"
       y="120"
       id="rect3068"
       style="fill:#f8ab00;fill-opacity:1" />
    <rect
       width="40"
       height="40"
       x="120"
       y="160"
       id="rect3070"
       style="fill:#706800;fill-opacity:1" />
    <rect
       width="40"
       height="40"
       x="160"
       y="160"
       id="rect3072"
       style="fill:#f8ab00;fill-opacity:1" />
    <rect
       width="40"
       height="40"
       x="200"
       y="160"
       id="rect3074"
       style="fill:#706800;fill-opacity:1" />
    <rect
       width="40"
       height="40"
       x="240"
       y="160"
       id="rect3076"
       style="fill:#706800;fill-opacity:1" />
    <rect
       width="40"
       height="40"
       x="280"
       y="160"
       id="rect3078"
       style="fill:#f8ab00;fill-opacity:1" />
    <rect
       width="40"
       height="40"
       x="320"
       y="160"
       id="rect3080"
       style="fill:#f8ab00;fill-opacity:1" />
    <rect
       width="40"
       height="40"
       x="360"
       y="160"
       id="rect3082"
       style="fill:#f8ab00;fill-opacity:1" />
    <rect
       width="40"
       height="40"
       x="400"
       y="160"
       id="rect3084"
       style="fill:#706800;fill-opacity:1" />
    <rect
       width="40"
       height="40"
       x="440"
       y="160"
       id="rect3086"
       style="fill:#f8ab00;fill-opacity:1" />
    <rect
       width="40"
       height="40"
       x="480"
       y="160"
       id="rect3088"
       style="fill:#f8ab00;fill-opacity:1" />
    <rect
       width="40"
       height="40"
       x="520"
       y="160"
       id="rect3090"
       style="fill:#f8ab00;fill-opacity:1" />
    <rect
       width="40"
       height="40"
       x="160"
       y="200"
       id="rect3092"
       style="fill:#706800;fill-opacity:1" />
    <rect
       width="40"
       height="40"
       x="200"
       y="200"
       id="rect3094"
       style="fill:#f8ab00;fill-opacity:1" />
    <rect
       width="40"
       height="40"
       x="240"
       y="200"
       id="rect3096"
       style="fill:#f8ab00;fill-opacity:1" />
    <rect
       width="40"
       height="40"
       x="280"
       y="200"
       id="rect3098"
       style="fill:#f8ab00;fill-opacity:1" />
    <rect
       width="40"
       height="40"
       x="320"
       y="200"
       id="rect3100"
       style="fill:#f8ab00;fill-opacity:1" />
    <rect
       width="40"
       height="40"
       x="360"
       y="200"
       id="rect3102"
       style="fill:#706800;fill-opacity:1" />
    <rect
       width="40"
       height="40"
       x="400"
       y="200"
       id="rect3104"
       style="fill:#706800;fill-opacity:1" />
    <rect
       width="40"
       height="40"
       x="440"
       y="200"
       id="rect3106"
       style="fill:#706800;fill-opacity:1" />
    <rect
       width="40"
       height="40"
       x="480"
       y="200"
       id="rect3108"
       style="fill:#706800;fill-opacity:1" />
    <rect
       width="40"
       height="40"
       x="200"
       y="240"
       id="rect3110"
       style="fill:#f8ab00;fill-opacity:1" />
    <rect
       width="40"
       height="40"
       x="240"
       y="240"
       id="rect3112"
       style="fill:#f8ab00;fill-opacity:1" />
    <rect
       width="40"
       height="40"
       x="280"
       y="240"
       id="rect3114"
       style="fill:#f8ab00;fill-opacity:1" />
    <rect
       width="40"
       height="40"
       x="320"
       y="240"
       id="rect3116"
       style="fill:#f8ab00;fill-opacity:1" />
    <rect
       width="40"
       height="40"
       x="360"
       y="240"
       id="rect3118"
       style="fill:#f8ab00;fill-opacity:1" />
    <rect
       width="40"
       height="40"
       x="400"
       y="240"
       id="rect3120"
       style="fill:#f8ab00;fill-opacity:1" />
    <rect
       width="40"
       height="40"
       x="160"
       y="280"
       id="rect3122"
       style="fill:#706800;fill-opacity:1" />
    <rect
       width="40"
       height="40"
       x="200"
       y="280"
       id="rect3124"
       style="fill:#706800;fill-opacity:1" />
    <rect
       width="40"
       height="40"
       x="240"
       y="280"
       id="rect3126"
       style="fill:#d80000;fill-opacity:1" />
    <rect
       width="40"
       height="40"
       x="280"
       y="280"
       id="rect3128"
       style="fill:#706800;fill-opacity:1" />
    <rect
       width="40"
       height="40"
       x="320"
       y="280"
       id="rect3130"
       style="fill:#706800;fill-opacity:1" />
    <rect
       width="40"
       height="40"
       x="360"
       y="280"
       id="rect3132"
       style="fill:#706800;fill-opacity:1" />
    <rect
       width="40"
       height="40"
       x="120"
       y="320"
       id="rect3138"
       style="fill:#706800;fill-opacity:1" />
    <rect
       width="40"
       height="40"
       x="160"
       y="320"
       id="rect3140"
       style="fill:#706800;fill-opacity:1" />
    <rect
       width="40"
       height="40"
       x="200"
       y="320"
       id="rect3142"
       style="fill:#706800;fill-opacity:1" />
    <rect
       width="40"
       height="40"
       x="240"
       y="320"
       id="rect3144"
       style="fill:#d80000;fill-opacity:1" />
    <rect
       width="40"
       height="40"
       x="280"
       y="320"
       id="rect3146"
       style="fill:#706800;fill-opacity:1" />
    <rect
       width="40"
       height="40"
       x="320"
       y="320"
       id="rect3148"
       style="fill:#706800;fill-opacity:1" />
    <rect
       width="40"
       height="40"
       x="360"
       y="320"
       id="rect3150"
       style="fill:#d80000;fill-opacity:1" />
    <rect
       width="40"
       height="40"
       x="400"
       y="320"
       id="rect3152"
       style="fill:#706800;fill-opacity:1" />
    <rect
       width="40"
       height="40"
       x="440"
       y="320"
       id="rect3154"
       style="fill:#706800;fill-opacity:1" />
    <rect
       width="40"
       height="40"
       x="480"
       y="320"
       id="rect3156"
       style="fill:#706800;fill-opacity:1" />
    <rect
       width="40"
       height="40"
       x="80"
       y="360"
       id="rect3158"
       style="fill:#706800;fill-opacity:1" />
    <rect
       width="40"
       height="40"
       x="120"
       y="360"
       id="rect3160"
       style="fill:#706800;fill-opacity:1" />
    <rect
       width="40"
       height="40"
       x="160"
       y="360"
       id="rect3162"
       style="fill:#706800;fill-opacity:1" />
    <rect
       width="40"
       height="40"
       x="200"
       y="360"
       id="rect3164"
       style="fill:#706800;fill-opacity:1" />
    <rect
       width="40"
       height="40"
       x="240"
       y="360"
       id="rect3166"
       style="fill:#d80000;fill-opacity:1" />
    <rect
       width="40"
       height="40"
       x="280"
       y="360"
       id="rect3168"
       style="fill:#d80000;fill-opacity:1" />
    <rect
       width="40"
       height="40"
       x="320"
       y="360"
       id="rect3170"
       style="fill:#d80000;fill-opacity:1" />
    <rect
       width="40"
       height="40"
       x="360"
       y="360"
       id="rect3172"
       style="fill:#d80000;fill-opacity:1" />
    <rect
       width="40"
       height="40"
       x="400"
       y="360"
       id="rect3174"
       style="fill:#706800;fill-opacity:1" />
    <rect
       width="40"
       height="40"
       x="440"
       y="360"
       id="rect3176"
       style="fill:#706800;fill-opacity:1" />
    <rect
       width="40"
       height="40"
       x="480"
       y="360"
       id="rect3178"
       style="fill:#706800;fill-opacity:1" />
    <rect
       width="40"
       height="40"
       x="520"
       y="360"
       id="rect3180"
       style="fill:#706800;fill-opacity:1" />
    <rect
       width="40"
       height="40"
       x="80"
       y="400"
       id="rect3182"
       style="fill:#f8ab00;fill-opacity:1" />
    <rect
       width="40"
       height="40"
       x="120"
       y="400"
       id="rect3184"
       style="fill:#f8ab00;fill-opacity:1" />
    <rect
       width="40"
       height="40"
       x="160"
       y="400"
       id="rect3186"
       style="fill:#706800;fill-opacity:1" />
    <rect
       width="40"
       height="40"
       x="200"
       y="400"
       id="rect3188"
       style="fill:#d80000;fill-opacity:1" />
    <rect
       width="40"
       height="40"
       x="240"
       y="400"
       id="rect3190"
       style="fill:#f8ab00;fill-opacity:1" />
    <rect
       width="40"
       height="40"
       x="280"
       y="400"
       id="rect3192"
       style="fill:#d80000;fill-opacity:1" />
    <rect
       width="40"
       height="40"
       x="320"
       y="400"
       id="rect3194"
       style="fill:#d80000;fill-opacity:1" />
    <rect
       width="40"
       height="40"
       x="360"
       y="400"
       id="rect3196"
       style="fill:#f8ab00;fill-opacity:1" />
    <rect
       width="40"
       height="40"
       x="400"
       y="400"
       id="rect3198"
       style="fill:#d80000;fill-opacity:1" />
    <rect
       width="40"
       height="40"
       x="440"
       y="400"
       id="rect3200"
       style="fill:#706800;fill-opacity:1" />
    <rect
       width="40"
       height="40"
       x="480"
       y="400"
       id="rect3202"
       style="fill:#f8ab00;fill-opacity:1" />
    <rect
       width="40"
       height="40"
       x="520"
       y="400"
       id="rect3204"
       style="fill:#f8ab00;fill-opacity:1" />
    <rect
       width="40"
       height="40"
       x="80"
       y="440"
       id="rect3206"
       style="fill:#f8ab00;fill-opacity:1" />
    <rect
       width="40"
       height="40"
       x="120"
       y="440"
       id="rect3208"
       style="fill:#f8ab00;fill-opacity:1" />
    <rect
       width="40"
       height="40"
       x="160"
       y="440"
       id="rect3210"
       style="fill:#f8ab00;fill-opacity:1" />
    <rect
       width="40"
       height="40"
       x="200"
       y="440"
       id="rect3212"
       style="fill:#d80000;fill-opacity:1" />
    <rect
       width="40"
       height="40"
       x="240"
       y="440"
       id="rect3214"
       style="fill:#d80000;fill-opacity:1" />
    <rect
       width="40"
       height="40"
       x="280"
       y="440"
       id="rect3216"
       style="fill:#d80000;fill-opacity:1" />
    <rect
       width="40"
       height="40"
       x="320"
       y="440"
       id="rect3218"
       style="fill:#d80000;fill-opacity:1" />
    <rect
       width="40"
       height="40"
       x="360"
       y="440"
       id="rect3220"
       style="fill:#d80000;fill-opacity:1" />
    <rect
       width="40"
       height="40"
       x="400"
       y="440"
       id="rect3222"
       style="fill:#d80000;fill-opacity:1" />
    <rect
       width="40"
       height="40"
       x="440"
       y="440"
       id="rect3224"
       style="fill:#f8ab00;fill-opacity:1" />
    <rect
       width="40"
       height="40"
       x="480"
       y="440"
       id="rect3226"
       style="fill:#f8ab00;fill-opacity:1" />
    <rect
       width="40"
       height="40"
       x="520"
       y="440"
       id="rect3228"
       style="fill:#f8ab00;fill-opacity:1" />
    <rect
       width="40"
       height="40"
       x="80"
       y="480"
       id="rect3230"
       style="fill:#f8ab00;fill-opacity:1" />
    <rect
       width="40"
       height="40"
       x="120"
       y="480"
       id="rect3232"
       style="fill:#f8ab00;fill-opacity:1" />
    <rect
       width="40"
       height="40"
       x="160"
       y="480"
       id="rect3234"
       style="fill:#d80000;fill-opacity:1" />
    <rect
       width="40"
       height="40"
       x="200"
       y="480"
       id="rect3236"
       style="fill:#d80000;fill-opacity:1" />
    <rect
       width="40"
       height="40"
       x="240"
       y="480"
       id="rect3238"
       style="fill:#d80000;fill-opacity:1" />
    <rect
       width="40"
       height="40"
       x="280"
       y="480"
       id="rect3240"
       style="fill:#d80000;fill-opacity:1" />
    <rect
       width="40"
       height="40"
       x="320"
       y="480"
       id="rect3242"
       style="fill:#d80000;fill-opacity:1" />
    <rect
       width="40"
       height="40"
       x="360"
       y="480"
       id="rect3244"
       style="fill:#d80000;fill-opacity:1" />
    <rect
       width="40"
       height="40"
       x="400"
       y="480"
       id="rect3246"
       style="fill:#d80000;fill-opacity:1" />
    <rect
       width="40"
       height="40"
       x="440"
       y="480"
       id="rect3248"
       style="fill:#d80000;fill-opacity:1" />
    <rect
       width="40"
       height="40"
       x="480"
       y="480"
       id="rect3250"
       style="fill:#f8ab00;fill-opacity:1" />
    <rect
       width="40"
       height="40"
       x="520"
       y="480"
       id="rect3252"
       style="fill:#f8ab00;fill-opacity:1" />
    <rect
       width="40"
       height="40"
       x="160"
       y="520"
       id="rect3254"
       style="fill:#d80000;fill-opacity:1" />
    <rect
       width="40"
       height="40"
       x="200"
       y="520"
       id="rect3256"
       style="fill:#d80000;fill-opacity:1" />
    <rect
       width="40"
       height="40"
       x="240"
       y="520"
       id="rect3258"
       style="fill:#d80000;fill-opacity:1" />
    <rect
       width="40"
       height="40"
       x="360"
       y="520"
       id="rect3260"
       style="fill:#d80000;fill-opacity:1" />
    <rect
       width="40"
       height="40"
       x="400"
       y="520"
       id="rect3262"
       style="fill:#d80000;fill-opacity:1" />
    <rect
       width="40"
       height="40"
       x="440"
       y="520"
       id="rect3264"
       style="fill:#d80000;fill-opacity:1" />
    <rect
       width="40"
       height="40"
       x="120"
       y="560"
       id="rect3266"
       style="fill:#706800;fill-opacity:1" />
    <rect
       width="40"
       height="40"
       x="160"
       y="560"
       id="rect3268"
       style="fill:#706800;fill-opacity:1" />
    <rect
       width="40"
       height="40"
       x="200"
       y="560"
       id="rect3270"
       style="fill:#706800;fill-opacity:1" />
    <rect
       width="40"
       height="40"
       x="400"
       y="560"
       id="rect3272"
       style="fill:#706800;fill-opacity:1" />
    <rect
       width="40"
       height="40"
       x="440"
       y="560"
       id="rect3274"
       style="fill:#706800;fill-opacity:1" />
    <rect
       width="40"
       height="40"
       x="480"
       y="560"
       id="rect3276"
       style="fill:#706800;fill-opacity:1" />
    <rect
       width="40"
       height="40"
       x="80"
       y="600"
       id="rect3278"
       style="fill:#706800;fill-opacity:1" />
    <rect
       width="40"
       height="40"
       x="120"
       y="600"
       id="rect3280"
       style="fill:#706800;fill-opacity:1" />
    <rect
       width="40"
       height="40"
       x="160"
       y="600"
       id="rect3282"
       style="fill:#706800;fill-opacity:1" />
    <rect
       width="40"
       height="40"
       x="200"
       y="600"
       id="rect3284"
       style="fill:#706800;fill-opacity:1" />
    <rect
       width="40"
       height="40"
       x="400"
       y="600"
       id="rect3286"
       style="fill:#706800;fill-opacity:1" />
    <rect
       width="40"
       height="40"
       x="440"
       y="600"
       id="rect3288"
       style="fill:#706800;fill-opacity:1" />
    <rect
       width="40"
       height="40"
       x="480"
       y="600"
       id="rect3290"
       style="fill:#706800;fill-opacity:1" />
    <rect
       width="40"
       height="40"
       x="520"
       y="600"
       id="rect3292"
       style="fill:#706800;fill-opacity:1" />
  </g>
</svg>
