<svg xmlns="http://www.w3.org/2000/svg" viewBox="0 0 798.81519 264.04609">
  <path fill="#d5d4cf" d="M248.2 264.04607l232.5-2.3c1.7 0 3.8-1 5-2.7l4.9-9.5H5.8l4.9 9.5c1.3 1.7 3.3 2.7 5 2.7l232.5 2.3"/>
  <path fill="#e2e4e2" d="M247.7 139.74607h244.9c1.6 0 2.8 1.3 2.8 2.8l-2.9 104.1c0 1.6-1.3 2.8-2.8 2.8H5.8c-1.6 0-2.8-1.3-2.8-2.8l-3-104.1c0-1.6 1.3-2.8 2.8-2.8h244.9"/>
  <path fill="#bdbbb8" d="M426.2 237.84607h.2v2.3l-.1.2s-.1.1-.2.1H422c-.1 0-.2 0-.2-.1l-.1-.2v-2.3h.4v1.9h1.4v-1.6h.4v1.6h1.6v-1.9h.7zm-.9-2h.5c.1 0 .3.1.4.2.1.1.2.2.2.3.1.1.1.3.1.5v.4l-.1.1-.1.1h-.5v-.1l.1-.1.1-.1v-.4l-.1-.1c-.1 0-.1-.1-.2-.1H422v-.4l3.3-.3zm.9-3.8h.2v2.3l-.1.2s-.1.1-.2.1H422c-.1 0-.2 0-.2-.1l-.1-.2v-2.3h.4v1.9h1.4v-1.6h.4v1.6h1.6v-1.9h.7zm-.4-4h.4l.1.1c0 .1.1.2.1.3 0 .1.1.2.1.4v.5c0 .3 0 .6-.1.8-.1.2-.2.4-.4.6-.2.2-.4.3-.7.4-.3.1-.6.1-1 .1s-.7 0-1-.1c-.3-.1-.5-.2-.7-.4-.2-.2-.4-.4-.5-.6-.1-.2-.2-.5-.2-.8v-.4c0-.1.1-.2.1-.3 0-.1.1-.2.1-.3l.1-.2.1-.1h.5l-.1.1c0 .1-.1.1-.2.2s-.1.2-.2.3c0 .1-.1.3-.1.5s0 .4.1.5c.1.2.2.3.4.4.2.1.3.2.6.3.3.1.5.1.8.1.3 0 .5 0 .8-.1.3-.1.4-.2.6-.3.2-.1.3-.3.3-.4.1-.2.1-.4.1-.6 0-.2 0-.3-.1-.5 0-.1-.1-.2-.1-.3-.1-.1-.1-.2-.1-.2l-.1-.1h.1l.2.1zm-3.4-3.6v1.4h4.1v.5l-.1.1h-4v1.3l-.1.1h-.2l-.1-.1h-.1v-3.3h.5m-350.3 13.3c.2 0 .4 0 .6.1.2.1.3.2.5.3.1.1.2.3.3.5.1.2.1.4.1.7v.5h1.6v.4H71c-.1 0-.2 0-.2-.1l-.1-.2v-1.3c0-.1 0-.2.1-.3 0-.1.1-.2.2-.4l.3-.3c.1-.1.2-.2.4-.2.1.3.2.3.4.3zm0 .6c-.2 0-.3 0-.5.1l-.3.3c-.1.1-.1.2-.1.3v.9H73v-.5c0-.2 0-.3-.1-.5 0-.1-.1-.2-.2-.3-.1-.1-.2-.1-.3-.2 0-.1-.1-.1-.3-.1zm.9-5.4c.4 0 .7 0 1 .1.3.1.5.2.8.4.2.2.4.4.5.6.1.3.2.6.2.9 0 .3-.1.6-.2.9-.1.2-.2.5-.4.6-.2.2-.4.3-.7.4-.3.1-.6.1-1 .1s-.7 0-1-.1c-.3-.1-.5-.2-.7-.4-.2-.2-.4-.4-.5-.6-.1-.3-.2-.6-.2-.9 0-.3.1-.6.2-.9.1-.2.2-.5.4-.6.2-.2.4-.3.7-.4.2 0 .5-.1.9-.1zm0 .7c-.3 0-.5 0-.7.1-.2 0-.4.1-.6.2-.2.1-.3.2-.4.4-.1.2-.1.4-.1.7 0 .3 0 .5.1.7.1.2.2.3.4.4.2.1.4.2.6.2.2 0 .4.1.7.1.3 0 .5 0 .7-.1.2-.1.4-.1.6-.2.2-.1.3-.2.4-.4.1-.2.1-.4.1-.7 0-.3 0-.5-.1-.7-.1-.2-.2-.3-.4-.4-.2-.1-.4-.2-.6-.2-.2-.1-.4-.1-.7-.1zm2.3-5.7v.5h-.1v.1l-3.5.9 3.5.9v.1h.1v.6l-.1.1v.1l-4.2 1.2h-.2l-.1-.1v-.4l.1-.1.1-.1 3.8-1-3.8-1h-.1l-.1-.1v-.4h.1v-.1h.1l3.8-1.1-3.8-1h-.1l-.1-.1v-.4l.1-.1h.2l4.2 1.2v.1l.1.1m-.2-4.7h.2v2.3l-.1.2s-.1.1-.2.1h-4c-.1 0-.2 0-.2-.1l-.1-.2v-2.3h.4v1.9h1.4v-1.6h.4v1.6h1.6v-1.9h.6zm.1-4.1l.1.2v.5h-.1l-1.1.4c-.1 0-.2.1-.3.2-.1.1-.2.1-.3.2-.1.1-.1.2-.2.3 0 .1-.1.2-.1.4v.4h1.9v.4H71c-.1 0-.2 0-.2-.1l-.1-.2v-1.5c0-.2.1-.3.1-.5.1-.1.1-.2.2-.3.1-.1.2-.2.3-.2.1 0 .3-.1.4-.1.2 0 .3 0 .4.1.1 0 .2.1.3.2.1.1.2.2.2.3.1.1.1.2.2.4l.1-.2.2-.2c.1-.1.2-.1.2-.1.1 0 .2-.1.3-.1l1-.4.6-.1zm-3.2 1c-.2 0-.3 0-.5.1-.1.1-.2.2-.3.4v1h1.5v-.6c0-.2 0-.3-.1-.4 0-.1-.1-.2-.2-.3-.1-.1-.2-.1-.2-.2H72zm407.3-10.6c-.2.7-.9 1.4-1.6 1.7-.5.2-3.1.9-12.3 3.5l-1.4.4v-3.5s2.5-.7 5.6-1.4l5.6-1.4-2.6-.7c-6.1-1.6-7.1-1.9-7.5-2.1-.6-.3-1-.7-1.1-1.3-.1-.3-.1-1 0-1.3.2-.6.6-1.1 1.3-1.4.4-.2 1.7-.5 6.7-1.8 1.7-.4 3.1-.8 3.1-.8s-2-.6-5.5-1.5l-5.6-1.4v-3.5s1.4.4 3 .8c7.7 2.1 10.3 2.9 10.8 3.1.8.4 1.3 1 1.5 1.7.1.3.1.9 0 1.2-.1.4-.2.6-.6 1-.3.3-.4.4-.7.5-.5.2-1.3.5-6.9 2-1.3.4-2.4.7-2.4.7s1.2.4 2.8.8c3.5 1 5.3 1.5 5.8 1.6 1.1.3 1.8 1 2 1.8v1.3zm-5.4-18.3h-5.3v-3.4h10.6v3.4h-5.3zm0-6.7h-5.3v-3.4h10.6v3.4h-5.3zm-7.2 5.5c-.2.8-.8 1.4-1.6 1.5-.9.2-1.8-.5-2.1-1.4-.1-.5-.1-1.1.2-1.5.1-.3.5-.7.7-.8.8-.5 1.9-.2 2.4.6.4.5.5 1.1.4 1.6zm0-6.7c-.2 1-1.2 1.7-2.1 1.5-.7-.1-1.3-.7-1.5-1.4-.1-.5-.1-1.1.2-1.5.1-.3.5-.6.7-.8.8-.5 1.9-.2 2.4.6.3.5.4 1.1.3 1.6z"/>
  <path fill="#eeefec" d="M243.4 191.54607l-194.2-2.8-.7-.2c-5.5-1.8-9.5-7.4-9.5-13.3 0-5.7 3.6-10.4 9.4-12.3l.7-.2 195.5-4.7h6l195.6 4.7.7.2c5.8 1.9 9.4 6.6 9.4 12.3 0 5.9-4 11.5-9.4 13.2l-.7.2-197.4 2.8-5.4.1z"/>
  <path fill="#91b9e3" d="M244.7 163.04607l-194.7 4.7c-9.2 3-6.6 13.8 0 16l193.4 2.8h5.4l196.6-2.8c6.6-2.2 9.2-13 0-16l-194.9-4.7h-5.8z"/>
  <path d="M52.8 168.64607c-9.1 2.2-6.6 10.2 0 11.8l190.6 2c1.3.1 2.9 0 4.3 0l194.9-2.1c6.6-1.6 9.1-9.6 0-11.8l-194.9-3.5c-64.9 1-129.9 2.4-194.9 3.6z"/>
  <path fill="#bdbbb8" d="M116.5 240.94607h-5v-1.8c0-.4 0-.7.1-.8.1-.2.2-.3.5-.4.2-.1.5-.2.8-.2.4 0 .7.1.9.3.2.2.4.5.4.9.1-.2.2-.3.3-.3.2-.2.4-.3.6-.4l1.4-.7v.7l-1 .5c-.4.2-.7.4-.8.5l-.3.3c0 .1-.1.2-.1.4v.6h2.2v.4zm-2.8-.5v-1.2c0-.3 0-.4-.1-.6-.1-.2-.2-.2-.3-.3-.1-.1-.3-.1-.5-.1-.3 0-.5.1-.6.2-.1.1-.2.4-.2.7v1.3h1.7zm-1.6-6.6v2.4h1.5v-2.3h.6v2.3h1.7v-2.5h.6v3.1h-5v-3m3.4-.7l-.1-.5c.3 0 .5-.1.6-.2.2-.1.3-.2.4-.4.1-.2.1-.4.1-.6 0-.3-.1-.6-.2-.8-.2-.2-.4-.3-.6-.3-.1 0-.3 0-.4.1l-.3.3c-.1.1-.2.4-.3.8-.1.4-.2.7-.3.8l-.4.4c-.2.1-.4.1-.6.1-.4 0-.7-.1-1-.4-.3-.3-.4-.6-.4-1.1 0-.3.1-.6.2-.8.1-.2.3-.4.5-.5.2-.1.5-.2.8-.2v.5c-.3 0-.6.1-.7.3-.2.2-.2.4-.2.7 0 .3.1.5.2.7.1.2.3.2.5.2s.4-.1.5-.2c.1-.1.2-.4.3-.8.1-.4.2-.7.3-.9.1-.3.3-.4.5-.6.2-.1.5-.2.7-.2.3 0 .5.1.8.2.2.1.4.3.5.5.1.2.2.5.2.8 0 .5-.2.9-.5 1.2-.2.8-.6.9-1.1.9zm-2.8-7v2.5h1.5v-2.3h.6v2.3h1.7v-2.6h.6v3.1h-5v-3m0-.5v-3.3h.6v1.4h4.4v.5h-4.4v1.4"/>
  <path fill="#fff" d="M48.5 249.54607l-1.1-27.3c0-2 1.5-3.6 3.4-3.6h9.7c1.9 0 3.4 1.6 3.4 3.5l1.1 27.4H48.5z"/>
  <path fill="#edefea" d="M54.7 257.74607c-1.7 0-2.4-1.3-2.8-2.1l-.2-.3-3.2-5.8H65l2.3 4c.4.8.4 1.8 0 2.5-.5 1-1.7 1.6-2.9 1.6h-9.7z"/>
  <path fill="#ebece7" d="M49.6 249.54607l-1.1-27.2c0-.9.8-1.7 1.7-1.7h10.6c.9 0 1.7.8 1.7 1.7l1.1 27.2h-14z"/>
  <path fill="#e4e4e2" d="M63.6 249.54607h-14l3.1 5.4c.5.9.7 1.5 1.5 1.5h11c.8 0 1.9-.8 1.5-1.5l-3.1-5.4z"/>
  <path fill="#b9bcbf" d="M50.599998 229.84607h6.1999998v.89999998H50.599998z"/>
  <path fill="#b9bcbf" d="M51.9 228.44607H53c.7-1 1.8-1.7 3.1-1.7 2 0 3.7 1.6 3.7 3.7 0 2-1.6 3.7-3.7 3.7-1.3 0-2.4-.7-3.1-1.7v.1h-1c.8 1.5 2.3 2.5 4.1 2.5 2.6 0 4.6-2.1 4.6-4.6 0-2.6-2.1-4.6-4.6-4.6-1.9 0-3.5 1.1-4.2 2.6z"/>
  <path fill="#b2d42e" d="M56.3 245.24607c-.5 0-1-.2-1.4-.6-.4-.4-.6-.9-.6-1.4 0-1.1.9-1.9 1.9-1.9.5 0 1 .2 1.4.6.4.4.6.9.6 1.4 0 .5-.2 1-.6 1.4-.3.3-.8.5-1.3.5z"/>
  <path fill="#d2eb76" d="M56.3 242.14607c-.7 0-1.2.5-1.2 1.2 0 .3.1.6.4.9.2.2.5.4.9.4.3 0 .6-.1.9-.4.2-.2.4-.5.4-.9 0-.3-.1-.6-.4-.9-.4-.2-.7-.3-1-.3z"/>
  <path fill="#fff" d="M92.4 249.54607l-.9-27.3c0-2 1.3-3.6 3-3.6h8.4c1.6 0 3 1.6 3 3.5l.9 27.4H92.4z"/>
  <path fill="#edefea" d="M97.8 257.74607c-1.5 0-2.1-1.3-2.4-2.1l-.1-.3-2.8-5.8h14.4l2 4c.4.8.4 1.8 0 2.5-.5 1-1.5 1.6-2.5 1.6h-8.6z"/>
  <path fill="#ebece7" d="M93.3 249.54607l-.9-27.2c0-.9.7-1.7 1.5-1.7h9.2c.8 0 1.5.8 1.5 1.7l.9 27.2H93.3z"/>
  <path fill="#e4e4e2" d="M105.5 249.54607H93.3l2.7 5.4c.4.9.6 1.5 1.3 1.5h9.6c.7 0 1.7-.8 1.3-1.5l-2.7-5.4z"/>
  <path fill="#fff" d="M446.6 249.54607l1.1-27.3c0-2-1.6-3.6-3.5-3.6h-10c-1.9 0-3.5 1.6-3.5 3.5l-1.1 27.4h17z"/>
  <path fill="#edefea" d="M440.2 257.74607c1.8 0 2.5-1.3 2.9-2.1l.2-.3 3.4-5.8h-17.1l-2.4 4c-.5.8-.4 1.8 0 2.5.6 1 1.8 1.6 3 1.6h10z"/>
  <path fill="#ebece7" d="M445.6 249.54607l1.1-27.2c0-.9-.8-1.7-1.8-1.7h-11c-1 0-1.8.8-1.8 1.7l-1.1 27.2h14.6z"/>
  <path fill="#e4e4e2" d="M431 249.54607h14.5l-3.2 5.4c-.5.9-.7 1.5-1.6 1.5h-11.4c-.9 0-2-.8-1.6-1.5l3.3-5.4z"/>
  <path fill="gray" d="M227.6 217.44607v1.6h40.2v-1.6h-40.2"/>
  <path fill="#848381" d="M344.9 249.54607h-1.1c0 1.6-1 7.3-2.6 7.3H154.4c-1.6 0-2.6-5.7-2.6-7.3h-1.1c0 1.6 1.3 7.8 2.9 7.8H342c1.6 0 2.9-6.3 2.9-7.8"/>
  <path fill="#8a8b8a" d="M338.8 216.64607H156.6c-3.7 0-6.1 3.6-6.1 7.5v25.4h1.1l-.3-25.1c0-3.5 2-6.7 5.2-6.7h71v-.3h40.2v.3h71c3.2 0 5.2 3.2 5.2 6.7l-.3 25.1h1.1v-25.4c.2-3.9-2.2-7.5-5.9-7.5"/>
  <path fill="#595959" d="M267.8 217.44607h-40.2v.2h40.2v-.2"/>
  <path fill="#bdbbb8" d="M435.9 234.64607l4.5-3.6v7.2m1.30001-7.20001h1.2v7.1999998h-1.2z"/>
  <path fill="#ebeae8" d="M247.7 102.64607h181.8c1 0 2.1.3 3 .8l61.2 36.6H1.7l61.2-36.6c.9-.5 1.9-.8 3-.8h181.8z"/>
  <path fill="#bdbbb8" d="M467.5 135.14607H27.9v-.1l.1-.1c.4-.3 1.9-1.2 7.2-4.4l39.7-23.7h345.7l39.5 23.7c5.3 3.2 6.8 4.1 7.2 4.4l.2.1v.1zm-438.9-.3h438.2c-4.8-2.9-44.9-26.9-46.4-27.8H75c-1.4.9-41.6 25-46.4 27.8z"/>
  <path fill="#bdbbb8" d="M10.1 134.846071h18v.3h-18zm457.29999 0h18v.3h-18z"/>
  <g transform="matrix(1.5587135,0,0,1.5587135,534.7691,0)">
    <path fill="#0f1317" d="M84.7 169.4C38 169.4 0 131.4 0 84.7S38 0 84.7 0s84.7 38 84.7 84.7-38 84.7-84.7 84.7zM84.7.1C38.1.1.1 38.1.1 84.7c0 46.6 37.9 84.5 84.5 84.5s84.5-37.9 84.5-84.5C169.2 38.1 131.3.1 84.7.1z"/>
    <path fill="#005c9b" d="M166.9 84.7c0 45.4-36.8 82.2-82.2 82.2-45.4 0-82.2-36.8-82.2-82.2 0-45.4 36.8-82.2 82.2-82.2 45.4 0 82.2 36.8 82.2 82.2zm-82.2-21c-11.6 0-21 9.4-21 21s9.4 21 21 21 21-9.4 21-21-9.4-21-21-21z"/>
    <path fill="#a299a1" d="M84.7 99.4c-8.1 0-14.7-6.6-14.7-14.7S76.6 70 84.7 70s14.7 6.6 14.7 14.7-6.6 14.7-14.7 14.7zm0-28.4C77.1 71 71 77.1 71 84.7c0 7.5 6.1 13.7 13.7 13.7 7.5 0 13.7-6.1 13.7-13.7S92.2 71 84.7 71z"/>
    <path fill="#a299a1" d="M84.7 96.5c-6.5 0-11.8-5.3-11.8-11.8 0-6.5 5.3-11.8 11.8-11.8 6.5 0 11.8 5.3 11.8 11.8 0 6.5-5.3 11.8-11.8 11.8zm0-22.7c-6 0-10.8 4.9-10.8 10.8 0 6 4.9 10.8 10.8 10.8 6 0 10.8-4.9 10.8-10.8s-4.8-10.8-10.8-10.8z"/>
    <path fill="#c1cdcc" d="M24.3 91.9c-.6-.2-1.2-.7-1.5-1.4-.2-.4-.8-2.7-3-10.7l-.3-1.2h3s.6 2.2 1.3 4.9l1.2 4.8.6-2.2c1.4-5.3 1.6-6.2 1.8-6.5.2-.5.6-.9 1.1-1 .3-.1.9-.1 1.1 0 .5.1 1 .5 1.2 1.1.1.3.4 1.5 1.6 5.8.4 1.5.7 2.7.7 2.7s.5-1.8 1.3-4.8l1.2-4.8h3s-.3 1.2-.7 2.6c-1.9 6.7-2.5 9-2.7 9.4-.3.7-.8 1.1-1.5 1.3-.3.1-.8.1-1.1 0-.4-.1-.6-.2-.9-.5-.2-.2-.3-.3-.4-.6-.2-.4-.4-1.1-1.7-6-.3-1.1-.6-2.1-.6-2.1s-.3 1.1-.7 2.5c-.8 3-1.3 4.6-1.4 5.1-.3.9-.8 1.5-1.5 1.7-.3 0-.9 0-1.1-.1zm15.8-4.6v-4.6H43v9.2h-2.8v-4.6zm5.8 0v-4.6h2.8v9.2h-2.8v-4.6zm4 4.1V91h-.2c-.2 0-.2 0-.2-.1v-.1h.9v.1c0 .1 0 .1-.2.1H50v1h-.1v-.6zm.6 0v-.5h.4l.1.3c.1.2.1.4.1.4 0 .1.1 0 .2-.4l.1-.3h.4v1h-.2v-.4c0-.4 0-.4-.2.1-.1.3-.1.3-.2.3s-.1 0-.2-.4l-.1-.4v.8h-.2v-.5zM41.2 81c-.7-.1-1.2-.7-1.3-1.3-.1-.8.4-1.6 1.2-1.8.4-.1.9-.1 1.3.1.2.1.6.4.7.7.4.7.2 1.7-.5 2.1-.4.2-1 .3-1.4.2zm5.8 0c-.8-.2-1.4-1-1.3-1.8.1-.6.6-1.2 1.2-1.3.4-.1.9-.1 1.3.1.2.1.5.4.7.6.4.7.2 1.7-.5 2.1-.4.3-1 .4-1.4.3zm-28.4-3.6"/>
    <circle cx="84.699997" cy="84.699997" r="21" fill="none" stroke="#2b84c6" stroke-miterlimit="10"/>
    <g fill="#c1cdcc">
      <path d="M74.8 152c-2.1 0-3.5-1.5-3.5-3.4s1.4-3.4 3.5-3.4h19.8c2.1 0 3.5 1.5 3.5 3.4s-1.4 3.4-3.5 3.4H74.8zm0-6c-1.7 0-2.7 1.2-2.7 2.6 0 1.4 1 2.6 2.7 2.6h19.8c1.7 0 2.7-1.1 2.7-2.6 0-1.4-1-2.6-2.7-2.6H74.8z"/>
      <path d="M73.9 146.9h1l1.3 2.2v-2.2h1v3.2h-1l-1.3-2.2v2.2h-1v-3.2zm8.5.4h.9v.4h.5v.3h-.5v2.1h-.9V148h-.5v-.3h.5v-.4zm-4.7.7h.9v2.1h-.9V148zm0-1.1h.9v.7h-.9v-.7zm16.4 1c-.8 0-1.4.5-1.4 1.2s.6 1.2 1.4 1.2c.8 0 1.4-.5 1.4-1.2s-.6-1.2-1.4-1.2m.4 1.2v.5c0 .3-.2.5-.4.5s-.4-.1-.4-.5v-.9c0-.3.2-.5.4-.5s.4.1.4.5v.4zm-2.9 0v-.4c0-.3-.2-.4-.4-.4-.1 0-.4.1-.4.4v.8c0 .3.2.4.4.4.1 0 .4-.1.4-.4v-.4zm-.1-2.2h.9v3.2h-.9v-.1c-.4.2-.8.2-1.1.1-.1 0-.6-.3-.6-1.1 0-.6.5-1.2 1.2-1.1.2 0 .4.1.5.2v-1.2zm-10.6 1c.4 0 1.1.2 1.1 1.1v1.2h-1v-1.4c0-.2-.2-.4-.4-.4-.3 0-.4.2-.4.4v1.4h-.9v-2.1h.9v.2c.1-.2.4-.4.7-.4m7.6 0c.4 0 1.1.2 1.1 1.1v1.2h-.9v-1.4c0-.2-.2-.4-.4-.4-.3 0-.4.2-.4.4v1.4H87V148h.9v.2c0-.1.3-.3.6-.3m-3 1.5v.1c0 .4-.2.5-.4.5-.1 0-.4-.1-.4-.5v-.4h1.8c0-.7-.6-1.2-1.4-1.2-.8 0-1.4.5-1.4 1.2s.6 1.2 1.4 1.2c.6 0 1.2-.4 1.3-.9h-.9zm-.8-.6c0-.2 0-.3.1-.4.1-.1.2-.2.3-.2.1 0 .3.1.3.2.1.1.1.2.1.4h-.8zm11-1.5c.1 0 .2 0 .2-.1s-.1-.1-.2-.1h-.1v.2h.1zm-.1.4h-.1v-.7h.3c.2 0 .3.1.3.2s-.1.2-.2.2l.2.3H96l-.2-.3h-.1l-.1.3z"/>
      <path d="M95.7 147.9c.3 0 .5-.2.5-.5s-.2-.5-.5-.5-.5.2-.5.5c0 .2.2.5.5.5m-.6-.6c0-.4.3-.6.6-.6s.6.3.6.6c0 .4-.3.6-.6.6-.3.1-.6-.2-.6-.6"/>
    </g>
    <path fill="#fff" d="M125.3 79.3c4.2 0 7.7 2.4 7.7 5.3s-3.4 5.3-7.7 5.3c-4.2 0-7.7-2.4-7.7-5.3.1-2.9 3.5-5.3 7.7-5.3z"/>
    <g fill="#a58353">
      <path d="M123.7 87.8h.2c0 .1 0 .1.1.2 0 0 .1.1.2.1h.2l.1-.1v-.1h-.3c-.1 0-.2-.1-.3-.1-.1-.1-.1-.1-.1-.3 0-.1 0-.2.1-.3.1-.1.2-.1.3-.1.1 0 .3 0 .3.1.1.1.1.2.1.3h-.2c0-.1 0-.1-.1-.1h-.4l-.1.1v.1h.4c.1 0 .2.1.3.1.1.1.1.2.1.3 0 .1 0 .3-.1.3s-.2.1-.4.1-.3 0-.4-.1v-.5zm1.9.1c0 .1-.1.2-.1.3-.1.1-.2.1-.3.1-.1 0-.2 0-.3-.1-.1-.1-.1-.2-.1-.4s0-.3.1-.4c.1-.1.2-.1.3-.1.1 0 .2 0 .3.1.1.1.1.2.1.4v.1l-.6-.1v.2l.1.1h.1l.1-.1.3-.1zm-.6-.3h.3c0-.1 0-.1-.1-.1l-.1-.1s-.1 0-.1.1v.1zm1.5.5s0 .1 0 0v.1h-.2v-.1l-.1.1h-.2c-.1 0-.2 0-.2-.1-.1-.1-.1-.1-.1-.2s0-.2.1-.2c0 0 .1-.1.3-.1h.1c.1 0 .2-.1.2-.1v-.1h-.2v.1h-.2c0-.1 0-.2.1-.3.1-.1.2-.1.3-.1h.2s.1 0 .1.1c0 0 0 .1.1.1v.2l-.3.6zm-.2-.3h-.4v.2h.1c.1 0 .1 0 .2-.1.1.1.1 0 .1-.1z"/>
      <path d="M126.7 88.2v-1.3h.2v1.3h-.2z"/>
    </g>
    <path fill="#a58353" d="M133.9 84.6l.9 1-1.3.8.4 1.5h-1.4l-.1 1.7-1.6-.4-.3 1.6-1.5-.6-.8 1.4-1.1-1-1 1.4-1.1-1.2-1.2 1.1-.8-1.3-1.4.8-.5-1.5-1.6.6-.2-1.4-1.5.1.2-1.5h-1.5l.3-1.6-1.2-.6.9-1-.8-1.5 1.3-.4-.4-1.6h1.5l.2-1.5 1.3.4.4-1.5 1.3.7.6-1.3 1.2.8.8-1.3 1.1 1.1 1-1 .9 1.3 1.3-.9.5 1.4 1.3-.6.3 1.5 1.6-.3v1.4l1.6.2-.5 1.4 1.4.6-.5 1.2zm-.9 0c0-2.9-3.4-5.3-7.7-5.3-4.2 0-7.7 2.4-7.7 5.3s3.4 5.3 7.7 5.3c4.2.1 7.7-2.3 7.7-5.3z"/>
    <path fill="#a58353" d="M122.8 81.9c0-.4.2-.4.3-.4.1 0 .3.1.3.4 0 .4-.2.4-.3.4-.1 0-.3 0-.3-.4zm-.3 0c0 .6.4.7.6.7.2 0 .6-.1.6-.7s-.4-.7-.6-.7c-.2 0-.6.1-.6.7zm1.7.6h-.2v-.8h-.1v-.2h.1v-.1c0-.2.1-.3.3-.3h.1v.2h-.1c-.1 0-.1 0-.1.1h.2v.2h-.2v.9zm.5 0h-.2v-.8h-.1v-.2h.1v-.1c0-.2.1-.3.3-.3h.1v.2h-.1c-.1 0-.1 0-.1.1h.2v.2h-.2v.9zm.5-.9v.9h-.2v-.9h.2zm0-.1h-.2v-.2h.2v.2zm1 .7c0 .1-.1.4-.4.4-.4 0-.4-.3-.4-.5 0-.3.1-.5.4-.5.1 0 .4.1.4.4h-.2c0-.1 0-.2-.2-.2s-.2.2-.2.3c0 .1 0 .3.2.3.1 0 .2-.1.2-.2h.2zm.4-.6v.9h-.2v-.9h.2zm0-.1h-.2v-.2h.2v.2zm.8.7c0 .1-.1.2-.2.2 0 0-.1 0-.1-.1s.1-.1.2-.1.1 0 .2-.1v.1h-.1zm.2-.4c0-.2-.2-.3-.4-.3s-.4 0-.4.3h.2c0-.1 0-.1.2-.1.1 0 .2 0 .2.1s0 .1-.1.1h-.2c-.2 0-.3.1-.3.3 0 .2.1.3.3.3.2 0 .2-.1.3-.1v.1h.3s-.1 0-.1-.1v-.6zm.4-.5v1.2h-.2v-1.2"/>
    <path fill="#a58353" d="M125.3 89.5c4 0 7.2-2.2 7.2-4.9s-3.2-4.9-7.2-4.9-7.2 2.2-7.2 4.9 3.3 4.9 7.2 4.9zm-7-4.9c0-2.6 3.1-4.7 7-4.7s7 2.1 7 4.7-3.1 4.7-7 4.7c-3.8.1-7-2.1-7-4.7z"/>
    <g fill="#a58353">
      <path d="M129.8 86.3c.8 0 1.5-.7 1.5-1.5s-.7-1.5-1.5-1.5h-9.1c-.8 0-1.5.7-1.5 1.5s.7 1.5 1.5 1.5h9.1zm-9.1-.4c-.6 0-1.1-.5-1.1-1.1 0-.6.5-1.1 1.1-1.1h9.1c.6 0 1.1.5 1.1 1.1 0 .6-.5 1.1-1.1 1.1h-9.1z"/>
      <path d="M120.3 85.5v-1.4h.4l.6.9v-.9h.5v1.4h-.5c0-.1-.6-.9-.6-.9v.9h-.4zm2.9-1c0 .1 0 .1 0 0h.2c.4-.1.5.1.6.1.2.1.1.6.1.9h-.5v-.7c0-.1-.1-.2-.2-.2s-.2 0-.2.2v.7h-.5v-1h.5z"/>
      <path d="M124.7 85.5h-.5v-.9h-.2v-.2h.2v-.1h.5v.1h.2v.2h-.2m.2.4c0-.3.3-.5.5-.5h.3c.1 0 .1 0 .2.1s.2.2.2.4h-.8c0 .1-.1.4.1.4.1 0 .1 0 .2-.1v-.2h.5c-.1.3-.4.4-.6.4-.1 0-.6 0-.6-.5zm.5-.1h.3v-.1c0-.1-.1-.1-.2-.1s-.2.1-.2.2c.1-.1.1-.1.1 0zm3.8.3c-.1-.1-.1-.3 0-.5l.3-.3c.1 0 .3-.1.5 0 .1 0 .3.1.4.3.1.1.1.4 0 .5-.1.1-.2.2-.3.2h-.5c-.2 0-.3 0-.4-.2zm.5.2c.1 0 .2-.1.2-.2v-.5c0-.1 0-.2-.2-.2s-.2.1-.2.2v.5c.1.1.1.2.2.2zm-.8.1h-.4v-.1c-.1.1-.6.1-.8-.2 0 0-.1-.3 0-.4.1-.2.4-.3.5-.3.1 0 .2.1.2.1v-.5h.4c.1-.1.1 1.4.1 1.4zm-.4-.2v-.6l-.1-.1c-.1 0-.1.1-.1.1v.4s0 .1.1.1c0 .2.1.1.1.1zm-6.5.2h.5v-1h-.5m0-.1h.5v-.3h-.5m4.7.4c.1.1.1.1 0 0h.2c.4-.1.5.1.6.1.2.1.1.6.1.9h-.5v-.7c0-.1-.1-.2-.2-.2s-.2 0-.2.2v.7h-.4v-1h.4z"/>
      <path d="M130.1 84.4v-.1h.2c-.1 0-.1 0-.2.1zm0-.1c.1 0 .1 0 0 0 .1 0 .1 0 0 0zm0 .1c-.1 0-.1 0-.1-.1s.1-.1.1-.1c.1 0 .1 0 .1.1.1.1 0 .1-.1.1zm0-.2c-.1 0-.1 0-.1.1s0 .1.1.1.1 0 .1-.1 0-.1-.1-.1z"/>
    </g>
    <path fill="#010101" d="M145.7 76.300003h11.7v16.799999h-11.7z"/>
    <path fill="#fff" d="M146.3 79.099998h10.5v10.4h-10.5zM146.8 90.5c0 .2-.1.4-.3.4-.3 0-.3-.2-.3-.4v-.1c0-.2 0-.4.3-.4.2 0 .3.1.3.2v.1h-.2c0-.1 0-.2-.1-.2s-.1.2-.1.2v.3c0 .1 0 .2.1.2s.1-.2.1-.2h.2v-.1zm.2-.2c0-.2 0-.4.3-.4s.3.2.3.4v.1c0 .2 0 .4-.3.4s-.3-.2-.3-.4v-.1zm.1.2c0 .1 0 .2.1.2s.1-.1.1-.2v-.2c0-.1 0-.2-.1-.2s-.1.2-.1.2v.2zm1.1-.6h.2v.9h-.2l-.1-.3c0-.1-.1-.2-.1-.4v.8h-.2V90h.2l.1.3c0 .1.1.2.1.4v-.8zm.7.1v.8h-.2V90h-.2v-.1h.6v.1m.6.4h-.3v.3h.3v.1h-.5v-.9h.5v.1h-.3v.3h.3m.6-.4h.2v.9h-.2l-.1-.3c0-.1-.1-.2-.1-.4v.8h-.2V90h.2l.1.3c0 .1.1.2.1.4v-.8zm.7.1v.8h-.2V90h-.2v-.1h.6v.1m.6.4v.4h-.2v-.9h.3c.2 0 .3.1.3.2s0 .2-.1.2c.1 0 .1.1.1.2v.3h-.2v-.2c0-.1 0-.1-.1-.2h-.1zm0-.1h.1c.1 0 .1 0 .1-.1s0-.1-.1-.1h-.1v.2zm.5.5l.2-.9h.2l.2.9h-.2v-.2h-.2v.2h-.2zm.3-.3h.2V90v.2l-.2.3zm.8-.5v.8h-.2V90h-.2v-.1h.6v.1m.6.4h-.3v.3h.3v.1h-.5v-.9h.5v.1h-.3v.3h.3m.2.5v-.9h.4s.1 0 .2.1c0 .1.1.2.1.3 0 .2 0 .4-.1.5h-.6zm.3-.1c.2 0 .2-.1.2-.4 0-.2 0-.3-.1-.3h-.1v.7zm.8.1v-.9h.3c.1 0 .2 0 .2.1v.2c0 .1 0 .2-.1.2.1 0 .1.1.1.2v.1c0 .1-.1.2-.2.2l-.3-.1zm.2-.1h.1l.1-.1c0-.1 0-.1-.1-.1h-.1v.2zm0-.4h.1v-.1c0-.1 0-.1-.1-.1h-.1l.1.2zm.7-.2v.1c0-.1 0-.1.1-.2l.1-.2h.2l-.3.5v.4h-.2v-.4l-.3-.5h.2l.2.3zm-8.4 1.8h-.9v.3h1.2v.3h-2v-1.4h1.9v.3h-1.1v.2h.9m2.2-.1l-.1-.1h-.2c-.2 0-.2 0-.2.1 0 .2 1.4.1 1.4.6 0 .3-.5.5-1.1.5-.6 0-1-.2-1.1-.5h.8l.1.1h.2c.2 0 .3 0 .3-.1 0-.2-1.4-.1-1.4-.6 0-.3.4-.4 1-.4.7 0 1 .2 1 .4h-.7zm2.3.5v.5h-.8v-1.4h1.1c.8 0 1.1.1 1.1.4 0 .2-.1.3-.4.3.3.1.4.1.4.4 0 .2 0 .2.1.2h-.8v-.2c0-.2-.1-.2-.4-.2h-.3zm0-.3h.3c.2 0 .4 0 .4-.1s-.1-.1-.3-.1h-.4v.2zm2.1.8v-1.4h1.1c.5 0 1 .1 1 .3 0 .1-.2.2-.3.3.3 0 .4.2.4.3 0 .3-.4.4-1 .4l-1.2.1zm.8-.6v.3h.3c.2 0 .3 0 .3-.1s-.2-.1-.4-.1h-.2v-.1zm0-.5v.2h.3c.2 0 .3 0 .3-.1s-.2-.1-.3-.1h-.3z"/>
    <path fill="#010101" d="M146.6 80c0-.3.3-.5.6-.5s.6.2.6.5-.3.6-.6.6c-.3-.1-.6-.3-.6-.6m1.1 0c0-.2-.2-.5-.5-.5s-.5.2-.5.5.2.5.5.5.5-.3.5-.5m-.6 0v.3h-.1v-.6h.2c.1 0 .3 0 .3.2 0 .1 0 .1-.1.2.1 0 .1.1.1.1v.2h-.1v-.2c-.2-.2-.2-.2-.3-.2m.1-.1c.1 0 .1 0 .1-.1 0 0 0-.1-.1-.1h-.1v.2h.1z"/>
    <path fill="#fff" d="M156.8 76.9h-.9v1.7h.9v-.4h-.5v-.3h.5v-.4h-.5v-.3h.5m-2 .4l.3 1h.5v-1.7h-.5l.1.9-.3-.9h-.5v1.7h.4v-1m-1.2-.7c-.4 0-.6.2-.6.5v.6c0 .4.1.6.6.6.4 0 .6-.2.6-.6v-.7c0-.3-.2-.4-.6-.4m.1 1.2c0 .1 0 .2-.1.2s-.2-.1-.2-.2v-.7c0-.1 0-.2.2-.2.1 0 .1.1.1.2v.7zm-1.3-1.2l-.2.5-.2-.5h-.5l.5 1v.7h.4v-.7l.4-1m-1.4 1.1c0-.1-.1-.2-.2-.2.2-.1.2-.2.2-.4 0-.3-.2-.5-.5-.5h-.6v1.7h.4v-.7h.1c.1 0 .1.1.1.2v.5h.5V78m-.6-.4h-.1v-.4c.2 0 .3 0 .3.2 0 .1-.1.2-.2.2m-1.8-.7v1.7h1v-.4h-.6v-.3h.6v-.4h-.6v-.3h.6v-.3m-2.5 0l.4 1.7h.5l.4-1.7h-.4l-.3 1.2-.2-1.2m-1.6 0v1.7h1v-.4h-.6v-.3h.6v-.4h-.6v-.3h.6v-.3"/>
    <path fill="#010101" d="M151.6 85.4l.2.9 3.8-.9.6 2.1-6.4 1.6-2.3-8 6.4-1.7.6 2.1-3.8 1 .3.8 3.8-.9.6 2.1"/>
    <path fill="none" d="M136.5 97.800003h20.9v7.8000002h-20.9z"/>
    <path fill="#010101" d="M156.7 98.3l-.8 1.4-.7-1.4h-.7c.1.2 1 1.9 1 1.9v1.1h.7v-1.1s.9-1.7 1.1-1.9h-.6z"/>
    <path fill="none" d="M136.5 97.800003h20.9v7.8000002h-20.9z"/>
    <path fill="#010101" d="M136.5 101.7h5.6v-3.9h-5.6v3.9zm1.3-.5h-.6v-2.9h.6c.7 0 1.2.7 1.2 1.4 0 .9-.5 1.5-1.2 1.5m3.6 0h-.6c-.7 0-1.2-.6-1.2-1.4 0-.8.6-1.4 1.2-1.4h.6v2.8z"/>
    <path fill="none" d="M136.5 97.800003h20.9v7.8000002h-20.9z"/>
    <path fill="#010101" d="M148.5 100.2c0 .5-.2.7-.7.7-.5 0-.7-.1-.7-.7v-.9c0-.5.2-.6.7-.6.5 0 .7.1.7.6v.9zm.3-1.8c-.2-.1-.6-.2-1-.2s-.8.1-1 .2c-.3.2-.4.4-.4.9v1c0 .4.1.7.4.9.2.1.5.2 1 .2s.8-.1 1-.2c.3-.2.4-.5.4-.9v-1c0-.4-.1-.7-.4-.9"/>
    <path fill="none" d="M136.5 97.800003h20.9v7.8000002h-20.9z"/>
    <path fill="#010101" d="M145.3 100.2c0 .5-.3.7-.5.7h-.8v-2.1h.8c.2 0 .5.1.5.6v.8zm-.5-1.9h-1.5v3h1.6c.8 0 1.1-.3 1.1-1.2v-.7c0-.8-.4-1.1-1.2-1.1"/>
    <path fill="none" d="M136.5 97.800003h20.9v7.8000002h-20.9z"/>
    <path fill="#010101" d="M149.7 98.3v3h2v-.5h-1.3v-2.5"/>
    <path fill="none" d="M136.5 97.800003h20.9v7.8000002h-20.9z"/>
    <path fill="#010101" d="M157.3 101c0 .1-.1.2-.2.2s-.2-.1-.2-.2.1-.2.2-.2.2.1.2.2m-.5 0c0 .2.1.3.3.3.2 0 .3-.1.3-.3 0-.2-.1-.3-.3-.3-.2 0-.3.1-.3.3m.2-.1h.1s0 .1-.1.1v-.1zm0 .1l.1.1h.1l-.1-.1s.1 0 .1-.1 0-.1-.1-.1h-.1v.3h.1l-.1-.1z"/>
    <path fill="none" d="M136.5 97.800003h20.9v7.8000002h-20.9z"/>
    <path fill="#010101" d="M153.7 99.7c.5 0 .7-.3.7-.7 0-.3-.1-.5-.3-.6-.1-.1-.3-.1-.6-.1H152v3h1.4c.4 0 .6-.1.7-.1.1-.1.3-.3.3-.7.1-.4 0-.8-.7-.8m-.4 1.2h-.6v-2.1h.7c.2 0 .4.2.4.4 0 .4-.2.4-.7.4v.4c.5 0 .8 0 .8.5 0 .1-.2.4-.6.4"/>
    <path fill="none" d="M136.5 97.800003h20.9v7.8000002h-20.9z"/>
    <path fill="none" d="M136.5 97.800003h20.9v7.8000002h-20.9z"/>
    <path fill="#010101" d="M141.3 104.3c0 .1 0 .1-.1.1l-.1.1h-.8v.6h-.4v-1.9h1c.2 0 .3 0 .4.1.1.1.1.2.1.4v.3c0 .2-.1.2-.1.3m-.3-.6v-.1h-.6v.7h.6v-.6zm1.7 1.4l-.4-.6h-.2v.6h-.4v-1.8h1.2c.1 0 .1.1.1.1l.1.1v.6c0 .1 0 .1-.1.1l-.1.1h-.3l.5.7-.4.1zm.1-1.3v-.1h-.6v.6h.5c.1 0 .2-.1.2-.2v-.3zm2.2 1.1c0 .1-.1.1-.1.2 0 0-.1.1-.2.1h-.9c-.1 0-.1 0-.2-.1 0 0-.1-.1-.1-.2v-1.4c0-.1.1-.1.1-.1s.1-.1.2-.1h.7c.2 0 .3 0 .4.1.1.1.1.2.1.4v1.1m-.4-1.2v-.1h-.7v1.2h.6v-.1l.1-1zm1.4-.5h.4v1.7h.8v.3H146m3.1-.2c0 .1-.1.1-.1.2 0 0-.1.1-.2.1h-.9c-.1 0-.1 0-.2-.1 0 0-.1-.1-.1-.2v-1.4c0-.1.1-.1.1-.1s.1-.1.2-.1h.7c.2 0 .3 0 .4.1.1.1.1.2.1.4v1.1m-.4-1.3v-.1h-.7v1.2h.6v-.1l.1-1zm1.9 1.5v-.1.1c-.1-.1-.2 0-.2 0h-.7c-.1 0-.1 0-.2-.1 0 0-.1-.1-.1-.2v-1.1c0-.1 0-.2.1-.3 0-.1.1-.1.1-.1.1 0 .1 0 .2-.1h.9c.1 0 .1 0 .2.1v.2h-1v1.2h.8v-.4h-.4v-.3h.8v1.1h-.5zm.7-1.9h.4v1.9h-.4zm2.1 1.9h-.7c-.2 0-.3 0-.4-.1-.1-.1-.1-.2-.1-.4v-1.2c0-.1.1-.1.1-.2 0 0 .1-.1.2-.1h.8c.1 0 .1 0 .2.1v.2h-.9v1.2h.9l-.1.5c0-.1 0 0 0 0m.99999-1.9h.4v1.9h-.4zm.80001 0h.4v1.9h-.4z"/>
    <path fill="#010101" d="M157.2 105.1v-2.5h-20.6s-.1 0-.1-.1c0 0 0-.1.1-.1h20.8v2.7s-.1.1-.2 0c.1.1 0 0 0 0"/>
  </g>
</svg>
