<svg xmlns="http://www.w3.org/2000/svg" baseProfile="tiny" viewBox="0 0 495.5 161.4">
  <path fill="#D5D4CF" d="M248.2 161.4l232.5-2.3c1.7 0 3.8-1 5-2.7l4.9-9.5H5.8l4.9 9.5c1.3 1.7 3.3 2.7 5 2.7l232.5 2.3"/>
  <path fill="#E2E4E2" d="M247.7 37.1h244.9c1.6 0 2.8 1.3 2.8 2.8L492.5 144c0 1.6-1.3 2.8-2.8 2.8H5.8c-1.6 0-2.8-1.3-2.8-2.8L0 39.9c0-1.6 1.3-2.8 2.8-2.8h244.9"/>
  <path fill="#BDBBB8" d="M426.2 135.2h.2v2.3l-.1.2s-.1.1-.2.1H422c-.1 0-.2 0-.2-.1l-.1-.2v-2.3h.4v1.9h1.4v-1.6h.4v1.6h1.6v-1.9h.7zm-.9-2h.5c.1 0 .3.1.4.2.1.1.2.2.2.3.1.1.1.3.1.5v.4l-.1.1-.1.1h-.5v-.1l.1-.1.1-.1v-.4l-.1-.1c-.1 0-.1-.1-.2-.1H422v-.4l3.3-.3zm.9-3.8h.2v2.3l-.1.2s-.1.1-.2.1H422c-.1 0-.2 0-.2-.1l-.1-.2v-2.3h.4v1.9h1.4v-1.6h.4v1.6h1.6v-1.9h.7zm-.4-4h.4l.1.1c0 .1.1.2.1.3 0 .1.1.2.1.4v.5c0 .3 0 .6-.1.8-.1.2-.2.4-.4.6s-.4.3-.7.4c-.3.1-.6.1-1 .1s-.7 0-1-.1c-.3-.1-.5-.2-.7-.4-.2-.2-.4-.4-.5-.6-.1-.2-.2-.5-.2-.8v-.4c0-.1.1-.2.1-.3 0-.1.1-.2.1-.3l.1-.2.1-.1h.5l-.1.1c0 .1-.1.1-.2.2s-.1.2-.2.3c0 .1-.1.3-.1.5s0 .4.1.5c.1.2.2.3.4.4.2.1.3.2.6.3s.5.1.8.1c.3 0 .5 0 .8-.1s.4-.2.6-.3.3-.3.3-.4c.1-.2.1-.4.1-.6 0-.2 0-.3-.1-.5 0-.1-.1-.2-.1-.3-.1-.1-.1-.2-.1-.2l-.1-.1h.1l.2.1zm-3.6-3.6h.2v1.4h4.1v.5l-.1.1h-4v1.3l-.1.1h-.2l-.1-.1h-.1v-3.3h.3M72.1 135.1c.2 0 .4 0 .6.1.2.1.3.2.5.3.1.1.2.3.3.5.1.2.1.4.1.7v.5h1.6v.4H71c-.1 0-.2 0-.2-.1l-.1-.2V136c0-.1 0-.2.1-.3 0-.1.1-.2.2-.4l.3-.3c.1-.1.2-.2.4-.2.1.3.2.3.4.3zm0 .6c-.2 0-.3 0-.5.1l-.3.3c-.1.1-.1.2-.1.3v.9H73v-.5c0-.2 0-.3-.1-.5 0-.1-.1-.2-.2-.3-.1-.1-.2-.1-.3-.2 0-.1-.1-.1-.3-.1zm.9-5.4c.4 0 .7 0 1 .1.3.1.5.2.8.4.2.2.4.4.5.6.1.3.2.6.2.9 0 .3-.1.6-.2.9-.1.2-.2.5-.4.6-.2.2-.4.3-.7.4-.3.1-.6.1-1 .1s-.7 0-1-.1c-.3-.1-.5-.2-.7-.4s-.4-.4-.5-.6c-.1-.3-.2-.6-.2-.9 0-.3.1-.6.2-.9.1-.2.2-.5.4-.6.2-.2.4-.3.7-.4.2 0 .5-.1.9-.1zm0 .7c-.3 0-.5 0-.7.1-.2 0-.4.1-.6.2-.2.1-.3.2-.4.4-.1.2-.1.4-.1.7 0 .3 0 .5.1.7.1.2.2.3.4.4.2.1.4.2.6.2.2 0 .4.1.7.1.3 0 .5 0 .7-.1s.4-.1.6-.2.3-.2.4-.4c.1-.2.1-.4.1-.7 0-.3 0-.5-.1-.7-.1-.2-.2-.3-.4-.4s-.4-.2-.6-.2c-.2-.1-.4-.1-.7-.1zm2.2-6v.1l.1.1v.6h-.1v.1l-3.5.9 3.5.9v.1h.1v.6l-.1.1v.1l-4.2 1.2h-.2l-.1-.1v-.4l.1-.1.1-.1 3.8-1-3.8-1h-.1l-.1-.1v-.4h.1v-.1h.1l3.8-1.1-3.8-1h-.1l-.1-.1v-.4l.1-.1h.2m4.1-3.3h.2v2.3l-.1.2s-.1.1-.2.1h-4c-.1 0-.2 0-.2-.1l-.1-.2v-2.3h.4v1.9h1.4v-1.6h.4v1.6h1.6v-1.9h.6zm.1-4.1l.1.2v.5h-.1l-1.1.4c-.1 0-.2.1-.3.2-.1.1-.2.1-.3.2s-.1.2-.2.3c0 .1-.1.2-.1.4v.4h1.9v.4H71c-.1 0-.2 0-.2-.1l-.1-.2v-1.5c0-.2.1-.3.1-.5.1-.1.1-.2.2-.3.1-.1.2-.2.3-.2s.3-.1.4-.1c.2 0 .3 0 .4.1.1 0 .2.1.3.2.1.1.2.2.2.3.1.1.1.2.2.4l.1-.2.2-.2c.1-.1.2-.1.2-.1.1 0 .2-.1.3-.1l1-.4.6-.1zm-3.2 1c-.2 0-.3 0-.5.1-.1.1-.2.2-.3.4v1h1.5v-.6c0-.2 0-.3-.1-.4 0-.1-.1-.2-.2-.3s-.2-.1-.2-.2H72zm407.3-10.6c-.2.7-.9 1.4-1.6 1.7-.5.2-3.1.9-12.3 3.5l-1.4.4v-3.5s2.5-.7 5.6-1.4l5.6-1.4-2.6-.7c-6.1-1.6-7.1-1.9-7.5-2.1-.6-.3-1-.7-1.1-1.3-.1-.3-.1-1 0-1.3.2-.6.6-1.1 1.3-1.4.4-.2 1.7-.5 6.7-1.8 1.7-.4 3.1-.8 3.1-.8s-2-.6-5.5-1.5l-5.6-1.4v-3.5s1.4.4 3 .8c7.7 2.1 10.3 2.9 10.8 3.1.8.4 1.3 1 1.5 1.7.1.3.1.9 0 1.2-.1.4-.2.6-.6 1-.3.3-.4.4-.7.5-.5.2-1.3.5-6.9 2-1.3.4-2.4.7-2.4.7s1.2.4 2.8.8c3.5 1 5.3 1.5 5.8 1.6 1.1.3 1.8 1 2 1.8v1.3zm-5.4-18.3h-5.3v-3.4h10.6v3.4h-5.3zm0-6.7h-5.3v-3.4h10.6v3.4h-5.3zm-7.2 5.5c-.2.8-.8 1.4-1.6 1.5-.9.2-1.8-.5-2.1-1.4-.1-.5-.1-1.1.2-1.5.1-.3.5-.7.7-.8.8-.5 1.9-.2 2.4.6.4.5.5 1.1.4 1.6zm0-6.7c-.2 1-1.2 1.7-2.1 1.5-.7-.1-1.3-.7-1.5-1.4-.1-.5-.1-1.1.2-1.5.1-.3.5-.6.7-.8.8-.5 1.9-.2 2.4.6.3.5.4 1.1.3 1.6z"/>
  <path fill="#EEEFEC" d="M243.4 88.9L49.2 86.1l-.7-.2C43 84.1 39 78.5 39 72.6c0-5.7 3.6-10.4 9.4-12.3l.7-.2 195.5-4.7h6l195.6 4.7.7.2c5.8 1.9 9.4 6.6 9.4 12.3 0 5.9-4 11.5-9.4 13.2l-.7.2-197.4 2.8-5.4.1z"/>
  <path fill="#91B9E3" d="M244.7 60.4L50 65.1c-9.2 3-6.6 13.8 0 16l193.4 2.8h5.4l196.6-2.8c6.6-2.2 9.2-13 0-16l-194.9-4.7h-5.8z"/>
  <path d="M52.8 66c-9.1 2.2-6.6 10.2 0 11.8l190.6 2c1.3.1 2.9 0 4.3 0l194.9-2.1c6.6-1.6 9.1-9.6 0-11.8l-194.9-3.5c-64.9 1-129.9 2.4-194.9 3.6z"/>
  <path fill="#BDBBB8" d="M116.5 138.3h-5v-1.8c0-.4 0-.7.1-.8.1-.2.2-.3.5-.4.2-.1.5-.2.8-.2.4 0 .7.1.9.3.2.2.4.5.4.9.1-.2.2-.3.3-.3.2-.2.4-.3.6-.4l1.4-.7v.7l-1 .5c-.4.2-.7.4-.8.5l-.3.3c0 .1-.1.2-.1.4v.6h2.2v.4zm-2.8-.5v-1.2c0-.3 0-.4-.1-.6s-.2-.2-.3-.3c-.1-.1-.3-.1-.5-.1-.3 0-.5.1-.6.2-.1.1-.2.4-.2.7v1.3h1.7zm2.8-3.6h-5v-3h.6v2.4h1.5v-2.3h.6v2.3h1.7v-2.5h.6m-1.6-.6l-.1-.5c.3 0 .5-.1.6-.2.2-.1.3-.2.4-.4s.1-.4.1-.6c0-.3-.1-.6-.2-.8-.2-.2-.4-.3-.6-.3-.1 0-.3 0-.4.1l-.3.3c-.1.1-.2.4-.3.8-.1.4-.2.7-.3.8l-.4.4c-.2.1-.4.1-.6.1-.4 0-.7-.1-1-.4s-.4-.6-.4-1.1c0-.3.1-.6.2-.8.1-.2.3-.4.5-.5.2-.1.5-.2.8-.2v.5c-.3 0-.6.1-.7.3-.2.2-.2.4-.2.7 0 .3.1.5.2.7.1.2.3.2.5.2s.4-.1.5-.2c.1-.1.2-.4.3-.8.1-.4.2-.7.3-.9.1-.3.3-.4.5-.6.2-.1.5-.2.7-.2.3 0 .5.1.8.2.2.1.4.3.5.5.1.2.2.5.2.8 0 .5-.2.9-.5 1.2-.2.8-.6.9-1.1.9zm1.6-4h-5v-3h.6v2.5h1.5v-2.3h.6v2.3h1.7v-2.6h.6m0-1.8h-4.4v1.4h-.6v-3.3h.6v1.4h4.4"/>
  <path fill="#FFF" d="M48.5 146.9l-1.1-27.3c0-2 1.5-3.6 3.4-3.6h9.7c1.9 0 3.4 1.6 3.4 3.5l1.1 27.4H48.5z"/>
  <path fill="#EDEFEA" d="M54.7 155.1c-1.7 0-2.4-1.3-2.8-2.1l-.2-.3-3.2-5.8H65l2.3 4c.4.8.4 1.8 0 2.5-.5 1-1.7 1.6-2.9 1.6h-9.7z"/>
  <path fill="#EBECE7" d="M49.6 146.9l-1.1-27.2c0-.9.8-1.7 1.7-1.7h10.6c.9 0 1.7.8 1.7 1.7l1.1 27.2h-14z"/>
  <path fill="#E4E4E2" d="M63.6 146.9h-14l3.1 5.4c.5.9.7 1.5 1.5 1.5h11c.8 0 1.9-.8 1.5-1.5l-3.1-5.4z"/>
  <path fill="#B9BCBF" d="M50.6 127.2h6.2v.9h-6.2z"/>
  <path fill="#B9BCBF" d="M51.9 125.8H53c.7-1 1.8-1.7 3.1-1.7 2 0 3.7 1.6 3.7 3.7 0 2-1.6 3.7-3.7 3.7-1.3 0-2.4-.7-3.1-1.7v.1h-1c.8 1.5 2.3 2.5 4.1 2.5 2.6 0 4.6-2.1 4.6-4.6 0-2.6-2.1-4.6-4.6-4.6-1.9 0-3.5 1.1-4.2 2.6z"/>
  <path fill="#B2D42E" d="M56.3 142.6c-.5 0-1-.2-1.4-.6-.4-.4-.6-.9-.6-1.4 0-1.1.9-1.9 1.9-1.9.5 0 1 .2 1.4.6.4.4.6.9.6 1.4 0 .5-.2 1-.6 1.4-.3.3-.8.5-1.3.5z"/>
  <path fill="#D2EB76" d="M56.3 139.5c-.7 0-1.2.5-1.2 1.2 0 .3.1.6.4.9.2.2.5.4.9.4.3 0 .6-.1.9-.4.2-.2.4-.5.4-.9 0-.3-.1-.6-.4-.9-.4-.2-.7-.3-1-.3z"/>
  <path fill="#FFF" d="M92.4 146.9l-.9-27.3c0-2 1.3-3.6 3-3.6h8.4c1.6 0 3 1.6 3 3.5l.9 27.4H92.4z"/>
  <path fill="#EDEFEA" d="M97.8 155.1c-1.5 0-2.1-1.3-2.4-2.1l-.1-.3-2.8-5.8h14.4l2 4c.4.8.4 1.8 0 2.5-.5 1-1.5 1.6-2.5 1.6h-8.6z"/>
  <path fill="#EBECE7" d="M93.3 146.9l-.9-27.2c0-.9.7-1.7 1.5-1.7h9.2c.8 0 1.5.8 1.5 1.7l.9 27.2H93.3z"/>
  <path fill="#E4E4E2" d="M105.5 146.9H93.3l2.7 5.4c.4.9.6 1.5 1.3 1.5h9.6c.7 0 1.7-.8 1.3-1.5l-2.7-5.4z"/>
  <path fill="#FFF" d="M446.6 146.9l1.1-27.3c0-2-1.6-3.6-3.5-3.6h-10c-1.9 0-3.5 1.6-3.5 3.5l-1.1 27.4h17z"/>
  <path fill="#EDEFEA" d="M440.2 155.1c1.8 0 2.5-1.3 2.9-2.1l.2-.3 3.4-5.8h-17.1l-2.4 4c-.5.8-.4 1.8 0 2.5.6 1 1.8 1.6 3 1.6h10z"/>
  <path fill="#EBECE7" d="M445.6 146.9l1.1-27.2c0-.9-.8-1.7-1.8-1.7h-11c-1 0-1.8.8-1.8 1.7l-1.1 27.2h14.6z"/>
  <path fill="#E4E4E2" d="M431 146.9h14.5l-3.2 5.4c-.5.9-.7 1.5-1.6 1.5h-11.4c-.9 0-2-.8-1.6-1.5l3.3-5.4z"/>
  <path fill="gray" d="M227.6 114.8v1.6h40.2v-1.6h-40.2"/>
  <path fill="#848381" d="M344.9 146.9h-1.1c0 1.6-1 7.3-2.6 7.3H154.4c-1.6 0-2.6-5.7-2.6-7.3h-1.1c0 1.6 1.3 7.8 2.9 7.8H342c1.6 0 2.9-6.3 2.9-7.8"/>
  <path fill="#8A8B8A" d="M338.8 114H156.6c-3.7 0-6.1 3.6-6.1 7.5v25.4h1.1l-.3-25.1c0-3.5 2-6.7 5.2-6.7h71v-.3h40.2v.3h71c3.2 0 5.2 3.2 5.2 6.7l-.3 25.1h1.1v-25.4c.2-3.9-2.2-7.5-5.9-7.5"/>
  <path fill="#595959" d="M267.8 114.8h-40.2v.2h40.2v-.2"/>
  <path fill="#BDBBB8" d="M435.9 132l4.5-3.6v7.2m1.3-7.2h1.2v7.2h-1.2z"/>
  <path fill="#EBEAE8" d="M247.7 0h181.8c1 0 2.1.3 3 .8l61.2 36.6H1.7L62.9.8c.9-.5 1.9-.8 3-.8h181.8z"/>
  <path fill="#BDBBB8" d="M467.5 32.5H27.9v-.1l.1-.1c.4-.3 1.9-1.2 7.2-4.4L74.9 4.2h345.7l39.5 23.7c5.3 3.2 6.8 4.1 7.2 4.4l.2.1v.1zm-438.9-.3h438.2c-4.8-2.9-44.9-26.9-46.4-27.8H75c-1.4.9-41.6 25-46.4 27.8z"/>
  <path fill="#BDBBB8" d="M10.1 32.2h18v.3h-18zm457.3 0h18v.3h-18z"/>
</svg>
