<svg xmlns="http://www.w3.org/2000/svg" baseProfile="tiny" viewBox="0 0 169.4 169.4">
  <path fill="#0F1317" d="M84.7 169.4C38 169.4 0 131.4 0 84.7S38 0 84.7 0s84.7 38 84.7 84.7-38 84.7-84.7 84.7zM84.7.1C38.1.1.1 38.1.1 84.7c0 46.6 37.9 84.5 84.5 84.5s84.5-37.9 84.5-84.5C169.2 38.1 131.3.1 84.7.1z"/>
  <path fill="#005C9B" d="M166.9 84.7c0 45.4-36.8 82.2-82.2 82.2S2.5 130.1 2.5 84.7 39.3 2.5 84.7 2.5s82.2 36.8 82.2 82.2zm-82.2-21c-11.6 0-21 9.4-21 21s9.4 21 21 21 21-9.4 21-21-9.4-21-21-21z"/>
  <path fill="#A299A1" d="M84.7 99.4c-8.1 0-14.7-6.6-14.7-14.7S76.6 70 84.7 70s14.7 6.6 14.7 14.7-6.6 14.7-14.7 14.7zm0-28.4C77.1 71 71 77.1 71 84.7c0 7.5 6.1 13.7 13.7 13.7 7.5 0 13.7-6.1 13.7-13.7S92.2 71 84.7 71z"/>
  <path fill="#A299A1" d="M84.7 96.5c-6.5 0-11.8-5.3-11.8-11.8 0-6.5 5.3-11.8 11.8-11.8 6.5 0 11.8 5.3 11.8 11.8 0 6.5-5.3 11.8-11.8 11.8zm0-22.7c-6 0-10.8 4.9-10.8 10.8 0 6 4.9 10.8 10.8 10.8 6 0 10.8-4.9 10.8-10.8s-4.8-10.8-10.8-10.8z"/>
  <path fill="#C1CDCC" d="M24.3 91.9c-.6-.2-1.2-.7-1.5-1.4-.2-.4-.8-2.7-3-10.7l-.3-1.2h3s.6 2.2 1.3 4.9l1.2 4.8.6-2.2c1.4-5.3 1.6-6.2 1.8-6.5.2-.5.6-.9 1.1-1 .3-.1.9-.1 1.1 0 .5.1 1 .5 1.2 1.1.1.3.4 1.5 1.6 5.8.4 1.5.7 2.7.7 2.7s.5-1.8 1.3-4.8l1.2-4.8h3s-.3 1.2-.7 2.6c-1.9 6.7-2.5 9-2.7 9.4-.3.7-.8 1.1-1.5 1.3-.3.1-.8.1-1.1 0-.4-.1-.6-.2-.9-.5-.2-.2-.3-.3-.4-.6-.2-.4-.4-1.1-1.7-6-.3-1.1-.6-2.1-.6-2.1s-.3 1.1-.7 2.5c-.8 3-1.3 4.6-1.4 5.1-.3.9-.8 1.5-1.5 1.7-.3 0-.9 0-1.1-.1zm15.8-4.6v-4.6H43v9.2h-2.8v-4.6zm5.8 0v-4.6h2.8v9.2h-2.8v-4.6zm4 4.1V91h-.2c-.2 0-.2 0-.2-.1v-.1h.9v.1c0 .1 0 .1-.2.1H50v1h-.1v-.6zm.6 0v-.5h.4l.1.3c.1.2.1.4.1.4 0 .1.1 0 .2-.4l.1-.3h.4v1h-.2v-.4c0-.4 0-.4-.2.1-.1.3-.1.3-.2.3s-.1 0-.2-.4l-.1-.4v.8h-.2v-.5zM41.2 81c-.7-.1-1.2-.7-1.3-1.3-.1-.8.4-1.6 1.2-1.8.4-.1.9-.1 1.3.1.2.1.6.4.7.7.4.7.2 1.7-.5 2.1-.4.2-1 .3-1.4.2zm5.8 0c-.8-.2-1.4-1-1.3-1.8.1-.6.6-1.2 1.2-1.3.4-.1.9-.1 1.3.1.2.1.5.4.7.6.4.7.2 1.7-.5 2.1-.4.3-1 .4-1.4.3zm-28.4-3.6"/>
  <circle cx="84.7" cy="84.7" r="21" fill="none" stroke="#2B84C6" stroke-miterlimit="10"/>
  <g fill="#C1CDCC">
    <path d="M74.8 152c-2.1 0-3.5-1.5-3.5-3.4s1.4-3.4 3.5-3.4h19.8c2.1 0 3.5 1.5 3.5 3.4s-1.4 3.4-3.5 3.4H74.8zm0-6c-1.7 0-2.7 1.2-2.7 2.6 0 1.4 1 2.6 2.7 2.6h19.8c1.7 0 2.7-1.1 2.7-2.6 0-1.4-1-2.6-2.7-2.6H74.8z"/>
    <path d="M73.9 146.9h1l1.3 2.2v-2.2h1v3.2h-1l-1.3-2.2v2.2h-1v-3.2zm8.5.4h.9v.4h.5v.3h-.5v2.1h-.9V148h-.5v-.3h.5v-.4zm-4.7.7h.9v2.1h-.9V148zm0-1.1h.9v.7h-.9v-.7zm16.4 1c-.8 0-1.4.5-1.4 1.2s.6 1.2 1.4 1.2c.8 0 1.4-.5 1.4-1.2s-.6-1.2-1.4-1.2m.4 1.2v.5c0 .3-.2.5-.4.5s-.4-.1-.4-.5v-.9c0-.3.2-.5.4-.5s.4.1.4.5v.4zm-2.9 0v-.4c0-.3-.2-.4-.4-.4-.1 0-.4.1-.4.4v.8c0 .3.2.4.4.4.1 0 .4-.1.4-.4v-.4zm-.1-2.2h.9v3.2h-.9v-.1c-.4.2-.8.2-1.1.1-.1 0-.6-.3-.6-1.1 0-.6.5-1.2 1.2-1.1.2 0 .4.1.5.2v-1.2zm-10.6 1c.4 0 1.1.2 1.1 1.1v1.2h-1v-1.4c0-.2-.2-.4-.4-.4-.3 0-.4.2-.4.4v1.4h-.9v-2.1h.9v.2c.1-.2.4-.4.7-.4m7.6 0c.4 0 1.1.2 1.1 1.1v1.2h-.9v-1.4c0-.2-.2-.4-.4-.4-.3 0-.4.2-.4.4v1.4H87V148h.9v.2c0-.1.3-.3.6-.3m-3 1.5v.1c0 .4-.2.5-.4.5-.1 0-.4-.1-.4-.5v-.4h1.8c0-.7-.6-1.2-1.4-1.2-.8 0-1.4.5-1.4 1.2s.6 1.2 1.4 1.2c.6 0 1.2-.4 1.3-.9h-.9zm-.8-.6c0-.2 0-.3.1-.4.1-.1.2-.2.3-.2.1 0 .3.1.3.2.1.1.1.2.1.4h-.8zm11-1.5c.1 0 .2 0 .2-.1s-.1-.1-.2-.1h-.1v.2h.1zm-.1.4h-.1v-.7h.3c.2 0 .3.1.3.2s-.1.2-.2.2l.2.3H96l-.2-.3h-.1l-.1.3z"/>
    <path d="M95.7 147.9c.3 0 .5-.2.5-.5s-.2-.5-.5-.5-.5.2-.5.5c0 .2.2.5.5.5m-.6-.6c0-.4.3-.6.6-.6s.6.3.6.6c0 .4-.3.6-.6.6-.3.1-.6-.2-.6-.6"/>
  </g>
  <path fill="#FFF" d="M125.3 79.3c4.2 0 7.7 2.4 7.7 5.3s-3.4 5.3-7.7 5.3c-4.2 0-7.7-2.4-7.7-5.3.1-2.9 3.5-5.3 7.7-5.3z"/>
  <g fill="#A58353">
    <path d="M123.7 87.8h.2c0 .1 0 .1.1.2 0 0 .1.1.2.1h.2l.1-.1v-.1h-.3c-.1 0-.2-.1-.3-.1-.1-.1-.1-.1-.1-.3 0-.1 0-.2.1-.3.1-.1.2-.1.3-.1.1 0 .3 0 .3.1.1.1.1.2.1.3h-.2c0-.1 0-.1-.1-.1h-.4l-.1.1v.1h.4c.1 0 .2.1.3.1.1.1.1.2.1.3 0 .1 0 .3-.1.3s-.2.1-.4.1-.3 0-.4-.1v-.5zm1.9.1c0 .1-.1.2-.1.3-.1.1-.2.1-.3.1-.1 0-.2 0-.3-.1-.1-.1-.1-.2-.1-.4s0-.3.1-.4.2-.1.3-.1c.1 0 .2 0 .3.1.1.1.1.2.1.4v.1l-.6-.1v.2l.1.1h.1l.1-.1.3-.1zm-.6-.3h.3c0-.1 0-.1-.1-.1l-.1-.1s-.1 0-.1.1v.1zm1.5.5s0 .1 0 0v.1h-.2v-.1l-.1.1h-.2c-.1 0-.2 0-.2-.1-.1-.1-.1-.1-.1-.2s0-.2.1-.2c0 0 .1-.1.3-.1h.1c.1 0 .2-.1.2-.1v-.1h-.2v.1h-.2c0-.1 0-.2.1-.3.1-.1.2-.1.3-.1h.2s.1 0 .1.1c0 0 0 .1.1.1v.2l-.3.6zm-.2-.3h-.4v.2h.1c.1 0 .1 0 .2-.1.1.1.1 0 .1-.1z"/>
    <path d="M126.7 88.2v-1.3h.2v1.3h-.2z"/>
  </g>
  <path fill="#A58353" d="M133.9 84.6l.9 1-1.3.8.4 1.5h-1.4l-.1 1.7-1.6-.4-.3 1.6-1.5-.6-.8 1.4-1.1-1-1 1.4-1.1-1.2-1.2 1.1-.8-1.3-1.4.8-.5-1.5-1.6.6-.2-1.4-1.5.1.2-1.5h-1.5l.3-1.6-1.2-.6.9-1-.8-1.5 1.3-.4-.4-1.6h1.5l.2-1.5 1.3.4.4-1.5 1.3.7.6-1.3 1.2.8.8-1.3 1.1 1.1 1-1 .9 1.3 1.3-.9.5 1.4 1.3-.6.3 1.5 1.6-.3v1.4l1.6.2-.5 1.4 1.4.6-.5 1.2zm-.9 0c0-2.9-3.4-5.3-7.7-5.3-4.2 0-7.7 2.4-7.7 5.3s3.4 5.3 7.7 5.3c4.2.1 7.7-2.3 7.7-5.3z"/>
  <path fill="#A58353" d="M122.8 81.9c0-.4.2-.4.3-.4.1 0 .3.1.3.4 0 .4-.2.4-.3.4-.1 0-.3 0-.3-.4zm-.3 0c0 .6.4.7.6.7s.6-.1.6-.7-.4-.7-.6-.7-.6.1-.6.7zm1.7.6h-.2v-.8h-.1v-.2h.1v-.1c0-.2.1-.3.3-.3h.1v.2h-.1c-.1 0-.1 0-.1.1h.2v.2h-.2v.9zm.5 0h-.2v-.8h-.1v-.2h.1v-.1c0-.2.1-.3.3-.3h.1v.2h-.1c-.1 0-.1 0-.1.1h.2v.2h-.2v.9zm.5-.9v.9h-.2v-.9h.2zm0-.1h-.2v-.2h.2v.2zm1 .7c0 .1-.1.4-.4.4-.4 0-.4-.3-.4-.5 0-.3.1-.5.4-.5.1 0 .4.1.4.4h-.2c0-.1 0-.2-.2-.2s-.2.2-.2.3c0 .1 0 .3.2.3.1 0 .2-.1.2-.2h.2zm.4-.6v.9h-.2v-.9h.2zm0-.1h-.2v-.2h.2v.2zm.8.7c0 .1-.1.2-.2.2 0 0-.1 0-.1-.1s.1-.1.2-.1.1 0 .2-.1v.1h-.1zm.2-.4c0-.2-.2-.3-.4-.3s-.4 0-.4.3h.2c0-.1 0-.1.2-.1.1 0 .2 0 .2.1s0 .1-.1.1h-.2c-.2 0-.3.1-.3.3 0 .2.1.3.3.3.2 0 .2-.1.3-.1v.1h.3s-.1 0-.1-.1v-.6zm.4.7h-.2v-1.2h.2"/>
  <path fill="#A58353" d="M125.3 89.5c4 0 7.2-2.2 7.2-4.9s-3.2-4.9-7.2-4.9-7.2 2.2-7.2 4.9 3.3 4.9 7.2 4.9zm-7-4.9c0-2.6 3.1-4.7 7-4.7s7 2.1 7 4.7-3.1 4.7-7 4.7c-3.8.1-7-2.1-7-4.7z"/>
  <g fill="#A58353">
    <path d="M129.8 86.3c.8 0 1.5-.7 1.5-1.5s-.7-1.5-1.5-1.5h-9.1c-.8 0-1.5.7-1.5 1.5s.7 1.5 1.5 1.5h9.1zm-9.1-.4c-.6 0-1.1-.5-1.1-1.1 0-.6.5-1.1 1.1-1.1h9.1c.6 0 1.1.5 1.1 1.1 0 .6-.5 1.1-1.1 1.1h-9.1z"/>
    <path d="M120.3 85.5v-1.4h.4l.6.9v-.9h.5v1.4h-.5c0-.1-.6-.9-.6-.9v.9h-.4zm2.9-1c0 .1 0 .1 0 0h.2c.4-.1.5.1.6.1.2.1.1.6.1.9h-.5v-.7c0-.1-.1-.2-.2-.2s-.2 0-.2.2v.7h-.5v-1h.5z"/>
    <path d="M124.2 84.4v-.1h.5v.1h.2v.2h-.2v.9h-.5v-.9h-.2v-.2m.9.6c0-.3.3-.5.5-.5h.3c.1 0 .1 0 .2.1s.2.2.2.4h-.8c0 .1-.1.4.1.4.1 0 .1 0 .2-.1v-.2h.5c-.1.3-.4.4-.6.4-.1 0-.6 0-.6-.5zm.5-.1h.3v-.1c0-.1-.1-.1-.2-.1s-.2.1-.2.2c.1-.1.1-.1.1 0zm3.8.3c-.1-.1-.1-.3 0-.5l.3-.3c.1 0 .3-.1.5 0 .1 0 .3.1.4.3.1.1.1.4 0 .5-.1.1-.2.2-.3.2h-.5c-.2 0-.3 0-.4-.2zm.5.2c.1 0 .2-.1.2-.2v-.5c0-.1 0-.2-.2-.2s-.2.1-.2.2v.5c.1.1.1.2.2.2zm-.8.1h-.4v-.1c-.1.1-.6.1-.8-.2 0 0-.1-.3 0-.4.1-.2.4-.3.5-.3.1 0 .2.1.2.1v-.5h.4c.1-.1.1 1.4.1 1.4zm-.4-.2v-.6l-.1-.1c-.1 0-.1.1-.1.1v.4s0 .1.1.1c0 .2.1.1.1.1zm-6 .2v-1h-.5v1m.5-1.1v-.3h-.5v.3m4.7.1c.1.1.1.1 0 0h.2c.4-.1.5.1.6.1.2.1.1.6.1.9h-.5v-.7c0-.1-.1-.2-.2-.2s-.2 0-.2.2v.7h-.4v-1h.4z"/>
    <path d="M130.1 84.4v-.1h.2c-.1 0-.1 0-.2.1zm0-.1c.1 0 .1 0 0 0 .1 0 .1 0 0 0zm0 .1c-.1 0-.1 0-.1-.1s.1-.1.1-.1c.1 0 .1 0 .1.1.1.1 0 .1-.1.1zm0-.2c-.1 0-.1 0-.1.1s0 .1.1.1.1 0 .1-.1 0-.1-.1-.1z"/>
  </g>
  <path fill="#010101" d="M145.7 76.3h11.7v16.8h-11.7z"/>
  <path fill="#FFF" d="M146.3 79.1h10.5v10.4h-10.5zm.5 11.4c0 .2-.1.4-.3.4-.3 0-.3-.2-.3-.4v-.1c0-.2 0-.4.3-.4.2 0 .3.1.3.2v.1h-.2c0-.1 0-.2-.1-.2s-.1.2-.1.2v.3c0 .1 0 .2.1.2s.1-.2.1-.2h.2v-.1zm.2-.2c0-.2 0-.4.3-.4s.3.2.3.4v.1c0 .2 0 .4-.3.4s-.3-.2-.3-.4v-.1zm.1.2c0 .1 0 .2.1.2s.1-.1.1-.2v-.2c0-.1 0-.2-.1-.2s-.1.2-.1.2v.2zm1.1-.6h.2v.9h-.2l-.1-.3c0-.1-.1-.2-.1-.4v.8h-.2V90h.2l.1.3c0 .1.1.2.1.4v-.8zm.3 0h.6v.1h-.2v.8h-.2V90h-.2m.7.8v-.9h.5v.1h-.3v.3h.3v.1h-.3v.3h.3v.1m.6-.9h.2v.9h-.2l-.1-.3c0-.1-.1-.2-.1-.4v.8h-.2V90h.2l.1.3c0 .1.1.2.1.4v-.8zm.3 0h.6v.1h-.2v.8h-.2V90h-.2m1.2.4v.4h-.2v-.9h.3c.2 0 .3.1.3.2s0 .2-.1.2c.1 0 .1.1.1.2v.3h-.2v-.2c0-.1 0-.1-.1-.2h-.1zm0-.1h.1c.1 0 .1 0 .1-.1s0-.1-.1-.1h-.1v.2zm.5.5l.2-.9h.2l.2.9h-.2v-.2h-.2v.2h-.2zm.3-.3h.2V90v.2l-.2.3zm.4-.6h.6v.1h-.2v.8h-.2V90h-.2m.7.8v-.9h.5v.1h-.3v.3h.3v.1h-.3v.3h.3v.1m.2 0v-.9h.4s.1 0 .2.1c0 .1.1.2.1.3 0 .2 0 .4-.1.5h-.6zm.3-.1c.2 0 .2-.1.2-.4 0-.2 0-.3-.1-.3h-.1v.7zm.8.1v-.9h.3c.1 0 .2 0 .2.1v.2c0 .1 0 .2-.1.2.1 0 .1.1.1.2v.1c0 .1-.1.2-.2.2l-.3-.1zm.2-.1h.1l.1-.1c0-.1 0-.1-.1-.1h-.1v.2zm0-.4h.1v-.1c0-.1 0-.1-.1-.1h-.1l.1.2zm.7-.2v.1c0-.1 0-.1.1-.2l.1-.2h.2l-.3.5v.4h-.2v-.4l-.3-.5h.2l.2.3zm-10.1 2.4v-1.4h1.9v.3h-1.1v.2h.9v.3h-.9v.3h1.2v.3m1.9-1l-.1-.1h-.2c-.2 0-.2 0-.2.1 0 .2 1.4.1 1.4.6 0 .3-.5.5-1.1.5-.6 0-1-.2-1.1-.5h.8l.1.1h.2c.2 0 .3 0 .3-.1 0-.2-1.4-.1-1.4-.6 0-.3.4-.4 1-.4.7 0 1 .2 1 .4h-.7zm2.3.5v.5h-.8v-1.4h1.1c.8 0 1.1.1 1.1.4 0 .2-.1.3-.4.3.3.1.4.1.4.4 0 .2 0 .2.1.2h-.8v-.2c0-.2-.1-.2-.4-.2h-.3zm0-.3h.3c.2 0 .4 0 .4-.1s-.1-.1-.3-.1h-.4v.2zm2.1.8v-1.4h1.1c.5 0 1 .1 1 .3 0 .1-.2.2-.3.3.3 0 .4.2.4.3 0 .3-.4.4-1 .4l-1.2.1zm.8-.6v.3h.3c.2 0 .3 0 .3-.1s-.2-.1-.4-.1h-.2v-.1zm0-.5v.2h.3c.2 0 .3 0 .3-.1s-.2-.1-.3-.1h-.3z"/>
  <path fill="#010101" d="M146.6 80c0-.3.3-.5.6-.5s.6.2.6.5-.3.6-.6.6c-.3-.1-.6-.3-.6-.6m1.1 0c0-.2-.2-.5-.5-.5s-.5.2-.5.5.2.5.5.5.5-.3.5-.5m-.6 0v.3h-.1v-.6h.2c.1 0 .3 0 .3.2 0 .1 0 .1-.1.2.1 0 .1.1.1.1v.2h-.1v-.2c-.2-.2-.2-.2-.3-.2m.1-.1c.1 0 .1 0 .1-.1 0 0 0-.1-.1-.1h-.1v.2h.1z"/>
  <path fill="#FFF" d="M156.3 78.2v-.3h.5v-.4h-.5v-.3h.5v-.3h-.9v1.7h.9v-.4m-1.6-.4l-.3-.9h-.5v1.7h.4v-1l.3 1h.5v-1.7h-.5m-1.5 0c-.4 0-.6.2-.6.5v.6c0 .4.1.6.6.6.4 0 .6-.2.6-.6v-.7c0-.3-.2-.4-.6-.4m.1 1.2c0 .1 0 .2-.1.2s-.2-.1-.2-.2v-.7c0-.1 0-.2.2-.2.1 0 .1.1.1.2v.7zm-1.5-.7l-.2-.5h-.5l.5 1v.7h.4v-.7l.4-1h-.4m-1 1.1c0-.1-.1-.2-.2-.2.2-.1.2-.2.2-.4 0-.3-.2-.5-.5-.5h-.6v1.7h.4v-.7h.1c.1 0 .1.1.1.2v.5h.5V78m-.6-.4h-.1v-.4c.2 0 .3 0 .3.2 0 .1-.1.2-.2.2m-1.4.3h.6v-.4h-.6v-.3h.6v-.3h-1v1.7h1v-.4h-.6m-1.3-.1l-.2-1.2h-.4l.4 1.7h.5l.4-1.7h-.4m-1.7 1h.6v-.4h-.6v-.3h.6v-.3h-1v1.7h1v-.4h-.6"/>
  <path fill="#010101" d="M147.5 81.1l6.4-1.7.6 2.1-3.8 1 .3.8 3.8-.9.6 2.1-3.8.9.2.9 3.8-.9.6 2.1-6.4 1.6"/>
  <path fill="none" d="M136.5 97.8h20.9v7.8h-20.9z"/>
  <path fill="#010101" d="M156.7 98.3l-.8 1.4-.7-1.4h-.7c.1.2 1 1.9 1 1.9v1.1h.7v-1.1s.9-1.7 1.1-1.9h-.6z"/>
  <path fill="none" d="M136.5 97.8h20.9v7.8h-20.9z"/>
  <path fill="#010101" d="M136.5 101.7h5.6v-3.9h-5.6v3.9zm1.3-.5h-.6v-2.9h.6c.7 0 1.2.7 1.2 1.4 0 .9-.5 1.5-1.2 1.5m3.6 0h-.6c-.7 0-1.2-.6-1.2-1.4 0-.8.6-1.4 1.2-1.4h.6v2.8z"/>
  <path fill="none" d="M136.5 97.8h20.9v7.8h-20.9z"/>
  <path fill="#010101" d="M148.5 100.2c0 .5-.2.7-.7.7-.5 0-.7-.1-.7-.7v-.9c0-.5.2-.6.7-.6.5 0 .7.1.7.6v.9zm.3-1.8c-.2-.1-.6-.2-1-.2s-.8.1-1 .2c-.3.2-.4.4-.4.9v1c0 .4.1.7.4.9.2.1.5.2 1 .2s.8-.1 1-.2c.3-.2.4-.5.4-.9v-1c0-.4-.1-.7-.4-.9"/>
  <path fill="none" d="M136.5 97.8h20.9v7.8h-20.9z"/>
  <path fill="#010101" d="M145.3 100.2c0 .5-.3.7-.5.7h-.8v-2.1h.8c.2 0 .5.1.5.6v.8zm-.5-1.9h-1.5v3h1.6c.8 0 1.1-.3 1.1-1.2v-.7c0-.8-.4-1.1-1.2-1.1"/>
  <path fill="none" d="M136.5 97.8h20.9v7.8h-20.9z"/>
  <path fill="#010101" d="M150.4 98.3h-.7v3h2v-.5h-1.3"/>
  <path fill="none" d="M136.5 97.8h20.9v7.8h-20.9z"/>
  <path fill="#010101" d="M157.3 101c0 .1-.1.2-.2.2s-.2-.1-.2-.2.1-.2.2-.2.2.1.2.2m-.5 0c0 .2.1.3.3.3.2 0 .3-.1.3-.3 0-.2-.1-.3-.3-.3-.2 0-.3.1-.3.3m.2-.1h.1s0 .1-.1.1v-.1zm0 .1l.1.1h.1l-.1-.1s.1 0 .1-.1 0-.1-.1-.1h-.1v.3h.1l-.1-.1z"/>
  <path fill="none" d="M136.5 97.8h20.9v7.8h-20.9z"/>
  <path fill="#010101" d="M153.7 99.7c.5 0 .7-.3.7-.7 0-.3-.1-.5-.3-.6-.1-.1-.3-.1-.6-.1H152v3h1.4c.4 0 .6-.1.7-.1.1-.1.3-.3.3-.7.1-.4 0-.8-.7-.8m-.4 1.2h-.6v-2.1h.7c.2 0 .4.2.4.4 0 .4-.2.4-.7.4v.4c.5 0 .8 0 .8.5 0 .1-.2.4-.6.4"/>
  <path fill="none" d="M136.5 97.8h20.9v7.8h-20.9z"/>
  <path fill="none" d="M136.5 97.8h20.9v7.8h-20.9z"/>
  <path fill="#010101" d="M141.3 104.3c0 .1 0 .1-.1.1l-.1.1h-.8v.6h-.4v-1.9h1c.2 0 .3 0 .4.1.1.1.1.2.1.4v.3c0 .2-.1.2-.1.3m-.3-.6v-.1h-.6v.7h.6v-.6zm1.7 1.4l-.4-.6h-.2v.6h-.4v-1.8h1.2c.1 0 .1.1.1.1l.1.1v.6s0 .1-.1.1l-.1.1h-.3l.5.7-.4.1zm.1-1.3v-.1h-.6v.6h.5c.1 0 .2-.1.2-.2v-.3zm2.2 1.1c0 .1-.1.1-.1.2 0 0-.1.1-.2.1h-.9c-.1 0-.1 0-.2-.1 0 0-.1-.1-.1-.2v-1.4c0-.1.1-.1.1-.1s.1-.1.2-.1h.7c.2 0 .3 0 .4.1.1.1.1.2.1.4v1.1m-.4-1.2v-.1h-.7v1.2h.6v-.1l.1-1zm1.4 1.5v-2h.4v1.7h.8v.3m1.9-.2c0 .1-.1.1-.1.2 0 0-.1.1-.2.1h-.9c-.1 0-.1 0-.2-.1 0 0-.1-.1-.1-.2v-1.4c0-.1.1-.1.1-.1s.1-.1.2-.1h.7c.2 0 .3 0 .4.1.1.1.1.2.1.4v1.1m-.4-1.3v-.1h-.7v1.2h.6v-.1l.1-1zm1.9 1.5v-.1.1c-.1-.1-.2 0-.2 0h-.7c-.1 0-.1 0-.2-.1 0 0-.1-.1-.1-.2v-1.1c0-.1 0-.2.1-.3 0-.1.1-.1.1-.1.1 0 .1 0 .2-.1h.9c.1 0 .1 0 .2.1v.2h-1v1.2h.8v-.4h-.4v-.3h.8v1.1h-.5zm.7-1.9h.4v1.9h-.4zm2.1 1.9h-.7c-.2 0-.3 0-.4-.1-.1-.1-.1-.2-.1-.4v-1.2c0-.1.1-.1.1-.2 0 0 .1-.1.2-.1h.8c.1 0 .1 0 .2.1v.2h-.9v1.2h.9l-.1.5c0-.1 0 0 0 0m1-1.9h.4v1.9h-.4zm.8 0h.4v1.9h-.4z"/>
  <path fill="#010101" d="M157.2 105.1v-2.5h-20.6s-.1 0-.1-.1c0 0 0-.1.1-.1h20.8v2.7s-.1.1-.2 0c.1.1 0 0 0 0"/>
</svg>
