<svg xmlns="http://www.w3.org/2000/svg" xmlns:xlink="http://www.w3.org/1999/xlink" viewBox="880 -1552.8 2371.1 3143.5">
  <defs>
    <path id="a" d="M922.8-54.4c0 631.9 161.2 1091.6 558.3 1441.8 154 135.6 354.9 203.3 582.4 203.3 227.7 0 428.5-67.7 582.4-203.3 397.3-350.2 558.4-809.8 558.4-1441.8 0-1029.1-418.4-1328-1140.9-1328-722.1-.1-1140.6 298.8-1140.6 1328"/>
  </defs>
  <clipPath id="c">
    <use xlink:href="#a" overflow="visible"/>
  </clipPath>
  <radialGradient id="b" cx="1897.1469" cy="-1477.5414" r="54.7558" gradientTransform="matrix(-18.7496 0 0 37.4992 37823.6719 54400.7891)" gradientUnits="userSpaceOnUse">
    <stop offset="0" stop-color="#FFF"/>
    <stop offset=".5749" stop-color="#FEE2D5"/>
    <stop offset="1" stop-color="#FDD3C2"/>
  </radialGradient>
  <path fill="url(#b)" d="M922.8-1382.5h2281.6v2973.2H922.8z" clip-path="url(#c)"/>
  <defs>
    <path id="d" d="M1949.8 12.8c9.2 191.2-5 361.8-19.6 386.1-54.9 91.8-100.2 156.4-85 204.6 23.7 74.9 153.2 154.1 218.4 154.1 65.3 0 194.8-79.2 218.5-154.1 15.1-48.2-30-112.8-85.1-204.6-14.6-24.4-28.8-194.9-19.6-386.1h-227.6z"/>
  </defs>
  <clipPath id="f">
    <use xlink:href="#d" overflow="visible"/>
  </clipPath>
  <radialGradient id="e" cx="1804.817" cy="-1528.3534" r="54.7466" gradientTransform="matrix(4.5572 0 0 9.1144 -6120.5171 14165.3271)" gradientUnits="userSpaceOnUse">
    <stop offset="0" stop-color="#FFF"/>
    <stop offset=".5749" stop-color="#FEE2D5"/>
    <stop offset="1" stop-color="#FDD3C2"/>
  </radialGradient>
  <path fill="url(#e)" d="M1830 12.8h467.2v744.8H1830z" clip-path="url(#f)"/>
  <defs>
    <path id="g" d="M1186.1-194.4l210.6-36.3 531.4 101.9 36.1-175.4L1438.5-450z"/>
  </defs>
  <clipPath id="i">
    <use xlink:href="#g" overflow="visible"/>
  </clipPath>
  <radialGradient id="h" cx="1843.0747" cy="-1515.6445" r="54.7307" gradientTransform="matrix(17.0457 3.4922 -4.0349 19.6954 -35387.6836 22568.584)" gradientUnits="userSpaceOnUse">
    <stop offset="0" stop-color="#9B7052"/>
    <stop offset=".1545" stop-color="#8A5D45"/>
    <stop offset=".4001" stop-color="#734434"/>
    <stop offset=".6304" stop-color="#633428"/>
    <stop offset=".8371" stop-color="#5A2A21"/>
    <stop offset="1" stop-color="#57261E"/>
  </radialGradient>
  <path fill="url(#h)" d="M1217.4-602.9L2027.3-437l-94.6 461.2-809.7-166" clip-path="url(#i)"/>
  <defs>
    <path id="j" d="M2163.1-304.2l36.1 175.4 531.4-101.9 210.7 36.3L2688.7-450z"/>
  </defs>
  <clipPath id="l">
    <use xlink:href="#j" overflow="visible"/>
  </clipPath>
  <radialGradient id="k" cx="1879.985" cy="-1521.6066" r="54.9434" gradientTransform="matrix(-17.1713 3.5179 4.0646 19.8405 40610.8555 22725.9004)" gradientUnits="userSpaceOnUse">
    <stop offset="0" stop-color="#9B7052"/>
    <stop offset=".1545" stop-color="#8A5D45"/>
    <stop offset=".4001" stop-color="#734434"/>
    <stop offset=".6304" stop-color="#633428"/>
    <stop offset=".8371" stop-color="#5A2A21"/>
    <stop offset="1" stop-color="#57261E"/>
  </radialGradient>
  <path fill="url(#k)" d="M2909.9-602.9L2100-437l94.6 461.2 809.8-166" clip-path="url(#l)"/>
  <path fill="none" stroke="#010101" stroke-width="47.1297" d="M1785.3 1015.9h417.4c76.9 0 216.9-74.1 269.2-133.9" stroke-linecap="round" stroke-linejoin="round"/>
  <path fill="none" stroke="#010101" stroke-width="48.0096" d="M2197 398.9c55 91.7 100.2 156.4 85.1 204.6-23.8 74.9-153.3 154.1-218.4 154.1-65.2 0-194.8-79.2-218.4-154.1-15.2-48.2 30-112.9 85-204.6 14.6-24.5 28.9-194.9 19.6-386.1" stroke-linecap="round" stroke-linejoin="round"/>
  <path fill="#FFF" d="M1605.1 272.1c165 0 298.9-133.8 298.9-298.9 0 0-48.4-9.5-91.4-9.5h-415c-42.9 0-91.4 9.5-91.4 9.5.1 165.1 133.9 298.9 298.9 298.9"/>
  <defs>
    <path id="m" d="M1397.6-36.3c-42.9 0-91.5 9.5-91.5 9.5 0 165.1 134 298.9 298.9 298.9 165 0 298.9-133.8 298.9-298.9 0 0-48.4-9.5-91.4-9.5h-414.9z"/>
  </defs>
  <clipPath id="n">
    <use xlink:href="#m" overflow="visible"/>
  </clipPath>
  <path fill="#010101" d="M1765.2-7.7c0 83.1-67.3 150.5-150.5 150.5S1464.1 75.4 1464.1-7.7s67.4-150.6 150.6-150.6c83.2 0 150.5 67.5 150.5 150.6" clip-path="url(#n)"/>
  <defs>
    <path id="o" d="M1397.6-36.3c-42.9 0-91.5 9.5-91.5 9.5 0 165.1 134 298.9 298.9 298.9 165 0 298.9-133.8 298.9-298.9 0 0-48.4-9.5-91.4-9.5h-414.9z"/>
  </defs>
  <clipPath id="p">
    <use xlink:href="#o" overflow="visible"/>
  </clipPath>
  <path fill="none" stroke="#010101" stroke-width="24.1423" d="M1614.7-158.2c83.1 0 150.5 67.4 150.5 150.5s-67.4 150.5-150.5 150.5-150.5-67.4-150.5-150.5c-.1-83.1 67.3-150.5 150.5-150.5z" clip-path="url(#p)" stroke-linecap="round" stroke-linejoin="round"/>
  <path fill="none" stroke="#010101" stroke-width="38.3857" d="M1605.1 272.1c165 0 298.9-133.8 298.9-298.9 0 0-48.4-9.5-91.4-9.5h-415c-42.9 0-91.4 9.5-91.4 9.5.1 165.1 133.9 298.9 298.9 298.9z" stroke-linejoin="round"/>
  <path fill="#FFF" d="M2522.2 272.1c-165 0-298.9-133.8-298.9-298.9 0 0 48.4-9.5 91.5-9.5h415c42.9 0 91.4 9.5 91.4 9.5-.2 165.1-134 298.9-299 298.9"/>
  <defs>
    <path id="q" d="M2314.7-36.3c-43 0-91.5 9.5-91.5 9.5 0 165.1 133.9 298.9 298.9 298.9 165.1 0 298.9-133.8 298.9-298.9 0 0-48.4-9.5-91.3-9.5h-415z"/>
  </defs>
  <clipPath id="r">
    <use xlink:href="#q" overflow="visible"/>
  </clipPath>
  <path fill="#010101" d="M2362.1-7.7c0 83.1 67.3 150.5 150.4 150.5 83.2 0 150.6-67.4 150.6-150.5s-67.4-150.6-150.6-150.6c-83.1.1-150.4 67.5-150.4 150.6" clip-path="url(#r)"/>
  <defs>
    <path id="s" d="M2314.7-36.3c-43 0-91.5 9.5-91.5 9.5 0 165.1 133.9 298.9 298.9 298.9 165.1 0 298.9-133.8 298.9-298.9 0 0-48.4-9.5-91.3-9.5h-415z"/>
  </defs>
  <clipPath id="t">
    <use xlink:href="#s" overflow="visible"/>
  </clipPath>
  <path fill="none" stroke="#010101" stroke-width="24.1423" d="M2512.6-158.2c83.1 0 150.5 67.4 150.5 150.5s-67.4 150.5-150.5 150.5-150.5-67.4-150.5-150.5 67.5-150.5 150.5-150.5z" clip-path="url(#t)" stroke-linecap="round" stroke-linejoin="round"/>
  <path fill="none" stroke="#010101" stroke-width="38.3857" d="M2821-26.8c0 165.1-133.8 308.4-298.9 308.4-165.1 0-299-143.3-299-308.4m-916.8 0c0 165.1 133.8 308.4 298.9 308.4 165 0 298.9-143.3 298.9-308.4m618.1 298.9c-165 0-298.9-133.8-298.9-298.9 0 0 48.4-9.5 91.5-9.5h415c42.9 0 91.4 9.5 91.4 9.5-.2 165.1-134 298.9-299 298.9z" stroke-linejoin="round"/>
  <path fill="#57261E" d="M3245.3 37.9c20.7-10.9-19.3-534.6-70.8-689.3-51.6-154.5-201.1-872.8-1101.9-872.8s-1060 718.3-1111.4 872.8c-51.6 154.6-86.9 666.7-80.4 689.3 6.4 22.6 102.9 32.2 138.3 3.2 28-22.9 29.9-331.5 22.5-599.3 61.7-33.9 370.7-234.9 448-325.1-35.4 45.1-52.7 176.1-63.5 222 628.1 51.5 891.5-125.4 1104.1-328.4 83.6 109.5 425.3 399.2 534.8 408.9-16.2 67.6 26 612.2 42 631.6 16.1 19.3 102.4 6.1 138.3-12.9"/>
  <defs>
    <path id="u" d="M952.2-680C900.7-525.4 874.8-13.3 881.3 9.2c6.5 22.6 83.8 32.2 119.2 3.2 28.1-22.9 29.9-331.5 22.4-599.3 61.7-33.9 389.8-234.9 467.2-325.1-35.5 45.1-47.1 176.4-58 222.3 628.2 51.5 905.1-125.6 1117.7-328.5 83.7 109.5 425.3 399.2 534.8 408.8C3068.5-541.7 3101 2.8 3117 22c4.4 5.2 13.1 8.1 24.2 9.1h21.7c28.4-1.9 62.3-10.9 83-21.9 2.8-1.5 4.4-12.1 5.2-29.8v-51.9c-3.9-155.7-36.7-489.5-76-607.7-51.5-154.3-210.6-872.6-1111.5-872.6-900.8 0-1059.9 718.2-1111.4 872.8"/>
  </defs>
  <clipPath id="w">
    <use xlink:href="#u" overflow="visible"/>
  </clipPath>
  <radialGradient id="v" cx="1879.9999" cy="-1593.2443" r="54.8171" gradientTransform="matrix(27.8629 0 0 13.9315 -50055.8672 20970.7383)" gradientUnits="userSpaceOnUse">
    <stop offset="0" stop-color="#9B7052"/>
    <stop offset=".1545" stop-color="#8A5D45"/>
    <stop offset=".4001" stop-color="#734434"/>
    <stop offset=".6304" stop-color="#633428"/>
    <stop offset=".8371" stop-color="#5A2A21"/>
    <stop offset="1" stop-color="#57261E"/>
  </radialGradient>
  <path fill="url(#v)" d="M874.9-1552.9h2376.3V41.4H874.9z" clip-path="url(#w)"/>
</svg>
