<svg xmlns="http://www.w3.org/2000/svg" xmlns:xlink="http://www.w3.org/1999/xlink" viewBox="880 -1175.5 2371.1 3143.5">
  <defs>
    <path id="a" d="M922.8 322.9c0 631.9 161.2 1091.6 558.3 1441.8 154 135.6 354.9 203.3 582.4 203.3 227.7 0 428.5-67.7 582.4-203.3 397.3-350.2 558.4-809.8 558.4-1441.8 0-1029.1-418.4-1328-1140.9-1328-722.1-.1-1140.6 298.8-1140.6 1328"/>
  </defs>
  <clipPath id="c">
    <use xlink:href="#a" overflow="visible"/>
  </clipPath>
  <radialGradient id="b" cx="3751.0164" cy="2259.9932" r="54.7558" gradientTransform="matrix(-18.7496 0 0 -37.4992 72582.9688 84119.4063)" gradientUnits="userSpaceOnUse">
    <stop offset="0" stop-color="#FFF"/>
    <stop offset=".5749" stop-color="#E9E9E9"/>
    <stop offset="1" stop-color="#DEDEDE"/>
  </radialGradient>
  <path fill="url(#b)" d="M922.8-1005.2h2281.6V1968H922.8z" clip-path="url(#c)"/>
  <defs>
    <path id="d" d="M1949.8 390.1c9.2 191.2-5 361.8-19.6 386.1-54.9 91.8-100.2 156.4-85 204.6 23.7 74.9 153.2 154.1 218.4 154.1 65.3 0 194.8-79.2 218.5-154.1 15.1-48.2-30-112.8-85.1-204.6-14.6-24.4-28.8-194.9-19.6-386.1h-227.6z"/>
  </defs>
  <clipPath id="f">
    <use xlink:href="#d" overflow="visible"/>
  </clipPath>
  <radialGradient id="e" cx="3178.6118" cy="2279.5122" r="54.7466" gradientTransform="matrix(4.5572 0 0 -9.1144 -12381.1895 21388.9883)" gradientUnits="userSpaceOnUse">
    <stop offset="0" stop-color="#FFF"/>
    <stop offset=".5749" stop-color="#E9E9E9"/>
    <stop offset="1" stop-color="#DEDEDE"/>
  </radialGradient>
  <path fill="url(#e)" d="M1830 390.1h467.2v744.8H1830z" clip-path="url(#f)"/>
  <defs>
    <path id="g" d="M1186.1 182.9l210.6-36.3 531.4 101.9 36.1-175.4-525.7-145.8z"/>
  </defs>
  <clipPath id="i">
    <use xlink:href="#g" overflow="visible"/>
  </clipPath>
  <radialGradient id="h" cx="3508.3274" cy="2272.2134" r="54.7307" gradientTransform="matrix(17.0457 3.4922 4.0349 -19.6954 -66825.7734 32031.416)" gradientUnits="userSpaceOnUse">
    <stop offset="0" stop-color="#7A7A7A"/>
    <stop offset=".1545" stop-color="#686868"/>
    <stop offset=".4001" stop-color="#505050"/>
    <stop offset=".6304" stop-color="#414141"/>
    <stop offset=".8371" stop-color="#373737"/>
    <stop offset="1" stop-color="#343434"/>
  </radialGradient>
  <path fill="url(#h)" d="M1217.4-225.6l809.9 165.9-94.6 461.2-809.7-166" clip-path="url(#i)"/>
  <defs>
    <path id="j" d="M2163.1 73.1l36.1 175.4 531.4-101.9 210.7 36.3-252.6-255.6z"/>
  </defs>
  <clipPath id="l">
    <use xlink:href="#j" overflow="visible"/>
  </clipPath>
  <radialGradient id="k" cx="3742.6682" cy="2313.3218" r="54.9434" gradientTransform="matrix(-17.1713 3.5179 -4.0646 -19.8405 75813.5391 32258.4922)" gradientUnits="userSpaceOnUse">
    <stop offset="0" stop-color="#7A7A7A"/>
    <stop offset=".1545" stop-color="#686868"/>
    <stop offset=".4001" stop-color="#505050"/>
    <stop offset=".6304" stop-color="#414141"/>
    <stop offset=".8371" stop-color="#373737"/>
    <stop offset="1" stop-color="#343434"/>
  </radialGradient>
  <path fill="url(#k)" d="M2909.9-225.6L2100-59.7l94.6 461.2 809.8-166" clip-path="url(#l)"/>
  <path fill="none" stroke="#010101" stroke-width="47.1297" d="M1785.3 1393.2h417.4c76.9 0 216.9-74.1 269.2-133.9" stroke-linecap="round" stroke-linejoin="round"/>
  <path fill="none" stroke="#010101" stroke-width="48.0096" d="M2197 776.2c55 91.7 100.2 156.4 85.1 204.6-23.8 74.9-153.3 154.1-218.4 154.1-65.2 0-194.8-79.2-218.4-154.1-15.2-48.2 30-112.9 85-204.6 14.6-24.5 28.9-194.9 19.6-386.1" stroke-linecap="round" stroke-linejoin="round"/>
  <path fill="#FFF" d="M1605.1 649.4c165 0 298.9-133.8 298.9-298.9 0 0-48.4-9.5-91.4-9.5h-415c-42.9 0-91.4 9.5-91.4 9.5.1 165.1 133.9 298.9 298.9 298.9"/>
  <defs>
    <path id="m" d="M1397.6 341c-42.9 0-91.5 9.5-91.5 9.5 0 165.1 134 298.9 298.9 298.9 165 0 298.9-133.8 298.9-298.9 0 0-48.4-9.5-91.4-9.5h-414.9z"/>
  </defs>
  <clipPath id="n">
    <use xlink:href="#m" overflow="visible"/>
  </clipPath>
  <path fill="#010101" d="M1765.2 369.6c0 83.1-67.3 150.5-150.5 150.5s-150.6-67.4-150.6-150.5S1531.5 219 1614.7 219c83.2 0 150.5 67.5 150.5 150.6" clip-path="url(#n)"/>
  <defs>
    <path id="o" d="M1397.6 341c-42.9 0-91.5 9.5-91.5 9.5 0 165.1 134 298.9 298.9 298.9 165 0 298.9-133.8 298.9-298.9 0 0-48.4-9.5-91.4-9.5h-414.9z"/>
  </defs>
  <clipPath id="p">
    <use xlink:href="#o" overflow="visible"/>
  </clipPath>
  <path fill="none" stroke="#010101" stroke-width="24.1423" d="M1614.7 219.1c83.1 0 150.5 67.4 150.5 150.5s-67.4 150.5-150.5 150.5-150.5-67.4-150.5-150.5c-.1-83.1 67.3-150.5 150.5-150.5z" clip-path="url(#p)" stroke-linecap="round" stroke-linejoin="round"/>
  <path fill="none" stroke="#010101" stroke-width="38.3857" d="M1605.1 649.4c165 0 298.9-133.8 298.9-298.9 0 0-48.4-9.5-91.4-9.5h-415c-42.9 0-91.4 9.5-91.4 9.5.1 165.1 133.9 298.9 298.9 298.9z" stroke-linejoin="round"/>
  <path fill="#FFF" d="M2522.2 649.4c-165 0-298.9-133.8-298.9-298.9 0 0 48.4-9.5 91.5-9.5h415c42.9 0 91.4 9.5 91.4 9.5-.2 165.1-134 298.9-299 298.9"/>
  <defs>
    <path id="q" d="M2314.7 341c-43 0-91.5 9.5-91.5 9.5 0 165.1 133.9 298.9 298.9 298.9 165.1 0 298.9-133.8 298.9-298.9 0 0-48.4-9.5-91.3-9.5h-415z"/>
  </defs>
  <clipPath id="r">
    <use xlink:href="#q" overflow="visible"/>
  </clipPath>
  <path fill="#010101" d="M2362.1 369.6c0 83.1 67.3 150.5 150.4 150.5 83.2 0 150.6-67.4 150.6-150.5S2595.7 219 2512.5 219c-83.1.1-150.4 67.5-150.4 150.6" clip-path="url(#r)"/>
  <defs>
    <path id="s" d="M2314.7 341c-43 0-91.5 9.5-91.5 9.5 0 165.1 133.9 298.9 298.9 298.9 165.1 0 298.9-133.8 298.9-298.9 0 0-48.4-9.5-91.3-9.5h-415z"/>
  </defs>
  <clipPath id="t">
    <use xlink:href="#s" overflow="visible"/>
  </clipPath>
  <path fill="none" stroke="#010101" stroke-width="24.1423" d="M2512.6 219.1c83.1 0 150.5 67.4 150.5 150.5s-67.4 150.5-150.5 150.5-150.5-67.4-150.5-150.5 67.5-150.5 150.5-150.5z" clip-path="url(#t)" stroke-linecap="round" stroke-linejoin="round"/>
  <path fill="none" stroke="#010101" stroke-width="38.3857" d="M2821 350.5c0 165.1-133.8 308.4-298.9 308.4-165.1 0-299-143.3-299-308.4m-916.8 0c0 165.1 133.8 308.4 298.9 308.4 165 0 298.9-143.3 298.9-308.4m618.1 298.9c-165 0-298.9-133.8-298.9-298.9 0 0 48.4-9.5 91.5-9.5h415c42.9 0 91.4 9.5 91.4 9.5-.2 165.1-134 298.9-299 298.9z" stroke-linejoin="round"/>
  <path fill="#343434" d="M3245.3 415.2c20.7-10.9-19.3-534.6-70.8-689.3-51.6-154.5-201.1-872.8-1101.9-872.8s-1060 718.3-1111.4 872.8c-51.6 154.6-86.9 666.7-80.4 689.3 6.4 22.6 102.9 32.2 138.3 3.2 28-22.9 29.9-331.5 22.5-599.3 61.7-33.9 370.7-234.9 448-325.1-35.4 45.1-52.7 176.1-63.5 222 628.1 51.5 891.5-125.4 1104.1-328.4 83.6 109.5 425.3 399.2 534.8 408.9-16.2 67.6 26 612.2 42 631.6 16.1 19.3 102.4 6.1 138.3-12.9"/>
  <defs>
    <path id="u" d="M952.2-302.7c-51.5 154.6-77.4 666.7-70.9 689.2 6.5 22.6 83.8 32.2 119.2 3.2 28.1-22.9 29.9-331.5 22.4-599.3 61.7-33.9 389.8-234.9 467.2-325.1-35.5 45.1-47.1 176.4-58 222.3 628.2 51.5 905.1-125.6 1117.7-328.5 83.7 109.5 425.3 399.2 534.8 408.8-16.1 67.7 16.4 612.2 32.4 631.4 4.4 5.2 13.1 8.1 24.2 9.1h21.7c28.4-1.9 62.3-10.9 83-21.9 2.8-1.5 4.4-12.1 5.2-29.8v-51.9c-3.9-155.7-36.7-489.5-76-607.7-51.5-154.3-210.6-872.6-1111.5-872.6-900.8 0-1059.9 718.2-1111.4 872.8"/>
  </defs>
  <clipPath id="w">
    <use xlink:href="#u" overflow="visible"/>
  </clipPath>
  <radialGradient id="v" cx="3576.833" cy="2358.6978" r="54.8171" gradientTransform="matrix(27.8629 0 0 -13.9315 -97334.5703 32011.9531)" gradientUnits="userSpaceOnUse">
    <stop offset="0" stop-color="#7A7A7A"/>
    <stop offset=".1545" stop-color="#686868"/>
    <stop offset=".4001" stop-color="#505050"/>
    <stop offset=".6304" stop-color="#414141"/>
    <stop offset=".8371" stop-color="#373737"/>
    <stop offset="1" stop-color="#343434"/>
  </radialGradient>
  <path fill="url(#v)" d="M874.9-1175.6h2376.3V418.7H874.9z" clip-path="url(#w)"/>
</svg>
