<svg xmlns="http://www.w3.org/2000/svg" viewBox="143.7 37 400.00001 319.95514">
  <path d="M162.31581 37.903518c-.4444.4444-1.28876.84436-1.86648.84436-.93324 0-2.4442.57772-4.71064 1.86649l-1.3332.6666c-1.111.48884-4.13292 2.93304-5.555 4.53288-1.73316 1.95536-3.86628 5.95496-4.57732 8.62136-.79992 3.15524-.75548 284.060552.0889 286.949152.53328 1.91092 1.37764 3.82184 2.71084 6.2216 1.95536 3.46632 7.51036 7.42149 12.221 8.75469 3.02192.79992 345.96549.79992 348.85409-.0444 3.64408-1.02212 5.91052-2.31088 8.71024-4.88841 2.57752-2.31088 3.9996-4.48844 5.28836-8.04364l1.11101-3.02192V199.04305c0-128.876042-.0444-141.541442-.71104-143.807882-1.51097-5.24392-3.73297-9.42128-6.53269-12.26544-1.59984-1.59984-5.9994-4.22181-7.1104-4.22181-.39996 0-1.15544-.39996-1.64428-.8888-.8888-.8888-1.46652-.8888-172.51612-.84436-168.60541.0444-171.67177.0444-172.42725.8888zm344.72117 4.44401c5.95496 2.08868 9.19908 5.95496 11.50996 13.68752.6666 2.13312.71104 15.28736.71104 142.919082 0 139.36387 0 140.51931-.8888 143.09683-.84436 2.48864-2.53308 5.19948-3.9996 6.31048-2.31088 1.86648-4.2218 2.97748-6.8882 3.91072l-3.02192 1.111H333.94314c-155.7178 0-170.73853-.0444-172.91609-.71104-3.86628-1.15544-5.3328-2.04424-8.13252-4.8884-2.84416-2.79972-3.73296-4.26624-4.8884-8.13252-.6666-2.17756-.71104-14.70964-.71104-141.71919 0-127.765042.0444-139.541642.71104-141.808082 2.222-7.51036 6.53268-11.59884 14.62076-13.86528 2.48864-.71104 14.62077-.75548 172.20505-.79992l169.58308-.0444 2.62196.93324z"/>
  <path d="M207.2891 62.567728c-4.84396.84436-6.84376 1.46652-11.7766 3.82184-2.4442 1.15544-3.02192 1.5554-6.8882 4.39956-3.64408 2.75528-5.42168 4.53288-8.53248 8.62137-1.95536 2.57752-6.13272 10.62116-6.13272 11.82104 0 .31108-.26664 1.37764-.62216 2.39976-.35552.97768-.8888 3.82184-1.19988 6.31048-1.19988 9.999002 1.37764 20.131332 7.51036 29.374852 4.8884 7.42148 14.79852 14.35412 23.86428 16.70944 9.99901 2.57752 20.26465 1.59984 29.77481-2.93304 3.37744-1.59984 7.95476-4.84396 11.06556-7.82144 2.08868-1.9998 6.93265-8.13252 6.93265-8.79912 0-.17776.26664-.6666.57772-1.02212.84436-.97768 3.19968-6.84376 4.04404-10.04345.39996-1.46652.8888-4.48844 1.111-6.666.39996-3.51076.35552-4.08848-.31108-4.57732-.53328-.39996-5.3328-.53328-20.48685-.53328-10.8878 0-20.08688.17776-20.39796.35552-.39996.31108-.53328 1.95536-.4444 6.79932l.13332 6.39936 12.6654.2222c14.443.26664 13.68752-.0444 10.93224 4.13293-2.93304 4.39956-8.71024 9.06576-13.59864 10.8878-.84436.31108-3.5552 1.02212-5.95496 1.51096-4.57732.97768-6.71044.8888-12.48765-.48884-9.86568-2.35532-18.84256-11.3322-21.15344-21.15345-1.5554-6.666-1.5554-8.48804-.0444-15.554002 1.24432-5.64388 6.39936-12.8876 11.90992-16.62056 2.26644-1.55541 7.51036-4.04405 8.53248-4.04405.39996 0 1.73316-.31108 2.93305-.6666 1.19988-.35552 3.59964-.6666 5.37724-.6666 1.7776 0 4.17736.31108 5.37724.6666 1.19988.35552 2.53308.6666 2.93304.6666 1.3332 0 6.666 2.71084 9.24352 4.66621 1.3332 1.02212 3.28856 2.79972 4.31068 3.91072 1.06656 1.111 2.26644 2.26644 2.75528 2.53308.48884.2222 3.64408.4444 7.15484.4444 7.15485 0 7.37705-.13332 5.77721-3.19968-2.62196-5.06616-7.37705-10.57673-12.22101-14.22081-2.75528-2.04424-10.71004-6.13272-11.9988-6.13272-.39996 0-1.111-.2222-1.59984-.48884-1.3332-.71104-9.06576-1.73316-12.57652-1.68872-1.73316.0444-4.6662.35552-6.48825.6666zm84.43603 16.48724c-5.99941 9.02133-10.97669 16.53169-11.11001 16.79833-.13332.2222-4.62176 7.021522-9.999 15.109602-5.37724 8.04365-9.86568 14.84297-9.95456 15.10961-.0889.2222-.75548 1.15544-1.42208 2.04424-.71104.8888-1.28876 1.73316-1.28876 1.86648 0 .0889-1.9998 3.15524-4.39956 6.79932-2.4442 3.64408-4.31068 6.75488-4.2218 6.93264.13332.17776 3.7774.35552 8.17696.35552h7.91032l3.51076-5.24392c1.91092-2.84416 3.5552-5.42168 3.68852-5.64388.48884-.97768 2.8886-4.53288 3.73296-5.46612.84436-.97768.97768-.97768 13.10981-.97768 6.75488 0 12.48764.17776 12.75428.35552.35552.2222.48884 2.84416.4444 8.2214-.0444 4.35512.0444 8.13252.2222 8.35472.13332.26664 3.02192.35552 6.8882.31108l6.62156-.13332V62.967688l-6.8882-.13332-6.8882-.0889-10.8878 16.30948zm10.93224 21.597852c-.0444 8.57692-.17776 10.97668-.6666 11.59884-.53328.62216-1.51096.71104-7.5548.62216-6.26604-.13332-6.93264-.2222-7.06596-.93324-.0889-.48884 2.57752-4.8884 6.4438-10.6656 3.59964-5.421682 6.71044-10.221202 6.8882-10.621162.17776-.4444.71104-.79992 1.15544-.79992.75548 0 .79992.57772.79992 10.798922zm60.30509-20.709042c-6.31048 9.51016-11.50996 17.37604-11.59884 17.5538-.0889.13332-6.97708 10.576722-15.37624 23.197692-8.39916 12.57652-15.15405 23.01992-15.02073 23.15324.13332.13332 3.86628.2222 8.26585.2222h8.04364l4.48844-6.79932c2.48864-3.68852 9.46572-14.26524 15.554-23.41989 6.08828-9.15464 11.15445-16.842762 11.24333-17.109402.0889-.2222.75548-1.15544 1.42208-2.04424.71104-.8888 1.28876-1.7776 1.28876-1.91092 0-.62216 1.9998-2.93304 2.53308-2.93304.4444 0 .57772 5.15504.6666 26.975082l.13332 27.01953 6.8882.13332 6.8882.0889 7.3326-10.97668c4.04404-6.04384 7.42148-11.19888 7.5548-11.46552.13332-.2222 4.62177-7.02153 9.99901-15.10961 5.37724-8.043642 9.86568-14.842962 9.95456-15.109602.26664-.71104 1.86648-2.13312 2.08868-1.86648.13332.13332.26664 12.398762.31108 27.241722l.0889 27.06397 6.79932.13332 6.75488.13332V62.745508h-13.68752l-7.73256 11.64328c-4.26624 6.44381-8.53248 12.84317-9.51016 14.26525-.93324 1.42208-1.95536 2.93304-2.17756 3.333-1.91093 3.24412-16.79833 25.241922-17.10941 25.330802-.26664.0889-.48884-10.39896-.53328-27.108402l-.13332-27.24173-6.97708-.13332-6.97708-.13332-11.46553 17.24273zm88.08011-16.66501c-.13332.31108-.17776 18.57593-.13332 40.573732l.13332 39.99601h41.77361l.13332-5.7772c.0444-3.19968 0-6.2216-.13332-6.79932l-.2222-.97768h-13.73197c-12.08768 0-13.7764-.0889-13.9986-.71104-.13332-.39996-.26664-4.35512-.26664-8.84356 0-4.48845.13332-8.44361.26664-8.84357.2222-.62216 1.86648-.71104 13.73196-.71104 10.93225 0 13.55421-.13332 13.95417-.62216.35552-.39996.48884-2.62196.39996-6.75488l-.13332-6.177162-13.99861-.2222-13.9986-.2222-.13332-9.3324c-.0444-5.15504 0-9.77681.13332-10.35453l.2222-.97768h27.55281l.2222-1.02212c.13332-.53328.17776-3.59964.13332-6.75488l-.13332-5.7772-20.79793-.13332c-16.39836-.0889-20.84236 0-20.97568.4444zM321.72213 158.24708c-5.82164 1.73316-9.64348 4.97728-12.08768 10.17676-.97768 2.08868-1.111 3.02192-1.111 6.93264 0 4.2218.13332 4.79952 1.46652 7.51036.79992 1.64428 2.48864 4.17736 3.82184 5.59944 1.28876 1.46652 2.35532 2.79972 2.35532 3.02192 0 .17776-1.15544 1.15544-2.48864 2.13312-7.19928 5.11061-11.73216 13.33201-11.73216 21.15345 0 3.15524 1.3332 8.39916 2.93304 11.73216 1.95536 3.9996 6.666 8.62136 10.84336 10.53229 7.51036 3.46632 16.66501 3.28856 24.35313-.48884 2.57752-1.24433 6.666-5.33281 9.06576-8.97689 1.24432-1.91092 2.57752-3.51076 2.8886-3.51076.53328 0 2.35532 1.5554 9.24352 8.04364 4.79953 4.53289 6.17717 5.73277 6.53269 5.73277.4444 0 .93324-.48884 4.8884-4.75509 3.333-3.64408 3.68852-4.35512 2.62196-5.1106-.71104-.53328-4.53288-4.04404-14.57633-13.42088-3.02192-2.84416-3.24412-3.19968-2.97748-4.444.13332-.75548.4444-1.59984.62216-1.82204.17776-.26664 1.19988-2.4442 2.222-4.84396s2.04424-4.71064 2.222-5.1106c.57772-1.111 2.84417-6.17717 3.99961-9.06577.93324-2.222.97768-2.6664.4444-2.97748-.71104-.48884-10.31009-.57772-11.86549-.17776-.71104.17776-1.46652 1.37764-2.84416 4.53288-4.6662 10.75449-4.53288 10.48785-5.42168 10.66561-.39996.0889-2.13312-1.19988-3.95516-2.93304-1.7776-1.68873-3.91072-3.64409-4.75508-4.39957l-1.51096-1.3332 2.93304-3.15524c1.59984-1.7776 3.24412-3.86628 3.64408-4.62176 1.46652-2.8886 2.4442-6.71044 2.4442-9.64348 0-11.68772-12.48764-20.44241-24.21981-16.97608zm10.35453 14.08748c.75548.8888 1.42208 2.08868 1.42208 2.62196 0 1.37764-.8888 3.82184-1.82204 5.02172-1.02212 1.3332-3.91072 3.64408-4.57732 3.64408-.84436 0-4.66621-3.91072-5.59945-5.7772-1.24432-2.39976-1.111-3.68852.4444-5.51056 1.59984-1.7776 2.35532-2.04424 5.99941-1.82204 2.4442.13332 2.79972.31108 4.13292 1.82204zm-3.46632 29.59705c1.111 1.02212 3.1108 2.8886 4.444 4.08848 1.3332 1.24432 3.95516 3.64408 5.73276 5.3328l3.28856 3.06636-.6666 1.37764c-.39996.75548-.84436 1.68872-.97768 2.04424-.53328 1.42208-3.5552 5.59944-4.71064 6.57712-2.17756 1.82204-3.95516 2.31088-8.39916 2.31088-4.84397 0-6.79933-.62216-9.11021-2.97748-2.6664-2.6664-3.15524-3.9996-3.15524-8.79912 0-4.04404.13332-4.62176 1.15544-6.2216.6666-.97768 1.86648-2.39976 2.6664-3.15524 1.73316-1.59984 7.02152-5.51056 7.46593-5.51056.13332 0 1.15544.84436 2.26644 1.86648zm67.77101 45.68433c-9.19908 1.9998-15.64288 5.51056-21.9978 11.95436-3.7774 3.82184-7.37704 9.1102-9.06577 13.37644-.4444 1.111-1.02212 2.48865-1.24432 3.11081-1.111 2.75528-2.13312 9.28796-2.13312 13.64308 0 11.3322 4.93285 22.75328 13.28757 30.70805 2.75528 2.62196 8.48804 6.57712 11.59884 7.95476 6.31048 2.84416 10.48784 3.68852 17.95377 3.68852 7.95476-.0444 12.04324-.97768 18.70924-4.31068 6.62156-3.37744 12.4432-8.39916 16.35392-14.22081 1.15544-1.73316 2.08868-3.37744 2.08868-3.64408 0-.57772.6666-.53328-8.35472-.48884l-7.28816.0444-2.79972 2.31088c-14.13192 11.64329-34.97429 8.13253-44.04005-7.46592-3.59964-6.17716-5.02172-14.2208-3.51076-19.90912.35552-1.42208.6666-2.84416.6666-3.19968 0-1.24432 2.79972-6.66601 4.71064-9.15465 2.4442-3.15524 5.46612-5.86608 8.62136-7.68812 3.28856-1.86648 4.79952-2.39976 9.7768-3.46632 3.68852-.79992 4.62176-.8888 7.33261-.4444 5.19948.84436 6.53268 1.19988 9.5546 2.71084 4.26624 2.13312 4.6662 2.35532 7.1104 4.62176l2.26644 2.08868h7.73256c4.6662 0 7.82144-.17776 7.9992-.4444.75548-1.24432-6.97708-10.35452-12.08768-14.2208-2.62196-1.95536-8.26584-4.97728-11.68772-6.17716-6.35492-2.26644-15.06517-2.79972-21.55341-1.37764zm-223.44437 2.08868c-.17776.13332-.31108 18.4426-.31108 40.66261v40.35153h14.13192l1.59984-2.222c.8888-1.24432 1.59984-2.35532 1.59984-2.48864 0-.13332.57772-1.02212 1.28876-1.91092.6666-.8888 1.3332-1.82204 1.42208-2.04424.0889-.26664 3.9996-6.13272 8.62136-13.10981 4.6662-6.97708 8.53249-12.8876 8.62137-13.1098.0889-.26664.75548-1.15544 1.42208-2.04424.71104-.8888 1.28876-1.7776 1.28876-1.95536 0-.17776.57772-1.06656 1.3332-1.9998.71104-.93324 1.3332-1.7776 1.3332-1.91092 0-.53328 7.42148-11.19888 7.82144-11.19888.2222 0 .48884 10.84336.62216 26.8862l.2222 26.88621h14.2208l4.57732-6.84376c2.48864-3.7774 4.53288-6.93264 4.53288-7.06596 0-.0889.57773-.93324 1.28877-1.82204.6666-.88881 1.3332-1.82205 1.42208-2.04425.0889-.26664 5.19948-7.95476 11.28776-17.1094 6.13272-9.15464 11.19888-16.8872 11.28776-17.1094.0889-.26664.71104-1.15544 1.37764-1.9998s1.28876-1.77761 1.37764-1.99981c.0889-.26664 3.73296-5.7772 8.08808-12.30988 4.35513-6.53268 7.82145-12.08768 7.64369-12.35432-.31108-.48884-14.30969-.62216-15.55401-.17776-.57772.2222-16.8872 24.2198-17.50936 25.73077-.0889.2222-.75548 1.15544-1.42208 2.04424-.71104.8888-1.28876 1.7776-1.28876 1.95536 0 .17776-.57772 1.06656-1.3332 1.9998-.71104.93324-1.3332 1.7776-1.3332 1.86648 0 .53328-13.86529 21.02012-14.13193 20.93124-.17776-.0889-.39996-12.39876-.53328-27.3306l-.2222-27.24173-6.71044-.13332-6.71044-.13332-1.86648 2.4442c-.97768 1.3332-1.82204 2.57752-1.82204 2.75528 0 .13332-.57772 1.02212-1.28876 1.91092-.6666.8888-1.3332 1.7776-1.42208 2.04424-.0889.2222-4.57732 7.02152-9.95457 15.1096-5.37724 8.04365-9.86568 14.84297-9.95456 15.10961-.0889.2222-.75548 1.15544-1.42208 2.04424-.71104.8888-1.28876 1.7776-1.28876 1.95536 0 .17776-.57772 1.06656-1.3332 1.9998-.71104.93324-1.3332 1.7776-1.3332 1.91092 0 .13332-.84436 1.51096-1.91092 3.06636s-2.04424 3.15524-2.222 3.5552c-.13332.4444-.57772.79992-.97768.79992-.57772 0-.6666-3.02192-.6666-26.79732 0-20.26465-.13332-26.93065-.53328-27.33061-.57772-.57772-12.84316-.79992-13.37644-.2222zm127.14287.93324c-.97768 1.15544-14.93185 21.86448-15.46513 22.97548-.13332.26664-7.59924 11.55441-16.665 25.10861-9.02132 13.5542-16.53168 24.84197-16.62056 25.06417-.0889.17776-1.02212 1.64428-2.08868 3.19968-1.06656 1.5554-1.95537 3.06636-1.95537 3.28856 0 .26664 3.02193.4444 7.95477.4444h7.95476l1.28876-1.64428c.71104-.93324 3.24412-4.71064 5.68832-8.35472 2.4442-3.68852 4.62176-6.79933 4.8884-6.97709.53328-.39996 23.81985-.48884 24.84197-.0889.62216.2222.71104 1.42209.71104 8.66581v8.35472l6.31048.13332c3.68852.0889 6.53268-.0444 6.8882-.31108.48884-.35552.57772-7.24372.48884-40.66261l-.13332-40.21821-6.48824-.13332-6.53268-.13332-1.06656 1.28876zm.4444 37.46293l-.13332 11.28776-7.95476.13332c-6.84377.0889-7.91033 0-7.68813-.53328.17776-.39996 2.84417-4.53288 5.95497-9.24352 3.1108-4.71064 5.7772-8.79912 5.91052-9.02132.75548-1.5554 3.333-4.62176 3.64408-4.31068.2222.2222.31108 5.46612.26664 11.68772zm19.64248-37.86289c-.2222.48884-.4444 3.28856-.4444 6.26604 0 2.97748.2222 5.7772.4444 6.26604.4444.79992 1.02212.84436 7.46593.84436 4.8884 0 7.19928.17776 7.5548.53328.39996.39996.53328 8.4436.53328 33.55221v33.01893l1.02212.0444c5.555.13332 12.48764-.0444 12.79872-.35552.2222-.2222.4444-15.28736.48884-33.46333l.13332-33.10781 7.06596-.13332c4.31068-.0444 7.3326-.31108 7.68812-.57772.4444-.39996.57773-2.13312.57773-6.84376 0-5.37724-.0889-6.39936-.71105-6.62156-.39996-.13332-10.48784-.26664-22.39776-.26664-21.06457 0-21.77561.0444-22.22001.84436zm126.07632-.53328c-.17776.13332-.31108 18.4426-.31108 40.66261v40.35153h1.02212c7.28816.13332 12.35432.0444 12.75428-.2222.31108-.17776.4444-5.42168.4444-16.97609-.0444-13.24312.0889-16.79832.53328-17.06496.97768-.62216 23.19769-.48884 23.81985.13332.39996.39996.53328 4.84396.53328 17.3316v16.79833l1.02212.0444c4.75508.0889 12.39876-.0444 12.75428-.26664.71104-.4444.62216-79.8587-.0889-80.56974-.57772-.57772-11.64328-.79992-12.97648-.26664-.62216.2222-.71104 2.04424-.71104 15.90952 0 8.57692-.17776 15.86509-.39996 16.17617-.26664.4444-2.93305.57772-12.26545.57772-6.53268 0-11.95436-.0889-12.08768-.17776-.0889-.13332-.17776-7.15485-.13332-15.59845 0-10.04344-.13332-15.68732-.4444-16.26504-.4444-.79992-.97768-.8888-6.84376-.8888-3.46632 0-6.48824.13332-6.62156.31108zm78.65882 95.99042c-.62216.57772-.26664 1.02212 1.15544 1.37764l1.42208.35552.2222 3.64408c.2222 3.55521.8888 5.15505 1.7776 4.26625.2222-.2222.4444-2.08869.53328-4.17737.13332-3.37744.2222-3.7774 1.02212-3.91072 1.15544-.2222 2.04424-.97768 1.73316-1.46652-.26664-.4444-7.42148-.53328-7.86588-.0889zm9.42128-.13332c-.48884.48884.0444 9.33241.57772 9.68793.79992.4444 1.3332-.2222 1.64428-2.13313.31108-1.82204 1.06656-2.13312 1.28876-.53328.26664 2.39977.57772 3.02193 1.37764 3.02193.93324 0 1.37764-.84436 1.37764-2.66641 0-1.73316.79992-2.13312 1.15544-.57772.53328 2.44421.71104 2.79973 1.3332 2.79973.48884 0 .62216-.93324.62216-4.88841v-4.8884h-1.3332c-1.42208 0-1.64428.4444-1.86648 3.51076-.2222 2.93304-2.17756 2.04424-2.53308-1.15544-.26664-2.08868-.31108-2.13312-1.82204-2.26644-.8888-.0889-1.68872-.0444-1.82204.0889z"/>
</svg>
