<?xml version="1.0" encoding="UTF-8" standalone="no"?>
<svg
   xmlns:dc="http://purl.org/dc/elements/1.1/"
   xmlns:cc="http://creativecommons.org/ns#"
   xmlns:rdf="http://www.w3.org/1999/02/22-rdf-syntax-ns#"
   xmlns:svg="http://www.w3.org/2000/svg"
   xmlns="http://www.w3.org/2000/svg"
   viewBox="0 0 360 362.37625"
   height="362.37625"
   width="360"
   xml:space="preserve"
   version="1.1"
   id="svg2"><metadata
     id="metadata8"><rdf:RDF><cc:Work
         rdf:about=""><dc:format>image/svg+xml</dc:format><dc:type
           rdf:resource="http://purl.org/dc/dcmitype/StillImage" /><dc:title></dc:title></cc:Work></rdf:RDF></metadata><defs
     id="defs6"><clipPath
       id="clipPath16"
       clipPathUnits="userSpaceOnUse"><path
         id="path18"
         d="m 0,289.901 288,0 L 288,0 0,0 0,289.901 Z" /></clipPath></defs><g
     transform="matrix(1.25,0,0,-1.25,0,362.37625)"
     id="g10"><g
       id="g12"><g
         clip-path="url(#clipPath16)"
         id="g14"><g
           transform="translate(223.1445,285.9014)"
           id="g20"><path
             id="path22"
             style="fill:#ed1f24;fill-opacity:1;fill-rule:nonzero;stroke:none"
             d="m 0,0 -158.289,0 c -1.104,0 -2,0.896 -2,2 0,1.104 0.896,2 2,2 L 0,4 C 1.104,4 2,3.104 2,2 2,0.896 1.104,0 0,0" /></g><g
           transform="translate(44.5,8.7354)"
           id="g24"><path
             id="path26"
             style="fill:#206633;fill-opacity:1;fill-rule:nonzero;stroke:none"
             d="m 0,0 0,-5.871 c 0,-1.584 -0.918,-2.864 -2.5,-2.864 -1.582,0 -2.5,1.28 -2.5,2.864 L -5,0 c 0,1.583 0.918,2.864 2.5,2.864 C -0.918,2.864 0,1.583 0,0" /></g><g
           transform="translate(285,4.8789)"
           id="g28"><path
             id="path30"
             style="fill:#d3d2d2;fill-opacity:1;fill-rule:nonzero;stroke:none"
             d="m 0,0 c 1.65,0.013 3,1.372 3,3.022 l 0,260.5 c 0,11 -9,20 -20,20 l -248,0 c -11,0 -20,-9 -20,-20 l 0,-260.5 c 0,-1.65 1.35,-3 3,-3 l 13.5,0 c 1.65,0 4.191,0.635 5.648,1.41 l 118.703,63.181 c 1.457,0.775 3.854,0.802 5.328,0.06 L -12.93,1.274 c 1.474,-0.742 4.03,-1.339 5.68,-1.327 L 0,0 Z" /></g><g
           transform="translate(280,268.5567)"
           id="g32"><path
             id="path34"
             style="fill:#e9e9e9;fill-opacity:1;fill-rule:nonzero;stroke:none"
             d="m 0,0 c 0,6.6 -5.3,11.845 -11.899,11.845 l -248.202,0 C -266.701,11.845 -272,6.6 -272,0 l -0.1,-262.53 c -10e-4,-1.1 0.899,-2 1.999,-2 l 21.035,0 c 1.1,0 2,0.9 2,2 l 0,1.945 c 0,1.1 0.9,2 2,2 l 8.238,0 c 1.101,0 2,-0.9 2,-2 l 0,-1.945 c 0,-1.1 0.9,-2 2,-2 l 14.782,0 c 1.101,0 2.767,0.47 3.704,1.047 l 76.138,46.781 c 0.937,0.576 2.474,0.58 3.414,0.01 l 77.126,-46.801 c 0.94,-0.571 2.609,-1.037 3.71,-1.037 l 14.881,0 c 1.1,0 2,0.9 2,2 l 0,1.945 c 0,1.1 0.899,2 2,2 l 8.239,0 c 1.1,0 2,-0.9 2,-2 l 0,-1.945 c 0,-1.1 0.9,-2 2,-2 l 20.935,0 c 1.099,0 2,0.9 2,2 L 0,0 Z" /></g><g
           transform="translate(223,2.9014)"
           id="g36"><path
             id="path38"
             style="fill:#deddde;fill-opacity:1;fill-rule:nonzero;stroke:none"
             d="m 0,0 c 1.1,0 2,0.9 2,2 l 0,180.343 c 0,44.888 -36.111,81.329 -81,81.329 -44.889,0 -81,-36.338 -81,-81.227 L -160,2 c 0,-1.1 0.9,-2 2,-2 l 16.5,0 c 1.1,0 2,0.9 2,2 l 0,0.459 c 0,1.1 0.9,2 2,2 l 23.012,0 c 1.099,0 2.853,0.284 3.897,0.632 l 29.193,9.72 c 1.043,0.347 2.748,0.337 3.787,-0.024 L -48.39,4.655 C -47.351,4.295 -45.6,4 -44.5,4 l 24,0 c 1.1,0 2,-0.9 2,-2 0,-1.1 0.9,-2 2,-2 L 0,0 Z" /></g><g
           transform="translate(38.4853,208.9014)"
           id="g40"><path
             id="path42"
             style="fill:#d3d2d2;fill-opacity:1;fill-rule:nonzero;stroke:none"
             d="m 0,0 c 3.506,0 6.015,-2.445 6.015,-5.951 l 0,-50.74 c 0,-3.506 -2.494,-6.348 -6,-6.348 -3.506,0 -6,2.842 -6,6.348 l 0,43.691 -24.601,0 -5.565,6.219 L -30.586,0 0,0 Z" /></g><g
           transform="translate(249.6816,208.9014)"
           id="g44"><path
             id="path46"
             style="fill:#d3d2d2;fill-opacity:1;fill-rule:nonzero;stroke:none"
             d="m 0,0 c -3.506,0 -6.182,-2.445 -6.182,-5.951 l 0,-50.74 c 0,-3.506 2.994,-6.348 6.5,-6.348 3.506,0 6.5,2.842 6.5,6.348 l 0,43.691 23.768,0 5.566,6.219 L 30.586,0 0,0 Z" /></g><g
           transform="translate(45.5,4.9014)"
           id="g48"><path
             id="path50"
             style="fill:#d3d2d2;fill-opacity:1;fill-rule:nonzero;stroke:none"
             d="m 0,0 0,23.372 c 0,3.506 -2.994,6.348 -6.5,6.348 -3.506,0 -6.5,-2.842 -6.5,-6.348 L -13,0" /></g><g
           transform="translate(53.5,8.9014)"
           id="g52"><path
             id="path54"
             style="fill:#d3d2d2;fill-opacity:1;fill-rule:nonzero;stroke:none"
             d="m 0,0 c 0,-1.104 -0.896,-2 -2,-2 l -25,0 c -1.104,0 -2,0.896 -2,2 l 0,15 c 0,1.105 0.896,2 2,2 l 25,0 c 1.104,0 2,-0.895 2,-2 L 0,0 Z" /></g><g
           transform="translate(255.5,4.9014)"
           id="g56"><path
             id="path58"
             style="fill:#d3d2d2;fill-opacity:1;fill-rule:nonzero;stroke:none"
             d="m 0,0 0,23.187 c 0,3.506 -2.994,6.348 -6.5,6.348 -3.506,0 -6.5,-2.842 -6.5,-6.348 L -13,0" /></g><path
           id="path60"
           style="fill:#bdbcbc;fill-opacity:1;fill-rule:nonzero;stroke:none"
           d="m 7.5,76.901 55.5,0 0,4 -55.5,0 0,-4 z" /><path
           id="path62"
           style="fill:#bdbcbc;fill-opacity:1;fill-rule:nonzero;stroke:none"
           d="m 7.5,68.901 55.5,0 0,4 -55.5,0 0,-4 z" /><path
           id="path64"
           style="fill:#bdbcbc;fill-opacity:1;fill-rule:nonzero;stroke:none"
           d="m 7.5,60.901 55.5,0 0,4 -55.5,0 0,-4 z" /><path
           id="path66"
           style="fill:#bdbcbc;fill-opacity:1;fill-rule:nonzero;stroke:none"
           d="m 7.5,52.901 55.5,0 0,4 -55.5,0 0,-4 z" /><path
           id="path68"
           style="fill:#bdbcbc;fill-opacity:1;fill-rule:nonzero;stroke:none"
           d="m 7.5,44.901 55.5,0 0,4 -55.5,0 0,-4 z" /><path
           id="path70"
           style="fill:#bdbcbc;fill-opacity:1;fill-rule:nonzero;stroke:none"
           d="m 225,76.901 55.5,0 0,4 -55.5,0 0,-4 z" /><path
           id="path72"
           style="fill:#bdbcbc;fill-opacity:1;fill-rule:nonzero;stroke:none"
           d="m 225,68.901 55.5,0 0,4 -55.5,0 0,-4 z" /><path
           id="path74"
           style="fill:#bdbcbc;fill-opacity:1;fill-rule:nonzero;stroke:none"
           d="m 225,60.901 55.5,0 0,4 -55.5,0 0,-4 z" /><path
           id="path76"
           style="fill:#bdbcbc;fill-opacity:1;fill-rule:nonzero;stroke:none"
           d="m 225,52.901 55.5,0 0,4 -55.5,0 0,-4 z" /><path
           id="path78"
           style="fill:#bdbcbc;fill-opacity:1;fill-rule:nonzero;stroke:none"
           d="m 225,44.901 55.5,0 0,4 -55.5,0 0,-4 z" /><g
           transform="translate(204.5,4.9014)"
           id="g80"><path
             id="path82"
             style="fill:#c8c7c7;fill-opacity:1;fill-rule:nonzero;stroke:none"
             d="m 0,0 0,115.5 c 0,2.75 -2.25,4.5 -5,4.5 l -111,0 c -2.75,0 -5,-1.75 -5,-4.5 L -121,0 -93,0 -60.5,22.166 -29,0 0,0 Z" /></g><path
           id="path84"
           style="fill:#110f0d;fill-opacity:1;fill-rule:nonzero;stroke:none"
           d="m 201.5,117.901 -116,0 0,3 116,0 0,-3 z" /><path
           id="path86"
           style="fill:#bdbcbc;fill-opacity:1;fill-rule:nonzero;stroke:none"
           d="m 201.5,114.901 -116,0 0,2 116,0 0,-2 z" /><path
           id="path88"
           style="fill:#bdbcbc;fill-opacity:1;fill-rule:nonzero;stroke:none"
           d="m 92.5,45.901 -2,0 0,70 2,0 0,-70 z" /><path
           id="path90"
           style="fill:#bdbcbc;fill-opacity:1;fill-rule:nonzero;stroke:none"
           d="m 102.5,45.901 -2,0 0,70 2,0 0,-70 z" /><path
           id="path92"
           style="fill:#bdbcbc;fill-opacity:1;fill-rule:nonzero;stroke:none"
           d="m 113.5,72.901 -2,0 0,43 2,0 0,-43 z" /><path
           id="path94"
           style="fill:#bdbcbc;fill-opacity:1;fill-rule:nonzero;stroke:none"
           d="m 123.5,72.901 -2,0 0,43 2,0 0,-43 z" /><path
           id="path96"
           style="fill:#bdbcbc;fill-opacity:1;fill-rule:nonzero;stroke:none"
           d="m 134.5,72.901 -2,0 0,43 2,0 0,-43 z" /><path
           id="path98"
           style="fill:#bdbcbc;fill-opacity:1;fill-rule:nonzero;stroke:none"
           d="m 144.5,72.901 -2,0 0,33 2,0 0,-33 z" /><g
           transform="translate(137.3652,101.3047)"
           id="g100"><path
             id="path102"
             style="fill:#bdbcbc;fill-opacity:1;fill-rule:nonzero;stroke:none"
             d="M 0,0 1.099,-1.023 6.133,4.395 11.17,-1.023 12.268,0 6.133,6.597 0,0 Z" /></g><path
           id="path104"
           style="fill:#bdbcbc;fill-opacity:1;fill-rule:nonzero;stroke:none"
           d="m 155.5,72.901 -2,0 0,43 2,0 0,-43 z" /><path
           id="path106"
           style="fill:#bdbcbc;fill-opacity:1;fill-rule:nonzero;stroke:none"
           d="m 165.5,72.901 -2,0 0,43 2,0 0,-43 z" /><path
           id="path108"
           style="fill:#bdbcbc;fill-opacity:1;fill-rule:nonzero;stroke:none"
           d="m 176.5,72.901 -2,0 0,43 2,0 0,-43 z" /><path
           id="path110"
           style="fill:#bdbcbc;fill-opacity:1;fill-rule:nonzero;stroke:none"
           d="m 186.5,45.901 -2,0 0,70 2,0 0,-70 z" /><path
           id="path112"
           style="fill:#bdbcbc;fill-opacity:1;fill-rule:nonzero;stroke:none"
           d="m 197.5,45.901 -2,0 0,70 2,0 0,-70 z" /><g
           transform="translate(143.5,8.9004)"
           id="g114"><path
             id="path116"
             style="fill:#b2b1b1;fill-opacity:1;fill-rule:nonzero;stroke:none"
             d="m 0,0 c 19.333,0 32,-3.997 32,-3.997 l 0,29.439 c 0,17.735 -14.266,32.131 -32,32.131 -17.734,0 -32,-14.356 -32,-32.09 l 0,-29.48 C -32,-3.997 -19.333,0 0,0" /></g><g
           transform="translate(109.1211,157.6309)"
           id="g118"><path
             id="path120"
             style="fill:#ed1f24;fill-opacity:1;fill-rule:nonzero;stroke:none"
             d="m 0,0 c -0.061,0 -0.122,0.015 -0.18,0.041 -5.921,2.874 -8.978,6.225 -8.841,9.689 0.111,2.852 2.439,5.544 6.731,7.788 4.071,2.129 9.816,3.817 16.612,4.883 0.227,0.037 0.438,-0.118 0.473,-0.344 0.037,-0.228 -0.119,-0.44 -0.346,-0.474 C 0.686,19.42 -7.99,14.867 -8.191,9.698 -8.312,6.632 -5.34,3.468 0.182,0.789 0.389,0.688 0.475,0.44 0.374,0.233 0.303,0.087 0.154,0 0,0" /></g><g
           transform="translate(160.7344,178.9092)"
           id="g122"><path
             id="path124"
             style="fill:#ed1f24;fill-opacity:1;fill-rule:nonzero;stroke:none"
             d="m 0,0 c -0.022,0 -0.045,0.002 -0.067,0.006 -4.373,0.719 -8.992,1.197 -13.722,1.424 -0.231,0.011 -0.406,0.205 -0.396,0.435 0.011,0.228 0.21,0.404 0.435,0.393 C -8.986,2.03 -4.338,1.549 0.066,0.824 0.293,0.788 0.447,0.574 0.41,0.348 0.377,0.145 0.2,0 0,0" /></g><g
           transform="translate(147.668,150.9014)"
           id="g126"><path
             id="path128"
             style="fill:#ed1f24;fill-opacity:1;fill-rule:nonzero;stroke:none"
             d="m 0,0 -0.349,0 -0.414,0 0.415,0 0.002,0 c 0.114,0 0.231,0.242 0.346,0.242 22.215,0 39.745,5.899 39.975,13.319 0.082,2.595 -2.004,5.292 -6.034,7.679 -4.011,2.378 -9.761,4.434 -16.627,5.891 -0.224,0.049 -0.368,0.283 -0.32,0.508 0.047,0.224 0.268,0.373 0.492,0.326 6.953,-1.475 12.789,-3.53 16.879,-5.953 4.305,-2.551 6.531,-5.441 6.44,-8.358 C 40.683,9.707 36.323,6.283 28.529,3.699 20.994,1.199 10.875,0 0,0" /></g><g
           transform="translate(155.1855,172.169)"
           id="g130"><path
             id="path132"
             style="fill:#ed1f24;fill-opacity:1;fill-rule:nonzero;stroke:none"
             d="M 0,0 10.959,8.354 -1.912,3.217 -5.53,6.981 -4.377,1.764 -15.336,-6.59 -2.464,-1.45 1.153,-5.215 0,0 Z" /></g><g
           transform="translate(129.4355,176.5088)"
           id="g134"><path
             id="path136"
             style="fill:#ed1f24;fill-opacity:1;fill-rule:nonzero;stroke:none"
             d="M 0,0 0.861,4.631 4.088,5.143 C 4.512,5.21 4.729,4.969 4.645,4.521 L 4.056,1.353 C 3.973,0.904 3.651,0.579 3.229,0.512 L 0,0 Z m 36.697,-13.268 0.881,4.734 c 0.278,1.497 1.888,2.968 3.259,3.186 l 5.932,0.941 c 0.999,0.159 1.693,-0.958 1.489,-2.05 l -0.291,-1.524 c -0.203,-1.093 -1.32,-2.254 -2.319,-2.414 l -6.158,-0.976 -0.088,-0.553 c -0.117,-0.629 0.301,-1.119 0.876,-1.027 l 6.883,1.096 -0.464,-2.497 -7.763,-1.231 c -1.371,-0.218 -2.514,0.814 -2.237,2.315 m -15.385,4.823 2.48,0.391 -1.903,-10.235 -2.535,-0.4 1.902,10.233 0.056,0.011 z m -16.487,-12.551 -2.537,-0.4 1.235,6.646 c 0.157,0.833 -0.095,1.102 -0.898,0.977 l -4.421,-0.704 -1.449,-7.798 -2.537,-0.403 1.901,10.236 0.06,0.009 8.416,1.335 c 1.272,0.202 1.964,-0.57 1.714,-1.916 l -1.484,-7.982 z m -12.184,0.67 -0.498,-2.68 -10.608,-1.683 3.307,17.791 8.762,1.39 -0.453,-2.438 -6.225,-0.988 -0.951,-5.118 5.072,0.805 -0.453,-2.437 -5.073,-0.804 -0.953,-5.118 8.073,1.28 z m 0.363,1.951 -5.996,-0.952 0.226,1.217 4.842,0.769 1.178,6.337 -4.842,-0.769 0.226,1.218 5.995,0.951 -1.629,-8.771 z m 13.305,-4.277 0.039,0.215 c 0.164,-0.014 0.385,-0.077 0.578,-0.047 l 4.986,0.781 c -0.185,-0.996 -1.499,-1.243 -3.504,-1.561 L 6.126,-23.627 4.902,-30.205 7.9,-29.73 c 7.381,0.729 10.19,4.541 11.09,9.089 l 8.993,1.427 1.45,7.798 0.731,0.118 c 0.802,0.128 0.684,0.273 0.529,-0.561 l -1.326,-7.135 6.457,1.025 0.088,0.473 c 0.487,-0.215 1.057,-0.291 1.66,-0.196 l 11.165,1.77 1.042,5.606 -0.724,0.515 c 0.628,0.742 1.116,1.651 1.258,2.414 l 0.175,0.885 c 0.558,3.305 -2.49,4.183 -3.881,3.961 l -6.408,-1.016 c -1.135,-0.18 -2.385,-0.97 -3.294,-2.017 -0.841,0.831 -2.137,1.155 -2.893,1.035 l -7.133,-1.131 0.798,-1.765 6.434,1.019 c 0.928,0.148 1.547,-0.223 1.717,-0.957 -0.068,-0.195 -1.717,-8.977 -1.717,-8.977 l -2.306,-0.365 1.236,6.649 c 0.154,0.831 -0.099,1.101 -0.9,0.972 l -4.42,-0.701 -1.451,-7.799 -2.536,-0.402 1.661,8.928 -2.088,2.463 -7.516,-2.717 3.563,0.566 0.057,0.006 -2.265,-12.182 c -0.576,-3.097 -3.878,-6.056 -6.808,-6.521 l -2.998,-0.475 0.455,2.438 2.28,0.361 c 2.005,0.318 4.262,2.326 4.651,4.424 l 0.246,1.32 -5.939,-0.942 c -1.273,-0.202 -1.965,0.571 -1.713,1.915 l 1.065,5.728 c 0.187,1.018 0.823,1.864 1.674,2.303 l 0.013,0.151 2.979,2.294 -1.74,-0.294 c -0.926,-0.145 -2.643,-0.839 -3.735,-2.231 -0.824,0.983 -2.267,1.37 -3.08,1.241 l -6.4,-1.016 1.044,5.606 4.669,0.741 c 2.485,0.394 5.236,3.189 5.724,5.814 l 0.701,3.778 c 0.49,2.627 -1.357,4.693 -3.843,4.299 L -3.813,8.383 -5.988,-3.315 -15.385,-4.807 c -0.795,-0.127 -1.568,-0.91 -1.724,-1.751 l -3.512,-18.887 c -0.154,-0.84 0.363,-1.421 1.158,-1.295 l 17.93,2.844 1.45,7.798 0.73,0.118 c 0.804,0.126 0.685,0.271 0.53,-0.562 l -1.326,-7.133 6.458,1.023 z m 33.655,13.824 -0.055,-0.297 4.798,0.762 c 0.378,0.061 0.747,0.444 0.824,0.857 0.076,0.414 -0.168,0.701 -0.547,0.641 L 43.752,-7.061 41.786,-7.373 41.289,-7.45 C 40.713,-7.543 40.08,-8.199 39.964,-8.828 m -29.522,-4.826 -0.568,-3.057 c -0.155,-0.834 0.097,-1.103 0.899,-0.976 l 4.651,0.738 0.997,5.361 -4.651,-0.736 c -0.803,-0.128 -1.174,-0.495 -1.328,-1.33 m 1.583,-1.115 c 0.157,0.775 0.444,0.662 1.228,0.787 l 0.73,0.116 -0.227,-1.218 -0.731,-0.117 c -0.783,-0.124 -1.129,-0.334 -1,0.432" /></g><g
           transform="translate(150.0693,174.3428)"
           id="g138"><path
             id="path140"
             style="fill:#ed1f24;fill-opacity:1;fill-rule:nonzero;stroke:none"
             d="M 0,0 -0.684,2.714 -1.07,2.667 -1.195,1.998 C -1.28,1.533 -1.654,1.156 -2.092,1.086 l -2.651,-0.42 c -0.439,-0.07 -0.69,0.209 -0.603,0.674 l 1.337,7.189 c 0.086,0.461 0.459,0.84 0.897,0.91 l 2.652,0.42 C -0.023,9.93 0.228,9.649 0.142,9.188 L -0.029,8.272 5.333,9.124 5.536,10.219 C 6.05,12.986 4.171,15.088 1.552,14.674 L -3.577,13.859 C -6.194,13.445 -8.996,10.599 -9.51,7.834 l -1.426,-7.678 c -0.514,-2.765 1.365,-4.868 3.984,-4.453 L -5.237,-4.025 0,0 Z" /></g><g
           transform="translate(153.8711,175.9795)"
           id="g142"><path
             id="path144"
             style="fill:#ed1f24;fill-opacity:1;fill-rule:nonzero;stroke:none"
             d="M 0,0 C 0.14,0.377 0.236,0.52 0.308,0.906 L 0.49,1.882 -1.645,1.543 0,0 Z" /></g><g
           transform="translate(83.5459,9.9014)"
           id="g146"><path
             id="path148"
             style="fill:#110f0d;fill-opacity:1;fill-rule:nonzero;stroke:none"
             d="m 0,0 17.11,0 c 1.313,0 2.373,1.189 2.373,2.5 0,1.312 -1.06,2.5 -2.373,2.5 L 0,5" /></g><g
           transform="translate(39.7988,263.8555)"
           id="g150"><path
             id="path152"
             style="fill:#cacac8;fill-opacity:1;fill-rule:evenodd;stroke:none"
             d="m 0,0 c -0.562,-0.479 -1.07,-1.117 -1.408,-1.812 -0.338,-0.695 -0.509,-1.449 -0.518,-2.138 -0.008,-0.692 0.145,-1.321 0.426,-1.897 0.282,-0.577 0.692,-1.101 1.199,-1.455 0.508,-0.355 1.112,-0.541 1.665,-0.626 0.554,-0.085 1.058,-0.07 1.457,-0.014 0.4,0.056 0.694,0.152 0.962,0.301 L 5.37,-4.343 C 4.959,-4.536 4.541,-4.712 4.107,-4.891 3.674,-5.069 3.225,-5.252 2.748,-5.31 2.271,-5.366 1.768,-5.3 1.32,-5.034 c -0.447,0.265 -0.838,0.73 -1.041,1.252 -0.203,0.519 -0.217,1.097 -0.075,1.617 0.142,0.52 0.442,0.985 0.806,1.392 0.363,0.406 0.791,0.755 1.188,0.985 0.398,0.231 0.765,0.343 1.14,0.369 L 4.537,-1.146 5.916,-0.63 4.949,1.736 C 4.677,1.746 4.402,1.734 4.078,1.699 3.754,1.664 3.379,1.604 2.99,1.505 2.602,1.405 2.198,1.265 1.689,1.034 1.179,0.803 0.562,0.48 0,0 m -9.012,0.881 c 0.141,-0.159 0.318,-0.363 0.277,-0.579 l -0.55,-2.895 c -0.043,-0.226 -0.244,-0.39 -0.401,-0.504 -0.158,-0.113 -0.351,-0.143 -0.544,-0.174 0.167,-0.065 0.334,-0.13 0.445,-0.251 0.113,-0.122 0.267,-0.294 0.226,-0.476 l -0.629,-2.819 c -0.058,-0.26 -0.324,-0.423 -0.511,-0.565 -0.189,-0.141 -0.403,-0.214 -0.618,-0.286 l 7.522,0 0.528,2.821 c -0.289,-0.586 -0.579,-1.171 -1.071,-1.547 -0.494,-0.375 -1.17,-0.705 -1.886,-0.705 l -1.378,0 0.688,3.491 c 0.25,0.086 0.532,0.077 0.787,-0.047 0.256,-0.123 0.482,-0.363 0.688,-0.622 0.203,-0.26 0.382,-0.54 0.525,-0.837 l 0.721,3.671 c -0.246,-0.27 -0.521,-0.514 -0.816,-0.734 -0.296,-0.22 -0.611,-0.415 -0.907,-0.513 -0.297,-0.098 -0.572,-0.098 -0.828,-0.022 l 0.713,3.436 1.109,0.011 c 0.502,0.004 1.004,0.065 1.408,-0.267 0.407,-0.332 0.717,-1.028 1.026,-1.724 l 0.549,2.515 -7.647,0 C -9.37,1.15 -9.154,1.04 -9.012,0.881 m -3.937,-4.458 -4.471,5.355 -2.031,-2.322 0.974,-0.891 -1.164,-6.445 2.337,1.026 -1.206,1.117 0.669,3.408 4.709,-5.428 1.626,7.402 1.647,0.996 -1.991,1.211 -1.099,-5.429 z" /></g><g
           transform="translate(72.9336,280.0562)"
           id="g154"><path
             id="path156"
             style="fill:#e9e9e9;fill-opacity:1;fill-rule:nonzero;stroke:none"
             d="m 0,0 0,8.345 c 0,0.718 0.782,1.3 1.5,1.3 0.718,0 1.5,-0.582 1.5,-1.3 L 3,0" /></g><g
           transform="translate(79.2578,280.0562)"
           id="g158"><path
             id="path160"
             style="fill:#e9e9e9;fill-opacity:1;fill-rule:nonzero;stroke:none"
             d="m 0,0 0,8.345 c 0,0.718 0.782,1.3 1.5,1.3 0.718,0 1.5,-0.582 1.5,-1.3 L 3,0" /></g><g
           transform="translate(85.582,280.0562)"
           id="g162"><path
             id="path164"
             style="fill:#e9e9e9;fill-opacity:1;fill-rule:nonzero;stroke:none"
             d="m 0,0 0,8.345 c 0,0.718 0.782,1.3 1.5,1.3 0.718,0 1.5,-0.582 1.5,-1.3 L 3,0" /></g><g
           transform="translate(91.9062,280.0562)"
           id="g166"><path
             id="path168"
             style="fill:#e9e9e9;fill-opacity:1;fill-rule:nonzero;stroke:none"
             d="m 0,0 0,8.345 c 0,0.718 0.782,1.3 1.5,1.3 0.718,0 1.5,-0.582 1.5,-1.3 L 3,0" /></g><g
           transform="translate(98.2305,280.0562)"
           id="g170"><path
             id="path172"
             style="fill:#e9e9e9;fill-opacity:1;fill-rule:nonzero;stroke:none"
             d="m 0,0 0,8.345 c 0,0.718 0.782,1.3 1.5,1.3 0.718,0 1.5,-0.582 1.5,-1.3 L 3,0" /></g><g
           transform="translate(104.5547,280.0562)"
           id="g174"><path
             id="path176"
             style="fill:#e9e9e9;fill-opacity:1;fill-rule:nonzero;stroke:none"
             d="m 0,0 0,8.345 c 0,0.718 0.782,1.3 1.5,1.3 0.718,0 1.5,-0.582 1.5,-1.3 L 3,0" /></g><g
           transform="translate(110.8789,280.0562)"
           id="g178"><path
             id="path180"
             style="fill:#e9e9e9;fill-opacity:1;fill-rule:nonzero;stroke:none"
             d="m 0,0 0,8.345 c 0,0.718 0.782,1.3 1.5,1.3 0.718,0 1.5,-0.582 1.5,-1.3 L 3,0" /></g><g
           transform="translate(117.2031,280.0562)"
           id="g182"><path
             id="path184"
             style="fill:#e9e9e9;fill-opacity:1;fill-rule:nonzero;stroke:none"
             d="m 0,0 0,8.345 c 0,0.718 0.782,1.3 1.5,1.3 0.718,0 1.5,-0.582 1.5,-1.3 L 3,0" /></g><g
           transform="translate(123.5273,280.0562)"
           id="g186"><path
             id="path188"
             style="fill:#e9e9e9;fill-opacity:1;fill-rule:nonzero;stroke:none"
             d="m 0,0 0,8.345 c 0,0.718 0.782,1.3 1.5,1.3 0.718,0 1.5,-0.582 1.5,-1.3 L 3,0" /></g><g
           transform="translate(129.8516,280.0562)"
           id="g190"><path
             id="path192"
             style="fill:#e9e9e9;fill-opacity:1;fill-rule:nonzero;stroke:none"
             d="m 0,0 0,8.345 c 0,0.718 0.782,1.3 1.5,1.3 0.718,0 1.5,-0.582 1.5,-1.3 L 3,0" /></g><g
           transform="translate(136.1758,280.0562)"
           id="g194"><path
             id="path196"
             style="fill:#e9e9e9;fill-opacity:1;fill-rule:nonzero;stroke:none"
             d="m 0,0 0,8.345 c 0,0.718 0.782,1.3 1.5,1.3 0.718,0 1.5,-0.582 1.5,-1.3 L 3,0" /></g><g
           transform="translate(142.5,280.0562)"
           id="g198"><path
             id="path200"
             style="fill:#e9e9e9;fill-opacity:1;fill-rule:nonzero;stroke:none"
             d="m 0,0 0,8.345 c 0,0.718 0.782,1.3 1.5,1.3 0.718,0 1.5,-0.582 1.5,-1.3 L 3,0" /></g><g
           transform="translate(148.8242,280.0562)"
           id="g202"><path
             id="path204"
             style="fill:#e9e9e9;fill-opacity:1;fill-rule:nonzero;stroke:none"
             d="m 0,0 0,8.345 c 0,0.718 0.782,1.3 1.5,1.3 0.718,0 1.5,-0.582 1.5,-1.3 L 3,0" /></g><g
           transform="translate(155.1484,280.0562)"
           id="g206"><path
             id="path208"
             style="fill:#e9e9e9;fill-opacity:1;fill-rule:nonzero;stroke:none"
             d="m 0,0 0,8.345 c 0,0.718 0.782,1.3 1.5,1.3 0.718,0 1.5,-0.582 1.5,-1.3 L 3,0" /></g><g
           transform="translate(161.4726,280.0562)"
           id="g210"><path
             id="path212"
             style="fill:#e9e9e9;fill-opacity:1;fill-rule:nonzero;stroke:none"
             d="m 0,0 0,8.345 c 0,0.718 0.782,1.3 1.5,1.3 0.718,0 1.5,-0.582 1.5,-1.3 L 3,0" /></g><g
           transform="translate(167.7969,280.0562)"
           id="g214"><path
             id="path216"
             style="fill:#e9e9e9;fill-opacity:1;fill-rule:nonzero;stroke:none"
             d="m 0,0 0,8.345 c 0,0.718 0.782,1.3 1.5,1.3 0.718,0 1.5,-0.582 1.5,-1.3 L 3,0" /></g><g
           transform="translate(174.1211,280.0562)"
           id="g218"><path
             id="path220"
             style="fill:#e9e9e9;fill-opacity:1;fill-rule:nonzero;stroke:none"
             d="m 0,0 0,8.345 c 0,0.718 0.782,1.3 1.5,1.3 0.718,0 1.5,-0.582 1.5,-1.3 L 3,0" /></g><g
           transform="translate(180.4453,280.0562)"
           id="g222"><path
             id="path224"
             style="fill:#e9e9e9;fill-opacity:1;fill-rule:nonzero;stroke:none"
             d="m 0,0 0,8.345 c 0,0.718 0.782,1.3 1.5,1.3 0.718,0 1.5,-0.582 1.5,-1.3 L 3,0" /></g><g
           transform="translate(186.7695,280.0562)"
           id="g226"><path
             id="path228"
             style="fill:#e9e9e9;fill-opacity:1;fill-rule:nonzero;stroke:none"
             d="m 0,0 0,8.345 c 0,0.718 0.782,1.3 1.5,1.3 0.718,0 1.5,-0.582 1.5,-1.3 L 3,0" /></g><g
           transform="translate(193.0937,280.0562)"
           id="g230"><path
             id="path232"
             style="fill:#e9e9e9;fill-opacity:1;fill-rule:nonzero;stroke:none"
             d="m 0,0 0,8.345 c 0,0.718 0.782,1.3 1.5,1.3 0.718,0 1.5,-0.582 1.5,-1.3 L 3,0" /></g><g
           transform="translate(199.418,280.0562)"
           id="g234"><path
             id="path236"
             style="fill:#e9e9e9;fill-opacity:1;fill-rule:nonzero;stroke:none"
             d="m 0,0 0,8.345 c 0,0.718 0.782,1.3 1.5,1.3 0.718,0 1.5,-0.582 1.5,-1.3 L 3,0" /></g><g
           transform="translate(205.7422,280.0562)"
           id="g238"><path
             id="path240"
             style="fill:#e9e9e9;fill-opacity:1;fill-rule:nonzero;stroke:none"
             d="m 0,0 0,8.345 c 0,0.718 0.782,1.3 1.5,1.3 0.718,0 1.5,-0.582 1.5,-1.3 L 3,0" /></g><g
           transform="translate(212.0664,280.0562)"
           id="g242"><path
             id="path244"
             style="fill:#e9e9e9;fill-opacity:1;fill-rule:nonzero;stroke:none"
             d="m 0,0 0,8.345 c 0,0.718 0.782,1.3 1.5,1.3 0.718,0 1.5,-0.582 1.5,-1.3 L 3,0" /></g></g></g></g></svg>