<?xml version="1.0" encoding="utf-8"?>
<!-- Generator: Adobe Illustrator 19.0.0, SVG Export Plug-In . SVG Version: 6.00 Build 0)  -->
<svg version="1.1" baseProfile="tiny" id="Layer_1" xmlns="http://www.w3.org/2000/svg" xmlns:xlink="http://www.w3.org/1999/xlink"
	 x="0px" y="0px" viewBox="-201 259.7 913 274.3" xml:space="preserve">
<g>
	<g>
		<path fill="#FF0000" d="M29.9,461.3c-0.4,0-0.8-0.1-1.2-0.3c-38-18.4-57.6-39.9-56.7-62.1c0.7-18.3,15.6-35.6,43.2-50
			c26.1-13.6,63-24.5,106.6-31.3c1.5-0.2,2.8,0.8,3,2.2c0.2,1.5-0.8,2.8-2.2,3C34.3,336.8-21.3,366-22.6,399.1
			c-0.8,19.7,18.3,40,53.7,57.1c1.3,0.6,1.9,2.2,1.2,3.6C31.9,460.8,30.9,461.3,29.9,461.3z"/>
	</g>
	<g>
		<path fill="#FF0000" d="M361,324.8c-0.1,0-0.3,0-0.4,0c-28.1-4.6-57.7-7.7-88-9.1c-1.5-0.1-2.6-1.3-2.5-2.8
			c0.1-1.5,1.3-2.6,2.8-2.5c30.6,1.5,60.4,4.6,88.6,9.2c1.4,0.2,2.4,1.6,2.2,3.1C363.4,323.9,362.3,324.8,361,324.8z"/>
	</g>
	<g>
		<path fill="#FF0000" d="M277.2,506.7c-0.7,0-1.5,0-2.2,0c-1.5,0-2.7-1.2-2.7-2.7c0-1.5,1.2-2.7,2.7-2.7c0,0,0,0,0,0
			c0.7,0,1.5,0,2.2,0c142.5,0,255-37,256.4-84.6c0.5-16.7-12.9-33.6-38.7-48.9c-25.7-15.3-62.6-28.3-106.7-37.6
			c-1.4-0.3-2.4-1.7-2.1-3.2c0.3-1.4,1.7-2.4,3.2-2.1c44.6,9.5,82,22.7,108.3,38.2c27.6,16.4,41.9,34.9,41.3,53.6
			c-0.8,25.3-28.8,48.4-78.7,65C411.9,497.9,346.9,506.7,277.2,506.7z"/>
	</g>
	<polygon fill="#FF0000" points="325.4,368.1 395.7,314.5 313.1,347.4 289.9,323.3 297.3,356.8 227,410.3 309.6,377.4 332.8,401.5 	
		"/>
	<g>
		<path fill="#FF0000" d="M237.4,435c1-5,2.8-4.2,7.9-5l4.7-0.7l-1.5,7.8l-4.7,0.7C238.8,438.5,236.5,439.9,237.4,435z M227.2,427.8
			l-3.6,19.6c-1,5.4,0.6,7.1,5.8,6.3l29.8-4.7l6.4-34.4l-29.8,4.7C230.6,420.1,228.2,422.5,227.2,427.8z M416.6,396.9l-0.3,1.9
			l30.8-4.9c2.4-0.4,4.8-2.8,5.3-5.5c0.5-2.7-1.1-4.5-3.5-4.1l-7.9,1.2l-12.6,2l-3.2,0.5C421.4,388.6,417.3,392.8,416.6,396.9z
			 M200.7,485.5l0.3-1.4c1.1,0.1,2.5,0.5,3.7,0.3l32-5c-1.2,6.4-9.6,8-22.5,10l-14.6,2.3l-7.8,42.2l19.2-3
			c47.3-4.7,65.4-29.1,71.1-58.3l57.7-9.2l9.3-50l4.7-0.8c5.1-0.8,4.4-1.7,3.4,3.6l-8.5,45.8l41.4-6.6l0.6-3
			c3.1,1.4,6.8,1.9,10.6,1.3l71.6-11.4l6.7-36l-4.6-3.3c4-4.8,7.2-10.6,8.1-15.5l1.1-5.7c3.6-21.2-16-26.8-24.9-25.4l-41.1,6.5
			c-7.3,1.2-15.3,6.2-21.1,12.9c-5.4-5.3-13.7-7.4-18.6-6.6l-45.8,7.3l5.1,11.3l41.3-6.5c6-0.9,9.9,1.4,11,6.1
			c-0.4,1.2-11,57.6-11,57.6l-14.8,2.3l7.9-42.6c1-5.3-0.6-7.1-5.8-6.3l-28.4,4.5l-9.3,50l-16.3,2.6l10.6-57.3l-13.4-15.8L261.5,400
			l22.8-3.6l0.4-0.1l-14.5,78.2c-3.7,19.9-24.9,38.8-43.7,41.8l-19.2,3l2.9-15.6l14.6-2.3c12.9-2,27.3-14.9,29.8-28.4l1.6-8.5
			l-38.1,6c-8.2,1.3-12.6-3.7-11-12.3l6.8-36.7c1.2-6.5,5.3-12,10.7-14.8l0.1-1l19.1-14.7l-11.2,1.9c-5.9,0.9-17,5.4-24,14.3
			c-5.3-6.3-14.5-8.8-19.8-8l-41.1,6.5l6.7-36l30-4.8c15.9-2.5,33.6-20.5,36.7-37.3l4.5-24.2c3.1-16.9-8.7-30.1-24.7-27.6
			l-65.5,10.4l-13.9,75l-60.3,9.6c-5.1,0.8-10.1,5.8-11.1,11.2L28,503.5c-1,5.4,2.3,9.1,7.4,8.3l115-18.3l9.3-50l4.7-0.7
			c5.2-0.8,4.4-1.7,3.4,3.6l-8.5,45.8L200.7,485.5z M115.4,458.1l-38.5,6.1l1.4-7.8l31.1-4.9l7.6-40.6l-31.1,4.9l1.4-7.8l38.5-6.1
			L115.4,458.1z M113,470.6l-3.2,17.2l-68,10.8L63,384.5l56.2-8.9l-2.9,15.6l-39.9,6.3l-6.1,32.8l32.5-5.2l-2.9,15.6L67.4,446
			l-6.1,32.8L113,470.6z M191.2,474.9l-16.3,2.6l7.9-42.6c1-5.3-0.6-7.1-5.8-6.3l-28.4,4.5l-9.3,50l-16.3,2.6l12.2-65.7l0.4-0.1
			l54-8.6c8.2-1.3,12.6,3.7,11,12.3L191.2,474.9z M296.9,394.4l15.9-2.5l-12.2,65.7l-16.3,2.6l12.2-65.6L296.9,394.4z M395.6,425.4
			l5.6-30.4c1.8-9.6,12.1-19,20.9-20.4l38-6c6.4-1,10.9,6.1,9.6,13.1l-1.9,9.8c-1.3,7-8.5,14.5-14.9,15.5l-39.5,6.3l-0.6,3.5
			c-0.8,4,1.9,7.2,5.6,6.6l44.1-7l-3,16l-49.8,7.9C401.2,441.6,393.9,435,395.6,425.4z M160.2,340.2l5.5-29.7l20.7-3.3
			c2.7-0.4,4.1,1.1,3.6,4l-3.8,20.3c-0.5,2.9-2.6,5-5.3,5.4L160.2,340.2z"/>
		<g>
			<path fill="#FF0000" d="M292.6,354.1l-4.4-17.4l-2.5,0.3l-0.8,4.3c-0.6,3-2.9,5.4-5.8,5.9l-17,2.7c-2.8,0.4-4.4-1.3-3.9-4.3
				l8.6-46.1c0.5-3,2.9-5.4,5.7-5.8l17-2.7c2.8-0.4,4.4,1.3,3.9,4.3l-1.1,5.9l34.4-5.5l1.3-7c3.3-17.7-8.8-31.2-25.6-28.6l-32.9,5.2
				c-16.8,2.7-34.8,20.9-38,38.7l-9.2,49.2c-3.3,17.7,8.8,31.2,25.6,28.6l11-1.7L292.6,354.1z"/>
			<path fill="#FF0000" d="M317,343.6c0.9-2.4,1.5-3.3,2-5.8l1.2-6.3l-13.7,2.2L317,343.6z"/>
		</g>
	</g>
</g>
</svg>
