<svg xmlns="http://www.w3.org/2000/svg" baseProfile="tiny" viewBox="0 0 231.8 289.4">
  <path fill="#FAAF40" d="M163.3 289.4h-12c-2.8 0-5-2.3-5-5v-12.9c0-2.8 2.3-5 5-5h12c2.8 0 5 2.3 5 5v12.9c0 2.7-2.2 5-5 5z"/>
  <path fill="#A91C41" d="M28.3 287.5c-5 0-9.1-4-9.3-9l-2.3-27.4V13.3C16.8 8.2 20.9 4 26 4h181.1c5.1 0 9.3 4.2 9.3 9.3v238.2l-2.3 27.1c-.1 5-4.2 9-9.3 9H28.3z"/>
  <path fill="#BFA886" d="M204.8 279.7H28.3c-2.5 0-4.6-2.1-4.6-4.6l-2.3-27.3V10.1c0-2.5 2.1-4.6 4.6-4.6h181.1c2.5 0 4.6 2.1 4.6 4.6v238l-2.3 27c.1 2.5-2 4.6-4.6 4.6z"/>
  <path fill="#FFF" d="M21.4 247h190.4v1.4H21.4zm121.6-1.8H90.2c-1.7 0-3-1.4-3-3v-88.9c0-1.7 1.4-3 3-3H143c1.7 0 3 1.4 3 3v88.9c0 1.6-1.3 3-3 3zm-52.8-93.6c-.9 0-1.6.7-1.6 1.6v88.9c0 .9.7 1.6 1.6 1.6H143c.9 0 1.6-.7 1.6-1.6v-88.9c0-.9-.7-1.6-1.6-1.6H90.2z"/>
  <path fill="#FFF" d="M118.5 150.9h1.4v54.7h-1.4zm-4.6 0h1.4v54.7h-1.4zM78.2 46.6c-.4 0-.7-.3-.7-.7v-40c0-.4.3-.7.7-.7.4 0 .7.3.7.7v40c0 .4-.3.7-.7.7zm6.6 0c-.4 0-.7-.3-.7-.7v-40c0-.4.3-.7.7-.7s.7.3.7.7v40c0 .4-.3.7-.7.7zm6.6 0c-.4 0-.7-.3-.7-.7v-40c0-.4.3-.7.7-.7s.7.3.7.7v40c0 .4-.4.7-.7.7zm6.5 0c-.4 0-.7-.3-.7-.7v-40c0-.4.3-.7.7-.7.4 0 .7.3.7.7v40c0 .4-.3.7-.7.7zm6.6 0c-.4 0-.7-.3-.7-.7v-40c0-.4.3-.7.7-.7s.7.3.7.7v40c0 .4-.3.7-.7.7zm6.6 0c-.4 0-.7-.3-.7-.7v-40c0-.4.3-.7.7-.7.4 0 .7.3.7.7v40c0 .4-.3.7-.7.7zm6.6 0c-.4 0-.7-.3-.7-.7v-40c0-.4.3-.7.7-.7.4 0 .7.3.7.7v40c0 .4-.4.7-.7.7zm6.5 0c-.4 0-.7-.3-.7-.7v-40c0-.4.3-.7.7-.7.4 0 .7.3.7.7v40c0 .4-.3.7-.7.7zm6.6 0c-.4 0-.7-.3-.7-.7v-40c0-.4.3-.7.7-.7s.7.3.7.7v40c0 .4-.3.7-.7.7zm6.6 0c-.4 0-.7-.3-.7-.7v-40c0-.4.3-.7.7-.7.4 0 .7.3.7.7v40c0 .4-.3.7-.7.7zm6.6 0c-.4 0-.7-.3-.7-.7v-40c0-.4.3-.7.7-.7s.7.3.7.7v40c0 .4-.3.7-.7.7zm6.5 0c-.4 0-.7-.3-.7-.7v-40c0-.4.3-.7.7-.7s.7.3.7.7v40c0 .4-.3.7-.7.7zm6.6 0c-.4 0-.7-.3-.7-.7v-40c0-.4.3-.7.7-.7.4 0 .7.3.7.7v40c0 .4-.3.7-.7.7zM19.4 42.3h45.4v1.4H19.4zm152.4 0h45.4v1.4h-45.4z"/>
  <path fill="#A91C41" d="M138.5 223.6H94.7c-2.8 0-5-2.3-5-5v-17.8c0-2.8 2.3-5 5-5h43.7c2.8 0 5 2.3 5 5v17.8c.1 2.8-2.2 5-4.9 5z"/>
  <path fill="#231F20" d="M228.3 139.2h3.5v36h-3.5zm0-61.4h3.5v18.4h-3.5zm0-29.8h3.5v18.4h-3.5zM0 53.5h3.6v36H0zm0 78.9h3.6v18.4H0zm0 29.8h3.6v18.4H0z"/>
  <path fill="#A91C41" d="M172.6 239.4h-12c-2.8 0-5-2.3-5-5v-12.9c0-2.8 2.3-5 5-5h12c2.8 0 5 2.3 5 5v12.9c0 2.7-2.3 5-5 5zm-99.4 0h-12c-2.8 0-5-2.3-5-5v-12.9c0-2.8 2.3-5 5-5h12c2.8 0 5 2.3 5 5v12.9c0 2.7-2.2 5-5 5zm128.2 29.3H30.3c-1.3 0-2.3-1-2.3-2.3l-.9-9c0-1.3 1-2.3 2.3-2.3h172.9c1.3 0 2.3 1 2.3 2.3l-.9 9c.1 1.3-1 2.3-2.3 2.3zm-9.2-149.8H39.6c-1.3 0-2.3-1-2.3-2.3v-33l-.9-4.6c0-1.3 1-2.3 2.3-2.3h154.4c1.3 0 2.3 1 2.3 2.3l-.9 4v33.7c0 1.2-1.1 2.2-2.3 2.2z"/>
  <path fill="#FFF" d="M172.3 71.6H64.1V5.4h1.4v64.8H171V5.4h1.3"/>
  <path fill="#A91C41" d="M8.5 30.9h19.2c2.8 0 5 2.3 5 5v156.8c0 2.8-2.3 5-5 5H8.5c-2.7 0-5-2.2-5-5V35.9c0-2.7 2.2-5 5-5zm195.6 166.8h19.2c2.8 0 5-2.3 5-5V35.9c0-2.8-2.3-5-5-5h-19.2c-2.8 0-5 2.3-5 5v156.8c0 2.7 2.3 5 5 5z"/>
  <path fill="#FFF" d="M80.5 245.2H35.4c-1.7 0-3-1.4-3-3v-28.7c0-1.7 1.4-3 3-3h45.1c1.7 0 3 1.4 3 3v28.7c0 1.6-1.3 3-3 3zm-45.1-33.4c-.9 0-1.6.7-1.6 1.6v28.7c0 .9.7 1.6 1.6 1.6h45.1c.9 0 1.6-.7 1.6-1.6v-28.7c0-.9-.7-1.6-1.6-1.6H35.4zm162.9 33.4h-45.1c-1.7 0-3-1.4-3-3v-28.7c0-1.7 1.4-3 3-3h45.1c1.7 0 3 1.4 3 3v28.7c.1 1.6-1.3 3-3 3zm-45-33.4c-.9 0-1.6.7-1.6 1.6v28.7c0 .9.7 1.6 1.6 1.6h45.1c.9 0 1.6-.7 1.6-1.6v-28.7c0-.9-.7-1.6-1.6-1.6h-45.1zM32.7 128.2h166.5v1.4H32.7z"/>
  <path fill="#59011D" d="M76.2 229.8h-18c-1.1 0-2 .9-2 2v2.2c0 1.1.9 2 2 2h18c1.1 0 2-.9 2-2v-2.2c0-1.1-.9-2-2-2zm65.3-10.2H91.7c-1.1 0-2-.9-2-2v-15.9c0-1.1.9-2 2-2h49.7c1.1 0 2 .9 2 2v15.9c.1 1.1-.8 2-1.9 2zm50.7-100.7H39.6c-1.3 0-2.3-1-2.3-2.3 0-1.3 1-2.3 2.3-2.3h152.6c1.3 0 2.3 1 2.3 2.3 0 1.3-1.1 2.3-2.3 2.3zm.9-37.7H38.7c-1.3 0-2.3-1-2.3-2.3 0-1.3 1-2.3 2.3-2.3h154.4c1.3 0 2.3 1 2.3 2.3 0 1.3-1 2.3-2.3 2.3z"/>
  <g fill="#BFA886">
    <path d="M67.9 256.7H73v1.5h-3.3v1.8H73v1.6h-3.3v3.3h-1.8m10.9 0h-1.7v-1.3h-3.4l-1 1.3h-2l6.7-8.2h1.4v8.2zm-1.7-2.8v-2.4l-2.1 2.4h2.1zm2.4-5.4h2l2.8 5.5 2.9-5.5h2v8.2h-1.8v-4.2l-2.2 4.2h-1.8l-2.1-4.2v4.2h-1.8m43.1-8.2h2l2.9 5.5 2.8-5.5h2.1v8.2h-1.8v-4.2l-2.2 4.2h-1.8l-2.2-4.2v4.2h-1.8m-32.8-8.2h1.9v8.2h-1.9zm2.4 0H94v6.7h2.4v1.5h-4.2m2.2-8.2h2l2 3.3 1.9-3.3h2l-3.1 5.2v3h-1.8v-3m15-3c-.8-1.3-2.4-2.2-4.3-2.2-2.7 0-4.9 1.9-4.9 4.2 0 2.3 2.2 4.2 4.9 4.2 1.9 0 3.5-.9 4.3-2.3h-2.2c-.5.4-1.3.7-2.1.7-1.7 0-3.1-1.2-3.1-2.6s1.4-2.6 3.1-2.6c.8 0 1.5.3 2 .7l2.3-.1z"/>
    <path d="M117.2 265.1c-2.7 0-4.9-1.9-4.9-4.2 0-2.3 2.2-4.2 4.9-4.2s4.9 1.9 4.9 4.2c0 2.3-2.2 4.2-4.9 4.2zm3.1-4.2c0-1.5-1.4-2.7-3.1-2.7-1.7 0-3.1 1.2-3.1 2.7 0 1.5 1.4 2.7 3.1 2.7 1.7-.1 3.1-1.3 3.1-2.7zm15.9-4.2c1.6.1 2.9 1.3 2.9 2.7 0 1.4-1.3 2.6-2.9 2.7h-1.4v2.8H133v-8.2h3.2zm-1.4 1.6v2.2h1.4c.6-.1 1.1-.6 1.1-1.1 0-.6-.5-1-1.1-1.1h-1.4zm24 6.7H157v-8.2h3.9c1.6.1 2.9 1.3 2.9 2.7 0 1.2-.9 2.1-2 2.5l2.1 3H162l-2.9-4.3h-.2l-.1 4.3zm2.1-4.5c.6-.1 1.1-.6 1.1-1.1 0-.6-.5-1-1.1-1.1h-2.1v2.2h2.1zm-19.5.9v1.2c.1.5.7.9 1.3.9.6 0 1.2-.4 1.3-.9v-5.9h1.8v5.9c-.1 1.4-1.5 2.5-3.1 2.5-1.7 0-3-1.1-3.1-2.5v-5.9h1.8v4.7zm6.3 3.6h1.8v-6.7h1.7v-1.6h-5.1v1.6h1.6m8.9 6.7h-5v-8.3h5v1.6h-3.2v1.9h3.2v1.5h-3.2v1.8h3.2M28.1 267c-.1-.2-.1-.4-.1-.6v-.2h142.6v.8H28.1zm175.7 0v-.8h-12.6v.8h12.6z"/>
  </g>
  <g fill="#BFA886">
    <path d="M171.9 264.8h.8l1.1 1.8v-1.8h.8v2.6h-.8l-1.1-1.8v1.8h-.8v-2.6zm7 .3h.8v.4h.4v.3h-.4v1.7h-.8v-1.7h-.4v-.3h.4v-.4zm-3.9.6h.8v1.7h-.8v-1.7zm0-.9h.8v.5h-.8v-.5zm13.4.8c-.6 0-1.1.4-1.1 1 0 .5.5 1 1.1 1 .6 0 1.1-.4 1.1-1s-.5-1-1.1-1m.3.9v.4c0 .3-.2.4-.3.4-.2 0-.3-.1-.3-.4v-.8c0-.3.2-.4.3-.4.2 0 .3.1.3.4v.4zm-2.4 0v-.3c0-.3-.2-.3-.3-.3-.1 0-.3.1-.3.3v.6c0 .3.2.3.3.3.1 0 .3-.1.3-.3v-.3zm0-1.7h.8v2.6h-.8v-.1c-.3.2-.6.2-.9.1-.1 0-.5-.3-.5-.9 0-.5.4-1 1-.9.2 0 .3.1.4.2v-1zm-8.7.8c.3 0 .9.2.9.9v.9h-.8v-1.1c0-.2-.1-.3-.3-.3-.2 0-.4.2-.4.3v1.1h-.8v-1.7h.8v.2c.1-.2.3-.3.6-.3m6.2 0c.3 0 .9.2.9.9v.9h-.8v-1.1c0-.2-.1-.3-.3-.3-.2 0-.4.2-.4.3v1.1h-.8v-1.7h.8v.2c.1-.2.3-.3.6-.3"/>
    <path d="M181.4 266.8v.1c0 .3-.2.4-.3.4-.1 0-.3-.1-.3-.4v-.4h1.4c0-.5-.5-1-1.1-1-.6 0-1.1.4-1.1 1 0 .5.5 1 1.1 1 .5 0 1-.3 1.1-.7h-.8zm-.7-.5c0-.2 0-.3.1-.3.1-.1.2-.2.3-.2.1 0 .2.1.3.2 0 .1.1.2.1.3h-.8zm9-1.2c.1 0 .1 0 .1-.1s-.1-.1-.1-.1h-.1v.2h.1zm-.1.3l-.1-.6h.2c.1 0 .2.1.2.2s-.1.2-.1.2l.2.3h-.1l-.2-.3h-.1v.2z"/>
    <path d="M189.7 265.6c.2 0 .4-.2.4-.4s-.2-.4-.4-.4-.4.2-.4.4.2.4.4.4m-.5-.5c0-.3.2-.5.5-.5s.5.2.5.5-.2.5-.5.5c-.3.1-.5-.2-.5-.5"/>
  </g>
  <g fill="#BFA886">
    <circle cx="43.5" cy="257.8" r="1.1"/>
    <path d="M41.9 257.5v-.2c0-.4-.3-.7-.7-.7-.3 0-.6.2-.7.5l-2.2 6.8v.2c0 .4.3.7.7.7.3 0 .6-.2.7-.5l2.2-6.8z"/>
    <circle cx="42.6" cy="260.3" r="1.1"/>
    <circle cx="48.3" cy="257.8" r="1.1"/>
    <path d="M46.7 257.5v-.2c0-.4-.3-.7-.7-.7-.3 0-.6.2-.7.5l-2.2 6.8v.2c0 .4.3.7.7.7.3 0 .6-.2.7-.5l2.2-6.8z"/>
    <circle cx="47.4" cy="260.3" r="1.1"/>
  </g>
  <path fill="#3C3C3B" d="M32.7 151.9V72.1h2.4v-2.5h-2.4v-3.4h2.2v-2.4h-2.2v-3.3h2.2v-2.4h-2.2v-2.8h2.2v-2.4h-2.2v-3h2.4v-2.4h-2.4V3.9h166.4v43.6H196v2.4h3.1v3H196v2.4h3.1v2.8H196v2.4h3.1v3.3H196v2.4h3.1v3.4H196v2.5h3.1v79.8"/>
  <path d="M35.1 47.5H196v2.4H35.1zm0 22.1H196V72H35.1zm-.2-16.7h92.6v2.4H34.9zm0 5.2h92.6v2.4H34.9zm0 5.7h92.6v2.4H34.9z"/>
  <path d="M127.5 49.9h1.2v19.8h-1.2zm56.3 0h1.2v19.8h-1.2zm1.2 3h10.9v2.4H185zm0 5.2h10.9v2.4H185zm0 5.7h10.9v2.4H185z"/>
  <path fill="#333" d="M182.9 0h-74.7l-1.3 3.9H185"/>
  <g fill="#FFF">
    <path d="M140.3 63.2h-1.9c-.1 0-.2 0-.2-.1-.9-1.4-1.8-2.9-2.7-4.3l-.1-.1v4.6h-2v-6.6h1.9c.1 0 .2 0 .2.1.9 1.4 1.8 2.9 2.7 4.3l.1.1v-4.5h2v6.5zm32.5-6.6v6.6h-1.9V63c-1.3.6-2.4.5-3.3-.7-.6-.8-.5-1.9.1-2.7.4-.5.9-.8 1.5-.9.6-.1 1.2 0 1.7.4v-2.4c.6-.1 1.2-.1 1.9-.1zm-3.5 4.3v.9c0 .4.3.7.8.8.4 0 .8-.3.8-.7v-2c-.1-.4-.4-.6-.9-.6-.4 0-.7.3-.7.7v.9zm-19 2.3h-1.9v-2.8c0-.5-.3-.8-.7-.9-.4-.1-.9.1-1.1.5-.1.1-.1.3-.1.4v2.8h-1.9v-4.4h1.9v.4l.1-.1c.9-.8 2.3-.7 3.1.1.4.4.5.9.6 1.4.1.9.1 1.7 0 2.6.1-.1.1-.1 0 0zm12.4 0h-1.9v-4.4h1.9v.5c.1-.1.1-.1.2-.1 1-.8 2.5-.7 3.2.3.3.3.4.7.4 1.1v2.7h-1.9v-2.8c0-.5-.2-.8-.6-.9-.4-.1-.8 0-1.1.3-.1.2-.2.3-.2.5v2.8zm13.7-4.7c.8 0 1.5.2 2.1.8 1 .9 1 2.4.1 3.3-1.2 1.1-3.2 1.1-4.3 0-1.1-1-.9-2.6.2-3.5.5-.4 1.1-.6 1.9-.6zm.7 2.4v-1.1c0-.3-.2-.6-.5-.8-.5-.2-1 .1-1.1.7v2.4c.1.4.4.7.8.7.5 0 .8-.3.8-.8v-1.1zm-17 .1h-3.7v1.3c.1.4.5.6.9.6s.7-.3.7-.7v-.5h1.9c0 .1 0 .1-.1.2-.4.8-1 1.3-1.9 1.5-1.1.3-2.2.1-3.1-.8-1-.9-.9-2.4.1-3.3.7-.6 1.5-.8 2.4-.8.9.1 1.6.4 2.1 1.1.3.4.5.8.5 1.2.2.1.2.1.2.2 0-.1 0-.1 0 0zm-2-.7v-.6c-.1-.4-.4-.7-.8-.7s-.7.3-.8.7v.5c0 .1 0 .1.1.1h1.5z"/>
    <path d="M151.5 63.2v-4.4h-1.1v-.6l.1-.1h1v-.9h2v.9h1.1v.6h-1.1v4.4c-.7.1-1.4.1-2 .1zm-8-4.4v4.4h-2v-4.4h2zm-2-2.2h2v1.3h-2v-1.3z"/>
  </g>
  <g fill="#FFF">
    <path d="M117.1 75.4v-1.2s0-.1.1-.1h.6l.8 1.6s.7-1.5.7-1.6c0 0 0-.1.1-.1h.5v2.5h-.4c-.1 0-.1 0-.1-.1v-1.1c-.1.2-.4.9-.5 1.1 0 .1 0 .1-.1.1h-.3c-.1 0-.1-.1-.1-.1l-.6-1.2v1.2s0 .1-.1.1h-.4c-.1 0-.1 0-.1-.1-.2-.2-.1-.5-.1-1 0 .1 0 0 0 0zm11.7 0v-1.2c0-.1 0-.1.1-.1h.4s.1 0 .1.1.7 1.5.7 1.5v.1s0 .1.1.1v-.1c0-.2.6-1.5.6-1.5 0-.1 0-.1.1-.2h.6v2.6h-.4v-1.2c0 .1-.4 1-.5 1.1h-.6c-.1-.1-.5-1-.5-1.1v-.1 1.2h-.4c-.1 0-.1 0-.1-.1-.2-.3-.2-.7-.2-1.1zm-1.5 1.4c-.2 0-.4 0-.6-.1-.1 0-.2-.1-.3-.2l-.3-.3c-.1-.1-.1-.2-.2-.3-.1-.2-.1-.4-.1-.6 0-.1 0-.2.1-.3 0-.1.1-.2.2-.3.1-.2.3-.4.6-.5.1-.1.3-.1.5-.1h.4c.1 0 .2.1.3.1.1 0 .1.1.2.1l.1.1c0 .1.1.1.1.1l.1.1c.1.1.1.2.2.4v.6c0 .2-.1.3-.2.5-.2.2-.4.4-.7.5-.1.2-.3.2-.4.2zm0-.5h.2c.2-.1.3-.1.5-.3.1-.1.2-.3.2-.5v-.2c0-.1 0-.2-.1-.2l-.2-.2c-.1-.1-.3-.2-.4-.2h-.2c-.1 0-.2 0-.3.1-.1.1-.2.1-.3.3-.1.1-.2.3-.2.5s0 .4.2.6l.3.3c.1-.3.2-.2.3-.2zm11.3-.2v.6c0 .1 0 .1-.1.1h-.4s-.1 0-.1-.1v-2.6h.9c.2 0 .3 0 .4.1l.3.3c.1.1.1.3.1.5 0 .1 0 .2-.1.3 0 0 0 .1-.1.1-.1.1-.2.3-.4.3v.1c.1.1.2.3.3.5.1.1.2.3.3.4h-.5c-.1-.2-.3-.5-.4-.7l-.3-.6v.5c.1.1.1.1.1.2zm0-1.1v.4h.5c.1 0 .2 0 .2-.1.1-.1.1-.3 0-.4 0-.1-.1-.1-.2-.1h-.5v.2zm-5.2.1v-.9c0-.1 0-.1.1-.1h.4v1.8c0 .1.1.2.2.3.3.1.5 0 .5-.3v-1.8h.4v1.8c0 .2-.1.4-.2.5-.1.1-.2.2-.4.3-.2.1-.4 0-.6 0-.2-.1-.3-.2-.4-.4 0-.1-.1-.2-.1-.3.1-.3.1-.6.1-.9z"/>
    <path d="M125.7 74.8h-.2c-.1 0-.1 0-.2-.1s-.2-.1-.3-.1h-.3c-.2 0-.4.1-.5.2l-.2.2c0 .1-.1.2-.1.4s.1.4.2.5c.1.1.1.2.2.2.2.1.3.1.5.1.1 0 .2-.1.4-.2h.6s.1 0 0 .1-.2.3-.3.4c-.1.1-.2.2-.3.2-.1 0-.2.1-.3.1h-.3c-.2 0-.5 0-.6-.2-.2-.1-.3-.2-.4-.3-.1-.1-.1-.2-.2-.3 0-.1-.1-.2-.1-.3v-.5c0-.1.1-.2.1-.3 0-.1.1-.1.1-.2.1-.1.2-.3.4-.4.1-.1.2-.1.3-.1.1 0 .2-.1.3 0 .3 0 .5.1.6.1.1 0 .2.1.3.2l.3.3v.1c.2-.1.1-.1 0-.1zm-8.8 1.9c-.2.1-.3.1-.4.1 0 0-.1 0 0 0v-.3h-.8c0 .1-.1.1-.1.2s-.1.1-.1.2h-.6c.1-.1.1-.1.1-.2.1-.2 1.6-2.4 1.7-2.4h.4l-.2 2.4zm-.5-1.2v-.3s0 .1-.1.1c-.1.2-.2.3-.4.5v.1h.5v-.4zm20.2-.1v-1.3c0-.1 0-.1.1-.1h1.2c.1 0 .1 0 .1.1v.4c0 .1 0 .1-.1.1h-.7s-.1 0-.1.1v.5s0 .1.1.1h.8v.4h-.8c-.1 0-.1 0-.1.1v.4s0 .1.1.1h.8s.1 0 .1.1v.4c0 .1 0 0-.1 0h-1.3s-.1 0-.1-.1v-1.3zm-5 0v-1.2c0-.1 0-.1.1-.1h.7c.2 0 .3.1.5.2.1.1.2.2.3.4.1.1.1.2.1.4 0 .1 0 .3-.1.4-.1.1-.2.3-.4.3-.1 0-.2.1-.3.1h-.3v.8s0 .1-.1.1h-.4s-.1 0-.1-.1v-1.3zm.5-.4v.3h.4l.1-.1s0-.1.1-.1V75c0-.1-.1-.3-.3-.3h-.4c.1 0 .1.1.1.3 0-.1 0-.1 0 0zm-18.2.4v-1.2c0-.1 0-.1.1-.1h1.3s.1 0 .1.1v.4s0 .1-.1.1h-.8s-.1 0-.1.1v.4c0 .1 0 .1.1.1h.7s.1 0 .1.1v.4s0 .1-.1.1h-.8s-.1 0-.1.1v.9s0 .1-.1.1h-.4v-.4c.1-.6.1-.9.1-1.2zm8 .8v-.6c-.1-.3-.3-.5-.4-.8-.1-.2-.2-.5-.4-.7V74h.5c.1 0 .1 0 .1.1.1.3.3.6.4.8 0 0 0 .1.1.1l.1-.1c.1-.3.3-.6.4-.9h.5v.1c-.3.5-.5 1-.8 1.5v1s0 .1-.1.1h-.4s-.1 0-.1-.1c.1-.1.1-.2.1-.4zm14.2-.5v1s0 .1-.1.1h-.4s-.1 0-.1-.1v-2c0-.1 0-.1-.1-.1h-.4v-.5h1.3c.1 0 .1 0 .1.1v.4h-.4v.1c.1.3.1.7.1 1z"/>
    <path d="M120.5 75.4v-1.2s0-.1.1-.1h.4s.1 0 .1.1v2c0 .1 0 .1.1.1h.5s.1 0 0 0v.4h-1.1c-.1 0-.1 0-.1-.1v-1.2c0 .1 0 0 0 0zm-.7 0v-1.2c0-.1 0-.1.1-.1h.4v2.5h-.4v-.4c-.1-.1-.1-.5-.1-.8z"/>
  </g>
  <path fill="#FFF" d="M143.7 76.1c0 .2-.1.3-.2.5-.1.1-.3.2-.5.2h-1v-.5h.1v-1.8h-.1V74h1.1c.2 0 .3.1.5.2.1.1.2.3.2.5v1.4zm-.5 0v-1.5l-.1-.1h-.4v1.8h.4s.1 0 .1-.1v-.1zm1.3.7h-.5V74h.5v2.8zm2-.6c0 .2-.1.3-.2.5-.1.1-.3.2-.5.2h-.4c-.2 0-.3-.1-.5-.2-.1-.1-.2-.3-.2-.4l.5-.1v.2l.1.1h.4s.1 0 .1-.1V76c0-.1 0-.2-.1-.2l-.7-.3c-.3-.1-.4-.3-.4-.6v-.2c0-.2.1-.3.2-.5.1-.1.3-.2.5-.2h.4c.2 0 .3.1.5.2.1.1.2.3.2.5l-.5.1v-.2l-.1-.1h-.4s-.1 0-.1.1v.2c0 .1 0 .2.1.2l.7.3c.3.1.4.3.4.6v.3zm2 .6h-.5v-.2l-.5-.9-.2.2v.9h-.5V74h.5v1l.7-.8V74h.5v.4l-.7.8.7 1.2v.4zm3.5-.6c0 .2-.1.3-.2.5-.1.1-.3.2-.5.2h-.3c-.2 0-.3-.1-.5-.2-.1-.1-.2-.3-.2-.4l.5-.1v.2l.1.1h.4s.1 0 .1-.1V76c0-.1 0-.2-.1-.2l-.7-.3c-.3-.1-.4-.3-.4-.6v-.2c0-.2.1-.3.2-.5.1-.1.3-.2.5-.2h.4c.2 0 .3.1.5.2.1.1.2.3.2.5l-.5.1v-.2l-.1-.1h-.4s-.1 0-.1.1v.2c0 .1 0 .2.1.2l.7.3c.3.1.4.3.4.6v.3zm1.9-1.8l-.6 1.1v1.3h-.5v-1.3l-.6-1.1V74h.5v.2l.3.6.3-.6V74h.5v.4zm2 1.8c0 .2-.1.3-.2.5-.1.1-.3.2-.5.2h-.4c-.2 0-.3-.1-.5-.2-.1-.1-.2-.3-.2-.4l.5-.1v.2l.1.1h.4s.1 0 .1-.1V76c0-.1 0-.2-.1-.2l-.7-.3c-.3-.1-.4-.3-.4-.6v-.2c0-.2.1-.3.2-.5.1-.1.3-.2.5-.2h.4c.2 0 .3.1.5.2.1.1.2.3.2.5l-.5.1v-.2l-.1-.1h-.4s-.1 0-.1.1v.2c0 .1 0 .2.1.2l.7.3c.3.1.4.3.4.6v.3zm1.9-1.7h-.6v2.3h-.5v-2.3h-.6V74h1.7v.5zm1.9 2.3H158V74h1.7v.5h-1.1v.7h.8v.5h-.8v.7h1.2v.4zm2 0h-.5v-1.3l-.2.6h-.4l-.2-.6v1.3h-.4V74h.5l.4 1.2.4-1.2h.5v2.8zm2.5-2.8h20.2v2.9h-20.2z"/>
  <path fill="#1D1D1B" d="M165.3 76.3v-1.9h.4v.8h1.6v-.8h.4v1.9h-.4v-.9h-1.6v.9h-.4zm3.9 0l-1.2-1.9h.4l.8 1.3c.1.1.1.2.2.3 0-.1.1-.2.2-.3l.8-1.3h.4l-1.2 1.9h-.4zm4.1-.6l.4.1c-.1.2-.2.4-.5.5-.2.1-.5.2-.8.2-.3 0-.6 0-.8-.1-.2-.1-.4-.2-.5-.4-.1-.2-.2-.3-.2-.5s.1-.4.2-.5c.1-.1.3-.3.5-.3.2-.1.5-.1.7-.1.3 0 .6 0 .8.1.2.1.3.2.4.4l-.4.1-.3-.3s-.3-.1-.5-.1-.4 0-.6.1c-.2.1-.3.2-.3.3-.1.1-.1.2-.1.4s0 .3.1.4l.3.3c.2.1.3.1.5.1s.4 0 .6-.1c.4-.3.5-.5.5-.6zm.7.1v-.2h1.1v.2H174zm1.5-.4c0-.3.1-.5.4-.7.3-.2.6-.3 1-.3.3 0 .5 0 .8.1.2.1.4.2.5.3.1.1.2.3.2.5s-.1.4-.2.5c-.1.1-.3.3-.5.3-.2.1-.5.1-.7.1-.3 0-.5 0-.8-.1-.2-.1-.4-.2-.5-.3-.1-.1-.2-.2-.2-.4zm.4 0c0 .2.1.4.3.5.2.1.4.2.7.2.3 0 .5-.1.7-.2.2-.1.3-.3.3-.6 0-.2 0-.3-.1-.4-.1-.1-.2-.2-.4-.3-.2-.1-.3-.1-.5-.1-.3 0-.5.1-.7.2-.2.3-.3.5-.3.7zm4.8.7v.2h-2v-.2c.1-.1.1-.2.2-.2.1-.1.3-.2.5-.3.3-.2.6-.3.7-.4.1-.1.2-.2.2-.3 0-.1-.1-.2-.2-.2-.1-.1-.2-.1-.4-.1s-.3 0-.4.1c-.1.1-.2.2-.2.3h-.4c0-.2.1-.3.3-.4.2-.1.4-.1.7-.1.3 0 .5 0 .7.1.2.1.3.2.3.4 0 .1 0 .1-.1.2 0 .1-.1.1-.2.2s-.3.2-.6.3l-.4.2c-.1 0-.1.1-.2.1h1.5z"/>
  <path d="M181.2 75.9s.3.2.8.2c.4 0 .7-.1.7-.3 0-.2-.4-.3-.8-.3h-.2l-.1-.1.7-.5c.1-.1.2-.1.2-.1h-1.4v-.2h2v.2l-.9.6c.4 0 1 .2 1 .5s-.4.6-1.1.6c-.7 0-1.1-.3-1.1-.3l.2-.3z"/>
</svg>
