<?xml version="1.0" encoding="UTF-8" standalone="no"?>
<svg
   xmlns:dc="http://purl.org/dc/elements/1.1/"
   xmlns:cc="http://creativecommons.org/ns#"
   xmlns:rdf="http://www.w3.org/1999/02/22-rdf-syntax-ns#"
   xmlns:svg="http://www.w3.org/2000/svg"
   xmlns="http://www.w3.org/2000/svg"
   xmlns:sodipodi="http://sodipodi.sourceforge.net/DTD/sodipodi-0.dtd"
   xmlns:inkscape="http://www.inkscape.org/namespaces/inkscape"
   viewBox="0 0 399.99999 499.39604"
   id="svg2"
   version="1.1"
   inkscape:version="0.91 r13725"
   sodipodi:docname="console.svg"
   width="400"
   height="499.39603"
   inkscape:export-filename="C:\Users\xizor\Desktop\recalbox-multi-v32\fds\data\console.png"
   inkscape:export-xdpi="168.46001"
   inkscape:export-ydpi="168.46001">
  <metadata
     id="metadata88">
    <rdf:RDF>
      <cc:Work
         rdf:about="">
        <dc:format>image/svg+xml</dc:format>
        <dc:type
           rdf:resource="http://purl.org/dc/dcmitype/StillImage" />
        <dc:title></dc:title>
      </cc:Work>
    </rdf:RDF>
  </metadata>
  <defs
     id="defs86" />
  <sodipodi:namedview
     pagecolor="#ffffff"
     bordercolor="#666666"
     borderopacity="1"
     objecttolerance="10"
     gridtolerance="10"
     guidetolerance="10"
     inkscape:pageopacity="0"
     inkscape:pageshadow="2"
     inkscape:window-width="1920"
     inkscape:window-height="1027"
     id="namedview84"
     showgrid="false"
     fit-margin-top="0"
     fit-margin-left="0"
     fit-margin-right="0"
     fit-margin-bottom="0"
     inkscape:zoom="0.81548032"
     inkscape:cx="115.9"
     inkscape:cy="144.7"
     inkscape:window-x="-8"
     inkscape:window-y="-8"
     inkscape:window-maximized="1"
     inkscape:current-layer="svg2" />
  <path
     d="m 281.79465,499.39603 -20.70751,0 c -4.83175,0 -8.62812,-3.96894 -8.62812,-8.62813 l 0,-22.26057 c 0,-4.83175 3.96894,-8.62812 8.62812,-8.62812 l 20.70751,0 c 4.83175,0 8.62813,3.96893 8.62813,8.62812 l 0,22.26057 c 0,4.65919 -3.79638,8.62813 -8.62813,8.62813 z"
     id="path4"
     inkscape:connector-curvature="0"
     style="fill:#faaf40" />
  <path
     d="m 48.835203,496.11734 c -8.628128,0 -15.703193,-6.9025 -16.048318,-15.53063 l -3.968938,-47.28214 0,-410.35375 C 28.990509,14.15013 36.065574,6.9025 44.866264,6.9025 l 312.510786,0 c 8.80069,0 16.04832,7.24763 16.04832,16.04832 l 0,411.044 -3.96894,46.76445 c -0.17256,8.62813 -7.24763,15.53063 -16.04832,15.53063 l -304.572907,0 z"
     id="path6"
     inkscape:connector-curvature="0"
     style="fill:#a91c41" />
  <path
     d="m 353.40811,482.65746 -304.572907,0 c -4.314064,0 -7.937878,-3.62381 -7.937878,-7.93788 l -3.968938,-47.10957 0,-410.18119 c 0,-4.31407 3.623813,-7.93788 7.937877,-7.93788 l 312.510786,0 c 4.31406,0 7.93788,3.62381 7.93788,7.93788 l 0,410.69888 -3.96894,46.59188 c 0.17256,4.31407 -3.45125,7.93788 -7.93788,7.93788 z"
     id="path8"
     inkscape:connector-curvature="0"
     style="fill:#bfa886" />
  <path
     d="m 36.928387,426.22951 328.559103,0 0,2.41587 -328.559103,0 z m 209.836063,-3.10613 -91.11303,0 c -2.93356,0 -5.17687,-2.41587 -5.17687,-5.17688 l 0,-153.40811 c 0,-2.93356 2.41587,-5.17687 5.17687,-5.17687 l 91.11303,0 c 2.93357,0 5.17688,2.41587 5.17688,5.17687 l 0,153.40811 c 0,2.76101 -2.24331,5.17688 -5.17688,5.17688 z M 155.65142,261.60483 c -1.55306,0 -2.761,1.20794 -2.761,2.761 l 0,153.40811 c 0,1.55306 1.20794,2.761 2.761,2.761 l 91.11303,0 c 1.55307,0 2.761,-1.20794 2.761,-2.761 l 0,-153.40811 c 0,-1.55306 -1.20793,-2.761 -2.761,-2.761 l -91.11303,0 z"
     id="path10"
     inkscape:connector-curvature="0"
     style="fill:#ffffff" />
  <path
     d="m 204.48663,260.39689 2.41587,0 0,94.39172 -2.41587,0 z m -7.93788,0 2.41587,0 0,94.39172 -2.41587,0 z M 134.94392,80.41415 c -0.69025,0 -1.20794,-0.51769 -1.20794,-1.20794 l 0,-69.02502 c 0,-0.69025 0.51769,-1.20794 1.20794,-1.20794 0.69025,0 1.20794,0.51769 1.20794,1.20794 l 0,69.02502 c 0,0.69025 -0.51769,1.20794 -1.20794,1.20794 z m 11.38913,0 c -0.69025,0 -1.20794,-0.51769 -1.20794,-1.20794 l 0,-69.02502 c 0,-0.69025 0.51769,-1.20794 1.20794,-1.20794 0.69025,0 1.20793,0.51769 1.20793,1.20794 l 0,69.02502 c 0,0.69025 -0.51768,1.20794 -1.20793,1.20794 z m 11.38912,0 c -0.69025,0 -1.20793,-0.51769 -1.20793,-1.20794 l 0,-69.02502 c 0,-0.69025 0.51768,-1.20794 1.20793,-1.20794 0.69025,0 1.20794,0.51769 1.20794,1.20794 l 0,69.02502 c 0,0.69025 -0.69025,1.20794 -1.20794,1.20794 z m 11.21657,0 c -0.69025,0 -1.20794,-0.51769 -1.20794,-1.20794 l 0,-69.02502 c 0,-0.69025 0.51769,-1.20794 1.20794,-1.20794 0.69025,0 1.20794,0.51769 1.20794,1.20794 l 0,69.02502 c 0,0.69025 -0.51769,1.20794 -1.20794,1.20794 z m 11.38913,0 c -0.69025,0 -1.20794,-0.51769 -1.20794,-1.20794 l 0,-69.02502 c 0,-0.69025 0.51769,-1.20794 1.20794,-1.20794 0.69025,0 1.20794,0.51769 1.20794,1.20794 l 0,69.02502 c 0,0.69025 -0.51769,1.20794 -1.20794,1.20794 z m 11.38913,0 c -0.69025,0 -1.20794,-0.51769 -1.20794,-1.20794 l 0,-69.02502 c 0,-0.69025 0.51769,-1.20794 1.20794,-1.20794 0.69025,0 1.20794,0.51769 1.20794,1.20794 l 0,69.02502 c 0,0.69025 -0.51769,1.20794 -1.20794,1.20794 z m 11.38913,0 c -0.69025,0 -1.20794,-0.51769 -1.20794,-1.20794 l 0,-69.02502 c 0,-0.69025 0.51769,-1.20794 1.20794,-1.20794 0.69025,0 1.20793,0.51769 1.20793,1.20794 l 0,69.02502 c 0,0.69025 -0.69025,1.20794 -1.20793,1.20794 z m 11.21656,0 c -0.69025,0 -1.20794,-0.51769 -1.20794,-1.20794 l 0,-69.02502 c 0,-0.69025 0.51769,-1.20794 1.20794,-1.20794 0.69025,0 1.20794,0.51769 1.20794,1.20794 l 0,69.02502 c 0,0.69025 -0.51769,1.20794 -1.20794,1.20794 z m 11.38913,0 c -0.69025,0 -1.20794,-0.51769 -1.20794,-1.20794 l 0,-69.02502 c 0,-0.69025 0.51769,-1.20794 1.20794,-1.20794 0.69025,0 1.20794,0.51769 1.20794,1.20794 l 0,69.02502 c 0,0.69025 -0.51769,1.20794 -1.20794,1.20794 z m 11.38913,0 c -0.69025,0 -1.20794,-0.51769 -1.20794,-1.20794 l 0,-69.02502 c 0,-0.69025 0.51769,-1.20794 1.20794,-1.20794 0.69025,0 1.20794,0.51769 1.20794,1.20794 l 0,69.02502 c 0,0.69025 -0.51769,1.20794 -1.20794,1.20794 z m 11.38913,0 c -0.69025,0 -1.20794,-0.51769 -1.20794,-1.20794 l 0,-69.02502 c 0,-0.69025 0.51769,-1.20794 1.20794,-1.20794 0.69025,0 1.20794,0.51769 1.20794,1.20794 l 0,69.02502 c 0,0.69025 -0.51769,1.20794 -1.20794,1.20794 z m 11.21656,0 c -0.69025,0 -1.20793,-0.51769 -1.20793,-1.20794 l 0,-69.02502 c 0,-0.69025 0.51768,-1.20794 1.20793,-1.20794 0.69025,0 1.20794,0.51769 1.20794,1.20794 l 0,69.02502 c 0,0.69025 -0.51769,1.20794 -1.20794,1.20794 z m 11.38913,0 c -0.69025,0 -1.20794,-0.51769 -1.20794,-1.20794 l 0,-69.02502 c 0,-0.69025 0.51769,-1.20794 1.20794,-1.20794 0.69025,0 1.20794,0.51769 1.20794,1.20794 l 0,69.02502 c 0,0.69025 -0.51769,1.20794 -1.20794,1.20794 z m -237.618635,-7.42019 78.343395,0 0,2.41588 -78.343395,0 z m 262.985335,0 78.3434,0 0,2.41588 -78.3434,0 z"
     id="path12"
     inkscape:connector-curvature="0"
     style="fill:#ffffff" />
  <path
     d="m 238.99914,385.84987 -75.5824,0 c -4.83175,0 -8.62813,-3.96894 -8.62813,-8.62813 l 0,-30.71613 c 0,-4.83175 3.96894,-8.62813 8.62813,-8.62813 l 75.40983,0 c 4.83176,0 8.62813,3.96894 8.62813,8.62813 l 0,30.71613 c 0.17256,4.83175 -3.79637,8.62813 -8.45556,8.62813 z"
     id="path14"
     inkscape:connector-curvature="0"
     style="fill:#a91c41" />
  <path
     d="m 393.96031,240.20707 6.03969,0 0,62.12252 -6.03969,0 z m 0,-105.9534 6.03969,0 0,31.75151 -6.03969,0 z m 0,-51.42365 6.03969,0 0,31.75152 -6.03969,0 z M 0,92.32097 l 6.2122519,0 0,62.12251 -6.2122519,0 z m 0,136.15185 6.2122519,0 0,31.75151 -6.2122519,0 z m 0,51.42364 6.2122519,0 0,31.75151 -6.2122519,0 z"
     id="path16"
     inkscape:connector-curvature="0"
     style="fill:#231f20" />
  <path
     d="m 297.84297,413.11475 -20.70751,0 c -4.83175,0 -8.62813,-3.96894 -8.62813,-8.62812 l 0,-22.26057 c 0,-4.83176 3.96894,-8.62813 8.62813,-8.62813 l 20.70751,0 c 4.83175,0 8.62813,3.96894 8.62813,8.62813 l 0,22.26057 c 0,4.65918 -3.96894,8.62812 -8.62813,8.62812 z m -171.52718,0 -20.70751,0 c -4.83175,0 -8.628125,-3.96894 -8.628125,-8.62812 l 0,-22.26057 c 0,-4.83176 3.968935,-8.62813 8.628125,-8.62813 l 20.70751,0 c 4.83175,0 8.62813,3.96894 8.62813,8.62813 l 0,22.26057 c 0,4.65918 -3.79638,8.62812 -8.62813,8.62812 z m 221.22519,50.56083 -295.254526,0 c -2.243313,0 -3.968939,-1.72562 -3.968939,-3.96894 l -1.553063,-15.53063 c 0,-2.24331 1.725626,-3.96894 3.968939,-3.96894 l 298.360659,0 c 2.24331,0 3.96894,1.72563 3.96894,3.96894 l -1.55307,15.53063 c 0.17256,2.24332 -1.72562,3.96894 -3.96894,3.96894 z m -15.87575,-258.4987 -263.330459,0 c -2.243313,0 -3.968938,-1.72563 -3.968938,-3.96894 l 0,-56.94565 -1.553063,-7.93787 c 0,-2.24332 1.725625,-3.96894 3.968938,-3.96894 l 266.436582,0 c 2.24331,0 3.96894,1.72562 3.96894,3.96894 l -1.55306,6.9025 0,58.15358 c 0,2.07075 -1.89819,3.79638 -3.96894,3.79638 z"
     id="path18"
     inkscape:connector-curvature="0"
     style="fill:#a91c41" />
  <path
     d="m 297.32528,123.55479 -186.71268,0 0,-114.23641 2.41587,0 0,111.82053 182.0535,0 0,-111.82053 2.24331,0"
     id="path20"
     inkscape:connector-curvature="0"
     style="fill:#ffffff" />
  <path
     d="m 14.667817,53.32183 33.13201,0 c 4.831752,0 8.628128,3.96894 8.628128,8.62813 l 0,270.57808 c 0,4.83175 -3.968939,8.62813 -8.628128,8.62813 l -33.13201,0 c -4.659189,0 -8.6281276,-3.79638 -8.6281276,-8.62813 l 0,-270.57808 c 0,-4.65919 3.7963762,-8.62813 8.6281276,-8.62813 z m 337.532353,287.83434 33.13201,0 c 4.83175,0 8.62813,-3.96894 8.62813,-8.62813 l 0,-270.57808 c 0,-4.83176 -3.96894,-8.62813 -8.62813,-8.62813 l -33.13201,0 c -4.83175,0 -8.62813,3.96894 -8.62813,8.62813 l 0,270.57808 c 0,4.65919 3.96894,8.62813 8.62813,8.62813 z"
     id="path22"
     inkscape:connector-curvature="0"
     style="fill:#a91c41" />
  <path
     d="m 138.91286,423.12338 -77.825716,0 c -2.933563,0 -5.176877,-2.41587 -5.176877,-5.17688 l 0,-49.52545 c 0,-2.93356 2.415876,-5.17688 5.176877,-5.17688 l 77.825716,0 c 2.93356,0 5.17687,2.41588 5.17687,5.17688 l 0,49.52545 c 0,2.76101 -2.24331,5.17688 -5.17687,5.17688 z M 61.087144,365.48749 c -1.553063,0 -2.761001,1.20794 -2.761001,2.761 l 0,49.52545 c 0,1.55306 1.207938,2.761 2.761001,2.761 l 77.825716,0 c 1.55306,0 2.761,-1.20794 2.761,-2.761 l 0,-49.52545 c 0,-1.55306 -1.20794,-2.761 -2.761,-2.761 l -77.825716,0 z m 281.104396,57.63589 -77.82571,0 c -2.93356,0 -5.17687,-2.41587 -5.17687,-5.17688 l 0,-49.52545 c 0,-2.93356 2.41587,-5.17688 5.17687,-5.17688 l 77.82571,0 c 2.93357,0 5.17688,2.41588 5.17688,5.17688 l 0,49.52545 c 0.17256,2.76101 -2.24331,5.17688 -5.17688,5.17688 z M 264.5384,365.48749 c -1.55307,0 -2.76101,1.20794 -2.76101,2.761 l 0,49.52545 c 0,1.55306 1.20794,2.761 2.76101,2.761 l 77.82571,0 c 1.55306,0 2.761,-1.20794 2.761,-2.761 l 0,-49.52545 c 0,-1.55306 -1.20794,-2.761 -2.761,-2.761 l -77.82571,0 z m -208.110445,-144.2623 287.316655,0 0,2.41588 -287.316655,0 z"
     id="path24"
     inkscape:connector-curvature="0"
     style="fill:#ffffff" />
  <path
     d="m 131.49267,396.54875 -31.06126,0 c -1.898192,0 -3.451255,1.55306 -3.451255,3.45125 l 0,3.79638 c 0,1.89818 1.553063,3.45125 3.451255,3.45125 l 31.06126,0 c 1.89818,0 3.45125,-1.55307 3.45125,-3.45125 l 0,-3.79638 c 0,-1.89819 -1.55307,-3.45125 -3.45125,-3.45125 z m 112.68334,-17.60138 -85.93615,0 c -1.89819,0 -3.45125,-1.55307 -3.45125,-3.45125 l 0,-27.43745 c 0,-1.89819 1.55306,-3.45125 3.45125,-3.45125 l 85.76359,0 c 1.89819,0 3.45125,1.55306 3.45125,3.45125 l 0,27.43745 c 0.17256,1.89818 -1.3805,3.45125 -3.27869,3.45125 z m 87.48922,-173.77049 -263.330459,0 c -2.243313,0 -3.968938,-1.72563 -3.968938,-3.96894 0,-2.24332 1.725625,-3.96894 3.968938,-3.96894 l 263.330459,0 c 2.24331,0 3.96894,1.72562 3.96894,3.96894 0,2.24331 -1.89819,3.96894 -3.96894,3.96894 z m 1.55306,-65.05609 -266.436582,0 c -2.243313,0 -3.968938,-1.72562 -3.968938,-3.96894 0,-2.24331 1.725625,-3.96894 3.968938,-3.96894 l 266.436582,0 c 2.24331,0 3.96894,1.72563 3.96894,3.96894 0,2.24332 -1.72563,3.96894 -3.96894,3.96894 z"
     id="path26"
     inkscape:connector-curvature="0"
     style="fill:#59011d" />
  <g
     id="g28"
     transform="scale(1.7256255,1.7256255)"
     style="fill:#bfa886">
    <path
       d="m 67.9,256.7 5.1,0 0,1.5 -3.3,0 0,1.8 3.3,0 0,1.6 -3.3,0 0,3.3 -1.8,0 m 10.9,0 -1.7,0 0,-1.3 -3.4,0 -1,1.3 -2,0 6.7,-8.2 1.4,0 0,8.2 z m -1.7,-2.8 0,-2.4 -2.1,2.4 2.1,0 z m 2.4,-5.4 2,0 2.8,5.5 2.9,-5.5 2,0 0,8.2 -1.8,0 0,-4.2 -2.2,4.2 -1.8,0 -2.1,-4.2 0,4.2 -1.8,0 m 43.1,-8.2 2,0 2.9,5.5 2.8,-5.5 2.1,0 0,8.2 -1.8,0 0,-4.2 -2.2,4.2 -1.8,0 -2.2,-4.2 0,4.2 -1.8,0 m -32.8,-8.2 1.9,0 0,8.2 -1.9,0 z m 2.4,0 1.8,0 0,6.7 2.4,0 0,1.5 -4.2,0 m 2.2,-8.2 2,0 2,3.3 1.9,-3.3 2,0 -3.1,5.2 0,3 -1.8,0 0,-3 m 15,-3 c -0.8,-1.3 -2.4,-2.2 -4.3,-2.2 -2.7,0 -4.9,1.9 -4.9,4.2 0,2.3 2.2,4.2 4.9,4.2 1.9,0 3.5,-0.9 4.3,-2.3 l -2.2,0 c -0.5,0.4 -1.3,0.7 -2.1,0.7 -1.7,0 -3.1,-1.2 -3.1,-2.6 0,-1.4 1.4,-2.6 3.1,-2.6 0.8,0 1.5,0.3 2,0.7 l 2.3,-0.1 z"
       id="path30"
       inkscape:connector-curvature="0" />
    <path
       d="m 117.2,265.1 c -2.7,0 -4.9,-1.9 -4.9,-4.2 0,-2.3 2.2,-4.2 4.9,-4.2 2.7,0 4.9,1.9 4.9,4.2 0,2.3 -2.2,4.2 -4.9,4.2 z m 3.1,-4.2 c 0,-1.5 -1.4,-2.7 -3.1,-2.7 -1.7,0 -3.1,1.2 -3.1,2.7 0,1.5 1.4,2.7 3.1,2.7 1.7,-0.1 3.1,-1.3 3.1,-2.7 z m 15.9,-4.2 c 1.6,0.1 2.9,1.3 2.9,2.7 0,1.4 -1.3,2.6 -2.9,2.7 l -1.4,0 0,2.8 -1.8,0 0,-8.2 3.2,0 z m -1.4,1.6 0,2.2 1.4,0 c 0.6,-0.1 1.1,-0.6 1.1,-1.1 0,-0.6 -0.5,-1 -1.1,-1.1 l -1.4,0 z m 24,6.7 -1.8,0 0,-8.2 3.9,0 c 1.6,0.1 2.9,1.3 2.9,2.7 0,1.2 -0.9,2.1 -2,2.5 l 2.1,3 -1.9,0 -2.9,-4.3 -0.2,0 -0.1,4.3 z m 2.1,-4.5 c 0.6,-0.1 1.1,-0.6 1.1,-1.1 0,-0.6 -0.5,-1 -1.1,-1.1 l -2.1,0 0,2.2 2.1,0 z m -19.5,0.9 0,1.2 c 0.1,0.5 0.7,0.9 1.3,0.9 0.6,0 1.2,-0.4 1.3,-0.9 l 0,-5.9 1.8,0 0,5.9 c -0.1,1.4 -1.5,2.5 -3.1,2.5 -1.7,0 -3,-1.1 -3.1,-2.5 l 0,-5.9 1.8,0 0,4.7 z m 6.3,3.6 1.8,0 0,-6.7 1.7,0 0,-1.6 -5.1,0 0,1.6 1.6,0 m 8.9,6.7 -5,0 0,-8.3 5,0 0,1.6 -3.2,0 0,1.9 3.2,0 0,1.5 -3.2,0 0,1.8 3.2,0 M 28.1,267 C 28,266.8 28,266.6 28,266.4 l 0,-0.2 142.6,0 0,0.8 -142.5,0 z m 175.7,0 0,-0.8 -12.6,0 0,0.8 12.6,0 z"
       id="path32"
       inkscape:connector-curvature="0" />
  </g>
  <g
     id="g34"
     transform="scale(1.7256255,1.7256255)"
     style="fill:#bfa886">
    <path
       d="m 171.9,264.8 0.8,0 1.1,1.8 0,-1.8 0.8,0 0,2.6 -0.8,0 -1.1,-1.8 0,1.8 -0.8,0 0,-2.6 z m 7,0.3 0.8,0 0,0.4 0.4,0 0,0.3 -0.4,0 0,1.7 -0.8,0 0,-1.7 -0.4,0 0,-0.3 0.4,0 0,-0.4 z m -3.9,0.6 0.8,0 0,1.7 -0.8,0 0,-1.7 z m 0,-0.9 0.8,0 0,0.5 -0.8,0 0,-0.5 z m 13.4,0.8 c -0.6,0 -1.1,0.4 -1.1,1 0,0.5 0.5,1 1.1,1 0.6,0 1.1,-0.4 1.1,-1 0,-0.6 -0.5,-1 -1.1,-1 m 0.3,0.9 0,0.4 c 0,0.3 -0.2,0.4 -0.3,0.4 -0.2,0 -0.3,-0.1 -0.3,-0.4 l 0,-0.8 c 0,-0.3 0.2,-0.4 0.3,-0.4 0.2,0 0.3,0.1 0.3,0.4 l 0,0.4 z m -2.4,0 0,-0.3 c 0,-0.3 -0.2,-0.3 -0.3,-0.3 -0.1,0 -0.3,0.1 -0.3,0.3 l 0,0.6 c 0,0.3 0.2,0.3 0.3,0.3 0.1,0 0.3,-0.1 0.3,-0.3 l 0,-0.3 z m 0,-1.7 0.8,0 0,2.6 -0.8,0 0,-0.1 c -0.3,0.2 -0.6,0.2 -0.9,0.1 -0.1,0 -0.5,-0.3 -0.5,-0.9 0,-0.5 0.4,-1 1,-0.9 0.2,0 0.3,0.1 0.4,0.2 l 0,-1 z m -8.7,0.8 c 0.3,0 0.9,0.2 0.9,0.9 l 0,0.9 -0.8,0 0,-1.1 c 0,-0.2 -0.1,-0.3 -0.3,-0.3 -0.2,0 -0.4,0.2 -0.4,0.3 l 0,1.1 -0.8,0 0,-1.7 0.8,0 0,0.2 c 0.1,-0.2 0.3,-0.3 0.6,-0.3 m 6.2,0 c 0.3,0 0.9,0.2 0.9,0.9 l 0,0.9 -0.8,0 0,-1.1 c 0,-0.2 -0.1,-0.3 -0.3,-0.3 -0.2,0 -0.4,0.2 -0.4,0.3 l 0,1.1 -0.8,0 0,-1.7 0.8,0 0,0.2 c 0.1,-0.2 0.3,-0.3 0.6,-0.3"
       id="path36"
       inkscape:connector-curvature="0" />
    <path
       d="m 181.4,266.8 0,0.1 c 0,0.3 -0.2,0.4 -0.3,0.4 -0.1,0 -0.3,-0.1 -0.3,-0.4 l 0,-0.4 1.4,0 c 0,-0.5 -0.5,-1 -1.1,-1 -0.6,0 -1.1,0.4 -1.1,1 0,0.5 0.5,1 1.1,1 0.5,0 1,-0.3 1.1,-0.7 l -0.8,0 z m -0.7,-0.5 c 0,-0.2 0,-0.3 0.1,-0.3 0.1,-0.1 0.2,-0.2 0.3,-0.2 0.1,0 0.2,0.1 0.3,0.2 0,0.1 0.1,0.2 0.1,0.3 l -0.8,0 z m 9,-1.2 c 0.1,0 0.1,0 0.1,-0.1 0,-0.1 -0.1,-0.1 -0.1,-0.1 l -0.1,0 0,0.2 0.1,0 z m -0.1,0.3 -0.1,-0.6 0.2,0 c 0.1,0 0.2,0.1 0.2,0.2 0,0.1 -0.1,0.2 -0.1,0.2 l 0.2,0.3 -0.1,0 -0.2,-0.3 -0.1,0 0,0.2 z"
       id="path38"
       inkscape:connector-curvature="0" />
    <path
       d="m 189.7,265.6 c 0.2,0 0.4,-0.2 0.4,-0.4 0,-0.2 -0.2,-0.4 -0.4,-0.4 -0.2,0 -0.4,0.2 -0.4,0.4 0,0.2 0.2,0.4 0.4,0.4 m -0.5,-0.5 c 0,-0.3 0.2,-0.5 0.5,-0.5 0.3,0 0.5,0.2 0.5,0.5 0,0.3 -0.2,0.5 -0.5,0.5 -0.3,0.1 -0.5,-0.2 -0.5,-0.5"
       id="path40"
       inkscape:connector-curvature="0" />
  </g>
  <g
     id="g42"
     transform="scale(1.7256255,1.7256255)"
     style="fill:#bfa886">
    <circle
       cx="43.5"
       cy="257.79999"
       r="1.1"
       id="circle44" />
    <path
       d="m 41.9,257.5 0,-0.2 c 0,-0.4 -0.3,-0.7 -0.7,-0.7 -0.3,0 -0.6,0.2 -0.7,0.5 l -2.2,6.8 0,0.2 c 0,0.4 0.3,0.7 0.7,0.7 0.3,0 0.6,-0.2 0.7,-0.5 l 2.2,-6.8 z"
       id="path46"
       inkscape:connector-curvature="0" />
    <circle
       cx="42.599998"
       cy="260.29999"
       r="1.1"
       id="circle48" />
    <circle
       cx="48.299999"
       cy="257.79999"
       r="1.1"
       id="circle50" />
    <path
       d="m 46.7,257.5 0,-0.2 c 0,-0.4 -0.3,-0.7 -0.7,-0.7 -0.3,0 -0.6,0.2 -0.7,0.5 l -2.2,6.8 0,0.2 c 0,0.4 0.3,0.7 0.7,0.7 0.3,0 0.6,-0.2 0.7,-0.5 l 2.2,-6.8 z"
       id="path52"
       inkscape:connector-curvature="0" />
    <circle
       cx="47.400002"
       cy="260.29999"
       r="1.1"
       id="circle54" />
  </g>
  <path
     d="m 56.427955,262.12252 0,-137.70492 4.141501,0 0,-4.31406 -4.141501,0 0,-5.86713 3.796376,0 0,-4.1415 -3.796376,0 0,-5.69457 3.796376,0 0,-4.1415 -3.796376,0 0,-4.83175 3.796376,0 0,-4.1415 -3.796376,0 0,-5.17688 4.141501,0 0,-4.1415 -4.141501,0 0,-75.23727 287.144085,0 0,75.23727 -5.34943,0 0,4.1415 5.34943,0 0,5.17688 -5.34943,0 0,4.1415 5.34943,0 0,4.83175 -5.34943,0 0,4.1415 5.34943,0 0,5.69457 -5.34943,0 0,4.1415 5.34943,0 0,5.86713 -5.34943,0 0,4.31406 5.34943,0 0,137.70492"
     id="path56"
     inkscape:connector-curvature="0"
     style="fill:#3c3c3b" />
  <path
     d="m 60.569456,81.96721 277.653154,0 0,4.1415 -277.653154,0 z m 0,38.13633 277.653154,0 0,4.1415 -277.653154,0 z m -0.345125,-28.81795 159.792929,0 0,4.1415 -159.792929,0 z m 0,8.97325 159.792929,0 0,4.1415 -159.792929,0 z m 0,9.83607 159.792929,0 0,4.1415 -159.792929,0 z"
     id="path58"
     inkscape:connector-curvature="0" />
  <path
     d="m 220.01726,86.10871 2.07075,0 0,34.16739 -2.07075,0 z m 97.15271,0 2.07075,0 0,34.16739 -2.07075,0 z m 2.07075,5.17688 18.80932,0 0,4.1415 -18.80932,0 z m 0,8.97325 18.80932,0 0,4.1415 -18.80932,0 z m 0,9.83607 18.80932,0 0,4.1415 -18.80932,0 z"
     id="path60"
     inkscape:connector-curvature="0" />
  <path
     d="m 315.61691,0 -128.90423,0 -2.24331,6.72994 134.77135,0"
     id="path62"
     inkscape:connector-curvature="0"
     style="fill:#333333" />
  <g
     id="g64"
     transform="scale(1.7256255,1.7256255)"
     style="fill:#ffffff">
    <path
       d="m 140.3,63.2 -1.9,0 c -0.1,0 -0.2,0 -0.2,-0.1 -0.9,-1.4 -1.8,-2.9 -2.7,-4.3 l -0.1,-0.1 0,4.6 -2,0 0,-6.6 1.9,0 c 0.1,0 0.2,0 0.2,0.1 0.9,1.4 1.8,2.9 2.7,4.3 l 0.1,0.1 0,-4.5 2,0 0,6.5 z m 32.5,-6.6 0,6.6 -1.9,0 0,-0.2 c -1.3,0.6 -2.4,0.5 -3.3,-0.7 -0.6,-0.8 -0.5,-1.9 0.1,-2.7 0.4,-0.5 0.9,-0.8 1.5,-0.9 0.6,-0.1 1.2,0 1.7,0.4 l 0,-2.4 c 0.6,-0.1 1.2,-0.1 1.9,-0.1 z m -3.5,4.3 0,0.9 c 0,0.4 0.3,0.7 0.8,0.8 0.4,0 0.8,-0.3 0.8,-0.7 l 0,-2 c -0.1,-0.4 -0.4,-0.6 -0.9,-0.6 -0.4,0 -0.7,0.3 -0.7,0.7 l 0,0.9 z m -19,2.3 -1.9,0 0,-2.8 c 0,-0.5 -0.3,-0.8 -0.7,-0.9 -0.4,-0.1 -0.9,0.1 -1.1,0.5 -0.1,0.1 -0.1,0.3 -0.1,0.4 l 0,2.8 -1.9,0 0,-4.4 1.9,0 0,0.4 0.1,-0.1 c 0.9,-0.8 2.3,-0.7 3.1,0.1 0.4,0.4 0.5,0.9 0.6,1.4 0.1,0.9 0.1,1.7 0,2.6 0.1,-0.1 0.1,-0.1 0,0 z m 12.4,0 -1.9,0 0,-4.4 1.9,0 0,0.5 c 0.1,-0.1 0.1,-0.1 0.2,-0.1 1,-0.8 2.5,-0.7 3.2,0.3 0.3,0.3 0.4,0.7 0.4,1.1 l 0,2.7 -1.9,0 0,-2.8 c 0,-0.5 -0.2,-0.8 -0.6,-0.9 -0.4,-0.1 -0.8,0 -1.1,0.3 -0.1,0.2 -0.2,0.3 -0.2,0.5 l 0,2.8 z m 13.7,-4.7 c 0.8,0 1.5,0.2 2.1,0.8 1,0.9 1,2.4 0.1,3.3 -1.2,1.1 -3.2,1.1 -4.3,0 -1.1,-1 -0.9,-2.6 0.2,-3.5 0.5,-0.4 1.1,-0.6 1.9,-0.6 z m 0.7,2.4 0,-1.1 c 0,-0.3 -0.2,-0.6 -0.5,-0.8 -0.5,-0.2 -1,0.1 -1.1,0.7 l 0,2.4 c 0.1,0.4 0.4,0.7 0.8,0.7 0.5,0 0.8,-0.3 0.8,-0.8 l 0,-1.1 z m -17,0.1 -3.7,0 0,1.3 c 0.1,0.4 0.5,0.6 0.9,0.6 0.4,0 0.7,-0.3 0.7,-0.7 l 0,-0.5 1.9,0 c 0,0.1 0,0.1 -0.1,0.2 -0.4,0.8 -1,1.3 -1.9,1.5 -1.1,0.3 -2.2,0.1 -3.1,-0.8 -1,-0.9 -0.9,-2.4 0.1,-3.3 0.7,-0.6 1.5,-0.8 2.4,-0.8 0.9,0.1 1.6,0.4 2.1,1.1 0.3,0.4 0.5,0.8 0.5,1.2 0.2,0.1 0.2,0.1 0.2,0.2 0,-0.1 0,-0.1 0,0 z m -2,-0.7 0,-0.6 C 158,59.3 157.7,59 157.3,59 c -0.4,0 -0.7,0.3 -0.8,0.7 l 0,0.5 c 0,0.1 0,0.1 0.1,0.1 l 1.5,0 z"
       id="path66"
       inkscape:connector-curvature="0" />
    <path
       d="m 151.5,63.2 0,-4.4 -1.1,0 0,-0.6 0.1,-0.1 1,0 0,-0.9 2,0 0,0.9 1.1,0 0,0.6 -1.1,0 0,4.4 c -0.7,0.1 -1.4,0.1 -2,0.1 z m -8,-4.4 0,4.4 -2,0 0,-4.4 2,0 z m -2,-2.2 2,0 0,1.3 -2,0 0,-1.3 z"
       id="path68"
       inkscape:connector-curvature="0" />
  </g>
  <g
     id="g70"
     transform="scale(1.7256255,1.7256255)"
     style="fill:#ffffff">
    <path
       d="m 117.1,75.4 0,-1.2 c 0,0 0,-0.1 0.1,-0.1 l 0.6,0 0.8,1.6 c 0,0 0.7,-1.5 0.7,-1.6 0,0 0,-0.1 0.1,-0.1 l 0.5,0 0,2.5 -0.4,0 c -0.1,0 -0.1,0 -0.1,-0.1 l 0,-1.1 c -0.1,0.2 -0.4,0.9 -0.5,1.1 0,0.1 0,0.1 -0.1,0.1 l -0.3,0 c -0.1,0 -0.1,-0.1 -0.1,-0.1 l -0.6,-1.2 0,1.2 c 0,0 0,0.1 -0.1,0.1 l -0.4,0 c -0.1,0 -0.1,0 -0.1,-0.1 -0.2,-0.2 -0.1,-0.5 -0.1,-1 0,0.1 0,0 0,0 z m 11.7,0 0,-1.2 c 0,-0.1 0,-0.1 0.1,-0.1 l 0.4,0 c 0,0 0.1,0 0.1,0.1 0,0.1 0.7,1.5 0.7,1.5 l 0,0.1 c 0,0 0,0.1 0.1,0.1 l 0,-0.1 c 0,-0.2 0.6,-1.5 0.6,-1.5 0,-0.1 0,-0.1 0.1,-0.2 l 0.6,0 0,2.6 -0.4,0 0,-1.2 c 0,0.1 -0.4,1 -0.5,1.1 l -0.6,0 c -0.1,-0.1 -0.5,-1 -0.5,-1.1 l 0,-0.1 0,1.2 -0.4,0 c -0.1,0 -0.1,0 -0.1,-0.1 -0.2,-0.3 -0.2,-0.7 -0.2,-1.1 z m -1.5,1.4 c -0.2,0 -0.4,0 -0.6,-0.1 -0.1,0 -0.2,-0.1 -0.3,-0.2 l -0.3,-0.3 C 126,76.1 126,76 125.9,75.9 c -0.1,-0.2 -0.1,-0.4 -0.1,-0.6 0,-0.1 0,-0.2 0.1,-0.3 0,-0.1 0.1,-0.2 0.2,-0.3 0.1,-0.2 0.3,-0.4 0.6,-0.5 0.1,-0.1 0.3,-0.1 0.5,-0.1 l 0.4,0 c 0.1,0 0.2,0.1 0.3,0.1 0.1,0 0.1,0.1 0.2,0.1 l 0.1,0.1 c 0,0.1 0.1,0.1 0.1,0.1 l 0.1,0.1 c 0.1,0.1 0.1,0.2 0.2,0.4 l 0,0.6 c 0,0.2 -0.1,0.3 -0.2,0.5 -0.2,0.2 -0.4,0.4 -0.7,0.5 -0.1,0.2 -0.3,0.2 -0.4,0.2 z m 0,-0.5 0.2,0 c 0.2,-0.1 0.3,-0.1 0.5,-0.3 0.1,-0.1 0.2,-0.3 0.2,-0.5 l 0,-0.2 c 0,-0.1 0,-0.2 -0.1,-0.2 l -0.2,-0.2 c -0.1,-0.1 -0.3,-0.2 -0.4,-0.2 l -0.2,0 c -0.1,0 -0.2,0 -0.3,0.1 -0.1,0.1 -0.2,0.1 -0.3,0.3 -0.1,0.1 -0.2,0.3 -0.2,0.5 0,0.2 0,0.4 0.2,0.6 l 0.3,0.3 c 0.1,-0.3 0.2,-0.2 0.3,-0.2 z m 11.3,-0.2 0,0.6 c 0,0.1 0,0.1 -0.1,0.1 l -0.4,0 c 0,0 -0.1,0 -0.1,-0.1 l 0,-2.6 0.9,0 c 0.2,0 0.3,0 0.4,0.1 l 0.3,0.3 c 0.1,0.1 0.1,0.3 0.1,0.5 0,0.1 0,0.2 -0.1,0.3 0,0 0,0.1 -0.1,0.1 -0.1,0.1 -0.2,0.3 -0.4,0.3 l 0,0.1 c 0.1,0.1 0.2,0.3 0.3,0.5 0.1,0.1 0.2,0.3 0.3,0.4 l -0.5,0 c -0.1,-0.2 -0.3,-0.5 -0.4,-0.7 l -0.3,-0.6 0,0.5 c 0.1,0.1 0.1,0.1 0.1,0.2 z m 0,-1.1 0,0.4 0.5,0 c 0.1,0 0.2,0 0.2,-0.1 0.1,-0.1 0.1,-0.3 0,-0.4 0,-0.1 -0.1,-0.1 -0.2,-0.1 l -0.5,0 0,0.2 z m -5.2,0.1 0,-0.9 c 0,-0.1 0,-0.1 0.1,-0.1 l 0.4,0 0,1.8 c 0,0.1 0.1,0.2 0.2,0.3 0.3,0.1 0.5,0 0.5,-0.3 l 0,-1.8 0.4,0 0,1.8 c 0,0.2 -0.1,0.4 -0.2,0.5 -0.1,0.1 -0.2,0.2 -0.4,0.3 -0.2,0.1 -0.4,0 -0.6,0 -0.2,-0.1 -0.3,-0.2 -0.4,-0.4 0,-0.1 -0.1,-0.2 -0.1,-0.3 0.1,-0.3 0.1,-0.6 0.1,-0.9 z"
       id="path72"
       inkscape:connector-curvature="0" />
    <path
       d="m 125.7,74.8 -0.2,0 c -0.1,0 -0.1,0 -0.2,-0.1 -0.1,-0.1 -0.2,-0.1 -0.3,-0.1 l -0.3,0 c -0.2,0 -0.4,0.1 -0.5,0.2 L 124,75 c 0,0.1 -0.1,0.2 -0.1,0.4 0,0.2 0.1,0.4 0.2,0.5 0.1,0.1 0.1,0.2 0.2,0.2 0.2,0.1 0.3,0.1 0.5,0.1 0.1,0 0.2,-0.1 0.4,-0.2 l 0.6,0 c 0,0 0.1,0 0,0.1 -0.1,0.1 -0.2,0.3 -0.3,0.4 -0.1,0.1 -0.2,0.2 -0.3,0.2 -0.1,0 -0.2,0.1 -0.3,0.1 l -0.3,0 c -0.2,0 -0.5,0 -0.6,-0.2 -0.2,-0.1 -0.3,-0.2 -0.4,-0.3 -0.1,-0.1 -0.1,-0.2 -0.2,-0.3 0,-0.1 -0.1,-0.2 -0.1,-0.3 l 0,-0.5 c 0,-0.1 0.1,-0.2 0.1,-0.3 0,-0.1 0.1,-0.1 0.1,-0.2 0.1,-0.1 0.2,-0.3 0.4,-0.4 0.1,-0.1 0.2,-0.1 0.3,-0.1 0.1,0 0.2,-0.1 0.3,0 0.3,0 0.5,0.1 0.6,0.1 0.1,0 0.2,0.1 0.3,0.2 l 0.3,0.3 0,0.1 c 0.2,-0.1 0.1,-0.1 0,-0.1 z m -8.8,1.9 c -0.2,0.1 -0.3,0.1 -0.4,0.1 0,0 -0.1,0 0,0 l 0,-0.3 -0.8,0 c 0,0.1 -0.1,0.1 -0.1,0.2 0,0.1 -0.1,0.1 -0.1,0.2 l -0.6,0 c 0.1,-0.1 0.1,-0.1 0.1,-0.2 0.1,-0.2 1.6,-2.4 1.7,-2.4 l 0.4,0 -0.2,2.4 z m -0.5,-1.2 0,-0.3 c 0,0 0,0.1 -0.1,0.1 -0.1,0.2 -0.2,0.3 -0.4,0.5 l 0,0.1 0.5,0 0,-0.4 z m 20.2,-0.1 0,-1.3 c 0,-0.1 0,-0.1 0.1,-0.1 l 1.2,0 c 0.1,0 0.1,0 0.1,0.1 l 0,0.4 c 0,0.1 0,0.1 -0.1,0.1 l -0.7,0 c 0,0 -0.1,0 -0.1,0.1 l 0,0.5 c 0,0 0,0.1 0.1,0.1 l 0.8,0 0,0.4 -0.8,0 c -0.1,0 -0.1,0 -0.1,0.1 l 0,0.4 c 0,0 0,0.1 0.1,0.1 l 0.8,0 c 0,0 0.1,0 0.1,0.1 l 0,0.4 c 0,0.1 0,0 -0.1,0 l -1.3,0 c 0,0 -0.1,0 -0.1,-0.1 l 0,-1.3 z m -5,0 0,-1.2 c 0,-0.1 0,-0.1 0.1,-0.1 l 0.7,0 c 0.2,0 0.3,0.1 0.5,0.2 0.1,0.1 0.2,0.2 0.3,0.4 0.1,0.1 0.1,0.2 0.1,0.4 0,0.1 0,0.3 -0.1,0.4 -0.1,0.1 -0.2,0.3 -0.4,0.3 -0.1,0 -0.2,0.1 -0.3,0.1 l -0.3,0 0,0.8 c 0,0 0,0.1 -0.1,0.1 l -0.4,0 c 0,0 -0.1,0 -0.1,-0.1 l 0,-1.3 z m 0.5,-0.4 0,0.3 0.4,0 0.1,-0.1 c 0,0 0,-0.1 0.1,-0.1 l 0,-0.1 c 0,-0.1 -0.1,-0.3 -0.3,-0.3 l -0.4,0 c 0.1,0 0.1,0.1 0.1,0.3 0,-0.1 0,-0.1 0,0 z m -18.2,0.4 0,-1.2 c 0,-0.1 0,-0.1 0.1,-0.1 l 1.3,0 c 0,0 0.1,0 0.1,0.1 l 0,0.4 c 0,0 0,0.1 -0.1,0.1 l -0.8,0 c 0,0 -0.1,0 -0.1,0.1 l 0,0.4 c 0,0.1 0,0.1 0.1,0.1 l 0.7,0 c 0,0 0.1,0 0.1,0.1 l 0,0.4 c 0,0 0,0.1 -0.1,0.1 l -0.8,0 c 0,0 -0.1,0 -0.1,0.1 l 0,0.9 c 0,0 0,0.1 -0.1,0.1 l -0.4,0 0,-0.4 c 0.1,-0.6 0.1,-0.9 0.1,-1.2 z m 8,0.8 0,-0.6 c -0.1,-0.3 -0.3,-0.5 -0.4,-0.8 -0.1,-0.2 -0.2,-0.5 -0.4,-0.7 l 0,-0.1 0.5,0 c 0.1,0 0.1,0 0.1,0.1 0.1,0.3 0.3,0.6 0.4,0.8 0,0 0,0.1 0.1,0.1 l 0.1,-0.1 c 0.1,-0.3 0.3,-0.6 0.4,-0.9 l 0.5,0 0,0.1 c -0.3,0.5 -0.5,1 -0.8,1.5 l 0,1 c 0,0 0,0.1 -0.1,0.1 l -0.4,0 c 0,0 -0.1,0 -0.1,-0.1 0.1,-0.1 0.1,-0.2 0.1,-0.4 z m 14.2,-0.5 0,1 c 0,0 0,0.1 -0.1,0.1 l -0.4,0 c 0,0 -0.1,0 -0.1,-0.1 l 0,-2 c 0,-0.1 0,-0.1 -0.1,-0.1 l -0.4,0 0,-0.5 1.3,0 c 0.1,0 0.1,0 0.1,0.1 l 0,0.4 -0.4,0 0,0.1 c 0.1,0.3 0.1,0.7 0.1,1 z"
       id="path74"
       inkscape:connector-curvature="0" />
    <path
       d="m 120.5,75.4 0,-1.2 c 0,0 0,-0.1 0.1,-0.1 l 0.4,0 c 0,0 0.1,0 0.1,0.1 l 0,2 c 0,0.1 0,0.1 0.1,0.1 l 0.5,0 c 0,0 0.1,0 0,0 l 0,0.4 -1.1,0 c -0.1,0 -0.1,0 -0.1,-0.1 l 0,-1.2 c 0,0.1 0,0 0,0 z m -0.7,0 0,-1.2 c 0,-0.1 0,-0.1 0.1,-0.1 l 0.4,0 0,2.5 -0.4,0 0,-0.4 c -0.1,-0.1 -0.1,-0.5 -0.1,-0.8 z"
       id="path76"
       inkscape:connector-curvature="0" />
  </g>
  <path
     d="m 247.97239,131.3201 c 0,0.34513 -0.17256,0.51769 -0.34513,0.86282 -0.17256,0.17256 -0.51768,0.34512 -0.86281,0.34512 l -1.72562,0 0,-0.86281 0.17256,0 0,-3.10613 -0.17256,0 0,-0.86281 1.89818,0 c 0.34513,0 0.51769,0.17256 0.86282,0.34512 0.17256,0.17257 0.34512,0.51769 0.34512,0.86282 l 0,2.41587 z m -0.86281,0 0,-2.58844 -0.17257,-0.17256 -0.69025,0 0,3.10613 0.69025,0 c 0,0 0.17257,0 0.17257,-0.17256 l 0,-0.17257 z m 2.24331,1.20794 -0.86281,0 0,-4.83175 0.86281,0 0,4.83175 z m 3.45125,-1.03537 c 0,0.34512 -0.17256,0.51768 -0.34512,0.86281 -0.17257,0.17256 -0.51769,0.34512 -0.86282,0.34512 l -0.69025,0 c -0.34512,0 -0.51768,-0.17256 -0.86281,-0.34512 -0.17256,-0.17256 -0.34512,-0.51769 -0.34512,-0.69025 l 0.86281,-0.17256 0,0.34512 0.17256,0.17256 0.69025,0 c 0,0 0.17256,0 0.17256,-0.17256 l 0,-0.69025 c 0,-0.17256 0,-0.34513 -0.17256,-0.34513 l -1.20794,-0.51768 c -0.51768,-0.17257 -0.69025,-0.51769 -0.69025,-1.03538 l 0,-0.34512 c 0,-0.34513 0.17257,-0.51769 0.34513,-0.86282 0.17256,-0.17256 0.51769,-0.34512 0.86281,-0.34512 l 0.69025,0 c 0.34513,0 0.51769,0.17256 0.86281,0.34512 0.17257,0.17257 0.34513,0.51769 0.34513,0.86282 l -0.86281,0.17256 0,-0.34513 -0.17257,-0.17256 -0.69025,0 c 0,0 -0.17256,0 -0.17256,0.17256 l 0,0.34513 c 0,0.17256 0,0.34512 0.17256,0.34512 l 1.20794,0.51769 c 0.51769,0.17256 0.69025,0.51769 0.69025,1.03538 l 0,0.51769 z m 3.45125,1.03537 -0.86281,0 0,-0.34512 -0.86281,-1.55307 -0.34513,0.34513 0,1.55306 -0.86281,0 0,-4.83175 0.86281,0 0,1.72562 1.20794,-1.3805 0,-0.34512 0.86281,0 0,0.69025 -1.20794,1.3805 1.20794,2.07075 0,0.69025 z m 6.03969,-1.03537 c 0,0.34512 -0.17256,0.51768 -0.34512,0.86281 -0.17257,0.17256 -0.51769,0.34512 -0.86282,0.34512 l -0.51768,0 c -0.34513,0 -0.51769,-0.17256 -0.86282,-0.34512 -0.17256,-0.17256 -0.34512,-0.51769 -0.34512,-0.69025 l 0.86281,-0.17256 0,0.34512 0.17256,0.17256 0.69025,0 c 0,0 0.17257,0 0.17257,-0.17256 l 0,-0.69025 c 0,-0.17256 0,-0.34513 -0.17257,-0.34513 l -1.20793,-0.51768 c -0.51769,-0.17257 -0.69025,-0.51769 -0.69025,-1.03538 l 0,-0.34512 c 0,-0.34513 0.17256,-0.51769 0.34512,-0.86282 0.17256,-0.17256 0.51769,-0.34512 0.86281,-0.34512 l 0.69025,0 c 0.34513,0 0.51769,0.17256 0.86282,0.34512 0.17256,0.17257 0.34512,0.51769 0.34512,0.86282 l -0.86281,0.17256 0,-0.34513 -0.17256,-0.17256 -0.69025,0 c 0,0 -0.17257,0 -0.17257,0.17256 l 0,0.34513 c 0,0.17256 0,0.34512 0.17257,0.34512 l 1.20793,0.51769 c 0.51769,0.17256 0.69025,0.51769 0.69025,1.03538 l 0,0.51769 z m 3.27869,-3.10613 -1.03537,1.89819 0,2.24331 -0.86282,0 0,-2.24331 -1.03537,-1.89819 0,-0.69025 0.86281,0 0,0.34512 0.51769,1.03538 0.51769,-1.03538 0,-0.34512 0.86281,0 0,0.69025 z m 3.45125,3.10613 c 0,0.34512 -0.17256,0.51768 -0.34512,0.86281 -0.17257,0.17256 -0.51769,0.34512 -0.86282,0.34512 l -0.69025,0 c -0.34512,0 -0.51768,-0.17256 -0.86281,-0.34512 -0.17256,-0.17256 -0.34512,-0.51769 -0.34512,-0.69025 l 0.86281,-0.17256 0,0.34512 0.17256,0.17256 0.69025,0 c 0,0 0.17256,0 0.17256,-0.17256 l 0,-0.69025 c 0,-0.17256 0,-0.34513 -0.17256,-0.34513 l -1.20794,-0.51768 c -0.51768,-0.17257 -0.69025,-0.51769 -0.69025,-1.03538 l 0,-0.34512 c 0,-0.34513 0.17257,-0.51769 0.34513,-0.86282 0.17256,-0.17256 0.51769,-0.34512 0.86281,-0.34512 l 0.69025,0 c 0.34513,0 0.51769,0.17256 0.86281,0.34512 0.17257,0.17257 0.34513,0.51769 0.34513,0.86282 l -0.86281,0.17256 0,-0.34513 -0.17257,-0.17256 -0.69025,0 c 0,0 -0.17256,0 -0.17256,0.17256 l 0,0.34513 c 0,0.17256 0,0.34512 0.17256,0.34512 l 1.20794,0.51769 c 0.51769,0.17256 0.69025,0.51769 0.69025,1.03538 l 0,0.51769 z m 3.27869,-2.93357 -1.03538,0 0,3.96894 -0.86281,0 0,-3.96894 -1.03537,0 0,-0.86281 2.93356,0 0,0.86281 z m 3.27869,3.96894 -2.93356,0 0,-4.83175 2.93356,0 0,0.86281 -1.89819,0 0,1.20794 1.3805,0 0,0.86281 -1.3805,0 0,1.20794 2.07075,0 0,0.69025 z m 3.45125,0 -0.86281,0 0,-2.24331 -0.34513,1.03537 -0.69025,0 -0.34512,-1.03537 0,2.24331 -0.69025,0 0,-4.83175 0.86281,0 0.69025,2.07075 0.69025,-2.07075 0.86281,0 0,4.83175 z m 4.31406,-4.83175 34.85764,0 0,5.00431 -34.85764,0 z"
     id="path78"
     inkscape:connector-curvature="0"
     style="fill:#ffffff" />
  <path
     d="m 285.2459,131.66523 0,-3.27869 0.69025,0 0,1.3805 2.761,0 0,-1.3805 0.69025,0 0,3.27869 -0.69025,0 0,-1.55307 -2.761,0 0,1.55307 -0.69025,0 z m 6.72994,0 -2.07075,-3.27869 0.69025,0 1.3805,2.24331 c 0.17256,0.17256 0.17256,0.34513 0.34513,0.51769 0,-0.17256 0.17256,-0.34512 0.34512,-0.51769 l 1.3805,-2.24331 0.69025,0 -2.07075,3.27869 -0.69025,0 z m 7.07507,-1.03538 0.69025,0.17256 c -0.17257,0.34513 -0.34513,0.69026 -0.86282,0.86282 -0.34512,0.17256 -0.86281,0.34512 -1.3805,0.34512 -0.51768,0 -1.03537,0 -1.3805,-0.17256 -0.34512,-0.17256 -0.69025,-0.34512 -0.86281,-0.69025 -0.17256,-0.34513 -0.34513,-0.51769 -0.34513,-0.86281 0,-0.34513 0.17257,-0.69025 0.34513,-0.86282 0.17256,-0.17256 0.51769,-0.51768 0.86281,-0.51768 0.34513,-0.17257 0.86282,-0.17257 1.20794,-0.17257 0.51769,0 1.03538,0 1.3805,0.17257 0.34513,0.17256 0.51769,0.34512 0.69025,0.69025 l -0.69025,0.17256 -0.51769,-0.51769 c 0,0 -0.51768,-0.17256 -0.86281,-0.17256 -0.34512,0 -0.69025,0 -1.03537,0.17256 -0.34513,0.17256 -0.51769,0.34513 -0.51769,0.51769 -0.17257,0.17256 -0.17257,0.34512 -0.17257,0.69025 0,0.34512 0,0.51769 0.17257,0.69025 l 0.51769,0.51769 c 0.34512,0.17256 0.51768,0.17256 0.86281,0.17256 0.34512,0 0.69025,0 1.03537,-0.17256 0.69025,-0.51769 0.86282,-0.86281 0.86282,-1.03538 z m 1.20793,0.17256 0,-0.34512 1.89819,0 0,0.34512 -1.89819,0 z m 2.58844,-0.69025 c 0,-0.51768 0.17256,-0.86281 0.69025,-1.20793 0.51769,-0.34513 1.03538,-0.51769 1.72563,-0.51769 0.51769,0 0.86281,0 1.3805,0.17256 0.34512,0.17256 0.69025,0.34513 0.86281,0.51769 0.17256,0.17256 0.34513,0.51769 0.34513,0.86281 0,0.34513 -0.17257,0.69025 -0.34513,0.86281 -0.17256,0.17257 -0.51769,0.51769 -0.86281,0.51769 -0.34513,0.17256 -0.86281,0.17256 -1.20794,0.17256 -0.51769,0 -0.86281,0 -1.3805,-0.17256 -0.34513,-0.17256 -0.69025,-0.34512 -0.86281,-0.51769 -0.17257,-0.17256 -0.34513,-0.34512 -0.34513,-0.69025 z m 0.69025,0 c 0,0.34513 0.17256,0.69025 0.51769,0.86282 0.34513,0.17256 0.69025,0.34512 1.20794,0.34512 0.51769,0 0.86281,-0.17256 1.20794,-0.34512 0.34512,-0.17257 0.51768,-0.51769 0.51768,-1.03538 0,-0.34512 0,-0.51769 -0.17256,-0.69025 -0.17256,-0.17256 -0.34512,-0.34512 -0.69025,-0.51769 -0.34512,-0.17256 -0.51769,-0.17256 -0.86281,-0.17256 -0.51769,0 -0.86281,0.17256 -1.20794,0.34513 -0.34513,0.51768 -0.51769,0.86281 -0.51769,1.20793 z m 8.283,1.20794 0,0.34513 -3.45125,0 0,-0.34513 c 0.17257,-0.17256 0.17257,-0.34512 0.34513,-0.34512 0.17256,-0.17257 0.51769,-0.34513 0.86281,-0.51769 0.51769,-0.34513 1.03538,-0.51769 1.20794,-0.69025 0.17256,-0.17256 0.34512,-0.34513 0.34512,-0.51769 0,-0.17256 -0.17256,-0.34512 -0.34512,-0.34512 -0.17256,-0.17257 -0.34513,-0.17257 -0.69025,-0.17257 -0.34513,0 -0.51769,0 -0.69025,0.17257 -0.17256,0.17256 -0.34513,0.34512 -0.34513,0.51768 l -0.69025,0 c 0,-0.34512 0.17257,-0.51768 0.51769,-0.69025 0.34513,-0.17256 0.69025,-0.17256 1.20794,-0.17256 0.51769,0 0.86281,0 1.20794,0.17256 0.34512,0.17257 0.51768,0.34513 0.51768,0.69025 0,0.17257 0,0.17257 -0.17256,0.34513 0,0.17256 -0.17256,0.17256 -0.34512,0.34512 -0.17257,0.17257 -0.51769,0.34513 -1.03538,0.51769 l -0.69025,0.34513 c -0.17256,0 -0.17256,0.17256 -0.34512,0.17256 l 2.58843,0 z"
     id="path80"
     inkscape:connector-curvature="0"
     style="fill:#1d1d1b" />
  <path
     d="m 312.68335,130.97498 c 0,0 0.51769,0.34512 1.3805,0.34512 0.69025,0 1.20794,-0.17256 1.20794,-0.51768 0,-0.34513 -0.69025,-0.51769 -1.3805,-0.51769 l -0.34513,0 -0.17256,-0.17257 1.20794,-0.86281 c 0.17256,-0.17256 0.34512,-0.17256 0.34512,-0.17256 l -2.41587,0 0,-0.34513 3.45125,0 0,0.34513 -1.55307,1.03537 c 0.69025,0 1.72563,0.34513 1.72563,0.86282 0,0.51769 -0.69025,1.03537 -1.89819,1.03537 -1.20794,0 -1.89819,-0.51768 -1.89819,-0.51768 l 0.34513,-0.51769 z"
     id="path82"
     inkscape:connector-curvature="0" />
</svg>
