<svg xmlns="http://www.w3.org/2000/svg" viewBox="0 0 711.99999 289.4">
  <defs>
    <clipPath id="a">
      <path d="M0 102.794h446.494V0H0v102.794z"/>
    </clipPath>
  </defs>
  <path fill="#faaf40" d="M163.3 289.4h-12c-2.8 0-5-2.3-5-5v-12.9c0-2.8 2.3-5 5-5h12c2.8 0 5 2.3 5 5v12.9c0 2.7-2.2 5-5 5z"/>
  <path fill="#a91c41" d="M28.3 287.5c-5 0-9.1-4-9.3-9l-2.3-27.4V13.3C16.8 8.2 20.9 4 26 4h181.1c5.1 0 9.3 4.2 9.3 9.3v238.2l-2.3 27.1c-.1 5-4.2 9-9.3 9H28.3z"/>
  <path fill="#bfa886" d="M204.8 279.7H28.3c-2.5 0-4.6-2.1-4.6-4.6l-2.3-27.3V10.1c0-2.5 2.1-4.6 4.6-4.6h181.1c2.5 0 4.6 2.1 4.6 4.6v238l-2.3 27c.1 2.5-2 4.6-4.6 4.6z"/>
  <path fill="#fff" d="M21.4 247h190.39999v1.4H21.4zm121.6-1.8H90.2c-1.7 0-3-1.4-3-3v-88.9c0-1.7 1.4-3 3-3H143c1.7 0 3 1.4 3 3v88.9c0 1.6-1.3 3-3 3zm-52.8-93.6c-.9 0-1.6.7-1.6 1.6v88.9c0 .9.7 1.6 1.6 1.6H143c.9 0 1.6-.7 1.6-1.6v-88.9c0-.9-.7-1.6-1.6-1.6H90.2z"/>
  <path fill="#fff" d="M118.5 150.89999h1.4v54.700001h-1.4zm-4.6 0h1.4v54.700001h-1.4zM78.2 46.6c-.4 0-.7-.3-.7-.7v-40c0-.4.3-.7.7-.7.4 0 .7.3.7.7v40c0 .4-.3.7-.7.7zm6.6 0c-.4 0-.7-.3-.7-.7v-40c0-.4.3-.7.7-.7.4 0 .7.3.7.7v40c0 .4-.3.7-.7.7zm6.6 0c-.4 0-.7-.3-.7-.7v-40c0-.4.3-.7.7-.7.4 0 .7.3.7.7v40c0 .4-.4.7-.7.7zm6.5 0c-.4 0-.7-.3-.7-.7v-40c0-.4.3-.7.7-.7.4 0 .7.3.7.7v40c0 .4-.3.7-.7.7zm6.6 0c-.4 0-.7-.3-.7-.7v-40c0-.4.3-.7.7-.7.4 0 .7.3.7.7v40c0 .4-.3.7-.7.7zm6.6 0c-.4 0-.7-.3-.7-.7v-40c0-.4.3-.7.7-.7.4 0 .7.3.7.7v40c0 .4-.3.7-.7.7zm6.6 0c-.4 0-.7-.3-.7-.7v-40c0-.4.3-.7.7-.7.4 0 .7.3.7.7v40c0 .4-.4.7-.7.7zm6.5 0c-.4 0-.7-.3-.7-.7v-40c0-.4.3-.7.7-.7.4 0 .7.3.7.7v40c0 .4-.3.7-.7.7zm6.6 0c-.4 0-.7-.3-.7-.7v-40c0-.4.3-.7.7-.7.4 0 .7.3.7.7v40c0 .4-.3.7-.7.7zm6.6 0c-.4 0-.7-.3-.7-.7v-40c0-.4.3-.7.7-.7.4 0 .7.3.7.7v40c0 .4-.3.7-.7.7zm6.6 0c-.4 0-.7-.3-.7-.7v-40c0-.4.3-.7.7-.7.4 0 .7.3.7.7v40c0 .4-.3.7-.7.7zm6.5 0c-.4 0-.7-.3-.7-.7v-40c0-.4.3-.7.7-.7.4 0 .7.3.7.7v40c0 .4-.3.7-.7.7zm6.6 0c-.4 0-.7-.3-.7-.7v-40c0-.4.3-.7.7-.7.4 0 .7.3.7.7v40c0 .4-.3.7-.7.7zM19.4 42.299999h45.400002v1.4H19.4zm152.4 0h45.400002v1.4H171.8z"/>
  <path fill="#a91c41" d="M138.5 223.6H94.7c-2.8 0-5-2.3-5-5v-17.8c0-2.8 2.3-5 5-5h43.7c2.8 0 5 2.3 5 5v17.8c.1 2.8-2.2 5-4.9 5z"/>
  <path fill="#231f20" d="M228.3 139.2h3.5v36h-3.5zm0-61.399997h3.5v18.4h-3.5zM228.3 48h3.5v18.4h-3.5zM0 53.5h3.5999999v36H0zm0 78.89999h3.5999999v18.4H0zM0 162.2h3.5999999v18.4H0z"/>
  <path fill="#a91c41" d="M172.6 239.4h-12c-2.8 0-5-2.3-5-5v-12.9c0-2.8 2.3-5 5-5h12c2.8 0 5 2.3 5 5v12.9c0 2.7-2.3 5-5 5zm-99.4 0h-12c-2.8 0-5-2.3-5-5v-12.9c0-2.8 2.3-5 5-5h12c2.8 0 5 2.3 5 5v12.9c0 2.7-2.2 5-5 5zm128.2 29.3H30.3c-1.3 0-2.3-1-2.3-2.3l-.9-9c0-1.3 1-2.3 2.3-2.3h172.9c1.3 0 2.3 1 2.3 2.3l-.9 9c.1 1.3-1 2.3-2.3 2.3zm-9.2-149.8H39.6c-1.3 0-2.3-1-2.3-2.3v-33l-.9-4.6c0-1.3 1-2.3 2.3-2.3h154.4c1.3 0 2.3 1 2.3 2.3l-.9 4v33.7c0 1.2-1.1 2.2-2.3 2.2z"/>
  <path fill="#fff" d="M172.3 5.4v66.2H64.1V5.4h1.4v64.8H171V5.4"/>
  <path fill="#a91c41" d="M8.5 30.9h19.2c2.8 0 5 2.3 5 5v156.8c0 2.8-2.3 5-5 5H8.5c-2.7 0-5-2.2-5-5V35.9c0-2.7 2.2-5 5-5zm195.6 166.8h19.2c2.8 0 5-2.3 5-5V35.9c0-2.8-2.3-5-5-5h-19.2c-2.8 0-5 2.3-5 5v156.8c0 2.7 2.3 5 5 5z"/>
  <path fill="#fff" d="M80.5 245.2H35.4c-1.7 0-3-1.4-3-3v-28.7c0-1.7 1.4-3 3-3h45.1c1.7 0 3 1.4 3 3v28.7c0 1.6-1.3 3-3 3zm-45.1-33.4c-.9 0-1.6.7-1.6 1.6v28.7c0 .9.7 1.6 1.6 1.6h45.1c.9 0 1.6-.7 1.6-1.6v-28.7c0-.9-.7-1.6-1.6-1.6H35.4zm162.9 33.4h-45.1c-1.7 0-3-1.4-3-3v-28.7c0-1.7 1.4-3 3-3h45.1c1.7 0 3 1.4 3 3v28.7c.1 1.6-1.3 3-3 3zm-45-33.4c-.9 0-1.6.7-1.6 1.6v28.7c0 .9.7 1.6 1.6 1.6h45.1c.9 0 1.6-.7 1.6-1.6v-28.7c0-.9-.7-1.6-1.6-1.6h-45.1zM32.700001 128.2h166.5v1.4h-166.5z"/>
  <path fill="#59011d" d="M76.2 229.8h-18c-1.1 0-2 .9-2 2v2.2c0 1.1.9 2 2 2h18c1.1 0 2-.9 2-2v-2.2c0-1.1-.9-2-2-2zm65.3-10.2H91.7c-1.1 0-2-.9-2-2v-15.9c0-1.1.9-2 2-2h49.7c1.1 0 2 .9 2 2v15.9c.1 1.1-.8 2-1.9 2zm50.7-100.7H39.6c-1.3 0-2.3-1-2.3-2.3 0-1.3 1-2.3 2.3-2.3h152.6c1.3 0 2.3 1 2.3 2.3 0 1.3-1.1 2.3-2.3 2.3zm.9-37.7H38.7c-1.3 0-2.3-1-2.3-2.3 0-1.3 1-2.3 2.3-2.3h154.4c1.3 0 2.3 1 2.3 2.3 0 1.3-1 2.3-2.3 2.3z"/>
  <g fill="#bfa886">
    <path d="M73 260v1.6h-3.3v3.3h-1.8v-8.2H73v1.5h-3.3v1.8m9.1 4.9h-1.7v-1.3h-3.4l-1 1.3h-2l6.7-8.2h1.4v8.2zm-1.7-2.8v-2.4l-2.1 2.4h2.1zm7.2.1l2.9-5.5h2v8.2h-1.8v-4.2l-2.2 4.2h-1.8l-2.1-4.2v4.2h-1.8v-8.2h2m46 5.5l2.8-5.5h2.1v8.2h-1.8v-4.2l-2.2 4.2h-1.8l-2.2-4.2v4.2h-1.8v-8.2h2m-34.799997.00001h1.9v8.1999998h-1.9zM96.4 263.4v1.5h-4.2v-8.2H94v6.7m5.2 1.5h-1.8v-3l-3-5.2h2l2 3.3 1.9-3.3h2l-3.1 5.2m13.2-3c-.8-1.3-2.4-2.2-4.3-2.2-2.7 0-4.9 1.9-4.9 4.2 0 2.3 2.2 4.2 4.9 4.2 1.9 0 3.5-.9 4.3-2.3h-2.2c-.5.4-1.3.7-2.1.7-1.7 0-3.1-1.2-3.1-2.6 0-1.4 1.4-2.6 3.1-2.6.8 0 1.5.3 2 .7l2.3-.1z"/>
    <path d="M117.2 265.1c-2.7 0-4.9-1.9-4.9-4.2 0-2.3 2.2-4.2 4.9-4.2s4.9 1.9 4.9 4.2c0 2.3-2.2 4.2-4.9 4.2zm3.1-4.2c0-1.5-1.4-2.7-3.1-2.7-1.7 0-3.1 1.2-3.1 2.7 0 1.5 1.4 2.7 3.1 2.7 1.7-.1 3.1-1.3 3.1-2.7zm15.9-4.2c1.6.1 2.9 1.3 2.9 2.7 0 1.4-1.3 2.6-2.9 2.7h-1.4v2.8H133v-8.2h3.2zm-1.4 1.6v2.2h1.4c.6-.1 1.1-.6 1.1-1.1 0-.6-.5-1-1.1-1.1h-1.4zm24 6.7H157v-8.2h3.9c1.6.1 2.9 1.3 2.9 2.7 0 1.2-.9 2.1-2 2.5l2.1 3H162l-2.9-4.3h-.2l-.1 4.3zm2.1-4.5c.6-.1 1.1-.6 1.1-1.1 0-.6-.5-1-1.1-1.1h-2.1v2.2h2.1zm-19.5.9v1.2c.1.5.7.9 1.3.9.6 0 1.2-.4 1.3-.9v-5.9h1.8v5.9c-.1 1.4-1.5 2.5-3.1 2.5-1.7 0-3-1.1-3.1-2.5v-5.9h1.8v4.7zm6.3-3.1v6.7h1.8v-6.7h1.7v-1.6h-5.1v1.6m10.5-1.6v1.6h-3.2v1.9h3.2v1.5h-3.2v1.8h3.2v1.5h-5v-8.3M28.1 267c-.1-.2-.1-.4-.1-.6v-.2h142.6v.8H28.1zm175.7 0v-.8h-12.6v.8h12.6z"/>
  </g>
  <g fill="#bfa886">
    <path d="M171.9 264.8h.8l1.1 1.8v-1.8h.8v2.6h-.8l-1.1-1.8v1.8h-.8v-2.6zm7 .3h.8v.4h.4v.3h-.4v1.7h-.8v-1.7h-.4v-.3h.4v-.4zm-3.9.6h.8v1.7h-.8v-1.7zm0-.9h.8v.5h-.8v-.5zm13.4.8c-.6 0-1.1.4-1.1 1 0 .5.5 1 1.1 1 .6 0 1.1-.4 1.1-1s-.5-1-1.1-1m.3.9v.4c0 .3-.2.4-.3.4-.2 0-.3-.1-.3-.4v-.8c0-.3.2-.4.3-.4.2 0 .3.1.3.4v.4zm-2.4 0v-.3c0-.3-.2-.3-.3-.3-.1 0-.3.1-.3.3v.6c0 .3.2.3.3.3.1 0 .3-.1.3-.3v-.3zm0-1.7h.8v2.6h-.8v-.1c-.3.2-.6.2-.9.1-.1 0-.5-.3-.5-.9 0-.5.4-1 1-.9.2 0 .3.1.4.2v-1zm-8.7.8c.3 0 .9.2.9.9v.9h-.8v-1.1c0-.2-.1-.3-.3-.3-.2 0-.4.2-.4.3v1.1h-.8v-1.7h.8v.2c.1-.2.3-.3.6-.3m6.2 0c.3 0 .9.2.9.9v.9h-.8v-1.1c0-.2-.1-.3-.3-.3-.2 0-.4.2-.4.3v1.1h-.8v-1.7h.8v.2c.1-.2.3-.3.6-.3"/>
    <path d="M181.4 266.8v.1c0 .3-.2.4-.3.4-.1 0-.3-.1-.3-.4v-.4h1.4c0-.5-.5-1-1.1-1-.6 0-1.1.4-1.1 1 0 .5.5 1 1.1 1 .5 0 1-.3 1.1-.7h-.8zm-.7-.5c0-.2 0-.3.1-.3.1-.1.2-.2.3-.2.1 0 .2.1.3.2 0 .1.1.2.1.3h-.8zm9-1.2c.1 0 .1 0 .1-.1s-.1-.1-.1-.1h-.1v.2h.1zm-.1.3l-.1-.6h.2c.1 0 .2.1.2.2s-.1.2-.1.2l.2.3h-.1l-.2-.3h-.1v.2z"/>
    <path d="M189.7 265.6c.2 0 .4-.2.4-.4s-.2-.4-.4-.4-.4.2-.4.4.2.4.4.4m-.5-.5c0-.3.2-.5.5-.5s.5.2.5.5-.2.5-.5.5c-.3.1-.5-.2-.5-.5"/>
  </g>
  <g fill="#bfa886">
    <circle cx="43.5" cy="257.79999" r="1.1"/>
    <path d="M41.9 257.5v-.2c0-.4-.3-.7-.7-.7-.3 0-.6.2-.7.5l-2.2 6.8v.2c0 .4.3.7.7.7.3 0 .6-.2.7-.5l2.2-6.8z"/>
    <circle cx="42.599998" cy="260.29999" r="1.1"/>
    <circle cx="48.299999" cy="257.79999" r="1.1"/>
    <path d="M46.7 257.5v-.2c0-.4-.3-.7-.7-.7-.3 0-.6.2-.7.5l-2.2 6.8v.2c0 .4.3.7.7.7.3 0 .6-.2.7-.5l2.2-6.8z"/>
    <circle cx="47.400002" cy="260.29999" r="1.1"/>
  </g>
  <path fill="#3c3c3b" d="M34.9 52.9h-2.2v-3h2.4v-2.4h-2.4V3.9h166.4v43.6H196v2.4h3.1v3H196v2.4h3.1v2.8H196v2.4h3.1v3.3H196v2.4h3.1v3.4H196v2.5h3.1v79.8H32.7V72.1h2.4v-2.5h-2.4v-3.4h2.2v-2.4h-2.2v-3.3h2.2v-2.4h-2.2v-2.8h2.2"/>
  <path d="M35.099998 47.5h160.89999v2.4000001H35.099998zm0 22.099998h160.89999v2.4000001H35.099998zm-.199996-16.699996H127.5v2.4000001H34.900002zm0 5.199996H127.5v2.4000001H34.900002zm0 5.700001H127.5v2.4000001H34.900002z"/>
  <path d="M127.5 49.900002h1.2v19.799999h-1.2zm56.3 0h1.2v19.799999h-1.2zm1.2 3h10.9v2.4000001H185zm0 5.199996h10.9v2.4000001H185zm0 5.700001h10.9v2.4000001H185z"/>
  <path fill="#333" d="M185 3.9L182.9 0h-74.7l-1.3 3.9"/>
  <g fill="#fff">
    <path d="M140.3 63.2h-1.9c-.1 0-.2 0-.2-.1-.9-1.4-1.8-2.9-2.7-4.3l-.1-.1v4.6h-2v-6.6h1.9c.1 0 .2 0 .2.1.9 1.4 1.8 2.9 2.7 4.3l.1.1v-4.5h2v6.5zm32.5-6.6v6.6h-1.9V63c-1.3.6-2.4.5-3.3-.7-.6-.8-.5-1.9.1-2.7.4-.5.9-.8 1.5-.9.6-.1 1.2 0 1.7.4v-2.4c.6-.1 1.2-.1 1.9-.1zm-3.5 4.3v.9c0 .4.3.7.8.8.4 0 .8-.3.8-.7v-2c-.1-.4-.4-.6-.9-.6-.4 0-.7.3-.7.7v.9zm-19 2.3h-1.9v-2.8c0-.5-.3-.8-.7-.9-.4-.1-.9.1-1.1.5-.1.1-.1.3-.1.4v2.8h-1.9v-4.4h1.9v.4l.1-.1c.9-.8 2.3-.7 3.1.1.4.4.5.9.6 1.4.1.9.1 1.7 0 2.6.1-.1.1-.1 0 0zm12.4 0h-1.9v-4.4h1.9v.5c.1-.1.1-.1.2-.1 1-.8 2.5-.7 3.2.3.3.3.4.7.4 1.1v2.7h-1.9v-2.8c0-.5-.2-.8-.6-.9-.4-.1-.8 0-1.1.3-.1.2-.2.3-.2.5v2.8zm13.7-4.7c.8 0 1.5.2 2.1.8 1 .9 1 2.4.1 3.3-1.2 1.1-3.2 1.1-4.3 0-1.1-1-.9-2.6.2-3.5.5-.4 1.1-.6 1.9-.6zm.7 2.4v-1.1c0-.3-.2-.6-.5-.8-.5-.2-1 .1-1.1.7v2.4c.1.4.4.7.8.7.5 0 .8-.3.8-.8v-1.1zm-17 .1h-3.7v1.3c.1.4.5.6.9.6s.7-.3.7-.7v-.5h1.9c0 .1 0 .1-.1.2-.4.8-1 1.3-1.9 1.5-1.1.3-2.2.1-3.1-.8-1-.9-.9-2.4.1-3.3.7-.6 1.5-.8 2.4-.8.9.1 1.6.4 2.1 1.1.3.4.5.8.5 1.2.2.1.2.1.2.2 0-.1 0-.1 0 0zm-2-.7v-.6c-.1-.4-.4-.7-.8-.7s-.7.3-.8.7v.5c0 .1 0 .1.1.1h1.5z"/>
    <path d="M151.5 63.2v-4.4h-1.1v-.6l.1-.1h1v-.9h2v.9h1.1v.6h-1.1v4.4c-.7.1-1.4.1-2 .1zm-8-4.4v4.4h-2v-4.4h2zm-2-2.2h2v1.3h-2v-1.3z"/>
  </g>
  <g fill="#fff">
    <path d="M117.1 75.4v-1.2s0-.1.1-.1h.6l.8 1.6s.7-1.5.7-1.6c0 0 0-.1.1-.1h.5v2.5h-.4c-.1 0-.1 0-.1-.1v-1.1c-.1.2-.4.9-.5 1.1 0 .1 0 .1-.1.1h-.3c-.1 0-.1-.1-.1-.1l-.6-1.2v1.2s0 .1-.1.1h-.4c-.1 0-.1 0-.1-.1-.2-.2-.1-.5-.1-1 0 .1 0 0 0 0zm11.7 0v-1.2c0-.1 0-.1.1-.1h.4s.1 0 .1.1.7 1.5.7 1.5v.1s0 .1.1.1v-.1c0-.2.6-1.5.6-1.5 0-.1 0-.1.1-.2h.6v2.6h-.4v-1.2c0 .1-.4 1-.5 1.1h-.6c-.1-.1-.5-1-.5-1.1v-.1 1.2h-.4c-.1 0-.1 0-.1-.1-.2-.3-.2-.7-.2-1.1zm-1.5 1.4c-.2 0-.4 0-.6-.1-.1 0-.2-.1-.3-.2l-.3-.3c-.1-.1-.1-.2-.2-.3-.1-.2-.1-.4-.1-.6 0-.1 0-.2.1-.3 0-.1.1-.2.2-.3.1-.2.3-.4.6-.5.1-.1.3-.1.5-.1h.4c.1 0 .2.1.3.1.1 0 .1.1.2.1l.1.1c0 .1.1.1.1.1l.1.1c.1.1.1.2.2.4v.6c0 .2-.1.3-.2.5-.2.2-.4.4-.7.5-.1.2-.3.2-.4.2zm0-.5h.2c.2-.1.3-.1.5-.3.1-.1.2-.3.2-.5v-.2c0-.1 0-.2-.1-.2l-.2-.2c-.1-.1-.3-.2-.4-.2h-.2c-.1 0-.2 0-.3.1-.1.1-.2.1-.3.3-.1.1-.2.3-.2.5s0 .4.2.6l.3.3c.1-.3.2-.2.3-.2zm11.3-.2v.6c0 .1 0 .1-.1.1h-.4s-.1 0-.1-.1v-2.6h.9c.2 0 .3 0 .4.1l.3.3c.1.1.1.3.1.5 0 .1 0 .2-.1.3 0 0 0 .1-.1.1-.1.1-.2.3-.4.3v.1c.1.1.2.3.3.5.1.1.2.3.3.4h-.5c-.1-.2-.3-.5-.4-.7l-.3-.6v.5c.1.1.1.1.1.2zm0-1.1v.4h.5c.1 0 .2 0 .2-.1.1-.1.1-.3 0-.4 0-.1-.1-.1-.2-.1h-.5v.2zm-5.2.1v-.9c0-.1 0-.1.1-.1h.4v1.8c0 .1.1.2.2.3.3.1.5 0 .5-.3v-1.8h.4v1.8c0 .2-.1.4-.2.5-.1.1-.2.2-.4.3-.2.1-.4 0-.6 0-.2-.1-.3-.2-.4-.4 0-.1-.1-.2-.1-.3.1-.3.1-.6.1-.9z"/>
    <path d="M125.7 74.8h-.2c-.1 0-.1 0-.2-.1s-.2-.1-.3-.1h-.3c-.2 0-.4.1-.5.2l-.2.2c0 .1-.1.2-.1.4s.1.4.2.5c.1.1.1.2.2.2.2.1.3.1.5.1.1 0 .2-.1.4-.2h.6s.1 0 0 .1-.2.3-.3.4c-.1.1-.2.2-.3.2-.1 0-.2.1-.3.1h-.3c-.2 0-.5 0-.6-.2-.2-.1-.3-.2-.4-.3-.1-.1-.1-.2-.2-.3 0-.1-.1-.2-.1-.3v-.5c0-.1.1-.2.1-.3 0-.1.1-.1.1-.2.1-.1.2-.3.4-.4.1-.1.2-.1.3-.1.1 0 .2-.1.3 0 .3 0 .5.1.6.1.1 0 .2.1.3.2l.3.3v.1c.2-.1.1-.1 0-.1zm-8.8 1.9c-.2.1-.3.1-.4.1 0 0-.1 0 0 0v-.3h-.8c0 .1-.1.1-.1.2s-.1.1-.1.2h-.6c.1-.1.1-.1.1-.2.1-.2 1.6-2.4 1.7-2.4h.4l-.2 2.4zm-.5-1.2v-.3s0 .1-.1.1c-.1.2-.2.3-.4.5v.1h.5v-.4zm20.2-.1v-1.3c0-.1 0-.1.1-.1h1.2c.1 0 .1 0 .1.1v.4c0 .1 0 .1-.1.1h-.7s-.1 0-.1.1v.5s0 .1.1.1h.8v.4h-.8c-.1 0-.1 0-.1.1v.4s0 .1.1.1h.8s.1 0 .1.1v.4c0 .1 0 0-.1 0h-1.3s-.1 0-.1-.1v-1.3zm-5 0v-1.2c0-.1 0-.1.1-.1h.7c.2 0 .3.1.5.2.1.1.2.2.3.4.1.1.1.2.1.4 0 .1 0 .3-.1.4-.1.1-.2.3-.4.3-.1 0-.2.1-.3.1h-.3v.8s0 .1-.1.1h-.4s-.1 0-.1-.1v-1.3zm.5-.4v.3h.4l.1-.1s0-.1.1-.1V75c0-.1-.1-.3-.3-.3h-.4c.1 0 .1.1.1.3 0-.1 0-.1 0 0zm-18.2.4v-1.2c0-.1 0-.1.1-.1h1.3s.1 0 .1.1v.4s0 .1-.1.1h-.8s-.1 0-.1.1v.4c0 .1 0 .1.1.1h.7s.1 0 .1.1v.4s0 .1-.1.1h-.8s-.1 0-.1.1v.9s0 .1-.1.1h-.4v-.4c.1-.6.1-.9.1-1.2zm8 .8v-.6c-.1-.3-.3-.5-.4-.8-.1-.2-.2-.5-.4-.7V74h.5c.1 0 .1 0 .1.1.1.3.3.6.4.8 0 0 0 .1.1.1l.1-.1c.1-.3.3-.6.4-.9h.5v.1c-.3.5-.5 1-.8 1.5v1s0 .1-.1.1h-.4s-.1 0-.1-.1c.1-.1.1-.2.1-.4zm14.2-.5v1s0 .1-.1.1h-.4s-.1 0-.1-.1v-2c0-.1 0-.1-.1-.1h-.4v-.5h1.3c.1 0 .1 0 .1.1v.4h-.4v.1c.1.3.1.7.1 1z"/>
    <path d="M120.5 75.4v-1.2s0-.1.1-.1h.4s.1 0 .1.1v2c0 .1 0 .1.1.1h.5s.1 0 0 0v.4h-1.1c-.1 0-.1 0-.1-.1v-1.2c0 .1 0 0 0 0zm-.7 0v-1.2c0-.1 0-.1.1-.1h.4v2.5h-.4v-.4c-.1-.1-.1-.5-.1-.8z"/>
  </g>
  <path fill="#fff" d="M143.7 76.1c0 .2-.1.3-.2.5-.1.1-.3.2-.5.2h-1v-.5h.1v-1.8h-.1V74h1.1c.2 0 .3.1.5.2.1.1.2.3.2.5v1.4zm-.5 0v-1.5l-.1-.1h-.4v1.8h.4s.1 0 .1-.1v-.1zm1.3.7h-.5V74h.5v2.8zm2-.6c0 .2-.1.3-.2.5-.1.1-.3.2-.5.2h-.4c-.2 0-.3-.1-.5-.2-.1-.1-.2-.3-.2-.4l.5-.1v.2l.1.1h.4s.1 0 .1-.1V76c0-.1 0-.2-.1-.2l-.7-.3c-.3-.1-.4-.3-.4-.6v-.2c0-.2.1-.3.2-.5.1-.1.3-.2.5-.2h.4c.2 0 .3.1.5.2.1.1.2.3.2.5l-.5.1v-.2l-.1-.1h-.4s-.1 0-.1.1v.2c0 .1 0 .2.1.2l.7.3c.3.1.4.3.4.6v.3zm2 .6h-.5v-.2l-.5-.9-.2.2v.9h-.5V74h.5v1l.7-.8V74h.5v.4l-.7.8.7 1.2v.4zm3.5-.6c0 .2-.1.3-.2.5-.1.1-.3.2-.5.2h-.3c-.2 0-.3-.1-.5-.2-.1-.1-.2-.3-.2-.4l.5-.1v.2l.1.1h.4s.1 0 .1-.1V76c0-.1 0-.2-.1-.2l-.7-.3c-.3-.1-.4-.3-.4-.6v-.2c0-.2.1-.3.2-.5.1-.1.3-.2.5-.2h.4c.2 0 .3.1.5.2.1.1.2.3.2.5l-.5.1v-.2l-.1-.1h-.4s-.1 0-.1.1v.2c0 .1 0 .2.1.2l.7.3c.3.1.4.3.4.6v.3zm1.9-1.8l-.6 1.1v1.3h-.5v-1.3l-.6-1.1V74h.5v.2l.3.6.3-.6V74h.5v.4zm2 1.8c0 .2-.1.3-.2.5-.1.1-.3.2-.5.2h-.4c-.2 0-.3-.1-.5-.2-.1-.1-.2-.3-.2-.4l.5-.1v.2l.1.1h.4s.1 0 .1-.1V76c0-.1 0-.2-.1-.2l-.7-.3c-.3-.1-.4-.3-.4-.6v-.2c0-.2.1-.3.2-.5.1-.1.3-.2.5-.2h.4c.2 0 .3.1.5.2.1.1.2.3.2.5l-.5.1v-.2l-.1-.1h-.4s-.1 0-.1.1v.2c0 .1 0 .2.1.2l.7.3c.3.1.4.3.4.6v.3zm1.9-1.7h-.6v2.3h-.5v-2.3h-.6V74h1.7v.5zm1.9 2.3H158V74h1.7v.5h-1.1v.7h.8v.5h-.8v.7h1.2v.4zm2 0h-.5v-1.3l-.2.6h-.4l-.2-.6v1.3h-.4V74h.5l.4 1.2.4-1.2h.5v2.8zm2.5-2.8h20.200001v2.9000001H164.2z"/>
  <path fill="#1d1d1b" d="M165.3 76.3v-1.9h.4v.8h1.6v-.8h.4v1.9h-.4v-.9h-1.6v.9h-.4zm3.9 0l-1.2-1.9h.4l.8 1.3c.1.1.1.2.2.3 0-.1.1-.2.2-.3l.8-1.3h.4l-1.2 1.9h-.4zm4.1-.6l.4.1c-.1.2-.2.4-.5.5-.2.1-.5.2-.8.2-.3 0-.6 0-.8-.1-.2-.1-.4-.2-.5-.4-.1-.2-.2-.3-.2-.5s.1-.4.2-.5c.1-.1.3-.3.5-.3.2-.1.5-.1.7-.1.3 0 .6 0 .8.1.2.1.3.2.4.4l-.4.1-.3-.3c-.1-.1-.3-.1-.5-.1s-.4 0-.6.1c-.2.1-.3.2-.3.3-.1.1-.1.2-.1.4s0 .3.1.4l.3.3c.2.1.3.1.5.1s.4 0 .6-.1c.4-.3.5-.5.5-.6zm.7.1v-.2h1.1v.2H174zm1.5-.4c0-.3.1-.5.4-.7.3-.2.6-.3 1-.3.3 0 .5 0 .8.1.2.1.4.2.5.3.1.1.2.3.2.5s-.1.4-.2.5c-.1.1-.3.3-.5.3-.2.1-.5.1-.7.1-.3 0-.5 0-.8-.1-.2-.1-.4-.2-.5-.3-.1-.1-.2-.2-.2-.4zm.4 0c0 .2.1.4.3.5.2.1.4.2.7.2.3 0 .5-.1.7-.2.2-.1.3-.3.3-.6 0-.2 0-.3-.1-.4-.1-.1-.2-.2-.4-.3-.2-.1-.3-.1-.5-.1-.3 0-.5.1-.7.2-.2.3-.3.5-.3.7zm4.8.7v.2h-2v-.2c.1-.1.1-.2.2-.2.1-.1.3-.2.5-.3.3-.2.6-.3.7-.4.1-.1.2-.2.2-.3 0-.1-.1-.2-.2-.2-.1-.1-.2-.1-.4-.1s-.3 0-.4.1c-.1.1-.2.2-.2.3h-.4c0-.2.1-.3.3-.4.2-.1.4-.1.7-.1.3 0 .5 0 .7.1.2.1.3.2.3.4 0 .1 0 .1-.1.2 0 .1-.1.1-.2.2s-.3.2-.6.3l-.4.2c-.1 0-.1.1-.2.1h1.5z"/>
  <path d="M181.2 75.9s.3.2.8.2c.4 0 .7-.1.7-.3 0-.2-.4-.3-.8-.3h-.2l-.1-.1.7-.5c.1-.1.2-.1.2-.1h-1.4v-.2h2v.2l-.9.6c.4 0 1 .2 1 .5s-.4.6-1.1.6c-.7 0-1.1-.3-1.1-.3l.2-.3z"/>
  <path fill="#fff" d="M809.84688 142.1937c.0163-.002.03-.008.045-.008h1.50876v1.1175h-1.55375v-1.11z"/>
  <g clip-path="url(#a)" transform="matrix(0.96369235,0,0,-0.96369235,280.01927,289.40048)">
    <path fill="#ac1739" d="M206.9606 2.4655s-1.779-2.465-5.856-2.465H14.9536c-6.835 0-7.705 2.465-7.705 2.465s-7.249 11.829-7.249 14.609v2.53c0 3.622 4.044 6.95 4.044 6.95v57.368s-4.044 2.906-4.044 5.18v5.391c0 2.78 2.275 5.054 5.055 5.054h201.783c2.78 0 5.054-2.274 5.054-5.054v-5.77c0-3.369-4.407-2.78-4.407-2.78v-61.411s4.407-1.011 4.407-3.285v-4.173c0-2.78-4.931-14.609-4.931-14.609"/>
    <path fill="#3c3c3b" d="M205.5182 18.4671H6.3732c-2.78 0-5.054 2.274-5.054 5.054v18.196l-1.011 1.39v4.676l1.011 1.39v1.769l-1.011 1.137v30.832l1.011 1.39v1.39c0 2.78 2.274 5.054 5.054 5.054h199.145c2.78 0 5.054-2.274 5.054-5.054v-1.516l1.319-2.907v-28.178l-1.319-1.896v-1.42l1.319-1.486v-5.181l-1.319-1.263v-18.323c0-2.78-2.274-5.054-5.054-5.054"/>
    <path fill="#666" d="M1.3191 41.732h23.459c1.714 0 3.117-1.383 3.117-3.073V26.472c0-1.69-1.403-3.073-3.117-3.073H1.3191"/>
    <path fill="#3c3c3b" d="M1.3191 40.6416h22.47c1.643 0 2.986-1.229 2.986-2.731v-10.827c0-1.502-1.343-2.73-2.986-2.73h-22.47"/>
    <path fill="#666" d="M210.5726 23.3689h-57.054c-1.714 0-3.117 1.383-3.117 3.073v12.187c0 1.69 1.403 3.073 3.117 3.073h57.054"/>
    <path fill="#3c3c3b" d="M210.5726 24.4594h-56.065c-1.642 0-2.986 1.229-2.986 2.731v10.827c0 1.502 1.344 2.73 2.986 2.73h56.065"/>
    <path fill="#666" d="M161.6793 49.7738H37.9753c-1.651 0-3 1.35-3 3v31.723c0 1.65 1.349 3 3 3h123.704c1.65 0 3-1.35 3-3v-31.723c0-1.65-1.35-3-3-3"/>
    <path fill="#3c3c3b" d="M159.7335 51.3969H39.2685c-1.543 0-2.806 1.263-2.806 2.806v28.345c0 1.544 1.263 2.806 2.806 2.806h120.465c1.543 0 2.806-1.262 2.806-2.806v-28.345c0-1.543-1.263-2.806-2.806-2.806"/>
    <path fill="#6f6f6e" d="M159.178 62.657H40.143V79.62h119.035V62.657z"/>
    <path fill="#6f6f6e" d="M117.863 51.348H81.545v34.006h36.318V51.348z"/>
    <path fill="#3c3c3b" d="M116.686 52.723H83.073v30.959h33.613V52.723z"/>
    <path fill="#3c3c3b" d="M157.191 64.261H42.164v13.754h115.027V64.261z"/>
    <path fill="#666" d="M210.5726 49.5189l-35.347.061c-2.665 0-3.918 1.397-3.918 3.178v30.148c0 1.782 1.061 3.24 3.726 3.24h35.539"/>
    <path fill="#3c3c3b" d="M210.5726 50.6632l-34.59.108c-2.583 0-3.475 1.259-3.475 2.929v28.264c0 1.67.431 2.929 3.014 2.929l35.051.108"/>
    <path fill="#e79f00" d="M359.7599 100.4654s-.097 2.328 2.814 2.328h5.966c1.746 0 1.795-1.164 1.795-1.164s.048-1.164 2.425-1.164h19.841c1.891 0 1.891 1.164 1.891 1.164s-.097 1.164 2.086 1.164h12.855c2.183 0 2.231-1.164 2.231-1.164s-.048-1.164 1.989-1.164h20.083c1.892 0 2.231 1.164 2.231 1.164s.049 1.164 1.989 1.164h6.937c1.601 0 1.601-2.037 1.601-2.037v-97.26c0-3.153-2.959-3.153-2.959-3.153h-80.719c-3.056 0-3.056 3.056-3.056 3.056v97.066z"/>
    <path fill="#1d1d1b" d="M412.7962 56.3223c0-5.358-4.344-9.702-9.702-9.702s-9.702 4.344-9.702 9.702 4.344 9.702 9.702 9.702 9.702-4.344 9.702-9.702"/>
    <path fill="#fff" d="M403.0944 48.5609c-4.28 0-7.761 3.482-7.761 7.761 0 4.28 3.481 7.762 7.761 7.762s7.761-3.482 7.761-7.762c0-4.279-3.481-7.761-7.761-7.761"/>
    <path fill="#1d1d1b" d="M405.9733 68.3525h-5.758c-.604 0-1.099.494-1.099 1.099v28.848c0 .604.495 1.099 1.099 1.099h5.758c.604 0 1.099-.495 1.099-1.099v-28.848c0-.605-.495-1.099-1.099-1.099"/>
    <path fill="#6b5532" d="M403.1268 40.557c-8.693 0-15.765 7.072-15.765 15.765 0 .13.002.259.005.388-.003.028-.005.061-.005.097v43.658h1.455V56.84l.008-.057-.002-.057c-.004-.134-.006-.269-.006-.404 0-7.89 6.419-14.31 14.31-14.31 7.891 0 14.31 6.42 14.31 14.31 0 .135-.002.27-.006.404l-.001.057.007.058v43.624h1.455V56.807c0-.037-.002-.07-.005-.097.003-.129.005-.258.005-.388 0-8.693-7.072-15.765-15.765-15.765"/>
    <path fill="#1d1d1b" d="M361.469 90.074h5.336v7.082h-5.336v-7.082zm5.82-.485h-6.306v8.052h6.306v-8.052z"/>
    <path fill="#6b5532" d="M369.7632 12.7546h-10.003v.485h9.518v5.481h-9.518v.485h10.003v-6.451zm76.7304 0h-10.003v6.451h10.003v-.485h-9.518v-5.481h9.518v-.485zm-79.6409 68.0059h-7.093v.485h6.608v4.705h-6.608v.485h7.093v-5.675zm79.6409 0h-7.093v5.675h7.093v-.485h-6.608v-4.705h6.608v-.485zM440.4854.3432c.936 0 1.698 1.004 1.698 1.94v7.609c0 .937-.762 1.698-1.698 1.698h-73.905c-.936 0-1.698-.761-1.698-1.698v-7.609c0-.936.762-1.94 1.698-1.94-1.203 0-2.183.737-2.183 1.94v7.609c0 1.204.98 2.183 2.183 2.183h73.905c1.204 0 2.183-.979 2.183-2.183v-7.609c0-1.203-.979-1.94-2.183-1.94"/>
    <path fill="#6b5532" d="M377.7567 1.8308c-.791 0-1.439.648-1.439 1.439v5.918c0 .792.648 1.439 1.439 1.439.792 0 1.439-.647 1.439-1.439v-5.918c0-.791-.647-1.439-1.439-1.439m20.9234 8.7963h-6.856c-.533 0-.97-.437-.97-.97v-.938c0-.534.437-.97.97-.97h1.989v-4.948c0-.534.437-.97.97-.97h.938c.534 0 .97.436.97.97v4.948h1.989c.534 0 .97.436.97.97v.938c0 .533-.436.97-.97.97m10.2354-2.5752c.534 0 .97.437.97.97v.635c0 .534-.436.97-.97.97h-6.856c-.533 0-.97-.436-.97-.97v-6.859c0-.533.437-.97.97-.97h6.856c.534 0 .97.437.97.97v.442c0 .534-.436.97-.97.97h-4.948v.822h3.648c.534 0 .97.437.97.971v.441c0 .534-.436.971-.97.971h-3.648v.637h4.948zm-34.991 2.5752h-.938c-.533 0-.97-.437-.97-.97v-3.066l-3.149 3.696c-.198.233-.486.348-.772.339-.008 0-.016.001-.024.001h-.938c-.534 0-.97-.437-.97-.97v-6.856c0-.534.436-.97.97-.97h.938c.533 0 .97.436.97.97v2.844l2.912-3.419c.455-.455.92-.395 1.033-.395h.938c.534 0 .97.436.97.97v6.856c0 .533-.436.97-.97.97m45.1455 0h-.938c-.533 0-.97-.437-.97-.97v-3.066l-3.149 3.696c-.198.233-.486.348-.772.339-.008 0-.016.001-.024.001h-.938c-.534 0-.97-.437-.97-.97v-6.856c0-.534.436-.97.97-.97h.938c.533 0 .97.436.97.97v2.844l2.912-3.419c.456-.455.92-.395 1.033-.395h.938c.534 0 .97.436.97.97v6.856c0 .533-.436.97-.97.97m-30.4635 0h-.938c-.533 0-.97-.437-.97-.97v-3.066l-3.149 3.696c-.198.233-.486.348-.772.339-.008 0-.016.001-.024.001h-.938c-.534 0-.97-.437-.97-.97v-6.856c0-.534.436-.97.97-.97h.938c.533 0 .97.436.97.97v2.844l2.912-3.419c.455-.455.92-.395 1.033-.395h.938c.534 0 .97.436.97.97v6.856c0 .533-.436.97-.97.97m49.3011-5.336c0-.534-.437-.97-.97-.97h-1.746c-.534 0-.971.436-.971.97v1.746c0 .534.437.971.971.971h1.746c.533 0 .97-.437.97-.971v-1.746zm-.42 5.336h-2.846c-1.601 0-2.911-1.31-2.911-2.911v-2.975c0-1.601 1.31-2.91 2.911-2.91h2.846c1.6 0 2.91 1.309 2.91 2.91v2.975c0 1.601-1.31 2.911-2.91 2.911m-9.8314-5.2713c0-.534-.437-.97-.97-.97h-1.407c-.534 0-.97.436-.97.97v1.682c0 .533.436.97.97.97h1.407c.533 0 .97-.437.97-.97v-1.682zm-.469 5.271h-2.846c-.219 0-.433-.025-.638-.072-.113.046-.236.072-.364.072h-.938c-.534 0-.97-.436-.97-.97v-6.856c0-.533.436-.97.97-.97h.938c.128 0 .251.026.364.072.205-.047.419-.072.638-.072h2.846c1.601 0 2.91 1.31 2.91 2.91v2.976c0 1.6-1.309 2.91-2.91 2.91"/>
    <path fill="#1d1d1b" d="M444.5775 87.9258h-5.287v9.435h.582v-8.853h4.123v8.853h.582v-9.435z"/>
    <path fill="#6b5532" d="M434.5605 11.833h-.582v26.929c0 .642-.522 1.164-1.164 1.164h-59.375c-.642 0-1.164-.522-1.164-1.164V11.833h-.582v26.929c0 .963.783 1.747 1.746 1.747h59.375c.963 0 1.746-.784 1.746-1.747V11.833z"/>
    <path fill="#231715" d="M406.0843 56.3223c0-1.651-1.339-2.99-2.99-2.99-1.651 0-2.99 1.339-2.99 2.99 0 1.651 1.339 2.99 2.99 2.99 1.651 0 2.99-1.339 2.99-2.99"/>
    <path fill="#1d1d1b" d="M426.9498 13.1496h-47.544c-3.626 0-6.593 2.967-6.593 6.593v12.62c0 3.627 2.967 6.594 6.593 6.594h47.544c3.626 0 6.593-2.967 6.593-6.594v-12.62c0-3.626-2.967-6.593-6.593-6.593"/>
    <path fill="#e79f00" d="M381.8231 35.1887c.721.228 1.149.822 1.296 1.302.026.088.016.17-.105.173-.32.01-.835-.01-1.305-.026-.216-.006-.239.313-.007.323.431.02 1.041.023 1.456.017.264-.004.45-.203.356-.47-.229-.653-.627-1.286-1.541-1.636-.277-.104-.398.239-.15.317m2.5787-.3885c-.222-.14-.401.137-.18.248.392.196.519.584.487.924-.013.117.068.169.156.169.082 0 .17-.039.167-.159v-.049c.153.065.32.169.405.287.036.049.019.049-.007.049-.268.003-.783-.004-1.116-.02-.242-.013-.235.265-.023.274.346.017.865.017 1.224.017.264 0 .395-.229.212-.438-.16-.179-.336-.339-.6-.434-.049-.016-.089-.016-.124-.006-.069-.359-.252-.64-.601-.862m3.1628 1.8866c-.219.114-.529.199-.751.228-.228.03-.14.346.118.307.186-.026.486-.072.757-.202.124-.059.15-.176.114-.258-.036-.082-.13-.13-.238-.075m-.209-.712c-.157.098-.369.167-.542.2-.254.048-.143.349.069.316.173-.026.467-.108.643-.202.111-.062.124-.176.081-.258-.042-.078-.14-.124-.251-.056m.317-1.086c-.18.146-.356.244-.523.323-.166.078-.323.134-.46.186-.199.075-.111.378.147.307.258-.072.783-.255 1.071-.493.101-.085.088-.222.032-.297-.055-.075-.169-.105-.267-.026m1.3903.1334c.578.32.708.757.708 1.243 0 .255-.016.66-.016.918 0 .212.352.199.349 0-.006-.278.01-.643.01-.914 0-.562-.17-1.126-.845-1.515-.268-.153-.412.154-.206.268m-.026.79c-.085 0-.176.059-.17.166.02.323.01.836-.006 1.146-.01.202.326.219.339.013.016-.294.016-.852.01-1.155-.003-.111-.088-.17-.173-.17m1.965.1859c-.117 0-.173.078-.173.157 0 .081.062.166.173.166h2.05c.111 0 .166-.081.166-.163 0-.078-.055-.16-.166-.16h-2.05zm4.2171-.8258c-.346-.02-.884-.023-1.221-.023-.244 0-.244.349-.003.34.349-.013.943-.013 1.185.003.098.006.183.062.189.183.01.196.01.528.003.698-.003.108-.081.167-.205.17-.287.01-.803-.01-1.143-.026-.254-.013-.267.307-.016.316.359.017.947.023 1.273.017.323-.007.437-.199.437-.418 0-.199.004-.545-.003-.836-.006-.313-.248-.411-.496-.424m1.6453-.2186c-.277-.088-.382.284-.111.352.656.167 1.315.842 1.645 1.482.104.203.441.065.297-.192-.405-.735-1.08-1.404-1.831-1.642m.202 1.348c-.12.111-.329.206-.483.241-.196.046-.114.376.134.307.173-.049.418-.137.575-.248.101-.072.094-.196.042-.271-.052-.075-.167-.12-.268-.029m4.2208.8224c-.091 0-.163-.078-.163-.17 0-.091.072-.163.163-.163.091 0 .17.072.17.163 0 .092-.079.17-.17.17m0-.512c-.189 0-.343.153-.343.342 0 .19.154.346.343.346.189 0 .346-.156.346-.346 0-.189-.157-.342-.346-.342m-1.521-1.048c-.007-.16.065-.238.261-.264.189-.027.718.006.95.088.248.084.388-.268.068-.353-.293-.078-.793-.088-1.135-.046-.288.036-.461.222-.464.49-.003.326.02 1.054.023 1.443 0 .228.336.182.333-.01-.003-.176-.01-.421-.016-.663.258.049.783.196 1.028.304.238.104.401-.229.12-.327-.31-.104-.786-.254-1.158-.297-.003-.143-.007-.274-.01-.365m3.7569-.16c.202-.007.186-.294-.006-.287-.48.016-1.133.019-1.564-.01-.193-.013-.212.284-.01.29.219.007.539.014.869.014.039.146.084.332.101.434.009.049-.004.078-.066.078-.137 0-.359.003-.574-.007-.209-.009-.212.275-.023.281.287.01.584.003.748-.003.212-.01.28-.16.244-.33-.032-.143-.075-.313-.117-.453.14 0 .274-.004.398-.007m.764.594c-.117 0-.173.078-.173.157 0 .081.062.166.173.166h2.05c.111 0 .166-.081.166-.163 0-.078-.055-.16-.166-.16h-2.05zm2.9769-1.175c-.261-.101-.388.206-.14.287.45.15.812.431 1.09.744-.118.072-.238.128-.343.157-.183.049-.098.326.131.261.12-.033.267-.095.411-.17.111.157.202.317.274.467.062.134.049.15-.036.147-.13-.003-.467-.036-.578-.049-.228-.3-.528-.643-.747-.796-.219-.15-.411.133-.189.271.316.195.754.747.871 1.028.114.277.451.075.336-.115-.016-.026-.036-.055-.058-.088.16.013.339.03.496.036.336.01.395-.225.267-.457-.12-.218-.241-.421-.368-.607.091-.065.176-.134.235-.205.075-.089.052-.193-.007-.248-.059-.056-.157-.072-.232.009-.049.053-.117.115-.196.177-.29-.35-.656-.634-1.217-.849m5.0528 2.1281c-.055.059-.17.196-.228.235-.151.098.006.268.146.186.079-.046.226-.163.284-.251.102-.157-.088-.291-.202-.17m-.405-.199c-.032.059-.16.206-.218.245-.147.104.016.264.153.179.078-.049.222-.17.277-.261.098-.16-.133-.31-.212-.163m-1.632.072c-.244 0-.228.31.004.307.411-.004.701.009 1.129.019.114.003.166-.075.166-.15 0-.078-.055-.157-.153-.157-.45-.006-.796-.019-1.146-.019m-.117-1.962c-.32-.111-.372.238-.144.3.519.141.806.539.829 1.025-.362-.003-.721-.013-.95-.019-.111-.004-.169.068-.169.146 0 .079.058.16.186.16.463.007 1.491.013 2.023.017.115 0 .167-.079.16-.157-.006-.078-.065-.15-.179-.147-.176.007-.444.007-.731.004-.03-.591-.379-1.104-1.025-1.329m2.2945.408c-.117-.072-.219-.049-.268.02-.045.065-.032.166.062.212.434.212.882.646 1.149 1.067.124.196.382.013.258-.157-.104-.14-.206-.267-.307-.385-.006-.251-.013-.858-.006-1.093.003-.108-.069-.17-.147-.173-.078-.003-.157.052-.157.166.004.177.013.523.017.794-.18-.167-.369-.311-.601-.451m2.1054-.2904c-.238-.088-.349.232-.104.316.594.206 1.109.728 1.367 1.215.03.055.017.107-.055.107-.206.004-.656-.013-.944-.019-.195-.007-.208.307 0 .316.239.01.719.017 1.048.017.294 0 .46-.186.333-.408-.111-.193-.228-.379-.362-.555.271-.163.685-.438.835-.646.131-.183-.114-.438-.267-.245-.16.199-.497.496-.764.656-.287-.32-.64-.584-1.087-.754m3.956 2.0007c.14.01.3.023.431.029.251.013.47-.163.349-.394-.398-.761-.848-1.424-1.766-1.786-.277-.108-.411.212-.14.307.725.251 1.263.904 1.505 1.459.026.062 0 .124-.079.121-.137-.004-.375-.026-.522-.043-.222-.293-.509-.636-.734-.79-.219-.146-.411.134-.19.271.314.193.738.793.888 1.051.108.183.434.026.281-.192l-.023-.033zm2.2883-.5092c-.101.105-.232.199-.356.251-.186.075-.055.366.167.268.143-.065.31-.16.434-.271.088-.078.075-.189.016-.255-.059-.065-.173-.084-.261.007m-.379-1.606c-.257-.085-.365.268-.107.336.649.177 1.374.895 1.716 1.544.108.203.435.069.291-.189-.418-.748-1.159-1.446-1.9-1.691m0 1.025c-.12.078-.27.144-.404.166-.196.033-.134.343.104.298.154-.03.33-.082.477-.164.104-.055.117-.169.075-.244-.043-.079-.144-.125-.252-.056m2.5237-.9105c-.238-.088-.349.232-.104.316.594.206 1.109.728 1.367 1.215.03.055.016.107-.055.107-.206.004-.656-.013-.944-.019-.196-.007-.209.307 0 .316.239.01.718.017 1.048.017.294 0 .46-.186.333-.408-.111-.193-.228-.379-.362-.555.271-.163.685-.438.835-.646.131-.183-.114-.438-.267-.245-.16.199-.497.496-.764.656-.287-.32-.64-.584-1.087-.754m4.5663 1.8669c-.45-.007-.94-.02-1.289-.02-.245 0-.229.307.003.304.411-.003.845.01 1.273.019.114.004.166-.074.166-.15 0-.078-.055-.153-.153-.153m-1.407-1.984c-.32-.111-.372.238-.143.3.519.14.809.542.832 1.028-.362-.003-.721-.016-.95-.023-.111-.003-.169.069-.169.147 0 .078.058.16.186.16.463.007 1.491.013 2.023.016.114 0 .167-.078.16-.156-.006-.079-.065-.151-.179-.147-.18.006-.448.01-.735.006-.029-.59-.378-1.106-1.025-1.331m2.4028.0518c-.245-.039-.323.294-.062.33.052.006.111.013.166.022.16.34.503 1.244.585 1.652.055.274.421.183.352-.068-.098-.356-.372-1.078-.561-1.518.339.062.698.14.953.202-.085.111-.176.206-.248.268-.15.13.062.359.245.196.156-.141.496-.474.6-.767.039-.111-.029-.206-.104-.239-.079-.032-.18-.006-.222.098-.023.056-.053.114-.085.173-.421-.117-1.113-.264-1.619-.349"/>
    <path d="M378.9236 37.6489h-1.335c-.044 0-.084-.012-.122-.03-.04-.019-.071-.05-.101-.081-.056-.059-.087-.13-.087-.21-.002-.394-.001-.788-.001-1.182 0-.011-.001-.022 0-.033.001-.01-.005-.01-.012-.013-.052-.025-.102-.051-.145-.088-.074-.064-.136-.138-.174-.229-.016-.039-.027-.08-.03-.122-.004-.047-.001-.096-.001-.144 0-.005 0-.012.003-.017.014-.035.018-.072.033-.107.013-.031.032-.058.049-.086.027-.043.066-.075.101-.111.018-.018.041-.029.061-.044.03-.022.066-.034.099-.051.011-.005.017-.008.016-.021-.001-.051 0-.102 0-.153v-.32c0-.012-.001-.021-.017-.019-.016-.019-.041-.006-.062-.016-.03-.014-.06-.028-.087-.048-.055-.039-.078-.093-.084-.157-.003-.026 0-.052-.001-.079 0-.028.016-.052.024-.078.005-.017.021-.032.035-.046.013-.013.029-.025.045-.036.04-.027.081-.042.132-.041.369.001.738.001 1.108.001.011 0 .022.001.032-.001.012-.001.014.005.017.015.007.022.016.043.027.063.041.084.094.158.172.211.084.058.176.089.277.091.041.001.081.001.122-.006.045-.009.086-.023.128-.039.087-.032.151-.093.203-.167.031-.043.057-.09.072-.142.006-.023.011-.025.038-.025h1.154c.012 0 .023.003.035.006.03.007.052.025.076.041.017.011.037.023.048.039.035.057.053.087.049.151-.002.032.002.063-.009.094-.023.067-.075.116-.139.143-.028.012-.058.016-.087.025-.013.005-.016.008-.016.02v.39c0 .028.001.055 0 .083-.001.013.006.015.016.021.02.013.045.014.063.026.061.042.122.084.169.141.028.034.054.07.072.109.025.059.046.121.042.187-.001.026.001.052 0 .079-.002.026-.002.054-.01.079-.021.071-.053.139-.1.195-.06.07-.129.134-.217.17-.026.011-.036.024-.036.054.002.396.001.792.002 1.187 0 .028-.006.053-.014.078-.018.055-.041.107-.088.145-.007.006-.013.013-.019.019-.054.051-.118.078-.19.078-.446.001-.891.001-1.336.001m.002.176c.45 0 .9.001 1.349 0 .082-.001.155-.032.225-.073.051-.029.092-.07.129-.112.041-.046.071-.099.089-.158.019-.058.029-.117.029-.178-.001-.351 0-.702-.001-1.053 0-.028.006-.045.033-.061.063-.037.116-.088.164-.143.054-.063.09-.138.128-.211.006-.043.022-.084.03-.127.011-.065.007-.128.006-.192-.001-.047-.015-.094-.031-.139-.02-.062-.047-.12-.087-.173-.047-.063-.079-.1-.138-.147-.029-.023-.055-.049-.09-.062-.009-.003-.015-.013-.015-.026.001-.079.001-.158 0-.236 0-.012.006-.013.015-.017.04-.019.077-.043.109-.073.051-.045.085-.103.109-.167.02-.055.018-.112.018-.169 0-.017.001-.034-.001-.051-.001-.016-.006-.031-.01-.046-.007-.025-.025-.046-.027-.073-.024-.019-.029-.05-.051-.071-.071-.069-.074-.083-.178-.13-.019-.009-.038-.013-.058-.017-.081-.016-.162-.007-.242-.008-.081-.002-.161-.001-.241-.001h-.854c-.011 0-.021-.001-.032.001-.013.001-.022.008-.022.023 0 .067-.023.128-.055.186-.035.063-.086.108-.148.144-.017.01-.039.001-.053.017-.079.015-.156.015-.233-.011-.077-.026-.154-.102-.188-.184-.019-.047-.037-.094-.037-.147 0-.022-.007-.028-.03-.029h-.028c-.419 0-.838 0-1.257.001-.097 0-.181.036-.256.098-.027.022-.049.048-.07.074-.032.041-.051.089-.065.139-.017.06-.014.122-.008.182.008.064.03.126.072.178.062.078.083.088.166.135.008.004.011.007.011.015 0 .079-.001.158 0 .237 0 .014-.006.021-.018.027-.047.02-.084.055-.121.088-.05.044-.09.096-.126.152-.031.048-.052.099-.069.152-.017.055-.031.111-.028.17.001.027-.001.055 0 .083.003.079.022.155.055.227.029.063.064.121.107.174.048.058.104.11.17.149.023.014.03.029.03.054v1.08c0 .057.012.111.031.163.024.069.063.128.114.181.049.051.106.087.169.118.029.014.061.017.09.028.032.012.066.009.099.009h1.321"/>
    <path fill="#f8b900" d="M377.3888 36.3295c.004-.034-.003-.074.008-.115.01-.036.018-.073.028-.109.012-.046.032-.089.057-.129.031-.052.066-.102.107-.146.032-.034.07-.061.108-.088.029-.021.06-.039.092-.056.021-.01.046-.011.065-.023.021-.014.046-.018.068-.025.038-.012.078-.019.117-.019.061-.001.121-.004.182.006.055.009.108.024.159.043.069.026.132.067.188.115.072.06.131.131.175.215.025.049.045.101.057.157.005.02.009.042.017.062.007.019-.003.04.006.062.008.02.003.045.003.068.001.016.005.034-.002.045-.01.016-.004.03-.007.044-.003.015-.007.029-.009.043-.007.049-.02.096-.042.14-.031.063-.066.122-.11.178-.035.045-.076.082-.12.115-.063.047-.171.11-.286.124-.02.016-.047.001-.065.011-.023.012-.045.007-.067.007-.034 0-.068.001-.103-.006-.033-.007-.066-.013-.099-.02-.063-.014-.12-.04-.174-.072-.058-.033-.109-.078-.157-.126-.073-.072-.121-.157-.156-.251-.025-.069-.045-.14-.04-.215.001-.01 0-.019 0-.035m2.355-.712c.031.005.068 0 .106.007.042.008.082.018.122.031.082.026.158.067.223.122.054.047.107.098.145.162.033.054.061.11.083.17.019.052.022.107.035.161.008.031.004.167-.01.194-.009.019-.004.035-.011.052-.025.064-.044.13-.08.19-.024.04-.053.077-.085.112-.025.028-.053.054-.083.077-.051.039-.103.074-.164.099-.035.015-.072.028-.108.039-.039.013-.081.014-.122.021-.03.005-.061.002-.092 0-.03-.001-.061-.001-.088-.01-.018-.006-.036-.003-.052-.009-.063-.028-.132-.04-.19-.081-.04-.029-.084-.053-.12-.089-.033-.034-.069-.065-.095-.105-.018-.028-.038-.055-.053-.085-.029-.061-.062-.121-.065-.19-.019-.017-.001-.041-.011-.056-.013-.019-.008-.039-.007-.057.002-.048-.003-.096.006-.145.008-.043.018-.086.031-.127.018-.055.043-.107.075-.154.036-.054.078-.103.126-.147.07-.063.148-.108.235-.14.069-.026.14-.043.215-.042h.034m-.82 2.031c.445 0 .89.001 1.335 0 .073 0 .137-.028.19-.078.007-.007.013-.014.02-.02.046-.038.07-.09.088-.144.008-.025.014-.051.014-.078-.001-.396 0-.792-.002-1.187 0-.031.01-.043.036-.054.088-.037.156-.1.216-.171.048-.056.08-.124.101-.194.007-.026.008-.053.009-.08.002-.026 0-.053.001-.079.004-.066-.017-.127-.043-.186-.017-.04-.043-.076-.071-.11-.048-.057-.108-.099-.169-.14-.019-.013-.043-.014-.063-.026-.01-.006-.017-.008-.016-.021.001-.028 0-.056 0-.084v-.389c0-.013.003-.016.016-.02.029-.01.058-.013.087-.026.064-.026.116-.076.139-.142.01-.031.007-.063.009-.094.004-.065-.014-.095-.05-.151-.01-.017-.03-.028-.048-.04-.023-.016-.045-.034-.075-.041-.012-.003-.023-.006-.035-.006h-1.154c-.027 0-.032.002-.039.025-.014.052-.04.099-.071.142-.052.074-.116.135-.203.168-.042.015-.083.03-.128.038-.041.008-.082.008-.122.007-.101-.003-.194-.033-.277-.091-.078-.054-.131-.128-.173-.211-.01-.021-.019-.042-.026-.063-.003-.01-.005-.016-.017-.015-.011.001-.022 0-.032 0-.37 0-.739.001-1.109-.001-.05 0-.092.015-.131.042-.016.01-.032.022-.045.036-.014.013-.03.028-.035.045-.008.026-.024.05-.024.079.001.026-.002.053.001.079.006.063.029.117.083.157.028.019.057.033.087.047.022.011.046-.002.063.017.016-.003.017.006.017.019v.32c0 .05-.001.102 0 .153 0 .013-.005.015-.016.021-.033.016-.069.028-.1.051-.02.014-.043.025-.06.043-.035.036-.075.068-.101.111-.018.028-.036.056-.049.087-.015.034-.019.072-.034.106-.002.006-.002.012-.002.018 0 .048-.003.096.001.144.003.041.014.083.03.121.038.092.1.166.174.229.043.037.093.064.144.088.008.003.013.004.013.014-.001.01 0 .021 0 .032 0 .394-.001.789.001 1.183 0 .079.031.15.087.209.03.032.061.063.1.081.039.018.079.031.122.031.446-.001.891-.001 1.336-.001"/>
    <path d="M379.7287 35.6992c.041.007.075-.003.11.009.021.007.048.004.069.014.021.01.047.004.063.025.041.004.071.031.105.05.035.019.066.045.094.074.025.026.056.047.074.077.031.047.064.092.084.146.026.065.041.133.047.203.005.071-.008.141-.026.211-.015.062-.045.115-.074.169-.03.056-.077.101-.125.142-.031.028-.065.053-.104.071-.047.022-.092.048-.143.059-.043.009-.086.02-.13.022-.02.002-.04.001-.06.001-.018-.001-.035-.001-.052-.008-.017-.007-.038-.007-.056-.009-.045-.005-.084-.022-.124-.04-.094-.041-.174-.104-.238-.183-.051-.061-.088-.132-.11-.209-.007-.025-.013-.051-.019-.076-.001-.004.003-.008.004-.012.002.001.005.002.006.004.035.043.08.056.132.05.014-.001.029.002.041-.003.09-.038.132-.131.089-.221-.021-.042-.057-.066-.1-.082-.029-.011-.057-.01-.085 0-.03.011-.056.026-.077.05-.002.002-.004.003-.006.005-.001-.003-.004-.006-.004-.008.002-.014-.006-.031.009-.042.004-.032.017-.061.028-.091.019-.055.051-.103.084-.151.012-.017.029-.029.041-.047.011-.018.035-.028.05-.044.051-.053.117-.082.18-.114.031-.015.065-.024.099-.03.043-.007.087-.009.124-.012m.015-.081h-.034c-.075-.002-.146.015-.215.041-.086.032-.165.077-.235.14-.048.044-.09.093-.126.147-.032.048-.057.099-.075.154-.013.041-.023.084-.031.127-.009.049-.003.097-.006.145-.001.019-.006.038.007.057.01.015-.008.04.011.056.003.07.036.13.065.191.015.03.035.057.053.084.027.04.062.071.095.105.036.036.08.06.121.089.057.041.126.054.189.081.016.007.034.003.052.009.027.01.058.009.088.011.031.001.062.004.092-.001.041-.007.083-.008.122-.02.036-.012.073-.025.108-.04.061-.025.113-.059.164-.098.031-.024.058-.05.083-.078.032-.034.061-.071.085-.112.036-.06.056-.126.08-.19.007-.016.002-.033.011-.051.014-.028.018-.164.01-.195-.013-.053-.016-.108-.035-.161-.022-.06-.049-.116-.083-.17-.038-.063-.09-.114-.145-.162-.065-.055-.14-.096-.223-.122-.04-.013-.08-.022-.122-.03-.038-.008-.075-.003-.106-.007m-1.6338.0831c.042-.002.091.005.141.017.066.017.129.04.187.075.077.048.139.111.192.182.026.035.044.077.063.117.019.042.028.087.04.132.002.003-.001.008-.002.012-.003-.001-.007-.002-.009-.005-.021-.024-.047-.041-.078-.047-.051-.011-.052-.01-.094-.001-.036.009-.08.053-.095.09-.011.026-.006.053-.009.08-.006.052.053.123.11.134.059.012.12.006.165-.045.003-.003.007-.004.01-.006.001.004.003.009.002.012-.008.031-.019.061-.027.091-.024.086-.075.157-.13.224-.033.039-.075.069-.117.099-.049.035-.104.063-.161.08-.064.019-.132.035-.201.03-.024-.002-.047 0-.071-.009-.018-.007-.04-.004-.061-.008-.033-.007-.064-.018-.094-.03-.031-.013-.061-.025-.089-.044-.029-.02-.061-.036-.085-.062-.024-.026-.054-.044-.076-.073-.042-.056-.08-.113-.106-.179-.024-.066-.044-.13-.043-.2.001-.05-.004-.1.009-.149.01-.041.018-.082.035-.12.044-.096.098-.183.182-.249.062-.048.125-.089.199-.114.063-.021.126-.037.171-.034.011.001.022 0 .042 0m-.721.628v.035c-.005.075.014.146.04.215.035.094.083.179.156.251.048.048.099.093.157.127.054.031.111.058.174.071.033.007.066.013.099.02.035.007.069.007.103.006.022 0 .044.005.066-.007.019-.009.045.006.065-.01.116-.015.224-.078.287-.125.044-.033.085-.07.12-.115.044-.056.079-.115.11-.178.021-.044.035-.091.042-.14.002-.014.006-.028.009-.042.003-.015-.003-.029.007-.044.007-.012.002-.03.002-.045 0-.023.005-.049-.003-.068-.009-.022.001-.043-.006-.063-.008-.02-.013-.042-.017-.062-.012-.056-.032-.108-.058-.157-.043-.084-.102-.155-.174-.215-.056-.048-.119-.088-.188-.115-.051-.019-.104-.034-.159-.043-.061-.01-.122-.007-.182-.006-.039 0-.079.008-.117.019-.023.007-.047.011-.069.025-.018.012-.044.013-.064.023-.032.017-.063.035-.092.056-.038.027-.076.054-.108.088-.041.044-.076.094-.107.146-.025.04-.045.083-.057.129-.01.037-.019.073-.028.109-.011.041-.004.082-.008.115"/>
    <path fill="#f8b900" d="M379.7287 35.6992c-.037.003-.081.005-.124.012-.034.006-.068.015-.099.03-.063.032-.129.061-.18.114-.015.016-.039.026-.05.044-.012.018-.029.03-.041.047-.033.048-.065.096-.084.151-.011.03-.024.059-.028.091-.015.011-.007.028-.009.042 0 .002.003.005.004.008.002-.002.004-.003.006-.005.021-.024.047-.039.077-.05.028-.01.056-.011.085 0 .043.016.079.04.1.082.043.09.001.183-.089.221-.012.005-.027.002-.041.003-.052.006-.097-.007-.132-.05-.001-.002-.004-.003-.006-.004-.001.004-.005.008-.004.012.006.025.012.051.019.076.022.077.059.148.11.209.064.079.144.142.238.183.04.018.079.035.124.04.018.002.039.002.056.009.017.007.034.007.052.008.02 0 .04.001.06-.001.044-.002.087-.013.13-.022.051-.011.096-.037.143-.059.039-.018.073-.043.104-.071.048-.041.095-.086.125-.142.029-.054.059-.107.074-.169.018-.07.031-.14.026-.211-.006-.07-.021-.138-.047-.203-.02-.054-.053-.099-.084-.146-.018-.03-.049-.051-.074-.077-.028-.029-.059-.055-.094-.074-.034-.019-.064-.046-.105-.05-.016-.021-.042-.015-.063-.025-.021-.01-.048-.007-.069-.014-.035-.012-.069-.002-.11-.009m-1.6188.0021c-.02 0-.031.001-.042 0-.045-.003-.108.013-.171.034-.074.025-.137.066-.199.114-.084.066-.138.153-.182.249-.017.038-.025.079-.035.12-.013.049-.008.099-.009.149-.001.07.019.134.043.2.026.066.064.123.106.179.022.029.052.047.076.073.024.026.056.042.085.062.028.019.058.031.089.044.03.012.061.023.094.03.021.004.043.001.061.008.024.009.047.007.071.009.069.005.137-.011.201-.03.057-.017.112-.045.161-.08.042-.03.084-.06.117-.099.055-.067.106-.138.13-.224.008-.03.019-.06.027-.091.001-.003-.001-.008-.002-.012-.003.002-.007.003-.01.006-.045.051-.106.057-.165.045-.057-.011-.116-.082-.11-.134.003-.027-.002-.054.009-.08.015-.037.059-.081.095-.09.042-.009.043-.01.094.001.031.006.057.023.078.047.002.003.006.004.009.005.001-.004.004-.009.002-.012-.012-.045-.021-.09-.04-.132-.019-.04-.037-.082-.063-.117-.053-.071-.115-.134-.192-.182-.058-.035-.121-.058-.187-.075-.05-.012-.099-.019-.141-.017"/>
    <path fill="#6b5f4e" d="M410.2642 14.571c.019.477.082 1.243.104 1.638.01.202.136.306.264.306.112 0 .226-.077.275-.235.104-.327.344-1.172.409-1.306.008-.016.017-.024.027-.024.009 0 .02.008.025.024.104.251.322 1.009.428 1.32.052.153.169.223.281.223.136 0 .267-.106.272-.297.009-.351.069-1.237.09-1.624v-.011c0-.093-.079-.142-.158-.142s-.158.046-.163.142c-.028.389-.055 1.472-.055 1.472 0 .046-.011.065-.024.065-.014 0-.033-.024-.041-.057-.06-.226-.341-1.112-.453-1.404-.035-.093-.122-.156-.212-.156-.077 0-.153.044-.197.153-.087.207-.327 1.071-.428 1.393-.011.033-.024.052-.035.052-.014 0-.025-.022-.03-.079-.019-.24-.057-1.069-.071-1.445-.003-.09-.084-.136-.164-.136-.073 0-.144.041-.144.122v.006zm3.5244.8668c-.085.256-.166.504-.21.638-.016.049-.03.076-.046.076-.014 0-.03-.024-.049-.079-.041-.109-.218-.619-.218-.643 0-.011.005-.017.021-.017.055 0 .156-.002.251-.002.098 0 .194.002.232.002.016 0 .022.003.022.011 0 .003 0 .009-.003.014m.455-.99c-.062 0-.128.03-.155.101-.033.079-.104.297-.188.551-.006.016-.014.025-.03.025-.044.002-.156.002-.278.002-.164 0-.346 0-.404-.002-.013 0-.027-.009-.032-.025-.069-.215-.131-.412-.172-.543-.025-.076-.087-.111-.153-.111-.076 0-.155.052-.155.136 0 .049.008.071.605 1.75.044.126.142.183.24.183.103 0 .21-.066.253-.188.175-.491.529-1.44.619-1.652.011-.028.017-.055.017-.079 0-.093-.082-.148-.167-.148m1.0578 1.7915c-.131 0-.278-.003-.286-.139-.008-.115-.017-.428-.017-.722 0-.216.006-.418.017-.521.013-.126.098-.147.324-.147.286 0 .862 0 .862.771 0 .439-.265.755-.682.755 0 0-.117.003-.218.003m.038-1.821c-.218 0-.605.003-.632.384-.009.134-.014.355-.014.584 0 .3.008.616.016.763.022.373.292.384.63.384.085 0 .166-.002.207-.005.63-.041.976-.48.976-1.047 0-1.06-.899-1.063-1.183-1.063m2.2135 1.821c-.273 0-.33-.006-.338-.123-.006-.065-.003-.199-.006-.357 0-.054.003-.054.339-.054.125 0 .256 0 .305.002.153.009.153-.136.153-.144 0-.079-.05-.156-.145-.156h-.014c-.068.006-.171.009-.275.009-.338 0-.365-.003-.365-.06 0-.406.002-.469.008-.515.014-.126.057-.131.442-.131.16 0 .335.002.387.005h.013c.096 0 .148-.068.148-.139 0-.074-.055-.147-.172-.153-.036-.002-.194-.005-.352-.005-.155 0-.313.003-.349.005-.251.02-.406.109-.417.349-.005.115-.005.317-.005.537 0 .333.002.704.008.875.005.219.147.333.368.344.049.003.204.005.357.005.155 0 .305-.002.346-.005.104-.006.153-.074.153-.144 0-.074-.057-.148-.161-.148 0 0-.243.003-.428.003m2.0933-1.6465c0-.095-.082-.145-.164-.145-.081 0-.163.05-.163.145v.003c.005.327.013.692.013 1.044 0 .259-.005.507-.013.728-.006.114.117.144.166.144.079 0 .161-.044.161-.134v-.005c-.006-.226-.008-.482-.008-.747 0-.341.002-.695.008-1.03v-.003zm.4797-.0136c.005.281.008.611.008.924 0 .273-.003.532-.005.736v.011c0 .191.106.267.226.267.101 0 .21-.057.267-.147.172-.273.627-1.123.834-1.434.017-.024.03-.038.038-.038.009 0 .02.008.02.114 0 .257-.009 1.107-.017 1.358-.003.09.071.147.158.147.079 0 .158-.049.158-.142v-.005c-.005-.191-.008-.455-.008-.728 0-.346.003-.703.008-.94v-.006c0-.163-.12-.259-.248-.259-.087 0-.174.044-.234.137-.191.302-.701 1.234-.848 1.483-.011.016-.03.051-.043.051-.017 0-.017-.027-.017-.152 0-.284.008-1.088.017-1.377v-.005c0-.088-.077-.129-.156-.129s-.158.044-.158.131v.003zm3.3717 1.0685c0 .243-.003.48-.014.72-.002.071.041.144.164.144.079 0 .158-.043.158-.133v-.006c-.008-.251-.011-.504-.011-.769 0-.188 0-.384.006-.588v-.02c0-.373-.27-.567-.592-.567-.223 0-.357.058-.357.202 0 .079.055.153.153.153.021 0 .046-.003.071-.011.048-.016.098-.022.141-.022.161 0 .27.098.276.284.002.212.005.414.005.613m1.6791-.2099c-.085.256-.166.504-.21.638-.016.049-.03.076-.046.076-.014 0-.03-.024-.049-.079-.041-.109-.218-.619-.218-.643 0-.011.005-.017.021-.017.055 0 .156-.002.251-.002.098 0 .194.002.232.002.016 0 .022.003.022.011 0 .003 0 .009-.003.014m.455-.99c-.062 0-.128.03-.155.101-.033.079-.104.297-.188.551-.006.016-.014.025-.03.025-.044.002-.156.002-.278.002-.164 0-.346 0-.404-.002-.013 0-.027-.009-.032-.025-.069-.215-.131-.412-.172-.543-.025-.076-.087-.111-.153-.111-.076 0-.155.052-.155.136 0 .049.008.071.605 1.75.044.126.142.183.24.183.103 0 .21-.066.253-.188.175-.491.529-1.44.619-1.652.011-.028.017-.055.017-.079 0-.093-.082-.148-.167-.148m.9951 1.7997c-.218 0-.243-.03-.243-.283 0-.096.003-.208.003-.303v-.046c0-.058.055-.077.224-.077.051 0 .109.003.166.008.207.019.333.208.333.382 0 .164-.107.316-.352.316 0 0-.066.003-.131.003m-.384-1.799c-.077 0-.156.049-.156.139v.008c.011.213.014.453.014.684 0 .281-.006.548-.006.739 0 .335.003.515.537.515.058 0 .112-.002.153-.005.431-.028.63-.319.63-.614 0-.302-.21-.61-.592-.648-.065-.009-.128-.014-.196-.014-.063 0-.128.005-.199.022-.008.002-.014.002-.019.002-.014 0-.016-.008-.016-.03 0-.168.008-.362.008-.542v-.106c-.003-.104-.079-.15-.158-.15m2.2376.9893c-.085.256-.166.504-.21.638-.016.049-.03.076-.046.076-.014 0-.03-.024-.049-.079-.041-.109-.218-.619-.218-.643 0-.011.005-.017.021-.017.055 0 .156-.002.251-.002.098 0 .194.002.232.002.016 0 .022.003.022.011 0 .003 0 .009-.003.014m.455-.99c-.063 0-.128.03-.155.101-.033.079-.104.297-.188.551-.006.016-.014.025-.03.025-.044.002-.156.002-.278.002-.164 0-.347 0-.404-.002-.013 0-.027-.009-.033-.025-.068-.215-.13-.412-.171-.543-.025-.076-.088-.111-.153-.111-.076 0-.155.052-.155.136 0 .049.008.071.605 1.75.043.126.142.183.24.183.103 0 .21-.066.253-.188.175-.491.529-1.44.619-1.652.011-.028.016-.055.016-.079 0-.093-.081-.148-.166-.148m.4498.1314c.005.281.008.611.008.924 0 .273-.003.532-.005.736v.011c0 .191.106.267.226.267.101 0 .21-.057.267-.147.172-.273.627-1.123.834-1.434.017-.024.03-.038.038-.038.009 0 .02.008.02.114 0 .257-.009 1.107-.017 1.358-.003.09.071.147.158.147.079 0 .158-.049.158-.142v-.005c-.005-.191-.008-.455-.008-.728 0-.346.003-.703.008-.94v-.006c0-.163-.12-.259-.248-.259-.087 0-.174.044-.234.137-.191.302-.701 1.234-.848 1.483-.011.016-.03.051-.043.051-.017 0-.017-.027-.017-.152 0-.284.008-1.088.017-1.377v-.005c0-.088-.077-.129-.156-.129s-.158.044-.158.131v.003zm-50.5313 2.0937l-.069.233c.077.033.143.078.198.137.054.059.097.122.129.19h.031l.198-.119v-2.411h-.299v2.033l-.188-.063zm2-.7365v.839c0 .101-.049.151-.147.151h-.035c-.09 0-.135-.05-.135-.151v-.656c0-.122.045-.183.135-.183h.182zm-.298-.641v-.103c0-.122.045-.183.135-.183h.044c.079 0 .119.049.119.148v.613l-.188-.141h-.069c-.241 0-.361.151-.361.452v.708c0 .296.12.444.361.444h.197c.241 0 .362-.148.362-.444v-1.635c0-.301-.121-.451-.362-.451h-.179c-.24 0-.361.15-.361.451v.141h.302zm1.7863 1.4445v-.419c0-.123.045-.184.135-.184h.034c.09.017.136.077.136.18v.423c0 .122-.046.183-.136.183h-.034c-.09 0-.135-.061-.135-.183m.113-1.73h.078c.09 0 .136.061.136.183v.472c0 .12-.058.18-.173.18-.117-.003-.176-.061-.176-.176v-.476c0-.122.045-.183.135-.183m-.198.983c-.144.035-.216.137-.216.306v.501c0 .289.12.433.361.433h.185c.241 0 .361-.144.361-.433v-.504c0-.169-.066-.271-.198-.307.147-.047.22-.148.22-.303v-.553c0-.287-.12-.43-.361-.43h-.229c-.241 0-.361.143-.361.43v.557c0 .155.079.256.238.303m1.8778-.1481v-.684c0-.101.044-.151.132-.151h.056c.09 0 .135.05.135.151v.501c0 .122-.045.183-.135.183h-.188zm.304.673v.226c0 .122-.045.183-.135.183h-.05c-.079 0-.119-.049-.119-.148v-.768l.188.14h.091c.231 0 .346-.144.346-.433v-.588c0-.285-.115-.427-.346-.427h-.235c-.23 0-.346.142-.346.427v1.67c0 .289.116.433.346.433h.216c.231 0 .346-.144.346-.433v-.282h-.302zm4.3107-1.7848h-.108c-.21 0-.419.001-.628-.001-.043-.001-.066.013-.089.049-.349.565-.7 1.13-1.051 1.695-.011.018-.023.036-.047.051v-1.791h-.795v2.594h.054c.232 0 .463-.001.695.001.039 0 .059-.012.079-.045.349-.567.7-1.134 1.05-1.701.011-.018.023-.036.046-.049v1.79h.794v-2.593zm11.3803.8754h-.001c0-.118-.003-.235.001-.353.006-.175.127-.293.299-.299.167-.005.302.109.309.281.01.237.004.474.005.711 0 .024-.004.048-.01.072-.039.159-.164.243-.336.228-.15-.014-.259-.125-.266-.282-.005-.119-.001-.239-.001-.358m1.374 1.719v-2.591h-.763c-.002.03-.003.058-.005.086-.505-.242-.948-.187-1.285.285-.223.311-.194.741.045 1.052.147.19.336.316.576.357.237.041.454-.019.666-.147v.958h.766zm-8.8131-2.5914h-.765v.068c0 .34 0 .681-.001 1.021 0 .177-.103.313-.268.352-.175.041-.366-.041-.436-.195-.021-.047-.029-.104-.03-.157-.002-.34 0-.68.001-1.02v-.069h-.767v1.717h.767v-.174c.026.021.042.033.057.045.358.302.905.277 1.228-.055.146-.151.213-.338.217-.543.006-.324.002-.647.002-.97 0-.005-.003-.011-.005-.02m4.8523-.0003h-.766v1.717h.765v-.177c.028.022.045.035.061.049.378.317.965.27 1.268-.102.101-.124.165-.267.169-.425.009-.345.006-.69.008-1.036 0-.007-.003-.014-.006-.025h-.76c-.001.023-.004.047-.004.07-.001.336-.001.672-.001 1.009 0 .178-.082.3-.237.352-.156.052-.333-.001-.433-.13-.046-.06-.065-.128-.065-.204.001-.34.001-.679.001-1.019v-.079m5.6734.872h.006v.364c-.001.026-.003.052-.006.078-.017.135-.073.244-.205.296-.194.076-.409-.05-.422-.269-.018-.297-.008-.597-.01-.895 0-.015.004-.03.006-.044.026-.165.147-.281.297-.285.182-.006.321.119.332.313.009.147.002.295.002.442m-.296.968c.297-.005.58-.095.816-.307.404-.36.412-.932.02-1.306-.453-.432-1.253-.431-1.705.003-.414.398-.372 1.01.095 1.363.224.169.48.244.774.247m-7.2001-.716c-.006.08-.005.158-.019.234-.027.154-.158.262-.31.264-.154.002-.288-.105-.317-.262-.012-.061-.009-.126-.015-.189-.005-.042.012-.054.053-.054.185.002.37.001.554.001.015 0 .029.003.054.006m.807-.269h-1.466c0-.144-.001-.281.001-.418 0-.032.007-.064.016-.094.044-.155.177-.248.337-.237.147.011.266.125.288.283.01.066.011.134.016.205h.763c-.008-.023-.015-.046-.025-.068-.151-.321-.412-.508-.747-.589-.45-.108-.865-.027-1.205.301-.381.367-.362.933.035 1.284.27.238.589.33.944.303.334-.026.62-.157.839-.416.119-.14.187-.304.206-.488.001-.011.001-.022.001-.033 0-.008-.001-.015-.003-.033m-3.3979-.8535v1.72h-.425c0 .08-.001.155.002.229.001.009.029.024.044.025.103.002.206.001.309.001h.068v.346h.778v-.344h.419v-.254h-.415v-1.723h-.78zm-3.1486.0008h-.77v1.717h.77v-1.717zm-.772 2.5887c.008.001.015.003.022.003.248.001.496.001.749.001v-.522h-.771v.518zm-12.5911-1.6323v-.128c0-.225-.095-.338-.284-.338h-.153c-.19 0-.285.113-.285.338v1.315c0 .226.095.339.285.339h.153c.189 0 .284-.113.284-.339v-.225h-.237v.206c0 .077-.036.116-.107.116h-.047c-.062 0-.093-.039-.093-.116v-1.276c0-.078.031-.117.093-.117h.06c.062 0 .094.039.094.117v.108h.237z"/>
    <path fill="#6b5f4e" d="M376.2402 17.5855c-.728 0-1.321-.593-1.321-1.321s.593-1.321 1.321-1.321 1.321.593 1.321 1.321-.593 1.321-1.321 1.321m0-2.908c-.875 0-1.587.712-1.587 1.587s.712 1.587 1.587 1.587 1.587-.712 1.587-1.587-.712-1.587-1.587-1.587"/>
    <path fill="#f7e835" d="M144.458 53.09h-22.745v6.065h22.745V53.09z"/>
    <path fill="#e20613" d="M189.1899 59.1553c0-1.675-1.358-3.033-3.033-3.033-1.674 0-3.032 1.358-3.032 3.033 0 1.675 1.358 3.033 3.032 3.033 1.675 0 3.033-1.358 3.033-3.033"/>
    <path fill="#fff" d="M37.6857 33.2506h-.216c-.417 0-.835.003-1.252-.002-.085-.001-.132.025-.177.098-.697 1.128-1.397 2.254-2.096 3.38-.023.037-.047.073-.095.103v-3.572h-1.586v5.174h.108c.463 0 .925-.002 1.387.002.077 0 .117-.026.157-.09.697-1.133 1.396-2.263 2.095-3.394.022-.036.046-.071.091-.097v3.569h1.584v-5.171zm22.7002 1.7461h-.001c0-.235-.006-.469.002-.704.011-.349.252-.586.596-.596.333-.01.602.216.616.56.019.472.009.945.009 1.418 0 .048-.008.096-.019.143-.078.317-.326.486-.67.455-.3-.026-.517-.249-.531-.561-.01-.238-.002-.477-.002-.715m2.742 3.429v-5.168h-1.523c-.004.06-.007.114-.011.171-1.006-.483-1.89-.372-2.562.568-.445.621-.388 1.479.089 2.098.293.381.671.631 1.149.713.473.082.906-.038 1.329-.293v1.911h1.529zm-17.5807-5.1692h-1.527v2.171c0 .355-.207.625-.536.704-.348.082-.729-.082-.869-.39-.043-.094-.059-.208-.059-.313-.004-.678-.001-1.356 0-2.035v-.137h-1.528v3.425h1.529v-.347c.052.041.083.065.113.09.715.601 1.806.553 2.449-.11.293-.302.426-.674.433-1.084.012-.645.004-1.29.004-1.934 0-.011-.005-.021-.009-.04m9.679-.0006h-1.529v3.425h1.527v-.354c.056.045.089.071.121.098.754.632 1.926.538 2.529-.203.202-.247.329-.532.338-.847.019-.689.012-1.378.015-2.067 0-.014-.006-.028-.011-.05h-1.516c-.003.047-.009.093-.009.14-.001.67 0 1.341-.001 2.011 0 .356-.165.6-.473.704-.311.104-.664-.002-.863-.26-.092-.12-.131-.255-.13-.406.002-.678.001-1.356.002-2.034v-.157zm11.3165 1.7393h.012c0 .242 0 .484-.001.726 0 .052-.005.104-.011.156-.033.268-.145.486-.41.59-.386.152-.815-.099-.841-.536-.035-.594-.017-1.19-.02-1.786 0-.029.007-.059.012-.088.053-.329.293-.559.593-.569.363-.011.64.239.663.625.017.293.003.588.003.882m-.59 1.93c.593-.009 1.156-.188 1.628-.611.804-.719.82-1.859.039-2.605-.904-.863-2.499-.861-3.401.005-.826.795-.743 2.016.189 2.72.447.337.958.485 1.545.491m-14.3623-1.4273c-.012.16-.011.316-.038.467-.053.307-.316.523-.618.527-.308.003-.575-.211-.633-.523-.023-.123-.017-.251-.03-.376-.009-.086.025-.109.107-.108.368.003.736.001 1.105.002.028 0 .057.006.107.011m1.61-.536h-2.924c0-.287-.002-.561.001-.835.001-.062.014-.126.031-.186.089-.31.355-.495.674-.472.293.02.529.247.575.563.019.132.021.266.031.409h1.522c-.017-.047-.03-.093-.05-.135-.301-.64-.822-1.015-1.491-1.175-.897-.215-1.724-.055-2.403.6-.759.732-.721 1.861.071 2.56.537.475 1.174.659 1.882.605.667-.051 1.236-.312 1.674-.829.238-.281.373-.607.41-.973.002-.022.003-.045.003-.067 0-.015-.003-.029-.006-.065m-6.7781-1.7029v3.432h-.847c0 .159-.004.307.004.455.001.019.057.049.088.05.205.004.41.003.615.003h.135v.69h1.554v-.685h.835v-.507h-.829v-3.438h-1.555zm-6.2803.001h-1.535v3.424h1.535V33.26zm-1.5401 5.1641c.016.003.03.007.044.007h1.493v-1.041h-1.537v1.034zm33.1705-10.7522c0 .56.001 1.119-.001 1.679 0 .053.006.079.07.078.209-.004.419-.003.629-.001.046.001.071-.059.071-.059l1.034-2.204s.91 2.027.984 2.187c.023.051.052.077.112.076.21-.003.419-.003.629 0 .053.001.064-.018.063-.065-.003-.102-.001-.204-.001-.306v-2.976c0-.038-.002-.077 0-.115.003-.041-.014-.053-.055-.053-.184.002-.369.005-.553-.001-.074-.003-.082.022-.081.086.002.458.001.916.001 1.374 0 .051.001.102-.001.152 0 .011-.011.021-.017.031-.007-.009-.015-.018-.02-.028-.102-.218-.56-1.224-.687-1.509-.031-.068-.064-.115-.159-.108-.109.009-.291.006-.402.002-.11.002-.142.101-.142.101l-.783 1.654s-.004-1.199-.003-1.677c.001-.052-.005-.079-.069-.078-.171.005-.343.001-.515.002-.103 0-.104.001-.104.098v1.66zm15.8097.0073v1.641c0 .106.001.107.114.107.191 0 .382-.002.573.001.058.001.094-.021.115-.072.064-.152.879-2.04.879-2.04.01-.033.024-.077.049-.092.04-.022.006-.109.073-.085.03.012.056.06.067.097.058.206.87 1.967.87 1.967.038.069.02.177.094.205.077.03.172.019.26.018.163-.001.327-.008.49-.013.002-.158.005-.316.005-.474.001-.948.001-1.896.001-2.843 0-.045-.002-.09 0-.134.002-.045-.022-.049-.059-.049-.19.001-.381.003-.572-.001-.06-.001-.057.03-.057.071.001.21 0 .419 0 .629 0 .293.001.585-.001.878 0 .021-.013.043-.02.064-.009-.022-.017-.044-.027-.065-.049-.113-.575-1.29-.71-1.52-.022-.037-.029-.056-.072-.056-.185.002-.369.003-.554-.001-.054-.001-.086.027-.104.064-.092.197-.624 1.408-.665 1.499-.012.027-.027.052-.04.079-.008-.028-.021-.055-.021-.083-.001-.426 0-.852-.001-1.278 0-.089-.003-.177-.005-.265-.093-.005-.187-.011-.28-.014-.083-.002-.165-.001-.248 0-.154 0-.154 0-.154.162v1.603m-1.9653-1.1606c.093.007.194-.007.279.024.234.086.455.186.613.408.144.2.21.413.234.649.009.093-.024.18-.037.27-.018.12-.061.226-.126.331-.071.114-.168.199-.26.291-.159.162-.363.228-.583.247-.082.007-.165.001-.248.001-.123.001-.239-.033-.343-.091-.162-.089-.315-.182-.432-.342-.136-.189-.205-.393-.222-.614-.02-.273.066-.521.225-.745.091-.127.313-.288.453-.35.146-.063.292-.082.447-.079m-.04-.676c-.273-.047-.527.061-.776.166-.125.053-.242.136-.343.228-.132.122-.26.255-.362.403-.092.134-.16.289-.215.443-.087.247-.1.509-.075.768.014.145.059.292.114.428.055.136.132.265.212.388.192.295.463.501.784.628.194.077.394.142.613.137.174-.005.349-.007.517-.046.142-.034.287-.083.409-.159.075-.047.16-.083.229-.142.065-.055.108-.139.2-.162.017-.079.088-.117.134-.173.043-.052.09-.101.12-.16.085-.168.171-.333.223-.519.037-.13.026-.262.058-.392.032-.128-.007-.28-.039-.417-.054-.237-.158-.454-.292-.66-.22-.337-.562-.564-.922-.687-.187-.064-.379-.097-.589-.072m15.2946 2.4103c0-.133.001-.267 0-.4-.001-.042 0-.07.058-.069.235.003.47-.007.705.005.121.006.237.066.304.173.115.183.115.379 0 .563-.067.106-.183.167-.304.173-.235.012-.47.002-.705.005-.058.001-.059-.027-.059-.069.002-.127.001-.254.001-.381m0-1.497c0-.28-.004-.56.002-.839.002-.076-.025-.082-.087-.081-.165.004-.331.005-.496 0-.064-.002-.075.025-.069.078.003.025.001.051.001.076v3.282c0 .032.003.064-.001.095-.007.055.022.062.067.061.152-.002.305-.001.458-.001.248 0 .496.006.744-.002.204-.006.399-.049.588-.145.185-.095.314-.236.434-.392.14-.183.198-.393.195-.626-.003-.154-.014-.301-.076-.446-.026-.061-.047-.12-.087-.175-.141-.197-.298-.374-.53-.465-.043-.017-.045-.04-.026-.068.137-.202.251-.417.373-.628.116-.201.236-.399.356-.597.012-.021.042-.043-.006-.044-.229-.003-.458-.002-.687 0-.015.001-.035.024-.045.041-.188.336-.381.67-.579.999-.15.25-.28.512-.453.748-.012.017-.029.029-.044.044-.011-.019-.03-.038-.031-.056-.002-.229-.001-.458-.001-.687v-.172zm-7.0647 1.3244v1.241c0 .105.001.107.096.105.195-.003.391-.008.586-.013.002-.19.005-.38.005-.57.001-.63-.002-1.26.002-1.89.001-.183.089-.327.261-.403.342-.152.688.066.69.435.006.751.002 1.502.002 2.252 0 .045.002.09 0 .134-.003.039.008.057.051.057.197-.002.394 0 .592-.003.015 0 .04-.025.042-.041.007-.037.002-.076.002-.114 0-.783.003-1.566-.001-2.348-.001-.276-.118-.51-.297-.717-.148-.17-.329-.281-.542-.351-.267-.088-.518-.053-.775.048-.268.105-.428.318-.599.527-.036.144-.117.274-.116.429.003.408.001.815.001 1.222"/>
    <path fill="#fff" d="M83.4359 28.4343c-.095 0-.191.004-.286-.001-.086-.005-.158.024-.213.085-.094.103-.226.141-.347.176-.108.031-.224.064-.345.047-.231-.033-.532-.096-.714-.305-.072-.084-.159-.161-.211-.257-.054-.096-.166-.311-.155-.566.016-.282.102-.532.312-.73.102-.097.189-.209.332-.258.268-.092.455-.127.727-.069.185.04.327.138.476.234.04.025.072.041.118.041.216-.002.432 0 .649-.001.066-.001.078-.018.041-.075-.115-.175-.219-.354-.397-.486-.146-.108-.285-.222-.455-.29-.115-.046-.232-.084-.356-.11-.136-.027-.27-.035-.406-.031-.311.009-.61.064-.864.263-.232.08-.354.29-.519.449-.124.119-.188.289-.254.446-.054.13-.077.25-.091.421-.015.171.001.49.037.66.038.169.087.268.152.395.043.083.101.15.156.222.146.193.313.363.529.481.151.082.306.158.471.197.117.027.236.069.36.054.397.005.666-.096.813-.156.125-.051.249-.124.349-.214.152-.139.312-.274.422-.453.021-.036.048-.069.066-.107.015-.03.013-.062-.034-.062h-.363m-12.5462-.8467h.004c0 .14.001.28-.001.42 0 .015-.011.039-.023.042-.014.005-.039-.003-.048-.015-.026-.032-.044-.071-.069-.104-.166-.218-.334-.434-.497-.654-.026-.034-.029-.085-.042-.129.037-.004.073-.009.11-.011.038-.002.076-.002.114-.001.151.005.301.01.452.015v.437zm.655-1.597c0-.053-.006-.08-.07-.078-.172.004-.343.002-.515.001-.046-.001-.068.007-.067.061.004.14 0 .28.002.42.001.04-.012.055-.053.055-.382-.002-.764-.001-1.146-.001-.032 0-.047-.005-.065-.043-.045-.091-.107-.173-.164-.257-.053-.079-.092-.187-.167-.226-.075-.039-.187-.009-.282-.009-.045 0-.089-.001-.134.001-.118.004-.237.011-.355.017.081.082.134.185.202.276.183.247 2.201 3.179 2.255 3.204.067.033.159.015.241.015.101 0 .303-.005.303-.005l.015-3.431zm26.6536 1.6369v1.699c0 .117-.004.101.102.101.56 0 1.12 0 1.68-.001.088 0 .089-.001.089-.093.001-.166.001-.331 0-.497 0-.095-.001-.096-.105-.097-.331 0-.662-.001-.993.001-.059.001-.091 0-.088-.079.007-.216.004-.432.001-.649-.001-.055.01-.077.071-.076.312.003.624.001.936.001.044 0 .089.004.133-.002.017-.002.033-.025.044-.041.006-.009.001-.025.001-.038-.001-.197-.002-.394-.003-.59-.195-.006-.39-.013-.586-.016-.171-.002-.343-.005-.515.002-.075.003-.082-.023-.081-.086.004-.191.004-.382 0-.573-.002-.064.025-.07.078-.07.343.002.687 0 1.031.002.053.001.079-.005.078-.069-.005-.185-.005-.369 0-.554.002-.069-.034-.066-.081-.065-.573 0-1.146.001-1.719-.001-.057 0-.075.013-.074.073.003.229.001.458.001.687v1.031zm-6.11.6574c0-.133.002-.266-.001-.399-.001-.05.015-.065.064-.064.139.003.279-.002.418.003.052.002.111.015.151.044.062.043.119.098.161.16.039.057.055.129.083.193.028.062-.03.101-.038.154-.026.182-.179.347-.351.361-.156.012-.315 0-.473-.002-.004-.137-.009-.275-.014-.412v-.038m-.726-.595v1.583c0 .154.001.154.163.154.337 0 .674-.001 1.011.001.244 0 .451-.088.649-.231.181-.131.285-.305.37-.496.071-.16.129-.335.095-.511-.036-.185-.065-.374-.182-.535-.138-.192-.295-.353-.519-.444-.152-.062-.303-.114-.468-.114-.127.001-.253-.003-.38-.005-.004-.132-.011-.263-.012-.395-.003-.235-.002-.471 0-.706 0-.051-.003-.08-.069-.079-.197.005-.394.005-.591 0-.066-.001-.068.03-.067.08.001.566 0 1.132 0 1.698m-23.8287-.0077v1.64c0 .104.001.105.097.105.566 0 1.131-.001 1.697.001.052 0 .08-.004.079-.069-.005-.171-.005-.343 0-.515.002-.066-.03-.067-.08-.067-.343.001-.686 0-1.03.002-.053 0-.079-.006-.077-.07.004-.197.001-.394.002-.591 0-.103.001-.104.097-.104.337 0 .674-.001 1.011.001.054 0 .078-.008.077-.071-.004-.19-.004-.381 0-.572.001-.063-.008-.087-.082-.086-.343.005-.686.001-1.029.004-.055 0-.076-.011-.076-.072.003-.407 0-.814.003-1.22 0-.064-.008-.09-.082-.086-.201.011-.402.012-.603.017-.002.19-.004.38-.004.571v1.182m10.8071-1.0991c0 .178-.005.356.002.534.003.078-.023.142-.056.207-.186.368-.37.737-.557 1.104-.159.31-.32.618-.482.926-.024.045-.024.072.032.072.216.002.433 0 .649.001.069.001.085-.04.112-.096.184-.382.376-.76.568-1.138.024-.048.059-.09.089-.135.034.046.076.088.1.138.184.395.359.794.571 1.176.015.026.009.056.053.056.222-.002.445 0 .667-.001.058-.001.054-.029.032-.073-.347-.689-.692-1.38-1.04-2.068-.038-.074-.054-.145-.054-.226.003-.357.001-.713.002-1.069 0-.051-.002-.08-.068-.079-.184.005-.369.005-.553 0-.066-.002-.068.029-.068.08.002.197.001.394.001.591m19.132.6858c0-.451-.001-.903.001-1.354 0-.051-.003-.081-.068-.079-.185.004-.369.005-.553 0-.066-.002-.069.028-.068.079.002.172.001.343.001.515v2.136c0 .135-.001.135-.143.136-.121 0-.241 0-.362-.001-.042 0-.071 0-.07.058.004.204.004.407 0 .611-.001.058.028.058.07.058.102-.002.203-.001.305-.001h1.354c.144 0 .144 0 .144-.153v-.553c-.182-.007-.363-.017-.545-.017-.067-.001-.067-.032-.067-.081.002-.451.001-.903.001-1.354m-21.0796.4034c0 .56.001 1.119-.001 1.679 0 .053.006.079.07.077.19-.004.381-.003.572 0 .062.001.09-.004.087-.08-.007-.184-.002-.369-.002-.553 0-.713-.001-1.425 0-2.137 0-.093.001-.095.087-.095.242-.001.483-.001.725 0 .044.001.069-.005.067-.06-.008-.195-.011-.39-.016-.585-.184-.002-.367-.004-.551-.004-.312-.001-.623-.001-.935 0-.102 0-.103.001-.103.098v1.66zm-.8401.0079v1.641c0 .105.001.107.096.106.195-.004.39-.009.586-.013.002-.19.005-.38.005-.57.001-.923 0-1.845 0-2.767 0-.038-.001-.076.001-.114.003-.045-.021-.05-.058-.05-.191.001-.382.003-.573-.001-.059-.001-.058.029-.057.07.001.121 0 .242 0 .363v1.335zm31.5626-.9882v1.953c0 .064-.021.121-.062.173-.042.053-.094.078-.157.078h-.549V26.44h.549c.063 0 .115.026.157.078.041.052.062.11.062.174m.702-.005c0-.249-.09-.457-.27-.625-.18-.168-.396-.252-.648-.252h-1.435v.63h.18v2.456h-.18v.631h1.435c.248 0 .463-.085.645-.255.182-.17.273-.38.273-.628v-1.957zm1.0634-.877h-.702v3.717h.702V25.81zm2.7075.841c0-.249-.09-.456-.27-.625-.18-.168-.396-.252-.648-.252h-.523c-.244 0-.455.082-.633.246-.178.164-.272.367-.28.607l.703.18v-.154c0-.063.02-.12.06-.172.04-.051.089-.076.149-.076h.519c.064 0 .116.025.158.077.042.052.063.109.063.172v.262c0 .152-.054.25-.163.298l-.96.404c-.352.148-.529.4-.529.756v.318c0 .245.09.452.271.621.18.171.394.256.642.256h.523c.244 0 .456-.083.636-.246.18-.164.274-.369.282-.613l-.702-.174v.156c0 .06-.022.116-.066.169-.044.051-.095.077-.155.077h-.519c-.06 0-.109-.026-.149-.077-.04-.053-.06-.109-.06-.169v-.144c0-.156.052-.256.156-.3l.973-.403c.348-.144.522-.396.522-.756v-.438zm2.6838-.8409h-.721v.315l-.651 1.239-.249-.301v-1.253h-.703v3.717h.703v-1.381l.9 1.086v.295h.721v-.507l-.887-1.07.887-1.672v-.468zm4.7671.8409c0-.249-.09-.456-.27-.625-.18-.168-.397-.252-.648-.252h-.523c-.244 0-.455.082-.633.246-.178.164-.272.367-.28.607l.703.18v-.154c0-.063.02-.12.06-.172.04-.051.089-.076.149-.076h.519c.064 0 .116.025.158.077.042.052.063.109.063.172v.262c0 .152-.054.25-.163.298l-.96.404c-.352.148-.529.4-.529.756v.318c0 .245.09.452.271.621.18.171.394.256.642.256h.523c.244 0 .456-.083.636-.246.18-.164.274-.369.282-.613l-.702-.174v.156c0 .06-.022.116-.066.169-.044.051-.096.077-.155.077h-.519c-.06 0-.109-.026-.149-.077-.04-.053-.06-.109-.06-.169v-.144c0-.156.052-.256.156-.3l.973-.403c.348-.144.522-.396.522-.756v-.438zm2.5285 2.3951l-.781-1.458v-1.778h-.69v1.765l-.781 1.471v.481h.715v-.33l.408-.859.414.859v.33h.715v-.481zm2.629-2.3951c0-.249-.09-.456-.27-.625-.18-.168-.396-.252-.648-.252h-.523c-.244 0-.455.082-.633.246-.178.164-.272.367-.28.607l.703.18v-.154c0-.063.02-.12.06-.172.04-.051.089-.076.149-.076h.519c.064 0 .116.025.158.077.042.052.063.109.063.172v.262c0 .152-.054.25-.163.298l-.96.404c-.352.148-.529.4-.529.756v.318c0 .245.09.452.271.621.18.171.394.256.642.256h.523c.244 0 .456-.083.636-.246.18-.164.274-.369.282-.613l-.702-.174v.156c0 .06-.022.116-.066.169-.044.051-.095.077-.155.077h-.519c-.06 0-.109-.026-.149-.077-.04-.053-.06-.109-.06-.169v-.144c0-.156.052-.256.156-.3l.973-.403c.348-.144.522-.396.522-.756v-.438zm2.6005 2.2452h-.817v-3.086h-.702v3.086h-.805v.631h2.324v-.631zm2.629-3.0861h-2.359v3.717h2.251v-.631h-1.549v-.919h1.129v-.63h-1.129v-.907h1.657v-.63zm2.7141 0h-.702v1.693l-.235-.786h-.48l-.234.786v-1.693h-.703v3.717h.7l.476-1.669.476 1.669h.702v-3.717zM62.829 25.331H31.997v4.394h30.832v-4.394z"/>
    <path fill="#1d1d1b" d="M33.7885 26.1091v2.836h.61v-1.165h2.394v1.165h.61v-2.836h-.61v1.337h-2.394v-1.337h-.61zm5.946 0l-1.785 2.836h.66l1.197-2.06c.097-.165.177-.32.242-.465.071.155.154.31.249.465l1.244 2.06h.622l-1.804-2.836h-.625zm6.2634.9942l.61-.095c-.128-.308-.358-.543-.69-.705-.332-.162-.738-.243-1.218-.243-.497 0-.9.063-1.211.187-.312.125-.548.305-.711.541-.162.236-.243.489-.243.76 0 .295.091.553.275.773.183.219.444.386.782.501.339.114.711.171 1.118.171.46 0 .848-.072 1.162-.217.315-.144.534-.347.657-.609l-.6-.087c-.107.206-.262.356-.465.45-.204.095-.459.142-.767.142-.354 0-.65-.053-.888-.157-.238-.104-.405-.245-.501-.421-.096-.176-.145-.357-.145-.544 0-.241.057-.452.172-.632.114-.18.291-.314.532-.403.241-.089.502-.133.783-.133.341 0 .63.06.867.181.237.122.397.301.481.54m1.0681.2067h1.738v-.35h-1.738v.35zm2.8791.1744c0-.342.149-.611.448-.808.298-.196.673-.295 1.123-.295.459 0 .837.1 1.133.298.297.199.445.481.445.846 0 .23-.063.432-.19.604s-.312.306-.556.4c-.244.095-.518.143-.822.143-.432 0-.803-.092-1.114-.274-.311-.183-.467-.487-.467-.914m-.628.006c0 .47.205.839.616 1.105.41.266.94.4 1.59.4.425 0 .808-.063 1.15-.188.341-.125.602-.3.781-.523.179-.224.269-.478.269-.761 0-.288-.095-.545-.283-.772-.189-.227-.456-.399-.802-.516-.345-.116-.718-.175-1.118-.175-.434 0-.822.065-1.163.194-.342.129-.6.305-.776.528-.176.223-.264.459-.264.708m7.9348-1.0466v-.335h-3.045c-.004.084.018.165.066.242.077.128.201.253.372.377.171.124.418.267.74.43.501.252.839.453 1.015.6.176.148.264.288.264.419 0 .138-.08.254-.24.349-.16.095-.369.142-.627.142-.272 0-.49-.05-.654-.15-.163-.101-.246-.24-.248-.418l-.581.036c.039.267.189.471.449.611s.609.21 1.046.21c.443 0 .792-.076 1.05-.227.258-.151.387-.338.387-.561 0-.113-.038-.225-.113-.334-.076-.11-.201-.225-.376-.347-.175-.121-.466-.287-.872-.499-.339-.175-.557-.294-.654-.356-.096-.063-.176-.126-.239-.189h2.26zm3.5795 0v-.335h-3.045c-.004.084.018.165.066.242.077.128.201.253.372.377.171.124.418.267.74.43.501.252.839.453 1.015.6.176.148.264.288.264.419 0 .138-.08.254-.24.349-.16.095-.369.142-.627.142-.272 0-.49-.05-.654-.15-.163-.101-.246-.24-.248-.418l-.581.036c.039.267.189.471.449.611s.609.21 1.046.21c.443 0 .793-.076 1.05-.227.258-.151.387-.338.387-.561 0-.113-.038-.225-.113-.334-.076-.11-.201-.225-.376-.347-.175-.121-.466-.287-.872-.499-.339-.175-.557-.294-.654-.356-.096-.063-.176-.126-.239-.189h2.26z"/>
    <path fill="#3c3c3b" d="M337.1615.3432h-101.498v1.901l-2.007-.038v51.963h1.542v1.643h-1.542v2.307h1.449v1.643h-1.449v2.205h1.449v1.643h-1.449v1.843h1.449v1.643h-1.449v2.041h1.542v1.643h-1.542v29.353h105.608v-29.352l-1.996-.001v-1.643h1.996v-2.041h-1.985v-1.643h1.985v-1.843h-1.985v-1.643h1.985v-2.205h-1.985v-1.643h1.985v-2.307h-1.996v-1.643h1.996V2.3952l-2.136.002.033-2.054z"/>
    <path d="M337.268 69.137h-102.07v1.643h102.07v-1.643zm0-14.968h-102.07v1.643h102.07v-1.643zm-43.442 11.284h-58.72v1.643h58.72v-1.643zm0-3.486h-58.72v1.643h58.72v-1.643zm0-3.848h-58.72v1.643h58.72v-1.643zm0 11.018h.773V55.812h-.773v13.325zm35.734 0h.773V55.812h-.773v13.325zm7.72-3.684h-6.946v1.643h6.946v-1.643zm0-3.486h-6.946v1.643h6.946v-1.643zm0-3.848h-6.946v1.643h6.946v-1.643z"/>
    <path fill="#333" d="M328.9889 102.7938h-47.431l-.779-2.661h49.555l-1.345 2.661z"/>
    <path fill="#fff" d="M301.9621 60.1759h-.175c-.337 0-.675.002-1.013-.002-.069-.001-.107.022-.143.084-.564.97-1.13 1.938-1.696 2.906-.018.032-.038.063-.077.088v-3.07h-1.283v4.447h.088c.374 0 .748-.001 1.122.002.062.001.095-.022.127-.077.563-.974 1.129-1.946 1.695-2.918.018-.03.037-.06.073-.083v3.068h1.282v-4.445zm18.3656 1.501h-.001c0-.202-.005-.403.001-.605.009-.3.205-.504.483-.513.27-.008.487.186.499.482.015.406.006.812.007 1.219 0 .041-.007.083-.016.123-.063.272-.264.417-.542.391-.242-.023-.418-.214-.429-.483-.009-.204-.002-.409-.002-.614m2.218 2.947v-4.441h-1.231c-.004.051-.007.098-.009.146-.815-.415-1.53-.32-2.073.488-.36.534-.314 1.271.072 1.804.237.327.542.542.929.613.383.07.733-.033 1.076-.252v1.642h1.236zm-14.2233-4.4429h-1.235v1.866c0 .305-.168.538-.434.605-.281.071-.59-.07-.703-.335-.035-.081-.047-.179-.048-.269-.003-.583 0-1.166.001-1.749v-.118h-1.237v2.944h1.237v-.298c.042.035.068.055.092.077.578.517 1.461.475 1.981-.095.237-.259.344-.579.35-.931.01-.554.003-1.109.003-1.663 0-.009-.003-.018-.007-.034m7.8308-.0006h-1.237v2.945h1.236v-.305c.045.039.071.061.097.084.611.543 1.559.463 2.047-.174.163-.212.266-.458.273-.728.015-.592.01-1.185.012-1.777 0-.012-.005-.025-.009-.043h-1.226c-.003.04-.008.08-.008.12v1.729c0 .306-.134.516-.383.605-.252.089-.537-.002-.698-.223-.075-.103-.106-.22-.106-.35.002-.582.002-1.165.002-1.748v-.135zm9.1556 1.4952h.009c0 .208.001.416 0 .624 0 .045-.004.09-.009.134-.027.231-.117.418-.332.508-.312.13-.659-.086-.68-.462-.029-.51-.013-1.023-.016-1.534 0-.026.006-.051.01-.076.042-.283.236-.481.479-.489.294-.01.518.205.536.537.014.252.003.505.003.758m-.477 1.659c.479-.008.935-.162 1.317-.525.65-.619.664-1.598.032-2.239-.732-.743-2.022-.74-2.752.004-.669.683-.601 1.733.153 2.338.361.29.775.417 1.25.422m-11.6202-1.2269c-.01.137-.009.271-.03.402-.044.264-.256.449-.501.452-.249.003-.465-.181-.512-.449-.018-.106-.014-.216-.024-.324-.007-.073.02-.093.086-.092.298.003.596.001.894.001.023 0 .047.005.087.01m1.303-.461h-2.366c0-.246-.002-.482.001-.717 0-.054.011-.109.025-.161.072-.265.287-.425.545-.406.237.018.428.213.465.485.016.113.017.229.026.351h1.231c-.014-.04-.024-.079-.041-.116-.243-.55-.665-.872-1.206-1.01-.726-.185-1.394-.047-1.944.516-.614.629-.583 1.6.057 2.201.435.408.95.566 1.523.519.54-.043 1-.268 1.354-.712.192-.241.302-.522.332-.837.001-.019.002-.038.002-.057 0-.013-.002-.025-.004-.056m-5.4841-1.4636v2.95h-.686c0 .137-.002.264.004.391.001.016.046.042.071.043.166.004.332.003.498.003h.109v.593h1.257v-.589h.676v-.436h-.671v-2.955h-1.258zm-5.0805.0009h-1.242v2.943h1.242v-2.943zm-1.2466 4.4391c.013.002.024.006.036.006h1.207v-.894h-1.243v.888zm-15.5069-12.7023c0 .279 0 .559-.001.838 0 .026.003.039.033.039.099-.002.197-.002.296-.001.022 0 .033-.029.033-.029l.486-1.1s.427 1.011.462 1.091c.011.026.024.039.052.038.099-.001.197-.001.296 0 .024.001.03-.009.029-.032-.001-.051 0-.102 0-.153v-1.485c0-.019-.001-.038 0-.057.001-.021-.007-.027-.026-.027-.086.001-.173.003-.26 0-.034-.002-.038.011-.038.043.001.228.001.457.001.685v.076c-.001.005-.006.011-.009.016-.003-.005-.007-.009-.009-.014-.048-.109-.263-.611-.323-.753-.014-.034-.03-.058-.074-.054-.051.004-.137.003-.189.001-.052.001-.067.05-.067.05l-.367.826s-.002-.599-.002-.837c0-.026-.002-.04-.032-.039-.081.002-.162.001-.242.001-.048 0-.049 0-.049.049v.828zm7.4245.0037v.819c0 .053.001.053.054.053.089 0 .179-.001.269.001.027 0 .044-.011.054-.036.03-.076.412-1.018.412-1.018.005-.017.012-.039.024-.046.018-.011.002-.054.034-.042.014.005.026.03.031.048.027.103.409.982.409.982.018.034.009.087.044.102.036.015.081.009.122.009.077-.001.153-.004.23-.007.001-.079.003-.157.003-.237v-1.418c0-.022-.001-.045 0-.067.001-.022-.01-.024-.027-.024-.09 0-.18.001-.269-.001-.028 0-.027.015-.027.036v.752c-.001.01-.007.021-.01.032-.004-.011-.008-.022-.013-.033-.023-.056-.27-.643-.333-.758-.011-.019-.014-.028-.034-.028-.087.001-.173.001-.26-.001-.026 0-.04.014-.049.032-.043.099-.293.703-.312.748-.006.013-.013.026-.019.039-.004-.013-.01-.027-.01-.041v-.638c0-.044-.002-.088-.003-.132-.043-.002-.087-.005-.131-.007-.039-.001-.078 0-.117 0-.072 0-.072 0-.072.081v.8m-.9229-.5792c.044.003.091-.003.131.012.11.043.214.093.288.203.067.101.098.206.11.324.004.047-.012.09-.018.135-.008.06-.028.113-.059.165-.033.057-.079.099-.122.146-.075.08-.17.113-.274.123-.038.003-.077 0-.116 0-.058.001-.112-.016-.161-.045-.076-.045-.148-.091-.203-.171-.064-.094-.096-.196-.104-.306-.01-.137.03-.26.105-.372.043-.063.147-.144.213-.174.069-.032.137-.042.21-.04m-.019-.337c-.128-.024-.247.03-.364.083-.059.026-.114.068-.161.113-.063.061-.123.128-.17.201-.044.067-.076.144-.101.221-.041.124-.047.255-.035.383.006.073.027.146.053.214s.062.132.1.194c.09.147.217.25.368.313.091.038.185.071.288.068.082-.002.164-.003.243-.023.066-.016.134-.041.192-.079.035-.023.075-.041.107-.07.031-.028.051-.07.094-.081.008-.04.041-.059.063-.087.02-.026.042-.05.056-.08.04-.083.081-.166.105-.258.017-.066.012-.131.027-.196.015-.064-.003-.14-.018-.208-.025-.118-.074-.227-.137-.33-.104-.168-.264-.281-.433-.342-.088-.032-.178-.049-.277-.036m7.1829 1.2024v-.2c0-.021 0-.035.027-.034.111.002.221-.004.331.002.057.003.112.034.143.087.054.091.054.189 0 .281-.031.053-.086.083-.143.086-.11.006-.22.001-.331.003-.027 0-.027-.014-.027-.035v-.19m0-.747c0-.139-.002-.279.001-.419.001-.037-.012-.041-.041-.04-.077.002-.155.002-.233 0-.03-.001-.035.012-.032.039.001.012 0 .025 0 .038v1.637c0 .016.002.032 0 .048-.004.028.01.031.031.03.072-.001.143 0 .215 0 .117 0 .233.003.349-.001.097-.003.188-.025.277-.073.087-.047.147-.117.204-.195.065-.091.093-.196.091-.312-.001-.077-.006-.151-.035-.223-.013-.03-.023-.06-.041-.087-.067-.098-.14-.187-.249-.233-.02-.008-.021-.019-.012-.033.064-.101.117-.208.175-.314.054-.1.11-.199.167-.297.006-.011.02-.022-.003-.023-.108-.001-.215-.001-.323.001-.007 0-.016.011-.021.02-.088.168-.179.334-.272.498-.07.125-.131.256-.212.374-.006.008-.014.014-.021.021-.005-.009-.014-.018-.014-.027-.001-.115-.001-.229-.001-.343v-.086zm-3.3178.6609v.619c0 .052.001.054.045.053.092-.002.184-.005.275-.007.001-.095.003-.19.003-.285 0-.314-.001-.628.001-.942 0-.092.041-.163.122-.201.161-.076.323.032.324.217.003.374.001.749.001 1.123 0 .023.001.045 0 .067-.001.02.004.029.024.028.093 0 .185.001.278-.001.007 0 .019-.012.02-.02.003-.019.001-.038.001-.057 0-.391.001-.781-.001-1.172 0-.138-.055-.254-.139-.358-.07-.085-.155-.14-.255-.175-.125-.044-.243-.026-.364.024-.125.052-.201.159-.281.263-.017.072-.055.137-.054.214.001.204 0 .407 0 .61"/>
    <path fill="#fff" d="M292.6739 52.3012c-.045 0-.09.002-.134-.001-.041-.002-.075.013-.1.043-.045.052-.106.071-.163.088-.051.015-.105.032-.162.023-.109-.016-.25-.048-.335-.152-.035-.042-.075-.08-.1-.128-.025-.048-.078-.156-.072-.283.007-.14.047-.265.146-.364.048-.048.089-.104.156-.129.126-.046.214-.063.341-.034.087.02.154.069.224.117.019.012.034.02.055.02.102-.001.203 0 .305 0 .031-.001.037-.009.019-.038-.054-.087-.102-.176-.186-.242-.069-.054-.134-.111-.214-.145-.054-.023-.109-.042-.167-.055-.064-.014-.127-.017-.19-.015-.147.004-.287.032-.406.131-.109.04-.167.145-.244.224-.058.059-.088.144-.119.223-.026.064-.037.124-.043.21-.007.085 0 .244.018.329.017.084.04.133.071.197.02.041.047.075.073.111.069.096.147.181.248.24.071.04.144.079.222.098.055.014.11.034.169.027.186.003.312-.048.382-.078.058-.025.117-.062.163-.107.072-.069.147-.136.198-.226.01-.018.023-.034.032-.053.007-.015.006-.031-.017-.031h-.17m-5.8919-.4225h.002c0 .07 0 .14-.001.21 0 .007-.005.019-.01.021-.007.002-.019-.002-.023-.008-.012-.016-.021-.035-.033-.052-.077-.109-.156-.216-.233-.326-.012-.017-.013-.043-.02-.064.018-.002.035-.005.052-.006.018-.001.036-.001.054 0 .07.002.141.005.212.007v.218zm.307-.797c0-.026-.002-.04-.032-.039-.081.002-.162.002-.242.001-.022-.001-.032.003-.032.03.002.07 0 .14.001.21.001.02-.005.027-.025.027-.179-.001-.358 0-.538 0-.015 0-.022-.003-.031-.022-.02-.045-.049-.086-.076-.128-.025-.039-.044-.093-.079-.113-.035-.019-.088-.004-.132-.004-.021 0-.042-.001-.063 0-.056.003-.111.006-.167.009.038.041.063.092.095.138.086.123 1.034 1.586 1.059 1.598.031.017.075.008.113.008.048 0 .143-.003.143-.003l.006-1.712zm12.5176.8169v.848c0 .058-.002.05.048.05h.789c.041 0 .042-.001.042-.047v-.247c0-.048-.001-.049-.05-.049-.155 0-.31-.001-.466 0-.027.001-.043.001-.041-.039.003-.108.002-.216 0-.324 0-.027.005-.038.034-.038.146.002.293.001.439.001.021 0 .042.002.063-.001.007-.001.015-.013.02-.021.003-.004.001-.012.001-.019-.001-.098-.001-.196-.002-.294-.091-.003-.183-.006-.275-.008-.08-.001-.161-.003-.242.001-.035.002-.038-.012-.038-.043.002-.095.002-.191 0-.286-.001-.032.012-.035.037-.035.161.001.322 0 .484.001.025.001.037-.002.036-.034-.002-.092-.002-.185.001-.277 0-.034-.016-.032-.039-.032-.269 0-.538 0-.807-.001-.026 0-.035.007-.035.037.002.114.001.228.001.343v.514zm-2.8694.3281c0-.066.001-.133-.001-.199 0-.025.008-.032.031-.032.065.002.13-.001.196.002.024.001.052.007.071.021.029.022.056.05.075.08.019.028.026.064.04.097.013.03-.015.05-.018.077-.012.09-.084.173-.165.179-.074.007-.148 0-.222 0-.003-.069-.005-.138-.007-.206v-.019m-.341-.297v.79c0 .077 0 .077.076.077h.475c.115 0 .212-.043.305-.115.085-.065.134-.152.174-.247.033-.08.06-.167.044-.256-.016-.092-.03-.186-.085-.266-.065-.096-.138-.176-.244-.222-.071-.031-.142-.057-.22-.057-.059.001-.118-.001-.178-.002-.002-.066-.005-.132-.006-.197-.001-.118-.001-.235 0-.353.001-.025-.001-.04-.032-.039-.092.002-.185.002-.277 0-.032-.001-.032.015-.032.04v.847m-11.1903-.0038v.818c0 .052.001.053.046.053.265 0 .531-.001.796 0 .025 0 .038-.002.037-.034-.002-.086-.002-.171 0-.257.001-.033-.013-.034-.037-.034-.161.001-.322 0-.484.001-.024.001-.037-.003-.036-.035.002-.098.001-.196.001-.294 0-.052 0-.052.046-.052.158 0 .316-.001.474 0 .026 0 .037-.004.036-.035-.001-.095-.001-.19 0-.285.001-.032-.003-.044-.038-.044-.161.003-.322.001-.483.002-.026 0-.036-.005-.036-.036.001-.202 0-.405.001-.608.001-.032-.003-.045-.038-.043-.094.005-.189.006-.283.008-.001.095-.002.19-.002.285v.59m5.0752-.5484c0 .089-.002.178.001.266.002.04-.011.071-.026.104-.088.183-.174.367-.262.551-.074.154-.15.308-.226.462-.011.022-.011.036.015.036.101.001.203 0 .304 0 .033.001.04-.02.053-.048.087-.19.177-.379.267-.568.011-.024.028-.045.042-.067.016.023.035.044.047.069.086.197.168.396.268.586.007.014.004.029.025.028h.313c.027 0 .025-.015.015-.036-.163-.344-.325-.689-.489-1.032-.017-.037-.025-.073-.025-.113.001-.178 0-.356.001-.533 0-.026-.001-.041-.032-.04-.086.003-.173.003-.26 0-.031-.001-.032.015-.031.04.001.098 0 .197 0 .295m8.9848.3422v-.676c0-.025-.001-.04-.032-.039-.086.002-.173.002-.259 0-.031-.001-.033.014-.032.04.001.085 0 .171 0 .256v1.066c0 .068 0 .068-.067.068h-.17c-.02-.001-.033 0-.032.029.001.101.001.203 0 .304-.001.029.013.029.032.029h.779c.068 0 .068 0 .068-.077v-.275c-.085-.004-.171-.009-.256-.009-.032 0-.031-.016-.031-.04v-.676m-9.8994.2013v.838c-.001.026.002.039.032.038.09-.002.179-.002.269 0 .029.001.042-.002.041-.04-.004-.092-.001-.184-.001-.276v-1.066c0-.047 0-.047.041-.047.113-.001.227-.001.34 0 .021 0 .033-.003.032-.03-.004-.098-.005-.195-.008-.292-.086-.001-.172-.002-.259-.002-.146-.001-.292-.001-.439 0-.047 0-.048 0-.048.049v.828zm-.3946.0039v.819c0 .052.001.053.045.053.092-.002.184-.005.275-.007.001-.095.003-.19.003-.284v-1.381c0-.019-.001-.038 0-.057.001-.022-.01-.025-.027-.025-.09.001-.179.002-.269 0-.028-.001-.027.014-.027.035v.847zm14.8225-.493v.975c0 .031-.01.06-.029.086-.02.026-.044.039-.074.039h-.258v-1.226h.258c.03 0 .054.013.074.039.019.026.029.055.029.087m.33-.003c0-.123-.042-.227-.127-.311-.085-.084-.186-.126-.305-.126h-.674v.314h.085v1.226h-.085v.315h.674c.117 0 .218-.043.304-.128.085-.085.128-.189.128-.313v-.977zm.4986-.4369h-.33v1.855h.33v-1.855zm1.2719.4194c0-.124-.042-.228-.127-.312-.084-.083-.186-.126-.304-.126h-.246c-.114 0-.214.041-.297.123-.084.082-.128.183-.131.303l.33.09v-.077c0-.032.009-.06.028-.086.019-.025.042-.038.07-.038h.244c.029 0 .054.013.074.039.019.026.029.054.029.086v.13c0 .076-.025.125-.076.149l-.451.202c-.165.073-.248.199-.248.377v.158c0 .123.042.226.127.31.084.085.185.128.301.128h.246c.114 0 .214-.041.298-.123.085-.082.129-.184.133-.306l-.33-.086v.077c0 .03-.01.058-.031.085-.02.025-.044.038-.072.038h-.244c-.028 0-.051-.013-.07-.038-.019-.027-.028-.055-.028-.085v-.071c0-.079.024-.128.073-.15l.457-.201c.163-.072.245-.198.245-.377v-.219zm1.2604-.4196h-.339v.157l-.305.619-.117-.151v-.625h-.33v1.855h.33v-.69l.422.543v.147h.339v-.253l-.416-.534.416-.834v-.234zm2.2387.4196c0-.124-.042-.228-.127-.312-.084-.083-.186-.126-.304-.126h-.246c-.114 0-.214.041-.297.123-.084.082-.128.183-.131.303l.33.09v-.077c0-.032.009-.06.028-.086.018-.025.042-.038.07-.038h.244c.029 0 .054.013.074.039.019.026.029.054.029.086v.13c0 .076-.025.125-.076.149l-.451.202c-.166.073-.248.199-.248.377v.158c0 .123.042.226.127.31.084.085.185.128.301.128h.246c.114 0 .214-.041.298-.123.085-.082.129-.184.133-.306l-.33-.086v.077c0 .03-.01.058-.031.085-.02.025-.045.038-.072.038h-.244c-.028 0-.052-.013-.07-.038-.019-.027-.028-.055-.028-.085v-.071c0-.079.024-.128.073-.15l.457-.201c.163-.072.245-.198.245-.377v-.219zm1.1874 1.1951l-.367-.728v-.887h-.324v.881l-.366.734v.24h.335v-.165l.192-.428.194.428v.165h.336v-.24zm1.2347-1.1951c0-.124-.042-.228-.127-.312-.084-.083-.186-.126-.304-.126h-.246c-.115 0-.214.041-.297.123-.084.082-.128.183-.131.303l.33.09v-.077c0-.032.009-.06.028-.086.018-.025.042-.038.07-.038h.243c.03 0 .055.013.075.039.019.026.029.054.029.086v.13c0 .076-.025.125-.076.149l-.451.202c-.166.073-.248.199-.248.377v.158c0 .123.042.226.127.31.084.085.185.128.301.128h.246c.114 0 .214-.041.298-.123.085-.082.129-.184.133-.306l-.33-.086v.077c0 .03-.01.058-.031.085-.02.025-.045.038-.073.038h-.243c-.028 0-.052-.013-.07-.038-.019-.027-.028-.055-.028-.085v-.071c0-.079.024-.128.073-.15l.457-.201c.163-.072.245-.198.245-.377v-.219zm1.2212 1.1203h-.384v-1.54h-.33v1.54h-.377v.315h1.091v-.315zm1.2347-1.5399h-1.108v1.855h1.057v-.315h-.727v-.459h.53v-.314h-.53v-.453h.778v-.314zm1.2746 0h-.33v.845l-.11-.393h-.225l-.11.393v-.845h-.33v1.855h.328l.224-.833.223.833h.33v-1.855zm14.3624-.0428h-12.826v1.942h12.826v-1.942z"/>
    <path fill="#1d1d1b" d="M317.8288 51.2934v1.253h.254v-.514h.996v.514h.253v-1.253h-.253v.591h-.996v-.591h-.254zm2.4735 0l-.743 1.253h.275l.498-.91c.04-.073.074-.141.101-.205.029.068.064.136.103.205l.518.91h.259l-.751-1.253h-.26zm2.6055.4394l.254-.042c-.053-.136-.149-.24-.287-.312-.139-.071-.307-.107-.507-.107-.206 0-.374.028-.504.083-.129.055-.228.134-.295.239-.068.104-.102.216-.102.336 0 .13.039.244.115.341.076.097.185.171.325.222.141.05.296.075.465.075.192 0 .353-.032.484-.095.13-.064.221-.154.273-.27l-.25-.038c-.044.091-.109.157-.193.199-.085.042-.191.062-.319.062-.148 0-.271-.023-.369-.069-.099-.046-.169-.108-.209-.186-.04-.078-.06-.158-.06-.241 0-.106.024-.199.071-.279.048-.079.121-.139.222-.178.1-.039.208-.059.325-.059.142 0 .263.027.361.08.098.054.165.134.2.239m.4442.0912h.723v-.155h-.723v.155zm1.1979.0772c0-.151.062-.27.186-.357.125-.087.28-.13.468-.13.191 0 .348.044.471.131.123.088.185.213.185.374 0 .102-.026.191-.079.267-.053.076-.13.135-.232.177-.101.042-.215.063-.341.063-.18 0-.335-.04-.464-.121-.129-.081-.194-.215-.194-.404m-.262.003c0 .208.086.371.257.488.171.118.391.177.661.177.177 0 .337-.028.479-.083.142-.056.25-.133.325-.231.074-.099.111-.211.111-.337 0-.127-.039-.241-.117-.341-.079-.1-.19-.176-.334-.228-.143-.051-.299-.077-.465-.077-.181 0-.342.028-.484.085-.142.057-.249.135-.323.234-.073.098-.11.203-.11.313m3.3015-.4629v-.148h-1.267c-.001.037.008.073.028.107.032.056.084.112.155.167.071.054.173.118.308.189.208.112.349.201.422.266.073.065.11.127.11.185 0 .061-.034.112-.1.154-.067.042-.154.063-.261.063-.114 0-.204-.022-.272-.066-.068-.045-.103-.106-.103-.185l-.242.016c.016.118.079.208.187.27.108.062.253.093.435.093.184 0 .329-.034.437-.101.107-.066.16-.149.16-.247 0-.051-.015-.1-.047-.148-.031-.049-.083-.1-.156-.153-.073-.054-.194-.127-.363-.221-.141-.077-.231-.13-.272-.158-.04-.027-.073-.055-.099-.083h.94z"/>
    <path d="M327.8916 51.5837s.203-.137.503-.137c.232 0 .423.094.423.229 0 .155-.227.231-.482.231h-.144l-.068.094.453.321c.067.048.129.082.129.082v.003s-.062-.005-.177-.005h-.702v.152h1.241v-.111l-.565-.392c.273-.018.608-.125.608-.368 0-.214-.279-.402-.705-.402-.423 0-.673.17-.673.17l.159.133z"/>
    <path fill="#666" d="M1.3191 86.1837h23.297c1.803 0 3.279-1.458 3.279-3.239v-30.148c0-1.782-1.476-3.24-3.279-3.24H1.3191m22.8968-12.6522H.9499c-.353 0-.642.289-.642.642 0 .353.289.642.642.642h23.266c.353 0 .642-.289.642-.642 0-.353-.289-.642-.642-.642"/>
    <path fill="#3c3c3b" d="M1.3191 85.0393h21.983c1.702 0 3.095-.851 3.095-2.522v-28.779c0-1.67-.792-3.037-2.494-3.037H1.3191"/>
    <path fill="#666" d="M24.3389 32.1883H1.0729c-.353 0-.642.289-.642.642 0 .353.289.642.642.642h23.266c.353 0 .642-.289.642-.642 0-.353-.289-.642-.642-.642m-.123-4.6753H.9499c-.353 0-.642.289-.642.642 0 .353.289.642.642.642h23.266c.353 0 .642-.289.642-.642 0-.353-.289-.642-.642-.642m187.0284 9.3802h-57.068c-.356 0-.648.291-.648.647 0 .357.292.648.648.648h57.068c.356 0 .647-.291.647-.648 0-.356-.291-.647-.647-.647m-.0067-4.7105h-57.068c-.356 0-.648.291-.648.647 0 .357.292.648.648.648h57.068c.356 0 .647-.291.647-.648 0-.356-.291-.647-.647-.647m0-4.6753h-57.068c-.356 0-.648.291-.648.647 0 .357.292.648.648.648h57.068c.356 0 .647-.291.647-.648 0-.356-.291-.647-.647-.647"/>
  </g>
</svg>
