<svg xmlns="http://www.w3.org/2000/svg" viewBox="-2 201.9 928.0946 391.18328">
  <defs>
    <clipPath id="a">
      <path d="M0 143.379h228.894V0H0v143.379z"/>
    </clipPath>
  </defs>
  <path fill="#282828" d="M575.9333 348.7832939h-550.3v-31.1h550.3v31.1z"/>
  <path fill="#212324" d="M297.5867 205.5832939h263.3l8.6 72.1h-543.8l8.6-72.1h263.3"/>
  <path fill="none" d="M-1.9667 201.9832839h605.5v391.10001h-605.5z"/>
  <path fill="#212324" d="M569.5 593.0832939H32.2c-8.3 0-15-6.8-15-15v-204.2c0-8.3 6.8-15 15-15h537.3c8.3 0 15 6.7 15 15v204.2c0 8.3-6.8 15-15 15"/>
  <path fill="#231f20" d="M323.0758 397.0165939h-72.6c-1.2 0-2.2-1-2.2-2.2v-11.9c0-1.2 1-2.2 2.2-2.2h72.6c1.2 0 2.2 1 2.2 2.2v11.9c0 1.2-1 2.2-2.2 2.2m119.6058 0h-111.1c-1.2 0-2.2-1-2.2-2.2v-11.9c0-1.2 1-2.2 2.2-2.2h111.1c1.2 0 2.2 1 2.2 2.2v11.9c0 1.2-1 2.2-2.2 2.2m-200.1173 0h-186.2c-1.2 0-2.2-1-2.2-2.2v-11.9c0-1.2 1-2.2 2.2-2.2h186.2c1.2 0 2.2 1 2.2 2.2v11.9c0 1.2-1 2.2-2.2 2.2m212.8295 14.4734c0-1.1-.9-2-1.9-2h-403.6c-1.1 0-2 .9-1.9 2v26.8h-4.7c-1.1 0-1.9.9-1.9 2v26.8h-.8c-1.1 0-2 .9-1.9 2v49.2c0 1.1.9 2 1.9 2h59.1v27.9c0 1.1.9 2 2 2h351.7c1.1 0 1.9-.9 1.9-2v-136.7zm107.6505 69.9412h-102.4c-1.6 0-2.9-1.3-2.9-2.9v-102.5c0-1.6 1.3-2.9 2.9-2.9h102.4c1.6 0 2.9 1.3 2.9 2.9v102.4c0 1.6-1.3 3-2.9 3"/>
  <path fill="#5d5d5d" d="M448.4273 408.1165939h-402.9c-2.6 0-4.7-2.1-4.7-4.7v-29.2c0-2.6 2.1-4.7 4.7-4.7h402.9c2.6 0 4.7 2.1 4.7 4.7v29.2c-.1 2.7-2.2 4.7-4.7 4.7zm-402.9-37.5c-2 0-3.7 1.6-3.7 3.7v29.2c0 2 1.6 3.7 3.7 3.7h402.9c2 0 3.7-1.6 3.7-3.7v-29.2c0-2-1.6-3.7-3.7-3.7h-402.9zm43.4461 69.3674h19.4c1.1 0 1.9.9 1.9 1.9v19.4c0 1.1-.9 1.9-1.9 1.9h-19.4c-1.1 0-1.9-.9-1.9-1.9v-19.4c0-1.1.8-1.9 1.9-1.9m26.9 0h19.4c1.1 0 1.9.9 1.9 1.9v19.4c0 1.1-.9 1.9-1.9 1.9h-19.4c-1.1 0-1.9-.9-1.9-1.9v-19.4c-.1-1.1.8-1.9 1.9-1.9m26.8 0h19.4c1.1 0 1.9.9 1.9 1.9v19.4c0 1.1-.9 1.9-1.9 1.9h-19.4c-1.1 0-1.9-.9-1.9-1.9v-19.4c0-1.1.9-1.9 1.9-1.9m26.9 0h19.4c1.1 0 1.9.9 1.9 1.9v19.4c0 1.1-.9 1.9-1.9 1.9h-19.4c-1.1 0-1.9-.9-1.9-1.9v-19.4c0-1.1.8-1.9 1.9-1.9m26.9 0h19.4c1.1 0 1.9.9 1.9 1.9v19.4c0 1.1-.9 1.9-1.9 1.9h-19.4c-1.1 0-1.9-.9-1.9-1.9v-19.4c0-1.1.8-1.9 1.9-1.9m26.9 0h19.4c1.1 0 1.9.9 1.9 1.9v19.4c0 1.1-.9 1.9-1.9 1.9h-19.4c-1.1 0-1.9-.9-1.9-1.9v-19.4c-.1-1.1.8-1.9 1.9-1.9m26.8 0h19.4c1.1 0 1.9.9 1.9 1.9v19.4c0 1.1-.9 1.9-1.9 1.9h-19.4c-1.1 0-1.9-.9-1.9-1.9v-19.4c0-1.1.9-1.9 1.9-1.9m26.9 0h19.4c1.1 0 1.9.9 1.9 1.9v19.4c0 1.1-.9 1.9-1.9 1.9h-19.4c-1.1 0-1.9-.9-1.9-1.9v-19.4c0-1.1.8-1.9 1.9-1.9m26.9 0h19.4c1.1 0 1.9.9 1.9 1.9v19.4c0 1.1-.9 1.9-1.9 1.9h-19.4c-1.1 0-1.9-.9-1.9-1.9v-19.4c0-1.1.8-1.9 1.9-1.9m26.9 0h19.4c1.1 0 1.9.9 1.9 1.9v19.4c0 1.1-.9 1.9-1.9 1.9h-19.4c-1.1 0-1.9-.9-1.9-1.9v-19.4c-.1-1.1.8-1.9 1.9-1.9m26.8 0h19.4c1.1 0 1.9.9 1.9 1.9v19.4c0 1.1-.9 1.9-1.9 1.9h-19.4c-1.1 0-1.9-.9-1.9-1.9v-19.4c0-1.1.9-1.9 1.9-1.9m26.9 0h19.4c1.1 0 1.9.9 1.9 1.9v19.4c0 1.1-.9 1.9-1.9 1.9h-19.4c-1.1 0-1.9-.9-1.9-1.9v-19.4c0-1.1.8-1.9 1.9-1.9m-286.4667 27.3833h19.4c1.1 0 1.9.9 1.9 1.9v19.4c0 1.1-.9 1.9-1.9 1.9h-19.4c-1.1 0-1.9-.9-1.9-1.9v-19.4c0-1.1.9-1.9 1.9-1.9m26.9 0h19.4c1.1 0 1.9.9 1.9 1.9v19.4c0 1.1-.9 1.9-1.9 1.9h-19.4c-1.1 0-1.9-.9-1.9-1.9v-19.4c0-1.1.8-1.9 1.9-1.9m26.9 0h19.4c1.1 0 1.9.9 1.9 1.9v19.4c0 1.1-.9 1.9-1.9 1.9h-19.4c-1.1 0-1.9-.9-1.9-1.9v-19.4c0-1.1.8-1.9 1.9-1.9m26.8 0h19.4c1.1 0 1.9.9 1.9 1.9v19.4c0 1.1-.9 1.9-1.9 1.9h-19.4c-1.1 0-1.9-.9-1.9-1.9v-19.4c0-1.1.9-1.9 1.9-1.9m26.9 0h19.4c1.1 0 1.9.9 1.9 1.9v19.4c0 1.1-.9 1.9-1.9 1.9h-19.4c-1.1 0-1.9-.9-1.9-1.9v-19.4c0-1.1.9-1.9 1.9-1.9m26.9 0h19.4c1.1 0 1.9.9 1.9 1.9v19.4c0 1.1-.9 1.9-1.9 1.9h-19.4c-1.1 0-1.9-.9-1.9-1.9v-19.4c0-1.1.8-1.9 1.9-1.9m26.9 0h19.4c1.1 0 1.9.9 1.9 1.9v19.4c0 1.1-.9 1.9-1.9 1.9h-19.4c-1.1 0-1.9-.9-1.9-1.9v-19.4c0-1.1.8-1.9 1.9-1.9m26.8 0h19.4c1.1 0 1.9.9 1.9 1.9v19.4c0 1.1-.9 1.9-1.9 1.9h-19.4c-1.1 0-1.9-.9-1.9-1.9v-19.4c0-1.1.9-1.9 1.9-1.9m26.9 0h19.4c1.1 0 1.9.9 1.9 1.9v19.4c0 1.1-.9 1.9-1.9 1.9h-19.4c-1.1 0-1.9-.9-1.9-1.9v-19.4c0-1.1.9-1.9 1.9-1.9m26.9 0h19.4c1.1 0 1.9.9 1.9 1.9v19.4c0 1.1-.9 1.9-1.9 1.9h-19.4c-1.1 0-1.9-.9-1.9-1.9v-19.4c0-1.1.8-1.9 1.9-1.9m26.9 0h19.4c1.1 0 1.9.9 1.9 1.9v19.4c0 1.1-.9 1.9-1.9 1.9h-19.4c-1.1 0-1.9-.9-1.9-1.9v-19.4c0-1.1.8-1.9 1.9-1.9m26.8 0h19.4c1.1 0 1.9.9 1.9 1.9v19.4c0 1.1-.9 1.9-1.9 1.9h-19.4c-1.1 0-1.9-.9-1.9-1.9v-19.4c0-1.1.9-1.9 1.9-1.9m-286.6751 27.3833h19.4c1.1 0 1.9.9 1.9 1.9v19.4c0 1.1-.9 1.9-1.9 1.9h-19.4c-1.1 0-1.9-.9-1.9-1.9v-19.4c0-1.1.8-1.9 1.9-1.9m26.9 0h19.4c1.1 0 1.9.9 1.9 1.9v19.4c0 1.1-.9 1.9-1.9 1.9h-19.4c-1.1 0-1.9-.9-1.9-1.9v-19.4c0-1.1.8-1.9 1.9-1.9m26.8 0h19.5c1.1 0 1.9.9 1.9 1.9v19.4c0 1.1-.9 1.9-1.9 1.9h-19.5c-1.1 0-1.9-.9-1.9-1.9v-19.4c0-1.1.9-1.9 1.9-1.9m26.9 0h19.4c1.1 0 1.9.9 1.9 1.9v19.4c0 1.1-.9 1.9-1.9 1.9h-19.4c-1.1 0-1.9-.9-1.9-1.9v-19.4c0-1.1.9-1.9 1.9-1.9m26.9 0h19.4c1.1 0 1.9.9 1.9 1.9v19.4c0 1.1-.9 1.9-1.9 1.9h-19.4c-1.1 0-1.9-.9-1.9-1.9v-19.4c0-1.1.8-1.9 1.9-1.9m26.9 0h19.4c1.1 0 1.9.9 1.9 1.9v19.4c0 1.1-.9 1.9-1.9 1.9h-19.4c-1.1 0-1.9-.9-1.9-1.9v-19.4c0-1.1.8-1.9 1.9-1.9m26.8 0h19.4c1.1 0 1.9.9 1.9 1.9v19.4c0 1.1-.9 1.9-1.9 1.9h-19.4c-1.1 0-1.9-.9-1.9-1.9v-19.4c0-1.1.9-1.9 1.9-1.9m26.9 0h19.4c1.1 0 1.9.9 1.9 1.9v19.4c0 1.1-.9 1.9-1.9 1.9h-19.4c-1.1 0-1.9-.9-1.9-1.9v-19.4c0-1.1.9-1.9 1.9-1.9m26.8999 0h19.4c1.1 0 1.9.9 1.9 1.9v19.4c0 1.1-.9 1.9-1.9 1.9h-19.4c-1.1 0-1.9-.9-1.9-1.9v-19.4c0-1.1.8-1.9 1.9-1.9m26.9 0h19.4c1.1 0 1.9.9 1.9 1.9v19.4c0 1.1-.9 1.9-1.9 1.9h-19.4c-1.1 0-1.9-.9-1.9-1.9v-19.4c0-1.1.8-1.9 1.9-1.9m26.8 0h19.5c1.1 0 1.9.9 1.9 1.9v19.4c0 1.1-.9 1.9-1.9 1.9h-19.5c-1.1 0-1.9-.9-1.9-1.9v-19.4c0-1.1.9-1.9 1.9-1.9m73.4805 0c1 0 1.9.9 1.9 1.9v19.4c0 1.1-.8 1.9-1.9 1.9h-42.4c-1 0-1.9-.9-1.9-1.9v-19.4c0-1.1.8-1.9 1.9-1.9h42.4zm-368.7719-82.15h19.4c1.1 0 1.9.9 1.9 1.9v19.4c0 1.1-.9 1.9-1.9 1.9h-19.4c-1.1 0-1.9-.9-1.9-1.9v-19.4c0-1.1.8-1.9 1.9-1.9m26.9 0h19.4c1.1 0 1.9.9 1.9 1.9v19.4c0 1.1-.9 1.9-1.9 1.9h-19.4c-1.1 0-1.9-.9-1.9-1.9v-19.4c-.1-1.1.8-1.9 1.9-1.9m26.8 0h19.4c1.1 0 1.9.9 1.9 1.9v19.4c0 1.1-.9 1.9-1.9 1.9h-19.4c-1.1 0-1.9-.9-1.9-1.9v-19.4c0-1.1.9-1.9 1.9-1.9m26.8999 0h19.4c1.1 0 1.9.9 1.9 1.9v19.4c0 1.1-.9 1.9-1.9 1.9h-19.4c-1.1 0-1.9-.9-1.9-1.9v-19.4c0-1.1.8-1.9 1.9-1.9m26.9 0h19.4c1.1 0 1.9.9 1.9 1.9v19.4c0 1.1-.9 1.9-1.9 1.9h-19.4c-1.1 0-1.9-.9-1.9-1.9v-19.4c0-1.1.8-1.9 1.9-1.9m26.9 0h19.4c1.1 0 1.9.9 1.9 1.9v19.4c0 1.1-.9 1.9-1.9 1.9h-19.4c-1.1 0-1.9-.9-1.9-1.9v-19.4c-.1-1.1.8-1.9 1.9-1.9m26.8 0h19.4c1.1 0 1.9.9 1.9 1.9v19.4c0 1.1-.9 1.9-1.9 1.9h-19.4c-1.1 0-1.9-.9-1.9-1.9v-19.4c0-1.1.9-1.9 1.9-1.9m26.9 0h19.4c1.1 0 1.9.9 1.9 1.9v19.4c0 1.1-.9 1.9-1.9 1.9h-19.4c-1.1 0-1.9-.9-1.9-1.9v-19.4c0-1.1.8-1.9 1.9-1.9m26.9 0h19.4c1.1 0 1.9.9 1.9 1.9v19.4c0 1.1-.9 1.9-1.9 1.9h-19.4c-1.1 0-1.9-.9-1.9-1.9v-19.4c0-1.1.8-1.9 1.9-1.9m26.9 0h19.4c1.1 0 1.9.9 1.9 1.9v19.4c0 1.1-.9 1.9-1.9 1.9h-19.4c-1.1 0-1.9-.9-1.9-1.9v-19.4c-.1-1.1.8-1.9 1.9-1.9m26.8 0h19.4c1.1 0 1.9.9 1.9 1.9v19.4c0 1.1-.9 1.9-1.9 1.9h-19.4c-1.1 0-1.9-.9-1.9-1.9v-19.4c0-1.1.9-1.9 1.9-1.9m26.9 0h19.4c1.1 0 1.9.9 1.9 1.9v19.4c0 1.1-.9 1.9-1.9 1.9h-19.4c-1.1 0-1.9-.9-1.9-1.9v-19.4c0-1.1.8-1.9 1.9-1.9m-322.4999 0h19.4c1.1 0 1.9.9 1.9 1.9v19.4c0 1.1-.9 1.9-1.9 1.9h-19.4c-1.1 0-1.9-.9-1.9-1.9v-19.4c0-1.1.8-1.9 1.9-1.9m349.3999 0h19.4c1.1 0 1.9.9 1.9 1.9v19.4c0 1.1-.9 1.9-1.9 1.9h-19.4c-1.1 0-1.9-.9-1.9-1.9v-19.4c0-1.1.8-1.9 1.9-1.9m26.9 0h19.4c1.1 0 1.9.9 1.9 1.9v19.4c0 1.1-.9 1.9-1.9 1.9h-19.4c-1.1 0-1.9-.9-1.9-1.9v-19.4c-.1-1.1.8-1.9 1.9-1.9m-339.2867 54.7667c1.1 0 2 .9 2 1.9v19.4c0 1.1-.9 1.9-2 1.9h-46.1c-1.1 0-2-.9-2-1.9v-19.4c0-1.1.9-1.9 2-1.9h46.1zm13.6286 55.8333h19.4c1.1 0 1.9.9 1.9 1.9v19.4c0 1.1-.9 1.9-1.9 1.9h-19.4c-1.1 0-1.9-.9-1.9-1.9v-19.4c0-1.1.9-1.9 1.9-1.9m26.9 0h19.4c1.1 0 1.9.9 1.9 1.9v19.4c0 1.1-.9 1.9-1.9 1.9h-19.4c-1.1 0-1.9-.9-1.9-1.9v-19.4c0-1.1.9-1.9 1.9-1.9m26.9 0h19.4c1.1 0 1.9.9 1.9 1.9v19.4c0 1.1-.9 1.9-1.9 1.9h-19.4c-1.1 0-1.9-.9-1.9-1.9v-19.4c0-1.1.8-1.9 1.9-1.9m219.0686 0c1.1 0 2 .9 2 1.9v19.4c0 1.1-.9 1.9-2 1.9h-45.2c-1.1 0-2-.9-2-1.9v-19.4c0-1.1.9-1.9 2-1.9h45.2zm7.5229 0h19.4c1.1 0 1.9.9 1.9 1.9v19.4c0 1.1-.9 1.9-1.9 1.9h-19.4c-1.1 0-1.9-.9-1.9-1.9v-19.4c0-1.1.8-1.9 1.9-1.9m-285.9374-28.45c1.1 0 1.9.9 1.9 1.9v19.4c0 1.1-.9 1.9-1.9 1.9h-54.3c-1.1 0-1.9-.9-1.9-1.9v-19.4c0-1.1.9-1.9 1.9-1.9h54.3zm-17.1944-31.5506c1.1 0 1.9-.9 1.9-1.9v-19.4c0-1.1-.9-1.9-1.9-1.9h-34.4c-1.1 0-1.9.9-1.9 1.9v19.4c0 1.1.9 1.9 1.9 1.9h34.4zm368.0182 60.0006c.9 0 1.7.9 1.7 1.9v19.4c0 1.1-.7 1.9-1.7 1.9h-38.2c-.9 0-1.7-.9-1.7-1.9v-19.4c0-1.1.7-1.9 1.7-1.9h38.2zm-265.4452-.2333h140.3c1.1 0 1.9.9 1.9 1.9v19.4c0 1.1-.9 1.9-1.9 1.9v.2h-140.3c-1.1 0-1.9-.9-1.9-1.9v-19.4c0-1.1.9-1.9 1.9-1.9"/>
  <path fill="#5d5d5d" d="M417.7133 463.1999939h-6.3c-1.1 0-1.9-.9-1.9-1.9v-19.4c0-1.1.9-1.9 1.9-1.9h37.7c1.1 0 1.9.9 1.9 1.9v46.8c0 1.1-.9 1.9-1.9 1.9h-27.5c-1.1 0-1.9-.9-1.9-1.9v-23.5c0-1.1-.9-1.9-1.9-1.9m43.8267-61.5164h19.4c1.1 0 1.9.9 1.9 1.9v19.4c0 1.1-.9 1.9-1.9 1.9h-19.4c-1.1 0-1.9-.9-1.9-1.9v-19.4c0-1 .9-1.9 1.9-1.9m26.9 0h19.4c1.1 0 1.9.9 1.9 1.9v19.4c0 1.1-.9 1.9-1.9 1.9h-19.4c-1.1 0-1.9-.9-1.9-1.9v-19.4c0-1 .8-1.9 1.9-1.9m26.9 0h19.4c1.1 0 1.9.9 1.9 1.9v19.4c0 1.1-.9 1.9-1.9 1.9h-19.4c-1.1 0-1.9-.9-1.9-1.9v-19.4c0-1 .8-1.9 1.9-1.9m26.9 0h19.4c1.1 0 1.9.9 1.9 1.9v19.4c0 1.1-.9 1.9-1.9 1.9h-19.4c-1.1 0-1.9-.9-1.9-1.9v-19.4c-.1-1 .8-1.9 1.9-1.9m-80.7-27.3833h19.4c1.1 0 1.9.9 1.9 1.9v19.4c0 1.1-.9 1.9-1.9 1.9h-19.4c-1.1 0-1.9-.9-1.9-1.9v-19.4c0-1 .9-1.9 1.9-1.9m26.9 0h19.4c1.1 0 1.9.9 1.9 1.9v19.4c0 1.1-.9 1.9-1.9 1.9h-19.4c-1.1 0-1.9-.9-1.9-1.9v-19.4c0-1 .8-1.9 1.9-1.9m26.9 0h19.4c1.1 0 1.9.9 1.9 1.9v19.4c0 1.1-.9 1.9-1.9 1.9h-19.4c-1.1 0-1.9-.9-1.9-1.9v-19.4c0-1 .8-1.9 1.9-1.9m26.9 0h19.4c1.1 0 1.9.9 1.9 1.9v19.4c0 1.1-.9 1.9-1.9 1.9h-19.4c-1.1 0-1.9-.9-1.9-1.9v-19.4c-.1-1 .8-1.9 1.9-1.9m-80.7 82.25h19.4c1.1 0 1.9.9 1.9 1.9v19.4c0 1.1-.9 1.9-1.9 1.9h-19.4c-1.1 0-1.9-.9-1.9-1.9v-19.4c0-1.1.9-1.9 1.9-1.9m26.9 0h19.4c1.1 0 1.9.9 1.9 1.9v19.4c0 1.1-.9 1.9-1.9 1.9h-19.4c-1.1 0-1.9-.9-1.9-1.9v-19.4c0-1.1.8-1.9 1.9-1.9m26.9 0h19.4c1.1 0 1.9.9 1.9 1.9v19.4c0 1.1-.9 1.9-1.9 1.9h-19.4c-1.1 0-1.9-.9-1.9-1.9v-19.4c0-1.1.8-1.9 1.9-1.9m26.9 0h19.4c1.1 0 1.9.9 1.9 1.9v19.4c0 1.1-.9 1.9-1.9 1.9h-19.4c-1.1 0-1.9-.9-1.9-1.9v-19.4c-.1-1.1.8-1.9 1.9-1.9m-80.7-27.3834h19.4c1.1 0 1.9.9 1.9 1.9v19.4c0 1.1-.9 1.9-1.9 1.9h-19.4c-1.1 0-1.9-.9-1.9-1.9v-19.4c0-1.1.9-1.9 1.9-1.9m26.9 0h19.4c1.1 0 1.9.9 1.9 1.9v19.4c0 1.1-.9 1.9-1.9 1.9h-19.4c-1.1 0-1.9-.9-1.9-1.9v-19.4c0-1.1.8-1.9 1.9-1.9m26.9 0h19.4c1.1 0 1.9.9 1.9 1.9v19.4c0 1.1-.9 1.9-1.9 1.9h-19.4c-1.1 0-1.9-.9-1.9-1.9v-19.4c0-1.1.8-1.9 1.9-1.9m26.9 0h19.4c1.1 0 1.9.9 1.9 1.9v19.4c0 1.1-.9 1.9-1.9 1.9h-19.4c-1.1 0-1.9-.9-1.9-1.9v-19.4c-.1-1.1.8-1.9 1.9-1.9m-483.4364-34.0787c-1.1 0-1.9-.9-1.9-1.9v-8.7c0-1.1.9-1.9 1.9-1.9h30.4c1.1 0 1.9.9 1.9 1.9v8.7c0 1.1-.9 1.9-1.9 1.9h-30.4zm37.4582 0c-1.1 0-1.9-.9-1.9-1.9v-8.7c0-1.1.9-1.9 1.9-1.9h30.3c1.1 0 1.9.9 1.9 1.9v8.7c0 1.1-.9 1.9-1.9 1.9h-30.3zm37.3519 0c-1.1 0-1.9-.9-1.9-1.9v-8.7c0-1.1.9-1.9 1.9-1.9h30.4c1.1 0 1.9.9 1.9 1.9v8.7c0 1.1-.9 1.9-1.9 1.9h-30.4zm37.4581 0c-1.1 0-1.9-.9-1.9-1.9v-8.7c0-1.1.9-1.9 1.9-1.9h30.4c1.1 0 1.9.9 1.9 1.9v8.7c0 1.1-.9 1.9-1.9 1.9h-30.4zm38.4915 0c-1.1 0-1.9-.9-1.9-1.9v-8.7c0-1.1.9-1.9 1.9-1.9h30.4c1.1 0 1.9.9 1.9 1.9v8.7c0 1.1-.9 1.9-1.9 1.9h-30.4zm42.7252 0c-1.1 0-1.9-.9-1.9-1.9v-8.7c0-1.1.9-1.9 1.9-1.9h30.4c1.1 0 1.9.9 1.9 1.9v8.7c0 1.1-.9 1.9-1.9 1.9h-30.4zm38.4915 0c-1.1 0-1.9-.9-1.9-1.9v-8.7c0-1.1.9-1.9 1.9-1.9h30.4c1.1 0 1.9.9 1.9 1.9v8.7c0 1.1-.9 1.9-1.9 1.9h-30.4zm42.6252 0c-1.1 0-1.9-.9-1.9-1.9v-8.7c0-1.1.9-1.9 1.9-1.9h30.4c1.1 0 1.9.9 1.9 1.9v8.7c0 1.1-.9 1.9-1.9 1.9h-30.4zm37.4581 0c-1.1 0-1.9-.9-1.9-1.9v-8.7c0-1.1.9-1.9 1.9-1.9h30.4c1.1 0 1.9.9 1.9 1.9v8.7c0 1.1-.9 1.9-1.9 1.9h-30.4zm38.4916 0c-1.1 0-1.9-.9-1.9-1.9v-8.7c0-1.1.9-1.9 1.9-1.9h30.4c1.1 0 1.9.9 1.9 1.9v8.7c0 1.1-.9 1.9-1.9 1.9h-30.4z"/>
  <path fill="#5d5d5d" d="M290.88 395.1881939c-1.1 0-1.9-.9-1.9-1.9v-8.7c0-1.1.9-1.9 1.9-1.9h30.4c1.1 0 1.9.9 1.9 1.9v8.7c0 1.1-.9 1.9-1.9 1.9h-30.4z"/>
  <path fill="none" stroke="#fff" stroke-miterlimit="10" d="M511.0568 536.1457939h12.3"/>
  <path fill="#231f20" d="M563.0443 548.0832939h-100.3c-1.6 0-2.9-1.3-2.9-2.9v-32c0-1.6 1.3-2.9 2.9-2.9h100.3c1.6 0 2.9 1.3 2.9 2.9v32c0 1.6-1.3 2.9-2.9 2.9"/>
  <path fill="#231f20" d="M528.9637 560.2332939h-32.6c-1.6 0-2.9-1.3-2.9-2.9v-56.9c0-1.6 1.3-2.9 2.9-2.9h32.6c1.6 0 2.9 1.3 2.9 2.9v56.9c0 1.6-1.3 2.9-2.9 2.9"/>
  <path fill="#5d5d5d" d="M489.5929 546.6266939h-26.7c-.9 0-1.7-.8-1.7-1.7v-31.6c0-.9.8-1.7 1.7-1.7h26.7c.9 0 1.7.8 1.7 1.7v31.6c0 1-.7 1.7-1.7 1.7"/>
  <path fill="#fff" d="M476.2641 521.1758939l-7.9 8 7.9 8-.7.7-8.6-8.7 8.6-8.7"/>
  <path fill="#191919" d="M506.633 529.1190939h-30.7c0-8.1 6.9-14.8 15.3-14.8l15.4 14.8z"/>
  <path fill="#282828" d="M506.633 529.1190939h-30.7c0 8.1 6.9 14.8 15.3 14.8l15.4-14.8z"/>
  <path fill="#fff" d="M482.612602 528.6190839h12.1v1h-12.1z"/>
  <path fill="#5d5d5d" d="M535.8573 546.6266939h26.7c.9 0 1.7-.8 1.7-1.7v-31.6c0-.9-.8-1.7-1.7-1.7h-26.7c-.9 0-1.7.8-1.7 1.7v31.6c-.1 1 .7 1.7 1.7 1.7"/>
  <path fill="#fff" d="M549.0861 521.1758939l.7-.7 8.7 8.7-8.7 8.7-.7-.7 8-8"/>
  <path fill="#191919" d="M518.7171 529.1190939h30.7c0-8.1-6.9-14.8-15.3-14.8l-15.4 14.8z"/>
  <path fill="#282828" d="M518.7171 529.1190939h30.7c0 8.1-6.9 14.8-15.3 14.8l-15.4-14.8z"/>
  <path fill="#fff" d="M530.737602 528.6190839h12.1v1h-12.1z"/>
  <path fill="#5d5d5d" d="M530.594 515.7155939h-35.9v-14.4c0-1.2 1-2.1 2.1-2.1h31.7c1.2 0 2.1 1 2.1 2.1v14.4c.1-.1.1 0 0 0"/>
  <path fill="#fff" d="M504.032 511.2042939l8.7-8.7 8.7 8.7-.8.7-7.9-8-8 8"/>
  <path fill="#191919" d="M530.5953 515.7155939l-13.6 12.3h-8.8l-13.4-12.3h35.8z"/>
  <path fill="#fff" d="M506.632997 521.3192039h12.1v1h-12.1z"/>
  <path fill="#5d5d5d" d="M494.8562 542.5634939h35.9v14.4c0 1.2-1 2.1-2.1 2.1h-31.8c-1.2 0-2.1-1-2.1-2.1l.1-14.4c-.1.1-.1 0 0 0"/>
  <path fill="#fff" d="M512.7182 554.3747939l8-8 .7.7-8.7 8.7-8.7-8.7.7-.7"/>
  <path fill="#282828" d="M494.8549 542.5634939l13.6-12.3h8.8l13.4 12.3h-35.8z"/>
  <path fill="#fff" d="M506.717098 535.9599039h12.1v1h-12.1z"/>
  <path fill="#f3e4b1" d="M479.5249 252.7496939h2.8v-1.4h-2.8v-3.1h-1.3v3.1h-2.8v1.4h2.8v3.1h1.3v-3.1z"/>
  <path fill="#ead598" d="M469.0333 255.8832939h-26.6v-11.1h26.6v11.1z"/>
  <path fill="#212324" d="M466.9911 246.3640939l-2.5 3.8 2.7 4.1h-2.5l-1.5-2.2-1.5 2.2h-2.5c.1-.1 2.8-4.1 2.8-4.1l-1.3-1.7h-4.9c-.2 0-.5-.1-.6.2 0 .1-.1.2 0 .3 0 .1.1.2.2.2h2.1c.9 0 1.7.6 2.1 1.4.3.7.3 1.7-.1 2.3-.5.8-1.4 1.3-2.3 1.3h-5.4l-.8-3.1-.8 3.2h-2l-.8-3.1-.9 3.1h-2.2s2-7.4 2.1-7.9h1.8l.9 3.3.9-3.3h1.8l1.5 5.8h3.6c.2 0 .6.1.7-.3 0-.1 0-.3-.1-.4-.1-.1-.2-.1-.3-.1h-1.9c-.9 0-1.8-.6-2.2-1.6-.4-.9-.2-2 .5-2.7.5-.5 1-.7 1.7-.8h6.4l1.3 1.9 1.3-1.9h2.7z"/>
  <path fill="#f3e4b1" d="M472.1859 254.3091939c.1-.9 2.5-1.5 2.5-3.6 0-2-1.3-2.5-2.5-2.5s-2.4.9-2.4 2.4v.6h1.7v-.4c0-.5.2-.8.7-.8.4 0 .6.3.6.8 0 1.2-2 1.7-2.8 3.2-.4.6-.4 1.9-.4 1.9h4.9v-1.6h-2.3z"/>
  <path fill="#131414" d="M246.0136 268.5416939h-15.2c-2.8 0-5-2.3-5-5 0-2.8 2.3-5 5-5h15.2c2.8 0 5 2.3 5 5s-2.2 5-5 5zm-15.2-9.1c-2.2 0-4 1.8-4 4s1.8 4 4 4h15.2c2.2 0 4-1.8 4-4s-1.8-4-4-4h-15.2zm86.4197-27.8584h-157.7v-6.3h157.7v6.3z"/>
  <path fill="#131414" d="M316.6651 259.4165939h-156.6c-2.8 0-5-2.3-5-5v-26.8c0-2.8 2.3-5 5-5h156.6c2.8 0 5 2.3 5 5v26.8c.1 2.7-2.2 5-5 5zm-156.6-35.9c-2.2 0-4 1.8-4 4v26.9c0 2.2 1.8 4 4 4h156.6c2.2 0 4-1.8 4-4v-26.8c0-2.2-1.8-4-4-4h-156.6z"/>
  <path fill="#131414" d="M297.6333 222.9832939h-253.7v-17.4h253.6v17.4z"/>
  <path fill="#212324" d="M64.9345 223.0249939h-15.3c-.6 0-1.2-.5-1.2-1.2v-18.7c0-.6.5-1.2 1.2-1.2h15.3c.6 0 1.2.5 1.2 1.2v18.8c-.1.6-.6 1.1-1.2 1.1m21.9452 0h-11.1c-.6 0-1.2-.5-1.2-1.2v-18.7c0-.6.5-1.2 1.2-1.2h11.1c.6 0 1.2.5 1.2 1.2v18.8c-.1.6-.6 1.1-1.2 1.1m21.6019 0h-11.1c-.6 0-1.2-.5-1.2-1.2v-18.7c0-.6.5-1.2 1.2-1.2h11.1c.6 0 1.2.5 1.2 1.2v18.8c0 .6-.6 1.1-1.2 1.1m21.6019 0h-11.1c-.6 0-1.2-.5-1.2-1.2v-18.7c0-.6.5-1.2 1.2-1.2h11.1c.6 0 1.2.5 1.2 1.2v18.8c0 .6-.5 1.1-1.2 1.1m21.6019 0h-11c-.6 0-1.2-.5-1.2-1.2v-18.7c0-.6.5-1.2 1.2-1.2h11.1c.6 0 1.2.5 1.2 1.2v18.8c-.1.6-.6 1.1-1.3 1.1m21.7019 0h-11.1c-.6 0-1.2-.5-1.2-1.2v-18.7c0-.6.5-1.2 1.2-1.2h11.1c.6 0 1.2.5 1.2 1.2v18.8c-.1.6-.6 1.1-1.2 1.1m21.6019 0h-11.1c-.6 0-1.2-.5-1.2-1.2v-18.7c0-.6.5-1.2 1.2-1.2h11.1c.6 0 1.2.5 1.2 1.2v18.8c0 .6-.6 1.1-1.2 1.1m21.6019 0h-11.1c-.6 0-1.2-.5-1.2-1.2v-18.7c0-.6.5-1.2 1.2-1.2h11.1c.6 0 1.2.5 1.2 1.2v18.8c0 .6-.5 1.1-1.2 1.1m21.6019 0h-11c-.6 0-1.2-.5-1.2-1.2v-18.7c0-.6.5-1.2 1.2-1.2h11c.6 0 1.2.5 1.2 1.2v18.8c0 .6-.5 1.1-1.2 1.1m21.7018 0h-11.1c-.6 0-1.2-.5-1.2-1.2v-18.7c0-.6.5-1.2 1.2-1.2h11.1c.6 0 1.2.5 1.2 1.2v18.8c-.1.6-.6 1.1-1.2 1.1m21.6019 0h-11.1c-.6 0-1.2-.5-1.2-1.2v-18.7c0-.6.5-1.2 1.2-1.2h11.1c.6 0 1.2.5 1.2 1.2v18.8c0 .6-.6 1.1-1.2 1.1"/>
  <path fill="#131414" d="M297.5333 222.9832939h253.6v-17.4h-253.6v17.4z"/>
  <path fill="#212324" d="M530.2042 223.0249939h15.3c.6 0 1.2-.5 1.2-1.2v-18.7c0-.6-.5-1.2-1.2-1.2h-15.3c-.6 0-1.2.5-1.2 1.2v18.8c.1.6.6 1.1 1.2 1.1m-21.8453 0h11.1c.6 0 1.2-.5 1.2-1.2v-18.7c0-.6-.5-1.2-1.2-1.2h-11.1c-.6 0-1.2.5-1.2 1.2v18.8c0 .6.5 1.1 1.2 1.1m-21.7018 0h11.1c.6 0 1.2-.5 1.2-1.2v-18.7c0-.6-.5-1.2-1.2-1.2h-11.1c-.6 0-1.2.5-1.2 1.2v18.8c.1.6.6 1.1 1.2 1.1m-21.6019 0h11.1c.6 0 1.2-.5 1.2-1.2v-18.7c0-.6-.5-1.2-1.2-1.2h-11.1c-.6 0-1.2.5-1.2 1.2v18.8c0 .6.6 1.1 1.2 1.1m-21.6019 0h11.1c.6 0 1.2-.5 1.2-1.2v-18.7c0-.6-.5-1.2-1.2-1.2h-11.1c-.6 0-1.2.5-1.2 1.2v18.8c0 .6.5 1.1 1.2 1.1m-21.6019 0h11.1c.6 0 1.2-.5 1.2-1.2v-18.7c0-.6-.5-1.2-1.2-1.2h-11.1c-.6 0-1.2.5-1.2 1.2v18.8c0 .6.5 1.1 1.2 1.1m-21.7019 0h11.1c.6 0 1.2-.5 1.2-1.2v-18.7c0-.6-.5-1.2-1.2-1.2h-11.1c-.6 0-1.2.5-1.2 1.2v18.8c.1.6.6 1.1 1.2 1.1m-21.6019 0h11.1c.6 0 1.2-.5 1.2-1.2v-18.7c0-.6-.5-1.2-1.2-1.2h-11.1c-.6 0-1.2.5-1.2 1.2v18.8c0 .6.6 1.1 1.2 1.1m-21.6019 0h11.1c.6 0 1.2-.5 1.2-1.2v-18.7c0-.6-.5-1.2-1.2-1.2h-11.1c-.6 0-1.2.5-1.2 1.2v18.8c0 .6.5 1.1 1.2 1.1m-21.6019 0h11.1c.6 0 1.2-.5 1.2-1.2v-18.7c0-.6-.5-1.2-1.2-1.2h-11.1c-.6 0-1.2.5-1.2 1.2v18.8c0 .6.5 1.1 1.2 1.1m-21.7018 0h11.1c.6 0 1.2-.5 1.2-1.2v-18.7c0-.6-.5-1.2-1.2-1.2h-11.1c-.6 0-1.2.5-1.2 1.2v18.8c.1.6.6 1.1 1.2 1.1m-10.5434 0h-11.1c-.6 0-1.2-.5-1.2-1.2v-18.7c0-.6.5-1.2 1.2-1.2h11.1c.6 0 1.2.5 1.2 1.2v18.8c0 .6-.5 1.1-1.2 1.1"/>
  <path fill="#ead598" d="M40.9613999 228.0499929h112v1h-112zm284.9152001 0h220.8v1h-220.8z"/>
  <path fill="#212324" d="M43.9941 201.8999939h-9.3l-.2 1.8-.2 1.8h9.7v-3.6zm507.1505 0h9.3l.2 1.8.2 1.8h-9.7v-3.6z"/>
  <path fill="#656266" d="M575.9333 277.6832939h-550.3v40h550.3v-40z"/>
  <path fill="#212324" d="M575.9333 308.0832939h-550.3v-20.8h550.3v20.8z"/>
  <path fill="#282828" d="M9.5 348.7999939l-11.5-20.4c.7-3.8 6-7.1 11.9-8.3l15.7-2.4v31.1H9.5z"/>
  <path fill="#212324" d="M25.6166 308.0832939v-20.8l-14.2 2.6c-5.3 1.3-10 4.8-10.7 8.8v.1l-1 9.5-1.3 11.3c.8-4.1 4.8-7.5 10.9-8.8l16.3-2.7z"/>
  <path fill="#656266" d="M.7273 298.6888939l1.7-10.3c.6-3.8 5-7.1 10-8.3l13.2-2.4v9.6l-14.2 2.6c-5.3 1.3-10 4.8-10.7 8.8m-2.694 29.7483l.5-8.9c.8-4.1 4.8-7.5 10.9-8.9l16.3-2.6v9.6l-15.7 2.4c-6 1.3-11.3 4.6-12 8.4l.2.4"/>
  <path fill="#5e5e5e" d="M536.6941 297.0165939c0 4.3-3.6 7.7-8.1 7.7s-8.1-3.5-8.1-7.7 3.6-7.7 8.1-7.7 8.1 3.5 8.1 7.7"/>
  <path fill="#131414" d="M339 309.9832939h1v7.8l-1.4 4-1-.3 1.4-3.9"/>
  <path fill="#dee0e0" d="M382.917 340.6999939h-45.9l5.2-13.4h45.9l-5.2 13.4z"/>
  <path fill="#231f20" d="M383.217 341.1999939h-47l5.6-14.4h47l-5.6 14.4zm-45.5-1h44.8l4.8-12.4h-44.8l-4.8 12.4z"/>
  <path d="M358.9468 335.9499939h-8.5l.9-5.2h8.5l-.9 5.2zm9.6396 0h-6.1l.9-5.2h6.1l-.9 5.2zm11.3312 0h-7.4l.9-5.2h7.4l-.9 5.2zm-33.0545-3.8063h-3.7l.4-2.4h3.7l-.4 2.4z"/>
  <path fill="#dee0e0" d="M428.5716 340.6999939h-45.9l5.2-13.4h45.9l-5.2 13.4z"/>
  <path fill="#231f20" d="M428.9716 341.1999939h-47l5.6-14.4h47l-5.6 14.4zm-45.6-1h44.8l4.8-12.4h-44.7l-4.9 12.4z"/>
  <path d="M404.6013 335.9499939h-8.5l.9-5.2h8.5l-.9 5.2zm9.7396 0h-6.1l.9-5.2h6.1l-.9 5.2zm11.2312 0h-7.4l.9-5.2h7.4l-.9 5.2zm-33.0544-3.8063h-3.7l.4-2.4h3.7l-.4 2.4z"/>
  <path fill="#dee0e0" d="M474.467 340.6999939h-45.9l5.2-13.4h45.9l-5.2 13.4z"/>
  <path fill="none" stroke="#231f20" stroke-miterlimit="10" d="M474.467 340.6999939h-45.9l5.2-13.4h45.9l-5.2 13.4z"/>
  <path d="M450.4968 335.9499939h-8.5l.9-5.2h8.5l-.9 5.2zm9.6396 0h-6.1l.9-5.2h6.1l-.9 5.2zm11.3312 0h-7.4l.9-5.2h7.4l-.9 5.2zm-33.0545-3.8063h-3.7l.4-2.4h3.7l-.4 2.4z"/>
  <path fill="#dee0e0" d="M520.4484 340.6999939h-45.9l5.2-13.4h45.9l-5.2 13.4z"/>
  <path fill="none" stroke="#231f20" stroke-miterlimit="10" d="M520.4484 340.6999939h-45.9l5.2-13.4h45.9l-5.2 13.4z"/>
  <path d="M496.4782 335.9499939h-8.5l.9-5.2h8.5l-.9 5.2zm9.6396 0h-6.1l.9-5.2h6.1l-.9 5.2zm11.3312 0h-7.4l.9-5.2h7.4l-.9 5.2zm-33.0545-3.8063h-3.7l.4-2.4h3.7l-.4 2.4z"/>
  <path fill="#813137" d="M566.4838 340.6999939h-45.9l5.2-13.4h45.9l-5.2 13.4z"/>
  <path fill="#231f20" d="M566.7838 341.1999939h-47l5.6-14.4h47l-5.6 14.4zm-45.5-1h44.8l4.8-12.4h-44.7l-4.9 12.4z"/>
  <path fill="#8f9193" d="M542.5135 335.9499939h-8.5l.9-5.2h8.5l-.9 5.2zm9.6396 0h-6.1l.9-5.2h6.1l-.9 5.2zm11.3312 0h-7.4l.9-5.2h7.4l-.9 5.2zm-33.0545-3.8063h-3.7l.4-2.4h3.7l-.4 2.4z"/>
  <path fill="#dee0e0" stroke="#231f20" stroke-miterlimit="10" d="M308.7333 340.6832939h-7.9v-13.4h7.9v13.4z"/>
  <path fill="#656266" d="M9.5 348.7999939h22.6v10.1c-5.4 0-10.2 2.9-12.9 7.3h.1l-9.8-17.4"/>
  <path fill="#656266" d="M569.5333 358.8832939h-537.5v-10.1h537.4v10.1h.1z"/>
  <path fill="#131414" d="M297.8988 349.2999939h-171.5l-6.4-28.2h177.9v28.2zm-170.7-1h169.7v-26.2h-175.6l5.9 26.2z"/>
  <path fill="#5e5e5e" d="M200.5333 343.0832939h-3.3v-9.1h3.3v9.1zm4.5 0h-3.3v-9.1h3.3v9.1zm4.4 0h-3.3v-9.1h3.3v9.1zm4.5 0h-3.3v-9.1h3.3v9.1zm4.4 0h-3.3v-9.1h3.3v9.1z"/>
  <path fill="none" stroke="#131414" stroke-miterlimit="10" d="M197.1666 338.5290939h21.2"/>
  <path fill="#5e5e5e" d="M273.1333 343.0832939h-3.3v-9.1h3.3v9.1zm4.4 0h-3.3v-9.1h3.3v9.1zm4.5 0h-3.3v-9.1h3.3v9.1z"/>
  <path fill="none" stroke="#131414" stroke-miterlimit="10" d="M269.7083 338.5290939h12.2"/>
  <path fill="#131414" d="M253.5333 343.5832939h-108.7v-10.1h108.7v10.1zm-107.7-1h106.7v-8.1h-106.7v8.1z"/>
  <path fill="#f3e4b1" d="M191.1559 329.5408939h-.3c-.9 0-1.7-.8-1.7-1.7 0-.9.8-1.7 1.7-1.7h.3c.9 0 1.7.8 1.7 1.7 0 .9-.7 1.7-1.7 1.7m4.875 0h-.3c-.9 0-1.7-.8-1.7-1.7 0-.9.8-1.7 1.7-1.7h.3c.9 0 1.7.8 1.7 1.7 0 .9-.8 1.7-1.7 1.7m4.875 0h-.3c-.9 0-1.7-.8-1.7-1.7 0-.9.8-1.7 1.7-1.7h.3c.9 0 1.7.8 1.7 1.7 0 .9-.8 1.7-1.7 1.7m4.775 0h-.3c-.9 0-1.7-.8-1.7-1.7 0-.9.8-1.7 1.7-1.7h.3c.9 0 1.7.8 1.7 1.7.1.9-.7 1.7-1.7 1.7"/>
  <path fill="#282828" d="M592.095 348.8102939l11.5-20.4c-.7-3.8-6-7.1-11.9-8.3l-15.7-2.4v31.1h16.1z"/>
  <path fill="#212324" d="M575.9783 308.0935939v-20.8l14.2 2.6c5.3 1.3 10 4.8 10.7 8.8v.1l1 9.5 1.3 11.3c-.8-4.1-4.8-7.5-10.9-8.8l-16.3-2.7z"/>
  <path fill="#656266" d="M600.8677 298.6991939l-1.7-10.3c-.6-3.8-5-7.1-10-8.3l-13.2-2.4v9.6l14.2 2.6c5.3 1.2 10 4.7 10.7 8.8m2.6939 29.6483l-.5-8.9c-.8-4.1-4.8-7.5-10.9-8.8l-16.3-2.6v9.6l15.7 2.4c6 1.3 11.3 4.5 12 8.3l-.2.4m-11.2666 20.0628h-22.6v10.1c5.4 0 10.2 2.9 12.9 7.3h-.1l9.8-17.4"/>
  <path fill="#191919" d="M253.0333 343.0832939h-34.7v-9.1h34.7v9.1z"/>
  <path fill="#131414" d="M362.6594 309.9832939h1v7.8l-1.4 4-.9-.3 1.3-3.9m23.978-7.6h1v7.8l-1.4 4-.9-.3 1.3-3.9m24.2804-7.6h1l-.1 7.8-1.4 4-.9-.3 1.4-3.9m23.6595-7.6h1v7.8l-1.4 4-1-.3 1.4-3.9m23.978-7.6h1v7.8l-1.4 4-1-.3 1.4-3.9m20.4476-7.35h1v7.9l-1.4 4-1-.4 1.4-3.8m23.5082-7.7h1v7.9l-1.4 4-1-.4 1.4-3.8m22.6666-7.7h1v7.9l-1.4 4-.9-.4 1.3-3.8m22.0083-7.7h1v7.9l-1.4 4-.9-.4 1.3-3.8m21.8361-7.7h1v7.9l-1.4 4-1-.4 1.4-3.8"/>
  <g clip-path="url(#a)" transform="matrix(1.25,0,0,-1.25,639.97761,593.08379)">
    <path fill="#494647" d="M228.8936 140.1644c0 1.78-1.432 3.214-3.213 3.214H3.2386c-1.78 0-3.214-1.432-3.214-3.214v-9.738c0-1.78 1.433-3.214 3.214-3.214h11.003c1.781 0 3.213-1.434 3.213-3.214v-43.327H3.2136c-1.78 0-3.214-1.432-3.214-3.213V3.2144h.001c0-1.781 1.432-3.214 3.213-3.214h222.466c1.781 0 3.214 1.432 3.214 3.213v136.951"/>
    <path fill="#b5b4b4" d="M207.7615 9.2816H44.3485c-6.6 0-12 5.4-12 12v110.097c0 6.6 5.4 12 12 12h163.413c6.6 0 12-5.4 12-12V21.2816c0-6.6-5.4-12-12-12"/>
    <path fill="#211d1d" d="M206.96032 23.508011h-20.16875v8.168108h20.16875v-8.168108z"/>
    <path fill="#fff" d="M205.364717 30.526339l-1.917372-2.800552 2.085453-3.059601h-1.925806l-1.146045 1.638039-1.155283-1.642056h-1.913155c.05201.108038 2.094289 3.063618 2.094289 3.063618l-.870529 1.211109-3.692768-.0042c-.172298-.01345-.383354.03876-.469704-.15543-.03032-.06446-.04318-.159245-.0084-.224309.02972-.0731.099-.141976.176315-.163262l.116271-.0088h1.478192c.684776-.01727 1.318545-.443598 1.615549-1.059695.263267-.517297.224309-1.223961-.06888-1.715353-.370301-.624531-1.029774-.973747-1.744872-.948043h-4.110863s-.629351 2.271206-.633568 2.275022l-.633568-2.275022-1.499277-.000401-.603246 2.284259-.659473-2.27944h-1.658924s1.525383 5.489652 1.624384 5.851719h1.400879l.659272-2.44752.672124 2.44752 1.374572.000402 1.176368-4.262477h2.740508c.189167.0092.452233-.04257.529948.189769.03012.104021.0046.211457-.06888.284553-.06928.06045-.155229.07751-.245595.07751l-1.473573.000201c-.69823.02149-1.391842.478138-1.65049 1.150062-.279935.672526-.116271 1.478593.396407 1.999103.361866.36267.792813.543804 1.297258.56509l4.834596.0042.974149-1.404293 1.007885 1.40871 1.895885-.000401z"/>
    <path fill="#e4e4e4" d="M24.6602 36.7994c0-4.23-3.429-7.659-7.659-7.659s-7.659 3.429-7.659 7.659 3.429 7.659 7.659 7.659 7.659-3.429 7.659-7.659"/>
    <path fill="#1a1717" d="M3.2383 80.6714v46.541h11.003c1.781 0 3.213-1.434 3.213-3.214v-43.327h-14.24"/>
    <path fill="#4f4c4d" d="M19.2618 118.3091H.5418c-.284 0-.517.232-.517.517v3.489c0 .284.233.516.517.516h18.72c.284 0 .517-.232.517-.516v-3.489c0-.285-.233-.517-.517-.517m0-8.0965H.5418c-.284 0-.517.232-.517.517v3.489c0 .284.233.516.517.516h18.72c.284 0 .517-.232.517-.516v-3.489c0-.285-.233-.517-.517-.517m0-8.0965H.5418c-.284 0-.517.232-.517.517v3.489c0 .284.233.516.517.516h18.72c.284 0 .517-.232.517-.516v-3.489c0-.285-.233-.517-.517-.517m0-7.8777H.5418c-.284 0-.517.232-.517.517v3.489c0 .284.233.516.517.516h18.72c.284 0 .517-.232.517-.516v-3.489c0-.285-.233-.517-.517-.517m0-7.8776H.5418c-.284 0-.517.233-.517.517v3.489c0 .284.233.516.517.516h18.72c.284 0 .517-.232.517-.516v-3.489c0-.284-.233-.517-.517-.517"/>
  </g>
</svg>
