<svg xmlns="http://www.w3.org/2000/svg" baseProfile="tiny" viewBox="241 249.1 1093.8 373.1">
  <path fill="#231F20" d="M420.4 249.1h735v297.5h-735z"/>
  <path fill="#FFF" d="M1097.3 290.8l-69.8 102 76 111.6H1033l-41.7-59.7-42.3 59.7h-69.3c1.6-3.9 76-111.6 76-111.6l-31.6-44H789.5c-6.2.5-14-1.6-17 5.7-1.1 2.3-1.6 5.7-.5 7.8 1.1 2.8 3.4 5.1 6.2 6.2l4.6.5H837c24.8.5 47.9 16.3 58.6 38.8 9.6 18.6 8.5 44.5-2.3 62.6-13.5 22.5-37.8 35.5-63.6 34.4h-150L656.6 422l-23.2 82.9h-54.7l-22-83.4-23.7 82.9h-60.8s55.8-200.1 59.2-213h51.2l23.7 89.1 24.3-89.1h50.2l43 155.6h99.7c6.7-.5 16.3 1.6 19.1-6.7 1.1-3.9 0-7.8-2.3-10.1s-5.7-2.8-9-2.8h-53.5c-25.3-.5-50.7-17.5-60.3-41.7-10.1-24.3-4.6-54.1 14.7-72.7 12.9-12.9 28.7-19.7 47.3-20.9H956l35.5 51.2 36.7-51.2 69.1-1.3z"/>
  <path fill="#231F20" d="M658.9 560.2h152.7v62H658.9z"/>
  <path fill="#FFF" d="M799.8 569.3l-14.7 21.4 15.8 23.2h-14.7l-8.5-12.4-9 12.4H754c.5-.5 15.8-23.2 15.8-23.2l-6.7-9h-28.3c-1.1 0-2.8-.5-3.4 1.1 0 .5-.5 1.1 0 1.6 0 .5.5 1.1 1.1 1.1H745c5.1 0 10.1 3.4 12.4 7.8 2.3 3.9 1.6 9-.5 12.9-2.8 4.6-7.8 7.3-12.9 7.3h-31s-4.6-17.5-5.1-17.5l-5.1 17.5h-11.3l-4.6-17.5-5.1 17.5h-12.4s11.9-41.7 12.4-44.5h10.8l5.1 18.6 5.1-18.6h10.8l9 32.1h20.9c1.6 0 3.4.5 3.9-1.6 0-.5 0-1.6-.5-2.3-.5-.5-1.1-.5-1.6-.5H734c-5.1 0-10.8-3.4-12.4-8.5-2.3-5.1-1.1-11.3 2.8-15.2 2.8-2.8 6.2-3.9 9.6-4.6h36.7l7.3 10.8 7.8-10.8 14 .9z"/>
  <path fill="#231F20" d="M829.6 613.8c.5-5.1 14-8.5 14-19.7 0-10.8-7.8-13.5-14-13.5-6.7 0-13.5 5.1-13.5 13.5v3.4h10.1v-2.3c0-2.8 1.1-4.6 3.9-4.6s3.4 1.6 3.4 4.6c0 6.7-11.3 9.6-15.8 17.5-2.3 3.4-2.3 10.8-2.3 10.8h28.2V615h-14v-1.2zm-409.2-53.6h152.7v62H420.4z"/>
  <path fill="#FFF" d="M561.3 569.3l-14.7 21.4 15.8 23.2h-14.7l-8.5-12.4-9 12.4h-14c.5-.5 15.8-23.2 15.8-23.2l-6.7-9H497c-1.1 0-2.8-.5-3.4 1.1 0 .5-.5 1.1 0 1.6 0 .5.5 1.1 1.1 1.1h12.4c5.1 0 10.1 3.4 12.4 7.8 2.3 3.9 1.6 9-.5 12.9-2.8 4.6-7.8 7.3-12.9 7.3h-31.6s-4.6-17.5-5.1-17.5l-5.1 17.5H453l-4.6-17.5-5.1 17.5h-12.4s11.9-41.7 12.4-44.5h10.8l5.1 18.6 5.1-18.6h10.8l9 32.1H505c1.6 0 3.4.5 3.9-1.6 0-.5 0-1.6-.5-2.3-.5-.6-1.1-.5-1.6-.5h-11.3c-5.1 0-10.8-3.4-12.4-8.5-2.3-5.1-1.1-11.3 2.8-15.2 2.8-2.8 6.2-3.9 9.6-4.6h36.7l7.3 10.8 7.8-10.8 14 .9z"/>
  <path fill="#231F20" d="M1139.6 605.3h15.8v-7.9h-15.8v-17.5h-7.9v17.5h-15.8v7.9h15.8v16.9h7.9m-213.6-62h152.7v62H926z"/>
  <path fill="#FFF" d="M1067.5 569.3l-14.7 21.4 15.8 23.2h-14.7l-8.5-12.4-9 12.4h-14.7c.5-.5 15.8-23.2 15.8-23.2l-6.7-9h-28.2c-1.1 0-2.8-.5-3.4 1.1 0 .5-.5 1.1 0 1.6 0 .5.5 1.1 1.1 1.1h12.4c5.1 0 10.1 3.4 12.4 7.8 2.3 3.9 1.6 9-.5 12.9-2.8 4.6-7.8 7.3-12.9 7.3h-31s-4.6-17.5-5.1-17.5l-5.1 17.5h-11.3l-4.6-17.5-5.1 17.5H937s11.9-41.7 12.4-44.5h10.8l5.1 18.6 5.1-18.6h10.8l9 32.1h20.9c1.6 0 3.4.5 3.9-1.6 0-.5 0-1.6-.5-2.3-.5-.5-1.1-.5-1.6-.5h-11.3c-5.1 0-10.8-3.4-12.4-8.5-2.3-5.1-1.1-11.3 2.8-15.2 2.8-2.8 6.2-3.9 9.6-4.6h36.7l7.3 10.8 7.8-10.8 14.1.9z"/>
  <path fill="#231F20" d="M1097.3 613.8c.5-5.1 14-8.5 14-19.7 0-10.8-7.8-13.5-14-13.5-6.7 0-13.5 5.1-13.5 13.5v3.4h10.1v-2.3c0-2.8 1.1-4.6 3.9-4.6s3.4 1.6 3.4 4.6c0 6.7-11.3 9.6-15.8 17.5-2.3 3.4-2.3 10.8-2.3 10.8h28.2V615h-14v-1.2z"/>
</svg>
