<?xml version="1.0" encoding="UTF-8" ?>
<!DOCTYPE svg PUBLIC "-//W3C//DTD SVG 1.1//EN" "http://www.w3.org/Graphics/SVG/1.1/DTD/svg11.dtd">
<svg width="1101pt" height="144pt" viewBox="0 0 1101 144" version="1.1" xmlns="http://www.w3.org/2000/svg">
<g id="#ae4226ff">
<path fill="#ae4226" opacity="1.00" d=" M 494.73 0.00 L 572.00 0.00 C 572.00 5.33 572.00 10.66 571.99 15.99 C 547.33 16.01 522.67 15.99 498.01 16.00 C 497.99 20.33 497.99 24.66 498.01 29.00 C 517.35 28.99 536.70 29.03 556.04 28.97 C 559.62 29.01 563.42 29.51 566.47 31.54 C 570.07 33.60 572.17 37.86 572.03 41.96 C 572.04 47.64 571.95 53.33 572.04 59.02 C 572.00 61.39 572.21 63.90 571.06 66.06 C 569.16 71.35 563.10 73.41 558.00 73.98 C 532.67 74.03 507.34 73.99 482.01 73.99 C 481.99 68.66 481.99 63.34 482.01 58.01 C 505.68 58.00 529.34 57.98 553.01 58.03 C 554.40 57.98 556.06 58.17 556.82 56.69 C 557.21 53.25 557.21 49.75 556.82 46.31 C 555.86 44.52 553.69 45.12 552.03 44.96 C 535.02 45.07 518.01 44.94 501.00 45.03 C 496.26 45.23 491.03 45.00 487.23 41.79 C 483.28 38.83 482.67 33.53 482.05 28.99 C 482.05 21.07 480.85 12.39 485.34 5.35 C 487.32 2.00 491.44 1.41 494.73 0.00 Z" />
<path fill="#ae4226" opacity="1.00" d=" M 593.73 0.00 L 671.00 0.00 C 671.00 5.33 671.00 10.66 670.99 15.99 C 646.33 16.01 621.67 15.99 597.01 16.01 C 596.99 30.00 596.99 44.00 597.01 57.99 C 615.95 57.95 634.91 58.10 653.85 57.93 C 656.77 57.72 655.87 54.02 656.09 52.01 C 655.76 49.76 656.88 46.68 654.69 45.17 C 644.14 44.72 633.56 45.16 623.01 44.99 C 622.99 39.66 622.99 34.33 623.01 29.01 C 639.00 29.00 655.00 28.99 670.99 29.01 C 671.00 44.00 671.01 59.00 670.99 73.99 C 646.65 74.03 622.31 73.96 597.96 74.03 C 594.32 73.99 590.56 73.41 587.33 71.67 C 582.76 68.39 581.30 62.35 580.99 57.03 C 580.97 44.34 581.05 31.65 580.96 18.97 C 580.86 14.03 581.90 8.88 584.76 4.77 C 586.85 1.85 590.65 1.36 593.73 0.00 Z" />
<path fill="#ae4226" opacity="1.00" d=" M 717.00 0.00 L 762.00 0.00 C 762.00 19.33 761.99 38.66 762.01 57.99 C 770.33 58.02 778.66 57.98 786.99 58.01 C 787.01 63.34 787.01 68.66 786.99 73.99 C 763.66 74.01 740.34 74.00 717.01 73.99 C 716.99 68.66 716.99 63.34 717.01 58.01 C 725.34 57.98 733.66 58.02 741.99 57.99 C 742.00 44.00 742.00 30.00 741.99 16.01 C 733.66 15.98 725.33 16.02 717.01 15.99 C 716.99 10.66 716.99 5.33 717.00 0.00 Z" />
<path fill="#ae4226" opacity="1.00" d=" M 808.70 0.00 L 877.31 0.00 C 880.06 0.96 883.18 1.51 885.30 3.69 C 888.80 6.68 890.18 11.48 890.04 15.96 C 889.98 29.98 889.98 44.01 890.04 58.04 C 890.16 62.28 888.97 66.82 885.82 69.82 C 882.86 73.08 878.19 73.75 874.03 74.01 C 853.67 74.02 833.31 73.97 812.95 74.03 C 808.22 73.94 802.93 73.12 799.68 69.33 C 796.95 67.07 795.89 63.47 795.98 60.03 C 796.03 44.35 795.97 28.66 796.00 12.98 C 796.33 6.23 802.27 1.04 808.70 0.00 M 812.00 16.01 C 812.00 30.00 812.00 44.00 812.00 58.00 C 832.67 58.00 853.33 58.00 873.99 58.00 C 874.00 44.00 874.00 30.00 874.00 16.00 C 853.33 16.00 832.67 16.00 812.00 16.01 Z" />
<path fill="#ae4226" opacity="1.00" d=" M 911.70 0.00 L 980.31 0.00 C 987.06 1.06 993.24 6.83 993.03 13.95 C 992.95 29.63 993.04 45.32 992.99 61.00 C 993.02 68.76 985.19 74.02 977.99 73.96 C 957.65 74.08 937.31 73.92 916.97 74.04 C 913.23 74.09 909.39 73.60 905.98 72.01 C 901.42 69.45 898.90 64.17 898.98 59.03 C 898.99 44.68 899.04 30.32 898.96 15.96 C 898.86 12.18 899.76 8.19 902.21 5.23 C 904.47 2.14 908.19 1.00 911.70 0.00 M 915.01 16.00 C 914.99 30.00 915.00 44.00 915.00 57.99 C 935.67 58.00 956.33 58.01 977.00 57.99 C 977.00 44.00 977.00 30.00 977.00 16.01 C 956.33 15.99 935.67 16.00 915.01 16.00 Z" />
<path fill="#ae4226" opacity="1.00" d=" M 1014.70 0.00 L 1083.30 0.00 C 1085.21 0.64 1087.16 1.20 1089.03 1.99 C 1093.80 3.70 1096.05 9.22 1096.03 13.97 C 1096.00 28.99 1095.96 44.01 1096.04 59.04 C 1096.11 61.86 1095.69 64.75 1094.25 67.22 C 1092.07 71.78 1086.66 73.47 1082.00 73.98 C 1062.00 74.06 1042.00 73.94 1022.00 74.03 C 1017.59 74.15 1013.02 73.93 1008.98 72.01 C 1004.08 69.28 1001.67 63.49 1001.96 58.04 C 1002.11 43.05 1001.85 28.06 1002.08 13.07 C 1002.48 6.25 1008.14 1.01 1014.70 0.00 M 1018.01 16.01 C 1017.99 30.00 1018.00 44.00 1018.00 57.99 C 1038.67 58.00 1059.33 58.00 1079.99 58.00 C 1080.00 44.00 1080.00 30.00 1079.99 16.00 C 1059.33 16.00 1038.67 16.00 1018.01 16.01 Z" />
<path fill="#ae4226" opacity="1.00" d=" M 680.01 29.00 C 689.67 29.00 699.33 28.99 708.99 29.01 C 709.00 34.34 709.00 39.67 708.99 44.99 C 699.33 45.00 689.67 45.00 680.01 45.00 C 679.99 39.66 679.99 34.33 680.01 29.00 Z" />
</g>
<g id="#000000ff">
<path fill="#000000" opacity="1.00" d=" M 366.74 21.84 C 371.47 6.61 389.83 -1.65 404.66 3.24 C 413.05 5.79 420.62 11.97 423.75 20.30 C 426.12 26.74 427.94 33.38 430.24 39.85 C 436.68 57.88 442.33 76.17 448.76 94.21 C 453.15 106.62 456.85 119.26 461.35 131.63 C 462.47 134.81 463.51 138.01 464.42 141.25 C 438.88 141.42 413.32 141.36 387.78 141.28 C 387.73 135.30 387.45 129.30 387.98 123.33 C 404.87 123.45 421.76 123.54 438.64 123.29 C 437.84 117.99 435.56 113.09 434.03 107.99 C 430.02 95.48 425.57 83.13 421.29 70.71 C 416.38 55.17 410.85 39.84 405.56 24.43 C 402.09 15.85 388.09 16.27 385.13 25.04 C 373.65 58.63 362.16 92.23 350.80 125.86 C 348.60 130.89 347.73 136.54 344.99 141.27 C 318.33 141.46 291.66 141.25 265.00 141.37 C 256.14 141.63 247.60 137.69 240.87 132.13 C 232.66 124.90 227.69 113.97 227.95 103.00 C 228.03 82.31 227.90 61.63 228.01 40.95 C 228.13 31.50 232.29 22.50 238.59 15.59 C 245.41 9.06 254.51 4.78 263.98 4.31 C 285.70 4.25 307.41 4.38 329.13 4.25 C 329.43 10.38 329.54 16.53 329.05 22.65 C 308.03 22.45 287.01 22.65 265.99 22.55 C 257.56 22.31 249.96 28.57 247.28 36.34 C 245.96 40.08 246.38 44.11 246.33 48.00 C 246.35 64.67 246.35 81.33 246.33 98.00 C 246.19 103.09 246.04 108.56 248.93 113.02 C 252.48 119.48 259.61 123.58 266.98 123.44 C 281.59 123.27 296.23 123.71 310.84 123.20 C 311.01 105.56 311.02 87.91 310.83 70.27 C 299.14 70.26 287.45 70.39 275.76 70.21 C 275.62 64.18 275.55 58.15 275.82 52.12 C 293.60 52.16 311.38 52.14 329.17 52.13 C 329.63 77.49 329.06 102.86 329.45 128.22 C 331.44 126.99 331.84 124.61 332.53 122.57 C 337.70 105.96 344.03 89.75 349.26 73.16 C 355.04 56.03 361.08 39.00 366.74 21.84 Z" />
<path fill="#000000" opacity="1.00" d=" M 15.96 14.95 C 24.29 8.05 35.11 4.00 45.97 4.27 C 66.03 4.33 86.08 4.32 106.14 4.27 C 106.48 10.39 106.51 16.53 106.11 22.65 C 86.07 22.45 66.03 22.65 45.99 22.53 C 32.77 21.96 20.32 32.89 18.79 45.97 C 16.98 58.41 25.75 70.89 37.63 74.42 C 47.77 77.71 58.78 73.83 68.90 77.14 C 76.97 80.11 82.51 88.36 82.62 96.90 C 82.33 104.90 77.41 112.72 69.99 115.94 C 65.33 118.26 60.00 117.50 54.99 117.59 C 36.66 117.61 18.33 117.47 0.00 117.66 L 0.00 99.60 C 17.00 99.49 34.00 99.57 51.00 99.56 C 54.75 99.49 58.56 99.92 62.28 99.22 C 63.95 98.27 63.46 96.11 63.81 94.53 C 55.83 93.65 47.77 94.77 39.82 93.55 C 26.75 92.22 14.44 84.66 7.49 73.50 C 3.43 67.48 1.40 60.41 0.00 53.37 L 0.00 44.66 C 2.08 33.43 6.98 22.33 15.96 14.95 Z" />
<path fill="#000000" opacity="1.00" d=" M 121.76 22.72 C 128.05 11.74 140.41 4.80 152.95 4.29 C 175.19 4.32 197.43 4.30 219.68 4.30 C 219.56 10.41 219.59 16.52 219.65 22.63 C 197.76 22.48 175.88 22.62 153.99 22.55 C 143.77 22.48 134.54 31.80 134.62 42.00 C 134.64 62.67 134.61 83.35 134.64 104.02 C 134.74 114.22 143.77 123.25 153.96 123.41 C 175.64 123.40 197.32 123.52 219.00 123.33 C 219.52 129.29 219.27 135.27 219.20 141.24 C 197.80 141.49 176.40 141.24 155.00 141.37 C 140.75 142.10 126.41 133.44 120.45 120.47 C 117.92 115.38 116.38 109.74 116.43 104.04 C 116.46 83.35 116.46 62.65 116.43 41.95 C 116.38 35.21 118.44 28.55 121.76 22.72 Z" />
<path fill="#000000" opacity="1.00" d=" M 389.10 30.12 C 390.04 27.35 391.45 23.47 395.01 23.61 C 398.26 22.98 400.51 25.87 401.34 28.64 C 404.93 39.43 409.02 50.04 412.30 60.93 C 418.57 79.88 425.57 98.60 431.27 117.72 C 416.81 117.80 402.34 117.66 387.87 117.79 C 387.51 112.46 387.88 107.11 387.56 101.77 C 385.53 103.03 385.19 105.47 384.48 107.55 C 380.98 118.90 376.91 130.05 373.00 141.26 C 365.84 141.39 358.68 141.41 351.53 141.24 C 359.70 115.78 368.70 90.57 377.20 65.21 C 380.87 53.41 385.43 41.92 389.10 30.12 M 392.18 85.13 C 390.81 89.12 389.10 93.03 388.40 97.23 C 393.21 97.52 398.03 97.53 402.84 97.16 C 400.53 90.32 398.56 83.35 395.72 76.71 C 393.97 79.25 393.20 82.26 392.18 85.13 Z" />
<path fill="#000000" opacity="1.00" d=" M 24.43 46.24 C 25.51 37.57 32.54 29.92 41.21 28.43 C 45.12 27.94 49.07 28.23 53.00 28.19 C 70.74 28.19 88.47 28.21 106.21 28.17 C 106.43 34.34 106.52 40.51 106.11 46.67 C 88.74 46.48 71.37 46.67 54.01 46.57 C 50.23 46.53 46.46 46.60 42.70 46.93 C 42.95 48.41 42.49 50.18 43.46 51.45 C 53.40 53.43 63.81 50.57 73.64 53.54 C 88.12 57.43 100.24 69.19 104.39 83.63 C 107.97 94.70 106.49 107.03 101.41 117.39 C 95.43 129.31 83.68 137.80 70.79 140.76 C 65.59 141.76 60.26 141.25 55.00 141.34 C 43.35 141.42 31.69 141.18 20.04 141.44 C 13.38 142.15 6.69 142.05 0.00 141.99 L 0.00 123.37 C 19.33 123.51 38.67 123.35 58.00 123.46 C 62.51 123.51 67.09 123.03 71.30 121.33 C 81.70 117.30 88.68 106.13 87.97 95.03 C 87.15 85.57 81.21 76.43 72.33 72.70 C 64.05 68.87 54.75 70.77 45.97 70.25 C 40.40 70.11 34.82 68.16 30.78 64.24 C 25.65 59.90 23.63 52.76 24.43 46.24 Z" />
<path fill="#000000" opacity="1.00" d=" M 140.24 42.31 C 140.15 34.17 147.76 26.93 155.98 28.16 C 177.21 28.27 198.45 28.12 219.68 28.24 C 219.55 34.37 219.59 40.51 219.65 46.64 C 201.42 46.52 183.20 46.65 164.97 46.56 C 163.46 46.70 161.72 46.39 160.44 47.37 C 159.17 48.47 159.14 50.27 158.67 51.76 C 174.32 52.64 190.02 51.85 205.69 52.20 C 205.61 58.14 205.60 64.09 205.71 70.04 C 199.48 70.54 193.23 70.20 187.00 70.29 C 171.35 70.23 155.71 70.42 140.07 70.20 C 140.18 60.90 139.83 51.60 140.24 42.31 Z" />
<path fill="#000000" opacity="1.00" d=" M 251.82 42.96 C 251.64 35.71 257.34 28.22 264.95 28.22 C 286.36 28.15 307.77 28.24 329.18 28.17 C 329.39 34.34 329.54 40.52 329.07 46.67 C 311.04 46.52 292.99 46.60 274.96 46.61 C 272.50 46.34 270.11 48.51 270.31 51.01 C 270.18 65.02 270.30 79.03 270.25 93.03 C 270.01 95.63 271.18 98.69 274.02 99.23 C 278.39 99.80 282.84 99.48 287.23 99.23 C 287.19 97.55 287.15 95.88 287.12 94.21 C 283.34 94.14 279.57 94.18 275.79 94.05 C 275.58 87.98 275.61 81.90 275.77 75.83 C 285.61 75.74 295.45 75.71 305.29 75.86 C 305.40 89.83 305.58 103.82 305.19 117.79 C 291.78 117.61 278.36 117.91 264.96 117.65 C 260.38 117.71 256.41 114.63 253.94 111.00 C 251.80 107.40 251.73 103.06 251.75 99.00 C 251.85 80.32 251.71 61.64 251.82 42.96 Z" />
<path fill="#000000" opacity="1.00" d=" M 140.07 75.86 C 155.71 75.66 171.36 75.83 187.00 75.77 C 193.24 75.85 199.48 75.54 205.71 76.02 C 205.60 81.97 205.61 87.93 205.69 93.88 C 190.00 94.54 174.28 93.92 158.57 94.20 C 158.62 97.14 161.04 99.70 164.05 99.54 C 182.43 99.67 200.81 99.37 219.19 99.67 C 219.26 105.67 219.53 111.68 219.00 117.67 C 197.02 117.44 175.03 117.66 153.05 117.56 C 146.04 117.25 140.43 110.74 140.20 103.88 C 139.87 94.55 140.16 85.20 140.07 75.86 Z" />
<path fill="#000000" opacity="1.00" d=" M 487.44 90.43 C 494.21 82.56 507.02 81.73 515.31 87.65 C 518.60 90.16 520.68 93.99 521.25 98.08 C 519.59 98.08 517.94 98.07 516.29 98.04 C 515.45 95.40 514.60 92.47 512.18 90.84 C 505.77 86.35 495.51 87.32 490.93 93.98 C 487.61 98.45 486.90 104.26 487.30 109.67 C 487.68 113.88 488.51 118.35 491.47 121.56 C 496.23 127.21 505.27 128.35 511.47 124.48 C 514.16 122.84 515.30 119.77 516.29 116.95 C 517.94 116.92 519.59 116.91 521.25 116.92 C 520.52 122.73 516.39 127.89 510.87 129.83 C 504.74 132.02 497.58 131.42 491.96 128.10 C 486.95 125.16 483.85 119.69 482.84 114.08 C 481.11 106.07 482.32 97.01 487.44 90.43 Z" />
<path fill="#000000" opacity="1.00" d=" M 936.48 100.52 C 938.11 91.76 945.88 84.22 954.95 83.90 C 961.22 83.38 967.99 84.86 972.63 89.35 C 975.09 91.65 976.06 94.97 976.87 98.14 C 975.08 98.05 973.30 97.97 971.54 97.89 C 970.76 94.39 968.91 90.89 965.39 89.53 C 958.97 87.03 950.72 87.55 945.74 92.74 C 941.98 96.82 940.80 102.63 940.99 108.03 C 940.96 112.87 942.25 117.88 945.38 121.66 C 952.31 129.04 966.05 128.28 972.05 120.10 C 973.26 117.64 972.45 114.71 972.20 112.10 C 968.35 112.16 964.50 112.22 960.66 112.09 C 960.64 110.69 960.64 109.30 960.66 107.90 C 966.37 107.81 972.10 107.74 977.82 107.97 C 977.78 115.33 977.80 122.68 977.80 130.04 C 976.62 130.03 975.44 130.03 974.28 130.02 C 973.57 128.48 972.90 126.93 972.22 125.39 C 962.99 134.58 945.42 132.42 939.14 120.85 C 935.41 114.82 935.27 107.30 936.48 100.52 Z" />
<path fill="#000000" opacity="1.00" d=" M 762.01 84.83 C 763.87 84.92 765.73 85.01 767.61 85.12 C 772.20 98.12 777.39 110.91 782.29 123.80 C 782.61 123.75 783.26 123.65 783.58 123.60 C 788.40 110.71 793.30 97.85 798.12 84.96 C 800.01 84.91 801.90 84.88 803.81 84.87 C 797.78 99.88 791.61 114.83 785.79 129.92 C 783.84 129.98 781.90 130.03 779.97 130.06 C 773.86 115.03 767.90 99.94 762.01 84.83 Z" />
<path fill="#000000" opacity="1.00" d=" M 806.89 84.89 C 808.58 84.86 810.29 84.86 812.01 84.88 C 812.01 86.63 812.01 88.37 812.00 90.12 C 810.28 90.14 808.58 90.14 806.89 90.11 C 806.85 88.37 806.85 86.63 806.89 84.89 Z" />
<path fill="#000000" opacity="1.00" d=" M 841.00 84.88 C 842.69 84.86 844.39 84.86 846.10 84.89 C 846.20 99.96 846.21 115.04 846.10 130.11 C 844.42 130.13 842.76 130.13 841.11 130.13 C 841.03 129.21 840.87 127.38 840.79 126.46 C 837.75 128.37 834.82 131.17 830.99 131.04 C 826.07 131.23 821.18 128.47 819.08 123.98 C 816.62 118.47 816.33 112.03 818.24 106.32 C 819.97 101.35 824.46 96.95 829.97 96.88 C 833.93 96.25 837.59 98.00 840.92 99.92 C 841.01 94.91 840.98 89.89 841.00 84.88 M 823.45 106.42 C 821.65 110.71 821.93 115.56 822.95 120.01 C 823.74 123.72 827.23 126.59 830.99 126.79 C 834.91 126.46 838.90 124.32 840.81 120.79 C 841.31 115.53 840.81 110.24 841.03 104.97 C 838.47 102.83 835.44 100.94 831.97 101.10 C 828.37 100.70 824.72 103.07 823.45 106.42 Z" />
<path fill="#000000" opacity="1.00" d=" M 682.04 89.88 C 683.71 89.86 685.38 89.86 687.06 89.89 C 687.12 92.47 687.20 95.05 687.30 97.63 C 688.88 97.76 690.47 97.88 692.08 98.01 C 692.08 99.35 692.09 100.70 692.11 102.04 C 690.47 102.12 688.84 102.20 687.22 102.29 C 687.13 107.54 687.16 112.79 687.14 118.05 C 687.19 120.28 687.05 122.67 688.16 124.69 C 689.41 125.99 691.46 125.63 693.09 126.04 C 693.07 127.35 693.07 128.66 693.07 129.98 C 690.12 129.90 686.84 130.52 684.25 128.77 C 682.05 127.30 682.13 124.41 682.02 122.07 C 681.87 115.47 682.13 108.87 681.88 102.27 C 680.58 102.18 679.29 102.10 678.01 102.02 C 678.01 100.67 678.01 99.33 678.02 97.99 C 679.29 97.90 680.58 97.82 681.88 97.73 C 681.93 95.11 682.00 92.50 682.04 89.88 Z" />
<path fill="#000000" opacity="1.00" d=" M 536.28 97.30 C 540.51 96.54 545.28 96.43 549.04 98.82 C 552.88 101.25 555.72 105.41 556.13 109.99 C 556.70 115.14 556.54 120.91 553.17 125.14 C 547.34 133.41 533.04 132.90 527.81 124.25 C 524.95 119.44 524.82 113.44 525.95 108.09 C 526.98 102.91 531.19 98.63 536.28 97.30 M 538.31 101.34 C 534.28 102.34 531.23 105.89 530.91 110.05 C 530.15 115.31 530.35 122.48 535.77 125.25 C 540.95 128.84 549.11 125.61 550.47 119.47 C 551.45 115.61 551.41 111.45 550.30 107.63 C 548.90 102.69 543.08 100.19 538.31 101.34 Z" />
<path fill="#000000" opacity="1.00" d=" M 568.09 101.21 C 571.00 99.04 574.04 96.21 578.01 96.87 C 581.86 96.46 584.33 99.79 586.23 102.61 C 589.14 99.71 592.47 96.28 597.00 96.85 C 601.78 96.59 605.02 101.04 605.39 105.41 C 606.30 113.54 605.53 121.76 605.84 129.93 C 604.12 129.98 602.40 130.01 600.69 130.02 C 600.33 122.83 600.85 115.63 600.44 108.45 C 600.06 106.02 599.99 102.73 597.41 101.56 C 593.27 100.14 588.22 103.02 586.95 107.06 C 586.55 114.67 586.89 122.31 586.84 129.93 C 585.12 129.98 583.40 130.01 581.69 130.02 C 581.10 121.74 582.40 113.34 580.89 105.14 C 579.50 97.80 567.80 101.84 567.85 107.95 C 567.67 115.28 567.83 122.61 567.84 129.93 C 566.11 129.98 564.39 130.00 562.69 130.02 C 562.51 119.30 562.48 108.57 562.70 97.85 C 564.36 97.88 566.04 97.92 567.72 97.98 C 567.81 98.79 567.99 100.41 568.09 101.21 Z" />
<path fill="#000000" opacity="1.00" d=" M 618.17 101.27 C 620.41 99.81 622.42 97.75 625.10 97.12 C 628.96 96.55 633.44 96.67 636.39 99.61 C 641.69 104.01 642.26 111.64 641.29 117.99 C 640.60 124.05 636.16 129.96 629.87 130.85 C 625.59 131.89 621.58 129.79 617.90 127.92 C 617.73 132.93 617.77 137.93 617.85 142.94 C 616.12 142.98 614.40 143.01 612.69 143.03 C 612.51 127.97 612.49 112.90 612.70 97.84 C 614.35 97.88 616.02 97.92 617.70 97.98 C 617.81 98.80 618.05 100.45 618.17 101.27 M 617.96 107.14 C 617.51 112.39 617.88 117.67 617.86 122.94 C 621.80 126.02 627.60 128.47 632.19 125.23 C 637.01 121.49 637.07 114.53 636.04 109.04 C 635.62 105.04 632.29 100.92 628.01 101.13 C 623.94 101.08 619.66 103.43 617.96 107.14 Z" />
<path fill="#000000" opacity="1.00" d=" M 697.26 104.24 C 702.09 95.20 716.59 94.13 722.84 102.18 C 725.78 105.78 726.16 110.64 726.17 115.11 C 717.64 115.47 709.05 114.66 700.57 115.48 C 699.42 122.63 707.54 128.51 714.18 126.30 C 716.74 125.88 718.51 123.94 720.00 121.98 C 721.07 120.04 723.48 121.13 725.24 120.91 C 722.99 132.58 706.02 134.21 699.06 125.97 C 694.24 119.92 694.14 111.09 697.26 104.24 M 704.21 103.22 C 701.75 104.94 701.12 108.03 700.73 110.80 C 707.48 110.84 714.24 110.92 721.00 110.73 C 720.20 108.16 719.72 105.23 717.65 103.32 C 713.77 100.57 708.14 100.56 704.21 103.22 Z" />
<path fill="#000000" opacity="1.00" d=" M 736.57 102.15 C 739.60 99.32 742.72 96.00 747.33 96.76 C 747.33 98.19 747.33 99.62 747.34 101.05 C 743.13 100.80 738.15 102.04 736.56 106.44 C 736.11 114.29 736.69 122.17 736.31 130.02 C 734.58 130.01 732.87 129.98 731.16 129.93 C 731.24 119.28 731.21 108.62 731.18 97.96 C 732.85 97.92 734.52 97.90 736.22 97.88 C 736.33 99.31 736.45 100.73 736.57 102.15 Z" />
<path fill="#000000" opacity="1.00" d=" M 861.52 97.53 C 866.84 96.14 873.27 96.56 877.39 100.62 C 881.41 104.24 882.42 109.93 882.42 115.10 C 873.83 115.24 865.24 115.12 856.65 115.16 C 856.60 118.83 857.73 122.93 861.12 124.87 C 864.83 127.43 870.00 127.30 873.65 124.72 C 874.95 123.57 875.75 121.95 877.16 120.93 C 878.51 120.86 879.88 120.84 881.27 120.89 C 879.13 132.38 862.78 134.12 855.63 126.38 C 851.10 121.93 850.74 114.92 851.77 109.01 C 852.50 103.72 856.46 99.14 861.52 97.53 M 860.20 103.22 C 857.75 104.94 857.12 108.03 856.72 110.80 C 863.53 110.85 870.34 110.90 877.16 110.76 C 876.56 107.84 875.69 104.62 873.05 102.90 C 869.17 100.61 863.94 100.67 860.20 103.22 Z" />
<path fill="#000000" opacity="1.00" d=" M 896.28 97.30 C 900.52 96.53 905.28 96.46 909.07 98.81 C 913.04 101.11 915.67 105.46 916.13 109.99 C 916.69 114.93 916.51 120.35 913.64 124.61 C 908.18 133.14 893.72 133.23 888.24 124.66 C 882.52 115.74 884.94 100.35 896.28 97.30 M 898.33 101.36 C 894.90 102.16 892.20 104.92 891.31 108.30 C 890.00 113.34 890.18 119.28 893.48 123.54 C 896.39 126.35 901.08 127.85 904.87 125.87 C 908.41 124.40 910.95 120.87 911.12 117.03 C 911.30 113.19 911.69 108.92 909.42 105.57 C 907.08 102.01 902.44 100.33 898.33 101.36 Z" />
<path fill="#000000" opacity="1.00" d=" M 983.74 106.09 C 984.31 100.50 989.71 97.08 994.96 96.90 C 999.57 96.72 1004.75 96.37 1008.64 99.35 C 1011.54 101.59 1011.89 105.55 1012.00 108.94 C 1012.05 116.00 1012.01 123.07 1011.99 130.13 C 1010.34 130.13 1008.70 130.11 1007.08 130.09 C 1006.96 129.29 1006.73 127.69 1006.61 126.89 C 1002.81 129.24 998.58 131.31 993.99 131.06 C 989.34 131.29 984.41 128.48 983.07 123.87 C 982.31 119.76 984.28 115.01 988.29 113.36 C 994.01 110.40 1000.58 110.93 1006.81 110.69 C 1006.62 107.73 1007.18 103.51 1003.77 102.16 C 999.20 100.60 992.80 100.25 989.64 104.60 C 988.39 106.78 985.78 106.04 983.74 106.09 M 991.03 116.14 C 987.84 117.74 986.73 122.92 989.95 125.06 C 995.28 128.31 1002.85 126.36 1006.67 121.65 C 1007.02 119.20 1006.80 116.73 1006.72 114.28 C 1001.48 114.16 995.84 113.66 991.03 116.14 Z" />
<path fill="#000000" opacity="1.00" d=" M 1025.40 101.36 C 1028.37 99.46 1031.11 96.38 1034.99 96.87 C 1039.07 96.37 1041.93 99.59 1044.01 102.62 C 1046.77 99.95 1049.75 96.56 1053.99 96.82 C 1058.72 96.26 1062.69 100.46 1062.92 105.00 C 1063.41 113.32 1063.11 121.67 1063.10 130.00 C 1061.39 130.02 1059.69 130.02 1058.01 130.00 C 1057.90 122.65 1058.09 115.29 1057.96 107.94 C 1057.90 105.48 1057.36 102.17 1054.58 101.43 C 1049.63 100.19 1043.35 104.54 1044.14 109.94 C 1044.13 116.63 1044.24 123.31 1044.10 130.00 C 1042.39 130.01 1040.69 130.02 1039.01 130.01 C 1038.91 122.65 1039.09 115.29 1038.96 107.94 C 1038.90 105.48 1038.36 102.16 1035.57 101.42 C 1030.63 100.20 1024.35 104.54 1025.14 109.94 C 1025.13 116.63 1025.24 123.31 1025.10 130.00 C 1023.39 130.02 1021.69 130.02 1020.01 130.00 C 1019.97 119.29 1019.96 108.58 1020.01 97.87 C 1021.64 97.87 1023.28 97.88 1024.93 97.89 C 1025.04 98.76 1025.28 100.49 1025.40 101.36 Z" />
<path fill="#000000" opacity="1.00" d=" M 1079.28 97.31 C 1084.20 96.34 1089.94 96.56 1093.84 100.14 C 1098.27 103.70 1099.45 109.70 1099.41 115.11 C 1090.82 115.23 1082.23 115.13 1073.65 115.16 C 1073.72 117.92 1074.10 120.83 1075.96 123.02 C 1079.04 126.50 1084.41 127.73 1088.68 125.81 C 1091.19 125.07 1092.23 122.45 1094.14 120.91 C 1095.53 120.85 1096.94 120.85 1098.37 120.90 C 1096.31 131.81 1081.16 133.99 1073.67 127.34 C 1068.26 123.03 1067.61 115.35 1068.77 109.00 C 1069.53 103.45 1073.87 98.70 1079.28 97.31 M 1077.21 103.22 C 1074.75 104.94 1074.12 108.03 1073.73 110.80 C 1080.53 110.85 1087.34 110.90 1094.15 110.76 C 1093.56 107.84 1092.69 104.62 1090.05 102.90 C 1086.16 100.62 1080.94 100.67 1077.21 103.22 Z" />
<path fill="#000000" opacity="1.00" d=" M 646.90 97.89 C 648.59 97.86 650.28 97.86 651.99 97.88 C 652.14 105.26 651.80 112.64 652.12 120.01 C 652.09 123.35 654.50 126.69 658.04 126.74 C 662.18 126.75 666.86 124.65 668.67 120.75 C 669.15 113.14 668.62 105.50 668.90 97.89 C 670.59 97.86 672.28 97.86 673.99 97.88 C 674.03 108.63 674.03 119.38 673.99 130.13 C 672.31 130.13 670.64 130.11 668.97 130.08 C 668.87 128.73 668.77 127.38 668.68 126.03 C 664.88 129.07 660.26 132.10 655.14 130.83 C 650.35 130.30 647.00 125.67 646.95 121.04 C 646.69 113.33 646.85 105.60 646.90 97.89 Z" />
<path fill="#000000" opacity="1.00" d=" M 806.90 97.89 C 808.59 97.86 810.28 97.86 811.99 97.88 C 812.03 108.59 812.03 119.30 811.99 130.00 C 810.29 130.02 808.59 130.01 806.90 130.00 C 806.79 119.30 806.79 108.59 806.90 97.89 Z" />
</g>
</svg>
