<?xml version="1.0" encoding="UTF-8" standalone="no"?>
<!-- Generator: Adobe Illustrator 13.0.0, SVG Export Plug-In . SVG Version: 6.00 Build 14948)  -->

<svg
   xmlns:ns="&amp;ns_sfw;"
   xmlns:dc="http://purl.org/dc/elements/1.1/"
   xmlns:cc="http://creativecommons.org/ns#"
   xmlns:rdf="http://www.w3.org/1999/02/22-rdf-syntax-ns#"
   xmlns:svg="http://www.w3.org/2000/svg"
   xmlns="http://www.w3.org/2000/svg"
   xmlns:sodipodi="http://sodipodi.sourceforge.net/DTD/sodipodi-0.dtd"
   xmlns:inkscape="http://www.inkscape.org/namespaces/inkscape"
   version="1.2"
   id="Layer_3"
   x="0px"
   y="0px"
   width="574.771"
   height="249.774"
   viewBox="0 0 574.77097 249.774"
   xml:space="preserve"
   inkscape:version="0.91 r13725"
   sodipodi:docname="controller.svg"><defs
     id="defs30" /><sodipodi:namedview
     pagecolor="#ffffff"
     bordercolor="#666666"
     borderopacity="1"
     objecttolerance="10"
     gridtolerance="10"
     guidetolerance="10"
     inkscape:pageopacity="0"
     inkscape:pageshadow="2"
     inkscape:window-width="1920"
     inkscape:window-height="1017"
     id="namedview28"
     showgrid="false"
     fit-margin-top="0"
     fit-margin-left="0"
     fit-margin-right="0"
     fit-margin-bottom="0"
     inkscape:zoom="0.48145317"
     inkscape:cx="287.49351"
     inkscape:cy="118.099"
     inkscape:window-x="-8"
     inkscape:window-y="-8"
     inkscape:window-maximized="1"
     inkscape:current-layer="Layer_3" /><metadata
     id="metadata55"><rdf:RDF><cc:Work
         rdf:about=""><dc:format>image/svg+xml</dc:format><dc:type
           rdf:resource="http://purl.org/dc/dcmitype/StillImage" /><dc:title></dc:title></cc:Work></rdf:RDF><ns:sfw><ns:slices /><ns:sliceSourceBounds
         x="-7231"
         y="-7652"
         width="16383"
         height="16383"
         bottomLeftOrigin="true" /></ns:sfw></metadata><path
     id="path3"
     d="M 7.78,0 C 3.498,0 0,3.499 0,7.779 l 0,234.245 c 0,4.282 3.498,7.75 7.78,7.75 l 559.24,0 c 4.282,0 7.751,-3.468 7.751,-7.75 l 0,-234.245 C 574.771,3.498 571.301,0 567.018,0 L 7.78,0 l 0,0 z m 0,1.886 559.24,0 c 3.264,0 5.865,2.631 5.865,5.893 l 0,234.245 c 0,3.263 -2.602,5.864 -5.865,5.864 l -559.24,0 c -3.264,0 -5.894,-2.604 -5.894,-5.865 l 0,-234.245 C 1.887,4.516 4.517,1.885 7.78,1.886 l 0,0 z"
     inkscape:connector-curvature="0"
     style="fill:#f4f4f4" /><path
     id="path5"
     d="m 21.925,40.99 c -2.666,0 -4.833,2.196 -4.833,4.863 l 0,181.023 c 0,2.665 2.167,4.862 4.833,4.862 l 530.452,0 c 2.665,0 4.832,-2.197 4.832,-4.862 l 0,-181.023 c 0,-2.667 -2.167,-4.863 -4.832,-4.863 l -530.452,0 0,0 z m 0,1.886 530.452,0 c 1.644,0 2.947,1.33 2.947,2.977 l 0,181.023 c 0,1.646 -1.304,2.976 -2.947,2.976 l -530.452,0 c -1.647,0 -2.947,-1.33 -2.947,-2.976 l 0,-181.023 c 0,-1.647 1.301,-2.977 2.947,-2.977 z"
     inkscape:connector-curvature="0"
     style="fill:#f4f4f4" /><path
     id="path7"
     d="m 196.762,146.398 c -5.901,0 -10.698,4.797 -10.698,10.696 l 0,37.572 c 0,5.9 4.798,10.727 10.698,10.727 l 138.117,0 c 5.566,0 9.99,-4.346 10.489,-9.782 l 0.207,0 0,-0.944 0,-37.572 c 0,-5.899 -4.797,-10.696 -10.696,-10.696 l -138.117,0 0,-0.001 z m 0,1.886 138.117,0 c 4.882,0 8.81,3.93 8.81,8.81 l 0,36.63 0,0.942 c 0,4.88 -3.928,8.84 -8.81,8.84 l -138.117,0 c -4.881,0 -8.811,-3.96 -8.811,-8.84 l 0,-37.572 c 0,-4.88 3.929,-8.81 8.811,-8.81 z"
     inkscape:connector-curvature="0"
     style="fill:#f4f4f4" /><path
     id="path9"
     d="m 195.555,152.734 c -2.397,0 -4.361,1.965 -4.361,4.36 l 0,37.571 c 0,2.398 1.965,4.362 4.361,4.362 l 140.531,0 c 2.396,0 4.361,-1.965 4.361,-4.362 l 0,-37.57 c 0,-2.396 -1.965,-4.36 -4.361,-4.36 l -140.531,0 z m 0,1.887 140.531,0 c 1.377,0 2.475,1.1 2.475,2.474 l 0,37.571 c 0,1.379 -1.098,2.477 -2.475,2.477 l -140.531,0 c -1.376,0 -2.476,-1.099 -2.476,-2.477 l 0,-37.571 c 0.001,-1.374 1.098,-2.474 2.476,-2.474 z"
     inkscape:connector-curvature="0"
     style="fill:#f4f4f4" /><path
     id="path11"
     d="m 193.838,110.772 c -4.821,0 -8.752,3.93 -8.752,8.752 l 0,11.728 c 0,4.823 3.931,8.722 8.752,8.722 l 143.952,0 c 4.824,0 8.753,-3.899 8.753,-8.722 l 0,-11.728 c 0,-4.822 -3.929,-8.752 -8.753,-8.752 l -143.952,0 z m 0,1.886 143.952,0 c 3.807,0 6.867,3.063 6.867,6.866 l 0,11.728 c 0,3.802 -3.061,6.835 -6.867,6.835 l -143.952,0 c -3.802,0 -6.866,-3.034 -6.866,-6.835 l 0,-11.728 c 0,-3.803 3.065,-6.866 6.866,-6.866 z"
     inkscape:connector-curvature="0"
     style="fill:#f4f4f4" /><path
     id="path13"
     d="m 193.838,76.116 c -4.821,0 -8.752,3.931 -8.752,8.752 l 0,11.729 c 0,4.822 3.931,8.752 8.752,8.752 l 143.952,0 c 4.824,0 8.753,-3.931 8.753,-8.752 l 0,-11.731 c 0,-4.82 -3.929,-8.751 -8.753,-8.751 l -143.952,0 0,0.001 z m 0,1.886 143.952,0 c 3.807,0 6.867,3.065 6.867,6.866 l 0,11.729 c 0,3.803 -3.061,6.866 -6.867,6.866 l -143.952,0 c -3.802,0 -6.866,-3.063 -6.866,-6.866 l 0,-11.729 c 0,-3.801 3.065,-6.866 6.866,-6.866 z"
     inkscape:connector-curvature="0"
     style="fill:#f4f4f4" /><path
     id="path15"
     d="m 185.087,41.933 0,17.563 c 0,4.821 3.932,8.752 8.752,8.752 l 143.953,0 c 4.824,0 8.753,-3.932 8.753,-8.752 l 0,-17.563 -1.886,0 0,17.563 c 0,3.803 -3.063,6.866 -6.867,6.866 l -143.953,0 c -3.801,0 -6.866,-3.064 -6.866,-6.866 l 0,-17.563 -1.886,0 z"
     inkscape:connector-curvature="0"
     style="fill:#f4f4f4" /><path
     id="path17"
     d="m 193.838,214.706 c -4.821,0 -8.752,3.93 -8.752,8.752 l 0,7.396 1.886,0 0,-7.396 c 0,-3.802 3.065,-6.865 6.866,-6.865 l 143.952,0 c 3.807,0 6.867,3.063 6.867,6.865 l 0,7.338 1.886,0 0,-7.338 c 0,-4.821 -3.929,-8.752 -8.753,-8.752 l -143.952,0 z"
     inkscape:connector-curvature="0"
     style="fill:#f4f4f4" /><path
     id="path19"
     d="m 376.454,143.955 c -2.934,0 -5.333,2.399 -5.333,5.332 l 0,53.19 c 0,2.936 2.399,5.335 5.333,5.335 l 53.19,0 c 2.936,0 5.333,-2.399 5.333,-5.335 l 0,-53.19 c 0,-2.933 -2.397,-5.332 -5.333,-5.332 l -53.19,0 z m 0,1.886 53.19,0 c 1.916,0 3.447,1.534 3.447,3.446 l 0,53.19 c 0,1.916 -1.531,3.448 -3.447,3.448 l -53.19,0 c -1.912,0 -3.447,-1.532 -3.447,-3.448 l 0,-53.19 c -0.001,-1.912 1.535,-3.446 3.447,-3.446 z"
     inkscape:connector-curvature="0"
     style="fill:#f4f4f4" /><path
     id="circle21"
     d="m 403.038,149.821 c -14.391,0 -26.049,11.689 -26.049,26.078 0,14.388 11.658,26.078 26.049,26.078 14.388,0 26.077,-11.69 26.077,-26.078 0,-14.388 -11.69,-26.078 -26.077,-26.078 z m 0,1.886 c 13.37,0 24.19,10.822 24.19,24.192 0,13.37 -10.82,24.192 -24.19,24.192 -13.369,0 -24.163,-10.822 -24.163,-24.192 0,-13.37 10.792,-24.192 24.163,-24.192 z"
     inkscape:connector-curvature="0"
     style="fill:#f4f4f4" /><path
     id="path23"
     d="m 450.628,143.955 c -2.935,0 -5.334,2.399 -5.334,5.332 l 0,53.19 c 0,2.936 2.401,5.335 5.334,5.335 l 53.19,0 c 2.934,0 5.335,-2.399 5.335,-5.335 l 0,-53.19 c 0,-2.933 -2.401,-5.332 -5.335,-5.332 l -53.19,0 z m 0,1.886 53.19,0 c 1.915,0 3.446,1.534 3.446,3.446 l 0,53.19 c 0,1.916 -1.531,3.448 -3.446,3.448 l -53.19,0 c -1.915,0 -3.446,-1.532 -3.446,-3.448 l 0,-53.19 c 0,-1.912 1.531,-3.446 3.446,-3.446 z"
     inkscape:connector-curvature="0"
     style="fill:#f4f4f4" /><path
     id="circle25"
     d="m 477.231,149.821 c -14.39,0 -26.079,11.689 -26.079,26.078 0,14.388 11.689,26.078 26.079,26.078 14.388,0 26.048,-11.69 26.048,-26.078 0,-14.388 -11.66,-26.078 -26.048,-26.078 z m 0,1.886 c 13.369,0 24.161,10.822 24.161,24.192 0,13.37 -10.792,24.192 -24.161,24.192 -13.37,0 -24.193,-10.822 -24.193,-24.192 0,-13.37 10.823,-24.192 24.193,-24.192 z"
     inkscape:connector-curvature="0"
     style="fill:#f4f4f4" /><path
     id="polyline27"
     d="m 148.991,3.536 0,6.041 0,0.943 0.943,0 22.13,0 0.943,0 0,-0.943 0,-6.041 -1.886,0 0,5.098 -20.245,0 0,-5.098 -1.885,0 z"
     inkscape:connector-curvature="0"
     style="fill:#f4f4f4" /><g
     id="g29"
     transform="translate(-11.601,-43.455)"><path
       d="m 225.773,229.146 -0.004,0 0,-0.941 0,-0.944 0.004,0 28.788,0 c 4.553,-0.01 8.238,-3.691 8.247,-8.248 l 0,0 c -0.009,-4.555 -3.693,-8.237 -8.247,-8.247 l 0,0 -28.791,0 c -4.555,0.01 -8.24,3.692 -8.249,8.247 l 0,0 c 0.008,4.557 3.693,8.238 8.249,8.248 l 0,0 0,0.944 0,0.941 c -5.597,0 -10.133,-4.535 -10.133,-10.134 l 0,0 c 0,-5.598 4.536,-10.133 10.133,-10.133 l 0,0 28.792,0 c 5.596,0 10.131,4.535 10.131,10.133 l 0,0 c 0,5.599 -4.536,10.134 -10.131,10.134 l 0,0 -28.789,0 0,0 z"
       id="path18"
       inkscape:connector-curvature="0"
       style="fill:#f4f4f4" /><path
       d="m 300.273,229.146 0,-0.941 0,-0.944 28.792,0 c 4.552,-0.01 8.238,-3.691 8.246,-8.248 l 0,0 c -0.008,-4.555 -3.694,-8.237 -8.246,-8.247 l 0,0 -28.792,0 c -4.555,0.01 -8.239,3.692 -8.248,8.247 l 0,0 c 0.009,4.557 3.695,8.238 8.248,8.248 l 0,0 0,0.944 0,0.941 c -5.595,0 -10.133,-4.535 -10.133,-10.134 l 0,0 c 0,-5.598 4.536,-10.133 10.133,-10.133 l 0,0 28.792,0 c 5.594,0 10.131,4.535 10.131,10.133 l 0,0 c 0,5.599 -4.537,10.134 -10.131,10.134 l 0,0 -28.792,0 0,0 z"
       id="path20"
       inkscape:connector-curvature="0"
       style="fill:#f4f4f4" /></g><path
     id="path35"
     d="m 84.751,88.876 c -5.361,0.002 -9.722,4.363 -9.724,9.724 l 0,23.045 -23.045,0 c -5.361,0.001 -9.722,4.363 -9.724,9.724 l 0,33.033 c 0.002,5.361 4.363,9.721 9.724,9.723 l 23.044,0 0,23.046 c 0.002,5.361 4.363,9.722 9.724,9.725 l 33.004,0 c 5.361,-0.002 9.723,-4.363 9.724,-9.725 l 0,-23.046 23.074,0 c 5.362,-0.001 9.722,-4.361 9.724,-9.723 l 0,-33.033 c -0.002,-5.362 -4.363,-9.722 -9.724,-9.724 l -23.073,0 0,-23.045 c 0,-5.358 -4.366,-9.72 -9.722,-9.722 l -33.004,0 -0.002,-0.002 z m 0,1.886 33.004,0 c 4.344,0.002 7.836,3.495 7.838,7.838 l 0,23.987 0,0.942 0.943,0 24.017,0 c 4.344,0.002 7.837,3.494 7.839,7.838 l 0,33.034 c -0.002,4.344 -3.496,7.838 -7.839,7.839 l -24.017,0 -0.943,0 0,0.942 0,23.987 c -0.002,4.345 -3.496,7.837 -7.838,7.839 l -33.004,0 c -4.344,-0.003 -7.836,-3.495 -7.839,-7.839 l 0,-23.987 0,-0.942 -0.943,0 -23.987,0 c -4.344,-0.002 -7.836,-3.496 -7.838,-7.839 l 0,-33.034 c 0.001,-4.344 3.496,-7.836 7.838,-7.838 l 23.987,0 0.942,0 0,-0.942 0,-23.987 c 0.003,-4.343 3.496,-7.836 7.84,-7.838 z m 0,3.949 c -2.125,0.003 -3.856,1.766 -3.861,3.89 l 0,25.489 c 0,0 0,0.028 0,0.06 0,0.016 0,0.004 0,0.029 -0.009,0.567 -0.06,1.137 -0.471,1.857 -0.339,0.615 -1.274,1.186 -1.769,1.296 l -0.029,0.03 c -0.449,0.119 -0.822,0.146 -1.238,0.147 l -25.401,0 c -2.124,0.004 -3.886,1.735 -3.89,3.86 l 0,33.033 c 0.004,2.125 1.766,3.856 3.89,3.86 l 25.519,0 0.03,0 c 0.004,0 0.031,0 0.059,0 0.733,0 1.776,0.313 2.417,1.032 0.694,0.772 0.856,1.678 0.854,2.445 l 0,25.431 c 0.004,2.125 1.766,3.86 3.89,3.861 l 33.004,0 c 2.125,-0.003 3.885,-1.737 3.89,-3.861 l 0,-25.431 c -0.009,-0.884 0.358,-1.879 1.001,-2.505 0.647,-0.644 1.588,-0.978 2.447,-0.973 l 25.459,0 c 2.124,-0.004 3.856,-1.735 3.86,-3.86 l 0,-0.027 0,-33.006 c -0.003,-2.125 -1.736,-3.858 -3.86,-3.86 l -25.459,0 c -0.583,-0.006 -1.149,-0.067 -1.857,-0.442 -0.585,-0.294 -1.261,-1.154 -1.415,-1.709 l 0,-0.029 c -0.141,-0.452 -0.169,-0.876 -0.169,-1.311 l 0,-25.402 c -0.004,-2.124 -1.766,-3.888 -3.891,-3.889 l -33.005,0 -0.005,-0.015 z m 0,1.886 33.004,0 c 1.106,0 2.002,0.896 2.004,2.004 l 0,25.401 0,0.03 c 0.002,0.541 0.059,1.151 0.265,1.827 0.002,0.008 -0.002,0.021 0,0.03 0.326,1.148 1.158,2.225 2.328,2.828 l 0,0.03 c 0.006,0.004 0.023,-0.003 0.03,0 1.043,0.542 2.038,0.641 2.711,0.648 l 25.459,0 c 1.107,10e-4 1.972,0.865 1.974,1.974 l 0,33.006 c -0.001,1.107 -0.865,2 -1.974,2.002 l -25.459,0 c -1.341,-0.007 -2.71,0.515 -3.743,1.533 l -0.03,0 c -1.046,1.029 -1.576,2.442 -1.562,3.831 l 0,25.431 c -0.002,1.107 -0.898,1.975 -2.004,1.976 l -33.003,0 c -1.106,-0.001 -2.001,-0.867 -2.004,-1.976 l 0,-25.431 c 0.003,-1.074 -0.242,-2.505 -1.326,-3.713 -1.091,-1.227 -2.616,-1.651 -3.831,-1.651 -0.021,0 -0.055,-0.001 -0.088,0 l -0.03,0 -25.49,0 c -1.11,-0.002 -2.002,-0.865 -2.004,-1.974 l 0,-33.034 c 0.002,-1.108 0.897,-1.972 2.004,-1.974 l 25.402,0 c 0.49,-0.001 1.077,-0.042 1.709,-0.206 0.008,-0.002 0.021,0.002 0.029,0 1.099,-0.254 2.265,-1.001 2.947,-2.24 0.628,-1.098 0.697,-2.127 0.707,-2.771 l 0,-0.028 c -10e-4,-0.074 0,-0.06 0,-0.06 l 0,-25.489 c 0.003,-1.106 0.868,-2.002 1.975,-2.004 l 0,0 z"
     inkscape:connector-curvature="0"
     style="fill:#f4f4f4" /><path
     id="polygon37"
     d="m 69.457,133.252 -1.621,1.621 -12.317,12.347 -0.678,0.649 0.678,0.678 12.317,12.347 1.621,1.593 0,-2.271 0,-3.152 7.602,0 0.943,0 0,-0.942 0,-16.475 0,-0.941 -0.943,0 -7.602,0 0,-3.184 0,-2.27 0,0 z m -1.887,4.567 0,1.827 0,0.944 0.943,0 7.602,0 0,14.585 -7.602,0 -0.943,0 0,0.944 0,1.797 -10.048,-10.051 10.048,-10.043 0,-0.003 z"
     inkscape:connector-curvature="0"
     style="fill:#f4f4f4" /><path
     id="circle39"
     d="m 101.257,135.704 c -6.709,0 -12.17,5.461 -12.17,12.17 0,6.708 5.462,12.17 12.17,12.17 6.708,0 12.17,-5.462 12.17,-12.17 0,-6.709 -5.462,-12.17 -12.17,-12.17 z m 0,1.887 c 5.689,0 10.284,4.594 10.284,10.283 0,5.688 -4.594,10.284 -10.284,10.284 -5.69,0 -10.284,-4.596 -10.284,-10.284 0.001,-5.689 4.595,-10.283 10.284,-10.283 z"
     inkscape:connector-curvature="0"
     style="fill:#f4f4f4" /><path
     id="polygon41"
     d="m 92.087,171.123 0,0.942 0,7.602 -3.182,0 -2.269,0 1.622,1.622 12.347,12.347 0.648,0.648 0.678,-0.648 12.348,-12.347 1.59,-1.622 -2.268,0 -3.153,0 0,-7.602 0,-0.942 -0.943,0 -16.474,0 -0.944,0 0,0 z m 1.886,1.885 14.588,0 0,7.604 0,0.941 0.942,0 1.827,0 -10.079,10.078 -10.079,-10.078 1.856,0 0.943,0 0,-0.941 0.002,-7.604 0,0 z"
     inkscape:connector-curvature="0"
     style="fill:#f4f4f4" /><path
     id="polygon43"
     d="m 133.045,133.252 0,2.27 0,3.184 -7.604,0 -0.942,0 0,0.941 0,16.474 0,0.942 0.943,0 7.604,0 0,3.152 0,2.271 1.621,-1.593 12.347,-12.346 0.648,-0.678 -0.648,-0.649 -12.347,-12.347 -1.622,-1.621 0,0 z m 1.886,4.539 10.079,10.079 -10.079,10.077 0,-1.826 0,-0.944 -0.943,0 -7.603,0 0,-14.586 7.603,0 0.943,0 0,-0.943 0,-1.857 0,0 z"
     inkscape:connector-curvature="0"
     style="fill:#f4f4f4" /><path
     id="polygon45"
     d="m 101.257,101.455 -0.648,0.678 -12.347,12.316 -1.621,1.621 2.269,0 3.183,0 0,7.602 0,0.943 0.942,0 16.473,0 0.943,0 0,-0.943 0,-7.602 3.154,0 2.269,0 -1.591,-1.621 -12.348,-12.316 -0.678,-0.678 0,0 z m 0,2.682 10.048,10.049 -1.797,0 -0.943,0 0,0.942 0,7.603 -14.587,0 0,-7.603 0,-0.942 -0.943,0 -1.827,0 10.049,-10.049 0,0 z"
     inkscape:connector-curvature="0"
     style="fill:#f4f4f4" /></svg>