<?xml version="1.0" encoding="UTF-8" standalone="no"?>
<svg
   xmlns:dc="http://purl.org/dc/elements/1.1/"
   xmlns:cc="http://creativecommons.org/ns#"
   xmlns:rdf="http://www.w3.org/1999/02/22-rdf-syntax-ns#"
   xmlns:svg="http://www.w3.org/2000/svg"
   xmlns="http://www.w3.org/2000/svg"
   xmlns:sodipodi="http://sodipodi.sourceforge.net/DTD/sodipodi-0.dtd"
   xmlns:inkscape="http://www.inkscape.org/namespaces/inkscape"
   viewBox="0 0 30 30"
   height="30"
   width="30"
   xml:space="preserve"
   version="1.1"
   id="svg2"
   inkscape:version="0.91 r13725"
   sodipodi:docname="icon_empty.svg"><sodipodi:namedview
     pagecolor="#ffffff"
     bordercolor="#666666"
     borderopacity="1"
     objecttolerance="10"
     gridtolerance="10"
     guidetolerance="10"
     inkscape:pageopacity="0"
     inkscape:pageshadow="2"
     inkscape:window-width="1920"
     inkscape:window-height="1027"
     id="namedview102"
     showgrid="false"
     inkscape:zoom="15.526498"
     inkscape:cx="23.360389"
     inkscape:cy="16.460866"
     inkscape:window-x="-8"
     inkscape:window-y="-8"
     inkscape:window-maximized="1"
     inkscape:current-layer="svg2" /><metadata
     id="metadata8"><rdf:RDF><cc:Work
         rdf:about=""><dc:format>image/svg+xml</dc:format><dc:type
           rdf:resource="http://purl.org/dc/dcmitype/StillImage" /><dc:title></dc:title></cc:Work></rdf:RDF></metadata><defs
     id="defs6"><clipPath
       id="clipPath16"
       clipPathUnits="userSpaceOnUse"><path
         id="path18"
         d="m 0,98.876 415.051,0 L 415.051,0 0,0 0,98.876 Z"
         inkscape:connector-curvature="0" /></clipPath></defs><g
     transform="matrix(1.1393693,0,0,-1.1393433,-115.09905,41.859439)"
     id="g10"><g
       id="g12"><g
         clip-path="url(#clipPath16)"
         id="g14"><g
           transform="translate(325.4809,27.8692)"
           id="g20" /><g
           transform="translate(262.4153,23.8423)"
           id="g24" /><g
           transform="translate(184.9135,19.2226)"
           id="g28" /><g
           transform="translate(176.8505,26.8505)"
           id="g32" /><g
           transform="translate(103.5875,24.9362)"
           id="g36"><path
             id="path38"
             style="fill:#666666;fill-opacity:1;fill-rule:nonzero;stroke:none"
             d="m 0,0 c 0,0 2.222,3.279 6.658,3.617 l 0,1.19 C 1.745,4.412 -2.511,0.251 -2.511,0.251 c 0,0 2.41,-6.968 9.169,-7.606 l 0,1.265 C 1.698,-5.466 0,0 0,0 m 6.658,-3.576 0,-1.158 c -3.748,0.668 -4.789,4.565 -4.789,4.565 0,0 1.8,1.994 4.789,2.318 l 0,-1.271 c -0.002,0 -0.003,0.001 -0.005,0.001 -1.569,0.188 -2.795,-1.278 -2.795,-1.278 0,0 0.687,-2.467 2.8,-3.177 m 0,10.577 0,-2.194 c 0.145,0.011 0.289,0.02 0.434,0.026 5.587,0.188 9.227,-4.582 9.227,-4.582 0,0 -4.181,-5.084 -8.537,-5.084 -0.399,0 -0.772,0.037 -1.124,0.099 l 0,-1.356 c 0.301,-0.039 0.612,-0.061 0.936,-0.061 4.054,0 6.985,2.07 9.823,4.52 0.47,-0.377 2.397,-1.294 2.793,-1.696 -2.699,-2.259 -8.988,-4.08 -12.553,-4.08 -0.344,0 -0.674,0.021 -0.999,0.052 l 0,-1.906 15.406,0 0,16.262 -15.406,0 z m 0,-4.852 0,1.468 c 0.143,0.011 0.287,0.018 0.434,0.023 4.017,0.126 6.653,-3.452 6.653,-3.452 0,0 -2.847,-3.954 -5.899,-3.954 -0.44,0 -0.833,0.071 -1.188,0.19 l 0,4.454 c 1.564,-0.189 1.879,-0.88 2.819,-2.447 l 2.092,1.763 c 0,0 -1.527,2.002 -4.1,2.002 -0.28,0 -0.548,-0.019 -0.811,-0.047"
             inkscape:connector-curvature="0" /></g><g
           transform="translate(191.9128,23.5871)"
           id="g42" /><g
           transform="translate(207.8126,28.6745)"
           id="g48" /><g
           transform="translate(217.6112,22.2742)"
           id="g52" /><g
           transform="translate(224.2928,23.5871)"
           id="g56" /><g
           transform="translate(241.5351,23.0947)"
           id="g60" /><g
           transform="translate(337.9953,19.2359)"
           id="g64" /><g
           transform="translate(343.6921,22.2194)"
           id="g68" /><g
           transform="translate(347.6879,23.7412)"
           id="g72" /><g
           transform="translate(364.9302,23.2488)"
           id="g76" /><g
           transform="translate(368.5382,21.1158)"
           id="g80" /><g
           transform="translate(378.9055,28.1569)"
           id="g84" /><g
           transform="translate(381.8422,23.6666)"
           id="g88" /><g
           transform="translate(391.8068,23.2488)"
           id="g92" /><g
           transform="translate(399.1446,22.2194)"
           id="g96" /><g
           transform="translate(403.1404,23.7412)"
           id="g100" /><g
           transform="translate(49.2783,80.3708)"
           id="g104" /><g
           transform="translate(27.7399,25.0017)"
           id="g112" /><g
           transform="translate(71.9656,27.745)"
           id="g116" /><g
           transform="translate(141.9123,51.5405)"
           id="g120" /><g
           transform="translate(163.8518,55.7011)"
           id="g124" /><g
           transform="translate(202.5959,55.7011)"
           id="g128" /><g
           transform="translate(234.3157,37.6006)"
           id="g132" /><g
           transform="translate(271.5998,74.0175)"
           id="g136" /><g
           transform="translate(345.0305,39.2754)"
           id="g142" /><g
           transform="translate(359.7307,74.0175)"
           id="g146" /><g
           transform="translate(395.718,67.1015)"
           id="g150" /><g
           transform="translate(143.0364,52.0185)"
           id="g154" /><g
           transform="translate(164.9758,56.1792)"
           id="g158" /><g
           transform="translate(203.72,56.1792)"
           id="g162" /><g
           transform="translate(235.4397,38.0786)"
           id="g166" /><g
           transform="translate(272.7238,74.4956)"
           id="g170" /><g
           transform="translate(346.1545,39.7534)"
           id="g176" /><g
           transform="translate(360.8547,74.4956)"
           id="g180" /><g
           transform="translate(396.842,67.5796)"
           id="g184" /><g
           transform="translate(50.2305,80.6901)"
           id="g188" /><g
           transform="translate(28.6921,25.321)"
           id="g196" /><g
           transform="translate(72.9178,28.0643)"
           id="g200" /></g></g></g></svg>