<?xml version="1.0" encoding="utf-8"?>
<!-- Generator: Adobe Illustrator 19.0.0, SVG Export Plug-In . SVG Version: 6.00 Build 0)  -->
<svg version="1.1" baseProfile="tiny"
	 id="svg3004" xmlns:rdf="http://www.w3.org/1999/02/22-rdf-syntax-ns#" xmlns:dc="http://purl.org/dc/elements/1.1/" xmlns:inkscape="http://www.inkscape.org/namespaces/inkscape" xmlns:sodipodi="http://sodipodi.sourceforge.net/DTD/sodipodi-0.dtd" xmlns:cc="http://creativecommons.org/ns#" xmlns:svg="http://www.w3.org/2000/svg" sodipodi:docname="icon_empty.svg" inkscape:version="0.91 r13725"
	 xmlns="http://www.w3.org/2000/svg" xmlns:xlink="http://www.w3.org/1999/xlink" x="0px" y="0px" viewBox="-290 382 30 30"
	 xml:space="preserve">
<sodipodi:namedview  inkscape:cy="14.770215" inkscape:cx="27.076271" inkscape:zoom="23.6" bordercolor="#666666" objecttolerance="10" borderopacity="1" pagecolor="#ffffff" guidetolerance="10" gridtolerance="10" showgrid="false" id="namedview150" inkscape:current-layer="svg3004" inkscape:window-maximized="1" inkscape:window-y="-8" inkscape:pageopacity="0" inkscape:window-x="-8" inkscape:window-height="1027" inkscape:window-width="1920" inkscape:pageshadow="2">
	</sodipodi:namedview>
<g>
	<polygon fill="#4D4D4D" points="-269.1,399.2 -269.1,400.5 -268.3,400.5 -268.3,401.2 -266.9,401.2 -266.9,404 -267.7,404 
		-267.7,406.2 -273.2,406.2 -273.2,404.8 -274.6,404.8 -274.6,404 -277.4,404 -280.2,404 -280.2,404.8 -281.6,404.8 -281.6,406.2 
		-287.1,406.2 -287.1,404 -287.9,404 -287.9,401.2 -286.5,401.2 -286.5,400.5 -285.7,400.5 -285.7,399.9 -286.5,399.9 -286.5,399.2 
		-287.1,399.2 -287.1,398.5 -287.9,398.5 -287.9,397.8 -288.5,397.8 -288.5,397.1 -289.3,397.1 -289.3,393.5 -288.5,393.5 
		-288.5,392.8 -287.9,392.8 -287.9,392.1 -286.5,392.1 -286.5,391.4 -285.7,391.4 -285.7,390.7 -284.4,390.7 -284.4,388.6 
		-283.7,388.6 -283.7,388 -282.3,388 -282.3,387.2 -281.6,387.2 -281.6,386.6 -280.2,386.6 -280.2,385.8 -277.4,385.8 -274.6,385.8 
		-274.6,386.6 -273.2,386.6 -273.2,387.2 -272.5,387.2 -272.5,388 -271.1,388 -271.1,388.6 -270.4,388.6 -270.4,390.7 -269.1,390.7 
		-269.1,391.4 -268.3,391.4 -268.3,392.1 -266.9,392.1 -266.9,392.8 -266.3,392.8 -266.3,393.5 -265.5,393.5 -265.5,397.1 
		-266.3,397.1 -266.3,397.8 -266.9,397.8 -266.9,398.5 -267.7,398.5 -267.7,399.2 	"/>
	<polygon fill="#666666" points="-283.7,388.6 -283.7,388 -283,388 -283,390.7 -284.4,390.7 -284.4,388.6 	"/>
	<polygon fill="#666666" points="-281.6,407.6 -281.6,406.2 -287.8,406.2 -287.8,406.8 -289.3,406.8 -289.3,407.4 -289.9,407.4 
		-289.9,408.2 -283,408.2 -283,407.6 	"/>
	<polygon fill="#808080" points="-277.4,389.3 -276.8,389.3 -276.8,388.7 -276,388.7 -276,388 -274.6,388 -274.6,388.6 
		-273.9,388.6 -273.9,390.1 -274.6,390.1 -274.6,391.5 -272.6,391.5 -272.6,388.7 -271.8,388.7 -271.8,394.3 -273.2,394.3 
		-273.2,393.5 -274,393.5 -274,392.9 -277.4,392.9 -280.8,392.9 -280.8,393.5 -281.6,393.5 -281.6,394.3 -283,394.3 -283,388.7 
		-282.2,388.7 -282.2,391.5 -280.2,391.5 -280.2,390.1 -280.9,390.1 -280.9,388.6 -280.2,388.6 -280.2,388 -278.8,388 -278.8,388.7 
		-278,388.7 -278,389.3 	"/>
	<rect x="-278" y="391.5" fill="#4D4D4D" width="1.4" height="0.6"/>
	<rect x="-278.8" y="390" fill="#4D4D4D" width="0.8" height="0.9"/>
	<rect x="-276.6" y="390" fill="#4D4D4D" width="0.8" height="0.9"/>
	<polygon fill="#666666" points="-271.1,388.6 -271.1,388 -271.8,388 -271.8,390.7 -270.4,390.7 -270.4,388.6 	"/>
	<polygon fill="#808080" points="-277.4,393.7 -274,393.7 -274,394.3 -273.2,394.3 -273.2,394.9 -272.6,394.9 -272.6,395.7 
		-274,395.7 -274,396.3 -277.4,396.3 -280.8,396.3 -280.8,395.7 -282.2,395.7 -282.2,394.9 -281.6,394.9 -281.6,394.3 -280.8,394.3 
		-280.8,393.7 	"/>
	<polygon fill="#666666" points="-284.4,395.7 -283.6,395.7 -283.6,396.3 -282.2,396.3 -282.2,397.1 -284.4,397.1 -284.4,396.4 
		-285.1,396.4 -285.1,395.7 -285.7,395.7 -285.7,394.3 -285,394.3 -285,394.9 -284.4,394.9 	"/>
	<polygon fill="#666666" points="-282.2,397.1 -281.6,397.1 -281.6,396.3 -280.2,396.3 -280.2,397.1 -278,397.1 -278,398.5 
		-278.8,398.5 -278.8,399.1 -278,399.1 -278,401.2 -280.9,401.2 -280.9,400.5 -285.7,400.5 -285.7,399.9 -282.3,399.9 -282.3,399.1 
		-280.9,399.1 -280.9,398.5 -281.6,398.5 -281.6,397.8 -282.2,397.8 	"/>
	<rect x="-280.9" y="397.7" fill="#4D4D4D" width="0.8" height="0.8"/>
	<rect x="-280.9" y="399.1" fill="#4D4D4D" width="0.8" height="0.8"/>
	<polygon fill="#666666" points="-273.2,407.6 -273.2,406.2 -267,406.2 -267,406.8 -265.5,406.8 -265.5,407.4 -264.9,407.4 
		-264.9,408.2 -271.8,408.2 -271.8,407.6 	"/>
	<polygon fill="#666666" points="-277.4,401.2 -276.8,401.2 -276.8,401.9 -273.2,401.9 -273.2,402.6 -273.9,402.6 -273.9,403.4 
		-277.4,403.4 -280.2,403.4 -280.2,402.6 -281.6,402.6 -281.6,401.9 -278,401.9 -278,401.2 	"/>
	<polygon fill="#666666" points="-270.4,395.7 -271.2,395.7 -271.2,396.3 -272.6,396.3 -272.6,397.1 -270.4,397.1 -270.4,396.4 
		-269.7,396.4 -269.7,395.7 -269.1,395.7 -269.1,394.3 -269.8,394.3 -269.8,394.9 -270.4,394.9 	"/>
	<polygon fill="#666666" points="-272.6,397.1 -273.2,397.1 -273.2,396.3 -274.6,396.3 -274.6,397.1 -276.8,397.1 -276.8,398.5 
		-276,398.5 -276,399.1 -276.8,399.1 -276.8,401.2 -273.9,401.2 -273.9,400.5 -269.1,400.5 -269.1,399.9 -272.5,399.9 -272.5,399.1 
		-273.9,399.1 -273.9,398.5 -273.2,398.5 -273.2,397.8 -272.6,397.8 	"/>
	<rect x="-274.6" y="397.7" fill="#4D4D4D" width="0.8" height="0.8"/>
	<rect x="-274.6" y="399.1" fill="#4D4D4D" width="0.8" height="0.8"/>
</g>
</svg>
