<?xml version="1.0" encoding="UTF-8" standalone="no"?>
<svg
   xmlns:dc="http://purl.org/dc/elements/1.1/"
   xmlns:cc="http://creativecommons.org/ns#"
   xmlns:rdf="http://www.w3.org/1999/02/22-rdf-syntax-ns#"
   xmlns:svg="http://www.w3.org/2000/svg"
   xmlns="http://www.w3.org/2000/svg"
   viewBox="0 0 465.83624 210.21124"
   height="210.21124"
   width="465.83624"
   xml:space="preserve"
   version="1.1"
   id="svg2"><metadata
     id="metadata8"><rdf:RDF><cc:Work
         rdf:about=""><dc:format>image/svg+xml</dc:format><dc:type
           rdf:resource="http://purl.org/dc/dcmitype/StillImage" /><dc:title></dc:title></cc:Work></rdf:RDF></metadata><defs
     id="defs6"><clipPath
       id="clipPath16"
       clipPathUnits="userSpaceOnUse"><path
         id="path18"
         d="m 0,168.169 372.669,0 L 372.669,0 0,0 0,168.169 Z" /></clipPath></defs><g
     transform="matrix(1.25,0,0,-1.25,0,210.21125)"
     id="g10"><g
       id="g12"><g
         clip-path="url(#clipPath16)"
         id="g14"><g
           transform="translate(349.8346,165.3346)"
           id="g20"><path
             id="path22"
             style="fill:#63242b;fill-opacity:1;fill-rule:nonzero;stroke:none"
             d="M 0,0 -0.562,0 -49.5,0 -277.312,0 -327,0 c -11,0 -20,-9 -20,-20 l 0,-59.333 0,-63.167 c 0,-11 9,-20 20,-20 l 327,0 c 11,0 20,9 20,20 L 20,-20 C 20,-9 11,0 0,0" /></g><g
           transform="translate(347.7721,157.3346)"
           id="g24"><path
             id="path26"
             style="fill:#ae2740;fill-opacity:1;fill-rule:nonzero;stroke:none"
             d="m 0,0 -320.437,0 c -11,0 -20,-9 -20,-20 l 0,-113.5 c 0,-11 9,-20 20,-20 l 317.999,0 c 11.001,0 20,9 20,20 l 0,113.5 C 17.562,-9 6.896,0 0,0" /></g><g
           transform="translate(351.9179,88.668)"
           id="g28"><path
             id="path30"
             style="fill:#cbb48f;fill-opacity:1;fill-rule:nonzero;stroke:none"
             d="m 0,0 -198.833,0 c -2.875,0 -2.5,2.792 -2.5,2.792 l 0,47.208 c 0,2.2 -1.8,4 -4,4 L -330,54 c -2.2,0 -4,-1.8 -4,-4 l 0,-120 c 0,-2.2 1.8,-4 4,-4 l 121.333,0 3.334,0 L 0,-74 c 2.2,0 4,1.8 4,4 L 4,-4 C 4,-1.8 2.2,0 0,0" /></g><path
           id="path32"
           style="fill:#444443;fill-opacity:1;fill-rule:nonzero;stroke:none"
           d="m 355.752,40.835 -337.917,0 0,3 337.917,0 0,-3 z" /><path
           id="path34"
           style="fill:#444443;fill-opacity:1;fill-rule:nonzero;stroke:none"
           d="m 355.752,33.668 -337.917,0 0,3 337.917,0 0,-3 z" /><g
           transform="translate(208.918,27.3346)"
           id="g36"><path
             id="path38"
             style="fill:#ae2740;fill-opacity:1;fill-rule:nonzero;stroke:none"
             d="m 0,0 -66,0 c -10.45,0 -19,8.55 -19,19 l 0,0 c 0,10.45 8.55,19 19,19 l 66,0 c 10.45,0 19,-8.55 19,-19 l 0,0 C 19,8.55 10.45,0 0,0" /></g><g
           transform="translate(285.7513,46.5846)"
           id="g40"><path
             id="path42"
             style="fill:#ae2740;fill-opacity:1;fill-rule:nonzero;stroke:none"
             d="m 0,0 c 0,-11.69 -9.477,-21.167 -21.167,-21.167 -11.69,0 -21.166,9.477 -21.166,21.167 0,11.69 9.476,21.167 21.166,21.167 C -9.477,21.167 0,11.69 0,0" /></g><g
           transform="translate(334.8346,46.5846)"
           id="g44"><path
             id="path46"
             style="fill:#ae2740;fill-opacity:1;fill-rule:nonzero;stroke:none"
             d="m 0,0 c 0,-11.874 -9.626,-21.5 -21.5,-21.5 -11.874,0 -21.5,9.626 -21.5,21.5 0,11.874 9.626,21.5 21.5,21.5 C -9.626,21.5 0,11.874 0,0" /></g><g
           transform="translate(283.0846,46.5846)"
           id="g48"><path
             id="path50"
             style="fill:#444443;fill-opacity:1;fill-rule:nonzero;stroke:none"
             d="m 0,0 c 0,-10.217 -8.283,-18.5 -18.5,-18.5 -10.217,0 -18.5,8.283 -18.5,18.5 0,10.217 8.283,18.5 18.5,18.5 C -8.283,18.5 0,10.217 0,0" /></g><g
           transform="translate(331.8346,46.5846)"
           id="g52"><path
             id="path54"
             style="fill:#444443;fill-opacity:1;fill-rule:nonzero;stroke:none"
             d="m 0,0 c 0,-10.217 -8.283,-18.5 -18.5,-18.5 -10.217,0 -18.5,8.283 -18.5,18.5 0,10.217 8.283,18.5 18.5,18.5 C -8.283,18.5 0,10.217 0,0" /></g><g
           transform="translate(104.1681,77.4596)"
           id="g56"><path
             id="path58"
             style="fill:#ae2740;fill-opacity:1;fill-rule:nonzero;stroke:none"
             d="m 0,0 -18.167,0 0,19.25 c 0,1.1 -0.9,2 -2,2 l -28.667,0 c -1.099,0 -2,-0.9 -2,-2 L -50.834,0 -69,0 c -1.1,0 -2,-0.9 -2,-2 l 0,-26.833 c 0,-1.1 0.9,-2 2,-2 l 18.166,0 0,-19.25 c 0,-1.1 0.901,-2 2,-2 l 28.667,0 c 1.1,0 2,0.9 2,2 l 0,19.25 18.167,0 c 1.1,0 2,0.9 2,2 L 2,-2 C 2,-0.9 1.1,0 0,0" /></g><g
           transform="translate(101.1679,72.4596)"
           id="g60"><path
             id="path62"
             style="fill:#444443;fill-opacity:1;fill-rule:nonzero;stroke:none"
             d="m 0,0 -20.167,0 0,21.25 -22.666,0 0,-21.25 -20.167,0 0,-20.833 20.167,0 0,-21.25 22.666,0 0,21.25 20.167,0 L 0,0 Z" /></g><g
           transform="translate(161.4179,42.0013)"
           id="g64"><path
             id="path66"
             style="fill:#444443;fill-opacity:1;fill-rule:nonzero;stroke:none"
             d="m 0,0 -19.333,0 c -2.475,0 -4.5,2.025 -4.5,4.5 l 0,0 c 0,2.475 2.025,4.5 4.5,4.5 L 0,9 C 2.475,9 4.5,6.975 4.5,4.5 l 0,0 C 4.5,2.025 2.475,0 0,0" /></g><g
           transform="translate(209.4179,42.0013)"
           id="g68"><path
             id="path70"
             style="fill:#444443;fill-opacity:1;fill-rule:nonzero;stroke:none"
             d="m 0,0 -19.333,0 c -2.475,0 -4.5,2.025 -4.5,4.5 l 0,0 c 0,2.475 2.025,4.5 4.5,4.5 L 0,9 C 2.475,9 4.5,6.975 4.5,4.5 l 0,0 C 4.5,2.025 2.475,0 0,0" /></g><g
           transform="translate(267.1185,76.9557)"
           id="g72"><path
             id="path74"
             style="fill:#444443;fill-opacity:1;fill-rule:nonzero;stroke:none"
             d="m 0,0 c -0.281,0.082 -0.893,0.123 -1.834,0.123 l -1.669,0 0,-2.297 1.914,0 c 0.745,0 1.218,0.018 1.418,0.053 0.308,0.047 0.558,0.161 0.751,0.343 0.193,0.181 0.29,0.424 0.29,0.729 0,0.258 -0.074,0.477 -0.224,0.656 C 0.497,-0.213 0.282,-0.082 0,0" /></g><g
           transform="translate(266.473,78.5377)"
           id="g76"><path
             id="path78"
             style="fill:#444443;fill-opacity:1;fill-rule:nonzero;stroke:none"
             d="M 0,0 C 0.354,0.035 0.632,0.138 0.835,0.308 1.037,0.478 1.139,0.701 1.139,0.979 1.139,1.244 1.051,1.46 0.876,1.626 0.702,1.792 0.442,1.893 0.098,1.928 -0.107,1.947 -0.696,1.957 -1.67,1.957 l -1.187,0 0,-1.986 1.355,0 C -0.696,-0.029 -0.196,-0.02 0,0" /></g><g
           transform="translate(269.8011,74.6852)"
           id="g80"><path
             id="path82"
             style="fill:#444443;fill-opacity:1;fill-rule:nonzero;stroke:none"
             d="m 0,0 c -0.216,-0.369 -0.512,-0.664 -0.887,-0.885 -0.375,-0.22 -0.837,-0.356 -1.386,-0.407 -0.345,-0.031 -1.176,-0.051 -2.495,-0.059 l -3.486,0 0,8.59 4.094,0 c 0.81,0 1.415,-0.028 1.813,-0.085 C -1.948,7.098 -1.593,6.979 -1.278,6.8 -0.964,6.62 -0.702,6.381 -0.492,6.082 -0.282,5.783 -0.178,5.448 -0.178,5.077 -0.178,4.675 -0.307,4.306 -0.565,3.97 -0.824,3.634 -1.175,3.382 -1.617,3.214 -0.993,3.062 -0.513,2.802 -0.178,2.435 0.157,2.067 0.325,1.636 0.325,1.14 0.325,0.749 0.217,0.369 0,0 m 0.577,8.566 -11.083,0 c -3.14,0 -5.708,-2.569 -5.708,-5.708 0,-3.14 2.568,-5.709 5.708,-5.709 l 11.083,0 c 3.14,0 5.709,2.569 5.709,5.709 0,3.139 -2.569,5.708 -5.709,5.708" /></g><g
           transform="translate(312.4264,76.733)"
           id="g84"><path
             id="path86"
             style="fill:#444443;fill-opacity:1;fill-rule:nonzero;stroke:none"
             d="M 0,0 2.795,0 1.383,3.188 0,0 Z" /></g><g
           transform="translate(316.7789,73.3346)"
           id="g88"><path
             id="path90"
             style="fill:#444443;fill-opacity:1;fill-rule:nonzero;stroke:none"
             d="m 0,0 -0.895,1.951 -4.093,0 L -5.834,0 l -2.193,0 3.989,8.59 2.186,0 L 2.249,0 0,0 Z m 2.097,9.917 -11.083,0 c -3.14,0 -5.708,-2.569 -5.708,-5.709 0,-3.139 2.568,-5.708 5.708,-5.708 l 11.083,0 c 3.14,0 5.709,2.569 5.709,5.708 0,3.14 -2.569,5.709 -5.709,5.709" /></g><g
           transform="translate(36.1463,119.1686)"
           id="g92"><path
             id="path94"
             style="fill:#444443;fill-opacity:1;fill-rule:nonzero;stroke:none"
             d="m 0,0 c 0.264,-0.142 0.755,-0.289 1.473,-0.439 0.189,-0.039 0.283,-0.189 0.283,-0.454 0,-0.113 -0.019,-0.264 -0.056,-0.453 -0.586,0.038 -1.172,0.071 -1.757,0.099 -0.585,0.029 -1.143,0.043 -1.671,0.043 -0.51,0 -1.072,-0.014 -1.686,-0.043 -0.613,-0.028 -1.194,-0.061 -1.741,-0.099 -0.038,0.189 -0.057,0.34 -0.057,0.453 0,0.265 0.094,0.415 0.283,0.454 0.718,0.131 1.208,0.273 1.473,0.425 0.265,0.151 0.397,0.415 0.397,0.793 l 0,14.418 c 0,0.378 -0.132,0.647 -0.397,0.807 -0.265,0.161 -0.755,0.298 -1.473,0.411 -0.113,0.019 -0.189,0.075 -0.226,0.17 -0.038,0.094 -0.057,0.198 -0.057,0.311 0,0.114 0.019,0.265 0.057,0.454 0.566,-0.038 1.156,-0.071 1.77,-0.1 0.614,-0.028 1.166,-0.042 1.657,-0.042 0.472,0 1.015,0.014 1.629,0.042 0.613,0.029 1.213,0.062 1.799,0.1 0.037,-0.189 0.056,-0.34 0.056,-0.454 0,-0.283 -0.094,-0.443 -0.283,-0.481 C 0.755,16.302 0.264,16.165 0,16.004 -0.265,15.844 -0.396,15.575 -0.396,15.197 l 0,-14.418 C -0.396,0.401 -0.265,0.142 0,0 m -14.394,-5.167 25.333,0 0,25.333 -25.333,0 0,-25.333 z" /></g><g
           transform="translate(78.5846,62.0431)"
           id="g96"><path
             id="path98"
             style="fill:#383737;fill-opacity:1;fill-rule:nonzero;stroke:none"
             d="m 0,0 c 0,-4.925 -3.992,-8.917 -8.917,-8.917 -4.924,0 -8.916,3.992 -8.916,8.917 0,4.925 3.992,8.917 8.916,8.917 C -3.992,8.917 0,4.925 0,0" /></g><g
           transform="translate(69.7769,89.7513)"
           id="g100"><path
             id="path102"
             style="fill:#2b2b2a;fill-opacity:1;fill-rule:nonzero;stroke:none"
             d="m 0,0 -7.319,-6.093 1.522,0 0,-7.246 11.594,0 0,7.246 1.305,0 L 0,0 Z" /></g><g
           transform="translate(69.7769,89.7513)"
           id="g104"><path
             id="path106"
             style="fill:#383737;fill-opacity:1;fill-rule:nonzero;stroke:none"
             d="m 0,0 -7.319,-6.093 1.522,0 0,-7.246 11.594,0 0,7.246 1.305,0 L 0,0 Z" /></g><g
           transform="translate(41.9597,62.1521)"
           id="g108"><path
             id="path110"
             style="fill:#383737;fill-opacity:1;fill-rule:nonzero;stroke:none"
             d="m 0,0 6.093,-7.319 0,1.522 7.246,0 0,11.594 -7.246,0 0,1.305 L 0,0 Z" /></g><g
           transform="translate(69.5589,34.3349)"
           id="g112"><path
             id="path114"
             style="fill:#383737;fill-opacity:1;fill-rule:nonzero;stroke:none"
             d="m 0,0 7.319,6.093 -1.522,0 0,7.246 -11.594,0 0,-7.246 -1.305,0 L 0,0 Z" /></g><g
           transform="translate(97.3761,61.9341)"
           id="g116"><path
             id="path118"
             style="fill:#383737;fill-opacity:1;fill-rule:nonzero;stroke:none"
             d="m 0,0 -6.093,7.319 0,-1.522 -7.246,0 0,-11.594 7.246,0 0,-1.305 L 0,0 Z" /></g></g></g></g></svg>