<?xml version="1.0" encoding="UTF-8" standalone="no"?>
<svg
   xmlns:dc="http://purl.org/dc/elements/1.1/"
   xmlns:cc="http://creativecommons.org/ns#"
   xmlns:rdf="http://www.w3.org/1999/02/22-rdf-syntax-ns#"
   xmlns:svg="http://www.w3.org/2000/svg"
   xmlns="http://www.w3.org/2000/svg"
   xmlns:sodipodi="http://sodipodi.sourceforge.net/DTD/sodipodi-0.dtd"
   xmlns:inkscape="http://www.inkscape.org/namespaces/inkscape"
   viewBox="0 0 30 30.000001"
   height="30"
   width="30"
   xml:space="preserve"
   version="1.1"
   id="svg2"
   inkscape:version="0.91 r13725"
   sodipodi:docname="icon_empty.svg"><sodipodi:namedview
     pagecolor="#ffffff"
     bordercolor="#666666"
     borderopacity="1"
     objecttolerance="10"
     gridtolerance="10"
     guidetolerance="10"
     inkscape:pageopacity="0"
     inkscape:pageshadow="2"
     inkscape:window-width="1920"
     inkscape:window-height="1027"
     id="namedview62"
     showgrid="false"
     inkscape:zoom="21.357128"
     inkscape:cx="29.646283"
     inkscape:cy="10.789"
     inkscape:window-x="-8"
     inkscape:window-y="-8"
     inkscape:window-maximized="1"
     inkscape:current-layer="g10" /><metadata
     id="metadata8"><rdf:RDF><cc:Work
         rdf:about=""><dc:format>image/svg+xml</dc:format><dc:type
           rdf:resource="http://purl.org/dc/dcmitype/StillImage" /><dc:title></dc:title></cc:Work></rdf:RDF></metadata><defs
     id="defs6"><clipPath
       id="clipPath16"
       clipPathUnits="userSpaceOnUse"><path
         id="path18"
         d="m 0,95.175 426.724,0 L 426.724,0 0,0 0,95.175 Z"
         inkscape:connector-curvature="0" /></clipPath></defs><g
     transform="matrix(1.25,0,0,-1.25,0,30.000002)"
     id="g10"><path
       inkscape:connector-curvature="0"
       id="path12"
       style="fill:#666666;fill-opacity:1;fill-rule:nonzero;stroke:none"
       d="m 9.6442306,22.157096 2.2212794,0 0,-18.8485256 -2.2212794,0 0,18.8485256 z" /><path
       inkscape:connector-curvature="0"
       id="path24"
       style="fill:#666666;fill-opacity:1;fill-rule:nonzero;stroke:none"
       d="m 0.05610562,3.270579 0.369524,-0.00268 C 5.1361946,3.3895958 8.9250096,8.1463316 8.9250096,13.99299 l 0,8.136888 -1.478405,0 0,-5.547766 c 0,-5.380816 -3.207544,-9.8360609 -7.39049898,-10.6072173 l 0,-2.7042438 z" /><path
       inkscape:connector-curvature="0"
       id="path28"
       style="fill:#666666;fill-opacity:1;fill-rule:nonzero;stroke:none"
       d="m 21.488263,3.270579 -0.369672,-0.00268 c -4.710573,0.1216937 -8.499237,4.8784295 -8.499237,10.725088 l 0,8.136888 1.478558,0 0,-5.547766 c 0,-5.380816 3.207401,-9.836061 7.390351,-10.6072174 l 0,-2.7042438 z" /></g></svg>