<?xml version="1.0" encoding="UTF-8" standalone="no"?>
<svg
   xmlns:dc="http://purl.org/dc/elements/1.1/"
   xmlns:cc="http://creativecommons.org/ns#"
   xmlns:rdf="http://www.w3.org/1999/02/22-rdf-syntax-ns#"
   xmlns:svg="http://www.w3.org/2000/svg"
   xmlns="http://www.w3.org/2000/svg"
   viewBox="0 0 150.875 574.00623"
   height="574.00623"
   width="150.875"
   xml:space="preserve"
   version="1.1"
   id="svg2"><metadata
     id="metadata8"><rdf:RDF><cc:Work
         rdf:about=""><dc:format>image/svg+xml</dc:format><dc:type
           rdf:resource="http://purl.org/dc/dcmitype/StillImage" /><dc:title></dc:title></cc:Work></rdf:RDF></metadata><defs
     id="defs6"><clipPath
       id="clipPath16"
       clipPathUnits="userSpaceOnUse"><path
         id="path18"
         d="m 0,459.205 120.7,0 L 120.7,0 0,0 0,459.205 Z" /></clipPath></defs><g
     transform="matrix(1.25,0,0,-1.25,0,574.00625)"
     id="g10"><g
       id="g12"><g
         clip-path="url(#clipPath16)"
         id="g14"><g
           transform="translate(50.9108,129.9735)"
           id="g20"><path
             id="path22"
             style="fill:#000000;fill-opacity:1;fill-rule:nonzero;stroke:none"
             d="m 0,0 c -1.525,-1.173 -4.695,-1.821 -4.371,2.077 -0.025,8.031 -0.946,16.185 0.435,24.02 0.636,3.614 5.519,7.089 9.326,9.619 1.878,1.249 7.786,1.017 8.251,0.063 1.881,-3.857 4.431,-9.108 2.806,-12.232 C 14.713,20.215 9.672,18.24 4.955,15.443 4.304,15.057 4.432,14.172 5.161,13.922 l 9.801,-3.363 c 0.737,-0.253 0.848,-1.138 0.192,-1.53 L 0,0 Z m 59.284,27.143 c -0.047,15.1 -0.029,32.78 -0.029,48.274 0,0.414 0.342,0.776 0.799,0.857 l 6.458,1.141 c 0.52,0.092 0.835,0.446 0.835,0.86 l 0,235.039 c 0,0.452 -0.381,0.828 -0.888,0.864 l -7.996,0.569 c -0.452,0.032 -0.849,0.378 -0.88,0.809 l -0.913,12.862 c -0.033,0.457 -0.459,0.813 -0.975,0.813 l -19.208,0 c -0.505,0 -0.926,-0.341 -0.973,-0.788 l -0.735,-7.09 C 34.737,320.942 34.37,320.611 33.908,320.565 24.69,319.65 16.087,319.584 8.193,317.449 4.648,316.49 0.35,311.073 0.292,307.628 -0.292,273.016 -0.111,238.392 -0.041,203.772 c 0.023,-11.1 9.198,-10.882 18.257,-11.239 0.521,-0.021 0.931,-0.405 0.931,-0.868 l 0,-38.74 c 0,-0.442 -0.376,-0.814 -0.871,-0.862 -2.569,-0.25 -7.275,0.248 -9.065,-0.302 -0.275,-0.085 -0.505,-0.955 0.112,-1.503 C 19,141.662 17.1,126.608 17.1,113.276 17.1,95.661 17.545,78.512 17.559,60.387 17.566,51.883 14.878,45.926 5.263,43.476 -8.394,39.996 -13.933,32.206 -11.364,19.68 c 0.648,-3.161 0.097,-6.517 0.097,-9.783 0,-19.917 -0.107,-19.689 -19.51,-26.812 -6.527,-2.396 -12.51,-6.084 -18.399,-9.63 -1.334,-0.803 -1.709,-3.467 -1.734,-5.283 -0.13,-9.42 16.279,-19.066 25.747,-14.821 9.96,4.465 19.375,9.881 29.241,14.524 5.439,2.56 14.441,6.539 16.348,6.028 6.213,-1.664 34.689,-6.976 35.63,-1.962" /></g><g
           transform="translate(69.3493,274.4159)"
           id="g24"><path
             id="path26"
             style="fill:#212121;fill-opacity:1;fill-rule:nonzero;stroke:none"
             d="m 0,0 0,-168.221 c 0,-1.182 0.929,-2.205 2.231,-2.454 l 18.169,-3.478 c 6.462,-0.853 10.911,2.725 10.911,7.826 L 31.311,0 c 0,1.387 -1.265,2.511 -2.826,2.511 l -25.659,0 C 1.265,2.511 0,1.387 0,0" /></g><g
           transform="translate(11.3402,100.2345)"
           id="g28"><path
             id="path30"
             style="fill:#292828;fill-opacity:1;fill-rule:nonzero;stroke:none"
             d="m 0,0 c -3.317,-1.835 -5.89,-3.644 -2.315,-7.188 3.201,-3.174 6.476,-6.862 11.894,-5.106 4.277,1.386 9.173,3.115 11.908,6.069 9.28,10.027 21.99,12.499 35.246,14.308 6.879,7.643 6.296,12.821 -2.206,19.581" /></g><g
           transform="translate(99.0313,100.234)"
           id="g32"><path
             id="path34"
             style="fill:#3b3b3b;fill-opacity:1;fill-rule:nonzero;stroke:none"
             d="m 0,0 9.009,0 c 1.158,0 2.097,1.089 2.097,2.431 l 0,177.555 c 0,1.342 -0.939,2.431 -2.097,2.431 l -9.009,0" /></g><g
           transform="translate(86.9356,64.495)"
           id="g36"><path
             id="path38"
             style="fill:#6e4428;fill-opacity:1;fill-rule:nonzero;stroke:none"
             d="m 0,0 c -5.819,-15.788 -9.767,-31.869 -13.762,-48.003 -1.61,-6.503 1.785,-12.253 8.488,-10.681 12.633,2.962 21.194,4.635 36.545,7.738 0.124,20.51 0.249,41.517 0.367,62.027 0.006,0.976 0.396,2.243 -0.139,2.886 -10.328,12.439 -2.864,24.541 0.164,37.13 2.306,9.586 2.376,18.502 1.795,27.841 -7.827,-0.046 -7.897,-5.865 -9.171,-10.288" /></g><g
           transform="translate(118.2067,13.5491)"
           id="g40"><path
             id="path42"
             style="fill:#4f2f1b;fill-opacity:1;fill-rule:nonzero;stroke:none"
             d="m 0,0 c -10.771,-1.792 -21.535,-3.615 -32.314,-5.367 -7.956,-1.292 -11.615,0.151 -9.526,8.69 5.529,22.595 11.807,44.917 22.707,66.026 0.608,1.178 1.87,2.917 1.392,3.584 -7.071,9.875 3.445,15.529 6.641,22.961 3.249,7.558 7.27,14.87 7.648,23.331 0.16,3.591 1.302,7.864 5.639,10.162 -0.143,5.595 0.415,10.084 -3.52,13.705 -1.594,1.466 -4.188,1.903 -6.156,0.855 -3.297,-1.757 -3.454,-5.504 -3.758,-8.577 -0.433,-4.379 -0.433,-8.172 -0.544,-12.269 -0.486,-7.747 -2.481,-15.329 -3.406,-23.036 -0.503,-6.226 -1.909,-11.796 -10.914,-11.837 -3.979,-1.161 -6.875,-2.855 -3.269,-6.772 4.345,-4.72 3.317,-9.777 1.228,-14.755 -3.516,-8.38 -5.084,-17.315 -9.355,-25.468 -6.448,-14.361 -8.655,-29.705 -12.723,-44.599 -2.855,-10.453 -0.372,-11.613 11.827,-8.989 11.077,2.382 22.206,4.8 33.471,6.166 C 0.52,-5.527 0.93,-3.687 0,0" /></g><g
           transform="translate(80.7002,54.7823)"
           id="g44"><path
             id="path46"
             style="fill:#361e10;fill-opacity:1;fill-rule:nonzero;stroke:none"
             d="m 0,0 c 8.246,8.976 8.707,20.961 15.035,30.735 2.286,3.53 -0.327,6.945 -3.631,9.302 -3.463,2.471 -3.061,4.637 -0.009,6.958 C 8.355,46.927 5.314,46.859 2.274,46.791 11.302,33.889 5.242,21.055 1.579,8.396 0.758,5.559 0.894,2.731 0,0" /></g><g
           transform="translate(59.8493,281.0814)"
           id="g48"><path
             id="path50"
             style="fill:#212121;fill-opacity:1;fill-rule:nonzero;stroke:none"
             d="M 0,0 0,0.284 C 0,0.991 0.578,1.57 1.285,1.57 l 38.241,0 c 0.707,0 1.285,-0.579 1.285,-1.286 l 0,-0.284 c 0,-0.707 -0.578,-1.285 -1.285,-1.285 l -38.241,0 C 0.578,-1.285 0,-0.707 0,0" /></g><g
           transform="translate(96.5987,217.8306)"
           id="g52"><path
             id="path54"
             style="fill:#000000;fill-opacity:1;fill-rule:nonzero;stroke:none"
             d="m 0,0 0,-102.565 2.433,3.924 0,102.564 L 0,0 Z" /></g><g
           transform="translate(77.2764,276.9265)"
           id="g56"><path
             id="path58"
             style="fill:#000000;fill-opacity:1;fill-rule:nonzero;stroke:none"
             d="m 0,0 0,-114.394 2.433,3.923 L 2.433,0 0,0 Z" /></g><g
           transform="translate(71.8826,276.9265)"
           id="g60"><path
             id="path62"
             style="fill:#383838;fill-opacity:1;fill-rule:nonzero;stroke:none"
             d="m 0,0 0,-127.268 4.53,4.397 L 4.53,0 0,0 Z" /></g><g
           transform="translate(83.1358,267.8017)"
           id="g64"><path
             id="path66"
             style="fill:#000000;fill-opacity:1;fill-rule:nonzero;stroke:none"
             d="m 0,0 0,-35.542 c 0,-2.289 1.872,-4.161 4.161,-4.161 l 12.931,0 c 2.289,0 4.161,1.872 4.161,4.161 l 0,35.542 c 0,2.289 -1.872,4.161 -4.161,4.161 l -12.931,0 C 1.872,4.161 0,2.289 0,0" /></g><g
           transform="translate(99.1438,270.2339)"
           id="g68"><path
             id="path70"
             style="fill:#3d3d3d;fill-opacity:1;fill-rule:nonzero;stroke:none"
             d="m 0,0 -10.701,0 c -2.194,0 -3.988,-1.594 -3.988,-3.543 l 0,-33.65 c 0,-1.948 1.794,-3.542 3.988,-3.542 l 10.701,0" /></g><g
           transform="translate(99.1438,229.4984)"
           id="g72"><path
             id="path74"
             style="fill:#6c6c6c;fill-opacity:1;fill-rule:nonzero;stroke:none"
             d="m 0,0 c 2.194,0 3.988,1.594 3.988,3.543 l 0,33.65 c 0,1.948 -1.794,3.542 -3.988,3.542" /></g><path
           id="path76"
           style="fill:#000000;fill-opacity:1;fill-rule:nonzero;stroke:none"
           d="m 92.347,270.234 1.856,0 0,-25.849 -1.856,0 0,25.849 z" /><g
           transform="translate(70.1156,285.1878)"
           id="g78"><path
             id="path80"
             style="fill:#3e3e3e;fill-opacity:1;fill-rule:nonzero;stroke:none"
             d="m 0,0 6.826,0 c 2.428,0 4.415,1.765 4.415,3.922 l 0,34.258 c 0,2.157 -1.987,3.922 -4.415,3.922 l -6.826,0" /></g><g
           transform="translate(110.1375,437.4536)"
           id="g82"><path
             id="path84"
             style="fill:#252525;fill-opacity:1;fill-rule:nonzero;stroke:none"
             d="m 0,0 0,-148.105 c 0,-2.288 -1.872,-4.161 -4.161,-4.161 l -16.811,0 c -2.288,0 -4.161,1.873 -4.161,4.161 l 0,148.105 c 0,2.289 1.873,4.161 4.161,4.161 l 16.811,0 C -1.872,4.161 0,2.289 0,0" /></g><path
           id="path86"
           style="fill:#6c6c6c;fill-opacity:1;fill-rule:nonzero;stroke:none"
           d="m 99.144,285.188 6.579,0 0,156.427 -6.579,0 0,-156.427 z" /><path
           id="path88"
           style="fill:#3d3d3d;fill-opacity:1;fill-rule:nonzero;stroke:none"
           d="m 94.204,441.615 4.94,0 0,-156.427 -4.94,0 0,156.427 z" /><g
           transform="translate(94.1743,436.8076)"
           id="g90"><path
             id="path92"
             style="fill:#5f3a22;fill-opacity:1;fill-rule:nonzero;stroke:none"
             d="m 0,0 0,-111.366 c 0,-4.577 -3.745,-8.322 -8.322,-8.322 l -26.392,0 c -4.577,0 -8.322,3.745 -8.322,8.322 l 0,111.366 c 0,4.577 3.745,8.322 8.322,8.322 l 26.392,0 C -3.745,8.322 0,4.577 0,0" /></g><g
           transform="translate(55.6556,331.9536)"
           id="g94"><path
             id="path96"
             style="fill:#361e10;fill-opacity:1;fill-rule:nonzero;stroke:none"
             d="m 0,0 24.723,0 c 1.83,0 3.328,1.33 3.328,2.956 0,1.626 -1.498,2.957 -3.328,2.957 L 0,5.913" /></g><g
           transform="translate(55.6556,347.6028)"
           id="g98"><path
             id="path100"
             style="fill:#361e10;fill-opacity:1;fill-rule:nonzero;stroke:none"
             d="m 0,0 24.723,0 c 1.83,0 3.328,1.33 3.328,2.956 0,1.626 -1.498,2.957 -3.328,2.957 L 0,5.913" /></g><g
           transform="translate(55.6556,363.2969)"
           id="g102"><path
             id="path104"
             style="fill:#361e10;fill-opacity:1;fill-rule:nonzero;stroke:none"
             d="m 0,0 24.723,0 c 1.83,0 3.328,1.33 3.328,2.956 0,1.626 -1.498,2.957 -3.328,2.957 L 0,5.913" /></g><g
           transform="translate(55.6556,381.1024)"
           id="g106"><path
             id="path108"
             style="fill:#361e10;fill-opacity:1;fill-rule:nonzero;stroke:none"
             d="m 0,0 24.723,0 c 1.83,0 3.328,1.33 3.328,2.956 0,1.626 -1.498,2.957 -3.328,2.957 L 0,5.913" /></g><g
           transform="translate(55.6556,396.7517)"
           id="g110"><path
             id="path112"
             style="fill:#361e10;fill-opacity:1;fill-rule:nonzero;stroke:none"
             d="m 0,0 24.723,0 c 1.83,0 3.328,1.33 3.328,2.956 0,1.626 -1.498,2.957 -3.328,2.957 L 0,5.913" /></g><g
           transform="translate(55.6556,412.4458)"
           id="g114"><path
             id="path116"
             style="fill:#361e10;fill-opacity:1;fill-rule:nonzero;stroke:none"
             d="m 0,0 24.723,0 c 1.83,0 3.328,1.33 3.328,2.956 0,1.626 -1.498,2.957 -3.328,2.957 L 0,5.913" /></g><g
           transform="translate(53.3971,325.0388)"
           id="g118"><path
             id="path120"
             style="fill:#361e10;fill-opacity:1;fill-rule:nonzero;stroke:none"
             d="m 0,0 0,0 c 1.242,0 2.259,0.903 2.259,2.006 l 0,110.276 c 0,1.104 -1.017,2.006 -2.259,2.006 l 0,0 c -1.242,0 -2.258,-0.902 -2.258,-2.006 l 0,-110.276 C -2.258,0.903 -1.242,0 0,0" /></g><g
           transform="translate(55.6556,427.7678)"
           id="g122"><path
             id="path124"
             style="fill:#361e10;fill-opacity:1;fill-rule:nonzero;stroke:none"
             d="m 0,0 24.723,0 c 1.83,0 3.328,1.33 3.328,2.956 0,1.626 -1.498,2.957 -3.328,2.957 L 0,5.913" /></g><g
           transform="translate(56.9256,334.9099)"
           id="g126"><path
             id="path128"
             style="fill:#000000;fill-opacity:1;fill-rule:nonzero;stroke:none"
             d="m 0,0 0,0 c 0,-0.367 0.3,-0.666 0.666,-0.666 l 21.647,0 c 0.366,0 0.666,0.299 0.666,0.666 0,0.367 -0.3,0.666 -0.666,0.666 l -21.647,0 C 0.3,0.666 0,0.367 0,0" /></g><g
           transform="translate(56.9256,350.5592)"
           id="g130"><path
             id="path132"
             style="fill:#000000;fill-opacity:1;fill-rule:nonzero;stroke:none"
             d="m 0,0 0,0 c 0,-0.367 0.3,-0.666 0.666,-0.666 l 21.647,0 c 0.366,0 0.666,0.299 0.666,0.666 0,0.367 -0.3,0.666 -0.666,0.666 l -21.647,0 C 0.3,0.666 0,0.367 0,0" /></g><g
           transform="translate(56.9256,366.2533)"
           id="g134"><path
             id="path136"
             style="fill:#000000;fill-opacity:1;fill-rule:nonzero;stroke:none"
             d="m 0,0 0,0 c 0,-0.367 0.3,-0.666 0.666,-0.666 l 21.647,0 c 0.366,0 0.666,0.299 0.666,0.666 0,0.367 -0.3,0.666 -0.666,0.666 l -21.647,0 C 0.3,0.666 0,0.367 0,0" /></g><g
           transform="translate(56.9256,384.0364)"
           id="g138"><path
             id="path140"
             style="fill:#000000;fill-opacity:1;fill-rule:nonzero;stroke:none"
             d="m 0,0 0,0 c 0,-0.367 0.3,-0.666 0.666,-0.666 l 21.647,0 c 0.366,0 0.666,0.299 0.666,0.666 0,0.367 -0.3,0.666 -0.666,0.666 l -21.647,0 C 0.3,0.666 0,0.367 0,0" /></g><g
           transform="translate(56.9256,399.6857)"
           id="g142"><path
             id="path144"
             style="fill:#000000;fill-opacity:1;fill-rule:nonzero;stroke:none"
             d="m 0,0 0,0 c 0,-0.367 0.3,-0.666 0.666,-0.666 l 21.647,0 c 0.366,0 0.666,0.299 0.666,0.666 0,0.367 -0.3,0.666 -0.666,0.666 l -21.647,0 C 0.3,0.666 0,0.367 0,0" /></g><g
           transform="translate(56.9256,415.3798)"
           id="g146"><path
             id="path148"
             style="fill:#000000;fill-opacity:1;fill-rule:nonzero;stroke:none"
             d="m 0,0 0,0 c 0,-0.367 0.3,-0.666 0.666,-0.666 l 21.647,0 c 0.366,0 0.666,0.299 0.666,0.666 0,0.367 -0.3,0.666 -0.666,0.666 l -21.647,0 C 0.3,0.666 0,0.367 0,0" /></g><g
           transform="translate(56.9256,430.7242)"
           id="g150"><path
             id="path152"
             style="fill:#000000;fill-opacity:1;fill-rule:nonzero;stroke:none"
             d="m 0,0 0,0 c 0,-0.367 0.3,-0.666 0.666,-0.666 l 21.647,0 c 0.366,0 0.666,0.299 0.666,0.666 0,0.367 -0.3,0.666 -0.666,0.666 l -21.647,0 C 0.3,0.666 0,0.367 0,0" /></g></g></g></g></svg>