<?xml version="1.0" encoding="UTF-8" standalone="no"?>
<svg
   xmlns:dc="http://purl.org/dc/elements/1.1/"
   xmlns:cc="http://creativecommons.org/ns#"
   xmlns:rdf="http://www.w3.org/1999/02/22-rdf-syntax-ns#"
   xmlns:svg="http://www.w3.org/2000/svg"
   xmlns="http://www.w3.org/2000/svg"
   viewBox="0 0 649.44 219.33125"
   height="219.33125"
   width="649.44"
   xml:space="preserve"
   version="1.1"
   id="svg2"><metadata
     id="metadata8"><rdf:RDF><cc:Work
         rdf:about=""><dc:format>image/svg+xml</dc:format><dc:type
           rdf:resource="http://purl.org/dc/dcmitype/StillImage" /><dc:title></dc:title></cc:Work></rdf:RDF></metadata><defs
     id="defs6"><clipPath
       id="clipPath18"
       clipPathUnits="userSpaceOnUse"><path
         id="path20"
         d="m 0,175.465 519.552,0 L 519.552,0 0,0 0,175.465 Z" /></clipPath></defs><g
     transform="matrix(1.25,0,0,-1.25,0,219.33125)"
     id="g10"><path
       id="path12"
       style="fill:#ff0000;fill-opacity:1;fill-rule:nonzero;stroke:none"
       d="m 0,0 519.552,0 0,175.465 L 0,175.465 0,0 Z" /><g
       id="g14"><g
         clip-path="url(#clipPath18)"
         id="g16"><g
           transform="translate(412.416,23.1846)"
           id="g22"><path
             id="path24"
             style="fill:#ffffff;fill-opacity:1;fill-rule:nonzero;stroke:none"
             d="m 0,0 -54.721,0 c -1.943,0 -3.815,0.072 -5.687,0.36 -1.8,0.216 -3.456,0.576 -4.968,1.008 -2.16,0.504 -3.744,1.584 -4.752,2.447 -0.864,0.793 -1.296,1.657 -1.296,2.521 l 0,9.504 c 0.216,0.792 0.792,1.8 1.728,2.52 0.935,0.72 2.232,1.368 3.744,1.8 1.584,0.432 3.312,0.792 5.256,1.008 2.016,0.216 4.104,0.36 6.408,0.36 l 54.288,0 0,-2.88 -54.288,0 c -2.304,0 -4.32,-0.072 -6.12,-0.288 -1.729,-0.216 -3.456,-0.576 -5.04,-1.007 -2.16,-0.649 -2.592,-1.441 -3.024,-2.521 l -0.072,-2.231 68.472,0 L 0,9.648 l -68.472,0 0,-3.096 c 0,-0.792 0.576,-1.584 3.455,-2.376 1.441,-0.361 3.025,-0.648 4.825,-0.865 1.799,-0.287 3.6,-0.359 5.4,-0.359 L 0,2.952 0,0 Z" /></g><g
           transform="translate(299.376,23.1846)"
           id="g26"><path
             id="path28"
             style="fill:#ffffff;fill-opacity:1;fill-rule:nonzero;stroke:none"
             d="M 0,0 -0.144,0 0,0 Z" /></g><g
           transform="translate(332.3525,41.6885)"
           id="g30"><path
             id="path32"
             style="fill:#ffffff;fill-opacity:1;fill-rule:nonzero;stroke:none"
             d="m 0,0 -34.488,0 0,-18.504 -3.025,0 0,18.504 -34.416,0 0,3.024 L 0,3.024 0,0 Z" /></g><g
           transform="translate(160.3437,32.1123)"
           id="g34"><path
             id="path36"
             style="fill:#ffffff;fill-opacity:1;fill-rule:nonzero;stroke:none"
             d="m 0,0 -19.944,0 0,-8.928 -3.024,0 0,8.928 -25.776,0 c -3.888,0 -8.711,0.505 -8.711,6.265 l 0,6.336 3.167,0 0,-6.049 c 0,-3.816 3.672,-3.455 6.048,-3.455 l 48.024,0 6.192,0 c 2.448,0 6.12,-0.361 6.12,3.455 l 0,6.049 3.024,0 0,-6.336 C 15.12,0.505 10.296,0 6.408,0 L 0,0 Z" /></g><g
           transform="translate(95.1118,41.6172)"
           id="g38"><path
             id="path40"
             style="fill:#ffffff;fill-opacity:1;fill-rule:nonzero;stroke:none"
             d="m 0,0 -57.6,0 c -2.88,0 -5.472,-0.505 -7.344,-1.297 -1.44,-0.576 -2.304,-1.224 -2.304,-1.8 0,-0.576 0.864,-1.223 2.304,-1.799 1.872,-0.721 4.464,-1.225 7.344,-1.225 l 24.984,0 19.944,0 c 2.16,0 4.248,-0.215 5.976,-0.647 0.936,-0.216 1.728,-0.504 2.52,-0.793 0.792,-0.359 1.512,-0.72 2.088,-1.08 1.368,-1.007 2.16,-2.232 2.16,-3.599 l 0,-0.073 c 0,-1.944 -1.656,-3.599 -4.248,-4.679 -2.232,-0.864 -5.256,-1.441 -8.496,-1.441 l -56.808,0 0,3.097 56.808,0 c 2.88,0 5.472,0.504 7.344,1.223 1.368,0.648 2.304,1.297 2.304,1.8 l 0,0.073 c 0,0.287 -0.36,0.647 -0.864,1.008 -0.432,0.288 -0.936,0.503 -1.44,0.792 -0.648,0.215 -1.296,0.431 -2.088,0.647 -1.512,0.36 -3.312,0.576 -5.256,0.576 l -19.944,0 -24.984,0 c -3.24,0 -6.264,0.504 -8.496,1.441 -2.592,1.079 -4.248,2.735 -4.248,4.679 0,2.017 1.656,3.672 4.248,4.752 2.232,0.865 5.256,1.441 8.496,1.441 L 0,3.096 0,0 Z" /></g><g
           transform="translate(253.1513,41.6172)"
           id="g42"><path
             id="path44"
             style="fill:#ffffff;fill-opacity:1;fill-rule:nonzero;stroke:none"
             d="m 0,0 -57.527,0 c -2.88,0 -5.472,-0.505 -7.344,-1.297 -1.44,-0.576 -2.304,-1.224 -2.304,-1.8 0,-0.576 0.864,-1.223 2.304,-1.799 1.872,-0.721 4.464,-1.225 7.344,-1.225 l 24.984,0 19.943,0 c 2.161,0 4.249,-0.215 5.905,-0.647 0.935,-0.216 1.728,-0.504 2.519,-0.793 0.793,-0.359 1.512,-0.72 2.089,-1.08 l -0.072,0 c 1.44,-1.007 2.231,-2.232 2.231,-3.599 l 0,-0.073 c 0,-1.944 -1.656,-3.599 -4.248,-4.679 -2.231,-0.864 -5.183,-1.441 -8.424,-1.441 l -56.807,0 0,3.097 56.807,0 c 2.881,0 5.401,0.504 7.201,1.223 1.439,0.648 2.376,1.297 2.376,1.8 l 0,0.073 c 0,0.287 -0.36,0.647 -0.864,1.008 -0.432,0.288 -0.936,0.503 -1.44,0.792 -0.648,0.215 -1.296,0.431 -2.016,0.647 -1.512,0.36 -3.312,0.576 -5.257,0.576 l -19.943,0 -24.984,0 c -3.24,0 -6.264,0.504 -8.496,1.441 -2.592,1.079 -4.248,2.735 -4.248,4.679 0,2.017 1.584,3.672 4.248,4.752 2.232,0.865 5.256,1.441 8.496,1.441 L 0,3.096 0,0 Z" /></g><g
           transform="translate(493.2002,44.7129)"
           id="g46"><path
             id="path48"
             style="fill:#ffffff;fill-opacity:1;fill-rule:nonzero;stroke:none"
             d="m 0,0 c 0.792,0 1.584,-0.576 1.584,-1.512 l 0,-20.016 -2.952,0 0,17.352 -32.688,-16.488 -0.432,-0.145 c -1.8,-0.719 -2.304,-0.576 -3.601,0 l -0.431,0.217 -32.401,16.487 0,-17.423 -3.096,0 0,20.088 c 0,0.936 0.792,1.44 1.512,1.44 0.433,0 0.648,-0.072 1.009,-0.288 l 33.695,-17.353 c 1.296,-0.576 1.513,-0.863 3.097,-0.072 l 29.807,15.192 4.249,2.304 C -0.432,-0.072 -0.145,0 0,0" /></g><g
           transform="translate(344.664,142.0567)"
           id="g50"><path
             id="path52"
             style="fill:#ffffff;fill-opacity:1;fill-rule:nonzero;stroke:none"
             d="m 0,0 0,-25.704 -2.016,0 c -2.376,7.056 -5.976,12.384 -10.799,15.983 -4.753,3.673 -7.633,5.545 -13.321,5.545 -5.4,0 -9.936,-1.584 -13.536,-4.608 -3.673,-3.097 -6.192,-7.344 -7.704,-12.816 -1.512,-5.472 -2.231,-11.088 -2.231,-16.848 0,-6.984 0.792,-13.104 2.447,-18.361 1.656,-5.327 4.32,-8.134 7.992,-10.584 3.672,-2.447 6.624,-3.671 11.664,-3.671 1.8,0 3.6,0.144 5.4,0.503 1.873,0.433 3.312,0.937 5.255,1.657 l 0,18.576 c 0,2.88 -0.215,4.752 -0.575,5.616 -0.432,0.792 -1.224,1.584 -2.448,2.232 -1.225,0.72 -2.736,1.08 -4.536,1.08 l -1.872,0 0,1.944 35.424,0 0,-1.944 c -2.664,-0.216 -4.536,-0.577 -5.617,-1.152 -1.08,-0.505 -1.872,-1.44 -2.447,-2.736 -0.288,-0.72 -0.433,-2.376 -0.504,-5.04 l -0.144,-18 c -4.609,-2.016 -8.856,-3.744 -13.896,-4.824 -5.04,-1.008 -10.297,-1.871 -15.696,-1.871 -6.912,0 -11.304,0.503 -15.84,2.375 -4.607,1.872 -8.568,3.6 -12.097,6.625 -3.456,3.095 -6.191,6.55 -8.207,10.367 -2.448,4.968 -3.744,10.44 -3.744,16.633 0,10.943 3.888,20.159 11.592,27.718 C -49.824,-3.744 -40.104,0 -28.44,0 c 5.328,0 10.08,-1.368 15.048,-3.24 3.528,-1.368 5.616,-2.016 6.264,-2.016 1.008,0 1.872,0.36 2.736,1.08 0.864,0.72 1.656,2.088 2.376,4.176 L 0,0 Z" /></g><g
           transform="translate(213.9121,137.377)"
           id="g54"><path
             id="path56"
             style="fill:#ffffff;fill-opacity:1;fill-rule:nonzero;stroke:none"
             d="m 0,0 c -6.84,-0.072 -11.952,-3.313 -15.48,-9.793 -2.952,-5.256 -4.392,-12.959 -4.392,-22.895 0,-11.88 2.088,-20.808 6.552,-26.424 3.168,-3.96 7.704,-5.832 13.32,-5.832 l 0,-5.544 -0.072,0 c -13.824,0 -24.552,4.391 -32.112,13.175 -5.976,6.913 -9,15.121 -9,24.625 0,10.656 3.888,19.584 11.664,26.639 7.776,7.129 17.352,10.513 28.728,10.08 L 0,4.031 0,0 Z M 0.144,0 0,0 0,4.031 c 11.88,0.288 21.672,-3.095 29.16,-10.008 7.632,-7.127 11.447,-15.984 11.447,-26.639 0,-9.144 -2.878,-17.136 -8.567,-24.12 C 24.48,-65.881 13.824,-70.488 0,-70.488 l 0,5.544 c 3.816,0 7.128,1.008 9.648,2.735 3.24,2.16 5.328,5.689 7.128,10.513 1.8,4.752 3.024,10.872 3.024,18.576 0,9.216 -0.936,16.056 -2.808,20.592 -1.8,4.608 -4.176,7.776 -6.984,9.719 C 7.128,-0.937 3.816,0 0.144,0" /></g><g
           transform="translate(134.4238,136.1524)"
           id="g58"><path
             id="path60"
             style="fill:#ffffff;fill-opacity:1;fill-rule:nonzero;stroke:none"
             d="m 0,0 0,-28.728 1.584,0 c 4.968,0 6.912,1.44 9.144,4.392 2.232,2.88 3.672,7.129 4.248,12.816 l 2.232,0 0,-38.16 -2.232,0 c -0.432,4.176 -1.44,7.561 -2.88,10.224 -1.512,2.664 -3.24,4.464 -5.184,5.328 C 4.968,-33.191 3.744,-32.76 0,-32.76 l 0,-21.384 c 0,-4.032 0.216,-6.48 0.576,-7.344 0.36,-0.936 1.008,-1.656 2.016,-2.232 1.008,-0.576 2.592,-0.864 4.896,-0.864 l 4.68,0 c 7.272,0 9.36,1.584 13.752,4.752 4.392,3.096 7.416,6.696 9.36,13.176 l 2.16,0 -3.384,-21.959 -64.008,0 0,2.015 2.664,0 c 2.232,0 4.104,0.36 5.472,1.08 1.008,0.504 1.8,1.368 2.304,2.592 0.432,0.864 0.648,3.096 0.648,6.768 l 0,47.953 c 0,3.239 -0.072,5.256 -0.288,6.047 -0.36,1.224 -1.08,2.232 -2.16,2.881 -1.44,1.008 -3.456,1.511 -5.976,1.511 l -2.664,0 0,2.016 65.664,0 0,-21.527 -2.16,0 c -1.152,5.256 -2.664,9 -4.752,11.302 -2.016,2.305 -4.824,3.961 -8.568,5.041 C 18.072,-0.288 14.04,0 8.064,0 L 0,0 Z" /></g><g
           transform="translate(49.3198,140.4004)"
           id="g62"><path
             id="path64"
             style="fill:#ffffff;fill-opacity:1;fill-rule:nonzero;stroke:none"
             d="m 0,0 40.392,-45.216 0,31.321 c 0,4.391 -0.648,7.343 -2.088,8.856 -1.944,2.087 -4.248,3.096 -8.856,3.023 l 0,2.016 24.408,0 0,-2.016 c -3.456,-0.36 -4.032,-0.936 -5.184,-1.511 -1.224,-0.649 -2.16,-1.657 -2.808,-3.097 -0.648,-1.368 -1.008,-3.815 -1.008,-7.271 l 0,-60.624 -2.016,0 -55.44,60.624 0,-46.296 c 0,-4.176 1.08,-6.985 3.24,-8.496 2.16,-1.441 4.608,-2.161 7.416,-2.161 l 1.944,0 0,-2.015 -29.088,0 0,2.015 c 4.536,0 7.632,0.864 9.432,2.448 1.728,1.584 2.664,4.32 2.664,8.209 l 0,51.408 -1.8,1.943 c -1.728,1.945 -3.24,3.168 -4.536,3.817 -1.368,0.576 -0.144,0.935 -2.592,1.007 L -25.92,0 0,0 Z" /></g><g
           transform="translate(458.6406,137.377)"
           id="g66"><path
             id="path68"
             style="fill:#ffffff;fill-opacity:1;fill-rule:nonzero;stroke:none"
             d="m 0,0 c -6.841,-0.072 -11.952,-3.313 -15.48,-9.793 -2.953,-5.256 -4.392,-12.959 -4.392,-22.895 0,-11.88 2.088,-20.808 6.551,-26.424 3.168,-3.96 7.704,-5.832 13.321,-5.832 l 0,-5.544 -0.073,0 c -13.824,0 -24.552,4.391 -32.112,13.175 -5.975,6.913 -9,15.121 -9,24.625 0,10.656 3.888,19.584 11.664,26.639 7.776,7.129 17.352,10.513 28.729,10.08 L 0,4.031 0,0 Z M 0.144,0 0,0 0,4.031 c 11.88,0.288 21.671,-3.095 29.159,-10.008 7.704,-7.127 11.52,-15.984 11.52,-26.639 0,-9.144 -2.879,-17.136 -8.568,-24.12 C 24.479,-65.881 13.823,-70.488 0,-70.488 l 0,5.544 c 3.815,0 7.128,1.008 9.647,2.735 3.241,2.16 5.329,5.689 7.128,10.513 1.8,4.752 3.025,10.872 3.025,18.576 0,9.216 -0.937,16.056 -2.809,20.592 -1.8,4.608 -4.176,7.776 -6.983,9.719 C 7.128,-0.937 3.815,0 0.144,0" /></g><g
           transform="translate(379.1513,136.1524)"
           id="g70"><path
             id="path72"
             style="fill:#ffffff;fill-opacity:1;fill-rule:nonzero;stroke:none"
             d="m 0,0 0,-28.728 1.585,0 c 4.968,0 6.912,1.44 9.144,4.392 2.231,2.88 3.671,7.129 4.248,12.816 l 2.232,0 0,-38.16 -2.232,0 c -0.433,4.176 -1.44,7.561 -2.88,10.224 -1.512,2.664 -3.24,4.464 -5.184,5.328 C 4.969,-33.191 3.744,-32.76 0,-32.76 l 0,-21.384 c 0,-4.032 0.217,-6.48 0.577,-7.344 0.36,-0.936 1.008,-1.656 2.016,-2.232 1.008,-0.576 2.592,-0.864 4.896,-0.864 l 4.679,0 c 7.273,0 9.361,1.584 13.752,4.752 4.393,3.096 7.416,6.696 9.361,13.176 l 2.16,0 -3.384,-21.959 -64.008,0 0,2.015 2.664,0 c 2.231,0 4.104,0.36 5.472,1.08 1.007,0.504 1.799,1.368 2.304,2.592 0.431,0.864 0.648,3.096 0.648,6.768 l 0,47.953 c 0,3.239 -0.072,5.256 -0.288,6.047 -0.36,1.224 -1.08,2.232 -2.16,2.881 -1.441,1.008 -3.456,1.511 -5.976,1.511 l -2.664,0 0,2.016 65.664,0 0,-21.527 -2.16,0 c -1.153,5.256 -2.664,9 -4.752,11.302 -2.016,2.305 -4.824,3.961 -8.568,5.041 C 18.072,-0.288 14.04,0 8.065,0 L 0,0 Z" /></g><g
           transform="translate(264.5996,111.5283)"
           id="g74"><path
             id="path76"
             style="fill:#ffffff;fill-opacity:1;fill-rule:evenodd;stroke:none"
             d="m 0,0 0.433,0 c 4.103,0 7.416,-3.239 7.416,-7.128 0,-3.888 -3.313,-7.056 -7.416,-7.056 l -0.433,0 c -4.103,0 -7.415,3.168 -7.415,7.056 C -7.415,-3.239 -4.103,0 0,0" /></g></g></g></g></svg>