<?xml version="1.0" encoding="utf-8"?>
<!-- Generator: Adobe Illustrator 19.0.0, SVG Export Plug-In . SVG Version: 6.00 Build 0)  -->
<svg version="1.1" baseProfile="tiny"
	 id="svg2" xmlns:dc="http://purl.org/dc/elements/1.1/" xmlns:cc="http://creativecommons.org/ns#" xmlns:rdf="http://www.w3.org/1999/02/22-rdf-syntax-ns#" xmlns:svg="http://www.w3.org/2000/svg"
	 xmlns="http://www.w3.org/2000/svg" xmlns:xlink="http://www.w3.org/1999/xlink" x="0px" y="0px" viewBox="241 210.9 1093.8 296.8"
	 xml:space="preserve">
<g>
	<g>
		<rect x="420.4" y="210.3" fill="#231F20" width="735" height="297.5"/>
		<path fill="#FFFFFF" d="M1097.3,251.9l-69.8,102l76,111.6H1033l-41.7-59.7L949,465.5h-69.3c1.6-3.9,76-111.6,76-111.6l-31.6-44
			H789.5c-6.2,0.5-14-1.6-17,5.7c-1.1,2.3-1.6,5.7-0.5,7.8c1.1,2.8,3.4,5.1,6.2,6.2l4.6,0.5H837c24.8,0.5,47.9,16.3,58.6,38.8
			c9.6,18.6,8.5,44.5-2.3,62.6c-13.5,22.5-37.8,35.5-63.6,34.4h-150l-23.1-82.8L633.4,466h-54.7l-22-83.4L533,465.5h-60.8
			c0,0,55.8-200.1,59.2-213h51.2l23.7,89.1l24.3-89.1h50.2l43,155.6h99.7c6.7-0.5,16.3,1.6,19.1-6.7c1.1-3.9,0-7.8-2.3-10.1
			c-2.3-2.3-5.7-2.8-9-2.8h-53.5c-25.3-0.5-50.7-17.5-60.3-41.7c-10.1-24.3-4.6-54.1,14.7-72.7c12.9-12.9,28.7-19.7,47.3-20.9H956
			l35.5,51.2l36.7-51.2L1097.3,251.9z"/>
	</g>
</g>
</svg>
