<svg xmlns="http://www.w3.org/2000/svg" width="400" height="95.290527">
  <defs>
    <clipPath id="a">
      <path d="M0 98.876h415.051V0H0v98.876z"/>
    </clipPath>
  </defs>
  <g clip-path="url(#a)" transform="matrix(0.96373768,0,0,-0.96373768,-2.891213e-4,95.290527)">
    <path d="M325.4809 27.8692h.169c.193 0 .35.069.35.251 0 .129-.097.257-.35.257-.085 0-.133-.005-.169-.012v-.496zm0-.816h-.241v1.471c.12.017.241.035.422.035.217 0 .362-.047.458-.111.085-.065.133-.164.133-.305 0-.194-.133-.309-.289-.357v-.011c.132-.023.217-.141.241-.357.036-.229.072-.319.096-.365h-.241c-.036.046-.072.181-.108.374-.037.189-.121.257-.314.257h-.157v-.631zm.241 1.88c-.579 0-1.049-.496-1.049-1.112 0-.628.47-1.119 1.049-1.119.591-.006 1.062.491 1.062 1.113s-.471 1.118-1.062 1.118m0 .208c.724 0 1.303-.587 1.303-1.32 0-.745-.579-1.323-1.303-1.323s-1.303.578-1.303 1.323c0 .733.579 1.32 1.303 1.32m-6.237-10.368v5.86l-1.906-3.815h-1.327l-1.93 3.815v-5.86h-1.967v10.058h1.943l2.617-5.437 2.606 5.437h1.943v-10.058h-1.979zm-15.025 7.091l-1.271-3.653h2.5l-1.229 3.653zm2.343-7.091l-.591 1.782h-3.574l-.608-1.782h-2.048l3.659 10.058h1.538l3.678-10.058h-2.054zm-16.806 0v10.058h6.63v-1.746h-4.659v-2.373h3.968v-1.745h-3.968v-2.448h4.659v-1.746h-6.63zm-6.765 8.312v-8.313h-1.966v8.313h-2.628v1.745h7.222v-1.745h-2.628zm-8.43-7.592c-.697-.543-1.588-.813-2.682-.813-.789 0-1.479.1-2.069.304-.586.202-1.122.541-1.602 1.021l1.273 1.269c.299-.3.654-.518 1.065-.649.41-.134.864-.2 1.363-.2 1.185 0 1.78.418 1.78 1.248 0 .351-.091.624-.269.818-.179.193-.49.321-.934.389l-.566.087-.65.082c-.859.124-1.512.4-1.955.833-.481.479-.721 1.139-.721 1.975 0 .912.316 1.65.946 2.207.632.561 1.484.84 2.561.84.702 0 1.315-.089 1.833-.275.52-.185.99-.484 1.411-.898l-1.241-1.227c-.285.271-.596.455-.939.549-.344.093-.715.142-1.123.142-.5 0-.883-.119-1.151-.359-.269-.24-.403-.542-.403-.909 0-.263.104-.502.31-.709.209-.211.514-.346.919-.403l.606-.083.582-.086c.451-.066.828-.162 1.135-.284.306-.119.568-.287.784-.494.519-.489.777-1.201.777-2.136 0-.951-.349-1.696-1.04-2.239m-12.3866 4.3491c-1.058.286-1.685 1.376-1.398 2.435.286 1.059 1.377 1.686 2.435 1.4 1.059-.286 1.686-1.377 1.399-2.436-.286-1.059-1.377-1.685-2.436-1.399m-.177-.639c-1.407.38-2.243 1.836-1.862 3.243.38 1.407 1.835 2.243 3.242 1.863 1.407-.381 2.243-1.836 1.863-3.243-.38-1.407-1.836-2.243-3.243-1.863m-5.694-3.505c-.755-.974-2.161-1.154-3.136-.399-.45.348-.729.838-.825 1.358l1.107-.853c.72-.557 1.754-.424 2.309.294.557.718.425 1.752-.294 2.308l-1.145.882c.548.054 1.116-.092 1.585-.454.473-.366.774-.894.849-1.485.075-.593-.085-1.18-.45-1.651m-16.813 10.112c-.734.568-1.017 1.507-.789 2.353.075.277.204.542.39.781.754.976 2.161 1.155 3.135.401.46-.356.739-.855.831-1.387l-1.134.873c-.718.556-1.751.424-2.308-.294-.556-.719-.424-1.754.294-2.31l1.137-.875c-.56-.048-1.109.111-1.556.458m24.233-.223c-2.113.572-4.296-.682-4.867-2.795-.005-.017-.009-.034-.013-.05l-3.435-2.912c-.396.126-.816.164-1.238.111-.187-.023-.366-.065-.54-.122l-9.881 7.605c.047.917-.338 1.841-1.117 2.445-1.264.977-3.087.745-4.066-.519-.977-1.263-.745-3.086.519-4.064.611-.473 1.371-.68 2.139-.583.177.022.349.063.516.115l9.903-7.623c-.04-.909.346-1.822 1.119-2.419 1.263-.979 3.087-.746 4.064.516.254.33.431.7.526 1.093l4.213 1.564c.029-.008.057-.017.087-.025 2.112-.571 4.295.684 4.866 2.797.571 2.112-.682 4.295-2.795 4.866m-79.0508-10.3647c0-.407-.3-.681-.653-.681v.003c-.364-.003-.658.271-.658.678 0 .407.294.679.658.679.353 0 .653-.272.653-.679m.265 0c0 .559-.434.883-.918.883-.488 0-.922-.324-.922-.883 0-.559.434-.884.922-.884.484 0 .918.325.918.884m-1.071-.075h.099l.227-.4h.251l-.253.417c.131.009.238.071.238.247 0 .218-.151.288-.405.288h-.368v-.952h.211v.4m0 .161v.229h.147c.081 0 .19-.006.19-.104 0-.106-.056-.125-.151-.125h-.186m-7.257 7.5419l1.716-4.697h-3.487l1.771 4.697zm-1.839 1.829l-3.957-10.026h2.794l.626 1.773h4.682l.593-1.773h3.033l-3.986 10.027-3.785-.001zm-7.944-10.029h2.834v10.032l-2.834.001v-10.033zm-19.679 10.033l-2.365-7.952-2.266 7.951-3.059.001 3.236-10.033h4.084l3.262 10.033h-2.892zm11.458-2.185h1.218c1.768 0 2.911-.794 2.911-2.853 0-2.06-1.143-2.854-2.911-2.854h-1.218v5.707zm-2.811 2.185v-10.033h4.596c2.449 0 3.248.407 4.112 1.32.611.641 1.006 2.049 1.006 3.586 0 1.41-.334 2.669-.917 3.452-1.05 1.401-2.562 1.675-4.82 1.675h-3.977zm-26.852.014v-10.047h2.859v7.629l2.214-.001c.734 0 1.256-.183 1.61-.56.448-.477.631-1.247.631-2.656v-4.412h2.77v5.551c0 3.962-2.526 4.496-4.996 4.496h-5.088zm22.29-.014l.001-10.033h2.833v10.033h-2.834z"/>
    <path fill="#7db500" d="M103.5875 24.9362s2.222 3.279 6.658 3.617v1.19c-4.913-.395-9.169-4.556-9.169-4.556s2.41-6.968 9.169-7.606v1.265c-4.96.624-6.658 6.09-6.658 6.09m6.658-3.576v-1.158c-3.748.668-4.789 4.565-4.789 4.565s1.8 1.994 4.789 2.318v-1.271c-.002 0-.003.001-.005.001-1.569.188-2.795-1.278-2.795-1.278s.687-2.467 2.8-3.177m0 10.577v-2.194c.145.011.289.02.434.026 5.587.188 9.227-4.582 9.227-4.582s-4.181-5.084-8.537-5.084c-.399 0-.772.037-1.124.099v-1.356c.301-.039.612-.061.936-.061 4.054 0 6.985 2.07 9.823 4.52.47-.377 2.397-1.294 2.793-1.696-2.699-2.259-8.988-4.08-12.553-4.08-.344 0-.674.021-.999.052v-1.906h15.406v16.262h-15.406zm0-4.852v1.468c.143.011.287.018.434.023 4.017.126 6.653-3.452 6.653-3.452s-2.847-3.954-5.899-3.954c-.44 0-.833.071-1.188.19v4.454c1.564-.189 1.879-.88 2.819-2.447l2.092 1.763s-1.527 2.002-4.1 2.002c-.28 0-.548-.019-.811-.047"/>
    <path fill="#333" d="M189.975 18.619h-2.282v10.055h2.282V18.619zm1.9378 4.9681c0 .91-.029 1.686-.059 2.327h1.969l.105-.999h.044c.298.462 1.045 1.164 2.253 1.164 1.492 0 2.611-.985 2.611-3.133v-4.327h-2.268v4.043c0 .94-.328 1.582-1.149 1.582-.627 0-.999-.433-1.149-.851-.06-.134-.089-.358-.089-.567v-4.207h-2.268v4.968zM204.1 21.782h-3.908v1.507h3.908v-1.507zm3.7126 6.8925v-3.864h3.745v3.864h2.267v-10.055h-2.267v4.207h-3.745v-4.207h-2.282v10.055h2.282zm9.7986-6.4003c0-1.253.522-2.193 1.492-2.193.88 0 1.447.881 1.447 2.193 0 1.089-.417 2.193-1.447 2.193-1.089 0-1.492-1.119-1.492-2.193m5.282.075c0-2.671-1.896-3.894-3.849-3.894-2.134 0-3.775 1.402-3.775 3.759 0 2.358 1.552 3.864 3.894 3.864 2.237 0 3.73-1.536 3.73-3.729m1.3996 1.2379c0 .91-.029 1.686-.059 2.327h1.909l.105-.984h.045c.312.462.954 1.149 2.207 1.149.94 0 1.686-.478 1.999-1.239h.03c.269.373.597.672.94.88.403.239.85.359 1.388.359 1.401 0 2.461-.985 2.461-3.163v-4.297h-2.208v3.969c0 1.059-.343 1.67-1.074 1.67-.523 0-.895-.357-1.045-.79-.059-.165-.089-.403-.089-.582v-4.267h-2.208v4.088c0 .925-.328 1.551-1.044 1.551-.582 0-.925-.447-1.06-.82-.074-.179-.089-.388-.089-.567v-4.252h-2.208v4.968zm17.2423-.4924c0 .552-.238 1.477-1.283 1.477-.955 0-1.343-.865-1.402-1.477h2.685zm-2.67-1.551c.074-.94.999-1.388 2.058-1.388.776 0 1.402.105 2.015.299l.297-1.537c-.745-.298-1.655-.448-2.64-.448-2.476 0-3.894 1.433-3.894 3.715 0 1.85 1.149 3.894 3.685 3.894 2.357 0 3.253-1.835 3.253-3.64 0-.388-.045-.731-.075-.895h-4.699zm99.1302-2.3078c-.701-.238-2.029-.567-3.356-.567-1.836 0-3.163.463-4.088 1.358-.925.865-1.432 2.178-1.417 3.655.015 3.341 2.446 5.251 5.743 5.251 1.299 0 2.297-.254 2.79-.492l-.478-1.82c-.552.238-1.238.432-2.342.432-1.894 0-3.326-1.074-3.326-3.252 0-2.073 1.297-3.297 3.162-3.297.523 0 .941.06 1.119.149v2.104h-1.551v1.775h3.744v-5.296zm5.6968 2.9835c-1.193.015-2.119-.268-2.119-1.149 0-.581.389-.865.896-.865.567 0 1.029.373 1.178.836.03.119.045.253.045.388v.79zm.268-3.446l-.134.731h-.045c-.477-.582-1.223-.895-2.088-.895-1.477 0-2.357 1.074-2.357 2.238 0 1.894 1.7 2.804 4.281 2.79v.104c0 .388-.209.94-1.328.94-.745 0-1.536-.254-2.013-.552l-.418 1.462c.507.283 1.507.641 2.834.641 2.432 0 3.208-1.432 3.208-3.147v-2.537c0-.701.029-1.372.104-1.775h-2.044zm3.7278 4.9678c0 .91-.029 1.686-.059 2.327h1.909l.105-.985h.045c.312.463.954 1.15 2.207 1.15.94 0 1.686-.478 1.999-1.239h.03c.269.373.597.672.94.88.403.239.85.359 1.388.359 1.401 0 2.461-.985 2.461-3.163v-4.297h-2.208v3.969c0 1.059-.343 1.67-1.074 1.67-.523 0-.895-.357-1.045-.79-.059-.165-.089-.403-.089-.582v-4.267h-2.208v4.088c0 .925-.328 1.551-1.044 1.551-.582 0-.925-.447-1.06-.82-.074-.179-.089-.388-.089-.567v-4.252h-2.208v4.968zm17.2423-.4924c0 .552-.238 1.477-1.283 1.477-.955 0-1.343-.865-1.402-1.477h2.685zm-2.67-1.551c.074-.94.999-1.388 2.058-1.388.776 0 1.402.105 2.015.299l.297-1.537c-.745-.298-1.655-.448-2.64-.448-2.476 0-3.894 1.433-3.894 3.715 0 1.85 1.149 3.894 3.685 3.894 2.357 0 3.253-1.835 3.253-3.64 0-.388-.045-.731-.075-.895h-4.699zm6.278-.582c.612-.314 1.552-.627 2.522-.627 1.044 0 1.596.433 1.596 1.089 0 .627-.477.985-1.686 1.418-1.671.582-2.76 1.506-2.76 2.968 0 1.716 1.432 3.029 3.804 3.029 1.134 0 1.969-.239 2.566-.507l-.507-1.836c-.403.195-1.119.478-2.104.478-.984 0-1.461-.448-1.461-.97 0-.641.567-.925 1.864-1.417 1.775-.656 2.611-1.581 2.611-2.999 0-1.685-1.298-3.118-4.058-3.118-1.149 0-2.283.299-2.849.612l.462 1.88zm10.3673 7.0411v-2.088h1.626v-1.671h-1.626v-2.641c0-.88.208-1.283.895-1.283.283 0 .507.03.671.06l.015-1.716c-.299-.119-.836-.194-1.477-.194-.731 0-1.342.254-1.701.627-.417.433-.626 1.134-.626 2.163v2.984h-.97v1.671h.97v1.581l2.223.507zm2.9367-4.4903c0 1.074-.029 1.775-.059 2.402h1.954l.075-1.343h.059c.373 1.059 1.268 1.507 1.969 1.507.209 0 .314 0 .478-.03v-2.133c-.164.03-.358.059-.612.059-.835 0-1.402-.447-1.552-1.148-.029-.15-.044-.328-.044-.507v-3.7h-2.268v4.893zm9.9646-.4178c0 .552-.238 1.477-1.283 1.477-.955 0-1.343-.865-1.402-1.477h2.685zm-2.67-1.551c.074-.94.999-1.388 2.058-1.388.776 0 1.402.105 2.015.299l.297-1.537c-.745-.298-1.655-.448-2.64-.448-2.476 0-3.894 1.433-3.894 3.715 0 1.85 1.149 3.894 3.685 3.894 2.357 0 3.253-1.835 3.253-3.64 0-.388-.045-.731-.075-.895h-4.699zm10.0078.5216c-1.193.015-2.119-.268-2.119-1.149 0-.581.389-.865.896-.865.567 0 1.029.373 1.178.836.03.119.045.253.045.388v.79zm.269-3.446l-.135.731h-.045c-.477-.582-1.223-.895-2.088-.895-1.477 0-2.357 1.074-2.357 2.238 0 1.894 1.7 2.804 4.281 2.79v.104c0 .388-.209.94-1.328.94-.745 0-1.536-.254-2.013-.552l-.418 1.462c.507.283 1.507.641 2.834.641 2.432 0 3.208-1.432 3.208-3.147v-2.537c0-.701.029-1.372.104-1.775h-2.043zm3.7268 4.9678c0 .91-.029 1.686-.059 2.327h1.909l.105-.985h.045c.312.463.954 1.15 2.207 1.15.94 0 1.686-.478 1.999-1.239h.03c.269.373.597.672.94.88.403.239.85.359 1.388.359 1.401 0 2.461-.985 2.461-3.163v-4.297h-2.208v3.969c0 1.059-.343 1.67-1.074 1.67-.523 0-.895-.357-1.045-.79-.059-.165-.089-.403-.089-.582v-4.267h-2.208v4.088c0 .925-.328 1.551-1.044 1.551-.582 0-.925-.447-1.06-.82-.074-.179-.089-.388-.089-.567v-4.252h-2.208v4.968z"/>
    <path fill="#a3a1a3" d="M49.2783 80.3708c-17.172 0-31.092-13.921-31.092-31.092 0-17.172 13.92-31.093 31.092-31.093 17.172 0 31.092 13.921 31.092 31.093 0 17.171-13.92 31.092-31.092 31.092m49.278-31.092c0-27.216-22.062-49.279-49.278-49.279-27.216 0-49.278 22.063-49.278 49.279 0 27.215 22.062 49.278 49.278 49.278 27.216 0 49.278-22.063 49.278-49.278"/>
    <path fill="#a3a1a3" d="M50.23 18.186h-2.952v62.185h2.952V18.186z"/>
    <path fill="#a3a1a3" d="M17.487 49.754h62.884v-2.952H17.487v2.952z"/>
    <path fill="#a3a1a3" d="M27.7399 25.0017l-2.088 2.088 44.882 44.881 2.087-2.088-44.881-44.881z"/>
    <path fill="#a3a1a3" d="M71.9656 27.745l-2.088-2.088-44.225 44.226 2.087 2.088 44.226-44.226z"/>
    <path fill="#a4a1a4" d="M141.9123 51.5405c-.162 4.376-.324 9.672-.324 14.967h-.162c-1.135-4.647-2.648-9.834-4.053-14.102l-4.431-14.211h-6.429l-3.89 14.103c-1.19 4.268-2.432 9.455-3.296 14.21h-.108c-.216-4.917-.378-10.536-.649-15.075l-.648-13.832h-7.618l2.323 36.417h10.968l3.566-12.157c1.135-4.215 2.27-8.753 3.08-13.021h.162c1.027 4.214 2.27 9.023 3.458 13.075l3.89 12.103h10.753l1.999-36.417h-8.051l-.54 13.94zm21.9395 4.1606c0-7.132 3.351-12.157 8.861-12.157 5.566 0 8.753 5.295 8.753 12.373 0 6.538-3.134 12.157-8.806 12.157-5.566 0-8.808-5.295-8.808-12.373m26.313.486c0-11.941-7.24-19.181-17.883-19.181-10.807 0-17.129 8.159-17.129 18.533 0 10.914 6.97 19.073 17.722 19.073 11.185 0 17.29-8.375 17.29-18.425m12.4311-.486c0-7.132 3.351-12.157 8.861-12.157 5.566 0 8.753 5.295 8.753 12.373 0 6.538-3.134 12.157-8.806 12.157-5.566 0-8.808-5.295-8.808-12.373m26.313.486c0-11.941-7.24-19.181-17.883-19.181-10.807 0-17.129 8.159-17.129 18.533 0 10.914 6.97 19.073 17.722 19.073 11.185 0 17.29-8.375 17.29-18.425m5.4068-18.5865v36.417h9.617l7.565-13.346c2.161-3.836 4.322-8.374 5.943-12.481h.162c-.54 4.809-.702 9.726-.702 15.183v10.644h7.564v-36.417h-8.645l-7.78 14.048c-2.161 3.89-4.539 8.591-6.322 12.86l-.162-.054c.216-4.809.324-9.942.324-15.886v-10.968h-7.564zm37.2841 36.4169h8.267v-29.501h14.48v-6.916h-22.747v36.417zM307.479 37.601h-8.267v36.417h8.267V37.601zm37.5515 1.6744c-2.539-.864-7.348-2.053-12.156-2.053-6.647 0-11.455 1.675-14.805 4.917-3.351 3.134-5.187 7.888-5.134 13.238.055 12.103 8.862 19.019 20.803 19.019 4.7 0 8.32-.919 10.104-1.784l-1.729-6.591c-1.999.864-4.485 1.566-8.483 1.566-6.863 0-12.049-3.89-12.049-11.778 0-7.511 4.701-11.941 11.455-11.941 1.89 0 3.403.216 4.052.54v7.618h-5.62v6.43h13.562v-19.181zm14.7002 34.7421v-13.994h13.562v13.994h8.212v-36.417h-8.212v15.237h-13.562v-15.237h-8.267v36.417h8.267zm35.9873-6.916h-9.779v6.916h27.988v-6.916h-9.941v-29.501h-8.268v29.501z"/>
    <path fill="#deddde" d="M143.0364 52.0185c-.162 4.376-.324 9.672-.324 14.967h-.162c-1.135-4.647-2.648-9.834-4.053-14.102l-4.431-14.211h-6.429l-3.89 14.103c-1.19 4.268-2.432 9.455-3.296 14.21h-.108c-.216-4.917-.378-10.536-.649-15.075l-.648-13.832h-7.618l2.323 36.417h10.968l3.566-12.157c1.135-4.215 2.27-8.753 3.08-13.021h.162c1.027 4.214 2.27 9.023 3.458 13.075l3.89 12.103h10.753l1.999-36.417h-8.051l-.54 13.94zm21.9394 4.1607c0-7.132 3.351-12.157 8.861-12.157 5.566 0 8.753 5.295 8.753 12.373 0 6.538-3.134 12.157-8.806 12.157-5.566 0-8.808-5.295-8.808-12.373m26.313.486c0-11.941-7.24-19.181-17.883-19.181-10.807 0-17.129 8.159-17.129 18.533 0 10.914 6.97 19.073 17.722 19.073 11.185 0 17.29-8.375 17.29-18.425m12.4312-.486c0-7.132 3.351-12.157 8.861-12.157 5.566 0 8.753 5.295 8.753 12.373 0 6.538-3.134 12.157-8.806 12.157-5.566 0-8.808-5.295-8.808-12.373m26.313.486c0-11.941-7.24-19.181-17.883-19.181-10.807 0-17.129 8.159-17.129 18.533 0 10.914 6.97 19.073 17.722 19.073 11.185 0 17.29-8.375 17.29-18.425m5.4067-18.5866v36.417h9.617l7.565-13.346c2.161-3.836 4.322-8.374 5.943-12.481h.162c-.54 4.809-.702 9.726-.702 15.183v10.644h7.564v-36.417h-8.645l-7.78 14.048c-2.161 3.89-4.539 8.591-6.322 12.86l-.162-.054c.216-4.809.324-9.942.324-15.886v-10.968h-7.564zm37.2841 36.417h8.267v-29.501h14.48v-6.916h-22.747v36.417zM308.603 38.079h-8.267v36.417h8.267V38.079zm37.5515 1.6744c-2.539-.864-7.348-2.053-12.156-2.053-6.647 0-11.455 1.675-14.805 4.917-3.351 3.134-5.187 7.888-5.134 13.238.055 12.103 8.862 19.019 20.803 19.019 4.7 0 8.32-.919 10.104-1.784l-1.729-6.591c-1.999.864-4.485 1.566-8.483 1.566-6.863 0-12.049-3.89-12.049-11.778 0-7.511 4.701-11.941 11.455-11.941 1.89 0 3.403.216 4.052.54v7.618h-5.62v6.43h13.562v-19.181zm14.7002 34.7422v-13.994h13.562v13.994h8.212v-36.417h-8.212v15.237h-13.562v-15.237h-8.267v36.417h8.267zm35.9873-6.916h-9.779v6.916h27.988v-6.916h-9.941v-29.501h-8.268v29.501zM50.2305 80.6901c-17.172 0-31.092-13.921-31.092-31.092 0-17.172 13.92-31.093 31.092-31.093 17.172 0 31.092 13.921 31.092 31.093 0 17.171-13.92 31.092-31.092 31.092m49.278-31.092c0-27.216-22.062-49.279-49.278-49.279-27.216 0-49.278 22.063-49.278 49.279 0 27.215 22.062 49.278 49.278 49.278 27.216 0 49.278-22.063 49.278-49.278"/>
    <path fill="#deddde" d="M51.183 18.505h-2.952V80.69h2.952V18.505z"/>
    <path fill="#deddde" d="M18.439 50.074h62.884v-2.952H18.439v2.952z"/>
    <path fill="#deddde" d="M28.6921 25.321l-2.088 2.088 44.882 44.881 2.087-2.088-44.881-44.881z"/>
    <path fill="#deddde" d="M72.9178 28.0643l-2.088-2.088-44.225 44.226 2.087 2.088 44.226-44.226z"/>
  </g>
</svg>
