<?xml version="1.0" encoding="UTF-8" standalone="no"?>
<!-- Generator: Adobe Illustrator 13.0.0, SVG Export Plug-In . SVG Version: 6.00 Build 14948)  -->

<svg
   xmlns:dc="http://purl.org/dc/elements/1.1/"
   xmlns:cc="http://creativecommons.org/ns#"
   xmlns:rdf="http://www.w3.org/1999/02/22-rdf-syntax-ns#"
   xmlns:svg="http://www.w3.org/2000/svg"
   xmlns="http://www.w3.org/2000/svg"
   xmlns:sodipodi="http://sodipodi.sourceforge.net/DTD/sodipodi-0.dtd"
   xmlns:inkscape="http://www.inkscape.org/namespaces/inkscape"
   id="Layer_3"
   xml:space="preserve"
   height="92.443535"
   viewBox="0 0 593.68689 92.443536"
   width="593.6839"
   version="1.2"
   y="0px"
   x="0px"
   inkscape:version="0.91 r13725"
   sodipodi:docname="controller2.svg"><defs
     id="defs18" /><sodipodi:namedview
     pagecolor="#ffffff"
     bordercolor="#666666"
     borderopacity="1"
     objecttolerance="10"
     gridtolerance="10"
     guidetolerance="10"
     inkscape:pageopacity="0"
     inkscape:pageshadow="2"
     inkscape:window-width="690"
     inkscape:window-height="480"
     id="namedview16"
     showgrid="false"
     fit-margin-top="0"
     fit-margin-left="0"
     fit-margin-right="0"
     fit-margin-bottom="0"
     inkscape:zoom="0.48509347"
     inkscape:cx="296.85001"
     inkscape:cy="46.633766"
     inkscape:window-x="0"
     inkscape:window-y="0"
     inkscape:window-maximized="0"
     inkscape:current-layer="Layer_3" /><metadata
     id="metadata31"><rdf:RDF><cc:Work
         rdf:about=""><dc:format>image/svg+xml</dc:format><dc:type
           rdf:resource="http://purl.org/dc/dcmitype/StillImage" /><dc:title></dc:title></cc:Work></rdf:RDF></metadata><path
     id="path3"
     style="color:#000000;text-indent:0;text-align:start;text-transform:none;direction:ltr;block-progression:tb;baseline-shift:baseline;fill:#f4f4f4;enable-background:accumulate"
     d="M 13.562,0.8815673 C 6.085,0.8815673 0,6.9665673 0,14.443567 l 0,64.438 c 0,7.4775 6.085,13.562 13.562,13.562 7.4766,0 13.562,-6.085 13.562,-13.562 l 0,-64.438 C 27.124,6.9661673 21.039,0.8815673 13.562,0.8815673 Z m 0,2 c 6.3965,0 11.562,5.1659 11.562,11.5619997 l 0,64.438 c 0,6.3965 -5.1671,11.562 -11.562,11.562 -6.396,0 -11.562,-5.166 -11.562,-11.562 l 0,-64.438 C 2,8.0472673 7.166,2.8815673 13.562,2.8815673 Z"
     inkscape:connector-curvature="0" /><path
     id="path5"
     style="color:#000000;text-indent:0;text-align:start;text-transform:none;direction:ltr;block-progression:tb;baseline-shift:baseline;fill:#f4f4f4;enable-background:accumulate"
     d="m 135.38,1.1627673 c -7.4775,0 -13.562,6.085 -13.562,13.5619997 l 0,64.156 c 0,7.4775 6.085,13.562 13.562,13.562 7.4766,0 13.562,-6.085 13.562,-13.562 l 0,-19.25 49.25,0 c 7.4775,0 13.562,-6.0841 13.562,-13.562 0,-7.4775 -6.085,-13.562 -13.562,-13.562 l -49.25,0 0,-4.2188 49.25,0 c 7.4774,0 13.562,-6.0841 13.562,-13.562 0,-7.4779997 -6.09,-13.5629997 -13.56,-13.5629997 l -62.81,0 z m 0,2 62.812,0 c 6.3965,0 11.562,5.166 11.562,11.5619997 0,6.3976 -5.1659,11.562 -11.562,11.562 l -50.25,0 -1,0 0,1 0,6.2188 0,1 1,0 50.25,0 c 6.3965,0 11.562,5.166 11.562,11.562 0,6.3976 -5.166,11.562 -11.562,11.562 l -50.25,0 0,1 -1,0 0,1 0,19.25 c 0,6.3965 -5.1671,11.562 -11.562,11.562 -6.3965,0 -11.562,-5.166 -11.562,-11.562 l 0,-64.156 c -0.01,-6.3949997 5.16,-11.5609997 11.56,-11.5609997 z"
     inkscape:connector-curvature="0" /><path
     id="path7"
     style="color:#000000;text-indent:0;text-align:start;text-transform:none;direction:ltr;block-progression:tb;baseline-shift:baseline;fill:#f4f4f4;enable-background:accumulate"
     d="m 36.344,1.1627673 c -3.5074,0 -6.375,2.8666 -6.375,6.375 l 0,71.3439997 c 0,7.4775 6.085,13.562 13.562,13.562 7.4775,0 13.562,-6.085 13.562,-13.562 l 0,-45.469 c 0,-2.4859 1.6671,-4.375 4.0938,-4.375 l 26.375,0 c 2.4266,0 4.2812,1.9315 4.2812,4.375 l 0,45.469 c 0,7.4774 6.0841,13.562 13.562,13.562 7.4775,0 13.562,-6.0851 13.562,-13.562 l 0,-64.156 c 0.01,-7.4788997 -6.08,-13.5629997 -13.55,-13.5629997 l -69.062,0 z m 0,2 69.062,0 c 6.3955,0 11.562,5.1649 11.562,11.5619997 l 0,64.156 c 0,6.3966 -5.166,11.562 -11.562,11.562 -6.3976,0 -11.562,-5.1659 -11.562,-11.562 l 0,-45.469 c 0,-3.4905 -2.7739,-6.375 -6.2812,-6.375 l -26.375,0 c -3.5074,0 -6.0938,2.9269 -6.0938,6.375 l 0,45.469 c 0,6.3965 -5.166,11.562 -11.562,11.562 -6.3965,0 -11.562,-5.166 -11.562,-11.562 l 0,-71.3439997 c 0,-2.4276 1.9484,-4.375 4.375,-4.375 z"
     inkscape:connector-curvature="0" /><path
     id="path9"
     style="color:#000000;text-indent:0;text-align:start;text-transform:none;direction:ltr;block-progression:tb;baseline-shift:baseline;fill:#f4f4f4;enable-background:accumulate"
     d="m 241.56,1.1627673 c -15.584,0 -28.219,12.6659997 -28.219,28.2499997 l 0,32.688 c 0,15.583 12.634,28.25 28.219,28.25 l 32.688,0 c 15.584,0 28.25,-12.667 28.25,-28.25 l 0,-32.688 c 0,-15.584 -12.67,-28.2499997 -28.25,-28.2499997 l -32.688,0 z m 0,2 32.688,0 c 14.504,0 26.25,11.7459997 26.25,26.2499997 l 0,32.688 c 0,14.503 -11.746,26.25 -26.25,26.25 l -32.688,0 c -14.504,0 -26.219,-11.747 -26.219,-26.25 l 0,-32.688 c 0,-14.504 11.72,-26.2499997 26.22,-26.2499997 z"
     inkscape:connector-curvature="0" /><path
     id="path11"
     style="color:#000000;text-indent:0;text-align:start;text-transform:none;direction:ltr;block-progression:tb;baseline-shift:baseline;fill:#f4f4f4;enable-background:accumulate"
     d="m 245.22,26.287767 c -4.3016,0 -7.8125,3.511 -7.8125,7.8125 l 0,24.75 c 0,4.3015 3.5109,7.8125 7.8125,7.8125 l 24.719,0 c 4.3016,0 7.8125,-3.511 7.8125,-7.8125 l 0,-24.75 c 0,-4.3015 -3.5109,-7.8125 -7.8125,-7.8125 l -24.719,0 z m 0,2 24.719,0 c 3.2204,0 5.8125,2.592 5.8125,5.8125 l 0,24.75 c 0,3.2205 -2.5921,5.8125 -5.8125,5.8125 l -24.719,0 c -3.2204,0 -5.8125,-2.592 -5.8125,-5.8125 l 0,-24.75 c 0,-3.2205 2.5921,-5.8125 5.8125,-5.8125 z"
     inkscape:connector-curvature="0" /><path
     id="path13"
     style="color:#000000;text-indent:0;text-align:start;text-transform:none;direction:ltr;block-progression:tb;baseline-shift:baseline;fill:#f4f4f4;enable-background:accumulate"
     d="m 421.34,1.1627673 c -15.58,0 -28.22,12.6659997 -28.22,28.2499997 l 0,32.688 c 0,15.583 12.633,28.25 28.219,28.25 l 32.719,0 c 15.585,0 28.219,-12.667 28.219,-28.25 l 0,-32.688 c 0,-15.584 -12.63,-28.2499997 -28.22,-28.2499997 l -32.719,0 z m 0,2 32.719,0 c 14.505,0 26.219,11.7459997 26.219,26.2499997 l 0,32.688 c 0,14.503 -11.714,26.25 -26.219,26.25 l -32.719,0 c -14.505,0 -26.219,-11.747 -26.219,-26.25 l 0,-32.688 c 0,-14.504 11.72,-26.2499997 26.22,-26.2499997 z"
     inkscape:connector-curvature="0" /><path
     id="path15"
     style="color:#000000;text-indent:0;text-align:start;text-transform:none;direction:ltr;block-progression:tb;baseline-shift:baseline;fill:#f4f4f4;enable-background:accumulate"
     d="m 425,26.287767 c -4.3016,0 -7.8125,3.511 -7.8125,7.8125 l 0,24.75 c 0,4.3015 3.5109,7.8125 7.8125,7.8125 l 24.719,0 c 4.3016,0 7.8125,-3.5109 7.8125,-7.8125 l 0,-24.75 c 0,-4.3016 -3.5109,-7.8125 -7.8125,-7.8125 l -24.72,-10e-4 z m 0,2 24.719,0 c 3.2204,0 5.8125,2.5921 5.8125,5.8125 l 0,24.75 c 0,3.2204 -2.5921,5.8125 -5.8125,5.8125 l -24.72,0 c -3.2204,0 -5.8125,-2.592 -5.8125,-5.8125 l 0,-24.75 c 0,-3.2205 2.5921,-5.8125 5.8125,-5.8125 z"
     inkscape:connector-curvature="0" /><path
     id="path17"
     style="color:#000000;text-indent:0;text-align:start;text-transform:none;direction:ltr;block-progression:tb;baseline-shift:baseline;fill:#f4f4f4;enable-background:accumulate"
     d="m 332.25,1.3189673 c -15.584,0 -28.219,12.6659997 -28.219,28.2499997 l 0,32.688 c 0,15.242 12.105,27.647 27.219,28.188 l 0,0.09375 1,0 48.469,0 c 7.4783,0 13.562,-6.0842 13.562,-13.562 0,-7.4774 -6.0841,-13.562 -13.562,-13.562 l -43.812,0.03125 c -3.2205,0 -5.8125,-2.5921 -5.8125,-5.8125 l 0,-23.375 c 0,-3.2204 2.592,-5.8125 5.8125,-5.8125 l 43.812,0 c 7.4784,0 13.562,-6.0851 13.562,-13.562 0,-7.4773997 -6.0841,-13.5619997 -13.562,-13.5619997 l -48.469,0 z m 0,2 48.469,0 c 6.3976,0 11.562,5.1659 11.562,11.5619997 0,6.3966 -5.1649,11.562 -11.562,11.562 l -43.812,0 c -4.3015,0 -7.8125,3.5109 -7.8125,7.8125 l 0,23.375 c 0,4.3016 3.511,7.8125 7.8125,7.8125 l 43.81,-0.03 c 6.3976,0 11.562,5.1659 11.562,11.562 0,6.3977 -5.1648,11.562 -11.562,11.562 l -47.469,0 -1,0 c -14.502,0 -26.219,-11.778 -26.219,-26.281 l 0,-32.688 c 0,-14.504 11.715,-26.2499997 26.219,-26.2499997 z"
     inkscape:connector-curvature="0" /><path
     id="path19"
     style="color:#000000;text-indent:0;text-align:start;text-transform:none;direction:ltr;block-progression:tb;baseline-shift:baseline;fill:#f4f4f4;enable-background:accumulate"
     d="m 489.22,1.1627673 c -2.1484,0 -3.9062,1.7565 -3.9062,3.9062 l 0,73.8119997 c 0,7.4775 6.0859,13.562 13.562,13.562 7.4784,0 13.562,-6.0851 13.562,-13.562 l 0,-50.594 c 0,-1.313 1.1282,-2.4062 2.4688,-2.4062 1.3392,0 2.5625,1.1209 2.5625,2.4062 l 0,50.594 c 0,7.4775 6.085,13.562 13.562,13.562 7.4775,0 13.562,-6.0851 13.562,-13.562 l 0,-50.938 c 0,-1.0316 1.2236,-2.0625 2.375,-2.0625 0.58754,0 1.0909,0.2336 1.4688,0.625 0.22069,0.22879 0.40329,0.50288 0.5,0.8125 l 0,0.03125 18.188,52.469 c 0.003,0.0092 -0.003,0.02202 0,0.03125 1.6509,5.6331 6.8789,9.7188 13.031,9.7188 7.4784,0 13.531,-6.0851 13.531,-13.562 0,-1.0509 -0.11823,-2.0482 -0.34375,-3.0312 l 0,-0.0625 0,-0.03125 -21.312,-63.0939997 0,-0.03125 0,-0.03125 c -1.99,-5.0211 -6.91,-8.563 -12.62,-8.563 l -70.188,0 z m 0,2 70.188,0 c 4.8898,0 9.0557,3.0371 10.75,7.3124997 l 0.0312,0 21.219,62.938 c 0.19248,0.839 0.28125,1.6946 0.28125,2.5938 0,6.3966 -5.1337,11.562 -11.531,11.562 -5.2715,0 -9.7269,-3.5039 -11.125,-8.3125 l 0,-0.03125 0,-0.03125 -18.188,-52.469 c -0.003,-0.0087 0.003,-0.02259 0,-0.03125 -0.19248,-0.60193 -0.54159,-1.1509 -0.96875,-1.5938 -0.73815,-0.7646 -1.7638,-1.2188 -2.9062,-1.2188 -2.2326,0 -4.375,1.7101 -4.375,4.0625 l 0,50.938 c 0,6.3966 -5.166,11.562 -11.562,11.562 -6.3965,0 -11.562,-5.166 -11.562,-11.562 l 0,-50.594 c 0,-2.4747 -2.1417,-4.4062 -4.5625,-4.4062 -2.4215,0 -4.4688,1.9592 -4.4688,4.4062 l 0,50.594 c 0,6.3966 -5.1649,11.562 -11.562,11.562 -6.3954,0 -11.562,-5.166 -11.562,-11.562 l 0,-73.8119997 c -0.02,-1.07 0.82,-1.908 1.89,-1.908 z"
     inkscape:connector-curvature="0" /><g
     id="g21"
     style="fill:#ffffff;stroke:#f4f4f4"
     transform="translate(0,-0.8372327)"><path
       id="path23"
       d="m 574.5,8.076 0,-5.598 -2,0 0,-1.14 5.355,0 0,1.14 -1.995,0 0,5.599 -1.36,0 z"
       inkscape:connector-curvature="0" /><path
       id="path25"
       d="m 578.71,8.076 0,-6.739 2.036,0 1.223,4.597 1.209,-4.597 2.041,0 0,6.739 -1.265,0 0,-5.305 -1.338,5.305 -1.31,0 -1.333,-5.305 0,5.305 -1.266,0 z"
       inkscape:connector-curvature="0" /></g></svg>