<svg xmlns="http://www.w3.org/2000/svg" width="160.1476" height="200">
  <defs>
    <clipPath id="a">
      <path d="M0 271h217V0H0v271z"/>
    </clipPath>
  </defs>
  <g clip-path="url(#a)" transform="matrix(0.73800738,0,0,-0.73800738,0,200)">
    <path fill="#1c1c1d" d="M209.8333 0H7.1663c-2.163 0-3.916 1.754-3.916 3.917v263.166c0 2.163 1.753 3.917 3.916 3.917h10.084l2.5-2h176.749l3 2h10.334c2.163 0 3.917-1.754 3.917-3.917V3.917c0-2.163-1.754-3.917-3.917-3.917"/>
    <path fill="#232223" d="M19.7504 269V117c0-2.485 2.015-4.5 4.5-4.5h167.999c2.348 0 4.25 1.903 4.25 4.25V269"/>
    <path fill="#1c1c1d" d="M213.75 251.812H217v5.5h-3.25v-5.5zm0-10.375H217v5.5h-3.25v-5.5zm0-10.875H217v5.5h-3.25v-5.5zm0-19H217v5.5h-3.25v-5.5zm0 10H217v5.5h-3.25v-5.5zm0-19.937H217v5.5h-3.25v-5.5zm0-10.125H217v5.5h-3.25v-5.5zm0-10H217v5.5h-3.25v-5.5zm0-10.188H217v5.5h-3.25v-5.5zm0-10.062H217v5.5h-3.25v-5.5zM0 251.812h3.25v5.5H0v-5.5zm0-10.375h3.25v5.5H0v-5.5zm0-10.875h3.25v5.5H0v-5.5zm0-19h3.25v5.5H0v-5.5zm0 10h3.25v5.5H0v-5.5zm0-19.937h3.25v5.5H0v-5.5zM0 191.5h3.25v5.5H0v-5.5zm0-10h3.25v5.5H0v-5.5zm0-10.188h3.25v5.5H0v-5.5zm0-4.562h3.25v-5.5H0v5.5z"/>
    <path fill="#fff" d="M185.2326 118.2215l-.073-.364-.145-.545-.582-.146h-9.712v2.074c-.472-1.383-.873-2.147-2.291-2.147-.4 0-.909.073-1.564.146l-.837.109h-.072c-.328-.182-.583-.255-1.019-.255h-.109c-1.055.037-2.11.037-3.165.037h-5.092c-2.546.036-4.437 1.418-5.128 3.637v-3.637h-7.566c-.545 0-1.127 0-1.709.036-2.401.182-4.474 2.364-4.547 4.802v.29c-.182-.982-.582-1.927-1.164-2.728-1.091-1.454-2.655-2.291-4.328-2.364-1.019-.036-2.001-.073-3.019-.073l-5.638.037v6.765h3.055c-1.018.582-1.891 1.492-2.473 2.765-1.091 2.255-.909 4.546.509 6.656 1.091 1.564 2.546 2.437 4.183 2.51 1.128.036 2.219.036 3.346.036h5.493v-3.055h.036v-1.746c.036 2.327 2.037 4.583 4.219 4.692 1.2.073 2.401.109 3.638.109l6.037-.036v-3.419c.692 2.145 2.51 3.419 5.02 3.491h8.293v-3.673h-.036v-2.474h.072v-6.256l2.983 9.13c.764 2.364 2.218 3.564 4.292 3.564.291 0 .618-.036.982-.073 1.564-.254 2.691-1.2 3.201-2.691 1.273-3.892 2.509-7.784 3.782-11.676l1.128-3.528z"/>
    <path fill="#4e88a0" d="M184.4224 117.9101h-8.97v2.098h6.148c-.447 1.352-.817 2.452-1.174 3.557-.892 2.753-1.725 5.529-2.705 8.247-.237.658-.877 1.473-1.462 1.609-.985.229-1.305-.793-1.578-1.639-1.364-4.218-2.767-8.423-4.086-12.657-.31-.994-.763-1.33-1.764-1.302-2.751.075-5.506.006-8.26.031-2.789.025-4.614 1.85-4.674 4.738-.055 2.6-.06 5.204 0 7.805.068 2.933 1.834 4.717 4.652 4.757 2.482.036 4.964.008 7.534.008v-2.209h-6.375c-2.992.001-3.678-.722-3.679-3.876 0-1.963-.009-3.926.003-5.889.012-2.1.968-3.124 2.944-3.145 1.605-.017 3.209-.003 4.896-.003v6.847h-4.083v2.131h6.362v-9.021l.348-.041c1.346 4.147 2.694 8.294 4.036 12.443.767 2.371 2.18 3.335 4.459 2.985 1.269-.195 2.208-.935 2.623-2.19 1.648-4.98 3.246-9.978 4.857-14.972.024-.075-.027-.176-.052-.312m-56.2115-.0458v2.184c2.393 0 4.74-.026 7.086.008 1.963.028 3.431 1.453 3.501 3.317.069 1.824-1.383 3.384-3.313 3.519-.784.055-1.579-.02-2.358.064-1.2.13-2.076 1.261-2.074 2.568.001 1.326.867 2.511 2.077 2.546 2.566.075 5.136.023 7.772.023v-2.16h-7.544c-.003-.243-.005-.485-.007-.727.719-.032 1.438-.077 2.158-.094 2.712-.062 4.671-1.643 5.347-4.327.826-3.277-1.526-6.765-4.766-6.899-2.57-.107-5.147-.022-7.879-.022"/>
    <path fill="#4e88a0" d="M128.1894 120.9046v2.256h7.57c.001.211.002.422.003.634-.772.031-1.544.077-2.316.09-2.167.038-3.779 1.075-4.73 3.071-.967 2.033-.819 4.069.456 5.937.875 1.282 2.083 2.151 3.604 2.199 2.66.086 5.324.024 8.09.024v-2.163c-2.389 0-4.78.04-7.169-.012-2.373-.051-3.913-2.266-3.196-4.497.431-1.343 1.661-2.243 3.238-2.336.741-.044 1.49.011 2.227-.064 1.195-.122 2.102-1.249 2.116-2.539.013-1.289-.891-2.545-2.059-2.578-2.567-.072-5.138-.022-7.834-.022m26.6012 14.183v-2.134c-2.366 0-4.71.002-7.053-.001-2.464-.002-3.322-.873-3.338-3.423-.013-2.053-.006-4.106.009-6.158.018-2.37.928-3.324 3.162-3.33 2.35-.007 4.699-.002 7.137-.002v-2.191c-1.753 0-3.48-.004-5.206.001-1.092.003-2.187-.036-3.274.041-2.003.141-3.825 2.015-3.877 4.11-.075 3.008-.069 6.021-.001 9.029.044 1.927 1.671 3.911 3.513 4.014 2.947.165 5.909.044 8.928.044m20.5318-11.6981h1.803c-.281.87-.519 1.607-.757 2.344-.103-.006-.207-.013-.31-.019-.226-.713-.452-1.427-.736-2.325m-4.392-5.43c1.522 4.7 3.001 9.3 4.516 13.886.108.324.443.67.747.78.167.06.634-.299.721-.559 1.236-3.676 2.43-7.368 3.668-11.159h-5.138c-.057.546-.108 1.03-.159 1.515-.074.027-.147.054-.221.08-.293-.851-.593-1.699-.877-2.553-.753-2.266-.75-2.267-3.257-1.99m-7.6381 5.6508c-.658.192-1.048.307-1.516.443v1.94h3.333v-5.081c-1.704 0-3.398-.097-5.07.066-.434.042-1.117.88-1.138 1.377-.114 2.734-.081 5.476-.048 8.215.011.96.573 1.523 1.5 1.532 2.531.024 5.063.008 7.707.008v-2.172c-1.904 0-3.772-.053-5.636.02-1.144.045-1.585-.373-1.513-1.578.077-1.273.005-2.556.021-3.834.019-1.525.723-1.892 2.36-.936"/>
    <path fill="#4e88a0" d="M147.4879 123.2422c2.352-.439 4.788.021 7.226-.255v-2.071c-2.789 0-5.523-.068-8.248.069-.435.021-1.087.91-1.186 1.482-.189 1.1-.055 2.26-.055 3.511h7.76v-2.048h-5.425c-.024-.229-.048-.459-.072-.688m7.3033 8.8475v-2.058c-2.42-.344-4.901.22-7.278-.305.008-.189.016-.378.024-.566h5.451v-2.15h-7.739c0 1.261-.108 2.577.058 3.855.059.456.771 1.153 1.205 1.17 2.736.107 5.477.054 8.279.054"/>
    <path fill="#fff" d="M196.5 146H19.751v-4H196.5v4zm-16.625 98.187h-155.5v-4h155.5v4z"/>
  </g>
  <path fill="#fd5" d="M21.409448 11.29048v3.34806q0 .96917.09679 1.22468.104232.2467.357367.39648t.945533.14978v.326h-5.166927v-.326q.699843 0 .945532-.14978.253135-.15859.349922-.40529.104232-.2467.104232-1.21587v-7.7534q0-.96917-.104232-1.21587-.09679-.25551-.349922-.40529-.253134-.14978-.945532-.14978v-.326h4.690438q1.831505 0 2.680251.29956.848745.29957 1.384795 1.11015.53605.80177.53605 1.88548 0 1.32161-.804074 2.18505-.513715.54626-1.436913.81939l2.427116 4.04411q.476489.78415.677508.97798.30525.27313.707288.29956v.326h-3.179075l-3.253526-5.445h-.662617zm0-5.8591v5.23354h.424373q1.034874 0 1.548589-.22026.513714-.22908.804075-.81059.297805-.59031.297805-1.53305 0-1.36566-.543495-2.01765-.53605-.65199-1.734718-.65199h-.796629zm11.123039.044v4.8635h.201019q.960423 0 1.392241-.71367.431818-.71366.55094-2.10575h.282915v6.25558h-.282915q-.08934-1.02204-.379702-1.67403-.282915-.65199-.662618-.87225-.379702-.22908-1.10188-.22908v3.36568q0 .98679.06701 1.20706.07445.22027.268025.36124.193573.14097.625392.14097h.603056q1.414577 0 2.263323-.77534.856191-.77534 1.228448-2.36126h.27547l-.454154 3.7974h-8.725704v-.326h.335032q.439263 0 .707288-.18502.193574-.12335.297805-.42291.0819-.21146.0819-1.11015V6.83223q0-.81058-.03723-.99561-.07445-.30837-.27547-.47578-.282915-.24669-.774294-.24669h-.335031v-.326h8.450234v3.53308h-.282916q-.215909-1.29517-.610501-1.85905-.387148-.56388-1.101881-.8282-.416928-.1586-1.56348-.1586H32.53249zm16.20807-.96036v4.14102h-.290361q-.327586-1.62117-1.221003-2.48461-.893416-.86345-2.025078-.86345-.945533 0-1.734717.64318-.789185.64318-1.153997 1.68284-.469044 1.33041-.469044 2.96039 0 1.60354.342477 2.92514.342476 1.31279 1.0721 1.99122.729623.66961 1.891065.66961.952978 0 1.742163-.4934.79663-.4934 1.675156-1.70046v1.03085q-.848745 1.04847-1.771943 1.52424-.915752.46697-2.1442.46697-1.615596 0-2.873824-.76653-1.250784-.76653-1.935737-2.20267-.677508-1.43614-.677508-3.0573 0-1.70927.75196-3.24233.759404-1.53306 2.039968-2.37889 1.288009-.84582 2.732367-.84582 1.064655 0 2.248432.54626.684953.31719.871081.31719.238245 0 .409483-.20265.178683-.21146.230799-.6608h.290361zm7.184561 8.81949h-3.566222l-.424373 1.16301q-.208464.5815-.208464.96036 0 .50221.342476.7401.201019.14097.990204.21145v.326h-3.357758v-.326q.543495-.0969.893417-.52864.349921-.44053.863636-1.80619l3.610892-9.53315h.141456l3.640676 9.79748q.52116 1.39208.856192 1.75332.253134.27313.714735.31718v.326h-4.884012v-.326h.201016q.588165 0 .826412-.19383.16379-.14097.16379-.40529 0-.15859-.04467-.326-.01487-.0793-.223355-.6608l-.536052-1.489zm-.253134-.65199l-1.503919-4.11459-1.548589 4.11459h3.052508zm14.555245-.14097l-.379698 4.19388h-8.96395v-.326h.335032q.439262 0 .707289-.18502.193574-.12335.297805-.42291.08189-.21146.08189-1.11015V6.83223q0-.91631-.08189-1.14539-.0819-.22908-.335032-.39648-.245693-.17621-.670063-.17621h-.335032v-.326h5.382834v.326h-.439263q-.439262 0-.707289.18502-.193569.12335-.305246.42291-.0819.21146-.0819 1.11015v7.61242q0 .91631.08934 1.17182.08934.2467.349924.37005.186129.0793.900864.0793h.8413q.804073 0 1.340126-.33481.536047-.3348.923197-1.05728.394591-.72247.744515-2.13218h.305247zm7.340911-2.141q1.436911.39648 2.01763.96037.833859.80177.833859 2.07932 0 1.34803-.915756 2.2291-1.124213 1.06609-3.268413 1.06609h-5.129705v-.326q.699842 0 .945536-.14978.253133-.15859.349918-.40529.104237-.2467.104237-1.21587v-7.7534q0-.96917-.104237-1.21587-.09678-.25551-.349918-.40529-.253134-.14978-.945536-.14978v-.326H75.9451q1.734717 0 2.456893.37005.722182.36124 1.139106 1.09252.416929.72248.416929 1.54187 0 .86345-.528607 1.54187-.528601.66961-1.861281 1.06609zm-2.710032-.23789q1.057207 0 1.556034-.28194.506268-.28194.774294-.79296.268027-.51102.268027-1.30398 0-.79296-.268027-1.29517-.26058-.51102-.751961-.77534-.491375-.26432-1.578367-.25551v4.7049zm0 .68724v3.83264l-.0074.44054q0 .47577.201021.72247.208462.23789.610499.23789.595612 0 1.094439-.30837.506268-.31719.774294-.9075.268021-.59913.268021-1.33042 0-.83701-.327585-1.49781-.327586-.66961-.900859-.93393-.573278-.26432-1.712384-.25551zM86.85967 4.6208q2.412227-.10573 3.916143 1.66522 1.511368 1.77094 1.511368 4.43177 0 2.27315-1.124218 4.00004-1.48903 2.29078-4.206503 2.29078-2.724925 0-4.213949-2.18505-1.176336-1.72689-1.176336-4.09696 0-2.66083 1.526255-4.43177 1.533701-1.77976 3.76724-1.67403zm.08934.56388q-1.384798 0-2.106974 1.67403-.588166 1.37447-.588166 3.94718 0 3.05731.908305 4.51988.632837 1.02204 1.771943 1.02204.766853 0 1.280567-.44053.655171-.56389 1.019982-1.79738.364811-1.24231.364811-3.23352 0-2.37007-.372257-3.54189-.372258-1.18063-.952977-1.66522-.573273-.48459-1.325234-.48459zm12.314261 4.54631l2.784489 4.88993q.6924 1.21587.98275 1.48019.29781.25551.69985.30837v.326h-4.921244v-.326q.588165-.0529.759407-.21145.171236-.15859.171236-.38767 0-.15859-.0521-.28194-.104231-.26432-.521154-.9868l-1.474143-2.58153-1.541142 2.2291q-.692396 1.01323-.692396 1.37447 0 .25551.178682.47578.178683.22026.528607.31718.156343.0529.640278.0529v.32599h-3.878917v-.32599q.662617-.11454 1.04232-.42292.498827-.40529 1.39224-1.69165l2.002743-2.8899-2.56857-4.46701q-.632838-1.10134-.722182-1.22469-.201015-.29075-.39459-.4141-.193575-.12335-.536053-.18502v-.326h5.010582v.326h-.253134q-.431822 0-.603058.1674-.171236.15859-.171236.40529 0 .19384.0521.33481l.513714.91631 1.250788 2.25553L100.0078 7.6517q.81896-1.18944.81896-1.66522 0-.23788-.11912-.44053-.11168-.20265-.32759-.31718-.21591-.11454-.670064-.11454v-.326h3.715124v.326q-.43926.009-.70728.13216-.26803.11454-.57328.44053-.19358.21146-.96787 1.31279l-1.913403 2.73131z" style="-inkscape-font-specification:'serif Bold'" font-size="28.09443855" letter-spacing="0" word-spacing="0" font-weight="bold" font-family="serif"/>
</svg>
