<svg xmlns="http://www.w3.org/2000/svg" width="350.43799" height="97.435867">
  <path fill="#efac50" d="M133.35249 97.43587c-.2825-.80125-.97875-.575-1.5575-.6175-5.74875-.4225-10.8675-4.8675-11.53625-11.3825-.3875-3.7775-.08375-7.4175.6725-11.06875 1.305-6.3 5.8175-9.54625 11.3975-11.6125 1.87375-.69375 3.8225-1.36875 5.90625-1.2975 2.395.08 3.05.8175 2.27125 3.02625-1.0425 2.95125-2.3675 5.8025-3.405 8.75625-1.03875 2.95875-1.8425 5.9625-1.9375 9.17375-.12625 4.30375 1.9025 6.83375 5.2575 8.0175 3.67 1.29375 8.1075-.3475 10.32125-3.54125 1.26-1.82 1.52375-3.84375 1.98-5.94125.5775-2.65125-.2225-4.9375-.63375-7.3825-.39875-2.365-1.6825-3.815-3.86375-4.7-.89125-.36125-2.02-.56625-2.45875-1.92625 4.4075-3.0725 9.38625-4.15375 14.63875-3.5075 2.03625.25125 4.01 1.3725 4.94875 3.64375 1.2725 3.0775 2.04625 6.14875 1.1 9.485-.3025 1.06375-.19 2.24125-.45375 3.32125-1.80375 7.405-7.0675 11.63625-13.68875 14.4-3.64125 1.51875-7.465 2.62875-11.50375 2.58375-.3475-.00375-.51.28-.6325.57h-6.8225z"/>
  <path fill="#7b9ac8" d="M205.92124 97.43587c-.915-1.24375-2.2925-.4-3.42625-.74875-3.79125-1.1675-6.75875-3.32-8.74375-6.785-.24-.41875-.25875-1.03-.8875-1.1575l.0425.04375c-.60875-2.92375-.77125-5.88625-.62125-8.8575.43-8.53 4.7825-14.9625 12.88-17.42125 1.73-.525 3.5075-1.005 5.35875-1.0575 1.5675-.0425 2.16.655 2.25375 2.21625.14625 2.435-1.36625 4.27875-2.21875 6.28125-1.65125 3.8825-2.515 7.92125-3.31375 11.995-.62375 3.185 1.91 7.1275 5.11125 8.1325 6.15125 1.9325 11.90125-.97375 12.72375-8.9375.215-2.08125.13125-4.2225-.34125-6.405-.765-3.5325-2.58125-5.66-5.9975-6.5675-.27-.07125-.485-.35125-.89375-.6625.42-.83875 1.05875-1.32375 1.8825-1.775 3.90875-2.1425 8.1175-2.73875 12.4625-2.36 3.0425.265 6.35125 3.35125 6.49625 6.45375.14625 3.13875.29375 6.28875-.3475 9.495-1.26 6.30875-5.355 10.16875-10.4525 13.25875-4.42375 2.68125-9.285 4.11375-14.4925 4.23875-.52125.0125-1.035.03-1.2725.62h-6.2025z"/>
  <path fill="#00a9e6" d="M94.13088 96.93336c-8.6525-.10875-15.48375-2.09875-20.72875-7.73625-3.53625-3.80125-5.3325-8.4175-5.8925-13.71625-.6075-5.74125.49875-10.87 3.895-15.3925 2.84875-3.79125 6.5075-6.7825 10.72375-9.02875 5.02625-2.6775 10.25-4.86125 15.845-6.00625 5.12875-1.05 10.25875-1.39625 15.51125-.485 2.3725.41125 4.86125.50125 7.2975.74125 1.38625.135 2.2725.6225 1.9325 2.08625-.9625 4.13375-1.00375 8.41875-2.28625 12.52125-.52625 1.68125-1.26875 3.21125-2.035 4.7275-.8775 1.73625-3.29625 1.74-4.20125.0225-.9875-1.875-1.82875-3.85375-2.48-5.86875-.35125-1.085-.78875-2.15875-1.3875-3.025-1.995-2.88375-4.20875-4.01125-7.74875-3.225-8.47375 1.88-13.16875 7.69875-16.75875 14.7825-1.555 3.065-2.405 6.4575-2.1025 10.03625.4225 5.02125 2.9125 9.725 8.0175 11.0525 1.94875.50625 3.7525.2175 5.7-.17875 4.445-.90375 8.2875-2.69125 11.27625-6.1625 1.58-1.83625 3.91875-1.99125 6.02625-2.575 1.01875-.2825 1.6925.40125 1.86875 1.5375.59375 3.8325-.84875 6.9825-3.7575 9.19-4.45625 3.38125-13.0175 7.2975-18.715 6.7025"/>
  <path fill="#e56565" d="M192.86387 88.74449c.1775 2.23-.79625 3.6275-2.575 5.09625-3.21625 2.65375-6.805 2.45-10.47375 2.34125-3.30125-.09875-6.41625-1.0825-9.18-2.81125-1.665-1.04-2.53-2.7325-2.59875-4.92875-.185-5.89 1.47125-11.44125 2.8575-17.03625 1.45375-5.86375 3.02625-11.7 4.71-17.50125 1.005-3.45875 2.89625-6.43 5.535-8.9725 2.00875-1.93625 4.03375-1.525 6.14875-.53125 1.93875.91125 3.19125 2.14625 3.20625 4.6675.02375 3.9925-1.4425 7.55625-2.645 11.17375-2.48 7.4625-4.58125 15.02625-6.575 22.6225-1.15 4.3825 1.22125 6.48875 5.73875 5.43875 1.94125-.45125 4.11875-1.84875 5.89375.485l-.0425-.04375z"/>
  <path fill="#d78fac" d="M276.95362 81.50661c-1.3075-.975-1.47375-2.0575-2.05875-2.87875-1.9025-2.6675-4.24875-3.54375-7.41625-2.675-5.65 1.54875-9.1325 5.52125-11.72375 10.48375-.9 1.72375-1.70625 3.49875-2.64375 5.20125-1.655 3.00625-6.1775 4.61-9.06875 3.08375-1.1225-.5925-2.16-1.50875-2.17125-3.125-.0175-2.675.0825-5.30125.9725-7.86875 1.595-4.6075 3.0675-9.2475 4.10375-14.03125.33625-1.55375 1.19625-3.06375 2.09125-4.4125 1.605-2.42 7.965-2.8775 9.80375-.7475 1.49375 1.73 1.14 3.85625.8675 5.8925-.0625.47-.5375.88625.09125 1.6075 6.73125-5.70875 13.5875-11.37 23.76375-10.45-.60875 7.27125-3.85625 13.35875-6.61125 19.92"/>
  <path fill="#242121" d="M5.73625 5.23837c2.8325-1.7375 4.5625-5.2825 8.51625-5.18625 1.4275.03375 2.85625.005 4.46125.005-1.95375 8.12875-3.835 15.955-5.73625 23.8625 4.41-1.5375 4.29875-1.65375 5.705-6.03375 1.4025-4.36875 2.56625-8.78625 3.66125-13.23375.47375-1.925 3.91875-4.60875 5.87375-4.5825 2.35125.03125 4.71625-.19875 7.10125.1625-1.86625 7.82-3.705 15.53125-5.66375 23.74125 3.01125-1.735 5.1875-3.3 5.7325-6.5675.6225-3.73375 1.62125-7.405 2.44375-11.10625.5875-2.64125 3.1475-3.64 4.59875-5.5625.845-1.11875 2.0825-.62 3.1575-.66125 1.73125-.0675 3.4675-.01875 5.275-.01875-1.90875 7.62875-3.775 14.965-5.5625 22.32125-.40125 1.64875-.235 1.365-2.345 3.63125l-2.5625 2.19875c-1.655 1.42-3.32 2.3225-5.67375 2.2975C23.1475 30.38212 11.5725 30.44962 0 30.44962c0-.62 5.61375-25.13625 5.73625-25.21125m342.03174 23.81762h-11.3125c.8075-2.9925 1.6125-6.01625 2.44125-9.03375 1.05625-3.84875.15-5.0725-3.79-5.07875-.925-.00125-1.85 0-2.96625 0-.9275 3.1925-1.80625 6.4125-2.805 9.595-1.11875 3.565-3.515 5.355-7.15125 5.2625-2.08125-.05375-4.25875.51-6.2775-.42125.86875-4.21625 5.08625-16.8425 5.62125-18.77875h17.09c2.055 0 4.115.09 6.165-.0225 2.355-.13 4.12125.87875 5.655 2.50375 0 2.0675-1.81375 12.58625-2.67 15.97375m-180.35575-14.059c-8.28125-.19-9.87125.4525-10.3775 4.06875 6.10375.69625 6.4775.555 10.3775-4.06875m9.3575 1.9425c2.61375-2.46 5.46375-3.7325 8.05625-5.40625 1.13375-.73125 2.3725-.9775 3.75-.9575 4.855.0675 9.71125.0625 14.5675.005 1.575-.01875 2.93375.295 4.30625 1.14375 2.3775 1.47 2.97875 3.20875 1.40875 5.4425-.94 1.33875-2.2075 2.34875-3.8625 2.81375-3.0525.855-6.045.9475-9.03375-.13375.1075-.55125.12875-.75.185-.93875.3425-1.15125 1.90375-2.11625.585-3.5175-.6575-.6975-3.43-.48125-4.64.0375-2.785 1.19125-3.6025 3.6875-4.08625 6.2375-.52125 2.7475-1.665 5.29125-2.08125 8.03875h-11.58625c.86375-4.09 1.7-8.0525 2.5775-12.21125-1.54625.5475-2.25875 1.64375-3.11375 2.45125-3.5325 3.33625-7.67625 4.2025-12.33625 3.71375-1.82125-.19125-3.67875-.03125-5.425-.03125-.525.85-.4075 1.52-.15125 2.39125h15.0125c-2.1525 2.425-4.38875 4.4625-7.78625 4.43875-4.545-.03125-9.09125.0125-13.6375-.025-.88375-.0075-1.72625.03625-2.66375-.39-3.03125-1.37875-4.29625-2.12375-3.02625-6.24125.945-3.065 1.2175-6.35125 3.87875-8.575 1.775-1.4825 3.68-2.8075 5.48-4.26125.75875-.61375 1.58-.34 2.3625-.34375 5.785-.035 11.57125-.025 17.3575-.0175 3.14875.005 3.815.69125 3.9 3.97125.01625.6175.0025 1.23625.0025 2.365"/>
  <path fill="#242121" d="M194.72537 30.186c2.0475-2.05 4.0225-3.95875 5.90875-5.95.68875-.7275 1.47-.62125 2.2675-.6025 8.03125.1825 16.06875-.38625 24.095.28125 1.715.1425 2.44375-.7725 3.13625-4.01-3.53 0-7.0075-.22875-10.44125.06-3.985.33625-6.68375-1.97375-6.38-6.43625.34125-4.9925 2.6675-8.67625 6.60375-11.47875.69375-.49375 1.55375-.79375 2.555-.78625 8.23875.06125 16.47875.035 25.23875.035-1.81 1.84375-3.34125 3.31625-4.76375 4.8875-.75375.83125-1.64625.68875-2.54875.69-3.3075.00875-6.615-.01625-9.9225.01-3.26625.025-4.55125 1.1625-5.33875 4.95625 3.6325 0 7.19625.035 10.75875-.0125 2.40625-.0325 4.405.87875 5.80625 2.73 1.40125 1.85 1.08875 4.22.72375 6.24125-.70625 3.895-2.7325 7.11-6.46875 8.93-.8975.4375-1.8075.75125-2.885.7475-12.50625-.04625-25.01375-.03125-37.52-.03875-.17-.00125-.34125-.10125-.825-.25375m75.4265-5.44713c2.79625-1.2925 4.74375-3.1325 5.47-6.38375.89625-4.015 2.40375-4.935 4.36125-7.0675 1.16125-1.265 2.71125-.5275 4.0825-.66625 1.0025-.10125 2.0225-.02 3.0875-.02-.4375 4.47375-2.0975 8.40125-2.56375 12.58625-.2275 2.0325-6.615 5.50625-7.78875 6.7725-.51125.55125-1.09125.485-1.68875.485-11.04625.00125-22.09125-.00375-33.13625-.01875-.1875-.00125-.375-.145-.69875-.2775.71875-4.3925 1.81875-8.74875 2.75625-13.11375.5525-2.57125 3.295-4.0575 5.17-5.91625 1.085-1.075 2.54125-.3875 3.825-.4975 1.1175-.095 2.25-.02 3.7525-.02-.435 5.07625-2.14 9.73125-3.13375 14.41375.4525.43375.6075.05.84125-.02125 4.39875-1.3525 4.7775-5.1775 5.38-8.8225.49125-2.965 3.43-5.5625 6.4625-5.56875 1.96125-.00375 3.9225.00125 5.88375.02.19125.0025.3825.135.57375.2075-.845 4.495-2.885 14.13375-2.63625 13.90875m-136.37874-9.43876c-1.815-.545-3.0525-.3525-4.2675-.33875-2.04875.02375-4.475 1.11875-5.20375 3.84875-.5425 2.03125-1.48875 4.64875-.66875 7.0925 4.50625.40625 7.15125-.22625 8.86625-4.395.6875-1.67 1.27375-4.08375 1.27375-6.2075m16.705-11.5175c-1.68625 2.365-2.9 4.43875-4.4775 6.185-1.88 2.08125-2.17625 4.60875-2.73875 7.1275-.97875 4.38-2.05 8.74-3.14125 13.35375h-12.3475c-3.51 0-7.02.0125-10.52875-.0025-4.1975-.01875-6.2125-2.24375-5.55875-6.3825.2925-1.85.9075-3.67125 1.56875-5.43375.63-1.68125.9125-2.415 2.46-3.7125 1.12375-.94375 0 0 4.195-2.9375 2.6275-1.61125 2.3425-1.4475 3.85625-1.40125 2.5775.08125 5.16125-.01625 7.74125.0375 1.49375.03125 2.58625-.18625 3.6875-1.72 2.56125-3.57125 1.645-2.3525 2.56125-3.57125.51-.6775 1.04125-1.555 2.15375-1.54875 3.36.0175 6.72125.00625 10.56875.00625M59.09725 26.00936c6.67375-.00375 8.9925-4.46875 8.8375-10.89-6.305-1.015-10.20625 2.02-8.8375 10.89m19.095-3.8525c-.39375 1.6275-1.25875 2.82375-2.605 3.7025-2.09125 1.36625-4.24625 2.635-6.30875 4.0425-.84625.5775-1.70875.5475-2.61875.5475-4.96125 0-9.935.215-14.88125-.06375-4.37875-.2475-6.145-2.80875-5.035-6.6325.3875-1.3375.68625-2.75125 1.1725-3.99125.7175-1.83 1.355-3.65625 3.36875-5.0225 3.5975-2.75875 2.3425-1.9175 3.5975-2.75875 1.3225-.88625 2.675-1.50625 4.46125-1.44375 5.265.1825 10.54125.0625 15.81375.065 3.96625.0025 5.73 2.2575 4.545 6.0925-.28625.9275-1.27375 4.48125-1.51 5.4625m229.32199-6.76325c-2.7675-.72-5.075-1.02625-7.08375 1.4025-.90375 1.09375-1.805 2.23125-2.4925 3.40875-.6175 1.06125-1.1275 2.52875-.06625 3.83625 1.2025 1.48 2.845 2.23125 4.61 2.65 1.16125.275 1.77625-.35375 2.10625-1.61625.82375-3.14625 1.86875-6.235 2.92625-9.68125m7.2825 13.815c-8.0675 0-16.20125.03125-24.335-.02125-2.0675-.01375-4.32125-2.88625-4.54375-5.3125-.49375-5.37375 2.0875-8.88875 6.5225-11.50375 2.1725-1.28 4.34125-1.86 6.8725-1.81375 7.0075.1275 14.01875.04375 21.1025.04375-.30375 1.75875-4.275 14.5125-5.61875 18.6075M81.73138 12.51075c.575-1.4775 1.11625-1.92875 2.5325-1.92375 7.3375.03125 14.67625-.08375 22.01125.06375 2.86375.0575 4.935 1.66 4.83625 4.82-.1225 3.90375-1.47 7.4725-2.295 11.17875-.17125.76625-.015 1.61875-.52 2.44125H97.90013c.51-2.86375.83-5.63 1.5625-8.2825.28375-1.0275.39-1.995.375-2.99375-.02875-1.91875-.87625-2.78125-2.75375-2.85875-1.435-.06-2.87375-.0125-4.395-.0125-.82125 3.1625-1.5425 6.2475-2.4325 9.28375-1.06 3.61125-3.86625 5.59625-7.64 5.6025-5.38625.0075-5.2725.03375-4.0875-5.18125.39375-1.7375 2.3175-9.865 3.2025-12.1375"/>
</svg>
