<?xml version="1.0" encoding="UTF-8" standalone="no"?>
<!-- Generator: Adobe Illustrator 13.0.0, SVG Export Plug-In . SVG Version: 6.00 Build 14948)  -->

<svg
   xmlns:ns="&amp;ns_sfw;"
   xmlns:dc="http://purl.org/dc/elements/1.1/"
   xmlns:cc="http://creativecommons.org/ns#"
   xmlns:rdf="http://www.w3.org/1999/02/22-rdf-syntax-ns#"
   xmlns:svg="http://www.w3.org/2000/svg"
   xmlns="http://www.w3.org/2000/svg"
   xmlns:sodipodi="http://sodipodi.sourceforge.net/DTD/sodipodi-0.dtd"
   xmlns:inkscape="http://www.inkscape.org/namespaces/inkscape"
   version="1.2"
   id="Layer_3"
   x="0px"
   y="0px"
   width="596.24298"
   height="218.47"
   viewBox="0 0 596.24296 218.47"
   xml:space="preserve"
   inkscape:version="0.91 r13725"
   sodipodi:docname="controller.svg"><defs
     id="defs46" /><sodipodi:namedview
     pagecolor="#ffffff"
     bordercolor="#666666"
     borderopacity="1"
     objecttolerance="10"
     gridtolerance="10"
     guidetolerance="10"
     inkscape:pageopacity="0"
     inkscape:pageshadow="2"
     inkscape:window-width="690"
     inkscape:window-height="480"
     id="namedview44"
     showgrid="false"
     fit-margin-top="0"
     fit-margin-left="0"
     fit-margin-right="0"
     fit-margin-bottom="0"
     inkscape:zoom="0.48145317"
     inkscape:cx="292.12151"
     inkscape:cy="95.233995"
     inkscape:window-x="0"
     inkscape:window-y="0"
     inkscape:window-maximized="0"
     inkscape:current-layer="Layer_3" /><metadata
     id="metadata55"><rdf:RDF><cc:Work
         rdf:about=""><dc:format>image/svg+xml</dc:format><dc:type
           rdf:resource="http://purl.org/dc/dcmitype/StillImage" /><dc:title></dc:title></cc:Work></rdf:RDF><ns:sfw><ns:slices /><ns:sliceSourceBounds
         x="668.378"
         y="444.268"
         width="596.243"
         height="218.469"
         bottomLeftOrigin="true" /></ns:sfw></metadata><path
     id="polyline3"
     d="m 400.376,0 -0.313,0.531 -6,9.281 1.688,1.094 5.656,-8.781 91.5,9.906 3.375,8.188 1.844,-0.75 -3.594,-8.75 -0.219,-0.563 -0.594,-0.063 L 401,0.062 400.376,0 Z"
     inkscape:connector-curvature="0"
     style="fill:#f4f4f4" /><path
     id="polygon5"
     d="M 391.532,6.562 10.75,27.437 10.344,27.468 10.063,27.781 0.25,39.312 0,39.593 l 0,0.375 0,49.594 0,39.344 0,49.594 0,0.375 0.25,0.281 9.813,11.531 0.281,0.313 0.406,0.031 380.782,20.875 0.375,0.031 0.313,-0.25 17.656,-13.813 78.625,-5.813 12.656,11.469 0.406,0.375 0.5,-0.125 5.906,-1.469 0.313,-0.094 0.188,-0.25 7.625,-8.813 0.125,-0.156 0.063,-0.188 4.906,-14.719 0.063,-0.156 0,-0.188 0,-4.156 0,-1 -0.531,0 0,-0.594 0.531,0 0,-1 0,-59.091 0,-5.344 0,-59.094 0,-1 -0.531,0 0,-0.594 0.531,0 0,-1 0,-4.156 0,-0.156 -0.063,-0.156 -4.906,-14.75 -0.063,-0.188 -0.125,-0.125 -7.625,-8.844 -0.188,-0.25 -0.313,-0.094 -5.906,-1.469 -0.5,-0.125 -0.406,0.375 -12.688,11.5 -78.594,-5.844 -17.656,-13.813 -0.313,-0.219 -0.374,0 0,0.002 z m -0.25,2.031 17.625,13.75 0.25,0.188 0.281,0.031 79.313,5.875 0.406,0.031 0.344,-0.281 12.625,-11.438 5.094,1.313 7.219,8.406 4.813,14.469 0,2.938 -0.531,0 0,1 0,2.594 0,1 0.531,0 0,58.094 0,5.344 0,58.094 -0.531,0 0,1 0,2.594 0,1 0.531,0 0,2.938 -4.813,14.438 -7.25,8.469 -5.063,1.281 -12.625,-11.438 -0.344,-0.281 -0.406,0.031 -79.313,5.875 -0.281,0.031 -0.25,0.188 -17.625,13.75 L 11.313,189.062 2,178.124 2,128.906 2,89.562 2,40.343 11.313,29.406 391.282,8.593 Z"
     inkscape:connector-curvature="0"
     style="fill:#f4f4f4" /><path
     id="polyline7"
     d="m 496.282,198.25 -3.375,8.188 -91.5,9.906 -5.656,-8.781 -1.688,1.094 6,9.313 0.313,0.5 0.625,-0.063 92.719,-10.031 0.594,-0.063 0.219,-0.563 3.594,-8.75 -1.845,-0.75 z"
     inkscape:connector-curvature="0"
     style="fill:#f4f4f4" /><path
     id="polyline9"
     d="m 394.719,39.937 -386.594,5.25 -0.094,0 -0.125,0 -5.969,1.5 -0.781,0.188 0,0.781 0,41.5 0,40.156 0,41.5 0,0.813 0.781,0.188 5.969,1.469 0.125,0.031 0.094,0 386.594,5.25 0.031,0 125,-3.969 -0.063,-2 -124.938,3.969 -0.063,0 -386.438,-5.25 -5.094,-1.281 0,-40.719 0,-40.157 0,-40.719 5.094,-1.25 386.438,-5.25 0.063,0 124.938,3.938 0.063,-2 -125,-3.938 -0.031,0 0,0 z"
     inkscape:connector-curvature="0"
     style="fill:#f4f4f4" /><path
     id="polyline11"
     d="m 266.906,43.25 -1.031,0.031 -257.781,3.187 -0.125,0 -0.125,0.031 -5.906,1.719 0.563,1.906 5.625,-1.656 0.063,0 256.719,-3.188 0,37.906 0,52.094 0,37.906 -256.719,-3.188 -0.063,0 -5.625,-1.656 -0.563,1.906 5.906,1.719 0.125,0.031 0.125,0 257.781,3.188 1.031,0.031 0,-1.031 0,-38.906 0,-52.094 0,-38.905 0,-1.031 0,0 z"
     inkscape:connector-curvature="0"
     style="fill:#f4f4f4" /><g
     id="g13"
     transform="translate(-6.973,-51.894)"><path
       d="m 281.418,226.729 -7.46,-7.463 0.002,-32.573 0,-4.283 9.912,-0.002 0,-1.219 -9.912,0 0,-4.119 9.912,-0.002 0,-1.22 -9.912,0 0,-4.763 9.91,0 0,-1.222 -9.91,0 0,-4.853 9.912,0 0,-1.224 -9.912,0 0,-4.393 9.912,0 0,-1.224 -9.912,0 0,-4.208 9.91,-0.002 0,-1.219 -9.91,0 0,-4.579 9.91,0 0,-1.222 -9.91,0 0,-4.578 9.91,0 0,-1.222 -9.91,0 0,-4.396 9.91,0 0,-1.222 -9.912,0 0,-32.532 7.46,-7.458 110.2,0 8.32,8.316 0,31.674 -10.957,0 0,1.222 10.955,0 0,4.396 -10.955,0 0,1.222 10.955,0 0,4.578 -10.955,0 0,1.222 10.955,0 0,4.579 -10.955,0 0,1.221 10.955,0 0,4.208 -10.955,0 0,1.224 10.955,0 0,4.393 -10.955,0 0,1.224 10.955,0 0,4.853 -10.955,0 0,1.222 10.955,0 0,4.763 -10.955,-0.002 0,1.224 10.955,0 0,4.119 -10.955,0 0,1.221 10.957,0 0,5.021 0,30.979 -8.32,8.32 -110.2,0 0,-10e-4 z m -5.459,-40.037 0,31.745 6.287,6.289 108.544,0 7.146,-7.148 0,-30.148 0,-3.021 -10.955,0 0,-4.222 0,-1.002 10.955,0 0,-0.116 -10.955,0 0,-5.223 10.957,0 0,-0.762 -10.957,0 0,-5.222 10.957,0 0,-0.853 -10.957,0 0,-5.224 10.957,0 0,-0.394 -10.957,0 0,-5.223 10.955,0 0,-0.208 -10.955,0 0,-5.221 10.955,0 0,-0.579 -10.955,0 0,-5.222 10.955,-0.002 0,-0.577 -10.955,0 0,-5.221 10.957,-0.002 0,-0.394 -10.957,0 0,-5.222 10.955,0 0,-28.844 -7.146,-7.146 -108.543,0 -6.289,6.287 0,29.704 9.912,0 0,5.222 -9.912,0 0,0.396 9.912,0 0,5.221 -9.912,0 0,0.579 9.912,0 0,5.222 -9.912,0 0,0.579 9.912,0 0,5.221 -9.912,0 0,0.208 9.912,0 0,5.223 -9.912,0 0,0.394 9.912,0 0,5.224 -9.912,0 0,0.853 9.912,0 0,5.222 -9.912,0 0,0.762 9.912,0 0,5.223 -9.912,0 0,0.116 9.912,0 0,5.224 -9.912,0 10e-4,2.282 0,0 z"
       id="path10"
       inkscape:connector-curvature="0"
       style="fill:#f4f4f4" /></g><g
     id="g17"
     transform="translate(-6.973,-51.894)"><path
       d="m 401.804,95.75 8.444,0.234 0,128.288 -7.418,0.184 -0.025,-0.999 0.025,0.999 -1.026,0.023 0,-128.729 0,0 z m 2.002,126.681 4.44,-0.109 0,-124.393 -4.44,-0.125 0,124.627 0,0 z m 7.021,-126.428 7.982,0.222 0,127.833 -6.956,0.174 -0.025,-0.999 0.025,0.999 -1.026,0.025 0,-128.254 0,0 z m 2.002,126.204 3.982,-0.1 0,-123.937 -3.982,-0.112 0,124.149 0,0 z m 6.559,-125.965 7.985,0.222 0,127.38 -6.959,0.175 -0.025,-0.998 0.025,0.998 -1.026,0.025 0,-127.802 0,0 z m 2.002,125.751 3.983,-0.101 0,-123.481 -3.983,-0.112 0,123.694 0,0 z m 6.561,-125.511 7.982,0.222 0,126.926 -6.958,0.174 -0.023,-0.999 0.023,0.999 -1.024,0.025 0,-127.347 0,0 z m 2,125.298 3.982,-0.099 0,-123.03 -3.982,-0.112 0,123.241 0,0 z m 6.562,-125.059 7.986,0.224 0,126.472 -6.961,0.176 -0.025,-1.001 0.025,1.001 -1.025,0.025 0,-126.897 0,0 z m 2.001,124.845 3.983,-0.101 0,-122.575 -3.983,-0.112 0,122.788 0,0 z m 6.561,-124.604 7.984,0.224 0,126.018 -6.958,0.173 -0.025,-0.999 0.025,0.999 -1.026,0.023 0,-126.438 0,0 z m 2.002,124.39 3.98,-0.099 0,-122.122 -3.98,-0.112 0,122.333 0,0 z m 6.56,-124.149 7.984,0.222 0,125.565 -6.958,0.174 -0.025,-0.999 0.025,0.999 -1.026,0.025 0,-125.986 0,0 z m 2.002,123.936 3.982,-0.1 0,-121.67 -3.982,-0.112 0,121.882 0,0 z m 6.56,-123.696 7.984,0.222 0,125.112 -6.96,0.173 -0.023,-0.999 0.023,0.999 -1.024,0.025 0,-125.532 0,0 z m 2,123.484 3.985,-0.101 0,-121.216 -3.985,-0.109 0,121.426 0,0 z m 6.56,-123.245 7.984,0.222 0,124.66 -6.959,0.174 -0.024,-0.999 0.024,0.999 -1.025,0.025 0,-125.081 0,0 z m 2.002,123.032 3.982,-0.099 0,-120.766 -3.982,-0.112 0,120.977 0,0 z m 6.562,-122.793 7.984,0.224 0,124.206 -6.96,0.173 -0.025,-0.998 0.025,0.998 -1.024,0.025 0,-124.628 0,0 z m 1.998,122.577 3.984,-0.099 0,-120.31 -3.984,-0.112 0,120.521 0,0 z m 6.564,-122.336 7.984,0.222 0,123.754 -6.96,0.173 -0.023,-0.999 0.023,0.999 -1.024,0.023 0,-124.172 0,0 z m 2,122.123 3.984,-0.099 0,-119.856 -3.984,-0.112 0,120.067 0,0 z m 6.562,-121.883 7.982,0.222 0,123.3 -6.958,0.174 -0.023,-0.999 0.023,0.999 -1.024,0.025 0,-123.721 0,0 z m 2,121.67 3.983,-0.1 0,-119.401 -3.983,-0.112 0,119.613 0,0 z m 6.562,-121.431 7.982,0.222 0,122.847 -6.958,0.175 -0.025,-0.999 0.025,0.999 -1.024,0.023 0,-123.267 0,0 z m 1.998,121.217 3.984,-0.099 0,-118.949 -3.984,-0.112 0,119.16 0,0 z m 6.562,-119.948 0,-1.029 8.447,0.234 0,122.369 -8.447,0.21 0,-121.784 0,0 z m 2,119.734 4.445,-0.107 0,-118.474 -4.443,-0.125 -0.002,118.706 0,0 z m -1.026,-118.735 0.027,-0.999 -0.027,0.999 0,0 z"
       id="path13"
       inkscape:connector-curvature="0"
       style="fill:#f4f4f4" /></g><path
     id="line21"
     d="M 383.532,43.906 363.094,63.5 364.5,64.938 384.938,45.375 383.532,43.906 Z"
     inkscape:connector-curvature="0"
     style="fill:#f4f4f4" /><path
     id="line23"
     d="m 275.531,43.906 -1.344,1.469 21.157,19.563 1.375,-1.469 -21.188,-19.563 z"
     inkscape:connector-curvature="0"
     style="fill:#f4f4f4" /><path
     id="line25"
     d="m 295.344,153.531 -21.157,19.563 1.344,1.469 21.188,-19.563 -1.375,-1.469 z"
     inkscape:connector-curvature="0"
     style="fill:#f4f4f4" /><path
     id="line27"
     d="m 364.501,153.531 -1.406,1.438 20.438,19.594 1.406,-1.438 -20.438,-19.594 z"
     inkscape:connector-curvature="0"
     style="fill:#f4f4f4" /><path
     id="line29"
     d="m 391.157,51.781 -16.844,23.156 1.625,1.188 16.844,-23.156 -1.625,-1.188 z"
     inkscape:connector-curvature="0"
     style="fill:#f4f4f4" /><path
     id="line31"
     d="m 268.844,51 -1.719,1.031 15.531,25.219 1.719,-1.031 L 268.844,51 Z"
     inkscape:connector-curvature="0"
     style="fill:#f4f4f4" /><path
     id="line33"
     d="m 282.656,141.218 -15.531,25.219 1.719,1.031 15.531,-25.219 -1.719,-1.031 z"
     inkscape:connector-curvature="0"
     style="fill:#f4f4f4" /><path
     id="line35"
     d="m 375.938,142.343 -1.625,1.188 16.844,23.156 1.625,-1.188 -16.844,-23.156 z"
     inkscape:connector-curvature="0"
     style="fill:#f4f4f4" /><path
     id="circle37"
     d="m 329.376,60.812 c -26.879,0 -48.688,21.809 -48.688,48.688 0,26.878 21.809,48.688 48.688,48.688 26.877,0 48.688,-21.81 48.688,-48.688 -0.001,-26.879 -21.811,-48.688 -48.688,-48.688 z m 0,2 c 25.797,0 46.688,20.89 46.688,46.688 0,25.797 -20.891,46.688 -46.688,46.688 -25.798,0 -46.688,-20.891 -46.688,-46.688 0,-25.798 20.89,-46.688 46.688,-46.688 z"
     inkscape:connector-curvature="0"
     style="fill:#f4f4f4" /><g
     id="g39"
     transform="translate(-6.973,-51.894)"><path
       d="m 352.864,207.148 -0.347,-1.938 c 13.755,-5.082 24.455,-16.47 28.612,-30.646 l 0,0 1.961,0.283 0,20.393 -11.911,11.909 -18.315,0 0,-0.001 z m 4.868,-2.001 12.619,-0.002 10.737,-10.737 0,-13.829 c -4.596,10.721 -12.923,19.455 -23.356,24.568 l 0,0 z m -55.143,2.001 -13.103,-13.109 0,-19.519 1.962,-0.274 c 4.09,14.324 14.843,25.842 28.701,30.963 l 0,0 -0.348,1.938 -17.212,0 0,0.001 z m -11.101,-13.936 11.934,11.937 11.514,0 C 304.432,200 296.063,191.178 291.487,180.355 l 0,0 10e-4,12.857 0,0 z m -1.962,-18.417 0.961,-0.274 -0.961,0.274 0,0 z m -0.04,-26.505 0,-19.658 0,-0.415 13.104,-13.107 18.825,0 0.313,1.95 c -14.615,4.81 -26.038,16.642 -30.281,31.504 l 0,0 -1.961,-0.274 0,0 z m 2,-5.832 c 4.747,-11.226 13.578,-20.294 24.639,-25.348 l 0,0 -12.705,0 -11.934,11.936 0,13.412 0,0 z m 59.452,-25.398 0.313,-1.95 19.515,0 0,0.999 -0.708,0.708 0.708,-0.708 0,-0.999 0.413,0 11.909,11.909 0,20.948 -1.959,0.28 c -4.313,-14.714 -15.681,-26.414 -30.191,-31.187 l 0,0 z m 30.152,25.176 -10e-4,-14.387 -10.737,-10.74 -13.809,0 c 10.986,5.02 19.777,14.005 24.547,25.127 l 0,0 z"
       id="path25"
       inkscape:connector-curvature="0"
       style="fill:#f4f4f4" /></g><path
     d="M 520.12,122.309"
     id="path27"
     inkscape:connector-curvature="0"
     style="fill:#f4f4f4" /><path
     id="line45"
     d="m 527.407,121.312 0,2 6.5,0 0,-2 -6.5,0 z"
     inkscape:connector-curvature="0"
     style="fill:#f4f4f4" /><path
     id="line47"
     d="m 540.876,121.312 0,2 6.5,0 0,-2 -6.5,0 z"
     inkscape:connector-curvature="0"
     style="fill:#f4f4f4" /><path
     id="line49"
     d="m 554.344,121.312 0,2 6.5,0 0,-2 -6.5,0 z"
     inkscape:connector-curvature="0"
     style="fill:#f4f4f4" /><path
     id="line51"
     d="m 567.844,121.312 0,2 6.531,0 0,-2 -6.531,0 z"
     inkscape:connector-curvature="0"
     style="fill:#f4f4f4" /><path
     id="line53"
     d="m 581.282,121.312 0,2 6.531,0 0,-2 -6.531,0 z"
     inkscape:connector-curvature="0"
     style="fill:#f4f4f4" /><path
     id="line55"
     d="m 581.438,103.093 0,2 6.375,0 0,-2 -6.375,0 z"
     inkscape:connector-curvature="0"
     style="fill:#f4f4f4" /><path
     id="line57"
     d="m 567.938,103.093 0,2 6.5,0 0,-2 -6.5,0 z"
     inkscape:connector-curvature="0"
     style="fill:#f4f4f4" /><path
     id="line59"
     d="m 554.376,103.093 0,2 6.594,0 0,-2 -6.594,0 z"
     inkscape:connector-curvature="0"
     style="fill:#f4f4f4" /><path
     id="line61"
     d="m 540.907,103.093 0,2 6.563,0 0,-2 -6.563,0 z"
     inkscape:connector-curvature="0"
     style="fill:#f4f4f4" /><path
     id="line63"
     d="m 527.469,103.093 0,2 6.469,0 0,-2 -6.469,0 z"
     inkscape:connector-curvature="0"
     style="fill:#f4f4f4" /><path
     d="M 520.12,104.082"
     id="path39"
     inkscape:connector-curvature="0"
     style="fill:#f4f4f4" /><g
     id="g67"
     transform="translate(-6.973,-51.894)"><path
       d="m 526.091,147.933 9.241,0.405 0,33.498 -8.196,0.362 -0.043,-1 0.043,1 -1.045,0.045 0,-34.31 0,0 z m 2.002,32.219 5.239,-0.231 0,-29.668 -5.239,-0.23 0,30.129 0,0 z m 11.748,-31.613 8.964,0.396 0,32.303 -7.921,0.352 -0.043,-0.997 0.043,0.997 -1.043,0.047 0,-33.098 0,0 z m 1.998,31.007 4.966,-0.22 0,-28.479 -4.966,-0.22 0,28.919 0,0 z m 11.473,-30.415 8.966,0.396 0,31.118 -7.923,0.352 -0.043,-0.999 0.043,0.999 -1.043,0.045 0,-31.911 0,0 z m 1.998,29.82 4.968,-0.22 0,-27.289 -4.968,-0.22 0,27.729 0,0 z m 11.472,-29.223 8.968,0.395 0,29.93 -7.923,0.35 -0.043,-0.997 0.043,0.997 -1.045,0.047 0,-30.722 0,0 z m 2.002,28.628 4.966,-0.218 0,-26.102 -4.966,-0.22 0,26.54 0,0 z m 11.469,-28.035 8.968,0.396 0,28.739 -7.923,0.352 -0.043,-0.998 0.043,0.998 -1.045,0.047 0,-29.534 0,0 z m 2.002,27.443 4.966,-0.22 0,-24.914 -4.966,-0.22 0,25.354 0,0 z m 11.472,-25.804 0,-1.045 9.489,0.418 0,27.508 -9.489,0.418 0,-27.299 0,0 z m 1.999,25.208 5.488,-0.24 0,-23.68 -5.488,-0.242 0,24.162 0,0 z m -1.044,-24.208 0.045,-1 -0.045,1 0,0 z"
       id="path42"
       inkscape:connector-curvature="0"
       style="fill:#f4f4f4" /></g></svg>