<svg xmlns="http://www.w3.org/2000/svg" viewBox="0 0 400 300.00001">
  <path fill="#fff" d="M181.56186823 87.21940968c-7.3646119 0-13.40465207-5.98705764-13.40465207-13.40465135 0-7.4175936 5.98705703-13.40465136 13.40465207-13.40465136 7.3646119 0 13.40465208 5.98705775 13.40465208 13.40465136 0 7.4175937-5.987057 13.40465135-13.40465203 13.40465135zm0-21.29909048c-4.34459 0-7.89443985 3.5498484-7.89443985 7.89443913 0 4.3445906 3.54984986 7.89443902 7.89443985 7.89443902 4.34459 0 7.89443985-3.54984842 7.89443985-7.89443902 0-4.34459072-3.54984985-7.89443913-7.89443985-7.89443913z" class="st0"/>
  <path fill="#fff" d="M226.38532663 88.06713478h-.3708785l-20.3454023-2.64914052c-.741757-.1059656-1.37755126-.47684517-1.8014129-1.0596563-.42386526-.58281092-.63579428-1.32457028-.52982797-2.01334685l2.6491398-20.3453999c.21193263-1.4835186 1.58948388-2.5431749 3.07300145-2.3842265l20.34540237 2.6491405c.74175697.1059656 1.37755125.47684555 1.8014129 1.0596563.42386525.5828111.63579427 1.32457026.52983156 2.01334697l-2.6491434 20.3453998c-.15894587 1.37755305-1.3245681 2.38422654-2.70212296 2.38422654zm-17.2194141-7.78847336L224.001099 82.2390255l1.96036598-14.8351873-14.83518648-1.96036417-1.96036598 14.8351874z" class="st1"/>
  <path fill="#fff" d="M181.93274672 53.7342725c-.21192902 0-.3708785 0-.5828111-.05298278-1.48351758-.31789714-2.4372072-1.748433-2.11931185-3.23195164l4.34459-20.82224424c.31789893-1.48352117 1.74843334-2.43721078 3.2319509-2.11931184 1.48352118.31789534 2.4372108 1.74842974 2.11931545 3.23195092l-4.3445936 20.82224423c-.21192902 1.27158747-1.37755125 2.17229536-2.6491398 2.17229536z" class="st2"/>
  <path fill="#fff" d="M194.54265866 45.4689538c-.21193262 0-.3708821 0-.5828111-.05298278l-20.82224714-4.34459108c-1.48351756-.31789533-2.43721078-1.74843335-2.11931184-3.23195092.31789534-1.48351756 1.74843335-2.43721078 3.23195092-2.11931183l20.82224712 4.34458994c1.48351757.31789533 2.43720717 1.74843335 2.11931184 3.2319509-.26491578 1.27158856-1.37755486 2.17229573-2.6491398 2.17229573z" class="st2"/>
  <path fill="#fff" d="M208.8480172 52.25075386c-.68877744 0-1.32457172-.26491434-1.80141652-.6887767-.7417606-.63579392-1.05965592-1.64246704-.8477233-2.59615773l3.76177888-17.90819118c.21192902-.9536896.90070645-1.74843335 1.8014165-2.01334552.90070646-.31789895 1.96036238-.10596632 2.70212297.52982796l13.7225474 12.08008032c.7417606.63579427 1.05965593 1.64246703.8477233 2.59615664-.21192902.95369212-.90070645 1.74843406-1.8014129 2.06633084l-17.4843299 5.77512657c-.37087848.1059656-.63579427.15894876-.90070644.15894876zm5.45722906-15.47098075l-1.8014165 8.63619796 8.4242678-2.80809036-6.6228513-5.82810756z" class="st3"/>
  <path fill="#fff" d="M123.545663 126.05610745c-2.9140523 0-5.93394502 2.27794692-6.7816681 5.08603504L99.75637373 190.218184c-.7947405 2.8080881-1.48357142 7.47007515-1.48357142 10.38412743v66.65294413c0 2.91405227 2.38404507 5.29809684 5.2980969 5.29809684h192.857329c2.91405673 0 5.29896903-2.38404457 5.29896903-5.29809685V200.9204086c0-2.91405672-.68882713-7.57604376-1.48357392-10.38413187l-17.2196814-59.39413423c-.79474234-2.80808813-3.86761404-5.08603505-6.78167076-5.08603505h-10.1981417c.40614625 1.39784765.7882678 2.8241565 1.1376652 4.29167094.47378835 1.97410254.7772945 3.7675993.98904927 6.30452272h.12428418c2.91405228 0 5.98692843 2.27794692 6.78166632 5.08603503l11.0733372 38.14786368c.79474235 2.8080881-.9534861 5.08690275-3.86754284 5.08690275l-164.61819578-.21206627c-2.91405585 0-4.66225226-2.2788102-3.8145256-5.08690274l10.9142882-37.9357974c.79474367-2.80808814 3.86760914-5.08603506 6.78166854-5.08603506h.11993712c.18502945-1.88904825.4768948-3.42448956.9403773-5.51015867.38285534-1.72284655.81991112-3.4198751 1.307142-5.08603505H123.545663zm84.7191409 87.15612618h8.26610795v24.84960832h-8.26610795v-24.84960832zm11.07420496 0h8.26524024v11.0203218h13.82841436v13.82928652h-22.0936546v-24.84960832zM133.7716158 224.1804077h22.09365413v8.26524022h-13.82841435v2.80809702h13.82841435v2.7550771H133.7716158V224.1804077zm24.8487357 0h22.0936546v2.75508155h-13.82841437v8.3182557h13.82841436v2.7550771h-22.0936546V224.1804077zm-49.69833958.05214772h22.09452364v2.75594928H117.1881203v11.07333725h-8.26610838v-13.82928653zm74.49405582 0h22.0936546v13.82928653h-22.0936546v-8.2661124h13.8284188v-2.7550771h-13.8284188v-2.80809703zm60.77167728 0h22.0936546v13.82928653H244.187745v-13.82928653zm24.8487317 0h8.26524023v2.75594928h5.51015867v-2.75594928h8.26524024v2.75594928h-2.7550771v2.75508157h-2.75508158v2.7550771h2.75508157v2.75508157h2.7550771v2.7550771h-8.26524023v-2.7550771h-5.51015867v2.7550771h-8.26524023v-2.7550771h2.75508156v-2.75508156h2.75508156v-2.7550771h-2.75508156v-2.75508158h-2.75508156v-2.75594928zm-126.99962114 2.75594928v2.75508157h5.51015867v-2.75508157h-5.51015867zm85.56739352 0v8.26524024h5.51015867v-8.26524024h-5.51015867zm24.84873615 0v8.26524024h5.51015867v-8.26524024h-5.51015867zm-60.71866182 5.51015868v2.75508156h5.51016312v-2.75508156h-5.51016312z"/>
  <path fill="#fff" d="M266.5462997 147.67279867c-.21193263-9.90778538-.4768448-13.03376998-1.37755486-16.84853562-3.1259846-13.03376998-8.37128465-23.04752203-16.2657209-30.88897836-10.54357964-10.4905969-23.10050843-11.4442872-38.14762754-2.86107176l-4.18564052 2.38422654s-13.82851372-.1589484-14.99413596-1.00667348c-.79474374-.52982796-3.07300505-1.80141543-5.08635058-2.8080889-10.2256843-5.08635023-19.3917091-5.669161-27.49807797-1.6954502-10.91446175 5.3512642-20.50434818 20.1334686-24.4780597 37.67077985-1.11263906 5.0333674-1.21860538 6.6228513-1.16562222 19.4976754.05298316 14.464308.31789533 16.90151518 2.43720717 21.0871593 1.90738282 3.8677452 4.8214384 6.41091868 9.11304524 8.10636888 6.94074664 2.70212295 18.59696536-4.7154685 28.1868554-18.01415425l3.23195092-4.4505563h47.20768602l3.23195092 4.4505563c7.57654452 10.4905965 18.27907363 18.7029317 24.37209698 18.7029317 5.03336742 0 10.38463018-3.7087957 12.98078682-9.11304523 2.2782613-4.66248533 2.80808927-9.69585275 2.43721078-24.2131439zm-84.08372502-18.96784746h-7.15267926v7.1526793c0 2.22527816-1.85439606 4.0796778-4.0796742 4.0796778-2.22527816 0-4.07967783-1.85439965-4.07967783-4.0796778v-7.15267926h-7.1526793c-2.22527816 0-4.0796778-1.85439604-4.0796778-4.0796742 0-2.22527815 1.85439965-4.0796778 4.0796778-4.0796778h7.15267926v-7.15268c0-2.22527815 1.85439965-4.07967673 4.0796778-4.07967673s4.0796742 1.85439858 4.0796742 4.07967674v7.15268h7.15267927c2.22527816 0 4.07967782 1.85439965 4.07967782 4.0796778-.05298317 2.2782577-1.85439967 4.0796742-4.07967783 4.0796742zm52.6649151-22.358746c3.44388353 0 6.2519728 2.8080889 6.2519728 6.25197174s-2.80808927 6.2519721-6.2519728 6.2519721c-3.44387994 0-6.2519692-2.80808927-6.2519692-6.2519721.05298314-3.44388282 2.80808926-6.25197172 6.2519692-6.25197172zm-20.29241556 12.08008218c0-3.4438839 2.80808927-6.2519728 6.2519728-6.2519728 3.44388355 0 6.2519692 2.8080889 6.2519692 6.2519728 0 3.44388354-2.80808565 6.2519692-6.2519692 6.2519692-3.44388353 0-6.2519728-2.80808566-6.2519728-6.2519692zm12.98079043 21.14014246c-3.44388355 0-6.25197282-2.80808926-6.25197282-6.2519728 0-3.44388355 2.80808927-6.2519728 6.25197282-6.2519728 3.44387993 0 6.2519692 2.80808925 6.2519692 6.2519728 0 3.44388354-2.80808927 6.2519728-6.2519692 6.2519728zm13.1397363-6.2519728c-3.44388356 0-6.25197283-2.80808928-6.25197283-6.2519728 0-3.44388356 2.80808927-6.25197283 6.25197282-6.25197283 3.44388354 0 6.2519728 2.80808927 6.2519728 6.2519728 0 3.4968667-2.80808926 6.2519728-6.2519728 6.2519728z" class="st4"/>
  <path fill="#d40000" d="M239.76605045 260.53023606zm0-5.16637752zm0-5.0915025zm0 2.54575126zm0 10.25788zm0-5.16637752zm0-10.18300498z" class="st6"/>
</svg>
