<svg xmlns="http://www.w3.org/2000/svg" width="400" height="300">
  <path d="M288.94336 30.828125c-5.63508.012087-11.43138.630284-17.41406 1.847656-12.66444 2.577-24.57259 7.450521-41.83789 17.119141l-10.25586 5.742187-17.89063-.757812c-23.40768-.9919-25.0548-1.250954-31.45312-4.933594-37.6789-21.68723-69.39447-24.565186-97.500003-8.847656-13.38855 7.48729-28.72345 22.897303-39.964844 40.158203-12.176439 18.6966-21.629791 40.47303-27.5859374 63.55273C.38284865 162.75938.4667961 161.77171.1796875 202.91211c-.3515958 50.41061.24689065 56.82222 6.5097656 69.57422 3.9439449 8.0304 7.8788079 13.14516 13.3457029 17.35156 4.436813 3.4142 12.881497 7.85901 17.113282 9.00781 8.956141 2.4316 22.866774-1.49941 36.636718-10.35351 15.091449-9.70384 30.853524-25.70305 46.914064-47.58203a28.450401 28.450401 0 0 1-4.73633-15.6875 28.450401 28.450401 0 0 1 28.44922-28.45118 28.450401 28.450401 0 0 1 28.45117 28.45118 28.450401 28.450401 0 0 1-.53711 5.45117h44.45703a28.450401 28.450401 0 0 1-.60547-5.69336 28.450401 28.450401 0 0 1 28.44922-28.44922 28.450401 28.450401 0 0 1 28.45117 28.44922 28.450401 28.450401 0 0 1-.86914 6.83008l.45508.70312c3.75792 5.8144 17.14926 22.96723 22.92383 29.36133 16.78571 18.5869 38.87136 34.36453 52.30469 37.36523 17.17646 3.8367 37.50766-9.41853 46.09765-30.05273 5.25492-12.6229 6.43149-25.16292 5.84375-62.26172-.64692-40.8335-1.53691-49.10819-7.49609-69.68359-8.12586-28.0563-20.84239-52.432871-37.35351-71.605471-20.24657-23.510256-41.62233-34.860971-66.04102-34.808594zm16.63281 44.744141c.61375-.00392 1.23548.018515 1.86328.068359 9.92251.7878 17.00977 8.660231 17.00977 18.894531 0 8.120404-4.61617 15.028074-11.84961 17.734374-3.73496 1.3974-9.01941 1.65032-12.63086.60352-3.54043-1.026-8.47014-4.80133-10.42969-7.98633-2.65662-4.3183-3.5817-9.382467-2.58203-14.134767 1.91611-9.108937 9.41285-15.120897 18.61914-15.179687zm-192.1914 8.845703c4.03564.059267 8.05571 1.94875 10.28906 5.320312 1.75087 2.6435 1.78474 2.897787 1.98828 15.617189l.20703 12.92969h12.125c10.92432 0 12.41082.13743 15.00781 1.39453 8.83539 4.2772 8.94712 17.56525.18555 22.03515-2.30708 1.1771-3.96069 1.32227-14.99609 1.32227h-12.40235v12.40234c0 14.2445-.56724 16.28794-5.40625 19.49024-5.54232 3.6676-13.07597 2.41827-17.08398-2.83203l-1.92774-2.52735-.20703-13.22851-.20508-13.22657-13.228511-.20703-13.228516-.20508-2.533203-1.93554c-7.157753-5.464-6.268452-17.10986 1.613281-21.13086 2.375248-1.2119 3.927605-1.35156 15.050781-1.35156h12.402348v-12.40235c0-14.267896.564-16.285329 5.45117-19.519529 2.0507-1.357087 4.47705-1.980873 6.89844-1.945312zm150.06054 8.548828c4.87765-.061596 9.49948 1.822719 13.25 5.558594 9.53564 9.498299 6.79439 25.220179-5.38672 30.892579-6.00563 2.7966-14.20888 1.9156-19.46289-2.0918-11.11789-8.48-9.65062-26.09625 2.67578-32.126951 2.97831-1.457175 5.99724-2.195465 8.92383-2.232422zm60.20313 26.037113c3.0493.07731 6.09744.85456 8.83008 2.34179 6.318 3.4388 9.6068 9.12277 9.6582 16.69727.02609 3.8285-.31315 5.4155-1.82227 8.5-1.99539 4.0785-4.37171 6.43733-8.73437 8.67383-3.44998 1.7687-11.06691 2.28532-14.53906.98632-8.04563-3.01019-12.7314-9.46915-12.8086-17.65624-.06525-6.9241 2.89366-12.75645 8.32227-16.40235 3.25119-2.18351 7.17322-3.24003 11.09375-3.14062zm-39.62305 18.78515c9.94906.22391 18.6007 8.275 18.5332 19.33008-.04647 7.6371-3.53223 13.25834-10.32421 16.65234-3.38591 1.6918-4.85956 2.04015-8.50391 1.99414-8.15701-.09759-13.8414-3.55561-17.22852-10.47851-4.68407-9.574-.52042-21.44768 9.02344-25.73828 2.82623-1.27059 5.71426-1.82246 8.5-1.75977z"/>
  <path fill-opacity=".99473566" stroke="#000" stroke-width=".93881536" d="M244.65234 188.87891c-10.08507-.0136-18.64219 3.82093-25.91211 11.60547-3.73656 4.0009-7.01244 9.97109-8.41992 15.34179-1.10641 4.2223-1.08444 12.92857.04297 17.04297 3.75737 13.713 14.48078 23.74669 28.14844 26.33789 10.30633 1.9536 22.0837-1.37839 29.78711-8.42969 4.84509-4.43491 5.73458-5.87803 9.06055-14.67773l3.09374-8.18164-.22656-5.2168c-.17104-3.966-.53041-6.12361-1.5-9.00781-4.89347-14.5568-17.10758-23.99822-32.03711-24.76172-.68599-.03509-1.36477-.05183-2.03711-.05273zM245 196.54883A28.450401 28.450401 0 0 1 273.45117 225 28.450401 28.450401 0 0 1 245 253.45117 28.450401 28.450401 0 0 1 216.54883 225 28.450401 28.450401 0 0 1 245 196.54883zm-100.5625-7.42969c-10.08507-.0136-18.64024 3.82289-25.91016 11.60742-3.73656 4.0009-7.01439 9.9711-8.42187 15.3418-1.10642 4.2223-1.08445 12.92847.04297 17.04297 3.75736 13.7129 14.48273 23.74709 28.15039 26.33789 10.30633 1.954 22.08174-1.38044 29.78515-8.43164 4.8451-4.43501 5.7346-5.87578 9.06055-14.67578l3.09375-8.1836-.22461-5.21484c-.17104-3.9659-.53041-6.12557-1.5-9.00977-4.89346-14.5569-17.10758-23.99626-32.03711-24.75976-.68599-.0351-1.36672-.05378-2.03906-.05469zm.5625 7.78711a28.450401 28.450401 0 0 1 28.45117 28.45117A28.450401 28.450401 0 0 1 145 253.80664a28.450401 28.450401 0 0 1-28.45117-28.44922A28.450401 28.450401 0 0 1 145 196.90625z"/>
  <path fill="#fff" fill-opacity=".99473566" d="M350.25454 299.34931c-6.28885-.91376-14.18443-4.5664-23.84131-11.02943-16.37694-10.96054-29.50052-24.07039-47.04354-46.99432l-2.46071-3.21548-1.69013 3.64888c-2.12807 4.59436-3.95146 6.8983-8.02449 10.13931-8.61767 6.85728-20.37576 9.6003-30.36122 7.0829-6.90673-1.74124-11.96034-4.60169-16.88891-9.55951-4.70068-4.72857-7.37536-9.13446-9.37601-15.44472l-1.12094-3.53553-14.62678-.13379c-11.32564-.1036-14.73767.0104-15.11808.50507-.27021.35138-1.56842 3.42369-2.88492 6.82737-1.31649 3.40368-3.13364 7.26751-4.03809 8.5863-3.72905 5.43732-12.53945 11.13684-20.02826 12.95647-4.22694 1.02706-12.45949 1.04857-16.3215.0426-6.70903-1.74748-12.9781-5.37669-17.44342-10.0981-1.47374-1.55827-2.72625-2.76353-2.78336-2.67837-.0571.0852-1.55561 1.97311-3.33 4.19545-5.99998 7.51464-12.45717 14.61833-19.512176 21.46574-13.985728 13.57419-26.36044 21.48662-40.042512 25.6033-3.439867 1.03499-5.467958 1.31216-9.883772 1.35078-5.319725.0465-5.730816-.0282-9.673116-1.75891-12.816236-5.62633-20.168384-12.19842-25.8136586-23.07479-5.0153709-9.66277-6.40323-15.3922-7.18149943-29.64699-1.04967772-19.22591-.2326989-77.63997 1.19511553-85.45088 1.0988459-6.01127 4.4884045-19.10636 6.9048848-26.67605C22.515624 89.699182 48.551345 53.52565 75.539679 39.821667c26.722531-13.569018 55.398381-10.942494 90.940861 8.329601 10.70271 5.803301 10.71349 5.805282 38.00307 6.982185l15.08215.650439 7.64628-4.3c18.32497-10.305327 32.74083-16.242617 45.77953-18.854674 4.86092-.973794 7.41494-1.164894 15.65737-1.171537 10.64863-.0086 15.03846.588517 22.58186 3.07156 34.4614 11.343568 66.06992 51.63073 80.94283 103.167019 5.83355 20.21389 6.78274 29.24614 7.38448 70.26925.62825 42.83054-1.32883 55.70349-10.64428 70.01431-9.36345 14.38454-25.46741 23.28624-38.65929 21.36949zm-198.30163-46.72757c8.89778-2.29555 16.2562-8.94678 19.46959-17.59847 1.55487-4.1863 1.94239-11.52445.85242-16.1414-2.25124-9.53589-9.43719-17.35381-18.63369-20.27242-10.0075-3.176-21.1705-.4742-28.55619 6.91149-6.85013 6.85013-9.66673 16.95997-7.4016 26.56715 2.28632 9.69713 10.72041 18.21722 20.34248 20.54993 3.94489.95637 10.18515.94908 13.92699-.0163v-.00002zm100.83561-.53507c7.25685-2.02247 14.01132-7.62645 17.26187-14.32166 2.19218-4.51526 2.94118-7.81506 2.94118-12.95767 0-7.6821-2.64795-13.94364-8.3184-19.67029-11.02952-11.13883-28.32302-11.13883-39.46185 0-6.04831 6.04831-8.68024 13.11403-8.16213 21.91221 1.03958 17.65333 18.45572 29.85431 35.73933 25.03741zm-135.30953-75.516c3.12219-1.06418 5.85176-3.31562 7.0856-5.84444 1.11409-2.28337 1.18556-3.05982 1.36845-14.86526l.19296-12.45606 12.44483-.17544c14.12529-.19913 14.74776-.34435 18.17758-4.24083 5.38802-6.12112 3.57682-15.6717-3.71245-19.57594-1.87717-1.00544-2.9007-1.09477-14.4464-1.26079l-12.42611-.1787-.27178-12.5007c-.22735-10.456896-.41412-12.782464-1.14235-14.224042-1.21178-2.398794-3.1774-4.40472-5.55347-5.66735-2.75671-1.464898-8.7406-1.531396-11.56796-.128552-2.72862 1.353842-5.18751 3.945908-5.89055 6.209594-.34685 1.116795-.69429 6.950128-.8406 14.11337l-.2494 12.2098-12.444025.16457c-10.901354.14417-12.677975.28088-14.331221 1.10276-3.967566 1.97241-6.463415 5.72704-6.852319 10.30829-.346826 4.0856.681974 6.89572 3.719695 10.16018l2.639963 2.83701 5.230539.32528c2.876799.17891 9.037552.34937 13.690567.37881l8.460031.0535.0506 8.71257c.0278 4.79191.1983 10.95249.37881 13.69019l.32819 4.97763 2.82477 2.62894c1.55363 1.44592 3.59919 2.87616 4.54569 3.1783 2.33737.74614 6.50294.77877 8.59035.0673zm174.5228-2.44197c4.06289-2.00016 7.47554-5.33976 9.17988-8.98338 1.18162-2.52613 1.3518-3.52393 1.35416-7.93997.003-4.62909-.13115-5.33332-1.60061-8.43514-3.1951-6.74441-8.7662-10.52806-16.06583-10.91119-4.96776-.26074-8.60492.65107-12.17915 3.05322-9.69468 6.51555-11.01648 21.42475-2.64104 29.78951 5.43658 5.42965 14.88762 6.90503 21.95259 3.42695zm39.63925-18.77565c3.8307-1.77423 6.51706-4.31559 8.57664-8.1137 1.66981-3.07932 1.71681-3.32527 1.71681-8.98498 0-5.55957-.0741-5.96958-1.66272-9.19644-6.77606-13.76415-27.90515-13.51843-34.27658.39862-4.11953 8.99822-1.56679 19.22672 6.09187 24.40945 3.92931 2.65902 5.64764 3.10258 11.41214 2.9459 4.45887-.1212 5.75527-.35348 8.14184-1.45885zm-62.37047-24.90846c3.48652-1.03538 7.74957-4.2266 9.92032-7.4261 6.66188-9.81907 3.09089-23.034496-7.65264-28.320735-3.04907-1.500259-3.73119-1.637094-8.1608-1.637094-4.57393 0-5.04106.10252-8.69415 1.908143-4.32204 2.13626-6.68478 4.519932-8.85373 8.932176-1.23543 2.51322-1.37344 3.33437-1.36136 8.10004.012 4.71531.16438 5.61338 1.37481 8.10005 3.54972 7.29242 9.34918 10.93555 17.5867 11.04769 1.82468.0248 4.45306-.29204 5.84085-.70417zM314.002 111.8964c3.67536-1.69895 6.92623-4.95628 8.74824-8.76565 1.13219-2.36711 1.48088-3.914068 1.65489-7.341808.26313-5.183431-.61698-8.7562-3.0481-12.373525-7.4053-11.018548-25.26304-10.517022-32.08584.901116-4.38727 7.342213-3.61099 16.845647 1.86092 22.781967 4.72733 5.12855 7.95903 6.48647 14.94196 6.27839 4.18826-.1248 5.54209-.37762 7.92793-1.48049zM100.25549 15.02638V4.92485h5.05076v16.66752h9.59645v3.53553h-14.64721V15.02638zm182.33253-1.01016V3.9147l5.17703.003c2.84737.002 6.01901.23666 7.0481.52247 2.34851.65226 3.93731 2.61791 3.93731 4.87121 0 1.71011-1.20376 4.69021-1.90701 4.72109-.20121.009-.7857.33417-1.29887.72297-.87999.66671-.76758.91706 1.97726 4.40335 1.60067 2.03305 3.12797 3.98056 3.394 4.3278.37432.48858-.187.62861-2.48234.61926l-2.96604-.0121-2.67875-3.77599c-2.29668-3.23742-2.891-3.77599-4.16688-3.77599h-1.48812v7.57615h-4.54569V14.01639zm10.22779-1.59755c1.03188-.53502 1.21586-3.42428.2778-4.36234-.33335-.33336-1.8107-.6061-3.283-.6061h-2.6769v6.12281l2.39911-.34804c1.31951-.19142 2.79686-.55427 3.28299-.80633z"/>
  <path fill="#fff" fill-opacity=".99473566" d="M294.0243 106.82399c.21132-.34724 2.04301-3.05103 4.07042-6.00843s3.6862-5.65161 3.6862-5.98713c0-.33552-1.65879-3.02973-3.6862-5.98713-2.02741-2.9574-3.8591-5.66119-4.07042-6.00843-.29173-.47938.3828-.62861 2.80232-.61997l3.18654.0114 2.65443 4.02924c1.45993 2.21608 2.86481 4.02923 3.12193 4.02923.25713 0 1.74889-1.81827 3.31501-4.04061l2.84749-4.04061h2.74314c1.50872 0 2.74313.12026 2.74313.26725 0 .14699-1.81828 2.84033-4.04061 5.98521-2.22234 3.14489-4.04061 5.89-4.04061 6.10026 0 .21027 1.81827 3.07481 4.04061 6.36567 2.22233 3.29085 4.04061 6.10758 4.04061 6.25939 0 .15182-1.32959.27604-2.95465.27604H311.529l-2.88237-4.33123c-2.29527-3.44901-3.02161-4.21567-3.56594-3.76391-.37596.31202-1.7836 2.25813-3.12809 4.3247l-2.44452 3.75739-2.934.007c-2.21658.005-2.84005-.14785-2.54978-.62482z"/>
  <path fill="#fff" d="M336.87952 149.99232h-6.78467l-1.76026-5.14404H318.901l-1.76025 5.14404h-6.61377l9.39941-25.44678h7.55371l9.39942 25.44678zm-10.13428-9.80957l-3.12744-9.12598-3.12744 9.12598h6.25488zm-31.00482 21.7146q0 1.8457-.75196 3.29834-.73486 1.45264-2.03369 2.40967-1.5039 1.12793-3.31543 1.60644-1.79443.47852-4.56299.47852h-11.10839v-25.44678h9.87793q3.07617 0 4.49463.20508 1.43554.20508 2.83691.90576 1.45264.73486 2.15332 1.98242.71777 1.23047.71777 2.81983 0 1.8457-.97412 3.26416-.97412 1.40137-2.75146 2.1875v.13672q2.49511.4956 3.94775 2.05078 1.46973 1.55517 1.46973 4.10156zm-8.40821-10.45898q0-.63233-.3247-1.26465-.30762-.63233-1.11084-.93994-.71778-.27344-1.79444-.29053-1.05957-.0342-2.99072-.0342h-.61523v5.3833h1.02539q1.55517 0 2.64892-.0513t1.72608-.3418q.88867-.39306 1.16211-1.0083.27343-.63232.27343-1.45263zm1.60645 10.35644q0-1.21338-.47852-1.86279-.46142-.66651-1.58935-.99121-.76904-.22217-2.11914-.23926-1.3501-.0171-2.81983-.0171h-1.43554v6.34033h.47851q2.76856 0 3.96485-.0171 1.19629-.0171 2.20459-.44433 1.02539-.42725 1.40136-1.12793.39307-.71778.39307-1.64063zm-13.29114-61.49292l-9.38232 15.60303v9.84375h-6.5625v-9.53613l-9.53614-15.91065h7.45118l5.50293 9.84375 5.31494-9.84375h7.21191z" style="-inkscape-font-specification:'sans-serif Bold'" font-weight="bold" font-size="35" font-family="sans-serif" letter-spacing="0" word-spacing="0"/>
</svg>
