<svg xmlns="http://www.w3.org/2000/svg" version="1" viewBox="0 0 334.49999 975.50001">
  <path stroke="#2e2e2f" stroke-width="8.50389957" stroke-miterlimit="10" d="M21.25598 971.252c-9.394 0-17.008-7.614-17.008-17.008V21.26c0-9.393 7.614-17.008 17.008-17.008h291.984c9.393 0 17.008 7.615 17.008 17.008v932.984c0 9.394-7.615 17.008-17.008 17.008h-291.984z"/>
  <path stroke="#2e2e2f" stroke-width="2.83459997" stroke-miterlimit="10" d="M306.24798 916.905V572.252h-14c-27.062 0-49-21.938-49-49s21.938-49 49-49h14V58.599c0-15.656-12.691-28.347-28.347-28.347h-218.307c-15.655 0-28.347 12.691-28.347 28.347v858.307c0 15.655 12.691 28.347 28.347 28.347h218.307c15.656-.001 28.347-12.692 28.347-28.348z"/>
  <path fill="#fff" d="M221.96798 839.252c0-29.012-21.68-52.943-49.72-56.521v-13.957c28.04-3.578 49.72-27.51 49.72-56.521s-21.68-52.943-49.72-56.521v-11.957c28.04-3.578 49.72-27.51 49.72-56.521s-21.68-52.943-49.72-56.521v-13.957c28.04-3.578 49.72-27.51 49.72-56.521 0-29.012-21.68-52.944-49.72-56.521v-63.732c50.304-3.588 90-45.529 90-96.747 0-53.572-43.428-97-97-97-53.571 0-97 43.428-97 97 0 50.877 39.172 92.601 89 96.669v63.865c-27.827 3.77-49.28 27.605-49.28 56.465 0 28.86 21.453 52.695 49.28 56.465v14.07c-27.827 3.77-49.28 27.604-49.28 56.465 0 28.861 21.453 52.695 49.28 56.465v12.07c-27.827 3.77-49.28 27.604-49.28 56.465 0 28.861 21.453 52.695 49.28 56.465v14.07c-27.827 3.77-49.28 27.604-49.28 56.465 0 31.48 25.52 57 57 57s57-25.522 57-57.002z"/>
  <g stroke-width="5.66930008" stroke-miterlimit="10" transform="matrix(0,1,-1,0,334.49998,0)">
    <circle cx="242.418" cy="168.252" r="86" stroke="#2e2e2f"/>
    <circle cx="460.01599" cy="170.01601" r="46" stroke="#222223"/>
    <circle cx="460.01599" cy="170.01601" r="35.432999" stroke="#414042"/>
    <circle cx="587.01599" cy="170.01601" r="46" stroke="#222223"/>
    <circle cx="587.01599" cy="170.01601" r="35.432999" stroke="#414042"/>
    <circle cx="712.01599" cy="170.01601" r="46" stroke="#222223"/>
    <circle cx="712.01599" cy="170.01601" r="35.432999" stroke="#414042"/>
    <circle cx="839.33002" cy="170.01601" r="46" stroke="#222223"/>
    <circle cx="839.33099" cy="170.01601" r="35.432999" stroke="#414042"/>
  </g>
  <g stroke-miterlimit="10" transform="matrix(0,1,-1,0,334.49998,0)">
    <circle cx="242.418" cy="168.752" r="54" stroke="#2e2e2f" stroke-width="14.17319965"/>
    <circle cx="242.418" cy="168.502" r="26.5" fill="#6d6e71" stroke="#414042" stroke-width="2.83459997"/>
  </g>
  <g transform="matrix(0,1,-1,0,334.49998,0)">
    <g fill="none" stroke="#0072bc" stroke-width="1.41729999" stroke-miterlimit="10">
      <path d="M652.532 84.699l22.847-32.347-13.428-.107-9.418 13.21-9.953-13.284-14.165-.114zm91.29-5.901c-3.415 3.622-8.547 5.925-14.284 5.925-10.283 0-18.618-7.396-18.618-16.52 0-9.125 8.335-16.521 18.618-16.521 5.835 0 11.042 2.381 14.455 6.11l-7.688 6.657c-1.411-1.998-3.915-3.328-6.768-3.328-4.406 0-7.979 3.171-7.979 7.081 0 3.91 3.572 7.08 7.979 7.08 2.853 0 5.356-1.329 6.768-3.327l7.517 6.843zm11.473 5.628h12.692V63.444h9.615l-2.369-11.264h-27.186l-2.367 11.264h9.615zm26.813-32.21v32.146h13.011V60.945h5.711c1.746.986 1.588 2.253 1.588 2.253.951 4.787-4.603 3.942-4.603 3.942v9.434l5.554 7.828h15.233l-8.409-13.319c2.537-1.126 4.283-3.379 4.283-3.379 1.744-2.112.953-7.18.953-7.18-.796-8.448-10.315-8.308-10.315-8.308h-23.006zm38.398 9.151v23.068h27.514l3.331-9.257h-20.533v-3.401h10.433v-7.293h-10.433v-3.117h20.533l-3.331-9.256h-27.514zm-142.763 0v23.068h27.824l3.37-9.257h-20.765v-3.401h10.552v-7.292h-10.552v-3.118h20.765l-3.37-9.256h-27.824z"/>
      <path d="M851.321 52.239l14.857 16.109-14.855 16.1 15.602-.079 7.015-7.606 7.014 7.606 15.6.079-14.856-16.1 14.858-16.109-15.587.079-7.029 7.62-7.034-7.62z"/>
      <path d="M652.532 84.699l22.847-32.347-13.428-.107-9.418 13.21-9.953-13.284-14.165-.114zm91.29-5.901c-3.415 3.622-8.547 5.925-14.284 5.925-10.283 0-18.618-7.396-18.618-16.52 0-9.125 8.335-16.521 18.618-16.521 5.835 0 11.042 2.381 14.455 6.11l-7.688 6.657c-1.411-1.998-3.915-3.328-6.768-3.328-4.406 0-7.979 3.171-7.979 7.081 0 3.91 3.572 7.08 7.979 7.08 2.853 0 5.356-1.329 6.768-3.327l7.517 6.843zm11.473 5.628h12.692V63.444h9.615l-2.369-11.264h-27.186l-2.367 11.264h9.615zm26.813-32.21v32.146h13.011V60.945h5.711c1.746.986 1.588 2.253 1.588 2.253.951 4.787-4.603 3.942-4.603 3.942v9.434l5.554 7.828h15.233l-8.409-13.319c2.537-1.126 4.283-3.379 4.283-3.379 1.744-2.112.953-7.18.953-7.18-.796-8.448-10.315-8.308-10.315-8.308h-23.006zm38.398 9.151v23.068h27.514l3.331-9.257h-20.533v-3.401h10.433v-7.293h-10.433v-3.117h20.533l-3.331-9.256h-27.514zm-142.763 0v23.068h27.824l3.37-9.257h-20.765v-3.401h10.552v-7.292h-10.552v-3.118h20.765l-3.37-9.256h-27.824z"/>
      <path d="M851.321 52.239l14.857 16.109-14.855 16.1 15.602-.079 7.015-7.606 7.014 7.606 15.6.079-14.856-16.1 14.858-16.109-15.587.079-7.029 7.62-7.034-7.62z"/>
    </g>
    <g fill-rule="evenodd" clip-rule="evenodd">
      <path fill="#ed1c24" d="M105.791 57.239v25.888h-5.241V66.975l-5.282 16.152h-3.277l-5.149-16.152v16.152h-5.59V57.239h7.529l4.948 14.074 4.414-14.074"/>
      <path fill="#0095da" d="M108.643 57.239h11.101c3.512 0 7.238 2.897 7.222 6.356-.015 3.379-2.595 4.894-4.326 5.761 2.801.702 5.05 4.008 4.928 6.76-.154 3.496-3.248 7.01-7.824 7.01h-11.101V57.239zm5.416 3.641h3.478c5.316 0 5.104 6.261.268 6.261h-3.745V60.88h-.001zm.067 10.639h3.478c5.316 0 5.104 7.757.267 7.757h-3.745v-7.757z"/>
    </g>
    <circle cx="145.69701" cy="71.150002" r="3.9360001" fill="#ed1c24" fill-rule="evenodd" clip-rule="evenodd"/>
    <circle cx="166.687" cy="71.150002" r="3.9360001" fill="#ed1c24" fill-rule="evenodd" clip-rule="evenodd"/>
    <circle cx="187.67599" cy="71.150002" r="3.9360001" fill="#ed1c24" fill-rule="evenodd" clip-rule="evenodd"/>
    <circle cx="328.25201" cy="70.150002" r="3.9360001" fill="#ed1c24" fill-rule="evenodd" clip-rule="evenodd"/>
    <circle cx="350.25201" cy="70.182999" r="3.9360001" fill="#ed1c24" fill-rule="evenodd" clip-rule="evenodd"/>
    <circle cx="371.242" cy="70.182999" r="3.9360001" fill="#ed1c24" fill-rule="evenodd" clip-rule="evenodd"/>
    <circle cx="392.26801" cy="70.182999" r="3.9360001" fill="#ed1c24" fill-rule="evenodd" clip-rule="evenodd"/>
    <circle cx="413.258" cy="70.182999" r="3.9360001" fill="#ed1c24" fill-rule="evenodd" clip-rule="evenodd"/>
    <circle cx="434.24799" cy="70.182999" r="3.9360001" fill="#ed1c24" fill-rule="evenodd" clip-rule="evenodd"/>
    <circle cx="455.237" cy="70.182999" r="3.9360001" fill="#ed1c24" fill-rule="evenodd" clip-rule="evenodd"/>
    <circle cx="600.31598" cy="71.150002" r="3.9360001" fill="#ed1c24" fill-rule="evenodd" clip-rule="evenodd"/>
    <circle cx="621.30701" cy="71.150002" r="3.9360001" fill="#ed1c24" fill-rule="evenodd" clip-rule="evenodd"/>
  </g>
  <path fill="#ed1c24" d="M82.23698 466.477h-26.755v-7.394h17.531c-.909-1.196-1.645-2.354-2.207-3.472-.562-1.118-1.101-2.521-1.615-4.208h5.994c.801 2.488 1.765 4.42 2.889 5.796 1.124 1.375 2.513 2.452 4.163 3.229v6.049zm-26.755 131.826v-21.928c2.165.252 4.202 1.014 6.11 2.288 1.907 1.274 4.16 3.663 6.756 7.169 1.591 2.141 2.799 3.511 3.625 4.109.825.598 1.608.896 2.351.896.801 0 1.486-.295 2.055-.888.567-.593.852-1.337.852-2.234 0-.933-.293-1.695-.879-2.288-.586-.592-1.621-.99-3.104-1.193l.593-7.32c2.057.287 3.663.813 4.817 1.578 1.154.765 2.04 1.846 2.656 3.239.616 1.393.924 3.323.924 5.787 0 2.572-.293 4.573-.879 6.003-.587 1.429-1.487 2.554-2.701 3.373-1.214.819-2.575 1.229-4.082 1.229-1.604 0-3.135-.47-4.594-1.409-1.46-.939-3.063-2.646-4.81-5.123-1.017-1.471-1.729-2.455-2.135-2.951-.407-.497-.939-1.08-1.598-1.75v11.412h-5.957zm18.699 111.699l1.238-6.909c2.2.574 3.888 1.679 5.06 3.312 1.173 1.633 1.759 3.944 1.759 6.936 0 3.433-.64 5.915-1.92 7.446-1.28 1.531-2.889 2.297-4.827 2.297-1.137 0-2.165-.312-3.086-.933-.922-.623-1.729-1.562-2.423-2.817-.251 1.017-.545 1.794-.879 2.332-.539.873-1.247 1.553-2.127 2.037-.879.484-1.929.727-3.149.727-1.531 0-2.999-.4-4.405-1.202-1.405-.802-2.488-1.956-3.248-3.463-.759-1.508-1.139-3.488-1.139-5.939 0-2.393.281-4.28.843-5.662.563-1.381 1.385-2.518 2.468-3.409 1.082-.892 2.443-1.576 4.082-2.055l.969 7.304c-1.471.287-2.491.732-3.06 1.336-.568.604-.852 1.373-.852 2.307 0 .98.358 1.797 1.076 2.449.718.652 1.675.979 2.871.979 1.221 0 2.165-.314 2.835-.943.67-.627 1.005-1.479 1.005-2.557 0-.574-.144-1.363-.431-2.368l5.222.376c-.06.407-.089.725-.089.951 0 .957.305 1.756.915 2.396.609.639 1.334.959 2.171.959.802 0 1.441-.238 1.92-.717.479-.479.718-1.137.718-1.975 0-.861-.26-1.561-.78-2.1-.522-.539-1.434-.904-2.737-1.095zm-13.782 134.473V831.16h6.011l15.827 13.314v6.37h-16.168v3.302h-5.67v-3.302h-4.917v-6.37h4.917zm5.67 0h8.279l-8.279-7.035v7.035z"/>
</svg>
