<svg xmlns="http://www.w3.org/2000/svg" width="296.53769" height="200">
  <path fill="#2c2c2d" d="M148.26884 0h125.86558c12.35574 0 22.40326 10.047522 22.40326 22.403259V184.11405c0 8.68975-7.1962 15.88595-15.88595 15.88595H15.885947C7.1961982 200 0 192.8038 0 184.11405V22.403259C0 10.047522 10.047522 0 22.403259 0H148.26884"/>
  <path fill="#121115" d="M0 21.452817V187.64426c0 .81467.67888663 1.35778 1.4935506 1.35778 9.0970804-1.08622 16.5648334-3.53021 21.9959264-5.97421 2.443992-1.08621 4.616429-2.71554 6.10998-5.02376 2.03666-2.9871 2.987101-6.65309 2.443992-10.1833L14.256619 36.5241c-.543109-3.801765-3.801765-8.010862-6.9246434-10.319076L0 21.452817m296.4019 0V187.64426c0 .81467-.67889 1.35778-1.49355 1.35778-9.09708-1.08622-16.56483-3.53021-21.99593-5.97421-2.44399-1.08621-4.61643-2.71554-6.10998-5.02376-2.03666-2.9871-2.9871-6.65309-2.44399-10.1833L282.14528 36.5241c.54311-3.801765 3.80177-8.010862 6.92465-10.319076l7.33197-4.752207M148.26884 169.85743c23.08214.27156 72.64087-6.51731 72.64087-6.51731 34.89477-4.7522 37.20299-17.65105 38.83231-47.11473l5.83843-99.932111C265.58045 7.331976 258.24847 0 249.28717 0H47.114732c-8.961304 0-16.293279 7.331976-16.293279 16.293279l5.838425 99.932111c1.765105 29.46368 3.937542 42.36253 38.832315 47.11473 0 0 49.694497 6.78887 72.776647 6.51731z"/>
  <path fill="#232122" d="M148.13306 24.168364h92.19281c3.93754 0 7.19619 3.258656 7.19619 7.196198V128.7169c0 9.23286-7.46775 16.70061-16.70061 16.70061h-82.55261.13578-82.688395c-9.232858 0-16.700611-7.46775-16.700611-16.70061V31.228785c0-3.937543 3.258656-7.196198 7.196199-7.196198h91.921247"/>
  <path fill="#ffc119" d="M75.492193 24.847251V145.68907v-.40733h-9.775968c-9.232858 0-16.700611-7.46776-16.700611-16.70061V31.228785c0-3.937543 3.258656-7.196198 7.196199-7.196198h19.28038"/>
  <path fill="#f4d945" d="M49.015614 63.815343l26.476579-18.737271V24.847251l-26.476579 18.73727m0 61.507129l26.476579-18.737271V66.123557L49.015614 84.860828"/>
  <path d="M59.470468 62.186015c0-.543109-.135777-.950441-.135777-1.493551 0-.814664.135777-1.49355.271555-2.308214.135777-.54311.271554-1.086219.543109-1.629328.271555-.543109.543109-1.086219 1.086219-1.629328.407332-.407332.814664-.678887 1.357773-.678887.543109 0 .950441-.135777 1.49355.135778.407332.135777.814664.407332 1.086219.678886.543109.407332.814664 1.086219 1.086219 1.629328.135777.407332.407332.678887.543109 1.086219.271555.678886.543109 1.357773.678887 2.03666.135777.678886.407332 1.49355.678886 2.172437.271555.950441.678887 1.765105 1.357773 2.579769.135778.135777.271555.135777.407332.271555.135778-.135778.135778-.407332.135778-.54311v-9.911744c0-.135778 0-.271555-.135778-.54311-.135777-.135777-.271554-.271554-.271554-.543109.407332-.135777.814664 0 1.086218 0h1.629328v.271555c-.135777.135777-.271554.271554-.271554.407332v14.256619c0 .135777 0 .271555-.135778.271555-.543109 0-1.086218-.135778-1.629328-.407332-.814664-.407332-1.49355-1.086219-2.036659-1.765106-.271555-.543109-.678887-1.086218-.814664-1.49355-.135778-.271555-.271555-.54311-.407332-.950442-.135778-.543109-.407332-.950441-.54311-1.357773l-.814664-2.03666c-.271554-.678886-.543109-1.221996-.814664-1.900882-.271554-.407332-.678886-.814664-1.221995-1.086219-.407332-.135777-.814664 0-1.221996.271555-.678887.678886-.814664 1.765105-.814664 2.579769 0 1.357773.407332 2.851324 1.221996 3.937542.135777.135778.271554.407332.543109.54311.135777.135777.271555.271554.543109.271554.135777.135778.407332 0 .678887 0 .135777 0 .135777.135778 0 .271555-.271555.407332-.678887.678887-1.086219 1.086219-.271554.271554-.543109.678886-.950441.950441-.135777.135777-.271555.271555-.407332.271555-.135777-.135778 0-.407332-.135777-.54311-.271555-.407332-.54311-.678886-.814664-1.086218-.407332-.678887-.814664-1.357774-1.086219-2.172438-.407332-.678886-.543109-1.357773-.678887-1.900882zm.271555 17.515275c-.135777-.814664-.271555-1.629328-.271555-2.443992 0-.950441 0-1.765105.135778-2.715546.135777-.54311.271554-.950442.407332-1.493551.135777-.543109.407332-1.086219.814664-1.493551.407332-.543109.950441-1.086218 1.629328-1.221996.407332-.135777.950441-.135777 1.357773 0l.814664.407332c.271554.135778.407332.407332.543109.678887l.407332.814664s.135777 0 .135777-.135777c.135778-.271555.271555-.678887.407332-1.086219.271555-.543109.678887-.950441.950442-1.357773.271554-.271555.678886-.407332 1.086218-.543109.271555 0 .54311-.135778.814664 0 .543109.135777.950441.271554 1.357773.678886.54311.543109.950442 1.221996 1.221996 1.900883.271555.678886.407332 1.357773.54311 2.172437.271554 1.357773.135777 2.851324.135777 4.209097-.135777.950441-.135777 1.900883-.407332 2.851324-.135777.678886-.407332 1.49355-.814664 2.172437-.135777.271555-.271555.543109-.271555.814664v.678887c0 .135777-.135777.135777-.135777.135777-.271555-.135777-.407332-.135777-.543109-.271555-.407332-.271554-.950441-.543109-1.357773-.814664-.135778-.135777-.407332-.271554-.54311-.407332-.135777-.135777-.135777-.271554 0-.407332.271555-.135777.54311-.135777.678887-.407332.407332-.543109.678886-1.221996.950441-2.036659.135777-.54311.271555-1.086219.407332-1.765106.135777-1.086218.271555-2.308214.135777-3.394433-.135777-.543109-.135777-1.086218-.407332-1.629328-.135777-.407332-.543109-.814664-.950441-1.086218-.543109-.271555-1.221996 0-1.49355.407332-.54311.678886-.678887 1.49355-.814664 2.308214-.135778.678887-.135778 1.357773-.135778 2.03666 0 .407332 0 .814664.135778 1.221996 0 .135777.271554.271555.271554.407332 0 .135777-.271554.135777-.407332.135777h-2.308214c0-.271554.271554-.407332.271554-.678886.271555-.950442.135778-1.900883 0-2.851324-.135777-.543109-.135777-1.086219-.543109-1.493551-.135777-.271554-.407332-.543109-.678886-.678886-.407332-.135778-.814664 0-1.086219.271554-.135777.271555-.271555.407332-.407332.678887-.271555.543109-.271555 1.221996-.407332 1.765105v1.765105c.135777.814664.271555 1.629328.543109 2.308215.135778.407332.407332.814664.814664 1.221996.135778.135777.54311.135777.678887.271554.135777 0 .271555.135778.135777.271555-.543109.678887-1.357773 1.221996-1.900882 1.900883l-.271555.271554h-.135777v-.678886c-.271555-.678887-.678887-1.221996-.950442-1.900883-.271554-.407332-.407332-1.086218-.543109-1.765105zm-.271555-27.834352v-4.887984c.135778.135778.271555.135778.407332.271555.54311-.543109 1.086219-1.086218 1.629328-1.49355.54311-.54311 1.086219-1.086219 1.765106-1.629328.135777-.135778.271554-.271555.135777-.407332l-.950441-.950442c-.678887-.678886-1.493551-1.49355-2.308215-2.172437-.135777-.135777-.271555-.271554-.407332-.271554-.135777.135777-.271555.135777-.271555.271554v-4.752206c0-.135777.135778-.135777.135778-.135777.135777.271554.135777.543109.271554.814663.135778.407332.54311.678887.814664 1.086219.407332.543109.950442.950441 1.493551 1.357773.678887.678887 1.357773 1.357774 2.03666 1.900883l.950441.950441c.135777.135777.271555.135777.271555 0 .407332-.271554.678886-.678886 1.086218-1.086218l.814664-.814664 2.308215-2.308215c.407332-.407332.950441-.814664 1.357773-1.221996.271555-.271555.407332-.543109.543109-.814664.135778-.135777.135778-.407332.271555-.543109v4.887984c-.135777-.135778-.271555-.135778-.407332-.135778-.135777 0-.135777.135778-.271555.135778l-.950441.950441c-.814664.678887-1.49355 1.49355-2.308214 2.308214-.135778.135778-.407332.271555-.407332.54311-.135778.135777.135777.271554.135777.407332l2.172437 2.172437c.543109.407332.950441.814664 1.357773 1.357773.135778.135777.135778.135777.271555.135777.135777 0 .135777-.135777.271555-.135777h.135777v5.023761c-.135777 0-.135777-.135777-.135777-.271554-.135778-.271555-.135778-.678887-.407332-.950442-.271555-.407332-.678887-.678886-1.086219-1.086218-1.221996-1.086219-2.308214-2.308215-3.394433-3.394434-.271555-.271554-.678887-.543109-.950441-.950441l-.271555-.271554c-.135777 0-.271555.135777-.407332.271554l-.407332.407332c-.950441.950441-1.900882 1.900883-2.987101 2.851324-.407332.407332-.814664.814664-1.221996 1.086219l-.543109.543109c-.135778.271555-.135778.543109-.271555.814664-.135777.135777-.271555.135777-.271555.135777z"/>
  <path fill="#ed0a0a" d="M59.063136 61.642906c0-.54311-.135777-.950442-.135777-1.493551 0-.814664.135777-1.493551.271555-2.308215.135777-.543109.271554-1.086218.543109-1.629327.271555-.54311.543109-1.086219 1.086219-1.629328.407332-.407332.814664-.678887 1.357773-.678887.543109 0 .950441-.135777 1.493551.135777.407331.135778.814663.407332 1.086218.678887.543109.407332.814664 1.086219 1.086219 1.629328.135777.407332.407332.678887.543109 1.086219.271555.678886.543109 1.357773.678887 2.036659.135777.678887.407332 1.493551.678886 2.172438.271555.950441.678887 1.765105 1.357774 2.579769.135777.135777.271554.135777.407331.271554.135778-.135777.135778-.407332.135778-.543109v-9.911745c0-.135777 0-.271554-.135778-.543109-.135777-.135777-.271554-.271555-.271554-.543109.407332-.135778.814664 0 1.086218 0h1.629328v.271554c-.135777.135778-.271554.271555-.271554.407332v14.25662c0 .135777 0 .271554-.135778.271554-.543109 0-1.086218-.135777-1.629328-.407332-.814663-.407332-1.49355-1.086218-2.036659-1.765105-.271555-.543109-.678887-1.086219-.814664-1.493551-.135778-.271554-.271555-.543109-.407332-.950441-.135778-.543109-.407332-.950441-.54311-1.357773l-.814664-2.03666c-.271554-.678887-.543109-1.221996-.814664-1.900883-.271554-.407332-.678886-.814663-1.221995-1.086218-.407332-.135777-.814664 0-1.221996.271555-.678887.678886-.814664 1.765105-.814664 2.579769 0 1.357773.407332 2.851324 1.221996 3.937542.135777.135777.271554.407332.543109.543109.135777.135778.271555.271555.543109.271555.135778.135777.407332 0 .678887 0 .135777 0 .135777.135777 0 .271555-.271555.407332-.678887.678886-1.086219 1.086218-.271554.271555-.543109.678887-.950441.950442-.135777.135777-.271555.271554-.407332.271554-.135777-.135777 0-.407332-.135777-.543109-.271555-.407332-.54311-.678887-.814664-1.086219-.407332-.678886-.814664-1.357773-1.086219-2.172437-.543109-.543109-.678887-1.221996-.678887-1.900882zm.135778 17.651052c-.135778-.814664-.271555-1.629328-.271555-2.443992 0-.950441 0-1.765105.135777-2.715546.135778-.54311.271555-.950442.407332-1.493551.135778-.543109.407332-1.086219.814664-1.493551.407332-.543109.950442-1.086218 1.629328-1.221996.407332-.135777.950442-.135777 1.357774 0l.814663.407332c.271555.135778.407332.407332.54311.678887l.407332.814664s.135777 0 .135777-.135777c.135777-.271555.271555-.678887.407332-1.086219.271555-.543109.678887-.950441.950441-1.357773.271555-.271555.678887-.407332 1.086219-.543109.271555 0 .543109-.135778.814664 0 .543109.135777.950441.271554 1.357773.678886.543109.543109.950441 1.221996 1.221996 1.900883.271555.678886.407332 1.357773.543109 2.172437.271555 1.357773.135778 2.851324.135778 4.209097-.135778.950441-.135778 1.900883-.407332 2.851324-.135778.678886-.407332 1.49355-.814664 2.172437-.135778.271555-.271555.543109-.271555.814664v.678887c0 .135777-.135777.135777-.135777.135777-.271555-.135777-.407332-.135777-.54311-.271555-.407331-.271554-.950441-.543109-1.357773-.814664-.135777-.135777-.407332-.271554-.543109-.407332-.135777-.135777-.135777-.271554 0-.407332.271555-.135777.543109-.135777.678887-.407332.407332-.543109.678886-1.221996.950441-2.036659.135777-.54311.271554-1.086219.407332-1.765106.135777-1.086218.271554-2.308214.135777-3.394433-.135777-.543109-.135777-1.086218-.407332-1.629328-.135777-.407332-.543109-.814664-.950441-1.086218-.543109-.271555-1.221996 0-1.493551.407332-.543109.678886-.678886 1.49355-.814664 2.308214-.135777.678887-.135777 1.357773-.135777 2.03666 0 .407332 0 .814664.135777 1.221996 0 .135777.271555.271555.271555.407332 0 .135777-.271555.135777-.407332.135777h-2.308214c0-.271554.271554-.407332.271554-.678886.271555-.950442.135777-1.900883 0-2.851324-.135777-.543109-.135777-1.086219-.543109-1.493551-.135777-.271554-.407332-.543109-.678887-.678886-.407332-.135778-.814664 0-1.086218.271554-.135778.271555-.271555.407332-.407332.678887-.271555.543109-.271555 1.221996-.407332 1.765105v1.765105c.135777.814664.271554 1.629328.543109 2.308215.135777.407332.407332.814664.814664 1.221996.135777.135777.543109.135777.678887.271554.135777 0 .271554.135778.135777.271555-.543109.678887-1.357773 1.221996-1.900883 1.900883l-.271554.271554h-.135778v-.678886c-.271554-.678887-.678886-1.221996-.950441-1.900883-.135777-.543109-.407332-1.221996-.543109-1.765105zm-.271555-27.970129v-4.887984c.135777.135777.271555.135777.407332.271555.543109-.543109 1.086219-1.086219 1.629328-1.493551.543109-.543109 1.086219-1.086218 1.765105-1.629328.135778-.135777.271555-.271554.135778-.407332l-.950442-.950441c-.678886-.678886-1.49355-1.49355-2.308214-2.172437-.135778-.135777-.271555-.271555-.407332-.271555-.135778.135778-.271555.135778-.271555.271555v-4.752206c0-.135778.135777-.135778.135777-.135778.135778.271555.135778.54311.271555.814664.135777.407332.543109.678887.814664 1.086219.407332.543109.950441.950441 1.493551 1.357773.678886.678887 1.357773 1.357773 2.03666 1.900883l.950441.950441c.135777.135777.271554.135777.271554 0 .407332-.271555.678887-.678887 1.086219-1.086219l.814664-.814664 2.308215-2.308214c.407331-.407332.950441-.814664 1.357773-1.221996.271554-.271555.407332-.543109.543109-.814664.135777-.135777.135777-.407332.271555-.543109v4.887983c-.135778-.135777-.271555-.135777-.407332-.135777-.135778 0-.135778.135777-.271555.135777l-.950441.950442c-.814664.678886-1.493551 1.49355-2.308215 2.308214-.135777.135777-.407332.271555-.407332.543109-.135777.135778.135778.271555.135778.407332l2.172437 2.172438c.543109.407332.950441.814663 1.357773 1.357773.135777.135777.135777.135777.271555.135777.135777 0 .135777-.135777.271554-.135777h.135778v5.023761c-.135778 0-.135778-.135777-.135778-.271555-.135777-.271554-.135777-.678886-.407332-.950441-.271554-.407332-.678886-.678887-1.086218-1.086219-1.221996-1.086218-2.308215-2.308214-3.394433-3.394433-.271555-.271554-.678887-.543109-.950442-.950441l-.271554-.271555c-.135778 0-.271555.135778-.407332.271555l-.407332.407332c-.950441.950441-1.900883 1.900882-2.987101 2.851324-.407332.407332-.814664.814664-1.221996 1.086218l-.54311.54311c-.135777.271554-.135777.543109-.271554.814664 0 .135777-.135778.135777-.271555.135777z"/>
  <path d="M58.791582 88.798371h-.678887v.135777-.543109.135777h1.221996v.678887h.135777c-.407332.271554-.950441.407332-1.357773.407332-.407332 0-.678886-.135778-.950441-.271555-.271555-.135777-.407332-.543109-.407332-.814664 0-.271555.135777-.543109.407332-.814664.271555-.135777.678887-.271555 1.086219-.271555h.407331s.271555 0 .407332.135778h.271555l-.271555.543109v-.135777c-.135777 0-.135777-.135778-.271554-.135778h-.407332c-.271555 0-.407332 0-.678887.135778-.543109.135777-.678886.271554-.678886.543109 0 .271555.135777.407332.271554.543109.135778.135778.407332.135778.678887.135778h.407332s.271554 0 .407332-.135778v-.271554zm1.629328-.135778v.54311h1.765105v-.135778.407332h-2.443992.135777v-2.03666h-.135777 2.308215v-.135777.407332H60.42091v.543109h1.086218v-.135777.407332H60.42091zm2.715546-.543109v1.357773h.135778-.814664.135777v-2.03666h-.135777.814664s-.135778 0-.135778.135778v.135777l1.357773 1.221996v-1.357773h-.135777.543109v2.03666h.135778-.814664.135777l-.135777-.135778-1.086219-1.357773zm3.258656.543109v.54311h1.629328v-.135778.407332h-2.308215.135778v-2.03666h-.135778 2.308215v-.135777.407332h-1.629328v.543109h1.086219v-.135777.407332h-1.086219zm4.344874-1.086218l-.271554.543109s0-.135777-.135778-.135777c-.271554-.135778-.407332-.135778-.814664-.135778h-.271554c-.135777 0-.135777 0-.135777.135778v.135777c0 .135777 0 .135777.135777.135777h1.086218c.135778 0 .135778 0 .271555.135778.135777 0 .135777.135777.135777.135777 0 .135777.135778.135777.135778.271555 0 .135777 0 .271554-.135778.407332-.135777.135777-.271554.135777-.407332.271554h-.543109c-.271555 0-.678886 0-.950441-.135777h-.271555l.271555-.543109s0 .135777.135777.135777c.135778 0 .135778.135777.407332.135777h.407332c.135777 0 .271555 0 .407332-.135777 0 0 .135777 0 .135777-.135777v-.135778c0-.135777 0-.135777-.135777-.135777h-1.086218c-.135778 0-.135778 0-.271555-.135777-.135777 0-.135777-.135778-.271555-.271555 0-.135777-.135777-.135777-.135777-.271555 0-.135777.135777-.271554.271555-.407332.135777-.135777.407332-.271554.814663-.271554h.407332c.135778 0 .271555.135777.54311.135777h.135777c0 .271555 0 .271555.135777.271555zm.54311 1.765105v-1.900883h-.135778.678887v2.03666h.135777-.814664l.135778-.135777c-.135778.135777-.135778.135777 0 0 0 .135777 0 0 0 0zm3.258656-1.765105l-.271555.543109s0-.135777-.135777-.135777c-.271555-.135778-.407332-.135778-.814664-.135778h-.271555c-.135777 0-.135777 0-.135777.135778v.135777c0 .135777 0 .135777.135777.135777h1.086219c.135777 0 .135777 0 .271554.135778.135778 0 .135778.135777.135778.135777 0 .135777.135777.135777.135777.271555 0 .135777 0 .271554-.135777.407332-.135778.135777-.271555.135777-.407332.271554h-.54311c-.271554 0-.678886 0-.950441-.135777h-.271555l.271555-.543109s0 .135777.135777.135777c.135778 0 .135778.135777.407332.135777h.407332c.135778 0 .271555 0 .407332-.135777 0 0 .135778 0 .135778-.135777v-.135778c0-.135777 0-.135777-.135778-.135777h-1.086218c-.135778 0-.135778 0-.271555-.135777-.135777 0-.135777-.135778-.271555-.271555 0-.135777-.135777-.135777-.135777-.271555 0-.135777.135777-.271554.271555-.407332.135777-.135777.407332-.271554.814664-.271554h.407332c.135777 0 .271554.135777.543109.135777h.135777l.135778.271555z"/>
  <path fill="#f4d945" d="M75.492193 106.72098l-26.476579 18.73727v3.12288c0 5.15953 2.308215 9.77596 5.974203 12.76307l20.502376-14.52818v-20.09504z"/>
  <path fill="#121115" d="M75.899525 200c-1.221996 0-2.172437-.95044-2.172437-2.17244v-14.12084c0-1.22199.950441-2.17244 2.172437-2.17244 1.221996 0 2.172437.95045 2.172437 2.17244v14.12084c0 1.222-.950441 2.17244-2.172437 2.17244zm28.920575 0c-1.222 0-2.17244-.95044-2.17244-2.17244v-14.12084c0-1.22199.95044-2.17244 2.17244-2.17244 1.22199 0 2.17243.95045 2.17243 2.17244v14.12084c-.13578 1.222-1.08622 2.17244-2.17243 2.17244zm29.19212 0c-1.222 0-2.17244-.95044-2.17244-2.17244v-14.12084c0-1.22199.95044-2.17244 2.17244-2.17244s2.17244.95045 2.17244 2.17244v14.12084c-.13578 1.222-1.08622 2.17244-2.17244 2.17244zm28.78479 0c-1.22199 0-2.17243-.95044-2.17243-2.17244v-14.12084c0-1.22199.95044-2.17244 2.17243-2.17244 1.222 0 2.17244.95045 2.17244 2.17244v14.12084c0 1.222-.95044 2.17244-2.17244 2.17244zm28.92057 0c-1.22199 0-2.17243-.95044-2.17243-2.17244v-14.12084c0-1.22199.95044-2.17244 2.17243-2.17244 1.222 0 2.17244.95045 2.17244 2.17244v14.12084c-.13578 1.222-1.08622 2.17244-2.17244 2.17244zm28.7848 0c-1.222 0-2.17244-.95044-2.17244-2.17244v-14.12084c0-1.22199.95044-2.17244 2.17244-2.17244 1.22199 0 2.17243.95045 2.17243 2.17244v14.12084c0 1.222-.95044 2.17244-2.17243 2.17244z"/>
</svg>
