<svg xmlns="http://www.w3.org/2000/svg" baseProfile="tiny" viewBox="0 0 218.3 147.3">
  <path fill="#2C2C2D" d="M109.2 0h92.7c9.1 0 16.5 7.4 16.5 16.5v119.1c0 6.4-5.3 11.7-11.7 11.7h-195C5.3 147.3 0 142 0 135.6V16.5C0 7.4 7.4 0 16.5 0h92.7"/>
  <path fill="#121115" d="M0 15.8v122.4c0 .6.5 1 1.1 1 6.7-.8 12.2-2.6 16.2-4.4 1.8-.8 3.4-2 4.5-3.7 1.5-2.2 2.2-4.9 1.8-7.5L10.5 26.9c-.4-2.8-2.8-5.9-5.1-7.6L0 15.8m218.3 0v122.4c0 .6-.5 1-1.1 1-6.7-.8-12.2-2.6-16.2-4.4-1.8-.8-3.4-2-4.5-3.7-1.5-2.2-2.2-4.9-1.8-7.5l13.1-96.7c.4-2.8 2.8-5.9 5.1-7.6l5.4-3.5M109.2 125.1c17 .2 53.5-4.8 53.5-4.8 25.7-3.5 27.4-13 28.6-34.7l4.3-73.6c0-6.6-5.4-12-12-12H34.7c-6.6 0-12 5.4-12 12L27 85.6c1.3 21.7 2.9 31.2 28.6 34.7 0 0 36.6 5 53.6 4.8z"/>
  <path fill="#232122" d="M109.1 17.8H177c2.9 0 5.3 2.4 5.3 5.3v71.7c0 6.8-5.5 12.3-12.3 12.3h-60.8.1-60.9c-6.8 0-12.3-5.5-12.3-12.3V23c0-2.9 2.4-5.3 5.3-5.3h67.7"/>
  <path fill="#FFC119" d="M55.6 18.3v89-.3h-7.2c-6.8 0-12.3-5.5-12.3-12.3V23c0-2.9 2.4-5.3 5.3-5.3h14.2"/>
  <path fill="#F4D945" d="M36.1 47l19.5-13.8V18.3L36.1 32.1m0 45.3l19.5-13.8V48.7L36.1 62.5"/>
  <path d="M43.8 45.8c0-.4-.1-.7-.1-1.1 0-.6.1-1.1.2-1.7.1-.4.2-.8.4-1.2.2-.4.4-.8.8-1.2.3-.3.6-.5 1-.5s.7-.1 1.1.1c.3.1.6.3.8.5.4.3.6.8.8 1.2.1.3.3.5.4.8.2.5.4 1 .5 1.5.1.5.3 1.1.5 1.6.2.7.5 1.3 1 1.9.1.1.2.1.3.2.1-.1.1-.3.1-.4v-7.3c0-.1 0-.2-.1-.4-.1-.1-.2-.2-.2-.4.3-.1.6 0 .8 0h1.2v.2c-.1.1-.2.2-.2.3v10.5c0 .1 0 .2-.1.2-.4 0-.8-.1-1.2-.3-.6-.3-1.1-.8-1.5-1.3-.2-.4-.5-.8-.6-1.1-.1-.2-.2-.4-.3-.7-.1-.4-.3-.7-.4-1l-.6-1.5c-.2-.5-.4-.9-.6-1.4-.2-.3-.5-.6-.9-.8-.3-.1-.6 0-.9.2-.5.5-.6 1.3-.6 1.9 0 1 .3 2.1.9 2.9.1.1.2.3.4.4.1.1.2.2.4.2.1.1.3 0 .5 0 .1 0 .1.1 0 .2-.2.3-.5.5-.8.8-.2.2-.4.5-.7.7-.1.1-.2.2-.3.2-.1-.1 0-.3-.1-.4-.2-.3-.4-.5-.6-.8-.3-.5-.6-1-.8-1.6-.3-.5-.4-1-.5-1.4zm.2 12.9c-.1-.6-.2-1.2-.2-1.8 0-.7 0-1.3.1-2 .1-.4.2-.7.3-1.1.1-.4.3-.8.6-1.1.3-.4.7-.8 1.2-.9.3-.1.7-.1 1 0l.6.3c.2.1.3.3.4.5l.3.6s.1 0 .1-.1c.1-.2.2-.5.3-.8.2-.4.5-.7.7-1 .2-.2.5-.3.8-.4.2 0 .4-.1.6 0 .4.1.7.2 1 .5.4.4.7.9.9 1.4.2.5.3 1 .4 1.6.2 1 .1 2.1.1 3.1-.1.7-.1 1.4-.3 2.1-.1.5-.3 1.1-.6 1.6-.1.2-.2.4-.2.6v.5c0 .1-.1.1-.1.1-.2-.1-.3-.1-.4-.2-.3-.2-.7-.4-1-.6-.1-.1-.3-.2-.4-.3-.1-.1-.1-.2 0-.3.2-.1.4-.1.5-.3.3-.4.5-.9.7-1.5.1-.4.2-.8.3-1.3.1-.8.2-1.7.1-2.5-.1-.4-.1-.8-.3-1.2-.1-.3-.4-.6-.7-.8-.4-.2-.9 0-1.1.3-.4.5-.5 1.1-.6 1.7-.1.5-.1 1-.1 1.5 0 .3 0 .6.1.9 0 .1.2.2.2.3 0 .1-.2.1-.3.1h-1.7c0-.2.2-.3.2-.5.2-.7.1-1.4 0-2.1-.1-.4-.1-.8-.4-1.1-.1-.2-.3-.4-.5-.5-.3-.1-.6 0-.8.2-.1.2-.2.3-.3.5-.2.4-.2.9-.3 1.3v1.3c.1.6.2 1.2.4 1.7.1.3.3.6.6.9.1.1.4.1.5.2.1 0 .2.1.1.2-.4.5-1 .9-1.4 1.4l-.2.2h-.1v-.5c-.2-.5-.5-.9-.7-1.4-.2-.3-.3-.8-.4-1.3zm-.2-20.5v-3.6c.1.1.2.1.3.2.4-.4.8-.8 1.2-1.1.4-.4.8-.8 1.3-1.2.1-.1.2-.2.1-.3l-.7-.7c-.5-.5-1.1-1.1-1.7-1.6-.1-.1-.2-.2-.3-.2-.1.1-.2.1-.2.2v-3.5c0-.1.1-.1.1-.1.1.2.1.4.2.6.1.3.4.5.6.8.3.4.7.7 1.1 1 .5.5 1 1 1.5 1.4l.7.7c.1.1.2.1.2 0 .3-.2.5-.5.8-.8l.6-.6 1.7-1.7c.3-.3.7-.6 1-.9.2-.2.3-.4.4-.6.1-.1.1-.3.2-.4v3.6c-.1-.1-.2-.1-.3-.1-.1 0-.1.1-.2.1l-.7.7c-.6.5-1.1 1.1-1.7 1.7-.1.1-.3.2-.3.4-.1.1.1.2.1.3l1.6 1.6c.4.3.7.6 1 1 .1.1.1.1.2.1s.1-.1.2-.1h.1v3.7c-.1 0-.1-.1-.1-.2-.1-.2-.1-.5-.3-.7-.2-.3-.5-.5-.8-.8-.9-.8-1.7-1.7-2.5-2.5-.2-.2-.5-.4-.7-.7l-.2-.2c-.1 0-.2.1-.3.2l-.3.3c-.7.7-1.4 1.4-2.2 2.1-.3.3-.6.6-.9.8l-.4.4c-.1.2-.1.4-.2.6-.1.1-.2.1-.2.1z"/>
  <path fill="#ED0A0A" d="M43.5 45.4c0-.4-.1-.7-.1-1.1 0-.6.1-1.1.2-1.7.1-.4.2-.8.4-1.2.2-.4.4-.8.8-1.2.3-.3.6-.5 1-.5s.7-.1 1.1.1c.3.1.6.3.8.5.4.3.6.8.8 1.2.1.3.3.5.4.8.2.5.4 1 .5 1.5.1.5.3 1.1.5 1.6.2.7.5 1.3 1 1.9.1.1.2.1.3.2.1-.1.1-.3.1-.4v-7.3c0-.1 0-.2-.1-.4-.1-.1-.2-.2-.2-.4.3-.1.6 0 .8 0H53v.2c-.1.1-.2.2-.2.3V50c0 .1 0 .2-.1.2-.4 0-.8-.1-1.2-.3-.6-.3-1.1-.8-1.5-1.3-.2-.4-.5-.8-.6-1.1-.1-.2-.2-.4-.3-.7-.1-.4-.3-.7-.4-1l-.6-1.5c-.2-.5-.4-.9-.6-1.4-.2-.3-.5-.6-.9-.8-.3-.1-.6 0-.9.2-.5.5-.6 1.3-.6 1.9 0 1 .3 2.1.9 2.9.1.1.2.3.4.4.1.1.2.2.4.2.1.1.3 0 .5 0 .1 0 .1.1 0 .2-.2.3-.5.5-.8.8-.2.2-.4.5-.7.7-.1.1-.2.2-.3.2-.1-.1 0-.3-.1-.4-.2-.3-.4-.5-.6-.8-.3-.5-.6-1-.8-1.6-.4-.4-.5-.9-.5-1.4zm.1 13c-.1-.6-.2-1.2-.2-1.8 0-.7 0-1.3.1-2 .1-.4.2-.7.3-1.1.1-.4.3-.8.6-1.1.3-.4.7-.8 1.2-.9.3-.1.7-.1 1 0l.6.3c.2.1.3.3.4.5l.3.6s.1 0 .1-.1c.1-.2.2-.5.3-.8.2-.4.5-.7.7-1 .2-.2.5-.3.8-.4.2 0 .4-.1.6 0 .4.1.7.2 1 .5.4.4.7.9.9 1.4.2.5.3 1 .4 1.6.2 1 .1 2.1.1 3.1-.1.7-.1 1.4-.3 2.1-.1.5-.3 1.1-.6 1.6-.1.2-.2.4-.2.6v.5c0 .1-.1.1-.1.1-.2-.1-.3-.1-.4-.2-.3-.2-.7-.4-1-.6-.1-.1-.3-.2-.4-.3-.1-.1-.1-.2 0-.3.2-.1.4-.1.5-.3.3-.4.5-.9.7-1.5.1-.4.2-.8.3-1.3.1-.8.2-1.7.1-2.5-.1-.4-.1-.8-.3-1.2-.1-.3-.4-.6-.7-.8-.4-.2-.9 0-1.1.3-.4.5-.5 1.1-.6 1.7-.1.5-.1 1-.1 1.5 0 .3 0 .6.1.9 0 .1.2.2.2.3 0 .1-.2.1-.3.1h-1.7c0-.2.2-.3.2-.5.2-.7.1-1.4 0-2.1-.1-.4-.1-.8-.4-1.1-.1-.2-.3-.4-.5-.5-.3-.1-.6 0-.8.2-.1.2-.2.3-.3.5-.2.4-.2.9-.3 1.3V57c.1.6.2 1.2.4 1.7.1.3.3.6.6.9.1.1.4.1.5.2.1 0 .2.1.1.2-.4.5-1 .9-1.4 1.4l-.2.2h-.1v-.5c-.2-.5-.5-.9-.7-1.4-.1-.4-.3-.9-.4-1.3zm-.2-20.6v-3.6c.1.1.2.1.3.2.4-.4.8-.8 1.2-1.1.4-.4.8-.8 1.3-1.2.1-.1.2-.2.1-.3l-.7-.7c-.5-.5-1.1-1.1-1.7-1.6-.1-.1-.2-.2-.3-.2-.1.1-.2.1-.2.2V26c0-.1.1-.1.1-.1.1.2.1.4.2.6.1.3.4.5.6.8.3.4.7.7 1.1 1 .5.5 1 1 1.5 1.4l.7.7c.1.1.2.1.2 0 .3-.2.5-.5.8-.8l.6-.6 1.7-1.7c.3-.3.7-.6 1-.9.2-.2.3-.4.4-.6.1-.1.1-.3.2-.4V29c-.1-.1-.2-.1-.3-.1-.1 0-.1.1-.2.1l-.7.7c-.6.5-1.1 1.1-1.7 1.7-.1.1-.3.2-.3.4-.1.1.1.2.1.3l1.6 1.6c.4.3.7.6 1 1 .1.1.1.1.2.1s.1-.1.2-.1h.1v3.7c-.1 0-.1-.1-.1-.2-.1-.2-.1-.5-.3-.7-.2-.3-.5-.5-.8-.8-.9-.8-1.7-1.7-2.5-2.5-.2-.2-.5-.4-.7-.7l-.2-.2c-.1 0-.2.1-.3.2l-.3.3c-.7.7-1.4 1.4-2.2 2.1-.3.3-.6.6-.9.8l-.4.4c-.1.2-.1.4-.2.6 0 .1-.1.1-.2.1z"/>
  <path d="M43.3 65.4h-.5v.1-.4.1h.9v.5h.1c-.3.2-.7.3-1 .3-.3 0-.5-.1-.7-.2-.2-.1-.3-.4-.3-.6 0-.2.1-.4.3-.6.2-.1.5-.2.8-.2h.3s.2 0 .3.1h.2l-.2.4v-.1c-.1 0-.1-.1-.2-.1H43c-.2 0-.3 0-.5.1-.4.1-.5.2-.5.4s.1.3.2.4c.1.1.3.1.5.1h.3s.2 0 .3-.1v-.2zm1.2-.1v.4h1.3v-.1.3H44h.1v-1.5H44h1.7v-.1.3h-1.2v.4h.8v-.1.3h-.8zm2-.4v1h.1-.6.1v-1.5H46h.6s-.1 0-.1.1v.1l1 .9v-1h-.1.4V66h.1-.6.1l-.1-.1-.8-1zm2.4.4v.4h1.2v-.1.3h-1.7.1v-1.5h-.1 1.7v-.1.3h-1.2v.4h.8v-.1.3h-.8zm3.2-.8l-.2.4s0-.1-.1-.1c-.2-.1-.3-.1-.6-.1H51c-.1 0-.1 0-.1.1v.1c0 .1 0 .1.1.1h.8c.1 0 .1 0 .2.1.1 0 .1.1.1.1 0 .1.1.1.1.2s0 .2-.1.3c-.1.1-.2.1-.3.2h-.4c-.2 0-.5 0-.7-.1h-.2l.2-.4s0 .1.1.1.1.1.3.1h.3c.1 0 .2 0 .3-.1 0 0 .1 0 .1-.1v-.1c0-.1 0-.1-.1-.1h-.8c-.1 0-.1 0-.2-.1-.1 0-.1-.1-.2-.2 0-.1-.1-.1-.1-.2s.1-.2.2-.3c.1-.1.3-.2.6-.2h.3c.1 0 .2.1.4.1h.1c0 .2 0 .2.1.2zm.4 1.3v-1.4h-.1.5v1.5h.1-.6l.1-.1c-.1.1-.1.1 0 0 0 .1 0 0 0 0zm2.4-1.3l-.2.4s0-.1-.1-.1c-.2-.1-.3-.1-.6-.1h-.2c-.1 0-.1 0-.1.1v.1c0 .1 0 .1.1.1h.8c.1 0 .1 0 .2.1.1 0 .1.1.1.1 0 .1.1.1.1.2s0 .2-.1.3c-.1.1-.2.1-.3.2h-.4c-.2 0-.5 0-.7-.1h-.2l.2-.4s0 .1.1.1.1.1.3.1h.3c.1 0 .2 0 .3-.1 0 0 .1 0 .1-.1v-.1c0-.1 0-.1-.1-.1h-.8c-.1 0-.1 0-.2-.1-.1 0-.1-.1-.2-.2 0-.1-.1-.1-.1-.2s.1-.2.2-.3c.1-.1.3-.2.6-.2h.3c.1 0 .2.1.4.1h.1l.1.2z"/>
  <path fill="#F4D945" d="M55.6 78.6L36.1 92.4v2.3c0 3.8 1.7 7.2 4.4 9.4l15.1-10.7V78.6z"/>
  <path fill="#121115" d="M55.9 147.3c-.9 0-1.6-.7-1.6-1.6v-10.4c0-.9.7-1.6 1.6-1.6.9 0 1.6.7 1.6 1.6v10.4c0 .9-.7 1.6-1.6 1.6zm21.3 0c-.9 0-1.6-.7-1.6-1.6v-10.4c0-.9.7-1.6 1.6-1.6.9 0 1.6.7 1.6 1.6v10.4c-.1.9-.8 1.6-1.6 1.6zm21.5 0c-.9 0-1.6-.7-1.6-1.6v-10.4c0-.9.7-1.6 1.6-1.6.9 0 1.6.7 1.6 1.6v10.4c-.1.9-.8 1.6-1.6 1.6zm21.2 0c-.9 0-1.6-.7-1.6-1.6v-10.4c0-.9.7-1.6 1.6-1.6.9 0 1.6.7 1.6 1.6v10.4c0 .9-.7 1.6-1.6 1.6zm21.3 0c-.9 0-1.6-.7-1.6-1.6v-10.4c0-.9.7-1.6 1.6-1.6.9 0 1.6.7 1.6 1.6v10.4c-.1.9-.8 1.6-1.6 1.6zm21.2 0c-.9 0-1.6-.7-1.6-1.6v-10.4c0-.9.7-1.6 1.6-1.6.9 0 1.6.7 1.6 1.6v10.4c0 .9-.7 1.6-1.6 1.6z"/>
</svg>
