<?xml version="1.0" encoding="UTF-8" standalone="no"?>
<svg
   xmlns:dc="http://purl.org/dc/elements/1.1/"
   xmlns:cc="http://creativecommons.org/ns#"
   xmlns:rdf="http://www.w3.org/1999/02/22-rdf-syntax-ns#"
   xmlns:svg="http://www.w3.org/2000/svg"
   xmlns="http://www.w3.org/2000/svg"
   viewBox="0 0 130.96001 130.96001"
   height="130.96001"
   width="130.96001"
   xml:space="preserve"
   version="1.1"
   id="svg2"><metadata
     id="metadata8"><rdf:RDF><cc:Work
         rdf:about=""><dc:format>image/svg+xml</dc:format><dc:type
           rdf:resource="http://purl.org/dc/dcmitype/StillImage" /><dc:title></dc:title></cc:Work></rdf:RDF></metadata><defs
     id="defs6"><clipPath
       id="clipPath16"
       clipPathUnits="userSpaceOnUse"><path
         id="path18"
         d="m 0,104.768 104.768,0 L 104.768,0 0,0 0,104.768 Z" /></clipPath></defs><g
     transform="matrix(1.25,0,0,-1.25,0,130.96)"
     id="g10"><g
       id="g12"><g
         clip-path="url(#clipPath16)"
         id="g14"><g
           transform="translate(22.6802,22.6957)"
           id="g20"><path
             id="path22"
             style="fill:#000000;fill-opacity:1;fill-rule:nonzero;stroke:none"
             d="m 0,0 0,-4.198 5.022,0 C 4.92,-5.682 4.818,-7.166 4.7,-8.881 l 13.626,0 c 0,1.67 0,3.167 -0.001,4.664 l 4.555,0 c -0.13,1.677 -0.228,2.945 -0.326,4.212 1.587,0.07 3.174,0.14 5.072,0.223 l 0,8.747 c 1.584,0.181 2.832,0.324 4.091,0.468 0.162,1.444 0.303,2.701 0.45,4.013 1.496,0.22 2.858,0.42 4.221,0.621 0.163,1.457 0.304,2.708 0.46,4.104 1.396,0.104 2.652,0.197 3.991,0.296 0.188,1.505 0.355,2.838 0.515,4.111 1.504,0.19 2.749,0.347 4.071,0.514 0.179,1.466 0.332,2.722 0.544,4.455 l 13.161,0 c 0.203,1.739 0.348,2.983 0.486,4.169 1.494,0.176 2.739,0.323 4.014,0.473 0.134,1.482 0.248,2.736 0.371,4.091 1.526,0.218 2.874,0.41 4.208,0.6 l 0,22.257 c -1.529,0.155 -2.79,0.283 -4.144,0.42 -0.204,1.467 -0.391,2.803 -0.569,4.081 -1.428,0.129 -2.581,0.233 -3.911,0.353 -0.158,1.454 -0.305,2.797 -0.46,4.225 l -22.255,0 C 36.645,66.63 36.454,65.286 36.272,64 c -1.563,-0.173 -2.816,-0.311 -4.209,-0.465 -0.1,-1.411 -0.188,-2.658 -0.287,-4.046 -1.458,-0.114 -2.7,-0.21 -4.309,-0.335 l 0,-26.964 C 25.754,31.975 24.412,31.806 22.99,31.628 22.855,30.185 22.739,28.945 22.618,27.65 21.119,27.508 19.875,27.39 18.211,27.233 l 0,-8.703 c -1.69,-0.183 -2.933,-0.318 -4.212,-0.457 -0.204,-1.729 -0.38,-3.233 -0.557,-4.737 -1.356,0.251 -2.712,0.502 -4.101,0.759 -0.107,1.375 -0.204,2.634 -0.309,3.988 -1.501,0.189 -2.841,0.358 -4.113,0.519 -0.189,1.496 -0.346,2.733 -0.505,3.988 -1.514,0.161 -2.77,0.294 -4.147,0.44 -0.161,1.509 -0.305,2.852 -0.455,4.244 -1.48,0.145 -2.723,0.267 -3.989,0.391 -0.171,1.467 -0.316,2.715 -0.466,4.005 -1.502,0.196 -2.851,0.372 -4.214,0.549 -0.166,1.481 -0.307,2.738 -0.465,4.146 l -8.534,0 0,-13.341 c 1.554,-0.178 2.803,-0.321 4.187,-0.48 0.094,-1.413 0.177,-2.663 0.272,-4.079 1.434,-0.103 2.688,-0.193 4.079,-0.293 0.17,-1.484 0.323,-2.816 0.473,-4.12 1.607,-0.263 2.941,-0.481 4.234,-0.692 0.183,-1.51 0.332,-2.747 0.481,-3.98 1.481,-0.164 2.727,-0.302 4.15,-0.46 0,-1.45 0,-2.729 0,-4.008 C -1.356,4.748 -2.731,4.584 -4.122,4.418 L -4.122,0 C -2.564,0 -1.282,0 0,0 m 72.885,-22.696 -86.363,0 c -0.061,1.39 -0.123,2.78 -0.188,4.256 -1.512,0.219 -2.855,0.413 -4.235,0.613 -0.178,1.448 -0.332,2.698 -0.508,4.128 -1.494,0.072 -2.883,0.139 -4.271,0.206 0,28.787 0,57.575 0,86.362 1.388,0.067 2.777,0.134 4.248,0.205 0.228,1.522 0.429,2.863 0.633,4.229 1.46,0.172 2.712,0.32 4.132,0.488 0.066,1.502 0.128,2.891 0.189,4.281 l 86.363,0 c 0.062,-1.39 0.123,-2.779 0.189,-4.255 1.511,-0.219 2.854,-0.414 4.234,-0.614 0.179,-1.447 0.333,-2.698 0.509,-4.128 1.489,-0.072 2.88,-0.139 4.271,-0.206 l 0,-86.362 c -1.389,-0.067 -2.777,-0.134 -4.249,-0.204 -0.228,-1.522 -0.428,-2.863 -0.633,-4.229 -1.459,-0.173 -2.711,-0.321 -4.131,-0.489 -0.067,-1.499 -0.128,-2.89 -0.19,-4.281" /></g><g
           transform="translate(9.2026,104.7678)"
           id="g24"><path
             id="path26"
             style="fill:#ffffff;fill-opacity:1;fill-rule:nonzero;stroke:none"
             d="M 0,0 C -0.062,-1.39 -0.123,-2.779 -0.19,-4.281 -1.61,-4.449 -2.862,-4.597 -4.321,-4.77 -4.526,-6.135 -4.726,-7.477 -4.954,-8.998 -6.425,-9.069 -7.814,-9.136 -9.203,-9.203 L -9.203,0 0,0 Z" /></g><g
           transform="translate(104.7678,95.5652)"
           id="g28"><path
             id="path30"
             style="fill:#ffffff;fill-opacity:1;fill-rule:nonzero;stroke:none"
             d="m 0,0 c -1.391,0.067 -2.781,0.134 -4.271,0.205 -0.176,1.431 -0.33,2.681 -0.508,4.129 -1.38,0.199 -2.723,0.394 -4.235,0.613 -0.065,1.476 -0.127,2.866 -0.189,4.256 L 0,9.203 0,0 Z" /></g><g
           transform="translate(0,9.2026)"
           id="g32"><path
             id="path34"
             style="fill:#ffffff;fill-opacity:1;fill-rule:nonzero;stroke:none"
             d="m 0,0 c 1.389,-0.067 2.777,-0.134 4.271,-0.205 0.176,-1.431 0.33,-2.681 0.508,-4.129 1.38,-0.199 2.723,-0.394 4.235,-0.613 0.065,-1.476 0.127,-2.866 0.189,-4.256 L 0,-9.203 C 0,-6.135 0,-3.068 0,0" /></g><g
           transform="translate(95.5652,0)"
           id="g36"><path
             id="path38"
             style="fill:#ffffff;fill-opacity:1;fill-rule:nonzero;stroke:none"
             d="M 0,0 C 0.062,1.391 0.123,2.782 0.19,4.281 1.61,4.449 2.862,4.597 4.321,4.77 4.526,6.135 4.726,7.477 4.954,8.998 6.425,9.069 7.814,9.136 9.203,9.203 L 9.203,0 0,0 Z" /></g><g
           transform="translate(82.0775,77.0903)"
           id="g40"><path
             id="path42"
             style="fill:#ffffff;fill-opacity:1;fill-rule:nonzero;stroke:none"
             d="m 0,0 0,4.99 -4.984,0 c 0.082,1.347 0.165,2.693 0.253,4.132 l -13.589,0 c 0,-1.559 0,-2.842 0,-4.125 -1.43,-0.094 -2.859,-0.188 -4.549,-0.3 0.135,-1.8 0.245,-3.261 0.355,-4.721 -1.558,0.093 -3.116,0.187 -4.729,0.284 l 0,-13.591 c 1.717,0 3.212,0 4.708,0 l 0,-4.515 c 1.572,0.114 2.897,0.21 4.222,0.306 l 0,-4.697 13.662,0 c -0.133,1.748 -0.247,3.23 -0.36,4.712 1.545,-0.093 3.091,-0.186 5.02,-0.301 l 0,4.493 4.223,0 0,13.597 C 2.702,0.169 1.351,0.084 0,0 m -45.956,-41.059 c 0.177,1.504 0.354,3.008 0.557,4.738 1.28,0.138 2.523,0.273 4.213,0.457 l 0,8.702 c 1.664,0.157 2.908,0.275 4.406,0.417 0.122,1.296 0.238,2.536 0.373,3.978 1.421,0.179 2.764,0.347 4.476,0.562 l 0,26.964 c 1.61,0.125 2.852,0.222 4.31,0.335 0.098,1.389 0.187,2.635 0.287,4.046 1.393,0.154 2.645,0.293 4.209,0.466 0.182,1.285 0.373,2.629 0.598,4.215 l 22.254,0 C -0.117,12.393 0.03,11.05 0.188,9.597 1.518,9.476 2.671,9.372 4.098,9.243 4.277,7.966 4.463,6.63 4.668,5.163 6.022,5.025 7.283,4.897 8.812,4.742 l 0,-22.256 c -1.334,-0.191 -2.683,-0.383 -4.208,-0.601 -0.123,-1.354 -0.237,-2.609 -0.372,-4.091 -1.275,-0.15 -2.519,-0.296 -4.014,-0.472 -0.138,-1.186 -0.283,-2.43 -0.485,-4.169 l -13.161,0 c -0.212,-1.734 -0.365,-2.99 -0.545,-4.456 -1.322,-0.167 -2.566,-0.323 -4.07,-0.513 -0.16,-1.273 -0.327,-2.606 -0.516,-4.112 -1.338,-0.099 -2.594,-0.192 -3.99,-0.295 -0.157,-1.396 -0.297,-2.648 -0.461,-4.105 -1.363,-0.2 -2.724,-0.401 -4.22,-0.621 -0.147,-1.312 -0.288,-2.569 -0.45,-4.012 -1.259,-0.145 -2.507,-0.288 -4.091,-0.469 l 0,-8.747 c -1.899,-0.083 -3.485,-0.153 -5.072,-0.222 l 0.105,-0.088 0,9.3 -4.328,0 0.099,-0.1 c -0.099,1.464 -0.198,2.929 -0.316,4.672 -1.773,-0.132 -3.255,-0.243 -4.737,-0.353 l 0.064,-0.091 z" /></g><g
           transform="translate(22.7002,27.6076)"
           id="g44"><path
             id="path46"
             style="fill:#ffffff;fill-opacity:1;fill-rule:nonzero;stroke:none"
             d="m 0,0 0,4.008 c -1.423,0.158 -2.669,0.296 -4.15,0.461 -0.149,1.232 -0.299,2.469 -0.481,3.979 -1.293,0.211 -2.627,0.429 -4.234,0.692 -0.15,1.304 -0.303,2.636 -0.473,4.12 -1.391,0.1 -2.645,0.19 -4.079,0.293 -0.095,1.416 -0.178,2.666 -0.272,4.079 -1.384,0.159 -2.633,0.302 -4.187,0.481 l 0,13.34 8.534,0 c 0.158,-1.408 0.299,-2.665 0.465,-4.145 1.363,-0.178 2.712,-0.354 4.214,-0.549 0.15,-1.291 0.295,-2.539 0.466,-4.006 1.266,-0.124 2.509,-0.246 3.989,-0.391 0.15,-1.392 0.294,-2.735 0.455,-4.244 C 1.624,17.972 2.88,17.839 4.394,17.678 4.553,16.423 4.71,15.187 4.899,13.69 6.171,13.529 7.51,13.36 9.012,13.171 9.117,11.817 9.214,10.559 9.321,9.183 10.71,8.926 12.066,8.675 13.422,8.424 c 0,0 -0.065,0.091 -0.065,0.091 0.242,-1.35 0.483,-2.701 0.772,-4.319 l 4.281,0 -0.099,0.1 c 0.001,-3.102 0.001,-6.203 0.002,-9.304 l 0.095,0.095 c -4.514,0.002 -9.027,0.004 -13.541,0.006 l 0.114,-0.109 c -0.183,1.46 -0.367,2.919 -0.567,4.514 -1.597,0.203 -3.058,0.389 -4.52,0.575 L 0,0 Z" /></g><g
           transform="translate(41.0057,18.4788)"
           id="g48"><path
             id="path50"
             style="fill:#ffffff;fill-opacity:1;fill-rule:nonzero;stroke:none"
             d="m 0,0 0,-4.664 -13.625,0 c 0.118,1.715 0.22,3.199 0.322,4.683 0,0 -0.137,-0.14 -0.137,-0.14 4.514,0.002 9.028,0.005 13.542,0.007 L 0,0 Z" /></g><g
           transform="translate(22.6802,22.6958)"
           id="g52"><path
             id="path54"
             style="fill:#ffffff;fill-opacity:1;fill-rule:nonzero;stroke:none"
             d="m 0,0 -4.122,0 0,4.418 c 1.391,0.166 2.766,0.33 4.142,0.494 0,0 -0.106,0.073 -0.106,0.073 0,-1.696 -0.001,-3.392 -0.001,-5.088 L 0,0 Z" /></g><g
           transform="translate(27.7026,18.4981)"
           id="g56"><path
             id="path58"
             style="fill:#ffffff;fill-opacity:1;fill-rule:nonzero;stroke:none"
             d="m 0,0 -5.022,0 c 0,1.524 0,2.861 0,4.198 0,0 -0.088,-0.104 -0.088,-0.104 1.696,0 3.393,0 5.089,0 L -0.135,4.203 C -0.136,2.755 -0.136,1.307 -0.137,-0.141 L 0,0 Z" /></g><g
           transform="translate(45.2343,22.691)"
           id="g60"><path
             id="path62"
             style="fill:#ffffff;fill-opacity:1;fill-rule:nonzero;stroke:none"
             d="m 0,0 c 0.098,-1.268 0.196,-2.535 0.326,-4.212 -1.656,0 -3.106,0 -4.555,0 0,0 0.103,-0.114 0.103,-0.114 0,1.443 0,2.887 0,4.33 l -0.095,-0.095 c 1.442,0.001 2.884,0.002 4.326,0.004 L 0,0 Z" /></g><g
           transform="translate(59.5428,63.759)"
           id="g64"><path
             id="path66"
             style="fill:#000000;fill-opacity:1;fill-rule:nonzero;stroke:none"
             d="m 0,0 -4.708,0 0,13.591 c 1.613,-0.097 3.171,-0.19 4.729,-0.284 0,0 -0.147,0.137 -0.147,0.137 C -0.123,8.93 -0.12,4.416 -0.117,-0.098 L 0,0 Z" /></g><g
           transform="translate(77.0665,59.5652)"
           id="g68"><path
             id="path70"
             style="fill:#000000;fill-opacity:1;fill-rule:nonzero;stroke:none"
             d="m 0,0 c 0.113,-1.482 0.227,-2.964 0.36,-4.712 l -13.662,0 0,4.697 -0.104,-0.124 C -8.892,-0.142 -4.377,-0.145 0.137,-0.148 0.137,-0.148 0,0 0,0" /></g><g
           transform="translate(63.7576,82.0873)"
           id="g72"><path
             id="path74"
             style="fill:#000000;fill-opacity:1;fill-rule:nonzero;stroke:none"
             d="m 0,0 0,4.125 13.589,0 C 13.501,2.686 13.418,1.34 13.336,-0.007 l 0.099,0.083 C 8.922,0.079 4.409,0.083 -0.104,0.087 L 0,0 Z" /></g><g
           transform="translate(82.0777,77.0902)"
           id="g76"><path
             id="path78"
             style="fill:#000000;fill-opacity:1;fill-rule:nonzero;stroke:none"
             d="m 0,0 c 1.351,0.084 2.701,0.169 4.232,0.264 l 0,-13.597 -4.223,0 c 0,0 0.087,-0.103 0.087,-0.103 C 0.093,-8.923 0.089,-4.41 0.086,0.103 L 0,0 Z" /></g><g
           transform="translate(45.3396,22.6037)"
           id="g80"><path
             id="path82"
             style="fill:#000000;fill-opacity:1;fill-rule:nonzero;stroke:none"
             d="M 0,0 C -1.442,-0.001 -2.884,-0.003 -4.326,-0.004 -4.327,3.097 -4.328,6.198 -4.328,9.299 L 0,9.299 0,0 Z" /></g><g
           transform="translate(77.0933,82.0806)"
           id="g84"><path
             id="path86"
             style="fill:#000000;fill-opacity:1;fill-rule:nonzero;stroke:none"
             d="m 0,0 4.984,0 c 0,-1.864 0,-3.427 0,-4.99 0,0 0.087,0.102 0.087,0.102 C 1.3,-5.345 -0.379,-3.71 0.099,0.082 L 0,0 Z" /></g><g
           transform="translate(59.5638,77.0659)"
           id="g88"><path
             id="path90"
             style="fill:#000000;fill-opacity:1;fill-rule:nonzero;stroke:none"
             d="m 0,0 c -0.11,1.46 -0.22,2.921 -0.356,4.722 1.69,0.111 3.12,0.205 4.55,0.299 0,0 -0.104,0.087 -0.104,0.087 0,-1.46 0,-2.921 0,-4.535 C 2.535,0.413 1.194,0.275 -0.147,0.137 L 0,0 Z" /></g><g
           transform="translate(82.0866,63.7576)"
           id="g92"><path
             id="path94"
             style="fill:#000000;fill-opacity:1;fill-rule:nonzero;stroke:none"
             d="m 0,0 0,-4.494 c -1.929,0.116 -3.475,0.209 -5.02,0.302 0,0 0.137,-0.149 0.137,-0.149 0.138,1.34 0.276,2.68 0.437,4.238 l 4.533,0 L 0,0 Z" /></g><g
           transform="translate(41.1105,31.8036)"
           id="g96"><path
             id="path98"
             style="fill:#000000;fill-opacity:1;fill-rule:nonzero;stroke:none"
             d="m 0,0 -4.281,0 c -0.289,1.618 -0.531,2.969 -0.772,4.319 1.482,0.11 2.964,0.22 4.737,0.352 C -0.198,2.928 -0.099,1.464 0,0" /></g><g
           transform="translate(63.7649,59.5505)"
           id="g100"><path
             id="path102"
             style="fill:#000000;fill-opacity:1;fill-rule:nonzero;stroke:none"
             d="m 0,0 c -1.325,-0.096 -2.65,-0.192 -4.222,-0.306 0,1.694 0,3.104 0,4.515 0,-10e-4 -0.117,-0.099 -0.117,-0.099 1.33,0 2.659,0 4.235,0 l 0,-4.235 L 0,0 Z" /></g><g
           transform="translate(41.1082,22.695)"
           id="g104"><path
             id="path106"
             style="fill:#000000;fill-opacity:1;fill-rule:nonzero;stroke:none"
             d="m 0,0 c 0,-1.443 0,-2.887 0,-4.33 -4.514,-0.002 -9.028,-0.005 -13.542,-0.007 0,1.447 10e-4,2.895 10e-4,4.343 C -9.027,0.004 -4.514,0.002 0,0" /></g><g
           transform="translate(27.6817,22.5921)"
           id="g108"><path
             id="path110"
             style="fill:#000000;fill-opacity:1;fill-rule:nonzero;stroke:none"
             d="m 0,0 c -1.696,0 -3.393,0 -5.089,0 0.001,1.697 0.001,3.393 0.002,5.089 C -3.626,4.903 -2.164,4.717 -0.568,4.514 -0.367,2.919 -0.184,1.459 0,0" /></g><g
           transform="translate(63.6606,59.4259)"
           id="g112"><path
             id="path114"
             style="fill:#ffffff;fill-opacity:1;fill-rule:nonzero;stroke:none"
             d="m 0,0 0,4.235 c -1.576,0 -2.905,0 -4.235,0 -0.003,4.514 -0.006,9.028 -0.009,13.542 1.341,0.138 2.682,0.276 4.237,0.436 0,1.614 0,3.075 0,4.535 4.513,-0.003 9.026,-0.007 13.539,-0.011 -0.478,-3.793 1.201,-5.427 4.971,-4.97 0.004,-4.513 0.007,-9.026 0.01,-13.539 -1.46,0 -2.919,0 -4.533,0 C 13.819,2.67 13.681,1.331 13.543,-0.009 9.029,-0.006 4.514,-0.003 0,0" /></g></g></g></g></svg>