<?xml version="1.0" encoding="utf-8"?>
<!-- Generator: Adobe Illustrator 19.0.0, SVG Export Plug-In . SVG Version: 6.00 Build 0)  -->
<svg version="1.1" baseProfile="tiny" id="Layer_1" xmlns="http://www.w3.org/2000/svg" xmlns:xlink="http://www.w3.org/1999/xlink"
	 x="0px" y="0px" viewBox="0 0 427.4 301.7" xml:space="preserve">
<path id="base" fill-rule="evenodd" fill="#CFD0CF" d="M9.9,146.1c0,0-6,0-8,0c-1.7,0-1.9-0.2-1.9-2.9C0,140.6,0,4.8,0,2.7
	C0,0.6,0.3,0,2.7,0c2.4,0,411.5,0,416.4,0c4.9,0,5.1,0.4,5.1,5.1c0,4.2,0,24.9,0,29c0,0.6,0,0.7-0.7,0.7c-0.8,0-2.1,0-3,0
	c-0.7,0-0.8,0.2-0.8,0.7c0,6.2,0,52.7,0,52.7v44.8c0,0,4.5,0,6.7,0c0.9,0,1,0.3,1,0.6c0,2.1,0,8.6,0,11.3c0,1-0.1,1.2-1.5,1.2
	C393.3,146.1,9.9,146.1,9.9,146.1z"/>
<path id="outline" fill-rule="evenodd" fill="none" stroke="#9B9A9A" stroke-width="2" stroke-miterlimit="10" d="M5.8,146.1
	c0-41,0-74.8,0-75.7c0-2.2,0-3.7,3.7-3.7c3.6,0,386.4,0,410.3,0"/>
<path id="keyboard" fill-rule="evenodd" fill="#CFD0CF" d="M12.7,301.7c-5.7,0-6.9-4.5-6.9-8.6c0-4.1,0-220.4,0-222.6
	c0-2.2,0-3.7,3.7-3.7c3.7,0,407.4,0,411,0c3.7,0,3.7,1.4,3.7,3.7c0,2.2,0,218.5,0,222.6c0,4.1-1.1,8.6-6.9,8.6
	C411.6,301.7,18.5,301.7,12.7,301.7z"/>
<g id="holes">
	<path id="XMLID_123_" fill-rule="evenodd" fill="#0C0C0D" d="M216.4,104.7H368c0.4,0,0.6,0.3,0.6,0.6v23.4c0,0.4-0.3,0.6-0.6,0.6
		H216.4c-0.4,0-0.6-0.3-0.6-0.6v-23.4C215.8,105,216,104.7,216.4,104.7z"/>
	<path id="XMLID_37_" fill-rule="evenodd" fill="#0C0C0D" d="M382.7,104.7H413c0.4,0,0.6,0.3,0.6,0.6v23.4c0,0.4-0.3,0.6-0.6,0.6
		h-30.3c-0.4,0-0.6-0.3-0.6-0.6v-23.4C382,105,382.3,104.7,382.7,104.7z"/>
	<path id="XMLID_121_" fill-rule="evenodd" fill="#0C0C0D" d="M54.8,104.7H206c0.4,0,0.6,0.3,0.6,0.6v23.4c0,0.4-0.3,0.6-0.6,0.6
		H54.8c-0.4,0-0.6-0.3-0.6-0.6v-23.4C54.2,105,54.4,104.7,54.8,104.7z"/>
	<path id="XMLID_119_" fill-rule="evenodd" fill="#0C0C0D" d="M17.7,104.7h22.9c0.4,0,0.6,0.3,0.6,0.6v23.4c0,0.4-0.3,0.6-0.6,0.6
		H17.7c-0.4,0-0.6-0.3-0.6-0.6v-23.4C17,105,17.3,104.7,17.7,104.7z"/>
	<path id="XMLID_117_" fill-rule="evenodd" fill="#0C0C0D" d="M414.2,240c0,1.1,0,24.3,0,24.3c0,0.4-0.3,0.6-0.6,0.6H36.3
		c-0.4,0-0.6-0.3-0.6-0.6v-21.1c0,0,0.8-2.8-2.1-2.8c-2.5,0-16.3,0-16.3,0c-0.4,0-0.6-0.3-0.6-0.6v-96.3c0-0.4,0.3-0.6,0.6-0.6H413
		c0.4,0,0.6,0.3,0.6,0.6c0,0,0,22.2,0,23.4s-0.7,1.5-2.6,1.5c-1.4,0-17.5,0-19,0c-1.5,0-1.9,0.7-1.9,1.5c0,0.7,0,68.6,0,68.6
		c0,0.4,0.1,0.6,0.6,0.6c0.5,0,18.8,0,22.1,0C414,239,414.2,239.5,414.2,240z"/>
</g>
<g id="grill">
	<path id="XMLID_137_" fill-rule="evenodd" fill="#777878" d="M7.7,8.6h408.9c0.2,0,0.3,0.1,0.3,0.3v3.3c0,0.2-0.1,0.3-0.3,0.3H7.7
		c-0.2,0-0.3-0.1-0.3-0.3V8.9C7.4,8.8,7.5,8.6,7.7,8.6z"/>
	<path id="XMLID_135_" fill-rule="evenodd" fill="#777878" d="M7.7,16.1h408.9c0.2,0,0.3,0.1,0.3,0.3v3.3c0,0.2-0.1,0.3-0.3,0.3H7.7
		c-0.2,0-0.3-0.1-0.3-0.3v-3.3C7.4,16.2,7.5,16.1,7.7,16.1z"/>
	<path id="XMLID_133_" fill-rule="evenodd" fill="#777878" d="M7.7,23.6h408.9c0.2,0,0.3,0.1,0.3,0.3v3.3c0,0.2-0.1,0.3-0.3,0.3H7.7
		c-0.2,0-0.3-0.1-0.3-0.3v-3.3C7.4,23.7,7.5,23.6,7.7,23.6z"/>
	<path id="XMLID_131_" fill-rule="evenodd" fill="#777878" d="M7.7,31.1h408.9c0.2,0,0.3,0.1,0.3,0.3v3.3c0,0.2-0.1,0.3-0.3,0.3H7.7
		c-0.2,0-0.3-0.1-0.3-0.3v-3.3C7.4,31.2,7.5,31.1,7.7,31.1z"/>
	<path id="XMLID_129_" fill-rule="evenodd" fill="#777878" d="M7.7,38.6h408.9c0.2,0,0.3,0.1,0.3,0.3v3.3c0,0.2-0.1,0.3-0.3,0.3H7.7
		c-0.2,0-0.3-0.1-0.3-0.3v-3.3C7.4,38.7,7.5,38.6,7.7,38.6z"/>
	<path id="XMLID_127_" fill-rule="evenodd" fill="#777878" d="M7.7,46.1h408.9c0.2,0,0.3,0.1,0.3,0.3v3.3c0,0.2-0.1,0.3-0.3,0.3H7.7
		c-0.2,0-0.3-0.1-0.3-0.3v-3.3C7.4,46.2,7.5,46.1,7.7,46.1z"/>
	<path id="XMLID_125_" fill-rule="evenodd" fill="#777878" d="M7.7,53.6h408.9c0.2,0,0.3,0.1,0.3,0.3v3.3c0,0.2-0.1,0.3-0.3,0.3H7.7
		c-0.2,0-0.3-0.1-0.3-0.3v-3.3C7.4,53.7,7.5,53.6,7.7,53.6z"/>
</g>
<g id="keys">
	<g id="XMLID_21_">
		<path id="XMLID_65_" fill-rule="evenodd" fill="#9B9A9A" d="M243.8,192.2h19.4c0.8,0,1.4,0.6,1.4,1.4v19.8c0,0.8-0.6,1.4-1.4,1.4
			h-19.4c-0.8,0-1.4-0.6-1.4-1.4v-19.8C242.3,192.9,243,192.2,243.8,192.2z"/>
		<path id="XMLID_34_" fill-rule="evenodd" fill="#CFD0CF" d="M246.7,194.4h13.5c0.8,0,1.4,0.6,1.4,1.4v13.5c0,0.8-0.6,1.4-1.4,1.4
			h-13.5c-0.8,0-1.4-0.6-1.4-1.4v-13.5C245.3,195.1,246,194.4,246.7,194.4z"/>
	</g>
	<g id="XMLID_165_">
		<path id="XMLID_168_" fill-rule="evenodd" fill="#9B9A9A" d="M267.7,192.2h19.4c0.8,0,1.4,0.6,1.4,1.4v19.8c0,0.8-0.6,1.4-1.4,1.4
			h-19.4c-0.8,0-1.4-0.6-1.4-1.4v-19.8C266.3,192.9,266.9,192.2,267.7,192.2z"/>
		<path id="XMLID_166_" fill-rule="evenodd" fill="#CFD0CF" d="M270.7,194.4h13.5c0.8,0,1.4,0.6,1.4,1.4v13.5c0,0.8-0.6,1.4-1.4,1.4
			h-13.5c-0.8,0-1.4-0.6-1.4-1.4v-13.5C269.2,195.1,269.9,194.4,270.7,194.4z"/>
	</g>
	<g id="XMLID_170_">
		<path id="XMLID_173_" fill-rule="evenodd" fill="#9B9A9A" d="M291.6,192.2H311c0.8,0,1.4,0.6,1.4,1.4v19.8c0,0.8-0.6,1.4-1.4,1.4
			h-19.4c-0.8,0-1.4-0.6-1.4-1.4v-19.8C290.2,192.9,290.8,192.2,291.6,192.2z"/>
		<path id="XMLID_171_" fill-rule="evenodd" fill="#CFD0CF" d="M294.6,194.4h13.5c0.8,0,1.4,0.6,1.4,1.4v13.5c0,0.8-0.6,1.4-1.4,1.4
			h-13.5c-0.8,0-1.4-0.6-1.4-1.4v-13.5C293.1,195.1,293.8,194.4,294.6,194.4z"/>
	</g>
	<g id="XMLID_175_">
		<path id="XMLID_178_" fill-rule="evenodd" fill="#9B9A9A" d="M315.5,192.2h19.4c0.8,0,1.4,0.6,1.4,1.4v19.8c0,0.8-0.6,1.4-1.4,1.4
			h-19.4c-0.8,0-1.4-0.6-1.4-1.4v-19.8C314.1,192.9,314.7,192.2,315.5,192.2z"/>
		<path id="XMLID_176_" fill-rule="evenodd" fill="#CFD0CF" d="M318.5,194.4H332c0.8,0,1.4,0.6,1.4,1.4v13.5c0,0.8-0.6,1.4-1.4,1.4
			h-13.5c-0.8,0-1.4-0.6-1.4-1.4v-13.5C317,195.1,317.7,194.4,318.5,194.4z"/>
	</g>
	<g id="XMLID_180_">
		<path id="XMLID_183_" fill-rule="evenodd" fill="#9B9A9A" d="M339.4,192.2h19.4c0.8,0,1.4,0.6,1.4,1.4v19.8c0,0.8-0.6,1.4-1.4,1.4
			h-19.4c-0.8,0-1.4-0.6-1.4-1.4v-19.8C338,192.9,338.6,192.2,339.4,192.2z"/>
		<path id="XMLID_181_" fill-rule="evenodd" fill="#CFD0CF" d="M342.4,194.4h13.5c0.8,0,1.4,0.6,1.4,1.4v13.5c0,0.8-0.6,1.4-1.4,1.4
			h-13.5c-0.8,0-1.4-0.6-1.4-1.4v-13.5C341,195.1,341.6,194.4,342.4,194.4z"/>
	</g>
	<g id="XMLID_30_">
		<path id="XMLID_83_" fill-rule="evenodd" fill="#9B9A9A" d="M219.9,192.2h19.4c0.8,0,1.4,0.6,1.4,1.4v19.8c0,0.8-0.6,1.4-1.4,1.4
			h-19.4c-0.8,0-1.4-0.6-1.4-1.4v-19.8C218.4,192.9,219.1,192.2,219.9,192.2z"/>
		<path id="XMLID_74_" fill-rule="evenodd" fill="#CFD0CF" d="M222.8,194.4h13.5c0.8,0,1.4,0.6,1.4,1.4v13.5c0,0.8-0.6,1.4-1.4,1.4
			h-13.5c-0.8,0-1.4-0.6-1.4-1.4v-13.5C221.4,195.1,222,194.4,222.8,194.4z"/>
	</g>
	<g id="XMLID_98_">
		<path id="XMLID_109_" fill-rule="evenodd" fill="#9B9A9A" d="M196,192.2h19.4c0.8,0,1.4,0.6,1.4,1.4v19.8c0,0.8-0.6,1.4-1.4,1.4
			H196c-0.8,0-1.4-0.6-1.4-1.4v-19.8C194.5,192.9,195.2,192.2,196,192.2z"/>
		<path id="XMLID_99_" fill-rule="evenodd" fill="#CFD0CF" d="M198.9,194.4h13.5c0.8,0,1.4,0.6,1.4,1.4v13.5c0,0.8-0.6,1.4-1.4,1.4
			h-13.5c-0.8,0-1.4-0.6-1.4-1.4v-13.5C197.5,195.1,198.1,194.4,198.9,194.4z"/>
	</g>
	<g id="XMLID_140_">
		<path id="XMLID_143_" fill-rule="evenodd" fill="#9B9A9A" d="M172.1,192.2h19.4c0.8,0,1.4,0.6,1.4,1.4v19.8c0,0.8-0.6,1.4-1.4,1.4
			h-19.4c-0.8,0-1.4-0.6-1.4-1.4v-19.8C170.6,192.9,171.3,192.2,172.1,192.2z"/>
		<path id="XMLID_141_" fill-rule="evenodd" fill="#CFD0CF" d="M175,194.4h13.5c0.8,0,1.4,0.6,1.4,1.4v13.5c0,0.8-0.6,1.4-1.4,1.4
			H175c-0.8,0-1.4-0.6-1.4-1.4v-13.5C173.6,195.1,174.2,194.4,175,194.4z"/>
	</g>
	<g id="XMLID_145_">
		<path id="XMLID_148_" fill-rule="evenodd" fill="#9B9A9A" d="M148.1,192.2h19.4c0.8,0,1.4,0.6,1.4,1.4v19.8c0,0.8-0.6,1.4-1.4,1.4
			h-19.4c-0.8,0-1.4-0.6-1.4-1.4v-19.8C146.7,192.9,147.4,192.2,148.1,192.2z"/>
		<path id="XMLID_146_" fill-rule="evenodd" fill="#CFD0CF" d="M151.1,194.4h13.5c0.8,0,1.4,0.6,1.4,1.4v13.5c0,0.8-0.6,1.4-1.4,1.4
			h-13.5c-0.8,0-1.4-0.6-1.4-1.4v-13.5C149.7,195.1,150.3,194.4,151.1,194.4z"/>
	</g>
	<g id="XMLID_150_">
		<path id="XMLID_153_" fill-rule="evenodd" fill="#9B9A9A" d="M124.2,192.2h19.4c0.8,0,1.4,0.6,1.4,1.4v19.8c0,0.8-0.6,1.4-1.4,1.4
			h-19.4c-0.8,0-1.4-0.6-1.4-1.4v-19.8C122.8,192.9,123.4,192.2,124.2,192.2z"/>
		<path id="XMLID_151_" fill-rule="evenodd" fill="#CFD0CF" d="M127.2,194.4h13.5c0.8,0,1.4,0.6,1.4,1.4v13.5c0,0.8-0.6,1.4-1.4,1.4
			h-13.5c-0.8,0-1.4-0.6-1.4-1.4v-13.5C125.8,195.1,126.4,194.4,127.2,194.4z"/>
	</g>
	<g id="XMLID_155_">
		<path id="XMLID_158_" fill-rule="evenodd" fill="#9B9A9A" d="M100.3,192.2h19.4c0.8,0,1.4,0.6,1.4,1.4v19.8c0,0.8-0.6,1.4-1.4,1.4
			h-19.4c-0.8,0-1.4-0.6-1.4-1.4v-19.8C98.9,192.9,99.5,192.2,100.3,192.2z"/>
		<path id="XMLID_156_" fill-rule="evenodd" fill="#CFD0CF" d="M103.3,194.4h13.5c0.8,0,1.4,0.6,1.4,1.4v13.5c0,0.8-0.6,1.4-1.4,1.4
			h-13.5c-0.8,0-1.4-0.6-1.4-1.4v-13.5C101.9,195.1,102.5,194.4,103.3,194.4z"/>
	</g>
	<g id="XMLID_160_">
		<path id="XMLID_163_" fill-rule="evenodd" fill="#9B9A9A" d="M76.4,192.2h19.4c0.8,0,1.4,0.6,1.4,1.4v19.8c0,0.8-0.6,1.4-1.4,1.4
			H76.4c-0.8,0-1.4-0.6-1.4-1.4v-19.8C75,192.9,75.6,192.2,76.4,192.2z"/>
		<path id="XMLID_161_" fill-rule="evenodd" fill="#CFD0CF" d="M79.4,194.4h13.5c0.8,0,1.4,0.6,1.4,1.4v13.5c0,0.8-0.6,1.4-1.4,1.4
			H79.4c-0.8,0-1.4-0.6-1.4-1.4v-13.5C77.9,195.1,78.6,194.4,79.4,194.4z"/>
	</g>
	<g id="XMLID_365_">
		<path id="XMLID_368_" fill-rule="evenodd" fill="#9B9A9A" d="M231.8,216.3h19.4c0.8,0,1.4,0.6,1.4,1.4v19.8c0,0.8-0.6,1.4-1.4,1.4
			h-19.4c-0.8,0-1.4-0.6-1.4-1.4v-19.8C230.4,216.9,231.1,216.3,231.8,216.3z"/>
		<path id="XMLID_366_" fill-rule="evenodd" fill="#CFD0CF" d="M234.8,218.5h13.5c0.8,0,1.4,0.6,1.4,1.4v13.5c0,0.8-0.6,1.4-1.4,1.4
			h-13.5c-0.8,0-1.4-0.6-1.4-1.4v-13.5C233.4,219.1,234,218.5,234.8,218.5z"/>
	</g>
	<g id="XMLID_360_">
		<path id="XMLID_363_" fill-rule="evenodd" fill="#9B9A9A" d="M255.8,216.3h19.4c0.8,0,1.4,0.6,1.4,1.4v19.8c0,0.8-0.6,1.4-1.4,1.4
			h-19.4c-0.8,0-1.4-0.6-1.4-1.4v-19.8C254.3,216.9,255,216.3,255.8,216.3z"/>
		<path id="XMLID_361_" fill-rule="evenodd" fill="#CFD0CF" d="M258.7,218.5h13.5c0.8,0,1.4,0.6,1.4,1.4v13.5c0,0.8-0.6,1.4-1.4,1.4
			h-13.5c-0.8,0-1.4-0.6-1.4-1.4v-13.5C257.3,219.1,257.9,218.5,258.7,218.5z"/>
	</g>
	<g id="XMLID_355_">
		<path id="XMLID_358_" fill-rule="evenodd" fill="#9B9A9A" d="M279.7,216.3h19.4c0.8,0,1.4,0.6,1.4,1.4v19.8c0,0.8-0.6,1.4-1.4,1.4
			h-19.4c-0.8,0-1.4-0.6-1.4-1.4v-19.8C278.2,216.9,278.9,216.3,279.7,216.3z"/>
		<path id="XMLID_356_" fill-rule="evenodd" fill="#CFD0CF" d="M282.6,218.5h13.5c0.8,0,1.4,0.6,1.4,1.4v13.5c0,0.8-0.6,1.4-1.4,1.4
			h-13.5c-0.8,0-1.4-0.6-1.4-1.4v-13.5C281.2,219.1,281.8,218.5,282.6,218.5z"/>
	</g>
	<g id="XMLID_350_">
		<path id="XMLID_353_" fill-rule="evenodd" fill="#9B9A9A" d="M303.6,216.3H323c0.8,0,1.4,0.6,1.4,1.4v19.8c0,0.8-0.6,1.4-1.4,1.4
			h-19.4c-0.8,0-1.4-0.6-1.4-1.4v-19.8C302.1,216.9,302.8,216.3,303.6,216.3z"/>
		<path id="XMLID_351_" fill-rule="evenodd" fill="#CFD0CF" d="M306.5,218.5h13.5c0.8,0,1.4,0.6,1.4,1.4v13.5c0,0.8-0.6,1.4-1.4,1.4
			h-13.5c-0.8,0-1.4-0.6-1.4-1.4v-13.5C305.1,219.1,305.7,218.5,306.5,218.5z"/>
	</g>
	<g id="XMLID_420_">
		<path id="XMLID_423_" fill-rule="evenodd" fill="#9B9A9A" d="M320.3,240.3h19.4c0.8,0,1.4,0.6,1.4,1.4v19.8c0,0.8-0.6,1.4-1.4,1.4
			h-19.4c-0.8,0-1.4-0.6-1.4-1.4v-19.8C318.8,241,319.5,240.3,320.3,240.3z"/>
		<path id="XMLID_421_" fill-rule="evenodd" fill="#CFD0CF" d="M323.2,242.5h13.5c0.8,0,1.4,0.6,1.4,1.4v13.5c0,0.8-0.6,1.4-1.4,1.4
			h-13.5c-0.8,0-1.4-0.6-1.4-1.4V244C321.8,243.2,322.4,242.5,323.2,242.5z"/>
	</g>
	<g id="XMLID_415_">
		<path id="XMLID_418_" fill-rule="evenodd" fill="#9B9A9A" d="M344.2,240.3h19.4c0.8,0,1.4,0.6,1.4,1.4v19.8c0,0.8-0.6,1.4-1.4,1.4
			h-19.4c-0.8,0-1.4-0.6-1.4-1.4v-19.8C342.7,241,343.4,240.3,344.2,240.3z"/>
		<path id="XMLID_416_" fill-rule="evenodd" fill="#CFD0CF" d="M347.1,242.5h13.5c0.8,0,1.4,0.6,1.4,1.4v13.5c0,0.8-0.6,1.4-1.4,1.4
			h-13.5c-0.8,0-1.4-0.6-1.4-1.4V244C345.7,243.2,346.4,242.5,347.1,242.5z"/>
	</g>
	<g id="XMLID_410_">
		<path id="XMLID_413_" fill-rule="evenodd" fill="#9B9A9A" d="M368.1,240.3h19.4c0.8,0,1.4,0.6,1.4,1.4v19.8c0,0.8-0.6,1.4-1.4,1.4
			h-19.4c-0.8,0-1.4-0.6-1.4-1.4v-19.8C366.7,241,367.3,240.3,368.1,240.3z"/>
		<path id="XMLID_411_" fill-rule="evenodd" fill="#CFD0CF" d="M371.1,242.5h13.5c0.8,0,1.4,0.6,1.4,1.4v13.5c0,0.8-0.6,1.4-1.4,1.4
			h-13.5c-0.8,0-1.4-0.6-1.4-1.4V244C369.6,243.2,370.3,242.5,371.1,242.5z"/>
	</g>
	<g id="XMLID_390_">
		<path id="XMLID_393_" fill-rule="evenodd" fill="#9B9A9A" d="M392,240.3h19.4c0.8,0,1.4,0.6,1.4,1.4v19.8c0,0.8-0.6,1.4-1.4,1.4
			H392c-0.8,0-1.4-0.6-1.4-1.4v-19.8C390.6,241,391.2,240.3,392,240.3z"/>
		<path id="XMLID_391_" fill-rule="evenodd" fill="#CFD0CF" d="M395,242.5h13.5c0.8,0,1.4,0.6,1.4,1.4v13.5c0,0.8-0.6,1.4-1.4,1.4
			H395c-0.8,0-1.4-0.6-1.4-1.4V244C393.5,243.2,394.2,242.5,395,242.5z"/>
	</g>
	<g id="XMLID_385_">
		<path id="XMLID_388_" fill-rule="evenodd" fill="#9B9A9A" d="M368,216.3h19.4c0.8,0,1.4,0.6,1.4,1.4v19.8c0,0.8-0.6,1.4-1.4,1.4
			H368c-0.8,0-1.4-0.6-1.4-1.4v-19.8C366.5,216.9,367.2,216.3,368,216.3z"/>
		<path id="XMLID_386_" fill-rule="evenodd" fill="#CFD0CF" d="M370.9,218.5h13.5c0.8,0,1.4,0.6,1.4,1.4v13.5c0,0.8-0.6,1.4-1.4,1.4
			h-13.5c-0.8,0-1.4-0.6-1.4-1.4v-13.5C369.5,219.1,370.2,218.5,370.9,218.5z"/>
	</g>
	<g id="XMLID_340_">
		<path id="XMLID_343_" fill-rule="evenodd" fill="#9B9A9A" d="M207.9,216.3h19.4c0.8,0,1.4,0.6,1.4,1.4v19.8c0,0.8-0.6,1.4-1.4,1.4
			h-19.4c-0.8,0-1.4-0.6-1.4-1.4v-19.8C206.5,216.9,207.1,216.3,207.9,216.3z"/>
		<path id="XMLID_341_" fill-rule="evenodd" fill="#CFD0CF" d="M210.9,218.5h13.5c0.8,0,1.4,0.6,1.4,1.4v13.5c0,0.8-0.6,1.4-1.4,1.4
			h-13.5c-0.8,0-1.4-0.6-1.4-1.4v-13.5C209.5,219.1,210.1,218.5,210.9,218.5z"/>
	</g>
	<g id="XMLID_335_">
		<path id="XMLID_338_" fill-rule="evenodd" fill="#9B9A9A" d="M184,216.3h19.4c0.8,0,1.4,0.6,1.4,1.4v19.8c0,0.8-0.6,1.4-1.4,1.4
			H184c-0.8,0-1.4-0.6-1.4-1.4v-19.8C182.6,216.9,183.2,216.3,184,216.3z"/>
		<path id="XMLID_336_" fill-rule="evenodd" fill="#CFD0CF" d="M187,218.5h13.5c0.8,0,1.4,0.6,1.4,1.4v13.5c0,0.8-0.6,1.4-1.4,1.4
			H187c-0.8,0-1.4-0.6-1.4-1.4v-13.5C185.6,219.1,186.2,218.5,187,218.5z"/>
	</g>
	<g id="XMLID_330_">
		<path id="XMLID_333_" fill-rule="evenodd" fill="#9B9A9A" d="M160.1,216.3h19.4c0.8,0,1.4,0.6,1.4,1.4v19.8c0,0.8-0.6,1.4-1.4,1.4
			h-19.4c-0.8,0-1.4-0.6-1.4-1.4v-19.8C158.7,216.9,159.3,216.3,160.1,216.3z"/>
		<path id="XMLID_331_" fill-rule="evenodd" fill="#CFD0CF" d="M163.1,218.5h13.5c0.8,0,1.4,0.6,1.4,1.4v13.5c0,0.8-0.6,1.4-1.4,1.4
			h-13.5c-0.8,0-1.4-0.6-1.4-1.4v-13.5C161.6,219.1,162.3,218.5,163.1,218.5z"/>
	</g>
	<g id="XMLID_325_">
		<path id="XMLID_328_" fill-rule="evenodd" fill="#9B9A9A" d="M136.2,216.3h19.4c0.8,0,1.4,0.6,1.4,1.4v19.8c0,0.8-0.6,1.4-1.4,1.4
			h-19.4c-0.8,0-1.4-0.6-1.4-1.4v-19.8C134.8,216.9,135.4,216.3,136.2,216.3z"/>
		<path id="XMLID_326_" fill-rule="evenodd" fill="#CFD0CF" d="M139.2,218.5h13.5c0.8,0,1.4,0.6,1.4,1.4v13.5c0,0.8-0.6,1.4-1.4,1.4
			h-13.5c-0.8,0-1.4-0.6-1.4-1.4v-13.5C137.7,219.1,138.4,218.5,139.2,218.5z"/>
	</g>
	<g id="XMLID_320_">
		<path id="XMLID_323_" fill-rule="evenodd" fill="#9B9A9A" d="M112.3,216.3h19.4c0.8,0,1.4,0.6,1.4,1.4v19.8c0,0.8-0.6,1.4-1.4,1.4
			h-19.4c-0.8,0-1.4-0.6-1.4-1.4v-19.8C110.9,216.9,111.5,216.3,112.3,216.3z"/>
		<path id="XMLID_321_" fill-rule="evenodd" fill="#CFD0CF" d="M115.3,218.5h13.5c0.8,0,1.4,0.6,1.4,1.4v13.5c0,0.8-0.6,1.4-1.4,1.4
			h-13.5c-0.8,0-1.4-0.6-1.4-1.4v-13.5C113.8,219.1,114.5,218.5,115.3,218.5z"/>
	</g>
	<g id="XMLID_315_">
		<path id="XMLID_318_" fill-rule="evenodd" fill="#9B9A9A" d="M88.4,216.3h19.4c0.8,0,1.4,0.6,1.4,1.4v19.8c0,0.8-0.6,1.4-1.4,1.4
			H88.4c-0.8,0-1.4-0.6-1.4-1.4v-19.8C87,216.9,87.6,216.3,88.4,216.3z"/>
		<path id="XMLID_316_" fill-rule="evenodd" fill="#CFD0CF" d="M91.4,218.5h13.5c0.8,0,1.4,0.6,1.4,1.4v13.5c0,0.8-0.6,1.4-1.4,1.4
			H91.4c-0.8,0-1.4-0.6-1.4-1.4v-13.5C89.9,219.1,90.6,218.5,91.4,218.5z"/>
	</g>
	<g id="XMLID_310_">
		<path id="XMLID_313_" fill-rule="evenodd" fill="#9B9A9A" d="M64.5,216.3h19.4c0.8,0,1.4,0.6,1.4,1.4v19.8c0,0.8-0.6,1.4-1.4,1.4
			H64.5c-0.8,0-1.4-0.6-1.4-1.4v-19.8C63,216.9,63.7,216.3,64.5,216.3z"/>
		<path id="XMLID_311_" fill-rule="evenodd" fill="#CFD0CF" d="M67.4,218.5H81c0.8,0,1.4,0.6,1.4,1.4v13.5c0,0.8-0.6,1.4-1.4,1.4
			H67.4c-0.8,0-1.4-0.6-1.4-1.4v-13.5C66,219.1,66.6,218.5,67.4,218.5z"/>
	</g>
	<g id="XMLID_345_">
		<path id="XMLID_348_" fill-rule="evenodd" fill="#9B9A9A" d="M100.3,240.3h185.5c0.8,0,1.4,0.6,1.4,1.4v19.8
			c0,0.8-0.6,1.4-1.4,1.4H100.3c-0.8,0-1.4-0.6-1.4-1.4v-19.8C98.9,241,99.5,240.3,100.3,240.3z"/>
		<path id="XMLID_346_" fill-rule="evenodd" fill="#CFD0CF" d="M103.3,242.5h179.6c0.8,0,1.4,0.6,1.4,1.4v13.5
			c0,0.8-0.6,1.4-1.4,1.4H103.3c-0.8,0-1.4-0.6-1.4-1.4V244C101.9,243.2,102.5,242.5,103.3,242.5z"/>
	</g>
	<g id="XMLID_240_">
		<path id="XMLID_243_" fill-rule="evenodd" fill="#9B9A9A" d="M237,168.2h19.4c0.8,0,1.4,0.6,1.4,1.4v19.8c0,0.8-0.6,1.4-1.4,1.4
			H237c-0.8,0-1.4-0.6-1.4-1.4v-19.8C235.6,168.8,236.2,168.2,237,168.2z"/>
		<path id="XMLID_241_" fill-rule="evenodd" fill="#CFD0CF" d="M240,170.4h13.5c0.8,0,1.4,0.6,1.4,1.4v13.5c0,0.8-0.6,1.4-1.4,1.4
			H240c-0.8,0-1.4-0.6-1.4-1.4v-13.5C238.6,171,239.2,170.4,240,170.4z"/>
	</g>
	<g id="XMLID_235_">
		<path id="XMLID_238_" fill-rule="evenodd" fill="#9B9A9A" d="M260.9,168.2h19.4c0.8,0,1.4,0.6,1.4,1.4v19.8c0,0.8-0.6,1.4-1.4,1.4
			h-19.4c-0.8,0-1.4-0.6-1.4-1.4v-19.8C259.5,168.8,260.1,168.2,260.9,168.2z"/>
		<path id="XMLID_236_" fill-rule="evenodd" fill="#CFD0CF" d="M263.9,170.4h13.5c0.8,0,1.4,0.6,1.4,1.4v13.5c0,0.8-0.6,1.4-1.4,1.4
			h-13.5c-0.8,0-1.4-0.6-1.4-1.4v-13.5C262.5,171,263.1,170.4,263.9,170.4z"/>
	</g>
	<g id="XMLID_230_">
		<path id="XMLID_233_" fill-rule="evenodd" fill="#9B9A9A" d="M284.9,168.2h19.4c0.8,0,1.4,0.6,1.4,1.4v19.8c0,0.8-0.6,1.4-1.4,1.4
			h-19.4c-0.8,0-1.4-0.6-1.4-1.4v-19.8C283.4,168.8,284.1,168.2,284.9,168.2z"/>
		<path id="XMLID_231_" fill-rule="evenodd" fill="#CFD0CF" d="M287.8,170.4h13.5c0.8,0,1.4,0.6,1.4,1.4v13.5c0,0.8-0.6,1.4-1.4,1.4
			h-13.5c-0.8,0-1.4-0.6-1.4-1.4v-13.5C286.4,171,287,170.4,287.8,170.4z"/>
	</g>
	<g id="XMLID_225_">
		<path id="XMLID_228_" fill-rule="evenodd" fill="#9B9A9A" d="M308.8,168.2h19.4c0.8,0,1.4,0.6,1.4,1.4v19.8c0,0.8-0.6,1.4-1.4,1.4
			h-19.4c-0.8,0-1.4-0.6-1.4-1.4v-19.8C307.3,168.8,308,168.2,308.8,168.2z"/>
		<path id="XMLID_226_" fill-rule="evenodd" fill="#CFD0CF" d="M311.7,170.4h13.5c0.8,0,1.4,0.6,1.4,1.4v13.5c0,0.8-0.6,1.4-1.4,1.4
			h-13.5c-0.8,0-1.4-0.6-1.4-1.4v-13.5C310.3,171,310.9,170.4,311.7,170.4z"/>
	</g>
	<g id="XMLID_220_">
		<path id="XMLID_223_" fill-rule="evenodd" fill="#9B9A9A" d="M332.7,168.2h19.4c0.8,0,1.4,0.6,1.4,1.4v19.8c0,0.8-0.6,1.4-1.4,1.4
			h-19.4c-0.8,0-1.4-0.6-1.4-1.4v-19.8C331.2,168.8,331.9,168.2,332.7,168.2z"/>
		<path id="XMLID_221_" fill-rule="evenodd" fill="#CFD0CF" d="M335.6,170.4h13.5c0.8,0,1.4,0.6,1.4,1.4v13.5c0,0.8-0.6,1.4-1.4,1.4
			h-13.5c-0.8,0-1.4-0.6-1.4-1.4v-13.5C334.2,171,334.8,170.4,335.6,170.4z"/>
	</g>
	<g id="XMLID_215_">
		<path id="XMLID_218_" fill-rule="evenodd" fill="#9B9A9A" d="M213.1,168.2h19.4c0.8,0,1.4,0.6,1.4,1.4v19.8c0,0.8-0.6,1.4-1.4,1.4
			h-19.4c-0.8,0-1.4-0.6-1.4-1.4v-19.8C211.7,168.8,212.3,168.2,213.1,168.2z"/>
		<path id="XMLID_216_" fill-rule="evenodd" fill="#CFD0CF" d="M216.1,170.4h13.5c0.8,0,1.4,0.6,1.4,1.4v13.5c0,0.8-0.6,1.4-1.4,1.4
			h-13.5c-0.8,0-1.4-0.6-1.4-1.4v-13.5C214.7,171,215.3,170.4,216.1,170.4z"/>
	</g>
	<g id="XMLID_210_">
		<path id="XMLID_213_" fill-rule="evenodd" fill="#9B9A9A" d="M189.6,168.2H209c0.8,0,1.4,0.6,1.4,1.4v19.8c0,0.8-0.6,1.4-1.4,1.4
			h-19.4c-0.8,0-1.4-0.6-1.4-1.4v-19.8C188.1,168.8,188.8,168.2,189.6,168.2z"/>
		<path id="XMLID_211_" fill-rule="evenodd" fill="#CFD0CF" d="M192.5,170.4h13.5c0.8,0,1.4,0.6,1.4,1.4v13.5c0,0.8-0.6,1.4-1.4,1.4
			h-13.5c-0.8,0-1.4-0.6-1.4-1.4v-13.5C191.1,171,191.7,170.4,192.5,170.4z"/>
	</g>
	<g id="XMLID_205_">
		<path id="XMLID_208_" fill-rule="evenodd" fill="#9B9A9A" d="M165.3,168.2h19.4c0.8,0,1.4,0.6,1.4,1.4v19.8c0,0.8-0.6,1.4-1.4,1.4
			h-19.4c-0.8,0-1.4-0.6-1.4-1.4v-19.8C163.9,168.8,164.5,168.2,165.3,168.2z"/>
		<path id="XMLID_206_" fill-rule="evenodd" fill="#CFD0CF" d="M168.3,170.4h13.5c0.8,0,1.4,0.6,1.4,1.4v13.5c0,0.8-0.6,1.4-1.4,1.4
			h-13.5c-0.8,0-1.4-0.6-1.4-1.4v-13.5C166.8,171,167.5,170.4,168.3,170.4z"/>
	</g>
	<g id="XMLID_200_">
		<path id="XMLID_203_" fill-rule="evenodd" fill="#9B9A9A" d="M141.4,168.2h19.4c0.8,0,1.4,0.6,1.4,1.4v19.8c0,0.8-0.6,1.4-1.4,1.4
			h-19.4c-0.8,0-1.4-0.6-1.4-1.4v-19.8C140,168.8,140.6,168.2,141.4,168.2z"/>
		<path id="XMLID_201_" fill-rule="evenodd" fill="#CFD0CF" d="M144.4,170.4h13.5c0.8,0,1.4,0.6,1.4,1.4v13.5c0,0.8-0.6,1.4-1.4,1.4
			h-13.5c-0.8,0-1.4-0.6-1.4-1.4v-13.5C142.9,171,143.6,170.4,144.4,170.4z"/>
	</g>
	<g id="XMLID_195_">
		<path id="XMLID_198_" fill-rule="evenodd" fill="#9B9A9A" d="M117.5,168.2h19.4c0.8,0,1.4,0.6,1.4,1.4v19.8c0,0.8-0.6,1.4-1.4,1.4
			h-19.4c-0.8,0-1.4-0.6-1.4-1.4v-19.8C116.1,168.8,116.7,168.2,117.5,168.2z"/>
		<path id="XMLID_196_" fill-rule="evenodd" fill="#CFD0CF" d="M120.5,170.4H134c0.8,0,1.4,0.6,1.4,1.4v13.5c0,0.8-0.6,1.4-1.4,1.4
			h-13.5c-0.8,0-1.4-0.6-1.4-1.4v-13.5C119,171,119.7,170.4,120.5,170.4z"/>
	</g>
	<g id="XMLID_190_">
		<path id="XMLID_193_" fill-rule="evenodd" fill="#9B9A9A" d="M93.6,168.2H113c0.8,0,1.4,0.6,1.4,1.4v19.8c0,0.8-0.6,1.4-1.4,1.4
			H93.6c-0.8,0-1.4-0.6-1.4-1.4v-19.8C92.1,168.8,92.8,168.2,93.6,168.2z"/>
		<path id="XMLID_191_" fill-rule="evenodd" fill="#CFD0CF" d="M96.5,170.4h13.5c0.8,0,1.4,0.6,1.4,1.4v13.5c0,0.8-0.6,1.4-1.4,1.4
			H96.5c-0.8,0-1.4-0.6-1.4-1.4v-13.5C95.1,171,95.7,170.4,96.5,170.4z"/>
	</g>
	<g id="XMLID_185_">
		<path id="XMLID_188_" fill-rule="evenodd" fill="#9B9A9A" d="M69.7,168.2h19.4c0.8,0,1.4,0.6,1.4,1.4v19.8c0,0.8-0.6,1.4-1.4,1.4
			H69.7c-0.8,0-1.4-0.6-1.4-1.4v-19.8C68.2,168.8,68.9,168.2,69.7,168.2z"/>
		<path id="XMLID_186_" fill-rule="evenodd" fill="#CFD0CF" d="M72.6,170.4h13.5c0.8,0,1.4,0.6,1.4,1.4v13.5c0,0.8-0.6,1.4-1.4,1.4
			H72.6c-0.8,0-1.4-0.6-1.4-1.4v-13.5C71.2,171,71.8,170.4,72.6,170.4z"/>
	</g>
	<g id="XMLID_300_">
		<path id="XMLID_303_" fill-rule="evenodd" fill="#9B9A9A" d="M224.6,144.2h19.4c0.8,0,1.4,0.6,1.4,1.4v19.8c0,0.8-0.6,1.4-1.4,1.4
			h-19.4c-0.8,0-1.4-0.6-1.4-1.4v-19.8C223.2,144.8,223.8,144.2,224.6,144.2z"/>
		<path id="XMLID_301_" fill-rule="evenodd" fill="#CFD0CF" d="M227.6,146.4h13.5c0.8,0,1.4,0.6,1.4,1.4v13.5c0,0.8-0.6,1.4-1.4,1.4
			h-13.5c-0.8,0-1.4-0.6-1.4-1.4v-13.5C226.2,147,226.8,146.4,227.6,146.4z"/>
	</g>
	<g id="XMLID_295_">
		<path id="XMLID_298_" fill-rule="evenodd" fill="#9B9A9A" d="M248.6,144.2H268c0.8,0,1.4,0.6,1.4,1.4v19.8c0,0.8-0.6,1.4-1.4,1.4
			h-19.4c-0.8,0-1.4-0.6-1.4-1.4v-19.8C247.1,144.8,247.8,144.2,248.6,144.2z"/>
		<path id="XMLID_296_" fill-rule="evenodd" fill="#CFD0CF" d="M251.5,146.4H265c0.8,0,1.4,0.6,1.4,1.4v13.5c0,0.8-0.6,1.4-1.4,1.4
			h-13.5c-0.8,0-1.4-0.6-1.4-1.4v-13.5C250.1,147,250.7,146.4,251.5,146.4z"/>
	</g>
	<g id="XMLID_290_">
		<path id="XMLID_293_" fill-rule="evenodd" fill="#9B9A9A" d="M272.5,144.2h19.4c0.8,0,1.4,0.6,1.4,1.4v19.8c0,0.8-0.6,1.4-1.4,1.4
			h-19.4c-0.8,0-1.4-0.6-1.4-1.4v-19.8C271,144.8,271.7,144.2,272.5,144.2z"/>
		<path id="XMLID_291_" fill-rule="evenodd" fill="#CFD0CF" d="M275.4,146.4H289c0.8,0,1.4,0.6,1.4,1.4v13.5c0,0.8-0.6,1.4-1.4,1.4
			h-13.5c-0.8,0-1.4-0.6-1.4-1.4v-13.5C274,147,274.6,146.4,275.4,146.4z"/>
	</g>
	<g id="XMLID_285_">
		<path id="XMLID_288_" fill-rule="evenodd" fill="#9B9A9A" d="M296.4,144.2h19.4c0.8,0,1.4,0.6,1.4,1.4v19.8c0,0.8-0.6,1.4-1.4,1.4
			h-19.4c-0.8,0-1.4-0.6-1.4-1.4v-19.8C294.9,144.8,295.6,144.2,296.4,144.2z"/>
		<path id="XMLID_286_" fill-rule="evenodd" fill="#CFD0CF" d="M299.3,146.4h13.5c0.8,0,1.4,0.6,1.4,1.4v13.5c0,0.8-0.6,1.4-1.4,1.4
			h-13.5c-0.8,0-1.4-0.6-1.4-1.4v-13.5C297.9,147,298.5,146.4,299.3,146.4z"/>
	</g>
	<g id="XMLID_280_">
		<path id="XMLID_283_" fill-rule="evenodd" fill="#9B9A9A" d="M320.3,144.2h19.4c0.8,0,1.4,0.6,1.4,1.4v19.8c0,0.8-0.6,1.4-1.4,1.4
			h-19.4c-0.8,0-1.4-0.6-1.4-1.4v-19.8C318.8,144.8,319.5,144.2,320.3,144.2z"/>
		<path id="XMLID_281_" fill-rule="evenodd" fill="#CFD0CF" d="M323.2,146.4h13.5c0.8,0,1.4,0.6,1.4,1.4v13.5c0,0.8-0.6,1.4-1.4,1.4
			h-13.5c-0.8,0-1.4-0.6-1.4-1.4v-13.5C321.8,147,322.4,146.4,323.2,146.4z"/>
	</g>
	<g id="XMLID_305_">
		<path id="XMLID_308_" fill-rule="evenodd" fill="#9B9A9A" d="M344.2,144.2h19.4c0.8,0,1.4,0.6,1.4,1.4v19.8c0,0.8-0.6,1.4-1.4,1.4
			h-19.4c-0.8,0-1.4-0.6-1.4-1.4v-19.8C342.7,144.8,343.4,144.2,344.2,144.2z"/>
		<path id="XMLID_306_" fill-rule="evenodd" fill="#CFD0CF" d="M347.1,146.4h13.5c0.8,0,1.4,0.6,1.4,1.4v13.5c0,0.8-0.6,1.4-1.4,1.4
			h-13.5c-0.8,0-1.4-0.6-1.4-1.4v-13.5C345.7,147,346.4,146.4,347.1,146.4z"/>
	</g>
	<g id="XMLID_275_">
		<path id="XMLID_278_" fill-rule="evenodd" fill="#9B9A9A" d="M200.7,144.2h19.4c0.8,0,1.4,0.6,1.4,1.4v19.8c0,0.8-0.6,1.4-1.4,1.4
			h-19.4c-0.8,0-1.4-0.6-1.4-1.4v-19.8C199.3,144.8,199.9,144.2,200.7,144.2z"/>
		<path id="XMLID_276_" fill-rule="evenodd" fill="#CFD0CF" d="M203.7,146.4h13.5c0.8,0,1.4,0.6,1.4,1.4v13.5c0,0.8-0.6,1.4-1.4,1.4
			h-13.5c-0.8,0-1.4-0.6-1.4-1.4v-13.5C202.3,147,202.9,146.4,203.7,146.4z"/>
	</g>
	<g id="XMLID_270_">
		<path id="XMLID_273_" fill-rule="evenodd" fill="#9B9A9A" d="M176.8,144.2h19.4c0.8,0,1.4,0.6,1.4,1.4v19.8c0,0.8-0.6,1.4-1.4,1.4
			h-19.4c-0.8,0-1.4-0.6-1.4-1.4v-19.8C175.4,144.8,176,144.2,176.8,144.2z"/>
		<path id="XMLID_271_" fill-rule="evenodd" fill="#CFD0CF" d="M179.8,146.4h13.5c0.8,0,1.4,0.6,1.4,1.4v13.5c0,0.8-0.6,1.4-1.4,1.4
			h-13.5c-0.8,0-1.4-0.6-1.4-1.4v-13.5C178.3,147,179,146.4,179.8,146.4z"/>
	</g>
	<g id="XMLID_265_">
		<path id="XMLID_268_" fill-rule="evenodd" fill="#9B9A9A" d="M152.9,144.2h19.4c0.8,0,1.4,0.6,1.4,1.4v19.8c0,0.8-0.6,1.4-1.4,1.4
			h-19.4c-0.8,0-1.4-0.6-1.4-1.4v-19.8C151.5,144.8,152.1,144.2,152.9,144.2z"/>
		<path id="XMLID_266_" fill-rule="evenodd" fill="#CFD0CF" d="M155.9,146.4h13.5c0.8,0,1.4,0.6,1.4,1.4v13.5c0,0.8-0.6,1.4-1.4,1.4
			h-13.5c-0.8,0-1.4-0.6-1.4-1.4v-13.5C154.4,147,155.1,146.4,155.9,146.4z"/>
	</g>
	<g id="XMLID_260_">
		<path id="XMLID_263_" fill-rule="evenodd" fill="#9B9A9A" d="M129,144.2h19.4c0.8,0,1.4,0.6,1.4,1.4v19.8c0,0.8-0.6,1.4-1.4,1.4
			H129c-0.8,0-1.4-0.6-1.4-1.4v-19.8C127.6,144.8,128.2,144.2,129,144.2z"/>
		<path id="XMLID_261_" fill-rule="evenodd" fill="#CFD0CF" d="M132,146.4h13.5c0.8,0,1.4,0.6,1.4,1.4v13.5c0,0.8-0.6,1.4-1.4,1.4
			H132c-0.8,0-1.4-0.6-1.4-1.4v-13.5C130.5,147,131.2,146.4,132,146.4z"/>
	</g>
	<g id="XMLID_255_">
		<path id="XMLID_258_" fill-rule="evenodd" fill="#9B9A9A" d="M105.1,144.2h19.4c0.8,0,1.4,0.6,1.4,1.4v19.8c0,0.8-0.6,1.4-1.4,1.4
			h-19.4c-0.8,0-1.4-0.6-1.4-1.4v-19.8C103.7,144.8,104.3,144.2,105.1,144.2z"/>
		<path id="XMLID_256_" fill-rule="evenodd" fill="#CFD0CF" d="M108.1,146.4h13.5c0.8,0,1.4,0.6,1.4,1.4v13.5c0,0.8-0.6,1.4-1.4,1.4
			h-13.5c-0.8,0-1.4-0.6-1.4-1.4v-13.5C106.6,147,107.3,146.4,108.1,146.4z"/>
	</g>
	<g id="XMLID_250_">
		<path id="XMLID_253_" fill-rule="evenodd" fill="#9B9A9A" d="M81.2,144.2h19.4c0.8,0,1.4,0.6,1.4,1.4v19.8c0,0.8-0.6,1.4-1.4,1.4
			H81.2c-0.8,0-1.4-0.6-1.4-1.4v-19.8C79.7,144.8,80.4,144.2,81.2,144.2z"/>
		<path id="XMLID_251_" fill-rule="evenodd" fill="#CFD0CF" d="M84.1,146.4h13.5c0.8,0,1.4,0.6,1.4,1.4v13.5c0,0.8-0.6,1.4-1.4,1.4
			H84.1c-0.8,0-1.4-0.6-1.4-1.4v-13.5C82.7,147,83.4,146.4,84.1,146.4z"/>
	</g>
	<g id="XMLID_245_">
		<path id="XMLID_248_" fill-rule="evenodd" fill="#9B9A9A" d="M57.3,144.2h19.4c0.8,0,1.4,0.6,1.4,1.4v19.8c0,0.8-0.6,1.4-1.4,1.4
			H57.3c-0.8,0-1.4-0.6-1.4-1.4v-19.8C55.8,144.8,56.5,144.2,57.3,144.2z"/>
		<path id="XMLID_246_" fill-rule="evenodd" fill="#CFD0CF" d="M60.2,146.4h13.5c0.8,0,1.4,0.6,1.4,1.4v13.5c0,0.8-0.6,1.4-1.4,1.4
			H60.2c-0.8,0-1.4-0.6-1.4-1.4v-13.5C58.8,147,59.4,146.4,60.2,146.4z"/>
	</g>
	<g id="XMLID_476_">
		<path id="XMLID_479_" fill-rule="evenodd" fill="#60605D" d="M19.5,216.3h40.1c0.8,0,1.4,0.6,1.4,1.4v19.8c0,0.8-0.6,1.4-1.4,1.4
			H19.5c-0.8,0-1.4-0.6-1.4-1.4v-19.8C18,216.9,18.7,216.3,19.5,216.3z"/>
		<path id="XMLID_477_" fill-rule="evenodd" fill="#868580" d="M22.4,218.5h34.2c0.8,0,1.4,0.6,1.4,1.4v13.5c0,0.8-0.6,1.4-1.4,1.4
			H22.4c-0.8,0-1.4-0.6-1.4-1.4v-13.5C21,219.1,21.6,218.5,22.4,218.5z"/>
	</g>
	<g id="XMLID_470_">
		<path id="XMLID_474_" fill-rule="evenodd" fill="#60605D" d="M327.4,216.3h36.1c0.8,0,1.4,0.6,1.4,1.4v19.8c0,0.8-0.6,1.4-1.4,1.4
			h-36.1c-0.8,0-1.4-0.6-1.4-1.4v-19.8C325.9,216.9,326.6,216.3,327.4,216.3z"/>
		<path id="XMLID_471_" fill-rule="evenodd" fill="#868580" d="M330.3,218.5h30.2c0.8,0,1.4,0.6,1.4,1.4v13.5c0,0.8-0.6,1.4-1.4,1.4
			h-30.2c-0.8,0-1.4-0.6-1.4-1.4v-13.5C328.9,219.1,329.5,218.5,330.3,218.5z"/>
	</g>
	<g id="XMLID_445_">
		<path id="XMLID_448_" fill-rule="evenodd" fill="#60605D" d="M38.8,240.3h26.8c0.8,0,1.4,0.6,1.4,1.4v19.8c0,0.8-0.6,1.4-1.4,1.4
			H38.8c-0.8,0-1.4-0.6-1.4-1.4v-19.8C37.3,241,38,240.3,38.8,240.3z"/>
		<path id="XMLID_446_" fill-rule="evenodd" fill="#868580" d="M41.7,242.5h20.9c0.8,0,1.4,0.6,1.4,1.4v13.5c0,0.8-0.6,1.4-1.4,1.4
			H41.7c-0.8,0-1.4-0.6-1.4-1.4V244C40.3,243.2,40.9,242.5,41.7,242.5z"/>
	</g>
	<g id="XMLID_440_">
		<path id="XMLID_443_" fill-rule="evenodd" fill="#60605D" d="M69.7,240.3h26.8c0.8,0,1.4,0.6,1.4,1.4v19.8c0,0.8-0.6,1.4-1.4,1.4
			H69.7c-0.8,0-1.4-0.6-1.4-1.4v-19.8C68.2,241,68.9,240.3,69.7,240.3z"/>
		<path id="XMLID_441_" fill-rule="evenodd" fill="#868580" d="M72.6,242.5h20.9c0.8,0,1.4,0.6,1.4,1.4v13.5c0,0.8-0.6,1.4-1.4,1.4
			H72.6c-0.8,0-1.4-0.6-1.4-1.4V244C71.2,243.2,71.8,242.5,72.6,242.5z"/>
	</g>
	<g id="XMLID_435_">
		<path id="XMLID_438_" fill-rule="evenodd" fill="#60605D" d="M290.1,240.3h25.8c0.8,0,1.4,0.6,1.4,1.4v19.8c0,0.8-0.6,1.4-1.4,1.4
			h-25.8c-0.8,0-1.4-0.6-1.4-1.4v-19.8C288.6,241,289.3,240.3,290.1,240.3z"/>
		<path id="XMLID_436_" fill-rule="evenodd" fill="#868580" d="M293,242.5h19.9c0.8,0,1.4,0.6,1.4,1.4v13.5c0,0.8-0.6,1.4-1.4,1.4
			H293c-0.8,0-1.4-0.6-1.4-1.4V244C291.6,243.2,292.2,242.5,293,242.5z"/>
	</g>
	<g id="XMLID_405_">
		<path id="XMLID_408_" fill-rule="evenodd" fill="#60605D" d="M19.5,192.2h28.5c0.8,0,1.4,0.6,1.4,1.4v19.8c0,0.8-0.6,1.4-1.4,1.4
			H19.5c-0.8,0-1.4-0.6-1.4-1.4v-19.8C18,192.9,18.7,192.2,19.5,192.2z"/>
		<path id="XMLID_406_" fill-rule="evenodd" fill="#868580" d="M22.4,194.4H45c0.8,0,1.4,0.6,1.4,1.4v13.5c0,0.8-0.6,1.4-1.4,1.4
			H22.4c-0.8,0-1.4-0.6-1.4-1.4v-13.5C21,195.1,21.6,194.4,22.4,194.4z"/>
	</g>
	<g id="XMLID_400_">
		<path id="XMLID_403_" fill-rule="evenodd" fill="#60605D" d="M52.7,192.2h19.2c0.8,0,1.4,0.6,1.4,1.4v19.8c0,0.8-0.6,1.4-1.4,1.4
			H52.7c-0.8,0-1.4-0.6-1.4-1.4v-19.8C51.3,192.9,51.9,192.2,52.7,192.2z"/>
		<path id="XMLID_401_" fill-rule="evenodd" fill="#868580" d="M55.7,194.4H69c0.8,0,1.4,0.6,1.4,1.4v13.5c0,0.8-0.6,1.4-1.4,1.4
			H55.7c-0.8,0-1.4-0.6-1.4-1.4v-13.5C54.3,195.1,54.9,194.4,55.7,194.4z"/>
	</g>
	<g id="XMLID_395_">
		<path id="XMLID_398_" fill-rule="evenodd" fill="#60605D" d="M368.1,144.2h19.2c0.8,0,1.4,0.6,1.4,1.4v19.8c0,0.8-0.6,1.4-1.4,1.4
			h-19.2c-0.8,0-1.4-0.6-1.4-1.4v-19.8C366.7,144.8,367.3,144.2,368.1,144.2z"/>
		<path id="XMLID_396_" fill-rule="evenodd" fill="#868580" d="M371.1,146.4h13.3c0.8,0,1.4,0.6,1.4,1.4v13.5c0,0.8-0.6,1.4-1.4,1.4
			h-13.3c-0.8,0-1.4-0.6-1.4-1.4v-13.5C369.6,147,370.3,146.4,371.1,146.4z"/>
	</g>
	<g id="XMLID_380_">
		<path id="XMLID_383_" fill-rule="evenodd" fill="#60605D" d="M391.8,144.2H411c0.8,0,1.4,0.6,1.4,1.4v19.8c0,0.8-0.6,1.4-1.4,1.4
			h-19.2c-0.8,0-1.4-0.6-1.4-1.4v-19.8C390.4,144.8,391,144.2,391.8,144.2z"/>
		<path id="XMLID_381_" fill-rule="evenodd" fill="#868580" d="M394.8,146.4h13.3c0.8,0,1.4,0.6,1.4,1.4v13.5c0,0.8-0.6,1.4-1.4,1.4
			h-13.3c-0.8,0-1.4-0.6-1.4-1.4v-13.5C393.3,147,394,146.4,394.8,146.4z"/>
	</g>
	<g id="XMLID_375_">
		<path id="XMLID_378_" fill-rule="evenodd" fill="#60605D" d="M19.5,168.2h45.8c0.8,0,1.4,0.6,1.4,1.4v19.8c0,0.8-0.6,1.4-1.4,1.4
			H19.5c-0.8,0-1.4-0.6-1.4-1.4v-19.8C18,168.8,18.7,168.2,19.5,168.2z"/>
		<path id="XMLID_376_" fill-rule="evenodd" fill="#868580" d="M22.4,170.4h39.9c0.8,0,1.4,0.6,1.4,1.4v13.5c0,0.8-0.6,1.4-1.4,1.4
			H22.4c-0.8,0-1.4-0.6-1.4-1.4v-13.5C21,171,21.6,170.4,22.4,170.4z"/>
	</g>
	<g id="XMLID_370_">
		<path id="XMLID_373_" fill-rule="evenodd" fill="#60605D" d="M19.5,144.2h33.4c0.8,0,1.4,0.6,1.4,1.4v19.8c0,0.8-0.6,1.4-1.4,1.4
			H19.5c-0.8,0-1.4-0.6-1.4-1.4v-19.8C18,144.8,18.7,144.2,19.5,144.2z"/>
		<path id="XMLID_371_" fill-rule="evenodd" fill="#868580" d="M22.4,146.4h27.5c0.8,0,1.4,0.6,1.4,1.4v13.5c0,0.8-0.6,1.4-1.4,1.4
			H22.4c-0.8,0-1.4-0.6-1.4-1.4v-13.5C21,147,21.6,146.4,22.4,146.4z"/>
	</g>
	<g id="XMLID_528_">
		<path id="XMLID_28_" fill-rule="evenodd" fill="#60605D" d="M356.8,168.2h30.5c0.8,0,1.4,0.6,1.4,1.4v43.7c0,0.8-0.6,1.4-1.4,1.4
			h-23.5c-0.8,0-1.4-0.6-1.4-1.4c0,0,0-16.2,0-18.7c0-2.4-1.5-3.2-3.7-3.2c-3,0-3.3-1.8-3.3-3c0-1.1,0-18.8,0-18.8
			C355.4,168.8,356.1,168.2,356.8,168.2z"/>
		<path id="XMLID_558_" fill-rule="evenodd" fill="#868580" d="M359.7,170.3h24.8c0.8,0,1.4,0.6,1.4,1.4v37.7c0,0.8-0.6,1.4-1.4,1.4
			h-17.8c-0.8,0-1.4-0.6-1.4-1.4c0,0,0-13.8,0-16.6c0-2-1.9-3-3.6-3c-3.1,0-3.4-2.1-3.4-3.1s0-15,0-15
			C358.3,170.9,358.9,170.3,359.7,170.3z"/>
	</g>
	<g id="XMLID_531_">
		<path id="XMLID_561_" fill-rule="evenodd" fill="#60605D" d="M19.4,105.7h19.4c0.8,0,1.4,0.6,1.4,1.4v19.8c0,0.8-0.6,1.4-1.4,1.4
			H19.4c-0.8,0-1.4-0.6-1.4-1.4v-19.8C17.9,106.3,18.6,105.7,19.4,105.7z"/>
		<path id="XMLID_559_" fill-rule="evenodd" fill="#868580" d="M22.3,107.9h13.5c0.8,0,1.4,0.6,1.4,1.4v13.5c0,0.8-0.6,1.4-1.4,1.4
			H22.3c-0.8,0-1.4-0.6-1.4-1.4v-13.5C20.9,108.5,21.5,107.9,22.3,107.9z"/>
	</g>
	<g id="XMLID_568_">
		<path id="XMLID_571_" fill-rule="evenodd" fill="#60605D" d="M56.7,105.7h26.2c0.8,0,1.4,0.6,1.4,1.4v19.8c0,0.8-0.6,1.4-1.4,1.4
			H56.7c-0.8,0-1.4-0.6-1.4-1.4v-19.8C55.3,106.3,55.9,105.7,56.7,105.7z"/>
		<path id="XMLID_569_" fill-rule="evenodd" fill="#868580" d="M59.7,107.9h20.3c0.8,0,1.4,0.6,1.4,1.4v13.5c0,0.8-0.6,1.4-1.4,1.4
			H59.7c-0.8,0-1.4-0.6-1.4-1.4v-13.5C58.2,108.5,58.9,107.9,59.7,107.9z"/>
	</g>
	<g id="XMLID_573_">
		<path id="XMLID_576_" fill-rule="evenodd" fill="#60605D" d="M87.1,105.7h26.2c0.8,0,1.4,0.6,1.4,1.4v19.8c0,0.8-0.6,1.4-1.4,1.4
			H87.1c-0.8,0-1.4-0.6-1.4-1.4v-19.8C85.6,106.3,86.3,105.7,87.1,105.7z"/>
		<path id="XMLID_574_" fill-rule="evenodd" fill="#868580" d="M90,107.9h20.3c0.8,0,1.4,0.6,1.4,1.4v13.5c0,0.8-0.6,1.4-1.4,1.4H90
			c-0.8,0-1.4-0.6-1.4-1.4v-13.5C88.6,108.5,89.2,107.9,90,107.9z"/>
	</g>
	<g id="XMLID_578_">
		<path id="XMLID_581_" fill-rule="evenodd" fill="#60605D" d="M117.4,105.7h26.2c0.8,0,1.4,0.6,1.4,1.4v19.8c0,0.8-0.6,1.4-1.4,1.4
			h-26.2c-0.8,0-1.4-0.6-1.4-1.4v-19.8C116,106.3,116.7,105.7,117.4,105.7z"/>
		<path id="XMLID_579_" fill-rule="evenodd" fill="#868580" d="M120.4,107.9h20.3c0.8,0,1.4,0.6,1.4,1.4v13.5c0,0.8-0.6,1.4-1.4,1.4
			h-20.3c-0.8,0-1.4-0.6-1.4-1.4v-13.5C119,108.5,119.6,107.9,120.4,107.9z"/>
	</g>
	<g id="XMLID_583_">
		<path id="XMLID_586_" fill-rule="evenodd" fill="#60605D" d="M147.8,105.7H174c0.8,0,1.4,0.6,1.4,1.4v19.8c0,0.8-0.6,1.4-1.4,1.4
			h-26.2c-0.8,0-1.4-0.6-1.4-1.4v-19.8C146.4,106.3,147,105.7,147.8,105.7z"/>
		<path id="XMLID_584_" fill-rule="evenodd" fill="#868580" d="M150.8,107.9h20.3c0.8,0,1.4,0.6,1.4,1.4v13.5c0,0.8-0.6,1.4-1.4,1.4
			h-20.3c-0.8,0-1.4-0.6-1.4-1.4v-13.5C149.3,108.5,150,107.9,150.8,107.9z"/>
	</g>
	<g id="XMLID_588_">
		<path id="XMLID_591_" fill-rule="evenodd" fill="#60605D" d="M178.2,105.7h26.2c0.8,0,1.4,0.6,1.4,1.4v19.8c0,0.8-0.6,1.4-1.4,1.4
			h-26.2c-0.8,0-1.4-0.6-1.4-1.4v-19.8C176.8,106.3,177.4,105.7,178.2,105.7z"/>
		<path id="XMLID_589_" fill-rule="evenodd" fill="#868580" d="M181.2,107.9h20.3c0.8,0,1.4,0.6,1.4,1.4v13.5c0,0.8-0.6,1.4-1.4,1.4
			h-20.3c-0.8,0-1.4-0.6-1.4-1.4v-13.5C179.7,108.5,180.4,107.9,181.2,107.9z"/>
	</g>
	<g id="XMLID_613_">
		<path id="XMLID_616_" fill-rule="evenodd" fill="#60605D" d="M218.5,105.7h26.2c0.8,0,1.4,0.6,1.4,1.4v19.8c0,0.8-0.6,1.4-1.4,1.4
			h-26.2c-0.8,0-1.4-0.6-1.4-1.4v-19.8C217.1,106.3,217.7,105.7,218.5,105.7z"/>
		<path id="XMLID_614_" fill-rule="evenodd" fill="#868580" d="M221.5,107.9h20.3c0.8,0,1.4,0.6,1.4,1.4v13.5c0,0.8-0.6,1.4-1.4,1.4
			h-20.3c-0.8,0-1.4-0.6-1.4-1.4v-13.5C220,108.5,220.7,107.9,221.5,107.9z"/>
	</g>
	<g id="XMLID_608_">
		<path id="XMLID_611_" fill-rule="evenodd" fill="#60605D" d="M248.9,105.7H275c0.8,0,1.4,0.6,1.4,1.4v19.8c0,0.8-0.6,1.4-1.4,1.4
			h-26.2c-0.8,0-1.4-0.6-1.4-1.4v-19.8C247.4,106.3,248.1,105.7,248.9,105.7z"/>
		<path id="XMLID_609_" fill-rule="evenodd" fill="#868580" d="M251.8,107.9h20.3c0.8,0,1.4,0.6,1.4,1.4v13.5c0,0.8-0.6,1.4-1.4,1.4
			h-20.3c-0.8,0-1.4-0.6-1.4-1.4v-13.5C250.4,108.5,251,107.9,251.8,107.9z"/>
	</g>
	<g id="XMLID_603_">
		<path id="XMLID_606_" fill-rule="evenodd" fill="#60605D" d="M279.2,105.7h26.2c0.8,0,1.4,0.6,1.4,1.4v19.8c0,0.8-0.6,1.4-1.4,1.4
			h-26.2c-0.8,0-1.4-0.6-1.4-1.4v-19.8C277.8,106.3,278.5,105.7,279.2,105.7z"/>
		<path id="XMLID_604_" fill-rule="evenodd" fill="#868580" d="M282.2,107.9h20.3c0.8,0,1.4,0.6,1.4,1.4v13.5c0,0.8-0.6,1.4-1.4,1.4
			h-20.3c-0.8,0-1.4-0.6-1.4-1.4v-13.5C280.8,108.5,281.4,107.9,282.2,107.9z"/>
	</g>
	<g id="XMLID_598_">
		<path id="XMLID_601_" fill-rule="evenodd" fill="#60605D" d="M309.6,105.7h26.2c0.8,0,1.4,0.6,1.4,1.4v19.8c0,0.8-0.6,1.4-1.4,1.4
			h-26.2c-0.8,0-1.4-0.6-1.4-1.4v-19.8C308.2,106.3,308.8,105.7,309.6,105.7z"/>
		<path id="XMLID_599_" fill-rule="evenodd" fill="#868580" d="M312.6,107.9h20.3c0.8,0,1.4,0.6,1.4,1.4v13.5c0,0.8-0.6,1.4-1.4,1.4
			h-20.3c-0.8,0-1.4-0.6-1.4-1.4v-13.5C311.1,108.5,311.8,107.9,312.6,107.9z"/>
	</g>
	<g id="XMLID_593_">
		<path id="XMLID_596_" fill-rule="evenodd" fill="#60605D" d="M340,105.7h26.2c0.8,0,1.4,0.6,1.4,1.4v19.8c0,0.8-0.6,1.4-1.4,1.4
			H340c-0.8,0-1.4-0.6-1.4-1.4v-19.8C338.6,106.3,339.2,105.7,340,105.7z"/>
		<path id="XMLID_594_" fill-rule="evenodd" fill="#868580" d="M343,107.9h20.3c0.8,0,1.4,0.6,1.4,1.4v13.5c0,0.8-0.6,1.4-1.4,1.4
			H343c-0.8,0-1.4-0.6-1.4-1.4v-13.5C341.5,108.5,342.2,107.9,343,107.9z"/>
	</g>
	<g id="XMLID_122_">
		<path id="XMLID_487_" fill-rule="evenodd" fill="#60605D" d="M384.8,105.7H411c0.8,0,1.4,0.6,1.4,1.4v19.8c0,0.8-0.6,1.4-1.4,1.4
			h-26.2c-0.8,0-1.4-0.6-1.4-1.4v-19.8C383.4,106.3,384,105.7,384.8,105.7z"/>
		<path id="XMLID_124_" fill-rule="evenodd" fill="#868580" d="M387.8,107.9h20.3c0.8,0,1.4,0.6,1.4,1.4v13.5c0,0.8-0.6,1.4-1.4,1.4
			h-20.3c-0.8,0-1.4-0.6-1.4-1.4v-13.5C386.4,108.5,387,107.9,387.8,107.9z"/>
	</g>
</g>
<g id="lights">
	<path id="XMLID_91_" fill-rule="evenodd" fill="#BAD532" d="M399.1,177.2h8.7c0,0,0.1,0.1,0.1,0.2v2.8c0,0.1,0,0.2-0.1,0.2h-8.7
		c0,0-0.1-0.1-0.1-0.2v-2.8C399,177.3,399.1,177.2,399.1,177.2z"/>
	<path id="XMLID_89_" fill-rule="evenodd" fill="#525056" d="M399.1,201h8.7c0,0,0.1,0.1,0.1,0.2v2.8c0,0.1,0,0.2-0.1,0.2h-8.7
		c0,0-0.1-0.1-0.1-0.2v-2.8C399,201.1,399.1,201,399.1,201z"/>
	<path id="XMLID_87_" fill-rule="evenodd" fill="#525056" d="M399.1,224.9h8.7c0,0,0.1,0.1,0.1,0.2v2.8c0,0.1,0,0.2-0.1,0.2h-8.7
		c0,0-0.1-0.1-0.1-0.2v-2.8C399,225,399.1,224.9,399.1,224.9z"/>
	<path id="XMLID_494_" fill-rule="evenodd" fill="#E7E514" d="M406.4,179.6h-5.9c-0.3,0-0.6-0.3-0.6-0.6v-0.4c0-0.3,0.3-0.6,0.6-0.6
		h5.9c0.3,0,0.6,0.3,0.6,0.6v0.4C407.1,179.4,406.8,179.6,406.4,179.6z"/>
</g>
<g id="plaque">
	<path id="XMLID_51_" fill-rule="evenodd" fill="#EAEAEA" d="M18.5,92.1V77.9c0-0.5,0.4-1,1-1h60.7c0.1,0,0.3,0,0.4,0.1
		c-0.2-0.2-0.4-0.4-0.7-0.4H19.1c-0.5,0-1,0.4-1,1v14.2c0,0.4,0.2,0.7,0.6,0.9C18.6,92.5,18.5,92.3,18.5,92.1z"/>
	<path id="XMLID_60_" fill-rule="evenodd" fill="#777878" d="M80.3,76.8c0.1,0.1,0.1,0.3,0.1,0.5v14.2c0,0.5-0.4,1-1,1H18.7
		c-0.2,0-0.3-0.1-0.5-0.1c0.2,0.3,0.5,0.5,0.8,0.5h60.7c0.5,0,1-0.4,1-1V77.6C80.8,77.3,80.6,77,80.3,76.8z"/>
</g>
<g id="a600_x5F_logo">
	<path id="XMLID_430_" fill="#192753" d="M46.9,89.1l1.3-2l0.3,2H46.9z M50.1,91.2l0.1-0.2c-0.1,0-0.1,0-0.2,0
		c-0.1,0-0.2-0.1-0.2-0.1c-0.1-0.1-0.1-0.1-0.2-0.2c0-0.1-0.1-0.1-0.1-0.2l-0.7-4.5h-0.3c-0.4,0.6-0.8,1.3-1.3,2.2
		c-0.5,0.8-1,1.6-1.4,2.3c-0.1,0.1-0.2,0.3-0.3,0.3c-0.1,0.1-0.2,0.1-0.2,0.2c-0.1,0-0.2,0.1-0.3,0.1c-0.1,0-0.2,0-0.2,0l-0.1,0.2h2
		l0.1-0.2c-0.2,0-0.4,0-0.5-0.1c-0.1,0-0.2-0.1-0.2-0.2c0,0,0-0.1,0.1-0.2c0-0.1,0.1-0.2,0.1-0.3c0-0.1,0.1-0.2,0.2-0.4
		c0.1-0.2,0.2-0.3,0.3-0.4h1.8c0.1,0.4,0.1,0.7,0.1,0.9c0,0.2,0,0.3,0,0.4c0,0.1,0,0.1-0.1,0.1c0,0-0.1,0.1-0.2,0.1
		c-0.1,0-0.1,0-0.2,0c-0.1,0-0.2,0-0.3,0l-0.1,0.2H50.1z"/>
	<path id="XMLID_427_" fill="#192753" d="M55.8,88.3c-0.2-0.3-0.5-0.4-0.9-0.4c-0.2,0-0.5,0-0.7,0.1c-0.2,0.1-0.5,0.2-0.7,0.4
		c0.2-0.5,0.5-1,0.9-1.4c0.4-0.4,0.9-0.6,1.4-0.8l0.3,0v-0.3c-0.5,0.1-1,0.2-1.4,0.4c-0.4,0.2-0.8,0.5-1.1,0.8
		c-0.3,0.3-0.6,0.7-0.8,1.2c-0.2,0.4-0.3,0.9-0.3,1.4c0,0.5,0.1,0.9,0.4,1.2c0.3,0.3,0.6,0.4,1.1,0.4c0.3,0,0.6-0.1,0.8-0.2
		c0.3-0.1,0.5-0.3,0.7-0.5c0.2-0.2,0.3-0.4,0.5-0.7c0.1-0.3,0.2-0.5,0.2-0.8C56.2,88.8,56.1,88.5,55.8,88.3z M55,90.6
		c-0.3,0.3-0.5,0.5-0.9,0.5c-0.3,0-0.5-0.1-0.6-0.3s-0.2-0.5-0.2-0.9c0-0.2,0-0.5,0.1-0.7c0-0.2,0.1-0.3,0.1-0.4
		c0.2-0.1,0.3-0.3,0.5-0.3c0.2-0.1,0.4-0.1,0.6-0.1c0.3,0,0.5,0.1,0.6,0.3c0.2,0.2,0.2,0.4,0.2,0.8C55.4,89.8,55.3,90.2,55,90.6z"/>
	<path id="XMLID_115_" fill="#192753" d="M60.5,87.6c-0.3-0.3-0.7-0.4-1.2-0.4c-0.3,0-0.7,0.1-1,0.2c-0.3,0.1-0.6,0.3-0.8,0.6
		c-0.2,0.3-0.4,0.5-0.5,0.9c-0.1,0.3-0.2,0.7-0.2,1c0,0.4,0.1,0.8,0.4,1.1c0.3,0.3,0.7,0.4,1.2,0.4c0.4,0,0.7-0.1,1-0.2
		c0.3-0.1,0.6-0.3,0.8-0.6c0.2-0.2,0.4-0.5,0.5-0.9c0.1-0.3,0.2-0.7,0.2-1C60.9,88.2,60.8,87.9,60.5,87.6z M60,89.3
		c-0.1,0.3-0.2,0.6-0.3,0.9c-0.2,0.3-0.4,0.6-0.6,0.7c-0.2,0.2-0.4,0.2-0.7,0.2c-0.3,0-0.5-0.1-0.6-0.3c-0.1-0.2-0.2-0.4-0.2-0.8
		c0-0.2,0-0.5,0.1-0.8c0.1-0.3,0.2-0.6,0.3-0.8c0.1-0.3,0.3-0.5,0.5-0.7c0.2-0.2,0.5-0.2,0.7-0.2c0.3,0,0.5,0.1,0.6,0.3
		c0.1,0.2,0.2,0.4,0.2,0.8C60.1,88.7,60.1,89,60,89.3z"/>
	<path id="XMLID_105_" fill="#192753" d="M65.1,87.6c-0.3-0.3-0.7-0.4-1.2-0.4c-0.3,0-0.7,0.1-1,0.2c-0.3,0.1-0.6,0.3-0.8,0.6
		c-0.2,0.3-0.4,0.5-0.5,0.9s-0.2,0.7-0.2,1c0,0.4,0.1,0.8,0.4,1.1c0.3,0.3,0.7,0.4,1.2,0.4c0.4,0,0.7-0.1,1-0.2
		c0.3-0.1,0.6-0.3,0.8-0.6c0.2-0.2,0.4-0.5,0.5-0.9c0.1-0.3,0.2-0.7,0.2-1C65.6,88.2,65.4,87.9,65.1,87.6z M64.7,89.3
		c-0.1,0.3-0.2,0.6-0.3,0.9c-0.2,0.3-0.4,0.6-0.6,0.7c-0.2,0.2-0.4,0.2-0.7,0.2c-0.3,0-0.5-0.1-0.6-0.3c-0.1-0.2-0.2-0.4-0.2-0.8
		c0-0.2,0-0.5,0.1-0.8c0.1-0.3,0.2-0.6,0.3-0.8c0.1-0.3,0.3-0.5,0.5-0.7c0.2-0.2,0.5-0.2,0.7-0.2c0.3,0,0.5,0.1,0.6,0.3
		c0.1,0.2,0.2,0.4,0.2,0.8C64.8,88.7,64.7,89,64.7,89.3z"/>
	<path id="path3002" fill="#192753" d="M26,78.3c-3.4,0-6.1,2.7-6.1,6.1c0,3.4,2.7,6.1,6.1,6.1c0.7,0,1.3-0.1,1.9-0.3v-3.1
		c-0.5,0.3-1.1,0.5-1.7,0.5c-1.9,0-3.4-1.5-3.4-3.2c0-1.8,1.5-3.2,3.4-3.2c0.6,0,1.2,0.2,1.7,0.5v-3.1C27.3,78.4,26.6,78.3,26,78.3z
		"/>
	<polygon id="polygon9367" fill="#192753" points="27.9,82.1 27.9,82.1 32.5,82.1 30.4,84.3 27.9,84.3 	"/>
	<polygon id="polygon9369" fill="#ED2224" points="27.9,86.8 27.9,86.8 32.5,86.8 30.4,84.7 27.9,84.7 	"/>
	<path id="path3067" inkscape:connector-curvature="0" fill="#192753" d="M43.8,82.9c0.5,0,1-0.2,1.3-0.4c0.3-0.3,0.5-0.7,0.5-1.2
		c0-0.5-0.2-0.9-0.5-1.2c-0.3-0.3-0.8-0.4-1.3-0.4c-0.5,0-1,0.2-1.3,0.4c-0.3,0.3-0.5,0.7-0.5,1.2c0,0.5,0.2,0.9,0.5,1.2
		C42.8,82.8,43.3,82.9,43.8,82.9z M43.8,82.1c-0.3,0-0.4-0.1-0.6-0.3c-0.1-0.2-0.2-0.4-0.2-0.6c0-0.2,0.1-0.5,0.2-0.6
		c0.1-0.2,0.3-0.3,0.6-0.3c0.3,0,0.4,0.1,0.6,0.3c0.1,0.2,0.2,0.4,0.2,0.6c0,0.2-0.1,0.5-0.2,0.6S44.1,82.1,43.8,82.1z"/>
	<path id="path3069" inkscape:connector-curvature="0" fill="#192753" d="M46.1,82.8h1.1v-1.4c0-0.3,0.1-0.6,0.2-0.8
		c0.1-0.2,0.3-0.2,0.5-0.2c0.2,0,0.3,0.1,0.3,0.2c0.1,0.1,0.1,0.3,0.1,0.5v1.7h1.1v-1.4c0-0.3,0.1-0.6,0.2-0.8
		c0.1-0.2,0.3-0.2,0.5-0.2c0.2,0,0.3,0.1,0.3,0.2c0.1,0.1,0.1,0.3,0.1,0.5v1.7h1.1v-1.9c0-0.4-0.1-0.8-0.2-1
		c-0.2-0.2-0.5-0.4-0.9-0.4c-0.2,0-0.4,0-0.6,0.1c-0.2,0.1-0.4,0.3-0.5,0.5c-0.1-0.2-0.2-0.4-0.4-0.5c-0.2-0.1-0.4-0.2-0.6-0.2
		c-0.3,0-0.5,0.1-0.7,0.2c-0.2,0.1-0.4,0.3-0.5,0.5h0v-0.6h-1V82.8z"/>
	<path id="path3071" inkscape:connector-curvature="0" fill="#192753" d="M52.2,82.8h1.1v-1.4c0-0.3,0.1-0.6,0.2-0.8
		c0.1-0.2,0.3-0.2,0.5-0.2c0.2,0,0.3,0.1,0.3,0.2c0.1,0.1,0.1,0.3,0.1,0.5v1.7h1.1v-1.4c0-0.3,0.1-0.6,0.2-0.8
		c0.1-0.2,0.3-0.2,0.5-0.2c0.2,0,0.3,0.1,0.3,0.2c0.1,0.1,0.1,0.3,0.1,0.5v1.7h1.1v-1.9c0-0.4-0.1-0.8-0.2-1
		c-0.2-0.2-0.5-0.4-0.9-0.4c-0.2,0-0.4,0-0.6,0.1c-0.2,0.1-0.4,0.3-0.5,0.5c-0.1-0.2-0.2-0.4-0.4-0.5c-0.2-0.1-0.4-0.2-0.6-0.2
		c-0.3,0-0.5,0.1-0.7,0.2c-0.2,0.1-0.4,0.3-0.5,0.5h0v-0.6h-1V82.8z"/>
	<path id="path3073" inkscape:connector-curvature="0" fill="#192753" d="M60,82.9c0.5,0,1-0.2,1.3-0.4c0.3-0.3,0.5-0.7,0.5-1.2
		c0-0.5-0.2-0.9-0.5-1.2c-0.3-0.3-0.8-0.4-1.3-0.4c-0.5,0-1,0.2-1.3,0.4c-0.3,0.3-0.5,0.7-0.5,1.2c0,0.5,0.2,0.9,0.5,1.2
		C59,82.8,59.4,82.9,60,82.9z M60,82.1c-0.3,0-0.4-0.1-0.6-0.3s-0.2-0.4-0.2-0.6c0-0.2,0.1-0.5,0.2-0.6c0.1-0.2,0.3-0.3,0.6-0.3
		c0.3,0,0.4,0.1,0.6,0.3c0.1,0.2,0.2,0.4,0.2,0.6c0,0.2-0.1,0.5-0.2,0.6C60.4,82,60.2,82.1,60,82.1z"/>
	<path id="path3075" inkscape:connector-curvature="0" fill="#192753" d="M65.8,78.2h-1.1V80h0c-0.1-0.2-0.3-0.3-0.5-0.4
		c-0.2-0.1-0.4-0.1-0.6-0.1c-0.4,0-0.8,0.2-1,0.5c-0.2,0.3-0.4,0.7-0.4,1.1c0,0.5,0.1,0.9,0.4,1.2c0.2,0.3,0.6,0.5,1.1,0.5
		c0.3,0,0.5-0.1,0.7-0.2c0.2-0.1,0.3-0.3,0.4-0.5h0v0.6h1V78.2z M63.3,81.2c0-0.2,0.1-0.4,0.2-0.6c0.1-0.2,0.3-0.2,0.5-0.2
		c0.2,0,0.4,0.1,0.5,0.2c0.1,0.2,0.2,0.4,0.2,0.6c0,0.2-0.1,0.4-0.2,0.6c-0.1,0.2-0.3,0.2-0.5,0.2c-0.2,0-0.4-0.1-0.5-0.2
		C63.4,81.7,63.3,81.5,63.3,81.2L63.3,81.2z"/>
	<path id="path3077" inkscape:connector-curvature="0" fill="#192753" d="M68,82.9c0.5,0,1-0.2,1.3-0.4c0.3-0.3,0.5-0.7,0.5-1.2
		c0-0.5-0.2-0.9-0.5-1.2c-0.3-0.3-0.8-0.4-1.3-0.4c-0.5,0-1,0.2-1.3,0.4c-0.3,0.3-0.5,0.7-0.5,1.2c0,0.5,0.2,0.9,0.5,1.2
		C67.1,82.8,67.5,82.9,68,82.9z M68,82.1c-0.3,0-0.4-0.1-0.6-0.3c-0.1-0.2-0.2-0.4-0.2-0.6c0-0.2,0.1-0.5,0.2-0.6
		c0.1-0.2,0.3-0.3,0.6-0.3c0.3,0,0.4,0.1,0.6,0.3c0.1,0.2,0.2,0.4,0.2,0.6c0,0.2-0.1,0.5-0.2,0.6C68.5,82,68.3,82.1,68,82.1z"/>
	<path id="path3079" inkscape:connector-curvature="0" fill="#192753" d="M72.7,79.6c-0.1,0-0.1,0-0.2,0c-0.1,0-0.1,0-0.2,0
		c-0.2,0-0.4,0.1-0.6,0.2c-0.2,0.1-0.3,0.3-0.4,0.5h0v-0.6h-1v3.2h1.1v-1.4c0-0.3,0.1-0.6,0.2-0.7c0.1-0.2,0.3-0.3,0.6-0.3
		c0.1,0,0.1,0,0.2,0c0.1,0,0.1,0,0.2,0L72.7,79.6z"/>
	<path id="path3081" inkscape:connector-curvature="0" fill="#192753" d="M76.2,81.6v-0.2c0-0.5-0.1-0.9-0.4-1.3
		c-0.2-0.3-0.7-0.5-1.3-0.5c-0.5,0-0.9,0.2-1.2,0.4c-0.3,0.3-0.5,0.7-0.5,1.2c0,0.5,0.2,0.9,0.5,1.2c0.3,0.3,0.8,0.4,1.3,0.4
		c0.2,0,0.4,0,0.6,0s0.4-0.1,0.6-0.2v-0.8c-0.2,0.1-0.3,0.2-0.5,0.2c-0.2,0-0.3,0.1-0.5,0.1c-0.3,0-0.5,0-0.7-0.1
		c-0.2-0.1-0.3-0.3-0.3-0.5H76.2z M74,80.9c0-0.2,0.1-0.3,0.2-0.5c0.1-0.1,0.2-0.2,0.4-0.2c0.2,0,0.4,0.1,0.5,0.2
		c0.1,0.1,0.1,0.3,0.1,0.5H74z"/>
	<path id="path3064" sodipodi:nodetypes="sssssccsssssccss" inkscape:connector-curvature="0" fill="#192753" d="M39.6,82.9
		c-0.5-0.1-0.8-0.3-1.2-0.7c-0.3-0.3-0.4-0.6-0.5-1.2c-0.2-1.1,0.3-2.1,1.2-2.5c0.4-0.2,1-0.3,1.6-0.3c0.4,0,0.7,0.1,1,0.1l-0.1,1
		c0,0-0.1,0-0.3-0.1c-0.2-0.1-0.4-0.1-0.6-0.1c-0.4,0-0.8,0.1-1.1,0.3c-0.6,0.5-0.6,1.7,0,2.3c0.4,0.3,1.1,0.4,1.7,0.3l0.3-0.1
		l0.1,1c-0.2,0-0.6,0.1-1.1,0.1C40.1,83,39.9,82.9,39.6,82.9z"/>
	<rect id="XMLID_36_" x="35.4" y="84.3" fill="#192753" width="43.4" height="0.4"/>
</g>
<g id="amiga_x5F_logo_x5F_big">
	<g id="XMLID_50_">
		<g id="XMLID_75_">
			<polygon id="XMLID_77_" fill="#777878" points="318.4,88 324,81 324.1,80 317.6,88 			"/>
			<path id="XMLID_78_" fill="#777878" d="M328,74.5l0,17c0,0.9,0,1.5,0,1.6c0,0.7,0.2,1.2,0.5,1.6c0.2,0.2,0.4,0.3,0.7,0.4
				c-0.1,0-0.1-0.1-0.1-0.1c-0.3-0.3-0.5-0.8-0.5-1.6c0-0.2,0-0.7,0-1.6l0-17.3H328z"/>
			<path id="XMLID_80_" fill="#777878" d="M315.2,95.5l0,0.3h-5.8l-0.1,0.3h6.4l0-0.5C315.5,95.5,315.4,95.5,315.2,95.5z"/>
			<path id="XMLID_88_" fill="#777878" d="M324,89h-7.1l-1.3,1.6l-1.4,1.8c-0.3,0.4-0.5,0.7-0.6,1.1c-0.1,0.2-0.1,0.5-0.1,0.7
				c0,0.3,0.2,0.5,0.4,0.7c0.1,0.1,0.3,0.2,0.4,0.2c-0.2-0.2-0.3-0.4-0.4-0.6c0-0.2,0-0.5,0.1-0.7c0.1-0.3,0.3-0.7,0.6-1.1l1.4-1.8
				l1.3-1.6h6.6L324,89z"/>
			<path id="XMLID_90_" fill="#777878" d="M329.9,95.5l-0.1,0.4h-8.7l-0.1,0.3h9.2l0.1-0.5C330.3,95.5,330.1,95.5,329.9,95.5z"/>
		</g>
		<g id="XMLID_61_">
			<path id="XMLID_63_" fill="#777878" d="M339.8,78.7l-0.2-1.5L335.9,92c-0.1,0.6-0.2,1.1-0.2,1.5c0,0.5,0.2,0.9,0.6,1.3
				c0.1,0.1,0.3,0.2,0.5,0.3c-0.4-0.3-0.6-0.7-0.6-1.3c0-0.4,0-0.9,0.2-1.5L339.8,78.7z"/>
			<polygon id="XMLID_86_" fill="#777878" points="345.8,89.8 346.2,89.2 343.9,74.9 343.5,74.9 			"/>
			<path id="XMLID_92_" fill="#777878" d="M362.6,74.9l-0.1,0.3c-1,0-1.8,0.2-2.3,0.7c-0.5,0.4-0.9,1.3-1.3,2.6L355.5,92
				c-0.2,0.9-0.3,1.5-0.3,1.9c0,0.4,0.2,0.7,0.5,0.9c0.1,0.1,0.2,0.1,0.4,0.2c-0.2-0.2-0.4-0.5-0.4-0.8c0-0.4,0.1-1.1,0.3-1.9
				l3.4-13.6c0.3-1.3,0.7-2.2,1.3-2.6c0.5-0.4,1.3-0.7,2.3-0.7l0.2-0.5H362.6z"/>
			<path id="XMLID_93_" fill="#777878" d="M357.5,95.8h-10.1l-0.1,0.3H358l0.1-0.5c-0.2,0-0.4,0-0.6,0L357.5,95.8z"/>
			<polygon id="XMLID_94_" fill="#777878" points="354.8,77.4 342.7,95.8 342.5,95.8 342.6,96.1 343.2,96.1 354.4,79.1 			"/>
			<path id="XMLID_102_" fill="#777878" d="M338,95.8h-6.5l-0.1,0.3h7.1l0.1-0.5c-0.2,0-0.4,0-0.6,0L338,95.8z"/>
		</g>
		<g id="XMLID_58_">
			<line id="XMLID_31_" fill="#777878" x1="365.1" y1="75.3" x2="365.1" y2="75.5"/>
			<path id="XMLID_82_" fill="#777878" d="M370.4,95.8h-10l-0.1,0.3h10.6l0.1-0.5c-0.2,0-0.4,0-0.6,0L370.4,95.8z"/>
			<path id="XMLID_101_" fill="#777878" d="M375,74.9l-0.1,0.3c-0.9,0-1.7,0.2-2.1,0.6c-0.5,0.4-0.9,1.3-1.2,2.6L368.2,92
				c-0.2,1-0.4,1.6-0.3,1.9c0,0.4,0.2,0.7,0.5,0.9c0.1,0.1,0.2,0.1,0.4,0.2c-0.2-0.2-0.4-0.5-0.4-0.8c0-0.3,0.1-1,0.3-1.9l3.4-13.5
				c0.3-1.3,0.7-2.2,1.2-2.6c0.5-0.4,1.2-0.6,2.1-0.6l0.2-0.5H375z"/>
		</g>
		<g id="XMLID_52_">
			<path id="XMLID_53_" fill="#777878" d="M394.9,75.1l-1,5.8h-0.1c0,0.1,0,0.2,0,0.3h0.5l1-5.8c0,0,0-0.6-0.2-0.8
				c-0.2-0.2-0.3-0.2-0.3-0.2c0,0-0.1,0-0.1,0C394.9,74.7,394.9,75.1,394.9,75.1z"/>
			<path id="XMLID_54_" fill="#777878" d="M380.5,93.6c0.5,0.5,1.1,0.9,1.6,1.2c-0.4-0.2-0.8-0.6-1.1-0.9c-1-1.1-1.6-2.7-1.7-4.8
				c-0.1-2.4,0.5-4.7,1.5-6.9c1-2.2,2.8-3.8,4.3-4.9c1.5-1.1,3.4-1.6,4.9-1.6c0.6,0,1,0.1,1.3,0.2c-0.5-0.3-1-0.5-1.8-0.5
				c-1.5,0-3.4,0.6-4.9,1.6c-1.5,1.1-3.3,2.7-4.3,4.9c-1,2.2-1.6,4.5-1.5,6.9C378.9,90.9,379.5,92.5,380.5,93.6z"/>
			<path id="XMLID_97_" fill="#777878" d="M394.7,86c-0.5,0-1,0.1-1.3,0.3c-0.3,0.2-0.5,0.4-0.7,0.8c-0.1,0.2-0.2,0.7-0.4,1.6
				l-1.6,6.3c-2.2,0.9-4.6,1.4-7.1,1.4c-1.9,0-3.5-0.3-4.9-1c0.1,0.1,0.3,0.2,0.4,0.3c1.4,0.7,3,1,5,1c2.5,0,4.9-0.5,7.1-1.4
				l1.6-6.3c0.2-0.8,0.3-1.4,0.4-1.6c0.2-0.3,0.4-0.6,0.7-0.8c0.3-0.2,0.7-0.3,1.3-0.3l0.1-0.6h-0.6L394.7,86z"/>
		</g>
		<g id="XMLID_55_">
			<path id="XMLID_57_" fill="#777878" d="M398.1,95.5l0,0.3h-5.8l-0.1,0.3h6.4l0-0.5C398.4,95.5,398.3,95.5,398.1,95.5z"/>
			<path id="XMLID_84_" fill="#777878" d="M411,74.5l0,17c0,0.9,0,1.5,0,1.6c0,0.7,0.2,1.2,0.5,1.6c0.2,0.2,0.4,0.3,0.7,0.4
				c-0.1,0-0.1-0.1-0.1-0.1c-0.3-0.3-0.5-0.8-0.5-1.6c0-0.2,0-0.7,0-1.6l0-17.3H411z"/>
			<polygon id="XMLID_100_" fill="#777878" points="401.4,88 407.5,80.4 407.5,79.5 400.6,88 			"/>
			<path id="XMLID_103_" fill="#777878" d="M406.9,89h-7.1l-1.3,1.6l-1.4,1.8c-0.3,0.4-0.5,0.7-0.6,1.1c-0.1,0.2-0.1,0.5-0.1,0.7
				c0,0.3,0.2,0.5,0.4,0.7c0.1,0.1,0.3,0.2,0.4,0.2c-0.2-0.2-0.3-0.4-0.4-0.6c0-0.2,0-0.5,0.1-0.7c0.1-0.3,0.3-0.7,0.6-1.1l1.4-1.8
				l1.3-1.6h6.6L406.9,89z"/>
			<path id="XMLID_104_" fill="#777878" d="M412.9,95.5l-0.1,0.4h-8.7l-0.1,0.3h9.2l0.1-0.5C413.2,95.5,413,95.5,412.9,95.5z"/>
		</g>
	</g>
	<g id="XMLID_29_">
		<g id="XMLID_120_">
			<path id="XMLID_126_" fill="#E8E8E8" d="M310,95.8c0.6-0.1,1.1-0.3,1.5-0.6c0.6-0.4,1.4-1.3,2.4-2.6l14.4-17.9h0.2v-0.3h-0.7
				l-14.4,17.9c-1,1.3-1.9,2.2-2.4,2.6c-0.4,0.3-0.9,0.5-1.5,0.6l-0.1,0.5h0.6L310,95.8z"/>
			<polygon id="XMLID_128_" fill="#E8E8E8" points="324.6,80.3 324,81 323.9,88 318.6,88 318.3,88.3 324.4,88.3 			"/>
			<path id="XMLID_130_" fill="#E8E8E8" d="M321.8,95.8c0.9-0.1,1.4-0.2,1.6-0.2c0.3-0.1,0.5-0.5,0.8-0.9c0.2-0.5,0.3-1.3,0.3-2.4
				l0-3H324l0,2.8c0,1.2-0.1,2-0.3,2.4c-0.2,0.5-0.5,0.8-0.8,0.9c-0.1,0.1-0.7,0.1-1.6,0.2l-0.2,0.5h0.6L321.8,95.8z"/>
		</g>
		<g id="XMLID_70_">
			<path id="XMLID_72_" fill="#E8E8E8" d="M336.8,75.2h7.2l0-0.3h-7.6l-0.2,0.5c0.2,0,0.4,0,0.6,0L336.8,75.2z"/>
			<path id="XMLID_114_" fill="#E8E8E8" d="M348,95.8c1.1,0,2-0.2,2.5-0.7c0.5-0.4,1-1.3,1.3-2.6l3.7-14.8l-0.9,1.4l-3.3,13.1
				c-0.3,1.3-0.8,2.2-1.3,2.6c-0.5,0.4-1.4,0.7-2.5,0.7l-0.2,0.5h0.6L348,95.8z"/>
			<polygon id="XMLID_116_" fill="#E8E8E8" points="346.4,90.1 356.2,75.2 363.1,75.2 363.2,74.9 355.7,74.9 346.2,89.2 			"/>
			<polygon id="XMLID_118_" fill="#E8E8E8" points="340.3,77.6 340,78.7 342.6,96.1 343,96.1 			"/>
			<path id="XMLID_132_" fill="#E8E8E8" d="M332.1,95.8c0.8,0,1.5-0.2,1.9-0.5c0.8-0.6,1.3-1.5,1.6-2.7l4-15.7
				c-0.5-0.5-0.9-0.8-1.2-0.9c0,0,0,0,0,0c0.2,0.2,0.5,0.4,0.7,0.7l-4,15.7c-0.3,1.2-0.9,2.1-1.6,2.7c-0.4,0.3-1.1,0.5-1.9,0.5
				l-0.1,0.5h0.6L332.1,95.8z"/>
		</g>
		<g id="XMLID_67_">
			<path id="XMLID_110_" fill="#E8E8E8" d="M365.7,75.2h9.8l0.1-0.3h-10.4l-0.2,0.5c0.2,0,0.4,0,0.6,0.1L365.7,75.2z"/>
			<path id="XMLID_112_" fill="#E8E8E8" d="M361,95.8c1.1,0,1.8-0.2,2.3-0.6c0.5-0.4,0.9-1.3,1.2-2.7l3.4-13.5
				c0.2-0.8,0.3-1.5,0.3-1.9c0-0.4-0.2-0.7-0.5-0.9c-0.1-0.1-0.2-0.1-0.4-0.2c0.2,0.2,0.3,0.5,0.3,0.8c0,0.4-0.1,1.1-0.3,1.9
				L364,92.3c-0.3,1.4-0.8,2.3-1.2,2.7c-0.5,0.4-1.2,0.6-2.3,0.6l-0.2,0.5h0.6L361,95.8z"/>
		</g>
		<g id="XMLID_32_">
			<path id="XMLID_33_" fill="#E8E8E8" d="M386,86.2c0.2,0,0.4,0,0.6,0l0.1-0.3h8.6l0.1-0.3h-9.2L386,86.2z"/>
			<path id="XMLID_106_" fill="#E8E8E8" d="M382.6,95c0.8,0.5,1.6,0.7,2.5,0.7c0.6,0,1.2-0.2,2-0.5l1.4-5.6c0.2-0.9,0.3-1.5,0.3-1.8
				c0-0.4-0.2-0.7-0.5-1c-0.1-0.1-0.3-0.2-0.4-0.2c0.3,0.3,0.4,0.5,0.5,0.9c0,0.3-0.1,0.9-0.3,1.8l-1.4,5.6c-0.8,0.3-1.5,0.5-2,0.5
				C383.9,95.5,383.2,95.3,382.6,95z"/>
			<path id="XMLID_108_" fill="#E8E8E8" d="M376.3,92.6c-0.9-1.5-1.5-3.1-1.5-5c-0.2-4,1.5-7.3,5-9.9c2.7-2,5.8-2.9,9.3-3.1
				c0.3,0,1.2-0.1,2.4-0.1c1,0,2.2,0,3.8,0.2c0,0,0-0.1-0.1-0.1c-0.2-0.2-0.3-0.2-0.3-0.2c-1.7-0.2-2.9-0.2-3.9-0.2
				c-1.2,0-2.1,0.1-2.4,0.1c-3.5,0.2-6.6,1.1-9.3,3.1c-3.5,2.6-5.1,5.9-5,9.9c0.1,1.9,0.6,3.5,1.5,5c0.9,1.5,2.1,2.5,3.5,3.2
				c0,0,0,0,0,0C378.1,94.9,377.1,93.9,376.3,92.6z"/>
			<path id="XMLID_136_" fill="#E8E8E8" d="M393.9,81.2h0.5c-0.1-1.8-0.2-3.1-1-3.9c-0.5-0.5-0.9-0.9-1.4-1.1
				c0.3,0.2,0.6,0.5,0.9,0.8C393.6,77.9,393.7,79.3,393.9,81.2z"/>
		</g>
		<g id="XMLID_27_">
			<path id="XMLID_95_" fill="#E8E8E8" d="M404.7,95.8c0.9-0.1,1.4-0.2,1.6-0.2c0.3-0.1,0.5-0.5,0.8-0.9c0.2-0.5,0.3-1.3,0.3-2.4
				l0-3h-0.5l0,2.7c0,1.2-0.1,2-0.3,2.4c-0.2,0.5-0.5,0.8-0.8,0.9c-0.1,0.1-0.7,0.1-1.6,0.2l-0.2,0.5h0.6L404.7,95.8z"/>
			<path id="XMLID_138_" fill="#E8E8E8" d="M392.9,95.8c0.6-0.1,1.1-0.3,1.5-0.6c0.6-0.4,1.4-1.3,2.4-2.6l14.4-17.9h0.2l0-0.3h-0.7
				l-14.4,17.9c-1,1.3-1.9,2.2-2.4,2.6c-0.4,0.3-0.9,0.5-1.5,0.6l-0.1,0.5h0.6L392.9,95.8z"/>
			<polygon id="XMLID_139_" fill="#E8E8E8" points="407.5,80.4 407,81 406.9,88 401.5,88 401.2,88.3 407.4,88.3 			"/>
		</g>
	</g>
</g>
</svg>
