<?xml version="1.0" encoding="UTF-8" standalone="no"?>
<svg
   xmlns:dc="http://purl.org/dc/elements/1.1/"
   xmlns:cc="http://creativecommons.org/ns#"
   xmlns:rdf="http://www.w3.org/1999/02/22-rdf-syntax-ns#"
   xmlns:svg="http://www.w3.org/2000/svg"
   xmlns="http://www.w3.org/2000/svg"
   viewBox="0 0 238.50125 221.13499"
   height="221.13499"
   width="238.50125"
   xml:space="preserve"
   version="1.1"
   id="svg2"><metadata
     id="metadata8"><rdf:RDF><cc:Work
         rdf:about=""><dc:format>image/svg+xml</dc:format><dc:type
           rdf:resource="http://purl.org/dc/dcmitype/StillImage" /><dc:title></dc:title></cc:Work></rdf:RDF></metadata><defs
     id="defs6"><clipPath
       id="clipPath64"
       clipPathUnits="userSpaceOnUse"><path
         id="path66"
         d="m 0,176.908 190.801,0 L 190.801,0 0,0 0,176.908 Z" /></clipPath></defs><g
     transform="matrix(1.25,0,0,-1.25,0,221.135)"
     id="g10"><g
       transform="translate(106.2011,98.3038)"
       id="g12"><path
         id="path14"
         style="fill:#0222a9;fill-opacity:1;fill-rule:nonzero;stroke:none"
         d="m 0,0 4.187,4.758 0,32.164 -19.984,-7.708 -16.558,-29.5 L -15.797,6.09 0,0 Z" /></g><g
       transform="translate(141.6969,107.7246)"
       id="g16"><path
         id="path18"
         style="fill:#011da9;fill-opacity:1;fill-rule:nonzero;stroke:none"
         d="m 0,0 0,-54.243 -29.785,42.633 -21.508,-8.184 0,-87.931 21.508,9.042 0,51.482 L 0,-86.122 l 20.27,8.564 0,85.362 L 0,0 Z" /></g><g
       transform="translate(58.1445,30.0723)"
       id="g20"><path
         id="path22"
         style="fill:#0222a9;fill-opacity:1;fill-rule:nonzero;stroke:none"
         d="m 0,0 -19.033,36.922 0,-45.392 L 0,0 Z" /></g><g
       transform="translate(59.3808,115.5284)"
       id="g24"><path
         id="path26"
         style="fill:#069330;fill-opacity:1;fill-rule:nonzero;stroke:none"
         d="m 0,0 0,0 9.518,-19.414 4.947,1.904 16.558,29.5 L 11.039,19.793 0,0 Z" /></g><g
       transform="translate(106.2011,98.3038)"
       id="g28"><path
         id="path30"
         style="fill:#069330;fill-opacity:1;fill-rule:nonzero;stroke:none"
         d="m 0,0 0,0 15.226,17.225 20.27,-7.804 0,-54.243 L 5.71,-2.189 0,0 Z" /></g><g
       transform="translate(18.747,30.1671)"
       id="g32"><path
         id="path34"
         style="fill:#069330;fill-opacity:1;fill-rule:nonzero;stroke:none"
         d="m 0,0 20.27,-8.564 0,45.392 29.882,-57.954 21.505,-9.041 0,87.931 -21.505,8.184 0,-44.632 L 20.27,77.558 0,85.361 0,0 Z" /></g><g
       transform="translate(39.1113,107.7247)"
       id="g36"><path
         id="path38"
         style="fill:#fe2015;fill-opacity:1;fill-rule:nonzero;stroke:none"
         d="m 0,0 20.27,7.804 9.517,-19.414 0,-44.631 L 0,0 Z" /></g><g
       transform="translate(111.9111,39.3023)"
       id="g40"><path
         id="path42"
         style="fill:#fe2015;fill-opacity:1;fill-rule:nonzero;stroke:none"
         d="M 0,0 6.091,-8.564 29.786,-17.7 0,21.221 0,0 Z" /></g><g
       transform="translate(68.9931,96.1148)"
       id="g44"><path
         id="path46"
         style="fill:#ffc001;fill-opacity:1;fill-rule:nonzero;stroke:none"
         d="M 0,0 21.507,8.183 43.013,0 21.507,-8.184 0,0 Z" /></g><g
       transform="translate(141.6972,123.3316)"
       id="g48"><path
         id="path50"
         style="fill:#ffc001;fill-opacity:1;fill-rule:nonzero;stroke:none"
         d="M 0,0 20.27,-7.803 0,-15.607 -20.27,-7.803 0,0 Z" /></g><g
       transform="translate(39.1113,123.3316)"
       id="g52"><path
         id="path54"
         style="fill:#ffc001;fill-opacity:1;fill-rule:nonzero;stroke:none"
         d="M 0,0 20.27,-7.803 0,-15.607 -20.269,-7.803 0,0 Z" /></g><g
       transform="translate(90.4043,143.0293)"
       id="g56"><path
         id="path58"
         style="fill:#ffc001;fill-opacity:1;fill-rule:nonzero;stroke:none"
         d="M 0,0 -19.984,-7.708 0,-15.511 19.984,-7.803 0,0 Z" /></g><g
       id="g60"><g
         clip-path="url(#clipPath64)"
         id="g62"><g
           transform="translate(126.7558,154.544)"
           id="g68"><path
             id="path70"
             style="fill:#0124a6;fill-opacity:1;fill-rule:nonzero;stroke:none"
             d="M 0,0 0.762,0 C 1.998,0 2.855,0.381 3.331,1.237 3.807,2.094 3.902,3.712 3.902,5.71 3.902,7.709 3.807,9.326 3.331,10.183 2.855,11.039 1.998,11.42 0.762,11.42 L 0,11.42 0,0.096 0,0 Z m -7.613,16.083 9.231,0 c 7.899,0 10.373,-4.473 10.373,-10.563 0,-6.281 -3.902,-10.183 -9.897,-10.183 l -9.707,0 0,20.746 z" /></g><g
           transform="translate(150.9277,154.6397)"
           id="g72"><path
             id="path74"
             style="fill:#0124a6;fill-opacity:1;fill-rule:nonzero;stroke:none"
             d="m 0,0 c 1.236,0 2.094,0.57 2.094,5.71 0,4.948 -0.858,5.709 -2.094,5.709 -1.236,0 -2.094,-0.666 -2.094,-5.709 C -2.094,0.665 -1.236,0 0,0 m 0,16.558 c 6.756,0 10.182,-4.473 10.182,-10.944 0,-6.471 -3.33,-10.943 -10.182,-10.943 -6.757,0 -10.184,4.472 -10.184,10.943 0,6.471 3.332,10.944 10.184,10.944" /></g><g
           transform="translate(164.7265,149.7862)"
           id="g76"><path
             id="path78"
             style="fill:#0124a6;fill-opacity:1;fill-rule:nonzero;stroke:none"
             d="m 0,0 c -1.142,0 -1.999,0.951 -1.999,1.999 0,1.141 0.952,1.998 1.999,1.998 1.142,0 1.998,-0.952 1.998,-1.998 C 1.998,0.856 1.047,0 0,0 m 0,4.473 c -1.332,0 -2.475,-1.143 -2.475,-2.474 0,-1.333 1.143,-2.475 2.475,-2.475 1.332,0 2.473,1.142 2.473,2.475 C 2.473,3.33 1.332,4.473 0,4.473" /></g><g
           transform="translate(164.3457,151.9751)"
           id="g80"><path
             id="path82"
             style="fill:#0124a6;fill-opacity:1;fill-rule:nonzero;stroke:none"
             d="m 0,0 0.475,0 c 0.287,0 0.38,0.095 0.38,0.38 0,0.286 -0.189,0.381 -0.38,0.381 L 0,0.761 0,0 Z m 0,-1.523 -0.57,0 0,2.664 1.14,0 c 0.477,0 0.952,-0.19 0.952,-0.665 0,-0.381 -0.19,-0.571 -0.571,-0.666 0.477,-0.096 0.477,-0.285 0.477,-0.666 0,-0.191 0.094,-0.477 0.19,-0.667 l -0.667,0 c -0.096,0.285 -0.096,0.476 -0.096,0.762 0,0.19 -0.094,0.38 -0.285,0.38 l -0.57,0 0,-1.047 0,-0.095 z" /></g><g
           transform="translate(13.6084,170.627)"
           id="g84"><path
             id="path86"
             style="fill:#0124a6;fill-opacity:1;fill-rule:nonzero;stroke:none"
             d="m 0,0 0,-11.896 -0.095,0 L -4.282,0 l -9.326,0 0,-20.746 6.281,0 0,11.991 0.096,0 4.185,-11.991 9.326,0 L 6.28,0 0,0 Z" /></g><g
           transform="translate(48.8183,170.627)"
           id="g88"><path
             id="path90"
             style="fill:#0124a6;fill-opacity:1;fill-rule:nonzero;stroke:none"
             d="m 0,0 0,-11.896 -0.096,0 L -4.283,0 l -9.325,0 0,-20.746 6.28,0 0,11.991 0.096,0 4.187,-11.991 9.326,0 L 6.281,0 0,0 Z" /></g><g
           transform="translate(109.4365,170.627)"
           id="g92"><path
             id="path94"
             style="fill:#0124a6;fill-opacity:1;fill-rule:nonzero;stroke:none"
             d="m 0,0 0,-11.896 -0.095,0 L -4.282,0 l -9.325,0 0,-20.746 6.28,0 0,11.991 0.096,0 4.185,-11.991 9.327,0 L 6.281,0 0,0 Z" /></g><path
           id="path96"
           style="fill:#0124a6;fill-opacity:1;fill-rule:nonzero;stroke:none"
           d="m 31.499,149.881 -7.804,0 0,20.746 7.804,0 0,-20.746 z" /><g
           transform="translate(62.332,149.8809)"
           id="g98"><path
             id="path100"
             style="fill:#0124a6;fill-opacity:1;fill-rule:nonzero;stroke:none"
             d="m 0,0 0,15.131 -4.949,0 0,5.615 17.7,0 0,-5.615 -4.948,0 L 7.803,0 0,0 Z" /></g><g
           transform="translate(85.0752,165.1075)"
           id="g102"><path
             id="path104"
             style="fill:#0124a6;fill-opacity:1;fill-rule:nonzero;stroke:none"
             d="m 0,0 0,-2.189 7.137,0 0,-5.329 -7.137,0 0,-2.284 7.994,0 0,-5.425 -15.607,0 0,20.747 15.417,0 L 7.804,0 0,0 Z" /></g><g
           transform="translate(170.7217,163.1094)"
           id="g106"><path
             id="path108"
             style="fill:#ff2d1e;fill-opacity:1;fill-rule:nonzero;stroke:none"
             d="m 0,0 c 1.046,0 1.713,1.046 1.713,2.474 0,1.141 -0.571,2.474 -1.999,2.474 -0.857,0 -1.523,-0.571 -1.808,-1.237 C -2.188,3.521 -2.188,3.235 -2.188,2.76 -2.094,1.427 -1.428,0 0,0 m 4.378,10.277 -1.428,0 c -3.33,-0.19 -4.568,-1.523 -5.044,-3.14 l 0.095,0 c 0.856,0.761 1.809,1.047 3.141,1.047 2.569,0 4.949,-1.903 4.949,-5.424 0,-3.426 -2.57,-6.091 -6.091,-6.091 -4.663,0 -6.661,3.521 -6.661,7.328 0,3.045 1.047,5.709 2.854,7.327 1.713,1.617 3.902,2.379 6.567,2.474 l 1.522,0 0,-3.521 0.096,0 z" /></g><g
           transform="translate(184.9961,167.2007)"
           id="g110"><path
             id="path112"
             style="fill:#ff2d1e;fill-opacity:1;fill-rule:nonzero;stroke:none"
             d="M 0,0 0,2.855 C 0,3.902 0.095,5.044 0.095,6.186 L 0,6.186 C -0.477,5.044 -0.951,3.997 -1.523,2.855 L -2.855,0.095 -2.855,0 0,0 0,0 Z m 0,-7.137 0,3.712 -6.947,0 0,2.949 5.519,9.897 5.52,0 0,-9.516 1.713,0 0,-3.426 -1.713,0 0,-3.711 -4.188,0 L 0,-7.137 Z" /></g></g></g></g></svg>