<?xml version="1.0" encoding="UTF-8" standalone="no"?>
<svg
   xmlns:dc="http://purl.org/dc/elements/1.1/"
   xmlns:cc="http://creativecommons.org/ns#"
   xmlns:rdf="http://www.w3.org/1999/02/22-rdf-syntax-ns#"
   xmlns:svg="http://www.w3.org/2000/svg"
   xmlns="http://www.w3.org/2000/svg"
   viewBox="0 0 708.66125 128.55251"
   height="128.55251"
   width="708.66125"
   xml:space="preserve"
   version="1.1"
   id="svg2"><metadata
     id="metadata8"><rdf:RDF><cc:Work
         rdf:about=""><dc:format>image/svg+xml</dc:format><dc:type
           rdf:resource="http://purl.org/dc/dcmitype/StillImage" /><dc:title></dc:title></cc:Work></rdf:RDF></metadata><defs
     id="defs6"><clipPath
       id="clipPath64"
       clipPathUnits="userSpaceOnUse"><path
         id="path66"
         d="m 0,102.842 566.929,0 L 566.929,0 0,0 0,102.842 Z" /></clipPath></defs><g
     transform="matrix(1.25,0,0,-1.25,0,128.5525)"
     id="g10"><g
       transform="translate(51.491,91.715)"
       id="g12"><path
         id="path14"
         style="fill:#00adee;fill-opacity:1;fill-rule:nonzero;stroke:none"
         d="M 0,0 -11.878,-21.197 0,-16.645 l 11.338,-4.341 3.036,3.406 0,23.154 L 0,0 Z" /></g><g
       transform="translate(88.3908,77.4729)"
       id="g16"><path
         id="path18"
         style="fill:#00adee;fill-opacity:1;fill-rule:nonzero;stroke:none"
         d="m 0,0 0,-38.985 -21.452,30.665 -15.448,-5.917 0,-63.236 15.448,6.535 0,37.017 L 0,-61.919 l 14.589,6.127 0,61.419 L 0,0 Z" /></g><g
       transform="translate(14.589,15.554)"
       id="g20"><path
         id="path22"
         style="fill:#00adee;fill-opacity:1;fill-rule:nonzero;stroke:none"
         d="M 0,0 13.688,6.061 0,32.636 0,0 Z" /></g><g
       transform="translate(29.178,83.1)"
       id="g24"><path
         id="path26"
         style="fill:#8bc53f;fill-opacity:1;fill-rule:nonzero;stroke:none"
         d="m 0,0 6.866,-13.947 3.569,1.365 L 22.313,8.615 7.939,14.207 0,0 Z" /></g><g
       transform="translate(62.829,70.729)"
       id="g28"><path
         id="path30"
         style="fill:#8bc53f;fill-opacity:1;fill-rule:nonzero;stroke:none"
         d="m 0,0 10.978,12.371 14.584,-5.627 0,-38.985 L 4.109,-1.577 0,0 Z" /></g><g
       transform="translate(0,21.681)"
       id="g32"><path
         id="path34"
         style="fill:#8bc53f;fill-opacity:1;fill-rule:nonzero;stroke:none"
         d="m 0,0 14.589,-6.127 0,32.636 21.455,-41.655 15.447,-6.535 0,63.236 -15.447,5.917 0,-32.103 L 14.589,55.792 0,61.419 0,0 Z" /></g><g
       transform="translate(36.044,69.153)"
       id="g36"><path
         id="path38"
         style="fill:#f05b40;fill-opacity:1;fill-rule:nonzero;stroke:none"
         d="M 0,0 0,-32.103 -21.455,8.32 -6.866,13.947 0,0 Z" /></g><g
       transform="translate(88.391,15.554)"
       id="g40"><path
         id="path42"
         style="fill:#f05b40;fill-opacity:1;fill-rule:nonzero;stroke:none"
         d="m 0,0 -21.453,27.998 0,-15.296 L -17.07,6.558 0,0 Z" /></g><g
       transform="translate(66.938,69.153)"
       id="g44"><path
         id="path46"
         style="fill:#ffca05;fill-opacity:1;fill-rule:nonzero;stroke:none"
         d="M 0,0 -15.447,-5.917 -30.894,0 -15.447,5.917 0,0 Z" /></g><g
       transform="translate(73.802,83.1)"
       id="g48"><path
         id="path50"
         style="fill:#ffca05;fill-opacity:1;fill-rule:nonzero;stroke:none"
         d="M 0,0 14.589,5.613 29.178,0 14.589,-5.627 0,0 Z" /></g><g
       transform="translate(0,83.0997)"
       id="g52"><path
         id="path54"
         style="fill:#ffca05;fill-opacity:1;fill-rule:nonzero;stroke:none"
         d="M 0,0 14.589,-5.627 29.178,0 14.589,5.613 0,0 Z" /></g><g
       transform="translate(51.4908,102.8421)"
       id="g56"><path
         id="path58"
         style="fill:#ffca05;fill-opacity:1;fill-rule:nonzero;stroke:none"
         d="M 0,0 -14.374,-5.535 0,-11.127 14.374,-5.553 0,0 Z" /></g><g
       id="g60"><g
         clip-path="url(#clipPath64)"
         id="g62"><g
           transform="translate(420.083,32.383)"
           id="g68"><path
             id="path70"
             style="fill:#00adee;fill-opacity:1;fill-rule:nonzero;stroke:none"
             d="m 0,0 1.738,0 c 2.867,0 4.789,0.879 5.912,2.787 1.184,1.975 1.316,5.572 1.316,10.172 0,4.604 -0.135,8.194 -1.316,10.172 -1.123,1.91 -3.045,2.789 -5.912,2.789 L 0,25.92 0,0 Z m -17.453,36.707 21.123,0 c 18.016,0 23.75,-10.197 23.75,-24.275 0,-14.343 -8.848,-23.226 -22.684,-23.226 l -22.189,0 0,47.501 z" /></g><g
           transform="translate(475.451,32.377)"
           id="g72"><path
             id="path74"
             style="fill:#00adee;fill-opacity:1;fill-rule:nonzero;stroke:none"
             d="M 0,0 C 2.738,0 4.801,1.346 4.801,12.965 4.801,24.322 2.862,25.926 0,25.926 -2.865,25.926 -4.801,24.322 -4.801,12.965 -4.801,1.345 -2.743,0 0,0 m 0,37.959 c 15.521,0 23.244,-10.193 23.244,-24.995 0,-14.806 -7.725,-25.002 -23.244,-25.002 -15.523,0 -23.246,10.196 -23.246,25.002 0,14.802 7.72,24.995 23.246,24.995" /></g><g
           transform="translate(154.07,21.59)"
           id="g76"><path
             id="path78"
             style="fill:#00adee;fill-opacity:1;fill-rule:nonzero;stroke:none"
             d="m 0,0 21.377,0 0,47.5 -14.463,0 0,-27.237 -0.125,0 -9.536,27.237 -21.375,0 0,-47.5 14.455,0 0,27.418 0.13,0 L 0,0 Z" /></g><g
           transform="translate(234.714,21.59)"
           id="g80"><path
             id="path82"
             style="fill:#00adee;fill-opacity:1;fill-rule:nonzero;stroke:none"
             d="m 0,0 21.375,0 0,47.5 -14.453,0 0,-27.237 -0.131,0 -9.537,27.237 -21.373,0 0,-47.5 14.461,0 0,27.418 0.125,0 L 0,0 Z" /></g><g
           transform="translate(373.578,21.59)"
           id="g84"><path
             id="path86"
             style="fill:#00adee;fill-opacity:1;fill-rule:nonzero;stroke:none"
             d="m 0,0 21.379,0 0,47.5 -14.459,0 0,-27.237 -0.129,0 -9.536,27.237 -21.376,0 0,-47.5 14.457,0 0,27.418 0.127,0 L 0,0 Z" /></g><path
           id="path88"
           style="fill:#00adee;fill-opacity:1;fill-rule:nonzero;stroke:none"
           d="m 184.179,69.09 17.83,0 0,-47.5 -17.83,0 0,47.5 z" /><g
           transform="translate(272.591,56.187)"
           id="g90"><path
             id="path92"
             style="fill:#00adee;fill-opacity:1;fill-rule:nonzero;stroke:none"
             d="m 0,0 -11.33,0 0,12.903 40.524,0 0,-12.903 -11.369,0 0,-34.597 L 0,-34.597 0,0 Z" /></g><g
           transform="translate(307.05,69.103)"
           id="g94"><path
             id="path96"
             style="fill:#00adee;fill-opacity:1;fill-rule:nonzero;stroke:none"
             d="m 0,0 35.26,0 0,-12.564 -17.713,0 0,-4.967 16.309,0 0,-12.178 -16.309,0 0,-5.329 18.278,0 0,-12.459 L 0,-47.497 0,0 Z" /></g><g
           transform="translate(520.562,51.95)"
           id="g98"><path
             id="path100"
             style="fill:#f05b40;fill-opacity:1;fill-rule:nonzero;stroke:none"
             d="m 0,0 c 2.439,0 3.918,2.491 3.918,5.673 -0.02,2.686 -1.25,5.613 -4.52,5.613 -1.998,0 -3.555,-1.266 -4.143,-2.795 -0.229,-0.469 -0.314,-1.137 -0.314,-2.27 0.209,-3.035 1.672,-6.222 4.998,-6.222 L 0,0 Z M 10.021,23.456 C 9.072,23.539 8.15,23.5 6.863,23.442 -0.658,23.094 -3.7,19.889 -4.731,16.268 l 0.182,0 c 1.873,1.637 4.188,2.401 7.289,2.401 5.965,0 11.414,-4.338 11.414,-12.476 0,-7.787 -5.986,-13.852 -14.02,-13.852 -10.584,0 -15.188,8.083 -15.188,16.75 0,7.041 2.498,13.004 6.598,16.85 3.902,3.615 8.934,5.441 15.092,5.582 1.631,0.094 2.6,0 3.385,-0.071 l 0,-7.996 z" /></g><g
           transform="translate(553.365,61.264)"
           id="g102"><path
             id="path104"
             style="fill:#f05b40;fill-opacity:1;fill-rule:nonzero;stroke:none"
             d="m 0,0 0,6.531 c 0,2.414 0.145,4.922 0.268,7.565 l -0.207,0 C -1.117,11.531 -2.142,9.089 -3.482,6.439 L -6.595,0.113 -6.628,-0.002 0,0 Z m 0,-16.333 0,8.524 -15.846,0 0,6.811 12.723,22.671 12.66,0 0,-21.673 4.027,0 0,-7.809 -4.027,0 0,-8.524 -9.537,0 z" /></g><g
           transform="translate(506.8618,21.328)"
           id="g106"><path
             id="path108"
             style="fill:#00adee;fill-opacity:1;fill-rule:nonzero;stroke:none"
             d="m 0,0 c -2.563,0 -4.637,2.078 -4.637,4.649 0,2.568 2.072,4.646 4.637,4.646 2.574,0 4.656,-2.08 4.656,-4.646 C 4.656,2.078 2.574,0 0,0 m 0,10.284 c -3.107,0 -5.629,-2.521 -5.629,-5.634 0,-3.114 2.521,-5.639 5.629,-5.639 3.115,0 5.641,2.522 5.641,5.639 C 5.639,7.762 3.115,10.284 0,10.284" /></g><g
           transform="translate(505.9458,26.408)"
           id="g110"><path
             id="path112"
             style="fill:#00adee;fill-opacity:1;fill-rule:nonzero;stroke:none"
             d="m 0,0 1.119,0 c 0.582,0.008 0.928,0.305 0.928,0.85 0,0.547 -0.346,0.781 -0.928,0.789 L 0,1.639 0,0 Z m 0,-3.527 -1.328,0 0,6.199 2.635,0 C 2.375,2.653 3.461,2.315 3.461,1.057 c 0,-0.803 -0.52,-1.342 -1.287,-1.504 l 0,-0.014 c 1.021,-0.119 1.021,-0.74 1.135,-1.603 0.059,-0.392 0.105,-1.123 0.359,-1.465 l -1.469,0 C 2.088,-2.98 2.025,-2.423 1.967,-1.867 1.932,-1.523 1.85,-1.05 1.408,-1.031 l -1.408,0 0,-2.496 z" /></g></g></g></g></svg>