<?xml version="1.0" encoding="utf-8"?>
<!-- Generator: Adobe Illustrator 16.0.3, SVG Export Plug-In . SVG Version: 6.00 Build 0)  -->
<!DOCTYPE svg PUBLIC "-//W3C//DTD SVG 1.1//EN" "http://www.w3.org/Graphics/SVG/1.1/DTD/svg11.dtd">
<svg version="1.1"
	 id="svg2" xmlns:dc="http://purl.org/dc/elements/1.1/" xmlns:cc="http://creativecommons.org/ns#" xmlns:rdf="http://www.w3.org/1999/02/22-rdf-syntax-ns#" xmlns:svg="http://www.w3.org/2000/svg"
	 xmlns="http://www.w3.org/2000/svg" xmlns:xlink="http://www.w3.org/1999/xlink" x="0px" y="0px" width="601.482px"
	 height="117.265px" viewBox="0 0 601.482 117.265" enable-background="new 0 0 601.482 117.265" xml:space="preserve">
<g id="g10" transform="matrix(1.25,0,0,-1.25,0,117.26488)">
	<g id="g12">
		<g>
			<defs>
				<rect id="SVGID_1_" x="-60.148" y="-11.727" width="601.482" height="117.265"/>
			</defs>
			<clipPath id="SVGID_2_">
				<use xlink:href="#SVGID_1_"  overflow="visible"/>
			</clipPath>
			<g id="g14" clip-path="url(#SVGID_2_)">
				<g id="g20" transform="translate(86.6544,29.2392)">
					<path id="path22" fill="#E72835" d="M0,0c1.282,2.113,1.571,4.316,1.774,6.516c0.165,1.792-0.218,3.553-0.602,5.301
						c-1.318,5.996-4.328,11.081-8.466,15.525c-1.437,1.542-2.936,3.029-4.598,4.362c-2.261,1.814-4.646,3.426-7.184,4.798
						c-3.202,1.732-6.615,2.985-10.187,3.682c-2.043,0.399-4.157,0.71-6.223,0.631c-1.843-0.071-3.72-0.349-5.545-0.849
						c-4.561-1.251-8.013-3.915-10.125-8.112c-1.823-3.625-2.03-7.572-1.238-11.485c0.701-3.471,2.046-6.771,3.94-9.773
						c2.378-3.768,5.167-7.19,8.679-10.027c2.258-1.825,4.588-3.502,7.116-4.9c5.655-3.127,11.659-4.958,18.192-4.645
						c1.792,0.086,3.553,0.417,5.218,1.158c-0.528,0.078-1.045,0.095-1.561,0.075c-3.072-0.117-5.912,0.755-8.635,2.064
						c-4.587,2.207-8.189,5.568-10.746,9.914c-1.965,3.341-2.993,7.015-1.976,10.952c0.546,2.113,1.67,3.833,3.497,5.165
						c2.942,2.143,6.295,2.099,9.57,1.741c2.674-0.293,5.244-1.332,7.617-2.729c3.437-2.024,6.391-4.582,8.537-7.952
						c2.06-3.237,3.456-6.705,2.873-10.678C-0.097,0.554-0.038,0.364,0,0 M-32.182,64.573c0.912-0.693,2.043-0.403,3.041-0.556
						c5.275-0.81,10.298-2.394,15.186-4.468c4.89-2.076,9.568-4.584,13.979-7.52c2.994-1.994,5.896-4.147,8.624-6.537
						c1.537-1.347,2.966-2.816,4.563-4.112c1.545-1.253,2.775-2.899,4.105-4.397c1.815-2.044,3.486-4.228,5.013-6.508
						c3.027-4.524,5.32-9.39,6.488-14.718c0.33-1.508,0.69-3.095,0.22-5.039c-0.212,1.844-0.339,3.367-0.845,4.794
						c-0.916,2.589-2.309,4.929-3.948,7.124c-1.51,2.02-3.132,3.948-5.015,5.628c-2.502,2.232-5.149,4.258-8.073,5.949
						c-2.862,1.656-5.887,2.852-9.052,3.69c-2.579,0.683-5.225,1.015-7.94,0.745c0.002-0.456,0.373-0.652,0.691-0.867
						c2.16-1.455,4.138-3.126,6.076-4.867c1.452-1.303,2.805-2.666,4.11-4.115c2.392-2.654,4.518-5.493,6.408-8.511
						c2.536-4.048,4.327-8.43,5.436-13.063c0.912-3.808,1.099-7.669,0.53-11.581c-0.609-4.177-2.077-8.011-4.43-11.455
						c-2.269-3.32-5.261-5.888-8.808-7.89c-3.556-2.007-7.333-3.316-11.268-4.193c-1.724-0.384-3.495-0.62-5.278-0.784
						c-2.549-0.236-5.096-0.489-7.653-0.553c-3.073-0.075-6.096,0.419-9.137,0.859c-3.074,0.445-6.018,1.28-8.933,2.247
						c-5.718,1.895-11.088,4.542-16.266,7.625c-3.355,1.998-6.558,4.213-9.613,6.61c-3.53,2.768-6.845,5.825-9.825,9.181
						c-3.912,4.403-7.463,9.087-9.902,14.512c-1.285,2.859-2.284,5.792-2.773,8.918c-0.202,1.291-0.214,2.532-0.146,3.812
						c0.254-1.257,0.466-2.514,0.738-3.763c0.573-2.64,1.998-4.833,3.414-7.029c1.274-1.977,2.924-3.678,4.506-5.398
						c1.411-1.534,3.072-2.865,4.742-4.128c2.214-1.675,4.568-3.183,7.102-4.319c3.56-1.595,7.225-2.915,11.206-2.953
						c0.775-0.006,1.459-0.487,2.267-0.336c0.397,0.075,0.821-0.008,1.046,0.481c-4.163,2.756-7.856,6.092-11.196,9.781
						c-2.687,2.966-4.949,6.27-7.004,9.728c-2.454,4.129-3.9,8.611-4.995,13.225c-0.512,2.157-0.394,4.394-0.421,6.609
						c-0.073,5.806,1.867,10.997,5.177,15.596c2.957,4.111,7.05,6.924,11.772,8.875c2.766,1.143,5.61,1.981,8.498,2.621
						c1.818,0.404,3.697,0.732,5.594,0.753c0.363,0.003,0.849-0.255,1.08,0.298H-32.182L-32.182,64.573z"/>
				</g>
				<g id="g24" transform="translate(128.9086,52.2882)">
					<path id="path26" fill="#4C504E" d="M0,0c2.895,1.775,4.663,5.398,8.703,5.3c1.459-0.035,2.92-0.005,4.559-0.005
						C11.266-3.013,9.343-11.011,7.4-19.092c4.507,1.57,4.394,1.689,5.83,6.166c1.434,4.465,2.623,8.98,3.741,13.525
						c0.485,1.968,4.005,4.71,6.004,4.683c2.403-0.032,4.819,0.203,7.256-0.166c-1.906-7.992-3.786-15.873-5.788-24.263
						c3.078,1.773,5.302,3.373,5.859,6.713c0.636,3.815,1.657,7.567,2.498,11.349c0.6,2.699,3.216,3.721,4.699,5.685
						c0.864,1.144,2.128,0.634,3.228,0.676c1.769,0.069,3.543,0.019,5.391,0.019c-1.952-7.796-3.859-15.294-5.686-22.811
						c-0.409-1.686-0.241-1.395-2.397-3.711l-2.618-2.248c-1.692-1.451-3.393-2.374-5.798-2.348
						c-11.827,0.127-23.655,0.058-35.483,0.058C-5.863-25.131-0.125-0.077,0,0"/>
				</g>
				<g id="g28" transform="translate(478.4567,27.9471)">
					<path id="path30" fill="#4C504E" d="M0,0h-11.561c0.825,3.059,1.648,6.15,2.494,9.233c1.08,3.933,0.154,5.184-3.873,5.191
						c-0.945,0.002-1.891,0-3.031,0c-0.948-3.262-1.846-6.554-2.867-9.807c-1.143-3.643-3.591-5.472-7.308-5.377
						c-2.126,0.055-4.352-0.52-6.415,0.43c0.887,4.309,5.197,17.213,5.744,19.191h17.466c2.1,0,4.205-0.092,6.3,0.024
						c2.407,0.133,4.212-0.898,5.78-2.559C2.729,14.212,0.875,3.462,0,0"/>
				</g>
				<g id="g32" transform="translate(294.1375,42.315)">
					<path id="path34" fill="#4C504E" d="M0,0c-8.463,0.194-10.088-0.462-10.606-4.159C-4.367-4.869-3.985-4.726,0,0 M9.563-1.986
						c2.671,2.514,5.583,3.816,8.233,5.525c1.159,0.748,2.425,0.998,3.834,0.979c4.961-0.069,9.925-0.065,14.887-0.005
						c1.61,0.019,2.998-0.302,4.401-1.169c2.431-1.502,3.045-3.279,1.44-5.562c-0.961-1.369-2.255-2.402-3.947-2.877
						c-3.12-0.875-6.178-0.969-9.233,0.136c0.11,0.563,0.132,0.767,0.19,0.959c0.35,1.177,1.945,2.164,0.597,3.596
						c-0.67,0.713-3.505,0.491-4.741-0.039c-2.845-1.217-3.681-3.768-4.177-6.375c-0.533-2.807-1.702-5.407-2.127-8.215H7.079
						c0.882,4.181,1.736,8.23,2.633,12.48c-1.58-0.559-2.308-1.68-3.182-2.506C2.92-8.466-1.315-9.352-6.077-8.851
						c-1.861,0.195-3.76,0.032-5.545,0.032c-0.536-0.87-0.416-1.554-0.154-2.444H3.567c-2.2-2.479-4.486-4.562-7.957-4.537
						c-4.646,0.031-9.291-0.013-13.938,0.025c-0.904,0.009-1.764-0.038-2.723,0.4c-3.097,1.409-4.389,2.17-3.092,6.378
						c0.966,3.131,1.245,6.491,3.964,8.762c1.814,1.515,3.761,2.87,5.6,4.355c0.775,0.627,1.616,0.347,2.416,0.352
						C-6.251,4.508-0.338,4.498,5.575,4.49c3.216-0.004,3.898-0.706,3.986-4.058C9.577-0.2,9.563-0.832,9.563-1.986"/>
				</g>
				<g id="g36" transform="translate(322.0508,26.7922)">
					<path id="path38" fill="#4C504E" d="M0,0c2.093,2.095,4.111,4.046,6.038,6.081c0.705,0.744,1.502,0.634,2.319,0.616
						c8.205-0.188,16.42,0.395,24.623-0.287c1.753-0.146,2.498,0.79,3.205,4.098c-3.607,0-7.161,0.234-10.67-0.062
						c-4.073-0.343-6.831,2.018-6.52,6.578c0.348,5.102,2.726,8.868,6.748,11.731c0.709,0.505,1.587,0.812,2.611,0.804
						c8.421-0.062,16.841-0.035,25.794-0.035c-1.85-1.885-3.414-3.39-4.869-4.996c-0.77-0.85-1.681-0.703-2.604-0.705
						c-3.381-0.009-6.762,0.017-10.141-0.01c-3.338-0.025-4.651-1.189-5.456-5.065c3.713,0,7.355-0.036,10.996,0.013
						c2.459,0.034,4.502-0.899,5.934-2.79c1.432-1.891,1.112-4.313,0.737-6.378c-0.72-3.981-2.791-7.268-6.611-9.127
						c-0.916-0.447-1.847-0.769-2.947-0.764C26.406-0.251,13.625-0.267,0.843-0.26C0.669-0.26,0.495-0.156,0,0"/>
				</g>
				<g id="g40" transform="translate(399.1349,32.3591)">
					<path id="path42" fill="#4C504E" d="M0,0c2.857,1.32,4.848,3.201,5.59,6.525c0.916,4.103,2.457,5.042,4.459,7.222
						c1.186,1.293,2.77,0.539,4.17,0.681c1.025,0.103,2.069,0.02,3.156,0.02c-0.447-4.572-2.143-8.586-2.621-12.862
						c-0.23-2.078-6.76-5.628-7.96-6.922C6.272-5.9,5.679-5.831,5.068-5.831C-6.219-5.833-17.507-5.828-28.795-5.812
						c-0.192,0-0.384,0.147-0.716,0.283c0.735,4.489,1.859,8.942,2.817,13.403c0.565,2.627,3.367,4.147,5.284,6.045
						c1.108,1.099,2.597,0.397,3.909,0.509c1.142,0.097,2.299,0.02,3.835,0.02c-0.445-5.187-2.188-9.945-3.202-14.731
						c0.462-0.442,0.62-0.052,0.859,0.022c4.496,1.383,4.882,5.291,5.498,9.016c0.502,3.031,3.505,5.686,6.604,5.692
						c2.005,0.003,4.009-0.001,6.013-0.021c0.197-0.002,0.392-0.137,0.587-0.212C1.83,9.62-0.255-0.23,0,0"/>
				</g>
				<g id="g44" transform="translate(259.7591,42.0052)">
					<path id="path46" fill="#4C504E" d="M0,0c-1.855,0.557-3.12,0.36-4.361,0.346c-2.094-0.025-4.573-1.144-5.318-3.933
						c-0.555-2.077-1.522-4.752-0.684-7.249c4.606-0.415,7.309,0.232,9.063,4.491C-0.6-4.637,0-2.171,0,0 M17.072,11.771
						c-1.723-2.417-2.964-4.537-4.576-6.322c-1.921-2.127-2.224-4.71-2.799-7.282c-1-4.477-2.095-8.933-3.21-13.648H-6.132
						c-3.587,0-7.174-0.013-10.761,0.003c-4.289,0.019-6.348,2.293-5.68,6.523c0.299,1.89,0.928,3.751,1.603,5.553
						c0.645,1.72,0.933,2.468,2.513,3.795c1.149,0.964,0,0,4.288,3c2.686,1.648,2.394,1.482,3.941,1.432
						c2.635-0.081,5.275,0.017,7.912-0.037c1.526-0.032,2.643,0.19,3.768,1.758c2.618,3.649,1.682,2.404,2.618,3.649
						c0.521,0.693,1.065,1.59,2.2,1.584C9.706,11.76,13.141,11.771,17.072,11.771"/>
				</g>
				<g id="g48" transform="translate(183.4422,31.0606)">
					<path id="path50" fill="#4C504E" d="M0,0c6.82,0.003,9.19,4.567,9.03,11.13C2.589,12.167-1.398,9.066,0,0 M19.514,3.937
						c-0.402-1.663-1.285-2.886-2.661-3.784c-2.137-1.395-4.341-2.692-6.448-4.131c-0.865-0.591-1.746-0.56-2.676-0.56
						c-5.071,0-10.154-0.219-15.208,0.066c-4.475,0.253-6.281,2.87-5.148,6.778c0.398,1.367,0.702,2.811,1.199,4.078
						c0.734,1.87,1.384,3.736,3.442,5.134c3.677,2.819,2.394,1.959,3.677,2.819c1.352,0.906,2.734,1.54,4.559,1.476
						c5.382-0.187,10.774-0.064,16.161-0.067c4.054-0.003,5.857-2.307,4.646-6.225C20.765,8.572,19.756,4.94,19.514,3.937"/>
				</g>
				<g id="g52" transform="translate(437.3184,41.9097)">
					<path id="path54" fill="#4C504E" d="M0-0.001c-2.828,0.736-5.187,1.048-7.239-1.433c-0.925-1.117-1.845-2.28-2.547-3.484
						c-0.632-1.084-1.154-2.583-0.069-3.919c1.229-1.514,2.908-2.281,4.712-2.709c1.186-0.28,1.815,0.361,2.153,1.651
						C-2.148-6.678-1.081-3.522,0-0.001 M7.442-14.119c-8.245,0-16.557-0.031-24.87,0.023c-2.113,0.013-4.416,2.948-4.644,5.428
						c-0.504,5.492,2.134,9.084,6.666,11.756c2.22,1.309,4.437,1.9,7.023,1.854c7.161-0.129,14.327-0.045,21.566-0.045
						C12.874,3.101,8.816-9.933,7.442-14.119"/>
				</g>
				<g id="g56" transform="translate(206.5737,44.8559)">
					<path id="path58" fill="#4C504E" d="M0,0C0.588,1.51,1.14,1.972,2.589,1.966c7.498-0.031,14.998,0.085,22.494-0.065
						c2.927-0.059,5.045-1.697,4.943-4.927c-0.126-3.989-1.502-7.636-2.346-11.423c-0.175-0.784-0.015-1.654-0.531-2.496H16.524
						c0.521,2.927,0.848,5.755,1.597,8.466c0.29,1.05,0.399,2.039,0.384,3.059c-0.03,1.962-0.895,2.843-2.815,2.923
						c-1.466,0.061-2.938,0.012-4.491,0.012c-0.84-3.233-1.577-6.385-2.488-9.488c-1.083-3.69-3.951-5.72-7.808-5.725
						c-5.504-0.009-5.387-0.035-4.177,5.295C-2.87-10.628-0.904-2.323,0,0"/>
				</g>
			</g>
		</g>
	</g>
</g>
</svg>
