<?xml version="1.0" encoding="utf-8"?>
<!-- Generator: Adobe Illustrator 19.0.0, SVG Export Plug-In . SVG Version: 6.00 Build 0)  -->
<svg version="1.1" baseProfile="tiny"
	 id="svg3004" xmlns:rdf="http://www.w3.org/1999/02/22-rdf-syntax-ns#" xmlns:dc="http://purl.org/dc/elements/1.1/" xmlns:inkscape="http://www.inkscape.org/namespaces/inkscape" xmlns:sodipodi="http://sodipodi.sourceforge.net/DTD/sodipodi-0.dtd" xmlns:cc="http://creativecommons.org/ns#" xmlns:svg="http://www.w3.org/2000/svg" sodipodi:docname="icon_filled.svg" inkscape:version="0.91 r13725"
	 xmlns="http://www.w3.org/2000/svg" xmlns:xlink="http://www.w3.org/1999/xlink" x="0px" y="0px" viewBox="-290 382 30 30"
	 xml:space="preserve">
<sodipodi:namedview  inkscape:cy="14.770215" inkscape:cx="27.076271" inkscape:zoom="11.8" bordercolor="#666666" objecttolerance="10" borderopacity="1" pagecolor="#ffffff" guidetolerance="10" gridtolerance="10" showgrid="false" id="namedview150" inkscape:current-layer="svg3004" inkscape:window-maximized="1" inkscape:window-y="-8" inkscape:pageopacity="0" inkscape:window-x="-8" inkscape:window-height="1027" inkscape:window-width="1920" inkscape:pageshadow="2">
	</sodipodi:namedview>
<g>
	<path fill="#5B6051" d="M-268.5,389.1h5.9v20.8h-5.9V389.1z"/>
	<g>
		<path fill="#3B3F31" d="M-266.4,390.7h3.9v2h-3.9V390.7z"/>
		<path fill="#3B3F31" d="M-266.4,394.6h3.9v2h-3.9V394.6z"/>
		<path fill="#3B3F31" d="M-266.4,398.5h3.9v2h-3.9V398.5z"/>
		<path fill="#3B3F31" d="M-266.4,402.4h3.9v2h-3.9V402.4z"/>
		<path fill="#3B3F31" d="M-266.4,406.3h3.9v2h-3.9V406.3z"/>
	</g>
	<path fill="#5B6051" d="M-290,389.1h5.9v20.8h-5.9V389.1z"/>
	<g>
		<path fill="#3B3F31" d="M-290,406.3h3.9v2h-3.9V406.3z"/>
		<path fill="#3B3F31" d="M-290,402.4h3.9v2h-3.9V402.4z"/>
		<path fill="#3B3F31" d="M-290,398.5h3.9v2h-3.9V398.5z"/>
		<path fill="#3B3F31" d="M-290,394.6h3.9v2h-3.9V394.6z"/>
		<path fill="#3B3F31" d="M-290,390.7h3.9v2h-3.9V390.7z"/>
	</g>
	<g>
		<path fill="#8AAA71" d="M-268.5,393h-2.9v-1.9h-2v-2h-5.9v2h-2v2h-2.9v12.7h3v1.9h1.9v1.9h5.9v-2h2v-1.8h2.9V393z"/>
		<path fill="#8AAA71" d="M-277.2,384.2h2v5.7h-2V384.2z"/>
	</g>
	<g>
		<path fill="#748952" d="M-277.2,396.9h2v2.9h-2V396.9z"/>
		<path fill="#748952" d="M-279.2,397.9h2v3.9h-2V397.9z"/>
	</g>
	<g>
		<path fill="#A4C472" d="M-279.1,389.1h1.9v1.9h-1.9V389.1z"/>
		<path fill="#A4C472" d="M-281.1,391.1h1.9v1.9h-1.9V391.1z"/>
		<path fill="#A4C472" d="M-281.1,405.8h1.9v1.9h-1.9V405.8z"/>
		<path fill="#A4C472" d="M-284.1,393h2.9v12.7h-2.9V393z"/>
	</g>
	<g>
		<path fill="#627244" d="M-275.3,389.1h2v1.9h-2V389.1z"/>
		<path fill="#627244" d="M-273.3,391h1.9v2h-1.9V391z"/>
		<path fill="#627244" d="M-270.4,393h1.9v12.7h-1.9V393z"/>
	</g>
	<path id="_x30_" fill="#707564" d="M-290,389.1h5.9v1.6h-5.9V389.1z"/>
	<path id="_x31_" fill="#707564" d="M-290,392.6h1.6v2h-1.6V392.6z"/>
	<path id="_x32_" fill="#707564" d="M-290,396.5h1.6v2h-1.6V396.5z"/>
	<path id="_x33_" fill="#707564" d="M-290,400.4h1.6v2h-1.6V400.4z"/>
	<path id="_x34_" fill="#707564" d="M-290,404.3h1.6v2h-1.6V404.3z"/>
	<path id="_x35_" fill="#707564" d="M-290,408.3h1.6v1.6h-1.6V408.3z"/>
	<g>
		<path id="_x30__1_" fill="#707564" d="M-290,389.1h5.9v1.6h-5.9V389.1z"/>
	</g>
	<g>
		<path id="_x31__1_" fill="#707564" d="M-290,392.6h1.6v2h-1.6V392.6z"/>
	</g>
	<g>
		<path id="_x32__1_" fill="#707564" d="M-290,396.5h1.6v2h-1.6V396.5z"/>
	</g>
	<g>
		<path id="_x33__1_" fill="#707564" d="M-290,400.4h1.6v2h-1.6V400.4z"/>
	</g>
	<g>
		<path id="_x34__1_" fill="#707564" d="M-290,404.3h1.6v2h-1.6V404.3z"/>
	</g>
	<g>
		<path id="_x35__1_" fill="#707564" d="M-290,408.3h1.6v1.6h-1.6V408.3z"/>
	</g>
	<g>
		<path fill="#707564" d="M-268.5,389.1h5.9v1.6h-5.9V389.1z"/>
		<path fill="#707564" d="M-264.1,392.6h1.6v2h-1.6V392.6z"/>
		<path fill="#707564" d="M-264.1,396.5h1.6v2h-1.6V396.5z"/>
		<path fill="#707564" d="M-264.1,400.4h1.6v2h-1.6V400.4z"/>
		<path fill="#707564" d="M-264.1,404.3h1.6v2h-1.6V404.3z"/>
		<path fill="#707564" d="M-264.1,408.3h1.6v1.6h-1.6V408.3z"/>
	</g>
</g>
</svg>
