<svg xmlns="http://www.w3.org/2000/svg" baseProfile="tiny" viewBox="0 0 288.9 355.2">
  <path fill="#D9D9D9" d="M287.1 24.2C287.1 5.5 275.8 0 266.6 0c-2.4 0-10.8 0-22.2.1v4.3H240V.1h-4.9v4.3h-4.4V.1h-4.9v4.3h-4.4V.1h-4.9v4.2H212V.1h-4.9v4.2h-4.4V.2h-4.9v4.2h-4.4V.2h-4.9v4.2h-4.4V.2h-4.9v4.1h-4.4V.2h-4.9v4.1h-4.4v-4h-4.9v4.1h-4.4V.3h-4.9v4.1h-4.4V.3h-4.8v4.1h-4.4V.3h-4.9v4.1h-4.4V.3h-4.9v4.1H119V.3h-4.9v4.1h-4.4V.2h-4.9v4.1h-4.4V.2h-4.9v4.2h-4.4V.2h-4.9v4.2h-4.4V.2h-4.9v4.2h-4.4V.1h-4.9v4.2h-4.4V.1h-4.9v4.3h-4.4V.1H49v4.3h-4.4V.1C33.2 0 24.8 0 22.4 0 13.2 0 1.8 5.5 1.8 24.2s-3.4 288.7-1 304.9c2.5 19 11.6 26 27.9 26s115.7-.7 115.7-.7 99.5.7 115.7.7c16.2 0 25.4-7 27.9-26 2.5-16.2-.9-286.2-.9-304.9z"/>
  <path fill="#4C4C4C" d="M267.9 348.2H22.1c-8.3 0-15.1-6.8-15.1-15.1V21.2c0-8.3 6.8-15.1 15.1-15.1H268c8.3 0 15.1 6.8 15.1 15.1v311.9c-.1 8.3-6.9 15.1-15.2 15.1z"/>
  <path fill="#D9D9D9" d="M266.9 347.2h-244c-8.3.4-15.5-6.9-15-15V21.9c-.5-8.3 7.2-15.5 15-15H267c8.2-.5 15.6 6.6 15 15v310.3c.5 8-6.9 15.4-15.1 15z"/>
  <path fill="#B2B2B2" d="M254.9 289.5H34c-7.2 0-13.1-5.9-13.1-13.1V53.5c0-7.2 5.9-13.1 13.1-13.1h220.9c7.2 0 13.1 5.9 13.1 13.1v222.9c0 7.2-5.9 13.1-13.1 13.1z"/>
  <path fill="#878686" d="M216.3 332.9c-1.7 0-3.1-1.4-3.1-3.1 0-1.7 1.4-3.1 3.1-3.1h8.9c1.7 0 3.1 1.4 3.1 3.1 0 1.7-1.4 3.1-3.1 3.1h-8.9z"/>
  <path fill="gray" d="M225.3 332.1h-9.1c-1.2 0-2.2-1-2.2-2.2v-.2c0-1.2 1-2.2 2.2-2.2h9.1c1.2 0 2.2 1 2.2 2.2v.2c0 1.2-1 2.2-2.2 2.2zm-45.8-62h-70.9c-3.3 0-5.9-2.7-5.9-5.9v-31.9c0-3.3 2.7-5.9 5.9-5.9h70.9c3.3 0 5.9 2.7 5.9 5.9v31.9c.1 3.3-2.6 5.9-5.9 5.9z"/>
  <path fill="#4C4C4C" d="M144.5 164.9c13.3 0 71.4-2.5 81.4-3.3 10-.8 14-3.9 16.2-7.2 2.4-3.5 2.6-10.3 2.1-14.9s-5.9-5.3-7.9-5.3H52.7s-7.4.7-7.9 5.3-.2 11.3 2.1 14.9c2.2 3.3 6.1 6.4 16.2 7.2 10 .8 68 3.3 81.4 3.3"/>
  <path fill="#FFF" d="M201 265.6v-31.9c0-4.6 3.7-8.3 8.3-8.3h25.1c4.6 0 8.3 3.7 8.3 8.3v31.9c0 4.6-3.7 8.3-8.3 8.3h-25.1c-4.6 0-8.3-3.7-8.3-8.3z"/>
  <path fill="#4C4C4C" d="M234.3 271.5h-25c-3.3 0-5.9-2.7-5.9-5.9v-31.7c0-3.3 2.7-5.9 5.9-5.9h25c3.3 0 5.9 2.7 5.9 5.9v31.7c.1 3.2-2.6 5.9-5.9 5.9z"/>
  <path fill="#FFF" d="M45.8 265.5v-31.9c0-4.6 3.7-8.3 8.3-8.3h25.1c4.6 0 8.3 3.7 8.3 8.3v31.9c0 4.6-3.7 8.3-8.3 8.3H54.1c-4.6.1-8.3-3.7-8.3-8.3z"/>
  <path fill="#4C4C4C" d="M79.2 271.4h-25c-3.3 0-5.9-2.7-5.9-5.9v-31.7c0-3.3 2.7-5.9 5.9-5.9h25c3.3 0 5.9 2.7 5.9 5.9v31.7c0 3.2-2.7 5.9-5.9 5.9z"/>
  <path fill="#4C4C4C" d="M85.1 251.8H48.5c-.7 0-1.2-.5-1.2-1.2v-2.1c0-.7.5-1.2 1.2-1.2h36.6c.7 0 1.2.5 1.2 1.2v2.1c-.1.7-.6 1.2-1.2 1.2z"/>
  <path fill="#666" d="M48.5 247.4c-.6 0-1.1.5-1.2 1.1.1.6.6 1.1 1.2 1.1H85c.6 0 1.1-.5 1.2-1.1-.1-.6-.6-1.1-1.2-1.1H48.5z"/>
  <path fill="gray" d="M63.2 158.5h-.7c-.7 0-1.2-.5-1.2-1.2V138c0-.7.5-1.2 1.2-1.2h.7c.7 0 1.2.5 1.2 1.2v19.3c0 .7-.6 1.2-1.2 1.2zm162.6 0h.7c.7 0 1.2-.5 1.2-1.2V138c0-.7-.5-1.2-1.2-1.2h-.7c-.7 0-1.2.5-1.2 1.2v19.3c0 .7.5 1.2 1.2 1.2zm-78.4.1c-1.6 1.7-4.3 1.7-5.9 0-1.6-1.7-4.3-4.4-5.9-6-1.6-1.7-.3-3 3-3h11.8c3.2 0 4.6 1.4 3 3-1.7 1.6-4.3 4.3-6 6z"/>
  <circle cx="232.3" cy="75.9" r="18.9" fill="#4C4C4C"/>
  <circle cx="232.3" cy="75.9" r="18.2" fill="#B2B2B2"/>
  <ellipse cx="223.1" cy="78.2" fill="#01954B" rx="7.2" ry="3.2"/>
  <ellipse cx="236" cy="83.5" fill="#F9EC2B" rx="7.2" ry="3.2"/>
  <path fill="#EB2D2F" d="M244 81.4c-.9-3.6-4-7.6-8.1-5.9 3.3-7.6 9.5-6.4 11.7-3.8 1.7 2 1.7 9-3.6 9.7z"/>
  <path fill="#323B98" d="M231.3 75.6c-.9-3.6-4-7.6-8.1-5.8 3.3-7.6 9.5-6.4 11.7-3.8 1.8 1.9 1.7 8.8-3.6 9.6z"/>
  <path fill="#4C4C4C" d="M40.4 6.6h.6v33.8h-.6zm207.5 0h.6v33.8h-.6zm4.3 282.9h.6v57.7h-.6zm-216 0h.6v57.7h-.6zm18.5 37.8s-.2-.1-.5-.1h-3.1s-.4-.2-.4-.8c0 0 .2-.6.8-.6h4.3v-1.2h-5.5s-1.3 0-1.6 1.5c0 0-.3 2.1 1.8 2.2h2.8s.9.1.8.8c0 0-.1.6-.7.6H49v1.3h5s1.9.2 2.2-1.7c-.1.2.1-1.7-1.5-2zm7.3 2.5h-2.3s-.9-.1-.9-.9v-4.3h-1.9v4.8s.5 1.7 2 1.7H64v-6.5h-2v5.2zm8.3-5.2H65v6.5h1.8v-2.2H70c2.2-.3 2.1-2.2 2.1-2.2-.2-1.9-1.8-2.1-1.8-2.1zm-1.1 3h-2.4v-1.8h2.5c.7 0 .8.8.8.8-.2 1.2-.9 1-.9 1zm3.5.3s-.3 2.7 2.7 3.2h3.9v-1.3H76s-1 0-1.2-1.4h4.6v-1.2h-4.6s.1-1.1 1.3-1.3h3.3v-1.3h-4s-2.7.2-2.7 3.3zm15.2-1.2c0-1.9-2-2.1-2-2.1h-5.5v6.5h1.9v-2.4h1.9l1.6 2.4H88l-1.9-2.5c1.8-.3 1.8-1.9 1.8-1.9zm-3.4.8h-2.1v-1.7h2.2s1.2-.1 1.2.9c0 0 .1.8-1.3.8zm7.8-.5v4.2h1.9v-2.6h4.7v-1.4h-4.6v-.3c.1-.7 1.3-1 1.3-1H99v-1.2h-4c-2.4 0-2.7 2.3-2.7 2.3zm12-2.3H100v1.2h3.4c1.3 0 1.4 1.3 1.4 1.3h-3.2c-2.2.1-2.1 2-2.1 2 0 2.1 2.3 2 2.3 2h5.1v-3.7c-.1-2.6-2.6-2.8-2.6-2.8zm.6 5.2h-2.6s-.7 0-.7-.8c0 0 .1-.7.8-.7h2.5v1.5zm10.4-5.2h-7.5v6.5h2V326h1.7v5.3h1.9v-5.2h.8c1 0 1.2.8 1.2.8v4.4h1.8V327c.1-2.1-1.9-2.3-1.9-2.3zm3.2 6.5h2.1v-6.5h-2.1v6.5zm2.9-3.3c0 3.2 2.7 3.4 2.7 3.4h3.8V330h-3.3c-1.5-.3-1.3-2-1.3-2 0-2.1 1.4-2 1.4-2h3.2v-1.3h-4c-2.5.4-2.5 3.2-2.5 3.2zm11.1-3.3s-3.5-.2-4 2.7c0 0-.4 2.4 1.3 3.4 0 0 2.4 1.6 5.3 0 0 0 1.9-.9 1.4-3.8 0 .2-.5-2.4-4-2.3zm.1 5.6s-2.4.3-2.2-2.2c0 0-.2-2.2 2.1-2.2 0 0 2.3-.3 2.3 2.2-.1 0 .1 2.2-2.2 2.2zm12.4-5.4h-7.5v6.5h2v-5.2h1.7v5.3h1.9v-5.2h.8c1 0 1.2.8 1.2.8v4.4h1.8v-4.2c.1-2.2-1.9-2.4-1.9-2.4zm-96.3-13.7h2.9l4 6.6v-6.6h2.9v9.5h-2.8l-4-6.6v6.6h-2.9l-.1-9.5zm25.2 1h2.8v1.3h1.5v.9h-1.5v6.3h-2.8v-6.3h-1.5v-.9h1.5v-1.3zM60 314.3h2.8v6.3H60v-6.3zm0-3.2h2.8v1.9H60v-1.9zm48.6 2.7c-2.2 0-4.1 1.6-4.1 3.5 0 2 1.8 3.5 4.1 3.5 2.2 0 4.1-1.6 4.1-3.5s-1.8-3.5-4.1-3.5m1.1 3.6v1.3c0 1-.6 1.4-1.1 1.4-.6 0-1.1-.4-1.1-1.4V316c0-1 .6-1.4 1.1-1.4.6 0 1.1.4 1.1 1.4v1.4zm-8.8 0v-1.1c0-1-.7-1.2-1.1-1.2-.4 0-1.1.2-1.1 1.2v2.2c0 1 .6 1.2 1.1 1.2.4 0 1.1-.3 1.1-1.2v-1.1zm0-6.3h2.7v9.5h-2.7v-.4c-1.1.7-2.3.7-3.2.2-.3-.1-1.9-.9-1.9-3.1 0-1.7 1.5-3.5 3.5-3.3.7.1 1.1.3 1.6.6v-3.5zM69.3 314c1 0 3.1.7 3.1 3.2v3.4h-2.8v-4.1c0-.6-.5-1.2-1.3-1.2s-1.3.6-1.3 1.2v4.1h-2.8v-6.3H67v.7c.6-.6 1.4-1 2.3-1m22.5 0c1 0 3.1.7 3.1 3.2v3.4h-2.8v-4.1c0-.6-.5-1.2-1.3-1.2s-1.3.6-1.3 1.2v4.1h-2.8v-6.3h2.8v.7c.6-.6 1.4-1 2.3-1m-8.7 4.4v.4c0 1.2-.7 1.4-1.1 1.4-.4 0-1.2-.3-1.2-1.4v-1.3H86c0-2-1.8-3.6-4.1-3.6s-4.1 1.6-4.1 3.5c0 2 1.8 3.5 4.1 3.5 1.9 0 3.5-1.1 3.9-2.6l-2.7.1zm-2.3-1.9c0-.6 0-.9.2-1.2.2-.4.6-.6 1-.6s.8.2 1 .6c.2.3.2.7.2 1.2h-2.4z"/>
</svg>
