<svg xmlns="http://www.w3.org/2000/svg" baseProfile="tiny" viewBox="0 0 133.9 307.9">
  <path fill="#BDBDBD" d="M133.1 209.6c0-.8-.1-1.7-.4-2.5-.3-.8-1.1-1.4-2.1-1.4v.5c-.2 0-.5 0-.5.3l.1 35.6c-.4 12.7-4.1 23.8-10 33.4-.2.4.2.6.4.6.7 0 1.2-.1 1.7-.1v.1c.7 0 1.2.1 1.7 0s1-.3 1.3-.9c5.4-9.6 7.9-20.6 7.9-32.3v-33.3zm0-111.1c0 .8-.1 1.7-.4 2.5-.3.8-1.1 1.4-2.1 1.4v-.5c-.2 0-.5 0-.5-.3l.1-35.6c-.4-12.7-4.1-23.8-10-33.4-.2-.4.2-.6.4-.6.7 0 1.2.1 1.7.1V32c.7 0 1.2-.1 1.7 0s1 .3 1.3.9c5.4 9.6 7.9 20.6 7.9 32.3v33.3zm0 0"/>
  <path fill="#CCC" d="M130.6 64.8v84.4h-1.2v9.6h1.2v84.3c0 35.8-29 64.8-64.8 64.8C30 308 1 279 1 243.2 1 229 5.5 216 13.2 205.3l1-1.3c1.9-2.4 3-5.3 3-8.6v-82.8c0-3.2-1.1-6.2-3-8.6l-1-1.3C5.5 92 1 78.9 1 64.8 1 29 30 0 65.8 0s64.8 29 64.8 64.8zm0 0"/>
  <path fill="none" d="M0 0h133.9v307.9H0z"/>
  <path fill="#4C4C4C" d="M35.5 116.4c.3 0 .5-.1.6-.3l.3-.4c.4-.6.9-.9 1.5-.9.3 0 .6.1.8.2.2.1.4.3.5.6.1.2.2.5.2.8 0 .4-.2.7-.5 1-.3.2-.7.4-1.2.4v-.9c.2 0 .4 0 .5-.1.1-.1.2-.2.2-.3 0-.2-.1-.3-.2-.4-.1-.1-.2-.2-.4-.2s-.4.1-.6.4c-.2.3-.3.5-.4.7-.3.4-.8.6-1.4.6-.3 0-.6-.1-.8-.2-.2-.1-.4-.3-.5-.5-.1-.2-.2-.5-.2-.8 0-.2.1-.4.1-.6.1-.2.2-.3.4-.5.3-.3.8-.4 1.3-.4v.9c-.3 0-.5 0-.6.1-.1.1-.2.2-.2.4s0 .3.1.4c.2-.1.4-.1.5 0zm2.9 19.5v-1.2l-4.3-.6v-.9l4.3.6v-1.1l1 .1v3.2l-1-.1zm-2.5-4.3c-.4 0-.7-.1-1-.3-.3-.2-.5-.4-.7-.6-.2-.3-.2-.5-.2-.8 0-.4.2-.7.5-1 .3-.2.8-.4 1.4-.4.4 0 .8 0 1.3.1s.9.2 1.2.4c.3.2.6.4.8.6.2.3.2.5.2.8 0 .4-.2.8-.5 1-.3.3-.8.4-1.4.4v-.8c.3 0 .6 0 .7-.1.1-.1.2-.2.2-.4 0-.5-.5-.8-1.5-.9-.5 0-.8-.1-1-.1-.6 0-.9.2-.9.5 0 .2.1.4.2.5l.6.3.1.8zm.4-4.1V126l-1.3-.2v1.7l-1-.1v-2.7l5.3.7v2.7l-1-.1v-1.7l-1.1-.1v1.5l-.9-.2zm-1.2-5v1.6l-1-.1v-2.6l5.3.7v.9l-4.3-.5zm1.2-1.8v-1.5L35 119v1.7l-1-.1V118l5.3.7v2.7l-1-.1v-1.7l-1.1-.1v1.5l-.9-.3zm-.8 30.6c.3 0 .5-.1.6-.3l.3-.5c.4-.6.9-.9 1.5-.9.3 0 .6.1.8.2.2.1.4.3.5.6.1.2.2.5.2.8 0 .4-.2.7-.5 1-.3.2-.7.4-1.2.4v-.9c.2 0 .4 0 .5-.1.1-.1.2-.2.2-.3 0-.2-.1-.3-.2-.4-.1-.1-.2-.2-.4-.2s-.4.1-.6.4c-.2.3-.3.5-.4.7-.3.4-.8.6-1.4.6-.3 0-.6-.1-.8-.2-.2-.1-.4-.3-.5-.6-.1-.2-.2-.5-.2-.8 0-.2.1-.4.1-.6.1-.2.2-.3.4-.5.3-.3.8-.4 1.3-.4v.9c-.3 0-.5 0-.6.1-.1.1-.2.2-.2.4s0 .3.1.4c.2.1.4.1.5.2zm2.9 16.8V167l-4.3-.6v-.9l4.3.6V165l1 .1v3.2l-1-.2zm-1.5-6.2v.5c0 .1 0 .3.1.4.1.1.2.2.4.2s.3.1.5 0c.3 0 .4-.2.4-.4v-.6l-1.4-.1zm-.9-.2l-1.9-.2v-.9l5.3.7v1.4c0 .4-.1.8-.4 1-.3.2-.7.3-1.1.3-.4 0-.7-.1-.9-.3-.3-.1-.5-.3-.6-.6l-2.1.5h-.1v-1l1.9-.4v-.5zm-.9-3.9l-1-.4v-1l5.3 2.1v.9l-5.3.7v-1l1-.1v-1.2zm1 .4v.8l1.8-.2-1.8-.6zm2.3-1.7v-1.1l-4.3-.6v-.9l4.3.6v-1.1l1 .1v3.2l-1-.2zm0 0"/>
  <path fill="#999" d="M66.5 102c-20.3 0-36.8-16.4-36.8-36.7s16.5-36.7 36.8-36.7c20.3 0 36.8 16.4 36.8 36.7S86.8 102 66.5 102"/>
  <path fill="none" stroke="#999" stroke-width=".8" d="M66.5 102c-20.3 0-36.8-16.4-36.8-36.7s16.5-36.7 36.8-36.7c20.3 0 36.8 16.4 36.8 36.7S86.8 102 66.5 102"/>
  <path fill="#CCC" d="M66.5 100.8c-19.7 0-35.6-15.9-35.6-35.6 0-19.7 15.9-35.6 35.6-35.6 19.7 0 35.6 15.9 35.6 35.6 0 19.7-15.9 35.6-35.6 35.6"/>
  <path fill="#666" d="M66.4 301.7C34.2 301.7 8 275.5 8 243.3c0-32.3 26.2-58.4 58.4-58.4 32.3 0 58.4 26.2 58.4 58.4.1 32.2-26.1 58.4-58.4 58.4"/>
  <path fill="#4C4C4C" d="M75.7 90.8V74.5h16.4c.7 0 1.3-.6 1.3-1.3V57.3c0-.7-.6-1.3-1.3-1.3H75.7V39.7c0-.7-.6-1.3-1.3-1.3H58.6c-.7 0-1.3.6-1.3 1.3V56H40.9c-.7 0-1.3.6-1.3 1.3v15.9c0 .7.6 1.3 1.3 1.3h16.4v16.4c0 .7.6 1.3 1.3 1.3h15.9c.7-.1 1.2-.7 1.2-1.4"/>
  <path fill="#666" d="M68.2 42.2c-.9-1.6-2.4-1.6-3.3 0l-3.6 6.3c-.9 1.6-.5 2.9.9 2.9h8.5c1.4 0 1.9-1.3.9-2.9l-3.4-6.3c-.9-1.6-2.4-1.6-3.3 0l-3.6 6.3c-.9 1.6-.5 2.9.9 2.9h8.5c1.4 0 1.9-1.3.9-2.9l-3.4-6.3zm0 46c-.9 1.6-2.4 1.6-3.3 0l-3.6-6.3c-.9-1.6-.5-2.9.9-2.9h8.5c1.4 0 1.9 1.3.9 2.9l-3.4 6.3c-.9 1.6-2.4 1.6-3.3 0l-3.6-6.3c-.9-1.6-.5-2.9.9-2.9h8.5c1.4 0 1.9 1.3.9 2.9l-3.4 6.3zm21.2-21.3c1.6-.9 1.6-2.4 0-3.3L83.2 60c-1.6-.9-2.9-.5-2.9 1v8.5c0 1.4 1.3 1.9 2.9 1l6.2-3.6c1.6-.9 1.6-2.4 0-3.3L83.2 60c-1.6-.9-2.9-.5-2.9 1v8.5c0 1.4 1.3 1.9 2.9 1l6.2-3.6zm-45.9 0c-1.6-.9-1.6-2.4 0-3.3l6.3-3.6c1.6-.9 2.9-.5 2.9 1v8.5c0 1.4-1.3 1.9-2.9 1l-6.3-3.6c-1.6-.9-1.6-2.4 0-3.3l6.3-3.6c1.6-.9 2.9-.5 2.9 1v8.5c0 1.4-1.3 1.9-2.9 1l-6.3-3.6zm15.2 68l-10.3-13.2c-3.6-4.5 2.9-10.2 6.8-5.3l10.3 13.2c3.6 4.7-3.2 10.1-6.8 5.3m0 33.1l-10.3-13.2c-3.6-4.5 2.9-10.2 6.8-5.3l10.3 13.2c3.6 4.7-3.2 10.1-6.8 5.3"/>
  <path fill="#D8D8D8" d="M108.7 263.3v-2.1l-3.2 2.7-3.5-2.9v2l2.3 1.9-2.3 1.9v2l3.5-2.9 3.2 2.7v-2.1l-1.9-1.6 1.9-1.6zm-23.9 26.5v2l-6.6 3v-1.6l1.7-.8v-3.3l-1.7-.8v-1.6l6.6 3.1zm-3.6 2l2.3-1-2.2-1-.1 2zm-28.8-96.9v-1.8l-3.7 3h-3.1v1.6h3.1l3.7 3v-1.8l-2.5-2 2.5-2zm0 0"/>
  <path fill="#CCC" d="M29.1 220.1v4.4c-.2 2.8-3.1 2.9-3.3.2-.1 3.4-3.5 3.1-3.6-.2v-4.4h6.9zm-5.6 4.4c.2 1.1 1.4 1.1 1.6 0v-2.7h-1.6v2.7zm2.9 0c.4 1.1 1.4.7 1.5 0v-2.7h-1.5v2.7zm0 0"/>
  <path fill="#F4F4F4" d="M77.9 213.9c0-6.7-5.4-12.1-12.1-12.1s-12.1 5.4-12.1 12.1c0 6.7 5.4 12.1 12.1 12.1s12.1-5.4 12.1-12.1zm-1 0c0 6.1-4.9 11.1-11.1 11.1-6.1 0-11.1-4.9-11.1-11.1 0-6.1 4.9-11.1 11.1-11.1 6.2 0 11.1 5 11.1 11.1zm23.9 29.3c0-6.7-5.4-12.1-12.1-12.1-6.7 0-12.1 5.4-12.1 12.1 0 6.7 5.4 12.1 12.1 12.1 6.7 0 12.1-5.4 12.1-12.1zm-1 0c0 6.1-4.9 11.1-11.1 11.1-6.1 0-11.1-4.9-11.1-11.1s5-11 11.1-11 11.1 4.9 11.1 11zm-44.2 1c0-6.7-5.4-12.1-12.1-12.1-6.7 0-12.1 5.4-12.1 12.1 0 6.7 5.4 12.1 12.1 12.1 6.7 0 12.1-5.4 12.1-12.1zm-1 0c0 6.1-4.9 11-11.1 11-6.1 0-11-4.9-11-11s4.9-11.1 11-11.1c6.2.1 11.1 5 11.1 11.1zm23.9 29.3c0-6.7-5.4-12.1-12.1-12.1s-12.1 5.4-12.1 12.1c0 6.7 5.4 12.1 12.1 12.1s12.1-5.4 12.1-12.1zm-1 0c0 6.1-4.9 11.1-11.1 11.1-6.1 0-11.1-4.9-11.1-11.1 0-6.1 4.9-11.1 11.1-11.1 6.1.1 11.1 5 11.1 11.1zm0 0"/>
  <path fill="#D8D8D8" d="M75.2 284.7c-6.2 4.8-15.1 3.7-20-2.5l-22.9-29.3c-4.8-6.2-3.7-15.1 2.5-20 6.2-4.8 15.1-3.7 20 2.5l22.8 29.4c1.8 2.3 2.8 5 3 7.8.3 4.4-1.5 9.1-5.4 12.1zm0 0"/>
  <path fill="#EB2D2F" d="M78.5 273.5c0 6.7-5.4 12.1-12.1 12.1-6.7 0-12.1-5.4-12.1-12.1 0-6.7 5.4-12.1 12.1-12.1 6.7.1 12.1 5.5 12.1 12.1zm0 0"/>
  <path fill="#D8D8D8" d="M97.4 254.5c-6.2 4.8-15.1 3.7-20-2.5l-22.9-29.3c-4.8-6.2-3.7-15.1 2.5-20 6.2-4.8 15.1-3.7 20 2.5l22.8 29.4c1.8 2.3 2.8 5 3 7.8.4 4.4-1.5 9.1-5.4 12.1zm0 0"/>
  <path fill="#323B98" d="M100.8 243.2c0 6.7-5.4 12.1-12.1 12.1-6.7 0-12.1-5.4-12.1-12.1 0-6.7 5.4-12.1 12.1-12.1 6.7.1 12.1 5.5 12.1 12.1zm0 0"/>
  <path fill="#F9EC2B" d="M55.6 244.2c0 6.7-5.4 12.1-12.1 12.1-6.7 0-12.1-5.4-12.1-12.1 0-6.7 5.4-12.1 12.1-12.1 6.7 0 12.1 5.4 12.1 12.1zm0 0"/>
  <path fill="#01954B" d="M77.9 213.9c0 6.7-5.4 12.1-12.1 12.1-6.7 0-12.1-5.4-12.1-12.1 0-6.7 5.4-12.1 12.1-12.1 6.7 0 12.1 5.4 12.1 12.1zm0 0"/>
  <circle cx="66.5" cy="65.2" r="7.3" fill="#595959"/>
  <path fill="#4C4C4C" d="M108.4 113.9s.1-.2.1-.4v-2.4s.2-.3.6-.3c0 0 .4.1.4.6v3.3h.9v-4.3s0-1-1.2-1.3c0 0-1.7-.3-1.7 1.4v2.2s-.1.7-.6.6c0 0-.5-.1-.5-.5v-3.4h-1v3.9s-.2 1.5 1.3 1.7c0 0 1.4.1 1.7-1.1zm-2 5.6v-1.8s.1-.7.7-.7h3.3v-1.5h-3.7s-1.3.4-1.3 1.5v3.9h5v-1.5h-4zm4.1 6.4v-4.1h-5.1v1.4h1.7v2.5c.2 1.7 1.7 1.6 1.7 1.6 1.5-.1 1.7-1.4 1.7-1.4zm-2.4-.8v-1.8h1.4v1.9c0 .5-.6.6-.6.6-.9-.2-.8-.7-.8-.7zm-.2 2.7s-2.1-.3-2.5 2.1v3h1v-2.6s0-.8 1.1-.9v3.6h1v-3.5s.9.1 1 1v2.5h1v-3.1c0-.1-.2-2.1-2.6-2.1zm1 11.7c1.5 0 1.6-1.5 1.6-1.5v-4.2h-5.1v1.5h1.9v1.5l-1.9 1.3v1.7l1.9-1.5c.3 1.2 1.6 1.2 1.6 1.2zm-.7-2.6v-1.7h1.3v1.7s.1.9-.7.9c0 .1-.6.2-.6-.9zm.4 6h-3.2v1.5h2v3.6h1.1v-3.6h.3c.6.1.8 1 .8 1v2.6h.9v-3.1c-.1-1.7-1.9-2-1.9-2zm1.8 9.3v-3.3h-1v2.6c0 1-1 1.1-1 1.1v-2.5c-.1-1.7-1.6-1.7-1.6-1.7-1.6 0-1.6 1.8-1.6 1.8v3.9h2.8c2.2 0 2.4-1.9 2.4-1.9zm-4.1.4v-2s0-.5.6-.5c0 0 .6.1.6.6v2h-1.2zm4.1 8.1v-5.8h-5v1.5h4v1.3h-4.1v1.5h4v.6c0 .8-.6.9-.6.9h-3.4v1.4h3.3c1.6.2 1.8-1.4 1.8-1.4zm-5 2.4v1.6h5v-1.6h-5zm2.5 2.3c-2.5 0-2.6 2.1-2.6 2.1v2.9h1v-2.5c.2-1.1 1.5-1 1.5-1 1.7 0 1.5 1.1 1.5 1.1v2.5h1v-3.1c-.2-2-2.4-2-2.4-2zm2.5 8.6s.2-2.7-2.1-3.1c0 0-1.9-.3-2.6 1 0 0-1.2 1.9 0 4.1 0 0 .7 1.5 2.9 1.1 0 0 1.9-.4 1.8-3.1zm-4.3.1s-.2-1.9 1.7-1.7c0 0 1.7-.2 1.7 1.6 0 0 .2 1.8-1.7 1.8 0-.1-1.7.1-1.7-1.7zm4.2 9.6v-5.8h-5v1.5h4v1.3h-4.1v1.5h4v.6c0 .8-.6.9-.6.9h-3.4v1.4h3.3c1.6.1 1.8-1.4 1.8-1.4zm10.6-74.5v2.2l-5.1 3.1h5.1v2.2h-7.3v-2.2l5.1-3.1h-5.1v-2.2h7.3zm-.7 19.5v2.1h-1v1.2h-.7v-1.2h-4.9v-2.1h4.9v-1.2h.7v1.2h1zm-1.7-10.7v2.1h-4.9V118h4.9zm2.4-.1v2.2h-1.5v-2.2h1.5zm-2.1 37.6c0-1.7-1.2-3.1-2.7-3.1-1.5 0-2.7 1.4-2.7 3.1 0 1.7 1.2 3.1 2.7 3.1 1.5.1 2.7-1.3 2.7-3.1m-2.7.9h-1c-.8 0-1.1-.4-1.1-.9 0-.4.3-.9 1.1-.9h2.1c.8 0 1.1.5 1.1.9s-.3.9-1.1.9h-1.1zm-.1-6.8h.9c.8 0 .9-.5.9-.8 0-.3-.2-.8-.9-.8h-1.8c-.8 0-1 .5-1 .8 0 .3.2.8 1 .8h.9zm4.9 0v2.1h-7.3v-2.1h.3c-.5-.8-.5-1.7-.2-2.5.1-.2.7-1.5 2.4-1.5 1.3 0 2.7 1.2 2.6 2.7 0 .5-.2.9-.4 1.2l2.6.1zm-2.2-24.5c0 .8-.5 2.4-2.4 2.4h-2.7v-2.1h3.2c.4 0 .9-.4.9-1s-.5-1-.9-1h-3.2v-2.1h4.9v2.1h-.5c.3.4.7 1 .7 1.7m0 17.4c0 .8-.5 2.4-2.4 2.4h-2.7v-2.1h3.2c.4 0 .9-.4.9-1s-.5-1-.9-1h-3.2v-2.1h4.9v2.1h-.5c.3.4.7 1 .7 1.7m-3.4-6.7h-.3c-.9 0-1.1-.6-1.1-.9 0-.3.2-.9 1.1-.9h1v4c1.5 0 2.8-1.4 2.8-3.2s-1.2-3.2-2.7-3.2c-1.5 0-2.7 1.4-2.7 3.2 0 1.4.8 2.7 2 3l-.1-2zm1.5-1.8c.4 0 .7 0 1 .1.3.2.4.5.4.8 0 .3-.1.6-.4.8-.2.1-.5.1-1 .1V134zm-5.9-40.7c-1.1 0-2-2-2-4.4 0-2.4.9-4.4 2-4.4s2 2 2 4.4c-.1 2.4-.9 4.4-2 4.4m-3.3 7.8c-1.1 0-2-2-2-4.4 0-2.4.9-4.4 2-4.4s2 2 2 4.4c0 2.4-.9 4.4-2 4.4m2.1.5c2.2-.5 4.6-2.4 3.6-4.9 4.6 2 3.9 5.8 2.3 7.1-1.2 1.1-5.4 1-5.9-2.2m3.6-7.7c2.2-.5 4.6-2.4 3.6-4.9 4.6 2 3.9 5.8 2.3 7.1-1.3 1.1-5.5 1-5.9-2.2"/>
</svg>
