<svg xmlns="http://www.w3.org/2000/svg" baseProfile="tiny" viewBox="0 0 207 144.9">
  <path fill="#CCC" d="M103.5 144.9c13.1 0 92.2-1 94-1 8.6 0 9.5-6.1 9.5-8.7 0-2.6-.7-119.1-.9-125.9-.2-6.9-5.2-7.6-9.3-7.8S115.9 0 103.5 0 14.2 1.2 10.2 1.4c-4 .2-9 .9-9.3 7.8-.2 6.9-.9 123.4-.9 126 0 2.6.9 8.7 9.5 8.7 1.8 0 80.9 1 94 1z"/>
  <path fill="#666" d="M176.2 1h.5v143.1h-.5zM30.3 1h.5v143.1h-.5z"/>
  <path fill="#FEE145" d="M178.5 69.5H24.8c-5.3 0-9.6-4.3-9.6-9.6V18.2c0-5.3 4.3-9.6 9.6-9.6h153.7c5.3 0 9.6 4.3 9.6 9.6V60c-.1 5.2-4.4 9.5-9.6 9.5z"/>
  <circle cx="8.8" cy="134.4" r="3.8" fill="#666"/>
  <circle cx="198.3" cy="134.4" r="3.8" fill="#666"/>
  <path fill="#B2B2B2" d="M159.7 100.8H47.3c-2.5 0-4.6-2.1-4.6-4.6v-1.8c0-2.5 2.1-4.6 4.6-4.6h112.4c2.5 0 4.6 2.1 4.6 4.6v1.8c0 2.5-2.1 4.6-4.6 4.6z"/>
  <path fill="#999" d="M83.9 91.5h39v7.6h-39z"/>
  <path fill="#666" d="M42.8 96.7h121.4v-.2H42.8v.2zm.4 1.2h120.7c0-.1.1-.2.1-.2H43.1c0 .1.1.1.1.2zm.8 1.3h119c.1-.1.1-.2.2-.2H43.8c.1 0 .1.1.2.2zm-1.2-4v.2h121.5v-.2H42.8zM163 91.4H44c-.1.1-.1.2-.2.2h119.4l-.2-.2zm1.2 2.5H42.8v.2h121.5c-.1 0-.1-.1-.1-.2zm-.3-1.2H43.2c0 .1-.1.2-.1.2H164c-.1 0-.1-.1-.1-.2z"/>
  <g fill-rule="evenodd">
    <path fill="#B2B2B2" d="M22.7 63.6c-1.8 0-3-1.3-3-2.8 0-1.6 1.2-2.9 3-2.8h17c1.8 0 3 1.3 3 2.8 0 1.6-1.2 2.8-3 2.8h-17z"/>
    <path fill="#FFF" d="M22.7 58.6c-1.4 0-2.3 1-2.3 2.1 0 1.2.9 2.1 2.3 2.1h17c1.4 0 2.3-1 2.3-2.1 0-1.2-.9-2.1-2.3-2.1h-17z"/>
    <g fill="#B2B2B2">
      <path d="M22 59.4h.8l1.2 1.9v-1.9h.8v2.7H24l-1.2-1.9v1.9H22v-2.7m7.3.3h.8v.3h.4v.3h-.4v1.8h-.8v-1.8h-.4V60h.4v-.3m-4 .6h.8v1.8h-.8v-1.8m0-.9h.8v.5h-.8v-.5m14.4 1.8v.4c0 .3-.2.4-.3.4-.2 0-.3-.1-.3-.4v-.8c0-.3.2-.4.3-.4s.3.1.3.4v.4zm-.3-1c-.6 0-1.2.4-1.2 1s.5 1 1.2 1c.6 0 1.2-.4 1.2-1-.1-.6-.6-1-1.2-1zm-2.3-.8h.8v2.7h-.8V62c-.3.2-.7.2-.9.1-.1 0-.6-.3-.6-.9 0-.5.4-1 1-.9.2 0 .3.1.5.2v-1.1zm0 1.8v-.3c0-.3-.2-.3-.3-.3-.1 0-.3.1-.3.3v.6c0 .3.2.3.3.3.1 0 .3-.1.3-.3v-.3zm-9.1-1c.3 0 .9.2.9.9v1h-.8v-1.2c0-.2-.1-.3-.4-.3-.2 0-.4.2-.4.3v1.2h-.8v-1.8h.8v.2c.2-.2.4-.3.7-.3zm6.5 0c.3 0 .9.2.9.9v1h-.8v-1.2c0-.2-.1-.3-.4-.3-.2 0-.4.2-.4.3v1.2H33v-1.8h.8v.2c.2-.2.4-.3.7-.3zm-3.2.7c0-.2 0-.3.1-.3.1-.1.2-.2.3-.2.1 0 .2.1.3.2.1.1.1.2.1.3h-.8zm.7.5v.1c0 .3-.2.4-.3.4-.1 0-.3-.1-.3-.4v-.4h1.5c0-.6-.5-1-1.2-1s-1.2.4-1.2 1 .5 1 1.2 1c.5 0 1-.3 1.1-.7H32zm8.6-1.4l-.1-.6h.2c.1 0 .2.1.2.2s-.1.2-.2.2l.3.2h-.1l-.2-.3h-.1v.3zm.1-.3c.1 0 .1 0 .1-.1s-.1-.1-.1-.1h-.1v.2h.1z"/>
      <path d="M40.2 59.7c0-.3.2-.5.5-.5s.5.2.5.5-.2.5-.5.5c-.3.1-.5-.2-.5-.5zm.5.5c.2 0 .4-.2.4-.4s-.2-.4-.4-.4-.4.2-.4.4.2.4.4.4z"/>
    </g>
  </g>
  <path fill="#FFF" d="M34.2 36.5h-.5v-1.6h1.8c.3 0 .5.2.6.5v1.1h-.5v-1c0-.2-.1-.3-.2-.3h-.3v1.3h-.5v-1.3h-.4v1.3zm7.3 0H41v-1.6h1.8c.3 0 .5.2.6.5v1.1h-.5v-1c0-.2-.1-.3-.2-.3h-.3v1.3h-.5v-1.3h-.4v1.3zm-13.1-.7c.2.2.3.4.5.6h-.5l-.4-.6h-.5v.6H27v-1.6h1.3c.3 0 .6.3.5.6 0 .3-.2.4-.4.4zm-1-.2h.7c.1 0 .1-.1.1-.2s0-.2-.1-.2h-.7v.4zm6.1.9H32c-.2-.1-.3-.2-.3-.5 0-.2.2-.4.4-.5h.9c0-.2-.1-.3-.3-.3h-.8v-.3h1c.4 0 .7.3.7.7v.9h-.1zm-.5-.7h-.6c-.1 0-.2.1-.2.2s.1.2.2.2h.6v-.4zm-13.8.7v-.3h1.1c.1 0 .2 0 .2-.1s0-.1-.1-.2h-.8c-.3 0-.4-.2-.4-.4s.1-.5.4-.5H21v.3h-1.1c-.1 0-.1.1-.1.1 0 .1 0 .1.1.2h.8c.2 0 .3.1.4.2.2.3 0 .7-.4.7h-1.5zm20.6-1.7c.2 0 .4 0 .5.1.2.1.4.3.5.5.1.3 0 .6-.2.8-.1.1-.3.2-.5.2-.3.1-.6 0-.8-.1-.2-.1-.4-.3-.4-.6v-.4c.1-.3.3-.5.6-.5h.3zm.5.9c0-.1 0-.1 0 0 0-.3-.1-.5-.4-.5h-.4c-.2 0-.3.1-.3.3v.4c0 .2.1.3.3.3h.3c.4 0 .5-.2.5-.5zm-13.6-.2v.3h-1.1c0 .2.1.3.3.3h.8v.3h-.9c-.5 0-.7-.3-.7-.8 0-.1 0-.3.1-.4.1-.3.4-.5.7-.5h.9v.3H26c-.2 0-.3.1-.4.3.4.2.7.2 1.1.2zm-4.3.6v-1.3h.5v1.6h-1.2c-.2 0-.3-.1-.4-.2-.1-.1-.1-.2-.1-.4v-1.1h.5v1c0 .2.1.2.2.3h.5zm1.2-.2v.5h-.5v-1.6h1.2c.2 0 .4.2.5.4.1.4-.2.7-.5.7h-.7c.1 0 0 0 0 0zm0-.3h.7c.1 0 .1-.2.1-.2 0-.1-.1-.2-.2-.2h-.6v.4zm7.9-.8v.3h-.8c-.1 0-.2.1-.3.2v.2h1.1v.3h-1.2v.6h-.5v-1c0-.3.3-.7.6-.7l1.1.1zm7.2 1.3v.3h-.9c-.4 0-.6-.2-.7-.6-.1-.3 0-.5.1-.8.1-.2.3-.3.5-.3h.9v.3h-.8c-.2 0-.3.1-.3.2-.1.2-.1.4 0 .5.1.2.2.2.3.2l.9.2zm-2.4-1.3h.5v1.6h-.5zm7-1.8H19.2V14.5h24.2V33zm-23.6-.5h23.2V15H19.7v17.5z"/>
  <path d="M19.7 15h23.2v17.5H19.7z"/>
  <ellipse cx="25.5" cy="25.5" fill="#01954B" rx="4.5" ry="2"/>
  <ellipse cx="33.5" cy="28.8" fill="#F9EC2B" rx="4.5" ry="2"/>
  <path fill="#EB2D2F" d="M38.6 27.5c-.5-2.2-2.5-4.7-5-3.6 2.1-4.7 5.9-4 7.3-2.4 1 1.2.9 5.5-2.3 6z"/>
  <path fill="#323B98" d="M30.7 23.9c-.5-2.2-2.5-4.7-5-3.6 2.1-4.7 5.9-4 7.3-2.4 1 1.2.9 5.5-2.3 6z"/>
</svg>
