<?xml version="1.0" encoding="utf-8"?>
<!-- Generator: Adobe Illustrator 16.0.3, SVG Export Plug-In . SVG Version: 6.00 Build 0)  -->
<!DOCTYPE svg PUBLIC "-//W3C//DTD SVG 1.1//EN" "http://www.w3.org/Graphics/SVG/1.1/DTD/svg11.dtd">
<svg version="1.1"
	 id="Layer_1" xmlns:inkscape="http://www.inkscape.org/namespaces/inkscape" xmlns:sodipodi="http://sodipodi.sourceforge.net/DTD/sodipodi-0.dtd" xmlns:dc="http://purl.org/dc/elements/1.1/" xmlns:cc="http://creativecommons.org/ns#" xmlns:rdf="http://www.w3.org/1999/02/22-rdf-syntax-ns#" xmlns:svg="http://www.w3.org/2000/svg" sodipodi:docname="scummvm_logo.svg" inkscape:version="0.46" sodipodi:version="0.32" inkscape:output_extension="org.inkscape.output.svg.inkscape"
	 xmlns="http://www.w3.org/2000/svg" xmlns:xlink="http://www.w3.org/1999/xlink" x="0px" y="0px" width="566.932px"
	 height="154.093px" viewBox="0 0 566.932 154.093" enable-background="new 0 0 566.932 154.093" xml:space="preserve">
<defs>
	
	
		<inkscape:perspective  id="perspective2709" inkscape:persp3d-origin="580 : 113.33333 : 1" inkscape:vp_y="0 : 1000 : 0" inkscape:vp_x="0 : 170 : 1" inkscape:vp_z="1160 : 170 : 1" sodipodi:type="inkscape:persp3d">
		</inkscape:perspective>
</defs>
<sodipodi:namedview  guidetolerance="10.0" id="namedview2703" gridtolerance="10.0" bordercolor="#666666" objecttolerance="10.0" inkscape:cx="580" pagecolor="#ffffff" borderopacity="1.0" inkscape:cy="170" inkscape:zoom="0.47672414" inkscape:current-layer="Layer_1" inkscape:window-width="1280" inkscape:window-x="0" inkscape:window-height="725" inkscape:window-y="25" inkscape:pageshadow="2" inkscape:pageopacity="0.0" showgrid="false">
	</sodipodi:namedview>
<g>
	
		<sodipodi:namedview  guidetolerance="10.0" id="base" gridtolerance="10.0" bordercolor="#666666" objecttolerance="10.0" inkscape:cx="580" pagecolor="#ffffff" borderopacity="1.0" inkscape:cy="178.71889" inkscape:zoom="0.69913793" inkscape:current-layer="layer9" inkscape:window-width="1280" inkscape:window-x="0" inkscape:window-height="725" inkscape:window-y="25" inkscape:pageshadow="2" inkscape:pageopacity="0.0">
		</sodipodi:namedview>
	<g id="layer7" inkscape:label="Contents M" inkscape:groupmode="layer" sodipodi:insensitive="true">
		
			<linearGradient id="path27_1_" gradientUnits="userSpaceOnUse" x1="431.2839" y1="-849.8003" x2="431.2839" y2="-985.2935" gradientTransform="matrix(1 0 0 -1 58.1099 -838.7695)">
			<stop  offset="0" style="stop-color:#ECEFEB"/>
			<stop  offset="0.1746" style="stop-color:#EAECE9"/>
			<stop  offset="0.2796" style="stop-color:#E1E4E0"/>
			<stop  offset="0.3661" style="stop-color:#D3D6D3"/>
			<stop  offset="0.4427" style="stop-color:#C0C1BF"/>
			<stop  offset="0.5127" style="stop-color:#A6A7A6"/>
			<stop  offset="0.5769" style="stop-color:#878787"/>
			<stop  offset="0.6" style="stop-color:#7A7A7A"/>
			<stop  offset="1" style="stop-color:#343732"/>
		</linearGradient>
		<path id="path27" fill="url(#path27_1_)" d="M436.783,14.144l-17.317,116.254c-0.142,0.941,0.103,1.867,0.683,2.604
			c0.58,0.735,1.423,1.187,2.37,1.271l16.047,1.399c1.91,0.168,3.687-1.244,3.947-3.146c0,0,8.807-63.336,9.371-67.417
			c1.155,3.975,20.719,71.149,20.719,71.149c0.504,1.722,2.293,3.222,4.078,3.41l10.701,1.14c1.772,0.188,3.86-0.875,4.752-2.418
			c0,0,34.192-59.302,36.104-62.614c-0.326,3.786-5.582,64.872-5.582,64.872c-0.01,0.104-0.016,0.205-0.016,0.31
			c0,1.805,1.385,3.369,3.209,3.561l19.229,1.986c0.938,0.1,1.854-0.18,2.586-0.777c0.729-0.602,1.175-1.447,1.259-2.389
			l10.424-116.89c0.082-0.938-0.205-1.854-0.813-2.578c-0.606-0.724-1.457-1.168-2.396-1.25l-18.051-1.57
			c-1.777-0.155-3.843,0.951-4.699,2.516l-44.734,81.701c-0.004,0.006-0.006,0.006-0.008,0.01c-0.002-0.004-0.002-0.004-0.004-0.01
			l-23.939-88.783c-0.469-1.743-2.243-3.25-4.041-3.431l-19.895-2.003C438.849,10.854,437.066,12.243,436.783,14.144z"/>
	</g>
	<g id="layer4" inkscape:label="Silhouette M" inkscape:groupmode="layer" sodipodi:insensitive="true">
		<path id="path29" fill="#232323" d="M564.333,19c-1.907-2.275-4.586-3.671-7.543-3.929l-18.049-1.569
			c-4.77-0.415-9.699,2.227-11.996,6.423c0,0-24.188,44.166-35.696,65.188c-6.199-22.988-19.039-70.604-19.039-70.604
			c-1.293-4.797-5.646-8.496-10.595-8.993l-19.896-2.003c-5.975-0.601-11.344,3.579-12.229,9.516l-17.316,116.256
			c-0.442,2.984,0.364,6.049,2.228,8.406c1.858,2.354,4.647,3.855,7.658,4.121l16.043,1.4c5.963,0.521,11.277-3.717,12.104-9.646
			c0,0,2.26-16.262,4.5-32.361c5.41,18.58,10.821,37.168,10.821,37.168c1.363,4.68,5.699,8.31,10.545,8.82l10.703,1.143
			c4.746,0.504,9.726-2.028,12.107-6.164c0,0,9.551-16.563,19.084-33.092c-1.322,15.371-2.66,30.918-2.66,30.918
			c-0.026,0.316-0.041,0.637-0.041,0.949c0,5.629,4.31,10.506,10.002,11.094l19.229,1.992c2.971,0.307,5.875-0.57,8.18-2.473
			c2.307-1.896,3.721-4.582,3.984-7.561l10.422-116.889C567.15,24.159,566.244,21.277,564.333,19z M534.271,24.044
			c0.666-1.218,2.344-2.116,3.729-1.996l5.942,0.517l-6.096,18.277h-12.773L534.271,24.044z M440.664,12.049l19.896,2.003
			c1.383,0.139,2.811,1.349,3.168,2.69l5.494,20.373h-23.074h-0.553l-0.168,0.527l-2.979,9.373h-9.541l4.877-32.722
			C437.986,12.92,439.283,11.911,440.664,12.049z M431.103,102.848l3.496,1.901l0.17,0.092h0.191h10.377l-1.459,10.486
			l-20.783-2.473l1.498-10.049L431.103,102.848z M438.65,134.667l-16.047-1.401c-1.383-0.121-2.348-1.343-2.143-2.716l2.411-16.196
			l20.798,2.476l-2.162,15.561C441.32,133.759,440.033,134.787,438.65,134.667z M452.236,62.719
			c-0.391-1.333-0.86-1.297-1.055,0.076l-5.635,40.535h-10.396l-3.494-1.899l-0.166-0.093l-0.19-0.002l-6.479-0.041l7.855-52.764
			h10.317h0.554l0.168-0.528l2.979-9.372h22.929l11.049,40.976h-10.771h-0.764v0.756v27.636h-3.723L452.236,62.719z
			 M545.181,145.498l-9.295-0.961l0.938-13.307l4.813-0.633l0.399-0.055l0.181-0.359l1.225-2.479h5.861l-1.385,15.541
			C547.792,144.625,546.562,145.636,545.181,145.498z M549.437,126.188h-6.473h-0.47l-0.209,0.42l-1.252,2.541l-5.022,0.662
			l-0.609,0.08l-0.047,0.616l-0.975,13.869l-8.429-0.871c-1.379-0.145-2.412-1.393-2.293-2.774l3.408-39.619h10.426h0.756
			l0.003-0.756l0.063-24.132l4.314-15.606l12.646,0.051L549.437,126.188z M555.414,59.155l-13.354-0.054l-0.574-0.002l-0.151,0.557
			l-4.5,16.264l-0.027,0.098v0.102L536.74,99.6h-9.541l2.217-25.75c0.117-1.383-0.354-1.531-1.045-0.329l-37.112,64.363
			c-0.691,1.203-2.392,2.064-3.771,1.918l-10.701-1.139c-1.381-0.146-2.827-1.356-3.215-2.688l-7.709-26.466h4.041h0.758v-0.758
			V81.119h10.427l6.579,24.402c0.361,1.338,1.203,1.439,1.869,0.225l34.709-63.388h14.148h0.545l0.176-0.518l6.379-19.139
			l10.558,0.918c1.383,0.12,2.412,1.35,2.289,2.733L555.414,59.155z"/>
	</g>
	<g id="layer6" inkscape:label="Contents V" inkscape:groupmode="layer" sodipodi:insensitive="true">
		
			<linearGradient id="path50_1_" gradientUnits="userSpaceOnUse" x1="316.1355" y1="-846.79" x2="316.1355" y2="-975.8755" gradientTransform="matrix(1 0 0 -1 58.1099 -838.7695)">
			<stop  offset="0" style="stop-color:#ECEFEB"/>
			<stop  offset="0.1746" style="stop-color:#EAECE9"/>
			<stop  offset="0.2796" style="stop-color:#E1E4E0"/>
			<stop  offset="0.3661" style="stop-color:#D3D6D3"/>
			<stop  offset="0.4427" style="stop-color:#C0C1BF"/>
			<stop  offset="0.5127" style="stop-color:#A6A7A6"/>
			<stop  offset="0.5769" style="stop-color:#878787"/>
			<stop  offset="0.6" style="stop-color:#7A7A7A"/>
			<stop  offset="1" style="stop-color:#343732"/>
		</linearGradient>
		<path id="path50" fill="url(#path50_1_)" d="M421.876,8.088L421.876,8.088l-18.473,3.722c-1.782,0.359-3.37,2.05-3.618,3.85
			c0,0-10.306,74.859-10.435,75.794c-0.463-0.822-37.666-67.015-37.666-67.015c-0.896-1.594-3-2.553-4.791-2.183l-21.271,4.396
			c-0.975,0.2-1.731,0.776-2.088,1.579c-0.354,0.802-0.27,1.752,0.238,2.605l61.738,104.019c0.928,1.562,3.045,2.519,4.822,2.183
			L401.108,135c1.776-0.336,3.404-1.996,3.707-3.781l20.308-119.984c0.169-0.984-0.096-1.897-0.723-2.504
			C423.775,8.125,422.853,7.893,421.876,8.088z"/>
	</g>
	<g id="layer5" inkscape:label="Silhouette V" inkscape:groupmode="layer" sodipodi:insensitive="true">
		<path id="path52" fill="#232323" d="M430.519,2.419c-2.027-1.968-4.896-2.809-7.668-2.251l-23.417,4.719
			c-3.576,0.72-6.311,3.625-6.808,7.241c0,0-4.403,31.996-7.705,55.993c-11.916-21.201-27.871-49.589-27.871-49.589
			c-1.829-3.256-5.56-4.954-9.218-4.198l-26.215,5.418c-2.72,0.561-4.994,2.4-6.114,4.938c-1.119,2.537-0.942,5.459,0.472,7.844
			l64.316,108.356c1.841,3.104,5.427,4.721,8.973,4.051l15.729-2.971c3.526-0.666,6.27-3.461,6.866-7l21.148-124.96
			C433.478,7.226,432.549,4.385,430.519,2.419z M400.785,15.798c0.188-1.375,1.457-2.724,2.815-2.999l7.015-1.413v5.358
			l-1.759,1.556l-0.256,0.226v0.341v3.905l-1.806,1.93l-0.205,0.219v0.299v11.849l-2.354,1.972h-6.653L400.785,15.798z
			 M341.53,46.599h0.759V45.84v-9.318h6.763h0.386l0.228-0.311l1.336-1.827h5.118l22.877,40.706l-18.579,15.5L334.301,46.6
			L341.53,46.599L341.53,46.599z M325.828,27.645l21.271-4.396c1.354-0.281,3.024,0.48,3.707,1.689l4.459,7.934h-4.648h-0.387
			l-0.229,0.31l-1.339,1.828h-7.135h-0.76v0.757v9.32H333.4l-8.762-14.76C323.934,29.131,324.467,27.924,325.828,27.645z
			 M403.821,131.052c-0.229,1.369-1.536,2.701-2.898,2.957l-10.771,2.035c-1.362,0.258-3.062-0.508-3.771-1.701l-7.616-12.834
			l15.271-5.639l0.494-0.182v-0.527v-6.848l3.793-2.902l5.36,0.043l0.267,0.002l0.209-0.164l4.638-3.643L403.821,131.052z
			 M406.083,66.717l1.992-1.949l0.229-0.223v-0.318v-3.582h7.434l-3.547,20.953h-6.146L406.083,66.717z M424.127,11.068
			l-8.136,48.063h-8.444h-0.761v0.758v4.021l-1.989,1.947l-0.227,0.223l-0.002,0.317l-0.049,15.958l-0.002,0.76h0.76h6.652
			l-2.764,16.316l-5.736,4.506l-5.357-0.043l-0.26-0.002l-0.205,0.156l-4.297,3.291l-0.297,0.227v0.375v6.691l-15.039,5.554
			l-16.783-28.272l18.554-15.48l8.959,15.938c0.681,1.209,1.393,1.073,1.58-0.302l7.09-51.511h7.141h0.273l0.213-0.178l2.834-2.376
			l0.271-0.226v-0.354V25.521l1.809-1.931l0.205-0.218v-0.299v-3.864l1.757-1.557l0.254-0.225v-0.341v-6.003l9.944-2.003
			C423.433,8.805,424.359,9.701,424.127,11.068z"/>
	</g>
	<path id="path2689" fill="#232323" d="M353.483,66.369c15.177,6.063,19.17,25.939,16.729,48.468
		c-1.061,9.771-1.271,22.031-10.825,23.375c-3.25,0.457-6.921-0.323-10.335-0.737c-3.063-0.373-6.569-1.599-9.597-1.229
		c-1.84,0.226-3.237,1.721-4.922,2.213c-3.735,1.099-8.386,0.492-13.53,0.492c-3.146,0-6.341,0.051-9.104-0.492
		c-1.666-0.328-3.373-1.59-5.168-1.721c-1.642-0.123-3.303,0.783-5.166,0.982c-5.01,0.533-11.729,0.695-16.979,0.246
		c-1.88-0.166-3.958-1.256-5.656-1.229c-1.679,0.024-3.56,1.271-5.414,1.478c-6.576,0.729-13.49-2.537-19.189-1.967
		c-2.656,0.266-5.342,2.623-8.856,2.951c-5.074,0.479-13.408,0.182-18.453-0.736c-1.892-0.344-3.834-1.601-5.658-1.723
		c-1.654-0.113-3.541,0.811-5.412,0.983c-4.783,0.444-10.76,0.485-15.748,0.245c-1.436-0.071-2.875-0.573-4.184-0.491
		c-2.267,0.146-4.504,1.713-6.644,1.969c-5.709,0.688-12.07,0.789-17.467,0.246c-1.918-0.194-3.865-1.209-5.906-1.229
		c-2.764-0.031-5.326,1.277-7.627,1.479c-13.297,1.158-23.307-5.229-30.018-12.549c-2.969,1.426-4.869,4.063-7.627,5.904
		c-12.333,8.26-33.379,5.879-44.287-2.707c-1.548-1.219-3.757-4.949-5.658-4.92c-1.621,0.027-4.445,3.801-5.906,4.92
		c-5.808,4.451-13.629,7.709-23.373,8.365c-14.66,0.983-26.373-4.496-33.953-11.563c-3.885-3.627-9.487-9.584-6.889-16.977
		c1.338-3.806,5.254-7.693,8.119-11.07c1.055-1.246,2.639-2.463,2.705-3.691c0.123-2.213-3.496-5.51-4.428-7.135
		c-4.229-7.377-5.582-19.55-1.477-28.788c4.896-11.01,17.828-18.976,35.429-17.715c6.711,0.482,13.6,2.547,19.438,5.905
		c8.34,4.793,16.992,9.227,14.271,21.897c3.517-0.753,5.535-3.256,8.611-4.674c10.691-4.936,27.801-4.587,37.644,1.723
		c1.233,0.793,3.127,2.69,4.184,2.705c1.957,0.025,4.361-3.92,6.15-4.675c4.008-1.69,16.895-1.782,22.637-1.229
		c2.285,0.222,4.627,1.82,6.395,1.723c1.929-0.107,4.414-2.495,5.906-2.953c4.586-1.404,18.709-1.978,23.865-0.492
		c1.695,0.487,3.506,2.48,5.414,2.707c1.813,0.215,4.176-0.65,6.149-0.738c3.664-0.168,7.781-0.418,11.318-0.246
		c2.551,0.125,4.965,1.58,7.379,1.722c2.244,0.135,4.926-1.004,7.381-0.983c1.967,0.016,4.229,0.486,6.15,0.983
		c1.83,0.474,3.66,1.733,5.168,1.724c2.246-0.017,4.652-1.703,6.643-2.215c6.89-1.768,14.554-1.378,21.652,1.23
		c1.588,0.584,4.469,3.209,6.148,3.199c1.993-0.012,4.344-3.476,6.151-4.184c5.037-1.963,12.468-1.707,18.451-1.477
		c2.697,0.104,5.115,1.594,7.629,1.722c2.229,0.114,4.617-0.948,6.888-0.983c2.151-0.035,4.227,0.486,6.151,0.983
		c1.939,0.502,3.986,1.702,5.414,1.724c1.906,0.024,3.781-1.498,5.412-1.97C337.049,63,345.885,63.334,353.483,66.369z"/>
	<g id="g2691" enable-background="new    ">
		<g id="g2693">
			<g>
				<g>
					<path id="SVGID_1_" fill="#8ED703" d="M65.161,95.064c1.551,3.064,2.33,6.711,2.33,10.945c0,4.084-0.854,7.619-2.558,10.605
						c-1.705,2.984-3.921,5.439-6.649,7.369c-2.727,1.93-5.816,3.363-9.263,4.313c-3.449,0.943-6.916,1.416-10.399,1.416
						c-6.973,0-12.826-1.287-17.562-3.854c-4.736-2.567-8.998-6.463-12.786-11.681l8.075-10.193
						c0.747-0.941,2.017-0.979,2.816-0.086c0,0,0.93,1.037,2.521,2.283c1.591,1.25,3.313,2.344,5.171,3.289
						c1.854,0.947,3.75,1.721,5.683,2.326c1.934,0.604,3.731,0.908,5.398,0.908c1.666,0,2.938-0.305,3.807-0.908
						c0.871-0.604,1.31-1.738,1.31-3.402c0-1.436-0.779-2.797-2.33-4.084c-1.556-1.283-3.487-2.625-5.798-4.023
						c-2.313-1.397-4.813-2.91-7.502-4.537c-2.688-1.625-5.188-3.533-7.5-5.729c-2.313-2.189-4.244-4.707-5.797-7.541
						c-1.553-2.836-2.33-6.105-2.33-9.811c0-3.629,0.683-6.805,2.045-9.526c1.363-2.723,3.201-5.008,5.514-6.862
						c2.31-1.851,4.98-3.25,8.013-4.197c3.029-0.944,6.25-1.417,9.66-1.417c6.061,0,11.498,1.116,16.311,3.345
						c4.813,2.231,9.377,5.539,13.697,9.922l-6.539,10.073c-0.653,1.009-1.936,1.191-2.846,0.402c0,0-1.644-1.42-3.46-2.595
						c-1.817-1.17-3.6-2.171-5.341-3.004c-1.744-0.832-3.374-1.455-4.89-1.872c-1.517-0.415-2.84-0.624-3.978-0.624
						c-1.364,0-2.368,0.341-3.012,1.021c-0.646,0.681-0.967,1.55-0.967,2.608c0,1.36,0.775,2.628,2.33,3.8
						c1.552,1.172,3.504,2.381,5.854,3.629c2.349,1.249,4.868,2.646,7.56,4.195c2.688,1.552,5.209,3.423,7.56,5.613
						C61.654,89.376,63.605,92.003,65.161,95.064z M94.954,90.675c0.866-0.94,1.849-1.655,2.944-2.145
						c1.093-0.488,2.168-0.734,3.228-0.734c3.17,0,5.528,0.791,7.076,2.373c1.547,1.582,2.248,3.197,2.248,3.197
						c0.477,1.1,1.818,1.762,2.981,1.473l13.736-3.428c-1.435-6.25-4.342-11.3-8.719-15.139c-4.379-3.842-10.267-5.762-17.664-5.762
						c-4.529,0-8.568,0.695-12.117,2.09s-6.528,3.389-8.943,5.988c-2.417,2.6-4.247,5.727-5.492,9.377
						c-1.246,3.656-1.869,7.74-1.869,12.26c0,3.918,0.566,7.646,1.698,11.188c1.132,3.543,2.887,6.646,5.266,9.32
						c2.377,2.676,5.377,4.803,9.002,6.385c3.623,1.58,7.963,2.371,13.021,2.371c2.867,0,5.661-0.438,8.379-1.299
						c2.718-0.867,5.209-2.186,7.474-3.955c2.266-1.77,4.246-4.01,5.944-6.725c1.698-2.711,3.16-7.518,3.16-7.518
						c0.349-1.146-0.311-2.354-1.461-2.688l-13.305-3.807c-0.228,1.207-0.719,2.297-1.473,3.276
						c-0.756,0.979-1.604,1.826-2.548,2.541c-0.944,0.72-1.907,1.284-2.889,1.698c-0.98,0.414-1.887,0.619-2.717,0.619
						c-2.943,0-5.342-1.129-7.189-3.389c-1.852-2.262-2.774-5.233-2.774-8.93c0-1.954,0.283-3.648,0.85-5.084
						C93.368,92.807,94.084,91.621,94.954,90.675z M189.329,100.25c-0.188-4.686-0.379-9.461-0.567-14.334
						c-0.189-4.873-0.445-13.507-0.445-13.507c-0.035-1.201-1.049-2.164-2.25-2.137l-18.599,0.404
						c0.229,3.627,0.437,6.763,0.625,9.407c0.189,2.646,0.343,5.176,0.455,7.592c0.113,2.416,0.189,4.91,0.229,7.478
						c0.035,2.57,0.057,5.593,0.057,9.065c0,2.646-0.871,4.74-2.61,6.289c-1.742,1.55-3.822,2.322-6.248,2.322
						c-2.572,0-4.504-0.775-5.791-2.322c-1.289-1.549-1.931-3.418-1.931-5.608c0-3.92,0.181-7.599,0.566-11.442
						c0.379-3.773,0.756-7.25,1.137-10.427c0.455-3.625,1.229-8.268,1.229-8.268c0.196-1.186-0.623-2.146-1.826-2.133l-19.392,0.203
						c-0.53,3.779-0.983,7.554-1.362,11.333c-0.379,3.248-0.699,6.685-0.965,10.312c-0.267,3.625-0.396,6.873-0.396,9.743
						c0,4.078,0.492,7.755,1.478,11.025c0.981,3.271,2.5,6.051,4.543,8.34s4.674,4.051,7.893,5.291
						c3.217,1.234,7.059,1.855,11.525,1.855c1.287,0,2.61-0.17,3.975-0.51c1.361-0.342,2.668-0.813,3.918-1.42
						c1.248-0.604,2.4-1.301,3.463-2.094c0.478-0.355,1.313-1.484,1.998-1.248c0.889,0.313,0.387,2.307,0.387,2.971
						c0,1.201,0.982,2.162,2.187,2.137l17.801-0.398c-0.152-5.555-0.322-10.756-0.512-15.61
						C189.706,109.703,189.516,104.934,189.329,100.25z M271.823,81.186c-1.736-2.672-4.115-4.762-7.133-6.27
						c-3.021-1.506-6.945-2.26-11.775-2.26c-3.625,0-6.737,0.791-9.344,2.373c-0.693,0.422-1.373,0.869-2.025,1.354
						c-0.586,0.435-1.153,0.898-1.684,1.4c-0.396,0.373-0.738,0.943-1.312,1.045c-0.146,0.023-0.299,0.062-0.452,0.047
						c-0.523-0.049-0.668-0.401-0.938-0.791c-0.754-1.094-1.731-2.016-2.818-2.772c-1.889-1.316-4.266-1.977-7.133-1.977
						c-1.436,0-2.795,0.226-4.078,0.678c-1.284,0.451-2.434,1.035-3.452,1.751c-0.861,0.604-1.604,1.334-2.427,1.984
						c-0.403,0.316-0.563,0.756-1.131,0.721c-0.586-0.038-0.502-0.784-0.543-1.184c-0.049-0.474-0.1-0.947-0.147-1.421
						c-0.037-0.347-0.074-0.694-0.109-1.04c-0.123-1.191-1.205-2.144-2.404-2.115l-16.278,0.399c0.227,4.596,0.396,9,0.51,13.221
						c0.114,4.219,0.188,8.49,0.227,12.82c0.037,4.332,0.037,8.908,0,13.729c-0.039,4.82-0.053,13.75-0.053,13.75
						c-0.002,1.199,0.977,2.164,2.176,2.146l15.797-0.27c1.197-0.021,2.199-1.021,2.224-2.215l0.637-31.037
						c0-1.056,0.264-2.127,0.791-3.222c0.527-1.093,1.771-1.64,3.736-1.64c0.905,0,1.623,0.338,2.151,1.02
						c0.525,0.678,0.961,1.582,1.304,2.711c0.34,1.129,0.563,2.428,0.678,3.896c0.113,1.467,0.17,2.994,0.17,4.576
						c0,3.916,0,7.117,0,9.604c0,2.483-0.021,4.649-0.057,6.493c-0.039,1.851-0.097,3.58-0.171,5.199
						c-0.075,1.62-0.143,3.416-0.143,3.416c-0.045,1.196,0.896,2.198,2.096,2.228l18.543,0.401
						c-0.151-1.129-0.282-2.522-0.395-4.181c-0.113-1.655-0.191-3.352-0.229-5.084c-0.037-1.731-0.073-3.39-0.112-4.971
						c-0.039-1.582-0.058-2.861-0.058-3.844c0-7.229,0.304-12.611,0.908-16.154c0.604-3.539,2.188-5.312,4.756-5.312
						c1.584,0,2.812,0.659,3.681,1.979c0.864,1.317,1.303,3.521,1.303,6.608c0,2.938-0.359,6.687-1.076,11.241
						c-0.719,4.559-2.971,14.428-2.971,14.428c-0.267,1.168,0.489,2.244,1.68,2.396l18.672,2.33c0.83-4.67,1.529-9.188,2.096-13.561
						c0.566-4.366,0.851-8.625,0.851-12.77c0-4.441-0.322-8.527-0.963-12.258C274.749,87.061,273.559,83.859,271.823,81.186z
						 M360.883,90.791c-0.645-3.729-1.83-6.932-3.563-9.604c-1.737-2.672-4.116-4.762-7.137-6.27
						c-3.021-1.506-6.942-2.26-11.774-2.26c-3.623,0-6.735,0.791-9.343,2.373c-0.666,0.405-1.314,0.834-1.946,1.295
						c-0.593,0.434-1.161,0.896-1.696,1.396c-0.442,0.414-1.015,1.406-1.715,1.203c-0.5-0.146-0.938-0.701-1.229-1.105
						c-0.718-0.984-1.644-1.813-2.64-2.506c-1.89-1.315-4.268-1.978-7.134-1.978c-1.438,0-2.795,0.227-4.077,0.679
						c-1.282,0.452-2.436,1.036-3.451,1.751c-1.021,0.716-1.853,1.469-2.491,2.259c-0.104,0.127-0.205,0.252-0.317,0.369
						c-0.162,0.168-0.416,0.396-0.671,0.334c-0.288-0.066-0.459-0.498-0.521-0.752c-0.116-0.445-0.127-0.917-0.172-1.374
						c-0.063-0.592-0.121-1.186-0.186-1.777c-0.125-1.193-1.207-2.145-2.403-2.115l-16.276,0.399
						c0.225,4.596,0.396,9.001,0.508,13.221c0.115,4.219,0.188,8.491,0.229,12.821c0.037,4.332,0.037,8.908,0,13.729
						c-0.039,4.82-0.055,13.75-0.055,13.75c-0.002,1.199,0.977,2.164,2.178,2.146l15.8-0.269c1.196-0.021,2.196-1.016,2.223-2.215
						l0.635-31.037c0-1.055,0.267-2.127,0.793-3.221c0.527-1.093,1.773-1.64,3.736-1.64c0.906,0,1.623,0.338,2.15,1.019
						c0.524,0.678,0.963,1.582,1.303,2.711s0.563,2.428,0.68,3.897c0.113,1.47,0.17,2.994,0.17,4.573c0,3.919,0,7.119,0,9.605
						c0,2.482-0.02,4.648-0.057,6.494c-0.039,1.85-0.096,3.578-0.17,5.197c-0.076,1.621-0.146,3.416-0.146,3.416
						c-0.045,1.195,0.896,2.197,2.101,2.229c0.012,0,0.021,0,0.032,0c0.601,0.012,1.197,0.023,1.8,0.039
						c1.293,0.025,2.586,0.057,3.881,0.084c1.582,0.031,3.164,0.066,4.748,0.104c1.494,0.031,2.987,0.063,4.479,0.098
						c0.916,0.021,1.99,0.219,2.892,0.012c0.76-0.176,0.592-0.777,0.569-1.385c-0.024-0.918-0.192-1.814-0.26-2.729
						c-0.109-1.655-0.188-3.352-0.229-5.084c-0.037-1.731-0.074-3.391-0.111-4.971c-0.039-1.582-0.059-2.861-0.059-3.844
						c0-7.229,0.301-12.613,0.905-16.154c0.605-3.541,2.189-5.313,4.756-5.313c1.587,0,2.813,0.662,3.683,1.979
						c0.865,1.316,1.305,3.521,1.305,6.607c0,2.938-0.356,6.688-1.078,11.242c-0.717,4.563-2.969,14.428-2.969,14.428
						c-0.268,1.168,0.486,2.246,1.68,2.396c0.511,0.063,1.019,0.127,1.521,0.189c2.555,0.32,5.104,0.637,7.656,0.955
						c1.618,0.203,3.241,0.373,4.862,0.563c0.984,0.113,1.957,0.332,2.938,0.443c0.606,0.066,1.377,0.375,1.867-0.166
						c0.465-0.52,0.438-1.469,0.545-2.109c0.166-0.967,0.264-1.938,0.344-2.916c0.121-1.494,0.313-2.959,0.523-4.442
						c0.18-1.248,0.344-2.496,0.506-3.746c0.563-4.366,0.85-8.624,0.85-12.769C361.846,98.604,361.524,94.518,360.883,90.791z"/>
				</g>
			</g>
		</g>
	</g>
</g>
</svg>
