<?xml version="1.0" encoding="UTF-8" standalone="no"?>
<svg
   xmlns:dc="http://purl.org/dc/elements/1.1/"
   xmlns:cc="http://creativecommons.org/ns#"
   xmlns:rdf="http://www.w3.org/1999/02/22-rdf-syntax-ns#"
   xmlns:svg="http://www.w3.org/2000/svg"
   xmlns="http://www.w3.org/2000/svg"
   viewBox="0 0 636.01001 466.26001"
   height="466.26001"
   width="636.01001"
   xml:space="preserve"
   version="1.1"
   id="svg2"><metadata
     id="metadata8"><rdf:RDF><cc:Work
         rdf:about=""><dc:format>image/svg+xml</dc:format><dc:type
           rdf:resource="http://purl.org/dc/dcmitype/StillImage" /><dc:title></dc:title></cc:Work></rdf:RDF></metadata><defs
     id="defs6"><clipPath
       id="clipPath16"
       clipPathUnits="userSpaceOnUse"><path
         id="path18"
         d="m 0,373.008 508.808,0 L 508.808,0 0,0 0,373.008 Z" /></clipPath></defs><g
     transform="matrix(1.25,0,0,-1.25,0,466.26)"
     id="g10"><g
       id="g12"><g
         clip-path="url(#clipPath16)"
         id="g14"><g
           transform="translate(500.1109,373.0078)"
           id="g20"><path
             id="path22"
             style="fill:#2b2b2b;fill-opacity:1;fill-rule:nonzero;stroke:none"
             d="m 0,0 -491.413,0 c -4.804,0 -8.698,-3.895 -8.698,-8.698 l 0,-10.595 88.849,0 6.556,0 c 1.041,0 2.669,0.33 5.14,-2.898 2.335,-3.052 17.544,-21.756 18.994,-23.733 1.449,-1.976 4.218,-3.03 8.039,-3.03 l 124.721,0 5.165,0 124.721,0 c 3.822,0 6.589,1.054 8.039,3.03 1.449,1.977 16.658,20.681 18.994,23.733 2.471,3.228 4.1,2.898 5.14,2.898 l 6.556,0 87.894,0 0,10.595 C 8.697,-3.895 4.803,0 0,0" /></g><g
           transform="translate(88.8487,353.7148)"
           id="g24"><path
             id="path26"
             style="fill:#383838;fill-opacity:1;fill-rule:nonzero;stroke:none"
             d="m 0,0 6.556,0 c 1.041,0 2.669,0.33 5.14,-2.898 2.335,-3.052 17.544,-21.756 18.994,-23.733 1.45,-1.976 4.218,-3.03 8.039,-3.03 l 124.722,0 5.164,0 124.721,0 c 3.822,0 6.589,1.054 8.039,3.03 1.45,1.977 16.659,20.681 18.995,23.733 C 322.84,0.33 324.469,0 325.509,0 l 6.556,0 87.894,0 0,-345.017 c 0,-4.803 -3.894,-8.698 -8.697,-8.698 l -491.412,0 c -4.805,0 -8.699,3.895 -8.699,8.698 L -88.849,0 0,0 Z" /></g><g
           transform="translate(115.6016,1.0001)"
           id="g28"><path
             id="path30"
             style="fill:#2d2d2d;fill-opacity:1;fill-rule:nonzero;stroke:none"
             d="m 0,0 0,311.437 c 0,1.007 0.9,1.831 2,1.831 l 271.439,0 c 1.1,0 2,-0.824 2,-1.831 L 275.439,0" /></g><g
           transform="translate(118.4285,1.0001)"
           id="g32"><path
             id="path34"
             style="fill:#383838;fill-opacity:1;fill-rule:nonzero;stroke:none"
             d="m 0,0 0,309.176 c 0,0.999 0.883,1.817 1.963,1.817 l 266.444,0 c 1.08,0 1.963,-0.818 1.963,-1.817 L 270.37,0" /></g><g
           transform="translate(115.6016,115.0469)"
           id="g36"><path
             id="path38"
             style="fill:#2b2b2b;fill-opacity:1;fill-rule:nonzero;stroke:none"
             d="m 0,0 c 0,-20.962 -9.322,-37.955 -30.325,-37.955 -21.002,0 -30.324,16.993 -30.324,37.955 0,20.962 14.007,37.955 30.324,37.955 C -14.008,37.955 0,20.962 0,0" /></g><g
           transform="translate(103.0406,161.2256)"
           id="g40"><path
             id="path42"
             style="fill:#3f3f3f;fill-opacity:1;fill-rule:nonzero;stroke:none"
             d="m 0,0 c -38.583,0 -69.861,31.277 -69.861,69.86 0,38.583 31.278,69.862 69.861,69.862 l 302.215,0 c 38.584,0 69.861,-31.279 69.861,-69.862 C 372.076,31.277 340.799,0 302.215,0 L 0,0 Z" /></g><g
           transform="translate(19.3721,335.4072)"
           id="g44"><path
             id="path46"
             style="fill:#e8e2e9;fill-opacity:1;fill-rule:nonzero;stroke:none"
             d="m 0,0 3.359,0 0,5.41 6.08,-5.41 3.343,0 0,9.05 -3.359,0 0,-5.41 L 3.343,9.05 0,9.05 0,0 Z" /></g><g
           transform="translate(32.5274,335.4072)"
           id="g48"><path
             id="path50"
             style="fill:#e8e2e9;fill-opacity:1;fill-rule:nonzero;stroke:none"
             d="m 0,0 3.359,0 0,4.291 L 8.413,0 12.409,0 6.961,4.657 12.316,9.05 8.32,9.05 3.359,5.039 3.359,9.05 0,9.05 0,0 Z" /></g><g
           transform="translate(18.8121,341.9385)"
           id="g52"><path
             id="path54"
             style="fill:#e8e2e9;fill-opacity:1;fill-rule:nonzero;stroke:none"
             d="m 0,0 0,2.519 -9.796,0 c -1.707,0.03 -2.8,-1.295 -2.8,-2.893 0,-1.597 1.049,-2.924 2.8,-2.892 l 6.204,0 c 0.232,0 0.42,-0.167 0.42,-0.373 0,-0.207 -0.188,-0.374 -0.42,-0.374 l -8.911,0 0,-2.518 9.797,0 c 1.706,-0.031 2.799,1.295 2.799,2.892 0,1.597 -1.049,2.924 -2.799,2.892 l -6.204,0 c -0.232,0 -0.42,0.167 -0.42,0.373 0,0.207 0.188,0.374 0.42,0.374 L 0,0 Z" /></g><g
           transform="translate(403.065,257.9707)"
           id="g56"><path
             id="path58"
             style="fill:#383838;fill-opacity:1;fill-rule:nonzero;stroke:none"
             d="M 0,0 C 14.849,0 26.885,-12.036 26.885,-26.885 26.885,-41.732 14.849,-53.77 0,-53.77 l -297.834,0 c -14.849,0 -26.885,12.038 -26.885,26.885 0,14.849 12.036,26.885 26.885,26.885 L 0,0 Z" /></g><path
           id="path60"
           style="fill:#2d2d2d;fill-opacity:1;fill-rule:nonzero;stroke:none"
           d="m 403.065,204.201 -297.834,0 0,53.77 297.834,0 0,-53.77 z" /><g
           transform="translate(257.4634,324.0537)"
           id="g62"><path
             id="path64"
             style="fill:#494949;fill-opacity:1;fill-rule:nonzero;stroke:none"
             d="m 0,0 124.722,0 c 3.821,0 6.589,1.054 8.039,3.03 1.449,1.977 16.658,20.681 18.994,23.733 2.471,3.228 4.099,2.898 5.14,2.898 l 6.555,0 0,7.315 -28.334,0 c -1.04,0 -2.669,0.329 -5.139,-2.9 -2.335,-3.051 -11.597,-14.76 -13.048,-16.737 -1.45,-1.977 -4.217,-3.031 -8.039,-3.031 l -108.89,0 -5.164,0 -108.89,0 c -3.822,0 -6.59,1.054 -8.04,3.031 -1.449,1.977 -10.712,13.686 -13.047,16.737 -2.471,3.229 -4.099,2.9 -5.139,2.9 l -28.335,0 0,-7.315 6.556,0 c 1.041,0 2.669,0.33 5.141,-2.898 2.335,-3.052 17.544,-21.756 18.993,-23.733 1.45,-1.976 4.218,-3.03 8.04,-3.03 L -5.164,0 0,0 Z" /></g><path
           id="path66"
           style="fill:#494949;fill-opacity:1;fill-rule:nonzero;stroke:none"
           d="m 79.096,361.029 3.361,0 0,-7.315 -3.361,0 0,7.315 z" /><path
           id="path68"
           style="fill:#494949;fill-opacity:1;fill-rule:nonzero;stroke:none"
           d="m 69.542,361.029 3.361,0 0,-7.315 -3.361,0 0,7.315 z" /><path
           id="path70"
           style="fill:#494949;fill-opacity:1;fill-rule:nonzero;stroke:none"
           d="m 59.987,361.029 3.361,0 0,-7.315 -3.361,0 0,7.315 z" /><path
           id="path72"
           style="fill:#494949;fill-opacity:1;fill-rule:nonzero;stroke:none"
           d="m 50.432,361.029 3.361,0 0,-7.315 -3.361,0 0,7.315 z" /><path
           id="path74"
           style="fill:#494949;fill-opacity:1;fill-rule:nonzero;stroke:none"
           d="m 40.878,361.029 3.36,0 0,-7.315 -3.36,0 0,7.315 z" /><path
           id="path76"
           style="fill:#494949;fill-opacity:1;fill-rule:nonzero;stroke:none"
           d="m 31.323,361.029 3.36,0 0,-7.315 -3.36,0 0,7.315 z" /><path
           id="path78"
           style="fill:#494949;fill-opacity:1;fill-rule:nonzero;stroke:none"
           d="m 21.768,361.029 3.361,0 0,-7.315 -3.361,0 0,7.315 z" /><path
           id="path80"
           style="fill:#494949;fill-opacity:1;fill-rule:nonzero;stroke:none"
           d="m 12.213,361.029 3.361,0 0,-7.315 -3.361,0 0,7.315 z" /><path
           id="path82"
           style="fill:#494949;fill-opacity:1;fill-rule:nonzero;stroke:none"
           d="m 0,361.029 6.019,0 0,-7.315 -6.019,0 0,7.315 z" /><path
           id="path84"
           style="fill:#494949;fill-opacity:1;fill-rule:nonzero;stroke:none"
           d="m 429.712,353.715 -3.361,0 0,7.315 3.361,0 0,-7.315 z" /><path
           id="path86"
           style="fill:#494949;fill-opacity:1;fill-rule:nonzero;stroke:none"
           d="m 439.267,353.715 -3.361,0 0,7.315 3.361,0 0,-7.315 z" /><path
           id="path88"
           style="fill:#494949;fill-opacity:1;fill-rule:nonzero;stroke:none"
           d="m 448.822,353.715 -3.361,0 0,7.315 3.361,0 0,-7.315 z" /><path
           id="path90"
           style="fill:#494949;fill-opacity:1;fill-rule:nonzero;stroke:none"
           d="m 458.377,353.715 -3.361,0 0,7.315 3.361,0 0,-7.315 z" /><path
           id="path92"
           style="fill:#494949;fill-opacity:1;fill-rule:nonzero;stroke:none"
           d="m 467.931,353.715 -3.361,0 0,7.315 3.361,0 0,-7.315 z" /><path
           id="path94"
           style="fill:#494949;fill-opacity:1;fill-rule:nonzero;stroke:none"
           d="m 477.486,353.715 -3.36,0 0,7.315 3.36,0 0,-7.315 z" /><path
           id="path96"
           style="fill:#494949;fill-opacity:1;fill-rule:nonzero;stroke:none"
           d="m 487.041,353.715 -3.36,0 0,7.315 3.36,0 0,-7.315 z" /><path
           id="path98"
           style="fill:#494949;fill-opacity:1;fill-rule:nonzero;stroke:none"
           d="m 496.595,353.715 -3.36,0 0,7.315 3.36,0 0,-7.315 z" /><path
           id="path100"
           style="fill:#494949;fill-opacity:1;fill-rule:nonzero;stroke:none"
           d="m 508.808,353.715 -6.019,0 0,7.315 6.019,0 0,-7.315 z" /><g
           transform="translate(266.5533,87.0547)"
           id="g102"><path
             id="path104"
             style="fill:#c19528;fill-opacity:1;fill-rule:nonzero;stroke:none"
             d="m 0,0 0,-4.907 -0.357,0 c -0.42,1.347 -1.057,2.364 -1.91,3.051 -0.841,0.702 -1.351,1.059 -2.357,1.059 -0.955,0 -1.757,-0.302 -2.394,-0.88 -0.65,-0.591 -1.095,-1.402 -1.363,-2.446 -0.267,-1.045 -0.395,-2.117 -0.395,-3.218 0,-1.333 0.141,-2.502 0.434,-3.506 0.292,-1.016 0.763,-1.552 1.413,-2.02 0.65,-0.467 1.172,-0.7 2.064,-0.7 0.318,0 0.636,0.027 0.955,0.095 0.331,0.083 0.586,0.179 0.93,0.317 l 0,3.547 c 0,0.55 -0.039,0.907 -0.103,1.071 -0.076,0.151 -0.216,0.303 -0.433,0.427 -0.216,0.137 -0.484,0.206 -0.802,0.206 l -0.331,0 0,0.371 6.267,0 0,-0.371 C 1.146,-7.945 0.815,-8.015 0.623,-8.124 0.433,-8.221 0.292,-8.399 0.191,-8.646 0.14,-8.784 0.115,-9.1 0.102,-9.608 l -0.026,-3.438 c -0.815,-0.384 -1.566,-0.715 -2.458,-0.921 -0.892,-0.192 -1.821,-0.356 -2.777,-0.356 -1.222,0 -1.999,0.096 -2.802,0.453 -0.815,0.357 -1.516,0.688 -2.139,1.265 -0.612,0.59 -1.096,1.251 -1.452,1.979 -0.433,0.948 -0.662,1.993 -0.662,3.176 0,2.089 0.687,3.849 2.05,5.292 1.349,1.444 3.069,2.158 5.133,2.158 0.942,0 1.783,-0.261 2.662,-0.618 0.624,-0.262 0.993,-0.385 1.108,-0.385 0.178,0 0.331,0.069 0.484,0.206 0.152,0.138 0.293,0.399 0.42,0.797 L 0,0 Z" /></g><g
           transform="translate(243.4234,86.1622)"
           id="g106"><path
             id="path108"
             style="fill:#c19528;fill-opacity:1;fill-rule:nonzero;stroke:none"
             d="m 0,0 c -1.21,-0.015 -2.114,-0.633 -2.738,-1.87 -0.523,-1.004 -0.777,-2.475 -0.777,-4.372 0,-2.268 0.369,-3.973 1.16,-5.045 0.56,-0.756 1.362,-1.114 2.355,-1.114 l 0,-1.058 -0.012,0 c -2.446,0 -4.343,0.839 -5.681,2.515 -1.058,1.321 -1.593,2.887 -1.593,4.702 0,2.035 0.689,3.739 2.064,5.087 1.376,1.361 3.07,2.006 5.082,1.923 L 0,0.768 0,0 Z M 0.025,0 0,0 0,0.768 c 2.102,0.056 3.835,-0.589 5.159,-1.91 1.35,-1.361 2.025,-3.052 2.025,-5.086 0,-1.746 -0.51,-3.272 -1.516,-4.605 C 4.331,-12.579 2.445,-13.459 0,-13.459 l 0,1.058 c 0.675,0 1.261,0.193 1.707,0.523 0.573,0.412 0.942,1.086 1.261,2.007 0.318,0.907 0.534,2.076 0.534,3.547 0,1.759 -0.165,3.065 -0.496,3.931 -0.318,0.88 -0.738,1.485 -1.235,1.856 C 1.261,-0.18 0.675,0 0.025,0" /></g><g
           transform="translate(229.3623,85.9277)"
           id="g110"><path
             id="path112"
             style="fill:#c19528;fill-opacity:1;fill-rule:nonzero;stroke:none"
             d="m 0,0 0,-5.485 0.28,0 c 0.879,0 1.223,0.274 1.617,0.839 0.395,0.549 0.65,1.361 0.752,2.447 l 0.395,0 0,-7.286 -0.395,0 C 2.573,-8.688 2.395,-8.042 2.14,-7.533 1.872,-7.024 1.567,-6.68 1.223,-6.516 0.879,-6.337 0.663,-6.255 0,-6.255 l 0,-4.083 c 0,-0.769 0.039,-1.237 0.103,-1.402 0.063,-0.179 0.177,-0.315 0.355,-0.426 0.179,-0.11 0.459,-0.165 0.866,-0.165 l 0.828,0 c 1.287,0 1.656,0.303 2.433,0.907 0.777,0.591 1.312,1.279 1.656,2.516 l 0.382,0 -0.599,-4.192 -11.323,0 0,0.384 0.472,0 c 0.394,0 0.725,0.069 0.968,0.206 0.178,0.097 0.318,0.261 0.408,0.496 0.076,0.165 0.114,0.59 0.114,1.292 l 0,9.156 c 0,0.618 -0.013,1.003 -0.051,1.154 -0.063,0.233 -0.191,0.426 -0.382,0.55 -0.254,0.192 -0.611,0.288 -1.057,0.288 l -0.472,0 0,0.386 11.617,0 0,-4.111 -0.383,0 C 5.731,-2.296 5.464,-1.581 5.095,-1.141 4.738,-0.701 4.241,-0.385 3.579,-0.179 3.197,-0.055 2.483,0 1.426,0 L 0,0 Z" /></g><g
           transform="translate(214.3081,86.7392)"
           id="g114"><path
             id="path116"
             style="fill:#c19528;fill-opacity:1;fill-rule:nonzero;stroke:none"
             d="m 0,0 7.145,-8.634 0,5.981 c 0,0.838 -0.115,1.402 -0.37,1.69 -0.343,0.399 -0.751,0.592 -1.567,0.577 l 0,0.386 4.318,0 0,-0.386 C 8.915,-0.454 8.813,-0.564 8.61,-0.674 8.393,-0.798 8.227,-0.99 8.113,-1.265 7.998,-1.526 7.935,-1.994 7.935,-2.653 l 0,-11.576 -0.357,0 -9.807,11.576 0,-8.84 c 0,-0.797 0.191,-1.333 0.573,-1.621 0.382,-0.277 0.815,-0.413 1.312,-0.413 l 0.344,0 0,-0.385 -5.146,0 0,0.385 c 0.802,0 1.35,0.164 1.668,0.466 0.307,0.303 0.472,0.826 0.472,1.568 l 0,9.816 -0.319,0.37 c -0.305,0.371 -0.573,0.606 -0.802,0.73 -0.242,0.109 -0.026,0.179 -0.458,0.191 L -4.585,0 0,0 Z" /></g><g
           transform="translate(286.7149,86.1622)"
           id="g118"><path
             id="path120"
             style="fill:#c19528;fill-opacity:1;fill-rule:nonzero;stroke:none"
             d="m 0,0 c -1.21,-0.015 -2.114,-0.633 -2.738,-1.87 -0.523,-1.004 -0.777,-2.475 -0.777,-4.372 0,-2.268 0.369,-3.973 1.159,-5.045 0.56,-0.756 1.363,-1.114 2.356,-1.114 l 0,-1.058 -0.013,0 c -2.445,0 -4.343,0.839 -5.68,2.515 -1.058,1.321 -1.592,2.887 -1.592,4.702 0,2.035 0.688,3.739 2.063,5.087 1.376,1.361 3.07,2.006 5.082,1.923 L 0,0.768 0,0 Z M 0.025,0 0,0 0,0.768 C 2.102,0.824 3.834,0.179 5.159,-1.142 6.521,-2.503 7.196,-4.194 7.196,-6.228 7.196,-7.974 6.687,-9.5 5.681,-10.833 4.331,-12.579 2.445,-13.459 0,-13.459 l 0,1.058 c 0.675,0 1.261,0.193 1.707,0.523 0.573,0.412 0.942,1.086 1.261,2.007 0.318,0.907 0.535,2.076 0.535,3.547 0,1.759 -0.166,3.065 -0.497,3.931 -0.318,0.88 -0.738,1.485 -1.235,1.856 C 1.261,-0.18 0.675,0 0.025,0" /></g><g
           transform="translate(272.6534,85.9277)"
           id="g122"><path
             id="path124"
             style="fill:#c19528;fill-opacity:1;fill-rule:nonzero;stroke:none"
             d="m 0,0 0,-5.485 0.281,0 c 0.879,0 1.223,0.274 1.617,0.839 0.395,0.549 0.65,1.361 0.751,2.447 l 0.395,0 0,-7.286 -0.395,0 C 2.573,-8.688 2.395,-8.042 2.141,-7.533 1.873,-7.024 1.567,-6.68 1.223,-6.516 0.879,-6.337 0.663,-6.255 0,-6.255 l 0,-4.083 c 0,-0.769 0.039,-1.237 0.102,-1.402 0.064,-0.179 0.179,-0.315 0.357,-0.426 0.179,-0.11 0.458,-0.165 0.866,-0.165 l 0.828,0 c 1.286,0 1.656,0.303 2.432,0.907 0.777,0.591 1.312,1.279 1.656,2.516 l 0.382,0 -0.598,-4.192 -11.323,0 0,0.384 0.471,0 c 0.395,0 0.726,0.069 0.969,0.206 0.178,0.097 0.318,0.261 0.407,0.496 0.076,0.165 0.114,0.59 0.114,1.292 l 0,9.156 c 0,0.618 -0.012,1.003 -0.05,1.154 -0.064,0.233 -0.192,0.426 -0.383,0.55 -0.254,0.192 -0.611,0.288 -1.057,0.288 l -0.471,0 0,0.386 11.616,0 0,-4.111 -0.383,0 c -0.203,1.003 -0.47,1.718 -0.84,2.158 -0.356,0.44 -0.853,0.756 -1.516,0.962 C 3.198,-0.055 2.484,0 1.427,0 L 0,0 Z" /></g><g
           transform="translate(252.3902,81.2266)"
           id="g126"><path
             id="path128"
             style="fill:#c19528;fill-opacity:1;fill-rule:evenodd;stroke:none"
             d="m 0,0 0.076,0 c 0.726,0 1.313,-0.618 1.313,-1.361 0,-0.743 -0.587,-1.348 -1.313,-1.348 l -0.076,0 c -0.726,0 -1.311,0.605 -1.311,1.348 C -1.311,-0.618 -0.726,0 0,0" /></g><path
           id="path130"
           style="fill:#282828;fill-opacity:1;fill-rule:nonzero;stroke:none"
           d="m 146.692,204.201 -1.586,0 0,53.77 1.586,0 0,-53.77 z" /><path
           id="path132"
           style="fill:#282828;fill-opacity:1;fill-rule:nonzero;stroke:none"
           d="m 363.136,204.201 -1.586,0 0,53.77 1.586,0 0,-53.77 z" /><path
           id="path134"
           style="fill:#282828;fill-opacity:1;fill-rule:nonzero;stroke:none"
           d="m 403.065,230.357 -297.834,0 0,1.458 297.834,0 0,-1.458 z" /><path
           id="path136"
           style="fill:#282828;fill-opacity:1;fill-rule:nonzero;stroke:none"
           d="m 118.428,257.971 -2.827,0 0,42.977 2.827,0 0,-42.977 z" /><path
           id="path138"
           style="fill:#282828;fill-opacity:1;fill-rule:nonzero;stroke:none"
           d="m 391.041,257.971 -2.242,0 0,42.977 2.242,0 0,-42.977 z" /><path
           id="path140"
           style="fill:#282828;fill-opacity:1;fill-rule:nonzero;stroke:none"
           d="m 391.041,161.225 -2.242,0 0,42.977 2.242,0 0,-42.977 z" /><path
           id="path142"
           style="fill:#282828;fill-opacity:1;fill-rule:nonzero;stroke:none"
           d="m 118.428,161.225 -2.827,0 0,42.977 2.827,0 0,-42.977 z" /><path
           id="path144"
           style="fill:#2d2d2d;fill-opacity:1;fill-rule:nonzero;stroke:none"
           d="m 89.678,102.388 -2.577,0 0,-102.388 2.577,0 0,102.388 z" /><path
           id="path146"
           style="fill:#2d2d2d;fill-opacity:1;fill-rule:nonzero;stroke:none"
           d="m 16.204,89.833 -2.577,0 0,-89.833 2.577,0 0,89.833 z" /><g
           transform="translate(13.6273,89.5366)"
           id="g148"><path
             id="path150"
             style="fill:#2d2d2d;fill-opacity:1;fill-rule:nonzero;stroke:none"
             d="M 0,0 0.99,-2.379 58.439,21.542 57.449,23.92 0,0 Z" /></g><g
           transform="translate(102.0801,118.6055)"
           id="g152"><path
             id="path154"
             style="fill:#383838;fill-opacity:1;fill-rule:nonzero;stroke:none"
             d="m 0,0 c 0,-9.28 -7.523,-16.804 -16.803,-16.804 -9.28,0 -16.803,7.524 -16.803,16.804 0,9.279 7.523,16.803 16.803,16.803 C -7.523,16.803 0,9.279 0,0" /></g><g
           transform="translate(205.3163,361.0387)"
           id="g156"><path
             id="path158"
             style="fill:#212121;fill-opacity:1;fill-rule:nonzero;stroke:none"
             d="m 0,0 -62.488,0 c -0.754,0 -1.372,0.617 -1.372,1.372 0,0.754 0.618,1.372 1.372,1.372 L 0,2.744 C 0.755,2.744 1.372,2.126 1.372,1.372 1.372,0.617 0.755,0 0,0" /></g><g
           transform="translate(292.0264,361.173)"
           id="g160"><path
             id="path162"
             style="fill:#212121;fill-opacity:1;fill-rule:nonzero;stroke:none"
             d="m 0,0 -79.49,0 c -0.755,0 -1.372,0.617 -1.372,1.372 0,0.754 0.617,1.372 1.372,1.372 L 0,2.744 C 0.755,2.744 1.372,2.126 1.372,1.372 1.372,0.617 0.755,0 0,0" /></g><g
           transform="translate(362.353,361.173)"
           id="g164"><path
             id="path166"
             style="fill:#212121;fill-opacity:1;fill-rule:nonzero;stroke:none"
             d="m 0,0 -62.488,0 c -0.754,0 -1.372,0.617 -1.372,1.372 0,0.754 0.618,1.372 1.372,1.372 L 0,2.744 C 0.755,2.744 1.372,2.126 1.372,1.372 1.372,0.617 0.755,0 0,0" /></g><g
           transform="translate(292.0264,353.7243)"
           id="g168"><path
             id="path170"
             style="fill:#212121;fill-opacity:1;fill-rule:nonzero;stroke:none"
             d="m 0,0 -79.49,0 c -0.755,0 -1.372,0.617 -1.372,1.372 0,0.754 0.617,1.372 1.372,1.372 L 0,2.744 C 0.755,2.744 1.372,2.126 1.372,1.372 1.372,0.617 0.755,0 0,0" /></g><g
           transform="translate(292.0264,345.3586)"
           id="g172"><path
             id="path174"
             style="fill:#212121;fill-opacity:1;fill-rule:nonzero;stroke:none"
             d="m 0,0 -79.49,0 c -0.755,0 -1.372,0.617 -1.372,1.372 0,0.754 0.617,1.372 1.372,1.372 L 0,2.744 C 0.755,2.744 1.372,2.126 1.372,1.372 1.372,0.617 0.755,0 0,0" /></g><g
           transform="translate(205.3783,353.4631)"
           id="g176"><path
             id="path178"
             style="fill:#212121;fill-opacity:1;fill-rule:nonzero;stroke:none"
             d="m 0,0 -56.844,0 c -0.721,0 -1.31,0.589 -1.31,1.31 l 0,0.124 c 0,0.72 0.589,1.31 1.31,1.31 L 0,2.744 c 0.72,0 1.31,-0.59 1.31,-1.31 l 0,-0.124 C 1.31,0.589 0.72,0 0,0" /></g><g
           transform="translate(356.6646,353.7243)"
           id="g180"><path
             id="path182"
             style="fill:#212121;fill-opacity:1;fill-rule:nonzero;stroke:none"
             d="m 0,0 -56.844,0 c -0.721,0 -1.31,0.589 -1.31,1.31 l 0,0.124 c 0,0.72 0.589,1.31 1.31,1.31 L 0,2.744 c 0.72,0 1.31,-0.59 1.31,-1.31 l 0,-0.124 C 1.31,0.589 0.72,0 0,0" /></g><g
           transform="translate(350.3323,345.3586)"
           id="g184"><path
             id="path186"
             style="fill:#212121;fill-opacity:1;fill-rule:nonzero;stroke:none"
             d="m 0,0 -50.585,0 c -0.68,0 -1.237,0.557 -1.237,1.237 l 0,0.269 c 0,0.681 0.557,1.238 1.237,1.238 L 0,2.744 c 0.68,0 1.237,-0.557 1.237,-1.238 l 0,-0.269 C 1.237,0.557 0.68,0 0,0" /></g><g
           transform="translate(205.3382,345.3586)"
           id="g188"><path
             id="path190"
             style="fill:#212121;fill-opacity:1;fill-rule:nonzero;stroke:none"
             d="m 0,0 -50.585,0 c -0.68,0 -1.237,0.557 -1.237,1.237 l 0,0.269 c 0,0.681 0.557,1.238 1.237,1.238 L 0,2.744 c 0.68,0 1.237,-0.557 1.237,-1.238 l 0,-0.269 C 1.237,0.557 0.68,0 0,0" /></g></g></g></g></svg>