<?xml version="1.0" encoding="utf-8"?>
<!-- Generator: Adobe Illustrator 19.0.0, SVG Export Plug-In . SVG Version: 6.00 Build 0)  -->
<svg version="1.1" baseProfile="tiny"
	 id="svg2" xmlns:dc="http://purl.org/dc/elements/1.1/" xmlns:cc="http://creativecommons.org/ns#" xmlns:rdf="http://www.w3.org/1999/02/22-rdf-syntax-ns#" xmlns:svg="http://www.w3.org/2000/svg" xmlns:inkscape="http://www.inkscape.org/namespaces/inkscape" xmlns:sodipodi="http://sodipodi.sourceforge.net/DTD/sodipodi-0.dtd" sodipodi:docname="console.svg" inkscape:version="0.91 r13725"
	 xmlns="http://www.w3.org/2000/svg" xmlns:xlink="http://www.w3.org/1999/xlink" x="0px" y="0px" viewBox="254 126.8 1120.9 541.2"
	 xml:space="preserve">
<sodipodi:namedview  objecttolerance="10" borderopacity="1" id="namedview503" bordercolor="#666666" gridtolerance="10" pagecolor="#ffffff" inkscape:cy="270.41714" inkscape:cx="558.9835" fit-margin-top="0" guidetolerance="10" fit-margin-left="0" showgrid="false" inkscape:zoom="0.27099511" inkscape:window-height="480" inkscape:current-layer="svg2" inkscape:window-maximized="0" inkscape:window-y="24" fit-margin-right="0" inkscape:window-x="49" fit-margin-bottom="0" inkscape:window-width="751" inkscape:pageopacity="0" inkscape:pageshadow="2">
	</sodipodi:namedview>
<g>
	<g id="g20" transform="translate(19.3242,318.0833)">
		<path id="path22" inkscape:connector-curvature="0" fill="#D6D4D4" d="M238.5-16.8c-2,0-3.8,1.3-3.8,2.9v361
			c0,1.6,1.7,2.9,3.8,2.9h1112.9c2,0,3.7-1.3,3.7-2.9v-361c0-1.6-1.7-2.9-3.7-2.9L238.5-16.8L238.5-16.8z"/>
	</g>
	<g id="g24" transform="translate(73.5468,246.7069)">
		<path id="path26" inkscape:connector-curvature="0" fill="#E6E6E6" d="M252,143.8H289c2,0,3.6,1.6,3.6,3.7v37.1
			c0,2-1.6,3.7-3.6,3.7H252c-2,0-3.6-1.6-3.6-3.7v-37.1C248.4,145.4,250,143.8,252,143.8"/>
	</g>
	<g id="g28" transform="translate(29.6574,246.1966)">
		<path id="path30" inkscape:connector-curvature="0" fill="#B3B3B3" d="M241.1,144.9h36.5c2,0,3.6,1.6,3.6,3.6v36.5
			c0,2-1.6,3.6-3.6,3.6h-36.5c-2,0-3.6-1.6-3.6-3.6v-36.5C237.5,146.5,239.1,144.9,241.1,144.9"/>
	</g>
	<g id="g32" transform="translate(30.6322,202.3319)">
		<path id="path34" inkscape:connector-curvature="0" fill="#B3B3B3" d="M241.3,243.6h55.5c3,0,5.5,1.6,5.5,3.6v36.9
			c0,2-2.4,3.6-5.5,3.6h-55.5c-3,0-5.5-1.6-5.5-3.6v-36.9C235.8,245.3,238.3,243.6,241.3,243.6"/>
	</g>
	<g id="g36" transform="translate(31.3913,158.0819)">
		<path id="path38" inkscape:connector-curvature="0" fill="#B3B3B3" d="M241.5,343.2h64.7c3.5,0,6.4,1.6,6.4,3.6v36.9
			c0,2-2.8,3.6-6.4,3.6h-64.7c-3.5,0-6.4-1.6-6.4-3.6v-36.9C235.1,344.8,237.9,343.2,241.5,343.2"/>
	</g>
	<g id="g40" transform="translate(57.2572,113.7694)">
		<path id="path42" inkscape:connector-curvature="0" fill="#B3B3B3" d="M248,442.9h55.5c3,0,5.5,1.6,5.5,3.6v36.9
			c0,2-2.4,3.6-5.5,3.6H248c-3,0-5.5-1.6-5.5-3.6v-36.9C242.5,444.5,244.9,442.9,248,442.9"/>
	</g>
	<g id="g44" transform="translate(82.3071,69.4569)">
		<path id="path46" inkscape:connector-curvature="0" fill="#B3B3B3" d="M254.2,542.6h37.1c2,0,3.7,1.6,3.7,3.6v36.9
			c0,2-1.6,3.6-3.7,3.6h-37.1c-2,0-3.7-1.6-3.7-3.6v-36.9C250.6,544.2,252.2,542.6,254.2,542.6"/>
	</g>
	<g id="g48" transform="translate(126.6718,69.5194)">
		<path id="path50" inkscape:connector-curvature="0" fill="#579D1C" d="M265.3,542.5h36.9c2,0,3.6,1.6,3.6,3.6v37
			c0,2-1.6,3.6-3.6,3.6h-36.9c-2,0-3.6-1.6-3.6-3.6v-37C261.7,544.1,263.3,542.5,265.3,542.5"/>
	</g>
	<g id="g52" transform="translate(117.528,246.7069)">
		<path id="path54" inkscape:connector-curvature="0" fill="#E6E6E6" d="M263,143.8H300c2,0,3.6,1.6,3.6,3.7v37.1
			c0,2-1.6,3.7-3.6,3.7H263c-2,0-3.6-1.6-3.6-3.7v-37.1C259.4,145.4,261,143.8,263,143.8"/>
	</g>
	<g id="g56" transform="translate(162.1093,246.7069)">
		<path id="path58" inkscape:connector-curvature="0" fill="#E6E6E6" d="M274.2,143.8h36.9c2,0,3.6,1.6,3.6,3.7v37.1
			c0,2-1.6,3.7-3.6,3.7h-36.9c-2,0-3.6-1.6-3.6-3.7v-37.1C270.5,145.4,272.1,143.8,274.2,143.8"/>
	</g>
	<g id="g60" transform="translate(206.2343,246.7069)">
		<path id="path62" inkscape:connector-curvature="0" fill="#E6E6E6" d="M285.2,143.8h36.9c2,0,3.6,1.6,3.6,3.7v37.1
			c0,2-1.6,3.7-3.6,3.7h-36.9c-2,0-3.6-1.6-3.6-3.7v-37.1C281.6,145.4,283.2,143.8,285.2,143.8"/>
	</g>
	<g id="g64" transform="translate(250.6718,246.7069)">
		<path id="path66" inkscape:connector-curvature="0" fill="#E6E6E6" d="M296.3,143.8h36.9c2,0,3.6,1.6,3.6,3.7v37.1
			c0,2-1.6,3.7-3.6,3.7h-36.9c-2,0-3.6-1.6-3.6-3.7v-37.1C292.7,145.4,294.3,143.8,296.3,143.8"/>
	</g>
	<g id="g68" transform="translate(294.9843,246.7069)">
		<path id="path70" inkscape:connector-curvature="0" fill="#E6E6E6" d="M307.4,143.8h36.9c2,0,3.6,1.6,3.6,3.7v37.1
			c0,2-1.6,3.7-3.6,3.7h-36.9c-2,0-3.6-1.6-3.6-3.7v-37.1C303.7,145.4,305.4,143.8,307.4,143.8"/>
	</g>
	<g id="g72" transform="translate(339.2968,246.7069)">
		<path id="path74" inkscape:connector-curvature="0" fill="#E6E6E6" d="M318.5,143.8h36.9c2,0,3.6,1.6,3.6,3.7v37.1
			c0,2-1.6,3.7-3.6,3.7h-36.9c-2,0-3.6-1.6-3.6-3.7v-37.1C314.8,145.4,316.4,143.8,318.5,143.8"/>
	</g>
	<g id="g76" transform="translate(383.278,246.7069)">
		<path id="path78" inkscape:connector-curvature="0" fill="#E6E6E6" d="M329.5,143.8h36.9c2,0,3.6,1.6,3.6,3.7v37.1
			c0,2-1.6,3.7-3.6,3.7h-36.9c-2,0-3.6-1.6-3.6-3.7v-37.1C325.8,145.4,327.4,143.8,329.5,143.8"/>
	</g>
	<g id="g80" transform="translate(427.8593,246.7069)">
		<path id="path82" inkscape:connector-curvature="0" fill="#E6E6E6" d="M340.6,143.8h36.9c2,0,3.6,1.6,3.6,3.7v37.1
			c0,2-1.6,3.7-3.6,3.7h-36.9c-2,0-3.6-1.6-3.6-3.7v-37.1C337,145.4,338.6,143.8,340.6,143.8"/>
	</g>
	<g id="g84" transform="translate(471.9843,246.7069)">
		<path id="path86" inkscape:connector-curvature="0" fill="#E6E6E6" d="M351.6,143.8h36.9c2,0,3.6,1.6,3.6,3.7v37.1
			c0,2-1.6,3.7-3.6,3.7h-36.9c-2,0-3.6-1.6-3.6-3.7v-37.1C348,145.4,349.6,143.8,351.6,143.8"/>
	</g>
	<g id="g88" transform="translate(516.4218,246.7069)">
		<path id="path90" inkscape:connector-curvature="0" fill="#E6E6E6" d="M362.7,143.8h36.9c2,0,3.6,1.6,3.6,3.7v37.1
			c0,2-1.6,3.7-3.6,3.7h-36.9c-2,0-3.6-1.6-3.6-3.7v-37.1C359.1,145.4,360.7,143.8,362.7,143.8"/>
	</g>
	<g id="g92" transform="translate(560.7343,246.7069)">
		<path id="path94" inkscape:connector-curvature="0" fill="#E6E6E6" d="M373.8,143.8h36.9c2,0,3.6,1.6,3.6,3.7v37.1
			c0,2-1.6,3.7-3.6,3.7h-36.9c-2,0-3.6-1.6-3.6-3.7v-37.1C370.2,145.4,371.8,143.8,373.8,143.8"/>
	</g>
	<g id="g96" transform="translate(604.9843,247.1689)">
		<path id="path98" inkscape:connector-curvature="0" fill="#E6E6E6" d="M384.9,142.8h36.9c2,0,3.6,1.6,3.6,3.7v37.1
			c0,2-1.6,3.7-3.6,3.7h-36.9c-2,0-3.6-1.6-3.6-3.7v-37.1C381.2,144.4,382.9,142.8,384.9,142.8"/>
	</g>
	<g id="g100" transform="translate(649.4609,246.4517)">
		<path id="path102" inkscape:connector-curvature="0" fill="#B3B3B3" d="M396,144.4h36.5c2,0,3.6,1.6,3.6,3.6v36.5
			c0,2-1.6,3.6-3.6,3.6H396c-2,0-3.6-1.6-3.6-3.6V148C392.4,146,394,144.4,396,144.4"/>
	</g>
	<g id="g104" transform="translate(91.1718,202.3576)">
		<path id="path106" inkscape:connector-curvature="0" fill="#E6E6E6" d="M256.4,243.6h36.9c2,0,3.6,1.6,3.6,3.7v37.1
			c0,2-1.6,3.7-3.6,3.7h-36.9c-2,0-3.6-1.6-3.6-3.7v-37.1C252.8,245.2,254.4,243.6,256.4,243.6"/>
	</g>
	<g id="g108" transform="translate(135.7531,202.3576)">
		<path id="path110" inkscape:connector-curvature="0" fill="#E6E6E6" d="M267.6,243.6h36.9c2,0,3.6,1.6,3.6,3.7v37.1
			c0,2-1.6,3.7-3.6,3.7h-36.9c-2,0-3.6-1.6-3.6-3.7v-37.1C263.9,245.2,265.6,243.6,267.6,243.6"/>
	</g>
	<g id="g112" transform="translate(179.8781,202.3576)">
		<path id="path114" inkscape:connector-curvature="0" fill="#E6E6E6" d="M278.6,243.6h36.9c2,0,3.6,1.6,3.6,3.7v37.1
			c0,2-1.6,3.7-3.6,3.7h-36.9c-2,0-3.6-1.6-3.6-3.7v-37.1C275,245.2,276.6,243.6,278.6,243.6"/>
	</g>
	<g id="g116" transform="translate(224.3156,202.3576)">
		<path id="path118" inkscape:connector-curvature="0" fill="#E6E6E6" d="M289.7,243.6h36.9c2,0,3.6,1.6,3.6,3.7v37.1
			c0,2-1.6,3.7-3.6,3.7h-36.9c-2,0-3.6-1.6-3.6-3.7v-37.1C286.1,245.2,287.7,243.6,289.7,243.6"/>
	</g>
	<g id="g120" transform="translate(268.6281,202.3576)">
		<path id="path122" inkscape:connector-curvature="0" fill="#E6E6E6" d="M300.8,243.6h36.9c2,0,3.6,1.6,3.6,3.7v37.1
			c0,2-1.6,3.7-3.6,3.7h-36.9c-2,0-3.6-1.6-3.6-3.7v-37.1C297.2,245.2,298.8,243.6,300.8,243.6"/>
	</g>
	<g id="g124" transform="translate(312.9406,202.3576)">
		<path id="path126" inkscape:connector-curvature="0" fill="#E6E6E6" d="M311.9,243.6h36.9c2,0,3.6,1.6,3.6,3.7v37.1
			c0,2-1.6,3.7-3.6,3.7h-36.9c-2,0-3.6-1.6-3.6-3.7v-37.1C308.2,245.2,309.9,243.6,311.9,243.6"/>
	</g>
	<g id="g128" transform="translate(356.9218,202.3576)">
		<path id="path130" inkscape:connector-curvature="0" fill="#E6E6E6" d="M322.9,243.6h36.9c2,0,3.6,1.6,3.6,3.7v37.1
			c0,2-1.6,3.7-3.6,3.7h-36.9c-2,0-3.6-1.6-3.6-3.7v-37.1C319.2,245.2,320.8,243.6,322.9,243.6"/>
	</g>
	<g id="g132" transform="translate(401.5031,202.3576)">
		<path id="path134" inkscape:connector-curvature="0" fill="#E6E6E6" d="M334,243.6H371c2,0,3.6,1.6,3.6,3.7v37.1
			c0,2-1.6,3.7-3.6,3.7H334c-2,0-3.6-1.6-3.6-3.7v-37.1C330.4,245.2,332,243.6,334,243.6"/>
	</g>
	<g id="g136" transform="translate(445.6281,202.3576)">
		<path id="path138" inkscape:connector-curvature="0" fill="#E6E6E6" d="M345,243.6H382c2,0,3.6,1.6,3.6,3.7v37.1
			c0,2-1.6,3.7-3.6,3.7H345c-2,0-3.6-1.6-3.6-3.7v-37.1C341.4,245.2,343,243.6,345,243.6"/>
	</g>
	<g id="g140" transform="translate(490.0656,202.3576)">
		<path id="path142" inkscape:connector-curvature="0" fill="#E6E6E6" d="M356.2,243.6h36.9c2,0,3.6,1.6,3.6,3.7v37.1
			c0,2-1.6,3.7-3.6,3.7h-36.9c-2,0-3.6-1.6-3.6-3.7v-37.1C352.5,245.2,354.1,243.6,356.2,243.6"/>
	</g>
	<g id="g144" transform="translate(534.3781,202.3576)">
		<path id="path146" inkscape:connector-curvature="0" fill="#E6E6E6" d="M367.2,243.6h36.9c2,0,3.6,1.6,3.6,3.7v37.1
			c0,2-1.6,3.7-3.6,3.7h-36.9c-2,0-3.6-1.6-3.6-3.7v-37.1C363.6,245.2,365.2,243.6,367.2,243.6"/>
	</g>
	<g id="g148" transform="translate(578.6281,202.8196)">
		<path id="path150" inkscape:connector-curvature="0" fill="#E6E6E6" d="M378.3,242.5h36.9c2,0,3.6,1.6,3.6,3.7v37.1
			c0,2-1.6,3.7-3.6,3.7h-36.9c-2,0-3.6-1.6-3.6-3.7v-37.1C374.7,244.2,376.3,242.5,378.3,242.5"/>
	</g>
	<g id="g152" transform="translate(100.0468,158.0507)">
		<path id="path154" inkscape:connector-curvature="0" fill="#E6E6E6" d="M258.6,343.3h36.9c2,0,3.6,1.6,3.6,3.7V384
			c0,2-1.6,3.7-3.6,3.7h-36.9c-2,0-3.6-1.6-3.6-3.7v-37.1C255,344.9,256.6,343.3,258.6,343.3"/>
	</g>
	<g id="g156" transform="translate(144.6281,158.0507)">
		<path id="path158" inkscape:connector-curvature="0" fill="#E6E6E6" d="M269.8,343.3h36.9c2,0,3.6,1.6,3.6,3.7V384
			c0,2-1.6,3.7-3.6,3.7h-36.9c-2,0-3.6-1.6-3.6-3.7v-37.1C266.2,344.9,267.8,343.3,269.8,343.3"/>
	</g>
	<g id="g160" transform="translate(188.7531,158.0507)">
		<path id="path162" inkscape:connector-curvature="0" fill="#E6E6E6" d="M280.8,343.3h36.9c2,0,3.6,1.6,3.6,3.7V384
			c0,2-1.6,3.7-3.6,3.7h-36.9c-2,0-3.6-1.6-3.6-3.7v-37.1C277.2,344.9,278.8,343.3,280.8,343.3"/>
	</g>
	<g id="g164" transform="translate(233.1906,158.0507)">
		<path id="path166" inkscape:connector-curvature="0" fill="#E6E6E6" d="M291.9,343.3h36.9c2,0,3.6,1.6,3.6,3.7V384
			c0,2-1.6,3.7-3.6,3.7h-36.9c-2,0-3.6-1.6-3.6-3.7v-37.1C288.3,344.9,289.9,343.3,291.9,343.3"/>
	</g>
	<g id="g168" transform="translate(277.5031,158.0507)">
		<path id="path170" inkscape:connector-curvature="0" fill="#E6E6E6" d="M303,343.3H340c2,0,3.6,1.6,3.6,3.7V384
			c0,2-1.6,3.7-3.6,3.7H303c-2,0-3.6-1.6-3.6-3.7v-37.1C299.4,344.9,301,343.3,303,343.3"/>
	</g>
	<g id="g172" transform="translate(321.8156,158.0507)">
		<path id="path174" inkscape:connector-curvature="0" fill="#E6E6E6" d="M314.1,343.3H351c2,0,3.6,1.6,3.6,3.7V384
			c0,2-1.6,3.7-3.6,3.7h-36.9c-2,0-3.6-1.6-3.6-3.7v-37.1C310.5,344.9,312.1,343.3,314.1,343.3"/>
	</g>
	<g id="g176" transform="translate(365.7968,158.0507)">
		<path id="path178" inkscape:connector-curvature="0" fill="#E6E6E6" d="M325.1,343.3H362c2,0,3.6,1.6,3.6,3.7V384
			c0,2-1.6,3.7-3.6,3.7h-36.9c-2,0-3.6-1.6-3.6-3.7v-37.1C321.4,344.9,323.1,343.3,325.1,343.3"/>
	</g>
	<g id="g180" transform="translate(410.3781,158.0507)">
		<path id="path182" inkscape:connector-curvature="0" fill="#E6E6E6" d="M336.2,343.3h36.9c2,0,3.6,1.6,3.6,3.7V384
			c0,2-1.6,3.7-3.6,3.7h-36.9c-2,0-3.6-1.6-3.6-3.7v-37.1C332.6,344.9,334.2,343.3,336.2,343.3"/>
	</g>
	<g id="g184" transform="translate(454.5031,158.0507)">
		<path id="path186" inkscape:connector-curvature="0" fill="#E6E6E6" d="M347.3,343.3h36.9c2,0,3.6,1.6,3.6,3.7V384
			c0,2-1.6,3.7-3.6,3.7h-36.9c-2,0-3.6-1.6-3.6-3.7v-37.1C343.6,344.9,345.2,343.3,347.3,343.3"/>
	</g>
	<g id="g188" transform="translate(498.9406,158.0507)">
		<path id="path190" inkscape:connector-curvature="0" fill="#E6E6E6" d="M358.4,343.3h36.9c2,0,3.6,1.6,3.6,3.7V384
			c0,2-1.6,3.7-3.6,3.7h-36.9c-2,0-3.6-1.6-3.6-3.7v-37.1C354.7,344.9,356.4,343.3,358.4,343.3"/>
	</g>
	<g id="g192" transform="translate(543.2531,158.0507)">
		<path id="path194" inkscape:connector-curvature="0" fill="#E6E6E6" d="M369.5,343.3h36.9c2,0,3.6,1.6,3.6,3.7V384
			c0,2-1.6,3.7-3.6,3.7h-36.9c-2,0-3.6-1.6-3.6-3.7v-37.1C365.8,344.9,367.4,343.3,369.5,343.3"/>
	</g>
	<g id="g196" transform="translate(587.5031,158.5127)">
		<path id="path198" inkscape:connector-curvature="0" fill="#E6E6E6" d="M380.5,342.2h36.9c2,0,3.6,1.6,3.6,3.7V383
			c0,2-1.6,3.7-3.6,3.7h-36.9c-2,0-3.6-1.6-3.6-3.7v-37.1C376.9,343.9,378.5,342.2,380.5,342.2"/>
	</g>
	<g id="g200" transform="translate(117.7968,113.8576)">
		<path id="path202" inkscape:connector-curvature="0" fill="#E6E6E6" d="M263.1,442.7H300c2,0,3.6,1.6,3.6,3.7v37.1
			c0,2-1.6,3.7-3.6,3.7h-36.9c-2,0-3.6-1.6-3.6-3.7v-37.1C259.4,444.3,261.1,442.7,263.1,442.7"/>
	</g>
	<g id="g204" transform="translate(162.3781,113.8576)">
		<path id="path206" inkscape:connector-curvature="0" fill="#E6E6E6" d="M274.2,442.7h36.9c2,0,3.6,1.6,3.6,3.7v37.1
			c0,2-1.6,3.7-3.6,3.7h-36.9c-2,0-3.6-1.6-3.6-3.7v-37.1C270.6,444.3,272.2,442.7,274.2,442.7"/>
	</g>
	<g id="g208" transform="translate(206.5031,113.8576)">
		<path id="path210" inkscape:connector-curvature="0" fill="#E6E6E6" d="M285.3,442.7h36.9c2,0,3.6,1.6,3.6,3.7v37.1
			c0,2-1.6,3.7-3.6,3.7h-36.9c-2,0-3.6-1.6-3.6-3.7v-37.1C281.6,444.3,283.2,442.7,285.3,442.7"/>
	</g>
	<g id="g212" transform="translate(250.9406,113.8576)">
		<path id="path214" inkscape:connector-curvature="0" fill="#E6E6E6" d="M296.4,442.7h36.9c2,0,3.6,1.6,3.6,3.7v37.1
			c0,2-1.6,3.7-3.6,3.7h-36.9c-2,0-3.6-1.6-3.6-3.7v-37.1C292.7,444.3,294.4,442.7,296.4,442.7"/>
	</g>
	<g id="g216" transform="translate(295.2531,113.8576)">
		<path id="path218" inkscape:connector-curvature="0" fill="#E6E6E6" d="M307.5,442.7h36.9c2,0,3.6,1.6,3.6,3.7v37.1
			c0,2-1.6,3.7-3.6,3.7h-36.9c-2,0-3.6-1.6-3.6-3.7v-37.1C303.8,444.3,305.4,442.7,307.5,442.7"/>
	</g>
	<g id="g220" transform="translate(339.5656,113.8576)">
		<path id="path222" inkscape:connector-curvature="0" fill="#E6E6E6" d="M318.5,442.7h36.9c2,0,3.6,1.6,3.6,3.7v37.1
			c0,2-1.6,3.7-3.6,3.7h-36.9c-2,0-3.6-1.6-3.6-3.7v-37.1C314.9,444.3,316.5,442.7,318.5,442.7"/>
	</g>
	<g id="g224" transform="translate(383.5468,113.8576)">
		<path id="path226" inkscape:connector-curvature="0" fill="#E6E6E6" d="M329.5,442.7h36.9c2,0,3.6,1.6,3.6,3.7v37.1
			c0,2-1.6,3.7-3.6,3.7h-36.9c-2,0-3.6-1.6-3.6-3.7v-37.1C325.9,444.3,327.5,442.7,329.5,442.7"/>
	</g>
	<g id="g228" transform="translate(428.1281,113.8576)">
		<path id="path230" inkscape:connector-curvature="0" fill="#E6E6E6" d="M340.7,442.7h36.9c2,0,3.6,1.6,3.6,3.7v37.1
			c0,2-1.6,3.7-3.6,3.7h-36.9c-2,0-3.6-1.6-3.6-3.7v-37.1C337,444.3,338.7,442.7,340.7,442.7"/>
	</g>
	<g id="g232" transform="translate(472.2531,113.8576)">
		<path id="path234" inkscape:connector-curvature="0" fill="#E6E6E6" d="M351.7,442.7h36.9c2,0,3.6,1.6,3.6,3.7v37.1
			c0,2-1.6,3.7-3.6,3.7h-36.9c-2,0-3.6-1.6-3.6-3.7v-37.1C348.1,444.3,349.7,442.7,351.7,442.7"/>
	</g>
	<g id="g236" transform="translate(516.6906,113.8576)">
		<path id="path238" inkscape:connector-curvature="0" fill="#E6E6E6" d="M362.8,442.7h36.9c2,0,3.6,1.6,3.6,3.7v37.1
			c0,2-1.6,3.7-3.6,3.7h-36.9c-2,0-3.6-1.6-3.6-3.7v-37.1C359.2,444.3,360.8,442.7,362.8,442.7"/>
	</g>
	<g id="g240" transform="translate(561.0031,113.8576)">
		<path id="path242" inkscape:connector-curvature="0" fill="#E6E6E6" d="M373.9,442.7h36.9c2,0,3.6,1.6,3.6,3.7v37.1
			c0,2-1.6,3.7-3.6,3.7h-36.9c-2,0-3.6-1.6-3.6-3.7v-37.1C370.2,444.3,371.9,442.7,373.9,442.7"/>
	</g>
	<g id="g244" transform="translate(569.5468,69.466)">
		<path id="path246" inkscape:connector-curvature="0" fill="#579D1C" d="M376,542.6H413c2,0,3.6,1.6,3.6,3.6v37
			c0,2-1.6,3.6-3.6,3.6H376c-2,0-3.6-1.6-3.6-3.6v-37C372.4,544.2,374,542.6,376,542.6"/>
	</g>
	<g id="g248" transform="translate(554.726,34.0194)">
		<path id="path250" inkscape:connector-curvature="0" fill="#E6E6E6" d="M372.3,622.3c2,0,3.6-1.6,3.6-3.7v-37.1
			c0-2-1.6-3.7-3.6-3.7h-479.6c-2,0-3.6,1.6-3.6,3.7v37.1c0,2,1.6,3.7,3.6,3.7H372.3z"/>
	</g>
	<g id="g252" transform="translate(606.4447,113.7694)">
		<path id="path254" inkscape:connector-curvature="0" fill="#B3B3B3" d="M385.2,442.9h55.5c3,0,5.5,1.6,5.5,3.6v36.9
			c0,2-2.4,3.6-5.5,3.6h-55.5c-3,0-5.5-1.6-5.5-3.6v-36.9C379.8,444.5,382.2,442.9,385.2,442.9"/>
	</g>
	<g id="g256" transform="translate(678.78,202.319)">
		<path id="path258" inkscape:connector-curvature="0" fill="#B3B3B3" d="M403.3,243.7c2,0,3.6,1.6,3.6,3.6v92.3
			c0,2-1.6,3.6-3.6,3.6h-59.2c-2,0-3.6-1.6-3.6-3.6v-48c0-2-1.6-3.6-3.6-3.6h-3.6c-2,0-3.6-1.6-3.6-3.6v-37.2c0-2,1.6-3.6,3.6-3.6
			L403.3,243.7"/>
	</g>
	<g id="g260" transform="translate(737.7968,290.4463)">
		<path id="path262" inkscape:connector-curvature="0" fill="#E6E6E6" d="M418.1,45.4H455c2,0,3.6,1.6,3.6,3.7v37.1
			c0,2-1.6,3.7-3.6,3.7h-36.9c-2,0-3.6-1.6-3.6-3.7V49C414.4,47,416.1,45.4,418.1,45.4"/>
	</g>
	<g id="g264" transform="translate(782.1093,290.4463)">
		<path id="path266" inkscape:connector-curvature="0" fill="#E6E6E6" d="M429.2,45.4h36.9c2,0,3.6,1.6,3.6,3.7v37.1
			c0,2-1.6,3.7-3.6,3.7h-36.9c-2,0-3.6-1.6-3.6-3.7V49C425.5,47,427.1,45.4,429.2,45.4"/>
	</g>
	<g id="g268" transform="translate(826.3593,290.9084)">
		<path id="path270" inkscape:connector-curvature="0" fill="#E6E6E6" d="M440.2,44.3h36.9c2,0,3.6,1.6,3.6,3.7v37.1
			c0,2-1.6,3.7-3.6,3.7h-36.9c-2,0-3.6-1.6-3.6-3.7V48C436.6,46,438.2,44.3,440.2,44.3"/>
	</g>
	<g id="g272" transform="translate(870.836,290.1911)">
		<path id="path274" inkscape:connector-curvature="0" fill="#B3B3B3" d="M451.3,46h36.5c2,0,3.6,1.6,3.6,3.6v36.5
			c0,2-1.6,3.6-3.6,3.6h-36.5c-2,0-3.6-1.6-3.6-3.6V49.6C447.7,47.6,449.4,46,451.3,46"/>
	</g>
	<g id="g276" transform="translate(737.7968,246.331)">
		<path id="path278" inkscape:connector-curvature="0" fill="#E6E6E6" d="M418.1,144.6H455c2,0,3.6,1.6,3.6,3.7v37.1
			c0,2-1.6,3.7-3.6,3.7h-36.9c-2,0-3.6-1.6-3.6-3.7v-37.1C414.4,146.3,416.1,144.6,418.1,144.6"/>
	</g>
	<g id="g280" transform="translate(782.1093,246.331)">
		<path id="path282" inkscape:connector-curvature="0" fill="#E6E6E6" d="M429.2,144.6h36.9c2,0,3.6,1.6,3.6,3.7v37.1
			c0,2-1.6,3.7-3.6,3.7h-36.9c-2,0-3.6-1.6-3.6-3.7v-37.1C425.5,146.3,427.1,144.6,429.2,144.6"/>
	</g>
	<g id="g284" transform="translate(826.3593,246.793)">
		<path id="path286" inkscape:connector-curvature="0" fill="#E6E6E6" d="M440.2,143.6h36.9c2,0,3.6,1.6,3.6,3.7v37.1
			c0,2-1.6,3.7-3.6,3.7h-36.9c-2,0-3.6-1.6-3.6-3.7v-37.1C436.6,145.2,438.2,143.6,440.2,143.6"/>
	</g>
	<g id="g288" transform="translate(870.836,246.0758)">
		<path id="path290" inkscape:connector-curvature="0" fill="#B3B3B3" d="M451.3,145.2h36.5c2,0,3.6,1.6,3.6,3.6v36.5
			c0,2-1.6,3.6-3.6,3.6h-36.5c-2,0-3.6-1.6-3.6-3.6v-36.5C447.7,146.8,449.4,145.2,451.3,145.2"/>
	</g>
	<g id="g292" transform="translate(737.7968,201.9524)">
		<path id="path294" inkscape:connector-curvature="0" fill="#E6E6E6" d="M418.1,244.5H455c2,0,3.6,1.6,3.6,3.7v37.1
			c0,2-1.6,3.7-3.6,3.7h-36.9c-2,0-3.6-1.6-3.6-3.7v-37.1C414.4,246.1,416.1,244.5,418.1,244.5"/>
	</g>
	<g id="g296" transform="translate(782.1094,201.9524)">
		<path id="path298" inkscape:connector-curvature="0" fill="#E6E6E6" d="M429.2,244.5h36.9c2,0,3.6,1.6,3.6,3.7v37.1
			c0,2-1.6,3.7-3.6,3.7h-36.9c-2,0-3.6-1.6-3.6-3.7v-37.1C425.5,246.1,427.1,244.5,429.2,244.5"/>
	</g>
	<g id="g300" transform="translate(826.3594,202.4145)">
		<path id="path302" inkscape:connector-curvature="0" fill="#E6E6E6" d="M440.2,243.5h36.9c2,0,3.6,1.6,3.6,3.7v37.1
			c0,2-1.6,3.7-3.6,3.7h-36.9c-2,0-3.6-1.6-3.6-3.7v-37.1C436.6,245.1,438.2,243.5,440.2,243.5"/>
	</g>
	<g id="g304" transform="translate(870.836,201.6973)">
		<path id="path306" inkscape:connector-curvature="0" fill="#B3B3B3" d="M451.3,245.1h36.5c2,0,3.6,1.6,3.6,3.6v36.5
			c0,2-1.6,3.6-3.6,3.6h-36.5c-2,0-3.6-1.6-3.6-3.6v-36.5C447.7,246.7,449.4,245.1,451.3,245.1"/>
	</g>
	<g id="g308" transform="translate(738.0201,157.9134)">
		<path id="path310" inkscape:connector-curvature="0" fill="#E6E6E6" d="M418.1,343.6h36.9c2,0,3.6,1.6,3.6,3.7v37.1
			c0,2-1.6,3.7-3.6,3.7h-36.9c-2,0-3.6-1.6-3.6-3.7v-37.1C414.5,345.2,416.1,343.6,418.1,343.6"/>
	</g>
	<g id="g312" transform="translate(782.3326,157.9134)">
		<path id="path314" inkscape:connector-curvature="0" fill="#E6E6E6" d="M429.2,343.6h36.9c2,0,3.6,1.6,3.6,3.7v37.1
			c0,2-1.6,3.7-3.6,3.7h-36.9c-2,0-3.6-1.6-3.6-3.7v-37.1C425.6,345.2,427.2,343.6,429.2,343.6"/>
	</g>
	<g id="g316" transform="translate(826.5826,158.3754)">
		<path id="path318" inkscape:connector-curvature="0" fill="#E6E6E6" d="M440.3,342.5h36.9c2,0,3.6,1.6,3.6,3.7v37.1
			c0,2-1.6,3.7-3.6,3.7h-36.9c-2,0-3.6-1.6-3.6-3.7v-37.1C436.6,344.2,438.3,342.5,440.3,342.5"/>
	</g>
	<g id="g320" transform="translate(871.0592,157.6582)">
		<path id="path322" inkscape:connector-curvature="0" fill="#B3B3B3" d="M451.4,344.2h36.5c2,0,3.6,1.6,3.6,3.6v36.5
			c0,2-1.6,3.6-3.6,3.6h-36.5c-2,0-3.6-1.6-3.6-3.6v-36.5C447.8,345.8,449.4,344.2,451.4,344.2"/>
	</g>
	<g id="g324" transform="translate(678.8832,290.9569)">
		<path id="path326" inkscape:connector-curvature="0" fill="#B3B3B3" d="M403.4,44.2c2,0,3.6-1.6,3.6-3.6v-15c0-2-1.6-3.6-3.6-3.6
			h-59.2c-2,0-3.6,1.6-3.6,3.6v15c0,2,1.6,3.6,3.6,3.6H403.4z"/>
	</g>
	<g id="g328" transform="translate(621.3207,290.9569)">
		<path id="path330" inkscape:connector-curvature="0" fill="#B3B3B3" d="M389,44.2c2,0,3.6-1.6,3.6-3.6v-15c0-2-1.6-3.6-3.6-3.6
			h-59.2c-2,0-3.6,1.6-3.6,3.6v15c0,2,1.6,3.6,3.6,3.6H389z"/>
	</g>
	<g id="g332" transform="translate(563.7581,290.9569)">
		<path id="path334" inkscape:connector-curvature="0" fill="#B3B3B3" d="M374.6,44.2c2,0,3.6-1.6,3.6-3.6v-15c0-2-1.6-3.6-3.6-3.6
			h-59.2c-2,0-3.6,1.6-3.6,3.6v15c0,2,1.6,3.6,3.6,3.6H374.6z"/>
	</g>
	<g id="g336" transform="translate(506.1331,290.9569)">
		<path id="path338" inkscape:connector-curvature="0" fill="#B3B3B3" d="M360.2,44.2c2,0,3.6-1.6,3.6-3.6v-15c0-2-1.6-3.6-3.6-3.6
			H301c-2,0-3.6,1.6-3.6,3.6v15c0,2,1.6,3.6,3.6,3.6H360.2z"/>
	</g>
	<g id="g340" transform="translate(448.6331,290.9569)">
		<path id="path342" inkscape:connector-curvature="0" fill="#FF0000" d="M345.8,44.2c2,0,3.6-1.6,3.6-3.6v-15c0-2-1.6-3.6-3.6-3.6
			h-59.2c-2,0-3.6,1.6-3.6,3.6v15c0,2,1.6,3.6,3.6,3.6H345.8z"/>
	</g>
	<g id="g344" transform="translate(306.8831,291.0768)">
		<path id="path346" inkscape:connector-curvature="0" fill="#B3B3B3" d="M310.4,44c2,0,3.6-1.6,3.6-3.6v-15c0-2-1.6-3.6-3.6-3.6
			h-59.2c-2,0-3.6,1.6-3.6,3.6v15c0,2,1.6,3.6,3.6,3.6H310.4z"/>
	</g>
	<g id="g348" transform="translate(249.2853,290.9569)">
		<path id="path350" inkscape:connector-curvature="0" fill="#B3B3B3" d="M296,44.2c2,0,3.6-1.6,3.6-3.6v-15c0-2-1.6-3.6-3.6-3.6
			h-59.2c-2,0-3.6,1.6-3.6,3.6v15c0,2,1.6,3.6,3.6,3.6H296z"/>
	</g>
	<g id="g352" transform="translate(191.6331,290.9569)">
		<path id="path354" inkscape:connector-curvature="0" fill="#B3B3B3" d="M281.5,44.2c2,0,3.6-1.6,3.6-3.6v-15c0-2-1.6-3.6-3.6-3.6
			h-59.2c-2,0-3.6,1.6-3.6,3.6v15c0,2,1.6,3.6,3.6,3.6H281.5z"/>
	</g>
	<g id="g356" transform="translate(134.1331,290.9487)">
		<path id="path358" inkscape:connector-curvature="0" fill="#B3B3B3" d="M267.2,44.2c2,0,3.6-1.6,3.6-3.6v-15c0-2-1.6-3.6-3.6-3.6
			H208c-2,0-3.6,1.6-3.6,3.6v15c0,2,1.6,3.6,3.6,3.6H267.2z"/>
	</g>
	<g id="g360" transform="translate(76.5353,290.9487)">
		<path id="path362" inkscape:connector-curvature="0" fill="#B3B3B3" d="M252.8,44.2c2,0,3.6-1.6,3.6-3.6v-15c0-2-1.6-3.6-3.6-3.6
			h-59.2c-2,0-3.6,1.6-3.6,3.6v15c0,2,1.6,3.6,3.6,3.6H252.8z"/>
	</g>
	<g id="g364" transform="translate(770.3863,34.0819)">
		<path id="path366" inkscape:connector-curvature="0" fill="#2323DC" d="M426.2,622.2l11.1-49.8l-11.1-49.9h-40.8
			c-2,0-3.6,1.6-3.6,3.6v92.6c0,2,1.6,3.6,3.6,3.6L426.2,622.2z"/>
	</g>
	<g id="g368" transform="translate(739.3863,73.9385)">
		<g id="path370">
			<path fill="#FFFFFF" d="M430,544.6l-12.1-12.1l12.1-12.1V544.6z M419,532.5l10.1,10.1v-20.3L419,532.5z"/>
		</g>
	</g>
	<g id="g372" transform="translate(867.8239,113.8135)">
		<path id="path374" inkscape:connector-curvature="0" fill="#2323DC" d="M450.6,442.8l-11.1,49.8l11.1,49.9h40.8
			c2,0,3.6-1.6,3.6-3.6v-92.6c0-2-1.6-3.6-3.6-3.6L450.6,442.8z"/>
	</g>
	<g id="g376" transform="translate(898.8239,73.9569)">
		<g id="path378">
			<path fill="#FFFFFF" d="M446.8,544.5v-24.1l12.1,12.1L446.8,544.5z M447.6,522.4v20.3l10.1-10.1L447.6,522.4z"/>
		</g>
	</g>
	<g id="g380" transform="translate(779.4221,113.8576)">
		<path id="path382" inkscape:connector-curvature="0" fill="#2323DC" d="M428.5,442.7h99.7l-11.1,44.4h-77.5L428.5,442.7z"/>
	</g>
	<g id="g384" transform="translate(810.4221,100.4826)">
		<g id="path386">
			<path fill="#FFFFFF" d="M459.4,473.2h-24.1l12.1-12.1L459.4,473.2z M437.2,472.4h20.3l-10.1-10.1L437.2,472.4z"/>
		</g>
	</g>
	<g id="g388" transform="translate(859.1721,34.0194)">
		<path id="path390" inkscape:connector-curvature="0" fill="#2323DC" d="M448.4,622.3h-99.7l11.1-44.4h77.5L448.4,622.3z"/>
	</g>
	<g id="g392" transform="translate(828.1721,47.3944)">
		<g id="path394">
			<path fill="#FFFFFF" d="M429.6,603.9l-12.1-12.1h24.1L429.6,603.9z M419.5,592.6l10.1,10.1l10.1-10.1H419.5z"/>
		</g>
	</g>
	<g id="g396" transform="translate(19.6992,457.628)">
		<path id="path398" inkscape:connector-curvature="0" fill="#D6D4D4" d="M238.6-330.8c-2,0-3.8,0.6-3.8,1.3v160.7
			c0,0.7,1.7,1.3,3.8,1.3h1112.9c2,0,3.7-0.6,3.7-1.3v-160.7c0-0.7-1.7-1.3-3.7-1.3L238.6-330.8L238.6-330.8z"/>
	</g>
	<g id="g400" transform="translate(630.2924,382.8706)">
		<path id="path402" inkscape:connector-curvature="0" fill="#B7B7B7" d="M391.2-162.6c-1.1,0-2.1,0.9-2.1,2.1v41.1
			c0,1.1,0.9,2.1,2.1,2.1h246.1c1.1,0,2.1-0.9,2.1-2.1v-41.1c0-1.1-0.9-2.1-2.1-2.1H391.2z"/>
	</g>
	<g id="g404" transform="translate(638.3494,375.2886)">
		<g id="path406">
			<path fill="#545353" d="M573.2-118.7h-180c-1.1,0-2.1-0.9-2.1-2.1v-23.2c0-1.1,0.9-2.1,2.1-2.1h180c1.1,0,2.1,0.9,2.1,2.1v23.2
				C575.3-119.6,574.4-118.7,573.2-118.7z M393.2-145c-0.6,0-1.1,0.5-1.1,1.1v23.2c0,0.6,0.5,1.1,1.1,1.1h180c0.6,0,1.1-0.5,1.1-1.1
				v-23.2c0-0.6-0.5-1.1-1.1-1.1H393.2z"/>
		</g>
	</g>
	<g id="g408" transform="translate(809.0374,374.7806)">
		<path id="path410" inkscape:connector-curvature="0" fill="#4F4D4D" d="M435.9-144.4c6.9,0,12.5,5.6,12.5,12.5
			c0,6.9-5.6,12.5-12.5,12.5c-6.9,0-12.5-5.6-12.5-12.5C423.4-138.8,429-144.4,435.9-144.4"/>
	</g>
	<g id="path412">
		<rect x="1055.7" y="233.6" fill="#545353" width="1.5" height="18.6"/>
	</g>
	<g id="path414">
		<rect x="1186.8" y="233.6" fill="#545353" width="1.5" height="18.6"/>
	</g>
	<g id="g416" transform="translate(630.2924,436.3661)">
		<path id="path418" inkscape:connector-curvature="0" fill="#B7B7B7" d="M391.2-282.9c-1.1,0-2.1,0.9-2.1,2.1v41.1
			c0,1.1,0.9,2.1,2.1,2.1h246.1c1.1,0,2.1-0.9,2.1-2.1v-41.1c0-1.1-0.9-2.1-2.1-2.1H391.2z"/>
	</g>
	<g id="g420" transform="translate(638.3494,428.7841)">
		<g id="path422">
			<path fill="#545353" d="M573.2-239.1h-180c-1.1,0-2.1-0.9-2.1-2.1v-23.2c0-1.1,0.9-2.1,2.1-2.1h180c1.1,0,2.1,0.9,2.1,2.1v23.2
				C575.3-240,574.4-239.1,573.2-239.1z M393.2-265.4c-0.6,0-1.1,0.5-1.1,1.1v23.2c0,0.6,0.5,1.1,1.1,1.1h180c0.6,0,1.1-0.5,1.1-1.1
				v-23.2c0-0.6-0.5-1.1-1.1-1.1H393.2z"/>
		</g>
	</g>
	<g id="g424" transform="translate(809.0374,428.2761)">
		<path id="path426" inkscape:connector-curvature="0" fill="#4F4D4D" d="M435.9-264.7c6.9,0,12.5,5.6,12.5,12.5
			c0,6.9-5.6,12.5-12.5,12.5c-6.9,0-12.5-5.6-12.5-12.5C423.4-259.1,429-264.7,435.9-264.7"/>
	</g>
	<g id="path428">
		<rect x="1055.7" y="166.7" fill="#545353" width="1.5" height="18.6"/>
	</g>
	<g id="path430">
		<rect x="1186.8" y="166.7" fill="#545353" width="1.5" height="18.6"/>
	</g>
	<g id="g432" transform="translate(102.8841,425.1224)">
		<path id="path434" inkscape:connector-curvature="0" fill="#515050" d="M259.4-257.6c-0.7,0-1.2,1-1.2,2.1v3.3
			c0,1.1,0.6,2.1,1.2,2.1h5.8c0.7,0,1.2-0.9,1.2-2.1v-3.3c0-1.1-0.6-2.1-1.2-2.1H259.4z"/>
	</g>
	<g id="g436" transform="translate(102.8841,414.8724)">
		<path id="path438" inkscape:connector-curvature="0" fill="#515050" d="M259.4-234.6c-0.7,0-1.2,1-1.2,2.1v3.3
			c0,1.1,0.6,2.1,1.2,2.1h5.8c0.7,0,1.2-0.9,1.2-2.1v-3.3c0-1.1-0.6-2.1-1.2-2.1H259.4z"/>
	</g>
	<g id="g440" transform="translate(102.8841,404.6224)">
		<path id="path442" inkscape:connector-curvature="0" fill="#515050" d="M259.4-211.5c-0.7,0-1.2,1-1.2,2.1v3.3
			c0,1.1,0.6,2.1,1.2,2.1h5.8c0.7,0,1.2-0.9,1.2-2.1v-3.3c0-1.1-0.6-2.1-1.2-2.1H259.4z"/>
	</g>
	<g id="g444" transform="translate(102.8841,394.3724)">
		<path id="path446" inkscape:connector-curvature="0" fill="#515050" d="M259.4-188.5c-0.7,0-1.2,1-1.2,2.1v3.3
			c0,1.1,0.6,2.1,1.2,2.1h5.8c0.7,0,1.2-0.9,1.2-2.1v-3.3c0-1.1-0.6-2.1-1.2-2.1H259.4z"/>
	</g>
	<g id="g448" transform="translate(102.8841,384.1224)">
		<path id="path450" inkscape:connector-curvature="0" fill="#515050" d="M259.4-165.4c-0.7,0-1.2,1-1.2,2.1v3.3
			c0,1.1,0.6,2.1,1.2,2.1h5.8c0.7,0,1.2-0.9,1.2-2.1v-3.3c0-1.1-0.6-2.1-1.2-2.1H259.4z"/>
	</g>
	<g id="g452" transform="translate(102.8841,373.8724)">
		<path id="path454" inkscape:connector-curvature="0" fill="#515050" d="M259.4-142.3c-0.7,0-1.2,1-1.2,2.1v3.3
			c0,1.1,0.6,2.1,1.2,2.1h5.8c0.7,0,1.2-0.9,1.2-2.1v-3.3c0-1.1-0.6-2.1-1.2-2.1H259.4z"/>
	</g>
	<g id="g456" transform="translate(102.8841,363.6224)">
		<path id="path458" inkscape:connector-curvature="0" fill="#515050" d="M259.4-119.3c-0.7,0-1.2,1-1.2,2.1v3.3
			c0,1.1,0.6,2.1,1.2,2.1h5.8c0.7,0,1.2-0.9,1.2-2.1v-3.3c0-1.1-0.6-2.1-1.2-2.1H259.4z"/>
	</g>
	<g id="g460" transform="translate(113.3841,425.1224)">
		<path id="path462" inkscape:connector-curvature="0" fill="#515050" d="M262-257.6c-0.7,0-1.2,1-1.2,2.1v3.3
			c0,1.1,0.6,2.1,1.2,2.1h5.8c0.7,0,1.2-0.9,1.2-2.1v-3.3c0-1.1-0.6-2.1-1.2-2.1H262z"/>
	</g>
	<g id="g464" transform="translate(113.3841,414.8724)">
		<path id="path466" inkscape:connector-curvature="0" fill="#515050" d="M262-234.6c-0.7,0-1.2,1-1.2,2.1v3.3
			c0,1.1,0.6,2.1,1.2,2.1h5.8c0.7,0,1.2-0.9,1.2-2.1v-3.3c0-1.1-0.6-2.1-1.2-2.1H262z"/>
	</g>
	<g id="g468" transform="translate(113.3841,404.6224)">
		<path id="path470" inkscape:connector-curvature="0" fill="#515050" d="M262-211.5c-0.7,0-1.2,1-1.2,2.1v3.3
			c0,1.1,0.6,2.1,1.2,2.1h5.8c0.7,0,1.2-0.9,1.2-2.1v-3.3c0-1.1-0.6-2.1-1.2-2.1H262z"/>
	</g>
	<g id="g472" transform="translate(113.3841,394.3724)">
		<path id="path474" inkscape:connector-curvature="0" fill="#515050" d="M262-188.5c-0.7,0-1.2,1-1.2,2.1v3.3
			c0,1.1,0.6,2.1,1.2,2.1h5.8c0.7,0,1.2-0.9,1.2-2.1v-3.3c0-1.1-0.6-2.1-1.2-2.1H262z"/>
	</g>
	<g id="g476" transform="translate(113.3841,384.1224)">
		<path id="path478" inkscape:connector-curvature="0" fill="#515050" d="M262-165.4c-0.7,0-1.2,1-1.2,2.1v3.3
			c0,1.1,0.6,2.1,1.2,2.1h5.8c0.7,0,1.2-0.9,1.2-2.1v-3.3c0-1.1-0.6-2.1-1.2-2.1H262z"/>
	</g>
	<g id="g480" transform="translate(113.3841,373.8724)">
		<path id="path482" inkscape:connector-curvature="0" fill="#515050" d="M262-142.3c-0.7,0-1.2,1-1.2,2.1v3.3
			c0,1.1,0.6,2.1,1.2,2.1h5.8c0.7,0,1.2-0.9,1.2-2.1v-3.3c0-1.1-0.6-2.1-1.2-2.1H262z"/>
	</g>
	<g id="g484" transform="translate(113.3841,363.6224)">
		<path id="path486" inkscape:connector-curvature="0" fill="#515050" d="M262-119.3c-0.7,0-1.2,1-1.2,2.1v3.3
			c0,1.1,0.6,2.1,1.2,2.1h5.8c0.7,0,1.2-0.9,1.2-2.1v-3.3c0-1.1-0.6-2.1-1.2-2.1H262z"/>
	</g>
	<g id="g488" transform="translate(123.8841,425.1224)">
		<path id="path490" inkscape:connector-curvature="0" fill="#515050" d="M264.6-257.6c-0.7,0-1.2,1-1.2,2.1v3.3
			c0,1.1,0.6,2.1,1.2,2.1h5.8c0.7,0,1.2-0.9,1.2-2.1v-3.3c0-1.1-0.6-2.1-1.2-2.1H264.6z"/>
	</g>
	<g id="g492" transform="translate(123.8841,414.8724)">
		<path id="path494" inkscape:connector-curvature="0" fill="#515050" d="M264.6-234.6c-0.7,0-1.2,1-1.2,2.1v3.3
			c0,1.1,0.6,2.1,1.2,2.1h5.8c0.7,0,1.2-0.9,1.2-2.1v-3.3c0-1.1-0.6-2.1-1.2-2.1H264.6z"/>
	</g>
	<g id="g496" transform="translate(123.8841,404.6224)">
		<path id="path498" inkscape:connector-curvature="0" fill="#515050" d="M264.6-211.5c-0.7,0-1.2,1-1.2,2.1v3.3
			c0,1.1,0.6,2.1,1.2,2.1h5.8c0.7,0,1.2-0.9,1.2-2.1v-3.3c0-1.1-0.6-2.1-1.2-2.1H264.6z"/>
	</g>
	<g id="g500" transform="translate(123.8841,394.3724)">
		<path id="path502" inkscape:connector-curvature="0" fill="#515050" d="M264.6-188.5c-0.7,0-1.2,1-1.2,2.1v3.3
			c0,1.1,0.6,2.1,1.2,2.1h5.8c0.7,0,1.2-0.9,1.2-2.1v-3.3c0-1.1-0.6-2.1-1.2-2.1H264.6z"/>
	</g>
	<g id="g504" transform="translate(123.8841,384.1224)">
		<path id="path506" inkscape:connector-curvature="0" fill="#515050" d="M264.6-165.4c-0.7,0-1.2,1-1.2,2.1v3.3
			c0,1.1,0.6,2.1,1.2,2.1h5.8c0.7,0,1.2-0.9,1.2-2.1v-3.3c0-1.1-0.6-2.1-1.2-2.1H264.6z"/>
	</g>
	<g id="g508" transform="translate(123.8841,373.8724)">
		<path id="path510" inkscape:connector-curvature="0" fill="#515050" d="M264.6-142.3c-0.7,0-1.2,1-1.2,2.1v3.3
			c0,1.1,0.6,2.1,1.2,2.1h5.8c0.7,0,1.2-0.9,1.2-2.1v-3.3c0-1.1-0.6-2.1-1.2-2.1H264.6z"/>
	</g>
	<g id="g512" transform="translate(123.8841,363.6224)">
		<path id="path514" inkscape:connector-curvature="0" fill="#515050" d="M264.6-119.3c-0.7,0-1.2,1-1.2,2.1v3.3
			c0,1.1,0.6,2.1,1.2,2.1h5.8c0.7,0,1.2-0.9,1.2-2.1v-3.3c0-1.1-0.6-2.1-1.2-2.1H264.6z"/>
	</g>
	<g id="g516" transform="translate(134.3841,425.1224)">
		<path id="path518" inkscape:connector-curvature="0" fill="#515050" d="M267.2-257.6c-0.7,0-1.2,1-1.2,2.1v3.3
			c0,1.1,0.6,2.1,1.2,2.1h5.8c0.7,0,1.2-0.9,1.2-2.1v-3.3c0-1.1-0.6-2.1-1.2-2.1H267.2z"/>
	</g>
	<g id="g520" transform="translate(134.3841,414.8724)">
		<path id="path522" inkscape:connector-curvature="0" fill="#515050" d="M267.2-234.6c-0.7,0-1.2,1-1.2,2.1v3.3
			c0,1.1,0.6,2.1,1.2,2.1h5.8c0.7,0,1.2-0.9,1.2-2.1v-3.3c0-1.1-0.6-2.1-1.2-2.1H267.2z"/>
	</g>
	<g id="g524" transform="translate(134.3841,404.6224)">
		<path id="path526" inkscape:connector-curvature="0" fill="#515050" d="M267.2-211.5c-0.7,0-1.2,1-1.2,2.1v3.3
			c0,1.1,0.6,2.1,1.2,2.1h5.8c0.7,0,1.2-0.9,1.2-2.1v-3.3c0-1.1-0.6-2.1-1.2-2.1H267.2z"/>
	</g>
	<g id="g528" transform="translate(134.3841,394.3724)">
		<path id="path530" inkscape:connector-curvature="0" fill="#515050" d="M267.2-188.5c-0.7,0-1.2,1-1.2,2.1v3.3
			c0,1.1,0.6,2.1,1.2,2.1h5.8c0.7,0,1.2-0.9,1.2-2.1v-3.3c0-1.1-0.6-2.1-1.2-2.1H267.2z"/>
	</g>
	<g id="g532" transform="translate(134.3841,384.1224)">
		<path id="path534" inkscape:connector-curvature="0" fill="#515050" d="M267.2-165.4c-0.7,0-1.2,1-1.2,2.1v3.3
			c0,1.1,0.6,2.1,1.2,2.1h5.8c0.7,0,1.2-0.9,1.2-2.1v-3.3c0-1.1-0.6-2.1-1.2-2.1H267.2z"/>
	</g>
	<g id="g536" transform="translate(134.3841,373.8724)">
		<path id="path538" inkscape:connector-curvature="0" fill="#515050" d="M267.2-142.3c-0.7,0-1.2,1-1.2,2.1v3.3
			c0,1.1,0.6,2.1,1.2,2.1h5.8c0.7,0,1.2-0.9,1.2-2.1v-3.3c0-1.1-0.6-2.1-1.2-2.1H267.2z"/>
	</g>
	<g id="g540" transform="translate(134.3841,363.6224)">
		<path id="path542" inkscape:connector-curvature="0" fill="#515050" d="M267.2-119.3c-0.7,0-1.2,1-1.2,2.1v3.3
			c0,1.1,0.6,2.1,1.2,2.1h5.8c0.7,0,1.2-0.9,1.2-2.1v-3.3c0-1.1-0.6-2.1-1.2-2.1H267.2z"/>
	</g>
	<g id="g544" transform="translate(144.8841,425.1224)">
		<path id="path546" inkscape:connector-curvature="0" fill="#515050" d="M269.9-257.6c-0.7,0-1.2,1-1.2,2.1v3.3
			c0,1.1,0.6,2.1,1.2,2.1h5.8c0.7,0,1.2-0.9,1.2-2.1v-3.3c0-1.1-0.6-2.1-1.2-2.1H269.9z"/>
	</g>
	<g id="g548" transform="translate(144.8841,414.8724)">
		<path id="path550" inkscape:connector-curvature="0" fill="#515050" d="M269.9-234.6c-0.7,0-1.2,1-1.2,2.1v3.3
			c0,1.1,0.6,2.1,1.2,2.1h5.8c0.7,0,1.2-0.9,1.2-2.1v-3.3c0-1.1-0.6-2.1-1.2-2.1H269.9z"/>
	</g>
	<g id="g552" transform="translate(144.8841,404.6224)">
		<path id="path554" inkscape:connector-curvature="0" fill="#515050" d="M269.9-211.5c-0.7,0-1.2,1-1.2,2.1v3.3
			c0,1.1,0.6,2.1,1.2,2.1h5.8c0.7,0,1.2-0.9,1.2-2.1v-3.3c0-1.1-0.6-2.1-1.2-2.1H269.9z"/>
	</g>
	<g id="g556" transform="translate(144.8841,394.3724)">
		<path id="path558" inkscape:connector-curvature="0" fill="#515050" d="M269.9-188.5c-0.7,0-1.2,1-1.2,2.1v3.3
			c0,1.1,0.6,2.1,1.2,2.1h5.8c0.7,0,1.2-0.9,1.2-2.1v-3.3c0-1.1-0.6-2.1-1.2-2.1H269.9z"/>
	</g>
	<g id="g560" transform="translate(144.8841,384.1224)">
		<path id="path562" inkscape:connector-curvature="0" fill="#515050" d="M269.9-165.4c-0.7,0-1.2,1-1.2,2.1v3.3
			c0,1.1,0.6,2.1,1.2,2.1h5.8c0.7,0,1.2-0.9,1.2-2.1v-3.3c0-1.1-0.6-2.1-1.2-2.1H269.9z"/>
	</g>
	<g id="g564" transform="translate(144.8841,373.8724)">
		<path id="path566" inkscape:connector-curvature="0" fill="#515050" d="M269.9-142.3c-0.7,0-1.2,1-1.2,2.1v3.3
			c0,1.1,0.6,2.1,1.2,2.1h5.8c0.7,0,1.2-0.9,1.2-2.1v-3.3c0-1.1-0.6-2.1-1.2-2.1H269.9z"/>
	</g>
	<g id="g568" transform="translate(144.8841,363.6224)">
		<path id="path570" inkscape:connector-curvature="0" fill="#515050" d="M269.9-119.3c-0.7,0-1.2,1-1.2,2.1v3.3
			c0,1.1,0.6,2.1,1.2,2.1h5.8c0.7,0,1.2-0.9,1.2-2.1v-3.3c0-1.1-0.6-2.1-1.2-2.1H269.9z"/>
	</g>
	<g id="g572" transform="translate(155.3841,425.1224)">
		<path id="path574" inkscape:connector-curvature="0" fill="#515050" d="M272.5-257.6c-0.7,0-1.2,1-1.2,2.1v3.3
			c0,1.1,0.6,2.1,1.2,2.1h5.8c0.7,0,1.2-0.9,1.2-2.1v-3.3c0-1.1-0.6-2.1-1.2-2.1H272.5z"/>
	</g>
	<g id="g576" transform="translate(155.3841,414.8724)">
		<path id="path578" inkscape:connector-curvature="0" fill="#515050" d="M272.5-234.6c-0.7,0-1.2,1-1.2,2.1v3.3
			c0,1.1,0.6,2.1,1.2,2.1h5.8c0.7,0,1.2-0.9,1.2-2.1v-3.3c0-1.1-0.6-2.1-1.2-2.1H272.5z"/>
	</g>
	<g id="g580" transform="translate(155.3841,404.6224)">
		<path id="path582" inkscape:connector-curvature="0" fill="#515050" d="M272.5-211.5c-0.7,0-1.2,1-1.2,2.1v3.3
			c0,1.1,0.6,2.1,1.2,2.1h5.8c0.7,0,1.2-0.9,1.2-2.1v-3.3c0-1.1-0.6-2.1-1.2-2.1H272.5z"/>
	</g>
	<g id="g584" transform="translate(155.3841,394.3724)">
		<path id="path586" inkscape:connector-curvature="0" fill="#515050" d="M272.5-188.5c-0.7,0-1.2,1-1.2,2.1v3.3
			c0,1.1,0.6,2.1,1.2,2.1h5.8c0.7,0,1.2-0.9,1.2-2.1v-3.3c0-1.1-0.6-2.1-1.2-2.1H272.5z"/>
	</g>
	<g id="g588" transform="translate(155.3841,384.1224)">
		<path id="path590" inkscape:connector-curvature="0" fill="#515050" d="M272.5-165.4c-0.7,0-1.2,1-1.2,2.1v3.3
			c0,1.1,0.6,2.1,1.2,2.1h5.8c0.7,0,1.2-0.9,1.2-2.1v-3.3c0-1.1-0.6-2.1-1.2-2.1H272.5z"/>
	</g>
	<g id="g592" transform="translate(155.3841,373.8724)">
		<path id="path594" inkscape:connector-curvature="0" fill="#515050" d="M272.5-142.3c-0.7,0-1.2,1-1.2,2.1v3.3
			c0,1.1,0.6,2.1,1.2,2.1h5.8c0.7,0,1.2-0.9,1.2-2.1v-3.3c0-1.1-0.6-2.1-1.2-2.1H272.5z"/>
	</g>
	<g id="g596" transform="translate(155.3841,363.6224)">
		<path id="path598" inkscape:connector-curvature="0" fill="#515050" d="M272.5-119.3c-0.7,0-1.2,1-1.2,2.1v3.3
			c0,1.1,0.6,2.1,1.2,2.1h5.8c0.7,0,1.2-0.9,1.2-2.1v-3.3c0-1.1-0.6-2.1-1.2-2.1H272.5z"/>
	</g>
	<g id="g600" transform="translate(165.8841,425.1224)">
		<path id="path602" inkscape:connector-curvature="0" fill="#515050" d="M275.1-257.6c-0.7,0-1.2,1-1.2,2.1v3.3
			c0,1.1,0.6,2.1,1.2,2.1h5.8c0.7,0,1.2-0.9,1.2-2.1v-3.3c0-1.1-0.6-2.1-1.2-2.1H275.1z"/>
	</g>
	<g id="g604" transform="translate(165.8841,414.8724)">
		<path id="path606" inkscape:connector-curvature="0" fill="#515050" d="M275.1-234.6c-0.7,0-1.2,1-1.2,2.1v3.3
			c0,1.1,0.6,2.1,1.2,2.1h5.8c0.7,0,1.2-0.9,1.2-2.1v-3.3c0-1.1-0.6-2.1-1.2-2.1H275.1z"/>
	</g>
	<g id="g608" transform="translate(165.8841,404.6224)">
		<path id="path610" inkscape:connector-curvature="0" fill="#515050" d="M275.1-211.5c-0.7,0-1.2,1-1.2,2.1v3.3
			c0,1.1,0.6,2.1,1.2,2.1h5.8c0.7,0,1.2-0.9,1.2-2.1v-3.3c0-1.1-0.6-2.1-1.2-2.1H275.1z"/>
	</g>
	<g id="g612" transform="translate(165.8841,394.3724)">
		<path id="path614" inkscape:connector-curvature="0" fill="#515050" d="M275.1-188.5c-0.7,0-1.2,1-1.2,2.1v3.3
			c0,1.1,0.6,2.1,1.2,2.1h5.8c0.7,0,1.2-0.9,1.2-2.1v-3.3c0-1.1-0.6-2.1-1.2-2.1H275.1z"/>
	</g>
	<g id="g616" transform="translate(165.8841,384.1224)">
		<path id="path618" inkscape:connector-curvature="0" fill="#515050" d="M275.1-165.4c-0.7,0-1.2,1-1.2,2.1v3.3
			c0,1.1,0.6,2.1,1.2,2.1h5.8c0.7,0,1.2-0.9,1.2-2.1v-3.3c0-1.1-0.6-2.1-1.2-2.1H275.1z"/>
	</g>
	<g id="g620" transform="translate(165.8841,373.8724)">
		<path id="path622" inkscape:connector-curvature="0" fill="#515050" d="M275.1-142.3c-0.7,0-1.2,1-1.2,2.1v3.3
			c0,1.1,0.6,2.1,1.2,2.1h5.8c0.7,0,1.2-0.9,1.2-2.1v-3.3c0-1.1-0.6-2.1-1.2-2.1H275.1z"/>
	</g>
	<g id="g624" transform="translate(165.8841,363.6224)">
		<path id="path626" inkscape:connector-curvature="0" fill="#515050" d="M275.1-119.3c-0.7,0-1.2,1-1.2,2.1v3.3
			c0,1.1,0.6,2.1,1.2,2.1h5.8c0.7,0,1.2-0.9,1.2-2.1v-3.3c0-1.1-0.6-2.1-1.2-2.1H275.1z"/>
	</g>
	<g id="g628" transform="translate(176.3841,425.1224)">
		<path id="path630" inkscape:connector-curvature="0" fill="#515050" d="M277.7-257.6c-0.7,0-1.2,1-1.2,2.1v3.3
			c0,1.1,0.6,2.1,1.2,2.1h5.8c0.7,0,1.2-0.9,1.2-2.1v-3.3c0-1.1-0.6-2.1-1.2-2.1H277.7z"/>
	</g>
	<g id="g632" transform="translate(176.3841,414.8724)">
		<path id="path634" inkscape:connector-curvature="0" fill="#515050" d="M277.7-234.6c-0.7,0-1.2,1-1.2,2.1v3.3
			c0,1.1,0.6,2.1,1.2,2.1h5.8c0.7,0,1.2-0.9,1.2-2.1v-3.3c0-1.1-0.6-2.1-1.2-2.1H277.7z"/>
	</g>
	<g id="g636" transform="translate(176.3841,404.6224)">
		<path id="path638" inkscape:connector-curvature="0" fill="#515050" d="M277.7-211.5c-0.7,0-1.2,1-1.2,2.1v3.3
			c0,1.1,0.6,2.1,1.2,2.1h5.8c0.7,0,1.2-0.9,1.2-2.1v-3.3c0-1.1-0.6-2.1-1.2-2.1H277.7z"/>
	</g>
	<g id="g640" transform="translate(176.3841,394.3724)">
		<path id="path642" inkscape:connector-curvature="0" fill="#515050" d="M277.7-188.5c-0.7,0-1.2,1-1.2,2.1v3.3
			c0,1.1,0.6,2.1,1.2,2.1h5.8c0.7,0,1.2-0.9,1.2-2.1v-3.3c0-1.1-0.6-2.1-1.2-2.1H277.7z"/>
	</g>
	<g id="g644" transform="translate(176.3841,384.1224)">
		<path id="path646" inkscape:connector-curvature="0" fill="#515050" d="M277.7-165.4c-0.7,0-1.2,1-1.2,2.1v3.3
			c0,1.1,0.6,2.1,1.2,2.1h5.8c0.7,0,1.2-0.9,1.2-2.1v-3.3c0-1.1-0.6-2.1-1.2-2.1H277.7z"/>
	</g>
	<g id="g648" transform="translate(176.3841,373.8724)">
		<path id="path650" inkscape:connector-curvature="0" fill="#515050" d="M277.7-142.3c-0.7,0-1.2,1-1.2,2.1v3.3
			c0,1.1,0.6,2.1,1.2,2.1h5.8c0.7,0,1.2-0.9,1.2-2.1v-3.3c0-1.1-0.6-2.1-1.2-2.1H277.7z"/>
	</g>
	<g id="g652" transform="translate(176.3841,363.6224)">
		<path id="path654" inkscape:connector-curvature="0" fill="#515050" d="M277.7-119.3c-0.7,0-1.2,1-1.2,2.1v3.3
			c0,1.1,0.6,2.1,1.2,2.1h5.8c0.7,0,1.2-0.9,1.2-2.1v-3.3c0-1.1-0.6-2.1-1.2-2.1H277.7z"/>
	</g>
	<g id="g656" transform="translate(186.8841,425.1224)">
		<path id="path658" inkscape:connector-curvature="0" fill="#515050" d="M280.4-257.6c-0.7,0-1.2,1-1.2,2.1v3.3
			c0,1.1,0.6,2.1,1.2,2.1h5.8c0.7,0,1.2-0.9,1.2-2.1v-3.3c0-1.1-0.6-2.1-1.2-2.1H280.4z"/>
	</g>
	<g id="g660" transform="translate(186.8841,414.8724)">
		<path id="path662" inkscape:connector-curvature="0" fill="#515050" d="M280.4-234.6c-0.7,0-1.2,1-1.2,2.1v3.3
			c0,1.1,0.6,2.1,1.2,2.1h5.8c0.7,0,1.2-0.9,1.2-2.1v-3.3c0-1.1-0.6-2.1-1.2-2.1H280.4z"/>
	</g>
	<g id="g664" transform="translate(186.8841,404.6224)">
		<path id="path666" inkscape:connector-curvature="0" fill="#515050" d="M280.4-211.5c-0.7,0-1.2,1-1.2,2.1v3.3
			c0,1.1,0.6,2.1,1.2,2.1h5.8c0.7,0,1.2-0.9,1.2-2.1v-3.3c0-1.1-0.6-2.1-1.2-2.1H280.4z"/>
	</g>
	<g id="g668" transform="translate(186.8841,394.3724)">
		<path id="path670" inkscape:connector-curvature="0" fill="#515050" d="M280.4-188.5c-0.7,0-1.2,1-1.2,2.1v3.3
			c0,1.1,0.6,2.1,1.2,2.1h5.8c0.7,0,1.2-0.9,1.2-2.1v-3.3c0-1.1-0.6-2.1-1.2-2.1H280.4z"/>
	</g>
	<g id="g672" transform="translate(186.8841,384.1224)">
		<path id="path674" inkscape:connector-curvature="0" fill="#515050" d="M280.4-165.4c-0.7,0-1.2,1-1.2,2.1v3.3
			c0,1.1,0.6,2.1,1.2,2.1h5.8c0.7,0,1.2-0.9,1.2-2.1v-3.3c0-1.1-0.6-2.1-1.2-2.1H280.4z"/>
	</g>
	<g id="g676" transform="translate(186.8841,373.8724)">
		<path id="path678" inkscape:connector-curvature="0" fill="#515050" d="M280.4-142.3c-0.7,0-1.2,1-1.2,2.1v3.3
			c0,1.1,0.6,2.1,1.2,2.1h5.8c0.7,0,1.2-0.9,1.2-2.1v-3.3c0-1.1-0.6-2.1-1.2-2.1H280.4z"/>
	</g>
	<g id="g680" transform="translate(186.8841,363.6224)">
		<path id="path682" inkscape:connector-curvature="0" fill="#515050" d="M280.4-119.3c-0.7,0-1.2,1-1.2,2.1v3.3
			c0,1.1,0.6,2.1,1.2,2.1h5.8c0.7,0,1.2-0.9,1.2-2.1v-3.3c0-1.1-0.6-2.1-1.2-2.1H280.4z"/>
	</g>
	<g id="g684" transform="translate(197.3841,425.1224)">
		<path id="path686" inkscape:connector-curvature="0" fill="#515050" d="M283-257.6c-0.7,0-1.2,1-1.2,2.1v3.3
			c0,1.1,0.6,2.1,1.2,2.1h5.8c0.7,0,1.2-0.9,1.2-2.1v-3.3c0-1.1-0.6-2.1-1.2-2.1H283z"/>
	</g>
	<g id="g688" transform="translate(197.3841,414.8724)">
		<path id="path690" inkscape:connector-curvature="0" fill="#515050" d="M283-234.6c-0.7,0-1.2,1-1.2,2.1v3.3
			c0,1.1,0.6,2.1,1.2,2.1h5.8c0.7,0,1.2-0.9,1.2-2.1v-3.3c0-1.1-0.6-2.1-1.2-2.1H283z"/>
	</g>
	<g id="g692" transform="translate(197.3841,404.6224)">
		<path id="path694" inkscape:connector-curvature="0" fill="#515050" d="M283-211.5c-0.7,0-1.2,1-1.2,2.1v3.3
			c0,1.1,0.6,2.1,1.2,2.1h5.8c0.7,0,1.2-0.9,1.2-2.1v-3.3c0-1.1-0.6-2.1-1.2-2.1H283z"/>
	</g>
	<g id="g696" transform="translate(197.3841,394.3724)">
		<path id="path698" inkscape:connector-curvature="0" fill="#515050" d="M283-188.5c-0.7,0-1.2,1-1.2,2.1v3.3
			c0,1.1,0.6,2.1,1.2,2.1h5.8c0.7,0,1.2-0.9,1.2-2.1v-3.3c0-1.1-0.6-2.1-1.2-2.1H283z"/>
	</g>
	<g id="g700" transform="translate(197.3841,384.1224)">
		<path id="path702" inkscape:connector-curvature="0" fill="#515050" d="M283-165.4c-0.7,0-1.2,1-1.2,2.1v3.3
			c0,1.1,0.6,2.1,1.2,2.1h5.8c0.7,0,1.2-0.9,1.2-2.1v-3.3c0-1.1-0.6-2.1-1.2-2.1H283z"/>
	</g>
	<g id="g704" transform="translate(197.3841,373.8724)">
		<path id="path706" inkscape:connector-curvature="0" fill="#515050" d="M283-142.3c-0.7,0-1.2,1-1.2,2.1v3.3
			c0,1.1,0.6,2.1,1.2,2.1h5.8c0.7,0,1.2-0.9,1.2-2.1v-3.3c0-1.1-0.6-2.1-1.2-2.1H283z"/>
	</g>
	<g id="g708" transform="translate(197.3841,363.6224)">
		<path id="path710" inkscape:connector-curvature="0" fill="#515050" d="M283-119.3c-0.7,0-1.2,1-1.2,2.1v3.3
			c0,1.1,0.6,2.1,1.2,2.1h5.8c0.7,0,1.2-0.9,1.2-2.1v-3.3c0-1.1-0.6-2.1-1.2-2.1H283z"/>
	</g>
	<g id="g712" transform="translate(207.8841,425.1224)">
		<path id="path714" inkscape:connector-curvature="0" fill="#515050" d="M285.6-257.6c-0.7,0-1.2,1-1.2,2.1v3.3
			c0,1.1,0.6,2.1,1.2,2.1h5.8c0.7,0,1.2-0.9,1.2-2.1v-3.3c0-1.1-0.6-2.1-1.2-2.1H285.6z"/>
	</g>
	<g id="g716" transform="translate(207.8841,414.8724)">
		<path id="path718" inkscape:connector-curvature="0" fill="#515050" d="M285.6-234.6c-0.7,0-1.2,1-1.2,2.1v3.3
			c0,1.1,0.6,2.1,1.2,2.1h5.8c0.7,0,1.2-0.9,1.2-2.1v-3.3c0-1.1-0.6-2.1-1.2-2.1H285.6z"/>
	</g>
	<g id="g720" transform="translate(207.8841,404.6224)">
		<path id="path722" inkscape:connector-curvature="0" fill="#515050" d="M285.6-211.5c-0.7,0-1.2,1-1.2,2.1v3.3
			c0,1.1,0.6,2.1,1.2,2.1h5.8c0.7,0,1.2-0.9,1.2-2.1v-3.3c0-1.1-0.6-2.1-1.2-2.1H285.6z"/>
	</g>
	<g id="g724" transform="translate(207.8841,394.3724)">
		<path id="path726" inkscape:connector-curvature="0" fill="#515050" d="M285.6-188.5c-0.7,0-1.2,1-1.2,2.1v3.3
			c0,1.1,0.6,2.1,1.2,2.1h5.8c0.7,0,1.2-0.9,1.2-2.1v-3.3c0-1.1-0.6-2.1-1.2-2.1H285.6z"/>
	</g>
	<g id="g728" transform="translate(207.8841,384.1224)">
		<path id="path730" inkscape:connector-curvature="0" fill="#515050" d="M285.6-165.4c-0.7,0-1.2,1-1.2,2.1v3.3
			c0,1.1,0.6,2.1,1.2,2.1h5.8c0.7,0,1.2-0.9,1.2-2.1v-3.3c0-1.1-0.6-2.1-1.2-2.1H285.6z"/>
	</g>
	<g id="g732" transform="translate(207.8841,373.8724)">
		<path id="path734" inkscape:connector-curvature="0" fill="#515050" d="M285.6-142.3c-0.7,0-1.2,1-1.2,2.1v3.3
			c0,1.1,0.6,2.1,1.2,2.1h5.8c0.7,0,1.2-0.9,1.2-2.1v-3.3c0-1.1-0.6-2.1-1.2-2.1H285.6z"/>
	</g>
	<g id="g736" transform="translate(207.8841,363.6224)">
		<path id="path738" inkscape:connector-curvature="0" fill="#515050" d="M285.6-119.3c-0.7,0-1.2,1-1.2,2.1v3.3
			c0,1.1,0.6,2.1,1.2,2.1h5.8c0.7,0,1.2-0.9,1.2-2.1v-3.3c0-1.1-0.6-2.1-1.2-2.1H285.6z"/>
	</g>
	<g id="g740" transform="translate(218.3841,425.1224)">
		<path id="path742" inkscape:connector-curvature="0" fill="#515050" d="M288.2-257.6c-0.7,0-1.2,1-1.2,2.1v3.3
			c0,1.1,0.6,2.1,1.2,2.1h5.8c0.7,0,1.2-0.9,1.2-2.1v-3.3c0-1.1-0.6-2.1-1.2-2.1H288.2z"/>
	</g>
	<g id="g744" transform="translate(218.3841,414.8724)">
		<path id="path746" inkscape:connector-curvature="0" fill="#515050" d="M288.2-234.6c-0.7,0-1.2,1-1.2,2.1v3.3
			c0,1.1,0.6,2.1,1.2,2.1h5.8c0.7,0,1.2-0.9,1.2-2.1v-3.3c0-1.1-0.6-2.1-1.2-2.1H288.2z"/>
	</g>
	<g id="g748" transform="translate(218.3841,404.6224)">
		<path id="path750" inkscape:connector-curvature="0" fill="#515050" d="M288.2-211.5c-0.7,0-1.2,1-1.2,2.1v3.3
			c0,1.1,0.6,2.1,1.2,2.1h5.8c0.7,0,1.2-0.9,1.2-2.1v-3.3c0-1.1-0.6-2.1-1.2-2.1H288.2z"/>
	</g>
	<g id="g752" transform="translate(218.3841,394.3724)">
		<path id="path754" inkscape:connector-curvature="0" fill="#515050" d="M288.2-188.5c-0.7,0-1.2,1-1.2,2.1v3.3
			c0,1.1,0.6,2.1,1.2,2.1h5.8c0.7,0,1.2-0.9,1.2-2.1v-3.3c0-1.1-0.6-2.1-1.2-2.1H288.2z"/>
	</g>
	<g id="g756" transform="translate(218.3841,384.1224)">
		<path id="path758" inkscape:connector-curvature="0" fill="#515050" d="M288.2-165.4c-0.7,0-1.2,1-1.2,2.1v3.3
			c0,1.1,0.6,2.1,1.2,2.1h5.8c0.7,0,1.2-0.9,1.2-2.1v-3.3c0-1.1-0.6-2.1-1.2-2.1H288.2z"/>
	</g>
	<g id="g760" transform="translate(218.3841,373.8724)">
		<path id="path762" inkscape:connector-curvature="0" fill="#515050" d="M288.2-142.3c-0.7,0-1.2,1-1.2,2.1v3.3
			c0,1.1,0.6,2.1,1.2,2.1h5.8c0.7,0,1.2-0.9,1.2-2.1v-3.3c0-1.1-0.6-2.1-1.2-2.1H288.2z"/>
	</g>
	<g id="g764" transform="translate(218.3841,363.6224)">
		<path id="path766" inkscape:connector-curvature="0" fill="#515050" d="M288.2-119.3c-0.7,0-1.2,1-1.2,2.1v3.3
			c0,1.1,0.6,2.1,1.2,2.1h5.8c0.7,0,1.2-0.9,1.2-2.1v-3.3c0-1.1-0.6-2.1-1.2-2.1H288.2z"/>
	</g>
	<g id="g768" transform="translate(228.8841,425.1224)">
		<path id="path770" inkscape:connector-curvature="0" fill="#515050" d="M290.9-257.6c-0.7,0-1.2,1-1.2,2.1v3.3
			c0,1.1,0.6,2.1,1.2,2.1h5.8c0.7,0,1.2-0.9,1.2-2.1v-3.3c0-1.1-0.6-2.1-1.2-2.1H290.9z"/>
	</g>
	<g id="g772" transform="translate(228.8841,414.8724)">
		<path id="path774" inkscape:connector-curvature="0" fill="#515050" d="M290.9-234.6c-0.7,0-1.2,1-1.2,2.1v3.3
			c0,1.1,0.6,2.1,1.2,2.1h5.8c0.7,0,1.2-0.9,1.2-2.1v-3.3c0-1.1-0.6-2.1-1.2-2.1H290.9z"/>
	</g>
	<g id="g776" transform="translate(228.8841,404.6224)">
		<path id="path778" inkscape:connector-curvature="0" fill="#515050" d="M290.9-211.5c-0.7,0-1.2,1-1.2,2.1v3.3
			c0,1.1,0.6,2.1,1.2,2.1h5.8c0.7,0,1.2-0.9,1.2-2.1v-3.3c0-1.1-0.6-2.1-1.2-2.1H290.9z"/>
	</g>
	<g id="g780" transform="translate(228.8841,394.3724)">
		<path id="path782" inkscape:connector-curvature="0" fill="#515050" d="M290.9-188.5c-0.7,0-1.2,1-1.2,2.1v3.3
			c0,1.1,0.6,2.1,1.2,2.1h5.8c0.7,0,1.2-0.9,1.2-2.1v-3.3c0-1.1-0.6-2.1-1.2-2.1H290.9z"/>
	</g>
	<g id="g784" transform="translate(228.8841,384.1224)">
		<path id="path786" inkscape:connector-curvature="0" fill="#515050" d="M290.9-165.4c-0.7,0-1.2,1-1.2,2.1v3.3
			c0,1.1,0.6,2.1,1.2,2.1h5.8c0.7,0,1.2-0.9,1.2-2.1v-3.3c0-1.1-0.6-2.1-1.2-2.1H290.9z"/>
	</g>
	<g id="g788" transform="translate(228.8841,373.8724)">
		<path id="path790" inkscape:connector-curvature="0" fill="#515050" d="M290.9-142.3c-0.7,0-1.2,1-1.2,2.1v3.3
			c0,1.1,0.6,2.1,1.2,2.1h5.8c0.7,0,1.2-0.9,1.2-2.1v-3.3c0-1.1-0.6-2.1-1.2-2.1H290.9z"/>
	</g>
	<g id="g792" transform="translate(228.8841,363.6224)">
		<path id="path794" inkscape:connector-curvature="0" fill="#515050" d="M290.9-119.3c-0.7,0-1.2,1-1.2,2.1v3.3
			c0,1.1,0.6,2.1,1.2,2.1h5.8c0.7,0,1.2-0.9,1.2-2.1v-3.3c0-1.1-0.6-2.1-1.2-2.1H290.9z"/>
	</g>
	<g id="g796" transform="translate(239.3841,425.1224)">
		<path id="path798" inkscape:connector-curvature="0" fill="#515050" d="M293.5-257.6c-0.7,0-1.2,1-1.2,2.1v3.3
			c0,1.1,0.6,2.1,1.2,2.1h5.8c0.7,0,1.2-0.9,1.2-2.1v-3.3c0-1.1-0.6-2.1-1.2-2.1H293.5z"/>
	</g>
	<g id="g800" transform="translate(239.3841,414.8724)">
		<path id="path802" inkscape:connector-curvature="0" fill="#515050" d="M293.5-234.6c-0.7,0-1.2,1-1.2,2.1v3.3
			c0,1.1,0.6,2.1,1.2,2.1h5.8c0.7,0,1.2-0.9,1.2-2.1v-3.3c0-1.1-0.6-2.1-1.2-2.1H293.5z"/>
	</g>
	<g id="g804" transform="translate(239.3841,404.6224)">
		<path id="path806" inkscape:connector-curvature="0" fill="#515050" d="M293.5-211.5c-0.7,0-1.2,1-1.2,2.1v3.3
			c0,1.1,0.6,2.1,1.2,2.1h5.8c0.7,0,1.2-0.9,1.2-2.1v-3.3c0-1.1-0.6-2.1-1.2-2.1H293.5z"/>
	</g>
	<g id="g808" transform="translate(239.3841,394.3724)">
		<path id="path810" inkscape:connector-curvature="0" fill="#515050" d="M293.5-188.5c-0.7,0-1.2,1-1.2,2.1v3.3
			c0,1.1,0.6,2.1,1.2,2.1h5.8c0.7,0,1.2-0.9,1.2-2.1v-3.3c0-1.1-0.6-2.1-1.2-2.1H293.5z"/>
	</g>
	<g id="g812" transform="translate(239.3841,384.1224)">
		<path id="path814" inkscape:connector-curvature="0" fill="#515050" d="M293.5-165.4c-0.7,0-1.2,1-1.2,2.1v3.3
			c0,1.1,0.6,2.1,1.2,2.1h5.8c0.7,0,1.2-0.9,1.2-2.1v-3.3c0-1.1-0.6-2.1-1.2-2.1H293.5z"/>
	</g>
	<g id="g816" transform="translate(239.3841,373.8724)">
		<path id="path818" inkscape:connector-curvature="0" fill="#515050" d="M293.5-142.3c-0.7,0-1.2,1-1.2,2.1v3.3
			c0,1.1,0.6,2.1,1.2,2.1h5.8c0.7,0,1.2-0.9,1.2-2.1v-3.3c0-1.1-0.6-2.1-1.2-2.1H293.5z"/>
	</g>
	<g id="g820" transform="translate(239.3841,363.6224)">
		<path id="path822" inkscape:connector-curvature="0" fill="#515050" d="M293.5-119.3c-0.7,0-1.2,1-1.2,2.1v3.3
			c0,1.1,0.6,2.1,1.2,2.1h5.8c0.7,0,1.2-0.9,1.2-2.1v-3.3c0-1.1-0.6-2.1-1.2-2.1H293.5z"/>
	</g>
	<g id="g824" transform="translate(249.8841,425.1224)">
		<path id="path826" inkscape:connector-curvature="0" fill="#515050" d="M296.1-257.6c-0.7,0-1.2,1-1.2,2.1v3.3
			c0,1.1,0.6,2.1,1.2,2.1h5.8c0.7,0,1.2-0.9,1.2-2.1v-3.3c0-1.1-0.6-2.1-1.2-2.1H296.1z"/>
	</g>
	<g id="g828" transform="translate(249.8841,414.8724)">
		<path id="path830" inkscape:connector-curvature="0" fill="#515050" d="M296.1-234.6c-0.7,0-1.2,1-1.2,2.1v3.3
			c0,1.1,0.6,2.1,1.2,2.1h5.8c0.7,0,1.2-0.9,1.2-2.1v-3.3c0-1.1-0.6-2.1-1.2-2.1H296.1z"/>
	</g>
	<g id="g832" transform="translate(249.8841,404.6224)">
		<path id="path834" inkscape:connector-curvature="0" fill="#515050" d="M296.1-211.5c-0.7,0-1.2,1-1.2,2.1v3.3
			c0,1.1,0.6,2.1,1.2,2.1h5.8c0.7,0,1.2-0.9,1.2-2.1v-3.3c0-1.1-0.6-2.1-1.2-2.1H296.1z"/>
	</g>
	<g id="g836" transform="translate(249.8841,394.3724)">
		<path id="path838" inkscape:connector-curvature="0" fill="#515050" d="M296.1-188.5c-0.7,0-1.2,1-1.2,2.1v3.3
			c0,1.1,0.6,2.1,1.2,2.1h5.8c0.7,0,1.2-0.9,1.2-2.1v-3.3c0-1.1-0.6-2.1-1.2-2.1H296.1z"/>
	</g>
	<g id="g840" transform="translate(249.8841,384.1224)">
		<path id="path842" inkscape:connector-curvature="0" fill="#515050" d="M296.1-165.4c-0.7,0-1.2,1-1.2,2.1v3.3
			c0,1.1,0.6,2.1,1.2,2.1h5.8c0.7,0,1.2-0.9,1.2-2.1v-3.3c0-1.1-0.6-2.1-1.2-2.1H296.1z"/>
	</g>
	<g id="g844" transform="translate(249.8841,373.8724)">
		<path id="path846" inkscape:connector-curvature="0" fill="#515050" d="M296.1-142.3c-0.7,0-1.2,1-1.2,2.1v3.3
			c0,1.1,0.6,2.1,1.2,2.1h5.8c0.7,0,1.2-0.9,1.2-2.1v-3.3c0-1.1-0.6-2.1-1.2-2.1H296.1z"/>
	</g>
	<g id="g848" transform="translate(249.8841,363.6224)">
		<path id="path850" inkscape:connector-curvature="0" fill="#515050" d="M296.1-119.3c-0.7,0-1.2,1-1.2,2.1v3.3
			c0,1.1,0.6,2.1,1.2,2.1h5.8c0.7,0,1.2-0.9,1.2-2.1v-3.3c0-1.1-0.6-2.1-1.2-2.1H296.1z"/>
	</g>
	<g id="g852" transform="translate(260.3841,425.1224)">
		<path id="path854" inkscape:connector-curvature="0" fill="#515050" d="M298.7-257.6c-0.7,0-1.2,1-1.2,2.1v3.3
			c0,1.1,0.6,2.1,1.2,2.1h5.8c0.7,0,1.2-0.9,1.2-2.1v-3.3c0-1.1-0.6-2.1-1.2-2.1H298.7z"/>
	</g>
	<g id="g856" transform="translate(260.3841,414.8724)">
		<path id="path858" inkscape:connector-curvature="0" fill="#515050" d="M298.7-234.6c-0.7,0-1.2,1-1.2,2.1v3.3
			c0,1.1,0.6,2.1,1.2,2.1h5.8c0.7,0,1.2-0.9,1.2-2.1v-3.3c0-1.1-0.6-2.1-1.2-2.1H298.7z"/>
	</g>
	<g id="g860" transform="translate(260.3841,404.6224)">
		<path id="path862" inkscape:connector-curvature="0" fill="#515050" d="M298.7-211.5c-0.7,0-1.2,1-1.2,2.1v3.3
			c0,1.1,0.6,2.1,1.2,2.1h5.8c0.7,0,1.2-0.9,1.2-2.1v-3.3c0-1.1-0.6-2.1-1.2-2.1H298.7z"/>
	</g>
	<g id="g864" transform="translate(260.3841,394.3724)">
		<path id="path866" inkscape:connector-curvature="0" fill="#515050" d="M298.7-188.5c-0.7,0-1.2,1-1.2,2.1v3.3
			c0,1.1,0.6,2.1,1.2,2.1h5.8c0.7,0,1.2-0.9,1.2-2.1v-3.3c0-1.1-0.6-2.1-1.2-2.1H298.7z"/>
	</g>
	<g id="g868" transform="translate(260.3841,384.1224)">
		<path id="path870" inkscape:connector-curvature="0" fill="#515050" d="M298.7-165.4c-0.7,0-1.2,1-1.2,2.1v3.3
			c0,1.1,0.6,2.1,1.2,2.1h5.8c0.7,0,1.2-0.9,1.2-2.1v-3.3c0-1.1-0.6-2.1-1.2-2.1H298.7z"/>
	</g>
	<g id="g872" transform="translate(260.3841,373.8724)">
		<path id="path874" inkscape:connector-curvature="0" fill="#515050" d="M298.7-142.3c-0.7,0-1.2,1-1.2,2.1v3.3
			c0,1.1,0.6,2.1,1.2,2.1h5.8c0.7,0,1.2-0.9,1.2-2.1v-3.3c0-1.1-0.6-2.1-1.2-2.1H298.7z"/>
	</g>
	<g id="g876" transform="translate(260.3841,363.6224)">
		<path id="path878" inkscape:connector-curvature="0" fill="#515050" d="M298.7-119.3c-0.7,0-1.2,1-1.2,2.1v3.3
			c0,1.1,0.6,2.1,1.2,2.1h5.8c0.7,0,1.2-0.9,1.2-2.1v-3.3c0-1.1-0.6-2.1-1.2-2.1H298.7z"/>
	</g>
	<g id="g880" transform="translate(270.8841,425.1224)">
		<path id="path882" inkscape:connector-curvature="0" fill="#515050" d="M301.4-257.6c-0.7,0-1.2,1-1.2,2.1v3.3
			c0,1.1,0.6,2.1,1.2,2.1h5.8c0.7,0,1.2-0.9,1.2-2.1v-3.3c0-1.1-0.6-2.1-1.2-2.1H301.4z"/>
	</g>
	<g id="g884" transform="translate(270.8841,414.8724)">
		<path id="path886" inkscape:connector-curvature="0" fill="#515050" d="M301.4-234.6c-0.7,0-1.2,1-1.2,2.1v3.3
			c0,1.1,0.6,2.1,1.2,2.1h5.8c0.7,0,1.2-0.9,1.2-2.1v-3.3c0-1.1-0.6-2.1-1.2-2.1H301.4z"/>
	</g>
	<g id="g888" transform="translate(270.8841,404.6224)">
		<path id="path890" inkscape:connector-curvature="0" fill="#515050" d="M301.4-211.5c-0.7,0-1.2,1-1.2,2.1v3.3
			c0,1.1,0.6,2.1,1.2,2.1h5.8c0.7,0,1.2-0.9,1.2-2.1v-3.3c0-1.1-0.6-2.1-1.2-2.1H301.4z"/>
	</g>
	<g id="g892" transform="translate(270.8841,394.3724)">
		<path id="path894" inkscape:connector-curvature="0" fill="#515050" d="M301.4-188.5c-0.7,0-1.2,1-1.2,2.1v3.3
			c0,1.1,0.6,2.1,1.2,2.1h5.8c0.7,0,1.2-0.9,1.2-2.1v-3.3c0-1.1-0.6-2.1-1.2-2.1H301.4z"/>
	</g>
	<g id="g896" transform="translate(270.8841,384.1224)">
		<path id="path898" inkscape:connector-curvature="0" fill="#515050" d="M301.4-165.4c-0.7,0-1.2,1-1.2,2.1v3.3
			c0,1.1,0.6,2.1,1.2,2.1h5.8c0.7,0,1.2-0.9,1.2-2.1v-3.3c0-1.1-0.6-2.1-1.2-2.1H301.4z"/>
	</g>
	<g id="g900" transform="translate(270.8841,373.8724)">
		<path id="path902" inkscape:connector-curvature="0" fill="#515050" d="M301.4-142.3c-0.7,0-1.2,1-1.2,2.1v3.3
			c0,1.1,0.6,2.1,1.2,2.1h5.8c0.7,0,1.2-0.9,1.2-2.1v-3.3c0-1.1-0.6-2.1-1.2-2.1H301.4z"/>
	</g>
	<g id="g904" transform="translate(270.8841,363.6224)">
		<path id="path906" inkscape:connector-curvature="0" fill="#515050" d="M301.4-119.3c-0.7,0-1.2,1-1.2,2.1v3.3
			c0,1.1,0.6,2.1,1.2,2.1h5.8c0.7,0,1.2-0.9,1.2-2.1v-3.3c0-1.1-0.6-2.1-1.2-2.1H301.4z"/>
	</g>
	<g id="g908" transform="translate(281.3841,425.1224)">
		<path id="path910" inkscape:connector-curvature="0" fill="#515050" d="M304-257.6c-0.7,0-1.2,1-1.2,2.1v3.3
			c0,1.1,0.6,2.1,1.2,2.1h5.8c0.7,0,1.2-0.9,1.2-2.1v-3.3c0-1.1-0.6-2.1-1.2-2.1H304z"/>
	</g>
	<g id="g912" transform="translate(281.3841,414.8724)">
		<path id="path914" inkscape:connector-curvature="0" fill="#515050" d="M304-234.6c-0.7,0-1.2,1-1.2,2.1v3.3
			c0,1.1,0.6,2.1,1.2,2.1h5.8c0.7,0,1.2-0.9,1.2-2.1v-3.3c0-1.1-0.6-2.1-1.2-2.1H304z"/>
	</g>
	<g id="g916" transform="translate(281.3841,404.6224)">
		<path id="path918" inkscape:connector-curvature="0" fill="#515050" d="M304-211.5c-0.7,0-1.2,1-1.2,2.1v3.3
			c0,1.1,0.6,2.1,1.2,2.1h5.8c0.7,0,1.2-0.9,1.2-2.1v-3.3c0-1.1-0.6-2.1-1.2-2.1H304z"/>
	</g>
	<g id="g920" transform="translate(281.3841,394.3724)">
		<path id="path922" inkscape:connector-curvature="0" fill="#515050" d="M304-188.5c-0.7,0-1.2,1-1.2,2.1v3.3
			c0,1.1,0.6,2.1,1.2,2.1h5.8c0.7,0,1.2-0.9,1.2-2.1v-3.3c0-1.1-0.6-2.1-1.2-2.1H304z"/>
	</g>
	<g id="g924" transform="translate(281.3841,384.1224)">
		<path id="path926" inkscape:connector-curvature="0" fill="#515050" d="M304-165.4c-0.7,0-1.2,1-1.2,2.1v3.3
			c0,1.1,0.6,2.1,1.2,2.1h5.8c0.7,0,1.2-0.9,1.2-2.1v-3.3c0-1.1-0.6-2.1-1.2-2.1H304z"/>
	</g>
	<g id="g928" transform="translate(281.3841,373.8724)">
		<path id="path930" inkscape:connector-curvature="0" fill="#515050" d="M304-142.3c-0.7,0-1.2,1-1.2,2.1v3.3
			c0,1.1,0.6,2.1,1.2,2.1h5.8c0.7,0,1.2-0.9,1.2-2.1v-3.3c0-1.1-0.6-2.1-1.2-2.1H304z"/>
	</g>
	<g id="g932" transform="translate(281.3841,363.6224)">
		<path id="path934" inkscape:connector-curvature="0" fill="#515050" d="M304-119.3c-0.7,0-1.2,1-1.2,2.1v3.3
			c0,1.1,0.6,2.1,1.2,2.1h5.8c0.7,0,1.2-0.9,1.2-2.1v-3.3c0-1.1-0.6-2.1-1.2-2.1H304z"/>
	</g>
	<g id="g936" transform="translate(573.0602,441.598)">
		<path id="path938" inkscape:connector-curvature="0" fill="none" stroke="#545353" stroke-miterlimit="10" d="M376.9-294.7
			c0-0.9-1.1-1.6-2.5-1.6"/>
	</g>
	<g id="g940" transform="translate(571.0549,341.8073)">
		<path id="path942" inkscape:connector-curvature="0" fill="none" stroke="#545353" stroke-miterlimit="10" d="M376.4-70.2
			c1.4,0,2.5-0.7,2.5-1.6"/>
	</g>
	<g id="g944" transform="translate(338.939,343.0623)">
		<path id="path946" inkscape:connector-curvature="0" fill="none" stroke="#545353" stroke-miterlimit="10" d="M318.4-73
			c0,0.9,1.1,1.6,2.5,1.6"/>
	</g>
	<g id="g948" transform="translate(340.9427,442.8529)">
		<path id="path950" inkscape:connector-curvature="0" fill="none" stroke="#545353" stroke-miterlimit="10" d="M318.9-297.5
			L318.9-297.5c-1.4,0-2.5,0.7-2.5,1.6"/>
	</g>
	<g>
		<g id="g952" transform="translate(338.939,441.598)">
			<g id="path954">
				<rect x="317.9" y="-294.7" fill="#545353" width="1" height="123.2"/>
			</g>
		</g>
		<g id="g956" transform="translate(340.9427,341.8073)">
			<g id="path958">
				<rect x="318.9" y="-70.7" fill="#545353" width="287.6" height="1"/>
			</g>
		</g>
		<g id="g960" transform="translate(341.1709,442.8529)">
			<g id="path962">
				<rect x="318.9" y="-298" fill="#545353" width="287.4" height="1"/>
			</g>
		</g>
		<g id="g964" transform="translate(573.0602,343.0623)">
			<g id="path966">
				<rect x="376.4" y="-196.2" fill="#545353" width="1" height="123.2"/>
			</g>
		</g>
	</g>
	<path id="path968" inkscape:connector-curvature="0" fill="#515050" d="M942.2,158.2H665v-4.7h277.2V158.2z"/>
	<path id="path970" inkscape:connector-curvature="0" fill="#515050" d="M942.4,167.4H665.2v-4.7h277.2V167.4z"/>
	<path id="path972" inkscape:connector-curvature="0" fill="#515050" d="M942.2,176.5H665v-4.7h277.2V176.5z"/>
	<path id="path974" inkscape:connector-curvature="0" fill="#515050" d="M942.3,185.7H665.1V181h277.2V185.7z"/>
	<path id="path976" inkscape:connector-curvature="0" fill="#515050" d="M942.1,194.9H664.9v-4.7h277.2V194.9z"/>
	<path id="path978" inkscape:connector-curvature="0" fill="#515050" d="M942.2,204.1H665v-4.7h277.2V204.1z"/>
	<path id="path980" inkscape:connector-curvature="0" fill="#515050" d="M942.4,213.2H665.2v-4.7h277.2V213.2z"/>
	<path id="path982" inkscape:connector-curvature="0" fill="#515050" d="M942.5,222.4H665.3v-4.7h277.2V222.4z"/>
	<path id="path984" inkscape:connector-curvature="0" fill="#515050" d="M941.9,231.6H664.8v-4.7h277.2V231.6z"/>
	<path id="path986" inkscape:connector-curvature="0" fill="#515050" d="M941.9,261.6H664.8v-22.5h277.2V261.6z"/>
	<g id="g988" transform="translate(19.3242,318.0819)">
		<path id="path990" inkscape:connector-curvature="0" fill="#B7B7B7" d="M238.5-16.8h1112.9h0.5V-28H238.9v11.2"/>
	</g>
	<g id="g992" transform="translate(901.1169,342.408)">
		<path id="path994" inkscape:connector-curvature="0" fill="#221F1F" d="M458.9-71.5h3.5v-1.7h-3.5v-3.9h-1.7v3.9h-3.5v1.7h3.5v3.9
			h1.7V-71.5z"/>
	</g>
	<path id="path996" inkscape:connector-curvature="0" fill="#221F1F" d="M1346.7,274.7h-33.9V261h33.9V274.7z"/>
	<g id="g998" transform="translate(888.2938,348.7682)">
		<path id="path1000" inkscape:connector-curvature="0" fill="#D6D4D4" d="M455.7-85.8l-3.2,4.7L456-76h-3.2l-1.9-2.8l-1.9,2.8h-3.2
			c0.1-0.2,3.5-5.2,3.5-5.2l-1.5-2l-6.2,0c-0.3,0-0.6-0.1-0.8,0.3c-0.1,0.1-0.1,0.3,0,0.4c0,0.1,0.2,0.2,0.3,0.3l0.2,0h2.5
			c1.2,0,2.2,0.7,2.7,1.8c0.4,0.9,0.4,2.1-0.1,2.9c-0.6,1.1-1.7,1.6-2.9,1.6h-6.9c0,0-1.1-3.8-1.1-3.8l-1.1,3.8h-2.5l-1-3.8
			l-1.1,3.8h-2.8c0,0,2.6-9.2,2.7-9.8h2.4l1.1,4.1l1.1-4.1l2.3,0l2,7.2h4.6c0.3,0,0.8,0.1,0.9-0.3c0-0.2,0-0.4-0.1-0.5
			c-0.1-0.1-0.3-0.1-0.4-0.1H441c-1.2,0-2.3-0.8-2.8-1.9c-0.5-1.1-0.2-2.5,0.7-3.4c0.6-0.6,1.3-0.9,2.2-1l8.1,0l1.6,2.4l1.7-2.4
			H455.7z"/>
	</g>
	<g id="g1002" transform="translate(893.6548,340.8654)">
		<path id="path1004" inkscape:connector-curvature="0" fill="#221F1F" d="M457.1-68.1c0.2-1.2,3.2-1.9,3.2-4.4
			c0-2.4-1.7-3.1-3.2-3.1c-1.5,0-3.1,1.1-3.1,3v0.7h2.2v-0.5c0-0.6,0.3-1,0.9-1c0.5,0,0.8,0.3,0.8,1c0,1.5-2.5,2.1-3.6,3.9
			c-0.4,0.8-0.5,2.4-0.5,2.4h6.2v-1.9H457.1z"/>
	</g>
</g>
</svg>
