<?xml version="1.0" encoding="UTF-8" standalone="no"?>
<svg
   xmlns:dc="http://purl.org/dc/elements/1.1/"
   xmlns:cc="http://creativecommons.org/ns#"
   xmlns:rdf="http://www.w3.org/1999/02/22-rdf-syntax-ns#"
   xmlns:svg="http://www.w3.org/2000/svg"
   xmlns="http://www.w3.org/2000/svg"
   xmlns:sodipodi="http://sodipodi.sourceforge.net/DTD/sodipodi-0.dtd"
   xmlns:inkscape="http://www.inkscape.org/namespaces/inkscape"
   viewBox="0 0 286.11749 179.22375"
   height="179.22375"
   width="286.11749"
   xml:space="preserve"
   version="1.1"
   id="svg2"
   inkscape:version="0.91 r13725"
   sodipodi:docname="game.svg"><sodipodi:namedview
     pagecolor="#ffffff"
     bordercolor="#666666"
     borderopacity="1"
     objecttolerance="10"
     gridtolerance="10"
     guidetolerance="10"
     inkscape:pageopacity="0"
     inkscape:pageshadow="2"
     inkscape:window-width="1920"
     inkscape:window-height="1027"
     id="namedview31"
     showgrid="false"
     inkscape:zoom="3.5192537"
     inkscape:cx="91.201164"
     inkscape:cy="88.634995"
     inkscape:window-x="-8"
     inkscape:window-y="-8"
     inkscape:window-maximized="1"
     inkscape:current-layer="svg2" /><metadata
     id="metadata8"><rdf:RDF><cc:Work
         rdf:about=""><dc:format>image/svg+xml</dc:format><dc:type
           rdf:resource="http://purl.org/dc/dcmitype/StillImage" /><dc:title /></cc:Work></rdf:RDF></metadata><defs
     id="defs6"><clipPath
       id="clipPath16"
       clipPathUnits="userSpaceOnUse"><path
         id="path18"
         d="m 0,143.379 228.894,0 L 228.894,0 0,0 0,143.379 Z" /></clipPath></defs><g
     transform="matrix(1.25,0,0,-1.25,0,179.22375)"
     id="g10"><g
       id="g12"><g
         clip-path="url(#clipPath16)"
         id="g14"><g
           transform="translate(228.8936,140.1644)"
           id="g20"><path
             id="path22"
             style="fill:#494647;fill-opacity:1;fill-rule:nonzero;stroke:none"
             d="m 0,0 0,0 c 0,1.78 -1.432,3.214 -3.213,3.214 l -8.545,0 -182.162,0 0,0 -31.735,0 c -1.78,0 -3.214,-1.432 -3.214,-3.214 l 0,-9.738 0,0 0,0 c 0,-1.78 1.433,-3.214 3.214,-3.214 l 11.003,0 c 1.781,0 3.213,-1.434 3.213,-3.214 l 0,0 0,-43.327 -14.241,0 c -1.78,0 -3.214,-1.432 -3.214,-3.213 l 0,-74.244 0.001,0 0,0 c 0,-1.781 1.432,-3.214 3.213,-3.214 l 222.466,0 0,0 0,0 c 1.781,0 3.214,1.432 3.214,3.213 L 0,0" /></g><g
           transform="translate(207.7615,9.2816)"
           id="g24"><path
             id="path26"
             style="fill:#b5b4b4;fill-opacity:1;fill-rule:nonzero;stroke:none"
             d="m 0,0 -163.413,0 c -6.6,0 -12,5.4 -12,12 l 0,110.097 c 0,6.6 5.4,12 12,12 l 163.413,0 c 6.6,0 12,-5.4 12,-12 L 12,12 C 12,5.4 6.6,0 0,0" /></g><path
           id="path28"
           style="fill:#211d1d;fill-opacity:1;fill-rule:nonzero;stroke:none"
           d="m 206.96032,23.508011 -20.16875,0 0,8.168108 20.16875,0 0,-8.168108 z"
           inkscape:connector-curvature="0" /><g
           transform="translate(168.3263,95.2834)"
           id="g30"><path
             id="path32"
             style="fill:#ffffff;fill-opacity:1;fill-rule:nonzero;stroke:none"
             d="m 37.038417,-64.757061 -1.917372,-2.800552 2.085453,-3.059601 -1.925806,0 -1.146045,1.638039 -1.155283,-1.642056 -1.913155,0 c 0.05201,0.108038 2.094289,3.063618 2.094289,3.063618 l -0.870529,1.211109 -3.692768,-0.0042 c -0.172298,-0.01345 -0.383354,0.03876 -0.469704,-0.15543 -0.03032,-0.06446 -0.04318,-0.159245 -0.0084,-0.224309 0.02972,-0.0731 0.099,-0.141976 0.176315,-0.163262 l 0.116271,-0.0088 1.478192,0 c 0.684776,-0.01727 1.318545,-0.443598 1.615549,-1.059695 0.263267,-0.517297 0.224309,-1.223961 -0.06888,-1.715353 -0.370301,-0.624531 -1.029774,-0.973747 -1.744872,-0.948043 l -4.110863,0 c 0,0 -0.629351,2.271206 -0.633568,2.275022 l -0.633568,-2.275022 -1.499277,-4.01e-4 -0.603246,2.284259 -0.659473,-2.27944 -1.658924,0 c 0,0 1.525383,5.489652 1.624384,5.851719 l 1.400879,0 0.659272,-2.44752 0.672124,2.44752 1.374572,4.02e-4 1.176368,-4.262477 2.740508,0 c 0.189167,0.0092 0.452233,-0.04257 0.529948,0.189769 0.03012,0.104021 0.0046,0.211457 -0.06888,0.284553 -0.06928,0.06045 -0.155229,0.07751 -0.245595,0.07751 l -1.473573,2.01e-4 c -0.69823,0.02149 -1.391842,0.478138 -1.65049,1.150062 -0.279935,0.672526 -0.116271,1.478593 0.396407,1.999103 0.361866,0.36267 0.792813,0.543804 1.297258,0.56509 l 4.834596,0.0042 0.974149,-1.404293 1.007885,1.40871 1.895885,-4.01e-4 z"
             inkscape:connector-curvature="0" /></g><g
           transform="translate(24.6602,36.7994)"
           id="g34"><path
             id="path36"
             style="fill:#e4e4e4;fill-opacity:1;fill-rule:nonzero;stroke:none"
             d="m 0,0 c 0,-4.23 -3.429,-7.659 -7.659,-7.659 -4.23,0 -7.659,3.429 -7.659,7.659 0,4.23 3.429,7.659 7.659,7.659 C -3.429,7.659 0,4.23 0,0" /></g><g
           transform="translate(3.2383,80.6714)"
           id="g38"><path
             id="path40"
             style="fill:#1a1717;fill-opacity:1;fill-rule:nonzero;stroke:none"
             d="m 0,0 0,46.541 11.003,0 c 1.781,0 3.213,-1.434 3.213,-3.214 L 14.216,0 -0.024,0" /></g><g
           transform="translate(19.2618,118.3091)"
           id="g42"><path
             id="path44"
             style="fill:#4f4c4d;fill-opacity:1;fill-rule:nonzero;stroke:none"
             d="m 0,0 -18.72,0 c -0.284,0 -0.517,0.232 -0.517,0.517 l 0,3.489 c 0,0.284 0.233,0.516 0.517,0.516 l 18.72,0 c 0.284,0 0.517,-0.232 0.517,-0.516 l 0,-3.489 C 0.517,0.232 0.284,0 0,0" /></g><g
           transform="translate(19.2618,110.2126)"
           id="g46"><path
             id="path48"
             style="fill:#4f4c4d;fill-opacity:1;fill-rule:nonzero;stroke:none"
             d="m 0,0 -18.72,0 c -0.284,0 -0.517,0.232 -0.517,0.517 l 0,3.489 c 0,0.284 0.233,0.516 0.517,0.516 l 18.72,0 c 0.284,0 0.517,-0.232 0.517,-0.516 l 0,-3.489 C 0.517,0.232 0.284,0 0,0" /></g><g
           transform="translate(19.2618,102.1161)"
           id="g50"><path
             id="path52"
             style="fill:#4f4c4d;fill-opacity:1;fill-rule:nonzero;stroke:none"
             d="m 0,0 -18.72,0 c -0.284,0 -0.517,0.232 -0.517,0.517 l 0,3.489 c 0,0.284 0.233,0.516 0.517,0.516 l 18.72,0 c 0.284,0 0.517,-0.232 0.517,-0.516 l 0,-3.489 C 0.517,0.232 0.284,0 0,0" /></g><g
           transform="translate(19.2618,94.2384)"
           id="g54"><path
             id="path56"
             style="fill:#4f4c4d;fill-opacity:1;fill-rule:nonzero;stroke:none"
             d="m 0,0 -18.72,0 c -0.284,0 -0.517,0.232 -0.517,0.517 l 0,3.489 c 0,0.284 0.233,0.516 0.517,0.516 l 18.72,0 c 0.284,0 0.517,-0.232 0.517,-0.516 l 0,-3.489 C 0.517,0.232 0.284,0 0,0" /></g><g
           transform="translate(19.2618,86.3608)"
           id="g58"><path
             id="path60"
             style="fill:#4f4c4d;fill-opacity:1;fill-rule:nonzero;stroke:none"
             d="m 0,0 -18.72,0 c -0.284,0 -0.517,0.233 -0.517,0.517 l 0,3.489 c 0,0.284 0.233,0.516 0.517,0.516 l 18.72,0 c 0.284,0 0.517,-0.232 0.517,-0.516 l 0,-3.489 C 0.517,0.233 0.284,0 0,0" /></g></g></g></g></svg>