<svg xmlns="http://www.w3.org/2000/svg" viewBox="0 0 911.35771 449">
  <path fill="#2b2b2b" d="M391.8 0h-255c-6.6 0-12 5.4-12 12v242.4c0 6.6 5.4 12 12 12h255.1c6.6 0 12-5.4 12-12V12c-.1-6.6-5.5-12-12.1-12z"/>
  <path fill="#4e4e4e" d="M204.6 8.3h5.5v1.8h-1.7v19.5h-1.9V10.1h-1.9V8.3zm108.5 3.2c2.5-.4 5.1.2 7.1 1.7 1.5 1.1 2.6 2.6 3.2 4.3.7 2 .8 4.2.1 6.2-.6 1.8-1.7 3.3-3.2 4.5-1.6 1.2-3.7 1.9-5.7 1.9-3.1 0-6.1-1.6-7.7-4.1-1.7-2.6-2.1-6-.8-8.9 1.1-2.9 3.9-5.1 7-5.6zm-4.8 5.3v1.1h1v5.9h-1v1.1h3.1v-1.1h-1v-7h-2.1zm4.1.7v6.6c.2.3.5.5.7.7h7c.3-.3.8-.6.7-1V21c-.1-.3-.4-.4-.6-.6h-6.8v-2.5h6.4v1h1v-1.4l-.6-.6h-7.1c-.2.1-.4.3-.7.6zm-98.5-5.6h1.8v15.9h2V11.9h1.8v15.2c0 .4 0 .7-.1 1.1-.2.8-.9 1.4-1.7 1.4h-2.2c-1 0-1.8-.9-1.7-1.9.1-5.2.1-10.5.1-15.8zm10.3 0h3.8c.9 0 1.8.7 1.9 1.6v5.8c0 .8-.6 1.7-1.4 1.9l1.8 8.4h-1.7c-.6-2.8-1.3-5.5-1.9-8.3h-.6v8.3h-1.7c-.2-5.9-.2-11.8-.2-17.7zm1.8 1.8v5.8h2v-5.8h-2zm8.8-1.8h4c.8 0 1.6.7 1.7 1.5V19c0 .5-.4.9-.7 1.3.4.3.7.7.7 1.2.1.8 0 1.5 0 2.3v3.5c0 .5.1 1-.2 1.5-.3.6-.9.9-1.5.9h-4V11.9zm1.9 1.8v5.8h2v-5.8h-2zm0 7.6v6.6h2v-6.6h-2zm9.6-9.3c.5-.2 1.1-.1 1.7-.1.6 0 1.3-.1 1.8.2.6.3 1 .9 1 1.5v13.6c0 .4 0 .8-.1 1.2-.3.6-.8 1.1-1.5 1.2h-1.8c-.4 0-.7 0-1-.1-.7-.3-1.3-1-1.3-1.7V14.2c0-.4 0-.7.1-1.1.2-.5.6-.9 1.1-1.1zm.7 1.7v14.1h1.9V13.7H247z"/>
  <path fill="#4e4e4e" d="M313.5 21.3h6.3v2.4h-6.3v-2.4zm-57.5-11c0-.9.7-1.8 1.6-1.9h2.2c1-.1 2 .9 2 1.9v3.1h-1.9v-3.2h-2.1v17.6h2.2v-8.5h-.9v-1.7h2.8v12H258c-.7 0-1.5-.5-1.8-1.2-.1-.4-.1-.8-.1-1.2-.1-5.6-.1-11.3-.1-16.9zm10.6 1.6h3.7c.8 0 1.5.4 1.8 1.1.1.3.1.6.1.8v5.6c0 .8-.6 1.6-1.4 1.7l1.8 8.4h-1.7c-.6-2.8-1.3-5.5-1.9-8.3h-.6v8.3h-1.7c-.1-5.8-.1-11.7-.1-17.6zm1.8 1.7v5.7h2v-5.7h-2zm8.6-.1c0-.8.7-1.6 1.5-1.6h2.4c.4 0 .8.1 1.2.4.4.3.6.8.6 1.3v16H281v-8.4h-2.1v8.4h-1.7c-.2-5.4-.2-10.7-.2-16.1zm1.8.2v5.7h2v-5.7h-2zm8.2-.3c0-.8.7-1.5 1.5-1.5h3v1.6h-2.6v5.9h2.2v1.7h-2.2v8.4h-1.8c-.1-5.3-.1-10.7-.1-16.1zm8.8-1.5h1.8v4.9c.3.5.7 1 1 1.5.3-.5.7-1 1-1.5v-4.9h1.9v3.5c0 .5.1 1.1-.1 1.6-.4 1.1-1 2.1-1.6 3.1.7 1.1 1.5 2.3 1.8 3.5v5.9h-1.7v-5.9c-.3-.6-.7-1.1-1.1-1.7-.4.5-.7 1.1-1.1 1.6v6h-1.8V24c0-.5.2-1 .4-1.4.4-.9.9-1.7 1.5-2.5-.7-1.1-1.5-2.2-1.9-3.5-.1-1.5-.1-3.1-.1-4.7z"/>
  <path fill="#0b0b0c" d="M395.39999 38.5h8.3999996v3.8H395.39999z"/>
  <path fill="#353636" d="M395.39999 42.299999h8.3999996v1H395.39999z"/>
  <path fill="#151616" d="M395.39999 43.299999h8.3999996v1H395.39999z"/>
  <path fill="#0b0b0c" d="M395.39999 44.299999h8.3999996v3.8H395.39999z"/>
  <path fill="#353636" d="M395.39999 48h8.3999996v1H395.39999z"/>
  <path fill="#151616" d="M395.39999 49h8.3999996v1H395.39999z"/>
  <path fill="#0b0b0c" d="M395.39999 50h8.3999996v3.8H395.39999z"/>
  <path fill="#353636" d="M395.39999 53.799999h8.3999996v1H395.39999z"/>
  <path fill="#151616" d="M395.39999 54.799999h8.3999996v1H395.39999z"/>
  <path fill="#0b0b0c" d="M395.39999 55.799999h8.3999996v3.8H395.39999z"/>
  <path fill="#353636" d="M395.39999 59.5h8.3999996v1H395.39999z"/>
  <path fill="#151616" d="M395.39999 60.5h8.3999996v1H395.39999z"/>
  <path fill="#0b0b0c" d="M395.39999 61.5h8.3999996v3.8H395.39999z"/>
  <path fill="#353636" d="M395.39999 65.300003h8.3999996v1H395.39999z"/>
  <path fill="#151616" d="M395.39999 66.300003h8.3999996v1H395.39999z"/>
  <path fill="#0b0b0c" d="M395.39999 89.599998h8.3999996v3.8H395.39999z"/>
  <path fill="#353636" d="M395.39999 93.300003h8.3999996v1H395.39999z"/>
  <path fill="#151616" d="M395.39999 94.300003h8.3999996v1H395.39999z"/>
  <path fill="#0b0b0c" d="M395.39999 95.300003h8.3999996v3.8H395.39999z"/>
  <path fill="#353636" d="M395.39999 99.099998h8.3999996v1H395.39999z"/>
  <path fill="#151616" d="M395.39999 100.1h8.3999996v1H395.39999z"/>
  <path fill="#0b0b0c" d="M395.39999 101.1h8.3999996v3.8H395.39999z"/>
  <path fill="#353636" d="M395.39999 104.8h8.3999996v1H395.39999z"/>
  <path fill="#151616" d="M395.39999 105.8h8.3999996v1H395.39999z"/>
  <path fill="#0b0b0c" d="M395.39999 106.8h8.3999996v3.8H395.39999z"/>
  <path fill="#353636" d="M395.39999 110.6h8.3999996v1H395.39999z"/>
  <path fill="#151616" d="M395.39999 111.6h8.3999996v1H395.39999z"/>
  <path fill="#0b0b0c" d="M395.39999 112.6h8.3999996v3.8H395.39999z"/>
  <path fill="#353636" d="M395.39999 116.3h8.3999996v1H395.39999z"/>
  <path fill="#151616" d="M395.39999 117.3h8.3999996v1H395.39999z"/>
  <path fill="#0b0b0c" d="M124.8 38.5h8.3999996v3.8H124.8z"/>
  <path fill="#353636" d="M124.8 42.299999h8.3999996v1H124.8z"/>
  <path fill="#151616" d="M124.8 43.299999h8.3999996v1H124.8z"/>
  <path fill="#0b0b0c" d="M124.8 44.299999h8.3999996v3.8H124.8z"/>
  <path fill="#353636" d="M124.8 48h8.3999996v1H124.8z"/>
  <path fill="#151616" d="M124.8 49h8.3999996v1H124.8z"/>
  <path fill="#0b0b0c" d="M124.8 50h8.3999996v3.8H124.8z"/>
  <path fill="#353636" d="M124.8 53.799999h8.3999996v1H124.8z"/>
  <path fill="#151616" d="M124.8 54.799999h8.3999996v1H124.8z"/>
  <path fill="#0b0b0c" d="M124.8 55.799999h8.3999996v3.8H124.8z"/>
  <path fill="#353636" d="M124.8 59.5h8.3999996v1H124.8z"/>
  <path fill="#151616" d="M124.8 60.5h8.3999996v1H124.8z"/>
  <path fill="#0b0b0c" d="M124.8 61.5h8.3999996v3.8H124.8z"/>
  <path fill="#353636" d="M124.8 65.300003h8.3999996v1H124.8z"/>
  <path fill="#151616" d="M124.8 66.300003h8.3999996v1H124.8z"/>
  <path fill="#0b0b0c" d="M124.8 89.599998h8.3999996v3.8H124.8z"/>
  <path fill="#353636" d="M124.8 93.300003h8.3999996v1H124.8z"/>
  <path fill="#151616" d="M124.8 94.300003h8.3999996v1H124.8z"/>
  <path fill="#0b0b0c" d="M124.8 95.300003h8.3999996v3.8H124.8z"/>
  <path fill="#353636" d="M124.8 99.099998h8.3999996v1H124.8z"/>
  <path fill="#151616" d="M124.8 100.1h8.3999996v1H124.8z"/>
  <path fill="#0b0b0c" d="M124.8 101.1h8.3999996v3.8H124.8z"/>
  <path fill="#353636" d="M124.8 104.8h8.3999996v1H124.8z"/>
  <path fill="#151616" d="M124.8 105.8h8.3999996v1H124.8z"/>
  <path fill="#0b0b0c" d="M124.8 106.8h8.3999996v3.8H124.8z"/>
  <path fill="#353636" d="M124.8 110.6h8.3999996v1H124.8z"/>
  <path fill="#151616" d="M124.8 111.6h8.3999996v1H124.8z"/>
  <path fill="#0b0b0c" d="M124.8 112.6h8.3999996v3.8H124.8z"/>
  <path fill="#353636" d="M124.8 116.3h8.3999996v1H124.8z"/>
  <path fill="#151616" d="M124.8 117.3h8.3999996v1H124.8z"/>
  <path fill="#16191b" d="M407.2 105.3h-3.3V78.9h3.3c1.8 0 3.3 1.5 3.3 3.3V102c0 1.8-1.5 3.3-3.3 3.3z"/>
  <path fill="#101111" fill-rule="evenodd" d="M516.6 449H12c-6.6 0-12-5.4-12-12V263.4c0-6.6 5.4-12 12-12h504.6c6.6 0 12 5.4 12 12V437c0 6.6-5.4 12-12 12z"/>
  <path fill="#1f2020" d="M450.6 449h-138V349c0-38.1 30.9-69 69-69s69 30.9 69 69v100z"/>
  <path fill="#0f0f0f" d="M433.5 449H329.8v-88.9c0-2.6 2.1-4.8 4.8-4.8h94.3c2.6 0 4.8 2.1 4.8 4.8V449z"/>
  <g fill="#1e1e1e">
    <path d="M339.8 434.7h-.1c-.5 0-.9-.4-.9-.9v-77.6c0-.5.4-.9.9-.9h.1c.5 0 .9.4.9.9v77.6c-.1.5-.5.9-.9.9zm8 0h-.1c-.5 0-.9-.4-.9-.9v-77.6c0-.5.4-.9.9-.9h.1c.5 0 .9.4.9.9v77.6c-.1.5-.5.9-.9.9zm8-18.2h-.1c-.5 0-.9-.4-.9-.9v-59.4c0-.5.4-.9.9-.9h.1c.5 0 .9.4.9.9v59.4c-.1.5-.5.9-.9.9zm8.9-6.8h-.1c-.5 0-.9-.4-.9-.9v-52.6c0-.5.4-.9.9-.9h.1c.5 0 .9.4.9.9v52.6c-.1.5-.4.9-.9.9zm8.9-3.7h-.1c-.5 0-.9-.4-.9-.9v-48.9c0-.5.4-.9.9-.9h.1c.5 0 .9.4.9.9v48.9c0 .5-.4.9-.9.9zm8.1-1.5h-.1c-.5 0-.9-.4-.9-.9v-40.2c0-.5.4-.9.9-.9h.1c.5 0 .9.4.9.9v40.2c-.1.5-.4.9-.9.9z"/>
    <path d="M386.4 368.2c-.4.4-1 .4-1.3.1l-4.2-4.2c-.3-.3-.3-.9 0-1.2l.1-.1c.3-.3.9-.3 1.2 0l4.2 4.2c.4.3.4.9 0 1.2z"/>
    <path d="M382.2 362.8c.4.4.4 1 .1 1.3l-4.2 4.2c-.3.3-.9.3-1.2 0l-.1-.1c-.3-.3-.3-.9 0-1.2l4.2-4.2c.3-.3.9-.3 1.2 0zm41.3 71.9h.1c.5 0 .9-.4.9-.9v-77.6c0-.5-.4-.9-.9-.9h-.1c-.5 0-.9.4-.9.9v77.6c0 .5.4.9.9.9zm-8 0h.1c.5 0 .9-.4.9-.9v-77.6c0-.5-.4-.9-.9-.9h-.1c-.5 0-.9.4-.9.9v77.6c0 .5.4.9.9.9zm-8-18.1h.1c.5 0 .9-.4.9-.9v-59.4c0-.5-.4-.9-.9-.9h-.1c-.5 0-.9.4-.9.9v59.4c0 .5.4.9.9.9zm-8.9-6.9h.1c.5 0 .9-.4.9-.9v-52.6c0-.5-.4-.9-.9-.9h-.1c-.5 0-.9.4-.9.9v52.6c0 .5.4.9.9.9zm-8.9-3.6h.1c.5 0 .9-.4.9-.9v-48.9c0-.5-.4-.9-.9-.9h-.1c-.5 0-.9.4-.9.9v48.9c0 .5.4.9.9.9z"/>
  </g>
  <path d="M329.79999 439h19.299999v2.5999999H329.79999z"/>
  <path fill="#070707" d="M408.9 449h-54.5v-13.3c0-15 12.2-27.3 27.3-27.3 15 0 27.3 12.2 27.3 27.3V449z"/>
  <path fill="#282a2b" d="M276 417.2c2.3 0 4.3 1.9 4.3 4.3v17.9c0 2.3-1.9 4.3-4.3 4.3-2.3 0-4.3-1.9-4.3-4.3v-13.7H245c-2.3 0-4.3-1.9-4.3-4.2 0-2.3 1.9-4.3 4.3-4.3h30.9c2.3 0 4.3 1.9 4.3 4.3"/>
  <circle cx="276" cy="440.29999" r="2.2" fill="#44f518"/>
  <path fill="#070707" d="M245.4 423.8v-5h1.2c.5 0 .8 0 .9.1.2.1.4.2.6.5.2.3.2.6.2 1s-.1.7-.2.9c-.1.2-.3.4-.5.5-.2.1-.5.1-1 .1h-.5v1.9h-.7zm.8-4.2v1.4h.4c.3 0 .5 0 .6-.1.1 0 .2-.1.3-.2.1-.1.1-.3.1-.4 0-.2 0-.3-.1-.4-.1-.1-.2-.2-.3-.2-.1 0-.3-.1-.6-.1h-.4zm2.6 1.7c0-.6.1-1.1.2-1.5.2-.4.4-.7.6-.9.2-.2.6-.3 1-.3.5 0 1 .2 1.3.7.3.4.5 1.1.5 1.9 0 .8-.2 1.5-.5 2-.3.4-.8.6-1.3.6-.6 0-1-.2-1.3-.6-.3-.4-.5-1.1-.5-1.9zm.8 0c0 .6.1 1 .3 1.3.2.3.5.4.8.4.3 0 .6-.1.8-.4.2-.3.3-.7.3-1.3 0-.6-.1-1-.3-1.3-.2-.3-.4-.4-.8-.4s-.6.1-.8.4c-.2.3-.3.7-.3 1.3zm4.1 2.5l-.9-5h.8l.6 3.4.7-3.4h.9l.7 3.5.6-3.5h.8l-.9 5h-1l-.8-3.7-.8 3.7h-.7zm4.5 0v-5h2.8v.8h-2.1v1.1h1.9v.8h-1.9v1.4h2.1v.8h-2.8zm3.5 0v-5h1.6c.4 0 .7 0 .9.1.2.1.3.2.4.5.1.2.2.5.2.8 0 .4-.1.7-.3.9-.2.2-.4.4-.7.5.2.1.3.3.4.4.1.2.3.4.4.8l.5 1h-.9l-.6-1.1c-.2-.4-.3-.6-.4-.7-.1-.1-.1-.2-.2-.2s-.2-.1-.4-.1h-.2v2.1h-.7zm.8-2.9h1.3c.1 0 .2-.1.2-.2.1-.1.1-.2.1-.4s0-.3-.1-.4c-.1-.1-.1-.2-.2-.2h-1.2v1.2z"/>
  <path fill="#282a2b" d="M469.6 417.2c-2.3 0-4.3 1.9-4.3 4.3v17.9c0 2.3 1.9 4.3 4.3 4.3 2.3 0 4.3-1.9 4.3-4.3v-13.7h26.8c2.3 0 4.3-1.9 4.3-4.2 0-2.3-1.9-4.3-4.3-4.3h-30.9c-2.3 0-4.3 1.9-4.3 4.3"/>
  <circle cx="469.60001" cy="440.29999" r="2.2" fill="#44f518"/>
  <path fill="#070707" d="M488.7 424.3v-5h1.2c.5 0 .8 0 .9.1.2.1.4.2.6.5.1.3.2.6.2 1s-.1.7-.2.9c-.1.2-.3.4-.5.5-.2.1-.5.1-1 .1h-.5v1.9h-.7zm.8-4.2v1.4h.4c.3 0 .5 0 .6-.1.1 0 .2-.1.3-.2.1-.1.1-.3.1-.4 0-.2 0-.3-.1-.4-.1-.1-.2-.2-.3-.2-.1 0-.3-.1-.6-.1h-.4zm5.8 4.2h-.8l-.3-1.1h-1.5l-.3 1.1h-.8l1.5-5h.8l1.4 5zm-1.4-2l-.5-1.9-.5 1.9h1zm1.8-3h1.4c.4 0 .6 0 .8.1.2.1.3.2.5.4s.3.5.4.8c.1.3.1.7.1 1.2 0 .4 0 .8-.1 1.1-.1.3-.2.6-.3.8-.1.2-.3.3-.5.4-.2.1-.5.1-.8.1h-1.4v-4.9zm.8.8v3.3h.6c.2 0 .4 0 .5-.1.1-.1.2-.1.3-.2.1-.1.1-.3.2-.5 0-.2.1-.5.1-.9s0-.7-.1-.9c-.1-.2-.1-.4-.2-.5-.1-.1-.2-.2-.4-.2h-1z"/>
  <path fill="#282a2b" d="M47 312.3H11.1c-2.2 0-3.9-1.8-3.9-3.9 0-2.2 1.8-3.9 3.9-3.9H47c2.2 0 3.9 1.8 3.9 3.9.1 2.1-1.7 3.9-3.9 3.9z"/>
  <path fill="#070707" d="M31.7 308.7l.7.3c-.1.6-.3 1-.6 1.2-.3.3-.6.4-1 .4-.5 0-.9-.2-1.2-.6-.4-.5-.5-1.1-.5-1.9 0-.9.2-1.5.5-2 .3-.4.7-.6 1.3-.6.4 0 .8.2 1.1.5.2.2.4.6.5 1l-.8.2c0-.3-.1-.5-.3-.6-.2-.1-.3-.2-.5-.2-.3 0-.5.1-.7.4-.2.3-.3.7-.3 1.3 0 .6.1 1.1.3 1.3.2.3.4.4.7.4.2 0 .4-.1.5-.3.1-.2.2-.4.3-.8zm1.4 1.9v-5h.8v2h1.5v-2h.8v5h-.8v-2.2h-1.5v2.2h-.8zm5.1-1.4l.7-.1c0 .2.1.4.2.5.1.1.2.2.4.2s.3-.1.4-.2c.1-.1.2-.4.2-.6 0-.2 0-.4-.1-.6-.1-.1-.2-.2-.4-.2-.1 0-.2 0-.3.1l.1-.8c.2 0 .3 0 .4-.2.1-.1.2-.3.2-.5s0-.3-.1-.4c-.1-.1-.2-.1-.3-.1-.1 0-.2.1-.3.2-.1.1-.1.3-.2.5l-.7-.2c.1-.5.2-.8.4-1 .2-.2.5-.3.8-.3.3 0 .6.1.8.4.2.3.3.6.3.9 0 .2 0 .4-.1.6-.1.2-.2.3-.4.5.2.1.4.2.5.4.1.2.2.5.2.8 0 .5-.1.8-.4 1.1-.3.3-.6.5-.9.5-.3 0-.6-.1-.8-.4-.4-.3-.6-.6-.6-1.1zm2.8 1.4l.9-5.2h.5l-1 5.2H41zm3.1 0v-1h-1.6v-.8l1.7-3.2h.6v3.2h.5v.8h-.5v1h-.7zm0-1.9V307l-.9 1.7h.9z"/>
  <circle cx="10.9" cy="308.39999" r="2.2" fill="#44f518"/>
  <path fill="#282a2b" d="M58 284.3H11.1c-2.2 0-3.9-1.8-3.9-3.9 0-2.2 1.8-3.9 3.9-3.9H58c2.2 0 3.9 1.8 3.9 3.9 0 2.1-1.7 3.9-3.9 3.9z"/>
  <path fill="#070707" d="M29.7 282.8h-.8l-.3-1.1h-1.5l-.3 1.1H26l1.5-5h.8l1.4 5zm-1.4-2l-.5-1.9-.5 1.9h1zm1.8 2v-5h.7l1.5 3.3v-3.3h.7v5h-.8l-1.5-3.3v3.3h-.6zm4.6 0v-4.2h-1.1v-.8h3v.8h-1.1v4.2h-.8zm3.6-1.6l.7-.1c.1.6.4 1 .8 1 .2 0 .4-.1.5-.2.1-.1.2-.3.2-.5 0-.1 0-.2-.1-.3 0-.1-.1-.1-.2-.2s-.3-.1-.7-.3c-.3-.1-.6-.2-.7-.3-.1-.1-.3-.3-.4-.5-.1-.2-.1-.4-.1-.7 0-.3.1-.5.2-.7.1-.2.3-.4.5-.5.2-.1.4-.2.7-.2.4 0 .8.1 1 .4.2.3.4.6.4 1.1h-.8c0-.3-.1-.5-.2-.6-.1-.1-.3-.2-.5-.2s-.4 0-.5.1c-.1.1-.2.2-.2.3 0 .1 0 .3.1.3.1.1.3.2.7.3.4.1.7.2.8.4.2.1.3.3.4.5.1.2.1.5.1.8 0 .4-.1.8-.4 1.1-.2.3-.6.4-1.1.4-.6.3-1.1-.3-1.2-1.4zm4.2 1.6l-.9-5h.8l.6 3.4.7-3.4h.9l.7 3.5.6-3.5h.8l-.9 5H45l-.7-3.7-.7 3.7h-1.1zm4.4 0v-5h.8v5h-.8zm2.3 0v-4.2h-1.1v-.8h3v.8H50v4.2h-.8zm4.7-1.8l.7.3c-.1.6-.3 1-.6 1.2-.3.2-.6.4-1 .4-.5 0-.9-.2-1.2-.6-.3-.5-.5-1.1-.5-1.9 0-.9.2-1.5.5-2 .3-.4.7-.6 1.2-.6.4 0 .8.2 1 .5.2.2.3.6.4 1l-.7.2c0-.3-.1-.5-.3-.6-.1-.1-.3-.2-.5-.2-.3 0-.5.1-.7.4-.2.3-.3.7-.3 1.3 0 .6.1 1.1.3 1.3.2.3.4.4.7.4.2 0 .4-.1.5-.3.3-.2.4-.5.5-.8zm1.4 1.8v-5h.7v2h1.5v-2h.8v5h-.8v-2.2H56v2.2h-.7z"/>
  <circle cx="10.7" cy="280.39999" r="2.2" fill="#44f518"/>
  <path fill="#282a2b" d="M215.4 369.5H99.2c-1.5 0-2.8-1.2-2.8-2.8v-26.3c0-1.5 1.2-2.8 2.8-2.8h116.2c1.5 0 2.8 1.2 2.8 2.8v26.3c-.1 1.6-1.3 2.8-2.8 2.8z"/>
  <path fill="#f79226" d="M200.9 346.5c2.2-.4 4.6.2 6.4 1.6 1.3 1 2.3 2.4 2.9 4 .6 1.9.7 3.9.1 5.8-.5 1.7-1.6 3.1-2.9 4.2-1.5 1.1-3.3 1.8-5.1 1.8-2.7 0-5.4-1.5-6.9-3.9-1.6-2.4-1.8-5.6-.7-8.3.9-2.8 3.4-4.8 6.2-5.2zm-4.3 4.8v1h.9v5.5h-.9v1h2.8v-1h-.9v-6.5h-1.9zm3.7.7v6.1c.2.3.4.5.6.7h6.2c.2-.3.7-.5.6-1v-2.6c-.1-.2-.3-.4-.5-.6h-6.1v-2.3h5.8v1h.9V352l-.6-.6h-6.4c-.1.1-.3.4-.5.6zm-88-5.2h1.6v14.8h1.8v-14.8h1.6V361c0 .3 0 .7-.1 1-.2.7-.8 1.3-1.5 1.3h-2c-.9 0-1.6-.8-1.6-1.7.2-5 .2-9.9.2-14.8zm9.2 0h3.4c.8 0 1.7.6 1.7 1.5v5.4c0 .8-.5 1.6-1.3 1.7.5 2.6 1.1 5.2 1.6 7.8h-1.5c-.6-2.6-1.1-5.1-1.7-7.7h-.6v7.7h-1.6v-16.4zm1.7 1.6v5.4h1.8v-5.4h-1.8zm7.8-1.6h3.5c.7 0 1.5.6 1.5 1.4v5.2c0 .5-.3.9-.7 1.2.3.3.6.6.6 1.1v5.4c0 .5.1 1-.2 1.4-.2.5-.8.8-1.3.8h-3.5c.1-5.5.1-11 .1-16.5zm1.6 1.6v5.4h1.8v-5.4h-1.8zm0 7.1v6.1h1.8v-6.1h-1.8zm8.7-8.6c.5-.1 1-.1 1.5-.1s1.1-.1 1.6.2c.5.3.9.8.9 1.4v12.7c0 .4 0 .8-.1 1.1-.3.5-.8 1-1.3 1.1h-1.6c-.3 0-.6 0-.9-.1-.6-.3-1.1-.9-1.1-1.6v-12.7c0-.3 0-.7.1-1 .1-.5.4-.8.9-1zm.6 1.6v13.1h1.7v-13.1h-1.7z"/>
  <path fill="#f79226" d="M201.2 355.6h5.6v2.2h-5.6v-2.2zm-92.3-12.1v1.6h-1.5v18.2h-1.9v-18.2H104v-1.6"/>
  <path fill="#d5e14d" d="M149.9 345.3c0-.8.6-1.7 1.4-1.8h2c.9-.1 1.8.8 1.8 1.8v2.9h-1.7v-3h-1.9v16.4h1.9v-8h-.8V352h2.5v11.1h-3.4c-.7 0-1.3-.4-1.6-1.1-.1-.3-.1-.7-.1-1.1-.1-5.1-.1-10.4-.1-15.6zm9.5 1.5h3.3c.7 0 1.4.4 1.6 1 .1.2.1.5.1.8v5.2c0 .7-.5 1.5-1.3 1.6.5 2.6 1.1 5.2 1.6 7.8h-1.5c-.6-2.6-1.1-5.2-1.7-7.7h-.5v7.7h-1.6v-16.4zm1.6 1.6v5.4h1.8v-5.4H161zm7.6-.1c0-.7.6-1.5 1.3-1.5h2.1c.4 0 .7.1 1 .3.3.3.5.7.5 1.2v14.9H172v-7.8h-1.9v7.8h-1.6c.1-4.9.1-9.9.1-14.9zm1.6.2v5.3h1.8v-5.3h-1.8zm7.4-.3c0-.7.6-1.4 1.3-1.4h2.6v1.5h-2.4v5.5h1.9v1.6h-1.9v7.8h-1.6c.1-5 .1-10 .1-15zm7.8-1.4h1.7v4.6c.3.5.6.9.9 1.4.3-.5.6-.9.9-1.4v-4.6h1.7v3.3c0 .5 0 1-.1 1.5-.4 1-.9 1.9-1.5 2.9.6 1 1.3 2.1 1.6 3.3v5.5h-1.5v-5.5c-.3-.6-.6-1-1-1.6-.3.5-.7 1-1 1.5v5.6h-1.6v-5.2c0-.5.2-.9.4-1.3.4-.8.8-1.6 1.3-2.3-.6-1-1.4-2.1-1.7-3.3-.1-1.4 0-2.9-.1-4.4z"/>
  <path fill="#0b0b0c" d="M0 379.89999h308.20001v3.8H0z"/>
  <path fill="#353636" d="M0 383.60001h308.20001v1H0z"/>
  <path fill="#151616" d="M0 384.60001h308.20001v1H0z"/>
  <path fill="#0b0b0c" d="M0 385.60001h308.20001v3.8H0z"/>
  <path fill="#353636" d="M0 389.39999h308.20001v1H0z"/>
  <path fill="#151616" d="M0 390.39999h308.20001v1H0z"/>
  <path fill="#0b0b0c" d="M0 391.39999h308.20001v3.8H0z"/>
  <path fill="#353636" d="M0 395.10001h308.20001v1H0z"/>
  <path fill="#151616" d="M0 396.10001h308.20001v1H0z"/>
  <path fill="#0b0b0c" d="M0 397.10001h308.20001v3.8H0z"/>
  <path fill="#353636" d="M0 400.89999h308.20001v1H0z"/>
  <path fill="#151616" d="M0 401.89999h308.20001v1H0z"/>
  <path fill="#0b0b0c" d="M0 402.89999h308.20001v3.8H0z"/>
  <path fill="#353636" d="M0 406.60001h308.20001v1H0z"/>
  <path fill="#151616" d="M0 407.60001h308.20001v1H0z"/>
  <path fill="#0b0b0c" d="M455.10001 379.89999h73.5v3.8h-73.5z"/>
  <path fill="#353636" d="M455.10001 383.60001h73.5v1h-73.5z"/>
  <path fill="#151616" d="M455.10001 384.60001h73.5v1h-73.5z"/>
  <path fill="#0b0b0c" d="M455.10001 385.60001h73.5v3.8h-73.5z"/>
  <path fill="#353636" d="M455.10001 389.39999h73.5v1h-73.5z"/>
  <path fill="#151616" d="M455.10001 390.39999h73.5v1h-73.5z"/>
  <path fill="#0b0b0c" d="M455.10001 391.39999h73.5v3.8h-73.5z"/>
  <path fill="#353636" d="M455.10001 395.10001h73.5v1h-73.5z"/>
  <path fill="#151616" d="M455.10001 396.10001h73.5v1h-73.5z"/>
  <path fill="#0b0b0c" d="M455.10001 397.10001h73.5v3.8h-73.5z"/>
  <path fill="#353636" d="M455.10001 400.89999h73.5v1h-73.5z"/>
  <path fill="#151616" d="M455.10001 401.89999h73.5v1h-73.5z"/>
  <path fill="#0b0b0c" d="M455.10001 402.89999h73.5v3.8h-73.5z"/>
  <path fill="#353636" d="M455.10001 406.60001h73.5v1h-73.5z"/>
  <path fill="#151616" d="M455.10001 407.60001h73.5v1h-73.5z"/>
  <path fill="#181919" fill-rule="evenodd" d="M495.2 267.6l-4.6-4.2-2.1 1.8 1 .7-1.2 5 2.4-.8-1.3-.9.7-2.6 4.9 4.2 1.7-5.7 1.7-.8-2.1-.9-1.1 4.2zm4.1-3.4c.1.1.3.3.3.4l-.6 2.2c0 .2-.3.3-.4.4-.2.1-.4.1-.6.1.2.1.3.1.5.2.1.1.3.2.2.4l-.7 2.2c-.1.2-.3.3-.5.4-.2.1-.4.2-.6.2h7.8l.5-2.2c-.3.5-.6.9-1.1 1.2-.5.3-1.2.5-2 .5h-1.4l.7-2.7c.3-.1.6-.1.8 0 .3.1.5.3.7.5.2.2.4.4.5.6l.7-2.9c-.3.2-.5.4-.8.6-.3.2-.6.3-.9.4-.3.1-.6.1-.9 0l.7-2.7h1.2c.5 0 1-.1 1.5.2.4.3.7.8 1.1 1.3l.6-2h-7.9c.2.5.5.5.6.7zm9.4.7c-.6.4-1.1.9-1.5 1.4-.4.5-.5 1.1-.5 1.7 0 .5.1 1 .4 1.5.3.4.7.9 1.2 1.1.5.3 1.2.4 1.7.5.6.1 1.1.1 1.5 0 .4 0 .7-.1 1-.2l1.6-2.6c-.4.2-.9.3-1.3.4-.4.1-.9.3-1.4.3-.5 0-1 0-1.5-.2s-.9-.6-1.1-1c-.2-.4-.2-.9-.1-1.3s.5-.8.8-1.1c.4-.3.8-.6 1.2-.8.4-.2.8-.3 1.2-.3l1.2 1.3 1.4-.4-1-1.8h-.9c-.3 0-.7.1-1.1.2-.4.1-.8.2-1.3.4-.3.2-1 .5-1.5.9z"/>
  <path fill="#16191b" d="M379.1 36H149.4c-6.6 0-12 5.4-12 12v206.4c0 6.6 5.4 12 12 12h229.7c6.6 0 12-5.4 12-12V48c0-6.6-5.4-12-12-12z"/>
  <path fill="#fff" fill-rule="evenodd" d="M153.4 51.4l-4.1-4.4-1.8 1.9.9.7-1.1 5.3 2.1-.9-1.1-.9.6-2.8 4.3 4.5 1.5-6.1 1.5-.8-1.8-1-1 4.5zm3.6-3.7c.1.1.3.3.3.5l-.5 2.4c0 .2-.2.3-.4.4-.1.1-.3.1-.5.1.2.1.3.1.4.2.1.1.2.2.2.4l-.6 2.3c-.1.2-.3.4-.5.5-.2.1-.4.2-.6.2h6.8l.5-2.3c-.3.5-.5 1-1 1.3-.4.3-1.1.6-1.7.6h-1.3l.6-2.9c.2-.1.5-.1.7 0 .2.1.4.3.6.5.2.2.3.4.5.7l.7-3c-.2.2-.5.4-.7.6-.3.2-.6.3-.8.4-.3.1-.5.1-.8 0l.6-2.8h1c.5 0 .9-.1 1.3.2.4.3.7.9.9 1.4l.5-2.1h-7c.5.2.7.3.8.4zm8.2.8c-.5.4-1 .9-1.3 1.5-.3.6-.5 1.2-.5 1.8 0 .6.1 1.1.4 1.6.3.5.6.9 1.1 1.2.5.3 1 .4 1.5.5.5.1 1 .1 1.3 0 .4 0 .6-.1.9-.3l1.4-2.7c-.4.2-.8.3-1.1.5-.3.2-.8.3-1.2.3-.4 0-.9 0-1.3-.2s-.8-.6-.9-1c-.2-.4-.2-.9-.1-1.3s.4-.8.7-1.2c.3-.3.7-.6 1.1-.8.4-.2.7-.3 1-.3l1.1 1.4 1.3-.4-.9-2h-.8c-.3 0-.6.1-1 .2s-.7.2-1.2.4c-.4.1-1 .4-1.5.8z"/>
  <g fill="#eff8fb">
    <path d="M377 47v.1c0 .1 0 .2-.4.2s-.4-.1-.4-.2v-.8c0-.1 0-.2.4-.2s.4.1.4.2v.1h.6v-.3c0-.3.1-.6-1-.6s-1 .3-1 .6v1.2c0 .3-.1.6 1 .6s1-.3 1-.6V47h-.6zm-8.8-1.4v2.2h.6v-1.6l.5 1.6h.6l.6-1.6v1.6h.5v-2.2h-.8l-.6 1.7-.5-1.7m9.7.6v1.6h-.5v-1.6h-.6v-.6h1.7v.6m-3.9 1.6h-.5l-.2-.4h-.7l.1-.4h.5l-.2-.9-.5 1.7h-.6l.6-2.2h.9m-8 .5c.4 0 .4.1.4.2v.8c0 .1 0 .2-.4.2s-.4-.1-.4-.2v-.8c-.1-.1-.1-.2.4-.2v-.5c-1.1 0-1 .3-1 .6v1.2c0 .3-.1.6 1 .6s1-.3 1-.6v-1.2c0-.3.1-.6-1-.6v.5zm-2 .9v.1c0 .1 0 .2-.4.2s-.4-.1-.4-.2v-.8c0-.1 0-.2.4-.2s.4.1.4.2v.1h.6v-.3c0-.3.1-.6-1-.6s-1 .3-1 .6v1.2c0 .3-.1.6 1 .6s1-.3 1-.6V47h-.6zm7.5.3h-.3v-.5h.3c.4 0 .4-.1.4-.2v-.2c0-.1 0-.2-.4-.2h-.3v1.7h-.6v-2.2h.9c1.1 0 1 .3 1 .6v.6c0 .2.1.4-1 .4zm-11 8.9h-3.5c-.5 0-.9-.4-.9-.9v-5.4c0-.5.4-.9.9-.9h2.2c.3 0 .5-.2.5-.5v-2.1c0-.1.1-.2.2-.2h1.3c.1 0 .2.1.2.2V56c0 .1-.1.2-.2.2h-.7v.5h.9c.3 0 .5-.2.5-.5V46.1c0-.3-.2-.5-.5-.5h-1.7c-.3 0-.5.2-.5.5v2.2c0 .1-.1.2-.2.2h-2c-.8 0-1.4.6-1.4 1.4v5.4c0 .8.6 1.4 1.4 1.4h3.5v-.5z"/>
    <path d="M360.1 54.2v-3.5c0-.3-.2-.5-.5-.5s-.5.2-.5.5v3.7c0 .3.2.5.5.5s.5-.2.5-.5v-.2h.5v.3c0 .6-.5 1-1 1-.6 0-1-.5-1-1v-3.7c0-.6.5-1 1-1 .6 0 1 .5 1 1v3.5l-.5-.1zm4.7 2h-.7c-.1 0-.2-.1-.2-.2v-6.8c0-.1.1-.2.2-.2h1.3c.1 0 .2.1.2.2V56c0 .1-.1.2-.2.2h-.6v.5h.8c.3 0 .5-.2.5-.5V49c0-.3-.2-.5-.5-.5h-1.7c-.3 0-.5.2-.5.5v7.2c0 .3.2.5.5.5h.9v-.5zm6.1-5.9h-1.4c-.4 0-.8.4-.8.8s.4.8.8.8h1.9c.5 0 .9.4.9.9v2.4c0 .5-.4.9-.9.9h-3.9c-.1 0-.2-.1-.2-.2V55c0-.1.1-.2.2-.2h2.6c.4 0 .8-.4.8-.8s-.4-.8-.8-.8h-1.9c-.5 0-.9-.4-.9-.9v-2.4c0-.5.4-.9.9-.9h3.6c.1 0 .2.1.2.2v1c0 .1-.1.2-.2.2l-.9-.1v.5h1.2c.3 0 .5-.2.5-.5V49c0-.3-.2-.5-.5-.5h-3.8c-.8 0-1.4.6-1.4 1.4v2.4c0 .8.6 1.4 1.4 1.4h1.9c.2 0 .3.1.3.3 0 .2-.1.3-.3.3h-2.8c-.3 0-.5.2-.5.5v1.3c0 .3.2.5.5.5h4.1c.8 0 1.4-.6 1.4-1.4v-2.4c0-.8-.6-1.4-1.4-1.4h-1.9c-.2 0-.3-.1-.3-.3 0-.2.1-.3.3-.3h1.4l-.1-.5zm7.2 1.3h.6c.1 0 .2-.1.2-.2v-1.6c0-.5-.4-.9-.9-.9h-3.1c-.5 0-.9.4-.9.9v5.4c0 .5.4.9.9.9h3.1c.5 0 .9-.4.9-.9v-1.5c0-.1-.1-.2-.2-.2h-1.2c-.1 0-.2.1-.2.2v.7c0 .6-.3 1-.9 1-.6 0-.9-.5-.9-1v-3.7c0-.6.3-1 .9-1 .6 0 .9.5.9 1v.7c0 .1.1.2.2.2h.6v.5h-.7c-.3 0-.5-.2-.5-.5v-.9c0-.3-.1-.5-.4-.5-.3 0-.4.2-.4.5v3.7c0 .3.1.5.4.5.3 0 .4-.2.4-.5v-.9c0-.3.2-.5.5-.5h1.6c.3 0 .5.2.5.5v1.7c0 .8-.6 1.4-1.4 1.4H375c-.8 0-1.4-.6-1.4-1.4v-5.4c0-.8.6-1.4 1.4-1.4h3.1c.8 0 1.4.6 1.4 1.4v1.8c0 .3-.2.5-.5.5h-1l.1-.5z"/>
  </g>
  <path fill="#131313" d="M161.8 259.8c-10.2 0-18.5-8.3-18.5-18.5s8.3-18.5 18.5-18.5 18.5 8.3 18.5 18.5-8.4 18.5-18.5 18.5zm0-34.4c-8.8 0-15.9 7.1-15.9 15.9s7.1 15.9 15.9 15.9 15.9-7.1 15.9-15.9-7.2-15.9-15.9-15.9z"/>
  <circle cx="161.8" cy="241.3" r="17.200001" fill="#1b0d18"/>
  <circle cx="146.89999" cy="237.3" r="1.2" fill="#a60998"/>
  <g fill="#fff">
    <path d="M146.5 214.1v-3h-1v-.6h2.6v.6h-1v3h-.6zm2 0v-3.6h1.4c.3 0 .6 0 .8.1.2.1.3.2.4.4.1.2.1.4.1.6 0 .3-.1.5-.2.7-.1.2-.4.3-.6.3.1.1.3.2.4.3.1.1.2.3.4.6l.4.7h-.8l-.5-.8c-.2-.3-.3-.5-.3-.5l-.2-.2h-.4v1.5h-.9zm.7-2.1h1.1c.1 0 .1-.1.2-.2 0-.1.1-.2.1-.3 0-.1 0-.2-.1-.3-.1-.1-.1-.1-.2-.1h-1v.9z"/>
    <path d="M154.7 214.1h-.7l-.3-.8h-1.3l-.3.8h-.7l1.3-3.6h.7l1.3 3.6zm-1.2-1.5l-.4-1.4-.4 1.4h.8zm3.6.1l.6.2c-.1.4-.3.7-.5.9-.2.2-.5.3-.9.3s-.8-.2-1.1-.5c-.3-.3-.4-.8-.4-1.4 0-.6.1-1.1.4-1.4.3-.3.6-.5 1.1-.5.4 0 .7.1 1 .4.1.2.3.4.3.7l-.6.2c0-.2-.1-.3-.2-.4-.1-.1-.3-.2-.4-.2-.2 0-.4.1-.6.3-.1.2-.2.5-.2.9 0 .5.1.8.2 1 .1.2.3.3.6.3.2 0 .3-.1.4-.2.2-.1.3-.3.3-.6zm1.2 1.4v-3.6h.7v1.6l1.3-1.6h.9l-1.2 1.4 1.3 2.2h-.8l-.9-1.7-.6.6v1.1h-.7z"/>
  </g>
  <path fill="#fff" d="M145.7 220v-3.6h1l.6 2.5.6-2.5h1v3.6h-.6v-2.9l-.6 2.9h-.7l-.6-2.9v2.9h-.7zm3.7-1.8c0-.4 0-.7.1-.9.1-.2.2-.4.3-.5.1-.1.3-.3.4-.3.2-.1.4-.1.7-.1.5 0 .9.2 1.1.5.3.3.4.8.4 1.4 0 .6-.1 1.1-.4 1.4-.3.3-.7.5-1.1.5-.5 0-.9-.2-1.2-.5-.2-.5-.3-.9-.3-1.5zm.7 0c0 .4.1.7.3.9.2.2.4.3.6.3.3 0 .5-.1.6-.3.1-.2.3-.5.3-1 0-.4-.1-.7-.2-.9-.2-.2-.4-.3-.6-.3-.3 0-.5.1-.7.3-.3.2-.3.6-.3 1zm2.9-1.8h1.2c.3 0 .5 0 .6.1.2.1.4.2.5.3l.3.6c.1.2.1.5.1.9 0 .3 0 .6-.1.8-.1.3-.2.5-.3.6-.1.1-.3.2-.5.3-.1.1-.3.1-.6.1H153v-3.7zm.7.6v2.4h.9c.1 0 .2-.1.3-.2.1-.1.1-.2.2-.4 0-.2.1-.4.1-.7 0-.3 0-.5-.1-.6-.1-.1-.1-.3-.2-.4-.1-.1-.2-.1-.3-.2h-.9zm2.6 3v-3.6h2.4v.6H157v.8h1.6v.6H157v1h1.8v.6h-2.5zm28.3 28.5v-3.6h1.4c.3 0 .6 0 .8.1.2.1.3.2.4.4.1.2.1.4.1.6 0 .3-.1.5-.2.7-.1.2-.4.3-.6.3.1.1.3.2.4.3.1.1.2.3.4.6l.4.7h-.8l-.5-.8c-.2-.3-.3-.5-.3-.5l-.2-.2c-.1-.1-.2 0-.3 0h-.1v1.5h-.9zm.7-2.1h1.1c.1 0 .1-.1.2-.2 0-.1.1-.2.1-.3 0-.1 0-.2-.1-.3-.1-.1-.1-.1-.2-.1h-1v.9zm2.6 2.1v-3.6h2.4v.6h-1.7v.8h1.6v.6h-1.6v1h1.8v.6h-2.5zm3 0v-3.6h1.1c.4 0 .7 0 .8.1.2.1.3.2.5.4.1.2.2.4.2.7 0 .2 0 .4-.1.6-.1.2-.2.3-.3.4-.1.1-.2.1-.3.2-.2 0-.4.1-.7.1h-.4v1.4h-.8zm.7-3v1h.4c.3 0 .4 0 .5-.1.1 0 .2-.1.2-.2s.1-.2.1-.3c0-.1 0-.2-.1-.3-.1-.1-.2-.1-.3-.2h-.8zm2.4 3v-3.6h2.4v.6h-1.7v.8h1.6v.6h-1.6v1h1.8v.6H194zm5.9 0h-.7l-.3-.8h-1.3l-.3.8h-.7l1.3-3.6h.7l1.3 3.6zm-1.2-1.4l-.4-1.4-.4 1.4h.8zm1.9 1.4v-3h-1v-.6h2.6v.6h-1v3h-.6z"/>
  <path fill="#131313" d="M381.2 216.1c-4.6 0-8.3-3.7-8.3-8.3 0-4.6 3.7-8.3 8.3-8.3 4.6 0 8.3 3.7 8.3 8.3 0 4.6-3.7 8.3-8.3 8.3zm0-15.2c-3.8 0-7 3.1-7 7s3.1 7 7 7c3.8 0 7-3.1 7-7s-3.2-7-7-7z"/>
  <path fill="#707070" d="M381.2 215.4c-4.2 0-7.6-3.4-7.6-7.6 0-4.2 3.4-7.6 7.6-7.6 4.2 0 7.6 3.4 7.6 7.6 0 4.2-3.4 7.6-7.6 7.6zm0-12.6c-2.8 0-5 2.3-5 5 0 2.8 2.3 5 5 5 2.8 0 5-2.3 5-5 0-2.8-2.2-5-5-5z"/>
  <circle cx="381.20001" cy="207.8" r="6.3000002" fill="#212327"/>
  <path fill="#fff" d="M379.20001 205.8h4.0999999v4.0999999H379.20001z"/>
  <path fill="#131313" d="M374.6 246.2c-7.9 0-14.4-6.5-14.4-14.4s6.5-14.4 14.4-14.4 14.4 6.5 14.4 14.4-6.4 14.4-14.4 14.4zm0-27.5c-7.2 0-13.1 5.9-13.1 13.1 0 7.2 5.9 13.1 13.1 13.1 7.2 0 13.1-5.9 13.1-13.1 0-7.2-5.8-13.1-13.1-13.1z"/>
  <path fill="#707070" d="M374.6 245.5c-7.6 0-13.7-6.2-13.7-13.7 0-7.6 6.2-13.7 13.7-13.7 7.6 0 13.7 6.2 13.7 13.7.1 7.6-6.1 13.7-13.7 13.7zm0-22.8c-5 0-9.1 4.1-9.1 9.1s4.1 9.1 9.1 9.1 9.1-4.1 9.1-9.1-4.1-9.1-9.1-9.1z"/>
  <circle cx="374.60001" cy="231.8" r="11.4" fill="#212327"/>
  <path fill="#fff" d="M367.4 234.5v-5.4l6.4 2.7m1.7-2.69999h2.9000001v5.4000001H375.5zm3.60001 0h2.9000001v5.4000001H379.10001z"/>
  <path fill="#070707" d="M378.1 188.2v-2.8h.6v2.3h1.4v.5h-2zm2.4 0v-2.8h.6v2.8h-.6zm1.1 0v-2.8h1.9v.5h-1.3v.7h1.2v.5h-1.2v1.2h-.6zm3 0v-2.3h-.8v-.5h2.2v.5h-.8v2.3h-.6zm-8 3.2c0-.3 0-.5.1-.7.1-.1.1-.3.3-.4.2-.1.2-.2.4-.3.2-.1.4-.1.6-.1.4 0 .7.1 1 .4.3.3.4.6.4 1.1 0 .4-.1.8-.4 1.1-.2.3-.6.4-1 .4s-.7-.1-1-.4c-.3-.3-.4-.6-.4-1.1zm.6 0c0 .3.1.6.2.7.1.2.3.2.6.2s.4-.1.6-.2c.1-.2.2-.4.2-.7 0-.3-.1-.6-.2-.7-.1-.2-.3-.2-.6-.2s-.4.1-.6.2c-.2.2-.2.4-.2.7zm2.5 1.4V190h1.6c.2 0 .3.1.4.3.1.1.2.3.2.5s0 .3-.1.4c-.1.1-.1.2-.2.3-.1.1-.2.1-.3.1h-1v1.1h-.6zm.6-2.3v.8h.7c.1 0 .1-.1.2-.1s.1-.1.1-.2 0-.2-.1-.3c-.1-.1-.1-.1-.2-.1h-.7zm2 2.3V190h2.1v.5h-1.5v.6h1.4v.5h-1.4v.8h1.6v.5h-2.2zm2.6 0V190h.5l1.1 1.9V190h.5v2.8h-.6l-1.1-1.8v1.8h-.4z"/>
  <path d="M264.3 257.9c-41.2 0-78.4-22.6-97.4-59.1h-29.4v-2.6H169v1c18.5 35.9 55 58.1 95.3 58.1s76.8-22.3 95.3-58.1v-1h31.5v2.6h-29.4c-19 36.5-56.2 59.1-97.4 59.1z"/>
  <circle cx="264.29999" cy="148" r="108.5" fill="#242729"/>
  <circle cx="264.29999" cy="148" r="103.1" fill="#141618"/>
  <path fill="#0f0f0f" d="M362.6 116.9c3.1 9.8 4.8 20.2 4.8 31.1 0 10.8-1.7 21.3-4.8 31.1H165.9c-3.1-9.8-4.8-20.2-4.8-31.1 0-10.8 1.7-21.3 4.8-31.1h196.7"/>
  <path fill="#fff" d="M363.9 243.7v4.9h-1.8v-2.3l-4.5 2.1v-2.1l-4.5 2.1v-4.5l4.5 2.1v-2.1l4.5 2.1v-2.3h1.8zm-23.6 0v2.3l4.5-2.1v2.1l4.5-2.1v4.5l-4.5-2.1v2.1l-4.5-2.1v2.3h-1.8v-4.9h1.8z"/>
  <path fill="#131313" d="M367.4 260.6h-32.5c-3 0-5.5-2.5-5.5-5.5s2.5-5.5 5.5-5.5h32.5c3 0 5.5 2.5 5.5 5.5s-2.5 5.5-5.5 5.5zm-32.5-9.7c-2.3 0-4.2 1.9-4.2 4.2 0 2.3 1.9 4.2 4.2 4.2h32.5c2.3 0 4.2-1.9 4.2-4.2 0-2.3-1.9-4.2-4.2-4.2h-32.5z"/>
  <path fill="#707070" d="M367.6 259.9h-32.8c-2.6 0-4.6-2.1-4.6-4.6v-.4c0-2.6 2.1-4.6 4.6-4.6h32.8c2.6 0 4.6 2.1 4.6 4.6v.4c0 2.5-2.1 4.6-4.6 4.6z"/>
  <path fill="#212327" d="M367.1 257.1h-31.9c-1.1 0-2-.9-2-2v-.1c0-1.1.9-2 2-2h31.9c1.1 0 2 .9 2 2v.2c0 1-.9 1.9-2 1.9z"/>
  <path fill="#d3d8ca" d="M334.79999 254.5h33v1.1h-33z"/>
  <path fill="#242729" d="M350.39999 251.7h1.4v6.6999998h-1.4z"/>
  <path fill="#131313" d="M199.4 263.2h-13.9c-2.7 0-4.8-2.2-4.8-4.8 0-2.7 2.2-4.8 4.8-4.8h8c1.1-2.2 3.4-3.6 5.9-3.6 3.6 0 6.6 3 6.6 6.6 0 3.4-2.6 6.2-5.9 6.6h-.7zm-13.9-8.4c-1.9 0-3.5 1.6-3.5 3.5s1.6 3.5 3.5 3.5h13.8c2.9 0 5.3-2.4 5.3-5.3s-2.4-5.3-5.3-5.3c-2.1 0-4 1.3-4.9 3.2l-.5-.2v.6h-8.4z"/>
  <path fill="#707070" d="M199.4 262.5h-14c-2.2 0-4-1.8-4-4v-.3c0-2.2 1.8-4 4-4h14v8.3z"/>
  <circle cx="186" cy="258.5" r="2.4000001" fill="#43544a"/>
  <circle cx="199.39999" cy="256.60001" r="5.9000001" fill="#707070"/>
  <circle cx="199.39999" cy="256.60001" r="4.5" fill="#212327"/>
  <path fill="#27292b" d="M214.6 170.1c-2.8-6.8-4.3-14.2-4.3-22 0-7.8 1.5-15.2 4.3-22h-40.5c-1.7 7-2.6 14.4-2.6 21.9 0 7.6.9 15 2.7 22.1h40.4zm99.4-.2c2.8-6.8 4.3-14.2 4.3-22 0-7.8-1.5-15.2-4.3-22h40.5c1.7 7 2.6 14.4 2.6 21.9 0 7.6-.9 15-2.7 22.1H314z"/>
  <path fill="#e6e6e6" d="M911.35763818 433.57296438c0 3.57107275-2.8568582 6.42793095-6.42793095 6.42793095h-98.13307917c-3.57107275 0-6.42793095-2.8568582-6.42793095-6.42793095v-158.5556301c0-3.57107275 2.8568582-6.42793095 6.427931-6.42793095h98.1330792c3.5710728 0 6.427931 2.8568582 6.427931 6.42793095v158.5556301z"/>
  <path fill="#b3b3b3" d="M804.6539987 328.1548968h102.13268064v96.5618043H804.6539987z"/>
  <path fill="#202022" d="M803.0827124 272.303319v44.70983082c0 3.57107275 2.8568582 6.57077386 6.42793095 6.57077386h92.27651986c3.5710728 0 6.427931-2.9997011 6.427931-6.57077386V272.303319H803.0827124z"/>
  <path d="M803.0827124 272.30331842h105.1323789v8.85626013H803.0827124z"/>
  <path fill="#ccc" d="M871.07593756 437.28688004v-4.99950185l-15.28419136-4.5709732-15.4270343 4.5709731v4.9995019"/>
  <path fill="#f7b71d" d="M805.9395706 274.44596264h1.571272v5.99940193h-1.571272zm2.714001-.85705717h1.57127202v6.85645996h-1.571272zm2.57118667 0h1.571272v6.85645996h-1.571272zm2.71402957 0h1.571272v6.85645996h-1.571272zm2.57114382 0h1.571272v6.85645996h-1.571272zm2.71402957 0h1.571272v6.85645996h-1.571272zm2.57118667 0h1.571272v6.85645996h-1.571272zm2.714001 0h1.571272v6.85645996h-1.571272zm2.57117238 0h1.571272v6.85645996h-1.571272zm2.7140153 0h1.571272v6.85645996h-1.571272zm2.71402956 0h1.571272v6.85645996h-1.571272zm2.57114382 0h1.571272v6.85645996h-1.571272zm2.71402957 0h1.571272v6.85645996h-1.571272zm2.57118667 0h1.571272v6.85645996h-1.571272zm2.714001 0h1.571272v6.85645996h-1.571272zm2.57117238 0h1.571272v6.85645996h-1.571272zm2.7140153 0h1.571272v6.85645996h-1.571272zm2.57117237-1.28558705h1.571272v8.85626013h-1.571272zm2.714001 1.28558705h1.571272v6.85645996h-1.571272zm2.71402958 0h1.571272v6.85645996h-1.571272zm2.57118667 0h1.571272v6.85645996h-1.571272zm2.714001 0h1.571272v6.85645996h-1.571272zm2.57117238 0h1.571272v6.85645996h-1.571272zm2.7140153 0h1.571272v6.85645996h-1.571272zm2.57117237 0h1.571272v6.85645996h-1.571272zm2.714001 0h1.571272v6.85645996h-1.571272zm2.57118667 0h1.571272v6.85645996h-1.571272zm2.71402958 0h1.571272v6.85645996h-1.571272zm2.5711438 0h1.57127202v6.85645996h-1.571272zm2.71402958 0h1.571272v6.85645996h-1.571272zm2.7140153 0h1.571272v6.85645996h-1.571272zm2.57117237 0h1.571272v6.85645996h-1.571272zm2.714001 0h1.571272v6.85645996h-1.571272zm2.57118667 0h1.571272v6.85645996h-1.571272zm2.71402958 0h1.571272v6.85645996h-1.571272zm2.5711438 0h1.57127202v6.85645996h-1.571272zm2.71402958 0h1.571272v6.85645996h-1.571272zm2.57118666-1.28558705h1.571272v8.85626013h-1.571272z"/>
  <path fill="#fff" stroke="#000" stroke-width=".53408998" stroke-miterlimit="2.61310005" d="M843.2215701 380.8639306v35.56788458h24.99750926v-35.5678846z"/>
  <path d="M843.93578466 381.86383096v33.56808385H867.219179V381.863831"/>
  <path fill="#fff" d="M846.0784283 384.29216043h-1.14274327v-1.14274328h3.28538693v.99990037h-.99990037v13.85576227h-1.1427433m3.9996015-5.1423448h1.2855861v-9.7133179h1.1427433v9.7133179c0 .5713716-.5713717 1.1427433-1.1427433 1.1427433h-1.2855862c-.5713717 0-1.1427433-.5713717-1.1427433-1.1427433v-9.7133179h1.1427433v9.7133179zm3.4282298 1.1427432V383.29226h2.2854865c.5713716 0 1.1427432.42852874 1.1427432.99990038v3.57107274c0 .57137164-.4285288 1.14274328-.8570575 1.14274328l1.1427433 5.14234476h-.9999004l-1.1427433-4.99950185h-.5713716v4.9995019h-.9999004v-.1428429zm4.4281302-10.7132183h2.4283295c.5713716 0 .9999004.4285287.9999004.9999003v3.2853869c0 .4285287-.4285288.7142145-.4285288.7142145s.4285287.2856858.4285287.7142145v3.8567586c0 .7142145-.5713717.9999003-.9999004.9999003h-2.4283295V383.29226zm6.1422451-.1428429h.5713716c.7142145 0 1.1427433.5713716 1.1427433.9999003v12.8558619c0 .4285287-.5713717.9999003-.9999004.9999003h-1.2855862c-.4285288 0-1.1427433-.5713717-1.1427433-.9999004v-12.713019c0-.4285287.4285287-.9999004 1.1427432-.9999004h.5713716v-.1428429zm-16.8554634 22.5691797h1.7141149v8.4277317h-2.4283294c-.5713717 0-1.1427433-.4285288-1.1427433-.9999004v-12.713019c0-.5713716.5713716-1.1427433 1.1427433-1.1427433h1.2855862c.5713717 0 1.1427433.5713716 1.1427433 1.1427433v2.9997011h-1.1427432v-2.9997011h-1.2855862v12.713019h1.2855862v-6.427931h-.5713717v-.9999004zm2.8568582 8.4277317v-10.7132182h2.2854865c.5713716 0 1.1427433.4285287 1.1427433.9999003v3.5710727c0 .5713716-.4285288 1.1427432-.8570575 1.1427432l1.1427432 5.1423447h-.9999004l-1.1427433-4.9995019h-.4285288v4.9995019h-1.1427433v-.1428429zm5.5708734-5.1423448v5.1423447H854.50616v-9.7133179c0-.4285288.42852873-.9999004.99990037-.9999004h1.4284291c.57137164 0 .99990037.4285287.99990037.9999004v9.7133178h-.99990037v-5.1423448h-1.2855862zm4.5709731 0v5.1423447h-.9999004v-9.7133179c0-.4285288.4285287-.8570575.8570574-.8570575h1.7141149v.9999003h-1.571272v3.5710727h1.2855862v.9999003l-1.2855862-.1428429zm2.1426436-9.7133179h1.1427433v5.4280306l.5713716.9999003.5713716-.8570575v-5.4280306h1.1427433v5.1423447c0 .5713716-1.1427433 2.2854865-1.1427433 2.2854865s1.1427433 1.7141149 1.1427433 2.2854866v5.1423447h-.9999004v-5.2851877l-.7142146-.9999004-.7142146.9999003v5.2851876h-1.1427433v-5.1423448c0-.5713716 1.1427433-2.28548657 1.1427433-2.28548657s-1.1427433-1.571272-1.1427433-2.28548656l.1428429-5.2851877z"/>
  <path d="M854.50616 384.29216043v3.42822984h1.2855862v-3.42822984m-4.71381604 20.1408503v3.57107276h1.2855862v-3.5710728m6.71361676-20.1408503v3.4282298h1.14274328v-3.4282299m-1.14274328 4.5709731v3.9996014h1.14274328v-3.9996015m3.42822984-4.5709731v12.713019h1.14274328v-12.713019m-9.14194624 20.1408503v3.5710727h1.2855862v-3.5710728"/>
  <path fill="#fff" d="M852.934888 402.43321c-1.71411493 0-3.57107276-1.4284291-3.57107276-3.71391566 0-2.14264365 1.85695783-3.71391566 3.57107275-3.71391566V402.43321zm5.14234475 0c1.71411492 0 3.57107275-1.4284291 3.57107275-3.71391566 0-2.14264365-1.85695783-3.71391566-3.57107275-3.71391566V402.43321zm-5.14234475-7.42783132V402.43321h5.14234475v-7.42783132"/>
  <path d="M852.79204508 401.71899545c-.85705746 0-2.7140153-.99990037-2.7140153-3.14254402 0-1.85695783 1.71411493-2.9997011 2.7140153-2.9997011v6.14224512zm5.5708735 0c.85705745 0 2.7140153-.99990037 2.7140153-3.14254402 0-1.85695783-1.71411494-2.9997011-2.7140153-2.9997011v6.14224512zm-5.5708735-6.14224513v6.14224513h5.5708735v-6.14224513"/>
  <path fill="#fff" d="M853.64910254 400.861938h-1.71411492v-.57137165h.57137164v-3.14254402h-.57137164v-.71421455h1.14274328v3.85675857h.57137164m.85705746.1428429v-3.57107274l.28568582-.2856858h3.99960148l.28568582.2856858v.8570575h-.57137164v-.5713716h-3.42822984v1.2855862h3.71391566l.28568582.2856858v1.714115l-.42852873.4285288h-3.7139157"/>
  <path d="M855.07753164 399.00498016v1.2855862h3.42822984v-1.2855862"/>
  <path fill="#231f20" d="M885.07454274 419.5743592h-1.4284291l-.42852873 1.71411492h-.8570574l.8570575-3.85675857h.8570575l-.2856858 1.4284291h1.4284291l.2856859-1.4284291h.8570575l-.8570574 3.85675857h-.8570574l.4285288-1.71411492zm1.71411492-.99990037h.71421455l-.2856858 1.71411492v.42852873c0 .1428429 0 .1428429.1428429.1428429 0 0 .1428429.14284292.2856859.14284292h.1428429s.1428429 0 .1428429-.1428429l.1428429-.14284292s.1428429-.1428429.1428429-.28568582c0-.1428429 0-.1428429.1428429-.42852873l.2856859-1.2855862h.7142146l-.5713716 2.8568582h-.7142145l.1428429-.42852872c-.2856858.2856859-.7142145.4285288-.9999003.4285288s-.4285287 0-.5713717-.1428429c-.1428429-.1428429-.1428429-.2856858-.1428429-.5713716 0-.1428429 0-.2856858.1428429-.5713716l.1428429-1.7141149zm5.5708735 1.4284291l.85705745.1428429c-.1428429.42852874-.4285287.71421456-.7142145.99990038-.2856858.2856859-.7142145.2856859-1.1427433.2856859-.4285287 0-.8570574-.1428429-1.1427433-.4285287-.2856858-.2856858-.4285287-.7142145-.4285287-1.2855862 0-.4285287.1428429-.8570574.2856858-1.1427432.1428429-.4285287.4285288-.5713716.7142146-.8570574.2856858-.1428429.7142146-.2856858.9999004-.2856858.4285288 0 .7142146.1428429.9999004.2856858.2856858.2856859.4285288.5713717.4285288.8570575l-.7142145.1428429c0-.2856858-.1428429-.4285287-.2856858-.4285287-.1428429-.1428429-.2856858-.1428429-.4285287-.1428429-.2856858 0-.4285287 0-.5713716.1428429-.1428429.142843-.2856858.2856859-.4285287.5713717-.1428429.2856858-.1428429.5713717-.1428429.8570575 0 .2856859.1428429.5713717.2856858.7142146s.2856859.2856858.5713717.2856858c.1428429 0 .4285288 0 .5713717-.1428429 0-.1428429.1428429-.2856858.2856858-.5713716zm3.57107274.57137164h-1.4284291l-.42852873.85705746h-.85705746l2.1426437-3.85675857h.8570575l.5713717 3.85675857h-.7142145l-.1428429-.85705746zm0-.71421455l-.28568582-1.571272-.99990037 1.571272h1.2855862zm2.14264365 1.571272h-.71421455l.85705746-3.85675856h1.71411492c.28568582 0 .57137164 0 .71421455.1428429.1428429 0 .28568582.14284292.42852873.28568583.1428429.1428429.1428429.2856858.1428429.5713716s-.1428429.5713716-.2856858.8570574c-.14284292.1428429-.42852874.2856858-.85705747.4285287.1428429.1428429.1428429.1428429.2856858.4285287s.4285287.7142145.5713716 1.2855862h-.8570575c0-.2856859-.1428429-.5713717-.4285288-.9999004-.1428429-.2856858-.2856858-.4285287-.2856858-.5713717-.1428429 0-.1428429-.1428429-.4285288-.1428429h-.2856858l-.5713717 1.571272zm.57137164-2.28548655h.4285287c.4285287 0 .7142145 0 .8570574-.1428429.1428429 0 .2856858-.14284292.2856858-.28568583.1428429-.1428429.1428429-.28568582.1428429-.28568582 0-.1428429 0-.28568582-.1428429-.28568582h-1.4284291l-.1428429.99990037zm2.5711723 2.28548656l.8570574-3.85675857h1.571272c.1428429 0 .2856858 0 .4285287.1428429.1428429 0 .2856858.14284292.2856858.14284292l.2856858.28568582c.1428429.1428429.1428429.28568582.1428429.42852873v.57137164c0 .42852873-.1428429.71421455-.2856858 1.14274328-.1428429.28568582-.4285288.57137164-.5713717.71421455-.1428429.1428429-.4285288.28568582-.7142146.28568582h-1.9998008zm.9999003-.71421455h.9999003s.2856858-.1428429.4285287-.1428429c.1428429-.14284292.2856858-.28568583.4285287-.57137165.1428429-.28568582.1428429-.57137164.1428429-.85705746 0-.28568582 0-.42852873-.1428429-.57137164-.1428429-.1428429-.1428429-.28568582-.2856858-.28568582h-.8570575l-.7142146 2.4283295z"/>
  <path fill="#604832" d="M755.37318046 354.29514933c0 50.70923305-41.13875808 91.84799113-91.84799113 91.84799113-50.70923305 0-91.99083404-41.13875808-91.99083404-91.84799113 0-50.70923305 41.2816009-91.99083404 91.990834-91.99083404s91.8479911 41.138758 91.8479911 91.990834zm-76.13527103-33.42524094c-4.85665894-2.2854866-10.1418466-3.5710728-15.7127201-3.5710728-20.42653613 0-36.9963137 16.5697775-36.9963137 36.9963137 0 20.4265361 16.56977757 36.9963137 36.9963137 36.9963137 20.42653613 0 36.9963137-16.5697776 36.9963137-36.9963137 0-14.7128197-8.71341752-27.5686816-21.2835936-33.425241"/>
  <path fill="#0f1417" d="M663.52518933 448.99999866c-52.28050506 0-94.70484933-42.56718718-94.70484933-94.70484933 0-52.13766215 42.42434427-94.70484933 94.70484933-94.70484933s94.70484933 42.42434427 94.70484933 94.70484933-42.56718718 94.70484933-94.70484933 94.70484933zm0-189.26685575c-52.13766215 0-94.56200642 42.4243443-94.56200642 94.5620065s42.4243443 94.5620064 94.5620065 94.5620064 94.5620064-42.4243442 94.5620064-94.5620064-42.4243442-94.5620064-94.5620064-94.5620064z"/>
  <path fill="#a198a0" d="M663.52518933 370.72208398c-8.99910333 0-16.42693465-7.42783132-16.42693465-16.42693465s7.42783132-16.42693465 16.42693465-16.42693465 16.42693465 7.42783132 16.42693465 16.42693465-7.42783132 16.42693465-16.42693465 16.42693465zm0-31.71112602c-8.4277317 0-15.28419137 6.85645968-15.28419137 15.28419137 0 8.4277317 6.85645968 15.28419137 15.28419137 15.28419137 8.4277317 0 15.28419137-6.85645968 15.28419137-15.28419137 0-8.4277317-6.85645968-15.28419137-15.28419137-15.28419137z"/>
  <path fill="#a198a0" d="M663.52518933 367.57953996c-7.2849884 0-13.28439063-5.99940222-13.28439063-13.28439063 0-7.2849884 5.99940222-13.28439063 13.28439063-13.28439063 7.2849884 0 13.28439063 5.99940222 13.28439063 13.28439063 0 7.2849884-5.99940222 13.28439063-13.28439063 13.28439063zm0-25.42603798c-6.71361677 0-12.14164735 5.42803058-12.14164735 12.14164735s5.42803058 12.14164735 12.14164735 12.14164735 12.14164735-5.42803058 12.14164735-12.14164735-5.42803058-12.14164735-12.14164735-12.14164735z"/>
  <path fill="#1e1c1a" d="M571.5343553 354.29514933c0 50.70923305 41.13875807 91.84799113 91.84799112 91.84799113s91.84799113-41.13875808 91.84799113-91.84799113l.28568582-.42852873h-54.99452035c0 20.42653613-15.99840592 36.9963137-36.42494205 36.9963137s-36.9963137-16.56977757-36.9963137-36.9963137h-55.7087349"/>
  <path fill="#604832" d="M651.95491362 399.00498016c0-.85705746.57137164-1.571272 1.4284291-1.71411492h1.99980074c.99990037-.1428429 1.85695783.71421455 1.71411492 1.71411492v2.8568582h-1.71411492v-2.8568582h-1.85695783v15.7127201h1.85695783v-7.57067423h-.85705746v-1.571272h2.42832947v10.71321824h-3.42822984c-.71421455 0-1.2855862-.42852873-1.571272-.99990037-.14284292-.28568582-.14284292-.71421455-.14284292-.99990037.142843-5.14234476.142843-10.28468952.142843-15.28419137zm9.42763206 1.4284291h3.28538693c.7142146 0 1.4284291.42852873 1.714115.99990037.1428429.28568582.1428429.57137164.1428429.71421455v4.99950185c0 .71421455-.5713716 1.4284291-1.2855862 1.571272.5713717 2.42832948.9999004 4.99950186 1.571272 7.42783133h-1.571272c-.5713716-2.42832947-1.1427433-4.99950185-1.7141149-7.42783132h-.5713716v7.42783132h-1.571272v-15.7127201zm1.571272 1.571272v5.14234477h1.85695784v-5.14234476h-1.85695783zm7.71351715 0c0-.71421454.57137164-1.4284291 1.2855862-1.4284291h2.14264364c.42852873 0 .71421455.1428429.99990037.28568583.28568582.2856858.57137164.7142145.57137164 1.1427432v14.284291h-1.571272v-7.4278313h-1.85695784v7.4278313h-1.571272v-14.284291zm1.571272.1428429v4.99950187h1.85695784v-4.99950185h-1.85695783zm7.42783133-.2856858c0-.71421455.57137164-1.2855862 1.2855862-1.2855862h2.57117237v1.4284291h-2.42832947v5.28518768h1.99980074v1.571272h-1.99980074v7.42783133h-1.571272c.1428429-4.85665894.1428429-9.71331788.1428429-14.4271339zm7.85636004-1.4284291h1.71411493v4.4281302c.28568582.42852874.57137164.85705747.85705746 1.4284291l.8570574-1.28558618v-4.4281302h1.7141149v3.142544c0 .42852874 0 .99990038-.1428429 1.4284291-.4285288.99990038-.8570575 1.85695784-1.4284291 2.7140153.5713716.99990037 1.2855862 1.99980074 1.571272 3.14254402v5.28518767h-1.571272v-5.28518767c-.2856859-.57137164-.7142146-.99990037-.9999004-1.571272-.2856859.42852872-.7142146.99990036-.9999004 1.4284291v5.28518766h-1.571272v-4.99950185c0-.4285287.1428429-.8570574.4285287-1.2855861.4285287-.7142145.8570574-1.571272 1.2855862-2.2854865-.7142146-.9999003-1.4284291-1.9998007-1.7141149-3.142544-.1428429-1.1427432 0-2.5711723 0-3.9996014z"/>
  <g fill="#604832">
    <path d="M708.6635489 406.00428275h-2.5711724v4.99950185h2.5711724v-4.99950185z"/>
    <path d="M712.23462164 411.1466275c.57137164-1.85695782.57137164-3.85675856 0-5.57087348-.57137164-1.571272-1.571272-2.8568582-2.8568582-3.85675857-1.85695783-1.2855862-4.1424444-1.85695783-6.28508804-1.571272-2.7140153.42852872-5.28518767 2.42832946-6.28508804 4.99950184-1.14274328 2.5711723-.85705746 5.5708734.71421455 7.9992029 1.4284291 2.2854865 4.1424444 3.7139156 6.8564597 3.7139156 1.8569579 0 3.7139157-.5713717 5.1423448-1.7141149 1.1427433-1.1427433 2.1426437-2.4283295 2.7140153-3.9996015zm-12.9987048-6.28508803h3.28538692l.57137164.57137164v1.2855862h-.99990037v-.8570574h-2.42832947v4.9995019h2.42832947v-.8570574h.99990037v1.2855862l-.57137164.5713717h-3.28538693l-.57137164-.5713716v-6.1422451l.5713716-.2856858zm5.14234475 1.14274328v-1.14274328h4.8566589l.5713716.57137164v6.1422452l-.5713717.5713717h-4.9995019v-1.1427433h.5713716v-4.9995018h-.4285288z"/>
  </g>
  <path fill="#604832" d="M614.3872283 400.43340926h1.571272v14.1414481h1.85695783v-14.1414481h1.71411492v14.56997683c-.1428429.7142145-.85705746 1.1427432-1.571272 1.1427432h-1.99980075c-.85705746 0-1.571272-.8570575-1.571272-1.7141149v-13.9986052zm9.14194623 0h3.42822984c.85705746 0 1.71411492.57137164 1.71411492 1.4284291v5.14234476c0 .71421455-.5713717 1.571272-1.2855862 1.71411492.5713716 2.42832947.9999003 4.99950185 1.571272 7.42783132h-1.571272c-.5713717-2.42832947-1.1427433-4.85665894-1.714115-7.42783132h-.5713717v7.42783132h-1.571272v-15.7127201zm1.71411492 1.571272v5.14234477h1.85695783v-5.14234476h-1.85695783zm7.85636005-1.571272h3.57107275c.71421455 0 1.4284291.57137164 1.4284291 1.4284291v4.99950185c0 .4285288-.28568582.8570575-.71421455 1.1427433.28568582.2856858.57137164.5713717.71421455.9999004v5.1423448c0 .4285288 0 .8570575-.1428429 1.2855862-.28568583.4285287-.71421456.7142146-1.2855862.7142146h-3.57107275v-15.7127201zm1.571272 1.571272v5.14234477h1.85695784v-5.14234476h-1.85695783zm0 6.8564597v5.8565593h1.85695784v-5.8565593h-1.85695783zm8.71341752-8.2848888c.42852873-.1428429.99990037-.1428429 1.4284291-.1428429.57137164 0 1.14274328 0 1.571272.1428429.42852874.28568583.99990038.71421456.85705747 1.2855862v12.14164735c0 .2856859 0 .7142146-.142843.9999004-.2856858.5713717-.7142146.9999004-1.2855862.9999004h-1.571272c-.2856858 0-.5713717 0-.9999004-.1428429-.5713717-.2856858-1.1427433-.8570574-1.1427433-1.571272v-12.1416474c0-.2856858 0-.7142145.1428429-.9999003.2856858 0 .7142145-.4285287 1.1427433-.5713716zm.57137164 1.4284291v12.5701761h1.71411492v-12.5701761h-1.71411492zm-34.56798422 14.284291h-1.71411492v-17.426835h-1.571272v-1.571272h4.85665893v1.571272h-1.571272"/>
  <path fill="#604832" fill-rule="evenodd" d="M719.51961005 365.86542504l-5.8565593-6.28508804-2.5711724 2.7140153 1.2855862.99990036-1.571272 7.71351714 2.9997011-1.2855862-1.571272-1.28558618.85705745-3.99960148 6.14224513 6.42793095 2.14264365-8.7134176 2.14264365-1.1427433-2.57117238-1.4284291-1.4284291 6.285088zm5.14234476-5.28518767c.142843.1428429.4285288.42852873.4285288.71421455l-.7142145 3.42822984c0 .28568582-.2856858.42852873-.5713716.57137164-.1428429.1428429-.4285287.1428429-.7142145.1428429.2856859.14284292.4285288.14284292.5713717.28568583.1428429.1428429.2856858.28568582.2856858.57137164l-.8570574 3.28538693c-.1428429.28568582-.4285287.57137164-.7142145.71421455-.2856858.1428429-.5713716.28568582-.8570574.28568582h9.7133179l.7142146-3.28538693c-.4285287.71421455-.7142145 1.4284291-1.4284291 1.85695783-.5713716.42852873-1.571272.85705746-2.4283294.85705746h-1.8569578l.8570575-4.1424444c.2856858-.1428429.7142146-.1428429.9999004 0 .2856858.14284292.5713716.42852874.8570575.71421456.2856858.2856858.4285287.5713716.7142146.9999003l.9999004-4.2852873c-.2856858.2856858-.71421453.5713716-.9999004.8570574-.4285287.2856858-.8570574.4285287-1.14274323.5713716-.4285287.1428429-.71421453.1428429-1.1427433 0l.85705746-3.9996015h1.4284291c.71421458 0 1.2855862-.1428429 1.85695786.2856858s.9999004 1.2855862 1.2855862 1.9998007l.71421456-2.9997011h-9.9990037c.7142146.2856858.9999004.4285287 1.1427433.5713716zm11.7131187 1.14274328c-.7142145.57137164-1.4284291 1.2855862-1.8569578 2.14264365-.4285287.85705746-.7142145 1.71411492-.7142145 2.57117238s.1428429 1.571272.5713717 2.28548656c.4285287.71421455.8570575 1.2855862 1.571272 1.71411492.7142146.42852873 1.4284291.57137164 2.1426437.71421455.7142146.142843 1.4284291.142843 1.8569579 0 .5713717 0 .8570575-.1428429 1.2855862-.4285287l1.9998008-3.8567585c-.5713716.2856859-1.1427432.4285288-1.571272.7142146-.4285287.2856858-1.1427432.4285288-1.7141149.4285288s-1.2855862 0-1.8569578-.2856858-1.1427433-.8570574-1.2855862-1.4284291c-.2856858-.5713716-.2856858-1.2855862-.1428429-1.8569578s.5713716-1.1427433.9999004-1.7141149c.4285288-.4285287.9999004-.8570575 1.571272-1.1427433.5713717-.2856858.9999004-.4285287 1.4284291-.4285287l1.571272 1.9998007 1.8569578-.5713717-1.2855862-2.8568582h-1.1427432c-.4285287 0-.8570575.1428429-1.4284291.2856859-.5713716.1428429-.9999004.2856858-1.7141149.5713716-.5713717.1428429-1.4284291.5713717-2.1426437 1.1427433z"/>
  <g fill="#604832">
    <path d="M612.24458464 359.15180827v.1428429c0 .14284292 0 .28568583-.57137164.28568583s-.57137164-.1428429-.57137164-.28568582v-1.14274328c0-.1428429 0-.28568582.57137164-.28568582s.57137164.1428429.57137164.28568582v.1428429h.85705746v-.42852872c0-.42852873.1428429-.85705746-1.4284291-.85705746s-1.4284291.42852873-1.4284291.85705746v1.71411492c0 .42852873-.1428429.85705746 1.4284291.85705746s1.4284291-.42852873 1.4284291-.85705746v-.42852873h-.85705746zm-10.57037534.28568583l-.85705746-2.28548657h-1.14274328v3.14254402h.85705746V358.009065l.71421455 2.28548655h.85705746l.71421455-2.28548656v2.2854865h.85705746v-3.142544h-1.14274328m11.5702757.8570575h-.85705745v-.8570575h2.2854866v.8570574h-.7142145v2.2854865h-.7142145m-3.9996015 0h-.7142145l-.2856858-.7142146h-.9999003l.1428429-.4285288h.7142146l-.4285287-1.2855862-.7142145 2.4283295h-.7142146l.8570575-3.142544h1.2855862m-11.5702757.5713716c.5713717 0 .5713717.1428429.5713717.2856858v1.1427432c0 .1428429 0 .2856858-.5713716.2856858s-.5713716-.1428429-.5713716-.2856859v-1.1427433c0-.142843 0-.2856859.5713717-.2856859v-.7142146c-1.571272 0-1.4284291.4285287-1.4284291.8570574v1.71411494c0 .4285287-.1428429.85705744 1.4284291.85705744s1.4284291-.4285287 1.4284291-.8570574v-1.7141149c0-.42852874.1428429-.8570575-1.4284291-.8570575v.7142146zm-2.7140153 1.4284291v.1428429c0 .1428429 0 .2856858-.5713716.2856858s-.5713716-.1428429-.5713716-.2856859v-1.1427433c0-.1428429 0-.2856859.5713716-.2856859s.5713716.1428429.5713716.2856858v.1428429h.8570575v-.4285287c0-.4285287.1428429-.8570575-1.4284291-.8570575s-1.4284291.4285287-1.4284291.8570574v1.71411492c0 .4285287-.1428429.85705746 1.4284291.85705746s1.4284291-.4285287 1.4284291-.85705743v-.4285287h-.8570574zm10.7132183.4285287h-.4285287v-.7142146h.4285287c.5713717 0 .5713717-.1428429.5713717-.2856859v-.2856858c0-.1428429 0-.2856858-.5713716-.2856858h-.42852873v2.4283294h-.8570574v-3.142544h1.2855862c1.571272 0 1.4284291.4285287 1.4284291.8570574v.8570575c0 .1428429.1428429.5713716-1.4284291.5713716zm-15.7127201 12.570176h-4.9995019c-.7142145 0-1.2855862-.5713717-1.2855862-1.2855862v-7.7135172c0-.7142146.5713717-1.2855862 1.2855862-1.2855862h3.142544c.4285287 0 .7142146-.2856858.7142146-.7142146v-2.9997011c0-.1428429.1428429-.2856858.2856859-.2856858h1.8569578c.1428429 0 .2856859.1428429.2856859.2856858v13.7129194c0 .1428429-.1428429.2856858-.2856858.2856858h-.9999004v.7142145h1.2855862c.4285287 0 .7142145-.2856858.7142145-.7142145v-14.284291c0-.4285287-.2856858-.7142146-.7142145-.7142146h-2.4283295c-.4285287 0-.7142145.2856858-.7142145.7142146v3.142544c0 .1428429-.1428429.2856858-.2856858.2856858h-2.8568582c-1.14274327 0-1.9998007.8570574-1.9998007 1.9998007v7.7135172c0 1.1427433.85705743 1.9998007 1.9998007 1.9998007h4.99950185v-.8570575z"/>
    <path d="M588.10413285 369.29365488v-4.99950185c0-.42852873-.28568582-.71421455-.71421455-.71421455s-.71421455.28568582-.71421455.71421455v5.28518767c0 .42852873.28568582.71421455.71421455.71421455s.71421455-.28568582.71421455-.71421455v-.28568582h.71421455v.42852873c0 .8570575-.71421455 1.4284291-1.4284291 1.4284291-.85705746 0-1.4284291-.7142145-1.4284291-1.4284291v-5.2851876c0-.8570574.71421455-1.4284291 1.4284291-1.4284291.85705746 0 1.4284291.7142146 1.4284291 1.4284291v4.9995019l-.71421455-.1428429zm6.71361677 2.8568582h-.99990037c-.1428429 0-.28568582-.1428429-.28568582-.28568582v-9.71331788c0-.1428429.1428429-.28568582.28568582-.28568582h1.85695783c.1428429 0 .28568582.1428429.28568582.28568582v9.71331788c0 .1428429-.1428429.28568582-.28568582.28568582h-.85705746v.71421455h1.14274328c.42852873 0 .71421455-.28568582.71421455-.71421455v-10.28468952c0-.42852873-.28568582-.71421455-.71421455-.71421455h-2.42832947c-.42852873 0-.71421455.2856859-.71421455.7142146v10.2846895c0 .4285288.28568582.7142146.71421455.7142146h1.2855862v-.7142145zm8.7134175-8.42773168h-1.99980073c-.5713717 0-1.1427433.57137163-1.1427433 1.14274327s.5713716 1.14274328 1.1427433 1.14274328h2.7140152c.7142145 0 1.2855862.57137164 1.2855862 1.2855862v3.42822983c0 .71421455-.5713717 1.2855862-1.2855862 1.2855862h-5.5708735c-.1428429 0-.2856858-.14284292-.2856858-.28568583v-1.2855862c0-.1428429.1428429-.2856858.2856858-.2856858h3.7139156c.5713716 0 1.1427433-.57137165 1.1427433-1.1427433 0-.57137163-.5713717-1.14274327-1.1427433-1.14274327h-2.7140153c-.7142146 0-1.2855862-.57137164-1.2855862-1.2855862v-3.42822983c0-.71421455.5713716-1.2855862 1.2855862-1.2855862h5.1423447c.1428429 0 .2856858.14284292.2856858.28568583v1.4284291c0 .1428429-.1428429.28568582-.2856858.28568582l-1.2855862-.1428429v.71421454h1.7141149c.4285287 0 .7142145-.28568582.7142145-.71421455v-1.8569579c0-.4285288-.2856858-.7142146-.7142146-.7142146h-5.4280306c-1.1427433 0-1.9998008.8570574-1.9998008 1.9998007v3.4282298c0 1.1427432.8570574 1.9998007 1.9998007 1.9998007h2.7140153c.2856858 0 .4285287.1428429.4285287.4285287s-.142843.4285287-.4285288.4285287h-3.9996014c-.4285288 0-.7142146.2856858-.7142146.7142145v1.8569579c0 .4285287.2856858.7142146.7142145.7142146h5.8565593c1.1427433 0 1.9998007-.8570575 1.9998007-1.9998008v-3.4282298c0-1.1427433-.8570575-1.9998008-1.9998008-1.9998008h-2.7140153c-.2856859 0-.4285288-.1428429-.4285288-.4285287s.1428429-.4285288.4285287-.4285288h1.9998007l-.1428429-.7142145zm10.14184662 1.99980073h.85705746c.1428429 0 .28568582-.1428429.28568582-.28568582v-2.2854865c0-.7142145-.57137164-1.2855862-1.2855862-1.2855862h-4.4281302c-.71421455 0-1.2855862.5713717-1.2855862 1.2855862v7.7135172c0 .7142146.57137165 1.2855862 1.2855862 1.2855862h4.4281302c.71421456 0 1.2855862-.5713716 1.2855862-1.2855862v-2.1426436c0-.1428429-.1428429-.2856858-.28568582-.2856858h-1.71411492c-.1428429 0-.28568582.1428429-.28568582.2856859v.9999004c0 .8570575-.42852873 1.4284291-1.2855862 1.4284291-.85705745 0-1.28558618-.7142145-1.28558618-1.4284291v-5.2851877c0-.8570574.42852873-1.4284291 1.2855862-1.4284291.85705745 0 1.28558618.7142146 1.28558618 1.4284291v.9999004c0 .1428429.1428429.2856859.28568582.2856859h.85705746v.7142145h-.99990037c-.42852873 0-.71421455-.2856858-.71421455-.7142146v-1.2855862c0-.4285287-.1428429-.7142145-.57137164-.7142145-.42852873 0-.57137164.2856858-.57137164.7142146v5.2851877c0 .4285288.1428429.7142146.57137164.7142146.42852873 0 .57137164-.2856858.57137164-.7142145v-1.2855862c0-.4285287.28568582-.7142145.71421455-.7142145h2.28548656c.42852873 0 .71421455.2856858.71421455.7142146v2.4283295c0 1.1427433-.85705746 1.9998007-1.99980074 1.9998007h-4.4281302c-1.1427433 0-1.99980075-.8570575-1.99980075-1.99980072V363.15141c0-1.14274327.8570574-1.99980073 1.9998007-1.99980073h4.4281302c1.1427433 0 1.9998007.8570575 1.9998007 1.99980077v2.5711724c0 .4285287-.2856858.71421455-.7142146.71421455h-1.1427433l-.1428429-.7142146z"/>
  </g>
  <path d="M663.52518933 391.29146302c-20.42653613 0-36.9963137-16.56977756-36.9963137-36.9963137 0-20.42653612 16.56977757-36.99631368 36.9963137-36.99631368 20.42653613 0 36.9963137 16.56977756 36.9963137 36.9963137 0 20.42653612-16.56977757 36.99631368-36.9963137 36.99631368zm0-72.8498841c-19.8551645 0-35.8535704 16.14124883-35.8535704 35.8535704 0 19.8551645 16.14124882 35.85357042 35.8535704 35.85357042s35.8535704-16.14124883 35.8535704-35.8535704c0-19.8551645-16.14124882-35.85357042-35.8535704-35.85357042z"/>
  <path fill="#aa9885" d="M699.95013138 354.29514933c0 20.1408503-16.28409174 36.42494205-36.42494205 36.42494205-20.1408503 0-36.42494205-16.28409174-36.42494205-36.42494205 0-20.1408503 16.28409174-36.42494205 36.42494205-36.42494205 20.1408503 0 36.42494205 16.28409174 36.42494205 36.42494205zm-36.42494205-31.71112602c-17.56967793 0-31.71112602 14.1414481-31.71112602 31.7111261 0 17.569678 14.1414481 31.711126 31.7111261 31.711126 17.569678 0 31.711126-14.1414481 31.711126-31.711126 0-17.5696779-14.284291-31.711126-31.711126-31.711126z"/>
</svg>
