<svg xmlns="http://www.w3.org/2000/svg" baseProfile="tiny" viewBox="0 0 239.8 132.6">
  <path fill="#E6E6E6" d="M239.8 121.8c0 2.5-2 4.5-4.5 4.5h-68.7c-2.5 0-4.5-2-4.5-4.5v-111c0-2.5 2-4.5 4.5-4.5h68.7c2.5 0 4.5 2 4.5 4.5v111z"/>
  <path fill="#B3B3B3" d="M165.1 48h71.5v67.6h-71.5z"/>
  <path fill="#202022" d="M164 8.9v31.3c0 2.5 2 4.6 4.5 4.6h64.6c2.5 0 4.5-2.1 4.5-4.6V8.9H164z"/>
  <path d="M164 8.9h73.6v6.2H164z"/>
  <path fill="#CCC" d="M211.6 120.9l-10.7-3.2-10.8 3.2v3.5h21.5"/>
  <path fill="#F7B71D" d="M166 10.4h1.1v4.2H166zm1.9-.6h1.1v4.8h-1.1zm1.8 0h1.1v4.8h-1.1zm1.9 0h1.1v4.8h-1.1zm1.8 0h1.1v4.8h-1.1zm1.9 0h1.1v4.8h-1.1zm1.8 0h1.1v4.8h-1.1zm1.9 0h1.1v4.8H179zm1.8 0h1.1v4.8h-1.1zm1.9 0h1.1v4.8h-1.1zm1.9 0h1.1v4.8h-1.1zm1.8 0h1.1v4.8h-1.1zm1.9 0h1.1v4.8h-1.1zm1.8 0h1.1v4.8h-1.1zm1.9 0h1.1v4.8H192zm1.8 0h1.1v4.8h-1.1zm1.9 0h1.1v4.8h-1.1zm1.8-.9h1.1v6.2h-1.1zm1.9.9h1.1v4.8h-1.1zm1.9 0h1.1v4.8h-1.1zm1.8 0h1.1v4.8h-1.1zm1.9 0h1.1v4.8H205zm1.8 0h1.1v4.8h-1.1zm1.9 0h1.1v4.8h-1.1zm1.8 0h1.1v4.8h-1.1zm1.9 0h1.1v4.8h-1.1zm1.8 0h1.1v4.8h-1.1zm1.9 0h1.1v4.8h-1.1zm1.8 0h1.1v4.8h-1.1zm1.9 0h1.1v4.8h-1.1zm1.9 0h1.1v4.8h-1.1zm1.8 0h1.1v4.8h-1.1zm1.9 0h1.1v4.8h-1.1zm1.8 0h1.1v4.8h-1.1zm1.9 0h1.1v4.8h-1.1zm1.8 0h1.1v4.8h-1.1zm1.9 0h1.1v4.8h-1.1zm1.8-.9h1.1v6.2h-1.1z"/>
  <path fill="#FFF" stroke="#000" stroke-width=".3739" stroke-miterlimit="2.6131" d="M209.6 109.8V84.9h-17.5v24.9z"/>
  <path d="M208.9 109.1V85.6h-16.3v23.5"/>
  <path fill="#FFF" d="M193.3 86.5h2.3v.7h-.7v9.7h-.8v-9.6h-.8m3.6 6h.9v-6.8h.8v6.8c0 .4-.4.8-.8.8h-.9c-.4 0-.8-.4-.8-.8v-6.8h.8v6.8zm2.4.8v-7.5h1.6c.4 0 .8.3.8.7v2.5c0 .4-.3.8-.6.8l.8 3.6h-.7l-.8-3.5h-.4v3.5h-.7v-.1zm3.1-7.5h1.7c.4 0 .7.3.7.7v2.3c0 .3-.3.5-.3.5s.3.2.3.5v2.7c0 .5-.4.7-.7.7h-1.7v-7.4zm4.3-.1h.4c.5 0 .8.4.8.7v9c0 .3-.4.7-.7.7h-.9c-.3 0-.8-.4-.8-.7v-8.9c0-.3.3-.7.8-.7h.4v-.1zm-11.8 15.8h1.2v5.9h-1.7c-.4 0-.8-.3-.8-.7v-8.9c0-.4.4-.8.8-.8h.9c.4 0 .8.4.8.8v2.1h-.8v-2.1h-.9v8.9h.9V103h-.4v-.7zm2 5.9v-7.5h1.6c.4 0 .8.3.8.7v2.5c0 .4-.3.8-.6.8l.8 3.6h-.7l-.8-3.5h-.3v3.5h-.8v-.1zm3.9-3.6v3.6h-.8v-6.8c0-.3.3-.7.7-.7h1c.4 0 .7.3.7.7v6.8h-.7v-3.6h-.9zm3.2 0v3.6h-.7v-6.8c0-.3.3-.6.6-.6h1.2v.7H204v2.5h.9v.7l-.9-.1zm1.5-6.8h.8v3.8l.4.7.4-.6v-3.8h.8v3.6c0 .4-.8 1.6-.8 1.6s.8 1.2.8 1.6v3.6h-.7v-3.7l-.5-.7-.5.7v3.7h-.8v-3.6c0-.4.8-1.6.8-1.6s-.8-1.1-.8-1.6l.1-3.7z"/>
  <path d="M200.9 89.7v-2.4h-.9v2.4m-1.5 14.2v-2.5h-.9v2.5m6.4-14.2v-2.4h-.8v2.4m.8 3.6v-2.8h-.8v2.8m4 2.9v-8.9h-.8v8.9m-4.7 7.7v-2.5h-.9v2.5"/>
  <path fill="#FFF" d="M198.9 100c-1.2 0-2.5-1-2.5-2.6 0-1.5 1.3-2.6 2.5-2.6v5.2zm3.6 0c1.2 0 2.5-1 2.5-2.6 0-1.5-1.3-2.6-2.5-2.6v5.2zm0 0v-5.2h-3.6v5.2"/>
  <path d="M198.8 99.5c-.6 0-1.9-.7-1.9-2.2 0-1.3 1.2-2.1 1.9-2.1v4.3zm3.9 0c.6 0 1.9-.7 1.9-2.2 0-1.3-1.2-2.1-1.9-2.1v4.3z"/>
  <path d="M202.7 99.5v-4.3h-3.9v4.3"/>
  <path fill="#FFF" d="M198.2 95.8h.8v2.7h.4v.4h-1.2v-.4h.4v-2.2h-.4m1.8-.2l.2-.2h2.8l.2.2v.6h-.4v-.4h-2.4v.9h2.6l.2.2v1.2l-.3.3h-2.6l-.3-.3"/>
  <path d="M202.8 98.5v-.9h-2.4v.9"/>
  <path fill="#231F20" d="M221.4 112h-1l-.3 1.2h-.6l.6-2.7h.6l-.2 1h1l.2-1h.6l-.6 2.7h-.6l.3-1.2zm1.2-.7h.5l-.2 1.2v.3c0 .1 0 .1.1.1 0 0 .1.1.2.1h.1s.1 0 .1-.1l.1-.1s.1-.1.1-.2 0-.1.1-.3l.2-.9h.5l-.4 2h-.5l.1-.3c-.2.2-.5.3-.7.3-.2 0-.3 0-.4-.1-.1-.1-.1-.2-.1-.4 0-.1 0-.2.1-.4l.1-1.2zm3.9 1l.6.1c-.1.3-.3.5-.5.7-.2.2-.5.2-.8.2-.3 0-.6-.1-.8-.3-.2-.2-.3-.5-.3-.9 0-.3.1-.6.2-.8.1-.3.3-.4.5-.6.2-.1.5-.2.7-.2.3 0 .5.1.7.2.2.2.3.4.3.6l-.5.1c0-.2-.1-.3-.2-.3-.1-.1-.2-.1-.3-.1-.2 0-.3 0-.4.1-.1.1-.2.2-.3.4-.1.2-.1.4-.1.6 0 .2.1.4.2.5.1.1.2.2.4.2.1 0 .3 0 .4-.1 0-.1.1-.2.2-.4zm2.5.4h-1l-.3.6h-.6l1.5-2.7h.6l.4 2.7h-.5l-.1-.6zm0-.5l-.2-1.1-.7 1.1h.9zm1.5 1.1h-.5l.6-2.7h1.2c.2 0 .4 0 .5.1.1 0 .2.1.3.2.1.1.1.2.1.4s-.1.4-.2.6c-.1.1-.3.2-.6.3.1.1.1.1.2.3.1.2.3.5.4.9h-.6c0-.2-.1-.4-.3-.7-.1-.2-.2-.3-.2-.4-.1 0-.1-.1-.3-.1h-.2l-.4 1.1zm.4-1.6h.3c.3 0 .5 0 .6-.1.1 0 .2-.1.2-.2.1-.1.1-.2.1-.2 0-.1 0-.2-.1-.2h-1l-.1.7zm1.8 1.6l.6-2.7h1.1c.1 0 .2 0 .3.1.1 0 .2.1.2.1l.2.2s.1.2.1.3v.4c0 .3-.1.5-.2.8-.1.2-.3.4-.4.5-.1.1-.3.2-.5.2h-1.4zm.7-.5h.7s.2-.1.3-.1c.1-.1.2-.2.3-.4.1-.2.1-.4.1-.6 0-.2 0-.3-.1-.4-.1-.1-.1-.2-.2-.2h-.6l-.5 1.7z"/>
  <path fill="#604832" d="M130.6 66.3c0 35.5-28.8 64.3-64.3 64.3S1.9 101.8 1.9 66.3 30.8 1.9 66.3 1.9s64.3 28.8 64.3 64.4zM77.3 42.9c-3.4-1.6-7.1-2.5-11-2.5C52 40.4 40.4 52 40.4 66.3S52 92.2 66.3 92.2c14.3 0 25.9-11.6 25.9-25.9 0-10.3-6.1-19.3-14.9-23.4"/>
  <path fill="#0F1417" d="M66.3 132.6C29.7 132.6 0 102.8 0 66.3S29.7 0 66.3 0c36.6 0 66.3 29.7 66.3 66.3s-29.8 66.3-66.3 66.3zM66.3.1C29.8.1.1 29.8.1 66.3s29.7 66.2 66.2 66.2 66.2-29.7 66.2-66.2S102.8.1 66.3.1z"/>
  <path fill="#A198A0" d="M66.3 77.8c-6.3 0-11.5-5.2-11.5-11.5S60 54.8 66.3 54.8 77.8 60 77.8 66.3s-5.2 11.5-11.5 11.5zm0-22.2c-5.9 0-10.7 4.8-10.7 10.7 0 5.9 4.8 10.7 10.7 10.7C72.2 77 77 72.2 77 66.3c0-5.9-4.8-10.7-10.7-10.7z"/>
  <path fill="#A198A0" d="M66.3 75.6c-5.1 0-9.3-4.2-9.3-9.3 0-5.1 4.2-9.3 9.3-9.3 5.1 0 9.3 4.2 9.3 9.3 0 5.1-4.2 9.3-9.3 9.3zm0-17.8c-4.7 0-8.5 3.8-8.5 8.5s3.8 8.5 8.5 8.5 8.5-3.8 8.5-8.5-3.8-8.5-8.5-8.5z"/>
  <path fill="#1E1C1A" d="M1.9 66.3c0 35.5 28.8 64.3 64.3 64.3s64.3-28.8 64.3-64.3l.2-.3H92.2c0 14.3-11.2 25.9-25.5 25.9S40.8 80.3 40.8 66h-39"/>
  <path fill="#604832" d="M58.2 97.6c0-.6.4-1.1 1-1.2h1.4c.7-.1 1.3.5 1.2 1.2v2h-1.2v-2h-1.3v11h1.3v-5.3H60v-1.1h1.7v7.5h-2.4c-.5 0-.9-.3-1.1-.7-.1-.2-.1-.5-.1-.7.1-3.6.1-7.2.1-10.7zm6.6 1h2.3c.5 0 1 .3 1.2.7.1.2.1.4.1.5v3.5c0 .5-.4 1-.9 1.1.4 1.7.7 3.5 1.1 5.2h-1.1c-.4-1.7-.8-3.5-1.2-5.2h-.4v5.2h-1.1v-11zm1.1 1.1v3.6h1.3v-3.6h-1.3zm5.4 0c0-.5.4-1 .9-1h1.5c.3 0 .5.1.7.2.2.2.4.5.4.8v10h-1.1v-5.2h-1.3v5.2h-1.1v-10zm1.1.1v3.5h1.3v-3.5h-1.3zm5.2-.2c0-.5.4-.9.9-.9h1.8v1h-1.7v3.7H80v1.1h-1.4v5.2h-1.1c.1-3.4.1-6.8.1-10.1zm5.5-1h1.2v3.1c.2.3.4.6.6 1l.6-.9v-3.1h1.2v2.2c0 .3 0 .7-.1 1-.3.7-.6 1.3-1 1.9.4.7.9 1.4 1.1 2.2v3.7h-1.1V106c-.2-.4-.5-.7-.7-1.1-.2.3-.5.7-.7 1v3.7h-1.1v-3.5c0-.3.1-.6.3-.9.3-.5.6-1.1.9-1.6-.5-.7-1-1.4-1.2-2.2-.1-.8 0-1.8 0-2.8z"/>
  <g fill="#604832">
    <path d="M97.9 102.5h-1.8v3.5h1.8v-3.5z"/>
    <path d="M100.4 106.1c.4-1.3.4-2.7 0-3.9-.4-1.1-1.1-2-2-2.7-1.3-.9-2.9-1.3-4.4-1.1-1.9.3-3.7 1.7-4.4 3.5-.8 1.8-.6 3.9.5 5.6 1 1.6 2.9 2.6 4.8 2.6 1.3 0 2.6-.4 3.6-1.2.8-.8 1.5-1.7 1.9-2.8zm-9.1-4.4h2.3l.4.4v.9h-.7v-.6h-1.7v3.5h1.7v-.6h.7v.9l-.4.4h-2.3l-.4-.4v-4.3l.4-.2zm3.6.8v-.8h3.4l.4.4v4.3l-.4.4h-3.5v-.8h.4v-3.5h-.3z"/>
  </g>
  <path fill="#604832" d="M31.9 98.6H33v9.9h1.3v-9.9h1.2v10.2c-.1.5-.6.8-1.1.8H33c-.6 0-1.1-.6-1.1-1.2v-9.8zm6.4 0h2.4c.6 0 1.2.4 1.2 1v3.6c0 .5-.4 1.1-.9 1.2.4 1.7.7 3.5 1.1 5.2H41c-.4-1.7-.8-3.4-1.2-5.2h-.4v5.2h-1.1v-11zm1.2 1.1v3.6h1.3v-3.6h-1.3zm5.5-1.1h2.5c.5 0 1 .4 1 1v3.5c0 .3-.2.6-.5.8.2.2.4.4.5.7v3.6c0 .3 0 .6-.1.9-.2.3-.5.5-.9.5H45v-11zm1.1 1.1v3.6h1.3v-3.6h-1.3zm0 4.8v4.1h1.3v-4.1h-1.3zm6.1-5.8c.3-.1.7-.1 1-.1.4 0 .8 0 1.1.1.3.2.7.5.6.9v8.5c0 .2 0 .5-.1.7-.2.4-.5.7-.9.7h-1.1c-.2 0-.4 0-.7-.1-.4-.2-.8-.6-.8-1.1v-8.5c0-.2 0-.5.1-.7.2 0 .5-.3.8-.4zm.4 1v8.8h1.2v-8.8h-1.2zm-25.4-2.2h-1.1v-1.1h3.4v1.1h-1.1v12.2h-1.2"/>
  <path fill="#604832" fill-rule="evenodd" d="M105.5 74.4l-4.1-4.4-1.8 1.9.9.7-1.1 5.4 2.1-.9-1.1-.9.6-2.8 4.3 4.5 1.5-6.1 1.5-.8-1.8-1-1 4.4zm3.6-3.7c.1.1.3.3.3.5l-.5 2.4c0 .2-.2.3-.4.4-.1.1-.3.1-.5.1.2.1.3.1.4.2.1.1.2.2.2.4L108 77c-.1.2-.3.4-.5.5-.2.1-.4.2-.6.2h6.8l.5-2.3c-.3.5-.5 1-1 1.3-.4.3-1.1.6-1.7.6h-1.3l.6-2.9c.2-.1.5-.1.7 0 .2.1.4.3.6.5.2.2.3.4.5.7l.7-3c-.2.2-.5.4-.7.6-.3.2-.6.3-.8.4-.3.1-.5.1-.8 0l.6-2.8h1c.5 0 .9-.1 1.3.2.4.3.7.9.9 1.4l.5-2.1h-7c.5.2.7.3.8.4zm8.2.8c-.5.4-1 .9-1.3 1.5-.3.6-.5 1.2-.5 1.8 0 .6.1 1.1.4 1.6.3.5.6.9 1.1 1.2.5.3 1 .4 1.5.5.5.1 1 .1 1.3 0 .4 0 .6-.1.9-.3l1.4-2.7c-.4.2-.8.3-1.1.5s-.8.3-1.2.3c-.4 0-.9 0-1.3-.2s-.8-.6-.9-1c-.2-.4-.2-.9-.1-1.3s.4-.8.7-1.2c.3-.3.7-.6 1.1-.8.4-.2.7-.3 1-.3l1.1 1.4 1.3-.4-.9-2h-.8c-.3 0-.6.1-1 .2s-.7.2-1.2.4c-.4.1-1 .4-1.5.8z"/>
  <g fill="#604832">
    <path d="M30.4 69.7v.1c0 .1 0 .2-.4.2s-.4-.1-.4-.2V69c0-.1 0-.2.4-.2s.4.1.4.2v.1h.6v-.3c0-.3.1-.6-1-.6s-1 .3-1 .6V70c0 .3-.1.6 1 .6s1-.3 1-.6v-.3h-.6zm-6.8-1.4l-.6 1.6-.6-1.6h-.8v2.2h.6v-1.6l.5 1.6h.6l.5-1.6v1.6h.6v-2.2m6.7 0h1.6v.6h-.5v1.6h-.5v-1.6h-.6m-4.3 1.6l.6-2.2h.9l.6 2.2h-.5l-.2-.5h-.7l.1-.3h.5l-.3-.9-.5 1.7m-7.1-1.8c.4 0 .4.1.4.2v.8c0 .1 0 .2-.4.2s-.4-.1-.4-.2v-.8c0-.1 0-.2.4-.2v-.5c-1.1 0-1 .3-1 .6V70c0 .3-.1.6 1 .6s1-.3 1-.6v-1.2c0-.3.1-.6-1-.6v.5zm-1.9 1v.1c0 .1 0 .2-.4.2s-.4-.1-.4-.2V69c0-.1 0-.2.4-.2s.4.1.4.2v.1h.6v-.3c0-.3.1-.6-1-.6s-1 .3-1 .6V70c0 .3-.1.6 1 .6s1-.3 1-.6v-.3h-.6zm7.5.3h-.3v-.5h.3c.4 0 .4-.1.4-.2v-.2c0-.1 0-.2-.4-.2h-.3v1.7h-.6v-2.2h.9c1.1 0 1 .3 1 .6v.6c0 .1.1.4-1 .4zm-11 8.8h-3.5c-.5 0-.9-.4-.9-.9v-5.4c0-.5.4-.9.9-.9h2.2c.3 0 .5-.2.5-.5V69c0-.1.1-.2.2-.2h1.3c.1 0 .2.1.2.2v9.6c0 .1-.1.2-.2.2h-.7v.5h.9c.3 0 .5-.2.5-.5v-10c0-.3-.2-.5-.5-.5H14c-.3 0-.5.2-.5.5V71c0 .1-.1.2-.2.2h-2c-.8 0-1.4.6-1.4 1.4V78c0 .8.6 1.4 1.4 1.4h3.5v-.6z"/>
    <path d="M13.5 76.8v-3.5c0-.3-.2-.5-.5-.5s-.5.2-.5.5V77c0 .3.2.5.5.5s.5-.2.5-.5v-.2h.5v.3c0 .6-.5 1-1 1-.6 0-1-.5-1-1v-3.7c0-.6.5-1 1-1 .6 0 1 .5 1 1v3.5l-.5-.1zm4.7 2h-.7c-.1 0-.2-.1-.2-.2v-6.8c0-.1.1-.2.2-.2h1.3c.1 0 .2.1.2.2v6.8c0 .1-.1.2-.2.2h-.6v.5h.8c.3 0 .5-.2.5-.5v-7.2c0-.3-.2-.5-.5-.5h-1.7c-.3 0-.5.2-.5.5v7.2c0 .3.2.5.5.5h.9v-.5zm6.1-5.9h-1.4c-.4 0-.8.4-.8.8s.4.8.8.8h1.9c.5 0 .9.4.9.9v2.4c0 .5-.4.9-.9.9h-3.9c-.1 0-.2-.1-.2-.2v-.9c0-.1.1-.2.2-.2h2.6c.4 0 .8-.4.8-.8s-.4-.8-.8-.8h-1.9c-.5 0-.9-.4-.9-.9v-2.4c0-.5.4-.9.9-.9h3.6c.1 0 .2.1.2.2v1c0 .1-.1.2-.2.2l-.9-.1v.5h1.2c.3 0 .5-.2.5-.5v-1.3c0-.3-.2-.5-.5-.5h-3.8c-.8 0-1.4.6-1.4 1.4v2.4c0 .8.6 1.4 1.4 1.4h1.9c.2 0 .3.1.3.3 0 .2-.1.3-.3.3h-2.8c-.3 0-.5.2-.5.5v1.3c0 .3.2.5.5.5h4.1c.8 0 1.4-.6 1.4-1.4v-2.4c0-.8-.6-1.4-1.4-1.4H23c-.2 0-.3-.1-.3-.3 0-.2.1-.3.3-.3h1.4l-.1-.5zm7.1 1.4h.6c.1 0 .2-.1.2-.2v-1.6c0-.5-.4-.9-.9-.9h-3.1c-.5 0-.9.4-.9.9v5.4c0 .5.4.9.9.9h3.1c.5 0 .9-.4.9-.9v-1.5c0-.1-.1-.2-.2-.2h-1.2c-.1 0-.2.1-.2.2v.7c0 .6-.3 1-.9 1-.6 0-.9-.5-.9-1v-3.7c0-.6.3-1 .9-1 .6 0 .9.5.9 1v.7c0 .1.1.2.2.2h.6v.5h-.7c-.3 0-.5-.2-.5-.5v-.9c0-.3-.1-.5-.4-.5s-.4.2-.4.5v3.7c0 .3.1.5.4.5s.4-.2.4-.5v-.9c0-.3.2-.5.5-.5h1.6c.3 0 .5.2.5.5v1.7c0 .8-.6 1.4-1.4 1.4h-3.1c-.8 0-1.4-.6-1.4-1.4v-5.4c0-.8.6-1.4 1.4-1.4h3.1c.8 0 1.4.6 1.4 1.4v1.8c0 .3-.2.5-.5.5h-.8l-.1-.5z"/>
  </g>
  <path d="M66.3 92.2c-14.3 0-25.9-11.6-25.9-25.9S52 40.4 66.3 40.4c14.3 0 25.9 11.6 25.9 25.9S80.6 92.2 66.3 92.2zm0-51c-13.9 0-25.1 11.3-25.1 25.1 0 13.9 11.3 25.1 25.1 25.1s25.1-11.3 25.1-25.1c0-13.9-11.3-25.1-25.1-25.1z"/>
  <path fill="#AA9885" d="M91.8 66.3c0 14.1-11.4 25.5-25.5 25.5S40.8 80.4 40.8 66.3s11.4-25.5 25.5-25.5 25.5 11.4 25.5 25.5zM66.3 44.1C54 44.1 44.1 54 44.1 66.3S54 88.5 66.3 88.5s22.2-9.9 22.2-22.2-10-22.2-22.2-22.2z"/>
</svg>
