<svg xmlns="http://www.w3.org/2000/svg" viewBox="373.5 287.6 399.99999 73.113451">
  <path fill="#d5e14d" d="M545.79237 294.09403c-.1339-3.04617 2.30973-5.92496 5.28894-6.3936 2.44363-.10042 4.88726 0 7.33088-.0335 3.51481-.36822 6.79529 2.94574 6.62792 6.42707v10.47746c-2.10888.0335-4.18429 0-6.29317 0 0-3.54828.0335-7.09656 0-10.64483-2.34321.0335-4.65294 0-6.99614 0-.0335 19.6829 0 39.39928 0 59.08219 2.41015 0 4.8203.0335 7.19698-.0335-.0335-9.54018 0-19.08037 0-28.58707h-3.18006v-5.69064h9.27239c0 13.35626.0335 26.74599 0 40.10225-4.31819-.0335-8.63638 0-12.95457 0-2.51057 0-4.98767-1.60677-5.92495-3.94998-.50212-1.23855-.33475-2.57752-.33475-3.84954 0-18.97995 0-37.95989-.0335-56.90636zm35.48279 5.52326c4.11734 0 8.20121-.0335 12.31855 0 2.54405-.0335 5.12157 1.33897 6.19275 3.68218.43517.87033.33475 1.87456.33475 2.84532v18.74562c-.1339 2.64447-2.00846 5.35589-4.75336 5.79106 2.00846 9.33934 3.98345 18.71215 5.95843 28.08496h-5.72411c-2.14236-9.27239-4.28471-18.5113-6.42707-27.78369h-2.04193v27.88411h-5.85801c.0335-19.74985.0335-39.4997 0-59.24956zm5.95843 5.79106v19.24774h6.86224v-19.24774h-6.86224zm28.78792-.30127c0-2.67794 2.24278-5.28894 4.98768-5.38937 2.67794-.0335 5.38936 0 8.06731-.0335 1.37245-.0335 2.81184.33474 3.88302 1.20508 1.23855 1.00423 1.90804 2.61099 1.90804 4.21776v53.65935h-5.79106v-28.11844h-7.19698v28.11844h-5.85801v-53.65935zm6.02538.63601c0 6.32665-.0335 12.68677 0 19.01342 2.27626-.0335 4.55251 0 6.86224 0v-19.01342c-2.27626 0-4.58598-.0335-6.86224 0zm27.54937-.97075c.0335-2.611 2.27626-5.05463 4.92073-5.0881h9.87493v5.28894h-8.83723c-.0335 6.62792 0 13.22236 0 19.85028h7.26393v5.85801h-7.2974v28.11844h-5.95843c.0335-18.00919.0335-36.01838.0335-54.02757zm29.52436-5.05463h6.19275c.0335 5.45632-.067 10.94611.067 16.4359 1.03771 1.74067 2.27626 3.41438 3.38091 5.12157 1.07118-1.70719 2.3432-3.28048 3.31396-5.05462.10042-5.48979.0335-11.01306.0335-16.50285h6.19275c-.0335 3.94998 0 7.86647 0 11.81644-.0335 1.84109.16737 3.71565-.50211 5.45632-1.37245 3.6487-3.44786 6.99613-5.48979 10.31009 2.3432 3.74913 4.85378 7.53173 5.92495 11.88339.1339 6.56097.0335 13.15541.0335 19.71638h-5.75759c-.0335-6.59444.0335-13.18889-.0335-19.78333-.97076-2.00846-2.44363-3.74913-3.61523-5.65716-1.20507 1.84109-2.44362 3.61523-3.6487 5.45631 0 6.6614.0335 13.32279 0 20.01765-2.04193-.0335-4.05039 0-6.09233 0v-18.57825c-.0335-1.67372.76991-3.21354 1.4394-4.71988 1.43939-2.91227 3.11311-5.65716 4.92072-8.36858-2.41015-3.71565-5.12157-7.39783-6.29317-11.71602-.16737-5.32242 0-10.57789-.067-15.83336z"/>
  <g fill="#f79226">
    <path d="M758.85647426 320.137058h-9.64060675v18.51130393h9.6406068V320.137058z"/>
    <path d="M771.84451392 339.4182715c2.3097287-6.72834013 2.17583138-14.22658983-.2343203-20.8879813-2.10888273-5.69063593-5.82453325-10.7452596-10.7117853-14.36048714-6.72834012-5.088098-15.53208864-7.23045507-23.83372224-5.82453325-10.44399064 1.5732935-19.78332843 8.9376459-23.86719657 18.6786756-4.11734242 9.5736581-3.07963822 21.15577596 2.7783693 29.7921528 5.6236873 8.5359539 15.665986 13.99226957 25.9091307 13.89184658 6.8287631.13389732 13.69100056-2.1758314 19.11384186-6.29317385 5.02114935-3.74912485 8.87069718-9.03806883 10.8456826-14.9964994zm-48.50430273-23.56592762h12.519399c.76990957.76990957 1.43939615 1.40592182 2.24278004 2.1758314v5.088098h-3.71565052v-2.9792153h-8.9041715v18.51130395h8.9041715v-2.97921528h3.71565052v5.088098c-.76990956.76990957-1.43939614 1.40592182-2.2093057 2.1758314h-12.5528734l-2.1088827-2.0754084v-22.92991537l2.1088827-2.0754084zm19.2142648 4.2847141v-4.2847141h18.4443553l2.14235705 2.10888273v22.89644108l-2.14235706 2.10888273h-18.5113039c0-1.4728705.03347432-2.81184364.03347432-4.31818844h2.20930573V320.137058h-2.17583138z"/>
  </g>
  <path fill="#f79226" d="M404.63113 299.61729h6.09232c.0335 17.7414 0 35.48279 0 53.22418h6.86224c0-17.74139-.0335-35.48278.0335-53.25765 2.0754.0335 4.11734 0 6.19275.0335-.0335 17.00496 0 34.00992 0 51.01488-.0335 1.23855.10042 2.4771-.20085 3.68218-.56906 2.57752-3.11311 4.5525-5.75758 4.51903h-7.36436c-3.21353-.0669-5.92495-3.04616-5.858-6.22623-.0335-17.64097 0-35.31541 0-52.98986zm34.64593 0c4.21776.0335 8.469-.0335 12.68677.0335 2.97921.0335 6.19275 2.30972 6.22622 5.48979v19.41511c-.0335 2.81184-1.90803 5.72411-4.78683 6.22622 2.00846 9.33934 3.94997 18.71215 5.95843 28.05149h-5.75758c-2.10888-9.23892-4.28472-18.44436-6.3936-27.68327h-2.10888v27.71674h-5.85801c.0335-19.74985.0335-39.4997.0335-59.24956zm6.09232 5.85801v19.31469h6.76182v-19.34817c-2.24278.0335-4.48556.0335-6.76182.0335zm29.45741-5.85801c4.41861 0 8.8707-.0335 13.28931 0 2.81185 0 5.45632 2.30973 5.55674 5.15505v18.74562c0 1.74067-1.23855 3.11312-2.44363 4.18429 1.17161.97076 2.30973 2.24278 2.44363 3.84955.16737 2.54405.067 5.12157.10042 7.66562-.0335 3.88302.067 7.79952-.10042 11.71602-.067 1.64024.2678 3.44785-.56906 4.9542-.90381 1.84109-2.94574 2.91227-4.9542 2.91227h-13.28931c-.0335-19.68291 0-39.43276-.0335-59.18262zm6.12581 5.85801v19.34816h6.76181v-19.31469c-2.24278-.0335-4.48556-.0335-6.76181-.0335zm0 25.50744v22.02611h6.79528v-21.99264c-2.27625-.0335-4.51903 0-6.79528-.0335zm32.43662-31.0307c1.80761-.50212 3.68218-.2678 5.55674-.33475 2.04193.0335 4.25124-.26779 6.09233.76991 1.84108.97076 3.5148 2.84532 3.44785 5.05462v45.55857c-.0335 1.3055.16737 2.71142-.46864 3.94997-.93728 1.97498-2.81184 3.6487-5.05462 3.88302-2.00846.0335-4.01692 0-6.02538 0-1.1716 0-2.41015.10042-3.51481-.33474-2.3432-.93729-4.28471-3.24701-4.21776-5.85801v-45.52509c0-1.20507-.1339-2.51057.40169-3.6487.70296-1.60677 2.10888-2.91227 3.7826-3.5148zm2.30973 5.62368v47.09838h6.52749v-47.09838h-6.52749zm-136.44137-12.05076H373.5v-5.92495h18.41088v5.92495h-5.75758v65.27495h-6.89572"/>
</svg>
