<?xml version="1.0" encoding="utf-8"?>
<!-- Generator: Adobe Illustrator 19.0.0, SVG Export Plug-In . SVG Version: 6.00 Build 0)  -->
<svg version="1.1" baseProfile="tiny"
	 id="svg3004" xmlns:rdf="http://www.w3.org/1999/02/22-rdf-syntax-ns#" xmlns:dc="http://purl.org/dc/elements/1.1/" xmlns:inkscape="http://www.inkscape.org/namespaces/inkscape" xmlns:sodipodi="http://sodipodi.sourceforge.net/DTD/sodipodi-0.dtd" xmlns:cc="http://creativecommons.org/ns#" xmlns:svg="http://www.w3.org/2000/svg" sodipodi:docname="icon_empty.svg" inkscape:version="0.91 r13725"
	 xmlns="http://www.w3.org/2000/svg" xmlns:xlink="http://www.w3.org/1999/xlink" x="0px" y="0px" viewBox="-290 382 30 30"
	 xml:space="preserve">
<sodipodi:namedview  inkscape:cy="14.770215" inkscape:cx="27.076271" inkscape:zoom="23.6" bordercolor="#666666" objecttolerance="10" borderopacity="1" pagecolor="#ffffff" guidetolerance="10" gridtolerance="10" showgrid="false" id="namedview150" inkscape:current-layer="svg3004" inkscape:window-maximized="1" inkscape:window-y="-8" inkscape:pageopacity="0" inkscape:window-x="-8" inkscape:window-height="1027" inkscape:window-width="1920" inkscape:pageshadow="2">
	</sodipodi:namedview>
<g>
	<path fill="#B7B7B7" d="M-275.5,407.1c0,0,1.1,0.5,2,0.2c0.9-0.3,4.4-0.8,4.7,2.2c0,0-0.2,2.3-2.4,1.8c-2.2-0.5-5.6-1.1-6.9-1.1
		c-1.3,0-1.7-0.5-1.3-1.8c0.4-1.2,1.1-0.9,1.1-0.9L-275.5,407.1"/>
	<path fill="#989898" d="M-273.8,408.9c0.5-0.2,1.4-0.6,1.1-1.7c-0.4,0-0.7,0.1-0.9,0.2c-0.9,0.3-2-0.2-2-0.2l-2.8,0.6
		c0,0-0.7-0.4-1.1,0.9c-0.4,1.1,0,1.7,1.1,1.8c0.1-0.1,0.2-0.1,0.3-0.2C-277.3,409.4-274.5,409.1-273.8,408.9"/>
	<path fill="#B7B7B7" d="M-283.3,407.1c0,0-1.1,0.5-2,0.2c-0.9-0.3-4.4-0.8-4.7,2.2c0,0,0.2,2.3,2.4,1.8c2.2-0.5,5.6-1.1,6.9-1.1
		c1.3,0,1.7-0.5,1.3-1.8c-0.4-1.2-1.1-0.9-1.1-0.9L-283.3,407.1"/>
	<path fill="#989898" d="M-280.5,407.7l-2.8-0.6c0,0-1.1,0.5-2,0.2c-0.3-0.1-0.9-0.2-1.6-0.2c-0.3,1.3,0.6,2.3,1.7,2.4
		c1.5,0.2,3.1,0.6,3.6,0.8c0.3,0,0.6,0,0.8,0c1.3,0,1.7-0.5,1.3-1.8C-279.8,407.3-280.5,407.7-280.5,407.7"/>
	<path fill="#B7B7B7" d="M-287.1,397.5c0,0-0.9-1.1-1.9-0.5c-1,0.6-0.8,4.8,2.9,5.3c3.7,0.4,1.8-1.2,1.8-1.2l-0.9-2L-287.1,397.5"/>
	<g>
		<ellipse fill="#ABABAB" cx="-281.7" cy="407.3" rx="1.9" ry="1.2"/>
		<ellipse fill="#ABABAB" cx="-277.2" cy="407.3" rx="1.9" ry="1.2"/>
	</g>
	<ellipse fill="#C0C0C0" cx="-285.7" cy="399.1" rx="1.4" ry="1.3"/>
	<path fill="#686868" d="M-286.5,391.2c0,0-2.7,0.7-1.8,3.3l1.5,4c0,0,0.6,1.1,1.1,0.7c0.5-0.3,0.8-0.6,0.7-1.1l-0.3-3.5l0.9,0.9
		c0,0-0.1,5.7-1.6,7.6c-1.6,1.9-0.5,3.6,1,3.8c1.6,0.2,3.2,0.6,3.7,0.8c0.5,0.2,2.5,0.5,3.3-0.3c0.8-0.7,3.6-1.1,4.3-1.3
		c0.7-0.2,1.9-0.7,0.8-2.6c-1.1-1.8-3.2-6.7-3.2-6.7s-0.3-0.9,0.6-1.3c0.9-0.4,4.1-1.1,4.3-5.6l-2-0.2c0,0-1.5,3.1-4.4,1.6
		L-286.5,391.2"/>
	<path fill="#5E5E5E" d="M-273.1,403.8c-1.1-1.8-3.2-6.7-3.2-6.7s-0.3-0.9,0.6-1.3c0.9-0.4,4.1-1.1,4.3-5.6l-2-0.2
		c0,0-1.5,3.1-4.4,1.6l-2.2-0.1v7.5v9.1c0.7,0,1.4-0.1,1.8-0.5c0.8-0.7,3.6-1.1,4.3-1.3C-273.2,406.1-272,405.6-273.1,403.8"/>
	<ellipse fill="#C0C0C0" cx="-280.3" cy="392.5" rx="3.3" ry="1.7"/>
	<path fill="#B7B7B7" d="M-274.4,390c-0.3,1.2-3.5,3.1-6.7,2.3c-3.2-0.8-5.4-3-4.9-5.1c0.5-2,3.4-2.8,6.6-2
		C-276.2,386-274.2,388.9-274.4,390"/>
	<path fill="#888888" d="M-281.2,385.9l-1.6,0.2l0.8,1.7h-1.7l0.6,1.4l-1.2-0.5l0.9,3.4l-0.6-0.4l-1,2.1l-0.5-1.1l-0.7,1.1l-0.5-1.5
		l-0.7,0.8l-0.3-2.5l-0.5,0.6V389l-0.7,0.7l0.5-2.7l-0.7,0.3l0.9-1.4l-0.9-1.6l1.5,0.6l0.3-1.8l0.6,1l1.8-1.6l-0.1,1l2-1l-0.4,0.8
		l1.8-0.1l-1.2,1.2c0,0,1.7-0.9,3.1,0.9l-2.2,0.2L-281.2,385.9"/>
	<ellipse fill="#C0C0C0" cx="-272.2" cy="389.6" rx="1.2" ry="0.9"/>
	<path fill="#9B9B9B" d="M-276.1,384.9c0,0-1.1-0.4-0.7-1.1c0,0,0.1-0.2,0.7-0.2c0.6,0,2.4,0,2.4,0l-0.5,1L-276.1,384.9"/>
	<path fill="#898989" d="M-277.6,385.9c-0.8,0.2-2.6,0.9-2,1.7c0.7,0.9,2.9,1.7,4.8,0.9C-275.3,387.7-276.3,386.6-277.6,385.9"/>
	<path fill="#C2C2C2" d="M-276.5,384.9c0,0-3.1,0.8-2.4,1.8c0.8,1,3.7,2,5.7,0.4c0,0,0.2,0.5,0.5,0.8l-0.1,1c0,0-0.2,0.5,0.7,0.6
		c0.8,0.1,0.9-0.2,0.9-0.7s0.1-0.9,0.4-1.2c0.3-0.3,1.1-2-0.4-3.2c-1.5-1.2-2.2-1.1-3.1-0.8C-275.3,384-276.2,384.5-276.5,384.9"/>
	<ellipse fill="#D7D7D7" cx="-280" cy="387.7" rx="1.3" ry="1"/>
	<path fill="#A1A1A1" d="M-286.9,388.4v1.8l0.6-0.9l0.4,1.3l0.5-1.3l0.8,0.7l-0.6-2.5l1,0.6l-0.6-1.7l1.6,0.4l-0.8-1.2l1.5-0.3
		l-1.9-0.4l1.1-0.8l-2.3,0.8l-0.3-0.5l-0.6,1.1l-0.9-0.2l0.7,1.3l-0.7,2.4L-286.9,388.4z"/>
	<ellipse fill="#4E4E4E" cx="-279.7" cy="387.7" rx="1" ry="0.8"/>
</g>
</svg>
