<?xml version="1.0" encoding="UTF-8" standalone="no"?>
<svg
   xmlns:dc="http://purl.org/dc/elements/1.1/"
   xmlns:cc="http://creativecommons.org/ns#"
   xmlns:rdf="http://www.w3.org/1999/02/22-rdf-syntax-ns#"
   xmlns:svg="http://www.w3.org/2000/svg"
   xmlns="http://www.w3.org/2000/svg"
   xmlns:sodipodi="http://sodipodi.sourceforge.net/DTD/sodipodi-0.dtd"
   xmlns:inkscape="http://www.inkscape.org/namespaces/inkscape"
   viewBox="0 0 390 106"
   height="106"
   width="390"
   xml:space="preserve"
   version="1.1"
   id="svg2"
   inkscape:version="0.91 r13725"
   sodipodi:docname="logo2.svg"><sodipodi:namedview
     pagecolor="#ffffff"
     bordercolor="#666666"
     borderopacity="1"
     objecttolerance="10"
     gridtolerance="10"
     guidetolerance="10"
     inkscape:pageopacity="0"
     inkscape:pageshadow="2"
     inkscape:window-width="1920"
     inkscape:window-height="1027"
     id="namedview100"
     showgrid="false"
     inkscape:zoom="1.2909231"
     inkscape:cx="67.45623"
     inkscape:cy="29.760816"
     inkscape:window-x="-8"
     inkscape:window-y="-8"
     inkscape:window-maximized="1"
     inkscape:current-layer="svg2" /><metadata
     id="metadata8"><rdf:RDF><cc:Work
         rdf:about=""><dc:format>image/svg+xml</dc:format><dc:type
           rdf:resource="http://purl.org/dc/dcmitype/StillImage" /><dc:title /></cc:Work></rdf:RDF></metadata><defs
     id="defs6"><clipPath
       id="clipPath16"
       clipPathUnits="userSpaceOnUse"><path
         id="path18"
         d="M 0,542 612,542 612,0 0,0 0,542 Z" /></clipPath><clipPath
       id="clipPath950"
       clipPathUnits="userSpaceOnUse"><path
         id="path952"
         d="M 0,542 612,542 612,0 0,0 0,542 Z" /></clipPath><clipPath
       id="clipPath1008"
       clipPathUnits="userSpaceOnUse"><path
         id="path1010"
         d="M 0,542 612,542 612,0 0,0 0,542 Z" /></clipPath><clipPath
       id="clipPath1052"
       clipPathUnits="userSpaceOnUse"><path
         id="path1054"
         d="m 286.221,41.6129 32.807,0 0,-34.21181 -32.807,0 0,34.21181 z" /></clipPath><clipPath
       id="clipPath1068"
       clipPathUnits="userSpaceOnUse"><path
         id="path1070"
         d="m 298.754,41.6129 32.807,0 0,-34.21181 -32.807,0 0,34.21181 z" /></clipPath><clipPath
       id="clipPath1084"
       clipPathUnits="userSpaceOnUse"><path
         id="path1086"
         d="m 286.221,41.6129 45.34,0 0,-34.21181 -45.34,0 0,34.21181 z" /></clipPath><linearGradient
       id="linearGradient1092"
       spreadMethod="pad"
       gradientTransform="matrix(0,34.211845,34.211845,0,302.62439,7.4010944)"
       gradientUnits="userSpaceOnUse"
       y2="0"
       x2="1"
       y1="0"
       x1="0"><stop
         id="stop1094"
         offset="0"
         style="stop-opacity:1;stop-color:#75c37c" /><stop
         id="stop1096"
         offset="0.213904"
         style="stop-opacity:1;stop-color:#73c8b6" /><stop
         id="stop1098"
         offset="0.534759"
         style="stop-opacity:1;stop-color:#38c0cc" /><stop
         id="stop1100"
         offset="0.780749"
         style="stop-opacity:1;stop-color:#406eb4" /><stop
         id="stop1102"
         offset="1"
         style="stop-opacity:1;stop-color:#4a60a9" /></linearGradient><linearGradient
       id="linearGradient1108"
       spreadMethod="pad"
       gradientTransform="matrix(0,34.211845,34.211845,0,315.15781,7.4010944)"
       gradientUnits="userSpaceOnUse"
       y2="0"
       x2="1"
       y1="0"
       x1="0"><stop
         id="stop1110"
         offset="0"
         style="stop-opacity:1;stop-color:#75c37c" /><stop
         id="stop1112"
         offset="0.213904"
         style="stop-opacity:1;stop-color:#73c8b6" /><stop
         id="stop1114"
         offset="0.534759"
         style="stop-opacity:1;stop-color:#38c0cc" /><stop
         id="stop1116"
         offset="0.780749"
         style="stop-opacity:1;stop-color:#406eb4" /><stop
         id="stop1118"
         offset="1"
         style="stop-opacity:1;stop-color:#4a60a9" /></linearGradient><linearGradient
       id="linearGradient1156"
       spreadMethod="pad"
       gradientTransform="matrix(0,82.97937,82.97937,0,342.72205,7.4010944)"
       gradientUnits="userSpaceOnUse"
       y2="0"
       x2="1"
       y1="0"
       x1="0"><stop
         id="stop1158"
         offset="0"
         style="stop-opacity:1;stop-color:#4e9a4f" /><stop
         id="stop1160"
         offset="0.13369"
         style="stop-opacity:1;stop-color:#5eac51" /><stop
         id="stop1162"
         offset="0.42246"
         style="stop-opacity:1;stop-color:#ffce3b" /><stop
         id="stop1164"
         offset="0.534759"
         style="stop-opacity:1;stop-color:#ffce3b" /><stop
         id="stop1166"
         offset="0.780749"
         style="stop-opacity:1;stop-color:#f26e37" /><stop
         id="stop1168"
         offset="1"
         style="stop-opacity:1;stop-color:#dc5039" /></linearGradient><linearGradient
       id="linearGradient1184"
       spreadMethod="pad"
       gradientTransform="matrix(0,82.97937,82.97937,0,355.11151,7.4010944)"
       gradientUnits="userSpaceOnUse"
       y2="0"
       x2="1"
       y1="0"
       x1="0"><stop
         id="stop1186"
         offset="0"
         style="stop-opacity:1;stop-color:#4e9a4f" /><stop
         id="stop1188"
         offset="0.13369"
         style="stop-opacity:1;stop-color:#5eac51" /><stop
         id="stop1190"
         offset="0.42246"
         style="stop-opacity:1;stop-color:#ffce3b" /><stop
         id="stop1192"
         offset="0.534759"
         style="stop-opacity:1;stop-color:#ffce3b" /><stop
         id="stop1194"
         offset="0.780749"
         style="stop-opacity:1;stop-color:#f26e37" /><stop
         id="stop1196"
         offset="1"
         style="stop-opacity:1;stop-color:#dc5039" /></linearGradient></defs><g
     transform="matrix(1.25,0,0,-1.25,0,106)"
     id="g10"><g
       transform="translate(-286.221,-5.6727)"
       id="g1004"><g
         clip-path="url(#clipPath1008)"
         id="g1006"><g
           transform="translate(393.8918,23.817)"
           id="g1012"><path
             id="path1014"
             style="fill:#1a1a1a;fill-opacity:1;fill-rule:nonzero;stroke:none"
             d="m 0,0 -15.013,0 -2.931,-3.735 -3.301,-4.065 c -0.634,-0.891 -1.093,-1.696 -1.374,-2.416 -0.22,-0.553 -0.315,-1.105 -0.295,-1.658 0.024,-0.577 0.349,-1.113 0.98,-1.606 0.631,-0.492 1.656,-0.776 3.071,-0.848 l 0.048,-1.237 -14.56,0 0.311,1.237 c 1.282,0.214 2.414,0.673 3.394,1.367 1.303,0.963 3.15,2.942 5.542,5.945 l 32.927,40.755 1.618,0 -0.003,-39.449 c 0.01,-2.06 0.024,-3.307 0.041,-3.739 0.068,-1.641 0.438,-2.831 1.117,-3.576 0.682,-0.75 1.779,-1.182 3.301,-1.303 l -0.308,-1.237 -21.078,0 0.347,1.237 c 2.08,0.193 3.273,0.36 3.578,0.501 0.662,0.334 1.245,1.037 1.755,2.099 0.507,1.066 0.771,2.913 0.785,5.547 L 0,0 Z m -0.116,2.908 0.325,15.733 -12.86,-15.733 12.535,0 z" /></g><g
           transform="translate(439.381,56.4682)"
           id="g1016"><path
             id="path1018"
             style="fill:#1a1a1a;fill-opacity:1;fill-rule:nonzero;stroke:none"
             d="M 0,0 4.957,-33.191 26.777,0 43.899,0 43.515,-1.238 c -2.345,0 -4.11,-0.497 -5.293,-1.495 -1.179,-0.998 -2.142,-2.968 -2.886,-5.915 L 27.611,-39.56 c -0.498,-1.971 -0.728,-3.436 -0.686,-4.395 0.034,-0.886 0.421,-1.602 1.162,-2.142 0.74,-0.539 2.166,-0.835 4.274,-0.882 l -0.274,-1.237 -24.292,0 0.38,1.237 c 2.612,0 4.518,0.496 5.725,1.495 1.203,0.998 2.179,2.973 2.923,5.924 l 7.822,31.306 -26.222,-39.962 -1.508,0 -6.036,40.746 -8.021,-32.09 c -0.329,-1.319 -0.476,-2.425 -0.442,-3.316 0.048,-1.198 0.5,-2.162 1.354,-2.895 0.857,-0.732 2.279,-1.136 4.271,-1.208 l -0.309,-1.237 -16.093,0 0.275,1.237 c 1.936,0.072 3.403,0.48 4.404,1.225 1.766,1.345 2.999,3.41 3.705,6.194 l 9.074,35.688 c -1.049,1.092 -1.982,1.803 -2.797,2.137 -0.813,0.33 -2.167,0.497 -4.056,0.497 L -17.378,0 0,0 Z" /></g><g
           transform="translate(487.5815,55.2304)"
           id="g1020"><path
             id="path1022"
             style="fill:#1a1a1a;fill-opacity:1;fill-rule:nonzero;stroke:none"
             d="m 0,0 0.346,1.238 23.792,0 L 23.72,0 c -2.156,0 -3.784,-0.48 -4.882,-1.439 -1.1,-0.955 -2.018,-2.955 -2.759,-6.002 l -7.712,-30.86 c -0.559,-2.206 -0.822,-3.679 -0.795,-4.421 0.034,-0.864 0.397,-1.533 1.087,-2.013 0.887,-0.621 2.529,-0.959 4.928,-1.006 l -0.312,-1.238 -24.114,0 0.346,1.238 c 2.421,0 4.172,0.462 5.262,1.383 1.087,0.922 2.026,2.943 2.811,6.057 l 7.713,30.86 c 0.473,1.92 0.688,3.368 0.651,4.352 -0.038,0.883 -0.402,1.581 -1.09,2.082 C 4.165,-0.501 2.543,-0.167 0,0" /></g><g
           transform="translate(582.978,23.817)"
           id="g1024"><path
             id="path1026"
             style="fill:#1a1a1a;fill-opacity:1;fill-rule:nonzero;stroke:none"
             d="m 0,0 -15.01,0 -2.93,-3.735 -3.301,-4.065 c -0.635,-0.891 -1.094,-1.696 -1.378,-2.416 -0.216,-0.553 -0.316,-1.105 -0.292,-1.658 0.024,-0.577 0.35,-1.113 0.981,-1.606 0.63,-0.492 1.651,-0.776 3.071,-0.848 l 0.048,-1.237 -14.561,0 0.308,1.237 c 1.286,0.214 2.416,0.673 3.394,1.367 1.302,0.963 3.153,2.942 5.546,5.945 l 32.926,40.755 1.618,0 -0.006,-39.449 c 0.013,-2.06 0.027,-3.307 0.044,-3.739 0.066,-1.641 0.439,-2.831 1.117,-3.576 0.679,-0.75 1.78,-1.182 3.298,-1.303 l -0.308,-1.237 -21.078,0 0.35,1.237 c 2.077,0.193 3.273,0.36 3.579,0.501 0.658,0.334 1.243,1.037 1.751,2.099 0.511,1.066 0.771,2.913 0.789,5.547 L 0,0 Z m -0.116,2.908 0.329,15.733 -12.861,-15.733 12.532,0 z" /></g><g
           transform="translate(556.3344,57.1107)"
           id="g1028"><path
             id="path1030"
             style="fill:#1a1a1a;fill-opacity:1;fill-rule:nonzero;stroke:none"
             d="m 0,0 c 0.35,-0.403 0.449,-1.73 0.449,-1.73 l -2.314,-13.24 -1.251,0 c -0.37,4.463 -0.5,7.675 -2.443,9.637 -1.941,1.962 -2.945,3.063 -6.311,3.063 -3.465,0 -7.846,-1.32 -11.216,-3.723 -3.365,-2.403 -7.541,-6.107 -9.782,-11.11 -2.238,-5.007 -3.593,-10.267 -3.373,-15.784 0.192,-4.733 1.467,-8.348 3.826,-10.846 2.357,-2.496 5.056,-3.743 8.092,-3.743 1.282,0 2.825,0.343 4.628,1.032 l 3.177,12.73 c 0.538,2.138 0.792,3.534 0.768,4.198 -0.038,0.878 -0.442,1.619 -1.22,2.223 -0.782,0.604 -2.092,0.908 -3.935,0.908 l 0.301,1.379 20.92,0 -0.268,-1.379 c -1.241,-0.077 -2.207,-0.313 -2.899,-0.72 -0.689,-0.402 -1.224,-0.998 -1.598,-1.782 -0.223,-0.462 -0.545,-1.666 -0.97,-3.597 l -3.586,-14.345 c -5.066,-2.078 -10.447,-3.118 -16.137,-3.118 -4.391,0 -8.154,0.771 -11.295,2.309 -3.139,1.541 -5.789,3.978 -7.945,7.319 -2.159,3.341 -3.321,7.145 -3.493,11.411 -0.363,9.098 3.428,16.598 11.374,22.496 6.224,4.575 13.244,6.575 21.303,7.068 0.764,0 2.735,0.23 5.484,0.23 2.334,0 5.035,-0.093 8.95,-0.441 0,0 0.336,0.052 0.764,-0.445" /></g><g
           transform="translate(301.331,39.8837)"
           id="g1032"><path
             id="path1034"
             style="fill:#1a1a1a;fill-opacity:1;fill-rule:nonzero;stroke:none"
             d="M 0,0 10.934,0 24.924,-21.886 21.869,-34.211 0,0 Z" /></g><g
           transform="translate(288.814,39.8837)"
           id="g1036"><path
             id="path1038"
             style="fill:#1a1a1a;fill-opacity:1;fill-rule:nonzero;stroke:none"
             d="m 0,0 10.934,0 21.873,-34.211 -10.934,0 L 0,0 Z" /></g><g
           transform="translate(390.3768,88.6517)"
           id="g1040"><path
             id="path1042"
             style="fill:#1a1a1a;fill-opacity:1;fill-rule:nonzero;stroke:none"
             d="m 0,0 -10.934,0 -58.327,-82.979 10.938,0 L 0,0 Z" /></g><g
           transform="translate(379.944,88.6517)"
           id="g1044"><path
             id="path1046"
             style="fill:#1a1a1a;fill-opacity:1;fill-rule:nonzero;stroke:none"
             d="m 0,0 -10.934,0 -58.323,-82.979 10.934,0 L 0,0 Z" /></g><g
           id="g1048"><g
             id="g1050" /><g
             id="g1056"><g
               style="opacity:0.89999402"
               id="g1058"
               clip-path="url(#clipPath1052)"><g
                 id="g1060"
                 transform="translate(286.2209,41.6129)"><path
                   id="path1062"
                   style="fill:#292929;fill-opacity:1;fill-rule:nonzero;stroke:none"
                   d="m 0,0 10.934,0 21.873,-34.212 -10.935,0 L 0,0 Z" /></g></g></g></g><g
           id="g1064"><g
             id="g1066" /><g
             id="g1072"><g
               style="opacity:0.89999402"
               id="g1074"
               clip-path="url(#clipPath1068)"><g
                 id="g1076"
                 transform="translate(298.7544,41.6129)"><path
                   id="path1078"
                   style="fill:#292929;fill-opacity:1;fill-rule:nonzero;stroke:none"
                   d="m 0,0 10.934,0 21.873,-34.212 -10.934,0 L 0,0 Z" /></g></g></g></g><g
           id="g1080"><g
             id="g1082" /><g
             id="g1120"><g
               style="opacity:0.85000598"
               id="g1122"
               clip-path="url(#clipPath1084)"><g
                 id="g1124"><g
                   id="g1126"><g
                     id="g1128"><g
                       id="g1130"><path
                         id="path1132"
                         style="fill:url(#linearGradient1092);stroke:none"
                         d="m 286.221,41.613 10.934,0 21.873,-34.212 -10.935,0 -21.872,34.212 z" /></g></g></g></g><g
                 id="g1134"><g
                   id="g1136"><g
                     id="g1138"><g
                       id="g1140"><path
                         id="path1142"
                         style="fill:url(#linearGradient1108);stroke:none"
                         d="m 298.754,41.613 10.935,0 21.872,-34.212 -10.934,0 -21.873,34.212 z" /></g></g></g></g></g></g></g></g></g><g
       transform="translate(-286.221,-5.6727)"
       id="g1144"><g
         id="g1146"><g
           id="g1152"><g
             id="g1154"><path
               id="path1170"
               style="fill:url(#linearGradient1156);stroke:none"
               d="m 366.417,90.381 -58.324,-82.98 10.934,0 58.324,82.98 -10.934,0 z" /></g></g></g></g><g
       transform="translate(-286.221,-5.6727)"
       id="g1172"><g
         id="g1174"><g
           id="g1180"><g
             id="g1182"><path
               id="path1198"
               style="fill:url(#linearGradient1184);stroke:none"
               d="m 378.806,90.381 -58.323,-82.98 10.934,0 58.324,82.98 -10.935,0 z" /></g></g></g></g></g></svg>