<svg xmlns="http://www.w3.org/2000/svg" viewBox="0 0 1005.3118 483.60899">
  <defs>
    <clipPath id="a">
      <path d="M0 386.888h541.872V0H0v386.888z"/>
    </clipPath>
    <clipPath id="b">
      <path d="M0 204.269h162.545V0H0v204.269z"/>
    </clipPath>
  </defs>
  <g clip-path="url(#a)" transform="matrix(1.25,0,0,-1.25,0,483.609)">
    <path fill="#2b2a2b" d="M541.8718 383.4092v-138.107H-.0002v138.107c0 1.914 1.565 3.478 3.479 3.478h69.123v-23.449h4.921v23.449h7.499v-23.449h4.99v23.449h7.49v-23.449h3.898v23.449h7.49v-23.449h4.921v23.449h7.49v-23.449h4.999v23.449h7.49v-23.449h3.601v23.449h7.49v-23.449h4.921v23.449h7.49v-23.449h4.999v23.449h7.49v-23.449h3.085v23.449h7.49v-23.449h4.921v23.449h7.499v-23.449h4.99v23.449h7.49v-23.449h3.601v23.449h7.49v-23.449h4.92v23.449h7.499v-23.449h4.991v23.449h7.49v-23.449h3.085v23.449h7.499v-23.449h4.92v23.449h7.49v-23.449h4.991v23.449h7.499v-23.449h3.6v23.449h7.491v-23.449h4.92v23.449h7.49v-23.449h4.999v23.449h7.49v-23.449h4.187v23.449h7.49v-23.449h4.92v23.449h7.49v-23.449h5v23.449h7.49v-23.449h3.601v23.449h7.49v-23.449h4.92v23.449h7.499v-23.449h4.99v23.449h7.491v-23.449h4.702v23.449h7.49v-23.449h4.92v23.449h7.499v-23.449h4.99v23.449h7.491v-23.449h3.6v23.449h7.49v-23.449h4.93v23.449h7.49v-23.449h4.99v23.449h7.49v-23.449h4.781v23.449h75.242c1.914 0 3.478-1.564 3.478-3.478"/>
    <path fill="#1d1d1d" d="M77.523 363.439h-4.92v19.516h4.92v-19.516zm12.489 0h-4.99v19.516h4.99v-19.516zm11.388 0h-3.898v19.516h3.898v-19.516zm12.411 0h-4.92v19.516h4.92v-19.516zm12.489 0h-4.999v19.516h4.999v-19.516zm11.091 0h-3.601v19.516h3.601v-19.516zm12.41 0h-4.921v19.516h4.921v-19.516zm12.49 0h-4.999v19.516h4.999v-19.516zm10.575 0h-3.085v19.516h3.085v-19.516zm12.41 0h-4.921v19.516h4.921v-19.516zm12.49 0h-4.99v19.516h4.99v-19.516zm11.091 0h-3.601v19.516h3.601v-19.516zm12.41 0h-4.921v19.516h4.921v-19.516zm12.49 0h-4.99v19.516h4.99v-19.516zm10.575 0h-3.085v19.516h3.085v-19.516zm12.419 0h-4.921v19.516h4.921v-19.516zm12.481 0h-4.99v19.516h4.99v-19.516zm11.099 0h-3.601v19.516h3.601v-19.516zm12.411 0h-4.921v19.516h4.921v-19.516zm12.489 0h-4.999v19.516h4.999v-19.516zm11.677 0h-4.186v19.516h4.186v-19.516zm12.41 0h-4.921v19.516h4.921v-19.516zm12.489 0h-4.999v19.516h4.999v-19.516zm11.091 0h-3.601v19.516h3.601v-19.516zm12.411 0h-4.921v19.516h4.921v-19.516zm12.489 0h-4.991v19.516h4.991v-19.516zm12.192 0h-4.702v19.516h4.702v-19.516zm12.411 0h-4.921v19.516h4.921v-19.516zm12.489 0h-4.99v19.516h4.99v-19.516zm11.091 0h-3.601v19.516h3.601v-19.516zm12.419 0h-4.929v19.516h4.929v-19.516zm12.481 0h-4.99v19.516h4.99v-19.516zm12.271 0h-4.781v19.516h4.781v-19.516z"/>
    <path fill="#bbbdbf" d="M0 182.812h541.872v62.49H0v-62.49z"/>
    <path fill="#1d1d1d" d="M436.626 31.612h-27.094v14.421h27.094V31.612zm-306.07 0h-26.447v14.421h26.447V31.612zm-62.167 0H0v14.421h68.389V31.612z"/>
    <path fill="#bbbdbf" d="M541.872 148.726H0v29.279h541.872v-29.279z"/>
    <path fill="#2b2a2b" d="M541.872 46.033H0v102.693h541.872V46.033zm-.0002-14.4209V3.4781c0-1.914-1.564-3.478-3.478-3.478H3.4788c-1.914 0-3.479 1.564-3.479 3.478v28.134h541.872z"/>
    <path fill="#1d1d1d" d="M541.872 31.612h-72.034v14.421h72.034V31.612z"/>
    <path fill="#161616" d="M104.109 31.612h-35.72v14.421h35.72V31.612zm61.616 0h-35.169v14.421h35.169V31.612z"/>
    <path fill="#1d1d1d" d="M374.215 31.612h-208.49v14.421h208.49V31.612z"/>
    <path fill="#161616" d="M409.533 31.612h-35.318v14.421h35.318V31.612zm60.305 0h-33.211v14.421h33.211V31.612z"/>
    <path fill="#ec1c24" d="M120.3884 38.8225c0-1.868-1.512-3.387-3.38-3.387-1.875 0-3.387 1.519-3.387 3.387s1.512 3.387 3.387 3.387c1.868 0 3.38-1.519 3.38-3.387"/>
    <path fill="#262261" d="M541.872 178.005h-31.027v4.807h31.027v-4.807z"/>
    <path fill="#ec1c24" d="M62.272 178.005H0v4.807h62.272v-4.807z"/>
    <path fill="#f16522" d="M139.838 178.005H62.272v4.807h77.566v-4.807z"/>
    <path fill="#ffdd15" d="M220.463 178.005h-80.625v4.807h80.625v-4.807z"/>
    <path fill="#00a14b" d="M338.014 178.005H220.463v4.807h117.551v-4.807z"/>
    <path fill="#26a9e0" d="M434.083 178.005h-96.069v4.807h96.069v-4.807z"/>
    <path fill="#2b388f" d="M510.845 178.005h-76.762v4.807h76.762v-4.807z"/>
    <path fill="#1d1d1d" d="M346.9727 269.4851c0-2.727-2.229-4.956-4.956-4.956h-141.585c-2.718 0-4.947 2.229-4.947 4.956v35.536c0 2.727 2.229 4.956 4.947 4.956h141.585c2.727 0 4.956-2.229 4.956-4.956v-35.536zm.655 48.795h-155.132c-3.243 0-5.9-2.657-5.9-5.9v-48.506c0-3.242 2.657-5.899 5.9-5.899h155.132c3.243 0 5.9 2.657 5.9 5.899v48.506c0 3.243-2.657 5.9-5.9 5.9"/>
    <path fill="#161616" d="M338.0143 285.5052h-5.751v2.622h-10.925v-2.622h-100.368v2.622h-12.525v-2.622h-4.518v13.984h134.087v-13.984zm0-14.709h-134.087v12.594h4.518v-2.255h12.525v2.255h100.368v-2.255h10.925v2.255h5.751v-12.594zm4.003 39.181h-141.586c-2.718 0-4.947-2.229-4.947-4.956v-35.536c0-2.727 2.229-4.956 4.947-4.956h141.586c2.727 0 4.955 2.229 4.955 4.956v35.536c0 2.727-2.228 4.956-4.955 4.956"/>
    <path fill="#2b2a2b" d="M338.0143 283.3902v-12.594h-134.087v12.594h4.518v-2.255h12.525v2.255h100.368v-2.255h10.925v2.255h5.751zm0 16.0988v-13.984h-5.751v2.622h-10.925v-2.622h-100.368v2.622h-12.525v-2.622h-4.518v13.984h134.087z"/>
    <path fill="#231f20" d="M62.4815 171.8835l-3.887-9.894h-2.565l3.917 9.034h-5.131v1.982h7.666v-1.122zm6.01-1.6669c0 .374-.119.672-.357.895-.238.222-.555.334-.949.334-.384 0-.703-.117-.956-.349-.254-.234-.38-.532-.38-.895 0-.687.44-1.206 1.321-1.56.881.364 1.321.889 1.321 1.575m-1.429-3.426c-1.029-.405-1.544-1.024-1.544-1.859 0-.399.158-.73.473-.991.315-.261.697-.392 1.148-.392.487 0 .878.128 1.175.385.297.256.446.594.446 1.013 0 .84-.566 1.455-1.698 1.844m-1.621.922v.038c-1.259.517-1.889 1.355-1.889 2.512 0 .85.338 1.55 1.014 2.101.676.55 1.549.826 2.619.826 1.091 0 1.961-.258 2.612-.772.65-.515.975-1.179.975-1.994 0-1.203-.696-2.089-2.089-2.657v-.031c.748-.22 1.328-.583 1.74-1.087.412-.505.618-1.072.618-1.702 0-.973-.359-1.741-1.079-2.304-.719-.563-1.724-.845-3.015-.845-1.116 0-2.016.275-2.7.825-.684.551-1.026 1.28-1.026 2.186 0 1.316.74 2.284 2.22 2.904m10.2424 3.6255c-1.05 0-1.575-1.319-1.575-3.956 0-2.484.515-3.726 1.544-3.726 1.004 0 1.506 1.281 1.506 3.841 0 2.561-.492 3.841-1.475 3.841m-.108-9.54c-2.621 0-3.932 1.841-3.932 5.523 0 1.91.354 3.365 1.063 4.366.71 1.001 1.738 1.502 3.085 1.502 2.56 0 3.84-1.871 3.84-5.615 0-1.864-.349-3.293-1.048-4.286-.699-.994-1.702-1.49-3.008-1.49m8.6221 9.54c-1.05 0-1.575-1.319-1.575-3.956 0-2.484.515-3.726 1.544-3.726 1.004 0 1.506 1.281 1.506 3.841 0 2.561-.492 3.841-1.475 3.841m-.108-9.54c-2.621 0-3.932 1.841-3.932 5.523 0 1.91.354 3.365 1.063 4.366.71 1.001 1.738 1.502 3.085 1.502 2.56 0 3.84-1.871 3.84-5.615 0-1.864-.349-3.293-1.048-4.286-.699-.994-1.702-1.49-3.008-1.49M95.6798 171.1v-3.434h.976c1.321 0 1.981.579 1.981 1.736 0 1.132-.66 1.698-1.981 1.698h-.976zm0-5.316v-3.794h-2.481v11.015h3.887c2.775 0 4.163-1.17 4.163-3.51 0-1.107-.398-2.002-1.194-2.685-.797-.684-1.861-1.026-3.192-1.026h-1.183zm8.713 4.3447v-2.724h.956c.473 0 .853.136 1.14.409.291.278.437.622.437 1.031 0 .856-.512 1.284-1.536 1.284h-.997zm6.009-8.139h-2.534l-1.522 2.52c-.114.191-.223.361-.328.512-.105.15-.211.279-.317.385-.108.107-.219.189-.335.246-.116.057-.242.086-.379.086h-.594v-3.749h-2.205v9.791h3.495c2.377 0 3.565-.887 3.565-2.663 0-.341-.053-.656-.157-.945-.105-.29-.253-.55-.444-.782-.191-.232-.423-.433-.693-.601-.271-.168-.573-.3-.905-.396v-.027c.146-.045.287-.12.423-.222.137-.103.269-.222.396-.359.128-.136.25-.283.366-.44.116-.157.222-.311.317-.461l1.851-2.895zm4.6725 8.0571c-.774 0-1.389-.29-1.844-.871-.455-.58-.682-1.348-.682-2.304 0-.97.227-1.737.682-2.301.455-.564 1.052-.847 1.789-.847.76 0 1.363.274 1.81.823.446.549.669 1.31.669 2.284 0 1.015-.216 1.805-.649 2.369-.432.564-1.024.847-1.775.847m-.096-8.228c-1.402 0-2.544.457-3.427 1.369-.884.913-1.325 2.102-1.325 3.568 0 1.547.448 2.799 1.345 3.755s2.085 1.434 3.564 1.434c1.398 0 2.528-.457 3.391-1.372.862-.915 1.293-2.121 1.293-3.619 0-1.539-.447-2.779-1.341-3.721-.895-.943-2.061-1.414-3.5-1.414m5.6242.5934v2.458c.446-.374.929-.655 1.452-.841.522-.187 1.05-.28 1.582-.28.313 0 .585.028.818.084.233.056.428.135.584.234.156.101.273.218.35.353.076.136.115.284.115.442 0 .215-.062.408-.185.577-.122.169-.29.325-.503.468-.212.143-.464.282-.756.415s-.607.269-.945.407c-.86.358-1.502.796-1.924 1.314-.423.517-.634 1.142-.634 1.874 0 .573.115 1.066.346 1.478.23.412.544.752.941 1.018.396.267.856.462 1.378.588.523.125 1.076.188 1.66.188.573 0 1.081-.034 1.524-.104.443-.068.852-.175 1.226-.318v-2.297c-.185.128-.386.241-.603.338-.218.097-.442.177-.673.242-.23.063-.459.111-.687.142-.228.031-.444.046-.649.046-.282 0-.538-.027-.768-.08-.231-.055-.425-.13-.584-.227-.159-.097-.282-.214-.369-.35-.087-.136-.13-.288-.13-.457 0-.184.048-.349.146-.496.097-.145.235-.283.414-.414.18-.13.397-.259.653-.385.256-.125.546-.254.868-.387.441-.184.836-.381 1.187-.587.351-.208.652-.442.903-.703.251-.262.443-.56.576-.895.133-.336.2-.726.2-1.172 0-.614-.117-1.131-.35-1.547-.233-.418-.549-.756-.949-1.014-.399-.26-.864-.445-1.394-.558-.53-.112-1.089-.169-1.678-.169-.605 0-1.179.052-1.725.154-.545.103-1.018.256-1.417.461m16.0317 9.3689l-3.189-6.309v-3.482h-2.205v3.441l-3.107 6.35h2.52l1.577-3.653c.027-.068.102-.335.225-.799h.028c.058.328.129.585.211.772l1.605 3.68h2.335zm.1801-9.4158v2.185c.396-.332.826-.581 1.29-.748.465-.166.933-.249 1.407-.249.277 0 .52.025.727.075.207.051.38.12.519.208.139.089.243.194.311.315.068.12.102.251.102.392 0 .191-.054.362-.164.512-.109.15-.258.29-.447.417s-.413.25-.672.368c-.26.119-.54.239-.84.362-.765.319-1.335.708-1.711 1.168-.375.46-.563 1.015-.563 1.666 0 .51.102.948.307 1.314.205.367.484.669.837.905.352.237.761.411 1.225.522.465.112.956.168 1.475.168.51 0 .962-.031 1.356-.092.393-.062.756-.157 1.089-.284v-2.041c-.164.113-.343.214-.536.3-.194.086-.393.158-.598.215-.205.057-.409.099-.611.126-.203.028-.395.041-.577.041-.25 0-.478-.023-.683-.071-.205-.048-.378-.116-.519-.202-.141-.086-.25-.19-.327-.31-.078-.121-.116-.256-.116-.407 0-.164.043-.31.129-.44.087-.13.209-.253.369-.369.159-.116.353-.229.58-.341.228-.112.485-.226.772-.345.391-.164.743-.338 1.055-.522.311-.185.579-.393.802-.625.223-.232.394-.498.512-.796.118-.297.178-.645.178-1.041 0-.546-.104-1.004-.311-1.376-.207-.371-.488-.671-.843-.901-.355-.23-.768-.395-1.239-.495-.472-.1-.969-.15-1.492-.15-.538 0-1.048.045-1.533.136-.485.092-.905.228-1.26.41m14.6897 7.62h-2.793v-7.996h-2.212v7.996h-2.779v1.796h7.784v-1.796zm6.7145-7.9956h-5.872v9.791h5.647v-1.795h-3.442v-2.179h3.203v-1.788h-3.203v-2.24h3.667v-1.789zm12.252 0h-2.178v5.858c0 .633.027 1.332.082 2.097h-.055c-.114-.601-.216-1.034-.307-1.298l-2.294-6.657h-1.803l-2.335 6.589c-.064.178-.167.632-.307 1.366h-.062c.059-.966.089-1.812.089-2.54v-5.415h-1.987v9.791h3.23l2-5.803c.159-.465.276-.932.349-1.4h.04c.123.542.253 1.013.39 1.413l2 5.79h3.148v-9.791z"/>
    <path fill-rule="evenodd" d="M72.0858 186.0677c-.709-.032-1.398.069-2.064.312-.67.244-1.289.584-1.833 1.048-.242.207-.486.416-.706.647-.434.456-.801.963-1.114 1.511-.321.563-.581 1.152-.774 1.77-.169.544-.314 1.095-.362 1.665-.041.486-.088.973-.091 1.461-.01 2.019-.004 4.039-.004 6.059v.193h1.184v-.175c0-1.49-.012-2.98.007-4.47.006-.473.091-.945.147-1.417.069-.573.241-1.121.438-1.66.301-.827.692-1.608 1.254-2.289.308-.372.622-.749.982-1.068.815-.723 1.747-1.241 2.835-1.439.034-.006.067-.019.101-.029v-2.119zm-7.5088.0423h-1.776v14.664h1.776V186.11zm13.7236 5.5815c.437 1.94.874 3.872 1.311 5.803.017 0 .035-.008.052-.008.394-1.923.787-3.846 1.189-5.795h-2.552zm7.341-4.929c-.734 2.412-1.468 4.833-2.202 7.245-.358 1.197-.699 2.395-1.084 3.583-.227.708-.463 1.416-.804 2.072-.559 1.066-1.879 1.319-2.613 1.075-.839-.28-1.294-.918-1.538-1.705-.673-2.088-1.32-4.186-1.967-6.275-.367-1.171-.716-2.342-1.083-3.504-.315-.971-.638-1.932-.962-2.902v-.157c.996 0 1.993 0 2.98-.009.219 0 .333.052.403.288.218.804.48 1.6.734 2.412 1.346 0 2.683.009 4.011-.008.096 0 .254-.14.28-.245.253-.804.481-1.617.708-2.421h3.303c-.061.201-.113.376-.166.551m29.7534 13.8125h3.268V186.11h-3.268v14.465zm-60.0717-14.5073c0 .69-.002 1.355.004 2.019 0 .043.055.117.094.124.561.1 1.093.289 1.583.573.389.227.768.482 1.12.764.608.488 1.111 1.077 1.528 1.738.341.538.642 1.1.837 1.706.179.559.327 1.129.464 1.7.065.271.096.556.099.836.018 1.7.025 3.401.035 5.102v.102h1.184v-.183c0-2.206.008-4.413-.007-6.619-.003-.437-.085-.874-.147-1.308-.079-.565-.235-1.111-.432-1.646-.311-.845-.717-1.641-1.29-2.34-.264-.322-.536-.642-.838-.927-.586-.554-1.263-.975-2.018-1.269-.665-.26-1.35-.394-2.064-.372-.046.001-.091 0-.152 0m52.3077 11.7291v-11.572h-3.105v.463c0 3.947.027 7.895-.02 11.843-.012.897 1.015 2.043 2.044 2.044.994 0 1.989.03 2.981-.007 1.909-.069 3.697-1.261 4.251-3.144.437-1.483-.139-3.188-1.429-4.042-.385-.255-.783-.493-1.202-.755 1.24-2.095 2.499-4.224 3.785-6.396-.129-.017-.214-.037-.299-.037-1.062-.002-2.124-.007-3.185.006-.119.001-.295.076-.346.17-1.028 1.887-2.037 3.784-3.06 5.674-.78 1.441-.147 2.113 1.083 2.653.411.18.828.392 1.168.677.655.55.512 1.166.116 1.708-.354.485-.813.811-1.485.725-.412-.053-.836-.01-1.297-.01m-11.0292-6.114c.437 1.94.874 3.863 1.311 5.795.017 0 .044-.009.061-.009.393-1.914.787-3.837 1.18-5.786h-2.552zm7.35-4.921c-.734 2.413-1.477 4.825-2.202 7.246-.446 1.459-.883 2.928-1.32 4.387-.192.638-.42 1.294-.926 1.748-1.128 1.031-2.858.953-3.566-.603-.297-.664-.507-1.372-.726-2.062-.909-2.885-1.8-5.76-2.7-8.644-.271-.865-.542-1.739-.831-2.64 1.058 0 2.063-.008 3.077.009.096 0 .253.131.28.236.271.804.515 1.617.777 2.447 1.338 0 2.675.009 4.003-.009.105 0 .254-.139.289-.235.244-.813.472-1.626.708-2.43h3.295c-.053.192-.105.367-.158.55m-16.8387-.54v11.558h-2.821v2.766h8.767v-2.737h-2.733v-11.587h-3.213z"/>
    <path fill="#fff" d="M75.9378 41.0826v-2.007h.601c.396 0 .698.09.906.271.209.181.313.436.313.766 0 .647-.383.97-1.147.97h-.673zm0-2.526v-1.851h-.574v4.896h1.346c.523 0 .929-.127 1.217-.382.288-.256.432-.615.432-1.079 0-.465-.161-.844-.48-1.141-.32-.296-.752-.443-1.296-.443h-.645zm5.1189 2.6079c-.514 0-.932-.185-1.253-.556-.321-.372-.481-.858-.481-1.462 0-.603.156-1.088.469-1.456.313-.368.721-.551 1.224-.551.537 0 .961.175 1.27.526.309.35.464.84.464 1.471 0 .646-.15 1.146-.45 1.499-.301.352-.715.529-1.243.529m-.041-4.541c-.694 0-1.25.229-1.668.687-.417.457-.626 1.052-.626 1.785 0 .788.213 1.416.638 1.885.426.468 1.005.703 1.738.703.676 0 1.22-.228 1.634-.683.413-.455.619-1.051.619-1.785 0-.799-.211-1.431-.635-1.895-.423-.464-.99-.697-1.7-.697m8.8641 4.978l-1.383-4.896h-.672l-1.007 3.578c-.043.153-.07.319-.079.499h-.014c-.013-.169-.043-.332-.088-.492l-1.014-3.585h-.666l-1.434 4.896h.632l1.041-3.755c.043-.157.07-.321.082-.492h.017c.011.12.047.284.106.492l1.082 3.755h.55l1.038-3.783c.036-.129.063-.282.082-.457h.013c.009.118.04.275.092.471l1.001 3.769h.621zm3.0841-4.8957h-2.595v4.896h2.486v-.519h-1.912v-1.629h1.768v-.515h-1.768v-1.714h2.021v-.519zm1.2782 4.3768v-1.775h.778c.144 0 .277.021.398.065.122.043.227.105.316.186s.158.18.208.297c.05.117.075.248.075.394 0 .262-.085.466-.254.613-.169.147-.415.22-.736.22h-.785zm2.936-4.377h-.683l-.819 1.373c-.075.127-.148.236-.219.326-.07.089-.143.163-.216.22-.074.057-.154.098-.239.125-.086.026-.182.039-.289.039h-.471v-2.083h-.574v4.896h1.462c.213 0 .411-.027.592-.08.181-.054.338-.135.471-.244.133-.11.237-.245.312-.408.076-.163.113-.354.113-.572 0-.171-.025-.327-.077-.47-.051-.142-.124-.268-.218-.38-.094-.112-.208-.207-.342-.285-.133-.079-.282-.14-.449-.183v-.014c.082-.036.154-.077.214-.124s.118-.102.172-.166c.055-.064.109-.136.162-.217.054-.081.114-.175.18-.281l.918-1.472zm42.5608 4.377v-2.007h.601c.396 0 .698.09.906.271.209.181.313.436.313.766 0 .647-.383.97-1.147.97h-.673zm0-2.526v-1.851h-.574v4.896h1.346c.523 0 .929-.127 1.217-.382.288-.256.432-.615.432-1.079 0-.465-.161-.844-.48-1.141-.32-.296-.752-.443-1.296-.443h-.645zm5.5524.0371l-.768 2.086c-.025.068-.05.177-.075.328h-.014c-.023-.139-.049-.249-.078-.328l-.762-2.086h1.697zm1.342-1.888h-.635l-.519 1.372h-2.076l-.488-1.372h-.639l1.878 4.896h.594l1.885-4.896zm4.0637 1.9802c0-1.375-.62-2.062-1.861-2.062-1.188 0-1.782.661-1.782 1.983v2.995h.574v-2.957c0-1.004.423-1.506 1.27-1.506.817 0 1.225.485 1.225 1.455v3.008h.574v-2.916zm.7558-1.7821v.676c.077-.068.17-.13.278-.184.108-.055.222-.101.342-.139.119-.037.239-.066.36-.087.121-.02.232-.03.334-.03.353 0 .617.065.791.196.174.13.261.319.261.565 0 .132-.029.247-.087.345-.058.098-.138.187-.241.268-.102.081-.223.158-.363.232-.14.074-.291.152-.453.234-.17.086-.33.174-.478.263-.148.088-.276.187-.386.293-.109.107-.195.228-.257.364-.063.136-.094.294-.094.476 0 .223.049.417.147.582.097.165.226.301.385.408.16.107.341.187.545.239.204.052.411.079.623.079.483 0 .834-.058 1.055-.175v-.645c-.289.201-.66.301-1.113.301-.125 0-.251-.013-.376-.04-.125-.026-.236-.069-.334-.128-.098-.058-.178-.135-.239-.228-.062-.093-.092-.208-.092-.342 0-.125.023-.233.07-.324.046-.091.115-.174.206-.249.091-.075.202-.148.333-.219.131-.071.282-.147.452-.232.176-.086.342-.177.499-.273.157-.096.295-.201.413-.318.118-.116.212-.245.282-.385.069-.141.104-.303.104-.485 0-.242-.048-.446-.142-.613-.094-.167-.222-.303-.382-.408-.161-.105-.346-.18-.555-.227-.21-.047-.43-.07-.662-.07-.078 0-.173.006-.287.019-.114.013-.23.031-.348.054-.119.024-.231.054-.337.089-.105.035-.19.074-.254.118m6.3001-.198h-2.595v4.896h2.486v-.519h-1.912v-1.629h1.768v-.515h-1.768v-1.714h2.021v-.519zm224.589.198v.676c.077-.068.17-.13.278-.184.108-.055.222-.101.342-.139.119-.037.239-.066.36-.087.121-.02.232-.03.334-.03.353 0 .617.065.791.196.174.13.261.319.261.565 0 .132-.029.247-.087.345-.058.098-.138.187-.241.268-.102.081-.223.158-.363.232-.14.074-.291.152-.453.234-.17.086-.33.174-.478.263-.148.088-.276.187-.386.293-.109.107-.195.228-.257.364-.063.136-.094.294-.094.476 0 .223.049.417.147.582.097.165.226.301.385.408.16.107.341.187.545.239.204.052.411.079.623.079.483 0 .834-.058 1.055-.175v-.645c-.289.201-.66.301-1.113.301-.125 0-.251-.013-.376-.04-.125-.026-.236-.069-.334-.128-.098-.058-.178-.135-.239-.228-.062-.093-.092-.208-.092-.342 0-.125.023-.233.07-.324.046-.091.115-.174.206-.249.091-.075.202-.148.333-.219.131-.071.282-.147.452-.232.176-.086.342-.177.499-.273.157-.096.295-.201.413-.318.118-.116.212-.245.282-.385.069-.141.104-.303.104-.485 0-.242-.048-.446-.142-.613-.094-.167-.222-.303-.382-.408-.161-.105-.346-.18-.555-.227-.21-.047-.43-.07-.662-.07-.078 0-.173.006-.287.019-.114.013-.23.031-.348.054-.119.024-.231.054-.337.089-.106.035-.19.074-.254.118m6.3001-.198h-2.595v4.896h2.486v-.519h-1.912v-1.629h1.768v-.515h-1.768v-1.714h2.021v-.519zm3.2446 0h-2.54v4.896h.574v-4.377h1.966v-.519zm3.108 0h-2.595v4.896h2.486v-.519h-1.912v-1.629h1.768v-.515h-1.768v-1.714h2.021v-.519zm4.0366.2048c-.362-.191-.813-.287-1.352-.287-.696 0-1.254.225-1.673.673-.418.448-.628 1.037-.628 1.765 0 .782.236 1.416.707 1.898s1.068.724 1.792.724c.464 0 .849-.068 1.154-.202v-.611c-.35.196-.737.294-1.161.294-.562 0-1.018-.188-1.367-.563-.35-.376-.524-.878-.524-1.506 0-.597.163-1.071.49-1.425.326-.355.755-.531 1.285-.531.492 0 .917.109 1.277.327v-.556zm3.6543 4.172h-1.413v-4.377h-.574v4.377h-1.41v.519h3.397v-.519zm43.6042 0v-1.775h.778c.144 0 .277.021.398.065.122.043.227.105.316.186s.158.18.208.297c.05.117.075.248.075.394 0 .262-.085.466-.254.613-.169.147-.415.22-.736.22h-.785zm2.936-4.377h-.683l-.819 1.373c-.075.127-.148.236-.219.326-.07.089-.143.163-.216.22-.074.057-.154.098-.239.125-.086.026-.182.039-.289.039h-.471v-2.083h-.574v4.896h1.462c.213 0 .411-.027.592-.08.181-.054.338-.135.471-.244.133-.11.237-.245.312-.408.076-.163.113-.354.113-.572 0-.171-.025-.327-.077-.47-.051-.142-.124-.268-.218-.38-.094-.112-.208-.207-.342-.285-.133-.079-.282-.14-.449-.183v-.014c.082-.036.154-.077.214-.124s.118-.102.172-.166c.055-.064.109-.136.162-.217.054-.081.114-.175.18-.281l.918-1.472zm3.0295.0002h-2.595v4.896h2.486v-.519h-1.912v-1.629h1.768v-.515h-1.768v-1.714h2.021v-.519zm.4759.198v.676c.077-.068.17-.13.278-.184.108-.055.222-.101.342-.139.119-.037.239-.066.36-.087.121-.02.232-.03.334-.03.353 0 .617.065.791.196.174.13.261.319.261.565 0 .132-.029.247-.087.345-.058.098-.138.187-.241.268-.102.081-.223.158-.363.232-.14.074-.291.152-.453.234-.17.086-.33.174-.478.263-.148.088-.276.187-.386.293-.109.107-.195.228-.257.364-.063.136-.094.294-.094.476 0 .223.049.417.147.582.097.165.226.301.385.408.16.107.341.187.545.239.204.052.411.079.623.079.483 0 .834-.058 1.055-.175v-.645c-.289.201-.66.301-1.113.301-.125 0-.251-.013-.376-.04-.125-.026-.236-.069-.334-.128-.098-.058-.178-.135-.239-.228-.062-.093-.092-.208-.092-.342 0-.125.023-.233.07-.324.046-.091.115-.174.206-.249.091-.075.202-.148.333-.219.131-.071.282-.147.452-.232.176-.086.342-.177.499-.273.157-.096.295-.201.413-.318.118-.116.212-.245.282-.385.069-.141.104-.303.104-.485 0-.242-.048-.446-.142-.613-.094-.167-.222-.303-.382-.408-.161-.105-.346-.18-.555-.227-.21-.047-.43-.07-.662-.07-.078 0-.173.006-.287.019-.114.013-.23.031-.348.054-.119.024-.231.054-.337.089-.106.035-.19.074-.254.118m6.3001-.198h-2.595v4.896h2.486v-.519h-1.912v-1.629h1.768v-.515h-1.768v-1.714h2.021v-.519zm3.5997 4.3768h-1.413v-4.377h-.574v4.377h-1.41v.519h3.397v-.519z"/>
  </g>
  <g clip-path="url(#b)" transform="matrix(1.4255573,0,0,-1.4255573,773.59542,483.60899)">
    <path fill="#1a1a1a" d="M159.8144 0H2.7304c-1.508 0-2.73 1.222-2.73 2.73v198.809c0 1.507 1.222 2.73 2.73 2.73h157.084c1.508 0 2.73-1.223 2.73-2.73V2.73c0-1.508-1.222-2.73-2.73-2.73"/>
    <path fill="#a7afb6" d="M153.0737 9.2151H10.2387c-1.689 0-3.071 1.382-3.071 3.072v178.927c0 1.689 1.382 3.072 3.071 3.072h142.835c1.689 0 3.072-1.383 3.072-3.072V12.2871c0-1.69-1.383-3.072-3.072-3.072"/>
    <path fill="#bbbdbf" d="M127.732 47.1H35.325v121.077h92.407V47.1z"/>
    <path fill-rule="evenodd" d="M15.1151 177.3624c-.008.001-.017.001-.025.002-.2-.888-.401-1.776-.602-2.669h1.173c-.184.898-.365 1.783-.546 2.667m-2.885-5.12c.147.444.298.886.44 1.332.17.536.331 1.074.499 1.611.299.963.596 1.927.903 2.887.116.363.322.656.711.784.337.112.942-.003 1.199-.494.157-.3.265-.628.37-.952.177-.546.333-1.099.5-1.649.337-1.111.675-2.221 1.013-3.332.025-.081.048-.162.075-.254h-1.519c-.105.369-.21.744-.324 1.115-.015.048-.084.112-.128.112-.613.008-1.226.005-1.846.005-.116-.374-.237-.739-.34-1.109-.031-.11-.082-.133-.182-.132-.457.003-.914.001-1.371.001v.075zm19.3179 6.5396h1.503v-6.652h-1.503v6.652zm-3.5708-1.2775v-5.322h-1.428v.213c0 1.815.013 3.631-.009 5.446-.006.413.466.94.94.94.457.001.914.014 1.371-.002.878-.032 1.7-.58 1.955-1.447.201-.682-.064-1.466-.657-1.858-.178-.118-.36-.227-.553-.348.57-.963 1.149-1.942 1.741-2.941-.06-.008-.099-.017-.138-.017-.488-.001-.977-.003-1.465.003-.054 0-.135.035-.159.078-.473.868-.937 1.74-1.407 2.609-.359.663-.068.972.498 1.22.189.083.381.181.537.312.301.253.236.536.053.785-.163.223-.373.373-.682.333-.19-.024-.385-.004-.597-.004m-4.4408-.1492c-.01 0-.02 0-.029.001-.2-.885-.4-1.77-.601-2.663h1.173c-.182.896-.363 1.779-.543 2.662m2.823-5.18h-1.519c-.106.371-.21.746-.325 1.117-.014.047-.085.11-.13.11-.613.008-1.226.005-1.843.005-.119-.381-.232-.755-.355-1.126-.016-.047-.086-.108-.133-.109-.462-.008-.925-.005-1.412-.005.13.417.256.816.381 1.216.414 1.325.824 2.65 1.241 3.973.101.32.196.645.335.949.324.716 1.122.753 1.641.278.231-.21.335-.508.424-.804.203-.673.403-1.346.607-2.019.336-1.111.675-2.221 1.013-3.332.024-.081.048-.163.075-.253m-7.8184.0058v5.316h-1.297v1.272h4.031v-1.259h-1.256v-5.329h-1.478z"/>
    <path d="M34.5141 189.7175h15.778l-7.889-18.031h-6.566l6.015 12.744h-7.338v5.287z"/>
    <path d="M57.2281 184.6423c0 1.082-.48 1.623-1.44 1.623-.986 0-1.479-.481-1.479-1.444 0-.582.117-.994.351-1.237.234-.242.622-.363 1.166-.363.935 0 1.402.473 1.402 1.421m.548-7.13c0 1.293-.617 1.94-1.85 1.94-1.291 0-1.936-.594-1.936-1.782 0-1.267.657-1.9 1.97-1.9 1.211 0 1.816.58 1.816 1.742m1.093 4.02c1.451-.441 2.575-1.112 3.371-2.012.795-.901 1.194-1.918 1.194-3.053 0-1.594-.695-2.868-2.082-3.822-1.388-.955-3.247-1.432-5.578-1.432-2.381 0-4.262.473-5.644 1.418-1.382.946-2.072 2.224-2.072 3.836 0 .405.038.786.114 1.142.077.355.194.688.354.999.159.311.359.603.601.878s.526.529.85.763c.325.234.707.453 1.146.655.44.203.895.403 1.366.601v.027h-.038c0 .018-.013.027-.038.027 0 .018-.013.027-.039.027-.764.252-1.397.531-1.9.838-.503.306-.933.74-1.289 1.303-.357.563-.535 1.213-.535 1.952 0 1.287.675 2.361 2.025 3.221 1.349.86 3.036 1.29 5.061 1.29 2.063 0 3.75-.437 5.062-1.31 1.311-.874 1.967-1.995 1.967-3.363 0-.901-.315-1.666-.945-2.296-.631-.631-1.614-1.194-2.951-1.689m24.9321-.7248c0-2.578.845-3.867 2.535-3.867.914 0 1.574.284 1.979.854.405.569.608 1.474.608 2.715 0 1.367-.203 2.363-.608 2.986-.405.624-1.076.935-2.013.935-1.668 0-2.501-1.207-2.501-3.623m2.57 9.383c2.478 0 4.36-.806 5.645-2.418 1.285-1.612 1.927-3.984 1.927-7.118 0-3.052-.654-5.389-1.962-7.01-1.308-1.621-3.178-2.431-5.61-2.431-2.307 0-4.144.758-5.508 2.276-1.365 1.517-2.047 3.969-2.047 7.354 0 2.972.656 5.272 1.97 6.902 1.313 1.63 3.152 2.445 5.516 2.445h.069zm-18.0256-9.383c0-2.578.845-3.867 2.536-3.867.913 0 1.573.284 1.978.854.405.569.608 1.474.608 2.715 0 1.367-.203 2.363-.608 2.986-.405.624-1.076.935-2.013.935-1.667 0-2.501-1.207-2.501-3.623m2.57 9.383c2.478 0 4.36-.806 5.645-2.418 1.285-1.612 1.927-3.984 1.927-7.118 0-3.052-.654-5.389-1.962-7.01-1.308-1.621-3.178-2.431-5.61-2.431-2.307 0-4.144.758-5.508 2.276-1.365 1.517-2.047 3.969-2.047 7.354 0 2.972.656 5.272 1.97 6.902 1.313 1.63 3.152 2.445 5.516 2.445h.069z"/>
  </g>
</svg>
