<svg xmlns="http://www.w3.org/2000/svg" width="159.147" height="200">
  <defs>
    <clipPath id="a">
      <path d="M0 204.269h162.545V0H0v204.269z"/>
    </clipPath>
  </defs>
  <g clip-path="url(#a)" transform="matrix(0.97910109,0,0,-0.97910109,-3.9164044e-4,200)">
    <path fill="#1a1a1a" d="M159.8144 0H2.7304c-1.508 0-2.73 1.222-2.73 2.73v198.809c0 1.507 1.222 2.73 2.73 2.73h157.084c1.508 0 2.73-1.223 2.73-2.73V2.73c0-1.508-1.222-2.73-2.73-2.73"/>
    <path fill="#a7afb6" d="M153.0737 9.2151H10.2387c-1.689 0-3.071 1.382-3.071 3.072v178.927c0 1.689 1.382 3.072 3.071 3.072h142.835c1.689 0 3.072-1.383 3.072-3.072V12.2871c0-1.69-1.383-3.072-3.072-3.072"/>
    <path fill="#bbbdbf" d="M127.732 47.1H35.325v121.077h92.407V47.1z"/>
    <path fill-rule="evenodd" d="M15.1151 177.3624c-.008.001-.017.001-.025.002-.2-.888-.401-1.776-.602-2.669h1.173c-.184.898-.365 1.783-.546 2.667m-2.885-5.12c.147.444.298.886.44 1.332.17.536.331 1.074.499 1.611.299.963.596 1.927.903 2.887.116.363.322.656.711.784.337.112.942-.003 1.199-.494.157-.3.265-.628.37-.952.177-.546.333-1.099.5-1.649.337-1.111.675-2.221 1.013-3.332.025-.081.048-.162.075-.254h-1.519c-.105.369-.21.744-.324 1.115-.015.048-.084.112-.128.112-.613.008-1.226.005-1.846.005-.116-.374-.237-.739-.34-1.109-.031-.11-.082-.133-.182-.132-.457.003-.914.001-1.371.001v.075zm19.3179 6.5396h1.503v-6.652h-1.503v6.652zm-3.5708-1.2775v-5.322h-1.428v.213c0 1.815.013 3.631-.009 5.446-.006.413.466.94.94.94.457.001.914.014 1.371-.002.878-.032 1.7-.58 1.955-1.447.201-.682-.064-1.466-.657-1.858-.178-.118-.36-.227-.553-.348.57-.963 1.149-1.942 1.741-2.941-.06-.008-.099-.017-.138-.017-.488-.001-.977-.003-1.465.003-.054 0-.135.035-.159.078-.473.868-.937 1.74-1.407 2.609-.359.663-.068.972.498 1.22.189.083.381.181.537.312.301.253.236.536.053.785-.163.223-.373.373-.682.333-.19-.024-.385-.004-.597-.004m-4.4408-.1492c-.01 0-.02 0-.029.001-.2-.885-.4-1.77-.601-2.663h1.173c-.182.896-.363 1.779-.543 2.662m2.823-5.18h-1.519c-.106.371-.21.746-.325 1.117-.014.047-.085.11-.13.11-.613.008-1.226.005-1.843.005-.119-.381-.232-.755-.355-1.126-.016-.047-.086-.108-.133-.109-.462-.008-.925-.005-1.412-.005.13.417.256.816.381 1.216.414 1.325.824 2.65 1.241 3.973.101.32.196.645.335.949.324.716 1.122.753 1.641.278.231-.21.335-.508.424-.804.203-.673.403-1.346.607-2.019.336-1.111.675-2.221 1.013-3.332.024-.081.048-.163.075-.253m-7.8184.006v5.316h-1.297v1.272h4.031v-1.259h-1.256v-5.329h-1.478z"/>
    <path d="M34.5141 189.7175h15.778l-7.889-18.031h-6.566l6.015 12.744h-7.338v5.287z"/>
    <path d="M57.2281 184.6423c0 1.082-.48 1.623-1.44 1.623-.986 0-1.479-.481-1.479-1.444 0-.582.117-.994.351-1.237.234-.242.622-.363 1.166-.363.935 0 1.402.473 1.402 1.421m.548-7.13c0 1.293-.617 1.94-1.85 1.94-1.291 0-1.936-.594-1.936-1.782 0-1.267.657-1.9 1.97-1.9 1.211 0 1.816.58 1.816 1.742m1.093 4.02c1.451-.441 2.575-1.112 3.371-2.012.795-.901 1.194-1.918 1.194-3.053 0-1.594-.695-2.868-2.082-3.822-1.388-.955-3.247-1.432-5.578-1.432-2.381 0-4.262.473-5.644 1.418-1.382.946-2.072 2.224-2.072 3.836 0 .405.038.786.114 1.142.077.355.194.688.354.999.159.311.359.603.601.878s.526.529.85.763c.325.234.707.453 1.146.655.44.203.895.403 1.366.601v.027h-.038c0 .018-.013.027-.038.027 0 .018-.013.027-.039.027-.764.252-1.397.531-1.9.838-.503.306-.933.74-1.289 1.303-.357.563-.535 1.213-.535 1.952 0 1.287.675 2.361 2.025 3.221 1.349.86 3.036 1.29 5.061 1.29 2.063 0 3.75-.437 5.062-1.31 1.311-.874 1.967-1.995 1.967-3.363 0-.901-.315-1.666-.945-2.296-.631-.631-1.614-1.194-2.951-1.689m24.9321-.7248c0-2.578.845-3.867 2.535-3.867.914 0 1.574.284 1.979.854.405.569.608 1.474.608 2.715 0 1.367-.203 2.363-.608 2.986-.405.624-1.076.935-2.013.935-1.668 0-2.501-1.207-2.501-3.623m2.57 9.383c2.478 0 4.36-.806 5.645-2.418 1.285-1.612 1.927-3.984 1.927-7.118 0-3.052-.654-5.389-1.962-7.01-1.308-1.621-3.178-2.431-5.61-2.431-2.307 0-4.144.758-5.508 2.276-1.365 1.517-2.047 3.969-2.047 7.354 0 2.972.656 5.272 1.97 6.902 1.313 1.63 3.152 2.445 5.516 2.445h.069zm-18.0256-9.383c0-2.578.845-3.867 2.536-3.867.913 0 1.573.284 1.978.854.405.569.608 1.474.608 2.715 0 1.367-.203 2.363-.608 2.986-.405.624-1.076.935-2.013.935-1.667 0-2.501-1.207-2.501-3.623m2.57 9.383c2.478 0 4.36-.806 5.645-2.418 1.285-1.612 1.927-3.984 1.927-7.118 0-3.052-.654-5.389-1.962-7.01-1.308-1.621-3.178-2.431-5.61-2.431-2.307 0-4.144.758-5.508 2.276-1.365 1.517-2.047 3.969-2.047 7.354 0 2.972.656 5.272 1.97 6.902 1.313 1.63 3.152 2.445 5.516 2.445h.069z"/>
  </g>
</svg>
