<svg xmlns="http://www.w3.org/2000/svg" width="201" height="208">
  <path fill="#3b3b3b" d="M181.77 185.712h11.283v7.362H181.77v-7.362zM2.147 1.53L.943 2.635l-.388 1.4.194 201.53.46 1.03 1.03.66 196.11.174 1.3-.74.66-1.23-.28-179.8h-1.4v-8.2l1.1.27v-2.8L184.65 1.7l-2.99-.174-.932.835h-16.04l-1.4 1.4-3.263.1H52.235v-.93l-26.5-.19.094-1.03-23.69-.18z"/>
  <path fill="none" stroke="#424242" stroke-width="1.125" stroke-miterlimit="10" d="M.562 4.043l.187 201.53.46 1.026 1.02.65 196.12.18 1.3-.75.65-1.21-.28-179.8h-1.4v-8.21l1.12.28v-2.79l-15.1-13.24-2.99-.19-.94.84h-16.04l-1.4 1.4-3.26.09H52.22v-.93l-26.48-.19.094-1.03-23.688-.18-1.21 1.12-.376 1.4z" stroke-linecap="round" stroke-linejoin="round"/>
  <path fill="none" stroke="#858586" stroke-width=".75" stroke-miterlimit="10" d="M26.022 2.364v66.12l.466.84.653.28h28.91" stroke-linecap="round" stroke-linejoin="round"/>
  <path fill="#292929" d="M6.998 193.17h11.284v-7.368H6.998v7.368z"/>
  <path fill="#fff" d="M176.167 202.334V92.637l-1.12-1.305-149.21.187-1.307.93v110.02l151.637-.14z"/>
  <path fill="#b2b2b2" d="M113.863 12.35h28.832v54.09h-28.832V12.35zM52.293 1.295v67.127l1.944 1.497h103.186l1.71-1.89V1.3H52.297l-.004-.005z"/>
  <path fill="red" d="M93.782 126.163c-2.673 0-4.865-2.173-4.865-4.865 0-2.693 2.173-4.866 4.865-4.866 2.673 0 4.866 2.173 4.866 4.866 0 2.692-2.173 4.865-4.866 4.865zm0-7.73c-1.576 0-2.865 1.288-2.865 2.865 0 1.576 1.29 2.865 2.865 2.865 1.577 0 2.866-1.29 2.866-2.865 0-1.577-1.29-2.866-2.866-2.866z" class="st0"/>
  <path fill="#ff5ddc" d="M110.05 126.47h-.133l-7.385-.96c-.27-.04-.5-.174-.654-.386-.153-.21-.23-.48-.192-.73l.962-7.385c.077-.54.576-.93 1.115-.87l7.384.96c.27.04.5.17.654.38.16.21.24.48.2.73l-.96 7.38c-.06.5-.48.86-.98.86zm-6.25-2.826l5.386.71.71-5.383-5.383-.71-.712 5.39z" class="st1"/>
  <path fill="#027fe1" d="M93.917 114.01c-.077 0-.135 0-.21-.02-.54-.115-.886-.635-.77-1.173l1.576-7.557c.116-.54.635-.885 1.173-.77.54.116.885.635.77 1.173l-1.577 7.558c-.08.47-.5.79-.97.79z" class="st2"/>
  <path fill="#027fe1" d="M93.917 114.01c-.077 0-.135 0-.21-.02-.54-.115-.886-.635-.77-1.173l1.576-7.557c.116-.54.635-.885 1.173-.77.54.116.885.635.77 1.173l-1.577 7.558c-.08.47-.5.79-.97.79z" class="st2"/>
  <path fill="#027fe1" d="M98.494 111.01c-.077 0-.135 0-.212-.02l-7.557-1.577c-.54-.115-.885-.634-.77-1.173.116-.538.635-.884 1.174-.77l7.55 1.578c.54.115.88.634.77 1.173-.1.47-.5.79-.96.79z" class="st2"/>
  <path fill="#8aee49" d="M103.686 113.47c-.25 0-.48-.095-.654-.25-.27-.23-.384-.595-.307-.94l1.365-6.5c.077-.347.327-.636.654-.732.327-.115.71-.038.98.192l4.98 4.385c.27.23.386.596.31.942-.078.346-.328.635-.655.75l-6.35 2.096c-.14.04-.23.058-.33.058zm1.98-5.614l-.653 3.134 3.058-1.02-2.4-2.114z" class="st3"/>
  <path fill="gray" d="M136.858 163.662l-6.25-21.557c-.288-1.02-1.403-1.846-2.46-1.846H72.724c-1.057 0-2.153.82-2.46 1.84l-6.174 21.44c-.288 1.02-.538 2.71-.538 3.77v24.19c0 1.05.866 1.92 1.924 1.92h69.998c1.057 0 1.923-.87 1.923-1.93v-24.07c0-1.06-.25-2.75-.54-3.77zm-6.52-2.02l-59.747-.076c-1.05 0-1.69-.827-1.38-1.846l3.96-13.77c.29-1.018 1.41-1.845 2.46-1.845h49.64c1.06 0 2.18.827 2.46 1.846l4.02 13.85c.29 1.02-.34 1.85-1.4 1.85z" class="st4"/>
  <path fill="#fff" d="M70.418 180.91h-3v-5.018h8.02v1h-5.02v4.02zm9.02-1.018h5.02v1h-8.02v-5.02h8.02v3h-5.02v1.02zm0-2h2v-1h-2v1zm9.018 2h5.02v1h-8.02v-5.02h8.02v1h-5.02v3.02zm6-4h8.02v5.02h-8.02v-3h5.02v-1h-5.02v-1.02zm3.02 4h2v-1h-2v1zm5.998-8h3v9.02h-3v-9.02zm4.02 0h3v4h5.02v5.02h-8.02v-9.02zm3 8h2v-3h-2v3zm6.02-4h8.02v5.02h-8.02v-5.02zm3 4h2v-3h-2v3zm7.018-1h1v-1h-1v-1h-1v-1h3v1h2v-1h3v1h-1v1h-1v1h1v1h1v1h-3v-1h-2v1h-3v-1h1v-1zm-1.154-30.807c-.077-3.653-.173-4.827-.52-6.27-1.153-4.845-3.153-8.633-6.115-11.575-4.057-4.04-9.02-4.423-14.75-1.154l-1.326.77c-2.04-.02-4.385-.136-4.885-.27-.384-.25-1.23-.712-1.865-1.04-3.923-1.94-7.5-2.152-10.634-.614-4.173 2.038-7.808 7.596-9.27 14.173-.422 1.903-.46 2.5-.442 7.23.02 5.365.14 6.346.97 8 .79 1.577 1.96 2.635 3.71 3.308.45.173.91.25 1.41.25 2.81 0 6.52-2.635 9.71-7.04l.95-1.287h16.37l.94 1.288c2.48 3.443 6.66 7.096 9.46 7.096 2.14 0 4.31-1.5 5.41-3.73.83-1.827 1.04-3.712.91-9.135z" class="st5"/>
  <path fill="gray" d="M124.628 148.105c-.077-3.597-.173-4.73-.5-6.116-1.135-4.73-3.04-8.37-5.904-11.22-3.827-3.81-8.384-4.16-13.846-1.04l-1.52.86s-5.018-.06-5.44-.37c-.29-.2-1.116-.66-1.847-1.02-3.71-1.85-7.03-2.06-9.98-.62-3.96 1.94-7.44 7.31-8.88 13.67-.4 1.82-.44 2.4-.42 7.07.02 5.25.12 6.13.89 7.65.69 1.402 1.75 2.325 3.31 2.94 2.52.98 6.75-1.71 10.23-6.54l1.18-1.61h17.14l1.18 1.612c2.75 3.81 6.636 6.79 8.848 6.79 1.83 0 3.77-1.35 4.71-3.31.83-1.696 1.02-3.52.89-8.79zm-30.52-6.885h-2.595v2.596c0 .808-.673 1.48-1.48 1.48-.808 0-1.48-.672-1.48-1.48v-2.596h-2.597c-.808 0-1.48-.673-1.48-1.48 0-.808.672-1.48 1.48-1.48h2.596v-2.597c0-.808.673-1.48 1.48-1.48.808 0 1.48.672 1.48 1.48v2.596h2.597c.8 0 1.48.67 1.48 1.48-.02.82-.68 1.48-1.48 1.48zm19.116-8.115c1.25 0 2.27 1.02 2.27 2.27s-1.02 2.268-2.27 2.268-2.27-1.02-2.27-2.27c.02-1.25 1.02-2.268 2.27-2.268zm-7.365 4.384c0-1.25 1.01-2.27 2.26-2.27s2.27 1.02 2.27 2.27-1.02 2.27-2.27 2.27-2.27-1.02-2.27-2.27zm4.71 7.67c-1.25 0-2.27-1.02-2.27-2.27s1.02-2.27 2.27-2.27 2.27 1.02 2.27 2.27-1.02 2.27-2.27 2.27zm4.77-2.27c-1.25 0-2.27-1.02-2.27-2.27s1.02-2.27 2.27-2.27 2.27 1.02 2.27 2.27c0 1.27-1.02 2.27-2.27 2.27z" class="st4"/>
  <path fill="#d40000" d="M114.908 189.066zm0-1.876zm0-1.847zm0 .924zm0 3.723zm0-1.875zm0-3.695z" class="st6"/>
</svg>
