<svg xmlns="http://www.w3.org/2000/svg" viewBox="-64 344.8 370.33917 80.829211">
  <path fill="#025" d="M-23.585393 344.79999C-45.944045 344.79999-64 362.93278-64 385.21459c0 22.35865 18.132789 40.41461 40.414607 40.41461 4.302696 0 8.451724-.6915 12.293416-1.92085v-20.2073c-3.380689 1.92085-7.299216 3.07335-11.448244 3.07335-12.293416 0-22.204983-9.60423-22.204983-21.35981s9.9884-21.35981 22.204983-21.35981c4.225862 0 8.144389 1.15251 11.448244 3.07336v-20.20731c-3.841692-1.22934-7.99072-1.92084-12.293416-1.92084zm12.677586 25.04783h30.11887l-13.5227582 14.0606H-10.907807"/>
  <path fill="red" d="M-10.907807 400.81187h30.11887l-13.5227582-14.0606H-10.907807"/>
  <path fill="#025" d="M70.151908 380.37406c3.841692 0 6.915046-1.07567 9.37373-3.07335 2.458683-2.07452 3.688025-4.91737 3.764858-8.68223-.07683-3.76486-1.306175-6.68454-3.764858-8.75906-2.458684-2.07451-5.532038-3.07335-9.37373-3.07335-3.841693 0-6.915047 1.07567-9.373731 3.07335-2.458683 1.99768-3.688024 4.9942-3.764858 8.75906.07683 3.76486 1.306175 6.68455 3.764858 8.68223 2.458684 1.99768 5.532038 3.07335 9.373731 3.07335zm0-5.4552c-1.767179-.0768-3.073355-.69151-3.918527-1.92085-.845172-1.22934-1.229342-2.68918-1.152508-4.45636 0-1.76718.38417-3.22702 1.152508-4.45637.768339-1.22934 2.074514-1.84401 3.918527-1.92084 1.767178.0768 3.073354.6915 3.918526 1.92084.845172 1.22935 1.229342 2.68919 1.152508 4.45637 0 1.69034-.384169 3.22702-1.152508 4.45636-.845172 1.22934-2.151348 1.84401-3.918526 1.92085zm16.288776 4.91736h7.837053v-9.52739c0-2.38185.38417-4.22587 1.152508-5.37837.768339-1.15251 1.844013-1.69035 3.227022-1.69035 1.075674 0 1.920843.461 2.381853 1.30618.461.84517.76834 1.92084.76834 3.22702v12.13975h7.83705v-9.5274c0-2.38185.38417-4.22586 1.15251-5.37837.76833-1.15251 1.84401-1.69034 3.22702-1.69034 1.07567 0 1.92084.461 2.38185 1.30617.461.84517.76834 1.92085.76834 3.22702v12.13975h7.83705v-13.29226c.0768-3.07335-.461-5.4552-1.53668-7.22238-1.07567-1.69034-3.22702-2.61235-6.45404-2.61235-1.61351 0-3.15019.30734-4.5332.99884-1.38301.69151-2.53552 1.76718-3.45752 3.30386-.61467-1.45985-1.53668-2.53552-2.76602-3.30386-1.22934-.6915-2.68919-1.07567-4.3027-1.07567-1.76718 0-3.457521.38417-4.84053 1.15251-1.459843.76833-2.535517 1.92084-3.38069 3.53435h-.07683v-4.14903h-7.145549l-.07683 22.51232zm42.796456 0h7.83705v-9.52739c0-2.38185.38417-4.22587 1.15251-5.37837.76834-1.15251 1.84401-1.69035 3.22702-1.69035 1.07568 0 1.92085.461 2.38185 1.30618.46101.84517.76834 1.92084.76834 3.22702v12.13975h7.83705v-9.5274c0-2.38185.38417-4.22586 1.15251-5.37837.76834-1.15251 1.84401-1.69034 3.22702-1.69034 1.07568 0 1.92085.461 2.38185 1.30617.46101.84517.76834 1.92085.76834 3.22702v12.13975h7.83705v-13.29226c.0768-3.07335-.461-5.4552-1.53667-7.22238-1.07568-1.69034-3.22702-2.61235-6.45405-2.61235-1.61351 0-3.15018.30734-4.53319.99884-1.38301.69151-2.53552 1.76718-3.45753 3.30386-.61467-1.45985-1.53667-2.53552-2.76602-3.30386-1.22934-.6915-2.68918-1.07567-4.30269-1.07567-1.76718 0-3.45752.38417-4.84053 1.15251-1.45985.76833-2.53552 1.92084-3.38069 3.53435h-.0768v-4.14903h-7.14555l-.0768 22.51232zm54.78254.53784c3.84169 0 6.91504-1.07567 9.37373-3.07335 2.45868-2.07452 3.68802-4.91737 3.76486-8.68223-.0768-3.76486-1.30618-6.68454-3.76486-8.75906-2.45869-2.07451-5.53204-3.07335-9.37373-3.07335s-6.91505 1.07567-9.37373 3.07335c-2.45869 1.99768-3.68803 4.9942-3.76486 8.75906.0768 3.76486 1.30617 6.68455 3.76486 8.68223 2.45868 1.99768 5.60887 3.07335 9.37373 3.07335zm0-5.4552c-1.76718-.0768-3.07336-.69151-3.91853-1.92085s-1.22934-2.68918-1.15251-4.45636c0-1.76718.38417-3.22702 1.15251-4.45637.76834-1.22934 2.07452-1.84401 3.91853-1.92084 1.76718.0768 3.07335.6915 3.91852 1.92084.84518 1.22935 1.22935 2.68919 1.15251 4.45637 0 1.69034-.38417 3.22702-1.15251 4.45636-.84517 1.22934-2.07451 1.84401-3.91852 1.92085zm40.64511-27.58336h-7.83706v12.83126h-.0768c-.99884-1.30618-2.15135-2.15135-3.45752-2.68919-1.30618-.53783-2.76602-.76834-4.3027-.76834-3.15019.15367-5.53204 1.30618-7.14555 3.61119-1.61351 2.30502-2.45868 4.91737-2.45868 7.76022 0 3.45753.922 6.30038 2.61235 8.6054 1.76718 2.30501 4.3027 3.53435 7.68338 3.61119 1.84402 0 3.45753-.46101 4.84054-1.30618 1.38301-.84517 2.38185-1.92085 2.91968-3.22702h.0768v4.07219h7.22238l-.0768-32.50072zm-17.36445 20.97565c0-1.53668.38416-2.84286 1.22934-3.91853.84517-1.07567 1.99768-1.61351 3.53435-1.69035 1.45985 0 2.61236.61468 3.45753 1.69035.84517 1.07567 1.30617 2.45868 1.30617 4.22586 0 1.69035-.53783 3.07336-1.38301 4.14903-.84517 1.07567-1.99768 1.61351-3.38069 1.61351-1.45984 0-2.61235-.61467-3.45752-1.69034-.84517-1.07568-1.30617-2.53552-1.30617-4.37953zm33.42272 12.06291c3.84169 0 6.91505-1.07567 9.37373-3.07335 2.45868-2.07452 3.68803-4.91737 3.76486-8.68223-.0768-3.76486-1.30618-6.68454-3.76486-8.75906-2.45868-2.07451-5.53204-3.07335-9.37373-3.07335s-6.91505 1.07567-9.37373 3.07335c-2.45868 2.07452-3.68802 4.9942-3.76486 8.75906.0768 3.76486 1.30618 6.68455 3.76486 8.68223 2.45868 1.99768 5.60887 3.07335 9.37373 3.07335zm0-5.4552c-1.76718-.0768-3.07335-.69151-3.91853-1.92085-.76833-1.22934-1.22934-2.68918-1.1525-4.45636 0-1.76718.38417-3.22702 1.1525-4.45637.76834-1.22934 2.07452-1.84401 3.91853-1.92084 1.76718.0768 3.07336.6915 3.91853 1.92084.76834 1.22935 1.22934 2.68919 1.15251 4.45637 0 1.69034-.38417 3.22702-1.15251 4.45636-.76834 1.22934-2.07452 1.84401-3.91853 1.92085zm32.88489-17.90229c-.38417-.0768-.84517-.15367-1.30617-.15367-.46101-.0768-.92201-.0768-1.38301-.0768-1.69035 0-3.07336.461-4.0722 1.30617-1.07567.84518-1.92084 1.99768-2.61235 3.38069h-.0768v-4.14903h-7.14555v22.58916h7.83705v-9.5274c0-2.22818.461-3.99536 1.45984-5.2247.99884-1.22934 2.38185-1.84401 4.22587-1.84401h1.30617c.46101 0 .84517.0768 1.30618.2305l.461-6.53088zm24.51 13.83009v-1.45984c.0768-3.45752-.84517-6.45404-2.53552-8.83589-1.76718-2.45869-4.68686-3.68803-8.83589-3.8417-3.61119 0-6.45404 1.07568-8.68223 3.07336-2.22818 2.07451-3.38069 4.91736-3.38069 8.68222.0768 3.76486 1.30618 6.68455 3.76486 8.68223 2.45869 2.07451 5.53204 3.07335 9.37373 3.15019 1.45985 0 2.91969-.0768 4.3027-.30734 1.38301-.2305 2.76602-.61467 3.99536-1.07567v-5.53204c-1.15251.61467-2.38185 1.07567-3.53436 1.30618-1.15251.30733-2.30501.38416-3.38069.38416-1.92084 0-3.45752-.30733-4.61003-.99884-1.15251-.6915-1.84401-1.76717-2.07451-3.30385l15.59727.0768zm-15.75094-4.45636c.0768-1.30618.461-2.45868 1.15251-3.30386.6915-.922 1.76718-1.38301 3.15019-1.38301 1.53667 0 2.68918.46101 3.30385 1.38301.69151.92201.99884 1.99768.99884 3.30386h-8.60539zM40.340373 380.06673c-3.38069-.92201-5.993041-2.45869-8.144389-4.84054-2.151348-2.38185-3.150188-4.53319-3.764859-8.37489-1.152507-7.52972 2.074514-14.44476 8.298056-17.44128 3.150188-1.53668 7.37605-2.30502 11.601912-2.30502 2.612351 0 4.917367.46101 7.068715.84517l-.691505 6.76138s-.537837-.15366-2.074514-.53783c-1.459843-.38417-2.919686-.53784-4.37953-.53784-2.919686 0-5.762539.76834-7.606551 2.22818-4.37953 3.38069-4.37953 12.21658.153668 15.90461 2.766018 2.30501 7.760219 3.07335 12.216582 1.92085l2.074514-.53784.614671 6.83821c-1.306175.30734-4.072194.84517-7.452884.84517-4.456363 0-5.839372-.15366-7.913886-.76833zm-17.518119 3.91852H306.33917v2.30502H22.822254z"/>
  <path fill="red" d="M65.61871 420.94233c0-.38416-.07683-.6915-.307335-.76833-.230502-.15367-.461003-.23051-.845173-.23051-1.229341-.2305-1.920846-.6915-2.151347-1.383-.230502-.76834-.307336-1.69035-.307336-2.84286l-1.229342-23.66482c0-.84518-.07683-1.53668-.230501-2.15135-.153668-.53784-.691505-.84517-1.690345-.92201-.845172 0-1.459843.30734-1.844012.76834-.38417.461-.768339 1.07567-1.229342 1.69035l-15.213103 21.35981-2.535517 3.61119c-.537837.76834-1.075674 1.45984-1.613511 2.15135-.614671.6915-1.383009 1.07567-2.305016 1.22934-.537837.0768-.99884.15366-1.459843.30733-.461003.15367-.691504.53784-.768338 1.15251 0 .38417.153667.61467.384169.69151.230502.0768.537837.15366.845172.15366.845173 0 1.767179-.0768 2.689185-.15366.922006-.0768 1.767179-.15367 2.689185-.15367.845172 0 1.613511.0768 2.38185.15367.768338.0768 1.61351.0768 2.381849.15366.384169 0 .691505-.0768.99884-.2305.307335-.15367.461003-.461.461003-.84517-.07683-.61467-.384169-.92201-1.075674-.99884-.691504-.0768-1.306175-.2305-1.99768-.38417-.691505-.15367-.99884-.61467-1.075674-1.45984.153668-.84518.691505-2.07452 1.690345-3.61119.99884-1.53668 1.690345-2.68919 2.151348-3.30386h9.450564c.07683.99884.07683 1.99768.153667 2.99652.07683.99884.07683 1.99768.07683 2.99652-.07683 1.38301-.384169 2.22818-1.075674 2.45868-.691504.2305-1.383009.38417-1.99768.38417-.691505 0-1.075674.46101-1.075674 1.15251 0 .30734.07683.53784.307336.69151.230501.15366.461003.15366.768338.15366 1.306176 0 2.612351-.0768 3.918527-.15366 1.306175-.0768 2.612351-.15367 3.918526-.15367.845173 0 1.767179.0768 2.612351.0768.845173.0768 1.767179.0768 2.612351.0768.384169 0 .768339-.0768.99884-.15367.38417-.15367.537837-.38417.537837-.84518zm-11.678745-12.06291h-7.913887l7.529717-10.98724.38417 10.98724zm80.368205-18.05596c0-.30733-.0768-.461-.30733-.61467-.15367-.15366-.38417-.2305-.69151-.2305-.461 0-.84517 0-1.22934.0768-.38417 0-.84517.0768-1.22934.15366-1.07567.0768-2.07451.15367-3.15019.23051h-3.22702c-.76834 0-1.53668-.0768-2.38185-.0768-.76834-.0768-1.53667-.0768-2.38185-.0768-.38417 0-.6915.0768-.99884.30733-.30733.2305-.461.53784-.461.92201.15367.6915.6915 1.07567 1.61351.99884.92201-.0768 1.45984.38417 1.61351 1.22934 0 .2305 0 .461-.0768.76834-.0768.2305-.15367.461-.2305.76834l-5.99304 20.74514c-.23051.99884-.46101 1.84401-.76834 2.53552-.30734.6915-.92201 1.1525-1.92085 1.383-.461.0768-.99884.15367-1.61351.30734s-.99884.53784-.99884 1.07567c0 .30734.15367.53784.38417.69151.2305.15367.53784.2305.84517.2305.99884 0 2.07452-.0768 3.07336-.15367 1.07567-.0768 2.07451-.15366 3.15018-.15366 1.15251 0 2.22819.0768 3.38069.15366 1.15251.0768 2.22818.0768 3.38069.15367.46101 0 .99884 0 1.61351-.0768s.92201-.38417.99884-.99884c-.0768-.61467-.38417-.92201-.922-.99884-.53784-.0768-1.15251-.15367-1.69035-.30734-.53783-.15367-.84517-.6915-.922-1.61351 0-.38417.0768-.76834.15366-1.15251.0768-.38417.23051-.76834.30734-1.15251l5.99304-20.82197c.2305-.84517.461-1.45984.76834-1.84401.30733-.38417.922-.69151 1.76718-.84517.461-.0768.922-.15367 1.45984-.38417.38417-.38417.61467-.69151.6915-1.22935zm31.19455.23051c-.0768-.53784-.61467-.84518-1.53668-1.07568-.99884-.2305-1.99768-.30733-3.07335-.38417-1.07568-.0768-1.76718-.0768-2.15135-.0768-3.99536 0-8.14439.84517-12.44708 2.38185-4.3027 1.61351-7.99072 3.91852-11.06408 6.99188-3.07335 3.07335-4.68686 6.83821-4.7637 11.29458.0768 2.84285.84517 5.14786 2.45869 6.99188 1.61351 1.84401 3.53435 3.22702 5.99304 4.14902 2.38185.92201 4.84053 1.38301 7.45288 1.38301 1.53668 0 3.07335-.0768 4.68686-.30733 1.53668-.15367 3.07336-.461 4.61004-.84517.53783-.0768 1.07567-.23051 1.45984-.46101.38417-.15367.6915-.53783.92201-1.15251.38416-1.1525.76833-2.38184 1.1525-3.61119.38417-1.22934.69151-2.45868.99884-3.61119.53784-1.69034 1.22935-2.76602 1.99768-3.07335.76834-.30734 1.45985-.461 2.07452-.461s.922-.38417.922-1.15251c0-.30734-.15366-.53784-.38417-.69151-.2305-.15366-.53783-.2305-.76833-.2305-1.15251 0-2.38185.0768-3.53436.15367-1.22934.0768-2.38185.15367-3.61119.15367-1.15251 0-2.30502-.0768-3.38069-.15367-1.15251-.0768-2.30502-.15367-3.38069-.15367-.38417 0-.76834.0768-1.07568.2305-.38416.15367-.53783.46101-.53783.84518.0768.53783.38417.84517.922.922.61467.0768 1.15251.15367 1.76718.38417.61467.15367.92201.69151.92201 1.53668-.0768.922-.30734 2.07451-.84517 3.68802-.46101 1.53668-.92201 2.76602-1.22935 3.76486-.15366.69151-.461 1.22934-.76833 1.53668-.30734.30733-.84518.461-1.61351.461-2.76602-.0768-4.91737-.922-6.30038-2.68918-1.45984-1.76718-2.15135-3.91853-2.15135-6.60771 0-2.45869.53784-4.91737 1.53668-7.22239.99884-2.30501 2.38185-4.37953 4.07219-6.1467 1.69035-1.69035 3.8417-3.15019 6.30038-4.37953 2.53552-1.22935 4.9942-1.84402 7.45288-1.92085 1.15251 0 1.84401.2305 2.15135.6915.2305.46101.38417 1.22935.30734 2.30502 0 .30733 0 .53784-.0768.84517 0 .30734-.0768.53784-.0768.84517 0 .46101.0768.92201.2305 1.30618.15367.38417.53784.61467 1.07567.61467.61467-.0768.99884-.30733 1.30618-.84517.30733-.53784.461-1.07568.61467-1.53668.15367-.38417.38417-1.15251.76834-2.38185.30733-1.22934.53784-1.99768.61467-2.30501zm27.19918 29.88836c0-.38416-.0768-.6915-.30733-.76833-.2305-.15367-.46101-.23051-.84517-.23051-1.22935-.2305-1.92085-.6915-2.15135-1.383-.2305-.76834-.30734-1.69035-.30734-2.84286l-1.22934-23.66482c0-.84518-.0768-1.53668-.2305-2.15135-.15367-.53784-.69151-.84517-1.69035-.92201-.84517 0-1.45984.30734-1.84401.76834-.38417.461-.76834 1.07567-1.22934 1.69035l-15.2131 21.35981-2.53552 3.61119c-.53784.76834-1.07567 1.45984-1.61351 2.15135-.61467.6915-1.38301 1.07567-2.30502 1.22934-.53783.0768-.99884.15366-1.45984.30733-.461.15367-.6915.53784-.76834 1.15251 0 .38417.15367.61467.38417.69151.2305.0768.53784.15366.84517.15366.84518 0 1.76718-.0768 2.68919-.15366.922-.0768 1.76718-.15367 2.68918-.15367.84518 0 1.61351.0768 2.38185.15367.84517.0768 1.61351.0768 2.38185.15366.38417 0 .69151-.0768.99884-.2305.30734-.15367.46101-.461.46101-.84517-.0768-.61467-.38417-.92201-1.07568-.99884-.6915-.0768-1.30617-.2305-1.99768-.38417-.6915-.15367-.99884-.61467-1.07567-1.45984.15366-.84518.6915-2.07452 1.69034-3.61119.99884-1.53668 1.69035-2.68919 2.15135-3.30386h9.5274c.0768.99884.0768 1.99768.15367 2.99652.0768.99884.0768 1.99768.0768 2.99652-.0768 1.38301-.38417 2.22818-1.07567 2.45868-.69151.2305-1.38301.38417-1.99768.38417-.69151 0-1.07568.46101-1.07568 1.15251 0 .30734.0768.53784.30734.69151.2305.15366.461.15366.76834.15366 1.30617 0 2.61235-.0768 3.91852-.15366 1.30618-.0768 2.61235-.15367 3.91853-.15367.84517 0 1.76718.0768 2.61235.0768.84517.0768 1.76718.0768 2.61235.0768.38417 0 .76834-.0768.99884-.15367.30734-.15367.461-.38417.461-.84518zm-11.75558-12.06291h-7.91388l7.52971-10.98724.38417 10.98724zm-66.76861-17.90229c0-.30733-.0768-.53783-.30734-.6915-.15367-.15367-.38417-.2305-.6915-.2305-.99884 0-1.99768 0-2.99652.0768-.99885.0768-1.99769.0768-2.99653.0768-.53783 0-1.30617-.0768-2.38184-.0768-1.07568 0-1.76718.0768-2.15135.38417-.0768.0768-.15367.2305-.15367.30733-.0768.15367-.15367.23051-.15367.30734L89.283537 410.8771l-.537837-19.43896c0-.38417 0-.69151-.07683-.92201-.07683-.30734-.307335-.38417-.691505-.461-1.075673 0-2.228181 0-3.303855.0768h-3.303856c-.614671 0-1.229342-.0768-1.844012-.0768-.614671-.0768-1.229342-.0768-1.844013-.0768-.384169 0-.768338.0768-1.152508.15367-.384169.15367-.537837.38417-.61467.84517.153667.76834.768338 1.15251 1.767178 1.07568 1.075674 0 1.613511.38417 1.767179 1.07567 0 .53784-.153668 1.07567-.307336 1.61351-.230501.53784-.384169 1.07567-.537837 1.53668-1.152507 3.22702-2.305015 6.37721-3.457523 9.60423-1.152508 3.22702-2.305016 6.37721-3.534357 9.60423-.461003 1.38301-.922006 2.30502-1.38301 2.84285-.461003.53784-1.383009.92201-2.842852 1.15251-.384169.0768-.768339.15367-1.075674.38417-.307336.15367-.461003.461-.461003.92201 0 .38417.153667.61467.384169.76834.230502.0768.537837.15366.922006.15366.845173 0 1.690345 0 2.535517-.0768.845173-.0768 1.690345-.0768 2.535518-.0768.768338 0 1.536677.0768 2.305015.15366.768339.0768 1.536677.0768 2.305016.15367.384169 0 .691504-.0768.99884-.2305.307335-.15367.461003-.461.537837-.84517-.07683-.69151-.384169-.99884-1.075674-1.07568-.691505-.0768-1.383009-.15366-2.074514-.30733-.691505-.15367-1.075674-.76834-1.075674-1.84401.07683-1.45985.614671-3.68803 1.613511-6.68455.99884-2.91969 1.99768-5.83937 3.150188-8.60539 1.075674-2.76602 1.844012-4.61003 2.228182-5.60887l.537837 22.58915c0 .6915.07683 1.22934.230501 1.69034.153668.38417.614671.61468 1.383009.61468.768339 0 1.38301-.30734 1.844013-.84518.461003-.53783.845172-1.07567 1.229342-1.69034l15.213095-22.35865-4.994193 18.90113c-.153668.84517-.384169 1.61351-.691505 2.45868-.307335.84517-.922006 1.30617-1.767178 1.53668-.537837 0-1.075674.15366-1.690345.2305-.614671.15366-.99884.53783-1.075674 1.1525 0 .38417.153668.61468.384169.76834.230502.15367.537837.23051.845173.23051 1.075674 0 2.228181-.0768 3.303855-.15367 1.075674-.0768 2.228182-.15367 3.303856-.15367 1.152502 0 2.305012.0768 3.380682.15367 1.15251.0768 2.30502.15367 3.38069.15367.46101 0 .76834-.0768 1.15251-.23051.30734-.15366.53784-.461.53784-.922-.0768-.53784-.30734-.92201-.84517-.99884-.53784-.0768-1.07568-.2305-1.61352-.38417-.53783-.15367-.84517-.61467-.84517-1.45985 0-.53783.0768-1.1525.2305-1.76717.15367-.61467.23051-1.15251.38417-1.69035l4.84054-19.43896c.15366-.84518.38417-1.53668.6915-1.99768.30734-.46101.84517-.76834 1.76718-.92201.461 0 .92201-.15367 1.38301-.30734.2305.0768.53784-.2305.53784-.84517z"/>
  <g fill="#025">
    <path d="M205.14898714 398.27634483l-2.99652027 1.92084633.1536677-8.75905925 3.68802495-2.3818494h7.22238218v33.4995599l-8.1443884.0768339.07683384-24.3563314zm.92200623-1.6135109v25.12466992h6.30037595v-31.7323813h-6.0698744l-3.0733541 1.9976802-.07683386 6.5308775 2.9196864-1.92084633z"/>
    <path d="M206.91616576 420.8654976l.07683385-25.89300845-2.9965202 1.92084633.0768339-4.37952962 2.4586833-1.61351092 4.9173666.07683386v29.8883688"/>
  </g>
  <g fill="#025">
    <path d="M232.42500495 415.0261248h7.6833853v7.6833853h-24.81733452l12.52391804-14.36793053c.92200624-.99884008 1.84401248-2.07451403 2.68918486-3.15018797 1.53667706-1.99768018 3.30385568-4.53319733 1.76717862-6.99188062-.9988401-1.69034477-3.53435724-1.69034477-5.0710343-.84517238-1.1525078.61467082-1.84401247 1.7671786-1.99768018 2.99652026-.1536677.76833853-.07683385 2.1513479.53783697 2.68918486l1.1525078 1.07567394-4.7636989 6.45404365-1.4598432-1.6135109c-1.84401247-1.9976801-2.99652026-4.4563634-3.22702182-7.2223821-.23050156-2.4586833.3073354-4.9942004 1.53667706-7.0687145 1.22934165-2.074514 2.99652027-3.6880249 5.224702-4.6100312 2.4586833-1.0756739 5.224702-1.2293416 7.837053-.6915047 3.6111911.7683386 6.99188063 3.6111911 8.14438843 7.1455484.9220063 2.91968648.8451724 5.224702-.2305015 8.14438848-.9220062 2.4586833-2.5355171 4.61003118-4.2258619 6.5308775-.9988401 1.22934165-2.1513479 2.53551715-3.3038557 3.84169266zm-1.92084632.84517237c1.53667706-1.84401247 3.07335412-3.53435724 4.61003118-5.30153586 1.613511-1.9208463 3.150188-3.9185265 4.0721943-6.3003759.9988401-2.6891848 1.075674-4.8405327.2305016-7.5297176-1.0756739-3.2270218-4.2258619-5.8393728-7.5297176-6.5308775-2.4586833-.5378369-4.9942004-.3841692-7.299216.6146708-1.9976802.9220063-3.68802493 2.3818495-4.84053272 4.3026958-1.1525078 1.9976802-1.69034476 4.3026958-1.4598432 6.5308775.23050156 2.5355172 1.3061755 4.8405328 2.99652027 6.6845452l.69150466.7683386 3.68802494-4.9173666-.61467084-.5378369c-.8451724-.76833852-.9988401-2.38184943-.8451724-3.4575234.23050156-1.53667704 1.07567394-2.9196864 2.4586833-3.68802493 1.9976802-.99884007 4.99420044-.84517236 6.2235421 1.22934167 1.7671786 2.84285257.07683384 5.6857051-1.84401248 8.06755458-.84517235 1.07567396-1.7671786 2.07451405-2.68918483 3.150188l-11.21774255 12.9080873h21.97448197v-5.91620667l-8.60539153-.07683386z"/>
    <path d="M238.34121163 420.8654976h-19.1316294l9.91156704-11.44824408c2.91968642-3.30385568 7.3760499-7.6833853 4.6100312-12.21658263-1.45984322-2.3818495-4.84053275-2.8428526-7.3760499-1.5366771-3.53435724 1.7671786-3.7648588 6.8382129-1.84401248 8.6053915l-2.5355172 3.3806895c-6.6845452-7.3760499-.8451724-18.9011279 9.6810654-16.6729461 2.9196864.6146708 5.8393728 2.9965202 6.8382129 5.9930405.84517234 2.5355171.7683385 4.45636342-.1536677 6.9918806-1.5366771 4.1490281-5.6088713 7.6833853-9.6810655 12.83125342h9.6810655v4.0721942z"/>
  </g>
  <path fill="none" d="M255.62883 394.74199c-7.83705-.2305-6.53088 15.13627-4.37953 19.20846.92201 1.76718 2.22818 2.68919 4.37953 2.68919s3.68802-.84517 4.68686-2.61235c2.22819-3.84169 3.15019-19.0548-4.68686-19.2853zm4.9942 15.2131c-.15367 1.07568-.53784 2.61235-1.07567 3.6112-.84518 1.53667-2.15135 2.15134-3.91853 2.15134h-.30734c-1.53667-.0768-2.45868-.76834-3.22702-2.22818-.53784-.99884-.84517-2.45868-1.07567-3.53436-.30734-1.69034-.46101-3.45752-.46101-5.14786 0-2.61236.46101-6.91505 2.84286-8.52856.6915-.46101 1.45984-.61467 2.30501-.61467 4.3027.15366 5.2247 5.6857 5.37837 9.06639 0 1.69035-.15367 3.53436-.461 5.2247z"/>
  <path fill="none" d="M264.31105 394.05049c-2.07451-2.99652-4.9942-4.45637-8.60539-4.45637-3.61119 0-6.45404 1.45985-8.52855 4.45637-2.38185 3.30385-2.99653 7.60655-2.99653 11.67874 0 3.99536.69151 8.29806 2.99653 11.67875 2.07451 2.91968 4.9942 4.45636 8.52855 4.45636 3.61119 0 6.45405-1.45984 8.52856-4.37953 2.38185-3.30385 2.99652-7.52972 2.99652-11.44824 0-4.14903-.61467-8.60539-2.91969-11.98608zm-.76833 22.81965c-1.92085 2.68919-4.5332 3.99536-7.83706 3.99536-3.30385 0-5.9162-1.38301-7.83705-4.07219-1.92085-2.68919-2.84285-6.45405-2.84285-11.14091 0-4.68687.922-8.45173 2.84285-11.14091 1.92085-2.68919 4.5332-4.07219 7.83705-4.07219 3.38069 0 5.99304 1.383 7.83706 4.07219 1.84401 2.68918 2.76601 6.53088 2.76601 11.37141.0768 4.68686-.922 8.37489-2.76601 10.98724z"/>
  <path fill="#025" d="M255.62883 395.664c-.84517 0-1.61351.15366-2.30502.61467-2.38185 1.61351-2.84285 5.9162-2.84285 8.52856 0 1.69034.15367 3.45752.461 5.14786.23051 1.07568.53784 2.53552 1.07568 3.53436.76834 1.45984 1.69034 2.15135 3.22702 2.22818h.30734c1.76717 0 3.07335-.61467 3.91852-2.15134.53784-.99885.92201-2.45869 1.07568-3.6112.30733-1.76717.38416-3.53435.30733-5.30153 0-3.30386-.92201-8.91273-5.2247-8.98956zm3.30385 16.98028c-.76833 1.61351-1.99768 2.07451-3.15018 2.07451-1.22934 0-2.30502-.2305-3.07336-1.99768-.6915-1.61351-1.15251-4.61003-1.15251-6.99188 0-2.91968.30734-5.76254 1.30618-7.37605.6915-1.15251 1.92085-1.61351 2.84285-1.61351.99884 0 2.15135.69151 2.84286 1.92085.922 1.61351 1.30617 4.22586 1.30617 7.06871.0768 2.45869-.15367 5.2247-.92201 6.91505z"/>
  <path fill="#025" d="M265.00256 393.51265c-2.22818-3.22702-5.37837-4.84053-9.2969-4.84053-3.91852 0-7.06871 1.61351-9.29689 4.7637-2.45869 3.45752-3.15019 7.99072-3.15019 12.13974 0 4.22587.6915 8.68223 3.15019 12.21659 2.22818 3.15018 5.37837 4.84053 9.29689 4.84053 3.8417 0 6.99188-1.61351 9.22007-4.7637 2.45868-3.45752 3.15018-7.83705 3.15018-11.98608.0768-4.14903-.61467-8.75906-3.07335-12.37025zm-.76834 23.89533c-2.07451 2.91968-4.9942 4.37953-8.52856 4.37953-3.61119 0-6.45404-1.45985-8.52855-4.45637-2.38185-3.38069-2.99653-7.68338-2.99653-11.67874s.69151-8.29806 2.99653-11.67875c2.07451-2.91968 4.9942-4.45636 8.52855-4.45636 3.61119 0 6.53088 1.45984 8.60539 4.45636 2.38185 3.38069 2.99652 7.83706 2.99652 11.90925-.0768 3.99536-.6915 8.22122-3.07335 11.52508z"/>
  <path fill="#025" d="M263.54272 394.51149c-1.84402-2.68919-4.45637-4.07219-7.83706-4.07219-3.30385 0-5.9162 1.383-7.83705 4.07219-1.92085 2.68918-2.84285 6.37721-2.84285 11.14091s.922 8.45172 2.84285 11.14091c1.92085 2.68918 4.5332 4.07219 7.83705 4.07219 3.30386 0 5.91621-1.30617 7.83706-3.99536 1.92084-2.68918 2.84285-6.30038 2.84285-10.98724 0-4.84053-.92201-8.60539-2.84285-11.37141zm-3.22703 19.43896c-.99884 1.76718-2.53551 2.61236-4.68686 2.61236-2.15135 0-3.45752-.92201-4.37953-2.68919-2.15135-3.99536-3.45752-19.36213 4.37953-19.20846 7.83705.30733 6.91505 15.52044 4.68686 19.28529z"/>
  <path fill="none" d="M282.36701 395.04933c-7.83705-.23051-6.53088 15.13627-4.37953 19.20846.92201 1.76718 2.22818 2.68918 4.37953 2.68918s3.68802-.84517 4.68686-2.61235c2.22819-3.91852 3.22703-19.05479-4.68686-19.28529zm5.07103 15.2131c-.15366 1.07567-.53783 2.61235-1.07567 3.61119-.84517 1.53668-2.15135 2.15135-3.91853 2.15135h-.30733c-1.53668-.0768-2.45868-.76834-3.22702-2.22818-.53784-.99884-.84518-2.45869-1.07568-3.53436-.30733-1.69035-.461-3.45752-.461-5.14787 0-2.61235.461-6.91505 2.84285-8.52856.69151-.461 1.45985-.61467 2.30502-.61467 4.30269.15367 5.2247 5.68571 5.37837 9.0664-.0768 1.69034-.2305 3.45752-.46101 5.2247z"/>
  <path fill="none" d="M291.04924 394.28099c-2.07452-2.99652-4.99421-4.45637-8.6054-4.45637-3.61119 0-6.45404 1.45985-8.52855 4.45637-2.38185 3.30385-2.99652 7.60655-2.99652 11.67874 0 3.99536.6915 8.29806 2.99652 11.67875 2.07451 2.91969 4.9942 4.45636 8.52855 4.45636 3.61119 0 6.45405-1.45984 8.52856-4.37953 2.38185-3.30385 2.99652-7.52971 2.99652-11.44824.0768-4.0722-.53784-8.52856-2.91968-11.98608zm-.76834 22.89649c-1.92085 2.68918-4.5332 3.99536-7.83706 3.99536-3.30385 0-5.9162-1.38301-7.83705-4.0722-1.92085-2.68918-2.84285-6.45404-2.84285-11.14091 0-4.68686.922-8.45172 2.84285-11.14091 1.92085-2.68918 4.5332-4.07219 7.83705-4.07219 3.38069 0 5.99304 1.38301 7.83706 4.07219 1.84401 2.68919 2.76602 6.53088 2.76602 11.37142.0768 4.68686-.84518 8.37489-2.76602 10.98724z"/>
  <path fill="#025" d="M282.36701 395.8945c-.84517 0-1.61351.15367-2.30502.61467-2.38185 1.61351-2.84285 5.91621-2.84285 8.52856 0 1.69034.15367 3.45752.461 5.14787.23051 1.07567.53784 2.53551 1.07568 3.53435.76834 1.45985 1.69034 2.15135 3.22702 2.22818h.30734c1.76717 0 3.07335-.61467 3.91852-2.15134.53784-.99884.92201-2.45869 1.07568-3.61119.30733-1.76718.38417-3.53436.30733-5.30154 0-3.30386-.922-8.83589-5.2247-8.98956zm3.30386 16.98028c-.76834 1.61351-1.99768 2.07451-3.15019 2.07451-1.22934 0-2.30502-.2305-3.07336-1.99768-.6915-1.61351-1.1525-4.61003-1.1525-6.99188 0-2.91968.30733-5.76254 1.30617-7.37605.69151-1.1525 1.92085-1.61351 2.84285-1.61351.99884 0 2.15135.69151 2.84286 1.99768.922 1.61351 1.30617 4.22586 1.30617 7.06872.0768 2.45868-.15367 5.2247-.922 6.83821z"/>
  <path fill="#025" d="M291.74074 393.81998c-2.22818-3.22702-5.37837-4.84053-9.2969-4.84053-3.91852 0-7.06871 1.61351-9.29689 4.7637-2.45869 3.45752-3.15019 7.99072-3.15019 12.13975 0 4.22586.6915 8.68223 3.15019 12.21658 2.22818 3.15019 5.37837 4.84054 9.29689 4.84054 3.8417 0 6.99188-1.61352 9.22007-4.7637 2.45868-3.45753 3.15018-7.83706 3.15018-11.98608.0768-4.22587-.61467-8.8359-3.07335-12.37026zm-.76834 23.89533c-2.07451 2.91969-4.9942 4.37953-8.52856 4.37953-3.61119 0-6.45404-1.45984-8.52855-4.45636-2.38185-3.38069-2.99652-7.68339-2.99652-11.67875 0-3.99536.6915-8.29805 2.99652-11.67874 2.07451-2.91969 4.9942-4.45637 8.52855-4.45637 3.61119 0 6.53088 1.45985 8.6054 4.45637 2.38184 3.38069 2.99652 7.83705 2.99652 11.90925 0 3.99536-.69151 8.22122-3.07336 11.52507z"/>
  <path fill="#025" d="M290.35773 394.81882c-1.84401-2.68918-4.45636-4.07219-7.83705-4.07219-3.30386 0-5.91621 1.38301-7.83706 4.07219-1.92084 2.68919-2.84285 6.37721-2.84285 11.14091s.92201 8.45173 2.84285 11.14091c1.92085 2.68919 4.5332 4.0722 7.83706 4.0722 3.30385 0 5.9162-1.30618 7.83705-3.99536 1.92085-2.68919 2.84285-6.30038 2.84285-10.98724-.0768-4.84054-.99884-8.68223-2.84285-11.37142zm-3.30386 19.43897c-.99884 1.76718-2.53551 2.61235-4.68686 2.61235-2.15135 0-3.45752-.92201-4.37953-2.68918-2.15135-3.99536-3.45752-19.36214 4.37953-19.20847 7.91389.30734 6.91505 15.44361 4.68686 19.2853z"/>
</svg>
