<?xml version="1.0" encoding="UTF-8" ?>
<!DOCTYPE svg PUBLIC "-//W3C//DTD SVG 1.1//EN" "http://www.w3.org/Graphics/SVG/1.1/DTD/svg11.dtd">
<svg width="609pt" height="177pt" viewBox="0 0 609 177" version="1.1" xmlns="http://www.w3.org/2000/svg">
<g id="#526188ff">
<path fill="#526188" opacity="1.00" d=" M 61.70 1.83 C 69.66 -0.94 79.18 2.14 84.04 9.02 C 86.86 12.81 87.89 17.50 89.28 21.92 C 105.05 73.42 120.96 124.88 136.69 176.39 C 126.85 176.34 117.01 176.35 107.17 176.38 C 103.11 161.65 99.34 146.84 95.24 132.11 C 77.07 132.13 58.90 132.14 40.73 132.11 C 36.89 146.84 33.19 161.61 29.40 176.36 C 19.79 176.35 10.19 176.37 0.59 176.35 C 16.62 122.53 32.82 68.76 48.90 14.95 C 50.61 8.79 55.62 3.75 61.70 1.83 M 67.57 37.81 C 61.27 61.72 55.21 85.70 49.01 109.64 C 61.55 109.77 74.10 109.74 86.65 109.66 C 80.36 85.69 74.25 61.66 67.57 37.81 Z" />
<path fill="#526188" opacity="1.00" d=" M 284.51 1.39 C 294.44 -1.28 305.40 5.09 308.38 14.85 C 325.05 68.65 341.43 122.55 358.09 176.36 C 348.18 176.30 338.26 176.49 328.34 176.26 C 324.62 161.50 320.54 146.84 316.59 132.14 C 298.42 132.11 280.25 132.13 262.09 132.13 C 258.18 146.83 254.51 161.60 250.79 176.35 C 241.14 176.36 231.48 176.36 221.83 176.35 C 238.11 122.44 254.18 68.47 270.36 14.53 C 272.30 8.02 277.96 2.98 284.51 1.39 M 286.25 47.91 C 280.99 68.50 275.51 89.04 270.40 109.67 C 282.94 109.72 295.47 109.77 308.01 109.64 C 301.71 85.76 295.50 61.86 289.08 38.01 C 287.69 41.17 287.17 44.61 286.25 47.91 Z" />
<path fill="#526188" opacity="1.00" d=" M 380.37 5.35 C 383.27 2.73 386.98 0.71 390.98 0.79 C 400.65 0.70 410.33 0.79 420.00 0.76 C 426.56 0.83 433.31 0.39 439.59 2.67 C 452.87 7.08 462.61 18.80 467.34 31.65 C 475.24 52.83 471.38 78.87 455.21 95.21 C 452.21 98.33 448.53 100.64 444.95 103.02 C 441.17 105.46 441.15 111.14 443.34 114.66 C 456.09 135.25 468.93 155.79 481.68 176.39 C 471.25 176.29 460.81 176.43 450.38 176.31 C 439.31 158.84 428.15 141.41 417.04 123.96 C 412.60 116.92 410.99 108.07 412.82 99.94 C 413.92 94.31 416.47 88.70 420.98 85.00 C 426.84 80.19 434.89 78.74 440.06 73.00 C 446.63 65.62 448.45 54.65 445.68 45.29 C 443.67 38.06 438.35 30.79 430.47 29.61 C 423.36 28.72 416.15 29.33 409.00 29.12 C 406.44 29.25 403.52 28.61 401.35 30.35 C 399.11 32.13 398.35 35.17 398.31 37.92 C 398.30 84.06 398.32 130.19 398.31 176.33 C 389.55 176.34 380.80 176.33 372.05 176.33 C 372.04 126.55 372.07 76.77 372.04 26.99 C 372.05 19.12 374.58 10.89 380.37 5.35 Z" />
<path fill="#526188" opacity="1.00" d=" M 121.26 4.58 C 158.67 4.54 196.09 4.57 233.50 4.56 C 233.47 12.11 233.62 19.65 233.42 27.20 C 219.26 27.11 205.10 27.14 190.94 27.18 C 190.92 76.91 190.94 126.63 190.93 176.36 C 181.92 176.36 172.90 176.36 163.89 176.35 C 163.85 126.63 163.95 76.91 163.84 27.20 C 149.65 27.08 135.46 27.19 121.27 27.14 C 121.26 19.62 121.27 12.10 121.26 4.58 Z" />
<path fill="#526188" opacity="1.00" d=" M 500.55 5.09 C 509.53 5.10 518.51 5.08 527.50 5.10 C 527.49 62.19 527.51 119.27 527.49 176.36 C 518.51 176.35 509.53 176.36 500.55 176.36 C 500.54 119.27 500.54 62.18 500.55 5.09 Z" />
<path fill="#526188" opacity="1.00" d=" M 578.25 5.27 C 587.00 3.23 596.58 6.81 601.96 13.97 C 608.53 22.90 606.59 36.25 598.96 43.94 C 593.84 49.45 585.53 51.11 578.41 49.26 C 568.83 46.99 561.12 37.92 560.92 28.00 C 560.38 17.60 568.38 7.89 578.25 5.27 M 578.35 11.49 C 571.66 13.91 566.28 20.71 566.98 28.04 C 567.22 37.48 576.78 45.17 586.04 43.93 C 595.46 43.15 601.96 33.00 600.07 24.00 C 598.66 14.24 587.44 8.35 578.35 11.49 Z" />
<path fill="#526188" opacity="1.00" d=" M 580.31 58.42 C 589.31 57.04 598.77 61.81 603.36 69.62 C 608.91 79.89 605.16 94.03 595.41 100.38 C 590.59 103.56 584.49 103.83 578.95 102.91 C 569.32 100.86 561.40 91.94 560.93 82.03 C 560.10 70.78 569.26 60.01 580.31 58.42 M 580.42 64.44 C 573.31 65.98 567.07 72.49 566.96 79.95 C 566.15 90.35 576.88 99.33 586.97 97.27 C 595.42 96.12 601.27 87.27 600.24 79.02 C 599.83 69.42 589.58 62.42 580.42 64.44 Z" />
<path fill="#526188" opacity="1.00" d=" M 582.64 116.00 C 585.15 111.00 590.55 106.98 596.36 108.43 C 604.23 109.75 609.19 118.50 607.27 126.04 C 605.88 133.63 597.12 139.07 589.79 136.18 C 586.52 135.16 584.46 132.23 582.69 129.50 C 579.89 133.96 573.96 136.44 569.01 134.07 C 560.95 130.77 559.68 118.64 566.16 113.16 C 571.04 108.72 579.41 110.34 582.64 116.00 M 590.25 113.34 C 582.47 116.47 582.68 129.91 591.05 132.06 C 597.69 134.35 605.00 127.96 603.61 121.11 C 602.81 115.03 595.96 110.93 590.25 113.34 M 570.38 115.46 C 563.84 117.97 564.72 129.64 572.01 130.34 C 577.56 131.59 582.06 125.51 580.33 120.43 C 579.53 116.03 574.34 113.84 570.38 115.46 Z" />
<path fill="#526188" opacity="1.00" d=" M 563.32 142.17 C 577.88 147.54 592.36 153.15 606.94 158.46 C 606.97 160.18 606.98 161.91 607.02 163.64 C 593.85 158.65 580.80 153.33 567.59 148.44 C 567.72 155.91 567.54 163.38 567.79 170.84 C 566.37 170.84 564.96 170.84 563.56 170.84 C 563.44 161.28 563.53 151.73 563.32 142.17 Z" />
</g>
</svg>
