<?xml version="1.0" encoding="utf-8"?>
<!-- Generator: Adobe Illustrator 19.0.0, SVG Export Plug-In . SVG Version: 6.00 Build 0)  -->
<svg version="1.1" baseProfile="tiny"
	 id="svg3004" xmlns:rdf="http://www.w3.org/1999/02/22-rdf-syntax-ns#" xmlns:dc="http://purl.org/dc/elements/1.1/" xmlns:inkscape="http://www.inkscape.org/namespaces/inkscape" xmlns:sodipodi="http://sodipodi.sourceforge.net/DTD/sodipodi-0.dtd" xmlns:cc="http://creativecommons.org/ns#" xmlns:svg="http://www.w3.org/2000/svg" sodipodi:docname="icon_filled.svg" inkscape:version="0.91 r13725"
	 xmlns="http://www.w3.org/2000/svg" xmlns:xlink="http://www.w3.org/1999/xlink" x="0px" y="0px" viewBox="-290 382 30 30"
	 xml:space="preserve">
<sodipodi:namedview  inkscape:cy="14.770215" inkscape:cx="27.076271" inkscape:zoom="11.8" bordercolor="#666666" objecttolerance="10" borderopacity="1" pagecolor="#ffffff" guidetolerance="10" gridtolerance="10" showgrid="false" id="namedview150" inkscape:current-layer="svg3004" inkscape:window-maximized="1" inkscape:window-y="-8" inkscape:pageopacity="0" inkscape:window-x="-8" inkscape:window-height="1027" inkscape:window-width="1920" inkscape:pageshadow="2">
	</sodipodi:namedview>
<g>
	<path fill="#E09461" d="M-275.4,394.9c0,0,1.6-0.1,1.6,3.5v2h-2.8l0.3-5.1L-275.4,394.9"/>
	<path fill="#513522" d="M-281.1,407.7c0,0-2,1.5-2,3.4h5.8l0.2-0.7c0,0,0.2-0.6-0.4-0.6h-1.2V409L-281.1,407.7"/>
	<path fill="#6D4A32" d="M-286.8,407.7c0,0-2,1.5-2,3.4h5.8l0.2-0.7c0,0,0.2-0.6-0.4-0.6h-1.2V409L-286.8,407.7"/>
	<path fill="#665138" d="M-287,390.1l-2.7,5.4c0,0-1.3,1.6,1.5,3.2l2.9,1.3l2-4.9l1-3.8l-2.4-1.9L-287,390.1"/>
	<path fill="#5F6032" d="M-282.5,397.6c0,0-0.1,3.9,1.9,6.2l1,1l-2.5,2.5l3.4,1.7l3.2-3c0,0,1.3-0.9,1.3-2.6c0,0,0.2-0.5-1.2-1.6
		l-1.4-1.8L-282.5,397.6"/>
	<path fill="#717238" d="M-279.5,405.3l2.9-2.9l-5.7-1.9L-279.5,405.3z"/>
	<path fill="#7E8341" d="M-286.1,399c0,0-2,3.1,0,5.4l1.6,0.8l-2.5,2.2l2.3,2.3l4-2c0,0,1.4-0.6,1.4-2.4c0,0,0-2-1-3l-2-2
		L-286.1,399"/>
	<path fill="#7F6A49" d="M-282.8,390.8c-0.5,1-1.8,1.4-2.8,0.9l-1.5-0.8c-1-0.5-1.5-1.8-0.9-2.8c0.5-1,1.8-1.4,2.8-0.9l4.5,2.2
		C-279.7,390-282.2,389.7-282.8,390.8"/>
	<path fill="#BA3000" d="M-275.7,395.2v4.8l-3.2-0.8l1.6-5.2L-275.7,395.2z"/>
	<path fill="#C1B0A4" d="M-276,394.9l-2.4,4.7l-2.3-1.4l2.2-4.2L-276,394.9z"/>
	<path fill="#E24500" d="M-280.7,389.1c0,0-5,2-7.1,8.8c0,0,2,3.2,5.8,3.6l3.5-6.8v-3.9l-2.3-1.9"/>
	<path fill="#F5B181" d="M-279.7,389.9l5.6-2.1c0,0,2.2,1.8,1.8,2.3c-0.4,0.6-1.2,0.6-1.5,0.6v3.5c0,0-0.1,1.2-1.3,1.2h-1.2
		l-0.8-0.8h-1.8v-3.3c0,0-0.9,0.1-0.9-0.6L-279.7,389.9L-279.7,389.9z"/>
	<path fill="#FFC91F" d="M-280.7,389c0,0-1,0.1-1-0.8c0,0-0.3-1.3,1-2l5.4-2.1c0,0,0.1-1.2,1.2-1.1c1.1,0.1,2.1,0.8,1.5,3.2
		c0,0-0.1,0.4,0.4,0.2c0,0,0.6,0.5,0,0.9c-0.6,0.5-2,0.4-2.3-0.5L-280.7,389"/>
	<path fill="#FFD255" d="M-272.2,386.4c-0.5,0.2-0.4-0.2-0.4-0.2c0.6-2.5-0.5-3.2-1.5-3.2c-0.2,0-0.4,0-0.6,0.1
		c0.3,0.3,0.7,0.6,0.9,1c0.5,0.7-0.2,1.1-0.2,1.1l-1.4,0.7v1.2l0.8-0.3c0.3,1,1.7,1,2.3,0.5C-271.6,386.9-272.2,386.4-272.2,386.4"
		/>
	<path fill="#E2DBC7" d="M-279.7,389.9c0,0-1,0.2-1-1l3.9-2.5c0,0,1.7-1,2-0.3l0.7,1.7L-279.7,389.9"/>
	<path fill="#F5B181" d="M-282.7,393c0,0,2.3-0.4,2.3,2.2v2.9l3,1.2l-1.7,2.5l-3.6-1.3c0,0-1.7-0.8-1.7-2.5c0,0-0.4-0.9-0.4-2.1
		C-284.9,396-285,393-282.7,393"/>
	<path fill="#513522" d="M-277.7,399.2l0.9,0.4l-1.4,2.6l-0.9-0.4L-277.7,399.2z"/>
	<path fill="#F5B181" d="M-276.8,399.6h1.7l1.9,2.1l-0.7,0.8l-0.7-0.2l-1,1l-2.6-0.6v-0.6L-276.8,399.6z"/>
	<path fill="#9B8A86" d="M-275.1,399.6l-0.9-1.2l1.6-1.1v-1h0.7v1c0,0,0.4-0.2,1.1,0.5l4.3,4.3l0.4-0.4l1.3,1.3l-2.4,2.4l-4.2-3.8
		L-275.1,399.6"/>
	<path fill="#E89C69" d="M-274.1,387.8l-5.6,2.1v0.9c0,0.7,0.9,0.6,0.9,0.6v3.3h1.6v-4.5l4.1-1.5
		C-273.6,388.2-274.1,387.8-274.1,387.8"/>
	<path fill="#87726E" d="M-272,397.7h1.4v4.8h-1.4V397.7z"/>
</g>
</svg>
