<svg xmlns="http://www.w3.org/2000/svg" width="732.71863" height="267.42215">
  <defs>
    <clipPath id="a">
      <path d="M0 168.731h456.605V0H0v168.731z"/>
    </clipPath>
  </defs>
  <g clip-path="url(#a)" transform="matrix(1.25,0,0,-1.25,0,263.89111)">
    <path fill="#00007f" d="M38.9126 30.1729h-17.432v30.692h-4.212v-34.658h21.644v3.966zm4.281 20.785c0-6.755-.107-13.334.051-19.907.065-2.737 1.863-4.536 4.436-5.379 4.532-1.485 8.506-.371 12.271 3.366-.191-3.682 1.78-2.848 3.547-2.67v24.519h-4.239c0-4.535.108-8.858-.052-13.171-.067-1.805-.411-3.72-1.145-5.354-1.217-2.713-4.182-3.89-6.995-3.247-3.121.712-3.512 3.024-3.489 5.692.047 5.336.014 10.672.014 16.151h-4.399zm25.777-7.569c1.9.524 4.022.534 4.335 1.291 1.707 4.129 5.039 3.381 8.152 3.044 2.037-.22 3.315-1.502 3.226-3.817-.087-2.24-1.66-2.569-3.354-2.883-2.934-.543-5.952-.85-8.766-1.769-3.376-1.102-4.808-3.732-4.616-7.225.183-3.322 2.149-5.602 5.561-6.579 4.159-1.191 7.656.353 9.896 1.951 2.78-.936 4.717-1.681 6.716-2.182.398-.099 1.364.666 1.474 1.163.153.694-.133 2.121-.438 2.181-2.642.517-2.002 2.516-2.023 4.166-.047 3.717-.008 7.436-.016 11.154-.01 4.851-1.67 6.901-6.211 7.697-6.672 1.171-12.023-.754-13.395-4.867-.251-.752-.268-1.582-.541-3.325m6.229 16.157c8.758.029 15.777 7.073 15.681 15.737-.097 8.715-7.126 15.554-15.924 15.492-8.578-.061-15.444-6.967-15.495-15.585-.051-8.672 6.992-15.673 15.738-15.644M53.2266.0009c-29.1-.169-53.061 23.59-53.226 52.779-.165 29.387 23.363 53.187 52.854 53.464 29.098.274 53.217-23.506 53.377-52.625.162-29.621-23.39-53.446-53.005-53.618m37.6413 106.4245c.026 8.699 6.794 15.358 15.573 15.323 8.647-.035 15.481-6.937 15.417-15.573-.063-8.525-7.116-15.454-15.676-15.399-8.628.054-15.34 6.913-15.314 15.649"/>
    <path fill="#00007f" d="M84.3901 38.2695c.882-6.759-2.713-10.603-8.58-9.065-1.307.343-3.137 1.962-3.175 3.047-.046 1.331 1.256 3.469 2.476 3.93 2.934 1.108 6.16 1.44 9.279 2.088m28.9271.0643c.472 8.475 4.649 13.004 12.532 13.586 8.025-.395 12.395-3.93 13.108-10.605l-8.612.033c-.494 3.183-1.329 5.286-2.503 6.307-1.175 1.043-2.372.867-3.59-.527-1.208-1.394-1.845-4.254-1.911-8.58-.12-5.72.472-8.958 1.779-9.716 1.306-.746 2.624-.653 3.952.28 1.329.933 2.042 2.882 2.141 5.846l-4.496.017-.049 3.622h13.24c-.637-7.454-3.145-11.736-7.526-12.844-4.38-1.109-8.382-.802-12.005.922-3.623 1.723-5.643 5.61-6.06 11.659m39.0451 3.4912c-2.064-.088-3.134-1.685-3.211-4.792V32.06c.164-3.052 1.257-4.65 3.277-4.793 1.976.209 2.948 1.093 2.915 2.652v8.678c.153 1.965-.84 3.041-2.981 3.228m2.882 1.746l7.723-.017v-18.51h-7.74l-.016.626c-.604-.472-2.443-.653-5.517-.543-3.14.066-5.445 1.065-6.916 2.997-1.471 1.943-2.114 4.051-1.927 6.323.033 2.086.62 3.98 1.762 5.682 1.142 1.701 3.327 2.959 6.554 3.771 3.063.209 5.089-.104 6.077-.939v.61zm21.1116.4278c3.93.626 6.4-.593 7.41-3.656.527 1.383 2.268 2.684 5.221 3.903 5.16.758 7.937-1.153 8.332-5.731v-13.355l-6.471.033.049 11c.066 2.514-.972 3.717-3.112 3.607-1.856.274-3.195-.61-4.019-2.652v-12.07h-6.652 1.333-1.333v12.63c0 1.669-.978 2.591-2.932 2.767-1.372.121-2.404-.538-3.096-1.976v-13.421h-6.768v18.163h6.11-1.334 2.025l-.016-2.206c1.482 1.712 3.233 2.701 5.253 2.964m32.8532-2.1738c-1.91-.099-2.893-1.575-2.948-4.43h5.715c-.022 2.723-.945 4.199-2.767 4.43m-.099 2.009c6.489-.198 9.886-3.299 10.194-9.304h-13.043c-.099-3.985.385-6.242 1.449-6.768 1.065-.516 2.119-.451 3.162.197 1.065.648 1.488 2.124 1.268 4.43h6.999-1.433 1.433c-.977-3.941-3.03-6.247-6.159-6.916-3.129-.67-6.066-.473-8.81.592-2.734 1.076-4.512 3.535-5.336 7.378l-.016 1.284c.812 5.797 4.243 8.833 10.292 9.107m17.8184 7.6247h21.672v-5.22l-14.212.016v-5.945h11.28v-4.034h-11.28v-11.149h-7.46v26.332zm35.0928-8.1186c5.105.428 7.652-1.449 7.641-5.632h-5.928c.044 1.888-1.126 2.794-3.508 2.717-1.295-.285-1.949-.927-1.96-1.927v-13.421h-8.019v18.164h7.229-1.565 2.388l-.016-2.206c.834 1.185 2.08 1.954 3.738 2.305m20.4036-1.5151c-2.064-.088-3.134-1.685-3.211-4.792V32.06c.164-3.052 1.257-4.65 3.277-4.793 1.976.209 2.948 1.093 2.915 2.652v8.678c.153 1.965-.84 3.041-2.981 3.228m2.882 1.746l7.723-.017v-18.51h-7.74l-.016.626c-.604-.472-2.443-.653-5.517-.543-3.14.066-5.445 1.065-6.916 2.997-1.471 1.943-2.114 4.051-1.927 6.323.033 2.086.62 3.98 1.762 5.682 1.142 1.701 3.327 2.959 6.554 3.771 3.063.209 5.089-.104 6.077-.939v.61zm21.1115.4278c3.93.626 6.4-.593 7.41-3.656.527 1.383 2.268 2.684 5.221 3.903 5.16.758 7.937-1.153 8.332-5.731v-13.355l-6.471.033.049 11c.066 2.514-.972 3.717-3.112 3.607-1.856.274-3.195-.61-4.019-2.652v-12.07h-6.652 1.333-1.333v12.63c0 1.669-.978 2.591-2.932 2.767-1.372.121-2.404-.538-3.096-1.976v-13.421h-6.768v18.163h6.11-1.334 2.025l-.016-2.206c1.482 1.712 3.233 2.701 5.253 2.964m32.8532-2.1738c-1.91-.099-2.893-1.575-2.948-4.43h5.715c-.022 2.723-.945 4.199-2.767 4.43m-.099 2.009c6.488-.198 9.886-3.299 10.194-9.304h-13.043c-.099-3.985.385-6.242 1.449-6.768 1.065-.516 2.119-.451 3.162.197 1.065.648 1.488 2.124 1.268 4.43h6.999-1.433 1.433c-.977-3.941-3.03-6.247-6.159-6.916-3.129-.67-6.065-.473-8.81.592-2.734 1.076-4.512 3.535-5.336 7.378l-.016 1.284c.812 5.797 4.243 8.833 10.292 9.107m11.5112.3624h7.509l3.261-12.005 4.1 12.005h6.999l4.265-12.005 3.261 12.005h7.443l-7.443-19.07h-6.9l-4.1 11.478-3.953-11.478h-6.933l-7.509 19.07zm49.1069-2.6349c-2.185-.066-3.305-1.493-3.359-4.282v-5.5c.153-2.723 1.295-4.155 3.425-4.298 2.108.198 3.14 1.663 3.096 4.397v5.335c-.055 2.877-1.109 4.326-3.162 4.348m-10.819-6.422c.285 3.282 1.41 5.577 3.376 6.883 1.965 1.307 4.325 1.916 7.081 1.828h1.218c3.008-.154 5.358-.952 7.049-2.396 1.69-1.444 2.651-3.532 2.881-6.266.077-3.392-.867-5.852-2.832-7.378-1.954-1.504-4.337-2.398-7.147-2.684h-1.268c-3.612.275-6.219 1.219-7.822 2.833-1.592 1.591-2.438 3.985-2.536 7.18m34.8949 8.2006c5.105.428 7.652-1.449 7.641-5.632h-5.928c.044 1.888-1.126 2.794-3.508 2.717-1.295-.285-1.949-.927-1.96-1.927v-13.421h-8.019v18.164h7.229-1.565 2.388l-.016-2.206c.834 1.185 2.08 1.954 3.738 2.305m16.9454-18.2628h-8.02v18.164l.033 8.152h8.003l-.016-11.116 6.867 8.629h4.15l-5.303-7.048 10.079-16.83h-8.712l-6.406 10.259-.576-.692-.099-9.518z"/>
    <path fill="#f4f4f4" d="M263.1833 168.0474c-1.923-.838-3.451-2.564-4.437-4.832-.592-1.528-.74-4.19-.74-14.692v-12.819h-3.796c-5.128 0-7.543-1.183-9.516-4.634-1.922-3.254-1.922-5.719-.098-9.22 1.873-3.648 4.338-4.881 9.515-4.881h3.846l.148-21.299c.197-20.411.246-21.496 1.282-24.602 2.07-6.163 7.099-12.276 12.276-14.889 5.522-2.811 14.594-3.846 21.003-2.416 5.226 1.232 7.987 4.881 7.642 10.205-.246 3.747-1.725 6.015-5.078 7.642-2.416 1.184-3.994 1.184-9.269.05-3.057-.691-6.902.542-8.431 2.563-.986 1.381-1.035 2.022-1.183 22.088l-.148 20.658h6.804c9.269.049 11.192.888 13.509 6.114.739 1.676.986 3.007.789 4.289-.345 2.761-2.663 5.916-5.276 7.248-1.923.986-2.909 1.084-8.973 1.084h-6.754l-.148 13.706-.148 13.756-1.43 1.824c-2.514 3.304-7.691 4.684-11.389 3.057m-125.2296-1.7256c-2.367-1.085-3.402-2.169-4.437-4.634-.641-1.578-.74-7.889-.74-51.473 0-46.345.049-49.796.888-51.373 3.056-6.114 11.98-6.656 15.727-.987l1.381 2.12v49.796c0 27.413-.148 50.437-.345 51.177-.937 3.205-5.177 6.311-8.628 6.311-1.036 0-2.761-.444-3.846-.937m198.691-30.8143c-11.586-2.712-19.918-9.22-23.764-18.637-2.81-6.951-3.106-9.909-3.106-33.871 0-21.397 0-21.989 1.035-24.109 2.17-4.437 7.79-6.311 12.277-4.043 2.317 1.184 3.747 3.106 4.388 5.966.295 1.282.542 10.847.542 23.419 0 20.066.049 21.348 1.035 24.208 1.233 3.697 3.698 6.656 6.459 7.79 2.81 1.134 8.825 1.479 12.375.739 3.353-.69 5.818-2.564 7.346-5.62 2.071-4.191 4.881-6.213 8.53-6.213 2.958 0 5.078.937 7.001 3.106 3.5 3.994 3.303 7.938-.641 13.756-6.065 8.973-14.397 13.558-25.293 14.002-3.402.099-6.261-.049-8.184-.493m-164.1789-.641c-2.268-1.183-3.254-2.219-4.24-4.339-.838-1.824-.937-3.697-.937-24.306 0-18.538.148-22.975.789-26.131 1.43-6.951 3.895-11.586 9.022-17.058 3.6-3.797 7.692-6.41 12.573-8.037 3.5-1.134 4.782-1.282 10.649-1.331 5.917 0 7.1.148 10.6 1.331 10.995 3.649 18.341 11.586 21.546 23.271 1.035 3.747 1.084 5.078 1.282 26.377.197 23.912.098 24.898-2.219 27.61-4.585 5.473-12.868 4.092-15.678-2.564-.641-1.578-.74-5.078-.74-23.764 0-20.658-.049-22.088-1.035-25.144-2.022-6.656-6.804-9.565-14.988-9.072-6.163.394-9.319 2.514-11.784 7.79-.986 2.12-1.035 3.204-1.282 26.18l-.246 23.961-1.331 1.972c-2.416 3.648-8.283 5.226-11.981 3.254m256.5234-18.883c2.81-1.183 5.423-3.796 7.001-6.853 3.747-7.346 3.254-23.863-.887-30.617-2.663-4.339-7.692-6.903-13.411-6.903-8.283 0-13.657 4.536-15.58 13.214-1.084 4.831-.788 17.403.493 21.052 1.923 5.473 4.832 8.579 9.96 10.649 3.204 1.282 8.776 1.036 12.424-.542m-14.347 18.932c-11.143-2.465-20.51-10.649-24.356-21.249-2.268-6.311-2.81-9.713-2.81-18.883-.049-12.622 1.775-19.968 6.804-27.561 4.19-6.261 10.255-10.55 18.045-12.671 4.437-1.232 14.347-1.232 18.735-.049 9.318 2.564 16.763 8.628 20.904 17.108 2.761 5.769 4.142 11.537 4.536 19.524 1.233 22.088-8.529 38.851-25.194 43.288-4.338 1.184-12.572 1.43-16.664.493"/>
  </g>
  <path d="M724.2391666 267.42214h8.47945622v-8.63145037h-8.4794562V267.42214z"/>
  <path fill="#efd9b4" d="M724.2391666 258.79068963h8.47945622v-8.62071165h-8.4794562v8.62071165z"/>
  <path fill="#74282b" d="M724.2391666 241.53935367h8.47945622v-8.62071165h-8.4794562v8.62071165zm0-8.6215377h8.47945622v-8.63145037h-8.4794562v8.63145037zm0-60.38711037h8.47945622v-8.63145036h-8.4794562v8.63145037z"/>
  <path d="M724.2391666 34.5034968h8.47945622v-8.61988558h-8.4794562v8.6198856zm0-8.61988558h8.47945622v-8.63145037h-8.4794562v8.63145037z"/>
  <path d="M724.2391666 17.25216085h8.47945622V8.6314492h-8.4794562v8.62071165zM715.76053644 267.42214h8.47863017v-8.63145037h-8.4786301V267.42214z"/>
  <path fill="#efd9b4" d="M724.23999266 258.79068963h-8.47945622v-8.62071165h8.47945622v8.62071165z"/>
  <path fill="#ababab" d="M724.23999266 250.16997798h-8.47945622v-8.63145036h8.47945622v8.63145036z"/>
  <path fill="#74282b" d="M724.23999266 241.53852762h-8.47945622v-8.62071165h8.47945622v8.62071165zm0-8.62071165h-8.47945622v-8.63145037h8.47945622v8.63145037z"/>
  <path fill="#74282b" d="M724.23999266 224.2863656h-8.47945622v-8.62071165h8.47945622v8.62071165z"/>
  <path fill="#74282b" d="M724.23999266 215.66648h-8.47945622v-8.63145036h8.47945622V215.66648zm0-8.63145036h-8.47945622V198.414318h8.47945622v8.62071164zm0-25.87287367h-8.47945622v-8.63145036h8.47945622v8.6314504zm0-8.63145037h-8.47945622v-8.63145036h8.47945622v8.63145037zm0-8.63145036h-8.47945622v-8.62071165h8.47945622v8.6207116z"/>
  <path d="M724.23999266 86.25998286h-8.47945622V77.6392712h8.47945622v8.62071166z"/>
  <path d="M724.23999266 77.6392712h-8.47945622v-8.63145036h8.47945622v8.63145037zm0-8.63145036h-8.47945622V60.3871092h8.47945622v8.62071164zm0-8.62071164h-8.47945622v-8.63145037h8.47945622v8.63145036zm0-8.63145037h-8.47945622v-8.62071165h8.47945622v8.62071165z"/>
  <path d="M724.23999266 43.13577323h-8.47945622v-8.63145036h8.47945622v8.63145036z"/>
  <path d="M724.23999266 34.50432287h-8.47945622v-8.62071165h8.47945622v8.62071165z"/>
  <path fill="#fff" d="M724.23999266 25.88361122h-8.47945622v-8.63145037h8.47945622v8.63145037z"/>
  <path d="M724.23999266 17.25216085h-8.47945622V8.6314492h8.47945622v8.62071165zm-8.47945622-8.62071165h8.47863017V-.00000117h-8.4786301V8.6314492zm-8.4794562 258.7906908h8.47863015v-8.63145037h-8.4786302V267.42214z"/>
  <path fill="#a28d68" d="M715.76053644 258.79068963h-8.4794562v-8.62071165h8.4794562v8.62071165z"/>
  <path fill="#ababab" d="M715.76053644 250.16997798h-8.4794562v-8.63145036h8.4794562v8.63145036z"/>
  <path fill="#74282b" d="M715.76053644 241.53852762h-8.4794562v-8.62071165h8.4794562v8.62071165zm0-8.62071165h-8.4794562v-8.63145037h8.4794562v8.63145037z"/>
  <path fill="#74282b" d="M715.76053644 224.2863656h-8.4794562v-8.62071165h8.4794562v8.62071165z"/>
  <path fill="#74282b" d="M715.76053644 215.66648h-8.4794562v-8.63145036h8.4794562V215.66648zm0-8.63145036h-8.4794562V198.414318h8.4794562v8.62071164zm0-8.62071164h-8.4794562v-8.63145038h8.4794562v8.63145037z"/>
  <path fill="#ababab" d="M715.76053644 189.78286762h-8.4794562v-8.62071165h8.4794562v8.62071165z"/>
  <path fill="#ababab" d="M715.76053644 181.16215597h-8.4794562v-8.63145036h8.4794562v8.6314504z"/>
  <path fill="#74282b" d="M715.76053644 172.5307056h-8.4794562v-8.63145036h8.4794562v8.63145037z"/>
  <path fill="#fff" d="M715.76053644 163.89925524h-8.4794562v-8.62071165h8.4794562v8.6207116z"/>
  <path fill="#74282b" d="M715.76053644 155.2785436h-8.4794562v-8.63145038h8.4794562v8.63145037zm0-8.63145038h-8.4794562v-8.62071165h8.4794562v8.62071165z"/>
  <path fill="#e3978f" d="M715.76053644 94.89143323h-8.4794562v-8.63145037h8.4794562v8.63145037z"/>
  <path fill="#fff" d="M715.76053644 86.25998286h-8.4794562V77.6392712h8.4794562v8.62071166z"/>
  <path fill="#fff" d="M715.76053644 77.6392712h-8.4794562v-8.63145036h8.4794562v8.63145037zm0-8.63145036h-8.4794562V60.3871092h8.4794562v8.62071164z"/>
  <path fill="#efd9b4" d="M715.76053644 60.3871092h-8.4794562v-8.63145037h8.4794562v8.63145036z"/>
  <path fill="#421f24" d="M715.76053644 51.75565883h-8.4794562v-8.62071165h8.4794562v8.62071165z"/>
  <path fill="#421f24" d="M715.76053644 43.13577323h-8.4794562v-8.63145036h8.4794562v8.63145036z"/>
  <path fill="#421f24" d="M715.76053644 34.50432287h-8.4794562v-8.62071165h8.4794562v8.62071165zm0-8.62071165h-8.4794562v-8.63145037h8.4794562v8.63145037z"/>
  <path fill="#fff" d="M715.76053644 17.25216085h-8.4794562V8.6314492h8.4794562v8.62071165z"/>
  <path d="M707.28108023 8.6314492h8.47863016V-.00000117h-8.4786302V8.6314492zM698.80245006 267.42214h8.47945622v-8.63145037h-8.47945622V267.42214z"/>
  <path fill="#a28d68" d="M707.28108023 258.79068963H698.801624v-8.62071165h8.47945623v8.62071165z"/>
  <path fill="#ababab" d="M707.28108023 250.16997798H698.801624v-8.63145036h8.47945623v8.63145036z"/>
  <path fill="#74282b" d="M707.28108023 241.53852762H698.801624v-8.62071165h8.47945623v8.62071165zm0-8.62071165H698.801624v-8.63145037h8.47945623v8.63145037z"/>
  <path fill="#74282b" d="M707.28108023 224.2863656H698.801624v-8.62071165h8.47945623v8.62071165z"/>
  <path fill="#74282b" d="M707.28108023 215.66648H698.801624v-8.63145036h8.47945623V215.66648zm0-8.63145036H698.801624V198.414318h8.47945623v8.62071164zm0-8.62071164H698.801624v-8.63145038h8.47945623v8.63145037z"/>
  <path fill="#ababab" d="M707.28108023 189.78286762H698.801624v-8.62071165h8.47945623v8.62071165z"/>
  <path fill="#ababab" d="M707.28108023 181.16215597H698.801624v-8.63145036h8.47945623v8.6314504z"/>
  <path fill="#ae353a" d="M707.28108023 172.5307056H698.801624v-8.63145036h8.47945623v8.63145037zm0-8.63145036H698.801624v-8.62071165h8.47945623v8.6207116z"/>
  <path fill="#fff" d="M707.28108023 155.2785436H698.801624v-8.63145038h8.47945623v8.63145037z"/>
  <path fill="#74282b" d="M707.28108023 146.64709322H698.801624v-8.62071165h8.47945623v8.62071165z"/>
  <path fill="#74282b" d="M707.28108023 138.02638157H698.801624v-8.63145036h8.47945623v8.6314504z"/>
  <path fill="#74282b" d="M707.28108023 129.39575726H698.801624v-8.62071165h8.47945623v8.6207117z"/>
  <path fill="#efd9b4" d="M707.28108023 103.5228836H698.801624v-8.63145037h8.47945623v8.63145036z"/>
  <path fill="#e3978f" d="M707.28108023 94.89143323H698.801624v-8.63145037h8.47945623v8.63145037z"/>
  <path d="M707.28108023 86.25998286H698.801624V77.6392712h8.47945623v8.62071166z"/>
  <path d="M707.28108023 77.6392712H698.801624v-8.63145036h8.47945623v8.63145037zm0-8.63145036H698.801624V60.3871092h8.47945623v8.62071164z"/>
  <path fill="#efd9b4" d="M707.28108023 60.3871092H698.801624v-8.63145037h8.47945623v8.63145036zm0-8.63145037H698.801624v-8.62071165h8.47945623v8.62071165z"/>
  <path fill="#421f24" d="M707.28108023 43.13577323H698.801624v-8.63145036h8.47945623v8.63145036z"/>
  <path fill="#421f24" d="M707.28108023 34.50432287H698.801624v-8.62071165h8.47945623v8.62071165zm0-8.62071165H698.801624v-8.63145037h8.47945623v8.63145037z"/>
  <path d="M707.28108023 17.25216085H698.801624V8.6314492h8.47945623v8.62071165zm-8.47863017-8.62071165h8.47945622V-.00000117h-8.47945622V8.6314492z"/>
  <path fill="#ae353a" d="M698.801624 232.91781597h-8.4794562v-8.63145037h8.4794562v8.63145037z"/>
  <path fill="#ae353a" d="M698.801624 224.2863656h-8.4794562v-8.62071165h8.4794562v8.62071165z"/>
  <path fill="#74282b" d="M698.801624 215.66648h-8.4794562v-8.63145036h8.4794562V215.66648z"/>
  <path fill="#fff" d="M698.801624 207.03502964h-8.4794562V198.414318h8.4794562v8.62071164zm0-8.62071164h-8.4794562v-8.63145038h8.4794562v8.63145037z"/>
  <path fill="#74282b" d="M698.801624 189.78286762h-8.4794562v-8.62071165h8.4794562v8.62071165z"/>
  <path fill="#fff" d="M698.801624 181.16215597h-8.4794562v-8.63145036h8.4794562v8.6314504z"/>
  <path fill="#ae353a" d="M698.801624 172.5307056h-8.4794562v-8.63145036h8.4794562v8.63145037zm0-8.63145036h-8.4794562v-8.62071165h8.4794562v8.6207116z"/>
  <path fill="#ae353a" d="M698.801624 155.2785436h-8.4794562v-8.63145038h8.4794562v8.63145037z"/>
  <path fill="#fff" d="M698.801624 146.64709322h-8.4794562v-8.62071165h8.4794562v8.62071165z"/>
  <path fill="#74282b" d="M698.801624 138.02638157h-8.4794562v-8.63145036h8.4794562v8.6314504z"/>
  <path fill="#74282b" d="M698.801624 129.39575726h-8.4794562v-8.62071165h8.4794562v8.6207117zm0-8.62071166h-8.4794562v-8.63145036h8.4794562v8.63145037z"/>
  <path fill="#efd9b4" d="M698.801624 112.14359524h-8.4794562v-8.62071165h8.4794562v8.6207116z"/>
  <path fill="#efd9b4" d="M698.801624 103.5228836h-8.4794562v-8.63145037h8.4794562v8.63145036zm0-8.63145037h-8.4794562v-8.63145037h8.4794562v8.63145037zm0-8.63145037h-8.4794562V77.6392712h8.4794562v8.62071166z"/>
  <path fill="#efd9b4" d="M698.801624 77.6392712h-8.4794562v-8.63145036h8.4794562v8.63145037zm0-8.63145036h-8.4794562V60.3871092h8.4794562v8.62071164zm0-8.62071164h-8.4794562v-8.63145037h8.4794562v8.63145036z"/>
  <path fill="#421f24" d="M698.801624 51.75565883h-8.4794562v-8.62071165h8.4794562v8.62071165z"/>
  <path fill="#421f24" d="M698.801624 43.13577323h-8.4794562v-8.63145036h8.4794562v8.63145036z"/>
  <path fill="#421f24" d="M698.801624 34.50432287h-8.4794562v-8.62071165h8.4794562v8.62071165zm0-8.62071165h-8.4794562v-8.63145037h8.4794562v8.63145037zm0-8.63145037h-8.4794562V8.6314492h8.4794562v8.62071165z"/>
  <path fill="#74282b" d="M690.32299385 215.66648h-8.47945622v-8.63145036h8.47945622V215.66648zm0-8.63145036h-8.47945622V198.414318h8.47945622v8.62071164zm0-8.62071164h-8.47945622v-8.63145038h8.47945622v8.63145037z"/>
  <path fill="#fff" d="M690.32299385 189.78286762h-8.47945622v-8.62071165h8.47945622v8.62071165z"/>
  <path fill="#fff" d="M690.32299385 181.16215597h-8.47945622v-8.63145036h8.47945622v8.6314504z"/>
  <path fill="#ae353a" d="M690.32299385 172.5307056h-8.47945622v-8.63145036h8.47945622v8.63145037zm0-8.63145036h-8.47945622v-8.62071165h8.47945622v8.6207116z"/>
  <path fill="#ae353a" d="M690.32299385 155.2785436h-8.47945622v-8.63145038h8.47945622v8.63145037zm0-8.63145038h-8.47945622v-8.62071165h8.47945622v8.62071165z"/>
  <path fill="#fff" d="M690.32299385 138.02638157h-8.47945622v-8.63145036h8.47945622v8.6314504z"/>
  <path fill="#74282b" d="M690.32299385 129.39575726h-8.47945622v-8.62071165h8.47945622v8.6207117zm0-8.62071166h-8.47945622v-8.63145036h8.47945622v8.63145037z"/>
  <path fill="#efd9b4" d="M690.32299385 112.14359524h-8.47945622v-8.62071165h8.47945622v8.6207116z"/>
  <path fill="#efd9b4" d="M690.32299385 103.5228836h-8.47945622v-8.63145037h8.47945622v8.63145036zm0-8.63145037h-8.47945622v-8.63145037h8.47945622v8.63145037zm0-8.63145037h-8.47945622V77.6392712h8.47945622v8.62071166z"/>
  <path fill="#efd9b4" d="M690.32299385 77.6392712h-8.47945622v-8.63145036h8.47945622v8.63145037zm0-8.63145036h-8.47945622V60.3871092h8.47945622v8.62071164zm0-8.62071164h-8.47945622v-8.63145037h8.47945622v8.63145036zm0-8.63145037h-8.47945622v-8.62071165h8.47945622v8.62071165z"/>
  <path fill="#efd9b4" d="M690.32299385 43.13577323h-8.47945622v-8.63145036h8.47945622v8.63145036z"/>
  <path fill="#421f24" d="M690.32299385 34.50432287h-8.47945622v-8.62071165h8.47945622v8.62071165zm0-8.62071165h-8.47945622v-8.63145037h8.47945622v8.63145037zm0-8.63145037h-8.47945622V8.6314492h8.47945622v8.62071165zm-8.47945622-8.62071165h8.47945622V-.00000117h-8.47945622V8.6314492z"/>
  <path fill="#74282b" d="M681.84353763 189.78286762h-8.47945622v-8.62071165h8.4794563v8.62071165z"/>
  <path fill="#fff" d="M681.84353763 181.16215597h-8.47945622v-8.63145036h8.4794563v8.6314504z"/>
  <path fill="#ae353a" d="M681.84353763 172.5307056h-8.47945622v-8.63145036h8.4794563v8.63145037zm0-8.63145036h-8.47945622v-8.62071165h8.4794563v8.6207116z"/>
  <path fill="#ae353a" d="M681.84353763 155.2785436h-8.47945622v-8.63145038h8.4794563v8.63145037zm0-8.63145038h-8.47945622v-8.62071165h8.4794563v8.62071165z"/>
  <path fill="#ae353a" d="M681.84353763 138.02638157h-8.47945622v-8.63145036h8.4794563v8.6314504z"/>
  <path fill="#fff" d="M681.84353763 129.39575726h-8.47945622v-8.62071165h8.4794563v8.6207117z"/>
  <path fill="#74282b" d="M681.84353763 120.7750456h-8.47945622v-8.63145036h8.4794563v8.63145037z"/>
  <path fill="#efd9b4" d="M681.84353763 112.14359524h-8.47945622v-8.62071165h8.4794563v8.6207116z"/>
  <path fill="#efd9b4" d="M681.84353763 103.5228836h-8.47945622v-8.63145037h8.4794563v8.63145036zm0-8.63145037h-8.47945622v-8.63145037h8.4794563v8.63145037zm0-8.63145037h-8.47945622V77.6392712h8.4794563v8.62071166z"/>
  <path fill="#efd9b4" d="M681.84353763 77.6392712h-8.47945622v-8.63145036h8.4794563v8.63145037zm0-8.63145036h-8.47945622V60.3871092h8.4794563v8.62071164zm0-8.62071164h-8.47945622v-8.63145037h8.4794563v8.63145036z"/>
  <path fill="#421f24" d="M681.84353763 51.75565883h-8.47945622v-8.62071165h8.4794563v8.62071165z"/>
  <path fill="#421f24" d="M681.84353763 43.13577323h-8.47945622v-8.63145036h8.4794563v8.63145036z"/>
  <path fill="#421f24" d="M681.84353763 34.50432287h-8.47945622v-8.62071165h8.4794563v8.62071165zm0-8.62071165h-8.47945622v-8.63145037h8.4794563v8.63145037zm0-8.63145037h-8.47945622V8.6314492h8.4794563v8.62071165zM673.3640814 8.6314492h8.47945623V-.00000117h-8.47945622V8.6314492z"/>
  <path fill="#74282b" d="M673.3640814 232.91781597h-8.4794562v-8.63145037h8.4794562v8.63145037z"/>
  <path fill="#74282b" d="M673.3640814 224.2863656h-8.4794562v-8.62071165h8.4794562v8.62071165z"/>
  <path fill="#74282b" d="M673.3640814 215.66648h-8.4794562v-8.63145036h8.4794562V215.66648zm0-8.63145036h-8.4794562V198.414318h8.4794562v8.62071164zm0-8.62071164h-8.4794562v-8.63145038h8.4794562v8.63145037z"/>
  <path fill="#ababab" d="M673.3640814 189.78286762h-8.4794562v-8.62071165h8.4794562v8.62071165z"/>
  <path fill="#ababab" d="M673.3640814 181.16215597h-8.4794562v-8.63145036h8.4794562v8.6314504z"/>
  <path fill="#ae353a" d="M673.3640814 172.5307056h-8.4794562v-8.63145036h8.4794562v8.63145037zm0-8.63145036h-8.4794562v-8.62071165h8.4794562v8.6207116z"/>
  <path fill="#ae353a" d="M673.3640814 155.2785436h-8.4794562v-8.63145038h8.4794562v8.63145037zm0-8.63145038h-8.4794562v-8.62071165h8.4794562v8.62071165z"/>
  <path fill="#ae353a" d="M673.3640814 138.02638157h-8.4794562v-8.63145036h8.4794562v8.6314504z"/>
  <path fill="#ae353a" d="M673.3640814 129.39575726h-8.4794562v-8.62071165h8.4794562v8.6207117z"/>
  <path fill="#fff" d="M673.3640814 120.7750456h-8.4794562v-8.63145036h8.4794562v8.63145037z"/>
  <path fill="#efd9b4" d="M673.3640814 112.14359524h-8.4794562v-8.62071165h8.4794562v8.6207116z"/>
  <path fill="#efd9b4" d="M673.3640814 103.5228836h-8.4794562v-8.63145037h8.4794562v8.63145036z"/>
  <path fill="#e3978f" d="M673.3640814 94.89143323h-8.4794562v-8.63145037h8.4794562v8.63145037z"/>
  <path fill="#fff" d="M673.3640814 86.25998286h-8.4794562V77.6392712h8.4794562v8.62071166z"/>
  <path fill="#fff" d="M673.3640814 77.6392712h-8.4794562v-8.63145036h8.4794562v8.63145037zm0-8.63145036h-8.4794562V60.3871092h8.4794562v8.62071164z"/>
  <path fill="#efd9b4" d="M673.3640814 60.3871092h-8.4794562v-8.63145037h8.4794562v8.63145036zm0-8.63145037h-8.4794562v-8.62071165h8.4794562v8.62071165z"/>
  <path fill="#421f24" d="M673.3640814 43.13577323h-8.4794562v-8.63145036h8.4794562v8.63145036z"/>
  <path fill="#421f24" d="M673.3640814 34.50432287h-8.4794562v-8.62071165h8.4794562v8.62071165zm0-8.62071165h-8.4794562v-8.63145037h8.4794562v8.63145037zm0-8.63145037h-8.4794562V8.6314492h8.4794562v8.62071165zm-8.47863015-8.62071165h8.47863016V-.00000117h-8.4786301V8.6314492z"/>
  <path d="M656.40516898 267.42214h8.4794562v-8.63145037h-8.4794562V267.42214z"/>
  <path fill="#efd9b4" d="M664.8846252 258.79068963h-8.47945622v-8.62071165h8.4794562v8.62071165z"/>
  <path fill="#ababab" d="M664.8846252 250.16997798h-8.47945622v-8.63145036h8.4794562v8.63145036z"/>
  <path fill="#74282b" d="M664.8846252 241.53852762h-8.47945622v-8.62071165h8.4794562v8.62071165zm0-8.62071165h-8.47945622v-8.63145037h8.4794562v8.63145037z"/>
  <path fill="#74282b" d="M664.8846252 224.2863656h-8.47945622v-8.62071165h8.4794562v8.62071165z"/>
  <path fill="#74282b" d="M664.8846252 215.66648h-8.47945622v-8.63145036h8.4794562V215.66648zm0-8.63145036h-8.47945622V198.414318h8.4794562v8.62071164zm0-8.62071164h-8.47945622v-8.63145038h8.4794562v8.63145037z"/>
  <path fill="#ababab" d="M664.8846252 189.78286762h-8.47945622v-8.62071165h8.4794562v8.62071165z"/>
  <path fill="#ababab" d="M664.8846252 181.16215597h-8.47945622v-8.63145036h8.4794562v8.6314504z"/>
  <path fill="#74282b" d="M664.8846252 172.5307056h-8.47945622v-8.63145036h8.4794562v8.63145037zm0-8.63145036h-8.47945622v-8.62071165h8.4794562v8.6207116z"/>
  <path fill="#ae353a" d="M664.8846252 155.2785436h-8.47945622v-8.63145038h8.4794562v8.63145037zm0-8.63145038h-8.47945622v-8.62071165h8.4794562v8.62071165z"/>
  <path fill="#ae353a" d="M664.8846252 138.02638157h-8.47945622v-8.63145036h8.4794562v8.6314504z"/>
  <path fill="#ae353a" d="M664.8846252 129.39575726h-8.47945622v-8.62071165h8.4794562v8.6207117zm0-8.62071166h-8.47945622v-8.63145036h8.4794562v8.63145037z"/>
  <path fill="#efd9b4" d="M664.8846252 112.14359524h-8.47945622v-8.62071165h8.4794562v8.6207116z"/>
  <path fill="#efd9b4" d="M664.8846252 103.5228836h-8.47945622v-8.63145037h8.4794562v8.63145036z"/>
  <path fill="#e3978f" d="M664.8846252 94.89143323h-8.47945622v-8.63145037h8.4794562v8.63145037z"/>
  <path d="M664.8846252 86.25998286h-8.47945622V77.6392712h8.4794562v8.62071166z"/>
  <path d="M664.8846252 77.6392712h-8.47945622v-8.63145036h8.4794562v8.63145037zm0-8.63145036h-8.47945622V60.3871092h8.4794562v8.62071164z"/>
  <path fill="#efd9b4" d="M664.8846252 60.3871092h-8.47945622v-8.63145037h8.4794562v8.63145036z"/>
  <path fill="#421f24" d="M664.8846252 51.75565883h-8.47945622v-8.62071165h8.4794562v8.62071165z"/>
  <path fill="#421f24" d="M664.8846252 43.13577323h-8.47945622v-8.63145036h8.4794562v8.63145036z"/>
  <path fill="#421f24" d="M664.8846252 34.50432287h-8.47945622v-8.62071165h8.4794562v8.62071165zm0-8.62071165h-8.47945622v-8.63145037h8.4794562v8.63145037zm0-8.63145037h-8.47945622V8.6314492h8.4794562v8.62071165zm-8.47945622-8.62071165h8.4794562V-.00000117h-8.4794562V8.6314492z"/>
  <path d="M647.9265388 267.42214h8.47863018v-8.63145037h-8.47863017V267.42214z"/>
  <path fill="#efd9b4" d="M656.40599503 258.79068963h-8.47945622v-8.62071165h8.4794563v8.62071165z"/>
  <path fill="#ababab" d="M656.40599503 250.16997798h-8.47945622v-8.63145036h8.4794563v8.63145036z"/>
  <path fill="#74282b" d="M656.40599503 241.53852762h-8.47945622v-8.62071165h8.4794563v8.62071165z"/>
  <path fill="#ae353a" d="M656.40599503 232.91781597h-8.47945622v-8.63145037h8.4794563v8.63145037z"/>
  <path fill="#ae353a" d="M656.40599503 224.2863656h-8.47945622v-8.62071165h8.4794563v8.62071165z"/>
  <path fill="#ae353a" d="M656.40599503 215.66648h-8.47945622v-8.63145036h8.4794563V215.66648zm0-8.63145036h-8.47945622V198.414318h8.4794563v8.62071164z"/>
  <path fill="#74282b" d="M656.40599503 198.414318h-8.47945622v-8.63145038h8.4794563v8.63145037z"/>
  <path fill="#ababab" d="M656.40599503 189.78286762h-8.47945622v-8.62071165h8.4794563v8.62071165z"/>
  <path fill="#ababab" d="M656.40599503 181.16215597h-8.47945622v-8.63145036h8.4794563v8.6314504z"/>
  <path fill="#74282b" d="M656.40599503 172.5307056h-8.47945622v-8.63145036h8.4794563v8.63145037zm0-8.63145036h-8.47945622v-8.62071165h8.4794563v8.6207116z"/>
  <path fill="#74282b" d="M656.40599503 155.2785436h-8.47945622v-8.63145038h8.4794563v8.63145037z"/>
  <path fill="#ae353a" d="M656.40599503 146.64709322h-8.47945622v-8.62071165h8.4794563v8.62071165z"/>
  <path fill="#ae353a" d="M656.40599503 138.02638157h-8.47945622v-8.63145036h8.4794563v8.6314504z"/>
  <path fill="#ae353a" d="M656.40599503 129.39575726h-8.47945622v-8.62071165h8.4794563v8.6207117zm0-8.62071166h-8.47945622v-8.63145036h8.4794563v8.63145037z"/>
  <path fill="#efd9b4" d="M656.40599503 103.5228836h-8.47945622v-8.63145037h8.4794563v8.63145036zm0-8.63145037h-8.47945622v-8.63145037h8.4794563v8.63145037zm0-8.63145037h-8.47945622V77.6392712h8.4794563v8.62071166z"/>
  <path fill="#efd9b4" d="M656.40599503 77.6392712h-8.47945622v-8.63145036h8.4794563v8.63145037zm0-8.63145036h-8.47945622V60.3871092h8.4794563v8.62071164zm0-8.62071164h-8.47945622v-8.63145037h8.4794563v8.63145036z"/>
  <path fill="#421f24" d="M656.40599503 51.75565883h-8.47945622v-8.62071165h8.4794563v8.62071165z"/>
  <path fill="#421f24" d="M656.40599503 43.13577323h-8.47945622v-8.63145036h8.4794563v8.63145036z"/>
  <path fill="#421f24" d="M656.40599503 34.50432287h-8.47945622v-8.62071165h8.4794563v8.62071165zm0-8.62071165h-8.47945622v-8.63145037h8.4794563v8.63145037zm0-8.63145037h-8.47945622V8.6314492h8.4794563v8.62071165z"/>
  <path d="M639.4470826 267.42214h8.47863016v-8.63145037h-8.47863016V267.42214z"/>
  <path fill="#efd9b4" d="M647.9265388 258.79068963h-8.4794562v-8.62071165h8.4794562v8.62071165z"/>
  <path fill="#ababab" d="M647.9265388 250.16997798h-8.4794562v-8.63145036h8.4794562v8.63145036z"/>
  <path fill="#ae353a" d="M647.9265388 241.53852762h-8.4794562v-8.62071165h8.4794562v8.62071165zm0-8.62071165h-8.4794562v-8.63145037h8.4794562v8.63145037z"/>
  <path fill="#ae353a" d="M647.9265388 224.2863656h-8.4794562v-8.62071165h8.4794562v8.62071165z"/>
  <path fill="#ae353a" d="M647.9265388 215.66648h-8.4794562v-8.63145036h8.4794562V215.66648zm0-8.63145036h-8.4794562V198.414318h8.4794562v8.62071164zm0-8.62071164h-8.4794562v-8.63145038h8.4794562v8.63145037zm0-8.63145038h-8.4794562v-8.62071165h8.4794562v8.62071165z"/>
  <path fill="#efd9b4" d="M647.9265388 181.16215597h-8.4794562v-8.63145036h8.4794562v8.6314504z"/>
  <path fill="#ae353a" d="M647.9265388 172.5307056h-8.4794562v-8.63145036h8.4794562v8.63145037z"/>
  <path fill="#74282b" d="M647.9265388 163.89925524h-8.4794562v-8.62071165h8.4794562v8.6207116z"/>
  <path fill="#ae353a" d="M647.9265388 155.2785436h-8.4794562v-8.63145038h8.4794562v8.63145037zm0-8.63145038h-8.4794562v-8.62071165h8.4794562v8.62071165z"/>
  <path fill="#ae353a" d="M647.9265388 138.02638157h-8.4794562v-8.63145036h8.4794562v8.6314504z"/>
  <path fill="#421f24" d="M647.9265388 94.89143323h-8.4794562v-8.63145037h8.4794562v8.63145037zm0-8.63145037h-8.4794562V77.6392712h8.4794562v8.62071166z"/>
  <path fill="#421f24" d="M647.9265388 77.6392712h-8.4794562v-8.63145036h8.4794562v8.63145037zm0-8.63145036h-8.4794562V60.3871092h8.4794562v8.62071164zm0-8.62071164h-8.4794562v-8.63145037h8.4794562v8.63145036zm0-8.63145037h-8.4794562v-8.62071165h8.4794562v8.62071165z"/>
  <path fill="#421f24" d="M647.9265388 43.13577323h-8.4794562v-8.63145036h8.4794562v8.63145036z"/>
  <path fill="#421f24" d="M647.9265388 34.50432287h-8.4794562v-8.62071165h8.4794562v8.62071165zm0-8.62071165h-8.4794562v-8.63145037h8.4794562v8.63145037z"/>
  <path d="M630.96845243 267.42214h8.47863017v-8.63145037h-8.47863017V267.42214z"/>
  <path fill="#a28d68" d="M639.4470826 258.79068963h-8.47945622v-8.62071165h8.47945622v8.62071165z"/>
  <path fill="#ae353a" d="M639.4470826 241.53852762h-8.47945622v-8.62071165h8.47945622v8.62071165zm0-8.62071165h-8.47945622v-8.63145037h8.47945622v8.63145037z"/>
  <path fill="#ae353a" d="M639.4470826 224.2863656h-8.47945622v-8.62071165h8.47945622v8.62071165z"/>
  <path fill="#ae353a" d="M639.4470826 215.66648h-8.47945622v-8.63145036h8.47945622V215.66648z"/>
  <path fill="#efd9b4" d="M639.4470826 189.78286762h-8.47945622v-8.62071165h8.47945622v8.62071165z"/>
  <path fill="#efd9b4" d="M639.4470826 181.16215597h-8.47945622v-8.63145036h8.47945622v8.6314504z"/>
  <path fill="#ae353a" d="M639.4470826 172.5307056h-8.47945622v-8.63145036h8.47945622v8.63145037zm0-8.63145036h-8.47945622v-8.62071165h8.47945622v8.6207116z"/>
  <path fill="#ae353a" d="M639.4470826 155.2785436h-8.47945622v-8.63145038h8.47945622v8.63145037z"/>
  <path fill="#421f24" d="M639.4470826 94.89143323h-8.47945622v-8.63145037h8.47945622v8.63145037zm0-8.63145037h-8.47945622V77.6392712h8.47945622v8.62071166z"/>
  <path fill="#efd9b4" d="M639.4470826 77.6392712h-8.47945622v-8.63145036h8.47945622v8.63145037zm0-8.63145036h-8.47945622V60.3871092h8.47945622v8.62071164z"/>
  <path fill="#421f24" d="M639.4470826 60.3871092h-8.47945622v-8.63145037h8.47945622v8.63145036zm0-8.63145037h-8.47945622v-8.62071165h8.47945622v8.62071165z"/>
  <path fill="#421f24" d="M639.4470826 43.13577323h-8.47945622v-8.63145036h8.47945622v8.63145036z"/>
  <path fill="#fff" d="M639.4470826 34.50432287h-8.47945622v-8.62071165h8.47945622v8.62071165zm0-8.62071165h-8.47945622v-8.63145037h8.47945622v8.63145037z"/>
  <path fill="#ae353a" d="M630.96762638 172.5307056h-8.47945622v-8.63145036h8.47945622v8.63145037zm0-8.63145036h-8.47945622v-8.62071165h8.47945622v8.6207116z"/>
  <path fill="#421f24" d="M630.96762638 77.6392712h-8.47945622v-8.63145036h8.47945622v8.63145037zm0-8.63145036h-8.47945622V60.3871092h8.47945622v8.62071164zm0-8.62071164h-8.47945622v-8.63145037h8.47945622v8.63145036zm0-8.63145037h-8.47945622v-8.62071165h8.47945622v8.62071165zm0-17.25133596h-8.47945622v-8.62071165h8.47945622v8.62071165zm0-8.62071165h-8.47945622v-8.63145037h8.47945622v8.63145037zm0-8.63145037h-8.47945622V8.6314492h8.47945622v8.62071165zM614.00954 77.6392712h8.47863016v-8.63145036H614.00954v8.63145037zm0-8.63145036h8.47863016V60.3871092H614.00954v8.62071164z"/>
  <path fill="#421f24" d="M614.00954 60.38793525h8.47863016v-8.63145037H614.00954v8.63145037zm0-8.63145037h8.47863016v-8.62071165H614.00954v8.62071165zm0-17.25298808h8.47863016v-8.61988558H614.00954v8.6198856zm0-8.61988558h8.47863016v-8.63145037H614.00954v8.63145037z"/>
</svg>
