<svg xmlns="http://www.w3.org/2000/svg" width="179.63251" height="404.66751">
  <path d="M166.80125 404.6675h12.83125v-13.06125h-12.83125v13.06125z"/>
  <path fill="#efd9b4" d="M166.80125 391.60625h12.83125v-13.045h-12.83125v13.045z"/>
  <path fill="#74282b" d="M166.80125 365.50125h12.83125v-13.045h-12.83125v13.045zm0-13.04625h12.83125v-13.06125h-12.83125V352.455zm0-91.37875h12.83125V248.015h-12.83125v13.06125z"/>
  <path d="M166.80125 52.21125h12.83125V39.1675h-12.83125v13.04375zm0-13.04375h12.83125V26.10625h-12.83125V39.1675zm0-13.06125h12.83125v-13.045h-12.83125v13.045zm-12.83 378.56125h12.83v-13.06125h-12.83v13.06125z"/>
  <path fill="#efd9b4" d="M166.8025 391.60625h-12.83125v-13.045h12.83125v13.045z"/>
  <path fill="#ababab" d="M166.8025 378.56125h-12.83125V365.5h12.83125v13.06125z"/>
  <path fill="#74282b" d="M166.8025 365.5h-12.83125v-13.045h12.83125V365.5zm0-13.045h-12.83125v-13.06125h12.83125V352.455zm0-13.06125h-12.83125v-13.045h12.83125v13.045z"/>
  <path fill="#74282b" d="M166.8025 326.35h-12.83125v-13.06125h12.83125V326.35zm0-13.06125h-12.83125v-13.045h12.83125v13.045zm0-39.15125h-12.83125v-13.06125h12.83125v13.06125zm0-13.06125h-12.83125V248.015h12.83125v13.06125zm0-13.06125h-12.83125V234.97h12.83125v13.045z"/>
  <path d="M166.8025 130.53h-12.83125v-13.045h12.83125v13.045zm0-13.045h-12.83125v-13.06125h12.83125V117.485zm0-13.06125h-12.83125v-13.045h12.83125v13.045zm0-13.045h-12.83125V78.3175h12.83125v13.06125zm0-13.06125h-12.83125v-13.045h12.83125v13.045z"/>
  <path d="M166.8025 65.27375h-12.83125V52.2125h12.83125v13.06125zm0-13.06125h-12.83125v-13.045h12.83125v13.045z"/>
  <path fill="#fff" d="M166.8025 39.1675h-12.83125V26.10625h12.83125V39.1675z"/>
  <path d="M166.8025 26.10625h-12.83125v-13.045h12.83125v13.045zm-12.83125-13.045h12.83V0h-12.83v13.06125zM141.14 404.6675h12.83v-13.06125h-12.83v13.06125z"/>
  <path fill="#a28d68" d="M153.97125 391.60625H141.14v-13.045h12.83125v13.045z"/>
  <path fill="#ababab" d="M153.97125 378.56125H141.14V365.5h12.83125v13.06125z"/>
  <path fill="#74282b" d="M153.97125 365.5H141.14v-13.045h12.83125V365.5zm0-13.045H141.14v-13.06125h12.83125V352.455zm0-13.06125H141.14v-13.045h12.83125v13.045z"/>
  <path fill="#74282b" d="M153.97125 326.35H141.14v-13.06125h12.83125V326.35zm0-13.06125H141.14v-13.045h12.83125v13.045zm0-13.045H141.14V287.1825h12.83125v13.06125z"/>
  <path fill="#ababab" d="M153.97125 287.1825H141.14v-13.045h12.83125v13.045zm0-13.045H141.14v-13.06125h12.83125v13.06125z"/>
  <path fill="#74282b" d="M153.97125 261.07625H141.14V248.015h12.83125v13.06125z"/>
  <path fill="#fff" d="M153.97125 248.015H141.14V234.97h12.83125v13.045z"/>
  <path fill="#74282b" d="M153.97125 234.97H141.14v-13.06125h12.83125V234.97zm0-13.06125H141.14v-13.045h12.83125v13.045z"/>
  <path fill="#e3978f" d="M153.97125 143.59125H141.14V130.53h12.83125v13.06125z"/>
  <path fill="#fff" d="M153.97125 130.53H141.14v-13.045h12.83125v13.045zm0-13.045H141.14v-13.06125h12.83125V117.485zm0-13.06125H141.14v-13.045h12.83125v13.045z"/>
  <path fill="#efd9b4" d="M153.97125 91.37875H141.14V78.3175h12.83125v13.06125z"/>
  <path fill="#421f24" d="M153.97125 78.3175H141.14v-13.045h12.83125v13.045z"/>
  <path fill="#421f24" d="M153.97125 65.27375H141.14V52.2125h12.83125v13.06125zm0-13.06125H141.14v-13.045h12.83125v13.045zm0-13.045H141.14V26.10625h12.83125V39.1675z"/>
  <path fill="#fff" d="M153.97125 26.10625H141.14v-13.045h12.83125v13.045z"/>
  <path d="M141.14 13.06125h12.83V0h-12.83v13.06125zM128.31 404.6675h12.83125v-13.06125H128.31v13.06125z"/>
  <path fill="#a28d68" d="M141.14 391.60625h-12.83125v-13.045H141.14v13.045z"/>
  <path fill="#ababab" d="M141.14 378.56125h-12.83125V365.5H141.14v13.06125z"/>
  <path fill="#74282b" d="M141.14 365.5h-12.83125v-13.045H141.14V365.5zm0-13.045h-12.83125v-13.06125H141.14V352.455zm0-13.06125h-12.83125v-13.045H141.14v13.045z"/>
  <path fill="#74282b" d="M141.14 326.35h-12.83125v-13.06125H141.14V326.35zm0-13.06125h-12.83125v-13.045H141.14v13.045zm0-13.045h-12.83125V287.1825H141.14v13.06125z"/>
  <path fill="#ababab" d="M141.14 287.1825h-12.83125v-13.045H141.14v13.045zm0-13.045h-12.83125v-13.06125H141.14v13.06125z"/>
  <path fill="#ae353a" d="M141.14 261.07625h-12.83125V248.015H141.14v13.06125zm0-13.06125h-12.83125V234.97H141.14v13.045z"/>
  <path fill="#fff" d="M141.14 234.97h-12.83125v-13.06125H141.14V234.97z"/>
  <path fill="#74282b" d="M141.14 221.90875h-12.83125v-13.045H141.14v13.045zm0-13.045h-12.83125V195.8025H141.14v13.06125z"/>
  <path fill="#74282b" d="M141.14 195.80375h-12.83125v-13.045H141.14v13.045z"/>
  <path fill="#efd9b4" d="M141.14 156.6525h-12.83125v-13.06125H141.14v13.06125z"/>
  <path fill="#e3978f" d="M141.14 143.59125h-12.83125V130.53H141.14v13.06125z"/>
  <path d="M141.14 130.53h-12.83125v-13.045H141.14v13.045zm0-13.045h-12.83125v-13.06125H141.14V117.485zm0-13.06125h-12.83125v-13.045H141.14v13.045z"/>
  <path fill="#efd9b4" d="M141.14 91.37875h-12.83125V78.3175H141.14v13.06125zm0-13.06125h-12.83125v-13.045H141.14v13.045z"/>
  <path fill="#421f24" d="M141.14 65.27375h-12.83125V52.2125H141.14v13.06125zm0-13.06125h-12.83125v-13.045H141.14v13.045zm0-13.045h-12.83125V26.10625H141.14V39.1675z"/>
  <path d="M141.14 26.10625h-12.83125v-13.045H141.14v13.045zm-12.83-13.045h12.83125V0H128.31v13.06125z"/>
  <path fill="#ae353a" d="M128.30875 352.455H115.4775v-13.06125h12.83125V352.455zm0-13.06125H115.4775v-13.045h12.83125v13.045z"/>
  <path fill="#74282b" d="M128.30875 326.35H115.4775v-13.06125h12.83125V326.35z"/>
  <path fill="#fff" d="M128.30875 313.28875H115.4775v-13.045h12.83125v13.045zm0-13.045H115.4775V287.1825h12.83125v13.06125z"/>
  <path fill="#74282b" d="M128.30875 287.1825H115.4775v-13.045h12.83125v13.045z"/>
  <path fill="#fff" d="M128.30875 274.1375H115.4775v-13.06125h12.83125v13.06125z"/>
  <path fill="#ae353a" d="M128.30875 261.07625H115.4775V248.015h12.83125v13.06125zm0-13.06125H115.4775V234.97h12.83125v13.045zm0-13.045H115.4775v-13.06125h12.83125V234.97z"/>
  <path fill="#fff" d="M128.30875 221.90875H115.4775v-13.045h12.83125v13.045z"/>
  <path fill="#74282b" d="M128.30875 208.86375H115.4775V195.8025h12.83125v13.06125z"/>
  <path fill="#74282b" d="M128.30875 195.80375H115.4775v-13.045h12.83125v13.045zm0-13.045H115.4775V169.6975h12.83125v13.06125z"/>
  <path fill="#efd9b4" d="M128.30875 169.6975H115.4775v-13.045h12.83125v13.045zm0-13.045H115.4775v-13.06125h12.83125v13.06125zm0-13.06125H115.4775V130.53h12.83125v13.06125zm0-13.06125H115.4775v-13.045h12.83125v13.045zm0-13.045H115.4775v-13.06125h12.83125V117.485zm0-13.06125H115.4775v-13.045h12.83125v13.045zm0-13.045H115.4775V78.3175h12.83125v13.06125z"/>
  <path fill="#421f24" d="M128.30875 78.3175H115.4775v-13.045h12.83125v13.045z"/>
  <path fill="#421f24" d="M128.30875 65.27375H115.4775V52.2125h12.83125v13.06125zm0-13.06125H115.4775v-13.045h12.83125v13.045zm0-13.045H115.4775V26.10625h12.83125V39.1675zm0-13.06125H115.4775v-13.045h12.83125v13.045z"/>
  <path fill="#74282b" d="M115.47875 326.35H102.6475v-13.06125h12.83125V326.35zm0-13.06125H102.6475v-13.045h12.83125v13.045zm0-13.045H102.6475V287.1825h12.83125v13.06125z"/>
  <path fill="#fff" d="M115.47875 287.1825H102.6475v-13.045h12.83125v13.045zm0-13.045H102.6475v-13.06125h12.83125v13.06125z"/>
  <path fill="#ae353a" d="M115.47875 261.07625H102.6475V248.015h12.83125v13.06125zm0-13.06125H102.6475V234.97h12.83125v13.045zm0-13.045H102.6475v-13.06125h12.83125V234.97zm0-13.06125H102.6475v-13.045h12.83125v13.045z"/>
  <path fill="#fff" d="M115.47875 208.86375H102.6475V195.8025h12.83125v13.06125z"/>
  <path fill="#74282b" d="M115.47875 195.80375H102.6475v-13.045h12.83125v13.045zm0-13.045H102.6475V169.6975h12.83125v13.06125z"/>
  <path fill="#efd9b4" d="M115.47875 169.6975H102.6475v-13.045h12.83125v13.045zm0-13.045H102.6475v-13.06125h12.83125v13.06125zm0-13.06125H102.6475V130.53h12.83125v13.06125zm0-13.06125H102.6475v-13.045h12.83125v13.045zm0-13.045H102.6475v-13.06125h12.83125V117.485zm0-13.06125H102.6475v-13.045h12.83125v13.045zm0-13.045H102.6475V78.3175h12.83125v13.06125zm0-13.06125H102.6475v-13.045h12.83125v13.045z"/>
  <path fill="#efd9b4" d="M115.47875 65.27375H102.6475V52.2125h12.83125v13.06125z"/>
  <path fill="#421f24" d="M115.47875 52.2125H102.6475v-13.045h12.83125v13.045zm0-13.045H102.6475V26.10625h12.83125V39.1675zm0-13.06125H102.6475v-13.045h12.83125v13.045zm-12.83125-13.045h12.83125V0H102.6475v13.06125z"/>
  <path fill="#74282b" d="M102.6475 287.1825H89.81625v-13.045h12.83125v13.045z"/>
  <path fill="#fff" d="M102.6475 274.1375H89.81625v-13.06125h12.83125v13.06125z"/>
  <path fill="#ae353a" d="M102.6475 261.07625H89.81625V248.015h12.83125v13.06125zm0-13.06125H89.81625V234.97h12.83125v13.045zm0-13.045H89.81625v-13.06125h12.83125V234.97zm0-13.06125H89.81625v-13.045h12.83125v13.045zm0-13.045H89.81625V195.8025h12.83125v13.06125z"/>
  <path fill="#fff" d="M102.6475 195.80375H89.81625v-13.045h12.83125v13.045z"/>
  <path fill="#74282b" d="M102.6475 182.75875H89.81625V169.6975h12.83125v13.06125z"/>
  <path fill="#efd9b4" d="M102.6475 169.6975H89.81625v-13.045h12.83125v13.045zm0-13.045H89.81625v-13.06125h12.83125v13.06125zm0-13.06125H89.81625V130.53h12.83125v13.06125zm0-13.06125H89.81625v-13.045h12.83125v13.045zm0-13.045H89.81625v-13.06125h12.83125V117.485zm0-13.06125H89.81625v-13.045h12.83125v13.045zm0-13.045H89.81625V78.3175h12.83125v13.06125z"/>
  <path fill="#421f24" d="M102.6475 78.3175H89.81625v-13.045h12.83125v13.045z"/>
  <path fill="#421f24" d="M102.6475 65.27375H89.81625V52.2125h12.83125v13.06125zm0-13.06125H89.81625v-13.045h12.83125v13.045zm0-13.045H89.81625V26.10625h12.83125V39.1675zm0-13.06125H89.81625v-13.045h12.83125v13.045zm-12.83125-13.045h12.83125V0H89.81625v13.06125z"/>
  <path fill="#74282b" d="M89.81625 352.455H76.985v-13.06125h12.83125V352.455zm0-13.06125H76.985v-13.045h12.83125v13.045z"/>
  <path fill="#74282b" d="M89.81625 326.35H76.985v-13.06125h12.83125V326.35zm0-13.06125H76.985v-13.045h12.83125v13.045zm0-13.045H76.985V287.1825h12.83125v13.06125z"/>
  <path fill="#ababab" d="M89.81625 287.1825H76.985v-13.045h12.83125v13.045zm0-13.045H76.985v-13.06125h12.83125v13.06125z"/>
  <path fill="#ae353a" d="M89.81625 261.07625H76.985V248.015h12.83125v13.06125zm0-13.06125H76.985V234.97h12.83125v13.045zm0-13.045H76.985v-13.06125h12.83125V234.97zm0-13.06125H76.985v-13.045h12.83125v13.045zm0-13.045H76.985V195.8025h12.83125v13.06125z"/>
  <path fill="#ae353a" d="M89.81625 195.80375H76.985v-13.045h12.83125v13.045z"/>
  <path fill="#fff" d="M89.81625 182.75875H76.985V169.6975h12.83125v13.06125z"/>
  <path fill="#efd9b4" d="M89.81625 169.6975H76.985v-13.045h12.83125v13.045zm0-13.045H76.985v-13.06125h12.83125v13.06125z"/>
  <path fill="#e3978f" d="M89.81625 143.59125H76.985V130.53h12.83125v13.06125z"/>
  <path fill="#fff" d="M89.81625 130.53H76.985v-13.045h12.83125v13.045zm0-13.045H76.985v-13.06125h12.83125V117.485zm0-13.06125H76.985v-13.045h12.83125v13.045z"/>
  <path fill="#efd9b4" d="M89.81625 91.37875H76.985V78.3175h12.83125v13.06125zm0-13.06125H76.985v-13.045h12.83125v13.045z"/>
  <path fill="#421f24" d="M89.81625 65.27375H76.985V52.2125h12.83125v13.06125zm0-13.06125H76.985v-13.045h12.83125v13.045zm0-13.045H76.985V26.10625h12.83125V39.1675zm0-13.06125H76.985v-13.045h12.83125v13.045zm-12.83-13.045h12.83V0h-12.83v13.06125z"/>
  <path d="M64.15375 404.6675H76.985v-13.06125H64.15375v13.06125z"/>
  <path fill="#efd9b4" d="M76.985 391.60625H64.15375v-13.045H76.985v13.045z"/>
  <path fill="#ababab" d="M76.985 378.56125H64.15375V365.5H76.985v13.06125z"/>
  <path fill="#74282b" d="M76.985 365.5H64.15375v-13.045H76.985V365.5zm0-13.045H64.15375v-13.06125H76.985V352.455zm0-13.06125H64.15375v-13.045H76.985v13.045z"/>
  <path fill="#74282b" d="M76.985 326.35H64.15375v-13.06125H76.985V326.35zm0-13.06125H64.15375v-13.045H76.985v13.045zm0-13.045H64.15375V287.1825H76.985v13.06125z"/>
  <path fill="#ababab" d="M76.985 287.1825H64.15375v-13.045H76.985v13.045zm0-13.045H64.15375v-13.06125H76.985v13.06125z"/>
  <path fill="#74282b" d="M76.985 261.07625H64.15375V248.015H76.985v13.06125zm0-13.06125H64.15375V234.97H76.985v13.045z"/>
  <path fill="#ae353a" d="M76.985 234.97H64.15375v-13.06125H76.985V234.97zm0-13.06125H64.15375v-13.045H76.985v13.045zm0-13.045H64.15375V195.8025H76.985v13.06125z"/>
  <path fill="#ae353a" d="M76.985 195.80375H64.15375v-13.045H76.985v13.045zm0-13.045H64.15375V169.6975H76.985v13.06125z"/>
  <path fill="#efd9b4" d="M76.985 169.6975H64.15375v-13.045H76.985v13.045zm0-13.045H64.15375v-13.06125H76.985v13.06125z"/>
  <path fill="#e3978f" d="M76.985 143.59125H64.15375V130.53H76.985v13.06125z"/>
  <path d="M76.985 130.53H64.15375v-13.045H76.985v13.045zm0-13.045H64.15375v-13.06125H76.985V117.485zm0-13.06125H64.15375v-13.045H76.985v13.045z"/>
  <path fill="#efd9b4" d="M76.985 91.37875H64.15375V78.3175H76.985v13.06125z"/>
  <path fill="#421f24" d="M76.985 78.3175H64.15375v-13.045H76.985v13.045z"/>
  <path fill="#421f24" d="M76.985 65.27375H64.15375V52.2125H76.985v13.06125zm0-13.06125H64.15375v-13.045H76.985v13.045zm0-13.045H64.15375V26.10625H76.985V39.1675zm0-13.06125H64.15375v-13.045H76.985v13.045zm-12.83125-13.045H76.985V0H64.15375v13.06125z"/>
  <path d="M51.32375 404.6675h12.83v-13.06125h-12.83v13.06125z"/>
  <path fill="#efd9b4" d="M64.155 391.60625H51.32375v-13.045H64.155v13.045z"/>
  <path fill="#ababab" d="M64.155 378.56125H51.32375V365.5H64.155v13.06125z"/>
  <path fill="#74282b" d="M64.155 365.5H51.32375v-13.045H64.155V365.5z"/>
  <path fill="#ae353a" d="M64.155 352.455H51.32375v-13.06125H64.155V352.455zm0-13.06125H51.32375v-13.045H64.155v13.045z"/>
  <path fill="#ae353a" d="M64.155 326.35H51.32375v-13.06125H64.155V326.35zm0-13.06125H51.32375v-13.045H64.155v13.045z"/>
  <path fill="#74282b" d="M64.155 300.24375H51.32375V287.1825H64.155v13.06125z"/>
  <path fill="#ababab" d="M64.155 287.1825H51.32375v-13.045H64.155v13.045zm0-13.045H51.32375v-13.06125H64.155v13.06125z"/>
  <path fill="#74282b" d="M64.155 261.07625H51.32375V248.015H64.155v13.06125zm0-13.06125H51.32375V234.97H64.155v13.045zm0-13.045H51.32375v-13.06125H64.155V234.97z"/>
  <path fill="#ae353a" d="M64.155 221.90875H51.32375v-13.045H64.155v13.045zm0-13.045H51.32375V195.8025H64.155v13.06125z"/>
  <path fill="#ae353a" d="M64.155 195.80375H51.32375v-13.045H64.155v13.045zm0-13.045H51.32375V169.6975H64.155v13.06125z"/>
  <path fill="#efd9b4" d="M64.155 156.6525H51.32375v-13.06125H64.155v13.06125zm0-13.06125H51.32375V130.53H64.155v13.06125zm0-13.06125H51.32375v-13.045H64.155v13.045zm0-13.045H51.32375v-13.06125H64.155V117.485zm0-13.06125H51.32375v-13.045H64.155v13.045zm0-13.045H51.32375V78.3175H64.155v13.06125z"/>
  <path fill="#421f24" d="M64.155 78.3175H51.32375v-13.045H64.155v13.045z"/>
  <path fill="#421f24" d="M64.155 65.27375H51.32375V52.2125H64.155v13.06125zm0-13.06125H51.32375v-13.045H64.155v13.045zm0-13.045H51.32375V26.10625H64.155V39.1675zm0-13.06125H51.32375v-13.045H64.155v13.045z"/>
  <path d="M38.4925 404.6675h12.83v-13.06125h-12.83v13.06125z"/>
  <path fill="#efd9b4" d="M51.32375 391.60625H38.4925v-13.045h12.83125v13.045z"/>
  <path fill="#ababab" d="M51.32375 378.56125H38.4925V365.5h12.83125v13.06125z"/>
  <path fill="#ae353a" d="M51.32375 365.5H38.4925v-13.045h12.83125V365.5zm0-13.045H38.4925v-13.06125h12.83125V352.455zm0-13.06125H38.4925v-13.045h12.83125v13.045z"/>
  <path fill="#ae353a" d="M51.32375 326.35H38.4925v-13.06125h12.83125V326.35zm0-13.06125H38.4925v-13.045h12.83125v13.045zm0-13.045H38.4925V287.1825h12.83125v13.06125zm0-13.06125H38.4925v-13.045h12.83125v13.045z"/>
  <path fill="#efd9b4" d="M51.32375 274.1375H38.4925v-13.06125h12.83125v13.06125z"/>
  <path fill="#ae353a" d="M51.32375 261.07625H38.4925V248.015h12.83125v13.06125z"/>
  <path fill="#74282b" d="M51.32375 248.015H38.4925V234.97h12.83125v13.045z"/>
  <path fill="#ae353a" d="M51.32375 234.97H38.4925v-13.06125h12.83125V234.97zm0-13.06125H38.4925v-13.045h12.83125v13.045zm0-13.045H38.4925V195.8025h12.83125v13.06125z"/>
  <path fill="#421f24" d="M51.32375 143.59125H38.4925V130.53h12.83125v13.06125zm0-13.06125H38.4925v-13.045h12.83125v13.045zm0-13.045H38.4925v-13.06125h12.83125V117.485zm0-13.06125H38.4925v-13.045h12.83125v13.045zm0-13.045H38.4925V78.3175h12.83125v13.06125zm0-13.06125H38.4925v-13.045h12.83125v13.045z"/>
  <path fill="#421f24" d="M51.32375 65.27375H38.4925V52.2125h12.83125v13.06125zm0-13.06125H38.4925v-13.045h12.83125v13.045zm0-13.045H38.4925V26.10625h12.83125V39.1675z"/>
  <path d="M25.6625 404.6675h12.83v-13.06125h-12.83v13.06125z"/>
  <path fill="#a28d68" d="M38.4925 391.60625H25.66125v-13.045H38.4925v13.045z"/>
  <path fill="#ae353a" d="M38.4925 365.5H25.66125v-13.045H38.4925V365.5zm0-13.045H25.66125v-13.06125H38.4925V352.455zm0-13.06125H25.66125v-13.045H38.4925v13.045z"/>
  <path fill="#ae353a" d="M38.4925 326.35H25.66125v-13.06125H38.4925V326.35z"/>
  <path fill="#efd9b4" d="M38.4925 287.1825H25.66125v-13.045H38.4925v13.045zm0-13.045H25.66125v-13.06125H38.4925v13.06125z"/>
  <path fill="#ae353a" d="M38.4925 261.07625H25.66125V248.015H38.4925v13.06125zm0-13.06125H25.66125V234.97H38.4925v13.045zm0-13.045H25.66125v-13.06125H38.4925V234.97z"/>
  <path fill="#421f24" d="M38.4925 143.59125H25.66125V130.53H38.4925v13.06125zm0-13.06125H25.66125v-13.045H38.4925v13.045z"/>
  <path fill="#efd9b4" d="M38.4925 117.485H25.66125v-13.06125H38.4925V117.485zm0-13.06125H25.66125v-13.045H38.4925v13.045z"/>
  <path fill="#421f24" d="M38.4925 91.37875H25.66125V78.3175H38.4925v13.06125zm0-13.06125H25.66125v-13.045H38.4925v13.045z"/>
  <path fill="#421f24" d="M38.4925 65.27375H25.66125V52.2125H38.4925v13.06125z"/>
  <path fill="#fff" d="M38.4925 52.2125H25.66125v-13.045H38.4925v13.045zm0-13.045H25.66125V26.10625H38.4925V39.1675z"/>
  <path fill="#ae353a" d="M25.66125 261.07625H12.83V248.015h12.83125v13.06125zm0-13.06125H12.83V234.97h12.83125v13.045z"/>
  <path fill="#421f24" d="M25.66125 117.485H12.83v-13.06125h12.83125V117.485zm0-13.06125H12.83v-13.045h12.83125v13.045zm0-13.045H12.83V78.3175h12.83125v13.06125zm0-13.06125H12.83v-13.045h12.83125v13.045zm0-26.105H12.83v-13.045h12.83125v13.045zm0-13.045H12.83V26.10625h12.83125V39.1675zm0-13.06125H12.83v-13.045h12.83125v13.045zM0 117.485h12.83v-13.06125H0V117.485zm0-13.06125h12.83v-13.045H0v13.045z"/>
  <path fill="#421f24" d="M0 91.38h12.83V78.31875H0V91.38zm0-13.06125h12.83v-13.045H0v13.045zm0-26.1075h12.83V39.1675H0v13.04375zM0 39.1675h12.83V26.10625H0V39.1675z"/>
</svg>
