<svg xmlns="http://www.w3.org/2000/svg" width="227.60001" height="191.41251">
  <defs>
    <clipPath id="a">
      <path d="M0 153.13h182.08V0H0v153.13z"/>
    </clipPath>
  </defs>
  <path fill="#2c2a2a" d="M2.174625 189.687875l4.225 1.725v-40.55l-4.225-1.175v40zm219.042-38.824875l-.025 40.55 4.225-1.275v-40.53875l-4.2 1.26375z"/>
  <path fill="#565759" d="M6.400125 150.863v40.55h214.79125l.025-40.55H6.400125zm214.787375-1.1755H6.4V26.5625h214.7875v123.125z"/>
  <path fill="#2c2a2a" d="M6.4 26.5625v123.125l-4.225-1.3V29.0625l4.225-2.5zm214.791625 0v123.125l4.225-1.3V29.0625l-4.225-2.5z"/>
  <g clip-path="url(#a)" transform="matrix(1.25,0,0,-1.25,0,191.4125)">
    <path fill="#39393a" d="M79.2034 26.0675h25.982c.74 0 1.143-.866.665-1.432l-12.451-14.772c-.577-.685-1.627-.704-2.228-.038l-12.861 14.232c-.699.774-.15 2.01.893 2.01m-13.9063 0h-47.739c-1.105 0-2.001-.896-2.001-2v-12.73c0-1.104.896-2 2.001-2h47.687c1.104 0 2 .896 2 2v12.782c0 1.076-.872 1.948-1.948 1.948m51.9896-1.3229v-13.563c0-1.018.826-1.844 1.844-1.844h48.249c.961 0 1.74.779 1.74 1.74v12.896c0 1.157-.937 2.094-2.093 2.094h-48.417c-.731 0-1.323-.592-1.323-1.323M182.08 135.13l-1.74-5.25h-.01l-3.37 2h-12.67l1.26 3.31 16.05-.06h.48z"/>
    <path fill="#565759" d="M165.18 137.82H16.53v2.12h148.65v-2.12zm-148.3 5.29h147.95v-2.13H16.88v2.13zm.54 2.52h146.87v-1.48H17.42v1.48zm1.17 2.42h144.53v-1.08H18.59v1.08zm159.89 2.58c-.29.74-1.16 1.33-2 1.75-1.04.5-2.16.75-3.3.75H8.42c-1.14 0-2.27-.25-3.3-.75-.85-.42-1.71-1.01-2-1.75C2.49 149 0 135.13 0 135.13l13.54.05 2.99.01h149.02l16.53-.06s-2.97 13.87-3.6 15.5"/>
    <path fill="#454547" d="M17.787 122.213h146.5V43.046h-146.5v79.167z"/>
    <path fill="#39393a" d="M17.79 131.88H5.12l-3.38-2L0 135.13l13.54.05 2.99.01.02-.06 1.24-3.25z"/>
    <path fill="#696a6c" d="M164.287 126.755h-146.5v-2.125h146.5v2.125zm0 3.625h-146.5v-2.125h146.5v2.125z"/>
    <path fill="#454547" d="M165.55 135.19l-1.26-3.31H17.79l-1.24 3.25-.02.06h149.02z"/>
    <path fill="#161413" d="M1.74 34.42v-1.04l3.38-.94h171.853l3.36 1.01v.97l-3.38-1.04H5.12l-3.38 1.04z"/>
    <path fill="#696a6c" d="M165.18 137.82H16.53v2.12h148.65v-2.12zm-.35 3.16H16.88v2.13h147.95v-2.13zm-.54 3.17H17.42v1.48h146.87v-1.48zm-1.17 2.82H18.59v1.08h144.53v-1.08z"/>
    <path fill="#565759" d="M49.6114 12.5732h3.807v4.864l5.729-4.864h4.53l-6.175 5.28 6.069 4.979h-4.529l-5.624-4.547v4.547h-3.807v-10.259zm-14.9124 0h3.807v6.133l6.893-6.133h3.789v10.259h-3.807v-6.133l-6.893 6.133h-3.789v-10.259zm-.6346 7.4032v2.856h-11.105c-1.933.033-3.173-1.468-3.173-3.279s1.189-3.315 3.173-3.279h7.033c.262 0 .476-.189.476-.423 0-.233-.214-.423-.476-.423h-10.1v-2.855h11.105c1.933-.034 3.173 1.468 3.173 3.278 0 1.811-1.189 3.315-3.173 3.279h-7.033c-.262 0-.476.189-.476.423 0 .234.214.423.476.423h10.1m128.8436-6.7558c0 .529-.007 1.057.004 1.586.003.156-.048.189-.191.184-.291-.011-.583.004-.874-.006-.149-.006-.128.082-.133.175-.006.103.014.155.138.154.831-.005 1.661-.006 2.492 0 .141.002.128-.074.126-.163-.002-.084.023-.171-.122-.167-.307.011-.615-.002-.922.006-.125.004-.154-.04-.153-.158.004-1.079.003-2.158.001-3.237 0-.054.033-.138-.035-.159-.096-.03-.205-.029-.302.001-.051.016-.028.087-.028.133-.001.55-.001 1.101-.001 1.651m-1.342-1.631c-.005-.113-.013-.171-.155-.17-.75.008-1.5.007-2.25.001-.132-.001-.162.039-.161.165.006.593.003 1.187.003 1.781 0 .599.002 1.198-.002 1.797-.001.108.024.151.142.15.734-.005 1.468-.006 2.202 0 .139.002.14-.064.142-.167.003-.112-.016-.164-.147-.163-.605.007-1.209 0-1.814.006-.124.001-.169-.029-.166-.162.009-.361.009-.723.001-1.084-.003-.126.042-.153.158-.152.551.005 1.101-.002 1.652.005.131.002.164-.037.162-.164-.002-.12-.023-.168-.159-.166-.551.008-1.101-.001-1.652.006-.131.002-.164-.04-.161-.166.007-.399.007-.798 0-1.198-.003-.127.033-.166.162-.164.626.006 1.252-.001 1.878.005.125.001.17-.029.165-.16m-2.7227-.1646c-.164 0-.296-.003-.427.001-.077.002-.102.075-.139.124-.462.605-.924 1.21-1.38 1.819-.081.108-.134.123-.233.023-.152-.153-.315-.295-.48-.434-.079-.066-.104-.139-.102-.239.004-.388-.005-.777.005-1.165.004-.151-.082-.136-.174-.13-.084.006-.195-.05-.195.124.006 1.214.006 2.429.001 3.643-.001.161.101.118.183.118.081 0 .186.044.184-.118-.007-.571-.003-1.144-.001-1.716 0-.049-.033-.119.03-.143.049-.019.08.044.114.075.619.57 1.248 1.13 1.849 1.719.203.198.408.193.69.174-.363-.33-.694-.631-1.025-.931-.199-.181-.395-.368-.601-.541-.1-.084-.091-.141-.016-.235.538-.668 1.07-1.341 1.604-2.013.032-.04.061-.084.113-.155m-3.912 1.0306c-.279-.731-.797-1.098-1.549-1.097-.813 0-1.368.384-1.619 1.162-.259.803-.208 1.572.325 2.271.598.785 2.286.91 2.803-.41.025-.062.083-.148-.034-.16-.095-.009-.217-.165-.296.03-.168.411-.425.732-.89.81-.532.089-.985-.058-1.315-.502-.348-.466-.397-1.003-.338-1.559.038-.355.143-.687.4-.952.64-.661 1.695-.5 2.105.322.041.082.081.167.103.255.027.109.084.115.177.09.206-.057.206-.054.128-.26m-4.5135-.1995c-.519-.808-1.701-.827-2.247-.036-.428.62-.422 1.702.012 2.319.534.761 1.721.736 2.235-.046.2-.303.291-.658.291-1.127.01-.398-.074-.772-.291-1.11m.672 1.284c-.069 1.057-.621 1.71-1.582 1.82-.959.11-1.693-.371-1.944-1.301-.113-.419-.121-.845-.028-1.266.145-.656.495-1.16 1.165-1.348.67-.188 1.313-.119 1.839.392.427.415.544.954.55 1.525 0 .06.004.119 0 .178m-2.3045 6.1783c-.043.066-.055.116.02.182.641.561 1.279 1.125 1.914 1.693.083.074.114.058.166-.028.188-.315.382-.627.578-.938.046-.071.041-.109-.035-.149-.078-.042-.149-.096-.223-.144-.628-.388-1.256-.773-1.881-1.165-.101-.064-.145-.048-.204.048-.105.171-.223.334-.335.501m-2.1363 4.3997c.017-.003.035-.005.052-.008.029-.021.06-.025.093-.014.018-.003.035-.006.053-.009.044-.027.092-.028.141-.019.017-.002.035-.005.052-.008.028-.022.06-.024.094-.014l.051-.009c.037-.023.077-.024.118-.014.018-.003.035-.006.052-.01.048-.043.017-.089.001-.133-.056-.155-.114-.31-.171-.465-.257-.697-.513-1.393-.77-2.089-.022-.061-.037-.128-.129-.108-.185.039-.371.078-.557.114-.061.012-.075.043-.066.103.084.546.166 1.092.248 1.638.04.27.078.541.117.812.003.017.006.034.009.052.022.028.025.06.014.093.003.018.006.035.009.053.016.095.07.117.158.087.028-.01.061-.004.092-.005.017-.002.034-.005.051-.007.03-.02.061-.024.094-.011.025-.005.051-.009.076-.014.037-.024.077-.026.118-.015m.8289-3.2604c-.021.059.017.101.043.145.44.753.882 1.504 1.322 2.257.043.075.074.097.154.039.273-.195.55-.384.827-.571.066-.044.08-.076.023-.14-.078-.086-.147-.181-.22-.272-.032-.035-.066-.07-.097-.107-.456-.544-.912-1.087-1.365-1.634-.055-.067-.098-.076-.171-.03-.17.108-.344.209-.516.313m-4.5187-4.8649l.001-.008c.008-.014.015-.027.023-.04l.001-.009.024-.039v-.009c.001-.027.007-.051.031-.067.006-.012.012-.024.018-.035l-.003-.009.009-.003c.006-.011.011-.021.016-.032.001-.038.019-.067.05-.088.181-.369.361-.739.545-1.106.645-1.283 1.289-2.567 1.939-3.848.056-.111.05-.164-.073-.197-.046-.011-.087-.04-.13-.062-.013-.007-.025-.015-.038-.023-.011-.003-.021-.005-.032-.008-.178-.075-.357-.15-.535-.225-.15-.064-.15-.064-.221.081-1.071 2.183-2.141 4.365-3.212 6.547-.226.46-.455.918-.683 1.377-.004.016-.006.032-.013.046-.101.213-.101.213.116.316.98.466 1.962.929 2.941 1.399.298.143.579.32.899.416 1.743.523 3.604-.574 3.851-2.383.202-1.484-.571-2.431-.573-2.46-.012-.01-.027-.018-.037-.03-.483-.624-1.119-1.036-1.838-1.337-.092-.038-.154-.025-.225.039-.13.115-.266.223-.4.333-.674.558-1.348 1.116-2.024 1.672-.069.057-.09.107-.056.195.103.271.199.545.294.82.104.3.225.595.311.902.003.007.167.442.167.442.009.006.017.013.026.02.475 0 1.875.014 2.099.012.049 0 .098.009.132-.037.001-.025.001-.852 0-1.048-.136-.006-.272-.015-.409-.016-.317-.002-.634 0-.951 0-.052 0-.106.006-.122-.066-.03-.124-.064-.248-.095-.372-.016-.014-.122-.421-.154-.508-.029-.078-.006-.124.061-.171.394-.275.784-.554 1.176-.831.276-.195.28-.198.532.022.249.218.77.959.768.965.016.023.034.044.047.069.339.686.239 1.339-.155 1.966-.338.541-.834.805-1.469.803-.452-.001-.878-.122-1.28-.325-.681-.344-1.362-.688-2.039-1.04-.325-.169-.283-.072-.125-.411.003-.007.011-.012.016-.018l.799-1.581zm-1.4667-3.832c-.546-.711-1.641-.692-2.163.036-.451.629-.432 1.742.013 2.374.495.704 1.878.767 2.338-.293.127-.293.176-.598.174-.915.001-.437-.091-.848-.362-1.202m.736 1.428c-.065.93-.593 1.68-1.578 1.775-.857.082-1.591-.273-1.903-1.164-.094-.268-.129-.546-.116-.829 0-.092-.007-.184 0-.275.074-.863.581-1.626 1.559-1.725.922-.093 1.675.324 1.947 1.256.092.315.113.638.091.962m-3.7042-2.0024c-.002-.123-.028-.167-.162-.166-.75.006-1.501.006-2.251 0-.122-.001-.155.033-.154.154.006.599.003 1.198.003 1.798 0 .594.002 1.188-.002 1.781-.001.112.015.162.147.161.729-.007 1.458-.007 2.187 0 .133.001.145-.052.146-.162.002-.116-.015-.171-.155-.169-.599.008-1.199.001-1.798.006-.124.001-.169-.025-.166-.159.01-.367.007-.734.002-1.101-.002-.107.031-.139.137-.138.556.005 1.113-.003 1.668.006.143.002.153-.058.155-.171.002-.115-.021-.161-.15-.159-.546.007-1.091-.001-1.636.005-.129.002-.179-.024-.176-.166.01-.399.009-.799.001-1.198-.003-.126.029-.166.161-.165.626.008 1.252 0 1.879.007.128.001.166-.035.164-.164m-3.0302.4529c0-.067-.003-.124-.068-.168-.721-.486-1.499-.68-2.333-.373-.714.262-1.096.811-1.155 1.573-.028.357-.008.713.105 1.056.313.951 1.13 1.325 2.064 1.234.615-.059 1.071-.342 1.288-.946.025-.068.055-.149-.057-.154-.095-.005-.213-.167-.286.013-.239.586-.681.835-1.299.81-.595-.025-1.024-.305-1.277-.843-.319-.678-.199-1.653.257-2.136.442-.468.991-.523 1.582-.406.263.052.5.166.724.311.071.046.102.1.1.186-.005.237-.007.475.001.712.002.11-.039.138-.142.137-.318-.006-.637.005-.955-.006-.137-.004-.145.058-.144.165.001.103.002.173.142.166.221-.012.442-.003.664-.003.216 0 .432-.006.647.002.117.005.145-.038.144-.148-.006-.394-.003-.788-.002-1.182m-4.6704.2479c-.533-.871-1.81-.875-2.31.014-.395.703-.393 1.448.005 2.15.483.85 1.743.863 2.283.046.224-.342.301-.724.294-1.139.01-.374-.069-.739-.272-1.071m.652 1.257c-.071 1.051-.616 1.698-1.57 1.814-.963.117-1.706-.368-1.956-1.302-.113-.42-.121-.846-.027-1.267.146-.656.497-1.159 1.168-1.346.67-.186 1.313-.116 1.838.397.426.416.542.955.554 1.541-.002.045-.003.104-.007.163"/>
    <path fill="#565759" d="M127.925 11.5815c-.002-.128-.037-.163-.165-.161-.744.006-1.489.006-2.234-.001-.142-.001-.167.048-.166.176.006.594.003 1.187.003 1.781 0 .593.003 1.187-.002 1.781-.002.117.026.157.152.156.728-.005 1.457-.007 2.185.001.149.002.145-.066.15-.174.004-.116-.023-.158-.15-.157-.605.007-1.209 0-1.813.006-.13.002-.165-.038-.162-.163.007-.356.009-.713-.001-1.068-.004-.142.047-.169.176-.167.544.006 1.09-.003 1.635.006.14.002.154-.052.156-.168.003-.126-.03-.165-.161-.163-.551.008-1.101 0-1.651.006-.123.002-.156-.035-.154-.155.006-.405.007-.81-.001-1.214-.003-.134.046-.16.167-.159.621.005 1.242-.001 1.862.005.133.002.176-.03.174-.168m-3.0155-.0116c0-.108-.022-.146-.14-.152-.172-.007-.28.041-.381.194-.642.967-1.298 1.924-1.95 2.884-.039.057-.067.124-.128.162-.051-.022-.032-.064-.032-.099.006-.983.011-1.965.024-2.947.001-.143-.029-.192-.184-.196-.17-.003-.175.073-.175.202.003 1.166.001 2.332.004 3.498.001.065-.052.18.058.186.117.007.257.073.353-.073.19-.289.386-.573.58-.859.503-.742 1.005-1.484 1.509-2.225.028-.041.044-.099.125-.118 0 .278.002.55-.001.822-.007.772-.01 1.543-.027 2.315-.004.168.087.146.191.148.107.003.177.005.176-.147-.007-1.198-.005-2.397-.002-3.595"/>
  </g>
  <path stroke-width=".1" d="M173.42854 103.38161h27.195572v27.864355H173.42854z"/>
  <path fill="#f10000" d="M186.6852 130.15006c-.89752.3487-1.77676.6905-2.67634 1.03947-3.54203-6.52432-7.08673-13.04997-10.63465-19.5828.35376-.15161.70693-.30349 1.0604-.45483 1.04479-.44739 2.08987-.89424 3.13466-1.34242 1.18471-.5083 2.37177-1.01313 3.55294-1.52888.5302-.23194 1.04627-.49047 1.57322-.72985 1.16998-.53091 2.41007-.79796 3.72054-.75593 2.21772.0713 4.09227.84796 5.62073 2.29304.81533.77003 1.34965 1.68847 1.69487 2.70373.26069.76577.39501 1.54749.38263 2.34678-.02 1.28975-.38675 2.49758-1.11814 3.60647-.78735 1.19267-1.85806 2.13984-3.14379 2.89417-.80591.47238-1.66278.85567-2.56588 1.1666-2.2725-1.6975-4.54323-3.39342-6.82163-5.09518.70605-1.80257 1.41181-3.60169 2.12081-5.41065 1.94613-.0173 3.89344-.0343 5.86078-.0513v2.61276h-3.81155c-.2492.82269-.49722 1.64325-.74789 2.47125 1.32256.84663 2.63953 1.68953 3.98564 2.55159.36761-.29126.74671-.57266 1.10135-.87749.51489-.44233.95378-.9421 1.33817-1.48525.57438-.81205.8984-1.6866.87954-2.65371-.0141-.69635-.25066-1.34189-.58292-1.96217-.34993-.65379-.80768-1.23203-1.45423-1.67729-.73226-.50431-1.56703-.74317-2.47751-.77002-1.33757-.0391-2.57677.28965-3.75588.83678-1.12108.52026-2.24482 1.03547-3.36767 1.55308-.79442.36653-1.58913.73358-2.38325 1.10064-.0162.008-.0307.0184-.048.0293 3.1874 5.72158 6.37096 11.43917 9.56306 17.17218zm2.25188-25.11392c-.63683-.11837-1.25599-.23381-1.89193-.35217.37025-2.23293-.15928.92743.21185-1.31056 1.20583.0228 1.18946-.007 2.3556.0356-.89987 2.20447.22258-.57334-.67552 1.62715z"/>
  <path fill="#07b8f9" d="M199.27601 103.21494c.30751.44964 1.38028 1.47428 1.35483 2.06728-.0224.52263-.0275.39388-.0152.97485-2.00858 1.12299-3.5176 1.8924-5.53148 3.01778-.42239-.5692-.83654-1.12804-1.26011-1.6999 1.81594-1.452 3.62805-2.90135 5.45194-4.36001"/>
  <path fill="#069211" d="M192.06275 103.37165c.75679.0143 1.93851.0221 3.10672.0229-1.58382 1.70549-1.2703 1.36258-2.86031 3.07391-.55612-.30987-1.10724-.61681-1.67396-.9328 1.25805-1.93503.15626-.20769 1.42755-2.164z"/>
  <path fill="#1d1d1b" d="M175.0582018 102.47241424l-.0032612-2.37447672h.2582105v2.8432399h-.2582105l-1.3746448-2.3937183.00647445 2.3937183h-.2582105v-2.8432399h.27106347l1.3585786 2.37447672zm.5433739-2.37447672h1.26702512v.28045855h-1.0024361v.98742877h.99596165v.28045855h-.99596165v1.0144354h1.0024361v.2804585h-1.26702513v-2.8432399zm1.38754573 1.42929944c0-.8759191.57123798-1.47925897 1.24577935-1.47925897.70029527 0 1.2457314.6378262 1.2457314 1.4715509 0 .8338389-.54217492 1.4715509-1.2457314 1.4715509-.70681768 0-1.24577935-.6493598-1.24577935-1.4600745v-.0037684zm.26785023-.00770804c0 .6685442.42275736 1.19109238.98114236 1.19109238.56476354 0 .97788116-.54161845.97788116-1.19109238 0-.64935975-.41306966-1.1910924-.9810944-1.1910924-.5615503 0-.97792912.53019913-.97792912 1.18715273v.00393967zm4.42818544-.6839032c-.07424033-.122929-.16464278-.22667354-.2678982-.30735105-.15490712-.12681157-.34209056-.19983814-.55507585-.19983814-.5228475 0-.97788116.47641412-.97788116 1.18715272 0 .7223863.4582948 1.19880042.9810944 1.19880042.251736 0 .474409-.10363034.6390038-.2573915.167856-.15758666.2840123-.3726696.3227631-.59563185h-1.299877v-.2612741h1.6096912c-.0032133.1652947-.0354896.3726696-.1065167.5494978-.2065588.53408168-.6842291.8452582-1.1650646.8452582-.697082 0-1.2489446-.63776913-1.2489446-1.47925897 0-.85290916.5615503-1.46772546 1.2521578-1.46772546.4840967 0 .9327039.3227671 1.1198873.7876477h-.3033398v.0001142zm.5798226-.7376882h1.32318495v.28045855h-1.0585v.98742877h1.0520735v.28045855h-1.0520735v1.0144354h1.0585v.2804585h-1.32318495v-2.8432399zm1.42970158 1.42929944c0-.8759191.57123798-1.47925897 1.2457314-1.47925897.70034322 0 1.24573137.6378262 1.24573137 1.4715509 0 .8338389-.5421749 1.4715509-1.24573138 1.4715509-.70676972 0-1.2457314-.6493598-1.2457314-1.4600745v-.0037684zm.26785023-.00770804c0 .6685442.4227574 1.19109238.9810944 1.19109238.5648115 0 .9778812-.54161845.9778812-1.19109238 0-.64935975-.4130696-1.1910924-.9810944-1.1910924-.5615503 0-.9778811.53019913-.9778811 1.18715273v.00393967zm5.1709243.00770804c0-.8759191.5711901-1.47925897 1.2457794-1.47925897.7003433 0 1.2457794.6378262 1.2457794 1.4715509 0 .8338389-.5421749 1.4715509-1.2457793 1.4715509-.7067697 0-1.2457793-.6493598-1.2457793-1.4600745v-.0037684zm.2678023-.00770804c0 .6685442.4228053 1.19109238.9811903 1.19109238.5648115 0 .9779291-.54161845.9779291-1.19109238 0-.64935975-.4130696-1.1910924-.9811423-1.1910924-.5615023 0-.977977.53019913-.977977 1.18715273v.00393967zm4.8894538.65706778c-.1548591.4380452-.57119.81465443-1.0972507.81465443-.7067217 0-1.2457793-.64935974-1.2457793-1.47149383 0-.81077186.5261087-1.47160802 1.2424223-1.47160802.5905175 0 .961767.46876316 1.100464.82989922h-.2872735c-.0807627-.16900596-.35173022-.54944068-.8131904-.54944068-.55833702 0-.97788113.52637365-.97788113 1.18720982 0 .67242677.42266143 1.19497495.97788115 1.19497495.5003548 0 .75511226-.4265117.81319044-.5340817l.28741744-.0001142zm2.620616-2.07865918h1.3232809v.28045855h-1.0585479v.98742877h1.0520256v.28045855h-1.0520255v1.0144354h1.058548v.2804585h-1.3232809v-2.8432399zm2.6657453.28045855h-.7695958v-.28045855h1.8102552v.28045855h-.7727611v2.56278134h-.2678982v-2.5627813zm-3.3405264 2.56278145h.3324508l-1.2407436-1.42558816 1.1406056-1.417709h-.2903909l-1.251966 1.54149445v-1.5414373h-.2646369v2.8432401h.264637v-.9265638l.243631-.3029546 1.0664132 1.2295184z"/>
  <path fill="none" d="M187.9502148 103.15848722c-.51977812-1.23066033-1.03811748-2.45800923-1.55679255-3.6862715.00287753-.00239806.00517955-.00473902.0078173-.00628063.12934504-.0787934.25873804-.1575867.38803513-.2362658.18281917-.11111.3656863-.2217062.54831364-.3333871.19197932-.1173907.39374225-.1880192.61152343-.179626.14824083.0057096.28415624.0570395.40338197.1652947.10522174.0955797.17970185.2197077.2367729.3600512.05414554.1331493.09275243.2717228.09491058.4212017.0030214.2076033-.04968538.3953369-.1431572.5696529-.06263427.1165913-.13409297.2238758-.21792506.3188274-.05774247.0654327-.11946552.1258409-.17931818.1883617-.21912403-.1850501-.43359605-.3659893-.64893133-.5477278.0409089-.1777418.08119435-.3538848.12176754-.5304846h.62058765v-.56086c-.3204611.0036542-.63737325.0072512-.95423744.0110196-.11543697.388314-.2303464.7745155-.3453038 1.1614592.3709618.3653041.74067665.7293522 1.11067925 1.0937999.14704186-.066746.2865542-.1489651.41786555-.2504828.2092445-.1618689.38367088-.3651901.511769-.6212684.11898592-.2380358.17879062-.4973115.18205182-.774173.00201428-.1715753-.01985496-.3393252-.0622506-.5037634-.05625574-.2178807-.1432531-.4150924-.27600323-.5803871-.24885853-.3102059-.5540687-.476928-.915103-.49222987-.21341694-.00902126-.41532374.04836084-.60581633.16226857-.0857984.05138695-.16982233.10688486-.25614827.1566731-.19231503.11071033-.38558924.2190797-.57847977.3281913-.17011008.0962649-.3402681.1921872-.5103782.2881666-.05750266.03248797-.1150533.0650901-.1726519.0976352.57771244 1.40234984 1.15475344 2.80304405 1.7315067 4.20373808.14622656-.0749108.2894317-.148337.4355144-.2231336z"/>
  <path fill="#f10000" d="M187.9502148 103.15848722c-.14613064.07485366-.28928784.1482228-.4357542.22313355-.5767053-1.40052275-1.1538422-2.80133115-1.73150668-4.20368098.0575986-.0325451.11510126-.0651473.1726519-.0976353.17011007-.0960365.3402681-.1919588.51037818-.2881666.19289054-.1091116.38616474-.217481.57847977-.3281913.08632595-.0497883.17034987-.1052862.25614827-.1566731.1904926-.1139649.3923994-.1712899.60576836-.1622686.36108226.0153019.66629245.182024.91515097.4922299.13275013.1652946.2197475.3624492.27595528.580387.0424436.1643811.06431283.332188.06229856.5037634-.0032612.2768614-.0629699.5361371-.1820518.7741729-.128194.2560212-.3025245.4593424-.5118649.6212684-.1312154.1014036-.2707278.1836798-.4177696.2504257-.3700026-.3643906-.7397174-.7284387-1.1106792-1.0937429.1149574-.3869437.2298668-.7731452.3453038-1.1614593.3168642-.0037113.6339202-.0073655.9542375-.0110197v.56086h-.6205876c-.0405732.1765998-.0809545.35274282-.1217675.5304846.2153353.1817385.4297594.3626777.6489313.5477278.0598527-.0625208.1215757-.122929.1793182-.1883617.0838321-.0949517.1552908-.2022362.2178771-.3188275.0935198-.17431598.1462745-.3620496.1432052-.5696529-.002302-.1494789-.040813-.2880524-.0949105-.4212017-.05697514-.14034347-.1315032-.2644715-.2367729-.3600512-.11922573-.1082552-.25514114-.15952795-.403382-.1652947-.2177812-.0083932-.4195441.0621782-.6115234.17962593-.18253143.11168096-.3654945.2222771-.54831366.3333871-.12934507.07867913-.2587381.15747245-.38803516.2362658-.0026377.0015987-.0049877.00393964-.0078173.0062806.51896286 1.2282052 1.0373022 2.4555541 1.55703238 3.68621442zm.3666455-5.391005c-.10368707-.025408-.2044966-.0501879-.30803977-.0755959.0602843-.47932604.12056857-.95853783.18099674-1.4389487.1887181.03277345.3756138.06537562.56548292.09843455-.1465144.47321665-.2922134.9437498-.4384399 1.41611007zm1.68335597-.39094048c.1001381.19304364.1988854.38368922.29931125.57736092-.32703147.2410619-.65391906.4818954-.98181378.72347115-.068773-.1221867-.13620317-.2421467-.205168-.3649044.29566637-.3116904.59070927-.6228098.88767053-.9359276zm-.78988242-.7535039c.14469188.11904643.28674602.23603732.42942363.35342795-.2578748.3661034-.51498224.7311221-.77386416 1.0984816-.09054633-.0665176-.18027736-.1324071-.2725502-.2002378.2048323-.4153779.4100003-.8317264.61699073-1.2516719z"/>
</svg>
