<svg xmlns="http://www.w3.org/2000/svg" width="400" height="247.81064">
  <defs>
    <clipPath id="a">
      <path d="M0 303.378h489.693V0H0v303.378z"/>
    </clipPath>
  </defs>
  <g clip-path="url(#a)" transform="matrix(0.8168384,0,0,-0.8168384,0,247.8108)">
    <path fill="#060506" fill-rule="evenodd" d="M489.4599 44.5752c-.209-1.143-.582-2.277-1.078-3.279-4.506-9.114-9.324-18.072-13.719-27.236-3.453-7.196-9.365-10.986-16.652-12.97-2.815-.766-5.842-1.035-8.776-1.035-136.324-.05-272.653-.041-408.982-.055-7.597 0-14.488 2.201-20.067 7.279-2.541 2.321-4.327 5.624-5.985 8.735-4.427 8.297-8.667 16.701-12.816 25.141-.524 1.066-.916 2.273-1.129 3.488h23.009l14.296-26.338h413.428l15.01 26.27h23.461z"/>
    <path fill="#1d1d1d" fill-rule="evenodd" d="M489.6923 299.48c0-84.331.01-168.662-.049-252.993-.006-.623-.064-1.269-.183-1.912h-23.461l2.98 5.215h9.51v249.016H11.6553V49.526h8.958l2.651-4.882H.2563c-.129.719-.197 1.439-.197 2.14-.068 84.33-.059 168.666-.059 252.996 0 3.584.005 3.594 3.73 3.594h241.15c80.31.004 160.619.004 240.927.004 3.879 0 3.885 0 3.885-3.898"/>
    <path fill="#1d1d1d" fill-rule="evenodd" d="M309.1396 224.1123c0-3.02-2.447-5.465-5.465-5.465h-113.712c-3.02 0-5.465 2.445-5.465 5.465v18.673c0 3.02 2.445 5.466 5.465 5.466h113.712c3.018 0 5.465-2.446 5.465-5.466v-18.673zm145.209 43.154H35.2246l-9.223-55.678h437.911l-9.564 55.678zM16.096 200.238h458.065v-7.132H16.096v7.132zm0-10.817h458.065v-7.132H16.096v7.132zm0-10.703h458.065v-7.132H16.096v7.132zm0-11.842h458.065v-7.132H16.096v7.132zm0-11.618h458.065v-7.137H16.096v7.137zm0-10.772h458.065v-7.137H16.096v7.137zm0-11.085h458.065v-7.132H16.096v7.132zm0-10.931h458.065v-7.132H16.096v7.132zm0-11.231h458.065v-7.137H16.096v7.137zm0-11.086h458.065v-7.132H16.096v7.132zm0-10.93h458.065v-7.132H16.096v7.132zm0-11.004h458.065v-7.137H16.096v7.137z"/>
    <path fill="#723618" fill-rule="evenodd" d="M468.9794 52.9414v-3.151l-2.98-5.215-15.01-26.271H37.5614l-14.297 26.339-2.651 4.883v3.415h448.366z"/>
    <path fill="#040505" fill-rule="evenodd" d="M474.1611 203.0117l-457.951.492v90.975l12.22 2.2h433.057l12.674-2.578v-91.089zm0-9.906H16.0961v7.132h458.065v-7.132zm0-10.817H16.0961v7.132h458.065v-7.132zm0-10.703H16.0961v7.132h458.065v-7.132zm0-11.842H16.0961v7.132h458.065v-7.132zm0-11.623H16.0961v7.137h458.065v-7.137zm0-10.771H16.0961v7.137h458.065v-7.137zm0-11.081H16.0961v7.132h458.065v-7.132zm0-10.931H16.0961v7.132h458.065v-7.132zm0-11.236H16.0961v7.137h458.065v-7.137zm0-11.081H16.0961v7.132h458.065v-7.132zm0-10.93H16.0961v7.132h458.065v-7.132zm0-11.009H16.0961v7.137h458.065v-7.137zm-462.506 227.724V49.5267h8.959v3.415h-6.759v15.408h462.847v-15.408h-7.723v-3.152h9.51v249.016H11.6551z"/>
    <path fill="#121312" fill-rule="evenodd" d="M33.5165 269.2017h422.732l10.057-59.322H23.8745l9.642 59.322zm427.971 2.428H28.4295l-12.22-68.126 457.952-.492-12.674 68.618z"/>
    <path fill="#1d1d1d" fill-rule="evenodd" d="M461.487 271.629H28.429v25.05h433.058v-25.05z"/>
    <path fill="#040505" fill-rule="evenodd" d="M474.1611 294.1011v-91.089l-12.674 68.617v25.05l12.674-2.578zm-445.7315 2.5781v-25.05l-12.22-68.126v90.976l12.22 2.2z"/>
    <path fill="#5b5b5b" fill-rule="evenodd" d="M35.2245 267.2661h419.124l9.564-55.678H26.0015l9.223 55.678zm421.024 1.936H33.5165l-9.642-59.322h442.431l-10.057 59.322z"/>
    <path fill="#a15225" fill-rule="evenodd" d="M476.702 52.941H13.855v15.408h462.847V52.941z"/>
    <path fill="#1f1f23" fill-rule="evenodd" d="M307.6962 224.686c0-2.828-2.391-5.128-5.344-5.128h-111.201c-2.951 0-5.342 2.3-5.342 5.128v17.526c0 2.828 2.391 5.124 5.342 5.124h111.201c2.953 0 5.344-2.296 5.344-5.124v-17.526zm-4.022 23.565h-113.711c-3.02 0-5.466-2.446-5.466-5.465v-18.674c0-3.019 2.446-5.465 5.466-5.465h113.711c3.018 0 5.465 2.446 5.465 5.465v18.674c0 3.019-2.447 5.465-5.465 5.465"/>
    <path fill="#060506" fill-rule="evenodd" d="M299.4989 232.8208l-.912-.009v1.302h-10.248v1.421h-10.529v-2.559h-5.01v1.234h-52.322v-.838h-4.983v-2.077h-10.58v3.066h-10.853v-1.517h-.989v9.031h106.426v-9.054zm0-9.127h-106.426v8.198h1.043v-.738h10.28v-.579h11.582v1.886h4.463v-1.344h52.335v.93h5.717v2.882h9.162v-3.775h10.932v1.052l.912-.009v-8.503zm2.854 23.642h-111.202c-2.951 0-5.342-2.296-5.342-5.124v-17.526c0-2.828 2.391-5.128 5.342-5.128h111.202c2.953 0 5.343 2.3 5.343 5.128v17.526c0 2.828-2.39 5.124-5.343 5.124"/>
    <path fill="#fff" d="M65.2524 226.6221c0-4.5-3.667-8.162-8.166-8.162-4.5 0-8.167 3.662-8.167 8.162v15.494c0 4.5 3.667 8.162 8.167 8.162 4.499 0 8.166-3.662 8.166-8.162v-15.494zm-8.166 24.111c-4.755 0-8.622-3.867-8.622-8.617v-15.494c0-4.751 3.867-8.617 8.622-8.617 4.754 0 8.622 3.866 8.622 8.617v15.494c0 4.75-3.868 8.617-8.622 8.617"/>
    <path fill="#161720" d="M62.6557 227.0044c0-2.951-2.391-5.342-5.342-5.342-1.471 0-2.81.596-3.776 1.566-.965.966-1.562 2.3-1.562 3.776v13.969c0 2.951 2.391 5.342 5.338 5.342 1.476 0 2.81-.597 3.776-1.562.97-.97 1.566-2.305 1.566-3.78v-13.969zm-5.569 23.273c-4.5 0-8.167-3.661-8.167-8.161v-15.494c0-4.5 3.667-8.162 8.167-8.162 4.499 0 8.166 3.662 8.166 8.162v15.494c0 4.5-3.667 8.161-8.166 8.161"/>
    <path fill="#040505" fill-rule="evenodd" d="M62.6557 240.9732v-13.969c0-2.951-2.391-5.342-5.342-5.342-1.471 0-2.81.597-3.776 1.566-.965.967-1.562 2.301-1.562 3.776v13.969c0 2.951 2.391 5.342 5.338 5.342 1.476 0 2.81-.596 3.776-1.562.97-.97 1.566-2.305 1.566-3.78"/>
    <path fill="#aaaed1" fill-rule="evenodd" d="M62.6557 234.353v-.555c-.036-.738-.223-1.435-.532-2.068-.866-1.781-2.697-3.006-4.81-3.006-2.114 0-3.944 1.225-4.81 3.006-.3.61-.487 1.284-.528 2v.687c.174 2.796 2.496 5.01 5.338 5.01 2.864 0 5.201-2.25 5.342-5.074"/>
    <path fill="#181a23" fill-rule="evenodd" d="M62.6654 229.3887c0-2.956-2.396-5.356-5.352-5.356-2.837 0-5.16 2.213-5.337 5.01v4.687c.041-.715.227-1.389.527-2 .866-1.78 2.697-3.006 4.81-3.006 2.114 0 3.945 1.226 4.81 3.006.31.634.497 1.33.532 2.068l.01-4.409z"/>
    <path fill="#fff" d="M118.0839 226.6221c0-4.5-3.666-8.162-8.166-8.162s-8.166 3.662-8.166 8.162v15.494c0 4.5 3.666 8.162 8.166 8.162s8.166-3.662 8.166-8.162v-15.494zm-8.166 24.111c-4.755 0-8.622-3.867-8.622-8.617v-15.494c0-4.751 3.867-8.617 8.622-8.617 4.754 0 8.622 3.866 8.622 8.617v15.494c0 4.75-3.868 8.617-8.622 8.617"/>
    <path fill="#161720" d="M115.4882 227.0044c0-2.951-2.391-5.342-5.342-5.342-1.472 0-2.81.596-3.777 1.566-.964.966-1.562 2.3-1.562 3.776v13.969c0 2.951 2.391 5.342 5.339 5.342 1.475 0 2.809-.597 3.775-1.562.97-.97 1.567-2.305 1.567-3.78v-13.969zm-5.57 23.273c-4.5 0-8.166-3.661-8.166-8.161v-15.494c0-4.5 3.666-8.162 8.166-8.162s8.166 3.662 8.166 8.162v15.494c0 4.5-3.666 8.161-8.166 8.161"/>
    <path fill="#040505" fill-rule="evenodd" d="M115.4882 240.9732v-13.969c0-2.951-2.391-5.342-5.342-5.342-1.472 0-2.81.597-3.777 1.566-.964.967-1.562 2.301-1.562 3.776v13.969c0 2.951 2.391 5.342 5.339 5.342 1.475 0 2.809-.596 3.775-1.562.97-.97 1.567-2.305 1.567-3.78"/>
    <path fill="#aaaed1" fill-rule="evenodd" d="M115.4882 241.2417v-.555c-.037-.738-.223-1.435-.533-2.068-.865-1.781-2.696-3.006-4.809-3.006-2.114 0-3.945 1.225-4.81 3.006-.301.61-.487 1.284-.529 1.999v.688c.174 2.796 2.496 5.01 5.339 5.01 2.865 0 5.2-2.25 5.342-5.074"/>
    <path fill="#181a23" fill-rule="evenodd" d="M115.497 236.2774c0-2.956-2.395-5.356-5.351-5.356-2.838 0-5.161 2.213-5.338 5.01v4.687c.041-.716.228-1.389.528-2 .865-1.78 2.696-3.006 4.81-3.006 2.113 0 3.944 1.226 4.809 3.006.31.634.497 1.33.533 2.068l.009-4.409z"/>
    <path fill="#fff" d="M169.5497 226.6221c0-4.5-3.666-8.162-8.166-8.162s-8.166 3.662-8.166 8.162v15.494c0 4.5 3.666 8.162 8.166 8.162s8.166-3.662 8.166-8.162v-15.494zm-8.166 24.111c-4.755 0-8.622-3.867-8.622-8.617v-15.494c0-4.751 3.867-8.617 8.622-8.617s8.622 3.866 8.622 8.617v15.494c0 4.75-3.867 8.617-8.622 8.617"/>
    <path fill="#161720" d="M166.9535 227.0044c0-2.951-2.391-5.342-5.342-5.342-1.471 0-2.811.596-3.776 1.566-.966.966-1.562 2.3-1.562 3.776v13.969c0 2.951 2.391 5.342 5.338 5.342 1.475 0 2.81-.597 3.775-1.562.97-.97 1.567-2.305 1.567-3.78v-13.969zm-5.57 23.273c-4.5 0-8.166-3.661-8.166-8.161v-15.494c0-4.5 3.666-8.162 8.166-8.162s8.166 3.662 8.166 8.162v15.494c0 4.5-3.666 8.161-8.166 8.161"/>
    <path fill="#040505" fill-rule="evenodd" d="M166.9535 240.9732v-13.969c0-2.951-2.391-5.342-5.342-5.342-1.471 0-2.811.597-3.776 1.566-.966.967-1.562 2.301-1.562 3.776v13.969c0 2.951 2.391 5.342 5.338 5.342 1.475 0 2.81-.596 3.775-1.562.97-.97 1.567-2.305 1.567-3.78"/>
    <path fill="#aaaed1" fill-rule="evenodd" d="M166.9535 241.2417v-.555c-.037-.738-.224-1.435-.533-2.068-.865-1.781-2.696-3.006-4.809-3.006-2.114 0-3.945 1.225-4.81 3.006-.301.61-.487 1.284-.528 1.999v.688c.173 2.796 2.495 5.01 5.338 5.01 2.864 0 5.201-2.25 5.342-5.074"/>
    <path fill="#181a23" fill-rule="evenodd" d="M166.9628 236.2774c0-2.956-2.396-5.356-5.352-5.356-2.837 0-5.16 2.213-5.337 5.01v4.687c.041-.716.227-1.389.528-2 .865-1.78 2.696-3.006 4.809-3.006 2.114 0 3.944 1.226 4.81 3.006.309.634.496 1.33.533 2.068l.009-4.409z"/>
    <path fill="#fff" d="M341.29 226.6221c0-4.5-3.664-8.162-8.164-8.162s-8.168 3.662-8.168 8.162v15.494c0 4.5 3.668 8.162 8.168 8.162 4.5 0 8.164-3.662 8.164-8.162v-15.494zm-8.164 24.111c-4.756 0-8.623-3.867-8.623-8.617v-15.494c0-4.751 3.867-8.617 8.623-8.617 4.754 0 8.621 3.866 8.621 8.617v15.494c0 4.75-3.867 8.617-8.621 8.617"/>
    <path fill="#161720" d="M338.6943 227.0044c0-2.951-2.391-5.342-5.342-5.342-1.47 0-2.808.596-3.775 1.566-.967.966-1.563 2.3-1.563 3.776v13.969c0 2.951 2.391 5.342 5.338 5.342 1.475 0 2.811-.597 3.776-1.562.97-.97 1.566-2.305 1.566-3.78v-13.969zm-5.568 23.273c-4.5 0-8.168-3.661-8.168-8.161v-15.494c0-4.5 3.668-8.162 8.168-8.162 4.5 0 8.164 3.662 8.164 8.162v15.494c0 4.5-3.664 8.161-8.164 8.161"/>
    <path fill="#040505" fill-rule="evenodd" d="M338.6943 240.9732v-13.969c0-2.951-2.391-5.342-5.342-5.342-1.47 0-2.808.597-3.775 1.566-.967.967-1.563 2.301-1.563 3.776v13.969c0 2.951 2.391 5.342 5.338 5.342 1.475 0 2.811-.596 3.776-1.562.97-.97 1.566-2.305 1.566-3.78"/>
    <path fill="#aaaed1" fill-rule="evenodd" d="M338.6943 234.353v-.555c-.035-.738-.223-1.435-.531-2.068-.865-1.781-2.698-3.006-4.811-3.006s-3.943 1.225-4.808 3.006c-.301.61-.489 1.284-.53 2v.687c.174 2.796 2.496 5.01 5.338 5.01 2.865 0 5.201-2.25 5.342-5.074"/>
    <path fill="#181a23" fill-rule="evenodd" d="M338.704 229.3887c0-2.956-2.396-5.356-5.352-5.356-2.837 0-5.16 2.213-5.337 5.01v4.687c.041-.715.228-1.389.529-2 .865-1.78 2.695-3.006 4.808-3.006 2.114 0 3.946 1.226 4.811 3.006.309.634.496 1.33.531 2.068l.01-4.409z"/>
    <path fill="#fff" d="M393.8193 226.6221c0-4.5-3.666-8.162-8.166-8.162s-8.166 3.662-8.166 8.162v15.494c0 4.5 3.666 8.162 8.166 8.162s8.166-3.662 8.166-8.162v-15.494zm-8.166 24.111c-4.754 0-8.621-3.867-8.621-8.617v-15.494c0-4.751 3.867-8.617 8.621-8.617 4.756 0 8.621 3.866 8.621 8.617v15.494c0 4.75-3.865 8.617-8.621 8.617"/>
    <path fill="#161720" d="M391.2236 227.0044c0-2.951-2.391-5.342-5.342-5.342-1.47 0-2.81.596-3.775 1.566-.967.966-1.563 2.3-1.563 3.776v13.969c0 2.951 2.391 5.342 5.338 5.342 1.475 0 2.809-.597 3.776-1.562.97-.97 1.566-2.305 1.566-3.78v-13.969zm-5.57 23.273c-4.5 0-8.166-3.661-8.166-8.161v-15.494c0-4.5 3.666-8.162 8.166-8.162s8.166 3.662 8.166 8.162v15.494c0 4.5-3.666 8.161-8.166 8.161"/>
    <path fill="#040505" fill-rule="evenodd" d="M391.2236 240.9732v-13.969c0-2.951-2.391-5.342-5.342-5.342-1.47 0-2.81.597-3.775 1.566-.967.967-1.563 2.301-1.563 3.776v13.969c0 2.951 2.391 5.342 5.338 5.342 1.475 0 2.809-.596 3.776-1.562.97-.97 1.566-2.305 1.566-3.78"/>
    <path fill="#aaaed1" fill-rule="evenodd" d="M391.2236 241.2417v-.555c-.035-.738-.223-1.435-.533-2.068-.865-1.781-2.697-3.006-4.809-3.006-2.113 0-3.945 1.225-4.81 3.006-.301.61-.487 1.284-.528 1.999v.688c.174 2.796 2.494 5.01 5.338 5.01 2.865 0 5.201-2.25 5.342-5.074"/>
    <path fill="#181a23" fill-rule="evenodd" d="M391.2333 236.2774c0-2.956-2.396-5.356-5.351-5.356-2.838 0-5.161 2.213-5.338 5.01v4.687c.041-.716.226-1.389.527-2 .865-1.78 2.697-3.006 4.811-3.006 2.111 0 3.943 1.226 4.808 3.006.311.634.498 1.33.533 2.068l.01-4.409z"/>
    <path fill="#fff" d="M445.1337 226.6221c0-4.5-3.668-8.162-8.166-8.162-4.5 0-8.168 3.662-8.168 8.162v15.494c0 4.5 3.668 8.162 8.168 8.162 4.498 0 8.166-3.662 8.166-8.162v-15.494zm-8.166 24.111c-4.756 0-8.623-3.867-8.623-8.617v-15.494c0-4.751 3.867-8.617 8.623-8.617 4.754 0 8.621 3.866 8.621 8.617v15.494c0 4.75-3.867 8.617-8.621 8.617"/>
    <path fill="#161720" d="M442.5361 227.0044c0-2.951-2.391-5.342-5.342-5.342-1.47 0-2.81.596-3.775 1.566-.965.966-1.563 2.3-1.563 3.776v13.969c0 2.951 2.393 5.342 5.338 5.342 1.477 0 2.811-.597 3.776-1.562.97-.97 1.566-2.305 1.566-3.78v-13.969zm-5.568 23.273c-4.5 0-8.168-3.661-8.168-8.161v-15.494c0-4.5 3.668-8.162 8.168-8.162 4.498 0 8.166 3.662 8.166 8.162v15.494c0 4.5-3.668 8.161-8.166 8.161"/>
    <path fill="#040505" fill-rule="evenodd" d="M442.5361 240.9732v-13.969c0-2.951-2.391-5.342-5.342-5.342-1.47 0-2.81.597-3.775 1.566-.965.967-1.563 2.301-1.563 3.776v13.969c0 2.951 2.393 5.342 5.338 5.342 1.477 0 2.811-.596 3.776-1.562.97-.97 1.566-2.305 1.566-3.78"/>
    <path fill="#aaaed1" fill-rule="evenodd" d="M442.5361 241.2417v-.555c-.035-.738-.223-1.435-.531-2.068-.865-1.781-2.698-3.006-4.811-3.006s-3.943 1.225-4.808 3.006c-.303.61-.489 1.284-.53 1.999v.688c.174 2.796 2.496 5.01 5.338 5.01 2.865 0 5.201-2.25 5.342-5.074"/>
    <path fill="#181a23" fill-rule="evenodd" d="M442.5458 236.2774c0-2.956-2.395-5.356-5.352-5.356-2.837 0-5.16 2.213-5.337 5.01v4.687c.041-.716.226-1.389.529-2 .865-1.78 2.695-3.006 4.808-3.006 2.114 0 3.946 1.226 4.811 3.006.309.634.496 1.33.531 2.068l.01-4.409z"/>
    <path fill="#1d1d1d" fill-rule="evenodd" d="M299.4989 241.875v-9.054l-.912-.01v1.303h-10.248v1.421h-10.529v-2.559h-5.01v1.234h-52.322v-.838h-4.983v-2.077h-10.58v3.065h-10.853v-1.517h-.989v9.032h106.426z"/>
    <path fill="#1d1d1d" fill-rule="evenodd" d="M299.4989 232.1968v-8.503h-106.426v8.198h1.043v-.738h10.28v-.579h11.582v1.886h4.463v-1.344h52.335v.93h5.717v2.882h9.162v-3.775h10.932v1.052l.912-.009z"/>
    <path fill="#fff" d="M194.8285 261.6743l-2.141-5.663h-.896l-2.14 5.663h1.089l1.499-4.43 1.5 4.43h1.089zm1.8945-5.6633h-1.009v5.663h1.009v-5.663zm0 6.736h-1.009v1.089h1.009v-1.089zm5.0704-5.1078v2.69c-.434.459-.931.688-1.489.688-.43 0-.775-.186-1.032-.557-.259-.372-.388-.926-.388-1.663 0-.697.122-1.226.366-1.588.244-.361.581-.541 1.011-.541.563 0 1.073.324 1.532.971m0-.95c-.448-.541-.987-.811-1.617-.811-.74 0-1.313.263-1.719.79-.406.526-.608 1.236-.608 2.129 0 .925.227 1.658.68 2.197.454.539 1.024.809 1.711.809.612 0 1.13-.189 1.553-.566v2.599h1.003v-7.825h-1.003v.678zm6.3833 2.701c-.082.544-.265.952-.55 1.222-.284.27-.633.405-1.046.405-.402 0-.747-.134-1.035-.402-.288-.269-.472-.677-.55-1.225h3.181zm-1.484-3.512c-.832 0-1.501.261-2.007.782-.505.521-.758 1.248-.758 2.18 0 .925.245 1.65.734 2.175.49.525 1.129.788 1.919.788.808 0 1.453-.259 1.935-.775s.723-1.245.723-2.188v-.24h-4.264c.042-.655.223-1.141.541-1.457.319-.317.711-.475 1.177-.475.353 0 .67.09.953.269.283.18.431.435.446.766h1.041c-.079-.583-.343-1.033-.793-1.35-.45-.317-.999-.475-1.647-.475m5.9674.7898c.48 0 .87.183 1.169.547.299.365.448.907.448 1.625 0 .723-.149 1.267-.448 1.631-.299.365-.689.547-1.169.547-.48 0-.87-.182-1.169-.547-.299-.364-.448-.908-.448-1.631 0-.718.149-1.26.448-1.625.299-.364.689-.547 1.169-.547m0 5.135c.808 0 1.453-.259 1.934-.775.483-.515.724-1.245.724-2.188 0-.939-.241-1.668-.724-2.186-.481-.517-1.126-.776-1.934-.776-.804 0-1.447.259-1.93.776-.481.518-.722 1.247-.722 2.186 0 .943.241 1.673.722 2.188.483.516 1.126.775 1.93.775m11.8862-5.9246c-.805 0-1.448.258-1.929.776-.483.518-.724 1.247-.724 2.186 0 .943.241 1.672.724 2.188.481.516 1.124.774 1.929.774.619 0 1.136-.157 1.55-.47.415-.313.66-.765.734-1.355h-1.035c-.014.338-.142.596-.382.774-.24.177-.529.266-.867.266-.48 0-.87-.182-1.169-.547-.299-.364-.448-.908-.448-1.63 0-.719.149-1.26.448-1.625.299-.365.689-.547 1.169-.547.338 0 .627.088.867.266.24.178.368.435.382.769h1.035c-.074-.591-.319-1.043-.734-1.356-.414-.313-.931-.469-1.55-.469m5.4653.7896c.48 0 .87.183 1.169.547.299.365.448.907.448 1.625 0 .723-.149 1.267-.448 1.631-.299.365-.689.547-1.169.547-.48 0-.87-.182-1.169-.547-.299-.364-.448-.908-.448-1.631 0-.718.149-1.26.448-1.625.299-.364.689-.547 1.169-.547m0 5.135c.808 0 1.453-.259 1.935-.775.482-.515.723-1.245.723-2.188 0-.939-.241-1.668-.723-2.186-.482-.517-1.127-.776-1.935-.776-.804 0-1.447.259-1.93.776-.482.518-.722 1.247-.722 2.186 0 .943.24 1.673.722 2.188.483.516 1.126.775 1.93.775m11.4375-5.7918h-1.008v3.662c0 .469-.068.804-.203 1.003-.136.199-.361.299-.678.299-.487 0-.966-.302-1.436-.907v-4.057h-1.003v3.662c0 .469-.068.804-.203 1.003-.135.199-.363.299-.683.299-.488 0-.965-.302-1.431-.907v-4.057h-1.009v5.663h1.009v-.721c.477.566 1.006.85 1.586.85.829 0 1.357-.342 1.584-1.025.378.444.698.726.961.845.264.12.522.18.774.18 1.16 0 1.74-.697 1.74-2.088v-3.704zm2.461 1.3453c.43-.459.924-.689 1.483-.689.434 0 .78.186 1.036.558.255.372.384.926.384 1.663 0 .697-.121 1.226-.363 1.588-.242.36-.58.541-1.014.541-.558 0-1.067-.323-1.526-.971v-2.69zm0 3.64c.448.537.986.806 1.617.806.74 0 1.313-.262 1.718-.787.406-.525.609-1.234.609-2.127 0-.929-.226-1.663-.681-2.202-.453-.539-1.025-.808-1.716-.808-.611 0-1.128.19-1.547.571v-2.616h-1.009v7.841h1.009v-.678zm8.6572-4.2646c-.502-.569-1.065-.854-1.692-.854-1.278 0-1.916.698-1.916 2.092v3.704h1.008v-3.661c0-.463.082-.795.246-.998.164-.202.434-.304.811-.304.563 0 1.076.302 1.543.907v4.056h1.002v-5.663h-1.002v.721zm4.6914-.7309c-.221-.043-.461-.064-.722-.064-.412 0-.714.074-.905.221-.193.148-.312.338-.359.569-.046.231-.069.545-.069.944v3.214h-.7v.789h.7v1.409h1.003v-1.409h.919v-.789h-.919v-3.267c0-.388.048-.634.148-.74.097-.104.232-.157.402-.157.174 0 .341.015.502.043v-.763zm4.7285 3.3892c-.082.544-.266.952-.55 1.222-.284.27-.634.405-1.046.405-.402 0-.748-.134-1.035-.402-.289-.269-.472-.677-.55-1.225h3.181zm-1.484-3.512c-.832 0-1.501.261-2.006.782-.506.521-.759 1.248-.759 2.18 0 .925.245 1.65.734 2.175.49.525 1.129.788 1.919.788.808 0 1.453-.259 1.936-.775.48-.516.722-1.245.722-2.188v-.24h-4.263c.042-.655.223-1.141.54-1.457.319-.317.712-.475 1.177-.475.353 0 .67.09.953.269.283.18.431.435.445.766h1.041c-.078-.583-.342-1.033-.793-1.35-.449-.317-.998-.475-1.646-.475m6.6129 4.8782c-.143.042-.347.064-.613.064-.513 0-.951-.269-1.319-.806v-4.003h-1.008v5.663h1.008v-.79c.424.612.914.918 1.473.918.143 0 .295-.014.459-.043v-1.003zm8.5293-4.878c-1.549 0-2.357.608-2.429 1.825h1.009c.007-.69.477-1.035 1.41-1.035.416 0 .733.086.951.258.22.173.329.389.329.649 0 .256-.107.437-.321.542-.213.104-.653.241-1.32.408-.666.167-1.154.354-1.463.561-.307.206-.461.569-.461 1.088 0 .47.191.858.574 1.166.381.308.893.462 1.534.462 1.484 0 2.242-.529 2.274-1.585h-1.005c-.033.534-.435.8-1.199.8-.339 0-.619-.064-.841-.192-.222-.128-.333-.315-.333-.56 0-.221.084-.38.255-.478.171-.098.6-.229 1.284-.395.686-.165 1.193-.358 1.525-.579.334-.221.5-.601.5-1.142 0-.516-.206-.944-.617-1.284-.41-.339-.962-.509-1.656-.509m3.7627-1.2334c.498 0 .905.456 1.222 1.366l-2.141 5.663h1.09l1.5-4.429 1.499 4.429h1.089l-2.139-5.663c-.207-.54-.383-.957-.527-1.251-.144-.294-.332-.541-.566-.742-.233-.201-.518-.302-.856-.302-.253 0-.471.026-.652.075v.929c.158-.05.318-.075.481-.075m7.168 1.2334c-1.548 0-2.358.608-2.429 1.825h1.009c.007-.69.478-1.035 1.409-1.035.416 0 .734.086.953.258.217.173.329.389.329.649 0 .256-.108.437-.321.542-.214.104-.654.241-1.321.408-.667.167-1.154.354-1.462.561-.309.206-.463.569-.463 1.088 0 .47.192.858.574 1.166.383.308.895.462 1.536.462 1.484 0 2.242-.529 2.273-1.585h-1.004c-.035.534-.436.8-1.201.8-.338 0-.617-.064-.84-.192-.223-.128-.334-.315-.334-.56 0-.221.086-.38.256-.478.171-.098.6-.229 1.284-.395.685-.165 1.194-.358 1.526-.579.332-.221.5-.601.5-1.142 0-.516-.207-.944-.617-1.284-.41-.339-.965-.509-1.657-.509m5.6416.1226c-.221-.043-.461-.064-.721-.064-.414 0-.715.074-.908.221-.191.148-.31.338-.357.569-.045.231-.069.545-.069.944v3.214h-.699v.789h.699v1.409h1.002v-1.409h.918v-.789h-.918v-3.267c0-.388.051-.634.149-.74.097-.104.232-.157.402-.157.174 0 .342.015.502.043v-.763zm4.7285 3.3892c-.082.544-.266.952-.551 1.222-.283.27-.631.405-1.045.405-.402 0-.746-.134-1.035-.402-.289-.269-.473-.677-.551-1.225h3.182zm-1.484-3.512c-.832 0-1.5.261-2.006.782-.506.521-.758 1.248-.758 2.18 0 .925.244 1.65.734 2.175.489.525 1.129.788 1.918.788.809 0 1.451-.259 1.936-.775.482-.516.722-1.245.722-2.188v-.24h-4.265c.043-.655.224-1.141.543-1.457.318-.317.711-.475 1.176-.475.353 0 .67.09.953.269.283.18.431.435.445.766h1.041c-.078-.583-.342-1.033-.793-1.35-.449-.317-.998-.475-1.646-.475m11.3258.133h-1.01v3.662c0 .469-.066.804-.201 1.003-.137.199-.361.299-.678.299-.488 0-.966-.302-1.435-.907v-4.057h-1.004v3.662c0 .469-.069.804-.203 1.003-.135.199-.364.299-.682.299-.49 0-.967-.302-1.432-.907v-4.057h-1.009v5.663h1.009v-.721c.477.566 1.004.85 1.584.85.831 0 1.358-.342 1.586-1.025.377.444.698.726.961.845.264.12.522.18.774.18 1.16 0 1.74-.697 1.74-2.088v-3.704z"/>
    <path fill="#d2a548" d="M329.8603 262.752c-.08.021-.193.032-.344.032-.285 0-.533-.135-.738-.403v-2.002h-.564v2.831h.564v-.395c.238.307.514.459.826.459.078 0 .164-.006.256-.021v-.501zm.9567-2.373h-.566v2.832h.566v-2.832zm0 3.368h-.566v.544h.566v-.544zm2.8401-2.5541v1.345c-.244.23-.521.344-.834.344-.242 0-.436-.092-.58-.278-.143-.186-.215-.463-.215-.831 0-.349.067-.614.205-.794.135-.181.324-.272.565-.272.314 0 .601.163.859.486m.561-.595c0-.911-.459-1.366-1.381-1.366-.399 0-.713.077-.942.232-.232.155-.345.363-.345.625h.582c0-.311.232-.465.699-.465.264 0 .467.065.609.194.145.128.217.382.217.759v.141c-.252-.271-.555-.405-.906-.405-.416 0-.736.131-.963.394-.227.264-.34.619-.34 1.066 0 .462.127.828.381 1.097.254.27.572.405.957.405.342 0 .633-.095.871-.283v.219h.561v-2.613zm1.398 2.2527c.281.283.598.424.949.424.715 0 1.072-.348 1.072-1.044v-1.852h-.564v1.831c0 .232-.047.398-.139.499-.093.102-.244.153-.457.153-.287 0-.572-.152-.861-.454v-2.029h-.564v3.912h.564v-1.44zm4.0723-2.4771c-.125-.021-.26-.032-.404-.032-.231 0-.401.037-.508.111-.108.074-.174.169-.201.284-.026.116-.039.273-.039.473v1.606h-.391v.395h.391v.705h.562v-.705h.514v-.395h-.514v-1.633c0-.194.028-.317.082-.37.055-.052.131-.078.227-.078.097 0 .191.007.281.021v-.382zm-14.6035-5.7387v1.345c-.244.23-.522.344-.834.344-.24 0-.434-.093-.578-.279-.145-.186-.217-.463-.217-.831 0-.349.067-.613.203-.794.139-.18.326-.271.567-.271.314 0 .601.162.859.486m0-.475c-.252-.271-.555-.405-.906-.405-.414 0-.737.131-.961.394-.229.263-.342.618-.342 1.065 0 .463.127.829.381 1.098.254.27.572.405.957.405.344 0 .633-.095.871-.284v1.3h.56v-3.912h-.56v.339zm1.9591-.3388h-.565v2.831h.565v-2.831zm0 3.368h-.565v.544h.565v-.544zm1.4921-.9317v-2.436h-.562v2.436h-.465v.395h.465v.251c0 .598.296.896.888.896.182 0 .322-.01.42-.032v-.437c-.111.017-.225.026-.34.026-.136 0-.24-.034-.306-.102-.067-.069-.1-.188-.1-.356v-.246h.602v-.395h-.602zm1.7011 0v-2.436h-.562v2.436h-.465v.395h.465v.251c0 .598.296.896.888.896.182 0 .321-.01.42-.032v-.437c-.111.017-.224.026-.34.026-.138 0-.24-.034-.306-.102-.067-.069-.1-.188-.1-.356v-.246h.602v-.395h-.602zm1.6058-2.4363h-.566v2.831h.566v-2.831zm0 3.368h-.566v.544h.566v-.544zm2.1149-3.4346c-.451 0-.81.129-1.08.388-.27.258-.406.623-.406 1.092 0 .472.136.837.406 1.095s.629.387 1.08.387c.346 0 .635-.078.869-.235.231-.157.367-.382.41-.678h-.58c-.008.169-.08.298-.215.387-.132.089-.294.133-.484.133-.27 0-.486-.091-.654-.273-.168-.182-.252-.454-.252-.816 0-.358.084-.629.252-.812.168-.182.384-.273.654-.273.19 0 .352.044.484.133.135.089.207.217.215.385h.58c-.043-.296-.179-.522-.41-.679-.234-.156-.523-.234-.869-.234m3.7832.4268c-.279-.285-.596-.427-.947-.427-.715 0-1.073.349-1.073 1.046v1.852h.565v-1.831c0-.231.047-.397.139-.499.091-.101.242-.152.453-.152.314 0 .603.152.863.454v2.028h.562v-2.831h-.562v.36zm1.9609-.3602h-.565v3.912h.565v-3.912zm2.0626-.006c-.123-.021-.258-.032-.404-.032-.231 0-.401.037-.508.111-.108.074-.174.168-.199.284-.026.116-.039.273-.039.472v1.607h-.393v.394h.393v.705h.562v-.705h.514v-.394h-.514v-1.633c0-.194.027-.318.082-.37.055-.052.129-.079.225-.079.097 0 .191.007.281.022v-.382zm.6484-.6777c.279 0 .508.228.686.683l-1.2 2.831h.61l.84-2.215.839 2.215h.612l-1.201-2.831c-.116-.27-.213-.479-.293-.626-.082-.146-.186-.27-.319-.371-.129-.1-.289-.15-.478-.15-.141 0-.264.012-.366.037v.464c.088-.025.178-.037.27-.037m-182.101 7.2413h-.565v3.912h.565v-3.912zm3.0097 1.6894c-.045.272-.148.476-.308.611-.159.136-.354.203-.586.203-.224 0-.417-.067-.579-.202-.161-.134-.264-.338-.308-.612h1.781zm-.831-1.756c-.466 0-.841.13-1.124.391-.282.261-.424.624-.424 1.09 0 .462.137.825.411 1.087.274.263.632.394 1.074.394.453 0 .814-.129 1.084-.387.27-.257.405-.622.405-1.094v-.12h-2.388c.024-.327.125-.57.304-.729.178-.158.397-.237.658-.237.198 0 .375.045.534.134.158.091.241.218.25.384h.583c-.045-.292-.193-.517-.445-.676-.252-.158-.559-.237-.922-.237m2.7172 2.503v-2.436h-.562v2.436h-.466v.395h.466v.251c0 .598.296.897.888.897.181 0 .322-.011.421-.032v-.438c-.111.018-.225.027-.341.027-.137 0-.239-.035-.306-.103-.067-.068-.1-.187-.1-.356v-.246h.601v-.395h-.601zm2.2715-2.4419c-.123-.021-.258-.032-.404-.032-.231 0-.4.037-.508.111-.108.074-.174.169-.2.284-.026.116-.039.273-.039.473v1.606h-.391v.395h.391v.705h.562v-.705h.514v-.395h-.514v-1.633c0-.194.028-.317.082-.37.055-.052.131-.078.226-.078.098 0 .191.007.281.021v-.382zm-12.7319-5.7387v1.345c-.244.23-.521.344-.834.344-.242 0-.434-.093-.579-.279-.144-.186-.216-.463-.216-.831 0-.349.068-.613.205-.794.136-.18.325-.271.566-.271.315 0 .601.162.858.486m0-.475c-.251-.271-.554-.405-.906-.405-.414 0-.735.131-.963.394-.227.263-.34.618-.34 1.065 0 .463.127.829.381 1.098.254.27.573.405.958.405.343 0 .633-.095.87-.284v1.3h.562v-3.912h-.562v.339zm1.9595-.3388h-.564v2.831h.564v-2.831zm0 3.368h-.564v.544h.564v-.544zm1.4921-.9317v-2.436h-.562v2.436h-.466v.395h.466v.251c0 .598.296.896.888.896.181 0 .321-.01.421-.032v-.437c-.112.017-.225.026-.34.026-.138 0-.24-.034-.307-.102-.067-.069-.1-.188-.1-.356v-.246h.601v-.395h-.601zm1.7002 0v-2.436h-.561v2.436h-.467v.395h.467v.251c0 .598.295.896.887.896.182 0 .322-.01.422-.032v-.437c-.112.017-.225.026-.341.026-.137 0-.24-.034-.306-.102-.067-.069-.101-.188-.101-.356v-.246h.601v-.395h-.601zm1.6047-2.4363h-.564v2.831h.564v-2.831zm0 3.368h-.564v.544h.564v-.544zm2.1165-3.4346c-.45 0-.81.129-1.08.388-.27.258-.405.623-.405 1.092 0 .472.135.837.405 1.095s.63.387 1.08.387c.347 0 .636-.078.869-.235.232-.157.368-.382.411-.678h-.58c-.008.169-.079.298-.214.387-.134.089-.297.133-.486.133-.269 0-.487-.091-.654-.273-.168-.182-.251-.454-.251-.816 0-.358.083-.629.251-.812.167-.182.385-.273.654-.273.189 0 .352.044.486.133.135.089.206.217.214.385h.58c-.043-.296-.179-.522-.411-.679-.233-.156-.522-.234-.869-.234m3.7837.4268c-.281-.285-.596-.427-.947-.427-.715 0-1.074.349-1.074 1.046v1.852h.566v-1.831c0-.231.045-.397.137-.499.091-.101.243-.152.455-.152.314 0 .602.152.863.454v2.028h.562v-2.831h-.562v.36zm1.9608-.3602h-.564v3.912h.564v-3.912zm2.0622-.006c-.124-.021-.258-.032-.403-.032-.231 0-.401.037-.509.111-.108.074-.173.168-.199.284-.027.116-.039.273-.039.472v1.607h-.392v.394h.392v.705h.562v-.705h.513v-.394h-.513v-1.633c0-.194.026-.318.082-.37.054-.052.13-.079.225-.079.098 0 .192.007.281.022v-.382zm.6489-.6777c.279 0 .507.228.684.683l-1.198 2.831h.61l.839-2.215.84 2.215h.61l-1.199-2.831c-.115-.27-.214-.479-.294-.626-.081-.146-.187-.27-.317-.371-.13-.1-.29-.15-.479-.15-.142 0-.264.012-.365.037v.464c.087-.025.177-.037.269-.037m-68.3516 4.2847c-.123-.021-.258-.032-.403-.032-.231 0-.401.037-.509.111-.107.074-.174.168-.199.284-.027.116-.04.273-.04.472v1.607h-.391v.395h.391v.705h.563v-.705h.513v-.395h-.513v-1.633c0-.194.027-.318.081-.37.055-.052.131-.079.226-.079.098 0 .191.007.281.022v-.382zm3.0337 2.8369l-1.198-2.832h-.503l-1.198 2.832h.61l.839-2.215.84 2.215h.61zm3.353-2.8369c-.123-.021-.257-.032-.403-.032-.231 0-.401.037-.508.111-.108.074-.174.168-.201.284-.025.116-.038.273-.038.472v1.607h-.392v.395h.392v.705h.562v-.705h.514v-.395h-.514v-1.633c0-.194.027-.318.082-.37.055-.052.13-.079.226-.079.097 0 .191.007.28.022v-.382zm.649-.6778c.279 0 .507.228.684.683l-1.198 2.832h.61l.84-2.216.839 2.216h.61l-1.198-2.832c-.116-.27-.214-.479-.294-.626-.082-.147-.187-.27-.318-.371-.13-.1-.29-.15-.479-.15-.142 0-.263.012-.365.037v.464c.088-.025.177-.037.269-.037m3.4463 1.3555c.241-.229.518-.344.83-.344.244 0 .437.093.581.279.143.186.215.463.215.831 0 .349-.068.613-.204.794-.135.18-.324.271-.568.271-.312 0-.597-.162-.854-.486v-1.345zm0 1.82c.25.269.553.403.906.403.414 0 .735-.131.962-.393.227-.263.34-.617.34-1.064 0-.464-.127-.831-.38-1.101-.255-.269-.575-.404-.961-.404-.343 0-.632.095-.867.285v-1.307h-.565v3.92h.565v-.339zm5.018-.8029c-.046.272-.148.476-.308.611-.159.135-.355.203-.586.203-.225 0-.418-.067-.58-.202-.161-.134-.264-.338-.307-.612h1.781zm-.83-1.756c-.467 0-.842.13-1.125.391-.282.261-.424.624-.424 1.09 0 .462.137.825.411 1.087.274.263.632.394 1.074.394.453 0 .814-.129 1.084-.387.27-.258.405-.623.405-1.094v-.12h-2.388c.023-.328.125-.57.303-.729.179-.158.398-.237.66-.237.197 0 .374.045.533.134.158.09.241.218.25.383h.582c-.044-.291-.192-.516-.444-.675-.252-.158-.559-.237-.921-.237m4.9038-16.8695c-.45 0-.811.129-1.081.388-.27.259-.404.624-.404 1.093 0 .472.134.836.404 1.094.27.258.631.387 1.081.387.347 0 .636-.078.868-.235.232-.156.369-.382.412-.678h-.58c-.009.169-.08.298-.214.387-.135.089-.297.134-.486.134-.269 0-.487-.091-.654-.274-.168-.182-.251-.454-.251-.815 0-.359.083-.63.251-.812.167-.183.385-.274.654-.274.189 0 .351.044.486.133.134.09.205.217.214.385h.58c-.043-.295-.18-.522-.412-.678-.232-.157-.521-.235-.868-.235m3.0605.395c.269 0 .487.091.655.273.167.183.25.454.25.813 0 .361-.083.633-.25.815-.168.182-.386.274-.655.274s-.487-.092-.654-.274c-.168-.182-.252-.454-.252-.815 0-.359.084-.63.252-.813.167-.182.385-.273.654-.273m0 2.567c.453 0 .813-.129 1.083-.387s.405-.622.405-1.094c0-.469-.135-.834-.405-1.093s-.63-.388-1.083-.388c-.45 0-.811.129-1.081.388-.27.259-.404.624-.404 1.093 0 .472.134.836.404 1.094.27.258.631.387 1.081.387m2.6832-2.8957h-.565v3.913h.565v-3.913zm2.1166.3287c.27 0 .487.091.655.273.167.183.251.454.251.813 0 .361-.084.633-.251.815-.168.182-.385.274-.655.274-.269 0-.487-.092-.654-.274-.168-.182-.251-.454-.251-.815 0-.359.083-.63.251-.813.167-.182.385-.273.654-.273m0 2.567c.453 0 .814-.129 1.084-.387.27-.258.404-.622.404-1.094 0-.469-.134-.834-.404-1.093s-.631-.388-1.084-.388c-.45 0-.811.129-1.08.388-.271.259-.405.624-.405 1.093 0 .472.134.836.405 1.094.269.258.63.387 1.08.387m3.7661-.523c-.08.021-.194.032-.344.032-.287 0-.532-.134-.738-.403v-2.002h-.565v2.832h.565v-.395c.237.306.512.459.825.459.08 0 .165-.007.257-.022v-.501zm-11.3686-15.7051c.241-.23.518-.344.831-.344.243 0 .437.093.58.279.143.186.215.463.215.831 0 .349-.067.613-.203.794-.136.181-.325.271-.568.271-.313 0-.598-.162-.855-.486v-1.345zm0 1.82c.251.269.553.403.905.403.415 0 .736-.131.963-.393.227-.263.341-.617.341-1.064 0-.464-.127-.831-.381-1.101-.254-.269-.575-.404-.961-.404-.343 0-.632.095-.867.285v-.218h-.565v3.912h.565v-1.42zm3.5809-2.4926h-.613v.547h.613v-.547zm4.9313 2.8318l-.954-2.832h-.538l-.687 2.082-.684-2.082h-.538l-.957 2.832h.625l.583-2.159.714 2.159h.514l.717-2.159.583 2.159h.622zm41.5732-2.1592c.241-.23.518-.344.831-.344.243 0 .437.093.58.279.143.186.215.463.215.831 0 .349-.067.613-.203.794-.136.181-.325.271-.569.271-.312 0-.597-.162-.854-.486v-1.345zm0 1.82c.251.269.553.403.906.403.414 0 .735-.131.962-.393.227-.263.341-.617.341-1.064 0-.464-.127-.831-.381-1.101-.254-.269-.575-.404-.961-.404-.343 0-.632.095-.867.285v-.218h-.565v3.912h.565v-1.42zm171.7031-1.82c.242-.23.518-.344.832-.344.242 0 .436.093.578.279.145.186.217.463.217.831 0 .349-.068.613-.203.794-.137.181-.326.271-.569.271-.312 0-.597-.162-.855-.486v-1.345zm0 1.82c.252.269.553.403.906.403.414 0 .737-.131.961-.393.229-.263.342-.617.342-1.064 0-.464-.127-.831-.381-1.101-.254-.269-.574-.404-.961-.404-.344 0-.631.095-.867.285v-.218h-.564v3.912h.564v-1.42zm-170.2592 12.2571v.628h-.386c-.817 0-1.225-.199-1.225-.596 0-.144.06-.255.179-.332.12-.077.281-.116.484-.116.186 0 .365.037.539.112.173.075.309.176.409.304m0-.454c-.287-.238-.657-.357-1.108-.357-.316 0-.575.076-.778.228-.203.152-.305.349-.305.588 0 .662.639.993 1.916.993h.275c0 .203-.012.35-.036.441-.024.092-.091.168-.2.229-.11.061-.284.091-.523.091-.502 0-.761-.16-.777-.481h-.562c.041.582.498.873 1.369.873.406 0 .723-.072.95-.216.227-.144.341-.427.341-.849v-1.831h-.562v.291zm171.7026.454v.628h-.385c-.816 0-1.226-.199-1.226-.596 0-.144.06-.255.181-.332.119-.077.28-.116.483-.116.185 0 .365.037.539.112.172.075.31.176.408.304m0-.454c-.287-.238-.656-.357-1.107-.357-.317 0-.575.076-.778.228-.205.152-.306.349-.306.588 0 .662.64.993 1.918.993h.273c0 .203-.012.35-.035.441-.024.092-.092.168-.201.229-.11.061-.284.091-.522.091-.502 0-.762-.16-.777-.481h-.563c.043.582.498.873 1.369.873.407 0 .725-.072.95-.216.228-.144.341-.427.341-.849v-1.831h-.562v.291z"/>
    <path fill="#862330" d="M49.9579 258.1001c.241-.229.518-.344.831-.344.243 0 .436.093.58.279.143.186.215.463.215.831 0 .349-.067.613-.203.794-.136.18-.325.271-.568.271-.313 0-.598-.162-.855-.486v-1.345zm0 1.82c.251.269.553.403.906.403.414 0 .735-.131.962-.393.227-.263.34-.617.34-1.064 0-.464-.126-.831-.38-1.101-.254-.269-.575-.404-.961-.404-.343 0-.632.095-.867.285v-1.307h-.565v3.92h.565v-.339zm4.125-2.1642c.269 0 .487.091.654.273.168.183.251.454.251.813 0 .362-.083.633-.251.815-.167.182-.385.274-.654.274-.27 0-.488-.092-.655-.274-.167-.182-.251-.453-.251-.815 0-.359.084-.63.251-.813.167-.182.385-.273.655-.273m0 2.567c.452 0 .813-.129 1.083-.387s.405-.622.405-1.094c0-.47-.135-.834-.405-1.093s-.631-.388-1.083-.388c-.451 0-.811.129-1.081.388-.27.259-.404.623-.404 1.093 0 .472.134.836.404 1.094.27.258.63.387 1.081.387m6.0908-.0636l-.954-2.832h-.537l-.688 2.081-.684-2.081h-.538l-.957 2.832h.625l.583-2.159.714 2.159h.515l.717-2.159.583 2.159h.621zm2.627-1.1421c-.045.272-.148.476-.308.611-.159.135-.354.203-.585.203-.225 0-.418-.067-.58-.202-.161-.134-.264-.338-.308-.612h1.781zm-.831-1.756c-.466 0-.84.13-1.123.391-.283.261-.424.624-.424 1.09 0 .462.137.825.41 1.087.274.263.633.394 1.075.394.452 0 .813-.129 1.083-.387s.405-.623.405-1.094v-.12h-2.388c.024-.328.125-.57.304-.729.178-.158.398-.237.658-.237.198 0 .376.045.534.134.158.09.241.218.25.383h.583c-.045-.291-.192-.516-.444-.675-.252-.158-.56-.237-.923-.237m3.7036 2.4391c-.079.021-.194.032-.344.032-.287 0-.532-.134-.738-.403v-2.002h-.564v2.832h.564v-.395c.237.306.512.459.825.459.08 0 .165-.007.257-.022v-.501zm4.4028-18.9136c.27 0 .488.091.655.273.167.183.251.454.251.813 0 .361-.084.633-.251.815-.167.182-.385.274-.655.274-.269 0-.486-.092-.654-.274-.168-.182-.251-.454-.251-.815 0-.359.083-.63.251-.813.168-.182.385-.273.654-.273m0 2.567c.453 0 .814-.129 1.084-.387.27-.258.405-.622.405-1.094 0-.469-.135-.834-.405-1.093s-.631-.388-1.084-.388c-.45 0-.81.129-1.08.388s-.405.624-.405 1.093c0 .472.135.836.405 1.094.27.258.63.387 1.08.387m2.6841-.4239c.281.282.598.424.948.424.715 0 1.073-.348 1.073-1.044v-1.852h-.565v1.831c0 .231-.047.398-.139.499-.093.102-.244.152-.456.152-.286 0-.574-.151-.861-.453v-2.029h-.564v2.832h.564v-.36zm-2.6822-16.1484c.269 0 .487.092.654.274.168.182.252.453.252.812 0 .362-.084.633-.252.815-.167.183-.385.274-.654.274s-.487-.091-.655-.274c-.167-.182-.25-.453-.25-.815 0-.359.083-.63.25-.812.168-.182.386-.274.655-.274m0 2.567c.452 0 .814-.129 1.084-.387.27-.257.405-.622.405-1.094 0-.469-.135-.834-.405-1.092-.27-.259-.632-.389-1.084-.389-.45 0-.81.13-1.08.389-.27.258-.405.623-.405 1.092 0 .472.135.837.405 1.094.27.258.63.387 1.08.387m2.7798-.4586v-2.437h-.562v2.437h-.466v.395h.466v.251c0 .598.296.896.888.896.181 0 .321-.01.421-.031v-.438c-.112.018-.225.027-.341.027-.137 0-.239-.035-.306-.103-.067-.069-.1-.188-.1-.356v-.246h.601v-.395h-.601zm1.7007 0v-2.437h-.562v2.437h-.466v.395h.466v.251c0 .598.296.896.888.896.181 0 .321-.01.421-.031v-.438c-.112.018-.225.027-.341.027-.137 0-.24-.035-.306-.103-.067-.069-.1-.188-.1-.356v-.246h.601v-.395h-.601z"/>
    <path fill="#d2a548" d="M380.915 261.1929v1.345c-.244.23-.521.344-.834.344-.242 0-.434-.092-.578-.278-.145-.186-.219-.463-.219-.831 0-.349.07-.614.205-.794.137-.181.326-.272.569-.272.314 0 .599.163.857.486m.561-.595c0-.911-.459-1.366-1.379-1.366-.401 0-.713.077-.946.232-.228.155-.343.363-.343.625h.582c0-.311.234-.465.699-.465.264 0 .467.065.609.194.145.128.217.382.217.759v.141c-.252-.271-.553-.405-.906-.405-.414 0-.737.131-.963.394-.227.264-.34.619-.34 1.066 0 .462.127.828.381 1.097.254.27.572.405.959.405.342 0 .631-.095.869-.283v.219h.561v-2.613zm2.8433.5261v.627h-.387c-.816 0-1.224-.199-1.224-.595 0-.144.058-.255.177-.332.122-.078.284-.117.487-.117.185 0 .363.038.537.112.174.075.308.177.41.305m0-.454c-.287-.238-.658-.357-1.109-.357-.315 0-.575.076-.778.228-.203.152-.304.348-.304.588 0 .662.638.993 1.916.993h.275c0 .203-.012.35-.037.442-.024.091-.09.168-.199.228-.11.06-.284.09-.524.09-.502 0-.761-.16-.777-.48h-.563c.043.581.498.872 1.37.872.406 0 .724-.072.951-.215.228-.144.34-.428.34-.849v-1.831h-.561v.291zm5.6816-.2911h-.565v1.831c0 .234-.039.402-.115.501-.076.1-.201.15-.379.15-.273 0-.541-.151-.804-.454v-2.028h-.561v1.831c0 .234-.039.402-.113.501-.076.1-.203.15-.383.15-.273 0-.541-.151-.803-.454v-2.028h-.564v2.832h.564v-.36c.268.282.565.424.889.424.465 0 .76-.171.887-.513.213.222.392.364.539.423.148.06.291.09.433.09.649 0 .975-.348.975-1.044v-1.852zm2.9922 1.6895c-.047.272-.148.476-.309.611-.16.136-.355.203-.586.203-.224 0-.417-.067-.58-.202-.16-.134-.263-.338-.308-.612h1.783zm-.832-1.756c-.465 0-.84.13-1.123.391-.283.261-.424.624-.424 1.09 0 .462.137.825.41 1.087.274.263.633.394 1.074.394.454 0 .815-.129 1.084-.387.27-.257.405-.622.405-1.094v-.12h-2.389c.025-.327.125-.57.305-.729.178-.158.398-.237.658-.237.197 0 .375.045.533.134.16.091.242.218.25.384h.584c-.045-.292-.193-.517-.445-.676-.252-.158-.559-.237-.922-.237m-12.4805-6.558c-.865 0-1.318.304-1.359.913h.564c.004-.346.268-.518.789-.518.235 0 .412.042.535.129.121.086.182.194.182.324 0 .129-.059.218-.178.271-.119.052-.367.121-.74.204-.373.084-.646.178-.818.281-.174.103-.258.284-.258.544 0 .235.105.429.32.583.215.154.5.231.86.231.83 0 1.253-.264 1.273-.793h-.563c-.019.267-.244.4-.671.4-.19 0-.346-.031-.471-.096-.125-.064-.188-.157-.188-.28 0-.11.049-.19.143-.239.098-.049.336-.115.721-.197.382-.083.668-.179.855-.289.184-.111.277-.301.277-.572 0-.257-.113-.472-.343-.642-.231-.169-.541-.254-.93-.254m4.1074 1.7554c-.047.272-.148.476-.307.611-.16.136-.355.203-.586.203-.226 0-.419-.067-.58-.201-.162-.134-.263-.339-.308-.613h1.781zm-.832-1.755c-.465 0-.84.129-1.123.39-.281.261-.424.624-.424 1.09 0 .463.137.825.41 1.088.274.262.633.394 1.076.394.452 0 .813-.129 1.082-.388.272-.258.405-.622.405-1.094v-.12h-2.387c.023-.327.125-.57.303-.728.179-.159.398-.238.658-.238.199 0 .377.045.535.135.158.09.24.218.25.383h.582c-.043-.292-.191-.517-.443-.676-.252-.157-.561-.236-.924-.236m2.623.0662h-.566v3.912h.566v-3.912zm3.0098 1.6888c-.045.272-.149.476-.309.611-.16.136-.355.203-.586.203-.224 0-.418-.067-.58-.201-.16-.134-.263-.339-.306-.613h1.781zm-.832-1.755c-.465 0-.842.129-1.123.39-.283.261-.424.624-.424 1.09 0 .463.135.825.41 1.088.276.262.631.394 1.074.394.452 0 .813-.129 1.082-.388.272-.258.407-.622.407-1.094v-.12h-2.389c.025-.327.127-.57.305-.728.177-.159.396-.238.658-.238.197 0 .375.045.533.135.16.09.242.218.25.383h.582c-.043-.292-.191-.517-.443-.676-.252-.157-.559-.236-.922-.236m3.3418-.0004c-.449 0-.811.129-1.08.388-.27.258-.406.623-.406 1.092 0 .472.136.837.406 1.095.269.258.631.387 1.08.387.346 0 .637-.078.869-.235.231-.157.369-.382.41-.678h-.58c-.008.169-.08.298-.213.387-.134.089-.297.133-.486.133-.27 0-.486-.091-.654-.273-.168-.182-.252-.454-.252-.816 0-.358.084-.629.252-.812.168-.182.384-.273.654-.273.189 0 .352.044.486.133.133.089.205.217.213.385h.58c-.041-.296-.179-.522-.41-.679-.232-.156-.523-.234-.869-.234m3.0058.061c-.123-.021-.258-.032-.402-.032-.233 0-.401.037-.51.111-.106.074-.172.168-.199.284-.026.116-.039.273-.039.472v1.607h-.393v.394h.393v.705h.562v-.705h.514v-.394h-.514v-1.633c0-.194.028-.318.082-.37.055-.052.131-.079.225-.079.099 0 .193.007.281.022v-.382zm36.2266 7.3775v1.345c-.242.23-.522.344-.834.344-.242 0-.436-.092-.578-.278-.145-.186-.217-.463-.217-.831 0-.349.068-.614.205-.794.135-.181.324-.272.567-.272.314 0 .599.163.857.486m.562-.595c0-.911-.46-1.366-1.382-1.366-.399 0-.713.077-.942.232-.23.155-.345.363-.345.625h.584c0-.311.232-.465.697-.465.264 0 .467.065.609.194.145.128.217.382.217.759v.141c-.252-.271-.553-.405-.906-.405-.414 0-.735.131-.963.394-.227.264-.34.619-.34 1.066 0 .462.127.828.381 1.097.254.27.572.405.957.405.344 0 .633-.095.871-.283v.219h.562v-2.613zm2.8423.5261v.627h-.387c-.816 0-1.224-.199-1.224-.595 0-.144.06-.255.179-.332.12-.078.28-.117.483-.117.187 0 .365.038.539.112.172.075.31.177.41.305m0-.454c-.287-.238-.656-.357-1.109-.357-.315 0-.575.076-.778.228-.203.152-.304.348-.304.588 0 .662.638.993 1.916.993h.275c0 .203-.014.35-.035.442-.026.091-.092.168-.203.228-.108.06-.283.09-.522.09-.502 0-.76-.16-.777-.48h-.563c.043.581.498.872 1.37.872.406 0 .724-.072.951-.215.226-.144.34-.428.34-.849v-1.831h-.561v.291zm5.6816-.2911h-.566v1.831c0 .234-.037.402-.114.501-.074.1-.201.15-.379.15-.271 0-.541-.151-.804-.454v-2.028h-.561v1.831c0 .234-.039.402-.113.501-.076.1-.205.15-.383.15-.273 0-.541-.151-.801-.454v-2.028h-.566v2.832h.566v-.36c.266.282.563.424.887.424.465 0 .762-.171.889-.513.209.222.39.364.537.423.148.06.291.09.433.09.651 0 .975-.348.975-1.044v-1.852zm2.9922 1.6895c-.047.272-.15.476-.309.611-.158.136-.355.203-.586.203-.224 0-.417-.067-.578-.202-.164-.134-.265-.338-.308-.612h1.781zm-.832-1.756c-.467 0-.84.13-1.123.391-.283.261-.424.624-.424 1.09 0 .462.137.825.41 1.087.274.263.633.394 1.074.394.454 0 .815-.129 1.084-.387.27-.257.405-.622.405-1.094v-.12h-2.387c.023-.327.125-.57.303-.729.178-.158.398-.237.658-.237.197 0 .377.045.533.134.158.091.242.218.25.384h.584c-.045-.292-.193-.517-.445-.676-.25-.158-.559-.237-.922-.237m-10.7559-4.119c-.082.021-.195.032-.346.032-.285 0-.531-.135-.736-.403v-2.002h-.566v2.831h.566v-.394c.236.306.512.459.824.459.08 0 .166-.007.258-.022v-.501zm2.5703-.6836c-.047.272-.148.476-.309.611-.16.136-.355.203-.586.203-.224 0-.417-.067-.58-.201-.16-.134-.263-.339-.306-.613h1.781zm-.83-1.755c-.469 0-.844.129-1.125.39-.283.261-.424.624-.424 1.09 0 .463.135.825.41 1.088.274.262.631.394 1.074.394.452 0 .815-.129 1.085-.388.269-.258.404-.622.404-1.094v-.12h-2.389c.025-.327.125-.57.303-.728.18-.159.398-.238.662-.238.195 0 .373.045.531.135.16.09.242.218.25.383h.582c-.043-.292-.191-.517-.443-.676-.252-.157-.559-.236-.92-.236m3.1874-.0004c-.867 0-1.32.304-1.359.913h.564c.004-.346.268-.518.789-.518.233 0 .41.042.533.129.123.086.184.194.184.324 0 .129-.059.218-.18.271-.119.052-.365.121-.738.204-.375.084-.646.178-.82.281-.172.103-.258.284-.258.544 0 .235.107.429.322.583.213.154.5.231.86.231.83 0 1.253-.264 1.271-.793h-.56c-.02.267-.245.4-.672.4-.192 0-.348-.031-.473-.096-.125-.064-.188-.157-.188-.28 0-.11.049-.19.145-.239.096-.049.336-.115.721-.197.382-.083.668-.179.853-.289.186-.111.279-.301.279-.572 0-.257-.115-.472-.345-.642-.229-.169-.539-.254-.928-.254m4.1075 1.7554c-.047.272-.15.476-.309.611-.158.136-.353.203-.586.203-.224 0-.417-.067-.58-.201-.162-.134-.263-.339-.306-.613h1.781zm-.832-1.755c-.467 0-.84.129-1.123.39-.283.261-.426.624-.426 1.09 0 .463.139.825.412 1.088.274.262.631.394 1.074.394.454 0 .815-.129 1.084-.388.27-.258.405-.622.405-1.094v-.12h-2.389c.025-.327.127-.57.305-.728.178-.159.398-.238.658-.238.197 0 .375.045.533.135.158.09.242.218.25.383h.584c-.045-.292-.193-.517-.443-.676-.254-.157-.561-.236-.924-.236m3.287.0606c-.123-.021-.256-.032-.402-.032-.231 0-.401.037-.508.111-.11.074-.176.168-.201.284-.026.116-.039.273-.039.472v1.607h-.391v.394h.391v.705h.562v-.705h.516v-.394h-.516v-1.633c0-.194.028-.318.082-.37.057-.052.131-.079.227-.079.097 0 .191.007.279.022v-.382z"/>
    <path fill="#d2a548" fill-rule="evenodd" d="M396.622 231.5181h4.385l-2.194-5.978-2.191 5.978zm4.385 11.7089h-4.385v.911h4.385v-.911zm-4.385-2.467h4.385v1.024h-4.385v-1.024zm4.385-2.543h-4.385v.873h4.385v-.873zm-4.385-4.327h4.385v.948h-4.385v-.948zm4.385-1.67h-4.385v.835h4.385v-.835zm47.5349-.7019h4.385l-2.192-5.978-2.193 5.978zm4.3851 11.7089h-4.385v.911h4.385v-.911zm-4.385-2.467h4.385v1.024h-4.385v-1.024zm4.385-2.543h-4.385v.873h4.385v-.873zm-4.385-4.327h4.385v.948h-4.385v-.948zm4.385-1.67h-4.385v.835h4.385v-.835z"/>
    <path fill="#fff" fill-rule="evenodd" d="M446.9872 29.377c-1.391-.044-2.744.095-4.051.423-1.314.331-2.527.791-3.596 1.42-.476.281-.953.563-1.384.875-.852.618-1.573 1.305-2.186 2.047-.631.763-1.14 1.56-1.519 2.399-.332.737-.616 1.482-.709 2.254-.08.659-.174 1.319-.178 1.979-.02 2.736-.01 5.473-.01 8.208v.261h2.323v-.235c0-2.019-.022-4.038.013-6.056.014-.64.18-1.281.291-1.921.133-.776.473-1.516.858-2.248.591-1.12 1.359-2.177 2.461-3.1.605-.505 1.218-1.014 1.925-1.448 1.6-.98 3.428-1.679 5.561-1.948.068-.009.133-.026.201-.04v-2.87zm-14.7322.058h-3.484v19.863h3.484V29.435zm-14.4397-2.7074c-.016 0-.029.002-.041.003-.326-.999-.652-1.995-.98-2.998h1.908c-.299 1.009-.594 2.002-.887 2.995m-4.693-5.75c.238.498.484.995.717 1.496.275.603.539 1.206.81 1.809.486 1.082.971 2.165 1.469 3.243.189.407.523.737 1.154.881.551.124 1.533-.005 1.951-.557.256-.336.432-.705.602-1.068.289-.615.543-1.236.814-1.852.547-1.247 1.098-2.496 1.647-3.742.041-.09.08-.182.123-.285h-2.471c-.172.414-.34.836-.527 1.252-.024.053-.137.126-.209.126-.996.008-1.994.006-3.002.006-.188-.421-.385-.83-.553-1.246-.049-.124-.133-.15-.297-.148-.742.003-1.486.002-2.228.002v.083zm31.4197 7.3434h2.445v-7.47h-2.445v7.47zm-30.4415 1.056c0 .935-.004 1.835.008 2.735 0 .058.107.159.183.168 1.102.135 2.145.391 3.106.777.765.307 1.508.653 2.197 1.034 1.193.66 2.182 1.461 2.998 2.353.668.731 1.258 1.491 1.643 2.313.351.756.642 1.529.91 2.303.127.367.187.754.193 1.13.037 2.305.049 4.608.071 6.913v.138h2.322v-.248c0-2.988.015-5.977-.014-8.967-.006-.589-.168-1.182-.287-1.771-.156-.766-.463-1.504-.85-2.229-.611-1.146-1.406-2.223-2.531-3.171-.517-.435-1.051-.87-1.642-1.254-1.151-.75-2.479-1.321-3.959-1.72-1.305-.353-2.651-.533-4.051-.504-.09.001-.178 0-.297 0m24.6328-2.4893v-5.977h-2.322v.239c0 2.038.021 4.078-.014 6.117-.01.463.758 1.055 1.527 1.055.745 0 1.489.015 2.231-.003 1.428-.036 2.766-.652 3.182-1.624.326-.767-.106-1.647-1.071-2.088-.289-.131-.586-.254-.898-.39.926-1.083 1.869-2.183 2.83-3.303-.096-.008-.16-.018-.223-.019-.795 0-1.59-.004-2.383.004-.089 0-.22.038-.259.086-.77.976-1.524 1.955-2.289 2.931-.582.743-.11 1.091.81 1.37.309.093.619.203.873.35.492.283.383.602.086.882-.264.251-.605.419-1.109.374-.307-.027-.625-.004-.971-.004m-7.2207-.168c-.018 0-.033.001-.051.001-.324-.995-.648-1.987-.976-2.99h1.91c-.297 1.006-.59 1.997-.883 2.989m4.59-5.817h-2.471c-.172.416-.342.837-.527 1.254-.024.052-.139.124-.211.124-.998.007-1.994.006-2.998.006-.193-.429-.377-.849-.58-1.265-.024-.054-.139-.121-.213-.123-.754-.008-1.506-.004-2.299-.004.213.467.418.916.621 1.365.672 1.486 1.342 2.975 2.018 4.461.164.358.32.724.545 1.065.527.803 1.824.846 2.67.313.375-.236.545-.57.689-.902.33-.756.654-1.513.986-2.268.547-1.249 1.098-2.496 1.649-3.742.039-.091.078-.183.121-.284m-12.7169.0055v5.97h-2.109v1.428h6.556v-1.414h-2.043v-5.984h-2.404z"/>
  </g>
</svg>
