<svg xmlns="http://www.w3.org/2000/svg" width="200.0092" height="200">
  <defs>
    <clipPath id="a">
      <path d="M0 236.982h236.993V0H0v236.982z"/>
    </clipPath>
  </defs>
  <g clip-path="url(#a)" transform="matrix(0.84394595,0,0,-0.84394595,-8.4394595e-5,200)">
    <path fill="#1d1d1d" d="M230.2041 26.2686c0-11.19-9.044-20.302-20.158-20.302h-183.1c-11.113 0-20.146 9.112-20.146 20.302v184.435c0 11.191 9.033 20.301 20.146 20.301h183.1c11.114 0 20.158-9.11 20.158-20.301V26.2686zm-15.483 210.714H22.2821c-12.286 0-22.282-9.996-22.282-22.272V22.2716c0-12.285 9.996-22.272 22.282-22.272h192.439c12.275 0 22.272 9.987 22.272 22.272v192.439c0 12.276-9.997 22.272-22.272 22.272"/>
    <path fill="#0c0d0d" d="M230.2041 210.7032V26.2682c0-11.19-9.044-20.301-20.158-20.301h-183.1c-11.113 0-20.146 9.111-20.146 20.301v184.435c0 11.191 9.033 20.302 20.146 20.302h183.1c11.114 0 20.158-9.111 20.158-20.302"/>
    <path fill="#040505" d="M210.1445 105.0625c0-50.622-41.028-91.649-91.648-91.649-50.621 0-91.649 41.027-91.649 91.649 0 18.023 5.212 34.841 14.201 49.02l-22.03 22.568c-3.843 5.157-6.12 11.553-6.12 18.473 0 17.081 13.84 30.921 30.922 30.921 9.35 0 17.716-4.15 23.377-10.688v-.01l21.537-23.574c9.33 3.197 19.338 4.938 29.762 4.938 50.62 0 91.648-41.029 91.648-91.648"/>
    <path fill="#121312" d="M188.4316 106.3203c0-38.629-31.316-69.934-69.936-69.934-38.619 0-69.935 31.305-69.935 69.934 0 38.62 31.316 69.925 69.935 69.925 38.62 0 69.936-31.305 69.936-69.925"/>
    <path fill="#121312" d="M118.4961 71.7862c-19.062 0-34.523 15.461-34.523 34.534 0 19.064 15.461 34.525 34.523 34.525 19.074 0 34.525-15.461 34.525-34.525 0-19.073-15.451-34.534-34.525-34.534m0 83.479c-27.035 0-48.944-21.92-48.944-48.945 0-27.034 21.909-48.944 48.944-48.944 27.035 0 48.945 21.91 48.945 48.944 0 27.025-21.91 48.945-48.945 48.945"/>
    <path fill="#040405" d="M153.0215 106.3203c0-19.073-15.451-34.534-34.525-34.534-19.063 0-34.524 15.461-34.524 34.534 0 19.064 15.461 34.525 34.524 34.525 19.074 0 34.525-15.461 34.525-34.525"/>
    <path fill="#040405" d="M118.4961 57.376c-27.035 0-48.944 21.91-48.944 48.944 0 27.025 21.909 48.946 48.944 48.946 27.035 0 48.945-21.921 48.945-48.946 0-27.034-21.91-48.944-48.945-48.944m0 109.561c-33.483 0-60.628-27.144-60.628-60.617 0-33.484 27.145-60.628 60.628-60.628 33.484 0 60.629 27.144 60.629 60.628 0 33.473-27.145 60.617-60.629 60.617"/>
    <path fill="#5d5d5d" d="M118.4961 36.3868c-38.619 0-69.936 31.305-69.936 69.934 0 38.62 31.317 69.924 69.936 69.924 38.619 0 69.936-31.304 69.936-69.924 0-38.629-31.317-69.934-69.936-69.934m0 142.049c-39.834 0-72.125-32.29-72.125-72.115 0-39.834 32.291-72.124 72.125-72.124 39.836 0 72.125 32.29 72.125 72.124 0 39.825-32.289 72.115-72.125 72.115"/>
    <path fill="#911a21" d="M43.5468 175.3252c-11.093 0-20.071 8.98-20.071 20.071 0 11.092 8.978 20.071 20.071 20.071 11.092 0 20.07-8.979 20.07-20.071 0-11.091-8.978-20.071-20.07-20.071m0 41.697c-11.947 0-21.626-9.679-21.626-21.626 0-11.946 9.679-21.626 21.626-21.626 11.945 0 21.625 9.68 21.625 21.626 0 11.947-9.68 21.626-21.625 21.626"/>
    <path fill="#bb2127" d="M63.6172 195.3965c0-11.092-8.979-20.071-20.07-20.071-11.093 0-20.072 8.979-20.072 20.071 0 11.092 8.979 20.07 20.072 20.07 11.091 0 20.07-8.978 20.07-20.07"/>
    <path fill="#171818" d="M140.3086 95.1641l-21.812-14.837-21.811 13.763v25.523l21.932 12.692 21.691-12.692v-24.449zm-21.67 39.921l-24.275-14.059v-28.238l24.133-15.243 24.132 16.426v27.055l-23.99 14.059z"/>
    <path fill="#2f2f2f" d="M140.3086 119.6133v-24.449l-21.812-14.837-21.811 13.763v25.523l21.932 12.691 21.691-12.691z"/>
    <path fill="#e57225" d="M146.3418 187.0313l-1.741-4.611c-2.748.931-5.573 1.709-8.453 2.322l.712 4.894c3.24-.678 6.406-1.555 9.482-2.605m13.8515-6.1436l-2.398-4.314c-2.53 1.414-5.135 2.695-7.83 3.81l1.73 4.621c2.924-1.216 5.76-2.596 8.498-4.117m12.9092-8.8242l-3.482-3.526c-2.222 1.828-4.544 3.526-6.954 5.101l2.759 4.074c2.672-1.73 5.235-3.624 7.677-5.649m10.6104-10.5127l-3.789-3.164c-1.785 2.112-3.679 4.127-5.672 6.044l3.525 3.439c2.082-1.994 4.063-4.106 5.936-6.319m8.0254-11.2461l-4.424-2.2c-1.247 2.081-2.595 4.095-4.04 6.045l3.888 3.033c1.641-2.213 3.174-4.5 4.576-6.878m6.3066-12.9189l-4.664-1.589c-.93 2.388-1.96 4.709-3.109 6.977l4.379 2.264c1.259-2.484 2.386-5.036 3.394-7.652m3.8008-12.8008l-4.862-.844c-.46 2.18-1.018 4.315-1.664 6.417l4.641 1.719c.735-2.387 1.369-4.817 1.885-7.292m-.0674-35.4766c-.536-2.529-1.193-5.004-1.947-7.434l-4.622 1.773c.678 2.179 1.259 4.402 1.741 6.657l4.828-.996zm-3.8428-12.8115c-1.029-2.628-2.179-5.2-3.448-7.697l-4.238 2.562c1.127 2.222 2.146 4.511 3.067 6.854l4.619-1.719zm-6.3603-12.9092c-1.392-2.321-2.902-4.567-4.512-6.724l-3.689 3.296c1.411 1.916 2.736 3.899 3.963 5.947l4.238-2.519zm-7.9619-11.0703c-1.948-2.311-4.018-4.5-6.208-6.569l-3.251 3.7c1.916 1.829 3.733 3.756 5.451 5.76l4.008-2.891zm-10.5547-10.4355c-2.551-2.112-5.223-4.073-8.016-5.88l-2.244 4.413c2.409 1.588 4.731 3.296 6.953 5.124l3.307-3.657zm-12.7344-8.7159c-2.737-1.544-5.585-2.934-8.508-4.149l-1.752 4.598c2.639 1.117 5.201 2.365 7.687 3.745l2.573-4.194zm-13.9287-6.208c-2.944-1.007-5.956-1.85-9.044-2.518l-.908 4.839c2.791.613 5.517 1.38 8.189 2.278l1.763-4.599zm-44.2041 2.2559l-.887-4.852c-3.109.669-6.153 1.512-9.12 2.508l1.741 4.611c2.694-.898 5.453-1.654 8.266-2.267m-13.752 4.3369l-1.74-4.61c-2.924 1.204-5.76 2.584-8.497 4.106l2.616 4.182c2.464-1.358 5.004-2.583 7.621-3.678M75.7929 40.251l-2.574-4.216c-2.758 1.795-5.408 3.745-7.926 5.836l3.316 3.648c2.289-1.884 4.688-3.648 7.184-5.268M64.416 49.2285l-3.383-3.579c-2.178 2.059-4.238 4.238-6.187 6.526l3.865 3.044c1.797-2.091 3.701-4.095 5.705-5.991m-9.3184 10.5459l-3.931-2.957c-1.554 2.081-3 4.237-4.335 6.461l4.258 2.463c1.249-2.047 2.584-4.04 4.008-5.967m-6.8867 11.1358l-4.227-2.551c-1.293 2.496-2.453 5.07-3.493 7.697l4.632 1.697c.92-2.343 1.949-4.621 3.088-6.843M43.0527 83.711l-4.555-1.993c-.755 2.43-1.412 4.915-1.948 7.444l4.86.821c.46-2.123.997-4.214 1.643-6.272m-.0098 46.5244c-.68-2.18-1.248-4.392-1.72-6.646l-4.84.908c.494 2.42 1.106 4.797 1.83 7.128l4.73-1.39zm5.0362 12.5596c-1.116-2.201-2.134-4.469-3.044-6.79l-4.653 1.621c.974 2.508 2.069 4.961 3.273 7.348l4.424-2.179zm6.833 11.1455c-1.369-1.861-2.66-3.787-3.854-5.759l-4.282 2.432c1.347 2.243 2.803 4.423 4.358 6.513l3.778-3.186zm9.4931 10.7861c-1.981-1.873-3.854-3.844-5.628-5.913l-3.898 3.033c1.927 2.268 3.975 4.412 6.133 6.46l3.393-3.58zm11.4092 9.0117c-2.42-1.566-4.741-3.275-6.963-5.093l-3.274 3.692c2.43 2.004 4.981 3.875 7.641 5.584l2.596-4.183zm12.7569 6.7344c-2.607-1.085-5.146-2.3-7.6-3.648l-2.518 4.239c2.606 1.434 5.3 2.737 8.07 3.897l2.048-4.488zm13.5986 4.2695c-2.803-.603-5.539-1.347-8.211-2.255l-1.971 4.544c2.945 1.008 5.979 1.85 9.065 2.507l1.117-4.796z"/>
    <path fill="#e16f26" d="M114.5713 189.5616h-2.817v-4.398h-1.131v4.398h-2.793v.592h6.741v-.592zm4.8896-3.918c.85 0 1.549.177 2.094.531.542.354.814.848.814 1.485 0 .634-.269 1.129-.812 1.482-.543.354-1.235.531-2.075.531-.854 0-1.555-.177-2.104-.531-.548-.353-.821-.848-.821-1.482 0-.633.273-1.128.819-1.484.546-.355 1.241-.532 2.085-.532m.011 4.596c1.192 0 2.169-.237 2.927-.708.757-.473 1.137-1.098 1.137-1.872 0-.777-.38-1.401-1.137-1.873-.758-.472-1.735-.708-2.927-.708-1.196 0-2.175.238-2.939.71-.761.472-1.144 1.096-1.144 1.871 0 .774.383 1.399 1.144 1.872.764.471 1.743.708 2.939.708m6.6882-2.4905h2.156c.724 0 1.239.081 1.547.24.308.158.462.388.462.688 0 .2-.086.377-.256.53-.171.154-.386.251-.646.292-.263.042-.638.062-1.13.062h-2.133v-1.812zm-1.125 2.404h3.176c.696 0 1.281-.039 1.75-.113.472-.077.844-.242 1.119-.494.275-.254.412-.536.412-.849 0-.505-.273-.887-.82-1.147-.545-.261-1.334-.392-2.369-.392h-2.143v-1.994h-1.125v4.989zm-88.4687-71.6619l3.648-.518-.546-8.03h-11.224v1.188l7.71 2.828.412 4.532zm0-23.1933l3.648.519-.546 8.029h-11.224v-1.187l7.71-2.828.412-4.533zm164.956-.0606l-3.65.519.547 8.027h11.225v-1.185l-7.712-2.829-.41-4.532zm0 23.1924l-3.65-.518.547-8.029h11.225v1.186l-7.712 2.829-.41 4.532z"/>
  </g>
</svg>
