<svg xmlns="http://www.w3.org/2000/svg" width="162.74869" height="200">
  <defs>
    <clipPath id="a">
      <path d="M0 236.694h192.609V0H0v236.694z"/>
    </clipPath>
  </defs>
  <path fill="#1d1d1d" d="M0 200h162.74869V0H0v200z"/>
  <g fill-rule="evenodd" clip-path="url(#a)" transform="matrix(0.84496926,0,0,-0.84496926,0,200)">
    <path fill="#d1e0eb" d="M184.6939 14.7002c0-2.498-2.025-4.523-4.523-4.523H15.4539c-2.498 0-4.523 2.025-4.523 4.523v205.833c0 2.498 2.025 4.523 4.523 4.523h164.717c2.498 0 4.523-2.025 4.523-4.523V14.7002z"/>
    <path fill="#da1e3d" d="M184.694 124.81H10.931v20.4h173.763v-20.4z"/>
    <path fill="#1d1d1d" d="M157.366 124.81H32.792V39.82h124.574v84.99z"/>
    <path fill="#ffce09" d="M45.599 145.209H10.931v2.829h34.668v-2.829z"/>
    <path fill="#ec2027" d="M80.268 145.209H45.599v2.829h34.669v-2.829z"/>
    <path fill="#c61c74" d="M114.904 145.209H80.236v2.829h34.668v-2.829z"/>
    <path fill="#3666ab" d="M150.025 145.209h-35.121v2.829h35.121v-2.829z"/>
    <path fill="#479148" d="M184.694 145.209h-34.669v2.829h34.669v-2.829z"/>
    <path fill="#de1e26" d="M108.9434 173.497c0 3.752.012 7.506-.004 11.258-.015 3.285 1.694 5.147 4.841 5.214 1.258.027 2.517.074 3.774.032 5.028-.172 8.862-4.501 8.441-9.672-.262-3.206-1.983-5.512-4.596-7.109-1.505-.921-1.511-.95-.571-2.502 1.849-3.058 3.703-6.113 5.534-9.183.627-1.052.553-1.154-.646-1.192-4.001-.127-3.992-.122-6.107 3.422-1.335 2.238-2.71 4.452-4.051 6.685-1.632 2.721-.628 5.448 2.34 6.395 2.509.8 3.708 3.207 2.733 5.572-.594 1.44-1.647 2.305-3.165 2.435-3.687.317-3.689.311-3.687-3.532.004-6.44.01-12.881.012-19.321.001-1.666-.003-1.666-1.634-1.674-3.258-.014-3.249-.014-3.237 3.335.012 3.279.002 6.559.002 9.837h.021zm-12.7295 7.6436c-.126.019-.252.038-.378.058-.782-2.692-1.579-5.378-2.335-8.078-.174-.619.311-.694.734-.697 1.212-.005 2.423.023 3.635.011.582-.007.834.193.647.833-.765 2.626-1.336 5.314-2.303 7.873m8.481-20.862c-2.768.051-2.365-.384-3.254 2.622-.373 1.259-.695 2.535-1.02 3.807-.171.673-.542.982-1.22.973-2.15-.023-4.301-.035-6.45-.006-.745.01-.952-.441-1.124-1.068-.471-1.717-1.011-3.414-1.455-5.138-.216-.838-.621-1.222-1.453-1.184-.89.04-1.784.034-2.674-.002-.868-.036-1.056.317-.802 1.168.848 2.841 1.643 5.701 2.474 8.548 1.627 5.572 3.276 11.137 4.89 16.712.411 1.419 1.072 2.561 2.451 3.123 1.784.728 3.789-.146 4.428-2.143 1.059-3.306 1.993-6.655 2.956-9.995 1.526-5.293 3.038-10.591 4.544-15.89.396-1.396.276-1.545-1.074-1.527-.406.005-.811 0-1.217 0m-40.2403 21.0378c-.991-2.689-1.68-5.473-2.501-8.21-.193-.645.22-.818.744-.819 1.134-.003 2.268-.002 3.401-.018.859-.013 1.021.375.788 1.209-.64 2.28-1.21 4.582-1.824 6.869-.093.348-.095.78-.608.969m8.1-21.079c-2.287.045-2.276.048-2.875 2.588-.302 1.279-.668 2.542-.979 3.818-.179.732-.565 1.027-1.306 1.009-1.946-.046-3.895-.06-5.84-.004-.901.026-1.326-.37-1.556-1.231-.448-1.679-.992-3.331-1.41-5.019-.217-.876-.681-1.172-1.478-1.148-.728.021-1.457-.026-2.186-.016-1.185.016-1.305.174-.976 1.321 2.189 7.615 4.38 15.23 6.581 22.842.305 1.057.621 2.114 1.002 3.143.607 1.642 2.075 2.688 3.551 2.608 1.459-.08 2.647-1.165 3.121-2.95 2.055-7.742 4.093-15.49 6.136-23.237.227-.859.41-1.735.689-2.575.288-.867.034-1.199-.809-1.153-.486.025-.974.004-1.665.004m10.068 1.3798c.011-.991-.325-1.424-1.263-1.388-.689.028-1.38.001-2.07.005-1.523.008-1.536.011-1.514 1.672.063 4.686.144 9.372.205 14.06.033 2.557.016 5.115.071 7.671.02.923-.253 1.315-1.182 1.266-1.295-.069-2.596-.007-3.894-.026-.706-.011-1.057.27-1.012 1.057.054.978.054 1.959.089 2.938.026.71.328 1.033 1.067 1.034 4.909.011 9.817.044 14.724.115 1.031.015 1.372-.422 1.291-1.446-.07-.891-.074-1.788-.075-2.684 0-.64-.252-.915-.876-.912-1.416.005-2.834-.069-4.25-.046-.835.015-1.117-.313-1.107-1.198.038-3.707-.244-18.453-.204-22.118m45.9194 13.6005c0 4.515.017 9.029-.014 13.543-.006.944.319 1.32 1.208 1.276.849-.042 1.705-.049 2.553.006 1.038.07 1.198-.534 1.196-1.431-.009-4.857.015-9.712.017-14.568.001-4.09-.039-8.178-.004-12.266.01-1.105-.333-1.574-1.407-1.453-.601.068-1.215.006-1.823.005-1.84-.005-1.818-.005-1.811 1.991.015 4.298.005 8.598.005 12.897h.08zm14.7603 10.3907c.017 1.68-1.043 2.843-2.616 2.869-1.503.027-2.717-1.24-2.702-2.818.014-1.497 1.32-2.84 2.758-2.837 1.488.005 2.544 1.153 2.56 2.786m.052-8.805c.009 1.64-1.1 2.858-2.612 2.866-1.439.008-2.742-1.331-2.739-2.817.003-1.56 1.286-2.839 2.851-2.842 1.482-.003 2.49 1.125 2.5 2.793m-1.993 4.504c3.149-1.933 4.019-3.475 3.335-5.785-.52-1.759-2.373-3.111-4.114-3.002-1.968.123-3.675 1.753-4.012 3.834-.32 1.974.934 3.679 3.717 4.873-2.627 1.095-4.461 2.71-3.438 5.88.621 1.923 2.537 2.985 4.366 2.732 1.769-.245 3.222-1.653 3.511-3.407.377-2.296-.552-3.729-3.365-5.125m1.8204-17.9441c.241.6.085 1.155.107 1.695.022.549.198.916.758.944.572.028.79-.322.787-.881-.005-1.278.032-2.557-.019-3.831-.035-.853-.768-1.12-1.508-.497-.724.609-1.343 1.354-2.009 2.04-.377.387-.73.804-1.137 1.154-.614.526-1.294.633-1.796-.119-.493-.738-.18-1.37.466-1.849.098-.072.213-.125.327-.169.486-.182.592-.582.445-1.026-.185-.56-.647-.433-1.029-.308-1.06.348-1.727 1.105-1.91 2.261-.189 1.194.34 2.082 1.261 2.692.986.651 2.025.606 2.968-.097.523-.391.942-.932 1.42-1.39.235-.224.418-.53.869-.619m.2919 5.8584c-.002.891-.595 1.512-1.442 1.512-.806-.001-1.461-.705-1.43-1.536.031-.829.71-1.54 1.474-1.545.799-.006 1.4.67 1.398 1.569m-1.433-2.877c-.567-.054-1.139.163-1.662.505-1.034.675-2.051 1.378-3.078 2.063-.354.238-.666.498-.668.993-.001.253-.046.537.161.714.227.198.458.036.671-.087.106-.062.225-.111.313-.196.852-.819 1.364-.795 1.889.465.514 1.233 2.158 1.652 3.403 1.15 1.292-.52 2.094-1.941 1.831-3.242-.282-1.402-1.412-2.359-2.86-2.365"/>
  </g>
  <path fill="#fff" d="M52.668911 90.1236h-2.605047l-3.067965-3.20411q-.644454-.68984-.644454-1.04384 0-.69891.962143-1.14367.453841-.17247.898605-.34493.444765-.17245.898605-.35399.953066-.43569.953066-1.0983 0-.55368-.680761-.92583-.553686-.30862-1.17091-.30862h-2.232897v8.42329h-2.232898v-8.92251q0-.45384.54461-.7443.444764-.24507.943989-.24507h2.977196q1.325216 0 2.586893.63538 1.497675.7806 1.497675 1.96059 0 1.17091-1.288908 2.05136-1.016603.69891-2.350895.98937l4.011953 4.27518zm9.004204 0h-5.76378q-.499225 0-.943989-.24507-.544609-.29953-.544609-.7443v-7.93314q0-.45384.544609-.7443.444764-.24507.943989-.24507h5.76378v1.48859h-5.019481v2.72305h3.158733v1.4886h-3.158733V88.635h5.019481v1.4886zm10.510953-2.72304q-.0363 1.2526-1.488599 2.04228-1.243518.68076-2.595969.68076-1.352444 0-2.605045-.68076-1.488598-.80784-1.488598-2.04228v-4.4658q0-1.23445 1.488598-2.04228 1.252601-.68076 2.605045-.68076 1.361523 0 2.586897.68076 1.425058.78968 1.497671 2.04228h-2.232895q-.10892-.57183-.68984-.92583-.526456-.30862-1.161833-.30862-.626298 0-1.179985.30862-.680761.37215-.680761.92583v4.4658q0 .56276.680761.92583.553687.30861 1.179985.30861.635377 0 1.161833-.30861.58092-.35399.68984-.92583h2.232895zm11.264333 2.72304h-2.332744l-.916758-2.23289h-4.16626l-.943986 2.23289h-2.323665l3.748723-8.92251q.417536-.98937 1.597519-.98937 1.161833 0 1.579369.98937l3.757802 8.92251zm-3.884878-3.72149l-1.452293-3.43104-1.461364 3.43104h2.913657zm11.736325 3.72149H85.53607q-.499222 0-.943987-.24507-.544613-.29953-.544613-.7443v-8.92251h2.232896V88.635h5.019482v1.4886zm10.864952-2.72304q0 1.23444-1.4886 2.04228-1.270751.68076-2.605045.68076h-3.530883q-.499222 0-.943986-.24507-.544614-.29953-.544614-.7443v-7.93314q0-.45384.544614-.7443.444764-.24507.943986-.24507h2.605047q1.325216 0 2.586897.63538 1.497674.75337 1.497674 1.96059 0 1.34337-1.642908 2.1149.989378.26322 1.706448.84414.87137.73522.87137 1.63383zm-3.167809-4.4658q0-.55368-.680761-.92583-.553685-.30862-1.170911-.30862h-1.860744v2.96812q3.712416-.36307 3.712416-1.73367zm.934915 4.4658q0-.56276-.67169-.93492-.562756-.30861-1.189061-.30861h-2.78658V88.635h2.78658q.626305 0 1.189061-.30861.67169-.37215.67169-.92583zm11.563864 0q0 1.24352-1.47044 2.04228-1.25261.68076-2.60505.68076-1.36152 0-2.61413-.68076-1.47044-.79876-1.47044-2.04228v-4.4658q0-1.23445 1.47044-2.04228 1.25261-.68076 2.61413-.68076 1.35244 0 2.60505.68076 1.47044.80783 1.47044 2.04228v4.4658zm-2.22382 0v-4.4658q0-.55368-.67169-.92583-.56276-.30862-1.17998-.30862-.6263 0-1.18907.30862-.6626.36307-.6626.92583v4.4658q0 .56276.6626.92583.56277.30861 1.18907.30861.61722 0 1.17998-.30861.67169-.37215.67169-.92583zm12.8437 2.72304h-2.60505l-2.41443-3.22227-2.41443 3.22227h-2.60505l3.72149-4.95594-3.72149-4.95594h2.60505l2.41443 3.22227 2.41443-3.22227h2.60505l-3.7215 4.95594 3.7215 4.95594z" style="-inkscape-font-specification:'SF Atarian System Extended'" font-size="27.5" letter-spacing="0" word-spacing="0" font-family="SF Atarian System Extended"/>
</svg>
