<svg xmlns="http://www.w3.org/2000/svg" width="407.97293" height="90.89814">
  <defs>
    <clipPath id="a">
      <path d="M0 116.953h524.912V0H0v116.953z"/>
    </clipPath>
  </defs>
  <g clip-path="url(#a)" transform="matrix(0.77722159,0,0,-0.77722159,0,90.898397)">
    <path fill="#de1e26" fill-rule="evenodd" d="M132.8845.3707c-5.617-.251-11.084.547-16.365 2.474-5.311 1.937-10.213 4.628-14.526 8.308-1.924 1.642-3.855 3.298-5.596 5.126-3.44 3.614-6.351 7.64-8.831 11.98-2.549 4.462-4.611 9.129-6.138 14.034-1.343 4.313-2.487 8.679-2.869 13.194-.326 3.853-.701 7.719-.72 11.581-.08 16.013-.034 32.025-.034 48.037v1.527h9.384v-1.381c0-11.814-.096-23.629.056-35.441.048-3.749.721-7.493 1.167-11.232.542-4.544 1.913-8.884 3.47-13.16 2.385-6.554 5.488-12.744 9.946-18.144 2.441-2.954 4.927-5.937 7.782-8.469 6.461-5.73 13.848-9.833 22.471-11.406.273-.049.536-.153.803-.233V.3707zM73.359.707H59.281v116.246h14.078V.707zM.0019.3707c0 5.471-.014 10.738.033 16.005.003.343.436.93.743.984 4.449.791 8.669 2.288 12.548 4.545 3.089 1.798 6.091 3.816 8.879 6.051 4.825 3.867 8.809 8.542 12.118 13.777 2.698 4.271 5.084 8.722 6.63 13.53 1.425 4.428 2.597 8.945 3.679 13.472.513 2.15.76 4.411.784 6.625.148 13.483.198 26.965.28 40.449.001.242.001.483.001.81h9.383v-1.452c0-17.491.064-34.982-.054-52.473-.023-3.459-.677-6.923-1.161-10.368-.629-4.477-1.866-8.808-3.428-13.046-2.47-6.702-5.683-13.009-10.231-18.554-2.092-2.549-4.245-5.085-6.637-7.345-4.651-4.392-10.017-7.73-15.999-10.064-5.27-2.058-10.703-3.12-16.367-2.947-.359.011-.719.001-1.201.001M377.114 51.8352c0 14.661.052 29.323-.016 43.983-.06 12.831 6.952 20.106 19.872 20.367 5.164.104 10.333.291 15.491.123 20.637-.669 36.375-17.582 34.645-37.781-1.072-12.523-8.139-21.531-18.861-27.774-6.18-3.598-6.203-3.708-2.348-9.773 7.592-11.945 15.201-23.879 22.717-35.872 2.575-4.109 2.27-4.508-2.652-4.658-16.422-.499-16.387-.477-25.067 13.368-5.482 8.745-11.123 17.39-16.629 26.12-6.699 10.626-2.576 21.281 9.606 24.977 10.3 3.125 15.218 12.528 11.218 21.768-2.437 5.628-6.76 9.002-12.993 9.512-15.131 1.241-15.139 1.214-15.131-13.796.013-25.159.039-50.319.049-75.479.003-6.508-.013-6.508-6.71-6.538-13.369-.06-13.334-.06-13.286 13.03.048 12.807.011 25.615.011 38.423h.084zm-52.251 29.8599c-.517.075-1.034.149-1.552.225-3.209-10.513-6.478-21.008-9.584-31.551-.713-2.419 1.278-2.713 3.015-2.721 4.973-.025 9.946.086 14.92.037 2.387-.024 3.423.755 2.656 3.258-3.141 10.254-5.486 20.761-9.455 30.752M359.678.1981c-11.363.198-9.709-1.499-13.361 10.243-1.53 4.917-2.85 9.902-4.183 14.878-.706 2.628-2.227 3.829-5.01 3.799-8.826-.094-17.653-.137-26.477-.027-3.056.039-3.907-1.724-4.611-4.169-1.933-6.709-4.151-13.338-5.973-20.075-.886-3.272-2.546-4.772-5.965-4.626-3.652.156-7.32.13-10.973-.009-3.566-.137-4.336 1.24-3.293 4.564 3.481 11.101 6.743 22.271 10.155 33.395 6.678 21.766 13.445 43.505 20.071 65.287 1.687 5.541 4.402 10.003 10.063 12.2 7.321 2.841 15.55-.572 18.176-8.375 4.346-12.912 8.178-26 12.13-39.044 6.264-20.678 12.469-41.374 18.653-62.076 1.628-5.453 1.133-6.034-4.409-5.967-1.665.02-3.329.002-4.993.002m-165.1754 82.184c-4.068-10.504-6.896-21.379-10.263-32.073-.793-2.519.898-3.194 3.052-3.199 4.653-.01 9.307-.005 13.959-.07 3.527-.049 4.19 1.467 3.231 4.724-2.624 8.907-4.963 17.897-7.482 26.836-.381 1.355-.393 3.049-2.497 3.782m33.245-82.344c-9.385.176-9.337.187-11.798 10.111-1.239 4.996-2.743 9.926-4.019 14.914-.733 2.861-2.317 4.013-5.358 3.944-7.989-.181-15.988-.237-23.975-.019-3.697.101-5.44-1.443-6.385-4.811-1.841-6.558-4.073-13.011-5.787-19.6-.89-3.423-2.797-4.581-6.067-4.489-2.988.084-5.983-.102-8.975-.062-4.861.063-5.358.678-4.005 5.16 8.983 29.751 17.982 59.497 27.013 89.234 1.254 4.129 2.551 8.258 4.113 12.277 2.493 6.414 8.519 10.499 14.577 10.186 5.987-.309 10.866-4.55 12.81-11.52 8.435-30.247 16.798-60.514 25.185-90.774.931-3.359 1.683-6.78 2.829-10.064 1.181-3.386.141-4.684-3.322-4.506-1.994.103-3.996.019-6.836.019m41.3283 5.3889c.045-3.871-1.334-5.564-5.184-5.418-2.828.106-5.664.003-8.496.018-6.251.031-6.303.038-6.212 6.528.257 18.309.589 36.616.838 54.925.136 9.991.066 19.985.292 29.972.083 3.606-1.04 5.133-4.849 4.94-5.317-.268-10.658-.024-15.988-.099-2.896-.041-4.335 1.058-4.155 4.133.224 3.818.222 7.649.369 11.472.106 2.775 1.346 4.036 4.382 4.043 20.146.039 40.292.17 60.436.45 4.228.059 5.63-1.648 5.297-5.65-.29-3.479-.303-6.987-.305-10.482-.002-2.505-1.035-3.576-3.598-3.567-5.815.02-11.634-.269-17.446-.178-3.428.055-4.581-1.224-4.543-4.681.156-14.479-1.001-72.086-.838-86.406m188.4843 53.1319c0 17.636.071 35.272-.058 52.908-.026 3.689 1.311 5.158 4.959 4.985 3.487-.166 6.998-.194 10.48.025 4.259.268 4.917-2.09 4.909-5.595-.04-18.97.061-37.94.066-56.909.005-15.974-.158-31.949-.012-47.921.039-4.313-1.37-6.144-5.778-5.67-2.465.265-4.987.023-7.483.017-7.552-.019-7.461-.017-7.433 7.776.062 16.794.02 33.589.02 50.383.109 0 .22 0 .33.001m60.587 40.5898c.067 6.563-4.283 11.106-10.74 11.212-6.169.101-11.154-4.848-11.091-11.013.06-5.846 5.423-11.093 11.325-11.079 6.104.015 10.44 4.505 10.506 10.88m.211-34.393c.037 6.405-4.516 11.161-10.719 11.194-5.906.032-11.257-5.204-11.244-11.005.013-6.095 5.278-11.089 11.703-11.101 6.082-.011 10.223 4.393 10.26 10.912m-8.18 17.595c12.928-7.554 16.496-13.58 13.69-22.604-2.137-6.87-9.742-12.151-16.885-11.726-8.082.481-15.086 6.851-16.471 14.979-1.313 7.71 3.837 14.37 15.26 19.04-10.784 4.274-18.313 10.584-14.113 22.965 2.548 7.511 10.415 11.664 17.918 10.678 7.265-.956 13.228-6.464 14.412-13.312 1.55-8.969-2.26-14.569-13.811-20.02m7.4738-70.1019c.986 2.343.351 4.513.44 6.624.089 2.142.81 3.579 3.11 3.687 2.351.111 3.24-1.258 3.232-3.444-.019-4.989.132-9.987-.08-14.968-.141-3.329-3.154-4.375-6.189-1.941-2.969 2.381-5.514 5.294-8.247 7.971-1.546 1.514-2.996 3.146-4.665 4.509-2.524 2.058-5.313 2.472-7.373-.465-2.024-2.884-.738-5.351 1.912-7.222.402-.285.876-.49 1.342-.658 1.997-.716 2.428-2.276 1.826-4.013-.759-2.184-2.655-1.686-4.223-1.198-4.35 1.355-7.086 4.312-7.838 8.83-.777 4.667 1.393 8.135 5.176 10.515 4.043 2.545 8.311 2.37 12.181-.38 2.146-1.524 3.867-3.637 5.831-5.427.962-.877 1.712-2.071 3.565-2.42m1.1972 22.8872c-.008 3.48-2.442 5.908-5.917 5.904-3.309-.004-5.998-2.753-5.871-6 .127-3.235 2.914-6.017 6.049-6.035 3.28-.02 5.747 2.615 5.739 6.131m-5.88-11.24c-2.328-.208-4.675.638-6.824 1.974-4.243 2.635-8.42 5.379-12.634 8.061-1.452.925-2.733 1.945-2.743 3.876-.004.987-.187 2.098.66 2.793.936.768 1.88.136 2.756-.346.438-.24.927-.432 1.286-.763 3.495-3.201 5.598-3.104 7.753 1.817 2.109 4.815 8.858 6.454 13.966 4.494 5.304-2.035 8.597-7.583 7.519-12.668-1.16-5.479-5.797-9.218-11.739-9.238"/>
  </g>
</svg>
