<?xml version="1.0" encoding="UTF-8" standalone="no"?>
<svg
   xmlns:dc="http://purl.org/dc/elements/1.1/"
   xmlns:cc="http://creativecommons.org/ns#"
   xmlns:rdf="http://www.w3.org/1999/02/22-rdf-syntax-ns#"
   xmlns:svg="http://www.w3.org/2000/svg"
   xmlns="http://www.w3.org/2000/svg"
   viewBox="0 0 385.35001 168.20625"
   height="168.20625"
   width="385.35001"
   xml:space="preserve"
   version="1.1"
   id="svg2"><metadata
     id="metadata8"><rdf:RDF><cc:Work
         rdf:about=""><dc:format>image/svg+xml</dc:format><dc:type
           rdf:resource="http://purl.org/dc/dcmitype/StillImage" /><dc:title></dc:title></cc:Work></rdf:RDF></metadata><defs
     id="defs6"><clipPath
       id="clipPath16"
       clipPathUnits="userSpaceOnUse"><path
         id="path18"
         d="m 0,134.565 308.28,0 L 308.28,0 0,0 0,134.565 Z" /></clipPath></defs><g
     transform="matrix(1.25,0,0,-1.25,0,168.20625)"
     id="g10"><g
       id="g12"><g
         clip-path="url(#clipPath16)"
         id="g14"><g
           transform="translate(101.2744,131.9551)"
           id="g20"><path
             id="path22"
             style="fill:none;stroke:#666666;stroke-width:5.08500004;stroke-linecap:round;stroke-linejoin:miter;stroke-miterlimit:10;stroke-dasharray:none;stroke-opacity:1"
             d="m 0,0 -35.263,0.067 c -11.301,0 -21.939,-2.84 -31.239,-7.845" /></g><g
           transform="translate(211.8058,131.9551)"
           id="g24"><path
             id="path26"
             style="fill:none;stroke:#666666;stroke-width:5.08500004;stroke-linecap:round;stroke-linejoin:miter;stroke-miterlimit:10;stroke-dasharray:none;stroke-opacity:1"
             d="m 0,0 35.263,0.067 c 11.301,0 21.347,-2.745 30.51,-8.496" /></g><g
           transform="translate(249.0784,131.6737)"
           id="g28"><path
             id="path30"
             style="fill:#cccccc;fill-opacity:1;fill-rule:nonzero;stroke:none"
             d="m 0,0 -183.067,0.348 c -36.457,0 -66.011,-29.554 -66.011,-66.011 0,-36.457 29.554,-66.011 66.011,-66.011 16.037,0 30.736,5.723 42.173,15.234 l 91.911,0 c 11.438,-9.511 26.136,-15.234 42.174,-15.234 36.456,0 66.011,29.554 66.011,66.011 C 59.202,-31.505 33.799,0 0,0" /></g><g
           transform="translate(299.579,66.2342)"
           id="g32"><path
             id="path34"
             style="fill:#666666;fill-opacity:1;fill-rule:nonzero;stroke:none"
             d="m 0,0 c 0,-32.266 -26.157,-58.423 -58.423,-58.423 -32.266,0 -58.423,26.157 -58.423,58.423 0,32.266 26.157,58.423 58.423,58.423 C -26.157,58.423 0,32.266 0,0" /></g><g
           transform="translate(255.4883,83.2453)"
           id="g36"><path
             id="path38"
             style="fill:#cccccc;fill-opacity:1;fill-rule:nonzero;stroke:none"
             d="m 0,0 -43.095,-32.584 c -2.834,-2.142 -6.906,-1.577 -9.049,1.257 l -8.987,11.887 c -2.143,2.834 -1.577,6.906 1.257,9.048 l 43.095,32.584 c 2.834,2.143 6.906,1.577 9.049,-1.257 L 1.257,9.049 C 3.4,6.215 2.834,2.143 0,0" /></g><g
           transform="translate(135.4596,59.5105)"
           id="g40"><path
             id="path42"
             style="fill:#666666;fill-opacity:1;fill-rule:nonzero;stroke:none"
             d="m 0,0 -15.083,-11.404 c -0.992,-0.75 -2.417,-0.552 -3.167,0.44 l -3.146,4.16 c -0.75,0.992 -0.552,2.417 0.44,3.167 L -5.873,7.767 c 0.992,0.75 2.417,0.552 3.167,-0.44 L 0.44,3.167 C 1.19,2.175 0.992,0.75 0,0" /></g><g
           transform="translate(168.2695,58.5991)"
           id="g44"><path
             id="path46"
             style="fill:#666666;fill-opacity:1;fill-rule:nonzero;stroke:none"
             d="m 0,0 -15.083,-11.404 c -0.992,-0.75 -2.417,-0.552 -3.167,0.44 l -3.146,4.16 c -0.75,0.992 -0.552,2.417 0.44,3.167 L -5.873,7.767 c 0.992,0.75 2.417,0.552 3.167,-0.44 L 0.44,3.167 C 1.19,2.175 0.992,0.75 0,0" /></g><g
           transform="translate(284.4095,60.0448)"
           id="g48"><path
             id="path50"
             style="fill:#cccccc;fill-opacity:1;fill-rule:nonzero;stroke:none"
             d="m 0,0 -43.095,-32.584 c -2.834,-2.142 -6.906,-1.577 -9.049,1.257 l -8.987,11.887 c -2.143,2.834 -1.577,6.906 1.257,9.048 l 43.095,32.584 c 2.834,2.143 6.906,1.577 9.049,-1.257 L 1.257,9.049 C 3.4,6.215 2.834,2.143 0,0" /></g><g
           transform="translate(90.6632,75.7511)"
           id="g52"><path
             id="path54"
             style="fill:#4c4c4c;fill-opacity:1;fill-rule:nonzero;stroke:none"
             d="m 0,0 -16.367,0 0,16.367 c 0,0.7 -0.572,1.272 -1.272,1.272 l -15.897,0 c -0.7,0 -1.272,-0.572 -1.272,-1.272 l 0,-16.367 -16.367,0 c -0.699,0 -1.271,-0.572 -1.271,-1.271 l 0,-15.898 c 0,-0.699 0.572,-1.271 1.271,-1.271 l 16.367,0 0,-16.368 c 0,-0.699 0.572,-1.271 1.272,-1.271 l 15.897,0 c 0.7,0 1.272,0.572 1.272,1.271 l 0,16.368 16.367,0 c 0.699,0 1.271,0.572 1.271,1.271 l 0,15.898 C 1.271,-0.572 0.699,0 0,0" /></g><g
           transform="translate(69.6858,66.5309)"
           id="g56"><path
             id="path58"
             style="fill:none;stroke:#666666;stroke-width:1.27100003;stroke-linecap:butt;stroke-linejoin:miter;stroke-miterlimit:10;stroke-dasharray:none;stroke-opacity:1"
             d="m 0,0 c 0,-2.546 -2.064,-4.61 -4.61,-4.61 -2.546,0 -4.61,2.064 -4.61,4.61 0,2.546 2.064,4.61 4.61,4.61 C -2.064,4.61 0,2.546 0,0 Z" /></g><g
           transform="translate(222.8136,67.8819)"
           id="g60"><path
             id="path62"
             style="fill:#7eee80;fill-opacity:1;fill-rule:nonzero;stroke:none"
             d="m 0,0 c 0,-6.197 -5.024,-11.221 -11.221,-11.221 -6.198,0 -11.222,5.024 -11.222,11.221 0,6.197 5.024,11.221 11.222,11.221 C -5.024,11.221 0,6.197 0,0" /></g><g
           transform="translate(252.3773,88.8283)"
           id="g64"><path
             id="path66"
             style="fill:#0098df;fill-opacity:1;fill-rule:nonzero;stroke:none"
             d="m 0,0 c 0,-6.197 -5.024,-11.221 -11.221,-11.221 -6.198,0 -11.222,5.024 -11.222,11.221 0,6.197 5.024,11.221 11.222,11.221 C -5.024,11.221 0,6.197 0,0" /></g><g
           transform="translate(279.6825,66.2342)"
           id="g68"><path
             id="path70"
             style="fill:#ff7961;fill-opacity:1;fill-rule:nonzero;stroke:none"
             d="m 0,0 c 0,-6.197 -5.024,-11.221 -11.221,-11.221 -6.198,0 -11.222,5.024 -11.222,11.221 0,6.197 5.024,11.221 11.222,11.221 C -5.024,11.221 0,6.197 0,0" /></g><g
           transform="translate(250.8811,43.7915)"
           id="g72"><path
             id="path74"
             style="fill:#fee94b;fill-opacity:1;fill-rule:nonzero;stroke:none"
             d="m 0,0 c 0,-6.197 -5.024,-11.221 -11.221,-11.221 -6.198,0 -11.222,5.024 -11.222,11.221 0,6.197 5.024,11.221 11.222,11.221 C -5.024,11.221 0,6.197 0,0" /></g><g
           transform="translate(43.6881,68.1988)"
           id="g76"><path
             id="path78"
             style="fill:#666666;fill-opacity:1;fill-rule:nonzero;stroke:none"
             d="M 0,0 C -1.618,-0.917 -1.618,-2.418 0,-3.336 L 6.267,-6.89 c 1.618,-0.917 2.941,-0.489 2.941,0.952 l 0,8.54 c 0,1.441 -1.323,1.869 -2.941,0.952 L 0,0 C -1.618,-0.917 -1.618,-2.418 0,-3.336 L 6.267,-6.89 c 1.618,-0.917 2.941,-0.489 2.941,0.952 l 0,8.54 c 0,1.441 -1.323,1.869 -2.941,0.952 L 0,0 Z" /></g><g
           transform="translate(86.4634,68.1988)"
           id="g80"><path
             id="path82"
             style="fill:#666666;fill-opacity:1;fill-rule:nonzero;stroke:none"
             d="M 0,0 C 1.618,-0.917 1.618,-2.418 0,-3.336 L -6.267,-6.89 c -1.618,-0.917 -2.941,-0.489 -2.941,0.952 l 0,8.54 c 0,1.441 1.323,1.869 2.941,0.952 L 0,0 C 1.618,-0.917 1.618,-2.418 0,-3.336 L -6.267,-6.89 c -1.618,-0.917 -2.941,-0.489 -2.941,0.952 l 0,8.54 c 0,1.441 1.323,1.869 2.941,0.952 L 0,0 Z" /></g><g
           transform="translate(66.7436,87.9185)"
           id="g84"><path
             id="path86"
             style="fill:#666666;fill-opacity:1;fill-rule:nonzero;stroke:none"
             d="M 0,0 C -0.917,1.618 -2.418,1.618 -3.336,0 L -6.89,-6.267 c -0.917,-1.618 -0.489,-2.941 0.952,-2.941 l 8.54,0 c 1.441,0 1.869,1.323 0.952,2.941 L 0,0 C -0.917,1.618 -2.418,1.618 -3.336,0 L -6.89,-6.267 c -0.917,-1.618 -0.489,-2.941 0.952,-2.941 l 8.54,0 c 1.441,0 1.869,1.323 0.952,2.941 L 0,0 Z" /></g><g
           transform="translate(66.7436,45.1433)"
           id="g88"><path
             id="path90"
             style="fill:#666666;fill-opacity:1;fill-rule:nonzero;stroke:none"
             d="M 0,0 C -0.917,-1.618 -2.418,-1.618 -3.336,0 L -6.89,6.267 c -0.917,1.618 -0.489,2.941 0.952,2.941 l 8.54,0 c 1.441,0 1.869,-1.323 0.952,-2.941 L 0,0 C -0.917,-1.618 -2.418,-1.618 -3.336,0 L -6.89,6.267 c -0.917,1.618 -0.489,2.941 0.952,2.941 l 8.54,0 c 1.441,0 1.869,-1.323 0.952,-2.941 L 0,0 Z" /></g><g
           transform="translate(101.2895,66.5309)"
           id="g92"><path
             id="path94"
             style="fill:none;stroke:#999999;stroke-width:1.27100003;stroke-linecap:butt;stroke-linejoin:miter;stroke-miterlimit:10;stroke-dasharray:none;stroke-opacity:1"
             d="m 0,0 c 0,-20 -16.213,-36.214 -36.214,-36.214 -20,0 -36.214,16.214 -36.214,36.214 0,20 16.214,36.214 36.214,36.214 C -16.213,36.214 0,20 0,0 Z" /></g><g
           transform="translate(97.5432,111.7589)"
           id="g96"><path
             id="path98"
             style="fill:#666666;fill-opacity:1;fill-rule:nonzero;stroke:none"
             d="m 0,0 c 0,-0.841 -1.525,-1.523 -3.407,-1.523 -1.882,0 -3.408,0.682 -3.408,1.523 0,0.841 1.526,1.523 3.408,1.523 C -1.525,1.523 0,0.841 0,0" /></g><g
           transform="translate(103.6428,109.2357)"
           id="g100"><path
             id="path102"
             style="fill:#666666;fill-opacity:1;fill-rule:nonzero;stroke:none"
             d="m 0,0 c 0,-0.841 -1.525,-1.523 -3.407,-1.523 -1.882,0 -3.408,0.682 -3.408,1.523 0,0.841 1.526,1.523 3.408,1.523 C -1.525,1.523 0,0.841 0,0" /></g><g
           transform="translate(104.053,110.2355)"
           id="g104"><path
             id="path106"
             style="fill:#666666;fill-opacity:1;fill-rule:nonzero;stroke:none"
             d="M 0,0 C -0.41,1.706 -1.897,3.591 -3.817,2.772 -2.254,6.378 0.697,5.805 1.721,4.575 2.519,3.618 2.5,0.343 0,0" /></g><g
           transform="translate(98.0478,112.9941)"
           id="g108"><path
             id="path110"
             style="fill:#666666;fill-opacity:1;fill-rule:nonzero;stroke:none"
             d="M 0,0 C -0.41,1.706 -1.897,3.591 -3.817,2.772 -2.254,6.378 0.697,5.805 1.721,4.575 2.519,3.618 2.5,0.343 0,0" /></g><g
           transform="translate(125.1708,109.1901)"
           id="g112"><path
             id="path114"
             style="fill:#666666;fill-opacity:1;fill-rule:nonzero;stroke:none"
             d="m 0,0 -0.156,-0.424 0.119,0 L 0,0 Z m -4.406,0.506 c -0.012,0 -0.022,-0.007 -0.03,-0.015 l -0.097,-0.506 0,-0.003 c 0,-0.021 0.011,-0.034 0.03,-0.034 l 0.089,0 c 0.022,0 0.078,0.045 0.082,0.067 l 0.082,0.417 c 0.004,0.024 -0.037,0.074 -0.06,0.074 l -0.096,0 z m 17.841,0.201 0.499,0 -0.038,-0.208 -0.126,0 -0.261,-1.474 -0.238,0 0.261,1.474 -0.134,0 0.037,0.208 z m -2.211,0 0.209,0 0.111,-0.878 0.164,0.878 0.238,0 -0.312,-1.682 -0.209,0 L 11.343,0 11.15,-0.975 l -0.246,0 0.32,1.682 z m -2.158,0 0.439,0 -0.03,-0.208 -0.238,0 -0.097,-0.521 0.231,0 -0.03,-0.179 -0.238,0 -0.097,-0.566 0.238,0 -0.037,-0.208 -0.469,0 0.328,1.682 z m -2.702,0 0.275,0 0.045,-0.975 0.424,0.968 0.268,0 -0.283,-1.675 -0.208,0 0.134,0.886 -0.372,-0.886 -0.149,0 -0.045,0.908 -0.164,-0.908 -0.238,0 0.313,1.682 z m -2.464,0 0.209,0 0.111,-0.878 0.164,0.878 0.238,0 -0.312,-1.682 -0.216,0 L 4.019,0 3.826,-0.975 l -0.246,0 0.32,1.682 z m -1.92,0 0.216,0 -0.32,-1.682 -0.209,0 0.313,1.682 z m -1.98,0 0.283,0 -0.089,-1.682 -0.283,0 0.037,0.387 -0.171,0 -0.142,-0.387 -0.253,0 L 0,0.707 Z m -2.479,0 0.499,0 -0.03,-0.208 -0.126,0 -0.268,-1.474 -0.238,0 0.26,1.474 -0.134,0 0.037,0.208 z m -2.128,0 0.476,0 c 0.088,0 0.144,-0.078 0.127,-0.171 L -4.116,-0.06 c -0.012,-0.064 -0.126,-0.117 -0.186,-0.141 l 0.015,0 0.007,0 0.008,0 0,-0.007 0.007,0 0.007,0 0.008,0 0.007,0 0.008,-0.008 0.007,0 0.008,0 0.007,0 0,-0.007 0.008,0 0.007,0 0,-0.008 0.007,0 c 0.01,-0.018 0.015,-0.071 0.015,-0.082 0,-0.01 -0.119,-0.662 -0.119,-0.662 l -0.216,0 c 0,0 0.116,0.586 0.12,0.61 0.002,0.026 -0.003,0.058 -0.008,0.082 -0.001,0.018 -0.002,0.049 -0.022,0.067 l -0.149,0 -0.142,-0.759 -0.215,0 0.32,1.682 z m -2.099,0 0.446,0 -0.037,-0.208 -0.231,0 -0.104,-0.521 0.231,0 -0.03,-0.179 -0.231,0 -0.096,-0.566 0.23,0 -0.029,-0.208 -0.477,0 0.328,1.682 z m -2.166,0 0.491,0 -0.03,-0.208 -0.126,0 -0.268,-1.474 -0.238,0 0.26,1.474 -0.134,0 0.045,0.208 z m -2.233,0 0.208,0 0.112,-0.878 0.164,0.878 0.245,0 -0.32,-1.682 -0.208,0 -0.082,0.975 -0.194,-0.975 -0.245,0 0.32,1.682 z m -2.055,0 0.44,0 -0.03,-0.208 -0.238,0 -0.097,-0.521 0.231,0 -0.03,-0.179 -0.238,0 -0.09,-0.566 0.231,0 -0.037,-0.208 -0.477,0 0.335,1.682 z m 39.978,0.06 0.275,0 0.045,-0.968 0.424,0.96 0.268,0.008 -0.283,-1.675 -0.208,0 0.134,0.886 -0.372,-0.886 -0.149,0 -0.045,0.908 -0.164,-0.908 -0.245,0 0.32,1.675 z m -1.839,0 0.447,0 -0.037,-0.201 -0.231,0 -0.104,-0.529 0.238,0 -0.037,-0.171 -0.231,0 -0.097,-0.566 0.231,0 -0.03,-0.208 -0.476,0 0.327,1.675 z m -1.95,0 0.499,0 -0.037,-0.201 -0.127,0 -0.26,-1.474 -0.246,0 0.261,1.474 -0.127,0 0.037,0.201 z m -1.734,0 0.007,0 0.008,0 0.007,0 0.008,0 0.007,0 0.328,0 c 0.088,0 0.15,-0.071 0.134,-0.164 l -0.082,-0.417 -0.201,0 0.044,0.275 c 0.01,0.063 -0.026,0.112 -0.089,0.112 -0.062,0 -0.124,-0.049 -0.134,-0.112 l -0.037,-0.2 c -0.008,-0.012 0.01,-0.069 0.022,-0.075 0.026,-0.016 0.291,-0.451 0.291,-0.484 0.007,-0.016 0.007,-0.024 0.007,-0.029 -0.01,-0.055 -0.074,-0.425 -0.074,-0.425 -0.017,-0.085 -0.1,-0.156 -0.186,-0.156 l -0.321,0 c -0.086,0 -0.142,0.071 -0.126,0.156 l 0.074,0.425 0.216,0 -0.052,-0.306 c -0.01,-0.062 0.029,-0.119 0.089,-0.119 0.063,0 0.122,0.057 0.134,0.119 l 0.045,0.246 c -0.041,0.103 -0.303,0.477 -0.32,0.566 -0.012,0.01 -0.016,0.063 -0.015,0.104 0.002,0.044 0.06,0.32 0.06,0.32 l 0.007,0.007 0,0.008 0,0.007 0.008,0.015 0,0.008 0.007,0.007 0,0.007 0.007,0.008 0,0.007 0.008,0.008 0.007,0.007 0,0.008 0.008,0 0.007,0.007 0.008,0.008 0.007,0.007 0.008,0.007 0.007,0.008 0.007,0.007 0.008,0 0.007,0.008 0.008,0 0.007,0.007 0.008,0 0.015,0 0.007,0.008 z m -2.434,0 0.268,0 0.037,-0.633 0.343,0.633 0.268,0 -0.551,-0.968 -0.134,-0.707 -0.238,0 0.119,0.759 -0.112,0.916 z m -1.712,0 0.008,0 0.007,0 0.007,0 0.008,0 0.007,0 0.328,0 c 0.088,0 0.151,-0.071 0.134,-0.164 l -0.082,-0.417 -0.201,0 0.045,0.275 c 0.01,0.063 -0.027,0.112 -0.09,0.112 -0.062,0 -0.123,-0.049 -0.134,-0.112 l -0.037,-0.2 c -0.006,-0.012 0.012,-0.069 0.022,-0.075 0.028,-0.016 0.291,-0.451 0.291,-0.484 0.006,-0.016 0.009,-0.024 0.007,-0.029 -0.008,-0.055 -0.082,-0.425 -0.082,-0.425 -0.016,-0.085 -0.098,-0.156 -0.186,-0.156 l -0.312,0 c -0.087,0 -0.143,0.071 -0.127,0.156 l 0.075,0.425 0.215,0 L 17,-0.633 c -0.01,-0.062 0.027,-0.119 0.09,-0.119 0.059,0 0.124,0.057 0.134,0.119 l 0.044,0.246 c -0.04,0.103 -0.303,0.477 -0.32,0.566 -0.011,0.01 -0.016,0.063 -0.015,0.104 0.003,0.044 0.06,0.32 0.06,0.32 l 0.007,0 0,0.007 0,0.008 0,0.007 0.008,0.015 0,0.008 0.007,0.007 0,0.007 0.008,0.008 0,0.007 0.007,0.008 0.007,0.007 0,0.008 0.008,0 0.007,0.007 0.008,0.008 0.007,0.007 0,0.007 0.008,0 0.007,0.008 0.008,0.007 0.007,0 0.007,0.008 0.008,0 0.007,0.007 0.008,0 0.015,0 0.007,0.008 z m -31.232,-2.218 42.486,0 0,2.479 -42.486,0 0,-2.479 z m 15.125,9.795 0.007,0 0.008,0 0.007,0 0.008,0 0.432,0 c 0.101,0 0.317,-0.232 0.297,-0.335 L 1.407,6.148 C 1.389,6.051 1.147,5.821 1.049,5.821 l -0.409,0 c -0.084,0 -0.143,0.055 -0.149,0.134 0,0.012 -0.001,0.03 0,0.044 l 0.439,2.285 0.008,0.008 0.007,0.007 0.015,0.008 0.008,0 0.007,0.007 0.007,0.008 0.008,0 0.007,0.007 0.008,0 0.015,0.007 0.007,0 0.008,0 0.007,0 0,0.008 z m -5.932,0 0.461,0 c 0.102,0 0.316,-0.232 0.298,-0.335 L -4.525,6.141 C -4.544,6.044 -4.674,5.821 -4.771,5.821 l -0.558,0 -0.008,0 -0.007,0 -0.008,0.007 -0.007,0 -0.008,0 -0.007,0 -0.007,0 0,0.007 -0.008,0 -0.007,0 -0.008,0.008 -0.007,0 -0.008,0.007 -0.007,0.008 -0.008,0 0,0.007 -0.007,0.008 -0.007,0.007 0,0.008 -0.008,0.007 -0.007,0.007 0,0.008 0,0.007 -0.008,0.008 0,0.007 0,0.008 -0.007,0.007 0,0.008 c 0,0.012 -0.002,0.03 0,0.044 l 0.446,2.285 c 0.041,0.034 0.091,0.06 0.142,0.06 m 32.541,0.03 0.03,0 c 0.281,0 0.465,-0.226 0.417,-0.507 L 27.205,2.918 c -0.048,-0.28 -0.307,-0.514 -0.588,-0.514 -0.281,0 -0.398,0.233 -0.35,0.514 l 0.886,4.949 0.007,0.023 0.008,0.022 0.007,0.03 0.008,0.022 0.007,0.03 0.007,0.022 0.008,0.023 0.015,0.022 0.007,0.022 0.015,0.023 0.008,0.022 0.014,0.022 0.015,0.015 0.015,0.023 0.015,0.022 0.022,0.015 0.015,0.015 0.015,0.015 0.022,0.014 0.023,0.015 0.015,0.015 0.022,0.015 0.022,0.008 0.023,0.014 0.015,0.008 0.029,0.007 0.023,0.008 0.022,0 0.022,0.007 0.03,0 0.022,0.008 z m -3.833,0 0.439,0 c 0.281,0 0.473,-0.226 0.425,-0.507 L 23.744,2.918 C 23.695,2.637 23.422,2.404 23.141,2.404 l -0.432,0 1.109,5.97 z m 3.275,0.87 c -0.408,0 -0.798,-0.335 -0.871,-0.751 L 25.158,2.382 c -0.069,-0.39 0.189,-0.7 0.581,-0.7 l 1.57,0 c 0.394,0 0.776,0.31 0.849,0.7 l 1.153,6.111 c 0.079,0.416 -0.188,0.751 -0.595,0.751 l -1.623,0 z m -4.086,0 -1.437,-7.562 2.174,0 c 0.394,0 0.775,0.31 0.848,0.7 l 1.154,6.111 c 0.078,0.417 -0.187,0.751 -0.595,0.751 l -2.144,0 z m -3.789,0 -1.436,-7.562 1.101,0 0.886,4.384 0.35,-4.384 0.953,0 1.436,7.562 -1.101,0 -0.737,-3.952 -0.492,3.952 -0.96,0 z m -2.419,0 -1.488,-7.562 2.143,0 0.149,0.938 -1.057,0 0.439,2.553 1.057,0 0.149,0.789 -1.057,0 0.462,2.345 1.057,0 0.148,0.937 -2.002,0 z m -2.62,0 -0.178,-0.937 0.595,0 -1.176,-6.625 1.087,0 1.198,6.625 0.573,0 0.149,0.937 -2.248,0 z m -3.692,0 -1.436,-7.562 1.102,0 0.885,4.384 0.35,-4.384 0.953,0 1.436,7.562 -1.101,0 -0.737,-3.952 -0.491,3.952 -0.961,0 z m -1.451,0 -1.437,-7.562 0.953,0 1.437,7.562 -0.953,0 z m -3.781,0 -1.437,-7.562 1.095,0 0.885,4.384 0.35,-4.384 0.953,0 1.436,7.562 -1.094,0 -0.744,-3.952 -0.491,3.952 -0.953,0 z m -5.099,0 -1.429,-7.562 0.953,0 0.647,3.424 0.678,0 C 1.094,5.023 1.104,4.87 1.116,4.793 1.134,4.682 1.153,4.54 1.139,4.429 1.127,4.318 0.618,1.682 0.618,1.682 l 0.953,0 c 0,0 0.535,2.872 0.535,2.918 C 2.108,4.647 2.107,4.794 2.054,4.875 2.02,4.928 1.96,5.047 1.891,5.091 1.758,5.176 1.608,5.233 1.608,5.233 l -0.067,0 C 1.813,5.34 2.327,5.517 2.382,5.806 L 2.903,8.493 C 2.982,8.91 2.716,9.244 2.307,9.244 l -2.151,0 z m -2.56,0 -1.489,-7.562 2.144,0 0.149,0.938 -1.057,0 0.431,2.553 1.057,0 0.149,0.789 -1.057,0 0.469,2.345 1.057,0 0.149,0.937 -2.002,0 z m -3.402,0 -1.436,-7.562 0.952,0 0.655,3.424 1.214,0 c 0.394,0 0.769,0.312 0.841,0.7 l 0.521,2.687 c 0.078,0.417 -0.187,0.751 -0.596,0.751 l -1.198,0 -0.953,0 z m -3.424,0 -1.19,-6.862 c -0.069,-0.39 0.195,-0.7 0.588,-0.7 l 1.421,0 c 0.394,0 0.776,0.31 0.849,0.7 l 1.272,6.862 -0.893,0 -1.213,-6.669 C -8.414,2.479 -8.508,2.397 -8.604,2.397 l -0.707,0 c -0.099,0 -0.165,0.081 -0.149,0.178 l 1.183,6.669 -0.953,0 z m -2.739,0 c -0.408,0 -0.805,-0.335 -0.878,-0.751 l 0,-0.008 0,-0.007 0,-0.008 -0.007,-0.007 0,-0.015 0,-0.007 -0.008,-0.015 0,-0.015 -0.007,-0.015 0,-0.022 -0.008,-0.015 0,-0.023 -0.007,-0.022 -0.008,-0.022 -0.007,-0.045 -0.015,-0.052 -0.007,-0.052 -0.015,-0.052 -0.008,-0.06 -0.015,-0.059 -0.014,-0.067 -0.015,-0.06 -0.023,-0.126 -0.015,-0.067 -0.014,-0.06 -0.008,-0.059 -0.015,-0.06 -0.015,-0.06 -0.007,-0.059 -0.008,-0.052 -0.014,-0.045 -0.008,-0.052 0,-0.022 -0.007,-0.015 0,-0.023 0,-0.014 -0.008,-0.023 0,-0.015 0,-0.015 -0.007,-0.014 0,-0.008 0,-0.007 c -0.008,-0.182 0.017,-0.431 0.074,-0.477 0.072,-0.4 1.408,-2.255 1.37,-2.538 -0.036,-0.283 -0.194,-1.116 -0.194,-1.116 -0.048,-0.281 -0.24,-0.506 -0.521,-0.506 -0.281,0 -0.472,0.224 -0.424,0.506 l 0.253,1.384 -0.997,0 -0.335,-1.92 c -0.069,-0.39 0.195,-0.7 0.588,-0.7 l 1.421,0 c 0.394,0 0.769,0.31 0.841,0.7 0,0 0.367,1.794 0.365,1.92 -10e-4,0.128 -0.037,0.142 -0.037,0.142 0,0.145 -1.189,2.108 -1.31,2.18 -0.052,0.031 -0.095,0.225 -0.097,0.343 -0.002,0.117 0.156,0.9 0.156,0.9 0.049,0.281 0.315,0.507 0.596,0.507 0.281,0 0.398,-0.226 0.35,-0.507 l -0.216,-1.243 1.005,0 0.35,1.869 c 0.079,0.416 -0.188,0.751 -0.596,0.751 l -1.474,0 z" /></g></g></g></g></svg>