<?xml version="1.0" encoding="UTF-8" standalone="no"?>
<!-- Generator: Adobe Illustrator 19.0.0, SVG Export Plug-In . SVG Version: 6.00 Build 0)  -->

<svg
   xmlns:dc="http://purl.org/dc/elements/1.1/"
   xmlns:cc="http://creativecommons.org/ns#"
   xmlns:rdf="http://www.w3.org/1999/02/22-rdf-syntax-ns#"
   xmlns:svg="http://www.w3.org/2000/svg"
   xmlns="http://www.w3.org/2000/svg"
   xmlns:sodipodi="http://sodipodi.sourceforge.net/DTD/sodipodi-0.dtd"
   xmlns:inkscape="http://www.inkscape.org/namespaces/inkscape"
   version="1.1"
   id="Layer_1"
   x="0px"
   y="0px"
   viewBox="0 0 798.81519 264.04609"
   xml:space="preserve"
   inkscape:version="0.91 r13725"
   sodipodi:docname="consolegame.svg"
   width="798.81519"
   height="264.04608"><metadata
     id="metadata103"><rdf:RDF><cc:Work
         rdf:about=""><dc:format>image/svg+xml</dc:format><dc:type
           rdf:resource="http://purl.org/dc/dcmitype/StillImage" /><dc:title></dc:title></cc:Work></rdf:RDF></metadata><defs
     id="defs101" /><sodipodi:namedview
     pagecolor="#ffffff"
     bordercolor="#666666"
     borderopacity="1"
     objecttolerance="10"
     gridtolerance="10"
     guidetolerance="10"
     inkscape:pageopacity="0"
     inkscape:pageshadow="2"
     inkscape:window-width="1920"
     inkscape:window-height="1027"
     id="namedview99"
     showgrid="false"
     fit-margin-top="0"
     fit-margin-left="0"
     fit-margin-right="0"
     fit-margin-bottom="0"
     inkscape:zoom="0.7184662"
     inkscape:cx="247.75"
     inkscape:cy="80.700003"
     inkscape:window-x="-8"
     inkscape:window-y="-8"
     inkscape:window-maximized="1"
     inkscape:current-layer="Layer_1" /><g
     id="g3"
     transform="translate(0,102.64607)"><path
       d="m 248.2,161.4 232.5,-2.3 c 1.7,0 3.8,-1 5,-2.7 l 4.9,-9.5 -242.4,0 -242.4,0 4.9,9.5 c 1.3,1.7 3.3,2.7 5,2.7 l 232.5,2.3"
       id="path5"
       inkscape:connector-curvature="0"
       style="fill:#d5d4cf" /><path
       d="m 247.7,37.1 244.9,0 c 1.6,0 2.8,1.3 2.8,2.8 L 492.5,144 c 0,1.6 -1.3,2.8 -2.8,2.8 l -242,0 -241.9,0 C 4.2,146.8 3,145.5 3,144 L 0,39.9 c 0,-1.6 1.3,-2.8 2.8,-2.8 l 244.9,0"
       id="path7"
       inkscape:connector-curvature="0"
       style="fill:#e2e4e2" /><path
       d="m 426.2,135.2 0.1,0 0.1,0 0,0 0,0.1 0,2.2 -0.1,0.2 c 0,0 -0.1,0.1 -0.2,0.1 l -4.1,0 c -0.1,0 -0.2,0 -0.2,-0.1 l -0.1,-0.2 0,-2.2 0,-0.1 0,0 0.1,0 0.1,0 0.1,0 0.1,0 0,0 0,0.1 0,1.8 1.4,0 0,-1.5 0,-0.1 0,0 0.1,0 0.1,0 0.1,0 0.1,0 0,0 0,0.1 0,1.5 1.6,0 0,-1.8 0,-0.1 0,0 0.1,0 0.6,0 z"
       id="path9"
       inkscape:connector-curvature="0"
       style="fill:#bdbbb8" /><path
       d="m 425.3,133.2 c 0.2,0 0.3,0 0.5,0 0.1,0 0.3,0.1 0.4,0.2 0.1,0.1 0.2,0.2 0.2,0.3 0.1,0.1 0.1,0.3 0.1,0.5 l 0,0.2 0,0.2 -0.1,0.1 -0.1,0.1 0,0 -0.1,0 -0.1,0 -0.1,0 -0.1,0 -0.1,0 0,0 0,0 0,-0.1 0.1,-0.1 0.1,-0.1 0,-0.2 0,-0.2 -0.1,-0.1 c -0.1,0 -0.1,-0.1 -0.2,-0.1 -0.1,0 -0.2,0 -0.4,0 l -3.3,0 0,0 0,0 0,-0.1 0,-0.1 0,-0.1 0,-0.1 0,0 0,0 3.3,-0.3 z"
       id="path11"
       inkscape:connector-curvature="0"
       style="fill:#bdbbb8" /><path
       d="m 426.2,129.4 0.1,0 0.1,0 0,0 0,0.1 0,2.2 -0.1,0.2 c 0,0 -0.1,0.1 -0.2,0.1 l -4.1,0 c -0.1,0 -0.2,0 -0.2,-0.1 l -0.1,-0.2 0,-2.2 0,-0.1 0,0 0.1,0 0.1,0 0.1,0 0.1,0 0,0 0,0.1 0,1.8 1.4,0 0,-1.5 0,-0.1 0,0 0.1,0 0.1,0 0.1,0 0.1,0 0,0 0,0.1 0,1.5 1.6,0 0,-1.8 0,-0.1 0,0 0.1,0 0.6,0 z"
       id="path13"
       inkscape:connector-curvature="0"
       style="fill:#bdbbb8" /><path
       d="m 425.8,125.4 0,0 0.2,0 0.1,0 0.1,0 0.1,0.1 c 0,0.1 0.1,0.2 0.1,0.3 0,0.1 0.1,0.2 0.1,0.4 0,0.1 0,0.3 0,0.5 0,0.3 0,0.6 -0.1,0.8 -0.1,0.2 -0.2,0.4 -0.4,0.6 -0.2,0.2 -0.4,0.3 -0.7,0.4 -0.3,0.1 -0.6,0.1 -1,0.1 -0.4,0 -0.7,0 -1,-0.1 -0.3,-0.1 -0.5,-0.2 -0.7,-0.4 -0.2,-0.2 -0.4,-0.4 -0.5,-0.6 -0.1,-0.2 -0.2,-0.5 -0.2,-0.8 0,-0.1 0,-0.3 0,-0.4 0,-0.1 0.1,-0.2 0.1,-0.3 0,-0.1 0.1,-0.2 0.1,-0.3 l 0.1,-0.2 0.1,-0.1 0.1,0 0.1,0 0.1,0 0.1,0 0.1,0 0,0 0,0 -0.1,0.1 c 0,0.1 -0.1,0.1 -0.2,0.2 -0.1,0.1 -0.1,0.2 -0.2,0.3 0,0.1 -0.1,0.3 -0.1,0.5 0,0.2 0,0.4 0.1,0.5 0.1,0.2 0.2,0.3 0.4,0.4 0.2,0.1 0.3,0.2 0.6,0.3 0.3,0.1 0.5,0.1 0.8,0.1 0.3,0 0.5,0 0.8,-0.1 0.3,-0.1 0.4,-0.2 0.6,-0.3 0.2,-0.1 0.3,-0.3 0.3,-0.4 0.1,-0.2 0.1,-0.4 0.1,-0.6 0,-0.2 0,-0.3 -0.1,-0.5 0,-0.1 -0.1,-0.2 -0.1,-0.3 -0.1,-0.1 -0.1,-0.2 -0.1,-0.2 l -0.1,-0.1 0,0 0,0 0.1,0 0.2,0.1 0,0 z"
       id="path15"
       inkscape:connector-curvature="0"
       style="fill:#bdbbb8" /><polygon
       points="422.4,121.8 422.4,121.9 422.4,123.2 426.4,123.2 426.4,123.2 426.5,123.2 426.5,123.3 426.5,123.5 426.5,123.6 426.5,123.7 426.4,123.8 426.4,123.8 422.4,123.8 422.4,125.1 422.4,125.1 422.4,125.1 422.3,125.2 422.2,125.2 422.1,125.2 422,125.1 421.9,125.1 421.9,125.1 421.9,121.9 421.9,121.8 422,121.8 422.1,121.8 422.2,121.8 422.2,121.8 422.3,121.8 422.4,121.8 "
       id="polygon17"
       style="fill:#bdbbb8" /><path
       d="m 72.1,135.1 c 0.2,0 0.4,0 0.6,0.1 0.2,0.1 0.3,0.2 0.5,0.3 0.1,0.1 0.2,0.3 0.3,0.5 0.1,0.2 0.1,0.4 0.1,0.7 l 0,0.5 1.6,0 0,0 0,0 0,0.1 0,0.1 0,0.1 0,0.1 0,0 0,0 -4.2,0 c -0.1,0 -0.2,0 -0.2,-0.1 l -0.1,-0.2 0,-1 c 0,-0.1 0,-0.2 0,-0.3 0,-0.1 0,-0.2 0.1,-0.3 0,-0.1 0.1,-0.2 0.2,-0.4 0.1,-0.1 0.2,-0.2 0.3,-0.3 0.1,-0.1 0.2,-0.2 0.4,-0.2 0.1,0.3 0.2,0.3 0.4,0.3 l 0,0 z m 0,0.6 c -0.2,0 -0.3,0 -0.5,0.1 -0.1,0.1 -0.2,0.2 -0.3,0.3 -0.1,0.1 -0.1,0.2 -0.1,0.3 0,0.1 0,0.2 0,0.3 l 0,0.6 1.8,0 0,-0.5 c 0,-0.2 0,-0.3 -0.1,-0.5 0,-0.1 -0.1,-0.2 -0.2,-0.3 -0.1,-0.1 -0.2,-0.1 -0.3,-0.2 0,-0.1 -0.1,-0.1 -0.3,-0.1 l 0,0 z"
       id="path19"
       inkscape:connector-curvature="0"
       style="fill:#bdbbb8" /><path
       d="m 73,130.3 c 0.4,0 0.7,0 1,0.1 0.3,0.1 0.5,0.2 0.8,0.4 0.2,0.2 0.4,0.4 0.5,0.6 0.1,0.3 0.2,0.6 0.2,0.9 0,0.3 -0.1,0.6 -0.2,0.9 -0.1,0.2 -0.2,0.5 -0.4,0.6 -0.2,0.2 -0.4,0.3 -0.7,0.4 -0.3,0.1 -0.6,0.1 -1,0.1 -0.4,0 -0.7,0 -1,-0.1 -0.3,-0.1 -0.5,-0.2 -0.7,-0.4 -0.2,-0.2 -0.4,-0.4 -0.5,-0.6 -0.1,-0.3 -0.2,-0.6 -0.2,-0.9 0,-0.3 0.1,-0.6 0.2,-0.9 0.1,-0.2 0.2,-0.5 0.4,-0.6 0.2,-0.2 0.4,-0.3 0.7,-0.4 0.2,0 0.5,-0.1 0.9,-0.1 z m 0,0.7 c -0.3,0 -0.5,0 -0.7,0.1 -0.2,0 -0.4,0.1 -0.6,0.2 -0.2,0.1 -0.3,0.2 -0.4,0.4 -0.1,0.2 -0.1,0.4 -0.1,0.7 0,0.3 0,0.5 0.1,0.7 0.1,0.2 0.2,0.3 0.4,0.4 0.2,0.1 0.4,0.2 0.6,0.2 0.2,0 0.4,0.1 0.7,0.1 0.3,0 0.5,0 0.7,-0.1 0.2,-0.1 0.4,-0.1 0.6,-0.2 0.2,-0.1 0.3,-0.2 0.4,-0.4 0.1,-0.2 0.1,-0.4 0.1,-0.7 0,-0.3 0,-0.5 -0.1,-0.7 -0.1,-0.2 -0.2,-0.3 -0.4,-0.4 -0.2,-0.1 -0.4,-0.2 -0.6,-0.2 C 73.5,131 73.3,131 73,131 l 0,0 z"
       id="path21"
       inkscape:connector-curvature="0"
       style="fill:#bdbbb8" /><polygon
       points="75.3,125.3 75.3,125.5 75.3,125.6 75.3,125.8 75.2,125.8 75.2,125.9 71.7,126.8 71.7,126.8 75.2,127.7 75.2,127.8 75.3,127.8 75.3,127.9 75.3,128.1 75.3,128.3 75.3,128.4 75.2,128.5 75.2,128.6 71,129.8 70.8,129.8 70.8,129.8 70.7,129.7 70.7,129.5 70.7,129.3 70.8,129.2 70.8,129.2 70.9,129.1 74.7,128.1 74.7,128.1 70.9,127.1 70.8,127.1 70.8,127.1 70.7,127 70.7,126.8 70.7,126.6 70.8,126.6 70.8,126.5 70.9,126.5 74.7,125.4 74.7,125.4 70.9,124.4 70.8,124.4 70.8,124.4 70.7,124.3 70.7,124.1 70.7,123.9 70.8,123.8 70.8,123.8 71,123.8 75.2,125 75.2,125.1 75.3,125.2 "
       id="polygon23"
       style="fill:#bdbbb8" /><path
       d="m 75.1,120.5 0.1,0 0.1,0 0,0 0,0.1 0,2.2 -0.1,0.2 c 0,0 -0.1,0.1 -0.2,0.1 l -4,0 c -0.1,0 -0.2,0 -0.2,-0.1 l -0.1,-0.2 0,-2.2 0,-0.1 0,0 0.1,0 0.1,0 0.1,0 0.1,0 0,0 0,0.1 0,1.8 1.4,0 0,-1.5 0,-0.1 0,0 0.1,0 0.1,0 0.1,0 0.1,0 0,0 0,0.1 0,1.5 1.6,0 0,-1.8 0,-0.1 0,0 0.1,0 0.5,0 0,0 z"
       id="path25"
       inkscape:connector-curvature="0"
       style="fill:#bdbbb8" /><path
       d="m 75.2,116.4 0,0 0,0 0.1,0.2 0,0.2 0,0.1 0,0.1 0,0.1 -0.1,0 -1.1,0.4 c -0.1,0 -0.2,0.1 -0.3,0.2 -0.1,0.1 -0.2,0.1 -0.3,0.2 -0.1,0.1 -0.1,0.2 -0.2,0.3 0,0.1 -0.1,0.2 -0.1,0.4 l 0,0.4 1.9,0 0,0 0,0 0,0.1 0,0.1 0,0.1 0,0.1 0,0 0,0 -4.1,0 c -0.1,0 -0.2,0 -0.2,-0.1 l -0.1,-0.2 0,-1 c 0,-0.1 0,-0.2 0,-0.3 l 0,-0.2 c 0,-0.2 0.1,-0.3 0.1,-0.5 0.1,-0.1 0.1,-0.2 0.2,-0.3 0.1,-0.1 0.2,-0.2 0.3,-0.2 0.1,0 0.3,-0.1 0.4,-0.1 0.2,0 0.3,0 0.4,0.1 0.1,0 0.2,0.1 0.3,0.2 0.1,0.1 0.2,0.2 0.2,0.3 0.1,0.1 0.1,0.2 0.2,0.4 l 0.1,-0.2 0.2,-0.2 c 0.1,-0.1 0.2,-0.1 0.2,-0.1 0.1,0 0.2,-0.1 0.3,-0.1 l 1,-0.4 0.6,-0.1 0,0 0,0 z m -3.2,1 c -0.2,0 -0.3,0 -0.5,0.1 -0.1,0.1 -0.2,0.2 -0.3,0.4 l 0,0.2 c 0,0.1 0,0.2 0,0.3 l 0,0.5 1.5,0 0,-0.6 c 0,-0.2 0,-0.3 -0.1,-0.4 0,-0.1 -0.1,-0.2 -0.2,-0.3 -0.1,-0.1 -0.2,-0.1 -0.2,-0.2 0,0 -0.1,0 -0.2,0 l 0,0 z"
       id="path27"
       inkscape:connector-curvature="0"
       style="fill:#bdbbb8" /><path
       d="m 479.3,106.8 c -0.2,0.7 -0.9,1.4 -1.6,1.7 -0.5,0.2 -3.1,0.9 -12.3,3.5 l -1.4,0.4 0,-1.7 c 0,-1 0,-1.7 0,-1.8 0,0 2.5,-0.7 5.6,-1.4 l 5.6,-1.4 -2.6,-0.7 c -6.1,-1.6 -7.1,-1.9 -7.5,-2.1 -0.6,-0.3 -1,-0.7 -1.1,-1.3 -0.1,-0.3 -0.1,-1 0,-1.3 0.2,-0.6 0.6,-1.1 1.3,-1.4 0.4,-0.2 1.7,-0.5 6.7,-1.8 1.7,-0.4 3.1,-0.8 3.1,-0.8 0,0 -2,-0.6 -5.5,-1.5 L 464,93.8 464,92 c 0,-1.4 0,-1.8 0,-1.7 0,0 1.4,0.4 3,0.8 7.7,2.1 10.3,2.9 10.8,3.1 0.8,0.4 1.3,1 1.5,1.7 0.1,0.3 0.1,0.9 0,1.2 -0.1,0.4 -0.2,0.6 -0.6,1 -0.3,0.3 -0.4,0.4 -0.7,0.5 -0.5,0.2 -1.3,0.5 -6.9,2 -1.3,0.4 -2.4,0.7 -2.4,0.7 0,0 1.2,0.4 2.8,0.8 3.5,1 5.3,1.5 5.8,1.6 1.1,0.3 1.8,1 2,1.8 0,0.3 0,1 0,1.3 z m -5.4,-18.3 -5.3,0 0,-1.7 0,-1.7 5.3,0 5.3,0 0,1.7 0,1.7 -5.3,0 z m 0,-6.7 -5.3,0 0,-1.7 0,-1.7 5.3,0 5.3,0 0,1.7 0,1.7 -5.3,0 z m -7.2,5.5 c -0.2,0.8 -0.8,1.4 -1.6,1.5 -0.9,0.2 -1.8,-0.5 -2.1,-1.4 -0.1,-0.5 -0.1,-1.1 0.2,-1.5 0.1,-0.3 0.5,-0.7 0.7,-0.8 0.8,-0.5 1.9,-0.2 2.4,0.6 0.4,0.5 0.5,1.1 0.4,1.6 z m 0,-6.7 c -0.2,1 -1.2,1.7 -2.1,1.5 -0.7,-0.1 -1.3,-0.7 -1.5,-1.4 -0.1,-0.5 -0.1,-1.1 0.2,-1.5 0.1,-0.3 0.5,-0.6 0.7,-0.8 0.8,-0.5 1.9,-0.2 2.4,0.6 0.3,0.5 0.4,1.1 0.3,1.6 z"
       id="path29"
       inkscape:connector-curvature="0"
       style="fill:#bdbbb8" /><path
       d="M 243.4,88.9 49.2,86.1 48.5,85.9 C 43,84.1 39,78.5 39,72.6 39,66.9 42.6,62.2 48.4,60.3 l 0.7,-0.2 195.5,-4.7 6,0 195.6,4.7 0.7,0.2 c 5.8,1.9 9.4,6.6 9.4,12.3 0,5.9 -4,11.5 -9.4,13.2 l -0.7,0.2 -197.4,2.8 -5.4,0.1 z"
       id="path31"
       inkscape:connector-curvature="0"
       style="fill:#eeefec" /><path
       d="M 244.7,60.4 50,65.1 c -9.2,3 -6.6,13.8 0,16 l 193.4,2.8 5.4,0 196.6,-2.8 c 6.6,-2.2 9.2,-13 0,-16 l -194.9,-4.7 -5.8,0 z"
       id="path33"
       inkscape:connector-curvature="0"
       style="fill:#91b9e3" /><path
       d="m 52.8,66 c -9.1,2.2 -6.6,10.2 0,11.8 l 190.6,2 c 1.3,0.1 2.9,0 4.3,0 l 194.9,-2.1 c 6.6,-1.6 9.1,-9.6 0,-11.8 L 247.7,62.4 c -64.9,1 -129.9,2.4 -194.9,3.6 z"
       id="path35"
       inkscape:connector-curvature="0" /><path
       d="m 116.5,138.3 -5,0 0,-1.8 c 0,-0.4 0,-0.7 0.1,-0.8 0.1,-0.2 0.2,-0.3 0.5,-0.4 0.2,-0.1 0.5,-0.2 0.8,-0.2 0.4,0 0.7,0.1 0.9,0.3 0.2,0.2 0.4,0.5 0.4,0.9 0.1,-0.2 0.2,-0.3 0.3,-0.3 0.2,-0.2 0.4,-0.3 0.6,-0.4 l 1.4,-0.7 0,0.7 -1,0.5 c -0.4,0.2 -0.7,0.4 -0.8,0.5 -0.1,0.1 -0.2,0.2 -0.3,0.3 0,0.1 -0.1,0.2 -0.1,0.4 l 0,0.6 2.2,0 0,0.4 z m -2.8,-0.5 0,-1.2 c 0,-0.3 0,-0.4 -0.1,-0.6 -0.1,-0.2 -0.2,-0.2 -0.3,-0.3 -0.1,-0.1 -0.3,-0.1 -0.5,-0.1 -0.3,0 -0.5,0.1 -0.6,0.2 -0.1,0.1 -0.2,0.4 -0.2,0.7 l 0,1.3 1.7,0 z"
       id="path37"
       inkscape:connector-curvature="0"
       style="fill:#bdbbb8" /><polygon
       points="112.1,131.2 112.1,133.6 113.6,133.6 113.6,131.3 114.2,131.3 114.2,133.6 115.9,133.6 115.9,131.1 116.5,131.1 116.5,134.2 111.5,134.2 111.5,131.2 "
       id="polygon39"
       style="fill:#bdbbb8" /><path
       d="m 114.9,130.5 -0.1,-0.5 c 0.3,0 0.5,-0.1 0.6,-0.2 0.2,-0.1 0.3,-0.2 0.4,-0.4 0.1,-0.2 0.1,-0.4 0.1,-0.6 0,-0.3 -0.1,-0.6 -0.2,-0.8 -0.2,-0.2 -0.4,-0.3 -0.6,-0.3 -0.1,0 -0.3,0 -0.4,0.1 -0.1,0.1 -0.2,0.2 -0.3,0.3 -0.1,0.1 -0.2,0.4 -0.3,0.8 -0.1,0.4 -0.2,0.7 -0.3,0.8 -0.1,0.1 -0.3,0.3 -0.4,0.4 -0.2,0.1 -0.4,0.1 -0.6,0.1 -0.4,0 -0.7,-0.1 -1,-0.4 -0.3,-0.3 -0.4,-0.6 -0.4,-1.1 0,-0.3 0.1,-0.6 0.2,-0.8 0.1,-0.2 0.3,-0.4 0.5,-0.5 0.2,-0.1 0.5,-0.2 0.8,-0.2 l 0,0.5 c -0.3,0 -0.6,0.1 -0.7,0.3 -0.2,0.2 -0.2,0.4 -0.2,0.7 0,0.3 0.1,0.5 0.2,0.7 0.1,0.2 0.3,0.2 0.5,0.2 0.2,0 0.4,-0.1 0.5,-0.2 0.1,-0.1 0.2,-0.4 0.3,-0.8 0.1,-0.4 0.2,-0.7 0.3,-0.9 0.1,-0.3 0.3,-0.4 0.5,-0.6 0.2,-0.1 0.5,-0.2 0.7,-0.2 0.3,0 0.5,0.1 0.8,0.2 0.2,0.1 0.4,0.3 0.5,0.5 0.1,0.2 0.2,0.5 0.2,0.8 0,0.5 -0.2,0.9 -0.5,1.2 -0.2,0.8 -0.6,0.9 -1.1,0.9 z"
       id="path41"
       inkscape:connector-curvature="0"
       style="fill:#bdbbb8" /><polygon
       points="112.1,123.5 112.1,126 113.6,126 113.6,123.7 114.2,123.7 114.2,126 115.9,126 115.9,123.4 116.5,123.4 116.5,126.5 111.5,126.5 111.5,123.5 "
       id="polygon43"
       style="fill:#bdbbb8" /><polygon
       points="111.5,123 111.5,119.7 112.1,119.7 112.1,121.1 116.5,121.1 116.5,121.6 112.1,121.6 112.1,123 "
       id="polygon45"
       style="fill:#bdbbb8" /><path
       d="m 48.5,146.9 -1.1,-27.3 c 0,-2 1.5,-3.6 3.4,-3.6 l 9.7,0 c 1.9,0 3.4,1.6 3.4,3.5 l 1.1,27.4 -16.5,0 z"
       id="path47"
       inkscape:connector-curvature="0"
       style="fill:#ffffff" /><path
       d="m 54.7,155.1 c -1.7,0 -2.4,-1.3 -2.8,-2.1 l -0.2,-0.3 -3.2,-5.8 16.5,0 2.3,4 c 0.4,0.8 0.4,1.8 0,2.5 -0.5,1 -1.7,1.6 -2.9,1.6 l -9.7,0 z"
       id="path49"
       inkscape:connector-curvature="0"
       style="fill:#edefea" /><path
       d="m 49.6,146.9 -1.1,-27.2 c 0,-0.9 0.8,-1.7 1.7,-1.7 l 10.6,0 c 0.9,0 1.7,0.8 1.7,1.7 l 1.1,27.2 -14,0 z"
       id="path51"
       inkscape:connector-curvature="0"
       style="fill:#ebece7" /><path
       d="m 63.6,146.9 -14,0 3.1,5.4 c 0.5,0.9 0.7,1.5 1.5,1.5 l 11,0 c 0.8,0 1.9,-0.8 1.5,-1.5 l -3.1,-5.4 z"
       id="path53"
       inkscape:connector-curvature="0"
       style="fill:#e4e4e2" /><rect
       x="50.599998"
       y="127.2"
       width="6.1999998"
       height="0.89999998"
       id="rect55"
       style="fill:#b9bcbf" /><path
       d="m 51.9,125.8 1.1,0 c 0.7,-1 1.8,-1.7 3.1,-1.7 2,0 3.7,1.6 3.7,3.7 0,2 -1.6,3.7 -3.7,3.7 -1.3,0 -2.4,-0.7 -3.1,-1.7 l 0,0.1 -1,0 c 0.8,1.5 2.3,2.5 4.1,2.5 2.6,0 4.6,-2.1 4.6,-4.6 0,-2.6 -2.1,-4.6 -4.6,-4.6 -1.9,0 -3.5,1.1 -4.2,2.6 z"
       id="path57"
       inkscape:connector-curvature="0"
       style="fill:#b9bcbf" /><path
       d="m 56.3,142.6 c -0.5,0 -1,-0.2 -1.4,-0.6 -0.4,-0.4 -0.6,-0.9 -0.6,-1.4 0,-1.1 0.9,-1.9 1.9,-1.9 l 0,0 0,0 c 0.5,0 1,0.2 1.4,0.6 0.4,0.4 0.6,0.9 0.6,1.4 0,0.5 -0.2,1 -0.6,1.4 -0.3,0.3 -0.8,0.5 -1.3,0.5 l 0,0 z"
       id="path59"
       inkscape:connector-curvature="0"
       style="fill:#b2d42e" /><path
       d="m 56.3,139.5 c -0.7,0 -1.2,0.5 -1.2,1.2 0,0.3 0.1,0.6 0.4,0.9 0.2,0.2 0.5,0.4 0.9,0.4 l 0,0 c 0.3,0 0.6,-0.1 0.9,-0.4 0.2,-0.2 0.4,-0.5 0.4,-0.9 0,-0.3 -0.1,-0.6 -0.4,-0.9 -0.4,-0.2 -0.7,-0.3 -1,-0.3 l 0,0 0,0 z"
       id="path61"
       inkscape:connector-curvature="0"
       style="fill:#d2eb76" /><path
       d="m 92.4,146.9 -0.9,-27.3 c 0,-2 1.3,-3.6 3,-3.6 l 8.4,0 c 1.6,0 3,1.6 3,3.5 l 0.9,27.4 -14.4,0 z"
       id="path63"
       inkscape:connector-curvature="0"
       style="fill:#ffffff" /><path
       d="m 97.8,155.1 c -1.5,0 -2.1,-1.3 -2.4,-2.1 l -0.1,-0.3 -2.8,-5.8 14.4,0 2,4 c 0.4,0.8 0.4,1.8 0,2.5 -0.5,1 -1.5,1.6 -2.5,1.6 l -8.6,0 z"
       id="path65"
       inkscape:connector-curvature="0"
       style="fill:#edefea" /><path
       d="m 93.3,146.9 -0.9,-27.2 c 0,-0.9 0.7,-1.7 1.5,-1.7 l 9.2,0 c 0.8,0 1.5,0.8 1.5,1.7 l 0.9,27.2 -12.2,0 z"
       id="path67"
       inkscape:connector-curvature="0"
       style="fill:#ebece7" /><path
       d="m 105.5,146.9 -12.2,0 2.7,5.4 c 0.4,0.9 0.6,1.5 1.3,1.5 l 9.6,0 c 0.7,0 1.7,-0.8 1.3,-1.5 l -2.7,-5.4 z"
       id="path69"
       inkscape:connector-curvature="0"
       style="fill:#e4e4e2" /><path
       d="m 446.6,146.9 1.1,-27.3 c 0,-2 -1.6,-3.6 -3.5,-3.6 l -10,0 c -1.9,0 -3.5,1.6 -3.5,3.5 l -1.1,27.4 17,0 z"
       id="path71"
       inkscape:connector-curvature="0"
       style="fill:#ffffff" /><path
       d="m 440.2,155.1 c 1.8,0 2.5,-1.3 2.9,-2.1 l 0.2,-0.3 3.4,-5.8 -17.1,0 -2.4,4 c -0.5,0.8 -0.4,1.8 0,2.5 0.6,1 1.8,1.6 3,1.6 l 10,0 z"
       id="path73"
       inkscape:connector-curvature="0"
       style="fill:#edefea" /><path
       d="m 445.6,146.9 1.1,-27.2 c 0,-0.9 -0.8,-1.7 -1.8,-1.7 l -11,0 c -1,0 -1.8,0.8 -1.8,1.7 l -1.1,27.2 14.6,0 z"
       id="path75"
       inkscape:connector-curvature="0"
       style="fill:#ebece7" /><path
       d="m 431,146.9 14.5,0 -3.2,5.4 c -0.5,0.9 -0.7,1.5 -1.6,1.5 l -11.4,0 c -0.9,0 -2,-0.8 -1.6,-1.5 l 3.3,-5.4 z"
       id="path77"
       inkscape:connector-curvature="0"
       style="fill:#e4e4e2" /><polyline
       points="227.6,114.8 227.6,116.4 267.8,116.4 267.8,114.8 227.6,114.8 227.6,114.8  "
       id="polyline79"
       style="fill:#808080" /><path
       d="m 344.9,146.9 -1.1,0 c 0,1.6 -1,7.3 -2.6,7.3 l -93.4,0 -93.4,0 c -1.6,0 -2.6,-5.7 -2.6,-7.3 l -1.1,0 c 0,1.6 1.3,7.8 2.9,7.8 l 94.3,0 94.1,0 c 1.6,0 2.9,-6.3 2.9,-7.8"
       id="path81"
       inkscape:connector-curvature="0"
       style="fill:#848381" /><path
       d="m 338.8,114 -58.2,0 -32.9,0 -32.9,0 -58.2,0 c -3.7,0 -6.1,3.6 -6.1,7.5 l 0,25.4 0,0 1.1,0 0,0 -0.3,-25.1 c 0,-3.5 2,-6.7 5.2,-6.7 l 58.2,0 12.8,0 0,-0.3 0,0 40.2,0 0,0.3 12.8,0 58.2,0 c 3.2,0 5.2,3.2 5.2,6.7 l -0.3,25.1 0,0 1.1,0 0,0 0,-25.4 c 0.2,-3.9 -2.2,-7.5 -5.9,-7.5"
       id="path83"
       inkscape:connector-curvature="0"
       style="fill:#8a8b8a" /><polyline
       points="267.8,114.8 227.6,114.8 227.6,114.8 227.6,115 247.7,115 267.8,115 267.8,114.8  "
       id="polyline85"
       style="fill:#595959" /><polygon
       points="435.9,132 440.4,128.4 440.4,135.6 "
       id="polygon87"
       style="fill:#bdbbb8" /><rect
       x="441.70001"
       y="128.39999"
       width="1.2"
       height="7.1999998"
       id="rect89"
       style="fill:#bdbbb8" /><path
       d="m 247.7,0 18.6,0 49.9,0 113.3,0 c 1,0 2.1,0.3 3,0.8 l 61.2,36.6 -246,0 -246,0 L 62.9,0.8 C 63.8,0.3 64.8,0 65.9,0 l 113.3,0 49.9,0 18.6,0 z"
       id="path91"
       inkscape:connector-curvature="0"
       style="fill:#ebeae8" /><path
       d="m 467.5,32.5 -439.6,0 0,-0.1 c 0,0 0,0 0.1,-0.1 l 0,0 c 0.4,-0.3 1.9,-1.2 7.2,-4.4 l 39.7,-23.7 345.7,0 0,0 39.5,23.7 c 5.3,3.2 6.8,4.1 7.2,4.4 l 0,0 c 0.2,0.1 0.2,0.1 0.2,0.1 l 0,0.1 z m -438.9,-0.3 438.2,0 C 462,29.3 421.9,5.3 420.4,4.4 L 75,4.4 c -1.4,0.9 -41.6,25 -46.4,27.8 z"
       id="path93"
       inkscape:connector-curvature="0"
       style="fill:#bdbbb8" /><rect
       x="10.1"
       y="32.200001"
       width="18"
       height="0.30000001"
       id="rect95"
       style="fill:#bdbbb8" /><rect
       x="467.39999"
       y="32.200001"
       width="18"
       height="0.30000001"
       id="rect97"
       style="fill:#bdbbb8" /></g><g
     id="g3432"
     transform="matrix(1.5587135,0,0,1.5587135,534.7691,0)"><g
       id="g3434"><path
         id="path3436"
         d="M 84.7,169.4 C 38,169.4 0,131.4 0,84.7 0,38 38,0 84.7,0 c 46.7,0 84.7,38 84.7,84.7 0,46.7 -38,84.7 -84.7,84.7 z m 0,-169.3 c -46.6,0 -84.6,38 -84.6,84.6 0,46.6 37.9,84.5 84.5,84.5 46.6,0 84.5,-37.9 84.5,-84.5 C 169.2,38.1 131.3,0.1 84.7,0.1 Z"
         inkscape:connector-curvature="0"
         style="fill:#0f1317" /></g><path
       id="path3438"
       d="m 166.9,84.7 c 0,45.4 -36.8,82.2 -82.2,82.2 C 39.3,166.9 2.5,130.1 2.5,84.7 2.5,39.3 39.3,2.5 84.7,2.5 c 45.4,0 82.2,36.8 82.2,82.2 z m -82.2,-21 c -11.6,0 -21,9.4 -21,21 0,11.6 9.4,21 21,21 11.6,0 21,-9.4 21,-21 0,-11.6 -9.4,-21 -21,-21 z"
       inkscape:connector-curvature="0"
       style="fill:#005c9b" /><path
       id="path3440"
       d="M 66.6,112.4"
       stroke-miterlimit="10"
       inkscape:connector-curvature="0"
       style="fill:none;stroke:#7ac143;stroke-miterlimit:10" /><path
       id="path3442"
       d="M 84.7,117.8"
       stroke-miterlimit="10"
       inkscape:connector-curvature="0"
       style="fill:none;stroke:#7ac143;stroke-miterlimit:10" /><path
       id="path3444"
       d="M 98.8,54.7"
       stroke-miterlimit="10"
       inkscape:connector-curvature="0"
       style="fill:none;stroke:#7ac143;stroke-miterlimit:10" /><path
       id="path3446"
       d="M 84.7,51.6"
       stroke-miterlimit="10"
       inkscape:connector-curvature="0"
       style="fill:none;stroke:#7ac143;stroke-miterlimit:10" /><path
       id="path3448"
       d="M 51.6,84.7"
       stroke-miterlimit="10"
       inkscape:connector-curvature="0"
       style="fill:none;stroke:#7ac143;stroke-miterlimit:10" /><path
       id="path3450"
       d="M 51.9,89.2"
       stroke-miterlimit="10"
       inkscape:connector-curvature="0"
       style="fill:none;stroke:#7ac143;stroke-miterlimit:10" /><g
       id="g3452"><path
         id="path3454"
         d="M 84.7,99.4 C 76.6,99.4 70,92.8 70,84.7 70,76.6 76.6,70 84.7,70 c 8.1,0 14.7,6.6 14.7,14.7 0,8.1 -6.6,14.7 -14.7,14.7 z M 84.7,71 C 77.1,71 71,77.1 71,84.7 c 0,7.5 6.1,13.7 13.7,13.7 7.5,0 13.7,-6.1 13.7,-13.7 C 98.4,77.1 92.2,71 84.7,71 Z"
         inkscape:connector-curvature="0"
         style="fill:#a299a1" /></g><g
       id="g3456"><path
         id="path3458"
         d="m 84.7,96.5 c -6.5,0 -11.8,-5.3 -11.8,-11.8 0,-6.5 5.3,-11.8 11.8,-11.8 6.5,0 11.8,5.3 11.8,11.8 0,6.5 -5.3,11.8 -11.8,11.8 z m 0,-22.7 c -6,0 -10.8,4.9 -10.8,10.8 0,6 4.9,10.8 10.8,10.8 6,0 10.8,-4.9 10.8,-10.8 0,-5.9 -4.8,-10.8 -10.8,-10.8 z"
         inkscape:connector-curvature="0"
         style="fill:#a299a1" /></g><path
       d="M 24.3,91.9 C 23.7,91.7 23.1,91.2 22.8,90.5 22.6,90.1 22,87.8 19.8,79.8 l -0.3,-1.2 1.5,0 c 0.8,0 1.5,0 1.5,0 0,0 0.6,2.2 1.3,4.9 l 1.2,4.8 0.6,-2.2 c 1.4,-5.3 1.6,-6.2 1.8,-6.5 0.2,-0.5 0.6,-0.9 1.1,-1 0.3,-0.1 0.9,-0.1 1.1,0 0.5,0.1 1,0.5 1.2,1.1 0.1,0.3 0.4,1.5 1.6,5.8 0.4,1.5 0.7,2.7 0.7,2.7 0,0 0.5,-1.8 1.3,-4.8 l 1.2,-4.8 1.5,0 c 1.2,0 1.5,0 1.5,0 0,0 -0.3,1.2 -0.7,2.6 -1.9,6.7 -2.5,9 -2.7,9.4 -0.3,0.7 -0.8,1.1 -1.5,1.3 -0.3,0.1 -0.8,0.1 -1.1,0 -0.4,-0.1 -0.6,-0.2 -0.9,-0.5 -0.2,-0.2 -0.3,-0.3 -0.4,-0.6 -0.2,-0.4 -0.4,-1.1 -1.7,-6 -0.3,-1.1 -0.6,-2.1 -0.6,-2.1 0,0 -0.3,1.1 -0.7,2.5 -0.8,3 -1.3,4.6 -1.4,5.1 -0.3,0.9 -0.8,1.5 -1.5,1.7 -0.3,0 -0.9,0 -1.1,-0.1 z m 15.8,-4.6 0,-4.6 1.4,0 1.5,0 0,4.6 0,4.6 -1.4,0 -1.4,0 0,-4.6 z m 5.8,0 0,-4.6 1.4,0 1.4,0 0,4.6 0,4.6 -1.4,0 -1.4,0 0,-4.6 z m 4,4.1 0,-0.4 -0.2,0 c -0.2,0 -0.2,0 -0.2,-0.1 l 0,-0.1 0.5,0 0.4,0 0,0.1 c 0,0.1 0,0.1 -0.2,0.1 l -0.2,0 0,0.5 0,0.5 0,0 -0.1,0 0,-0.6 z m 0.6,0 0,-0.5 0.2,0 0.2,0 0.1,0.3 c 0.1,0.2 0.1,0.4 0.1,0.4 0,0.1 0.1,0 0.2,-0.4 l 0.1,-0.3 0.2,0 0.2,0 0,0.5 0,0.5 -0.1,0 -0.1,0 0,-0.4 c 0,-0.4 0,-0.4 -0.2,0.1 -0.1,0.3 -0.1,0.3 -0.2,0.3 -0.1,0 -0.1,0 -0.2,-0.4 l -0.1,-0.4 0,0.4 0,0.4 -0.1,0 -0.1,0 0,-0.5 z M 41.2,81 c -0.7,-0.1 -1.2,-0.7 -1.3,-1.3 -0.1,-0.8 0.4,-1.6 1.2,-1.8 0.4,-0.1 0.9,-0.1 1.3,0.1 0.2,0.1 0.6,0.4 0.7,0.7 0.4,0.7 0.2,1.7 -0.5,2.1 -0.4,0.2 -1,0.3 -1.4,0.2 z m 5.8,0 c -0.8,-0.2 -1.4,-1 -1.3,-1.8 0.1,-0.6 0.6,-1.2 1.2,-1.3 0.4,-0.1 0.9,-0.1 1.3,0.1 0.2,0.1 0.5,0.4 0.7,0.6 0.4,0.7 0.2,1.7 -0.5,2.1 C 48,81 47.4,81.1 47,81 Z M 18.6,77.4"
       id="path1363"
       inkscape:connector-curvature="0"
       style="fill:#c1cdcc" /><circle
       id="circle3461"
       r="21"
       cy="84.699997"
       cx="84.699997"
       stroke-miterlimit="10"
       style="fill:none;stroke:#2b84c6;stroke-miterlimit:10" /><g
       id="g3463"><path
         id="path3465"
         d="m 74.8,152 c -2.1,0 -3.5,-1.5 -3.5,-3.4 0,-1.9 1.4,-3.4 3.5,-3.4 l 19.8,0 c 2.1,0 3.5,1.5 3.5,3.4 0,1.9 -1.4,3.4 -3.5,3.4 l -19.8,0 0,0 z m 0,-6 c -1.7,0 -2.7,1.2 -2.7,2.6 0,1.4 1,2.6 2.7,2.6 l 19.8,0 c 1.7,0 2.7,-1.1 2.7,-2.6 0,-1.4 -1,-2.6 -2.7,-2.6 l -19.8,0 z"
         inkscape:connector-curvature="0"
         style="fill:#c1cdcc" /><path
         d="m 73.9,146.9 1,0 1.3,2.2 0,-2.2 1,0 0,3.2 -1,0 -1.3,-2.2 0,2.2 -1,0 0,-3.2 0,0 z"
         id="path456_2_"
         inkscape:connector-curvature="0"
         style="fill:#c1cdcc" /><path
         d="m 82.4,147.3 0.9,0 0,0.4 0.5,0 0,0.3 -0.5,0 0,2.1 -0.9,0 0,-2.1 -0.5,0 0,-0.3 0.5,0 0,-0.4 0,0 z"
         id="path458_2_"
         inkscape:connector-curvature="0"
         style="fill:#c1cdcc" /><path
         d="m 77.7,148 0.9,0 0,2.1 -0.9,0 0,-2.1 z"
         id="path460_2_"
         inkscape:connector-curvature="0"
         style="fill:#c1cdcc" /><path
         d="m 77.7,146.9 0.9,0 0,0.7 -0.9,0 0,-0.7 z"
         id="path462_2_"
         inkscape:connector-curvature="0"
         style="fill:#c1cdcc" /><path
         d="m 94.1,147.9 c -0.8,0 -1.4,0.5 -1.4,1.2 0,0.7 0.6,1.2 1.4,1.2 0.8,0 1.4,-0.5 1.4,-1.2 0,-0.7 -0.6,-1.2 -1.4,-1.2 m 0.4,1.2 c 0,0 0,0.3 0,0.5 0,0.3 -0.2,0.5 -0.4,0.5 -0.2,0 -0.4,-0.1 -0.4,-0.5 0,-0.1 0,-0.5 0,-0.5 0,0 0,-0.3 0,-0.4 0,-0.3 0.2,-0.5 0.4,-0.5 0.2,0 0.4,0.1 0.4,0.5 0,0 0,0.3 0,0.4 l 0,0 0,0 z"
         id="path464_2_"
         inkscape:connector-curvature="0"
         style="fill:#c1cdcc" /><path
         d="m 91.6,149.1 0,-0.4 c 0,-0.3 -0.2,-0.4 -0.4,-0.4 -0.1,0 -0.4,0.1 -0.4,0.4 l 0,0.4 0,0.4 c 0,0.3 0.2,0.4 0.4,0.4 0.1,0 0.4,-0.1 0.4,-0.4 l 0,-0.4 0,0 z m -0.1,-2.2 0.9,0 0,3.2 -0.9,0 c 0,0 0,-0.1 0,-0.1 -0.4,0.2 -0.8,0.2 -1.1,0.1 -0.1,0 -0.6,-0.3 -0.6,-1.1 0,-0.6 0.5,-1.2 1.2,-1.1 0.2,0 0.4,0.1 0.5,0.2 l 0,-1.2 0,0 z"
         id="path466_2_"
         inkscape:connector-curvature="0"
         style="fill:#c1cdcc" /><path
         d="m 80.9,147.9 c 0.4,0 1.1,0.2 1.1,1.1 0,0.2 0,1.2 0,1.2 l -1,0 0,-1.4 c 0,-0.2 -0.2,-0.4 -0.4,-0.4 -0.3,0 -0.4,0.2 -0.4,0.4 0,0.1 0,1.4 0,1.4 l -0.9,0 0,-2.1 0.9,0 c 0,0 0,0.2 0,0.2 0.1,-0.2 0.4,-0.4 0.7,-0.4"
         id="path468_2_"
         inkscape:connector-curvature="0"
         style="fill:#c1cdcc" /><path
         d="m 88.5,147.9 c 0.4,0 1.1,0.2 1.1,1.1 0,0.2 0,1.2 0,1.2 l -0.9,0 0,-1.4 c 0,-0.2 -0.2,-0.4 -0.4,-0.4 -0.3,0 -0.4,0.2 -0.4,0.4 0,0.1 0,1.4 0,1.4 l -0.9,0 0,-2.2 0.9,0 c 0,0 0,0.2 0,0.2 0,-0.1 0.3,-0.3 0.6,-0.3"
         id="path470_2_"
         inkscape:connector-curvature="0"
         style="fill:#c1cdcc" /><path
         d="m 85.5,149.4 c 0,0 0,0 0,0.1 0,0.4 -0.2,0.5 -0.4,0.5 -0.1,0 -0.4,-0.1 -0.4,-0.5 0,-0.1 0,-0.4 0,-0.4 0,0 1.8,0 1.8,0 0,-0.7 -0.6,-1.2 -1.4,-1.2 -0.8,0 -1.4,0.5 -1.4,1.2 0,0.7 0.6,1.2 1.4,1.2 0.6,0 1.2,-0.4 1.3,-0.9 l -0.9,0 0,0 z m -0.8,-0.6 c 0,-0.2 0,-0.3 0.1,-0.4 0.1,-0.1 0.2,-0.2 0.3,-0.2 0.1,0 0.3,0.1 0.3,0.2 0.1,0.1 0.1,0.2 0.1,0.4 l -0.8,0 z"
         id="path472_2_"
         inkscape:connector-curvature="0"
         style="fill:#c1cdcc" /><path
         d="m 95.7,147.3 c 0.1,0 0.2,0 0.2,-0.1 0,-0.1 -0.1,-0.1 -0.2,-0.1 l -0.1,0 0,0.2 0.1,0 z m -0.1,0.4 -0.1,0 0,-0.7 0.3,0 c 0.2,0 0.3,0.1 0.3,0.2 0,0.1 -0.1,0.2 -0.2,0.2 l 0.2,0.3 -0.1,0 -0.2,-0.3 -0.1,0 -0.1,0.3 0,0 z"
         id="path474_2_"
         inkscape:connector-curvature="0"
         style="fill:#c1cdcc" /><path
         d="m 95.7,147.9 c 0.3,0 0.5,-0.2 0.5,-0.5 0,-0.3 -0.2,-0.5 -0.5,-0.5 -0.3,0 -0.5,0.2 -0.5,0.5 0,0.2 0.2,0.5 0.5,0.5 m -0.6,-0.6 c 0,-0.4 0.3,-0.6 0.6,-0.6 0.3,0 0.6,0.3 0.6,0.6 0,0.4 -0.3,0.6 -0.6,0.6 -0.3,0.1 -0.6,-0.2 -0.6,-0.6"
         id="path476_2_"
         inkscape:connector-curvature="0"
         style="fill:#c1cdcc" /></g><g
       id="g3478"><path
         id="path3480"
         d="m 125.3,79.3 c 4.2,0 7.7,2.4 7.7,5.3 0,2.9 -3.4,5.3 -7.7,5.3 -4.2,0 -7.7,-2.4 -7.7,-5.3 0.1,-2.9 3.5,-5.3 7.7,-5.3 z"
         inkscape:connector-curvature="0"
         style="fill:#ffffff" /><g
         id="g3482"><g
           id="g3484"><path
             id="path3486"
             d="m 123.7,87.8 0.2,0 0,0 c 0,0.1 0,0.1 0.1,0.2 0,0 0.1,0.1 0.2,0.1 0.1,0 0.1,0 0.2,0 0,0 0.1,-0.1 0.1,-0.1 0,0 0,-0.1 0,-0.1 0,0 -0.1,0 -0.1,0 l -0.2,0 c -0.1,0 -0.2,-0.1 -0.3,-0.1 -0.1,-0.1 -0.1,-0.1 -0.1,-0.3 0,-0.1 0,-0.2 0.1,-0.3 0.1,-0.1 0.2,-0.1 0.3,-0.1 0.1,0 0.3,0 0.3,0.1 0.1,0.1 0.1,0.2 0.1,0.3 l 0,0 -0.2,0 c 0,-0.1 0,-0.1 -0.1,-0.1 0,0 -0.1,0 -0.2,0 -0.1,0 -0.1,0 -0.2,0 0,0 -0.1,0.1 -0.1,0.1 0,0 0,0.1 0,0.1 0,0 0.1,0 0.2,0 l 0.2,0 c 0.1,0 0.2,0.1 0.3,0.1 0.1,0.1 0.1,0.2 0.1,0.3 0,0.1 0,0.3 -0.1,0.3 -0.1,0 -0.2,0.1 -0.4,0.1 -0.2,0 -0.3,0 -0.4,-0.1 0,-0.2 0,-0.3 0,-0.5 l 0,0 0,0 0,0 z"
             inkscape:connector-curvature="0"
             style="fill:#a58353" /><path
             id="path3488"
             d="m 125.6,87.9 c 0,0.1 -0.1,0.2 -0.1,0.3 -0.1,0.1 -0.2,0.1 -0.3,0.1 -0.1,0 -0.2,0 -0.3,-0.1 -0.1,-0.1 -0.1,-0.2 -0.1,-0.4 0,-0.2 0,-0.3 0.1,-0.4 0.1,-0.1 0.2,-0.1 0.3,-0.1 0.1,0 0.2,0 0.3,0.1 0.1,0.1 0.1,0.2 0.1,0.4 l 0,0.1 -0.6,-0.1 c 0,0.1 0,0.1 0,0.2 0,0 0.1,0.1 0.1,0.1 0,0 0.1,0 0.1,0 0,0 0.1,-0.1 0.1,-0.1 l 0.3,-0.1 0,0 z m -0.6,-0.3 0.3,0 c 0,-0.1 0,-0.1 -0.1,-0.1 0,0 -0.1,-0.1 -0.1,-0.1 0,0 -0.1,0 -0.1,0.1 0,0 0,0.1 0,0.1 z"
             inkscape:connector-curvature="0"
             style="fill:#a58353" /><path
             id="path3490"
             d="m 126.5,88.1 c 0,0 0,0.1 0,0 0,0.1 0,0.1 0,0.1 l 0,0 -0.2,0 0,-0.1 c 0,0 -0.1,0.1 -0.1,0.1 0,0 -0.1,0 -0.2,0 -0.1,0 -0.2,0 -0.2,-0.1 -0.1,-0.1 -0.1,-0.1 -0.1,-0.2 0,-0.1 0,-0.2 0.1,-0.2 0,0 0.1,-0.1 0.3,-0.1 0,0 0,0 0.1,0 0.1,0 0.2,-0.1 0.2,-0.1 0,0 0,-0.1 0,-0.1 0,0 -0.1,0 -0.1,0 -0.1,0 -0.1,0 -0.1,0 0,0 0,0.1 0,0.1 l -0.2,0 0,0 c 0,-0.1 0,-0.2 0.1,-0.3 0.1,-0.1 0.2,-0.1 0.3,-0.1 0.1,0 0.1,0 0.2,0 0,0 0.1,0 0.1,0.1 0,0 0,0.1 0.1,0.1 0,0 0,0.1 0,0.2 l -0.3,0.6 0,0 z m -0.2,-0.3 c 0,0 -0.1,0 -0.2,0 0,0 0,0 0,0 -0.1,0 -0.1,0 -0.2,0 0,0 0,0 0,0.1 0,0 0,0.1 0,0.1 0,0 0,0 0.1,0 0.1,0 0.1,0 0.2,-0.1 0.1,0.1 0.1,0 0.1,-0.1 0,0 0,0 0,0 0,0 0,0 0,0 z"
             inkscape:connector-curvature="0"
             style="fill:#a58353" /><path
             id="path3492"
             d="m 126.7,88.2 0,-1.3 0.2,0 0,1.3 -0.2,0 z"
             inkscape:connector-curvature="0"
             style="fill:#a58353" /></g></g><path
         id="path3494"
         d="m 133.9,84.6 0.9,1 -1.3,0.8 0.4,1.5 -1.4,0 -0.1,1.7 -1.6,-0.4 -0.3,1.6 -1.5,-0.6 -0.8,1.4 -1.1,-1 -1,1.4 -1.1,-1.2 -1.2,1.1 -0.8,-1.3 -1.4,0.8 -0.5,-1.5 -1.6,0.6 -0.2,-1.4 -1.5,0.1 0.2,-1.5 -1.5,0 0.3,-1.6 -1.2,-0.6 0.9,-1 -0.8,-1.5 1.3,-0.4 -0.4,-1.6 1.5,0 0.2,-1.5 1.3,0.4 0.4,-1.5 1.3,0.7 0.6,-1.3 1.2,0.8 0.8,-1.3 1.1,1.1 1,-1 0.9,1.3 1.3,-0.9 0.5,1.4 1.3,-0.6 0.3,1.5 1.6,-0.3 0,1.4 1.6,0.2 -0.5,1.4 1.4,0.6 -0.5,1.2 z m -0.9,0 c 0,-2.9 -3.4,-5.3 -7.7,-5.3 -4.2,0 -7.7,2.4 -7.7,5.3 0,2.9 3.4,5.3 7.7,5.3 4.2,0.1 7.7,-2.3 7.7,-5.3 z"
         inkscape:connector-curvature="0"
         style="fill:#a58353" /><g
         id="g3496"><g
           id="g3498"><path
             id="path3500"
             d="m 122.8,81.9 c 0,-0.4 0.2,-0.4 0.3,-0.4 0.1,0 0.3,0.1 0.3,0.4 0,0.4 -0.2,0.4 -0.3,0.4 -0.1,0 -0.3,0 -0.3,-0.4 l 0,0 z m -0.3,0 c 0,0.6 0.4,0.7 0.6,0.7 0.2,0 0.6,-0.1 0.6,-0.7 0,-0.6 -0.4,-0.7 -0.6,-0.7 -0.2,0 -0.6,0.1 -0.6,0.7 l 0,0 z"
             inkscape:connector-curvature="0"
             style="fill:#a58353" /><path
             id="path3502"
             d="m 124.2,82.5 -0.2,0 0,-0.8 -0.1,0 0,-0.2 0.1,0 0,-0.1 c 0,-0.2 0.1,-0.3 0.3,-0.3 0.1,0 0.1,0 0.1,0 l 0,0.2 -0.1,0 c -0.1,0 -0.1,0 -0.1,0.1 l 0,0 0.2,0 0,0.2 -0.2,0 0,0.9 0,0 z"
             inkscape:connector-curvature="0"
             style="fill:#a58353" /><path
             id="path3504"
             d="m 124.7,82.5 -0.2,0 0,-0.8 -0.1,0 0,-0.2 0.1,0 0,-0.1 c 0,-0.2 0.1,-0.3 0.3,-0.3 0.1,0 0.1,0 0.1,0 l 0,0.2 -0.1,0 c -0.1,0 -0.1,0 -0.1,0.1 l 0,0 0.2,0 0,0.2 -0.2,0 0,0.9 0,0 z"
             inkscape:connector-curvature="0"
             style="fill:#a58353" /><path
             id="path3506"
             d="m 125.2,81.6 0,0.9 -0.2,0 0,-0.9 0.2,0 0,0 z m 0,-0.1 -0.2,0 0,-0.2 0.2,0 0,0.2 0,0 z"
             inkscape:connector-curvature="0"
             style="fill:#a58353" /><path
             id="path3508"
             d="m 126.2,82.2 c 0,0.1 -0.1,0.4 -0.4,0.4 -0.4,0 -0.4,-0.3 -0.4,-0.5 0,-0.3 0.1,-0.5 0.4,-0.5 0.1,0 0.4,0.1 0.4,0.4 l -0.2,0 c 0,-0.1 0,-0.2 -0.2,-0.2 -0.2,0 -0.2,0.2 -0.2,0.3 0,0.1 0,0.3 0.2,0.3 0.1,0 0.2,-0.1 0.2,-0.2 l 0.2,0 0,0 z"
             inkscape:connector-curvature="0"
             style="fill:#a58353" /><path
             id="path3510"
             d="m 126.6,81.6 0,0.9 -0.2,0 0,-0.9 0.2,0 0,0 z m 0,-0.1 -0.2,0 0,-0.2 0.2,0 0,0.2 0,0 z"
             inkscape:connector-curvature="0"
             style="fill:#a58353" /><path
             id="path3512"
             d="m 127.4,82.2 c 0,0.1 -0.1,0.2 -0.2,0.2 0,0 -0.1,0 -0.1,-0.1 0,-0.1 0.1,-0.1 0.2,-0.1 0.1,0 0.1,0 0.2,-0.1 l 0,0.1 -0.1,0 z m 0.2,-0.4 c 0,-0.2 -0.2,-0.3 -0.4,-0.3 -0.2,0 -0.4,0 -0.4,0.3 l 0.2,0 c 0,-0.1 0,-0.1 0.2,-0.1 0.1,0 0.2,0 0.2,0.1 0,0.1 0,0.1 -0.1,0.1 l -0.2,0 c -0.2,0 -0.3,0.1 -0.3,0.3 0,0.2 0.1,0.3 0.3,0.3 0.2,0 0.2,-0.1 0.3,-0.1 0,0.1 0,0.1 0,0.1 l 0.3,0 0,0 c 0,0 -0.1,0 -0.1,-0.1 l 0,-0.6 0,0 z"
             inkscape:connector-curvature="0"
             style="fill:#a58353" /><polygon
             id="polygon3514"
             points="128,81.3 128,82.5 127.8,82.5 127.8,81.3 "
             style="fill:#a58353" /></g></g><path
         id="path3516"
         d="m 125.3,89.5 c 4,0 7.2,-2.2 7.2,-4.9 0,-2.7 -3.2,-4.9 -7.2,-4.9 -4,0 -7.2,2.2 -7.2,4.9 0,2.7 3.3,4.9 7.2,4.9 l 0,0 z m -7,-4.9 c 0,-2.6 3.1,-4.7 7,-4.7 3.9,0 7,2.1 7,4.7 0,2.6 -3.1,4.7 -7,4.7 -3.8,0.1 -7,-2.1 -7,-4.7 l 0,0 z"
         inkscape:connector-curvature="0"
         style="fill:#a58353" /><g
         id="g3518"><g
           id="g3520"><path
             id="path3522"
             d="m 129.8,86.3 c 0.8,0 1.5,-0.7 1.5,-1.5 0,-0.8 -0.7,-1.5 -1.5,-1.5 l -9.1,0 c -0.8,0 -1.5,0.7 -1.5,1.5 0,0.8 0.7,1.5 1.5,1.5 l 9.1,0 0,0 z m -9.1,-0.4 c -0.6,0 -1.1,-0.5 -1.1,-1.1 0,-0.6 0.5,-1.1 1.1,-1.1 l 9.1,0 c 0.6,0 1.1,0.5 1.1,1.1 0,0.6 -0.5,1.1 -1.1,1.1 l -9.1,0 0,0 z"
             inkscape:connector-curvature="0"
             style="fill:#a58353" /><path
             id="path3524"
             d="m 120.3,85.5 0,-1.4 0.4,0 0.6,0.9 0,-0.9 0.5,0 0,1.4 c 0,0 -0.3,0 -0.5,0 0,-0.1 -0.6,-0.9 -0.6,-0.9 l 0,0.9 -0.4,0 0,0 z"
             inkscape:connector-curvature="0"
             style="fill:#a58353" /><path
             id="path3526"
             d="m 123.2,84.5 c 0,0.1 0,0.1 0,0 0.1,0 0.1,0 0.2,0 0.4,-0.1 0.5,0.1 0.6,0.1 0.2,0.1 0.1,0.6 0.1,0.9 0,0 -0.5,0 -0.5,0 0,0 0,-0.6 0,-0.7 0,-0.1 -0.1,-0.2 -0.2,-0.2 -0.1,0 -0.2,0 -0.2,0.2 0,0.2 0,0.7 0,0.7 l -0.5,0 0,-1 0.5,0 0,0 z"
             inkscape:connector-curvature="0"
             style="fill:#a58353" /><polygon
             id="polygon3528"
             points="124.7,85.5 124.2,85.5 124.2,84.6 124,84.6 124,84.4 124.2,84.4 124.2,84.3 124.7,84.3 124.7,84.4 124.9,84.4 124.9,84.6 124.7,84.6 "
             style="fill:#a58353" /><path
             id="path3530"
             d="m 124.9,85 c 0,-0.3 0.3,-0.5 0.5,-0.5 0.1,0 0.2,0 0.3,0 0.1,0 0.1,0 0.2,0.1 0.1,0.1 0.2,0.2 0.2,0.4 l -0.8,0 c 0,0.1 -0.1,0.4 0.1,0.4 0.1,0 0.1,0 0.2,-0.1 0,-0.1 0,-0.1 0,-0.2 0.1,0 0.4,0 0.5,0 -0.1,0.3 -0.4,0.4 -0.6,0.4 -0.1,0 -0.6,0 -0.6,-0.5 l 0,0 z m 0.5,-0.1 0.3,0 c 0,-0.1 0,-0.1 0,-0.1 0,-0.1 -0.1,-0.1 -0.2,-0.1 -0.1,0 -0.2,0.1 -0.2,0.2 0.1,-0.1 0.1,-0.1 0.1,0 l 0,0 z"
             inkscape:connector-curvature="0"
             style="fill:#a58353" /><path
             id="path3532"
             d="m 129.2,85.2 c -0.1,-0.1 -0.1,-0.3 0,-0.5 0.1,-0.1 0.2,-0.2 0.3,-0.3 0.1,0 0.3,-0.1 0.5,0 0.1,0 0.3,0.1 0.4,0.3 0.1,0.1 0.1,0.4 0,0.5 -0.1,0.1 -0.2,0.2 -0.3,0.2 -0.1,0 -0.4,0 -0.5,0 -0.2,0 -0.3,0 -0.4,-0.2 l 0,0 z m 0.5,0.2 c 0.1,0 0.2,-0.1 0.2,-0.2 0,-0.1 0,-0.3 0,-0.5 0,-0.1 0,-0.2 -0.2,-0.2 -0.2,0 -0.2,0.1 -0.2,0.2 0,0.1 0,0.4 0,0.5 0.1,0.1 0.1,0.2 0.2,0.2 l 0,0 z"
             inkscape:connector-curvature="0"
             style="fill:#a58353" /><path
             id="path3534"
             d="m 128.9,85.5 c 0,0 -0.4,0 -0.4,0 0,0 0,-0.1 0,-0.1 -0.1,0.1 -0.6,0.1 -0.8,-0.2 0,0 -0.1,-0.3 0,-0.4 0.1,-0.2 0.4,-0.3 0.5,-0.3 0.1,0 0.2,0.1 0.2,0.1 l 0,-0.5 0.4,0 c 0.1,-0.1 0.1,1.4 0.1,1.4 l 0,0 z m -0.4,-0.2 c 0,0 0,-0.3 0,-0.5 0,0 0,-0.1 0,-0.1 0,0 -0.1,-0.1 -0.1,-0.1 -0.1,0 -0.1,0.1 -0.1,0.1 0,0.1 0,0.3 0,0.4 0,0 0,0.1 0.1,0.1 0,0.2 0.1,0.1 0.1,0.1 l 0,0 z"
             inkscape:connector-curvature="0"
             style="fill:#a58353" /><polygon
             id="polygon3536"
             points="122,85.5 122.5,85.5 122.5,84.5 122,84.5 "
             style="fill:#a58353" /><polygon
             id="polygon3538"
             points="122,84.4 122.5,84.4 122.5,84.1 122,84.1 "
             style="fill:#a58353" /><path
             id="path3540"
             d="m 126.7,84.5 c 0.1,0.1 0.1,0.1 0,0 0.1,0 0.1,0 0.2,0 0.4,-0.1 0.5,0.1 0.6,0.1 0.2,0.1 0.1,0.6 0.1,0.9 0,0 -0.5,0 -0.5,0 0,0 0,-0.6 0,-0.7 0,-0.1 -0.1,-0.2 -0.2,-0.2 -0.1,0 -0.2,0 -0.2,0.2 0,0.2 0,0.7 0,0.7 l -0.4,0 0,-1 0.4,0 0,0 z"
             inkscape:connector-curvature="0"
             style="fill:#a58353" /><path
             id="path3542"
             d="m 130.1,84.4 0,0 0,-0.1 0.1,0 c 0,0 0.1,0 0.1,0 -0.1,0 -0.1,0 -0.2,0.1 l 0,0 0,0 0,0 0,0 0,0 0,0 z m 0,-0.1 c 0.1,0 0.1,0 0,0 0.1,0 0.1,0 0,0 l 0,0 0,0 0,0 0,0 z m 0,0.1 c -0.1,0 -0.1,0 -0.1,-0.1 0,-0.1 0.1,-0.1 0.1,-0.1 0.1,0 0.1,0 0.1,0.1 0.1,0.1 0,0.1 -0.1,0.1 l 0,0 z m 0,-0.2 c -0.1,0 -0.1,0 -0.1,0.1 0,0.1 0,0.1 0.1,0.1 l 0,0 c 0.1,0 0.1,0 0.1,-0.1 0,-0.1 0,-0.1 -0.1,-0.1 l 0,0 z"
             inkscape:connector-curvature="0"
             style="fill:#a58353" /></g></g></g><g
       id="g3544"><rect
         id="rect3546"
         height="16.799999"
         width="11.7"
         y="76.300003"
         x="145.7"
         style="fill:#010101" /><rect
         id="rect3548"
         height="10.4"
         width="10.5"
         y="79.099998"
         x="146.3"
         style="fill:#ffffff" /><path
         id="path3550"
         d="m 146.8,90.5 c 0,0 0,0 0,0 0,0.2 -0.1,0.4 -0.3,0.4 -0.3,0 -0.3,-0.2 -0.3,-0.4 l 0,-0.1 c 0,-0.2 0,-0.4 0.3,-0.4 0.2,0 0.3,0.1 0.3,0.2 0,0 0,0 0,0.1 l -0.2,0 c 0,-0.1 0,-0.2 -0.1,-0.2 -0.1,0 -0.1,0.2 -0.1,0.2 l 0,0.3 c 0,0.1 0,0.2 0.1,0.2 0.1,0 0.1,-0.2 0.1,-0.2 l 0.2,0 0,-0.1 z"
         inkscape:connector-curvature="0"
         style="fill:#ffffff" /><path
         id="path3552"
         d="m 147,90.3 c 0,-0.2 0,-0.4 0.3,-0.4 0.3,0 0.3,0.2 0.3,0.4 l 0,0.1 c 0,0.2 0,0.4 -0.3,0.4 -0.3,0 -0.3,-0.2 -0.3,-0.4 l 0,-0.1 z m 0.1,0.2 c 0,0.1 0,0.2 0.1,0.2 0.1,0 0.1,-0.1 0.1,-0.2 l 0,-0.2 c 0,-0.1 0,-0.2 -0.1,-0.2 -0.1,0 -0.1,0.2 -0.1,0.2 l 0,0.2 z"
         inkscape:connector-curvature="0"
         style="fill:#ffffff" /><path
         id="path3554"
         d="m 148.2,89.9 0.2,0 0,0.9 -0.2,0 -0.1,-0.3 c 0,-0.1 -0.1,-0.2 -0.1,-0.4 l 0,0 c 0,0.1 0,0.2 0,0.3 0,0.1 0,0.2 0,0.3 l 0,0.2 -0.2,0 0,-0.9 0.2,0 0.1,0.3 c 0,0.1 0.1,0.2 0.1,0.4 l 0,0 c 0,-0.1 0,-0.2 0,-0.3 0,-0.1 0,-0.2 0,-0.3 l 0,-0.2 z"
         inkscape:connector-curvature="0"
         style="fill:#ffffff" /><polygon
         id="polygon3556"
         points="148.9,90 148.9,90.8 148.7,90.8 148.7,90 148.5,90 148.5,89.9 149.1,89.9 149.1,90 "
         style="fill:#ffffff" /><polygon
         id="polygon3558"
         points="149.7,90.4 149.4,90.4 149.4,90.7 149.7,90.7 149.7,90.8 149.2,90.8 149.2,89.9 149.7,89.9 149.7,90 149.4,90 149.4,90.3 149.7,90.3 "
         style="fill:#ffffff" /><path
         id="path3560"
         d="m 150.3,89.9 0.2,0 0,0.9 -0.2,0 -0.1,-0.3 c 0,-0.1 -0.1,-0.2 -0.1,-0.4 l 0,0 c 0,0.1 0,0.2 0,0.3 0,0.1 0,0.2 0,0.3 l 0,0.2 -0.2,0 0,-0.9 0.2,0 0.1,0.3 c 0,0.1 0.1,0.2 0.1,0.4 l 0,0 c 0,-0.1 0,-0.2 0,-0.3 0,-0.1 0,-0.2 0,-0.3 l 0,-0.2 z"
         inkscape:connector-curvature="0"
         style="fill:#ffffff" /><polygon
         id="polygon3562"
         points="151,90 151,90.8 150.8,90.8 150.8,90 150.6,90 150.6,89.9 151.2,89.9 151.2,90 "
         style="fill:#ffffff" /><path
         id="path3564"
         d="m 151.8,90.4 0,0.4 -0.2,0 0,-0.9 0.3,0 c 0.2,0 0.3,0.1 0.3,0.2 0,0.1 0,0.2 -0.1,0.2 l 0,0 c 0.1,0 0.1,0.1 0.1,0.2 0,0 0,0.3 0,0.3 l 0,0 -0.2,0 c 0,-0.1 0,-0.2 0,-0.2 0,-0.1 0,-0.1 -0.1,-0.2 0,0 0,0 -0.1,0 l 0,0 0,0 z m 0,-0.1 0.1,0 c 0.1,0 0.1,0 0.1,-0.1 0,-0.1 0,-0.1 -0.1,-0.1 l -0.1,0 0,0.2 z"
         inkscape:connector-curvature="0"
         style="fill:#ffffff" /><path
         id="path3566"
         d="m 152.3,90.8 0.2,-0.9 0.2,0 0.2,0.9 -0.2,0 0,-0.2 -0.2,0 0,0.2 -0.2,0 z m 0.3,-0.3 0.2,0 0,-0.3 c 0,0 0,-0.1 0,-0.1 0,0 0,0 0,-0.1 l 0,0 c 0,0 0,0 0,0.1 0,0 0,0.1 0,0.1 l -0.2,0.3 z"
         inkscape:connector-curvature="0"
         style="fill:#ffffff" /><polygon
         id="polygon3568"
         points="153.4,90 153.4,90.8 153.2,90.8 153.2,90 153,90 153,89.9 153.6,89.9 153.6,90 "
         style="fill:#ffffff" /><polygon
         id="polygon3570"
         points="154.2,90.4 153.9,90.4 153.9,90.7 154.2,90.7 154.2,90.8 153.7,90.8 153.7,89.9 154.2,89.9 154.2,90 153.9,90 153.9,90.3 154.2,90.3 "
         style="fill:#ffffff" /><path
         id="path3572"
         d="m 154.4,90.8 0,-0.9 0.4,0 c 0,0 0.1,0 0.2,0.1 0,0.1 0.1,0.2 0.1,0.3 0,0.2 0,0.4 -0.1,0.5 0,0 -0.1,0 -0.1,0 l -0.5,0 0,0 z m 0.3,-0.1 c 0.2,0 0.2,-0.1 0.2,-0.4 0,-0.2 0,-0.3 -0.1,-0.3 l -0.1,0 0,0.7 0,0 z"
         inkscape:connector-curvature="0"
         style="fill:#ffffff" /><path
         id="path3574"
         d="m 155.5,90.8 0,-0.9 0.3,0 c 0.1,0 0.2,0 0.2,0.1 0,0.1 0,0.1 0,0.2 0,0.1 0,0.2 -0.1,0.2 l 0,0 c 0.1,0 0.1,0.1 0.1,0.2 0,0 0,0.1 0,0.1 0,0.1 -0.1,0.2 -0.2,0.2 l -0.3,-0.1 0,0 z m 0.2,-0.1 c 0,0 0.1,0 0.1,0 0,0 0.1,-0.1 0.1,-0.1 0,-0.1 0,-0.1 -0.1,-0.1 l -0.1,0 0,0.2 0,0 0,0 z m 0,-0.4 c 0,0 0.1,0 0.1,0 0,0 0,-0.1 0,-0.1 0,-0.1 0,-0.1 -0.1,-0.1 l -0.1,0 0.1,0.2 0,0 z"
         inkscape:connector-curvature="0"
         style="fill:#ffffff" /><path
         id="path3576"
         d="m 156.4,90.1 c 0,0 0,0.1 0,0.1 l 0,0 c 0,-0.1 0,-0.1 0.1,-0.2 l 0.1,-0.2 0.2,0 -0.3,0.5 0,0.4 -0.2,0 0,-0.4 -0.3,-0.5 0.2,0 0.2,0.3 z"
         inkscape:connector-curvature="0"
         style="fill:#ffffff" /><polygon
         id="polygon3578"
         points="148,91.9 147.1,91.9 147.1,92.2 148.3,92.2 148.3,92.5 146.3,92.5 146.3,91.1 148.2,91.1 148.2,91.4 147.1,91.4 147.1,91.6 148,91.6 "
         style="fill:#ffffff" /><path
         id="path3580"
         d="m 150.2,91.5 c 0,0 -0.1,-0.1 -0.1,-0.1 -0.1,0 -0.1,0 -0.2,0 -0.2,0 -0.2,0 -0.2,0.1 0,0.2 1.4,0.1 1.4,0.6 0,0.3 -0.5,0.5 -1.1,0.5 -0.6,0 -1,-0.2 -1.1,-0.5 l 0.8,0 c 0,0 0.1,0.1 0.1,0.1 0.1,0 0.1,0 0.2,0 0.2,0 0.3,0 0.3,-0.1 0,-0.2 -1.4,-0.1 -1.4,-0.6 0,-0.3 0.4,-0.4 1,-0.4 0.7,0 1,0.2 1,0.4 l -0.7,0 0,0 z"
         inkscape:connector-curvature="0"
         style="fill:#ffffff" /><path
         id="path3582"
         d="m 152.5,92 0,0.5 -0.8,0 0,-1.4 1.1,0 c 0.8,0 1.1,0.1 1.1,0.4 0,0.2 -0.1,0.3 -0.4,0.3 0.3,0.1 0.4,0.1 0.4,0.4 0,0.2 0,0.2 0.1,0.2 l 0,0 -0.8,0 c 0,0 0,-0.1 0,-0.2 0,-0.2 -0.1,-0.2 -0.4,-0.2 l -0.3,0 0,0 z m 0,-0.3 0.3,0 c 0.2,0 0.4,0 0.4,-0.1 0,-0.1 -0.1,-0.1 -0.3,-0.1 l -0.4,0 0,0.2 0,0 z"
         inkscape:connector-curvature="0"
         style="fill:#ffffff" /><path
         id="path3584"
         d="m 154.6,92.5 0,-1.4 1.1,0 c 0.5,0 1,0.1 1,0.3 0,0.1 -0.2,0.2 -0.3,0.3 0.3,0 0.4,0.2 0.4,0.3 0,0.3 -0.4,0.4 -1,0.4 l -1.2,0.1 0,0 z m 0.8,-0.6 0,0.3 0.3,0 c 0.2,0 0.3,0 0.3,-0.1 0,-0.1 -0.2,-0.1 -0.4,-0.1 l -0.2,0 0,-0.1 z m 0,-0.5 0,0.2 0.3,0 c 0.2,0 0.3,0 0.3,-0.1 0,-0.1 -0.2,-0.1 -0.3,-0.1 l -0.3,0 0,0 z"
         inkscape:connector-curvature="0"
         style="fill:#ffffff" /><path
         id="path3586"
         d="m 146.6,80 c 0,-0.3 0.3,-0.5 0.6,-0.5 0.3,0 0.6,0.2 0.6,0.5 0,0.3 -0.3,0.6 -0.6,0.6 -0.3,-0.1 -0.6,-0.3 -0.6,-0.6 m 1.1,0 c 0,-0.2 -0.2,-0.5 -0.5,-0.5 -0.3,0 -0.5,0.2 -0.5,0.5 0,0.3 0.2,0.5 0.5,0.5 0.3,0 0.5,-0.3 0.5,-0.5 m -0.6,0 0,0.3 -0.1,0 0,-0.6 0.2,0 c 0.1,0 0.3,0 0.3,0.2 0,0.1 0,0.1 -0.1,0.2 l 0,0 c 0.1,0 0.1,0.1 0.1,0.1 0,0.1 0,0.1 0,0.2 l -0.1,0 c 0,0 0,-0.1 0,-0.1 0,-0.1 0,-0.1 0,-0.1 C 147.2,80 147.2,80 147.1,80 l 0,0 m 0.1,-0.1 c 0.1,0 0.1,0 0.1,-0.1 0,0 0,-0.1 -0.1,-0.1 l -0.1,0 0,0.2 0.1,0 0,0 z"
         inkscape:connector-curvature="0"
         style="fill:#010101" /><polygon
         id="polygon3588"
         points="156.8,76.9 155.9,76.9 155.9,78.6 156.8,78.6 156.8,78.2 156.3,78.2 156.3,77.9 156.8,77.9 156.8,77.5 156.3,77.5 156.3,77.2 156.8,77.2 "
         style="fill:#ffffff" /><polygon
         id="polygon3590"
         points="154.8,77.6 155.1,78.6 155.6,78.6 155.6,76.9 155.1,76.9 155.2,77.8 155.2,77.8 154.9,76.9 154.4,76.9 154.4,78.6 154.8,78.6 154.8,77.6 "
         style="fill:#ffffff" /><path
         id="path3592"
         d="m 153.6,76.9 c -0.4,0 -0.6,0.2 -0.6,0.5 l 0,0.6 c 0,0.4 0.1,0.6 0.6,0.6 0.4,0 0.6,-0.2 0.6,-0.6 l 0,-0.7 c 0,-0.3 -0.2,-0.4 -0.6,-0.4 m 0.1,1.2 c 0,0.1 0,0.2 -0.1,0.2 -0.1,0 -0.2,-0.1 -0.2,-0.2 l 0,-0.7 c 0,-0.1 0,-0.2 0.2,-0.2 0.1,0 0.1,0.1 0.1,0.2 l 0,0.7 z"
         inkscape:connector-curvature="0"
         style="fill:#ffffff" /><polygon
         id="polygon3594"
         points="152.4,76.9 152.2,77.4 152.2,77.4 152,76.9 151.5,76.9 152,77.9 152,78.6 152.4,78.6 152.4,77.9 152.8,76.9 "
         style="fill:#ffffff" /><path
         id="path3596"
         d="m 151.4,78 c 0,-0.1 -0.1,-0.2 -0.2,-0.2 l 0,0 c 0.2,-0.1 0.2,-0.2 0.2,-0.4 0,-0.3 -0.2,-0.5 -0.5,-0.5 l -0.6,0 0,1.7 0.4,0 0,-0.7 0.1,0 c 0.1,0 0.1,0.1 0.1,0.2 0,0.1 0,0.2 0,0.4 0,0 0,0.1 0,0.1 l 0.5,0 0,0 c 0,0 0,0 0,-0.1 0,-0.1 0,-0.4 0,-0.5 m -0.6,-0.4 -0.1,0 0,-0.4 c 0.2,0 0.3,0 0.3,0.2 0,0.1 -0.1,0.2 -0.2,0.2"
         inkscape:connector-curvature="0"
         style="fill:#ffffff" /><polygon
         id="polygon3598"
         points="149,76.9 149,78.6 150,78.6 150,78.2 149.4,78.2 149.4,77.9 150,77.9 150,77.5 149.4,77.5 149.4,77.2 150,77.2 150,76.9 "
         style="fill:#ffffff" /><polygon
         id="polygon3600"
         points="147.5,76.9 147.9,78.6 148.4,78.6 148.8,76.9 148.4,76.9 148.1,78.1 148.1,78.1 147.9,76.9 "
         style="fill:#ffffff" /><polygon
         id="polygon3602"
         points="146.3,76.9 146.3,78.6 147.3,78.6 147.3,78.2 146.7,78.2 146.7,77.9 147.3,77.9 147.3,77.5 146.7,77.5 146.7,77.2 147.3,77.2 147.3,76.9 "
         style="fill:#ffffff" /><polygon
         id="polygon3604"
         points="151.6,85.4 151.8,86.3 155.6,85.4 156.2,87.5 149.8,89.1 147.5,81.1 153.9,79.4 154.5,81.5 150.7,82.5 151,83.3 154.8,82.4 155.4,84.5 "
         style="fill:#010101" /></g><g
       id="g3606"><rect
         id="rect3608"
         height="7.8000002"
         width="20.9"
         y="97.800003"
         x="136.5"
         style="fill:none" /><path
         id="path3610"
         d="m 156.7,98.3 -0.8,1.4 -0.7,-1.4 -0.7,0 c 0.1,0.2 1,1.9 1,1.9 l 0,1.1 0.7,0 c 0,-0.2 0,-1.1 0,-1.1 0,0 0.9,-1.7 1.1,-1.9 l -0.6,0 0,0 z"
         inkscape:connector-curvature="0"
         style="fill:#010101" /><rect
         id="rect3612"
         height="7.8000002"
         width="20.9"
         y="97.800003"
         x="136.5"
         style="fill:none" /><path
         id="path3614"
         d="m 136.5,101.7 5.6,0 0,-3.9 -5.6,0 0,3.9 z m 1.3,-0.5 -0.6,0 0,-2.9 0.6,0 c 0.7,0 1.2,0.7 1.2,1.4 0,0.9 -0.5,1.5 -1.2,1.5 m 3.6,0 -0.6,0 c -0.7,0 -1.2,-0.6 -1.2,-1.4 0,-0.8 0.6,-1.4 1.2,-1.4 l 0.6,0 0,2.8 z"
         inkscape:connector-curvature="0"
         style="fill:#010101" /><rect
         id="rect3616"
         height="7.8000002"
         width="20.9"
         y="97.800003"
         x="136.5"
         style="fill:none" /><path
         id="path3618"
         d="m 148.5,100.2 c 0,0.5 -0.2,0.7 -0.7,0.7 -0.5,0 -0.7,-0.1 -0.7,-0.7 l 0,-0.9 c 0,-0.5 0.2,-0.6 0.7,-0.6 0.5,0 0.7,0.1 0.7,0.6 l 0,0.9 z m 0.3,-1.8 c -0.2,-0.1 -0.6,-0.2 -1,-0.2 -0.4,0 -0.8,0.1 -1,0.2 -0.3,0.2 -0.4,0.4 -0.4,0.9 l 0,1 c 0,0.4 0.1,0.7 0.4,0.9 0.2,0.1 0.5,0.2 1,0.2 0.5,0 0.8,-0.1 1,-0.2 0.3,-0.2 0.4,-0.5 0.4,-0.9 l 0,-1 c 0,-0.4 -0.1,-0.7 -0.4,-0.9"
         inkscape:connector-curvature="0"
         style="fill:#010101" /><rect
         id="rect3620"
         height="7.8000002"
         width="20.9"
         y="97.800003"
         x="136.5"
         style="fill:none" /><path
         id="path3622"
         d="m 145.3,100.2 c 0,0.5 -0.3,0.7 -0.5,0.7 l -0.8,0 0,-2.1 0.8,0 c 0.2,0 0.5,0.1 0.5,0.6 l 0,0.8 z m -0.5,-1.9 -1.5,0 0,3 1.6,0 c 0.8,0 1.1,-0.3 1.1,-1.2 l 0,-0.7 c 0,-0.8 -0.4,-1.1 -1.2,-1.1"
         inkscape:connector-curvature="0"
         style="fill:#010101" /><rect
         id="rect3624"
         height="7.8000002"
         width="20.9"
         y="97.800003"
         x="136.5"
         style="fill:none" /><polygon
         id="polygon3626"
         points="149.7,98.3 149.7,101.3 151.7,101.3 151.7,100.8 150.4,100.8 150.4,98.3 "
         style="fill:#010101" /><rect
         id="rect3628"
         height="7.8000002"
         width="20.9"
         y="97.800003"
         x="136.5"
         style="fill:none" /><path
         id="path3630"
         d="m 157.3,101 c 0,0.1 -0.1,0.2 -0.2,0.2 -0.1,0 -0.2,-0.1 -0.2,-0.2 0,-0.1 0.1,-0.2 0.2,-0.2 0.1,0 0.2,0.1 0.2,0.2 m -0.5,0 c 0,0.2 0.1,0.3 0.3,0.3 0.2,0 0.3,-0.1 0.3,-0.3 0,-0.2 -0.1,-0.3 -0.3,-0.3 -0.2,0 -0.3,0.1 -0.3,0.3 m 0.2,-0.1 0,0 c 0.1,0 0.1,0 0.1,0 0,0 0,0.1 -0.1,0.1 l 0,0 0,-0.1 0,0 z m 0,0.1 0,0 0.1,0.1 0.1,0 -0.1,-0.1 c 0,0 0.1,0 0.1,-0.1 0,-0.1 0,-0.1 -0.1,-0.1 l -0.1,0 0,0.3 0.1,0 -0.1,-0.1 0,0 z"
         inkscape:connector-curvature="0"
         style="fill:#010101" /><rect
         id="rect3632"
         height="7.8000002"
         width="20.9"
         y="97.800003"
         x="136.5"
         style="fill:none" /><path
         id="path3634"
         d="m 153.7,99.7 c 0.5,0 0.7,-0.3 0.7,-0.7 0,-0.3 -0.1,-0.5 -0.3,-0.6 -0.1,-0.1 -0.3,-0.1 -0.6,-0.1 l -1.5,0 0,3 1.4,0 c 0.4,0 0.6,-0.1 0.7,-0.1 0.1,-0.1 0.3,-0.3 0.3,-0.7 0.1,-0.4 0,-0.8 -0.7,-0.8 m -0.4,1.2 -0.6,0 0,0 0,-2.1 0,0 0.7,0 c 0.2,0 0.4,0.2 0.4,0.4 0,0.4 -0.2,0.4 -0.7,0.4 l 0,0.4 c 0.5,0 0.8,0 0.8,0.5 0,0.1 -0.2,0.4 -0.6,0.4"
         inkscape:connector-curvature="0"
         style="fill:#010101" /><rect
         id="rect3636"
         height="7.8000002"
         width="20.9"
         y="97.800003"
         x="136.5"
         style="fill:none" /><rect
         id="rect3638"
         height="7.8000002"
         width="20.9"
         y="97.800003"
         x="136.5"
         style="fill:none" /><path
         id="path3640"
         d="m 141.3,104.3 c 0,0.1 0,0.1 -0.1,0.1 0,0 -0.1,0.1 -0.1,0.1 -0.1,0 -0.1,0 -0.2,0 l -0.6,0 0,0.6 -0.4,0 0,-1.9 1,0 c 0.2,0 0.3,0 0.4,0.1 0.1,0.1 0.1,0.2 0.1,0.4 l 0,0.3 c 0,0.2 -0.1,0.2 -0.1,0.3 m -0.3,-0.6 c 0,-0.1 0,-0.1 0,-0.1 0,0 -0.1,0 -0.1,0 l -0.5,0 0,0.7 0.5,0 c 0.1,0 0.1,0 0.1,0 0,0 0,-0.1 0,-0.1 l 0,-0.5 0,0 z"
         inkscape:connector-curvature="0"
         style="fill:#010101" /><path
         id="path3642"
         d="m 142.7,105.1 -0.4,-0.6 -0.2,0 0,0.6 -0.4,0 0,-1.8 1,0 c 0.1,0 0.2,0 0.2,0 0.1,0 0.1,0.1 0.1,0.1 0,0 0.1,0.1 0.1,0.1 0,0.1 0,0.1 0,0.2 l 0,0.2 c 0,0 0,0.1 0,0.2 0,0.1 0,0.1 -0.1,0.1 0,0 -0.1,0.1 -0.1,0.1 -0.1,0 -0.1,0 -0.2,0 l -0.1,0 0.5,0.7 -0.4,0.1 0,0 z m 0.1,-1.3 c 0,-0.1 0,-0.1 0,-0.1 0,0 -0.1,0 -0.1,0 l -0.5,0 0,0.6 0.5,0 c 0.1,0 0.2,-0.1 0.2,-0.2 l 0,-0.3 z"
         inkscape:connector-curvature="0"
         style="fill:#010101" /><path
         id="path3644"
         d="m 145,104.9 c 0,0.1 -0.1,0.1 -0.1,0.2 0,0 -0.1,0.1 -0.2,0.1 -0.1,0 -0.1,0 -0.2,0 l -0.5,0 c -0.1,0 -0.2,0 -0.2,0 -0.1,0 -0.1,0 -0.2,-0.1 0,0 -0.1,-0.1 -0.1,-0.2 0,-0.1 0,-0.1 0,-0.2 l 0,-1 c 0,-0.1 0,-0.2 0,-0.2 0,-0.1 0.1,-0.1 0.1,-0.1 0,0 0.1,-0.1 0.2,-0.1 0.1,0 0.1,0 0.2,0 l 0.5,0 c 0.2,0 0.3,0 0.4,0.1 0.1,0.1 0.1,0.2 0.1,0.4 l 0,1 c 0,0 0,0.1 0,0.1 m -0.4,-1.2 c 0,-0.1 0,-0.1 0,-0.1 0,0 -0.1,0 -0.1,0 l -0.5,0 c -0.1,0 -0.1,0 -0.1,0 0,0 0,0.1 0,0.1 l 0,1 c 0,0.1 0,0.1 0,0.1 0,0 0.1,0 0.1,0 l 0.4,0 c 0.1,0 0.1,0 0.1,0 0,0 0,-0.1 0,-0.1 l 0.1,-1 0,0 z"
         inkscape:connector-curvature="0"
         style="fill:#010101" /><polygon
         id="polygon3646"
         points="146,103.2 146.4,103.2 146.4,104.9 147.2,104.9 147.2,105.2 146,105.2 "
         style="fill:#010101" /><path
         id="path3648"
         d="m 149.1,105 c 0,0.1 -0.1,0.1 -0.1,0.2 0,0 -0.1,0.1 -0.2,0.1 -0.1,0 -0.1,0 -0.2,0 l -0.5,0 c -0.1,0 -0.2,0 -0.2,0 -0.1,0 -0.1,0 -0.2,-0.1 0,0 -0.1,-0.1 -0.1,-0.2 0,-0.1 0,-0.1 0,-0.2 l 0,-1 c 0,-0.1 0,-0.2 0,-0.2 0,-0.1 0.1,-0.1 0.1,-0.1 0,0 0.1,-0.1 0.2,-0.1 0.1,0 0.1,0 0.2,0 l 0.5,0 c 0.2,0 0.3,0 0.4,0.1 0.1,0.1 0.1,0.2 0.1,0.4 l 0,1 c 0,-0.1 0,0 0,0.1 m -0.4,-1.3 c 0,-0.1 0,-0.1 0,-0.1 0,0 -0.1,0 -0.1,0 l -0.5,0 c -0.1,0 -0.1,0 -0.1,0 0,0 0,0.1 0,0.1 l 0,1 c 0,0.1 0,0.1 0,0.1 0,0 0.1,0 0.1,0 l 0.4,0 c 0.1,0 0.1,0 0.1,0 0,0 0,-0.1 0,-0.1 l 0.1,-1 0,0 z"
         inkscape:connector-curvature="0"
         style="fill:#010101" /><path
         id="path3650"
         d="m 150.6,105.2 0,-0.1 c 0,0 0,0 0,0.1 -0.1,-0.1 -0.2,0 -0.2,0 0,0 -0.1,0 -0.1,0 0,0 -0.1,0 -0.2,0 l -0.2,0 c -0.1,0 -0.2,0 -0.2,0 -0.1,0 -0.1,0 -0.2,-0.1 0,0 -0.1,-0.1 -0.1,-0.2 0,-0.1 0,-0.1 0,-0.2 l 0,-0.9 c 0,-0.1 0,-0.2 0.1,-0.3 0,-0.1 0.1,-0.1 0.1,-0.1 0.1,0 0.1,0 0.2,-0.1 0.1,0 0.1,0 0.2,0 l 0.5,0 c 0.1,0 0.2,0 0.2,0 0.1,0 0.1,0 0.2,0.1 l 0,0.2 -0.9,0 c -0.1,0 -0.1,0 -0.1,0 0,0 0,0.1 0,0.1 l 0,1 c 0,0.1 0,0.1 0,0.1 0,0 0.1,0 0.1,0 l 0.3,0 c 0,0 0,0 0.1,0 0,0 0.1,0 0.1,0 0,0 0.1,0 0.1,0 0,0 0,0 0.1,0 l 0,-0.4 -0.4,0 0,-0.3 0.8,0 0,1.1 -0.5,0 z"
         inkscape:connector-curvature="0"
         style="fill:#010101" /><rect
         id="rect3652"
         height="1.9"
         width="0.40000001"
         y="103.3"
         x="151.3"
         style="fill:#010101" /><path
         id="path3654"
         d="m 153.4,105.2 c 0,0 -0.1,0 -0.1,0 0,0 -0.1,0 -0.1,0 0,0 -0.1,0 -0.1,0 l -0.4,0 c -0.2,0 -0.3,0 -0.4,-0.1 -0.1,-0.1 -0.1,-0.2 -0.1,-0.4 l 0,-1 c 0,-0.1 0,-0.2 0,-0.2 0,-0.1 0.1,-0.1 0.1,-0.2 0,0 0.1,-0.1 0.2,-0.1 0.1,0 0.1,0 0.2,0 l 0.4,0 c 0.1,0 0.1,0 0.2,0 0.1,0 0.1,0 0.2,0.1 l 0,0.2 -0.8,0 c -0.1,0 -0.1,0 -0.1,0 0,0 0,0.1 0,0.1 l 0,1 c 0,0.1 0,0.1 0,0.1 0,0 0.1,0 0.1,0 l 0.8,0 -0.1,0.5 c 0,-0.1 0,0 0,0"
         inkscape:connector-curvature="0"
         style="fill:#010101" /><rect
         id="rect3656"
         height="1.9"
         width="0.40000001"
         y="103.3"
         x="154.39999"
         style="fill:#010101" /><rect
         id="rect3658"
         height="1.9"
         width="0.40000001"
         y="103.3"
         x="155.2"
         style="fill:#010101" /><path
         id="path3660"
         d="m 157.2,105.1 0,-2.5 -20.6,0 c 0,0 -0.1,0 -0.1,-0.1 0,0 0,-0.1 0.1,-0.1 l 20.7,0 c 0,0 0,0 0.1,0 0,0 0,0 0,0.1 l 0,2.6 c 0,0 -0.1,0.1 -0.2,0 0.1,0.1 0,0 0,0"
         inkscape:connector-curvature="0"
         style="fill:#010101" /></g></g></svg>