<?xml version="1.0" encoding="utf-8"?>
<!-- Generator: Adobe Illustrator 19.0.0, SVG Export Plug-In . SVG Version: 6.00 Build 0)  -->
<svg version="1.1" id="Mii" xmlns="http://www.w3.org/2000/svg" xmlns:xlink="http://www.w3.org/1999/xlink" x="0px" y="0px"
	 viewBox="880 -1175.5 2371.1 3143.5" enable-background="new 880 -1175.5 2371.1 3143.5" xml:space="preserve">
<g>
	<g>
		<g>
			<g>
				<g>
					<g>
						<defs>
							<path id="SVGID_1_" d="M922.8,322.9c0,631.9,161.2,1091.6,558.3,1441.8c154,135.6,354.9,203.3,582.4,203.3
								c227.7,0,428.5-67.7,582.4-203.3c397.3-350.2,558.4-809.8,558.4-1441.8c0-1029.1-418.4-1328-1140.9-1328
								C1341.3-1005.2,922.8-706.3,922.8,322.9"/>
						</defs>
						<clipPath id="SVGID_2_">
							<use xlink:href="#SVGID_1_"  overflow="visible"/>
						</clipPath>
						
							<radialGradient id="SVGID_3_" cx="3751.0164" cy="2259.9932" r="54.7558" gradientTransform="matrix(-18.7496 0 0 -37.4992 72582.9688 84119.4063)" gradientUnits="userSpaceOnUse">
							<stop  offset="0" style="stop-color:#FFFFFF"/>
							<stop  offset="0.5749" style="stop-color:#E9E9E9"/>
							<stop  offset="1" style="stop-color:#DEDEDE"/>
						</radialGradient>
						<rect x="922.8" y="-1005.2" clip-path="url(#SVGID_2_)" fill="url(#SVGID_3_)" width="2281.6" height="2973.2"/>
					</g>
				</g>
			</g>
		</g>
	</g>
	<g>
		<g>
			<g>
				<g>
					<g>
						<defs>
							<path id="SVGID_4_" d="M1949.8,390.1c9.2,191.2-5,361.8-19.6,386.1c-54.9,91.8-100.2,156.4-85,204.6
								c23.7,74.9,153.2,154.1,218.4,154.1c65.3,0,194.8-79.2,218.5-154.1c15.1-48.2-30-112.8-85.1-204.6
								c-14.6-24.4-28.8-194.9-19.6-386.1H1949.8L1949.8,390.1z"/>
						</defs>
						<clipPath id="SVGID_5_">
							<use xlink:href="#SVGID_4_"  overflow="visible"/>
						</clipPath>
						
							<radialGradient id="SVGID_6_" cx="3178.6118" cy="2279.5122" r="54.7466" gradientTransform="matrix(4.5572 0 0 -9.1144 -12381.1895 21388.9883)" gradientUnits="userSpaceOnUse">
							<stop  offset="0" style="stop-color:#FFFFFF"/>
							<stop  offset="0.5749" style="stop-color:#E9E9E9"/>
							<stop  offset="1" style="stop-color:#DEDEDE"/>
						</radialGradient>
						<rect x="1830" y="390.1" clip-path="url(#SVGID_5_)" fill="url(#SVGID_6_)" width="467.2" height="744.8"/>
					</g>
				</g>
			</g>
		</g>
	</g>
	<g>
		<g>
			<g>
				<g>
					<g>
						<defs>
							<polygon id="SVGID_7_" points="1186.1,182.9 1396.7,146.6 1928.1,248.5 1964.2,73.1 1438.5,-72.7 							"/>
						</defs>
						<clipPath id="SVGID_8_">
							<use xlink:href="#SVGID_7_"  overflow="visible"/>
						</clipPath>
						
							<radialGradient id="SVGID_9_" cx="3508.3274" cy="2272.2134" r="54.7307" gradientTransform="matrix(17.0457 3.4922 4.0349 -19.6954 -66825.7734 32031.416)" gradientUnits="userSpaceOnUse">
							<stop  offset="0" style="stop-color:#7A7A7A"/>
							<stop  offset="0.1545" style="stop-color:#686868"/>
							<stop  offset="0.4001" style="stop-color:#505050"/>
							<stop  offset="0.6304" style="stop-color:#414141"/>
							<stop  offset="0.8371" style="stop-color:#373737"/>
							<stop  offset="1" style="stop-color:#343434"/>
						</radialGradient>
						<polygon clip-path="url(#SVGID_8_)" fill="url(#SVGID_9_)" points="1217.4,-225.6 2027.3,-59.7 1932.7,401.5 1123,235.5 
													"/>
					</g>
				</g>
			</g>
		</g>
	</g>
	<g>
		<g>
			<g>
				<g>
					<g>
						<defs>
							<polygon id="SVGID_10_" points="2163.1,73.1 2199.2,248.5 2730.6,146.6 2941.3,182.9 2688.7,-72.7 							"/>
						</defs>
						<clipPath id="SVGID_11_">
							<use xlink:href="#SVGID_10_"  overflow="visible"/>
						</clipPath>
						
							<radialGradient id="SVGID_12_" cx="3742.6682" cy="2313.3218" r="54.9434" gradientTransform="matrix(-17.1713 3.5179 -4.0646 -19.8405 75813.5391 32258.4922)" gradientUnits="userSpaceOnUse">
							<stop  offset="0" style="stop-color:#7A7A7A"/>
							<stop  offset="0.1545" style="stop-color:#686868"/>
							<stop  offset="0.4001" style="stop-color:#505050"/>
							<stop  offset="0.6304" style="stop-color:#414141"/>
							<stop  offset="0.8371" style="stop-color:#373737"/>
							<stop  offset="1" style="stop-color:#343434"/>
						</radialGradient>
						<polygon clip-path="url(#SVGID_11_)" fill="url(#SVGID_12_)" points="2909.9,-225.6 2100,-59.7 2194.6,401.5 3004.4,235.5 
													"/>
					</g>
				</g>
			</g>
		</g>
	</g>
	<path fill="none" stroke="#010101" stroke-width="47.1297" stroke-linecap="round" stroke-linejoin="round" d="M1785.3,1393.2
		h417.4c76.9,0,216.9-74.1,269.2-133.9"/>
	<path fill="none" stroke="#010101" stroke-width="48.0096" stroke-linecap="round" stroke-linejoin="round" d="M2197,776.2
		c55,91.7,100.2,156.4,85.1,204.6c-23.8,74.9-153.3,154.1-218.4,154.1c-65.2,0-194.8-79.2-218.4-154.1c-15.2-48.2,30-112.9,85-204.6
		c14.6-24.5,28.9-194.9,19.6-386.1"/>
	<path fill="#FFFFFF" d="M1605.1,649.4c165,0,298.9-133.8,298.9-298.9c0,0-48.4-9.5-91.4-9.5h-415c-42.9,0-91.4,9.5-91.4,9.5
		C1306.3,515.6,1440.1,649.4,1605.1,649.4"/>
	<g>
		<g>
			<g>
				<g>
					<g>
						<defs>
							<path id="SVGID_13_" d="M1397.6,341c-42.9,0-91.5,9.5-91.5,9.5c0,165.1,134,298.9,298.9,298.9c165,0,298.9-133.8,298.9-298.9
								c0,0-48.4-9.5-91.4-9.5H1397.6L1397.6,341z"/>
						</defs>
						<clipPath id="SVGID_14_">
							<use xlink:href="#SVGID_13_"  overflow="visible"/>
						</clipPath>
						<path clip-path="url(#SVGID_14_)" fill="#010101" d="M1765.2,369.6c0,83.1-67.3,150.5-150.5,150.5s-150.6-67.4-150.6-150.5
							S1531.5,219,1614.7,219C1697.9,219,1765.2,286.5,1765.2,369.6"/>
					</g>
				</g>
			</g>
		</g>
		<g>
			<g>
				<g>
					<g>
						<defs>
							<path id="SVGID_15_" d="M1397.6,341c-42.9,0-91.5,9.5-91.5,9.5c0,165.1,134,298.9,298.9,298.9c165,0,298.9-133.8,298.9-298.9
								c0,0-48.4-9.5-91.4-9.5H1397.6L1397.6,341z"/>
						</defs>
						<clipPath id="SVGID_16_">
							<use xlink:href="#SVGID_15_"  overflow="visible"/>
						</clipPath>
						
							<path clip-path="url(#SVGID_16_)" fill="none" stroke="#010101" stroke-width="24.1423" stroke-linecap="round" stroke-linejoin="round" d="
							M1614.7,219.1c83.1,0,150.5,67.4,150.5,150.5s-67.4,150.5-150.5,150.5s-150.5-67.4-150.5-150.5
							C1464.1,286.5,1531.5,219.1,1614.7,219.1z"/>
					</g>
				</g>
			</g>
		</g>
	</g>
	<path fill="none" stroke="#010101" stroke-width="38.3857" stroke-linejoin="round" d="M1605.1,649.4
		c165,0,298.9-133.8,298.9-298.9c0,0-48.4-9.5-91.4-9.5h-415c-42.9,0-91.4,9.5-91.4,9.5C1306.3,515.6,1440.1,649.4,1605.1,649.4z"/>
	<path fill="#FFFFFF" d="M2522.2,649.4c-165,0-298.9-133.8-298.9-298.9c0,0,48.4-9.5,91.5-9.5h415c42.9,0,91.4,9.5,91.4,9.5
		C2821,515.6,2687.2,649.4,2522.2,649.4"/>
	<g>
		<g>
			<g>
				<g>
					<g>
						<defs>
							<path id="SVGID_17_" d="M2314.7,341c-43,0-91.5,9.5-91.5,9.5c0,165.1,133.9,298.9,298.9,298.9
								c165.1,0,298.9-133.8,298.9-298.9c0,0-48.4-9.5-91.3-9.5H2314.7L2314.7,341z"/>
						</defs>
						<clipPath id="SVGID_18_">
							<use xlink:href="#SVGID_17_"  overflow="visible"/>
						</clipPath>
						<path clip-path="url(#SVGID_18_)" fill="#010101" d="M2362.1,369.6c0,83.1,67.3,150.5,150.4,150.5
							c83.2,0,150.6-67.4,150.6-150.5S2595.7,219,2512.5,219C2429.4,219.1,2362.1,286.5,2362.1,369.6"/>
					</g>
				</g>
			</g>
		</g>
		<g>
			<g>
				<g>
					<g>
						<defs>
							<path id="SVGID_19_" d="M2314.7,341c-43,0-91.5,9.5-91.5,9.5c0,165.1,133.9,298.9,298.9,298.9
								c165.1,0,298.9-133.8,298.9-298.9c0,0-48.4-9.5-91.3-9.5H2314.7L2314.7,341z"/>
						</defs>
						<clipPath id="SVGID_20_">
							<use xlink:href="#SVGID_19_"  overflow="visible"/>
						</clipPath>
						
							<path clip-path="url(#SVGID_20_)" fill="none" stroke="#010101" stroke-width="24.1423" stroke-linecap="round" stroke-linejoin="round" d="
							M2512.6,219.1c83.1,0,150.5,67.4,150.5,150.5s-67.4,150.5-150.5,150.5s-150.5-67.4-150.5-150.5S2429.6,219.1,2512.6,219.1z"/>
					</g>
				</g>
			</g>
		</g>
	</g>
	<path fill="none" stroke="#010101" stroke-width="38.3857" stroke-linejoin="round" d="M2821,350.5
		c0,165.1-133.8,308.4-298.9,308.4c-165.1,0-299-143.3-299-308.4 M1306.3,350.5c0,165.1,133.8,308.4,298.9,308.4
		c165,0,298.9-143.3,298.9-308.4 M2522.2,649.4c-165,0-298.9-133.8-298.9-298.9c0,0,48.4-9.5,91.5-9.5h415c42.9,0,91.4,9.5,91.4,9.5
		C2821,515.6,2687.2,649.4,2522.2,649.4z"/>
	<path fill="#343434" d="M3245.3,415.2c20.7-10.9-19.3-534.6-70.8-689.3c-51.6-154.5-201.1-872.8-1101.9-872.8
		s-1060,718.3-1111.4,872.8c-51.6,154.6-86.9,666.7-80.4,689.3c6.4,22.6,102.9,32.2,138.3,3.2c28-22.9,29.9-331.5,22.5-599.3
		c61.7-33.9,370.7-234.9,448-325.1c-35.4,45.1-52.7,176.1-63.5,222c628.1,51.5,891.5-125.4,1104.1-328.4
		c83.6,109.5,425.3,399.2,534.8,408.9c-16.2,67.6,26,612.2,42,631.6C3123.1,447.4,3209.4,434.2,3245.3,415.2"/>
	<g>
		<g>
			<g>
				<g>
					<g>
						<defs>
							<path id="SVGID_21_" d="M952.2-302.7c-51.5,154.6-77.4,666.7-70.9,689.2c6.5,22.6,83.8,32.2,119.2,3.2
								c28.1-22.9,29.9-331.5,22.4-599.3c61.7-33.9,389.8-234.9,467.2-325.1c-35.5,45.1-47.1,176.4-58,222.3
								c628.2,51.5,905.1-125.6,1117.7-328.5c83.7,109.5,425.3,399.2,534.8,408.8c-16.1,67.7,16.4,612.2,32.4,631.4
								c4.4,5.2,13.1,8.1,24.2,9.1h21.7c28.4-1.9,62.3-10.9,83-21.9c2.8-1.5,4.4-12.1,5.2-29.8v-51.9
								c-3.9-155.7-36.7-489.5-76-607.7c-51.5-154.3-210.6-872.6-1111.5-872.6C1162.8-1175.5,1003.7-457.3,952.2-302.7"/>
						</defs>
						<clipPath id="SVGID_22_">
							<use xlink:href="#SVGID_21_"  overflow="visible"/>
						</clipPath>
						
							<radialGradient id="SVGID_23_" cx="3576.833" cy="2358.6978" r="54.8171" gradientTransform="matrix(27.8629 0 0 -13.9315 -97334.5703 32011.9531)" gradientUnits="userSpaceOnUse">
							<stop  offset="0" style="stop-color:#7A7A7A"/>
							<stop  offset="0.1545" style="stop-color:#686868"/>
							<stop  offset="0.4001" style="stop-color:#505050"/>
							<stop  offset="0.6304" style="stop-color:#414141"/>
							<stop  offset="0.8371" style="stop-color:#373737"/>
							<stop  offset="1" style="stop-color:#343434"/>
						</radialGradient>
						<rect x="874.9" y="-1175.6" clip-path="url(#SVGID_22_)" fill="url(#SVGID_23_)" width="2376.3" height="1594.3"/>
					</g>
				</g>
			</g>
		</g>
	</g>
</g>
</svg>
