<?xml version="1.0" encoding="utf-8"?>
<!-- Generator: Adobe Illustrator 19.0.0, SVG Export Plug-In . SVG Version: 6.00 Build 0)  -->
<svg version="1.1" baseProfile="tiny" id="Layer_1" xmlns="http://www.w3.org/2000/svg" xmlns:xlink="http://www.w3.org/1999/xlink"
	 x="0px" y="0px" viewBox="0 0 146 146" xml:space="preserve">
<g>
	<path fill="#B7B6A8" d="M129.2,146H16.8C7.6,146,0,138.4,0,129.2V16.8C0,7.6,7.6,0,16.8,0h112.3c9.3,0,16.8,7.6,16.8,16.8v112.3
		C146,138.4,138.4,146,129.2,146z"/>
	<path fill="#A4ADB7" d="M108.8,23.3H35.3c-6.6,0-12,5.4-12,12v73.3c0,6.6,5.4,12,12,12h73.5c6.6,0,12-5.4,12-12V35.3
		C120.8,28.6,115.4,23.3,108.8,23.3z"/>
	<g>
		<g>
			<g>
				<circle fill="#960E0C" cx="28.9" cy="27.3" r="14.5"/>
			</g>
			<g>
				<path fill="#421A1A" d="M28.9,42.3c-8.3,0-15-6.7-15-15s6.7-15,15-15s15,6.7,15,15S37.2,42.3,28.9,42.3z M28.9,13.3
					c-7.7,0-14,6.3-14,14s6.3,14,14,14s14-6.3,14-14S36.6,13.3,28.9,13.3z"/>
			</g>
		</g>
		<path fill="#B7B6A8" d="M45.4,27.3c0,9.1-7.4,16.5-16.5,16.5s-16.5-7.4-16.5-16.5s7.4-16.5,16.5-16.5S45.4,18.2,45.4,27.3z
			 M28.9,12.8c-8,0-14.5,6.5-14.5,14.5s6.5,14.5,14.5,14.5s14.5-6.5,14.5-14.5S36.9,12.8,28.9,12.8z"/>
	</g>
	<g>
		<g>
			<g>
				<circle fill="#960E0C" cx="115.3" cy="27.3" r="14.5"/>
			</g>
			<g>
				<path fill="#421A1A" d="M115.3,42.3c-8.3,0-15-6.7-15-15s6.7-15,15-15s15,6.7,15,15S123.5,42.3,115.3,42.3z M115.3,13.3
					c-7.7,0-14,6.3-14,14s6.3,14,14,14s14-6.3,14-14S123,13.3,115.3,13.3z"/>
			</g>
		</g>
		<path fill="#B7B6A8" d="M131.8,27.3c0,9.1-7.4,16.5-16.5,16.5s-16.5-7.4-16.5-16.5s7.4-16.5,16.5-16.5S131.8,18.2,131.8,27.3z
			 M115.3,12.8c-8,0-14.5,6.5-14.5,14.5s6.5,14.5,14.5,14.5s14.5-6.5,14.5-14.5S123.3,12.8,115.3,12.8z"/>
	</g>
	<circle fill="#231F20" cx="72.1" cy="71.9" r="42.5"/>
</g>
</svg>
