<?xml version="1.0" encoding="UTF-8" standalone="no"?>
<!-- Generator: Adobe Illustrator 13.0.0, SVG Export Plug-In . SVG Version: 6.00 Build 14948)  -->

<svg
   xmlns:ns="&amp;ns_sfw;"
   xmlns:dc="http://purl.org/dc/elements/1.1/"
   xmlns:cc="http://creativecommons.org/ns#"
   xmlns:rdf="http://www.w3.org/1999/02/22-rdf-syntax-ns#"
   xmlns:svg="http://www.w3.org/2000/svg"
   xmlns="http://www.w3.org/2000/svg"
   xmlns:sodipodi="http://sodipodi.sourceforge.net/DTD/sodipodi-0.dtd"
   xmlns:inkscape="http://www.inkscape.org/namespaces/inkscape"
   version="1.2"
   id="Layer_3"
   x="0px"
   y="0px"
   width="519.46301"
   height="255.457"
   viewBox="0 0 519.46299 255.45699"
   xml:space="preserve"
   inkscape:version="0.91 r13725"
   sodipodi:docname="controller.svg"><defs
     id="defs106" /><sodipodi:namedview
     pagecolor="#ffffff"
     bordercolor="#666666"
     borderopacity="1"
     objecttolerance="10"
     gridtolerance="10"
     guidetolerance="10"
     inkscape:pageopacity="0"
     inkscape:pageshadow="2"
     inkscape:window-width="690"
     inkscape:window-height="480"
     id="namedview104"
     showgrid="false"
     fit-margin-top="0"
     fit-margin-left="0"
     fit-margin-right="0"
     fit-margin-bottom="0"
     inkscape:zoom="0.48145317"
     inkscape:cx="262.21151"
     inkscape:cy="136.066"
     inkscape:window-x="0"
     inkscape:window-y="0"
     inkscape:window-maximized="0"
     inkscape:current-layer="Layer_3" /><metadata
     id="metadata55"><rdf:RDF><cc:Work
         rdf:about=""><dc:format>image/svg+xml</dc:format><dc:type
           rdf:resource="http://purl.org/dc/dcmitype/StillImage" /><dc:title></dc:title></cc:Work></rdf:RDF><ns:sfw><ns:slices /><ns:sliceSourceBounds
         x="698.288"
         y="403.434"
         width="519.465"
         height="255.457"
         bottomLeftOrigin="true" /></ns:sfw></metadata><path
     d="M 37.305,17.602"
     id="path4"
     inkscape:connector-curvature="0"
     style="fill:#f4f4f4" /><path
     id="path5"
     d="m 174.54,28.174 c -0.312,0.022 -0.585,0.214 -0.71,0.5 -0.508,1.122 -1.285,2.126 -2.263,2.894 -0.365,0.289 -0.426,0.818 -0.137,1.183 0.289,0.364 0.818,0.426 1.183,0.137 0.002,-10e-4 0.005,-0.003 0.006,-0.005 1.185,-0.928 2.138,-2.119 2.762,-3.499 0.206,-0.417 0.035,-0.921 -0.382,-1.127 -0.143,-0.071 -0.301,-0.1 -0.459,-0.083 l 0,0 z"
     inkscape:connector-curvature="0"
     style="fill:#f4f4f4" /><path
     id="path7"
     d="m 37.303,18.65 c -3.877,0 -7.049,3.146 -7.049,7.023 0,3.877 3.172,7.05 7.049,7.05 l 129.955,0 c 3.878,0 7.05,-3.172 7.05,-7.05 0,-3.878 -3.171,-7.023 -7.05,-7.023 l -129.955,0 z m 0,1.684 129.955,0 c 2.968,0 5.367,2.372 5.367,5.34 0,2.968 -2.398,5.367 -5.367,5.367 l -129.955,0 c -2.968,0 -5.367,-2.399 -5.367,-5.367 0,-2.969 2.399,-5.34 5.367,-5.34 z"
     inkscape:connector-curvature="0"
     style="fill:#f4f4f4" /><path
     id="polyline9"
     d="m 174.464,28.226 c -0.465,0.041 -0.809,0.451 -0.768,0.917 0.042,0.466 0.452,0.809 0.917,0.768 0.003,0 0.006,0 0.009,-0.001 l 48.244,0 73.498,0 138.575,0 c 0.464,0.006 0.847,-0.365 0.854,-0.83 0.006,-0.464 -0.366,-0.847 -0.831,-0.854 -0.007,0 -0.015,0 -0.022,0 l -138.576,0 -73.498,0 -48.244,0 c -0.052,-0.005 -0.106,-0.005 -0.158,0 l 0,0 z"
     inkscape:connector-curvature="0"
     style="fill:#f4f4f4" /><path
     id="polyline11"
     d="m 175.121,26.437 c -0.465,0.021 -0.826,0.415 -0.805,0.879 0.021,0.464 0.414,0.825 0.88,0.804 0.001,0 0.002,0 0.003,0 l 47.666,0 73.498,0 138.003,0 c 0.464,0.007 0.846,-0.365 0.854,-0.83 0.006,-0.464 -0.366,-0.847 -0.83,-0.854 -0.009,0 -0.016,0 -0.023,0 l -138.004,0 -73.498,0 -47.666,0 c -0.026,-0.001 -0.052,-0.001 -0.078,0.001 z"
     inkscape:connector-curvature="0"
     style="fill:#f4f4f4" /><path
     id="polygon13"
     d="m 0.659,35.382 c -0.393,0.088 -0.667,0.44 -0.658,0.841 l 0,1.763 c 0,0.465 0.376,0.842 0.842,0.842 l 222.021,0 145.232,0 150.31,0 c 0.465,0 0.842,-0.377 0.842,-0.842 l 0,-1.763 c 0,-0.465 -0.377,-0.841 -0.842,-0.841 l -150.31,0 -145.232,0 -222.021,0 c -0.061,-0.007 -0.123,-0.007 -0.184,0 l 0,0 z m 1.026,1.684 221.179,0 145.232,0 149.468,0 0,0.079 -149.468,0 -145.232,0 -221.179,0 0,-0.079 z"
     inkscape:connector-curvature="0"
     style="fill:#f4f4f4" /><path
     d="M 463.34,17.602"
     id="path11"
     inkscape:connector-curvature="0"
     style="fill:#f4f4f4" /><path
     id="polyline17"
     d="m 37.224,33.25 c -0.465,0.021 -0.825,0.415 -0.804,0.88 0.021,0.465 0.415,0.825 0.879,0.804 10e-4,0 0.002,0 0.003,0 l 129.955,0 c 0.009,0 0.018,0 0.026,0 l 0.5,0 0.026,0 55.058,0 73.498,0 145.394,0 0.026,0 0.499,0 c 0.009,0 0.019,0 0.026,0 l 21.045,0 c 0.464,0.006 0.848,-0.365 0.854,-0.83 0.007,-0.465 -0.364,-0.847 -0.829,-0.854 -0.01,0 -0.017,0 -0.024,0 l -21.02,0 -0.026,0 -0.499,0 c -0.008,0 -0.018,0 -0.026,0 l -145.419,0 -73.498,0 -55.084,0 -0.526,0 -0.026,0 -129.922,0 c -0.026,-10e-4 -0.053,-10e-4 -0.079,0 l -0.007,0 z"
     inkscape:connector-curvature="0"
     style="fill:#f4f4f4" /><path
     id="polyline19"
     d="m 171.938,31.435 c -0.465,0.042 -0.809,0.451 -0.768,0.917 0.041,0.465 0.451,0.808 0.917,0.768 0.003,0 0.006,0 0.009,-10e-4 l 50.77,0 73.498,0 141.1,0 c 0.465,0.007 0.847,-0.365 0.854,-0.83 0.006,-0.465 -0.365,-0.847 -0.829,-0.854 -0.009,0 -0.017,0 -0.024,0 l -141.1,0 -73.498,0 -50.77,0 c -0.053,-0.005 -0.105,-0.005 -0.159,0 z"
     inkscape:connector-curvature="0"
     style="fill:#f4f4f4" /><path
     id="path21"
     d="m 434.913,28.174 c -0.466,0.011 -0.834,0.397 -0.822,0.862 0.003,0.121 0.031,0.24 0.085,0.348 0.624,1.378 1.577,2.57 2.763,3.499 0.361,0.292 0.893,0.236 1.184,-0.125 0.292,-0.362 0.236,-0.893 -0.126,-1.185 -0.002,-0.002 -0.004,-0.003 -0.006,-0.005 -0.978,-0.767 -1.754,-1.771 -2.263,-2.894 -0.14,-0.317 -0.462,-0.516 -0.809,-0.5 l -0.006,0 z"
     inkscape:connector-curvature="0"
     style="fill:#f4f4f4" /><path
     id="path23"
     d="m 175.121,23.412 -0.079,0.026 c -0.447,0.093 -0.738,0.524 -0.657,0.973 0.072,0.412 0.104,0.828 0.104,1.263 0,0.493 -0.039,0.982 -0.131,1.447 -0.129,0.447 0.128,0.916 0.576,1.045 0.447,0.13 0.915,-0.128 1.045,-0.575 0.014,-0.05 0.024,-0.102 0.03,-0.153 0.114,-0.572 0.157,-1.158 0.157,-1.763 0,-0.199 -0.04,-0.382 -0.053,-0.579 l 46.746,0 73.498,0 137.075,0 c -0.012,0.196 -0.052,0.379 -0.052,0.579 0,0.605 0.068,1.216 0.184,1.789 0.03,0.464 0.431,0.816 0.894,0.787 0.464,-0.03 0.816,-0.43 0.787,-0.894 -0.005,-0.081 -0.021,-0.16 -0.05,-0.236 -0.092,-0.464 -0.135,-0.954 -0.135,-1.447 0,-0.434 0.033,-0.849 0.105,-1.262 0.08,-0.451 -0.216,-0.884 -0.665,-0.973 l -0.075,-0.026 c -0.063,-0.007 -0.123,-0.007 -0.186,0 l -137.892,0 -73.498,0 -47.561,0 c -0.062,-0.007 -0.123,-0.007 -0.184,0 l 0.017,0 z"
     inkscape:connector-curvature="0"
     style="fill:#f4f4f4" /><path
     id="path25"
     d="m 172.301,18.573 c -0.464,-0.022 -0.859,0.336 -0.881,0.8 -0.016,0.342 0.176,0.66 0.487,0.804 0.009,0 0.018,0 0.026,0 0.849,0.721 1.53,1.619 1.973,2.657 0.171,0.41 0.632,0.618 1.053,0.473 l 47.902,0 73.498,0 138.263,0 c 0.412,0.129 0.856,-0.075 1.026,-0.473 0.445,-1.044 1.145,-1.935 1.999,-2.657 0.422,-0.196 0.604,-0.696 0.409,-1.118 -0.145,-0.311 -0.462,-0.503 -0.805,-0.486 l -140.898,0 -73.497,0 -50.56,0 0.005,0 z m 1.999,1.683 48.561,0 73.499,0 138.894,0 c -0.326,0.424 -0.596,0.888 -0.842,1.368 l -138.053,0 -73.499,0 -47.719,0 c -0.247,-0.48 -0.514,-0.944 -0.841,-1.368 l 0,0 z"
     inkscape:connector-curvature="0"
     style="fill:#f4f4f4" /><path
     id="path27"
     d="m 0.737,16.81 c -0.423,0.053 -0.739,0.415 -0.736,0.841 l 0,1.763 c 0,0.465 0.376,0.842 0.842,0.842 l 29.383,0 c -0.321,0.419 -0.571,0.895 -0.815,1.368 l -28.568,0 c -0.465,0 -0.842,0.377 -0.842,0.842 l 0,1.789 c 0,0.465 0.376,0.842 0.842,0.842 l 27.594,0 c -0.013,0.196 -0.053,0.38 -0.053,0.578 0,0.259 0.057,0.51 0.079,0.764 l -27.62,0 c -0.465,0 -0.841,0.376 -0.842,0.841 l 0,1.789 c 0,0.465 0.376,0.842 0.842,0.842 l 28.646,0 c 0.29,0.541 0.611,1.055 1,1.526 l -29.647,0 C 0.377,31.437 0,31.813 0,32.278 c 0,0.009 0,0.019 0,0.027 l 0.052,1.815 c 0.015,0.455 0.387,0.816 0.842,0.816 l 36.513,0 c 0.465,0.006 0.847,-0.365 0.854,-0.83 0.007,-0.465 -0.365,-0.847 -0.83,-0.854 -0.008,0 -0.016,0 -0.024,0 l -35.696,0 0,-0.132 30.777,0 0.053,0 c 0.293,-0.006 0.563,-0.166 0.71,-0.421 0.222,-0.368 0.131,-0.844 -0.21,-1.105 -0.01,-0.007 -0.016,-0.019 -0.026,-0.026 -0.96,-0.748 -1.749,-1.698 -2.263,-2.789 -0.008,-0.018 -0.017,-0.036 -0.026,-0.053 -0.003,-0.007 0.003,-0.02 0,-0.026 -0.008,-0.009 -0.016,-0.018 -0.025,-0.026 -0.007,-0.027 -0.016,-0.054 -0.026,-0.08 L 30.648,28.569 C 30.44,28.246 30.039,28.106 29.675,28.227 l -27.99,0 0,-0.105 27.489,0 c 0.265,0.075 0.55,0.017 0.764,-0.158 l 0.025,-0.026 c 0.271,-0.223 0.375,-0.589 0.263,-0.921 -0.008,-0.009 -0.017,-0.018 -0.026,-0.025 -0.077,-0.424 -0.131,-0.868 -0.131,-1.316 0,-0.441 0.03,-0.871 0.105,-1.289 0.073,-0.46 -0.241,-0.891 -0.7,-0.963 -0.038,-0.006 -0.077,-0.009 -0.115,-0.01 l -0.184,0 -27.49,0 0,-0.106 28.015,0 0.185,0 c 0.33,-0.002 0.628,-0.197 0.762,-0.5 0.458,-1.059 1.174,-1.984 2.052,-2.709 0.358,-0.296 0.408,-0.827 0.111,-1.185 -0.123,-0.148 -0.292,-0.249 -0.48,-0.288 L 32.252,18.6 c -0.061,-0.016 -0.123,-0.025 -0.185,-0.026 l -30.382,0 0,-0.079 34.434,0 132.059,0 54.69,0 73.498,0 145.022,0 23.123,0 53.059,0 0,0.079 -48.983,0 c -0.062,10e-4 -0.124,0.011 -0.185,0.026 l -0.104,0.026 c -0.453,0.104 -0.736,0.556 -0.631,1.01 0.042,0.182 0.144,0.345 0.288,0.463 0.879,0.725 1.568,1.65 2.025,2.709 0.139,0.311 0.45,0.508 0.79,0.5 0.009,0 0.018,0 0.025,0 l 0.079,0 46.693,0 0,0.106 -46.114,0 -0.157,0 c -0.465,0.008 -0.835,0.391 -0.826,0.856 0,0.04 0.004,0.079 0.009,0.117 l -0.026,0 c 0.075,0.419 0.132,0.848 0.132,1.289 0,0.448 -0.055,0.892 -0.132,1.316 -0.003,0.018 -0.022,0.035 -0.026,0.052 0,0.009 0,0.018 0,0.026 -0.088,0.316 0.015,0.654 0.264,0.868 l 0.026,0.026 c 0.22,0.183 0.516,0.243 0.788,0.158 l 46.063,0 0,0.105 -46.615,0 c -0.355,-0.108 -0.741,0.031 -0.946,0.342 l -0.026,0.026 c -0.019,0.025 -0.036,0.052 -0.053,0.08 -0.009,0.017 -0.019,0.035 -0.026,0.053 -0.514,1.112 -1.285,2.082 -2.263,2.841 -0.008,0.008 -0.017,0.017 -0.026,0.026 -0.374,0.274 -0.457,0.8 -0.183,1.176 0.008,0.011 0.017,0.022 0.026,0.034 0.158,0.2 0.401,0.316 0.657,0.316 l 0.105,0 49.323,0 0,0.131 -54.296,0 c -0.465,-0.006 -0.847,0.365 -0.854,0.83 -0.006,0.465 0.365,0.847 0.83,0.854 0.009,0 0.016,0 0.023,0 l 55.11,0 c 0.456,0 0.829,-0.361 0.843,-0.815 l 0.052,-1.815 c 0.015,-0.465 -0.35,-0.853 -0.814,-0.868 -0.009,0 -0.018,0 -0.027,0 l -48.243,0 c 0.388,-0.471 0.709,-0.985 1,-1.526 l 47.245,0 c 0.464,0 0.841,-0.377 0.841,-0.842 l 0,-1.789 c 0,-0.464 -0.377,-0.842 -0.841,-0.842 l -46.22,0 c 0.021,-0.253 0.079,-0.504 0.079,-0.763 0,-0.198 -0.041,-0.383 -0.053,-0.578 l 46.193,0 c 0.464,0 0.841,-0.377 0.841,-0.842 l 0,-1.789 c 0,-0.465 -0.377,-0.842 -0.841,-0.842 l -47.166,0 c -0.244,-0.473 -0.495,-0.949 -0.816,-1.368 l 47.982,0 c 0.465,0 0.841,-0.377 0.841,-0.842 l 0,-1.763 c 0,-0.464 -0.376,-0.841 -0.841,-0.841 l -53.9,0 -23.122,0 -145.023,0 -73.497,0 -54.69,0 -132.059,0 -35.276,0 C 0.807,16.806 0.772,16.806 0.737,16.81 l 0,0 z"
     inkscape:connector-curvature="0"
     style="fill:#f4f4f4" /><path
     id="path29"
     d="m 442.304,18.65 c -3.879,0 -7.025,3.146 -7.025,7.023 0,3.877 3.146,7.05 7.025,7.05 l 21.044,0 c 3.878,0 7.023,-3.172 7.023,-7.05 0,-3.878 -3.146,-7.023 -7.023,-7.023 l -21.044,0 z m 0,1.684 21.044,0 c 2.968,0 5.34,2.372 5.34,5.34 0,2.968 -2.372,5.367 -5.34,5.367 l -21.044,0 c -2.968,0 -5.341,-2.399 -5.341,-5.367 0,-2.969 2.373,-5.34 5.341,-5.34 z"
     inkscape:connector-curvature="0"
     style="fill:#f4f4f4" /><path
     id="path31"
     d="M 3.789,0 C 1.729,0 0.054,1.676 0.054,3.735 l 0,11.575 c 0,0.465 0.377,0.842 0.842,0.842 l 517.724,0 c 0.464,0 0.841,-0.377 0.841,-0.842 l 0,-11.575 C 519.461,1.675 517.784,0 515.726,0 L 3.785,0 3.789,0 Z m 0,1.683 511.94,0 c 1.149,0 2.052,0.902 2.052,2.052 l 0,10.733 -516.039,0 0,-10.733 c 0,-1.149 0.902,-2.052 2.052,-2.052 l -0.005,0 z"
     inkscape:connector-curvature="0"
     style="fill:#f4f4f4" /><path
     id="path33"
     d="m 0.711,40.064 c -0.392,0.087 -0.667,0.44 -0.658,0.842 l 0,210.816 c 0,2.06 1.676,3.735 3.735,3.735 l 511.94,0 c 2.059,0 3.735,-1.676 3.735,-3.735 l -0.01,-210.816 c 0,-0.465 -0.377,-0.842 -0.841,-0.842 l -517.721,0 c -0.061,-0.007 -0.123,-0.007 -0.184,0 l 0.004,0 z m 1.026,1.684 516.039,0 0,209.974 c 0,1.149 -0.902,2.053 -2.052,2.053 l -511.939,0 c -1.151,0 -2.052,-0.903 -2.052,-2.053 l 0.004,-209.974 0,0 z"
     inkscape:connector-curvature="0"
     style="fill:#f4f4f4" /><path
     id="path35"
     d="m 24.623,88.752 c -1.555,0 -2.815,1.285 -2.815,2.841 l 0,17.494 c 0,1.555 1.259,2.84 2.815,2.84 l 17.493,0 c 1.555,0 2.841,-1.285 2.841,-2.84 l 0,-17.494 c 0,-1.556 -1.286,-2.841 -2.841,-2.841 l -17.493,0 z m 0,1.684 17.493,0 c 0.646,0 1.157,0.511 1.157,1.158 l 0,17.494 c 0,0.645 -0.512,1.157 -1.157,1.157 l -17.493,0 c -0.646,0 -1.132,-0.514 -1.132,-1.157 l 0,-17.494 c 0.001,-0.647 0.486,-1.158 1.132,-1.158 z"
     inkscape:connector-curvature="0"
     style="fill:#f4f4f4" /><path
     id="path37"
     d="m 49.325,88.752 c -1.555,0 -2.841,1.285 -2.841,2.841 l 0,17.494 c 0,1.554 1.285,2.84 2.841,2.84 l 17.466,0 c 1.555,0 2.841,-1.285 2.841,-2.84 l 0,-17.494 c 0,-1.556 -1.287,-2.841 -2.841,-2.841 l -17.466,0 z m 0,1.684 17.466,0 c 0.646,0 1.158,0.511 1.158,1.158 l 0,17.494 c 0,0.645 -0.512,1.157 -1.158,1.157 l -17.466,0 c -0.647,0 -1.158,-0.513 -1.158,-1.157 l 0,-17.494 c 0,-0.647 0.512,-1.158 1.158,-1.158 z"
     inkscape:connector-curvature="0"
     style="fill:#f4f4f4" /><path
     id="path39"
     d="m 73.999,88.752 c -1.555,0 -2.842,1.285 -2.842,2.841 l 0,17.494 c 0,1.555 1.286,2.84 2.842,2.84 l 17.493,0 c 1.424,0 2.546,-1.097 2.736,-2.472 0.009,-0.018 0.018,-0.035 0.027,-0.053 0,-0.009 -10e-4,-0.018 0,-0.026 0.009,-0.025 0.019,-0.052 0.025,-0.079 0.014,-0.051 0.022,-0.104 0.027,-0.157 0.009,-0.018 0.018,-0.036 0.026,-0.053 l 0,-17.494 c 0,-1.556 -1.286,-2.841 -2.841,-2.841 l -17.493,0 0,0 z m 0,1.684 17.493,0 c 0.646,0 1.158,0.511 1.158,1.158 l 0,17.335 c -0.002,0.036 -0.002,0.07 0,0.105 -0.01,0.018 -0.019,0.035 -0.026,0.053 0,0.645 -0.486,1.157 -1.131,1.157 l -17.493,0 c -0.645,0 -1.158,-0.513 -1.158,-1.157 l 0,-17.494 c 0,-0.645 0.511,-1.157 1.157,-1.157 l 0,0 z"
     inkscape:connector-curvature="0"
     style="fill:#f4f4f4" /><path
     id="path41"
     d="m 98.67,88.752 c -1.555,0 -2.815,1.285 -2.815,2.841 l 0,17.494 c 0,1.555 1.26,2.84 2.815,2.84 l 17.493,0 c 1.555,0 2.841,-1.285 2.841,-2.84 l 0,-17.494 c 0,-1.556 -1.287,-2.841 -2.841,-2.841 l -17.493,0 z m 0,1.684 17.493,0 c 0.646,0 1.158,0.511 1.158,1.158 l 0,17.494 c 0,0.645 -0.512,1.157 -1.158,1.157 l -17.493,0 c -0.645,0 -1.131,-0.514 -1.131,-1.157 l 0,-17.494 c 0,-0.647 0.485,-1.158 1.131,-1.158 z"
     inkscape:connector-curvature="0"
     style="fill:#f4f4f4" /><path
     id="path43"
     d="m 123.376,88.752 c -1.555,0 -2.841,1.285 -2.841,2.841 l 0,17.494 c 0,1.555 1.286,2.84 2.841,2.84 l 17.467,0 c 1.555,0 2.84,-1.285 2.84,-2.84 l 0,-17.494 c 0,-1.556 -1.286,-2.841 -2.84,-2.841 l -17.467,0 z m 0,1.684 17.467,0 c 0.645,0 1.157,0.511 1.157,1.158 l 0,17.494 c 0,0.645 -0.512,1.157 -1.157,1.157 l -17.467,0 c -0.645,0 -1.158,-0.514 -1.158,-1.157 l 0,-17.494 c 10e-4,-0.647 0.512,-1.158 1.158,-1.158 z"
     inkscape:connector-curvature="0"
     style="fill:#f4f4f4" /><path
     id="path45"
     d="m 148.049,88.752 c -1.555,0 -2.842,1.285 -2.842,2.841 l 0,17.494 c 0,1.555 1.287,2.84 2.842,2.84 l 17.493,0 c 1.555,0 2.814,-1.285 2.814,-2.84 l 0,-17.494 c 0,-1.556 -1.26,-2.841 -2.814,-2.841 l -17.493,0 z m 0,1.684 17.493,0 c 0.645,0 1.13,0.511 1.13,1.158 l 0,17.494 c 0,0.645 -0.485,1.157 -1.13,1.157 l -17.493,0 c -0.645,0 -1.158,-0.514 -1.158,-1.157 l 0,-17.494 c 0,-0.647 0.513,-1.158 1.158,-1.158 z"
     inkscape:connector-curvature="0"
     style="fill:#f4f4f4" /><path
     id="path47"
     d="m 172.721,88.752 c -1.555,0 -2.814,1.285 -2.814,2.841 l 0,17.494 c 0,1.555 1.259,2.84 2.814,2.84 l 17.494,0 c 1.554,0 2.84,-1.285 2.84,-2.84 l 0,-17.494 c 0,-1.556 -1.286,-2.841 -2.84,-2.841 l -17.494,0 z m 0,1.684 17.494,0 c 0.645,0 1.157,0.511 1.157,1.158 l 0,17.494 c 0,0.645 -0.512,1.157 -1.157,1.157 l -17.494,0 c -0.646,0 -1.131,-0.514 -1.131,-1.157 l 0,-17.494 c 0.001,-0.647 0.486,-1.158 1.131,-1.158 z"
     inkscape:connector-curvature="0"
     style="fill:#f4f4f4" /><path
     id="path49"
     d="m 197.428,88.752 c -1.555,0 -2.841,1.285 -2.841,2.841 l 0,17.494 c 0,1.555 1.286,2.84 2.841,2.84 l 17.467,0 c 1.554,0 2.84,-1.285 2.84,-2.84 l 0,-17.494 c 0,-1.556 -1.286,-2.841 -2.84,-2.841 l -17.467,0 z m 0,1.684 17.467,0 c 0.645,0 1.157,0.511 1.157,1.158 l 0,17.494 c 0,0.645 -0.513,1.157 -1.157,1.157 l -17.467,0 c -0.645,0 -1.158,-0.514 -1.158,-1.157 l 0,-17.494 c 0,-0.647 0.513,-1.158 1.158,-1.158 z"
     inkscape:connector-curvature="0"
     style="fill:#f4f4f4" /><path
     id="path51"
     d="m 222.1,88.752 c -1.555,0 -2.841,1.285 -2.841,2.841 l 0,17.494 c 0,1.555 1.285,2.84 2.841,2.84 l 17.493,0 c 1.555,0 2.815,-1.285 2.815,-2.84 l 0,-17.494 c 0,-1.556 -1.26,-2.841 -2.815,-2.841 l -17.493,0 z m 0,1.684 17.493,0 c 0.646,0 1.132,0.511 1.132,1.158 l 0,17.494 c 0,0.645 -0.487,1.157 -1.132,1.157 l -17.493,0 c -0.645,0 -1.157,-0.514 -1.157,-1.157 l 0,-17.494 c 0,-0.647 0.512,-1.158 1.157,-1.158 z"
     inkscape:connector-curvature="0"
     style="fill:#f4f4f4" /><path
     id="path53"
     d="m 246.773,88.752 c -1.555,0 -2.841,1.285 -2.841,2.841 l 0,17.494 c 0,1.554 1.285,2.84 2.841,2.84 l 17.493,0 c 1.555,0 2.841,-1.285 2.841,-2.84 l 0,-17.494 c 0,-1.556 -1.285,-2.841 -2.841,-2.841 l -17.493,0 z m 0,1.684 17.493,0 c 0.645,0 1.157,0.511 1.157,1.158 l 0,17.494 c 0,0.645 -0.513,1.157 -1.157,1.157 l -17.493,0 c -0.646,0 -1.157,-0.513 -1.157,-1.157 l 0,-17.494 c 0,-0.647 0.512,-1.158 1.157,-1.158 z"
     inkscape:connector-curvature="0"
     style="fill:#f4f4f4" /><path
     id="path55"
     d="m 271.48,88.752 c -1.557,0 -2.842,1.285 -2.842,2.841 l 0,17.494 c 0,1.554 1.285,2.84 2.842,2.84 l 17.466,0 c 1.555,0 2.841,-1.284 2.841,-2.84 l 0,-17.494 c 0,-1.556 -1.285,-2.841 -2.841,-2.841 l -17.466,0 z m 0,1.684 17.466,0 c 0.646,0 1.158,0.511 1.158,1.158 l 0,17.494 c 0,0.644 -0.514,1.157 -1.158,1.157 l -17.466,0 c -0.647,0 -1.157,-0.513 -1.157,-1.157 l 0,-17.494 c 0,-0.647 0.511,-1.158 1.157,-1.158 z"
     inkscape:connector-curvature="0"
     style="fill:#f4f4f4" /><path
     id="path57"
     d="m 296.152,88.752 c -1.555,0 -2.841,1.285 -2.841,2.841 l 0,17.494 c 0,1.554 1.285,2.84 2.841,2.84 l 17.494,0 c 1.554,0 2.813,-1.285 2.813,-2.84 l 0,-17.494 c 0,-1.556 -1.259,-2.841 -2.813,-2.841 l -17.494,0 z m 0,1.684 17.494,0 c 0.644,0 1.131,0.511 1.131,1.158 l 0,17.494 c 0,0.645 -0.487,1.157 -1.131,1.157 l -17.494,0 c -0.646,0 -1.157,-0.513 -1.157,-1.157 l 0,-17.494 c 0,-0.647 0.514,-1.158 1.157,-1.158 z"
     inkscape:connector-curvature="0"
     style="fill:#f4f4f4" /><path
     id="path59"
     d="m 320.825,88.752 c -1.555,0 -2.814,1.285 -2.814,2.841 l 0,17.494 c 0,1.554 1.259,2.84 2.814,2.84 l 17.494,0 c 1.554,0 2.839,-1.284 2.839,-2.84 l 0,-17.494 c 0,-1.556 -1.284,-2.841 -2.839,-2.841 l -17.494,0 z m 0,1.684 17.494,0 c 0.644,0 1.156,0.511 1.156,1.158 l 0,17.494 c 0,0.644 -0.513,1.157 -1.156,1.157 l -17.494,0 c -0.645,0 -1.132,-0.513 -1.132,-1.157 l 0,-17.494 c 0,-0.647 0.487,-1.158 1.132,-1.158 z"
     inkscape:connector-curvature="0"
     style="fill:#f4f4f4" /><path
     id="path61"
     d="m 345.532,88.752 c -1.555,0 -2.842,1.285 -2.842,2.841 l 0,17.492 c 0,1.554 1.286,2.841 2.842,2.841 l 17.466,0 c 1.555,0 2.842,-1.286 2.842,-2.841 0.001,-0.026 0.001,-0.053 0,-0.079 l 0,-17.415 c 0,-1.556 -1.286,-2.841 -2.842,-2.841 l -17.466,0.002 0,0 z m 0,1.684 17.466,0 c 0.647,0 1.157,0.511 1.157,1.158 l 0,17.492 c 0,0.646 -0.511,1.157 -1.157,1.157 l -17.466,0 c -0.646,0 -1.158,-0.513 -1.158,-1.157 l 0,-17.493 c 0,-0.647 0.514,-1.158 1.158,-1.157 l 0,0 z"
     inkscape:connector-curvature="0"
     style="fill:#f4f4f4" /><path
     id="path63"
     d="m 62.267,113.164 c -1.555,0 -2.841,1.285 -2.841,2.841 l 0,17.492 c 0,1.555 1.286,2.815 2.841,2.815 l 17.493,0 c 1.422,0 2.542,-1.075 2.736,-2.446 0.01,-0.019 0.018,-0.034 0.026,-0.053 10e-4,-0.009 -0.001,-0.019 0,-0.026 0.01,-0.025 0.019,-0.051 0.027,-0.076 0.014,-0.052 0.022,-0.105 0.026,-0.161 0.009,-0.015 0.019,-0.032 0.026,-0.05 l 0,-17.493 c 0,-1.554 -1.286,-2.84 -2.841,-2.84 l -17.493,0 0,-0.003 z m 0,1.683 17.493,0 c 0.646,0 1.158,0.514 1.158,1.158 l 0,17.335 c -0.001,0.025 -0.001,0.052 0,0.077 -0.011,0.028 -0.019,0.057 -0.026,0.086 0,0.645 -0.486,1.131 -1.131,1.131 l -17.494,0 c -0.646,0 -1.158,-0.487 -1.158,-1.127 l 0,-17.495 c 0,-0.645 0.512,-1.157 1.158,-1.157 l 0,-0.008 z"
     inkscape:connector-curvature="0"
     style="fill:#f4f4f4" /><path
     id="path65"
     d="m 24.623,113.164 c -1.555,0 -2.815,1.285 -2.815,2.841 l 0,17.492 c 0,1.557 1.259,2.815 2.815,2.815 l 30.12,0 c 1.555,0 2.841,-1.259 2.841,-2.815 l 0,-17.492 c 0,-1.555 -1.285,-2.841 -2.841,-2.841 l -30.12,0 z m 0,1.683 30.12,0 c 0.646,0 1.157,0.514 1.157,1.158 l 0,17.492 c 0,0.646 -0.512,1.133 -1.157,1.133 l -30.12,0 c -0.646,0 -1.132,-0.488 -1.132,-1.133 l 0,-17.492 c 0.001,-0.645 0.486,-1.158 1.132,-1.158 z"
     inkscape:connector-curvature="0"
     style="fill:#f4f4f4" /><path
     id="path67"
     d="m 86.944,113.164 c -1.555,0 -2.84,1.285 -2.84,2.841 l 0,17.492 c 0,1.557 1.285,2.815 2.84,2.815 l 17.494,0 c 1.555,0 2.841,-1.259 2.841,-2.815 l 0,-17.492 c 0,-1.555 -1.286,-2.841 -2.841,-2.841 l -17.494,0 z m 0,1.683 17.494,0 c 0.645,0 1.157,0.514 1.157,1.158 l 0,17.492 c 0,0.646 -0.512,1.133 -1.157,1.133 l -17.494,0 c -0.645,0 -1.157,-0.488 -1.157,-1.133 l 0,-17.492 c 0,-0.645 0.511,-1.158 1.157,-1.158 z"
     inkscape:connector-curvature="0"
     style="fill:#f4f4f4" /><path
     id="path69"
     d="m 111.641,113.164 c -1.555,0 -2.84,1.285 -2.84,2.841 l 0,17.492 c 0,1.557 1.286,2.815 2.84,2.815 l 17.468,0 c 1.555,0 2.841,-1.259 2.841,-2.815 l 0,-17.492 c 0,-1.555 -1.286,-2.841 -2.841,-2.841 l -17.468,0 z m 0,1.683 17.468,0 c 0.645,0 1.157,0.514 1.157,1.158 l 0,17.492 c 0,0.646 -0.512,1.133 -1.157,1.133 l -17.468,0 c -0.645,0 -1.157,-0.488 -1.157,-1.133 l 0,-17.492 c 0,-0.645 0.512,-1.158 1.157,-1.158 z"
     inkscape:connector-curvature="0"
     style="fill:#f4f4f4" /><path
     id="path71"
     d="m 136.314,113.164 c -1.554,0 -2.84,1.285 -2.84,2.841 l 0,17.492 c 0,1.557 1.286,2.815 2.84,2.815 l 17.494,0 c 1.555,0 2.814,-1.259 2.814,-2.815 l 0,-17.492 c 0,-1.555 -1.259,-2.841 -2.814,-2.841 l -17.494,0 z m 0,1.683 17.494,0 c 0.646,0 1.131,0.514 1.131,1.158 l 0,17.492 c 0,0.646 -0.485,1.133 -1.131,1.133 l -17.494,0 c -0.645,0 -1.157,-0.488 -1.157,-1.133 l 0,-17.492 c 0,-0.645 0.512,-1.158 1.157,-1.158 z"
     inkscape:connector-curvature="0"
     style="fill:#f4f4f4" /><path
     id="path73"
     d="m 160.995,113.164 c -1.555,0 -2.815,1.285 -2.815,2.841 l 0,17.492 c 0,1.556 1.259,2.815 2.815,2.815 l 17.494,0 c 1.555,0 2.841,-1.259 2.841,-2.815 l 0,-17.492 c 0,-1.555 -1.286,-2.841 -2.841,-2.841 l -17.494,0 z m 0,1.683 17.494,0 c 0.645,0 1.157,0.514 1.157,1.158 l 0,17.492 c 0,0.646 -0.512,1.133 -1.157,1.133 l -17.494,0 c -0.646,0 -1.131,-0.488 -1.131,-1.133 l 0,-17.492 c 0,-0.645 0.486,-1.158 1.131,-1.158 z"
     inkscape:connector-curvature="0"
     style="fill:#f4f4f4" /><path
     id="path75"
     d="m 185.693,113.164 c -1.555,0 -2.841,1.285 -2.841,2.841 l 0,17.492 c 0,1.557 1.285,2.815 2.841,2.815 l 17.468,0 c 1.554,0 2.841,-1.259 2.841,-2.815 l 0,-17.492 c 0,-1.555 -1.286,-2.841 -2.841,-2.841 l -17.468,0 z m 0,1.683 17.468,0 c 0.645,0 1.157,0.514 1.157,1.158 l 0,17.492 c 0,0.646 -0.514,1.133 -1.157,1.133 l -17.468,0 c -0.645,0 -1.158,-0.488 -1.158,-1.133 l 0,-17.492 c 0,-0.645 0.513,-1.158 1.158,-1.158 z"
     inkscape:connector-curvature="0"
     style="fill:#f4f4f4" /><path
     id="path77"
     d="m 210.366,113.164 c -1.555,0 -2.841,1.285 -2.841,2.841 l 0,17.492 c 0,1.557 1.286,2.815 2.841,2.815 l 17.493,0 c 1.555,0 2.815,-1.259 2.815,-2.815 l 0,-17.492 c 0,-1.555 -1.259,-2.841 -2.815,-2.841 l -17.493,0 z m 0,1.683 17.493,0 c 0.645,0 1.131,0.514 1.131,1.158 l 0,17.492 c 0,0.646 -0.486,1.133 -1.131,1.133 l -17.493,0 c -0.645,0 -1.158,-0.488 -1.158,-1.133 l 0,-17.492 c 0,-0.645 0.513,-1.158 1.158,-1.158 z"
     inkscape:connector-curvature="0"
     style="fill:#f4f4f4" /><path
     id="path79"
     d="m 235.039,113.164 c -1.555,0 -2.841,1.285 -2.841,2.841 l 0,17.492 c 0,1.557 1.286,2.815 2.841,2.815 l 17.494,0 c 1.554,0 2.841,-1.259 2.841,-2.815 l 0,-17.492 c 0,-1.555 -1.286,-2.841 -2.841,-2.841 l -17.494,0 z m 0,1.683 17.494,0 c 0.645,0 1.157,0.514 1.157,1.158 l 0,17.492 c 0,0.646 -0.512,1.133 -1.157,1.133 l -17.494,0 c -0.646,0 -1.158,-0.488 -1.158,-1.133 l 0,-17.492 c 0,-0.645 0.512,-1.158 1.158,-1.158 z"
     inkscape:connector-curvature="0"
     style="fill:#f4f4f4" /><path
     id="path81"
     d="m 259.745,113.164 c -1.555,0 -2.842,1.285 -2.842,2.841 l 0,17.492 c 0,1.557 1.286,2.815 2.842,2.815 l 17.466,0 c 1.555,0 2.842,-1.258 2.842,-2.815 l 0,-17.492 c 0,-1.555 -1.286,-2.841 -2.842,-2.841 l -17.466,0 z m 0,1.683 17.466,0 c 0.646,0 1.159,0.514 1.159,1.158 l 0,17.492 c 0,0.645 -0.515,1.133 -1.159,1.133 l -17.466,0 c -0.645,0 -1.158,-0.488 -1.158,-1.133 l 0,-17.492 c 0.001,-0.645 0.513,-1.158 1.158,-1.158 z"
     inkscape:connector-curvature="0"
     style="fill:#f4f4f4" /><path
     id="path83"
     d="m 284.418,113.164 c -1.555,0 -2.842,1.285 -2.842,2.841 l 0,17.492 c 0,1.556 1.286,2.815 2.842,2.815 l 17.493,0 c 1.555,0 2.814,-1.259 2.814,-2.815 l 0,-17.492 c 0,-1.555 -1.258,-2.841 -2.814,-2.841 l -17.493,0 z m 0,1.683 17.493,0 c 0.646,0 1.131,0.514 1.131,1.158 l 0,17.492 c 0,0.646 -0.486,1.133 -1.131,1.133 l -17.493,0 c -0.646,0 -1.157,-0.488 -1.157,-1.133 l 0,-17.492 c 0,-0.645 0.511,-1.158 1.157,-1.158 z"
     inkscape:connector-curvature="0"
     style="fill:#f4f4f4" /><path
     id="path85"
     d="m 309.091,113.164 c -1.554,0 -2.842,1.285 -2.842,2.841 l 0,17.492 c 0,1.557 1.286,2.815 2.842,2.815 l 17.493,0 c 1.556,0 2.841,-1.258 2.841,-2.815 l 0,-17.492 c 0,-1.555 -1.285,-2.841 -2.841,-2.841 l -17.493,0 z m 0,1.683 17.493,0 c 0.645,0 1.158,0.514 1.158,1.158 l 0,17.492 c 0,0.645 -0.514,1.133 -1.158,1.133 l -17.493,0 c -0.645,0 -1.158,-0.488 -1.158,-1.133 l 0,-17.492 c -10e-4,-0.645 0.514,-1.158 1.158,-1.158 z"
     inkscape:connector-curvature="0"
     style="fill:#f4f4f4" /><path
     id="path87"
     d="m 333.797,113.164 c -1.554,0 -2.842,1.285 -2.842,2.841 l 0,17.492 c 0,1.556 1.287,2.815 2.842,2.815 l 17.468,0 c 1.554,0 2.84,-1.259 2.84,-2.815 l 0,-17.492 c 0,-1.555 -1.285,-2.841 -2.84,-2.841 l -17.468,0 z m 0,1.683 17.468,0 c 0.645,0 1.157,0.514 1.157,1.158 l 0,17.492 c 0,0.646 -0.514,1.133 -1.157,1.133 l -17.468,0 c -0.646,0 -1.157,-0.488 -1.157,-1.133 l 0,-17.492 c -10e-4,-0.645 0.511,-1.158 1.157,-1.158 z"
     inkscape:connector-curvature="0"
     style="fill:#f4f4f4" /><path
     id="path89"
     d="m 358.469,113.164 c -1.554,0 -2.839,1.285 -2.839,2.841 l 0,17.492 c 0,1.556 1.284,2.815 2.839,2.815 l 17.495,0 c 1.554,0 2.813,-1.258 2.813,-2.815 l 0,-17.492 c 0,-1.555 -1.259,-2.841 -2.813,-2.841 l -17.495,0 z m 0,1.683 17.495,0 c 0.644,0 1.131,0.514 1.131,1.158 l 0,17.492 c 0,0.645 -0.487,1.133 -1.131,1.133 l -17.495,0 c -0.646,0 -1.155,-0.488 -1.155,-1.133 l 0,-17.492 c -0.001,-0.645 0.509,-1.158 1.155,-1.158 z"
     inkscape:connector-curvature="0"
     style="fill:#f4f4f4" /><path
     id="path91"
     d="m 445.755,113.164 c -1.555,0 -2.842,1.285 -2.842,2.841 l 0,17.492 c 0,1.556 1.286,2.815 2.842,2.815 l 31.75,0 c 1.555,0 2.842,-1.258 2.842,-2.815 l 0,-17.492 c 0,-1.555 -1.286,-2.841 -2.842,-2.841 l -31.75,0 z m 0,1.683 31.75,0 c 0.646,0 1.158,0.514 1.158,1.158 l 0,17.492 c 0,0.645 -0.514,1.133 -1.158,1.133 l -31.75,0 c -0.647,0 -1.157,-0.488 -1.157,-1.133 l 0,-17.492 c -0.001,-0.645 0.51,-1.158 1.157,-1.158 z"
     inkscape:connector-curvature="0"
     style="fill:#f4f4f4" /><path
     id="path93"
     d="m 382.931,113.164 c -1.553,0 -2.842,1.285 -2.842,2.841 l 0,17.492 c 0,1.557 1.286,2.815 2.842,2.815 l 29.437,0 c 1.555,0 2.842,-1.259 2.842,-2.815 l 0,-17.492 c 0,-1.555 -1.286,-2.841 -2.842,-2.841 l -29.437,0 z m 0,1.683 29.437,0 c 0.646,0 1.157,0.514 1.157,1.158 l 0,17.492 c 0,0.646 -0.511,1.133 -1.157,1.133 l -29.437,0 c -0.645,0 -1.157,-0.488 -1.157,-1.133 l 0,-17.492 c 0,-0.645 0.514,-1.158 1.157,-1.158 z"
     inkscape:connector-curvature="0"
     style="fill:#f4f4f4" /><path
     id="path95"
     d="m 370.204,88.752 c -1.556,0 -2.841,1.285 -2.841,2.841 l 0,17.494 c 0,1.554 1.285,2.84 2.841,2.84 l 17.493,0 c 1.554,0 2.815,-1.284 2.815,-2.84 l 0,-17.494 c 0,-1.556 -1.261,-2.841 -2.815,-2.841 l -17.493,0 z m 0,1.684 17.493,0 c 0.646,0 1.131,0.511 1.131,1.158 l 0,17.494 c 0,0.644 -0.486,1.157 -1.131,1.157 l -17.493,0 c -0.646,0 -1.157,-0.513 -1.157,-1.157 l 0,-17.494 c 0,-0.647 0.512,-1.158 1.157,-1.158 z"
     inkscape:connector-curvature="0"
     style="fill:#f4f4f4" /><path
     id="path97"
     d="m 17.994,137.575 c -1.555,0 -2.841,1.285 -2.841,2.842 l 0,17.467 c 0,1.555 1.286,2.841 2.841,2.841 l 17.493,0 c 1.555,0 2.815,-1.286 2.815,-2.841 l 0,-17.467 c 0,-1.557 -1.26,-2.842 -2.815,-2.842 l -17.493,0 z m 0,1.684 17.493,0 c 0.646,0 1.131,0.514 1.131,1.158 l 0,17.467 c 0,0.646 -0.485,1.157 -1.131,1.157 l -17.493,0 c -0.646,0 -1.158,-0.512 -1.158,-1.157 l 0,-17.467 c 0.001,-0.646 0.512,-1.158 1.158,-1.158 z"
     inkscape:connector-curvature="0"
     style="fill:#f4f4f4" /><path
     id="path99"
     d="m 42.67,137.575 c -1.555,0 -2.841,1.285 -2.841,2.842 l 0,17.467 c 0,1.555 1.286,2.841 2.841,2.841 l 17.492,0 c 1.556,0 2.841,-1.286 2.841,-2.841 l 0,-17.467 c 0,-1.557 -1.286,-2.842 -2.841,-2.842 l -17.492,0 z m 0,1.684 17.492,0 c 0.646,0 1.158,0.514 1.158,1.158 l 0,17.467 c 0,0.646 -0.512,1.157 -1.158,1.157 l -17.492,0 c -0.646,0 -1.158,-0.512 -1.158,-1.157 l 0,-17.467 c 0,-0.646 0.511,-1.158 1.158,-1.158 z"
     inkscape:connector-curvature="0"
     style="fill:#f4f4f4" /><path
     id="path101"
     d="m 67.344,137.575 c -1.555,0 -2.815,1.285 -2.815,2.842 l 0,17.467 c 0,1.555 1.26,2.841 2.815,2.841 l 17.493,0 c 1.417,0 2.562,-1.082 2.762,-2.446 0.01,-0.026 0.019,-0.052 0.026,-0.079 0.038,-0.101 0.055,-0.208 0.052,-0.315 l 0,-17.467 c 0,-1.557 -1.286,-2.842 -2.841,-2.842 l -17.492,0 0,-0.001 z m 0,1.684 17.493,0 c 0.646,0 1.157,0.514 1.157,1.158 l 0,17.335 c -0.001,0.027 -0.001,0.054 0,0.08 l 0,0.052 c 0,0.646 -0.512,1.157 -1.157,1.157 l -17.493,0 c -0.646,0 -1.131,-0.512 -1.131,-1.157 l 0,-17.467 c 0,-0.646 0.485,-1.158 1.131,-1.158 l 0,0 z"
     inkscape:connector-curvature="0"
     style="fill:#f4f4f4" /><path
     id="path103"
     d="m 92.045,137.575 c -1.554,0 -2.84,1.285 -2.84,2.842 l 0,17.467 c 0,1.555 1.285,2.841 2.84,2.841 l 17.493,0 c 1.555,0 2.814,-1.286 2.814,-2.841 l 0,-17.467 c 0,-1.557 -1.26,-2.842 -2.814,-2.842 l -17.493,0 0,0 z m 0,1.684 17.493,0 c 0.646,0 1.131,0.514 1.131,1.158 l 0,17.467 c 0,0.646 -0.485,1.157 -1.131,1.157 l -17.493,0 c -0.645,0 -1.158,-0.512 -1.158,-1.157 l 0,-17.467 c 0.001,-0.646 0.512,-1.158 1.158,-1.158 l 0,0 z"
     inkscape:connector-curvature="0"
     style="fill:#f4f4f4" /><path
     id="path105"
     d="m 116.718,137.575 c -1.554,0 -2.84,1.285 -2.84,2.842 l 0,17.467 c 0,1.555 1.285,2.841 2.84,2.841 l 17.493,0 c 1.555,0 2.841,-1.286 2.841,-2.841 l 0,-17.467 c 0,-1.557 -1.286,-2.842 -2.841,-2.842 l -17.493,0 z m 0,1.684 17.493,0 c 0.646,0 1.157,0.514 1.157,1.158 l 0,17.467 c 0,0.646 -0.512,1.157 -1.157,1.157 l -17.493,0 c -0.645,0 -1.157,-0.512 -1.157,-1.157 l 0,-17.467 c 0,-0.646 0.511,-1.158 1.157,-1.158 z"
     inkscape:connector-curvature="0"
     style="fill:#f4f4f4" /><path
     id="path107"
     d="m 141.399,137.575 c -1.555,0 -2.815,1.285 -2.815,2.842 l 0,17.467 c 0,1.555 1.259,2.841 2.815,2.841 l 17.493,0 c 1.555,0 2.842,-1.286 2.842,-2.841 l 0,-17.467 c 0,-1.557 -1.287,-2.842 -2.842,-2.842 l -17.493,0 z m 0,1.684 17.493,0 c 0.646,0 1.158,0.514 1.158,1.158 l 0,17.467 c 0,0.646 -0.513,1.157 -1.158,1.157 l -17.493,0 c -0.646,0 -1.131,-0.512 -1.131,-1.157 l 0,-17.467 c -0.001,-0.646 0.485,-1.158 1.131,-1.158 z"
     inkscape:connector-curvature="0"
     style="fill:#f4f4f4" /><path
     id="path109"
     d="m 166.097,137.575 c -1.554,0 -2.841,1.285 -2.841,2.842 l 0,17.467 c 0,1.555 1.286,2.841 2.841,2.841 l 17.493,0 c 1.555,0 2.815,-1.286 2.815,-2.841 l 0,-17.467 c 0,-1.557 -1.26,-2.842 -2.815,-2.842 l -17.493,0 z m 0,1.684 17.493,0 c 0.646,0 1.131,0.514 1.131,1.158 l 0,17.467 c 0,0.646 -0.486,1.157 -1.131,1.157 l -17.493,0 c -0.646,0 -1.158,-0.512 -1.158,-1.157 l 0,-17.467 c 0,-0.646 0.513,-1.158 1.158,-1.158 z"
     inkscape:connector-curvature="0"
     style="fill:#f4f4f4" /><path
     id="path111"
     d="m 190.77,137.575 c -1.555,0 -2.842,1.285 -2.842,2.842 l 0,17.467 c 0,1.555 1.285,2.841 2.842,2.841 l 17.493,0 c 1.555,0 2.84,-1.286 2.84,-2.841 l 0,-17.467 c 0,-1.557 -1.285,-2.842 -2.84,-2.842 l -17.493,0 z m 0,1.684 17.493,0 c 0.646,0 1.157,0.514 1.157,1.158 l 0,17.467 c 0,0.646 -0.512,1.157 -1.157,1.157 l -17.493,0 c -0.647,0 -1.158,-0.512 -1.158,-1.157 l 0,-17.467 c 0,-0.646 0.51,-1.158 1.158,-1.158 z"
     inkscape:connector-curvature="0"
     style="fill:#f4f4f4" /><path
     id="path113"
     d="m 215.442,137.575 c -1.554,0 -2.814,1.285 -2.814,2.842 l 0,17.467 c 0,1.555 1.259,2.841 2.814,2.841 l 17.493,0 c 1.555,0 2.841,-1.286 2.841,-2.841 l 0,-17.467 c 0,-1.557 -1.286,-2.842 -2.841,-2.842 l -17.493,0 z m 0,1.684 17.493,0 c 0.645,0 1.157,0.514 1.157,1.158 l 0,17.467 c 0,0.646 -0.512,1.157 -1.157,1.157 l -17.493,0 c -0.646,0 -1.131,-0.512 -1.131,-1.157 l 0,-17.467 c 0,-0.646 0.486,-1.158 1.131,-1.158 z"
     inkscape:connector-curvature="0"
     style="fill:#f4f4f4" /><path
     id="path115"
     d="m 240.149,137.575 c -1.555,0 -2.842,1.285 -2.842,2.842 l 0,17.467 c 0,1.555 1.287,2.841 2.842,2.841 l 17.493,0 c 1.554,0 2.814,-1.286 2.814,-2.841 l 0,-17.467 c 0,-1.556 -1.26,-2.842 -2.814,-2.842 l -17.493,0 z m 0,1.684 17.493,0 c 0.645,0 1.131,0.513 1.131,1.158 l 0,17.467 c 0,0.646 -0.487,1.157 -1.131,1.157 l -17.493,0 c -0.646,0 -1.158,-0.512 -1.158,-1.157 l 0,-17.467 c 0,-0.646 0.511,-1.158 1.158,-1.158 z"
     inkscape:connector-curvature="0"
     style="fill:#f4f4f4" /><path
     id="path117"
     d="m 264.821,137.575 c -1.554,0 -2.841,1.285 -2.841,2.842 l 0,17.467 c 0,1.555 1.286,2.841 2.841,2.841 l 17.493,0 c 1.554,0 2.841,-1.286 2.841,-2.841 l 0,-17.467 c 0,-1.557 -1.286,-2.842 -2.841,-2.842 l -17.493,0 z m 0,1.684 17.493,0 c 0.646,0 1.157,0.514 1.157,1.158 l 0,17.467 c 0,0.646 -0.514,1.157 -1.157,1.157 l -17.493,0 c -0.646,0 -1.157,-0.512 -1.157,-1.157 l 0,-17.467 c 0,-0.646 0.511,-1.158 1.157,-1.158 z"
     inkscape:connector-curvature="0"
     style="fill:#f4f4f4" /><path
     id="path119"
     d="m 289.493,137.575 c -1.553,0 -2.813,1.285 -2.813,2.842 l 0,17.467 c 0,1.555 1.259,2.841 2.813,2.841 l 17.494,0 c 1.554,0 2.842,-1.286 2.842,-2.841 l 0,-17.467 c 0,-1.557 -1.287,-2.842 -2.842,-2.842 l -17.494,0 z m 0,1.684 17.494,0 c 0.646,0 1.157,0.514 1.157,1.158 l 0,17.467 c 0,0.646 -0.514,1.157 -1.157,1.157 l -17.494,0 c -0.645,0 -1.13,-0.512 -1.13,-1.157 l 0,-17.467 c 0,-0.646 0.486,-1.158 1.13,-1.158 z"
     inkscape:connector-curvature="0"
     style="fill:#f4f4f4" /><path
     id="path121"
     d="m 314.201,137.575 c -1.556,0 -2.842,1.285 -2.842,2.842 l 0,17.467 c 0,1.555 1.284,2.841 2.842,2.841 l 17.493,0 c 1.554,0 2.814,-1.286 2.814,-2.841 l 0,-17.467 c 0,-1.557 -1.26,-2.842 -2.814,-2.842 l -17.493,0 z m 0,1.684 17.493,0 c 0.645,0 1.13,0.514 1.13,1.158 l 0,17.467 c 0,0.646 -0.486,1.157 -1.13,1.157 l -17.493,0 c -0.646,0 -1.159,-0.512 -1.159,-1.157 l 0,-17.467 c 0,-0.646 0.513,-1.158 1.159,-1.158 z"
     inkscape:connector-curvature="0"
     style="fill:#f4f4f4" /><path
     id="path123"
     d="m 338.873,137.575 c -1.554,0 -2.841,1.285 -2.841,2.842 l 0,17.467 c 0,1.555 1.285,2.841 2.841,2.841 l 17.492,0 c 1.555,0 2.842,-1.286 2.842,-2.841 l 0,-17.467 c 0,-1.556 -1.286,-2.842 -2.842,-2.842 l -17.492,0 z m 0,1.684 17.492,0 c 0.646,0 1.157,0.513 1.157,1.158 l 0,17.467 c 0,0.646 -0.512,1.157 -1.157,1.157 l -17.492,0 c -0.646,0 -1.158,-0.512 -1.158,-1.157 l 0,-17.467 c 0,-0.646 0.513,-1.158 1.158,-1.158 z"
     inkscape:connector-curvature="0"
     style="fill:#f4f4f4" /><path
     id="path125"
     d="m 445.755,137.575 c -1.555,0 -2.842,1.285 -2.842,2.842 l 0,17.467 c 0,1.555 1.286,2.841 2.842,2.841 l 31.75,0 c 1.555,0 2.842,-1.286 2.842,-2.841 l 0,-17.467 c 0,-1.557 -1.286,-2.842 -2.842,-2.842 l -31.75,0 z m 0,1.684 31.75,0 c 0.646,0 1.158,0.514 1.158,1.158 l 0,17.467 c 0,0.646 -0.514,1.157 -1.158,1.157 l -31.75,0 c -0.647,0 -1.157,-0.512 -1.157,-1.157 l 0,-17.467 c -0.001,-0.646 0.51,-1.158 1.157,-1.158 z"
     inkscape:connector-curvature="0"
     style="fill:#f4f4f4" /><path
     id="path127"
     d="m 364.227,137.575 c -1.555,0 -2.841,1.285 -2.841,2.842 l 0,17.467 c 0,1.555 1.285,2.841 2.841,2.841 l 41.063,0 c 1.554,0 2.814,-1.286 2.814,-2.841 l 0,-17.467 c 0,-1.557 -1.261,-2.842 -2.814,-2.842 l -41.063,0 z m 0,1.684 41.063,0 c 0.646,0 1.132,0.514 1.132,1.158 l 0,17.467 c 0,0.646 -0.488,1.157 -1.132,1.157 l -41.063,0 c -0.646,0 -1.157,-0.512 -1.157,-1.157 l 0,-17.467 c 0,-0.646 0.512,-1.158 1.157,-1.158 z"
     inkscape:connector-curvature="0"
     style="fill:#f4f4f4" /><path
     id="path129"
     d="m 17.994,161.988 c -1.555,0 -2.841,1.26 -2.841,2.814 l 0,17.494 c 0,1.555 1.286,2.84 2.841,2.84 l 17.493,0 c 1.555,0 2.815,-1.284 2.815,-2.84 l 0,-17.494 c 0,-1.555 -1.26,-2.814 -2.815,-2.814 l -17.493,0 z m 0,1.683 17.493,0 c 0.646,0 1.131,0.486 1.131,1.131 l 0,17.494 c 0,0.645 -0.485,1.157 -1.131,1.157 l -17.493,0 c -0.646,0 -1.158,-0.514 -1.158,-1.157 l 0,-17.494 c 0.001,-0.646 0.512,-1.131 1.158,-1.131 z"
     inkscape:connector-curvature="0"
     style="fill:#f4f4f4" /><path
     id="path131"
     d="m 42.67,161.988 c -1.555,0 -2.841,1.26 -2.841,2.814 l 0,17.494 c 0,1.555 1.286,2.84 2.841,2.84 l 29.436,0 c 1.416,0 2.561,-1.083 2.762,-2.445 0,-0.009 0,-0.019 0,-0.026 0.003,-0.02 0.024,-0.034 0.026,-0.053 0.032,-0.084 0.049,-0.173 0.053,-0.263 0,-0.019 0,-0.036 0,-0.053 l 0,-17.494 c 0,-1.555 -1.286,-2.814 -2.841,-2.814 l -29.436,0 0,0 z m 0,1.683 29.436,0 c 0.645,0 1.158,0.486 1.158,1.131 l 0,17.441 0,0.053 c 0,0.645 -0.513,1.157 -1.158,1.157 l -29.436,0 c -0.646,0 -1.158,-0.513 -1.158,-1.157 l 0,-17.494 c 0,-0.646 0.511,-1.131 1.158,-1.131 l 0,0 z"
     inkscape:connector-curvature="0"
     style="fill:#f4f4f4" /><path
     id="path133"
     d="m 79.313,161.988 c -1.555,0 -2.841,1.26 -2.841,2.814 l 0,17.494 c 0,1.555 1.286,2.84 2.841,2.84 l 17.493,0 c 1.555,0 2.814,-1.284 2.814,-2.84 l 0,-17.494 c 0,-1.555 -1.259,-2.814 -2.814,-2.814 l -17.493,0 z m 0,1.683 17.493,0 c 0.645,0 1.131,0.486 1.131,1.131 l 0,17.494 c 0,0.645 -0.486,1.157 -1.131,1.157 l -17.493,0 c -0.646,0 -1.158,-0.514 -1.158,-1.157 l 0,-17.494 c 0.001,-0.646 0.512,-1.131 1.158,-1.131 z"
     inkscape:connector-curvature="0"
     style="fill:#f4f4f4" /><path
     id="path135"
     d="m 103.99,161.988 c -1.555,0 -2.841,1.26 -2.841,2.814 l 0,17.494 c 0,1.555 1.286,2.84 2.841,2.84 l 17.493,0 c 1.555,0 2.841,-1.284 2.841,-2.84 l 0,-17.494 c 0,-1.555 -1.286,-2.814 -2.841,-2.814 l -17.493,0 z m 0,1.683 17.493,0 c 0.646,0 1.158,0.486 1.158,1.131 l 0,17.494 c 0,0.645 -0.512,1.157 -1.158,1.157 l -17.493,0 c -0.645,0 -1.158,-0.514 -1.158,-1.157 l 0,-17.494 c 0,-0.646 0.512,-1.131 1.158,-1.131 z"
     inkscape:connector-curvature="0"
     style="fill:#f4f4f4" /><path
     id="path137"
     d="m 128.688,161.988 c -1.555,0 -2.841,1.26 -2.841,2.814 l 0,17.494 c 0,1.555 1.286,2.84 2.841,2.84 l 17.467,0 c 1.555,0 2.841,-1.284 2.841,-2.84 l 0,-17.494 c 0,-1.555 -1.286,-2.814 -2.841,-2.814 l -17.467,0 z m 0,1.683 17.467,0 c 0.646,0 1.158,0.485 1.158,1.131 l 0,17.494 c 0,0.645 -0.512,1.157 -1.158,1.157 l -17.467,0 c -0.646,0 -1.158,-0.514 -1.158,-1.157 l 0,-17.494 c 0,-0.646 0.512,-1.131 1.158,-1.131 z"
     inkscape:connector-curvature="0"
     style="fill:#f4f4f4" /><path
     id="path139"
     d="m 85.521,186.374 c -1.554,0 -2.841,1.284 -2.841,2.841 l 0,17.493 c 0,1.555 1.286,2.842 2.841,2.842 l 217.702,0 c 1.555,0 2.841,-1.286 2.841,-2.842 l 0,-17.493 c 0,-1.555 -1.286,-2.841 -2.841,-2.841 l -217.702,0 z m 0,1.684 217.702,0 c 0.646,0 1.157,0.512 1.157,1.157 l 0,17.493 c 0,0.646 -0.513,1.157 -1.157,1.157 l -217.702,0 c -0.645,0 -1.157,-0.512 -1.157,-1.157 l 0,-17.493 c 0,-0.646 0.511,-1.157 1.157,-1.157 z"
     inkscape:connector-curvature="0"
     style="fill:#f4f4f4" /><path
     id="path141"
     d="m 153.361,161.988 c -1.555,0 -2.841,1.26 -2.841,2.814 l 0,17.494 c 0,1.554 1.285,2.84 2.841,2.84 l 17.493,0 c 1.555,0 2.815,-1.284 2.815,-2.84 l 0,-17.494 c 0,-1.555 -1.26,-2.814 -2.815,-2.814 l -17.493,0 z m 0,1.683 17.493,0 c 0.646,0 1.132,0.486 1.132,1.131 l 0,17.494 c 0,0.645 -0.486,1.157 -1.132,1.157 l -17.493,0 c -0.646,0 -1.158,-0.513 -1.158,-1.157 l 0,-17.494 c 0,-0.646 0.511,-1.131 1.158,-1.131 z"
     inkscape:connector-curvature="0"
     style="fill:#f4f4f4" /><path
     id="path143"
     d="m 178.042,161.988 c -1.555,0 -2.841,1.26 -2.841,2.814 l 0,17.494 c 0,1.555 1.286,2.84 2.841,2.84 l 17.493,0 c 1.555,0 2.841,-1.284 2.841,-2.84 l 0,-17.494 c 0,-1.555 -1.285,-2.814 -2.841,-2.814 l -17.493,0 z m 0,1.683 17.493,0 c 0.647,0 1.158,0.485 1.158,1.131 l 0,17.494 c 0,0.645 -0.512,1.157 -1.158,1.157 l -17.493,0 c -0.646,0 -1.158,-0.514 -1.158,-1.157 l 0,-17.494 c 0,-0.646 0.512,-1.131 1.158,-1.131 z"
     inkscape:connector-curvature="0"
     style="fill:#f4f4f4" /><path
     id="path145"
     d="m 202.74,161.988 c -1.554,0 -2.841,1.26 -2.841,2.814 l 0,17.494 c 0,1.554 1.286,2.84 2.841,2.84 l 17.466,0 c 1.555,0 2.841,-1.284 2.841,-2.84 l 0,-17.494 c 0,-1.555 -1.286,-2.814 -2.841,-2.814 l -17.466,0 z m 0,1.683 17.466,0 c 0.646,0 1.158,0.486 1.158,1.131 l 0,17.494 c 0,0.645 -0.512,1.157 -1.158,1.157 l -17.466,0 c -0.646,0 -1.158,-0.513 -1.158,-1.157 l 0,-17.494 c 0,-0.646 0.513,-1.131 1.158,-1.131 z"
     inkscape:connector-curvature="0"
     style="fill:#f4f4f4" /><path
     id="path147"
     d="m 227.412,161.988 c -1.555,0 -2.841,1.26 -2.841,2.814 l 0,17.494 c 0,1.555 1.286,2.84 2.841,2.84 l 17.493,0 c 1.555,0 2.815,-1.284 2.815,-2.84 l 0,-17.494 c 0,-1.555 -1.26,-2.814 -2.815,-2.814 l -17.493,0 z m 0,1.683 17.493,0 c 0.646,0 1.131,0.485 1.131,1.131 l 0,17.494 c 0,0.645 -0.485,1.157 -1.131,1.157 l -17.493,0 c -0.645,0 -1.158,-0.514 -1.158,-1.157 l 0,-17.494 c 0.001,-0.646 0.512,-1.131 1.158,-1.131 z"
     inkscape:connector-curvature="0"
     style="fill:#f4f4f4" /><path
     id="path149"
     d="m 252.093,161.988 c -1.553,0 -2.84,1.26 -2.84,2.814 l 0,17.494 c 0,1.554 1.286,2.84 2.84,2.84 l 17.494,0 c 1.555,0 2.841,-1.284 2.841,-2.84 l 0,-17.494 c 0,-1.555 -1.286,-2.814 -2.841,-2.814 l -17.494,0 z m 0,1.683 17.494,0 c 0.646,0 1.157,0.486 1.157,1.131 l 0,17.494 c 0,0.645 -0.513,1.157 -1.157,1.157 l -17.494,0 c -0.645,0 -1.157,-0.513 -1.157,-1.157 l 0,-17.494 c 0,-0.646 0.513,-1.131 1.157,-1.131 z"
     inkscape:connector-curvature="0"
     style="fill:#f4f4f4" /><path
     id="path151"
     d="m 276.791,161.988 c -1.554,0 -2.841,1.259 -2.841,2.814 l 0,17.494 c 0,1.555 1.286,2.84 2.841,2.84 l 17.468,0 c 1.555,0 2.841,-1.284 2.841,-2.84 l 0,-17.494 c 0,-1.555 -1.286,-2.814 -2.841,-2.814 l -17.468,0 z m 0,1.683 17.468,0 c 0.646,0 1.157,0.486 1.157,1.131 l 0,17.494 c 0,0.645 -0.513,1.157 -1.157,1.157 l -17.468,0 c -0.646,0 -1.156,-0.514 -1.156,-1.157 l 0,-17.494 c 0,-0.646 0.511,-1.131 1.156,-1.131 z"
     inkscape:connector-curvature="0"
     style="fill:#f4f4f4" /><path
     id="path153"
     d="m 301.464,161.988 c -1.554,0 -2.842,1.259 -2.842,2.814 l 0,17.494 c 0,1.555 1.287,2.84 2.842,2.84 l 17.493,0 c 1.555,0 2.813,-1.284 2.813,-2.84 l 0,-17.494 c 0,-1.555 -1.258,-2.814 -2.813,-2.814 l -17.493,0 z m 0,1.683 17.493,0 c 0.646,0 1.132,0.486 1.132,1.131 l 0,17.494 c 0,0.645 -0.487,1.157 -1.132,1.157 l -17.493,0 c -0.646,0 -1.157,-0.514 -1.157,-1.157 l 0,-17.494 c -0.001,-0.646 0.512,-1.131 1.157,-1.131 z"
     inkscape:connector-curvature="0"
     style="fill:#f4f4f4" /><path
     id="path155"
     d="m 326.137,161.988 c -1.554,0 -2.842,1.259 -2.842,2.814 l 0,17.494 c 0,1.555 1.286,2.84 2.842,2.84 l 30.436,0 c 1.556,0 2.841,-1.284 2.841,-2.84 l 0,-17.494 c 0,-1.555 -1.285,-2.814 -2.841,-2.814 l -30.436,0 z m 0,1.683 30.436,0 c 0.646,0 1.157,0.486 1.157,1.131 l 0,17.494 c 0,0.645 -0.513,1.157 -1.157,1.157 l -30.436,0 c -0.646,0 -1.157,-0.514 -1.157,-1.157 l 0,-17.494 c -0.001,-0.646 0.512,-1.131 1.157,-1.131 z"
     inkscape:connector-curvature="0"
     style="fill:#f4f4f4" /><path
     id="path157"
     d="m 363.125,161.988 c -1.554,0 -2.842,1.26 -2.842,2.814 l 0,17.494 c 0,1.554 1.287,2.84 2.842,2.84 l 17.467,0 c 1.554,0 2.841,-1.284 2.841,-2.84 l 0,-17.494 c 0,-1.555 -1.286,-2.814 -2.841,-2.814 l -17.467,0 z m 0,1.683 17.467,0 c 0.646,0 1.157,0.485 1.157,1.131 l 0,17.494 c 0,0.645 -0.512,1.157 -1.157,1.157 l -17.467,0 c -0.646,0 -1.157,-0.513 -1.157,-1.157 l 0,-17.494 c 0,-0.646 0.512,-1.131 1.157,-1.131 z"
     inkscape:connector-curvature="0"
     style="fill:#f4f4f4" /><path
     id="path159"
     d="m 445.755,161.988 c -1.555,0 -2.842,1.26 -2.842,2.814 l 0,17.494 c 0,1.554 1.286,2.84 2.842,2.84 l 31.75,0 c 1.555,0 2.842,-1.284 2.842,-2.84 l 0,-17.494 c 0,-1.555 -1.286,-2.814 -2.842,-2.814 l -31.75,0 z m 0,1.683 31.75,0 c 0.646,0 1.158,0.486 1.158,1.131 l 0,17.494 c 0,0.645 -0.514,1.157 -1.158,1.157 l -31.75,0 c -0.647,0 -1.157,-0.513 -1.157,-1.157 l 0,-17.494 c -0.001,-0.646 0.51,-1.131 1.157,-1.131 z"
     inkscape:connector-curvature="0"
     style="fill:#f4f4f4" /><path
     id="path161"
     d="m 387.798,161.988 c -1.554,0 -2.842,1.26 -2.842,2.814 l 0,17.494 c 0,1.554 1.285,2.84 2.842,2.84 l 17.493,0 c 1.554,0 2.814,-1.284 2.814,-2.84 l 0,-17.494 c 0,-1.555 -1.261,-2.814 -2.814,-2.814 l -17.493,0 z m 0,1.683 17.493,0 c 0.646,0 1.132,0.486 1.132,1.131 l 0,17.494 c 0,0.645 -0.488,1.157 -1.132,1.157 l -17.493,0 c -0.646,0 -1.158,-0.513 -1.158,-1.157 l 0,-17.494 c -10e-4,-0.646 0.511,-1.131 1.158,-1.131 z"
     inkscape:connector-curvature="0"
     style="fill:#f4f4f4" /><path
     id="path163"
     d="m 394.877,88.752 c -1.555,0 -2.841,1.285 -2.841,2.841 l 0,17.494 c 0,1.555 1.285,2.84 2.841,2.84 l 17.493,0 c 1.555,0 2.842,-1.285 2.842,-2.84 l 0,-17.494 c 0,-1.556 -1.287,-2.841 -2.842,-2.841 l -17.493,0 z m 0,1.684 17.493,0 c 0.647,0 1.157,0.511 1.157,1.158 l 0,17.494 c 0,0.645 -0.511,1.157 -1.157,1.157 l -17.493,0 c -0.646,0 -1.157,-0.514 -1.157,-1.157 l 0,-17.494 c 0,-0.646 0.512,-1.158 1.157,-1.158 z"
     inkscape:connector-curvature="0"
     style="fill:#f4f4f4" /><path
     id="path165"
     d="m 445.755,88.752 c -1.555,0 -2.842,1.285 -2.842,2.841 l 0,17.494 c 0,1.554 1.286,2.84 2.842,2.84 l 31.75,0 c 1.555,0 2.842,-1.284 2.842,-2.84 l 0,-17.494 c 0,-1.556 -1.286,-2.841 -2.842,-2.841 l -31.75,0 z m 0,1.684 31.75,0 c 0.646,0 1.158,0.511 1.158,1.158 l 0,17.494 c 0,0.644 -0.514,1.157 -1.158,1.157 l -31.75,0 c -0.647,0 -1.157,-0.513 -1.157,-1.157 l 0,-17.494 c -0.001,-0.647 0.51,-1.158 1.157,-1.158 z"
     inkscape:connector-curvature="0"
     style="fill:#f4f4f4" /><path
     id="polygon167"
     d="m 19.783,85.991 c -0.434,0.041 -0.764,0.406 -0.763,0.841 l 0,47.982 -5.787,0 c -0.465,0 -0.842,0.377 -0.842,0.843 l 0,52.11 c 0,0.465 0.376,0.841 0.842,0.841 l 66.238,0 0,23.07 c 0,0.466 0.377,0.843 0.842,0.843 l 227.466,0 c 0.465,0 0.843,-0.377 0.843,-0.843 l 0,-23.385 101.435,0 c 0.466,0 0.842,-0.377 0.842,-0.842 l 0,-47.98 6.444,0 c 0.466,0 0.843,-0.377 0.843,-0.842 l 0,-51.796 c 0,-0.465 -0.377,-0.841 -0.843,-0.841 l -397.482,0 C 19.835,85.99 19.808,85.99 19.783,85.991 l 0,0 z m 0.92,1.684 395.799,0 0,50.112 -6.446,0 c -0.463,0 -0.841,0.376 -0.841,0.842 l 0,47.98 -101.435,0 c -0.465,0 -0.841,0.378 -0.841,0.843 l 0,23.386 -225.784,0 0,-23.07 c 0,-0.465 -0.377,-0.842 -0.842,-0.842 l -66.238,0 0,-50.427 5.788,0 c 0.465,0 0.841,-0.378 0.841,-0.842 l -0.001,-47.982 0,0 z"
     inkscape:connector-curvature="0"
     style="fill:#f4f4f4" /><path
     id="rect169"
     d="m 441.336,86.496 c -0.424,0.054 -0.741,0.416 -0.737,0.842 l 0,99.617 c 0,0.465 0.377,0.842 0.842,0.842 l 40.168,0 c 0.466,0 0.843,-0.377 0.843,-0.842 l 0,-99.617 c 0,-0.465 -0.377,-0.842 -0.843,-0.842 l -40.168,0 c -0.036,-0.002 -0.072,-0.002 -0.105,0 z m 0.946,1.684 38.485,0 0,97.934 -38.485,0 0,-97.934 z"
     inkscape:connector-curvature="0"
     style="fill:#f4f4f4" /><path
     id="path171"
     d="m 8.919,77.261 c -2.105,0 -3.84,1.709 -3.84,3.814 l 0,137.472 c 0,2.106 1.734,3.841 3.84,3.841 l 502.411,0 c 2.104,0 3.813,-1.734 3.813,-3.841 l 0,-137.473 c 0,-2.105 -1.709,-3.813 -3.813,-3.813 l -502.411,0 0,0 z m 0,1.683 502.411,0 c 1.195,0 2.13,0.935 2.13,2.13 l 0,137.472 c 0,1.196 -0.935,2.158 -2.13,2.158 l -502.411,0 c -1.196,0 -2.157,-0.962 -2.157,-2.158 l 0,-137.472 c 0,-1.196 0.96,-2.13 2.157,-2.13 l 0,0 z"
     inkscape:connector-curvature="0"
     style="fill:#f4f4f4" /><path
     id="line173"
     d="m 517.407,37.118 c -0.465,0 -0.842,0.376 -0.842,0.841 0,0.009 0,0.018 0,0.027 l 0,2.92 c -0.008,0.465 0.364,0.847 0.83,0.854 0.463,0.006 0.847,-0.366 0.853,-0.83 0,-0.008 0,-0.016 0,-0.024 l 0,-2.92 c 0.016,-0.465 -0.351,-0.854 -0.814,-0.867 -0.009,-10e-4 -0.018,-10e-4 -0.027,-10e-4 z"
     inkscape:connector-curvature="0"
     style="fill:#f4f4f4" /><path
     id="line175"
     d="m 517.407,33.171 c -0.465,0 -0.842,0.377 -0.842,0.841 0,0.009 0,0.018 0,0.027 l 0,2.105 c -0.008,0.465 0.364,0.846 0.83,0.853 0.463,0.007 0.847,-0.365 0.853,-0.83 0,-0.008 0,-0.016 0,-0.023 l 0,-2.105 c 0.016,-0.465 -0.351,-0.854 -0.814,-0.868 -0.009,0 -0.018,0 -0.027,0 z"
     inkscape:connector-curvature="0"
     style="fill:#f4f4f4" /><path
     id="line177"
     d="m 517.305,28.12 c -0.423,0.054 -0.737,0.415 -0.735,0.842 l 0,3.288 c -0.006,0.465 0.364,0.847 0.83,0.854 0.465,0.006 0.848,-0.365 0.854,-0.83 0,-0.008 0,-0.016 0,-0.024 l 0,-3.288 c 0.004,-0.465 -0.37,-0.845 -0.835,-0.848 -0.038,0 -0.076,10e-4 -0.114,0.006 z"
     inkscape:connector-curvature="0"
     style="fill:#f4f4f4" /><path
     id="line179"
     d="m 517.407,23.254 c -0.465,0 -0.842,0.377 -0.842,0.842 0,0.009 0,0.017 0,0.026 l 0,3.156 c -0.008,0.465 0.364,0.848 0.83,0.854 0.463,0.007 0.847,-0.365 0.853,-0.83 0,-0.008 0,-0.016 0,-0.024 l 0,-3.156 c 0.016,-0.465 -0.351,-0.854 -0.814,-0.868 -0.009,0 -0.018,0 -0.027,0 z"
     inkscape:connector-curvature="0"
     style="fill:#f4f4f4" /><path
     id="line181"
     d="m 517.305,18.65 c -0.432,0.055 -0.752,0.432 -0.735,0.868 l 0,2.946 c -0.006,0.465 0.364,0.848 0.83,0.854 0.465,0.007 0.848,-0.365 0.854,-0.83 0,-0.008 0,-0.016 0,-0.024 l 0,-2.946 c 0.019,-0.464 -0.344,-0.855 -0.808,-0.874 -0.048,-10e-4 -0.095,0 -0.141,0.006 z"
     inkscape:connector-curvature="0"
     style="fill:#f4f4f4" /><path
     id="line183"
     d="m 517.407,14.469 c -0.465,0 -0.842,0.376 -0.842,0.841 0,0.009 0,0.018 0,0.026 l 0,2.315 c -0.008,0.465 0.364,0.848 0.83,0.854 0.463,0.007 0.847,-0.365 0.853,-0.83 0,-0.009 0,-0.016 0,-0.024 l 0,-2.315 c 0.016,-0.465 -0.351,-0.853 -0.814,-0.867 -0.009,0 -0.018,0 -0.027,0 z"
     inkscape:connector-curvature="0"
     style="fill:#f4f4f4" /><path
     id="line185"
     d="M 1.317,14.469 C 0.893,14.522 0.577,14.884 0.58,15.31 l 0,2.368 c -0.007,0.465 0.365,0.847 0.83,0.854 0.465,0.006 0.847,-0.365 0.854,-0.83 0,-0.008 0,-0.016 0,-0.024 l 0,-2.368 C 2.267,14.845 1.893,14.466 1.429,14.462 1.391,14.461 1.353,14.464 1.317,14.469 Z"
     inkscape:connector-curvature="0"
     style="fill:#f4f4f4" /><path
     id="line187"
     d="M 1.237,18.624 C 0.846,18.711 0.57,19.064 0.58,19.466 l 0,2.999 c -0.007,0.465 0.365,0.847 0.83,0.854 0.465,0.007 0.847,-0.365 0.854,-0.83 0,-0.009 0,-0.016 0,-0.024 l 0,-2.999 C 2.276,19.001 1.908,18.614 1.443,18.604 1.373,18.602 1.305,18.609 1.237,18.624 l 0,0 z"
     inkscape:connector-curvature="0"
     style="fill:#f4f4f4" /><path
     id="line189"
     d="M 1.237,23.649 C 0.846,23.737 0.57,24.089 0.58,24.491 l 0,2.736 c -0.007,0.465 0.365,0.847 0.83,0.854 0.465,0.007 0.847,-0.365 0.854,-0.829 0,-0.008 0,-0.017 0,-0.024 l 0,-2.736 C 2.276,24.027 1.908,23.642 1.443,23.63 1.373,23.627 1.305,23.635 1.237,23.649 l 0,0 z"
     inkscape:connector-curvature="0"
     style="fill:#f4f4f4" /><path
     id="line191"
     d="M 1.237,28.174 C 0.846,28.262 0.57,28.614 0.58,29.015 l 0,3.078 c -0.007,0.465 0.365,0.848 0.83,0.854 0.465,0.007 0.847,-0.365 0.854,-0.83 0,-0.008 0,-0.016 0,-0.024 l 0,-3.078 C 2.276,28.551 1.908,28.164 1.443,28.154 1.373,28.152 1.305,28.158 1.237,28.174 l 0,0 z"
     inkscape:connector-curvature="0"
     style="fill:#f4f4f4" /><path
     id="line193"
     d="M 1.237,33.277 C 0.846,33.365 0.57,33.717 0.58,34.119 l 0,2.131 c -0.007,0.465 0.365,0.847 0.83,0.854 0.465,0.006 0.847,-0.366 0.854,-0.83 0,-0.008 0,-0.016 0,-0.024 l 0,-2.131 C 2.276,33.654 1.908,33.268 1.443,33.257 1.373,33.256 1.305,33.262 1.237,33.277 l 0,0 z"
     inkscape:connector-curvature="0"
     style="fill:#f4f4f4" /><path
     id="line195"
     d="m 1.317,37.38 c -0.424,0.054 -0.74,0.415 -0.737,0.842 l 0,2.5 c -0.007,0.465 0.365,0.846 0.83,0.854 0.465,0.006 0.847,-0.365 0.854,-0.831 0,-0.008 0,-0.016 0,-0.023 l 0,-2.5 c 0.003,-0.464 -0.371,-0.846 -0.835,-0.849 -0.038,0 -0.076,0.002 -0.112,0.007 z"
     inkscape:connector-curvature="0"
     style="fill:#f4f4f4" /><path
     id="circle197"
     d="m 462.454,20.861 c -2.715,0 -4.944,2.203 -4.944,4.919 0,2.716 2.229,4.945 4.944,4.945 2.719,0 4.946,-2.229 4.946,-4.945 0,-2.717 -2.227,-4.919 -4.946,-4.919 z m 0,1.683 c 1.808,0 3.262,1.429 3.262,3.236 0,1.807 -1.454,3.262 -3.262,3.262 -1.806,0 -3.261,-1.455 -3.261,-3.262 0,-1.807 1.455,-3.236 3.261,-3.236 z"
     inkscape:connector-curvature="0"
     style="fill:#f4f4f4" /></svg>