<svg xmlns="http://www.w3.org/2000/svg" width="1400" height="1374" version="1">
  <path fill="#808285" d="M1310 0H90C40.294 0 0 40.294 0 90v1070h1400V90c0-49.706-40.295-90-90-90z"/>
  <path fill="#414042" d="M0 1160v104c0 49.705 40.294 90 90 90h4.203c95.337 11.71 331.796 20 608.405 20 276.721 0 513.258-8.297 608.519-20.015 8.395-.103 16.512-1.354 24.203-3.604 13.492-2.523 20.671-5.168 20.671-7.895 0-.315-.107-.631-.299-.944 26.512-15.659 44.299-44.521 44.299-77.542v-104H0z"/>
  <path fill="#4D4D4F" d="M45.354 1264c0 24.617 20.028 44.646 44.646 44.646h6.978l2.754.338c95.746 11.761 338.023 19.662 602.875 19.662 264.99 0 507.31-7.906 602.981-19.675l2.482-.306 2.502-.03c4.104-.051 8.147-.65 12.018-1.783l2.174-.636 2.226-.416.063-.012 5.582-3.297c13.782-8.141 22.01-22.529 22.01-38.491v-104H45.354v104z"/>
  <path fill="#8A8C8E" d="M1309.999 45.354H90c-24.618 0-44.646 20.028-44.646 44.646v1070h1309.292V90c0-24.618-20.03-44.646-44.647-44.646z"/>
  <path fill="#797A7D" d="M174 1158.583c0 .782-.635 1.417-1.417 1.417h-35.165c-.783 0-1.417-.635-1.417-1.417V37.417c0-.783.635-1.417 1.417-1.417h35.165c.783 0 1.417.635 1.417 1.417v1121.166zm1090 0c0 .782-.635 1.417-1.418 1.417h-35.164c-.783 0-1.418-.635-1.418-1.417V37.417c0-.783.635-1.417 1.418-1.417h35.164c.783 0 1.418.635 1.418 1.417v1121.166zm-65-240.756c0 7.827-6.346 14.173-14.173 14.173H215.173c-7.828 0-14.173-6.346-14.173-14.173V128.173c0-7.828 6.346-14.173 14.173-14.173h969.654c7.827 0 14.173 6.346 14.173 14.173v789.654zM735.75 1038.59h-71.5c-7.18 0-13 5.82-13 13 0 3.591 1.455 6.841 3.809 9.194l35.748 35.748c2.353 2.353 5.603 3.808 9.192 3.808 3.594 0 6.847-1.459 9.199-3.815l35.725-35.725c2.363-2.354 3.826-5.61 3.826-9.21.001-7.18-5.819-13-12.999-13z"/>
  <path fill="#2E2E2F" d="M1187 864.48c0 23.482-19.037 42.52-42.52 42.52H255.52c-23.483 0-42.52-19.037-42.52-42.52V175.52c0-23.483 19.037-42.52 42.52-42.52h888.961c23.482 0 42.52 19.037 42.52 42.52v688.96z"/>
  <path fill="#0D0D0D" stroke="#ED1C24" stroke-width="2.8346" stroke-miterlimit="10" d="M873 227H515l-140-94h646z"/>
  <path fill="#ED1C24" d="M548.666 147.008l15.187 64.273 15.109-64.273h-8.177l-6.932 36.123-7.01-36.123h-8.177m33.645 0h8.178v64.273h-8.178v-64.273m15.495-.008v64.283h8.181V178.07l11.376 33.213h7.541l-9.1-30.393c5.056-2.677 6.543-6.182 6.543-6.182v-20.42c-3.349-6.564-9.126-7.288-9.126-7.288h-15.415zm8.18 6.544h8.18v22.337h-8.18v-22.337zm18.928-6.536h24.455v6.53h-8.178v57.743h-8.177v-57.743h-8.1v-6.53m69.704-.008l-15.799 64.215v.068h8.104l1.712-8.665h11.429l1.636 8.665h8.181L694.618 147zm0 27.708l3.732 22.135h-8.08l4.348-22.135zm18.539-27.7h8.177v57.742h12.229v6.531h-20.406v-64.273m87.464 0h7.475l7.634 27.703 6.932-27.703h8.256l-11.449 37.808v26.465h-8.178v-26.465l-10.67-37.808m-14.675 0c-9.296 0-12.284 7.28-12.284 7.28.078.103 0 48.332 0 49.707 1.233 7.813 12.284 7.286 12.284 7.286 12.261 0 12.257-7.286 12.257-7.286v-49.707c-3.171-7.642-12.257-7.28-12.257-7.28zm-4.103 7.28h8.181v50.451h-8.181v-50.451zm-129.28-7.28h8.255v56.987h8.256v-56.987h8.1v56.987s-2.648 7.287-11.916 7.287-12.695-7.287-12.695-7.287v-56.987zm90.039-.008v64.283h16.438c7.629-1.753 8.104-6.544 8.104-6.544s-.014-17.169-.014-21.608c-.573-2.801-3.182-2.895-3.182-2.895s-.011-.782 0-1.399c2.885-.194 3.195-2.955 3.195-2.955s-.014-17.153 0-21.593c-1.248-5.244-8.104-7.288-8.104-7.288h-16.437zm8.206 7.333h8.232v21.548h-8.232v-21.548zm-.025 28.069h8.257v22.337h-8.257v-22.337zm73.632 22.348h5.685v.747h-2.414v5.784h-.818v-5.784h-2.453v-.747m6.503 6.531v-6.531h.818l2.921 5.826 2.803-5.826h.857v6.531h-.857v-5.054l-2.419 5.054h-.825l-2.48-5.054v5.054h-.818M1187 692.997v-7.234l-71.844-56.929H1187v-5.669h-78.998l-50.897-40.331h77.176l52.72 32.791v-6.676l-41.985-26.115H1187v-5.669h-51.1l-48.764-30.331h52.201l47.662 23.91v-6.343l-35.018-17.567H1187v-5.669h-46.318l-44.514-22.331h57.432l33.4 14.688v-6.192l-19.318-8.496H1187v-5.669H213v5.669h24.513L213 529.614v6.193l38.596-16.973h57.433l-44.514 22.331H213v5.669h40.214L213 567.008v6.342l52.857-26.516h38.202l-48.764 30.331H213v5.669h33.181L213 603.473v6.677l43.915-27.315h91.176l-50.897 40.331H213v5.669h77.04L213 689.881v7.232l86.168-68.279h98.265L262.937 787.165H213v5.67h45.12L213 845.951v8.756l52.558-61.872h299.047L540.929 907h5.79l23.677-114.165H834.8L858.477 907h5.79L840.59 792.835h299.048L1187 848.591v-8.756l-39.925-47H1187v-5.67h-44.741l-134.496-158.331h98.265L1187 692.997zm-61.834-115.831h-75.216l-38.277-30.331h64.729l48.764 30.331zm-335.094 0H615.123l6.291-30.331h162.368l6.29 30.331zm-.501-30.332h141.098l25.766 30.331H795.861l-6.29-30.331zm-180.238 30.332H448.761l25.765-30.331h141.098l-6.291 30.331zm-168.01 0h-76.95l38.278-30.331h64.437l-25.765 30.331zm2.622 5.668h164.212l-8.364 40.331H409.686l34.259-40.331zm170.002 0h177.3l8.364 40.331H605.583l8.364-40.331zm183.09 0H961.25l34.26 40.331H805.401l-8.364-40.331zm141.07-36h64.437l38.277 30.331h-76.949l-25.765-30.331zm145.416-28l44.515 22.331h-50.016l-35.903-22.331h41.404zm-52.138 0l35.902 22.331h-62.769l-28.182-22.331h55.049zm-64.177 0l28.182 22.331h-62.099l-18.969-22.331h52.886zm-60.324 0l18.97 22.331H788.396l-4.632-22.331h123.12zm-279.663 0h150.754l4.631 22.331H622.589l4.632-22.331zm-5.79 0l-4.631 22.331H479.342l18.969-22.331h123.12zm-130.557 0l-18.97 22.331h-62.099l28.182-22.331h52.887zm-62.015 0l-28.182 22.331h-76.77l35.902-22.331h69.05zm-151.702 22.332l44.514-22.331h27.404l-35.902 22.331h-36.016zm-11.128 36l48.764-30.331h78.729l-38.277 30.331h-89.216zm40.293 46l50.897-40.331h79.289l-34.26 40.331h-95.926zm259.459 163.999H270.375L404.87 628.834h193.748l-32.837 158.331zm5.79 0l32.836-158.331h196.38l32.837 158.331H571.571zm563.25 0H839.414l-32.837-158.331h193.748l134.496 158.331zm-131.874-163.999l-34.26-40.331h79.288l50.897 40.331h-95.925z"/>
</svg>
