<?xml version="1.0" encoding="UTF-8" standalone="no"?>
<svg
   xmlns:dc="http://purl.org/dc/elements/1.1/"
   xmlns:cc="http://creativecommons.org/ns#"
   xmlns:rdf="http://www.w3.org/1999/02/22-rdf-syntax-ns#"
   xmlns:svg="http://www.w3.org/2000/svg"
   xmlns="http://www.w3.org/2000/svg"
   viewBox="0 0 629.90875 386.56876"
   height="386.56876"
   width="629.90875"
   xml:space="preserve"
   version="1.1"
   id="svg2"><metadata
     id="metadata8"><rdf:RDF><cc:Work
         rdf:about=""><dc:format>image/svg+xml</dc:format><dc:type
           rdf:resource="http://purl.org/dc/dcmitype/StillImage" /><dc:title></dc:title></cc:Work></rdf:RDF></metadata><defs
     id="defs6"><clipPath
       id="clipPath16"
       clipPathUnits="userSpaceOnUse"><path
         id="path18"
         d="m 0,309.255 503.927,0 L 503.927,0 0,0 0,309.255 Z" /></clipPath></defs><g
     transform="matrix(1.25,0,0,-1.25,0,386.56875)"
     id="g10"><g
       id="g12"><g
         clip-path="url(#clipPath16)"
         id="g14"><g
           transform="translate(496.3618,296.4425)"
           id="g20"><path
             id="path22"
             style="fill:#9d9b91;fill-opacity:1;fill-rule:nonzero;stroke:none"
             d="m 0,0 0,4.401 -490.861,0 -1.842,0 -0.008,0 0.008,0 c -0.907,0 -1.682,-0.673 -1.682,-1.486 l 0,-6.924 0,-69.207 0,-6.733 c 0,-0.813 0.752,-1.486 1.658,-1.486 l 3.894,0 0,-3.178 c 0,0 488.833,0 488.833,0 l 0,5.092 4.324,0 c 0.906,0 1.658,0.673 1.658,1.486 l 0,76.377 C 5.982,-0.752 5.309,0 4.496,0 L 0,0 Z" /></g><g
           transform="translate(5.206,211.83)"
           id="g24"><path
             id="path26"
             style="fill:#424242;fill-opacity:1;fill-rule:nonzero;stroke:none"
             d="m 0,0 c -0.906,0 -1.682,-0.748 -1.682,-1.655 l 0,-208.519 c 0,-0.906 0.774,-1.656 1.682,-1.656 l 493.505,0 c 0.906,0 1.656,0.751 1.656,1.656 l 0,208.518 c 0,0.905 -0.752,1.655 -1.656,1.655 L 0,-0.001 0,0 Z" /></g><g
           transform="translate(28.273,157.338)"
           id="g28"><path
             id="path30"
             style="fill:#5c5343;fill-opacity:1;fill-rule:nonzero;stroke:none"
             d="m 0,0 15.993,0 c 0.874,0 1.549,-0.704 1.549,-1.576 l 0,-15.993 c 0,-0.872 -0.677,-1.575 -1.549,-1.575 l -15.993,0 c -0.872,0 -1.575,0.704 -1.575,1.575 l 0,15.993 C -1.575,-0.702 -0.873,0 0,0" /></g><g
           transform="translate(52.143,157.338)"
           id="g32"><path
             id="path34"
             style="fill:#e4ddc4;fill-opacity:1;fill-rule:nonzero;stroke:none"
             d="m 0,0 15.993,0 c 0.874,0 1.575,-0.704 1.575,-1.576 l 0,-15.993 c 0,-0.872 -0.702,-1.575 -1.575,-1.575 l -15.993,0 c -0.873,0 -1.575,0.704 -1.575,1.575 l 0,15.993 C -1.576,-0.702 -0.874,0 0,0" /></g><g
           transform="translate(76.012,157.338)"
           id="g36"><path
             id="path38"
             style="fill:#e4ddc4;fill-opacity:1;fill-rule:nonzero;stroke:none"
             d="m 0,0 15.993,0 c 0.873,0 1.575,-0.704 1.575,-1.576 l 0,-15.993 c 0,-0.872 -0.703,-1.575 -1.575,-1.575 l -15.993,0 c -0.873,0 -1.575,0.704 -1.575,1.575 l 0,15.993 C -1.575,-0.702 -0.872,0 0,0" /></g><g
           transform="translate(99.884,157.338)"
           id="g40"><path
             id="path42"
             style="fill:#e4ddc4;fill-opacity:1;fill-rule:nonzero;stroke:none"
             d="m 0,0 15.994,0 c 0.874,0 1.575,-0.704 1.575,-1.576 l 0,-15.993 c 0,-0.872 -0.702,-1.575 -1.575,-1.575 l -15.994,0 c -0.872,0 -1.548,0.704 -1.548,1.575 l 0,15.993 C -1.548,-0.702 -0.874,0 0,0" /></g><g
           transform="translate(123.747,157.338)"
           id="g44"><path
             id="path46"
             style="fill:#e4ddc4;fill-opacity:1;fill-rule:nonzero;stroke:none"
             d="m 0,0 16.02,0 c 0.874,0 1.548,-0.704 1.548,-1.576 l 0,-15.993 c 0,-0.872 -0.676,-1.575 -1.548,-1.575 l -16.02,0 c -0.873,0 -1.548,0.704 -1.548,1.575 l 0,15.993 C -1.548,-0.702 -0.873,0 0,0" /></g><g
           transform="translate(147.618,157.338)"
           id="g48"><path
             id="path50"
             style="fill:#e4ddc4;fill-opacity:1;fill-rule:nonzero;stroke:none"
             d="m 0,0 16.02,0 c 0.874,0 1.549,-0.704 1.549,-1.576 l 0,-15.993 c 0,-0.872 -0.676,-1.575 -1.549,-1.575 l -16.02,0 c -0.872,0 -1.548,0.704 -1.548,1.575 l 0,15.993 C -1.548,-0.702 -0.873,0 0,0" /></g><g
           transform="translate(171.516,157.338)"
           id="g52"><path
             id="path54"
             style="fill:#e4ddc4;fill-opacity:1;fill-rule:nonzero;stroke:none"
             d="m 0,0 15.993,0 c 0.872,0 1.548,-0.704 1.548,-1.576 l 0,-15.993 c 0,-0.872 -0.678,-1.575 -1.548,-1.575 l -15.993,0 c -0.871,0 -1.575,0.704 -1.575,1.575 l 0,15.993 C -1.576,-0.702 -0.872,0 0,0" /></g><g
           transform="translate(195.387,157.338)"
           id="g56"><path
             id="path58"
             style="fill:#e4ddc4;fill-opacity:1;fill-rule:nonzero;stroke:none"
             d="m 0,0 15.993,0 c 0.871,0 1.576,-0.704 1.576,-1.576 l 0,-15.993 c 0,-0.872 -0.705,-1.575 -1.576,-1.575 l -15.993,0 c -0.871,0 -1.576,0.704 -1.576,1.575 l 0,15.993 C -1.576,-0.702 -0.872,0 0,0" /></g><g
           transform="translate(219.25,157.338)"
           id="g60"><path
             id="path62"
             style="fill:#e4ddc4;fill-opacity:1;fill-rule:nonzero;stroke:none"
             d="m 0,0 15.993,0 c 0.874,0 1.575,-0.704 1.575,-1.576 l 0,-15.993 c 0,-0.872 -0.702,-1.575 -1.575,-1.575 l -15.993,0 c -0.873,0 -1.548,0.704 -1.548,1.575 l 0,15.993 C -1.549,-0.702 -0.873,0 0,0" /></g><g
           transform="translate(243.121,157.338)"
           id="g64"><path
             id="path66"
             style="fill:#e4ddc4;fill-opacity:1;fill-rule:nonzero;stroke:none"
             d="m 0,0 15.993,0 c 0.872,0 1.575,-0.704 1.575,-1.576 l 0,-15.993 c 0,-0.872 -0.704,-1.575 -1.575,-1.575 l -15.993,0 c -0.873,0 -1.549,0.704 -1.549,1.575 l 0,15.993 C -1.549,-0.702 -0.873,0 0,0 Z" /></g><g
           transform="translate(407.674,191.675)"
           id="g68"><path
             id="path70"
             style="fill:#5c5343;fill-opacity:1;fill-rule:nonzero;stroke:none"
             d="m 0,0 15.993,0 c 0.871,0 1.575,-0.677 1.575,-1.549 l 0,-16.018 c 0,-0.874 -0.704,-1.549 -1.575,-1.549 l -15.993,0 c -0.875,0 -1.575,0.675 -1.575,1.549 l 0,16.018 C -1.575,-0.675 -0.873,0 0,0" /></g><g
           transform="translate(431.537,191.675)"
           id="g72"><path
             id="path74"
             style="fill:#5c5343;fill-opacity:1;fill-rule:nonzero;stroke:none"
             d="m 0,0 15.992,0 c 0.874,0 1.576,-0.676 1.576,-1.549 l 0,-16.018 c 0,-0.874 -0.702,-1.549 -1.576,-1.549 l -15.992,0 c -0.873,0 -1.549,0.675 -1.549,1.549 l 0,16.018 C -1.549,-0.676 -0.871,0 0,0" /></g><g
           transform="translate(455.408,191.675)"
           id="g76"><path
             id="path78"
             style="fill:#5c5343;fill-opacity:1;fill-rule:nonzero;stroke:none"
             d="m 0,0 16.02,0 c 0.871,0 1.549,-0.677 1.549,-1.549 l 0,-16.018 c 0,-0.874 -0.678,-1.549 -1.549,-1.549 l -16.02,0 c -0.872,0 -1.549,0.675 -1.549,1.549 l 0,16.018 C -1.549,-0.676 -0.87,0 0,0" /></g><g
           transform="translate(266.992,157.338)"
           id="g80"><path
             id="path82"
             style="fill:#e4ddc4;fill-opacity:1;fill-rule:nonzero;stroke:none"
             d="m 0,0 16.021,0 c 0.872,0 1.548,-0.704 1.548,-1.576 l 0,-15.993 c 0,-0.871 -0.68,-1.575 -1.548,-1.575 l -16.021,0 c -0.872,0 -1.549,0.704 -1.549,1.575 l 0,15.993 C -1.549,-0.704 -0.872,0 0,0" /></g><g
           transform="translate(290.863,157.338)"
           id="g84"><path
             id="path86"
             style="fill:#e4ddc4;fill-opacity:1;fill-rule:nonzero;stroke:none"
             d="m 0,0 16.02,0 c 0.873,0 1.549,-0.704 1.549,-1.576 l 0,-15.993 c 0,-0.872 -0.678,-1.575 -1.549,-1.575 l -16.02,0 c -0.873,0 -1.548,0.704 -1.548,1.575 l 0,15.993 C -1.548,-0.702 -0.873,0 0,0" /></g><g
           transform="translate(314.76,157.338)"
           id="g88"><path
             id="path90"
             style="fill:#e4ddc4;fill-opacity:1;fill-rule:nonzero;stroke:none"
             d="m 0,0 15.992,0 c 0.875,0 1.549,-0.704 1.549,-1.576 l 0,-15.993 c 0,-0.872 -0.675,-1.575 -1.549,-1.575 l -15.992,0 c -0.871,0 -1.576,0.704 -1.576,1.575 l 0,15.993 C -1.576,-0.704 -0.873,0 0,0" /></g><g
           transform="translate(338.622,157.338)"
           id="g92"><path
             id="path94"
             style="fill:#e4ddc4;fill-opacity:1;fill-rule:nonzero;stroke:none"
             d="m 0,0 15.993,0 c 0.874,0 1.575,-0.704 1.575,-1.576 l 0,-15.993 c 0,-0.872 -0.703,-1.575 -1.575,-1.575 l -15.993,0 c -0.871,0 -1.575,0.704 -1.575,1.575 l 0,15.993 C -1.575,-0.702 -0.873,0 0,0" /></g><g
           transform="translate(362.495,157.338)"
           id="g96"><path
             id="path98"
             style="fill:#5c5343;fill-opacity:1;fill-rule:nonzero;stroke:none"
             d="m 0,0 15.993,0 c 0.871,0 1.575,-0.704 1.575,-1.576 l 0,-15.993 c 0,-0.871 -0.706,-1.575 -1.575,-1.575 l -15.993,0 c -0.873,0 -1.549,0.704 -1.549,1.575 l 0,15.993 C -1.549,-0.704 -0.873,0 0,0" /></g><g
           transform="translate(40.475,109.543)"
           id="g100"><path
             id="path102"
             style="fill:#5c5343;fill-opacity:1;fill-rule:nonzero;stroke:none"
             d="m 0,0 21.227,0 c 0.873,0 1.575,-0.678 1.575,-1.549 l 0,-15.992 c 0,-0.874 -0.702,-1.576 -1.575,-1.576 l -21.227,0 c -0.873,0 -1.575,0.701 -1.575,1.576 l 0,15.992 C -1.576,-0.676 -0.871,0 0,0" /></g><g
           transform="translate(69.578,109.543)"
           id="g104"><path
             id="path106"
             style="fill:#e4ddc4;fill-opacity:1;fill-rule:nonzero;stroke:none"
             d="m 0,0 15.993,0 c 0.874,0 1.576,-0.676 1.576,-1.549 l 0,-15.992 c 0,-0.873 -0.702,-1.576 -1.576,-1.576 l -15.993,0 c -0.873,0 -1.549,0.704 -1.549,1.576 l 0,15.992 C -1.549,-0.674 -0.873,0 0,0" /></g><g
           transform="translate(93.451,109.543)"
           id="g108"><path
             id="path110"
             style="fill:#e4ddc4;fill-opacity:1;fill-rule:nonzero;stroke:none"
             d="m 0,0 16.02,0 c 0.873,0 1.548,-0.676 1.548,-1.549 l 0,-15.992 c 0,-0.873 -0.676,-1.576 -1.548,-1.576 l -16.02,0 c -0.873,0 -1.549,0.704 -1.549,1.576 l 0,15.992 C -1.549,-0.674 -0.872,0 0,0" /></g><g
           transform="translate(117.314,109.543)"
           id="g112"><path
             id="path114"
             style="fill:#e4ddc4;fill-opacity:1;fill-rule:nonzero;stroke:none"
             d="m 0,0 16.02,0 c 0.874,0 1.549,-0.676 1.549,-1.549 l 0,-15.992 c 0,-0.873 -0.675,-1.576 -1.549,-1.576 l -16.02,0 c -0.873,0 -1.549,0.704 -1.549,1.576 l 0,15.992 C -1.549,-0.674 -0.874,0 0,0" /></g><g
           transform="translate(141.211,109.543)"
           id="g116"><path
             id="path118"
             style="fill:#e4ddc4;fill-opacity:1;fill-rule:nonzero;stroke:none"
             d="m 0,0 15.993,0 c 0.873,0 1.548,-0.676 1.548,-1.549 l 0,-15.992 c 0,-0.873 -0.676,-1.576 -1.548,-1.576 l -15.993,0 c -0.873,0 -1.575,0.704 -1.575,1.576 l 0,15.992 C -1.576,-0.674 -0.873,0 0,0" /></g><g
           transform="translate(165.082,109.543)"
           id="g120"><path
             id="path122"
             style="fill:#e4ddc4;fill-opacity:1;fill-rule:nonzero;stroke:none"
             d="m 0,0 15.993,0 c 0.874,0 1.576,-0.676 1.576,-1.549 l 0,-15.992 c 0,-0.873 -0.702,-1.576 -1.576,-1.576 l -15.993,0 c -0.873,0 -1.575,0.704 -1.575,1.576 l 0,15.992 C -1.575,-0.674 -0.873,0 0,0" /></g><g
           transform="translate(188.953,109.543)"
           id="g124"><path
             id="path126"
             style="fill:#e4ddc4;fill-opacity:1;fill-rule:nonzero;stroke:none"
             d="m 0,0 15.993,0 c 0.874,0 1.575,-0.676 1.575,-1.549 l 0,-15.992 c 0,-0.873 -0.702,-1.576 -1.575,-1.576 l -15.993,0 c -0.871,0 -1.575,0.704 -1.575,1.576 l 0,15.992 C -1.575,-0.674 -0.871,0 0,0" /></g><g
           transform="translate(212.816,109.543)"
           id="g128"><path
             id="path130"
             style="fill:#e4ddc4;fill-opacity:1;fill-rule:nonzero;stroke:none"
             d="m 0,0 15.993,0 c 0.871,0 1.576,-0.676 1.576,-1.549 l 0,-15.992 c 0,-0.873 -0.705,-1.576 -1.576,-1.576 l -15.993,0 c -0.871,0 -1.549,0.704 -1.549,1.576 l 0,15.992 C -1.549,-0.674 -0.872,0 0,0" /></g><g
           transform="translate(236.688,109.543)"
           id="g132"><path
             id="path134"
             style="fill:#e4ddc4;fill-opacity:1;fill-rule:nonzero;stroke:none"
             d="m 0,0 16.019,0 c 0.875,0 1.549,-0.676 1.549,-1.549 l 0,-15.992 c 0,-0.873 -0.676,-1.576 -1.549,-1.576 l -16.019,0 c -0.873,0 -1.549,0.704 -1.549,1.576 l 0,15.992 C -1.549,-0.674 -0.873,0 0,0" /></g><g
           transform="translate(260.559,109.543)"
           id="g136"><path
             id="path138"
             style="fill:#e4ddc4;fill-opacity:1;fill-rule:nonzero;stroke:none"
             d="m 0,0 16.02,0 c 0.874,0 1.548,-0.676 1.548,-1.549 l 0,-15.992 c 0,-0.873 -0.676,-1.576 -1.548,-1.576 l -16.02,0 c -0.871,0 -1.549,0.704 -1.549,1.576 l 0,15.992 C -1.549,-0.674 -0.871,0 0,0" /></g><g
           transform="translate(284.455,109.543)"
           id="g140"><path
             id="path142"
             style="fill:#e4ddc4;fill-opacity:1;fill-rule:nonzero;stroke:none"
             d="m 0,0 15.994,0 c 0.872,0 1.548,-0.676 1.548,-1.549 l 0,-15.992 c 0,-0.872 -0.678,-1.576 -1.548,-1.576 l -15.994,0 c -0.873,0 -1.574,0.704 -1.574,1.576 l 0,15.992 C -1.574,-0.674 -0.873,0 0,0" /></g><g
           transform="translate(308.326,109.543)"
           id="g144"><path
             id="path146"
             style="fill:#e4ddc4;fill-opacity:1;fill-rule:nonzero;stroke:none"
             d="m 0,0 15.993,0 c 0.873,0 1.575,-0.676 1.575,-1.549 l 0,-15.992 c 0,-0.873 -0.702,-1.576 -1.575,-1.576 l -15.993,0 c -0.872,0 -1.574,0.704 -1.574,1.576 l 0,15.992 C -1.574,-0.674 -0.872,0 0,0" /></g><g
           transform="translate(332.19,109.543)"
           id="g148"><path
             id="path150"
             style="fill:#e4ddc4;fill-opacity:1;fill-rule:nonzero;stroke:none"
             d="m 0,0 15.993,0 c 0.872,0 1.575,-0.676 1.575,-1.549 l 0,-15.992 c 0,-0.873 -0.703,-1.576 -1.575,-1.576 l -15.993,0 c -0.873,0 -1.549,0.704 -1.549,1.576 l 0,15.992 C -1.549,-0.674 -0.874,0 0,0" /></g><g
           transform="translate(356.06,109.543)"
           id="g152"><path
             id="path154"
             style="fill:#099a65;fill-opacity:1;fill-rule:nonzero;stroke:none"
             d="m 0,0 16.021,0 c 0.872,0 1.548,-0.676 1.548,-1.549 l 0,-15.992 c 0,-0.873 -0.676,-1.576 -1.548,-1.576 l -16.021,0 c -0.872,0 -1.548,0.704 -1.548,1.576 l 0,15.992 C -1.548,-0.674 -0.872,0 0,0" /></g><g
           transform="translate(45.709,85.673)"
           id="g156"><path
             id="path158"
             style="fill:#5c5343;fill-opacity:1;fill-rule:nonzero;stroke:none"
             d="m 0,0 27.26,0 c 0.872,0 1.575,-0.704 1.575,-1.576 l 0,-15.992 c 0,-0.874 -0.703,-1.577 -1.575,-1.577 l -27.26,0 c -0.873,0 -1.576,0.704 -1.576,1.577 l 0,15.992 C -1.576,-0.704 -0.872,0 0,0" /></g><g
           transform="translate(80.844,85.673)"
           id="g160"><path
             id="path162"
             style="fill:#e4ddc4;fill-opacity:1;fill-rule:nonzero;stroke:none"
             d="m 0,0 16.02,0 c 0.872,0 1.548,-0.704 1.548,-1.576 l 0,-15.992 c 0,-0.874 -0.675,-1.577 -1.548,-1.577 l -16.02,0 c -0.873,0 -1.548,0.704 -1.548,1.577 l 0,15.992 C -1.548,-0.704 -0.871,0 0,0" /></g><g
           transform="translate(104.712,85.673)"
           id="g164"><path
             id="path166"
             style="fill:#e4ddc4;fill-opacity:1;fill-rule:nonzero;stroke:none"
             d="m 0,0 16.019,0 c 0.873,0 1.548,-0.704 1.548,-1.576 l 0,-15.992 c 0,-0.874 -0.675,-1.577 -1.548,-1.577 l -16.019,0 c -0.873,0 -1.549,0.704 -1.549,1.577 l 0,15.992 C -1.549,-0.704 -0.872,0 0,0" /></g><g
           transform="translate(128.609,85.673)"
           id="g168"><path
             id="path170"
             style="fill:#e4ddc4;fill-opacity:1;fill-rule:nonzero;stroke:none"
             d="m 0,0 15.993,0 c 0.873,0 1.549,-0.704 1.549,-1.576 l 0,-15.992 c 0,-0.874 -0.675,-1.577 -1.549,-1.577 l -15.993,0 c -0.874,0 -1.575,0.704 -1.575,1.577 l 0,15.992 C -1.575,-0.703 -0.874,0 0,0" /></g><g
           transform="translate(152.48,85.673)"
           id="g172"><path
             id="path174"
             style="fill:#e4ddc4;fill-opacity:1;fill-rule:nonzero;stroke:none"
             d="m 0,0 15.993,0 c 0.873,0 1.575,-0.704 1.575,-1.576 l 0,-15.992 c 0,-0.874 -0.702,-1.577 -1.575,-1.577 l -15.993,0 c -0.872,0 -1.575,0.704 -1.575,1.577 l 0,15.992 C -1.576,-0.703 -0.873,0 0,0" /></g><g
           transform="translate(176.351,85.673)"
           id="g176"><path
             id="path178"
             style="fill:#e4ddc4;fill-opacity:1;fill-rule:nonzero;stroke:none"
             d="m 0,0 15.993,0 c 0.873,0 1.575,-0.704 1.575,-1.576 l 0,-15.992 c 0,-0.874 -0.702,-1.577 -1.575,-1.577 l -15.993,0 c -0.873,0 -1.575,0.704 -1.575,1.577 l 0,15.992 C -1.575,-0.703 -0.873,0 0,0" /></g><g
           transform="translate(200.213,85.673)"
           id="g180"><path
             id="path182"
             style="fill:#e4ddc4;fill-opacity:1;fill-rule:nonzero;stroke:none"
             d="m 0,0 15.994,0 c 0.872,0 1.576,-0.704 1.576,-1.576 l 0,-15.992 c 0,-0.874 -0.704,-1.577 -1.576,-1.577 l -15.994,0 c -0.873,0 -1.548,0.704 -1.548,1.577 l 0,15.992 C -1.548,-0.704 -0.871,0 0,0" /></g><g
           transform="translate(224.085,85.673)"
           id="g184"><path
             id="path186"
             style="fill:#e4ddc4;fill-opacity:1;fill-rule:nonzero;stroke:none"
             d="m 0,0 16.02,0 c 0.873,0 1.549,-0.704 1.549,-1.576 l 0,-15.992 c 0,-0.874 -0.677,-1.577 -1.549,-1.577 l -16.02,0 c -0.871,0 -1.548,0.704 -1.548,1.577 l 0,15.992 C -1.548,-0.704 -0.872,0 0,0" /></g><g
           transform="translate(247.982,85.673)"
           id="g188"><path
             id="path190"
             style="fill:#e4ddc4;fill-opacity:1;fill-rule:nonzero;stroke:none"
             d="m 0,0 15.993,0 c 0.872,0 1.548,-0.704 1.548,-1.576 l 0,-15.992 c 0,-0.874 -0.676,-1.577 -1.548,-1.577 l -15.993,0 c -0.873,0 -1.575,0.704 -1.575,1.577 l 0,15.992 C -1.575,-0.704 -0.872,0 0,0 Z" /></g><g
           transform="translate(271.853,85.673)"
           id="g192"><path
             id="path194"
             style="fill:#e4ddc4;fill-opacity:1;fill-rule:nonzero;stroke:none"
             d="m 0,0 15.993,0 c 0.873,0 1.55,-0.704 1.55,-1.576 l 0,-15.992 c 0,-0.874 -0.677,-1.577 -1.55,-1.577 l -15.993,0 c -0.872,0 -1.574,0.704 -1.574,1.577 l 0,15.992 C -1.575,-0.704 -0.871,0 0,0" /></g><g
           transform="translate(295.716,85.673)"
           id="g196"><path
             id="path198"
             style="fill:#e4ddc4;fill-opacity:1;fill-rule:nonzero;stroke:none"
             d="m 0,0 15.993,0 c 0.872,0 1.576,-0.704 1.576,-1.576 l 0,-15.992 c 0,-0.874 -0.704,-1.577 -1.576,-1.577 l -15.993,0 c -0.873,0 -1.575,0.704 -1.575,1.577 l 0,15.992 C -1.575,-0.704 -0.871,0 0,0" /></g><g
           transform="translate(319.588,85.673)"
           id="g200"><path
             id="path202"
             style="fill:#e4ddc4;fill-opacity:1;fill-rule:nonzero;stroke:none"
             d="m 0,0 15.992,0 c 0.873,0 1.575,-0.704 1.575,-1.576 l 0,-15.992 c 0,-0.874 -0.702,-1.577 -1.575,-1.577 l -15.992,0 c -0.874,0 -1.55,0.704 -1.55,1.577 l 0,15.992 C -1.55,-0.704 -0.872,0 0,0" /></g><g
           transform="translate(343.458,85.673)"
           id="g204"><path
             id="path206"
             style="fill:#5c5343;fill-opacity:1;fill-rule:nonzero;stroke:none"
             d="m 0,0 28.89,0 c 0.872,0 1.574,-0.704 1.574,-1.576 l 0,-15.992 c 0,-0.874 -0.702,-1.577 -1.574,-1.577 l -28.89,0 c -0.873,0 -1.549,0.704 -1.549,1.577 l 0,15.992 C -1.549,-0.704 -0.871,0 0,0" /></g><g
           transform="translate(80.871,61.775)"
           id="g208"><path
             id="path210"
             style="fill:#5c5343;fill-opacity:1;fill-rule:nonzero;stroke:none"
             d="m 0,0 15.993,0 c 0.872,0 1.575,-0.677 1.575,-1.548 l 0,-16.02 c 0,-0.873 -0.703,-1.549 -1.575,-1.549 l -15.993,0 c -0.872,0 -1.575,0.678 -1.575,1.549 l 0,16.02 C -1.575,-0.677 -0.872,0 0,0 Z" /></g><g
           transform="translate(104.737,61.775)"
           id="g212"><path
             id="path214"
             style="fill:#099a65;fill-opacity:1;fill-rule:nonzero;stroke:none"
             d="m 0,0 15.994,0 c 0.872,0 1.575,-0.677 1.575,-1.548 l 0,-16.02 c 0,-0.873 -0.704,-1.549 -1.575,-1.549 l -15.994,0 c -0.872,0 -1.575,0.678 -1.575,1.549 l 0,16.02 C -1.575,-0.677 -0.872,0 0,0 Z" /></g><g
           transform="translate(128.609,61.775)"
           id="g216"><path
             id="path218"
             style="fill:#e4ddc4;fill-opacity:1;fill-rule:nonzero;stroke:none"
             d="m 0,0 186.279,0 c 0.873,0 1.575,-0.677 1.575,-1.548 l 0,-16.02 c 0,-0.873 -0.702,-1.549 -1.575,-1.549 L 0,-19.117 c -0.872,0 -1.549,0.678 -1.549,1.549 l 0,16.02 C -1.549,-0.677 -0.872,0 0,0 Z" /></g><g
           transform="translate(33.507,133.441)"
           id="g220"><path
             id="path222"
             style="fill:#5c5343;fill-opacity:1;fill-rule:nonzero;stroke:none"
             d="m 0,0 22.027,0 c 0.873,0 1.575,-0.677 1.575,-1.549 l 0,-15.165 0,-0.854 c 0,-0.873 -0.702,-1.549 -1.575,-1.549 l -22.027,0 c -0.871,0 -1.575,0.678 -1.575,1.549 l 0,16.02 C -1.575,-0.676 -0.871,0 0,0 Z" /></g><g
           transform="translate(63.41,133.441)"
           id="g224"><path
             id="path226"
             style="fill:#e4ddc4;fill-opacity:1;fill-rule:nonzero;stroke:none"
             d="m 0,0 15.993,0 c 0.873,0 1.575,-0.677 1.575,-1.549 l 0,-16.02 c 0,-0.873 -0.702,-1.549 -1.575,-1.549 l -15.993,0 c -0.873,0 -1.575,0.677 -1.575,1.549 l 0,16.02 C -1.575,-0.676 -0.872,0 0,0" /></g><g
           transform="translate(87.282,133.441)"
           id="g228"><path
             id="path230"
             style="fill:#e4ddc4;fill-opacity:1;fill-rule:nonzero;stroke:none"
             d="m 0,0 15.993,0 c 0.873,0 1.575,-0.677 1.575,-1.549 l 0,-16.02 c 0,-0.873 -0.702,-1.549 -1.575,-1.549 l -15.993,0 c -0.873,0 -1.548,0.677 -1.548,1.549 l 0,16.02 C -1.548,-0.676 -0.872,0 0,0" /></g><g
           transform="translate(111.145,133.441)"
           id="g232"><path
             id="path234"
             style="fill:#e4ddc4;fill-opacity:1;fill-rule:nonzero;stroke:none"
             d="m 0,0 16.02,0 c 0.873,0 1.548,-0.677 1.548,-1.549 l 0,-16.02 c 0,-0.873 -0.675,-1.549 -1.548,-1.549 l -16.02,0 c -0.873,0 -1.548,0.676 -1.548,1.549 l 0,16.02 C -1.548,-0.675 -0.873,0 0,0" /></g><g
           transform="translate(135.016,133.441)"
           id="g236"><path
             id="path238"
             style="fill:#e4ddc4;fill-opacity:1;fill-rule:nonzero;stroke:none"
             d="m 0,0 16.02,0 c 0.875,0 1.549,-0.676 1.549,-1.549 l 0,-16.02 c 0,-0.873 -0.675,-1.549 -1.549,-1.549 l -16.02,0 c -0.873,0 -1.548,0.677 -1.548,1.549 l 0,16.02 C -1.548,-0.676 -0.872,0 0,0" /></g><g
           transform="translate(158.913,133.441)"
           id="g240"><path
             id="path242"
             style="fill:#e4ddc4;fill-opacity:1;fill-rule:nonzero;stroke:none"
             d="m 0,0 15.993,0 c 0.873,0 1.548,-0.677 1.548,-1.549 l 0,-16.02 c 0,-0.873 -0.675,-1.549 -1.548,-1.549 l -15.993,0 c -0.874,0 -1.575,0.676 -1.575,1.549 l 0,16.02 C -1.575,-0.675 -0.874,0 0,0" /></g><g
           transform="translate(182.785,133.441)"
           id="g244"><path
             id="path246"
             style="fill:#e4ddc4;fill-opacity:1;fill-rule:nonzero;stroke:none"
             d="m 0,0 15.993,0 c 0.873,0 1.576,-0.676 1.576,-1.549 l 0,-16.02 c 0,-0.873 -0.704,-1.549 -1.576,-1.549 l -15.993,0 c -0.873,0 -1.575,0.677 -1.575,1.549 l 0,16.02 C -1.575,-0.676 -0.872,0 0,0" /></g><g
           transform="translate(206.656,133.441)"
           id="g248"><path
             id="path250"
             style="fill:#e4ddc4;fill-opacity:1;fill-rule:nonzero;stroke:none"
             d="m 0,0 15.993,0 c 0.873,0 1.575,-0.677 1.575,-1.549 l 0,-16.02 c 0,-0.873 -0.702,-1.549 -1.575,-1.549 l -15.993,0 c -0.872,0 -1.548,0.678 -1.548,1.549 l 0,16.02 C -1.549,-0.676 -0.872,0 0,0" /></g><g
           transform="translate(230.519,133.441)"
           id="g252"><path
             id="path254"
             style="fill:#e4ddc4;fill-opacity:1;fill-rule:nonzero;stroke:none"
             d="m 0,0 15.993,0 c 0.873,0 1.575,-0.676 1.575,-1.549 l 0,-16.02 c 0,-0.873 -0.703,-1.549 -1.575,-1.549 l -15.993,0 c -0.873,0 -1.549,0.677 -1.549,1.549 l 0,16.02 C -1.549,-0.676 -0.872,0 0,0" /></g><g
           transform="translate(254.391,133.441)"
           id="g256"><path
             id="path258"
             style="fill:#e4ddc4;fill-opacity:1;fill-rule:nonzero;stroke:none"
             d="m 0,0 16.02,0 c 0.873,0 1.548,-0.676 1.548,-1.549 l 0,-16.02 c 0,-0.873 -0.677,-1.549 -1.548,-1.549 l -16.02,0 c -0.873,0 -1.549,0.678 -1.549,1.549 l 0,16.02 C -1.549,-0.676 -0.873,0 0,0" /></g><g
           transform="translate(278.262,133.441)"
           id="g260"><path
             id="path262"
             style="fill:#e4ddc4;fill-opacity:1;fill-rule:nonzero;stroke:none"
             d="m 0,0 16.019,0 c 0.873,0 1.55,-0.676 1.55,-1.549 l 0,-16.02 c 0,-0.873 -0.677,-1.549 -1.55,-1.549 l -16.019,0 c -0.874,0 -1.55,0.677 -1.55,1.549 l 0,16.02 C -1.55,-0.676 -0.874,0 0,0" /></g><g
           transform="translate(302.159,133.441)"
           id="g264"><path
             id="path266"
             style="fill:#e4ddc4;fill-opacity:1;fill-rule:nonzero;stroke:none"
             d="m 0,0 15.993,0 c 0.872,0 1.548,-0.676 1.548,-1.549 l 0,-16.02 c 0,-0.873 -0.677,-1.549 -1.548,-1.549 l -15.993,0 c -0.874,0 -1.576,0.678 -1.576,1.549 l 0,16.02 C -1.576,-0.676 -0.873,0 0,0" /></g><g
           transform="translate(326.022,133.441)"
           id="g268"><path
             id="path270"
             style="fill:#e4ddc4;fill-opacity:1;fill-rule:nonzero;stroke:none"
             d="m 0,0 15.993,0 c 0.873,0 1.575,-0.677 1.575,-1.549 l 0,-16.02 c 0,-0.873 -0.704,-1.549 -1.575,-1.549 l -15.993,0 c -0.874,0 -1.577,0.677 -1.577,1.549 l 0,16.02 C -1.578,-0.676 -0.873,0 0,0" /></g><g
           transform="translate(349.893,133.441)"
           id="g272"><path
             id="path274"
             style="fill:#5c5343;fill-opacity:1;fill-rule:nonzero;stroke:none"
             d="m 0,0 28.488,0 c 0.873,0 1.549,-0.676 1.549,-1.549 l 0,-16.02 c 0,-0.873 -0.677,-1.549 -1.549,-1.549 l -28.488,0 c -0.872,0 -1.548,0.677 -1.548,1.549 l 0,16.02 C -1.548,-0.676 -0.872,0 0,0" /></g><g
           transform="translate(49.686,192.443)"
           id="g276"><path
             id="path278"
             style="fill:#5c5343;fill-opacity:1;fill-rule:nonzero;stroke:none"
             d="m 0,0 25.685,0 c 0.871,0 1.548,-0.675 1.548,-1.548 l 0,-16.02 c 0,-0.873 -0.677,-1.549 -1.548,-1.549 l -25.685,0 c -0.873,0 -1.548,0.676 -1.548,1.549 l 0,16.02 C -1.548,-0.674 -0.872,0 0,0" /></g><g
           transform="translate(84.849,192.443)"
           id="g280"><path
             id="path282"
             style="fill:#5c5343;fill-opacity:1;fill-rule:nonzero;stroke:none"
             d="m 0,0 25.658,0 c 0.871,0 1.575,-0.675 1.575,-1.548 l 0,-16.02 c 0,-0.873 -0.704,-1.549 -1.575,-1.549 l -25.658,0 c -0.873,0 -1.576,0.676 -1.576,1.549 l 0,16.02 C -1.576,-0.674 -0.872,0 0,0" /></g><g
           transform="translate(119.988,192.443)"
           id="g284"><path
             id="path286"
             style="fill:#5c5343;fill-opacity:1;fill-rule:nonzero;stroke:none"
             d="m 0,0 25.684,0 c 0.872,0 1.548,-0.675 1.548,-1.548 l 0,-16.02 c 0,-0.873 -0.677,-1.549 -1.548,-1.549 l -25.684,0 c -0.874,0 -1.549,0.676 -1.549,1.549 l 0,16.02 C -1.548,-0.673 -0.872,0 0,0" /></g><g
           transform="translate(155.146,192.443)"
           id="g288"><path
             id="path290"
             style="fill:#5c5343;fill-opacity:1;fill-rule:nonzero;stroke:none"
             d="m 0,0 25.657,0 c 0.872,0 1.576,-0.675 1.576,-1.548 l 0,-16.02 c 0,-0.873 -0.703,-1.549 -1.576,-1.549 l -25.657,0 c -0.874,0 -1.576,0.676 -1.576,1.549 l 0,16.02 C -1.576,-0.673 -0.873,0 0,0" /></g><g
           transform="translate(190.286,192.443)"
           id="g292"><path
             id="path294"
             style="fill:#5c5343;fill-opacity:1;fill-rule:nonzero;stroke:none"
             d="m 0,0 25.685,0 c 0.873,0 1.548,-0.674 1.548,-1.548 l 0,-16.02 c 0,-0.873 -0.676,-1.549 -1.548,-1.549 l -25.685,0 c -0.872,0 -1.548,0.676 -1.548,1.549 l 0,16.02 C -1.549,-0.674 -0.872,0 0,0" /></g><g
           transform="translate(314.838,192.443)"
           id="g296"><path
             id="path298"
             style="fill:#5c5343;fill-opacity:1;fill-rule:nonzero;stroke:none"
             d="m 0,0 25.657,0 c 0.874,0 1.548,-0.674 1.548,-1.548 l 0,-16.02 c 0,-0.873 -0.674,-1.549 -1.548,-1.549 l -25.657,0 c -0.871,0 -1.575,0.676 -1.575,1.549 l 0,16.02 C -1.575,-0.675 -0.871,0 0,0" /></g><g
           transform="translate(349.969,192.443)"
           id="g300"><path
             id="path302"
             style="fill:#cb051a;fill-opacity:1;fill-rule:nonzero;stroke:none"
             d="m 0,0 25.684,0 c 0.873,0 1.549,-0.674 1.549,-1.548 l 0,-16.02 c 0,-0.873 -0.676,-1.549 -1.549,-1.549 l -25.684,0 c -0.872,0 -1.548,0.676 -1.548,1.549 l 0,16.02 C -1.548,-0.675 -0.87,0 0,0" /></g><g
           transform="translate(30.222,186.813)"
           id="g304"><path
             id="path306"
             style="fill:#232323;fill-opacity:1;fill-rule:nonzero;stroke:none"
             d="m 0,0 9.024,0 0,-6.889 L 0,-6.889 0,0 Z" /></g><g
           transform="translate(21.038,103.453)"
           id="g308"><path
             id="path310"
             style="fill:#232323;fill-opacity:1;fill-rule:nonzero;stroke:none"
             d="m 0,0 c -0.906,0 -1.655,-0.776 -1.655,-1.683 l 0,-2.67 c 0,-0.905 0.75,-1.655 1.655,-1.655 l 7.796,0 c 0.905,0 1.655,0.747 1.655,1.655 l 0,2.67 C 9.451,-0.776 8.703,0 7.796,0 L 0,0 Z" /></g><g
           transform="translate(384.708,103.453)"
           id="g312"><path
             id="path314"
             style="fill:#232323;fill-opacity:1;fill-rule:nonzero;stroke:none"
             d="m 0,0 c -0.906,0 -1.656,-0.776 -1.656,-1.683 l 0,-2.67 c 0,-0.905 0.751,-1.655 1.656,-1.655 l 7.769,0 c 0.906,0 1.656,0.747 1.656,1.655 l 0,2.67 C 9.425,-0.777 8.677,0 7.769,0 L 0,0 Z" /></g><g
           transform="translate(404.547,141.96)"
           id="g316"><path
             id="path318"
             style="fill:none;stroke:#545353;stroke-width:1;stroke-linecap:butt;stroke-linejoin:miter;stroke-miterlimit:10;stroke-dasharray:none;stroke-opacity:1"
             d="m 0,0 70.059,0 c 2.207,0 3.979,-1.772 3.979,-3.978 l 0,-70.061 c 0,-2.206 -1.771,-3.979 -3.979,-3.979 l -70.059,0 c -2.204,0 -3.979,1.773 -3.979,3.979 l 0,70.061 C -3.979,-1.773 -2.204,0 0,0 l 0,0 z" /></g><g
           transform="translate(439.576,138.515)"
           id="g320"><path
             id="path322"
             style="fill:#2761a2;fill-opacity:1;fill-rule:nonzero;stroke:none"
             d="M 0,0 C 2.664,0 5.332,-1.007 7.369,-3.044 L 18.955,-14.629 -0.002,-33.587 -18.957,-14.629 -7.371,-3.044 C -5.333,-1.007 -2.666,0 -0.002,0 L 0,0 Z" /></g><path
           id="path324"
           style="fill:#424242;fill-opacity:1;fill-rule:nonzero;stroke:none"
           d="m 29.475,216.922 -1.709,0 0,80.853 1.709,0 0,-80.853 z" /><path
           id="path326"
           style="fill:#424242;fill-opacity:1;fill-rule:nonzero;stroke:none"
           d="m 36.817,216.922 -1.709,0 0,79.564 1.709,0 0,-79.564 z" /><path
           id="path328"
           style="fill:#424242;fill-opacity:1;fill-rule:nonzero;stroke:none"
           d="m 44.159,216.922 -1.709,0 0,79.564 1.709,0 0,-79.564 z" /><path
           id="path330"
           style="fill:#424242;fill-opacity:1;fill-rule:nonzero;stroke:none"
           d="m 51.502,216.922 -1.709,0 0,79.564 1.709,0 0,-79.564 z" /><path
           id="path332"
           style="fill:#424242;fill-opacity:1;fill-rule:nonzero;stroke:none"
           d="m 58.871,216.922 -1.709,0 0,79.564 1.709,0 0,-79.564 z" /><path
           id="path334"
           style="fill:#424242;fill-opacity:1;fill-rule:nonzero;stroke:none"
           d="m 66.213,216.922 -1.709,0 0,79.564 1.709,0 0,-79.564 z" /><path
           id="path336"
           style="fill:#424242;fill-opacity:1;fill-rule:nonzero;stroke:none"
           d="m 73.556,216.922 -1.709,0 0,79.564 1.709,0 0,-79.564 z" /><path
           id="path338"
           style="fill:#424242;fill-opacity:1;fill-rule:nonzero;stroke:none"
           d="m 80.899,216.922 -1.709,0 0,79.564 1.709,0 0,-79.564 z" /><path
           id="path340"
           style="fill:#424242;fill-opacity:1;fill-rule:nonzero;stroke:none"
           d="m 88.239,216.922 -1.709,0 0,79.564 1.709,0 0,-79.564 z" /><path
           id="path342"
           style="fill:#424242;fill-opacity:1;fill-rule:nonzero;stroke:none"
           d="m 95.587,216.922 -1.709,0 0,79.564 1.709,0 0,-79.564 z" /><path
           id="path344"
           style="fill:#424242;fill-opacity:1;fill-rule:nonzero;stroke:none"
           d="m 102.925,216.922 -1.709,0 0,79.564 1.709,0 0,-79.564 z" /><path
           id="path346"
           style="fill:#424242;fill-opacity:1;fill-rule:nonzero;stroke:none"
           d="m 110.267,216.922 -1.709,0 0,79.564 1.709,0 0,-79.564 z" /><path
           id="path348"
           style="fill:#424242;fill-opacity:1;fill-rule:nonzero;stroke:none"
           d="m 117.61,216.922 -1.709,0 0,79.564 1.709,0 0,-79.564 z" /><path
           id="path350"
           style="fill:#424242;fill-opacity:1;fill-rule:nonzero;stroke:none"
           d="m 124.953,216.922 -1.709,0 0,79.564 1.709,0 0,-79.564 z" /><path
           id="path352"
           style="fill:#424242;fill-opacity:1;fill-rule:nonzero;stroke:none"
           d="m 132.293,216.922 -1.709,0 0,79.564 1.709,0 0,-79.564 z" /><path
           id="path354"
           style="fill:#424242;fill-opacity:1;fill-rule:nonzero;stroke:none"
           d="m 139.641,216.922 -1.709,0 0,79.564 1.709,0 0,-79.564 z" /><path
           id="path356"
           style="fill:#424242;fill-opacity:1;fill-rule:nonzero;stroke:none"
           d="m 146.87,216.922 -1.709,0 0,79.564 1.709,0 0,-79.564 z" /><path
           id="path358"
           style="fill:#424242;fill-opacity:1;fill-rule:nonzero;stroke:none"
           d="m 154.212,216.922 -1.709,0 0,79.564 1.709,0 0,-79.564 z" /><path
           id="path360"
           style="fill:#424242;fill-opacity:1;fill-rule:nonzero;stroke:none"
           d="m 161.555,216.922 -1.709,0 0,79.564 1.709,0 0,-79.564 z" /><path
           id="path362"
           style="fill:#424242;fill-opacity:1;fill-rule:nonzero;stroke:none"
           d="m 168.898,216.922 -1.709,0 0,79.564 1.709,0 0,-79.564 z" /><path
           id="path364"
           style="fill:#424242;fill-opacity:1;fill-rule:nonzero;stroke:none"
           d="m 176.238,216.922 -1.709,0 0,79.564 1.709,0 0,-79.564 z" /><path
           id="path366"
           style="fill:#424242;fill-opacity:1;fill-rule:nonzero;stroke:none"
           d="m 183.586,216.922 -1.709,0 0,79.564 1.709,0 0,-79.564 z" /><path
           id="path368"
           style="fill:#424242;fill-opacity:1;fill-rule:nonzero;stroke:none"
           d="m 190.934,216.922 -1.709,0 0,79.564 1.709,0 0,-79.564 z" /><path
           id="path370"
           style="fill:#424242;fill-opacity:1;fill-rule:nonzero;stroke:none"
           d="m 198.276,216.922 -1.709,0 0,79.564 1.709,0 0,-79.564 z" /><path
           id="path372"
           style="fill:#424242;fill-opacity:1;fill-rule:nonzero;stroke:none"
           d="m 205.618,216.922 -1.709,0 0,79.564 1.709,0 0,-79.564 z" /><path
           id="path374"
           style="fill:#424242;fill-opacity:1;fill-rule:nonzero;stroke:none"
           d="m 212.962,216.922 -1.709,0 0,79.564 1.709,0 0,-79.564 z" /><path
           id="path376"
           style="fill:#424242;fill-opacity:1;fill-rule:nonzero;stroke:none"
           d="m 220.302,216.922 -1.709,0 0,79.564 1.709,0 0,-79.564 z" /><g
           transform="translate(223.9148,296.4425)"
           id="g378"><path
             id="path380"
             style="fill:none;stroke:#545353;stroke-width:1;stroke-linecap:butt;stroke-linejoin:miter;stroke-miterlimit:10;stroke-dasharray:none;stroke-opacity:1"
             d="m 0,0 276.943,0 c 0.813,0 1.486,-0.752 1.486,-1.658 l 0,-76.377 c 0,-0.813 -0.752,-1.486 -1.658,-1.486 L 0,-79.521 0,0 Z" /></g><g
           transform="translate(294.656,284.645)"
           id="g382"><path
             id="path384"
             style="fill:#424242;fill-opacity:1;fill-rule:nonzero;stroke:none"
             d="m 0,0 c -0.906,0 -1.656,-0.749 -1.656,-1.655 l 0,-32.893 c 0,-0.905 0.75,-1.656 1.656,-1.656 l 196.883,0 c 0.906,0 1.655,0.75 1.655,1.656 l 0,32.893 C 198.538,-0.75 197.789,0 196.883,0 L 0,0 Z" /></g><g
           transform="translate(302.713,277.063)"
           id="g386"><path
             id="path388"
             style="fill:none;stroke:#545353;stroke-width:1;stroke-linecap:butt;stroke-linejoin:miter;stroke-miterlimit:10;stroke-dasharray:none;stroke-opacity:1"
             d="m 0,0 c -0.684,0 -1.255,-0.568 -1.255,-1.255 l 0,-18.529 c 0,-0.687 0.571,-1.255 1.255,-1.255 l 143.988,0 c 0.686,0 1.256,0.571 1.256,1.255 l 0,18.529 c 0,0.685 -0.57,1.255 -1.256,1.255 L 0,0 Z" /></g><g
           transform="translate(473.401,276.555)"
           id="g390"><path
             id="path392"
             style="fill:#262424;fill-opacity:1;fill-rule:nonzero;stroke:none"
             d="m 0,0 c 5.54,0 10.013,-4.471 10.013,-10.013 0,-5.541 -4.473,-10.012 -10.013,-10.012 -5.541,0 -10.012,4.471 -10.012,10.012 C -10.011,-4.471 -5.541,0 0,0" /></g><path
           id="path394"
           style="fill:none;stroke:#545353;stroke-width:1;stroke-linecap:butt;stroke-linejoin:miter;stroke-miterlimit:10;stroke-dasharray:none;stroke-opacity:1"
           d="m 322.393,273.618 0.4,0 0,-14.098 -0.4,0 0,14.098 z" /><path
           id="path396"
           style="fill:none;stroke:#545353;stroke-width:1;stroke-linecap:butt;stroke-linejoin:miter;stroke-miterlimit:10;stroke-dasharray:none;stroke-opacity:1"
           d="m 427.267,273.618 0.4,0 0,-14.098 -0.4,0 0,14.098 z" /><path
           id="path398"
           style="fill:#231f20;fill-opacity:1;fill-rule:nonzero;stroke:none"
           d="m 493.194,222.974 -27.749,0 0,11.238 27.749,0 0,-11.238 z" /><g
           transform="translate(490.9986,232.6297)"
           id="g400"><path
             id="path402"
             style="fill:#9d9b91;fill-opacity:1;fill-rule:nonzero;stroke:none"
             d="m 0,0 -2.638,-3.853 2.869,-4.21 -2.649,0 -1.577,2.254 -1.59,-2.259 -2.632,0 c 0.072,0.148 2.882,4.215 2.882,4.215 l -1.198,1.666 -5.081,-0.006 c -0.237,-0.018 -0.527,0.054 -0.646,-0.214 -0.042,-0.088 -0.059,-0.219 -0.012,-0.308 0.041,-0.101 0.137,-0.195 0.243,-0.225 l 0.16,-0.012 2.034,0 c 0.942,-0.024 1.814,-0.61 2.223,-1.458 0.362,-0.712 0.308,-1.684 -0.095,-2.36 -0.51,-0.859 -1.417,-1.34 -2.401,-1.304 l -5.656,0 c 0,0 -0.866,3.125 -0.872,3.13 l -0.871,-3.13 -2.063,-10e-4 -0.83,3.143 -0.907,-3.136 -2.283,0 c 0,0 2.099,7.553 2.235,8.051 l 1.928,0 0.907,-3.368 0.924,3.368 1.892,0 1.618,-5.864 3.771,0 c 0.26,0.013 0.622,-0.058 0.729,0.261 0.041,0.143 0.006,0.291 -0.095,0.392 -0.095,0.083 -0.214,0.106 -0.338,0.106 l -2.027,0 c -0.961,0.03 -1.915,0.658 -2.271,1.583 -0.385,0.925 -0.16,2.034 0.545,2.75 0.498,0.499 1.091,0.748 1.785,0.778 l 6.652,0.006 1.34,-1.933 L -2.609,0 0,0 Z" /></g><g
           transform="translate(430.9632,119.7987)"
           id="g404"><path
             id="path406"
             style="fill:none;stroke:#ffffff;stroke-width:2;stroke-linecap:butt;stroke-linejoin:miter;stroke-miterlimit:10;stroke-dasharray:none;stroke-opacity:1"
             d="M 0,0 8.583,8.167 17.167,0" /></g><g
           transform="translate(475.3265,102.957)"
           id="g408"><path
             id="path410"
             style="fill:#2761a2;fill-opacity:1;fill-rule:nonzero;stroke:none"
             d="M 0,0 C 0,-2.664 -1.007,-5.332 -3.044,-7.369 L -14.629,-18.955 -33.587,0.002 -14.629,18.957 -3.044,7.371 C -1.007,5.333 0,2.666 0,0.002 L 0,0 Z" /></g><g
           transform="translate(456.6102,111.5699)"
           id="g412"><path
             id="path414"
             style="fill:none;stroke:#ffffff;stroke-width:2;stroke-linecap:butt;stroke-linejoin:miter;stroke-miterlimit:10;stroke-dasharray:none;stroke-opacity:1"
             d="M 0,0 8.167,-8.583 0,-17.167" /></g><g
           transform="translate(439.572,67.2085)"
           id="g416"><path
             id="path418"
             style="fill:#2761a2;fill-opacity:1;fill-rule:nonzero;stroke:none"
             d="M 0,0 C -2.664,0 -5.332,1.007 -7.369,3.044 L -18.955,14.629 0.002,33.587 18.957,14.629 7.371,3.044 C 5.333,1.007 2.666,0 0.002,0 L 0,0 Z" /></g><g
           transform="translate(448.1849,85.9249)"
           id="g420"><path
             id="path422"
             style="fill:none;stroke:#ffffff;stroke-width:2;stroke-linecap:butt;stroke-linejoin:miter;stroke-miterlimit:10;stroke-dasharray:none;stroke-opacity:1"
             d="M 0,0 -8.583,-8.167 -17.167,0" /></g><g
           transform="translate(404.0086,102.959)"
           id="g424"><path
             id="path426"
             style="fill:#2761a2;fill-opacity:1;fill-rule:nonzero;stroke:none"
             d="M 0,0 C 0,2.664 1.007,5.332 3.044,7.369 L 14.629,18.955 33.587,-0.002 14.629,-18.957 3.044,-7.371 C 1.007,-5.333 0,-2.666 0,-0.002 L 0,0 Z" /></g><g
           transform="translate(422.725,94.3462)"
           id="g428"><path
             id="path430"
             style="fill:none;stroke:#ffffff;stroke-width:2;stroke-linecap:butt;stroke-linejoin:miter;stroke-miterlimit:10;stroke-dasharray:none;stroke-opacity:1"
             d="M 0,0 -8.167,8.583 0,17.167" /></g><g
           transform="translate(498.8828,300.844)"
           id="g432"><path
             id="path434"
             style="fill:#424242;fill-opacity:1;fill-rule:nonzero;stroke:none"
             d="m 0,0 -495.359,0 0,6.925 c 0,0.813 0.775,1.485 1.682,1.485 l -0.008,10e-4 0.008,0 493.505,0 c 0.906,0 1.658,-0.673 1.658,-1.486 l 0,-5.267 C 1.486,0.752 0.813,0 0,0" /></g></g></g></g></svg>