<?xml version="1.0" encoding="UTF-8" standalone="no"?>
<svg
   xmlns:dc="http://purl.org/dc/elements/1.1/"
   xmlns:cc="http://creativecommons.org/ns#"
   xmlns:rdf="http://www.w3.org/1999/02/22-rdf-syntax-ns#"
   xmlns:svg="http://www.w3.org/2000/svg"
   xmlns="http://www.w3.org/2000/svg"
   viewBox="0 0 1307.525 819.02875"
   height="819.02875"
   width="1307.525"
   xml:space="preserve"
   version="1.1"
   id="svg2"><metadata
     id="metadata8"><rdf:RDF><cc:Work
         rdf:about=""><dc:format>image/svg+xml</dc:format><dc:type
           rdf:resource="http://purl.org/dc/dcmitype/StillImage" /><dc:title></dc:title></cc:Work></rdf:RDF></metadata><defs
     id="defs6"><clipPath
       id="clipPath16"
       clipPathUnits="userSpaceOnUse"><path
         id="path18"
         d="m 0,655.224 1046.02,0 L 1046.02,0 0,0 0,655.224 Z" /></clipPath></defs><g
     transform="matrix(1.25,0,0,-1.25,0,819.02875)"
     id="g10"><g
       id="g12"><g
         clip-path="url(#clipPath16)"
         id="g14"><g
           transform="translate(1046.0177,640.5353)"
           id="g20"><path
             id="path22"
             style="fill:#231f20;fill-opacity:1;fill-rule:nonzero;stroke:none"
             d="m 0,0 0,0 c 0,8.136 -6.545,14.688 -14.684,14.688 l -39.049,0 -832.457,0 0,-0.002 -145.027,0 0,0 c -8.136,0 -14.688,-6.545 -14.688,-14.684 l 0,-44.503 10e-4,0 0,0 c 0,-8.136 6.545,-14.688 14.685,-14.688 l 50.283,0 c 8.139,0 14.684,-6.553 14.684,-14.688 l 0,0 0,-197.999 -65.077,0 c -8.136,0 -14.689,-6.545 -14.689,-14.685 l 0,-339.286 0,0 0,0 c 0,-8.136 6.545,-14.688 14.685,-14.688 l 1016.645,0 0,0.002 0,0 c 8.136,0 14.688,6.544 14.688,14.684 L 0.002,0" /></g><g
           transform="translate(992.285,42.4158)"
           id="g24"><path
             id="path26"
             style="fill:#110dfe;fill-opacity:1;fill-rule:nonzero;stroke:none"
             d="m 0,0 -832.457,0 c -6.6,0 -12,5.4 -12,12 l 0,588.808 c 0,6.6 5.4,12 12,12 l 832.457,0 c 6.6,0 12,-5.4 12,-12 L 12,12 C 12,5.4 6.6,0 0,0" /></g><path
           id="path28"
           style="fill:#231f20;fill-opacity:1;fill-rule:nonzero;stroke:none"
           d="m 805.545,275.718 -458.977,0 0,185.882 458.977,0 0,-185.882 z" /><g
           transform="translate(769.2319,435.4343)"
           id="g30"><path
             id="path32"
             style="fill:#ffffff;fill-opacity:1;fill-rule:nonzero;stroke:none"
             d="m 0,0 -43.634,-63.73 47.46,-69.628 -43.827,0 -26.08,37.275 -26.29,-37.365 -43.538,0 c 1.182,2.455 47.66,69.718 47.66,69.718 l -19.81,27.561 -84.036,-0.096 c -3.919,-0.309 -8.724,0.88 -10.691,-3.54 -0.687,-1.465 -0.983,-3.623 -0.192,-5.101 0.681,-1.664 2.255,-3.232 4.015,-3.72 l 2.647,-0.199 33.636,0 c 15.586,-0.392 30.009,-10.093 36.767,-24.117 5.988,-11.77 5.105,-27.85 -1.567,-39.036 -8.429,-14.21 -23.437,-22.157 -39.709,-21.573 l -93.552,0 c 0,0 -14.32,51.685 -14.416,51.775 l -14.417,-51.775 -34.12,-0.007 -13.729,51.981 -15.008,-51.871 -37.749,0 c 0,0 34.711,124.923 36.966,133.166 l 31.878,0 15.001,-55.7 15.297,55.7 31.28,0.007 26.771,-96.997 62.367,0 c 4.304,0.206 10.292,-0.969 12.059,4.317 0.687,2.365 0.103,4.813 -1.568,6.476 -1.574,1.375 -3.534,1.76 -5.589,1.76 l -33.534,0.007 c -15.888,0.488 -31.672,10.883 -37.557,26.173 -6.373,15.303 -2.647,33.645 9.02,45.491 8.235,8.256 18.039,12.374 29.52,12.862 l 110.02,0.097 22.168,-31.962 L -43.147,0.007 0,0 Z" /></g><g
           transform="translate(112.6942,168.1688)"
           id="g34"><path
             id="path36"
             style="fill:#161415;fill-opacity:1;fill-rule:nonzero;stroke:none"
             d="m 0,0 c 0,-19.33 -15.67,-35 -35,-35 -19.33,0 -35,15.67 -35,35 0,19.33 15.67,35 35,35 C -15.67,35 0,19.33 0,0" /></g><g
           transform="translate(14.7987,368.6589)"
           id="g38"><path
             id="path40"
             style="fill:#161415;fill-opacity:1;fill-rule:nonzero;stroke:none"
             d="m 0,0 0,212.687 50.283,0 c 8.139,0 14.684,-6.552 14.684,-14.688 L 64.967,0 -0.11,0" /></g><g
           transform="translate(80.0521,540.6589)"
           id="g42"><path
             id="path44"
             style="fill:#231f20;fill-opacity:1;fill-rule:nonzero;stroke:none"
             d="m 0,0 -69.605,0 c -5.683,0 -10.333,4.65 -10.333,10.333 l 0,0 c 0,5.684 4.65,10.334 10.333,10.334 l 69.605,0 c 5.683,0 10.333,-4.65 10.333,-10.334 l 0,0 C 10.333,4.65 5.683,0 0,0" /></g><g
           transform="translate(80.0521,503.6589)"
           id="g46"><path
             id="path48"
             style="fill:#231f20;fill-opacity:1;fill-rule:nonzero;stroke:none"
             d="m 0,0 -69.605,0 c -5.683,0 -10.333,4.65 -10.333,10.333 l 0,0 c 0,5.684 4.65,10.334 10.333,10.334 l 69.605,0 c 5.683,0 10.333,-4.65 10.333,-10.334 l 0,0 C 10.333,4.65 5.683,0 0,0" /></g><g
           transform="translate(80.0521,466.6589)"
           id="g50"><path
             id="path52"
             style="fill:#231f20;fill-opacity:1;fill-rule:nonzero;stroke:none"
             d="m 0,0 -69.605,0 c -5.683,0 -10.333,4.65 -10.333,10.333 0,5.684 4.65,10.334 10.333,10.334 l 69.605,0 c 5.683,0 10.333,-4.65 10.333,-10.334 C 10.333,4.65 5.683,0 0,0" /></g><g
           transform="translate(80.0521,430.6589)"
           id="g54"><path
             id="path56"
             style="fill:#231f20;fill-opacity:1;fill-rule:nonzero;stroke:none"
             d="m 0,0 -69.605,0 c -5.683,0 -10.333,4.65 -10.333,10.333 0,5.684 4.65,10.334 10.333,10.334 l 69.605,0 c 5.683,0 10.333,-4.65 10.333,-10.334 C 10.333,4.65 5.683,0 0,0" /></g><g
           transform="translate(80.0521,394.6589)"
           id="g58"><path
             id="path60"
             style="fill:#231f20;fill-opacity:1;fill-rule:nonzero;stroke:none"
             d="m 0,0 -69.605,0 c -5.683,0 -10.333,4.65 -10.333,10.333 0,5.684 4.65,10.334 10.333,10.334 l 69.605,0 c 5.683,0 10.333,-4.65 10.333,-10.334 C 10.333,4.65 5.683,0 0,0" /></g></g></g></g></svg>