<svg xmlns="http://www.w3.org/2000/svg" width="400" height="681.24146">
  <defs>
    <clipPath id="a">
      <path d="M0 297.973h174.959V0H0v297.973z"/>
    </clipPath>
  </defs>
  <g clip-path="url(#a)" transform="matrix(2.2862525,0,0,-2.2862525,-4.572505e-4,681.24147)">
    <path fill="#7942ba" d="M1.6299 21.4199s.649-17.524 81.783-21.42h8.184c81.133 3.896 81.782 21.42 81.782 21.42v269.374s0 7.787-8.438 7.141c0 0-68.15-.107-77.238-.107h-.394c-9.088 0-77.24.107-77.24.107-8.437.646-8.439-7.141-8.439-7.141V21.4199z"/>
    <path fill="#7942ba" d="M5.6392 277.4483c0-.466-.23-.842-.515-.842H.5122c-.284 0-.512.376-.512.842 0 .465.228.842.512.842h4.612c.285 0 .515-.377.515-.842m0-5.1275c0-.466-.23-.842-.515-.842H.5122c-.284 0-.512.376-.512.842 0 .466.228.842.512.842h4.612c.285 0 .515-.376.515-.842m0-5.1274c0-.465-.23-.842-.515-.842H.5122c-.284 0-.512.377-.512.842 0 .466.228.842.512.842h4.612c.285 0 .515-.376.515-.842m0-5.127c0-.465-.23-.842-.515-.842H.5122c-.284 0-.512.377-.512.842 0 .466.228.84.512.84h4.612c.285 0 .515-.374.515-.84m169.3198 15.3819c0-.466-.228-.842-.51-.842h-4.618c-.282 0-.513.376-.513.842 0 .465.231.842.513.842h4.618c.282 0 .51-.377.51-.842m0-5.1275c0-.466-.228-.842-.51-.842h-4.618c-.282 0-.513.376-.513.842 0 .466.231.842.513.842h4.618c.282 0 .51-.376.51-.842m0-5.1274c0-.465-.228-.842-.51-.842h-4.618c-.282 0-.513.377-.513.842 0 .466.231.842.513.842h4.618c.282 0 .51-.376.51-.842m0-5.127c0-.465-.228-.842-.51-.842h-4.618c-.282 0-.513.377-.513.842 0 .466.231.84.513.84h4.618c.282 0 .51-.374.51-.84"/>
    <path fill="#333" d="M87.4258 288.9507h64.012c13.209.089 12.199-5.568 12.199-5.568v-119.161s1.154-6.614-7.111-8.437c-8.076-1.781-11.376-2.862-69.01-4.817-57.633 1.955-60.933 3.036-69.008 4.817-8.266 1.823-7.112 8.437-7.112 8.437v119.161s-1.01 5.657 12.199 5.568h64.012-.181z"/>
    <path fill="#272727" d="M18.1338 286.9029c-1.324 0-2.331-.367-3.081-1.122-1.33-1.34-1.615-3.708-1.609-4.431v-117.129c.003-.544.187-5.331 5.48-6.431l1.09-.229c7.397-1.559 12.744-2.685 67.502-4.545 54.944 1.866 60.321 2.996 67.759 4.561l1.015.213c5.293 1.1 5.477 5.887 5.481 6.429v117.116c-.002.934-.24 5.568-4.691 5.568H18.1338zm69.382-137.985l-.069.003c-55.181 1.872-60.674 3.03-68.277 4.633l-1.079.225c-6.969 1.45-8.767 7.475-8.743 10.458v117.098c-.004.445.047 4.56 2.799 7.332 1.536 1.547 3.551 2.331 5.987 2.331h138.946c2.437 0 4.451-.784 5.988-2.331 2.751-2.772 2.802-6.887 2.798-7.347v-117.099c.024-2.967-1.774-8.992-8.743-10.442l-1.005-.21c-7.644-1.608-13.167-2.77-68.532-4.648l-.07-.003z"/>
    <path fill="#8e827b" d="M137.729 271.32H37.123v-88.275h100.606v88.275z"/>
    <path fill="#e50016" d="M20.4243 245.9961c0-1.32-1.069-2.393-2.393-2.393-1.321 0-2.392 1.073-2.392 2.393 0 1.323 1.071 2.393 2.392 2.393 1.324 0 2.393-1.07 2.393-2.393"/>
    <path fill="#2b2b2b" d="M42.8086 82.2227c0-1.135-.918-2.051-2.051-2.051h-9.529c-1.131 0-2.05.916-2.05 2.051v39.385c0 1.135.919 2.054 2.05 2.054h9.529c1.133 0 2.051-.919 2.051-2.054v-39.385z"/>
    <path fill="#2b2b2b" d="M55.686 108.7305c1.134 0 2.051-.916 2.051-2.051v-9.527c0-1.135-.917-2.052-2.051-2.052H16.301c-1.132 0-2.051.917-2.051 2.052v9.527c0 1.135.919 2.051 2.051 2.051h39.385zm105.0625-3.0635c0-5.665-4.591-10.257-10.253-10.257-5.666 0-10.258 4.592-10.258 10.257 0 5.663 4.592 10.255 10.258 10.255 5.662 0 10.253-4.592 10.253-10.255m-33.3296-10.2568c0-5.662-4.591-10.254-10.256-10.254s-10.257 4.592-10.257 10.254c0 5.665 4.592 10.257 10.257 10.257s10.256-4.592 10.256-10.257M81.2725 50.7969c0-1.135-.859-2.052-1.92-2.052h-11.029c-1.063 0-1.923.917-1.923 2.052v.51c0 1.136.86 2.055 1.923 2.055h11.029c1.061 0 1.92-.919 1.92-2.055v-.51zm26.6762 0c0-1.135-.857-2.052-1.917-2.052h-11.033c-1.058 0-1.916.917-1.916 2.052v.51c0 1.136.858 2.055 1.916 2.055h11.033c1.06 0 1.917-.919 1.917-2.055v-.51z"/>
    <path fill="#3a3a3a" d="M41.2754 101.5625c0-2.831-2.296-5.127-5.128-5.127-2.833 0-5.126 2.296-5.126 5.127 0 2.834 2.293 5.127 5.126 5.127 2.832 0 5.128-2.293 5.128-5.127m6.4819 5.1406l8.572-4.625-8.572-4.629v9.254zm-23.7588-9.2539l-8.572 4.624 8.572 4.63v-9.254zm7.2608 15.9903l4.627 8.567 4.629-8.567h-9.256zm9.2563-23.751l-4.627-8.57-4.629 8.57h9.256z"/>
    <path fill="#c1c1c1" d="M48.7388 164.5059c-.659-.193-1.767-.445-2.957-.445-1.336 0-2.425.312-3.188.951-.761.614-1.106 1.503-1.106 2.43 0 1.446.689 2.806 1.94 3.707 1.062.759 2.512 1.192 4.134 1.192 1.221 0 2.095-.216 2.442-.372l-.517-1.181c-.461.193-1.177.336-2.053.336-1.033 0-1.983-.274-2.7-.792-.875-.627-1.423-1.675-1.423-2.782 0-1.456.949-2.298 2.758-2.298.517 0 .949.084 1.235.18l.459 2.034h-1.709l.274 1.132h3.329l-.918-4.092z"/>
    <path fill="#c1c1c1" d="M54.0513 167.5381l-.272 2.023c-.043.433-.101 1.058-.144 1.541h-.029c-.259-.483-.516-1.06-.788-1.541l-1.179-2.023h2.412zm-2.942-1.083l-1.323-2.311h-1.779l4.852 8.113h2.096l1.221-8.113h-1.751l-.273 2.311h-3.043z"/>
    <path fill="#c1c1c1" d="M63.2583 164.1446l.643 3.814c.144.832.348 1.974.59 2.975h-.042c-.503-.951-1.078-1.999-1.61-2.853l-2.382-3.839h-1.294l-.501 3.78c-.115.901-.202 1.949-.259 2.912h-.027c-.26-.926-.548-2.155-.791-2.975l-1.106-3.814h-1.552l2.458 8.112h2.209l.518-3.79c.072-.724.173-1.565.186-2.336h.059c.344.771.802 1.625 1.219 2.324l2.341 3.802h2.241l-1.278-8.112h-1.622zm7.666 3.6113h-3.475l-.548-2.42h3.906l-.273-1.191h-5.584l1.837 8.112h5.37l-.272-1.192h-3.692l-.487-2.13h3.49l-.272-1.179zm6.5166 1.1787h.775c1.251 0 2.155.493 2.155 1.325 0 .661-.617.948-1.535.948-.389 0-.719-.021-.892-.059l-.503-2.214zm-.86-3.696c.273-.024.573-.034.889-.034 1.249 0 2.399.421 2.399 1.503 0 .867-.878 1.192-1.896 1.192h-.789l-.603-2.661zm-.072 6.886c.645.119 1.45.194 2.327.194 1.003 0 1.735-.147 2.326-.496.559-.287.933-.77.933-1.384 0-1.024-.948-1.719-2.011-1.963v-.034c.904-.23 1.55-.855 1.55-1.781 0-.854-.544-1.493-1.248-1.902-.805-.484-1.955-.661-3.419-.661-.975 0-1.78.047-2.238.119l1.78 7.908z"/>
    <path fill="#c1c1c1" d="M84.792 170.5122c-.847-.711-1.335-2.036-1.335-3.081 0-1.228.662-2.239 2.284-2.239.703 0 1.377.253 1.88.685.835.699 1.308 2.081 1.308 3.105 0 1.072-.446 2.226-2.227 2.226-.746 0-1.392-.262-1.91-.696m5.918-1.481c0-1.444-.619-2.937-1.754-3.876-.875-.721-2.051-1.141-3.46-1.141-2.498 0-3.805 1.527-3.805 3.342 0 1.447.646 2.964 1.81 3.902.875.711 2.096 1.132 3.404 1.132 2.584 0 3.805-1.506 3.805-3.359"/>
    <path fill="#c1c1c1" d="M91.3857 164.1446l.76 3.334-1.881 4.778h1.78l.76-2.311c.216-.699.317-1.058.404-1.42h.028c.259.384.574.843 1.005 1.445l1.739 2.286h1.979l-4.149-4.754-.761-3.358h-1.664z"/>
    <path fill="#ff004f" d="M105.1128 166.9727c.154.139.33.221.527.241.199.022.377-.003.543-.07.161-.071.292-.178.381-.334.092-.149.114-.327.068-.535-.059-.208-.172-.399-.335-.577-.163-.181-.327-.343-.493-.488-.374-.355-.79-.615-1.248-.785-.456-.169-.92-.248-1.387-.241-.466.01-.924.109-1.372.3-.447.191-.851.475-1.206.854-.211.226-.39.466-.536.716-.143.25-.255.513-.331.791-.117.406-.17.829-.156 1.273.006.438.084.867.23 1.282.143.417.346.808.612 1.174.267.367.591.682.975.939.28.191.563.355.845.496.285.136.584.268.904.389.183.066.369.134.562.2.193.064.391.112.593.151.202.033.405.045.606.037.203-.009.404-.049.594-.116.134-.052.27-.126.404-.216.134-.091.26-.193.374-.309.119-.118.218-.24.306-.369.086-.131.147-.258.188-.379.027-.112.036-.228.02-.343-.013-.118-.05-.221-.113-.318-.064-.095-.15-.173-.257-.241-.104-.062-.223-.103-.36-.121-.223-.028-.391-.005-.512.062-.121.072-.215.159-.29.263-.072.104-.14.202-.21.302-.065.102-.161.171-.285.216-.079 0-.139-.003-.176-.013-.329-.077-.659-.186-.988-.32-.334-.131-.642-.295-.924-.485-.288-.191-.535-.411-.746-.661-.21-.25-.367-.533-.463-.845-.116-.371-.159-.748-.129-1.128.028-.381.144-.737.347-1.074.117-.201.267-.374.461-.52.193-.149.406-.258.638-.332.231-.075.466-.1.707-.077.24.022.47.097.691.225.195.122.366.271.522.448.154.18.293.357.419.538"/>
    <path fill="#7942ba" d="M110.6836 165.6821c.268.105.503.244.706.417.198.17.376.361.527.57.149.207.278.429.379.666.104.237.196.473.275.716.054.302.085.613.088.935.004.32-.07.624-.219.914-.127.241-.315.444-.569.62-.256.17-.534.29-.838.357-.302.072-.609.084-.916.044-.307-.04-.583-.148-.823-.324-.342-.256-.614-.543-.824-.86-.209-.317-.367-.667-.476-1.051-.087-.304-.136-.624-.146-.96-.008-.337.049-.657.176-.961.094-.225.24-.432.433-.614.191-.184.409-.33.648-.433.242-.104.499-.164.771-.177.272-.01.543.038.808.141m3.468 2.027c-.152-.446-.345-.887-.583-1.313-.237-.429-.525-.813-.862-1.149-.342-.337-.735-.609-1.187-.818-.45-.208-.965-.312-1.545-.312-.373.015-.668.047-.889.092-.218.042-.431.106-.633.198-.37.096-.682.25-.945.463-.265.21-.485.456-.663.738-.177.28-.315.579-.409.895-.094.316-.157.621-.181.918-.042.52.005 1.051.149 1.588.143.535.368 1.03.68 1.484.315.451.707.84 1.177 1.167.476.324 1.016.534 1.62.638.315.05.63.067.951.05.323-.015.635-.072.936-.168.251-.079.481-.171.697-.275.215-.104.418-.239.616-.399.258-.208.476-.448.657-.721.176-.271.304-.557.386-.852.1-.376.141-.748.134-1.117-.008-.369-.045-.738-.106-1.107"/>
    <path fill="#f9e52d" d="M123.9009 165.7896c.287.113.537.259.752.443.216.185.401.389.568.612.16.222.294.458.405.713.112.25.207.508.293.766.056.324.087.658.091.998.005.344-.072.671-.232.978-.134.258-.337.478-.61.661-.27.184-.569.312-.891.386-.327.074-.655.088-.984.045-.329-.041-.621-.158-.879-.349-.361-.273-.657-.577-.879-.916-.223-.34-.394-.713-.508-1.125-.096-.324-.151-.666-.159-1.028-.009-.362.053-.701.187-1.025.104-.243.26-.461.465-.657.203-.195.436-.351.693-.462.257-.112.534-.175.823-.186.292-.013.58.037.865.146m3.708 2.169c-.162-.48-.37-.948-.624-1.406-.251-.459-.562-.868-.922-1.229-.365-.359-.786-.649-1.269-.872-.478-.223-1.03-.334-1.652-.334-.399.015-.716.049-.951.093-.23.05-.46.122-.678.214-.392.104-.729.268-1.009.498-.283.224-.517.487-.708.787-.19.297-.337.62-.436.959-.102.337-.166.666-.193.983-.05.555.003 1.122.156 1.695.153.574.396 1.102.73 1.585.332.485.754.898 1.262 1.248.504.347 1.08.574 1.728.686.334.05.672.07 1.016.05.344-.016.678-.078 1.003-.179.266-.084.515-.183.743-.297.228-.107.451-.248.659-.421.275-.223.507-.481.698-.771.193-.292.329-.597.416-.913.105-.402.151-.801.141-1.194-.006-.394-.044-.788-.11-1.182"/>
    <path fill="#00b3dd" d="M132.2451 171.2954c-.386.206-.811.321-1.266.35-.458.026-.897-.033-1.32-.17v-2.931c.43.024.855.076 1.275.15.418.071.808.235 1.162.483.196.141.352.303.473.491.119.183.191.374.216.569.021.196-.005.384-.087.57-.082.186-.233.349-.453.488m-2.586-6.282c-.032-.215-.131-.391-.305-.529-.173-.139-.362-.227-.565-.268-.203-.037-.386-.017-.554.057-.169.079-.258.235-.27.471-.047.992-.07 2.026-.07 3.093v3.186c-.153.049-.272.128-.347.232-.078.104-.124.218-.138.342-.015.129.002.256.049.387.052.128.122.24.222.336.103.104.247.198.427.283.186.089.387.168.601.24.217.072.432.139.645.188.211.052.389.092.535.119.607.114 1.216.109 1.834-.007.615-.116 1.155-.327 1.624-.627.467-.305.816-.698 1.047-1.183.231-.487.256-1.039.072-1.663-.057-.171-.128-.344-.215-.518-.088-.17-.189-.332-.302-.48-.164-.223-.357-.423-.58-.594-.223-.174-.463-.336-.723-.481.183-.174.359-.355.52-.545.166-.191.347-.361.55-.52.077-.06.19-.154.34-.283.148-.131.296-.269.433-.418.138-.146.262-.29.369-.434.104-.141.154-.26.143-.356-.009-.164-.059-.314-.151-.446-.092-.136-.203-.237-.332-.312-.128-.074-.272-.112-.425-.112-.154 0-.308.05-.464.144-.174.122-.337.262-.49.429-.157.163-.305.317-.449.452-.316.312-.626.625-.93.94-.303.316-.615.626-.934.93-.191-.037-.387-.061-.584-.074-.197-.011-.393-.027-.583-.044v-1.935z"/>
    <path fill="#aae000" d="M119.8799 166.1533c.231-.079.407-.184.532-.322.13-.139.194-.283.204-.434.005-.153-.045-.3-.156-.444-.109-.142-.285-.259-.531-.346-.093-.038-.225-.059-.398-.079-.173-.017-.414-.04-.719-.062-.306-.024-.696-.057-1.169-.094-.471-.034-1.049-.089-1.739-.151-.17-.022-.349-.04-.531-.054-.184-.015-.347.029-.489.131-.123.076-.218.201-.285.376-.066.174-.114.356-.144.55-.029.193-.049.389-.061.585-.011.193-.02.354-.03.485-.02.258-.042.555-.065.891-.021.335-.045.682-.064 1.031-.025.349-.049.691-.076 1.027-.025.335-.05.635-.07.893-.035.458-.059.828-.072 1.107-.013.282-.01.503.013.664.02.163.064.284.136.361.072.079.174.151.305.217.108.051.235.075.376.07.142 0 .27-.024.396-.069.124-.047.231-.116.323-.21.086-.092.136-.199.145-.317.105-1.036.184-2.061.246-3.079.06-1.02.131-2.036.21-3.054.604.049 1.21.099 1.809.16.596.061 1.203.122 1.815.189l.089-.022z"/>
    <path fill="#2b2b2b" d="M128.4482 42.4258c0-.566-.458-1.027-1.029-1.027-.567 0-1.023.461-1.023 1.027 0 .565.456 1.025 1.023 1.025.571 0 1.029-.46 1.029-1.025m5.1265-4.1035c0-.568-.458-1.024-1.025-1.024-.568 0-1.026.456-1.026 1.024 0 .566.458 1.025 1.026 1.025.567 0 1.025-.459 1.025-1.025m0 5.1289c0-.569-.458-1.025-1.025-1.025-.568 0-1.026.456-1.026 1.025 0 .565.458 1.022 1.026 1.022.567 0 1.025-.457 1.025-1.022m0 5.1269c0-.564-.458-1.027-1.025-1.027-.568 0-1.026.463-1.026 1.027 0 .567.458 1.025 1.026 1.025.567 0 1.025-.458 1.025-1.025m5.127 1.0254c0-.566-.458-1.025-1.022-1.025-.57 0-1.028.459-1.028 1.025 0 .566.458 1.023 1.028 1.023.564 0 1.022-.457 1.022-1.023m5.1274-3.9355c0-.563-.456-1.022-1.025-1.022-.567 0-1.023.459-1.023 1.022 0 .568.456 1.029 1.023 1.029.569 0 1.025-.461 1.025-1.029m0 5.1308c0-.568-.456-1.025-1.025-1.025-.567 0-1.023.457-1.023 1.025 0 .565.456 1.024 1.023 1.024.569 0 1.025-.459 1.025-1.024m5.1304 1.0235c0-.565-.462-1.024-1.025-1.024-.568 0-1.03.459-1.03 1.024 0 .568.462 1.027 1.03 1.027.563 0 1.025-.459 1.025-1.027m5.1269-34.8652c0-.567-.459-1.028-1.026-1.028s-1.025.461-1.025 1.028c0 .564.458 1.022 1.025 1.022s1.026-.458 1.026-1.022m0 5.125c0-.567-.459-1.025-1.026-1.025s-1.025.458-1.025 1.025c0 .566.458 1.027 1.025 1.027s1.026-.461 1.026-1.027m0 5.1269c0-.565-.459-1.023-1.026-1.023s-1.025.458-1.025 1.023c0 .566.458 1.027 1.025 1.027s1.026-.461 1.026-1.027m0 5.1289c0-.564-.459-1.025-1.026-1.025s-1.025.461-1.025 1.025c0 .567.458 1.023 1.025 1.023s1.026-.456 1.026-1.023m0 5.127c0-.564-.459-1.025-1.026-1.025s-1.025.461-1.025 1.025c0 .565.458 1.028 1.025 1.028s1.026-.463 1.026-1.028m0 5.1279c0-.565-.459-1.023-1.026-1.023s-1.025.458-1.025 1.023c0 .567.458 1.028 1.025 1.028s1.026-.461 1.026-1.028m0 5.1279c0-.568-.459-1.023-1.026-1.023s-1.025.455-1.025 1.023c0 .566.458 1.024 1.025 1.024s1.026-.458 1.026-1.024m0 5.1289c0-.564-.459-1.027-1.026-1.027s-1.025.463-1.025 1.027c0 .564.458 1.025 1.025 1.025s1.026-.461 1.026-1.025m5.127 1.0254c0-.567-.458-1.025-1.026-1.025-.566 0-1.025.458-1.025 1.025 0 .564.459 1.025 1.025 1.025.568 0 1.026-.461 1.026-1.025m0-5.1299c0-.564-.458-1.024-1.026-1.024-.566 0-1.025.46-1.025 1.024 0 .567.459 1.028 1.025 1.028.568 0 1.026-.461 1.026-1.028m5.1299 1.0284c0-.565-.461-1.028-1.025-1.028-.568 0-1.028.463-1.028 1.028 0 .564.46 1.025 1.028 1.025.564 0 1.025-.461 1.025-1.025m0-5.128c0-.569-.461-1.024-1.025-1.024-.568 0-1.028.455-1.028 1.024 0 .565.46 1.022 1.028 1.022.564 0 1.025-.457 1.025-1.022m0-5.1299c0-.566-.461-1.022-1.025-1.022-.568 0-1.028.456-1.028 1.022 0 .568.46 1.026 1.028 1.026.564 0 1.025-.458 1.025-1.026m0-5.1259c0-.565-.461-1.028-1.025-1.028-.568 0-1.028.463-1.028 1.028 0 .563.46 1.028 1.028 1.028.564 0 1.025-.465 1.025-1.028m0-5.128c0-.564-.461-1.025-1.025-1.025-.568 0-1.028.461-1.028 1.025 0 .567.46 1.023 1.028 1.023.564 0 1.025-.456 1.025-1.023m0-5.1298c0-.563-.461-1.022-1.025-1.022-.568 0-1.028.459-1.028 1.022 0 .567.46 1.025 1.028 1.025.564 0 1.025-.458 1.025-1.025m-5.1299 19.4892c0-.567-.458-1.028-1.026-1.028-.566 0-1.025.461-1.025 1.028 0 .565.459 1.024 1.025 1.024.568 0 1.026-.459 1.026-1.024m0-5.1279c0-.567-.458-1.028-1.026-1.028-.566 0-1.025.461-1.025 1.028 0 .562.459 1.022 1.025 1.022.568 0 1.026-.46 1.026-1.022m0-5.1319c0-.564-.458-1.023-1.026-1.023-.566 0-1.025.459-1.025 1.023 0 .566.459 1.028 1.025 1.028.568 0 1.026-.462 1.026-1.028m0-5.125c0-.566-.458-1.027-1.026-1.027-.566 0-1.025.461-1.025 1.027 0 .564.459 1.025 1.025 1.025.568 0 1.026-.461 1.026-1.025m0-5.1269c0-.565-.458-1.027-1.026-1.027-.566 0-1.025.462-1.025 1.027 0 .564.459 1.022 1.025 1.022.568 0 1.026-.458 1.026-1.022m0-5.1299c0-.567-.458-1.022-1.026-1.022-.566 0-1.025.455-1.025 1.022s.459 1.026 1.025 1.026c.568 0 1.026-.459 1.026-1.026m-10.2539 28.7178c0-.568-.462-1.029-1.025-1.029-.568 0-1.03.461-1.03 1.029 0 .564.462 1.023 1.03 1.023.563 0 1.025-.459 1.025-1.023m0-5.1279c0-.569-.462-1.027-1.025-1.027-.568 0-1.03.458-1.03 1.027 0 .562.462 1.023 1.03 1.023.563 0 1.025-.461 1.025-1.023m0-5.1299c0-.566-.462-1.021-1.025-1.021-.568 0-1.03.455-1.03 1.021 0 .568.462 1.025 1.03 1.025.563 0 1.025-.457 1.025-1.025m0-5.127c0-.564-.462-1.027-1.025-1.027-.568 0-1.03.463-1.03 1.027 0 .565.462 1.025 1.03 1.025.563 0 1.025-.46 1.025-1.025m0-5.1269c0-.565-.462-1.028-1.025-1.028-.568 0-1.03.463-1.03 1.028 0 .564.462 1.023 1.03 1.023.563 0 1.025-.459 1.025-1.023m0-5.1289c0-.567-.462-1.023-1.025-1.023-.568 0-1.03.456-1.03 1.023 0 .566.462 1.025 1.03 1.025.563 0 1.025-.459 1.025-1.025m0-5.128c0-.564-.462-1.024-1.025-1.024-.568 0-1.03.46-1.03 1.024 0 .566.462 1.028 1.03 1.028.563 0 1.025-.462 1.025-1.028m-5.1304 24.6133c0-.565-.456-1.026-1.025-1.026-.567 0-1.023.461-1.023 1.026 0 .567.456 1.027 1.023 1.027.569 0 1.025-.46 1.025-1.027m0-5.124c0-.568-.456-1.028-1.025-1.028-.567 0-1.023.46-1.023 1.028 0 .562.456 1.021 1.023 1.021.569 0 1.025-.459 1.025-1.021m0-5.1328c0-.564-.456-1.023-1.025-1.023-.567 0-1.023.459-1.023 1.023 0 .567.456 1.027 1.023 1.027.569 0 1.025-.46 1.025-1.027m0-5.128c0-.563-.456-1.025-1.025-1.025-.567 0-1.023.462-1.023 1.025 0 .567.456 1.028 1.023 1.028.569 0 1.025-.461 1.025-1.028m0-5.124c0-.567-.456-1.027-1.025-1.027-.567 0-1.023.46-1.023 1.027 0 .564.456 1.023 1.023 1.023.569 0 1.025-.459 1.025-1.023m0-5.1289c0-.568-.456-1.026-1.025-1.026-.567 0-1.023.458-1.023 1.026 0 .563.456 1.024 1.023 1.024.569 0 1.025-.461 1.025-1.024m-5.1274 29.5694c0-.563-.458-1.022-1.022-1.022-.57 0-1.028.459-1.028 1.022 0 .567.458 1.029 1.028 1.029.564 0 1.022-.462 1.022-1.029m0-5.126c0-.566-.458-1.025-1.022-1.025-.57 0-1.028.459-1.028 1.025 0 .566.458 1.027 1.028 1.027.564 0 1.022-.461 1.022-1.027m0-5.125c0-.566-.458-1.027-1.022-1.027-.57 0-1.028.461-1.028 1.027 0 .562.458 1.023 1.028 1.023.564 0 1.022-.461 1.022-1.023m0-5.1328c0-.564-.458-1.023-1.022-1.023-.57 0-1.028.459-1.028 1.023 0 .568.458 1.028 1.028 1.028.564 0 1.022-.46 1.022-1.028m0-5.127c0-.564-.458-1.025-1.022-1.025-.57 0-1.028.461-1.028 1.025 0 .568.458 1.028 1.028 1.028.564 0 1.022-.46 1.022-1.028m0-5.125c0-.566-.458-1.027-1.022-1.027-.57 0-1.028.461-1.028 1.027 0 .565.458 1.023 1.028 1.023.564 0 1.022-.458 1.022-1.023m0-5.1289c0-.568-.458-1.025-1.022-1.025-.57 0-1.028.457-1.028 1.025 0 .564.458 1.025 1.028 1.025.564 0 1.022-.461 1.022-1.025m-5.127 19.4863c0-.565-.458-1.029-1.025-1.029-.568 0-1.026.464-1.026 1.029 0 .563.458 1.027 1.026 1.027.567 0 1.025-.464 1.025-1.027m0-5.1279c0-.565-.458-1.024-1.025-1.024-.568 0-1.026.459-1.026 1.024 0 .567.458 1.023 1.026 1.023.567 0 1.025-.456 1.025-1.023m0-5.1299c0-.564-.458-1.022-1.025-1.022-.568 0-1.026.458-1.026 1.022 0 .567.458 1.025 1.026 1.025.567 0 1.025-.458 1.025-1.025m0-5.1269c0-.565-.458-1.025-1.025-1.025-.568 0-1.026.46-1.026 1.025 0 .564.458 1.027 1.026 1.027.567 0 1.025-.463 1.025-1.027m0-5.127c0-.564-.458-1.026-1.025-1.026-.568 0-1.026.462-1.026 1.026 0 .566.458 1.025 1.026 1.025.567 0 1.025-.459 1.025-1.025m-5.1265 24.6152c0-.566-.458-1.028-1.029-1.028-.567 0-1.023.462-1.023 1.028 0 .563.456 1.024 1.023 1.024.571 0 1.029-.461 1.029-1.024m0-5.1328c0-.564-.458-1.023-1.029-1.023-.567 0-1.023.459-1.023 1.023 0 .568.456 1.029 1.023 1.029.571 0 1.029-.461 1.029-1.029m0-5.123c0-.568-.458-1.028-1.029-1.028-.567 0-1.023.46-1.023 1.028 0 .564.456 1.024 1.023 1.024.571 0 1.029-.46 1.029-1.024m0-5.1279c0-.566-.458-1.028-1.029-1.028-.567 0-1.023.462-1.023 1.028 0 .564.456 1.022 1.023 1.022.571 0 1.029-.458 1.029-1.022m0-5.1299c0-.566-.458-1.023-1.029-1.023-.567 0-1.023.457-1.023 1.023 0 .567.456 1.025 1.023 1.025.571 0 1.029-.458 1.029-1.025"/>
  </g>
</svg>
