<svg xmlns="http://www.w3.org/2000/svg" width="400" height="46.166985">
  <path fill="#2d288b" d="M308.36064 18.598642c-.84102-2.548463-3.06281-4.973454-3.06281-4.973454s-3.33798-4.3363367-9.8947-5.8151787c-5.61339-1.174043-10.02451 1.301748-10.02451 1.301748s-4.00544 1.6051357-7.01533 4.9233587c-4.79495 4.615737-6.1729 11.350959-6.1729 11.350959s-1.83726 5.865979 1.07315 10.509939l3.1623 3.825516c4.46333 3.724621 9.23359 4.105621 9.23359 4.105621s3.85232.867126 8.34247-.306211c3.925-.791632 6.7832-2.72979 6.7832-2.72979s6.50662-3.596211 8.28956-10.942443l-.71402-11.250065zm-10.12965 12.218085s-2.60067 4.541654-8.31284 4.004022c-6.70982-.687916-7.49863-6.579295-7.49863-6.579295s-.92075-4.336338 3.21239-8.112465c4.18464-3.5186 8.54638-2.98379 8.54638-2.98379s2.93087.280106 4.43935 5.12797c1.93604 6.171484-.38665 8.543558-.38665 8.543558"/>
  <path fill="#639d01" d="M330.0395 30.895044c-2.1477-.474133-5.58587.405694-5.58587.405694s-4.79495 1.758947-5.53507 1.734252c-.2794-.407104-.89112-8.238758-.71403-11.375653.10302-5.53578-.35912-10.049212-.35912-10.049212s-.2279-5.3325797-3.08539-8.4941697c-3.3662-3.39442197-5.7157-1.938158-7.06683-1.123948-3.23921 2.908295-1.73355 6.453001-1.73355 6.453001l1.68557 4.7709587s.81491 2.041874.71402 5.381969l.71402 11.24936c0 1.504947 1.22555 11.630359 1.22555 11.630359s.12418 3.291411 3.28859 3.877727c3.24061.535516 6.42689-1.072443 7.77873-1.709559 1.35255-.635704 3.1376-1.197325 3.1376-1.197325s1.48026-.332317 2.9591-.458611c3.46851-.333022 4.71875-.944032 4.71875-.944032s1.34126-.201788 2.24648-1.480958c.9017-1.277054 1.9939-7.268622-4.38855-8.669853"/>
  <path fill="#94012c" d="M273.26142 35.893897c-2.27823-.683682-4.89513-.230716-4.89513-.230716s-7.39774.713315-11.25007-.103011c-5.96687-1.044221-5.7672-7.473233-5.7672-7.473233s-.19967-4.260843 3.39583-10.024517c4.43724-7.117633 9.33449-8.3925697 9.33449-8.3925697s1.22272-.457904 2.37066.153106c.71473 4.1303147 4.71875 4.1049147 4.71875 4.1049147s5.76508.384527 5.48286-6.6032837c-.66181-5.741801-6.19618-6.53131697-8.51886-7.06824397-6.95959-1.249537-11.47867 2.47508497-11.47867 2.47508497s-4.66653 2.524474-10.25241 11.3248537c-3.80364 5.457464-4.26155 9.744412-4.26155 9.744412s-.4579 1.020232-.2794 5.561886c-.1023 3.544 1.22555 6.12139 1.22555 6.12139s2.01365 6.099518 8.38975 8.598592c3.87843 1.605841 9.54262 1.581147 9.54262 1.581147s5.48287-.0762 9.68938-.306916c2.29658.1778 3.39513-1.020937 3.39513-1.020937s2.57386-1.682748 2.32057-4.616443c0 0-.49953-3.030356-3.1623-3.825516"/>
  <path fill="#2e3192" d="M107.80045 44.089617h-8.435612l-1.127476-25.408426-10.967843 25.408426h-5.626797L76.95643 21.118882l-7.314483 22.970735H55.29732l-2.156879-12.278763h-9.752174l-5.531546 12.278763h-8.815903L47.1397 3.0263503h10.406222L63.076763 36.21563l10.7844-33.1899857h8.34177l4.126082 22.5022467 9.567318-22.5022467h10.125407l1.77871 41.0639727zM51.869031 23.835266l-1.544458-7.965709-3.562344 7.965709h5.106802m80.120639 20.254351l1.4097-8.810963h-14.7221l1.16699-7.313072h12.8044l1.40688-8.815902h-12.94058l1.12466-7.313778h14.71857l1.40758-8.8095517h-23.34468l-6.56518 41.0632667h23.53376M241.59544 3.0256443h-9.84531l-8.34459 13.4055337-5.24792-13.4055337h-9.65763l9.93703 21.6548767-3.0614 19.408391h8.44055l2.59009-17.155556 15.18918-23.9077117"/>
  <path fill="#2e3192" d="M178.72137 20.025978c2.62042-11.3544867 12.32533-18.8058467 21.67251-16.6447337 9.35283 2.161113 14.80888 13.1134337 12.19057 24.4679207-2.62043 11.351666-12.32392 18.804437-21.67534 16.643324-9.35071-2.161114-14.80606-13.116257-12.18774-24.466511zm12.76982 16.243979c4.46405 1.996719 9.9328-1.919813 12.20751-8.747463 2.274-6.833295.50376-13.989733-3.96099-15.987158-4.46474-1.9981297-9.92644 1.920519-12.20468 8.751697-2.27682 6.831884-.50306 13.984794 3.95816 15.982924"/>
  <path fill="#2e3192" d="M158.46419 11.908574h5.49345c5.95417 0 4.74626 7.628455-.92851 7.628455h-5.86527l1.30033-7.628455zm-2.60279 16.001269h7.07036c6.70206 0 6.51439 8.187959-.92921 8.187959h-7.4436l1.30245-8.187959zm-4.65313-24.6584207l-6.51156 40.7577617h18.98153c7.81472 0 19.2447-11.518882 8.8413-20.935211 10.69762-11.07156.0889-19.7237737-5.58517-19.8225507-4.55858-.07338-15.8157 0-15.8157 0h.0896m-140.167556 3.4297C3.0002154 11.657397-.86622283 19.242107.16318107 29.556607 1.3605069 41.520693 16.853777 49.058131 29.979206 41.46566c1.149348-.663221.69991-.558799 1.125359-.939093l2.626779-16.690595H18.072269l-1.200853 7.688426h6.544722l-.751415 4.127494c-3.749316 1.499303-10.126117.936271-12.8439131-3.938405-1.7215528-3.087506-3.3182224-9.977951 3.9391111-16.31524 5.904785-5.156898 16.126151-6.0910517 22.034464-3.37255 0 0 .749299-4.3116437 1.310215-8.3460037-11.343904-3.93699297-20.158396-.654049-26.063886 3.001429"/>
  <path fill="#c8a601" d="M365.93035 17.246799c-4.46263-7.2947267-12.31898-8.3918637-12.31898-8.3918637s-2.49978-.842432-7.85494-.129116c-10.05132 1.9141687-13.54664 9.6428117-13.54664 9.6428117s-3.59762 5.661368-2.16887 12.523591l4.39137 8.672675c3.23849 3.035295 4.56423 3.035295 4.76743 3.215917 4.28695 1.938158 9.2604.815621 9.2604.815621s6.27591-.611716 12.01489-5.075759c4.59033-3.3662 6.58-8.315664 6.58-8.315664l.60889-6.639267-1.73355-6.318946zM353.71297 32.14317c-7.21853 4.336337-11.76018-.408516-11.76018-.408516s-2.01436-1.326443-2.44827-5.357275c-.30904-4.667243 4.33633-7.090822 4.33633-7.090822s2.44898-1.505653 5.51038-1.275642c3.06141.228599 4.02731.02469 6.50451 1.862663 2.34526 2.118075 2.19216 3.673117 2.19216 3.673117s.84314 5.255675-4.33493 8.596475"/>
  <path fill="#00766a" d="M367.05359 30.205012s.15382 4.080221-.48542 5.075758c-.86712 1.861958-.73871 3.673116-.73871 3.673116s-.58914 5.509675 5.79189 6.425485c4.38432-.02469 4.91842-3.673117 4.99604-5.228864.25399-1.22202.1531-6.913022.1531-6.913022l5.68889 4.643253s4.13172 3.469211 6.55812 5.483569c2.52659 1.988253 3.16018 2.345969 3.16018 2.345969s.53834.635704 2.47368.407105c1.55998.02681 2.98731-1.377243 2.98731-1.377243s1.80834-1.322914 2.26766-3.645599c.56091-2.75519-1.58045-4.107033-1.58045-4.107033S390.42015 30.61 385.06287 26.222157c3.59621-1.963558 5.33117-3.3154 5.33117-3.3154s5.00097-3.314695 6.07059-8.393276c1.48096-5.5865787-2.72838-7.7780317-2.72838-7.7780317s-2.62889-1.888063-4.84716-2.8836c-5.58799-2.729085-10.79004-2.168169-10.79004-2.168169s-7.39633-.50941-12.21738 5.434886c-2.21826 2.880778-.83961 6.6576107-.83961 6.6576107s.27375.60466.89111 3.468506c1.23684 5.762263 1.12042 12.960329 1.12042 12.960329zm9.69291-11.326265l-.48542-6.656906s4.66654-.103011 6.60611.228599c3.82833.586316 3.62231 1.659464 3.62231 1.659464s-.1277 1.351137-3.036 2.678285c-3.16088 1.531053-6.707 2.090558-6.707 2.090558"/>
</svg>
