<?xml version="1.0" encoding="UTF-8" standalone="no"?>
<svg
   xmlns:dc="http://purl.org/dc/elements/1.1/"
   xmlns:cc="http://creativecommons.org/ns#"
   xmlns:rdf="http://www.w3.org/1999/02/22-rdf-syntax-ns#"
   xmlns:svg="http://www.w3.org/2000/svg"
   xmlns="http://www.w3.org/2000/svg"
   xmlns:sodipodi="http://sodipodi.sourceforge.net/DTD/sodipodi-0.dtd"
   xmlns:inkscape="http://www.inkscape.org/namespaces/inkscape"
   viewBox="0 0 215.02499 215.02499"
   height="215.02499"
   width="215.02499"
   xml:space="preserve"
   version="1.1"
   id="svg2"
   inkscape:version="0.91 r13725"
   sodipodi:docname="game.svg"><sodipodi:namedview
     pagecolor="#ffffff"
     bordercolor="#666666"
     borderopacity="1"
     objecttolerance="10"
     gridtolerance="10"
     guidetolerance="10"
     inkscape:pageopacity="0"
     inkscape:pageshadow="2"
     inkscape:window-width="1920"
     inkscape:window-height="1027"
     id="namedview177"
     showgrid="false"
     inkscape:zoom="2.1950937"
     inkscape:cx="107.5125"
     inkscape:cy="107.5125"
     inkscape:window-x="-8"
     inkscape:window-y="-8"
     inkscape:window-maximized="1"
     inkscape:current-layer="svg2" /><metadata
     id="metadata8"><rdf:RDF><cc:Work
         rdf:about=""><dc:format>image/svg+xml</dc:format><dc:type
           rdf:resource="http://purl.org/dc/dcmitype/StillImage" /><dc:title /></cc:Work></rdf:RDF></metadata><defs
     id="defs6"><clipPath
       id="clipPath16"
       clipPathUnits="userSpaceOnUse"><path
         id="path18"
         d="m 0,172.02 172.02,0 L 172.02,0 0,0 0,172.02 Z" /></clipPath><linearGradient
       id="linearGradient206"
       spreadMethod="pad"
       gradientTransform="matrix(20.823595,0,0,-20.823595,130.58289,87.014198)"
       gradientUnits="userSpaceOnUse"
       y2="0"
       x2="1"
       y1="0"
       x1="0"><stop
         id="stop208"
         offset="0"
         style="stop-opacity:1;stop-color:#ef4e26" /><stop
         id="stop210"
         offset="0.5"
         style="stop-opacity:1;stop-color:#e5e543" /><stop
         id="stop212"
         offset="1"
         style="stop-opacity:1;stop-color:#ef4e26" /></linearGradient><linearGradient
       id="linearGradient228"
       spreadMethod="pad"
       gradientTransform="matrix(10.411851,0,0,-10.411851,137.44432,90.499291)"
       gradientUnits="userSpaceOnUse"
       y2="0"
       x2="1"
       y1="0"
       x1="0"><stop
         id="stop230"
         offset="0"
         style="stop-opacity:1;stop-color:#ef4e26" /><stop
         id="stop232"
         offset="0.4"
         style="stop-opacity:1;stop-color:#e5e543" /><stop
         id="stop234"
         offset="1"
         style="stop-opacity:1;stop-color:#fbae1f" /></linearGradient><linearGradient
       id="linearGradient250"
       spreadMethod="pad"
       gradientTransform="matrix(10.412209,0,0,-10.412209,134.26407,83.311134)"
       gradientUnits="userSpaceOnUse"
       y2="0"
       x2="1"
       y1="0"
       x1="0"><stop
         id="stop252"
         offset="0"
         style="stop-opacity:1;stop-color:#fbae1f" /><stop
         id="stop254"
         offset="0.6"
         style="stop-opacity:1;stop-color:#e5e543" /><stop
         id="stop256"
         offset="1"
         style="stop-opacity:1;stop-color:#ef4e26" /></linearGradient><clipPath
       id="clipPath264"
       clipPathUnits="userSpaceOnUse"><path
         id="path266"
         d="m 0,172.02 172.02,0 L 172.02,0 0,0 0,172.02 Z" /></clipPath><pattern
       y="0"
       x="0"
       height="6"
       width="6"
       patternUnits="userSpaceOnUse"
       id="EMFhbasepattern" /></defs><g
     transform="matrix(1.25,0,0,-1.25,0,215.025)"
     id="g10"><g
       id="g12"><g
         clip-path="url(#clipPath16)"
         id="g14"><g
           transform="translate(172.0199,86.0099)"
           id="g20"><path
             id="path22"
             style="fill:#929497;fill-opacity:1;fill-rule:nonzero;stroke:none"
             d="m 0,0 c 0,47.502 -38.508,86.01 -86.01,86.01 -47.502,0 -86.01,-38.508 -86.01,-86.01 0,-47.502 38.508,-86.01 86.01,-86.01 C -38.508,-86.01 0,-47.502 0,0" /></g><g
           transform="translate(133.8144,72.7035)"
           id="g24"><path
             id="path26"
             style="fill:#ffffff;fill-opacity:1;fill-rule:nonzero;stroke:none"
             d="m 0,0 -0.596,0 0,-0.489 0.664,0 0,-0.148 -0.861,0 0,1.358 0.827,0 0,-0.147 -0.63,0 0,-0.429 L 0,0.145 0,0 Z" /></g><g
           transform="translate(134.1386,72.0668)"
           id="g28"><path
             id="path30"
             style="fill:#ffffff;fill-opacity:1;fill-rule:nonzero;stroke:none"
             d="m 0,0 0,1.357 0.216,0 0.491,-0.686 C 0.82,0.512 0.909,0.368 0.982,0.229 L 0.986,0.231 C 0.969,0.413 0.964,0.578 0.964,0.789 l 0,0.568 0.186,0 L 1.15,0 0.95,0 0.464,0.688 C 0.356,0.84 0.255,0.995 0.178,1.142 L 0.171,1.14 C 0.182,0.969 0.187,0.806 0.187,0.58 L 0.187,0 0,0 Z" /></g><g
           transform="translate(135.9238,73.2757)"
           id="g32"><path
             id="path34"
             style="fill:#ffffff;fill-opacity:1;fill-rule:nonzero;stroke:none"
             d="m 0,0 -0.466,0 0,0.148 1.134,0 L 0.668,0 0.2,0 0.2,-1.209 0,-1.209 0,0 Z" /></g><g
           transform="translate(137.5547,72.7035)"
           id="g36"><path
             id="path38"
             style="fill:#ffffff;fill-opacity:1;fill-rule:nonzero;stroke:none"
             d="m 0,0 -0.596,0 0,-0.489 0.664,0 0,-0.148 -0.861,0 0,1.358 0.827,0 0,-0.147 -0.63,0 0,-0.429 L 0,0.145 0,0 Z" /></g><g
           transform="translate(138.0761,72.7875)"
           id="g40"><path
             id="path42"
             style="fill:#ffffff;fill-opacity:1;fill-rule:nonzero;stroke:none"
             d="M 0,0 0.203,0 C 0.414,0 0.549,0.104 0.549,0.258 0.549,0.434 0.405,0.51 0.196,0.512 0.101,0.512 0.032,0.504 0,0.496 L 0,0 Z m -0.197,0.619 c 0.099,0.018 0.243,0.027 0.38,0.027 0.211,0 0.347,-0.034 0.443,-0.11 0.077,-0.06 0.12,-0.153 0.12,-0.258 0,-0.179 -0.127,-0.298 -0.289,-0.346 l 0,-0.006 c 0.118,-0.036 0.189,-0.133 0.226,-0.274 0.049,-0.189 0.086,-0.32 0.118,-0.373 l -0.205,0 c -0.025,0.038 -0.059,0.156 -0.102,0.325 -0.046,0.187 -0.128,0.257 -0.307,0.263 l -0.187,0 0,-0.588 -0.197,0 0,1.34 z" /></g><g
           transform="translate(139.4121,73.2757)"
           id="g44"><path
             id="path46"
             style="fill:#ffffff;fill-opacity:1;fill-rule:nonzero;stroke:none"
             d="m 0,0 -0.466,0 0,0.148 1.134,0 L 0.668,0 0.2,0 0.2,-1.209 0,-1.209 0,0 Z" /></g><g
           transform="translate(140.8291,72.6312)"
           id="g48"><path
             id="path50"
             style="fill:#ffffff;fill-opacity:1;fill-rule:nonzero;stroke:none"
             d="m 0,0 -0.149,0.391 c -0.035,0.088 -0.058,0.169 -0.08,0.247 l -0.005,0 C -0.257,0.558 -0.281,0.475 -0.312,0.393 L -0.461,0 0,0 Z m -0.502,-0.138 -0.159,-0.426 -0.205,0 0.52,1.357 0.24,0 0.522,-1.357 -0.211,0 -0.164,0.426 -0.543,0 z" /></g><path
           id="path52"
           style="fill:#ffffff;fill-opacity:1;fill-rule:nonzero;stroke:none"
           d="m 141.666,72.067 -0.197,0 0,1.357 0.197,0 0,-1.357 z" /><g
           transform="translate(142.0117,72.0668)"
           id="g54"><path
             id="path56"
             style="fill:#ffffff;fill-opacity:1;fill-rule:nonzero;stroke:none"
             d="m 0,0 0,1.357 0.216,0 0.491,-0.686 C 0.82,0.512 0.909,0.368 0.982,0.229 L 0.986,0.231 C 0.969,0.413 0.964,0.578 0.964,0.789 l 0,0.568 0.186,0 L 1.15,0 0.95,0 0.464,0.688 C 0.356,0.84 0.255,0.995 0.178,1.142 L 0.171,1.14 C 0.182,0.969 0.187,0.806 0.187,0.58 L 0.187,0 0,0 Z" /></g><g
           transform="translate(144.7968,72.6625)"
           id="g58"><path
             id="path60"
             style="fill:#ffffff;fill-opacity:1;fill-rule:nonzero;stroke:none"
             d="m 0,0 c -0.011,0.189 -0.024,0.417 -0.022,0.587 l -0.007,0 C -0.081,0.428 -0.146,0.258 -0.223,0.071 l -0.27,-0.659 -0.151,0 -0.247,0.647 C -0.964,0.25 -1.025,0.426 -1.068,0.587 l -0.005,0 c -0.004,-0.17 -0.016,-0.398 -0.03,-0.601 l -0.041,-0.582 -0.188,0 0.106,1.358 0.253,0 0.262,-0.657 c 0.064,-0.167 0.115,-0.316 0.154,-0.457 l 0.007,0 c 0.038,0.137 0.093,0.286 0.161,0.457 l 0.274,0.657 0.252,0 0.095,-1.358 -0.193,0 L 0,0 Z" /></g><g
           transform="translate(146.125,72.7035)"
           id="g62"><path
             id="path64"
             style="fill:#ffffff;fill-opacity:1;fill-rule:nonzero;stroke:none"
             d="m 0,0 -0.596,0 0,-0.489 0.664,0 0,-0.148 -0.861,0 0,1.358 0.827,0 0,-0.147 -0.63,0 0,-0.429 L 0,0.145 0,0 Z" /></g><g
           transform="translate(146.4492,72.0668)"
           id="g66"><path
             id="path68"
             style="fill:#ffffff;fill-opacity:1;fill-rule:nonzero;stroke:none"
             d="m 0,0 0,1.357 0.216,0 0.491,-0.686 C 0.82,0.512 0.909,0.368 0.982,0.229 L 0.986,0.231 C 0.969,0.413 0.964,0.578 0.964,0.789 l 0,0.568 0.186,0 L 1.15,0 0.95,0 0.464,0.688 C 0.356,0.84 0.255,0.995 0.178,1.142 L 0.171,1.14 C 0.182,0.969 0.187,0.806 0.187,0.58 L 0.187,0 0,0 Z" /></g><g
           transform="translate(148.2343,73.2757)"
           id="g70"><path
             id="path72"
             style="fill:#ffffff;fill-opacity:1;fill-rule:nonzero;stroke:none"
             d="m 0,0 -0.466,0 0,0.148 1.134,0 L 0.668,0 0.2,0 0.2,-1.209 0,-1.209 0,0 Z" /></g><g
           transform="translate(150.0097,72.6254)"
           id="g74"><path
             id="path76"
             style="fill:#ffffff;fill-opacity:1;fill-rule:nonzero;stroke:none"
             d="m 0,0 -0.19,0 0,0.068 0.464,0 0,-0.068 -0.192,0 0,-0.559 L 0,-0.559 0,0 Z" /></g><g
           transform="translate(150.8828,72.3421)"
           id="g78"><path
             id="path80"
             style="fill:#ffffff;fill-opacity:1;fill-rule:nonzero;stroke:none"
             d="m 0,0 c -0.005,0.088 -0.011,0.192 -0.01,0.271 l -0.003,0 C -0.033,0.197 -0.06,0.119 -0.092,0.032 l -0.11,-0.303 -0.062,0 -0.101,0.298 c -0.03,0.088 -0.055,0.169 -0.072,0.244 l -0.002,0 C -0.441,0.192 -0.446,0.088 -0.451,-0.007 l -0.018,-0.268 -0.077,0 0.044,0.627 0.104,0 0.106,-0.303 c 0.026,-0.077 0.048,-0.147 0.063,-0.212 l 0.003,0 c 0.016,0.063 0.039,0.133 0.067,0.212 l 0.111,0.303 0.104,0 0.039,-0.627 -0.079,0 L 0,0 Z" /></g><g
           transform="translate(134.5508,73.8197)"
           id="g82"><path
             id="path84"
             style="fill:#ffffff;fill-opacity:1;fill-rule:nonzero;stroke:none"
             d="m 0,0 c -0.108,-0.043 -0.324,-0.087 -0.601,-0.087 -0.64,0 -1.123,0.326 -1.123,0.927 0,0.572 0.483,0.961 1.188,0.961 0.283,0 0.462,-0.049 0.539,-0.081 l -0.07,-0.194 c -0.112,0.044 -0.27,0.077 -0.459,0.077 -0.533,0 -0.887,-0.275 -0.887,-0.755 0,-0.449 0.32,-0.737 0.873,-0.737 0.179,0 0.361,0.031 0.479,0.076 L 0,0 Z" /></g><g
           transform="translate(135.0254,74.6644)"
           id="g86"><path
             id="path88"
             style="fill:#ffffff;fill-opacity:1;fill-rule:nonzero;stroke:none"
             d="m 0,0 c 0,-0.391 0.264,-0.741 0.726,-0.741 0.464,0 0.728,0.345 0.728,0.761 0,0.363 -0.236,0.744 -0.725,0.744 C 0.243,0.764 0,0.402 0,0 m 1.764,0.03 c 0,-0.63 -0.475,-0.965 -1.055,-0.965 -0.601,0 -1.022,0.375 -1.022,0.93 0,0.581 0.449,0.961 1.055,0.961 0.621,0 1.022,-0.383 1.022,-0.926" /></g><g
           transform="translate(139.0849,74.5638)"
           id="g90"><path
             id="path92"
             style="fill:#ffffff;fill-opacity:1;fill-rule:nonzero;stroke:none"
             d="m 0,0 c -0.017,0.256 -0.037,0.562 -0.034,0.791 l -0.01,0 C -0.122,0.576 -0.216,0.348 -0.331,0.096 l -0.401,-0.889 -0.222,0 -0.368,0.872 C -1.43,0.337 -1.521,0.573 -1.585,0.791 l -0.007,0 C -1.599,0.562 -1.615,0.256 -1.636,-0.019 l -0.06,-0.785 -0.281,0 0.16,1.831 0.374,0 0.387,-0.885 c 0.095,-0.226 0.172,-0.427 0.23,-0.617 l 0.01,0 c 0.057,0.185 0.138,0.385 0.239,0.617 l 0.405,0.885 0.374,0 0.142,-1.831 -0.286,0 L 0,0 Z" /></g><g
           transform="translate(140.1728,74.6859)"
           id="g94"><path
             id="path96"
             style="fill:#ffffff;fill-opacity:1;fill-rule:nonzero;stroke:none"
             d="m 0,0 c 0.063,-0.014 0.145,-0.019 0.242,-0.019 0.355,0 0.57,0.139 0.57,0.391 0,0.242 -0.211,0.359 -0.536,0.359 C 0.148,0.731 0.051,0.723 0,0.712 L 0,0 Z M -0.294,0.883 C -0.152,0.902 0.033,0.918 0.27,0.918 0.56,0.918 0.772,0.864 0.907,0.767 1.032,0.68 1.105,0.546 1.105,0.384 1.105,0.218 1.045,0.087 0.931,-0.008 0.775,-0.141 0.522,-0.209 0.236,-0.209 0.148,-0.209 0.067,-0.206 0,-0.192 l 0,-0.734 -0.294,0 0,1.809 z" /></g><g
           transform="translate(141.9658,75.5912)"
           id="g98"><path
             id="path100"
             style="fill:#ffffff;fill-opacity:1;fill-rule:nonzero;stroke:none"
             d="m 0,0 0,-1.084 c 0,-0.41 0.226,-0.584 0.529,-0.584 0.337,0 0.553,0.179 0.553,0.584 l 0,1.084 0.297,0 0,-1.067 c 0,-0.563 -0.367,-0.794 -0.859,-0.794 -0.466,0 -0.817,0.215 -0.817,0.782 L -0.297,0 0,0 Z" /></g><g
           transform="translate(144.2841,75.39)"
           id="g102"><path
             id="path104"
             style="fill:#ffffff;fill-opacity:1;fill-rule:nonzero;stroke:none"
             d="m 0,0 -0.69,0 0,0.201 1.682,0 0,-0.201 -0.695,0 0,-1.63 L 0,-1.63 0,0 Z" /></g><g
           transform="translate(146.705,74.6185)"
           id="g106"><path
             id="path108"
             style="fill:#ffffff;fill-opacity:1;fill-rule:nonzero;stroke:none"
             d="m 0,0 -0.884,0 0,-0.66 0.985,0 0,-0.198 -1.279,0 0,1.831 1.228,0 0,-0.199 -0.934,0 0,-0.579 L 0,0.195 0,0 Z" /></g><g
           transform="translate(147.4795,74.7328)"
           id="g110"><path
             id="path112"
             style="fill:#ffffff;fill-opacity:1;fill-rule:nonzero;stroke:none"
             d="M 0,0 0.3,0 C 0.613,0 0.812,0.139 0.812,0.348 0.812,0.584 0.601,0.687 0.29,0.689 0.148,0.689 0.047,0.679 0,0.668 L 0,0 Z m -0.294,0.834 c 0.148,0.024 0.361,0.037 0.564,0.037 0.313,0 0.515,-0.046 0.657,-0.148 0.115,-0.082 0.178,-0.207 0.178,-0.348 0,-0.242 -0.188,-0.402 -0.427,-0.468 l 0,-0.008 C 0.853,-0.149 0.958,-0.28 1.012,-0.47 1.086,-0.726 1.14,-0.902 1.187,-0.973 l -0.303,0 C 0.847,-0.921 0.796,-0.764 0.731,-0.535 0.664,-0.283 0.543,-0.187 0.276,-0.18 l -0.276,0 0,-0.793 -0.294,0 0,1.807 z" /></g><g
           transform="translate(150.1937,36.812)"
           id="g114"><path
             id="path116"
             style="fill:#ffffff;fill-opacity:1;fill-rule:nonzero;stroke:none"
             d="m 0,0 c -14.768,-19.276 -38.038,-31.691 -64.194,-31.691 -26.156,0 -49.405,12.415 -64.193,31.691 -10.459,13.622 -16.686,30.683 -16.686,49.208 0,44.68 36.219,80.879 80.879,80.879 44.681,0 80.9,-36.199 80.9,-80.879 C 16.706,30.683 10.478,13.622 0.02,0 L 0,0 Z m -64.194,133.804 c -46.716,0 -84.596,-37.879 -84.596,-84.596 0,-46.717 37.88,-84.596 84.596,-84.596 46.737,0 84.597,37.879 84.597,84.596 0,46.717 -37.86,84.596 -84.597,84.596" /></g><g
           transform="translate(86.0001,61.9003)"
           id="g118"><path
             id="path120"
             style="fill:#bbbdbf;fill-opacity:1;fill-rule:nonzero;stroke:none"
             d="m 0,0 c -13.325,0 -24.12,10.795 -24.12,24.12 0,13.325 10.795,24.119 24.12,24.119 13.325,0 24.139,-10.794 24.139,-24.119 C 24.139,10.795 13.325,0 0,0 m 0,50.157 c -14.373,0 -26.017,-11.665 -26.017,-26.037 0,-14.373 11.644,-26.038 26.017,-26.038 14.373,0 26.037,11.665 26.037,26.038 0,14.372 -11.664,26.037 -26.037,26.037" /></g><g
           transform="translate(86.0001,63.4424)"
           id="g122"><path
             id="path124"
             style="fill:#929497;fill-opacity:1;fill-rule:nonzero;stroke:none"
             d="m 0,0 c -12.455,0 -22.558,10.122 -22.558,22.577 0,12.456 10.103,22.558 22.558,22.558 12.475,0 22.577,-10.102 22.577,-22.558 C 22.577,10.122 12.475,0 0,0 m 0,46.697 c -13.325,0 -24.12,-10.795 -24.12,-24.12 0,-13.325 10.795,-24.119 24.12,-24.119 13.325,0 24.139,10.794 24.139,24.119 0,13.325 -10.814,24.12 -24.139,24.12" /></g><g
           transform="translate(86.0001,74.1182)"
           id="g126"><path
             id="path128"
             style="fill:#58595b;fill-opacity:1;fill-rule:nonzero;stroke:none"
             d="m 0,0 c -6.959,0 -12.594,5.635 -12.594,12.594 0,6.959 5.635,12.613 12.594,12.613 6.959,0 12.613,-5.654 12.613,-12.613 C 12.613,5.635 6.959,0 0,0 m 0,34.459 c -12.455,0 -22.558,-10.102 -22.558,-22.557 0,-12.455 10.103,-22.578 22.558,-22.578 12.475,0 22.577,10.123 22.577,22.578 0,12.455 -10.102,22.557 -22.577,22.557" /></g><g
           transform="translate(86.0001,74.1182)"
           id="g130"><path
             id="path132"
             style="fill:none;stroke:#3b3a3c;stroke-width:1.977;stroke-linecap:butt;stroke-linejoin:miter;stroke-miterlimit:10;stroke-dasharray:none;stroke-opacity:1"
             d="m 0,0 c -6.959,0 -12.594,5.635 -12.594,12.594 0,6.959 5.635,12.613 12.594,12.613 6.959,0 12.613,-5.654 12.613,-12.613 C 12.613,5.635 6.959,0 0,0 Z m 0,34.459 c -12.455,0 -22.558,-10.102 -22.558,-22.557 0,-12.455 10.103,-22.578 22.558,-22.578 12.475,0 22.577,10.123 22.577,22.578 0,12.455 -10.102,22.557 -22.577,22.557 z" /></g><g
           transform="translate(41.2968,59.2308)"
           id="g134"><path
             id="path136"
             style="fill:#ffffff;fill-opacity:1;fill-rule:nonzero;stroke:none"
             d="m 0,0 1.685,0 c 0.202,0 0.361,-0.169 0.361,-0.36 l 0,-6.642 c 0,-0.191 -0.169,-0.36 -0.361,-0.36 l -1.685,0 c -0.192,0 -0.36,0.159 -0.36,0.36 l 0,6.642 C -0.36,-0.159 -0.201,0 0,0" /></g><g
           transform="translate(36.7308,57.9805)"
           id="g138"><path
             id="path140"
             style="fill:#ffffff;fill-opacity:1;fill-rule:nonzero;stroke:none"
             d="m 0,0 1.107,0 c 0.202,0 0.361,-0.172 0.361,-0.36 l 0,-4.336 c 0,-0.188 -0.172,-0.36 -0.361,-0.36 l -1.107,0 c -0.188,0 -0.36,0.159 -0.36,0.36 l 0,4.336 C -0.36,-0.159 -0.201,0 0,0 m 1.582,3.92 1.35,0 c 0.202,0 0.364,-0.163 0.364,-0.364 l 0,-9.307 c 0,-0.202 -0.162,-0.358 -0.364,-0.358 l -4.731,-0.003 c -0.24,0 -0.523,0.276 -0.523,0.523 l 0,6.313 c 0,0.247 0.279,0.523 0.523,0.523 l 3.017,0 0,2.309 c 0,0.201 0.162,0.364 0.364,0.364" /></g><g
           transform="translate(46.1388,56.5094)"
           id="g142"><path
             id="path144"
             style="fill:#ffffff;fill-opacity:1;fill-rule:nonzero;stroke:none"
             d="m 0,0 3.014,0.003 c 0.201,0 0.363,-0.279 0.363,-0.363 l 0,-3.917 c 0,-0.159 -0.204,-0.364 -0.363,-0.364 l -4.368,0 c -0.055,0 -0.361,0.159 -0.361,0.361 l 0,0.893 c 0,0.201 0.159,0.36 0.361,0.36 l 3.017,0 0,1.108 -3.017,0 c -0.062,0 -0.361,0.159 -0.361,0.36 l 0,3.92 c 0,0.201 0.159,0.36 0.361,0.36 l 4.147,0 c 0.169,0 0.36,-0.198 0.36,-0.36 l 0,-0.893 c 0,-0.15 -0.211,-0.361 -0.36,-0.361 L 0,1.107 0,0 Z" /></g><g
           transform="translate(55.4883,54.8954)"
           id="g146"><path
             id="path148"
             style="fill:#ffffff;fill-opacity:1;fill-rule:nonzero;stroke:none"
             d="m 0,0 0,-2.666 c 0,-0.166 -0.195,-0.361 -0.36,-0.361 l -4.424,0 c -0.068,0 -0.36,0.159 -0.36,0.361 l 0,6.641 c 0,0.201 0.159,0.36 0.36,0.36 l 4.424,0 C -0.159,4.335 0,4.04 0,3.975 l 0,-2.747 -1.656,0 0,1.591 c 0,0 -0.159,0.36 -0.361,0.36 l -1.107,0 c -0.201,0 -0.361,-0.159 -0.361,-0.36 l 0,-4.336 c 0,-0.198 0.225,-0.36 0.361,-0.36 l 1.107,0 c 0.169,0 0.361,0.192 0.361,0.36 L -1.656,0 0,0 Z" /></g><g
           transform="translate(54.5758,60.0914)"
           id="g150"><path
             id="path152"
             style="fill:#ffffff;fill-opacity:1;fill-rule:nonzero;stroke:none"
             d="m 0,0 0.497,0 0,1.367 0.467,0 0,0.393 -1.428,0 0,-0.393 L 0,1.367 0,0 Z" /></g><g
           transform="translate(53.673,60.7766)"
           id="g154"><path
             id="path156"
             style="fill:#ffffff;fill-opacity:1;fill-rule:nonzero;stroke:none"
             d="m 0,0 -0.51,0 0,-0.045 c 0,-0.189 -0.062,-0.247 -0.256,-0.247 -0.241,0 -0.257,0.087 -0.257,0.35 l 0,0.289 c 0,0.264 0.016,0.335 0.257,0.335 0.181,0 0.256,-0.042 0.256,-0.218 l 0,-0.029 0.497,0 0,0.029 c 0,0.481 -0.182,0.64 -0.692,0.64 l -0.136,0 c -0.526,0 -0.692,-0.188 -0.692,-0.727 l 0,-0.364 c 0,-0.523 0.166,-0.74 0.692,-0.74 l 0.166,0 C -0.211,-0.727 0,-0.526 0,-0.058 L 0,0 Z" /></g><g
           transform="translate(46.8273,61.8515)"
           id="g158"><path
             id="path160"
             style="fill:#ffffff;fill-opacity:1;fill-rule:nonzero;stroke:none"
             d="M 0,0 -0.373,-1.267 -0.75,0 l -0.724,0 0,-1.76 0.484,0 0,1.309 0.376,-1.309 0.481,0 0.377,1.296 0,-1.296 0.464,0 0,1.76 L 0,0 Z" /></g><g
           transform="translate(50.8606,60.7604)"
           id="g162"><path
             id="path164"
             style="fill:#ffffff;fill-opacity:1;fill-rule:nonzero;stroke:none"
             d="m 0,0 -0.195,0 0.179,0.727 0.016,0 0.016,0 L 0.195,0 0,0 Z m 0.377,1.091 -0.377,0 -0.377,0 -0.526,-1.76 0.526,0 0.091,0.305 0.286,0 0.286,0 0.074,-0.305 0.527,0 -0.51,1.76 z" /></g><g
           transform="translate(49.2044,61.1696)"
           id="g166"><path
             id="path168"
             style="fill:#ffffff;fill-opacity:1;fill-rule:nonzero;stroke:none"
             d="m 0,0 c 0,-0.175 -0.042,-0.221 -0.195,-0.221 l -0.075,0 -0.269,0 0,0.51 0.269,0 0.046,0 C -0.058,0.289 0,0.247 0,0.101 L 0,0 Z m -0.179,0.682 -0.091,0 -0.766,0 0,-1.76 0.497,0 0,0.464 0.269,0 0.091,0 c 0.465,0 0.676,0.163 0.676,0.598 l 0,0.117 c 0,0.438 -0.211,0.581 -0.676,0.581" /></g><g
           transform="translate(44.2877,60.8351)"
           id="g170"><path
             id="path172"
             style="fill:#ffffff;fill-opacity:1;fill-rule:nonzero;stroke:none"
             d="m 0,0 c 0,-0.279 -0.016,-0.351 -0.273,-0.351 l -0.042,0 -0.049,0 c -0.253,0 -0.269,0.072 -0.269,0.351 l 0,0.289 c 0,0.263 0.016,0.335 0.269,0.335 l 0.049,0 0.042,0 C -0.016,0.624 0,0.552 0,0.289 L 0,0 Z m -0.198,1.046 -0.117,0 -0.123,0 c -0.526,0 -0.692,-0.189 -0.692,-0.728 l 0,-0.363 c 0,-0.523 0.166,-0.741 0.692,-0.741 l 0.123,0 0.117,0 c 0.526,0 0.708,0.218 0.708,0.741 l 0,0.363 c 0,0.539 -0.182,0.728 -0.708,0.728" /></g><g
           transform="translate(42.6608,60.7766)"
           id="g174"><path
             id="path176"
             style="fill:#ffffff;fill-opacity:1;fill-rule:nonzero;stroke:none"
             d="m 0,0 -0.51,0 0,-0.045 c 0,-0.189 -0.062,-0.247 -0.256,-0.247 -0.241,0 -0.257,0.087 -0.257,0.35 l 0,0.289 c 0,0.264 0.016,0.335 0.257,0.335 0.181,0 0.256,-0.042 0.256,-0.218 l 0,-0.029 0.497,0 0,0.029 c 0,0.481 -0.182,0.64 -0.695,0.64 l -0.133,0 c -0.526,0 -0.692,-0.188 -0.692,-0.727 l 0,-0.364 c 0,-0.523 0.166,-0.74 0.692,-0.74 l 0.166,0 C -0.211,-0.727 0,-0.526 0,-0.058 L 0,0 Z" /></g><g
           transform="translate(132.8392,99.4139)"
           id="g178"><path
             id="path180"
             style="fill:#ffffff;fill-opacity:1;fill-rule:nonzero;stroke:none"
             d="m 0,0 0.265,0 c 0.216,-0.395 0.73,-0.818 1.455,-0.818 0.379,0 0.784,0.114 0.784,0.392 0,0.204 -0.178,0.308 -0.584,0.36 L 1.368,0.003 C 0.39,0.125 0,0.458 0,0.811 c 0,0.534 0.665,0.79 1.433,0.79 0.346,0 0.66,-0.062 0.947,-0.19 l 0.292,0.169 0.232,0 0.071,-0.915 -0.271,0 c -0.2,0.371 -0.67,0.749 -1.341,0.749 -0.346,0 -0.746,-0.107 -0.746,-0.357 0,-0.149 0.124,-0.284 0.6,-0.346 L 1.888,0.62 C 2.78,0.499 3.153,0.232 3.153,-0.198 c 0,-0.422 -0.498,-0.807 -1.411,-0.807 -0.438,0 -0.823,0.08 -1.12,0.232 l -0.341,-0.215 -0.238,0 L 0,0 Z" /></g><g
           transform="translate(138.427,98.5786)"
           id="g182"><path
             id="path184"
             style="fill:#ffffff;fill-opacity:1;fill-rule:nonzero;stroke:none"
             d="M 0,0 C 0.649,0 0.968,0.381 0.968,1.133 0.968,1.885 0.649,2.267 0,2.267 -0.654,2.267 -0.973,1.885 -0.973,1.133 -0.973,0.381 -0.654,0 0,0 M 0,2.437 C 1.142,2.437 2.039,1.875 2.039,1.133 2.039,0.392 1.142,-0.17 0,-0.17 c -1.146,0 -2.044,0.562 -2.044,1.303 0,0.742 0.898,1.304 2.044,1.304" /></g><g
           transform="translate(140.7044,100.9632)"
           id="g186"><path
             id="path188"
             style="fill:#ffffff;fill-opacity:1;fill-rule:nonzero;stroke:none"
             d="m 0,0 1.395,0 2.093,-1.594 0,0.974 c 0,0.322 -0.092,0.419 -0.595,0.433 l 0,0.187 1.558,0 0,-0.187 C 3.948,-0.201 3.856,-0.298 3.856,-0.62 l 0,-1.917 -0.351,0 -2.531,1.951 -0.012,0 0,-1.296 c 0,-0.322 0.093,-0.419 0.596,-0.433 l 0,-0.187 -1.558,0 0,0.187 c 0.503,0.014 0.595,0.111 0.595,0.433 l 0,1.508 C 0.459,-0.25 0.249,-0.187 0,-0.187 L 0,0 Z" /></g><g
           transform="translate(145.1179,100.9632)"
           id="g190"><path
             id="path192"
             style="fill:#ffffff;fill-opacity:1;fill-rule:nonzero;stroke:none"
             d="m 0,0 1.936,0 0,-0.187 -0.119,0 c -0.227,0 -0.286,-0.021 -0.286,-0.08 0,-0.031 0.027,-0.066 0.102,-0.142 l 0.709,-0.735 0.519,0.603 c 0.076,0.09 0.103,0.135 0.103,0.174 0,0.145 -0.249,0.18 -0.514,0.18 l 0,0.187 1.585,0 0,-0.187 C 3.645,-0.222 3.483,-0.322 3.212,-0.617 L 2.498,-1.4 l 0,-0.742 c 0,-0.132 0.033,-0.173 0.325,-0.173 l 0.287,0 0,-0.187 -2.169,0 0,0.187 0.27,0 c 0.292,0 0.325,0.041 0.325,0.173 l 0,0.7 -1.039,1.064 C 0.34,-0.218 0.281,-0.187 0,-0.187 L 0,0 Z" /></g></g></g><g
       id="g194"><g
         id="g196"><g
           id="g202"><g
             id="g204"><path
               id="path214"
               style="fill:url(#linearGradient206);stroke:none"
               d="m 130.583,87.069 10.455,-10.456 10.368,10.368 -10.433,10.434 -10.39,-10.346 z" /></g></g></g></g><g
       id="g216"><g
         id="g218"><g
           id="g224"><g
             id="g226"><path
               id="path236"
               style="fill:url(#linearGradient228);stroke:none"
               d="m 137.444,90.527 5.228,-5.229 -0.033,10.402 -5.195,-5.173 z" /></g></g></g></g><g
       id="g238"><g
         id="g240"><g
           id="g246"><g
             id="g248"><path
               id="path258"
               style="fill:url(#linearGradient250);stroke:none"
               d="m 139.492,78.111 5.184,5.184 -5.216,5.216 0.032,-10.4 z" /></g></g></g></g><g
       id="g260"><g
         clip-path="url(#clipPath264)"
         id="g262"><path
           id="path268"
           style="fill:#58595b;fill-opacity:1;fill-rule:nonzero;stroke:none"
           d="m 44.975,77.766 -25.708,0 0,23.565 25.708,0 0,-23.565 z" /><g
           transform="translate(31.0647,89.4424)"
           id="g270"><path
             id="path272"
             style="fill:#00a99d;fill-opacity:1;fill-rule:evenodd;stroke:none"
             d="M 0,0 -3.008,0.902 -6.974,-0.52 -7.658,-0.793 -4.786,-1.696 0,0 Z" /></g><g
           transform="translate(35.9875,87.9657)"
           id="g274"><path
             id="path276"
             style="fill:#00a99d;fill-opacity:1;fill-rule:evenodd;stroke:none"
             d="M 0,0 -4.294,-1.505 -5.005,-1.723 -7.931,-0.821 -3.063,0.93 0,0 Z" /></g><g
           transform="translate(37.8473,87.4184)"
           id="g278"><path
             id="path280"
             style="fill:#00a99d;fill-opacity:1;fill-rule:evenodd;stroke:none"
             d="m 0,0 -5.005,-1.805 2.817,-0.93 4.622,1.641 0.547,0.246 L 0,0 Z" /></g><g
           transform="translate(35.6595,84.6837)"
           id="g282"><path
             id="path284"
             style="fill:#f2c102;fill-opacity:1;fill-rule:evenodd;stroke:none"
             d="M 0,0 -2.817,0.93 -5.634,-0.082 -2.762,-0.985 0,0 Z" /></g><g
           transform="translate(28.0564,87.145)"
           id="g286"><path
             id="path288"
             style="fill:#f2c102;fill-opacity:1;fill-rule:evenodd;stroke:none"
             d="m 0,0 2.926,-0.903 c -2.461,-0.82 -4.841,-0.902 -7.165,-0.273 -1.231,0.328 -1.915,0.766 -1.969,1.367 -0.028,0.411 0.519,0.876 1.558,1.313 L -1.778,0.602 -2.516,0.328 C -2.735,0.246 -2.926,0.137 -3.063,0.055 -3.2,-0.082 -3.145,-0.219 -2.926,-0.355 l 1.094,-0.137 1.148,0.219 L 0,0 Z" /></g><g
           transform="translate(29.5606,90.837)"
           id="g290"><path
             id="path292"
             style="fill:#326cb2;fill-opacity:1;fill-rule:evenodd;stroke:none"
             d="M 0,0 2.954,-0.848 1.504,-1.395 -1.504,-0.492 0,0 Z" /></g><g
           transform="translate(32.9246,88.8953)"
           id="g294"><path
             id="path296"
             style="fill:#326cb2;fill-opacity:1;fill-rule:evenodd;stroke:none"
             d="M 0,0 C 1.422,0.547 2.789,0.821 4.102,0.848 5.251,0.903 6.482,0.766 7.712,0.356 8.806,0 9.408,-0.41 9.435,-0.93 9.49,-1.477 8.998,-1.915 7.904,-2.325 l -2.981,0.848 1.012,0.383 c 0.41,0.137 0.601,0.274 0.547,0.438 C 6.427,-0.52 6.29,-0.41 5.989,-0.383 L 4.977,-0.328 4.212,-0.52 3.063,-0.93 0,0 Z" /></g><g
           transform="translate(29.5059,99.5617)"
           id="g298"><path
             id="path300"
             style="fill:#dc0029;fill-opacity:1;fill-rule:evenodd;stroke:none"
             d="m 0,0 0,-14.824 3.391,-1.039 0,12.39 c 0,0.328 0.028,0.546 0.164,0.683 0.137,0.192 0.274,0.219 0.465,0.137 C 4.485,-2.79 4.704,-3.2 4.704,-3.884 l 0,-4.977 c 1.039,-0.493 1.969,-0.547 2.653,-0.028 0.711,0.493 1.094,1.368 1.094,2.68 0,1.368 -0.274,2.407 -0.875,3.091 -0.547,0.739 -1.505,1.34 -2.927,1.832 C 2.79,-0.684 1.231,-0.246 0,0" /></g><g
           transform="translate(24.2867,82.6331)"
           id="g302"><path
             id="path304"
             style="fill:#ffffff;fill-opacity:1;fill-rule:evenodd;stroke:none"
             d="m 0,0 -0.698,0 -0.069,0 -0.341,0 0,-2.631 0.41,0 0,2.335 0.54,0 c 0.312,0 0.319,-0.413 0.319,-0.413 l 0,-0.255 C 0.143,-1.392 -0.06,-1.339 -0.06,-1.339 l -0.374,0 0,-0.291 0.416,0 c 0.599,0 0.6,0.634 0.6,0.634 l 0,0.414 C 0.582,0.007 0,0 0,0" /></g><path
           id="path306"
           style="fill:#ffffff;fill-opacity:1;fill-rule:nonzero;stroke:none"
           d="m 25.625,79.992 -0.415,0 0,2.641 0.415,0 0,-2.641 z" /><g
           transform="translate(26.2504,82.0468)"
           id="g308"><path
             id="path310"
             style="fill:#ffffff;fill-opacity:1;fill-rule:nonzero;stroke:none"
             d="m 0,0 0.753,0 c 0,0 0.616,0.056 0.616,-0.567 l 0,-1.484 -1.012,0 c 0,0 -0.627,0.006 -0.602,0.619 l 0,0.126 c 0,0 0.024,0.534 0.534,0.534 l 0.383,0 0,-0.229 -0.231,0 c 0,0 -0.238,-0.011 -0.238,-0.333 0,-0.322 0.115,-0.441 0.364,-0.441 l 0.389,0 0,1.169 c 0,0 0.021,0.34 -0.385,0.34 L 0,-0.266 0,0 Z" /></g><g
           transform="translate(33.3493,82.0468)"
           id="g312"><path
             id="path314"
             style="fill:#ffffff;fill-opacity:1;fill-rule:nonzero;stroke:none"
             d="m 0,0 0.753,0 c 0,0 0.616,0.056 0.616,-0.567 l 0,-1.484 -1.012,0 c 0,0 -0.626,0.006 -0.602,0.619 l 0,0.126 c 0,0 0.024,0.534 0.534,0.534 l 0.383,0 0,-0.229 -0.231,0 c 0,0 -0.238,-0.011 -0.238,-0.333 0,-0.322 0.116,-0.441 0.364,-0.441 l 0.389,0 0,1.169 c 0,0 0.021,0.34 -0.385,0.34 L 0,-0.266 0,0 Z" /></g><g
           transform="translate(27.8308,82.0607)"
           id="g316"><path
             id="path318"
             style="fill:#ffffff;fill-opacity:1;fill-rule:nonzero;stroke:none"
             d="M 0,0 0.483,0 1.024,-1.386 1.58,0 1.974,0 0.688,-3.019 0.331,-3.019 0.777,-1.99 0,0 Z" /></g><g
           transform="translate(30.1044,80.2403)"
           id="g320"><path
             id="path322"
             style="fill:#ffffff;fill-opacity:1;fill-rule:nonzero;stroke:none"
             d="m 0,0 0.693,0 c 0,0 0.322,-0.024 0.322,0.417 l 0,0.234 c 0,0 -0.024,0.272 -0.271,0.272 l -0.299,0 c 0,0 -0.564,-0.013 -0.547,0.642 l 0,0.248 c 0,0 0.028,0.56 0.638,0.56 l 0.724,0 0,-0.262 -0.633,0 c 0,0 -0.324,0.014 -0.324,-0.324 l 0,-0.152 c 0,0 0.021,-0.348 0.347,-0.348 l 0.327,0 c 0,0 0.437,0.001 0.437,-0.555 l 0,-0.427 c 0,0 -0.031,-0.559 -0.558,-0.559 L 0,-0.254 0,0 Z" /></g><g
           transform="translate(32.7123,79.9955)"
           id="g324"><path
             id="path326"
             style="fill:#ffffff;fill-opacity:1;fill-rule:nonzero;stroke:none"
             d="m 0,0 -0.462,0 c 0,0 -0.287,-0.035 -0.287,0.458 l 0,1.919 0.444,0 0,-0.326 0.417,0 0,-0.287 -0.417,0 -0.042,0 0,-1.201 c 0,0 -0.021,-0.315 0.28,-0.315 L 0,0.248 0,0 Z" /></g><g
           transform="translate(35.8839,79.9885)"
           id="g328"><path
             id="path330"
             style="fill:#ffffff;fill-opacity:1;fill-rule:nonzero;stroke:none"
             d="m 0,0 -0.462,0 c 0,0 -0.287,-0.035 -0.287,0.458 l 0,1.919 0.444,0 0,-0.326 0.417,0 0,-0.287 -0.417,0 -0.042,0 0,-1.201 c 0,0 -0.021,-0.314 0.28,-0.314 L 0,0.249 0,0 Z" /></g><path
           id="path332"
           style="fill:#ffffff;fill-opacity:1;fill-rule:nonzero;stroke:none"
           d="m 36.789,82.255 -0.41,0 0,0.415 0.41,0 0,-0.415 z" /><path
           id="path334"
           style="fill:#ffffff;fill-opacity:1;fill-rule:nonzero;stroke:none"
           d="m 36.789,80.018 -0.41,0 0,2.037 0.41,0 0,-2.037 z" /><g
           transform="translate(38.5542,80.6671)"
           id="g336"><path
             id="path338"
             style="fill:#ffffff;fill-opacity:1;fill-rule:nonzero;stroke:none"
             d="m 0,0 c 0,-0.235 -0.194,-0.426 -0.433,-0.426 -0.239,0 -0.433,0.191 -0.433,0.426 l 0,0.682 c 0,0.235 0.194,0.425 0.433,0.425 C -0.194,1.107 0,0.917 0,0.682 L 0,0 Z m -0.333,1.381 -0.2,0 c -0.441,0 -0.798,-0.358 -0.798,-0.799 l 0,-0.483 c 0,-0.44 0.357,-0.798 0.798,-0.798 l 0.2,0 c 0.44,0 0.798,0.358 0.798,0.798 l 0,0.483 c 0,0.441 -0.358,0.799 -0.798,0.799" /></g><g
           transform="translate(39.4822,82.0476)"
           id="g340"><path
             id="path342"
             style="fill:#ffffff;fill-opacity:1;fill-rule:nonzero;stroke:none"
             d="m 0,0 0.966,0 c 0,0 0.64,0.037 0.64,-0.639 l 0,-1.412 -0.425,0 0,1.381 c 0,0 0.042,0.365 -0.364,0.365 l -0.407,0 0,-1.725 L 0,-2.03 0,0 Z" /></g><g
           transform="translate(42.1507,80.0103)"
           id="g344"><path
             id="path346"
             style="fill:#ffffff;fill-opacity:1;fill-rule:nonzero;stroke:none"
             d="m 0,0 0,0.661 0.162,0 0.167,-0.528 0.162,0.528 0.159,0 0,-0.661 -0.101,0 0,0.555 L 0.379,0 0.279,0 0.101,0.563 0.101,0 0,0 Z m -0.4,0 0,0.563 -0.214,0 0,0.098 0.54,0 0,-0.098 -0.216,0 0,-0.563 -0.11,0 z" /></g><path
           id="path348"
           style="fill:#58595b;fill-opacity:1;fill-rule:nonzero;stroke:none"
           d="m 44.975,71.594 -25.708,0 0,4.172 25.708,0 0,-4.172 z" /><g
           transform="translate(29.0375,73.6387)"
           id="g350"><path
             id="path352"
             style="fill:#ffffff;fill-opacity:1;fill-rule:nonzero;stroke:none"
             d="m 0,0 c 0.095,-0.025 0.215,-0.035 0.36,-0.035 0.526,0 0.846,0.255 0.846,0.721 0,0.445 -0.315,0.661 -0.796,0.661 C 0.22,1.347 0.075,1.332 0,1.312 L 0,0 Z m -0.436,1.627 c 0.21,0.035 0.486,0.065 0.836,0.065 0.431,0 0.746,-0.1 0.946,-0.28 C 1.531,1.251 1.642,1.006 1.642,0.706 1.642,0.4 1.551,0.16 1.381,-0.015 1.151,-0.26 0.775,-0.385 0.35,-0.385 0.22,-0.385 0.1,-0.38 0,-0.355 l 0,-1.352 -0.436,0 0,3.334 z" /></g><g
           transform="translate(32.4936,73.3336)"
           id="g354"><path
             id="path356"
             style="fill:#ffffff;fill-opacity:1;fill-rule:nonzero;stroke:none"
             d="m 0,0 -0.331,0.971 c -0.075,0.22 -0.125,0.42 -0.175,0.615 l -0.01,0 c -0.05,-0.2 -0.105,-0.405 -0.17,-0.61 L -1.016,0 0,0 Z m -1.106,-0.34 -0.351,-1.061 -0.45,0 1.146,3.373 0.526,0 1.151,-3.373 -0.466,0 -0.36,1.061 -1.196,0 z" /></g><g
           transform="translate(33.9018,75.3057)"
           id="g358"><path
             id="path360"
             style="fill:#ffffff;fill-opacity:1;fill-rule:nonzero;stroke:none"
             d="m 0,0 0.436,0 0,-3.008 1.441,0 0,-0.366 L 0,-3.374 0,0 Z" /></g><g
           transform="translate(37.8576,53.2867)"
           id="g362"><path
             id="path364"
             style="fill:#929497;fill-opacity:1;fill-rule:nonzero;stroke:none"
             d="m 0,0 -1.698,0 c -0.077,0 -0.139,0.062 -0.139,0.138 l 0,4.233 c 0,0.077 0.062,0.139 0.139,0.139 L 0,4.51 c 0.076,0 0.138,-0.062 0.138,-0.139 l 0,-4.233 C 0.138,0.062 0.076,0 0,0" /></g></g></g></g><path
     inkscape:connector-curvature="0"
     id="path3510"
     d="m 103.1589,23.990733 c -1.93152,0 -3.522084,-1.569366 -3.522084,-3.522181 0,-1.945715 1.576364,-3.515054 3.522084,-3.515054 1.93152,0 3.51507,1.569339 3.51507,3.515054 0,1.952815 -1.56935,3.522181 -3.51507,3.522181 z m 0,-5.58862 c -1.1433,0 -2.07354,0.930253 -2.07354,2.066439 0,1.143286 0.93024,2.073539 2.07354,2.073539 1.13619,0 2.06644,-0.930253 2.06644,-2.073539 0,-1.136186 -0.93025,-2.066439 -2.06644,-2.066439 z"
     style="fill:#ff0000;fill-opacity:1;fill-rule:nonzero;stroke:none" /><path
     inkscape:connector-curvature="0"
     id="path3512"
     d="m 114.91833,24.210866 -0.0995,0 -5.33286,-0.695918 c -0.19885,-0.02846 -0.36216,-0.120671 -0.47578,-0.276939 -0.1137,-0.149127 -0.16333,-0.347959 -0.14203,-0.525489 l 0.6959,-5.340043 c 0.0568,-0.390576 0.41898,-0.667515 0.80955,-0.624911 l 5.33997,0.695918 c 0.19173,0.02846 0.36216,0.120671 0.46869,0.276939 0.11355,0.1491 0.17042,0.347932 0.14202,0.525462 l -0.69592,5.34007 c -0.0426,0.36216 -0.34795,0.624911 -0.71012,0.624911 z m -4.51625,-2.045136 3.89135,0.518388 0.51128,-3.891442 -3.89134,-0.518388 -0.51129,3.891442 z"
     style="fill:#ff5ddc;fill-opacity:1;fill-rule:nonzero;stroke:none" /><path
     inkscape:connector-curvature="0"
     id="path3514"
     d="m 103.25121,15.199542 c -0.0497,0 -0.0923,0 -0.14913,-0.01423 -0.39056,-0.07812 -0.63909,-0.454469 -0.55389,-0.845046 l 1.13619,-5.4607404 c 0.0852,-0.390563 0.46158,-0.6390994 0.85214,-0.5609922 0.38347,0.085235 0.6391,0.4615696 0.5539,0.8521325 l -1.14329,5.4607541 c -0.0497,0.333758 -0.36216,0.568093 -0.69592,0.568093 z"
     style="fill:#027fe1;fill-opacity:1;fill-rule:nonzero;stroke:none" /><path
     inkscape:connector-curvature="0"
     id="path3516"
     d="m 103.25121,15.199542 c -0.0497,0 -0.0923,0 -0.14913,-0.01423 -0.39056,-0.07812 -0.63909,-0.454469 -0.55389,-0.845046 l 1.13619,-5.4607404 c 0.0852,-0.390563 0.46158,-0.6390994 0.85214,-0.5609922 0.38347,0.085235 0.6391,0.4615696 0.5539,0.8521325 l -1.14329,5.4607541 c -0.0497,0.333758 -0.36216,0.568093 -0.69592,0.568093 z"
     style="fill:#027fe1;fill-opacity:1;fill-rule:nonzero;stroke:none" /><path
     inkscape:connector-curvature="0"
     id="path3518"
     d="m 106.56036,13.033694 c -0.0497,0 -0.0923,0 -0.14913,-0.01423 l -5.46789,-1.143287 c -0.38347,-0.07812 -0.63901,-0.454469 -0.5538,-0.845032 0.0852,-0.390562 0.46148,-0.639099 0.85205,-0.553891 l 5.46078,1.136186 c 0.39058,0.08523 0.63912,0.461569 0.55389,0.852132 -0.0639,0.333745 -0.36216,0.56808 -0.6959,0.56808 z"
     style="fill:#027fe1;fill-opacity:1;fill-rule:nonzero;stroke:none" /><path
     inkscape:connector-curvature="0"
     id="path3520"
     d="m 110.31687,14.816066 c -0.17753,0 -0.34796,-0.07101 -0.47578,-0.18463 -0.19173,-0.163315 -0.27696,-0.433154 -0.22014,-0.68169 l 0.98706,-4.700944 c 0.0568,-0.2485364 0.23435,-0.4544689 0.47579,-0.5254889 0.23433,-0.085235 0.51127,-0.028456 0.7101,0.1420266 l 3.60021,3.1670943 c 0.19172,0.170429 0.27694,0.433167 0.22013,0.681717 -0.0568,0.248536 -0.23433,0.461556 -0.47578,0.539677 l -4.58725,1.519634 c -0.0923,0.02846 -0.16333,0.04255 -0.23434,0.04255 z m 1.43443,-4.061831 -0.47577,2.265258 2.20837,-0.738509 -1.7326,-1.526749 z"
     style="fill:#8aee49;fill-opacity:1;fill-rule:nonzero;stroke:none" /><path
     inkscape:connector-curvature="0"
     id="path3522"
     d="m 134.29731,51.102787 -4.51634,-15.586963 c -0.20594,-0.738522 -1.01546,-1.335017 -1.78239,-1.335017 l -40.064445,0 c -0.766924,0 -1.555138,0.596495 -1.782385,1.335017 l -4.459482,15.501741 c -0.213033,0.738522 -0.390563,1.959929 -0.390563,2.72676 l 0,17.490059 c 0,0.759824 0.624885,1.384736 1.391823,1.384736 l 50.602502,0 c 0.76693,0 1.39184,-0.624912 1.39184,-1.384736 l 0,-17.411952 c 0,-0.759824 -0.17753,-1.988224 -0.39056,-2.719645 z m -4.70807,-1.462843 -43.196041,-0.05678 c -0.766911,0 -1.228494,-0.596495 -1.00126,-1.33503 l 2.861753,-9.955726 c 0.205919,-0.731421 1.015461,-1.335031 1.782372,-1.335031 l 35.881956,0 c 0.75973,0 1.56927,0.60361 1.77521,1.335031 l 2.91147,10.012544 c 0.20593,0.738522 -0.25564,1.335018 -1.01546,1.335018 z"
     style="fill:#808080;fill-opacity:1;fill-rule:nonzero;stroke:none" /><path
     inkscape:connector-curvature="0"
     id="path3524"
     d="m 86.265374,63.572332 -2.165835,0 0,-3.62869 5.794499,0 0,0.72432 -3.628664,0 0,2.90437 0,0 z"
     style="fill:#ffffff;fill-opacity:1;fill-rule:nonzero;stroke:none" /><path
     inkscape:connector-curvature="0"
     id="path3526"
     d="m 92.784193,62.83381 3.628691,0 0,0.724321 -5.794526,0 0,-3.628704 5.794526,0 0,2.165861 -3.628691,0 0,0.738522 z m 0,-1.448641 1.448628,0 0,-0.717207 -1.448628,0 0,0.717207 z"
     style="fill:#ffffff;fill-opacity:1;fill-rule:nonzero;stroke:none" /><path
     inkscape:connector-curvature="0"
     id="path3528"
     d="m 99.303058,62.83381 3.628612,0 0,0.724321 -5.794466,0 0,-3.628704 5.794466,0 0,0.724321 -3.628612,0 0,2.180062 z"
     style="fill:#ffffff;fill-opacity:1;fill-rule:nonzero;stroke:none" /><path
     inkscape:connector-curvature="0"
     id="path3530"
     d="m 103.64177,59.943642 5.80165,0 0,3.62869 -5.80165,0 0,-2.172962 3.6287,0 0,-0.71722 -3.6287,0 0,-0.738508 z m 2.18717,2.890168 1.44153,0 0,-0.72432 -1.44153,0 0,0.72432 z"
     style="fill:#ffffff;fill-opacity:1;fill-rule:nonzero;stroke:none" /><path
     inkscape:connector-curvature="0"
     id="path3532"
     d="m 110.16774,57.053473 2.16585,0 0,6.518859 -2.16585,0 0,-6.518859 z"
     style="fill:#ffffff;fill-opacity:1;fill-rule:nonzero;stroke:none" /><path
     inkscape:connector-curvature="0"
     id="path3534"
     d="m 113.07211,57.053473 2.16577,0 0,2.890169 3.62869,0 0,3.62869 -5.79446,0 0,-6.518859 z m 2.16577,5.780337 1.44863,0 0,-2.165848 -1.44863,0 0,2.165848 z"
     style="fill:#ffffff;fill-opacity:1;fill-rule:nonzero;stroke:none" /><path
     inkscape:connector-curvature="0"
     id="path3536"
     d="m 119.59089,59.943642 5.79454,0 0,3.62869 -5.79454,0 0,-3.62869 z m 2.16585,2.890168 1.44864,0 0,-2.165848 -1.44864,0 0,2.165848 z"
     style="fill:#ffffff;fill-opacity:1;fill-rule:nonzero;stroke:none" /><path
     inkscape:connector-curvature="0"
     id="path3538"
     d="m 126.83398,62.10949 0.72432,0 0,-0.724321 -0.72432,0 0,-0.717207 -0.72431,0 0,-0.72432 2.17295,0 0,0.72432 1.44154,0 0,-0.72432 2.17295,0 0,0.72432 -0.72432,0 0,0.717207 -0.72432,0 0,0.724321 0.72432,0 0,0.72432 0.72432,0 0,0.724321 -2.17295,0 0,-0.724321 -1.44154,0 0,0.724321 -2.17295,0 0,-0.724321 0.72431,0 0,-0.72432 z"
     style="fill:#ffffff;fill-opacity:1;fill-rule:nonzero;stroke:none" /><path
     inkscape:connector-curvature="0"
     id="path3540"
     d="m 126.00324,39.840433 c -0.0568,-2.641632 -0.12778,-3.493778 -0.37636,-4.537642 -0.83794,-3.500879 -2.27947,-6.241921 -4.42403,-8.365084 -2.93277,-2.918572 -6.51886,-3.195511 -10.66585,-0.837932 l -0.95865,0.560993 c -1.46994,-0.01423 -3.16712,-0.09946 -3.52928,-0.198832 -0.27695,-0.17753 -0.88763,-0.511288 -1.34922,-0.745623 -2.83336,-1.406037 -5.418094,-1.562265 -7.690471,-0.447368 -3.010893,1.46993 -5.645425,5.489103 -6.696362,10.246879 -0.305356,1.377621 -0.333758,1.803688 -0.319557,5.226352 0.01423,3.877254 0.09235,4.58736 0.695918,5.780351 0.568053,1.143287 1.413098,1.910225 2.677096,2.393096 0.319556,0.127785 0.653314,0.184631 1.015474,0.184631 2.030936,0 4.715177,-1.910211 7.022972,-5.091534 l 0.6817,-0.930253 11.83043,0 0.68172,0.930253 c 1.7966,2.492505 4.80749,5.134138 6.83843,5.134138 1.54805,0 3.1174,-1.086482 3.90564,-2.698438 0.6036,-1.320816 0.75262,-2.684236 0.6604,-6.603987 z"
     style="fill:#ffffff;fill-opacity:1;fill-rule:nonzero;stroke:none" /><path
     inkscape:connector-curvature="0"
     id="path3542"
     d="m 125.45645,39.854634 c -0.0568,-2.599028 -0.12067,-3.422758 -0.36216,-4.424018 -0.81663,-3.422772 -2.19426,-6.050203 -4.2678,-8.102346 -2.76235,-2.755243 -6.05729,-3.00378 -10.00545,-0.752724 l -1.10066,0.624912 c 0,0 -3.6287,-0.04255 -3.93405,-0.262751 -0.21304,-0.142013 -0.80954,-0.475771 -1.33503,-0.738522 -2.68423,-1.335004 -5.091437,-1.484145 -7.214686,-0.447369 -2.868867,1.406038 -5.382674,5.283171 -6.426551,9.884733 -0.291114,1.320816 -0.31953,1.739768 -0.305315,5.119842 0.01423,3.792019 0.08523,4.431119 0.639072,5.531801 0.504174,1.015475 1.263998,1.682977 2.393083,2.130345 l 0,0 c 1.817902,0.710119 4.8785,-1.242696 7.392237,-4.729373 l 0.85213,-1.164589 12.38433,0 0.85215,1.164589 c 1.98832,2.755256 4.79328,4.906903 6.39105,4.906903 1.3208,0 2.72684,-0.972857 3.40855,-2.393083 0.5965,-1.221407 0.73851,-2.54221 0.6391,-6.34835 z m -22.06321,-4.977909 -1.87471,0 0,1.874694 c 0,0.582307 -0.48999,1.07228 -1.07219,1.07228 -0.58229,0 -1.072262,-0.489973 -1.072262,-1.07228 l 0,-1.874694 -1.874713,0 c -0.582294,0 -1.07228,-0.489986 -1.07228,-1.07228 0,-0.582308 0.489986,-1.07228 1.07228,-1.07228 l 1.874713,0 0,-1.874708 c 0,-0.582294 0.489972,-1.072266 1.072262,-1.072266 0.5822,0 1.07219,0.489972 1.07219,1.072266 l 0,1.874708 1.87471,0 c 0.58229,0 1.07228,0.489972 1.07228,1.07228 -0.0142,0.596495 -0.48999,1.07228 -1.07228,1.07228 z M 117.212,29.011152 c 0.90185,0 1.64037,0.731422 1.64037,1.640373 0,0.90185 -0.73852,1.640373 -1.64037,1.640373 -0.90185,0 -1.64036,-0.738523 -1.64036,-1.640373 0.0142,-0.908951 0.73851,-1.640373 1.64036,-1.640373 z m -5.32578,3.167122 c 0,-0.901851 0.73853,-1.640373 1.64028,-1.640373 0.90895,0 1.64037,0.738522 1.64037,1.640373 0,0.90185 -0.73142,1.640372 -1.64037,1.640372 -0.90175,0 -1.64028,-0.738522 -1.64028,-1.640372 z m 3.40847,5.546015 c -0.90185,0 -1.64038,-0.738522 -1.64038,-1.640372 0,-0.901851 0.73853,-1.640373 1.64038,-1.640373 0.90185,0 1.64037,0.738522 1.64037,1.640373 0,0.90185 -0.73852,1.640372 -1.64037,1.640372 z m 3.45116,-1.640372 c -0.90895,0 -1.64746,-0.738522 -1.64746,-1.640373 0,-0.901837 0.73851,-1.640372 1.64746,-1.640372 0.90185,0 1.64037,0.738535 1.64037,1.640372 0,0.916052 -0.73852,1.640373 -1.64037,1.640373 z"
     style="fill:#808080;fill-opacity:1;fill-rule:nonzero;stroke:none" /><path
     inkscape:connector-curvature="0"
     id="path3544"
     d="m 118.43341,69.4662 0,0 0,0 z"
     style="fill:#d40000;fill-opacity:1;fill-rule:nonzero;stroke:none" /><path
     inkscape:connector-curvature="0"
     id="path3546"
     d="m 118.43341,68.109881 0,0 0,0 z"
     style="fill:#d40000;fill-opacity:1;fill-rule:nonzero;stroke:none" /><path
     inkscape:connector-curvature="0"
     id="path3548"
     d="m 118.43341,66.774863 0,0 0,0 z"
     style="fill:#d40000;fill-opacity:1;fill-rule:nonzero;stroke:none" /><path
     inkscape:connector-curvature="0"
     id="path3550"
     d="m 118.43341,67.442365 0,0 0,0 z"
     style="fill:#d40000;fill-opacity:1;fill-rule:nonzero;stroke:none" /><path
     inkscape:connector-curvature="0"
     id="path3552"
     d="m 118.43341,70.133716 0,0 0,0 z"
     style="fill:#d40000;fill-opacity:1;fill-rule:nonzero;stroke:none" /><path
     inkscape:connector-curvature="0"
     id="path3554"
     d="m 118.43341,68.777383 0,0 0,0 z"
     style="fill:#d40000;fill-opacity:1;fill-rule:nonzero;stroke:none" /><path
     inkscape:connector-curvature="0"
     id="path3556"
     d="m 118.43341,66.107361 0,0 0,0 z"
     style="fill:#d40000;fill-opacity:1;fill-rule:nonzero;stroke:none" /></svg>