<?xml version="1.0" encoding="UTF-8" standalone="no"?>
<!-- Created with Inkscape (http://www.inkscape.org/) -->

<svg
   xmlns:dc="http://purl.org/dc/elements/1.1/"
   xmlns:cc="http://creativecommons.org/ns#"
   xmlns:rdf="http://www.w3.org/1999/02/22-rdf-syntax-ns#"
   xmlns:svg="http://www.w3.org/2000/svg"
   xmlns="http://www.w3.org/2000/svg"
   xmlns:sodipodi="http://sodipodi.sourceforge.net/DTD/sodipodi-0.dtd"
   xmlns:inkscape="http://www.inkscape.org/namespaces/inkscape"
   width="30"
   height="30"
   viewBox="0 0 30 30"
   id="svg3406"
   version="1.1"
   inkscape:version="0.91 r13725"
   sodipodi:docname="icon_empty.svg">
  <defs
     id="defs3408">
    <clipPath
       id="clipPath16"
       clipPathUnits="userSpaceOnUse">
      <path
         id="path18"
         d="m 0,234.464 326.108,0 L 326.108,0 0,0 0,234.464 Z"
         inkscape:connector-curvature="0" />
    </clipPath>
  </defs>
  <sodipodi:namedview
     id="base"
     pagecolor="#ffffff"
     bordercolor="#666666"
     borderopacity="1.0"
     inkscape:pageopacity="0.0"
     inkscape:pageshadow="2"
     inkscape:zoom="22.4"
     inkscape:cx="6.9866073"
     inkscape:cy="12.655896"
     inkscape:document-units="px"
     inkscape:current-layer="layer1"
     showgrid="false"
     units="px"
     inkscape:window-width="1920"
     inkscape:window-height="1027"
     inkscape:window-x="-8"
     inkscape:window-y="-8"
     inkscape:window-maximized="1" />
  <metadata
     id="metadata3411">
    <rdf:RDF>
      <cc:Work
         rdf:about="">
        <dc:format>image/svg+xml</dc:format>
        <dc:type
           rdf:resource="http://purl.org/dc/dcmitype/StillImage" />
        <dc:title />
      </cc:Work>
    </rdf:RDF>
  </metadata>
  <g
     inkscape:label="Calque 1"
     inkscape:groupmode="layer"
     id="layer1"
     transform="translate(0,-1022.3622)">
    <g
       transform="matrix(0.13976559,0,0,-0.13976559,-6.6600493,1058.7972)"
       id="g10">
      <g
         id="g12">
        <g
           clip-path="url(#clipPath16)"
           id="g14">
          <g
             transform="translate(217.8301,140.5262)"
             id="g20">
            <path
               id="path22"
               style="fill:#666666;fill-opacity:1;fill-rule:evenodd;stroke:none"
               d="m 0,0 c 3.052,-0.496 4.746,-0.777 7.086,-1.292 2.695,-0.58 5.353,-1.291 7.955,-2.199 3.154,-1.095 6.188,-2.443 8.836,-4.521 2.106,-1.666 3.744,-3.66 4.549,-6.318 0.72,-2.377 0.3,-4.567 -0.954,-6.627 -1.433,-2.367 -3.558,-4.053 -5.832,-5.541 -2.808,-1.815 -5.85,-3.116 -8.966,-4.268 -0.272,-0.083 -0.562,-0.112 -0.843,-0.187 -0.234,-0.084 -0.459,-0.019 -0.702,0.057 -2.733,0.823 -5.447,1.675 -8.19,2.527 -4.362,1.366 -8.723,2.724 -13.066,4.062 -2.518,0.767 -5.026,1.573 -7.544,2.339 -0.234,0.076 -0.524,0.104 -0.608,0.412 0.102,0.244 0.346,0.272 0.543,0.347 2.789,0.954 5.559,1.928 8.348,2.845 1.966,0.655 3.904,1.386 5.729,2.425 0.842,0.458 1.666,1.01 2.34,1.713 0.196,0.205 0.355,0.402 0.505,0.645 0.403,0.73 0.281,1.432 -0.365,1.984 -0.665,0.552 -1.46,0.824 -2.274,1.03 -1.367,0.318 -2.762,0.44 -4.165,0.496 -3.248,0.075 -6.449,-0.3 -9.632,-0.87 -1.076,-0.206 -2.115,-0.627 -3.136,-0.974 -4.351,-1.525 -8.732,-2.93 -13.093,-4.399 -0.319,-0.103 -0.627,-0.281 -0.983,-0.281 -1.555,0.374 -3.08,0.908 -4.615,1.395 -4.801,1.47 -9.612,2.967 -14.404,4.446 -2.996,0.926 -6.328,1.871 -9.323,2.779 -0.187,0.066 0.113,0.131 0,0.291 -0.009,0.038 -0.028,0.075 0,0.102 0.047,0.075 -0.065,0.066 0,0.094 2.939,0.992 6,2.004 8.967,2.911 4.371,1.319 8.77,2.518 13.244,3.473 2.536,0.543 2.414,0.543 7.628,1.404 C -27.751,1.151 -9.153,1.451 0,0"
               inkscape:connector-curvature="0" />
          </g>
          <g
             transform="translate(92.8682,99.1375)"
             id="g24">
            <path
               id="path26"
               style="fill:#666666;fill-opacity:1;fill-rule:evenodd;stroke:none"
               d="m 0,0 c -4.979,0.243 -10.923,1.319 -16.37,2.143 -4.109,0.627 -8.237,1.292 -12.309,2.19 -3.677,0.814 -7.319,1.751 -10.726,3.397 -1.142,0.553 -2.208,1.208 -3.21,2.013 -2.06,1.685 -2.826,3.838 -2.546,6.468 0.44,4.324 2.705,7.6 5.906,10.305 2.424,2.041 5.157,3.547 8.087,4.726 0.655,0.253 1.264,0.6 1.993,0.684 0.684,0 1.301,-0.29 1.919,-0.487 4.708,-1.507 9.388,-2.976 14.077,-4.474 3.557,-1.132 7.105,-2.246 10.652,-3.388 0.243,-0.075 0.506,-0.122 0.683,-0.328 -0.038,-0.337 -0.346,-0.346 -0.581,-0.411 -1.656,-0.6 -3.303,-1.19 -4.969,-1.788 -1.152,-0.412 -2.359,-0.758 -3.408,-1.423 -0.421,-0.252 -0.813,-0.552 -1.16,-0.936 -1.254,-1.404 -0.982,-3.08 0.496,-4.371 1.564,-1.339 3.473,-1.947 5.504,-2.152 2.573,-0.281 4.97,0.364 7.366,1.207 2.237,0.795 4.474,1.507 6.72,2.265 2.153,0.692 4.287,1.432 6.421,2.162 0.234,0.075 0.478,0.196 0.749,0.177 1.722,-0.551 3.444,-1.104 5.186,-1.647 2.919,-0.936 6.382,-1.881 9.322,-2.808 0.243,-0.084 -0.159,-0.112 0,-0.346 0.027,-3.004 0.074,-6.018 0,-9.041 0.018,-0.037 0.055,-0.057 0,-0.047 0.093,-0.319 0.018,-0.393 0,-0.702 C 27.312,2.732 22.66,1.918 20.235,1.469 20.235,1.469 8.498,-0.281 0,0"
               inkscape:connector-curvature="0" />
          </g>
          <g
             transform="translate(199.5791,118.9422)"
             id="g28">
            <path
               id="path30"
               style="fill:#666666;fill-opacity:1;fill-rule:evenodd;stroke:none"
               d="m 0,0 c 1.048,-0.486 2.199,-0.73 3.285,-1.076 4.708,-1.47 9.425,-2.911 14.133,-4.371 2.312,-0.711 4.605,-1.442 6.917,-2.172 1.909,-0.58 3.828,-1.17 5.747,-1.75 -0.805,-0.299 -1.619,-0.609 -2.424,-0.899 -2.321,-0.814 -4.661,-1.637 -6.982,-2.452 -3.781,-1.319 -7.554,-2.648 -11.335,-3.977 -3.445,-1.217 -6.861,-2.444 -10.286,-3.651 -3.951,-1.394 -7.901,-2.78 -11.85,-4.175 -1.217,-0.439 -2.425,-0.935 -3.687,-1.272 -0.375,-0.066 -0.703,0.094 -1.049,0.178 -3.071,0.992 -6.121,1.965 -9.182,2.93 -5.766,1.853 -12.074,3.668 -17.84,5.494 -0.243,0.084 0.141,0.121 0,0.365 0.009,0.552 0,1.085 0,1.609 0.094,0.235 -0.187,0.243 0,0.319 3.529,1.151 7.422,2.405 10.933,3.585 5.372,1.843 10.717,3.669 16.06,5.494 3.698,1.254 7.385,2.526 11.074,3.79 1.946,0.665 3.902,1.32 5.821,2.004 C -0.449,0.037 -0.216,0.234 0,0"
               inkscape:connector-curvature="0" />
          </g>
          <g
             transform="translate(91.0147,122.3582)"
             id="g32">
            <path
               id="path34"
               style="fill:#666666;fill-opacity:1;fill-rule:evenodd;stroke:none"
               d="m 0,0 c -3.781,1.189 -7.553,2.406 -11.344,3.623 -5.326,1.693 -10.661,3.388 -15.977,5.082 5.41,1.816 10.82,3.65 16.23,5.467 8.442,2.845 16.894,5.699 25.317,8.535 1.639,0.553 3.258,1.104 4.915,1.639 0.215,0.065 0.449,0 0.673,-0.067 3.81,-1.188 8.032,-2.377 11.841,-3.51 0.43,-0.13 0.019,-0.336 0,-0.767 -0.01,-2.892 0.019,-5.756 0,-8.62 -0.047,-0.234 0.196,-0.309 0,-0.374 C 28.285,9.81 24.56,8.593 21.182,7.394 17.194,5.973 13.216,4.531 9.257,3.107 6.374,2.088 3.538,1.059 0.684,0.047 0.477,-0.027 0.253,-0.168 0,0"
               inkscape:connector-curvature="0" />
          </g>
          <g
             transform="translate(155.0264,102.1141)"
             id="g36">
            <path
               id="path38"
               style="fill:#666666;fill-opacity:1;fill-rule:evenodd;stroke:none"
               d="m 0,0 c 9.388,-2.977 18.682,-5.972 28.07,-8.967 -1.357,-0.571 -2.799,-0.992 -4.212,-1.508 -2.949,-1.038 -5.906,-2.068 -8.873,-3.097 -3.894,-1.366 -7.806,-2.724 -11.7,-4.063 C 2.35,-17.971 0.917,-18.299 0,-18.636 l 0,0.197 c -0.112,0.14 0,0.29 0,0.468 0.009,5.962 0,11.914 0,17.867 L 0,0 Z"
               inkscape:connector-curvature="0" />
          </g>
          <g
             transform="translate(122.67,133.6747)"
             id="g40">
            <path
               id="path42"
               style="fill:#666666;fill-opacity:1;fill-rule:evenodd;stroke:none"
               d="m 0,0 c 0.019,2.92 0,5.803 0,8.724 0.019,0.29 0.337,0.43 0,0.551 -2.836,0.843 -5.99,1.733 -8.836,2.621 -1.227,0.384 -2.452,0.749 -3.679,1.133 2.135,0.748 4.296,1.497 6.468,2.228 2.031,0.72 4.006,1.403 6.047,2.105 0.056,0.047 0.019,0.019 0,-0.037 C 0.019,17.213 0,17.082 0,16.988 0.019,11.457 0,5.943 0,0.412 0,0.271 0.019,0.131 0,0 -0.02,-0.027 0.019,-0.027 0,0"
               inkscape:connector-curvature="0" />
          </g>
          <g
             transform="translate(183.3487,124.0623)"
             id="g44">
            <path
               id="path46"
               style="fill:#666666;fill-opacity:1;fill-rule:evenodd;stroke:none"
               d="m 0,0 c -1.591,-0.58 -3.182,-1.142 -4.782,-1.694 -7.891,-2.705 -15.659,-5.391 -23.54,-8.106 -0.01,0.141 0,0.272 0,0.412 l 0,17.812 c 0,0.131 -0.01,0.243 0,0.355 3.585,-1.114 7.057,-2.217 10.641,-3.322 3.052,-0.955 6.113,-1.909 9.155,-2.854 C -5.672,1.722 -2.836,0.852 0,0"
               inkscape:connector-curvature="0" />
          </g>
          <g
             transform="translate(108.1338,116.9861)"
             id="g48">
            <path
               id="path50"
               style="fill:#666666;fill-opacity:1;fill-rule:evenodd;stroke:none"
               d="m 0,0 c 1.778,0.599 3.538,1.227 5.335,1.816 3.107,1.067 6.094,2.087 9.201,3.117 0.019,-1.816 0,-3.641 0,-5.457 0.019,-1.395 0.019,-2.77 0,-4.147 -2.846,0.908 -5.56,1.798 -8.415,2.705 C 4.09,-1.319 2.031,-0.664 0,0"
               inkscape:connector-curvature="0" />
          </g>
          <g
             transform="translate(122.67,112.2967)"
             id="g52">
            <path
               id="path54"
               style="fill:#666666;fill-opacity:1;fill-rule:evenodd;stroke:none"
               d="m 0,0 c -0.02,3.22 -0.02,6.44 0,9.65 -0.038,3.388 0.019,6.795 0,10.184 0,0.505 -0.038,1.02 0,1.517 0.027,5.503 -0.01,10.978 0,16.472 0.019,0.309 -0.141,0.617 0,0.899 0.027,0.224 0,0.449 0,0.673 0.019,27.359 0.131,54.727 0.131,82.086 0,0.187 -0.01,0.346 0.009,0.514 0.019,0.15 0.103,0.216 0.244,0.141 1.375,-0.374 2.723,-0.758 4.08,-1.123 3.866,-1.03 7.722,-2.059 11.588,-3.071 3.528,-0.945 7.076,-1.852 10.604,-2.789 4.155,-1.094 8.293,-2.209 12.448,-3.285 3.351,-0.87 6.684,-1.844 9.941,-2.976 5.682,-2.022 11.129,-4.53 16.117,-7.918 2.668,-1.817 5.167,-3.847 7.385,-6.206 2.34,-2.443 4.324,-5.148 5.953,-8.162 1.77,-3.285 2.948,-6.786 3.716,-10.445 0.318,-1.47 0.477,-2.967 0.665,-4.465 0.084,-0.215 -0.01,-0.439 0.084,-0.664 0,-0.253 0.009,-0.506 0.018,-0.777 0.103,-0.319 -0.018,-0.637 0.076,-0.974 l 0,-4.624 c -0.094,-0.421 0.027,-0.851 -0.076,-1.281 -0.009,-0.291 -0.018,-0.59 -0.018,-0.881 -0.113,-0.28 0.009,-0.589 -0.084,-0.86 -0.01,-0.216 -0.01,-0.459 -0.029,-0.675 -0.084,-0.205 0.019,-0.449 -0.056,-0.654 -0.019,-0.169 -0.028,-0.319 -0.037,-0.469 -0.094,-0.187 0,-0.374 -0.084,-0.57 0,-0.122 -0.01,-0.253 -0.01,-0.394 -0.112,-0.149 0,-0.355 -0.094,-0.524 -0.365,-2.49 -0.767,-4.97 -1.441,-7.413 -0.917,-3.266 -2.199,-6.383 -4.127,-9.201 -2.182,-3.181 -5.018,-5.615 -8.546,-7.187 -2.34,-1.021 -4.82,-1.545 -7.366,-1.798 -0.215,-0.075 -0.459,0.018 -0.664,-0.066 -0.375,-0.009 -0.712,-0.028 -1.077,-0.037 -0.683,-0.056 -1.376,-0.056 -2.059,0 -0.365,0.009 -0.73,0.028 -1.096,0.037 -0.28,0.084 -0.58,-0.028 -0.86,0.066 -0.151,0.01 -0.318,0.018 -0.469,0.018 -0.178,0.104 -0.374,0 -0.552,0.086 -1.329,0.074 -2.676,0.289 -3.968,0.561 -1.554,0.318 -3.126,0.608 -4.633,1.123 -0.262,0.074 -0.525,0.131 -0.796,0.196 -0.141,0.038 -0.206,0.122 -0.206,0.253 l 0,0.468 0,54.212 c 0,0.215 0.047,0.449 -0.037,0.655 -0.169,1.76 -1.189,2.948 -2.658,3.773 -0.974,0.533 -2.05,0.851 -3.164,0.935 -0.552,0.056 -1.085,0.056 -1.62,0 -1.796,-0.169 -3.378,-0.711 -4.389,-2.331 -0.252,-0.411 -0.421,-0.86 -0.411,-1.329 -0.104,-0.523 -0.039,-1.048 -0.047,-1.591 -0.029,-1.553 0.047,-3.144 -0.029,-4.726 -0.009,-1.956 -0.028,-3.931 -0.037,-5.897 l 0.037,-58.452 c 0.029,-0.057 -0.009,-0.121 0,-0.178 0.029,-0.206 0,-0.43 0,-0.627 l 0,-17.278 0,-0.665 c 0.029,-3.481 0.029,-6.973 0,-10.435 0.029,-0.562 0.029,-1.124 0,-1.704 0.029,-4.371 -0.009,-8.705 0,-13.066 l 0,-4.783 0,-0.59 0,-0.196 c -2.162,0.729 -5.063,1.45 -7.254,2.162 -2.377,0.786 -4.754,1.553 -7.141,2.321 -2.846,0.917 -5.682,1.834 -8.508,2.779 -2.762,0.89 -6.702,1.77 -9.453,2.668 L 0,-18.063 0,0 Z"
               inkscape:connector-curvature="0" />
          </g>
          <g
             transform="translate(11.625,37.409)"
             id="g56" />
          <g
             transform="translate(263.3848,37.4754)"
             id="g60" />
          <g
             transform="translate(90.3594,0.0829)"
             id="g64" />
          <g
             transform="translate(197.3418,42.1082)"
             id="g68" />
          <g
             transform="translate(73.503,23.7254)"
             id="g72" />
          <g
             transform="translate(125.6368,18.868)"
             id="g76" />
          <g
             transform="translate(326.0948,18.6805)"
             id="g80" />
          <g
             transform="translate(218.2793,62.5223)"
             id="g84" />
          <g
             transform="translate(159.5284,62.5594)"
             id="g88" />
        </g>
      </g>
    </g>
  </g>
</svg>
