<?xml version="1.0" encoding="UTF-8" standalone="no"?>
<svg
   xmlns:dc="http://purl.org/dc/elements/1.1/"
   xmlns:cc="http://creativecommons.org/ns#"
   xmlns:rdf="http://www.w3.org/1999/02/22-rdf-syntax-ns#"
   xmlns:svg="http://www.w3.org/2000/svg"
   xmlns="http://www.w3.org/2000/svg"
   viewBox="0 0 446.35501 229.13875"
   height="229.13875"
   width="446.35501"
   xml:space="preserve"
   version="1.1"
   id="svg2"><metadata
     id="metadata8"><rdf:RDF><cc:Work
         rdf:about=""><dc:format>image/svg+xml</dc:format><dc:type
           rdf:resource="http://purl.org/dc/dcmitype/StillImage" /><dc:title></dc:title></cc:Work></rdf:RDF></metadata><defs
     id="defs6"><clipPath
       id="clipPath16"
       clipPathUnits="userSpaceOnUse"><path
         id="path18"
         d="m 0,183.311 357.084,0 L 357.084,0 0,0 0,183.311 Z" /></clipPath></defs><g
     transform="matrix(1.25,0,0,-1.25,0,229.13875)"
     id="g10"><g
       id="g12"><g
         clip-path="url(#clipPath16)"
         id="g14"><g
           transform="translate(185.3952,93.9859)"
           id="g20"><path
             id="path22"
             style="fill:#e8222e;fill-opacity:1;fill-rule:nonzero;stroke:none"
             d="M 0,0 0.008,-0.09 C 0.095,-0.235 0.18,-0.378 0.267,-0.523 L 0.27,-0.619 c 0.087,-0.145 0.174,-0.288 0.261,-0.433 0,0 0.003,-0.095 0.006,-0.095 0.008,-0.291 0.076,-0.555 0.341,-0.724 0.063,-0.133 0.129,-0.262 0.193,-0.389 -0.003,0 -0.03,-0.093 -0.03,-0.093 l 0.096,-0.039 c 0.058,-0.114 0.116,-0.228 0.174,-0.341 0.011,-0.415 0.201,-0.732 0.539,-0.968 1.983,-4.02 3.942,-8.051 5.95,-12.056 7.029,-13.999 14.055,-27.998 21.142,-41.968 0.613,-1.213 0.555,-1.792 -0.79,-2.149 -0.5,-0.13 -0.947,-0.444 -1.42,-0.677 -0.137,-0.082 -0.275,-0.166 -0.412,-0.251 -0.117,-0.032 -0.233,-0.063 -0.349,-0.093 -1.946,-0.819 -3.891,-1.636 -5.834,-2.455 -1.634,-0.69 -1.636,-0.693 -2.413,0.891 -11.679,23.803 -23.352,47.606 -35.038,71.404 -2.461,5.017 -4.961,10.016 -7.446,15.022 -0.045,0.167 -0.069,0.346 -0.143,0.5 -1.097,2.315 -1.1,2.318 1.264,3.441 10.695,5.083 21.403,10.14 32.079,15.263 3.249,1.56 6.315,3.484 9.81,4.533 C 37.26,53.406 57.557,41.45 60.247,21.715 62.454,5.524 54.025,-4.795 54.001,-5.112 l -0.003,-0.003 c -0.132,-0.108 -0.293,-0.195 -0.396,-0.33 -5.271,-6.804 -12.207,-11.301 -20.048,-14.578 -1.009,-0.421 -1.686,-0.275 -2.463,0.42 -1.412,1.261 -2.897,2.435 -4.356,3.64 C 19.381,-9.881 12.03,-3.791 4.655,2.268 3.902,2.889 3.677,3.434 4.042,4.393 c 1.128,2.958 2.178,5.948 3.209,8.943 1.131,3.28 2.458,6.492 3.391,9.841 0.04,0.074 1.821,4.816 1.821,4.816 0.098,0.074 0.193,0.151 0.288,0.225 5.184,0 20.449,0.156 22.897,0.132 0.526,-0.008 1.065,0.098 1.441,-0.407 0.002,-0.273 0.01,-9.292 -0.003,-11.433 -1.486,-0.058 -2.971,-0.158 -4.459,-0.169 -3.458,-0.024 -6.918,-0.008 -10.375,-0.008 -0.574,0 -1.153,0.066 -1.338,-0.714 C 20.592,14.261 20.224,12.91 19.878,11.557 19.706,11.409 18.556,6.968 18.205,6.024 17.89,5.173 18.136,4.663 18.868,4.153 c 4.293,-2.998 8.549,-6.043 12.823,-9.059 3.019,-2.131 3.061,-2.162 5.81,0.241 2.717,2.376 8.401,10.459 8.377,10.517 l 0,0.003 c 0.169,0.248 0.372,0.481 0.505,0.751 3.7,7.48 2.606,14.607 -1.682,21.448 -3.692,5.894 -9.098,8.784 -16.029,8.76 C 23.74,36.798 19.098,35.484 14.718,33.266 7.29,29.51 -0.137,25.757 -7.526,21.921 c -3.544,-1.837 -3.082,-0.785 -1.366,-4.486 0.034,-0.076 0.119,-0.124 0.182,-0.187 L 0,0 Z" /></g><g
           transform="translate(160.636,117.9525)"
           id="g24"><path
             id="path26"
             style="fill:#271c1c;fill-opacity:1;fill-rule:nonzero;stroke:none"
             d="m 0,0 c 2.483,-5.006 4.984,-10.004 7.446,-15.021 11.684,-23.798 23.358,-47.603 35.036,-71.404 0.778,-1.585 0.781,-1.582 2.414,-0.893 1.944,0.82 3.889,1.638 5.834,2.456 -0.022,-0.798 0.469,-1.407 0.793,-2.07 0.332,-0.682 0.299,-1.071 -0.513,-1.41 -3.04,-1.268 -6.057,-2.593 -9.057,-3.954 -0.908,-0.412 -1.251,-0.02 -1.607,0.718 -3.004,6.214 -6.016,12.424 -9.053,18.622 -1.76,3.593 -3.594,7.149 -5.352,10.742 -2.858,5.843 -5.662,11.713 -8.526,17.554 -2.071,4.224 -4.223,8.408 -6.301,12.629 -4.483,9.107 -8.945,18.223 -13.408,27.339 -1.302,2.66 -1.289,2.663 1.288,4.07 C -0.661,-0.434 -0.335,-0.208 0,0" /></g><g
           transform="translate(248.9404,134.6202)"
           id="g28"><path
             id="path30"
             style="fill:#489fdc;fill-opacity:1;fill-rule:nonzero;stroke:none"
             d="m 0,0 c -0.471,0.721 -0.602,1.264 0.22,1.983 6.994,6.117 13.951,12.276 20.875,18.472 0.901,0.806 1.247,0.627 1.806,-0.307 C 24.959,16.71 27.068,13.302 29.214,9.919 29.711,9.135 29.653,8.725 28.828,8.286 27.979,7.834 27.202,7.246 26.393,6.718 19.551,2.491 12.69,-1.708 5.884,-5.992 4.776,-6.689 4.292,-6.516 3.652,-5.465 2.514,-3.596 1.226,-1.817 0,0" /></g><g
           transform="translate(225.6397,182.6081)"
           id="g32"><path
             id="path34"
             style="fill:#e8222e;fill-opacity:1;fill-rule:nonzero;stroke:none"
             d="M 0,0 C 0.188,-0.029 0.377,-0.058 0.565,-0.087 0.878,-0.32 1.22,-0.359 1.585,-0.235 1.775,-0.27 1.966,-0.305 2.156,-0.34 2.642,-0.635 3.164,-0.645 3.702,-0.541 3.888,-0.572 4.074,-0.603 4.26,-0.635 4.575,-0.873 4.921,-0.894 5.287,-0.781 5.475,-0.816 5.662,-0.851 5.85,-0.886 6.255,-1.139 6.688,-1.146 7.135,-1.038 7.325,-1.072 7.514,-1.106 7.703,-1.14 8.228,-1.619 7.887,-2.119 7.716,-2.595 7.104,-4.291 6.471,-5.98 5.847,-7.672 3.048,-15.266 0.248,-22.859 -2.549,-30.454 c -0.245,-0.667 -0.411,-1.389 -1.409,-1.177 -2.021,0.431 -4.045,0.849 -6.073,1.247 -0.67,0.131 -0.824,0.466 -0.723,1.12 0.917,5.953 1.813,11.909 2.702,17.866 0.44,2.949 0.852,5.903 1.277,8.854 0.034,0.189 0.068,0.378 0.102,0.566 0.236,0.313 0.274,0.655 0.152,1.021 0.031,0.192 0.062,0.383 0.092,0.574 0.18,1.041 0.771,1.277 1.728,0.946 C -4.399,0.458 -4.035,0.528 -3.7,0.517 -3.512,0.49 -3.325,0.463 -3.138,0.436 -2.819,0.215 -2.478,0.18 -2.116,0.313 -1.84,0.264 -1.564,0.215 -1.289,0.166 -0.886,-0.098 -0.452,-0.119 0,0" /></g><g
           transform="translate(234.6807,147.0463)"
           id="g36"><path
             id="path38"
             style="fill:#30ac46;fill-opacity:1;fill-rule:nonzero;stroke:none"
             d="m 0,0 c -0.229,0.639 0.186,1.105 0.465,1.583 4.805,8.208 9.629,16.403 14.42,24.619 0.473,0.811 0.814,1.051 1.686,0.426 2.97,-2.128 5.99,-4.188 9.02,-6.231 0.712,-0.48 0.873,-0.833 0.246,-1.525 C 24.984,17.931 24.233,16.897 23.439,15.903 23.085,15.515 22.715,15.14 22.378,14.738 17.41,8.803 12.434,2.874 7.498,-3.087 6.893,-3.818 6.423,-3.92 5.63,-3.414 3.779,-2.236 1.88,-1.133 0,0" /></g><g
           transform="translate(24.2627,40.379)"
           id="g40"><path
             id="path42"
             style="fill:#f0efef;fill-opacity:1;fill-rule:nonzero;stroke:none"
             d="m 0,0 c 0.003,-0.878 -0.177,-1.195 -1.142,-1.237 -1.404,-0.058 -2.281,0.333 -3.111,1.581 -5.239,7.885 -10.589,15.698 -15.908,23.531 -0.317,0.465 -0.547,1.007 -1.044,1.319 -0.418,-0.177 -0.264,-0.521 -0.262,-0.809 0.053,-8.015 0.093,-16.029 0.196,-24.044 0.013,-1.166 -0.235,-1.565 -1.499,-1.594 -1.387,-0.032 -1.432,0.592 -1.427,1.644 0.026,9.514 0.008,19.027 0.034,28.543 0.003,0.523 -0.425,1.467 0.471,1.517 0.951,0.056 2.096,0.59 2.878,-0.6 1.549,-2.355 3.154,-4.673 4.735,-7.007 4.102,-6.051 8.199,-12.104 12.31,-18.149 0.232,-0.341 0.356,-0.812 1.017,-0.963 0,2.268 0.016,4.483 -0.005,6.701 -0.056,6.297 -0.085,12.593 -0.219,18.89 -0.032,1.366 0.711,1.189 1.559,1.21 0.87,0.021 1.441,0.037 1.433,-1.2 C -0.042,19.555 -0.026,9.778 0,0" /></g><g
           transform="translate(231.7778,100.5916)"
           id="g44"><path
             id="path46"
             style="fill:#271c1c;fill-opacity:1;fill-rule:nonzero;stroke:none"
             d="m 0,0 c -0.132,-0.27 -0.336,-0.502 -0.505,-0.751 -0.008,0.394 -0.09,0.801 -0.016,1.177 0.452,2.294 0.661,4.578 0.214,6.909 -1.038,5.422 -3.378,10.124 -7.462,13.899 -0.042,0.04 -0.084,0.077 -0.127,0.114 -0.01,0.01 -0.021,0.021 -0.031,0.029 -0.135,0.116 -0.273,0.222 -0.413,0.288 l -1.435,1.02 c -0.021,0.037 -0.053,0.071 -0.09,0.098 -0.003,0.005 -0.005,0.005 -0.008,0.005 -0.061,0.05 -0.135,0.087 -0.211,0.119 -0.006,0.005 -0.008,0.005 -0.011,0.005 l -0.003,0.003 c -0.095,0.042 -0.19,0.082 -0.269,0.127 -2.702,1.594 -5.649,2.387 -8.76,2.501 -4.837,0.177 -9.373,-1.145 -13.796,-2.958 -0.454,-0.185 -1.504,-0.791 -1.956,-1.021 -6.317,-3.251 -12.651,-6.471 -18.982,-9.695 -0.544,-0.278 -1.168,-0.471 -1.231,-1.227 -0.064,0.064 -0.148,0.111 -0.183,0.188 -1.715,3.7 -2.178,2.648 1.367,4.485 7.388,3.836 14.816,7.589 22.243,11.346 4.38,2.217 9.022,3.531 13.955,3.547 6.93,0.024 12.336,-2.865 16.029,-8.76 C 2.606,14.607 3.701,7.481 0,0" /></g><g
           transform="translate(121.4476,44.2092)"
           id="g48"><path
             id="path50"
             style="fill:#f0efef;fill-opacity:1;fill-rule:nonzero;stroke:none"
             d="m 0,0 c 0.003,-0.545 -0.026,-1.015 -0.558,-1.375 -5.879,-3.965 -12.228,-5.543 -19.032,-3.042 -5.828,2.144 -8.945,6.619 -9.423,12.836 -0.225,2.916 -0.061,5.821 0.861,8.62 2.554,7.753 9.218,10.806 16.836,10.066 5.014,-0.487 8.736,-2.792 10.51,-7.719 0.201,-0.555 0.444,-1.218 -0.465,-1.261 -0.778,-0.034 -1.74,-1.356 -2.337,0.106 -1.948,4.785 -5.556,6.82 -10.597,6.611 -4.853,-0.203 -8.351,-2.485 -10.418,-6.873 -2.606,-5.535 -1.625,-13.489 2.096,-17.43 3.606,-3.817 8.089,-4.269 12.911,-3.314 2.141,0.425 4.078,1.356 5.907,2.537 0.579,0.375 0.828,0.82 0.812,1.52 -0.04,1.935 -0.053,3.875 0.005,5.81 0.024,0.894 -0.314,1.126 -1.152,1.113 -2.599,-0.042 -5.2,0.042 -7.793,-0.042 -1.115,-0.037 -1.187,0.47 -1.176,1.34 0.01,0.843 0.018,1.417 1.158,1.356 1.8,-0.098 3.61,-0.027 5.416,-0.027 1.76,0 3.523,-0.05 5.281,0.019 C -0.206,10.888 0.026,10.542 0.013,9.64 -0.032,6.429 -0.008,3.214 0,0" /></g><g
           transform="translate(177.341,45.2005)"
           id="g52"><path
             id="path54"
             style="fill:#f0efef;fill-opacity:1;fill-rule:nonzero;stroke:none"
             d="m 0,0 c -4.451,-5.802 -13.386,-5.644 -17.644,0.291 -3.682,5.13 -3.527,14.213 0.103,19.375 4.039,5.742 15.326,6.255 19.072,-2.392 C 2.567,14.882 2.968,12.389 2.95,9.807 2.958,6.238 2.212,2.887 0,0 m 6.003,11.652 c -0.531,7.589 -4.837,13.706 -12.876,14.48 -6.991,0.671 -12.973,-2.231 -15.527,-9.5 -0.766,-2.184 -1.049,-4.452 -0.946,-6.759 0,-0.748 -0.055,-1.502 0.008,-2.244 0.597,-7.045 4.734,-13.265 12.717,-14.071 7.518,-0.758 13.663,2.641 15.887,10.243 0.75,2.572 0.922,5.202 0.737,7.851" /></g><g
           transform="translate(237.0143,45.9776)"
           id="g56"><path
             id="path58"
             style="fill:#f0efef;fill-opacity:1;fill-rule:nonzero;stroke:none"
             d="m 0,0 c -4.237,-6.592 -13.878,-6.743 -18.329,-0.296 -3.492,5.059 -3.447,13.888 0.095,18.926 4.359,6.204 14.039,6.003 18.237,-0.378 C 1.631,15.775 2.376,12.886 2.376,9.059 2.456,5.81 1.774,2.757 0,0 m 5.48,10.478 c -0.561,8.62 -5.068,13.952 -12.905,14.848 -7.822,0.896 -13.809,-3.029 -15.858,-10.613 -0.925,-3.418 -0.991,-6.894 -0.232,-10.336 1.181,-5.35 4.039,-9.463 9.511,-10.996 5.461,-1.53 10.705,-0.967 15.001,3.201 3.486,3.386 4.438,7.782 4.488,12.445 0,0.484 0.026,0.967 -0.005,1.451" /></g><g
           transform="translate(82.0117,46.2313)"
           id="g60"><path
             id="path62"
             style="fill:#f0efef;fill-opacity:1;fill-rule:nonzero;stroke:none"
             d="m 0,0 c -4.351,-7.105 -14.771,-7.14 -18.85,0.116 -3.222,5.734 -3.201,11.816 0.048,17.539 3.936,6.936 14.218,7.042 18.62,0.373 1.834,-2.784 2.455,-5.9 2.4,-9.289 C 2.3,5.688 1.66,2.709 0,0 m 5.318,10.256 c -0.576,8.573 -5.022,13.857 -12.804,14.8 -7.859,0.954 -13.925,-3.003 -15.966,-10.626 -0.917,-3.423 -0.983,-6.899 -0.216,-10.338 1.189,-5.348 4.057,-9.455 9.531,-10.975 5.467,-1.518 10.709,-0.947 14.993,3.235 3.479,3.392 4.42,7.79 4.523,12.575 -0.016,0.362 -0.026,0.845 -0.061,1.329" /></g><g
           transform="translate(196.0377,117.1614)"
           id="g64"><path
             id="path66"
             style="fill:#271c1c;fill-opacity:1;fill-rule:nonzero;stroke:none"
             d="m 0,0 c -0.934,-3.348 -2.26,-6.561 -3.391,-9.84 -1.032,-2.994 -2.082,-5.984 -3.209,-8.943 -0.365,-0.959 -0.141,-1.504 0.613,-2.124 7.375,-6.059 14.725,-12.15 22.08,-18.233 1.458,-1.205 2.944,-2.379 4.354,-3.638 0.779,-0.694 1.456,-0.842 2.466,-0.42 7.84,3.277 14.776,7.774 20.046,14.578 0.103,0.133 0.264,0.221 0.398,0.331 0.062,-0.648 -0.197,-1.178 -0.528,-1.724 -4.096,-6.765 -9.899,-11.652 -16.842,-15.263 -1.829,-0.952 -3.623,-1.99 -5.613,-2.617 -0.773,-0.244 -1.372,-0.253 -2.054,0.318 -3.929,3.29 -7.898,6.532 -11.856,9.787 -3.213,2.644 -6.432,5.28 -9.644,7.925 -1.793,1.476 -3.567,2.973 -5.368,4.438 -0.645,0.525 -0.739,1.077 -0.426,1.845 2.713,6.67 4.926,13.525 7.439,20.269 0.29,0.777 0.514,1.579 0.758,2.373 C -0.646,-0.513 -0.555,-0.068 0,0" /></g><g
           transform="translate(53.1649,40.4742)"
           id="g68"><path
             id="path70"
             style="fill:#f0efef;fill-opacity:1;fill-rule:nonzero;stroke:none"
             d="m 0,0 c -0.016,-1.044 -0.299,-1.327 -1.345,-1.316 -6.075,0.05 -12.149,0.055 -18.224,-0.006 -1.16,-0.01 -1.366,0.392 -1.356,1.438 0.051,4.843 0.021,9.685 0.021,14.528 0,4.843 0.027,9.685 -0.018,14.528 -0.011,0.962 0.219,1.287 1.24,1.279 5.942,-0.047 11.887,-0.063 17.829,0.008 1.219,0.016 1.184,-0.544 1.221,-1.419 0.04,-0.952 -0.185,-1.293 -1.224,-1.282 -4.929,0.058 -9.859,-0.006 -14.789,0.05 -1.057,0.013 -1.348,-0.309 -1.324,-1.335 0.06,-2.905 0.074,-5.813 -0.008,-8.715 -0.032,-1.153 0.386,-1.375 1.438,-1.361 4.443,0.05 8.892,-0.024 13.338,0.052 1.142,0.019 1.256,-0.422 1.277,-1.371 0.023,-1.026 -0.249,-1.346 -1.317,-1.33 -4.491,0.063 -8.982,-0.003 -13.47,0.05 -0.999,0.011 -1.274,-0.291 -1.258,-1.269 0.055,-3.301 0.063,-6.605 -0.006,-9.904 -0.023,-1.092 0.376,-1.303 1.367,-1.295 5.062,0.045 10.127,-0.011 15.189,0.045 C -0.338,1.388 0.016,1.126 0,0" /></g><g
           transform="translate(306.3358,39.1974)"
           id="g72"><path
             id="path74"
             style="fill:#f0efef;fill-opacity:1;fill-rule:nonzero;stroke:none"
             d="m 0,0 c -1.338,0 -2.413,-0.024 -3.487,0.008 -0.623,0.018 -0.827,0.611 -1.134,1.015 -3.764,4.935 -7.536,9.865 -11.252,14.834 -0.664,0.889 -1.095,1.005 -1.906,0.191 -1.242,-1.245 -2.569,-2.408 -3.918,-3.54 -0.642,-0.542 -0.843,-1.136 -0.832,-1.948 0.037,-3.169 -0.04,-6.341 0.045,-9.508 0.032,-1.229 -0.669,-1.113 -1.417,-1.06 -0.69,0.05 -1.597,-0.404 -1.591,1.012 0.045,9.908 0.042,19.815 0.002,29.719 -0.005,1.317 0.83,0.968 1.496,0.965 0.661,-0.002 1.52,0.362 1.502,-0.959 -0.056,-4.666 -0.029,-9.334 -0.011,-14.002 0.003,-0.399 -0.264,-0.973 0.249,-1.171 0.399,-0.153 0.65,0.36 0.925,0.613 5.054,4.653 10.187,9.223 15.091,14.026 1.649,1.615 3.325,1.575 5.625,1.422 -2.961,-2.694 -5.66,-5.147 -8.358,-7.597 -1.629,-1.48 -3.223,-3.005 -4.907,-4.417 -0.816,-0.685 -0.742,-1.145 -0.126,-1.911 C -9.619,12.236 -5.276,6.748 -0.923,1.266 -0.661,0.936 -0.423,0.582 0,0" /></g><g
           transform="translate(149.237,40.5138)"
           id="g76"><path
             id="path78"
             style="fill:#f0efef;fill-opacity:1;fill-rule:nonzero;stroke:none"
             d="m 0,0 c -0.016,-1.004 -0.23,-1.367 -1.319,-1.356 -6.122,0.053 -12.247,0.048 -18.369,0.003 -0.996,-0.008 -1.263,0.269 -1.253,1.253 0.048,4.89 0.022,9.78 0.022,14.67 0,4.845 0.018,9.691 -0.016,14.536 -0.008,0.906 0.124,1.319 1.197,1.308 5.948,-0.055 11.895,-0.058 17.843,0 1.089,0.011 1.189,-0.425 1.197,-1.316 0.011,-0.952 -0.129,-1.398 -1.269,-1.383 -4.89,0.069 -9.78,0.006 -14.67,0.051 -1.007,0.01 -1.38,-0.207 -1.351,-1.301 0.082,-2.992 0.058,-5.99 0.011,-8.985 -0.014,-0.872 0.256,-1.128 1.123,-1.12 4.536,0.037 9.075,-0.027 13.611,0.047 1.165,0.019 1.247,-0.473 1.26,-1.398 0.014,-0.933 -0.174,-1.314 -1.226,-1.298 -4.449,0.061 -8.9,-0.005 -13.349,0.048 -1.047,0.013 -1.459,-0.199 -1.43,-1.356 0.082,-3.257 0.069,-6.519 0.005,-9.778 -0.021,-1.028 0.238,-1.354 1.314,-1.34 C -11.562,1.343 -6.45,1.282 -1.34,1.335 -0.291,1.345 0.013,1.049 0,0" /></g><g
           transform="translate(331.4633,40.5403)"
           id="g80"><path
             id="path82"
             style="fill:#f0efef;fill-opacity:1;fill-rule:nonzero;stroke:none"
             d="m 0,0 c -0.037,-0.925 -0.108,-1.398 -1.264,-1.388 -6.119,0.064 -12.241,0.056 -18.36,0.006 -1.076,-0.008 -1.322,0.325 -1.311,1.348 0.05,4.842 0.021,9.687 0.021,14.53 0,4.888 0.021,9.775 -0.016,14.663 -0.008,0.885 0.198,1.229 1.163,1.221 5.987,-0.04 11.974,-0.048 17.964,0.005 1.132,0.011 1.14,-0.523 1.161,-1.366 0.021,-0.912 -0.132,-1.338 -1.206,-1.325 -4.93,0.056 -9.862,0 -14.795,0.045 -1.015,0.011 -1.379,-0.238 -1.353,-1.319 0.074,-2.947 0.069,-5.9 0.003,-8.847 -0.024,-1.028 0.343,-1.25 1.295,-1.242 4.491,0.044 8.982,-0.016 13.473,0.047 1.071,0.013 1.338,-0.309 1.324,-1.337 -0.013,-0.984 -0.19,-1.378 -1.3,-1.359 -4.491,0.066 -8.982,-0.005 -13.473,0.05 -1.068,0.016 -1.338,-0.328 -1.319,-1.353 0.061,-3.257 0.063,-6.516 0,-9.773 -0.021,-1.039 0.272,-1.356 1.327,-1.345 5.107,0.05 10.216,-0.003 15.323,0.045 C -0.328,1.316 0.045,1.071 0,0" /></g><g
           transform="translate(274.4201,47.6059)"
           id="g84"><path
             id="path86"
             style="fill:#f0efef;fill-opacity:1;fill-rule:nonzero;stroke:none"
             d="m 0,0 c -2.276,-5.963 -6.5,-8.956 -12.64,-8.953 -6.63,0.005 -11.158,3.138 -13.209,9.484 -2.115,6.553 -1.695,12.823 2.654,18.527 4.879,6.403 18.651,7.423 22.873,-3.341 0.198,-0.507 0.674,-1.21 -0.281,-1.306 -0.779,-0.074 -1.773,-1.348 -2.418,0.241 -1.364,3.357 -3.463,5.974 -7.259,6.608 -4.34,0.725 -8.038,-0.473 -10.732,-4.092 -2.834,-3.806 -3.235,-8.183 -2.752,-12.719 0.31,-2.903 1.166,-5.607 3.26,-7.766 5.223,-5.398 13.83,-4.082 17.179,2.627 0.333,0.669 0.66,1.359 0.84,2.078 0.22,0.888 0.682,0.941 1.444,0.729 C 0.634,1.657 0.64,1.684 0,0" /></g><g
           transform="translate(344.3321,53.8469)"
           id="g88"><path
             id="path90"
             style="fill:#f0efef;fill-opacity:1;fill-rule:nonzero;stroke:none"
             d="m 0,0 c 0,4.313 -0.054,8.628 0.033,12.939 0.026,1.273 -0.391,1.54 -1.559,1.499 -2.373,-0.085 -4.754,0.034 -7.128,-0.05 -1.217,-0.043 -1.045,0.676 -1.086,1.429 -0.046,0.841 0.111,1.265 1.123,1.258 6.778,-0.042 13.557,-0.049 20.334,0.005 1.15,0.009 1.04,-0.609 1.025,-1.332 -0.014,-0.687 0.191,-1.4 -0.995,-1.361 C 9.241,14.47 6.729,14.367 4.222,14.434 3.207,14.462 2.973,14.104 2.976,13.145 3.009,4.343 2.999,-4.46 2.984,-13.263 2.983,-13.709 3.258,-14.39 2.7,-14.562 1.915,-14.806 1.027,-14.8 0.234,-14.553 -0.179,-14.424 0.007,-13.846 0.006,-13.468 -0.003,-8.979 0,-4.489 0,0" /></g><g
           transform="translate(257.7275,10.9111)"
           id="g92"><path
             id="path94"
             style="fill:#e8222e;fill-opacity:1;fill-rule:nonzero;stroke:none"
             d="m 0,0 c -1.007,-0.074 -2.025,-0.013 -3.037,-0.013 l 0,-0.021 c -0.925,0 -1.853,0.031 -2.776,-0.008 -0.761,-0.035 -1.139,0.198 -1.115,1.036 0.045,1.451 0.034,2.908 0.002,4.359 -0.015,0.737 0.27,1.02 1.01,1.007 1.938,-0.032 3.878,0.037 5.813,-0.032 C 1.961,6.257 3.106,5.12 3.143,3.262 3.183,1.219 2.194,0.159 0,0 M 6.093,-9.717 C 4.914,-7.015 4.644,-3.846 1.877,-1.8 2.165,-1.615 2.3,-1.509 2.45,-1.435 4.972,-0.198 5.984,1.586 5.622,4.158 5.284,6.561 3.912,7.869 1.015,8.25 -2.133,8.665 -5.31,8.34 -8.475,8.427 -9.381,8.451 -9.275,7.83 -9.278,7.259 c 0,-5.454 0.018,-10.909 -0.016,-16.365 -0.008,-0.907 0.246,-1.214 1.184,-1.229 1.002,-0.014 1.338,0.309 1.251,1.29 -0.074,0.83 -0.048,1.67 -0.008,2.505 0.066,1.351 -0.582,3.077 0.269,3.952 0.915,0.944 2.673,0.286 4.058,0.312 2.281,0.042 3.706,-0.991 4.509,-3.143 0.479,-1.277 0.904,-2.572 1.362,-3.856 0.311,-0.873 1.781,-1.428 2.569,-0.986 0.235,0.132 0.293,0.319 0.193,0.544" /></g><g
           transform="translate(229.153,2.3863)"
           id="g96"><path
             id="path98"
             style="fill:#e8222e;fill-opacity:1;fill-rule:nonzero;stroke:none"
             d="m 0,0 c -3.027,0.111 -5.379,2.424 -5.866,5.792 -0.087,0.608 -0.103,1.226 -0.126,1.527 0.005,1.832 0.222,3.307 0.962,4.653 1.311,2.379 3.375,3.354 6.037,3.201 C 3.45,15.033 5.128,13.777 6.14,11.607 7.074,9.614 7.129,7.499 6.722,5.395 6.032,1.816 3.55,-0.127 0,0 m 0.568,17.227 c -5.429,0.005 -9.077,-3.873 -9.077,-9.643 0,-5.694 3.672,-9.635 8.972,-9.635 5.363,0 8.966,3.851 8.979,9.592 0.013,5.797 -3.545,9.678 -8.874,9.686" /></g><g
           transform="translate(200.2693,10.2692)"
           id="g100"><path
             id="path102"
             style="fill:#e8222e;fill-opacity:1;fill-rule:nonzero;stroke:none"
             d="M 0,0 C 0,2.728 0.039,5.456 -0.021,8.183 -0.042,9.154 0.334,9.344 1.209,9.359 2.147,9.375 2.404,9.052 2.397,8.142 2.358,3.523 2.416,-1.097 2.354,-5.715 2.338,-6.9 2.73,-7.235 3.87,-7.195 c 2.197,0.076 4.399,-0.012 6.598,0.037 0.905,0.021 1.111,-0.359 1.112,-1.179 C 11.581,-9.13 11.334,-9.419 10.518,-9.409 7.351,-9.373 4.183,-9.371 1.016,-9.411 0.171,-9.421 -0.021,-9.08 -0.012,-8.315 0.019,-5.544 0,-2.772 0,0" /></g><g
           transform="translate(186.5688,5.6429)"
           id="g104"><path
             id="path106"
             style="fill:#e8222e;fill-opacity:1;fill-rule:nonzero;stroke:none"
             d="m 0,0 c -1.118,-2.234 -2.876,-3.479 -5.437,-3.531 -2.591,-0.053 -4.552,0.993 -5.691,3.314 -1.38,2.813 -1.375,5.72 -0.048,8.544 1.2,2.556 3.904,3.772 6.875,3.264 C -1.71,11.15 0.333,8.813 0.727,5.815 0.801,5.25 0.806,4.676 0.843,4.105 0.862,2.672 0.642,1.287 0,0 m 2.979,7.039 c -1.205,4.882 -5.715,7.602 -10.624,6.503 -4.343,-0.97 -6.941,-4.523 -6.925,-9.495 0,-0.307 -0.016,-0.616 0,-0.923 0.209,-3.941 2.585,-7.182 6.085,-8.305 3.627,-1.166 7.562,-0.087 9.783,2.805 2.167,2.823 2.508,6.056 1.681,9.415" /></g><g
           transform="translate(153.9229,0.3452)"
           id="g108"><path
             id="path110"
             style="fill:#e8222e;fill-opacity:1;fill-rule:nonzero;stroke:none"
             d="m 0,0 c -4.376,-0.011 -7.508,2.424 -8.359,6.731 -0.816,4.129 -0.442,8.055 3.131,10.923 2.823,2.265 7.473,2.206 10.389,0.051 0.909,-0.672 1.61,-1.521 2.004,-2.566 0.203,-0.541 0.851,-1.218 0.05,-1.737 -0.741,-0.48 -1.975,0.057 -2.303,0.902 -0.72,1.852 -2.15,2.709 -4.053,2.891 -2.472,0.238 -4.652,-0.412 -5.866,-2.686 C -6.737,11.268 -6.728,7.872 -4.946,4.65 -3.477,1.994 0.477,1.137 3.09,2.717 3.994,3.264 4.592,4.048 4.911,5.058 5.223,6.046 6.313,6.545 7.214,6.145 7.826,5.873 7.533,5.395 7.448,5.008 6.839,2.219 4.229,0.184 1.056,0.003 0.705,-0.017 0.352,0 0,0" /></g><g
           transform="translate(248.9404,134.6202)"
           id="g112"><path
             id="path114"
             style="fill:#271c1c;fill-opacity:1;fill-rule:nonzero;stroke:none"
             d="m 0,0 c 1.226,-1.817 2.514,-3.596 3.652,-5.465 0.64,-1.051 1.124,-1.224 2.232,-0.527 6.806,4.284 13.667,8.483 20.509,12.71 0.04,-0.389 -0.111,-0.835 0.17,-1.153 1.056,-1.192 0.37,-1.69 -0.704,-2.35 C 18.495,-1.312 11.175,-5.91 3.839,-10.481 2.407,-11.374 2.154,-11.315 1.2,-9.902 c -1.179,1.746 -2.322,3.519 -3.54,5.238 -0.515,0.726 -0.649,1.277 0.162,1.858 0.568,0.406 1.069,0.906 1.62,1.338 C -0.067,-1.083 0.195,-0.634 0,0" /></g><g
           transform="translate(218.8647,180.0643)"
           id="g116"><path
             id="path118"
             style="fill:#271c1c;fill-opacity:1;fill-rule:nonzero;stroke:none"
             d="m 0,0 c -0.425,-2.952 -0.837,-5.905 -1.277,-8.854 -0.889,-5.957 -1.785,-11.913 -2.702,-17.866 -0.101,-0.654 0.053,-0.989 0.723,-1.12 2.028,-0.398 4.052,-0.816 6.073,-1.247 0.998,-0.213 1.164,0.509 1.409,1.177 2.797,7.594 5.597,15.188 8.396,22.782 0.624,1.692 1.257,3.381 1.869,5.077 0.171,0.476 0.512,0.976 -0.013,1.455 C 15.5,1.569 15.159,0.948 14.992,0.478 14.137,-1.923 13.28,-4.323 12.4,-6.714 9.818,-13.722 7.227,-20.727 4.635,-27.731 c -0.297,-0.802 -0.494,-1.557 -1.431,-2.063 -0.758,-0.409 -0.905,-1.565 -1.12,-2.444 -0.321,-1.313 -0.849,-1.838 -2.308,-1.39 -1.624,0.498 -3.333,0.735 -5.016,1.024 -0.91,0.156 -1.178,0.417 -1.011,1.475 1.07,6.783 2.013,13.586 3.011,20.381 0.419,2.856 0.872,5.707 1.302,8.562 0.04,0.266 0.118,0.71 0.304,0.661 C -0.23,-1.895 -0.513,-0.53 0,0" /></g><g
           transform="translate(234.6807,147.0463)"
           id="g120"><path
             id="path122"
             style="fill:#271c1c;fill-opacity:1;fill-rule:nonzero;stroke:none"
             d="m 0,0 c 1.88,-1.133 3.779,-2.236 5.63,-3.414 0.793,-0.506 1.263,-0.404 1.868,0.327 4.936,5.961 9.912,11.89 14.88,17.825 0.337,0.402 0.707,0.777 1.061,1.165 0.492,-0.839 0.357,-1.412 -0.342,-2.231 C 18.258,8.007 13.529,2.246 8.75,-3.472 7.484,-4.986 6.145,-6.44 4.885,-7.959 4.468,-8.461 4.113,-8.59 3.549,-8.236 1.838,-7.161 0.116,-6.104 -1.611,-5.054 -2.325,-4.62 -2.602,-4.2 -2.037,-3.365 -1.304,-2.283 -0.814,-1.042 0,0" /></g><g
           transform="translate(222.4807,110.4967)"
           id="g124"><path
             id="path126"
             style="fill:#271c1c;fill-opacity:1;fill-rule:nonzero;stroke:none"
             d="m 0,0 c -0.241,-0.739 -0.873,-0.468 -1.34,-0.455 -0.808,0.024 -1.137,-0.295 -1.048,-1.084 0.014,-0.13 0.003,-0.263 10e-4,-0.394 -0.037,-3.459 0.453,-3.012 -3.117,-3.027 -3.902,-0.017 -7.803,0.003 -11.704,0.007 0.348,1.353 0.714,2.703 1.037,4.062 0.185,0.78 0.763,0.714 1.336,0.714 3.459,-0.001 6.918,-0.017 10.377,0.008 C -2.972,-0.158 -1.486,-0.059 0,0" /></g><g
           transform="translate(230.9768,99.2996)"
           id="g128"><path
             id="path130"
             style="fill:#271c1c;fill-opacity:1;fill-rule:nonzero;stroke:none"
             d="M 0,0 C 0.08,0.14 0.161,0.281 0.241,0.421 0.161,0.281 0.08,0.14 0,0" /></g></g></g></g></svg>