<?xml version="1.0" encoding="UTF-8" standalone="no"?>
<!-- Generator: Adobe Illustrator 19.0.0, SVG Export Plug-In . SVG Version: 6.00 Build 0)  -->

<svg
   xmlns:dc="http://purl.org/dc/elements/1.1/"
   xmlns:cc="http://creativecommons.org/ns#"
   xmlns:rdf="http://www.w3.org/1999/02/22-rdf-syntax-ns#"
   xmlns:svg="http://www.w3.org/2000/svg"
   xmlns="http://www.w3.org/2000/svg"
   xmlns:sodipodi="http://sodipodi.sourceforge.net/DTD/sodipodi-0.dtd"
   xmlns:inkscape="http://www.inkscape.org/namespaces/inkscape"
   version="1.1"
   id="Layer_1"
   x="0px"
   y="0px"
   viewBox="0 0 653.575 425.78095"
   xml:space="preserve"
   inkscape:version="0.91 r13725"
   sodipodi:docname="consolegame.svg"
   width="653.57501"
   height="425.78094"><metadata
     id="metadata157"><rdf:RDF><cc:Work
         rdf:about=""><dc:format>image/svg+xml</dc:format><dc:type
           rdf:resource="http://purl.org/dc/dcmitype/StillImage" /><dc:title></dc:title></cc:Work></rdf:RDF></metadata><defs
     id="defs155" /><sodipodi:namedview
     pagecolor="#ffffff"
     bordercolor="#666666"
     borderopacity="1"
     objecttolerance="10"
     gridtolerance="10"
     guidetolerance="10"
     inkscape:pageopacity="0"
     inkscape:pageshadow="2"
     inkscape:window-width="1920"
     inkscape:window-height="1027"
     id="namedview153"
     showgrid="false"
     fit-margin-top="0"
     fit-margin-left="0"
     fit-margin-right="0"
     fit-margin-bottom="0"
     inkscape:zoom="0.32673405"
     inkscape:cx="306.35001"
     inkscape:cy="361.15"
     inkscape:window-x="-8"
     inkscape:window-y="-8"
     inkscape:window-maximized="1"
     inkscape:current-layer="Layer_1" /><g
     id="g3"
     transform="scale(0.58947935,0.58947935)"><path
       d="m 599.9,717.8 -587.1,0 C 5.7,717.8 0,712.1 0,705 L 0,12.8 C 0,5.7 5.7,0 12.8,0 l 587.1,0 c 7.1,0 12.8,5.7 12.8,12.8 l 0,692.2 c 0,7.1 -5.7,12.8 -12.8,12.8 z"
       id="path5"
       inkscape:connector-curvature="0"
       style="fill:#cccccc" /><g
       id="g7"><path
         d="m 482.5,54.7 c -8.8,0 -14.7,-6.4 -14.7,-14.2 0,-7.8 5.9,-14.3 14.7,-14.2 l 82.8,0 c 8.8,0 14.6,6.5 14.6,14.2 0,7.8 -5.9,14.2 -14.7,14.2 l -82.7,0 0,0 z m 0,-24.9 c -7,0 -11.2,4.8 -11.2,10.7 0,5.9 4.2,10.7 11.2,10.7 l 82.7,0 c 7,0 11.2,-4.8 11.2,-10.7 0,-5.9 -4.3,-10.7 -11.2,-10.7 l -82.7,0 z"
         id="path9"
         inkscape:connector-curvature="0"
         style="fill:#999999" /><path
         id="path456_1_"
         d="m 478.9,33.8 4.1,0 5.6,9.3 0,-9.3 4,0 0,13.4 -4,0 -5.6,-9.3 0,9.3 -4,0 -0.1,-13.4 0,0 z"
         inkscape:connector-curvature="0"
         style="fill:#999999" /><path
         id="path458_1_"
         d="m 514.5,35.2 3.9,0 0,1.8 2.1,0 0,1.3 -2.1,0 0,8.9 -3.9,0 0,-8.9 -2.1,0 0,-1.3 2.1,0 0,-1.8 0,0 z"
         inkscape:connector-curvature="0"
         style="fill:#999999" /><path
         id="path460_1_"
         d="m 494.8,38.3 3.9,0 0,8.9 -3.9,0 0,-8.9 z"
         inkscape:connector-curvature="0"
         style="fill:#999999" /><path
         id="path462_1_"
         d="m 494.8,33.8 3.9,0 0,2.7 -3.9,0 0,-2.7 z"
         inkscape:connector-curvature="0"
         style="fill:#999999" /><path
         id="path464_1_"
         d="m 563.4,37.7 c -3.2,0 -5.7,2.2 -5.7,5 0,2.8 2.6,5 5.7,5 3.2,0 5.7,-2.2 5.7,-5 0,-2.8 -2.6,-5 -5.7,-5 m 1.5,5 c 0,0 0,1.3 0,1.9 0,1.4 -0.8,2 -1.6,2 -0.8,0 -1.6,-0.6 -1.6,-2 0,-0.5 0,-1.9 0,-1.9 0,0 0,-1.3 0,-1.9 0,-1.4 0.8,-2 1.6,-2 0.8,0 1.6,0.6 1.6,2 0,0.5 0,1.5 0,1.9 l 0,0 0,0 z"
         inkscape:connector-curvature="0"
         style="fill:#999999" /><path
         id="path466_1_"
         d="m 552.5,42.7 0,-1.6 c 0,-1.4 -0.9,-1.7 -1.5,-1.7 -0.6,0 -1.5,0.3 -1.5,1.7 l 0,1.6 0,1.6 c 0,1.4 0.9,1.7 1.5,1.7 0.6,0 1.5,-0.4 1.5,-1.7 l 0,-1.6 0,0 z m 0,-8.9 3.9,0 0,13.4 -3.9,0 c 0,0 0,-0.4 0,-0.5 -1.5,1 -3.2,1 -4.5,0.3 -0.4,-0.2 -2.7,-1.3 -2.7,-4.4 0,-2.3 2.2,-4.9 5,-4.7 0.9,0.1 1.6,0.4 2.2,0.8 l 0,-4.9 0,0 z"
         inkscape:connector-curvature="0"
         style="fill:#999999" /><path
         id="path468_1_"
         d="m 507.9,37.9 c 1.5,0 4.4,0.9 4.4,4.5 0,0.6 0,4.8 0,4.8 l -3.9,0 0,-5.8 c 0,-0.8 -0.7,-1.6 -1.8,-1.6 -1.1,0 -1.9,0.9 -1.9,1.6 0,0.4 0,5.8 0,5.8 l -3.9,0 0,-8.9 3.9,0 c 0,0 0,0.7 0,0.9 0.8,-0.7 1.9,-1.3 3.2,-1.3"
         inkscape:connector-curvature="0"
         style="fill:#999999" /><path
         id="path470_1_"
         d="m 539.7,37.9 c 1.5,0 4.4,0.9 4.4,4.5 0,0.6 0,4.8 0,4.8 l -3.9,0 0,-5.8 c 0,-0.8 -0.7,-1.6 -1.8,-1.6 -1.1,0 -1.9,0.9 -1.9,1.6 0,0.4 0,5.8 0,5.8 l -3.9,0 0,-8.9 3.9,0 c 0,0 0,0.7 0,0.9 0.8,-0.7 1.9,-1.3 3.2,-1.3"
         inkscape:connector-curvature="0"
         style="fill:#999999" /><path
         id="path472_1_"
         d="m 527.4,44.1 c 0,0 0,0 0,0.5 0,1.6 -1,2 -1.6,2 -0.6,0 -1.6,-0.4 -1.6,-2 0,-0.5 0,-1.8 0,-1.8 0,0 7.4,0 7.4,0 0,-2.8 -2.6,-5 -5.8,-5 -3.2,0 -5.8,2.2 -5.8,5 0,2.8 2.6,5 5.8,5 2.6,0 4.9,-1.5 5.5,-3.7 l -3.9,0 0,0 z m -3.3,-2.7 c 0,-0.8 0,-1.3 0.3,-1.7 0.3,-0.5 0.9,-0.8 1.4,-0.8 0.5,0 1.1,0.3 1.4,0.8 0.2,0.4 0.3,1 0.3,1.7 l -3.4,0 z"
         inkscape:connector-curvature="0"
         style="fill:#999999" /><path
         id="path474_1_"
         d="m 569.9,35.3 c 0.4,0 0.7,0 0.7,-0.5 0,-0.4 -0.3,-0.4 -0.6,-0.4 l -0.6,0 0,0.9 0.5,0 z m -0.6,1.7 -0.4,0 0,-3 1.1,0 c 0.7,0 1,0.3 1,0.9 0,0.5 -0.3,0.8 -0.8,0.8 l 0.8,1.3 -0.5,0 -0.8,-1.3 -0.5,0 0.1,1.3 0,0 z"
         inkscape:connector-curvature="0"
         style="fill:#999999" /><path
         id="path476_1_"
         d="m 569.9,37.7 c 1.2,0 2.1,-0.9 2.1,-2.2 0,-1.3 -0.9,-2.2 -2.1,-2.2 -1.2,0 -2.1,0.9 -2.1,2.2 0,1.2 0.9,2.2 2.1,2.2 m -2.6,-2.2 c 0,-1.5 1.2,-2.6 2.6,-2.6 1.4,0 2.6,1.1 2.6,2.6 0,1.5 -1.2,2.6 -2.6,2.6 -1.4,0 -2.6,-1.1 -2.6,-2.6"
         inkscape:connector-curvature="0"
         style="fill:#999999" /></g><ellipse
       cx="77.300003"
       cy="524.90002"
       rx="3.3"
       ry="3.4000001"
       id="ellipse22"
       style="fill:#737477" /><ellipse
       cx="77.300003"
       cy="537"
       rx="3.3"
       ry="3.4000001"
       id="ellipse24"
       style="fill:#737477" /><g
       id="g26"><path
         d="m 63.5,527.7 c -0.1,0.4 -0.3,0.6 -0.7,0.6 l -2.1,0 c -0.4,0 -0.5,-0.2 -0.4,-0.6 l 1.3,-5 c 0.1,-0.4 0.3,-0.6 0.7,-0.6 l 2.1,0 c 0.4,0 0.5,0.2 0.5,0.6 l -1.4,5 z m -0.9,-0.2 1.2,-4.5 -1.4,0 -1.2,4.5 1.4,0 z"
         id="path28"
         inkscape:connector-curvature="0"
         style="fill:#737477" /><path
         d="m 67.5,528.3 -0.9,0 -0.6,-3.8 c 0,0.2 0,0.3 -0.1,0.4 l -0.9,3.4 -1,0 1.6,-6.1 0.9,0 0.6,3.8 c 0,-0.2 0,-0.3 0.1,-0.4 l 0.9,-3.3 1,0 -1.6,6 z"
         id="path30"
         inkscape:connector-curvature="0"
         style="fill:#737477" /></g><g
       id="g32"><path
         d="m 60.9,539.8 c -0.1,0.4 -0.3,0.6 -0.7,0.6 l -2.1,0 c -0.4,0 -0.5,-0.2 -0.4,-0.6 l 1.3,-5 c 0.1,-0.4 0.3,-0.6 0.7,-0.6 l 2.1,0 c 0.4,0 0.5,0.2 0.5,0.6 l -1.4,5 z m -0.9,-0.2 1.2,-4.5 -1.4,0 -1.2,4.5 1.4,0 z"
         id="path34"
         inkscape:connector-curvature="0"
         style="fill:#737477" /><path
         d="m 65.7,535.1 -1.7,0 -0.5,1.8 1.5,0 -0.2,0.8 -1.5,0 -0.7,2.7 -1,0 1.6,-6.1 2.7,0 -0.2,0.8 z"
         id="path36"
         inkscape:connector-curvature="0"
         style="fill:#737477" /><path
         d="m 68.9,535.1 -1.7,0 -0.5,1.8 1.5,0 -0.2,0.8 -1.5,0 -0.7,2.7 -1,0 1.6,-6.1 2.7,0 -0.2,0.8 z"
         id="path38"
         inkscape:connector-curvature="0"
         style="fill:#737477" /></g><rect
       x="0.40000001"
       y="194.7"
       width="611.79999"
       height="247.89999"
       id="rect40"
       style="fill:#cccccc" /><g
       id="g42"><path
         id="polyline2177_1_"
         d="m 122.9,378.1 c -1.5,0 -3,1.3 -3.2,3 l 0,0 0,0 0,0 0,0 0,0.1 0,0 0,0.1 0,0.1 0,0.1 0,0.1 0,0.1 0,0.1 0,0.1 0,0.1 0,0.2 -0.1,0.2 0,0.2 -0.1,0.2 0,0.2 -0.1,0.2 -0.1,0.3 -0.1,0.2 -0.1,0.5 -0.1,0.3 -0.1,0.2 0,0.2 -0.1,0.2 -0.1,0.2 0,0.2 0,0.2 -0.1,0.2 0,0.2 0,0.1 0,0.1 0,0.1 0,0.1 0,0.1 0,0.1 0,0.1 0,0.1 0,0 0,0 c 0,0.7 0.1,1.7 0.3,1.9 0.3,1.6 5.2,8.9 5.1,10 -0.1,1.1 -0.7,4.4 -0.7,4.4 -0.2,1.1 -0.9,2 -1.9,2 -1,0 -1.7,-0.9 -1.6,-2 l 0.9,-5.4 -3.7,0 -1.2,7.5 c -0.3,1.5 0.7,2.7 2.2,2.7 l 5.3,0 c 1.5,0 2.8,-1.2 3.1,-2.7 0,0 1.4,-7 1.3,-7.5 0,-0.5 -0.1,-0.6 -0.1,-0.6 0,-0.6 -4.4,-8.3 -4.8,-8.6 -0.2,-0.1 -0.4,-0.9 -0.4,-1.3 0,-0.5 0.6,-3.5 0.6,-3.5 0.2,-1.1 1.2,-2 2.2,-2 1,0 1.5,0.9 1.3,2 l -0.8,4.9 3.7,0 1.3,-7.3 c 0.3,-1.6 -0.7,-3 -2.2,-3 l -5.6,0 z m 10.2,0 -4.4,26.9 c -0.3,1.5 0.7,2.7 2.2,2.7 l 5.3,0 c 1.5,0 2.9,-1.2 3.1,-2.7 l 4.7,-26.9 -3.3,0 -4.5,26.2 c -0.1,0.4 -0.4,0.7 -0.8,0.7 l -2.6,0 c -0.4,0 -0.6,-0.3 -0.6,-0.7 l 4.4,-26.2 -3.5,0 z m 12.6,0 -5.3,29.7 3.5,0 2.4,-13.4 4.5,0 c 1.5,0 2.8,-1.2 3.1,-2.7 l 1.9,-10.5 c 0.3,-1.6 -0.7,-3 -2.2,-3 l -4.4,0 -3.5,0 z m 12.6,0 -5.5,29.7 7.9,0 0.6,-3.7 -3.9,0 1.6,-10 3.9,0 0.6,-3.1 -3.9,0 1.7,-9.2 3.9,0 0.5,-3.7 -7.4,0 z m 9.5,0 -5.3,29.7 3.5,0 2.4,-13.4 2.5,0 c 0.3,0.3 0.4,0.9 0.4,1.2 0.1,0.4 0.1,1 0.1,1.4 0,0.4 -1.9,10.8 -1.9,10.8 l 3.5,0 c 0,0 2,-11.3 2,-11.5 0,-0.2 0,-0.8 -0.2,-1.1 -0.1,-0.2 -0.4,-0.7 -0.6,-0.8 -0.5,-0.3 -1,-0.6 -1,-0.6 l -0.2,0 c 1,-0.4 2.9,-1.1 3.1,-2.2 l 1.9,-10.5 c 0.3,-1.6 -0.7,-3 -2.2,-3 l -8,0 z m 18.8,0 -5.3,29.7 4,0 3.3,-17.2 1.3,17.2 3.5,0 5.3,-29.7 -4,0 -2.8,15.5 -1.8,-15.5 -3.5,0 z m 14,0 -5.3,29.7 3.5,0 5.3,-29.7 -3.5,0 z m 5.4,0 -5.3,29.7 4.1,0 3.3,-17.2 1.3,17.2 3.5,0 5.3,-29.7 -4.1,0 -2.7,15.5 -1.8,-15.5 -3.6,0 z m 13.6,0 -0.7,3.7 2.2,0 -4.3,26 4,0 4.4,-26 2.1,0 0.6,-3.7 -8.3,0 z m 9.7,0 -5.5,29.7 7.9,0 0.6,-3.7 -3.9,0 1.6,-10 3.9,0 0.6,-3.1 -3.9,0 1.7,-9.2 3.9,0 0.6,-3.7 -7.5,0 z m 9,0 -5.3,29.7 4.1,0 3.3,-17.2 1.3,17.2 3.5,0 5.3,-29.7 -4.1,0 -2.7,15.5 -1.8,-15.5 -3.6,0 z m 14,0 -5.3,29.7 8,0 c 1.5,0 2.9,-1.2 3.1,-2.7 l 4.3,-24 c 0.3,-1.6 -0.7,-3 -2.2,-3 l -7.9,0 z m 15.1,0 c -1.5,0 -3,1.3 -3.2,3 l -3.9,24 c -0.3,1.5 0.7,2.7 2.1,2.7 l 5.8,0 c 1.5,0 2.9,-1.2 3.1,-2.7 l 4.3,-24 c 0.3,-1.6 -0.7,-3 -2.2,-3 l -6,0 z m -12.1,3.4 1.6,0 c 1,0 1.7,0.9 1.6,2 l -3.5,19.4 c -0.2,1.1 -1.2,2 -2.2,2 l -1.6,0 4.1,-23.4 z m 14.2,0 0.1,0 c 1,0 1.7,0.9 1.5,2 l -3.3,19.4 c -0.2,1.1 -1.1,2 -2.2,2 -1,0 -1.5,-0.9 -1.3,-2 l 3.3,-19.4 0,-0.1 0,-0.1 0,-0.1 0,-0.1 0,-0.1 0,-0.1 0,-0.1 0.1,-0.1 0,-0.1 0.1,-0.1 0,-0.1 0.1,-0.1 0.1,-0.1 0.1,-0.1 0.1,-0.1 0.1,-0.1 0.1,-0.1 0.1,-0.1 0.1,-0.1 0.1,-0.1 0.1,-0.1 0.1,-0.1 0.1,0 0.1,-0.1 0.1,0 0.1,0 0.1,0 0.1,0 0.1,0 -0.1,0.3 0,0 z m -120.4,0.1 1.7,0 c 0.4,0 1.2,0.9 1.1,1.3 l -1.5,7.3 c -0.1,0.4 -0.6,1.3 -0.9,1.3 l -2.1,0 0,0 0,0 0,0 0,0 0,0 0,0 0,0 0,0 0,0 0,0 0,0 0,0 0,0 0,0 0,0 0,0 0,0 0,0 0,0 0,0 0,0 0,0 0,0 0,0 0,0 0,0 0,0 0,0 c 0,0 0,-0.1 0,-0.2 l 1.7,-9 c -0.3,-0.6 -0.2,-0.7 0,-0.7 z m 22,0 0,0 0,0 0,0 0.1,0 1.6,0 c 0.4,0 1.2,0.9 1.1,1.3 l -1.5,7.3 c -0.1,0.4 -1,1.3 -1.3,1.3 l -1.5,0 c -0.3,0 -0.5,-0.2 -0.6,-0.5 0,0 0,-0.1 0,-0.2 l 1.6,-9 0,0 0,0 0.1,0 0,0 0,0 0,0 0,0 0,0 0,0 0.4,-0.2 0,0 0,0 0,0 0,0 0,0 0,0 z m -56,28.7 0,9.7 157.1,0 0,-9.7 -157.1,0 z m 115.5,1 0,0 0,0 0,0 0.1,0 0,0 1.2,0 c 0.3,0 0.6,0.3 0.5,0.6 l -0.3,1.6 -0.7,0 0.2,-1.1 c 0,-0.2 -0.1,-0.4 -0.3,-0.4 -0.2,0 -0.5,0.2 -0.5,0.4 l -0.1,0.8 c 0,0 0,0.3 0.1,0.3 0.1,0.1 1.1,1.8 1.1,1.9 0,0.1 0,0.1 0,0.1 0,0.2 -0.3,1.7 -0.3,1.7 -0.1,0.3 -0.4,0.6 -0.7,0.6 l -1.2,0 c -0.3,0 -0.5,-0.3 -0.5,-0.6 l 0.3,-1.7 0.8,0 -0.2,1.2 c 0,0.2 0.1,0.5 0.3,0.5 0.2,0 0.5,-0.2 0.5,-0.5 l 0.2,-1 c -0.1,-0.4 -1.1,-1.9 -1.2,-2.2 0,0 -0.1,-0.3 -0.1,-0.4 0,-0.2 0.2,-1.3 0.2,-1.3 l 0,0 0,0 0,0 0,0 0,-0.1 0,0 0,0 0,0 0,0 0,0 0,0 0,0 0,0 0,0 0,0 0,0 0,0 0,0 0,0 0,0 0,0 0,0 0,0 0,0 0,0 0.6,-0.4 0,0 0,0 z m 6.4,0 1,0 0.1,2.5 1.3,-2.5 1,0 -2,3.8 -0.5,2.8 -0.9,0 0.4,-3 -0.4,-3.6 z m 9,0 0,0 0,0 0,0 0.1,0 0,0 1.2,0 c 0.3,0 0.6,0.3 0.5,0.6 l -0.3,1.6 -0.7,0 0.2,-1.1 c 0,-0.2 -0.1,-0.4 -0.3,-0.4 -0.2,0 -0.5,0.2 -0.5,0.4 l -0.1,0.8 c 0,0 0,0.3 0.1,0.3 0.1,0.1 1.1,1.8 1.1,1.9 0,0.1 0,0.1 0,0.1 0,0.2 -0.3,1.7 -0.3,1.7 -0.1,0.3 -0.4,0.6 -0.7,0.6 l -1.3,0 c -0.3,0 -0.5,-0.3 -0.5,-0.6 l 0.3,-1.7 0.8,0 -0.2,1.2 c 0,0.2 0.1,0.5 0.3,0.5 0.2,0 0.4,-0.2 0.5,-0.5 l 0.2,-1 c -0.2,-0.4 -1.1,-1.9 -1.2,-2.2 0,0 -0.1,-0.3 -0.1,-0.4 0,-0.2 0.2,-1.3 0.2,-1.3 l 0,0 0,0 0,0 0,-0.1 0,0 0,0 0,0 0,0 0,0 0,0 0,0 0,0 0,0 0,0 0,0 0,0 0,0 0,0 0,0 0,0 0,0 0,0 0,0 0.7,-0.4 0,0 0,0 z m 6.4,0 1.8,0 -0.1,0.8 -0.5,0 -1,5.8 -0.9,0 1,-5.8 -0.5,0 0.2,-0.8 z m 7.2,0 1.7,0 -0.1,0.8 -0.9,0 -0.4,2.1 0.9,0 -0.1,0.7 -0.9,0 -0.4,2.2 0.9,0 -0.1,0.8 -1.8,0 1.2,-6.6 z m 6.8,0 1,0 0.2,3.8 1.6,-3.8 1,0 -1,6.6 -0.8,0 0.5,-3.5 -1.4,3.5 -0.6,0 -0.2,-3.6 -0.6,3.6 -0.9,0 1.2,-6.6 z m -147.9,0.3 1.6,0 -0.1,0.8 -0.9,0 -0.4,2 0.9,0 -0.1,0.7 -0.9,0 -0.3,2.2 0.9,0 -0.1,0.8 -1.8,0 1.2,-6.5 z m 7.6,0 0.8,0 0.4,3.4 0.6,-3.4 0.9,0 -1.2,6.6 -0.8,0 -0.3,-3.8 -0.7,3.8 -0.8,0 1.1,-6.6 z m 8.3,0 1.8,0 -0.1,0.8 -0.5,0 -1,5.8 -0.9,0 1,-5.8 -0.5,0 0.2,-0.8 z m 8,0 1.7,0 -0.1,0.8 -0.9,0 -0.4,2 0.9,0 -0.1,0.7 -0.9,0 -0.4,2.2 0.9,0 -0.1,0.8 -1.8,0 1.2,-6.5 z m 7.8,0 1.8,0 c 0.3,0 0.5,0.3 0.5,0.7 l -0.4,2.3 c 0,0.3 -0.5,0.5 -0.7,0.6 l 0.1,0 0,0 0,0 0,0 0,0 0,0 0,0 0,0 0,0 0,0 0,0 0,0 0,0 0,0 0,0 0,0 0,0 c 0,0.1 0.1,0.3 0.1,0.3 0,0 -0.4,2.6 -0.4,2.6 l -0.8,0 c 0,0 0.4,-2.3 0.4,-2.4 0,-0.1 0,-0.2 0,-0.3 0,-0.1 0,-0.2 -0.1,-0.3 l -0.6,0 -0.5,3 -0.6,0 1.2,-6.5 z m 7.8,0 1.8,0 -0.1,0.8 -0.5,0 -1,5.8 -0.9,0 1,-5.8 -0.5,0 0.2,-0.8 z m 9.2,0 1,0 -0.3,6.6 -1,0 0.1,-1.5 -0.6,0 -0.5,1.5 -0.9,0 2.2,-6.6 z m 7.3,0 0.8,0 -1.2,6.6 -0.8,0 1.2,-6.6 z m 7.1,0 0.8,0 0.4,3.4 0.6,-3.4 0.9,0 -1.2,6.6 -0.8,0 -0.3,-3.8 -0.7,3.8 -0.9,0 1.2,-6.6 z m 9.1,0 1,0 0.2,3.8 1.6,-3.8 1,0 -1,6.6 -0.8,0 0.5,-3.5 -1.4,3.5 -0.6,0 -0.2,-3.6 -0.6,3.6 -0.9,0 1.2,-6.6 z m 10,0 1.6,0 -0.1,0.8 -0.9,0 -0.4,2 0.9,0 -0.1,0.7 -0.9,0 -0.4,2.2 0.9,0 -0.1,0.8 -1.7,0 1.2,-6.5 z m 8,0 0.8,0 0.4,3.4 0.6,-3.4 0.9,0 -1.2,6.6 -0.8,0 -0.3,-3.8 -0.7,3.8 -0.9,0 1.2,-6.6 z m 8.2,0 1.8,0 -0.1,0.8 -0.5,0 -1,5.8 -0.9,0 1,-5.8 -0.5,0 0.2,-0.8 z m -66,0.8 c 0,0 -0.1,0 -0.1,0.1 l -0.4,2 c 0,0 0,0 0,0 0,0.1 0,0.1 0.1,0.1 l 0.3,0 c 0.1,0 0.3,-0.2 0.3,-0.3 l 0.3,-1.6 c 0,-0.1 -0.1,-0.3 -0.2,-0.3 l -0.3,0 0,0 z m 16.3,2 -0.6,1.7 0.4,0 0.2,-1.7 z"
         inkscape:connector-curvature="0"
         style="fill:#6c6c6c" /></g><g
       id="g45"><path
         d="m 172,353.9 -5.2,0 0,-68.3 5.2,0 0,68.3 z m -4.2,-1 3.2,0 0,-66.3 -3.2,0 0,66.3 z"
         id="path47"
         inkscape:connector-curvature="0"
         style="fill:#808084" /></g><g
       id="g49"><path
         d="m 443.2,352.9 -5.2,0 0,-68.3 5.2,0 0,68.3 z m -4.2,-1 3.2,0 0,-66.3 -3.2,0 0,66.3 z"
         id="path51"
         inkscape:connector-curvature="0"
         style="fill:#808084" /></g><rect
       x="88.099998"
       y="284.10001"
       width="436.5"
       height="4"
       id="rect53"
       style="fill:#555251" /><rect
       x="88.099998"
       y="351.39999"
       width="436.5"
       height="4"
       id="rect55"
       style="fill:#555251" /><g
       id="g57"><rect
         x="87.599998"
         y="194.7"
         width="1"
         height="247.89999"
         id="rect59"
         style="fill:#555251" /></g><g
       id="g61"><rect
         x="524.09998"
         y="194.7"
         width="1"
         height="247.89999"
         id="rect63"
         style="fill:#555251" /></g><g
       id="g65"><path
         d="m 612.7,444.2 -612.7,0 0,-248.9 612.7,0 0,248.9 z m -611.7,-1 610.8,0 0,-246.9 -610.8,0 0,246.9 z"
         id="path67"
         inkscape:connector-curvature="0"
         style="fill:#555251" /></g><g
       id="g69"><path
         d="m 250.6,721.8 -151.7,0 c -1.7,0 -3.1,-1.4 -3.1,-3.1 l 0,-275 158,0 0,275 c -0.1,1.7 -1.5,3.1 -3.2,3.1 z"
         id="path71"
         inkscape:connector-curvature="0"
         style="fill:#cccccc" /><g
         id="g73"><g
           id="g75"><path
             d="m 250.7,722.3 -151.9,0 c -1.9,0 -3.5,-1.6 -3.5,-3.6 l 0,-275.5 158.9,0 0,275.5 c 0,2 -1.5,3.6 -3.5,3.6 z M 96.3,444.2 l 0,274.5 c 0,1.4 1.1,2.6 2.5,2.6 l 151.9,0 c 1.4,0 2.5,-1.2 2.5,-2.6 l 0,-274.5 -156.9,0 z"
             id="path77"
             inkscape:connector-curvature="0"
             style="fill:#555251" /></g></g></g><g
       id="g79"><g
         id="g81"><path
           d="m 514.1,721.6 -151.7,0 c -1.7,0 -3.1,-1.4 -3.1,-3.1 l 0,-275 158,0 0,275 c -0.1,1.7 -1.5,3.1 -3.2,3.1 z"
           id="path83"
           inkscape:connector-curvature="0"
           style="fill:#cccccc" /><g
           id="g85"><g
             id="g87"><path
               d="m 514.2,722.1 -151.9,0 c -1.9,0 -3.5,-1.6 -3.5,-3.6 l 0,-275.6 158.9,0 0,275.5 c 0,2 -1.5,3.7 -3.5,3.7 z m -154.4,-278.2 0,274.5 c 0,1.4 1.1,2.6 2.5,2.6 l 151.9,0 c 1.4,0 2.5,-1.2 2.5,-2.6 l 0,-274.5 -156.9,0 z"
               id="path89"
               inkscape:connector-curvature="0"
               style="fill:#555251" /></g></g></g></g><rect
       x="254.5"
       y="488.89999"
       width="103.6"
       height="182.8"
       id="rect91"
       style="fill:#686665" /><rect
       x="254.7"
       y="488.89999"
       stroke-miterlimit="10"
       width="102.1"
       height="182.7"
       id="rect93"
       style="fill:none;stroke:#5b5959;stroke-width:4;stroke-miterlimit:10" /><g
       id="g95"><path
         d="m 524.2,570.5 -171.8,0 c -3,0 -5.5,-2.5 -5.5,-5.5 l 0,-61 c 0,-3 2.5,-5.5 5.5,-5.5 l 171.8,0 c 3,0 5.5,2.5 5.5,5.5 l 0,61 c 0,3.1 -2.5,5.5 -5.5,5.5 z"
         id="path97"
         inkscape:connector-curvature="0"
         style="fill:#32215f" /><path
         d="m 514.7,536.4 -155.7,0 0,0 c 0,-12.9 10.2,-23.4 22.8,-23.4 l 110.2,0 c 12.4,0 22.7,10.5 22.7,23.4 z"
         id="path99"
         inkscape:connector-curvature="0"
         style="fill:#2a1c4f" /><path
         d="m 514.7,536.4 -155.7,0 c 0,12.9 10.2,23.4 22.8,23.4 l 110.2,0 c 12.4,0 22.7,-10.5 22.7,-23.4 l 0,0 z"
         id="path101"
         inkscape:connector-curvature="0"
         style="fill:#46386b" /><g
         id="g103"><path
           d="m 423.3,540.6 -2.4,0 -0.6,-6.4 0.4,-1.2 2.2,0 1.3,-4.3 -2.9,0 -3.6,12 -2.3,0 4.1,-13.7 6.1,0 c 0.9,0 1.3,0.4 1,1.3 l -1.5,5 c -0.2,0.6 -0.5,1 -1,1.1 -0.3,0.1 -0.8,0.1 -1.5,0.1 l 0.7,6.1 z"
           id="path105"
           inkscape:connector-curvature="0"
           style="fill:#fcfcfc" /><path
           d="m 431,540.6 -6.3,0 4.1,-13.7 6.3,0 -0.5,1.8 -4,0 -1.2,4 3.4,0 -0.5,1.8 -3.4,0 -1.3,4.3 4.1,0 -0.7,1.8 z"
           id="path107"
           inkscape:connector-curvature="0"
           style="fill:#fcfcfc" /><path
           d="m 440.3,539.3 c -0.2,0.8 -0.8,1.3 -1.8,1.3 l -4.6,0 c -0.9,0 -1.3,-0.4 -1,-1.3 l 1,-3.3 2.3,0 -0.8,2.8 2.8,0 0.8,-2.7 -3.4,-3.9 c -0.2,-0.3 -0.3,-0.7 -0.2,-1.1 l 0.9,-3.1 c 0.3,-0.8 0.8,-1.3 1.8,-1.3 l 4.6,0 c 0.9,0 1.3,0.4 1,1.2 l -0.9,3.1 -2.3,0 0.8,-2.6 -2.8,0 -0.7,2.5 3.4,3.9 c 0.2,0.3 0.3,0.7 0.2,1.1 l -1.1,3.4 z"
           id="path109"
           inkscape:connector-curvature="0"
           style="fill:#fcfcfc" /><path
           d="m 448.1,540.6 -6.3,0 4.1,-13.7 6.3,0 -0.5,1.8 -4,0 -1.2,4 3.4,0 -0.5,1.8 -3.4,0 -1.3,4.3 4.1,0 -0.7,1.8 z"
           id="path111"
           inkscape:connector-curvature="0"
           style="fill:#fcfcfc" /><path
           d="m 459.8,528.7 -2.5,0 -3.6,11.9 -2.3,0 3.6,-11.9 -2.5,0 0.5,-1.8 7.3,0 -0.5,1.8 z"
           id="path113"
           inkscape:connector-curvature="0"
           style="fill:#fcfcfc" /></g><polygon
         points="469.1,540.6 465.6,526.9 462.2,540.6 "
         id="polygon115"
         style="fill:#fcfcfc" /><rect
         x="351.89999"
         y="502"
         width="172.7"
         height="1.2"
         id="rect117"
         style="fill:#544679" /></g><g
       id="g119"><path
         d="m 260.5,559.1 -171.8,0 c -3,0 -5.5,-2.5 -5.5,-5.5 l 0,-61 c 0,-3 2.5,-5.5 5.5,-5.5 l 171.8,0 c 3,0 5.5,2.5 5.5,5.5 l 0,61 c 0,3 -2.5,5.5 -5.5,5.5 z"
         id="path121"
         inkscape:connector-curvature="0"
         style="fill:#32215f" /><rect
         x="88.099998"
         y="491.20001"
         width="172.7"
         height="1.2"
         id="rect123"
         style="fill:#544679" /><path
         d="m 251,524.9 -155.7,0 0,0 c 0,-12.9 10.2,-23.4 22.8,-23.4 l 110.2,0 c 12.4,0 22.7,10.5 22.7,23.4 z"
         id="path125"
         inkscape:connector-curvature="0"
         style="fill:#2a1c4f" /><path
         d="m 251,524.9 -155.7,0 c 0,12.9 10.2,23.4 22.8,23.4 l 110.2,0 c 12.4,0 22.7,-10.5 22.7,-23.4 l 0,0 z"
         id="path127"
         inkscape:connector-curvature="0"
         style="fill:#46386b" /><g
         id="g129"><path
           d="m 156.9,524.7 c -0.3,0.9 -0.8,1.3 -1.8,1.3 l -3.7,0 -1.5,5 -2.3,0 4.1,-13.7 6,0 c 0.9,0 1.3,0.4 1,1.3 l -1.8,6.1 z m -2.2,-0.5 1.6,-5.2 -2.8,0 -1.6,5.2 2.8,0 z"
           id="path131"
           inkscape:connector-curvature="0"
           style="fill:#fcfcfc" /><path
           d="m 164.8,529.7 c -0.2,0.8 -0.8,1.3 -1.8,1.3 l -5,0 c -0.9,0 -1.2,-0.4 -1,-1.3 l 3.3,-11.2 c 0.3,-0.8 0.8,-1.3 1.7,-1.3 l 5,0 c 0.9,0 1.3,0.4 1,1.3 l -3.2,11.2 z m -2.2,-0.5 3,-10.2 -3.1,0 -3,10.2 3.1,0 z"
           id="path133"
           inkscape:connector-curvature="0"
           style="fill:#fcfcfc" /><path
           d="m 181.6,517.3 -6.3,13.7 -2.3,0 1,-7.8 c 0.1,-0.3 0.2,-0.7 0.3,-1.3 -0.1,0.3 -0.2,0.7 -0.5,1.3 l -3.7,7.8 -2.2,0 1.9,-13.7 2.3,0 -1.2,8.1 c -0.1,0.3 -0.2,0.7 -0.3,1.3 0.1,-0.3 0.2,-0.7 0.5,-1.3 l 3.8,-8.1 1.9,0 -1.1,8.1 c -0.1,0.3 -0.2,0.7 -0.3,1.3 0.1,-0.3 0.2,-0.7 0.5,-1.3 l 3.6,-8.1 2.1,0 z"
           id="path135"
           inkscape:connector-curvature="0"
           style="fill:#fcfcfc" /><path
           d="m 185.1,531 -6.3,0 4.1,-13.7 6.3,0 -0.5,1.8 -4,0 -1.2,4 3.4,0 -0.5,1.8 -3.4,0 -1.3,4.3 4.1,0 -0.7,1.8 z"
           id="path137"
           inkscape:connector-curvature="0"
           style="fill:#fcfcfc" /><path
           d="m 194.5,531 -2.4,0 -0.6,-6.4 0.4,-1.2 2.2,0 1.3,-4.3 -2.9,0 -3.6,12 -2.3,0 4.1,-13.7 6.1,0 c 0.9,0 1.3,0.4 1,1.3 l -1.5,5 c -0.2,0.6 -0.5,1 -1,1.1 -0.3,0.1 -0.8,0.1 -1.5,0.1 l 0.7,6.1 z"
           id="path139"
           inkscape:connector-curvature="0"
           style="fill:#fcfcfc" /></g></g><g
       id="g141"><path
         d="m 295.2,661.3 -4.1,0 3.4,-12.5 4.1,0 -0.3,1 -3,0 -1.3,4.7 2.7,0 -0.3,1 -2.7,0 -1.3,4.9 3,0 -0.2,0.9 z"
         id="path143"
         inkscape:connector-curvature="0"
         style="fill:#4e4e51" /><path
         d="m 301.6,660.4 c -0.1,0.3 -0.2,0.5 -0.4,0.6 -0.2,0.2 -0.4,0.2 -0.7,0.2 l -2.9,0 c -0.3,0 -0.5,-0.1 -0.6,-0.2 -0.1,-0.2 -0.1,-0.4 -0.1,-0.6 l 0.9,-3.2 1.1,0 -0.8,3.1 2.5,0 3.1,-11.5 1.1,0 -3.2,11.6 z"
         id="path145"
         inkscape:connector-curvature="0"
         style="fill:#4e4e51" /><path
         d="m 307.5,661.3 -4.1,0 3.4,-12.5 4.1,0 -0.3,1 -3,0 -1.3,4.7 2.7,0 -0.3,1 -2.7,0 -1.3,4.9 3,0 -0.2,0.9 z"
         id="path147"
         inkscape:connector-curvature="0"
         style="fill:#4e4e51" /><path
         d="m 314.5,660.4 c -0.1,0.3 -0.2,0.5 -0.4,0.6 -0.2,0.2 -0.5,0.2 -0.7,0.2 l -3.2,0 c -0.3,0 -0.5,-0.1 -0.6,-0.2 -0.1,-0.2 -0.1,-0.4 -0.1,-0.6 l 2.9,-10.8 c 0.1,-0.3 0.2,-0.5 0.4,-0.6 0.2,-0.2 0.4,-0.2 0.7,-0.2 l 3.2,0 c 0.3,0 0.5,0.1 0.6,0.2 0.1,0.2 0.2,0.4 0.1,0.6 l -0.8,2.9 -1.1,0 0.8,-2.8 -2.8,0 -2.8,10.6 2.8,0 0.8,-3.1 1.1,0 -0.9,3.2 z"
         id="path149"
         inkscape:connector-curvature="0"
         style="fill:#4e4e51" /><path
         d="m 323.6,649.7 -1.9,0 -3.1,11.5 -1.1,0 3.1,-11.5 -2,0 0.3,-1 5,0 -0.3,1 z"
         id="path151"
         inkscape:connector-curvature="0"
         style="fill:#4e4e51" /></g></g><g
     id="g3486"
     transform="matrix(0.47205079,0,0,0.47205079,408.203,266.65261)"><path
       id="path3488"
       d="M 517.6,64 3.4,64 C 2.2,64 1.3,63 1.3,61.9 l 0,-41.8 c 0,-2.5 2.1,-4.6 4.6,-4.6 l 511.8,0 c 1.2,0 2.1,1 2.1,2.1 l 0,44.3 c 0,1.1 -1,2.1 -2.2,2.1 z"
       inkscape:connector-curvature="0"
       style="fill:#807887" /><path
       id="path3490"
       d="m 514,118.6 -509.5,0 C 2,118.6 0,116.6 0,114.1 L 0,74.5 C 0,72 2,70 4.5,70 L 514,70 c 2.5,0 4.5,2 4.5,4.5 l 0,39.6 c 0,2.4 -2,4.5 -4.5,4.5 z"
       inkscape:connector-curvature="0"
       style="fill:#807887" /><rect
       id="rect3492"
       height="2.4000001"
       width="508.70001"
       y="64"
       x="6.1999998"
       style="fill:#48434b" /><rect
       id="rect3494"
       height="3.5999999"
       width="508.70001"
       y="66.400002"
       x="6.1999998"
       style="fill:#746c7a" /><rect
       id="rect3496"
       height="2.4000001"
       width="508.70001"
       y="118.6"
       x="4.9000001"
       style="fill:#48434b" /><rect
       id="rect3498"
       height="3.5999999"
       width="508.70001"
       y="121"
       x="4.9000001"
       style="fill:#746c7a" /><path
       id="path3500"
       d="m 514,173.1 -509.5,0 C 2,173.1 0,171.1 0,168.6 L 0,129 c 0,-2.5 2,-4.5 4.5,-4.5 l 509.5,0 c 2.5,0 4.5,2 4.5,4.5 l 0,39.6 c 0,2.5 -2,4.5 -4.5,4.5 z"
       inkscape:connector-curvature="0"
       style="fill:#807887" /><rect
       id="rect3502"
       height="2.4000001"
       width="508.70001"
       y="173.10001"
       x="4.9000001"
       style="fill:#48434b" /><rect
       id="rect3504"
       height="3.5999999"
       width="508.70001"
       y="175.5"
       x="4.9000001"
       style="fill:#746c7a" /><path
       id="path3506"
       d="m 514,227.7 -509.5,0 C 2,227.7 0,225.7 0,223.2 l 0,-39.6 c 0,-2.5 2,-4.5 4.5,-4.5 l 509.5,0 c 2.5,0 4.5,2 4.5,4.5 l 0,39.6 c 0,2.5 -2,4.5 -4.5,4.5 z"
       inkscape:connector-curvature="0"
       style="fill:#807887" /><rect
       id="rect3508"
       height="2.4000001"
       width="508.70001"
       y="227.7"
       x="4.9000001"
       style="fill:#48434b" /><rect
       id="rect3510"
       height="3.5999999"
       width="508.70001"
       y="230.10001"
       x="4.9000001"
       style="fill:#746c7a" /><path
       id="path3512"
       d="m 514,280.4 -509.5,0 C 2,280.4 0,278.4 0,275.9 l 0,-39.6 c 0,-2.5 2,-4.5 4.5,-4.5 l 509.5,0 c 2.5,0 4.5,2 4.5,4.5 l 0,39.6 c 0,2.5 -2,4.5 -4.5,4.5 z"
       inkscape:connector-curvature="0"
       style="fill:#807887" /><rect
       id="rect3514"
       height="2.4000001"
       width="508.70001"
       y="280.39999"
       x="4.9000001"
       style="fill:#48434b" /><rect
       id="rect3516"
       height="3.5999999"
       width="508.70001"
       y="282.79999"
       x="4.9000001"
       style="fill:#746c7a" /><path
       id="path3518"
       d="m 514,336.6 -509.5,0 C 2,336.6 0,334.6 0,332.1 l 0,-41.2 c 0,-2.5 2,-4.5 4.5,-4.5 l 509.5,0 c 2.5,0 4.5,2 4.5,4.5 l 0,41.2 c 0,2.5 -2,4.5 -4.5,4.5 z"
       inkscape:connector-curvature="0"
       style="fill:#807887" /><path
       id="path3520"
       d="m 440.8,336.5 -360.6,0 0,-324 c 0,-6.6 5.4,-12 12,-12 l 336.7,0 c 6.6,0 12,5.4 12,12 l 0,324 z"
       inkscape:connector-curvature="0"
       style="fill:#807886" /><rect
       id="rect3522"
       height="9.5"
       width="93.300003"
       y="203.10001"
       x="213.8"
       style="fill:#6a626e" /><rect
       id="rect3524"
       height="9.5"
       width="93.300003"
       y="212.60001"
       x="213.8"
       style="fill:#6f6774" /><rect
       id="rect3526"
       height="9.5"
       width="93.300003"
       y="222.10001"
       x="213.8"
       style="fill:#797180" /><rect
       id="rect3528"
       height="9.5"
       width="93.300003"
       y="231.60001"
       x="213.8"
       style="fill:#827988" /><rect
       id="rect3530"
       height="9.5"
       width="93.300003"
       y="241.10001"
       x="213.8"
       style="fill:#7f7785" /><rect
       id="rect3532"
       height="9.5"
       width="93.300003"
       y="250.60001"
       x="213.8"
       style="fill:#847c8b" /><rect
       id="rect3534"
       height="9.5"
       width="93.300003"
       y="260.10001"
       x="213.8"
       style="fill:#89808e" /><rect
       id="rect3536"
       height="9.5"
       width="93.300003"
       y="269.5"
       x="213.8"
       style="fill:#908996" /><rect
       id="rect3538"
       height="9.5"
       width="93.300003"
       y="279"
       x="213.8"
       style="fill:#8d8693" /><rect
       id="rect3540"
       height="9.5"
       width="93.300003"
       y="288.5"
       x="213.8"
       style="fill:#8c8391" /><rect
       id="rect3542"
       height="9.5"
       width="93.300003"
       y="298"
       x="213.8"
       style="fill:#847d8b" /><path
       id="path3544"
       d="m 215.3,202.5 -3.8,0 0,91 c 2.9,-28.9 6.3,-59.4 3.8,-91 z"
       inkscape:connector-curvature="0"
       style="fill:#4b474f" /><path
       id="path3546"
       d="m 305.7,202.5 3.8,0 0,91 c -2.9,-28.9 -6.3,-59.4 -3.8,-91 z"
       inkscape:connector-curvature="0"
       style="fill:#4b474f" /><g
       id="g3548"><circle
         id="circle3550"
         r="9.8000002"
         cy="314.10001"
         cx="46.599998"
         style="fill:#201c24" /><polygon
         id="polygon3552"
         points="47.4,308.5 52.1,312.5 51,318.5 45.2,320.6 40.6,316.6 41.7,310.6 "
         stroke-miterlimit="10"
         style="fill:none;stroke:#000000;stroke-miterlimit:10" /><polyline
         id="polyline3554"
         points="51.3,316.6 40.6,316.6 41.7,310.6 47.4,308.5 52.1,312.5 51.3,316.6   "
         style="fill:#5e585e" /><polyline
         id="polyline3556"
         points="51.3,316.6 40.6,316.6 45.2,320.6 51,318.5 51.3,316.6   "
         style="fill:#2a2727" /></g><g
       id="g3558"><circle
         id="circle3560"
         r="9.8000002"
         cy="314.10001"
         cx="474.39999"
         style="fill:#201c24" /><polygon
         id="polygon3562"
         points="473.6,308.5 468.9,312.5 470,318.5 475.8,320.6 480.4,316.6 479.3,310.6 "
         stroke-miterlimit="10"
         style="fill:none;stroke:#000000;stroke-miterlimit:10" /><polyline
         id="polyline3564"
         points="469.7,316.6 480.4,316.6 479.3,310.6 473.6,308.5 468.9,312.5 469.7,316.6   "
         style="fill:#5e585e" /><polyline
         id="polyline3566"
         points="469.7,316.6 480.4,316.6 475.8,320.6 470,318.5 469.7,316.6   "
         style="fill:#2a2727" /></g><path
       id="path3568"
       d="m 96.8,214.6 c 0,-6.6 5.4,-12 12,-12 l 303.3,0 c 6.6,0 12,5.4 12,12"
       stroke-miterlimit="10"
       inkscape:connector-curvature="0"
       style="fill:none;stroke:#665f6b;stroke-miterlimit:10" /><path
       id="path3570"
       d="m 424.2,214.5 c 0,-6.6 -5.4,-10.7 -12,-10.7 l -303.4,0 c -6.6,0 -12,4.1 -12,10.7 0,-6.6 5.4,-12 12,-12 l 303.3,0 c 6.7,0 12.1,5.4 12.1,12 z"
       inkscape:connector-curvature="0" /><g
       id="g3572"><polygon
         id="polygon3574"
         points="424.7,337.1 96.3,337.1 96.3,214.6 97.3,214.6 97.3,336.1 423.7,336.1 423.7,214.6 424.7,214.6 "
         style="fill:#4b474f" /></g><g
       id="g3576"><path
         id="path3578"
         d="m 441.3,337 -361.6,0 0,-324.5 C 79.7,5.6 85.3,0 92.2,0 l 336.7,0 c 6.9,0 12.5,5.6 12.5,12.5 l 0,324.5 z m -360.6,-1 359.7,0 0,-323.5 C 440.4,6.2 435.2,1 428.9,1 L 92.2,1 C 85.9,1 80.7,6.2 80.7,12.5 l 0,323.5 z"
         inkscape:connector-curvature="0"
         style="fill:#4b474f" /></g><path
       id="path3580"
       d="m 410.1,151 -299.2,0 c -6.6,0 -12,-5.4 -12,-12 l 0,-138.5 323.2,0 0,138.5 c 0,6.6 -5.4,12 -12,12 z"
       inkscape:connector-curvature="0" /><g
       id="g3582"><path
         id="path3584"
         d="m 120.9,105.8 c 7.1,0 12.9,4 12.9,9 0,5 -5.8,9 -12.9,9 -7.1,0 -12.9,-4 -12.9,-9 0,-5 5.8,-9 12.9,-9 z"
         inkscape:connector-curvature="0"
         style="fill:#ffffff" /><g
         id="g3586"><g
           id="g3588"><path
             id="path3590"
             d="m 118.1,120.1 0.4,0 0,0 c 0,0.1 0,0.2 0.1,0.3 0.1,0.1 0.2,0.1 0.3,0.1 0.1,0 0.2,0 0.3,-0.1 0.1,0 0.1,-0.1 0.1,-0.2 0,-0.1 0,-0.1 -0.1,-0.2 0,0 -0.1,-0.1 -0.2,-0.1 l -0.3,0 c -0.2,0 -0.4,-0.1 -0.4,-0.2 -0.1,-0.1 -0.1,-0.2 -0.1,-0.4 0,-0.2 0.1,-0.4 0.2,-0.5 0.1,-0.1 0.3,-0.2 0.5,-0.2 0.2,0 0.4,0.1 0.6,0.2 0.1,0.1 0.2,0.3 0.2,0.5 l 0,0 -0.4,0 c 0,-0.1 0,-0.2 -0.1,-0.2 -0.1,-0.1 -0.2,-0.1 -0.3,-0.1 -0.1,0 -0.2,0 -0.3,0.1 -0.1,0 -0.1,0.1 -0.1,0.2 0,0.1 0,0.1 0.1,0.1 0,0 0.1,0.1 0.3,0.1 l 0.3,0 c 0.2,0 0.3,0.1 0.4,0.2 0.1,0.1 0.1,0.3 0.1,0.4 0,0.2 -0.1,0.4 -0.2,0.6 -0.1,0.1 -0.3,0.2 -0.6,0.2 -0.3,0 -0.5,-0.1 -0.6,-0.2 -0.1,-0.2 -0.2,-0.4 -0.2,-0.6 l 0,0 0,0 0,0 z"
             inkscape:connector-curvature="0"
             style="fill:#a58252" /><path
             id="path3592"
             d="m 121.3,120.3 c 0,0.2 -0.1,0.3 -0.2,0.4 -0.1,0.1 -0.3,0.2 -0.4,0.2 -0.2,0 -0.4,-0.1 -0.5,-0.2 -0.1,-0.2 -0.2,-0.4 -0.2,-0.6 0,-0.3 0.1,-0.5 0.2,-0.6 0.1,-0.2 0.3,-0.2 0.5,-0.2 0.2,0 0.4,0.1 0.5,0.2 0.1,0.2 0.2,0.4 0.2,0.7 l 0,0.1 -1,0 c 0,0.1 0,0.2 0.1,0.3 0.1,0.1 0.1,0.1 0.2,0.1 0.1,0 0.1,0 0.2,-0.1 0,0 0.1,-0.1 0.1,-0.2 l 0.3,-0.1 0,0 z m -1,-0.5 0.6,0 c 0,-0.1 0,-0.2 -0.1,-0.2 -0.1,-0.1 -0.1,-0.1 -0.2,-0.1 -0.1,0 -0.2,0 -0.2,0.1 0,0 -0.1,0.1 -0.1,0.2 z"
             inkscape:connector-curvature="0"
             style="fill:#a58252" /><path
             id="path3594"
             d="m 122.8,120.6 c 0,0.1 0,0.1 0,0.1 0,0 0,0.1 0,0.1 l 0,0 -0.4,0 0,-0.2 c -0.1,0.1 -0.1,0.1 -0.2,0.2 -0.1,0 -0.2,0.1 -0.3,0.1 -0.2,0 -0.3,0 -0.4,-0.1 -0.1,-0.1 -0.1,-0.2 -0.1,-0.4 0,-0.2 0,-0.3 0.1,-0.3 0.1,-0.1 0.2,-0.1 0.4,-0.2 0,0 0.1,0 0.1,0 0.2,0 0.3,-0.1 0.3,-0.2 0,-0.1 0,-0.1 -0.1,-0.1 0,0 -0.1,0 -0.2,0 -0.1,0 -0.2,0 -0.2,0.1 0,0 -0.1,0.1 -0.1,0.2 l -0.4,0 0,0 c 0,-0.2 0.1,-0.3 0.2,-0.4 0.1,-0.1 0.3,-0.2 0.5,-0.2 0.1,0 0.2,0 0.3,0 0.1,0 0.1,0.1 0.2,0.1 0,0 0.1,0.1 0.1,0.2 0,0.1 0,0.2 0,0.3 l 0.2,0.7 0,0 z m -0.3,-0.6 c 0,0 -0.1,0.1 -0.3,0.1 0,0 0,0 0,0 -0.1,0 -0.2,0 -0.3,0.1 0,0 -0.1,0.1 -0.1,0.1 0,0.1 0,0.1 0.1,0.2 0,0 0.1,0.1 0.1,0.1 0.1,0 0.2,0 0.3,-0.1 0.1,-0.2 0.2,-0.3 0.2,-0.5 0,0.1 0,0.1 0,0 0,0 0,0 0,0 z"
             inkscape:connector-curvature="0"
             style="fill:#a58252" /><path
             id="path3596"
             d="m 123.2,120.8 0,-2.2 0.4,0 0,2.2 -0.4,0 z"
             inkscape:connector-curvature="0"
             style="fill:#a58252" /></g></g><path
         id="path3598"
         d="m 135.3,114.8 1.5,1.6 -2.2,1.3 0.6,2.6 -2.4,0.1 -0.2,2.8 -2.6,-0.7 -0.4,2.6 -2.4,-1 -1.3,2.3 -1.9,-1.6 -1.7,2.3 -1.8,-2 -2,1.9 -1.3,-2.2 -2.4,1.4 -0.8,-2.5 -2.7,1.1 -0.4,-2.4 -2.4,0.2 0.4,-2.5 -2.5,0 0.6,-2.7 -1.9,-1.1 1.5,-1.8 -1.4,-2.4 2.3,-0.7 -0.6,-2.6 2.5,0 0.3,-2.6 2.2,0.7 0.7,-2.5 2.3,1.2 0.9,-2.2 2,1.4 1.4,-2.1 1.8,1.8 1.6,-1.7 1.4,2.1 2.2,-1.4 0.9,2.3 2.2,-1.1 0.6,2.5 2.7,-0.5 -0.1,2.4 2.7,0.3 -0.8,2.3 2.3,1 -1.4,2.1 z m -1.6,0 c 0,-5 -5.8,-9 -12.9,-9 -7.1,0 -12.9,4 -12.9,9 0,5 5.8,9 12.9,9 7.1,0 12.9,-4.1 12.9,-9 z"
         inkscape:connector-curvature="0"
         style="fill:#a58252" /><g
         id="g3600"><g
           id="g3602"><path
             id="path3604"
             d="m 116.6,110.1 c 0,-0.6 0.3,-0.7 0.6,-0.7 0.2,0 0.6,0.1 0.6,0.7 0,0.6 -0.3,0.7 -0.6,0.7 -0.3,0.1 -0.6,-0.1 -0.6,-0.7 l 0,0 z m -0.4,0 c 0,1 0.7,1.1 1,1.1 0.3,0 1,-0.1 1,-1.1 0,-1 -0.7,-1.1 -1,-1.1 -0.3,0 -1,0.1 -1,1.1 l 0,0 z"
             inkscape:connector-curvature="0"
             style="fill:#a58252" /><path
             id="path3606"
             d="m 118.9,111.2 -0.4,0 0,-1.3 -0.2,0 0,-0.3 0.2,0 0,-0.1 c 0,-0.3 0.2,-0.5 0.5,-0.5 0.1,0 0.2,0 0.2,0 l 0,0.3 -0.1,0 c -0.1,0 -0.1,0 -0.1,0.2 l 0,0.1 0.3,0 0,0.3 -0.3,0 -0.1,1.3 0,0 z"
             inkscape:connector-curvature="0"
             style="fill:#a58252" /><path
             id="path3608"
             d="m 119.9,111.2 -0.4,0 0,-1.3 -0.2,0 0,-0.3 0.2,0 0,-0.1 c 0,-0.3 0.2,-0.5 0.5,-0.5 0.1,0 0.2,0 0.2,0 l 0,0.3 -0.2,0 c -0.1,0 -0.1,0 -0.1,0.2 l 0,0.1 0.3,0 0,0.3 -0.3,0 0,1.3 0,0 z"
             inkscape:connector-curvature="0"
             style="fill:#a58252" /><path
             id="path3610"
             d="m 120.7,109.6 0,1.6 -0.4,0 0,-1.6 0.4,0 0,0 z m 0,-0.2 -0.4,0 0,-0.4 0.4,0 0,0.4 0,0 z"
             inkscape:connector-curvature="0"
             style="fill:#a58252" /><path
             id="path3612"
             d="m 122.4,110.6 c 0,0.2 -0.1,0.6 -0.7,0.6 -0.6,0 -0.7,-0.5 -0.7,-0.8 0,-0.5 0.2,-0.9 0.8,-0.9 0.2,0 0.7,0.1 0.7,0.6 l -0.5,0 c 0,-0.1 -0.1,-0.3 -0.3,-0.3 -0.3,0 -0.3,0.3 -0.3,0.5 0,0.2 0,0.5 0.3,0.5 0.2,0 0.3,-0.2 0.3,-0.3 l 0.4,0.1 0,0 z"
             inkscape:connector-curvature="0"
             style="fill:#a58252" /><path
             id="path3614"
             d="m 123.1,109.6 0,1.6 -0.4,0 0,-1.6 0.4,0 0,0 z m 0,-0.2 -0.4,0 0,-0.4 0.4,0 0,0.4 0,0 z"
             inkscape:connector-curvature="0"
             style="fill:#a58252" /><path
             id="path3616"
             d="m 124.3,110.6 c 0,0.2 -0.2,0.3 -0.4,0.3 -0.1,0 -0.2,0 -0.2,-0.2 0,-0.2 0.1,-0.2 0.3,-0.2 0.2,0 0.2,-0.1 0.3,-0.1 l 0,0.2 0,0 z m 0.4,-0.6 c 0,-0.4 -0.4,-0.5 -0.6,-0.5 -0.3,0 -0.7,0.1 -0.7,0.6 l 0.4,0 c 0,-0.1 0,-0.2 0.3,-0.2 0.1,0 0.3,0 0.3,0.2 0,0.1 -0.1,0.1 -0.1,0.1 l -0.4,0.1 c -0.3,0 -0.5,0.2 -0.5,0.5 0,0.3 0.2,0.5 0.5,0.5 0.3,0 0.4,-0.1 0.5,-0.2 0,0.1 0,0.1 0,0.2 l 0.4,0 0,-0.1 c -0.1,0 -0.1,-0.1 -0.1,-0.2 l 0,-1 0,0 z"
             inkscape:connector-curvature="0"
             style="fill:#a58252" /><polygon
             id="polygon3618"
             points="125.4,111.2 125,111.2 125,109.1 125.4,109.1 "
             style="fill:#a58252" /></g></g><path
         id="path3620"
         d="m 120.9,123 c 6.7,0 12.1,-3.7 12.1,-8.2 0,-4.5 -5.4,-8.2 -12.1,-8.2 -6.7,0 -12.1,3.7 -12.1,8.2 0,4.5 5.4,8.2 12.1,8.2 l 0,0 z m -11.8,-8.2 c 0,-4.4 5.3,-7.9 11.8,-7.9 6.5,0 11.8,3.6 11.8,7.9 0,4.3 -5.3,7.9 -11.8,7.9 -6.5,0 -11.8,-3.6 -11.8,-7.9 l 0,0 z"
         inkscape:connector-curvature="0"
         style="fill:#a58252" /><g
         id="g3622"><g
           id="g3624"><path
             id="path3626"
             d="m 128.5,117.5 c 1.4,0 2.6,-1.1 2.6,-2.6 0,-1.4 -1.1,-2.6 -2.6,-2.6 l -15.3,0 c -1.4,0 -2.6,1.1 -2.6,2.6 0,1.4 1.1,2.6 2.6,2.6 l 15.3,0 0,0 z m -15.3,-0.6 c -1,0 -1.9,-0.8 -1.9,-1.9 0,-1 0.8,-1.9 1.9,-1.9 l 15.3,0 c 1,0 1.9,0.8 1.9,1.9 0,1 -0.8,1.9 -1.9,1.9 l -15.3,0 0,0 z"
             inkscape:connector-curvature="0"
             style="fill:#a58252" /><path
             id="path3628"
             d="m 112.5,116.2 0,-2.4 0.8,0 1,1.6 0,-1.6 0.8,0 0,2.4 c 0,0 -0.5,0 -0.8,0 -0.1,-0.1 -1,-1.6 -1,-1.6 l 0,1.6 -0.8,0 0,0 z"
             inkscape:connector-curvature="0"
             style="fill:#a58252" /><path
             id="path3630"
             d="m 117.2,114.6 c 0.1,0 0.1,0 0,0 0.2,0 0.2,0 0.3,0 0.6,-0.2 0.9,0.1 1,0.2 0.3,0.3 0.2,0.9 0.2,1.5 0,0 -0.8,0 -0.8,0 0,0 0,-1 0,-1.1 0,-0.1 -0.2,-0.3 -0.3,-0.3 -0.2,0 -0.4,0.1 -0.4,0.3 0,0.4 0,1.1 0,1.1 l -0.8,0 0,-1.6 0.8,-0.1 0,0 z"
             inkscape:connector-curvature="0"
             style="fill:#a58252" /><polygon
             id="polygon3632"
             points="119.1,116.2 119.1,114.6 118.7,114.6 118.7,114.4 119.1,114.4 119.1,114.2 119.8,114.2 119.8,114.4 120.2,114.4 120.2,114.6 119.8,114.6 119.8,116.2 "
             style="fill:#a58252" /><path
             id="path3634"
             d="m 120.2,115.4 c 0,-0.5 0.5,-0.9 0.9,-0.9 0.2,0 0.4,0 0.6,0.1 0.1,0.1 0.2,0.1 0.3,0.2 0.2,0.2 0.3,0.4 0.3,0.7 l -1.3,0 c 0,0.2 -0.1,0.7 0.2,0.7 0.1,0 0.2,0 0.3,-0.1 0,-0.1 0,-0.2 0,-0.3 0.1,0 0.7,0 0.8,0 -0.2,0.4 -0.6,0.6 -1,0.6 -0.3,-0.2 -1.1,-0.2 -1.1,-1 l 0,0 z m 0.7,-0.3 0.5,0 c 0,-0.1 0,-0.1 0,-0.2 0,-0.1 -0.1,-0.2 -0.3,-0.2 -0.2,0 -0.3,0.1 -0.3,0.3 0.1,0 0.1,0.1 0.1,0.1 l 0,0 z"
             inkscape:connector-curvature="0"
             style="fill:#a58252" /><path
             id="path3636"
             d="m 127.3,115.7 c -0.1,-0.2 -0.2,-0.5 0,-0.8 0.1,-0.2 0.4,-0.4 0.6,-0.5 0.2,-0.1 0.5,-0.1 0.8,0 0.2,0.1 0.5,0.2 0.6,0.5 0.1,0.2 0.1,0.6 0,0.8 -0.1,0.1 -0.3,0.3 -0.5,0.4 -0.2,0.1 -0.6,0.1 -0.8,0 -0.3,0 -0.5,-0.1 -0.7,-0.4 l 0,0 z m 1,0.3 c 0.2,0 0.3,-0.2 0.3,-0.3 0,-0.2 0,-0.5 0,-0.8 0,-0.1 -0.1,-0.3 -0.3,-0.3 -0.3,0 -0.3,0.2 -0.3,0.3 0,0.1 0,0.6 0,0.8 0,0.1 0.1,0.3 0.3,0.3 l 0,0 z"
             inkscape:connector-curvature="0"
             style="fill:#a58252" /><path
             id="path3638"
             d="m 127,116.2 c 0,0 -0.7,0 -0.7,0 0,0 0,-0.1 0,-0.1 -0.2,0.2 -1,0.2 -1.3,-0.4 0,-0.1 -0.1,-0.5 0,-0.7 0.2,-0.4 0.6,-0.5 0.9,-0.5 0.1,0 0.4,0.1 0.4,0.1 l 0,-0.9 0.7,0 c 0,0 0,2.5 0,2.5 l 0,0 z m -0.8,-0.4 c 0,-0.1 0,-0.5 0,-0.8 0,-0.1 0,-0.2 -0.1,-0.2 -0.1,-0.1 -0.1,-0.1 -0.2,-0.1 -0.2,0 -0.2,0.1 -0.2,0.2 0,0.2 0,0.5 0,0.7 0,0.1 0,0.1 0.1,0.2 0.2,0.2 0.4,0.1 0.4,0 l 0,0 z"
             inkscape:connector-curvature="0"
             style="fill:#a58252" /><polygon
             id="polygon3640"
             points="116.2,116.2 116.2,114.6 115.4,114.6 115.4,116.2 "
             style="fill:#a58252" /><polygon
             id="polygon3642"
             points="116.2,114.3 116.2,113.8 115.4,113.8 115.4,114.3 "
             style="fill:#a58252" /><path
             id="path3644"
             d="m 123.3,114.6 c 0,0 0,0 0,0 0.2,0 0.2,0 0.3,0 0.6,-0.2 0.9,0.1 1,0.2 0.3,0.3 0.2,0.9 0.2,1.5 0,0 -0.8,0 -0.8,0 0,0 0,-1 0,-1.1 0,-0.1 -0.2,-0.3 -0.3,-0.3 -0.2,0 -0.4,0.1 -0.4,0.3 0,0.4 0,1.1 0,1.1 l -0.7,0 0,-1.6 0.7,-0.1 0,0 z"
             inkscape:connector-curvature="0"
             style="fill:#a58252" /><path
             id="path3646"
             d="m 128.9,114.3 0,0 -0.1,-0.2 0.1,0 c 0.1,0 0.1,0 0.1,0.1 0,0 0,0.1 -0.1,0.1 l 0.1,0.1 -0.1,0 0,-0.1 0,0 0,0 0,0 z m 0.1,-0.1 c 0,0 0,0 0,0 0,-0.1 0,-0.1 0,0 l 0,0 0,0 0,0 0,0 z m 0,0.2 c -0.1,0 -0.2,-0.1 -0.2,-0.2 0,-0.1 0.1,-0.2 0.2,-0.2 0.1,0 0.2,0.1 0.2,0.2 0,0.1 -0.1,0.2 -0.2,0.2 l 0,0 z m 0,-0.4 c -0.1,0 -0.2,0.1 -0.2,0.2 0,0.1 0.1,0.2 0.2,0.2 l 0,0 c 0.1,0 0.2,-0.1 0.2,-0.2 0,-0.1 -0.1,-0.2 -0.2,-0.2 l 0,0 z"
             inkscape:connector-curvature="0"
             style="fill:#a58252" /></g></g></g><g
       id="g3648"><path
         d="m 108.2,40.5 c -2.9,0 -4.9,-2.1 -4.9,-4.6 0,-2.5 2,-4.6 4.9,-4.6 l 27.6,0 c 2.9,0 4.9,2.1 4.9,4.6 0,2.5 -2,4.6 -4.9,4.6 l -27.6,0 0,0 z"
         id="path452"
         inkscape:connector-curvature="0"
         style="fill:#ed1c24" /><path
         d="m 108.2,32.5 c -2.3,0 -3.7,1.6 -3.7,3.5 0,1.9 1.4,3.5 3.7,3.5 l 27.6,0 c 2.3,0 3.7,-1.6 3.7,-3.5 0,-1.9 -1.4,-3.5 -3.7,-3.5 l -27.6,0 z"
         id="path454"
         inkscape:connector-curvature="0"
         style="fill:#ffffff" /><path
         d="m 107,33.8 1.4,0 1.9,3 0,-3 1.3,0 0,4.3 -1.3,0 -1.9,-3 0,3 -1.4,0 0,-4.3 0,0 z"
         id="path456"
         inkscape:connector-curvature="0"
         style="fill:#ed1c24" /><path
         d="m 118.8,34.2 1.3,0 0,0.6 0.7,0 0,0.4 -0.7,0 0,2.9 -1.3,0 0,-2.9 -0.7,0 0,-0.4 0.7,0 0,-0.6 0,0 z"
         id="path458"
         inkscape:connector-curvature="0"
         style="fill:#ed1c24" /><path
         d="m 112.3,35.2 1.3,0 0,2.9 -1.3,0 0,-2.9 z"
         id="path460"
         inkscape:connector-curvature="0"
         style="fill:#ed1c24" /><path
         d="m 112.3,33.8 1.3,0 0,0.9 -1.3,0 0,-0.9 z"
         id="path462"
         inkscape:connector-curvature="0"
         style="fill:#ed1c24" /><path
         d="m 135.1,35 c -1.1,0 -1.9,0.7 -1.9,1.6 0,0.9 0.9,1.6 1.9,1.6 1.1,0 1.9,-0.7 1.9,-1.6 0.1,-0.9 -0.8,-1.6 -1.9,-1.6 m 0.6,1.6 c 0,0 0,0.4 0,0.6 0,0.5 -0.3,0.6 -0.5,0.6 -0.3,0 -0.5,-0.2 -0.5,-0.6 0,-0.2 0,-0.6 0,-0.6 0,0 0,-0.4 0,-0.6 0,-0.5 0.3,-0.6 0.5,-0.6 0.3,0 0.5,0.2 0.5,0.6 0,0.2 0,0.5 0,0.6 l 0,0 0,0 z"
         id="path464"
         inkscape:connector-curvature="0"
         style="fill:#ed1c24" /><path
         d="m 131.5,36.6 0,-0.5 c 0,-0.4 -0.3,-0.6 -0.5,-0.6 -0.2,0 -0.5,0.1 -0.5,0.6 l 0,0.5 0,0.5 c 0,0.4 0.3,0.6 0.5,0.6 0.2,0 0.5,-0.1 0.5,-0.6 l 0,-0.5 0,0 z m 0,-2.8 1.3,0 0,4.3 -1.3,0 c 0,0 0,-0.1 0,-0.2 -0.5,0.3 -1.1,0.3 -1.5,0.1 -0.1,-0.1 -0.9,-0.4 -0.9,-1.4 0,-0.8 0.7,-1.6 1.7,-1.5 0.3,0 0.5,0.1 0.7,0.3 l 0,-1.6 0,0 z"
         id="path466"
         inkscape:connector-curvature="0"
         style="fill:#ed1c24" /><path
         d="m 116.7,35.1 c 0.5,0 1.5,0.3 1.5,1.4 0,0.2 0,1.6 0,1.6 l -1.3,0 0,-1.9 c 0,-0.3 -0.2,-0.5 -0.6,-0.5 -0.4,0 -0.6,0.3 -0.6,0.5 0,0.1 0,1.9 0,1.9 l -1.3,0 0,-2.9 1.3,0 c 0,0 0,0.2 0,0.3 0.2,-0.2 0.5,-0.4 1,-0.4"
         id="path468"
         inkscape:connector-curvature="0"
         style="fill:#ed1c24" /><path
         d="m 127.3,35.1 c 0.5,0 1.5,0.3 1.5,1.4 0,0.2 0,1.6 0,1.6 l -1.3,0 0,-1.9 c 0,-0.3 -0.2,-0.5 -0.6,-0.5 -0.4,0 -0.6,0.3 -0.6,0.5 0,0.1 0,1.9 0,1.9 l -1.3,0 0,-2.9 1.3,0 c 0,0 0,0.2 0,0.3 0.2,-0.2 0.5,-0.4 1,-0.4"
         id="path470"
         inkscape:connector-curvature="0"
         style="fill:#ed1c24" /><path
         d="m 123.2,37.1 c 0,0 0,0 0,0.2 0,0.5 -0.3,0.6 -0.5,0.6 -0.2,0 -0.5,-0.1 -0.5,-0.6 0,-0.2 0,-0.6 0,-0.6 0,0 2.5,0 2.5,0 0,-0.9 -0.9,-1.6 -1.9,-1.6 -1,0 -1.9,0.7 -1.9,1.6 0,0.9 0.9,1.6 1.9,1.6 0.9,0 1.6,-0.5 1.8,-1.2 l -1.4,0 0,0 z m -1.1,-0.9 c 0,-0.3 0,-0.4 0.1,-0.6 0.1,-0.2 0.3,-0.3 0.5,-0.3 0.2,0 0.4,0.1 0.5,0.3 0.1,0.1 0.1,0.3 0.1,0.6 l -1.2,0 z"
         id="path472"
         inkscape:connector-curvature="0"
         style="fill:#ed1c24" /><path
         d="m 137.3,34.2 c 0.1,0 0.2,0 0.2,-0.2 0,-0.1 -0.1,-0.1 -0.2,-0.1 l -0.2,0 0,0.3 0.2,0 z m -0.2,0.6 -0.1,0 0,-1 0.4,0 c 0.2,0 0.3,0.1 0.3,0.3 0,0.2 -0.1,0.3 -0.3,0.3 l 0.3,0.4 -0.2,0 -0.3,-0.4 -0.2,0 0.1,0.4 0,0 z"
         id="path474"
         inkscape:connector-curvature="0"
         style="fill:#ed1c24" /><path
         d="m 137.3,35 c 0.4,0 0.7,-0.3 0.7,-0.7 0,-0.4 -0.3,-0.7 -0.7,-0.7 -0.4,0 -0.7,0.3 -0.7,0.7 0,0.4 0.3,0.7 0.7,0.7 m -0.8,-0.7 c 0,-0.5 0.4,-0.9 0.9,-0.9 0.5,0 0.9,0.4 0.9,0.9 0,0.5 -0.4,0.9 -0.9,0.9 -0.5,0 -0.9,-0.4 -0.9,-0.9"
         id="path476"
         inkscape:connector-curvature="0"
         style="fill:#ed1c24" /></g><g
       id="g3663"><path
         d="m 327.4,124.2 c -0.8,0 -1.6,0.7 -1.8,1.5 l 0,0 0,0 0,0 0,0 0,0 0,0 0,0 0,0 0,0 0,0 0,0 0,0 0,0 0,0 0,0.1 0,0.1 0,0.1 0,0.1 0,0.1 0,0.1 0,0.1 0,0.1 0,0.3 0,0.1 0,0.1 0,0.1 0,0.1 0,0.1 0,0.1 0,0.1 0,0.1 0,0.1 0,0 0,0 0,0 0,0 0,0 0,0 0,0 0,0 0,0 0,0 c 0,0.4 0,0.9 0.2,1 0.1,0.8 2.8,4.6 2.8,5.1 -0.1,0.6 -0.4,2.3 -0.4,2.3 -0.1,0.6 -0.5,1 -1.1,1 -0.6,0 -1,-0.5 -0.9,-1 l 0.5,-2.8 -2,0 -0.7,3.9 c -0.1,0.8 0.4,1.4 1.2,1.4 l 2.9,0 c 0.8,0 1.6,-0.6 1.7,-1.4 0,0 0.7,-3.6 0.7,-3.9 0,-0.3 -0.1,-0.3 -0.1,-0.3 0,-0.3 -2.4,-4.3 -2.6,-4.4 -0.1,-0.1 -0.2,-0.5 -0.2,-0.7 0,-0.2 0.3,-1.8 0.3,-1.8 0.1,-0.6 0.6,-1 1.2,-1 0.6,0 0.8,0.5 0.7,1 l -0.4,2.5 2,0 0.7,-3.8 c 0.2,-0.8 -0.4,-1.5 -1.2,-1.5 l -3.5,0 z m 5.5,0 -2.4,13.8 c -0.1,0.8 0.4,1.4 1.2,1.4 l 2.9,0 c 0.8,0 1.6,-0.6 1.7,-1.4 l 2.6,-13.8 -1.9,0 -2.4,13.5 c 0,0.2 -0.2,0.4 -0.4,0.4 l -1.4,0 c -0.2,0 -0.3,-0.2 -0.3,-0.4 l 2.4,-13.5 -2,0 z m 6.9,0 -2.9,15.3 1.9,0 1.3,-6.9 2.4,0 c 0.8,0 1.6,-0.6 1.7,-1.4 l 1.1,-5.4 c 0.2,-0.8 -0.4,-1.5 -1.2,-1.5 l -2.4,0 -1.9,0 z m 6.9,0 -3,15.3 4.3,0 0.3,-1.9 -2.1,0 0.9,-5.2 2.1,0 0.3,-1.6 -2.1,0 0.9,-4.7 2.1,0 0.3,-1.9 -4,0 z m 5.1,0 -2.9,15.3 1.9,0 1.3,-6.9 1.4,0 c 0.2,0.2 0.2,0.5 0.2,0.6 0,0.2 0.1,0.5 0,0.7 0,0.2 -1.1,5.5 -1.1,5.5 l 1.9,0 c 0,0 1.1,-5.8 1.1,-5.9 0,-0.1 0,-0.4 -0.1,-0.6 -0.1,-0.1 -0.2,-0.3 -0.3,-0.4 -0.3,-0.2 -0.6,-0.3 -0.6,-0.3 l -0.1,0 c 0.6,-0.2 1.6,-0.6 1.7,-1.2 l 1.1,-5.4 c 0.2,-0.8 -0.4,-1.5 -1.2,-1.5 l -4.3,0 z m 10.3,0 -2.9,15.3 2.2,0 1.8,-8.8 0.7,8.8 1.9,0 2.9,-15.3 -2.2,0 -1.5,8 -1,-8 -1.9,0 z m 7.7,0 -2.9,15.3 1.9,0 2.9,-15.3 -1.9,0 z m 2.9,0 -2.9,15.3 2.2,0 1.8,-8.8 0.7,8.8 1.9,0 2.9,-15.3 -2.2,0 -1.5,8 -1,-8 -1.9,0 z m 7.4,0 -0.4,1.9 1.2,0 -2.4,13.4 2.2,0 2.4,-13.4 1.2,0 0.3,-1.9 -4.5,0 z m 5.3,0 -3,15.3 4.3,0 0.3,-1.9 -2.1,0 0.9,-5.2 2.1,0 0.3,-1.6 -2.1,0 0.9,-4.7 2.1,0 0.3,-1.9 -4,0 z m 4.9,0 -2.9,15.3 2.2,0 1.8,-8.8 0.7,8.8 1.9,0 2.9,-15.3 -2.2,0 -1.5,8 -1,-8 -1.9,0 z m 7.6,0 -2.9,15.3 4.4,0 c 0.8,0 1.6,-0.6 1.7,-1.4 l 2.3,-12.3 c 0.2,-0.8 -0.4,-1.5 -1.2,-1.5 l -4.3,0 z m 8.3,0 c -0.8,0 -1.6,0.7 -1.8,1.5 l -2.1,12.3 c -0.1,0.8 0.4,1.4 1.2,1.4 l 3.2,0 c 0.8,0 1.6,-0.6 1.7,-1.4 l 2.3,-12.3 c 0.2,-0.8 -0.4,-1.5 -1.2,-1.5 l -3.3,0 z m -6.6,1.7 0.9,0 c 0.6,0 1,0.5 0.9,1 l -1.9,10 c -0.1,0.6 -0.6,1 -1.2,1 l -0.9,0 2.2,-12 z m 7.7,0 0,0 c 0.6,0 1,0.5 0.9,1 l -1.8,10 c -0.1,0.6 -0.6,1 -1.2,1 -0.6,0 -0.8,-0.5 -0.7,-1 l 1.8,-10 0,0 0,0 0,-0.1 0,0 0,-0.1 0,0 0,0 0,0 0,0 0,0 0,0 0,0 0,0 0,0 0,0 0,0 0,0 0,0 0,0 0,0 0,0 0,0 0,0 0,0 0,0 0.1,0 0,0 0,0 0,0 0.9,-0.8 0,0 z m -65.6,0.1 0.9,0 c 0.2,0 0.6,0.5 0.6,0.7 l -0.8,3.8 c 0,0.2 -0.3,0.6 -0.5,0.6 l -1.1,0 0,0 0,0 0,0 0,0 0,0 0,0 0,0 0,0 0,0 0,0 0,0 0,0 0,0 0,0 0,0 0,0 0,0 0,0 0,0 0,0 0,0 0,0 0,0 0,0 0,0 0,0 0,0 0,0 c 0,0 0,-0.1 0,-0.1 l 0.9,-4.6 c -0.2,-0.4 -0.1,-0.4 0,-0.4 z m 11.9,0 0,0 0,0 0,0 0,0 0.9,0 c 0.2,0 0.6,0.5 0.6,0.7 l -0.8,3.8 c 0,0.2 -0.5,0.7 -0.7,0.7 l -0.8,0 c -0.2,0 -0.3,-0.1 -0.3,-0.3 0,0 0,-0.1 0,-0.1 l 0.9,-4.6 0,0 0,0 0,0 0,0 0,0 0,0 0,0 0.2,-0.2 0,0 0,0 0,0 0,0 0,0 0,0 0,0 0,0 z m -30.5,14.8 0,5 85.7,0 0,-5 -85.7,0 z m 63,0.5 0,0 0,0 0,0 0,0 0,0 0.7,0 c 0.2,0 0.3,0.1 0.3,0.3 l -0.2,0.8 -0.4,0 0.1,-0.6 c 0,-0.1 -0.1,-0.2 -0.2,-0.2 -0.1,0 -0.2,0.1 -0.3,0.2 l -0.1,0.4 c 0,0 0,0.1 0,0.2 0.1,0 0.6,0.9 0.6,1 0,0 0,0 0,0.1 0,0.1 -0.2,0.9 -0.2,0.9 0,0.2 -0.2,0.3 -0.4,0.3 l -0.6,0 c -0.2,0 -0.3,-0.1 -0.3,-0.3 l 0.2,-0.9 0.4,0 -0.1,0.6 c 0,0.1 0.1,0.2 0.2,0.2 0.1,0 0.3,-0.1 0.3,-0.2 l 0.1,-0.5 c -0.1,-0.2 -0.6,-1 -0.6,-1.1 0,0 0,-0.1 0,-0.2 0,-0.1 0.1,-0.6 0.1,-0.6 l 0,0 0,0 0,0 0,0 0,0 0,0 0,0 0,0 0,0 0,0 0,0 0,0 0,0 0,0 0,0 0,0 0,0 0,0 0,0 0,0 0,0 0,0 0.4,-0.4 0,0 0,0 0,0 0,0 0,0 z m 3.5,0 0.5,0 0.1,1.3 0.7,-1.3 0.5,0 -1.1,2 -0.3,1.4 -0.5,0 0.2,-1.5 -0.1,-1.9 z m 4.9,0 0,0 0,0 0,0 0,0 0,0 0.7,0 c 0.2,0 0.3,0.1 0.3,0.3 l -0.2,0.8 -0.4,0 0.1,-0.6 c 0,-0.1 -0.1,-0.2 -0.2,-0.2 -0.1,0 -0.3,0.1 -0.3,0.2 l -0.1,0.4 c 0,0 0,0.1 0,0.2 0.1,0 0.6,0.9 0.6,1 0,0 0,0 0,0.1 0,0.1 -0.2,0.9 -0.2,0.9 0,0.2 -0.2,0.3 -0.4,0.3 l -0.4,0 c -0.2,0 -0.3,-0.1 -0.3,-0.3 l 0.2,-0.9 0.4,0 -0.1,0.6 c 0,0.1 0.1,0.2 0.2,0.2 0.1,0 0.2,-0.1 0.3,-0.2 l 0.1,-0.5 c -0.1,-0.2 -0.6,-1 -0.6,-1.1 0,0 0,-0.1 0,-0.2 0,-0.1 0.1,-0.6 0.1,-0.6 l 0,0 0,0 0,0 0,0 0,0 0,0 0,0 0,0 0,0 0,0 0,0 0,0 0,0 0,0 0,0 0,0 0,0 0,0 0,0 0,0 0.2,-0.4 0,0 0,0 0,0 0,0 0,0 z m 3.5,0 1,0 -0.1,0.4 -0.3,0 -0.5,3 -0.5,0 0.5,-3 -0.3,0 0.2,-0.4 z m 3.9,0 0.9,0 -0.1,0.4 -0.5,0 -0.2,1.1 0.5,0 -0.1,0.3 -0.4,0 -0.2,1.1 0.5,0 -0.1,0.4 -1,0 0.7,-3.3 z m 3.7,0 0.6,0 0.1,2 0.9,-1.9 0.5,0 -0.6,3.4 -0.4,0 0.3,-1.8 -0.8,1.8 -0.3,0 -0.1,-1.8 -0.3,1.8 -0.5,0 0.6,-3.5 z m -80.6,0.1 0.9,0 -0.1,0.4 -0.5,0 -0.2,1.1 0.5,0 -0.1,0.4 -0.5,0 -0.2,1.1 0.5,0 -0.1,0.4 -1,0 0.8,-3.4 z m 4.1,0 0.4,0 0.2,1.8 0.3,-1.8 0.5,0 -0.6,3.4 -0.4,0 -0.2,-2 -0.4,2 -0.5,0 0.7,-3.4 z m 4.5,0 1,0 -0.1,0.4 -0.3,0 -0.5,3 -0.5,0 0.5,-3 -0.3,0 0.2,-0.4 z m 4.4,0 0.9,0 -0.1,0.4 -0.5,0 -0.2,1.1 0.5,0 -0.1,0.4 -0.5,0 -0.2,1.1 0.5,0 -0.1,0.4 -1,0 0.8,-3.4 z m 4.2,0 1,0 c 0.2,0 0.3,0.2 0.3,0.3 l -0.2,1.2 c 0,0.1 -0.3,0.2 -0.4,0.3 l 0,0 0,0 0,0 0,0 0,0 0,0 0,0 0,0 0,0 0,0 0,0 0,0 0,0 0,0 0,0 0,0 0,0 c 0,0 0,0.1 0,0.2 0,0 -0.2,1.3 -0.2,1.3 l -0.4,0 c 0,0 0.2,-1.2 0.2,-1.2 0,-0.1 0,-0.1 0,-0.2 0,0 0,-0.1 0,-0.1 l -0.3,0 -0.3,1.5 -0.4,0 0.7,-3.3 z m 4.3,0 1,0 -0.1,0.4 -0.3,0 -0.5,3 -0.5,0 0.5,-3 -0.3,0 0.2,-0.4 z m 5,0 0.6,0 -0.2,3.4 -0.6,0 0.1,-0.8 -0.3,0 -0.3,0.8 -0.5,0 1.2,-3.4 z m 4,0 0.4,0 -0.6,3.4 -0.4,0 0.6,-3.4 z m 3.9,0 0.4,0 0.2,1.8 0.3,-1.8 0.5,0 -0.6,3.4 -0.4,0 -0.2,-2 -0.4,2 -0.5,0 0.7,-3.4 z m 5,0 0.6,0 0.1,2 0.9,-2 0.5,0 -0.6,3.4 -0.4,0 0.3,-1.8 -0.8,1.8 -0.3,0 -0.1,-1.8 -0.3,1.8 -0.5,0 0.6,-3.4 z m 5.4,0 0.9,0 -0.1,0.4 -0.5,0 -0.2,1.1 0.5,0 -0.1,0.4 -0.5,0 -0.2,1.1 0.5,0 -0.1,0.4 -0.9,0 0.7,-3.4 z m 4.4,0 0.4,0 0.2,1.8 0.3,-1.8 0.5,0 -0.6,3.4 -0.4,0 -0.2,-2 -0.4,2 -0.5,0 0.7,-3.4 z m 4.4,0 1,0 -0.1,0.4 -0.3,0 -0.5,3 -0.5,0 0.5,-3 -0.3,0 0.2,-0.4 z m -36,0.4 c 0,0 0,0 0,0 l -0.3,1.1 c 0,0 0,0 0,0 0,0 0,0.1 0.1,0.1 l 0.2,0 c 0,0 0.2,-0.1 0.2,-0.1 l 0.2,-0.8 c 0,0 -0.1,-0.2 -0.1,-0.2 l -0.3,-0.1 0,0 z m 8.9,1 -0.3,0.9 0.2,0 0.1,-0.9 z"
         id="polyline2177"
         inkscape:connector-curvature="0"
         style="fill:#c40000" /></g><g
       id="g3666"><rect
         id="rect3668"
         height="1.2"
         width="44.900002"
         y="63.299999"
         x="365"
         style="fill:#7f7f7f" /><rect
         id="rect3670"
         height="1.2"
         width="26.6"
         y="66.400002"
         x="365"
         style="fill:#7f7f7f" /><rect
         id="rect3672"
         height="1.2"
         width="19"
         y="69.5"
         x="365"
         style="fill:#7f7f7f" /><rect
         id="rect3674"
         height="1.2"
         width="13.8"
         y="72.5"
         x="365"
         style="fill:#7f7f7f" /><rect
         id="rect3676"
         height="1.2"
         width="10"
         y="75.400002"
         x="365"
         style="fill:#7f7f7f" /><rect
         id="rect3678"
         height="1.2"
         width="6"
         y="78.400002"
         x="365"
         style="fill:#7f7f7f" /><rect
         id="rect3680"
         height="1.2"
         width="3"
         y="81.400002"
         x="365"
         style="fill:#7f7f7f" /><rect
         id="rect3682"
         height="1.2"
         width="1"
         y="84.400002"
         x="365"
         style="fill:#7f7f7f" /><rect
         id="rect3684"
         height="1.2"
         width="12.9"
         y="66.400002"
         x="397"
         style="fill:#7f7f7f" /><rect
         id="rect3686"
         height="1.2"
         width="20.799999"
         y="69.5"
         x="389.10001"
         style="fill:#7f7f7f" /><rect
         id="rect3688"
         height="1.2"
         width="25.9"
         y="72.5"
         x="384"
         style="fill:#7f7f7f" /><rect
         id="rect3690"
         height="1.2"
         width="29.799999"
         y="75.400002"
         x="380.10001"
         style="fill:#7f7f7f" /><rect
         id="rect3692"
         height="1.2"
         width="2.9000001"
         y="78.400002"
         x="407"
         style="fill:#7f7f7f" /><rect
         id="rect3694"
         height="1.2"
         width="11"
         y="78.400002"
         x="391"
         style="fill:#7f7f7f" /><rect
         id="rect3696"
         height="1.2"
         width="9.8999996"
         y="78.400002"
         x="376"
         style="fill:#7f7f7f" /><rect
         id="rect3698"
         height="1.2"
         width="2.9000001"
         y="81.400002"
         x="407"
         style="fill:#7f7f7f" /><rect
         id="rect3700"
         height="1.2"
         width="6"
         y="81.400002"
         x="391"
         style="fill:#7f7f7f" /><rect
         id="rect3702"
         height="1.2"
         width="8"
         y="81.400002"
         x="373"
         style="fill:#7f7f7f" /><rect
         id="rect3704"
         height="1.2"
         width="4.9000001"
         y="84.400002"
         x="405"
         style="fill:#7f7f7f" /><rect
         id="rect3706"
         height="1.2"
         width="3.8"
         y="84.400002"
         x="389.10001"
         style="fill:#7f7f7f" /><rect
         id="rect3708"
         height="1.2"
         width="6"
         y="84.400002"
         x="371"
         style="fill:#7f7f7f" /><rect
         id="rect3710"
         height="1.2"
         width="7"
         y="87.400002"
         x="403"
         style="fill:#7f7f7f" /><rect
         id="rect3712"
         height="1.2"
         width="4"
         y="87.400002"
         x="387"
         style="fill:#7f7f7f" /><rect
         id="rect3714"
         height="1.2"
         width="7"
         y="87.400002"
         x="368"
         style="fill:#7f7f7f" /><rect
         id="rect3716"
         height="1.2"
         width="9.8999996"
         y="90.400002"
         x="400"
         style="fill:#7f7f7f" /><rect
         id="rect3718"
         height="1.2"
         width="4.9000001"
         y="90.400002"
         x="384"
         style="fill:#7f7f7f" /><rect
         id="rect3720"
         height="1.2"
         width="6.9000001"
         y="90.400002"
         x="366"
         style="fill:#7f7f7f" /><rect
         id="rect3722"
         height="1.2"
         width="44.900002"
         y="96.5"
         x="365"
         style="fill:#7f7f7f" /><rect
         id="rect3724"
         height="1.2"
         width="5.9000001"
         y="99.400002"
         x="404"
         style="fill:#7f7f7f" /><rect
         id="rect3726"
         height="1.2"
         width="8.8000002"
         y="99.400002"
         x="386"
         style="fill:#7f7f7f" /><rect
         id="rect3728"
         height="1.2"
         width="7.8000002"
         y="102.4"
         x="402"
         style="fill:#7f7f7f" /><rect
         id="rect3730"
         height="1.2"
         width="6"
         y="102.4"
         x="385"
         style="fill:#7f7f7f" /><rect
         id="rect3732"
         height="1.2"
         width="9.8000002"
         y="105.4"
         x="400"
         style="fill:#7f7f7f" /><rect
         id="rect3734"
         height="1.2"
         width="6"
         y="105.4"
         x="383"
         style="fill:#7f7f7f" /><rect
         id="rect3736"
         height="1.2"
         width="11.9"
         y="108.4"
         x="398"
         style="fill:#7f7f7f" /><rect
         id="rect3738"
         height="1.2"
         width="5.9000001"
         y="108.4"
         x="381"
         style="fill:#7f7f7f" /><rect
         id="rect3740"
         height="1.2"
         width="14.9"
         y="111.4"
         x="395"
         style="fill:#7f7f7f" /><rect
         id="rect3742"
         height="1.2"
         width="7"
         y="111.4"
         x="378"
         style="fill:#7f7f7f" /><rect
         id="rect3744"
         height="1.2"
         width="19.9"
         y="114.4"
         x="390"
         style="fill:#7f7f7f" /><rect
         id="rect3746"
         height="1.2"
         width="11"
         y="114.4"
         x="374"
         style="fill:#7f7f7f" /><rect
         id="rect3748"
         height="1.2"
         width="44.900002"
         y="117.4"
         x="365"
         style="fill:#7f7f7f" /><rect
         id="rect3750"
         height="1.2"
         width="13"
         y="93.400002"
         x="397"
         style="fill:#7f7f7f" /><rect
         id="rect3752"
         height="1.2"
         width="6.9000001"
         y="93.400002"
         x="365"
         style="fill:#7f7f7f" /><rect
         id="rect3754"
         height="1.2"
         width="7"
         y="93.400002"
         x="381"
         style="fill:#7f7f7f" /><rect
         id="rect3756"
         height="1.2"
         width="13.9"
         y="99.400002"
         x="365"
         style="fill:#7f7f7f" /><rect
         id="rect3758"
         height="1.2"
         width="10"
         y="102.4"
         x="365"
         style="fill:#7f7f7f" /><rect
         id="rect3760"
         height="1.2"
         width="7"
         y="105.4"
         x="365"
         style="fill:#7f7f7f" /><rect
         id="rect3762"
         height="1.2"
         width="3.9000001"
         y="108.4"
         x="365"
         style="fill:#7f7f7f" /><rect
         id="rect3764"
         height="1.2"
         width="2.9000001"
         y="111.4"
         x="365"
         style="fill:#7f7f7f" /><rect
         id="rect3766"
         height="1.2"
         width="2"
         y="114.4"
         x="365"
         style="fill:#7f7f7f" /></g><g
       id="g3768"><path
         id="path3770"
         d="m 105.3,21.6 0,-4.7 1,0 0,3.9 2.4,0 0,0.8 -3.4,0 z"
         inkscape:connector-curvature="0"
         style="fill:#ffffff" /><path
         id="path3772"
         d="m 109.4,21.6 0,-4.8 1,0 0,4.8 -1,0 z"
         inkscape:connector-curvature="0"
         style="fill:#ffffff" /><path
         id="path3774"
         d="m 114.3,19.8 0.9,0.3 c -0.1,0.5 -0.4,0.9 -0.7,1.2 -0.3,0.3 -0.8,0.4 -1.3,0.4 -0.6,0 -1.2,-0.2 -1.6,-0.6 -0.4,-0.4 -0.6,-1 -0.6,-1.8 0,-0.8 0.2,-1.4 0.6,-1.9 0.4,-0.4 1,-0.7 1.6,-0.7 0.6,0 1.1,0.2 1.4,0.5 0.2,0.2 0.4,0.5 0.5,0.9 l -1,0.2 c -0.1,-0.2 -0.2,-0.4 -0.4,-0.6 -0.2,-0.1 -0.4,-0.2 -0.7,-0.2 -0.4,0 -0.6,0.1 -0.9,0.4 -0.2,0.3 -0.3,0.7 -0.3,1.2 0,0.6 0.1,1 0.3,1.3 0.2,0.3 0.5,0.4 0.9,0.4 0.3,0 0.5,-0.1 0.7,-0.2 0.4,-0.2 0.6,-0.4 0.6,-0.8 z"
         inkscape:connector-curvature="0"
         style="fill:#ffffff" /><path
         id="path3776"
         d="m 116.1,21.6 0,-4.8 3.6,0 0,0.8 -2.6,0 0,1.1 2.4,0 0,0.8 -2.4,0 0,1.3 2.7,0 0,0.8 -3.7,0 z"
         inkscape:connector-curvature="0"
         style="fill:#ffffff" /><path
         id="path3778"
         d="m 120.6,21.6 0,-4.8 0.9,0 2,3.2 0,-3.2 0.9,0 0,4.8 -1,0 -1.9,-3.1 0,3.1 -0.9,0 z"
         inkscape:connector-curvature="0"
         style="fill:#ffffff" /><path
         id="path3780"
         d="m 128.5,19.8 0.9,0.3 c -0.1,0.5 -0.4,0.9 -0.7,1.2 -0.3,0.3 -0.8,0.4 -1.3,0.4 -0.6,0 -1.2,-0.2 -1.6,-0.6 -0.4,-0.4 -0.6,-1 -0.6,-1.8 0,-0.8 0.2,-1.4 0.6,-1.9 0.4,-0.4 1,-0.7 1.6,-0.7 0.6,0 1.1,0.2 1.4,0.5 0.2,0.2 0.4,0.5 0.5,0.9 l -1,0.2 c -0.1,-0.2 -0.2,-0.4 -0.4,-0.6 -0.2,-0.1 -0.4,-0.2 -0.7,-0.2 -0.4,0 -0.6,0.1 -0.9,0.4 -0.2,0.3 -0.3,0.7 -0.3,1.2 0,0.6 0.1,1 0.3,1.3 0.2,0.3 0.5,0.4 0.9,0.4 0.3,0 0.5,-0.1 0.7,-0.2 0.4,-0.2 0.6,-0.4 0.6,-0.8 z"
         inkscape:connector-curvature="0"
         style="fill:#ffffff" /><path
         id="path3782"
         d="m 130.3,21.6 0,-4.8 3.6,0 0,0.8 -2.6,0 0,1.1 2.4,0 0,0.8 -2.4,0 0,1.3 2.7,0 0,0.8 -3.7,0 z"
         inkscape:connector-curvature="0"
         style="fill:#ffffff" /><path
         id="path3784"
         d="m 134.8,16.8 1.8,0 c 0.4,0 0.7,0 0.9,0.1 0.3,0.1 0.5,0.2 0.7,0.4 0.2,0.2 0.4,0.5 0.5,0.8 0.1,0.3 0.2,0.7 0.2,1.1 0,0.4 0,0.7 -0.1,1 -0.1,0.3 -0.3,0.6 -0.5,0.8 -0.2,0.2 -0.4,0.3 -0.7,0.4 -0.2,0.1 -0.5,0.1 -0.9,0.1 l -1.8,0 0,-4.7 z m 1,0.8 0,3.2 0.7,0 c 0.3,0 0.5,0 0.6,0 0.2,0 0.3,-0.1 0.4,-0.2 0.1,-0.1 0.2,-0.2 0.3,-0.5 0.1,-0.2 0.1,-0.5 0.1,-0.9 0,-0.4 0,-0.7 -0.1,-0.9 -0.1,-0.2 -0.2,-0.4 -0.3,-0.5 -0.1,-0.1 -0.3,-0.2 -0.4,-0.2 -0.1,0 -0.4,0 -0.8,0 l -0.5,0 z"
         inkscape:connector-curvature="0"
         style="fill:#ffffff" /><path
         id="path3786"
         d="m 117.9,24.8 1.9,0 c 0.4,0 0.7,0 0.9,0 0.2,0 0.4,0.1 0.5,0.2 0.1,0.1 0.3,0.2 0.4,0.4 0.1,0.2 0.1,0.4 0.1,0.6 0,0.2 -0.1,0.4 -0.2,0.6 -0.1,0.2 -0.3,0.3 -0.5,0.4 0.3,0.1 0.5,0.2 0.7,0.4 0.2,0.2 0.2,0.4 0.2,0.7 0,0.2 -0.1,0.4 -0.2,0.6 -0.1,0.2 -0.2,0.4 -0.4,0.5 -0.2,0.1 -0.4,0.2 -0.7,0.2 -0.2,0 -0.6,0 -1.2,0 l -1.6,0 0,-4.6 z m 0.9,0.8 0,1.1 0.6,0 c 0.4,0 0.6,0 0.7,0 0.2,0 0.3,-0.1 0.4,-0.2 0.1,-0.1 0.1,-0.2 0.1,-0.4 0,-0.1 0,-0.3 -0.1,-0.4 -0.1,-0.1 -0.2,-0.1 -0.4,-0.2 -0.1,0 -0.4,0 -0.8,0 l -0.5,0 z m 0,1.9 0,1.3 0.9,0 c 0.4,0 0.6,0 0.7,0 0.1,0 0.3,-0.1 0.4,-0.2 0.1,-0.1 0.1,-0.2 0.1,-0.4 0,-0.1 0,-0.3 -0.1,-0.4 -0.1,-0.1 -0.2,-0.2 -0.3,-0.2 -0.1,0 -0.4,-0.1 -0.9,-0.1 l -0.8,0 z"
         inkscape:connector-curvature="0"
         style="fill:#ffffff" /><path
         id="path3788"
         d="m 124,29.6 0,-2 -1.8,-2.8 1.1,0 1.1,1.9 1.1,-1.9 1.1,0 -1.8,2.8 0,2 -0.8,0 z"
         inkscape:connector-curvature="0"
         style="fill:#ffffff" /></g></g></svg>