<svg xmlns="http://www.w3.org/2000/svg" baseProfile="tiny" viewBox="254 126.8 1120.9 541.2">
  <path fill="#D6D4D4" d="M257.8242 301.2833c-2 0-3.8 1.3-3.8 2.9v361c0 1.6 1.7 2.9 3.8 2.9h1112.9c2 0 3.7-1.3 3.7-2.9v-361c0-1.6-1.7-2.9-3.7-2.9h-1112.9z"/>
  <path fill="#E6E6E6" d="M325.5468 390.5069h37c2 0 3.6 1.6 3.6 3.7v37.1c0 2-1.6 3.7-3.6 3.7h-37c-2 0-3.6-1.6-3.6-3.7v-37.1c0-2.1 1.6-3.7 3.6-3.7"/>
  <path fill="#B3B3B3" d="M270.7574 391.0966h36.5c2 0 3.6 1.6 3.6 3.6v36.5c0 2-1.6 3.6-3.6 3.6h-36.5c-2 0-3.6-1.6-3.6-3.6v-36.5c0-2 1.6-3.6 3.6-3.6m1.1748 54.8353h55.5c3 0 5.5 1.6 5.5 3.6v36.9c0 2-2.4 3.6-5.5 3.6h-55.5c-3 0-5.5-1.6-5.5-3.6v-36.9c0-1.9 2.5-3.6 5.5-3.6m.9591 55.35h64.7c3.5 0 6.4 1.6 6.4 3.6v36.9c0 2-2.8 3.6-6.4 3.6h-64.7c-3.5 0-6.4-1.6-6.4-3.6v-36.9c0-2 2.8-3.6 6.4-3.6m32.3659 55.3875h55.5c3 0 5.5 1.6 5.5 3.6v36.9c0 2-2.4 3.6-5.5 3.6h-55.5c-3 0-5.5-1.6-5.5-3.6v-36.9c0-2 2.4-3.6 5.5-3.6m31.2499 55.3875h37.1c2 0 3.7 1.6 3.7 3.6v36.9c0 2-1.6 3.6-3.7 3.6h-37.1c-2 0-3.7-1.6-3.7-3.6v-36.9c.1-2 1.7-3.6 3.7-3.6"/>
  <path fill="#579D1C" d="M391.9718 612.0194h36.9c2 0 3.6 1.6 3.6 3.6v37c0 2-1.6 3.6-3.6 3.6h-36.9c-2 0-3.6-1.6-3.6-3.6v-37c0-2 1.6-3.6 3.6-3.6"/>
  <path fill="#E6E6E6" d="M380.528 390.5069h37c2 0 3.6 1.6 3.6 3.7v37.1c0 2-1.6 3.7-3.6 3.7h-37c-2 0-3.6-1.6-3.6-3.7v-37.1c0-2.1 1.6-3.7 3.6-3.7m55.7813 0h36.9c2 0 3.6 1.6 3.6 3.7v37.1c0 2-1.6 3.7-3.6 3.7h-36.9c-2 0-3.6-1.6-3.6-3.7v-37.1c-.1-2.1 1.5-3.7 3.6-3.7m55.125 0h36.9c2 0 3.6 1.6 3.6 3.7v37.1c0 2-1.6 3.7-3.6 3.7h-36.9c-2 0-3.6-1.6-3.6-3.7v-37.1c0-2.1 1.6-3.7 3.6-3.7m55.5375 0h36.9c2 0 3.6 1.6 3.6 3.7v37.1c0 2-1.6 3.7-3.6 3.7h-36.9c-2 0-3.6-1.6-3.6-3.7v-37.1c0-2.1 1.6-3.7 3.6-3.7m55.4125 0h36.9c2 0 3.6 1.6 3.6 3.7v37.1c0 2-1.6 3.7-3.6 3.7h-36.9c-2 0-3.6-1.6-3.6-3.7v-37.1c-.1-2.1 1.6-3.7 3.6-3.7m55.4125 0h36.9c2 0 3.6 1.6 3.6 3.7v37.1c0 2-1.6 3.7-3.6 3.7h-36.9c-2 0-3.6-1.6-3.6-3.7v-37.1c-.1-2.1 1.5-3.7 3.6-3.7m54.9812 0h36.9c2 0 3.6 1.6 3.6 3.7v37.1c0 2-1.6 3.7-3.6 3.7h-36.9c-2 0-3.6-1.6-3.6-3.7v-37.1c-.1-2.1 1.5-3.7 3.6-3.7m55.6813 0h36.9c2 0 3.6 1.6 3.6 3.7v37.1c0 2-1.6 3.7-3.6 3.7h-36.9c-2 0-3.6-1.6-3.6-3.7v-37.1c0-2.1 1.6-3.7 3.6-3.7m55.125 0h36.9c2 0 3.6 1.6 3.6 3.7v37.1c0 2-1.6 3.7-3.6 3.7h-36.9c-2 0-3.6-1.6-3.6-3.7v-37.1c0-2.1 1.6-3.7 3.6-3.7m55.5375 0h36.9c2 0 3.6 1.6 3.6 3.7v37.1c0 2-1.6 3.7-3.6 3.7h-36.9c-2 0-3.6-1.6-3.6-3.7v-37.1c0-2.1 1.6-3.7 3.6-3.7m55.4125 0h36.9c2 0 3.6 1.6 3.6 3.7v37.1c0 2-1.6 3.7-3.6 3.7h-36.9c-2 0-3.6-1.6-3.6-3.7v-37.1c0-2.1 1.6-3.7 3.6-3.7m55.35-.538h36.9c2 0 3.6 1.6 3.6 3.7v37.1c0 2-1.6 3.7-3.6 3.7h-36.9c-2 0-3.6-1.6-3.6-3.7v-37.1c-.1-2.1 1.6-3.7 3.6-3.7"/>
  <path fill="#B3B3B3" d="M1045.4609 390.8517h36.5c2 0 3.6 1.6 3.6 3.6v36.5c0 2-1.6 3.6-3.6 3.6h-36.5c-2 0-3.6-1.6-3.6-3.6v-36.5c0-2 1.6-3.6 3.6-3.6"/>
  <path fill="#E6E6E6" d="M347.5718 445.9576h36.9c2 0 3.6 1.6 3.6 3.7v37.1c0 2-1.6 3.7-3.6 3.7h-36.9c-2 0-3.6-1.6-3.6-3.7v-37.1c0-2.1 1.6-3.7 3.6-3.7m55.7813 0h36.9c2 0 3.6 1.6 3.6 3.7v37.1c0 2-1.6 3.7-3.6 3.7h-36.9c-2 0-3.6-1.6-3.6-3.7v-37.1c-.1-2.1 1.6-3.7 3.6-3.7m55.125 0h36.9c2 0 3.6 1.6 3.6 3.7v37.1c0 2-1.6 3.7-3.6 3.7h-36.9c-2 0-3.6-1.6-3.6-3.7v-37.1c0-2.1 1.6-3.7 3.6-3.7m55.5375 0h36.9c2 0 3.6 1.6 3.6 3.7v37.1c0 2-1.6 3.7-3.6 3.7h-36.9c-2 0-3.6-1.6-3.6-3.7v-37.1c0-2.1 1.6-3.7 3.6-3.7m55.4125 0h36.9c2 0 3.6 1.6 3.6 3.7v37.1c0 2-1.6 3.7-3.6 3.7h-36.9c-2 0-3.6-1.6-3.6-3.7v-37.1c0-2.1 1.6-3.7 3.6-3.7m55.4125 0h36.9c2 0 3.6 1.6 3.6 3.7v37.1c0 2-1.6 3.7-3.6 3.7h-36.9c-2 0-3.6-1.6-3.6-3.7v-37.1c-.1-2.1 1.6-3.7 3.6-3.7m54.9812 0h36.9c2 0 3.6 1.6 3.6 3.7v37.1c0 2-1.6 3.7-3.6 3.7h-36.9c-2 0-3.6-1.6-3.6-3.7v-37.1c-.1-2.1 1.5-3.7 3.6-3.7m55.6813 0h37c2 0 3.6 1.6 3.6 3.7v37.1c0 2-1.6 3.7-3.6 3.7h-37c-2 0-3.6-1.6-3.6-3.7v-37.1c0-2.1 1.6-3.7 3.6-3.7m55.125 0h37c2 0 3.6 1.6 3.6 3.7v37.1c0 2-1.6 3.7-3.6 3.7h-37c-2 0-3.6-1.6-3.6-3.7v-37.1c0-2.1 1.6-3.7 3.6-3.7m55.6375 0h36.9c2 0 3.6 1.6 3.6 3.7v37.1c0 2-1.6 3.7-3.6 3.7h-36.9c-2 0-3.6-1.6-3.6-3.7v-37.1c-.1-2.1 1.5-3.7 3.6-3.7m55.3125 0h36.9c2 0 3.6 1.6 3.6 3.7v37.1c0 2-1.6 3.7-3.6 3.7h-36.9c-2 0-3.6-1.6-3.6-3.7v-37.1c0-2.1 1.6-3.7 3.6-3.7m55.35-.638h36.9c2 0 3.6 1.6 3.6 3.7v37.1c0 2-1.6 3.7-3.6 3.7h-36.9c-2 0-3.6-1.6-3.6-3.7v-37.1c0-2 1.6-3.7 3.6-3.7m-598.2813 56.0311h36.9c2 0 3.6 1.6 3.6 3.7v37c0 2-1.6 3.7-3.6 3.7h-36.9c-2 0-3.6-1.6-3.6-3.7v-37.1c0-2 1.6-3.6 3.6-3.6m55.7813 0h36.9c2 0 3.6 1.6 3.6 3.7v37c0 2-1.6 3.7-3.6 3.7h-36.9c-2 0-3.6-1.6-3.6-3.7v-37.1c0-2 1.6-3.6 3.6-3.6m55.125 0h36.9c2 0 3.6 1.6 3.6 3.7v37c0 2-1.6 3.7-3.6 3.7h-36.9c-2 0-3.6-1.6-3.6-3.7v-37.1c0-2 1.6-3.6 3.6-3.6m55.5375 0h36.9c2 0 3.6 1.6 3.6 3.7v37c0 2-1.6 3.7-3.6 3.7h-36.9c-2 0-3.6-1.6-3.6-3.7v-37.1c0-2 1.6-3.6 3.6-3.6m55.4125 0h37c2 0 3.6 1.6 3.6 3.7v37c0 2-1.6 3.7-3.6 3.7h-37c-2 0-3.6-1.6-3.6-3.7v-37.1c0-2 1.6-3.6 3.6-3.6m55.4125 0h36.9c2 0 3.6 1.6 3.6 3.7v37c0 2-1.6 3.7-3.6 3.7h-36.9c-2 0-3.6-1.6-3.6-3.7v-37.1c0-2 1.6-3.6 3.6-3.6m54.9812 0h36.9c2 0 3.6 1.6 3.6 3.7v37c0 2-1.6 3.7-3.6 3.7h-36.9c-2 0-3.6-1.6-3.6-3.7v-37.1c-.1-2 1.6-3.6 3.6-3.6m55.6813 0h36.9c2 0 3.6 1.6 3.6 3.7v37c0 2-1.6 3.7-3.6 3.7h-36.9c-2 0-3.6-1.6-3.6-3.7v-37.1c0-2 1.6-3.6 3.6-3.6m55.225 0h36.9c2 0 3.6 1.6 3.6 3.7v37c0 2-1.6 3.7-3.6 3.7h-36.9c-2 0-3.6-1.6-3.6-3.7v-37.1c-.1-2 1.5-3.6 3.6-3.6m55.5375 0h36.9c2 0 3.6 1.6 3.6 3.7v37c0 2-1.6 3.7-3.6 3.7h-36.9c-2 0-3.6-1.6-3.6-3.7v-37.1c-.1-2 1.6-3.6 3.6-3.6m55.4125 0h36.9c2 0 3.6 1.6 3.6 3.7v37c0 2-1.6 3.7-3.6 3.7h-36.9c-2 0-3.6-1.6-3.6-3.7v-37.1c-.1-2 1.5-3.6 3.6-3.6m55.25-.638h36.9c2 0 3.6 1.6 3.6 3.7v37.1c0 2-1.6 3.7-3.6 3.7h-36.9c-2 0-3.6-1.6-3.6-3.7v-37.1c0-2 1.6-3.7 3.6-3.7m-587.1063 55.8449h36.9c2 0 3.6 1.6 3.6 3.7v37.1c0 2-1.6 3.7-3.6 3.7h-36.9c-2 0-3.6-1.6-3.6-3.7v-37.1c-.1-2.1 1.6-3.7 3.6-3.7m55.6813 0h36.9c2 0 3.6 1.6 3.6 3.7v37.1c0 2-1.6 3.7-3.6 3.7h-36.9c-2 0-3.6-1.6-3.6-3.7v-37.1c0-2.1 1.6-3.7 3.6-3.7m55.225 0h36.9c2 0 3.6 1.6 3.6 3.7v37.1c0 2-1.6 3.7-3.6 3.7h-36.9c-2 0-3.6-1.6-3.6-3.7v-37.1c-.1-2.1 1.5-3.7 3.6-3.7m55.5375 0h36.9c2 0 3.6 1.6 3.6 3.7v37.1c0 2-1.6 3.7-3.6 3.7h-36.9c-2 0-3.6-1.6-3.6-3.7v-37.1c-.1-2.1 1.6-3.7 3.6-3.7m55.4125 0h36.9c2 0 3.6 1.6 3.6 3.7v37.1c0 2-1.6 3.7-3.6 3.7h-36.9c-2 0-3.6-1.6-3.6-3.7v-37.1c-.1-2.1 1.5-3.7 3.6-3.7m55.3125 0h36.9c2 0 3.6 1.6 3.6 3.7v37.1c0 2-1.6 3.7-3.6 3.7h-36.9c-2 0-3.6-1.6-3.6-3.7v-37.1c0-2.1 1.6-3.7 3.6-3.7m54.9812 0h36.9c2 0 3.6 1.6 3.6 3.7v37.1c0 2-1.6 3.7-3.6 3.7h-36.9c-2 0-3.6-1.6-3.6-3.7v-37.1c0-2.1 1.6-3.7 3.6-3.7m55.7813 0h36.9c2 0 3.6 1.6 3.6 3.7v37.1c0 2-1.6 3.7-3.6 3.7h-36.9c-2 0-3.6-1.6-3.6-3.7v-37.1c-.1-2.1 1.6-3.7 3.6-3.7m55.125 0h36.9c2 0 3.6 1.6 3.6 3.7v37.1c0 2-1.6 3.7-3.6 3.7h-36.9c-2 0-3.6-1.6-3.6-3.7v-37.1c0-2.1 1.6-3.7 3.6-3.7m55.5375 0h36.9c2 0 3.6 1.6 3.6 3.7v37.1c0 2-1.6 3.7-3.6 3.7h-36.9c-2 0-3.6-1.6-3.6-3.7v-37.1c0-2.1 1.6-3.7 3.6-3.7m55.4125 0h36.9c2 0 3.6 1.6 3.6 3.7v37.1c0 2-1.6 3.7-3.6 3.7h-36.9c-2 0-3.6-1.6-3.6-3.7v-37.1c-.1-2.1 1.6-3.7 3.6-3.7"/>
  <path fill="#579D1C" d="M945.5468 612.066h37c2 0 3.6 1.6 3.6 3.6v37c0 2-1.6 3.6-3.6 3.6h-37c-2 0-3.6-1.6-3.6-3.6v-37c0-2 1.6-3.6 3.6-3.6"/>
  <path fill="#E6E6E6" d="M927.026 656.3194c2 0 3.6-1.6 3.6-3.7v-37.1c0-2-1.6-3.7-3.6-3.7h-479.6c-2 0-3.6 1.6-3.6 3.7v37.1c0 2 1.6 3.7 3.6 3.7h479.6z"/>
  <path fill="#B3B3B3" d="M991.6447 556.6694h55.5c3 0 5.5 1.6 5.5 3.6v36.9c0 2-2.4 3.6-5.5 3.6h-55.5c-3 0-5.5-1.6-5.5-3.6v-36.9c.1-2 2.5-3.6 5.5-3.6M1082.08 446.019c2 0 3.6 1.6 3.6 3.6v92.3c0 2-1.6 3.6-3.6 3.6h-59.2c-2 0-3.6-1.6-3.6-3.6v-48c0-2-1.6-3.6-3.6-3.6h-3.6c-2 0-3.6-1.6-3.6-3.6v-37.2c0-2 1.6-3.6 3.6-3.6l70 .1"/>
  <path fill="#E6E6E6" d="M1155.8968 335.8463h36.9c2 0 3.6 1.6 3.6 3.7v37.1c0 2-1.6 3.7-3.6 3.7h-36.9c-2 0-3.6-1.6-3.6-3.7v-37.2c-.1-2 1.6-3.6 3.6-3.6m55.4125 0h36.9c2 0 3.6 1.6 3.6 3.7v37.1c0 2-1.6 3.7-3.6 3.7h-36.9c-2 0-3.6-1.6-3.6-3.7v-37.2c-.1-2 1.5-3.6 3.6-3.6m55.25-.6379h36.9c2 0 3.6 1.6 3.6 3.7v37.1c0 2-1.6 3.7-3.6 3.7h-36.9c-2 0-3.6-1.6-3.6-3.7v-37.1c0-2 1.6-3.7 3.6-3.7"/>
  <path fill="#B3B3B3" d="M1322.136 336.1911h36.5c2 0 3.6 1.6 3.6 3.6v36.5c0 2-1.6 3.6-3.6 3.6h-36.5c-2 0-3.6-1.6-3.6-3.6v-36.5c0-2 1.7-3.6 3.6-3.6"/>
  <path fill="#E6E6E6" d="M1155.8968 390.931h36.9c2 0 3.6 1.6 3.6 3.7v37.1c0 2-1.6 3.7-3.6 3.7h-36.9c-2 0-3.6-1.6-3.6-3.7v-37.1c-.1-2 1.6-3.7 3.6-3.7m55.4125 0h36.9c2 0 3.6 1.6 3.6 3.7v37.1c0 2-1.6 3.7-3.6 3.7h-36.9c-2 0-3.6-1.6-3.6-3.7v-37.1c-.1-2 1.5-3.7 3.6-3.7m55.25-.538h36.9c2 0 3.6 1.6 3.6 3.7v37.1c0 2-1.6 3.7-3.6 3.7h-36.9c-2 0-3.6-1.6-3.6-3.7v-37.1c0-2.1 1.6-3.7 3.6-3.7"/>
  <path fill="#B3B3B3" d="M1322.136 391.2758h36.5c2 0 3.6 1.6 3.6 3.6v36.5c0 2-1.6 3.6-3.6 3.6h-36.5c-2 0-3.6-1.6-3.6-3.6v-36.5c0-2 1.7-3.6 3.6-3.6"/>
  <path fill="#E6E6E6" d="M1155.8968 446.4524h36.9c2 0 3.6 1.6 3.6 3.7v37.1c0 2-1.6 3.7-3.6 3.7h-36.9c-2 0-3.6-1.6-3.6-3.7v-37.1c-.1-2.1 1.6-3.7 3.6-3.7m55.4126 0h36.9c2 0 3.6 1.6 3.6 3.7v37.1c0 2-1.6 3.7-3.6 3.7h-36.9c-2 0-3.6-1.6-3.6-3.7v-37.1c-.1-2.1 1.5-3.7 3.6-3.7m55.25-.5379h36.9c2 0 3.6 1.6 3.6 3.7v37.1c0 2-1.6 3.7-3.6 3.7h-36.9c-2 0-3.6-1.6-3.6-3.7v-37.1c0-2.1 1.6-3.7 3.6-3.7"/>
  <path fill="#B3B3B3" d="M1322.136 446.7973h36.5c2 0 3.6 1.6 3.6 3.6v36.5c0 2-1.6 3.6-3.6 3.6h-36.5c-2 0-3.6-1.6-3.6-3.6v-36.5c0-2 1.7-3.6 3.6-3.6"/>
  <path fill="#E6E6E6" d="M1156.1201 501.5134h36.9c2 0 3.6 1.6 3.6 3.7v37.1c0 2-1.6 3.7-3.6 3.7h-36.9c-2 0-3.6-1.6-3.6-3.7v-37.1c0-2.1 1.6-3.7 3.6-3.7m55.4125 0h36.9c2 0 3.6 1.6 3.6 3.7v37.1c0 2-1.6 3.7-3.6 3.7h-36.9c-2 0-3.6-1.6-3.6-3.7v-37.1c0-2.1 1.6-3.7 3.6-3.7m55.35-.638h36.9c2 0 3.6 1.6 3.6 3.7v37.1c0 2-1.6 3.7-3.6 3.7h-36.9c-2 0-3.6-1.6-3.6-3.7v-37.1c-.1-2 1.6-3.7 3.6-3.7"/>
  <path fill="#B3B3B3" d="M1322.4592 501.8582h36.5c2 0 3.6 1.6 3.6 3.6v36.5c0 2-1.6 3.6-3.6 3.6h-36.5c-2 0-3.6-1.6-3.6-3.6v-36.5c0-2 1.6-3.6 3.6-3.6m-240.176-166.7013c2 0 3.6-1.6 3.6-3.6v-15c0-2-1.6-3.6-3.6-3.6h-59.2c-2 0-3.6 1.6-3.6 3.6v15c0 2 1.6 3.6 3.6 3.6h59.2zm-71.9625 0c2 0 3.6-1.6 3.6-3.6v-15c0-2-1.6-3.6-3.6-3.6h-59.2c-2 0-3.6 1.6-3.6 3.6v15c0 2 1.6 3.6 3.6 3.6h59.2zm-71.9626 0c2 0 3.6-1.6 3.6-3.6v-15c0-2-1.6-3.6-3.6-3.6h-59.2c-2 0-3.6 1.6-3.6 3.6v15c0 2 1.6 3.6 3.6 3.6h59.2zm-72.025 0c2 0 3.6-1.6 3.6-3.6v-15c0-2-1.6-3.6-3.6-3.6h-59.2c-2 0-3.6 1.6-3.6 3.6v15c0 2 1.6 3.6 3.6 3.6h59.2z"/>
  <path fill="#F00" d="M794.4331 335.1569c2 0 3.6-1.6 3.6-3.6v-15c0-2-1.6-3.6-3.6-3.6h-59.2c-2 0-3.6 1.6-3.6 3.6v15c0 2 1.6 3.6 3.6 3.6h59.2z"/>
  <path fill="#B3B3B3" d="M617.2831 335.0768c2 0 3.6-1.6 3.6-3.6v-15c0-2-1.6-3.6-3.6-3.6h-59.2c-2 0-3.6 1.6-3.6 3.6v15c0 2 1.6 3.6 3.6 3.6h59.2zm-71.9978.0801c2 0 3.6-1.6 3.6-3.6v-15c0-2-1.6-3.6-3.6-3.6h-59.2c-2 0-3.6 1.6-3.6 3.6v15c0 2 1.6 3.6 3.6 3.6h59.2zm-72.1522 0c2 0 3.6-1.6 3.6-3.6v-15c0-2-1.6-3.6-3.6-3.6h-59.2c-2 0-3.6 1.6-3.6 3.6v15c0 2 1.6 3.6 3.6 3.6h59.2zm-71.8-.0082c2 0 3.6-1.6 3.6-3.6v-15c0-2-1.6-3.6-3.6-3.6h-59.2c-2 0-3.6 1.6-3.6 3.6v15c0 2 1.6 3.6 3.6 3.6h59.2zm-71.9978 0c2 0 3.6-1.6 3.6-3.6v-15c0-2-1.6-3.6-3.6-3.6h-59.2c-2 0-3.6 1.6-3.6 3.6v15c0 2 1.6 3.6 3.6 3.6h59.2z"/>
  <path fill="#2323DC" d="M1196.5863 656.2819l11.1-49.8-11.1-49.9h-40.8c-2 0-3.6 1.6-3.6 3.6v92.6c0 2 1.6 3.6 3.6 3.6l40.8-.1z"/>
  <path fill="#FFF" d="M1169.3863 618.5385l-12.1-12.1 12.1-12.1v24.2zm-11-12.1l10.1 10.1v-20.3l-10.1 10.2z"/>
  <path fill="#2323DC" d="M1318.4239 556.6135l-11.1 49.8 11.1 49.9h40.8c2 0 3.6-1.6 3.6-3.6v-92.6c0-2-1.6-3.6-3.6-3.6l-40.8.1z"/>
  <path fill="#FFF" d="M1345.6239 618.4569v-24.1l12.1 12.1-12.1 12zm.8-22.1v20.3l10.1-10.1-10.1-10.2z"/>
  <path fill="#2323DC" d="M1207.9221 556.5576h99.7l-11.1 44.4h-77.5l-11.1-44.4z"/>
  <path fill="#FFF" d="M1269.8221 573.6826h-24.1l12.1-12.1 12 12.1zm-22.2-.8h20.3l-10.1-10.1-10.2 10.1z"/>
  <path fill="#2323DC" d="M1307.5721 656.3194h-99.7l11.1-44.4h77.5l11.1 44.4z"/>
  <path fill="#FFF" d="M1257.7721 651.2944l-12.1-12.1h24.1l-12 12.1zm-10.1-11.3l10.1 10.1 10.1-10.1h-20.2z"/>
  <path fill="#D6D4D4" d="M258.2992 126.828c-2 0-3.8.6-3.8 1.3v160.7c0 .7 1.7 1.3 3.8 1.3h1112.9c2 0 3.7-.6 3.7-1.3v-160.7c0-.7-1.7-1.3-3.7-1.3h-1112.9z"/>
  <path fill="#B7B7B7" d="M1021.4924 220.2706c-1.1 0-2.1.9-2.1 2.1v41.1c0 1.1.9 2.1 2.1 2.1h246.1c1.1 0 2.1-.9 2.1-2.1v-41.1c0-1.1-.9-2.1-2.1-2.1h-246.1z"/>
  <path fill="#545353" d="M1211.5494 256.5886h-180c-1.1 0-2.1-.9-2.1-2.1v-23.2c0-1.1.9-2.1 2.1-2.1h180c1.1 0 2.1.9 2.1 2.1v23.2c0 1.2-.9 2.1-2.1 2.1zm-180-26.3c-.6 0-1.1.5-1.1 1.1v23.2c0 .6.5 1.1 1.1 1.1h180c.6 0 1.1-.5 1.1-1.1v-23.2c0-.6-.5-1.1-1.1-1.1h-180z"/>
  <path fill="#4F4D4D" d="M1244.9374 230.3806c6.9 0 12.5 5.6 12.5 12.5s-5.6 12.5-12.5 12.5-12.5-5.6-12.5-12.5 5.6-12.5 12.5-12.5"/>
  <path fill="#545353" d="M1055.7 233.6h1.5v18.6h-1.5zm131.1 0h1.5v18.6h-1.5z"/>
  <path fill="#B7B7B7" d="M1021.4924 153.4661c-1.1 0-2.1.9-2.1 2.1v41.1c0 1.1.9 2.1 2.1 2.1h246.1c1.1 0 2.1-.9 2.1-2.1v-41.1c0-1.1-.9-2.1-2.1-2.1h-246.1z"/>
  <path fill="#545353" d="M1211.5494 189.6841h-180c-1.1 0-2.1-.9-2.1-2.1v-23.2c0-1.1.9-2.1 2.1-2.1h180c1.1 0 2.1.9 2.1 2.1v23.2c0 1.2-.9 2.1-2.1 2.1zm-180-26.3c-.6 0-1.1.5-1.1 1.1v23.2c0 .6.5 1.1 1.1 1.1h180c.6 0 1.1-.5 1.1-1.1v-23.2c0-.6-.5-1.1-1.1-1.1h-180z"/>
  <path fill="#4F4D4D" d="M1244.9374 163.5761c6.9 0 12.5 5.6 12.5 12.5s-5.6 12.5-12.5 12.5-12.5-5.6-12.5-12.5 5.6-12.5 12.5-12.5"/>
  <path fill="#545353" d="M1055.7 166.7h1.5v18.6h-1.5zm131.1 0h1.5v18.6h-1.5z"/>
  <path fill="#515050" d="M362.2841 167.5224c-.7 0-1.2 1-1.2 2.1v3.3c0 1.1.6 2.1 1.2 2.1h5.8c.7 0 1.2-.9 1.2-2.1v-3.3c0-1.1-.6-2.1-1.2-2.1h-5.8zm0 12.75c-.7 0-1.2 1-1.2 2.1v3.3c0 1.1.6 2.1 1.2 2.1h5.8c.7 0 1.2-.9 1.2-2.1v-3.3c0-1.1-.6-2.1-1.2-2.1h-5.8zm0 12.85c-.7 0-1.2 1-1.2 2.1v3.3c0 1.1.6 2.1 1.2 2.1h5.8c.7 0 1.2-.9 1.2-2.1v-3.3c0-1.1-.6-2.1-1.2-2.1h-5.8zm0 12.75c-.7 0-1.2 1-1.2 2.1v3.3c0 1.1.6 2.1 1.2 2.1h5.8c.7 0 1.2-.9 1.2-2.1v-3.3c0-1.1-.6-2.1-1.2-2.1h-5.8zm0 12.85c-.7 0-1.2 1-1.2 2.1v3.3c0 1.1.6 2.1 1.2 2.1h5.8c.7 0 1.2-.9 1.2-2.1v-3.3c0-1.1-.6-2.1-1.2-2.1h-5.8zm0 12.85c-.7 0-1.2 1-1.2 2.1v3.3c0 1.1.6 2.1 1.2 2.1h5.8c.7 0 1.2-.9 1.2-2.1v-3.3c0-1.1-.6-2.1-1.2-2.1h-5.8zm0 12.75c-.7 0-1.2 1-1.2 2.1v3.3c0 1.1.6 2.1 1.2 2.1h5.8c.7 0 1.2-.9 1.2-2.1v-3.3c0-1.1-.6-2.1-1.2-2.1h-5.8zm13.1-76.8c-.7 0-1.2 1-1.2 2.1v3.3c0 1.1.6 2.1 1.2 2.1h5.8c.7 0 1.2-.9 1.2-2.1v-3.3c0-1.1-.6-2.1-1.2-2.1h-5.8zm0 12.75c-.7 0-1.2 1-1.2 2.1v3.3c0 1.1.6 2.1 1.2 2.1h5.8c.7 0 1.2-.9 1.2-2.1v-3.3c0-1.1-.6-2.1-1.2-2.1h-5.8zm0 12.85c-.7 0-1.2 1-1.2 2.1v3.3c0 1.1.6 2.1 1.2 2.1h5.8c.7 0 1.2-.9 1.2-2.1v-3.3c0-1.1-.6-2.1-1.2-2.1h-5.8zm0 12.75c-.7 0-1.2 1-1.2 2.1v3.3c0 1.1.6 2.1 1.2 2.1h5.8c.7 0 1.2-.9 1.2-2.1v-3.3c0-1.1-.6-2.1-1.2-2.1h-5.8zm0 12.85c-.7 0-1.2 1-1.2 2.1v3.3c0 1.1.6 2.1 1.2 2.1h5.8c.7 0 1.2-.9 1.2-2.1v-3.3c0-1.1-.6-2.1-1.2-2.1h-5.8zm0 12.85c-.7 0-1.2 1-1.2 2.1v3.3c0 1.1.6 2.1 1.2 2.1h5.8c.7 0 1.2-.9 1.2-2.1v-3.3c0-1.1-.6-2.1-1.2-2.1h-5.8zm0 12.75c-.7 0-1.2 1-1.2 2.1v3.3c0 1.1.6 2.1 1.2 2.1h5.8c.7 0 1.2-.9 1.2-2.1v-3.3c0-1.1-.6-2.1-1.2-2.1h-5.8zm13.1-76.8c-.7 0-1.2 1-1.2 2.1v3.3c0 1.1.6 2.1 1.2 2.1h5.8c.7 0 1.2-.9 1.2-2.1v-3.3c0-1.1-.6-2.1-1.2-2.1h-5.8zm0 12.75c-.7 0-1.2 1-1.2 2.1v3.3c0 1.1.6 2.1 1.2 2.1h5.8c.7 0 1.2-.9 1.2-2.1v-3.3c0-1.1-.6-2.1-1.2-2.1h-5.8zm0 12.85c-.7 0-1.2 1-1.2 2.1v3.3c0 1.1.6 2.1 1.2 2.1h5.8c.7 0 1.2-.9 1.2-2.1v-3.3c0-1.1-.6-2.1-1.2-2.1h-5.8zm0 12.75c-.7 0-1.2 1-1.2 2.1v3.3c0 1.1.6 2.1 1.2 2.1h5.8c.7 0 1.2-.9 1.2-2.1v-3.3c0-1.1-.6-2.1-1.2-2.1h-5.8zm0 12.85c-.7 0-1.2 1-1.2 2.1v3.3c0 1.1.6 2.1 1.2 2.1h5.8c.7 0 1.2-.9 1.2-2.1v-3.3c0-1.1-.6-2.1-1.2-2.1h-5.8zm0 12.85c-.7 0-1.2 1-1.2 2.1v3.3c0 1.1.6 2.1 1.2 2.1h5.8c.7 0 1.2-.9 1.2-2.1v-3.3c0-1.1-.6-2.1-1.2-2.1h-5.8zm0 12.75c-.7 0-1.2 1-1.2 2.1v3.3c0 1.1.6 2.1 1.2 2.1h5.8c.7 0 1.2-.9 1.2-2.1v-3.3c0-1.1-.6-2.1-1.2-2.1h-5.8zm13.1-76.8c-.7 0-1.2 1-1.2 2.1v3.3c0 1.1.6 2.1 1.2 2.1h5.8c.7 0 1.2-.9 1.2-2.1v-3.3c0-1.1-.6-2.1-1.2-2.1h-5.8zm0 12.75c-.7 0-1.2 1-1.2 2.1v3.3c0 1.1.6 2.1 1.2 2.1h5.8c.7 0 1.2-.9 1.2-2.1v-3.3c0-1.1-.6-2.1-1.2-2.1h-5.8zm0 12.85c-.7 0-1.2 1-1.2 2.1v3.3c0 1.1.6 2.1 1.2 2.1h5.8c.7 0 1.2-.9 1.2-2.1v-3.3c0-1.1-.6-2.1-1.2-2.1h-5.8zm0 12.75c-.7 0-1.2 1-1.2 2.1v3.3c0 1.1.6 2.1 1.2 2.1h5.8c.7 0 1.2-.9 1.2-2.1v-3.3c0-1.1-.6-2.1-1.2-2.1h-5.8zm0 12.85c-.7 0-1.2 1-1.2 2.1v3.3c0 1.1.6 2.1 1.2 2.1h5.8c.7 0 1.2-.9 1.2-2.1v-3.3c0-1.1-.6-2.1-1.2-2.1h-5.8zm0 12.85c-.7 0-1.2 1-1.2 2.1v3.3c0 1.1.6 2.1 1.2 2.1h5.8c.7 0 1.2-.9 1.2-2.1v-3.3c0-1.1-.6-2.1-1.2-2.1h-5.8zm0 12.75c-.7 0-1.2 1-1.2 2.1v3.3c0 1.1.6 2.1 1.2 2.1h5.8c.7 0 1.2-.9 1.2-2.1v-3.3c0-1.1-.6-2.1-1.2-2.1h-5.8zm13.2-76.8c-.7 0-1.2 1-1.2 2.1v3.3c0 1.1.6 2.1 1.2 2.1h5.8c.7 0 1.2-.9 1.2-2.1v-3.3c0-1.1-.6-2.1-1.2-2.1h-5.8zm0 12.75c-.7 0-1.2 1-1.2 2.1v3.3c0 1.1.6 2.1 1.2 2.1h5.8c.7 0 1.2-.9 1.2-2.1v-3.3c0-1.1-.6-2.1-1.2-2.1h-5.8zm0 12.85c-.7 0-1.2 1-1.2 2.1v3.3c0 1.1.6 2.1 1.2 2.1h5.8c.7 0 1.2-.9 1.2-2.1v-3.3c0-1.1-.6-2.1-1.2-2.1h-5.8zm0 12.75c-.7 0-1.2 1-1.2 2.1v3.3c0 1.1.6 2.1 1.2 2.1h5.8c.7 0 1.2-.9 1.2-2.1v-3.3c0-1.1-.6-2.1-1.2-2.1h-5.8zm0 12.85c-.7 0-1.2 1-1.2 2.1v3.3c0 1.1.6 2.1 1.2 2.1h5.8c.7 0 1.2-.9 1.2-2.1v-3.3c0-1.1-.6-2.1-1.2-2.1h-5.8zm0 12.85c-.7 0-1.2 1-1.2 2.1v3.3c0 1.1.6 2.1 1.2 2.1h5.8c.7 0 1.2-.9 1.2-2.1v-3.3c0-1.1-.6-2.1-1.2-2.1h-5.8zm0 12.75c-.7 0-1.2 1-1.2 2.1v3.3c0 1.1.6 2.1 1.2 2.1h5.8c.7 0 1.2-.9 1.2-2.1v-3.3c0-1.1-.6-2.1-1.2-2.1h-5.8zm13.1-76.8c-.7 0-1.2 1-1.2 2.1v3.3c0 1.1.6 2.1 1.2 2.1h5.8c.7 0 1.2-.9 1.2-2.1v-3.3c0-1.1-.6-2.1-1.2-2.1h-5.8zm0 12.75c-.7 0-1.2 1-1.2 2.1v3.3c0 1.1.6 2.1 1.2 2.1h5.8c.7 0 1.2-.9 1.2-2.1v-3.3c0-1.1-.6-2.1-1.2-2.1h-5.8zm0 12.85c-.7 0-1.2 1-1.2 2.1v3.3c0 1.1.6 2.1 1.2 2.1h5.8c.7 0 1.2-.9 1.2-2.1v-3.3c0-1.1-.6-2.1-1.2-2.1h-5.8zm0 12.75c-.7 0-1.2 1-1.2 2.1v3.3c0 1.1.6 2.1 1.2 2.1h5.8c.7 0 1.2-.9 1.2-2.1v-3.3c0-1.1-.6-2.1-1.2-2.1h-5.8zm0 12.85c-.7 0-1.2 1-1.2 2.1v3.3c0 1.1.6 2.1 1.2 2.1h5.8c.7 0 1.2-.9 1.2-2.1v-3.3c0-1.1-.6-2.1-1.2-2.1h-5.8zm0 12.85c-.7 0-1.2 1-1.2 2.1v3.3c0 1.1.6 2.1 1.2 2.1h5.8c.7 0 1.2-.9 1.2-2.1v-3.3c0-1.1-.6-2.1-1.2-2.1h-5.8zm0 12.75c-.7 0-1.2 1-1.2 2.1v3.3c0 1.1.6 2.1 1.2 2.1h5.8c.7 0 1.2-.9 1.2-2.1v-3.3c0-1.1-.6-2.1-1.2-2.1h-5.8zm13.1-76.8c-.7 0-1.2 1-1.2 2.1v3.3c0 1.1.6 2.1 1.2 2.1h5.8c.7 0 1.2-.9 1.2-2.1v-3.3c0-1.1-.6-2.1-1.2-2.1h-5.8zm0 12.75c-.7 0-1.2 1-1.2 2.1v3.3c0 1.1.6 2.1 1.2 2.1h5.8c.7 0 1.2-.9 1.2-2.1v-3.3c0-1.1-.6-2.1-1.2-2.1h-5.8zm0 12.85c-.7 0-1.2 1-1.2 2.1v3.3c0 1.1.6 2.1 1.2 2.1h5.8c.7 0 1.2-.9 1.2-2.1v-3.3c0-1.1-.6-2.1-1.2-2.1h-5.8zm0 12.75c-.7 0-1.2 1-1.2 2.1v3.3c0 1.1.6 2.1 1.2 2.1h5.8c.7 0 1.2-.9 1.2-2.1v-3.3c0-1.1-.6-2.1-1.2-2.1h-5.8zm0 12.85c-.7 0-1.2 1-1.2 2.1v3.3c0 1.1.6 2.1 1.2 2.1h5.8c.7 0 1.2-.9 1.2-2.1v-3.3c0-1.1-.6-2.1-1.2-2.1h-5.8zm0 12.85c-.7 0-1.2 1-1.2 2.1v3.3c0 1.1.6 2.1 1.2 2.1h5.8c.7 0 1.2-.9 1.2-2.1v-3.3c0-1.1-.6-2.1-1.2-2.1h-5.8zm0 12.75c-.7 0-1.2 1-1.2 2.1v3.3c0 1.1.6 2.1 1.2 2.1h5.8c.7 0 1.2-.9 1.2-2.1v-3.3c0-1.1-.6-2.1-1.2-2.1h-5.8zm13.1-76.8c-.7 0-1.2 1-1.2 2.1v3.3c0 1.1.6 2.1 1.2 2.1h5.8c.7 0 1.2-.9 1.2-2.1v-3.3c0-1.1-.6-2.1-1.2-2.1h-5.8zm0 12.75c-.7 0-1.2 1-1.2 2.1v3.3c0 1.1.6 2.1 1.2 2.1h5.8c.7 0 1.2-.9 1.2-2.1v-3.3c0-1.1-.6-2.1-1.2-2.1h-5.8zm0 12.85c-.7 0-1.2 1-1.2 2.1v3.3c0 1.1.6 2.1 1.2 2.1h5.8c.7 0 1.2-.9 1.2-2.1v-3.3c0-1.1-.6-2.1-1.2-2.1h-5.8zm0 12.75c-.7 0-1.2 1-1.2 2.1v3.3c0 1.1.6 2.1 1.2 2.1h5.8c.7 0 1.2-.9 1.2-2.1v-3.3c0-1.1-.6-2.1-1.2-2.1h-5.8zm0 12.85c-.7 0-1.2 1-1.2 2.1v3.3c0 1.1.6 2.1 1.2 2.1h5.8c.7 0 1.2-.9 1.2-2.1v-3.3c0-1.1-.6-2.1-1.2-2.1h-5.8zm0 12.85c-.7 0-1.2 1-1.2 2.1v3.3c0 1.1.6 2.1 1.2 2.1h5.8c.7 0 1.2-.9 1.2-2.1v-3.3c0-1.1-.6-2.1-1.2-2.1h-5.8zm0 12.75c-.7 0-1.2 1-1.2 2.1v3.3c0 1.1.6 2.1 1.2 2.1h5.8c.7 0 1.2-.9 1.2-2.1v-3.3c0-1.1-.6-2.1-1.2-2.1h-5.8zm13.2-76.8c-.7 0-1.2 1-1.2 2.1v3.3c0 1.1.6 2.1 1.2 2.1h5.8c.7 0 1.2-.9 1.2-2.1v-3.3c0-1.1-.6-2.1-1.2-2.1h-5.8zm0 12.75c-.7 0-1.2 1-1.2 2.1v3.3c0 1.1.6 2.1 1.2 2.1h5.8c.7 0 1.2-.9 1.2-2.1v-3.3c0-1.1-.6-2.1-1.2-2.1h-5.8zm0 12.85c-.7 0-1.2 1-1.2 2.1v3.3c0 1.1.6 2.1 1.2 2.1h5.8c.7 0 1.2-.9 1.2-2.1v-3.3c0-1.1-.6-2.1-1.2-2.1h-5.8zm0 12.75c-.7 0-1.2 1-1.2 2.1v3.3c0 1.1.6 2.1 1.2 2.1h5.8c.7 0 1.2-.9 1.2-2.1v-3.3c0-1.1-.6-2.1-1.2-2.1h-5.8zm0 12.85c-.7 0-1.2 1-1.2 2.1v3.3c0 1.1.6 2.1 1.2 2.1h5.8c.7 0 1.2-.9 1.2-2.1v-3.3c0-1.1-.6-2.1-1.2-2.1h-5.8zm0 12.85c-.7 0-1.2 1-1.2 2.1v3.3c0 1.1.6 2.1 1.2 2.1h5.8c.7 0 1.2-.9 1.2-2.1v-3.3c0-1.1-.6-2.1-1.2-2.1h-5.8zm0 12.75c-.7 0-1.2 1-1.2 2.1v3.3c0 1.1.6 2.1 1.2 2.1h5.8c.7 0 1.2-.9 1.2-2.1v-3.3c0-1.1-.6-2.1-1.2-2.1h-5.8zm13.1-76.8c-.7 0-1.2 1-1.2 2.1v3.3c0 1.1.6 2.1 1.2 2.1h5.8c.7 0 1.2-.9 1.2-2.1v-3.3c0-1.1-.6-2.1-1.2-2.1h-5.8zm0 12.75c-.7 0-1.2 1-1.2 2.1v3.3c0 1.1.6 2.1 1.2 2.1h5.8c.7 0 1.2-.9 1.2-2.1v-3.3c0-1.1-.6-2.1-1.2-2.1h-5.8zm0 12.85c-.7 0-1.2 1-1.2 2.1v3.3c0 1.1.6 2.1 1.2 2.1h5.8c.7 0 1.2-.9 1.2-2.1v-3.3c0-1.1-.6-2.1-1.2-2.1h-5.8zm0 12.75c-.7 0-1.2 1-1.2 2.1v3.3c0 1.1.6 2.1 1.2 2.1h5.8c.7 0 1.2-.9 1.2-2.1v-3.3c0-1.1-.6-2.1-1.2-2.1h-5.8zm0 12.85c-.7 0-1.2 1-1.2 2.1v3.3c0 1.1.6 2.1 1.2 2.1h5.8c.7 0 1.2-.9 1.2-2.1v-3.3c0-1.1-.6-2.1-1.2-2.1h-5.8zm0 12.85c-.7 0-1.2 1-1.2 2.1v3.3c0 1.1.6 2.1 1.2 2.1h5.8c.7 0 1.2-.9 1.2-2.1v-3.3c0-1.1-.6-2.1-1.2-2.1h-5.8zm0 12.75c-.7 0-1.2 1-1.2 2.1v3.3c0 1.1.6 2.1 1.2 2.1h5.8c.7 0 1.2-.9 1.2-2.1v-3.3c0-1.1-.6-2.1-1.2-2.1h-5.8zm13.1-76.8c-.7 0-1.2 1-1.2 2.1v3.3c0 1.1.6 2.1 1.2 2.1h5.8c.7 0 1.2-.9 1.2-2.1v-3.3c0-1.1-.6-2.1-1.2-2.1h-5.8zm0 12.75c-.7 0-1.2 1-1.2 2.1v3.3c0 1.1.6 2.1 1.2 2.1h5.8c.7 0 1.2-.9 1.2-2.1v-3.3c0-1.1-.6-2.1-1.2-2.1h-5.8zm0 12.85c-.7 0-1.2 1-1.2 2.1v3.3c0 1.1.6 2.1 1.2 2.1h5.8c.7 0 1.2-.9 1.2-2.1v-3.3c0-1.1-.6-2.1-1.2-2.1h-5.8zm0 12.75c-.7 0-1.2 1-1.2 2.1v3.3c0 1.1.6 2.1 1.2 2.1h5.8c.7 0 1.2-.9 1.2-2.1v-3.3c0-1.1-.6-2.1-1.2-2.1h-5.8zm0 12.85c-.7 0-1.2 1-1.2 2.1v3.3c0 1.1.6 2.1 1.2 2.1h5.8c.7 0 1.2-.9 1.2-2.1v-3.3c0-1.1-.6-2.1-1.2-2.1h-5.8zm0 12.85c-.7 0-1.2 1-1.2 2.1v3.3c0 1.1.6 2.1 1.2 2.1h5.8c.7 0 1.2-.9 1.2-2.1v-3.3c0-1.1-.6-2.1-1.2-2.1h-5.8zm0 12.75c-.7 0-1.2 1-1.2 2.1v3.3c0 1.1.6 2.1 1.2 2.1h5.8c.7 0 1.2-.9 1.2-2.1v-3.3c0-1.1-.6-2.1-1.2-2.1h-5.8zm13.1-76.8c-.7 0-1.2 1-1.2 2.1v3.3c0 1.1.6 2.1 1.2 2.1h5.8c.7 0 1.2-.9 1.2-2.1v-3.3c0-1.1-.6-2.1-1.2-2.1h-5.8zm0 12.75c-.7 0-1.2 1-1.2 2.1v3.3c0 1.1.6 2.1 1.2 2.1h5.8c.7 0 1.2-.9 1.2-2.1v-3.3c0-1.1-.6-2.1-1.2-2.1h-5.8zm0 12.85c-.7 0-1.2 1-1.2 2.1v3.3c0 1.1.6 2.1 1.2 2.1h5.8c.7 0 1.2-.9 1.2-2.1v-3.3c0-1.1-.6-2.1-1.2-2.1h-5.8zm0 12.75c-.7 0-1.2 1-1.2 2.1v3.3c0 1.1.6 2.1 1.2 2.1h5.8c.7 0 1.2-.9 1.2-2.1v-3.3c0-1.1-.6-2.1-1.2-2.1h-5.8zm0 12.85c-.7 0-1.2 1-1.2 2.1v3.3c0 1.1.6 2.1 1.2 2.1h5.8c.7 0 1.2-.9 1.2-2.1v-3.3c0-1.1-.6-2.1-1.2-2.1h-5.8zm0 12.85c-.7 0-1.2 1-1.2 2.1v3.3c0 1.1.6 2.1 1.2 2.1h5.8c.7 0 1.2-.9 1.2-2.1v-3.3c0-1.1-.6-2.1-1.2-2.1h-5.8zm0 12.75c-.7 0-1.2 1-1.2 2.1v3.3c0 1.1.6 2.1 1.2 2.1h5.8c.7 0 1.2-.9 1.2-2.1v-3.3c0-1.1-.6-2.1-1.2-2.1h-5.8zm13.2-76.8c-.7 0-1.2 1-1.2 2.1v3.3c0 1.1.6 2.1 1.2 2.1h5.8c.7 0 1.2-.9 1.2-2.1v-3.3c0-1.1-.6-2.1-1.2-2.1h-5.8zm0 12.75c-.7 0-1.2 1-1.2 2.1v3.3c0 1.1.6 2.1 1.2 2.1h5.8c.7 0 1.2-.9 1.2-2.1v-3.3c0-1.1-.6-2.1-1.2-2.1h-5.8zm0 12.85c-.7 0-1.2 1-1.2 2.1v3.3c0 1.1.6 2.1 1.2 2.1h5.8c.7 0 1.2-.9 1.2-2.1v-3.3c0-1.1-.6-2.1-1.2-2.1h-5.8zm0 12.75c-.7 0-1.2 1-1.2 2.1v3.3c0 1.1.6 2.1 1.2 2.1h5.8c.7 0 1.2-.9 1.2-2.1v-3.3c0-1.1-.6-2.1-1.2-2.1h-5.8zm0 12.85c-.7 0-1.2 1-1.2 2.1v3.3c0 1.1.6 2.1 1.2 2.1h5.8c.7 0 1.2-.9 1.2-2.1v-3.3c0-1.1-.6-2.1-1.2-2.1h-5.8zm0 12.85c-.7 0-1.2 1-1.2 2.1v3.3c0 1.1.6 2.1 1.2 2.1h5.8c.7 0 1.2-.9 1.2-2.1v-3.3c0-1.1-.6-2.1-1.2-2.1h-5.8zm0 12.75c-.7 0-1.2 1-1.2 2.1v3.3c0 1.1.6 2.1 1.2 2.1h5.8c.7 0 1.2-.9 1.2-2.1v-3.3c0-1.1-.6-2.1-1.2-2.1h-5.8zm13.1-76.8c-.7 0-1.2 1-1.2 2.1v3.3c0 1.1.6 2.1 1.2 2.1h5.8c.7 0 1.2-.9 1.2-2.1v-3.3c0-1.1-.6-2.1-1.2-2.1h-5.8zm0 12.75c-.7 0-1.2 1-1.2 2.1v3.3c0 1.1.6 2.1 1.2 2.1h5.8c.7 0 1.2-.9 1.2-2.1v-3.3c0-1.1-.6-2.1-1.2-2.1h-5.8zm0 12.85c-.7 0-1.2 1-1.2 2.1v3.3c0 1.1.6 2.1 1.2 2.1h5.8c.7 0 1.2-.9 1.2-2.1v-3.3c0-1.1-.6-2.1-1.2-2.1h-5.8zm0 12.75c-.7 0-1.2 1-1.2 2.1v3.3c0 1.1.6 2.1 1.2 2.1h5.8c.7 0 1.2-.9 1.2-2.1v-3.3c0-1.1-.6-2.1-1.2-2.1h-5.8zm0 12.85c-.7 0-1.2 1-1.2 2.1v3.3c0 1.1.6 2.1 1.2 2.1h5.8c.7 0 1.2-.9 1.2-2.1v-3.3c0-1.1-.6-2.1-1.2-2.1h-5.8zm0 12.85c-.7 0-1.2 1-1.2 2.1v3.3c0 1.1.6 2.1 1.2 2.1h5.8c.7 0 1.2-.9 1.2-2.1v-3.3c0-1.1-.6-2.1-1.2-2.1h-5.8zm0 12.75c-.7 0-1.2 1-1.2 2.1v3.3c0 1.1.6 2.1 1.2 2.1h5.8c.7 0 1.2-.9 1.2-2.1v-3.3c0-1.1-.6-2.1-1.2-2.1h-5.8zm13.1-76.8c-.7 0-1.2 1-1.2 2.1v3.3c0 1.1.6 2.1 1.2 2.1h5.8c.7 0 1.2-.9 1.2-2.1v-3.3c0-1.1-.6-2.1-1.2-2.1h-5.8zm0 12.75c-.7 0-1.2 1-1.2 2.1v3.3c0 1.1.6 2.1 1.2 2.1h5.8c.7 0 1.2-.9 1.2-2.1v-3.3c0-1.1-.6-2.1-1.2-2.1h-5.8zm0 12.85c-.7 0-1.2 1-1.2 2.1v3.3c0 1.1.6 2.1 1.2 2.1h5.8c.7 0 1.2-.9 1.2-2.1v-3.3c0-1.1-.6-2.1-1.2-2.1h-5.8zm0 12.75c-.7 0-1.2 1-1.2 2.1v3.3c0 1.1.6 2.1 1.2 2.1h5.8c.7 0 1.2-.9 1.2-2.1v-3.3c0-1.1-.6-2.1-1.2-2.1h-5.8zm0 12.85c-.7 0-1.2 1-1.2 2.1v3.3c0 1.1.6 2.1 1.2 2.1h5.8c.7 0 1.2-.9 1.2-2.1v-3.3c0-1.1-.6-2.1-1.2-2.1h-5.8zm0 12.85c-.7 0-1.2 1-1.2 2.1v3.3c0 1.1.6 2.1 1.2 2.1h5.8c.7 0 1.2-.9 1.2-2.1v-3.3c0-1.1-.6-2.1-1.2-2.1h-5.8zm0 12.75c-.7 0-1.2 1-1.2 2.1v3.3c0 1.1.6 2.1 1.2 2.1h5.8c.7 0 1.2-.9 1.2-2.1v-3.3c0-1.1-.6-2.1-1.2-2.1h-5.8zm13.1-76.8c-.7 0-1.2 1-1.2 2.1v3.3c0 1.1.6 2.1 1.2 2.1h5.8c.7 0 1.2-.9 1.2-2.1v-3.3c0-1.1-.6-2.1-1.2-2.1h-5.8zm0 12.75c-.7 0-1.2 1-1.2 2.1v3.3c0 1.1.6 2.1 1.2 2.1h5.8c.7 0 1.2-.9 1.2-2.1v-3.3c0-1.1-.6-2.1-1.2-2.1h-5.8zm0 12.85c-.7 0-1.2 1-1.2 2.1v3.3c0 1.1.6 2.1 1.2 2.1h5.8c.7 0 1.2-.9 1.2-2.1v-3.3c0-1.1-.6-2.1-1.2-2.1h-5.8zm0 12.75c-.7 0-1.2 1-1.2 2.1v3.3c0 1.1.6 2.1 1.2 2.1h5.8c.7 0 1.2-.9 1.2-2.1v-3.3c0-1.1-.6-2.1-1.2-2.1h-5.8zm0 12.85c-.7 0-1.2 1-1.2 2.1v3.3c0 1.1.6 2.1 1.2 2.1h5.8c.7 0 1.2-.9 1.2-2.1v-3.3c0-1.1-.6-2.1-1.2-2.1h-5.8zm0 12.85c-.7 0-1.2 1-1.2 2.1v3.3c0 1.1.6 2.1 1.2 2.1h5.8c.7 0 1.2-.9 1.2-2.1v-3.3c0-1.1-.6-2.1-1.2-2.1h-5.8zm0 12.75c-.7 0-1.2 1-1.2 2.1v3.3c0 1.1.6 2.1 1.2 2.1h5.8c.7 0 1.2-.9 1.2-2.1v-3.3c0-1.1-.6-2.1-1.2-2.1h-5.8zm13.2-76.8c-.7 0-1.2 1-1.2 2.1v3.3c0 1.1.6 2.1 1.2 2.1h5.8c.7 0 1.2-.9 1.2-2.1v-3.3c0-1.1-.6-2.1-1.2-2.1h-5.8zm0 12.75c-.7 0-1.2 1-1.2 2.1v3.3c0 1.1.6 2.1 1.2 2.1h5.8c.7 0 1.2-.9 1.2-2.1v-3.3c0-1.1-.6-2.1-1.2-2.1h-5.8zm0 12.85c-.7 0-1.2 1-1.2 2.1v3.3c0 1.1.6 2.1 1.2 2.1h5.8c.7 0 1.2-.9 1.2-2.1v-3.3c0-1.1-.6-2.1-1.2-2.1h-5.8zm0 12.75c-.7 0-1.2 1-1.2 2.1v3.3c0 1.1.6 2.1 1.2 2.1h5.8c.7 0 1.2-.9 1.2-2.1v-3.3c0-1.1-.6-2.1-1.2-2.1h-5.8zm0 12.85c-.7 0-1.2 1-1.2 2.1v3.3c0 1.1.6 2.1 1.2 2.1h5.8c.7 0 1.2-.9 1.2-2.1v-3.3c0-1.1-.6-2.1-1.2-2.1h-5.8zm0 12.85c-.7 0-1.2 1-1.2 2.1v3.3c0 1.1.6 2.1 1.2 2.1h5.8c.7 0 1.2-.9 1.2-2.1v-3.3c0-1.1-.6-2.1-1.2-2.1h-5.8zm0 12.75c-.7 0-1.2 1-1.2 2.1v3.3c0 1.1.6 2.1 1.2 2.1h5.8c.7 0 1.2-.9 1.2-2.1v-3.3c0-1.1-.6-2.1-1.2-2.1h-5.8zm13.1-76.8c-.7 0-1.2 1-1.2 2.1v3.3c0 1.1.6 2.1 1.2 2.1h5.8c.7 0 1.2-.9 1.2-2.1v-3.3c0-1.1-.6-2.1-1.2-2.1h-5.8zm0 12.75c-.7 0-1.2 1-1.2 2.1v3.3c0 1.1.6 2.1 1.2 2.1h5.8c.7 0 1.2-.9 1.2-2.1v-3.3c0-1.1-.6-2.1-1.2-2.1h-5.8zm0 12.85c-.7 0-1.2 1-1.2 2.1v3.3c0 1.1.6 2.1 1.2 2.1h5.8c.7 0 1.2-.9 1.2-2.1v-3.3c0-1.1-.6-2.1-1.2-2.1h-5.8zm0 12.75c-.7 0-1.2 1-1.2 2.1v3.3c0 1.1.6 2.1 1.2 2.1h5.8c.7 0 1.2-.9 1.2-2.1v-3.3c0-1.1-.6-2.1-1.2-2.1h-5.8zm0 12.85c-.7 0-1.2 1-1.2 2.1v3.3c0 1.1.6 2.1 1.2 2.1h5.8c.7 0 1.2-.9 1.2-2.1v-3.3c0-1.1-.6-2.1-1.2-2.1h-5.8zm0 12.85c-.7 0-1.2 1-1.2 2.1v3.3c0 1.1.6 2.1 1.2 2.1h5.8c.7 0 1.2-.9 1.2-2.1v-3.3c0-1.1-.6-2.1-1.2-2.1h-5.8zm0 12.75c-.7 0-1.2 1-1.2 2.1v3.3c0 1.1.6 2.1 1.2 2.1h5.8c.7 0 1.2-.9 1.2-2.1v-3.3c0-1.1-.6-2.1-1.2-2.1h-5.8z"/>
  <path fill="none" stroke="#545353" stroke-miterlimit="10" d="M949.9602 146.898c0-.9-1.1-1.6-2.5-1.6m-.0053 126.3093c1.4 0 2.5-.7 2.5-1.6m-292.6159.055c0 .9 1.1 1.6 2.5 1.6m.0037-126.3094c-1.4 0-2.5.7-2.5 1.6"/>
  <path fill="#545353" d="M656.839 146.898h1v123.2h-1zm3.0037 124.2093h287.6v1h-287.6zm.2282-126.2544h287.4v1h-287.4zm289.3893 2.0094h1v123.2h-1z"/>
  <path fill="#515050" d="M942.2 158.2H665v-4.7h277.2v4.7zm.2 9.2H665.2v-4.7h277.2v4.7zm-.2 9.1H665v-4.7h277.2v4.7zm.1 9.2H665.1V181h277.2v4.7zm-.2 9.2H664.9v-4.7h277.2v4.7zm.1 9.2H665v-4.7h277.2v4.7zm.2 9.1H665.2v-4.7h277.2v4.7zm.1 9.2H665.3v-4.7h277.2v4.7zm-.6 9.2H664.8v-4.7H942v4.7zm0 30H664.8v-22.5H942v22.5z"/>
  <path fill="#B7B7B7" d="M257.8242 301.2819h1113.4v-11.2h-1113v11.2"/>
  <path fill="#221F1F" d="M1360.0169 270.908h3.5v-1.7h-3.5v-3.9h-1.7v3.9h-3.5v1.7h3.5v3.9h1.7v-3.9zM1346.7 274.7h-33.9V261h33.9v13.7z"/>
  <path fill="#D6D4D4" d="M1343.9938 262.9682l-3.2 4.7 3.5 5.1h-3.2l-1.9-2.8-1.9 2.8h-3.2c.1-.2 3.5-5.2 3.5-5.2l-1.5-2h-6.2c-.3 0-.6-.1-.8.3-.1.1-.1.3 0 .4 0 .1.2.2.3.3h2.7c1.2 0 2.2.7 2.7 1.8.4.9.4 2.1-.1 2.9-.6 1.1-1.7 1.6-2.9 1.6h-6.9l-1.1-3.8-1.1 3.8h-2.5l-1-3.8-1.1 3.8h-2.8s2.6-9.2 2.7-9.8h2.4l1.1 4.1 1.1-4.1h2.3l2 7.2h4.6c.3 0 .8.1.9-.3 0-.2 0-.4-.1-.5-.1-.1-.3-.1-.4-.1h-2.6c-1.2 0-2.3-.8-2.8-1.9-.5-1.1-.2-2.5.7-3.4.6-.6 1.3-.9 2.2-1h8.1l1.6 2.4 1.7-2.4h3.2z"/>
  <path fill="#221F1F" d="M1350.7548 272.7654c.2-1.2 3.2-1.9 3.2-4.4 0-2.4-1.7-3.1-3.2-3.1-1.5 0-3.1 1.1-3.1 3v.7h2.2v-.5c0-.6.3-1 .9-1 .5 0 .8.3.8 1 0 1.5-2.5 2.1-3.6 3.9-.4.8-.5 2.4-.5 2.4h6.2v-1.9h-2.9z"/>
</svg>
