<svg xmlns="http://www.w3.org/2000/svg" viewBox="254 126.8 1473.4975 541.2553">
  <defs>
    <clipPath id="a">
      <path d="M0 143.379h228.894V0H0v143.379z"/>
    </clipPath>
  </defs>
  <path fill="#d6d4d4" d="M257.8 301.25530305c-2 0-3.8 1.3-3.8 2.9v361c0 1.6 1.7 2.9 3.8 2.9h1112.9c2 0 3.7-1.3 3.7-2.9v-361c0-1.6-1.7-2.9-3.7-2.9H257.8z"/>
  <path fill="#e6e6e6" d="M325.5226 390.47890305h37c2 0 3.6 1.6 3.6 3.7v37.1c0 2-1.6 3.7-3.6 3.7h-37c-2 0-3.6-1.6-3.6-3.7v-37.1c0-2.1 1.6-3.7 3.6-3.7"/>
  <path fill="#b3b3b3" d="M270.7332 391.06860305h36.5c2 0 3.6 1.6 3.6 3.6v36.5c0 2-1.6 3.6-3.6 3.6h-36.5c-2 0-3.6-1.6-3.6-3.6v-36.5c0-2 1.6-3.6 3.6-3.6m1.1748 54.8353h55.5c3 0 5.5 1.6 5.5 3.6v36.9c0 2-2.4 3.6-5.5 3.6h-55.5c-3 0-5.5-1.6-5.5-3.6v-36.9c0-1.9 2.5-3.6 5.5-3.6m.9591 55.35h64.7c3.5 0 6.4 1.6 6.4 3.6v36.9c0 2-2.8 3.6-6.4 3.6h-64.7c-3.5 0-6.4-1.6-6.4-3.6v-36.9c0-2 2.8-3.6 6.4-3.6m32.3659 55.3875h55.5c3 0 5.5 1.6 5.5 3.6v36.9c0 2-2.4 3.6-5.5 3.6h-55.5c-3 0-5.5-1.6-5.5-3.6v-36.9c0-2 2.4-3.6 5.5-3.6m31.2499 55.3875h37.1c2 0 3.7 1.6 3.7 3.6v36.9c0 2-1.6 3.6-3.7 3.6h-37.1c-2 0-3.7-1.6-3.7-3.6v-36.9c.1-2 1.7-3.6 3.7-3.6"/>
  <path fill="#579d1c" d="M391.9476 611.99140305h36.9c2 0 3.6 1.6 3.6 3.6v37c0 2-1.6 3.6-3.6 3.6h-36.9c-2 0-3.6-1.6-3.6-3.6v-37c0-2 1.6-3.6 3.6-3.6"/>
  <path fill="#e6e6e6" d="M380.5038 390.47890305h37c2 0 3.6 1.6 3.6 3.7v37.1c0 2-1.6 3.7-3.6 3.7h-37c-2 0-3.6-1.6-3.6-3.7v-37.1c0-2.1 1.6-3.7 3.6-3.7m55.7813 0h36.9c2 0 3.6 1.6 3.6 3.7v37.1c0 2-1.6 3.7-3.6 3.7h-36.9c-2 0-3.6-1.6-3.6-3.7v-37.1c-.1-2.1 1.5-3.7 3.6-3.7m55.125 0h36.9c2 0 3.6 1.6 3.6 3.7v37.1c0 2-1.6 3.7-3.6 3.7h-36.9c-2 0-3.6-1.6-3.6-3.7v-37.1c0-2.1 1.6-3.7 3.6-3.7m55.5375 0h36.9c2 0 3.6 1.6 3.6 3.7v37.1c0 2-1.6 3.7-3.6 3.7h-36.9c-2 0-3.6-1.6-3.6-3.7v-37.1c0-2.1 1.6-3.7 3.6-3.7m55.4125 0h36.9c2 0 3.6 1.6 3.6 3.7v37.1c0 2-1.6 3.7-3.6 3.7h-36.9c-2 0-3.6-1.6-3.6-3.7v-37.1c-.1-2.1 1.6-3.7 3.6-3.7m55.4125 0h36.9c2 0 3.6 1.6 3.6 3.7v37.1c0 2-1.6 3.7-3.6 3.7h-36.9c-2 0-3.6-1.6-3.6-3.7v-37.1c-.1-2.1 1.5-3.7 3.6-3.7m54.9812 0h36.9c2 0 3.6 1.6 3.6 3.7v37.1c0 2-1.6 3.7-3.6 3.7h-36.9c-2 0-3.6-1.6-3.6-3.7v-37.1c-.1-2.1 1.5-3.7 3.6-3.7m55.6813 0h36.9c2 0 3.6 1.6 3.6 3.7v37.1c0 2-1.6 3.7-3.6 3.7h-36.9c-2 0-3.6-1.6-3.6-3.7v-37.1c0-2.1 1.6-3.7 3.6-3.7m55.125 0h36.9c2 0 3.6 1.6 3.6 3.7v37.1c0 2-1.6 3.7-3.6 3.7h-36.9c-2 0-3.6-1.6-3.6-3.7v-37.1c0-2.1 1.6-3.7 3.6-3.7m55.5375 0h36.9c2 0 3.6 1.6 3.6 3.7v37.1c0 2-1.6 3.7-3.6 3.7h-36.9c-2 0-3.6-1.6-3.6-3.7v-37.1c0-2.1 1.6-3.7 3.6-3.7m55.4125 0h36.9c2 0 3.6 1.6 3.6 3.7v37.1c0 2-1.6 3.7-3.6 3.7h-36.9c-2 0-3.6-1.6-3.6-3.7v-37.1c0-2.1 1.6-3.7 3.6-3.7m55.35-.538h36.9c2 0 3.6 1.6 3.6 3.7v37.1c0 2-1.6 3.7-3.6 3.7h-36.9c-2 0-3.6-1.6-3.6-3.7v-37.1c-.1-2.1 1.6-3.7 3.6-3.7"/>
  <path fill="#b3b3b3" d="M1045.4367 390.82370305h36.5c2 0 3.6 1.6 3.6 3.6v36.5c0 2-1.6 3.6-3.6 3.6h-36.5c-2 0-3.6-1.6-3.6-3.6v-36.5c0-2 1.6-3.6 3.6-3.6"/>
  <path fill="#e6e6e6" d="M347.5476 445.92960305h36.9c2 0 3.6 1.6 3.6 3.7v37.1c0 2-1.6 3.7-3.6 3.7h-36.9c-2 0-3.6-1.6-3.6-3.7v-37.1c0-2.1 1.6-3.7 3.6-3.7m55.7813 0h36.9c2 0 3.6 1.6 3.6 3.7v37.1c0 2-1.6 3.7-3.6 3.7h-36.9c-2 0-3.6-1.6-3.6-3.7v-37.1c-.1-2.1 1.6-3.7 3.6-3.7m55.125 0h36.9c2 0 3.6 1.6 3.6 3.7v37.1c0 2-1.6 3.7-3.6 3.7h-36.9c-2 0-3.6-1.6-3.6-3.7v-37.1c0-2.1 1.6-3.7 3.6-3.7m55.5375 0h36.9c2 0 3.6 1.6 3.6 3.7v37.1c0 2-1.6 3.7-3.6 3.7h-36.9c-2 0-3.6-1.6-3.6-3.7v-37.1c0-2.1 1.6-3.7 3.6-3.7m55.4125 0h36.9c2 0 3.6 1.6 3.6 3.7v37.1c0 2-1.6 3.7-3.6 3.7h-36.9c-2 0-3.6-1.6-3.6-3.7v-37.1c0-2.1 1.6-3.7 3.6-3.7m55.4125 0h36.9c2 0 3.6 1.6 3.6 3.7v37.1c0 2-1.6 3.7-3.6 3.7h-36.9c-2 0-3.6-1.6-3.6-3.7v-37.1c-.1-2.1 1.6-3.7 3.6-3.7m54.9812 0h36.9c2 0 3.6 1.6 3.6 3.7v37.1c0 2-1.6 3.7-3.6 3.7h-36.9c-2 0-3.6-1.6-3.6-3.7v-37.1c-.1-2.1 1.5-3.7 3.6-3.7m55.6813 0h37c2 0 3.6 1.6 3.6 3.7v37.1c0 2-1.6 3.7-3.6 3.7h-37c-2 0-3.6-1.6-3.6-3.7v-37.1c0-2.1 1.6-3.7 3.6-3.7m55.125 0h37c2 0 3.6 1.6 3.6 3.7v37.1c0 2-1.6 3.7-3.6 3.7h-37c-2 0-3.6-1.6-3.6-3.7v-37.1c0-2.1 1.6-3.7 3.6-3.7m55.6375 0h36.9c2 0 3.6 1.6 3.6 3.7v37.1c0 2-1.6 3.7-3.6 3.7h-36.9c-2 0-3.6-1.6-3.6-3.7v-37.1c-.1-2.1 1.5-3.7 3.6-3.7m55.3125 0h36.9c2 0 3.6 1.6 3.6 3.7v37.1c0 2-1.6 3.7-3.6 3.7h-36.9c-2 0-3.6-1.6-3.6-3.7v-37.1c0-2.1 1.6-3.7 3.6-3.7m55.35-.638h36.9c2 0 3.6 1.6 3.6 3.7v37.1c0 2-1.6 3.7-3.6 3.7h-36.9c-2 0-3.6-1.6-3.6-3.7v-37.1c0-2 1.6-3.7 3.6-3.7m-598.2813 56.0311h36.9c2 0 3.6 1.6 3.6 3.7v37c0 2-1.6 3.7-3.6 3.7h-36.9c-2 0-3.6-1.6-3.6-3.7v-37.1c0-2 1.6-3.6 3.6-3.6m55.7813 0h36.9c2 0 3.6 1.6 3.6 3.7v37c0 2-1.6 3.7-3.6 3.7h-36.9c-2 0-3.6-1.6-3.6-3.7v-37.1c0-2 1.6-3.6 3.6-3.6m55.125 0h36.9c2 0 3.6 1.6 3.6 3.7v37c0 2-1.6 3.7-3.6 3.7h-36.9c-2 0-3.6-1.6-3.6-3.7v-37.1c0-2 1.6-3.6 3.6-3.6m55.5375 0h36.9c2 0 3.6 1.6 3.6 3.7v37c0 2-1.6 3.7-3.6 3.7h-36.9c-2 0-3.6-1.6-3.6-3.7v-37.1c0-2 1.6-3.6 3.6-3.6m55.4125 0h37c2 0 3.6 1.6 3.6 3.7v37c0 2-1.6 3.7-3.6 3.7h-37c-2 0-3.6-1.6-3.6-3.7v-37.1c0-2 1.6-3.6 3.6-3.6m55.4125 0h36.9c2 0 3.6 1.6 3.6 3.7v37c0 2-1.6 3.7-3.6 3.7h-36.9c-2 0-3.6-1.6-3.6-3.7v-37.1c0-2 1.6-3.6 3.6-3.6m54.9812 0h36.9c2 0 3.6 1.6 3.6 3.7v37c0 2-1.6 3.7-3.6 3.7h-36.9c-2 0-3.6-1.6-3.6-3.7v-37.1c-.1-2 1.6-3.6 3.6-3.6m55.6813 0h36.9c2 0 3.6 1.6 3.6 3.7v37c0 2-1.6 3.7-3.6 3.7h-36.9c-2 0-3.6-1.6-3.6-3.7v-37.1c0-2 1.6-3.6 3.6-3.6m55.225 0h36.9c2 0 3.6 1.6 3.6 3.7v37c0 2-1.6 3.7-3.6 3.7h-36.9c-2 0-3.6-1.6-3.6-3.7v-37.1c-.1-2 1.5-3.6 3.6-3.6m55.5375 0h36.9c2 0 3.6 1.6 3.6 3.7v37c0 2-1.6 3.7-3.6 3.7h-36.9c-2 0-3.6-1.6-3.6-3.7v-37.1c-.1-2 1.6-3.6 3.6-3.6m55.4125 0h36.9c2 0 3.6 1.6 3.6 3.7v37c0 2-1.6 3.7-3.6 3.7h-36.9c-2 0-3.6-1.6-3.6-3.7v-37.1c-.1-2 1.5-3.6 3.6-3.6m55.25-.638h36.9c2 0 3.6 1.6 3.6 3.7v37.1c0 2-1.6 3.7-3.6 3.7h-36.9c-2 0-3.6-1.6-3.6-3.7v-37.1c0-2 1.6-3.7 3.6-3.7m-587.1063 55.8449h36.9c2 0 3.6 1.6 3.6 3.7v37.1c0 2-1.6 3.7-3.6 3.7h-36.9c-2 0-3.6-1.6-3.6-3.7v-37.1c-.1-2.1 1.6-3.7 3.6-3.7m55.6813 0h36.9c2 0 3.6 1.6 3.6 3.7v37.1c0 2-1.6 3.7-3.6 3.7h-36.9c-2 0-3.6-1.6-3.6-3.7v-37.1c0-2.1 1.6-3.7 3.6-3.7m55.225 0h36.9c2 0 3.6 1.6 3.6 3.7v37.1c0 2-1.6 3.7-3.6 3.7h-36.9c-2 0-3.6-1.6-3.6-3.7v-37.1c-.1-2.1 1.5-3.7 3.6-3.7m55.5375 0h36.9c2 0 3.6 1.6 3.6 3.7v37.1c0 2-1.6 3.7-3.6 3.7h-36.9c-2 0-3.6-1.6-3.6-3.7v-37.1c-.1-2.1 1.6-3.7 3.6-3.7m55.4125 0h36.9c2 0 3.6 1.6 3.6 3.7v37.1c0 2-1.6 3.7-3.6 3.7h-36.9c-2 0-3.6-1.6-3.6-3.7v-37.1c-.1-2.1 1.5-3.7 3.6-3.7m55.3125 0h36.9c2 0 3.6 1.6 3.6 3.7v37.1c0 2-1.6 3.7-3.6 3.7h-36.9c-2 0-3.6-1.6-3.6-3.7v-37.1c0-2.1 1.6-3.7 3.6-3.7m54.9812 0h36.9c2 0 3.6 1.6 3.6 3.7v37.1c0 2-1.6 3.7-3.6 3.7h-36.9c-2 0-3.6-1.6-3.6-3.7v-37.1c0-2.1 1.6-3.7 3.6-3.7m55.7813 0h36.9c2 0 3.6 1.6 3.6 3.7v37.1c0 2-1.6 3.7-3.6 3.7h-36.9c-2 0-3.6-1.6-3.6-3.7v-37.1c-.1-2.1 1.6-3.7 3.6-3.7m55.125 0h36.9c2 0 3.6 1.6 3.6 3.7v37.1c0 2-1.6 3.7-3.6 3.7h-36.9c-2 0-3.6-1.6-3.6-3.7v-37.1c0-2.1 1.6-3.7 3.6-3.7m55.5375 0h36.9c2 0 3.6 1.6 3.6 3.7v37.1c0 2-1.6 3.7-3.6 3.7h-36.9c-2 0-3.6-1.6-3.6-3.7v-37.1c0-2.1 1.6-3.7 3.6-3.7m55.4125 0h36.9c2 0 3.6 1.6 3.6 3.7v37.1c0 2-1.6 3.7-3.6 3.7h-36.9c-2 0-3.6-1.6-3.6-3.7v-37.1c-.1-2.1 1.6-3.7 3.6-3.7"/>
  <path fill="#579d1c" d="M945.5226 612.03800305h37c2 0 3.6 1.6 3.6 3.6v37c0 2-1.6 3.6-3.6 3.6h-37c-2 0-3.6-1.6-3.6-3.6v-37c0-2 1.6-3.6 3.6-3.6"/>
  <path fill="#e6e6e6" d="M927.0018 656.29140305c2 0 3.6-1.6 3.6-3.7v-37.1c0-2-1.6-3.7-3.6-3.7h-479.6c-2 0-3.6 1.6-3.6 3.7v37.1c0 2 1.6 3.7 3.6 3.7h479.6z"/>
  <path fill="#b3b3b3" d="M991.6205 556.64140305h55.5c3 0 5.5 1.6 5.5 3.6v36.9c0 2-2.4 3.6-5.5 3.6h-55.5c-3 0-5.5-1.6-5.5-3.6v-36.9c.1-2 2.5-3.6 5.5-3.6m90.4353-110.6504c2 0 3.6 1.6 3.6 3.6v92.3c0 2-1.6 3.6-3.6 3.6h-59.2c-2 0-3.6-1.6-3.6-3.6v-48c0-2-1.6-3.6-3.6-3.6h-3.6c-2 0-3.6-1.6-3.6-3.6v-37.2c0-2 1.6-3.6 3.6-3.6l70 .1"/>
  <path fill="#e6e6e6" d="M1155.8726 335.81830305h36.9c2 0 3.6 1.6 3.6 3.7v37.1c0 2-1.6 3.7-3.6 3.7h-36.9c-2 0-3.6-1.6-3.6-3.7v-37.2c-.1-2 1.6-3.6 3.6-3.6m55.4125 0h36.9c2 0 3.6 1.6 3.6 3.7v37.1c0 2-1.6 3.7-3.6 3.7h-36.9c-2 0-3.6-1.6-3.6-3.7v-37.2c-.1-2 1.5-3.6 3.6-3.6m55.25-.6379h36.9c2 0 3.6 1.6 3.6 3.7v37.1c0 2-1.6 3.7-3.6 3.7h-36.9c-2 0-3.6-1.6-3.6-3.7v-37.1c0-2 1.6-3.7 3.6-3.7"/>
  <path fill="#b3b3b3" d="M1322.1118 336.16310305h36.5c2 0 3.6 1.6 3.6 3.6v36.5c0 2-1.6 3.6-3.6 3.6h-36.5c-2 0-3.6-1.6-3.6-3.6v-36.5c0-2 1.7-3.6 3.6-3.6"/>
  <path fill="#e6e6e6" d="M1155.8726 390.90300305h36.9c2 0 3.6 1.6 3.6 3.7v37.1c0 2-1.6 3.7-3.6 3.7h-36.9c-2 0-3.6-1.6-3.6-3.7v-37.1c-.1-2 1.6-3.7 3.6-3.7m55.4125 0h36.9c2 0 3.6 1.6 3.6 3.7v37.1c0 2-1.6 3.7-3.6 3.7h-36.9c-2 0-3.6-1.6-3.6-3.7v-37.1c-.1-2 1.5-3.7 3.6-3.7m55.25-.538h36.9c2 0 3.6 1.6 3.6 3.7v37.1c0 2-1.6 3.7-3.6 3.7h-36.9c-2 0-3.6-1.6-3.6-3.7v-37.1c0-2.1 1.6-3.7 3.6-3.7"/>
  <path fill="#b3b3b3" d="M1322.1118 391.24780305h36.5c2 0 3.6 1.6 3.6 3.6v36.5c0 2-1.6 3.6-3.6 3.6h-36.5c-2 0-3.6-1.6-3.6-3.6v-36.5c0-2 1.7-3.6 3.6-3.6"/>
  <path fill="#e6e6e6" d="M1155.8726 446.42440305h36.9c2 0 3.6 1.6 3.6 3.7v37.1c0 2-1.6 3.7-3.6 3.7h-36.9c-2 0-3.6-1.6-3.6-3.7v-37.1c-.1-2.1 1.6-3.7 3.6-3.7m55.4126 0h36.9c2 0 3.6 1.6 3.6 3.7v37.1c0 2-1.6 3.7-3.6 3.7h-36.9c-2 0-3.6-1.6-3.6-3.7v-37.1c-.1-2.1 1.5-3.7 3.6-3.7m55.25-.5379h36.9c2 0 3.6 1.6 3.6 3.7v37.1c0 2-1.6 3.7-3.6 3.7h-36.9c-2 0-3.6-1.6-3.6-3.7v-37.1c0-2.1 1.6-3.7 3.6-3.7"/>
  <path fill="#b3b3b3" d="M1322.1118 446.76930305h36.5c2 0 3.6 1.6 3.6 3.6v36.5c0 2-1.6 3.6-3.6 3.6h-36.5c-2 0-3.6-1.6-3.6-3.6v-36.5c0-2 1.7-3.6 3.6-3.6"/>
  <path fill="#e6e6e6" d="M1156.0959 501.48540305h36.9c2 0 3.6 1.6 3.6 3.7v37.1c0 2-1.6 3.7-3.6 3.7h-36.9c-2 0-3.6-1.6-3.6-3.7v-37.1c0-2.1 1.6-3.7 3.6-3.7m55.4125 0h36.9c2 0 3.6 1.6 3.6 3.7v37.1c0 2-1.6 3.7-3.6 3.7h-36.9c-2 0-3.6-1.6-3.6-3.7v-37.1c0-2.1 1.6-3.7 3.6-3.7m55.35-.638h36.9c2 0 3.6 1.6 3.6 3.7v37.1c0 2-1.6 3.7-3.6 3.7h-36.9c-2 0-3.6-1.6-3.6-3.7v-37.1c-.1-2 1.6-3.7 3.6-3.7"/>
  <path fill="#b3b3b3" d="M1322.435 501.83020305h36.5c2 0 3.6 1.6 3.6 3.6v36.5c0 2-1.6 3.6-3.6 3.6h-36.5c-2 0-3.6-1.6-3.6-3.6v-36.5c0-2 1.6-3.6 3.6-3.6m-240.176-166.7013c2 0 3.6-1.6 3.6-3.6v-15c0-2-1.6-3.6-3.6-3.6h-59.2c-2 0-3.6 1.6-3.6 3.6v15c0 2 1.6 3.6 3.6 3.6h59.2zm-71.9625 0c2 0 3.6-1.6 3.6-3.6v-15c0-2-1.6-3.6-3.6-3.6h-59.2c-2 0-3.6 1.6-3.6 3.6v15c0 2 1.6 3.6 3.6 3.6h59.2zm-71.9626 0c2 0 3.6-1.6 3.6-3.6v-15c0-2-1.6-3.6-3.6-3.6h-59.2c-2 0-3.6 1.6-3.6 3.6v15c0 2 1.6 3.6 3.6 3.6h59.2zm-72.025 0c2 0 3.6-1.6 3.6-3.6v-15c0-2-1.6-3.6-3.6-3.6h-59.2c-2 0-3.6 1.6-3.6 3.6v15c0 2 1.6 3.6 3.6 3.6h59.2z"/>
  <path fill="red" d="M794.4089 335.12890305c2 0 3.6-1.6 3.6-3.6v-15c0-2-1.6-3.6-3.6-3.6h-59.2c-2 0-3.6 1.6-3.6 3.6v15c0 2 1.6 3.6 3.6 3.6h59.2z"/>
  <path fill="#b3b3b3" d="M617.2589 335.04880305c2 0 3.6-1.6 3.6-3.6v-15c0-2-1.6-3.6-3.6-3.6h-59.2c-2 0-3.6 1.6-3.6 3.6v15c0 2 1.6 3.6 3.6 3.6h59.2zm-71.9978.0801c2 0 3.6-1.6 3.6-3.6v-15c0-2-1.6-3.6-3.6-3.6h-59.2c-2 0-3.6 1.6-3.6 3.6v15c0 2 1.6 3.6 3.6 3.6h59.2zm-72.1522 0c2 0 3.6-1.6 3.6-3.6v-15c0-2-1.6-3.6-3.6-3.6h-59.2c-2 0-3.6 1.6-3.6 3.6v15c0 2 1.6 3.6 3.6 3.6h59.2zm-71.8-.0082c2 0 3.6-1.6 3.6-3.6v-15c0-2-1.6-3.6-3.6-3.6h-59.2c-2 0-3.6 1.6-3.6 3.6v15c0 2 1.6 3.6 3.6 3.6h59.2zm-71.9978 0c2 0 3.6-1.6 3.6-3.6v-15c0-2-1.6-3.6-3.6-3.6h-59.2c-2 0-3.6 1.6-3.6 3.6v15c0 2 1.6 3.6 3.6 3.6h59.2z"/>
  <path fill="#2323dc" d="M1196.5621 656.25390305l11.1-49.8-11.1-49.9h-40.8c-2 0-3.6 1.6-3.6 3.6v92.6c0 2 1.6 3.6 3.6 3.6l40.8-.1z"/>
  <path fill="#fff" d="M1169.3621 618.51050305l-12.1-12.1 12.1-12.1v24.2zm-11-12.1l10.1 10.1v-20.3l-10.1 10.2z"/>
  <path fill="#2323dc" d="M1318.3997 556.58550305l-11.1 49.8 11.1 49.9h40.8c2 0 3.6-1.6 3.6-3.6v-92.6c0-2-1.6-3.6-3.6-3.6l-40.8.1z"/>
  <path fill="#fff" d="M1345.5997 618.42890305v-24.1l12.1 12.1-12.1 12zm.8-22.1v20.3l10.1-10.1-10.1-10.2z"/>
  <path fill="#2323dc" d="M1207.8979 556.52960305h99.7l-11.1 44.4h-77.5l-11.1-44.4z"/>
  <path fill="#fff" d="M1269.7979 573.65460305h-24.1l12.1-12.1 12 12.1zm-22.2-.8h20.3l-10.1-10.1-10.2 10.1z"/>
  <path fill="#2323dc" d="M1307.5479 656.29140305h-99.7l11.1-44.4h77.5l11.1 44.4z"/>
  <path fill="#fff" d="M1257.7479 651.26640305l-12.1-12.1h24.1l-12 12.1zm-10.1-11.3l10.1 10.1 10.1-10.1h-20.2z"/>
  <path fill="#d6d4d4" d="M258.275 126.80000305c-2 0-3.8.6-3.8 1.3v160.7c0 .7 1.7 1.3 3.8 1.3h1112.9c2 0 3.7-.6 3.7-1.3v-160.7c0-.7-1.7-1.3-3.7-1.3h-1112.9z"/>
  <path fill="#b7b7b7" d="M1021.4682 220.24260305c-1.1 0-2.1.9-2.1 2.1v41.1c0 1.1.9 2.1 2.1 2.1h246.1c1.1 0 2.1-.9 2.1-2.1v-41.1c0-1.1-.9-2.1-2.1-2.1h-246.1z"/>
  <path fill="#545353" d="M1211.5252 256.56060305h-180c-1.1 0-2.1-.9-2.1-2.1v-23.2c0-1.1.9-2.1 2.1-2.1h180c1.1 0 2.1.9 2.1 2.1v23.2c0 1.2-.9 2.1-2.1 2.1zm-180-26.3c-.6 0-1.1.5-1.1 1.1v23.2c0 .6.5 1.1 1.1 1.1h180c.6 0 1.1-.5 1.1-1.1v-23.2c0-.6-.5-1.1-1.1-1.1h-180z"/>
  <path fill="#4f4d4d" d="M1244.9132 230.35260305c6.9 0 12.5 5.6 12.5 12.5s-5.6 12.5-12.5 12.5-12.5-5.6-12.5-12.5 5.6-12.5 12.5-12.5"/>
  <path fill="#545353" d="M1055.6758 233.57201305h1.5v18.6h-1.5zm131.1 0h1.5v18.6h-1.5z"/>
  <path fill="#b7b7b7" d="M1021.4682 153.43810305c-1.1 0-2.1.9-2.1 2.1v41.1c0 1.1.9 2.1 2.1 2.1h246.1c1.1 0 2.1-.9 2.1-2.1v-41.1c0-1.1-.9-2.1-2.1-2.1h-246.1z"/>
  <path fill="#545353" d="M1211.5252 189.65610305h-180c-1.1 0-2.1-.9-2.1-2.1v-23.2c0-1.1.9-2.1 2.1-2.1h180c1.1 0 2.1.9 2.1 2.1v23.2c0 1.2-.9 2.1-2.1 2.1zm-180-26.3c-.6 0-1.1.5-1.1 1.1v23.2c0 .6.5 1.1 1.1 1.1h180c.6 0 1.1-.5 1.1-1.1v-23.2c0-.6-.5-1.1-1.1-1.1h-180z"/>
  <path fill="#4f4d4d" d="M1244.9132 163.54810305c6.9 0 12.5 5.6 12.5 12.5s-5.6 12.5-12.5 12.5-12.5-5.6-12.5-12.5 5.6-12.5 12.5-12.5"/>
  <path fill="#545353" d="M1055.6758 166.67200305h1.5v18.6h-1.5zm131.1 0h1.5v18.6h-1.5z"/>
  <path fill="#515050" d="M362.2599 167.49440305c-.7 0-1.2 1-1.2 2.1v3.3c0 1.1.6 2.1 1.2 2.1h5.8c.7 0 1.2-.9 1.2-2.1v-3.3c0-1.1-.6-2.1-1.2-2.1h-5.8zm0 12.75c-.7 0-1.2 1-1.2 2.1v3.3c0 1.1.6 2.1 1.2 2.1h5.8c.7 0 1.2-.9 1.2-2.1v-3.3c0-1.1-.6-2.1-1.2-2.1h-5.8zm0 12.85c-.7 0-1.2 1-1.2 2.1v3.3c0 1.1.6 2.1 1.2 2.1h5.8c.7 0 1.2-.9 1.2-2.1v-3.3c0-1.1-.6-2.1-1.2-2.1h-5.8zm0 12.75c-.7 0-1.2 1-1.2 2.1v3.3c0 1.1.6 2.1 1.2 2.1h5.8c.7 0 1.2-.9 1.2-2.1v-3.3c0-1.1-.6-2.1-1.2-2.1h-5.8zm0 12.85c-.7 0-1.2 1-1.2 2.1v3.3c0 1.1.6 2.1 1.2 2.1h5.8c.7 0 1.2-.9 1.2-2.1v-3.3c0-1.1-.6-2.1-1.2-2.1h-5.8zm0 12.85c-.7 0-1.2 1-1.2 2.1v3.3c0 1.1.6 2.1 1.2 2.1h5.8c.7 0 1.2-.9 1.2-2.1v-3.3c0-1.1-.6-2.1-1.2-2.1h-5.8zm0 12.75c-.7 0-1.2 1-1.2 2.1v3.3c0 1.1.6 2.1 1.2 2.1h5.8c.7 0 1.2-.9 1.2-2.1v-3.3c0-1.1-.6-2.1-1.2-2.1h-5.8zm13.1-76.8c-.7 0-1.2 1-1.2 2.1v3.3c0 1.1.6 2.1 1.2 2.1h5.8c.7 0 1.2-.9 1.2-2.1v-3.3c0-1.1-.6-2.1-1.2-2.1h-5.8zm0 12.75c-.7 0-1.2 1-1.2 2.1v3.3c0 1.1.6 2.1 1.2 2.1h5.8c.7 0 1.2-.9 1.2-2.1v-3.3c0-1.1-.6-2.1-1.2-2.1h-5.8zm0 12.85c-.7 0-1.2 1-1.2 2.1v3.3c0 1.1.6 2.1 1.2 2.1h5.8c.7 0 1.2-.9 1.2-2.1v-3.3c0-1.1-.6-2.1-1.2-2.1h-5.8zm0 12.75c-.7 0-1.2 1-1.2 2.1v3.3c0 1.1.6 2.1 1.2 2.1h5.8c.7 0 1.2-.9 1.2-2.1v-3.3c0-1.1-.6-2.1-1.2-2.1h-5.8zm0 12.85c-.7 0-1.2 1-1.2 2.1v3.3c0 1.1.6 2.1 1.2 2.1h5.8c.7 0 1.2-.9 1.2-2.1v-3.3c0-1.1-.6-2.1-1.2-2.1h-5.8zm0 12.85c-.7 0-1.2 1-1.2 2.1v3.3c0 1.1.6 2.1 1.2 2.1h5.8c.7 0 1.2-.9 1.2-2.1v-3.3c0-1.1-.6-2.1-1.2-2.1h-5.8zm0 12.75c-.7 0-1.2 1-1.2 2.1v3.3c0 1.1.6 2.1 1.2 2.1h5.8c.7 0 1.2-.9 1.2-2.1v-3.3c0-1.1-.6-2.1-1.2-2.1h-5.8zm13.1-76.8c-.7 0-1.2 1-1.2 2.1v3.3c0 1.1.6 2.1 1.2 2.1h5.8c.7 0 1.2-.9 1.2-2.1v-3.3c0-1.1-.6-2.1-1.2-2.1h-5.8zm0 12.75c-.7 0-1.2 1-1.2 2.1v3.3c0 1.1.6 2.1 1.2 2.1h5.8c.7 0 1.2-.9 1.2-2.1v-3.3c0-1.1-.6-2.1-1.2-2.1h-5.8zm0 12.85c-.7 0-1.2 1-1.2 2.1v3.3c0 1.1.6 2.1 1.2 2.1h5.8c.7 0 1.2-.9 1.2-2.1v-3.3c0-1.1-.6-2.1-1.2-2.1h-5.8zm0 12.75c-.7 0-1.2 1-1.2 2.1v3.3c0 1.1.6 2.1 1.2 2.1h5.8c.7 0 1.2-.9 1.2-2.1v-3.3c0-1.1-.6-2.1-1.2-2.1h-5.8zm0 12.85c-.7 0-1.2 1-1.2 2.1v3.3c0 1.1.6 2.1 1.2 2.1h5.8c.7 0 1.2-.9 1.2-2.1v-3.3c0-1.1-.6-2.1-1.2-2.1h-5.8zm0 12.85c-.7 0-1.2 1-1.2 2.1v3.3c0 1.1.6 2.1 1.2 2.1h5.8c.7 0 1.2-.9 1.2-2.1v-3.3c0-1.1-.6-2.1-1.2-2.1h-5.8zm0 12.75c-.7 0-1.2 1-1.2 2.1v3.3c0 1.1.6 2.1 1.2 2.1h5.8c.7 0 1.2-.9 1.2-2.1v-3.3c0-1.1-.6-2.1-1.2-2.1h-5.8zm13.1-76.8c-.7 0-1.2 1-1.2 2.1v3.3c0 1.1.6 2.1 1.2 2.1h5.8c.7 0 1.2-.9 1.2-2.1v-3.3c0-1.1-.6-2.1-1.2-2.1h-5.8zm0 12.75c-.7 0-1.2 1-1.2 2.1v3.3c0 1.1.6 2.1 1.2 2.1h5.8c.7 0 1.2-.9 1.2-2.1v-3.3c0-1.1-.6-2.1-1.2-2.1h-5.8zm0 12.85c-.7 0-1.2 1-1.2 2.1v3.3c0 1.1.6 2.1 1.2 2.1h5.8c.7 0 1.2-.9 1.2-2.1v-3.3c0-1.1-.6-2.1-1.2-2.1h-5.8zm0 12.75c-.7 0-1.2 1-1.2 2.1v3.3c0 1.1.6 2.1 1.2 2.1h5.8c.7 0 1.2-.9 1.2-2.1v-3.3c0-1.1-.6-2.1-1.2-2.1h-5.8zm0 12.85c-.7 0-1.2 1-1.2 2.1v3.3c0 1.1.6 2.1 1.2 2.1h5.8c.7 0 1.2-.9 1.2-2.1v-3.3c0-1.1-.6-2.1-1.2-2.1h-5.8zm0 12.85c-.7 0-1.2 1-1.2 2.1v3.3c0 1.1.6 2.1 1.2 2.1h5.8c.7 0 1.2-.9 1.2-2.1v-3.3c0-1.1-.6-2.1-1.2-2.1h-5.8zm0 12.75c-.7 0-1.2 1-1.2 2.1v3.3c0 1.1.6 2.1 1.2 2.1h5.8c.7 0 1.2-.9 1.2-2.1v-3.3c0-1.1-.6-2.1-1.2-2.1h-5.8zm13.2-76.8c-.7 0-1.2 1-1.2 2.1v3.3c0 1.1.6 2.1 1.2 2.1h5.8c.7 0 1.2-.9 1.2-2.1v-3.3c0-1.1-.6-2.1-1.2-2.1h-5.8zm0 12.75c-.7 0-1.2 1-1.2 2.1v3.3c0 1.1.6 2.1 1.2 2.1h5.8c.7 0 1.2-.9 1.2-2.1v-3.3c0-1.1-.6-2.1-1.2-2.1h-5.8zm0 12.85c-.7 0-1.2 1-1.2 2.1v3.3c0 1.1.6 2.1 1.2 2.1h5.8c.7 0 1.2-.9 1.2-2.1v-3.3c0-1.1-.6-2.1-1.2-2.1h-5.8zm0 12.75c-.7 0-1.2 1-1.2 2.1v3.3c0 1.1.6 2.1 1.2 2.1h5.8c.7 0 1.2-.9 1.2-2.1v-3.3c0-1.1-.6-2.1-1.2-2.1h-5.8zm0 12.85c-.7 0-1.2 1-1.2 2.1v3.3c0 1.1.6 2.1 1.2 2.1h5.8c.7 0 1.2-.9 1.2-2.1v-3.3c0-1.1-.6-2.1-1.2-2.1h-5.8zm0 12.85c-.7 0-1.2 1-1.2 2.1v3.3c0 1.1.6 2.1 1.2 2.1h5.8c.7 0 1.2-.9 1.2-2.1v-3.3c0-1.1-.6-2.1-1.2-2.1h-5.8zm0 12.75c-.7 0-1.2 1-1.2 2.1v3.3c0 1.1.6 2.1 1.2 2.1h5.8c.7 0 1.2-.9 1.2-2.1v-3.3c0-1.1-.6-2.1-1.2-2.1h-5.8zm13.1-76.8c-.7 0-1.2 1-1.2 2.1v3.3c0 1.1.6 2.1 1.2 2.1h5.8c.7 0 1.2-.9 1.2-2.1v-3.3c0-1.1-.6-2.1-1.2-2.1h-5.8zm0 12.75c-.7 0-1.2 1-1.2 2.1v3.3c0 1.1.6 2.1 1.2 2.1h5.8c.7 0 1.2-.9 1.2-2.1v-3.3c0-1.1-.6-2.1-1.2-2.1h-5.8zm0 12.85c-.7 0-1.2 1-1.2 2.1v3.3c0 1.1.6 2.1 1.2 2.1h5.8c.7 0 1.2-.9 1.2-2.1v-3.3c0-1.1-.6-2.1-1.2-2.1h-5.8zm0 12.75c-.7 0-1.2 1-1.2 2.1v3.3c0 1.1.6 2.1 1.2 2.1h5.8c.7 0 1.2-.9 1.2-2.1v-3.3c0-1.1-.6-2.1-1.2-2.1h-5.8zm0 12.85c-.7 0-1.2 1-1.2 2.1v3.3c0 1.1.6 2.1 1.2 2.1h5.8c.7 0 1.2-.9 1.2-2.1v-3.3c0-1.1-.6-2.1-1.2-2.1h-5.8zm0 12.85c-.7 0-1.2 1-1.2 2.1v3.3c0 1.1.6 2.1 1.2 2.1h5.8c.7 0 1.2-.9 1.2-2.1v-3.3c0-1.1-.6-2.1-1.2-2.1h-5.8zm0 12.75c-.7 0-1.2 1-1.2 2.1v3.3c0 1.1.6 2.1 1.2 2.1h5.8c.7 0 1.2-.9 1.2-2.1v-3.3c0-1.1-.6-2.1-1.2-2.1h-5.8zm13.1-76.8c-.7 0-1.2 1-1.2 2.1v3.3c0 1.1.6 2.1 1.2 2.1h5.8c.7 0 1.2-.9 1.2-2.1v-3.3c0-1.1-.6-2.1-1.2-2.1h-5.8zm0 12.75c-.7 0-1.2 1-1.2 2.1v3.3c0 1.1.6 2.1 1.2 2.1h5.8c.7 0 1.2-.9 1.2-2.1v-3.3c0-1.1-.6-2.1-1.2-2.1h-5.8zm0 12.85c-.7 0-1.2 1-1.2 2.1v3.3c0 1.1.6 2.1 1.2 2.1h5.8c.7 0 1.2-.9 1.2-2.1v-3.3c0-1.1-.6-2.1-1.2-2.1h-5.8zm0 12.75c-.7 0-1.2 1-1.2 2.1v3.3c0 1.1.6 2.1 1.2 2.1h5.8c.7 0 1.2-.9 1.2-2.1v-3.3c0-1.1-.6-2.1-1.2-2.1h-5.8zm0 12.85c-.7 0-1.2 1-1.2 2.1v3.3c0 1.1.6 2.1 1.2 2.1h5.8c.7 0 1.2-.9 1.2-2.1v-3.3c0-1.1-.6-2.1-1.2-2.1h-5.8zm0 12.85c-.7 0-1.2 1-1.2 2.1v3.3c0 1.1.6 2.1 1.2 2.1h5.8c.7 0 1.2-.9 1.2-2.1v-3.3c0-1.1-.6-2.1-1.2-2.1h-5.8zm0 12.75c-.7 0-1.2 1-1.2 2.1v3.3c0 1.1.6 2.1 1.2 2.1h5.8c.7 0 1.2-.9 1.2-2.1v-3.3c0-1.1-.6-2.1-1.2-2.1h-5.8zm13.1-76.8c-.7 0-1.2 1-1.2 2.1v3.3c0 1.1.6 2.1 1.2 2.1h5.8c.7 0 1.2-.9 1.2-2.1v-3.3c0-1.1-.6-2.1-1.2-2.1h-5.8zm0 12.75c-.7 0-1.2 1-1.2 2.1v3.3c0 1.1.6 2.1 1.2 2.1h5.8c.7 0 1.2-.9 1.2-2.1v-3.3c0-1.1-.6-2.1-1.2-2.1h-5.8zm0 12.85c-.7 0-1.2 1-1.2 2.1v3.3c0 1.1.6 2.1 1.2 2.1h5.8c.7 0 1.2-.9 1.2-2.1v-3.3c0-1.1-.6-2.1-1.2-2.1h-5.8zm0 12.75c-.7 0-1.2 1-1.2 2.1v3.3c0 1.1.6 2.1 1.2 2.1h5.8c.7 0 1.2-.9 1.2-2.1v-3.3c0-1.1-.6-2.1-1.2-2.1h-5.8zm0 12.85c-.7 0-1.2 1-1.2 2.1v3.3c0 1.1.6 2.1 1.2 2.1h5.8c.7 0 1.2-.9 1.2-2.1v-3.3c0-1.1-.6-2.1-1.2-2.1h-5.8zm0 12.85c-.7 0-1.2 1-1.2 2.1v3.3c0 1.1.6 2.1 1.2 2.1h5.8c.7 0 1.2-.9 1.2-2.1v-3.3c0-1.1-.6-2.1-1.2-2.1h-5.8zm0 12.75c-.7 0-1.2 1-1.2 2.1v3.3c0 1.1.6 2.1 1.2 2.1h5.8c.7 0 1.2-.9 1.2-2.1v-3.3c0-1.1-.6-2.1-1.2-2.1h-5.8zm13.2-76.8c-.7 0-1.2 1-1.2 2.1v3.3c0 1.1.6 2.1 1.2 2.1h5.8c.7 0 1.2-.9 1.2-2.1v-3.3c0-1.1-.6-2.1-1.2-2.1h-5.8zm0 12.75c-.7 0-1.2 1-1.2 2.1v3.3c0 1.1.6 2.1 1.2 2.1h5.8c.7 0 1.2-.9 1.2-2.1v-3.3c0-1.1-.6-2.1-1.2-2.1h-5.8zm0 12.85c-.7 0-1.2 1-1.2 2.1v3.3c0 1.1.6 2.1 1.2 2.1h5.8c.7 0 1.2-.9 1.2-2.1v-3.3c0-1.1-.6-2.1-1.2-2.1h-5.8zm0 12.75c-.7 0-1.2 1-1.2 2.1v3.3c0 1.1.6 2.1 1.2 2.1h5.8c.7 0 1.2-.9 1.2-2.1v-3.3c0-1.1-.6-2.1-1.2-2.1h-5.8zm0 12.85c-.7 0-1.2 1-1.2 2.1v3.3c0 1.1.6 2.1 1.2 2.1h5.8c.7 0 1.2-.9 1.2-2.1v-3.3c0-1.1-.6-2.1-1.2-2.1h-5.8zm0 12.85c-.7 0-1.2 1-1.2 2.1v3.3c0 1.1.6 2.1 1.2 2.1h5.8c.7 0 1.2-.9 1.2-2.1v-3.3c0-1.1-.6-2.1-1.2-2.1h-5.8zm0 12.75c-.7 0-1.2 1-1.2 2.1v3.3c0 1.1.6 2.1 1.2 2.1h5.8c.7 0 1.2-.9 1.2-2.1v-3.3c0-1.1-.6-2.1-1.2-2.1h-5.8zm13.1-76.8c-.7 0-1.2 1-1.2 2.1v3.3c0 1.1.6 2.1 1.2 2.1h5.8c.7 0 1.2-.9 1.2-2.1v-3.3c0-1.1-.6-2.1-1.2-2.1h-5.8zm0 12.75c-.7 0-1.2 1-1.2 2.1v3.3c0 1.1.6 2.1 1.2 2.1h5.8c.7 0 1.2-.9 1.2-2.1v-3.3c0-1.1-.6-2.1-1.2-2.1h-5.8zm0 12.85c-.7 0-1.2 1-1.2 2.1v3.3c0 1.1.6 2.1 1.2 2.1h5.8c.7 0 1.2-.9 1.2-2.1v-3.3c0-1.1-.6-2.1-1.2-2.1h-5.8zm0 12.75c-.7 0-1.2 1-1.2 2.1v3.3c0 1.1.6 2.1 1.2 2.1h5.8c.7 0 1.2-.9 1.2-2.1v-3.3c0-1.1-.6-2.1-1.2-2.1h-5.8zm0 12.85c-.7 0-1.2 1-1.2 2.1v3.3c0 1.1.6 2.1 1.2 2.1h5.8c.7 0 1.2-.9 1.2-2.1v-3.3c0-1.1-.6-2.1-1.2-2.1h-5.8zm0 12.85c-.7 0-1.2 1-1.2 2.1v3.3c0 1.1.6 2.1 1.2 2.1h5.8c.7 0 1.2-.9 1.2-2.1v-3.3c0-1.1-.6-2.1-1.2-2.1h-5.8zm0 12.75c-.7 0-1.2 1-1.2 2.1v3.3c0 1.1.6 2.1 1.2 2.1h5.8c.7 0 1.2-.9 1.2-2.1v-3.3c0-1.1-.6-2.1-1.2-2.1h-5.8zm13.1-76.8c-.7 0-1.2 1-1.2 2.1v3.3c0 1.1.6 2.1 1.2 2.1h5.8c.7 0 1.2-.9 1.2-2.1v-3.3c0-1.1-.6-2.1-1.2-2.1h-5.8zm0 12.75c-.7 0-1.2 1-1.2 2.1v3.3c0 1.1.6 2.1 1.2 2.1h5.8c.7 0 1.2-.9 1.2-2.1v-3.3c0-1.1-.6-2.1-1.2-2.1h-5.8zm0 12.85c-.7 0-1.2 1-1.2 2.1v3.3c0 1.1.6 2.1 1.2 2.1h5.8c.7 0 1.2-.9 1.2-2.1v-3.3c0-1.1-.6-2.1-1.2-2.1h-5.8zm0 12.75c-.7 0-1.2 1-1.2 2.1v3.3c0 1.1.6 2.1 1.2 2.1h5.8c.7 0 1.2-.9 1.2-2.1v-3.3c0-1.1-.6-2.1-1.2-2.1h-5.8zm0 12.85c-.7 0-1.2 1-1.2 2.1v3.3c0 1.1.6 2.1 1.2 2.1h5.8c.7 0 1.2-.9 1.2-2.1v-3.3c0-1.1-.6-2.1-1.2-2.1h-5.8zm0 12.85c-.7 0-1.2 1-1.2 2.1v3.3c0 1.1.6 2.1 1.2 2.1h5.8c.7 0 1.2-.9 1.2-2.1v-3.3c0-1.1-.6-2.1-1.2-2.1h-5.8zm0 12.75c-.7 0-1.2 1-1.2 2.1v3.3c0 1.1.6 2.1 1.2 2.1h5.8c.7 0 1.2-.9 1.2-2.1v-3.3c0-1.1-.6-2.1-1.2-2.1h-5.8zm13.1-76.8c-.7 0-1.2 1-1.2 2.1v3.3c0 1.1.6 2.1 1.2 2.1h5.8c.7 0 1.2-.9 1.2-2.1v-3.3c0-1.1-.6-2.1-1.2-2.1h-5.8zm0 12.75c-.7 0-1.2 1-1.2 2.1v3.3c0 1.1.6 2.1 1.2 2.1h5.8c.7 0 1.2-.9 1.2-2.1v-3.3c0-1.1-.6-2.1-1.2-2.1h-5.8zm0 12.85c-.7 0-1.2 1-1.2 2.1v3.3c0 1.1.6 2.1 1.2 2.1h5.8c.7 0 1.2-.9 1.2-2.1v-3.3c0-1.1-.6-2.1-1.2-2.1h-5.8zm0 12.75c-.7 0-1.2 1-1.2 2.1v3.3c0 1.1.6 2.1 1.2 2.1h5.8c.7 0 1.2-.9 1.2-2.1v-3.3c0-1.1-.6-2.1-1.2-2.1h-5.8zm0 12.85c-.7 0-1.2 1-1.2 2.1v3.3c0 1.1.6 2.1 1.2 2.1h5.8c.7 0 1.2-.9 1.2-2.1v-3.3c0-1.1-.6-2.1-1.2-2.1h-5.8zm0 12.85c-.7 0-1.2 1-1.2 2.1v3.3c0 1.1.6 2.1 1.2 2.1h5.8c.7 0 1.2-.9 1.2-2.1v-3.3c0-1.1-.6-2.1-1.2-2.1h-5.8zm0 12.75c-.7 0-1.2 1-1.2 2.1v3.3c0 1.1.6 2.1 1.2 2.1h5.8c.7 0 1.2-.9 1.2-2.1v-3.3c0-1.1-.6-2.1-1.2-2.1h-5.8zm13.2-76.8c-.7 0-1.2 1-1.2 2.1v3.3c0 1.1.6 2.1 1.2 2.1h5.8c.7 0 1.2-.9 1.2-2.1v-3.3c0-1.1-.6-2.1-1.2-2.1h-5.8zm0 12.75c-.7 0-1.2 1-1.2 2.1v3.3c0 1.1.6 2.1 1.2 2.1h5.8c.7 0 1.2-.9 1.2-2.1v-3.3c0-1.1-.6-2.1-1.2-2.1h-5.8zm0 12.85c-.7 0-1.2 1-1.2 2.1v3.3c0 1.1.6 2.1 1.2 2.1h5.8c.7 0 1.2-.9 1.2-2.1v-3.3c0-1.1-.6-2.1-1.2-2.1h-5.8zm0 12.75c-.7 0-1.2 1-1.2 2.1v3.3c0 1.1.6 2.1 1.2 2.1h5.8c.7 0 1.2-.9 1.2-2.1v-3.3c0-1.1-.6-2.1-1.2-2.1h-5.8zm0 12.85c-.7 0-1.2 1-1.2 2.1v3.3c0 1.1.6 2.1 1.2 2.1h5.8c.7 0 1.2-.9 1.2-2.1v-3.3c0-1.1-.6-2.1-1.2-2.1h-5.8zm0 12.85c-.7 0-1.2 1-1.2 2.1v3.3c0 1.1.6 2.1 1.2 2.1h5.8c.7 0 1.2-.9 1.2-2.1v-3.3c0-1.1-.6-2.1-1.2-2.1h-5.8zm0 12.75c-.7 0-1.2 1-1.2 2.1v3.3c0 1.1.6 2.1 1.2 2.1h5.8c.7 0 1.2-.9 1.2-2.1v-3.3c0-1.1-.6-2.1-1.2-2.1h-5.8zm13.1-76.8c-.7 0-1.2 1-1.2 2.1v3.3c0 1.1.6 2.1 1.2 2.1h5.8c.7 0 1.2-.9 1.2-2.1v-3.3c0-1.1-.6-2.1-1.2-2.1h-5.8zm0 12.75c-.7 0-1.2 1-1.2 2.1v3.3c0 1.1.6 2.1 1.2 2.1h5.8c.7 0 1.2-.9 1.2-2.1v-3.3c0-1.1-.6-2.1-1.2-2.1h-5.8zm0 12.85c-.7 0-1.2 1-1.2 2.1v3.3c0 1.1.6 2.1 1.2 2.1h5.8c.7 0 1.2-.9 1.2-2.1v-3.3c0-1.1-.6-2.1-1.2-2.1h-5.8zm0 12.75c-.7 0-1.2 1-1.2 2.1v3.3c0 1.1.6 2.1 1.2 2.1h5.8c.7 0 1.2-.9 1.2-2.1v-3.3c0-1.1-.6-2.1-1.2-2.1h-5.8zm0 12.85c-.7 0-1.2 1-1.2 2.1v3.3c0 1.1.6 2.1 1.2 2.1h5.8c.7 0 1.2-.9 1.2-2.1v-3.3c0-1.1-.6-2.1-1.2-2.1h-5.8zm0 12.85c-.7 0-1.2 1-1.2 2.1v3.3c0 1.1.6 2.1 1.2 2.1h5.8c.7 0 1.2-.9 1.2-2.1v-3.3c0-1.1-.6-2.1-1.2-2.1h-5.8zm0 12.75c-.7 0-1.2 1-1.2 2.1v3.3c0 1.1.6 2.1 1.2 2.1h5.8c.7 0 1.2-.9 1.2-2.1v-3.3c0-1.1-.6-2.1-1.2-2.1h-5.8zm13.1-76.8c-.7 0-1.2 1-1.2 2.1v3.3c0 1.1.6 2.1 1.2 2.1h5.8c.7 0 1.2-.9 1.2-2.1v-3.3c0-1.1-.6-2.1-1.2-2.1h-5.8zm0 12.75c-.7 0-1.2 1-1.2 2.1v3.3c0 1.1.6 2.1 1.2 2.1h5.8c.7 0 1.2-.9 1.2-2.1v-3.3c0-1.1-.6-2.1-1.2-2.1h-5.8zm0 12.85c-.7 0-1.2 1-1.2 2.1v3.3c0 1.1.6 2.1 1.2 2.1h5.8c.7 0 1.2-.9 1.2-2.1v-3.3c0-1.1-.6-2.1-1.2-2.1h-5.8zm0 12.75c-.7 0-1.2 1-1.2 2.1v3.3c0 1.1.6 2.1 1.2 2.1h5.8c.7 0 1.2-.9 1.2-2.1v-3.3c0-1.1-.6-2.1-1.2-2.1h-5.8zm0 12.85c-.7 0-1.2 1-1.2 2.1v3.3c0 1.1.6 2.1 1.2 2.1h5.8c.7 0 1.2-.9 1.2-2.1v-3.3c0-1.1-.6-2.1-1.2-2.1h-5.8zm0 12.85c-.7 0-1.2 1-1.2 2.1v3.3c0 1.1.6 2.1 1.2 2.1h5.8c.7 0 1.2-.9 1.2-2.1v-3.3c0-1.1-.6-2.1-1.2-2.1h-5.8zm0 12.75c-.7 0-1.2 1-1.2 2.1v3.3c0 1.1.6 2.1 1.2 2.1h5.8c.7 0 1.2-.9 1.2-2.1v-3.3c0-1.1-.6-2.1-1.2-2.1h-5.8zm13.1-76.8c-.7 0-1.2 1-1.2 2.1v3.3c0 1.1.6 2.1 1.2 2.1h5.8c.7 0 1.2-.9 1.2-2.1v-3.3c0-1.1-.6-2.1-1.2-2.1h-5.8zm0 12.75c-.7 0-1.2 1-1.2 2.1v3.3c0 1.1.6 2.1 1.2 2.1h5.8c.7 0 1.2-.9 1.2-2.1v-3.3c0-1.1-.6-2.1-1.2-2.1h-5.8zm0 12.85c-.7 0-1.2 1-1.2 2.1v3.3c0 1.1.6 2.1 1.2 2.1h5.8c.7 0 1.2-.9 1.2-2.1v-3.3c0-1.1-.6-2.1-1.2-2.1h-5.8zm0 12.75c-.7 0-1.2 1-1.2 2.1v3.3c0 1.1.6 2.1 1.2 2.1h5.8c.7 0 1.2-.9 1.2-2.1v-3.3c0-1.1-.6-2.1-1.2-2.1h-5.8zm0 12.85c-.7 0-1.2 1-1.2 2.1v3.3c0 1.1.6 2.1 1.2 2.1h5.8c.7 0 1.2-.9 1.2-2.1v-3.3c0-1.1-.6-2.1-1.2-2.1h-5.8zm0 12.85c-.7 0-1.2 1-1.2 2.1v3.3c0 1.1.6 2.1 1.2 2.1h5.8c.7 0 1.2-.9 1.2-2.1v-3.3c0-1.1-.6-2.1-1.2-2.1h-5.8zm0 12.75c-.7 0-1.2 1-1.2 2.1v3.3c0 1.1.6 2.1 1.2 2.1h5.8c.7 0 1.2-.9 1.2-2.1v-3.3c0-1.1-.6-2.1-1.2-2.1h-5.8zm13.2-76.8c-.7 0-1.2 1-1.2 2.1v3.3c0 1.1.6 2.1 1.2 2.1h5.8c.7 0 1.2-.9 1.2-2.1v-3.3c0-1.1-.6-2.1-1.2-2.1h-5.8zm0 12.75c-.7 0-1.2 1-1.2 2.1v3.3c0 1.1.6 2.1 1.2 2.1h5.8c.7 0 1.2-.9 1.2-2.1v-3.3c0-1.1-.6-2.1-1.2-2.1h-5.8zm0 12.85c-.7 0-1.2 1-1.2 2.1v3.3c0 1.1.6 2.1 1.2 2.1h5.8c.7 0 1.2-.9 1.2-2.1v-3.3c0-1.1-.6-2.1-1.2-2.1h-5.8zm0 12.75c-.7 0-1.2 1-1.2 2.1v3.3c0 1.1.6 2.1 1.2 2.1h5.8c.7 0 1.2-.9 1.2-2.1v-3.3c0-1.1-.6-2.1-1.2-2.1h-5.8zm0 12.85c-.7 0-1.2 1-1.2 2.1v3.3c0 1.1.6 2.1 1.2 2.1h5.8c.7 0 1.2-.9 1.2-2.1v-3.3c0-1.1-.6-2.1-1.2-2.1h-5.8zm0 12.85c-.7 0-1.2 1-1.2 2.1v3.3c0 1.1.6 2.1 1.2 2.1h5.8c.7 0 1.2-.9 1.2-2.1v-3.3c0-1.1-.6-2.1-1.2-2.1h-5.8zm0 12.75c-.7 0-1.2 1-1.2 2.1v3.3c0 1.1.6 2.1 1.2 2.1h5.8c.7 0 1.2-.9 1.2-2.1v-3.3c0-1.1-.6-2.1-1.2-2.1h-5.8zm13.1-76.8c-.7 0-1.2 1-1.2 2.1v3.3c0 1.1.6 2.1 1.2 2.1h5.8c.7 0 1.2-.9 1.2-2.1v-3.3c0-1.1-.6-2.1-1.2-2.1h-5.8zm0 12.75c-.7 0-1.2 1-1.2 2.1v3.3c0 1.1.6 2.1 1.2 2.1h5.8c.7 0 1.2-.9 1.2-2.1v-3.3c0-1.1-.6-2.1-1.2-2.1h-5.8zm0 12.85c-.7 0-1.2 1-1.2 2.1v3.3c0 1.1.6 2.1 1.2 2.1h5.8c.7 0 1.2-.9 1.2-2.1v-3.3c0-1.1-.6-2.1-1.2-2.1h-5.8zm0 12.75c-.7 0-1.2 1-1.2 2.1v3.3c0 1.1.6 2.1 1.2 2.1h5.8c.7 0 1.2-.9 1.2-2.1v-3.3c0-1.1-.6-2.1-1.2-2.1h-5.8zm0 12.85c-.7 0-1.2 1-1.2 2.1v3.3c0 1.1.6 2.1 1.2 2.1h5.8c.7 0 1.2-.9 1.2-2.1v-3.3c0-1.1-.6-2.1-1.2-2.1h-5.8zm0 12.85c-.7 0-1.2 1-1.2 2.1v3.3c0 1.1.6 2.1 1.2 2.1h5.8c.7 0 1.2-.9 1.2-2.1v-3.3c0-1.1-.6-2.1-1.2-2.1h-5.8zm0 12.75c-.7 0-1.2 1-1.2 2.1v3.3c0 1.1.6 2.1 1.2 2.1h5.8c.7 0 1.2-.9 1.2-2.1v-3.3c0-1.1-.6-2.1-1.2-2.1h-5.8z"/>
  <path fill="none" stroke="#545353" stroke-miterlimit="10" d="M949.936 146.87000305c0-.9-1.1-1.6-2.5-1.6m-.0053 126.3093c1.4 0 2.5-.7 2.5-1.6m-292.6159.055c0 .9 1.1 1.6 2.5 1.6m.0037-126.3094c-1.4 0-2.5.7-2.5 1.6"/>
  <path fill="#545353" d="M656.81479 146.86999305h1v123.2h-1zm3.0037 124.209313H947.4185v1H659.81849zm.2282-126.254403h287.39999v1H660.04669zm289.3893 2.0094h1v123.2h-1z"/>
  <path fill="#515050" d="M942.1758 158.17200305h-277.2v-4.7h277.2v4.7zm.2 9.2h-277.2v-4.7h277.2v4.7zm-.2 9.1h-277.2v-4.7h277.2v4.7zm.1 9.2h-277.2v-4.7h277.2v4.7zm-.2 9.2h-277.2v-4.7h277.2v4.7zm.1 9.2h-277.2v-4.7h277.2v4.7zm.2 9.1h-277.2v-4.7h277.2v4.7zm.1 9.2h-277.2v-4.7h277.2v4.7zm-.6 9.2h-277.1v-4.7h277.2v4.7zm0 30h-277.1v-22.5h277.2v22.5z"/>
  <path fill="#b7b7b7" d="M257.8 301.25390305h1113.4v-11.2h-1113v11.2"/>
  <path fill="#221f1f" d="M1359.9927 270.88000305h3.5v-1.7h-3.5v-3.9h-1.7v3.9h-3.5v1.7h3.5v3.9h1.7v-3.9zm-13.3169 3.792h-33.9v-13.7h33.9v13.7z"/>
  <path fill="#d6d4d4" d="M1343.9696 262.94020305l-3.2 4.7 3.5 5.1h-3.2l-1.9-2.8-1.9 2.8h-3.2c.1-.2 3.5-5.2 3.5-5.2l-1.5-2h-6.2c-.3 0-.6-.1-.8.3-.1.1-.1.3 0 .4 0 .1.2.2.3.3h2.7c1.2 0 2.2.7 2.7 1.8.4.9.4 2.1-.1 2.9-.6 1.1-1.7 1.6-2.9 1.6h-6.9l-1.1-3.8-1.1 3.8h-2.5l-1-3.8-1.1 3.8h-2.8s2.6-9.2 2.7-9.8h2.4l1.1 4.1 1.1-4.1h2.3l2 7.2h4.6c.3 0 .8.1.9-.3 0-.2 0-.4-.1-.5-.1-.1-.3-.1-.4-.1h-2.6c-1.2 0-2.3-.8-2.8-1.9-.5-1.1-.2-2.5.7-3.4.6-.6 1.3-.9 2.2-1h8.1l1.6 2.4 1.7-2.4h3.2z"/>
  <path fill="#221f1f" d="M1350.7306 272.73740305c.2-1.2 3.2-1.9 3.2-4.4 0-2.4-1.7-3.1-3.2-3.1-1.5 0-3.1 1.1-3.1 3v.7h2.2v-.5c0-.6.3-1 .9-1 .5 0 .8.3.8 1 0 1.5-2.5 2.1-3.6 3.9-.4.8-.5 2.4-.5 2.4h6.2v-1.9h-2.9z"/>
  <g clip-path="url(#a)" transform="matrix(1.25,0,0,-1.25,1441.3806,667.97252)">
    <path fill="#494647" d="M228.8936 140.1644c0 1.78-1.432 3.214-3.213 3.214H3.2386c-1.78 0-3.214-1.432-3.214-3.214v-9.738c0-1.78 1.433-3.214 3.214-3.214h11.003c1.781 0 3.213-1.434 3.213-3.214v-43.327H3.2136c-1.78 0-3.214-1.432-3.214-3.213V3.2144h.001c0-1.781 1.432-3.214 3.213-3.214h222.466c1.781 0 3.214 1.432 3.214 3.213v136.951"/>
    <path fill="#b5b4b4" d="M207.7615 9.2816H44.3485c-6.6 0-12 5.4-12 12v110.097c0 6.6 5.4 12 12 12h163.413c6.6 0 12-5.4 12-12V21.2816c0-6.6-5.4-12-12-12"/>
    <path fill="#211d1d" d="M206.96032 23.508011h-20.16875v8.168108h20.16875v-8.168108z"/>
    <path fill="#fff" d="M205.364717 30.526339l-1.917372-2.800552 2.085453-3.059601h-1.925806l-1.146045 1.638039-1.155283-1.642056h-1.913155c.05201.108038 2.094289 3.063618 2.094289 3.063618l-.870529 1.211109-3.692768-.0042c-.172298-.01345-.383354.03876-.469704-.15543-.03032-.06446-.04318-.159245-.0084-.224309.02972-.0731.099-.141976.176315-.163262l.116271-.0088h1.478192c.684776-.01727 1.318545-.443598 1.615549-1.059695.263267-.517297.224309-1.223961-.06888-1.715353-.370301-.624531-1.029774-.973747-1.744872-.948043h-4.110863s-.629351 2.271206-.633568 2.275022l-.633568-2.275022-1.499277-.000401-.603246 2.284259-.659473-2.27944h-1.658924s1.525383 5.489652 1.624384 5.851719h1.400879l.659272-2.44752.672124 2.44752 1.374572.000402 1.176368-4.262477h2.740508c.189167.0092.452233-.04257.529948.189769.03012.104021.0046.211457-.06888.284553-.06928.06045-.155229.07751-.245595.07751l-1.473573.000201c-.69823.02149-1.391842.478138-1.65049 1.150062-.279935.672526-.116271 1.478593.396407 1.999103.361866.36267.792813.543804 1.297258.56509l4.834596.0042.974149-1.404293 1.007885 1.40871 1.895885-.000401z"/>
    <path fill="#e4e4e4" d="M24.6602 36.7994c0-4.23-3.429-7.659-7.659-7.659s-7.659 3.429-7.659 7.659 3.429 7.659 7.659 7.659 7.659-3.429 7.659-7.659"/>
    <path fill="#1a1717" d="M3.2383 80.6714v46.541h11.003c1.781 0 3.213-1.434 3.213-3.214v-43.327h-14.24"/>
    <path fill="#4f4c4d" d="M19.2618 118.3091H.5418c-.284 0-.517.232-.517.517v3.489c0 .284.233.516.517.516h18.72c.284 0 .517-.232.517-.516v-3.489c0-.285-.233-.517-.517-.517m0-8.0965H.5418c-.284 0-.517.232-.517.517v3.489c0 .284.233.516.517.516h18.72c.284 0 .517-.232.517-.516v-3.489c0-.285-.233-.517-.517-.517m0-8.0965H.5418c-.284 0-.517.232-.517.517v3.489c0 .284.233.516.517.516h18.72c.284 0 .517-.232.517-.516v-3.489c0-.285-.233-.517-.517-.517m0-7.8777H.5418c-.284 0-.517.232-.517.517v3.489c0 .284.233.516.517.516h18.72c.284 0 .517-.232.517-.516v-3.489c0-.285-.233-.517-.517-.517m0-7.8776H.5418c-.284 0-.517.233-.517.517v3.489c0 .284.233.516.517.516h18.72c.284 0 .517-.232.517-.516v-3.489c0-.284-.233-.517-.517-.517"/>
  </g>
</svg>
